<svg xmlns="http://www.w3.org/2000/svg" xmlns:xlink="http://www.w3.org/1999/xlink" version="1.1" width="170" height="217" viewBox="0 0 170 217">
<defs>
<path id="font_1_2" d="M.20599365 .3996582H.2999878C.31999208 .3996582 .32998658 .3996582 .32998658 .41966249 .32998658 .43066407 .31999208 .43066407 .3019867 .43066407H.21398926C.25 .5724945 .25498963 .59246829 .25498963 .59846499 .25498963 .61546328 .24299622 .62545779 .22599793 .62545779 .22299195 .62545779 .19499207 .62446597 .18598938 .58947756L.14698792 .43066407H.052993776C.032989503 .43066407 .022994996 .43066407 .022994996 .4116516 .022994996 .3996582 .0309906 .3996582 .050994874 .3996582H.13899231C.066986087 .11608887 .06298828 .099121097 .06298828 .08114624 .06298828 .02722168 .100997928-.0107421879 .15499878-.0107421879 .25698854-.0107421879 .31399537 .13505554 .31399537 .14305115 .31399537 .1530304 .30599977 .1530304 .3019867 .1530304 .29299928 .1530304 .2919922 .15003968 .2869873 .13905335 .24398804 .035217287 .19099427 .011245728 .15699768 .011245728 .13598633 .011245728 .12599182 .024230957 .12599182 .057174684 .12599182 .08114624 .12799073 .088134769 .13198853 .10510254L.20599365 .3996582Z"/>
<path id="font_1_1" d="M.30299378 .3157959H.47299195C.61499026 .3157959 .7539978 .41973878 .7539978 .53167727 .7539978 .6086273 .6879883 .6826172 .5569916 .6826172H.23298645C.21398926 .6826172 .20298767 .6826172 .20298767 .66360476 .20298767 .6516113 .21199036 .6516113 .23199463 .6516113 .24499512 .6516113 .2630005 .65060427 .2749939 .6496124 .29100038 .6476135 .29699708 .64460757 .29699708 .6336212 .29699708 .6296234 .29599 .62661746 .29299928 .614624L.15899658 .07795715C.14898682 .038986207 .14698792 .0309906 .067993167 .0309906 .050994874 .0309906 .039993287 .0309906 .039993287 .011993408 .039993287 0 .051986696 0 .054992677 0 .08299255 0 .1539917 .0029907227 .18199158 .0029907227 .20298767 .0029907227 .22499085 .0019989014 .24598694 .0019989014 .2679901 .0019989014 .2899933 0 .31098939 0 .31799317 0 .33099366 0 .33099366 .019989014 .33099366 .0309906 .32199098 .0309906 .30299378 .0309906 .2659912 .0309906 .23799134 .0309906 .23799134 .048980714 .23799134 .054977418 .23999024 .05996704 .24099732 .065963748L.30299378 .3157959M.375 .6136322C.38398744 .64860537 .38598634 .6516113 .42900086 .6516113H.5249939C.60798647 .6516113 .6609955 .62461856 .6609955 .55566409 .6609955 .5166931 .6409912 .43074037 .60198977 .39476014 .5519867 .34977723 .49198915 .34179688 .44799806 .34179688H.30699159L.375 .6136322Z"/>
<path id="font_2_2" d="M.2939911 .64004519C.2939911 .66400149 .2939911 .6660156 .2709961 .6660156 .20899964 .60227969 .12098694 .60227969 .08898926 .60227969V.57128909C.10899353 .57128909 .16799927 .57128909 .21998596 .5972748V.07902527C.21998596 .042999269 .21699524 .0309906 .1269989 .0309906H.09498596V0C.12998963 .0029907227 .21699524 .0029907227 .25698854 .0029907227 .29699708 .0029907227 .38398744 .0029907227 .4189911 0V.0309906H.3869934C.29699708 .0309906 .2939911 .041992189 .2939911 .07902527V.64004519Z"/>
<path id="font_2_3" d="M.1269989 .07699585 .23298645 .18003845C.3889923 .31811524 .44898988 .3721466 .44898988 .47216798 .44898988 .5860901 .35899354 .6660156 .23699951 .6660156 .12399292 .6660156 .049987794 .57411196 .049987794 .48516847 .049987794 .4291687 .099990848 .4291687 .102996829 .4291687 .11999512 .4291687 .15499878 .44117738 .15499878 .48217774 .15499878 .5081787 .13699341 .5341797 .101989749 .5341797 .09399414 .5341797 .09199524 .5341797 .08898926 .5331726 .11199951 .59806826 .1659851 .63500979 .22399903 .63500979 .31498719 .63500979 .35798646 .5541382 .35798646 .47216798 .35798646 .39215089 .30799867 .31311036 .25299073 .25108338L.06098938 .036987306C.049987794 .025985718 .049987794 .023986817 .049987794 0H.42099L.44898988 .17404175H.42399598C.4189911 .14402771 .4119873 .1000061 .4019928 .084991458 .394989 .07699585 .32899476 .07699585 .30699159 .07699585H.1269989Z"/>
<path id="font_2_4" d="M.2899933 .35191346C.37199403 .37893678 .42999269 .4490509 .42999269 .52809146 .42999269 .6100464 .34199525 .6660156 .24598694 .6660156 .14498902 .6660156 .068984989 .60606387 .068984989 .53009036 .068984989 .49710084 .09098816 .47808839 .11999512 .47808839 .15098572 .47808839 .17098999 .50009158 .17098999 .5290985 .17098999 .57910159 .12399292 .57910159 .10899353 .57910159 .13999939 .62802127 .20599365 .64100649 .24198914 .64100649 .2829895 .64100649 .33799745 .6190338 .33799745 .5290985 .33799745 .51708987 .33599855 .45906068 .30999757 .4149933 .27999879 .36691285 .24598694 .36390687 .22099304 .36291505 .21299744 .36190797 .18899536 .35990907 .18199158 .35990907 .17399597 .35890199 .16699219 .35791017 .16699219 .3479004 .16699219 .33691407 .17399597 .33691407 .19099427 .33691407H.23498535C.31698609 .33691407 .35398866 .2686615 .35398866 .17037964 .35398866 .034469606 .2849884 .0055389406 .24099732 .0055389406 .19799805 .0055389406 .12298584 .022491456 .08799744 .08137512 .12298584 .07637024 .1539917 .09837341 .1539917 .1363678 .1539917 .17237854 .1269989 .19238281 .09799194 .19238281 .07398987 .19238281 .041992189 .17837525 .041992189 .1343689 .041992189 .043441774 .1349945-.022460938 .24398804-.022460938 .3659973-.022460938 .45700074 .06838989 .45700074 .17037964 .45700074 .252594 .3939972 .33088685 .2899933 .35191346Z"/>
<path id="font_2_5" d="M.2939911 .16503906V.07800293C.2939911 .041992189 .2919922 .0309906 .21798706 .0309906H.19699097V0C.23799134 .0029907227 .2899933 .0029907227 .33198548 .0029907227 .37399293 .0029907227 .4269867 .0029907227 .46798707 0V.0309906H.44699098C.37298585 .0309906 .37098695 .041992189 .37098695 .07800293V.16503906H.47099305V.19602967H.37098695V.65075686C.37098695 .67074587 .37098695 .6767578 .35499574 .6767578 .34599305 .6767578 .34298707 .6767578 .33499146 .66474917L.027999878 .19602967V.16503906H.2939911M.2999878 .19602967H.055999757L.2999878 .5688019V.19602967Z"/>
<path id="font_2_6" d="M.44898988 .20022583C.44898988 .3193512 .36698915 .41944886 .25898744 .41944886 .21099854 .41944886 .16799927 .40345765 .13198853 .36842347V.5637665C.1519928 .5577698 .18499756 .55078127 .21699524 .55078127 .33999635 .55078127 .4099884 .6417694 .4099884 .6547699 .4099884 .6607666 .40699769 .6657715 .3999939 .6657715 .39898683 .6657715 .39698792 .6657715 .3919983 .66278079 .37199403 .6537781 .32299806 .6337738 .2559967 .6337738 .21598816 .6337738 .16999817 .6407776 .12298584 .6617737 .114990238 .66477969 .11299133 .66477969 .11099243 .66477969 .100997928 .66477969 .100997928 .6567688 .100997928 .6407776V.34439088C.100997928 .32637025 .100997928 .31835938 .114990238 .31835938 .12199402 .31835938 .12399292 .32136537 .12799073 .32736207 .13899231 .3433838 .17599488 .39746095 .25698854 .39746095 .30899049 .39746095 .33399964 .35139466 .34199525 .33337403 .35798646 .29632569 .3600006 .25727845 .3600006 .20722962 .3600006 .17222595 .3600006 .11222839 .33599855 .07035828 .31199647 .031463624 .2749939 .0055389406 .22898865 .0055389406 .1559906 .0055389406 .09899902 .058380128 .08198547 .11723328 .084991458 .1162262 .08799744 .115234378 .09899902 .115234378 .13198853 .115234378 .14898682 .14022827 .14898682 .16423035 .14898682 .18823242 .13198853 .21322632 .09899902 .21322632 .084991458 .21322632 .049987794 .20622254 .049987794 .16023255 .049987794 .07434082 .11898804-.022460938 .23098755-.022460938 .34700013-.022460938 .44898988 .073349 .44898988 .20022583Z"/>
<path id="font_2_7" d="M.13198853 .327713V.35173036C.13198853 .6047821 .2559967 .64100649 .30699159 .64100649 .33099366 .64100649 .37298585 .634964 .394989 .6007538 .37998963 .6007538 .33999635 .6007538 .33999635 .5557556 .33999635 .524765 .3639984 .5097656 .38598634 .5097656 .4019928 .5097656 .43199159 .51875308 .43199159 .5577545 .43199159 .6178589 .3880005 .6660156 .30499269 .6660156 .1769867 .6660156 .041992189 .5367584 .041992189 .31570436 .041992189 .048553468 .1579895-.022460938 .25099183-.022460938 .3619995-.022460938 .45700074 .07156372 .45700074 .2036438 .45700074 .33070375 .36799623 .4267578 .25698854 .4267578 .18899536 .4267578 .1519928 .37573243 .13198853 .327713M.25099183 .0055389406C.18798828 .0055389406 .1579895 .06556702 .1519928 .080566409 .13398743 .127594 .13398743 .2076416 .13398743 .22564698 .13398743 .30369569 .1659851 .40374757 .2559967 .40374757 .27198792 .40374757 .31799317 .40374757 .34899903 .34172059 .36698915 .30470277 .36698915 .2536621 .36698915 .20463562 .36698915 .15661621 .36698915 .10658264 .34999085 .0705719 .31999208 .010528564 .27398683 .0055389406 .25099183 .0055389406Z"/>
<path id="font_2_1" d="M.45999146 .31976319C.45999146 .39982606 .45498658 .47988893 .41999818 .5539398 .37399293 .65000918 .2919922 .6660156 .25 .6660156 .18998719 .6660156 .116989139 .64001467 .07598877 .54693606 .04399109 .47789 .038986207 .39982606 .038986207 .31976319 .038986207 .24472046 .042999269 .15464783 .083999637 .07859802 .1269989-.0024719239 .19999695-.022460938 .24899292-.022460938 .30299378-.022460938 .3789978-.0014648438 .4229889 .09359741 .45498658 .16265869 .45999146 .2407074 .45999146 .31976319M.24899292-.00047302247C.20999146-.00047302247 .15098572 .024551392 .1329956 .12062073 .12199402 .18066406 .12199402 .2727356 .12199402 .3317871 .12199402 .39582826 .12199402 .46188355 .12998963 .5159149 .14898682 .63500979 .22399903 .64401248 .24899292 .64401248 .28199769 .64401248 .34799195 .6259918 .36698915 .52693179 .3769989 .47088624 .3769989 .39482118 .3769989 .3317871 .3769989 .25672914 .3769989 .18867493 .3659973 .12461853 .35099793 .029556275 .2939911-.00047302247 .24899292-.00047302247Z"/>
<path id="font_2_8" d="M.47599793 .609375C.4850006 .6213684 .4850006 .62338259 .4850006 .64437869H.24198914C.11999512 .64437869 .117996219 .65737918 .11399841 .67637637H.08898926L.055999757 .4702301H.08099365C.083999637 .48625184 .09298706 .5493469 .10598755 .56137087 .11299133 .5673828 .19099427 .5673828 .20399475 .5673828H.41099549C.3999939 .5513611 .32099916 .4421997 .29899598 .40914918 .20899964 .27394105 .17599488 .1347351 .17599488 .032577516 .17599488 .022567749 .17599488-.022460938 .22200012-.022460938 .2679901-.022460938 .2679901 .022567749 .2679901 .032577516V.08366394C.2679901 .13873291 .2709961 .19381714 .2789917 .24790955 .2829895 .27093507 .29699708 .35707093 .34098817 .41915895L.47599793 .609375Z"/>
<path id="font_2_9" d="M.16299439 .4569702C.116989139 .486969 .11299133 .52098086 .11299133 .5379791 .11299133 .598999 .17799378 .64100649 .24899292 .64100649 .32199098 .64100649 .38598634 .58898928 .38598634 .51698306 .38598634 .45996095 .34700013 .4119568 .2869873 .37695313L.16299439 .4569702M.30899049 .36193849C.3809967 .3989563 .42999269 .45095826 .42999269 .51698306 .42999269 .6090088 .34098817 .6660156 .25 .6660156 .1499939 .6660156 .068984989 .59199526 .068984989 .49897767 .068984989 .4809723 .070999149 .43595887 .11299133 .38894654 .12399292 .37695313 .16099549 .35194398 .18598938 .33494569 .12799073 .30592347 .041992189 .24984741 .041992189 .15072632 .041992189 .04458618 .14399719-.022460938 .24899292-.022460938 .3619995-.022460938 .45700074 .06060791 .45700074 .16773987 .45700074 .20379639 .44599916 .24885559 .4079895 .2909088 .3889923 .31193543 .37298585 .3219452 .30899049 .36193849M.20899964 .3199463 .33198548 .24183655C.3600006 .2228241 .40699769 .19277954 .40699769 .13169861 .40699769 .05760193 .33198548 .0055389406 .25 .0055389406 .1639862 .0055389406 .09199524 .067611698 .09199524 .15072632 .09199524 .20880127 .12399292 .27288819 .20899964 .3199463Z"/>
</defs>
<path transform="matrix(1,0,0,-1,17.961998,202.183)" stroke-width=".3985" stroke-linecap="butt" stroke-miterlimit="10" stroke-linejoin="miter" fill="none" stroke="#00aeef" d="M0 0H136.0652M0 22.67752H136.0652M0 45.35506H136.0652M0 68.0326H136.0652M0 90.71013H136.0652M0 113.38766H136.0652M0 136.0652H136.0652M0 158.74274H136.0652M0 181.4123H136.0652M0 0V181.42028M22.67752 0V181.42028M45.35506 0V181.42028M68.0326 0V181.42028M90.71013 0V181.42028M113.38766 0V181.42028M136.05722 0V181.42028M136.0652 181.42028"/>
<path transform="matrix(1,0,0,-1,17.961998,202.183)" stroke-width=".79701" stroke-linecap="butt" stroke-miterlimit="10" stroke-linejoin="miter" fill="none" stroke="#000000" d="M0 0H148.23723"/>
<path transform="matrix(1,0,0,-1,166.19922,202.183)" d="M1.0361 0C-.25902 .25902-1.55415 .77707-3.1083 1.68365-1.55415 .51805-1.55415-.51805-3.1083-1.68365-1.55415-.77707-.25902-.25902 1.0361 0Z"/>
<path transform="matrix(1,0,0,-1,166.19922,202.183)" stroke-width=".79701" stroke-linecap="butt" stroke-linejoin="round" fill="none" stroke="#000000" d="M1.0361 0C-.25902 .25902-1.55415 .77707-3.1083 1.68365-1.55415 .51805-1.55415-.51805-3.1083-1.68365-1.55415-.77707-.25902-.25902 1.0361 0Z"/>
<use data-text="t" xlink:href="#font_1_2" transform="matrix(9.9626,0,0,-9.9626,165.83499,198.464)"/>
<path transform="matrix(1,0,0,-1,17.961998,202.183)" stroke-width=".79701" stroke-linecap="butt" stroke-miterlimit="10" stroke-linejoin="miter" fill="none" stroke="#000000" d="M0 0V193.59229"/>
<path transform="matrix(0,-1,-1,-0,17.961998,8.5907139)" d="M1.0361 0C-.25902 .25902-1.55415 .77707-3.1083 1.68365-1.55415 .51805-1.55415-.51805-3.1083-1.68365-1.55415-.77707-.25902-.25902 1.0361 0Z"/>
<path transform="matrix(0,-1,-1,-0,17.961998,8.5907139)" stroke-width=".79701" stroke-linecap="butt" stroke-linejoin="round" fill="none" stroke="#000000" d="M1.0361 0C-.25902 .25902-1.55415 .77707-3.1083 1.68365-1.55415 .51805-1.55415-.51805-3.1083-1.68365-1.55415-.77707-.25902-.25902 1.0361 0Z"/>
<use data-text="P" xlink:href="#font_1_1" transform="matrix(9.9626,0,0,-9.9626,6.4629976,7.725006)"/>
<path transform="matrix(1,0,0,-1,17.961998,202.183)" stroke-width=".79701" stroke-linecap="butt" stroke-miterlimit="10" stroke-linejoin="miter" fill="none" stroke="#000000" d="M22.67752 3.40146V-3.40182"/>
<path transform="matrix(1,0,0,-1,17.961998,202.183)" d="M19.19055-14.20587H26.16449V-5.7928898H19.19055Z" fill="#ffffff"/>
<use data-text="1" xlink:href="#font_2_2" transform="matrix(9.9626,0,0,-9.9626,38.148996,215.393)"/>
<path transform="matrix(1,0,0,-1,17.961998,202.183)" stroke-width=".79701" stroke-linecap="butt" stroke-miterlimit="10" stroke-linejoin="miter" fill="none" stroke="#000000" d="M45.35506 3.40146V-3.40182"/>
<path transform="matrix(1,0,0,-1,17.961998,202.183)" d="M41.86809-14.20587H48.842035V-5.7928898H41.86809Z" fill="#ffffff"/>
<use data-text="2" xlink:href="#font_2_3" transform="matrix(9.9626,0,0,-9.9626,60.825998,215.393)"/>
<path transform="matrix(1,0,0,-1,17.961998,202.183)" stroke-width=".79701" stroke-linecap="butt" stroke-miterlimit="10" stroke-linejoin="miter" fill="none" stroke="#000000" d="M68.0326 3.40146V-3.40182"/>
<path transform="matrix(1,0,0,-1,17.961998,202.183)" d="M64.54562-14.20587H71.51956V-5.7928898H64.54562Z" fill="#ffffff"/>
<use data-text="3" xlink:href="#font_2_4" transform="matrix(9.9626,0,0,-9.9626,83.504,215.393)"/>
<path transform="matrix(1,0,0,-1,17.961998,202.183)" stroke-width=".79701" stroke-linecap="butt" stroke-miterlimit="10" stroke-linejoin="miter" fill="none" stroke="#000000" d="M90.71013 3.40146V-3.40182"/>
<path transform="matrix(1,0,0,-1,17.961998,202.183)" d="M87.22316-14.20587H94.1971V-5.7928898H87.22316Z" fill="#ffffff"/>
<use data-text="4" xlink:href="#font_2_5" transform="matrix(9.9626,0,0,-9.9626,106.181,215.393)"/>
<path transform="matrix(1,0,0,-1,17.961998,202.183)" stroke-width=".79701" stroke-linecap="butt" stroke-miterlimit="10" stroke-linejoin="miter" fill="none" stroke="#000000" d="M113.38766 3.40146V-3.40182"/>
<path transform="matrix(1,0,0,-1,17.961998,202.183)" d="M109.9007-14.20587H116.87464V-5.7928898H109.9007Z" fill="#ffffff"/>
<use data-text="5" xlink:href="#font_2_6" transform="matrix(9.9626,0,0,-9.9626,128.85901,215.393)"/>
<path transform="matrix(1,0,0,-1,17.961998,202.183)" stroke-width=".79701" stroke-linecap="butt" stroke-miterlimit="10" stroke-linejoin="miter" fill="none" stroke="#000000" d="M136.0652 3.40146V-3.40182"/>
<path transform="matrix(1,0,0,-1,17.961998,202.183)" d="M132.57823-14.20587H139.55217V-5.7928898H132.57823Z" fill="#ffffff"/>
<use data-text="6" xlink:href="#font_2_7" transform="matrix(9.9626,0,0,-9.9626,151.53699,215.393)"/>
<path transform="matrix(1,0,0,-1,17.961998,202.183)" stroke-width=".79701" stroke-linecap="butt" stroke-miterlimit="10" stroke-linejoin="miter" fill="none" stroke="#000000" d="M3.40146 22.67752H-3.40182"/>
<path transform="matrix(1,0,0,-1,17.961998,202.183)" d="M-17.74825 18.47102H-5.7929089V26.883999H-17.74825Z" fill="#ffffff"/>
<use data-text="1" xlink:href="#font_2_2" transform="matrix(9.9626,0,0,-9.9626,1.2099991,182.716)"/>
<use data-text="0" xlink:href="#font_2_1" transform="matrix(9.9626,0,0,-9.9626,6.1912996,182.716)"/>
<path transform="matrix(1,0,0,-1,17.961998,202.183)" stroke-width=".79701" stroke-linecap="butt" stroke-miterlimit="10" stroke-linejoin="miter" fill="none" stroke="#000000" d="M3.40146 45.35506H-3.40182"/>
<path transform="matrix(1,0,0,-1,17.961998,202.183)" d="M-17.74825 41.14856H-5.7929089V49.56154H-17.74825Z" fill="#ffffff"/>
<use data-text="2" xlink:href="#font_2_3" transform="matrix(9.9626,0,0,-9.9626,1.2099991,160.038)"/>
<use data-text="0" xlink:href="#font_2_1" transform="matrix(9.9626,0,0,-9.9626,6.1912996,160.038)"/>
<path transform="matrix(1,0,0,-1,17.961998,202.183)" stroke-width=".79701" stroke-linecap="butt" stroke-miterlimit="10" stroke-linejoin="miter" fill="none" stroke="#000000" d="M3.40146 68.0326H-3.40182"/>
<path transform="matrix(1,0,0,-1,17.961998,202.183)" d="M-17.74825 63.8261H-5.7929089V72.23908H-17.74825Z" fill="#ffffff"/>
<use data-text="3" xlink:href="#font_2_4" transform="matrix(9.9626,0,0,-9.9626,1.2099991,137.361)"/>
<use data-text="0" xlink:href="#font_2_1" transform="matrix(9.9626,0,0,-9.9626,6.1912996,137.361)"/>
<path transform="matrix(1,0,0,-1,17.961998,202.183)" stroke-width=".79701" stroke-linecap="butt" stroke-miterlimit="10" stroke-linejoin="miter" fill="none" stroke="#000000" d="M3.40146 90.71013H-3.40182"/>
<path transform="matrix(1,0,0,-1,17.961998,202.183)" d="M-17.74825 86.50363H-5.7929089V94.91661H-17.74825Z" fill="#ffffff"/>
<use data-text="4" xlink:href="#font_2_5" transform="matrix(9.9626,0,0,-9.9626,1.2099991,114.683)"/>
<use data-text="0" xlink:href="#font_2_1" transform="matrix(9.9626,0,0,-9.9626,6.1912996,114.683)"/>
<path transform="matrix(1,0,0,-1,17.961998,202.183)" stroke-width=".79701" stroke-linecap="butt" stroke-miterlimit="10" stroke-linejoin="miter" fill="none" stroke="#000000" d="M3.40146 113.38766H-3.40182"/>
<path transform="matrix(1,0,0,-1,17.961998,202.183)" d="M-17.74825 109.18117H-5.7929089V117.59415H-17.74825Z" fill="#ffffff"/>
<use data-text="5" xlink:href="#font_2_6" transform="matrix(9.9626,0,0,-9.9626,1.2099991,92.006)"/>
<use data-text="0" xlink:href="#font_2_1" transform="matrix(9.9626,0,0,-9.9626,6.1912996,92.006)"/>
<path transform="matrix(1,0,0,-1,17.961998,202.183)" stroke-width=".79701" stroke-linecap="butt" stroke-miterlimit="10" stroke-linejoin="miter" fill="none" stroke="#000000" d="M3.40146 136.0652H-3.40182"/>
<path transform="matrix(1,0,0,-1,17.961998,202.183)" d="M-17.74825 131.8587H-5.7929089V140.27169H-17.74825Z" fill="#ffffff"/>
<use data-text="6" xlink:href="#font_2_7" transform="matrix(9.9626,0,0,-9.9626,1.2099991,69.328)"/>
<use data-text="0" xlink:href="#font_2_1" transform="matrix(9.9626,0,0,-9.9626,6.1912996,69.328)"/>
<path transform="matrix(1,0,0,-1,17.961998,202.183)" stroke-width=".79701" stroke-linecap="butt" stroke-miterlimit="10" stroke-linejoin="miter" fill="none" stroke="#000000" d="M3.40146 158.74274H-3.40182"/>
<path transform="matrix(1,0,0,-1,17.961998,202.183)" d="M-17.74825 154.53624H-5.7929089V162.94922H-17.74825Z" fill="#ffffff"/>
<use data-text="7" xlink:href="#font_2_8" transform="matrix(9.9626,0,0,-9.9626,1.2099991,46.649995)"/>
<use data-text="0" xlink:href="#font_2_1" transform="matrix(9.9626,0,0,-9.9626,6.1912996,46.649995)"/>
<path transform="matrix(1,0,0,-1,17.961998,202.183)" stroke-width=".79701" stroke-linecap="butt" stroke-miterlimit="10" stroke-linejoin="miter" fill="none" stroke="#000000" d="M3.40146 181.42028H-3.40182"/>
<path transform="matrix(1,0,0,-1,17.961998,202.183)" d="M-17.74825 177.21378H-5.7929089V185.62676H-17.74825Z" fill="#ffffff"/>
<use data-text="8" xlink:href="#font_2_9" transform="matrix(9.9626,0,0,-9.9626,1.2099991,23.972992)"/>
<use data-text="0" xlink:href="#font_2_1" transform="matrix(9.9626,0,0,-9.9626,6.1912996,23.972992)"/>
<path transform="matrix(1,0,0,-1,17.961998,202.183)" stroke-width="1.19553" stroke-linecap="butt" stroke-miterlimit="10" stroke-linejoin="miter" fill="none" stroke="#ff0000" d="M0 45.35506C0 45.35506 1.53603 46.0691 2.12599 46.34746 2.71596 46.62582 3.66206 47.07674 4.25201 47.36134 4.84198 47.64595 5.78807 48.1078 6.37802 48.39874 6.96799 48.6897 7.9141 49.1611 8.50406 49.4583 9.09401 49.75548 10.04012 50.23697 10.63008 50.54066 11.22005 50.84439 12.16612 51.33694 12.75609 51.64728 13.34605 51.95763 14.29214 52.46017 14.88211 52.77744 15.47206 53.09468 16.41817 53.6097 17.00813 53.93385 17.5981 54.25804 18.54419 54.78276 19.13414 55.11383 19.7241 55.4449 20.6702 55.98154 21.26018 56.3201 21.85013 56.65866 22.79622 57.20801 23.38618 57.55406 23.97615 57.90012 24.92224 58.46094 25.51219 58.81429 26.10216 59.16765 27.04826 59.73953 27.63823 60.10085 28.22818 60.46217 29.17429 61.04924 29.76425 61.41853 30.3542 61.78784 31.30031 62.38536 31.89026 62.76251 32.48022 63.1397 33.42632 63.75154 34.01628 64.13696 34.60625 64.52238 35.55234 65.14677 36.1423 65.54047 36.73225 65.93414 37.67836 66.5718 38.26831 66.97443 38.85828 67.37704 39.80438 68.03084 40.39433 68.44229 40.9843 68.85373 41.93039 69.51971 42.52037 69.9399 43.11032 70.36009 44.05641 71.04106 44.64638 71.47075 45.23634 71.90045 46.18243 72.59798 46.77238 73.0369 47.36235 73.4758 48.30846 74.18556 48.89842 74.63419 49.48837 75.0828 50.43446 75.81161 51.02443 76.27022 51.6144 76.72882 52.56049 77.47128 53.15045 77.93947 53.74042 78.40768 54.68651 79.16615 55.27647 79.64473 55.86644 80.12329 56.81252 80.89938 57.40248 81.3887 57.99243 81.87804 58.93855 82.67168 59.5285 83.17148 60.11847 83.67125 61.06458 84.48007 61.65454 84.9909 62.24449 85.50174 63.19058 86.33109 63.78055 86.85324 64.3705 87.3754 65.3166 88.21924 65.90656 88.75436 66.49654 89.28947 67.44263 90.16512 68.0326 90.71013 68.62254 91.25513 69.56863 92.1274 70.1586 92.6825 70.74855 93.2376 71.69467 94.14143 72.28462 94.71094 72.87459 95.28044 73.82068 96.20525 74.41063 96.78712 75.0006 97.36902 75.94669 98.31046 76.53667 98.90485 77.12662 99.4992 78.07272 100.46347 78.66267 101.071 79.25264 101.67853 80.19873 102.66293 80.78868 103.28352 81.37865 103.9041 82.32475 104.9093 82.91472 105.54381 83.50467 106.17831 84.45078 107.20815 85.04074 107.85667 85.6307 108.5052 86.57678 109.55574 87.16675 110.218 87.75671 110.88026 88.7028 111.95299 89.29277 112.62984 89.88272 113.30669 90.82883 114.40471 91.4188 115.09636 92.00874 115.78801 92.95485 116.90834 93.5448 117.61476 94.13477 118.3212 95.08087 119.46568 95.67084 120.18787 96.26079 120.91005 97.20688 122.08118 97.79684 122.81978 98.38681 123.55838 99.3329 124.7562 99.92285 125.51122 100.51283 126.26624 101.45892 127.49042 102.04889 128.26148 102.63884 129.03253 103.58495 130.281 104.17491 131.06848 104.76486 131.85596 105.71097 133.13204 106.30092 133.93709 106.89088 134.74214 107.83698 136.04813 108.42694 136.87075 109.0169 137.69336 109.963 139.0256 110.55296 139.866 111.14291 140.70638 112.08902 142.06858 112.67897 142.92769 113.26894 143.78679 114.21504 145.17977 114.805 146.05789 115.39496 146.936 116.34105 148.35956 116.93103 149.2566 117.52098 150.15364 118.46707 151.60672 119.05704 152.52315 119.647 153.43958 120.5931 154.92514 121.18304 155.86167 121.77301 156.79817 122.71912 158.3154 123.30908 159.27285 123.89903 160.23027 124.84512 161.78348 125.43509 162.76222 126.02504 163.74098 126.97116 165.32736 127.56111 166.32704 128.15108 167.32672 129.09717 168.94564 129.68714 169.9673 130.2771 170.98897 131.22318 172.64655 131.81314 173.6906 132.4031 174.73465 133.34922 176.41963 133.93917 177.49211 134.52913 178.56458 136.0652 181.42028 135.17804 179.77083"/>
<path transform="matrix(.47366,-.88065,-.88065,-.47366,153.14005,22.412186)" d="M1.27522 0C-.31879 .31879-1.91284 .9564-3.8257 2.07224-1.91284 .6376-1.91284-.6376-3.8257-2.07224-1.91284-.9564-.31879-.31879 1.27522 0Z" fill="#ff0000"/>
<path transform="matrix(.47366,-.88065,-.88065,-.47366,153.14005,22.412186)" stroke-width="1.19553" stroke-linecap="butt" stroke-linejoin="round" fill="none" stroke="#ff0000" d="M1.27522 0C-.31879 .31879-1.91284 .9564-3.8257 2.07224-1.91284 .6376-1.91284-.6376-3.8257-2.07224-1.91284-.9564-.31879-.31879 1.27522 0Z"/>
</svg>
