<svg xmlns="http://www.w3.org/2000/svg" xmlns:xlink="http://www.w3.org/1999/xlink" version="1.1" width="257" height="258" viewBox="0 0 257 258">
<defs>
<path id="font_1_1" d="M.33399964 .30233766C.33999635 .32835389 .36299134 .42037965 .43299867 .42037965 .43798829 .42037965 .46199037 .42037965 .48298646 .40734864 .45498658 .402359 .43499757 .37734986 .43499757 .35334779 .43499757 .33735658 .44599916 .31835938 .47299195 .31835938 .49499513 .31835938 .5269928 .3363495 .5269928 .37635804 .5269928 .42837525 .46798707 .4423828 .43399049 .4423828 .37599183 .4423828 .34098817 .38935853 .32899476 .36634828 .3039856 .43237306 .25 .4423828 .22099304 .4423828 .116989139 .4423828 .05999756 .3133545 .05999756 .28834535 .05999756 .27833558 .069992069 .27833558 .07199097 .27833558 .07998657 .27833558 .08299255 .28033448 .084991458 .28933717 .11898804 .39535523 .18499756 .42037965 .21899414 .42037965 .23799134 .42037965 .272995 .4113617 .272995 .35334779 .272995 .32235719 .2559967 .25532533 .21899414 .11528015 .20298767 .053268434 .16799927 .011245728 .12399292 .011245728 .117996219 .011245728 .09498596 .011245728 .07398987 .024276734 .09899902 .029266358 .12098694 .05027771 .12098694 .07827759 .12098694 .105270389 .09899902 .11328125 .083999637 .11328125 .053985597 .11328125 .0289917 .08728027 .0289917 .055267335 .0289917 .009246826 .07899475-.0107421879 .12298584-.0107421879 .18899536-.0107421879 .22499085 .059280397 .22799683 .0652771 .23999024 .028274537 .27598573-.0107421879 .33599855-.0107421879 .43899537-.0107421879 .49598695 .118270877 .49598695 .14328003 .49598695 .1532898 .4869995 .1532898 .48399354 .1532898 .47499085 .1532898 .47299195 .14929199 .47099305 .14228821 .43798829 .03527832 .36999513 .011245728 .33799745 .011245728 .29899598 .011245728 .2829895 .043273927 .2829895 .07727051 .2829895 .09927368 .2889862 .121276859 .2999878 .16529846L.33399964 .30233766Z"/>
<path id="font_1_2" d="M.48599244 .38136292C.48999024 .39537049 .48999024 .39736939 .48999024 .40437318 .48999024 .42237855 .47599793 .43138124 .46099855 .43138124 .45098878 .43138124 .43499757 .42536927 .42599488 .41036988 .42399598 .405365 .41600038 .37435914 .4119873 .35635377 .40499879 .33035279 .397995 .30334474 .3919983 .27633668L.34700013 .09628296C.34298707 .08126831 .2999878 .011245728 .23399353 .011245728 .18299866 .011245728 .17199707 .055267335 .17199707 .0922699 .17199707 .1382904 .18899536 .20030213 .22299195 .28833009 .23899842 .3293457 .24299622 .3403473 .24299622 .36035157 .24299622 .405365 .21099854 .4423828 .16099549 .4423828 .06599426 .4423828 .0289917 .29733277 .0289917 .28833009 .0289917 .27833558 .038986207 .27833558 .040985109 .27833558 .050994874 .27833558 .051986696 .28033448 .056991579 .29634095 .083999637 .3903656 .12399292 .42037965 .1579895 .42037965 .1659851 .42037965 .18299866 .42037965 .18299866 .3883667 .18299866 .36335755 .17298889 .3373413 .1659851 .31834413 .12599182 .21231079 .10798645 .1552887 .10798645 .10827637 .10798645 .019256592 .17098999-.0107421879 .22999573-.0107421879 .2689972-.0107421879 .30299378 .0062561037 .33099366 .03425598 .31799317-.017745972 .30599977-.06674194 .2659912-.11973572 .23999024-.15385437 .20199585-.18309021 .1559906-.18309021 .14199829-.18309021 .09700012-.18005371 .07998657-.14074707 .09599304-.14074707 .10899353-.14074707 .12298584-.1287384 .1329956-.11973572 .14299011-.10673523 .14299011-.08773804 .14299011-.056747438 .115997318-.052734376 .10598755-.052734376 .08299255-.052734376 .049987794-.068740848 .049987794-.11773682 .049987794-.16796875 .09399414-.20507813 .1559906-.20507813 .25898744-.20507813 .3619995-.11373901 .3899994-.00074768069L.48599244 .38136292Z"/>
<path id="font_2_1" d="M.6589966 .23046875C.6759949 .23046875 .69400027 .23046875 .69400027 .25045777 .69400027 .27046205 .6759949 .27046205 .6589966 .27046205H.117996219C.100997928 .27046205 .08299255 .27046205 .08299255 .25045777 .08299255 .23046875 .100997928 .23046875 .117996219 .23046875H.6589966Z"/>
<path id="font_3_3" d="M.44898988 .20022583C.44898988 .3193512 .36698915 .41944886 .25898744 .41944886 .21099854 .41944886 .16799927 .40345765 .13198853 .36842347V.5637665C.1519928 .5577698 .18499756 .55078127 .21699524 .55078127 .33999635 .55078127 .4099884 .6417694 .4099884 .6547699 .4099884 .6607666 .40699769 .6657715 .3999939 .6657715 .39898683 .6657715 .39698792 .6657715 .3919983 .66278079 .37199403 .6537781 .32299806 .6337738 .2559967 .6337738 .21598816 .6337738 .16999817 .6407776 .12298584 .6617737 .114990238 .66477969 .11299133 .66477969 .11099243 .66477969 .100997928 .66477969 .100997928 .6567688 .100997928 .6407776V.34439088C.100997928 .32637025 .100997928 .31835938 .114990238 .31835938 .12199402 .31835938 .12399292 .32136537 .12799073 .32736207 .13899231 .3433838 .17599488 .39746095 .25698854 .39746095 .30899049 .39746095 .33399964 .35139466 .34199525 .33337403 .35798646 .29632569 .3600006 .25727845 .3600006 .20722962 .3600006 .17222595 .3600006 .11222839 .33599855 .07035828 .31199647 .031463624 .2749939 .0055389406 .22898865 .0055389406 .1559906 .0055389406 .09899902 .058380128 .08198547 .11723328 .084991458 .1162262 .08799744 .115234378 .09899902 .115234378 .13198853 .115234378 .14898682 .14022827 .14898682 .16423035 .14898682 .18823242 .13198853 .21322632 .09899902 .21322632 .084991458 .21322632 .049987794 .20622254 .049987794 .16023255 .049987794 .07434082 .11898804-.022460938 .23098755-.022460938 .34700013-.022460938 .44898988 .073349 .44898988 .20022583Z"/>
<path id="font_3_2" d="M.2939911 .64004519C.2939911 .66400149 .2939911 .6660156 .2709961 .6660156 .20899964 .60227969 .12098694 .60227969 .08898926 .60227969V.57128909C.10899353 .57128909 .16799927 .57128909 .21998596 .5972748V.07902527C.21998596 .042999269 .21699524 .0309906 .1269989 .0309906H.09498596V0C.12998963 .0029907227 .21699524 .0029907227 .25698854 .0029907227 .29699708 .0029907227 .38398744 .0029907227 .4189911 0V.0309906H.3869934C.29699708 .0309906 .2939911 .041992189 .2939911 .07902527V.64004519Z"/>
<path id="font_3_1" d="M.45999146 .31976319C.45999146 .39982606 .45498658 .47988893 .41999818 .5539398 .37399293 .65000918 .2919922 .6660156 .25 .6660156 .18998719 .6660156 .116989139 .64001467 .07598877 .54693606 .04399109 .47789 .038986207 .39982606 .038986207 .31976319 .038986207 .24472046 .042999269 .15464783 .083999637 .07859802 .1269989-.0024719239 .19999695-.022460938 .24899292-.022460938 .30299378-.022460938 .3789978-.0014648438 .4229889 .09359741 .45498658 .16265869 .45999146 .2407074 .45999146 .31976319M.24899292-.00047302247C.20999146-.00047302247 .15098572 .024551392 .1329956 .12062073 .12199402 .18066406 .12199402 .2727356 .12199402 .3317871 .12199402 .39582826 .12199402 .46188355 .12998963 .5159149 .14898682 .63500979 .22399903 .64401248 .24899292 .64401248 .28199769 .64401248 .34799195 .6259918 .36698915 .52693179 .3769989 .47088624 .3769989 .39482118 .3769989 .3317871 .3769989 .25672914 .3769989 .18867493 .3659973 .12461853 .35099793 .029556275 .2939911-.00047302247 .24899292-.00047302247Z"/>
</defs>
<path transform="matrix(1.00002,0,0,-1.00006,103.66278,69.697399)" stroke-width=".3985" stroke-linecap="butt" stroke-miterlimit="10" stroke-linejoin="miter" fill="none" stroke="#00aeef" d="M-102.04953-187.09084H136.06606M-102.04953-170.08257H136.06606M-102.04953-153.07433H136.06606M-102.04953-136.06606H136.06606M-102.04953-119.0578H136.06606M-102.04953-102.04953H136.06606M-102.04953-85.04128H136.06606M-102.04953-68.03302H136.06606M-102.04953-51.02477H136.06606M-102.04953-34.0165H136.06606M-102.04953-17.00824H136.06606M-102.04953 0H136.06606M-102.04953 17.00824H136.06606M-102.04953 34.0165H136.06606M-102.04953 51.01878H136.06606M-102.04953-187.09084V51.02477M-85.04128-187.09084V51.02477M-68.03302-187.09084V51.02477M-51.02477-187.09084V51.02477M-34.0165-187.09084V51.02477M-17.00824-187.09084V51.02477M0-187.09084V51.02477M17.00824-187.09084V51.02477M34.0165-187.09084V51.02477M51.02477-187.09084V51.02477M68.03302-187.09084V51.02477M85.04128-187.09084V51.02477M102.04953-187.09084V51.02477M119.0578-187.09084V51.02477M136.06009-187.09084V51.02477M136.06606 51.02477"/>
<path transform="matrix(1.00002,0,0,-1.00006,103.66278,69.697399)" stroke-width=".79701" stroke-linecap="butt" stroke-miterlimit="10" stroke-linejoin="miter" fill="none" stroke="#000000" d="M-102.04953 0H141.43463"/>
<path transform="matrix(1.00002,0,0,-1.00006,245.10025,69.697399)" d="M1.0361 0C-.25902 .25902-1.55415 .77707-3.1083 1.68365-1.55415 .51805-1.55415-.51805-3.1083-1.68365-1.55415-.77707-.25902-.25902 1.0361 0Z"/>
<path transform="matrix(1.00002,0,0,-1.00006,245.10025,69.697399)" stroke-width=".79701" stroke-linecap="butt" stroke-linejoin="round" fill="none" stroke="#000000" d="M1.0361 0C-.25902 .25902-1.55415 .77707-3.1083 1.68365-1.55415 .51805-1.55415-.51805-3.1083-1.68365-1.55415-.77707-.25902-.25902 1.0361 0Z"/>
<use data-text="x" xlink:href="#font_1_1" transform="matrix(9.962799,0,0,-9.963197,250.25371,71.84252)"/>
<path transform="matrix(1.00002,0,0,-1.00006,103.66278,69.697399)" stroke-width=".79701" stroke-linecap="butt" stroke-miterlimit="10" stroke-linejoin="miter" fill="none" stroke="#000000" d="M0-187.09084V56.39334"/>
<path transform="matrix(0,-1.00006,-1.00002,-0,103.66278,13.300674)" d="M1.0361 0C-.25902 .25902-1.55415 .77707-3.1083 1.68365-1.55415 .51805-1.55415-.51805-3.1083-1.68365-1.55415-.77707-.25902-.25902 1.0361 0Z"/>
<path transform="matrix(0,-1.00006,-1.00002,-0,103.66278,13.300674)" stroke-width=".79701" stroke-linecap="butt" stroke-linejoin="round" fill="none" stroke="#000000" d="M1.0361 0C-.25902 .25902-1.55415 .77707-3.1083 1.68365-1.55415 .51805-1.55415-.51805-3.1083-1.68365-1.55415-.77707-.25902-.25902 1.0361 0Z"/>
<use data-text="y" xlink:href="#font_1_2" transform="matrix(9.962799,0,0,-9.963197,101.041728,6.209587)"/>
<path transform="matrix(1.00002,0,0,-1.00006,103.66278,69.697399)" stroke-width=".3985" stroke-linecap="butt" stroke-miterlimit="10" stroke-linejoin="miter" fill="none" stroke="#000000" d="M-85.04128 1.70091V-1.70065"/>
<path transform="matrix(1.00002,0,0,-1.00006,103.66278,69.697399)" d="M-92.40266-13.13568H-77.67988V-3.8924504H-92.40266Z" fill="#ffffff"/>
<use data-text="&#x2212;" xlink:href="#font_2_1" transform="matrix(9.962799,0,0,-9.963197,12.254959,81.00707)"/>
<use data-text="5" xlink:href="#font_3_3" transform="matrix(9.962799,0,0,-9.963197,20.004105,81.00707)"/>
<path transform="matrix(1.00002,0,0,-1.00006,103.66278,69.697399)" stroke-width=".3985" stroke-linecap="butt" stroke-miterlimit="10" stroke-linejoin="miter" fill="none" stroke="#000000" d="M85.04128 1.70091V-1.70065"/>
<path transform="matrix(1.00002,0,0,-1.00006,103.66278,69.697399)" d="M81.5543-12.30545H88.52824V-3.8924704H81.5543Z" fill="#ffffff"/>
<use data-text="5" xlink:href="#font_3_3" transform="matrix(9.962799,0,0,-9.963197,186.21544,81.00707)"/>
<path transform="matrix(1.00002,0,0,-1.00006,103.66278,69.697399)" stroke-width=".3985" stroke-linecap="butt" stroke-miterlimit="10" stroke-linejoin="miter" fill="none" stroke="#000000" d="M1.70091-85.04128H-1.70065"/>
<path transform="matrix(1.00002,0,0,-1.00006,103.66278,69.697399)" d="M-18.61523-89.66289H-3.8924504V-80.419658H-18.61523Z" fill="#ffffff"/>
<use data-text="&#x2212;" xlink:href="#font_2_1" transform="matrix(9.962799,0,0,-9.963197,86.04343,157.53867)"/>
<use data-text="5" xlink:href="#font_3_3" transform="matrix(9.962799,0,0,-9.963197,93.79257,157.53867)"/>
<path transform="matrix(1.00002,0,0,-1.00006,103.66278,69.697399)" stroke-width=".3985" stroke-linecap="butt" stroke-miterlimit="10" stroke-linejoin="miter" fill="none" stroke="#000000" d="M1.70091-170.08257H-1.70065"/>
<path transform="matrix(1.00002,0,0,-1.00006,103.66278,69.697399)" d="M-23.59665-174.70418H-3.8924485V-165.46096H-23.59665Z" fill="#ffffff"/>
<use data-text="&#x2212;" xlink:href="#font_2_1" transform="matrix(9.962799,0,0,-9.963197,81.06233,242.58577)"/>
<use data-text="1" xlink:href="#font_3_2" transform="matrix(9.962799,0,0,-9.963197,88.81148,242.58577)"/>
<use data-text="0" xlink:href="#font_3_1" transform="matrix(9.962799,0,0,-9.963197,93.79286,242.58577)"/>
<g>
<path transform="matrix(1.00002,0,0,-1.00006,103.66278,69.697399)" d="M-34.0165-116.13943V-19.9266H68.03302V-116.13943ZM68.03302-19.9266" fill="#42c8f4" fill-opacity=".3"/>
<path transform="matrix(1.00002,0,0,-1.00006,103.66278,69.697399)" stroke-width="1.19553" stroke-linecap="butt" stroke-miterlimit="10" stroke-linejoin="miter" fill="none" stroke="#42c8f4" stroke-opacity=".3" d="M-34.0165-116.13943V-19.9266H68.03302V-116.13943ZM68.03302-19.9266"/>
</g>
<path transform="matrix(1.00002,0,0,-1.00006,103.66278,69.697399)" stroke-width=".3985" stroke-linecap="butt" stroke-dasharray="2.98883,2.98883" stroke-miterlimit="10" stroke-linejoin="miter" fill="none" stroke="#929292" d="M-102.04953-180.2801 136.06606 44.21404"/>
<path transform="matrix(1.00002,0,0,-1.00006,103.66278,69.697399)" stroke-width=".3985" stroke-linecap="butt" stroke-dasharray="2.98883,2.98883" stroke-miterlimit="10" stroke-linejoin="miter" fill="none" stroke="#929292" d="M-102.04953 44.21404 136.06606-180.2801"/>
<path transform="matrix(1.00002,0,0,-1.00006,103.66278,69.697399)" stroke-width="1.19553" stroke-linecap="butt" stroke-miterlimit="10" stroke-linejoin="miter" fill="none" stroke="#ff0000" d="M-96.35225 49.17249C-93.43806 46.66747-93.43806 46.66747-91.82188 45.28795-90.20572 43.90843-87.67142 41.75777-86.12428 40.45065-84.57713 39.14355-82.15291 37.10533-80.67113 35.86717-79.18933 34.62901-76.86433 32.69852-75.44453 31.52687-74.02477 30.35522-71.79932 28.53105-70.4383 27.42273-69.0773 26.31444-66.9412 24.58664-65.63527 23.53894-64.32933 22.49123-62.27931 20.8608-61.02608 19.8716-59.77287 18.88237-57.80728 17.34227-56.603 16.40926-55.39873 15.47624-53.50456 14.02588-52.34651 13.14703-51.18848 12.26816-49.37007 10.90248-48.25667 10.07501-47.14325 9.24754-45.39432 7.9607-44.32175 7.18312-43.24915 6.40558-41.56041 5.20018-40.52617 4.47083-39.49194 3.74147-37.86537 2.60933-36.86765 1.92644-35.86993 1.24353-34.29883 .18701-33.33524-.45103-32.37164-1.08911-30.85469-2.07741-29.92274-2.6723-28.9908-3.2672-27.52135-4.18585-26.61847-4.73865-25.71559-5.29146-24.29085-6.14427-23.4154-6.65654-22.53996-7.16884-21.15881-7.95801-20.30888-8.43092-19.45894-8.90382-18.11618-9.63013-17.28957-10.0649-16.46297-10.49966-15.15623-11.16663-14.35123-11.56444-13.5462-11.96225-12.2734-12.57109-11.48761-12.93213-10.70183-13.2932-9.45602-13.84111-8.68787-14.16669-7.9197-14.49228-6.70334-14.9876-5.95116-15.27876-5.19897-15.56992-4.00497-16.00838-3.26662-16.26521-2.52827-16.52206-1.35583-16.9066-.6296-17.12996 .09663-17.35332 1.25258-17.68417 1.96771-17.87506 2.68282-18.06593 3.8185-18.34744 4.52455-18.50569 5.23059-18.66396 6.35724-18.8899 7.05647-19.01566 7.75572-19.14145 8.87085-19.31787 9.56427-19.41222 10.25768-19.50656 11.36496-19.63269 12.05415-19.69563 12.74335-19.75856 13.84477-19.83452 14.5316-19.86588 15.2184-19.89723 16.3199-19.92166 17.00435-19.92166 17.6888-19.92166 18.77934-19.89685 19.46465-19.86588 20.14996-19.83492 21.25432-19.76082 21.94363-19.69849 22.63293-19.63615 23.73943-19.51076 24.43275-19.41663 25.12605-19.32251 26.24171-19.14618 26.94052-19.02008 27.63934-18.89398 28.76308-18.66563 29.46935-18.50778 30.17561-18.3499 31.31575-18.07254 32.03088-17.88232 32.746-17.6921 33.89803-17.36003 34.62352-17.13672 35.34901-16.91338 36.52153-16.5294 37.25978-16.27274 37.99803-16.01608 39.19203-15.5775 39.94432-15.2868 40.69661-14.99611 41.91394-14.503 42.6818-14.17758 43.44963-13.85219 44.69266-13.30243 45.47844-12.94148 46.26422-12.58052 47.54004-11.97331 48.34515-11.57611 49.15027-11.17891 50.45488-10.51314 51.28117-10.07864 52.10747-9.64418 53.45065-8.91743 54.30049-8.44467 55.15033-7.97192 56.53111-7.1833 57.40623-6.67136 58.28134-6.15938 59.70529-5.30714 60.60773-4.75475 61.51018-4.20233 62.97884-3.28453 63.91046-2.68997 64.84207-2.09538 66.3588-1.10735 67.32217-.46947 68.28555 .16838 69.85619 1.22531 70.8538 1.90749 71.85141 2.58966 73.47874 3.7184 74.51234 4.4472 75.54591 5.17603 77.23096 6.38301 78.3032 7.1603 79.37549 7.93756 81.12685 9.22243 82.24048 10.04932 83.35411 10.87624 85.17229 12.24126 86.32956 13.12003 87.48685 13.99878 89.37764 15.45016 90.58136 16.38278 91.78508 17.3154 93.75203 18.85313 95.00525 19.84174 96.25845 20.83035 98.30824 22.461 99.61363 23.50804 100.919 24.55511 103.05287 26.2803 104.41354 27.38821 105.77425 28.49611 108.00124 30.32187 109.42058 31.49312 110.8399 32.66438 113.16212 34.59225 114.64326 35.8298 116.1244 37.06734 118.54892 39.10579 120.09564 40.4125 121.64235 41.71921 124.17549 43.86891 125.79092 45.24773 127.40633 46.62651 131.73847 50.34999 130.31813 49.1292"/>
<path transform="matrix(-.7583352,-.6518591,-.65183308,.75836548,7.3086016,20.521958)" d="M1.27522 0C-.31879 .31879-1.91284 .9564-3.8257 2.07224-1.91284 .6376-1.91284-.6376-3.8257-2.07224-1.91284-.9564-.31879-.31879 1.27522 0Z" fill="#ff0000"/>
<path transform="matrix(-.7583352,-.6518591,-.65183308,.75836548,7.3086016,20.521958)" stroke-width="1.19553" stroke-linecap="butt" stroke-linejoin="round" fill="none" stroke="#ff0000" d="M1.27522 0C-.31879 .31879-1.91284 .9564-3.8257 2.07224-1.91284 .6376-1.91284-.6376-3.8257-2.07224-1.91284-.9564-.31879-.31879 1.27522 0Z"/>
<path transform="matrix(.7583452,-.6518391,-.65181306,-.75837549,233.9835,20.56527)" d="M1.27522 0C-.31879 .31879-1.91284 .9564-3.8257 2.07224-1.91284 .6376-1.91284-.6376-3.8257-2.07224-1.91284-.9564-.31879-.31879 1.27522 0Z" fill="#ff0000"/>
<path transform="matrix(.7583452,-.6518391,-.65181306,-.75837549,233.9835,20.56527)" stroke-width="1.19553" stroke-linecap="butt" stroke-linejoin="round" fill="none" stroke="#ff0000" d="M1.27522 0C-.31879 .31879-1.91284 .9564-3.8257 2.07224-1.91284 .6376-1.91284-.6376-3.8257-2.07224-1.91284-.9564-.31879-.31879 1.27522 0Z"/>
<path transform="matrix(1.00002,0,0,-1.00006,103.66278,69.697399)" stroke-width="1.19553" stroke-linecap="butt" stroke-miterlimit="10" stroke-linejoin="miter" fill="none" stroke="#ff0000" d="M-96.35225-185.23854C-93.43806-182.73355-93.43806-182.73355-91.82188-181.35402-90.20572-179.9745-87.67142-177.82382-86.12428-176.51673-84.57713-175.20963-82.15291-173.1714-80.67113-171.93325-79.18933-170.6951-76.86433-168.76459-75.44453-167.59294-74.02477-166.4213-71.79932-164.59712-70.4383-163.4888-69.0773-162.38051-66.9412-160.65271-65.63527-159.605-64.32933-158.5573-62.27931-156.92688-61.02608-155.93767-59.77287-154.94844-57.80728-153.40834-56.603-152.47533-55.39873-151.54232-53.50456-150.09195-52.34651-149.21309-51.18848-148.33425-49.37007-146.96855-48.25667-146.14109-47.14325-145.3136-45.39432-144.02677-44.32175-143.2492-43.24915-142.47165-41.56041-141.26625-40.52617-140.5369-39.49194-139.80754-37.86537-138.6754-36.86765-137.99251-35.86993-137.30962-34.29883-136.25308-33.33524-135.615-32.37164-134.97693-30.85469-133.98862-29.92274-133.39373-28.9908-132.79882-27.52135-131.88018-26.61847-131.32738-25.71559-130.77457-24.29085-129.92177-23.4154-129.40949-22.53996-128.8972-21.15881-128.108-20.30888-127.63512-19.45894-127.16222-18.11618-126.4359-17.28957-126.00113-16.46297-125.56638-15.15623-124.89941-14.35123-124.5016-13.5462-124.10378-12.2734-123.49495-11.48761-123.1339-10.70183-122.77284-9.45602-122.22491-8.68787-121.89934-7.9197-121.57376-6.70334-121.07843-5.95116-120.78728-5.19897-120.49612-4.00497-120.05766-3.26662-119.80081-2.52827-119.54398-1.35583-119.15944-.6296-118.93608 .09663-118.7127 1.25258-118.38185 1.96771-118.19098 2.68282-118.00009 3.8185-117.71858 4.52455-117.56033 5.23059-117.40207 6.35724-117.17615 7.05647-117.05035 7.75572-116.92459 8.87085-116.74814 9.56427-116.65382 10.25768-116.55948 11.36496-116.43335 12.05415-116.3704 12.74335-116.30746 13.84477-116.2315 14.5316-116.20016 15.2184-116.1688 16.3199-116.14435 17.00435-116.14435 17.6888-116.14435 18.77934-116.16919 19.46465-116.20016 20.14996-116.23112 21.25432-116.30522 21.94363-116.36755 22.63293-116.42987 23.73943-116.55528 24.43275-116.6494 25.12605-116.74353 26.24171-116.91985 26.94052-117.04596 27.63934-117.17206 28.76308-117.4004 29.46935-117.55826 30.17561-117.71611 31.31575-117.99348 32.03088-118.18372 32.746-118.37393 33.89803-118.706 34.62352-118.92932 35.34901-119.15265 36.52153-119.53664 37.25978-119.79329 37.99803-120.04996 39.19203-120.48853 39.94432-120.77922 40.69661-121.06993 41.91394-121.56303 42.6818-121.88844 43.44963-122.21384 44.69266-122.76361 45.47844-123.12456 46.26422-123.4855 47.54004-124.09273 48.34515-124.48991 49.15027-124.88712 50.45488-125.5529 51.28117-125.98738 52.10747-126.42184 53.45065-127.14859 54.30049-127.62137 55.15033-128.09412 56.53111-128.88272 57.40623-129.39469 58.28134-129.90666 59.70529-130.75888 60.60773-131.3113 61.51018-131.8637 62.97884-132.78151 63.91046-133.37607 64.84207-133.97064 66.3588-134.95868 67.32217-135.59656 68.28555-136.23445 69.85619-137.29138 70.8538-137.97356 71.85141-138.65575 73.47874-139.78449 74.51234-140.51328 75.54591-141.2421 77.23096-142.44908 78.3032-143.22637 79.37549-144.00363 81.12685-145.28852 82.24048-146.1154 83.35411-146.9423 85.17229-148.30735 86.32956-149.1861 87.48685-150.06485 89.37764-151.51622 90.58136-152.44886 91.78508-153.38149 93.75203-154.9192 95.00525-155.90782 96.25845-156.89643 98.30824-158.52706 99.61363-159.57413 100.919-160.62117 103.05287-162.34638 104.41354-163.45429 105.77425-164.5622 108.00124-166.38794 109.42058-167.55919 110.8399-168.73046 113.16212-170.65833 114.64326-171.89588 116.1244-173.1334 118.54892-175.17186 120.09564-176.47858 121.64235-177.7853 124.17549-179.93498 125.79092-181.3138 127.40633-182.6926 131.73847-186.41606 130.3181-185.1953"/>
<path transform="matrix(-.7583352,.6518591,.65183308,.75836548,7.3086016,254.94705)" d="M1.27522 0C-.31879 .31879-1.91284 .9564-3.8257 2.07224-1.91284 .6376-1.91284-.6376-3.8257-2.07224-1.91284-.9564-.31879-.31879 1.27522 0Z" fill="#ff0000"/>
<path transform="matrix(-.7583352,.6518591,.65183308,.75836548,7.3086016,254.94705)" stroke-width="1.19553" stroke-linecap="butt" stroke-linejoin="round" fill="none" stroke="#ff0000" d="M1.27522 0C-.31879 .31879-1.91284 .9564-3.8257 2.07224-1.91284 .6376-1.91284-.6376-3.8257-2.07224-1.91284-.9564-.31879-.31879 1.27522 0Z"/>
<path transform="matrix(.7583652,.6518191,.65179309,-.7583955,233.98348,254.90381)" d="M1.27522 0C-.31879 .31879-1.91284 .9564-3.8257 2.07224-1.91284 .6376-1.91284-.6376-3.8257-2.07224-1.91284-.9564-.31879-.31879 1.27522 0Z" fill="#ff0000"/>
<path transform="matrix(.7583652,.6518191,.65179309,-.7583955,233.98348,254.90381)" stroke-width="1.19553" stroke-linecap="butt" stroke-linejoin="round" fill="none" stroke="#ff0000" d="M1.27522 0C-.31879 .31879-1.91284 .9564-3.8257 2.07224-1.91284 .6376-1.91284-.6376-3.8257-2.07224-1.91284-.9564-.31879-.31879 1.27522 0Z"/>
</svg>
