<svg xmlns="http://www.w3.org/2000/svg" xmlns:xlink="http://www.w3.org/1999/xlink" version="1.1" width="190" height="212" viewBox="0 0 190 212">
<defs>
<path id="font_1_7" d="M.33399964 .30233766C.33999635 .32835389 .36299134 .42037965 .43299867 .42037965 .43798829 .42037965 .46199037 .42037965 .48298646 .40734864 .45498658 .402359 .43499757 .37734986 .43499757 .35334779 .43499757 .33735658 .44599916 .31835938 .47299195 .31835938 .49499513 .31835938 .5269928 .3363495 .5269928 .37635804 .5269928 .42837525 .46798707 .4423828 .43399049 .4423828 .37599183 .4423828 .34098817 .38935853 .32899476 .36634828 .3039856 .43237306 .25 .4423828 .22099304 .4423828 .116989139 .4423828 .05999756 .3133545 .05999756 .28834535 .05999756 .27833558 .069992069 .27833558 .07199097 .27833558 .07998657 .27833558 .08299255 .28033448 .084991458 .28933717 .11898804 .39535523 .18499756 .42037965 .21899414 .42037965 .23799134 .42037965 .272995 .4113617 .272995 .35334779 .272995 .32235719 .2559967 .25532533 .21899414 .11528015 .20298767 .053268434 .16799927 .011245728 .12399292 .011245728 .117996219 .011245728 .09498596 .011245728 .07398987 .024276734 .09899902 .029266358 .12098694 .05027771 .12098694 .07827759 .12098694 .105270389 .09899902 .11328125 .083999637 .11328125 .053985597 .11328125 .0289917 .08728027 .0289917 .055267335 .0289917 .009246826 .07899475-.0107421879 .12298584-.0107421879 .18899536-.0107421879 .22499085 .059280397 .22799683 .0652771 .23999024 .028274537 .27598573-.0107421879 .33599855-.0107421879 .43899537-.0107421879 .49598695 .118270877 .49598695 .14328003 .49598695 .1532898 .4869995 .1532898 .48399354 .1532898 .47499085 .1532898 .47299195 .14929199 .47099305 .14228821 .43798829 .03527832 .36999513 .011245728 .33799745 .011245728 .29899598 .011245728 .2829895 .043273927 .2829895 .07727051 .2829895 .09927368 .2889862 .121276859 .2999878 .16529846L.33399964 .30233766Z"/>
<path id="font_1_8" d="M.48599244 .38136292C.48999024 .39537049 .48999024 .39736939 .48999024 .40437318 .48999024 .42237855 .47599793 .43138124 .46099855 .43138124 .45098878 .43138124 .43499757 .42536927 .42599488 .41036988 .42399598 .405365 .41600038 .37435914 .4119873 .35635377 .40499879 .33035279 .397995 .30334474 .3919983 .27633668L.34700013 .09628296C.34298707 .08126831 .2999878 .011245728 .23399353 .011245728 .18299866 .011245728 .17199707 .055267335 .17199707 .0922699 .17199707 .1382904 .18899536 .20030213 .22299195 .28833009 .23899842 .3293457 .24299622 .3403473 .24299622 .36035157 .24299622 .405365 .21099854 .4423828 .16099549 .4423828 .06599426 .4423828 .0289917 .29733277 .0289917 .28833009 .0289917 .27833558 .038986207 .27833558 .040985109 .27833558 .050994874 .27833558 .051986696 .28033448 .056991579 .29634095 .083999637 .3903656 .12399292 .42037965 .1579895 .42037965 .1659851 .42037965 .18299866 .42037965 .18299866 .3883667 .18299866 .36335755 .17298889 .3373413 .1659851 .31834413 .12599182 .21231079 .10798645 .1552887 .10798645 .10827637 .10798645 .019256592 .17098999-.0107421879 .22999573-.0107421879 .2689972-.0107421879 .30299378 .0062561037 .33099366 .03425598 .31799317-.017745972 .30599977-.06674194 .2659912-.11973572 .23999024-.15385437 .20199585-.18309021 .1559906-.18309021 .14199829-.18309021 .09700012-.18005371 .07998657-.14074707 .09599304-.14074707 .10899353-.14074707 .12298584-.1287384 .1329956-.11973572 .14299011-.10673523 .14299011-.08773804 .14299011-.056747438 .115997318-.052734376 .10598755-.052734376 .08299255-.052734376 .049987794-.068740848 .049987794-.11773682 .049987794-.16796875 .09399414-.20507813 .1559906-.20507813 .25898744-.20507813 .3619995-.11373901 .3899994-.00074768069L.48599244 .38136292Z"/>
<path id="font_1_2" d="M.30299378 .3244629H.3999939C.47499085 .3244629 .48298646 .30848695 .48298646 .27954103 .48298646 .2725525 .48298646 .26057435 .47599793 .2306366 .47399903 .22564698 .47299195 .22164917 .47299195 .21965027 .47299195 .21166992 .47898866 .20767212 .4850006 .20767212 .49499513 .20767212 .49499513 .21066284 .5 .2286377L.5549927 .44551087C.55799868 .45651246 .55799868 .45851136 .55799868 .46151734 .55799868 .46351625 .55599978 .47251893 .54599 .47251893 .5359955 .47251893 .5349884 .46751405 .5309906 .45150758 .5099945 .37347413 .4869995 .35546876 .4019928 .35546876H.31098939L.375 .6095886C.38398744 .64460757 .3849945 .64860537 .42900086 .64860537H.5609894C.6839905 .64860537 .70700076 .6156006 .70700076 .53855898 .70700076 .5155487 .70700076 .51153567 .70399478 .4845276 .70199587 .4715271 .70199587 .46951295 .70199587 .46652223 .70199587 .46151734 .7049866 .45451356 .71398928 .45451356 .72499087 .45451356 .7259979 .46051026 .7279968 .4795227L.7480011 .65260317C.7509918 .6796112 .74598696 .6796112 .72099307 .6796112H.23098755C.21099854 .6796112 .20098877 .6796112 .20098877 .65960696 .20098877 .64860537 .20999146 .64860537 .22898865 .64860537 .2659912 .64860537 .2939911 .64860537 .2939911 .6306 .2939911 .6266022 .2939911 .6246033 .2889862 .60658267L.15699768 .07791138C.14698792 .038970949 .14498902 .0309906 .06599426 .0309906 .04899597 .0309906 .037994386 .0309906 .037994386 .011993408 .037994386 0 .049987794 0 .052993776 0 .08198547 0 .1559906 .0029907227 .18499756 .0029907227 .21798706 .0029907227 .30099488 0 .33399964 0 .34298707 0 .35499574 0 .35499574 .018997193 .35499574 .026992798 .34899903 .0289917 .34899903 .02999878 .34599305 .0309906 .34399415 .0309906 .32099916 .0309906 .29899598 .0309906 .2939911 .0309906 .2689972 .032989503 .23999024 .035980226 .23699951 .039978029 .23699951 .052947999 .23699951 .0549469 .23699951 .060943605 .24099732 .075912479L.30299378 .3244629Z"/>
<path id="font_2_2" d="M.5049896 .18203736H.47099305C.46798707 .16001892 .45799256 .100997928 .44499208 .09098816 .43699647 .084991458 .3600006 .084991458 .34599305 .084991458H.1619873C.2669983 .17803955 .3019867 .20603943 .3619995 .25306703 .43598939 .312088 .5049896 .374115 .5049896 .46914674 .5049896 .5900879 .39898683 .6640625 .2709961 .6640625 .14698792 .6640625 .06298828 .57710269 .06298828 .4851532 .06298828 .43414308 .10598755 .42915345 .115997318 .42915345 .13999939 .42915345 .16899109 .44615174 .16899109 .48214723 .16899109 .5001526 .1619873 .53515627 .10998535 .53515627 .14099121 .6060791 .20899964 .62805178 .2559967 .62805178 .35598756 .62805178 .4079895 .5501404 .4079895 .46914674 .4079895 .38212586 .34599305 .3130951 .31399537 .27708436L.07299805 .038986207C.06298828 .02999878 .06298828 .027999878 .06298828 0H.47499085L.5049896 .18203736Z"/>
<path id="font_2_1" d="M.33499146 .63612368C.33499146 .6630554 .33299256 .6640625 .30499269 .6640625 .24099732 .6014404 .1499939 .6004486 .10899353 .6004486V.5644531C.1329956 .5644531 .19898987 .5644531 .2539978 .592453V.08203125C.2539978 .04899597 .2539978 .035995485 .1539917 .035995485H.115997318V0C.13398743 .0009918213 .25698854 .0039978029 .2939911 .0039978029 .32499696 .0039978029 .45098878 .0009918213 .47299195 0V.035995485H.43499757C.33499146 .035995485 .33499146 .04899597 .33499146 .08203125V.63612368Z"/>
<path id="font_1_4" d="M.23899842 .68333438C.23899842 .6843262 .23899842 .69433596 .22599793 .69433596 .20298767 .69433596 .12998963 .6863251 .10398865 .6843262 .09599304 .68333438 .084991458 .6823273 .084991458 .6643219 .084991458 .6523285 .09399414 .6523285 .10899353 .6523285 .15699768 .6523285 .15899658 .6453247 .15899658 .6353302 .15899658 .6283264 .1499939 .5943451 .14498902 .573349L.06298828 .24731446C.050994874 .1973114 .04699707 .18130493 .04699707 .14628601 .04699707 .05126953 .099990848-.0107421879 .17399597-.0107421879 .2919922-.0107421879 .4149933 .1382904 .4149933 .28233338 .4149933 .37335206 .3619995 .4423828 .28199769 .4423828 .23599243 .4423828 .19499207 .41337586 .16499329 .38235475L.23899842 .68333438M.14498902 .30534364C.15098572 .3273468 .15098572 .3293457 .1599884 .3403473 .20899964 .405365 .2539978 .42037965 .27999879 .42037965 .31599427 .42037965 .34298707 .3903656 .34298707 .32633973 .34298707 .26733399 .30999757 .15229798 .2919922 .11428833 .25898744 .04725647 .21299744 .011245728 .17399597 .011245728 .13999939 .011245728 .10699463 .038253786 .10699463 .11227417 .10699463 .13128662 .10699463 .15029907 .12298584 .21331787L.14498902 .30534364Z"/>
<path id="font_1_3" d="M.37298585 .37835694C.35499574 .41537477 .32598878 .4423828 .2809906 .4423828 .1639862 .4423828 .039993287 .29533387 .039993287 .14929199 .039993287 .055267335 .09498596-.0107421879 .17298889-.0107421879 .19299317-.0107421879 .24299622-.0067443849 .30299378 .06427002 .31098939 .022247315 .34599305-.0107421879 .3939972-.0107421879 .42900086-.0107421879 .45199586 .012252808 .46798707 .044265748 .4850006 .08027649 .49798585 .14129639 .49798585 .14329529 .49798585 .1532898 .4889984 .1532898 .48599244 .1532898 .47599793 .1532898 .47499085 .14929199 .47200013 .13528443 .45498658 .07026672 .43699647 .011245728 .3959961 .011245728 .36898805 .011245728 .3659973 .037261964 .3659973 .057266237 .3659973 .07926941 .36799623 .08728027 .3789978 .13128662 .3899994 .17329407 .3919983 .18330384 .40098573 .22131348L.43699647 .36135865C.44400025 .38935853 .44400025 .39135743 .44400025 .39537049 .44400025 .41236878 .43199159 .42237855 .4149933 .42237855 .3909912 .42237855 .37599183 .4003601 .37298585 .37835694M.30799867 .119277957C.30299378 .10127258 .30299378 .09927368 .28799439 .08227539 .24398804 .027252198 .20298767 .011245728 .1749878 .011245728 .125 .011245728 .11099243 .06626892 .11099243 .105285648 .11099243 .1552887 .14299011 .27833558 .1659851 .32434083 .19699097 .38336183 .24198914 .42037965 .28199769 .42037965 .34700013 .42037965 .36099244 .3383484 .36099244 .33235169 .36099244 .32633973 .35899354 .32034303 .35798646 .31533814L.30799867 .119277957Z"/>
<path id="font_3_1" d="M.33099366-.2400055C.33099366-.23701477 .33099366-.23500061 .31399537-.21800232 .18899536-.0920105 .15699768 .09700012 .15699768 .25 .15699768 .42399598 .19499207 .59799197 .31799317 .72299197 .33099366 .73498538 .33099366 .7369995 .33099366 .73999026 .33099366 .746994 .32699586 .75 .32099916 .75 .31098939 .75 .22099304 .6819916 .1619873 .5549927 .11099243 .44499208 .09899902 .33399964 .09899902 .25 .09899902 .17199707 .10998535 .050994874 .16499329-.06201172 .22499085-.18501282 .31098939-.25 .32099916-.25 .32699586-.25 .33099366-.24700928 .33099366-.2400055Z"/>
<path id="font_4_1" d="M.6589966 .23046875C.6759949 .23046875 .69400027 .23046875 .69400027 .25045777 .69400027 .27046205 .6759949 .27046205 .6589966 .27046205H.117996219C.100997928 .27046205 .08299255 .27046205 .08299255 .25045777 .08299255 .23046875 .100997928 .23046875 .117996219 .23046875H.6589966Z"/>
<path id="font_1_5" d="M.2869873 .68333438C.2869873 .6843262 .2869873 .69433596 .27398683 .69433596 .25099183 .69433596 .17799378 .6863251 .1519928 .6843262 .14399719 .68333438 .1329956 .6823273 .1329956 .6643219 .1329956 .6523285 .14199829 .6523285 .15699768 .6523285 .20498657 .6523285 .20698548 .6453247 .20698548 .6353302L.20399475 .6153412 .05899048 .039260866C.054992677 .025253296 .054992677 .023254395 .054992677 .01725769 .054992677-.0057525637 .07499695-.0107421879 .083999637-.0107421879 .099990848-.0107421879 .115997318 .0012512207 .12098694 .015258789L.13999939 .091278079 .1619873 .18130493C.16799927 .2033081 .17399597 .22531128 .1789856 .24832154 .18099976 .25431825 .18899536 .28733827 .18998719 .29333497 .19299317 .30233766 .22399903 .35835267 .2579956 .38536073 .27999879 .4013672 .31098939 .42037965 .35398866 .42037965 .39698792 .42037965 .4079895 .3863678 .4079895 .35035707 .4079895 .29634095 .36999513 .18730164 .34599305 .12628174 .33799745 .103271488 .33299256 .091278079 .33299256 .0712738 .33299256 .024261475 .36799623-.0107421879 .4149933-.0107421879 .5089874-.0107421879 .54599 .13528443 .54599 .14329529 .54599 .1532898 .5369873 .1532898 .5339966 .1532898 .5239868 .1532898 .5239868 .15029907 .5189972 .13528443 .5039978 .08227539 .47200013 .011245728 .4169922 .011245728 .3999939 .011245728 .3929901 .021255494 .3929901 .044265748 .3929901 .0692749 .4019928 .09327698 .41099549 .11528015 .4269867 .15829468 .47200013 .2773285 .47200013 .3353424 .47200013 .4003601 .43199159 .4423828 .35699464 .4423828 .2939911 .4423828 .24598694 .41137696 .20899964 .36535646L.2869873 .68333438Z"/>
<path id="font_3_2" d="M.2889862 .25C.2889862 .32798768 .27799989 .44898988 .22299195 .56199648 .16299439 .68499758 .07699585 .75 .066986087 .75 .06098938 .75 .056991579 .74598696 .056991579 .73999026 .056991579 .7369995 .056991579 .73498538 .07598877 .71699526 .17399597 .6179962 .23098755 .45899964 .23098755 .25 .23098755 .07899475 .19400025-.09700012 .069992069-.2230072 .056991579-.23500061 .056991579-.23701477 .056991579-.2400055 .056991579-.2460022 .06098938-.25 .066986087-.25 .07699585-.25 .16699219-.18200684 .22599793-.055007936 .2769928 .054992677 .2889862 .16600037 .2889862 .25Z"/>
<path id="font_1_6" d="M.2869873 .68333438C.2869873 .6843262 .2869873 .69433596 .27398683 .69433596 .25099183 .69433596 .17799378 .6863251 .1519928 .6843262 .14399719 .68333438 .1329956 .6823273 .1329956 .6643219 .1329956 .6523285 .14199829 .6523285 .15699768 .6523285 .20498657 .6523285 .20698548 .6453247 .20698548 .6353302L.20399475 .6153412 .05899048 .039260866C.054992677 .025253296 .054992677 .023254395 .054992677 .01725769 .054992677-.0057525637 .07499695-.0107421879 .083999637-.0107421879 .09700012-.0107421879 .11199951-.0017547608 .117996219 .010253906 .12298584 .019256592 .16799927 .20431519 .17399597 .22932434 .20799256 .22631836 .2899933 .21031189 .2899933 .14428711 .2899933 .13729859 .2899933 .13328552 .2869873 .123291019 .2849884 .11128235 .2829895 .09927368 .2829895 .088272098 .2829895 .029251099 .32299806-.0107421879 .375-.0107421879 .40499879-.0107421879 .43199159 .0052490236 .45399476 .042266847 .47898866 .08627319 .48999024 .14129639 .48999024 .14329529 .48999024 .1532898 .48098756 .1532898 .47799684 .1532898 .46798707 .1532898 .46699525 .14929199 .46398927 .13528443 .44400025 .06227112 .42099 .011245728 .3769989 .011245728 .35798646 .011245728 .34498597 .022247315 .34498597 .058273317 .34498597 .07527161 .34899903 .09828186 .35299684 .11428833 .35699464 .13128662 .35699464 .13528443 .35699464 .14529419 .35699464 .21031189 .2939911 .23931885 .20899964 .2503357 .23999024 .26834107 .27198792 .30033876 .29499818 .32435609 .34298707 .37734986 .3889923 .42037965 .43798829 .42037965 .44400025 .42037965 .44499208 .42037965 .44699098 .41937257 .45899964 .41737367 .45999146 .41737367 .46798707 .4113617 .46998597 .4103546 .46998597 .40934754 .47200013 .40734864 .42399598 .4043579 .4149933 .36535646 .4149933 .35334779 .4149933 .33735658 .42599488 .31835938 .45298768 .31835938 .47898866 .31835938 .5079956 .3403473 .5079956 .37934876 .5079956 .40934754 .4850006 .4423828 .43998719 .4423828 .4119873 .4423828 .3659973 .43437196 .2939911 .35435487 .2599945 .3163452 .22099304 .27633668 .18299866 .26133729L.2869873 .68333438Z"/>
<path id="font_5_1" d="M.6749878 .32421876C.68899539 .32421876 .70700076 .32421876 .70700076 .34220887 .70700076 .36120606 .6899872 .36120606 .6749878 .36120606H.085998538C.07199097 .36120606 .053985597 .36120606 .053985597 .34321595 .053985597 .32421876 .070999149 .32421876 .085998538 .32421876H.6749878M.6749878 .13780213C.68899539 .13780213 .70700076 .13780213 .70700076 .15579224 .70700076 .17480469 .6899872 .17480469 .6749878 .17480469H.085998538C.07199097 .17480469 .053985597 .17480469 .053985597 .15679932 .053985597 .13780213 .070999149 .13780213 .085998538 .13780213H.6749878Z"/>
<path id="font_6_82" d="M.4189911 0V.0309906H.3869934C.29699708 .0309906 .2939911 .041992189 .2939911 .07902527V.64012148C.2939911 .6640167 .2939911 .6660156 .2709961 .6660156 .20899964 .60227969 .12098694 .60227969 .08898926 .60227969V.57128909C.10899353 .57128909 .16799927 .57128909 .21998596 .5972748V.07902527C.21998596 .042999269 .21699524 .0309906 .1269989 .0309906H.09498596V0C.12998963 .0029907227 .21699524 .0029907227 .25698854 .0029907227 .29699708 .0029907227 .38398744 .0029907227 .4189911 0Z"/>
<path id="font_1_1" d="M.20298767 .0009918213C.20298767 .066986087 .17799378 .10598755 .13899231 .10598755 .10598755 .10598755 .085998538 .08099365 .085998538 .052993776 .085998538 .025985718 .10598755 0 .13899231 0 .15098572 0 .1639862 .0039978029 .17399597 .0129852299 .1769867 .01499939 .17799378 .015991211 .1789856 .015991211 .17999268 .015991211 .18099976 .01499939 .18099976 .0009918213 .18099976-.07316589 .1459961-.13328552 .11299133-.16635132 .101989749-.17736817 .101989749-.17936707 .101989749-.18237305 .101989749-.18936157 .10699463-.19335938 .11199951-.19335938 .12298584-.19335938 .20298767-.116256717 .20298767 .0009918213Z"/>
</defs>
<path transform="matrix(1.00006,0,0,-1,90.59135,101.157)" stroke-width=".79701" stroke-linecap="butt" stroke-miterlimit="10" stroke-linejoin="miter" fill="none" stroke="#000000" d="M-89.29204-59.52802H87.85742"/>
<path transform="matrix(1.00006,0,0,-1,178.45404,160.68502)" d="M1.0361 0C-.25902 .25902-1.55415 .77707-3.1083 1.68365-1.55415 .51805-1.55415-.51805-3.1083-1.68365-1.55415-.77707-.25902-.25902 1.0361 0Z"/>
<path transform="matrix(1.00006,0,0,-1,178.45404,160.68502)" stroke-width=".79701" stroke-linecap="butt" stroke-linejoin="round" fill="none" stroke="#000000" d="M1.0361 0C-.25902 .25902-1.55415 .77707-3.1083 1.68365-1.55415 .51805-1.55415-.51805-3.1083-1.68365-1.55415-.77707-.25902-.25902 1.0361 0Z"/>
<use data-text="x" xlink:href="#font_1_7" transform="matrix(9.963197,0,0,-9.9626,183.60793,162.83)"/>
<path transform="matrix(1.00006,0,0,-1,90.59135,101.157)" stroke-width=".79701" stroke-linecap="butt" stroke-miterlimit="10" stroke-linejoin="miter" fill="none" stroke="#000000" d="M-59.52802-89.29204V87.85742"/>
<path transform="matrix(0,-1,-1.00006,-0,31.059758,13.299576)" d="M1.0361 0C-.25902 .25902-1.55415 .77707-3.1083 1.68365-1.55415 .51805-1.55415-.51805-3.1083-1.68365-1.55415-.77707-.25902-.25902 1.0361 0Z"/>
<path transform="matrix(0,-1,-1.00006,-0,31.059758,13.299576)" stroke-width=".79701" stroke-linecap="butt" stroke-linejoin="round" fill="none" stroke="#000000" d="M1.0361 0C-.25902 .25902-1.55415 .77707-3.1083 1.68365-1.55415 .51805-1.55415-.51805-3.1083-1.68365-1.55415-.77707-.25902-.25902 1.0361 0Z"/>
<use data-text="y" xlink:href="#font_1_8" transform="matrix(9.963197,0,0,-9.9626,28.43863,6.2089998)"/>
<path transform="matrix(1.00006,0,0,-1,90.59135,101.157)" stroke-width=".79701" stroke-linecap="butt" stroke-dasharray="2.98883,2.98883" stroke-miterlimit="10" stroke-linejoin="miter" fill="none" stroke="#515151" d="M-85.32358 0H85.32358"/>
<path transform="matrix(1.00006,0,0,-1,90.59135,101.157)" stroke-width=".79701" stroke-linecap="butt" stroke-dasharray="2.98883,2.98883" stroke-miterlimit="10" stroke-linejoin="miter" fill="none" stroke="#515151" d="M0-85.32358V85.32358"/>
<path transform="matrix(1.00006,0,0,-1,90.59135,101.157)" stroke-width="1.19553" stroke-linecap="butt" stroke-miterlimit="10" stroke-linejoin="miter" fill="none" stroke="#ff0000" d="M73.35168-70.61624C71.46422-68.6559 71.46422-68.6559 70.29381-67.43591 69.12338-66.2159 67.31136-64.32164 66.21512-63.17253 65.11888-62.02339 63.41971-60.2368 62.39288-59.1538 61.36604-58.07079 59.77525-56.38759 58.81438-55.36697 57.85349-54.34636 56.36617-52.76044 55.4675-51.79788 54.56885-50.8353 53.17786-49.33794 52.3374-48.4295 51.49696-47.52104 50.1955-46.10779 49.41017-45.25035 48.62486-44.3929 47.41057-43.05962 46.67734-42.24954 45.94409-41.43948 44.80971-40.17789 44.12555-39.41194 43.44138-38.646 42.38373-37.45346 41.74632-36.72903 41.10892-36.00464 40.12479-34.87694 39.53154-34.19089 38.93828-33.50482 38.0223-32.43477 37.47055-31.78441 36.9188-31.13406 36.06688-30.12056 35.55489-29.50362 35.04286-28.88667 34.25456-27.92418 33.78032-27.33786 33.30608-26.75154 32.57555-25.8354 32.13686-25.27779 31.69815-24.72015 31.02312-23.85019 30.61844-23.31882 30.21378-22.78745 29.5925-21.95518 29.22021-21.44798 28.84793-20.94075 28.2765-20.14786 27.93524-19.66312 27.59395-19.17836 27.072-18.41867 26.76048-17.95425 26.44894-17.48984 25.97302-16.76186 25.68987-16.31595 25.40668-15.87001 24.9753-15.16933 24.71945-14.74028 24.46364-14.31126 24.07544-13.6374 23.84595-13.2237 23.61647-12.80998 23.26936-12.15887 23.06541-11.75856 22.86145-11.35826 22.55536-10.72696 22.37598-10.33853 22.1966-9.95013 21.9281-9.33688 21.77254-8.95909 21.61699-8.58131 21.38687-7.98456 21.2548-7.61568 21.12273-7.24681 20.9299-6.66193 20.82062-6.30043 20.71136-5.93895 20.55424-5.36548 20.4673-5.0103 20.38034-4.6551 20.25874-4.09091 20.1939-3.74046 20.12903-3.39003 20.0429-2.83168 19.99979-2.48456 19.9567-2.13744 19.90503-1.58337 19.88322-1.23863 19.86143-.89392 19.84267-.34369 19.84267 0 19.84267 .34369 19.86143 .89392 19.88322 1.23863 19.90503 1.58337 19.9567 2.13744 19.99979 2.48456 20.0429 2.83168 20.12903 3.39003 20.1939 3.74046 20.25874 4.09091 20.38034 4.6551 20.4673 5.0103 20.55424 5.36548 20.71136 5.93895 20.82062 6.30043 20.9299 6.66193 21.12273 7.24681 21.2548 7.61568 21.38687 7.98456 21.61699 8.58131 21.77254 8.95909 21.9281 9.33688 22.1966 9.95013 22.37598 10.33853 22.55536 10.72696 22.86145 11.35826 23.06541 11.75856 23.26936 12.15887 23.61647 12.80998 23.84595 13.2237 24.07544 13.6374 24.46364 14.31126 24.71945 14.74028 24.9753 15.16933 25.40668 15.87001 25.68987 16.31595 25.97302 16.76186 26.44894 17.48984 26.76048 17.95425 27.072 18.41867 27.59395 19.17836 27.93524 19.66312 28.2765 20.14786 28.84793 20.94075 29.22021 21.44798 29.5925 21.95518 30.21378 22.78745 30.61844 23.31882 31.02312 23.85019 31.69815 24.72015 32.13686 25.27779 32.57555 25.8354 33.30608 26.75154 33.78032 27.33786 34.25456 27.92418 35.04286 28.88667 35.55489 29.50362 36.06688 30.12056 36.9188 31.13406 37.47055 31.78441 38.0223 32.43477 38.93828 33.50482 39.53154 34.19089 40.12479 34.87694 41.10892 36.00464 41.74632 36.72903 42.38373 37.45346 43.44138 38.646 44.12555 39.41194 44.80971 40.17789 45.94409 41.43948 46.67734 42.24954 47.41057 43.05962 48.62486 44.3929 49.41017 45.25035 50.1955 46.10779 51.49696 47.52104 52.3374 48.4295 53.17786 49.33794 54.56885 50.8353 55.4675 51.79788 56.36617 52.76044 57.85349 54.34636 58.81438 55.36697 59.77525 56.38759 61.36604 58.07079 62.39288 59.1538 63.41971 60.2368 65.11888 62.02339 66.21512 63.17253 67.31136 64.32164 69.12338 66.2159 70.29381 67.43591 71.46422 68.6559 74.65074 71.96541 73.35168 70.61624"/>
<path transform="matrix(.6936116,.72034,.7203832,-.69357,163.94742,171.77323)" d="M1.27522 0C-.31879 .31879-1.91284 .9564-3.8257 2.07224-1.91284 .6376-1.91284-.6376-3.8257-2.07224-1.91284-.9564-.31879-.31879 1.27522 0Z" fill="#ff0000"/>
<path transform="matrix(.6936116,.72034,.7203832,-.69357,163.94742,171.77323)" stroke-width="1.19553" stroke-linecap="butt" stroke-linejoin="round" fill="none" stroke="#ff0000" d="M1.27522 0C-.31879 .31879-1.91284 .9564-3.8257 2.07224-1.91284 .6376-1.91284-.6376-3.8257-2.07224-1.91284-.9564-.31879-.31879 1.27522 0Z"/>
<path transform="matrix(.6936116,-.72034,-.7203832,-.69357,163.94742,30.540772)" d="M1.27522 0C-.31879 .31879-1.91284 .9564-3.8257 2.07224-1.91284 .6376-1.91284-.6376-3.8257-2.07224-1.91284-.9564-.31879-.31879 1.27522 0Z" fill="#ff0000"/>
<path transform="matrix(.6936116,-.72034,-.7203832,-.69357,163.94742,30.540772)" stroke-width="1.19553" stroke-linecap="butt" stroke-linejoin="round" fill="none" stroke="#ff0000" d="M1.27522 0C-.31879 .31879-1.91284 .9564-3.8257 2.07224-1.91284 .6376-1.91284-.6376-3.8257-2.07224-1.91284-.9564-.31879-.31879 1.27522 0Z"/>
<path transform="matrix(1.00006,0,0,-1,90.59135,101.157)" stroke-width="1.19553" stroke-linecap="butt" stroke-miterlimit="10" stroke-linejoin="miter" fill="none" stroke="#ff0000" d="M-73.35168-70.61624C-71.46422-68.6559-71.46422-68.6559-70.29381-67.43591-69.12338-66.2159-67.31136-64.32164-66.21512-63.17253-65.11888-62.02339-63.41971-60.2368-62.39288-59.1538-61.36604-58.07079-59.77525-56.38759-58.81438-55.36697-57.85349-54.34636-56.36617-52.76044-55.4675-51.79788-54.56885-50.8353-53.17786-49.33794-52.3374-48.4295-51.49696-47.52104-50.1955-46.10779-49.41017-45.25035-48.62486-44.3929-47.41057-43.05962-46.67734-42.24954-45.94409-41.43948-44.80971-40.17789-44.12555-39.41194-43.44138-38.646-42.38373-37.45346-41.74632-36.72903-41.10892-36.00464-40.12479-34.87694-39.53154-34.19089-38.93828-33.50482-38.0223-32.43477-37.47055-31.78441-36.9188-31.13406-36.06688-30.12056-35.55489-29.50362-35.04286-28.88667-34.25456-27.92418-33.78032-27.33786-33.30608-26.75154-32.57555-25.8354-32.13686-25.27779-31.69815-24.72015-31.02312-23.85019-30.61844-23.31882-30.21378-22.78745-29.5925-21.95518-29.22021-21.44798-28.84793-20.94075-28.2765-20.14786-27.93524-19.66312-27.59395-19.17836-27.072-18.41867-26.76048-17.95425-26.44894-17.48984-25.97302-16.76186-25.68987-16.31595-25.40668-15.87001-24.9753-15.16933-24.71945-14.74028-24.46364-14.31126-24.07544-13.6374-23.84595-13.2237-23.61647-12.80998-23.26936-12.15887-23.06541-11.75856-22.86145-11.35826-22.55536-10.72696-22.37598-10.33853-22.1966-9.95013-21.9281-9.33688-21.77254-8.95909-21.61699-8.58131-21.38687-7.98456-21.2548-7.61568-21.12273-7.24681-20.9299-6.66193-20.82062-6.30043-20.71136-5.93895-20.55424-5.36548-20.4673-5.0103-20.38034-4.6551-20.25874-4.09091-20.1939-3.74046-20.12903-3.39003-20.0429-2.83168-19.99979-2.48456-19.9567-2.13744-19.90503-1.58337-19.88322-1.23863-19.86143-.89392-19.84267-.34369-19.84267 0-19.84267 .34369-19.86143 .89392-19.88322 1.23863-19.90503 1.58337-19.9567 2.13744-19.99979 2.48456-20.0429 2.83168-20.12903 3.39003-20.1939 3.74046-20.25874 4.09091-20.38034 4.6551-20.4673 5.0103-20.55424 5.36548-20.71136 5.93895-20.82062 6.30043-20.9299 6.66193-21.12273 7.24681-21.2548 7.61568-21.38687 7.98456-21.61699 8.58131-21.77254 8.95909-21.9281 9.33688-22.1966 9.95013-22.37598 10.33853-22.55536 10.72696-22.86145 11.35826-23.06541 11.75856-23.26936 12.15887-23.61647 12.80998-23.84595 13.2237-24.07544 13.6374-24.46364 14.31126-24.71945 14.74028-24.9753 15.16933-25.40668 15.87001-25.68987 16.31595-25.97302 16.76186-26.44894 17.48984-26.76048 17.95425-27.072 18.41867-27.59395 19.17836-27.93524 19.66312-28.2765 20.14786-28.84793 20.94075-29.22021 21.44798-29.5925 21.95518-30.21378 22.78745-30.61844 23.31882-31.02312 23.85019-31.69815 24.72015-32.13686 25.27779-32.57555 25.8354-33.30608 26.75154-33.78032 27.33786-34.25456 27.92418-35.04286 28.88667-35.55489 29.50362-36.06688 30.12056-36.9188 31.13406-37.47055 31.78441-38.0223 32.43477-38.93828 33.50482-39.53154 34.19089-40.12479 34.87694-41.10892 36.00464-41.74632 36.72903-42.38373 37.45346-43.44138 38.646-44.12555 39.41194-44.80971 40.17789-45.94409 41.43948-46.67734 42.24954-47.41057 43.05962-48.62486 44.3929-49.41017 45.25035-50.1955 46.10779-51.49696 47.52104-52.3374 48.4295-53.17786 49.33794-54.56885 50.8353-55.4675 51.79788-56.36617 52.76044-57.85349 54.34636-58.81438 55.36697-59.77525 56.38759-61.36604 58.07079-62.39288 59.1538-63.41971 60.2368-65.11888 62.02339-66.21512 63.17253-67.31136 64.32164-69.12338 66.2159-70.29381 67.43591-71.46422 68.6559-74.65074 71.96541-73.35168 70.61624"/>
<path transform="matrix(-.6936116,.72034,.7203832,.69357,17.235276,171.77323)" d="M1.27522 0C-.31879 .31879-1.91284 .9564-3.8257 2.07224-1.91284 .6376-1.91284-.6376-3.8257-2.07224-1.91284-.9564-.31879-.31879 1.27522 0Z" fill="#ff0000"/>
<path transform="matrix(-.6936116,.72034,.7203832,.69357,17.235276,171.77323)" stroke-width="1.19553" stroke-linecap="butt" stroke-linejoin="round" fill="none" stroke="#ff0000" d="M1.27522 0C-.31879 .31879-1.91284 .9564-3.8257 2.07224-1.91284 .6376-1.91284-.6376-3.8257-2.07224-1.91284-.9564-.31879-.31879 1.27522 0Z"/>
<path transform="matrix(-.6936116,-.72034,-.7203832,.69357,17.235276,30.540772)" d="M1.27522 0C-.31879 .31879-1.91284 .9564-3.8257 2.07224-1.91284 .6376-1.91284-.6376-3.8257-2.07224-1.91284-.9564-.31879-.31879 1.27522 0Z" fill="#ff0000"/>
<path transform="matrix(-.6936116,-.72034,-.7203832,.69357,17.235276,30.540772)" stroke-width="1.19553" stroke-linecap="butt" stroke-linejoin="round" fill="none" stroke="#ff0000" d="M1.27522 0C-.31879 .31879-1.91284 .9564-3.8257 2.07224-1.91284 .6376-1.91284-.6376-3.8257-2.07224-1.91284-.9564-.31879-.31879 1.27522 0Z"/>
<path transform="matrix(1.00006,0,0,-1,90.59135,101.157)" stroke-width="1.19553" stroke-linecap="butt" stroke-miterlimit="10" stroke-linejoin="miter" fill="none" stroke="#0000ff" d="M-19.84267 0H19.84267"/>
<path transform="matrix(1.00006,0,0,-1,90.59135,101.157)" d="M-26.07742 0C-26.07742 1.09593-26.96585 1.98438-28.0618 1.98438-29.15773 1.98438-30.04617 1.09593-30.04617 0-30.04617-1.09593-29.15773-1.98438-28.0618-1.98438-26.96585-1.98438-26.07742-1.09593-26.07742 0ZM-28.0618 0"/>
<path transform="matrix(1.00006,0,0,-1,90.59135,101.157)" stroke-width=".3985" stroke-linecap="butt" stroke-miterlimit="10" stroke-linejoin="miter" fill="none" stroke="#000000" d="M-26.07742 0C-26.07742 1.09593-26.96585 1.98438-28.0618 1.98438-29.15773 1.98438-30.04617 1.09593-30.04617 0-30.04617-1.09593-29.15773-1.98438-28.0618-1.98438-26.96585-1.98438-26.07742-1.09593-26.07742 0ZM-28.0618 0"/>
<use data-text="F" xlink:href="#font_1_2" transform="matrix(9.963197,0,0,-9.9626,48.1308,96.143)"/>
<use data-text="2" xlink:href="#font_2_2" transform="matrix(6.9742186,0,0,-6.9738,54.538179,97.637)"/>
<path transform="matrix(1.00006,0,0,-1,90.59135,101.157)" d="M30.04617 0C30.04617 1.09593 29.15773 1.98438 28.0618 1.98438 26.96585 1.98438 26.07742 1.09593 26.07742 0 26.07742-1.09593 26.96585-1.98438 28.0618-1.98438 29.15773-1.98438 30.04617-1.09593 30.04617 0ZM28.0618 0"/>
<path transform="matrix(1.00006,0,0,-1,90.59135,101.157)" stroke-width=".3985" stroke-linecap="butt" stroke-miterlimit="10" stroke-linejoin="miter" fill="none" stroke="#000000" d="M30.04617 0C30.04617 1.09593 29.15773 1.98438 28.0618 1.98438 26.96585 1.98438 26.07742 1.09593 26.07742 0 26.07742-1.09593 26.96585-1.98438 28.0618-1.98438 29.15773-1.98438 30.04617-1.09593 30.04617 0ZM28.0618 0"/>
<use data-text="F" xlink:href="#font_1_2" transform="matrix(9.963197,0,0,-9.9626,122.17524,96.143)"/>
<use data-text="1" xlink:href="#font_2_1" transform="matrix(6.9742186,0,0,-6.9738,128.58261,97.637)"/>
<path transform="matrix(1.00006,0,0,-1,90.59135,101.157)" stroke-width="1.19553" stroke-linecap="butt" stroke-miterlimit="10" stroke-linejoin="miter" fill="none" stroke="#0000ff" d="M-19.84267 0H19.84267"/>
<path transform="matrix(1.00006,0,0,-1,90.59135,101.157)" stroke-width="1.19553" stroke-linecap="butt" stroke-miterlimit="10" stroke-linejoin="miter" fill="none" stroke="#00b300" d="M0 19.84267V-19.84267"/>
<path transform="matrix(1.00006,0,0,-1,90.59135,101.157)" stroke-width=".3985" stroke-linecap="butt" stroke-miterlimit="10" stroke-linejoin="miter" fill="none" stroke="#00b300" d="M0 19.84267C1.49442 19.0986 2.49069 17.36234 2.49069 14.882 2.49069 12.40166 3.48695 10.66539 4.98138 9.92134 3.48695 9.17728 2.49069 7.44101 2.49069 4.96068V4.96066C2.49069 2.48032 1.49442 .74405 0 0"/>
<use data-text="b" xlink:href="#font_1_4" transform="matrix(9.963197,0,0,-9.9626,99.7809,94.695)" fill="#00b300"/>
<path transform="matrix(1.00006,0,0,-1,90.59135,101.157)" stroke-width=".3985" stroke-linecap="butt" stroke-miterlimit="10" stroke-linejoin="miter" fill="none" stroke="#0000ff" d="M19.84267 0C19.0986-1.7933 17.36234-2.98883 14.882-2.98883 12.40166-2.98883 10.66539-4.18434 9.92134-5.97766 9.17728-4.18434 7.44101-2.98883 4.96068-2.98883H4.96066C2.48032-2.98883 .74405-1.7933 0 0"/>
<use data-text="a" xlink:href="#font_1_3" transform="matrix(9.963197,0,0,-9.9626,97.87978,114.636)" fill="#0000ff"/>
<use data-text="(" xlink:href="#font_3_1" transform="matrix(9.963197,0,0,-9.9626,47.553773,198.483)"/>
<use data-text="x" xlink:href="#font_1_7" transform="matrix(9.963197,0,0,-9.9626,51.427995,198.483)"/>
<use data-text="&#x2212;" xlink:href="#font_4_1" transform="matrix(9.963197,0,0,-9.9626,57.122346,198.483)"/>
<use data-text="h" xlink:href="#font_1_5" transform="matrix(9.963197,0,0,-9.9626,64.871799,198.483)"/>
<use data-text=")" xlink:href="#font_3_2" transform="matrix(9.963197,0,0,-9.9626,70.61215,198.483)"/>
<use data-text="2" xlink:href="#font_2_2" transform="matrix(6.9742186,0,0,-6.9738,74.486377,194.86801)"/>
<path transform="matrix(1.00006,0,0,-1,-126.23865,117.264)" stroke-width=".5738" stroke-linecap="butt" stroke-miterlimit="10" stroke-linejoin="miter" fill="none" stroke="#000000" d="M173.782-84.571H205.182"/>
<use data-text="a" xlink:href="#font_1_3" transform="matrix(9.963197,0,0,-9.9626,58.386415,210.368)"/>
<use data-text="2" xlink:href="#font_2_2" transform="matrix(6.9742186,0,0,-6.9738,63.65274,207.48999)"/>
<use data-text="&#x2212;" xlink:href="#font_4_1" transform="matrix(14.34706,0,0,-14.3462,83.339939,205.42099)"/>
<use data-text="(" xlink:href="#font_3_1" transform="matrix(9.963197,0,0,-9.9626,98.88286,198.483)"/>
<use data-text="y" xlink:href="#font_1_8" transform="matrix(9.963197,0,0,-9.9626,102.75708,198.483)"/>
<use data-text="&#x2212;" xlink:href="#font_4_1" transform="matrix(9.963197,0,0,-9.9626,107.99939,198.483)"/>
<use data-text="k" xlink:href="#font_1_6" transform="matrix(9.963197,0,0,-9.9626,115.748859,198.483)"/>
<use data-text=")" xlink:href="#font_3_2" transform="matrix(9.963197,0,0,-9.9626,121.249179,198.483)"/>
<use data-text="2" xlink:href="#font_2_2" transform="matrix(6.9742186,0,0,-6.9738,125.12341,194.868)"/>
<path transform="matrix(1.00006,0,0,-1,-126.23865,117.264)" stroke-width=".5738" stroke-linecap="butt" stroke-miterlimit="10" stroke-linejoin="miter" fill="none" stroke="#000000" d="M225.108-84.571H255.817"/>
<use data-text="b" xlink:href="#font_1_4" transform="matrix(9.963197,0,0,-9.9626,109.86551,210.368)"/>
<use data-text="2" xlink:href="#font_2_2" transform="matrix(6.9742186,0,0,-6.9738,114.14076,207.48999)"/>
<use data-text="=" xlink:href="#font_5_1" transform="matrix(14.34706,0,0,-14.3462,134.77399,205.42099)"/>
<use data-text="1" xlink:href="#font_6_82" transform="matrix(9.963197,0,0,-9.9626,149.68589,205.42099)"/>
<path transform="matrix(1.00006,0,0,-1,90.59135,101.157)" d="M1.98438 0C1.98438 1.09593 1.09593 1.98438 0 1.98438-1.09593 1.98438-1.98438 1.09593-1.98438 0-1.98438-1.09593-1.09593-1.98438 0-1.98438 1.09593-1.98438 1.98438-1.09593 1.98438 0ZM0 0" fill="#515151"/>
<path transform="matrix(1.00006,0,0,-1,90.59135,101.157)" stroke-width=".3985" stroke-linecap="butt" stroke-miterlimit="10" stroke-linejoin="miter" fill="none" stroke="#515151" d="M1.98438 0C1.98438 1.09593 1.09593 1.98438 0 1.98438-1.09593 1.98438-1.98438 1.09593-1.98438 0-1.98438-1.09593-1.09593-1.98438 0-1.98438 1.09593-1.98438 1.98438-1.09593 1.98438 0ZM0 0"/>
<use data-text="(" xlink:href="#font_3_1" transform="matrix(9.963197,0,0,-9.9626,63.652734,140.496)"/>
<use data-text="h" xlink:href="#font_1_5" transform="matrix(9.963197,0,0,-9.9626,67.526958,140.496)"/>
<use data-text="," xlink:href="#font_1_1" transform="matrix(9.963197,0,0,-9.9626,73.26577,140.496)"/>
<use data-text="k" xlink:href="#font_1_6" transform="matrix(9.963197,0,0,-9.9626,77.67947,140.496)"/>
<use data-text=")" xlink:href="#font_3_2" transform="matrix(9.963197,0,0,-9.9626,83.1959,140.496)"/>
<path transform="matrix(1.00006,0,0,-1,90.59135,101.157)" stroke-width=".3985" stroke-linecap="butt" stroke-miterlimit="10" stroke-linejoin="miter" fill="none" stroke="#929292" d="M-15.87419-31.74838C-15.87419-19.95107-15.58665-6.017-4.94957-4.14142"/>
<path transform="matrix(.98485907,-.17363,-.17364042,-.9848,85.64148,105.29843)" d="M.797 0C-.19925 .19925-1.19551 .59775-2.39102 1.29512-1.19551 .3985-1.19551-.3985-2.39102-1.29512-1.19551-.59775-.19925-.19925 .797 0Z" fill="#929292"/>
<path transform="matrix(.98485907,-.17363,-.17364042,-.9848,85.64148,105.29843)" stroke-width=".3985" stroke-linecap="butt" stroke-linejoin="round" fill="none" stroke="#929292" d="M.797 0C-.19925 .19925-1.19551 .59775-2.39102 1.29512-1.19551 .3985-1.19551-.3985-2.39102-1.29512-1.19551-.59775-.19925-.19925 .797 0Z"/>
</svg>
