<svg xmlns="http://www.w3.org/2000/svg" xmlns:xlink="http://www.w3.org/1999/xlink" version="1.1" width="216" height="220" viewBox="0 0 216 220">
<defs>
<path id="font_1_3" d="M.33399964 .30233766C.33999635 .32835389 .36299134 .42037965 .43299867 .42037965 .43798829 .42037965 .46199037 .42037965 .48298646 .40734864 .45498658 .402359 .43499757 .37734986 .43499757 .35334779 .43499757 .33735658 .44599916 .31835938 .47299195 .31835938 .49499513 .31835938 .5269928 .3363495 .5269928 .37635804 .5269928 .42837525 .46798707 .4423828 .43399049 .4423828 .37599183 .4423828 .34098817 .38935853 .32899476 .36634828 .3039856 .43237306 .25 .4423828 .22099304 .4423828 .116989139 .4423828 .05999756 .3133545 .05999756 .28834535 .05999756 .27833558 .069992069 .27833558 .07199097 .27833558 .07998657 .27833558 .08299255 .28033448 .084991458 .28933717 .11898804 .39535523 .18499756 .42037965 .21899414 .42037965 .23799134 .42037965 .272995 .4113617 .272995 .35334779 .272995 .32235719 .2559967 .25532533 .21899414 .11528015 .20298767 .053268434 .16799927 .011245728 .12399292 .011245728 .117996219 .011245728 .09498596 .011245728 .07398987 .024276734 .09899902 .029266358 .12098694 .05027771 .12098694 .07827759 .12098694 .105270389 .09899902 .11328125 .083999637 .11328125 .053985597 .11328125 .0289917 .08728027 .0289917 .055267335 .0289917 .009246826 .07899475-.0107421879 .12298584-.0107421879 .18899536-.0107421879 .22499085 .059280397 .22799683 .0652771 .23999024 .028274537 .27598573-.0107421879 .33599855-.0107421879 .43899537-.0107421879 .49598695 .118270877 .49598695 .14328003 .49598695 .1532898 .4869995 .1532898 .48399354 .1532898 .47499085 .1532898 .47299195 .14929199 .47099305 .14228821 .43798829 .03527832 .36999513 .011245728 .33799745 .011245728 .29899598 .011245728 .2829895 .043273927 .2829895 .07727051 .2829895 .09927368 .2889862 .121276859 .2999878 .16529846L.33399964 .30233766Z"/>
<path id="font_1_4" d="M.48599244 .38136292C.48999024 .39537049 .48999024 .39736939 .48999024 .40437318 .48999024 .42237855 .47599793 .43138124 .46099855 .43138124 .45098878 .43138124 .43499757 .42536927 .42599488 .41036988 .42399598 .405365 .41600038 .37435914 .4119873 .35635377 .40499879 .33035279 .397995 .30334474 .3919983 .27633668L.34700013 .09628296C.34298707 .08126831 .2999878 .011245728 .23399353 .011245728 .18299866 .011245728 .17199707 .055267335 .17199707 .0922699 .17199707 .1382904 .18899536 .20030213 .22299195 .28833009 .23899842 .3293457 .24299622 .3403473 .24299622 .36035157 .24299622 .405365 .21099854 .4423828 .16099549 .4423828 .06599426 .4423828 .0289917 .29733277 .0289917 .28833009 .0289917 .27833558 .038986207 .27833558 .040985109 .27833558 .050994874 .27833558 .051986696 .28033448 .056991579 .29634095 .083999637 .3903656 .12399292 .42037965 .1579895 .42037965 .1659851 .42037965 .18299866 .42037965 .18299866 .3883667 .18299866 .36335755 .17298889 .3373413 .1659851 .31834413 .12599182 .21231079 .10798645 .1552887 .10798645 .10827637 .10798645 .019256592 .17098999-.0107421879 .22999573-.0107421879 .2689972-.0107421879 .30299378 .0062561037 .33099366 .03425598 .31799317-.017745972 .30599977-.06674194 .2659912-.11973572 .23999024-.15385437 .20199585-.18309021 .1559906-.18309021 .14199829-.18309021 .09700012-.18005371 .07998657-.14074707 .09599304-.14074707 .10899353-.14074707 .12298584-.1287384 .1329956-.11973572 .14299011-.10673523 .14299011-.08773804 .14299011-.056747438 .115997318-.052734376 .10598755-.052734376 .08299255-.052734376 .049987794-.068740848 .049987794-.11773682 .049987794-.16796875 .09399414-.20507813 .1559906-.20507813 .25898744-.20507813 .3619995-.11373901 .3899994-.00074768069L.48599244 .38136292Z"/>
<path id="font_2_1" d="M.6589966 .23046875C.6759949 .23046875 .69400027 .23046875 .69400027 .25045777 .69400027 .27046205 .6759949 .27046205 .6589966 .27046205H.117996219C.100997928 .27046205 .08299255 .27046205 .08299255 .25045777 .08299255 .23046875 .100997928 .23046875 .117996219 .23046875H.6589966Z"/>
<path id="font_3_4" d="M.44898988 .20022583C.44898988 .3193512 .36698915 .41944886 .25898744 .41944886 .21099854 .41944886 .16799927 .40345765 .13198853 .36842347V.5637665C.1519928 .5577698 .18499756 .55078127 .21699524 .55078127 .33999635 .55078127 .4099884 .6417694 .4099884 .6547699 .4099884 .6607666 .40699769 .6657715 .3999939 .6657715 .39898683 .6657715 .39698792 .6657715 .3919983 .66278079 .37199403 .6537781 .32299806 .6337738 .2559967 .6337738 .21598816 .6337738 .16999817 .6407776 .12298584 .6617737 .114990238 .66477969 .11299133 .66477969 .11099243 .66477969 .100997928 .66477969 .100997928 .6567688 .100997928 .6407776V.34439088C.100997928 .32637025 .100997928 .31835938 .114990238 .31835938 .12199402 .31835938 .12399292 .32136537 .12799073 .32736207 .13899231 .3433838 .17599488 .39746095 .25698854 .39746095 .30899049 .39746095 .33399964 .35139466 .34199525 .33337403 .35798646 .29632569 .3600006 .25727845 .3600006 .20722962 .3600006 .17222595 .3600006 .11222839 .33599855 .07035828 .31199647 .031463624 .2749939 .0055389406 .22898865 .0055389406 .1559906 .0055389406 .09899902 .058380128 .08198547 .11723328 .084991458 .1162262 .08799744 .115234378 .09899902 .115234378 .13198853 .115234378 .14898682 .14022827 .14898682 .16423035 .14898682 .18823242 .13198853 .21322632 .09899902 .21322632 .084991458 .21322632 .049987794 .20622254 .049987794 .16023255 .049987794 .07434082 .11898804-.022460938 .23098755-.022460938 .34700013-.022460938 .44898988 .073349 .44898988 .20022583Z"/>
<path id="font_1_2" d="M.23899842 .68333438C.23899842 .6843262 .23899842 .69433596 .22599793 .69433596 .20298767 .69433596 .12998963 .6863251 .10398865 .6843262 .09599304 .68333438 .084991458 .6823273 .084991458 .6643219 .084991458 .6523285 .09399414 .6523285 .10899353 .6523285 .15699768 .6523285 .15899658 .6453247 .15899658 .6353302 .15899658 .6283264 .1499939 .5943451 .14498902 .573349L.06298828 .24731446C.050994874 .1973114 .04699707 .18130493 .04699707 .14628601 .04699707 .05126953 .099990848-.0107421879 .17399597-.0107421879 .2919922-.0107421879 .4149933 .1382904 .4149933 .28233338 .4149933 .37335206 .3619995 .4423828 .28199769 .4423828 .23599243 .4423828 .19499207 .41337586 .16499329 .38235475L.23899842 .68333438M.14498902 .30534364C.15098572 .3273468 .15098572 .3293457 .1599884 .3403473 .20899964 .405365 .2539978 .42037965 .27999879 .42037965 .31599427 .42037965 .34298707 .3903656 .34298707 .32633973 .34298707 .26733399 .30999757 .15229798 .2919922 .11428833 .25898744 .04725647 .21299744 .011245728 .17399597 .011245728 .13999939 .011245728 .10699463 .038253786 .10699463 .11227417 .10699463 .13128662 .10699463 .15029907 .12298584 .21331787L.14498902 .30534364Z"/>
<path id="font_3_6" d="M.68699648 .32714845C.70199587 .32714845 .72099307 .32714845 .72099307 .34713746 .72099307 .36714173 .70199587 .36714173 .6879883 .36714173H.08898926C.07499695 .36714173 .055999757 .36714173 .055999757 .34713746 .055999757 .32714845 .07499695 .32714845 .08999634 .32714845H.68699648M.6879883 .13284302C.70199587 .13284302 .72099307 .13284302 .72099307 .15284729 .72099307 .17285156 .70199587 .17285156 .68699648 .17285156H.08999634C.07499695 .17285156 .055999757 .17285156 .055999757 .15284729 .055999757 .13284302 .07499695 .13284302 .08898926 .13284302H.6879883Z"/>
<path id="font_3_2" d="M.2899933 .35191346C.37199403 .37893678 .42999269 .4490509 .42999269 .52809146 .42999269 .6100464 .34199525 .6660156 .24598694 .6660156 .14498902 .6660156 .068984989 .60606387 .068984989 .53009036 .068984989 .49710084 .09098816 .47808839 .11999512 .47808839 .15098572 .47808839 .17098999 .50009158 .17098999 .5290985 .17098999 .57910159 .12399292 .57910159 .10899353 .57910159 .13999939 .62802127 .20599365 .64100649 .24198914 .64100649 .2829895 .64100649 .33799745 .6190338 .33799745 .5290985 .33799745 .51708987 .33599855 .45906068 .30999757 .4149933 .27999879 .36691285 .24598694 .36390687 .22099304 .36291505 .21299744 .36190797 .18899536 .35990907 .18199158 .35990907 .17399597 .35890199 .16699219 .35791017 .16699219 .3479004 .16699219 .33691407 .17399597 .33691407 .19099427 .33691407H.23498535C.31698609 .33691407 .35398866 .2686615 .35398866 .17037964 .35398866 .034469606 .2849884 .0055389406 .24099732 .0055389406 .19799805 .0055389406 .12298584 .022491456 .08799744 .08137512 .12298584 .07637024 .1539917 .09837341 .1539917 .1363678 .1539917 .17237854 .1269989 .19238281 .09799194 .19238281 .07398987 .19238281 .041992189 .17837525 .041992189 .1343689 .041992189 .043441774 .1349945-.022460938 .24398804-.022460938 .3659973-.022460938 .45700074 .06838989 .45700074 .17037964 .45700074 .252594 .3939972 .33088685 .2899933 .35191346Z"/>
<path id="font_1_1" d="M.37298585 .37835694C.35499574 .41537477 .32598878 .4423828 .2809906 .4423828 .1639862 .4423828 .039993287 .29533387 .039993287 .14929199 .039993287 .055267335 .09498596-.0107421879 .17298889-.0107421879 .19299317-.0107421879 .24299622-.0067443849 .30299378 .06427002 .31098939 .022247315 .34599305-.0107421879 .3939972-.0107421879 .42900086-.0107421879 .45199586 .012252808 .46798707 .044265748 .4850006 .08027649 .49798585 .14129639 .49798585 .14329529 .49798585 .1532898 .4889984 .1532898 .48599244 .1532898 .47599793 .1532898 .47499085 .14929199 .47200013 .13528443 .45498658 .07026672 .43699647 .011245728 .3959961 .011245728 .36898805 .011245728 .3659973 .037261964 .3659973 .057266237 .3659973 .07926941 .36799623 .08728027 .3789978 .13128662 .3899994 .17329407 .3919983 .18330384 .40098573 .22131348L.43699647 .36135865C.44400025 .38935853 .44400025 .39135743 .44400025 .39537049 .44400025 .41236878 .43199159 .42237855 .4149933 .42237855 .3909912 .42237855 .37599183 .4003601 .37298585 .37835694M.30799867 .119277957C.30299378 .10127258 .30299378 .09927368 .28799439 .08227539 .24398804 .027252198 .20298767 .011245728 .1749878 .011245728 .125 .011245728 .11099243 .06626892 .11099243 .105285648 .11099243 .1552887 .14299011 .27833558 .1659851 .32434083 .19699097 .38336183 .24198914 .42037965 .28199769 .42037965 .34700013 .42037965 .36099244 .3383484 .36099244 .33235169 .36099244 .32633973 .35899354 .32034303 .35798646 .31533814L.30799867 .119277957Z"/>
<path id="font_3_1" d="M.1269989 .07699585 .23298645 .18003845C.3889923 .31811524 .44898988 .3721466 .44898988 .47216798 .44898988 .5860901 .35899354 .6660156 .23699951 .6660156 .12399292 .6660156 .049987794 .57411196 .049987794 .48516847 .049987794 .4291687 .099990848 .4291687 .102996829 .4291687 .11999512 .4291687 .15499878 .44117738 .15499878 .48217774 .15499878 .5081787 .13699341 .5341797 .101989749 .5341797 .09399414 .5341797 .09199524 .5341797 .08898926 .5331726 .11199951 .59806826 .1659851 .63500979 .22399903 .63500979 .31498719 .63500979 .35798646 .5541382 .35798646 .47216798 .35798646 .39215089 .30799867 .31311036 .25299073 .25108338L.06098938 .036987306C.049987794 .025985718 .049987794 .023986817 .049987794 0H.42099L.44898988 .17404175H.42399598C.4189911 .14402771 .4119873 .1000061 .4019928 .084991458 .394989 .07699585 .32899476 .07699585 .30699159 .07699585H.1269989Z"/>
<path id="font_4_1" d="M.5049896 .18203736H.47099305C.46798707 .16001892 .45799256 .100997928 .44499208 .09098816 .43699647 .084991458 .3600006 .084991458 .34599305 .084991458H.1619873C.2669983 .17803955 .3019867 .20603943 .3619995 .25306703 .43598939 .312088 .5049896 .374115 .5049896 .46914674 .5049896 .5900879 .39898683 .6640625 .2709961 .6640625 .14698792 .6640625 .06298828 .57710269 .06298828 .4851532 .06298828 .43414308 .10598755 .42915345 .115997318 .42915345 .13999939 .42915345 .16899109 .44615174 .16899109 .48214723 .16899109 .5001526 .1619873 .53515627 .10998535 .53515627 .14099121 .6060791 .20899964 .62805178 .2559967 .62805178 .35598756 .62805178 .4079895 .5501404 .4079895 .46914674 .4079895 .38212586 .34599305 .3130951 .31399537 .27708436L.07299805 .038986207C.06298828 .02999878 .06298828 .027999878 .06298828 0H.47499085L.5049896 .18203736Z"/>
<path id="font_3_5" d="M.36698915 .31781007V.28579713C.36698915 .05178833 .2630005 .0055389406 .20498657 .0055389406 .18798828 .0055389406 .13398743 .007537842 .10699463 .041778566 .15098572 .041778566 .15899658 .07078552 .15899658 .08778381 .15899658 .118774417 .1349945 .13378906 .11299133 .13378906 .09700012 .13378906 .066986087 .12478638 .066986087 .08578491 .066986087 .018615723 .12098694-.022460938 .20599365-.022460938 .33499146-.022460938 .45700074 .11378479 .45700074 .32881166 .45700074 .5979767 .34199525 .6660156 .25299073 .6660156 .19799805 .6660156 .14898682 .64801028 .10598755 .60298159 .06498718 .5579529 .041992189 .5159302 .041992189 .44088746 .041992189 .31581117 .12998963 .21777344 .24198914 .21777344 .30299378 .21777344 .34399415 .25978089 .36698915 .31781007M.24299622 .24076844C.22698975 .24076844 .18099976 .24076844 .1499939 .3038025 .13198853 .3408203 .13198853 .39085389 .13198853 .43988038 .13198853 .49391175 .13198853 .54093936 .15299988 .5779724 .17999268 .6279907 .21798706 .64100649 .25299073 .64100649 .29899598 .64100649 .33198548 .60697939 .34899903 .5619507 .36099244 .52993777 .36499024 .4669037 .36499024 .42086793 .36499024 .3378296 .33099366 .24076844 .24299622 .24076844Z"/>
<path id="font_3_3" d="M.2939911 .16503906V.07800293C.2939911 .041992189 .2919922 .0309906 .21798706 .0309906H.19699097V0C.23799134 .0029907227 .2899933 .0029907227 .33198548 .0029907227 .37399293 .0029907227 .4269867 .0029907227 .46798707 0V.0309906H.44699098C.37298585 .0309906 .37098695 .041992189 .37098695 .07800293V.16503906H.47099305V.19602967H.37098695V.65075686C.37098695 .67074587 .37098695 .6767578 .35499574 .6767578 .34599305 .6767578 .34298707 .6767578 .33499146 .66474917L.027999878 .19602967V.16503906H.2939911M.2999878 .19602967H.055999757L.2999878 .5688019V.19602967Z"/>
<path id="font_5_1" d="M.6749878 .32421876C.68899539 .32421876 .70700076 .32421876 .70700076 .34220887 .70700076 .36120606 .6899872 .36120606 .6749878 .36120606H.085998538C.07199097 .36120606 .053985597 .36120606 .053985597 .34321595 .053985597 .32421876 .070999149 .32421876 .085998538 .32421876H.6749878M.6749878 .13780213C.68899539 .13780213 .70700076 .13780213 .70700076 .15579224 .70700076 .17480469 .6899872 .17480469 .6749878 .17480469H.085998538C.07199097 .17480469 .053985597 .17480469 .053985597 .15679932 .053985597 .13780213 .070999149 .13780213 .085998538 .13780213H.6749878Z"/>
<path id="font_6_82" d="M.4189911 0V.0309906H.3869934C.29699708 .0309906 .2939911 .041992189 .2939911 .07902527V.64012148C.2939911 .6640167 .2939911 .6660156 .2709961 .6660156 .20899964 .60227969 .12098694 .60227969 .08898926 .60227969V.57128909C.10899353 .57128909 .16799927 .57128909 .21998596 .5972748V.07902527C.21998596 .042999269 .21699524 .0309906 .1269989 .0309906H.09498596V0C.12998963 .0029907227 .21699524 .0029907227 .25698854 .0029907227 .29699708 .0029907227 .38398744 .0029907227 .4189911 0Z"/>
</defs>
<g>
<path transform="matrix(1.00006,0,0,-1.00005,103.34911,113.919048)" d="M-34.0165-51.02477V51.02477H34.0165V-51.02477ZM34.0165 51.02477" fill="#abe1fa" fill-opacity=".5"/>
<path transform="matrix(1.00006,0,0,-1.00005,103.34911,113.919048)" stroke-width=".3985" stroke-linecap="butt" stroke-miterlimit="10" stroke-linejoin="miter" fill="none" stroke="#abe1fa" stroke-opacity=".5" d="M-34.0165-51.02477V51.02477H34.0165V-51.02477ZM34.0165 51.02477"/>
</g>
<path transform="matrix(1.00006,0,0,-1.00005,103.34911,113.919048)" stroke-width=".79701" stroke-linecap="butt" stroke-miterlimit="10" stroke-linejoin="miter" fill="none" stroke="#000000" d="M-102.04953 0H100.61493"/>
<path transform="matrix(1.00006,0,0,-1.00005,203.97008,113.919048)" d="M1.0361 0C-.25902 .25902-1.55415 .77707-3.1083 1.68365-1.55415 .51805-1.55415-.51805-3.1083-1.68365-1.55415-.77707-.25902-.25902 1.0361 0Z"/>
<path transform="matrix(1.00006,0,0,-1.00005,203.97008,113.919048)" stroke-width=".79701" stroke-linecap="butt" stroke-linejoin="round" fill="none" stroke="#000000" d="M1.0361 0C-.25902 .25902-1.55415 .77707-3.1083 1.68365-1.55415 .51805-1.55415-.51805-3.1083-1.68365-1.55415-.77707-.25902-.25902 1.0361 0Z"/>
<use data-text="x" xlink:href="#font_1_3" transform="matrix(9.963197,0,0,-9.963098,209.12445,116.06415)"/>
<path transform="matrix(1.00006,0,0,-1.00005,103.34911,113.919048)" stroke-width=".79701" stroke-linecap="butt" stroke-miterlimit="10" stroke-linejoin="miter" fill="none" stroke="#000000" d="M0-102.04953V100.61493"/>
<path transform="matrix(0,-1.00005,-1.00006,-0,103.34911,13.299088)" d="M1.0361 0C-.25902 .25902-1.55415 .77707-3.1083 1.68365-1.55415 .51805-1.55415-.51805-3.1083-1.68365-1.55415-.77707-.25902-.25902 1.0361 0Z"/>
<path transform="matrix(0,-1.00005,-1.00006,-0,103.34911,13.299088)" stroke-width=".79701" stroke-linecap="butt" stroke-linejoin="round" fill="none" stroke="#000000" d="M1.0361 0C-.25902 .25902-1.55415 .77707-3.1083 1.68365-1.55415 .51805-1.55415-.51805-3.1083-1.68365-1.55415-.77707-.25902-.25902 1.0361 0Z"/>
<use data-text="y" xlink:href="#font_1_4" transform="matrix(9.963197,0,0,-9.963098,100.72796,6.2076647)"/>
<path transform="matrix(1.00006,0,0,-1.00005,103.34911,113.919048)" stroke-width=".3985" stroke-linecap="butt" stroke-miterlimit="10" stroke-linejoin="miter" fill="none" stroke="#000000" d="M1.70091-85.04128H-1.70065"/>
<path transform="matrix(1.00006,0,0,-1.00005,103.34911,113.919048)" d="M-18.61523-89.66289H-3.8924504V-80.419658H-18.61523Z" fill="#ffffff"/>
<use data-text="&#x2212;" xlink:href="#font_2_1" transform="matrix(9.963197,0,0,-9.963098,85.72906,201.75943)"/>
<use data-text="5" xlink:href="#font_3_4" transform="matrix(9.963197,0,0,-9.963098,93.47852,201.76044)"/>
<path transform="matrix(1.00006,0,0,-1.00005,103.34911,113.919048)" stroke-width=".3985" stroke-linecap="butt" stroke-miterlimit="10" stroke-linejoin="miter" fill="none" stroke="#000000" d="M-85.04128 1.70091V-1.70065"/>
<path transform="matrix(1.00006,0,0,-1.00005,103.34911,113.919048)" d="M-92.40266-13.13568H-77.67988V-3.8924504H-92.40266Z" fill="#ffffff"/>
<use data-text="&#x2212;" xlink:href="#font_2_1" transform="matrix(9.963197,0,0,-9.963098,11.937637,125.22861)"/>
<use data-text="5" xlink:href="#font_3_4" transform="matrix(9.963197,0,0,-9.963098,19.687104,125.22961)"/>
<path transform="matrix(1.00006,0,0,-1.00005,103.34911,113.919048)" stroke-width=".3985" stroke-linecap="butt" stroke-miterlimit="10" stroke-linejoin="miter" fill="none" stroke="#000000" d="M1.70091 85.04128H-1.70065"/>
<path transform="matrix(1.00006,0,0,-1.00005,103.34911,113.919048)" d="M-10.8664 80.83478H-3.8924599V89.24776H-10.8664Z" fill="#ffffff"/>
<use data-text="5" xlink:href="#font_3_4" transform="matrix(9.963197,0,0,-9.963098,93.47852,32.083955)"/>
<path transform="matrix(1.00006,0,0,-1.00005,103.34911,113.919048)" stroke-width=".3985" stroke-linecap="butt" stroke-miterlimit="10" stroke-linejoin="miter" fill="none" stroke="#000000" d="M85.04128 1.70091V-1.70065"/>
<path transform="matrix(1.00006,0,0,-1.00005,103.34911,113.919048)" d="M81.5543-12.30545H88.52824V-3.8924704H81.5543Z" fill="#ffffff"/>
<use data-text="5" xlink:href="#font_3_4" transform="matrix(9.963197,0,0,-9.963098,185.90506,125.22861)"/>
<path transform="matrix(1.00006,0,0,-1.00005,103.34911,113.919048)" stroke-width=".3985" stroke-linecap="butt" stroke-dasharray="2.98883,2.98883" stroke-miterlimit="10" stroke-linejoin="miter" fill="none" stroke="#515151" d="M-68.03302 102.04953 68.03302-102.04953"/>
<path transform="matrix(1.00006,0,0,-1.00005,103.34911,113.919048)" stroke-width=".3985" stroke-linecap="butt" stroke-dasharray="2.98883,2.98883" stroke-miterlimit="10" stroke-linejoin="miter" fill="none" stroke="#515151" d="M68.03302 102.04953-68.03302-102.04953"/>
<path transform="matrix(1.00006,0,0,-1.00005,103.34911,113.919048)" stroke-width="1.19553" stroke-linecap="butt" stroke-miterlimit="10" stroke-linejoin="miter" fill="none" stroke="#ff0000" d="M-60.05722 103.53607C-59.08727 102.26979-59.08727 102.26979-58.29718 101.24605-57.50708 100.22229-56.2638 98.61916-55.50157 97.64435-54.73933 96.66954-53.53883 95.14746-52.80354 94.22017-52.06825 93.29288-50.91202 91.84254-50.20206 90.96106-49.49211 90.07956-48.3725 88.7044-47.68674 87.86699-47.00099 87.02957-45.92236 85.7206-45.25966 84.92552-44.59695 84.13046-43.55151 82.89015-42.91043 82.13666-42.26935 81.38318-41.25957 80.20837-40.63908 79.49495-40.01857 78.78156-39.03934 77.66989-38.4383 76.99496-37.83723 76.32002-36.8894 75.26808-36.30705 74.63042-35.72473 73.99274-34.80637 73.00027-34.24124 72.39902-33.67613 71.79774-32.78271 70.86281-32.23407 70.29686-31.68544 69.73091-30.82019 68.85197-30.28712 68.32005-29.75404 67.78813-28.91087 66.96158-28.39206 66.46315-27.87326 65.96472-27.05307 65.19383-26.54788 64.72769-26.04266 64.26157-25.24338 63.5385-24.75093 63.10359-24.25847 62.66867-23.47931 61.99695-22.99861 61.59315-22.5179 61.18936-21.75616 60.56671-21.28625 60.19327-20.81635 59.81982-20.07162 59.24579-19.61179 58.90163-19.15196 58.55745-18.42252 58.0286-17.97212 57.71274-17.52173 57.39687-16.80748 56.9125-16.36565 56.62505-15.92384 56.3376-15.22185 55.90051-14.78775 55.64093-14.35362 55.38135-13.66417 54.9865-13.23682 54.75414-12.80946 54.52177-12.12892 54.17178-11.70769 53.96623-11.28647 53.76065-10.6167 53.45161-10.20088 53.2725-9.78506 53.0934-9.1219 52.8283-8.7107 52.67534-8.29947 52.52237-7.64429 52.29706-7.2371 52.17003-6.82993 52.04301-6.18007 51.86095-5.77599 51.75974-5.3719 51.65852-4.72614 51.51656-4.3247 51.44052-3.9233 51.36447-3.28242 51.26227-2.88278 51.21161-2.48317 51.16096-1.84317 51.10052-1.4445 51.07538-1.0458 51.0502-.40657 51.03062-.00932 51.03021 .3879 51.02979 1.02094 51.0476 1.41855 51.07224 1.81616 51.09686 2.45685 51.15727 2.85631 51.20772 3.25578 51.25816 3.89645 51.36012 4.29773 51.43585 4.699 51.51158 5.3446 51.65262 5.74847 51.7535 6.15234 51.8544 6.80138 52.03654 7.20856 52.16302 7.61574 52.28952 8.27197 52.513 8.68318 52.6652 9.09439 52.81743 9.75673 53.08138 10.17233 53.26004 10.58794 53.43872 11.25761 53.74774 11.67862 53.95299 12.09964 54.15823 12.77937 54.50764 13.20671 54.73935 13.63406 54.97105 14.32455 55.36409 14.75867 55.62303 15.1928 55.88196 15.89372 56.31888 16.33556 56.60559 16.77739 56.89229 17.49272 57.37437 17.94305 57.68938 18.39337 58.00438 19.12192 58.53186 19.58118 58.87592 20.04042 59.21999 20.78363 59.7957 21.25304 60.16913 21.72244 60.54259 22.48372 61.16441 22.96434 61.56746 23.44499 61.97049 24.22482 62.63995 24.71718 63.074 25.20955 63.50806 26.00812 64.23009 26.51309 64.69579 27.01808 65.16148 27.83841 65.93257 28.35677 66.43045 28.87514 66.92833 29.71631 67.75319 30.24922 68.28424 30.78215 68.81529 31.64934 69.69241 32.19775 70.25792 32.74615 70.82344 33.63696 71.75935 34.2018 72.36009 34.76663 72.96082 35.68654 73.95088 36.26866 74.58759 36.85077 75.22429 37.79675 76.27473 38.3973 76.94902 38.99783 77.6233 39.97682 78.7346 40.59703 79.44746 41.21724 80.16031 42.2267 81.3341 42.86736 82.08682 43.50801 82.83955 44.55223 84.07881 45.2145 84.87257 45.87677 85.66635 46.95538 86.97127 47.64055 87.80782 48.32571 88.64436 49.44324 90.02103 50.15274 90.90189 50.86226 91.78271 52.01917 93.23 52.75423 94.15633 53.4893 95.08266 54.68906 96.6042 55.45071 97.57816 56.21236 98.55212 57.45427 100.1532 58.24371 101.17596 59.03317 102.19876 61.14053 104.94974 60.00159 103.46295"/>
<path transform="matrix(-.60808649,-.7938796,-.7938876,.6080804,43.288293,10.3778)" d="M1.27522 0C-.31879 .31879-1.91284 .9564-3.8257 2.07224-1.91284 .6376-1.91284-.6376-3.8257-2.07224-1.91284-.9564-.31879-.31879 1.27522 0Z" fill="#ff0000"/>
<path transform="matrix(-.60808649,-.7938796,-.7938876,.6080804,43.288293,10.3778)" stroke-width="1.19553" stroke-linecap="butt" stroke-linejoin="round" fill="none" stroke="#ff0000" d="M1.27522 0C-.31879 .31879-1.91284 .9564-3.8257 2.07224-1.91284 .6376-1.91284-.6376-3.8257-2.07224-1.91284-.9564-.31879-.31879 1.27522 0Z"/>
<path transform="matrix(.6081365,-.79384967,-.79385766,-.6081304,163.35431,10.450943)" d="M1.27522 0C-.31879 .31879-1.91284 .9564-3.8257 2.07224-1.91284 .6376-1.91284-.6376-3.8257-2.07224-1.91284-.9564-.31879-.31879 1.27522 0Z" fill="#ff0000"/>
<path transform="matrix(.6081365,-.79384967,-.79385766,-.6081304,163.35431,10.450943)" stroke-width="1.19553" stroke-linecap="butt" stroke-linejoin="round" fill="none" stroke="#ff0000" d="M1.27522 0C-.31879 .31879-1.91284 .9564-3.8257 2.07224-1.91284 .6376-1.91284-.6376-3.8257-2.07224-1.91284-.9564-.31879-.31879 1.27522 0Z"/>
<path transform="matrix(1.00006,0,0,-1.00005,103.34911,113.919048)" stroke-width="1.19553" stroke-linecap="butt" stroke-miterlimit="10" stroke-linejoin="miter" fill="none" stroke="#ff0000" d="M-60.05722-103.53607C-59.08727-102.26979-59.08727-102.26979-58.29718-101.24605-57.50708-100.22229-56.2638-98.61916-55.50157-97.64435-54.73933-96.66954-53.53883-95.14746-52.80354-94.22017-52.06825-93.29288-50.91202-91.84254-50.20206-90.96106-49.49211-90.07956-48.3725-88.7044-47.68674-87.86699-47.00099-87.02957-45.92236-85.7206-45.25966-84.92552-44.59695-84.13046-43.55151-82.89015-42.91043-82.13666-42.26935-81.38318-41.25957-80.20837-40.63908-79.49495-40.01857-78.78156-39.03934-77.66989-38.4383-76.99496-37.83723-76.32002-36.8894-75.26808-36.30705-74.63042-35.72473-73.99274-34.80637-73.00027-34.24124-72.39902-33.67613-71.79774-32.78271-70.86281-32.23407-70.29686-31.68544-69.73091-30.82019-68.85197-30.28712-68.32005-29.75404-67.78813-28.91087-66.96158-28.39206-66.46315-27.87326-65.96472-27.05307-65.19383-26.54788-64.72769-26.04266-64.26157-25.24338-63.5385-24.75093-63.10359-24.25847-62.66867-23.47931-61.99695-22.99861-61.59315-22.5179-61.18936-21.75616-60.56671-21.28625-60.19327-20.81635-59.81982-20.07162-59.24579-19.61179-58.90163-19.15196-58.55745-18.42252-58.0286-17.97212-57.71274-17.52173-57.39687-16.80748-56.9125-16.36565-56.62505-15.92384-56.3376-15.22185-55.90051-14.78775-55.64093-14.35362-55.38135-13.66417-54.9865-13.23682-54.75414-12.80946-54.52177-12.12892-54.17178-11.70769-53.96623-11.28647-53.76065-10.6167-53.45161-10.20088-53.2725-9.78506-53.0934-9.1219-52.8283-8.7107-52.67534-8.29947-52.52237-7.64429-52.29706-7.2371-52.17003-6.82993-52.04301-6.18007-51.86095-5.77599-51.75974-5.3719-51.65852-4.72614-51.51656-4.3247-51.44052-3.9233-51.36447-3.28242-51.26227-2.88278-51.21161-2.48317-51.16096-1.84317-51.10052-1.4445-51.07538-1.0458-51.0502-.40657-51.03062-.00932-51.03021 .3879-51.02979 1.02094-51.0476 1.41855-51.07224 1.81616-51.09686 2.45685-51.15727 2.85631-51.20772 3.25578-51.25816 3.89645-51.36012 4.29773-51.43585 4.699-51.51158 5.3446-51.65262 5.74847-51.7535 6.15234-51.8544 6.80138-52.03654 7.20856-52.16302 7.61574-52.28952 8.27197-52.513 8.68318-52.6652 9.09439-52.81743 9.75673-53.08138 10.17233-53.26004 10.58794-53.43872 11.25761-53.74774 11.67862-53.95299 12.09964-54.15823 12.77937-54.50764 13.20671-54.73935 13.63406-54.97105 14.32455-55.36409 14.75867-55.62303 15.1928-55.88196 15.89372-56.31888 16.33556-56.60559 16.77739-56.89229 17.49272-57.37437 17.94305-57.68938 18.39337-58.00438 19.12192-58.53186 19.58118-58.87592 20.04042-59.21999 20.78363-59.7957 21.25304-60.16913 21.72244-60.54259 22.48372-61.16441 22.96434-61.56746 23.44499-61.97049 24.22482-62.63995 24.71718-63.074 25.20955-63.50806 26.00812-64.23009 26.51309-64.69579 27.01808-65.16148 27.83841-65.93257 28.35677-66.43045 28.87514-66.92833 29.71631-67.75319 30.24922-68.28424 30.78215-68.81529 31.64934-69.69241 32.19775-70.25792 32.74615-70.82344 33.63696-71.75935 34.2018-72.36009 34.76663-72.96082 35.68654-73.95088 36.26866-74.58759 36.85077-75.22429 37.79675-76.27473 38.3973-76.94902 38.99783-77.6233 39.97682-78.7346 40.59703-79.44746 41.21724-80.16031 42.2267-81.3341 42.86736-82.08682 43.50801-82.83955 44.55223-84.07881 45.2145-84.87257 45.87677-85.66635 46.95538-86.97127 47.64055-87.80782 48.32571-88.64436 49.44324-90.02103 50.15274-90.90189 50.86226-91.78271 52.01917-93.23 52.75423-94.15633 53.4893-95.08266 54.68906-96.6042 55.45071-97.57816 56.21236-98.55212 57.45427-100.1532 58.24371-101.17596 59.03317-102.19876 61.14053-104.94974 60.00159-103.46295"/>
<path transform="matrix(-.60808649,.7938796,.7938876,.6080804,43.288293,217.4603)" d="M1.27522 0C-.31879 .31879-1.91284 .9564-3.8257 2.07224-1.91284 .6376-1.91284-.6376-3.8257-2.07224-1.91284-.9564-.31879-.31879 1.27522 0Z" fill="#ff0000"/>
<path transform="matrix(-.60808649,.7938796,.7938876,.6080804,43.288293,217.4603)" stroke-width="1.19553" stroke-linecap="butt" stroke-linejoin="round" fill="none" stroke="#ff0000" d="M1.27522 0C-.31879 .31879-1.91284 .9564-3.8257 2.07224-1.91284 .6376-1.91284-.6376-3.8257-2.07224-1.91284-.9564-.31879-.31879 1.27522 0Z"/>
<path transform="matrix(.6081365,.79384967,.79385766,-.6081304,163.35431,217.38715)" d="M1.27522 0C-.31879 .31879-1.91284 .9564-3.8257 2.07224-1.91284 .6376-1.91284-.6376-3.8257-2.07224-1.91284-.9564-.31879-.31879 1.27522 0Z" fill="#ff0000"/>
<path transform="matrix(.6081365,.79384967,.79385766,-.6081304,163.35431,217.38715)" stroke-width="1.19553" stroke-linecap="butt" stroke-linejoin="round" fill="none" stroke="#ff0000" d="M1.27522 0C-.31879 .31879-1.91284 .9564-3.8257 2.07224-1.91284 .6376-1.91284-.6376-3.8257-2.07224-1.91284-.9564-.31879-.31879 1.27522 0Z"/>
<path transform="matrix(1.00006,0,0,-1.00005,103.34911,113.919048)" stroke-width=".3985" stroke-linecap="butt" stroke-miterlimit="10" stroke-linejoin="miter" fill="none" stroke="#0000ff" d="M0 0C-2.39108 1.19548-3.9851 3.9851-3.9851 7.97021V17.54216C-3.9851 21.52727-5.57912 24.3169-7.97021 25.51237-5.57912 26.70786-3.9851 29.49748-3.9851 33.48259V43.05455C-3.9851 47.03966-2.39108 49.82928 0 51.02477"/>
<use data-text="b" xlink:href="#font_1_2" transform="matrix(9.963197,0,0,-9.963098,32.545869,74.856098)"/>
<use data-text="=" xlink:href="#font_3_6" transform="matrix(9.963197,0,0,-9.963098,39.589296,74.85709)"/>
<use data-text="3" xlink:href="#font_3_2" transform="matrix(9.963197,0,0,-9.963098,50.0905,74.85709)"/>
<path transform="matrix(1.00006,0,0,-1.00005,103.34911,113.919048)" stroke-width=".3985" stroke-linecap="butt" stroke-miterlimit="10" stroke-linejoin="miter" fill="none" stroke="#0000ff" d="M-44.22156 40.8197C-29.47704 40.8197-23.5967 30.179-10.3169 26.62065"/>
<path transform="matrix(.9659879,.25880293,.2588055,-.9659782,93.03159,87.29704)" d="M.797 0C-.19925 .19925-1.19551 .59775-2.39102 1.29512-1.19551 .3985-1.19551-.3985-2.39102-1.29512-1.19551-.59775-.19925-.19925 .797 0Z" fill="#0000ff"/>
<path transform="matrix(.9659879,.25880293,.2588055,-.9659782,93.03159,87.29704)" stroke-width=".3985" stroke-linecap="butt" stroke-linejoin="round" fill="none" stroke="#0000ff" d="M.797 0C-.19925 .19925-1.19551 .59775-2.39102 1.29512-1.19551 .3985-1.19551-.3985-2.39102-1.29512-1.19551-.59775-.19925-.19925 .797 0Z"/>
<path transform="matrix(1.00006,0,0,-1.00005,103.34911,113.919048)" stroke-width=".3985" stroke-linecap="butt" stroke-miterlimit="10" stroke-linejoin="miter" fill="none" stroke="#00cc00" d="M34.0165 0C32.82101-2.39108 30.03139-3.9851 26.04628-3.9851H24.97847C20.99336-3.9851 18.20374-5.57912 17.00826-7.97021 15.81277-5.57912 13.02315-3.9851 9.03804-3.9851H7.97021C3.9851-3.9851 1.19548-2.39108 0 0"/>
<use data-text="a" xlink:href="#font_1_1" transform="matrix(9.963197,0,0,-9.963098,154.51718,149.44683)"/>
<use data-text="=" xlink:href="#font_3_6" transform="matrix(9.963197,0,0,-9.963098,162.55167,149.44782)"/>
<use data-text="2" xlink:href="#font_3_1" transform="matrix(9.963197,0,0,-9.963098,173.05287,149.44782)"/>
<path transform="matrix(1.00006,0,0,-1.00005,103.34911,113.919048)" stroke-width=".3985" stroke-linecap="butt" stroke-miterlimit="10" stroke-linejoin="miter" fill="none" stroke="#00cc00" d="M44.22156-30.6149C31.24173-28.32626 24.27931-20.44922 19.13019-9.40703"/>
<path transform="matrix(-.42262534,-.90634527,-.90635439,.4226211,122.48046,123.326549)" d="M.797 0C-.19925 .19925-1.19551 .59775-2.39102 1.29512-1.19551 .3985-1.19551-.3985-2.39102-1.29512-1.19551-.59775-.19925-.19925 .797 0Z" fill="#00cc00"/>
<path transform="matrix(-.42262534,-.90634527,-.90635439,.4226211,122.48046,123.326549)" stroke-width=".3985" stroke-linecap="butt" stroke-linejoin="round" fill="none" stroke="#00cc00" d="M.797 0C-.19925 .19925-1.19551 .59775-2.39102 1.29512-1.19551 .3985-1.19551-.3985-2.39102-1.29512-1.19551-.59775-.19925-.19925 .797 0Z"/>
<use data-text="y" xlink:href="#font_1_4" transform="matrix(9.963197,0,0,-9.963098,148.0508,79.99135)"/>
<use data-text="2" xlink:href="#font_4_1" transform="matrix(6.9742186,0,0,-6.9741489,153.29312,76.37617)"/>
<path transform="matrix(1.00006,0,0,-1.00005,-38.49939,-14.553377)" stroke-width=".5738" stroke-linecap="butt" stroke-miterlimit="10" stroke-linejoin="miter" fill="none" stroke="#000000" d="M186.539-97.338H196.25"/>
<use data-text="9" xlink:href="#font_3_5" transform="matrix(9.963197,0,0,-9.963098,150.41594,91.32391)"/>
<use data-text="&#x2212;" xlink:href="#font_2_1" transform="matrix(14.34706,0,0,-14.346916,162.14664,86.37667)"/>
<use data-text="x" xlink:href="#font_1_3" transform="matrix(9.963197,0,0,-9.963098,177.68859,80.72739)"/>
<use data-text="2" xlink:href="#font_4_1" transform="matrix(6.9742186,0,0,-6.9741489,183.38292,77.112209)"/>
<path transform="matrix(1.00006,0,0,-1.00005,-38.49939,-14.553377)" stroke-width=".5738" stroke-linecap="butt" stroke-miterlimit="10" stroke-linejoin="miter" fill="none" stroke="#000000" d="M216.175-97.338H226.339"/>
<use data-text="4" xlink:href="#font_3_3" transform="matrix(9.963197,0,0,-9.963098,180.27974,91.32391)"/>
<use data-text="=" xlink:href="#font_5_1" transform="matrix(14.34706,0,0,-14.346916,193.03351,86.37667)"/>
<use data-text="1" xlink:href="#font_6_82" transform="matrix(9.963197,0,0,-9.963098,207.94539,86.37567)"/>
</svg>
