<svg xmlns="http://www.w3.org/2000/svg" xmlns:xlink="http://www.w3.org/1999/xlink" version="1.1" width="226" height="263" viewBox="0 0 226 263">
<defs>
<path id="font_1_4" d="M.33399964 .30233766C.33999635 .32835389 .36299134 .42037965 .43299867 .42037965 .43798829 .42037965 .46199037 .42037965 .48298646 .40734864 .45498658 .402359 .43499757 .37734986 .43499757 .35334779 .43499757 .33735658 .44599916 .31835938 .47299195 .31835938 .49499513 .31835938 .5269928 .3363495 .5269928 .37635804 .5269928 .42837525 .46798707 .4423828 .43399049 .4423828 .37599183 .4423828 .34098817 .38935853 .32899476 .36634828 .3039856 .43237306 .25 .4423828 .22099304 .4423828 .116989139 .4423828 .05999756 .3133545 .05999756 .28834535 .05999756 .27833558 .069992069 .27833558 .07199097 .27833558 .07998657 .27833558 .08299255 .28033448 .084991458 .28933717 .11898804 .39535523 .18499756 .42037965 .21899414 .42037965 .23799134 .42037965 .272995 .4113617 .272995 .35334779 .272995 .32235719 .2559967 .25532533 .21899414 .11528015 .20298767 .053268434 .16799927 .011245728 .12399292 .011245728 .117996219 .011245728 .09498596 .011245728 .07398987 .024276734 .09899902 .029266358 .12098694 .05027771 .12098694 .07827759 .12098694 .105270389 .09899902 .11328125 .083999637 .11328125 .053985597 .11328125 .0289917 .08728027 .0289917 .055267335 .0289917 .009246826 .07899475-.0107421879 .12298584-.0107421879 .18899536-.0107421879 .22499085 .059280397 .22799683 .0652771 .23999024 .028274537 .27598573-.0107421879 .33599855-.0107421879 .43899537-.0107421879 .49598695 .118270877 .49598695 .14328003 .49598695 .1532898 .4869995 .1532898 .48399354 .1532898 .47499085 .1532898 .47299195 .14929199 .47099305 .14228821 .43798829 .03527832 .36999513 .011245728 .33799745 .011245728 .29899598 .011245728 .2829895 .043273927 .2829895 .07727051 .2829895 .09927368 .2889862 .121276859 .2999878 .16529846L.33399964 .30233766Z"/>
<path id="font_1_5" d="M.48599244 .38136292C.48999024 .39537049 .48999024 .39736939 .48999024 .40437318 .48999024 .42237855 .47599793 .43138124 .46099855 .43138124 .45098878 .43138124 .43499757 .42536927 .42599488 .41036988 .42399598 .405365 .41600038 .37435914 .4119873 .35635377 .40499879 .33035279 .397995 .30334474 .3919983 .27633668L.34700013 .09628296C.34298707 .08126831 .2999878 .011245728 .23399353 .011245728 .18299866 .011245728 .17199707 .055267335 .17199707 .0922699 .17199707 .1382904 .18899536 .20030213 .22299195 .28833009 .23899842 .3293457 .24299622 .3403473 .24299622 .36035157 .24299622 .405365 .21099854 .4423828 .16099549 .4423828 .06599426 .4423828 .0289917 .29733277 .0289917 .28833009 .0289917 .27833558 .038986207 .27833558 .040985109 .27833558 .050994874 .27833558 .051986696 .28033448 .056991579 .29634095 .083999637 .3903656 .12399292 .42037965 .1579895 .42037965 .1659851 .42037965 .18299866 .42037965 .18299866 .3883667 .18299866 .36335755 .17298889 .3373413 .1659851 .31834413 .12599182 .21231079 .10798645 .1552887 .10798645 .10827637 .10798645 .019256592 .17098999-.0107421879 .22999573-.0107421879 .2689972-.0107421879 .30299378 .0062561037 .33099366 .03425598 .31799317-.017745972 .30599977-.06674194 .2659912-.11973572 .23999024-.15385437 .20199585-.18309021 .1559906-.18309021 .14199829-.18309021 .09700012-.18005371 .07998657-.14074707 .09599304-.14074707 .10899353-.14074707 .12298584-.1287384 .1329956-.11973572 .14299011-.10673523 .14299011-.08773804 .14299011-.056747438 .115997318-.052734376 .10598755-.052734376 .08299255-.052734376 .049987794-.068740848 .049987794-.11773682 .049987794-.16796875 .09399414-.20507813 .1559906-.20507813 .25898744-.20507813 .3619995-.11373901 .3899994-.00074768069L.48599244 .38136292Z"/>
<path id="font_2_1" d="M.6589966 .23046875C.6759949 .23046875 .69400027 .23046875 .69400027 .25045777 .69400027 .27046205 .6759949 .27046205 .6589966 .27046205H.117996219C.100997928 .27046205 .08299255 .27046205 .08299255 .25045777 .08299255 .23046875 .100997928 .23046875 .117996219 .23046875H.6589966Z"/>
<path id="font_3_6" d="M.44898988 .20022583C.44898988 .3193512 .36698915 .41944886 .25898744 .41944886 .21099854 .41944886 .16799927 .40345765 .13198853 .36842347V.5637665C.1519928 .5577698 .18499756 .55078127 .21699524 .55078127 .33999635 .55078127 .4099884 .6417694 .4099884 .6547699 .4099884 .6607666 .40699769 .6657715 .3999939 .6657715 .39898683 .6657715 .39698792 .6657715 .3919983 .66278079 .37199403 .6537781 .32299806 .6337738 .2559967 .6337738 .21598816 .6337738 .16999817 .6407776 .12298584 .6617737 .114990238 .66477969 .11299133 .66477969 .11099243 .66477969 .100997928 .66477969 .100997928 .6567688 .100997928 .6407776V.34439088C.100997928 .32637025 .100997928 .31835938 .114990238 .31835938 .12199402 .31835938 .12399292 .32136537 .12799073 .32736207 .13899231 .3433838 .17599488 .39746095 .25698854 .39746095 .30899049 .39746095 .33399964 .35139466 .34199525 .33337403 .35798646 .29632569 .3600006 .25727845 .3600006 .20722962 .3600006 .17222595 .3600006 .11222839 .33599855 .07035828 .31199647 .031463624 .2749939 .0055389406 .22898865 .0055389406 .1559906 .0055389406 .09899902 .058380128 .08198547 .11723328 .084991458 .1162262 .08799744 .115234378 .09899902 .115234378 .13198853 .115234378 .14898682 .14022827 .14898682 .16423035 .14898682 .18823242 .13198853 .21322632 .09899902 .21322632 .084991458 .21322632 .049987794 .20622254 .049987794 .16023255 .049987794 .07434082 .11898804-.022460938 .23098755-.022460938 .34700013-.022460938 .44898988 .073349 .44898988 .20022583Z"/>
<path id="font_3_1" d="M.33099366-.2400055C.33099366-.23701477 .33099366-.23500061 .31399537-.21800232 .18899536-.0920105 .15699768 .09700012 .15699768 .25 .15699768 .42399598 .19499207 .59799197 .31799317 .72299197 .33099366 .73498538 .33099366 .7369995 .33099366 .73999026 .33099366 .746994 .32699586 .75 .32099916 .75 .31098939 .75 .22099304 .6819916 .1619873 .5549927 .11099243 .44499208 .09899902 .33399964 .09899902 .25 .09899902 .17199707 .10998535 .050994874 .16499329-.06201172 .22499085-.18501282 .31098939-.25 .32099916-.25 .32699586-.25 .33099366-.24700928 .33099366-.2400055Z"/>
<path id="font_3_3" d="M.2939911 .64004519C.2939911 .66400149 .2939911 .6660156 .2709961 .6660156 .20899964 .60227969 .12098694 .60227969 .08898926 .60227969V.57128909C.10899353 .57128909 .16799927 .57128909 .21998596 .5972748V.07902527C.21998596 .042999269 .21699524 .0309906 .1269989 .0309906H.09498596V0C.12998963 .0029907227 .21699524 .0029907227 .25698854 .0029907227 .29699708 .0029907227 .38398744 .0029907227 .4189911 0V.0309906H.3869934C.29699708 .0309906 .2939911 .041992189 .2939911 .07902527V.64004519Z"/>
<path id="font_1_1" d="M.20298767 .0009918213C.20298767 .066986087 .17799378 .10598755 .13899231 .10598755 .10598755 .10598755 .085998538 .08099365 .085998538 .052993776 .085998538 .025985718 .10598755 0 .13899231 0 .15098572 0 .1639862 .0039978029 .17399597 .0129852299 .1769867 .01499939 .17799378 .015991211 .1789856 .015991211 .17999268 .015991211 .18099976 .01499939 .18099976 .0009918213 .18099976-.07316589 .1459961-.13328552 .11299133-.16635132 .101989749-.17736817 .101989749-.17936707 .101989749-.18237305 .101989749-.18936157 .10699463-.19335938 .11199951-.19335938 .12298584-.19335938 .20298767-.116256717 .20298767 .0009918213Z"/>
<path id="font_3_4" d="M.1269989 .07699585 .23298645 .18003845C.3889923 .31811524 .44898988 .3721466 .44898988 .47216798 .44898988 .5860901 .35899354 .6660156 .23699951 .6660156 .12399292 .6660156 .049987794 .57411196 .049987794 .48516847 .049987794 .4291687 .099990848 .4291687 .102996829 .4291687 .11999512 .4291687 .15499878 .44117738 .15499878 .48217774 .15499878 .5081787 .13699341 .5341797 .101989749 .5341797 .09399414 .5341797 .09199524 .5341797 .08898926 .5331726 .11199951 .59806826 .1659851 .63500979 .22399903 .63500979 .31498719 .63500979 .35798646 .5541382 .35798646 .47216798 .35798646 .39215089 .30799867 .31311036 .25299073 .25108338L.06098938 .036987306C.049987794 .025985718 .049987794 .023986817 .049987794 0H.42099L.44898988 .17404175H.42399598C.4189911 .14402771 .4119873 .1000061 .4019928 .084991458 .394989 .07699585 .32899476 .07699585 .30699159 .07699585H.1269989Z"/>
<path id="font_3_2" d="M.2889862 .25C.2889862 .32798768 .27799989 .44898988 .22299195 .56199648 .16299439 .68499758 .07699585 .75 .066986087 .75 .06098938 .75 .056991579 .74598696 .056991579 .73999026 .056991579 .7369995 .056991579 .73498538 .07598877 .71699526 .17399597 .6179962 .23098755 .45899964 .23098755 .25 .23098755 .07899475 .19400025-.09700012 .069992069-.2230072 .056991579-.23500061 .056991579-.23701477 .056991579-.2400055 .056991579-.2460022 .06098938-.25 .066986087-.25 .07699585-.25 .16699219-.18200684 .22599793-.055007936 .2769928 .054992677 .2889862 .16600037 .2889862 .25Z"/>
<path id="font_1_3" d="M.23899842 .68333438C.23899842 .6843262 .23899842 .69433596 .22599793 .69433596 .20298767 .69433596 .12998963 .6863251 .10398865 .6843262 .09599304 .68333438 .084991458 .6823273 .084991458 .6643219 .084991458 .6523285 .09399414 .6523285 .10899353 .6523285 .15699768 .6523285 .15899658 .6453247 .15899658 .6353302 .15899658 .6283264 .1499939 .5943451 .14498902 .573349L.06298828 .24731446C.050994874 .1973114 .04699707 .18130493 .04699707 .14628601 .04699707 .05126953 .099990848-.0107421879 .17399597-.0107421879 .2919922-.0107421879 .4149933 .1382904 .4149933 .28233338 .4149933 .37335206 .3619995 .4423828 .28199769 .4423828 .23599243 .4423828 .19499207 .41337586 .16499329 .38235475L.23899842 .68333438M.14498902 .30534364C.15098572 .3273468 .15098572 .3293457 .1599884 .3403473 .20899964 .405365 .2539978 .42037965 .27999879 .42037965 .31599427 .42037965 .34298707 .3903656 .34298707 .32633973 .34298707 .26733399 .30999757 .15229798 .2919922 .11428833 .25898744 .04725647 .21299744 .011245728 .17399597 .011245728 .13999939 .011245728 .10699463 .038253786 .10699463 .11227417 .10699463 .13128662 .10699463 .15029907 .12298584 .21331787L.14498902 .30534364Z"/>
<path id="font_3_7" d="M.68699648 .32714845C.70199587 .32714845 .72099307 .32714845 .72099307 .34713746 .72099307 .36714173 .70199587 .36714173 .6879883 .36714173H.08898926C.07499695 .36714173 .055999757 .36714173 .055999757 .34713746 .055999757 .32714845 .07499695 .32714845 .08999634 .32714845H.68699648M.6879883 .13284302C.70199587 .13284302 .72099307 .13284302 .72099307 .15284729 .72099307 .17285156 .70199587 .17285156 .68699648 .17285156H.08999634C.07499695 .17285156 .055999757 .17285156 .055999757 .15284729 .055999757 .13284302 .07499695 .13284302 .08898926 .13284302H.6879883Z"/>
<path id="font_3_5" d="M.2899933 .35191346C.37199403 .37893678 .42999269 .4490509 .42999269 .52809146 .42999269 .6100464 .34199525 .6660156 .24598694 .6660156 .14498902 .6660156 .068984989 .60606387 .068984989 .53009036 .068984989 .49710084 .09098816 .47808839 .11999512 .47808839 .15098572 .47808839 .17098999 .50009158 .17098999 .5290985 .17098999 .57910159 .12399292 .57910159 .10899353 .57910159 .13999939 .62802127 .20599365 .64100649 .24198914 .64100649 .2829895 .64100649 .33799745 .6190338 .33799745 .5290985 .33799745 .51708987 .33599855 .45906068 .30999757 .4149933 .27999879 .36691285 .24598694 .36390687 .22099304 .36291505 .21299744 .36190797 .18899536 .35990907 .18199158 .35990907 .17399597 .35890199 .16699219 .35791017 .16699219 .3479004 .16699219 .33691407 .17399597 .33691407 .19099427 .33691407H.23498535C.31698609 .33691407 .35398866 .2686615 .35398866 .17037964 .35398866 .034469606 .2849884 .0055389406 .24099732 .0055389406 .19799805 .0055389406 .12298584 .022491456 .08799744 .08137512 .12298584 .07637024 .1539917 .09837341 .1539917 .1363678 .1539917 .17237854 .1269989 .19238281 .09799194 .19238281 .07398987 .19238281 .041992189 .17837525 .041992189 .1343689 .041992189 .043441774 .1349945-.022460938 .24398804-.022460938 .3659973-.022460938 .45700074 .06838989 .45700074 .17037964 .45700074 .252594 .3939972 .33088685 .2899933 .35191346Z"/>
<path id="font_1_2" d="M.37298585 .37835694C.35499574 .41537477 .32598878 .4423828 .2809906 .4423828 .1639862 .4423828 .039993287 .29533387 .039993287 .14929199 .039993287 .055267335 .09498596-.0107421879 .17298889-.0107421879 .19299317-.0107421879 .24299622-.0067443849 .30299378 .06427002 .31098939 .022247315 .34599305-.0107421879 .3939972-.0107421879 .42900086-.0107421879 .45199586 .012252808 .46798707 .044265748 .4850006 .08027649 .49798585 .14129639 .49798585 .14329529 .49798585 .1532898 .4889984 .1532898 .48599244 .1532898 .47599793 .1532898 .47499085 .14929199 .47200013 .13528443 .45498658 .07026672 .43699647 .011245728 .3959961 .011245728 .36898805 .011245728 .3659973 .037261964 .3659973 .057266237 .3659973 .07926941 .36799623 .08728027 .3789978 .13128662 .3899994 .17329407 .3919983 .18330384 .40098573 .22131348L.43699647 .36135865C.44400025 .38935853 .44400025 .39135743 .44400025 .39537049 .44400025 .41236878 .43199159 .42237855 .4149933 .42237855 .3909912 .42237855 .37599183 .4003601 .37298585 .37835694M.30799867 .119277957C.30299378 .10127258 .30299378 .09927368 .28799439 .08227539 .24398804 .027252198 .20298767 .011245728 .1749878 .011245728 .125 .011245728 .11099243 .06626892 .11099243 .105285648 .11099243 .1552887 .14299011 .27833558 .1659851 .32434083 .19699097 .38336183 .24198914 .42037965 .28199769 .42037965 .34700013 .42037965 .36099244 .3383484 .36099244 .33235169 .36099244 .32633973 .35899354 .32034303 .35798646 .31533814L.30799867 .119277957Z"/>
<path id="font_4_2" d="M.272995 .33428956C.35099793 .33428956 .40699769 .2803192 .40699769 .1733551 .40699769 .04940796 .33499146 .012466431 .2769928 .012466431 .23699951 .012466431 .14898682 .0234375 .10699463 .082351688 .1539917 .084350589 .16499329 .11735535 .16499329 .13835144 .16499329 .17034912 .14099121 .19335938 .10998535 .19335938 .08198547 .19335938 .053985597 .17634583 .053985597 .13534546 .053985597 .041412355 .1579895-.01953125 .2789917-.01953125 .41799928-.01953125 .5139923 .07336426 .5139923 .1733551 .5139923 .2513275 .44999696 .32929994 .33999635 .35229493 .44499208 .39024354 .48298646 .4650879 .48298646 .5260773 .48298646 .60505679 .3919983 .6640625 .2809906 .6640625 .16999817 .6640625 .084991458 .61006167 .084991458 .5300751 .084991458 .49606324 .10699463 .47706605 .13699341 .47706605 .16799927 .47706605 .18798828 .5000763 .18798828 .5280762 .18798828 .5570679 .16799927 .57806399 .13699341 .5800781 .17199707 .62405398 .24099732 .63505557 .27799989 .63505557 .32299806 .63505557 .38598634 .6130676 .38598634 .5260773 .38598634 .48406983 .37199403 .43814088 .34599305 .4072113 .31298829 .36927796 .2849884 .3672943 .23498535 .36428834 .20999146 .3623047 .20799256 .3623047 .20298767 .3612976 .20098877 .3612976 .19299317 .3592987 .19299317 .34829713 .19299317 .33428956 .20199585 .33428956 .21899414 .33428956H.272995Z"/>
<path id="font_4_1" d="M.5049896 .18203736H.47099305C.46798707 .16001892 .45799256 .100997928 .44499208 .09098816 .43699647 .084991458 .3600006 .084991458 .34599305 .084991458H.1619873C.2669983 .17803955 .3019867 .20603943 .3619995 .25306703 .43598939 .312088 .5049896 .374115 .5049896 .46914674 .5049896 .5900879 .39898683 .6640625 .2709961 .6640625 .14698792 .6640625 .06298828 .57710269 .06298828 .4851532 .06298828 .43414308 .10598755 .42915345 .115997318 .42915345 .13999939 .42915345 .16899109 .44615174 .16899109 .48214723 .16899109 .5001526 .1619873 .53515627 .10998535 .53515627 .14099121 .6060791 .20899964 .62805178 .2559967 .62805178 .35598756 .62805178 .4079895 .5501404 .4079895 .46914674 .4079895 .38212586 .34599305 .3130951 .31399537 .27708436L.07299805 .038986207C.06298828 .02999878 .06298828 .027999878 .06298828 0H.47499085L.5049896 .18203736Z"/>
</defs>
<path transform="matrix(1.00003,0,0,-1.00005,103.34657,107.1157)" stroke-width=".3985" stroke-linecap="butt" stroke-miterlimit="10" stroke-linejoin="miter" fill="none" stroke="#00aeef" d="M-102.04953-153.07433H102.04953M-102.04953-136.06606H102.04953M-102.04953-119.0578H102.04953M-102.04953-102.04953H102.04953M-102.04953-85.04128H102.04953M-102.04953-68.03302H102.04953M-102.04953-51.02477H102.04953M-102.04953-34.0165H102.04953M-102.04953-17.00824H102.04953M-102.04953 0H102.04953M-102.04953 17.00824H102.04953M-102.04953 34.0165H102.04953M-102.04953 51.02477H102.04953M-102.04953 68.03302H102.04953M-102.04953 85.0353H102.04953M-102.04953-153.07433V85.04128M-85.04128-153.07433V85.04128M-68.03302-153.07433V85.04128M-51.02477-153.07433V85.04128M-34.0165-153.07433V85.04128M-17.00824-153.07433V85.04128M0-153.07433V85.04128M17.00824-153.07433V85.04128M34.0165-153.07433V85.04128M51.02477-153.07433V85.04128M68.03302-153.07433V85.04128M85.04128-153.07433V85.04128M102.04356-153.07433V85.04128M102.04953 85.04128"/>
<path transform="matrix(1.00003,0,0,-1.00005,103.34657,107.1157)" stroke-width=".79701" stroke-linecap="butt" stroke-miterlimit="10" stroke-linejoin="miter" fill="none" stroke="#000000" d="M-102.04953 0H110.81998"/>
<path transform="matrix(1.00003,0,0,-1.00005,214.16988,107.1157)" d="M1.0361 0C-.25902 .25902-1.55415 .77707-3.1083 1.68365-1.55415 .51805-1.55415-.51805-3.1083-1.68365-1.55415-.77707-.25902-.25902 1.0361 0Z"/>
<path transform="matrix(1.00003,0,0,-1.00005,214.16988,107.1157)" stroke-width=".79701" stroke-linecap="butt" stroke-linejoin="round" fill="none" stroke="#000000" d="M1.0361 0C-.25902 .25902-1.55415 .77707-3.1083 1.68365-1.55415 .51805-1.55415-.51805-3.1083-1.68365-1.55415-.77707-.25902-.25902 1.0361 0Z"/>
<use data-text="x" xlink:href="#font_1_4" transform="matrix(9.962899,0,0,-9.963098,219.32407,109.2608)"/>
<path transform="matrix(1.00003,0,0,-1.00005,103.34657,107.1157)" stroke-width=".79701" stroke-linecap="butt" stroke-miterlimit="10" stroke-linejoin="miter" fill="none" stroke="#000000" d="M0-153.07433V93.81172"/>
<path transform="matrix(0,-1.00005,-1.00003,-0,103.34657,13.2992939)" d="M1.0361 0C-.25902 .25902-1.55415 .77707-3.1083 1.68365-1.55415 .51805-1.55415-.51805-3.1083-1.68365-1.55415-.77707-.25902-.25902 1.0361 0Z"/>
<path transform="matrix(0,-1.00005,-1.00003,-0,103.34657,13.2992939)" stroke-width=".79701" stroke-linecap="butt" stroke-linejoin="round" fill="none" stroke="#000000" d="M1.0361 0C-.25902 .25902-1.55415 .77707-3.1083 1.68365-1.55415 .51805-1.55415-.51805-3.1083-1.68365-1.55415-.77707-.25902-.25902 1.0361 0Z"/>
<use data-text="y" xlink:href="#font_1_5" transform="matrix(9.962899,0,0,-9.963098,100.725498,6.207657)"/>
<path transform="matrix(1.00003,0,0,-1.00005,103.34657,107.1157)" stroke-width=".3985" stroke-linecap="butt" stroke-miterlimit="10" stroke-linejoin="miter" fill="none" stroke="#000000" d="M-85.04128 1.70091V-1.70065"/>
<path transform="matrix(1.00003,0,0,-1.00005,103.34657,107.1157)" d="M-92.40266-13.13568H-77.67988V-3.8924504H-92.40266Z" fill="#ffffff"/>
<use data-text="&#x2212;" xlink:href="#font_2_1" transform="matrix(9.962899,0,0,-9.963098,11.937836,118.42526)"/>
<use data-text="5" xlink:href="#font_3_6" transform="matrix(9.962899,0,0,-9.963098,19.687058,118.42526)"/>
<path transform="matrix(1.00003,0,0,-1.00005,103.34657,107.1157)" stroke-width=".3985" stroke-linecap="butt" stroke-miterlimit="10" stroke-linejoin="miter" fill="none" stroke="#000000" d="M85.04128 1.70091V-1.70065"/>
<path transform="matrix(1.00003,0,0,-1.00005,103.34657,107.1157)" d="M81.5543-12.30545H88.52824V-3.8924704H81.5543Z" fill="#ffffff"/>
<use data-text="5" xlink:href="#font_3_6" transform="matrix(9.962899,0,0,-9.963098,185.90006,118.42526)"/>
<path transform="matrix(1.00003,0,0,-1.00005,103.34657,107.1157)" stroke-width=".3985" stroke-linecap="butt" stroke-miterlimit="10" stroke-linejoin="miter" fill="none" stroke="#000000" d="M1.70091 85.04128H-1.70065"/>
<path transform="matrix(1.00003,0,0,-1.00005,103.34657,107.1157)" d="M-10.8664 80.83478H-3.8924599V89.24776H-10.8664Z" fill="#ffffff"/>
<use data-text="5" xlink:href="#font_3_6" transform="matrix(9.962899,0,0,-9.963098,93.47627,25.28061)"/>
<g>
<path transform="matrix(1.00003,0,0,-1.00005,103.34657,107.1157)" d="M-42.52063-85.04128V17.00824H8.50412V-85.04128ZM8.50412 17.00824" fill="#42c8f4" fill-opacity=".3"/>
<path transform="matrix(1.00003,0,0,-1.00005,103.34657,107.1157)" stroke-width=".3985" stroke-linecap="butt" stroke-miterlimit="10" stroke-linejoin="miter" fill="none" stroke="#000000" stroke-opacity=".3" d="M-42.52063-85.04128V17.00824H8.50412V-85.04128ZM8.50412 17.00824"/>
</g>
<path transform="matrix(1.00003,0,0,-1.00005,103.34657,107.1157)" stroke-width=".3985" stroke-linecap="butt" stroke-dasharray="2.98883,2.98883" stroke-miterlimit="10" stroke-linejoin="miter" fill="none" stroke="#929292" d="M-76.53716-153.07433 42.52063 85.04128"/>
<path transform="matrix(1.00003,0,0,-1.00005,103.34657,107.1157)" stroke-width=".3985" stroke-linecap="butt" stroke-dasharray="2.98883,2.98883" stroke-miterlimit="10" stroke-linejoin="miter" fill="none" stroke="#929292" d="M-76.53716 85.04128 42.52063-153.07433"/>
<path transform="matrix(1.00003,0,0,-1.00005,103.34657,107.1157)" d="M-14.45712-34.0165C-14.45712-32.60756-15.59929-31.46538-17.00824-31.46538-18.41719-31.46538-19.55936-32.60756-19.55936-34.0165-19.55936-35.42545-18.41719-36.56763-17.00824-36.56763-15.59929-36.56763-14.45712-35.42545-14.45712-34.0165ZM-17.00824-34.0165"/>
<path transform="matrix(1.00003,0,0,-1.00005,103.34657,107.1157)" stroke-width=".3985" stroke-linecap="butt" stroke-miterlimit="10" stroke-linejoin="miter" fill="none" stroke="#000000" d="M-14.45712-34.0165C-14.45712-32.60756-15.59929-31.46538-17.00824-31.46538-18.41719-31.46538-19.55936-32.60756-19.55936-34.0165-19.55936-35.42545-18.41719-36.56763-17.00824-36.56763-15.59929-36.56763-14.45712-35.42545-14.45712-34.0165ZM-17.00824-34.0165"/>
<path transform="matrix(1.00003,0,0,-1.00005,103.34657,107.1157)" d="M-68.17577-39.99416H-28.546044V-28.03884H-68.17577Z" fill="#ffffff"/>
<use data-text="(" xlink:href="#font_3_1" transform="matrix(9.962899,0,0,-9.963098,36.165559,143.62453)"/>
<use data-text="&#x2212;" xlink:href="#font_2_1" transform="matrix(9.962899,0,0,-9.963098,40.04068,143.62453)"/>
<use data-text="1" xlink:href="#font_3_3" transform="matrix(9.962899,0,0,-9.963098,47.78891,143.62453)"/>
<use data-text="," xlink:href="#font_1_1" transform="matrix(9.962899,0,0,-9.963098,52.771059,143.62453)"/>
<use data-text="&#x2212;" xlink:href="#font_2_1" transform="matrix(9.962899,0,0,-9.963098,57.199174,143.62453)"/>
<use data-text="2" xlink:href="#font_3_4" transform="matrix(9.962899,0,0,-9.963098,64.94742,143.62453)"/>
<use data-text=")" xlink:href="#font_3_2" transform="matrix(9.962899,0,0,-9.963098,69.92885,143.62453)"/>
<path transform="matrix(1.00003,0,0,-1.00005,103.34657,107.1157)" stroke-width="1.19553" stroke-linecap="butt" stroke-miterlimit="10" stroke-linejoin="miter" fill="none" stroke="#ff0000" d="M-70.42215 84.37433C-69.32285 82.39001-69.32285 82.39001-68.57413 81.0477-67.8254 79.70538-66.6515 77.6114-65.93346 76.33809-65.21541 75.06479-64.08781 73.0778-63.39893 71.87062-62.71005 70.66344-61.62965 68.78139-60.96848 67.6375-60.3073 66.49362-59.26894 64.70934-58.63351 63.62628-57.99812 62.54321-56.99956 60.85666-56.38889 59.8315-55.77821 58.80634-54.81935 57.20647-54.23222 56.23758-53.64511 55.2687-52.72252 53.76288-52.15733 52.84843-51.59213 51.934-50.70306 50.50974-50.15872 49.64693-49.61438 48.78415-48.75876 47.44273-48.23407 46.62996-47.70941 45.81717-46.88353 44.5531-46.37718 43.78893-45.87082 43.02475-45.07355 41.83958-44.58464 41.1223-44.09572 40.40503-43.3259 39.29175-42.85333 38.61919-42.38077 37.94661-41.63588 36.90402-41.17862 36.27489-40.72134 35.64574-40.00056 34.67177-39.55762 34.08476-39.11469 33.49776-38.41603 32.59007-37.9862 32.04411-37.55637 31.49814-36.8773 30.65582-36.45967 30.14983-36.04204 29.64383-35.3824 28.86478-34.97623 28.39726-34.57005 27.92972-33.9276 27.21053-33.53223 26.78015-33.13686 26.34978-32.51244 25.68884-32.12663 25.29541-31.74084 24.902-31.1288 24.30226-30.75166 23.94458-30.37454 23.5869-29.77776 23.0402-29.40863 22.71754-29.0395 22.39487-28.45323 21.90729-28.09128 21.61897-27.72932 21.33064-27.15546 20.89456-26.79988 20.63953-26.44429 20.38446-25.87862 20.00241-25.52846 19.78075-25.17831 19.55908-24.62143 19.23093-24.27626 19.04189-23.93108 18.85284-23.38179 18.57509-23.04065 18.41824-22.6995 18.26138-22.15547 18.03636-21.8175 17.91139-21.47954 17.7864-20.94005 17.61086-20.60474 17.51743-20.26944 17.424-19.73419 17.30003-19.4008 17.23792-19.0674 17.17581-18.53375 17.10161-18.2018 17.06975-17.86984 17.03789-17.33945 17.00824-17.00824 17.00824-16.67703 17.00824-16.14664 17.03789-15.81467 17.06975-15.48273 17.10161-14.94908 17.17581-14.61568 17.23792-14.28229 17.30003-13.74704 17.424-13.41173 17.51743-13.07643 17.61086-12.53694 17.7864-12.19897 17.91139-11.86101 18.03636-11.31697 18.26138-10.97583 18.41824-10.63469 18.57509-10.08539 18.85284-9.74022 19.04189-9.39505 19.23093-8.83817 19.55908-8.48802 19.78075-8.13786 20.00241-7.57219 20.38446-7.2166 20.63953-6.86102 20.89456-6.28716 21.33064-5.9252 21.61897-5.56325 21.90729-4.97697 22.39487-4.60785 22.71754-4.23872 23.0402-3.64194 23.5869-3.26482 23.94458-2.88768 24.30226-2.27563 24.902-1.88985 25.29541-1.50404 25.68884-.87962 26.34978-.48425 26.78015-.08888 27.21053 .55354 27.92972 .9597 28.39726 1.36588 28.86478 2.02553 29.64383 2.44316 30.14983 2.86078 30.65582 3.53986 31.49814 3.96968 32.04411 4.39952 32.59007 5.09818 33.49776 5.5411 34.08476 5.98405 34.67177 6.70483 35.64574 7.1621 36.27489 7.61937 36.90402 8.36424 37.94661 8.8368 38.61919 9.3094 39.29175 10.0792 40.40503 10.56812 41.1223 11.05704 41.83958 11.85431 43.02475 12.36066 43.78893 12.867 44.5531 13.69289 45.81717 14.21756 46.62996 14.74223 47.44273 15.59785 48.78415 16.14221 49.64693 16.68655 50.50974 17.5756 51.934 18.14081 52.84843 18.706 53.76288 19.62859 55.2687 20.21571 56.23758 20.80284 57.20647 21.7617 58.80634 22.37236 59.8315 22.98305 60.85666 23.9816 62.54321 24.61702 63.62628 25.25241 64.70934 26.29077 66.49362 26.95197 67.6375 27.61314 68.78139 28.69353 70.66344 29.3824 71.87062 30.07129 73.0778 31.1989 75.06479 31.91695 76.33809 32.635 77.6114 33.80888 79.70538 34.5576 81.0477 35.30634 82.39001 37.31325 86.01268 36.40562 84.37433"/>
<path transform="matrix(-.48460455,-.8747737,-.8747563,.4846142,32.92231,22.73716)" d="M1.27522 0C-.31879 .31879-1.91284 .9564-3.8257 2.07224-1.91284 .6376-1.91284-.6376-3.8257-2.07224-1.91284-.9564-.31879-.31879 1.27522 0Z" fill="#ff0000"/>
<path transform="matrix(-.48460455,-.8747737,-.8747563,.4846142,32.92231,22.73716)" stroke-width="1.19553" stroke-linecap="butt" stroke-linejoin="round" fill="none" stroke="#ff0000" d="M1.27522 0C-.31879 .31879-1.91284 .9564-3.8257 2.07224-1.91284 .6376-1.91284-.6376-3.8257-2.07224-1.91284-.9564-.31879-.31879 1.27522 0Z"/>
<path transform="matrix(.48460455,-.8747737,-.8747563,-.4846142,139.7533,22.73716)" d="M1.27522 0C-.31879 .31879-1.91284 .9564-3.8257 2.07224-1.91284 .6376-1.91284-.6376-3.8257-2.07224-1.91284-.9564-.31879-.31879 1.27522 0Z" fill="#ff0000"/>
<path transform="matrix(.48460455,-.8747737,-.8747563,-.4846142,139.7533,22.73716)" stroke-width="1.19553" stroke-linecap="butt" stroke-linejoin="round" fill="none" stroke="#ff0000" d="M1.27522 0C-.31879 .31879-1.91284 .9564-3.8257 2.07224-1.91284 .6376-1.91284-.6376-3.8257-2.07224-1.91284-.9564-.31879-.31879 1.27522 0Z"/>
<path transform="matrix(1.00003,0,0,-1.00005,103.34657,107.1157)" stroke-width="1.19553" stroke-linecap="butt" stroke-miterlimit="10" stroke-linejoin="miter" fill="none" stroke="#ff0000" d="M-70.42215-152.40737C-69.32285-150.42307-69.32285-150.42307-68.57413-149.08074-67.8254-147.73842-66.6515-145.64443-65.93346-144.37113-65.21541-143.09783-64.08781-141.11084-63.39893-139.90364-62.71005-138.69647-61.62965-136.81443-60.96848-135.67053-60.3073-134.52666-59.26894-132.74237-58.63351-131.65932-57.99812-130.57625-56.99956-128.8897-56.38889-127.86453-55.77821-126.83937-54.81935-125.2395-54.23222-124.27061-53.64511-123.30173-52.72252-121.79591-52.15733-120.88147-51.59213-119.96704-50.70306-118.54277-50.15872-117.67996-49.61438-116.81718-48.75876-115.47577-48.23407-114.663-47.70941-113.8502-46.88353-112.58614-46.37718-111.82198-45.87082-111.0578-45.07355-109.87262-44.58464-109.15535-44.09572-108.43806-43.3259-107.32478-42.85333-106.65222-42.38077-105.97966-41.63588-104.93706-41.17862-104.30792-40.72134-103.67877-40.00056-102.7048-39.55762-102.1178-39.11469-101.53078-38.41603-100.62311-37.9862-100.07713-37.55637-99.53117-36.8773-98.68886-36.45967-98.18286-36.04204-97.67686-35.3824-96.89783-34.97623-96.4303-34.57005-95.96277-33.9276-95.24356-33.53223-94.8132-33.13686-94.38281-32.51244-93.72188-32.12663-93.32845-31.74084-92.93503-31.1288-92.33528-30.75166-91.97762-30.37454-91.61995-29.77776-91.07324-29.40863-90.75058-29.0395-90.42792-28.45323-89.94032-28.09128-89.65201-27.72932-89.36368-27.15546-88.9276-26.79988-88.67256-26.44429-88.4175-25.87862-88.03546-25.52846-87.81378-25.17831-87.59212-24.62143-87.26396-24.27626-87.07492-23.93108-86.88588-23.38179-86.60812-23.04065-86.45128-22.6995-86.29442-22.15547-86.0694-21.8175-85.94443-21.47954-85.81944-20.94005-85.6439-20.60474-85.55046-20.26944-85.45703-19.73419-85.33305-19.4008-85.27097-19.0674-85.20885-18.53375-85.13464-18.2018-85.10278-17.86984-85.07092-17.33945-85.04128-17.00824-85.04128-16.67703-85.04128-16.14664-85.07092-15.81467-85.10278-15.48273-85.13464-14.94908-85.20885-14.61568-85.27097-14.28229-85.33305-13.74704-85.45703-13.41173-85.55046-13.07643-85.6439-12.53694-85.81944-12.19897-85.94443-11.86101-86.0694-11.31697-86.29442-10.97583-86.45128-10.63469-86.60812-10.08539-86.88588-9.74022-87.07492-9.39505-87.26396-8.83817-87.59212-8.48802-87.81378-8.13786-88.03546-7.57219-88.4175-7.2166-88.67256-6.86102-88.9276-6.28716-89.36368-5.9252-89.65201-5.56325-89.94032-4.97697-90.42792-4.60785-90.75058-4.23872-91.07324-3.64194-91.61995-3.26482-91.97762-2.88768-92.33528-2.27563-92.93503-1.88985-93.32845-1.50404-93.72188-.87962-94.38281-.48425-94.8132-.08888-95.24356 .55354-95.96277 .9597-96.4303 1.36588-96.89783 2.02553-97.67686 2.44316-98.18286 2.86078-98.68886 3.53986-99.53117 3.96968-100.07713 4.39952-100.62311 5.09818-101.53078 5.5411-102.1178 5.98405-102.7048 6.70483-103.67877 7.1621-104.30792 7.61937-104.93706 8.36424-105.97966 8.8368-106.65222 9.3094-107.32478 10.0792-108.43806 10.56812-109.15535 11.05704-109.87262 11.85431-111.0578 12.36066-111.82198 12.867-112.58614 13.69289-113.8502 14.21756-114.663 14.74223-115.47577 15.59785-116.81718 16.14221-117.67996 16.68655-118.54277 17.5756-119.96704 18.14081-120.88147 18.706-121.79591 19.62859-123.30173 20.21571-124.27061 20.80284-125.2395 21.7617-126.83937 22.37236-127.86453 22.98305-128.8897 23.9816-130.57625 24.61702-131.65932 25.25241-132.74237 26.29077-134.52666 26.95197-135.67053 27.61314-136.81443 28.69353-138.69647 29.3824-139.90364 30.07129-141.11084 31.1989-143.09783 31.91695-144.37113 32.635-145.64443 33.80888-147.73842 34.5576-149.08074 35.30634-150.42307 37.31325-154.04572 36.40562-152.40737"/>
<path transform="matrix(-.48460455,.8747737,.8747563,.4846142,32.92231,259.53068)" d="M1.27522 0C-.31879 .31879-1.91284 .9564-3.8257 2.07224-1.91284 .6376-1.91284-.6376-3.8257-2.07224-1.91284-.9564-.31879-.31879 1.27522 0Z" fill="#ff0000"/>
<path transform="matrix(-.48460455,.8747737,.8747563,.4846142,32.92231,259.53068)" stroke-width="1.19553" stroke-linecap="butt" stroke-linejoin="round" fill="none" stroke="#ff0000" d="M1.27522 0C-.31879 .31879-1.91284 .9564-3.8257 2.07224-1.91284 .6376-1.91284-.6376-3.8257-2.07224-1.91284-.9564-.31879-.31879 1.27522 0Z"/>
<path transform="matrix(.48460455,.8747737,.8747563,-.4846142,139.7533,259.53068)" d="M1.27522 0C-.31879 .31879-1.91284 .9564-3.8257 2.07224-1.91284 .6376-1.91284-.6376-3.8257-2.07224-1.91284-.9564-.31879-.31879 1.27522 0Z" fill="#ff0000"/>
<path transform="matrix(.48460455,.8747737,.8747563,-.4846142,139.7533,259.53068)" stroke-width="1.19553" stroke-linecap="butt" stroke-linejoin="round" fill="none" stroke="#ff0000" d="M1.27522 0C-.31879 .31879-1.91284 .9564-3.8257 2.07224-1.91284 .6376-1.91284-.6376-3.8257-2.07224-1.91284-.9564-.31879-.31879 1.27522 0Z"/>
<path transform="matrix(1.00003,0,0,-1.00005,103.34657,107.1157)" stroke-width=".3985" stroke-linecap="butt" stroke-miterlimit="10" stroke-linejoin="miter" fill="none" stroke="#0000ff" d="M10.20503 17.00824C12.29724 15.96219 13.692 13.52127 13.692 10.0343V-1.53018C13.692-5.01715 15.08678-7.45807 17.17897-8.50412 15.08678-9.55017 13.692-11.99109 13.692-15.47806V-27.04256C13.692-30.52953 12.29724-32.97046 10.20503-34.0165"/>
<path transform="matrix(1.00003,0,0,-1.00005,103.34657,107.1157)" d="M21.743-12.95969H46.27619V-4.0485699H21.743Z" fill="#ffffff"/>
<use data-text="b" xlink:href="#font_1_3" transform="matrix(9.962899,0,0,-9.963098,126.08626,119.0793)" fill="#0000ff"/>
<use data-text="=" xlink:href="#font_3_7" transform="matrix(9.962899,0,0,-9.963098,133.12947,119.0793)" fill="#0000ff"/>
<use data-text="3" xlink:href="#font_3_5" transform="matrix(9.962899,0,0,-9.963098,143.63036,119.0793)" fill="#0000ff"/>
<path transform="matrix(1.00003,0,0,-1.00005,103.34657,107.1157)" stroke-width=".3985" stroke-linecap="butt" stroke-miterlimit="10" stroke-linejoin="miter" fill="none" stroke="#009900" d="M8.50412-34.0165C7.6075-35.80981 5.51529-37.00533 2.52646-37.00533H1.7256C-1.26321-37.00533-3.35544-38.20085-4.25204-39.99416-5.14867-38.20085-7.24088-37.00533-10.2297-37.00533H-11.03058C-14.01941-37.00533-16.11163-35.80981-17.00824-34.0165"/>
<path transform="matrix(1.00003,0,0,-1.00005,103.34657,107.1157)" d="M36.15439-65.06891H63.059049V-51.223829H36.15439Z" fill="#ffffff"/>
<use data-text="a" xlink:href="#font_1_2" transform="matrix(9.962899,0,0,-9.963098,140.49869,167.75574)" fill="#009900"/>
<use data-text="=" xlink:href="#font_3_7" transform="matrix(9.962899,0,0,-9.963098,148.53293,167.75574)" fill="#009900"/>
<use data-text="3" xlink:href="#font_4_2" transform="matrix(6.9740097,0,0,-6.9741489,160.24428,163.83354)" fill="#009900"/>
<path transform="matrix(1.00003,0,0,-1.00005,-44.84988,73.62803)" stroke-width=".3985" stroke-linecap="butt" stroke-miterlimit="10" stroke-linejoin="miter" fill="none" stroke="#009900" d="M205.088-91.633H209.06"/>
<use data-text="2" xlink:href="#font_4_1" transform="matrix(6.9740097,0,0,-6.9741489,160.24428,171.1919)" fill="#009900"/>
<path transform="matrix(1.00003,0,0,-1.00005,103.34657,107.1157)" stroke-width=".79701" stroke-linecap="butt" stroke-miterlimit="10" stroke-linejoin="miter" fill="none" stroke="#00ff00" d="M34.0165-59.52888C17.92148-59.52888-.60677-58.37128-3.1525-43.93343"/>
<path transform="matrix(-.17363522,-.98484918,-.98482957,.17363867,100.19398,151.05133)" d="M1.0361 0C-.25902 .25902-1.55415 .77707-3.1083 1.68365-1.55415 .51805-1.55415-.51805-3.1083-1.68365-1.55415-.77707-.25902-.25902 1.0361 0Z" fill="#00ff00"/>
<path transform="matrix(-.17363522,-.98484918,-.98482957,.17363867,100.19398,151.05133)" stroke-width=".79701" stroke-linecap="butt" stroke-linejoin="round" fill="none" stroke="#00ff00" d="M1.0361 0C-.25902 .25902-1.55415 .77707-3.1083 1.68365-1.55415 .51805-1.55415-.51805-3.1083-1.68365-1.55415-.77707-.25902-.25902 1.0361 0Z"/>
</svg>
