<svg xmlns="http://www.w3.org/2000/svg" xmlns:xlink="http://www.w3.org/1999/xlink" version="1.1" width="219" height="221" viewBox="0 0 219 221">
<defs>
<path id="font_1_2" d="M.33399964 .30233766C.33999635 .32835389 .36299134 .42037965 .43299867 .42037965 .43798829 .42037965 .46199037 .42037965 .48298646 .40734864 .45498658 .402359 .43499757 .37734986 .43499757 .35334779 .43499757 .33735658 .44599916 .31835938 .47299195 .31835938 .49499513 .31835938 .5269928 .3363495 .5269928 .37635804 .5269928 .42837525 .46798707 .4423828 .43399049 .4423828 .37599183 .4423828 .34098817 .38935853 .32899476 .36634828 .3039856 .43237306 .25 .4423828 .22099304 .4423828 .116989139 .4423828 .05999756 .3133545 .05999756 .28834535 .05999756 .27833558 .069992069 .27833558 .07199097 .27833558 .07998657 .27833558 .08299255 .28033448 .084991458 .28933717 .11898804 .39535523 .18499756 .42037965 .21899414 .42037965 .23799134 .42037965 .272995 .4113617 .272995 .35334779 .272995 .32235719 .2559967 .25532533 .21899414 .11528015 .20298767 .053268434 .16799927 .011245728 .12399292 .011245728 .117996219 .011245728 .09498596 .011245728 .07398987 .024276734 .09899902 .029266358 .12098694 .05027771 .12098694 .07827759 .12098694 .105270389 .09899902 .11328125 .083999637 .11328125 .053985597 .11328125 .0289917 .08728027 .0289917 .055267335 .0289917 .009246826 .07899475-.0107421879 .12298584-.0107421879 .18899536-.0107421879 .22499085 .059280397 .22799683 .0652771 .23999024 .028274537 .27598573-.0107421879 .33599855-.0107421879 .43899537-.0107421879 .49598695 .118270877 .49598695 .14328003 .49598695 .1532898 .4869995 .1532898 .48399354 .1532898 .47499085 .1532898 .47299195 .14929199 .47099305 .14228821 .43798829 .03527832 .36999513 .011245728 .33799745 .011245728 .29899598 .011245728 .2829895 .043273927 .2829895 .07727051 .2829895 .09927368 .2889862 .121276859 .2999878 .16529846L.33399964 .30233766Z"/>
<path id="font_1_3" d="M.48599244 .38136292C.48999024 .39537049 .48999024 .39736939 .48999024 .40437318 .48999024 .42237855 .47599793 .43138124 .46099855 .43138124 .45098878 .43138124 .43499757 .42536927 .42599488 .41036988 .42399598 .405365 .41600038 .37435914 .4119873 .35635377 .40499879 .33035279 .397995 .30334474 .3919983 .27633668L.34700013 .09628296C.34298707 .08126831 .2999878 .011245728 .23399353 .011245728 .18299866 .011245728 .17199707 .055267335 .17199707 .0922699 .17199707 .1382904 .18899536 .20030213 .22299195 .28833009 .23899842 .3293457 .24299622 .3403473 .24299622 .36035157 .24299622 .405365 .21099854 .4423828 .16099549 .4423828 .06599426 .4423828 .0289917 .29733277 .0289917 .28833009 .0289917 .27833558 .038986207 .27833558 .040985109 .27833558 .050994874 .27833558 .051986696 .28033448 .056991579 .29634095 .083999637 .3903656 .12399292 .42037965 .1579895 .42037965 .1659851 .42037965 .18299866 .42037965 .18299866 .3883667 .18299866 .36335755 .17298889 .3373413 .1659851 .31834413 .12599182 .21231079 .10798645 .1552887 .10798645 .10827637 .10798645 .019256592 .17098999-.0107421879 .22999573-.0107421879 .2689972-.0107421879 .30299378 .0062561037 .33099366 .03425598 .31799317-.017745972 .30599977-.06674194 .2659912-.11973572 .23999024-.15385437 .20199585-.18309021 .1559906-.18309021 .14199829-.18309021 .09700012-.18005371 .07998657-.14074707 .09599304-.14074707 .10899353-.14074707 .12298584-.1287384 .1329956-.11973572 .14299011-.10673523 .14299011-.08773804 .14299011-.056747438 .115997318-.052734376 .10598755-.052734376 .08299255-.052734376 .049987794-.068740848 .049987794-.11773682 .049987794-.16796875 .09399414-.20507813 .1559906-.20507813 .25898744-.20507813 .3619995-.11373901 .3899994-.00074768069L.48599244 .38136292Z"/>
<path id="font_2_1" d="M.6589966 .23046875C.6759949 .23046875 .69400027 .23046875 .69400027 .25045777 .69400027 .27046205 .6759949 .27046205 .6589966 .27046205H.117996219C.100997928 .27046205 .08299255 .27046205 .08299255 .25045777 .08299255 .23046875 .100997928 .23046875 .117996219 .23046875H.6589966Z"/>
<path id="font_3_2" d="M.44898988 .20022583C.44898988 .3193512 .36698915 .41944886 .25898744 .41944886 .21099854 .41944886 .16799927 .40345765 .13198853 .36842347V.5637665C.1519928 .5577698 .18499756 .55078127 .21699524 .55078127 .33999635 .55078127 .4099884 .6417694 .4099884 .6547699 .4099884 .6607666 .40699769 .6657715 .3999939 .6657715 .39898683 .6657715 .39698792 .6657715 .3919983 .66278079 .37199403 .6537781 .32299806 .6337738 .2559967 .6337738 .21598816 .6337738 .16999817 .6407776 .12298584 .6617737 .114990238 .66477969 .11299133 .66477969 .11099243 .66477969 .100997928 .66477969 .100997928 .6567688 .100997928 .6407776V.34439088C.100997928 .32637025 .100997928 .31835938 .114990238 .31835938 .12199402 .31835938 .12399292 .32136537 .12799073 .32736207 .13899231 .3433838 .17599488 .39746095 .25698854 .39746095 .30899049 .39746095 .33399964 .35139466 .34199525 .33337403 .35798646 .29632569 .3600006 .25727845 .3600006 .20722962 .3600006 .17222595 .3600006 .11222839 .33599855 .07035828 .31199647 .031463624 .2749939 .0055389406 .22898865 .0055389406 .1559906 .0055389406 .09899902 .058380128 .08198547 .11723328 .084991458 .1162262 .08799744 .115234378 .09899902 .115234378 .13198853 .115234378 .14898682 .14022827 .14898682 .16423035 .14898682 .18823242 .13198853 .21322632 .09899902 .21322632 .084991458 .21322632 .049987794 .20622254 .049987794 .16023255 .049987794 .07434082 .11898804-.022460938 .23098755-.022460938 .34700013-.022460938 .44898988 .073349 .44898988 .20022583Z"/>
<path id="font_4_1" d="M.5149994-1.7478027C.5169983-1.7487946 .526001-1.7587891 .5269928-1.7587891H.548996C.5519867-1.7587891 .55999758-1.7577973 .55999758-1.7487946 .55999758-1.7447968 .55799868-1.7427979 .55599978-1.7397919 .519989-1.7037964 .46598817-1.6488037 .4039917-1.5388184 .29599-1.3468323 .2559967-1.0998688 .2559967-.8598938 .2559967-.41593934 .38198854-.154953 .5569916 .022033692 .55999758 .025024414 .55999758 .028030396 .55999758 .030029297 .55999758 .040039064 .5529938 .040039064 .54100039 .040039064 .5279999 .040039064 .526001 .040039064 .5169983 .0320282 .42199708-.049972536 .31498719-.18894959 .24598694-.39993287 .20298767-.5319214 .17999268-.6929016 .17999268-.8588867 .17999268-1.0958557 .22299195-1.3638306 .37998963-1.5958099 .40699769-1.6348114 .44400025-1.6757965 .44400025-1.6768036 .45399476-1.688797 .46798707-1.7048035 .47599793-1.711792L.5149994-1.7478027Z"/>
<path id="font_3_1" d="M.1269989 .07699585 .23298645 .18003845C.3889923 .31811524 .44898988 .3721466 .44898988 .47216798 .44898988 .5860901 .35899354 .6660156 .23699951 .6660156 .12399292 .6660156 .049987794 .57411196 .049987794 .48516847 .049987794 .4291687 .099990848 .4291687 .102996829 .4291687 .11999512 .4291687 .15499878 .44117738 .15499878 .48217774 .15499878 .5081787 .13699341 .5341797 .101989749 .5341797 .09399414 .5341797 .09199524 .5341797 .08898926 .5331726 .11199951 .59806826 .1659851 .63500979 .22399903 .63500979 .31498719 .63500979 .35798646 .5541382 .35798646 .47216798 .35798646 .39215089 .30799867 .31311036 .25299073 .25108338L.06098938 .036987306C.049987794 .025985718 .049987794 .023986817 .049987794 0H.42099L.44898988 .17404175H.42399598C.4189911 .14402771 .4119873 .1000061 .4019928 .084991458 .394989 .07699585 .32899476 .07699585 .30699159 .07699585H.1269989Z"/>
<path id="font_1_1" d="M.20298767 .0009918213C.20298767 .066986087 .17799378 .10598755 .13899231 .10598755 .10598755 .10598755 .085998538 .08099365 .085998538 .052993776 .085998538 .025985718 .10598755 0 .13899231 0 .15098572 0 .1639862 .0039978029 .17399597 .0129852299 .1769867 .01499939 .17799378 .015991211 .1789856 .015991211 .17999268 .015991211 .18099976 .01499939 .18099976 .0009918213 .18099976-.07316589 .1459961-.13328552 .11299133-.16635132 .101989749-.17736817 .101989749-.17936707 .101989749-.18237305 .101989749-.18936157 .10699463-.19335938 .11199951-.19335938 .12298584-.19335938 .20298767-.116256717 .20298767 .0009918213Z"/>
<path id="font_2_2" d="M.3889923-.8549652 .21299744-.4659729C.20599365-.44996644 .20098877-.44996644 .19799805-.44996644 .19699097-.44996644 .19198609-.44996644 .18099976-.45796205L.085998538-.52996829C.07299805-.53996279 .07299805-.54296877 .07299805-.54597476 .07299805-.55096438 .07598877-.55696108 .08299255-.55696108 .08898926-.55696108 .10598755-.54296877 .116989139-.53497317 .12298584-.52996829 .13798523-.5189667 .14898682-.51097109L.34599305-.9439697C.35299684-.95996096 .35798646-.95996096 .36698915-.95996096 .38198854-.95996096 .3849945-.95396426 .3919983-.9399719L.84599307 .000030517579C.8529968 .014038086 .8529968 .018035889 .8529968 .02003479 .8529968 .030029297 .8450012 .040039064 .83299258 .040039064 .82499697 .040039064 .81799319 .03503418 .80999758 .01902771L.3889923-.8549652Z"/>
<path id="font_4_2" d="M.41600038-.8588867C.41600038-.5719147 .34899903-.2669525 .1519928-.04197693 .13798523-.025970459 .100997928 .013031006 .07699585 .0340271 .069992069 .040039064 .067993167 .040039064 .054992677 .040039064 .04499817 .040039064 .035995485 .040039064 .035995485 .030029297 .035995485 .026031495 .039993287 .022033692 .041992189 .02003479 .07598877-.014968872 .12998963-.06996155 .19198609-.17996216 .2999878-.37193299 .33999635-.61891177 .33999635-.8588867 .33999635-1.2928467 .21998596-1.5578156 .039993287-1.740799 .037994386-1.7427979 .035995485-1.7458038 .035995485-1.7487946 .035995485-1.7587891 .04499817-1.7587891 .054992677-1.7587891 .067993167-1.7587891 .069992069-1.7587891 .07899475-1.7507935 .17399597-1.668808 .2809906-1.5298157 .34999085-1.3188324 .3939972-1.1818543 .41600038-1.019867 .41600038-.8588867Z"/>
</defs>
<path transform="matrix(1.00006,0,0,-1.00006,100.51394,119.59039)" stroke-width=".3985" stroke-linecap="butt" stroke-miterlimit="10" stroke-linejoin="miter" fill="none" stroke="#00aeef" d="M-99.21382-99.21382H99.21382M-99.21382-85.04042H99.21382M-99.21382-70.867H99.21382M-99.21382-56.69362H99.21382M-99.21382-42.5202H99.21382M-99.21382-28.3468H99.21382M-99.21382-14.17339H99.21382M-99.21382 0H99.21382M-99.21382 14.17339H99.21382M-99.21382 28.3468H99.21382M-99.21382 42.5202H99.21382M-99.21382 56.69362H99.21382M-99.21382 70.867H99.21382M-99.21382 85.04042H99.21382M-99.21382 99.20885H99.21382M-99.21382-99.21382V99.21382M-85.04042-99.21382V99.21382M-70.867-99.21382V99.21382M-56.69362-99.21382V99.21382M-42.5202-99.21382V99.21382M-28.3468-99.21382V99.21382M-14.17339-99.21382V99.21382M0-99.21382V99.21382M14.17339-99.21382V99.21382M28.3468-99.21382V99.21382M42.5202-99.21382V99.21382M56.69362-99.21382V99.21382M70.867-99.21382V99.21382M85.04042-99.21382V99.21382M99.20885-99.21382V99.21382M99.21382 99.21382"/>
<path transform="matrix(1.00006,0,0,-1.00006,100.51394,119.59039)" stroke-width=".79701" stroke-linecap="butt" stroke-miterlimit="10" stroke-linejoin="miter" fill="none" stroke="#000000" d="M-99.21382 0H106.28333"/>
<path transform="matrix(1.00006,0,0,-1.00006,206.80365,119.59039)" d="M1.0361 0C-.25902 .25902-1.55415 .77707-3.1083 1.68365-1.55415 .51805-1.55415-.51805-3.1083-1.68365-1.55415-.77707-.25902-.25902 1.0361 0Z"/>
<path transform="matrix(1.00006,0,0,-1.00006,206.80365,119.59039)" stroke-width=".79701" stroke-linecap="butt" stroke-linejoin="round" fill="none" stroke="#000000" d="M1.0361 0C-.25902 .25902-1.55415 .77707-3.1083 1.68365-1.55415 .51805-1.55415-.51805-3.1083-1.68365-1.55415-.77707-.25902-.25902 1.0361 0Z"/>
<use data-text="x" xlink:href="#font_1_2" transform="matrix(9.963197,0,0,-9.963197,211.95761,121.73552)"/>
<path transform="matrix(1.00006,0,0,-1.00006,100.51394,119.59039)" stroke-width=".79701" stroke-linecap="butt" stroke-miterlimit="10" stroke-linejoin="miter" fill="none" stroke="#000000" d="M0-99.21382V106.28333"/>
<path transform="matrix(0,-1.00006,-1.00006,-0,100.51394,13.30069)" d="M1.0361 0C-.25902 .25902-1.55415 .77707-3.1083 1.68365-1.55415 .51805-1.55415-.51805-3.1083-1.68365-1.55415-.77707-.25902-.25902 1.0361 0Z"/>
<path transform="matrix(0,-1.00006,-1.00006,-0,100.51394,13.30069)" stroke-width=".79701" stroke-linecap="butt" stroke-linejoin="round" fill="none" stroke="#000000" d="M1.0361 0C-.25902 .25902-1.55415 .77707-3.1083 1.68365-1.55415 .51805-1.55415-.51805-3.1083-1.68365-1.55415-.77707-.25902-.25902 1.0361 0Z"/>
<use data-text="y" xlink:href="#font_1_3" transform="matrix(9.963197,0,0,-9.963197,97.892787,6.2095949)"/>
<path transform="matrix(1.00006,0,0,-1.00006,100.51394,119.59039)" stroke-width=".3985" stroke-linecap="butt" stroke-miterlimit="10" stroke-linejoin="miter" fill="none" stroke="#000000" d="M1.4174-70.867H-1.41719"/>
<path transform="matrix(1.00006,0,0,-1.00006,100.51394,119.59039)" d="M-18.33179-75.48862H-3.6090108V-66.245388H-18.33179Z" fill="#ffffff"/>
<use data-text="&#x2212;" xlink:href="#font_2_1" transform="matrix(9.963197,0,0,-9.963197,83.176898,193.2568)"/>
<use data-text="5" xlink:href="#font_3_2" transform="matrix(9.963197,0,0,-9.963197,90.92537,193.2568)"/>
<path transform="matrix(1.00006,0,0,-1.00006,100.51394,119.59039)" stroke-width=".3985" stroke-linecap="butt" stroke-miterlimit="10" stroke-linejoin="miter" fill="none" stroke="#000000" d="M-70.867 1.4174V-1.41719"/>
<path transform="matrix(1.00006,0,0,-1.00006,100.51394,119.59039)" d="M-78.2284-12.85223H-63.505624V-3.6090003H-78.2284Z" fill="#ffffff"/>
<use data-text="&#x2212;" xlink:href="#font_2_1" transform="matrix(9.963197,0,0,-9.963197,23.277298,130.61705)"/>
<use data-text="5" xlink:href="#font_3_2" transform="matrix(9.963197,0,0,-9.963197,31.025773,130.61705)"/>
<path transform="matrix(1.00006,0,0,-1.00006,100.51394,119.59039)" stroke-width=".3985" stroke-linecap="butt" stroke-miterlimit="10" stroke-linejoin="miter" fill="none" stroke="#000000" d="M1.4174 70.867H-1.41719"/>
<path transform="matrix(1.00006,0,0,-1.00006,100.51394,119.59039)" d="M-10.58295 66.66052H-3.6090098V75.0735H-10.58295Z" fill="#ffffff"/>
<use data-text="5" xlink:href="#font_3_2" transform="matrix(9.963197,0,0,-9.963197,90.92636,51.929338)"/>
<path transform="matrix(1.00006,0,0,-1.00006,100.51394,119.59039)" stroke-width=".3985" stroke-linecap="butt" stroke-miterlimit="10" stroke-linejoin="miter" fill="none" stroke="#000000" d="M70.867 1.4174V-1.41719"/>
<path transform="matrix(1.00006,0,0,-1.00006,100.51394,119.59039)" d="M67.38004-12.02199H74.35398V-3.6090098H67.38004Z" fill="#ffffff"/>
<use data-text="5" xlink:href="#font_3_2" transform="matrix(9.963197,0,0,-9.963197,168.89405,130.61705)"/>
<path transform="matrix(1.00006,0,0,-1.00006,100.51394,119.59039)" stroke-width=".3985" stroke-linecap="butt" stroke-dasharray="2.98883,2.98883" stroke-miterlimit="10" stroke-linejoin="miter" fill="none" stroke="#929292" d="M-99.21382-49.6069 99.21382 49.6069"/>
<path transform="matrix(1.00006,0,0,-1.00006,100.51394,119.59039)" stroke-width=".3985" stroke-linecap="butt" stroke-dasharray="2.98883,2.98883" stroke-miterlimit="10" stroke-linejoin="miter" fill="none" stroke="#929292" d="M-99.21382 49.6069 99.21382-49.6069"/>
<path transform="matrix(1.00006,0,0,-1.00006,100.51394,119.59039)" stroke-width="1.19553" stroke-linecap="butt" stroke-miterlimit="10" stroke-linejoin="miter" fill="none" stroke="#ff0000" d="M-94.56189 55.12877C-93.03957 54.47536-93.03957 54.47536-91.82262 53.95781-90.60565 53.44023-88.6876 52.63069-87.51193 52.13724-86.33627 51.64381-84.48561 50.87137-83.34918 50.40147-82.21278 49.93156-80.42084 49.19751-79.3214 48.75047-78.22194 48.30344-76.48901 47.60481-75.4251 47.1795-74.36119 46.75418-72.68343 46.08916-71.65337 45.68509-70.62329 45.28102-68.99904 44.65059-68.001 44.26723-67.00299 43.88387-65.42839 43.28534-64.46025 42.92203-63.49213 42.5587-61.96263 41.99239-61.0233 41.64864-60.08397 41.30487-58.60202 40.76973-57.69017 40.44444-56.77834 40.11919-55.33774 39.61136-54.45132 39.30428-53.56493 38.9972-52.16386 38.5203-51.30159 38.23116-50.4393 37.94202-49.07573 37.49236-48.23662 37.22032-47.3975 36.94827-46.07158 36.52551-45.25383 36.27045-44.4361 36.0154-43.14091 35.62051-42.34285 35.38202-41.5448 35.14352-40.28091 34.77426-39.50195 34.55154-38.72298 34.32884-37.48985 33.9841-36.72852 33.77687-35.9672 33.56966-34.76025 33.24974-34.01477 33.058-33.26927 32.86626-32.08636 32.57147-31.35553 32.39493-30.62468 32.21837-29.464 31.9475-28.74733 31.78548-28.03064 31.62344-26.894 31.3748-26.19016 31.22707-25.48633 31.07932-24.3672 30.8541-23.67451 30.72057-22.98184 30.58704-21.8804 30.3841-21.19781 30.26466-20.51521 30.14525-19.42818 29.96556-18.75482 29.8598-18.08148 29.75407-17.00981 29.59471-16.34473 29.50253-15.67966 29.41037-14.6198 29.27399-13.96144 29.19543-13.3031 29.11687-12.25226 29.00177-11.5998 28.93636-10.94731 28.87094-9.9068 28.77606-9.2589 28.72397-8.611 28.67188-7.5744 28.5998-6.9301 28.56091-6.2858 28.52202-5.25647 28.46973-4.61516 28.44368-3.97386 28.41765-2.94775 28.3862-2.308 28.37318-1.66826 28.36017-.64153 28.34982-.0043 28.34982 .63287 28.34982 1.64658 28.36041 2.28465 28.37318 2.92271 28.38596 3.95285 28.41628 4.5944 28.44196 5.23595 28.46764 6.26477 28.5193 6.9085 28.5583 7.55219 28.59732 8.58603 28.67102 9.23381 28.7231 9.88159 28.77519 10.92459 28.86864 11.5773 28.93375 12.23 28.99886 13.27986 29.1139 13.9381 29.19241 14.59633 29.2709 15.65642 29.4074 16.32137 29.49951 16.98631 29.59163 18.05737 29.75067 18.7306 29.85635 19.40384 29.96202 20.49123 30.14189 21.17358 30.2612 21.85594 30.38051 22.95625 30.58289 23.64857 30.71625 24.34088 30.84958 25.45926 31.07486 26.16335 31.2223 26.86742 31.36977 28.00606 31.61719 28.7231 31.77898 29.44014 31.94078 30.60106 32.21175 31.3313 32.38843 32.06154 32.56511 33.24097 32.8607 33.98622 33.05238 34.73146 33.24406 35.941 33.56303 36.70258 33.76996 37.46414 33.97687 38.6964 34.32124 39.47514 34.54376 40.25388 34.7663 41.51735 35.13542 42.31517 35.37381 43.113 35.61218 44.40779 36.00687 45.22528 36.26181 46.0428 36.51674 47.36845 36.93938 48.20721 37.21123 49.04597 37.48308 50.40854 37.93224 51.27045 38.2212 52.13237 38.51016 53.53291 38.98723 54.41933 39.2939 55.30571 39.60057 56.74695 40.10645 57.65903 40.43147 58.57112 40.75652 60.05441 41.29271 60.99304 41.63652 61.93166 41.98035 63.45662 42.54622 64.42392 42.90947 65.39122 43.27274 66.96642 43.87161 67.96468 44.25468 68.96295 44.63774 70.58868 45.26666 71.61876 45.67036 72.64883 46.07408 74.32555 46.73933 75.38876 47.16435 76.45197 47.58937 78.18263 48.2868 79.2816 48.73361 80.38057 49.18042 82.1731 49.91483 83.3094 50.38461 84.4457 50.8544 86.2961 51.62633 87.47128 52.11952 88.64647 52.6127 90.56313 53.42195 91.77936 53.9392 92.99559 54.45645 96.23709 55.84756 94.516 55.10893"/>
<path transform="matrix(-.91893509,-.39442367,-.39442367,.91893509,5.9464037,64.45831)" d="M1.27522 0C-.31879 .31879-1.91284 .9564-3.8257 2.07224-1.91284 .6376-1.91284-.6376-3.8257-2.07224-1.91284-.9564-.31879-.31879 1.27522 0Z" fill="#ff0000"/>
<path transform="matrix(-.91893509,-.39442367,-.39442367,.91893509,5.9464037,64.45831)" stroke-width="1.19553" stroke-linecap="butt" stroke-linejoin="round" fill="none" stroke="#ff0000" d="M1.27522 0C-.31879 .31879-1.91284 .9564-3.8257 2.07224-1.91284 .6376-1.91284-.6376-3.8257-2.07224-1.91284-.9564-.31879-.31879 1.27522 0Z"/>
<path transform="matrix(.9189551,-.39438365,-.39438365,-.9189551,195.0356,64.478168)" d="M1.27522 0C-.31879 .31879-1.91284 .9564-3.8257 2.07224-1.91284 .6376-1.91284-.6376-3.8257-2.07224-1.91284-.9564-.31879-.31879 1.27522 0Z" fill="#ff0000"/>
<path transform="matrix(.9189551,-.39438365,-.39438365,-.9189551,195.0356,64.478168)" stroke-width="1.19553" stroke-linecap="butt" stroke-linejoin="round" fill="none" stroke="#ff0000" d="M1.27522 0C-.31879 .31879-1.91284 .9564-3.8257 2.07224-1.91284 .6376-1.91284-.6376-3.8257-2.07224-1.91284-.9564-.31879-.31879 1.27522 0Z"/>
<path transform="matrix(1.00006,0,0,-1.00006,100.51394,119.59039)" stroke-width="1.19553" stroke-linecap="butt" stroke-miterlimit="10" stroke-linejoin="miter" fill="none" stroke="#ff0000" d="M-94.56189-55.12877C-93.03957-54.47536-93.03957-54.47536-91.82262-53.95781-90.60565-53.44023-88.6876-52.63069-87.51193-52.13724-86.33627-51.64381-84.48561-50.87137-83.34918-50.40147-82.21278-49.93156-80.42084-49.19751-79.3214-48.75047-78.22194-48.30344-76.48901-47.60481-75.4251-47.1795-74.36119-46.75418-72.68343-46.08916-71.65337-45.68509-70.62329-45.28102-68.99904-44.65059-68.001-44.26723-67.00299-43.88387-65.42839-43.28534-64.46025-42.92203-63.49213-42.5587-61.96263-41.99239-61.0233-41.64864-60.08397-41.30487-58.60202-40.76973-57.69017-40.44444-56.77834-40.11919-55.33774-39.61136-54.45132-39.30428-53.56493-38.9972-52.16386-38.5203-51.30159-38.23116-50.4393-37.94202-49.07573-37.49236-48.23662-37.22032-47.3975-36.94827-46.07158-36.52551-45.25383-36.27045-44.4361-36.0154-43.14091-35.62051-42.34285-35.38202-41.5448-35.14352-40.28091-34.77426-39.50195-34.55154-38.72298-34.32884-37.48985-33.9841-36.72852-33.77687-35.9672-33.56966-34.76025-33.24974-34.01477-33.058-33.26927-32.86626-32.08636-32.57147-31.35553-32.39493-30.62468-32.21837-29.464-31.9475-28.74733-31.78548-28.03064-31.62344-26.894-31.3748-26.19016-31.22707-25.48633-31.07932-24.3672-30.8541-23.67451-30.72057-22.98184-30.58704-21.8804-30.3841-21.19781-30.26466-20.51521-30.14525-19.42818-29.96556-18.75482-29.8598-18.08148-29.75407-17.00981-29.59471-16.34473-29.50253-15.67966-29.41037-14.6198-29.27399-13.96144-29.19543-13.3031-29.11687-12.25226-29.00177-11.5998-28.93636-10.94731-28.87094-9.9068-28.77606-9.2589-28.72397-8.611-28.67188-7.5744-28.5998-6.9301-28.56091-6.2858-28.52202-5.25647-28.46973-4.61516-28.44368-3.97386-28.41765-2.94775-28.3862-2.308-28.37318-1.66826-28.36017-.64153-28.34982-.0043-28.34982 .63287-28.34982 1.64658-28.36041 2.28465-28.37318 2.92271-28.38596 3.95285-28.41628 4.5944-28.44196 5.23595-28.46764 6.26477-28.5193 6.9085-28.5583 7.55219-28.59732 8.58603-28.67102 9.23381-28.7231 9.88159-28.77519 10.92459-28.86864 11.5773-28.93375 12.23-28.99886 13.27986-29.1139 13.9381-29.19241 14.59633-29.2709 15.65642-29.4074 16.32137-29.49951 16.98631-29.59163 18.05737-29.75067 18.7306-29.85635 19.40384-29.96202 20.49123-30.14189 21.17358-30.2612 21.85594-30.38051 22.95625-30.58289 23.64857-30.71625 24.34088-30.84958 25.45926-31.07486 26.16335-31.2223 26.86742-31.36977 28.00606-31.61719 28.7231-31.77898 29.44014-31.94078 30.60106-32.21175 31.3313-32.38843 32.06154-32.56511 33.24097-32.8607 33.98622-33.05238 34.73146-33.24406 35.941-33.56303 36.70258-33.76996 37.46414-33.97687 38.6964-34.32124 39.47514-34.54376 40.25388-34.7663 41.51735-35.13542 42.31517-35.37381 43.113-35.61218 44.40779-36.00687 45.22528-36.26181 46.0428-36.51674 47.36845-36.93938 48.20721-37.21123 49.04597-37.48308 50.40854-37.93224 51.27045-38.2212 52.13237-38.51016 53.53291-38.98723 54.41933-39.2939 55.30571-39.60057 56.74695-40.10645 57.65903-40.43147 58.57112-40.75652 60.05441-41.29271 60.99304-41.63652 61.93166-41.98035 63.45662-42.54622 64.42392-42.90947 65.39122-43.27274 66.96642-43.87161 67.96468-44.25468 68.96295-44.63774 70.58868-45.26666 71.61876-45.67036 72.64883-46.07408 74.32555-46.73933 75.38876-47.16435 76.45197-47.58937 78.18263-48.2868 79.2816-48.73361 80.38057-49.18042 82.1731-49.91483 83.3094-50.38461 84.4457-50.8544 86.2961-51.62633 87.47128-52.11952 88.64647-52.6127 90.56313-53.42195 91.77936-53.9392 92.99559-54.45645 96.23709-55.84756 94.516-55.10893"/>
<path transform="matrix(-.91893509,.39442367,.39442367,.91893509,5.9464037,174.72248)" d="M1.27522 0C-.31879 .31879-1.91284 .9564-3.8257 2.07224-1.91284 .6376-1.91284-.6376-3.8257-2.07224-1.91284-.9564-.31879-.31879 1.27522 0Z" fill="#ff0000"/>
<path transform="matrix(-.91893509,.39442367,.39442367,.91893509,5.9464037,174.72248)" stroke-width="1.19553" stroke-linecap="butt" stroke-linejoin="round" fill="none" stroke="#ff0000" d="M1.27522 0C-.31879 .31879-1.91284 .9564-3.8257 2.07224-1.91284 .6376-1.91284-.6376-3.8257-2.07224-1.91284-.9564-.31879-.31879 1.27522 0Z"/>
<path transform="matrix(.9189551,.39438365,.39438365,-.9189551,195.0356,174.70262)" d="M1.27522 0C-.31879 .31879-1.91284 .9564-3.8257 2.07224-1.91284 .6376-1.91284-.6376-3.8257-2.07224-1.91284-.9564-.31879-.31879 1.27522 0Z" fill="#ff0000"/>
<path transform="matrix(.9189551,.39438365,.39438365,-.9189551,195.0356,174.70262)" stroke-width="1.19553" stroke-linecap="butt" stroke-linejoin="round" fill="none" stroke="#ff0000" d="M1.27522 0C-.31879 .31879-1.91284 .9564-3.8257 2.07224-1.91284 .6376-1.91284-.6376-3.8257-2.07224-1.91284-.9564-.31879-.31879 1.27522 0Z"/>
<path transform="matrix(1.00006,0,0,-1.00006,100.51394,119.59039)" d="M30.47272 31.69247C30.47272 32.8666 29.52092 33.81839 28.3468 33.81839 27.17268 33.81839 26.22089 32.8666 26.22089 31.69247 26.22089 30.51834 27.17268 29.56654 28.3468 29.56654 29.52092 29.56654 30.47272 30.51834 30.47272 31.69247ZM28.3468 31.69247" fill="#ff0000"/>
<path transform="matrix(1.00006,0,0,-1.00006,100.51394,119.59039)" stroke-width=".3985" stroke-linecap="butt" stroke-miterlimit="10" stroke-linejoin="miter" fill="none" stroke="#ff0000" d="M30.47272 31.69247C30.47272 32.8666 29.52092 33.81839 28.3468 33.81839 27.17268 33.81839 26.22089 32.8666 26.22089 31.69247 26.22089 30.51834 27.17268 29.56654 28.3468 29.56654 29.52092 29.56654 30.47272 30.51834 30.47272 31.69247ZM28.3468 31.69247"/>
<path transform="matrix(1.00006,0,0,-1.00006,100.51394,119.59039)" d="M10.05403 37.56099H46.63956V57.48666H10.05403Z" fill="#ffffff"/>
<use data-text="(" xlink:href="#font_4_1" transform="matrix(9.963197,0,0,-9.963197,111.564609,63.49603)" fill="#ff0000"/>
<use data-text="2" xlink:href="#font_3_1" transform="matrix(9.963197,0,0,-9.963197,117.51497,74.55469)" fill="#ff0000"/>
<use data-text="," xlink:href="#font_1_1" transform="matrix(9.963197,0,0,-9.963197,122.49626,74.55469)" fill="#ff0000"/>
<use data-text="&#x221a;" xlink:href="#font_2_2" transform="matrix(9.963197,0,0,-9.963197,126.92453,66.3132)" fill="#ff0000"/>
<path transform="matrix(1.00006,0,0,-1.00006,-70.95433,-32.047704)" stroke-width=".3985" stroke-linecap="butt" stroke-miterlimit="10" stroke-linejoin="miter" fill="none" stroke="#ff0000" d="M206.169-98.156H211.15"/>
<use data-text="5" xlink:href="#font_3_2" transform="matrix(9.963197,0,0,-9.963197,135.22704,74.55469)" fill="#ff0000"/>
<use data-text=")" xlink:href="#font_4_2" transform="matrix(9.963197,0,0,-9.963197,140.20835,63.49603)" fill="#ff0000"/>
<path transform="matrix(1.00006,0,0,-1.00006,100.51394,119.59039)" d="M30.47272-31.69247C30.47272-30.51834 29.52092-29.56654 28.3468-29.56654 27.17268-29.56654 26.22089-30.51834 26.22089-31.69247 26.22089-32.8666 27.17268-33.81839 28.3468-33.81839 29.52092-33.81839 30.47272-32.8666 30.47272-31.69247ZM28.3468-31.69247" fill="#ff0000"/>
<path transform="matrix(1.00006,0,0,-1.00006,100.51394,119.59039)" stroke-width=".3985" stroke-linecap="butt" stroke-miterlimit="10" stroke-linejoin="miter" fill="none" stroke="#ff0000" d="M30.47272-31.69247C30.47272-30.51834 29.52092-29.56654 28.3468-29.56654 27.17268-29.56654 26.22089-30.51834 26.22089-31.69247 26.22089-32.8666 27.17268-33.81839 28.3468-33.81839 29.52092-33.81839 30.47272-32.8666 30.47272-31.69247ZM28.3468-31.69247"/>
<path transform="matrix(1.00006,0,0,-1.00006,100.51394,119.59039)" d="M6.17961-57.48668H50.51398V-37.56101H6.17961Z" fill="#ffffff"/>
<use data-text="(" xlink:href="#font_4_1" transform="matrix(9.963197,0,0,-9.963197,107.69037,158.54973)" fill="#ff0000"/>
<use data-text="2" xlink:href="#font_3_1" transform="matrix(9.963197,0,0,-9.963197,113.64073,169.6084)" fill="#ff0000"/>
<use data-text="," xlink:href="#font_1_1" transform="matrix(9.963197,0,0,-9.963197,118.622028,169.6084)" fill="#ff0000"/>
<use data-text="&#x2212;" xlink:href="#font_2_1" transform="matrix(9.963197,0,0,-9.963197,123.05029,169.6084)" fill="#ff0000"/>
<use data-text="&#x221a;" xlink:href="#font_2_2" transform="matrix(9.963197,0,0,-9.963197,130.79975,161.3669)" fill="#ff0000"/>
<path transform="matrix(1.00006,0,0,-1.00006,-74.82857,63.005998)" stroke-width=".3985" stroke-linecap="butt" stroke-miterlimit="10" stroke-linejoin="miter" fill="none" stroke="#ff0000" d="M213.918-98.156H218.899"/>
<use data-text="5" xlink:href="#font_3_2" transform="matrix(9.963197,0,0,-9.963197,139.10227,169.6084)" fill="#ff0000"/>
<use data-text=")" xlink:href="#font_4_2" transform="matrix(9.963197,0,0,-9.963197,144.08356,158.54973)" fill="#ff0000"/>
</svg>
