<svg xmlns="http://www.w3.org/2000/svg" xmlns:xlink="http://www.w3.org/1999/xlink" version="1.1" width="160" height="161" viewBox="0 0 160 161">
<defs>
<path id="font_1_3" d="M.33399964 .30233766C.33999635 .32835389 .36299134 .42037965 .43299867 .42037965 .43798829 .42037965 .46199037 .42037965 .48298646 .40734864 .45498658 .402359 .43499757 .37734986 .43499757 .35334779 .43499757 .33735658 .44599916 .31835938 .47299195 .31835938 .49499513 .31835938 .5269928 .3363495 .5269928 .37635804 .5269928 .42837525 .46798707 .4423828 .43399049 .4423828 .37599183 .4423828 .34098817 .38935853 .32899476 .36634828 .3039856 .43237306 .25 .4423828 .22099304 .4423828 .116989139 .4423828 .05999756 .3133545 .05999756 .28834535 .05999756 .27833558 .069992069 .27833558 .07199097 .27833558 .07998657 .27833558 .08299255 .28033448 .084991458 .28933717 .11898804 .39535523 .18499756 .42037965 .21899414 .42037965 .23799134 .42037965 .272995 .4113617 .272995 .35334779 .272995 .32235719 .2559967 .25532533 .21899414 .11528015 .20298767 .053268434 .16799927 .011245728 .12399292 .011245728 .117996219 .011245728 .09498596 .011245728 .07398987 .024276734 .09899902 .029266358 .12098694 .05027771 .12098694 .07827759 .12098694 .105270389 .09899902 .11328125 .083999637 .11328125 .053985597 .11328125 .0289917 .08728027 .0289917 .055267335 .0289917 .009246826 .07899475-.0107421879 .12298584-.0107421879 .18899536-.0107421879 .22499085 .059280397 .22799683 .0652771 .23999024 .028274537 .27598573-.0107421879 .33599855-.0107421879 .43899537-.0107421879 .49598695 .118270877 .49598695 .14328003 .49598695 .1532898 .4869995 .1532898 .48399354 .1532898 .47499085 .1532898 .47299195 .14929199 .47099305 .14228821 .43798829 .03527832 .36999513 .011245728 .33799745 .011245728 .29899598 .011245728 .2829895 .043273927 .2829895 .07727051 .2829895 .09927368 .2889862 .121276859 .2999878 .16529846L.33399964 .30233766Z"/>
<path id="font_1_4" d="M.48599244 .38136292C.48999024 .39537049 .48999024 .39736939 .48999024 .40437318 .48999024 .42237855 .47599793 .43138124 .46099855 .43138124 .45098878 .43138124 .43499757 .42536927 .42599488 .41036988 .42399598 .405365 .41600038 .37435914 .4119873 .35635377 .40499879 .33035279 .397995 .30334474 .3919983 .27633668L.34700013 .09628296C.34298707 .08126831 .2999878 .011245728 .23399353 .011245728 .18299866 .011245728 .17199707 .055267335 .17199707 .0922699 .17199707 .1382904 .18899536 .20030213 .22299195 .28833009 .23899842 .3293457 .24299622 .3403473 .24299622 .36035157 .24299622 .405365 .21099854 .4423828 .16099549 .4423828 .06599426 .4423828 .0289917 .29733277 .0289917 .28833009 .0289917 .27833558 .038986207 .27833558 .040985109 .27833558 .050994874 .27833558 .051986696 .28033448 .056991579 .29634095 .083999637 .3903656 .12399292 .42037965 .1579895 .42037965 .1659851 .42037965 .18299866 .42037965 .18299866 .3883667 .18299866 .36335755 .17298889 .3373413 .1659851 .31834413 .12599182 .21231079 .10798645 .1552887 .10798645 .10827637 .10798645 .019256592 .17098999-.0107421879 .22999573-.0107421879 .2689972-.0107421879 .30299378 .0062561037 .33099366 .03425598 .31799317-.017745972 .30599977-.06674194 .2659912-.11973572 .23999024-.15385437 .20199585-.18309021 .1559906-.18309021 .14199829-.18309021 .09700012-.18005371 .07998657-.14074707 .09599304-.14074707 .10899353-.14074707 .12298584-.1287384 .1329956-.11973572 .14299011-.10673523 .14299011-.08773804 .14299011-.056747438 .115997318-.052734376 .10598755-.052734376 .08299255-.052734376 .049987794-.068740848 .049987794-.11773682 .049987794-.16796875 .09399414-.20507813 .1559906-.20507813 .25898744-.20507813 .3619995-.11373901 .3899994-.00074768069L.48599244 .38136292Z"/>
<path id="font_2_5" d="M.44898988 .20022583C.44898988 .3193512 .36698915 .41944886 .25898744 .41944886 .21099854 .41944886 .16799927 .40345765 .13198853 .36842347V.5637665C.1519928 .5577698 .18499756 .55078127 .21699524 .55078127 .33999635 .55078127 .4099884 .6417694 .4099884 .6547699 .4099884 .6607666 .40699769 .6657715 .3999939 .6657715 .39898683 .6657715 .39698792 .6657715 .3919983 .66278079 .37199403 .6537781 .32299806 .6337738 .2559967 .6337738 .21598816 .6337738 .16999817 .6407776 .12298584 .6617737 .114990238 .66477969 .11299133 .66477969 .11099243 .66477969 .100997928 .66477969 .100997928 .6567688 .100997928 .6407776V.34439088C.100997928 .32637025 .100997928 .31835938 .114990238 .31835938 .12199402 .31835938 .12399292 .32136537 .12799073 .32736207 .13899231 .3433838 .17599488 .39746095 .25698854 .39746095 .30899049 .39746095 .33399964 .35139466 .34199525 .33337403 .35798646 .29632569 .3600006 .25727845 .3600006 .20722962 .3600006 .17222595 .3600006 .11222839 .33599855 .07035828 .31199647 .031463624 .2749939 .0055389406 .22898865 .0055389406 .1559906 .0055389406 .09899902 .058380128 .08198547 .11723328 .084991458 .1162262 .08799744 .115234378 .09899902 .115234378 .13198853 .115234378 .14898682 .14022827 .14898682 .16423035 .14898682 .18823242 .13198853 .21322632 .09899902 .21322632 .084991458 .21322632 .049987794 .20622254 .049987794 .16023255 .049987794 .07434082 .11898804-.022460938 .23098755-.022460938 .34700013-.022460938 .44898988 .073349 .44898988 .20022583Z"/>
<path id="font_2_4" d="M.2939911 .64004519C.2939911 .66400149 .2939911 .6660156 .2709961 .6660156 .20899964 .60227969 .12098694 .60227969 .08898926 .60227969V.57128909C.10899353 .57128909 .16799927 .57128909 .21998596 .5972748V.07902527C.21998596 .042999269 .21699524 .0309906 .1269989 .0309906H.09498596V0C.12998963 .0029907227 .21699524 .0029907227 .25698854 .0029907227 .29699708 .0029907227 .38398744 .0029907227 .4189911 0V.0309906H.3869934C.29699708 .0309906 .2939911 .041992189 .2939911 .07902527V.64004519Z"/>
<path id="font_2_3" d="M.45999146 .31976319C.45999146 .39982606 .45498658 .47988893 .41999818 .5539398 .37399293 .65000918 .2919922 .6660156 .25 .6660156 .18998719 .6660156 .116989139 .64001467 .07598877 .54693606 .04399109 .47789 .038986207 .39982606 .038986207 .31976319 .038986207 .24472046 .042999269 .15464783 .083999637 .07859802 .1269989-.0024719239 .19999695-.022460938 .24899292-.022460938 .30299378-.022460938 .3789978-.0014648438 .4229889 .09359741 .45498658 .16265869 .45999146 .2407074 .45999146 .31976319M.24899292-.00047302247C.20999146-.00047302247 .15098572 .024551392 .1329956 .12062073 .12199402 .18066406 .12199402 .2727356 .12199402 .3317871 .12199402 .39582826 .12199402 .46188355 .12998963 .5159149 .14898682 .63500979 .22399903 .64401248 .24899292 .64401248 .28199769 .64401248 .34799195 .6259918 .36698915 .52693179 .3769989 .47088624 .3769989 .39482118 .3769989 .3317871 .3769989 .25672914 .3769989 .18867493 .3659973 .12461853 .35099793 .029556275 .2939911-.00047302247 .24899292-.00047302247Z"/>
<path id="font_2_6" d="M.68699648 .32714845C.70199587 .32714845 .72099307 .32714845 .72099307 .34713746 .72099307 .36714173 .70199587 .36714173 .6879883 .36714173H.08898926C.07499695 .36714173 .055999757 .36714173 .055999757 .34713746 .055999757 .32714845 .07499695 .32714845 .08999634 .32714845H.68699648M.6879883 .13284302C.70199587 .13284302 .72099307 .13284302 .72099307 .15284729 .72099307 .17285156 .70199587 .17285156 .68699648 .17285156H.08999634C.07499695 .17285156 .055999757 .17285156 .055999757 .15284729 .055999757 .13284302 .07499695 .13284302 .08898926 .13284302H.6879883Z"/>
<path id="font_1_2" d="M.47099305 .3773346C.47200013 .3833313 .47399903 .38833619 .47399903 .39535523 .47399903 .41236878 .46199037 .42237855 .44499208 .42237855 .43499757 .42237855 .4079895 .41537477 .4039917 .3793335 .38598634 .41636659 .35099793 .4423828 .31098939 .4423828 .19699097 .4423828 .07299805 .30226136 .07299805 .15812683 .07299805 .059020997 .13398743 0 .20599365 0 .2649994 0 .31199647 .04701233 .32199098 .058029176L.32299806 .057022096C.3019867-.031982423 .2899933-.07295227 .2899933-.07495117 .28599549-.08395386 .2519989-.18309021 .1459961-.18309021 .1269989-.18309021 .09399414-.18206787 .06599426-.17297364 .09599304-.16394043 .10699463-.13793946 .10699463-.12094116 .10699463-.10494995 .09599304-.0859375 .068984989-.0859375 .04699707-.0859375 .01499939-.10394287 .01499939-.14395142 .01499939-.18508911 .051986696-.20507813 .147995-.20507813 .272995-.20507813 .34498597-.12693787 .3600006-.06695557L.47099305 .3773346M.34098817 .12809754C.33499146 .10206604 .31199647 .077041629 .2899933 .058029176 .2689972 .040008546 .23799134 .021987915 .20899964 .021987915 .15899658 .021987915 .14399719 .074035648 .14399719 .11407471 .14399719 .16212464 .17298889 .28024293 .19999695 .33128358 .22698975 .38034059 .269989 .42037965 .31199647 .42037965 .37799073 .42037965 .3919983 .33929444 .3919983 .33428956 .3919983 .32928468 .3899994 .3232727 .3889923 .3192749L.34098817 .12809754Z"/>
<path id="font_2_1" d="M.33099366-.2400055C.33099366-.23701477 .33099366-.23500061 .31399537-.21800232 .18899536-.0920105 .15699768 .09700012 .15699768 .25 .15699768 .42399598 .19499207 .59799197 .31799317 .72299197 .33099366 .73498538 .33099366 .7369995 .33099366 .73999026 .33099366 .746994 .32699586 .75 .32099916 .75 .31098939 .75 .22099304 .6819916 .1619873 .5549927 .11099243 .44499208 .09899902 .33399964 .09899902 .25 .09899902 .17199707 .10998535 .050994874 .16499329-.06201172 .22499085-.18501282 .31098939-.25 .32099916-.25 .32699586-.25 .33099366-.24700928 .33099366-.2400055Z"/>
<path id="font_2_2" d="M.2889862 .25C.2889862 .32798768 .27799989 .44898988 .22299195 .56199648 .16299439 .68499758 .07699585 .75 .066986087 .75 .06098938 .75 .056991579 .74598696 .056991579 .73999026 .056991579 .7369995 .056991579 .73498538 .07598877 .71699526 .17399597 .6179962 .23098755 .45899964 .23098755 .25 .23098755 .07899475 .19400025-.09700012 .069992069-.2230072 .056991579-.23500061 .056991579-.23701477 .056991579-.2400055 .056991579-.2460022 .06098938-.25 .066986087-.25 .07699585-.25 .16699219-.18200684 .22599793-.055007936 .2769928 .054992677 .2889862 .16600037 .2889862 .25Z"/>
<path id="font_2_8" d="M.1769867 .69433596 .032989503 .68333438V.6523285C.102996829 .6523285 .11099243 .6453247 .11099243 .5962982V.07601929C.11099243 .0309906 .099990848 .0309906 .032989503 .0309906V0C.06599426 .0009918213 .11898804 .0029907227 .14399719 .0029907227 .16899109 .0029907227 .21798706 .0009918213 .25498963 0V.0309906C.18798828 .0309906 .1769867 .0309906 .1769867 .07601929V.69433596Z"/>
<path id="font_2_9" d="M.47099305 .21424866C.47099305 .34223939 .37098695 .4482422 .25 .4482422 .125 .4482422 .027999878 .3392334 .027999878 .21424866 .027999878 .085250858 .13198853-.0107421879 .24899292-.0107421879 .36999513-.0107421879 .47099305 .087249759 .47099305 .21424866M.25 .014251709C.20698548 .014251709 .16299439 .035247804 .13598633 .08125305 .11099243 .12524414 .11099243 .18624878 .11099243 .22224427 .11099243 .26124574 .11099243 .31523133 .1349945 .35923768 .1619873 .40522767 .20899964 .426239 .24899292 .426239 .29299928 .426239 .33599855 .40423585 .3619995 .36123658 .3880005 .3182373 .3880005 .26023866 .3880005 .22224427 .3880005 .18624878 .3880005 .13224793 .3659973 .08824158 .34399415 .04324341 .2999878 .014251709 .25 .014251709Z"/>
<path id="font_2_7" d="M.22200012 .17240906C.1349945 .17240906 .1349945 .2723999 .1349945 .2953949 .1349945 .3223877 .13598633 .35438539 .15098572 .37937928 .15899658 .39137269 .18199158 .41937257 .22200012 .41937257 .30899049 .41937257 .30899049 .3193817 .30899049 .29638673 .30899049 .26939393 .30799867 .23739624 .29299928 .21240235 .2849884 .20040894 .2619934 .17240906 .22200012 .17240906M.10598755 .13330078C.10598755 .1373291 .10598755 .16040039 .12298584 .18040467 .1619873 .15240479 .20298767 .14941406 .22200012 .14941406 .31498719 .14941406 .38398744 .21839905 .38398744 .2953949 .38398744 .3323822 .36799623 .36938478 .34298707 .39237977 .3789978 .42637635 .4149933 .43138124 .43299867 .43138124 .43499757 .43138124 .43998719 .43138124 .44299317 .43037416 .43199159 .42637635 .4269867 .41537477 .4269867 .40338136 .4269867 .38638307 .43998719 .3743744 .45599366 .3743744 .46598817 .3743744 .4850006 .38137818 .4850006 .40437318 .4850006 .42137147 .47299195 .45336915 .43399049 .45336915 .4139862 .45336915 .36999513 .44737245 .32798768 .40637208 .28599549 .43937684 .24398804 .4423828 .22200012 .4423828 .1289978 .4423828 .05999756 .37338258 .05999756 .29638673 .05999756 .25239564 .08198547 .21440125 .10699463 .19340515 .09399414 .17840576 .07598877 .14538574 .07598877 .11013794 .07598877 .07891846 .08898926 .04083252 .11999512 .020828248 .05999756 .003829956 .027999878-.039138795 .027999878-.07911682 .027999878-.15107727 .1269989-.20605469 .24899292-.20605469 .36698915-.20605469 .47099305-.15507508 .47099305-.07711792 .47099305-.042144777 .45700074 .008834839 .4059906 .036834718 .35299684 .064834598 .29499818 .064834598 .23399353 .064834598 .20899964 .064834598 .1659851 .064834598 .15899658 .065841678 .1269989 .069869998 .10598755 .10107422 .10598755 .13330078M.25-.18305969C.14898682-.18305969 .07998657-.13209534 .07998657-.07911682 .07998657-.03314209 .117996219 .003829956 .1619873 .0068359377H.22099304C.30699159 .0068359377 .4189911 .0068359377 .4189911-.07911682 .4189911-.13308716 .34799195-.18305969 .25-.18305969Z"/>
<path id="font_3_2" d="M.33499146 .63612368C.33499146 .6630554 .33299256 .6640625 .30499269 .6640625 .24099732 .6014404 .1499939 .6004486 .10899353 .6004486V.5644531C.1329956 .5644531 .19898987 .5644531 .2539978 .592453V.08203125C.2539978 .04899597 .2539978 .035995485 .1539917 .035995485H.115997318V0C.13398743 .0009918213 .25698854 .0039978029 .2939911 .0039978029 .32499696 .0039978029 .45098878 .0009918213 .47299195 0V.035995485H.43499757C.33499146 .035995485 .33499146 .04899597 .33499146 .08203125V.63612368Z"/>
<path id="font_3_1" d="M.5159912 .31925965C.5159912 .42918397 .5029907 .50813296 .45700074 .5780945 .42599488 .62405398 .3639984 .6640625 .28399659 .6640625 .051986696 .6640625 .051986696 .39120484 .051986696 .31925965 .051986696 .2472992 .051986696-.01953125 .28399659-.01953125 .5159912-.01953125 .5159912 .2472992 .5159912 .31925965M.28399659 .008468628C.23799134 .008468628 .1769867 .035446168 .15699768 .117385867 .14299011 .17634583 .14299011 .25830079 .14299011 .33224488 .14299011 .40519715 .14299011 .4811554 .1579895 .53611758 .1789856 .6150665 .24299622 .63604739 .28399659 .63604739 .33799745 .63604739 .3899994 .6030731 .4079895 .545105 .42399598 .4911499 .4249878 .41918946 .4249878 .33224488 .4249878 .25830079 .4249878 .18434143 .4119873 .12138367 .3919983 .030441285 .32398988 .008468628 .28399659 .008468628Z"/>
<path id="font_1_1" d="M.36698915 .3996582H.45298768C.47299195 .3996582 .48298646 .3996582 .48298646 .41966249 .48298646 .43066407 .47299195 .43066407 .45599366 .43066407H.37298585L.3939972 .5449524C.397995 .5660095 .4119873 .6370239 .41799928 .6490326 .4269867 .66804507 .44400025 .68307498 .46499635 .68307498 .46899415 .68307498 .49499513 .68307498 .5139923 .66503909 .46998597 .661026 .45999146 .6260376 .45999146 .6110382 .45999146 .58802798 .47799684 .57603457 .49699403 .57603457 .522995 .57603457 .5519867 .5980377 .5519867 .6360321 .5519867 .6820679 .5059967 .7050781 .46499635 .7050781 .43099977 .7050781 .36799623 .68707278 .33799745 .58802798 .33198548 .56700137 .32899476 .5569763 .30499269 .43066407H.23599243C.21699524 .43066407 .20599365 .43066407 .20599365 .4116516 .20599365 .3996582 .21499634 .3996582 .23399353 .3996582H.2999878L.22499085 .0048828127C.20698548-.09207153 .18998719-.18309021 .13798523-.18309021 .13398743-.18309021 .10899353-.18309021 .08999634-.16506958 .13598633-.1620636 .14498902-.12606812 .14498902-.111068729 .14498902-.08807373 .1269989-.07606506 .10798645-.07606506 .08198547-.07606506 .052993776-.09806824 .052993776-.13606262 .052993776-.18109131 .09700012-.20507813 .13798523-.20507813 .19299317-.20507813 .23298645-.14607239 .25099183-.108062747 .2829895-.04508972 .30599977 .07583618 .30699159 .082839969L.36698915 .3996582Z"/>
<path id="font_4_1" d="M.24899292 .10601807C.23899842 .072021488 .20599365 .018234253 .15499878 .018234253 .1519928 .018234253 .12199402 .018234253 .100997928 .03215027 .14199829 .04508972 .14498902 .08100891 .14498902 .087020877 .14498902 .10900879 .12799073 .12402344 .10499573 .12402344 .07699585 .12402344 .04798889 .10002136 .04798889 .0630188 .04798889 .01322937 .10398865-.009765625 .15299988-.009765625 .19898987-.009765625 .23999024 .019226075 .2649994 .061019899 .2889862 .008224487 .34399415-.009765625 .38398744-.009765625 .49899293-.009765625 .55999758 .11502075 .55999758 .14305115 .55999758 .15608216 .5469971 .15608216 .5439911 .15608216 .5299988 .15608216 .5289917 .15107727 .5249939 .13905335 .5039978 .07002258 .44400025 .018234253 .3880005 .018234253 .34799195 .018234253 .32699586 .04508972 .32699586 .08302307 .32699586 .10900879 .35099793 .20018006 .3789978 .31140138 .39898683 .38841249 .44400025 .4133911 .47698976 .4133911 .47898866 .4133911 .5099945 .4133911 .5309906 .39941407 .49899293 .39041139 .4869995 .3624115 .4869995 .34440614 .4869995 .32240296 .5039978 .30740357 .5269928 .30740357 .5499878 .30740357 .58299258 .32640077 .58299258 .3684082 .58299258 .4243927 .5189972 .44140626 .47898866 .44140626 .42900086 .44140626 .3889923 .4084015 .36698915 .3704071 .34899903 .4113922 .30299378 .44140626 .24699402 .44140626 .1349945 .44140626 .070999149 .31840516 .070999149 .2883606 .070999149 .27534486 .084991458 .27534486 .08799744 .27534486 .100997928 .27534486 .101989749 .27934266 .10699463 .29237367 .13198853 .3704071 .19499207 .4133911 .24398804 .4133911 .2769928 .4133911 .3039856 .395401 .3039856 .3474121 .3039856 .32740785 .2919922 .27734376 .2829895 .24327088L.24899292 .10601807Z"/>
</defs>
<path transform="matrix(1.00005,0,0,-1.00003,21.457322,139.85681)" stroke-width=".3985" stroke-linecap="butt" stroke-miterlimit="10" stroke-linejoin="miter" fill="none" stroke="#00aeef" d="M-19.84311-19.84311H119.05867M-19.84311-9.92155H119.05867M-19.84311 0H119.05867M-19.84311 9.92155H119.05867M-19.84311 19.84311H119.05867M-19.84311 29.76466H119.05867M-19.84311 39.68622H119.05867M-19.84311 49.60777H119.05867M-19.84311 59.52933H119.05867M-19.84311 69.45088H119.05867M-19.84311 79.37244H119.05867M-19.84311 89.29399H119.05867M-19.84311 99.21555H119.05867M-19.84311 109.13712H119.05867M-19.84311 119.05518H119.05867M-19.84311-19.84311V119.05867M-9.92155-19.84311V119.05867M0-19.84311V119.05867M9.92155-19.84311V119.05867M19.84311-19.84311V119.05867M29.76466-19.84311V119.05867M39.68622-19.84311V119.05867M49.60777-19.84311V119.05867M59.52933-19.84311V119.05867M69.45088-19.84311V119.05867M79.37244-19.84311V119.05867M89.29399-19.84311V119.05867M99.21555-19.84311V119.05867M109.13712-19.84311V119.05867M119.05518-19.84311V119.05867M119.05867 119.05867"/>
<path transform="matrix(1.00005,0,0,-1.00003,21.457322,139.85681)" stroke-width=".79701" stroke-linecap="butt" stroke-miterlimit="10" stroke-linejoin="miter" fill="none" stroke="#000000" d="M-19.84311 0H126.55339"/>
<path transform="matrix(1.00005,0,0,-1.00003,148.01703,139.85681)" d="M1.0361 0C-.25902 .25902-1.55415 .77707-3.1083 1.68365-1.55415 .51805-1.55415-.51805-3.1083-1.68365-1.55415-.77707-.25902-.25902 1.0361 0Z"/>
<path transform="matrix(1.00005,0,0,-1.00003,148.01703,139.85681)" stroke-width=".79701" stroke-linecap="butt" stroke-linejoin="round" fill="none" stroke="#000000" d="M1.0361 0C-.25902 .25902-1.55415 .77707-3.1083 1.68365-1.55415 .51805-1.55415-.51805-3.1083-1.68365-1.55415-.77707-.25902-.25902 1.0361 0Z"/>
<use data-text="x" xlink:href="#font_1_3" transform="matrix(9.963098,0,0,-9.962899,153.1709,142.00188)"/>
<path transform="matrix(1.00005,0,0,-1.00003,21.457322,139.85681)" stroke-width=".79701" stroke-linecap="butt" stroke-miterlimit="10" stroke-linejoin="miter" fill="none" stroke="#000000" d="M0-19.84311V126.55339"/>
<path transform="matrix(0,-1.00003,-1.00005,-0,21.457322,13.299622)" d="M1.0361 0C-.25902 .25902-1.55415 .77707-3.1083 1.68365-1.55415 .51805-1.55415-.51805-3.1083-1.68365-1.55415-.77707-.25902-.25902 1.0361 0Z"/>
<path transform="matrix(0,-1.00003,-1.00005,-0,21.457322,13.299622)" stroke-width=".79701" stroke-linecap="butt" stroke-linejoin="round" fill="none" stroke="#000000" d="M1.0361 0C-.25902 .25902-1.55415 .77707-3.1083 1.68365-1.55415 .51805-1.55415-.51805-3.1083-1.68365-1.55415-.77707-.25902-.25902 1.0361 0Z"/>
<use data-text="y" xlink:href="#font_1_4" transform="matrix(9.963098,0,0,-9.962899,18.83619,6.2088015)"/>
<path transform="matrix(1.00005,0,0,-1.00003,21.457322,139.85681)" stroke-width=".3985" stroke-linecap="butt" stroke-miterlimit="10" stroke-linejoin="miter" fill="none" stroke="#000000" d="M49.60777 1.48816V-1.48831"/>
<path transform="matrix(1.00005,0,0,-1.00003,21.457322,139.85681)" d="M46.1208-12.09311H53.09474V-3.68013H46.1208Z" fill="#ffffff"/>
<use data-text="5" xlink:href="#font_2_5" transform="matrix(9.963098,0,0,-9.962899,68.576679,150.95415)"/>
<path transform="matrix(1.00005,0,0,-1.00003,21.457322,139.85681)" stroke-width=".3985" stroke-linecap="butt" stroke-miterlimit="10" stroke-linejoin="miter" fill="none" stroke="#000000" d="M1.48816 49.60777H-1.48831"/>
<path transform="matrix(1.00005,0,0,-1.00003,21.457322,139.85681)" d="M-10.65405 45.40128H-3.68011V53.81426H-10.65405Z" fill="#ffffff"/>
<use data-text="5" xlink:href="#font_2_5" transform="matrix(9.963098,0,0,-9.962899,11.798836,93.45742)"/>
<path transform="matrix(1.00005,0,0,-1.00003,21.457322,139.85681)" stroke-width=".3985" stroke-linecap="butt" stroke-miterlimit="10" stroke-linejoin="miter" fill="none" stroke="#000000" d="M99.21555 1.48816V-1.48831"/>
<path transform="matrix(1.00005,0,0,-1.00003,21.457322,139.85681)" d="M93.23787-12.09311H105.19321V-3.68013H93.23787Z" fill="#ffffff"/>
<use data-text="1" xlink:href="#font_2_4" transform="matrix(9.963098,0,0,-9.962899,115.69603,150.95415)"/>
<use data-text="0" xlink:href="#font_2_3" transform="matrix(9.963098,0,0,-9.962899,120.67758,150.95415)"/>
<path transform="matrix(1.00005,0,0,-1.00003,21.457322,139.85681)" stroke-width=".3985" stroke-linecap="butt" stroke-miterlimit="10" stroke-linejoin="miter" fill="none" stroke="#000000" d="M1.48816 99.21555H-1.48831"/>
<path transform="matrix(1.00005,0,0,-1.00003,21.457322,139.85681)" d="M-15.63547 95.00906H-3.68013V103.42204H-15.63547Z" fill="#ffffff"/>
<use data-text="1" xlink:href="#font_2_4" transform="matrix(9.963098,0,0,-9.962899,6.817589,43.84893)"/>
<use data-text="0" xlink:href="#font_2_3" transform="matrix(9.963098,0,0,-9.962899,11.799141,43.84893)"/>
<path transform="matrix(1.00005,0,0,-1.00003,21.457322,139.85681)" stroke-width=".79701" stroke-linecap="butt" stroke-dasharray="2.98883,2.98883" stroke-miterlimit="10" stroke-linejoin="miter" fill="none" stroke="#515151" d="M-18.82869-18.82869 118.04425 118.04425"/>
<path transform="matrix(-.7071353,.7071212,.7071353,.7071212,2.6277104,158.68605)" d="M1.0361 0C-.25902 .25902-1.55415 .77707-3.1083 1.68365-1.55415 .51805-1.55415-.51805-3.1083-1.68365-1.55415-.77707-.25902-.25902 1.0361 0Z" fill="#515151"/>
<path transform="matrix(-.7071353,.7071212,.7071353,.7071212,2.6277104,158.68605)" stroke-width=".79701" stroke-linecap="butt" stroke-linejoin="round" fill="none" stroke="#515151" d="M1.0361 0C-.25902 .25902-1.55415 .77707-3.1083 1.68365-1.55415 .51805-1.55415-.51805-3.1083-1.68365-1.55415-.77707-.25902-.25902 1.0361 0Z"/>
<path transform="matrix(.7071353,-.7071212,-.7071353,-.7071212,139.50746,21.809021)" d="M1.0361 0C-.25902 .25902-1.55415 .77707-3.1083 1.68365-1.55415 .51805-1.55415-.51805-3.1083-1.68365-1.55415-.77707-.25902-.25902 1.0361 0Z" fill="#515151"/>
<path transform="matrix(.7071353,-.7071212,-.7071353,-.7071212,139.50746,21.809021)" stroke-width=".79701" stroke-linecap="butt" stroke-linejoin="round" fill="none" stroke="#515151" d="M1.0361 0C-.25902 .25902-1.55415 .77707-3.1083 1.68365-1.55415 .51805-1.55415-.51805-3.1083-1.68365-1.55415-.77707-.25902-.25902 1.0361 0Z"/>
<path transform="matrix(1.00005,0,0,-1.00003,21.457322,139.85681)" d="M104.95631 91.44028H133.16098V101.65208H104.95631Z" fill="#ffffff"/>
<use data-text="y" xlink:href="#font_1_4" transform="matrix(9.963098,0,0,-9.962899,128.41165,44.48394)" fill="#515151"/>
<use data-text="=" xlink:href="#font_2_6" transform="matrix(9.963098,0,0,-9.962899,136.42105,44.48394)" fill="#515151"/>
<use data-text="x" xlink:href="#font_1_3" transform="matrix(9.963098,0,0,-9.962899,146.93759,44.48394)" fill="#515151"/>
<path transform="matrix(1.00005,0,0,-1.00003,21.457322,139.85681)" stroke-width=".79701" stroke-linecap="butt" stroke-miterlimit="10" stroke-linejoin="miter" fill="none" stroke="#ff0000" d="M.27858-18.38968C1.442-9.16447 1.442-9.16447 1.95776-6.98666 2.47353-4.80888 3.30063-4.75232 3.8164-4.1169 4.33217-3.4815 5.15927-2.81366 5.67503-2.4071 6.19078-2.00053 7.0179-1.48778 7.53365-1.18658 8.04941-.88539 8.87653-.47609 9.39227-.23631 9.90804 .00346 10.73514 .3423 11.2509 .54166 11.76666 .74101 12.59377 1.02989 13.10953 1.2005 13.62529 1.37114 14.4524 1.6222 14.96817 1.77141 15.48392 1.92062 16.31102 2.14342 16.82678 2.27599 17.34254 2.40858 18.16965 2.60764 18.68541 2.72699 19.20117 2.84633 20.02827 3.02766 20.54404 3.1362 21.0598 3.24474 21.8869 3.4098 22.40266 3.50922 22.91843 3.60864 23.74553 3.76091 24.26129 3.85272 24.77704 3.94453 25.60416 4.08574 26.1199 4.17096 26.63568 4.25616 27.46278 4.38744 27.97853 4.46692 28.49431 4.5464 29.3214 4.66925 29.83716 4.74382 30.35294 4.81837 31.18004 4.93414 31.6958 5.00436 32.21156 5.07458 33.03867 5.18365 33.55443 5.24992 34.07018 5.3162 34.8973 5.41924 35.41304 5.482 35.9288 5.54477 36.75592 5.64256 37.27167 5.70227 37.78743 5.762 38.61453 5.85551 39.1303 5.9124 39.64606 5.96928 40.47316 6.05798 40.98892 6.11224 41.5047 6.16649 42.3318 6.25154 42.84756 6.30345 43.36331 6.35535 44.19043 6.43658 44.70618 6.48633 45.22194 6.53607 46.04906 6.61418 46.5648 6.66194 47.08057 6.7097 47.90767 6.78465 48.42343 6.8306 48.9392 6.87653 49.7663 6.94885 50.28206 6.99304 50.79782 7.03723 51.62492 7.1065 52.14069 7.14912 52.65643 7.19173 53.48357 7.259 53.99931 7.30022 54.51508 7.34142 55.3422 7.40634 55.85794 7.44615 56.3737 7.48595 57.2008 7.54861 57.71657 7.58708 58.23233 7.62556 59.05943 7.68619 59.5752 7.7235 60.09096 7.7608 60.91806 7.81976 61.43382 7.85596 61.94957 7.89215 62.77669 7.94923 63.29243 7.98434 63.8082 8.01945 64.63531 8.07498 65.15108 8.10909 65.66684 8.14319 66.49393 8.19704 67.0097 8.2302 67.52547 8.26337 68.35255 8.31587 68.86833 8.34813 69.3841 8.38039 70.2112 8.43132 70.72696 8.46274 71.2427 8.49416 72.06982 8.54399 72.58557 8.5746 73.10133 8.60524 73.92845 8.6536 74.4442 8.68347 74.95996 8.71333 75.78706 8.76079 76.30283 8.78989 76.8186 8.819 77.64569 8.86482 78.16145 8.89328 78.67723 8.92174 79.50432 8.96721 80.02008 8.99504 80.53584 9.02284 81.36296 9.06662 81.87871 9.09373 82.39447 9.12085 83.22159 9.16393 83.73734 9.19048 84.2531 9.21701 85.0802 9.2591 85.59596 9.28508 86.11172 9.3111 86.93883 9.35248 87.45459 9.3779 87.97035 9.40332 88.79745 9.44344 89.31322 9.46828 89.82896 9.49313 90.65608 9.53261 91.17183 9.55699 91.6876 9.58138 92.51472 9.62012 93.03047 9.64404 93.54623 9.66797 94.37334 9.706 94.8891 9.72943 95.40486 9.75284 96.23196 9.78989 96.74773 9.81284 97.26349 9.8358 98.09059 9.87236 98.60635 9.8949 99.1221 9.91743 99.94922 9.95319 100.46497 9.97528 100.98073 9.99738 101.80785 10.03244 102.3236 10.05415 102.83936 10.07587 103.66647 10.11049 104.18224 10.13182 104.698 10.15314 105.5251 10.18689 106.04086 10.20781 106.55663 10.22876 107.38373 10.26216 107.89949 10.28276 108.41524 10.30336 109.24236 10.33609 109.7581 10.35634 110.27386 10.37657 111.10098 10.40877 111.61673 10.4287 112.13249 10.44864 112.9596 10.48042 113.47536 10.5 113.99112 10.51958 114.81822 10.55054 115.334 10.5698 115.84976 10.58905 116.67685 10.61987 117.19263 10.63884 117.70837 10.65779 119.05124 10.7065 117.61763 10.6545"/>
<path transform="matrix(-.12509625,.9921398,.99215957,.12509376,21.735936,158.24704)" d="M1.0361 0C-.25902 .25902-1.55415 .77707-3.1083 1.68365-1.55415 .51805-1.55415-.51805-3.1083-1.68365-1.55415-.77707-.25902-.25902 1.0361 0Z" fill="#ff0000"/>
<path transform="matrix(-.12509625,.9921398,.99215957,.12509376,21.735936,158.24704)" stroke-width=".79701" stroke-linecap="butt" stroke-linejoin="round" fill="none" stroke="#ff0000" d="M1.0361 0C-.25902 .25902-1.55415 .77707-3.1083 1.68365-1.55415 .51805-1.55415-.51805-3.1083-1.68365-1.55415-.77707-.25902-.25902 1.0361 0Z"/>
<path transform="matrix(.9993599,-.036251088,-.03625181,-.99934008,139.08083,129.202)" d="M1.0361 0C-.25902 .25902-1.55415 .77707-3.1083 1.68365-1.55415 .51805-1.55415-.51805-3.1083-1.68365-1.55415-.77707-.25902-.25902 1.0361 0Z" fill="#ff0000"/>
<path transform="matrix(.9993599,-.036251088,-.03625181,-.99934008,139.08083,129.202)" stroke-width=".79701" stroke-linecap="butt" stroke-linejoin="round" fill="none" stroke="#ff0000" d="M1.0361 0C-.25902 .25902-1.55415 .77707-3.1083 1.68365-1.55415 .51805-1.55415-.51805-3.1083-1.68365-1.55415-.77707-.25902-.25902 1.0361 0Z"/>
<path transform="matrix(1.00005,0,0,-1.00003,21.457322,139.85681)" stroke-width=".79701" stroke-linecap="butt" stroke-miterlimit="10" stroke-linejoin="miter" fill="none" stroke="#0000ff" d="M-18.40892 .13075C-19.49821 .10675-19.49821 .10675-19.36577 .11005-19.2333 .11334-19.02087 .11905-18.88843 .12291-18.75597 .12677-18.54355 .13364-18.41109 .13791-18.27864 .14217-18.06621 .14883-17.93375 .15364-17.8013 .15846-17.58888 .1672-17.45642 .17256-17.32396 .17795-17.11154 .18648-16.97908 .1924-16.84663 .19832-16.6342 .20863-16.50174 .21526-16.36928 .22186-16.15686 .23267-16.02441 .2401-15.89195 .24753-15.67952 .2606-15.54707 .26886-15.41461 .27711-15.2022 .29036-15.06973 .29958-14.93727 .3088-14.72485 .32498-14.5924 .33531-14.45995 .34564-14.24751 .3625-14.11507 .37407-13.9826 .38564-13.77019 .40579-13.63773 .41873-13.50528 .43167-13.29285 .453-13.16039 .46733-13.02794 .48166-12.81552 .50587-12.68306 .52199-12.55061 .53809-12.33818 .56541-12.20572 .58345-12.07327 .60146-11.86086 .63177-11.7284 .65187-11.59595 .67198-11.38351 .70587-11.25105 .72832-11.11859 .75078-10.90617 .78865-10.77373 .8137-10.64125 .83876-10.42883 .88086-10.29639 .90894-10.16393 .93701-9.95149 .98471-9.81905 1.01613-9.68658 1.04752-9.47417 1.1003-9.34172 1.13525-9.20926 1.17024-8.99683 1.22922-8.86438 1.26819-8.73192 1.30713-8.5195 1.37244-8.38702 1.41609-8.25458 1.45973-8.04216 1.5339-7.9097 1.58278-7.77725 1.63165-7.56482 1.714-7.43236 1.76837-7.29991 1.82275-7.0875 1.914-6.95503 1.97473-6.82259 2.03545-6.61015 2.13802-6.47769 2.20605-6.34523 2.2741-6.13281 2.38908-6.00037 2.46509-5.8679 2.54108-5.65547 2.66896-5.52303 2.75378-5.39056 2.8386-5.17815 2.98166-5.0457 3.0764-4.91324 3.17113-4.7008 3.33067-4.56836 3.43655-4.4359 3.54245-4.22348 3.72113-4.09102 3.83955-3.95856 3.95798-3.74614 4.15791-3.61368 4.2901-3.48123 4.42227-3.2688 4.64465-3.13634 4.79227-3.00389 4.93987-2.79147 5.18898-2.65901 5.35391-2.52657 5.51888-2.31413 5.7969-2.18167 5.98114-2.04922 6.16537-1.8368 6.47592-1.70433 6.68178-1.57188 6.88763-1.35947 7.23483-1.227 7.46477-1.09454 7.6947-.88211 8.08226-.74966 8.33905-.6172 8.59583-.40479 9.0289-.27234 9.31552-.13988 9.60214 .07251 10.08456 .20496 10.40477 .33743 10.725 .54985 11.26546 .6823 11.62347 .81476 11.98148 1.02719 12.58513 1.15964 12.98508 1.2921 13.38504 1.50452 14.05931 1.63698 14.50612 1.76942 14.95291 1.98186 15.70612 2.11432 16.20534 2.24677 16.70453 2.45918 17.5464 2.59164 18.10408 2.72409 18.66173 2.93652 19.60165 3.06898 20.2246 3.20143 20.84755 3.41385 21.89787 3.54631 22.59387 3.67877 23.28986 3.89119 24.46326 4.02365 25.2408 4.15611 26.01831 4.36853 27.32921 4.50098 28.19777 4.63345 29.0663 4.84587 30.53029 4.97832 31.50066 5.11078 32.47101 5.32321 34.10738 5.45566 35.19142 5.58812 36.27545 5.80054 38.10269 5.93298 39.31363 6.06544 40.52458 6.27788 42.56621 6.41034 43.9191 6.54279 45.272 6.7552 47.553 6.88768 49.06442 7.02013 50.57585 7.23254 53.12404 7.365 54.81242 7.49745 56.50084 7.70988 59.34708 7.84235 61.23323 7.9748 63.11938 8.18721 66.29932 8.31967 68.40659 8.45212 70.51384 8.66455 74.06691 8.79701 76.42091 8.92947 78.77493 9.14189 82.74303 9.27434 85.37267 9.4068 88.0023 9.61923 92.43536 9.75168 95.37355 9.88414 98.31174 10.09656 103.26703 10.229 106.54907 10.36147 109.83113 10.70634 119.02823 10.65262 117.5947"/>
<path transform="matrix(-.99976,.022050664,.022051102,.99974009,3.0474816,139.72605)" d="M1.0361 0C-.25902 .25902-1.55415 .77707-3.1083 1.68365-1.55415 .51805-1.55415-.51805-3.1083-1.68365-1.55415-.77707-.25902-.25902 1.0361 0Z" fill="#0000ff"/>
<path transform="matrix(-.99976,.022050664,.022051102,.99974009,3.0474816,139.72605)" stroke-width=".79701" stroke-linecap="butt" stroke-linejoin="round" fill="none" stroke="#0000ff" d="M1.0361 0C-.25902 .25902-1.55415 .77707-3.1083 1.68365-1.55415 .51805-1.55415-.51805-3.1083-1.68365-1.55415-.77707-.25902-.25902 1.0361 0Z"/>
<path transform="matrix(.03746187,-.99928006,-.9992999,-.037461126,32.110475,22.258576)" d="M1.0361 0C-.25902 .25902-1.55415 .77707-3.1083 1.68365-1.55415 .51805-1.55415-.51805-3.1083-1.68365-1.55415-.77707-.25902-.25902 1.0361 0Z" fill="#0000ff"/>
<path transform="matrix(.03746187,-.99928006,-.9992999,-.037461126,32.110475,22.258576)" stroke-width=".79701" stroke-linecap="butt" stroke-linejoin="round" fill="none" stroke="#0000ff" d="M1.0361 0C-.25902 .25902-1.55415 .77707-3.1083 1.68365-1.55415 .51805-1.55415-.51805-3.1083-1.68365-1.55415-.77707-.25902-.25902 1.0361 0Z"/>
<path transform="matrix(1.00005,0,0,-1.00003,21.457322,139.85681)" d="M66.97325 22.79073H131.45784V36.73861H66.97325Z" fill="#ffffff"/>
<use data-text="g" xlink:href="#font_1_2" transform="matrix(9.963098,0,0,-9.962899,90.42677,112.58199)" fill="#ff0000"/>
<use data-text="(" xlink:href="#font_2_1" transform="matrix(9.963098,0,0,-9.962899,95.536029,112.58199)" fill="#ff0000"/>
<use data-text="x" xlink:href="#font_1_3" transform="matrix(9.963098,0,0,-9.962899,99.410228,112.58199)" fill="#ff0000"/>
<use data-text=")" xlink:href="#font_2_2" transform="matrix(9.963098,0,0,-9.962899,105.10451,112.58199)" fill="#ff0000"/>
<use data-text="=" xlink:href="#font_2_6" transform="matrix(9.963098,0,0,-9.962899,111.729969,112.58199)" fill="#ff0000"/>
<use data-text="l" xlink:href="#font_2_8" transform="matrix(9.963098,0,0,-9.962899,122.24104,112.58199)" fill="#ff0000"/>
<use data-text="o" xlink:href="#font_2_9" transform="matrix(9.963098,0,0,-9.962899,125.000827,112.58199)" fill="#ff0000"/>
<use data-text="g" xlink:href="#font_2_7" transform="matrix(9.963098,0,0,-9.962899,129.98236,112.58199)" fill="#ff0000"/>
<use data-text="1" xlink:href="#font_3_2" transform="matrix(6.9741489,0,0,-6.9740097,135.132,115.018077)" fill="#ff0000"/>
<use data-text="0" xlink:href="#font_3_1" transform="matrix(6.9741489,0,0,-6.9740097,139.1003,115.018077)" fill="#ff0000"/>
<use data-text="x" xlink:href="#font_1_3" transform="matrix(9.963098,0,0,-9.962899,145.2335,112.58199)" fill="#ff0000"/>
<path transform="matrix(1.00005,0,0,-1.00003,21.457322,139.85681)" d="M23.78761 104.14746H75.42793V118.09534H23.78761Z" fill="#ffffff"/>
<use data-text="f" xlink:href="#font_1_1" transform="matrix(9.963098,0,0,-9.962899,47.23861,31.22255)" fill="#0000ff"/>
<use data-text="(" xlink:href="#font_2_1" transform="matrix(9.963098,0,0,-9.962899,53.188905,31.22255)" fill="#0000ff"/>
<use data-text="x" xlink:href="#font_1_3" transform="matrix(9.963098,0,0,-9.962899,57.063097,31.22255)" fill="#0000ff"/>
<use data-text=")" xlink:href="#font_2_2" transform="matrix(9.963098,0,0,-9.962899,62.757387,31.22255)" fill="#0000ff"/>
<use data-text="=" xlink:href="#font_2_6" transform="matrix(9.963098,0,0,-9.962899,69.382839,31.22255)" fill="#0000ff"/>
<use data-text="1" xlink:href="#font_2_4" transform="matrix(9.963098,0,0,-9.962899,79.8939,31.22255)" fill="#0000ff"/>
<use data-text="0" xlink:href="#font_2_3" transform="matrix(9.963098,0,0,-9.962899,84.87545,31.22255)" fill="#0000ff"/>
<use data-text="x" xlink:href="#font_4_1" transform="matrix(6.9741489,0,0,-6.9740097,89.87873,27.607445)" fill="#0000ff"/>
</svg>
