<svg xmlns="http://www.w3.org/2000/svg" xmlns:xlink="http://www.w3.org/1999/xlink" version="1.1" width="260" height="228" viewBox="0 0 260 228">
<defs>
<path id="font_1_1" d="M.33399964 .30233766C.33999635 .32835389 .36299134 .42037965 .43299867 .42037965 .43798829 .42037965 .46199037 .42037965 .48298646 .40734864 .45498658 .402359 .43499757 .37734986 .43499757 .35334779 .43499757 .33735658 .44599916 .31835938 .47299195 .31835938 .49499513 .31835938 .5269928 .3363495 .5269928 .37635804 .5269928 .42837525 .46798707 .4423828 .43399049 .4423828 .37599183 .4423828 .34098817 .38935853 .32899476 .36634828 .3039856 .43237306 .25 .4423828 .22099304 .4423828 .116989139 .4423828 .05999756 .3133545 .05999756 .28834535 .05999756 .27833558 .069992069 .27833558 .07199097 .27833558 .07998657 .27833558 .08299255 .28033448 .084991458 .28933717 .11898804 .39535523 .18499756 .42037965 .21899414 .42037965 .23799134 .42037965 .272995 .4113617 .272995 .35334779 .272995 .32235719 .2559967 .25532533 .21899414 .11528015 .20298767 .053268434 .16799927 .011245728 .12399292 .011245728 .117996219 .011245728 .09498596 .011245728 .07398987 .024276734 .09899902 .029266358 .12098694 .05027771 .12098694 .07827759 .12098694 .105270389 .09899902 .11328125 .083999637 .11328125 .053985597 .11328125 .0289917 .08728027 .0289917 .055267335 .0289917 .009246826 .07899475-.0107421879 .12298584-.0107421879 .18899536-.0107421879 .22499085 .059280397 .22799683 .0652771 .23999024 .028274537 .27598573-.0107421879 .33599855-.0107421879 .43899537-.0107421879 .49598695 .118270877 .49598695 .14328003 .49598695 .1532898 .4869995 .1532898 .48399354 .1532898 .47499085 .1532898 .47299195 .14929199 .47099305 .14228821 .43798829 .03527832 .36999513 .011245728 .33799745 .011245728 .29899598 .011245728 .2829895 .043273927 .2829895 .07727051 .2829895 .09927368 .2889862 .121276859 .2999878 .16529846L.33399964 .30233766Z"/>
<path id="font_1_2" d="M.48599244 .38136292C.48999024 .39537049 .48999024 .39736939 .48999024 .40437318 .48999024 .42237855 .47599793 .43138124 .46099855 .43138124 .45098878 .43138124 .43499757 .42536927 .42599488 .41036988 .42399598 .405365 .41600038 .37435914 .4119873 .35635377 .40499879 .33035279 .397995 .30334474 .3919983 .27633668L.34700013 .09628296C.34298707 .08126831 .2999878 .011245728 .23399353 .011245728 .18299866 .011245728 .17199707 .055267335 .17199707 .0922699 .17199707 .1382904 .18899536 .20030213 .22299195 .28833009 .23899842 .3293457 .24299622 .3403473 .24299622 .36035157 .24299622 .405365 .21099854 .4423828 .16099549 .4423828 .06599426 .4423828 .0289917 .29733277 .0289917 .28833009 .0289917 .27833558 .038986207 .27833558 .040985109 .27833558 .050994874 .27833558 .051986696 .28033448 .056991579 .29634095 .083999637 .3903656 .12399292 .42037965 .1579895 .42037965 .1659851 .42037965 .18299866 .42037965 .18299866 .3883667 .18299866 .36335755 .17298889 .3373413 .1659851 .31834413 .12599182 .21231079 .10798645 .1552887 .10798645 .10827637 .10798645 .019256592 .17098999-.0107421879 .22999573-.0107421879 .2689972-.0107421879 .30299378 .0062561037 .33099366 .03425598 .31799317-.017745972 .30599977-.06674194 .2659912-.11973572 .23999024-.15385437 .20199585-.18309021 .1559906-.18309021 .14199829-.18309021 .09700012-.18005371 .07998657-.14074707 .09599304-.14074707 .10899353-.14074707 .12298584-.1287384 .1329956-.11973572 .14299011-.10673523 .14299011-.08773804 .14299011-.056747438 .115997318-.052734376 .10598755-.052734376 .08299255-.052734376 .049987794-.068740848 .049987794-.11773682 .049987794-.16796875 .09399414-.20507813 .1559906-.20507813 .25898744-.20507813 .3619995-.11373901 .3899994-.00074768069L.48599244 .38136292Z"/>
<path id="font_2_1" d="M.6589966 .23046875C.6759949 .23046875 .69400027 .23046875 .69400027 .25045777 .69400027 .27046205 .6759949 .27046205 .6589966 .27046205H.117996219C.100997928 .27046205 .08299255 .27046205 .08299255 .25045777 .08299255 .23046875 .100997928 .23046875 .117996219 .23046875H.6589966Z"/>
<path id="font_3_3" d="M.13198853 .327713V.35173036C.13198853 .6047821 .2559967 .64100649 .30699159 .64100649 .33099366 .64100649 .37298585 .634964 .394989 .6007538 .37998963 .6007538 .33999635 .6007538 .33999635 .5557556 .33999635 .524765 .3639984 .5097656 .38598634 .5097656 .4019928 .5097656 .43199159 .51875308 .43199159 .5577545 .43199159 .6178589 .3880005 .6660156 .30499269 .6660156 .1769867 .6660156 .041992189 .5367584 .041992189 .31570436 .041992189 .048553468 .1579895-.022460938 .25099183-.022460938 .3619995-.022460938 .45700074 .07156372 .45700074 .2036438 .45700074 .33070375 .36799623 .4267578 .25698854 .4267578 .18899536 .4267578 .1519928 .37573243 .13198853 .327713M.25099183 .0055389406C.18798828 .0055389406 .1579895 .06556702 .1519928 .080566409 .13398743 .127594 .13398743 .2076416 .13398743 .22564698 .13398743 .30369569 .1659851 .40374757 .2559967 .40374757 .27198792 .40374757 .31799317 .40374757 .34899903 .34172059 .36698915 .30470277 .36698915 .2536621 .36698915 .20463562 .36698915 .15661621 .36698915 .10658264 .34999085 .0705719 .31999208 .010528564 .27398683 .0055389406 .25099183 .0055389406Z"/>
<path id="font_3_2" d="M.2939911 .16503906V.07800293C.2939911 .041992189 .2919922 .0309906 .21798706 .0309906H.19699097V0C.23799134 .0029907227 .2899933 .0029907227 .33198548 .0029907227 .37399293 .0029907227 .4269867 .0029907227 .46798707 0V.0309906H.44699098C.37298585 .0309906 .37098695 .041992189 .37098695 .07800293V.16503906H.47099305V.19602967H.37098695V.65075686C.37098695 .67074587 .37098695 .6767578 .35499574 .6767578 .34599305 .6767578 .34298707 .6767578 .33499146 .66474917L.027999878 .19602967V.16503906H.2939911M.2999878 .19602967H.055999757L.2999878 .5688019V.19602967Z"/>
<path id="font_3_4" d="M.16299439 .4569702C.116989139 .486969 .11299133 .52098086 .11299133 .5379791 .11299133 .598999 .17799378 .64100649 .24899292 .64100649 .32199098 .64100649 .38598634 .58898928 .38598634 .51698306 .38598634 .45996095 .34700013 .4119568 .2869873 .37695313L.16299439 .4569702M.30899049 .36193849C.3809967 .3989563 .42999269 .45095826 .42999269 .51698306 .42999269 .6090088 .34098817 .6660156 .25 .6660156 .1499939 .6660156 .068984989 .59199526 .068984989 .49897767 .068984989 .4809723 .070999149 .43595887 .11299133 .38894654 .12399292 .37695313 .16099549 .35194398 .18598938 .33494569 .12799073 .30592347 .041992189 .24984741 .041992189 .15072632 .041992189 .04458618 .14399719-.022460938 .24899292-.022460938 .3619995-.022460938 .45700074 .06060791 .45700074 .16773987 .45700074 .20379639 .44599916 .24885559 .4079895 .2909088 .3889923 .31193543 .37298585 .3219452 .30899049 .36193849M.20899964 .3199463 .33198548 .24183655C.3600006 .2228241 .40699769 .19277954 .40699769 .13169861 .40699769 .05760193 .33198548 .0055389406 .25 .0055389406 .1639862 .0055389406 .09199524 .067611698 .09199524 .15072632 .09199524 .20880127 .12399292 .27288819 .20899964 .3199463Z"/>
<path id="font_3_1" d="M.1269989 .07699585 .23298645 .18003845C.3889923 .31811524 .44898988 .3721466 .44898988 .47216798 .44898988 .5860901 .35899354 .6660156 .23699951 .6660156 .12399292 .6660156 .049987794 .57411196 .049987794 .48516847 .049987794 .4291687 .099990848 .4291687 .102996829 .4291687 .11999512 .4291687 .15499878 .44117738 .15499878 .48217774 .15499878 .5081787 .13699341 .5341797 .101989749 .5341797 .09399414 .5341797 .09199524 .5341797 .08898926 .5331726 .11199951 .59806826 .1659851 .63500979 .22399903 .63500979 .31498719 .63500979 .35798646 .5541382 .35798646 .47216798 .35798646 .39215089 .30799867 .31311036 .25299073 .25108338L.06098938 .036987306C.049987794 .025985718 .049987794 .023986817 .049987794 0H.42099L.44898988 .17404175H.42399598C.4189911 .14402771 .4119873 .1000061 .4019928 .084991458 .394989 .07699585 .32899476 .07699585 .30699159 .07699585H.1269989Z"/>
</defs>
<path transform="matrix(1.00009,0,0,-1.00003,154.38127,107.11483)" stroke-width=".3985" stroke-linecap="butt" stroke-miterlimit="10" stroke-linejoin="miter" fill="none" stroke="#00aeef" d="M-153.07433-119.0578H85.04128M-153.07433-102.04953H85.04128M-153.07433-85.04128H85.04128M-153.07433-68.03302H85.04128M-153.07433-51.02477H85.04128M-153.07433-34.0165H85.04128M-153.07433-17.00824H85.04128M-153.07433 0H85.04128M-153.07433 17.00824H85.04128M-153.07433 34.0165H85.04128M-153.07433 51.02477H85.04128M-153.07433 68.03302H85.04128M-153.07433 85.0353H85.04128M-153.07433-119.0578V85.04128M-136.06606-119.0578V85.04128M-119.0578-119.0578V85.04128M-102.04953-119.0578V85.04128M-85.04128-119.0578V85.04128M-68.03302-119.0578V85.04128M-51.02477-119.0578V85.04128M-34.0165-119.0578V85.04128M-17.00824-119.0578V85.04128M0-119.0578V85.04128M17.00824-119.0578V85.04128M34.0165-119.0578V85.04128M51.02477-119.0578V85.04128M68.03302-119.0578V85.04128M85.0353-119.0578V85.04128M85.04128 85.04128"/>
<path transform="matrix(1.00009,0,0,-1.00003,154.38127,107.11483)" stroke-width=".79701" stroke-linecap="butt" stroke-miterlimit="10" stroke-linejoin="miter" fill="none" stroke="#000000" d="M-153.07433 0H93.81172"/>
<path transform="matrix(1.00009,0,0,-1.00003,248.20145,107.11483)" d="M1.0361 0C-.25902 .25902-1.55415 .77707-3.1083 1.68365-1.55415 .51805-1.55415-.51805-3.1083-1.68365-1.55415-.77707-.25902-.25902 1.0361 0Z"/>
<path transform="matrix(1.00009,0,0,-1.00003,248.20145,107.11483)" stroke-width=".79701" stroke-linecap="butt" stroke-linejoin="round" fill="none" stroke="#000000" d="M1.0361 0C-.25902 .25902-1.55415 .77707-3.1083 1.68365-1.55415 .51805-1.55415-.51805-3.1083-1.68365-1.55415-.77707-.25902-.25902 1.0361 0Z"/>
<use data-text="x" xlink:href="#font_1_1" transform="matrix(9.963496,0,0,-9.962899,253.35517,109.259899)"/>
<path transform="matrix(1.00009,0,0,-1.00003,154.38127,107.11483)" stroke-width=".79701" stroke-linecap="butt" stroke-miterlimit="10" stroke-linejoin="miter" fill="none" stroke="#000000" d="M0-119.0578V93.81172"/>
<path transform="matrix(0,-1.00003,-1.00009,-0,154.38127,13.300293)" d="M1.0361 0C-.25902 .25902-1.55415 .77707-3.1083 1.68365-1.55415 .51805-1.55415-.51805-3.1083-1.68365-1.55415-.77707-.25902-.25902 1.0361 0Z"/>
<path transform="matrix(0,-1.00003,-1.00009,-0,154.38127,13.300293)" stroke-width=".79701" stroke-linecap="butt" stroke-linejoin="round" fill="none" stroke="#000000" d="M1.0361 0C-.25902 .25902-1.55415 .77707-3.1083 1.68365-1.55415 .51805-1.55415-.51805-3.1083-1.68365-1.55415-.77707-.25902-.25902 1.0361 0Z"/>
<use data-text="y" xlink:href="#font_1_2" transform="matrix(9.963496,0,0,-9.962899,151.76004,6.2088015)"/>
<path transform="matrix(1.00009,0,0,-1.00003,154.38127,107.11483)" stroke-width=".3985" stroke-linecap="butt" stroke-miterlimit="10" stroke-linejoin="miter" fill="none" stroke="#000000" d="M-102.04953 1.70091V-1.70065"/>
<path transform="matrix(1.00009,0,0,-1.00003,154.38127,107.11483)" d="M-109.41092-13.13568H-94.68814V-3.8924504H-109.41092Z" fill="#ffffff"/>
<use data-text="&#x2212;" xlink:href="#font_2_1" transform="matrix(9.963496,0,0,-9.962899,45.956514,118.42417)"/>
<use data-text="6" xlink:href="#font_3_3" transform="matrix(9.963496,0,0,-9.962899,53.706209,118.42417)"/>
<path transform="matrix(1.00009,0,0,-1.00003,154.38127,107.11483)" stroke-width=".3985" stroke-linecap="butt" stroke-miterlimit="10" stroke-linejoin="miter" fill="none" stroke="#000000" d="M68.03302 1.70091V-1.70065"/>
<path transform="matrix(1.00009,0,0,-1.00003,154.38127,107.11483)" d="M64.54605-12.30545H71.51999V-3.8924704H64.54605Z" fill="#ffffff"/>
<use data-text="4" xlink:href="#font_3_2" transform="matrix(9.963496,0,0,-9.962899,219.92917,118.42417)"/>
<path transform="matrix(1.00009,0,0,-1.00003,154.38127,107.11483)" stroke-width=".3985" stroke-linecap="butt" stroke-miterlimit="10" stroke-linejoin="miter" fill="none" stroke="#000000" d="M-136.06606 1.70091V-1.70065"/>
<path transform="matrix(1.00009,0,0,-1.00003,154.38127,107.11483)" d="M-143.42745-13.13568H-128.70467V-3.8924504H-143.42745Z" fill="#ffffff"/>
<use data-text="&#x2212;" xlink:href="#font_2_1" transform="matrix(9.963496,0,0,-9.962899,11.937454,118.42417)"/>
<use data-text="8" xlink:href="#font_3_4" transform="matrix(9.963496,0,0,-9.962899,19.68715,118.42417)"/>
<path transform="matrix(1.00009,0,0,-1.00003,154.38127,107.11483)" stroke-width=".3985" stroke-linecap="butt" stroke-miterlimit="10" stroke-linejoin="miter" fill="none" stroke="#000000" d="M34.0165 1.70091V-1.70065"/>
<path transform="matrix(1.00009,0,0,-1.00003,154.38127,107.11483)" d="M30.52953-12.30545H37.50347V-3.8924704H30.52953Z" fill="#ffffff"/>
<use data-text="2" xlink:href="#font_3_1" transform="matrix(9.963496,0,0,-9.962899,185.91011,118.42417)"/>
<path transform="matrix(1.00009,0,0,-1.00003,154.38127,107.11483)" stroke-width=".3985" stroke-linecap="butt" stroke-miterlimit="10" stroke-linejoin="miter" fill="none" stroke="#000000" d="M1.70091-68.03302H-1.70065"/>
<path transform="matrix(1.00009,0,0,-1.00003,154.38127,107.11483)" d="M-18.61523-72.65465H-3.8924504V-63.41142H-18.61523Z" fill="#ffffff"/>
<use data-text="&#x2212;" xlink:href="#font_2_1" transform="matrix(9.963496,0,0,-9.962899,136.76068,177.94496)"/>
<use data-text="4" xlink:href="#font_3_2" transform="matrix(9.963496,0,0,-9.962899,144.51038,177.94496)"/>
<path transform="matrix(1.00009,0,0,-1.00003,154.38127,107.11483)" stroke-width=".3985" stroke-linecap="butt" stroke-miterlimit="10" stroke-linejoin="miter" fill="none" stroke="#000000" d="M1.70091 68.03302H-1.70065"/>
<path transform="matrix(1.00009,0,0,-1.00003,154.38127,107.11483)" d="M-10.8664 63.82654H-3.8924599V72.239528H-10.8664Z" fill="#ffffff"/>
<use data-text="4" xlink:href="#font_3_2" transform="matrix(9.963496,0,0,-9.962899,144.51038,42.289888)"/>
<path transform="matrix(1.00009,0,0,-1.00003,154.38127,107.11483)" stroke-width=".3985" stroke-linecap="butt" stroke-miterlimit="10" stroke-linejoin="miter" fill="none" stroke="#000000" d="M1.70091-102.04953H-1.70065"/>
<path transform="matrix(1.00009,0,0,-1.00003,154.38127,107.11483)" d="M-18.61523-106.67114H-3.8924504V-97.42791H-18.61523Z" fill="#ffffff"/>
<use data-text="&#x2212;" xlink:href="#font_2_1" transform="matrix(9.963496,0,0,-9.962899,136.76068,211.96298)"/>
<use data-text="6" xlink:href="#font_3_3" transform="matrix(9.963496,0,0,-9.962899,144.51038,211.96298)"/>
<path transform="matrix(1.00009,0,0,-1.00003,154.38127,107.11483)" stroke-width="1.19553" stroke-linecap="butt" stroke-miterlimit="10" stroke-linejoin="miter" fill="none" stroke="#000000" d="M-75.67786-51.02477V17.00824H7.64482V-51.02477ZM7.64482 17.00824"/>
<path transform="matrix(1.00009,0,0,-1.00003,154.38127,107.11483)" stroke-width=".3985" stroke-linecap="butt" stroke-dasharray="2.98883,2.98883" stroke-miterlimit="10" stroke-linejoin="miter" fill="none" stroke="#929292" d="M-153.07433-114.2205 85.04128 80.204"/>
<path transform="matrix(1.00009,0,0,-1.00003,154.38127,107.11483)" stroke-width=".3985" stroke-linecap="butt" stroke-dasharray="2.98883,2.98883" stroke-miterlimit="10" stroke-linejoin="miter" fill="none" stroke="#929292" d="M-153.07433 80.204 85.04128-114.2205"/>
<path transform="matrix(1.00009,0,0,-1.00003,154.38127,107.11483)" stroke-width="1.19553" stroke-linecap="butt" stroke-miterlimit="10" stroke-linejoin="miter" fill="none" stroke="#ff0000" d="M82.39995-105.76727C79.65402-103.3641 79.65402-103.3641 78.11868-102.01372 76.58336-100.66333 74.19319-98.55354 72.74367-97.26804 71.29414-95.98253 69.03932-93.97316 67.6715-92.74866 66.30368-91.52415 64.17555-89.60936 62.88533-88.44261 61.59511-87.27588 59.58849-85.45181 58.37244-84.33952 57.1564-83.2272 55.26611-81.48697 54.12091-80.42587 52.97568-79.36478 51.19623-77.70497 50.1185-76.69183 49.04077-75.6787 47.36684-74.09164 46.3533-73.12387 45.33977-72.15611 43.76552-70.64174 42.81363-69.71681 41.86174-68.79192 40.38588-67.34271 39.49274-66.45769 38.59962-65.57268 37.21338-64.18578 36.37662-63.3382 35.53986-62.49063 34.24443-61.1617 33.46188-60.34898 32.67937-59.53627 31.46756-58.26065 30.73662-57.48071 30.00569-56.70078 28.87514-55.47658 28.1938-54.72766 27.51244-53.97876 26.45934-52.80334 25.82587-52.08311 25.19241-51.36285 24.21565-50.23059 23.62822-49.53662 23.04079-48.84267 22.13513-47.75114 21.59198-47.08154 21.04881-46.41193 20.21391-45.3575 19.71353-44.7105 19.21317-44.0635 18.44443-43.04463 17.98563-42.41838 17.5268-41.79211 16.82536-40.80402 16.40665-40.19684 15.98796-39.58966 15.34792-38.632 14.96785-38.04225 14.58778-37.45251 14.00922-36.52052 13.66736-35.94633 13.3255-35.37213 12.8089-34.46402 12.50392-33.90387 12.19893-33.34372 11.7382-32.45683 11.4692-31.90915 11.20016-31.36147 10.79866-30.4933 10.565-29.95648 10.33133-29.41966 9.98454-28.56746 9.78513-28.04015 9.58572-27.51283 9.29314-26.6753 9.12775-26.156 8.96237-25.63669 8.7247-24.81024 8.59312-24.29727 8.46155-23.78429 8.27785-22.96687 8.17944-22.45879 8.08104-21.95073 7.94923-21.14006 7.88385-20.63538 7.81847-20.13068 7.74069-19.32375 7.70815-18.82127 7.6756-18.31882 7.64955-17.51445 7.64923-17.01395 7.64891-16.51343 7.67343-15.71498 7.7058-15.21387 7.73817-14.71278 7.81738-13.90688 7.88255-13.40239 7.94772-12.89792 8.07758-12.08606 8.17555-11.57793 8.27351-11.06978 8.45729-10.25279 8.58871-9.73997 8.72015-9.22714 8.95798-8.40115 9.12282-7.88176 9.28766-7.36238 9.57803-6.52382 9.77682-5.99658 9.97562-5.46935 10.32217-4.61845 10.55565-4.0818 10.78914-3.54512 11.19112-2.67644 11.4596-2.1286 11.72806-1.58076 12.18594-.69324 12.49068-.13338 12.79543 .42645 13.31435 1.33247 13.65594 1.90646 13.99754 2.48042 14.57346 3.41367 14.95279 4.00342 15.33214 4.59317 15.97171 5.55006 16.39005 6.15697 16.8084 6.76384 17.5095 7.75148 17.96797 8.37747 18.42642 9.00343 19.19432 10.02191 19.69432 10.66856 20.19434 11.31519 21.02902 12.36884 21.57173 13.03801 22.11444 13.70718 23.01918 14.79768 23.6059 15.49156 24.1926 16.18546 25.16768 17.31891 25.80045 18.03908 26.43323 18.75925 27.48553 19.93349 28.16653 20.68208 28.84752 21.4307 29.97818 22.65509 30.70859 23.4346 31.439 24.21411 32.64894 25.48814 33.43076 26.3003 34.21255 27.11243 35.50706 28.44081 36.34341 29.28795 37.17973 30.13509 38.56587 31.52132 39.4585 32.40588 40.3511 33.29047 41.82591 34.73875 42.77678 35.66345 43.72766 36.58815 45.29897 38.10332 46.31177 39.0705 47.32458 40.03767 48.99904 41.62196 50.07645 42.6343 51.15385 43.64664 52.93233 45.30612 54.07703 46.3668 55.22174 47.42746 57.1117 49.16687 58.32677 50.27888 59.54184 51.39088 61.54532 53.21506 62.83447 54.38145 64.12361 55.54785 66.2509 57.46156 67.61804 58.68544 68.98517 59.90929 71.23943 61.91757 72.68787 63.20221 74.1363 64.48685 76.52345 66.59496 78.05743 67.94426 79.59145 69.29358 83.74391 72.92714 82.3344 71.6938"/>
<path transform="matrix(.7525377,.6585898,.65862926,-.7524926,236.78862,212.88526)" d="M1.27522 0C-.31879 .31879-1.91284 .9564-3.8257 2.07224-1.91284 .6376-1.91284-.6376-3.8257-2.07224-1.91284-.9564-.31879-.31879 1.27522 0Z" fill="#ff0000"/>
<path transform="matrix(.7525377,.6585898,.65862926,-.7524926,236.78862,212.88526)" stroke-width="1.19553" stroke-linecap="butt" stroke-linejoin="round" fill="none" stroke="#ff0000" d="M1.27522 0C-.31879 .31879-1.91284 .9564-3.8257 2.07224-1.91284 .6376-1.91284-.6376-3.8257-2.07224-1.91284-.9564-.31879-.31879 1.27522 0Z"/>
<path transform="matrix(.7526177,-.6585198,-.65855929,-.7525726,236.72309,35.41889)" d="M1.27522 0C-.31879 .31879-1.91284 .9564-3.8257 2.07224-1.91284 .6376-1.91284-.6376-3.8257-2.07224-1.91284-.9564-.31879-.31879 1.27522 0Z" fill="#ff0000"/>
<path transform="matrix(.7526177,-.6585198,-.65855929,-.7525726,236.72309,35.41889)" stroke-width="1.19553" stroke-linecap="butt" stroke-linejoin="round" fill="none" stroke="#ff0000" d="M1.27522 0C-.31879 .31879-1.91284 .9564-3.8257 2.07224-1.91284 .6376-1.91284-.6376-3.8257-2.07224-1.91284-.9564-.31879-.31879 1.27522 0Z"/>
<path transform="matrix(1.00009,0,0,-1.00003,154.38127,107.11483)" stroke-width="1.19553" stroke-linecap="butt" stroke-miterlimit="10" stroke-linejoin="miter" fill="none" stroke="#ff0000" d="M-150.43299-105.76727C-147.68706-103.3641-147.68706-103.3641-146.15172-102.01372-144.6164-100.66333-142.22623-98.55354-140.7767-97.26804-139.32718-95.98253-137.07236-93.97316-135.70455-92.74866-134.33672-91.52415-132.20859-89.60936-130.91837-88.44261-129.62815-87.27588-127.6215-85.45181-126.40547-84.33952-125.18944-83.2272-123.29915-81.48697-122.15395-80.42587-121.00871-79.36478-119.22926-77.70497-118.15154-76.69183-117.0738-75.6787-115.39987-74.09164-114.38634-73.12387-113.3728-72.15611-111.79855-70.64174-110.84666-69.71681-109.89478-68.79192-108.4189-67.34271-107.52577-66.45769-106.63266-65.57268-105.24643-64.18578-104.40965-63.3382-103.57289-62.49063-102.27747-61.1617-101.49492-60.34898-100.7124-59.53627-99.5006-58.26065-98.76965-57.48071-98.03873-56.70078-96.90819-55.47658-96.22682-54.72766-95.54547-53.97876-94.49237-52.80334-93.8589-52.08311-93.22543-51.36285-92.24869-50.23059-91.66125-49.53662-91.0738-48.84267-90.16817-47.75114-89.62502-47.08154-89.08186-46.41193-88.24695-45.3575-87.74657-44.7105-87.2462-44.0635-86.47746-43.04463-86.01866-42.41838-85.55983-41.79211-84.8584-40.80402-84.4397-40.19684-84.021-39.58966-83.38095-38.632-83.00089-38.04225-82.62082-37.45251-82.04227-36.52052-81.7004-35.94633-81.35854-35.37213-80.84193-34.46402-80.53696-33.90387-80.23196-33.34372-79.77124-32.45683-79.50221-31.90915-79.23322-31.36147-78.8317-30.4933-78.59804-29.95648-78.36438-29.41966-78.01758-28.56746-77.81816-28.04015-77.61876-27.51283-77.32617-26.6753-77.16078-26.156-76.99539-25.63669-76.75774-24.81024-76.62616-24.29727-76.49458-23.78429-76.3109-22.96687-76.21248-22.45879-76.11407-21.95073-75.98228-21.14006-75.91689-20.63538-75.8515-20.13068-75.77373-19.32375-75.74118-18.82127-75.70863-18.31882-75.68259-17.51445-75.68227-17.01395-75.68195-16.51343-75.70647-15.71498-75.73885-15.21387-75.77121-14.71278-75.85042-13.90688-75.91559-13.40239-75.98076-12.89792-76.11061-12.08606-76.20859-11.57793-76.30656-11.06978-76.49033-10.25279-76.62175-9.73997-76.75319-9.22714-76.991-8.40115-77.15585-7.88176-77.3207-7.36238-77.61107-6.52382-77.80986-5.99658-78.00865-5.46935-78.35521-4.61845-78.58868-4.0818-78.82217-3.54512-79.22415-2.67644-79.49263-2.1286-79.7611-1.58076-80.219-.69324-80.52371-.13338-80.82846 .42645-81.34738 1.33247-81.68898 1.90646-82.0306 2.48042-82.60649 3.41367-82.98582 4.00342-83.36517 4.59317-84.00475 5.55006-84.42308 6.15697-84.84143 6.76384-85.54254 7.75148-86.001 8.37747-86.45946 9.00343-87.22734 10.02191-87.72736 10.66856-88.22737 11.31519-89.06206 12.36884-89.60477 13.03801-90.14749 13.70718-91.05222 14.79768-91.63893 15.49156-92.22565 16.18546-93.20071 17.31891-93.83348 18.03908-94.46626 18.75925-95.51857 19.93349-96.19957 20.68208-96.88055 21.4307-98.01122 22.65509-98.74164 23.4346-99.47203 24.21411-100.68198 25.48814-101.46379 26.3003-102.24559 27.11243-103.5401 28.44081-104.37643 29.28795-105.21278 30.13509-106.5989 31.52132-107.49153 32.40588-108.38414 33.29047-109.85895 34.73875-110.80981 35.66345-111.7607 36.58815-113.332 38.10332-114.34482 39.0705-115.35762 40.03767-117.03207 41.62196-118.10948 42.6343-119.18689 43.64664-120.96536 45.30612-122.11006 46.3668-123.25478 47.42746-125.14473 49.16687-126.35979 50.27888-127.57487 51.39088-129.57836 53.21506-130.8675 54.38145-132.15665 55.54785-134.28395 57.46156-135.65108 58.68544-137.0182 59.90929-139.27246 61.91757-140.7209 63.20221-142.16934 64.48685-144.55649 66.59496-146.09047 67.94426-147.62448 69.29358-151.77695 72.92714-150.36743 71.6938"/>
<path transform="matrix(-.7525377,.6585898,.65862926,.7524926,3.9347687,212.88526)" d="M1.27522 0C-.31879 .31879-1.91284 .9564-3.8257 2.07224-1.91284 .6376-1.91284-.6376-3.8257-2.07224-1.91284-.9564-.31879-.31879 1.27522 0Z" fill="#ff0000"/>
<path transform="matrix(-.7525377,.6585898,.65862926,.7524926,3.9347687,212.88526)" stroke-width="1.19553" stroke-linecap="butt" stroke-linejoin="round" fill="none" stroke="#ff0000" d="M1.27522 0C-.31879 .31879-1.91284 .9564-3.8257 2.07224-1.91284 .6376-1.91284-.6376-3.8257-2.07224-1.91284-.9564-.31879-.31879 1.27522 0Z"/>
<path transform="matrix(-.7526177,-.6585198,-.65855929,.7525726,4.000305,35.41889)" d="M1.27522 0C-.31879 .31879-1.91284 .9564-3.8257 2.07224-1.91284 .6376-1.91284-.6376-3.8257-2.07224-1.91284-.9564-.31879-.31879 1.27522 0Z" fill="#ff0000"/>
<path transform="matrix(-.7526177,-.6585198,-.65855929,.7525726,4.000305,35.41889)" stroke-width="1.19553" stroke-linecap="butt" stroke-linejoin="round" fill="none" stroke="#ff0000" d="M1.27522 0C-.31879 .31879-1.91284 .9564-3.8257 2.07224-1.91284 .6376-1.91284-.6376-3.8257-2.07224-1.91284-.9564-.31879-.31879 1.27522 0Z"/>
</svg>
