<svg xmlns="http://www.w3.org/2000/svg" xmlns:xlink="http://www.w3.org/1999/xlink" version="1.1" width="290" height="289" viewBox="0 0 290 289">
<defs>
<path id="font_1_1" d="M.33399964 .30233766C.33999635 .32835389 .36299134 .42037965 .43299867 .42037965 .43798829 .42037965 .46199037 .42037965 .48298646 .40734864 .45498658 .402359 .43499757 .37734986 .43499757 .35334779 .43499757 .33735658 .44599916 .31835938 .47299195 .31835938 .49499513 .31835938 .5269928 .3363495 .5269928 .37635804 .5269928 .42837525 .46798707 .4423828 .43399049 .4423828 .37599183 .4423828 .34098817 .38935853 .32899476 .36634828 .3039856 .43237306 .25 .4423828 .22099304 .4423828 .116989139 .4423828 .05999756 .3133545 .05999756 .28834535 .05999756 .27833558 .069992069 .27833558 .07199097 .27833558 .07998657 .27833558 .08299255 .28033448 .084991458 .28933717 .11898804 .39535523 .18499756 .42037965 .21899414 .42037965 .23799134 .42037965 .272995 .4113617 .272995 .35334779 .272995 .32235719 .2559967 .25532533 .21899414 .11528015 .20298767 .053268434 .16799927 .011245728 .12399292 .011245728 .117996219 .011245728 .09498596 .011245728 .07398987 .024276734 .09899902 .029266358 .12098694 .05027771 .12098694 .07827759 .12098694 .105270389 .09899902 .11328125 .083999637 .11328125 .053985597 .11328125 .0289917 .08728027 .0289917 .055267335 .0289917 .009246826 .07899475-.0107421879 .12298584-.0107421879 .18899536-.0107421879 .22499085 .059280397 .22799683 .0652771 .23999024 .028274537 .27598573-.0107421879 .33599855-.0107421879 .43899537-.0107421879 .49598695 .118270877 .49598695 .14328003 .49598695 .1532898 .4869995 .1532898 .48399354 .1532898 .47499085 .1532898 .47299195 .14929199 .47099305 .14228821 .43798829 .03527832 .36999513 .011245728 .33799745 .011245728 .29899598 .011245728 .2829895 .043273927 .2829895 .07727051 .2829895 .09927368 .2889862 .121276859 .2999878 .16529846L.33399964 .30233766Z"/>
<path id="font_1_2" d="M.48599244 .38136292C.48999024 .39537049 .48999024 .39736939 .48999024 .40437318 .48999024 .42237855 .47599793 .43138124 .46099855 .43138124 .45098878 .43138124 .43499757 .42536927 .42599488 .41036988 .42399598 .405365 .41600038 .37435914 .4119873 .35635377 .40499879 .33035279 .397995 .30334474 .3919983 .27633668L.34700013 .09628296C.34298707 .08126831 .2999878 .011245728 .23399353 .011245728 .18299866 .011245728 .17199707 .055267335 .17199707 .0922699 .17199707 .1382904 .18899536 .20030213 .22299195 .28833009 .23899842 .3293457 .24299622 .3403473 .24299622 .36035157 .24299622 .405365 .21099854 .4423828 .16099549 .4423828 .06599426 .4423828 .0289917 .29733277 .0289917 .28833009 .0289917 .27833558 .038986207 .27833558 .040985109 .27833558 .050994874 .27833558 .051986696 .28033448 .056991579 .29634095 .083999637 .3903656 .12399292 .42037965 .1579895 .42037965 .1659851 .42037965 .18299866 .42037965 .18299866 .3883667 .18299866 .36335755 .17298889 .3373413 .1659851 .31834413 .12599182 .21231079 .10798645 .1552887 .10798645 .10827637 .10798645 .019256592 .17098999-.0107421879 .22999573-.0107421879 .2689972-.0107421879 .30299378 .0062561037 .33099366 .03425598 .31799317-.017745972 .30599977-.06674194 .2659912-.11973572 .23999024-.15385437 .20199585-.18309021 .1559906-.18309021 .14199829-.18309021 .09700012-.18005371 .07998657-.14074707 .09599304-.14074707 .10899353-.14074707 .12298584-.1287384 .1329956-.11973572 .14299011-.10673523 .14299011-.08773804 .14299011-.056747438 .115997318-.052734376 .10598755-.052734376 .08299255-.052734376 .049987794-.068740848 .049987794-.11773682 .049987794-.16796875 .09399414-.20507813 .1559906-.20507813 .25898744-.20507813 .3619995-.11373901 .3899994-.00074768069L.48599244 .38136292Z"/>
<path id="font_2_1" d="M.6589966 .23046875C.6759949 .23046875 .69400027 .23046875 .69400027 .25045777 .69400027 .27046205 .6759949 .27046205 .6589966 .27046205H.117996219C.100997928 .27046205 .08299255 .27046205 .08299255 .25045777 .08299255 .23046875 .100997928 .23046875 .117996219 .23046875H.6589966Z"/>
<path id="font_3_4" d="M.16299439 .4569702C.116989139 .486969 .11299133 .52098086 .11299133 .5379791 .11299133 .598999 .17799378 .64100649 .24899292 .64100649 .32199098 .64100649 .38598634 .58898928 .38598634 .51698306 .38598634 .45996095 .34700013 .4119568 .2869873 .37695313L.16299439 .4569702M.30899049 .36193849C.3809967 .3989563 .42999269 .45095826 .42999269 .51698306 .42999269 .6090088 .34098817 .6660156 .25 .6660156 .1499939 .6660156 .068984989 .59199526 .068984989 .49897767 .068984989 .4809723 .070999149 .43595887 .11299133 .38894654 .12399292 .37695313 .16099549 .35194398 .18598938 .33494569 .12799073 .30592347 .041992189 .24984741 .041992189 .15072632 .041992189 .04458618 .14399719-.022460938 .24899292-.022460938 .3619995-.022460938 .45700074 .06060791 .45700074 .16773987 .45700074 .20379639 .44599916 .24885559 .4079895 .2909088 .3889923 .31193543 .37298585 .3219452 .30899049 .36193849M.20899964 .3199463 .33198548 .24183655C.3600006 .2228241 .40699769 .19277954 .40699769 .13169861 .40699769 .05760193 .33198548 .0055389406 .25 .0055389406 .1639862 .0055389406 .09199524 .067611698 .09199524 .15072632 .09199524 .20880127 .12399292 .27288819 .20899964 .3199463Z"/>
<path id="font_3_3" d="M.13198853 .327713V.35173036C.13198853 .6047821 .2559967 .64100649 .30699159 .64100649 .33099366 .64100649 .37298585 .634964 .394989 .6007538 .37998963 .6007538 .33999635 .6007538 .33999635 .5557556 .33999635 .524765 .3639984 .5097656 .38598634 .5097656 .4019928 .5097656 .43199159 .51875308 .43199159 .5577545 .43199159 .6178589 .3880005 .6660156 .30499269 .6660156 .1769867 .6660156 .041992189 .5367584 .041992189 .31570436 .041992189 .048553468 .1579895-.022460938 .25099183-.022460938 .3619995-.022460938 .45700074 .07156372 .45700074 .2036438 .45700074 .33070375 .36799623 .4267578 .25698854 .4267578 .18899536 .4267578 .1519928 .37573243 .13198853 .327713M.25099183 .0055389406C.18798828 .0055389406 .1579895 .06556702 .1519928 .080566409 .13398743 .127594 .13398743 .2076416 .13398743 .22564698 .13398743 .30369569 .1659851 .40374757 .2559967 .40374757 .27198792 .40374757 .31799317 .40374757 .34899903 .34172059 .36698915 .30470277 .36698915 .2536621 .36698915 .20463562 .36698915 .15661621 .36698915 .10658264 .34999085 .0705719 .31999208 .010528564 .27398683 .0055389406 .25099183 .0055389406Z"/>
<path id="font_3_2" d="M.2939911 .16503906V.07800293C.2939911 .041992189 .2919922 .0309906 .21798706 .0309906H.19699097V0C.23799134 .0029907227 .2899933 .0029907227 .33198548 .0029907227 .37399293 .0029907227 .4269867 .0029907227 .46798707 0V.0309906H.44699098C.37298585 .0309906 .37098695 .041992189 .37098695 .07800293V.16503906H.47099305V.19602967H.37098695V.65075686C.37098695 .67074587 .37098695 .6767578 .35499574 .6767578 .34599305 .6767578 .34298707 .6767578 .33499146 .66474917L.027999878 .19602967V.16503906H.2939911M.2999878 .19602967H.055999757L.2999878 .5688019V.19602967Z"/>
<path id="font_3_1" d="M.1269989 .07699585 .23298645 .18003845C.3889923 .31811524 .44898988 .3721466 .44898988 .47216798 .44898988 .5860901 .35899354 .6660156 .23699951 .6660156 .12399292 .6660156 .049987794 .57411196 .049987794 .48516847 .049987794 .4291687 .099990848 .4291687 .102996829 .4291687 .11999512 .4291687 .15499878 .44117738 .15499878 .48217774 .15499878 .5081787 .13699341 .5341797 .101989749 .5341797 .09399414 .5341797 .09199524 .5341797 .08898926 .5331726 .11199951 .59806826 .1659851 .63500979 .22399903 .63500979 .31498719 .63500979 .35798646 .5541382 .35798646 .47216798 .35798646 .39215089 .30799867 .31311036 .25299073 .25108338L.06098938 .036987306C.049987794 .025985718 .049987794 .023986817 .049987794 0H.42099L.44898988 .17404175H.42399598C.4189911 .14402771 .4119873 .1000061 .4019928 .084991458 .394989 .07699585 .32899476 .07699585 .30699159 .07699585H.1269989Z"/>
</defs>
<path transform="matrix(1.00003,0,0,-1.00003,143.32682,147.93506)" stroke-width=".3985" stroke-linecap="butt" stroke-miterlimit="10" stroke-linejoin="miter" fill="none" stroke="#00aeef" d="M-136.06606-136.06606H136.06606M-136.06606-119.0578H136.06606M-136.06606-102.04953H136.06606M-136.06606-85.04128H136.06606M-136.06606-68.03302H136.06606M-136.06606-51.02477H136.06606M-136.06606-34.0165H136.06606M-136.06606-17.00824H136.06606M-136.06606 0H136.06606M-136.06606 17.00824H136.06606M-136.06606 34.0165H136.06606M-136.06606 51.02477H136.06606M-136.06606 68.03302H136.06606M-136.06606 85.04128H136.06606M-136.06606 102.04953H136.06606M-136.06606 119.0578H136.06606M-136.06606 136.06009H136.06606M-136.06606-136.06606V136.06606M-119.0578-136.06606V136.06606M-102.04953-136.06606V136.06606M-85.04128-136.06606V136.06606M-68.03302-136.06606V136.06606M-51.02477-136.06606V136.06606M-34.0165-136.06606V136.06606M-17.00824-136.06606V136.06606M0-136.06606V136.06606M17.00824-136.06606V136.06606M34.0165-136.06606V136.06606M51.02477-136.06606V136.06606M68.03302-136.06606V136.06606M85.04128-136.06606V136.06606M102.04953-136.06606V136.06606M119.0578-136.06606V136.06606M136.06009-136.06606V136.06606M136.06606 136.06606"/>
<path transform="matrix(1.00003,0,0,-1.00003,143.32682,147.93506)" stroke-width=".79701" stroke-linecap="butt" stroke-miterlimit="10" stroke-linejoin="miter" fill="none" stroke="#000000" d="M-136.06606 0H134.63146"/>
<path transform="matrix(1.00003,0,0,-1.00003,277.9623,147.93506)" d="M1.0361 0C-.25902 .25902-1.55415 .77707-3.1083 1.68365-1.55415 .51805-1.55415-.51805-3.1083-1.68365-1.55415-.77707-.25902-.25902 1.0361 0Z"/>
<path transform="matrix(1.00003,0,0,-1.00003,277.9623,147.93506)" stroke-width=".79701" stroke-linecap="butt" stroke-linejoin="round" fill="none" stroke="#000000" d="M1.0361 0C-.25902 .25902-1.55415 .77707-3.1083 1.68365-1.55415 .51805-1.55415-.51805-3.1083-1.68365-1.55415-.77707-.25902-.25902 1.0361 0Z"/>
<use data-text="x" xlink:href="#font_1_1" transform="matrix(9.962899,0,0,-9.962899,283.11604,150.08013)"/>
<path transform="matrix(1.00003,0,0,-1.00003,143.32682,147.93506)" stroke-width=".79701" stroke-linecap="butt" stroke-miterlimit="10" stroke-linejoin="miter" fill="none" stroke="#000000" d="M0-136.06606V134.63146"/>
<path transform="matrix(0,-1.00003,-1.00003,-0,143.32682,13.299561)" d="M1.0361 0C-.25902 .25902-1.55415 .77707-3.1083 1.68365-1.55415 .51805-1.55415-.51805-3.1083-1.68365-1.55415-.77707-.25902-.25902 1.0361 0Z"/>
<path transform="matrix(0,-1.00003,-1.00003,-0,143.32682,13.299561)" stroke-width=".79701" stroke-linecap="butt" stroke-linejoin="round" fill="none" stroke="#000000" d="M1.0361 0C-.25902 .25902-1.55415 .77707-3.1083 1.68365-1.55415 .51805-1.55415-.51805-3.1083-1.68365-1.55415-.77707-.25902-.25902 1.0361 0Z"/>
<use data-text="y" xlink:href="#font_1_2" transform="matrix(9.962899,0,0,-9.962899,140.70574,6.2088015)"/>
<path transform="matrix(1.00003,0,0,-1.00003,143.32682,147.93506)" stroke-width=".3985" stroke-linecap="butt" stroke-miterlimit="10" stroke-linejoin="miter" fill="none" stroke="#000000" d="M1.70091-136.06606H-1.70065"/>
<path transform="matrix(1.00003,0,0,-1.00003,143.32682,147.93506)" d="M-18.61523-140.68767H-3.8924504V-131.44445H-18.61523Z" fill="#ffffff"/>
<use data-text="&#x2212;" xlink:href="#font_2_1" transform="matrix(9.962899,0,0,-9.962899,125.70728,286.80024)"/>
<use data-text="8" xlink:href="#font_3_4" transform="matrix(9.962899,0,0,-9.962899,133.45652,286.80024)"/>
<path transform="matrix(1.00003,0,0,-1.00003,143.32682,147.93506)" stroke-width=".3985" stroke-linecap="butt" stroke-miterlimit="10" stroke-linejoin="miter" fill="none" stroke="#000000" d="M-136.06606 1.70091V-1.70065"/>
<path transform="matrix(1.00003,0,0,-1.00003,143.32682,147.93506)" d="M-143.42745-13.13568H-128.70467V-3.8924504H-143.42745Z" fill="#ffffff"/>
<use data-text="&#x2212;" xlink:href="#font_2_1" transform="matrix(9.962899,0,0,-9.962899,.8915405,159.2444)"/>
<use data-text="8" xlink:href="#font_3_4" transform="matrix(9.962899,0,0,-9.962899,8.640762,159.2444)"/>
<path transform="matrix(1.00003,0,0,-1.00003,143.32682,147.93506)" stroke-width=".3985" stroke-linecap="butt" stroke-miterlimit="10" stroke-linejoin="miter" fill="none" stroke="#000000" d="M1.70091-102.04953H-1.70065"/>
<path transform="matrix(1.00003,0,0,-1.00003,143.32682,147.93506)" d="M-18.61523-106.67114H-3.8924504V-97.42791H-18.61523Z" fill="#ffffff"/>
<use data-text="&#x2212;" xlink:href="#font_2_1" transform="matrix(9.962899,0,0,-9.962899,125.70728,252.7832)"/>
<use data-text="6" xlink:href="#font_3_3" transform="matrix(9.962899,0,0,-9.962899,133.45652,252.7832)"/>
<path transform="matrix(1.00003,0,0,-1.00003,143.32682,147.93506)" stroke-width=".3985" stroke-linecap="butt" stroke-miterlimit="10" stroke-linejoin="miter" fill="none" stroke="#000000" d="M-102.04953 1.70091V-1.70065"/>
<path transform="matrix(1.00003,0,0,-1.00003,143.32682,147.93506)" d="M-109.41092-13.13568H-94.68814V-3.8924504H-109.41092Z" fill="#ffffff"/>
<use data-text="&#x2212;" xlink:href="#font_2_1" transform="matrix(9.962899,0,0,-9.962899,34.908555,159.2444)"/>
<use data-text="6" xlink:href="#font_3_3" transform="matrix(9.962899,0,0,-9.962899,42.657777,159.2444)"/>
<path transform="matrix(1.00003,0,0,-1.00003,143.32682,147.93506)" stroke-width=".3985" stroke-linecap="butt" stroke-miterlimit="10" stroke-linejoin="miter" fill="none" stroke="#000000" d="M1.70091-68.03302H-1.70065"/>
<path transform="matrix(1.00003,0,0,-1.00003,143.32682,147.93506)" d="M-18.61523-72.65465H-3.8924504V-63.41142H-18.61523Z" fill="#ffffff"/>
<use data-text="&#x2212;" xlink:href="#font_2_1" transform="matrix(9.962899,0,0,-9.962899,125.70728,218.7652)"/>
<use data-text="4" xlink:href="#font_3_2" transform="matrix(9.962899,0,0,-9.962899,133.45652,218.7652)"/>
<path transform="matrix(1.00003,0,0,-1.00003,143.32682,147.93506)" stroke-width=".3985" stroke-linecap="butt" stroke-miterlimit="10" stroke-linejoin="miter" fill="none" stroke="#000000" d="M-68.03302 1.70091V-1.70065"/>
<path transform="matrix(1.00003,0,0,-1.00003,143.32682,147.93506)" d="M-75.39442-13.13568H-60.67164V-3.8924504H-75.39442Z" fill="#ffffff"/>
<use data-text="&#x2212;" xlink:href="#font_2_1" transform="matrix(9.962899,0,0,-9.962899,68.926578,159.2444)"/>
<use data-text="4" xlink:href="#font_3_2" transform="matrix(9.962899,0,0,-9.962899,76.6758,159.2444)"/>
<path transform="matrix(1.00003,0,0,-1.00003,143.32682,147.93506)" stroke-width=".3985" stroke-linecap="butt" stroke-miterlimit="10" stroke-linejoin="miter" fill="none" stroke="#000000" d="M1.70091-34.0165H-1.70065"/>
<path transform="matrix(1.00003,0,0,-1.00003,143.32682,147.93506)" d="M-18.61523-38.63812H-3.8924504V-29.39489H-18.61523Z" fill="#ffffff"/>
<use data-text="&#x2212;" xlink:href="#font_2_1" transform="matrix(9.962899,0,0,-9.962899,125.70728,184.74817)"/>
<use data-text="2" xlink:href="#font_3_1" transform="matrix(9.962899,0,0,-9.962899,133.45652,184.74817)"/>
<path transform="matrix(1.00003,0,0,-1.00003,143.32682,147.93506)" stroke-width=".3985" stroke-linecap="butt" stroke-miterlimit="10" stroke-linejoin="miter" fill="none" stroke="#000000" d="M-34.0165 1.70091V-1.70065"/>
<path transform="matrix(1.00003,0,0,-1.00003,143.32682,147.93506)" d="M-41.3779-13.13568H-26.655119V-3.8924504H-41.3779Z" fill="#ffffff"/>
<use data-text="&#x2212;" xlink:href="#font_2_1" transform="matrix(9.962899,0,0,-9.962899,102.9436,159.2444)"/>
<use data-text="2" xlink:href="#font_3_1" transform="matrix(9.962899,0,0,-9.962899,110.692829,159.2444)"/>
<path transform="matrix(1.00003,0,0,-1.00003,143.32682,147.93506)" stroke-width=".3985" stroke-linecap="butt" stroke-miterlimit="10" stroke-linejoin="miter" fill="none" stroke="#000000" d="M1.70091 34.0165H-1.70065"/>
<path transform="matrix(1.00003,0,0,-1.00003,143.32682,147.93506)" d="M-10.8664 29.81001H-3.8924599V38.222993H-10.8664Z" fill="#ffffff"/>
<use data-text="2" xlink:href="#font_3_1" transform="matrix(9.962899,0,0,-9.962899,133.45652,117.128139)"/>
<path transform="matrix(1.00003,0,0,-1.00003,143.32682,147.93506)" stroke-width=".3985" stroke-linecap="butt" stroke-miterlimit="10" stroke-linejoin="miter" fill="none" stroke="#000000" d="M34.0165 1.70091V-1.70065"/>
<path transform="matrix(1.00003,0,0,-1.00003,143.32682,147.93506)" d="M30.52953-12.30545H37.50347V-3.8924704H30.52953Z" fill="#ffffff"/>
<use data-text="2" xlink:href="#font_3_1" transform="matrix(9.962899,0,0,-9.962899,174.85376,159.2444)"/>
<path transform="matrix(1.00003,0,0,-1.00003,143.32682,147.93506)" stroke-width=".3985" stroke-linecap="butt" stroke-miterlimit="10" stroke-linejoin="miter" fill="none" stroke="#000000" d="M1.70091 68.03302H-1.70065"/>
<path transform="matrix(1.00003,0,0,-1.00003,143.32682,147.93506)" d="M-10.8664 63.82654H-3.8924599V72.239528H-10.8664Z" fill="#ffffff"/>
<use data-text="4" xlink:href="#font_3_2" transform="matrix(9.962899,0,0,-9.962899,133.45652,83.110118)"/>
<path transform="matrix(1.00003,0,0,-1.00003,143.32682,147.93506)" stroke-width=".3985" stroke-linecap="butt" stroke-miterlimit="10" stroke-linejoin="miter" fill="none" stroke="#000000" d="M68.03302 1.70091V-1.70065"/>
<path transform="matrix(1.00003,0,0,-1.00003,143.32682,147.93506)" d="M64.54605-12.30545H71.51999V-3.8924704H64.54605Z" fill="#ffffff"/>
<use data-text="4" xlink:href="#font_3_2" transform="matrix(9.962899,0,0,-9.962899,208.87079,159.2444)"/>
<path transform="matrix(1.00003,0,0,-1.00003,143.32682,147.93506)" stroke-width=".3985" stroke-linecap="butt" stroke-miterlimit="10" stroke-linejoin="miter" fill="none" stroke="#000000" d="M1.70091 102.04953H-1.70065"/>
<path transform="matrix(1.00003,0,0,-1.00003,143.32682,147.93506)" d="M-10.8664 97.84305H-3.8924599V106.25603H-10.8664Z" fill="#ffffff"/>
<use data-text="6" xlink:href="#font_3_3" transform="matrix(9.962899,0,0,-9.962899,133.45652,49.093095)"/>
<path transform="matrix(1.00003,0,0,-1.00003,143.32682,147.93506)" stroke-width=".3985" stroke-linecap="butt" stroke-miterlimit="10" stroke-linejoin="miter" fill="none" stroke="#000000" d="M102.04953 1.70091V-1.70065"/>
<path transform="matrix(1.00003,0,0,-1.00003,143.32682,147.93506)" d="M98.56256-12.30545H105.5365V-3.8924704H98.56256Z" fill="#ffffff"/>
<use data-text="6" xlink:href="#font_3_3" transform="matrix(9.962899,0,0,-9.962899,242.8888,159.2444)"/>
<path transform="matrix(1.00003,0,0,-1.00003,143.32682,147.93506)" stroke-width=".3985" stroke-linecap="butt" stroke-miterlimit="10" stroke-linejoin="miter" fill="none" stroke="#000000" d="M1.70091 136.06606H-1.70065"/>
<path transform="matrix(1.00003,0,0,-1.00003,143.32682,147.93506)" d="M-10.8664 131.85958H-3.8924599V140.27256H-10.8664Z" fill="#ffffff"/>
<use data-text="8" xlink:href="#font_3_4" transform="matrix(9.962899,0,0,-9.962899,133.45652,15.075058)"/>
<path transform="matrix(1.00003,0,0,-1.00003,143.32682,147.93506)" stroke-width=".3985" stroke-linecap="butt" stroke-miterlimit="10" stroke-linejoin="miter" fill="none" stroke="#000000" d="M136.06606 1.70091V-1.70065"/>
<path transform="matrix(1.00003,0,0,-1.00003,143.32682,147.93506)" d="M132.57909-12.30545H139.55303V-3.8924704H132.57909Z" fill="#ffffff"/>
<use data-text="8" xlink:href="#font_3_4" transform="matrix(9.962899,0,0,-9.962899,276.90583,159.2444)"/>
<path transform="matrix(1.00003,0,0,-1.00003,143.32682,147.93506)" stroke-width="1.19553" stroke-linecap="butt" stroke-miterlimit="10" stroke-linejoin="miter" fill="none" stroke="#0000ff" d="M-51.02477-68.03302V68.03302H51.02477V-68.03302ZM51.02477 68.03302"/>
<path transform="matrix(1.00003,0,0,-1.00003,143.32682,147.93506)" stroke-width=".3985" stroke-linecap="butt" stroke-dasharray="2.98883,2.98883" stroke-miterlimit="10" stroke-linejoin="miter" fill="none" stroke="#929292" d="M-102.04953 136.06606 102.04953-136.06606"/>
<path transform="matrix(1.00003,0,0,-1.00003,143.32682,147.93506)" stroke-width=".3985" stroke-linecap="butt" stroke-dasharray="2.98883,2.98883" stroke-miterlimit="10" stroke-linejoin="miter" fill="none" stroke="#929292" d="M102.04953 136.06606-102.04953-136.06606"/>
<path transform="matrix(1.00003,0,0,-1.00003,143.32682,147.93506)" stroke-width="1.19553" stroke-linecap="butt" stroke-miterlimit="10" stroke-linejoin="miter" fill="none" stroke="#ff0000" d="M113.69777-135.47298C111.43016-132.08522 111.43016-132.08522 110.20201-130.2371 108.97388-128.389 107.05472-125.48518 105.88791-123.70953 104.72113-121.93385 102.90009-119.14548 101.7926-117.43939 100.68513-115.7333 98.9566-113.05492 97.90594-111.41321 96.85529-109.7715 95.21638-107.18745 94.22017-105.60712 93.22397-104.02676 91.66931-101.54445 90.72592-100.02316 89.78253-98.50186 88.31348-96.1085 87.42087-94.64267 86.52826-93.17683 85.13644-90.87152 84.29254-89.45839 83.44865-88.04527 82.1351-85.82202 81.33862-84.45787 80.54216-83.09372 79.30298-80.944 78.5521-79.62653 77.80122-78.30907 76.63377-76.23547 75.92674-74.96234 75.21971-73.68922 74.12077-71.68225 73.45631-70.45074 72.79185-69.21927 71.76102-67.27933 71.13773-66.08658 70.51442-64.89383 69.54738-63.01083 68.96393-61.85425 68.38048-60.69765 67.47739-58.87265 66.93263-57.75063 66.38786-56.62859 65.54465-54.85805 65.03757-53.76741 64.5305-52.67679 63.74834-50.9515 63.27798-49.8901 62.80765-48.82872 62.08278-47.15096 61.64764-46.11766 61.21252-45.08435 60.54243-43.45087 60.14188-42.44278 59.74133-41.43468 59.12723-39.83731 58.76068-38.85197 58.39417-37.86665 57.8332-36.30542 57.50018-35.34111 57.16714-34.3768 56.66109-32.84676 56.36034-31.90189 56.0596-30.95703 55.60172-29.45918 55.33263-28.53117 55.06354-27.60315 54.65868-26.12613 54.4209-25.21338 54.18314-24.30066 53.82594-22.85193 53.61897-21.95271 53.412-21.05351 53.10599-19.61977 52.92917-18.73253 52.75232-17.84529 52.49126-16.43547 52.34445-15.55801 52.19765-14.68056 51.98805-13.27824 51.87108-12.40842 51.75407-11.53859 51.58875-10.15239 51.50125-9.28893 51.41376-8.42543 51.29854-7.0443 51.24042-6.185 51.18231-5.32568 51.11154-3.95218 51.08237-3.0956 51.0532-2.23903 51.03032-.86465 51.03021-.0114 51.0301 .84183 51.05286 2.19966 51.08159 3.05408 51.11034 3.90848 51.17963 5.28699 51.2373 6.14658 51.295 7.00618 51.41008 8.38628 51.49734 9.24947 51.58464 10.11266 51.74962 11.49838 51.86641 12.36792 51.98317 13.23744 52.19284 14.63887 52.33899 15.51648 52.48514 16.39409 52.74352 17.8057 52.91982 18.69307 53.09612 19.58047 53.40277 21.01332 53.60963 21.91223 53.8165 22.81116 54.17357 24.2597 54.41078 25.17188 54.64801 26.08403 55.05083 27.5591 55.31938 28.48653 55.58792 29.41397 56.0457 30.9115 56.34633 31.85622 56.64696 32.80092 57.15334 34.33142 57.48615 35.29544 57.81898 36.25946 58.37924 37.8189 58.74512 38.80423 59.11101 39.78957 59.7233 41.38899 60.12321 42.3971 60.52312 43.40518 61.19272 45.03703 61.62741 46.0699 62.0621 47.10275 62.78627 48.78038 63.25618 49.84132 63.72609 50.90227 64.5078 52.62593 65.01422 53.71655 65.52065 54.80717 66.36194 56.57965 66.90616 57.70184 67.4504 58.824 68.35378 60.64853 68.93668 61.80441 69.51958 62.96028 70.48448 64.84056 71.10735 66.0326 71.73022 67.22461 72.76181 69.16467 73.42596 70.39574 74.0901 71.62679 75.18765 73.63284 75.89404 74.90524 76.60042 76.17766 77.76683 78.2497 78.51707 79.56633 79.2673 80.88293 80.50522 83.0311 81.30125 84.39453 82.09729 85.75797 83.41104 87.98059 84.2544 89.39299 85.09775 90.80539 86.48775 93.10919 87.3796 94.57416 88.27147 96.03912 89.7399 98.43054 90.68231 99.95154 91.62474 101.47253 93.17644 103.95718 94.1719 105.53651 95.16736 107.11586 96.80688 109.69362 97.85689 111.3343 98.9069 112.975 100.63283 115.65544 101.73965 117.36153 102.8465 119.06761 104.66806 121.8557 105.83418 123.63063 107.00034 125.40556 108.91658 128.30739 110.1444 130.15406 111.37221 132.00074 114.68349 136.94013 113.64061 135.38443"/>
<path transform="matrix(.5562267,.83102497,.83102497,-.5562267,257.028,283.4121)" d="M1.27522 0C-.31879 .31879-1.91284 .9564-3.8257 2.07224-1.91284 .6376-1.91284-.6376-3.8257-2.07224-1.91284-.9564-.31879-.31879 1.27522 0Z" fill="#ff0000"/>
<path transform="matrix(.5562267,.83102497,.83102497,-.5562267,257.028,283.4121)" stroke-width="1.19553" stroke-linecap="butt" stroke-linejoin="round" fill="none" stroke="#ff0000" d="M1.27522 0C-.31879 .31879-1.91284 .9564-3.8257 2.07224-1.91284 .6376-1.91284-.6376-3.8257-2.07224-1.91284-.9564-.31879-.31879 1.27522 0Z"/>
<path transform="matrix(.5568268,-.830625,-.830625,-.5568268,256.97084,12.546555)" d="M1.27522 0C-.31879 .31879-1.91284 .9564-3.8257 2.07224-1.91284 .6376-1.91284-.6376-3.8257-2.07224-1.91284-.9564-.31879-.31879 1.27522 0Z" fill="#ff0000"/>
<path transform="matrix(.5568268,-.830625,-.830625,-.5568268,256.97084,12.546555)" stroke-width="1.19553" stroke-linecap="butt" stroke-linejoin="round" fill="none" stroke="#ff0000" d="M1.27522 0C-.31879 .31879-1.91284 .9564-3.8257 2.07224-1.91284 .6376-1.91284-.6376-3.8257-2.07224-1.91284-.9564-.31879-.31879 1.27522 0Z"/>
<path transform="matrix(1.00003,0,0,-1.00003,143.32682,147.93506)" stroke-width="1.19553" stroke-linecap="butt" stroke-miterlimit="10" stroke-linejoin="miter" fill="none" stroke="#ff0000" d="M-113.69777-135.47298C-111.43016-132.08522-111.43016-132.08522-110.20201-130.2371-108.97388-128.389-107.05472-125.48518-105.88791-123.70953-104.72113-121.93385-102.90009-119.14548-101.7926-117.43939-100.68513-115.7333-98.9566-113.05492-97.90594-111.41321-96.85529-109.7715-95.21638-107.18745-94.22017-105.60712-93.22397-104.02676-91.66931-101.54445-90.72592-100.02316-89.78253-98.50186-88.31348-96.1085-87.42087-94.64267-86.52826-93.17683-85.13644-90.87152-84.29254-89.45839-83.44865-88.04527-82.1351-85.82202-81.33862-84.45787-80.54216-83.09372-79.30298-80.944-78.5521-79.62653-77.80122-78.30907-76.63377-76.23547-75.92674-74.96234-75.21971-73.68922-74.12077-71.68225-73.45631-70.45074-72.79185-69.21927-71.76102-67.27933-71.13773-66.08658-70.51442-64.89383-69.54738-63.01083-68.96393-61.85425-68.38048-60.69765-67.47739-58.87265-66.93263-57.75063-66.38786-56.62859-65.54465-54.85805-65.03757-53.76741-64.5305-52.67679-63.74834-50.9515-63.27798-49.8901-62.80765-48.82872-62.08278-47.15096-61.64764-46.11766-61.21252-45.08435-60.54243-43.45087-60.14188-42.44278-59.74133-41.43468-59.12723-39.83731-58.76068-38.85197-58.39417-37.86665-57.8332-36.30542-57.50018-35.34111-57.16714-34.3768-56.66109-32.84676-56.36034-31.90189-56.0596-30.95703-55.60172-29.45918-55.33263-28.53117-55.06354-27.60315-54.65868-26.12613-54.4209-25.21338-54.18314-24.30066-53.82594-22.85193-53.61897-21.95271-53.412-21.05351-53.10599-19.61977-52.92917-18.73253-52.75232-17.84529-52.49126-16.43547-52.34445-15.55801-52.19765-14.68056-51.98805-13.27824-51.87108-12.40842-51.75407-11.53859-51.58875-10.15239-51.50125-9.28893-51.41376-8.42543-51.29854-7.0443-51.24042-6.185-51.18231-5.32568-51.11154-3.95218-51.08237-3.0956-51.0532-2.23903-51.03032-.86465-51.03021-.0114-51.0301 .84183-51.05286 2.19966-51.08159 3.05408-51.11034 3.90848-51.17963 5.28699-51.2373 6.14658-51.295 7.00618-51.41008 8.38628-51.49734 9.24947-51.58464 10.11266-51.74962 11.49838-51.86641 12.36792-51.98317 13.23744-52.19284 14.63887-52.33899 15.51648-52.48514 16.39409-52.74352 17.8057-52.91982 18.69307-53.09612 19.58047-53.40277 21.01332-53.60963 21.91223-53.8165 22.81116-54.17357 24.2597-54.41078 25.17188-54.64801 26.08403-55.05083 27.5591-55.31938 28.48653-55.58792 29.41397-56.0457 30.9115-56.34633 31.85622-56.64696 32.80092-57.15334 34.33142-57.48615 35.29544-57.81898 36.25946-58.37924 37.8189-58.74512 38.80423-59.11101 39.78957-59.7233 41.38899-60.12321 42.3971-60.52312 43.40518-61.19272 45.03703-61.62741 46.0699-62.0621 47.10275-62.78627 48.78038-63.25618 49.84132-63.72609 50.90227-64.5078 52.62593-65.01422 53.71655-65.52065 54.80717-66.36194 56.57965-66.90616 57.70184-67.4504 58.824-68.35378 60.64853-68.93668 61.80441-69.51958 62.96028-70.48448 64.84056-71.10735 66.0326-71.73022 67.22461-72.76181 69.16467-73.42596 70.39574-74.0901 71.62679-75.18765 73.63284-75.89404 74.90524-76.60042 76.17766-77.76683 78.2497-78.51707 79.56633-79.2673 80.88293-80.50522 83.0311-81.30125 84.39453-82.09729 85.75797-83.41104 87.98059-84.2544 89.39299-85.09775 90.80539-86.48775 93.10919-87.3796 94.57416-88.27147 96.03912-89.7399 98.43054-90.68231 99.95154-91.62474 101.47253-93.17644 103.95718-94.1719 105.53651-95.16736 107.11586-96.80688 109.69362-97.85689 111.3343-98.9069 112.975-100.63283 115.65544-101.73965 117.36153-102.8465 119.06761-104.66806 121.8557-105.83418 123.63063-107.00034 125.40556-108.91658 128.30739-110.1444 130.15406-111.37221 132.00074-114.68349 136.94013-113.64061 135.38443"/>
<path transform="matrix(-.5562267,.83102497,.83102497,.5562267,29.625626,283.4121)" d="M1.27522 0C-.31879 .31879-1.91284 .9564-3.8257 2.07224-1.91284 .6376-1.91284-.6376-3.8257-2.07224-1.91284-.9564-.31879-.31879 1.27522 0Z" fill="#ff0000"/>
<path transform="matrix(-.5562267,.83102497,.83102497,.5562267,29.625626,283.4121)" stroke-width="1.19553" stroke-linecap="butt" stroke-linejoin="round" fill="none" stroke="#ff0000" d="M1.27522 0C-.31879 .31879-1.91284 .9564-3.8257 2.07224-1.91284 .6376-1.91284-.6376-3.8257-2.07224-1.91284-.9564-.31879-.31879 1.27522 0Z"/>
<path transform="matrix(-.5568268,-.830625,-.830625,.5568268,29.6828,12.546555)" d="M1.27522 0C-.31879 .31879-1.91284 .9564-3.8257 2.07224-1.91284 .6376-1.91284-.6376-3.8257-2.07224-1.91284-.9564-.31879-.31879 1.27522 0Z" fill="#ff0000"/>
<path transform="matrix(-.5568268,-.830625,-.830625,.5568268,29.6828,12.546555)" stroke-width="1.19553" stroke-linecap="butt" stroke-linejoin="round" fill="none" stroke="#ff0000" d="M1.27522 0C-.31879 .31879-1.91284 .9564-3.8257 2.07224-1.91284 .6376-1.91284-.6376-3.8257-2.07224-1.91284-.9564-.31879-.31879 1.27522 0Z"/>
</svg>
