<svg xmlns="http://www.w3.org/2000/svg" xmlns:xlink="http://www.w3.org/1999/xlink" version="1.1" width="205" height="260" viewBox="0 0 205 260">
<defs>
<path id="font_1_2" d="M.20599365 .3996582H.2999878C.31999208 .3996582 .32998658 .3996582 .32998658 .41966249 .32998658 .43066407 .31999208 .43066407 .3019867 .43066407H.21398926C.25 .5724945 .25498963 .59246829 .25498963 .59846499 .25498963 .61546328 .24299622 .62545779 .22599793 .62545779 .22299195 .62545779 .19499207 .62446597 .18598938 .58947756L.14698792 .43066407H.052993776C.032989503 .43066407 .022994996 .43066407 .022994996 .4116516 .022994996 .3996582 .0309906 .3996582 .050994874 .3996582H.13899231C.066986087 .11608887 .06298828 .099121097 .06298828 .08114624 .06298828 .02722168 .100997928-.0107421879 .15499878-.0107421879 .25698854-.0107421879 .31399537 .13505554 .31399537 .14305115 .31399537 .1530304 .30599977 .1530304 .3019867 .1530304 .29299928 .1530304 .2919922 .15003968 .2869873 .13905335 .24398804 .035217287 .19099427 .011245728 .15699768 .011245728 .13598633 .011245728 .12599182 .024230957 .12599182 .057174684 .12599182 .08114624 .12799073 .088134769 .13198853 .10510254L.20599365 .3996582Z"/>
<path id="font_1_1" d="M.2869873 .68333438C.2869873 .6843262 .2869873 .69433596 .27398683 .69433596 .25099183 .69433596 .17799378 .6863251 .1519928 .6843262 .14399719 .68333438 .1329956 .6823273 .1329956 .6643219 .1329956 .6523285 .14199829 .6523285 .15699768 .6523285 .20498657 .6523285 .20698548 .6453247 .20698548 .6353302L.20399475 .6153412 .05899048 .039260866C.054992677 .025253296 .054992677 .023254395 .054992677 .01725769 .054992677-.0057525637 .07499695-.0107421879 .083999637-.0107421879 .099990848-.0107421879 .115997318 .0012512207 .12098694 .015258789L.13999939 .091278079 .1619873 .18130493C.16799927 .2033081 .17399597 .22531128 .1789856 .24832154 .18099976 .25431825 .18899536 .28733827 .18998719 .29333497 .19299317 .30233766 .22399903 .35835267 .2579956 .38536073 .27999879 .4013672 .31098939 .42037965 .35398866 .42037965 .39698792 .42037965 .4079895 .3863678 .4079895 .35035707 .4079895 .29634095 .36999513 .18730164 .34599305 .12628174 .33799745 .103271488 .33299256 .091278079 .33299256 .0712738 .33299256 .024261475 .36799623-.0107421879 .4149933-.0107421879 .5089874-.0107421879 .54599 .13528443 .54599 .14329529 .54599 .1532898 .5369873 .1532898 .5339966 .1532898 .5239868 .1532898 .5239868 .15029907 .5189972 .13528443 .5039978 .08227539 .47200013 .011245728 .4169922 .011245728 .3999939 .011245728 .3929901 .021255494 .3929901 .044265748 .3929901 .0692749 .4019928 .09327698 .41099549 .11528015 .4269867 .15829468 .47200013 .2773285 .47200013 .3353424 .47200013 .4003601 .43199159 .4423828 .35699464 .4423828 .2939911 .4423828 .24598694 .41137696 .20899964 .36535646L.2869873 .68333438Z"/>
<path id="font_2_2" d="M.2939911 .64004519C.2939911 .66400149 .2939911 .6660156 .2709961 .6660156 .20899964 .60227969 .12098694 .60227969 .08898926 .60227969V.57128909C.10899353 .57128909 .16799927 .57128909 .21998596 .5972748V.07902527C.21998596 .042999269 .21699524 .0309906 .1269989 .0309906H.09498596V0C.12998963 .0029907227 .21699524 .0029907227 .25698854 .0029907227 .29699708 .0029907227 .38398744 .0029907227 .4189911 0V.0309906H.3869934C.29699708 .0309906 .2939911 .041992189 .2939911 .07902527V.64004519Z"/>
<path id="font_2_3" d="M.1269989 .07699585 .23298645 .18003845C.3889923 .31811524 .44898988 .3721466 .44898988 .47216798 .44898988 .5860901 .35899354 .6660156 .23699951 .6660156 .12399292 .6660156 .049987794 .57411196 .049987794 .48516847 .049987794 .4291687 .099990848 .4291687 .102996829 .4291687 .11999512 .4291687 .15499878 .44117738 .15499878 .48217774 .15499878 .5081787 .13699341 .5341797 .101989749 .5341797 .09399414 .5341797 .09199524 .5341797 .08898926 .5331726 .11199951 .59806826 .1659851 .63500979 .22399903 .63500979 .31498719 .63500979 .35798646 .5541382 .35798646 .47216798 .35798646 .39215089 .30799867 .31311036 .25299073 .25108338L.06098938 .036987306C.049987794 .025985718 .049987794 .023986817 .049987794 0H.42099L.44898988 .17404175H.42399598C.4189911 .14402771 .4119873 .1000061 .4019928 .084991458 .394989 .07699585 .32899476 .07699585 .30699159 .07699585H.1269989Z"/>
<path id="font_2_4" d="M.2899933 .35191346C.37199403 .37893678 .42999269 .4490509 .42999269 .52809146 .42999269 .6100464 .34199525 .6660156 .24598694 .6660156 .14498902 .6660156 .068984989 .60606387 .068984989 .53009036 .068984989 .49710084 .09098816 .47808839 .11999512 .47808839 .15098572 .47808839 .17098999 .50009158 .17098999 .5290985 .17098999 .57910159 .12399292 .57910159 .10899353 .57910159 .13999939 .62802127 .20599365 .64100649 .24198914 .64100649 .2829895 .64100649 .33799745 .6190338 .33799745 .5290985 .33799745 .51708987 .33599855 .45906068 .30999757 .4149933 .27999879 .36691285 .24598694 .36390687 .22099304 .36291505 .21299744 .36190797 .18899536 .35990907 .18199158 .35990907 .17399597 .35890199 .16699219 .35791017 .16699219 .3479004 .16699219 .33691407 .17399597 .33691407 .19099427 .33691407H.23498535C.31698609 .33691407 .35398866 .2686615 .35398866 .17037964 .35398866 .034469606 .2849884 .0055389406 .24099732 .0055389406 .19799805 .0055389406 .12298584 .022491456 .08799744 .08137512 .12298584 .07637024 .1539917 .09837341 .1539917 .1363678 .1539917 .17237854 .1269989 .19238281 .09799194 .19238281 .07398987 .19238281 .041992189 .17837525 .041992189 .1343689 .041992189 .043441774 .1349945-.022460938 .24398804-.022460938 .3659973-.022460938 .45700074 .06838989 .45700074 .17037964 .45700074 .252594 .3939972 .33088685 .2899933 .35191346Z"/>
<path id="font_2_5" d="M.2939911 .16503906V.07800293C.2939911 .041992189 .2919922 .0309906 .21798706 .0309906H.19699097V0C.23799134 .0029907227 .2899933 .0029907227 .33198548 .0029907227 .37399293 .0029907227 .4269867 .0029907227 .46798707 0V.0309906H.44699098C.37298585 .0309906 .37098695 .041992189 .37098695 .07800293V.16503906H.47099305V.19602967H.37098695V.65075686C.37098695 .67074587 .37098695 .6767578 .35499574 .6767578 .34599305 .6767578 .34298707 .6767578 .33499146 .66474917L.027999878 .19602967V.16503906H.2939911M.2999878 .19602967H.055999757L.2999878 .5688019V.19602967Z"/>
<path id="font_2_6" d="M.44898988 .20022583C.44898988 .3193512 .36698915 .41944886 .25898744 .41944886 .21099854 .41944886 .16799927 .40345765 .13198853 .36842347V.5637665C.1519928 .5577698 .18499756 .55078127 .21699524 .55078127 .33999635 .55078127 .4099884 .6417694 .4099884 .6547699 .4099884 .6607666 .40699769 .6657715 .3999939 .6657715 .39898683 .6657715 .39698792 .6657715 .3919983 .66278079 .37199403 .6537781 .32299806 .6337738 .2559967 .6337738 .21598816 .6337738 .16999817 .6407776 .12298584 .6617737 .114990238 .66477969 .11299133 .66477969 .11099243 .66477969 .100997928 .66477969 .100997928 .6567688 .100997928 .6407776V.34439088C.100997928 .32637025 .100997928 .31835938 .114990238 .31835938 .12199402 .31835938 .12399292 .32136537 .12799073 .32736207 .13899231 .3433838 .17599488 .39746095 .25698854 .39746095 .30899049 .39746095 .33399964 .35139466 .34199525 .33337403 .35798646 .29632569 .3600006 .25727845 .3600006 .20722962 .3600006 .17222595 .3600006 .11222839 .33599855 .07035828 .31199647 .031463624 .2749939 .0055389406 .22898865 .0055389406 .1559906 .0055389406 .09899902 .058380128 .08198547 .11723328 .084991458 .1162262 .08799744 .115234378 .09899902 .115234378 .13198853 .115234378 .14898682 .14022827 .14898682 .16423035 .14898682 .18823242 .13198853 .21322632 .09899902 .21322632 .084991458 .21322632 .049987794 .20622254 .049987794 .16023255 .049987794 .07434082 .11898804-.022460938 .23098755-.022460938 .34700013-.022460938 .44898988 .073349 .44898988 .20022583Z"/>
<path id="font_2_1" d="M.45999146 .31976319C.45999146 .39982606 .45498658 .47988893 .41999818 .5539398 .37399293 .65000918 .2919922 .6660156 .25 .6660156 .18998719 .6660156 .116989139 .64001467 .07598877 .54693606 .04399109 .47789 .038986207 .39982606 .038986207 .31976319 .038986207 .24472046 .042999269 .15464783 .083999637 .07859802 .1269989-.0024719239 .19999695-.022460938 .24899292-.022460938 .30299378-.022460938 .3789978-.0014648438 .4229889 .09359741 .45498658 .16265869 .45999146 .2407074 .45999146 .31976319M.24899292-.00047302247C.20999146-.00047302247 .15098572 .024551392 .1329956 .12062073 .12199402 .18066406 .12199402 .2727356 .12199402 .3317871 .12199402 .39582826 .12199402 .46188355 .12998963 .5159149 .14898682 .63500979 .22399903 .64401248 .24899292 .64401248 .28199769 .64401248 .34799195 .6259918 .36698915 .52693179 .3769989 .47088624 .3769989 .39482118 .3769989 .3317871 .3769989 .25672914 .3769989 .18867493 .3659973 .12461853 .35099793 .029556275 .2939911-.00047302247 .24899292-.00047302247Z"/>
<path id="font_2_7" d="M.13198853 .327713V.35173036C.13198853 .6047821 .2559967 .64100649 .30699159 .64100649 .33099366 .64100649 .37298585 .634964 .394989 .6007538 .37998963 .6007538 .33999635 .6007538 .33999635 .5557556 .33999635 .524765 .3639984 .5097656 .38598634 .5097656 .4019928 .5097656 .43199159 .51875308 .43199159 .5577545 .43199159 .6178589 .3880005 .6660156 .30499269 .6660156 .1769867 .6660156 .041992189 .5367584 .041992189 .31570436 .041992189 .048553468 .1579895-.022460938 .25099183-.022460938 .3619995-.022460938 .45700074 .07156372 .45700074 .2036438 .45700074 .33070375 .36799623 .4267578 .25698854 .4267578 .18899536 .4267578 .1519928 .37573243 .13198853 .327713M.25099183 .0055389406C.18798828 .0055389406 .1579895 .06556702 .1519928 .080566409 .13398743 .127594 .13398743 .2076416 .13398743 .22564698 .13398743 .30369569 .1659851 .40374757 .2559967 .40374757 .27198792 .40374757 .31799317 .40374757 .34899903 .34172059 .36698915 .30470277 .36698915 .2536621 .36698915 .20463562 .36698915 .15661621 .36698915 .10658264 .34999085 .0705719 .31999208 .010528564 .27398683 .0055389406 .25099183 .0055389406Z"/>
<path id="font_2_8" d="M.47599793 .609375C.4850006 .6213684 .4850006 .62338259 .4850006 .64437869H.24198914C.11999512 .64437869 .117996219 .65737918 .11399841 .67637637H.08898926L.055999757 .4702301H.08099365C.083999637 .48625184 .09298706 .5493469 .10598755 .56137087 .11299133 .5673828 .19099427 .5673828 .20399475 .5673828H.41099549C.3999939 .5513611 .32099916 .4421997 .29899598 .40914918 .20899964 .27394105 .17599488 .1347351 .17599488 .032577516 .17599488 .022567749 .17599488-.022460938 .22200012-.022460938 .2679901-.022460938 .2679901 .022567749 .2679901 .032577516V.08366394C.2679901 .13873291 .2709961 .19381714 .2789917 .24790955 .2829895 .27093507 .29699708 .35707093 .34098817 .41915895L.47599793 .609375Z"/>
<path id="font_2_9" d="M.16299439 .4569702C.116989139 .486969 .11299133 .52098086 .11299133 .5379791 .11299133 .598999 .17799378 .64100649 .24899292 .64100649 .32199098 .64100649 .38598634 .58898928 .38598634 .51698306 .38598634 .45996095 .34700013 .4119568 .2869873 .37695313L.16299439 .4569702M.30899049 .36193849C.3809967 .3989563 .42999269 .45095826 .42999269 .51698306 .42999269 .6090088 .34098817 .6660156 .25 .6660156 .1499939 .6660156 .068984989 .59199526 .068984989 .49897767 .068984989 .4809723 .070999149 .43595887 .11299133 .38894654 .12399292 .37695313 .16099549 .35194398 .18598938 .33494569 .12799073 .30592347 .041992189 .24984741 .041992189 .15072632 .041992189 .04458618 .14399719-.022460938 .24899292-.022460938 .3619995-.022460938 .45700074 .06060791 .45700074 .16773987 .45700074 .20379639 .44599916 .24885559 .4079895 .2909088 .3889923 .31193543 .37298585 .3219452 .30899049 .36193849M.20899964 .3199463 .33198548 .24183655C.3600006 .2228241 .40699769 .19277954 .40699769 .13169861 .40699769 .05760193 .33198548 .0055389406 .25 .0055389406 .1639862 .0055389406 .09199524 .067611698 .09199524 .15072632 .09199524 .20880127 .12399292 .27288819 .20899964 .3199463Z"/>
</defs>
<path transform="matrix(1,0,0,-1.0001,16.261002,246.86049)" stroke-width=".3985" stroke-linecap="butt" stroke-miterlimit="10" stroke-linejoin="miter" fill="none" stroke="#00aeef" d="M0 0H170.08257M0 14.17339H170.08257M0 28.3468H170.08257M0 42.5202H170.08257M0 56.69362H170.08257M0 70.867H170.08257M0 85.04042H170.08257M0 99.21382H170.08257M0 113.38724H170.08257M0 127.56062H170.08257M0 141.73404H170.08257M0 155.90744H170.08257M0 170.08086H170.08257M0 184.25424H170.08257M0 198.42766H170.08257M0 212.60106H170.08257M0 226.76949H170.08257M0 0V226.77448M17.00824 0V226.77448M34.0165 0V226.77448M51.02477 0V226.77448M68.03302 0V226.77448M85.04128 0V226.77448M102.04953 0V226.77448M119.0578 0V226.77448M136.06606 0V226.77448M153.07433 0V226.77448M170.0766 0V226.77448M170.08257 226.77448"/>
<path transform="matrix(1,0,0,-1.0001,16.261002,246.86049)" stroke-width=".79701" stroke-linecap="butt" stroke-miterlimit="10" stroke-linejoin="miter" fill="none" stroke="#000000" d="M0 0H178.85301"/>
<path transform="matrix(1,0,0,-1.0001,195.11402,246.86049)" d="M1.0361 0C-.25902 .25902-1.55415 .77707-3.1083 1.68365-1.55415 .51805-1.55415-.51805-3.1083-1.68365-1.55415-.77707-.25902-.25902 1.0361 0Z"/>
<path transform="matrix(1,0,0,-1.0001,195.11402,246.86049)" stroke-width=".79701" stroke-linecap="butt" stroke-linejoin="round" fill="none" stroke="#000000" d="M1.0361 0C-.25902 .25902-1.55415 .77707-3.1083 1.68365-1.55415 .51805-1.55415-.51805-3.1083-1.68365-1.55415-.77707-.25902-.25902 1.0361 0Z"/>
<use data-text="t" xlink:href="#font_1_2" transform="matrix(9.9626,0,0,-9.963596,200.268,249.92479)"/>
<path transform="matrix(1,0,0,-1.0001,16.261002,246.86049)" stroke-width=".79701" stroke-linecap="butt" stroke-miterlimit="10" stroke-linejoin="miter" fill="none" stroke="#000000" d="M0 0V233.84398"/>
<path transform="matrix(0,-1.0001,-1,-0,16.261002,12.993118)" d="M1.0361 0C-.25902 .25902-1.55415 .77707-3.1083 1.68365-1.55415 .51805-1.55415-.51805-3.1083-1.68365-1.55415-.77707-.25902-.25902 1.0361 0Z"/>
<path transform="matrix(0,-1.0001,-1,-0,16.261002,12.993118)" stroke-width=".79701" stroke-linecap="butt" stroke-linejoin="round" fill="none" stroke="#000000" d="M1.0361 0C-.25902 .25902-1.55415 .77707-3.1083 1.68365-1.55415 .51805-1.55415-.51805-3.1083-1.68365-1.55415-.77707-.25902-.25902 1.0361 0Z"/>
<use data-text="h" xlink:href="#font_1_1" transform="matrix(9.9626,0,0,-9.963596,13.390999,7.8385775)"/>
<path transform="matrix(1,0,0,-1.0001,16.261002,246.86049)" stroke-width=".79701" stroke-linecap="butt" stroke-miterlimit="10" stroke-linejoin="miter" fill="none" stroke="#000000" d="M34.0165 1.4174V-1.41719"/>
<path transform="matrix(1,0,0,-1.0001,16.261002,246.86049)" d="M30.52953-12.22124H37.50347V-3.80826H30.52953Z" fill="#ffffff"/>
<use data-text="1" xlink:href="#font_2_2" transform="matrix(9.9626,0,0,-9.963596,47.787004,258.0866)"/>
<path transform="matrix(1,0,0,-1.0001,16.261002,246.86049)" stroke-width=".79701" stroke-linecap="butt" stroke-miterlimit="10" stroke-linejoin="miter" fill="none" stroke="#000000" d="M68.03302 1.4174V-1.41719"/>
<path transform="matrix(1,0,0,-1.0001,16.261002,246.86049)" d="M64.54605-12.22124H71.51999V-3.80826H64.54605Z" fill="#ffffff"/>
<use data-text="2" xlink:href="#font_2_3" transform="matrix(9.9626,0,0,-9.963596,81.803,258.0866)"/>
<path transform="matrix(1,0,0,-1.0001,16.261002,246.86049)" stroke-width=".79701" stroke-linecap="butt" stroke-miterlimit="10" stroke-linejoin="miter" fill="none" stroke="#000000" d="M102.04953 1.4174V-1.41719"/>
<path transform="matrix(1,0,0,-1.0001,16.261002,246.86049)" d="M98.56256-12.22124H105.5365V-3.80826H98.56256Z" fill="#ffffff"/>
<use data-text="3" xlink:href="#font_2_4" transform="matrix(9.9626,0,0,-9.963596,115.82,258.0866)"/>
<path transform="matrix(1,0,0,-1.0001,16.261002,246.86049)" stroke-width=".79701" stroke-linecap="butt" stroke-miterlimit="10" stroke-linejoin="miter" fill="none" stroke="#000000" d="M136.06606 1.4174V-1.41719"/>
<path transform="matrix(1,0,0,-1.0001,16.261002,246.86049)" d="M132.57909-12.22124H139.55303V-3.80826H132.57909Z" fill="#ffffff"/>
<use data-text="4" xlink:href="#font_2_5" transform="matrix(9.9626,0,0,-9.963596,149.836,258.0866)"/>
<path transform="matrix(1,0,0,-1.0001,16.261002,246.86049)" stroke-width=".79701" stroke-linecap="butt" stroke-miterlimit="10" stroke-linejoin="miter" fill="none" stroke="#000000" d="M170.08257 1.4174V-1.41719"/>
<path transform="matrix(1,0,0,-1.0001,16.261002,246.86049)" d="M166.5956-12.22124H173.56954V-3.80826H166.5956Z" fill="#ffffff"/>
<use data-text="5" xlink:href="#font_2_6" transform="matrix(9.9626,0,0,-9.963596,183.853,258.0866)"/>
<path transform="matrix(1,0,0,-1.0001,16.261002,246.86049)" stroke-width=".79701" stroke-linecap="butt" stroke-miterlimit="10" stroke-linejoin="miter" fill="none" stroke="#000000" d="M1.70091 28.3468H-1.70065"/>
<path transform="matrix(1,0,0,-1.0001,16.261002,246.86049)" d="M-16.04706 24.1403H-4.0917198V32.55328H-16.04706Z" fill="#ffffff"/>
<use data-text="1" xlink:href="#font_2_2" transform="matrix(9.9626,0,0,-9.963596,1.2099991,221.72098)"/>
<use data-text="0" xlink:href="#font_2_1" transform="matrix(9.9626,0,0,-9.963596,6.1912996,221.72098)"/>
<path transform="matrix(1,0,0,-1.0001,16.261002,246.86049)" stroke-width=".79701" stroke-linecap="butt" stroke-miterlimit="10" stroke-linejoin="miter" fill="none" stroke="#000000" d="M1.70091 56.69362H-1.70065"/>
<path transform="matrix(1,0,0,-1.0001,16.261002,246.86049)" d="M-16.04706 52.48712H-4.0917198V60.9001H-16.04706Z" fill="#ffffff"/>
<use data-text="2" xlink:href="#font_2_3" transform="matrix(9.9626,0,0,-9.963596,1.2099991,193.37213)"/>
<use data-text="0" xlink:href="#font_2_1" transform="matrix(9.9626,0,0,-9.963596,6.1912996,193.37213)"/>
<path transform="matrix(1,0,0,-1.0001,16.261002,246.86049)" stroke-width=".79701" stroke-linecap="butt" stroke-miterlimit="10" stroke-linejoin="miter" fill="none" stroke="#000000" d="M1.70091 85.04042H-1.70065"/>
<path transform="matrix(1,0,0,-1.0001,16.261002,246.86049)" d="M-16.04706 80.83392H-4.0917198V89.2469H-16.04706Z" fill="#ffffff"/>
<use data-text="3" xlink:href="#font_2_4" transform="matrix(9.9626,0,0,-9.963596,1.2099991,165.02231)"/>
<use data-text="0" xlink:href="#font_2_1" transform="matrix(9.9626,0,0,-9.963596,6.1912996,165.02231)"/>
<path transform="matrix(1,0,0,-1.0001,16.261002,246.86049)" stroke-width=".79701" stroke-linecap="butt" stroke-miterlimit="10" stroke-linejoin="miter" fill="none" stroke="#000000" d="M1.70091 113.38724H-1.70065"/>
<path transform="matrix(1,0,0,-1.0001,16.261002,246.86049)" d="M-16.04706 109.18074H-4.0917198V117.59372H-16.04706Z" fill="#ffffff"/>
<use data-text="4" xlink:href="#font_2_5" transform="matrix(9.9626,0,0,-9.963596,1.2099991,136.67247)"/>
<use data-text="0" xlink:href="#font_2_1" transform="matrix(9.9626,0,0,-9.963596,6.1912996,136.67247)"/>
<path transform="matrix(1,0,0,-1.0001,16.261002,246.86049)" stroke-width=".79701" stroke-linecap="butt" stroke-miterlimit="10" stroke-linejoin="miter" fill="none" stroke="#000000" d="M1.70091 141.73404H-1.70065"/>
<path transform="matrix(1,0,0,-1.0001,16.261002,246.86049)" d="M-16.04706 137.52754H-4.0917198V145.94052H-16.04706Z" fill="#ffffff"/>
<use data-text="5" xlink:href="#font_2_6" transform="matrix(9.9626,0,0,-9.963596,1.2099991,108.32263)"/>
<use data-text="0" xlink:href="#font_2_1" transform="matrix(9.9626,0,0,-9.963596,6.1912996,108.32263)"/>
<path transform="matrix(1,0,0,-1.0001,16.261002,246.86049)" stroke-width=".79701" stroke-linecap="butt" stroke-miterlimit="10" stroke-linejoin="miter" fill="none" stroke="#000000" d="M1.70091 170.08086H-1.70065"/>
<path transform="matrix(1,0,0,-1.0001,16.261002,246.86049)" d="M-16.04706 165.87436H-4.0917198V174.28734H-16.04706Z" fill="#ffffff"/>
<use data-text="6" xlink:href="#font_2_7" transform="matrix(9.9626,0,0,-9.963596,1.2099991,79.97279)"/>
<use data-text="0" xlink:href="#font_2_1" transform="matrix(9.9626,0,0,-9.963596,6.1912996,79.97279)"/>
<path transform="matrix(1,0,0,-1.0001,16.261002,246.86049)" stroke-width=".79701" stroke-linecap="butt" stroke-miterlimit="10" stroke-linejoin="miter" fill="none" stroke="#000000" d="M1.70091 198.42766H-1.70065"/>
<path transform="matrix(1,0,0,-1.0001,16.261002,246.86049)" d="M-16.04706 194.22116H-4.0917198V202.63414H-16.04706Z" fill="#ffffff"/>
<use data-text="7" xlink:href="#font_2_8" transform="matrix(9.9626,0,0,-9.963596,1.2099991,51.623964)"/>
<use data-text="0" xlink:href="#font_2_1" transform="matrix(9.9626,0,0,-9.963596,6.1912996,51.623964)"/>
<path transform="matrix(1,0,0,-1.0001,16.261002,246.86049)" stroke-width=".79701" stroke-linecap="butt" stroke-miterlimit="10" stroke-linejoin="miter" fill="none" stroke="#000000" d="M1.70091 226.77448H-1.70065"/>
<path transform="matrix(1,0,0,-1.0001,16.261002,246.86049)" d="M-16.04706 222.56798H-4.0917198V230.98096H-16.04706Z" fill="#ffffff"/>
<use data-text="8" xlink:href="#font_2_9" transform="matrix(9.9626,0,0,-9.963596,1.2099991,23.27414)"/>
<use data-text="0" xlink:href="#font_2_1" transform="matrix(9.9626,0,0,-9.963596,6.1912996,23.27414)"/>
<path transform="matrix(1,0,0,-1.0001,16.261002,246.86049)" stroke-width="1.19553" stroke-linecap="butt" stroke-miterlimit="10" stroke-linejoin="miter" fill="none" stroke="#ff0000" d="M0 11.33855C0 11.33855 1.5597 19.57617 2.1587 22.66972 2.75774 25.76329 3.7184 30.64275 4.31744 33.6348 4.91647 36.62683 5.87714 41.34361 6.47617 44.23434 7.07523 47.12509 8.03586 51.67992 8.63492 54.46927 9.23395 57.25862 10.19461 61.65015 10.79364 64.33806 11.39268 67.02599 12.35333 71.25537 12.95238 73.84201 13.55142 76.42862 14.51207 80.4954 15.11111 82.98068 15.71014 85.46593 16.6708 89.3702 17.26984 91.75406 17.86888 94.13792 18.82953 97.8795 19.42857 100.16194 20.0276 102.44438 20.98827 106.02332 21.58731 108.20435 22.18636 110.38536 23.147 113.8015 23.74605 115.88124 24.34508 117.96098 25.30574 121.21536 25.90477 123.19373 26.5038 125.17207 27.46446 128.26293 28.06349 130.13986 28.66254 132.01679 29.62318 134.94573 30.22224 136.72136 30.82127 138.49698 31.78194 141.26313 32.38097 142.93735 32.98 144.61159 33.94066 147.21524 34.53969 148.78809 35.13875 150.36092 36.09938 152.80188 36.69844 154.27332 37.29747 155.74477 38.25813 158.02313 38.85716 159.39327 39.4562 160.76342 40.41685 162.87961 41.0159 164.14838 41.61494 165.41712 42.57559 167.37021 43.17464 168.53755 43.77368 169.70491 44.73433 171.49585 45.33337 172.56188 45.9324 173.6279 46.89307 175.25609 47.4921 176.22072 48.09113 177.18535 49.05179 178.65105 49.65083 179.51428 50.24988 180.37752 51.21053 181.68051 51.80957 182.44234 52.4086 183.2042 53.36928 184.34468 53.96829 185.00514 54.56732 185.66559 55.52798 186.6434 56.12701 187.20243 56.72606 187.76145 57.6867 188.5765 58.28577 189.03423 58.8848 189.49196 59.84546 190.14498 60.44449 190.50139 61.04353 190.8578 62.00418 191.34813 62.60323 191.60308 63.20227 191.858 64.16292 192.18527 64.76196 192.3388 65.361 192.49236 66.32166 192.65747 66.92068 192.70972 67.51973 192.76197 68.4804 192.76439 69.07942 192.71533 69.67845 192.66628 70.63911 192.50659 71.23814 192.35611 71.8372 192.20565 72.79784 191.88272 73.3969 191.63076 73.99593 191.3788 74.95659 190.89334 75.55562 190.5401 76.15466 190.18686 77.11531 189.5394 77.71436 189.08483 78.3134 188.63027 79.27405 187.81981 79.8731 187.26384 80.47212 186.70789 81.43279 185.73517 82.03181 185.0778 82.63084 184.42046 83.5915 183.28484 84.19054 182.52605 84.7896 181.76728 85.75023 180.46915 86.34929 179.60901 86.94832 178.74887 87.90898 177.28827 88.50801 176.32669 89.10706 175.36513 90.0677 173.74153 90.66675 172.67867 91.26578 171.6158 92.22644 169.83049 92.82547 168.66623 93.42453 167.50196 94.38516 165.55309 94.98422 164.28743 95.58325 163.02178 96.54391 160.91118 97.14294 159.54422 97.74199 158.17726 98.70264 155.90369 99.30168 154.43529 99.90073 152.96692 100.86137 150.53086 101.46042 148.96109 102.05945 147.39136 103.02011 144.79279 103.61914 143.12162 104.21819 141.45046 105.17883 138.6889 105.77788 136.91643 106.37692 135.14395 107.33759 132.22069 107.93661 130.34682 108.53564 128.47295 109.4963 125.38612 110.09534 123.41086 110.69437 121.4356 111.65503 118.18704 112.25407 116.11049 112.8531 114.0339 113.81377 110.62248 114.4128 108.4444 115.01184 106.26633 115.97249 102.69186 116.57155 100.41238 117.17058 98.13292 118.13124 94.39621 118.73027 92.01552 119.3293 89.63484 120.28996 85.73608 120.88899 83.25404 121.48805 80.77197 122.44868 76.71017 123.04774 74.12662 123.64677 71.54306 124.60744 67.31837 125.20647 64.63348 125.80551 61.9486 126.76616 57.562 127.3652 54.77573 127.96425 51.98949 128.9249 47.4397 129.52394 44.55205 130.12299 41.66438 131.08364 36.9525 131.68268 33.96352 132.28171 30.97452 133.24237 26.09987 133.8414 23.00949 134.44043 19.91911 135.40111 14.88196 136.00014 11.69019 136.59917 8.49841 138.15886 .00539 138.15886 .00539"/>
<path transform="matrix(1,0,0,-1.0001,16.261002,246.86049)" stroke-width="1.59404" stroke-linecap="butt" stroke-miterlimit="10" stroke-linejoin="miter" fill="none" stroke="#009900" d="M0 147.40332H170.08257"/>
<path transform="matrix(1,0,0,-1.0001,16.261002,246.86049)" d="M37.41809 147.40332C37.41809 149.28205 35.89516 150.80501 34.0165 150.80501 32.13785 150.80501 30.61491 149.28205 30.61491 147.40332 30.61491 145.5246 32.13785 144.00164 34.0165 144.00164 35.89516 144.00164 37.41809 145.5246 37.41809 147.40332ZM34.0165 147.40332" fill="#ff0000"/>
<path transform="matrix(1,0,0,-1.0001,16.261002,246.86049)" stroke-width=".3985" stroke-linecap="butt" stroke-miterlimit="10" stroke-linejoin="miter" fill="none" stroke="#ff0000" d="M37.41809 147.40332C37.41809 149.28205 35.89516 150.80501 34.0165 150.80501 32.13785 150.80501 30.61491 149.28205 30.61491 147.40332 30.61491 145.5246 32.13785 144.00164 34.0165 144.00164 35.89516 144.00164 37.41809 145.5246 37.41809 147.40332ZM34.0165 147.40332"/>
<path transform="matrix(1,0,0,-1.0001,16.261002,246.86049)" d="M105.45113 147.40332C105.45113 149.28205 103.92819 150.80501 102.04953 150.80501 100.17087 150.80501 98.64793 149.28205 98.64793 147.40332 98.64793 145.5246 100.17087 144.00164 102.04953 144.00164 103.92819 144.00164 105.45113 145.5246 105.45113 147.40332ZM102.04953 147.40332" fill="#ff0000"/>
<path transform="matrix(1,0,0,-1.0001,16.261002,246.86049)" stroke-width=".3985" stroke-linecap="butt" stroke-miterlimit="10" stroke-linejoin="miter" fill="none" stroke="#ff0000" d="M105.45113 147.40332C105.45113 149.28205 103.92819 150.80501 102.04953 150.80501 100.17087 150.80501 98.64793 149.28205 98.64793 147.40332 98.64793 145.5246 100.17087 144.00164 102.04953 144.00164 103.92819 144.00164 105.45113 145.5246 105.45113 147.40332ZM102.04953 147.40332"/>
</svg>
