<svg xmlns="http://www.w3.org/2000/svg" xmlns:xlink="http://www.w3.org/1999/xlink" version="1.1" width="330" height="133" viewBox="0 0 330 133">
<defs>
<path id="font_1_3" d="M.2939911 .16503906V.07800293C.2939911 .041992189 .2919922 .0309906 .21798706 .0309906H.19699097V0C.23799134 .0029907227 .2899933 .0029907227 .33198548 .0029907227 .37399293 .0029907227 .4269867 .0029907227 .46798707 0V.0309906H.44699098C.37298585 .0309906 .37098695 .041992189 .37098695 .07800293V.16503906H.47099305V.19602967H.37098695V.65075686C.37098695 .67074587 .37098695 .6767578 .35499574 .6767578 .34599305 .6767578 .34298707 .6767578 .33499146 .66474917L.027999878 .19602967V.16503906H.2939911M.2999878 .19602967H.055999757L.2999878 .5688019V.19602967Z"/>
<path id="font_1_4" d="M.44898988 .20022583C.44898988 .3193512 .36698915 .41944886 .25898744 .41944886 .21099854 .41944886 .16799927 .40345765 .13198853 .36842347V.5637665C.1519928 .5577698 .18499756 .55078127 .21699524 .55078127 .33999635 .55078127 .4099884 .6417694 .4099884 .6547699 .4099884 .6607666 .40699769 .6657715 .3999939 .6657715 .39898683 .6657715 .39698792 .6657715 .3919983 .66278079 .37199403 .6537781 .32299806 .6337738 .2559967 .6337738 .21598816 .6337738 .16999817 .6407776 .12298584 .6617737 .114990238 .66477969 .11299133 .66477969 .11099243 .66477969 .100997928 .66477969 .100997928 .6567688 .100997928 .6407776V.34439088C.100997928 .32637025 .100997928 .31835938 .114990238 .31835938 .12199402 .31835938 .12399292 .32136537 .12799073 .32736207 .13899231 .3433838 .17599488 .39746095 .25698854 .39746095 .30899049 .39746095 .33399964 .35139466 .34199525 .33337403 .35798646 .29632569 .3600006 .25727845 .3600006 .20722962 .3600006 .17222595 .3600006 .11222839 .33599855 .07035828 .31199647 .031463624 .2749939 .0055389406 .22898865 .0055389406 .1559906 .0055389406 .09899902 .058380128 .08198547 .11723328 .084991458 .1162262 .08799744 .115234378 .09899902 .115234378 .13198853 .115234378 .14898682 .14022827 .14898682 .16423035 .14898682 .18823242 .13198853 .21322632 .09899902 .21322632 .084991458 .21322632 .049987794 .20622254 .049987794 .16023255 .049987794 .07434082 .11898804-.022460938 .23098755-.022460938 .34700013-.022460938 .44898988 .073349 .44898988 .20022583Z"/>
<path id="font_1_1" d="M.1269989 .07699585 .23298645 .18003845C.3889923 .31811524 .44898988 .3721466 .44898988 .47216798 .44898988 .5860901 .35899354 .6660156 .23699951 .6660156 .12399292 .6660156 .049987794 .57411196 .049987794 .48516847 .049987794 .4291687 .099990848 .4291687 .102996829 .4291687 .11999512 .4291687 .15499878 .44117738 .15499878 .48217774 .15499878 .5081787 .13699341 .5341797 .101989749 .5341797 .09399414 .5341797 .09199524 .5341797 .08898926 .5331726 .11199951 .59806826 .1659851 .63500979 .22399903 .63500979 .31498719 .63500979 .35798646 .5541382 .35798646 .47216798 .35798646 .39215089 .30799867 .31311036 .25299073 .25108338L.06098938 .036987306C.049987794 .025985718 .049987794 .023986817 .049987794 0H.42099L.44898988 .17404175H.42399598C.4189911 .14402771 .4119873 .1000061 .4019928 .084991458 .394989 .07699585 .32899476 .07699585 .30699159 .07699585H.1269989Z"/>
<path id="font_1_2" d="M.2899933 .35191346C.37199403 .37893678 .42999269 .4490509 .42999269 .52809146 .42999269 .6100464 .34199525 .6660156 .24598694 .6660156 .14498902 .6660156 .068984989 .60606387 .068984989 .53009036 .068984989 .49710084 .09098816 .47808839 .11999512 .47808839 .15098572 .47808839 .17098999 .50009158 .17098999 .5290985 .17098999 .57910159 .12399292 .57910159 .10899353 .57910159 .13999939 .62802127 .20599365 .64100649 .24198914 .64100649 .2829895 .64100649 .33799745 .6190338 .33799745 .5290985 .33799745 .51708987 .33599855 .45906068 .30999757 .4149933 .27999879 .36691285 .24598694 .36390687 .22099304 .36291505 .21299744 .36190797 .18899536 .35990907 .18199158 .35990907 .17399597 .35890199 .16699219 .35791017 .16699219 .3479004 .16699219 .33691407 .17399597 .33691407 .19099427 .33691407H.23498535C.31698609 .33691407 .35398866 .2686615 .35398866 .17037964 .35398866 .034469606 .2849884 .0055389406 .24099732 .0055389406 .19799805 .0055389406 .12298584 .022491456 .08799744 .08137512 .12298584 .07637024 .1539917 .09837341 .1539917 .1363678 .1539917 .17237854 .1269989 .19238281 .09799194 .19238281 .07398987 .19238281 .041992189 .17837525 .041992189 .1343689 .041992189 .043441774 .1349945-.022460938 .24398804-.022460938 .3659973-.022460938 .45700074 .06838989 .45700074 .17037964 .45700074 .252594 .3939972 .33088685 .2899933 .35191346Z"/>
<path id="font_2_85" d="M.33099366-.2400055C.33099366-.23701477 .33099366-.23500061 .31399537-.21800232 .18899536-.0920105 .15699768 .09700012 .15699768 .25 .15699768 .42399598 .19499207 .59799197 .31799317 .72299197 .33099366 .7350006 .33099366 .7369995 .33099366 .73999026 .33099366 .746994 .32699586 .75 .32099916 .75 .31098939 .75 .22099304 .6819916 .1619873 .5549927 .11099243 .44499208 .09899902 .33399964 .09899902 .25 .09899902 .17199707 .10998535 .050994874 .16499329-.06201172 .22499085-.18501282 .31098939-.25 .32099916-.25 .32699586-.25 .33099366-.24700928 .33099366-.2400055Z"/>
<path id="font_2_28" d="M.48298646 .08912659V.14511109H.45799256V.08912659C.45799256 .03112793 .43299867 .025131226 .42199708 .025131226 .3889923 .025131226 .3849945 .070129398 .3849945 .07511902V.27508546C.3849945 .31707765 .3849945 .3560791 .34899903 .39312745 .30999757 .43223573 .2599945 .4482422 .21199036 .4482422 .12998963 .4482422 .06098938 .40115357 .06098938 .335083 .06098938 .30508424 .08099365 .28808595 .10699463 .28808595 .1349945 .28808595 .15299988 .30807496 .15299988 .33407594 .15299988 .3460846 .147995 .37908937 .101989749 .38008119 .1289978 .41519166 .17799378 .426239 .20999146 .426239 .25898744 .426239 .31599427 .38710023 .31599427 .29808045V.26107789C.2649994 .25808717 .19499207 .25508119 .13198853 .22509766 .056991579 .19110108 .03199768 .13911438 .03199768 .09512329 .03199768 .014251709 .1289978-.0107421879 .19198609-.0107421879 .2579956-.0107421879 .3039856 .029251099 .32299806 .07624817 .32699586 .036132814 .35398866-.005859375 .40098573-.005859375 .42199708-.005859375 .48298646 .008132935 .48298646 .08912659M.31599427 .14013672C.31599427 .04525757 .24398804 .011245728 .19898987 .011245728 .1499939 .011245728 .10899353 .04624939 .10899353 .09625244 .10899353 .15124512 .15098572 .23425293 .31599427 .24024964V.14013672Z"/>
<path id="font_2_86" d="M.2889862 .25C.2889862 .32798768 .27799989 .44898988 .22299195 .56199648 .16299439 .68499758 .07699585 .75 .066986087 .75 .06098938 .75 .056991579 .74598696 .056991579 .73999026 .056991579 .7369995 .056991579 .7350006 .07598877 .71699526 .17399597 .6179962 .23098755 .45899964 .23098755 .25 .23098755 .07899475 .19400025-.09700012 .069992069-.2230072 .056991579-.23500061 .056991579-.23701477 .056991579-.2400055 .056991579-.2460022 .06098938-.25 .066986087-.25 .07699585-.25 .16699219-.18200684 .22599793-.055007936 .2769928 .054992677 .2889862 .16600037 .2889862 .25Z"/>
<path id="font_2_35" d="M.5209961 .2163086C.5209961 .34335328 .4229889 .4423828 .30899049 .4423828 .23098755 .4423828 .18798828 .39537049 .17199707 .3773651V.69433596L.027999878 .68333438V.6523285C.09799194 .6523285 .10598755 .6453247 .10598755 .596344V.00024414063H.1309967L.16699219 .06227112C.18199158 .039260866 .22399903-.0107421879 .2979889-.0107421879 .4169922-.0107421879 .5209961 .08728027 .5209961 .2163086M.43798829 .21731568C.43798829 .18029785 .43598939 .120285037 .40699769 .07527161 .38598634 .044265748 .34799195 .011245728 .2939911 .011245728 .24899292 .011260986 .21299744 .03526306 .18899536 .072265628 .1749878 .09326172 .1749878 .09625244 .1749878 .11425781V.32034303C.1749878 .3393402 .1749878 .3403473 .18598938 .35635377 .22499085 .41236878 .27999879 .42037965 .3039856 .42037965 .34899903 .42037965 .3849945 .3943634 .40899659 .35635377 .43499757 .31533814 .43798829 .25831605 .43798829 .21730042V.21731568Z"/>
</defs>
<g>
<path transform="matrix(1.00006,0,0,-1.0001,1.8122025,87.246128)" d="M0 0V85.04042H28.3468V0ZM28.3468 85.04042" fill="#c7eafb" fill-opacity=".5"/>
<path transform="matrix(1.00006,0,0,-1.0001,1.8122025,87.246128)" stroke-width="1.19553" stroke-linecap="butt" stroke-miterlimit="10" stroke-linejoin="miter" fill="none" stroke="#000000" stroke-opacity=".5" d="M0 0V85.04042H28.3468V0ZM28.3468 85.04042"/>
</g>
<g>
<path transform="matrix(1.00006,0,0,-1.0001,1.8122025,87.246128)" d="M28.3468 0V85.04042H56.69362V0ZM56.69362 85.04042" fill="#c7eafb" fill-opacity=".5"/>
<path transform="matrix(1.00006,0,0,-1.0001,1.8122025,87.246128)" stroke-width="1.19553" stroke-linecap="butt" stroke-miterlimit="10" stroke-linejoin="miter" fill="none" stroke="#000000" stroke-opacity=".5" d="M28.3468 0V85.04042H56.69362V0ZM56.69362 85.04042"/>
</g>
<g>
<path transform="matrix(1.00006,0,0,-1.0001,1.8122025,87.246128)" d="M56.69362 0V85.04042H85.04042V0ZM85.04042 85.04042" fill="#c7eafb" fill-opacity=".5"/>
<path transform="matrix(1.00006,0,0,-1.0001,1.8122025,87.246128)" stroke-width="1.19553" stroke-linecap="butt" stroke-miterlimit="10" stroke-linejoin="miter" fill="none" stroke="#000000" stroke-opacity=".5" d="M56.69362 0V85.04042H85.04042V0ZM85.04042 85.04042"/>
</g>
<g>
<path transform="matrix(1.00006,0,0,-1.0001,1.8122025,87.246128)" d="M85.04042 0V85.04042H113.38724V0ZM113.38724 85.04042" fill="#c7eafb" fill-opacity=".5"/>
<path transform="matrix(1.00006,0,0,-1.0001,1.8122025,87.246128)" stroke-width="1.19553" stroke-linecap="butt" stroke-miterlimit="10" stroke-linejoin="miter" fill="none" stroke="#000000" stroke-opacity=".5" d="M85.04042 0V85.04042H113.38724V0ZM113.38724 85.04042"/>
</g>
<path transform="matrix(1.00006,0,0,-1.0001,1.8122025,87.246128)" stroke-width="1.19553" stroke-linecap="butt" stroke-miterlimit="10" stroke-linejoin="miter" fill="none" stroke="#000000" d="M113.38724 0V85.04042H141.73404V0ZM141.73404 85.04042"/>
<path transform="matrix(1.00006,0,0,-1.0001,1.8122025,87.246128)" stroke-width=".3985" stroke-linecap="butt" stroke-miterlimit="10" stroke-linejoin="miter" fill="none" stroke="#000000" d="M113.38724-2.83484C112.64006-4.32927 110.89655-5.32553 108.40585-5.32553H61.675C59.18431-5.32553 57.4408-6.3218 56.69362-7.81622 55.94644-6.3218 54.20293-5.32553 51.71223-5.32553H4.98138C2.49069-5.32553 .74718-4.32927 0-2.83484"/>
<use data-text="4" xlink:href="#font_1_3" transform="matrix(9.963197,0,0,-9.963596,56.017465,104.008808)"/>
<path transform="matrix(1.00006,0,0,-1.0001,-31.99482,39.49035)" stroke-width=".3985" stroke-linecap="butt" stroke-miterlimit="10" stroke-linejoin="miter" fill="none" stroke="#000000" d="M88.007-68.761H92.989"/>
<use data-text="5" xlink:href="#font_1_4" transform="matrix(9.963197,0,0,-9.963596,56.017465,117.58316)"/>
<g>
<path transform="matrix(1.00006,0,0,-1.0001,1.8122025,87.246128)" d="M184.25424 0V85.04042H212.60106V0ZM212.60106 85.04042" fill="#c7eafb" fill-opacity=".5"/>
<path transform="matrix(1.00006,0,0,-1.0001,1.8122025,87.246128)" stroke-width="1.19553" stroke-linecap="butt" stroke-miterlimit="10" stroke-linejoin="miter" fill="none" stroke="#000000" stroke-opacity=".5" d="M184.25424 0V85.04042H212.60106V0ZM212.60106 85.04042"/>
</g>
<g>
<path transform="matrix(1.00006,0,0,-1.0001,1.8122025,87.246128)" d="M212.60106 0V85.04042H240.94788V0ZM240.94788 85.04042" fill="#c7eafb" fill-opacity=".5"/>
<path transform="matrix(1.00006,0,0,-1.0001,1.8122025,87.246128)" stroke-width="1.19553" stroke-linecap="butt" stroke-miterlimit="10" stroke-linejoin="miter" fill="none" stroke="#000000" stroke-opacity=".5" d="M212.60106 0V85.04042H240.94788V0ZM240.94788 85.04042"/>
</g>
<g>
<path transform="matrix(1.00006,0,0,-1.0001,1.8122025,87.246128)" d="M240.94788 0V85.04042H269.29469V0ZM269.29469 85.04042" fill="#c7eafb" fill-opacity=".5"/>
<path transform="matrix(1.00006,0,0,-1.0001,1.8122025,87.246128)" stroke-width="1.19553" stroke-linecap="butt" stroke-miterlimit="10" stroke-linejoin="miter" fill="none" stroke="#000000" stroke-opacity=".5" d="M240.94788 0V85.04042H269.29469V0ZM269.29469 85.04042"/>
</g>
<g>
<path transform="matrix(1.00006,0,0,-1.0001,1.8122025,87.246128)" d="M269.29469 0V85.04042H297.6415V0ZM297.6415 85.04042" fill="#c7eafb" fill-opacity=".5"/>
<path transform="matrix(1.00006,0,0,-1.0001,1.8122025,87.246128)" stroke-width="1.19553" stroke-linecap="butt" stroke-miterlimit="10" stroke-linejoin="miter" fill="none" stroke="#000000" stroke-opacity=".5" d="M269.29469 0V85.04042H297.6415V0ZM297.6415 85.04042"/>
</g>
<path transform="matrix(1.00006,0,0,-1.0001,1.8122025,87.246128)" stroke-width="1.19553" stroke-linecap="butt" stroke-miterlimit="10" stroke-linejoin="miter" fill="none" stroke="#000000" d="M297.6415 0V85.04042H325.9883V0ZM325.9883 85.04042"/>
<path transform="matrix(1.00006,0,0,-1.0001,1.8122025,87.246128)" stroke-width=".3985" stroke-linecap="butt" stroke-miterlimit="10" stroke-linejoin="miter" fill="none" stroke="#000000" d="M297.6415-2.83484C296.89433-4.32927 295.1508-5.32553 292.6601-5.32553H245.92926C243.43857-5.32553 241.69506-6.3218 240.94788-7.81622 240.2007-6.3218 238.45719-5.32553 235.96649-5.32553H189.23563C186.74494-5.32553 185.00142-4.32927 184.25424-2.83484"/>
<use data-text="4" xlink:href="#font_1_3" transform="matrix(9.963197,0,0,-9.963596,240.2835,104.008808)"/>
<path transform="matrix(1.00006,0,0,-1.0001,152.27121,39.49035)" stroke-width=".3985" stroke-linecap="butt" stroke-miterlimit="10" stroke-linejoin="miter" fill="none" stroke="#000000" d="M88.007-68.761H92.989"/>
<use data-text="5" xlink:href="#font_1_4" transform="matrix(9.963197,0,0,-9.963596,240.2835,117.58316)"/>
<g>
<path transform="matrix(1.00006,0,0,-1.0001,1.8122025,87.246128)" d="M184.25424 28.3468V56.69362H297.6415V28.3468ZM297.6415 56.69362" fill="#6dcff6" fill-opacity=".5"/>
<path transform="matrix(1.00006,0,0,-1.0001,1.8122025,87.246128)" stroke-width="1.19553" stroke-linecap="butt" stroke-miterlimit="10" stroke-linejoin="miter" fill="none" stroke="#000000" stroke-opacity=".5" d="M184.25424 28.3468V56.69362H297.6415V28.3468ZM297.6415 56.69362"/>
</g>
<path transform="matrix(1.00006,0,0,-1.0001,1.8122025,87.246128)" stroke-width="1.19553" stroke-linecap="butt" stroke-dasharray="2.98883,1.99255" stroke-miterlimit="10" stroke-linejoin="miter" fill="none" stroke="#000000" d="M297.6415 28.3468H325.9883"/>
<g>
<path transform="matrix(1.00006,0,0,-1.0001,1.8122025,87.246128)" d="M184.25424 56.69362V85.04042H297.6415V56.69362ZM297.6415 85.04042" fill="#6dcff6" fill-opacity=".5"/>
<path transform="matrix(1.00006,0,0,-1.0001,1.8122025,87.246128)" stroke-width="1.19553" stroke-linecap="butt" stroke-miterlimit="10" stroke-linejoin="miter" fill="none" stroke="#000000" stroke-opacity=".5" d="M184.25424 56.69362V85.04042H297.6415V56.69362ZM297.6415 85.04042"/>
</g>
<path transform="matrix(1.00006,0,0,-1.0001,1.8122025,87.246128)" stroke-width="1.19553" stroke-linecap="butt" stroke-dasharray="2.98883,1.99255" stroke-miterlimit="10" stroke-linejoin="miter" fill="none" stroke="#000000" d="M297.6415 56.69362H325.9883"/>
<path transform="matrix(1.00006,0,0,-1.0001,1.8122025,87.246128)" stroke-width=".3985" stroke-linecap="butt" stroke-miterlimit="10" stroke-linejoin="miter" fill="none" stroke="#000000" d="M181.4194 28.3468C179.92498 29.09398 178.92871 30.8375 178.92871 33.32819V51.71223C178.92871 54.20293 177.93245 55.94644 176.43802 56.69362 177.93245 57.4408 178.92871 59.18431 178.92871 61.675V80.05904C178.92871 82.54973 179.92498 84.29324 181.4194 85.04042"/>
<use data-text="2" xlink:href="#font_1_1" transform="matrix(9.963197,0,0,-9.963596,169.55927,26.971104)"/>
<path transform="matrix(1.00006,0,0,-1.0001,81.54699,-37.54735)" stroke-width=".3985" stroke-linecap="butt" stroke-miterlimit="10" stroke-linejoin="miter" fill="none" stroke="#000000" d="M88.007-68.761H92.989"/>
<use data-text="3" xlink:href="#font_1_2" transform="matrix(9.963197,0,0,-9.963596,169.55927,40.54546)"/>
<use data-text="(" xlink:href="#font_2_85" transform="matrix(9.963197,0,0,-9.963596,5.3324129,129.42635)"/>
<use data-text="a" xlink:href="#font_2_28" transform="matrix(9.963197,0,0,-9.963596,9.208099,129.42635)"/>
<use data-text=")" xlink:href="#font_2_86" transform="matrix(9.963197,0,0,-9.963596,14.189697,129.42635)"/>
<use data-text="(" xlink:href="#font_2_85" transform="matrix(9.963197,0,0,-9.963596,189.59748,129.42635)"/>
<use data-text="b" xlink:href="#font_2_35" transform="matrix(9.963197,0,0,-9.963596,193.47315,129.42635)"/>
<use data-text=")" xlink:href="#font_2_86" transform="matrix(9.963197,0,0,-9.963596,199.0127,129.42635)"/>
</svg>
