<svg xmlns="http://www.w3.org/2000/svg" xmlns:xlink="http://www.w3.org/1999/xlink" version="1.1" width="171" height="121" viewBox="0 0 171 121">
<defs>
<path id="font_1_1" d="M.20599365 .3996582H.2999878C.31999208 .3996582 .32998658 .3996582 .32998658 .41966249 .32998658 .43066407 .31999208 .43066407 .3019867 .43066407H.21398926C.25 .5724945 .25498963 .59246829 .25498963 .59846499 .25498963 .61546328 .24299622 .62545779 .22599793 .62545779 .22299195 .62545779 .19499207 .62446597 .18598938 .58947756L.14698792 .43066407H.052993776C.032989503 .43066407 .022994996 .43066407 .022994996 .4116516 .022994996 .3996582 .0309906 .3996582 .050994874 .3996582H.13899231C.066986087 .11608887 .06298828 .099121097 .06298828 .08114624 .06298828 .02722168 .100997928-.0107421879 .15499878-.0107421879 .25698854-.0107421879 .31399537 .13505554 .31399537 .14305115 .31399537 .1530304 .30599977 .1530304 .3019867 .1530304 .29299928 .1530304 .2919922 .15003968 .2869873 .13905335 .24398804 .035217287 .19099427 .011245728 .15699768 .011245728 .13598633 .011245728 .12599182 .024230957 .12599182 .057174684 .12599182 .08114624 .12799073 .088134769 .13198853 .10510254L.20599365 .3996582Z"/>
<path id="font_1_2" d="M.48599244 .38136292C.48999024 .39537049 .48999024 .39736939 .48999024 .40437318 .48999024 .42237855 .47599793 .43138124 .46099855 .43138124 .45098878 .43138124 .43499757 .42536927 .42599488 .41036988 .42399598 .405365 .41600038 .37435914 .4119873 .35635377 .40499879 .33035279 .397995 .30334474 .3919983 .27633668L.34700013 .09628296C.34298707 .08126831 .2999878 .011245728 .23399353 .011245728 .18299866 .011245728 .17199707 .055267335 .17199707 .0922699 .17199707 .1382904 .18899536 .20030213 .22299195 .28833009 .23899842 .3293457 .24299622 .3403473 .24299622 .36035157 .24299622 .405365 .21099854 .4423828 .16099549 .4423828 .06599426 .4423828 .0289917 .29733277 .0289917 .28833009 .0289917 .27833558 .038986207 .27833558 .040985109 .27833558 .050994874 .27833558 .051986696 .28033448 .056991579 .29634095 .083999637 .3903656 .12399292 .42037965 .1579895 .42037965 .1659851 .42037965 .18299866 .42037965 .18299866 .3883667 .18299866 .36335755 .17298889 .3373413 .1659851 .31834413 .12599182 .21231079 .10798645 .1552887 .10798645 .10827637 .10798645 .019256592 .17098999-.0107421879 .22999573-.0107421879 .2689972-.0107421879 .30299378 .0062561037 .33099366 .03425598 .31799317-.017745972 .30599977-.06674194 .2659912-.11973572 .23999024-.15385437 .20199585-.18309021 .1559906-.18309021 .14199829-.18309021 .09700012-.18005371 .07998657-.14074707 .09599304-.14074707 .10899353-.14074707 .12298584-.1287384 .1329956-.11973572 .14299011-.10673523 .14299011-.08773804 .14299011-.056747438 .115997318-.052734376 .10598755-.052734376 .08299255-.052734376 .049987794-.068740848 .049987794-.11773682 .049987794-.16796875 .09399414-.20507813 .1559906-.20507813 .25898744-.20507813 .3619995-.11373901 .3899994-.00074768069L.48599244 .38136292Z"/>
<path id="font_2_3" d="M.1269989 .07699585 .23298645 .18003845C.3889923 .31811524 .44898988 .3721466 .44898988 .47216798 .44898988 .5860901 .35899354 .6660156 .23699951 .6660156 .12399292 .6660156 .049987794 .57411196 .049987794 .48516847 .049987794 .4291687 .099990848 .4291687 .102996829 .4291687 .11999512 .4291687 .15499878 .44117738 .15499878 .48217774 .15499878 .5081787 .13699341 .5341797 .101989749 .5341797 .09399414 .5341797 .09199524 .5341797 .08898926 .5331726 .11199951 .59806826 .1659851 .63500979 .22399903 .63500979 .31498719 .63500979 .35798646 .5541382 .35798646 .47216798 .35798646 .39215089 .30799867 .31311036 .25299073 .25108338L.06098938 .036987306C.049987794 .025985718 .049987794 .023986817 .049987794 0H.42099L.44898988 .17404175H.42399598C.4189911 .14402771 .4119873 .1000061 .4019928 .084991458 .394989 .07699585 .32899476 .07699585 .30699159 .07699585H.1269989Z"/>
<path id="font_2_1" d="M.45999146 .31976319C.45999146 .39982606 .45498658 .47988893 .41999818 .5539398 .37399293 .65000918 .2919922 .6660156 .25 .6660156 .18998719 .6660156 .116989139 .64001467 .07598877 .54693606 .04399109 .47789 .038986207 .39982606 .038986207 .31976319 .038986207 .24472046 .042999269 .15464783 .083999637 .07859802 .1269989-.0024719239 .19999695-.022460938 .24899292-.022460938 .30299378-.022460938 .3789978-.0014648438 .4229889 .09359741 .45498658 .16265869 .45999146 .2407074 .45999146 .31976319M.24899292-.00047302247C.20999146-.00047302247 .15098572 .024551392 .1329956 .12062073 .12199402 .18066406 .12199402 .2727356 .12199402 .3317871 .12199402 .39582826 .12199402 .46188355 .12998963 .5159149 .14898682 .63500979 .22399903 .64401248 .24899292 .64401248 .28199769 .64401248 .34799195 .6259918 .36698915 .52693179 .3769989 .47088624 .3769989 .39482118 .3769989 .3317871 .3769989 .25672914 .3769989 .18867493 .3659973 .12461853 .35099793 .029556275 .2939911-.00047302247 .24899292-.00047302247Z"/>
<path id="font_2_4" d="M.2939911 .16503906V.07800293C.2939911 .041992189 .2919922 .0309906 .21798706 .0309906H.19699097V0C.23799134 .0029907227 .2899933 .0029907227 .33198548 .0029907227 .37399293 .0029907227 .4269867 .0029907227 .46798707 0V.0309906H.44699098C.37298585 .0309906 .37098695 .041992189 .37098695 .07800293V.16503906H.47099305V.19602967H.37098695V.65075686C.37098695 .67074587 .37098695 .6767578 .35499574 .6767578 .34599305 .6767578 .34298707 .6767578 .33499146 .66474917L.027999878 .19602967V.16503906H.2939911M.2999878 .19602967H.055999757L.2999878 .5688019V.19602967Z"/>
<path id="font_2_5" d="M.13198853 .327713V.35173036C.13198853 .6047821 .2559967 .64100649 .30699159 .64100649 .33099366 .64100649 .37298585 .634964 .394989 .6007538 .37998963 .6007538 .33999635 .6007538 .33999635 .5557556 .33999635 .524765 .3639984 .5097656 .38598634 .5097656 .4019928 .5097656 .43199159 .51875308 .43199159 .5577545 .43199159 .6178589 .3880005 .6660156 .30499269 .6660156 .1769867 .6660156 .041992189 .5367584 .041992189 .31570436 .041992189 .048553468 .1579895-.022460938 .25099183-.022460938 .3619995-.022460938 .45700074 .07156372 .45700074 .2036438 .45700074 .33070375 .36799623 .4267578 .25698854 .4267578 .18899536 .4267578 .1519928 .37573243 .13198853 .327713M.25099183 .0055389406C.18798828 .0055389406 .1579895 .06556702 .1519928 .080566409 .13398743 .127594 .13398743 .2076416 .13398743 .22564698 .13398743 .30369569 .1659851 .40374757 .2559967 .40374757 .27198792 .40374757 .31799317 .40374757 .34899903 .34172059 .36698915 .30470277 .36698915 .2536621 .36698915 .20463562 .36698915 .15661621 .36698915 .10658264 .34999085 .0705719 .31999208 .010528564 .27398683 .0055389406 .25099183 .0055389406Z"/>
<path id="font_2_6" d="M.16299439 .4569702C.116989139 .486969 .11299133 .52098086 .11299133 .5379791 .11299133 .598999 .17799378 .64100649 .24899292 .64100649 .32199098 .64100649 .38598634 .58898928 .38598634 .51698306 .38598634 .45996095 .34700013 .4119568 .2869873 .37695313L.16299439 .4569702M.30899049 .36193849C.3809967 .3989563 .42999269 .45095826 .42999269 .51698306 .42999269 .6090088 .34098817 .6660156 .25 .6660156 .1499939 .6660156 .068984989 .59199526 .068984989 .49897767 .068984989 .4809723 .070999149 .43595887 .11299133 .38894654 .12399292 .37695313 .16099549 .35194398 .18598938 .33494569 .12799073 .30592347 .041992189 .24984741 .041992189 .15072632 .041992189 .04458618 .14399719-.022460938 .24899292-.022460938 .3619995-.022460938 .45700074 .06060791 .45700074 .16773987 .45700074 .20379639 .44599916 .24885559 .4079895 .2909088 .3889923 .31193543 .37298585 .3219452 .30899049 .36193849M.20899964 .3199463 .33198548 .24183655C.3600006 .2228241 .40699769 .19277954 .40699769 .13169861 .40699769 .05760193 .33198548 .0055389406 .25 .0055389406 .1639862 .0055389406 .09199524 .067611698 .09199524 .15072632 .09199524 .20880127 .12399292 .27288819 .20899964 .3199463Z"/>
<path id="font_2_2" d="M.2939911 .64004519C.2939911 .66400149 .2939911 .6660156 .2709961 .6660156 .20899964 .60227969 .12098694 .60227969 .08898926 .60227969V.57128909C.10899353 .57128909 .16799927 .57128909 .21998596 .5972748V.07902527C.21998596 .042999269 .21699524 .0309906 .1269989 .0309906H.09498596V0C.12998963 .0029907227 .21699524 .0029907227 .25698854 .0029907227 .29699708 .0029907227 .38398744 .0029907227 .4189911 0V.0309906H.3869934C.29699708 .0309906 .2939911 .041992189 .2939911 .07902527V.64004519Z"/>
<path id="font_3_62" d="M.71598818 0V.0309906H.69200137C.61499026 .0309906 .61299136 .041992189 .61299136 .07797241V.6046448C.61299136 .640625 .61499026 .6516113 .69200137 .6516113H.71598818V.6826172C.68099978 .6796112 .6069946 .6796112 .56900027 .6796112 .5309906 .6796112 .45599366 .6796112 .42099 .6826172V.6516113H.44499208C.5219879 .6516113 .5239868 .640625 .5239868 .6046448V.37083436H.22499085V.6046448C.22499085 .640625 .22698975 .6516113 .3039856 .6516113H.32798768V.6826172C.29299928 .6796112 .21899414 .6796112 .18099976 .6796112 .14299011 .6796112 .067993167 .6796112 .032989503 .6826172V.6516113H.056991579C.13398743 .6516113 .13598633 .640625 .13598633 .6046448V.07797241C.13598633 .041992189 .13398743 .0309906 .056991579 .0309906H.032989503V0C.067993167 .0029907227 .14199829 .0029907227 .17999268 .0029907227 .21798706 .0029907227 .29299928 .0029907227 .32798768 0V.0309906H.3039856C.22698975 .0309906 .22499085 .041992189 .22499085 .07797241V.33984376H.5239868V.07797241C.5239868 .041992189 .5219879 .0309906 .44499208 .0309906H.42099V0C.45599366 .0029907227 .5299988 .0029907227 .56799319 .0029907227 .60598757 .0029907227 .68099978 .0029907227 .71598818 0Z"/>
<path id="font_3_81" d="M.47099305 .21424866C.47099305 .34223939 .37098695 .4482422 .25 .4482422 .125 .4482422 .027999878 .3392334 .027999878 .21424866 .027999878 .085250858 .13198853-.0107421879 .24899292-.0107421879 .36999513-.0107421879 .47099305 .087249759 .47099305 .21424866M.3880005 .22224427C.3880005 .18624878 .3880005 .13224793 .3659973 .08824158 .34399415 .04324341 .2999878 .014251709 .25 .014251709 .20698548 .014251709 .16299439 .035247804 .13598633 .08125305 .11099243 .12524414 .11099243 .18624878 .11099243 .22224427 .11099243 .26124574 .11099243 .31523133 .1349945 .35923768 .1619873 .40522767 .20899964 .426239 .24899292 .426239 .29299928 .426239 .33599855 .40423585 .3619995 .36123658 .3880005 .3182373 .3880005 .26023866 .3880005 .22224427Z"/>
<path id="font_3_109" d="M.5349884 0V.0309906C.46499635 .0309906 .45700074 .037994386 .45700074 .08705139V.4423828L.30999757 .43066407V.3996582C.37998963 .3996582 .3880005 .39266969 .3880005 .34373475V.16601563C.3880005 .07910156 .33999635 .011245728 .2669983 .011245728 .18299866 .011245728 .1789856 .058135988 .1789856 .11009216V.4423828L.03199768 .43066407V.3996582C.10998535 .3996582 .10998535 .39666749 .10998535 .3078003V.15802002C.10998535 .080093387 .10998535-.0107421879 .2619934-.0107421879 .31799317-.0107421879 .3619995 .017242432 .3909912 .07910156V-.0107421879L.5349884 0Z"/>
<path id="font_3_96" d="M.3639984 .38137818C.3639984 .41337586 .33299256 .4423828 .2899933 .4423828 .21699524 .4423828 .18099976 .37538148 .16699219 .3323822V.4423828L.027999878 .43066407V.3996582C.09799194 .3996582 .10598755 .39266969 .10598755 .34370423V.07595825C.10598755 .0309906 .09498596 .0309906 .027999878 .0309906V0L.14199829 .0029907227C.18199158 .0029907227 .22898865 .0029907227 .2689972 0V.0309906H.24798584C.17399597 .0309906 .17199707 .04197693 .17199707 .07795715V.23181153C.17199707 .33137513 .21398926 .42037965 .2899933 .42037965 .29699708 .42037965 .29899598 .42037965 .30099488 .41937257 .2979889 .41838075 .27799989 .40637208 .27799989 .3803711 .27799989 .35237123 .29899598 .33737184 .32099916 .33737184 .33898927 .33737184 .3639984 .3493805 .3639984 .38137818Z"/>
<path id="font_3_98" d="M.3600006 .12823487C.3600006 .18122864 .32998658 .21122742 .31799317 .22323609 .2849884 .25523377 .24598694 .26322938 .20399475 .27124024 .147995 .28224183 .08099365 .29522706 .08099365 .35324098 .08099365 .38822938 .10699463 .42922975 .19299317 .42922975 .30299378 .42922975 .30799867 .3392334 .30999757 .30822755 .31098939 .2992401 .32199098 .2992401 .32199098 .2992401 .33499146 .2992401 .33499146 .30422975 .33499146 .32322694V.4242401C.33499146 .4412384 .33499146 .4482422 .32398988 .4482422 .31900025 .4482422 .31698609 .4482422 .3039856 .43623353 .30099488 .43223573 .29100038 .42323304 .2869873 .42022706 .24899292 .4482422 .20799256 .4482422 .19299317 .4482422 .070999149 .4482422 .032989503 .38124085 .032989503 .3252411 .032989503 .29023744 .04899597 .26223756 .07598877 .24023438 .10798645 .2142334 .13598633 .2082367 .20799256 .19422913 .22999573 .19021607 .31199647 .17422486 .31199647 .10221863 .31199647 .051223756 .2769928 .011245728 .19898987 .011245728 .114990238 .011245728 .07899475 .068222049 .05999756 .1532135 .056991579 .16621399 .055999757 .17021179 .04598999 .17021179 .032989503 .17021179 .032989503 .16322327 .032989503 .1452179V.013214111C.032989503-.003753662 .032989503-.0107421879 .04399109-.0107421879 .04899597-.0107421879 .049987794-.009750366 .068984989 .009246826 .070999149 .011245728 .070999149 .013214111 .08898926 .032226564 .1329956-.009750366 .17799378-.0107421879 .19898987-.0107421879 .31399537-.0107421879 .3600006 .05621338 .3600006 .1282196V.12823487Z"/>
<path id="font_3_83" d="M.6239929 .4967041C.6239929 .59465029 .5249939 .6826172 .3880005 .6826172H.034988405V.6516113H.05899048C.13598633 .6516113 .13798523 .64060977 .13798523 .6046295V.07795715C.13798523 .041992189 .13598633 .0309906 .05899048 .0309906H.034988405V0C.069992069 .0029907227 .14399719 .0029907227 .18199158 .0029907227 .21998596 .0029907227 .29499818 .0029907227 .32998658 0V.0309906H.30599977C.22898865 .0309906 .22698975 .041992189 .22698975 .07795715V.3157959H.3959961C.5159912 .3157959 .6239929 .39675904 .6239929 .4967041M.5209961 .4967041C.5209961 .4497223 .5209961 .34179688 .3619995 .34179688H.22399903V.6116333C.22399903 .64460757 .22599793 .6516113 .272995 .6516113H.3619995C.5209961 .6516113 .5209961 .54566958 .5209961 .4967041Z"/>
<path id="font_3_50" d="M.4149933 .11933899C.4149933 .12934876 .40699769 .13134766 .4019928 .13134766 .3929901 .13134766 .3909912 .12535095 .3889923 .11734009 .35398866 .014251709 .2639923 .014251709 .2539978 .014251709 .20399475 .014251709 .1639862 .044281007 .14099121 .08131409 .11099243 .12934876 .11099243 .19540406 .11099243 .23144531H.3899994C.4119873 .23144531 .4149933 .23144531 .4149933 .2524414 .4149933 .35131837 .36099244 .4482422 .23599243 .4482422 .11999512 .4482422 .027999878 .34532167 .027999878 .22042847 .027999878 .08631897 .1329956-.0107421879 .24798584-.0107421879 .36999513-.0107421879 .4149933 .10032654 .4149933 .11933899M.34899903 .2524414H.11199951C.117996219 .40126039 .20199585 .426239 .23599243 .426239 .33898927 .426239 .34899903 .2913971 .34899903 .2524414Z"/>
<path id="font_3_43" d="M.4149933 .119140628C.4149933 .12911988 .40499879 .12911988 .4019928 .12911988 .3929901 .12911988 .3909912 .12512207 .3889923 .119140628 .3600006 .026229859 .29499818 .014251709 .2579956 .014251709 .20498657 .014251709 .116989139 .0572052 .116989139 .21801758 .116989139 .38093568 .19898987 .42323304 .2519989 .42323304 .26098634 .42323304 .32398988 .42222596 .35899354 .38594056 .31799317 .38293458 .31199647 .3529358 .31199647 .3399353 .31199647 .31393434 .32998658 .2939453 .35798646 .2939453 .38398744 .2939453 .4039917 .3109436 .4039917 .34094239 .4039917 .40911866 .32798768 .4482422 .25099183 .4482422 .12599182 .4482422 .033996583 .3399353 .033996583 .21601868 .033996583 .08816528 .1329956-.0107421879 .24899292-.0107421879 .3829956-.0107421879 .4149933 .10914612 .4149933 .119140628Z"/>
<path id="font_3_77" d="M.5349884 0V.0309906C.48298646 .0309906 .45799256 .0309906 .45700074 .061019899V.25221253C.45700074 .3383026 .45700074 .36932374 .42599488 .405365 .4119873 .42237855 .3789978 .4423828 .32099916 .4423828 .24798584 .4423828 .20098877 .39935304 .17298889 .33729554V.4423828L.03199768 .43066407V.3996582C.101989749 .3996582 .10998535 .39266969 .10998535 .34370423V.07595825C.10998535 .0309906 .09899902 .0309906 .03199768 .0309906V0L.14498902 .0029907227 .25698854 0V.0309906C.18998719 .0309906 .1789856 .0309906 .1789856 .07595825V.25978089C.1789856 .36431886 .25 .42037965 .31399537 .42037965 .3769989 .42037965 .3880005 .36631776 .3880005 .30926515V.076034549C.3880005 .0309906 .3769989 .0309906 .30999757 .0309906V0L.4229889 .0029907227 .5349884 0Z"/>
<path id="font_3_105" d="M.33198548 .12385559V.18066406H.30699159V.12585449C.30699159 .052108766 .2769928 .014251709 .23999024 .014251709 .17298889 .014251709 .17298889 .10491943 .17298889 .12187195V.3996582H.31599427V.43066407H.17298889V.6142578H.147995C.14698792 .5324249 .116989139 .42565919 .018997193 .42166139V.3996582H.10398865V.12408447C.10398865 .0012512207 .19699097-.0107421879 .23298645-.0107421879 .3039856-.0107421879 .33198548 .060180665 .33198548 .12408447V.12385559Z"/>
</defs>
<path transform="matrix(1.00008,0,0,-1,27.638016,96.055)" stroke-width=".3985" stroke-linecap="butt" stroke-miterlimit="10" stroke-linejoin="miter" fill="none" stroke="#00aeef" d="M0 0H127.55977M0 12.75595H127.55977M0 25.51193H127.55977M0 38.26791H127.55977M0 51.0239H127.55977M0 63.77988H127.55977M0 76.53137H127.55977M0 0V76.53586M12.75595 0V76.53586M25.51193 0V76.53586M38.26791 0V76.53586M51.0239 0V76.53586M63.77988 0V76.53586M76.53586 0V76.53586M89.29184 0V76.53586M102.0478 0V76.53586M114.80379 0V76.53586M127.55528 0V76.53586M127.55977 76.53586"/>
<path transform="matrix(1.00008,0,0,-1,27.638016,96.055)" stroke-width=".79701" stroke-linecap="butt" stroke-miterlimit="10" stroke-linejoin="miter" fill="none" stroke="#000000" d="M0 0H133.77881"/>
<path transform="matrix(1.00008,0,0,-1,161.42752,96.055)" d="M1.0361 0C-.25902 .25902-1.55415 .77707-3.1083 1.68365-1.55415 .51805-1.55415-.51805-3.1083-1.68365-1.55415-.77707-.25902-.25902 1.0361 0Z"/>
<path transform="matrix(1.00008,0,0,-1,161.42752,96.055)" stroke-width=".79701" stroke-linecap="butt" stroke-linejoin="round" fill="none" stroke="#000000" d="M1.0361 0C-.25902 .25902-1.55415 .77707-3.1083 1.68365-1.55415 .51805-1.55415-.51805-3.1083-1.68365-1.55415-.77707-.25902-.25902 1.0361 0Z"/>
<use data-text="t" xlink:href="#font_1_1" transform="matrix(9.963397,0,0,-9.9626,166.58213,99.119)"/>
<path transform="matrix(1.00008,0,0,-1,27.638016,96.055)" stroke-width=".79701" stroke-linecap="butt" stroke-miterlimit="10" stroke-linejoin="miter" fill="none" stroke="#000000" d="M0 0V82.7549"/>
<path transform="matrix(0,-1,-1.00008,-0,27.638016,13.300102)" d="M1.0361 0C-.25902 .25902-1.55415 .77707-3.1083 1.68365-1.55415 .51805-1.55415-.51805-3.1083-1.68365-1.55415-.77707-.25902-.25902 1.0361 0Z"/>
<path transform="matrix(0,-1,-1.00008,-0,27.638016,13.300102)" stroke-width=".79701" stroke-linecap="butt" stroke-linejoin="round" fill="none" stroke="#000000" d="M1.0361 0C-.25902 .25902-1.55415 .77707-3.1083 1.68365-1.55415 .51805-1.55415-.51805-3.1083-1.68365-1.55415-.77707-.25902-.25902 1.0361 0Z"/>
<use data-text="y" xlink:href="#font_1_2" transform="matrix(9.963397,0,0,-9.9626,25.016808,6.2089998)"/>
<path transform="matrix(1.00008,0,0,-1,27.638016,96.055)" stroke-width=".3985" stroke-linecap="butt" stroke-miterlimit="10" stroke-linejoin="miter" fill="none" stroke="#000000" d="M25.51193 1.9133V-1.9135"/>
<use data-text="2" xlink:href="#font_2_3" transform="matrix(9.963397,0,0,-9.9626,45.67946,107.909)"/>
<use data-text="0" xlink:href="#font_2_1" transform="matrix(9.963397,0,0,-9.9626,50.661157,107.909)"/>
<use data-text="0" xlink:href="#font_2_1" transform="matrix(9.963397,0,0,-9.9626,55.642854,107.909)"/>
<path transform="matrix(1.00008,0,0,-1,27.638016,96.055)" stroke-width=".3985" stroke-linecap="butt" stroke-miterlimit="10" stroke-linejoin="miter" fill="none" stroke="#000000" d="M51.0239 1.9133V-1.9135"/>
<use data-text="4" xlink:href="#font_2_4" transform="matrix(9.963397,0,0,-9.9626,71.1935,107.909)"/>
<use data-text="0" xlink:href="#font_2_1" transform="matrix(9.963397,0,0,-9.9626,76.17519,107.909)"/>
<use data-text="0" xlink:href="#font_2_1" transform="matrix(9.963397,0,0,-9.9626,81.15689,107.909)"/>
<path transform="matrix(1.00008,0,0,-1,27.638016,96.055)" stroke-width=".3985" stroke-linecap="butt" stroke-miterlimit="10" stroke-linejoin="miter" fill="none" stroke="#000000" d="M76.53586 1.9133V-1.9135"/>
<use data-text="6" xlink:href="#font_2_5" transform="matrix(9.963397,0,0,-9.9626,96.70754,107.909)"/>
<use data-text="0" xlink:href="#font_2_1" transform="matrix(9.963397,0,0,-9.9626,101.68924,107.909)"/>
<use data-text="0" xlink:href="#font_2_1" transform="matrix(9.963397,0,0,-9.9626,106.67094,107.909)"/>
<path transform="matrix(1.00008,0,0,-1,27.638016,96.055)" stroke-width=".3985" stroke-linecap="butt" stroke-miterlimit="10" stroke-linejoin="miter" fill="none" stroke="#000000" d="M102.0478 1.9133V-1.9135"/>
<use data-text="8" xlink:href="#font_2_6" transform="matrix(9.963397,0,0,-9.9626,122.22158,107.909)"/>
<use data-text="0" xlink:href="#font_2_1" transform="matrix(9.963397,0,0,-9.9626,127.20328,107.909)"/>
<use data-text="0" xlink:href="#font_2_1" transform="matrix(9.963397,0,0,-9.9626,132.18497,107.909)"/>
<path transform="matrix(1.00008,0,0,-1,27.638016,96.055)" stroke-width=".3985" stroke-linecap="butt" stroke-miterlimit="10" stroke-linejoin="miter" fill="none" stroke="#000000" d="M127.55977 1.9133V-1.9135"/>
<use data-text="1" xlink:href="#font_2_2" transform="matrix(9.963397,0,0,-9.9626,145.24442,107.909)"/>
<use data-text="0" xlink:href="#font_2_1" transform="matrix(9.963397,0,0,-9.9626,150.22612,107.909)"/>
<use data-text="0" xlink:href="#font_2_1" transform="matrix(9.963397,0,0,-9.9626,155.20783,107.909)"/>
<use data-text="0" xlink:href="#font_2_1" transform="matrix(9.963397,0,0,-9.9626,160.18952,107.909)"/>
<path transform="matrix(1.00008,0,0,-1,27.638016,96.055)" stroke-width=".3985" stroke-linecap="butt" stroke-miterlimit="10" stroke-linejoin="miter" fill="none" stroke="#000000" d="M2.04099 25.51193H-1.78581"/>
<use data-text="2" xlink:href="#font_2_3" transform="matrix(9.963397,0,0,-9.9626,12.368797,73.753)"/>
<use data-text="0" xlink:href="#font_2_1" transform="matrix(9.963397,0,0,-9.9626,17.350495,73.753)"/>
<path transform="matrix(1.00008,0,0,-1,27.638016,96.055)" stroke-width=".3985" stroke-linecap="butt" stroke-miterlimit="10" stroke-linejoin="miter" fill="none" stroke="#000000" d="M2.04099 51.0239H-1.78581"/>
<use data-text="4" xlink:href="#font_2_4" transform="matrix(9.963397,0,0,-9.9626,12.368797,48.241)"/>
<use data-text="0" xlink:href="#font_2_1" transform="matrix(9.963397,0,0,-9.9626,17.350495,48.241)"/>
<path transform="matrix(1.00008,0,0,-1,27.638016,96.055)" stroke-width="1.19553" stroke-linecap="butt" stroke-miterlimit="10" stroke-linejoin="miter" fill="none" stroke="#ff0000" d="M.38264 73.0294C.38264 73.0294 1.81833 47.64368 2.36974 42.71625 2.92114 37.7888 3.80542 38.60104 4.35681 37.51582 4.90822 36.4306 5.79251 35.49199 6.34392 34.89478 6.89532 34.29759 7.77959 33.61316 8.331 33.21155 8.8824 32.8099 9.76668 32.29758 10.31807 32.00009 10.86949 31.70259 11.75377 31.30106 12.30518 31.06738 12.85658 30.8337 13.74084 30.50671 14.29225 30.31587 14.84366 30.12503 15.72795 29.8522 16.27934 29.69185 16.83075 29.5315 17.71503 29.2978 18.26643 29.1601 18.81784 29.02237 19.70212 28.81929 20.25352 28.69919 20.80493 28.57906 21.68921 28.40051 22.24062 28.29433 22.792 28.18814 23.67628 28.02881 24.22769 27.93385 24.7791 27.8389 25.66338 27.69565 26.21478 27.60997 26.76619 27.5243 27.65047 27.39436 28.20187 27.31645 28.75327 27.23854 29.63756 27.11978 30.18896 27.04843 30.74037 26.97708 31.62463 26.86797 32.17604 26.8022 32.72746 26.73645 33.61174 26.63538 34.16315 26.57448 34.71454 26.51358 35.59882 26.41988 36.15022 26.3633 36.70163 26.30673 37.5859 26.21953 38.13731 26.16672 38.68872 26.11389 39.573 26.03207 40.1244 25.98257 40.67581 25.93307 41.56009 25.85646 42.1115 25.80994 42.6629 25.76341 43.54716 25.69106 44.09857 25.6472 44.64998 25.60336 45.53426 25.5353 46.08566 25.49384 46.63707 25.4524 47.52135 25.38773 48.07275 25.34843 48.62416 25.30916 49.50842 25.24796 50.05983 25.21063 50.61124 25.17331 51.49553 25.11499 52.04694 25.07945 52.59834 25.04391 53.4826 24.98843 54.03401 24.95448 54.58542 24.92055 55.46968 24.8671 56.02109 24.83478 56.5725 24.80246 57.45679 24.75244 58.0082 24.7215 58.5596 24.69055 59.44386 24.6414 59.99527 24.61172 60.54668 24.58205 61.43095 24.536 61.98236 24.50758 62.53377 24.47917 63.41805 24.43442 63.96945 24.40697 64.52086 24.3795 65.40514 24.33604 65.95654 24.30965 66.50795 24.28323 67.39221 24.24193 67.94362 24.2166 68.49503 24.19127 69.37932 24.15154 69.93073 24.12706 70.48213 24.1026 71.3664 24.06389 71.9178 24.04025 72.46921 24.01663 73.35349 23.97958 73.90489 23.95676 74.4563 23.93394 75.34058 23.8979 75.89198 23.8758 76.44339 23.85367 77.32765 23.81873 77.87906 23.79735 78.43047 23.77596 79.31474 23.74232 79.86615 23.72163 80.41756 23.70094 81.30183 23.66832 81.85324 23.64825 82.40465 23.62819 83.28893 23.59645 83.84033 23.57701 84.39174 23.55757 85.276 23.52704 85.82741 23.50812 86.37881 23.4892 87.2631 23.45898 87.81451 23.44057 88.36592 23.42215 89.25018 23.39326 89.80159 23.37537 90.353 23.35747 91.23726 23.32893 91.78867 23.31152 92.34007 23.2941 93.22437 23.26672 93.77577 23.24982 94.32718 23.23291 95.21144 23.20618 95.76285 23.18968 96.31425 23.17317 97.19853 23.14699 97.74994 23.13089 98.30135 23.1148 99.18562 23.08937 99.73703 23.07367 100.28844 23.05798 101.17271 23.03308 101.72412 23.0178 102.27553 23.00253 103.15979 22.97844 103.7112 22.9635 104.2626 22.94858 105.1469 22.92479 105.6983 22.91019 106.24971 22.89557 107.13397 22.87247 107.68538 22.8582 108.23679 22.84395 109.12106 22.82135 109.67247 22.8074 110.22388 22.79344 111.10815 22.77122 111.65956 22.75758 112.21097 22.74394 113.09523 22.72243 113.64664 22.7091 114.19804 22.6958 115.08232 22.67465 115.63373 22.66162 116.18513 22.64859 117.06941 22.62787 117.62082 22.6151 118.17223 22.60233 119.0565 22.58202 119.60791 22.56955 120.15932 22.55708 121.04358 22.53743 121.59499 22.52518 122.1464 22.51292 123.03067 22.49321 123.58208 22.48119 124.13348 22.46918 125.01776 22.45033 125.56917 22.43857 126.12057 22.42679 127.55624 22.39632 125.68375 22.43599"/>
<path transform="matrix(.99982,.02118,.021181696,-.99974,153.33182,73.619)" d="M1.27522 0C-.31879 .31879-1.91284 .9564-3.8257 2.07224-1.91284 .6376-1.91284-.6376-3.8257-2.07224-1.91284-.9564-.31879-.31879 1.27522 0Z" fill="#ff0000"/>
<path transform="matrix(.99982,.02118,.021181696,-.99974,153.33182,73.619)" stroke-width="1.19553" stroke-linecap="butt" stroke-linejoin="round" fill="none" stroke="#ff0000" d="M1.27522 0C-.31879 .31879-1.91284 .9564-3.8257 2.07224-1.91284 .6376-1.91284-.6376-3.8257-2.07224-1.91284-.9564-.31879-.31879 1.27522 0Z"/>
<path transform="matrix(1.00008,0,0,-1,27.638016,96.055)" d="M1.31807 74.23987C1.31807 74.94441 .74695 75.51553 .0424 75.51553-.66211 75.51553-1.23323 74.94441-1.23323 74.23987-1.23323 73.53534-.66211 72.96422 .0424 72.96422 .74695 72.96422 1.31807 73.53534 1.31807 74.23987ZM.0424 74.23987" fill="#0000ff"/>
<path transform="matrix(1.00008,0,0,-1,27.638016,96.055)" stroke-width=".3985" stroke-linecap="butt" stroke-miterlimit="10" stroke-linejoin="miter" fill="none" stroke="#0000ff" d="M1.31807 74.23987C1.31807 74.94441 .74695 75.51553 .0424 75.51553-.66211 75.51553-1.23323 74.94441-1.23323 74.23987-1.23323 73.53534-.66211 72.96422 .0424 72.96422 .74695 72.96422 1.31807 73.53534 1.31807 74.23987ZM.0424 74.23987"/>
<path transform="matrix(1.00008,0,0,-1,27.638016,96.055)" d="M1.40314 56.38138C1.40314 57.0859 .83202 57.65704 .12747 57.65704-.57704 57.65704-1.14816 57.0859-1.14816 56.38138-1.14816 55.67685-.57704 55.10571 .12747 55.10571 .83202 55.10571 1.40314 55.67685 1.40314 56.38138ZM.12747 56.38138" fill="#0000ff"/>
<path transform="matrix(1.00008,0,0,-1,27.638016,96.055)" stroke-width=".3985" stroke-linecap="butt" stroke-miterlimit="10" stroke-linejoin="miter" fill="none" stroke="#0000ff" d="M1.40314 56.38138C1.40314 57.0859 .83202 57.65704 .12747 57.65704-.57704 57.65704-1.14816 57.0859-1.14816 56.38138-1.14816 55.67685-.57704 55.10571 .12747 55.10571 .83202 55.10571 1.40314 55.67685 1.40314 56.38138ZM.12747 56.38138"/>
<path transform="matrix(1.00008,0,0,-1,27.638016,96.055)" d="M2.42363 45.6664C2.42363 46.37094 1.85251 46.94206 1.14796 46.94206 .44344 46.94206-.12767 46.37094-.12767 45.6664-.12767 44.96187 .44344 44.39075 1.14796 44.39075 1.85251 44.39075 2.42363 44.96187 2.42363 45.6664ZM1.14796 45.6664" fill="#0000ff"/>
<path transform="matrix(1.00008,0,0,-1,27.638016,96.055)" stroke-width=".3985" stroke-linecap="butt" stroke-miterlimit="10" stroke-linejoin="miter" fill="none" stroke="#0000ff" d="M2.42363 45.6664C2.42363 46.37094 1.85251 46.94206 1.14796 46.94206 .44344 46.94206-.12767 46.37094-.12767 45.6664-.12767 44.96187 .44344 44.39075 1.14796 44.39075 1.85251 44.39075 2.42363 44.96187 2.42363 45.6664ZM1.14796 45.6664"/>
<path transform="matrix(1.00008,0,0,-1,27.638016,96.055)" d="M4.33714 42.98756C4.33714 43.69211 3.76602 44.26323 3.0615 44.26323 2.35695 44.26323 1.78583 43.69211 1.78583 42.98756 1.78583 42.28304 2.35695 41.71191 3.0615 41.71191 3.76602 41.71191 4.33714 42.28304 4.33714 42.98756ZM3.0615 42.98756" fill="#0000ff"/>
<path transform="matrix(1.00008,0,0,-1,27.638016,96.055)" stroke-width=".3985" stroke-linecap="butt" stroke-miterlimit="10" stroke-linejoin="miter" fill="none" stroke="#0000ff" d="M4.33714 42.98756C4.33714 43.69211 3.76602 44.26323 3.0615 44.26323 2.35695 44.26323 1.78583 43.69211 1.78583 42.98756 1.78583 42.28304 2.35695 41.71191 3.0615 41.71191 3.76602 41.71191 4.33714 42.28304 4.33714 42.98756ZM3.0615 42.98756"/>
<path transform="matrix(1.00008,0,0,-1,27.638016,96.055)" d="M7.39845 35.4616C7.39845 36.16612 6.82732 36.73724 6.12279 36.73724 5.41826 36.73724 4.84712 36.16612 4.84712 35.4616 4.84712 34.75705 5.41826 34.18593 6.12279 34.18593 6.82732 34.18593 7.39845 34.75705 7.39845 35.4616ZM6.12279 35.4616" fill="#0000ff"/>
<path transform="matrix(1.00008,0,0,-1,27.638016,96.055)" stroke-width=".3985" stroke-linecap="butt" stroke-miterlimit="10" stroke-linejoin="miter" fill="none" stroke="#0000ff" d="M7.39845 35.4616C7.39845 36.16612 6.82732 36.73724 6.12279 36.73724 5.41826 36.73724 4.84712 36.16612 4.84712 35.4616 4.84712 34.75705 5.41826 34.18593 6.12279 34.18593 6.82732 34.18593 7.39845 34.75705 7.39845 35.4616ZM6.12279 35.4616"/>
<path transform="matrix(1.00008,0,0,-1,27.638016,96.055)" d="M19.64427 32.40007C19.64427 33.10461 19.07315 33.67574 18.36862 33.67574 17.66408 33.67574 17.09296 33.10461 17.09296 32.40007 17.09296 31.69554 17.66408 31.12442 18.36862 31.12442 19.07315 31.12442 19.64427 31.69554 19.64427 32.40007ZM18.36862 32.40007" fill="#0000ff"/>
<path transform="matrix(1.00008,0,0,-1,27.638016,96.055)" stroke-width=".3985" stroke-linecap="butt" stroke-miterlimit="10" stroke-linejoin="miter" fill="none" stroke="#0000ff" d="M19.64427 32.40007C19.64427 33.10461 19.07315 33.67574 18.36862 33.67574 17.66408 33.67574 17.09296 33.10461 17.09296 32.40007 17.09296 31.69554 17.66408 31.12442 18.36862 31.12442 19.07315 31.12442 19.64427 31.69554 19.64427 32.40007ZM18.36862 32.40007"/>
<path transform="matrix(1.00008,0,0,-1,27.638016,96.055)" d="M96.18015 26.9151C96.18015 27.61963 95.60902 28.19075 94.90448 28.19075 94.19995 28.19075 93.62883 27.61963 93.62883 26.9151 93.62883 26.21056 94.19995 25.63943 94.90448 25.63943 95.60902 25.63943 96.18015 26.21056 96.18015 26.9151ZM94.90448 26.9151" fill="#0000ff"/>
<path transform="matrix(1.00008,0,0,-1,27.638016,96.055)" stroke-width=".3985" stroke-linecap="butt" stroke-miterlimit="10" stroke-linejoin="miter" fill="none" stroke="#0000ff" d="M96.18015 26.9151C96.18015 27.61963 95.60902 28.19075 94.90448 28.19075 94.19995 28.19075 93.62883 27.61963 93.62883 26.9151 93.62883 26.21056 94.19995 25.63943 94.90448 25.63943 95.60902 25.63943 96.18015 26.21056 96.18015 26.9151ZM94.90448 26.9151"/>
<use data-text="H" xlink:href="#font_3_62" transform="matrix(9.963397,0,0,-9.9626,91.267108,118.536)"/>
<use data-text="o" xlink:href="#font_3_81" transform="matrix(9.963397,0,0,-9.9626,98.73965,118.536)"/>
<use data-text="u" xlink:href="#font_3_109" transform="matrix(9.963397,0,0,-9.9626,103.721347,118.536)"/>
<use data-text="r" xlink:href="#font_3_96" transform="matrix(9.963397,0,0,-9.9626,109.261,118.536)"/>
<use data-text="s" xlink:href="#font_3_98" transform="matrix(9.963397,0,0,-9.9626,113.16664,118.536)"/>
<use data-text="P" xlink:href="#font_3_83" transform="matrix(0,-9.9626,-9.963397,-0,8.023445,74.195)"/>
<use data-text="e" xlink:href="#font_3_50" transform="matrix(0,-9.9626,-9.963397,-0,8.023445,67.68942)"/>
<use data-text="r" xlink:href="#font_3_96" transform="matrix(0,-9.9626,-9.963397,-0,8.023445,63.26603)"/>
<use data-text="c" xlink:href="#font_3_43" transform="matrix(0,-9.9626,-9.963397,-0,8.023445,59.360689)"/>
<use data-text="e" xlink:href="#font_3_50" transform="matrix(0,-9.9626,-9.963397,-0,8.023445,54.937288)"/>
<use data-text="n" xlink:href="#font_3_77" transform="matrix(0,-9.9626,-9.963397,-0,8.023445,50.513887)"/>
<use data-text="t" xlink:href="#font_3_105" transform="matrix(0,-9.9626,-9.963397,-0,8.023445,45.25363)"/>
</svg>
