<svg xmlns="http://www.w3.org/2000/svg" xmlns:xlink="http://www.w3.org/1999/xlink" version="1.1" width="166" height="175" viewBox="0 0 166 175">
<defs>
<path id="font_1_1" d="M.33399964 .30233766C.33999635 .32835389 .36299134 .42037965 .43299867 .42037965 .43798829 .42037965 .46199037 .42037965 .48298646 .40734864 .45498658 .402359 .43499757 .37734986 .43499757 .35334779 .43499757 .33735658 .44599916 .31835938 .47299195 .31835938 .49499513 .31835938 .5269928 .3363495 .5269928 .37635804 .5269928 .42837525 .46798707 .4423828 .43399049 .4423828 .37599183 .4423828 .34098817 .38935853 .32899476 .36634828 .3039856 .43237306 .25 .4423828 .22099304 .4423828 .116989139 .4423828 .05999756 .3133545 .05999756 .28834535 .05999756 .27833558 .069992069 .27833558 .07199097 .27833558 .07998657 .27833558 .08299255 .28033448 .084991458 .28933717 .11898804 .39535523 .18499756 .42037965 .21899414 .42037965 .23799134 .42037965 .272995 .4113617 .272995 .35334779 .272995 .32235719 .2559967 .25532533 .21899414 .11528015 .20298767 .053268434 .16799927 .011245728 .12399292 .011245728 .117996219 .011245728 .09498596 .011245728 .07398987 .024276734 .09899902 .029266358 .12098694 .05027771 .12098694 .07827759 .12098694 .105270389 .09899902 .11328125 .083999637 .11328125 .053985597 .11328125 .0289917 .08728027 .0289917 .055267335 .0289917 .009246826 .07899475-.0107421879 .12298584-.0107421879 .18899536-.0107421879 .22499085 .059280397 .22799683 .0652771 .23999024 .028274537 .27598573-.0107421879 .33599855-.0107421879 .43899537-.0107421879 .49598695 .118270877 .49598695 .14328003 .49598695 .1532898 .4869995 .1532898 .48399354 .1532898 .47499085 .1532898 .47299195 .14929199 .47099305 .14228821 .43798829 .03527832 .36999513 .011245728 .33799745 .011245728 .29899598 .011245728 .2829895 .043273927 .2829895 .07727051 .2829895 .09927368 .2889862 .121276859 .2999878 .16529846L.33399964 .30233766Z"/>
<path id="font_1_2" d="M.48599244 .38136292C.48999024 .39537049 .48999024 .39736939 .48999024 .40437318 .48999024 .42237855 .47599793 .43138124 .46099855 .43138124 .45098878 .43138124 .43499757 .42536927 .42599488 .41036988 .42399598 .405365 .41600038 .37435914 .4119873 .35635377 .40499879 .33035279 .397995 .30334474 .3919983 .27633668L.34700013 .09628296C.34298707 .08126831 .2999878 .011245728 .23399353 .011245728 .18299866 .011245728 .17199707 .055267335 .17199707 .0922699 .17199707 .1382904 .18899536 .20030213 .22299195 .28833009 .23899842 .3293457 .24299622 .3403473 .24299622 .36035157 .24299622 .405365 .21099854 .4423828 .16099549 .4423828 .06599426 .4423828 .0289917 .29733277 .0289917 .28833009 .0289917 .27833558 .038986207 .27833558 .040985109 .27833558 .050994874 .27833558 .051986696 .28033448 .056991579 .29634095 .083999637 .3903656 .12399292 .42037965 .1579895 .42037965 .1659851 .42037965 .18299866 .42037965 .18299866 .3883667 .18299866 .36335755 .17298889 .3373413 .1659851 .31834413 .12599182 .21231079 .10798645 .1552887 .10798645 .10827637 .10798645 .019256592 .17098999-.0107421879 .22999573-.0107421879 .2689972-.0107421879 .30299378 .0062561037 .33099366 .03425598 .31799317-.017745972 .30599977-.06674194 .2659912-.11973572 .23999024-.15385437 .20199585-.18309021 .1559906-.18309021 .14199829-.18309021 .09700012-.18005371 .07998657-.14074707 .09599304-.14074707 .10899353-.14074707 .12298584-.1287384 .1329956-.11973572 .14299011-.10673523 .14299011-.08773804 .14299011-.056747438 .115997318-.052734376 .10598755-.052734376 .08299255-.052734376 .049987794-.068740848 .049987794-.11773682 .049987794-.16796875 .09399414-.20507813 .1559906-.20507813 .25898744-.20507813 .3619995-.11373901 .3899994-.00074768069L.48599244 .38136292Z"/>
<path id="font_2_1" d="M.6589966 .23046875C.6759949 .23046875 .69400027 .23046875 .69400027 .25045777 .69400027 .27046205 .6759949 .27046205 .6589966 .27046205H.117996219C.100997928 .27046205 .08299255 .27046205 .08299255 .25045777 .08299255 .23046875 .100997928 .23046875 .117996219 .23046875H.6589966Z"/>
<path id="font_3_3" d="M.44898988 .20022583C.44898988 .3193512 .36698915 .41944886 .25898744 .41944886 .21099854 .41944886 .16799927 .40345765 .13198853 .36842347V.5637665C.1519928 .5577698 .18499756 .55078127 .21699524 .55078127 .33999635 .55078127 .4099884 .6417694 .4099884 .6547699 .4099884 .6607666 .40699769 .6657715 .3999939 .6657715 .39898683 .6657715 .39698792 .6657715 .3919983 .66278079 .37199403 .6537781 .32299806 .6337738 .2559967 .6337738 .21598816 .6337738 .16999817 .6407776 .12298584 .6617737 .114990238 .66477969 .11299133 .66477969 .11099243 .66477969 .100997928 .66477969 .100997928 .6567688 .100997928 .6407776V.34439088C.100997928 .32637025 .100997928 .31835938 .114990238 .31835938 .12199402 .31835938 .12399292 .32136537 .12799073 .32736207 .13899231 .3433838 .17599488 .39746095 .25698854 .39746095 .30899049 .39746095 .33399964 .35139466 .34199525 .33337403 .35798646 .29632569 .3600006 .25727845 .3600006 .20722962 .3600006 .17222595 .3600006 .11222839 .33599855 .07035828 .31199647 .031463624 .2749939 .0055389406 .22898865 .0055389406 .1559906 .0055389406 .09899902 .058380128 .08198547 .11723328 .084991458 .1162262 .08799744 .115234378 .09899902 .115234378 .13198853 .115234378 .14898682 .14022827 .14898682 .16423035 .14898682 .18823242 .13198853 .21322632 .09899902 .21322632 .084991458 .21322632 .049987794 .20622254 .049987794 .16023255 .049987794 .07434082 .11898804-.022460938 .23098755-.022460938 .34700013-.022460938 .44898988 .073349 .44898988 .20022583Z"/>
<path id="font_3_2" d="M.2939911 .16503906V.07800293C.2939911 .041992189 .2919922 .0309906 .21798706 .0309906H.19699097V0C.23799134 .0029907227 .2899933 .0029907227 .33198548 .0029907227 .37399293 .0029907227 .4269867 .0029907227 .46798707 0V.0309906H.44699098C.37298585 .0309906 .37098695 .041992189 .37098695 .07800293V.16503906H.47099305V.19602967H.37098695V.65075686C.37098695 .67074587 .37098695 .6767578 .35499574 .6767578 .34599305 .6767578 .34298707 .6767578 .33499146 .66474917L.027999878 .19602967V.16503906H.2939911M.2999878 .19602967H.055999757L.2999878 .5688019V.19602967Z"/>
<path id="font_3_5" d="M.16299439 .4569702C.116989139 .486969 .11299133 .52098086 .11299133 .5379791 .11299133 .598999 .17799378 .64100649 .24899292 .64100649 .32199098 .64100649 .38598634 .58898928 .38598634 .51698306 .38598634 .45996095 .34700013 .4119568 .2869873 .37695313L.16299439 .4569702M.30899049 .36193849C.3809967 .3989563 .42999269 .45095826 .42999269 .51698306 .42999269 .6090088 .34098817 .6660156 .25 .6660156 .1499939 .6660156 .068984989 .59199526 .068984989 .49897767 .068984989 .4809723 .070999149 .43595887 .11299133 .38894654 .12399292 .37695313 .16099549 .35194398 .18598938 .33494569 .12799073 .30592347 .041992189 .24984741 .041992189 .15072632 .041992189 .04458618 .14399719-.022460938 .24899292-.022460938 .3619995-.022460938 .45700074 .06060791 .45700074 .16773987 .45700074 .20379639 .44599916 .24885559 .4079895 .2909088 .3889923 .31193543 .37298585 .3219452 .30899049 .36193849M.20899964 .3199463 .33198548 .24183655C.3600006 .2228241 .40699769 .19277954 .40699769 .13169861 .40699769 .05760193 .33198548 .0055389406 .25 .0055389406 .1639862 .0055389406 .09199524 .067611698 .09199524 .15072632 .09199524 .20880127 .12399292 .27288819 .20899964 .3199463Z"/>
<path id="font_3_1" d="M.2939911 .64004519C.2939911 .66400149 .2939911 .6660156 .2709961 .6660156 .20899964 .60227969 .12098694 .60227969 .08898926 .60227969V.57128909C.10899353 .57128909 .16799927 .57128909 .21998596 .5972748V.07902527C.21998596 .042999269 .21699524 .0309906 .1269989 .0309906H.09498596V0C.12998963 .0029907227 .21699524 .0029907227 .25698854 .0029907227 .29699708 .0029907227 .38398744 .0029907227 .4189911 0V.0309906H.3869934C.29699708 .0309906 .2939911 .041992189 .2939911 .07902527V.64004519Z"/>
<path id="font_3_4" d="M.13198853 .327713V.35173036C.13198853 .6047821 .2559967 .64100649 .30699159 .64100649 .33099366 .64100649 .37298585 .634964 .394989 .6007538 .37998963 .6007538 .33999635 .6007538 .33999635 .5557556 .33999635 .524765 .3639984 .5097656 .38598634 .5097656 .4019928 .5097656 .43199159 .51875308 .43199159 .5577545 .43199159 .6178589 .3880005 .6660156 .30499269 .6660156 .1769867 .6660156 .041992189 .5367584 .041992189 .31570436 .041992189 .048553468 .1579895-.022460938 .25099183-.022460938 .3619995-.022460938 .45700074 .07156372 .45700074 .2036438 .45700074 .33070375 .36799623 .4267578 .25698854 .4267578 .18899536 .4267578 .1519928 .37573243 .13198853 .327713M.25099183 .0055389406C.18798828 .0055389406 .1579895 .06556702 .1519928 .080566409 .13398743 .127594 .13398743 .2076416 .13398743 .22564698 .13398743 .30369569 .1659851 .40374757 .2559967 .40374757 .27198792 .40374757 .31799317 .40374757 .34899903 .34172059 .36698915 .30470277 .36698915 .2536621 .36698915 .20463562 .36698915 .15661621 .36698915 .10658264 .34999085 .0705719 .31999208 .010528564 .27398683 .0055389406 .25099183 .0055389406Z"/>
</defs>
<path transform="matrix(1.00005,0,0,-1.00002,65.51253,91.69258)" stroke-width=".3985" stroke-linecap="butt" stroke-miterlimit="10" stroke-linejoin="miter" fill="none" stroke="#cbcbcb" d="M-63.49829-81.64067H81.64067M-63.49829-72.56947H81.64067M-63.49829-63.49829H81.64067M-63.49829-54.42711H81.64067M-63.49829-45.35591H81.64067M-63.49829-36.28473H81.64067M-63.49829-27.21355H81.64067M-63.49829-18.14235H81.64067M-63.49829-9.07117H81.64067M-63.49829 0H81.64067M-63.49829 9.07117H81.64067M-63.49829 18.14235H81.64067M-63.49829 27.21355H81.64067M-63.49829 36.28473H81.64067M-63.49829 45.35591H81.64067M-63.49829 54.42711H81.64067M-63.49829 63.49829H81.64067M-63.49829 72.56628H81.64067M-63.49829-81.64067V72.56947M-54.42711-81.64067V72.56947M-45.35591-81.64067V72.56947M-36.28473-81.64067V72.56947M-27.21355-81.64067V72.56947M-18.14235-81.64067V72.56947M-9.07117-81.64067V72.56947M0-81.64067V72.56947M9.07117-81.64067V72.56947M18.14235-81.64067V72.56947M27.21355-81.64067V72.56947M36.28473-81.64067V72.56947M45.35591-81.64067V72.56947M54.42711-81.64067V72.56947M63.49829-81.64067V72.56947M72.56947-81.64067V72.56947M81.63748-81.64067V72.56947M81.64067 72.56947"/>
<path transform="matrix(1.00005,0,0,-1.00002,65.51253,91.69258)" stroke-width=".79701" stroke-linecap="butt" stroke-miterlimit="10" stroke-linejoin="miter" fill="none" stroke="#000000" d="M-63.49829 0H88.37007"/>
<path transform="matrix(1.00005,0,0,-1.00002,153.88703,91.69258)" d="M1.0361 0C-.25902 .25902-1.55415 .77707-3.1083 1.68365-1.55415 .51805-1.55415-.51805-3.1083-1.68365-1.55415-.77707-.25902-.25902 1.0361 0Z"/>
<path transform="matrix(1.00005,0,0,-1.00002,153.88703,91.69258)" stroke-width=".79701" stroke-linecap="butt" stroke-linejoin="round" fill="none" stroke="#000000" d="M1.0361 0C-.25902 .25902-1.55415 .77707-3.1083 1.68365-1.55415 .51805-1.55415-.51805-3.1083-1.68365-1.55415-.77707-.25902-.25902 1.0361 0Z"/>
<use data-text="x" xlink:href="#font_1_1" transform="matrix(9.963098,0,0,-9.962799,159.0412,93.83762)"/>
<path transform="matrix(1.00005,0,0,-1.00002,65.51253,91.69258)" stroke-width=".79701" stroke-linecap="butt" stroke-miterlimit="10" stroke-linejoin="miter" fill="none" stroke="#000000" d="M0-81.64067V78.39183"/>
<path transform="matrix(0,-1.00002,-1.00005,-0,65.51253,13.299179)" d="M1.0361 0C-.25902 .25902-1.55415 .77707-3.1083 1.68365-1.55415 .51805-1.55415-.51805-3.1083-1.68365-1.55415-.77707-.25902-.25902 1.0361 0Z"/>
<path transform="matrix(0,-1.00002,-1.00005,-0,65.51253,13.299179)" stroke-width=".79701" stroke-linecap="butt" stroke-linejoin="round" fill="none" stroke="#000000" d="M1.0361 0C-.25902 .25902-1.55415 .77707-3.1083 1.68365-1.55415 .51805-1.55415-.51805-3.1083-1.68365-1.55415-.77707-.25902-.25902 1.0361 0Z"/>
<use data-text="y" xlink:href="#font_1_2" transform="matrix(9.963098,0,0,-9.962799,62.891397,6.2078707)"/>
<path transform="matrix(1.00005,0,0,-1.00002,65.51253,91.69258)" stroke-width=".3985" stroke-linecap="butt" stroke-miterlimit="10" stroke-linejoin="miter" fill="none" stroke="#000000" d="M-45.35591 1.3606V-1.36075"/>
<path transform="matrix(1.00005,0,0,-1.00002,65.51253,91.69258)" d="M-52.7173-12.79579H-37.994524V-3.5525599H-52.7173Z" fill="#ffffff"/>
<use data-text="&#x2212;" xlink:href="#font_2_1" transform="matrix(9.963098,0,0,-9.962799,13.78894,102.661808)"/>
<use data-text="5" xlink:href="#font_3_3" transform="matrix(9.963098,0,0,-9.962799,21.537323,102.661808)"/>
<path transform="matrix(1.00005,0,0,-1.00002,65.51253,91.69258)" stroke-width=".3985" stroke-linecap="butt" stroke-miterlimit="10" stroke-linejoin="miter" fill="none" stroke="#000000" d="M36.28473 1.3606V-1.36075"/>
<path transform="matrix(1.00005,0,0,-1.00002,65.51253,91.69258)" d="M32.79776-11.96555H39.771699V-3.5525704H32.79776Z" fill="#ffffff"/>
<use data-text="4" xlink:href="#font_3_2" transform="matrix(9.963098,0,0,-9.962799,99.30821,102.661808)"/>
<path transform="matrix(1.00005,0,0,-1.00002,65.51253,91.69258)" stroke-width=".3985" stroke-linecap="butt" stroke-miterlimit="10" stroke-linejoin="miter" fill="none" stroke="#000000" d="M72.56947 1.3606V-1.36075"/>
<path transform="matrix(1.00005,0,0,-1.00002,65.51253,91.69258)" d="M69.0825-11.96555H76.056438V-3.5525704H69.0825Z" fill="#ffffff"/>
<use data-text="8" xlink:href="#font_3_5" transform="matrix(9.963098,0,0,-9.962799,135.59503,102.661808)"/>
<path transform="matrix(1.00005,0,0,-1.00002,65.51253,91.69258)" stroke-width=".3985" stroke-linecap="butt" stroke-miterlimit="10" stroke-linejoin="miter" fill="none" stroke="#000000" d="M1.3606-72.56947H-1.36075"/>
<path transform="matrix(1.00005,0,0,-1.00002,65.51253,91.69258)" d="M-23.25676-77.19109H-3.552559V-67.94786H-23.25676Z" fill="#ffffff"/>
<use data-text="&#x2212;" xlink:href="#font_2_1" transform="matrix(9.963098,0,0,-9.962799,43.25142,167.05908)"/>
<use data-text="1" xlink:href="#font_3_1" transform="matrix(9.963098,0,0,-9.962799,50.9998,167.05908)"/>
<use data-text="6" xlink:href="#font_3_4" transform="matrix(9.963098,0,0,-9.962799,55.98134,167.05908)"/>
<path transform="matrix(1.00005,0,0,-1.00002,65.51253,91.69258)" stroke-width=".3985" stroke-linecap="butt" stroke-miterlimit="10" stroke-linejoin="miter" fill="none" stroke="#000000" d="M1.3606-36.28473H-1.36075"/>
<path transform="matrix(1.00005,0,0,-1.00002,65.51253,91.69258)" d="M-18.27534-40.90634H-3.552559V-31.663113H-18.27534Z" fill="#ffffff"/>
<use data-text="&#x2212;" xlink:href="#font_2_1" transform="matrix(9.963098,0,0,-9.962799,48.232667,130.77336)"/>
<use data-text="8" xlink:href="#font_3_5" transform="matrix(9.963098,0,0,-9.962799,55.98105,130.77336)"/>
<path transform="matrix(1.00005,0,0,-1.00002,65.51253,91.69258)" stroke-width=".3985" stroke-linecap="butt" stroke-miterlimit="10" stroke-linejoin="miter" fill="none" stroke="#000000" d="M1.3606 36.28473H-1.36075"/>
<path transform="matrix(1.00005,0,0,-1.00002,65.51253,91.69258)" d="M-10.52649 32.07823H-3.5525504V40.49121H-10.52649Z" fill="#ffffff"/>
<use data-text="8" xlink:href="#font_3_5" transform="matrix(9.963098,0,0,-9.962799,55.982057,58.616918)"/>
<path transform="matrix(1.00005,0,0,-1.00002,65.51253,91.69258)" stroke-width=".3985" stroke-linecap="butt" stroke-miterlimit="10" stroke-linejoin="miter" fill="none" stroke="#000000" d="M1.3606 72.56947H-1.36075"/>
<path transform="matrix(1.00005,0,0,-1.00002,65.51253,91.69258)" d="M-15.5079 68.36299H-3.5525599V76.77597H-15.5079Z" fill="#ffffff"/>
<use data-text="1" xlink:href="#font_3_1" transform="matrix(9.963098,0,0,-9.962799,50.9998,22.332192)"/>
<use data-text="6" xlink:href="#font_3_4" transform="matrix(9.963098,0,0,-9.962799,55.98134,22.332192)"/>
<path transform="matrix(1.00005,0,0,-1.00002,65.51253,91.69258)" stroke-width=".79701" stroke-linecap="butt" stroke-miterlimit="10" stroke-linejoin="miter" fill="none" stroke="#ff0000" d="M-41.99103 71.15668C-41.08452 66.07825-41.08452 66.07825-40.63954 63.63974-40.19458 61.20126-39.48099 57.35376-39.03601 54.99391-38.59103 52.63406-37.87744 48.91273-37.43248 46.63156-36.9875 44.35037-36.27391 40.75519-35.82893 38.55266-35.38396 36.35014-34.67035 32.88112-34.22539 30.75726-33.78041 28.63339-33.06682 25.29053-32.62184 23.2453-32.17688 21.2001-31.46329 17.98338-31.01831 16.01685-30.57333 14.05031-29.85973 10.95973-29.41475 9.07187-28.96977 7.18399-28.2562 4.21956-27.81122 2.41034-27.36624 .60114-26.65265-2.23709-26.20767-3.96767-25.76271-5.69823-25.04912-8.41046-24.60414-10.06236-24.15916-11.71428-23.44556-14.3002-23.0006-15.87346-22.55562-17.4467-21.84203-19.90663-21.39705-21.4012-20.95207-22.89578-20.23848-25.22945-19.79352-26.64536-19.34854-28.06126-18.63495-30.26888-18.18997-31.60616-17.74501-32.94342-17.0314-35.02487-16.58643-36.28348-16.14145-37.54208-15.42786-39.49739-14.98288-40.67734-14.53792-41.85728-13.82433-43.68643-13.37935-44.78772-12.93437-45.889-12.22076-47.59201-11.7758-48.61462-11.33083-49.63725-10.61723-51.21411-10.17226-52.15805-9.72728-53.10202-9.0137-54.5527-8.56873-55.41801-8.12375-56.28333-7.41016-57.608-6.96518-58.39464-6.52022-59.18129-5.80661-60.37967-5.36163-61.08765-4.91666-61.79564-4.20306-62.868-3.7581-63.49731-3.31313-64.12663-2.59953-65.07271-2.15456-65.62338-1.70958-66.17404-.99599-66.9941-.55103-67.4661-.10605-67.93813 .60753-68.632 1.05249-69.02534 1.49747-69.4187 2.21106-69.98643 2.65604-70.30113 3.10101-70.61581 3.81459-71.0574 4.25957-71.29343 4.70454-71.52945 5.41815-71.8449 5.86313-72.00224 6.30809-72.1596 7.02168-72.34889 7.46666-72.4276 7.91164-72.5063 8.62523-72.56944 9.07019-72.56947 9.51517-72.5695 10.22876-72.50648 10.67374-72.42787 11.11871-72.34927 11.83232-72.16022 12.27728-72.00294 12.72226-71.84567 13.43585-71.53033 13.88083-71.2944 14.32579-71.05846 15.03938-70.61711 15.48436-70.30252 15.92934-69.98792 16.64293-69.42027 17.0879-69.02701 17.53287-68.63374 18.24648-67.94008 18.69145-67.46819 19.13643-66.99628 19.85002-66.17644 20.295-65.62587 20.73996-65.07532 21.45355-64.1293 21.89853-63.50009 22.3435-62.87086 23.05711-61.79872 23.50208-61.09084 23.94705-60.38295 24.66064-59.18465 25.10562-58.3981 25.5506-57.61156 26.26419-56.28711 26.70915-55.42189 27.15413-54.55669 27.86772-53.10608 28.3127-52.1622 28.75766-51.21834 29.47127-49.64159 29.91624-48.61905 30.36122-47.59654 31.07481-45.89375 31.51979-44.79256 31.96475-43.69139 32.67834-41.8623 33.12332-40.68246 33.5683-39.50261 34.28189-37.54755 34.72685-36.28902 35.17183-35.0305 35.88544-32.94914 36.33041-31.61195 36.77539-30.2748 37.48897-28.06738 37.93394-26.65157 38.37892-25.23575 39.09251-22.90219 39.53749-21.4077 39.98245-19.91324 40.69606-17.45352 41.14104-15.88037 41.58601-14.30722 42.2996-11.72137 42.74457-10.06955 43.18954-8.41776 43.90314-5.70573 44.34811-3.97527 44.79309-2.2448 45.50668 .59332 45.95164 2.40245 46.39662 4.2116 47.11023 7.17592 47.5552 9.0637 48.00017 10.95146 48.71376 14.04182 49.15874 16.00827 49.60371 17.9747 50.3173 21.19135 50.76228 23.23647 51.20724 25.28157 51.92084 28.6242 52.36581 30.74797 52.8108 32.87175 53.5244 36.34068 53.96936 38.54312 54.41434 40.74553 55.12793 44.34048 55.5729 46.62158 56.01788 48.90268 56.73146 52.62392 57.17644 54.98367 57.62141 57.34341 58.33502 61.19069 58.78 63.62909 59.22496 66.06749 60.38353 72.55798 60.13147 71.14574"/>
<path transform="matrix(-.17570877,-.98443976,-.9844692,.17570351,23.51942,20.534478)" d="M1.0361 0C-.25902 .25902-1.55415 .77707-3.1083 1.68365-1.55415 .51805-1.55415-.51805-3.1083-1.68365-1.55415-.77707-.25902-.25902 1.0361 0Z" fill="#ff0000"/>
<path transform="matrix(-.17570877,-.98443976,-.9844692,.17570351,23.51942,20.534478)" stroke-width=".79701" stroke-linecap="butt" stroke-linejoin="round" fill="none" stroke="#ff0000" d="M1.0361 0C-.25902 .25902-1.55415 .77707-3.1083 1.68365-1.55415 .51805-1.55415-.51805-3.1083-1.68365-1.55415-.77707-.25902-.25902 1.0361 0Z"/>
<path transform="matrix(.17570877,-.98443976,-.9844692,-.17570351,125.64698,20.545418)" d="M1.0361 0C-.25902 .25902-1.55415 .77707-3.1083 1.68365-1.55415 .51805-1.55415-.51805-3.1083-1.68365-1.55415-.77707-.25902-.25902 1.0361 0Z" fill="#ff0000"/>
<path transform="matrix(.17570877,-.98443976,-.9844692,-.17570351,125.64698,20.545418)" stroke-width=".79701" stroke-linecap="butt" stroke-linejoin="round" fill="none" stroke="#ff0000" d="M1.0361 0C-.25902 .25902-1.55415 .77707-3.1083 1.68365-1.55415 .51805-1.55415-.51805-3.1083-1.68365-1.55415-.77707-.25902-.25902 1.0361 0Z"/>
<path transform="matrix(1.00005,0,0,-1.00002,65.51253,91.69258)" stroke-width="1.59404" stroke-linecap="butt" stroke-miterlimit="10" stroke-linejoin="miter" fill="none" stroke="#0000ff" d="M-41.84023 70.29303C-42.07347 71.61082-42.07347 71.61082-42.00835 71.24402-41.9432 70.8772-41.83873 70.29031-41.77359 69.92519-41.70845 69.56006-41.60397 68.9759-41.53883 68.61244-41.4737 68.24901-41.36923 67.66743-41.3041 67.30568-41.23895 66.94391-41.13446 66.3652-41.06932 66.00513-41.0042 65.64505-40.89972 65.06892-40.83458 64.71053-40.76945 64.35213-40.66496 63.7787-40.59982 63.42203-40.53468 63.06534-40.43022 62.49475-40.36508 62.13976-40.29994 61.78474-40.19547 61.21675-40.13033 60.8634-40.06519 60.51009-39.96071 59.94482-39.89557 59.59317-39.83044 59.24153-39.72595 58.67886-39.66081 58.32889-39.59567 57.97893-39.49121 57.4191-39.42607 57.07083-39.36093 56.72256-39.25645 56.16547-39.19131 55.81888-39.12617 55.47229-39.02171 54.91774-38.95657 54.57286-38.89143 54.22795-38.78694 53.67628-38.7218 53.33307-38.65666 52.98987-38.5522 52.44077-38.48706 52.09924-38.42192 51.75769-38.31744 51.21133-38.2523 50.87148-38.18716 50.53165-38.08269 49.988-38.01756 49.64984-37.95242 49.31168-37.84793 48.77074-37.7828 48.43427-37.71767 48.09781-37.61319 47.55959-37.54805 47.22481-37.4829 46.89003-37.37843 46.35452-37.3133 46.02141-37.24815 45.68831-37.14369 45.1554-37.07855 44.82399-37.0134 44.49257-36.90892 43.96251-36.84378 43.63278-36.77866 43.30305-36.67418 42.77556-36.60904 42.44754-36.54388 42.11949-36.43942 41.59485-36.37428 41.26851-36.30914 40.94215-36.20468 40.42012-36.13953 40.09544-36.07439 39.77077-35.96992 39.25145-35.90479 38.92845-35.83965 38.60548-35.73517 38.08887-35.67001 37.76758-35.60489 37.44627-35.50041 36.93237-35.43527 36.61278-35.37013 36.29317-35.26567 35.782-35.20052 35.46407-35.13538 35.14613-35.03091 34.63754-34.96577 34.3213-34.90063 34.00507-34.79616 33.49933-34.731 33.18478-34.66586 32.87022-34.5614 32.36707-34.49626 32.0542-34.43112 31.74135-34.32664 31.24103-34.2615 30.92986-34.19637 30.61868-34.0919 30.12097-34.02676 29.81146-33.96162 29.50195-33.85713 29.00696-33.792 28.69916-33.72687 28.39134-33.62239 27.89906-33.55725 27.59294-33.49211 27.28682-33.38763 26.79726-33.3225 26.49281-33.25735 26.18839-33.1529 25.70154-33.08775 25.39877-33.02261 25.09602-32.91814 24.61177-32.853 24.3107-32.78786 24.00961-32.68338 23.52823-32.61826 23.22884-32.55312 22.92946-32.44862 22.45064-32.38348 22.15294-32.31834 21.85526-32.21388 21.37926-32.14874 21.08327-32.0836 20.78726-31.97913 20.31387-31.91399 20.01955-31.84885 19.72522-31.74437 19.25456-31.67923 18.96191-31.6141 18.66927-31.50961 18.20132-31.44447 17.91037-31.37935 17.61942-31.27487 17.15417-31.20973 16.86491-31.14459 16.57565-31.04012 16.11314-30.97498 15.82556-30.90984 15.53796-30.80537 15.07805-30.74023 14.79216-30.6751 14.50626-30.5706 14.04918-30.50546 13.76497-30.44032 13.48076-30.33586 13.02626-30.27072 12.74373-30.20558 12.46123-30.1011 12.00957-30.03596 11.72874-29.97083 11.4479-29.86636 10.99886-29.80122 10.7197-29.73608 10.44054-29.6316 9.99422-29.56647 9.71674-29.50133 9.43927-29.39685 8.99564-29.33171 8.71986-29.26657 8.44409-29.1621 8.00317-29.09695 7.7291-29.03181 7.45502-28.92735 7.01682-28.86221 6.74442-28.79707 6.472-28.69258 6.03654-28.62746 5.76581-28.56232 5.49509-28.45784 5.06221-28.3927 4.79318-28.32756 4.52412-28.22308 4.0941-28.15794 3.82675-28.0928 3.5594-27.98834 3.13196-27.9232 2.86629-27.85806 2.60062-27.75359 2.1759-27.68845 1.91191-27.6233 1.64793-27.51883 1.2259-27.45369 .96362-27.38857 .70135-27.21893 .02158-27.21893 .02158"/>
<path transform="matrix(-.1743087,-.98467978,-.9847092,.17430349,23.670228,21.39814)" d="M1.51433 0C-.37857 .37857-2.27148 1.13573-4.54298 2.46077-2.27148 .75716-2.27148-.75716-4.54298-2.46077-2.27148-1.13573-.37857-.37857 1.51433 0Z" fill="#0000ff"/>
<path transform="matrix(-.1743087,-.98467978,-.9847092,.17430349,23.670228,21.39814)" stroke-width="1.59404" stroke-linecap="butt" stroke-linejoin="round" fill="none" stroke="#0000ff" d="M1.51433 0C-.37857 .37857-2.27148 1.13573-4.54298 2.46077-2.27148 .75716-2.27148-.75716-4.54298-2.46077-2.27148-1.13573-.37857-.37857 1.51433 0Z"/>
<path transform="matrix(1.00005,0,0,-1.00002,65.51253,91.69258)" stroke-width="1.59404" stroke-linecap="butt" stroke-miterlimit="10" stroke-linejoin="miter" fill="none" stroke="#0000ff" d="M45.35591 0C45.35591 0 45.52553 .67966 45.59067 .9419 45.6558 1.20415 45.76028 1.62608 45.82541 1.89005 45.89055 2.15399 45.99504 2.57864 46.06018 2.84428 46.12532 3.10992 46.22978 3.5373 46.29492 3.80461 46.36006 4.07191 46.46454 4.50188 46.52968 4.77089 46.59482 5.03989 46.6993 5.4727 46.76443 5.7434 46.82956 6.01408 46.93405 6.44948 46.99918 6.72185 47.06432 6.99422 47.1688 7.43234 47.23393 7.70639 47.29907 7.98044 47.40355 8.4213 47.46869 8.69702 47.53383 8.97278 47.63829 9.41632 47.70343 9.69376 47.76857 9.97119 47.87306 10.41747 47.9382 10.69658 48.00333 10.9757 48.1078 11.42468 48.17294 11.70549 48.23808 11.98628 48.34256 12.43787 48.4077 12.72035 48.47284 13.00284 48.5773 13.45728 48.64244 13.74144 48.70758 14.0256 48.81206 14.48264 48.8772 14.7685 48.94234 15.05435 49.04681 15.5142 49.11195 15.80174 49.17708 16.08931 49.28157 16.55176 49.34671 16.84097 49.41185 17.1302 49.51631 17.59537 49.58145 17.88629 49.64659 18.1772 49.75108 18.64508 49.81621 18.93768 49.88135 19.2303 49.98582 19.70091 50.05096 19.99518 50.1161 20.28944 50.22058 20.76266 50.28572 21.05862 50.35086 21.3546 50.45532 21.83063 50.52046 22.1283 50.5856 22.42598 50.69008 22.90472 50.75522 23.20407 50.82036 23.5034 50.92484 23.98476 50.98996 24.28578 51.0551 24.58679 51.15959 25.07086 51.22473 25.37358 51.28987 25.67632 51.39433 26.16321 51.45947 26.46762 51.52463 26.77205 51.62909 27.26154 51.69423 27.56761 51.75937 27.8737 51.86383 28.3659 51.92897 28.67369 51.99413 28.98146 52.0986 29.4764 52.16374 29.78586 52.22887 30.0953 52.33334 30.59283 52.39848 30.90398 52.46364 31.21512 52.5681 31.71547 52.63324 32.02832 52.69838 32.34117 52.80284 32.84425 52.868 33.15877 52.93314 33.47327 53.03761 33.97896 53.10275 34.29515 53.1679 34.61134 53.27235 35.11974 53.33751 35.43762 53.40265 35.75554 53.50711 36.26675 53.57225 36.58633 53.63739 36.90593 53.74185 37.41974 53.807 37.741 53.87215 38.06226 53.97661 38.5788 54.04175 38.90175 54.10689 39.2247 54.21136 39.74397 54.27652 40.06859 54.34166 40.3932 54.44612 40.91507 54.51126 41.24138 54.5764 41.56769 54.68088 42.09239 54.74602 42.4204 54.81116 42.74843 54.91562 43.27583 54.98076 43.60551 55.0459 43.9352 55.15039 44.46521 55.21552 44.79657 55.28065 45.12793 55.38513 45.66068 55.45027 45.99373 55.51541 46.32681 55.61989 46.86235 55.68503 47.19711 55.75017 47.53188 55.85463 48.07004 55.91977 48.40645 55.98491 48.74289 56.0894 49.28375 56.15454 49.62189 56.21967 49.96 56.32414 50.50359 56.38928 50.84338 56.45442 51.1832 56.5589 51.7295 56.62404 52.071 56.68918 52.41248 56.79364 52.9614 56.85878 53.30457 56.92392 53.64774 57.0284 54.19948 57.09354 54.54434 57.15868 54.88919 57.26315 55.44353 57.3283 55.79008 57.39342 56.13663 57.49791 56.69382 57.56305 57.04204 57.62819 57.39029 57.73265 57.95006 57.79779 58.29996 57.86293 58.64987 57.9674 59.21237 58.03255 59.56398 58.09769 59.91557 58.20215 60.48077 58.26729 60.83408 58.33243 61.18736 58.43692 61.75528 58.50206 62.11026 58.5672 62.46524 58.67166 63.03586 58.7368 63.39255 58.80194 63.74922 58.90642 64.32257 58.97156 64.68091 59.0367 65.03926 59.14117 65.6152 59.2063 65.97522 59.27144 66.33525 59.37593 66.91405 59.44107 67.27579 59.50621 67.6375 59.61067 68.2189 59.67581 68.58229 59.74095 68.94568 59.84543 69.5298 59.91057 69.89487 59.97571 70.25995 60.08017 70.84676 60.14531 71.21355 60.21045 71.58035 60.38007 72.53847 59.97726 70.26253"/>
<path transform="matrix(.1742787,-.9846997,-.9847292,-.17427349,125.49278,21.428666)" d="M1.51433 0C-.37857 .37857-2.27148 1.13573-4.54298 2.46077-2.27148 .75716-2.27148-.75716-4.54298-2.46077-2.27148-1.13573-.37857-.37857 1.51433 0Z" fill="#0000ff"/>
<path transform="matrix(.1742787,-.9846997,-.9847292,-.17427349,125.49278,21.428666)" stroke-width="1.59404" stroke-linecap="butt" stroke-linejoin="round" fill="none" stroke="#0000ff" d="M1.51433 0C-.37857 .37857-2.27148 1.13573-4.54298 2.46077-2.27148 .75716-2.27148-.75716-4.54298-2.46077-2.27148-1.13573-.37857-.37857 1.51433 0Z"/>
<path transform="matrix(1.00005,0,0,-1.00002,65.51253,91.69258)" d="M-24.94576 0C-24.94576 1.25247-25.96106 2.26778-27.21355 2.26778-28.46602 2.26778-29.48132 1.25247-29.48132 0-29.48132-1.25247-28.46602-2.26778-27.21355-2.26778-25.96106-2.26778-24.94576-1.25247-24.94576 0ZM-27.21355 0" fill="#0000ff"/>
<path transform="matrix(1.00005,0,0,-1.00002,65.51253,91.69258)" stroke-width=".3985" stroke-linecap="butt" stroke-miterlimit="10" stroke-linejoin="miter" fill="none" stroke="#0000ff" d="M-24.94576 0C-24.94576 1.25247-25.96106 2.26778-27.21355 2.26778-28.46602 2.26778-29.48132 1.25247-29.48132 0-29.48132-1.25247-28.46602-2.26778-27.21355-2.26778-25.96106-2.26778-24.94576-1.25247-24.94576 0ZM-27.21355 0"/>
<path transform="matrix(1.00005,0,0,-1.00002,65.51253,91.69258)" d="M47.6237 0C47.6237 1.25247 46.6084 2.26778 45.35591 2.26778 44.10344 2.26778 43.08813 1.25247 43.08813 0 43.08813-1.25247 44.10344-2.26778 45.35591-2.26778 46.6084-2.26778 47.6237-1.25247 47.6237 0ZM45.35591 0" fill="#0000ff"/>
<path transform="matrix(1.00005,0,0,-1.00002,65.51253,91.69258)" stroke-width=".3985" stroke-linecap="butt" stroke-miterlimit="10" stroke-linejoin="miter" fill="none" stroke="#0000ff" d="M47.6237 0C47.6237 1.25247 46.6084 2.26778 45.35591 2.26778 44.10344 2.26778 43.08813 1.25247 43.08813 0 43.08813-1.25247 44.10344-2.26778 45.35591-2.26778 46.6084-2.26778 47.6237-1.25247 47.6237 0ZM45.35591 0"/>
<path transform="matrix(1.00005,0,0,-1.00002,65.51253,91.69258)" stroke-width="1.59404" stroke-linecap="butt" stroke-miterlimit="10" stroke-linejoin="miter" fill="none" stroke="#0000ff" d="M-27.21355 0H-61.18694"/>
<path transform="matrix(-1.00005,-0,0,1.00002,4.3225328,91.69258)" d="M1.51433 0C-.37857 .37857-2.27148 1.13573-4.54298 2.46077-2.27148 .75716-2.27148-.75716-4.54298-2.46077-2.27148-1.13573-.37857-.37857 1.51433 0Z" fill="#0000ff"/>
<path transform="matrix(-1.00005,-0,0,1.00002,4.3225328,91.69258)" stroke-width="1.59404" stroke-linecap="butt" stroke-linejoin="round" fill="none" stroke="#0000ff" d="M1.51433 0C-.37857 .37857-2.27148 1.13573-4.54298 2.46077-2.27148 .75716-2.27148-.75716-4.54298-2.46077-2.27148-1.13573-.37857-.37857 1.51433 0Z"/>
<path transform="matrix(1.00005,0,0,-1.00002,65.51253,91.69258)" stroke-width="1.59404" stroke-linecap="butt" stroke-miterlimit="10" stroke-linejoin="miter" fill="none" stroke="#0000ff" d="M45.35591 0H79.32932"/>
<path transform="matrix(1.00005,0,0,-1.00002,144.84581,91.69258)" d="M1.51433 0C-.37857 .37857-2.27148 1.13573-4.54298 2.46077-2.27148 .75716-2.27148-.75716-4.54298-2.46077-2.27148-1.13573-.37857-.37857 1.51433 0Z" fill="#0000ff"/>
<path transform="matrix(1.00005,0,0,-1.00002,144.84581,91.69258)" stroke-width="1.59404" stroke-linecap="butt" stroke-linejoin="round" fill="none" stroke="#0000ff" d="M1.51433 0C-.37857 .37857-2.27148 1.13573-4.54298 2.46077-2.27148 .75716-2.27148-.75716-4.54298-2.46077-2.27148-1.13573-.37857-.37857 1.51433 0Z"/>
</svg>
