<svg xmlns="http://www.w3.org/2000/svg" xmlns:xlink="http://www.w3.org/1999/xlink" version="1.1" width="110" height="182" viewBox="0 0 110 182">
<defs>
<path id="font_1_1" d="M.33399964 .30233766C.33999635 .32835389 .36299134 .42037965 .43299867 .42037965 .43798829 .42037965 .46199037 .42037965 .48298646 .40734864 .45498658 .402359 .43499757 .37734986 .43499757 .35334779 .43499757 .33735658 .44599916 .31835938 .47299195 .31835938 .49499513 .31835938 .5269928 .3363495 .5269928 .37635804 .5269928 .42837525 .46798707 .4423828 .43399049 .4423828 .37599183 .4423828 .34098817 .38935853 .32899476 .36634828 .3039856 .43237306 .25 .4423828 .22099304 .4423828 .116989139 .4423828 .05999756 .3133545 .05999756 .28834535 .05999756 .27833558 .069992069 .27833558 .07199097 .27833558 .07998657 .27833558 .08299255 .28033448 .084991458 .28933717 .11898804 .39535523 .18499756 .42037965 .21899414 .42037965 .23799134 .42037965 .272995 .4113617 .272995 .35334779 .272995 .32235719 .2559967 .25532533 .21899414 .11528015 .20298767 .053268434 .16799927 .011245728 .12399292 .011245728 .117996219 .011245728 .09498596 .011245728 .07398987 .024276734 .09899902 .029266358 .12098694 .05027771 .12098694 .07827759 .12098694 .105270389 .09899902 .11328125 .083999637 .11328125 .053985597 .11328125 .0289917 .08728027 .0289917 .055267335 .0289917 .009246826 .07899475-.0107421879 .12298584-.0107421879 .18899536-.0107421879 .22499085 .059280397 .22799683 .0652771 .23999024 .028274537 .27598573-.0107421879 .33599855-.0107421879 .43899537-.0107421879 .49598695 .118270877 .49598695 .14328003 .49598695 .1532898 .4869995 .1532898 .48399354 .1532898 .47499085 .1532898 .47299195 .14929199 .47099305 .14228821 .43798829 .03527832 .36999513 .011245728 .33799745 .011245728 .29899598 .011245728 .2829895 .043273927 .2829895 .07727051 .2829895 .09927368 .2889862 .121276859 .2999878 .16529846L.33399964 .30233766Z"/>
<path id="font_1_2" d="M.48599244 .38136292C.48999024 .39537049 .48999024 .39736939 .48999024 .40437318 .48999024 .42237855 .47599793 .43138124 .46099855 .43138124 .45098878 .43138124 .43499757 .42536927 .42599488 .41036988 .42399598 .405365 .41600038 .37435914 .4119873 .35635377 .40499879 .33035279 .397995 .30334474 .3919983 .27633668L.34700013 .09628296C.34298707 .08126831 .2999878 .011245728 .23399353 .011245728 .18299866 .011245728 .17199707 .055267335 .17199707 .0922699 .17199707 .1382904 .18899536 .20030213 .22299195 .28833009 .23899842 .3293457 .24299622 .3403473 .24299622 .36035157 .24299622 .405365 .21099854 .4423828 .16099549 .4423828 .06599426 .4423828 .0289917 .29733277 .0289917 .28833009 .0289917 .27833558 .038986207 .27833558 .040985109 .27833558 .050994874 .27833558 .051986696 .28033448 .056991579 .29634095 .083999637 .3903656 .12399292 .42037965 .1579895 .42037965 .1659851 .42037965 .18299866 .42037965 .18299866 .3883667 .18299866 .36335755 .17298889 .3373413 .1659851 .31834413 .12599182 .21231079 .10798645 .1552887 .10798645 .10827637 .10798645 .019256592 .17098999-.0107421879 .22999573-.0107421879 .2689972-.0107421879 .30299378 .0062561037 .33099366 .03425598 .31799317-.017745972 .30599977-.06674194 .2659912-.11973572 .23999024-.15385437 .20199585-.18309021 .1559906-.18309021 .14199829-.18309021 .09700012-.18005371 .07998657-.14074707 .09599304-.14074707 .10899353-.14074707 .12298584-.1287384 .1329956-.11973572 .14299011-.10673523 .14299011-.08773804 .14299011-.056747438 .115997318-.052734376 .10598755-.052734376 .08299255-.052734376 .049987794-.068740848 .049987794-.11773682 .049987794-.16796875 .09399414-.20507813 .1559906-.20507813 .25898744-.20507813 .3619995-.11373901 .3899994-.00074768069L.48599244 .38136292Z"/>
<path id="font_2_1" d="M.6589966 .23046875C.6759949 .23046875 .69400027 .23046875 .69400027 .25045777 .69400027 .27046205 .6759949 .27046205 .6589966 .27046205H.117996219C.100997928 .27046205 .08299255 .27046205 .08299255 .25045777 .08299255 .23046875 .100997928 .23046875 .117996219 .23046875H.6589966Z"/>
<path id="font_3_1" d="M.1269989 .07699585 .23298645 .18003845C.3889923 .31811524 .44898988 .3721466 .44898988 .47216798 .44898988 .5860901 .35899354 .6660156 .23699951 .6660156 .12399292 .6660156 .049987794 .57411196 .049987794 .48516847 .049987794 .4291687 .099990848 .4291687 .102996829 .4291687 .11999512 .4291687 .15499878 .44117738 .15499878 .48217774 .15499878 .5081787 .13699341 .5341797 .101989749 .5341797 .09399414 .5341797 .09199524 .5341797 .08898926 .5331726 .11199951 .59806826 .1659851 .63500979 .22399903 .63500979 .31498719 .63500979 .35798646 .5541382 .35798646 .47216798 .35798646 .39215089 .30799867 .31311036 .25299073 .25108338L.06098938 .036987306C.049987794 .025985718 .049987794 .023986817 .049987794 0H.42099L.44898988 .17404175H.42399598C.4189911 .14402771 .4119873 .1000061 .4019928 .084991458 .394989 .07699585 .32899476 .07699585 .30699159 .07699585H.1269989Z"/>
<path id="font_3_2" d="M.2939911 .16503906V.07800293C.2939911 .041992189 .2919922 .0309906 .21798706 .0309906H.19699097V0C.23799134 .0029907227 .2899933 .0029907227 .33198548 .0029907227 .37399293 .0029907227 .4269867 .0029907227 .46798707 0V.0309906H.44699098C.37298585 .0309906 .37098695 .041992189 .37098695 .07800293V.16503906H.47099305V.19602967H.37098695V.65075686C.37098695 .67074587 .37098695 .6767578 .35499574 .6767578 .34599305 .6767578 .34298707 .6767578 .33499146 .66474917L.027999878 .19602967V.16503906H.2939911M.2999878 .19602967H.055999757L.2999878 .5688019V.19602967Z"/>
<path id="font_4_85" d="M.33099366-.2400055C.33099366-.23701477 .33099366-.23500061 .31399537-.21800232 .18899536-.0920105 .15699768 .09700012 .15699768 .25 .15699768 .42399598 .19499207 .59799197 .31799317 .72299197 .33099366 .7350006 .33099366 .7369995 .33099366 .73999026 .33099366 .746994 .32699586 .75 .32099916 .75 .31098939 .75 .22099304 .6819916 .1619873 .5549927 .11099243 .44499208 .09899902 .33399964 .09899902 .25 .09899902 .17199707 .10998535 .050994874 .16499329-.06201172 .22499085-.18501282 .31098939-.25 .32099916-.25 .32699586-.25 .33099366-.24700928 .33099366-.2400055Z"/>
<path id="font_4_50" d="M.4149933 .11933899C.4149933 .12934876 .40699769 .13134766 .4019928 .13134766 .3929901 .13134766 .3909912 .12535095 .3889923 .11734009 .35398866 .014251709 .2639923 .014251709 .2539978 .014251709 .20399475 .014251709 .1639862 .044281007 .14099121 .08131409 .11099243 .12934876 .11099243 .19540406 .11099243 .23144531H.3899994C.4119873 .23144531 .4149933 .23144531 .4149933 .2524414 .4149933 .35131837 .36099244 .4482422 .23599243 .4482422 .11999512 .4482422 .027999878 .34532167 .027999878 .22042847 .027999878 .08631897 .1329956-.0107421879 .24798584-.0107421879 .36999513-.0107421879 .4149933 .10032654 .4149933 .11933899M.34899903 .2524414H.11199951C.117996219 .40126039 .20199585 .426239 .23599243 .426239 .33898927 .426239 .34899903 .2913971 .34899903 .2524414Z"/>
<path id="font_4_86" d="M.2889862 .25C.2889862 .32798768 .27799989 .44898988 .22299195 .56199648 .16299439 .68499758 .07699585 .75 .066986087 .75 .06098938 .75 .056991579 .74598696 .056991579 .73999026 .056991579 .7369995 .056991579 .7350006 .07598877 .71699526 .17399597 .6179962 .23098755 .45899964 .23098755 .25 .23098755 .07899475 .19400025-.09700012 .069992069-.2230072 .056991579-.23500061 .056991579-.23701477 .056991579-.2400055 .056991579-.2460022 .06098938-.25 .066986087-.25 .07699585-.25 .16699219-.18200684 .22599793-.055007936 .2769928 .054992677 .2889862 .16600037 .2889862 .25Z"/>
</defs>
<path transform="matrix(1.00003,0,0,-1.00003,47.16797,124.123348)" stroke-width=".3985" stroke-linecap="butt" stroke-miterlimit="10" stroke-linejoin="miter" fill="none" stroke="#00aeef" d="M-45.35419-34.0165H45.35419M-45.35419 0H45.35419M-45.35419 34.0165H45.35419M-45.35419 68.03302H45.35419M-45.35419 102.04356H45.35419M-45.35419-34.0165V102.04953M-22.6771-34.0165V102.04953M0-34.0165V102.04953M22.6771-34.0165V102.04953M45.3502-34.0165V102.04953M45.35419 102.04953"/>
<path transform="matrix(1.00003,0,0,-1.00003,47.16797,124.123348)" stroke-width=".79701" stroke-linecap="butt" stroke-miterlimit="10" stroke-linejoin="miter" fill="none" stroke="#000000" d="M-45.35419 0H50.72278"/>
<path transform="matrix(1.00003,0,0,-1.00003,97.89227,124.123348)" d="M1.0361 0C-.25902 .25902-1.55415 .77707-3.1083 1.68365-1.55415 .51805-1.55415-.51805-3.1083-1.68365-1.55415-.77707-.25902-.25902 1.0361 0Z"/>
<path transform="matrix(1.00003,0,0,-1.00003,97.89227,124.123348)" stroke-width=".79701" stroke-linecap="butt" stroke-linejoin="round" fill="none" stroke="#000000" d="M1.0361 0C-.25902 .25902-1.55415 .77707-3.1083 1.68365-1.55415 .51805-1.55415-.51805-3.1083-1.68365-1.55415-.77707-.25902-.25902 1.0361 0Z"/>
<use data-text="x" xlink:href="#font_1_1" transform="matrix(9.962899,0,0,-9.962899,103.04565,126.26841)"/>
<path transform="matrix(1.00003,0,0,-1.00003,47.16797,124.123348)" stroke-width=".79701" stroke-linecap="butt" stroke-miterlimit="10" stroke-linejoin="miter" fill="none" stroke="#000000" d="M0-34.0165V110.81998"/>
<path transform="matrix(0,-1.00003,-1.00003,-0,47.16797,13.300041)" d="M1.0361 0C-.25902 .25902-1.55415 .77707-3.1083 1.68365-1.55415 .51805-1.55415-.51805-3.1083-1.68365-1.55415-.77707-.25902-.25902 1.0361 0Z"/>
<path transform="matrix(0,-1.00003,-1.00003,-0,47.16797,13.300041)" stroke-width=".79701" stroke-linecap="butt" stroke-linejoin="round" fill="none" stroke="#000000" d="M1.0361 0C-.25902 .25902-1.55415 .77707-3.1083 1.68365-1.55415 .51805-1.55415-.51805-3.1083-1.68365-1.55415-.77707-.25902-.25902 1.0361 0Z"/>
<use data-text="y" xlink:href="#font_1_2" transform="matrix(9.962899,0,0,-9.962899,44.54689,6.2088015)"/>
<path transform="matrix(1.00003,0,0,-1.00003,47.16797,124.123348)" stroke-width=".3985" stroke-linecap="butt" stroke-miterlimit="10" stroke-linejoin="miter" fill="none" stroke="#000000" d="M-22.6771 1.70091V-1.70065"/>
<path transform="matrix(1.00003,0,0,-1.00003,47.16797,124.123348)" d="M-30.03848-13.13568H-15.315701V-3.8924504H-30.03848Z" fill="#ffffff"/>
<use data-text="&#x2212;" xlink:href="#font_2_1" transform="matrix(9.962899,0,0,-9.962899,18.1251,135.43268)"/>
<use data-text="2" xlink:href="#font_3_1" transform="matrix(9.962899,0,0,-9.962899,25.87333,135.43268)"/>
<path transform="matrix(1.00003,0,0,-1.00003,47.16797,124.123348)" stroke-width=".3985" stroke-linecap="butt" stroke-miterlimit="10" stroke-linejoin="miter" fill="none" stroke="#000000" d="M22.6771 1.70091V-1.70065"/>
<path transform="matrix(1.00003,0,0,-1.00003,47.16797,124.123348)" d="M19.19012-12.30545H26.16406V-3.8924704H19.19012Z" fill="#ffffff"/>
<use data-text="2" xlink:href="#font_3_1" transform="matrix(9.962899,0,0,-9.962899,67.354579,135.43268)"/>
<path transform="matrix(1.00003,0,0,-1.00003,47.16797,124.123348)" stroke-width=".3985" stroke-linecap="butt" stroke-miterlimit="10" stroke-linejoin="miter" fill="none" stroke="#000000" d="M1.13391 68.03302H-1.13374"/>
<path transform="matrix(1.00003,0,0,-1.00003,47.16797,124.123348)" d="M-10.29948 63.82654H-3.3255406V72.239528H-10.29948Z" fill="#ffffff"/>
<use data-text="4" xlink:href="#font_3_2" transform="matrix(9.962899,0,0,-9.962899,37.864686,59.2984)"/>
<path transform="matrix(1.00003,0,0,-1.00003,47.16797,124.123348)" stroke-width="1.19553" stroke-linecap="butt" stroke-miterlimit="10" stroke-linejoin="miter" fill="none" stroke="#ff0000" d="M0 34.0165C0 34.0165 .512 39.58653 .70865 40.76675 .90529 41.94696 1.22066 42.10724 1.4173 42.5227 1.61394 42.93817 1.9293 43.45454 2.12596 43.76115 2.32262 44.06778 2.63795 44.48285 2.83461 44.73256 3.03127 44.98228 3.34663 45.34572 3.54329 45.56097 3.73994 45.77621 4.05528 46.094 4.25194 46.284 4.4486 46.47401 4.76396 46.75912 4.9606 46.9305 5.15724 47.10185 5.47261 47.36235 5.66925 47.51909 5.8659 47.67583 6.18127 47.91551 6.3779 48.0602 6.57455 48.2049 6.88992 48.42708 7.08658 48.56186 7.28323 48.69664 7.59859 48.90532 7.79523 49.0316 7.99188 49.15787 8.30725 49.35283 8.5039 49.47202 8.70055 49.5912 9.0159 49.77757 9.21255 49.89064 9.4092 50.0037 9.72456 50.1795 9.92122 50.28693 10.11787 50.39433 10.43321 50.56242 10.62987 50.6648 10.82652 50.76717 11.14189 50.92671 11.33855 51.02477 11.53519 51.1228 11.85054 51.27707 12.0472 51.37148 12.24384 51.4659 12.5592 51.61429 12.75584 51.70523 12.9525 51.79619 13.26787 51.9393 13.46451 52.02704 13.66116 52.11479 13.97652 52.2529 14.17316 52.33769 14.36981 52.4225 14.68518 52.55627 14.88184 52.63823 15.07849 52.72018 15.39383 52.8489 15.59048 52.92838 15.78714 53.00783 16.10251 53.13374 16.29916 53.21098 16.49579 53.28824 16.81116 53.41002 17.00781 53.48506 17.20445 53.5601 17.51982 53.67883 17.71648 53.75185 17.91312 53.82487 18.22847 53.94023 18.42513 54.01137 18.62178 54.08252 18.93713 54.19533 19.13377 54.26466 19.33043 54.33401 19.6458 54.44362 19.84245 54.51123 20.03911 54.57883 20.35445 54.68594 20.5511 54.75206 20.74776 54.81818 21.06313 54.92311 21.25977 54.9877 21.45642 55.05232 21.77177 55.15436 21.96841 55.21765 22.16507 55.28096 22.48044 55.38182 22.6771 55.44397 22.87373 55.50609 23.1891 55.60481 23.38574 55.66559 23.58238 55.72635 23.89775 55.82259 24.09439 55.88203 24.29105 55.94148 24.60641 56.03574 24.80307 56.09406 24.99971 56.15239 25.31508 56.24513 25.51172 56.30246 25.70836 56.35977 26.02373 56.45103 26.22038 56.50723 26.41704 56.56343 26.73238 56.65239 26.92903 56.70758 27.12569 56.76279 27.44106 56.85075 27.63771 56.90509 27.83437 56.95941 28.1497 57.0458 28.34636 57.0992 28.543 57.1526 28.85837 57.23746 29.05502 57.28996 29.25166 57.34245 29.56703 57.426 29.76367 57.47762 29.96033 57.5292 30.2757 57.61098 30.47234 57.66185 30.66898 57.71274 30.98434 57.79414 31.181 57.84431 31.37766 57.89445 31.69301 57.97409 31.88965 58.02339 32.0863 58.07268 32.40167 58.15103 32.59833 58.1996 32.79497 58.24817 33.11032 58.32549 33.30698 58.37347 33.50362 58.42146 33.81898 58.49825 34.01564 58.54555 34.2123 58.59285 34.52765 58.66794 34.72429 58.7145 34.92094 58.76105 35.23631 58.83516 35.43295 58.88112 35.6296 58.92706 35.94496 59.00029 36.14162 59.04565 36.33827 59.09102 36.65363 59.16328 36.85027 59.20811 37.04692 59.25294 37.36229 59.32451 37.55893 59.36876 37.75558 59.41301 38.07094 59.48343 38.26758 59.52708 38.46423 59.57071 38.7796 59.6402 38.97626 59.68329 39.17291 59.7264 39.48827 59.79501 39.6849 59.83774 39.88155 59.88043 40.19691 59.94893 40.39357 59.9911 40.59021 60.03326 40.90558 60.10004 41.10223 60.14163 41.29887 60.18321 41.61424 60.24977 41.8109 60.29086 42.00754 60.33192 42.32289 60.39714 42.51955 60.43776 42.7162 60.47838 43.03157 60.54335 43.2282 60.5836 43.42485 60.62386 43.74022 60.68814 43.93687 60.7279 44.13353 60.76765 44.44887 60.8304 44.64552 60.87012 44.84218 60.90984 45.35419 61.01414 43.51901 60.64026"/>
<path transform="matrix(.97983947,-.199636,-.199636,-.97983947,90.68828,63.48128)" d="M1.27522 0C-.31879 .31879-1.91284 .9564-3.8257 2.07224-1.91284 .6376-1.91284-.6376-3.8257-2.07224-1.91284-.9564-.31879-.31879 1.27522 0Z" fill="#ff0000"/>
<path transform="matrix(.97983947,-.199636,-.199636,-.97983947,90.68828,63.48128)" stroke-width="1.19553" stroke-linecap="butt" stroke-linejoin="round" fill="none" stroke="#ff0000" d="M1.27522 0C-.31879 .31879-1.91284 .9564-3.8257 2.07224-1.91284 .6376-1.91284-.6376-3.8257-2.07224-1.91284-.9564-.31879-.31879 1.27522 0Z"/>
<path transform="matrix(1.00003,0,0,-1.00003,47.16797,124.123348)" stroke-width="1.19553" stroke-linecap="butt" stroke-miterlimit="10" stroke-linejoin="miter" fill="none" stroke="#ff0000" d="M0 34.0165C0 34.0165-.512 28.44647-.70865 27.26625-.90529 26.08603-1.22066 25.92575-1.4173 25.5103-1.61394 25.09482-1.9293 24.57845-2.12596 24.27184-2.32262 23.96523-2.63795 23.55014-2.83461 23.30043-3.03127 23.05072-3.34663 22.68727-3.54329 22.47203-3.73994 22.25677-4.05528 21.939-4.25194 21.749-4.4486 21.55898-4.76396 21.27386-4.9606 21.10251-5.15724 20.93115-5.47261 20.67065-5.66925 20.5139-5.8659 20.35718-6.18127 20.11748-6.3779 19.9728-6.57455 19.82811-6.88992 19.60591-7.08658 19.47115-7.28323 19.33636-7.59859 19.12767-7.79523 19.0014-7.99188 18.87512-8.30725 18.68018-8.5039 18.56099-8.70055 18.44179-9.0159 18.25543-9.21255 18.14236-9.4092 18.02931-9.72456 17.85349-9.92122 17.74606-10.11787 17.63867-10.43321 17.47057-10.62987 17.3682-10.82652 17.26582-11.14189 17.1063-11.33855 17.00824-11.53519 16.9102-11.85054 16.75594-12.0472 16.66151-12.24384 16.56711-12.5592 16.41872-12.75584 16.32776-12.9525 16.2368-13.26787 16.0937-13.46451 16.00595-13.66116 15.91821-13.97652 15.78009-14.17316 15.69531-14.36981 15.6105-14.68518 15.47673-14.88184 15.39478-15.07849 15.31282-15.39383 15.1841-15.59048 15.10461-15.78714 15.02516-16.10251 14.89923-16.29916 14.82199-16.49579 14.74475-16.81116 14.62297-17.00781 14.54794-17.20445 14.4729-17.51982 14.35417-17.71648 14.28114-17.91312 14.20813-18.22847 14.09276-18.42513 14.0216-18.62178 13.95047-18.93713 13.83766-19.13377 13.76831-19.33043 13.69896-19.6458 13.58939-19.84245 13.52177-20.03911 13.45415-20.35445 13.34705-20.5511 13.28093-20.74776 13.21483-21.06313 13.10988-21.25977 13.04529-21.45642 12.98068-21.77177 12.87865-21.96841 12.81535-22.16507 12.75204-22.48044 12.65118-22.6771 12.58904-22.87373 12.5269-23.1891 12.42819-23.38574 12.36742-23.58238 12.30663-23.89775 12.2104-24.09439 12.15097-24.29105 12.09152-24.60641 11.99725-24.80307 11.93893-24.99971 11.8806-25.31508 11.78786-25.51172 11.73055-25.70836 11.67322-26.02373 11.58197-26.22038 11.52577-26.41704 11.46954-26.73238 11.3806-26.92903 11.32541-27.12569 11.27022-27.44106 11.18225-27.63771 11.12791-27.83437 11.07356-28.1497 10.9872-28.34636 10.93379-28.543 10.8804-28.85837 10.79553-29.05502 10.74303-29.25166 10.69054-29.56703 10.607-29.76367 10.55539-29.96033 10.5038-30.2757 10.42201-30.47234 10.37112-30.66898 10.32025-30.98434 10.23885-31.181 10.18869-31.37766 10.13852-31.69301 10.0589-31.88965 10.00961-32.0863 9.96033-32.40167 9.88197-32.59833 9.83339-32.79497 9.78482-33.11032 9.70752-33.30698 9.65953-33.50362 9.61153-33.81898 9.53476-34.01564 9.48744-34.2123 9.44012-34.52765 9.36507-34.72429 9.3185-34.92094 9.27196-35.23631 9.19783-35.43295 9.15189-35.6296 9.10594-35.94496 9.03271-36.14162 8.98734-36.33827 8.94199-36.65363 8.86972-36.85027 8.82489-37.04692 8.78006-37.36229 8.70848-37.55893 8.66425-37.75558 8.61998-38.07094 8.54956-38.26758 8.50592-38.46423 8.4623-38.7796 8.39279-38.97626 8.3497-39.17291 8.3066-39.48827 8.23798-39.6849 8.19527-39.88155 8.15257-40.19691 8.08406-40.39357 8.0419-40.59021 7.99974-40.90558 7.93295-41.10223 7.89137-41.29887 7.8498-41.61424 7.78322-41.8109 7.74214-42.00754 7.70105-42.32289 7.63586-42.51955 7.59525-42.7162 7.55463-43.03157 7.48965-43.2282 7.4494-43.42485 7.40915-43.74022 7.34485-43.93687 7.3051-44.13353 7.26535-44.44887 7.20259-44.64552 7.16287-44.84218 7.12317-45.35419 7.01884-43.51901 7.39275"/>
<path transform="matrix(-.97983947,.199636,.199636,.97983947,3.6476594,116.73036)" d="M1.27522 0C-.31879 .31879-1.91284 .9564-3.8257 2.07224-1.91284 .6376-1.91284-.6376-3.8257-2.07224-1.91284-.9564-.31879-.31879 1.27522 0Z" fill="#ff0000"/>
<path transform="matrix(-.97983947,.199636,.199636,.97983947,3.6476594,116.73036)" stroke-width="1.19553" stroke-linecap="butt" stroke-linejoin="round" fill="none" stroke="#ff0000" d="M1.27522 0C-.31879 .31879-1.91284 .9564-3.8257 2.07224-1.91284 .6376-1.91284-.6376-3.8257-2.07224-1.91284-.9564-.31879-.31879 1.27522 0Z"/>
<use data-text="(" xlink:href="#font_4_85" transform="matrix(9.962899,0,0,-9.962899,41.080789,177.63996)"/>
<use data-text="e" xlink:href="#font_4_50" transform="matrix(9.962899,0,0,-9.962899,44.956369,177.63996)"/>
<use data-text=")" xlink:href="#font_4_86" transform="matrix(9.962899,0,0,-9.962899,49.379907,177.63996)"/>
</svg>
