<svg xmlns="http://www.w3.org/2000/svg" xmlns:xlink="http://www.w3.org/1999/xlink" version="1.1" width="205" height="197" viewBox="0 0 205 197">
<defs>
<path id="font_1_1" d="M.33399964 .30233766C.33999635 .32835389 .36299134 .42037965 .43299867 .42037965 .43798829 .42037965 .46199037 .42037965 .48298646 .40734864 .45498658 .402359 .43499757 .37734986 .43499757 .35334779 .43499757 .33735658 .44599916 .31835938 .47299195 .31835938 .49499513 .31835938 .5269928 .3363495 .5269928 .37635804 .5269928 .42837525 .46798707 .4423828 .43399049 .4423828 .37599183 .4423828 .34098817 .38935853 .32899476 .36634828 .3039856 .43237306 .25 .4423828 .22099304 .4423828 .116989139 .4423828 .05999756 .3133545 .05999756 .28834535 .05999756 .27833558 .069992069 .27833558 .07199097 .27833558 .07998657 .27833558 .08299255 .28033448 .084991458 .28933717 .11898804 .39535523 .18499756 .42037965 .21899414 .42037965 .23799134 .42037965 .272995 .4113617 .272995 .35334779 .272995 .32235719 .2559967 .25532533 .21899414 .11528015 .20298767 .053268434 .16799927 .011245728 .12399292 .011245728 .117996219 .011245728 .09498596 .011245728 .07398987 .024276734 .09899902 .029266358 .12098694 .05027771 .12098694 .07827759 .12098694 .105270389 .09899902 .11328125 .083999637 .11328125 .053985597 .11328125 .0289917 .08728027 .0289917 .055267335 .0289917 .009246826 .07899475-.0107421879 .12298584-.0107421879 .18899536-.0107421879 .22499085 .059280397 .22799683 .0652771 .23999024 .028274537 .27598573-.0107421879 .33599855-.0107421879 .43899537-.0107421879 .49598695 .118270877 .49598695 .14328003 .49598695 .1532898 .4869995 .1532898 .48399354 .1532898 .47499085 .1532898 .47299195 .14929199 .47099305 .14228821 .43798829 .03527832 .36999513 .011245728 .33799745 .011245728 .29899598 .011245728 .2829895 .043273927 .2829895 .07727051 .2829895 .09927368 .2889862 .121276859 .2999878 .16529846L.33399964 .30233766Z"/>
<path id="font_1_2" d="M.48599244 .38136292C.48999024 .39537049 .48999024 .39736939 .48999024 .40437318 .48999024 .42237855 .47599793 .43138124 .46099855 .43138124 .45098878 .43138124 .43499757 .42536927 .42599488 .41036988 .42399598 .405365 .41600038 .37435914 .4119873 .35635377 .40499879 .33035279 .397995 .30334474 .3919983 .27633668L.34700013 .09628296C.34298707 .08126831 .2999878 .011245728 .23399353 .011245728 .18299866 .011245728 .17199707 .055267335 .17199707 .0922699 .17199707 .1382904 .18899536 .20030213 .22299195 .28833009 .23899842 .3293457 .24299622 .3403473 .24299622 .36035157 .24299622 .405365 .21099854 .4423828 .16099549 .4423828 .06599426 .4423828 .0289917 .29733277 .0289917 .28833009 .0289917 .27833558 .038986207 .27833558 .040985109 .27833558 .050994874 .27833558 .051986696 .28033448 .056991579 .29634095 .083999637 .3903656 .12399292 .42037965 .1579895 .42037965 .1659851 .42037965 .18299866 .42037965 .18299866 .3883667 .18299866 .36335755 .17298889 .3373413 .1659851 .31834413 .12599182 .21231079 .10798645 .1552887 .10798645 .10827637 .10798645 .019256592 .17098999-.0107421879 .22999573-.0107421879 .2689972-.0107421879 .30299378 .0062561037 .33099366 .03425598 .31799317-.017745972 .30599977-.06674194 .2659912-.11973572 .23999024-.15385437 .20199585-.18309021 .1559906-.18309021 .14199829-.18309021 .09700012-.18005371 .07998657-.14074707 .09599304-.14074707 .10899353-.14074707 .12298584-.1287384 .1329956-.11973572 .14299011-.10673523 .14299011-.08773804 .14299011-.056747438 .115997318-.052734376 .10598755-.052734376 .08299255-.052734376 .049987794-.068740848 .049987794-.11773682 .049987794-.16796875 .09399414-.20507813 .1559906-.20507813 .25898744-.20507813 .3619995-.11373901 .3899994-.00074768069L.48599244 .38136292Z"/>
<path id="font_2_1" d="M.6589966 .23046875C.6759949 .23046875 .69400027 .23046875 .69400027 .25045777 .69400027 .27046205 .6759949 .27046205 .6589966 .27046205H.117996219C.100997928 .27046205 .08299255 .27046205 .08299255 .25045777 .08299255 .23046875 .100997928 .23046875 .117996219 .23046875H.6589966Z"/>
<path id="font_3_4" d="M.44898988 .20022583C.44898988 .3193512 .36698915 .41944886 .25898744 .41944886 .21099854 .41944886 .16799927 .40345765 .13198853 .36842347V.5637665C.1519928 .5577698 .18499756 .55078127 .21699524 .55078127 .33999635 .55078127 .4099884 .6417694 .4099884 .6547699 .4099884 .6607666 .40699769 .6657715 .3999939 .6657715 .39898683 .6657715 .39698792 .6657715 .3919983 .66278079 .37199403 .6537781 .32299806 .6337738 .2559967 .6337738 .21598816 .6337738 .16999817 .6407776 .12298584 .6617737 .114990238 .66477969 .11299133 .66477969 .11099243 .66477969 .100997928 .66477969 .100997928 .6567688 .100997928 .6407776V.34439088C.100997928 .32637025 .100997928 .31835938 .114990238 .31835938 .12199402 .31835938 .12399292 .32136537 .12799073 .32736207 .13899231 .3433838 .17599488 .39746095 .25698854 .39746095 .30899049 .39746095 .33399964 .35139466 .34199525 .33337403 .35798646 .29632569 .3600006 .25727845 .3600006 .20722962 .3600006 .17222595 .3600006 .11222839 .33599855 .07035828 .31199647 .031463624 .2749939 .0055389406 .22898865 .0055389406 .1559906 .0055389406 .09899902 .058380128 .08198547 .11723328 .084991458 .1162262 .08799744 .115234378 .09899902 .115234378 .13198853 .115234378 .14898682 .14022827 .14898682 .16423035 .14898682 .18823242 .13198853 .21322632 .09899902 .21322632 .084991458 .21322632 .049987794 .20622254 .049987794 .16023255 .049987794 .07434082 .11898804-.022460938 .23098755-.022460938 .34700013-.022460938 .44898988 .073349 .44898988 .20022583Z"/>
<path id="font_4_1" d="M.5049896 .18203736H.47099305C.46798707 .16001892 .45799256 .100997928 .44499208 .09098816 .43699647 .084991458 .3600006 .084991458 .34599305 .084991458H.1619873C.2669983 .17803955 .3019867 .20603943 .3619995 .25306703 .43598939 .312088 .5049896 .374115 .5049896 .46914674 .5049896 .5900879 .39898683 .6640625 .2709961 .6640625 .14698792 .6640625 .06298828 .57710269 .06298828 .4851532 .06298828 .43414308 .10598755 .42915345 .115997318 .42915345 .13999939 .42915345 .16899109 .44615174 .16899109 .48214723 .16899109 .5001526 .1619873 .53515627 .10998535 .53515627 .14099121 .6060791 .20899964 .62805178 .2559967 .62805178 .35598756 .62805178 .4079895 .5501404 .4079895 .46914674 .4079895 .38212586 .34599305 .3130951 .31399537 .27708436L.07299805 .038986207C.06298828 .02999878 .06298828 .027999878 .06298828 0H.47499085L.5049896 .18203736Z"/>
<path id="font_3_5" d="M.68699648 .32714845C.70199587 .32714845 .72099307 .32714845 .72099307 .34713746 .72099307 .36714173 .70199587 .36714173 .6879883 .36714173H.08898926C.07499695 .36714173 .055999757 .36714173 .055999757 .34713746 .055999757 .32714845 .07499695 .32714845 .08999634 .32714845H.68699648M.6879883 .13284302C.70199587 .13284302 .72099307 .13284302 .72099307 .15284729 .72099307 .17285156 .70199587 .17285156 .68699648 .17285156H.08999634C.07499695 .17285156 .055999757 .17285156 .055999757 .15284729 .055999757 .13284302 .07499695 .13284302 .08898926 .13284302H.6879883Z"/>
<path id="font_3_1" d="M.45999146 .31976319C.45999146 .39982606 .45498658 .47988893 .41999818 .5539398 .37399293 .65000918 .2919922 .6660156 .25 .6660156 .18998719 .6660156 .116989139 .64001467 .07598877 .54693606 .04399109 .47789 .038986207 .39982606 .038986207 .31976319 .038986207 .24472046 .042999269 .15464783 .083999637 .07859802 .1269989-.0024719239 .19999695-.022460938 .24899292-.022460938 .30299378-.022460938 .3789978-.0014648438 .4229889 .09359741 .45498658 .16265869 .45999146 .2407074 .45999146 .31976319M.24899292-.00047302247C.20999146-.00047302247 .15098572 .024551392 .1329956 .12062073 .12199402 .18066406 .12199402 .2727356 .12199402 .3317871 .12199402 .39582826 .12199402 .46188355 .12998963 .5159149 .14898682 .63500979 .22399903 .64401248 .24899292 .64401248 .28199769 .64401248 .34799195 .6259918 .36698915 .52693179 .3769989 .47088624 .3769989 .39482118 .3769989 .3317871 .3769989 .25672914 .3769989 .18867493 .3659973 .12461853 .35099793 .029556275 .2939911-.00047302247 .24899292-.00047302247Z"/>
<path id="font_3_3" d="M.2939911 .16503906V.07800293C.2939911 .041992189 .2919922 .0309906 .21798706 .0309906H.19699097V0C.23799134 .0029907227 .2899933 .0029907227 .33198548 .0029907227 .37399293 .0029907227 .4269867 .0029907227 .46798707 0V.0309906H.44699098C.37298585 .0309906 .37098695 .041992189 .37098695 .07800293V.16503906H.47099305V.19602967H.37098695V.65075686C.37098695 .67074587 .37098695 .6767578 .35499574 .6767578 .34599305 .6767578 .34298707 .6767578 .33499146 .66474917L.027999878 .19602967V.16503906H.2939911M.2999878 .19602967H.055999757L.2999878 .5688019V.19602967Z"/>
<path id="font_3_2" d="M.2939911 .64004519C.2939911 .66400149 .2939911 .6660156 .2709961 .6660156 .20899964 .60227969 .12098694 .60227969 .08898926 .60227969V.57128909C.10899353 .57128909 .16799927 .57128909 .21998596 .5972748V.07902527C.21998596 .042999269 .21699524 .0309906 .1269989 .0309906H.09498596V0C.12998963 .0029907227 .21699524 .0029907227 .25698854 .0029907227 .29699708 .0029907227 .38398744 .0029907227 .4189911 0V.0309906H.3869934C.29699708 .0309906 .2939911 .041992189 .2939911 .07902527V.64004519Z"/>
</defs>
<path transform="matrix(1.00002,0,0,-1.00005,99.504718,107.1157)" stroke-width=".3985" stroke-linecap="butt" stroke-miterlimit="10" stroke-linejoin="miter" fill="none" stroke="#00aeef" d="M-85.04128-85.04128H85.04128M-85.04128-68.03302H85.04128M-85.04128-51.02477H85.04128M-85.04128-34.0165H85.04128M-85.04128-17.00824H85.04128M-85.04128 0H85.04128M-85.04128 17.00824H85.04128M-85.04128 34.0165H85.04128M-85.04128 51.02477H85.04128M-85.04128 68.03302H85.04128M-85.04128 85.0353H85.04128M-85.04128-85.04128V85.04128M-68.03302-85.04128V85.04128M-51.02477-85.04128V85.04128M-34.0165-85.04128V85.04128M-17.00824-85.04128V85.04128M0-85.04128V85.04128M17.00824-85.04128V85.04128M34.0165-85.04128V85.04128M51.02477-85.04128V85.04128M68.03302-85.04128V85.04128M85.0353-85.04128V85.04128M85.04128 85.04128"/>
<path transform="matrix(1.00002,0,0,-1.00005,99.504718,107.1157)" stroke-width=".79701" stroke-linecap="butt" stroke-miterlimit="10" stroke-linejoin="miter" fill="none" stroke="#000000" d="M-85.04128 0H93.81172"/>
<path transform="matrix(1.00002,0,0,-1.00005,193.31832,107.1157)" d="M1.0361 0C-.25902 .25902-1.55415 .77707-3.1083 1.68365-1.55415 .51805-1.55415-.51805-3.1083-1.68365-1.55415-.77707-.25902-.25902 1.0361 0Z"/>
<path transform="matrix(1.00002,0,0,-1.00005,193.31832,107.1157)" stroke-width=".79701" stroke-linecap="butt" stroke-linejoin="round" fill="none" stroke="#000000" d="M1.0361 0C-.25902 .25902-1.55415 .77707-3.1083 1.68365-1.55415 .51805-1.55415-.51805-3.1083-1.68365-1.55415-.77707-.25902-.25902 1.0361 0Z"/>
<use data-text="x" xlink:href="#font_1_1" transform="matrix(9.962799,0,0,-9.963098,198.4717,109.2608)"/>
<path transform="matrix(1.00002,0,0,-1.00005,99.504718,107.1157)" stroke-width=".79701" stroke-linecap="butt" stroke-miterlimit="10" stroke-linejoin="miter" fill="none" stroke="#000000" d="M0-85.04128V93.81172"/>
<path transform="matrix(0,-1.00005,-1.00002,-0,99.504718,13.2992939)" d="M1.0361 0C-.25902 .25902-1.55415 .77707-3.1083 1.68365-1.55415 .51805-1.55415-.51805-3.1083-1.68365-1.55415-.77707-.25902-.25902 1.0361 0Z"/>
<path transform="matrix(0,-1.00005,-1.00002,-0,99.504718,13.2992939)" stroke-width=".79701" stroke-linecap="butt" stroke-linejoin="round" fill="none" stroke="#000000" d="M1.0361 0C-.25902 .25902-1.55415 .77707-3.1083 1.68365-1.55415 .51805-1.55415-.51805-3.1083-1.68365-1.55415-.77707-.25902-.25902 1.0361 0Z"/>
<use data-text="y" xlink:href="#font_1_2" transform="matrix(9.962799,0,0,-9.963098,96.88366,6.207657)"/>
<path transform="matrix(1.00002,0,0,-1.00005,99.504718,107.1157)" stroke-width=".3985" stroke-linecap="butt" stroke-miterlimit="10" stroke-linejoin="miter" fill="none" stroke="#000000" d="M-85.04128 1.70091V-1.70065"/>
<path transform="matrix(1.00002,0,0,-1.00005,99.504718,107.1157)" d="M-92.40266-13.13568H-77.67988V-3.8924504H-92.40266Z" fill="#ffffff"/>
<use data-text="&#x2212;" xlink:href="#font_2_1" transform="matrix(9.962799,0,0,-9.963098,8.096893,118.42526)"/>
<use data-text="5" xlink:href="#font_3_4" transform="matrix(9.962799,0,0,-9.963098,15.846054,118.42526)"/>
<path transform="matrix(1.00002,0,0,-1.00005,99.504718,107.1157)" stroke-width=".3985" stroke-linecap="butt" stroke-miterlimit="10" stroke-linejoin="miter" fill="none" stroke="#000000" d="M85.04128 1.70091V-1.70065"/>
<path transform="matrix(1.00002,0,0,-1.00005,99.504718,107.1157)" d="M81.5543-12.30545H88.52824V-3.8924704H81.5543Z" fill="#ffffff"/>
<use data-text="5" xlink:href="#font_3_4" transform="matrix(9.962799,0,0,-9.963098,182.05738,118.42526)"/>
<path transform="matrix(1.00002,0,0,-1.00005,99.504718,107.1157)" stroke-width=".3985" stroke-linecap="butt" stroke-miterlimit="10" stroke-linejoin="miter" fill="none" stroke="#000000" d="M1.70091-85.04128H-1.70065"/>
<path transform="matrix(1.00002,0,0,-1.00005,99.504718,107.1157)" d="M-18.61523-89.66289H-3.8924504V-80.419658H-18.61523Z" fill="#ffffff"/>
<use data-text="&#x2212;" xlink:href="#font_2_1" transform="matrix(9.962799,0,0,-9.963098,81.88536,194.95609)"/>
<use data-text="5" xlink:href="#font_3_4" transform="matrix(9.962799,0,0,-9.963098,89.63452,194.95609)"/>
<path transform="matrix(1.00002,0,0,-1.00005,99.504718,107.1157)" stroke-width=".3985" stroke-linecap="butt" stroke-miterlimit="10" stroke-linejoin="miter" fill="none" stroke="#000000" d="M1.70091 85.04128H-1.70065"/>
<path transform="matrix(1.00002,0,0,-1.00005,99.504718,107.1157)" d="M-10.8664 80.83478H-3.8924599V89.24776H-10.8664Z" fill="#ffffff"/>
<use data-text="5" xlink:href="#font_3_4" transform="matrix(9.962799,0,0,-9.963098,89.63452,25.28061)"/>
<path transform="matrix(1.00002,0,0,-1.00005,99.504718,107.1157)" stroke-width=".79701" stroke-linecap="butt" stroke-miterlimit="10" stroke-linejoin="miter" fill="none" stroke="#00ff00" d="M-85.04128-85.04128 85.04128 85.04128"/>
<path transform="matrix(1.00002,0,0,-1.00005,99.504718,107.1157)" stroke-width=".79701" stroke-linecap="butt" stroke-miterlimit="10" stroke-linejoin="miter" fill="none" stroke="#00ff00" d="M-85.04128 85.04128 85.04128-85.04128"/>
<path transform="matrix(1.00002,0,0,-1.00005,99.504718,107.1157)" stroke-width="1.19553" stroke-linecap="butt" stroke-miterlimit="10" stroke-linejoin="miter" fill="none" stroke="#ff0000" d="M86.40613-79.42622C84.80339-77.6835 84.80339-77.6835 83.74156-76.52158 82.67975-75.35965 81.0261-73.54071 80.02101-72.4304 79.01595-71.32013 77.44882-69.58096 76.4977-68.51936 75.54655-67.45775 74.06468-65.79453 73.16591-64.77908 72.26714-63.76366 70.86896-62.17249 70.01994-61.20076 69.17094-60.22903 67.8488-58.70592 67.04681-57.77554 66.24483-56.84514 64.99619-55.38657 64.23978-54.49513 63.4834-53.60371 62.30756-52.20557 61.59523-51.35072 60.88292-50.49586 59.77657-49.15433 59.10587-48.334 58.43517-47.51366 57.39209-46.22571 56.7613-45.43822 56.13051-44.65071 55.15125-43.41515 54.5595-42.65817 53.96773-41.9012 53.0511-40.71107 52.49628-39.98247 51.94144-39.25388 51.07988-38.10881 50.56073-37.40694 50.04156-36.70506 49.23888-35.6004 48.75443-34.9238 48.26997-34.2472 47.52054-33.1835 47.06908-32.53044 46.61758-31.8774 45.91998-30.84848 45.5005-30.21704 45.08101-29.5856 44.43398-28.59062 44.0456-27.97942 43.65721-27.36821 43.05933-26.40456 42.70125-25.81186 42.34319-25.21916 41.79378-24.28297 41.46487-23.70763 41.13599-23.1323 40.63133-22.22496 40.33075-21.66516 40.03017-21.10538 39.5713-20.21843 39.29837-19.67303 39.02542-19.12767 38.60971-18.26659 38.36356-17.73439 38.1174-17.20218 37.74397-16.35815 37.52425-15.83727 37.30452-15.31636 36.97392-14.49042 36.77992-13.9801 36.5859-13.4698 36.29459-12.66072 36.12592-12.15927 35.95726-11.6578 35.70805-10.85954 35.5643-10.36595 35.42058-9.87236 35.20937-9.08846 35.0899-8.60168 34.97043-8.11493 34.79832-7.3394 34.7032-6.85768 34.60808-6.37596 34.47523-5.60722 34.40422-5.12976 34.33324-4.65228 34.23888-3.8906 34.19142-3.41637 34.14397-2.94214 34.08592-2.18452 34.06216-1.7118 34.0384-1.23909 34.0202-.48045 34.02014-.00932 34.02008 .46178 34.03839 1.2123 34.06165 1.68378 34.08492 2.15527 34.1409 2.91428 34.18779 3.38887 34.23466 3.86345 34.32869 4.627 34.39957 5.10432 34.47041 5.58165 34.60376 6.3477 34.69852 6.82913 34.79329 7.31056 34.96379 8.08713 35.08263 8.57419 35.20145 9.06122 35.41144 9.84616 35.55496 10.33948 35.69849 10.83278 35.94873 11.62852 36.1171 12.12968 36.28548 12.63084 36.575 13.44124 36.7685 13.95155 36.962 14.46187 37.2925 15.28714 37.51178 15.80768 37.73108 16.32822 38.10338 17.17104 38.34901 17.70325 38.59467 18.23546 39.00963 19.09843 39.28227 19.64346 39.55493 20.18849 40.01399 21.07208 40.31415 21.63144 40.61432 22.19078 41.1172 23.0996 41.44568 23.67493 41.77415 24.25027 42.32382 25.18579 42.68153 25.77812 43.03925 26.37047 43.63593 27.3334 44.0238 27.94412 44.41168 28.55482 45.05829 29.54845 45.47716 30.17967 45.896 30.81091 46.59172 31.84062 47.0426 32.49359 47.4935 33.14659 48.24275 34.21002 48.72693 34.88591 49.21109 35.56178 50.01373 36.66374 50.53218 37.3649 51.05063 38.06606 51.90947 39.21107 52.46358 39.93939 53.01767 40.6677 53.93428 41.85738 54.52574 42.61406 55.11723 43.37073 56.0966 44.60591 56.72653 45.39305 57.35646 46.18019 58.39592 47.46765 59.0659 48.28728 59.73586 49.10692 60.84322 50.44624 61.55527 51.30037 62.2673 52.1545 63.44223 53.55215 64.19775 54.44324 64.95328 55.33429 66.19963 56.79277 67.00061 57.7226 67.80159 58.6524 69.12236 60.17369 69.97064 61.14468 70.81892 62.1157 72.21648 63.7063 73.11452 64.72096 74.01257 65.73561 75.493 67.39693 76.4432 68.4576 77.39339 69.51826 78.9586 71.25597 79.96289 72.36554 80.96716 73.47511 82.62035 75.29305 83.68137 76.45462 84.74239 77.61617 87.61006 80.7373 86.34291 79.35818"/>
<path transform="matrix(.67689356,.7360568,.73603478,-.6769138,185.91257,186.5459)" d="M1.27522 0C-.31879 .31879-1.91284 .9564-3.8257 2.07224-1.91284 .6376-1.91284-.6376-3.8257-2.07224-1.91284-.9564-.31879-.31879 1.27522 0Z" fill="#ff0000"/>
<path transform="matrix(.67689356,.7360568,.73603478,-.6769138,185.91257,186.5459)" stroke-width="1.19553" stroke-linecap="butt" stroke-linejoin="round" fill="none" stroke="#ff0000" d="M1.27522 0C-.31879 .31879-1.91284 .9564-3.8257 2.07224-1.91284 .6376-1.91284-.6376-3.8257-2.07224-1.91284-.9564-.31879-.31879 1.27522 0Z"/>
<path transform="matrix(.67655357,-.73636677,-.7363447,-.6765738,185.84935,27.753556)" d="M1.27522 0C-.31879 .31879-1.91284 .9564-3.8257 2.07224-1.91284 .6376-1.91284-.6376-3.8257-2.07224-1.91284-.9564-.31879-.31879 1.27522 0Z" fill="#ff0000"/>
<path transform="matrix(.67655357,-.73636677,-.7363447,-.6765738,185.84935,27.753556)" stroke-width="1.19553" stroke-linecap="butt" stroke-linejoin="round" fill="none" stroke="#ff0000" d="M1.27522 0C-.31879 .31879-1.91284 .9564-3.8257 2.07224-1.91284 .6376-1.91284-.6376-3.8257-2.07224-1.91284-.9564-.31879-.31879 1.27522 0Z"/>
<path transform="matrix(1.00002,0,0,-1.00005,99.504718,107.1157)" stroke-width="1.19553" stroke-linecap="butt" stroke-miterlimit="10" stroke-linejoin="miter" fill="none" stroke="#ff0000" d="M-86.40613-79.42622C-84.80339-77.6835-84.80339-77.6835-83.74156-76.52158-82.67975-75.35965-81.0261-73.54071-80.02101-72.4304-79.01595-71.32013-77.44882-69.58096-76.4977-68.51936-75.54655-67.45775-74.06468-65.79453-73.16591-64.77908-72.26714-63.76366-70.86896-62.17249-70.01994-61.20076-69.17094-60.22903-67.8488-58.70592-67.04681-57.77554-66.24483-56.84514-64.99619-55.38657-64.23978-54.49513-63.4834-53.60371-62.30756-52.20557-61.59523-51.35072-60.88292-50.49586-59.77657-49.15433-59.10587-48.334-58.43517-47.51366-57.39209-46.22571-56.7613-45.43822-56.13051-44.65071-55.15125-43.41515-54.5595-42.65817-53.96773-41.9012-53.0511-40.71107-52.49628-39.98247-51.94144-39.25388-51.07988-38.10881-50.56073-37.40694-50.04156-36.70506-49.23888-35.6004-48.75443-34.9238-48.26997-34.2472-47.52054-33.1835-47.06908-32.53044-46.61758-31.8774-45.91998-30.84848-45.5005-30.21704-45.08101-29.5856-44.43398-28.59062-44.0456-27.97942-43.65721-27.36821-43.05933-26.40456-42.70125-25.81186-42.34319-25.21916-41.79378-24.28297-41.46487-23.70763-41.13599-23.1323-40.63133-22.22496-40.33075-21.66516-40.03017-21.10538-39.5713-20.21843-39.29837-19.67303-39.02542-19.12767-38.60971-18.26659-38.36356-17.73439-38.1174-17.20218-37.74397-16.35815-37.52425-15.83727-37.30452-15.31636-36.97392-14.49042-36.77992-13.9801-36.5859-13.4698-36.29459-12.66072-36.12592-12.15927-35.95726-11.6578-35.70805-10.85954-35.5643-10.36595-35.42058-9.87236-35.20937-9.08846-35.0899-8.60168-34.97043-8.11493-34.79832-7.3394-34.7032-6.85768-34.60808-6.37596-34.47523-5.60722-34.40422-5.12976-34.33324-4.65228-34.23888-3.8906-34.19142-3.41637-34.14397-2.94214-34.08592-2.18452-34.06216-1.7118-34.0384-1.23909-34.0202-.48045-34.02014-.00932-34.02008 .46178-34.03839 1.2123-34.06165 1.68378-34.08492 2.15527-34.1409 2.91428-34.18779 3.38887-34.23466 3.86345-34.32869 4.627-34.39957 5.10432-34.47041 5.58165-34.60376 6.3477-34.69852 6.82913-34.79329 7.31056-34.96379 8.08713-35.08263 8.57419-35.20145 9.06122-35.41144 9.84616-35.55496 10.33948-35.69849 10.83278-35.94873 11.62852-36.1171 12.12968-36.28548 12.63084-36.575 13.44124-36.7685 13.95155-36.962 14.46187-37.2925 15.28714-37.51178 15.80768-37.73108 16.32822-38.10338 17.17104-38.34901 17.70325-38.59467 18.23546-39.00963 19.09843-39.28227 19.64346-39.55493 20.18849-40.01399 21.07208-40.31415 21.63144-40.61432 22.19078-41.1172 23.0996-41.44568 23.67493-41.77415 24.25027-42.32382 25.18579-42.68153 25.77812-43.03925 26.37047-43.63593 27.3334-44.0238 27.94412-44.41168 28.55482-45.05829 29.54845-45.47716 30.17967-45.896 30.81091-46.59172 31.84062-47.0426 32.49359-47.4935 33.14659-48.24275 34.21002-48.72693 34.88591-49.21109 35.56178-50.01373 36.66374-50.53218 37.3649-51.05063 38.06606-51.90947 39.21107-52.46358 39.93939-53.01767 40.6677-53.93428 41.85738-54.52574 42.61406-55.11723 43.37073-56.0966 44.60591-56.72653 45.39305-57.35646 46.18019-58.39592 47.46765-59.0659 48.28728-59.73586 49.10692-60.84322 50.44624-61.55527 51.30037-62.2673 52.1545-63.44223 53.55215-64.19775 54.44324-64.95328 55.33429-66.19963 56.79277-67.00061 57.7226-67.80159 58.6524-69.12236 60.17369-69.97064 61.14468-70.81892 62.1157-72.21648 63.7063-73.11452 64.72096-74.01257 65.73561-75.493 67.39693-76.4432 68.4576-77.39339 69.51826-78.9586 71.25597-79.96289 72.36554-80.96716 73.47511-82.62035 75.29305-83.68137 76.45462-84.74239 77.61617-87.61006 80.7373-86.34291 79.35818"/>
<path transform="matrix(-.67689356,.7360568,.73603478,.6769138,13.09687,186.5459)" d="M1.27522 0C-.31879 .31879-1.91284 .9564-3.8257 2.07224-1.91284 .6376-1.91284-.6376-3.8257-2.07224-1.91284-.9564-.31879-.31879 1.27522 0Z" fill="#ff0000"/>
<path transform="matrix(-.67689356,.7360568,.73603478,.6769138,13.09687,186.5459)" stroke-width="1.19553" stroke-linecap="butt" stroke-linejoin="round" fill="none" stroke="#ff0000" d="M1.27522 0C-.31879 .31879-1.91284 .9564-3.8257 2.07224-1.91284 .6376-1.91284-.6376-3.8257-2.07224-1.91284-.9564-.31879-.31879 1.27522 0Z"/>
<path transform="matrix(-.67655357,-.73636677,-.7363447,.6765738,13.16008,27.753556)" d="M1.27522 0C-.31879 .31879-1.91284 .9564-3.8257 2.07224-1.91284 .6376-1.91284-.6376-3.8257-2.07224-1.91284-.9564-.31879-.31879 1.27522 0Z" fill="#ff0000"/>
<path transform="matrix(-.67655357,-.73636677,-.7363447,.6765738,13.16008,27.753556)" stroke-width="1.19553" stroke-linecap="butt" stroke-linejoin="round" fill="none" stroke="#ff0000" d="M1.27522 0C-.31879 .31879-1.91284 .9564-3.8257 2.07224-1.91284 .6376-1.91284-.6376-3.8257-2.07224-1.91284-.9564-.31879-.31879 1.27522 0Z"/>
<path transform="matrix(1.00002,0,0,-1.00005,99.504718,107.1157)" stroke-width="1.19553" stroke-linecap="butt" stroke-miterlimit="10" stroke-linejoin="miter" fill="none" stroke="#0000ff" d="M84.36087-82.62836C81.40965-79.61424 81.40965-79.61424 79.85233-78.02032 78.29498-76.42642 75.89365-73.96461 74.44695-72.4787 73.00021-70.99277 70.76895-68.69658 69.42535-67.31076 68.08177-65.92494 66.01051-63.7834 64.76324-62.4906 63.51599-61.19777 61.59349-59.19945 60.43593-57.99301 59.27837-56.78659 57.49408-54.92163 56.42029-53.79544 55.34651-52.66928 53.69244-50.9281 52.69688-49.87636 51.70132-48.82462 50.16743-47.19815 49.24493-46.21523 48.32243-45.23232 46.90211-43.71129 46.04811-42.7921 45.19409-41.87291 43.87997-40.4504 43.08977-39.59032 42.29956-38.73026 41.08331-37.39888 40.35281-36.59332 39.62231-35.78778 38.4991-34.53954 37.82478-33.78448 37.15045-33.02942 36.11449-31.85977 35.49268-31.15134 34.87088-30.4429 33.91582-29.34412 33.34328-28.67857 32.77077-28.01303 31.89224-26.9806 31.36623-26.35452 30.84021-25.72845 30.03444-24.75613 29.55214-24.16621 29.06984-23.57628 28.33139-22.65941 27.89014-22.10272 27.4489-21.54604 26.77415-20.68036 26.37192-20.15395 25.96967-19.62753 25.35641-18.8075 24.99098-18.30872 24.62553-17.80994 24.06848-17.03276 23.738-16.559 23.40752-16.08524 22.90625-15.3455 22.60905-14.89415 22.31184-14.44276 21.8615-13.73694 21.59587-13.30586 21.33023-12.87476 20.92982-12.20012 20.69453-11.78711 20.45926-11.3741 20.10631-10.72627 19.90013-10.3291 19.69394-9.93193 19.38658-9.30798 19.2085-8.92455 19.03041-8.54109 18.76746-7.93704 18.61652-7.56541 18.46556-7.19377 18.24527-6.60768 18.12057-6.24599 17.99586-5.88428 17.81676-5.31213 17.71777-4.95848 17.61879-4.60481 17.48093-4.0443 17.40712-3.69691 17.33331-3.34955 17.23479-2.79773 17.18576-2.45483 17.13672-2.11192 17.07803-1.56589 17.05367-1.22545 17.02928-.88504 17.0101-.34036 17.01007-.00128 17.01003 .33778 17.02917 .87852 17.05339 1.21844 17.07762 1.55836 17.1359 2.10567 17.18472 2.44861 17.23354 2.79155 17.3316 3.34288 17.40532 3.69017 17.47902 4.03748 17.61716 4.59802 17.71597 4.95174 17.81476 5.30544 17.99301 5.87782 18.11745 6.23949 18.2419 6.60117 18.46194 7.18697 18.61288 7.5584 18.76382 7.92982 19.02739 8.53316 19.20538 8.91649 19.38336 9.29984 19.68974 9.92416 19.89572 10.3213 20.10168 10.71844 20.4547 11.36589 20.68987 11.77881 20.92503 12.19173 21.32527 12.86638 21.59068 13.29729 21.8561 13.7282 22.30576 14.43333 22.60283 14.88454 22.8999 15.33577 23.4015 16.07564 23.73177 16.5494 24.06203 17.02315 24.61789 17.80048 24.9832 18.29912 25.3485 18.79776 25.96259 19.61708 26.36464 20.14331 26.76672 20.66953 27.44017 21.53528 27.88106 22.09183 28.32195 22.64838 29.06017 23.56477 29.54227 24.15453 30.02438 24.74426 30.83005 25.71643 31.35583 26.34233 31.88164 26.96825 32.75963 28.00035 33.33186 28.6656 33.90411 29.33086 34.85867 30.42892 35.48022 31.13707 36.10176 31.8452 37.1375 33.01465 37.81154 33.76942 38.48558 34.5242 39.60838 35.77179 40.33827 36.57697 41.06816 37.38216 42.28223 38.71294 43.07213 39.57268 43.862 40.4324 45.17732 41.85458 46.03123 42.7734 46.88513 43.69225 48.30443 45.21223 49.2265 46.19499 50.14857 47.17773 51.68176 48.80482 52.6769 49.85637 53.67204 50.90793 55.32549 52.64824 56.39874 53.77391 57.47202 54.89957 59.2552 56.76367 60.41231 57.96939 61.5694 59.17511 63.49144 61.17162 64.73834 62.46385 65.98524 63.7561 68.05608 65.89763 69.39917 67.28299 70.74225 68.66835 72.97235 70.96312 74.41838 72.44858 75.86441 73.93404 78.26443 76.39584 79.82118 77.98918 81.37793 79.58253 85.63844 83.93231 84.32794 82.59435"/>
<path transform="matrix(.699584,.7145357,.7145143,-.6996049,183.86728,189.74819)" d="M1.27522 0C-.31879 .31879-1.91284 .9564-3.8257 2.07224-1.91284 .6376-1.91284-.6376-3.8257-2.07224-1.91284-.9564-.31879-.31879 1.27522 0Z" fill="#0000ff"/>
<path transform="matrix(.699584,.7145357,.7145143,-.6996049,183.86728,189.74819)" stroke-width="1.19553" stroke-linecap="butt" stroke-linejoin="round" fill="none" stroke="#0000ff" d="M1.27522 0C-.31879 .31879-1.91284 .9564-3.8257 2.07224-1.91284 .6376-1.91284-.6376-3.8257-2.07224-1.91284-.9564-.31879-.31879 1.27522 0Z"/>
<path transform="matrix(.699704,-.7143957,-.7143743,-.6997249,183.83432,24.517243)" d="M1.27522 0C-.31879 .31879-1.91284 .9564-3.8257 2.07224-1.91284 .6376-1.91284-.6376-3.8257-2.07224-1.91284-.9564-.31879-.31879 1.27522 0Z" fill="#0000ff"/>
<path transform="matrix(.699704,-.7143957,-.7143743,-.6997249,183.83432,24.517243)" stroke-width="1.19553" stroke-linecap="butt" stroke-linejoin="round" fill="none" stroke="#0000ff" d="M1.27522 0C-.31879 .31879-1.91284 .9564-3.8257 2.07224-1.91284 .6376-1.91284-.6376-3.8257-2.07224-1.91284-.9564-.31879-.31879 1.27522 0Z"/>
<path transform="matrix(1.00002,0,0,-1.00005,99.504718,107.1157)" stroke-width="1.19553" stroke-linecap="butt" stroke-miterlimit="10" stroke-linejoin="miter" fill="none" stroke="#0000ff" d="M-84.36087-82.62836C-81.40965-79.61424-81.40965-79.61424-79.85233-78.02032-78.29498-76.42642-75.89365-73.96461-74.44695-72.4787-73.00021-70.99277-70.76895-68.69658-69.42535-67.31076-68.08177-65.92494-66.01051-63.7834-64.76324-62.4906-63.51599-61.19777-61.59349-59.19945-60.43593-57.99301-59.27837-56.78659-57.49408-54.92163-56.42029-53.79544-55.34651-52.66928-53.69244-50.9281-52.69688-49.87636-51.70132-48.82462-50.16743-47.19815-49.24493-46.21523-48.32243-45.23232-46.90211-43.71129-46.04811-42.7921-45.19409-41.87291-43.87997-40.4504-43.08977-39.59032-42.29956-38.73026-41.08331-37.39888-40.35281-36.59332-39.62231-35.78778-38.4991-34.53954-37.82478-33.78448-37.15045-33.02942-36.11449-31.85977-35.49268-31.15134-34.87088-30.4429-33.91582-29.34412-33.34328-28.67857-32.77077-28.01303-31.89224-26.9806-31.36623-26.35452-30.84021-25.72845-30.03444-24.75613-29.55214-24.16621-29.06984-23.57628-28.33139-22.65941-27.89014-22.10272-27.4489-21.54604-26.77415-20.68036-26.37192-20.15395-25.96967-19.62753-25.35641-18.8075-24.99098-18.30872-24.62553-17.80994-24.06848-17.03276-23.738-16.559-23.40752-16.08524-22.90625-15.3455-22.60905-14.89415-22.31184-14.44276-21.8615-13.73694-21.59587-13.30586-21.33023-12.87476-20.92982-12.20012-20.69453-11.78711-20.45926-11.3741-20.10631-10.72627-19.90013-10.3291-19.69394-9.93193-19.38658-9.30798-19.2085-8.92455-19.03041-8.54109-18.76746-7.93704-18.61652-7.56541-18.46556-7.19377-18.24527-6.60768-18.12057-6.24599-17.99586-5.88428-17.81676-5.31213-17.71777-4.95848-17.61879-4.60481-17.48093-4.0443-17.40712-3.69691-17.33331-3.34955-17.23479-2.79773-17.18576-2.45483-17.13672-2.11192-17.07803-1.56589-17.05367-1.22545-17.02928-.88504-17.0101-.34036-17.01007-.00128-17.01003 .33778-17.02917 .87852-17.05339 1.21844-17.07762 1.55836-17.1359 2.10567-17.18472 2.44861-17.23354 2.79155-17.3316 3.34288-17.40532 3.69017-17.47902 4.03748-17.61716 4.59802-17.71597 4.95174-17.81476 5.30544-17.99301 5.87782-18.11745 6.23949-18.2419 6.60117-18.46194 7.18697-18.61288 7.5584-18.76382 7.92982-19.02739 8.53316-19.20538 8.91649-19.38336 9.29984-19.68974 9.92416-19.89572 10.3213-20.10168 10.71844-20.4547 11.36589-20.68987 11.77881-20.92503 12.19173-21.32527 12.86638-21.59068 13.29729-21.8561 13.7282-22.30576 14.43333-22.60283 14.88454-22.8999 15.33577-23.4015 16.07564-23.73177 16.5494-24.06203 17.02315-24.61789 17.80048-24.9832 18.29912-25.3485 18.79776-25.96259 19.61708-26.36464 20.14331-26.76672 20.66953-27.44017 21.53528-27.88106 22.09183-28.32195 22.64838-29.06017 23.56477-29.54227 24.15453-30.02438 24.74426-30.83005 25.71643-31.35583 26.34233-31.88164 26.96825-32.75963 28.00035-33.33186 28.6656-33.90411 29.33086-34.85867 30.42892-35.48022 31.13707-36.10176 31.8452-37.1375 33.01465-37.81154 33.76942-38.48558 34.5242-39.60838 35.77179-40.33827 36.57697-41.06816 37.38216-42.28223 38.71294-43.07213 39.57268-43.862 40.4324-45.17732 41.85458-46.03123 42.7734-46.88513 43.69225-48.30443 45.21223-49.2265 46.19499-50.14857 47.17773-51.68176 48.80482-52.6769 49.85637-53.67204 50.90793-55.32549 52.64824-56.39874 53.77391-57.47202 54.89957-59.2552 56.76367-60.41231 57.96939-61.5694 59.17511-63.49144 61.17162-64.73834 62.46385-65.98524 63.7561-68.05608 65.89763-69.39917 67.28299-70.74225 68.66835-72.97235 70.96312-74.41838 72.44858-75.86441 73.93404-78.26443 76.39584-79.82118 77.98918-81.37793 79.58253-85.63844 83.93231-84.32794 82.59435"/>
<path transform="matrix(-.699584,.7145357,.7145143,.6996049,15.1421589,189.74819)" d="M1.27522 0C-.31879 .31879-1.91284 .9564-3.8257 2.07224-1.91284 .6376-1.91284-.6376-3.8257-2.07224-1.91284-.9564-.31879-.31879 1.27522 0Z" fill="#0000ff"/>
<path transform="matrix(-.699584,.7145357,.7145143,.6996049,15.1421589,189.74819)" stroke-width="1.19553" stroke-linecap="butt" stroke-linejoin="round" fill="none" stroke="#0000ff" d="M1.27522 0C-.31879 .31879-1.91284 .9564-3.8257 2.07224-1.91284 .6376-1.91284-.6376-3.8257-2.07224-1.91284-.9564-.31879-.31879 1.27522 0Z"/>
<path transform="matrix(-.699704,-.7143957,-.7143743,.6997249,15.175102,24.517243)" d="M1.27522 0C-.31879 .31879-1.91284 .9564-3.8257 2.07224-1.91284 .6376-1.91284-.6376-3.8257-2.07224-1.91284-.9564-.31879-.31879 1.27522 0Z" fill="#0000ff"/>
<path transform="matrix(-.699704,-.7143957,-.7143743,.6997249,15.175102,24.517243)" stroke-width="1.19553" stroke-linecap="butt" stroke-linejoin="round" fill="none" stroke="#0000ff" d="M1.27522 0C-.31879 .31879-1.91284 .9564-3.8257 2.07224-1.91284 .6376-1.91284-.6376-3.8257-2.07224-1.91284-.9564-.31879-.31879 1.27522 0Z"/>
<path transform="matrix(1.00002,0,0,-1.00005,99.504718,107.1157)" d="M48.25394 75.18437 9.85689 36.78734 19.77904 26.86519 58.17607 65.26222ZM19.77904 26.86519" fill="#ffffff"/>
<use data-text="x" xlink:href="#font_1_1" transform="matrix(7.0446956,-7.044906,-7.0446956,-7.044906,117.91451,76.061229)" fill="#00cc00"/>
<use data-text="2" xlink:href="#font_4_1" transform="matrix(4.931273,-4.9314205,-4.931273,-4.9314205,119.384609,69.478488)" fill="#00cc00"/>
<use data-text="&#x2212;" xlink:href="#font_2_1" transform="matrix(7.0446956,-7.044906,-7.0446956,-7.044906,126.666469,67.309)" fill="#00cc00"/>
<use data-text="y" xlink:href="#font_1_2" transform="matrix(7.0446956,-7.044906,-7.0446956,-7.044906,133.71146,60.263818)" fill="#00cc00"/>
<use data-text="2" xlink:href="#font_4_1" transform="matrix(4.931273,-4.9314205,-4.931273,-4.9314205,134.86194,54.000719)" fill="#00cc00"/>
<use data-text="=" xlink:href="#font_3_5" transform="matrix(7.0446956,-7.044906,-7.0446956,-7.044906,142.53482,51.440179)" fill="#00cc00"/>
<use data-text="0" xlink:href="#font_3_1" transform="matrix(7.0446956,-7.044906,-7.0446956,-7.044906,149.95993,44.01484)" fill="#00cc00"/>
<path transform="matrix(1.00002,0,0,-1.00005,99.504718,107.1157)" d="M-9.85689 36.78734-48.25394 75.18437-58.17607 65.26222-19.77904 26.86519ZM-58.17607 65.26222" fill="#ffffff"/>
<use data-text="x" xlink:href="#font_1_1" transform="matrix(7.0446956,7.044906,7.0446956,-7.044906,45.515558,40.48079)" fill="#00cc00"/>
<use data-text="2" xlink:href="#font_4_1" transform="matrix(4.931273,4.9314205,4.931273,-4.9314205,52.098077,41.950944)" fill="#00cc00"/>
<use data-text="&#x2212;" xlink:href="#font_2_1" transform="matrix(7.0446956,7.044906,7.0446956,-7.044906,54.26751,49.233018)" fill="#00cc00"/>
<use data-text="y" xlink:href="#font_1_2" transform="matrix(7.0446956,7.044906,7.0446956,-7.044906,61.312494,56.278215)" fill="#00cc00"/>
<use data-text="2" xlink:href="#font_4_1" transform="matrix(4.931273,4.9314205,4.931273,-4.9314205,67.5754,57.42871)" fill="#00cc00"/>
<use data-text="=" xlink:href="#font_3_5" transform="matrix(7.0446956,7.044906,7.0446956,-7.044906,70.13587,65.10185)" fill="#00cc00"/>
<use data-text="0" xlink:href="#font_3_1" transform="matrix(7.0446956,7.044906,7.0446956,-7.044906,77.56098,72.527179)" fill="#00cc00"/>
<path transform="matrix(1.00002,0,0,-1.00005,99.504718,107.1157)" d="M46.98103 10.9885H99.29002V23.02797H46.98103Z" fill="#ffffff"/>
<use data-text="x" xlink:href="#font_1_1" transform="matrix(9.962799,0,0,-9.963098,147.48268,93.19301)" fill="#ff0000"/>
<use data-text="2" xlink:href="#font_4_1" transform="matrix(6.97394,0,0,-6.9741489,153.1768,89.577838)" fill="#ff0000"/>
<use data-text="&#x2212;" xlink:href="#font_2_1" transform="matrix(9.962799,0,0,-9.963098,159.85994,93.19301)" fill="#ff0000"/>
<use data-text="y" xlink:href="#font_1_2" transform="matrix(9.962799,0,0,-9.963098,169.82314,93.19301)" fill="#ff0000"/>
<use data-text="2" xlink:href="#font_4_1" transform="matrix(6.97394,0,0,-6.9741489,175.06525,89.577838)" fill="#ff0000"/>
<use data-text="=" xlink:href="#font_3_5" transform="matrix(9.962799,0,0,-9.963098,182.30139,93.19301)" fill="#ff0000"/>
<use data-text="4" xlink:href="#font_3_3" transform="matrix(9.962799,0,0,-9.963098,192.80219,93.19301)" fill="#ff0000"/>
<path transform="matrix(1.00002,0,0,-1.00005,99.504718,107.1157)" d="M-99.29004 10.9885H-46.98105V23.02797H-99.29004Z" fill="#ffffff"/>
<use data-text="x" xlink:href="#font_1_1" transform="matrix(9.962799,0,0,-9.963098,1.2087402,93.19301)" fill="#ff0000"/>
<use data-text="2" xlink:href="#font_4_1" transform="matrix(6.97394,0,0,-6.9741489,6.9028627,89.577838)" fill="#ff0000"/>
<use data-text="&#x2212;" xlink:href="#font_2_1" transform="matrix(9.962799,0,0,-9.963098,13.585999,93.19301)" fill="#ff0000"/>
<use data-text="y" xlink:href="#font_1_2" transform="matrix(9.962799,0,0,-9.963098,23.549195,93.19301)" fill="#ff0000"/>
<use data-text="2" xlink:href="#font_4_1" transform="matrix(6.97394,0,0,-6.9741489,28.791306,89.577838)" fill="#ff0000"/>
<use data-text="=" xlink:href="#font_3_5" transform="matrix(9.962799,0,0,-9.963098,36.02745,93.19301)" fill="#ff0000"/>
<use data-text="4" xlink:href="#font_3_3" transform="matrix(9.962799,0,0,-9.963098,46.528245,93.19301)" fill="#ff0000"/>
<path transform="matrix(1.00002,0,0,-1.00005,99.504718,107.1157)" d="M-26.1545-57.04451H26.154492V-45.00504H-26.1545Z" fill="#ffffff"/>
<use data-text="x" xlink:href="#font_1_1" transform="matrix(9.962799,0,0,-9.963098,74.34621,161.2294)" fill="#0000ff"/>
<use data-text="2" xlink:href="#font_4_1" transform="matrix(6.97394,0,0,-6.9741489,80.04033,157.61423)" fill="#0000ff"/>
<use data-text="&#x2212;" xlink:href="#font_2_1" transform="matrix(9.962799,0,0,-9.963098,86.723468,161.2294)" fill="#0000ff"/>
<use data-text="y" xlink:href="#font_1_2" transform="matrix(9.962799,0,0,-9.963098,96.68666,161.2294)" fill="#0000ff"/>
<use data-text="2" xlink:href="#font_4_1" transform="matrix(6.97394,0,0,-6.9741489,101.92877,157.61423)" fill="#0000ff"/>
<use data-text="=" xlink:href="#font_3_5" transform="matrix(9.962799,0,0,-9.963098,109.16492,161.2294)" fill="#0000ff"/>
<use data-text="1" xlink:href="#font_3_2" transform="matrix(9.962799,0,0,-9.963098,119.66571,161.2294)" fill="#0000ff"/>
<path transform="matrix(1.00002,0,0,-1.00005,99.504718,107.1157)" stroke-width=".3985" stroke-linecap="butt" stroke-miterlimit="10" stroke-linejoin="miter" fill="none" stroke="#0000ff" d="M-3.40158-42.52063C-3.40158-26.71173-1.49644-13.5634-12.84346-4.04198"/>
<path transform="matrix(-.76605537,-.64282217,-.6428029,.7660783,86.66102,111.15789)" d="M.797 0C-.19925 .19925-1.19551 .59775-2.39102 1.29512-1.19551 .3985-1.19551-.3985-2.39102-1.29512-1.19551-.59775-.19925-.19925 .797 0Z" fill="#0000ff"/>
<path transform="matrix(-.76605537,-.64282217,-.6428029,.7660783,86.66102,111.15789)" stroke-width=".3985" stroke-linecap="butt" stroke-linejoin="round" fill="none" stroke="#0000ff" d="M.797 0C-.19925 .19925-1.19551 .59775-2.39102 1.29512-1.19551 .3985-1.19551-.3985-2.39102-1.29512-1.19551-.59775-.19925-.19925 .797 0Z"/>
<path transform="matrix(1.00002,0,0,-1.00005,99.504718,107.1157)" stroke-width=".3985" stroke-linecap="butt" stroke-miterlimit="10" stroke-linejoin="miter" fill="none" stroke="#0000ff" d="M3.40158-42.52063C3.40158-26.71173 1.49644-13.5634 12.84346-4.04198"/>
<path transform="matrix(.76605537,-.64282217,-.6428029,-.7660783,112.34841,111.15789)" d="M.797 0C-.19925 .19925-1.19551 .59775-2.39102 1.29512-1.19551 .3985-1.19551-.3985-2.39102-1.29512-1.19551-.59775-.19925-.19925 .797 0Z" fill="#0000ff"/>
<path transform="matrix(.76605537,-.64282217,-.6428029,-.7660783,112.34841,111.15789)" stroke-width=".3985" stroke-linecap="butt" stroke-linejoin="round" fill="none" stroke="#0000ff" d="M.797 0C-.19925 .19925-1.19551 .59775-2.39102 1.29512-1.19551 .3985-1.19551-.3985-2.39102-1.29512-1.19551-.59775-.19925-.19925 .797 0Z"/>
</svg>
