<svg xmlns="http://www.w3.org/2000/svg" xmlns:xlink="http://www.w3.org/1999/xlink" version="1.1" width="167" height="165" viewBox="0 0 167 165">
<defs>
<path id="font_1_1" d="M.33399964 .30233766C.33999635 .32835389 .36299134 .42037965 .43299867 .42037965 .43798829 .42037965 .46199037 .42037965 .48298646 .40734864 .45498658 .402359 .43499757 .37734986 .43499757 .35334779 .43499757 .33735658 .44599916 .31835938 .47299195 .31835938 .49499513 .31835938 .5269928 .3363495 .5269928 .37635804 .5269928 .42837525 .46798707 .4423828 .43399049 .4423828 .37599183 .4423828 .34098817 .38935853 .32899476 .36634828 .3039856 .43237306 .25 .4423828 .22099304 .4423828 .116989139 .4423828 .05999756 .3133545 .05999756 .28834535 .05999756 .27833558 .069992069 .27833558 .07199097 .27833558 .07998657 .27833558 .08299255 .28033448 .084991458 .28933717 .11898804 .39535523 .18499756 .42037965 .21899414 .42037965 .23799134 .42037965 .272995 .4113617 .272995 .35334779 .272995 .32235719 .2559967 .25532533 .21899414 .11528015 .20298767 .053268434 .16799927 .011245728 .12399292 .011245728 .117996219 .011245728 .09498596 .011245728 .07398987 .024276734 .09899902 .029266358 .12098694 .05027771 .12098694 .07827759 .12098694 .105270389 .09899902 .11328125 .083999637 .11328125 .053985597 .11328125 .0289917 .08728027 .0289917 .055267335 .0289917 .009246826 .07899475-.0107421879 .12298584-.0107421879 .18899536-.0107421879 .22499085 .059280397 .22799683 .0652771 .23999024 .028274537 .27598573-.0107421879 .33599855-.0107421879 .43899537-.0107421879 .49598695 .118270877 .49598695 .14328003 .49598695 .1532898 .4869995 .1532898 .48399354 .1532898 .47499085 .1532898 .47299195 .14929199 .47099305 .14228821 .43798829 .03527832 .36999513 .011245728 .33799745 .011245728 .29899598 .011245728 .2829895 .043273927 .2829895 .07727051 .2829895 .09927368 .2889862 .121276859 .2999878 .16529846L.33399964 .30233766Z"/>
<path id="font_1_2" d="M.48599244 .38136292C.48999024 .39537049 .48999024 .39736939 .48999024 .40437318 .48999024 .42237855 .47599793 .43138124 .46099855 .43138124 .45098878 .43138124 .43499757 .42536927 .42599488 .41036988 .42399598 .405365 .41600038 .37435914 .4119873 .35635377 .40499879 .33035279 .397995 .30334474 .3919983 .27633668L.34700013 .09628296C.34298707 .08126831 .2999878 .011245728 .23399353 .011245728 .18299866 .011245728 .17199707 .055267335 .17199707 .0922699 .17199707 .1382904 .18899536 .20030213 .22299195 .28833009 .23899842 .3293457 .24299622 .3403473 .24299622 .36035157 .24299622 .405365 .21099854 .4423828 .16099549 .4423828 .06599426 .4423828 .0289917 .29733277 .0289917 .28833009 .0289917 .27833558 .038986207 .27833558 .040985109 .27833558 .050994874 .27833558 .051986696 .28033448 .056991579 .29634095 .083999637 .3903656 .12399292 .42037965 .1579895 .42037965 .1659851 .42037965 .18299866 .42037965 .18299866 .3883667 .18299866 .36335755 .17298889 .3373413 .1659851 .31834413 .12599182 .21231079 .10798645 .1552887 .10798645 .10827637 .10798645 .019256592 .17098999-.0107421879 .22999573-.0107421879 .2689972-.0107421879 .30299378 .0062561037 .33099366 .03425598 .31799317-.017745972 .30599977-.06674194 .2659912-.11973572 .23999024-.15385437 .20199585-.18309021 .1559906-.18309021 .14199829-.18309021 .09700012-.18005371 .07998657-.14074707 .09599304-.14074707 .10899353-.14074707 .12298584-.1287384 .1329956-.11973572 .14299011-.10673523 .14299011-.08773804 .14299011-.056747438 .115997318-.052734376 .10598755-.052734376 .08299255-.052734376 .049987794-.068740848 .049987794-.11773682 .049987794-.16796875 .09399414-.20507813 .1559906-.20507813 .25898744-.20507813 .3619995-.11373901 .3899994-.00074768069L.48599244 .38136292Z"/>
<path id="font_2_1" d="M.6589966 .23046875C.6759949 .23046875 .69400027 .23046875 .69400027 .25045777 .69400027 .27046205 .6759949 .27046205 .6589966 .27046205H.117996219C.100997928 .27046205 .08299255 .27046205 .08299255 .25045777 .08299255 .23046875 .100997928 .23046875 .117996219 .23046875H.6589966Z"/>
<path id="font_3_1" d="M.44898988 .20022583C.44898988 .3193512 .36698915 .41944886 .25898744 .41944886 .21099854 .41944886 .16799927 .40345765 .13198853 .36842347V.5637665C.1519928 .5577698 .18499756 .55078127 .21699524 .55078127 .33999635 .55078127 .4099884 .6417694 .4099884 .6547699 .4099884 .6607666 .40699769 .6657715 .3999939 .6657715 .39898683 .6657715 .39698792 .6657715 .3919983 .66278079 .37199403 .6537781 .32299806 .6337738 .2559967 .6337738 .21598816 .6337738 .16999817 .6407776 .12298584 .6617737 .114990238 .66477969 .11299133 .66477969 .11099243 .66477969 .100997928 .66477969 .100997928 .6567688 .100997928 .6407776V.34439088C.100997928 .32637025 .100997928 .31835938 .114990238 .31835938 .12199402 .31835938 .12399292 .32136537 .12799073 .32736207 .13899231 .3433838 .17599488 .39746095 .25698854 .39746095 .30899049 .39746095 .33399964 .35139466 .34199525 .33337403 .35798646 .29632569 .3600006 .25727845 .3600006 .20722962 .3600006 .17222595 .3600006 .11222839 .33599855 .07035828 .31199647 .031463624 .2749939 .0055389406 .22898865 .0055389406 .1559906 .0055389406 .09899902 .058380128 .08198547 .11723328 .084991458 .1162262 .08799744 .115234378 .09899902 .115234378 .13198853 .115234378 .14898682 .14022827 .14898682 .16423035 .14898682 .18823242 .13198853 .21322632 .09899902 .21322632 .084991458 .21322632 .049987794 .20622254 .049987794 .16023255 .049987794 .07434082 .11898804-.022460938 .23098755-.022460938 .34700013-.022460938 .44898988 .073349 .44898988 .20022583Z"/>
</defs>
<path transform="matrix(1.00003,0,0,-1.00002,77.44495,89.81954)" stroke-width=".3985" stroke-linecap="butt" stroke-miterlimit="10" stroke-linejoin="miter" fill="none" stroke="#00aeef" d="M-70.867-70.867H70.867M-70.867-56.69362H70.867M-70.867-42.5202H70.867M-70.867-28.3468H70.867M-70.867-14.17339H70.867M-70.867 0H70.867M-70.867 14.17339H70.867M-70.867 28.3468H70.867M-70.867 42.5202H70.867M-70.867 56.69362H70.867M-70.867 70.86205H70.867M-70.867-70.867V70.867M-56.69362-70.867V70.867M-42.5202-70.867V70.867M-28.3468-70.867V70.867M-14.17339-70.867V70.867M0-70.867V70.867M14.17339-70.867V70.867M28.3468-70.867V70.867M42.5202-70.867V70.867M56.69362-70.867V70.867M70.86205-70.867V70.867M70.867 70.867"/>
<path transform="matrix(1.00003,0,0,-1.00002,77.44495,89.81954)" stroke-width=".79701" stroke-linecap="butt" stroke-miterlimit="10" stroke-linejoin="miter" fill="none" stroke="#000000" d="M-70.867 0H77.93652"/>
<path transform="matrix(1.00003,0,0,-1.00002,155.38382,89.81954)" d="M1.0361 0C-.25902 .25902-1.55415 .77707-3.1083 1.68365-1.55415 .51805-1.55415-.51805-3.1083-1.68365-1.55415-.77707-.25902-.25902 1.0361 0Z"/>
<path transform="matrix(1.00003,0,0,-1.00002,155.38382,89.81954)" stroke-width=".79701" stroke-linecap="butt" stroke-linejoin="round" fill="none" stroke="#000000" d="M1.0361 0C-.25902 .25902-1.55415 .77707-3.1083 1.68365-1.55415 .51805-1.55415-.51805-3.1083-1.68365-1.55415-.77707-.25902-.25902 1.0361 0Z"/>
<use data-text="x" xlink:href="#font_1_1" transform="matrix(9.962899,0,0,-9.962799,160.53745,91.964588)"/>
<path transform="matrix(1.00003,0,0,-1.00002,77.44495,89.81954)" stroke-width=".79701" stroke-linecap="butt" stroke-miterlimit="10" stroke-linejoin="miter" fill="none" stroke="#000000" d="M0-70.867V76.5191"/>
<path transform="matrix(0,-1.00002,-1.00003,-0,77.44495,13.298912)" d="M1.0361 0C-.25902 .25902-1.55415 .77707-3.1083 1.68365-1.55415 .51805-1.55415-.51805-3.1083-1.68365-1.55415-.77707-.25902-.25902 1.0361 0Z"/>
<path transform="matrix(0,-1.00002,-1.00003,-0,77.44495,13.298912)" stroke-width=".79701" stroke-linecap="butt" stroke-linejoin="round" fill="none" stroke="#000000" d="M1.0361 0C-.25902 .25902-1.55415 .77707-3.1083 1.68365-1.55415 .51805-1.55415-.51805-3.1083-1.68365-1.55415-.77707-.25902-.25902 1.0361 0Z"/>
<use data-text="y" xlink:href="#font_1_2" transform="matrix(9.962899,0,0,-9.962799,74.82387,6.2078707)"/>
<path transform="matrix(1.00003,0,0,-1.00002,77.44495,89.81954)" stroke-width=".3985" stroke-linecap="butt" stroke-miterlimit="10" stroke-linejoin="miter" fill="none" stroke="#000000" d="M-70.867 2.12592V-2.12613"/>
<path transform="matrix(1.00003,0,0,-1.00002,77.44495,89.81954)" d="M-78.2284-13.56116H-63.505624V-4.31793H-78.2284Z" fill="#ffffff"/>
<use data-text="&#x2212;" xlink:href="#font_2_1" transform="matrix(9.962899,0,0,-9.962799,.21061707,101.55478)"/>
<use data-text="5" xlink:href="#font_3_1" transform="matrix(9.962899,0,0,-9.962799,7.958847,101.55478)"/>
<path transform="matrix(1.00003,0,0,-1.00002,77.44495,89.81954)" stroke-width=".3985" stroke-linecap="butt" stroke-miterlimit="10" stroke-linejoin="miter" fill="none" stroke="#000000" d="M2.12592-70.867H-2.12613"/>
<path transform="matrix(1.00003,0,0,-1.00002,77.44495,89.81954)" d="M-19.04071-75.48862H-4.31793V-66.245388H-19.04071Z" fill="#ffffff"/>
<use data-text="&#x2212;" xlink:href="#font_2_1" transform="matrix(9.962899,0,0,-9.962799,59.400407,163.48302)"/>
<use data-text="5" xlink:href="#font_3_1" transform="matrix(9.962899,0,0,-9.962799,67.148639,163.48302)"/>
<path transform="matrix(1.00003,0,0,-1.00002,77.44495,89.81954)" stroke-width=".3985" stroke-linecap="butt" stroke-miterlimit="10" stroke-linejoin="miter" fill="none" stroke="#000000" d="M70.867 2.12592V-2.12613"/>
<path transform="matrix(1.00003,0,0,-1.00002,77.44495,89.81954)" d="M67.38004-12.73093H74.35398V-4.3179504H67.38004Z" fill="#ffffff"/>
<use data-text="5" xlink:href="#font_3_1" transform="matrix(9.962899,0,0,-9.962799,145.823,101.55478)"/>
<path transform="matrix(1.00003,0,0,-1.00002,77.44495,89.81954)" stroke-width=".3985" stroke-linecap="butt" stroke-miterlimit="10" stroke-linejoin="miter" fill="none" stroke="#000000" d="M2.12592 70.867H-2.12613"/>
<path transform="matrix(1.00003,0,0,-1.00002,77.44495,89.81954)" d="M-11.29187 66.66052H-4.31793V75.0735H-11.29187Z" fill="#ffffff"/>
<use data-text="5" xlink:href="#font_3_1" transform="matrix(9.962899,0,0,-9.962799,67.148639,22.161187)"/>
<path transform="matrix(1.00003,0,0,-1.00002,77.44495,89.81954)" stroke-width="1.19553" stroke-linecap="butt" stroke-miterlimit="10" stroke-linejoin="miter" fill="none" stroke="#ff0000" d="M2.92967 68.99648C3.60262 55.75426 3.60262 55.75426 3.89758 51.54079 4.19255 47.32729 4.66559 43.02315 4.96056 40.49918 5.25551 37.9752 5.72855 35.03586 6.0235 33.34975 6.31847 31.66364 6.7915 29.55367 7.08647 28.3468 7.38144 27.13992 7.85448 25.55872 8.14944 24.6514 8.4444 23.74408 8.91743 22.5152 9.21239 21.80748 9.50735 21.09973 9.9804 20.11794 10.27536 19.55048 10.57033 18.98302 11.04335 18.1828 11.33832 17.7176 11.63327 17.25241 12.10632 16.58595 12.40128 16.19766 12.69624 15.80939 13.16928 15.24792 13.46425 14.9191 13.75922 14.59024 14.23224 14.10979 14.5272 13.82758 14.82216 13.54536 15.29521 13.1299 15.59016 12.88509 15.88513 12.64026 16.35817 12.27759 16.65314 12.06303 16.9481 11.8485 17.42113 11.52834 17.7161 11.33876 18.01105 11.14917 18.4841 10.86537 18.77905 10.69666 19.07402 10.52792 19.54704 10.2737 19.84201 10.12267 20.13698 9.97165 20.61002 9.74406 20.90498 9.60817 21.19994 9.47227 21.67299 9.2661 21.96794 9.14319 22.26291 9.02028 22.73593 8.83423 23.0309 8.72232 23.32587 8.61044 23.7989 8.43898 24.09387 8.33673 24.38882 8.23447 24.86188 8.07909 25.15683 7.98529 25.4518 7.8915 25.92482 7.747 26.21979 7.66066 26.51476 7.57434 26.9878 7.44272 27.28276 7.36308 27.57771 7.28345 28.05075 7.16063 28.3457 7.08669 28.64067 7.01276 29.11371 6.89882 29.40868 6.8302 29.70364 6.76158 30.17668 6.65593 30.47165 6.59209 30.7666 6.52824 31.23964 6.42963 31.53459 6.36996 31.82956 6.31032 32.3026 6.21793 32.59756 6.16214 32.89253 6.10637 33.36555 6.02028 33.66052 5.96793 33.95547 5.91557 34.42853 5.83392 34.72348 5.78474 35.01845 5.73557 35.49149 5.65973 35.78645 5.61346 36.08142 5.5672 36.55444 5.49489 36.84941 5.45125 37.14436 5.40762 37.61742 5.34024 37.91237 5.29901 38.20734 5.25778 38.68037 5.19318 38.97534 5.1541 39.27031 5.11504 39.74333 5.05446 40.0383 5.01743 40.33325 4.98041 40.8063 4.92236 41.10126 4.88724 41.39622 4.8521 41.86925 4.79752 42.16422 4.76418 42.45918 4.73085 42.93222 4.67868 43.22719 4.64696 43.52214 4.61525 43.9952 4.56578 44.29015 4.53558 44.58511 4.50536 45.05814 4.45798 45.3531 4.42918 45.64807 4.40038 46.12111 4.35548 46.41608 4.32797 46.71103 4.30045 47.18407 4.25711 47.47902 4.23085 47.77399 4.2046 48.24702 4.16388 48.54199 4.13873 48.83696 4.11359 49.31 4.07372 49.60497 4.04962 49.89992 4.02553 50.37296 3.98813 50.66791 3.96506 50.96288 3.94199 51.43591 3.90543 51.73088 3.8833 52.02585 3.8612 52.49889 3.8269 52.79385 3.80566 53.0888 3.78442 53.56184 3.75066 53.8568 3.7302 54.15176 3.70973 54.6248 3.67792 54.91977 3.65819 55.21474 3.63843 55.68776 3.60687 55.98273 3.58789 56.27768 3.5689 56.75073 3.53946 57.04568 3.52127 57.34065 3.5031 57.81369 3.47438 58.10866 3.45683 58.40363 3.43927 58.87665 3.41171 59.17162 3.39476 59.46657 3.3778 59.93962 3.35092 60.23457 3.33464 60.52954 3.31834 61.00258 3.29305 61.29755 3.27733 61.59251 3.26161 62.06554 3.23659 62.3605 3.22131 62.65546 3.20604 63.12851 3.18198 63.42346 3.16725 63.71843 3.15251 64.19145 3.12935 64.48642 3.11513 64.78139 3.1009 65.25443 3.07854 65.5494 3.06473 65.84435 3.05093 66.3174 3.02902 66.61235 3.01564 66.90732 3.00226 67.38034 2.9812 67.67531 2.96828 67.97028 2.95535 68.44331 2.93497 68.73828 2.92242 69.03323 2.90988 69.50627 2.89006 69.80122 2.87788 70.09619 2.8657 70.8642 2.83463 68.99284 2.91031"/>
<path transform="matrix(-.050751524,-.99871006,-.99872,.050751017,80.374729,20.821679)" d="M1.27522 0C-.31879 .31879-1.91284 .9564-3.8257 2.07224-1.91284 .6376-1.91284-.6376-3.8257-2.07224-1.91284-.9564-.31879-.31879 1.27522 0Z" fill="#ff0000"/>
<path transform="matrix(-.050751524,-.99871006,-.99872,.050751017,80.374729,20.821679)" stroke-width="1.19553" stroke-linecap="butt" stroke-linejoin="round" fill="none" stroke="#ff0000" d="M1.27522 0C-.31879 .31879-1.91284 .9564-3.8257 2.07224-1.91284 .6376-1.91284-.6376-3.8257-2.07224-1.91284-.9564-.31879-.31879 1.27522 0Z"/>
<path transform="matrix(.99916008,.040400808,.040401214,-.99915006,146.43985,86.90917)" d="M1.27522 0C-.31879 .31879-1.91284 .9564-3.8257 2.07224-1.91284 .6376-1.91284-.6376-3.8257-2.07224-1.91284-.9564-.31879-.31879 1.27522 0Z" fill="#ff0000"/>
<path transform="matrix(.99916008,.040400808,.040401214,-.99915006,146.43985,86.90917)" stroke-width="1.19553" stroke-linecap="butt" stroke-linejoin="round" fill="none" stroke="#ff0000" d="M1.27522 0C-.31879 .31879-1.91284 .9564-3.8257 2.07224-1.91284 .6376-1.91284-.6376-3.8257-2.07224-1.91284-.9564-.31879-.31879 1.27522 0Z"/>
<path transform="matrix(1.00003,0,0,-1.00002,77.44495,89.81954)" stroke-width="1.19553" stroke-linecap="butt" stroke-miterlimit="10" stroke-linejoin="miter" fill="none" stroke="#ff0000" d="M-2.92967-68.99648C-3.60262-55.75426-3.60262-55.75426-3.89758-51.54079-4.19255-47.32729-4.66559-43.02315-4.96056-40.49918-5.25551-37.9752-5.72855-35.03586-6.0235-33.34975-6.31847-31.66364-6.7915-29.55367-7.08647-28.3468-7.38144-27.13992-7.85448-25.55872-8.14944-24.6514-8.4444-23.74408-8.91743-22.5152-9.21239-21.80748-9.50735-21.09973-9.9804-20.11794-10.27536-19.55048-10.57033-18.98302-11.04335-18.1828-11.33832-17.7176-11.63327-17.25241-12.10632-16.58595-12.40128-16.19766-12.69624-15.80939-13.16928-15.24792-13.46425-14.9191-13.75922-14.59024-14.23224-14.10979-14.5272-13.82758-14.82216-13.54536-15.29521-13.1299-15.59016-12.88509-15.88513-12.64026-16.35817-12.27759-16.65314-12.06303-16.9481-11.8485-17.42113-11.52834-17.7161-11.33876-18.01105-11.14917-18.4841-10.86537-18.77905-10.69666-19.07402-10.52792-19.54704-10.2737-19.84201-10.12267-20.13698-9.97165-20.61002-9.74406-20.90498-9.60817-21.19994-9.47227-21.67299-9.2661-21.96794-9.14319-22.26291-9.02028-22.73593-8.83423-23.0309-8.72232-23.32587-8.61044-23.7989-8.43898-24.09387-8.33673-24.38882-8.23447-24.86188-8.07909-25.15683-7.98529-25.4518-7.8915-25.92482-7.747-26.21979-7.66066-26.51476-7.57434-26.9878-7.44272-27.28276-7.36308-27.57771-7.28345-28.05075-7.16063-28.3457-7.08669-28.64067-7.01276-29.11371-6.89882-29.40868-6.8302-29.70364-6.76158-30.17668-6.65593-30.47165-6.59209-30.7666-6.52824-31.23964-6.42963-31.53459-6.36996-31.82956-6.31032-32.3026-6.21793-32.59756-6.16214-32.89253-6.10637-33.36555-6.02028-33.66052-5.96793-33.95547-5.91557-34.42853-5.83392-34.72348-5.78474-35.01845-5.73557-35.49149-5.65973-35.78645-5.61346-36.08142-5.5672-36.55444-5.49489-36.84941-5.45125-37.14436-5.40762-37.61742-5.34024-37.91237-5.29901-38.20734-5.25778-38.68037-5.19318-38.97534-5.1541-39.27031-5.11504-39.74333-5.05446-40.0383-5.01743-40.33325-4.98041-40.8063-4.92236-41.10126-4.88724-41.39622-4.8521-41.86925-4.79752-42.16422-4.76418-42.45918-4.73085-42.93222-4.67868-43.22719-4.64696-43.52214-4.61525-43.9952-4.56578-44.29015-4.53558-44.58511-4.50536-45.05814-4.45798-45.3531-4.42918-45.64807-4.40038-46.12111-4.35548-46.41608-4.32797-46.71103-4.30045-47.18407-4.25711-47.47902-4.23085-47.77399-4.2046-48.24702-4.16388-48.54199-4.13873-48.83696-4.11359-49.31-4.07372-49.60497-4.04962-49.89992-4.02553-50.37296-3.98813-50.66791-3.96506-50.96288-3.94199-51.43591-3.90543-51.73088-3.8833-52.02585-3.8612-52.49889-3.8269-52.79385-3.80566-53.0888-3.78442-53.56184-3.75066-53.8568-3.7302-54.15176-3.70973-54.6248-3.67792-54.91977-3.65819-55.21474-3.63843-55.68776-3.60687-55.98273-3.58789-56.27768-3.5689-56.75073-3.53946-57.04568-3.52127-57.34065-3.5031-57.81369-3.47438-58.10866-3.45683-58.40363-3.43927-58.87665-3.41171-59.17162-3.39476-59.46657-3.3778-59.93962-3.35092-60.23457-3.33464-60.52954-3.31834-61.00258-3.29305-61.29755-3.27733-61.59251-3.26161-62.06554-3.23659-62.3605-3.22131-62.65546-3.20604-63.12851-3.18198-63.42346-3.16725-63.71843-3.15251-64.19145-3.12935-64.48642-3.11513-64.78139-3.1009-65.25443-3.07854-65.5494-3.06473-65.84435-3.05093-66.3174-3.02902-66.61235-3.01564-66.90732-3.00226-67.38034-2.9812-67.67531-2.96828-67.97028-2.95535-68.44331-2.93497-68.73828-2.92242-69.03323-2.90988-69.50627-2.89006-69.80122-2.87788-70.09619-2.8657-70.8642-2.83463-68.99284-2.91031"/>
<path transform="matrix(.050751524,.99871006,.99872,-.050751017,74.51517,158.81742)" d="M1.27522 0C-.31879 .31879-1.91284 .9564-3.8257 2.07224-1.91284 .6376-1.91284-.6376-3.8257-2.07224-1.91284-.9564-.31879-.31879 1.27522 0Z" fill="#ff0000"/>
<path transform="matrix(.050751524,.99871006,.99872,-.050751017,74.51517,158.81742)" stroke-width="1.19553" stroke-linecap="butt" stroke-linejoin="round" fill="none" stroke="#ff0000" d="M1.27522 0C-.31879 .31879-1.91284 .9564-3.8257 2.07224-1.91284 .6376-1.91284-.6376-3.8257-2.07224-1.91284-.9564-.31879-.31879 1.27522 0Z"/>
<path transform="matrix(-.99916008,-.040400808,-.040401214,.99915006,8.450043,92.72991)" d="M1.27522 0C-.31879 .31879-1.91284 .9564-3.8257 2.07224-1.91284 .6376-1.91284-.6376-3.8257-2.07224-1.91284-.9564-.31879-.31879 1.27522 0Z" fill="#ff0000"/>
<path transform="matrix(-.99916008,-.040400808,-.040401214,.99915006,8.450043,92.72991)" stroke-width="1.19553" stroke-linecap="butt" stroke-linejoin="round" fill="none" stroke="#ff0000" d="M1.27522 0C-.31879 .31879-1.91284 .9564-3.8257 2.07224-1.91284 .6376-1.91284-.6376-3.8257-2.07224-1.91284-.9564-.31879-.31879 1.27522 0Z"/>
<path transform="matrix(1.00003,0,0,-1.00002,77.44495,89.81954)" d="M16.29932 14.17339C16.29932 15.34752 15.34752 16.29932 14.17339 16.29932 12.99927 16.29932 12.04747 15.34752 12.04747 14.17339 12.04747 12.99927 12.99927 12.04747 14.17339 12.04747 15.34752 12.04747 16.29932 12.99927 16.29932 14.17339ZM14.17339 14.17339" fill="#ff0000"/>
<path transform="matrix(1.00003,0,0,-1.00002,77.44495,89.81954)" stroke-width=".3985" stroke-linecap="butt" stroke-miterlimit="10" stroke-linejoin="miter" fill="none" stroke="#ff0000" d="M16.29932 14.17339C16.29932 15.34752 15.34752 16.29932 14.17339 16.29932 12.99927 16.29932 12.04747 15.34752 12.04747 14.17339 12.04747 12.99927 12.99927 12.04747 14.17339 12.04747 15.34752 12.04747 16.29932 12.99927 16.29932 14.17339ZM14.17339 14.17339"/>
<path transform="matrix(1.00003,0,0,-1.00002,77.44495,89.81954)" d="M-12.04747-14.17339C-12.04747-12.99927-12.99927-12.04747-14.17339-12.04747-15.34752-12.04747-16.29932-12.99927-16.29932-14.17339-16.29932-15.34752-15.34752-16.29932-14.17339-16.29932-12.99927-16.29932-12.04747-15.34752-12.04747-14.17339ZM-14.17339-14.17339" fill="#ff0000"/>
<path transform="matrix(1.00003,0,0,-1.00002,77.44495,89.81954)" stroke-width=".3985" stroke-linecap="butt" stroke-miterlimit="10" stroke-linejoin="miter" fill="none" stroke="#ff0000" d="M-12.04747-14.17339C-12.04747-12.99927-12.99927-12.04747-14.17339-12.04747-15.34752-12.04747-16.29932-12.99927-16.29932-14.17339-16.29932-15.34752-15.34752-16.29932-14.17339-16.29932-12.99927-16.29932-12.04747-15.34752-12.04747-14.17339ZM-14.17339-14.17339"/>
</svg>
