<svg xmlns="http://www.w3.org/2000/svg" xmlns:xlink="http://www.w3.org/1999/xlink" version="1.1" width="223" height="203" viewBox="0 0 223 203">
<defs>
<path id="font_1_1" d="M.33399964 .30233766C.33999635 .32835389 .36299134 .42037965 .43299867 .42037965 .43798829 .42037965 .46199037 .42037965 .48298646 .40734864 .45498658 .402359 .43499757 .37734986 .43499757 .35334779 .43499757 .33735658 .44599916 .31835938 .47299195 .31835938 .49499513 .31835938 .5269928 .3363495 .5269928 .37635804 .5269928 .42837525 .46798707 .4423828 .43399049 .4423828 .37599183 .4423828 .34098817 .38935853 .32899476 .36634828 .3039856 .43237306 .25 .4423828 .22099304 .4423828 .116989139 .4423828 .05999756 .3133545 .05999756 .28834535 .05999756 .27833558 .069992069 .27833558 .07199097 .27833558 .07998657 .27833558 .08299255 .28033448 .084991458 .28933717 .11898804 .39535523 .18499756 .42037965 .21899414 .42037965 .23799134 .42037965 .272995 .4113617 .272995 .35334779 .272995 .32235719 .2559967 .25532533 .21899414 .11528015 .20298767 .053268434 .16799927 .011245728 .12399292 .011245728 .117996219 .011245728 .09498596 .011245728 .07398987 .024276734 .09899902 .029266358 .12098694 .05027771 .12098694 .07827759 .12098694 .105270389 .09899902 .11328125 .083999637 .11328125 .053985597 .11328125 .0289917 .08728027 .0289917 .055267335 .0289917 .009246826 .07899475-.0107421879 .12298584-.0107421879 .18899536-.0107421879 .22499085 .059280397 .22799683 .0652771 .23999024 .028274537 .27598573-.0107421879 .33599855-.0107421879 .43899537-.0107421879 .49598695 .118270877 .49598695 .14328003 .49598695 .1532898 .4869995 .1532898 .48399354 .1532898 .47499085 .1532898 .47299195 .14929199 .47099305 .14228821 .43798829 .03527832 .36999513 .011245728 .33799745 .011245728 .29899598 .011245728 .2829895 .043273927 .2829895 .07727051 .2829895 .09927368 .2889862 .121276859 .2999878 .16529846L.33399964 .30233766Z"/>
<path id="font_1_2" d="M.48599244 .38136292C.48999024 .39537049 .48999024 .39736939 .48999024 .40437318 .48999024 .42237855 .47599793 .43138124 .46099855 .43138124 .45098878 .43138124 .43499757 .42536927 .42599488 .41036988 .42399598 .405365 .41600038 .37435914 .4119873 .35635377 .40499879 .33035279 .397995 .30334474 .3919983 .27633668L.34700013 .09628296C.34298707 .08126831 .2999878 .011245728 .23399353 .011245728 .18299866 .011245728 .17199707 .055267335 .17199707 .0922699 .17199707 .1382904 .18899536 .20030213 .22299195 .28833009 .23899842 .3293457 .24299622 .3403473 .24299622 .36035157 .24299622 .405365 .21099854 .4423828 .16099549 .4423828 .06599426 .4423828 .0289917 .29733277 .0289917 .28833009 .0289917 .27833558 .038986207 .27833558 .040985109 .27833558 .050994874 .27833558 .051986696 .28033448 .056991579 .29634095 .083999637 .3903656 .12399292 .42037965 .1579895 .42037965 .1659851 .42037965 .18299866 .42037965 .18299866 .3883667 .18299866 .36335755 .17298889 .3373413 .1659851 .31834413 .12599182 .21231079 .10798645 .1552887 .10798645 .10827637 .10798645 .019256592 .17098999-.0107421879 .22999573-.0107421879 .2689972-.0107421879 .30299378 .0062561037 .33099366 .03425598 .31799317-.017745972 .30599977-.06674194 .2659912-.11973572 .23999024-.15385437 .20199585-.18309021 .1559906-.18309021 .14199829-.18309021 .09700012-.18005371 .07998657-.14074707 .09599304-.14074707 .10899353-.14074707 .12298584-.1287384 .1329956-.11973572 .14299011-.10673523 .14299011-.08773804 .14299011-.056747438 .115997318-.052734376 .10598755-.052734376 .08299255-.052734376 .049987794-.068740848 .049987794-.11773682 .049987794-.16796875 .09399414-.20507813 .1559906-.20507813 .25898744-.20507813 .3619995-.11373901 .3899994-.00074768069L.48599244 .38136292Z"/>
<path id="font_2_1" d="M.6589966 .23046875C.6759949 .23046875 .69400027 .23046875 .69400027 .25045777 .69400027 .27046205 .6759949 .27046205 .6589966 .27046205H.117996219C.100997928 .27046205 .08299255 .27046205 .08299255 .25045777 .08299255 .23046875 .100997928 .23046875 .117996219 .23046875H.6589966Z"/>
<path id="font_3_2" d="M.2939911 .64004519C.2939911 .66400149 .2939911 .6660156 .2709961 .6660156 .20899964 .60227969 .12098694 .60227969 .08898926 .60227969V.57128909C.10899353 .57128909 .16799927 .57128909 .21998596 .5972748V.07902527C.21998596 .042999269 .21699524 .0309906 .1269989 .0309906H.09498596V0C.12998963 .0029907227 .21699524 .0029907227 .25698854 .0029907227 .29699708 .0029907227 .38398744 .0029907227 .4189911 0V.0309906H.3869934C.29699708 .0309906 .2939911 .041992189 .2939911 .07902527V.64004519Z"/>
<path id="font_3_1" d="M.45999146 .31976319C.45999146 .39982606 .45498658 .47988893 .41999818 .5539398 .37399293 .65000918 .2919922 .6660156 .25 .6660156 .18998719 .6660156 .116989139 .64001467 .07598877 .54693606 .04399109 .47789 .038986207 .39982606 .038986207 .31976319 .038986207 .24472046 .042999269 .15464783 .083999637 .07859802 .1269989-.0024719239 .19999695-.022460938 .24899292-.022460938 .30299378-.022460938 .3789978-.0014648438 .4229889 .09359741 .45498658 .16265869 .45999146 .2407074 .45999146 .31976319M.24899292-.00047302247C.20999146-.00047302247 .15098572 .024551392 .1329956 .12062073 .12199402 .18066406 .12199402 .2727356 .12199402 .3317871 .12199402 .39582826 .12199402 .46188355 .12998963 .5159149 .14898682 .63500979 .22399903 .64401248 .24899292 .64401248 .28199769 .64401248 .34799195 .6259918 .36698915 .52693179 .3769989 .47088624 .3769989 .39482118 .3769989 .3317871 .3769989 .25672914 .3769989 .18867493 .3659973 .12461853 .35099793 .029556275 .2939911-.00047302247 .24899292-.00047302247Z"/>
<path id="font_3_3" d="M.2939911 .16503906V.07800293C.2939911 .041992189 .2919922 .0309906 .21798706 .0309906H.19699097V0C.23799134 .0029907227 .2899933 .0029907227 .33198548 .0029907227 .37399293 .0029907227 .4269867 .0029907227 .46798707 0V.0309906H.44699098C.37298585 .0309906 .37098695 .041992189 .37098695 .07800293V.16503906H.47099305V.19602967H.37098695V.65075686C.37098695 .67074587 .37098695 .6767578 .35499574 .6767578 .34599305 .6767578 .34298707 .6767578 .33499146 .66474917L.027999878 .19602967V.16503906H.2939911M.2999878 .19602967H.055999757L.2999878 .5688019V.19602967Z"/>
<path id="font_3_4" d="M.44898988 .20022583C.44898988 .3193512 .36698915 .41944886 .25898744 .41944886 .21099854 .41944886 .16799927 .40345765 .13198853 .36842347V.5637665C.1519928 .5577698 .18499756 .55078127 .21699524 .55078127 .33999635 .55078127 .4099884 .6417694 .4099884 .6547699 .4099884 .6607666 .40699769 .6657715 .3999939 .6657715 .39898683 .6657715 .39698792 .6657715 .3919983 .66278079 .37199403 .6537781 .32299806 .6337738 .2559967 .6337738 .21598816 .6337738 .16999817 .6407776 .12298584 .6617737 .114990238 .66477969 .11299133 .66477969 .11099243 .66477969 .100997928 .66477969 .100997928 .6567688 .100997928 .6407776V.34439088C.100997928 .32637025 .100997928 .31835938 .114990238 .31835938 .12199402 .31835938 .12399292 .32136537 .12799073 .32736207 .13899231 .3433838 .17599488 .39746095 .25698854 .39746095 .30899049 .39746095 .33399964 .35139466 .34199525 .33337403 .35798646 .29632569 .3600006 .25727845 .3600006 .20722962 .3600006 .17222595 .3600006 .11222839 .33599855 .07035828 .31199647 .031463624 .2749939 .0055389406 .22898865 .0055389406 .1559906 .0055389406 .09899902 .058380128 .08198547 .11723328 .084991458 .1162262 .08799744 .115234378 .09899902 .115234378 .13198853 .115234378 .14898682 .14022827 .14898682 .16423035 .14898682 .18823242 .13198853 .21322632 .09899902 .21322632 .084991458 .21322632 .049987794 .20622254 .049987794 .16023255 .049987794 .07434082 .11898804-.022460938 .23098755-.022460938 .34700013-.022460938 .44898988 .073349 .44898988 .20022583Z"/>
<path id="font_3_5" d="M.13198853 .327713V.35173036C.13198853 .6047821 .2559967 .64100649 .30699159 .64100649 .33099366 .64100649 .37298585 .634964 .394989 .6007538 .37998963 .6007538 .33999635 .6007538 .33999635 .5557556 .33999635 .524765 .3639984 .5097656 .38598634 .5097656 .4019928 .5097656 .43199159 .51875308 .43199159 .5577545 .43199159 .6178589 .3880005 .6660156 .30499269 .6660156 .1769867 .6660156 .041992189 .5367584 .041992189 .31570436 .041992189 .048553468 .1579895-.022460938 .25099183-.022460938 .3619995-.022460938 .45700074 .07156372 .45700074 .2036438 .45700074 .33070375 .36799623 .4267578 .25698854 .4267578 .18899536 .4267578 .1519928 .37573243 .13198853 .327713M.25099183 .0055389406C.18798828 .0055389406 .1579895 .06556702 .1519928 .080566409 .13398743 .127594 .13398743 .2076416 .13398743 .22564698 .13398743 .30369569 .1659851 .40374757 .2559967 .40374757 .27198792 .40374757 .31799317 .40374757 .34899903 .34172059 .36698915 .30470277 .36698915 .2536621 .36698915 .20463562 .36698915 .15661621 .36698915 .10658264 .34999085 .0705719 .31999208 .010528564 .27398683 .0055389406 .25099183 .0055389406Z"/>
</defs>
<path transform="matrix(1.00005,0,0,-1.00002,148.70153,109.37793)" stroke-width=".3985" stroke-linecap="butt" stroke-miterlimit="10" stroke-linejoin="miter" fill="none" stroke="#00aeef" d="M-147.40114-90.70839H56.69275M-147.40114-79.36984H56.69275M-147.40114-68.0313H56.69275M-147.40114-56.69275H56.69275M-147.40114-45.35419H56.69275M-147.40114-34.01564H56.69275M-147.40114-22.6771H56.69275M-147.40114-11.33855H56.69275M-147.40114 0H56.69275M-147.40114 11.33855H56.69275M-147.40114 22.6771H56.69275M-147.40114 34.01564H56.69275M-147.40114 45.35419H56.69275M-147.40114 56.69275H56.69275M-147.40114 68.0313H56.69275M-147.40114 79.36984H56.69275M-147.40114 90.7044H56.69275M-147.40114-90.70839V90.70839M-136.06259-90.70839V90.70839M-124.72404-90.70839V90.70839M-113.3855-90.70839V90.70839M-102.04694-90.70839V90.70839M-90.70839-90.70839V90.70839M-79.36984-90.70839V90.70839M-68.0313-90.70839V90.70839M-56.69275-90.70839V90.70839M-45.35419-90.70839V90.70839M-34.01564-90.70839V90.70839M-22.6771-90.70839V90.70839M-11.33855-90.70839V90.70839M0-90.70839V90.70839M11.33855-90.70839V90.70839M22.6771-90.70839V90.70839M34.01564-90.70839V90.70839M45.35419-90.70839V90.70839M56.68877-90.70839V90.70839M56.69275 90.70839"/>
<path transform="matrix(1.00005,0,0,-1.00002,148.70153,109.37793)" stroke-width=".79701" stroke-linecap="butt" stroke-miterlimit="10" stroke-linejoin="miter" fill="none" stroke="#000000" d="M-147.40114 0H62.06133"/>
<path transform="matrix(1.00005,0,0,-1.00002,210.76596,109.37793)" d="M1.0361 0C-.25902 .25902-1.55415 .77707-3.1083 1.68365-1.55415 .51805-1.55415-.51805-3.1083-1.68365-1.55415-.77707-.25902-.25902 1.0361 0Z"/>
<path transform="matrix(1.00005,0,0,-1.00002,210.76596,109.37793)" stroke-width=".79701" stroke-linecap="butt" stroke-linejoin="round" fill="none" stroke="#000000" d="M1.0361 0C-.25902 .25902-1.55415 .77707-3.1083 1.68365-1.55415 .51805-1.55415-.51805-3.1083-1.68365-1.55415-.77707-.25902-.25902 1.0361 0Z"/>
<use data-text="x" xlink:href="#font_1_1" transform="matrix(9.963098,0,0,-9.962799,215.91988,111.52297)"/>
<path transform="matrix(1.00005,0,0,-1.00002,148.70153,109.37793)" stroke-width=".79701" stroke-linecap="butt" stroke-miterlimit="10" stroke-linejoin="miter" fill="none" stroke="#000000" d="M0-90.70839V96.07698"/>
<path transform="matrix(0,-1.00002,-1.00005,-0,148.70153,13.2990269)" d="M1.0361 0C-.25902 .25902-1.55415 .77707-3.1083 1.68365-1.55415 .51805-1.55415-.51805-3.1083-1.68365-1.55415-.77707-.25902-.25902 1.0361 0Z"/>
<path transform="matrix(0,-1.00002,-1.00005,-0,148.70153,13.2990269)" stroke-width=".79701" stroke-linecap="butt" stroke-linejoin="round" fill="none" stroke="#000000" d="M1.0361 0C-.25902 .25902-1.55415 .77707-3.1083 1.68365-1.55415 .51805-1.55415-.51805-3.1083-1.68365-1.55415-.77707-.25902-.25902 1.0361 0Z"/>
<use data-text="y" xlink:href="#font_1_2" transform="matrix(9.963098,0,0,-9.962799,146.08039,6.207863)"/>
<path transform="matrix(1.00005,0,0,-1.00002,148.70153,109.37793)" stroke-width=".3985" stroke-linecap="butt" stroke-miterlimit="10" stroke-linejoin="miter" fill="none" stroke="#000000" d="M-113.3855 1.13391V-1.13374"/>
<path transform="matrix(1.00005,0,0,-1.00002,148.70153,109.37793)" d="M-123.2376-12.56877H-103.5334V-3.3255406H-123.2376Z" fill="#ffffff"/>
<use data-text="&#x2212;" xlink:href="#font_2_1" transform="matrix(9.963098,0,0,-9.962799,26.454422,120.12015)"/>
<use data-text="1" xlink:href="#font_3_2" transform="matrix(9.963098,0,0,-9.962799,34.20381,120.12015)"/>
<use data-text="0" xlink:href="#font_3_1" transform="matrix(9.963098,0,0,-9.962799,39.18535,120.12015)"/>
<path transform="matrix(1.00005,0,0,-1.00002,148.70153,109.37793)" stroke-width=".3985" stroke-linecap="butt" stroke-miterlimit="10" stroke-linejoin="miter" fill="none" stroke="#000000" d="M-45.35419 1.13391V-1.13374"/>
<path transform="matrix(1.00005,0,0,-1.00002,148.70153,109.37793)" d="M-52.71558-12.56877H-37.992799V-3.3255406H-52.71558Z" fill="#ffffff"/>
<use data-text="&#x2212;" xlink:href="#font_2_1" transform="matrix(9.963098,0,0,-9.962799,96.979938,120.12015)"/>
<use data-text="4" xlink:href="#font_3_3" transform="matrix(9.963098,0,0,-9.962799,104.729328,120.12015)"/>
<path transform="matrix(1.00005,0,0,-1.00002,148.70153,109.37793)" stroke-width=".3985" stroke-linecap="butt" stroke-miterlimit="10" stroke-linejoin="miter" fill="none" stroke="#000000" d="M56.69275 1.13391V-1.13374"/>
<path transform="matrix(1.00005,0,0,-1.00002,148.70153,109.37793)" d="M53.20578-11.73854H60.179719V-3.3255597H53.20578Z" fill="#ffffff"/>
<use data-text="5" xlink:href="#font_3_4" transform="matrix(9.963098,0,0,-9.962799,202.90624,120.12015)"/>
<path transform="matrix(1.00005,0,0,-1.00002,148.70153,109.37793)" stroke-width=".3985" stroke-linecap="butt" stroke-miterlimit="10" stroke-linejoin="miter" fill="none" stroke="#000000" d="M1.13391-68.0313H-1.13374"/>
<path transform="matrix(1.00005,0,0,-1.00002,148.70153,109.37793)" d="M-18.04832-72.65291H-3.3255406V-63.40968H-18.04832Z" fill="#ffffff"/>
<use data-text="&#x2212;" xlink:href="#font_2_1" transform="matrix(9.963098,0,0,-9.962799,131.64867,180.20536)"/>
<use data-text="6" xlink:href="#font_3_5" transform="matrix(9.963098,0,0,-9.962799,139.39806,180.20536)"/>
<path transform="matrix(1.00005,0,0,-1.00002,148.70153,109.37793)" stroke-width=".3985" stroke-linecap="butt" stroke-miterlimit="10" stroke-linejoin="miter" fill="none" stroke="#000000" d="M1.13391 68.0313H-1.13374"/>
<path transform="matrix(1.00005,0,0,-1.00002,148.70153,109.37793)" d="M-10.29948 63.8248H-3.3255406V72.23778H-10.29948Z" fill="#ffffff"/>
<use data-text="6" xlink:href="#font_3_5" transform="matrix(9.963098,0,0,-9.962799,139.39806,44.555635)"/>
<g>
<path transform="matrix(1.00005,0,0,-1.00002,148.70153,109.37793)" d="M-84.63202-34.01564V34.01564H-6.07635V-34.01564ZM-6.07635 34.01564" fill="#42c8f4" fill-opacity=".3"/>
<path transform="matrix(1.00005,0,0,-1.00002,148.70153,109.37793)" stroke-width="1.19553" stroke-linecap="butt" stroke-miterlimit="10" stroke-linejoin="miter" fill="none" stroke="#42c8f4" stroke-opacity=".3" d="M-84.63202-34.01564V34.01564H-6.07635V-34.01564ZM-6.07635 34.01564"/>
</g>
<path transform="matrix(1.00005,0,0,-1.00002,148.70153,109.37793)" stroke-width=".3985" stroke-linecap="butt" stroke-dasharray="2.98883,2.98883" stroke-miterlimit="10" stroke-linejoin="miter" fill="none" stroke="#929292" d="M-147.40114-88.37704 56.69275 88.37704"/>
<path transform="matrix(1.00005,0,0,-1.00002,148.70153,109.37793)" stroke-width=".3985" stroke-linecap="butt" stroke-dasharray="2.98883,2.98883" stroke-miterlimit="10" stroke-linejoin="miter" fill="none" stroke="#929292" d="M-147.40114 88.37704 56.69275-88.37704"/>
<path transform="matrix(1.00005,0,0,-1.00002,148.70153,109.37793)" d="M-44.22026 0C-44.22026 .62624-44.72794 1.13391-45.35419 1.13391-45.98042 1.13391-46.4881 .62624-46.4881 0-46.4881-.62624-45.98042-1.13391-45.35419-1.13391-44.72794-1.13391-44.22026-.62624-44.22026 0ZM-45.35419 0"/>
<path transform="matrix(1.00005,0,0,-1.00002,148.70153,109.37793)" stroke-width=".3985" stroke-linecap="butt" stroke-miterlimit="10" stroke-linejoin="miter" fill="none" stroke="#000000" d="M-44.22026 0C-44.22026 .62624-44.72794 1.13391-45.35419 1.13391-45.98042 1.13391-46.4881 .62624-46.4881 0-46.4881-.62624-45.98042-1.13391-45.35419-1.13391-44.72794-1.13391-44.22026-.62624-44.22026 0ZM-45.35419 0"/>
<path transform="matrix(1.00005,0,0,-1.00002,148.70153,109.37793)" stroke-width="1.19553" stroke-linecap="butt" stroke-miterlimit="10" stroke-linejoin="miter" fill="none" stroke="#ff0000" d="M-142.37665 90.64949C-139.94519 88.69905-139.94519 88.69905-138.4981 87.54451-137.051 86.38997-134.78787 84.59184-133.40789 83.50017-132.02791 82.4085-129.86904 80.70781-128.55213 79.67642-127.2352 78.645-125.17381 77.0403-123.91643 76.06651-122.65903 75.09271-120.69041 73.57698-119.48972 72.65799-118.28903 71.739-116.41048 70.30963-115.26268 69.44307-114.11487 68.5765-112.31522 67.22884-111.21712 66.4124-110.11903 65.59596-108.39882 64.32729-107.34839 63.55875-106.29794 62.79019-104.65245 61.59592-103.64627 60.87325-102.6401 60.15057-101.06099 59.02873-100.09657 58.3502-99.13214 57.67168-97.62035 56.6192-96.69531 55.98288-95.77028 55.34653-94.31839 54.35997-93.42953 53.76398-92.54066 53.16798-91.14326 52.24442-90.28902 51.68732-89.43474 51.1302-88.0946 50.26807-87.27252 49.7487-86.45045 49.22934-85.15657 48.42744-84.36401 47.944-83.57147 47.46057-82.32512 46.71335-81.56035 46.2644-80.79558 45.81546-79.59102 45.12357-78.85202 44.70833-78.113 44.29309-76.94923 43.65439-76.23416 43.27164-75.51909 42.88889-74.39185 42.301-73.69832 41.94965-73.00479 41.59828-71.90913 41.06-71.23566 40.73924-70.56216 40.4185-69.4993 39.92892-68.84428 39.63786-68.18924 39.34677-67.15337 38.90366-66.51466 38.6413-65.87596 38.37895-64.86467 37.98132-64.24092 37.747-63.61719 37.51265-62.62955 37.15903-62.0191 36.95235-61.40866 36.74567-60.44054 36.4369-59.84123 36.25737-59.2419 36.07784-58.28934 35.81128-57.69966 35.65839-57.11002 35.50551-56.17233 35.2824-55.59134 35.15544-55.01035 35.02849-54.08644 34.84451-53.51225 34.74332-52.93805 34.64215-52.02193 34.50166-51.45288 34.4262-50.88383 34.35074-49.97612 34.24971-49.41098 34.19937-48.84586 34.14903-47.94276 34.08836-47.37982 34.06339-46.81686 34.03839-45.91469 34.01927-45.35367 34.01927-44.79263 34.01927-43.89806 34.03839-43.33633 34.06339-42.77461 34.08836-41.87056 34.14925-41.30516 34.19937-40.73979 34.2495-39.83043 34.34917-39.26138 34.42464-38.69234 34.5001-37.77802 34.64223-37.20392 34.74332-36.6298 34.84444-35.70453 35.02647-35.1236 35.15337-34.5427 35.28026-33.60632 35.50484-33.017 35.65787-32.42769 35.8109-31.47563 36.07707-30.87616 36.25632-30.27667 36.43556-29.30698 36.74338-28.69635 36.94975-28.08575 37.15616-27.09882 37.50977-26.47522 37.7439-25.85165 37.978-24.84056 38.37494-24.20201 38.63715-23.56349 38.89935-22.5282 39.34254-21.87311 39.6337-21.218 39.92485-20.15399 40.41486-19.4805 40.73563-18.807 41.05637-17.71233 41.59436-17.01904 41.9455-16.32579 42.29665-15.19887 42.88376-14.4839 43.26643-13.76892 43.64912-12.60497 44.28842-11.86604 44.70366-11.12712 45.1189-9.9231 45.8107-9.15823 46.25922-8.39336 46.70772-7.14565 47.45308-6.35335 47.93622-5.56105 48.41937-4.26962 49.22183-3.44777 49.74144-2.62593 50.26103-1.28442 51.1239-.43008 51.68108 .42422 52.23827 1.82109 53.16139 2.7097 53.75723 3.5983 54.35309 5.04907 55.33955 5.97427 55.9756 6.89949 56.61165 8.41367 57.663 9.37796 58.34137 10.34224 59.01976 11.91837 60.14255 12.9242 60.86493 13.93004 61.58731 15.57678 62.77965 16.62735 63.54784 17.67793 64.31602 19.39857 65.58514 20.4961 66.4015 21.5936 67.21788 23.38992 68.5653 24.53749 69.43166 25.68506 70.298 27.56602 71.72676 28.76695 72.64554 29.96788 73.5643 31.93608 75.07974 33.19296 76.05353 34.44984 77.02733 36.50911 78.63284 37.82573 79.66396 39.14233 80.69507 41.3021 82.39378 42.68217 83.4851 44.06226 84.57643 46.32547 86.37505 47.77237 87.52945 49.21928 88.68387 53.1105 91.80528 51.64955 90.6334"/>
<path transform="matrix(-.78004899,-.6257025,-.6257212,.7800256,6.3177645,18.726632)" d="M1.27522 0C-.31879 .31879-1.91284 .9564-3.8257 2.07224-1.91284 .6376-1.91284-.6376-3.8257-2.07224-1.91284-.9564-.31879-.31879 1.27522 0Z" fill="#ff0000"/>
<path transform="matrix(-.78004899,-.6257025,-.6257212,.7800256,6.3177645,18.726632)" stroke-width="1.19553" stroke-linecap="butt" stroke-linejoin="round" fill="none" stroke="#ff0000" d="M1.27522 0C-.31879 .31879-1.91284 .9564-3.8257 2.07224-1.91284 .6376-1.91284-.6376-3.8257-2.07224-1.91284-.9564-.31879-.31879 1.27522 0Z"/>
<path transform="matrix(.78004899,-.62568256,-.62570127,-.7800256,200.35366,18.742714)" d="M1.27522 0C-.31879 .31879-1.91284 .9564-3.8257 2.07224-1.91284 .6376-1.91284-.6376-3.8257-2.07224-1.91284-.9564-.31879-.31879 1.27522 0Z" fill="#ff0000"/>
<path transform="matrix(.78004899,-.62568256,-.62570127,-.7800256,200.35366,18.742714)" stroke-width="1.19553" stroke-linecap="butt" stroke-linejoin="round" fill="none" stroke="#ff0000" d="M1.27522 0C-.31879 .31879-1.91284 .9564-3.8257 2.07224-1.91284 .6376-1.91284-.6376-3.8257-2.07224-1.91284-.9564-.31879-.31879 1.27522 0Z"/>
<path transform="matrix(1.00005,0,0,-1.00002,148.70153,109.37793)" stroke-width="1.19553" stroke-linecap="butt" stroke-miterlimit="10" stroke-linejoin="miter" fill="none" stroke="#ff0000" d="M-142.37665-90.64949C-139.94519-88.69905-139.94519-88.69905-138.4981-87.54451-137.051-86.38997-134.78787-84.59184-133.40789-83.50017-132.02791-82.4085-129.86904-80.70781-128.55213-79.67642-127.2352-78.645-125.17381-77.0403-123.91643-76.06651-122.65903-75.09271-120.69041-73.57698-119.48972-72.65799-118.28903-71.739-116.41048-70.30963-115.26268-69.44307-114.11487-68.5765-112.31522-67.22884-111.21712-66.4124-110.11903-65.59596-108.39882-64.32729-107.34839-63.55875-106.29794-62.79019-104.65245-61.59592-103.64627-60.87325-102.6401-60.15057-101.06099-59.02873-100.09657-58.3502-99.13214-57.67168-97.62035-56.6192-96.69531-55.98288-95.77028-55.34653-94.31839-54.35997-93.42953-53.76398-92.54066-53.16798-91.14326-52.24442-90.28902-51.68732-89.43474-51.1302-88.0946-50.26807-87.27252-49.7487-86.45045-49.22934-85.15657-48.42744-84.36401-47.944-83.57147-47.46057-82.32512-46.71335-81.56035-46.2644-80.79558-45.81546-79.59102-45.12357-78.85202-44.70833-78.113-44.29309-76.94923-43.65439-76.23416-43.27164-75.51909-42.88889-74.39185-42.301-73.69832-41.94965-73.00479-41.59828-71.90913-41.06-71.23566-40.73924-70.56216-40.4185-69.4993-39.92892-68.84428-39.63786-68.18924-39.34677-67.15337-38.90366-66.51466-38.6413-65.87596-38.37895-64.86467-37.98132-64.24092-37.747-63.61719-37.51265-62.62955-37.15903-62.0191-36.95235-61.40866-36.74567-60.44054-36.4369-59.84123-36.25737-59.2419-36.07784-58.28934-35.81128-57.69966-35.65839-57.11002-35.50551-56.17233-35.2824-55.59134-35.15544-55.01035-35.02849-54.08644-34.84451-53.51225-34.74332-52.93805-34.64215-52.02193-34.50166-51.45288-34.4262-50.88383-34.35074-49.97612-34.24971-49.41098-34.19937-48.84586-34.14903-47.94276-34.08836-47.37982-34.06339-46.81686-34.03839-45.91469-34.01927-45.35367-34.01927-44.79263-34.01927-43.89806-34.03839-43.33633-34.06339-42.77461-34.08836-41.87056-34.14925-41.30516-34.19937-40.73979-34.2495-39.83043-34.34917-39.26138-34.42464-38.69234-34.5001-37.77802-34.64223-37.20392-34.74332-36.6298-34.84444-35.70453-35.02647-35.1236-35.15337-34.5427-35.28026-33.60632-35.50484-33.017-35.65787-32.42769-35.8109-31.47563-36.07707-30.87616-36.25632-30.27667-36.43556-29.30698-36.74338-28.69635-36.94975-28.08575-37.15616-27.09882-37.50977-26.47522-37.7439-25.85165-37.978-24.84056-38.37494-24.20201-38.63715-23.56349-38.89935-22.5282-39.34254-21.87311-39.6337-21.218-39.92485-20.15399-40.41486-19.4805-40.73563-18.807-41.05637-17.71233-41.59436-17.01904-41.9455-16.32579-42.29665-15.19887-42.88376-14.4839-43.26643-13.76892-43.64912-12.60497-44.28842-11.86604-44.70366-11.12712-45.1189-9.9231-45.8107-9.15823-46.25922-8.39336-46.70772-7.14565-47.45308-6.35335-47.93622-5.56105-48.41937-4.26962-49.22183-3.44777-49.74144-2.62593-50.26103-1.28442-51.1239-.43008-51.68108 .42422-52.23827 1.82109-53.16139 2.7097-53.75723 3.5983-54.35309 5.04907-55.33955 5.97427-55.9756 6.89949-56.61165 8.41367-57.663 9.37796-58.34137 10.34224-59.01976 11.91837-60.14255 12.9242-60.86493 13.93004-61.58731 15.57678-62.77965 16.62735-63.54784 17.67793-64.31602 19.39857-65.58514 20.4961-66.4015 21.5936-67.21788 23.38992-68.5653 24.53749-69.43166 25.68506-70.298 27.56602-71.72676 28.76695-72.64554 29.96788-73.5643 31.93608-75.07974 33.19296-76.05353 34.44984-77.02733 36.50911-78.63284 37.82573-79.66396 39.14233-80.69507 41.3021-82.39378 42.68217-83.4851 44.06226-84.57643 46.32547-86.37505 47.77237-87.52945 49.21928-88.68387 53.1105-91.80528 51.64955-90.6334"/>
<path transform="matrix(-.78004899,.6257025,.6257212,.7800256,6.3177645,200.02924)" d="M1.27522 0C-.31879 .31879-1.91284 .9564-3.8257 2.07224-1.91284 .6376-1.91284-.6376-3.8257-2.07224-1.91284-.9564-.31879-.31879 1.27522 0Z" fill="#ff0000"/>
<path transform="matrix(-.78004899,.6257025,.6257212,.7800256,6.3177645,200.02924)" stroke-width="1.19553" stroke-linecap="butt" stroke-linejoin="round" fill="none" stroke="#ff0000" d="M1.27522 0C-.31879 .31879-1.91284 .9564-3.8257 2.07224-1.91284 .6376-1.91284-.6376-3.8257-2.07224-1.91284-.9564-.31879-.31879 1.27522 0Z"/>
<path transform="matrix(.78004899,.62568256,.62570127,-.7800256,200.35366,200.01316)" d="M1.27522 0C-.31879 .31879-1.91284 .9564-3.8257 2.07224-1.91284 .6376-1.91284-.6376-3.8257-2.07224-1.91284-.9564-.31879-.31879 1.27522 0Z" fill="#ff0000"/>
<path transform="matrix(.78004899,.62568256,.62570127,-.7800256,200.35366,200.01316)" stroke-width="1.19553" stroke-linecap="butt" stroke-linejoin="round" fill="none" stroke="#ff0000" d="M1.27522 0C-.31879 .31879-1.91284 .9564-3.8257 2.07224-1.91284 .6376-1.91284-.6376-3.8257-2.07224-1.91284-.9564-.31879-.31879 1.27522 0Z"/>
</svg>
