<svg xmlns="http://www.w3.org/2000/svg" xmlns:xlink="http://www.w3.org/1999/xlink" version="1.1" width="180" height="143" viewBox="0 0 180 143">
<defs>
<path id="font_1_2" d="M.20599365 .3996582H.2999878C.31999208 .3996582 .32998658 .3996582 .32998658 .41966249 .32998658 .43066407 .31999208 .43066407 .3019867 .43066407H.21398926C.25 .5724945 .25498963 .59246829 .25498963 .59846499 .25498963 .61546328 .24299622 .62545779 .22599793 .62545779 .22299195 .62545779 .19499207 .62446597 .18598938 .58947756L.14698792 .43066407H.052993776C.032989503 .43066407 .022994996 .43066407 .022994996 .4116516 .022994996 .3996582 .0309906 .3996582 .050994874 .3996582H.13899231C.066986087 .11608887 .06298828 .099121097 .06298828 .08114624 .06298828 .02722168 .100997928-.0107421879 .15499878-.0107421879 .25698854-.0107421879 .31399537 .13505554 .31399537 .14305115 .31399537 .1530304 .30599977 .1530304 .3019867 .1530304 .29299928 .1530304 .2919922 .15003968 .2869873 .13905335 .24398804 .035217287 .19099427 .011245728 .15699768 .011245728 .13598633 .011245728 .12599182 .024230957 .12599182 .057174684 .12599182 .08114624 .12799073 .088134769 .13198853 .10510254L.20599365 .3996582Z"/>
<path id="font_1_1" d="M.30299378 .3157959H.47299195C.61499026 .3157959 .7539978 .41973878 .7539978 .53167727 .7539978 .6086273 .6879883 .6826172 .5569916 .6826172H.23298645C.21398926 .6826172 .20298767 .6826172 .20298767 .66360476 .20298767 .6516113 .21199036 .6516113 .23199463 .6516113 .24499512 .6516113 .2630005 .65060427 .2749939 .6496124 .29100038 .6476135 .29699708 .64460757 .29699708 .6336212 .29699708 .6296234 .29599 .62661746 .29299928 .614624L.15899658 .07795715C.14898682 .038986207 .14698792 .0309906 .067993167 .0309906 .050994874 .0309906 .039993287 .0309906 .039993287 .011993408 .039993287 0 .051986696 0 .054992677 0 .08299255 0 .1539917 .0029907227 .18199158 .0029907227 .20298767 .0029907227 .22499085 .0019989014 .24598694 .0019989014 .2679901 .0019989014 .2899933 0 .31098939 0 .31799317 0 .33099366 0 .33099366 .019989014 .33099366 .0309906 .32199098 .0309906 .30299378 .0309906 .2659912 .0309906 .23799134 .0309906 .23799134 .048980714 .23799134 .054977418 .23999024 .05996704 .24099732 .065963748L.30299378 .3157959M.375 .6136322C.38398744 .64860537 .38598634 .6516113 .42900086 .6516113H.5249939C.60798647 .6516113 .6609955 .62461856 .6609955 .55566409 .6609955 .5166931 .6409912 .43074037 .60198977 .39476014 .5519867 .34977723 .49198915 .34179688 .44799806 .34179688H.30699159L.375 .6136322Z"/>
<path id="font_2_4" d="M.2939911 .16503906V.07800293C.2939911 .041992189 .2919922 .0309906 .21798706 .0309906H.19699097V0C.23799134 .0029907227 .2899933 .0029907227 .33198548 .0029907227 .37399293 .0029907227 .4269867 .0029907227 .46798707 0V.0309906H.44699098C.37298585 .0309906 .37098695 .041992189 .37098695 .07800293V.16503906H.47099305V.19602967H.37098695V.65075686C.37098695 .67074587 .37098695 .6767578 .35499574 .6767578 .34599305 .6767578 .34298707 .6767578 .33499146 .66474917L.027999878 .19602967V.16503906H.2939911M.2999878 .19602967H.055999757L.2999878 .5688019V.19602967Z"/>
<path id="font_2_6" d="M.16299439 .4569702C.116989139 .486969 .11299133 .52098086 .11299133 .5379791 .11299133 .598999 .17799378 .64100649 .24899292 .64100649 .32199098 .64100649 .38598634 .58898928 .38598634 .51698306 .38598634 .45996095 .34700013 .4119568 .2869873 .37695313L.16299439 .4569702M.30899049 .36193849C.3809967 .3989563 .42999269 .45095826 .42999269 .51698306 .42999269 .6090088 .34098817 .6660156 .25 .6660156 .1499939 .6660156 .068984989 .59199526 .068984989 .49897767 .068984989 .4809723 .070999149 .43595887 .11299133 .38894654 .12399292 .37695313 .16099549 .35194398 .18598938 .33494569 .12799073 .30592347 .041992189 .24984741 .041992189 .15072632 .041992189 .04458618 .14399719-.022460938 .24899292-.022460938 .3619995-.022460938 .45700074 .06060791 .45700074 .16773987 .45700074 .20379639 .44599916 .24885559 .4079895 .2909088 .3889923 .31193543 .37298585 .3219452 .30899049 .36193849M.20899964 .3199463 .33198548 .24183655C.3600006 .2228241 .40699769 .19277954 .40699769 .13169861 .40699769 .05760193 .33198548 .0055389406 .25 .0055389406 .1639862 .0055389406 .09199524 .067611698 .09199524 .15072632 .09199524 .20880127 .12399292 .27288819 .20899964 .3199463Z"/>
<path id="font_2_2" d="M.2939911 .64004519C.2939911 .66400149 .2939911 .6660156 .2709961 .6660156 .20899964 .60227969 .12098694 .60227969 .08898926 .60227969V.57128909C.10899353 .57128909 .16799927 .57128909 .21998596 .5972748V.07902527C.21998596 .042999269 .21699524 .0309906 .1269989 .0309906H.09498596V0C.12998963 .0029907227 .21699524 .0029907227 .25698854 .0029907227 .29699708 .0029907227 .38398744 .0029907227 .4189911 0V.0309906H.3869934C.29699708 .0309906 .2939911 .041992189 .2939911 .07902527V.64004519Z"/>
<path id="font_2_3" d="M.1269989 .07699585 .23298645 .18003845C.3889923 .31811524 .44898988 .3721466 .44898988 .47216798 .44898988 .5860901 .35899354 .6660156 .23699951 .6660156 .12399292 .6660156 .049987794 .57411196 .049987794 .48516847 .049987794 .4291687 .099990848 .4291687 .102996829 .4291687 .11999512 .4291687 .15499878 .44117738 .15499878 .48217774 .15499878 .5081787 .13699341 .5341797 .101989749 .5341797 .09399414 .5341797 .09199524 .5341797 .08898926 .5331726 .11199951 .59806826 .1659851 .63500979 .22399903 .63500979 .31498719 .63500979 .35798646 .5541382 .35798646 .47216798 .35798646 .39215089 .30799867 .31311036 .25299073 .25108338L.06098938 .036987306C.049987794 .025985718 .049987794 .023986817 .049987794 0H.42099L.44898988 .17404175H.42399598C.4189911 .14402771 .4119873 .1000061 .4019928 .084991458 .394989 .07699585 .32899476 .07699585 .30699159 .07699585H.1269989Z"/>
<path id="font_2_5" d="M.13198853 .327713V.35173036C.13198853 .6047821 .2559967 .64100649 .30699159 .64100649 .33099366 .64100649 .37298585 .634964 .394989 .6007538 .37998963 .6007538 .33999635 .6007538 .33999635 .5557556 .33999635 .524765 .3639984 .5097656 .38598634 .5097656 .4019928 .5097656 .43199159 .51875308 .43199159 .5577545 .43199159 .6178589 .3880005 .6660156 .30499269 .6660156 .1769867 .6660156 .041992189 .5367584 .041992189 .31570436 .041992189 .048553468 .1579895-.022460938 .25099183-.022460938 .3619995-.022460938 .45700074 .07156372 .45700074 .2036438 .45700074 .33070375 .36799623 .4267578 .25698854 .4267578 .18899536 .4267578 .1519928 .37573243 .13198853 .327713M.25099183 .0055389406C.18798828 .0055389406 .1579895 .06556702 .1519928 .080566409 .13398743 .127594 .13398743 .2076416 .13398743 .22564698 .13398743 .30369569 .1659851 .40374757 .2559967 .40374757 .27198792 .40374757 .31799317 .40374757 .34899903 .34172059 .36698915 .30470277 .36698915 .2536621 .36698915 .20463562 .36698915 .15661621 .36698915 .10658264 .34999085 .0705719 .31999208 .010528564 .27398683 .0055389406 .25099183 .0055389406Z"/>
<path id="font_2_1" d="M.45999146 .31976319C.45999146 .39982606 .45498658 .47988893 .41999818 .5539398 .37399293 .65000918 .2919922 .6660156 .25 .6660156 .18998719 .6660156 .116989139 .64001467 .07598877 .54693606 .04399109 .47789 .038986207 .39982606 .038986207 .31976319 .038986207 .24472046 .042999269 .15464783 .083999637 .07859802 .1269989-.0024719239 .19999695-.022460938 .24899292-.022460938 .30299378-.022460938 .3789978-.0014648438 .4229889 .09359741 .45498658 .16265869 .45999146 .2407074 .45999146 .31976319M.24899292-.00047302247C.20999146-.00047302247 .15098572 .024551392 .1329956 .12062073 .12199402 .18066406 .12199402 .2727356 .12199402 .3317871 .12199402 .39582826 .12199402 .46188355 .12998963 .5159149 .14898682 .63500979 .22399903 .64401248 .24899292 .64401248 .28199769 .64401248 .34799195 .6259918 .36698915 .52693179 .3769989 .47088624 .3769989 .39482118 .3769989 .3317871 .3769989 .25672914 .3769989 .18867493 .3659973 .12461853 .35099793 .029556275 .2939911-.00047302247 .24899292-.00047302247Z"/>
</defs>
<path transform="matrix(1.00005,0,0,-1.00009,26.650628,129.06053)" stroke-width=".3985" stroke-linecap="butt" stroke-miterlimit="10" stroke-linejoin="miter" fill="none" stroke="#00aeef" d="M0 0H141.73404M0 14.17339H141.73404M0 28.3468H141.73404M0 42.5202H141.73404M0 56.69362H141.73404M0 70.867H141.73404M0 85.04042H141.73404M0 99.21382H141.73404M0 113.38225H141.73404M0 0V113.38724M14.17339 0V113.38724M28.3468 0V113.38724M42.5202 0V113.38724M56.69362 0V113.38724M70.867 0V113.38724M85.04042 0V113.38724M99.21382 0V113.38724M113.38724 0V113.38724M127.56062 0V113.38724M141.72905 0V113.38724M141.73404 113.38724"/>
<path transform="matrix(1.00005,0,0,-1.00009,26.650628,129.06053)" stroke-width=".79701" stroke-linecap="butt" stroke-miterlimit="10" stroke-linejoin="miter" fill="none" stroke="#000000" d="M0 0H148.80356"/>
<path transform="matrix(1.00005,0,0,-1.00009,175.46161,129.06053)" d="M1.0361 0C-.25902 .25902-1.55415 .77707-3.1083 1.68365-1.55415 .51805-1.55415-.51805-3.1083-1.68365-1.55415-.77707-.25902-.25902 1.0361 0Z"/>
<path transform="matrix(1.00005,0,0,-1.00009,175.46161,129.06053)" stroke-width=".79701" stroke-linecap="butt" stroke-linejoin="round" fill="none" stroke="#000000" d="M1.0361 0C-.25902 .25902-1.55415 .77707-3.1083 1.68365-1.55415 .51805-1.55415-.51805-3.1083-1.68365-1.55415-.77707-.25902-.25902 1.0361 0Z"/>
<use data-text="t" xlink:href="#font_1_2" transform="matrix(9.963098,0,0,-9.963496,175.09705,125.341197)"/>
<path transform="matrix(1.00005,0,0,-1.00009,26.650628,129.06053)" stroke-width=".79701" stroke-linecap="butt" stroke-miterlimit="10" stroke-linejoin="miter" fill="none" stroke="#000000" d="M0 0V120.45674"/>
<path transform="matrix(0,-1.00009,-1.00005,-0,26.650628,8.592949)" d="M1.0361 0C-.25902 .25902-1.55415 .77707-3.1083 1.68365-1.55415 .51805-1.55415-.51805-3.1083-1.68365-1.55415-.77707-.25902-.25902 1.0361 0Z"/>
<path transform="matrix(0,-1.00009,-1.00005,-0,26.650628,8.592949)" stroke-width=".79701" stroke-linecap="butt" stroke-linejoin="round" fill="none" stroke="#000000" d="M1.0361 0C-.25902 .25902-1.55415 .77707-3.1083 1.68365-1.55415 .51805-1.55415-.51805-3.1083-1.68365-1.55415-.77707-.25902-.25902 1.0361 0Z"/>
<use data-text="P" xlink:href="#font_1_1" transform="matrix(9.963098,0,0,-9.963496,15.151054,7.7276155)"/>
<path transform="matrix(1.00005,0,0,-1.00009,26.650628,129.06053)" stroke-width=".79701" stroke-linecap="butt" stroke-miterlimit="10" stroke-linejoin="miter" fill="none" stroke="#000000" d="M28.3468 2.12592V-2.12613"/>
<path transform="matrix(1.00005,0,0,-1.00009,26.650628,129.06053)" d="M24.85983-12.93018H31.83377V-4.5171997H24.85983Z" fill="#ffffff"/>
<use data-text="4" xlink:href="#font_2_4" transform="matrix(9.963098,0,0,-9.963496,52.50792,140.9956)"/>
<path transform="matrix(1.00005,0,0,-1.00009,26.650628,129.06053)" stroke-width=".79701" stroke-linecap="butt" stroke-miterlimit="10" stroke-linejoin="miter" fill="none" stroke="#000000" d="M56.69362 2.12592V-2.12613"/>
<path transform="matrix(1.00005,0,0,-1.00009,26.650628,129.06053)" d="M53.20665-12.93018H60.180589V-4.5171997H53.20665Z" fill="#ffffff"/>
<use data-text="8" xlink:href="#font_2_6" transform="matrix(9.963098,0,0,-9.963496,80.85634,140.9956)"/>
<path transform="matrix(1.00005,0,0,-1.00009,26.650628,129.06053)" stroke-width=".79701" stroke-linecap="butt" stroke-miterlimit="10" stroke-linejoin="miter" fill="none" stroke="#000000" d="M85.04042 2.12592V-2.12613"/>
<path transform="matrix(1.00005,0,0,-1.00009,26.650628,129.06053)" d="M79.06274-12.93018H91.018077V-4.5171997H79.06274Z" fill="#ffffff"/>
<use data-text="1" xlink:href="#font_2_2" transform="matrix(9.963098,0,0,-9.963496,106.71362,140.9956)"/>
<use data-text="2" xlink:href="#font_2_3" transform="matrix(9.963098,0,0,-9.963496,111.695178,140.9956)"/>
<path transform="matrix(1.00005,0,0,-1.00009,26.650628,129.06053)" stroke-width=".79701" stroke-linecap="butt" stroke-miterlimit="10" stroke-linejoin="miter" fill="none" stroke="#000000" d="M113.38724 2.12592V-2.12613"/>
<path transform="matrix(1.00005,0,0,-1.00009,26.650628,129.06053)" d="M107.40956-12.93018H119.3649V-4.5171997H107.40956Z" fill="#ffffff"/>
<use data-text="1" xlink:href="#font_2_2" transform="matrix(9.963098,0,0,-9.963496,135.06204,140.9956)"/>
<use data-text="6" xlink:href="#font_2_5" transform="matrix(9.963098,0,0,-9.963496,140.0436,140.9956)"/>
<path transform="matrix(1.00005,0,0,-1.00009,26.650628,129.06053)" stroke-width=".79701" stroke-linecap="butt" stroke-miterlimit="10" stroke-linejoin="miter" fill="none" stroke="#000000" d="M141.73404 2.12592V-2.12613"/>
<path transform="matrix(1.00005,0,0,-1.00009,26.650628,129.06053)" d="M135.75637-12.93018H147.7117V-4.5171997H135.75637Z" fill="#ffffff"/>
<use data-text="2" xlink:href="#font_2_3" transform="matrix(9.963098,0,0,-9.963496,163.41046,140.9956)"/>
<use data-text="0" xlink:href="#font_2_1" transform="matrix(9.963098,0,0,-9.963496,168.39203,140.9956)"/>
<path transform="matrix(1.00005,0,0,-1.00009,26.650628,129.06053)" stroke-width=".79701" stroke-linecap="butt" stroke-miterlimit="10" stroke-linejoin="miter" fill="none" stroke="#000000" d="M2.12592 28.3468H-2.12613"/>
<path transform="matrix(1.00005,0,0,-1.00009,26.650628,129.06053)" d="M-26.43533 24.1403H-4.517189V32.55328H-26.43533Z" fill="#ffffff"/>
<use data-text="2" xlink:href="#font_2_3" transform="matrix(9.963098,0,0,-9.963496,1.2103577,103.92127)"/>
<use data-text="0" xlink:href="#font_2_1" transform="matrix(9.963098,0,0,-9.963496,6.19191,103.92127)"/>
<use data-text="0" xlink:href="#font_2_1" transform="matrix(9.963098,0,0,-9.963496,11.173462,103.92127)"/>
<use data-text="0" xlink:href="#font_2_1" transform="matrix(9.963098,0,0,-9.963496,16.155007,103.92127)"/>
<path transform="matrix(1.00005,0,0,-1.00009,26.650628,129.06053)" stroke-width=".79701" stroke-linecap="butt" stroke-miterlimit="10" stroke-linejoin="miter" fill="none" stroke="#000000" d="M2.12592 56.69362H-2.12613"/>
<path transform="matrix(1.00005,0,0,-1.00009,26.650628,129.06053)" d="M-26.43533 52.48712H-4.517189V60.9001H-26.43533Z" fill="#ffffff"/>
<use data-text="4" xlink:href="#font_2_4" transform="matrix(9.963098,0,0,-9.963496,1.2103577,75.572719)"/>
<use data-text="0" xlink:href="#font_2_1" transform="matrix(9.963098,0,0,-9.963496,6.19191,75.572719)"/>
<use data-text="0" xlink:href="#font_2_1" transform="matrix(9.963098,0,0,-9.963496,11.173462,75.572719)"/>
<use data-text="0" xlink:href="#font_2_1" transform="matrix(9.963098,0,0,-9.963496,16.155007,75.572719)"/>
<path transform="matrix(1.00005,0,0,-1.00009,26.650628,129.06053)" stroke-width=".79701" stroke-linecap="butt" stroke-miterlimit="10" stroke-linejoin="miter" fill="none" stroke="#000000" d="M2.12592 85.04042H-2.12613"/>
<path transform="matrix(1.00005,0,0,-1.00009,26.650628,129.06053)" d="M-26.43533 80.83392H-4.517189V89.2469H-26.43533Z" fill="#ffffff"/>
<use data-text="6" xlink:href="#font_2_5" transform="matrix(9.963098,0,0,-9.963496,1.2103577,47.223169)"/>
<use data-text="0" xlink:href="#font_2_1" transform="matrix(9.963098,0,0,-9.963496,6.19191,47.223169)"/>
<use data-text="0" xlink:href="#font_2_1" transform="matrix(9.963098,0,0,-9.963496,11.173462,47.223169)"/>
<use data-text="0" xlink:href="#font_2_1" transform="matrix(9.963098,0,0,-9.963496,16.155007,47.223169)"/>
<path transform="matrix(1.00005,0,0,-1.00009,26.650628,129.06053)" stroke-width=".79701" stroke-linecap="butt" stroke-miterlimit="10" stroke-linejoin="miter" fill="none" stroke="#000000" d="M2.12592 113.38724H-2.12613"/>
<path transform="matrix(1.00005,0,0,-1.00009,26.650628,129.06053)" d="M-26.43533 109.18074H-4.517189V117.59372H-26.43533Z" fill="#ffffff"/>
<use data-text="8" xlink:href="#font_2_6" transform="matrix(9.963098,0,0,-9.963496,1.2103577,18.873612)"/>
<use data-text="0" xlink:href="#font_2_1" transform="matrix(9.963098,0,0,-9.963496,6.19191,18.873612)"/>
<use data-text="0" xlink:href="#font_2_1" transform="matrix(9.963098,0,0,-9.963496,11.173462,18.873612)"/>
<use data-text="0" xlink:href="#font_2_1" transform="matrix(9.963098,0,0,-9.963496,16.155007,18.873612)"/>
<path transform="matrix(1.00005,0,0,-1.00009,26.650628,129.06053)" stroke-width="1.19553" stroke-linecap="butt" stroke-miterlimit="10" stroke-linejoin="miter" fill="none" stroke="#ff0000" d="M0 113.38724C0 113.38724 1.60005 110.17493 2.21458 108.96841 2.82913 107.7619 3.81464 105.85287 4.42918 104.69148 5.04372 103.5301 6.02924 101.71349 6.64377 100.59795 7.25832 99.4824 8.24382 97.72475 8.85837 96.65146 9.4729 95.57817 10.45842 93.89154 11.07297 92.86243 11.6875 91.83331 12.67302 90.22406 13.28755 89.2343 13.9021 88.24455 14.8876 86.68106 15.50215 85.729 16.11668 84.77696 17.1022 83.28665 17.71674 82.37251 18.33128 81.45839 19.3168 80.01872 19.93134 79.1406 20.54588 78.26248 21.53139 76.88718 22.14594 76.04362 22.76047 75.20007 23.74599 73.87128 24.36052 73.06084 24.97507 72.25043 25.96057 70.9816 26.57512 70.20264 27.18965 69.42366 28.17517 68.19548 28.78972 67.4465 29.40425 66.69753 30.38977 65.52376 31.0043 64.80455 31.61885 64.08534 32.60435 62.95216 33.2189 62.26297 33.83344 61.57376 34.81895 60.4996 35.43349 59.8373 36.04803 59.17499 37.03355 58.1285 37.64809 57.48949 38.26263 56.85045 39.24814 55.84544 39.86269 55.23163 40.47722 54.61781 41.46274 53.65384 42.07727 53.06548 42.69182 52.4771 43.67732 51.55588 44.29187 50.99103 44.9064 50.4262 45.89192 49.53888 46.50647 48.99443 47.121 48.45 48.10654 47.58939 48.72107 47.06703 49.33562 46.54468 50.32112 45.7318 50.93567 45.22961 51.5502 44.72742 52.53572 43.93079 53.15025 43.44757 53.7648 42.96434 54.7503 42.2094 55.36485 41.74681 55.97939 41.28424 56.9649 40.55717 57.57945 40.11356 58.19398 39.66994 59.1795 38.97751 59.79404 38.5495 60.40858 38.12149 61.39409 37.44112 62.00864 37.0287 62.62317 36.61629 63.60869 35.972 64.22322 35.5771 64.83777 35.18222 65.82329 34.56187 66.43782 34.1826 67.05237 33.80331 68.03787 33.20497 68.65242 32.84346 69.26695 32.48193 70.25247 31.92627 70.867 31.577 71.48155 31.2277 72.46706 30.6648 73.0816 30.32608 73.69614 29.98737 74.68166 29.45981 75.2962 29.13574 75.91074 28.81168 76.89626 28.30052 77.51079 27.99037 78.12534 27.68022 79.11084 27.19781 79.72539 26.90039 80.33992 26.60297 81.32544 26.13455 81.93997 25.84673 82.55452 25.5589 83.54004 25.10127 84.15457 24.82593 84.76912 24.5506 85.75462 24.12654 86.36917 23.86223 86.9837 23.59795 87.96922 23.17596 88.58376 22.92104 89.1983 22.66609 90.1838 22.26895 90.79836 22.02481 91.41289 21.78069 92.3984 21.396 93.01295 21.16148 93.62749 20.92694 94.61302 20.56107 95.22755 20.33446 95.8421 20.10785 96.8276 19.74545 97.44215 19.52821 98.05669 19.31096 99.0422 18.97632 99.65674 18.76868 100.27129 18.56104 101.2568 18.23134 101.87134 18.03162 102.48587 17.8319 103.47139 17.51907 104.08594 17.32918 104.70047 17.13931 105.68599 16.84888 106.30052 16.66309 106.91507 16.47728 107.90057 16.16985 108.51512 15.99005 109.12965 15.81026 110.11517 15.53716 110.7297 15.3672 111.34425 15.19725 112.32977 14.92882 112.9443 14.76509 113.55885 14.60138 114.54436 14.34445 115.1589 14.18723 115.77344 14.02998 116.75896 13.78285 117.37349 13.63185 117.98804 13.48087 118.97354 13.24371 119.58809 13.09895 120.20262 12.95421 121.18814 12.72876 121.80269 12.58856 122.41722 12.4484 123.40274 12.22395 124.01727 12.08856 124.63182 11.95317 125.61732 11.74167 126.23187 11.61276 126.8464 11.48386 127.83192 11.28212 128.44646 11.15945 129.061 11.03679 130.04653 10.8482 130.66106 10.72865 131.2756 10.60912 132.26111 10.41283 132.87566 10.29784 133.49019 10.18288 134.47571 10.00865 135.09024 9.89992 135.70479 9.79118 136.69029 9.61948 137.30484 9.51408 137.91938 9.4087 138.90489 9.24046 139.51944 9.14038 140.13397 9.04027 141.73404 8.79262 139.88318 9.0791"/>
<path transform="matrix(.98823937,.15296377,.15295765,-.9882789,166.54077,119.98061)" d="M1.27522 0C-.31879 .31879-1.91284 .9564-3.8257 2.07224-1.91284 .6376-1.91284-.6376-3.8257-2.07224-1.91284-.9564-.31879-.31879 1.27522 0Z" fill="#ff0000"/>
<path transform="matrix(.98823937,.15296377,.15295765,-.9882789,166.54077,119.98061)" stroke-width="1.19553" stroke-linecap="butt" stroke-linejoin="round" fill="none" stroke="#ff0000" d="M1.27522 0C-.31879 .31879-1.91284 .9564-3.8257 2.07224-1.91284 .6376-1.91284-.6376-3.8257-2.07224-1.91284-.9564-.31879-.31879 1.27522 0Z"/>
</svg>
