<svg xmlns="http://www.w3.org/2000/svg" xmlns:xlink="http://www.w3.org/1999/xlink" version="1.1" width="244" height="266" viewBox="0 0 244 266">
<defs>
<path id="font_1_2" d="M.33399964 .30233766C.33999635 .32835389 .36299134 .42037965 .43299867 .42037965 .43798829 .42037965 .46199037 .42037965 .48298646 .40734864 .45498658 .402359 .43499757 .37734986 .43499757 .35334779 .43499757 .33735658 .44599916 .31835938 .47299195 .31835938 .49499513 .31835938 .5269928 .3363495 .5269928 .37635804 .5269928 .42837525 .46798707 .4423828 .43399049 .4423828 .37599183 .4423828 .34098817 .38935853 .32899476 .36634828 .3039856 .43237306 .25 .4423828 .22099304 .4423828 .116989139 .4423828 .05999756 .3133545 .05999756 .28834535 .05999756 .27833558 .069992069 .27833558 .07199097 .27833558 .07998657 .27833558 .08299255 .28033448 .084991458 .28933717 .11898804 .39535523 .18499756 .42037965 .21899414 .42037965 .23799134 .42037965 .272995 .4113617 .272995 .35334779 .272995 .32235719 .2559967 .25532533 .21899414 .11528015 .20298767 .053268434 .16799927 .011245728 .12399292 .011245728 .117996219 .011245728 .09498596 .011245728 .07398987 .024276734 .09899902 .029266358 .12098694 .05027771 .12098694 .07827759 .12098694 .105270389 .09899902 .11328125 .083999637 .11328125 .053985597 .11328125 .0289917 .08728027 .0289917 .055267335 .0289917 .009246826 .07899475-.0107421879 .12298584-.0107421879 .18899536-.0107421879 .22499085 .059280397 .22799683 .0652771 .23999024 .028274537 .27598573-.0107421879 .33599855-.0107421879 .43899537-.0107421879 .49598695 .118270877 .49598695 .14328003 .49598695 .1532898 .4869995 .1532898 .48399354 .1532898 .47499085 .1532898 .47299195 .14929199 .47099305 .14228821 .43798829 .03527832 .36999513 .011245728 .33799745 .011245728 .29899598 .011245728 .2829895 .043273927 .2829895 .07727051 .2829895 .09927368 .2889862 .121276859 .2999878 .16529846L.33399964 .30233766Z"/>
<path id="font_1_3" d="M.48599244 .38136292C.48999024 .39537049 .48999024 .39736939 .48999024 .40437318 .48999024 .42237855 .47599793 .43138124 .46099855 .43138124 .45098878 .43138124 .43499757 .42536927 .42599488 .41036988 .42399598 .405365 .41600038 .37435914 .4119873 .35635377 .40499879 .33035279 .397995 .30334474 .3919983 .27633668L.34700013 .09628296C.34298707 .08126831 .2999878 .011245728 .23399353 .011245728 .18299866 .011245728 .17199707 .055267335 .17199707 .0922699 .17199707 .1382904 .18899536 .20030213 .22299195 .28833009 .23899842 .3293457 .24299622 .3403473 .24299622 .36035157 .24299622 .405365 .21099854 .4423828 .16099549 .4423828 .06599426 .4423828 .0289917 .29733277 .0289917 .28833009 .0289917 .27833558 .038986207 .27833558 .040985109 .27833558 .050994874 .27833558 .051986696 .28033448 .056991579 .29634095 .083999637 .3903656 .12399292 .42037965 .1579895 .42037965 .1659851 .42037965 .18299866 .42037965 .18299866 .3883667 .18299866 .36335755 .17298889 .3373413 .1659851 .31834413 .12599182 .21231079 .10798645 .1552887 .10798645 .10827637 .10798645 .019256592 .17098999-.0107421879 .22999573-.0107421879 .2689972-.0107421879 .30299378 .0062561037 .33099366 .03425598 .31799317-.017745972 .30599977-.06674194 .2659912-.11973572 .23999024-.15385437 .20199585-.18309021 .1559906-.18309021 .14199829-.18309021 .09700012-.18005371 .07998657-.14074707 .09599304-.14074707 .10899353-.14074707 .12298584-.1287384 .1329956-.11973572 .14299011-.10673523 .14299011-.08773804 .14299011-.056747438 .115997318-.052734376 .10598755-.052734376 .08299255-.052734376 .049987794-.068740848 .049987794-.11773682 .049987794-.16796875 .09399414-.20507813 .1559906-.20507813 .25898744-.20507813 .3619995-.11373901 .3899994-.00074768069L.48599244 .38136292Z"/>
<path id="font_2_4" d="M.2939911 .16503906V.07800293C.2939911 .041992189 .2919922 .0309906 .21798706 .0309906H.19699097V0C.23799134 .0029907227 .2899933 .0029907227 .33198548 .0029907227 .37399293 .0029907227 .4269867 .0029907227 .46798707 0V.0309906H.44699098C.37298585 .0309906 .37098695 .041992189 .37098695 .07800293V.16503906H.47099305V.19602967H.37098695V.65075686C.37098695 .67074587 .37098695 .6767578 .35499574 .6767578 .34599305 .6767578 .34298707 .6767578 .33499146 .66474917L.027999878 .19602967V.16503906H.2939911M.2999878 .19602967H.055999757L.2999878 .5688019V.19602967Z"/>
<path id="font_2_1" d="M.45999146 .31976319C.45999146 .39982606 .45498658 .47988893 .41999818 .5539398 .37399293 .65000918 .2919922 .6660156 .25 .6660156 .18998719 .6660156 .116989139 .64001467 .07598877 .54693606 .04399109 .47789 .038986207 .39982606 .038986207 .31976319 .038986207 .24472046 .042999269 .15464783 .083999637 .07859802 .1269989-.0024719239 .19999695-.022460938 .24899292-.022460938 .30299378-.022460938 .3789978-.0014648438 .4229889 .09359741 .45498658 .16265869 .45999146 .2407074 .45999146 .31976319M.24899292-.00047302247C.20999146-.00047302247 .15098572 .024551392 .1329956 .12062073 .12199402 .18066406 .12199402 .2727356 .12199402 .3317871 .12199402 .39582826 .12199402 .46188355 .12998963 .5159149 .14898682 .63500979 .22399903 .64401248 .24899292 .64401248 .28199769 .64401248 .34799195 .6259918 .36698915 .52693179 .3769989 .47088624 .3769989 .39482118 .3769989 .3317871 .3769989 .25672914 .3769989 .18867493 .3659973 .12461853 .35099793 .029556275 .2939911-.00047302247 .24899292-.00047302247Z"/>
<path id="font_2_6" d="M.16299439 .4569702C.116989139 .486969 .11299133 .52098086 .11299133 .5379791 .11299133 .598999 .17799378 .64100649 .24899292 .64100649 .32199098 .64100649 .38598634 .58898928 .38598634 .51698306 .38598634 .45996095 .34700013 .4119568 .2869873 .37695313L.16299439 .4569702M.30899049 .36193849C.3809967 .3989563 .42999269 .45095826 .42999269 .51698306 .42999269 .6090088 .34098817 .6660156 .25 .6660156 .1499939 .6660156 .068984989 .59199526 .068984989 .49897767 .068984989 .4809723 .070999149 .43595887 .11299133 .38894654 .12399292 .37695313 .16099549 .35194398 .18598938 .33494569 .12799073 .30592347 .041992189 .24984741 .041992189 .15072632 .041992189 .04458618 .14399719-.022460938 .24899292-.022460938 .3619995-.022460938 .45700074 .06060791 .45700074 .16773987 .45700074 .20379639 .44599916 .24885559 .4079895 .2909088 .3889923 .31193543 .37298585 .3219452 .30899049 .36193849M.20899964 .3199463 .33198548 .24183655C.3600006 .2228241 .40699769 .19277954 .40699769 .13169861 .40699769 .05760193 .33198548 .0055389406 .25 .0055389406 .1639862 .0055389406 .09199524 .067611698 .09199524 .15072632 .09199524 .20880127 .12399292 .27288819 .20899964 .3199463Z"/>
<path id="font_2_7" d="M.68699648 .32714845C.70199587 .32714845 .72099307 .32714845 .72099307 .34713746 .72099307 .36714173 .70199587 .36714173 .6879883 .36714173H.08898926C.07499695 .36714173 .055999757 .36714173 .055999757 .34713746 .055999757 .32714845 .07499695 .32714845 .08999634 .32714845H.68699648M.6879883 .13284302C.70199587 .13284302 .72099307 .13284302 .72099307 .15284729 .72099307 .17285156 .70199587 .17285156 .68699648 .17285156H.08999634C.07499695 .17285156 .055999757 .17285156 .055999757 .15284729 .055999757 .13284302 .07499695 .13284302 .08898926 .13284302H.6879883Z"/>
<path id="font_2_3" d="M.1269989 .07699585 .23298645 .18003845C.3889923 .31811524 .44898988 .3721466 .44898988 .47216798 .44898988 .5860901 .35899354 .6660156 .23699951 .6660156 .12399292 .6660156 .049987794 .57411196 .049987794 .48516847 .049987794 .4291687 .099990848 .4291687 .102996829 .4291687 .11999512 .4291687 .15499878 .44117738 .15499878 .48217774 .15499878 .5081787 .13699341 .5341797 .101989749 .5341797 .09399414 .5341797 .09199524 .5341797 .08898926 .5331726 .11199951 .59806826 .1659851 .63500979 .22399903 .63500979 .31498719 .63500979 .35798646 .5541382 .35798646 .47216798 .35798646 .39215089 .30799867 .31311036 .25299073 .25108338L.06098938 .036987306C.049987794 .025985718 .049987794 .023986817 .049987794 0H.42099L.44898988 .17404175H.42399598C.4189911 .14402771 .4119873 .1000061 .4019928 .084991458 .394989 .07699585 .32899476 .07699585 .30699159 .07699585H.1269989Z"/>
<path id="font_3_2" d="M.673996 .3241577C.6879883 .33015443 .69400027 .3371582 .69400027 .3461609 .69400027 .35617066 .6899872 .36216737 .673996 .36917115L.12298584 .62919619C.10899353 .63619998 .10499573 .63619998 .102996829 .63619998 .09098816 .63619998 .08299255 .62719729 .08299255 .61621096 .08299255 .6042023 .09098816 .5991974 .101989749 .59420779L.6269989 .34716798 .10398865 .100128177C.083999637 .09112549 .08299255 .083114627 .08299255 .07711792 .08299255 .06611633 .09199524 .057113649 .102996829 .057113649 .10598755 .057113649 .10798645 .057113649 .12098694 .06411743L.673996 .3241577M.6589966-.13671875C.6759949-.13671875 .69400027-.13671875 .69400027-.11672974 .69400027-.096725467 .6729889-.096725467 .6579895-.096725467H.11898804C.10398865-.096725467 .08299255-.096725467 .08299255-.11672974 .08299255-.13671875 .100997928-.13671875 .117996219-.13671875H.6589966Z"/>
<path id="font_2_5" d="M.13198853 .327713V.35173036C.13198853 .6047821 .2559967 .64100649 .30699159 .64100649 .33099366 .64100649 .37298585 .634964 .394989 .6007538 .37998963 .6007538 .33999635 .6007538 .33999635 .5557556 .33999635 .524765 .3639984 .5097656 .38598634 .5097656 .4019928 .5097656 .43199159 .51875308 .43199159 .5577545 .43199159 .6178589 .3880005 .6660156 .30499269 .6660156 .1769867 .6660156 .041992189 .5367584 .041992189 .31570436 .041992189 .048553468 .1579895-.022460938 .25099183-.022460938 .3619995-.022460938 .45700074 .07156372 .45700074 .2036438 .45700074 .33070375 .36799623 .4267578 .25698854 .4267578 .18899536 .4267578 .1519928 .37573243 .13198853 .327713M.25099183 .0055389406C.18798828 .0055389406 .1579895 .06556702 .1519928 .080566409 .13398743 .127594 .13398743 .2076416 .13398743 .22564698 .13398743 .30369569 .1659851 .40374757 .2559967 .40374757 .27198792 .40374757 .31799317 .40374757 .34899903 .34172059 .36698915 .30470277 .36698915 .2536621 .36698915 .20463562 .36698915 .15661621 .36698915 .10658264 .34999085 .0705719 .31999208 .010528564 .27398683 .0055389406 .25099183 .0055389406Z"/>
<path id="font_2_2" d="M.2939911 .64004519C.2939911 .66400149 .2939911 .6660156 .2709961 .6660156 .20899964 .60227969 .12098694 .60227969 .08898926 .60227969V.57128909C.10899353 .57128909 .16799927 .57128909 .21998596 .5972748V.07902527C.21998596 .042999269 .21699524 .0309906 .1269989 .0309906H.09498596V0C.12998963 .0029907227 .21699524 .0029907227 .25698854 .0029907227 .29699708 .0029907227 .38398744 .0029907227 .4189911 0V.0309906H.3869934C.29699708 .0309906 .2939911 .041992189 .2939911 .07902527V.64004519Z"/>
<path id="font_1_1" d="M.20298767 .0009918213C.20298767 .066986087 .17799378 .10598755 .13899231 .10598755 .10598755 .10598755 .085998538 .08099365 .085998538 .052993776 .085998538 .025985718 .10598755 0 .13899231 0 .15098572 0 .1639862 .0039978029 .17399597 .0129852299 .1769867 .01499939 .17799378 .015991211 .1789856 .015991211 .17999268 .015991211 .18099976 .01499939 .18099976 .0009918213 .18099976-.07316589 .1459961-.13328552 .11299133-.16635132 .101989749-.17736817 .101989749-.17936707 .101989749-.18237305 .101989749-.18936157 .10699463-.19335938 .11199951-.19335938 .12298584-.19335938 .20298767-.116256717 .20298767 .0009918213Z"/>
<path id="font_3_1" d="M.6589966 .23046875C.6759949 .23046875 .69400027 .23046875 .69400027 .25045777 .69400027 .27046205 .6759949 .27046205 .6589966 .27046205H.117996219C.100997928 .27046205 .08299255 .27046205 .08299255 .25045777 .08299255 .23046875 .100997928 .23046875 .117996219 .23046875H.6589966Z"/>
</defs>
<path transform="matrix(1,0,0,-1.00003,25.905999,230.45354)" stroke-width=".3985" stroke-linecap="butt" stroke-miterlimit="10" stroke-linejoin="miter" fill="none" stroke="#00aeef" d="M0-34.0165H204.09909M0-17.00824H204.09909M0 0H204.09909M0 17.00824H204.09909M0 34.0165H204.09909M0 51.02477H204.09909M0 68.03302H204.09909M0 85.04128H204.09909M0 102.04953H204.09909M0 119.0578H204.09909M0 136.06606H204.09909M0 153.07433H204.09909M0 170.08257H204.09909M0 187.09084H204.09909M0 204.09313H204.09909M0-34.0165V204.09909M17.00824-34.0165V204.09909M34.0165-34.0165V204.09909M51.02477-34.0165V204.09909M68.03302-34.0165V204.09909M85.04128-34.0165V204.09909M102.04953-34.0165V204.09909M119.0578-34.0165V204.09909M136.06606-34.0165V204.09909M153.07433-34.0165V204.09909M170.08257-34.0165V204.09909M187.09084-34.0165V204.09909M204.09313-34.0165V204.09909M204.09909 204.09909"/>
<path transform="matrix(1,0,0,-1.00003,25.905999,230.45354)" stroke-width=".79701" stroke-linecap="butt" stroke-miterlimit="10" stroke-linejoin="miter" fill="none" stroke="#000000" d="M0 0H212.86954"/>
<path transform="matrix(1,0,0,-1.00003,238.77555,230.45354)" d="M1.0361 0C-.25902 .25902-1.55415 .77707-3.1083 1.68365-1.55415 .51805-1.55415-.51805-3.1083-1.68365-1.55415-.77707-.25902-.25902 1.0361 0Z"/>
<path transform="matrix(1,0,0,-1.00003,238.77555,230.45354)" stroke-width=".79701" stroke-linecap="butt" stroke-linejoin="round" fill="none" stroke="#000000" d="M1.0361 0C-.25902 .25902-1.55415 .77707-3.1083 1.68365-1.55415 .51805-1.55415-.51805-3.1083-1.68365-1.55415-.77707-.25902-.25902 1.0361 0Z"/>
<use data-text="x" xlink:href="#font_1_2" transform="matrix(9.9626,0,0,-9.962899,237.363,226.73442)"/>
<path transform="matrix(1,0,0,-1.00003,25.905999,230.45354)" stroke-width=".79701" stroke-linecap="butt" stroke-miterlimit="10" stroke-linejoin="miter" fill="none" stroke="#000000" d="M0-34.0165V212.86954"/>
<path transform="matrix(0,-1.00003,-1,-0,25.905999,17.577607)" d="M1.0361 0C-.25902 .25902-1.55415 .77707-3.1083 1.68365-1.55415 .51805-1.55415-.51805-3.1083-1.68365-1.55415-.77707-.25902-.25902 1.0361 0Z"/>
<path transform="matrix(0,-1.00003,-1,-0,25.905999,17.577607)" stroke-width=".79701" stroke-linecap="butt" stroke-linejoin="round" fill="none" stroke="#000000" d="M1.0361 0C-.25902 .25902-1.55415 .77707-3.1083 1.68365-1.55415 .51805-1.55415-.51805-3.1083-1.68365-1.55415-.77707-.25902-.25902 1.0361 0Z"/>
<use data-text="y" xlink:href="#font_1_3" transform="matrix(9.9626,0,0,-9.962899,16.945,17.319123)"/>
<path transform="matrix(1,0,0,-1.00003,25.905999,230.45354)" stroke-width=".79701" stroke-linecap="butt" stroke-miterlimit="10" stroke-linejoin="miter" fill="none" stroke="#000000" d="M68.03302 1.70091V-1.70065"/>
<path transform="matrix(1,0,0,-1.00003,25.905999,230.45354)" d="M57.07394-12.5047H78.99208V-4.0917198H57.07394Z" fill="#ffffff"/>
<use data-text="4" xlink:href="#font_2_4" transform="matrix(9.9626,0,0,-9.962899,83.976,241.96189)"/>
<use data-text="0" xlink:href="#font_2_1" transform="matrix(9.9626,0,0,-9.962899,88.9573,241.96189)"/>
<use data-text="0" xlink:href="#font_2_1" transform="matrix(9.9626,0,0,-9.962899,93.9386,241.96189)"/>
<use data-text="0" xlink:href="#font_2_1" transform="matrix(9.9626,0,0,-9.962899,98.9199,241.96189)"/>
<path transform="matrix(1,0,0,-1.00003,25.905999,230.45354)" stroke-width=".79701" stroke-linecap="butt" stroke-miterlimit="10" stroke-linejoin="miter" fill="none" stroke="#000000" d="M1.70091 68.03302H-1.70065"/>
<path transform="matrix(1,0,0,-1.00003,25.905999,230.45354)" d="M-26.00986 63.82654H-4.0917189V72.239528H-26.00986Z" fill="#ffffff"/>
<use data-text="4" xlink:href="#font_2_4" transform="matrix(9.9626,0,0,-9.962899,.8919983,165.6286)"/>
<use data-text="0" xlink:href="#font_2_1" transform="matrix(9.9626,0,0,-9.962899,5.8732988,165.6286)"/>
<use data-text="0" xlink:href="#font_2_1" transform="matrix(9.9626,0,0,-9.962899,10.854599,165.6286)"/>
<use data-text="0" xlink:href="#font_2_1" transform="matrix(9.9626,0,0,-9.962899,15.835899,165.6286)"/>
<path transform="matrix(1,0,0,-1.00003,25.905999,230.45354)" stroke-width=".79701" stroke-linecap="butt" stroke-miterlimit="10" stroke-linejoin="miter" fill="none" stroke="#000000" d="M136.06606 1.70091V-1.70065"/>
<path transform="matrix(1,0,0,-1.00003,25.905999,230.45354)" d="M125.10698-12.5047H147.02512V-4.0917198H125.10698Z" fill="#ffffff"/>
<use data-text="8" xlink:href="#font_2_6" transform="matrix(9.9626,0,0,-9.962899,152.009,241.96189)"/>
<use data-text="0" xlink:href="#font_2_1" transform="matrix(9.9626,0,0,-9.962899,156.9903,241.96189)"/>
<use data-text="0" xlink:href="#font_2_1" transform="matrix(9.9626,0,0,-9.962899,161.97159,241.96189)"/>
<use data-text="0" xlink:href="#font_2_1" transform="matrix(9.9626,0,0,-9.962899,166.9529,241.96189)"/>
<path transform="matrix(1,0,0,-1.00003,25.905999,230.45354)" stroke-width=".79701" stroke-linecap="butt" stroke-miterlimit="10" stroke-linejoin="miter" fill="none" stroke="#000000" d="M1.70091 136.06606H-1.70065"/>
<path transform="matrix(1,0,0,-1.00003,25.905999,230.45354)" d="M-26.00986 131.85958H-4.0917189V140.27256H-26.00986Z" fill="#ffffff"/>
<use data-text="8" xlink:href="#font_2_6" transform="matrix(9.9626,0,0,-9.962899,.8919983,97.59354)"/>
<use data-text="0" xlink:href="#font_2_1" transform="matrix(9.9626,0,0,-9.962899,5.8732988,97.59354)"/>
<use data-text="0" xlink:href="#font_2_1" transform="matrix(9.9626,0,0,-9.962899,10.854599,97.59354)"/>
<use data-text="0" xlink:href="#font_2_1" transform="matrix(9.9626,0,0,-9.962899,15.835899,97.59354)"/>
<path transform="matrix(1,0,0,-1.00003,25.905999,230.45354)" stroke-width="1.59404" stroke-linecap="butt" stroke-miterlimit="10" stroke-linejoin="miter" fill="none" stroke="#ff0000" d="M34.0165 136.06606V200.31327"/>
<path transform="matrix(0,-1.00003,-1,-0,59.922498,30.134263)" d="M3.78581 0-2.27148 3.02866 0 0-2.27148-3.02866" fill="#ff0000"/>
<use data-text="x" xlink:href="#font_1_2" transform="matrix(9.9626,0,0,-9.962899,40.471,8.33786)"/>
<use data-text="=" xlink:href="#font_2_7" transform="matrix(9.9626,0,0,-9.962899,48.932,8.33786)"/>
<use data-text="2" xlink:href="#font_2_3" transform="matrix(9.9626,0,0,-9.962899,59.432588,8.33786)"/>
<use data-text="0" xlink:href="#font_2_1" transform="matrix(9.9626,0,0,-9.962899,64.41388,8.33786)"/>
<use data-text="0" xlink:href="#font_2_1" transform="matrix(9.9626,0,0,-9.962899,69.39517,8.33786)"/>
<use data-text="0" xlink:href="#font_2_1" transform="matrix(9.9626,0,0,-9.962899,74.376468,8.33786)"/>
<use data-text="y" xlink:href="#font_1_3" transform="matrix(9.9626,0,0,-9.962899,40.697,20.293213)"/>
<use data-text="&#x2265;" xlink:href="#font_3_2" transform="matrix(9.9626,0,0,-9.962899,48.706,20.293213)"/>
<use data-text="8" xlink:href="#font_2_6" transform="matrix(9.9626,0,0,-9.962899,59.223,20.293213)"/>
<use data-text="0" xlink:href="#font_2_1" transform="matrix(9.9626,0,0,-9.962899,64.2043,20.293213)"/>
<use data-text="0" xlink:href="#font_2_1" transform="matrix(9.9626,0,0,-9.962899,69.18559,20.293213)"/>
<use data-text="0" xlink:href="#font_2_1" transform="matrix(9.9626,0,0,-9.962899,74.166889,20.293213)"/>
<path transform="matrix(1,0,0,-1.00003,25.905999,230.45354)" d="M36.56763 136.06606C36.56763 137.475 35.42545 138.61719 34.0165 138.61719 32.60756 138.61719 31.46538 137.475 31.46538 136.06606 31.46538 134.6571 32.60756 133.51494 34.0165 133.51494 35.42545 133.51494 36.56763 134.6571 36.56763 136.06606ZM34.0165 136.06606" fill="#ff0000"/>
<path transform="matrix(1,0,0,-1.00003,25.905999,230.45354)" stroke-width=".3985" stroke-linecap="butt" stroke-miterlimit="10" stroke-linejoin="miter" fill="none" stroke="#ff0000" d="M36.56763 136.06606C36.56763 137.475 35.42545 138.61719 34.0165 138.61719 32.60756 138.61719 31.46538 137.475 31.46538 136.06606 31.46538 134.6571 32.60756 133.51494 34.0165 133.51494 35.42545 133.51494 36.56763 134.6571 36.56763 136.06606ZM34.0165 136.06606"/>
<path transform="matrix(1,0,0,-1.00003,25.905999,230.45354)" stroke-width="1.59404" stroke-linecap="butt" stroke-miterlimit="10" stroke-linejoin="miter" fill="none" stroke="#ff0000" d="M102.04953 68.03302V200.31327"/>
<path transform="matrix(0,-1.00003,-1,-0,127.95553,30.134263)" d="M3.78581 0-2.27148 3.02866 0 0-2.27148-3.02866" fill="#ff0000"/>
<use data-text="x" xlink:href="#font_1_2" transform="matrix(9.9626,0,0,-9.962899,108.504,8.33786)"/>
<use data-text="=" xlink:href="#font_2_7" transform="matrix(9.9626,0,0,-9.962899,116.965,8.33786)"/>
<use data-text="6" xlink:href="#font_2_5" transform="matrix(9.9626,0,0,-9.962899,127.46558,8.33786)"/>
<use data-text="0" xlink:href="#font_2_1" transform="matrix(9.9626,0,0,-9.962899,132.44687,8.33786)"/>
<use data-text="0" xlink:href="#font_2_1" transform="matrix(9.9626,0,0,-9.962899,137.42816,8.33786)"/>
<use data-text="0" xlink:href="#font_2_1" transform="matrix(9.9626,0,0,-9.962899,142.40946,8.33786)"/>
<use data-text="y" xlink:href="#font_1_3" transform="matrix(9.9626,0,0,-9.962899,108.729999,20.293213)"/>
<use data-text="&#x2265;" xlink:href="#font_3_2" transform="matrix(9.9626,0,0,-9.962899,116.739,20.293213)"/>
<use data-text="4" xlink:href="#font_2_4" transform="matrix(9.9626,0,0,-9.962899,127.256,20.293213)"/>
<use data-text="0" xlink:href="#font_2_1" transform="matrix(9.9626,0,0,-9.962899,132.2373,20.293213)"/>
<use data-text="0" xlink:href="#font_2_1" transform="matrix(9.9626,0,0,-9.962899,137.2186,20.293213)"/>
<use data-text="0" xlink:href="#font_2_1" transform="matrix(9.9626,0,0,-9.962899,142.19989,20.293213)"/>
<path transform="matrix(1,0,0,-1.00003,25.905999,230.45354)" d="M104.60066 68.03302C104.60066 69.44197 103.45848 70.58415 102.04953 70.58415 100.64058 70.58415 99.49841 69.44197 99.49841 68.03302 99.49841 66.62407 100.64058 65.4819 102.04953 65.4819 103.45848 65.4819 104.60066 66.62407 104.60066 68.03302ZM102.04953 68.03302" fill="#ff0000"/>
<path transform="matrix(1,0,0,-1.00003,25.905999,230.45354)" stroke-width=".3985" stroke-linecap="butt" stroke-miterlimit="10" stroke-linejoin="miter" fill="none" stroke="#ff0000" d="M104.60066 68.03302C104.60066 69.44197 103.45848 70.58415 102.04953 70.58415 100.64058 70.58415 99.49841 69.44197 99.49841 68.03302 99.49841 66.62407 100.64058 65.4819 102.04953 65.4819 103.45848 65.4819 104.60066 66.62407 104.60066 68.03302ZM102.04953 68.03302"/>
<path transform="matrix(1,0,0,-1.00003,25.905999,230.45354)" stroke-width="1.59404" stroke-linecap="butt" stroke-miterlimit="10" stroke-linejoin="miter" fill="none" stroke="#ff0000" d="M187.09084-17.00824V200.31327"/>
<path transform="matrix(0,-1.00003,-1,-0,212.99683,30.134263)" d="M3.78581 0-2.27148 3.02866 0 0-2.27148-3.02866" fill="#ff0000"/>
<use data-text="x" xlink:href="#font_1_2" transform="matrix(9.9626,0,0,-9.962899,188.841,8.33786)"/>
<use data-text="=" xlink:href="#font_2_7" transform="matrix(9.9626,0,0,-9.962899,197.302,8.33786)"/>
<use data-text="1" xlink:href="#font_2_2" transform="matrix(9.9626,0,0,-9.962899,207.80258,8.33786)"/>
<use data-text="1" xlink:href="#font_2_2" transform="matrix(9.9626,0,0,-9.962899,212.78388,8.33786)"/>
<use data-text="," xlink:href="#font_1_1" transform="matrix(9.9626,0,0,-9.962899,217.78099,8.33786)"/>
<use data-text="0" xlink:href="#font_2_1" transform="matrix(9.9626,0,0,-9.962899,222.20899,8.33786)"/>
<use data-text="0" xlink:href="#font_2_1" transform="matrix(9.9626,0,0,-9.962899,227.19028,8.33786)"/>
<use data-text="0" xlink:href="#font_2_1" transform="matrix(9.9626,0,0,-9.962899,232.17157,8.33786)"/>
<use data-text="y" xlink:href="#font_1_3" transform="matrix(9.9626,0,0,-9.962899,189.89699,20.293213)"/>
<use data-text="&#x2265;" xlink:href="#font_3_2" transform="matrix(9.9626,0,0,-9.962899,197.90699,20.293213)"/>
<use data-text="&#x2212;" xlink:href="#font_3_1" transform="matrix(9.9626,0,0,-9.962899,208.40758,20.293213)"/>
<use data-text="1" xlink:href="#font_2_2" transform="matrix(9.9626,0,0,-9.962899,216.17099,20.293213)"/>
<use data-text="0" xlink:href="#font_2_1" transform="matrix(9.9626,0,0,-9.962899,221.15229,20.293213)"/>
<use data-text="0" xlink:href="#font_2_1" transform="matrix(9.9626,0,0,-9.962899,226.13358,20.293213)"/>
<use data-text="0" xlink:href="#font_2_1" transform="matrix(9.9626,0,0,-9.962899,231.11487,20.293213)"/>
<path transform="matrix(1,0,0,-1.00003,25.905999,230.45354)" d="M189.64196-17.00824C189.64196-15.59929 188.49979-14.45712 187.09084-14.45712 185.68189-14.45712 184.53972-15.59929 184.53972-17.00824 184.53972-18.41719 185.68189-19.55936 187.09084-19.55936 188.49979-19.55936 189.64196-18.41719 189.64196-17.00824ZM187.09084-17.00824" fill="#ff0000"/>
<path transform="matrix(1,0,0,-1.00003,25.905999,230.45354)" stroke-width=".3985" stroke-linecap="butt" stroke-miterlimit="10" stroke-linejoin="miter" fill="none" stroke="#ff0000" d="M189.64196-17.00824C189.64196-15.59929 188.49979-14.45712 187.09084-14.45712 185.68189-14.45712 184.53972-15.59929 184.53972-17.00824 184.53972-18.41719 185.68189-19.55936 187.09084-19.55936 188.49979-19.55936 189.64196-18.41719 189.64196-17.00824ZM187.09084-17.00824"/>
</svg>
