<svg xmlns="http://www.w3.org/2000/svg" xmlns:xlink="http://www.w3.org/1999/xlink" version="1.1" width="205" height="214" viewBox="0 0 205 214">
<defs>
<path id="font_1_2" d="M.20599365 .3996582H.2999878C.31999208 .3996582 .32998658 .3996582 .32998658 .41966249 .32998658 .43066407 .31999208 .43066407 .3019867 .43066407H.21398926C.25 .5724945 .25498963 .59246829 .25498963 .59846499 .25498963 .61546328 .24299622 .62545779 .22599793 .62545779 .22299195 .62545779 .19499207 .62446597 .18598938 .58947756L.14698792 .43066407H.052993776C.032989503 .43066407 .022994996 .43066407 .022994996 .4116516 .022994996 .3996582 .0309906 .3996582 .050994874 .3996582H.13899231C.066986087 .11608887 .06298828 .099121097 .06298828 .08114624 .06298828 .02722168 .100997928-.0107421879 .15499878-.0107421879 .25698854-.0107421879 .31399537 .13505554 .31399537 .14305115 .31399537 .1530304 .30599977 .1530304 .3019867 .1530304 .29299928 .1530304 .2919922 .15003968 .2869873 .13905335 .24398804 .035217287 .19099427 .011245728 .15699768 .011245728 .13598633 .011245728 .12599182 .024230957 .12599182 .057174684 .12599182 .08114624 .12799073 .088134769 .13198853 .10510254L.20599365 .3996582Z"/>
<path id="font_1_1" d="M.2869873 .68333438C.2869873 .6843262 .2869873 .69433596 .27398683 .69433596 .25099183 .69433596 .17799378 .6863251 .1519928 .6843262 .14399719 .68333438 .1329956 .6823273 .1329956 .6643219 .1329956 .6523285 .14199829 .6523285 .15699768 .6523285 .20498657 .6523285 .20698548 .6453247 .20698548 .6353302L.20399475 .6153412 .05899048 .039260866C.054992677 .025253296 .054992677 .023254395 .054992677 .01725769 .054992677-.0057525637 .07499695-.0107421879 .083999637-.0107421879 .099990848-.0107421879 .115997318 .0012512207 .12098694 .015258789L.13999939 .091278079 .1619873 .18130493C.16799927 .2033081 .17399597 .22531128 .1789856 .24832154 .18099976 .25431825 .18899536 .28733827 .18998719 .29333497 .19299317 .30233766 .22399903 .35835267 .2579956 .38536073 .27999879 .4013672 .31098939 .42037965 .35398866 .42037965 .39698792 .42037965 .4079895 .3863678 .4079895 .35035707 .4079895 .29634095 .36999513 .18730164 .34599305 .12628174 .33799745 .103271488 .33299256 .091278079 .33299256 .0712738 .33299256 .024261475 .36799623-.0107421879 .4149933-.0107421879 .5089874-.0107421879 .54599 .13528443 .54599 .14329529 .54599 .1532898 .5369873 .1532898 .5339966 .1532898 .5239868 .1532898 .5239868 .15029907 .5189972 .13528443 .5039978 .08227539 .47200013 .011245728 .4169922 .011245728 .3999939 .011245728 .3929901 .021255494 .3929901 .044265748 .3929901 .0692749 .4019928 .09327698 .41099549 .11528015 .4269867 .15829468 .47200013 .2773285 .47200013 .3353424 .47200013 .4003601 .43199159 .4423828 .35699464 .4423828 .2939911 .4423828 .24598694 .41137696 .20899964 .36535646L.2869873 .68333438Z"/>
<path id="font_2_2" d="M.2939911 .64004519C.2939911 .66400149 .2939911 .6660156 .2709961 .6660156 .20899964 .60227969 .12098694 .60227969 .08898926 .60227969V.57128909C.10899353 .57128909 .16799927 .57128909 .21998596 .5972748V.07902527C.21998596 .042999269 .21699524 .0309906 .1269989 .0309906H.09498596V0C.12998963 .0029907227 .21699524 .0029907227 .25698854 .0029907227 .29699708 .0029907227 .38398744 .0029907227 .4189911 0V.0309906H.3869934C.29699708 .0309906 .2939911 .041992189 .2939911 .07902527V.64004519Z"/>
<path id="font_2_1" d="M.45999146 .31976319C.45999146 .39982606 .45498658 .47988893 .41999818 .5539398 .37399293 .65000918 .2919922 .6660156 .25 .6660156 .18998719 .6660156 .116989139 .64001467 .07598877 .54693606 .04399109 .47789 .038986207 .39982606 .038986207 .31976319 .038986207 .24472046 .042999269 .15464783 .083999637 .07859802 .1269989-.0024719239 .19999695-.022460938 .24899292-.022460938 .30299378-.022460938 .3789978-.0014648438 .4229889 .09359741 .45498658 .16265869 .45999146 .2407074 .45999146 .31976319M.24899292-.00047302247C.20999146-.00047302247 .15098572 .024551392 .1329956 .12062073 .12199402 .18066406 .12199402 .2727356 .12199402 .3317871 .12199402 .39582826 .12199402 .46188355 .12998963 .5159149 .14898682 .63500979 .22399903 .64401248 .24899292 .64401248 .28199769 .64401248 .34799195 .6259918 .36698915 .52693179 .3769989 .47088624 .3769989 .39482118 .3769989 .3317871 .3769989 .25672914 .3769989 .18867493 .3659973 .12461853 .35099793 .029556275 .2939911-.00047302247 .24899292-.00047302247Z"/>
<path id="font_2_3" d="M.1269989 .07699585 .23298645 .18003845C.3889923 .31811524 .44898988 .3721466 .44898988 .47216798 .44898988 .5860901 .35899354 .6660156 .23699951 .6660156 .12399292 .6660156 .049987794 .57411196 .049987794 .48516847 .049987794 .4291687 .099990848 .4291687 .102996829 .4291687 .11999512 .4291687 .15499878 .44117738 .15499878 .48217774 .15499878 .5081787 .13699341 .5341797 .101989749 .5341797 .09399414 .5341797 .09199524 .5341797 .08898926 .5331726 .11199951 .59806826 .1659851 .63500979 .22399903 .63500979 .31498719 .63500979 .35798646 .5541382 .35798646 .47216798 .35798646 .39215089 .30799867 .31311036 .25299073 .25108338L.06098938 .036987306C.049987794 .025985718 .049987794 .023986817 .049987794 0H.42099L.44898988 .17404175H.42399598C.4189911 .14402771 .4119873 .1000061 .4019928 .084991458 .394989 .07699585 .32899476 .07699585 .30699159 .07699585H.1269989Z"/>
<path id="font_2_4" d="M.2899933 .35191346C.37199403 .37893678 .42999269 .4490509 .42999269 .52809146 .42999269 .6100464 .34199525 .6660156 .24598694 .6660156 .14498902 .6660156 .068984989 .60606387 .068984989 .53009036 .068984989 .49710084 .09098816 .47808839 .11999512 .47808839 .15098572 .47808839 .17098999 .50009158 .17098999 .5290985 .17098999 .57910159 .12399292 .57910159 .10899353 .57910159 .13999939 .62802127 .20599365 .64100649 .24198914 .64100649 .2829895 .64100649 .33799745 .6190338 .33799745 .5290985 .33799745 .51708987 .33599855 .45906068 .30999757 .4149933 .27999879 .36691285 .24598694 .36390687 .22099304 .36291505 .21299744 .36190797 .18899536 .35990907 .18199158 .35990907 .17399597 .35890199 .16699219 .35791017 .16699219 .3479004 .16699219 .33691407 .17399597 .33691407 .19099427 .33691407H.23498535C.31698609 .33691407 .35398866 .2686615 .35398866 .17037964 .35398866 .034469606 .2849884 .0055389406 .24099732 .0055389406 .19799805 .0055389406 .12298584 .022491456 .08799744 .08137512 .12298584 .07637024 .1539917 .09837341 .1539917 .1363678 .1539917 .17237854 .1269989 .19238281 .09799194 .19238281 .07398987 .19238281 .041992189 .17837525 .041992189 .1343689 .041992189 .043441774 .1349945-.022460938 .24398804-.022460938 .3659973-.022460938 .45700074 .06838989 .45700074 .17037964 .45700074 .252594 .3939972 .33088685 .2899933 .35191346Z"/>
<path id="font_3_1" d="M.6589966 .23046875C.6759949 .23046875 .69400027 .23046875 .69400027 .25045777 .69400027 .27046205 .6759949 .27046205 .6589966 .27046205H.117996219C.100997928 .27046205 .08299255 .27046205 .08299255 .25045777 .08299255 .23046875 .100997928 .23046875 .117996219 .23046875H.6589966Z"/>
<path id="font_2_6" d="M.44898988 .20022583C.44898988 .3193512 .36698915 .41944886 .25898744 .41944886 .21099854 .41944886 .16799927 .40345765 .13198853 .36842347V.5637665C.1519928 .5577698 .18499756 .55078127 .21699524 .55078127 .33999635 .55078127 .4099884 .6417694 .4099884 .6547699 .4099884 .6607666 .40699769 .6657715 .3999939 .6657715 .39898683 .6657715 .39698792 .6657715 .3919983 .66278079 .37199403 .6537781 .32299806 .6337738 .2559967 .6337738 .21598816 .6337738 .16999817 .6407776 .12298584 .6617737 .114990238 .66477969 .11299133 .66477969 .11099243 .66477969 .100997928 .66477969 .100997928 .6567688 .100997928 .6407776V.34439088C.100997928 .32637025 .100997928 .31835938 .114990238 .31835938 .12199402 .31835938 .12399292 .32136537 .12799073 .32736207 .13899231 .3433838 .17599488 .39746095 .25698854 .39746095 .30899049 .39746095 .33399964 .35139466 .34199525 .33337403 .35798646 .29632569 .3600006 .25727845 .3600006 .20722962 .3600006 .17222595 .3600006 .11222839 .33599855 .07035828 .31199647 .031463624 .2749939 .0055389406 .22898865 .0055389406 .1559906 .0055389406 .09899902 .058380128 .08198547 .11723328 .084991458 .1162262 .08799744 .115234378 .09899902 .115234378 .13198853 .115234378 .14898682 .14022827 .14898682 .16423035 .14898682 .18823242 .13198853 .21322632 .09899902 .21322632 .084991458 .21322632 .049987794 .20622254 .049987794 .16023255 .049987794 .07434082 .11898804-.022460938 .23098755-.022460938 .34700013-.022460938 .44898988 .073349 .44898988 .20022583Z"/>
<path id="font_2_5" d="M.2939911 .16503906V.07800293C.2939911 .041992189 .2919922 .0309906 .21798706 .0309906H.19699097V0C.23799134 .0029907227 .2899933 .0029907227 .33198548 .0029907227 .37399293 .0029907227 .4269867 .0029907227 .46798707 0V.0309906H.44699098C.37298585 .0309906 .37098695 .041992189 .37098695 .07800293V.16503906H.47099305V.19602967H.37098695V.65075686C.37098695 .67074587 .37098695 .6767578 .35499574 .6767578 .34599305 .6767578 .34298707 .6767578 .33499146 .66474917L.027999878 .19602967V.16503906H.2939911M.2999878 .19602967H.055999757L.2999878 .5688019V.19602967Z"/>
</defs>
<path transform="matrix(1.00005,0,0,-1.00005,28.643776,38.77234)" stroke-width=".3985" stroke-linecap="butt" stroke-miterlimit="10" stroke-linejoin="miter" fill="none" stroke="#00aeef" d="M0-170.08257H153.07172M0-153.07433H153.07172M0-136.06606H153.07172M0-119.0578H153.07172M0-102.04953H153.07172M0-85.04128H153.07172M0-68.03302H153.07172M0-51.02477H153.07172M0-34.0165H153.07172M0-17.00824H153.07172M0 0H153.07172M0 17.00226H153.07172M0-170.08257V17.00824M25.51193-170.08257V17.00824M51.0239-170.08257V17.00824M76.53586-170.08257V17.00824M102.0478-170.08257V17.00824M127.55977-170.08257V17.00824M153.06276-170.08257V17.00824M153.07172 17.00824"/>
<path transform="matrix(1.00005,0,0,-1.00005,28.643776,38.77234)" stroke-width=".79701" stroke-linecap="butt" stroke-miterlimit="10" stroke-linejoin="miter" fill="none" stroke="#000000" d="M0 0H166.94443"/>
<path transform="matrix(1.00005,0,0,-1.00005,195.59653,38.77234)" d="M1.0361 0C-.25902 .25902-1.55415 .77707-3.1083 1.68365-1.55415 .51805-1.55415-.51805-3.1083-1.68365-1.55415-.77707-.25902-.25902 1.0361 0Z"/>
<path transform="matrix(1.00005,0,0,-1.00005,195.59653,38.77234)" stroke-width=".79701" stroke-linecap="butt" stroke-linejoin="round" fill="none" stroke="#000000" d="M1.0361 0C-.25902 .25902-1.55415 .77707-3.1083 1.68365-1.55415 .51805-1.55415-.51805-3.1083-1.68365-1.55415-.77707-.25902-.25902 1.0361 0Z"/>
<use data-text="t" xlink:href="#font_1_2" transform="matrix(9.963098,0,0,-9.963098,200.75037,41.83649)"/>
<path transform="matrix(1.00005,0,0,-1.00005,28.643776,38.77234)" stroke-width=".79701" stroke-linecap="butt" stroke-miterlimit="10" stroke-linejoin="miter" fill="none" stroke="#000000" d="M0-170.08257V25.77869"/>
<path transform="matrix(0,-1.00005,-1.00005,-0,28.643776,12.992361)" d="M1.0361 0C-.25902 .25902-1.55415 .77707-3.1083 1.68365-1.55415 .51805-1.55415-.51805-3.1083-1.68365-1.55415-.77707-.25902-.25902 1.0361 0Z"/>
<path transform="matrix(0,-1.00005,-1.00005,-0,28.643776,12.992361)" stroke-width=".79701" stroke-linecap="butt" stroke-linejoin="round" fill="none" stroke="#000000" d="M1.0361 0C-.25902 .25902-1.55415 .77707-3.1083 1.68365-1.55415 .51805-1.55415-.51805-3.1083-1.68365-1.55415-.77707-.25902-.25902 1.0361 0Z"/>
<use data-text="h" xlink:href="#font_1_1" transform="matrix(9.963098,0,0,-9.963098,25.773636,7.8387949)"/>
<path transform="matrix(1.00005,0,0,-1.00005,28.643776,38.77234)" stroke-width=".3985" stroke-linecap="butt" stroke-miterlimit="10" stroke-linejoin="miter" fill="none" stroke="#000000" d="M51.0239 1.70091V-1.70065"/>
<path transform="matrix(1.00005,0,0,-1.00005,28.643776,38.77234)" d="M45.04622-12.30545H57.00156V-3.8924704H45.04622Z" fill="#ffffff"/>
<use data-text="1" xlink:href="#font_2_2" transform="matrix(9.963098,0,0,-9.963098,74.68808,50.0819)"/>
<use data-text="0" xlink:href="#font_2_1" transform="matrix(9.963098,0,0,-9.963098,79.66963,50.0819)"/>
<path transform="matrix(1.00005,0,0,-1.00005,28.643776,38.77234)" stroke-width=".3985" stroke-linecap="butt" stroke-miterlimit="10" stroke-linejoin="miter" fill="none" stroke="#000000" d="M102.0478 1.70091V-1.70065"/>
<path transform="matrix(1.00005,0,0,-1.00005,28.643776,38.77234)" d="M96.07013-12.30545H108.02547V-3.8924704H96.07013Z" fill="#ffffff"/>
<use data-text="2" xlink:href="#font_2_3" transform="matrix(9.963098,0,0,-9.963098,125.71462,50.0819)"/>
<use data-text="0" xlink:href="#font_2_1" transform="matrix(9.963098,0,0,-9.963098,130.69617,50.0819)"/>
<path transform="matrix(1.00005,0,0,-1.00005,28.643776,38.77234)" stroke-width=".3985" stroke-linecap="butt" stroke-miterlimit="10" stroke-linejoin="miter" fill="none" stroke="#000000" d="M153.07172 1.70091V-1.70065"/>
<path transform="matrix(1.00005,0,0,-1.00005,28.643776,38.77234)" d="M147.09404-12.30545H159.04938V-3.8924704H147.09404Z" fill="#ffffff"/>
<use data-text="3" xlink:href="#font_2_4" transform="matrix(9.963098,0,0,-9.963098,176.74118,50.0819)"/>
<use data-text="0" xlink:href="#font_2_1" transform="matrix(9.963098,0,0,-9.963098,181.72272,50.0819)"/>
<path transform="matrix(1.00005,0,0,-1.00005,28.643776,38.77234)" stroke-width=".3985" stroke-linecap="butt" stroke-miterlimit="10" stroke-linejoin="miter" fill="none" stroke="#000000" d="M2.55133-170.08257H-2.55095"/>
<path transform="matrix(1.00005,0,0,-1.00005,28.643776,38.77234)" d="M-29.42833-174.70418H-4.74275V-165.46096H-29.42833Z" fill="#ffffff"/>
<use data-text="&#x2212;" xlink:href="#font_3_1" transform="matrix(9.963098,0,0,-9.963098,.21035767,211.65898)"/>
<use data-text="5" xlink:href="#font_2_6" transform="matrix(9.963098,0,0,-9.963098,7.9597475,211.65898)"/>
<use data-text="0" xlink:href="#font_2_1" transform="matrix(9.963098,0,0,-9.963098,12.941292,211.65898)"/>
<use data-text="0" xlink:href="#font_2_1" transform="matrix(9.963098,0,0,-9.963098,17.922844,211.65898)"/>
<path transform="matrix(1.00005,0,0,-1.00005,28.643776,38.77234)" stroke-width=".3985" stroke-linecap="butt" stroke-miterlimit="10" stroke-linejoin="miter" fill="none" stroke="#000000" d="M2.55133-136.06606H-2.55095"/>
<path transform="matrix(1.00005,0,0,-1.00005,28.643776,38.77234)" d="M-29.42833-140.68767H-4.74275V-131.44445H-29.42833Z" fill="#ffffff"/>
<use data-text="&#x2212;" xlink:href="#font_3_1" transform="matrix(9.963098,0,0,-9.963098,.21035767,177.64028)"/>
<use data-text="4" xlink:href="#font_2_5" transform="matrix(9.963098,0,0,-9.963098,7.9597475,177.64028)"/>
<use data-text="0" xlink:href="#font_2_1" transform="matrix(9.963098,0,0,-9.963098,12.941292,177.64028)"/>
<use data-text="0" xlink:href="#font_2_1" transform="matrix(9.963098,0,0,-9.963098,17.922844,177.64028)"/>
<path transform="matrix(1.00005,0,0,-1.00005,28.643776,38.77234)" stroke-width=".3985" stroke-linecap="butt" stroke-miterlimit="10" stroke-linejoin="miter" fill="none" stroke="#000000" d="M2.55133-102.04953H-2.55095"/>
<path transform="matrix(1.00005,0,0,-1.00005,28.643776,38.77234)" d="M-29.42833-106.67114H-4.74275V-97.42791H-29.42833Z" fill="#ffffff"/>
<use data-text="&#x2212;" xlink:href="#font_3_1" transform="matrix(9.963098,0,0,-9.963098,.21035767,143.62258)"/>
<use data-text="3" xlink:href="#font_2_4" transform="matrix(9.963098,0,0,-9.963098,7.9597475,143.62258)"/>
<use data-text="0" xlink:href="#font_2_1" transform="matrix(9.963098,0,0,-9.963098,12.941292,143.62258)"/>
<use data-text="0" xlink:href="#font_2_1" transform="matrix(9.963098,0,0,-9.963098,17.922844,143.62258)"/>
<path transform="matrix(1.00005,0,0,-1.00005,28.643776,38.77234)" stroke-width=".3985" stroke-linecap="butt" stroke-miterlimit="10" stroke-linejoin="miter" fill="none" stroke="#000000" d="M2.55133-68.03302H-2.55095"/>
<path transform="matrix(1.00005,0,0,-1.00005,28.643776,38.77234)" d="M-29.42833-72.65465H-4.74275V-63.41142H-29.42833Z" fill="#ffffff"/>
<use data-text="&#x2212;" xlink:href="#font_3_1" transform="matrix(9.963098,0,0,-9.963098,.21035767,109.60388)"/>
<use data-text="2" xlink:href="#font_2_3" transform="matrix(9.963098,0,0,-9.963098,7.9597475,109.60388)"/>
<use data-text="0" xlink:href="#font_2_1" transform="matrix(9.963098,0,0,-9.963098,12.941292,109.60388)"/>
<use data-text="0" xlink:href="#font_2_1" transform="matrix(9.963098,0,0,-9.963098,17.922844,109.60388)"/>
<path transform="matrix(1.00005,0,0,-1.00005,28.643776,38.77234)" stroke-width=".3985" stroke-linecap="butt" stroke-miterlimit="10" stroke-linejoin="miter" fill="none" stroke="#000000" d="M2.55133-34.0165H-2.55095"/>
<path transform="matrix(1.00005,0,0,-1.00005,28.643776,38.77234)" d="M-29.42833-38.63812H-4.74275V-29.39489H-29.42833Z" fill="#ffffff"/>
<use data-text="&#x2212;" xlink:href="#font_3_1" transform="matrix(9.963098,0,0,-9.963098,.21035767,75.58618)"/>
<use data-text="1" xlink:href="#font_2_2" transform="matrix(9.963098,0,0,-9.963098,7.9597475,75.58618)"/>
<use data-text="0" xlink:href="#font_2_1" transform="matrix(9.963098,0,0,-9.963098,12.941292,75.58618)"/>
<use data-text="0" xlink:href="#font_2_1" transform="matrix(9.963098,0,0,-9.963098,17.922844,75.58618)"/>
<path transform="matrix(1.00005,0,0,-1.00005,28.643776,38.77234)" stroke-width=".3985" stroke-linecap="butt" stroke-miterlimit="10" stroke-linejoin="miter" fill="none" stroke="#000000" d="M2.55133 0H-2.55095"/>
<path transform="matrix(1.00005,0,0,-1.00005,28.643776,38.77234)" d="M-11.71669-4.20648H-4.74275V4.2065H-11.71669Z" fill="#ffffff"/>
<use data-text="0" xlink:href="#font_2_1" transform="matrix(9.963098,0,0,-9.963098,17.92324,41.9825)"/>
<path transform="matrix(1.00005,0,0,-1.00005,28.643776,38.77234)" stroke-width=".79701" stroke-linecap="butt" stroke-miterlimit="10" stroke-linejoin="miter" fill="none" stroke="#ff0000" d="M0-136.06606 102.0478 0"/>
<path transform="matrix(1.00005,0,0,-1.00005,28.643776,38.77234)" d="M1.53064-136.06606C1.53064-135.22069 .84534-134.53539 0-134.53539-.84534-134.53539-1.53064-135.22069-1.53064-136.06606-1.53064-136.91143-.84534-137.59673 0-137.59673 .84534-137.59673 1.53064-136.91143 1.53064-136.06606ZM0-136.06606" fill="#ff0000"/>
<path transform="matrix(1.00005,0,0,-1.00005,28.643776,38.77234)" stroke-width=".3985" stroke-linecap="butt" stroke-miterlimit="10" stroke-linejoin="miter" fill="none" stroke="#ff0000" d="M1.53064-136.06606C1.53064-135.22069 .84534-134.53539 0-134.53539-.84534-134.53539-1.53064-135.22069-1.53064-136.06606-1.53064-136.91143-.84534-137.59673 0-137.59673 .84534-137.59673 1.53064-136.91143 1.53064-136.06606ZM0-136.06606"/>
<path transform="matrix(1.00005,0,0,-1.00005,28.643776,38.77234)" d="M27.04257-102.04953C27.04257-101.20416 26.35728-100.51886 25.51193-100.51886 24.66658-100.51886 23.9813-101.20416 23.9813-102.04953 23.9813-102.8949 24.66658-103.5802 25.51193-103.5802 26.35728-103.5802 27.04257-102.8949 27.04257-102.04953ZM25.51193-102.04953" fill="#ff0000"/>
<path transform="matrix(1.00005,0,0,-1.00005,28.643776,38.77234)" stroke-width=".3985" stroke-linecap="butt" stroke-miterlimit="10" stroke-linejoin="miter" fill="none" stroke="#ff0000" d="M27.04257-102.04953C27.04257-101.20416 26.35728-100.51886 25.51193-100.51886 24.66658-100.51886 23.9813-101.20416 23.9813-102.04953 23.9813-102.8949 24.66658-103.5802 25.51193-103.5802 26.35728-103.5802 27.04257-102.8949 27.04257-102.04953ZM25.51193-102.04953"/>
<path transform="matrix(1.00005,0,0,-1.00005,28.643776,38.77234)" d="M52.55453-68.03302C52.55453-67.18765 51.86925-66.50235 51.0239-66.50235 50.17854-66.50235 49.49326-67.18765 49.49326-68.03302 49.49326-68.87839 50.17854-69.5637 51.0239-69.5637 51.86925-69.5637 52.55453-68.87839 52.55453-68.03302ZM51.0239-68.03302" fill="#ff0000"/>
<path transform="matrix(1.00005,0,0,-1.00005,28.643776,38.77234)" stroke-width=".3985" stroke-linecap="butt" stroke-miterlimit="10" stroke-linejoin="miter" fill="none" stroke="#ff0000" d="M52.55453-68.03302C52.55453-67.18765 51.86925-66.50235 51.0239-66.50235 50.17854-66.50235 49.49326-67.18765 49.49326-68.03302 49.49326-68.87839 50.17854-69.5637 51.0239-69.5637 51.86925-69.5637 52.55453-68.87839 52.55453-68.03302ZM51.0239-68.03302"/>
<path transform="matrix(1.00005,0,0,-1.00005,28.643776,38.77234)" d="M78.0665-34.0165C78.0665-33.17113 77.38121-32.48582 76.53586-32.48582 75.6905-32.48582 75.00522-33.17113 75.00522-34.0165 75.00522-34.86186 75.6905-35.54718 76.53586-35.54718 77.38121-35.54718 78.0665-34.86186 78.0665-34.0165ZM76.53586-34.0165" fill="#ff0000"/>
<path transform="matrix(1.00005,0,0,-1.00005,28.643776,38.77234)" stroke-width=".3985" stroke-linecap="butt" stroke-miterlimit="10" stroke-linejoin="miter" fill="none" stroke="#ff0000" d="M78.0665-34.0165C78.0665-33.17113 77.38121-32.48582 76.53586-32.48582 75.6905-32.48582 75.00522-33.17113 75.00522-34.0165 75.00522-34.86186 75.6905-35.54718 76.53586-35.54718 77.38121-35.54718 78.0665-34.86186 78.0665-34.0165ZM76.53586-34.0165"/>
<path transform="matrix(1.00005,0,0,-1.00005,28.643776,38.77234)" d="M103.57845 0C103.57845 .84535 102.89316 1.53067 102.0478 1.53067 101.20245 1.53067 100.51717 .84535 100.51717 0 100.51717-.84535 101.20245-1.53067 102.0478-1.53067 102.89316-1.53067 103.57845-.84535 103.57845 0ZM102.0478 0" fill="#ff0000"/>
<path transform="matrix(1.00005,0,0,-1.00005,28.643776,38.77234)" stroke-width=".3985" stroke-linecap="butt" stroke-miterlimit="10" stroke-linejoin="miter" fill="none" stroke="#ff0000" d="M103.57845 0C103.57845 .84535 102.89316 1.53067 102.0478 1.53067 101.20245 1.53067 100.51717 .84535 100.51717 0 100.51717-.84535 101.20245-1.53067 102.0478-1.53067 102.89316-1.53067 103.57845-.84535 103.57845 0ZM102.0478 0"/>
</svg>
