<svg xmlns="http://www.w3.org/2000/svg" xmlns:xlink="http://www.w3.org/1999/xlink" version="1.1" width="161" height="195" viewBox="0 0 161 195">
<defs>
<path id="font_1_2" d="M.33399964 .30233766C.33999635 .32835389 .36299134 .42037965 .43299867 .42037965 .43798829 .42037965 .46199037 .42037965 .48298646 .40734864 .45498658 .402359 .43499757 .37734986 .43499757 .35334779 .43499757 .33735658 .44599916 .31835938 .47299195 .31835938 .49499513 .31835938 .5269928 .3363495 .5269928 .37635804 .5269928 .42837525 .46798707 .4423828 .43399049 .4423828 .37599183 .4423828 .34098817 .38935853 .32899476 .36634828 .3039856 .43237306 .25 .4423828 .22099304 .4423828 .116989139 .4423828 .05999756 .3133545 .05999756 .28834535 .05999756 .27833558 .069992069 .27833558 .07199097 .27833558 .07998657 .27833558 .08299255 .28033448 .084991458 .28933717 .11898804 .39535523 .18499756 .42037965 .21899414 .42037965 .23799134 .42037965 .272995 .4113617 .272995 .35334779 .272995 .32235719 .2559967 .25532533 .21899414 .11528015 .20298767 .053268434 .16799927 .011245728 .12399292 .011245728 .117996219 .011245728 .09498596 .011245728 .07398987 .024276734 .09899902 .029266358 .12098694 .05027771 .12098694 .07827759 .12098694 .105270389 .09899902 .11328125 .083999637 .11328125 .053985597 .11328125 .0289917 .08728027 .0289917 .055267335 .0289917 .009246826 .07899475-.0107421879 .12298584-.0107421879 .18899536-.0107421879 .22499085 .059280397 .22799683 .0652771 .23999024 .028274537 .27598573-.0107421879 .33599855-.0107421879 .43899537-.0107421879 .49598695 .118270877 .49598695 .14328003 .49598695 .1532898 .4869995 .1532898 .48399354 .1532898 .47499085 .1532898 .47299195 .14929199 .47099305 .14228821 .43798829 .03527832 .36999513 .011245728 .33799745 .011245728 .29899598 .011245728 .2829895 .043273927 .2829895 .07727051 .2829895 .09927368 .2889862 .121276859 .2999878 .16529846L.33399964 .30233766Z"/>
<path id="font_1_3" d="M.48599244 .38136292C.48999024 .39537049 .48999024 .39736939 .48999024 .40437318 .48999024 .42237855 .47599793 .43138124 .46099855 .43138124 .45098878 .43138124 .43499757 .42536927 .42599488 .41036988 .42399598 .405365 .41600038 .37435914 .4119873 .35635377 .40499879 .33035279 .397995 .30334474 .3919983 .27633668L.34700013 .09628296C.34298707 .08126831 .2999878 .011245728 .23399353 .011245728 .18299866 .011245728 .17199707 .055267335 .17199707 .0922699 .17199707 .1382904 .18899536 .20030213 .22299195 .28833009 .23899842 .3293457 .24299622 .3403473 .24299622 .36035157 .24299622 .405365 .21099854 .4423828 .16099549 .4423828 .06599426 .4423828 .0289917 .29733277 .0289917 .28833009 .0289917 .27833558 .038986207 .27833558 .040985109 .27833558 .050994874 .27833558 .051986696 .28033448 .056991579 .29634095 .083999637 .3903656 .12399292 .42037965 .1579895 .42037965 .1659851 .42037965 .18299866 .42037965 .18299866 .3883667 .18299866 .36335755 .17298889 .3373413 .1659851 .31834413 .12599182 .21231079 .10798645 .1552887 .10798645 .10827637 .10798645 .019256592 .17098999-.0107421879 .22999573-.0107421879 .2689972-.0107421879 .30299378 .0062561037 .33099366 .03425598 .31799317-.017745972 .30599977-.06674194 .2659912-.11973572 .23999024-.15385437 .20199585-.18309021 .1559906-.18309021 .14199829-.18309021 .09700012-.18005371 .07998657-.14074707 .09599304-.14074707 .10899353-.14074707 .12298584-.1287384 .1329956-.11973572 .14299011-.10673523 .14299011-.08773804 .14299011-.056747438 .115997318-.052734376 .10598755-.052734376 .08299255-.052734376 .049987794-.068740848 .049987794-.11773682 .049987794-.16796875 .09399414-.20507813 .1559906-.20507813 .25898744-.20507813 .3619995-.11373901 .3899994-.00074768069L.48599244 .38136292Z"/>
<path id="font_2_1" d="M.6589966 .23046875C.6759949 .23046875 .69400027 .23046875 .69400027 .25045777 .69400027 .27046205 .6759949 .27046205 .6589966 .27046205H.117996219C.100997928 .27046205 .08299255 .27046205 .08299255 .25045777 .08299255 .23046875 .100997928 .23046875 .117996219 .23046875H.6589966Z"/>
<path id="font_3_5" d="M.2939911 .16503906V.07800293C.2939911 .041992189 .2919922 .0309906 .21798706 .0309906H.19699097V0C.23799134 .0029907227 .2899933 .0029907227 .33198548 .0029907227 .37399293 .0029907227 .4269867 .0029907227 .46798707 0V.0309906H.44699098C.37298585 .0309906 .37098695 .041992189 .37098695 .07800293V.16503906H.47099305V.19602967H.37098695V.65075686C.37098695 .67074587 .37098695 .6767578 .35499574 .6767578 .34599305 .6767578 .34298707 .6767578 .33499146 .66474917L.027999878 .19602967V.16503906H.2939911M.2999878 .19602967H.055999757L.2999878 .5688019V.19602967Z"/>
<path id="font_3_6" d="M.44898988 .20022583C.44898988 .3193512 .36698915 .41944886 .25898744 .41944886 .21099854 .41944886 .16799927 .40345765 .13198853 .36842347V.5637665C.1519928 .5577698 .18499756 .55078127 .21699524 .55078127 .33999635 .55078127 .4099884 .6417694 .4099884 .6547699 .4099884 .6607666 .40699769 .6657715 .3999939 .6657715 .39898683 .6657715 .39698792 .6657715 .3919983 .66278079 .37199403 .6537781 .32299806 .6337738 .2559967 .6337738 .21598816 .6337738 .16999817 .6407776 .12298584 .6617737 .114990238 .66477969 .11299133 .66477969 .11099243 .66477969 .100997928 .66477969 .100997928 .6567688 .100997928 .6407776V.34439088C.100997928 .32637025 .100997928 .31835938 .114990238 .31835938 .12199402 .31835938 .12399292 .32136537 .12799073 .32736207 .13899231 .3433838 .17599488 .39746095 .25698854 .39746095 .30899049 .39746095 .33399964 .35139466 .34199525 .33337403 .35798646 .29632569 .3600006 .25727845 .3600006 .20722962 .3600006 .17222595 .3600006 .11222839 .33599855 .07035828 .31199647 .031463624 .2749939 .0055389406 .22898865 .0055389406 .1559906 .0055389406 .09899902 .058380128 .08198547 .11723328 .084991458 .1162262 .08799744 .115234378 .09899902 .115234378 .13198853 .115234378 .14898682 .14022827 .14898682 .16423035 .14898682 .18823242 .13198853 .21322632 .09899902 .21322632 .084991458 .21322632 .049987794 .20622254 .049987794 .16023255 .049987794 .07434082 .11898804-.022460938 .23098755-.022460938 .34700013-.022460938 .44898988 .073349 .44898988 .20022583Z"/>
<path id="font_3_1" d="M.33099366-.2400055C.33099366-.23701477 .33099366-.23500061 .31399537-.21800232 .18899536-.0920105 .15699768 .09700012 .15699768 .25 .15699768 .42399598 .19499207 .59799197 .31799317 .72299197 .33099366 .73498538 .33099366 .7369995 .33099366 .73999026 .33099366 .746994 .32699586 .75 .32099916 .75 .31098939 .75 .22099304 .6819916 .1619873 .5549927 .11099243 .44499208 .09899902 .33399964 .09899902 .25 .09899902 .17199707 .10998535 .050994874 .16499329-.06201172 .22499085-.18501282 .31098939-.25 .32099916-.25 .32699586-.25 .33099366-.24700928 .33099366-.2400055Z"/>
<path id="font_3_3" d="M.2939911 .64004519C.2939911 .66400149 .2939911 .6660156 .2709961 .6660156 .20899964 .60227969 .12098694 .60227969 .08898926 .60227969V.57128909C.10899353 .57128909 .16799927 .57128909 .21998596 .5972748V.07902527C.21998596 .042999269 .21699524 .0309906 .1269989 .0309906H.09498596V0C.12998963 .0029907227 .21699524 .0029907227 .25698854 .0029907227 .29699708 .0029907227 .38398744 .0029907227 .4189911 0V.0309906H.3869934C.29699708 .0309906 .2939911 .041992189 .2939911 .07902527V.64004519Z"/>
<path id="font_1_1" d="M.20298767 .0009918213C.20298767 .066986087 .17799378 .10598755 .13899231 .10598755 .10598755 .10598755 .085998538 .08099365 .085998538 .052993776 .085998538 .025985718 .10598755 0 .13899231 0 .15098572 0 .1639862 .0039978029 .17399597 .0129852299 .1769867 .01499939 .17799378 .015991211 .1789856 .015991211 .17999268 .015991211 .18099976 .01499939 .18099976 .0009918213 .18099976-.07316589 .1459961-.13328552 .11299133-.16635132 .101989749-.17736817 .101989749-.17936707 .101989749-.18237305 .101989749-.18936157 .10699463-.19335938 .11199951-.19335938 .12298584-.19335938 .20298767-.116256717 .20298767 .0009918213Z"/>
<path id="font_4_1" d="M.33499146 .63612368C.33499146 .6630554 .33299256 .6640625 .30499269 .6640625 .24099732 .6014404 .1499939 .6004486 .10899353 .6004486V.5644531C.1329956 .5644531 .19898987 .5644531 .2539978 .592453V.08203125C.2539978 .04899597 .2539978 .035995485 .1539917 .035995485H.115997318V0C.13398743 .0009918213 .25698854 .0039978029 .2939911 .0039978029 .32499696 .0039978029 .45098878 .0009918213 .47299195 0V.035995485H.43499757C.33499146 .035995485 .33499146 .04899597 .33499146 .08203125V.63612368Z"/>
<path id="font_4_2" d="M.5049896 .18203736H.47099305C.46798707 .16001892 .45799256 .100997928 .44499208 .09098816 .43699647 .084991458 .3600006 .084991458 .34599305 .084991458H.1619873C.2669983 .17803955 .3019867 .20603943 .3619995 .25306703 .43598939 .312088 .5049896 .374115 .5049896 .46914674 .5049896 .5900879 .39898683 .6640625 .2709961 .6640625 .14698792 .6640625 .06298828 .57710269 .06298828 .4851532 .06298828 .43414308 .10598755 .42915345 .115997318 .42915345 .13999939 .42915345 .16899109 .44615174 .16899109 .48214723 .16899109 .5001526 .1619873 .53515627 .10998535 .53515627 .14099121 .6060791 .20899964 .62805178 .2559967 .62805178 .35598756 .62805178 .4079895 .5501404 .4079895 .46914674 .4079895 .38212586 .34599305 .3130951 .31399537 .27708436L.07299805 .038986207C.06298828 .02999878 .06298828 .027999878 .06298828 0H.47499085L.5049896 .18203736Z"/>
<path id="font_3_2" d="M.2889862 .25C.2889862 .32798768 .27799989 .44898988 .22299195 .56199648 .16299439 .68499758 .07699585 .75 .066986087 .75 .06098938 .75 .056991579 .74598696 .056991579 .73999026 .056991579 .7369995 .056991579 .73498538 .07598877 .71699526 .17399597 .6179962 .23098755 .45899964 .23098755 .25 .23098755 .07899475 .19400025-.09700012 .069992069-.2230072 .056991579-.23500061 .056991579-.23701477 .056991579-.2400055 .056991579-.2460022 .06098938-.25 .066986087-.25 .07699585-.25 .16699219-.18200684 .22599793-.055007936 .2769928 .054992677 .2889862 .16600037 .2889862 .25Z"/>
<path id="font_3_4" d="M.1269989 .07699585 .23298645 .18003845C.3889923 .31811524 .44898988 .3721466 .44898988 .47216798 .44898988 .5860901 .35899354 .6660156 .23699951 .6660156 .12399292 .6660156 .049987794 .57411196 .049987794 .48516847 .049987794 .4291687 .099990848 .4291687 .102996829 .4291687 .11999512 .4291687 .15499878 .44117738 .15499878 .48217774 .15499878 .5081787 .13699341 .5341797 .101989749 .5341797 .09399414 .5341797 .09199524 .5341797 .08898926 .5331726 .11199951 .59806826 .1659851 .63500979 .22399903 .63500979 .31498719 .63500979 .35798646 .5541382 .35798646 .47216798 .35798646 .39215089 .30799867 .31311036 .25299073 .25108338L.06098938 .036987306C.049987794 .025985718 .049987794 .023986817 .049987794 0H.42099L.44898988 .17404175H.42399598C.4189911 .14402771 .4119873 .1000061 .4019928 .084991458 .394989 .07699585 .32899476 .07699585 .30699159 .07699585H.1269989Z"/>
</defs>
<path transform="matrix(1.00002,0,0,-1.00002,74.60924,105.41086)" stroke-width=".3985" stroke-linecap="butt" stroke-miterlimit="10" stroke-linejoin="miter" fill="none" stroke="#00aeef" d="M-68.03302-85.04128H68.03302M-68.03302-68.03302H68.03302M-68.03302-51.02477H68.03302M-68.03302-34.0165H68.03302M-68.03302-17.00824H68.03302M-68.03302 0H68.03302M-68.03302 17.00824H68.03302M-68.03302 34.0165H68.03302M-68.03302 51.02477H68.03302M-68.03302 68.03302H68.03302M-68.03302 85.0353H68.03302M-68.03302-85.04128V85.04128M-51.02477-85.04128V85.04128M-34.0165-85.04128V85.04128M-17.00824-85.04128V85.04128M0-85.04128V85.04128M17.00824-85.04128V85.04128M34.0165-85.04128V85.04128M51.02477-85.04128V85.04128M68.02705-85.04128V85.04128M68.03302 85.04128"/>
<path transform="matrix(1.00002,0,0,-1.00002,74.60924,105.41086)" stroke-width=".79701" stroke-linecap="butt" stroke-miterlimit="10" stroke-linejoin="miter" fill="none" stroke="#000000" d="M-68.03302 0H75.10254"/>
<path transform="matrix(1.00002,0,0,-1.00002,149.71329,105.41086)" d="M1.0361 0C-.25902 .25902-1.55415 .77707-3.1083 1.68365-1.55415 .51805-1.55415-.51805-3.1083-1.68365-1.55415-.77707-.25902-.25902 1.0361 0Z"/>
<path transform="matrix(1.00002,0,0,-1.00002,149.71329,105.41086)" stroke-width=".79701" stroke-linecap="butt" stroke-linejoin="round" fill="none" stroke="#000000" d="M1.0361 0C-.25902 .25902-1.55415 .77707-3.1083 1.68365-1.55415 .51805-1.55415-.51805-3.1083-1.68365-1.55415-.77707-.25902-.25902 1.0361 0Z"/>
<use data-text="x" xlink:href="#font_1_2" transform="matrix(9.962799,0,0,-9.962799,154.86685,107.5559)"/>
<path transform="matrix(1.00002,0,0,-1.00002,74.60924,105.41086)" stroke-width=".79701" stroke-linecap="butt" stroke-miterlimit="10" stroke-linejoin="miter" fill="none" stroke="#000000" d="M0-85.04128V92.11078"/>
<path transform="matrix(0,-1.00002,-1.00002,-0,74.60924,13.298233)" d="M1.0361 0C-.25902 .25902-1.55415 .77707-3.1083 1.68365-1.55415 .51805-1.55415-.51805-3.1083-1.68365-1.55415-.77707-.25902-.25902 1.0361 0Z"/>
<path transform="matrix(0,-1.00002,-1.00002,-0,74.60924,13.298233)" stroke-width=".79701" stroke-linecap="butt" stroke-linejoin="round" fill="none" stroke="#000000" d="M1.0361 0C-.25902 .25902-1.55415 .77707-3.1083 1.68365-1.55415 .51805-1.55415-.51805-3.1083-1.68365-1.55415-.77707-.25902-.25902 1.0361 0Z"/>
<use data-text="y" xlink:href="#font_1_3" transform="matrix(9.962799,0,0,-9.962799,71.98818,6.206871)"/>
<path transform="matrix(1.00002,0,0,-1.00002,74.60924,105.41086)" stroke-width=".79701" stroke-linecap="butt" stroke-miterlimit="10" stroke-linejoin="miter" fill="none" stroke="#000000" d="M-68.03302 1.70091V-1.70065"/>
<path transform="matrix(1.00002,0,0,-1.00002,74.60924,105.41086)" d="M-75.39442-13.33495H-60.67164V-4.0917208H-75.39442Z" fill="#ffffff"/>
<use data-text="&#x2212;" xlink:href="#font_2_1" transform="matrix(9.962799,0,0,-9.962799,.20974732,116.91909)"/>
<use data-text="4" xlink:href="#font_3_5" transform="matrix(9.962799,0,0,-9.962799,7.957901,116.91909)"/>
<path transform="matrix(1.00002,0,0,-1.00002,74.60924,105.41086)" stroke-width=".79701" stroke-linecap="butt" stroke-miterlimit="10" stroke-linejoin="miter" fill="none" stroke="#000000" d="M68.03302 1.70091V-1.70065"/>
<path transform="matrix(1.00002,0,0,-1.00002,74.60924,105.41086)" d="M64.54605-12.5047H71.51999V-4.0917198H64.54605Z" fill="#ffffff"/>
<use data-text="4" xlink:href="#font_3_5" transform="matrix(9.962799,0,0,-9.962799,140.15256,116.91909)"/>
<path transform="matrix(1.00002,0,0,-1.00002,74.60924,105.41086)" stroke-width=".79701" stroke-linecap="butt" stroke-miterlimit="10" stroke-linejoin="miter" fill="none" stroke="#000000" d="M1.70091-85.04128H-1.70065"/>
<path transform="matrix(1.00002,0,0,-1.00002,74.60924,105.41086)" d="M-18.8145-89.66289H-4.0917208V-80.419658H-18.8145Z" fill="#ffffff"/>
<use data-text="&#x2212;" xlink:href="#font_2_1" transform="matrix(9.962799,0,0,-9.962799,56.79088,193.24863)"/>
<use data-text="5" xlink:href="#font_3_6" transform="matrix(9.962799,0,0,-9.962799,64.53903,193.24863)"/>
<path transform="matrix(1.00002,0,0,-1.00002,74.60924,105.41086)" stroke-width=".79701" stroke-linecap="butt" stroke-miterlimit="10" stroke-linejoin="miter" fill="none" stroke="#000000" d="M1.70091 85.04128H-1.70065"/>
<path transform="matrix(1.00002,0,0,-1.00002,74.60924,105.41086)" d="M-11.06564 80.83478H-4.0917007V89.24776H-11.06564Z" fill="#ffffff"/>
<use data-text="5" xlink:href="#font_3_6" transform="matrix(9.962799,0,0,-9.962799,64.54004,23.578217)"/>
<path transform="matrix(1.00002,0,0,-1.00002,74.60924,105.41086)" stroke-width="1.19553" stroke-linecap="butt" stroke-miterlimit="10" stroke-linejoin="miter" fill="none" stroke="#ff0000" d="M-53.21516 83.25687C-52.5705 81.23798-52.5705 81.23798-52.10413 79.80923-51.63774 78.3805-50.88982 76.12622-50.42343 74.74356-49.95705 73.36092-49.20914 71.18056-48.74275 69.844-48.27637 68.50742-47.52844 66.40097-47.06206 65.11049-46.59569 63.82002-45.84776 61.78749-45.38138 60.5431-44.915 59.29874-44.16707 57.34013-43.7007 56.14182-43.23431 54.94348-42.48639 53.0586-42.02 51.90636-41.55363 50.75412-40.80571 48.94342-40.33932 47.83728-39.87294 46.73111-39.125 44.99406-38.65865 43.934-38.19226 42.87395-37.44432 41.21106-36.97794 40.1971-36.51157 39.18314-35.76364 37.5939-35.29726 36.62602-34.83087 35.65814-34.08295 34.14308-33.61656 33.22131-33.15019 32.29953-32.40227 30.85815-31.93588 29.98242-31.4695 29.1067-30.72157 27.73929-30.2552 26.90965-29.78882 26.08002-29.0409 24.78651-28.57451 24.00298-28.10812 23.21942-27.36021 21.99983-26.89383 21.26237-26.42744 20.52493-25.6795 19.37926-25.21315 18.6879-24.74677 17.99652-23.99883 16.92476-23.53244 16.27948-23.06607 15.6342-22.31815 14.63637-21.85176 14.03719-21.38538 13.438-20.63745 12.51411-20.17107 11.961-19.7047 11.40788-18.95677 10.55766-18.49039 10.05063-18.024 9.54358-17.27608 8.76752-16.80971 8.30661-16.34332 7.8457-15.5954 7.14355-15.12901 6.7287-14.66263 6.31384-13.91472 5.68541-13.44833 5.3166-12.98195 4.94781-12.23401 4.39331-11.76764 4.07065-11.30127 3.74799-10.55333 3.26758-10.08694 2.99101-9.62057 2.71443-8.87263 2.30774-8.40627 2.07722-7.93988 1.8467-7.19196 1.51396-6.72557 1.32953-6.2592 1.1451-5.51128 .88623-5.04489 .74792-4.5785 .60962-3.83058 .4249-3.36421 .33269-2.89783 .24048-2.1499 .12944-1.68352 .08328-1.21713 .03712-.46922 .00008-.00284 0 .46352-.00008 1.21143 .03653 1.67781 .0825 2.14418 .12848 2.8921 .23929 3.35849 .33139 3.82487 .42351 4.57281 .60818 5.03917 .74638 5.50555 .88458 6.2535 1.1432 6.71988 1.32744 7.18625 1.5117 7.93417 1.84402 8.40056 2.07436 8.86694 2.3047 9.61487 2.71118 10.08124 2.98764 10.54762 3.26407 11.29555 3.7442 11.76193 4.06676 12.22832 4.38928 12.97623 4.94359 13.44261 5.3122 13.909 5.68083 14.65692 6.30884 15.1233 6.72351 15.58968 7.13817 16.3376 7.84013 16.80399 8.30092 17.27037 8.76167 18.01831 9.5375 18.48466 10.0444 18.95105 10.55127 19.69899 11.40126 20.16537 11.95424 20.63176 12.50722 21.37967 13.43088 21.84605 14.02992 22.31244 14.62897 23.06036 15.62657 23.52675 16.2717 23.99312 16.91684 24.74104 17.9884 25.20743 18.67958 25.67381 19.37076 26.42174 20.51602 26.8881 21.2533 27.35449 21.99057 28.10242 23.20996 28.5688 23.99336 29.03517 24.77676 29.7831 26.07005 30.24948 26.89952 30.71587 27.72902 31.4638 29.09624 31.93016 29.97179 32.39655 30.84734 33.14449 32.28825 33.61087 33.20988 34.07726 34.13153 34.82516 35.6466 35.29155 36.61433 35.75793 37.58208 36.50586 39.17085 36.97224 40.18465 37.43861 41.19843 38.18654 42.86111 38.65292 43.92104 39.11931 44.98094 39.86723 46.71777 40.3336 47.82378 40.79999 48.92976 41.54791 50.7403 42.0143 51.89235 42.48067 53.0444 43.22859 54.92888 43.69498 56.12701 44.16136 57.32518 44.9093 59.28355 45.37566 60.52782 45.84204 61.77205 46.58998 63.80434 47.05637 65.09467 47.52274 66.38501 48.27066 68.49121 48.73705 69.82764 49.20343 71.16406 49.95135 73.3442 50.41774 74.7267 50.88411 76.1092 51.63202 78.36325 52.0984 79.79185 52.56479 81.22046 53.77908 85.0231 53.20934 83.23897"/>
<path transform="matrix(-.30414609,-.95259907,-.95259907,.30414609,21.393025,22.152337)" d="M1.27522 0C-.31879 .31879-1.91284 .9564-3.8257 2.07224-1.91284 .6376-1.91284-.6376-3.8257-2.07224-1.91284-.9564-.31879-.31879 1.27522 0Z" fill="#ff0000"/>
<path transform="matrix(-.30414609,-.95259907,-.95259907,.30414609,21.393025,22.152337)" stroke-width="1.19553" stroke-linecap="butt" stroke-linejoin="round" fill="none" stroke="#ff0000" d="M1.27522 0C-.31879 .31879-1.91284 .9564-3.8257 2.07224-1.91284 .6376-1.91284-.6376-3.8257-2.07224-1.91284-.9564-.31879-.31879 1.27522 0Z"/>
<path transform="matrix(.30420608,-.9525791,-.9525791,-.30420608,127.819629,22.17022)" d="M1.27522 0C-.31879 .31879-1.91284 .9564-3.8257 2.07224-1.91284 .6376-1.91284-.6376-3.8257-2.07224-1.91284-.9564-.31879-.31879 1.27522 0Z" fill="#ff0000"/>
<path transform="matrix(.30420608,-.9525791,-.9525791,-.30420608,127.819629,22.17022)" stroke-width="1.19553" stroke-linecap="butt" stroke-linejoin="round" fill="none" stroke="#ff0000" d="M1.27522 0C-.31879 .31879-1.91284 .9564-3.8257 2.07224-1.91284 .6376-1.91284-.6376-3.8257-2.07224-1.91284-.9564-.31879-.31879 1.27522 0Z"/>
<path transform="matrix(1.00002,0,0,-1.00002,74.60924,105.41086)" d="M-15.30733 8.50412C-15.30733 9.44351-16.06885 10.20503-17.00824 10.20503-17.94763 10.20503-18.70915 9.44351-18.70915 8.50412-18.70915 7.56473-17.94763 6.80319-17.00824 6.80319-16.06885 6.80319-15.30733 7.56473-15.30733 8.50412ZM-17.00824 8.50412" fill="#ff0000"/>
<path transform="matrix(1.00002,0,0,-1.00002,74.60924,105.41086)" stroke-width=".3985" stroke-linecap="butt" stroke-miterlimit="10" stroke-linejoin="miter" fill="none" stroke="#ff0000" d="M-15.30733 8.50412C-15.30733 9.44351-16.06885 10.20503-17.00824 10.20503-17.94763 10.20503-18.70915 9.44351-18.70915 8.50412-18.70915 7.56473-17.94763 6.80319-17.00824 6.80319-16.06885 6.80319-15.30733 7.56473-15.30733 8.50412ZM-17.00824 8.50412"/>
<path transform="matrix(1.00002,0,0,-1.00002,74.60924,105.41086)" d="M-52.46188-5.5402H-19.20005V8.30488H-52.46188Z" fill="#ffffff"/>
<use data-text="(" xlink:href="#font_3_1" transform="matrix(9.962799,0,0,-9.962799,23.142212,106.51888)" fill="#ff0000"/>
<use data-text="&#x2212;" xlink:href="#font_2_1" transform="matrix(9.962799,0,0,-9.962799,27.016282,106.51888)" fill="#ff0000"/>
<use data-text="1" xlink:href="#font_3_3" transform="matrix(9.962799,0,0,-9.962799,34.765428,106.51888)" fill="#ff0000"/>
<use data-text="," xlink:href="#font_1_1" transform="matrix(9.962799,0,0,-9.962799,39.746538,106.51888)" fill="#ff0000"/>
<use data-text="1" xlink:href="#font_4_1" transform="matrix(6.97394,0,0,-6.97394,45.369646,102.5968)" fill="#ff0000"/>
<path transform="matrix(1.00002,0,0,-1.00002,-138.46903,14.104025)" stroke-width=".3985" stroke-linecap="butt" stroke-miterlimit="10" stroke-linejoin="miter" fill="none" stroke="#ff0000" d="M183.835-89.923H187.807"/>
<use data-text="2" xlink:href="#font_4_2" transform="matrix(6.97394,0,0,-6.97394,45.36966,109.95495)" fill="#ff0000"/>
<use data-text=")" xlink:href="#font_3_2" transform="matrix(9.962799,0,0,-9.962799,50.536775,106.51888)" fill="#ff0000"/>
<path transform="matrix(1.00002,0,0,-1.00002,74.60924,105.41086)" d="M18.70915 8.50412C18.70915 9.44351 17.94763 10.20503 17.00824 10.20503 16.06885 10.20503 15.30733 9.44351 15.30733 8.50412 15.30733 7.56473 16.06885 6.80319 17.00824 6.80319 17.94763 6.80319 18.70915 7.56473 18.70915 8.50412ZM17.00824 8.50412" fill="#ff0000"/>
<path transform="matrix(1.00002,0,0,-1.00002,74.60924,105.41086)" stroke-width=".3985" stroke-linecap="butt" stroke-miterlimit="10" stroke-linejoin="miter" fill="none" stroke="#ff0000" d="M18.70915 8.50412C18.70915 9.44351 17.94763 10.20503 17.00824 10.20503 16.06885 10.20503 15.30733 9.44351 15.30733 8.50412 15.30733 7.56473 16.06885 6.80319 17.00824 6.80319 17.94763 6.80319 18.70915 7.56473 18.70915 8.50412ZM17.00824 8.50412"/>
<path transform="matrix(1.00002,0,0,-1.00002,74.60924,105.41086)" d="M19.20004-5.5402H44.71303V8.30488H19.20004Z" fill="#ffffff"/>
<use data-text="(" xlink:href="#font_3_1" transform="matrix(9.962799,0,0,-9.962799,94.80564,106.51888)" fill="#ff0000"/>
<use data-text="1" xlink:href="#font_3_3" transform="matrix(9.962799,0,0,-9.962799,98.67121,106.51888)" fill="#ff0000"/>
<use data-text="," xlink:href="#font_1_1" transform="matrix(9.962799,0,0,-9.962799,103.66082,106.51888)" fill="#ff0000"/>
<use data-text="1" xlink:href="#font_4_1" transform="matrix(6.97394,0,0,-6.97394,109.28492,102.5968)" fill="#ff0000"/>
<path transform="matrix(1.00002,0,0,-1.00002,-66.805599,14.104025)" stroke-width=".3985" stroke-linecap="butt" stroke-miterlimit="10" stroke-linejoin="miter" fill="none" stroke="#ff0000" d="M176.087-89.923H180.058"/>
<use data-text="2" xlink:href="#font_4_2" transform="matrix(6.97394,0,0,-6.97394,109.284938,109.95495)" fill="#ff0000"/>
<use data-text=")" xlink:href="#font_3_2" transform="matrix(9.962799,0,0,-9.962799,114.45104,106.51888)" fill="#ff0000"/>
<path transform="matrix(1.00002,0,0,-1.00002,74.60924,105.41086)" d="M35.71742 34.0165C35.71742 34.95589 34.95589 35.71742 34.0165 35.71742 33.07712 35.71742 32.31558 34.95589 32.31558 34.0165 32.31558 33.07712 33.07712 32.31558 34.0165 32.31558 34.95589 32.31558 35.71742 33.07712 35.71742 34.0165ZM34.0165 34.0165" fill="#ff0000"/>
<path transform="matrix(1.00002,0,0,-1.00002,74.60924,105.41086)" stroke-width=".3985" stroke-linecap="butt" stroke-miterlimit="10" stroke-linejoin="miter" fill="none" stroke="#ff0000" d="M35.71742 34.0165C35.71742 34.95589 34.95589 35.71742 34.0165 35.71742 33.07712 35.71742 32.31558 34.95589 32.31558 34.0165 32.31558 33.07712 33.07712 32.31558 34.0165 32.31558 34.95589 32.31558 35.71742 33.07712 35.71742 34.0165ZM34.0165 34.0165"/>
<path transform="matrix(1.00002,0,0,-1.00002,74.60924,105.41086)" d="M39.88503 27.04256H66.00962V40.99044H39.88503Z" fill="#ffffff"/>
<use data-text="(" xlink:href="#font_3_1" transform="matrix(9.962799,0,0,-9.962799,116.488079,73.88423)" fill="#ff0000"/>
<use data-text="2" xlink:href="#font_3_4" transform="matrix(9.962799,0,0,-9.962799,120.353649,73.88423)" fill="#ff0000"/>
<use data-text="," xlink:href="#font_1_1" transform="matrix(9.962799,0,0,-9.962799,125.343257,73.88423)" fill="#ff0000"/>
<use data-text="2" xlink:href="#font_3_4" transform="matrix(9.962799,0,0,-9.962799,129.77133,73.88423)" fill="#ff0000"/>
<use data-text=")" xlink:href="#font_3_2" transform="matrix(9.962799,0,0,-9.962799,134.75272,73.88423)" fill="#ff0000"/>
</svg>
