<svg xmlns="http://www.w3.org/2000/svg" xmlns:xlink="http://www.w3.org/1999/xlink" version="1.1" width="180" height="151" viewBox="0 0 180 151">
<defs>
<path id="font_1_2" d="M.20599365 .3996582H.2999878C.31999208 .3996582 .32998658 .3996582 .32998658 .41966249 .32998658 .43066407 .31999208 .43066407 .3019867 .43066407H.21398926C.25 .5724945 .25498963 .59246829 .25498963 .59846499 .25498963 .61546328 .24299622 .62545779 .22599793 .62545779 .22299195 .62545779 .19499207 .62446597 .18598938 .58947756L.14698792 .43066407H.052993776C.032989503 .43066407 .022994996 .43066407 .022994996 .4116516 .022994996 .3996582 .0309906 .3996582 .050994874 .3996582H.13899231C.066986087 .11608887 .06298828 .099121097 .06298828 .08114624 .06298828 .02722168 .100997928-.0107421879 .15499878-.0107421879 .25698854-.0107421879 .31399537 .13505554 .31399537 .14305115 .31399537 .1530304 .30599977 .1530304 .3019867 .1530304 .29299928 .1530304 .2919922 .15003968 .2869873 .13905335 .24398804 .035217287 .19099427 .011245728 .15699768 .011245728 .13598633 .011245728 .12599182 .024230957 .12599182 .057174684 .12599182 .08114624 .12799073 .088134769 .13198853 .10510254L.20599365 .3996582Z"/>
<path id="font_1_1" d="M.1599884 .07795715C.1499939 .038986207 .147995 .0309906 .068984989 .0309906 .051986696 .0309906 .041992189 .0309906 .041992189 .010986328 .041992189 0 .050994874 0 .068984989 0H.42599488C.58399966 0 .70199587 .11791992 .70199587 .21585083 .70199587 .28778077 .6439972 .3457489 .5469971 .35673524 .651001 .37573243 .7559967 .44970704 .7559967 .5446625 .7559967 .6186218 .6899872 .6826172 .56999209 .6826172H.23399353C.21499634 .6826172 .20498657 .6826172 .20498657 .6626129 .20498657 .6516113 .21398926 .6516113 .23298645 .6516113 .23498535 .6516113 .2539978 .6516113 .2709961 .6496124 .2889862 .6476135 .2979889 .64660647 .2979889 .6336212 .2979889 .6296234 .29699708 .62661746 .2939911 .614624L.1599884 .07795715M.31098939 .36573792 .37298585 .6136322C.38198854 .64860537 .38398744 .6516113 .4269867 .6516113H.55599978C.6439972 .6516113 .6649933 .5926361 .6649933 .5486603 .6649933 .46069337 .57899478 .36573792 .45700074 .36573792H.31098939M.2659912 .0309906C.2519989 .0309906 .25 .0309906 .24398804 .03199768 .23399353 .032989503 .23098755 .033996583 .23098755 .04197693 .23098755 .04498291 .23098755 .04698181 .23599243 .064971927L.30499269 .34375H.49398805C.58999636 .34375 .60899356 .2698059 .60899356 .22683716 .60899356 .12791443 .519989 .0309906 .4019928 .0309906H.2659912Z"/>
<path id="font_2_1" d="M.33099366-.2400055C.33099366-.23701477 .33099366-.23500061 .31399537-.21800232 .18899536-.0920105 .15699768 .09700012 .15699768 .25 .15699768 .42399598 .19499207 .59799197 .31799317 .72299197 .33099366 .73498538 .33099366 .7369995 .33099366 .73999026 .33099366 .746994 .32699586 .75 .32099916 .75 .31098939 .75 .22099304 .6819916 .1619873 .5549927 .11099243 .44499208 .09899902 .33399964 .09899902 .25 .09899902 .17199707 .10998535 .050994874 .16499329-.06201172 .22499085-.18501282 .31098939-.25 .32099916-.25 .32699586-.25 .33099366-.24700928 .33099366-.2400055Z"/>
<path id="font_2_2" d="M.2889862 .25C.2889862 .32798768 .27799989 .44898988 .22299195 .56199648 .16299439 .68499758 .07699585 .75 .066986087 .75 .06098938 .75 .056991579 .74598696 .056991579 .73999026 .056991579 .7369995 .056991579 .73498538 .07598877 .71699526 .17399597 .6179962 .23098755 .45899964 .23098755 .25 .23098755 .07899475 .19400025-.09700012 .069992069-.2230072 .056991579-.23500061 .056991579-.23701477 .056991579-.2400055 .056991579-.2460022 .06098938-.25 .066986087-.25 .07699585-.25 .16699219-.18200684 .22599793-.055007936 .2769928 .054992677 .2889862 .16600037 .2889862 .25Z"/>
<path id="font_2_5" d="M.1269989 .07699585 .23298645 .18003845C.3889923 .31811524 .44898988 .3721466 .44898988 .47216798 .44898988 .5860901 .35899354 .6660156 .23699951 .6660156 .12399292 .6660156 .049987794 .57411196 .049987794 .48516847 .049987794 .4291687 .099990848 .4291687 .102996829 .4291687 .11999512 .4291687 .15499878 .44117738 .15499878 .48217774 .15499878 .5081787 .13699341 .5341797 .101989749 .5341797 .09399414 .5341797 .09199524 .5341797 .08898926 .5331726 .11199951 .59806826 .1659851 .63500979 .22399903 .63500979 .31498719 .63500979 .35798646 .5541382 .35798646 .47216798 .35798646 .39215089 .30799867 .31311036 .25299073 .25108338L.06098938 .036987306C.049987794 .025985718 .049987794 .023986817 .049987794 0H.42099L.44898988 .17404175H.42399598C.4189911 .14402771 .4119873 .1000061 .4019928 .084991458 .394989 .07699585 .32899476 .07699585 .30699159 .07699585H.1269989Z"/>
<path id="font_2_7" d="M.2939911 .16503906V.07800293C.2939911 .041992189 .2919922 .0309906 .21798706 .0309906H.19699097V0C.23799134 .0029907227 .2899933 .0029907227 .33198548 .0029907227 .37399293 .0029907227 .4269867 .0029907227 .46798707 0V.0309906H.44699098C.37298585 .0309906 .37098695 .041992189 .37098695 .07800293V.16503906H.47099305V.19602967H.37098695V.65075686C.37098695 .67074587 .37098695 .6767578 .35499574 .6767578 .34599305 .6767578 .34298707 .6767578 .33499146 .66474917L.027999878 .19602967V.16503906H.2939911M.2999878 .19602967H.055999757L.2999878 .5688019V.19602967Z"/>
<path id="font_2_8" d="M.13198853 .327713V.35173036C.13198853 .6047821 .2559967 .64100649 .30699159 .64100649 .33099366 .64100649 .37298585 .634964 .394989 .6007538 .37998963 .6007538 .33999635 .6007538 .33999635 .5557556 .33999635 .524765 .3639984 .5097656 .38598634 .5097656 .4019928 .5097656 .43199159 .51875308 .43199159 .5577545 .43199159 .6178589 .3880005 .6660156 .30499269 .6660156 .1769867 .6660156 .041992189 .5367584 .041992189 .31570436 .041992189 .048553468 .1579895-.022460938 .25099183-.022460938 .3619995-.022460938 .45700074 .07156372 .45700074 .2036438 .45700074 .33070375 .36799623 .4267578 .25698854 .4267578 .18899536 .4267578 .1519928 .37573243 .13198853 .327713M.25099183 .0055389406C.18798828 .0055389406 .1579895 .06556702 .1519928 .080566409 .13398743 .127594 .13398743 .2076416 .13398743 .22564698 .13398743 .30369569 .1659851 .40374757 .2559967 .40374757 .27198792 .40374757 .31799317 .40374757 .34899903 .34172059 .36698915 .30470277 .36698915 .2536621 .36698915 .20463562 .36698915 .15661621 .36698915 .10658264 .34999085 .0705719 .31999208 .010528564 .27398683 .0055389406 .25099183 .0055389406Z"/>
<path id="font_2_9" d="M.16299439 .4569702C.116989139 .486969 .11299133 .52098086 .11299133 .5379791 .11299133 .598999 .17799378 .64100649 .24899292 .64100649 .32199098 .64100649 .38598634 .58898928 .38598634 .51698306 .38598634 .45996095 .34700013 .4119568 .2869873 .37695313L.16299439 .4569702M.30899049 .36193849C.3809967 .3989563 .42999269 .45095826 .42999269 .51698306 .42999269 .6090088 .34098817 .6660156 .25 .6660156 .1499939 .6660156 .068984989 .59199526 .068984989 .49897767 .068984989 .4809723 .070999149 .43595887 .11299133 .38894654 .12399292 .37695313 .16099549 .35194398 .18598938 .33494569 .12799073 .30592347 .041992189 .24984741 .041992189 .15072632 .041992189 .04458618 .14399719-.022460938 .24899292-.022460938 .3619995-.022460938 .45700074 .06060791 .45700074 .16773987 .45700074 .20379639 .44599916 .24885559 .4079895 .2909088 .3889923 .31193543 .37298585 .3219452 .30899049 .36193849M.20899964 .3199463 .33198548 .24183655C.3600006 .2228241 .40699769 .19277954 .40699769 .13169861 .40699769 .05760193 .33198548 .0055389406 .25 .0055389406 .1639862 .0055389406 .09199524 .067611698 .09199524 .15072632 .09199524 .20880127 .12399292 .27288819 .20899964 .3199463Z"/>
<path id="font_2_4" d="M.2939911 .64004519C.2939911 .66400149 .2939911 .6660156 .2709961 .6660156 .20899964 .60227969 .12098694 .60227969 .08898926 .60227969V.57128909C.10899353 .57128909 .16799927 .57128909 .21998596 .5972748V.07902527C.21998596 .042999269 .21699524 .0309906 .1269989 .0309906H.09498596V0C.12998963 .0029907227 .21699524 .0029907227 .25698854 .0029907227 .29699708 .0029907227 .38398744 .0029907227 .4189911 0V.0309906H.3869934C.29699708 .0309906 .2939911 .041992189 .2939911 .07902527V.64004519Z"/>
<path id="font_2_3" d="M.45999146 .31976319C.45999146 .39982606 .45498658 .47988893 .41999818 .5539398 .37399293 .65000918 .2919922 .6660156 .25 .6660156 .18998719 .6660156 .116989139 .64001467 .07598877 .54693606 .04399109 .47789 .038986207 .39982606 .038986207 .31976319 .038986207 .24472046 .042999269 .15464783 .083999637 .07859802 .1269989-.0024719239 .19999695-.022460938 .24899292-.022460938 .30299378-.022460938 .3789978-.0014648438 .4229889 .09359741 .45498658 .16265869 .45999146 .2407074 .45999146 .31976319M.24899292-.00047302247C.20999146-.00047302247 .15098572 .024551392 .1329956 .12062073 .12199402 .18066406 .12199402 .2727356 .12199402 .3317871 .12199402 .39582826 .12199402 .46188355 .12998963 .5159149 .14898682 .63500979 .22399903 .64401248 .24899292 .64401248 .28199769 .64401248 .34799195 .6259918 .36698915 .52693179 .3769989 .47088624 .3769989 .39482118 .3769989 .3317871 .3769989 .25672914 .3769989 .18867493 .3659973 .12461853 .35099793 .029556275 .2939911-.00047302247 .24899292-.00047302247Z"/>
<path id="font_2_6" d="M.2899933 .35191346C.37199403 .37893678 .42999269 .4490509 .42999269 .52809146 .42999269 .6100464 .34199525 .6660156 .24598694 .6660156 .14498902 .6660156 .068984989 .60606387 .068984989 .53009036 .068984989 .49710084 .09098816 .47808839 .11999512 .47808839 .15098572 .47808839 .17098999 .50009158 .17098999 .5290985 .17098999 .57910159 .12399292 .57910159 .10899353 .57910159 .13999939 .62802127 .20599365 .64100649 .24198914 .64100649 .2829895 .64100649 .33799745 .6190338 .33799745 .5290985 .33799745 .51708987 .33599855 .45906068 .30999757 .4149933 .27999879 .36691285 .24598694 .36390687 .22099304 .36291505 .21299744 .36190797 .18899536 .35990907 .18199158 .35990907 .17399597 .35890199 .16699219 .35791017 .16699219 .3479004 .16699219 .33691407 .17399597 .33691407 .19099427 .33691407H.23498535C.31698609 .33691407 .35398866 .2686615 .35398866 .17037964 .35398866 .034469606 .2849884 .0055389406 .24099732 .0055389406 .19799805 .0055389406 .12298584 .022491456 .08799744 .08137512 .12298584 .07637024 .1539917 .09837341 .1539917 .1363678 .1539917 .17237854 .1269989 .19238281 .09799194 .19238281 .07398987 .19238281 .041992189 .17837525 .041992189 .1343689 .041992189 .043441774 .1349945-.022460938 .24398804-.022460938 .3659973-.022460938 .45700074 .06838989 .45700074 .17037964 .45700074 .252594 .3939972 .33088685 .2899933 .35191346Z"/>
</defs>
<path transform="matrix(1.00005,0,0,-1,26.650628,137.492)" stroke-width=".3985" stroke-linecap="butt" stroke-miterlimit="10" stroke-linejoin="miter" fill="none" stroke="#00aeef" d="M0 0H141.73404M0 14.17339H141.73404M0 28.3468H141.73404M0 42.5202H141.73404M0 56.69362H141.73404M0 70.867H141.73404M0 85.04042H141.73404M0 99.21382H141.73404M0 113.38225H141.73404M0 0V113.38724M14.17339 0V113.38724M28.3468 0V113.38724M42.5202 0V113.38724M56.69362 0V113.38724M70.867 0V113.38724M85.04042 0V113.38724M99.21382 0V113.38724M113.38724 0V113.38724M127.56062 0V113.38724M141.72905 0V113.38724M141.73404 113.38724"/>
<path transform="matrix(1.00005,0,0,-1,26.650628,137.492)" stroke-width=".79701" stroke-linecap="butt" stroke-miterlimit="10" stroke-linejoin="miter" fill="none" stroke="#000000" d="M0 0H148.80356"/>
<path transform="matrix(1.00005,0,0,-1,175.46161,137.492)" d="M1.0361 0C-.25902 .25902-1.55415 .77707-3.1083 1.68365-1.55415 .51805-1.55415-.51805-3.1083-1.68365-1.55415-.77707-.25902-.25902 1.0361 0Z"/>
<path transform="matrix(1.00005,0,0,-1,175.46161,137.492)" stroke-width=".79701" stroke-linecap="butt" stroke-linejoin="round" fill="none" stroke="#000000" d="M1.0361 0C-.25902 .25902-1.55415 .77707-3.1083 1.68365-1.55415 .51805-1.55415-.51805-3.1083-1.68365-1.55415-.77707-.25902-.25902 1.0361 0Z"/>
<use data-text="t" xlink:href="#font_1_2" transform="matrix(9.963098,0,0,-9.9626,175.09705,133.77301)"/>
<path transform="matrix(1.00005,0,0,-1,26.650628,137.492)" stroke-width=".79701" stroke-linecap="butt" stroke-miterlimit="10" stroke-linejoin="miter" fill="none" stroke="#000000" d="M0 0V120.45674"/>
<path transform="matrix(0,-1,-1.00005,-0,26.650628,17.035264)" d="M1.0361 0C-.25902 .25902-1.55415 .77707-3.1083 1.68365-1.55415 .51805-1.55415-.51805-3.1083-1.68365-1.55415-.77707-.25902-.25902 1.0361 0Z"/>
<path transform="matrix(0,-1,-1.00005,-0,26.650628,17.035264)" stroke-width=".79701" stroke-linecap="butt" stroke-linejoin="round" fill="none" stroke="#000000" d="M1.0361 0C-.25902 .25902-1.55415 .77707-3.1083 1.68365-1.55415 .51805-1.55415-.51805-3.1083-1.68365-1.55415-.77707-.25902-.25902 1.0361 0Z"/>
<use data-text="B" xlink:href="#font_1_1" transform="matrix(9.963098,0,0,-9.9626,16.948143,9.391006)"/>
<use data-text="(" xlink:href="#font_2_1" transform="matrix(9.963098,0,0,-9.9626,25.005547,9.391006)"/>
<use data-text="t" xlink:href="#font_1_2" transform="matrix(9.963098,0,0,-9.9626,28.879746,9.391006)"/>
<use data-text=")" xlink:href="#font_2_2" transform="matrix(9.963098,0,0,-9.9626,32.477937,9.391006)"/>
<path transform="matrix(1.00005,0,0,-1,26.650628,137.492)" stroke-width=".79701" stroke-linecap="butt" stroke-miterlimit="10" stroke-linejoin="miter" fill="none" stroke="#000000" d="M28.3468 2.12592V-2.12613"/>
<path transform="matrix(1.00005,0,0,-1,26.650628,137.492)" d="M24.85983-12.93018H31.83377V-4.5171997H24.85983Z" fill="#ffffff"/>
<use data-text="2" xlink:href="#font_2_5" transform="matrix(9.963098,0,0,-9.9626,52.50792,149.42601)"/>
<path transform="matrix(1.00005,0,0,-1,26.650628,137.492)" stroke-width=".79701" stroke-linecap="butt" stroke-miterlimit="10" stroke-linejoin="miter" fill="none" stroke="#000000" d="M56.69362 2.12592V-2.12613"/>
<path transform="matrix(1.00005,0,0,-1,26.650628,137.492)" d="M53.20665-12.93018H60.180589V-4.5171997H53.20665Z" fill="#ffffff"/>
<use data-text="4" xlink:href="#font_2_7" transform="matrix(9.963098,0,0,-9.9626,80.85634,149.42601)"/>
<path transform="matrix(1.00005,0,0,-1,26.650628,137.492)" stroke-width=".79701" stroke-linecap="butt" stroke-miterlimit="10" stroke-linejoin="miter" fill="none" stroke="#000000" d="M85.04042 2.12592V-2.12613"/>
<path transform="matrix(1.00005,0,0,-1,26.650628,137.492)" d="M81.55345-12.93018H88.52739V-4.5171997H81.55345Z" fill="#ffffff"/>
<use data-text="6" xlink:href="#font_2_8" transform="matrix(9.963098,0,0,-9.9626,109.20475,149.42601)"/>
<path transform="matrix(1.00005,0,0,-1,26.650628,137.492)" stroke-width=".79701" stroke-linecap="butt" stroke-miterlimit="10" stroke-linejoin="miter" fill="none" stroke="#000000" d="M113.38724 2.12592V-2.12613"/>
<path transform="matrix(1.00005,0,0,-1,26.650628,137.492)" d="M109.90027-12.93018H116.87421V-4.5171997H109.90027Z" fill="#ffffff"/>
<use data-text="8" xlink:href="#font_2_9" transform="matrix(9.963098,0,0,-9.9626,137.55316,149.42601)"/>
<path transform="matrix(1.00005,0,0,-1,26.650628,137.492)" stroke-width=".79701" stroke-linecap="butt" stroke-miterlimit="10" stroke-linejoin="miter" fill="none" stroke="#000000" d="M141.73404 2.12592V-2.12613"/>
<path transform="matrix(1.00005,0,0,-1,26.650628,137.492)" d="M135.75637-12.93018H147.7117V-4.5171997H135.75637Z" fill="#ffffff"/>
<use data-text="1" xlink:href="#font_2_4" transform="matrix(9.963098,0,0,-9.9626,163.41046,149.42601)"/>
<use data-text="0" xlink:href="#font_2_3" transform="matrix(9.963098,0,0,-9.9626,168.39203,149.42601)"/>
<path transform="matrix(1.00005,0,0,-1,26.650628,137.492)" stroke-width=".79701" stroke-linecap="butt" stroke-miterlimit="10" stroke-linejoin="miter" fill="none" stroke="#000000" d="M2.12592 28.3468H-2.12613"/>
<path transform="matrix(1.00005,0,0,-1,26.650628,137.492)" d="M-26.43533 24.1403H-4.517189V32.55328H-26.43533Z" fill="#ffffff"/>
<use data-text="1" xlink:href="#font_2_4" transform="matrix(9.963098,0,0,-9.9626,1.2103577,112.355)"/>
<use data-text="0" xlink:href="#font_2_3" transform="matrix(9.963098,0,0,-9.9626,6.19191,112.355)"/>
<use data-text="0" xlink:href="#font_2_3" transform="matrix(9.963098,0,0,-9.9626,11.173462,112.355)"/>
<use data-text="0" xlink:href="#font_2_3" transform="matrix(9.963098,0,0,-9.9626,16.155007,112.355)"/>
<path transform="matrix(1.00005,0,0,-1,26.650628,137.492)" stroke-width=".79701" stroke-linecap="butt" stroke-miterlimit="10" stroke-linejoin="miter" fill="none" stroke="#000000" d="M2.12592 56.69362H-2.12613"/>
<path transform="matrix(1.00005,0,0,-1,26.650628,137.492)" d="M-26.43533 52.48712H-4.517189V60.9001H-26.43533Z" fill="#ffffff"/>
<use data-text="2" xlink:href="#font_2_5" transform="matrix(9.963098,0,0,-9.9626,1.2103577,84.009)"/>
<use data-text="0" xlink:href="#font_2_3" transform="matrix(9.963098,0,0,-9.9626,6.19191,84.009)"/>
<use data-text="0" xlink:href="#font_2_3" transform="matrix(9.963098,0,0,-9.9626,11.173462,84.009)"/>
<use data-text="0" xlink:href="#font_2_3" transform="matrix(9.963098,0,0,-9.9626,16.155007,84.009)"/>
<path transform="matrix(1.00005,0,0,-1,26.650628,137.492)" stroke-width=".79701" stroke-linecap="butt" stroke-miterlimit="10" stroke-linejoin="miter" fill="none" stroke="#000000" d="M2.12592 85.04042H-2.12613"/>
<path transform="matrix(1.00005,0,0,-1,26.650628,137.492)" d="M-26.43533 80.83392H-4.517189V89.2469H-26.43533Z" fill="#ffffff"/>
<use data-text="3" xlink:href="#font_2_6" transform="matrix(9.963098,0,0,-9.9626,1.2103577,55.662004)"/>
<use data-text="0" xlink:href="#font_2_3" transform="matrix(9.963098,0,0,-9.9626,6.19191,55.662004)"/>
<use data-text="0" xlink:href="#font_2_3" transform="matrix(9.963098,0,0,-9.9626,11.173462,55.662004)"/>
<use data-text="0" xlink:href="#font_2_3" transform="matrix(9.963098,0,0,-9.9626,16.155007,55.662004)"/>
<path transform="matrix(1.00005,0,0,-1,26.650628,137.492)" stroke-width=".79701" stroke-linecap="butt" stroke-miterlimit="10" stroke-linejoin="miter" fill="none" stroke="#000000" d="M2.12592 113.38724H-2.12613"/>
<path transform="matrix(1.00005,0,0,-1,26.650628,137.492)" d="M-26.43533 109.18074H-4.517189V117.59372H-26.43533Z" fill="#ffffff"/>
<use data-text="4" xlink:href="#font_2_7" transform="matrix(9.963098,0,0,-9.9626,1.2103577,27.315003)"/>
<use data-text="0" xlink:href="#font_2_3" transform="matrix(9.963098,0,0,-9.9626,6.19191,27.315003)"/>
<use data-text="0" xlink:href="#font_2_3" transform="matrix(9.963098,0,0,-9.9626,11.173462,27.315003)"/>
<use data-text="0" xlink:href="#font_2_3" transform="matrix(9.963098,0,0,-9.9626,16.155007,27.315003)"/>
<path transform="matrix(1.00005,0,0,-1,26.650628,137.492)" stroke-width="1.19553" stroke-linecap="butt" stroke-miterlimit="10" stroke-linejoin="miter" fill="none" stroke="#ff0000" d="M0 102.04846C0 102.04846 1.60005 97.5765 2.21458 95.92719 2.82913 94.27786 3.81464 91.71332 4.42918 90.16124 5.04372 88.60916 6.02924 86.20117 6.64377 84.74088 7.25832 83.2806 8.24382 81.00887 8.85837 79.6365 9.4729 78.26414 10.45842 76.13855 11.07297 74.84982 11.6875 73.5611 12.67302 71.55914 13.28755 70.34818 13.9021 69.13722 14.8876 67.26065 15.50215 66.12206 16.11668 64.98347 17.1022 63.2128 17.71674 62.14206 18.33128 61.07132 19.3168 59.41064 19.93134 58.40494 20.54588 57.39923 21.53139 55.83969 22.14594 54.89359 22.76047 53.94751 23.74599 52.47546 24.36052 51.5862 24.97507 50.69695 25.96057 49.31862 26.57512 48.48447 27.18965 47.6503 28.17517 46.35884 28.78972 45.57414 29.40425 44.78943 30.38977 43.56664 31.0043 42.82881 31.61885 42.09102 32.60435 40.94957 33.2189 40.25652 33.83344 39.56345 34.81895 38.48654 35.43349 37.83366 36.04803 37.18076 37.03355 36.16365 37.64809 35.55093 38.26263 34.93823 39.24814 33.99258 39.86269 33.41765 40.47722 32.84273 41.46274 31.94821 42.07727 31.40721 42.69182 30.86623 43.67732 30.0271 44.29187 29.51854 44.9064 29.01 45.89192 28.22064 46.50647 27.74188 47.121 27.26312 48.10654 26.51692 48.72107 26.06796 49.33562 25.619 50.32112 24.92802 50.93567 24.50607 51.5502 24.08412 52.53572 23.42323 53.15025 23.0268 53.7648 22.63034 54.7503 22.0212 55.36485 21.64873 55.97939 21.27626 56.9649 20.69353 57.57945 20.34224 58.19398 19.99095 59.1795 19.44676 59.79404 19.11687 60.40858 18.78697 61.39409 18.27332 62.00864 17.96458 62.62317 17.65584 63.60869 17.18204 64.22322 16.89168 64.83777 16.6013 65.82329 16.14633 66.43782 15.87175 67.05237 15.59717 68.03787 15.16862 68.65242 14.9126 69.26695 14.65659 70.25247 14.26743 70.867 14.02654 71.48155 13.78564 72.46706 13.40474 73.0816 13.17638 73.69614 12.94803 74.68166 12.59462 75.2962 12.38074 75.91074 12.16685 76.89626 11.83446 77.51079 11.63483 78.12534 11.4352 79.11084 11.13008 79.72539 10.94191 80.33992 10.75374 81.32544 10.45576 81.93997 10.2786 82.55452 10.10146 83.54004 9.83078 84.15457 9.66504 84.76912 9.49933 85.75462 9.24123 86.36917 9.08415 86.9837 8.92706 87.96922 8.6802 88.58376 8.53288 89.1983 8.38554 90.1838 8.16118 90.79836 8.02228 91.41289 7.88338 92.3984 7.66206 93.01295 7.53177 93.62749 7.40149 94.61302 7.20508 95.22755 7.08324 95.8421 6.96138 96.8276 6.76822 97.44215 6.6535 98.05669 6.53879 99.0422 6.36403 99.65674 6.25642 100.27129 6.14883 101.2568 5.97992 101.87134 5.87796 102.48587 5.776 103.47139 5.61574 104.08594 5.52155 104.70047 5.42735 105.68599 5.28831 106.30052 5.19908 106.91507 5.10985 107.90057 4.96391 108.51512 4.87837 109.12965 4.79283 110.11517 4.66179 110.7297 4.5825 111.34425 4.50325 112.32977 4.38065 112.9443 4.30699 113.55885 4.23332 114.54436 4.12094 115.1589 4.05156 115.77344 3.9822 116.75896 3.87222 117.37349 3.80696 117.98804 3.7417 118.97354 3.64359 119.58809 3.58118 120.20262 3.51877 121.18814 3.41501 121.80269 3.35712 122.41722 3.29924 123.40274 3.21779 124.01727 3.164 124.63182 3.1102 125.61732 3.02187 126.23187 2.96936 126.8464 2.91685 127.83192 2.83371 128.44646 2.78552 129.061 2.73734 130.04653 2.6674 130.66106 2.62202 131.2756 2.57666 132.26111 2.50107 132.87566 2.45853 133.49019 2.41599 134.47571 2.35489 135.09024 2.31535 135.70479 2.27585 136.69029 2.21196 137.30484 2.1737 137.91938 2.13545 138.90489 2.07397 139.51944 2.03961 140.13397 2.00525 141.73404 1.92609 139.86344 2.01865"/>
<path transform="matrix(.9987799,.04942,.04942247,-.99873,166.52103,135.47336)" d="M1.27522 0C-.31879 .31879-1.91284 .9564-3.8257 2.07224-1.91284 .6376-1.91284-.6376-3.8257-2.07224-1.91284-.9564-.31879-.31879 1.27522 0Z" fill="#ff0000"/>
<path transform="matrix(.9987799,.04942,.04942247,-.99873,166.52103,135.47336)" stroke-width="1.19553" stroke-linecap="butt" stroke-linejoin="round" fill="none" stroke="#ff0000" d="M1.27522 0C-.31879 .31879-1.91284 .9564-3.8257 2.07224-1.91284 .6376-1.91284-.6376-3.8257-2.07224-1.91284-.9564-.31879-.31879 1.27522 0Z"/>
</svg>
