<svg xmlns="http://www.w3.org/2000/svg" xmlns:xlink="http://www.w3.org/1999/xlink" version="1.1" width="162" height="175" viewBox="0 0 162 175">
<defs>
<path id="font_1_1" d="M.33399964 .30233766C.33999635 .32835389 .36299134 .42037965 .43299867 .42037965 .43798829 .42037965 .46199037 .42037965 .48298646 .40734864 .45498658 .402359 .43499757 .37734986 .43499757 .35334779 .43499757 .33735658 .44599916 .31835938 .47299195 .31835938 .49499513 .31835938 .5269928 .3363495 .5269928 .37635804 .5269928 .42837525 .46798707 .4423828 .43399049 .4423828 .37599183 .4423828 .34098817 .38935853 .32899476 .36634828 .3039856 .43237306 .25 .4423828 .22099304 .4423828 .116989139 .4423828 .05999756 .3133545 .05999756 .28834535 .05999756 .27833558 .069992069 .27833558 .07199097 .27833558 .07998657 .27833558 .08299255 .28033448 .084991458 .28933717 .11898804 .39535523 .18499756 .42037965 .21899414 .42037965 .23799134 .42037965 .272995 .4113617 .272995 .35334779 .272995 .32235719 .2559967 .25532533 .21899414 .11528015 .20298767 .053268434 .16799927 .011245728 .12399292 .011245728 .117996219 .011245728 .09498596 .011245728 .07398987 .024276734 .09899902 .029266358 .12098694 .05027771 .12098694 .07827759 .12098694 .105270389 .09899902 .11328125 .083999637 .11328125 .053985597 .11328125 .0289917 .08728027 .0289917 .055267335 .0289917 .009246826 .07899475-.0107421879 .12298584-.0107421879 .18899536-.0107421879 .22499085 .059280397 .22799683 .0652771 .23999024 .028274537 .27598573-.0107421879 .33599855-.0107421879 .43899537-.0107421879 .49598695 .118270877 .49598695 .14328003 .49598695 .1532898 .4869995 .1532898 .48399354 .1532898 .47499085 .1532898 .47299195 .14929199 .47099305 .14228821 .43798829 .03527832 .36999513 .011245728 .33799745 .011245728 .29899598 .011245728 .2829895 .043273927 .2829895 .07727051 .2829895 .09927368 .2889862 .121276859 .2999878 .16529846L.33399964 .30233766Z"/>
<path id="font_1_2" d="M.48599244 .38136292C.48999024 .39537049 .48999024 .39736939 .48999024 .40437318 .48999024 .42237855 .47599793 .43138124 .46099855 .43138124 .45098878 .43138124 .43499757 .42536927 .42599488 .41036988 .42399598 .405365 .41600038 .37435914 .4119873 .35635377 .40499879 .33035279 .397995 .30334474 .3919983 .27633668L.34700013 .09628296C.34298707 .08126831 .2999878 .011245728 .23399353 .011245728 .18299866 .011245728 .17199707 .055267335 .17199707 .0922699 .17199707 .1382904 .18899536 .20030213 .22299195 .28833009 .23899842 .3293457 .24299622 .3403473 .24299622 .36035157 .24299622 .405365 .21099854 .4423828 .16099549 .4423828 .06599426 .4423828 .0289917 .29733277 .0289917 .28833009 .0289917 .27833558 .038986207 .27833558 .040985109 .27833558 .050994874 .27833558 .051986696 .28033448 .056991579 .29634095 .083999637 .3903656 .12399292 .42037965 .1579895 .42037965 .1659851 .42037965 .18299866 .42037965 .18299866 .3883667 .18299866 .36335755 .17298889 .3373413 .1659851 .31834413 .12599182 .21231079 .10798645 .1552887 .10798645 .10827637 .10798645 .019256592 .17098999-.0107421879 .22999573-.0107421879 .2689972-.0107421879 .30299378 .0062561037 .33099366 .03425598 .31799317-.017745972 .30599977-.06674194 .2659912-.11973572 .23999024-.15385437 .20199585-.18309021 .1559906-.18309021 .14199829-.18309021 .09700012-.18005371 .07998657-.14074707 .09599304-.14074707 .10899353-.14074707 .12298584-.1287384 .1329956-.11973572 .14299011-.10673523 .14299011-.08773804 .14299011-.056747438 .115997318-.052734376 .10598755-.052734376 .08299255-.052734376 .049987794-.068740848 .049987794-.11773682 .049987794-.16796875 .09399414-.20507813 .1559906-.20507813 .25898744-.20507813 .3619995-.11373901 .3899994-.00074768069L.48599244 .38136292Z"/>
<path id="font_2_1" d="M.6589966 .23046875C.6759949 .23046875 .69400027 .23046875 .69400027 .25045777 .69400027 .27046205 .6759949 .27046205 .6589966 .27046205H.117996219C.100997928 .27046205 .08299255 .27046205 .08299255 .25045777 .08299255 .23046875 .100997928 .23046875 .117996219 .23046875H.6589966Z"/>
<path id="font_3_4" d="M.16299439 .4569702C.116989139 .486969 .11299133 .52098086 .11299133 .5379791 .11299133 .598999 .17799378 .64100649 .24899292 .64100649 .32199098 .64100649 .38598634 .58898928 .38598634 .51698306 .38598634 .45996095 .34700013 .4119568 .2869873 .37695313L.16299439 .4569702M.30899049 .36193849C.3809967 .3989563 .42999269 .45095826 .42999269 .51698306 .42999269 .6090088 .34098817 .6660156 .25 .6660156 .1499939 .6660156 .068984989 .59199526 .068984989 .49897767 .068984989 .4809723 .070999149 .43595887 .11299133 .38894654 .12399292 .37695313 .16099549 .35194398 .18598938 .33494569 .12799073 .30592347 .041992189 .24984741 .041992189 .15072632 .041992189 .04458618 .14399719-.022460938 .24899292-.022460938 .3619995-.022460938 .45700074 .06060791 .45700074 .16773987 .45700074 .20379639 .44599916 .24885559 .4079895 .2909088 .3889923 .31193543 .37298585 .3219452 .30899049 .36193849M.20899964 .3199463 .33198548 .24183655C.3600006 .2228241 .40699769 .19277954 .40699769 .13169861 .40699769 .05760193 .33198548 .0055389406 .25 .0055389406 .1639862 .0055389406 .09199524 .067611698 .09199524 .15072632 .09199524 .20880127 .12399292 .27288819 .20899964 .3199463Z"/>
<path id="font_3_2" d="M.2939911 .16503906V.07800293C.2939911 .041992189 .2919922 .0309906 .21798706 .0309906H.19699097V0C.23799134 .0029907227 .2899933 .0029907227 .33198548 .0029907227 .37399293 .0029907227 .4269867 .0029907227 .46798707 0V.0309906H.44699098C.37298585 .0309906 .37098695 .041992189 .37098695 .07800293V.16503906H.47099305V.19602967H.37098695V.65075686C.37098695 .67074587 .37098695 .6767578 .35499574 .6767578 .34599305 .6767578 .34298707 .6767578 .33499146 .66474917L.027999878 .19602967V.16503906H.2939911M.2999878 .19602967H.055999757L.2999878 .5688019V.19602967Z"/>
<path id="font_3_1" d="M.2939911 .64004519C.2939911 .66400149 .2939911 .6660156 .2709961 .6660156 .20899964 .60227969 .12098694 .60227969 .08898926 .60227969V.57128909C.10899353 .57128909 .16799927 .57128909 .21998596 .5972748V.07902527C.21998596 .042999269 .21699524 .0309906 .1269989 .0309906H.09498596V0C.12998963 .0029907227 .21699524 .0029907227 .25698854 .0029907227 .29699708 .0029907227 .38398744 .0029907227 .4189911 0V.0309906H.3869934C.29699708 .0309906 .2939911 .041992189 .2939911 .07902527V.64004519Z"/>
<path id="font_3_3" d="M.13198853 .327713V.35173036C.13198853 .6047821 .2559967 .64100649 .30699159 .64100649 .33099366 .64100649 .37298585 .634964 .394989 .6007538 .37998963 .6007538 .33999635 .6007538 .33999635 .5557556 .33999635 .524765 .3639984 .5097656 .38598634 .5097656 .4019928 .5097656 .43199159 .51875308 .43199159 .5577545 .43199159 .6178589 .3880005 .6660156 .30499269 .6660156 .1769867 .6660156 .041992189 .5367584 .041992189 .31570436 .041992189 .048553468 .1579895-.022460938 .25099183-.022460938 .3619995-.022460938 .45700074 .07156372 .45700074 .2036438 .45700074 .33070375 .36799623 .4267578 .25698854 .4267578 .18899536 .4267578 .1519928 .37573243 .13198853 .327713M.25099183 .0055389406C.18798828 .0055389406 .1579895 .06556702 .1519928 .080566409 .13398743 .127594 .13398743 .2076416 .13398743 .22564698 .13398743 .30369569 .1659851 .40374757 .2559967 .40374757 .27198792 .40374757 .31799317 .40374757 .34899903 .34172059 .36698915 .30470277 .36698915 .2536621 .36698915 .20463562 .36698915 .15661621 .36698915 .10658264 .34999085 .0705719 .31999208 .010528564 .27398683 .0055389406 .25099183 .0055389406Z"/>
</defs>
<path transform="matrix(1.00003,0,0,-1.00006,85.950199,81.4591)" stroke-width=".3985" stroke-linecap="butt" stroke-miterlimit="10" stroke-linejoin="miter" fill="none" stroke="#00aeef" d="M-79.37244-91.83992H59.52933M-79.37244-81.63548H59.52933M-79.37244-71.43103H59.52933M-79.37244-61.2266H59.52933M-79.37244-51.02217H59.52933M-79.37244-40.81773H59.52933M-79.37244-30.6133H59.52933M-79.37244-20.40886H59.52933M-79.37244-10.20442H59.52933M-79.37244 0H59.52933M-79.37244 10.20442H59.52933M-79.37244 20.40886H59.52933M-79.37244 30.6133H59.52933M-79.37244 40.81773H59.52933M-79.37244 51.02217H59.52933M-79.37244 61.22481H59.52933M-79.37244-91.83992V61.2266M-69.45088-91.83992V61.2266M-59.52933-91.83992V61.2266M-49.60777-91.83992V61.2266M-39.68622-91.83992V61.2266M-29.76466-91.83992V61.2266M-19.84311-91.83992V61.2266M-9.92155-91.83992V61.2266M0-91.83992V61.2266M9.92155-91.83992V61.2266M19.84311-91.83992V61.2266M29.76466-91.83992V61.2266M39.68622-91.83992V61.2266M49.60777-91.83992V61.2266M59.52583-91.83992V61.2266M59.52933 61.2266"/>
<path transform="matrix(1.00003,0,0,-1.00006,85.950199,81.4591)" stroke-width="1.19553" stroke-linecap="butt" stroke-miterlimit="10" stroke-linejoin="miter" fill="none" stroke="#000000" d="M-79.37244 0H63.60933"/>
<path transform="matrix(1.00003,0,0,-1.00006,149.56143,81.4591)" d="M1.27522 0C-.31879 .31879-1.91284 .9564-3.8257 2.07224-1.91284 .6376-1.91284-.6376-3.8257-2.07224-1.91284-.9564-.31879-.31879 1.27522 0Z"/>
<path transform="matrix(1.00003,0,0,-1.00006,149.56143,81.4591)" stroke-width="1.19553" stroke-linecap="butt" stroke-linejoin="round" fill="none" stroke="#000000" d="M1.27522 0C-.31879 .31879-1.91284 .9564-3.8257 2.07224-1.91284 .6376-1.91284-.6376-3.8257-2.07224-1.91284-.9564-.31879-.31879 1.27522 0Z"/>
<use data-text="x" xlink:href="#font_1_1" transform="matrix(9.962899,0,0,-9.963197,155.35327,83.604228)"/>
<path transform="matrix(1.00003,0,0,-1.00006,85.950199,81.4591)" stroke-width="1.19553" stroke-linecap="butt" stroke-miterlimit="10" stroke-linejoin="miter" fill="none" stroke="#000000" d="M0-91.83992V67.5172"/>
<path transform="matrix(0,-1.00006,-1.00003,-0,85.950199,13.937851)" d="M1.27522 0C-.31879 .31879-1.91284 .9564-3.8257 2.07224-1.91284 .6376-1.91284-.6376-3.8257-2.07224-1.91284-.9564-.31879-.31879 1.27522 0Z"/>
<path transform="matrix(0,-1.00006,-1.00003,-0,85.950199,13.937851)" stroke-width="1.19553" stroke-linecap="butt" stroke-linejoin="round" fill="none" stroke="#000000" d="M1.27522 0C-.31879 .31879-1.91284 .9564-3.8257 2.07224-1.91284 .6376-1.91284-.6376-3.8257-2.07224-1.91284-.9564-.31879-.31879 1.27522 0Z"/>
<use data-text="y" xlink:href="#font_1_2" transform="matrix(9.962899,0,0,-9.963197,83.32912,6.2085878)"/>
<path transform="matrix(1.00003,0,0,-1.00006,85.950199,81.4591)" stroke-width=".3985" stroke-linecap="butt" stroke-miterlimit="10" stroke-linejoin="miter" fill="none" stroke="#000000" d="M-79.37244 1.53067V-1.53067"/>
<path transform="matrix(1.00003,0,0,-1.00006,85.950199,81.4591)" d="M-86.73383-12.9657H-72.011058V-3.7224704H-86.73383Z" fill="#ffffff"/>
<use data-text="&#x2212;" xlink:href="#font_2_1" transform="matrix(9.962899,0,0,-9.963197,.20960999,92.59877)"/>
<use data-text="8" xlink:href="#font_3_4" transform="matrix(9.962899,0,0,-9.963197,7.958847,92.59877)"/>
<path transform="matrix(1.00003,0,0,-1.00006,85.950199,81.4591)" stroke-width=".3985" stroke-linecap="butt" stroke-miterlimit="10" stroke-linejoin="miter" fill="none" stroke="#000000" d="M-39.68622 1.53067V-1.53067"/>
<path transform="matrix(1.00003,0,0,-1.00006,85.950199,81.4591)" d="M-47.0476-12.9657H-32.32482V-3.7224704H-47.0476Z" fill="#ffffff"/>
<use data-text="&#x2212;" xlink:href="#font_2_1" transform="matrix(9.962899,0,0,-9.963197,39.89781,92.59877)"/>
<use data-text="4" xlink:href="#font_3_2" transform="matrix(9.962899,0,0,-9.963197,47.64705,92.59877)"/>
<path transform="matrix(1.00003,0,0,-1.00006,85.950199,81.4591)" stroke-width=".3985" stroke-linecap="butt" stroke-miterlimit="10" stroke-linejoin="miter" fill="none" stroke="#000000" d="M39.68622 1.53067V-1.53067"/>
<path transform="matrix(1.00003,0,0,-1.00006,85.950199,81.4591)" d="M36.19925-12.13545H43.173189V-3.7224704H36.19925Z" fill="#ffffff"/>
<use data-text="4" xlink:href="#font_3_2" transform="matrix(9.962899,0,0,-9.963197,123.14731,92.59877)"/>
<path transform="matrix(1.00003,0,0,-1.00006,85.950199,81.4591)" stroke-width=".3985" stroke-linecap="butt" stroke-miterlimit="10" stroke-linejoin="miter" fill="none" stroke="#000000" d="M2.97649-81.63548H-2.97649"/>
<path transform="matrix(1.00003,0,0,-1.00006,85.950199,81.4591)" d="M-24.87248-86.2571H-5.1682798V-77.01387H-24.87248Z" fill="#ffffff"/>
<use data-text="&#x2212;" xlink:href="#font_2_1" transform="matrix(9.962899,0,0,-9.963197,62.07348,165.89517)"/>
<use data-text="1" xlink:href="#font_3_1" transform="matrix(9.962899,0,0,-9.963197,69.822719,165.89517)"/>
<use data-text="6" xlink:href="#font_3_3" transform="matrix(9.962899,0,0,-9.963197,74.80416,165.89517)"/>
<path transform="matrix(1.00003,0,0,-1.00006,85.950199,81.4591)" stroke-width=".3985" stroke-linecap="butt" stroke-miterlimit="10" stroke-linejoin="miter" fill="none" stroke="#000000" d="M2.97649-40.81773H-2.97649"/>
<path transform="matrix(1.00003,0,0,-1.00006,85.950199,81.4591)" d="M-19.89107-45.43935H-5.168289V-36.19612H-19.89107Z" fill="#ffffff"/>
<use data-text="&#x2212;" xlink:href="#font_2_1" transform="matrix(9.962899,0,0,-9.963197,67.05463,125.074718)"/>
<use data-text="8" xlink:href="#font_3_4" transform="matrix(9.962899,0,0,-9.963197,74.80386,125.074718)"/>
<path transform="matrix(1.00003,0,0,-1.00006,85.950199,81.4591)" stroke-width=".3985" stroke-linecap="butt" stroke-miterlimit="10" stroke-linejoin="miter" fill="none" stroke="#000000" d="M2.97649 40.81773H-2.97649"/>
<path transform="matrix(1.00003,0,0,-1.00006,85.950199,81.4591)" d="M-12.14223 36.61124H-5.16829V45.02422H-12.14223Z" fill="#ffffff"/>
<use data-text="8" xlink:href="#font_3_4" transform="matrix(9.962899,0,0,-9.963197,74.80386,43.848844)"/>
<path transform="matrix(1.00003,0,0,-1.00006,85.950199,81.4591)" stroke-width="1.19553" stroke-linecap="butt" stroke-miterlimit="10" stroke-linejoin="miter" fill="none" stroke="#ff0000" d="M-63.01483 59.38391C-62.14449 54.60965-62.14449 54.60965-61.6812 52.1238-61.21791 49.63795-60.47493 45.71579-60.01166 43.31013-59.54836 40.90448-58.80539 37.11095-58.34212 34.78546-57.87881 32.45999-57.13585 28.79501-56.67258 26.54971-56.20929 24.30441-55.46632 20.768-55.00304 18.60287-54.53975 16.43777-53.79678 13.02997-53.3335 10.94504-52.87021 8.8601-52.12724 5.58087-51.66396 3.57613-51.20067 1.57137-50.4577-1.57922-49.99442-3.50378-49.53114-5.42836-48.78816-8.45042-48.32487-10.2948-47.8616-12.13919-47.11864-15.03264-46.65533-16.79684-46.19206-18.56104-45.44908-21.32593-44.9858-23.00995-44.5225-24.69398-43.77954-27.3303-43.31625-28.93414-42.85297-30.53798-42.11-33.0457-41.64673-34.56935-41.18344-36.093-40.44046-38.47209-39.97719-39.91556-39.5139-41.35902-38.77094-43.60956-38.30765-44.97285-37.84436-46.33615-37.1014-48.45813-36.63809-49.74124-36.17482-51.02435-35.43185-53.0177-34.96855-54.22063-34.50528-55.42357-33.76231-57.28836-33.29903-58.4111-32.83574-59.53384-32.09277-61.27003-31.62949-62.31258-31.1662-63.35513-30.42323-64.96275-29.95995-65.92516-29.49666-66.88754-28.7537-68.3666-28.2904-69.24881-27.82712-70.13101-27.08415-71.48146-26.62086-72.28345-26.15758-73.08546-25.41461-74.3073-24.95134-75.02913-24.48804-75.75095-23.74507-76.84421-23.2818-77.48587-22.8185-78.12752-22.07553-79.09224-21.61224-79.6537-21.14897-80.21518-20.40599-81.05127-19.9427-81.53255-19.47943-82.01382-18.73647-82.72137-18.27318-83.12248-17.80989-83.52359-17.06693-84.1025-16.60364-84.42342-16.14035-84.74434-15.39737-85.1947-14.9341-85.43542-14.4708-85.67616-13.72783-85.99792-13.26456-86.15846-12.80127-86.31902-12.05829-86.5122-11.59502-86.59258-11.13173-86.67294-10.38876-86.73749-9.92548-86.73769-9.46219-86.73788-8.71922-86.67397-8.25594-86.59398-7.79265-86.51398-7.04968-86.32137-6.5864-86.1612-6.12311-86.001-5.38014-85.67982-4.91685-85.43948-4.45358-85.19913-3.7106-84.7494-3.24731-84.42886-2.78404-84.10832-2.04108-83.52997-1.57777-83.12924-1.1145-82.72853-.37154-82.02162 .09172-81.54073 .55502-81.05981 1.29799-80.2243 1.76126-79.66321 2.22456-79.10211 2.96753-78.13805 3.4308-77.49678 3.89409-76.85551 4.63705-75.76286 5.10034-75.04143 5.56363-74.31998 6.3066-73.09872 6.76987-72.29707 7.23317-71.49544 7.97614-70.14557 8.43942-69.26375 8.90271-68.38193 9.64568-66.90349 10.10896-65.9415 10.57225-64.97949 11.31522-63.37251 11.7785-62.33034 12.24178-61.28815 12.98474-59.55254 13.44804-58.43018 13.91132-57.30782 14.65428-55.44365 15.11758-54.2411 15.58087-53.03856 16.32384-51.04578 16.78711-49.76303 17.25041-48.4803 17.99338-46.35898 18.45665-44.99605 18.91995-43.63313 19.66292-41.38318 20.12619-39.9401 20.58948-38.49698 21.33244-36.11847 21.79573-34.5952 22.25902-33.07193 23.00198-30.56485 23.46529-28.9614 23.92856-27.35794 24.67152-24.72224 25.13483-23.03859 25.5981-21.35493 26.34106-18.59064 26.80435-16.8268 27.26764-15.06297 28.0106-12.17012 28.47389-10.32611 28.93716-8.4821 29.68013-5.46068 30.14343-3.53648 30.60672-1.6123 31.34969 1.53772 31.81297 3.5421 32.27626 5.54646 33.01923 8.82506 33.48251 10.90962 33.9458 12.99417 34.68877 16.4014 35.15204 18.56613 35.61534 20.73088 36.3583 24.26665 36.82158 26.51157 37.28488 28.75648 38.02785 32.42082 38.49113 34.74593 38.95442 37.07101 39.69737 40.86397 40.16068 43.26926 40.62395 45.67455 41.36691 49.59613 41.83022 52.08159 42.29349 54.56706 43.49974 61.18285 43.16385 59.34033"/>
<path transform="matrix(-.1793454,-.983809,-.98377957,.17935077,22.933472,22.07164)" d="M1.27522 0C-.31879 .31879-1.91284 .9564-3.8257 2.07224-1.91284 .6376-1.91284-.6376-3.8257-2.07224-1.91284-.9564-.31879-.31879 1.27522 0Z" fill="#ff0000"/>
<path transform="matrix(-.1793454,-.983809,-.98377957,.17935077,22.933472,22.07164)" stroke-width="1.19553" stroke-linecap="butt" stroke-linejoin="round" fill="none" stroke="#ff0000" d="M1.27522 0C-.31879 .31879-1.91284 .9564-3.8257 2.07224-1.91284 .6376-1.91284-.6376-3.8257-2.07224-1.91284-.9564-.31879-.31879 1.27522 0Z"/>
<path transform="matrix(.1793454,-.983789,-.9837596,-.17935077,129.11534,22.11522)" d="M1.27522 0C-.31879 .31879-1.91284 .9564-3.8257 2.07224-1.91284 .6376-1.91284-.6376-3.8257-2.07224-1.91284-.9564-.31879-.31879 1.27522 0Z" fill="#ff0000"/>
<path transform="matrix(.1793454,-.983789,-.9837596,-.17935077,129.11534,22.11522)" stroke-width="1.19553" stroke-linecap="butt" stroke-linejoin="round" fill="none" stroke="#ff0000" d="M1.27522 0C-.31879 .31879-1.91284 .9564-3.8257 2.07224-1.91284 .6376-1.91284-.6376-3.8257-2.07224-1.91284-.9564-.31879-.31879 1.27522 0Z"/>
</svg>
