<?xml version="1.0" encoding="UTF-8" standalone="no"?>
<!-- Created with Inkscape (http://www.inkscape.org/) -->

<svg
   xmlns:dc="http://purl.org/dc/elements/1.1/"
   xmlns:cc="http://creativecommons.org/ns#"
   xmlns:rdf="http://www.w3.org/1999/02/22-rdf-syntax-ns#"
   xmlns:svg="http://www.w3.org/2000/svg"
   xmlns="http://www.w3.org/2000/svg"
   xmlns:sodipodi="http://sodipodi.sourceforge.net/DTD/sodipodi-0.dtd"
   xmlns:inkscape="http://www.inkscape.org/namespaces/inkscape"
   width="48.530399mm"
   height="51.802979mm"
   viewBox="0 0 171.95811 183.55386"
   id="svg6488"
   version="1.1"
   inkscape:version="0.91 r13725"
   sodipodi:docname="discontinuous.svg">
  <defs
     id="defs6490" />
  <sodipodi:namedview
     id="base"
     pagecolor="#ffffff"
     bordercolor="#666666"
     borderopacity="1.0"
     inkscape:pageopacity="0.0"
     inkscape:pageshadow="2"
     inkscape:zoom="0.75332031"
     inkscape:cx="85.97905"
     inkscape:cy="91.77693"
     inkscape:document-units="px"
     inkscape:current-layer="layer1"
     showgrid="false"
     fit-margin-top="0"
     fit-margin-left="0"
     fit-margin-right="0"
     fit-margin-bottom="0"
     inkscape:window-width="1366"
     inkscape:window-height="715"
     inkscape:window-x="0"
     inkscape:window-y="0"
     inkscape:window-maximized="1" />
  <metadata
     id="metadata6493">
    <rdf:RDF>
      <cc:Work
         rdf:about="">
        <dc:format>image/svg+xml</dc:format>
        <dc:type
           rdf:resource="http://purl.org/dc/dcmitype/StillImage" />
        <dc:title></dc:title>
      </cc:Work>
    </rdf:RDF>
  </metadata>
  <g
     inkscape:label="Layer 1"
     inkscape:groupmode="layer"
     id="layer1"
     transform="translate(-289.02095,-440.58527)">
    <g
       id="g4719"
       transform="matrix(1.25,0,0,-1.25,366.8152,608.10016)">
      <g
         id="g4721" />
      <g
         id="g4723">
        <g
           id="g4725">
          <path
             inkscape:connector-curvature="0"
             id="path4727"
             style="fill:none;stroke:#00adef;stroke-width:0.3985;stroke-linecap:butt;stroke-linejoin:miter;stroke-miterlimit:10;stroke-dasharray:none;stroke-opacity:1"
             d="M -56.69362,0 56.69362,0 m -113.38724,14.17339 113.38724,0 m -113.38724,14.17341 113.38724,0 m -113.38724,14.1734 113.38724,0 m -113.38724,14.17342 113.38724,0 M -56.69362,70.867 l 113.38724,0 m -113.38724,14.17342 113.38724,0 m -113.38724,14.1734 113.38724,0 m -113.38724,14.16843 113.38724,0 M -56.69362,0 l 0,113.38724 M -42.5202,0 l 0,113.38724 M -28.3468,0 l 0,113.38724 M -14.17339,0 l 0,113.38724 M 0,0 0,113.38724 M 14.17339,0 l 0,113.38724 M 28.3468,0 l 0,113.38724 M 42.5202,0 l 0,113.38724 M 56.68863,0 l 0,113.38724" />
        </g>
        <g
           id="g4729">
          <path
             inkscape:connector-curvature="0"
             id="path4731"
             style="fill:none;stroke:#000000;stroke-width:0.79701;stroke-linecap:butt;stroke-linejoin:miter;stroke-miterlimit:10;stroke-dasharray:none;stroke-opacity:1"
             d="M -56.69362,0 63.76312,0" />
          <g
             transform="translate(63.76312,0)"
             id="g4733">
            <g
               id="g4735">
              <path
                 inkscape:connector-curvature="0"
                 id="path4737"
                 style="fill:#000000;fill-opacity:1;fill-rule:nonzero;stroke:#000000;stroke-width:0.79701;stroke-linecap:butt;stroke-linejoin:round;stroke-miterlimit:10;stroke-dasharray:none;stroke-opacity:1"
                 d="m 1.0361,0 c -1.29512,0.25902 -2.59025,0.77707 -4.1444,1.68365 1.55415,-1.1656 1.55415,-2.2017 0,-3.3673 1.55415,0.90658 2.84928,1.42463 4.1444,1.68365 z" />
            </g>
          </g>
          <g
             id="g4739">
            <g
               transform="translate(69.232,-2.348)"
               id="g4741">
              <g
                 id="g4743">
                <g
                   transform="translate(-274.201,-523.49)"
                   id="g4745">
                  <text
                     id="text4747"
                     style="font-variant:normal;font-weight:normal;font-size:10.90909958px;font-family:CMMI10;-inkscape-font-specification:CMMI10;writing-mode:lr-tb;fill:#000000;fill-opacity:1;fill-rule:nonzero;stroke:none"
                     transform="matrix(1,0,0,-1,274.201,523.49)">
                    <tspan
                       id="tspan4749"
                       y="0"
                       x="0">x</tspan>
                  </text>
                  <g
                     transform="translate(274.201,523.49)"
                     id="g4751" />
                </g>
              </g>
              <g
                 transform="translate(-69.232,2.348)"
                 id="g4753" />
            </g>
          </g>
        </g>
        <g
           id="g4755">
          <path
             inkscape:connector-curvature="0"
             id="path4757"
             style="fill:none;stroke:#000000;stroke-width:0.79701;stroke-linecap:butt;stroke-linejoin:miter;stroke-miterlimit:10;stroke-dasharray:none;stroke-opacity:1"
             d="M 0,0 0,120.45674" />
          <g
             transform="matrix(0,1,-1,0,0,120.45674)"
             id="g4759">
            <g
               id="g4761">
              <path
                 inkscape:connector-curvature="0"
                 id="path4763"
                 style="fill:#000000;fill-opacity:1;fill-rule:nonzero;stroke:#000000;stroke-width:0.79701;stroke-linecap:butt;stroke-linejoin:round;stroke-miterlimit:10;stroke-dasharray:none;stroke-opacity:1"
                 d="m 1.0361,0 c -1.29512,0.25902 -2.59025,0.77707 -4.1444,1.68365 1.55415,-1.1656 1.55415,-2.2017 0,-3.3673 1.55415,0.90658 2.84928,1.42463 4.1444,1.68365 z" />
            </g>
          </g>
          <g
             id="g4765">
            <g
               transform="translate(-2.87,128.046)"
               id="g4767">
              <g
                 id="g4769">
                <g
                   transform="translate(-202.099,-653.884)"
                   id="g4771">
                  <text
                     id="text4773"
                     style="font-variant:normal;font-weight:normal;font-size:10.90909958px;font-family:CMMI10;-inkscape-font-specification:CMMI10;writing-mode:lr-tb;fill:#000000;fill-opacity:1;fill-rule:nonzero;stroke:none"
                     transform="matrix(1,0,0,-1,202.099,653.884)">
                    <tspan
                       id="tspan4775"
                       y="0"
                       x="0">y</tspan>
                  </text>
                  <g
                     transform="translate(202.099,653.884)"
                     id="g4777" />
                </g>
              </g>
              <g
                 transform="translate(2.87,-128.046)"
                 id="g4779" />
            </g>
          </g>
        </g>
        <g
           id="g4781">
          <path
             inkscape:connector-curvature="0"
             id="path4783"
             style="fill:none;stroke:#000000;stroke-width:0.79701;stroke-linecap:butt;stroke-linejoin:miter;stroke-miterlimit:10;stroke-dasharray:none;stroke-opacity:1"
             d="m -28.3468,1.4174 0,-2.83459" />
          <g
             id="g4785">
            <g
               id="g4787">
              <path
                 inkscape:connector-curvature="0"
                 id="path4789"
                 style="fill:#ffffff;fill-opacity:1;fill-rule:nonzero;stroke:none"
                 d="m -33.8886,-12.83118 11.08357,0 0,9.02292 -11.08357,0 0,-9.02292 z" />
            </g>
            <g
               transform="translate(-32.892,-11.834)"
               id="g4791">
              <g
                 id="g4793">
                <g
                   transform="translate(-172.077,-514.004)"
                   id="g4795">
                  <text
                     id="text4797"
                     style="font-variant:normal;font-weight:normal;font-size:10.90909958px;font-family:CMR10;-inkscape-font-specification:CMR10;writing-mode:lr-tb;fill:#000000;fill-opacity:1;fill-rule:nonzero;stroke:none"
                     transform="matrix(1,0,0,-1,172.077,514.004)">
                    <tspan
                       id="tspan4799"
                       sodipodi:role="line"
                       y="0"
                       x="0 3.636003">-2</tspan>
                  </text>
                  <g
                     transform="translate(172.077,514.004)"
                     id="g4801" />
                </g>
              </g>
              <g
                 transform="translate(32.892,11.834)"
                 id="g4803" />
            </g>
          </g>
        </g>
        <g
           id="g4805">
          <path
             inkscape:connector-curvature="0"
             id="path4807"
             style="fill:none;stroke:#000000;stroke-width:0.79701;stroke-linecap:butt;stroke-linejoin:miter;stroke-miterlimit:10;stroke-dasharray:none;stroke-opacity:1"
             d="m -56.69362,1.4174 0,-2.83459" />
          <g
             id="g4809">
            <g
               id="g4811">
              <path
                 inkscape:connector-curvature="0"
                 id="path4813"
                 style="fill:#ffffff;fill-opacity:1;fill-rule:nonzero;stroke:none"
                 d="m -62.2354,-12.83118 11.08357,0 0,9.02292 -11.08357,0 0,-9.02292 z" />
            </g>
            <g
               transform="translate(-61.238,-11.834)"
               id="g4815">
              <g
                 id="g4817">
                <g
                   transform="translate(-143.731,-514.004)"
                   id="g4819">
                  <text
                     id="text4821"
                     style="font-variant:normal;font-weight:normal;font-size:10.90909958px;font-family:CMR10;-inkscape-font-specification:CMR10;writing-mode:lr-tb;fill:#000000;fill-opacity:1;fill-rule:nonzero;stroke:none"
                     transform="matrix(1,0,0,-1,143.731,514.004)">
                    <tspan
                       id="tspan4823"
                       sodipodi:role="line"
                       y="0"
                       x="0 3.636003">-4</tspan>
                  </text>
                  <g
                     transform="translate(143.731,514.004)"
                     id="g4825" />
                </g>
              </g>
              <g
                 transform="translate(61.238,11.834)"
                 id="g4827" />
            </g>
          </g>
        </g>
        <g
           id="g4829">
          <path
             inkscape:connector-curvature="0"
             id="path4831"
             style="fill:none;stroke:#000000;stroke-width:0.79701;stroke-linecap:butt;stroke-linejoin:miter;stroke-miterlimit:10;stroke-dasharray:none;stroke-opacity:1"
             d="m 28.3468,1.4174 0,-2.83459" />
          <g
             id="g4833">
            <g
               id="g4835">
              <path
                 inkscape:connector-curvature="0"
                 id="path4837"
                 style="fill:#ffffff;fill-opacity:1;fill-rule:nonzero;stroke:none"
                 d="m 24.62321,-12.83118 7.44717,0 0,9.02292 -7.44717,0 0,-9.02292 z" />
            </g>
            <g
               transform="translate(25.619,-11.834)"
               id="g4839">
              <g
                 id="g4841">
                <g
                   transform="translate(-230.588,-514.004)"
                   id="g4843">
                  <text
                     id="text4845"
                     style="font-variant:normal;font-weight:normal;font-size:10.90909958px;font-family:CMR10;-inkscape-font-specification:CMR10;writing-mode:lr-tb;fill:#000000;fill-opacity:1;fill-rule:nonzero;stroke:none"
                     transform="matrix(1,0,0,-1,230.588,514.004)">
                    <tspan
                       id="tspan4847"
                       y="0"
                       x="0">2</tspan>
                  </text>
                  <g
                     transform="translate(230.588,514.004)"
                     id="g4849" />
                </g>
              </g>
              <g
                 transform="translate(-25.619,11.834)"
                 id="g4851" />
            </g>
          </g>
        </g>
        <g
           id="g4853">
          <path
             inkscape:connector-curvature="0"
             id="path4855"
             style="fill:none;stroke:#000000;stroke-width:0.79701;stroke-linecap:butt;stroke-linejoin:miter;stroke-miterlimit:10;stroke-dasharray:none;stroke-opacity:1"
             d="m 56.69362,1.4174 0,-2.83459" />
          <g
             id="g4857">
            <g
               id="g4859">
              <path
                 inkscape:connector-curvature="0"
                 id="path4861"
                 style="fill:#ffffff;fill-opacity:1;fill-rule:nonzero;stroke:none"
                 d="m 52.97003,-12.83118 7.44717,0 0,9.02292 -7.44717,0 0,-9.02292 z" />
            </g>
            <g
               transform="translate(53.966,-11.834)"
               id="g4863">
              <g
                 id="g4865">
                <g
                   transform="translate(-258.935,-514.004)"
                   id="g4867">
                  <text
                     id="text4869"
                     style="font-variant:normal;font-weight:normal;font-size:10.90909958px;font-family:CMR10;-inkscape-font-specification:CMR10;writing-mode:lr-tb;fill:#000000;fill-opacity:1;fill-rule:nonzero;stroke:none"
                     transform="matrix(1,0,0,-1,258.935,514.004)">
                    <tspan
                       id="tspan4871"
                       y="0"
                       x="0">4</tspan>
                  </text>
                  <g
                     transform="translate(258.935,514.004)"
                     id="g4873" />
                </g>
              </g>
              <g
                 transform="translate(-53.966,11.834)"
                 id="g4875" />
            </g>
          </g>
        </g>
        <g
           id="g4877">
          <path
             inkscape:connector-curvature="0"
             id="path4879"
             style="fill:none;stroke:#000000;stroke-width:0.79701;stroke-linecap:butt;stroke-linejoin:miter;stroke-miterlimit:10;stroke-dasharray:none;stroke-opacity:1"
             d="m 1.4174,28.3468 -2.83459,0" />
          <g
             id="g4881">
            <g
               id="g4883">
              <path
                 inkscape:connector-curvature="0"
                 id="path4885"
                 style="fill:#ffffff;fill-opacity:1;fill-rule:nonzero;stroke:none"
                 d="m -11.25543,23.83534 7.44717,0 0,9.02292 -7.44717,0 0,-9.02292 z" />
            </g>
            <g
               transform="translate(-10.259,24.832)"
               id="g4887">
              <g
                 id="g4889">
                <g
                   transform="translate(-194.71,-550.67)"
                   id="g4891">
                  <text
                     id="text4893"
                     style="font-variant:normal;font-weight:normal;font-size:10.90909958px;font-family:CMR10;-inkscape-font-specification:CMR10;writing-mode:lr-tb;fill:#000000;fill-opacity:1;fill-rule:nonzero;stroke:none"
                     transform="matrix(1,0,0,-1,194.71,550.67)">
                    <tspan
                       id="tspan4895"
                       y="0"
                       x="0">2</tspan>
                  </text>
                  <g
                     transform="translate(194.71,550.67)"
                     id="g4897" />
                </g>
              </g>
              <g
                 transform="translate(10.259,-24.832)"
                 id="g4899" />
            </g>
          </g>
        </g>
        <g
           id="g4901">
          <path
             inkscape:connector-curvature="0"
             id="path4903"
             style="fill:none;stroke:#000000;stroke-width:0.79701;stroke-linecap:butt;stroke-linejoin:miter;stroke-miterlimit:10;stroke-dasharray:none;stroke-opacity:1"
             d="m 1.4174,56.69362 -2.83459,0" />
          <g
             id="g4905">
            <g
               id="g4907">
              <path
                 inkscape:connector-curvature="0"
                 id="path4909"
                 style="fill:#ffffff;fill-opacity:1;fill-rule:nonzero;stroke:none"
                 d="m -11.25543,52.18214 7.44717,0 0,9.02292 -7.44717,0 0,-9.02292 z" />
            </g>
            <g
               transform="translate(-10.259,53.178)"
               id="g4911">
              <g
                 id="g4913">
                <g
                   transform="translate(-194.71,-579.016)"
                   id="g4915">
                  <text
                     id="text4917"
                     style="font-variant:normal;font-weight:normal;font-size:10.90909958px;font-family:CMR10;-inkscape-font-specification:CMR10;writing-mode:lr-tb;fill:#000000;fill-opacity:1;fill-rule:nonzero;stroke:none"
                     transform="matrix(1,0,0,-1,194.71,579.016)">
                    <tspan
                       id="tspan4919"
                       y="0"
                       x="0">4</tspan>
                  </text>
                  <g
                     transform="translate(194.71,579.016)"
                     id="g4921" />
                </g>
              </g>
              <g
                 transform="translate(10.259,-53.178)"
                 id="g4923" />
            </g>
          </g>
        </g>
        <g
           id="g4925">
          <path
             inkscape:connector-curvature="0"
             id="path4927"
             style="fill:none;stroke:#000000;stroke-width:0.79701;stroke-linecap:butt;stroke-linejoin:miter;stroke-miterlimit:10;stroke-dasharray:none;stroke-opacity:1"
             d="m 1.4174,85.04042 -2.83459,0" />
          <g
             id="g4929">
            <g
               id="g4931">
              <path
                 inkscape:connector-curvature="0"
                 id="path4933"
                 style="fill:#ffffff;fill-opacity:1;fill-rule:nonzero;stroke:none"
                 d="m -11.25543,80.52896 7.44717,0 0,9.02292 -7.44717,0 0,-9.02292 z" />
            </g>
            <g
               transform="translate(-10.259,81.524)"
               id="g4935">
              <g
                 id="g4937">
                <g
                   transform="translate(-194.71,-607.362)"
                   id="g4939">
                  <text
                     id="text4941"
                     style="font-variant:normal;font-weight:normal;font-size:10.90909958px;font-family:CMR10;-inkscape-font-specification:CMR10;writing-mode:lr-tb;fill:#000000;fill-opacity:1;fill-rule:nonzero;stroke:none"
                     transform="matrix(1,0,0,-1,194.71,607.362)">
                    <tspan
                       id="tspan4943"
                       y="0"
                       x="0">6</tspan>
                  </text>
                  <g
                     transform="translate(194.71,607.362)"
                     id="g4945" />
                </g>
              </g>
              <g
                 transform="translate(10.259,-81.524)"
                 id="g4947" />
            </g>
          </g>
        </g>
        <g
           id="g4949">
          <path
             inkscape:connector-curvature="0"
             id="path4951"
             style="fill:none;stroke:#000000;stroke-width:0.79701;stroke-linecap:butt;stroke-linejoin:miter;stroke-miterlimit:10;stroke-dasharray:none;stroke-opacity:1"
             d="m 1.4174,113.38724 -2.83459,0" />
          <g
             id="g4953">
            <g
               id="g4955">
              <path
                 inkscape:connector-curvature="0"
                 id="path4957"
                 style="fill:#ffffff;fill-opacity:1;fill-rule:nonzero;stroke:none"
                 d="m -11.25543,108.87578 7.44717,0 0,9.02292 -7.44717,0 0,-9.02292 z" />
            </g>
            <g
               transform="translate(-10.259,109.871)"
               id="g4959">
              <g
                 id="g4961">
                <g
                   transform="translate(-194.71,-635.709)"
                   id="g4963">
                  <text
                     id="text4965"
                     style="font-variant:normal;font-weight:normal;font-size:10.90909958px;font-family:CMR10;-inkscape-font-specification:CMR10;writing-mode:lr-tb;fill:#000000;fill-opacity:1;fill-rule:nonzero;stroke:none"
                     transform="matrix(1,0,0,-1,194.71,635.709)">
                    <tspan
                       id="tspan4967"
                       y="0"
                       x="0">8</tspan>
                  </text>
                  <g
                     transform="translate(194.71,635.709)"
                     id="g4969" />
                </g>
              </g>
              <g
                 transform="translate(10.259,-109.871)"
                 id="g4971" />
            </g>
          </g>
        </g>
        <g
           id="g4973">
          <path
             inkscape:connector-curvature="0"
             id="path4975"
             style="fill:none;stroke:#ff0000;stroke-width:1.19553006;stroke-linecap:butt;stroke-linejoin:miter;stroke-miterlimit:10;stroke-dasharray:none;stroke-opacity:1"
             d="m -56.69362,56.69362 70.86701,0" />
        </g>
        <g
           id="g4977">
          <path
             inkscape:connector-curvature="0"
             id="path4979"
             style="fill:#ffffff;fill-opacity:1;fill-rule:nonzero;stroke:#ff0000;stroke-width:0.79701;stroke-linecap:butt;stroke-linejoin:miter;stroke-miterlimit:10;stroke-dasharray:none;stroke-opacity:1"
             d="m 15.5908,56.69362 c 0,0.78282 -0.63458,1.4174 -1.41741,1.4174 -0.78283,0 -1.41742,-0.63458 -1.41742,-1.4174 0,-0.78284 0.63459,-1.41742 1.41742,-1.41742 0.78283,0 1.41741,0.63458 1.41741,1.41742 z" />
        </g>
        <g
           id="g4981">
          <path
             inkscape:connector-curvature="0"
             id="path4983"
             style="fill:#ff0000;fill-opacity:1;fill-rule:nonzero;stroke:#ff0000;stroke-width:0.79701;stroke-linecap:butt;stroke-linejoin:miter;stroke-miterlimit:10;stroke-dasharray:none;stroke-opacity:1"
             d="m 15.5908,85.04042 c 0,0.78282 -0.63458,1.41742 -1.41741,1.41742 -0.78283,0 -1.41742,-0.6346 -1.41742,-1.41742 0,-0.78282 0.63459,-1.41742 1.41742,-1.41742 0.78283,0 1.41741,0.6346 1.41741,1.41742 z" />
        </g>
        <g
           id="g4985">
          <path
             inkscape:connector-curvature="0"
             id="path4987"
             style="fill:none;stroke:#ff0000;stroke-width:1.19553006;stroke-linecap:butt;stroke-linejoin:miter;stroke-miterlimit:10;stroke-dasharray:none;stroke-opacity:1"
             d="m 14.17339,85.04042 c 0,0 0.32002,-0.0062 0.44293,-0.01385 0.12289,-0.0077 0.32001,-0.02616 0.4429,-0.04151 0.12291,-0.01538 0.32002,-0.04617 0.44293,-0.06921 0.1229,-0.02305 0.31999,-0.06616 0.4429,-0.0969 0.12291,-0.03071 0.32003,-0.08616 0.44294,-0.12457 0.12291,-0.0384 0.32002,-0.10617 0.44291,-0.15225 0.1229,-0.0461 0.32002,-0.12616 0.44292,-0.17993 0.12291,-0.05377 0.32002,-0.14617 0.44292,-0.20763 0.12289,-0.06145 0.32,-0.16617 0.44291,-0.23529 0.12291,-0.06914 0.32003,-0.18617 0.44293,-0.26298 0.1229,-0.07682 0.32001,-0.20618 0.44292,-0.29068 0.1229,-0.08449 0.32002,-0.22615 0.44292,-0.31835 0.12289,-0.09216 0.32001,-0.24615 0.44292,-0.34602 0.1229,-0.09987 0.32002,-0.26618 0.44293,-0.3737 0.12289,-0.10755 0.32,-0.28618 0.4429,-0.4014 0.12291,-0.11524 0.32002,-0.30619 0.44293,-0.42908 0.1229,-0.12291 0.32001,-0.32617 0.4429,-0.45676 0.12291,-0.13058 0.32003,-0.34617 0.44294,-0.48446 0.1229,-0.13826 0.32,-0.36617 0.44291,-0.51212 0.12291,-0.14593 0.32002,-0.38618 0.44292,-0.53981 0.12291,-0.15362 0.32001,-0.40616 0.44292,-0.56749 0.12289,-0.1613 0.32001,-0.42618 0.44291,-0.59517 0.12291,-0.16899 0.32001,-0.44618 0.44292,-0.62286 0.12291,-0.17667 0.32002,-0.46616 0.44293,-0.65051 0.1229,-0.18436 0.32001,-0.48619 0.4429,-0.67823 0.12291,-0.19204 0.32003,-0.50618 0.44294,-0.7059 0.12289,-0.19972 0.32001,-0.52618 0.4429,-0.7336 0.12291,-0.20739 0.32002,-0.54617 0.44293,-0.76126 0.12291,-0.21508 0.32002,-0.56619 0.44292,-0.78895 0.12289,-0.22276 0.32002,-0.58618 0.44291,-0.81664 0.12291,-0.23045 0.32003,-0.60618 0.44293,-0.8443 0.1229,-0.23814 0.32001,-0.62619 0.44292,-0.87201 0.12291,-0.2458 0.32002,-0.64617 0.44292,-0.89967 0.12289,-0.25349 0.32001,-0.66618 0.44292,-0.92735 0.12289,-0.26118 0.32002,-0.68619 0.44291,-0.95505 0.12291,-0.26886 0.32001,-0.70619 0.44292,-0.98274 0.12291,-0.27654 0.32002,-0.72619 0.44293,-1.01039 0.12291,-0.28424 0.32001,-0.74619 0.4429,-1.0381 0.12291,-0.29189 0.32003,-0.76618 0.44294,-1.06577 0.12289,-0.29959 0.32,-0.78618 0.4429,-1.09346 0.12291,-0.30727 0.32002,-0.8062 0.44293,-1.12114 0.12291,-0.31494 0.32001,-0.82619 0.44292,-1.14882 0.12291,-0.32263 0.32002,-0.84619 0.44291,-1.1765 0.12291,-0.33032 0.32001,-0.86619 0.44292,-1.20419 0.12289,-0.33798 0.32001,-0.88618 0.44292,-1.23186 0.12291,-0.34568 0.32,-0.9062 0.44291,-1.25956 0.12291,-0.35335 0.32003,-0.9262 0.44294,-1.28724 0.12289,-0.36103 0.32002,-0.94618 0.4429,-1.31491 0.12291,-0.36871 0.32002,-0.9662 0.44293,-1.3426 0.12289,-0.37641 0.32001,-0.98618 0.4429,-1.37027 0.12291,-0.38408 0.32002,-1.0062 0.44293,-1.39797 0.12291,-0.39177 0.32003,-1.0262 0.44293,-1.42564 0.12288,-0.39945 0.32001,-1.04619 0.44291,-1.45334 0.12291,-0.40712 0.32002,-1.06619 0.44293,-1.481 0.12289,-0.4148 0.32001,-1.0862 0.44292,-1.5087 0.12291,-0.42248 0.32002,-1.1062 0.44291,-1.53636 0.12291,-0.43019 0.32001,-1.12621 0.44292,-1.56406 0.12289,-0.43786 0.32002,-1.14619 0.44292,-1.59173 0.12291,-0.44554 0.32001,-1.16622 0.44291,-1.61945 0.12291,-0.45322 0.32003,-1.18619 0.44294,-1.64709 0.1229,-0.4609 0.32,-1.20621 0.4429,-1.67479 0.12291,-0.46859 0.32002,-1.22621 0.44293,-1.70247 0.12289,-0.47628 0.31999,-1.2462 0.4429,-1.73015 0.12291,-0.48395 0.44293,-1.75783 0.44293,-1.75783" />
        </g>
        <g
           id="g4989">
          <path
             inkscape:connector-curvature="0"
             id="path4991"
             style="fill:#ffffff;fill-opacity:1;fill-rule:nonzero;stroke:#ff0000;stroke-width:0.79701;stroke-linecap:butt;stroke-linejoin:miter;stroke-miterlimit:10;stroke-dasharray:none;stroke-opacity:1"
             d="m 43.93762,28.3468 c 0,0.78282 -0.6346,1.41742 -1.41742,1.41742 -0.78282,0 -1.41742,-0.6346 -1.41742,-1.41742 0,-0.78282 0.6346,-1.41742 1.41742,-1.41742 0.78282,0 1.41742,0.6346 1.41742,1.41742 z" />
        </g>
        <g
           id="g4993">
          <path
             inkscape:connector-curvature="0"
             id="path4995"
             style="fill:none;stroke:#ff0000;stroke-width:0.79701;stroke-linecap:butt;stroke-linejoin:miter;stroke-miterlimit:10;stroke-dasharray:none;stroke-opacity:1"
             d="m 42.5202,85.04042 14.17342,28.34682" />
        </g>
        <g
           id="g4997">
          <path
             inkscape:connector-curvature="0"
             id="path4999"
             style="fill:#ffffff;fill-opacity:1;fill-rule:nonzero;stroke:#ff0000;stroke-width:0.79701;stroke-linecap:butt;stroke-linejoin:miter;stroke-miterlimit:10;stroke-dasharray:none;stroke-opacity:1"
             d="m 43.93762,85.04042 c 0,0.78282 -0.6346,1.41742 -1.41742,1.41742 -0.78282,0 -1.41742,-0.6346 -1.41742,-1.41742 0,-0.78282 0.6346,-1.41742 1.41742,-1.41742 0.78282,0 1.41742,0.6346 1.41742,1.41742 z" />
        </g>
      </g>
    </g>
  </g>
</svg>
