<svg xmlns="http://www.w3.org/2000/svg" xmlns:xlink="http://www.w3.org/1999/xlink" version="1.1" width="117" height="101" viewBox="0 0 117 101">
<defs>
<path id="font_1_82" d="M.4189911 0V.0309906H.3869934C.29699708 .0309906 .2939911 .041992189 .2939911 .07902527V.64012148C.2939911 .6640167 .2939911 .6660156 .2709961 .6660156 .20899964 .60227969 .12098694 .60227969 .08898926 .60227969V.57128909C.10899353 .57128909 .16799927 .57128909 .21998596 .5972748V.07902527C.21998596 .042999269 .21699524 .0309906 .1269989 .0309906H.09498596V0C.12998963 .0029907227 .21699524 .0029907227 .25698854 .0029907227 .29699708 .0029907227 .38398744 .0029907227 .4189911 0Z"/>
<path id="font_1_107" d="M.44898988 .17396546H.42399598C.4189911 .14398194 .4119873 .099990848 .4019928 .084991458 .394989 .07699585 .32899476 .07699585 .30699159 .07699585H.1269989L.23298645 .17996216C.3889923 .31803895 .44898988 .37210084 .44898988 .47216798 .44898988 .5860901 .35899354 .6660156 .23699951 .6660156 .12399292 .6660156 .049987794 .57411196 .049987794 .48516847 .049987794 .4291687 .099990848 .4291687 .102996829 .4291687 .11999512 .4291687 .15499878 .44117738 .15499878 .48217774 .15499878 .5081787 .13699341 .5341797 .101989749 .5341797 .09399414 .5341797 .09199524 .5341797 .08898926 .5331726 .11199951 .59806826 .1659851 .63500979 .22399903 .63500979 .31498719 .63500979 .35798646 .5541382 .35798646 .47216798 .35798646 .39196778 .30799867 .31297303 .25299073 .25097657L.06098938 .036987306C.049987794 .025985718 .049987794 .023986817 .049987794 0H.42099L.44898988 .17396546Z"/>
<path id="font_1_106" d="M.45700074 .17037964C.45700074 .252594 .3939972 .33088685 .2899933 .35191346 .37199403 .37893678 .42999269 .4490509 .42999269 .52809146 .42999269 .6100464 .34199525 .6660156 .24598694 .6660156 .14498902 .6660156 .068984989 .60606387 .068984989 .53009036 .068984989 .49710084 .09098816 .47808839 .11999512 .47808839 .15098572 .47808839 .17098999 .50009158 .17098999 .5290985 .17098999 .57910159 .12399292 .57910159 .10899353 .57910159 .13999939 .62802127 .20599365 .64100649 .24198914 .64100649 .2829895 .64100649 .33799745 .6190338 .33799745 .5290985 .33799745 .51708987 .33599855 .45906068 .30999757 .4149933 .27999879 .36691285 .24598694 .36390687 .22099304 .36291505 .21299744 .36190797 .18899536 .35990907 .18199158 .35990907 .17399597 .35890199 .16699219 .35791017 .16699219 .3479004 .16699219 .33691407 .17399597 .33691407 .19099427 .33691407H.23498535C.31698609 .33691407 .35398866 .2686615 .35398866 .17037964 .35398866 .034469606 .2849884 .0055389406 .24099732 .0055389406 .19799805 .0055389406 .12298584 .022491456 .08799744 .08137512 .12298584 .07637024 .1539917 .09837341 .1539917 .1363678 .1539917 .17237854 .1269989 .19238281 .09799194 .19238281 .07398987 .19238281 .041992189 .17837525 .041992189 .1343689 .041992189 .043441774 .1349945-.022460938 .24398804-.022460938 .3659973-.022460938 .45700074 .06838989 .45700074 .17037964Z"/>
<path id="font_1_57" d="M.47099305 .16503906V.19602967H.37098695V.6507721C.37098695 .6707611 .37098695 .6767578 .35499574 .6767578 .34599305 .6767578 .34298707 .6767578 .33499146 .6647644L.027999878 .19602967V.16503906H.2939911V.07800293C.2939911 .041992189 .2919922 .0309906 .21798706 .0309906H.19699097V0C.23799134 .0029907227 .2899933 .0029907227 .33198548 .0029907227 .37399293 .0029907227 .4269867 .0029907227 .46798707 0V.0309906H.44699098C.37298585 .0309906 .37098695 .041992189 .37098695 .07800293V.16503906H.47099305M.2999878 .19602967H.055999757L.2999878 .56881716V.19602967Z"/>
<path id="font_1_101" d="M.45700074 .2036438C.45700074 .33070375 .36799623 .4267578 .25698854 .4267578 .18899536 .4267578 .1519928 .37573243 .13198853 .327713V.35173036C.13198853 .6047821 .2559967 .64100649 .30699159 .64100649 .33099366 .64100649 .37298585 .634964 .394989 .6007538 .37998963 .6007538 .33999635 .6007538 .33999635 .5557556 .33999635 .524765 .3639984 .5097656 .38598634 .5097656 .4019928 .5097656 .43199159 .51875308 .43199159 .5577545 .43199159 .6178589 .3880005 .6660156 .30499269 .6660156 .1769867 .6660156 .041992189 .5367584 .041992189 .31570436 .041992189 .048553468 .1579895-.022460938 .25099183-.022460938 .3619995-.022460938 .45700074 .07156372 .45700074 .2036438M.36698915 .20463562C.36698915 .15661621 .36698915 .10658264 .34999085 .0705719 .31999208 .010528564 .27398683 .0055389406 .25099183 .0055389406 .18798828 .0055389406 .1579895 .06556702 .1519928 .080566409 .13398743 .127594 .13398743 .2076416 .13398743 .22564698 .13398743 .30369569 .1659851 .40374757 .2559967 .40374757 .27198792 .40374757 .31799317 .40374757 .34899903 .34172059 .36698915 .30470277 .36698915 .2536621 .36698915 .20463562Z"/>
</defs>
<path transform="matrix(1.0001,0,0,-1.00003,48.056604,32.981508)" stroke-width=".3985" stroke-linecap="butt" stroke-miterlimit="10" stroke-linejoin="miter" fill="none" stroke="#0000ff" d="M0 0 67.12569 30.76657"/>
<path transform="matrix(.9091009,-.41665254,-.41668169,-.9090373,115.189,2.2140218)" d="M.797 0C-.19925 .19925-1.19551 .59775-2.39102 1.29512-1.19551 .3985-1.19551-.3985-2.39102-1.29512-1.19551-.59775-.19925-.19925 .797 0Z" fill="#0000ff"/>
<path transform="matrix(.9091009,-.41665254,-.41668169,-.9090373,115.189,2.2140218)" stroke-width=".3985" stroke-linecap="butt" stroke-linejoin="round" fill="none" stroke="#0000ff" d="M.797 0C-.19925 .19925-1.19551 .59775-2.39102 1.29512-1.19551 .3985-1.19551-.3985-2.39102-1.29512-1.19551-.59775-.19925-.19925 .797 0Z"/>
<path transform="matrix(1.0001,0,0,-1.00003,48.056604,32.981508)" stroke-width=".3985" stroke-linecap="butt" stroke-miterlimit="10" stroke-linejoin="miter" fill="none" stroke="#0000ff" d="M-11.33855-15.59082 67.12569 20.3726"/>
<path transform="matrix(.9091009,-.41665254,-.41668169,-.9090373,115.189,12.608305)" d="M.797 0C-.19925 .19925-1.19551 .59775-2.39102 1.29512-1.19551 .3985-1.19551-.3985-2.39102-1.29512-1.19551-.59775-.19925-.19925 .797 0Z" fill="#0000ff"/>
<path transform="matrix(.9091009,-.41665254,-.41668169,-.9090373,115.189,12.608305)" stroke-width=".3985" stroke-linecap="butt" stroke-linejoin="round" fill="none" stroke="#0000ff" d="M.797 0C-.19925 .19925-1.19551 .59775-2.39102 1.29512-1.19551 .3985-1.19551-.3985-2.39102-1.29512-1.19551-.59775-.19925-.19925 .797 0Z"/>
<path transform="matrix(1.0001,0,0,-1.00003,48.056604,32.981508)" stroke-width=".3985" stroke-linecap="butt" stroke-miterlimit="10" stroke-linejoin="miter" fill="none" stroke="#0000ff" d="M-22.6771-31.18166 67.12569 9.97864"/>
<path transform="matrix(.9091009,-.41665254,-.41668169,-.9090373,115.189,23.002587)" d="M.797 0C-.19925 .19925-1.19551 .59775-2.39102 1.29512-1.19551 .3985-1.19551-.3985-2.39102-1.29512-1.19551-.59775-.19925-.19925 .797 0Z" fill="#0000ff"/>
<path transform="matrix(.9091009,-.41665254,-.41668169,-.9090373,115.189,23.002587)" stroke-width=".3985" stroke-linecap="butt" stroke-linejoin="round" fill="none" stroke="#0000ff" d="M.797 0C-.19925 .19925-1.19551 .59775-2.39102 1.29512-1.19551 .3985-1.19551-.3985-2.39102-1.29512-1.19551-.59775-.19925-.19925 .797 0Z"/>
<path transform="matrix(1.0001,0,0,-1.00003,48.056604,32.981508)" stroke-width=".3985" stroke-linecap="butt" stroke-miterlimit="10" stroke-linejoin="miter" fill="none" stroke="#0000ff" d="M-34.01564-46.77248 67.12569-.41507"/>
<path transform="matrix(.9091009,-.41665254,-.41668169,-.9090373,115.189,33.3966)" d="M.797 0C-.19925 .19925-1.19551 .59775-2.39102 1.29512-1.19551 .3985-1.19551-.3985-2.39102-1.29512-1.19551-.59775-.19925-.19925 .797 0Z" fill="#0000ff"/>
<path transform="matrix(.9091009,-.41665254,-.41668169,-.9090373,115.189,33.3966)" stroke-width=".3985" stroke-linecap="butt" stroke-linejoin="round" fill="none" stroke="#0000ff" d="M.797 0C-.19925 .19925-1.19551 .59775-2.39102 1.29512-1.19551 .3985-1.19551-.3985-2.39102-1.29512-1.19551-.59775-.19925-.19925 .797 0Z"/>
<path transform="matrix(1.0001,0,0,-1.00003,48.056604,32.981508)" stroke-width=".3985" stroke-linecap="butt" stroke-miterlimit="10" stroke-linejoin="miter" fill="none" stroke="#0000ff" d="M-45.35419-62.36331 67.12569-10.80878"/>
<path transform="matrix(.9091009,-.41665254,-.41668169,-.9090373,115.189,43.79062)" d="M.797 0C-.19925 .19925-1.19551 .59775-2.39102 1.29512-1.19551 .3985-1.19551-.3985-2.39102-1.29512-1.19551-.59775-.19925-.19925 .797 0Z" fill="#0000ff"/>
<path transform="matrix(.9091009,-.41665254,-.41668169,-.9090373,115.189,43.79062)" stroke-width=".3985" stroke-linecap="butt" stroke-linejoin="round" fill="none" stroke="#0000ff" d="M.797 0C-.19925 .19925-1.19551 .59775-2.39102 1.29512-1.19551 .3985-1.19551-.3985-2.39102-1.29512-1.19551-.59775-.19925-.19925 .797 0Z"/>
<path transform="matrix(1.0001,0,0,-1.00003,48.056604,32.981508)" d="M-4.48325-5.31015H4.4832398V5.31015H-4.48325Z" fill="#ffffff"/>
<use data-text="1" xlink:href="#font_1_82" transform="matrix(9.963596,0,0,-9.962899,45.565355,36.299608)"/>
<path transform="matrix(1.0001,0,0,-1.00003,48.056604,32.981508)" d="M-15.8218-20.90099H-6.8553106V-10.280689H-15.8218Z" fill="#ffffff"/>
<use data-text="1" xlink:href="#font_1_82" transform="matrix(9.963596,0,0,-9.962899,34.22622,51.890077)"/>
<path transform="matrix(1.0001,0,0,-1.00003,48.056604,32.981508)" d="M6.8553-20.90099H15.82179V-10.280689H6.8553Z" fill="#ffffff"/>
<use data-text="1" xlink:href="#font_1_82" transform="matrix(9.963596,0,0,-9.962899,56.905488,51.890077)"/>
<path transform="matrix(1.0001,0,0,-1.00003,48.056604,32.981508)" d="M-27.16034-36.4918H-18.19385V-25.871499H-27.16034Z" fill="#ffffff"/>
<use data-text="1" xlink:href="#font_1_82" transform="matrix(9.963596,0,0,-9.962899,22.886086,67.481548)"/>
<path transform="matrix(1.0001,0,0,-1.00003,48.056604,32.981508)" d="M-4.48325-36.4918H4.4832398V-25.871499H-4.48325Z" fill="#ffffff"/>
<use data-text="2" xlink:href="#font_1_107" transform="matrix(9.963596,0,0,-9.962899,45.565355,67.481548)"/>
<path transform="matrix(1.0001,0,0,-1.00003,48.056604,32.981508)" d="M18.19385-36.4918H27.16034V-25.871499H18.19385Z" fill="#ffffff"/>
<use data-text="1" xlink:href="#font_1_82" transform="matrix(9.963596,0,0,-9.962899,68.24462,67.481548)"/>
<path transform="matrix(1.0001,0,0,-1.00003,48.056604,32.981508)" d="M-38.49889-52.08264H-29.5324V-41.46234H-38.49889Z" fill="#ffffff"/>
<use data-text="1" xlink:href="#font_1_82" transform="matrix(9.963596,0,0,-9.962899,11.546951,83.07301)"/>
<path transform="matrix(1.0001,0,0,-1.00003,48.056604,32.981508)" d="M-15.8218-52.19221H-6.8553106V-41.352754H-15.8218Z" fill="#ffffff"/>
<use data-text="3" xlink:href="#font_1_106" transform="matrix(9.963596,0,0,-9.962899,34.22622,82.964008)"/>
<path transform="matrix(1.0001,0,0,-1.00003,48.056604,32.981508)" d="M6.8553-52.19221H15.82179V-41.352754H6.8553Z" fill="#ffffff"/>
<use data-text="3" xlink:href="#font_1_106" transform="matrix(9.963596,0,0,-9.962899,56.905488,82.964008)"/>
<path transform="matrix(1.0001,0,0,-1.00003,48.056604,32.981508)" d="M29.5324-52.08264H38.49889V-41.46234H29.5324Z" fill="#ffffff"/>
<use data-text="1" xlink:href="#font_1_82" transform="matrix(9.963596,0,0,-9.962899,79.584758,83.07301)"/>
<path transform="matrix(1.0001,0,0,-1.00003,48.056604,32.981508)" d="M-49.83743-67.67346H-40.87094V-57.05316H-49.83743Z" fill="#ffffff"/>
<use data-text="1" xlink:href="#font_1_82" transform="matrix(9.963596,0,0,-9.962899,.20681763,98.66449)"/>
<path transform="matrix(1.0001,0,0,-1.00003,48.056604,32.981508)" d="M-27.16034-67.72826H-18.19385V-56.998369H-27.16034Z" fill="#ffffff"/>
<use data-text="4" xlink:href="#font_1_57" transform="matrix(9.963596,0,0,-9.962899,22.886086,98.71948)"/>
<path transform="matrix(1.0001,0,0,-1.00003,48.056604,32.981508)" d="M-4.48325-67.78305H4.4832398V-56.94359H-4.48325Z" fill="#ffffff"/>
<use data-text="6" xlink:href="#font_1_101" transform="matrix(9.963596,0,0,-9.962899,45.565355,98.554477)"/>
<path transform="matrix(1.0001,0,0,-1.00003,48.056604,32.981508)" d="M18.19385-67.72826H27.16034V-56.998369H18.19385Z" fill="#ffffff"/>
<use data-text="4" xlink:href="#font_1_57" transform="matrix(9.963596,0,0,-9.962899,68.24462,98.71948)"/>
<path transform="matrix(1.0001,0,0,-1.00003,48.056604,32.981508)" d="M40.87094-67.67346H49.837434V-57.05316H40.87094Z" fill="#ffffff"/>
<use data-text="1" xlink:href="#font_1_82" transform="matrix(9.963596,0,0,-9.962899,90.92489,98.66449)"/>
</svg>
