<svg xmlns="http://www.w3.org/2000/svg" xmlns:xlink="http://www.w3.org/1999/xlink" version="1.1" width="117" height="115" viewBox="0 0 117 115">
<defs>
<path id="font_1_2" d="M.33399964 .30233766C.33999635 .32835389 .36299134 .42037965 .43299867 .42037965 .43798829 .42037965 .46199037 .42037965 .48298646 .40734864 .45498658 .402359 .43499757 .37734986 .43499757 .35334779 .43499757 .33735658 .44599916 .31835938 .47299195 .31835938 .49499513 .31835938 .5269928 .3363495 .5269928 .37635804 .5269928 .42837525 .46798707 .4423828 .43399049 .4423828 .37599183 .4423828 .34098817 .38935853 .32899476 .36634828 .3039856 .43237306 .25 .4423828 .22099304 .4423828 .116989139 .4423828 .05999756 .3133545 .05999756 .28834535 .05999756 .27833558 .069992069 .27833558 .07199097 .27833558 .07998657 .27833558 .08299255 .28033448 .084991458 .28933717 .11898804 .39535523 .18499756 .42037965 .21899414 .42037965 .23799134 .42037965 .272995 .4113617 .272995 .35334779 .272995 .32235719 .2559967 .25532533 .21899414 .11528015 .20298767 .053268434 .16799927 .011245728 .12399292 .011245728 .117996219 .011245728 .09498596 .011245728 .07398987 .024276734 .09899902 .029266358 .12098694 .05027771 .12098694 .07827759 .12098694 .105270389 .09899902 .11328125 .083999637 .11328125 .053985597 .11328125 .0289917 .08728027 .0289917 .055267335 .0289917 .009246826 .07899475-.0107421879 .12298584-.0107421879 .18899536-.0107421879 .22499085 .059280397 .22799683 .0652771 .23999024 .028274537 .27598573-.0107421879 .33599855-.0107421879 .43899537-.0107421879 .49598695 .118270877 .49598695 .14328003 .49598695 .1532898 .4869995 .1532898 .48399354 .1532898 .47499085 .1532898 .47299195 .14929199 .47099305 .14228821 .43798829 .03527832 .36999513 .011245728 .33799745 .011245728 .29899598 .011245728 .2829895 .043273927 .2829895 .07727051 .2829895 .09927368 .2889862 .121276859 .2999878 .16529846L.33399964 .30233766Z"/>
<path id="font_1_1" d="M.47099305 .3773346C.47200013 .3833313 .47399903 .38833619 .47399903 .39535523 .47399903 .41236878 .46199037 .42237855 .44499208 .42237855 .43499757 .42237855 .4079895 .41537477 .4039917 .3793335 .38598634 .41636659 .35099793 .4423828 .31098939 .4423828 .19699097 .4423828 .07299805 .30226136 .07299805 .15812683 .07299805 .059020997 .13398743 0 .20599365 0 .2649994 0 .31199647 .04701233 .32199098 .058029176L.32299806 .057022096C.3019867-.031982423 .2899933-.07295227 .2899933-.07495117 .28599549-.08395386 .2519989-.18309021 .1459961-.18309021 .1269989-.18309021 .09399414-.18206787 .06599426-.17297364 .09599304-.16394043 .10699463-.13793946 .10699463-.12094116 .10699463-.10494995 .09599304-.0859375 .068984989-.0859375 .04699707-.0859375 .01499939-.10394287 .01499939-.14395142 .01499939-.18508911 .051986696-.20507813 .147995-.20507813 .272995-.20507813 .34498597-.12693787 .3600006-.06695557L.47099305 .3773346M.34098817 .12809754C.33499146 .10206604 .31199647 .077041629 .2899933 .058029176 .2689972 .040008546 .23799134 .021987915 .20899964 .021987915 .15899658 .021987915 .14399719 .074035648 .14399719 .11407471 .14399719 .16212464 .17298889 .28024293 .19999695 .33128358 .22698975 .38034059 .269989 .42037965 .31199647 .42037965 .37799073 .42037965 .3919983 .33929444 .3919983 .33428956 .3919983 .32928468 .3899994 .3232727 .3889923 .3192749L.34098817 .12809754Z"/>
<path id="font_2_1" d="M.33099366-.2400055C.33099366-.23701477 .33099366-.23500061 .31399537-.21800232 .18899536-.0920105 .15699768 .09700012 .15699768 .25 .15699768 .42399598 .19499207 .59799197 .31799317 .72299197 .33099366 .73498538 .33099366 .7369995 .33099366 .73999026 .33099366 .746994 .32699586 .75 .32099916 .75 .31098939 .75 .22099304 .6819916 .1619873 .5549927 .11099243 .44499208 .09899902 .33399964 .09899902 .25 .09899902 .17199707 .10998535 .050994874 .16499329-.06201172 .22499085-.18501282 .31098939-.25 .32099916-.25 .32699586-.25 .33099366-.24700928 .33099366-.2400055Z"/>
<path id="font_2_2" d="M.2889862 .25C.2889862 .32798768 .27799989 .44898988 .22299195 .56199648 .16299439 .68499758 .07699585 .75 .066986087 .75 .06098938 .75 .056991579 .74598696 .056991579 .73999026 .056991579 .7369995 .056991579 .73498538 .07598877 .71699526 .17399597 .6179962 .23098755 .45899964 .23098755 .25 .23098755 .07899475 .19400025-.09700012 .069992069-.2230072 .056991579-.23500061 .056991579-.23701477 .056991579-.2400055 .056991579-.2460022 .06098938-.25 .066986087-.25 .07699585-.25 .16699219-.18200684 .22599793-.055007936 .2769928 .054992677 .2889862 .16600037 .2889862 .25Z"/>
<path id="font_3_1" d="M.6589966 .23046875C.6759949 .23046875 .69400027 .23046875 .69400027 .25045777 .69400027 .27046205 .6759949 .27046205 .6589966 .27046205H.117996219C.100997928 .27046205 .08299255 .27046205 .08299255 .25045777 .08299255 .23046875 .100997928 .23046875 .117996219 .23046875H.6589966Z"/>
<path id="font_2_5" d="M.2939911 .16503906V.07800293C.2939911 .041992189 .2919922 .0309906 .21798706 .0309906H.19699097V0C.23799134 .0029907227 .2899933 .0029907227 .33198548 .0029907227 .37399293 .0029907227 .4269867 .0029907227 .46798707 0V.0309906H.44699098C.37298585 .0309906 .37098695 .041992189 .37098695 .07800293V.16503906H.47099305V.19602967H.37098695V.65075686C.37098695 .67074587 .37098695 .6767578 .35499574 .6767578 .34599305 .6767578 .34298707 .6767578 .33499146 .66474917L.027999878 .19602967V.16503906H.2939911M.2999878 .19602967H.055999757L.2999878 .5688019V.19602967Z"/>
<path id="font_2_4" d="M.1269989 .07699585 .23298645 .18003845C.3889923 .31811524 .44898988 .3721466 .44898988 .47216798 .44898988 .5860901 .35899354 .6660156 .23699951 .6660156 .12399292 .6660156 .049987794 .57411196 .049987794 .48516847 .049987794 .4291687 .099990848 .4291687 .102996829 .4291687 .11999512 .4291687 .15499878 .44117738 .15499878 .48217774 .15499878 .5081787 .13699341 .5341797 .101989749 .5341797 .09399414 .5341797 .09199524 .5341797 .08898926 .5331726 .11199951 .59806826 .1659851 .63500979 .22399903 .63500979 .31498719 .63500979 .35798646 .5541382 .35798646 .47216798 .35798646 .39215089 .30799867 .31311036 .25299073 .25108338L.06098938 .036987306C.049987794 .025985718 .049987794 .023986817 .049987794 0H.42099L.44898988 .17404175H.42399598C.4189911 .14402771 .4119873 .1000061 .4019928 .084991458 .394989 .07699585 .32899476 .07699585 .30699159 .07699585H.1269989Z"/>
<path id="font_2_3" d="M.45999146 .31976319C.45999146 .39982606 .45498658 .47988893 .41999818 .5539398 .37399293 .65000918 .2919922 .6660156 .25 .6660156 .18998719 .6660156 .116989139 .64001467 .07598877 .54693606 .04399109 .47789 .038986207 .39982606 .038986207 .31976319 .038986207 .24472046 .042999269 .15464783 .083999637 .07859802 .1269989-.0024719239 .19999695-.022460938 .24899292-.022460938 .30299378-.022460938 .3789978-.0014648438 .4229889 .09359741 .45498658 .16265869 .45999146 .2407074 .45999146 .31976319M.24899292-.00047302247C.20999146-.00047302247 .15098572 .024551392 .1329956 .12062073 .12199402 .18066406 .12199402 .2727356 .12199402 .3317871 .12199402 .39582826 .12199402 .46188355 .12998963 .5159149 .14898682 .63500979 .22399903 .64401248 .24899292 .64401248 .28199769 .64401248 .34799195 .6259918 .36698915 .52693179 .3769989 .47088624 .3769989 .39482118 .3769989 .3317871 .3769989 .25672914 .3769989 .18867493 .3659973 .12461853 .35099793 .029556275 .2939911-.00047302247 .24899292-.00047302247Z"/>
</defs>
<path transform="matrix(1,0,0,-1.00002,51.875,79.10033)" stroke-width=".3985" stroke-linecap="butt" stroke-miterlimit="10" stroke-linejoin="miter" fill="none" stroke="#cbcbcb" d="M-45.35419-34.01694H45.35419M-45.35419-22.67795H45.35419M-45.35419-11.33896H45.35419M-45.35419 0H45.35419M-45.35419 11.33896H45.35419M-45.35419 22.67795H45.35419M-45.35419 34.01694H45.35419M-45.35419 45.35591H45.35419M-45.35419 56.69409H45.35419M-45.35419-34.01694V56.6949M-34.01564-34.01694V56.6949M-22.6771-34.01694V56.6949M-11.33855-34.01694V56.6949M0-34.01694V56.6949M11.33855-34.01694V56.6949M22.6771-34.01694V56.6949M34.01564-34.01694V56.6949M45.3502-34.01694V56.6949M45.35419 56.6949"/>
<path transform="matrix(1,0,0,-1.00002,51.875,79.10033)" stroke-width=".79701" stroke-linecap="butt" stroke-miterlimit="10" stroke-linejoin="miter" fill="none" stroke="#000000" d="M-45.35419 0H52.99045"/>
<path transform="matrix(1,0,0,-1.00002,104.86545,79.10033)" d="M1.0361 0C-.25902 .25902-1.55415 .77707-3.1083 1.68365-1.55415 .51805-1.55415-.51805-3.1083-1.68365-1.55415-.77707-.25902-.25902 1.0361 0Z"/>
<path transform="matrix(1,0,0,-1.00002,104.86545,79.10033)" stroke-width=".79701" stroke-linecap="butt" stroke-linejoin="round" fill="none" stroke="#000000" d="M1.0361 0C-.25902 .25902-1.55415 .77707-3.1083 1.68365-1.55415 .51805-1.55415-.51805-3.1083-1.68365-1.55415-.77707-.25902-.25902 1.0361 0Z"/>
<use data-text="x" xlink:href="#font_1_2" transform="matrix(9.9626,0,0,-9.962799,110.019,81.24537)"/>
<path transform="matrix(1,0,0,-1.00002,51.875,79.10033)" stroke-width=".79701" stroke-linecap="butt" stroke-miterlimit="10" stroke-linejoin="miter" fill="none" stroke="#000000" d="M0-34.01694V62.06367"/>
<path transform="matrix(0,-1.00002,-1,-0,51.875,17.035412)" d="M1.0361 0C-.25902 .25902-1.55415 .77707-3.1083 1.68365-1.55415 .51805-1.55415-.51805-3.1083-1.68365-1.55415-.77707-.25902-.25902 1.0361 0Z"/>
<path transform="matrix(0,-1.00002,-1,-0,51.875,17.035412)" stroke-width=".79701" stroke-linecap="butt" stroke-linejoin="round" fill="none" stroke="#000000" d="M1.0361 0C-.25902 .25902-1.55415 .77707-3.1083 1.68365-1.55415 .51805-1.55415-.51805-3.1083-1.68365-1.55415-.77707-.25902-.25902 1.0361 0Z"/>
<use data-text="g" xlink:href="#font_1_1" transform="matrix(9.9626,0,0,-9.962799,42.599,9.39093)"/>
<use data-text="(" xlink:href="#font_2_1" transform="matrix(9.9626,0,0,-9.962799,47.709,9.39093)"/>
<use data-text="x" xlink:href="#font_1_2" transform="matrix(9.9626,0,0,-9.962799,51.582994,9.39093)"/>
<use data-text=")" xlink:href="#font_2_2" transform="matrix(9.9626,0,0,-9.962799,57.276994,9.39093)"/>
<path transform="matrix(1,0,0,-1.00002,51.875,79.10033)" stroke-width=".79701" stroke-linecap="butt" stroke-miterlimit="10" stroke-linejoin="miter" fill="none" stroke="#000000" d="M-45.35419 1.81422V-1.81422"/>
<path transform="matrix(1,0,0,-1.00002,51.875,79.10033)" d="M-38.72897-4.16542H-51.97939V-12.48427H-38.72897ZM-51.97939-12.48427" fill="#ffffff"/>
<use data-text="&#x2212;" xlink:href="#font_3_1" transform="matrix(8.966339,0,0,-8.966518,.7924957,89.94144)"/>
<use data-text="4" xlink:href="#font_2_5" transform="matrix(8.966339,0,0,-8.966518,7.7665865,89.94144)"/>
<path transform="matrix(1,0,0,-1.00002,51.875,79.10033)" stroke-width=".79701" stroke-linecap="butt" stroke-miterlimit="10" stroke-linejoin="miter" fill="none" stroke="#000000" d="M45.35419 1.81422V-1.81422"/>
<path transform="matrix(1,0,0,-1.00002,51.875,79.10033)" d="M48.49243-4.16542H42.21593V-11.73706H48.49243ZM42.21593-11.73706" fill="#ffffff"/>
<use data-text="4" xlink:href="#font_2_5" transform="matrix(8.966339,0,0,-8.966518,94.987499,89.94144)"/>
<path transform="matrix(1,0,0,-1.00002,51.875,79.10033)" stroke-width=".79701" stroke-linecap="butt" stroke-miterlimit="10" stroke-linejoin="miter" fill="none" stroke="#000000" d="M1.58737 45.35591H-1.58739"/>
<path transform="matrix(1,0,0,-1.00002,51.875,79.10033)" d="M-3.9386 49.14174H-14.69833V41.5701H-3.9386ZM-14.69833 41.5701" fill="#ffffff"/>
<use data-text="2" xlink:href="#font_2_4" transform="matrix(8.966339,0,0,-8.966518,38.073495,36.632375)"/>
<use data-text="0" xlink:href="#font_2_3" transform="matrix(8.966339,0,0,-8.966518,42.556657,36.632375)"/>
<path transform="matrix(1,0,0,-1.00002,51.875,79.10033)" stroke-width="1.59404" stroke-linecap="butt" stroke-miterlimit="10" stroke-linejoin="miter" fill="none" stroke="#cc0000" d="M-22.6771-27.21355C-22.6771-27.21355-22.03706-25.71451-21.79126-25.16942-21.54544-24.62434-21.15125-23.78667-20.90544-23.28497-20.65962-22.7833-20.26541-22.0137-20.0196-21.5536-19.7738-21.09349-19.3796-20.3892-19.13377-19.96889-18.88799-19.54857-18.49377-18.9066-18.24796-18.52429-18.00215-18.14195-17.60794-17.55951-17.36214-17.2134-17.11633-16.86726-16.72212-16.34135-16.4763-16.02963-16.2305-15.71788-15.8363-15.24571-15.59048-14.96655-15.34467-14.6874-14.95047-14.26602-14.70467-14.01764-14.45885-13.76927-14.06465-13.39589-13.81883-13.1765-13.57303-12.95712-13.17883-12.62874-12.93301-12.43654-12.6872-12.24434-12.29301-11.95811-12.0472-11.79132-11.80138-11.62451-11.40718-11.37752-11.16136-11.23428-10.91556-11.09106-10.52136-10.88051-10.27554-10.75906-10.02972-10.63763-9.63554-10.46054-9.38972-10.35909-9.1439-10.25764-8.74971-10.11116-8.5039-10.02791-8.25809-9.94463-7.86389-9.82584-7.61807-9.75896-7.37227-9.69208-6.97806-9.59816-6.73225-9.54587-6.48643-9.49356-6.09222-9.42157-5.84644-9.38205-5.60062-9.34253-5.2064-9.2896-4.9606-9.26108-4.7148-9.23254-4.32059-9.19574-4.07478-9.1764-3.82896-9.15706-3.43475-9.13359-3.18893-9.12163-2.94315-9.10965-2.54893-9.09656-2.30312-9.09016-2.05731-9.08379-1.6631-9.0782-1.4173-9.0756-1.1715-9.07298-.77728-9.072-.53146-9.07138-.28568-9.07076 .1085-9.07155 .35432-9.0711 .60013-9.07066 .99432-9.0703 1.24014-9.06824 1.48596-9.06616 1.88014-9.0617 2.12596-9.05623 2.37178-9.05074 2.76598-9.03938 3.01178-9.02867 3.2576-9.01797 3.6518-8.99678 3.89761-8.97905 4.14343-8.96133 4.53761-8.92747 4.78343-8.90092 5.02925-8.87437 5.42345-8.82487 5.66925-8.78769 5.91507-8.75052 6.30927-8.68257 6.55508-8.63298 6.80089-8.58337 7.19508-8.49405 7.4409-8.43024 7.68672-8.36641 8.08092-8.25287 8.32672-8.17303 8.57254-8.09319 8.96674-7.95245 9.21255-7.85478 9.45836-7.75711 9.85255-7.58638 10.09837-7.46909 10.3442-7.35179 10.7384-7.14812 10.98419-7.00941 11.23001-6.8707 11.62422-6.63124 11.87003-6.46931 12.11583-6.30737 12.51004-6.02919 12.75584-5.84222 13.00166-5.65524 13.39586-5.33554 13.64166-5.12173 13.88748-4.90793 14.2817-4.54373 14.52751-4.30132 14.7733-4.05888 15.16751-3.64737 15.41333-3.37451 15.65913-3.10167 16.05334-2.63986 16.29916-2.33478 16.54495-2.02968 16.93916-1.5148 17.18498-1.17569 17.43079-.83658 17.82498-.26564 18.0708 .10927 18.31662 .4842 18.71082 1.114 18.95662 1.52657 19.20244 1.93915 19.59663 2.63077 19.84245 3.08276 20.08827 3.53477 20.48245 4.29105 20.72827 4.78427 20.97409 5.2775 21.36829 6.10136 21.61409 6.63762 21.85991 7.17389 22.2541 8.06816 22.49992 8.64925 22.74573 9.23035 23.13992 10.198 23.38574 10.82571 23.63156 11.45345 24.02576 12.4973 24.27156 13.17345 24.51738 13.84961 24.91158 14.9726 25.1574 15.69899 25.4032 16.42537 25.7974 17.63033 26.04321 18.40874 26.28903 19.18715 26.68323 20.47704 26.92903 21.30931 27.17485 22.14156 27.56906 23.51918 27.81487 24.40707 28.06067 25.29495 28.45488 26.76328 28.70068 27.70859 28.9465 28.65392 29.3407 30.21573 29.5865 31.22028 29.83232 32.22484 30.22653 33.88315 30.47234 34.94875 30.71814 36.01434 31.11235 37.77194 31.35817 38.90036 31.60397 40.0288 31.99817 41.88861 32.24399 43.08168 32.48979 44.27475 32.884 46.23964 33.1298 47.49913 33.37561 48.75865 34.01564 52.1593 34.01564 52.1593"/>
<path transform="matrix(1,0,0,-1.00002,51.875,79.10033)" d="M-20.97638-27.21355C-20.97638-26.27419-21.73781-25.5127-22.6771-25.5127-23.61638-25.5127-24.37779-26.27419-24.37779-27.21355-24.37779-28.15291-23.61638-28.91438-22.6771-28.91438-21.73781-28.91438-20.97638-28.15291-20.97638-27.21355ZM-22.6771-27.21355" fill="#cc0000"/>
<path transform="matrix(1,0,0,-1.00002,51.875,79.10033)" stroke-width=".3985" stroke-linecap="butt" stroke-miterlimit="10" stroke-linejoin="miter" fill="none" stroke="#cc0000" d="M-20.97638-27.21355C-20.97638-26.27419-21.73781-25.5127-22.6771-25.5127-23.61638-25.5127-24.37779-26.27419-24.37779-27.21355-24.37779-28.15291-23.61638-28.91438-22.6771-28.91438-21.73781-28.91438-20.97638-28.15291-20.97638-27.21355ZM-22.6771-27.21355"/>
<path transform="matrix(1,0,0,-1.00002,51.875,79.10033)" d="M35.71634 52.1593C35.71634 53.09866 34.95493 53.86015 34.01564 53.86015 33.07635 53.86015 32.31493 53.09866 32.31493 52.1593 32.31493 51.21994 33.07635 50.45847 34.01564 50.45847 34.95493 50.45847 35.71634 51.21994 35.71634 52.1593ZM34.01564 52.1593" fill="#cc0000"/>
<path transform="matrix(1,0,0,-1.00002,51.875,79.10033)" stroke-width=".3985" stroke-linecap="butt" stroke-miterlimit="10" stroke-linejoin="miter" fill="none" stroke="#cc0000" d="M35.71634 52.1593C35.71634 53.09866 34.95493 53.86015 34.01564 53.86015 33.07635 53.86015 32.31493 53.09866 32.31493 52.1593 32.31493 51.21994 33.07635 50.45847 34.01564 50.45847 34.95493 50.45847 35.71634 51.21994 35.71634 52.1593ZM34.01564 52.1593"/>
</svg>
