<svg xmlns="http://www.w3.org/2000/svg" xmlns:xlink="http://www.w3.org/1999/xlink" version="1.1" width="155" height="251" viewBox="0 0 155 251">
<defs>
<path id="font_1_2" d="M.08799744 .059265138C.084991458 .044265748 .07899475 .021255494 .07899475 .01625061 .07899475-.0017547608 .09298706-.0107421879 .10798645-.0107421879 .11999512-.0107421879 .13798523-.002746582 .14498902 .01725769 .1459961 .019256592 .1579895 .06626892 .1639862 .091278079L.18598938 .18130493C.19198609 .2033081 .19799805 .22531128 .20298767 .24832154 .20698548 .26531983 .21499634 .29434205 .21598816 .29833985 .23098755 .3293457 .28399659 .42037965 .3789978 .42037965 .42399598 .42037965 .43299867 .38336183 .43299867 .35035707 .43299867 .28833009 .38398744 .16029358 .36799623 .11727905 .35899354 .0942688 .35798646 .08227539 .35798646 .0712738 .35798646 .024261475 .3929901-.0107421879 .43998719-.0107421879 .5339966-.0107421879 .57099917 .13528443 .57099917 .14329529 .57099917 .1532898 .56199648 .1532898 .5589905 .1532898 .548996 .1532898 .548996 .15029907 .5439911 .13528443 .5239868 .06726074 .4909973 .011245728 .44198609 .011245728 .4249878 .011245728 .41799928 .021255494 .41799928 .044265748 .41799928 .0692749 .4269867 .09327698 .43598939 .11528015 .45498658 .16830445 .49699403 .27833558 .49699403 .3353424 .49699403 .40237428 .45399476 .4423828 .38198854 .4423828 .2919922 .4423828 .24299622 .37835694 .22599793 .35534669 .22099304 .41137696 .17999268 .4423828 .13398743 .4423828 .08799744 .4423828 .068984989 .4033661 .05899048 .38536073 .042999269 .35134889 .0289917 .29232789 .0289917 .28833009 .0289917 .27833558 .038986207 .27833558 .040985109 .27833558 .050994874 .27833558 .051986696 .2793274 .057998659 .30133058 .07499695 .37236024 .09498596 .42037965 .1309967 .42037965 .15098572 .42037965 .1619873 .4073639 .1619873 .37435914 .1619873 .35334779 .15899658 .3423462 .1459961 .29032899L.08799744 .059265138Z"/>
<path id="font_1_1" d="M.37298585 .37835694C.35499574 .41537477 .32598878 .4423828 .2809906 .4423828 .1639862 .4423828 .039993287 .29533387 .039993287 .14929199 .039993287 .055267335 .09498596-.0107421879 .17298889-.0107421879 .19299317-.0107421879 .24299622-.0067443849 .30299378 .06427002 .31098939 .022247315 .34599305-.0107421879 .3939972-.0107421879 .42900086-.0107421879 .45199586 .012252808 .46798707 .044265748 .4850006 .08027649 .49798585 .14129639 .49798585 .14329529 .49798585 .1532898 .4889984 .1532898 .48599244 .1532898 .47599793 .1532898 .47499085 .14929199 .47200013 .13528443 .45498658 .07026672 .43699647 .011245728 .3959961 .011245728 .36898805 .011245728 .3659973 .037261964 .3659973 .057266237 .3659973 .07926941 .36799623 .08728027 .3789978 .13128662 .3899994 .17329407 .3919983 .18330384 .40098573 .22131348L.43699647 .36135865C.44400025 .38935853 .44400025 .39135743 .44400025 .39537049 .44400025 .41236878 .43199159 .42237855 .4149933 .42237855 .3909912 .42237855 .37599183 .4003601 .37298585 .37835694M.30799867 .119277957C.30299378 .10127258 .30299378 .09927368 .28799439 .08227539 .24398804 .027252198 .20298767 .011245728 .1749878 .011245728 .125 .011245728 .11099243 .06626892 .11099243 .105285648 .11099243 .1552887 .14299011 .27833558 .1659851 .32434083 .19699097 .38336183 .24198914 .42037965 .28199769 .42037965 .34700013 .42037965 .36099244 .3383484 .36099244 .33235169 .36099244 .32633973 .35899354 .32034303 .35798646 .31533814L.30799867 .119277957Z"/>
<path id="font_2_1" d="M.12199402 .06324768C.117996219 .050247194 .11199951 .025222779 .11199951 .022232056 .11199951 .00022888184 .12998963-.009765625 .1459961-.009765625 .1639862-.009765625 .17999268 .0032196046 .18499756 .01222229 .18998719 .021224976 .19799805 .053237916 .20298767 .07424927 .20799256 .09326172 .21899414 .13928223 .22499085 .16429138 .23098755 .18629456 .23699951 .20831299 .24198914 .23132324 .25299073 .27233888 .25498963 .28033448 .28399659 .32136537 .31199647 .3613739 .35899354 .4133911 .43399049 .4133911 .49198915 .4133911 .49299623 .36238099 .49299623 .34336854 .49299623 .28334046 .44999696 .17228699 .43399049 .13027954 .4229889 .102264408 .4189911 .09326172 .4189911 .07624817 .4189911 .023223877 .46299745-.009765625 .5139923-.009765625 .6139984-.009765625 .6579895 .12828064 .6579895 .14328003 .6579895 .15628052 .644989 .15628052 .6419983 .15628052 .6279907 .15628052 .6269989 .15028382 .6230011 .13928223 .59999087 .059249879 .5569916 .018234253 .5169983 .018234253 .49598695 .018234253 .49198915 .032226564 .49198915 .053237916 .49198915 .07624817 .49699403 .089263919 .5149994 .13427735 .5269928 .1652832 .56799319 .2713318 .56799319 .32736207 .56799319 .4243927 .4909973 .44140626 .43798829 .44140626 .35499574 .44140626 .29899598 .39038087 .2689972 .3503723 .2619934 .41940309 .20298767 .44140626 .1619873 .44140626 .11898804 .44140626 .09599304 .4104004 .08299255 .38739015 .06098938 .3503723 .04699707 .29335023 .04699707 .28834535 .04699707 .27534486 .06098938 .27534486 .06399536 .27534486 .07798767 .27534486 .07899475 .27833558 .085998538 .3053589 .100997928 .36437989 .11999512 .4133911 .15899658 .4133911 .18499756 .4133911 .19198609 .39138795 .19198609 .36437989 .19198609 .34536744 .18299866 .3083496 .17599488 .28134156 .16899109 .2543335 .15899658 .21331787 .1539917 .19129944L.12199402 .06324768Z"/>
<path id="font_3_6" d="M.44898988 .20022583C.44898988 .3193512 .36698915 .41944886 .25898744 .41944886 .21099854 .41944886 .16799927 .40345765 .13198853 .36842347V.5637665C.1519928 .5577698 .18499756 .55078127 .21699524 .55078127 .33999635 .55078127 .4099884 .6417694 .4099884 .6547699 .4099884 .6607666 .40699769 .6657715 .3999939 .6657715 .39898683 .6657715 .39698792 .6657715 .3919983 .66278079 .37199403 .6537781 .32299806 .6337738 .2559967 .6337738 .21598816 .6337738 .16999817 .6407776 .12298584 .6617737 .114990238 .66477969 .11299133 .66477969 .11099243 .66477969 .100997928 .66477969 .100997928 .6567688 .100997928 .6407776V.34439088C.100997928 .32637025 .100997928 .31835938 .114990238 .31835938 .12199402 .31835938 .12399292 .32136537 .12799073 .32736207 .13899231 .3433838 .17599488 .39746095 .25698854 .39746095 .30899049 .39746095 .33399964 .35139466 .34199525 .33337403 .35798646 .29632569 .3600006 .25727845 .3600006 .20722962 .3600006 .17222595 .3600006 .11222839 .33599855 .07035828 .31199647 .031463624 .2749939 .0055389406 .22898865 .0055389406 .1559906 .0055389406 .09899902 .058380128 .08198547 .11723328 .084991458 .1162262 .08799744 .115234378 .09899902 .115234378 .13198853 .115234378 .14898682 .14022827 .14898682 .16423035 .14898682 .18823242 .13198853 .21322632 .09899902 .21322632 .084991458 .21322632 .049987794 .20622254 .049987794 .16023255 .049987794 .07434082 .11898804-.022460938 .23098755-.022460938 .34700013-.022460938 .44898988 .073349 .44898988 .20022583Z"/>
<path id="font_3_3" d="M.45999146 .31976319C.45999146 .39982606 .45498658 .47988893 .41999818 .5539398 .37399293 .65000918 .2919922 .6660156 .25 .6660156 .18998719 .6660156 .116989139 .64001467 .07598877 .54693606 .04399109 .47789 .038986207 .39982606 .038986207 .31976319 .038986207 .24472046 .042999269 .15464783 .083999637 .07859802 .1269989-.0024719239 .19999695-.022460938 .24899292-.022460938 .30299378-.022460938 .3789978-.0014648438 .4229889 .09359741 .45498658 .16265869 .45999146 .2407074 .45999146 .31976319M.24899292-.00047302247C.20999146-.00047302247 .15098572 .024551392 .1329956 .12062073 .12199402 .18066406 .12199402 .2727356 .12199402 .3317871 .12199402 .39582826 .12199402 .46188355 .12998963 .5159149 .14898682 .63500979 .22399903 .64401248 .24899292 .64401248 .28199769 .64401248 .34799195 .6259918 .36698915 .52693179 .3769989 .47088624 .3769989 .39482118 .3769989 .3317871 .3769989 .25672914 .3769989 .18867493 .3659973 .12461853 .35099793 .029556275 .2939911-.00047302247 .24899292-.00047302247Z"/>
<path id="font_3_4" d="M.2939911 .64004519C.2939911 .66400149 .2939911 .6660156 .2709961 .6660156 .20899964 .60227969 .12098694 .60227969 .08898926 .60227969V.57128909C.10899353 .57128909 .16799927 .57128909 .21998596 .5972748V.07902527C.21998596 .042999269 .21699524 .0309906 .1269989 .0309906H.09498596V0C.12998963 .0029907227 .21699524 .0029907227 .25698854 .0029907227 .29699708 .0029907227 .38398744 .0029907227 .4189911 0V.0309906H.3869934C.29699708 .0309906 .2939911 .041992189 .2939911 .07902527V.64004519Z"/>
<path id="font_3_7" d="M.68699648 .32714845C.70199587 .32714845 .72099307 .32714845 .72099307 .34713746 .72099307 .36714173 .70199587 .36714173 .6879883 .36714173H.08898926C.07499695 .36714173 .055999757 .36714173 .055999757 .34713746 .055999757 .32714845 .07499695 .32714845 .08999634 .32714845H.68699648M.6879883 .13284302C.70199587 .13284302 .72099307 .13284302 .72099307 .15284729 .72099307 .17285156 .70199587 .17285156 .68699648 .17285156H.08999634C.07499695 .17285156 .055999757 .17285156 .055999757 .15284729 .055999757 .13284302 .07499695 .13284302 .08898926 .13284302H.6879883Z"/>
<path id="font_3_1" d="M.33099366-.2400055C.33099366-.23701477 .33099366-.23500061 .31399537-.21800232 .18899536-.0920105 .15699768 .09700012 .15699768 .25 .15699768 .42399598 .19499207 .59799197 .31799317 .72299197 .33099366 .73498538 .33099366 .7369995 .33099366 .73999026 .33099366 .746994 .32699586 .75 .32099916 .75 .31098939 .75 .22099304 .6819916 .1619873 .5549927 .11099243 .44499208 .09899902 .33399964 .09899902 .25 .09899902 .17199707 .10998535 .050994874 .16499329-.06201172 .22499085-.18501282 .31098939-.25 .32099916-.25 .32699586-.25 .33099366-.24700928 .33099366-.2400055Z"/>
<path id="font_3_5" d="M.1269989 .07699585 .23298645 .18003845C.3889923 .31811524 .44898988 .3721466 .44898988 .47216798 .44898988 .5860901 .35899354 .6660156 .23699951 .6660156 .12399292 .6660156 .049987794 .57411196 .049987794 .48516847 .049987794 .4291687 .099990848 .4291687 .102996829 .4291687 .11999512 .4291687 .15499878 .44117738 .15499878 .48217774 .15499878 .5081787 .13699341 .5341797 .101989749 .5341797 .09399414 .5341797 .09199524 .5341797 .08898926 .5331726 .11199951 .59806826 .1659851 .63500979 .22399903 .63500979 .31498719 .63500979 .35798646 .5541382 .35798646 .47216798 .35798646 .39215089 .30799867 .31311036 .25299073 .25108338L.06098938 .036987306C.049987794 .025985718 .049987794 .023986817 .049987794 0H.42099L.44898988 .17404175H.42399598C.4189911 .14402771 .4119873 .1000061 .4019928 .084991458 .394989 .07699585 .32899476 .07699585 .30699159 .07699585H.1269989Z"/>
<path id="font_3_2" d="M.2889862 .25C.2889862 .32798768 .27799989 .44898988 .22299195 .56199648 .16299439 .68499758 .07699585 .75 .066986087 .75 .06098938 .75 .056991579 .74598696 .056991579 .73999026 .056991579 .7369995 .056991579 .73498538 .07598877 .71699526 .17399597 .6179962 .23098755 .45899964 .23098755 .25 .23098755 .07899475 .19400025-.09700012 .069992069-.2230072 .056991579-.23500061 .056991579-.23701477 .056991579-.2400055 .056991579-.2460022 .06098938-.25 .066986087-.25 .07699585-.25 .16699219-.18200684 .22599793-.055007936 .2769928 .054992677 .2889862 .16600037 .2889862 .25Z"/>
<path id="font_4_1" d="M.74398806 .2263794C.7599945 .2263794 .7839966 .2263794 .7839966 .25038148 .7839966 .27539063 .7609863 .27539063 .74398806 .27539063H.147995C.13198853 .27539063 .10798645 .27539063 .10798645 .25138856 .10798645 .2263794 .1309967 .2263794 .147995 .2263794H.74398806Z"/>
<path id="font_5_1" d="M.33499146 .63612368C.33499146 .6630554 .33299256 .6640625 .30499269 .6640625 .24099732 .6014404 .1499939 .6004486 .10899353 .6004486V.5644531C.1329956 .5644531 .19898987 .5644531 .2539978 .592453V.08203125C.2539978 .04899597 .2539978 .035995485 .1539917 .035995485H.115997318V0C.13398743 .0009918213 .25698854 .0039978029 .2939911 .0039978029 .32499696 .0039978029 .45098878 .0009918213 .47299195 0V.035995485H.43499757C.33499146 .035995485 .33499146 .04899597 .33499146 .08203125V.63612368Z"/>
<path id="font_6_85" d="M.33099366-.2400055C.33099366-.23701477 .33099366-.23500061 .31399537-.21800232 .18899536-.0920105 .15699768 .09700012 .15699768 .25 .15699768 .42399598 .19499207 .59799197 .31799317 .72299197 .33099366 .7350006 .33099366 .7369995 .33099366 .73999026 .33099366 .746994 .32699586 .75 .32099916 .75 .31098939 .75 .22099304 .6819916 .1619873 .5549927 .11099243 .44499208 .09899902 .33399964 .09899902 .25 .09899902 .17199707 .10998535 .050994874 .16499329-.06201172 .22499085-.18501282 .31098939-.25 .32099916-.25 .32699586-.25 .33099366-.24700928 .33099366-.2400055Z"/>
<path id="font_6_35" d="M.5209961 .2163086C.5209961 .34335328 .4229889 .4423828 .30899049 .4423828 .23098755 .4423828 .18798828 .39537049 .17199707 .3773651V.69433596L.027999878 .68333438V.6523285C.09799194 .6523285 .10598755 .6453247 .10598755 .596344V.00024414063H.1309967L.16699219 .06227112C.18199158 .039260866 .22399903-.0107421879 .2979889-.0107421879 .4169922-.0107421879 .5209961 .08728027 .5209961 .2163086M.43798829 .21731568C.43798829 .18029785 .43598939 .120285037 .40699769 .07527161 .38598634 .044265748 .34799195 .011245728 .2939911 .011245728 .24899292 .011260986 .21299744 .03526306 .18899536 .072265628 .1749878 .09326172 .1749878 .09625244 .1749878 .11425781V.32034303C.1749878 .3393402 .1749878 .3403473 .18598938 .35635377 .22499085 .41236878 .27999879 .42037965 .3039856 .42037965 .34899903 .42037965 .3849945 .3943634 .40899659 .35635377 .43499757 .31533814 .43798829 .25831605 .43798829 .21730042V.21731568Z"/>
<path id="font_6_86" d="M.2889862 .25C.2889862 .32798768 .27799989 .44898988 .22299195 .56199648 .16299439 .68499758 .07699585 .75 .066986087 .75 .06098938 .75 .056991579 .74598696 .056991579 .73999026 .056991579 .7369995 .056991579 .7350006 .07598877 .71699526 .17399597 .6179962 .23098755 .45899964 .23098755 .25 .23098755 .07899475 .19400025-.09700012 .069992069-.2230072 .056991579-.23500061 .056991579-.23701477 .056991579-.2400055 .056991579-.2460022 .06098938-.25 .066986087-.25 .07699585-.25 .16699219-.18200684 .22599793-.055007936 .2769928 .054992677 .2889862 .16600037 .2889862 .25Z"/>
</defs>
<path transform="matrix(1.00006,0,0,-1.00003,35.312036,210.98595)" stroke-width=".3985" stroke-linecap="butt" stroke-miterlimit="10" stroke-linejoin="miter" fill="none" stroke="#00aeef" d="M-34.01564-22.6771H102.04694M-34.01564-11.33855H102.04694M-34.01564 0H102.04694M-34.01564 11.33855H102.04694M-34.01564 22.6771H102.04694M-34.01564 34.01564H102.04694M-34.01564 45.35419H102.04694M-34.01564 56.69275H102.04694M-34.01564 68.0313H102.04694M-34.01564 79.36984H102.04694M-34.01564 90.70839H102.04694M-34.01564 102.04694H102.04694M-34.01564 113.3855H102.04694M-34.01564 124.72404H102.04694M-34.01564 136.06259H102.04694M-34.01564 147.40114H102.04694M-34.01564 158.7397H102.04694M-34.01564 170.07825H102.04694M-34.01564 181.4168H102.04694M-34.01564 192.75136H102.04694M-34.01564-22.6771V192.75534M-22.6771-22.6771V192.75534M-11.33855-22.6771V192.75534M0-22.6771V192.75534M11.33855-22.6771V192.75534M22.6771-22.6771V192.75534M34.01564-22.6771V192.75534M45.35419-22.6771V192.75534M56.69275-22.6771V192.75534M68.0313-22.6771V192.75534M79.36984-22.6771V192.75534M90.70839-22.6771V192.75534M102.04295-22.6771V192.75534M102.04694 192.75534"/>
<path transform="matrix(1.00006,0,0,-1.00003,35.312036,210.98595)" stroke-width=".79701" stroke-linecap="butt" stroke-miterlimit="10" stroke-linejoin="miter" fill="none" stroke="#000000" d="M-34.01564 0H107.41553"/>
<path transform="matrix(1.00006,0,0,-1.00003,142.73401,210.98595)" d="M1.0361 0C-.25902 .25902-1.55415 .77707-3.1083 1.68365-1.55415 .51805-1.55415-.51805-3.1083-1.68365-1.55415-.77707-.25902-.25902 1.0361 0Z"/>
<path transform="matrix(1.00006,0,0,-1.00003,142.73401,210.98595)" stroke-width=".79701" stroke-linecap="butt" stroke-linejoin="round" fill="none" stroke="#000000" d="M1.0361 0C-.25902 .25902-1.55415 .77707-3.1083 1.68365-1.55415 .51805-1.55415-.51805-3.1083-1.68365-1.55415-.77707-.25902-.25902 1.0361 0Z"/>
<use data-text="n" xlink:href="#font_1_2" transform="matrix(9.963197,0,0,-9.962899,147.88779,213.13101)"/>
<path transform="matrix(1.00006,0,0,-1.00003,35.312036,210.98595)" stroke-width=".79701" stroke-linecap="butt" stroke-miterlimit="10" stroke-linejoin="miter" fill="none" stroke="#000000" d="M0-22.6771V198.12395"/>
<path transform="matrix(0,-1.00003,-1.00006,-0,35.312036,12.856049)" d="M1.0361 0C-.25902 .25902-1.55415 .77707-3.1083 1.68365-1.55415 .51805-1.55415-.51805-3.1083-1.68365-1.55415-.77707-.25902-.25902 1.0361 0Z"/>
<path transform="matrix(0,-1.00003,-1.00006,-0,35.312036,12.856049)" stroke-width=".79701" stroke-linecap="butt" stroke-linejoin="round" fill="none" stroke="#000000" d="M1.0361 0C-.25902 .25902-1.55415 .77707-3.1083 1.68365-1.55415 .51805-1.55415-.51805-3.1083-1.68365-1.55415-.77707-.25902-.25902 1.0361 0Z"/>
<use data-text="a" xlink:href="#font_1_1" transform="matrix(9.963197,0,0,-9.962899,29.966713,6.207794)"/>
<use data-text="n" xlink:href="#font_2_1" transform="matrix(6.9742186,0,0,-6.9740097,35.234025,7.702835)"/>
<path transform="matrix(1.00006,0,0,-1.00003,35.312036,210.98595)" stroke-width=".79701" stroke-linecap="butt" stroke-miterlimit="10" stroke-linejoin="miter" fill="none" stroke="#000000" d="M56.69275 1.7007V-1.70087"/>
<path transform="matrix(1.00006,0,0,-1.00003,35.312036,210.98595)" d="M53.20578-12.50491H60.179719V-4.0919306H53.20578Z" fill="#ffffff"/>
<use data-text="5" xlink:href="#font_3_6" transform="matrix(9.963197,0,0,-9.962899,89.51729,222.4953)"/>
<path transform="matrix(1.00006,0,0,-1.00003,35.312036,210.98595)" stroke-width=".79701" stroke-linecap="butt" stroke-miterlimit="10" stroke-linejoin="miter" fill="none" stroke="#000000" d="M1.58737 56.69275H-1.58739"/>
<path transform="matrix(1.00006,0,0,-1.00003,35.312036,210.98595)" d="M-3.9386 60.47858H-19.18155V52.90694H-3.9386ZM-19.18155 52.90694" fill="#ffffff"/>
<use data-text="5" xlink:href="#font_3_6" transform="matrix(8.966877,0,0,-8.966609,17.025933,157.18062)"/>
<use data-text="0" xlink:href="#font_3_3" transform="matrix(8.966877,0,0,-8.966609,21.509377,157.18062)"/>
<use data-text="0" xlink:href="#font_3_3" transform="matrix(8.966877,0,0,-8.966609,25.992814,157.18062)"/>
<path transform="matrix(1.00006,0,0,-1.00003,35.312036,210.98595)" stroke-width=".79701" stroke-linecap="butt" stroke-miterlimit="10" stroke-linejoin="miter" fill="none" stroke="#000000" d="M1.58737 113.3855H-1.58739"/>
<path transform="matrix(1.00006,0,0,-1.00003,35.312036,210.98595)" d="M-3.9386 117.17133H-23.6648V109.59969H-3.9386ZM-23.6648 109.59969" fill="#ffffff"/>
<use data-text="1" xlink:href="#font_3_4" transform="matrix(8.966877,0,0,-8.966609,12.542664,100.48592)"/>
<use data-text="0" xlink:href="#font_3_3" transform="matrix(8.966877,0,0,-8.966609,17.026108,100.48592)"/>
<use data-text="0" xlink:href="#font_3_3" transform="matrix(8.966877,0,0,-8.966609,21.509545,100.48592)"/>
<use data-text="0" xlink:href="#font_3_3" transform="matrix(8.966877,0,0,-8.966609,25.992974,100.48592)"/>
<path transform="matrix(1.00006,0,0,-1.00003,35.312036,210.98595)" stroke-width=".79701" stroke-linecap="butt" stroke-miterlimit="10" stroke-linejoin="miter" fill="none" stroke="#000000" d="M1.58737 170.07825H-1.58739"/>
<path transform="matrix(1.00006,0,0,-1.00003,35.312036,210.98595)" d="M-3.9386 173.86408H-23.6648V166.29245H-3.9386ZM-23.6648 166.29245" fill="#ffffff"/>
<use data-text="1" xlink:href="#font_3_4" transform="matrix(8.966877,0,0,-8.966609,12.542664,43.79222)"/>
<use data-text="5" xlink:href="#font_3_6" transform="matrix(8.966877,0,0,-8.966609,17.026108,43.79222)"/>
<use data-text="0" xlink:href="#font_3_3" transform="matrix(8.966877,0,0,-8.966609,21.509545,43.79222)"/>
<use data-text="0" xlink:href="#font_3_3" transform="matrix(8.966877,0,0,-8.966609,25.992974,43.79222)"/>
<path transform="matrix(1.00006,0,0,-1.00003,35.312036,210.98595)" d="M13.03925 11.33855C13.03925 12.27783 12.27783 13.03925 11.33855 13.03925 10.39926 13.03925 9.63783 12.27783 9.63783 11.33855 9.63783 10.39926 10.39926 9.63783 11.33855 9.63783 12.27783 9.63783 13.03925 10.39926 13.03925 11.33855ZM11.33855 11.33855" fill="#ff0000"/>
<path transform="matrix(1.00006,0,0,-1.00003,35.312036,210.98595)" stroke-width=".3985" stroke-linecap="butt" stroke-miterlimit="10" stroke-linejoin="miter" fill="none" stroke="#ff0000" d="M13.03925 11.33855C13.03925 12.27783 12.27783 13.03925 11.33855 13.03925 10.39926 13.03925 9.63783 12.27783 9.63783 11.33855 9.63783 10.39926 10.39926 9.63783 11.33855 9.63783 12.27783 9.63783 13.03925 10.39926 13.03925 11.33855ZM11.33855 11.33855"/>
<path transform="matrix(1.00006,0,0,-1.00003,35.312036,210.98595)" d="M24.37779 22.6771C24.37779 23.61638 23.61638 24.37779 22.6771 24.37779 21.73781 24.37779 20.97638 23.61638 20.97638 22.6771 20.97638 21.73781 21.73781 20.97638 22.6771 20.97638 23.61638 20.97638 24.37779 21.73781 24.37779 22.6771ZM22.6771 22.6771" fill="#ff0000"/>
<path transform="matrix(1.00006,0,0,-1.00003,35.312036,210.98595)" stroke-width=".3985" stroke-linecap="butt" stroke-miterlimit="10" stroke-linejoin="miter" fill="none" stroke="#ff0000" d="M24.37779 22.6771C24.37779 23.61638 23.61638 24.37779 22.6771 24.37779 21.73781 24.37779 20.97638 23.61638 20.97638 22.6771 20.97638 21.73781 21.73781 20.97638 22.6771 20.97638 23.61638 20.97638 24.37779 21.73781 24.37779 22.6771ZM22.6771 22.6771"/>
<path transform="matrix(1.00006,0,0,-1.00003,35.312036,210.98595)" d="M35.71634 45.35419C35.71634 46.29347 34.95493 47.05489 34.01564 47.05489 33.07635 47.05489 32.31493 46.29347 32.31493 45.35419 32.31493 44.4149 33.07635 43.65347 34.01564 43.65347 34.95493 43.65347 35.71634 44.4149 35.71634 45.35419ZM34.01564 45.35419" fill="#ff0000"/>
<path transform="matrix(1.00006,0,0,-1.00003,35.312036,210.98595)" stroke-width=".3985" stroke-linecap="butt" stroke-miterlimit="10" stroke-linejoin="miter" fill="none" stroke="#ff0000" d="M35.71634 45.35419C35.71634 46.29347 34.95493 47.05489 34.01564 47.05489 33.07635 47.05489 32.31493 46.29347 32.31493 45.35419 32.31493 44.4149 33.07635 43.65347 34.01564 43.65347 34.95493 43.65347 35.71634 44.4149 35.71634 45.35419ZM34.01564 45.35419"/>
<path transform="matrix(1.00006,0,0,-1.00003,35.312036,210.98595)" d="M47.05489 90.70839C47.05489 91.64767 46.29347 92.40909 45.35419 92.40909 44.4149 92.40909 43.65347 91.64767 43.65347 90.70839 43.65347 89.7691 44.4149 89.00768 45.35419 89.00768 46.29347 89.00768 47.05489 89.7691 47.05489 90.70839ZM45.35419 90.70839" fill="#ff0000"/>
<path transform="matrix(1.00006,0,0,-1.00003,35.312036,210.98595)" stroke-width=".3985" stroke-linecap="butt" stroke-miterlimit="10" stroke-linejoin="miter" fill="none" stroke="#ff0000" d="M47.05489 90.70839C47.05489 91.64767 46.29347 92.40909 45.35419 92.40909 44.4149 92.40909 43.65347 91.64767 43.65347 90.70839 43.65347 89.7691 44.4149 89.00768 45.35419 89.00768 46.29347 89.00768 47.05489 89.7691 47.05489 90.70839ZM45.35419 90.70839"/>
<path transform="matrix(1.00006,0,0,-1.00003,35.312036,210.98595)" d="M58.39345 181.4168C58.39345 182.35608 57.63203 183.11751 56.69275 183.11751 55.75346 183.11751 54.99203 182.35608 54.99203 181.4168 54.99203 180.47751 55.75346 179.7161 56.69275 179.7161 57.63203 179.7161 58.39345 180.47751 58.39345 181.4168ZM56.69275 181.4168" fill="#ff0000"/>
<path transform="matrix(1.00006,0,0,-1.00003,35.312036,210.98595)" stroke-width=".3985" stroke-linecap="butt" stroke-miterlimit="10" stroke-linejoin="miter" fill="none" stroke="#ff0000" d="M58.39345 181.4168C58.39345 182.35608 57.63203 183.11751 56.69275 183.11751 55.75346 183.11751 54.99203 182.35608 54.99203 181.4168 54.99203 180.47751 55.75346 179.7161 56.69275 179.7161 57.63203 179.7161 58.39345 180.47751 58.39345 181.4168ZM56.69275 181.4168"/>
<path transform="matrix(1.00006,0,0,-1.00003,35.312036,210.98595)" d="M38.07382 26.72289H109.32732V41.30839H38.07382Z" fill="#ffffff"/>
<use data-text="a" xlink:href="#font_1_1" transform="matrix(9.963197,0,0,-9.962899,75.38044,179.779)"/>
<use data-text="n" xlink:href="#font_2_1" transform="matrix(6.9742186,0,0,-6.9740097,80.64775,181.27405)"/>
<use data-text="=" xlink:href="#font_3_7" transform="matrix(9.963197,0,0,-9.962899,88.83825,179.779)"/>
<use data-text="1" xlink:href="#font_3_4" transform="matrix(9.963197,0,0,-9.962899,99.339458,179.779)"/>
<use data-text="0" xlink:href="#font_3_3" transform="matrix(9.963197,0,0,-9.962899,104.32105,179.779)"/>
<use data-text="0" xlink:href="#font_3_3" transform="matrix(9.963197,0,0,-9.962899,109.302639,179.779)"/>
<use data-text="(" xlink:href="#font_3_1" transform="matrix(9.963197,0,0,-9.962899,114.28423,179.779)"/>
<use data-text="2" xlink:href="#font_3_5" transform="matrix(9.963197,0,0,-9.962899,118.149959,179.779)"/>
<use data-text=")" xlink:href="#font_3_2" transform="matrix(9.963197,0,0,-9.962899,123.13155,179.779)"/>
<use data-text="n" xlink:href="#font_2_1" transform="matrix(6.9742186,0,0,-6.9740097,127.03054,176.1639)"/>
<use data-text="&#x2212;" xlink:href="#font_4_1" transform="matrix(6.9742186,0,0,-6.9740097,131.95584,176.1639)"/>
<use data-text="1" xlink:href="#font_5_1" transform="matrix(6.9742186,0,0,-6.9740097,138.18323,176.1639)"/>
<use data-text="(" xlink:href="#font_6_85" transform="matrix(9.963197,0,0,-9.962899,68.35402,247.49304)"/>
<use data-text="b" xlink:href="#font_6_35" transform="matrix(9.963197,0,0,-9.962899,72.22969,247.49304)"/>
<use data-text=")" xlink:href="#font_6_86" transform="matrix(9.963197,0,0,-9.962899,77.76924,247.49304)"/>
</svg>
