<svg xmlns="http://www.w3.org/2000/svg" xmlns:xlink="http://www.w3.org/1999/xlink" version="1.1" width="144" height="136" viewBox="0 0 144 136">
<defs>
<path id="font_1_1" d="M.33399964 .30233766C.33999635 .32835389 .36299134 .42037965 .43299867 .42037965 .43798829 .42037965 .46199037 .42037965 .48298646 .40734864 .45498658 .402359 .43499757 .37734986 .43499757 .35334779 .43499757 .33735658 .44599916 .31835938 .47299195 .31835938 .49499513 .31835938 .5269928 .3363495 .5269928 .37635804 .5269928 .42837525 .46798707 .4423828 .43399049 .4423828 .37599183 .4423828 .34098817 .38935853 .32899476 .36634828 .3039856 .43237306 .25 .4423828 .22099304 .4423828 .116989139 .4423828 .05999756 .3133545 .05999756 .28834535 .05999756 .27833558 .069992069 .27833558 .07199097 .27833558 .07998657 .27833558 .08299255 .28033448 .084991458 .28933717 .11898804 .39535523 .18499756 .42037965 .21899414 .42037965 .23799134 .42037965 .272995 .4113617 .272995 .35334779 .272995 .32235719 .2559967 .25532533 .21899414 .11528015 .20298767 .053268434 .16799927 .011245728 .12399292 .011245728 .117996219 .011245728 .09498596 .011245728 .07398987 .024276734 .09899902 .029266358 .12098694 .05027771 .12098694 .07827759 .12098694 .105270389 .09899902 .11328125 .083999637 .11328125 .053985597 .11328125 .0289917 .08728027 .0289917 .055267335 .0289917 .009246826 .07899475-.0107421879 .12298584-.0107421879 .18899536-.0107421879 .22499085 .059280397 .22799683 .0652771 .23999024 .028274537 .27598573-.0107421879 .33599855-.0107421879 .43899537-.0107421879 .49598695 .118270877 .49598695 .14328003 .49598695 .1532898 .4869995 .1532898 .48399354 .1532898 .47499085 .1532898 .47299195 .14929199 .47099305 .14228821 .43798829 .03527832 .36999513 .011245728 .33799745 .011245728 .29899598 .011245728 .2829895 .043273927 .2829895 .07727051 .2829895 .09927368 .2889862 .121276859 .2999878 .16529846L.33399964 .30233766Z"/>
<path id="font_1_2" d="M.48599244 .38136292C.48999024 .39537049 .48999024 .39736939 .48999024 .40437318 .48999024 .42237855 .47599793 .43138124 .46099855 .43138124 .45098878 .43138124 .43499757 .42536927 .42599488 .41036988 .42399598 .405365 .41600038 .37435914 .4119873 .35635377 .40499879 .33035279 .397995 .30334474 .3919983 .27633668L.34700013 .09628296C.34298707 .08126831 .2999878 .011245728 .23399353 .011245728 .18299866 .011245728 .17199707 .055267335 .17199707 .0922699 .17199707 .1382904 .18899536 .20030213 .22299195 .28833009 .23899842 .3293457 .24299622 .3403473 .24299622 .36035157 .24299622 .405365 .21099854 .4423828 .16099549 .4423828 .06599426 .4423828 .0289917 .29733277 .0289917 .28833009 .0289917 .27833558 .038986207 .27833558 .040985109 .27833558 .050994874 .27833558 .051986696 .28033448 .056991579 .29634095 .083999637 .3903656 .12399292 .42037965 .1579895 .42037965 .1659851 .42037965 .18299866 .42037965 .18299866 .3883667 .18299866 .36335755 .17298889 .3373413 .1659851 .31834413 .12599182 .21231079 .10798645 .1552887 .10798645 .10827637 .10798645 .019256592 .17098999-.0107421879 .22999573-.0107421879 .2689972-.0107421879 .30299378 .0062561037 .33099366 .03425598 .31799317-.017745972 .30599977-.06674194 .2659912-.11973572 .23999024-.15385437 .20199585-.18309021 .1559906-.18309021 .14199829-.18309021 .09700012-.18005371 .07998657-.14074707 .09599304-.14074707 .10899353-.14074707 .12298584-.1287384 .1329956-.11973572 .14299011-.10673523 .14299011-.08773804 .14299011-.056747438 .115997318-.052734376 .10598755-.052734376 .08299255-.052734376 .049987794-.068740848 .049987794-.11773682 .049987794-.16796875 .09399414-.20507813 .1559906-.20507813 .25898744-.20507813 .3619995-.11373901 .3899994-.00074768069L.48599244 .38136292Z"/>
<path id="font_2_3" d="M.1269989 .07699585 .23298645 .18003845C.3889923 .31811524 .44898988 .3721466 .44898988 .47216798 .44898988 .5860901 .35899354 .6660156 .23699951 .6660156 .12399292 .6660156 .049987794 .57411196 .049987794 .48516847 .049987794 .4291687 .099990848 .4291687 .102996829 .4291687 .11999512 .4291687 .15499878 .44117738 .15499878 .48217774 .15499878 .5081787 .13699341 .5341797 .101989749 .5341797 .09399414 .5341797 .09199524 .5341797 .08898926 .5331726 .11199951 .59806826 .1659851 .63500979 .22399903 .63500979 .31498719 .63500979 .35798646 .5541382 .35798646 .47216798 .35798646 .39215089 .30799867 .31311036 .25299073 .25108338L.06098938 .036987306C.049987794 .025985718 .049987794 .023986817 .049987794 0H.42099L.44898988 .17404175H.42399598C.4189911 .14402771 .4119873 .1000061 .4019928 .084991458 .394989 .07699585 .32899476 .07699585 .30699159 .07699585H.1269989Z"/>
<path id="font_2_1" d="M.45999146 .31976319C.45999146 .39982606 .45498658 .47988893 .41999818 .5539398 .37399293 .65000918 .2919922 .6660156 .25 .6660156 .18998719 .6660156 .116989139 .64001467 .07598877 .54693606 .04399109 .47789 .038986207 .39982606 .038986207 .31976319 .038986207 .24472046 .042999269 .15464783 .083999637 .07859802 .1269989-.0024719239 .19999695-.022460938 .24899292-.022460938 .30299378-.022460938 .3789978-.0014648438 .4229889 .09359741 .45498658 .16265869 .45999146 .2407074 .45999146 .31976319M.24899292-.00047302247C.20999146-.00047302247 .15098572 .024551392 .1329956 .12062073 .12199402 .18066406 .12199402 .2727356 .12199402 .3317871 .12199402 .39582826 .12199402 .46188355 .12998963 .5159149 .14898682 .63500979 .22399903 .64401248 .24899292 .64401248 .28199769 .64401248 .34799195 .6259918 .36698915 .52693179 .3769989 .47088624 .3769989 .39482118 .3769989 .3317871 .3769989 .25672914 .3769989 .18867493 .3659973 .12461853 .35099793 .029556275 .2939911-.00047302247 .24899292-.00047302247Z"/>
<path id="font_2_5" d="M.13198853 .327713V.35173036C.13198853 .6047821 .2559967 .64100649 .30699159 .64100649 .33099366 .64100649 .37298585 .634964 .394989 .6007538 .37998963 .6007538 .33999635 .6007538 .33999635 .5557556 .33999635 .524765 .3639984 .5097656 .38598634 .5097656 .4019928 .5097656 .43199159 .51875308 .43199159 .5577545 .43199159 .6178589 .3880005 .6660156 .30499269 .6660156 .1769867 .6660156 .041992189 .5367584 .041992189 .31570436 .041992189 .048553468 .1579895-.022460938 .25099183-.022460938 .3619995-.022460938 .45700074 .07156372 .45700074 .2036438 .45700074 .33070375 .36799623 .4267578 .25698854 .4267578 .18899536 .4267578 .1519928 .37573243 .13198853 .327713M.25099183 .0055389406C.18798828 .0055389406 .1579895 .06556702 .1519928 .080566409 .13398743 .127594 .13398743 .2076416 .13398743 .22564698 .13398743 .30369569 .1659851 .40374757 .2559967 .40374757 .27198792 .40374757 .31799317 .40374757 .34899903 .34172059 .36698915 .30470277 .36698915 .2536621 .36698915 .20463562 .36698915 .15661621 .36698915 .10658264 .34999085 .0705719 .31999208 .010528564 .27398683 .0055389406 .25099183 .0055389406Z"/>
<path id="font_2_2" d="M.2939911 .64004519C.2939911 .66400149 .2939911 .6660156 .2709961 .6660156 .20899964 .60227969 .12098694 .60227969 .08898926 .60227969V.57128909C.10899353 .57128909 .16799927 .57128909 .21998596 .5972748V.07902527C.21998596 .042999269 .21699524 .0309906 .1269989 .0309906H.09498596V0C.12998963 .0029907227 .21699524 .0029907227 .25698854 .0029907227 .29699708 .0029907227 .38398744 .0029907227 .4189911 0V.0309906H.3869934C.29699708 .0309906 .2939911 .041992189 .2939911 .07902527V.64004519Z"/>
<path id="font_2_4" d="M.2939911 .16503906V.07800293C.2939911 .041992189 .2919922 .0309906 .21798706 .0309906H.19699097V0C.23799134 .0029907227 .2899933 .0029907227 .33198548 .0029907227 .37399293 .0029907227 .4269867 .0029907227 .46798707 0V.0309906H.44699098C.37298585 .0309906 .37098695 .041992189 .37098695 .07800293V.16503906H.47099305V.19602967H.37098695V.65075686C.37098695 .67074587 .37098695 .6767578 .35499574 .6767578 .34599305 .6767578 .34298707 .6767578 .33499146 .66474917L.027999878 .19602967V.16503906H.2939911M.2999878 .19602967H.055999757L.2999878 .5688019V.19602967Z"/>
<path id="font_2_6" d="M.16299439 .4569702C.116989139 .486969 .11299133 .52098086 .11299133 .5379791 .11299133 .598999 .17799378 .64100649 .24899292 .64100649 .32199098 .64100649 .38598634 .58898928 .38598634 .51698306 .38598634 .45996095 .34700013 .4119568 .2869873 .37695313L.16299439 .4569702M.30899049 .36193849C.3809967 .3989563 .42999269 .45095826 .42999269 .51698306 .42999269 .6090088 .34098817 .6660156 .25 .6660156 .1499939 .6660156 .068984989 .59199526 .068984989 .49897767 .068984989 .4809723 .070999149 .43595887 .11299133 .38894654 .12399292 .37695313 .16099549 .35194398 .18598938 .33494569 .12799073 .30592347 .041992189 .24984741 .041992189 .15072632 .041992189 .04458618 .14399719-.022460938 .24899292-.022460938 .3619995-.022460938 .45700074 .06060791 .45700074 .16773987 .45700074 .20379639 .44599916 .24885559 .4079895 .2909088 .3889923 .31193543 .37298585 .3219452 .30899049 .36193849M.20899964 .3199463 .33198548 .24183655C.3600006 .2228241 .40699769 .19277954 .40699769 .13169861 .40699769 .05760193 .33198548 .0055389406 .25 .0055389406 .1639862 .0055389406 .09199524 .067611698 .09199524 .15072632 .09199524 .20880127 .12399292 .27288819 .20899964 .3199463Z"/>
</defs>
<path transform="matrix(1.00005,0,0,-1.00003,11.109856,111.646968)" stroke-width=".3985" stroke-linecap="butt" stroke-miterlimit="10" stroke-linejoin="miter" fill="none" stroke="#cbcbcb" d="M0-22.6771H113.3682M0 0H113.3682M0 22.6771H113.3682M0 45.35419H113.3682M0 68.0313H113.3682M0 90.7044H113.3682M0-22.6771V90.70839M22.67361-22.6771V90.70839M45.34726-22.6771V90.70839M68.0209-22.6771V90.70839M90.69455-22.6771V90.70839M113.36778-22.6771V90.70839M113.3682 90.70839"/>
<path transform="matrix(1.00005,0,0,-1.00003,11.109856,111.646968)" stroke-width=".79701" stroke-linecap="butt" stroke-miterlimit="10" stroke-linejoin="miter" fill="none" stroke="#000000" d="M0 0H121.00304"/>
<path transform="matrix(1.00005,0,0,-1.00003,132.11893,111.646968)" d="M1.0361 0C-.25902 .25902-1.55415 .77707-3.1083 1.68365-1.55415 .51805-1.55415-.51805-3.1083-1.68365-1.55415-.77707-.25902-.25902 1.0361 0Z"/>
<path transform="matrix(1.00005,0,0,-1.00003,132.11893,111.646968)" stroke-width=".79701" stroke-linecap="butt" stroke-linejoin="round" fill="none" stroke="#000000" d="M1.0361 0C-.25902 .25902-1.55415 .77707-3.1083 1.68365-1.55415 .51805-1.55415-.51805-3.1083-1.68365-1.55415-.77707-.25902-.25902 1.0361 0Z"/>
<use data-text="x" xlink:href="#font_1_1" transform="matrix(9.963098,0,0,-9.962899,137.27317,113.79203)"/>
<path transform="matrix(1.00005,0,0,-1.00003,11.109856,111.646968)" stroke-width=".79701" stroke-linecap="butt" stroke-miterlimit="10" stroke-linejoin="miter" fill="none" stroke="#000000" d="M0-22.6771V98.34465"/>
<path transform="matrix(0,-1.00003,-1.00005,-0,11.109856,13.299362)" d="M1.0361 0C-.25902 .25902-1.55415 .77707-3.1083 1.68365-1.55415 .51805-1.55415-.51805-3.1083-1.68365-1.55415-.77707-.25902-.25902 1.0361 0Z"/>
<path transform="matrix(0,-1.00003,-1.00005,-0,11.109856,13.299362)" stroke-width=".79701" stroke-linecap="butt" stroke-linejoin="round" fill="none" stroke="#000000" d="M1.0361 0C-.25902 .25902-1.55415 .77707-3.1083 1.68365-1.55415 .51805-1.55415-.51805-3.1083-1.68365-1.55415-.77707-.25902-.25902 1.0361 0Z"/>
<use data-text="y" xlink:href="#font_1_2" transform="matrix(9.963098,0,0,-9.962899,8.488724,6.207802)"/>
<path transform="matrix(1.00005,0,0,-1.00003,11.109856,111.646968)" stroke-width=".79701" stroke-linecap="butt" stroke-miterlimit="10" stroke-linejoin="miter" fill="none" stroke="#000000" d="M22.67361 1.7007V-1.70087"/>
<path transform="matrix(1.00005,0,0,-1.00003,11.109856,111.646968)" d="M28.0535-4.05206H17.29376V-11.6237H28.0535ZM17.29376-11.6237" fill="#ffffff"/>
<use data-text="2" xlink:href="#font_2_3" transform="matrix(8.966787,0,0,-8.966609,29.300862,122.37448)"/>
<use data-text="0" xlink:href="#font_2_1" transform="matrix(8.966787,0,0,-8.966609,33.784254,122.37448)"/>
<path transform="matrix(1.00005,0,0,-1.00003,11.109856,111.646968)" stroke-width=".79701" stroke-linecap="butt" stroke-miterlimit="10" stroke-linejoin="miter" fill="none" stroke="#000000" d="M68.0209 1.7007V-1.70087"/>
<path transform="matrix(1.00005,0,0,-1.00003,11.109856,111.646968)" d="M73.40079-4.05206H62.64105V-11.6237H73.40079ZM62.64105-11.6237" fill="#ffffff"/>
<use data-text="6" xlink:href="#font_2_5" transform="matrix(8.966787,0,0,-8.966609,74.65113,122.37448)"/>
<use data-text="0" xlink:href="#font_2_1" transform="matrix(8.966787,0,0,-8.966609,79.13452,122.37448)"/>
<path transform="matrix(1.00005,0,0,-1.00003,11.109856,111.646968)" stroke-width=".79701" stroke-linecap="butt" stroke-miterlimit="10" stroke-linejoin="miter" fill="none" stroke="#000000" d="M113.3682 1.7007V-1.70087"/>
<path transform="matrix(1.00005,0,0,-1.00003,11.109856,111.646968)" d="M120.98969-4.05206H105.74673V-11.6237H120.98969ZM105.74673-11.6237" fill="#ffffff"/>
<use data-text="1" xlink:href="#font_2_2" transform="matrix(8.966787,0,0,-8.966609,117.75828,122.37448)"/>
<use data-text="0" xlink:href="#font_2_1" transform="matrix(8.966787,0,0,-8.966609,122.24167,122.37448)"/>
<use data-text="0" xlink:href="#font_2_1" transform="matrix(8.966787,0,0,-8.966609,126.72506,122.37448)"/>
<path transform="matrix(1.00005,0,0,-1.00003,11.109856,111.646968)" stroke-width=".79701" stroke-linecap="butt" stroke-miterlimit="10" stroke-linejoin="miter" fill="none" stroke="#000000" d="M2.26735 45.35419H-2.26735"/>
<path transform="matrix(1.00005,0,0,-1.00003,11.109856,111.646968)" d="M-4.61855 49.14001H-10.89505V41.56837H-4.61855ZM-10.89505 41.56837" fill="#ffffff"/>
<use data-text="4" xlink:href="#font_2_4" transform="matrix(8.966787,0,0,-8.966609,1.1114502,69.18089)"/>
<path transform="matrix(1.00005,0,0,-1.00003,11.109856,111.646968)" stroke-width=".79701" stroke-linecap="butt" stroke-miterlimit="10" stroke-linejoin="miter" fill="none" stroke="#000000" d="M2.26735 90.70839H-2.26735"/>
<path transform="matrix(1.00005,0,0,-1.00003,11.109856,111.646968)" d="M-4.61855 94.49422H-10.89505V86.92258H-4.61855ZM-10.89505 86.92258" fill="#ffffff"/>
<use data-text="8" xlink:href="#font_2_6" transform="matrix(8.966787,0,0,-8.966609,1.1114502,23.825524)"/>
<path transform="matrix(1.00005,0,0,-1.00003,11.109856,111.646968)" stroke-width="1.19553" stroke-linecap="butt" stroke-miterlimit="10" stroke-linejoin="miter" fill="none" stroke="#f20000" d="M3.77318-20.80923C4.92268 3.42456 4.92268 3.42456 5.39825 9.26308 5.87384 15.10158 6.63649 17.13147 7.11208 19.39987 7.58765 21.6683 8.3503 24.12723 8.82588 25.61224 9.30145 27.09724 10.06412 28.99127 10.53969 30.10278 11.01526 31.2143 11.77792 32.73294 12.25348 33.62325 12.72906 34.51355 13.49173 35.77649 13.9673 36.51947 14.44287 37.26245 15.20552 38.34048 15.6811 38.97815 16.1567 39.61583 16.91934 40.55664 17.39491 41.11537 17.8705 41.67412 18.63315 42.50798 19.10873 43.0052 19.5843 43.50241 20.34695 44.25087 20.82254 44.69899 21.29811 45.14711 22.06078 45.82715 22.53635 46.23499 23.01193 46.64284 23.77458 47.2644 24.25015 47.63846 24.72572 48.01254 25.48839 48.58562 25.96397 48.93106 26.43953 49.27647 27.2022 49.80717 27.67776 50.12813 28.15334 50.44907 28.91602 50.94446 29.39157 51.24422 29.86716 51.544 30.6298 52.0075 31.10538 52.2887 31.58096 52.5699 32.34361 53.00618 32.8192 53.27089 33.29477 53.53561 34.05742 53.94672 34.533 54.19669 35.00858 54.44666 35.77124 54.83531 36.24681 55.07248 36.7224 55.30965 37.48505 55.68062 37.96062 55.90604 38.43619 56.13147 39.19885 56.48251 39.67444 56.69724 40.15 56.91196 40.91267 57.24861 41.38823 57.45364 41.86382 57.65869 42.62648 57.97897 43.10204 58.17511 43.57762 58.37126 44.34027 58.67923 44.81586 58.86732 45.29143 59.05544 46.05408 59.35039 46.52966 59.53084 47.00523 59.71127 47.7679 59.99432 48.24347 60.16788 48.71906 60.3414 49.4817 60.61429 49.95728 60.78154 50.43286 60.94878 51.19551 61.21205 51.6711 61.37325 52.14667 61.53444 52.90932 61.78767 53.3849 61.94333 53.86046 62.09897 54.62314 62.34456 55.09871 62.49506 55.57428 62.64557 56.33694 62.8824 56.8125 63.0281 57.28809 63.17381 58.05075 63.40399 58.52632 63.54526 59.00189 63.6865 59.76454 63.90918 60.24013 64.04611 60.71571 64.18303 61.47836 64.39922 61.95393 64.53212 62.42952 64.665 63.19217 64.87482 63.66776 65.0039 64.14333 65.13301 64.90598 65.33708 65.38156 65.46257 65.85713 65.58806 66.6198 65.78639 67.09537 65.90843 67.57095 66.03046 68.3336 66.2233 68.80917 66.34218 69.28474 66.46103 70.04741 66.64914 70.52298 66.76518 70.99855 66.88121 71.76122 67.0654 72.23679 67.17851 72.71236 67.29161 73.47502 67.47014 73.95059 67.58041 74.42618 67.69069 75.18883 67.86542 75.6644 67.97333 76.13998 68.08124 76.90263 68.25279 77.37822 68.35811 77.85379 68.46344 78.61644 68.62973 79.09203 68.7325 79.5676 68.83527 80.33026 68.99829 80.80583 69.09877 81.28142 69.19926 82.04407 69.35837 82.51964 69.45674 82.99521 69.55511 83.75787 69.71143 84.23346 69.80779 84.70901 69.90413 85.47168 70.0569 85.94725 70.15121 86.42284 70.24553 87.1855 70.39516 87.66106 70.48755 88.13664 70.57994 88.89929 70.72667 89.37488 70.81714 89.85045 70.90761 90.6131 71.05093 91.08868 71.13963 91.56425 71.22832 92.32692 71.36937 92.80249 71.45642 93.27808 71.54346 94.04073 71.68156 94.5163 71.76697 94.99188 71.85239 95.75453 71.98822 96.23012 72.07199 96.70569 72.15578 97.46834 72.28851 97.94392 72.37079 98.41948 72.45305 99.18216 72.584 99.65773 72.66492 100.1333 72.74582 100.89597 72.87463 101.37152 72.95401 101.8471 73.0334 102.60976 73.159 103.08534 73.23706 103.56091 73.31512 104.32356 73.43996 104.79915 73.51665 105.27472 73.59335 106.03738 73.71448 106.51295 73.78983 106.98854 73.8652 107.75119 73.98569 108.22676 74.0599 108.70235 74.13412 109.465 74.25179 109.94058 74.32478 110.41615 74.3978 111.1788 74.5141 111.65439 74.58603 112.12996 74.65799 113.3682 74.8433 111.51596 74.56607"/>
<path transform="matrix(-.047382367,.99886,.9988799,.047381425,14.8832249,132.45682)" d="M1.27522 0C-.31879 .31879-1.91284 .9564-3.8257 2.07224-1.91284 .6376-1.91284-.6376-3.8257-2.07224-1.91284-.9564-.31879-.31879 1.27522 0Z" fill="#f20000"/>
<path transform="matrix(-.047382367,.99886,.9988799,.047381425,14.8832249,132.45682)" stroke-width="1.19553" stroke-linecap="butt" stroke-linejoin="round" fill="none" stroke="#f20000" d="M1.27522 0C-.31879 .31879-1.91284 .9564-3.8257 2.07224-1.91284 .6376-1.91284-.6376-3.8257-2.07224-1.91284-.9564-.31879-.31879 1.27522 0Z"/>
<path transform="matrix(.9889694,-.14803444,-.14803739,-.98894968,122.631389,37.07866)" d="M1.27522 0C-.31879 .31879-1.91284 .9564-3.8257 2.07224-1.91284 .6376-1.91284-.6376-3.8257-2.07224-1.91284-.9564-.31879-.31879 1.27522 0Z" fill="#f20000"/>
<path transform="matrix(.9889694,-.14803444,-.14803739,-.98894968,122.631389,37.07866)" stroke-width="1.19553" stroke-linecap="butt" stroke-linejoin="round" fill="none" stroke="#f20000" d="M1.27522 0C-.31879 .31879-1.91284 .9564-3.8257 2.07224-1.91284 .6376-1.91284-.6376-3.8257-2.07224-1.91284-.9564-.31879-.31879 1.27522 0Z"/>
</svg>
