<svg xmlns="http://www.w3.org/2000/svg" xmlns:xlink="http://www.w3.org/1999/xlink" version="1.1" width="167" height="164" viewBox="0 0 167 164">
<defs>
<path id="font_1_1" d="M.33399964 .30233766C.33999635 .32835389 .36299134 .42037965 .43299867 .42037965 .43798829 .42037965 .46199037 .42037965 .48298646 .40734864 .45498658 .402359 .43499757 .37734986 .43499757 .35334779 .43499757 .33735658 .44599916 .31835938 .47299195 .31835938 .49499513 .31835938 .5269928 .3363495 .5269928 .37635804 .5269928 .42837525 .46798707 .4423828 .43399049 .4423828 .37599183 .4423828 .34098817 .38935853 .32899476 .36634828 .3039856 .43237306 .25 .4423828 .22099304 .4423828 .116989139 .4423828 .05999756 .3133545 .05999756 .28834535 .05999756 .27833558 .069992069 .27833558 .07199097 .27833558 .07998657 .27833558 .08299255 .28033448 .084991458 .28933717 .11898804 .39535523 .18499756 .42037965 .21899414 .42037965 .23799134 .42037965 .272995 .4113617 .272995 .35334779 .272995 .32235719 .2559967 .25532533 .21899414 .11528015 .20298767 .053268434 .16799927 .011245728 .12399292 .011245728 .117996219 .011245728 .09498596 .011245728 .07398987 .024276734 .09899902 .029266358 .12098694 .05027771 .12098694 .07827759 .12098694 .105270389 .09899902 .11328125 .083999637 .11328125 .053985597 .11328125 .0289917 .08728027 .0289917 .055267335 .0289917 .009246826 .07899475-.0107421879 .12298584-.0107421879 .18899536-.0107421879 .22499085 .059280397 .22799683 .0652771 .23999024 .028274537 .27598573-.0107421879 .33599855-.0107421879 .43899537-.0107421879 .49598695 .118270877 .49598695 .14328003 .49598695 .1532898 .4869995 .1532898 .48399354 .1532898 .47499085 .1532898 .47299195 .14929199 .47099305 .14228821 .43798829 .03527832 .36999513 .011245728 .33799745 .011245728 .29899598 .011245728 .2829895 .043273927 .2829895 .07727051 .2829895 .09927368 .2889862 .121276859 .2999878 .16529846L.33399964 .30233766Z"/>
<path id="font_1_2" d="M.48599244 .38136292C.48999024 .39537049 .48999024 .39736939 .48999024 .40437318 .48999024 .42237855 .47599793 .43138124 .46099855 .43138124 .45098878 .43138124 .43499757 .42536927 .42599488 .41036988 .42399598 .405365 .41600038 .37435914 .4119873 .35635377 .40499879 .33035279 .397995 .30334474 .3919983 .27633668L.34700013 .09628296C.34298707 .08126831 .2999878 .011245728 .23399353 .011245728 .18299866 .011245728 .17199707 .055267335 .17199707 .0922699 .17199707 .1382904 .18899536 .20030213 .22299195 .28833009 .23899842 .3293457 .24299622 .3403473 .24299622 .36035157 .24299622 .405365 .21099854 .4423828 .16099549 .4423828 .06599426 .4423828 .0289917 .29733277 .0289917 .28833009 .0289917 .27833558 .038986207 .27833558 .040985109 .27833558 .050994874 .27833558 .051986696 .28033448 .056991579 .29634095 .083999637 .3903656 .12399292 .42037965 .1579895 .42037965 .1659851 .42037965 .18299866 .42037965 .18299866 .3883667 .18299866 .36335755 .17298889 .3373413 .1659851 .31834413 .12599182 .21231079 .10798645 .1552887 .10798645 .10827637 .10798645 .019256592 .17098999-.0107421879 .22999573-.0107421879 .2689972-.0107421879 .30299378 .0062561037 .33099366 .03425598 .31799317-.017745972 .30599977-.06674194 .2659912-.11973572 .23999024-.15385437 .20199585-.18309021 .1559906-.18309021 .14199829-.18309021 .09700012-.18005371 .07998657-.14074707 .09599304-.14074707 .10899353-.14074707 .12298584-.1287384 .1329956-.11973572 .14299011-.10673523 .14299011-.08773804 .14299011-.056747438 .115997318-.052734376 .10598755-.052734376 .08299255-.052734376 .049987794-.068740848 .049987794-.11773682 .049987794-.16796875 .09399414-.20507813 .1559906-.20507813 .25898744-.20507813 .3619995-.11373901 .3899994-.00074768069L.48599244 .38136292Z"/>
<path id="font_2_3" d="M.44898988 .20022583C.44898988 .3193512 .36698915 .41944886 .25898744 .41944886 .21099854 .41944886 .16799927 .40345765 .13198853 .36842347V.5637665C.1519928 .5577698 .18499756 .55078127 .21699524 .55078127 .33999635 .55078127 .4099884 .6417694 .4099884 .6547699 .4099884 .6607666 .40699769 .6657715 .3999939 .6657715 .39898683 .6657715 .39698792 .6657715 .3919983 .66278079 .37199403 .6537781 .32299806 .6337738 .2559967 .6337738 .21598816 .6337738 .16999817 .6407776 .12298584 .6617737 .114990238 .66477969 .11299133 .66477969 .11099243 .66477969 .100997928 .66477969 .100997928 .6567688 .100997928 .6407776V.34439088C.100997928 .32637025 .100997928 .31835938 .114990238 .31835938 .12199402 .31835938 .12399292 .32136537 .12799073 .32736207 .13899231 .3433838 .17599488 .39746095 .25698854 .39746095 .30899049 .39746095 .33399964 .35139466 .34199525 .33337403 .35798646 .29632569 .3600006 .25727845 .3600006 .20722962 .3600006 .17222595 .3600006 .11222839 .33599855 .07035828 .31199647 .031463624 .2749939 .0055389406 .22898865 .0055389406 .1559906 .0055389406 .09899902 .058380128 .08198547 .11723328 .084991458 .1162262 .08799744 .115234378 .09899902 .115234378 .13198853 .115234378 .14898682 .14022827 .14898682 .16423035 .14898682 .18823242 .13198853 .21322632 .09899902 .21322632 .084991458 .21322632 .049987794 .20622254 .049987794 .16023255 .049987794 .07434082 .11898804-.022460938 .23098755-.022460938 .34700013-.022460938 .44898988 .073349 .44898988 .20022583Z"/>
<path id="font_2_2" d="M.2939911 .64004519C.2939911 .66400149 .2939911 .6660156 .2709961 .6660156 .20899964 .60227969 .12098694 .60227969 .08898926 .60227969V.57128909C.10899353 .57128909 .16799927 .57128909 .21998596 .5972748V.07902527C.21998596 .042999269 .21699524 .0309906 .1269989 .0309906H.09498596V0C.12998963 .0029907227 .21699524 .0029907227 .25698854 .0029907227 .29699708 .0029907227 .38398744 .0029907227 .4189911 0V.0309906H.3869934C.29699708 .0309906 .2939911 .041992189 .2939911 .07902527V.64004519Z"/>
<path id="font_2_1" d="M.45999146 .31976319C.45999146 .39982606 .45498658 .47988893 .41999818 .5539398 .37399293 .65000918 .2919922 .6660156 .25 .6660156 .18998719 .6660156 .116989139 .64001467 .07598877 .54693606 .04399109 .47789 .038986207 .39982606 .038986207 .31976319 .038986207 .24472046 .042999269 .15464783 .083999637 .07859802 .1269989-.0024719239 .19999695-.022460938 .24899292-.022460938 .30299378-.022460938 .3789978-.0014648438 .4229889 .09359741 .45498658 .16265869 .45999146 .2407074 .45999146 .31976319M.24899292-.00047302247C.20999146-.00047302247 .15098572 .024551392 .1329956 .12062073 .12199402 .18066406 .12199402 .2727356 .12199402 .3317871 .12199402 .39582826 .12199402 .46188355 .12998963 .5159149 .14898682 .63500979 .22399903 .64401248 .24899292 .64401248 .28199769 .64401248 .34799195 .6259918 .36698915 .52693179 .3769989 .47088624 .3769989 .39482118 .3769989 .3317871 .3769989 .25672914 .3769989 .18867493 .3659973 .12461853 .35099793 .029556275 .2939911-.00047302247 .24899292-.00047302247Z"/>
<path id="font_3_1" d="M.6589966 .23046875C.6759949 .23046875 .69400027 .23046875 .69400027 .25045777 .69400027 .27046205 .6759949 .27046205 .6589966 .27046205H.117996219C.100997928 .27046205 .08299255 .27046205 .08299255 .25045777 .08299255 .23046875 .100997928 .23046875 .117996219 .23046875H.6589966Z"/>
</defs>
<path transform="matrix(1,0,0,-1.00005,79.94701,88.40476)" stroke-width=".3985" stroke-linecap="butt" stroke-miterlimit="10" stroke-linejoin="miter" fill="none" stroke="#00c0f3" d="M-70.867-70.867H70.867M-70.867-63.7803H70.867M-70.867-56.69362H70.867M-70.867-49.6069H70.867M-70.867-42.5202H70.867M-70.867-35.43349H70.867M-70.867-28.3468H70.867M-70.867-21.2601H70.867M-70.867-14.17339H70.867M-70.867-7.08669H70.867M-70.867 0H70.867M-70.867 7.08669H70.867M-70.867 14.17339H70.867M-70.867 21.2601H70.867M-70.867 28.3468H70.867M-70.867 35.43349H70.867M-70.867 42.5202H70.867M-70.867 49.6069H70.867M-70.867 56.69362H70.867M-70.867 63.7803H70.867M-70.867 70.86452H70.867M-70.867-70.867V70.867M-63.7803-70.867V70.867M-56.69362-70.867V70.867M-49.6069-70.867V70.867M-42.5202-70.867V70.867M-35.43349-70.867V70.867M-28.3468-70.867V70.867M-21.2601-70.867V70.867M-14.17339-70.867V70.867M-7.08669-70.867V70.867M0-70.867V70.867M7.08669-70.867V70.867M14.17339-70.867V70.867M21.2601-70.867V70.867M28.3468-70.867V70.867M35.43349-70.867V70.867M42.5202-70.867V70.867M49.6069-70.867V70.867M56.69362-70.867V70.867M63.7803-70.867V70.867M70.86452-70.867V70.867M70.867 70.867"/>
<path transform="matrix(1,0,0,-1.00005,79.94701,88.40476)" stroke-width=".79701" stroke-linecap="butt" stroke-miterlimit="10" stroke-linejoin="miter" fill="none" stroke="#000000" d="M-70.867 0H75.10178"/>
<path transform="matrix(1,0,0,-1.00005,155.0488,88.40476)" d="M1.0361 0C-.25902 .25902-1.55415 .77707-3.1083 1.68365-1.55415 .51805-1.55415-.51805-3.1083-1.68365-1.55415-.77707-.25902-.25902 1.0361 0Z"/>
<path transform="matrix(1,0,0,-1.00005,155.0488,88.40476)" stroke-width=".79701" stroke-linecap="butt" stroke-linejoin="round" fill="none" stroke="#000000" d="M1.0361 0C-.25902 .25902-1.55415 .77707-3.1083 1.68365-1.55415 .51805-1.55415-.51805-3.1083-1.68365-1.55415-.77707-.25902-.25902 1.0361 0Z"/>
<use data-text="x" xlink:href="#font_1_1" transform="matrix(9.9626,0,0,-9.963098,160.202,90.549869)"/>
<path transform="matrix(1,0,0,-1.00005,79.94701,88.40476)" stroke-width=".79701" stroke-linecap="butt" stroke-miterlimit="10" stroke-linejoin="miter" fill="none" stroke="#000000" d="M0-70.867V75.10178"/>
<path transform="matrix(0,-1.00005,-1,-0,79.94701,13.299225)" d="M1.0361 0C-.25902 .25902-1.55415 .77707-3.1083 1.68365-1.55415 .51805-1.55415-.51805-3.1083-1.68365-1.55415-.77707-.25902-.25902 1.0361 0Z"/>
<path transform="matrix(0,-1.00005,-1,-0,79.94701,13.299225)" stroke-width=".79701" stroke-linecap="butt" stroke-linejoin="round" fill="none" stroke="#000000" d="M1.0361 0C-.25902 .25902-1.55415 .77707-3.1083 1.68365-1.55415 .51805-1.55415-.51805-3.1083-1.68365-1.55415-.77707-.25902-.25902 1.0361 0Z"/>
<use data-text="y" xlink:href="#font_1_2" transform="matrix(9.9626,0,0,-9.963098,77.326007,6.207657)"/>
<path transform="matrix(1,0,0,-1.00005,79.94701,88.40476)" stroke-width=".79701" stroke-linecap="butt" stroke-miterlimit="10" stroke-linejoin="miter" fill="none" stroke="#000000" d="M35.43349 1.06294V-1.06305"/>
<path transform="matrix(1,0,0,-1.00005,79.94701,88.40476)" d="M38.57175-3.41425H32.29524V-10.98589H38.57175ZM32.29524-10.98589" fill="#ffffff"/>
<use data-text="5" xlink:href="#font_2_3" transform="matrix(8.966339,0,0,-8.966787,113.1393,98.49436)"/>
<path transform="matrix(1,0,0,-1.00005,79.94701,88.40476)" stroke-width=".79701" stroke-linecap="butt" stroke-miterlimit="10" stroke-linejoin="miter" fill="none" stroke="#000000" d="M.99213 35.43349H-.99213"/>
<path transform="matrix(1,0,0,-1.00005,79.94701,88.40476)" d="M-3.34332 39.21931H-9.61981V31.64769H-3.34332ZM-9.61981 31.64769" fill="#ffffff"/>
<use data-text="5" xlink:href="#font_2_3" transform="matrix(8.966339,0,0,-8.966787,71.2243,55.85923)"/>
<path transform="matrix(1,0,0,-1.00005,79.94701,88.40476)" stroke-width=".79701" stroke-linecap="butt" stroke-miterlimit="10" stroke-linejoin="miter" fill="none" stroke="#000000" d="M70.867 1.06294V-1.06305"/>
<path transform="matrix(1,0,0,-1.00005,79.94701,88.40476)" d="M76.24689-3.41425H65.48715V-10.98589H76.24689ZM65.48715-10.98589" fill="#ffffff"/>
<use data-text="1" xlink:href="#font_2_2" transform="matrix(8.966339,0,0,-8.966787,146.33029,98.49436)"/>
<use data-text="0" xlink:href="#font_2_1" transform="matrix(8.966339,0,0,-8.966787,150.81346,98.49436)"/>
<path transform="matrix(1,0,0,-1.00005,79.94701,88.40476)" stroke-width=".79701" stroke-linecap="butt" stroke-miterlimit="10" stroke-linejoin="miter" fill="none" stroke="#000000" d="M.99213 70.867H-.99213"/>
<path transform="matrix(1,0,0,-1.00005,79.94701,88.40476)" d="M-3.34334 74.65283H-14.10306V67.0812H-3.34334ZM-14.10306 67.0812" fill="#ffffff"/>
<use data-text="1" xlink:href="#font_2_2" transform="matrix(8.966339,0,0,-8.966787,66.740299,20.423462)"/>
<use data-text="0" xlink:href="#font_2_1" transform="matrix(8.966339,0,0,-8.966787,71.223468,20.423462)"/>
<path transform="matrix(1,0,0,-1.00005,79.94701,88.40476)" stroke-width=".79701" stroke-linecap="butt" stroke-miterlimit="10" stroke-linejoin="miter" fill="none" stroke="#000000" d="M-35.43349 1.06294V-1.06305"/>
<path transform="matrix(1,0,0,-1.00005,79.94701,88.40476)" d="M-28.80829-3.41425H-42.0587V-11.7331H-28.80829ZM-42.0587-11.7331" fill="#ffffff"/>
<use data-text="&#x2212;" xlink:href="#font_3_1" transform="matrix(8.966339,0,0,-8.966787,38.785295,98.49436)"/>
<use data-text="5" xlink:href="#font_2_3" transform="matrix(8.966339,0,0,-8.966787,45.7594,98.49436)"/>
<path transform="matrix(1,0,0,-1.00005,79.94701,88.40476)" stroke-width=".79701" stroke-linecap="butt" stroke-miterlimit="10" stroke-linejoin="miter" fill="none" stroke="#000000" d="M.99213-35.43349H-.99213"/>
<path transform="matrix(1,0,0,-1.00005,79.94701,88.40476)" d="M-3.34332-31.27406H-16.59372V-39.59291H-3.34332ZM-16.59372-39.59291" fill="#ffffff"/>
<use data-text="&#x2212;" xlink:href="#font_3_1" transform="matrix(8.966339,0,0,-8.966787,64.2503,126.35576)"/>
<use data-text="5" xlink:href="#font_2_3" transform="matrix(8.966339,0,0,-8.966787,71.2244,126.35576)"/>
<path transform="matrix(1,0,0,-1.00005,79.94701,88.40476)" stroke-width=".79701" stroke-linecap="butt" stroke-miterlimit="10" stroke-linejoin="miter" fill="none" stroke="#000000" d="M-70.867 1.06294V-1.06305"/>
<path transform="matrix(1,0,0,-1.00005,79.94701,88.40476)" d="M-62.00018-3.41425H-79.73384V-11.7331H-62.00018ZM-79.73384-11.7331" fill="#ffffff"/>
<use data-text="&#x2212;" xlink:href="#font_3_1" transform="matrix(8.966339,0,0,-8.966787,1.1102905,98.49436)"/>
<use data-text="1" xlink:href="#font_2_2" transform="matrix(8.966339,0,0,-8.966787,8.084396,98.49436)"/>
<use data-text="0" xlink:href="#font_2_1" transform="matrix(8.966339,0,0,-8.966787,12.567551,98.49436)"/>
<path transform="matrix(1,0,0,-1.00005,79.94701,88.40476)" stroke-width=".79701" stroke-linecap="butt" stroke-miterlimit="10" stroke-linejoin="miter" fill="none" stroke="#000000" d="M.99213-70.867H-.99213"/>
<path transform="matrix(1,0,0,-1.00005,79.94701,88.40476)" d="M-3.34332-66.70758H-21.07697V-75.02643H-3.34332ZM-21.07697-75.02643" fill="#ffffff"/>
<use data-text="&#x2212;" xlink:href="#font_3_1" transform="matrix(8.966339,0,0,-8.966787,59.766298,161.79053)"/>
<use data-text="1" xlink:href="#font_2_2" transform="matrix(8.966339,0,0,-8.966787,66.7404,161.79053)"/>
<use data-text="0" xlink:href="#font_2_1" transform="matrix(8.966339,0,0,-8.966787,71.22356,161.79053)"/>
<path transform="matrix(1,0,0,-1.00005,79.94701,88.40476)" stroke-width="1.19553" stroke-linecap="butt" stroke-miterlimit="10" stroke-linejoin="miter" fill="none" stroke="#0000ff" d="M-20.42256-69.1919C-20.46007-69.26695-20.46007-69.26695-20.1528-68.65242-19.84552-68.03787-19.35277-67.05237-19.0455-66.43782-18.73822-65.82329-18.24547-64.83777-17.9382-64.22322-17.63092-63.60869-17.13817-62.62317-16.8309-62.00864-16.52364-61.39409-16.03087-60.40858-15.72362-59.79404-15.41634-59.1795-14.92358-58.19398-14.61632-57.57945-14.30904-56.9649-13.81628-55.97939-13.50902-55.36485-13.20174-54.7503-12.70898-53.7648-12.40172-53.15025-12.09444-52.53572-11.60168-51.5502-11.29442-50.93567-10.98715-50.32112-10.49438-49.33562-10.18713-48.72107-9.87985-48.10654-9.38708-47.121-9.07982-46.50647-8.77255-45.89192-8.2798-44.9064-7.97252-44.29187-7.66525-43.67732-7.1725-42.69182-6.86522-42.07727-6.55795-41.46274-6.0652-40.47722-5.75792-39.86269-5.45067-39.24814-4.9579-38.26263-4.65063-37.64809-4.34337-37.03355-3.8506-36.04803-3.54333-35.43349-3.23607-34.81895-2.74332-33.83344-2.43604-33.2189-2.12877-32.60435-1.63602-31.61885-1.32874-31.0043-1.02147-30.38977-.52872-29.40425-.22144-28.78972 .08578-28.17517 .57855-27.18965 .88583-26.57512 1.19308-25.96057 1.68585-24.97507 1.99312-24.36052 2.30038-23.74599 2.79314-22.76047 3.10042-22.14594 3.40768-21.53139 3.90044-20.54588 4.20772-19.93134 4.51498-19.3168 5.00774-18.33128 5.31502-17.71674 5.62228-17.1022 6.11504-16.11668 6.42232-15.50215 6.72957-14.8876 7.22234-13.9021 7.5296-13.28755 7.83687-12.67302 8.32962-11.6875 8.6369-11.07297 8.94417-10.45842 9.43692-9.4729 9.7442-8.85837 10.05147-8.24382 10.54422-7.25832 10.8515-6.64377 11.15877-6.02924 11.65152-5.04372 11.9588-4.42918 12.26605-3.81464 12.75882-2.82913 13.06609-2.21458 13.37335-1.60005 13.86613-.61453 14.17339 0 14.48067 .61453 14.97342 1.60005 15.28069 2.21458 15.58797 2.82913 16.08072 3.81464 16.38799 4.42918 16.69527 5.04372 17.18802 6.02924 17.49529 6.64377 17.80255 7.25832 18.29532 8.24382 18.60258 8.85837 18.90985 9.4729 19.40262 10.45842 19.70987 11.07297 20.01715 11.6875 20.5099 12.67302 20.81717 13.28755 21.12445 13.9021 21.6172 14.8876 21.92447 15.50215 22.23175 16.11668 22.7245 17.1022 23.03177 17.71674 23.33904 18.33128 23.8318 19.3168 24.13907 19.93134 24.44633 20.54588 24.9391 21.53139 25.24635 22.14594 25.55363 22.76047 26.04639 23.74599 26.35365 24.36052 26.66093 24.97507 27.15369 25.96057 27.46095 26.57512 27.76823 27.18965 28.26099 28.17517 28.56825 28.78972 28.87553 29.40425 29.36829 30.38977 29.67555 31.0043 29.98282 31.61885 30.47559 32.60435 30.78284 33.2189 31.09012 33.83344 31.58287 34.81895 31.89014 35.43349 32.19742 36.04803 32.69017 37.03355 32.99744 37.64809 33.30472 38.26263 33.79747 39.24814 34.10474 39.86269 34.41202 40.47722 34.90477 41.46274 35.21204 42.07727 35.5193 42.69182 36.01207 43.67732 36.31932 44.29187 36.6266 44.9064 37.11937 45.89192 37.42662 46.50647 37.7339 47.121 38.22665 48.10654 38.53394 48.72107 38.8412 49.33562 39.33395 50.32112 39.64124 50.93567 39.9485 51.5502 40.44125 52.53572 40.74854 53.15025 41.05579 53.7648 41.54855 54.7503 41.85583 55.36485 42.16309 55.97939 42.65585 56.9649 42.96312 57.57945 43.27039 58.19398 43.76314 59.1795 44.07042 59.79404 44.37769 60.40858 44.87044 61.39409 45.17772 62.00864 45.48499 62.62317 45.97774 63.60869 46.28502 64.22322 46.59227 64.83777 47.08504 65.82329 47.39232 66.43782 47.69957 67.05237 48.19234 68.03787 48.4996 68.65242 48.80687 69.26695 49.6069 70.867 48.76936 69.1919"/>
<path transform="matrix(-.44717,.89440467,.89436,.4471923,59.524457,157.6001)" d="M1.27522 0C-.31879 .31879-1.91284 .9564-3.8257 2.07224-1.91284 .6376-1.91284-.6376-3.8257-2.07224-1.91284-.9564-.31879-.31879 1.27522 0Z" fill="#0000ff"/>
<path transform="matrix(-.44717,.89440467,.89436,.4471923,59.524457,157.6001)" stroke-width="1.19553" stroke-linecap="butt" stroke-linejoin="round" fill="none" stroke="#0000ff" d="M1.27522 0C-.31879 .31879-1.91284 .9564-3.8257 2.07224-1.91284 .6376-1.91284-.6376-3.8257-2.07224-1.91284-.9564-.31879-.31879 1.27522 0Z"/>
<path transform="matrix(.44717,-.89440467,-.89436,-.4471923,128.71636,19.209427)" d="M1.27522 0C-.31879 .31879-1.91284 .9564-3.8257 2.07224-1.91284 .6376-1.91284-.6376-3.8257-2.07224-1.91284-.9564-.31879-.31879 1.27522 0Z" fill="#0000ff"/>
<path transform="matrix(.44717,-.89440467,-.89436,-.4471923,128.71636,19.209427)" stroke-width="1.19553" stroke-linecap="butt" stroke-linejoin="round" fill="none" stroke="#0000ff" d="M1.27522 0C-.31879 .31879-1.91284 .9564-3.8257 2.07224-1.91284 .6376-1.91284-.6376-3.8257-2.07224-1.91284-.9564-.31879-.31879 1.27522 0Z"/>
<path transform="matrix(1,0,0,-1.00005,79.94701,88.40476)" stroke-width="1.19553" stroke-linecap="butt" stroke-miterlimit="10" stroke-linejoin="miter" fill="none" stroke="#0000ff" d="M-27.50926-69.1919C-27.54677-69.26695-27.54677-69.26695-27.23949-68.65242-26.93222-68.03787-26.43947-67.05237-26.13219-66.43782-25.82494-65.82329-25.33217-64.83777-25.0249-64.22322-24.71764-63.60869-24.22488-62.62317-23.9176-62.00864-23.61034-61.39409-23.11758-60.40858-22.8103-59.79404-22.50304-59.1795-22.01028-58.19398-21.703-57.57945-21.39574-56.9649-20.90298-55.97939-20.5957-55.36485-20.28845-54.7503-19.79568-53.7648-19.48842-53.15025-19.18115-52.53572-18.68839-51.5502-18.38112-50.93567-18.07385-50.32112-17.5811-49.33562-17.27382-48.72107-16.96655-48.10654-16.4738-47.121-16.16652-46.50647-15.85925-45.89192-15.3665-44.9064-15.05922-44.29187-14.75197-43.67732-14.2592-42.69182-13.95193-42.07727-13.64467-41.46274-13.1519-40.47722-12.84464-39.86269-12.53737-39.24814-12.04462-38.26263-11.73734-37.64809-11.43007-37.03355-10.93732-36.04803-10.63004-35.43349-10.32277-34.81895-9.83002-33.83344-9.52274-33.2189-9.21548-32.60435-8.72272-31.61885-8.41544-31.0043-8.10818-30.38977-7.61542-29.40425-7.30815-28.78972-7.00089-28.17517-6.50813-27.18965-6.20085-26.57512-5.89359-25.96057-5.40083-24.97507-5.09355-24.36052-4.78629-23.74599-4.29352-22.76047-3.98625-22.14594-3.67897-21.53139-3.18622-20.54588-2.87895-19.93134-2.57169-19.3168-2.07892-18.33128-1.77167-17.71674-1.46439-17.1022-.97163-16.11668-.66437-15.50215-.35709-14.8876 .13564-13.9021 .4429-13.28755 .75018-12.67302 1.24294-11.6875 1.5502-11.07297 1.85748-10.45842 2.35023-9.4729 2.6575-8.85837 2.96477-8.24382 3.45753-7.25832 3.76479-6.64377 4.07207-6.02924 4.56483-5.04372 4.87209-4.42918 5.17937-3.81464 5.67212-2.82913 5.97939-2.21458 6.28667-1.60005 6.77942-.61453 7.08669 0 7.39397 .61453 7.88672 1.60005 8.19398 2.21458 8.50125 2.82913 8.99402 3.81464 9.30128 4.42918 9.60855 5.04372 10.10132 6.02924 10.40857 6.64377 10.71585 7.25832 11.2086 8.24382 11.51587 8.85837 11.82315 9.4729 12.3159 10.45842 12.62317 11.07297 12.93045 11.6875 13.4232 12.67302 13.73047 13.28755 14.03773 13.9021 14.5305 14.8876 14.83777 15.50215 15.14503 16.11668 15.6378 17.1022 15.94505 17.71674 16.25233 18.33128 16.74509 19.3168 17.05235 19.93134 17.35963 20.54588 17.85239 21.53139 18.15965 22.14594 18.46693 22.76047 18.95969 23.74599 19.26697 24.36052 19.57423 24.97507 20.06699 25.96057 20.37427 26.57512 20.68152 27.18965 21.17429 28.17517 21.48155 28.78972 21.78882 29.40425 22.28157 30.38977 22.58885 31.0043 22.89612 31.61885 23.38887 32.60435 23.69615 33.2189 24.00342 33.83344 24.49617 34.81895 24.80345 35.43349 25.11072 36.04803 25.60347 37.03355 25.91075 37.64809 26.218 38.26263 26.71077 39.24814 27.01804 39.86269 27.3253 40.47722 27.81807 41.46274 28.12534 42.07727 28.4326 42.69182 28.92535 43.67732 29.23264 44.29187 29.5399 44.9064 30.03265 45.89192 30.33994 46.50647 30.6472 47.121 31.13995 48.10654 31.44724 48.72107 31.75449 49.33562 32.24725 50.32112 32.55453 50.93567 32.86179 51.5502 33.35455 52.53572 33.66182 53.15025 33.96909 53.7648 34.46184 54.7503 34.76912 55.36485 35.07639 55.97939 35.56914 56.9649 35.87642 57.57945 36.18369 58.19398 36.67644 59.1795 36.98372 59.79404 37.29097 60.40858 37.78374 61.39409 38.09102 62.00864 38.39827 62.62317 38.89104 63.60869 39.1983 64.22322 39.50557 64.83777 39.99832 65.82329 40.3056 66.43782 40.61287 67.05237 41.10562 68.03787 41.4129 68.65242 41.72017 69.26695 42.5202 70.867 41.68266 69.1919"/>
<path transform="matrix(-.44717,.89440467,.89436,.4471923,52.437757,157.6001)" d="M1.27522 0C-.31879 .31879-1.91284 .9564-3.8257 2.07224-1.91284 .6376-1.91284-.6376-3.8257-2.07224-1.91284-.9564-.31879-.31879 1.27522 0Z" fill="#0000ff"/>
<path transform="matrix(-.44717,.89440467,.89436,.4471923,52.437757,157.6001)" stroke-width="1.19553" stroke-linecap="butt" stroke-linejoin="round" fill="none" stroke="#0000ff" d="M1.27522 0C-.31879 .31879-1.91284 .9564-3.8257 2.07224-1.91284 .6376-1.91284-.6376-3.8257-2.07224-1.91284-.9564-.31879-.31879 1.27522 0Z"/>
<path transform="matrix(.44717,-.89440467,-.89436,-.4471923,121.629657,19.209427)" d="M1.27522 0C-.31879 .31879-1.91284 .9564-3.8257 2.07224-1.91284 .6376-1.91284-.6376-3.8257-2.07224-1.91284-.9564-.31879-.31879 1.27522 0Z" fill="#0000ff"/>
<path transform="matrix(.44717,-.89440467,-.89436,-.4471923,121.629657,19.209427)" stroke-width="1.19553" stroke-linecap="butt" stroke-linejoin="round" fill="none" stroke="#0000ff" d="M1.27522 0C-.31879 .31879-1.91284 .9564-3.8257 2.07224-1.91284 .6376-1.91284-.6376-3.8257-2.07224-1.91284-.9564-.31879-.31879 1.27522 0Z"/>
</svg>
