<svg xmlns="http://www.w3.org/2000/svg" xmlns:xlink="http://www.w3.org/1999/xlink" version="1.1" width="149" height="142" viewBox="0 0 149 142">
<defs>
<path id="font_1_6" d="M.44898988 .20022583C.44898988 .3193512 .36698915 .41944886 .25898744 .41944886 .21099854 .41944886 .16799927 .40345765 .13198853 .36842347V.5637665C.1519928 .5577698 .18499756 .55078127 .21699524 .55078127 .33999635 .55078127 .4099884 .6417694 .4099884 .6547699 .4099884 .6607666 .40699769 .6657715 .3999939 .6657715 .39898683 .6657715 .39698792 .6657715 .3919983 .66278079 .37199403 .6537781 .32299806 .6337738 .2559967 .6337738 .21598816 .6337738 .16999817 .6407776 .12298584 .6617737 .114990238 .66477969 .11299133 .66477969 .11099243 .66477969 .100997928 .66477969 .100997928 .6567688 .100997928 .6407776V.34439088C.100997928 .32637025 .100997928 .31835938 .114990238 .31835938 .12199402 .31835938 .12399292 .32136537 .12799073 .32736207 .13899231 .3433838 .17599488 .39746095 .25698854 .39746095 .30899049 .39746095 .33399964 .35139466 .34199525 .33337403 .35798646 .29632569 .3600006 .25727845 .3600006 .20722962 .3600006 .17222595 .3600006 .11222839 .33599855 .07035828 .31199647 .031463624 .2749939 .0055389406 .22898865 .0055389406 .1559906 .0055389406 .09899902 .058380128 .08198547 .11723328 .084991458 .1162262 .08799744 .115234378 .09899902 .115234378 .13198853 .115234378 .14898682 .14022827 .14898682 .16423035 .14898682 .18823242 .13198853 .21322632 .09899902 .21322632 .084991458 .21322632 .049987794 .20622254 .049987794 .16023255 .049987794 .07434082 .11898804-.022460938 .23098755-.022460938 .34700013-.022460938 .44898988 .073349 .44898988 .20022583Z"/>
<path id="font_1_3" d="M.1269989 .07699585 .23298645 .18003845C.3889923 .31811524 .44898988 .3721466 .44898988 .47216798 .44898988 .5860901 .35899354 .6660156 .23699951 .6660156 .12399292 .6660156 .049987794 .57411196 .049987794 .48516847 .049987794 .4291687 .099990848 .4291687 .102996829 .4291687 .11999512 .4291687 .15499878 .44117738 .15499878 .48217774 .15499878 .5081787 .13699341 .5341797 .101989749 .5341797 .09399414 .5341797 .09199524 .5341797 .08898926 .5331726 .11199951 .59806826 .1659851 .63500979 .22399903 .63500979 .31498719 .63500979 .35798646 .5541382 .35798646 .47216798 .35798646 .39215089 .30799867 .31311036 .25299073 .25108338L.06098938 .036987306C.049987794 .025985718 .049987794 .023986817 .049987794 0H.42099L.44898988 .17404175H.42399598C.4189911 .14402771 .4119873 .1000061 .4019928 .084991458 .394989 .07699585 .32899476 .07699585 .30699159 .07699585H.1269989Z"/>
<path id="font_1_1" d="M.45999146 .31976319C.45999146 .39982606 .45498658 .47988893 .41999818 .5539398 .37399293 .65000918 .2919922 .6660156 .25 .6660156 .18998719 .6660156 .116989139 .64001467 .07598877 .54693606 .04399109 .47789 .038986207 .39982606 .038986207 .31976319 .038986207 .24472046 .042999269 .15464783 .083999637 .07859802 .1269989-.0024719239 .19999695-.022460938 .24899292-.022460938 .30299378-.022460938 .3789978-.0014648438 .4229889 .09359741 .45498658 .16265869 .45999146 .2407074 .45999146 .31976319M.24899292-.00047302247C.20999146-.00047302247 .15098572 .024551392 .1329956 .12062073 .12199402 .18066406 .12199402 .2727356 .12199402 .3317871 .12199402 .39582826 .12199402 .46188355 .12998963 .5159149 .14898682 .63500979 .22399903 .64401248 .24899292 .64401248 .28199769 .64401248 .34799195 .6259918 .36698915 .52693179 .3769989 .47088624 .3769989 .39482118 .3769989 .3317871 .3769989 .25672914 .3769989 .18867493 .3659973 .12461853 .35099793 .029556275 .2939911-.00047302247 .24899292-.00047302247Z"/>
<path id="font_1_4" d="M.2899933 .35191346C.37199403 .37893678 .42999269 .4490509 .42999269 .52809146 .42999269 .6100464 .34199525 .6660156 .24598694 .6660156 .14498902 .6660156 .068984989 .60606387 .068984989 .53009036 .068984989 .49710084 .09098816 .47808839 .11999512 .47808839 .15098572 .47808839 .17098999 .50009158 .17098999 .5290985 .17098999 .57910159 .12399292 .57910159 .10899353 .57910159 .13999939 .62802127 .20599365 .64100649 .24198914 .64100649 .2829895 .64100649 .33799745 .6190338 .33799745 .5290985 .33799745 .51708987 .33599855 .45906068 .30999757 .4149933 .27999879 .36691285 .24598694 .36390687 .22099304 .36291505 .21299744 .36190797 .18899536 .35990907 .18199158 .35990907 .17399597 .35890199 .16699219 .35791017 .16699219 .3479004 .16699219 .33691407 .17399597 .33691407 .19099427 .33691407H.23498535C.31698609 .33691407 .35398866 .2686615 .35398866 .17037964 .35398866 .034469606 .2849884 .0055389406 .24099732 .0055389406 .19799805 .0055389406 .12298584 .022491456 .08799744 .08137512 .12298584 .07637024 .1539917 .09837341 .1539917 .1363678 .1539917 .17237854 .1269989 .19238281 .09799194 .19238281 .07398987 .19238281 .041992189 .17837525 .041992189 .1343689 .041992189 .043441774 .1349945-.022460938 .24398804-.022460938 .3659973-.022460938 .45700074 .06838989 .45700074 .17037964 .45700074 .252594 .3939972 .33088685 .2899933 .35191346Z"/>
<path id="font_1_2" d="M.2939911 .64004519C.2939911 .66400149 .2939911 .6660156 .2709961 .6660156 .20899964 .60227969 .12098694 .60227969 .08898926 .60227969V.57128909C.10899353 .57128909 .16799927 .57128909 .21998596 .5972748V.07902527C.21998596 .042999269 .21699524 .0309906 .1269989 .0309906H.09498596V0C.12998963 .0029907227 .21699524 .0029907227 .25698854 .0029907227 .29699708 .0029907227 .38398744 .0029907227 .4189911 0V.0309906H.3869934C.29699708 .0309906 .2939911 .041992189 .2939911 .07902527V.64004519Z"/>
<path id="font_1_5" d="M.2939911 .16503906V.07800293C.2939911 .041992189 .2919922 .0309906 .21798706 .0309906H.19699097V0C.23799134 .0029907227 .2899933 .0029907227 .33198548 .0029907227 .37399293 .0029907227 .4269867 .0029907227 .46798707 0V.0309906H.44699098C.37298585 .0309906 .37098695 .041992189 .37098695 .07800293V.16503906H.47099305V.19602967H.37098695V.65075686C.37098695 .67074587 .37098695 .6767578 .35499574 .6767578 .34599305 .6767578 .34298707 .6767578 .33499146 .66474917L.027999878 .19602967V.16503906H.2939911M.2999878 .19602967H.055999757L.2999878 .5688019V.19602967Z"/>
</defs>
<path transform="matrix(1.00005,0,0,-1.0001,16.501122,128.0043)" stroke-width=".3985" stroke-linecap="butt" stroke-miterlimit="10" stroke-linejoin="miter" fill="none" stroke="#00aeef" d="M0 0H113.38766M0 22.67752H113.38766M0 45.35506H113.38766M0 68.0326H113.38766M0 90.71013H113.38766M0 113.37968H113.38766M0 0V113.38766M22.67752 0V113.38766M45.35506 0V113.38766M68.0326 0V113.38766M90.71013 0V113.38766M113.37968 0V113.38766M113.38766 113.38766"/>
<path transform="matrix(1.00005,0,0,-1.0001,16.501122,128.0043)" stroke-width=".79701" stroke-linecap="butt" stroke-miterlimit="10" stroke-linejoin="miter" fill="none" stroke="#000000" d="M0 0H130.09514"/>
<path transform="matrix(1.00005,0,0,-1.0001,146.60276,128.0043)" d="M1.0361 0C-.25902 .25902-1.55415 .77707-3.1083 1.68365-1.55415 .51805-1.55415-.51805-3.1083-1.68365-1.55415-.77707-.25902-.25902 1.0361 0Z"/>
<path transform="matrix(1.00005,0,0,-1.0001,146.60276,128.0043)" stroke-width=".79701" stroke-linecap="butt" stroke-linejoin="round" fill="none" stroke="#000000" d="M1.0361 0C-.25902 .25902-1.55415 .77707-3.1083 1.68365-1.55415 .51805-1.55415-.51805-3.1083-1.68365-1.55415-.77707-.25902-.25902 1.0361 0Z"/>
<path transform="matrix(1.00005,0,0,-1.0001,16.501122,128.0043)" stroke-width=".79701" stroke-linecap="butt" stroke-miterlimit="10" stroke-linejoin="miter" fill="none" stroke="#000000" d="M0 0V125.5597"/>
<path transform="matrix(0,-1.0001,-1.00005,-0,16.501122,2.432045)" d="M1.0361 0C-.25902 .25902-1.55415 .77707-3.1083 1.68365-1.55415 .51805-1.55415-.51805-3.1083-1.68365-1.55415-.77707-.25902-.25902 1.0361 0Z"/>
<path transform="matrix(0,-1.0001,-1.00005,-0,16.501122,2.432045)" stroke-width=".79701" stroke-linecap="butt" stroke-linejoin="round" fill="none" stroke="#000000" d="M1.0361 0C-.25902 .25902-1.55415 .77707-3.1083 1.68365-1.55415 .51805-1.55415-.51805-3.1083-1.68365-1.55415-.77707-.25902-.25902 1.0361 0Z"/>
<path transform="matrix(1.00005,0,0,-1.0001,16.501122,128.0043)" stroke-width=".79701" stroke-linecap="butt" stroke-miterlimit="10" stroke-linejoin="miter" fill="none" stroke="#000000" d="M22.67752 3.17482V-3.17482"/>
<path transform="matrix(1.00005,0,0,-1.0001,16.501122,128.0043)" d="M25.81577-5.52602H19.53926V-13.09766H25.81577ZM19.53926-13.09766" fill="#ffffff"/>
<use data-text="5" xlink:href="#font_1_6" transform="matrix(8.966787,0,0,-8.9672369,36.938138,140.20693)"/>
<path transform="matrix(1.00005,0,0,-1.0001,16.501122,128.0043)" stroke-width=".79701" stroke-linecap="butt" stroke-miterlimit="10" stroke-linejoin="miter" fill="none" stroke="#000000" d="M45.35506 3.17482V-3.17482"/>
<path transform="matrix(1.00005,0,0,-1.0001,16.501122,128.0043)" d="M50.73492-5.52602H39.97519V-13.09766H50.73492ZM39.97519-13.09766" fill="#ffffff"/>
<use data-text="2" xlink:href="#font_1_3" transform="matrix(8.966787,0,0,-8.9672369,57.375158,140.20693)"/>
<use data-text="0" xlink:href="#font_1_1" transform="matrix(8.966787,0,0,-8.9672369,61.858556,140.20693)"/>
<path transform="matrix(1.00005,0,0,-1.0001,16.501122,128.0043)" stroke-width=".79701" stroke-linecap="butt" stroke-miterlimit="10" stroke-linejoin="miter" fill="none" stroke="#000000" d="M68.0326 3.17482V-3.17482"/>
<path transform="matrix(1.00005,0,0,-1.0001,16.501122,128.0043)" d="M73.41246-5.52602H62.65273V-13.09766H73.41246ZM62.65273-13.09766" fill="#ffffff"/>
<use data-text="3" xlink:href="#font_1_4" transform="matrix(8.966787,0,0,-8.9672369,80.05329,140.20693)"/>
<use data-text="0" xlink:href="#font_1_1" transform="matrix(8.966787,0,0,-8.9672369,84.53669,140.20693)"/>
<path transform="matrix(1.00005,0,0,-1.0001,16.501122,128.0043)" stroke-width=".79701" stroke-linecap="butt" stroke-miterlimit="10" stroke-linejoin="miter" fill="none" stroke="#000000" d="M90.71013 3.17482V-3.17482"/>
<path transform="matrix(1.00005,0,0,-1.0001,16.501122,128.0043)" d="M96.09-5.52602H85.33026V-13.09766H96.09ZM85.33026-13.09766" fill="#ffffff"/>
<use data-text="5" xlink:href="#font_1_6" transform="matrix(8.966787,0,0,-8.9672369,102.73242,140.20693)"/>
<use data-text="0" xlink:href="#font_1_1" transform="matrix(8.966787,0,0,-8.9672369,107.21582,140.20693)"/>
<path transform="matrix(1.00005,0,0,-1.0001,16.501122,128.0043)" stroke-width=".79701" stroke-linecap="butt" stroke-miterlimit="10" stroke-linejoin="miter" fill="none" stroke="#000000" d="M113.38766 3.17482V-3.17482"/>
<path transform="matrix(1.00005,0,0,-1.0001,16.501122,128.0043)" d="M121.00914-5.52602H105.76619V-13.09766H121.00914ZM105.76619-13.09766" fill="#ffffff"/>
<use data-text="1" xlink:href="#font_1_2" transform="matrix(8.966787,0,0,-8.9672369,123.16944,140.20693)"/>
<use data-text="0" xlink:href="#font_1_1" transform="matrix(8.966787,0,0,-8.9672369,127.65284,140.20693)"/>
<use data-text="0" xlink:href="#font_1_1" transform="matrix(8.966787,0,0,-8.9672369,132.13623,140.20693)"/>
<path transform="matrix(1.00005,0,0,-1.0001,16.501122,128.0043)" stroke-width=".79701" stroke-linecap="butt" stroke-miterlimit="10" stroke-linejoin="miter" fill="none" stroke="#000000" d="M3.17482 22.67752H-3.17482"/>
<path transform="matrix(1.00005,0,0,-1.0001,16.501122,128.0043)" d="M-5.52603 26.46333H-16.28577V18.89171H-5.52603ZM-16.28577 18.89171" fill="#ffffff"/>
<use data-text="2" xlink:href="#font_1_3" transform="matrix(8.966787,0,0,-8.9672369,1.1113434,108.21373)"/>
<use data-text="0" xlink:href="#font_1_1" transform="matrix(8.966787,0,0,-8.9672369,5.594742,108.21373)"/>
<path transform="matrix(1.00005,0,0,-1.0001,16.501122,128.0043)" stroke-width=".79701" stroke-linecap="butt" stroke-miterlimit="10" stroke-linejoin="miter" fill="none" stroke="#000000" d="M3.17482 45.35506H-3.17482"/>
<path transform="matrix(1.00005,0,0,-1.0001,16.501122,128.0043)" d="M-5.52603 49.14087H-16.28577V41.56924H-5.52603ZM-16.28577 41.56924" fill="#ffffff"/>
<use data-text="2" xlink:href="#font_1_3" transform="matrix(8.966787,0,0,-8.9672369,1.1113434,85.534458)"/>
<use data-text="5" xlink:href="#font_1_6" transform="matrix(8.966787,0,0,-8.9672369,5.594742,85.534458)"/>
<path transform="matrix(1.00005,0,0,-1.0001,16.501122,128.0043)" stroke-width=".79701" stroke-linecap="butt" stroke-miterlimit="10" stroke-linejoin="miter" fill="none" stroke="#000000" d="M3.17482 68.0326H-3.17482"/>
<path transform="matrix(1.00005,0,0,-1.0001,16.501122,128.0043)" d="M-5.52603 71.8184H-16.28577V64.24678H-5.52603ZM-16.28577 64.24678" fill="#ffffff"/>
<use data-text="3" xlink:href="#font_1_4" transform="matrix(8.966787,0,0,-8.9672369,1.1113434,62.85419)"/>
<use data-text="0" xlink:href="#font_1_1" transform="matrix(8.966787,0,0,-8.9672369,5.594742,62.85419)"/>
<path transform="matrix(1.00005,0,0,-1.0001,16.501122,128.0043)" stroke-width=".79701" stroke-linecap="butt" stroke-miterlimit="10" stroke-linejoin="miter" fill="none" stroke="#000000" d="M3.17482 90.71013H-3.17482"/>
<path transform="matrix(1.00005,0,0,-1.0001,16.501122,128.0043)" d="M-5.52603 94.49594H-16.28577V86.92432H-5.52603ZM-16.28577 86.92432" fill="#ffffff"/>
<use data-text="3" xlink:href="#font_1_4" transform="matrix(8.966787,0,0,-8.9672369,1.1113434,40.174928)"/>
<use data-text="5" xlink:href="#font_1_6" transform="matrix(8.966787,0,0,-8.9672369,5.594742,40.174928)"/>
<path transform="matrix(1.00005,0,0,-1.0001,16.501122,128.0043)" stroke-width=".79701" stroke-linecap="butt" stroke-miterlimit="10" stroke-linejoin="miter" fill="none" stroke="#000000" d="M3.17482 113.38766H-3.17482"/>
<path transform="matrix(1.00005,0,0,-1.0001,16.501122,128.0043)" d="M-5.52603 117.17348H-16.28577V109.60185H-5.52603ZM-16.28577 109.60185" fill="#ffffff"/>
<use data-text="4" xlink:href="#font_1_5" transform="matrix(8.966787,0,0,-8.9672369,1.1113434,17.49466)"/>
<use data-text="0" xlink:href="#font_1_1" transform="matrix(8.966787,0,0,-8.9672369,5.594742,17.49466)"/>
</svg>
