<svg xmlns="http://www.w3.org/2000/svg" xmlns:xlink="http://www.w3.org/1999/xlink" version="1.1" width="155" height="256" viewBox="0 0 155 256">
<defs>
<path id="font_1_2" d="M.33399964 .30233766C.33999635 .32835389 .36299134 .42037965 .43299867 .42037965 .43798829 .42037965 .46199037 .42037965 .48298646 .40734864 .45498658 .402359 .43499757 .37734986 .43499757 .35334779 .43499757 .33735658 .44599916 .31835938 .47299195 .31835938 .49499513 .31835938 .5269928 .3363495 .5269928 .37635804 .5269928 .42837525 .46798707 .4423828 .43399049 .4423828 .37599183 .4423828 .34098817 .38935853 .32899476 .36634828 .3039856 .43237306 .25 .4423828 .22099304 .4423828 .116989139 .4423828 .05999756 .3133545 .05999756 .28834535 .05999756 .27833558 .069992069 .27833558 .07199097 .27833558 .07998657 .27833558 .08299255 .28033448 .084991458 .28933717 .11898804 .39535523 .18499756 .42037965 .21899414 .42037965 .23799134 .42037965 .272995 .4113617 .272995 .35334779 .272995 .32235719 .2559967 .25532533 .21899414 .11528015 .20298767 .053268434 .16799927 .011245728 .12399292 .011245728 .117996219 .011245728 .09498596 .011245728 .07398987 .024276734 .09899902 .029266358 .12098694 .05027771 .12098694 .07827759 .12098694 .105270389 .09899902 .11328125 .083999637 .11328125 .053985597 .11328125 .0289917 .08728027 .0289917 .055267335 .0289917 .009246826 .07899475-.0107421879 .12298584-.0107421879 .18899536-.0107421879 .22499085 .059280397 .22799683 .0652771 .23999024 .028274537 .27598573-.0107421879 .33599855-.0107421879 .43899537-.0107421879 .49598695 .118270877 .49598695 .14328003 .49598695 .1532898 .4869995 .1532898 .48399354 .1532898 .47499085 .1532898 .47299195 .14929199 .47099305 .14228821 .43798829 .03527832 .36999513 .011245728 .33799745 .011245728 .29899598 .011245728 .2829895 .043273927 .2829895 .07727051 .2829895 .09927368 .2889862 .121276859 .2999878 .16529846L.33399964 .30233766Z"/>
<path id="font_1_1" d="M.36698915 .3996582H.45298768C.47299195 .3996582 .48298646 .3996582 .48298646 .41966249 .48298646 .43066407 .47299195 .43066407 .45599366 .43066407H.37298585L.3939972 .5449524C.397995 .5660095 .4119873 .6370239 .41799928 .6490326 .4269867 .66804507 .44400025 .68307498 .46499635 .68307498 .46899415 .68307498 .49499513 .68307498 .5139923 .66503909 .46998597 .661026 .45999146 .6260376 .45999146 .6110382 .45999146 .58802798 .47799684 .57603457 .49699403 .57603457 .522995 .57603457 .5519867 .5980377 .5519867 .6360321 .5519867 .6820679 .5059967 .7050781 .46499635 .7050781 .43099977 .7050781 .36799623 .68707278 .33799745 .58802798 .33198548 .56700137 .32899476 .5569763 .30499269 .43066407H.23599243C.21699524 .43066407 .20599365 .43066407 .20599365 .4116516 .20599365 .3996582 .21499634 .3996582 .23399353 .3996582H.2999878L.22499085 .0048828127C.20698548-.09207153 .18998719-.18309021 .13798523-.18309021 .13398743-.18309021 .10899353-.18309021 .08999634-.16506958 .13598633-.1620636 .14498902-.12606812 .14498902-.111068729 .14498902-.08807373 .1269989-.07606506 .10798645-.07606506 .08198547-.07606506 .052993776-.09806824 .052993776-.13606262 .052993776-.18109131 .09700012-.20507813 .13798523-.20507813 .19299317-.20507813 .23298645-.14607239 .25099183-.108062747 .2829895-.04508972 .30599977 .07583618 .30699159 .082839969L.36698915 .3996582Z"/>
<path id="font_2_1" d="M.33099366-.2400055C.33099366-.23701477 .33099366-.23500061 .31399537-.21800232 .18899536-.0920105 .15699768 .09700012 .15699768 .25 .15699768 .42399598 .19499207 .59799197 .31799317 .72299197 .33099366 .73498538 .33099366 .7369995 .33099366 .73999026 .33099366 .746994 .32699586 .75 .32099916 .75 .31098939 .75 .22099304 .6819916 .1619873 .5549927 .11099243 .44499208 .09899902 .33399964 .09899902 .25 .09899902 .17199707 .10998535 .050994874 .16499329-.06201172 .22499085-.18501282 .31098939-.25 .32099916-.25 .32699586-.25 .33099366-.24700928 .33099366-.2400055Z"/>
<path id="font_2_2" d="M.2889862 .25C.2889862 .32798768 .27799989 .44898988 .22299195 .56199648 .16299439 .68499758 .07699585 .75 .066986087 .75 .06098938 .75 .056991579 .74598696 .056991579 .73999026 .056991579 .7369995 .056991579 .73498538 .07598877 .71699526 .17399597 .6179962 .23098755 .45899964 .23098755 .25 .23098755 .07899475 .19400025-.09700012 .069992069-.2230072 .056991579-.23500061 .056991579-.23701477 .056991579-.2400055 .056991579-.2460022 .06098938-.25 .066986087-.25 .07699585-.25 .16699219-.18200684 .22599793-.055007936 .2769928 .054992677 .2889862 .16600037 .2889862 .25Z"/>
<path id="font_2_6" d="M.44898988 .20022583C.44898988 .3193512 .36698915 .41944886 .25898744 .41944886 .21099854 .41944886 .16799927 .40345765 .13198853 .36842347V.5637665C.1519928 .5577698 .18499756 .55078127 .21699524 .55078127 .33999635 .55078127 .4099884 .6417694 .4099884 .6547699 .4099884 .6607666 .40699769 .6657715 .3999939 .6657715 .39898683 .6657715 .39698792 .6657715 .3919983 .66278079 .37199403 .6537781 .32299806 .6337738 .2559967 .6337738 .21598816 .6337738 .16999817 .6407776 .12298584 .6617737 .114990238 .66477969 .11299133 .66477969 .11099243 .66477969 .100997928 .66477969 .100997928 .6567688 .100997928 .6407776V.34439088C.100997928 .32637025 .100997928 .31835938 .114990238 .31835938 .12199402 .31835938 .12399292 .32136537 .12799073 .32736207 .13899231 .3433838 .17599488 .39746095 .25698854 .39746095 .30899049 .39746095 .33399964 .35139466 .34199525 .33337403 .35798646 .29632569 .3600006 .25727845 .3600006 .20722962 .3600006 .17222595 .3600006 .11222839 .33599855 .07035828 .31199647 .031463624 .2749939 .0055389406 .22898865 .0055389406 .1559906 .0055389406 .09899902 .058380128 .08198547 .11723328 .084991458 .1162262 .08799744 .115234378 .09899902 .115234378 .13198853 .115234378 .14898682 .14022827 .14898682 .16423035 .14898682 .18823242 .13198853 .21322632 .09899902 .21322632 .084991458 .21322632 .049987794 .20622254 .049987794 .16023255 .049987794 .07434082 .11898804-.022460938 .23098755-.022460938 .34700013-.022460938 .44898988 .073349 .44898988 .20022583Z"/>
<path id="font_2_3" d="M.45999146 .31976319C.45999146 .39982606 .45498658 .47988893 .41999818 .5539398 .37399293 .65000918 .2919922 .6660156 .25 .6660156 .18998719 .6660156 .116989139 .64001467 .07598877 .54693606 .04399109 .47789 .038986207 .39982606 .038986207 .31976319 .038986207 .24472046 .042999269 .15464783 .083999637 .07859802 .1269989-.0024719239 .19999695-.022460938 .24899292-.022460938 .30299378-.022460938 .3789978-.0014648438 .4229889 .09359741 .45498658 .16265869 .45999146 .2407074 .45999146 .31976319M.24899292-.00047302247C.20999146-.00047302247 .15098572 .024551392 .1329956 .12062073 .12199402 .18066406 .12199402 .2727356 .12199402 .3317871 .12199402 .39582826 .12199402 .46188355 .12998963 .5159149 .14898682 .63500979 .22399903 .64401248 .24899292 .64401248 .28199769 .64401248 .34799195 .6259918 .36698915 .52693179 .3769989 .47088624 .3769989 .39482118 .3769989 .3317871 .3769989 .25672914 .3769989 .18867493 .3659973 .12461853 .35099793 .029556275 .2939911-.00047302247 .24899292-.00047302247Z"/>
<path id="font_2_4" d="M.2939911 .64004519C.2939911 .66400149 .2939911 .6660156 .2709961 .6660156 .20899964 .60227969 .12098694 .60227969 .08898926 .60227969V.57128909C.10899353 .57128909 .16799927 .57128909 .21998596 .5972748V.07902527C.21998596 .042999269 .21699524 .0309906 .1269989 .0309906H.09498596V0C.12998963 .0029907227 .21699524 .0029907227 .25698854 .0029907227 .29699708 .0029907227 .38398744 .0029907227 .4189911 0V.0309906H.3869934C.29699708 .0309906 .2939911 .041992189 .2939911 .07902527V.64004519Z"/>
<path id="font_2_7" d="M.68699648 .32714845C.70199587 .32714845 .72099307 .32714845 .72099307 .34713746 .72099307 .36714173 .70199587 .36714173 .6879883 .36714173H.08898926C.07499695 .36714173 .055999757 .36714173 .055999757 .34713746 .055999757 .32714845 .07499695 .32714845 .08999634 .32714845H.68699648M.6879883 .13284302C.70199587 .13284302 .72099307 .13284302 .72099307 .15284729 .72099307 .17285156 .70199587 .17285156 .68699648 .17285156H.08999634C.07499695 .17285156 .055999757 .17285156 .055999757 .15284729 .055999757 .13284302 .07499695 .13284302 .08898926 .13284302H.6879883Z"/>
<path id="font_2_5" d="M.1269989 .07699585 .23298645 .18003845C.3889923 .31811524 .44898988 .3721466 .44898988 .47216798 .44898988 .5860901 .35899354 .6660156 .23699951 .6660156 .12399292 .6660156 .049987794 .57411196 .049987794 .48516847 .049987794 .4291687 .099990848 .4291687 .102996829 .4291687 .11999512 .4291687 .15499878 .44117738 .15499878 .48217774 .15499878 .5081787 .13699341 .5341797 .101989749 .5341797 .09399414 .5341797 .09199524 .5341797 .08898926 .5331726 .11199951 .59806826 .1659851 .63500979 .22399903 .63500979 .31498719 .63500979 .35798646 .5541382 .35798646 .47216798 .35798646 .39215089 .30799867 .31311036 .25299073 .25108338L.06098938 .036987306C.049987794 .025985718 .049987794 .023986817 .049987794 0H.42099L.44898988 .17404175H.42399598C.4189911 .14402771 .4119873 .1000061 .4019928 .084991458 .394989 .07699585 .32899476 .07699585 .30699159 .07699585H.1269989Z"/>
<path id="font_3_1" d="M.24899292 .10601807C.23899842 .072021488 .20599365 .018234253 .15499878 .018234253 .1519928 .018234253 .12199402 .018234253 .100997928 .03215027 .14199829 .04508972 .14498902 .08100891 .14498902 .087020877 .14498902 .10900879 .12799073 .12402344 .10499573 .12402344 .07699585 .12402344 .04798889 .10002136 .04798889 .0630188 .04798889 .01322937 .10398865-.009765625 .15299988-.009765625 .19898987-.009765625 .23999024 .019226075 .2649994 .061019899 .2889862 .008224487 .34399415-.009765625 .38398744-.009765625 .49899293-.009765625 .55999758 .11502075 .55999758 .14305115 .55999758 .15608216 .5469971 .15608216 .5439911 .15608216 .5299988 .15608216 .5289917 .15107727 .5249939 .13905335 .5039978 .07002258 .44400025 .018234253 .3880005 .018234253 .34799195 .018234253 .32699586 .04508972 .32699586 .08302307 .32699586 .10900879 .35099793 .20018006 .3789978 .31140138 .39898683 .38841249 .44400025 .4133911 .47698976 .4133911 .47898866 .4133911 .5099945 .4133911 .5309906 .39941407 .49899293 .39041139 .4869995 .3624115 .4869995 .34440614 .4869995 .32240296 .5039978 .30740357 .5269928 .30740357 .5499878 .30740357 .58299258 .32640077 .58299258 .3684082 .58299258 .4243927 .5189972 .44140626 .47898866 .44140626 .42900086 .44140626 .3889923 .4084015 .36698915 .3704071 .34899903 .4113922 .30299378 .44140626 .24699402 .44140626 .1349945 .44140626 .070999149 .31840516 .070999149 .2883606 .070999149 .27534486 .084991458 .27534486 .08799744 .27534486 .100997928 .27534486 .101989749 .27934266 .10699463 .29237367 .13198853 .3704071 .19499207 .4133911 .24398804 .4133911 .2769928 .4133911 .3039856 .395401 .3039856 .3474121 .3039856 .32740785 .2919922 .27734376 .2829895 .24327088L.24899292 .10601807Z"/>
<path id="font_4_1" d="M.74398806 .2263794C.7599945 .2263794 .7839966 .2263794 .7839966 .25038148 .7839966 .27539063 .7609863 .27539063 .74398806 .27539063H.147995C.13198853 .27539063 .10798645 .27539063 .10798645 .25138856 .10798645 .2263794 .1309967 .2263794 .147995 .2263794H.74398806Z"/>
<path id="font_5_1" d="M.33499146 .63612368C.33499146 .6630554 .33299256 .6640625 .30499269 .6640625 .24099732 .6014404 .1499939 .6004486 .10899353 .6004486V.5644531C.1329956 .5644531 .19898987 .5644531 .2539978 .592453V.08203125C.2539978 .04899597 .2539978 .035995485 .1539917 .035995485H.115997318V0C.13398743 .0009918213 .25698854 .0039978029 .2939911 .0039978029 .32499696 .0039978029 .45098878 .0009918213 .47299195 0V.035995485H.43499757C.33499146 .035995485 .33499146 .04899597 .33499146 .08203125V.63612368Z"/>
<path id="font_6_85" d="M.33099366-.2400055C.33099366-.23701477 .33099366-.23500061 .31399537-.21800232 .18899536-.0920105 .15699768 .09700012 .15699768 .25 .15699768 .42399598 .19499207 .59799197 .31799317 .72299197 .33099366 .7350006 .33099366 .7369995 .33099366 .73999026 .33099366 .746994 .32699586 .75 .32099916 .75 .31098939 .75 .22099304 .6819916 .1619873 .5549927 .11099243 .44499208 .09899902 .33399964 .09899902 .25 .09899902 .17199707 .10998535 .050994874 .16499329-.06201172 .22499085-.18501282 .31098939-.25 .32099916-.25 .32699586-.25 .33099366-.24700928 .33099366-.2400055Z"/>
<path id="font_6_28" d="M.48298646 .08912659V.14511109H.45799256V.08912659C.45799256 .03112793 .43299867 .025131226 .42199708 .025131226 .3889923 .025131226 .3849945 .070129398 .3849945 .07511902V.27508546C.3849945 .31707765 .3849945 .3560791 .34899903 .39312745 .30999757 .43223573 .2599945 .4482422 .21199036 .4482422 .12998963 .4482422 .06098938 .40115357 .06098938 .335083 .06098938 .30508424 .08099365 .28808595 .10699463 .28808595 .1349945 .28808595 .15299988 .30807496 .15299988 .33407594 .15299988 .3460846 .147995 .37908937 .101989749 .38008119 .1289978 .41519166 .17799378 .426239 .20999146 .426239 .25898744 .426239 .31599427 .38710023 .31599427 .29808045V.26107789C.2649994 .25808717 .19499207 .25508119 .13198853 .22509766 .056991579 .19110108 .03199768 .13911438 .03199768 .09512329 .03199768 .014251709 .1289978-.0107421879 .19198609-.0107421879 .2579956-.0107421879 .3039856 .029251099 .32299806 .07624817 .32699586 .036132814 .35398866-.005859375 .40098573-.005859375 .42199708-.005859375 .48298646 .008132935 .48298646 .08912659M.31599427 .14013672C.31599427 .04525757 .24398804 .011245728 .19898987 .011245728 .1499939 .011245728 .10899353 .04624939 .10899353 .09625244 .10899353 .15124512 .15098572 .23425293 .31599427 .24024964V.14013672Z"/>
<path id="font_6_86" d="M.2889862 .25C.2889862 .32798768 .27799989 .44898988 .22299195 .56199648 .16299439 .68499758 .07699585 .75 .066986087 .75 .06098938 .75 .056991579 .74598696 .056991579 .73999026 .056991579 .7369995 .056991579 .7350006 .07598877 .71699526 .17399597 .6179962 .23098755 .45899964 .23098755 .25 .23098755 .07899475 .19400025-.09700012 .069992069-.2230072 .056991579-.23500061 .056991579-.23701477 .056991579-.2400055 .056991579-.2460022 .06098938-.25 .066986087-.25 .07699585-.25 .16699219-.18200684 .22599793-.055007936 .2769928 .054992677 .2889862 .16600037 .2889862 .25Z"/>
</defs>
<path transform="matrix(1.00002,0,0,-1,35.510354,215.158)" stroke-width=".3985" stroke-linecap="butt" stroke-miterlimit="10" stroke-linejoin="miter" fill="none" stroke="#00aeef" d="M-34.01564-22.6771H102.04694M-34.01564-11.33855H102.04694M-34.01564 0H102.04694M-34.01564 11.33855H102.04694M-34.01564 22.6771H102.04694M-34.01564 34.01564H102.04694M-34.01564 45.35419H102.04694M-34.01564 56.69275H102.04694M-34.01564 68.0313H102.04694M-34.01564 79.36984H102.04694M-34.01564 90.70839H102.04694M-34.01564 102.04694H102.04694M-34.01564 113.3855H102.04694M-34.01564 124.72404H102.04694M-34.01564 136.06259H102.04694M-34.01564 147.40114H102.04694M-34.01564 158.7397H102.04694M-34.01564 170.07825H102.04694M-34.01564 181.4168H102.04694M-34.01564 192.75136H102.04694M-34.01564-22.6771V192.75534M-22.6771-22.6771V192.75534M-11.33855-22.6771V192.75534M0-22.6771V192.75534M11.33855-22.6771V192.75534M22.6771-22.6771V192.75534M34.01564-22.6771V192.75534M45.35419-22.6771V192.75534M56.69275-22.6771V192.75534M68.0313-22.6771V192.75534M79.36984-22.6771V192.75534M90.70839-22.6771V192.75534M102.04295-22.6771V192.75534M102.04694 192.75534"/>
<path transform="matrix(1.00002,0,0,-1,35.510354,215.158)" stroke-width=".79701" stroke-linecap="butt" stroke-miterlimit="10" stroke-linejoin="miter" fill="none" stroke="#000000" d="M-34.01564 0H107.41553"/>
<path transform="matrix(1.00002,0,0,-1,142.92804,215.158)" d="M1.0361 0C-.25902 .25902-1.55415 .77707-3.1083 1.68365-1.55415 .51805-1.55415-.51805-3.1083-1.68365-1.55415-.77707-.25902-.25902 1.0361 0Z"/>
<path transform="matrix(1.00002,0,0,-1,142.92804,215.158)" stroke-width=".79701" stroke-linecap="butt" stroke-linejoin="round" fill="none" stroke="#000000" d="M1.0361 0C-.25902 .25902-1.55415 .77707-3.1083 1.68365-1.55415 .51805-1.55415-.51805-3.1083-1.68365-1.55415-.77707-.25902-.25902 1.0361 0Z"/>
<use data-text="x" xlink:href="#font_1_2" transform="matrix(9.962799,0,0,-9.9626,148.0816,217.30301)"/>
<path transform="matrix(1.00002,0,0,-1,35.510354,215.158)" stroke-width=".79701" stroke-linecap="butt" stroke-miterlimit="10" stroke-linejoin="miter" fill="none" stroke="#000000" d="M0-22.6771V198.12395"/>
<path transform="matrix(0,-1,-1.00002,-0,35.510354,17.034058)" d="M1.0361 0C-.25902 .25902-1.55415 .77707-3.1083 1.68365-1.55415 .51805-1.55415-.51805-3.1083-1.68365-1.55415-.77707-.25902-.25902 1.0361 0Z"/>
<path transform="matrix(0,-1,-1.00002,-0,35.510354,17.034058)" stroke-width=".79701" stroke-linecap="butt" stroke-linejoin="round" fill="none" stroke="#000000" d="M1.0361 0C-.25902 .25902-1.55415 .77707-3.1083 1.68365-1.55415 .51805-1.55415-.51805-3.1083-1.68365-1.55415-.77707-.25902-.25902 1.0361 0Z"/>
<use data-text="f" xlink:href="#font_1_1" transform="matrix(9.962799,0,0,-9.9626,25.814156,9.389999)"/>
<use data-text="(" xlink:href="#font_2_1" transform="matrix(9.962799,0,0,-9.9626,31.764275,9.389999)"/>
<use data-text="x" xlink:href="#font_1_2" transform="matrix(9.962799,0,0,-9.9626,35.63835,9.389999)"/>
<use data-text=")" xlink:href="#font_2_2" transform="matrix(9.962799,0,0,-9.9626,41.332475,9.389999)"/>
<path transform="matrix(1.00002,0,0,-1,35.510354,215.158)" stroke-width=".79701" stroke-linecap="butt" stroke-miterlimit="10" stroke-linejoin="miter" fill="none" stroke="#000000" d="M56.69275 1.7007V-1.70087"/>
<path transform="matrix(1.00002,0,0,-1,35.510354,215.158)" d="M53.20578-12.50491H60.179719V-4.0919306H53.20578Z" fill="#ffffff"/>
<use data-text="5" xlink:href="#font_2_6" transform="matrix(9.962799,0,0,-9.9626,89.71344,226.667)"/>
<path transform="matrix(1.00002,0,0,-1,35.510354,215.158)" stroke-width=".79701" stroke-linecap="butt" stroke-miterlimit="10" stroke-linejoin="miter" fill="none" stroke="#000000" d="M1.58737 56.69275H-1.58739"/>
<path transform="matrix(1.00002,0,0,-1,35.510354,215.158)" d="M-3.9386 60.47858H-19.18155V52.90694H-3.9386ZM-19.18155 52.90694" fill="#ffffff"/>
<use data-text="5" xlink:href="#font_2_6" transform="matrix(8.966518,0,0,-8.966339,17.224984,161.3542)"/>
<use data-text="0" xlink:href="#font_2_3" transform="matrix(8.966518,0,0,-8.966339,21.708245,161.3542)"/>
<use data-text="0" xlink:href="#font_2_3" transform="matrix(8.966518,0,0,-8.966339,26.191498,161.3542)"/>
<path transform="matrix(1.00002,0,0,-1,35.510354,215.158)" stroke-width=".79701" stroke-linecap="butt" stroke-miterlimit="10" stroke-linejoin="miter" fill="none" stroke="#000000" d="M1.58737 113.3855H-1.58739"/>
<path transform="matrix(1.00002,0,0,-1,35.510354,215.158)" d="M-3.9386 117.17133H-23.6648V109.59969H-3.9386ZM-23.6648 109.59969" fill="#ffffff"/>
<use data-text="1" xlink:href="#font_2_4" transform="matrix(8.966518,0,0,-8.966339,12.741898,104.6612)"/>
<use data-text="0" xlink:href="#font_2_3" transform="matrix(8.966518,0,0,-8.966339,17.225159,104.6612)"/>
<use data-text="0" xlink:href="#font_2_3" transform="matrix(8.966518,0,0,-8.966339,21.708413,104.6612)"/>
<use data-text="0" xlink:href="#font_2_3" transform="matrix(8.966518,0,0,-8.966339,26.191674,104.6612)"/>
<path transform="matrix(1.00002,0,0,-1,35.510354,215.158)" stroke-width=".79701" stroke-linecap="butt" stroke-miterlimit="10" stroke-linejoin="miter" fill="none" stroke="#000000" d="M1.58737 170.07825H-1.58739"/>
<path transform="matrix(1.00002,0,0,-1,35.510354,215.158)" d="M-3.9386 173.86408H-23.6648V166.29245H-3.9386ZM-23.6648 166.29245" fill="#ffffff"/>
<use data-text="1" xlink:href="#font_2_4" transform="matrix(8.966518,0,0,-8.966339,12.741898,47.969194)"/>
<use data-text="5" xlink:href="#font_2_6" transform="matrix(8.966518,0,0,-8.966339,17.225159,47.969194)"/>
<use data-text="0" xlink:href="#font_2_3" transform="matrix(8.966518,0,0,-8.966339,21.708413,47.969194)"/>
<use data-text="0" xlink:href="#font_2_3" transform="matrix(8.966518,0,0,-8.966339,26.191674,47.969194)"/>
<path transform="matrix(1.00002,0,0,-1,35.510354,215.158)" stroke-width="1.19553" stroke-linecap="butt" stroke-miterlimit="10" stroke-linejoin="miter" fill="none" stroke="#ff0000" d="M-32.14459 .79167C-32.98036 .75462-32.98036 .75462-32.58275 .77335-32.18513 .79208-31.54747 .82297-31.14986 .8436-30.75224 .86421-30.11458 .89944-29.71696 .92197-29.31935 .94447-28.68169 .98149-28.28407 1.00587-27.88646 1.03026-27.2488 1.071-26.85118 1.09775-26.45357 1.12448-25.81592 1.16936-25.41829 1.19861-25.02069 1.22787-24.38303 1.27687-23.9854 1.30865-23.5878 1.34042-22.95013 1.3929-22.55252 1.42769-22.1549 1.46246-21.51724 1.52126-21.11963 1.55936-20.722 1.59743-20.08435 1.66087-19.68674 1.70226-19.28911 1.74364-18.65147 1.81247-18.25385 1.85762-17.85623 1.90276-17.21857 1.97829-16.82095 2.0277-16.42334 2.07709-15.78568 2.1597-15.38806 2.21367-14.99045 2.26765-14.35278 2.35794-13.95518 2.4168-13.55756 2.47565-12.91989 2.57385-12.5223 2.6379-12.12466 2.70195-11.48701 2.80838-11.0894 2.8784-10.69179 2.94841-10.05412 3.06613-9.65651 3.14258-9.2589 3.21902-8.62123 3.34605-8.2236 3.42944-7.826 3.51283-7.18834 3.65236-6.79073 3.74364-6.39311 3.83488-5.75545 3.98761-5.35783 4.08722-4.96022 4.18684-4.32256 4.35303-3.92494 4.46164-3.52733 4.57022-2.88968 4.75145-2.49205 4.86993-2.09445 4.98843-1.45679 5.18628-1.05916 5.31563-.66154 5.44496-.02391 5.66098 .37369 5.80212 .77132 5.94328 1.40895 6.1789 1.80658 6.33293 2.2042 6.48697 2.84184 6.74416 3.23947 6.91235 3.63708 7.08055 4.27475 7.3616 4.67235 7.54524 5.06998 7.72888 5.70764 8.03545 6.10524 8.23589 6.50287 8.43636 7.14053 8.77132 7.53813 8.99007 7.93576 9.20879 8.57341 9.57352 8.97102 9.81238 9.36864 10.05127 10.0063 10.45135 10.40392 10.7117 10.80153 10.97206 11.4392 11.40488 11.8368 11.68889 12.23442 11.97289 12.87209 12.44817 13.2697 12.75862 13.66731 13.06908 14.30498 13.58759 14.70259 13.92647 15.1002 14.26534 15.73785 14.8311 16.13548 15.20105 16.5331 15.57097 17.17075 16.18892 17.56837 16.59276 17.96597 16.9966 18.60364 17.67093 19.00127 18.11163 19.39886 18.55234 20.03653 19.28809 20.43414 19.76909 20.83177 20.2501 21.46942 21.05331 21.86703 21.57846 22.26466 22.10359 22.9023 22.9807 23.29993 23.55391 23.69756 24.12712 24.3352 25.0842 24.73282 25.70982 25.13043 26.33545 25.7681 27.3801 26.16571 28.06297 26.56332 28.74583 27.20099 29.88611 27.59859 30.6315 27.99622 31.37692 28.63388 32.62164 29.03148 33.43535 29.42911 34.24905 30.06676 35.60788 30.46437 36.49611 30.862 37.38435 31.49965 38.86768 31.89726 39.83716 32.29488 40.80663 32.93254 42.4254 33.33017 43.4834 33.72777 44.5414 34.36543 46.30759 34.76305 47.46251 35.16066 48.61746 35.79832 50.54666 36.19594 51.80737 36.59355 53.0681 37.23122 55.17279 37.62883 56.54897 38.02644 57.92513 38.6641 60.2237 39.06172 61.72585 39.45932 63.22798 40.09698 65.73582 40.49461 67.37538 40.89223 69.01497 41.52988 71.75299 41.92749 73.54277 42.32512 75.33255 42.96277 78.3213 43.36038 80.27487 43.75801 82.22844 44.39566 85.49045 44.79327 87.62271 45.1909 89.75496 45.82855 93.31528 46.22617 95.6427 46.6238 97.97012 47.26144 101.85645 47.65906 104.39714 48.05667 106.93785 48.69434 111.18106 49.09195 113.95436 49.48956 116.72766 50.12723 121.35828 50.52483 124.38512 50.92245 127.41194 51.56012 132.46556 51.95772 135.76969 52.35535 139.0738 52.993 144.59227 53.39063 148.19892 53.78824 151.80554 54.42589 157.82735 54.82352 161.7638 55.22112 165.70023 55.85878 172.2737 56.25641 176.57 56.654 180.86635 57.68929 192.7287 57.5265 190.86284"/>
<path transform="matrix(-.99898007,.04433,.044330889,.99896,3.36512,214.36634)" d="M1.27522 0C-.31879 .31879-1.91284 .9564-3.8257 2.07224-1.91284 .6376-1.91284-.6376-3.8257-2.07224-1.91284-.9564-.31879-.31879 1.27522 0Z" fill="#ff0000"/>
<path transform="matrix(-.99898007,.04433,.044330889,.99896,3.36512,214.36634)" stroke-width="1.19553" stroke-linecap="butt" stroke-linejoin="round" fill="none" stroke="#ff0000" d="M1.27522 0C-.31879 .31879-1.91284 .9564-3.8257 2.07224-1.91284 .6376-1.91284-.6376-3.8257-2.07224-1.91284-.9564-.31879-.31879 1.27522 0Z"/>
<path transform="matrix(.086911749,-.9962,-.99622,-.08691,93.03801,24.295182)" d="M1.27522 0C-.31879 .31879-1.91284 .9564-3.8257 2.07224-1.91284 .6376-1.91284-.6376-3.8257-2.07224-1.91284-.9564-.31879-.31879 1.27522 0Z" fill="#ff0000"/>
<path transform="matrix(.086911749,-.9962,-.99622,-.08691,93.03801,24.295182)" stroke-width="1.19553" stroke-linecap="butt" stroke-linejoin="round" fill="none" stroke="#ff0000" d="M1.27522 0C-.31879 .31879-1.91284 .9564-3.8257 2.07224-1.91284 .6376-1.91284-.6376-3.8257-2.07224-1.91284-.9564-.31879-.31879 1.27522 0Z"/>
<path transform="matrix(1.00002,0,0,-1,35.510354,215.158)" d="M30.52397 15.38434H110.073978V29.969841H30.52397Z" fill="#ffffff"/>
<use data-text="f" xlink:href="#font_1_1" transform="matrix(9.962799,0,0,-9.9626,68.028,195.29001)"/>
<use data-text="(" xlink:href="#font_2_1" transform="matrix(9.962799,0,0,-9.9626,73.97812,195.29001)"/>
<use data-text="x" xlink:href="#font_1_2" transform="matrix(9.962799,0,0,-9.9626,77.8522,195.29001)"/>
<use data-text=")" xlink:href="#font_2_2" transform="matrix(9.962799,0,0,-9.9626,83.546329,195.29001)"/>
<use data-text="=" xlink:href="#font_2_7" transform="matrix(9.962799,0,0,-9.9626,90.171588,195.29001)"/>
<use data-text="1" xlink:href="#font_2_4" transform="matrix(9.962799,0,0,-9.9626,100.68234,195.29001)"/>
<use data-text="0" xlink:href="#font_2_3" transform="matrix(9.962799,0,0,-9.9626,105.66374,195.29001)"/>
<use data-text="0" xlink:href="#font_2_3" transform="matrix(9.962799,0,0,-9.9626,110.64513,195.29001)"/>
<use data-text="(" xlink:href="#font_2_1" transform="matrix(9.962799,0,0,-9.9626,115.626529,195.29001)"/>
<use data-text="2" xlink:href="#font_2_5" transform="matrix(9.962799,0,0,-9.9626,119.492099,195.29001)"/>
<use data-text=")" xlink:href="#font_2_2" transform="matrix(9.962799,0,0,-9.9626,124.47348,195.29001)"/>
<use data-text="x" xlink:href="#font_3_1" transform="matrix(6.97394,0,0,-6.9738,128.37921,191.675)"/>
<use data-text="&#x2212;" xlink:href="#font_4_1" transform="matrix(6.97394,0,0,-6.9738,132.89731,191.675)"/>
<use data-text="1" xlink:href="#font_5_1" transform="matrix(6.97394,0,0,-6.9738,139.12345,191.675)"/>
<use data-text="(" xlink:href="#font_6_85" transform="matrix(9.962799,0,0,-9.9626,68.83002,251.664)"/>
<use data-text="a" xlink:href="#font_6_28" transform="matrix(9.962799,0,0,-9.9626,72.70555,251.664)"/>
<use data-text=")" xlink:href="#font_6_86" transform="matrix(9.962799,0,0,-9.9626,77.68695,251.664)"/>
</svg>
