<svg xmlns="http://www.w3.org/2000/svg" xmlns:xlink="http://www.w3.org/1999/xlink" version="1.1" width="194" height="138" viewBox="0 0 194 138">
<defs>
<path id="font_1_2" d="M.33399964 .30233766C.33999635 .32835389 .36299134 .42037965 .43299867 .42037965 .43798829 .42037965 .46199037 .42037965 .48298646 .40734864 .45498658 .402359 .43499757 .37734986 .43499757 .35334779 .43499757 .33735658 .44599916 .31835938 .47299195 .31835938 .49499513 .31835938 .5269928 .3363495 .5269928 .37635804 .5269928 .42837525 .46798707 .4423828 .43399049 .4423828 .37599183 .4423828 .34098817 .38935853 .32899476 .36634828 .3039856 .43237306 .25 .4423828 .22099304 .4423828 .116989139 .4423828 .05999756 .3133545 .05999756 .28834535 .05999756 .27833558 .069992069 .27833558 .07199097 .27833558 .07998657 .27833558 .08299255 .28033448 .084991458 .28933717 .11898804 .39535523 .18499756 .42037965 .21899414 .42037965 .23799134 .42037965 .272995 .4113617 .272995 .35334779 .272995 .32235719 .2559967 .25532533 .21899414 .11528015 .20298767 .053268434 .16799927 .011245728 .12399292 .011245728 .117996219 .011245728 .09498596 .011245728 .07398987 .024276734 .09899902 .029266358 .12098694 .05027771 .12098694 .07827759 .12098694 .105270389 .09899902 .11328125 .083999637 .11328125 .053985597 .11328125 .0289917 .08728027 .0289917 .055267335 .0289917 .009246826 .07899475-.0107421879 .12298584-.0107421879 .18899536-.0107421879 .22499085 .059280397 .22799683 .0652771 .23999024 .028274537 .27598573-.0107421879 .33599855-.0107421879 .43899537-.0107421879 .49598695 .118270877 .49598695 .14328003 .49598695 .1532898 .4869995 .1532898 .48399354 .1532898 .47499085 .1532898 .47299195 .14929199 .47099305 .14228821 .43798829 .03527832 .36999513 .011245728 .33799745 .011245728 .29899598 .011245728 .2829895 .043273927 .2829895 .07727051 .2829895 .09927368 .2889862 .121276859 .2999878 .16529846L.33399964 .30233766Z"/>
<path id="font_1_3" d="M.48599244 .38136292C.48999024 .39537049 .48999024 .39736939 .48999024 .40437318 .48999024 .42237855 .47599793 .43138124 .46099855 .43138124 .45098878 .43138124 .43499757 .42536927 .42599488 .41036988 .42399598 .405365 .41600038 .37435914 .4119873 .35635377 .40499879 .33035279 .397995 .30334474 .3919983 .27633668L.34700013 .09628296C.34298707 .08126831 .2999878 .011245728 .23399353 .011245728 .18299866 .011245728 .17199707 .055267335 .17199707 .0922699 .17199707 .1382904 .18899536 .20030213 .22299195 .28833009 .23899842 .3293457 .24299622 .3403473 .24299622 .36035157 .24299622 .405365 .21099854 .4423828 .16099549 .4423828 .06599426 .4423828 .0289917 .29733277 .0289917 .28833009 .0289917 .27833558 .038986207 .27833558 .040985109 .27833558 .050994874 .27833558 .051986696 .28033448 .056991579 .29634095 .083999637 .3903656 .12399292 .42037965 .1579895 .42037965 .1659851 .42037965 .18299866 .42037965 .18299866 .3883667 .18299866 .36335755 .17298889 .3373413 .1659851 .31834413 .12599182 .21231079 .10798645 .1552887 .10798645 .10827637 .10798645 .019256592 .17098999-.0107421879 .22999573-.0107421879 .2689972-.0107421879 .30299378 .0062561037 .33099366 .03425598 .31799317-.017745972 .30599977-.06674194 .2659912-.11973572 .23999024-.15385437 .20199585-.18309021 .1559906-.18309021 .14199829-.18309021 .09700012-.18005371 .07998657-.14074707 .09599304-.14074707 .10899353-.14074707 .12298584-.1287384 .1329956-.11973572 .14299011-.10673523 .14299011-.08773804 .14299011-.056747438 .115997318-.052734376 .10598755-.052734376 .08299255-.052734376 .049987794-.068740848 .049987794-.11773682 .049987794-.16796875 .09399414-.20507813 .1559906-.20507813 .25898744-.20507813 .3619995-.11373901 .3899994-.00074768069L.48599244 .38136292Z"/>
<path id="font_2_1" d="M.6589966 .23046875C.6759949 .23046875 .69400027 .23046875 .69400027 .25045777 .69400027 .27046205 .6759949 .27046205 .6589966 .27046205H.117996219C.100997928 .27046205 .08299255 .27046205 .08299255 .25045777 .08299255 .23046875 .100997928 .23046875 .117996219 .23046875H.6589966Z"/>
<path id="font_3_4" d="M.2899933 .35191346C.37199403 .37893678 .42999269 .4490509 .42999269 .52809146 .42999269 .6100464 .34199525 .6660156 .24598694 .6660156 .14498902 .6660156 .068984989 .60606387 .068984989 .53009036 .068984989 .49710084 .09098816 .47808839 .11999512 .47808839 .15098572 .47808839 .17098999 .50009158 .17098999 .5290985 .17098999 .57910159 .12399292 .57910159 .10899353 .57910159 .13999939 .62802127 .20599365 .64100649 .24198914 .64100649 .2829895 .64100649 .33799745 .6190338 .33799745 .5290985 .33799745 .51708987 .33599855 .45906068 .30999757 .4149933 .27999879 .36691285 .24598694 .36390687 .22099304 .36291505 .21299744 .36190797 .18899536 .35990907 .18199158 .35990907 .17399597 .35890199 .16699219 .35791017 .16699219 .3479004 .16699219 .33691407 .17399597 .33691407 .19099427 .33691407H.23498535C.31698609 .33691407 .35398866 .2686615 .35398866 .17037964 .35398866 .034469606 .2849884 .0055389406 .24099732 .0055389406 .19799805 .0055389406 .12298584 .022491456 .08799744 .08137512 .12298584 .07637024 .1539917 .09837341 .1539917 .1363678 .1539917 .17237854 .1269989 .19238281 .09799194 .19238281 .07398987 .19238281 .041992189 .17837525 .041992189 .1343689 .041992189 .043441774 .1349945-.022460938 .24398804-.022460938 .3659973-.022460938 .45700074 .06838989 .45700074 .17037964 .45700074 .252594 .3939972 .33088685 .2899933 .35191346Z"/>
<path id="font_3_6" d="M.44898988 .20022583C.44898988 .3193512 .36698915 .41944886 .25898744 .41944886 .21099854 .41944886 .16799927 .40345765 .13198853 .36842347V.5637665C.1519928 .5577698 .18499756 .55078127 .21699524 .55078127 .33999635 .55078127 .4099884 .6417694 .4099884 .6547699 .4099884 .6607666 .40699769 .6657715 .3999939 .6657715 .39898683 .6657715 .39698792 .6657715 .3919983 .66278079 .37199403 .6537781 .32299806 .6337738 .2559967 .6337738 .21598816 .6337738 .16999817 .6407776 .12298584 .6617737 .114990238 .66477969 .11299133 .66477969 .11099243 .66477969 .100997928 .66477969 .100997928 .6567688 .100997928 .6407776V.34439088C.100997928 .32637025 .100997928 .31835938 .114990238 .31835938 .12199402 .31835938 .12399292 .32136537 .12799073 .32736207 .13899231 .3433838 .17599488 .39746095 .25698854 .39746095 .30899049 .39746095 .33399964 .35139466 .34199525 .33337403 .35798646 .29632569 .3600006 .25727845 .3600006 .20722962 .3600006 .17222595 .3600006 .11222839 .33599855 .07035828 .31199647 .031463624 .2749939 .0055389406 .22898865 .0055389406 .1559906 .0055389406 .09899902 .058380128 .08198547 .11723328 .084991458 .1162262 .08799744 .115234378 .09899902 .115234378 .13198853 .115234378 .14898682 .14022827 .14898682 .16423035 .14898682 .18823242 .13198853 .21322632 .09899902 .21322632 .084991458 .21322632 .049987794 .20622254 .049987794 .16023255 .049987794 .07434082 .11898804-.022460938 .23098755-.022460938 .34700013-.022460938 .44898988 .073349 .44898988 .20022583Z"/>
<path id="font_3_7" d="M.16299439 .4569702C.116989139 .486969 .11299133 .52098086 .11299133 .5379791 .11299133 .598999 .17799378 .64100649 .24899292 .64100649 .32199098 .64100649 .38598634 .58898928 .38598634 .51698306 .38598634 .45996095 .34700013 .4119568 .2869873 .37695313L.16299439 .4569702M.30899049 .36193849C.3809967 .3989563 .42999269 .45095826 .42999269 .51698306 .42999269 .6090088 .34098817 .6660156 .25 .6660156 .1499939 .6660156 .068984989 .59199526 .068984989 .49897767 .068984989 .4809723 .070999149 .43595887 .11299133 .38894654 .12399292 .37695313 .16099549 .35194398 .18598938 .33494569 .12799073 .30592347 .041992189 .24984741 .041992189 .15072632 .041992189 .04458618 .14399719-.022460938 .24899292-.022460938 .3619995-.022460938 .45700074 .06060791 .45700074 .16773987 .45700074 .20379639 .44599916 .24885559 .4079895 .2909088 .3889923 .31193543 .37298585 .3219452 .30899049 .36193849M.20899964 .3199463 .33198548 .24183655C.3600006 .2228241 .40699769 .19277954 .40699769 .13169861 .40699769 .05760193 .33198548 .0055389406 .25 .0055389406 .1639862 .0055389406 .09199524 .067611698 .09199524 .15072632 .09199524 .20880127 .12399292 .27288819 .20899964 .3199463Z"/>
<path id="font_3_5" d="M.2939911 .16503906V.07800293C.2939911 .041992189 .2919922 .0309906 .21798706 .0309906H.19699097V0C.23799134 .0029907227 .2899933 .0029907227 .33198548 .0029907227 .37399293 .0029907227 .4269867 .0029907227 .46798707 0V.0309906H.44699098C.37298585 .0309906 .37098695 .041992189 .37098695 .07800293V.16503906H.47099305V.19602967H.37098695V.65075686C.37098695 .67074587 .37098695 .6767578 .35499574 .6767578 .34599305 .6767578 .34298707 .6767578 .33499146 .66474917L.027999878 .19602967V.16503906H.2939911M.2999878 .19602967H.055999757L.2999878 .5688019V.19602967Z"/>
<path id="font_1_1" d="M.47099305 .3773346C.47200013 .3833313 .47399903 .38833619 .47399903 .39535523 .47399903 .41236878 .46199037 .42237855 .44499208 .42237855 .43499757 .42237855 .4079895 .41537477 .4039917 .3793335 .38598634 .41636659 .35099793 .4423828 .31098939 .4423828 .19699097 .4423828 .07299805 .30226136 .07299805 .15812683 .07299805 .059020997 .13398743 0 .20599365 0 .2649994 0 .31199647 .04701233 .32199098 .058029176L.32299806 .057022096C.3019867-.031982423 .2899933-.07295227 .2899933-.07495117 .28599549-.08395386 .2519989-.18309021 .1459961-.18309021 .1269989-.18309021 .09399414-.18206787 .06599426-.17297364 .09599304-.16394043 .10699463-.13793946 .10699463-.12094116 .10699463-.10494995 .09599304-.0859375 .068984989-.0859375 .04699707-.0859375 .01499939-.10394287 .01499939-.14395142 .01499939-.18508911 .051986696-.20507813 .147995-.20507813 .272995-.20507813 .34498597-.12693787 .3600006-.06695557L.47099305 .3773346M.34098817 .12809754C.33499146 .10206604 .31199647 .077041629 .2899933 .058029176 .2689972 .040008546 .23799134 .021987915 .20899964 .021987915 .15899658 .021987915 .14399719 .074035648 .14399719 .11407471 .14399719 .16212464 .17298889 .28024293 .19999695 .33128358 .22698975 .38034059 .269989 .42037965 .31199647 .42037965 .37799073 .42037965 .3919983 .33929444 .3919983 .33428956 .3919983 .32928468 .3899994 .3232727 .3889923 .3192749L.34098817 .12809754Z"/>
<path id="font_3_1" d="M.33099366-.2400055C.33099366-.23701477 .33099366-.23500061 .31399537-.21800232 .18899536-.0920105 .15699768 .09700012 .15699768 .25 .15699768 .42399598 .19499207 .59799197 .31799317 .72299197 .33099366 .73498538 .33099366 .7369995 .33099366 .73999026 .33099366 .746994 .32699586 .75 .32099916 .75 .31098939 .75 .22099304 .6819916 .1619873 .5549927 .11099243 .44499208 .09899902 .33399964 .09899902 .25 .09899902 .17199707 .10998535 .050994874 .16499329-.06201172 .22499085-.18501282 .31098939-.25 .32099916-.25 .32699586-.25 .33099366-.24700928 .33099366-.2400055Z"/>
<path id="font_3_2" d="M.2889862 .25C.2889862 .32798768 .27799989 .44898988 .22299195 .56199648 .16299439 .68499758 .07699585 .75 .066986087 .75 .06098938 .75 .056991579 .74598696 .056991579 .73999026 .056991579 .7369995 .056991579 .73498538 .07598877 .71699526 .17399597 .6179962 .23098755 .45899964 .23098755 .25 .23098755 .07899475 .19400025-.09700012 .069992069-.2230072 .056991579-.23500061 .056991579-.23701477 .056991579-.2400055 .056991579-.2460022 .06098938-.25 .066986087-.25 .07699585-.25 .16699219-.18200684 .22599793-.055007936 .2769928 .054992677 .2889862 .16600037 .2889862 .25Z"/>
<path id="font_3_8" d="M.68699648 .32714845C.70199587 .32714845 .72099307 .32714845 .72099307 .34713746 .72099307 .36714173 .70199587 .36714173 .6879883 .36714173H.08898926C.07499695 .36714173 .055999757 .36714173 .055999757 .34713746 .055999757 .32714845 .07499695 .32714845 .08999634 .32714845H.68699648M.6879883 .13284302C.70199587 .13284302 .72099307 .13284302 .72099307 .15284729 .72099307 .17285156 .70199587 .17285156 .68699648 .17285156H.08999634C.07499695 .17285156 .055999757 .17285156 .055999757 .15284729 .055999757 .13284302 .07499695 .13284302 .08898926 .13284302H.6879883Z"/>
<path id="font_3_3" d="M.2939911 .64004519C.2939911 .66400149 .2939911 .6660156 .2709961 .6660156 .20899964 .60227969 .12098694 .60227969 .08898926 .60227969V.57128909C.10899353 .57128909 .16799927 .57128909 .21998596 .5972748V.07902527C.21998596 .042999269 .21699524 .0309906 .1269989 .0309906H.09498596V0C.12998963 .0029907227 .21699524 .0029907227 .25698854 .0029907227 .29699708 .0029907227 .38398744 .0029907227 .4189911 0V.0309906H.3869934C.29699708 .0309906 .2939911 .041992189 .2939911 .07902527V.64004519Z"/>
</defs>
<path transform="matrix(1,0,0,-1.00006,58.505006,77.06784)" stroke-width=".3985" stroke-linecap="butt" stroke-miterlimit="10" stroke-linejoin="miter" fill="none" stroke="#d5d6d5" d="M-56.69362-56.69362H113.38724M-56.69362-42.5202H113.38724M-56.69362-28.3468H113.38724M-56.69362-14.17339H113.38724M-56.69362 0H113.38724M-56.69362 14.17339H113.38724M-56.69362 28.3468H113.38724M-56.69362 42.5202H113.38724M-56.69362 56.69112H113.38724M-56.69362-56.69362V56.69362M-42.5202-56.69362V56.69362M-28.3468-56.69362V56.69362M-14.17339-56.69362V56.69362M0-56.69362V56.69362M14.17339-56.69362V56.69362M28.3468-56.69362V56.69362M42.5202-56.69362V56.69362M56.69362-56.69362V56.69362M70.867-56.69362V56.69362M85.04042-56.69362V56.69362M99.21382-56.69362V56.69362M113.38225-56.69362V56.69362M113.38724 56.69362"/>
<path transform="matrix(1,0,0,-1.00006,58.505006,77.06784)" stroke-width=".79701" stroke-linecap="butt" stroke-miterlimit="10" stroke-linejoin="miter" fill="none" stroke="#000000" d="M-56.69362 0H123.29138"/>
<path transform="matrix(1,0,0,-1.00006,181.79639,77.06784)" d="M1.0361 0C-.25902 .25902-1.55415 .77707-3.1083 1.68365-1.55415 .51805-1.55415-.51805-3.1083-1.68365-1.55415-.77707-.25902-.25902 1.0361 0Z"/>
<path transform="matrix(1,0,0,-1.00006,181.79639,77.06784)" stroke-width=".79701" stroke-linecap="butt" stroke-linejoin="round" fill="none" stroke="#000000" d="M1.0361 0C-.25902 .25902-1.55415 .77707-3.1083 1.68365-1.55415 .51805-1.55415-.51805-3.1083-1.68365-1.55415-.77707-.25902-.25902 1.0361 0Z"/>
<use data-text="x" xlink:href="#font_1_2" transform="matrix(9.9626,0,0,-9.963197,186.95001,79.21297)"/>
<path transform="matrix(1,0,0,-1.00006,58.505006,77.06784)" stroke-width=".79701" stroke-linecap="butt" stroke-miterlimit="10" stroke-linejoin="miter" fill="none" stroke="#000000" d="M0-56.69362V63.76302"/>
<path transform="matrix(0,-1.00006,-1,-0,58.505006,13.300999)" d="M1.0361 0C-.25902 .25902-1.55415 .77707-3.1083 1.68365-1.55415 .51805-1.55415-.51805-3.1083-1.68365-1.55415-.77707-.25902-.25902 1.0361 0Z"/>
<path transform="matrix(0,-1.00006,-1,-0,58.505006,13.300999)" stroke-width=".79701" stroke-linecap="butt" stroke-linejoin="round" fill="none" stroke="#000000" d="M1.0361 0C-.25902 .25902-1.55415 .77707-3.1083 1.68365-1.55415 .51805-1.55415-.51805-3.1083-1.68365-1.55415-.77707-.25902-.25902 1.0361 0Z"/>
<use data-text="y" xlink:href="#font_1_3" transform="matrix(9.9626,0,0,-9.963197,55.884004,6.2095949)"/>
<path transform="matrix(1,0,0,-1.00006,58.505006,77.06784)" stroke-width=".79701" stroke-linecap="butt" stroke-miterlimit="10" stroke-linejoin="miter" fill="none" stroke="#000000" d="M-42.5202 1.06294V-1.06305"/>
<path transform="matrix(1,0,0,-1.00006,58.505006,77.06784)" d="M-35.89499-3.41425H-49.1454V-11.7331H-35.89499ZM-49.1454-11.7331" fill="#ffffff"/>
<use data-text="&#x2212;" xlink:href="#font_2_1" transform="matrix(8.966339,0,0,-8.966877,10.2565,87.15734)"/>
<use data-text="3" xlink:href="#font_3_4" transform="matrix(8.966339,0,0,-8.966877,17.230607,87.15734)"/>
<path transform="matrix(1,0,0,-1.00006,58.505006,77.06784)" stroke-width=".79701" stroke-linecap="butt" stroke-miterlimit="10" stroke-linejoin="miter" fill="none" stroke="#000000" d="M70.867 1.06294V-1.06305"/>
<path transform="matrix(1,0,0,-1.00006,58.505006,77.06784)" d="M74.00526-3.41425H67.72876V-10.98589H74.00526ZM67.72876-10.98589" fill="#ffffff"/>
<use data-text="5" xlink:href="#font_3_6" transform="matrix(8.966339,0,0,-8.966877,127.13049,87.15734)"/>
<path transform="matrix(1,0,0,-1.00006,58.505006,77.06784)" stroke-width=".79701" stroke-linecap="butt" stroke-miterlimit="10" stroke-linejoin="miter" fill="none" stroke="#000000" d="M1.98425-56.69362H-1.98427"/>
<path transform="matrix(1,0,0,-1.00006,58.505006,77.06784)" d="M-4.33546-52.53418H-17.58588V-60.85303H-4.33546ZM-17.58588-60.85303" fill="#ffffff"/>
<use data-text="&#x2212;" xlink:href="#font_2_1" transform="matrix(8.966339,0,0,-8.966877,41.8155,136.28029)"/>
<use data-text="8" xlink:href="#font_3_7" transform="matrix(8.966339,0,0,-8.966877,48.789606,136.28029)"/>
<path transform="matrix(1,0,0,-1.00006,58.505006,77.06784)" stroke-width=".79701" stroke-linecap="butt" stroke-miterlimit="10" stroke-linejoin="miter" fill="none" stroke="#000000" d="M1.98425-28.3468H-1.98427"/>
<path transform="matrix(1,0,0,-1.00006,58.505006,77.06784)" d="M-4.33546-24.18738H-17.58588V-32.50621H-4.33546ZM-17.58588-32.50621" fill="#ffffff"/>
<use data-text="&#x2212;" xlink:href="#font_2_1" transform="matrix(8.966339,0,0,-8.966877,41.8155,107.93259)"/>
<use data-text="4" xlink:href="#font_3_5" transform="matrix(8.966339,0,0,-8.966877,48.789606,107.93259)"/>
<path transform="matrix(1,0,0,-1.00006,58.505006,77.06784)" stroke-width=".79701" stroke-linecap="butt" stroke-miterlimit="10" stroke-linejoin="miter" fill="none" stroke="#000000" d="M1.98425 28.3468H-1.98427"/>
<path transform="matrix(1,0,0,-1.00006,58.505006,77.06784)" d="M-4.33546 32.13263H-10.61197V24.56099H-4.33546ZM-10.61197 24.56099" fill="#ffffff"/>
<use data-text="4" xlink:href="#font_3_5" transform="matrix(8.966339,0,0,-8.966877,48.789499,51.609209)"/>
<path transform="matrix(1,0,0,-1.00006,58.505006,77.06784)" stroke-width=".79701" stroke-linecap="butt" stroke-miterlimit="10" stroke-linejoin="miter" fill="none" stroke="#000000" d="M1.98425 56.69362H-1.98427"/>
<path transform="matrix(1,0,0,-1.00006,58.505006,77.06784)" d="M-4.33546 60.47943H-10.61197V52.9078H-4.33546ZM-10.61197 52.9078" fill="#ffffff"/>
<use data-text="8" xlink:href="#font_3_7" transform="matrix(8.966339,0,0,-8.966877,48.789499,23.26051)"/>
<path transform="matrix(1,0,0,-1.00006,58.505006,77.06784)" stroke-width=".3985" stroke-linecap="butt" stroke-dasharray="2.98883,2.98883" stroke-miterlimit="10" stroke-linejoin="miter" fill="none" stroke="#000000" d="M42.5202-56.69362V56.69362"/>
<path transform="matrix(1,0,0,-1.00006,58.505006,77.06784)" stroke-width="1.19553" stroke-linecap="butt" stroke-miterlimit="10" stroke-linejoin="miter" fill="none" stroke="#f20000" d="M-54.8208 1.03142C-55.59357 1.02357-55.59357 1.02357-55.17107 1.02803-54.74858 1.03249-54.07103 1.03987-53.64853 1.04446-53.22604 1.04906-52.54851 1.05637-52.126 1.06111-51.70352 1.06584-51.02597 1.07373-50.60347 1.07863-50.18098 1.08353-49.50343 1.09142-49.08093 1.09647-48.65843 1.10153-47.9809 1.10985-47.55841 1.11507-47.13591 1.12029-46.45836 1.12868-46.03587 1.13411-45.61337 1.13951-44.93582 1.1485-44.51334 1.15411-44.09084 1.15971-43.4133 1.16875-42.99081 1.17455-42.56831 1.18033-41.89076 1.1898-41.46826 1.19585-41.04578 1.20187-40.36823 1.21178-39.94572 1.218-39.52324 1.22426-38.8457 1.23434-38.4232 1.24083-38.00072 1.24731-37.32317 1.25798-36.90067 1.26472-36.47818 1.27145-35.80063 1.28235-35.37813 1.28938-34.95563 1.2964-34.27809 1.30804-33.8556 1.31532-33.4331 1.32263-32.75555 1.3344-32.33307 1.34193-31.91057 1.34947-31.23302 1.36182-30.81053 1.36972-30.38803 1.37762-29.7105 1.3907-29.28801 1.39893-28.86551 1.40715-28.18796 1.42043-27.76546 1.42899-27.34297 1.43755-26.66542 1.45168-26.24292 1.46066-25.82043 1.46965-25.1429 1.48436-24.7204 1.49376-24.29791 1.50314-23.62036 1.51854-23.19786 1.52835-22.77538 1.5382-22.09781 1.55429-21.67532 1.56458-21.25282 1.57487-20.57529 1.59172-20.1528 1.60254-19.7303 1.61334-19.05275 1.63121-18.63026 1.64255-18.20776 1.65388-17.53021 1.67236-17.10773 1.68428-16.68523 1.69621-16.00769 1.7159-15.58519 1.72852-15.1627 1.74113-14.48515 1.76195-14.06265 1.77524-13.64017 1.7885-12.96262 1.81021-12.54012 1.82422-12.11763 1.83821-11.4401 1.86128-11.0176 1.87611-10.59511 1.89095-9.91756 1.91547-9.49506 1.93117-9.07257 1.94685-8.395 1.97255-7.97252 1.98923-7.55002 2.00589-6.87248 2.03355-6.45 2.0513-6.0275 2.06903-5.34995 2.09819-4.92746 2.11703-4.50496 2.1359-3.82741 2.1671-3.40492 2.18723-2.98242 2.20735-2.30489 2.24063-1.88239 2.26215-1.4599 2.28369-.78235 2.31929-.35985 2.34239 .0626 2.3655 .74014 2.40382 1.16264 2.4287 1.58513 2.45355 2.26268 2.49481 2.68518 2.52158 3.10767 2.54831 3.78522 2.59256 4.20772 2.62148 4.63022 2.65042 5.30775 2.69873 5.73024 2.73016 6.15274 2.76161 6.83029 2.81395 7.25278 2.84814 7.67528 2.88232 8.35283 2.93921 8.77531 2.9765 9.19781 3.0138 9.87535 3.07608 10.29784 3.11696 10.72034 3.15784 11.39789 3.22606 11.82039 3.27115 12.24287 3.31625 12.92043 3.39197 13.34293 3.44202 13.76541 3.49207 14.44295 3.57626 14.86545 3.6319 15.28793 3.68755 15.96548 3.78076 16.38799 3.84308 16.81047 3.90543 17.48802 4.0109 17.91052 4.08119 18.33302 4.1515 19.01056 4.26987 19.43304 4.34981 19.85555 4.42975 20.5331 4.56558 20.95558 4.65733 21.37808 4.74907 22.05563 4.90474 22.47812 5.01105 22.90062 5.11734 23.57816 5.2989 24.00064 5.42346 24.42314 5.54805 25.1007 5.76082 25.5232 5.90887 25.94568 6.05695 26.62323 6.3117 27.04573 6.49065 27.46822 6.6696 28.14575 6.97795 28.56825 7.1986 28.99074 7.41927 29.66829 7.80217 30.09079 8.08109 30.51328 8.36002 31.19083 8.84502 31.61333 9.20894 32.03583 9.57285 32.71336 10.20879 33.13585 10.70389 33.55835 11.19899 34.2359 12.06407 34.65839 12.77727 35.08089 13.49046 35.75844 14.72342 36.18092 15.84407 36.60342 16.96472 37.28096 18.82193 37.70345 20.85416 38.12595 22.88638 38.8035 25.51834 39.226 30.491 39.64848 35.46365 40.74854 56.69362 40.65167 54.82318"/>
<path transform="matrix(-.99991,.010200612,.0102,.99996998,3.6842156,76.03635)" d="M1.27522 0C-.31879 .31879-1.91284 .9564-3.8257 2.07224-1.91284 .6376-1.91284-.6376-3.8257-2.07224-1.91284-.9564-.31879-.31879 1.27522 0Z" fill="#f20000"/>
<path transform="matrix(-.99991,.010200612,.0102,.99996998,3.6842156,76.03635)" stroke-width="1.19553" stroke-linecap="butt" stroke-linejoin="round" fill="none" stroke="#f20000" d="M1.27522 0C-.31879 .31879-1.91284 .9564-3.8257 2.07224-1.91284 .6376-1.91284-.6376-3.8257-2.07224-1.91284-.9564-.31879-.31879 1.27522 0Z"/>
<path transform="matrix(.05171,-.9986999,-.99864,-.051713099,99.15668,22.241383)" d="M1.27522 0C-.31879 .31879-1.91284 .9564-3.8257 2.07224-1.91284 .6376-1.91284-.6376-3.8257-2.07224-1.91284-.9564-.31879-.31879 1.27522 0Z" fill="#f20000"/>
<path transform="matrix(.05171,-.9986999,-.99864,-.051713099,99.15668,22.241383)" stroke-width="1.19553" stroke-linecap="butt" stroke-linejoin="round" fill="none" stroke="#f20000" d="M1.27522 0C-.31879 .31879-1.91284 .9564-3.8257 2.07224-1.91284 .6376-1.91284-.6376-3.8257-2.07224-1.91284-.9564-.31879-.31879 1.27522 0Z"/>
<path transform="matrix(1,0,0,-1.00006,58.505006,77.06784)" stroke-width="1.19553" stroke-linecap="butt" stroke-miterlimit="10" stroke-linejoin="miter" fill="none" stroke="#f20000" d="M44.37694-54.82266C45.0719-39.54962 45.0719-39.54962 45.37148-35.22891 45.67107-30.90819 46.15152-27.6593 46.45111-25.55281 46.7507-23.44633 47.23114-21.30391 47.53073-20.04683 47.8303-18.78975 48.31076-17.33017 48.61034-16.49266 48.90993-15.65515 49.39037-14.60945 49.68996-14.01065 49.98953-13.41183 50.46999-12.62685 50.76956-12.17679 51.06915-11.72673 51.54959-11.11755 51.84918-10.76694 52.14877-10.41632 52.62921-9.93059 52.9288-9.6498 53.22838-9.36902 53.70883-8.97325 54.0084-8.7432 54.308-8.51315 54.78844-8.18375 55.08803-7.99178 55.3876-7.79979 55.86806-7.52216 56.16763-7.35951 56.46722-7.19687 56.94766-6.959 57.24725-6.81949 57.54684-6.67996 58.02728-6.47491 58.32687-6.35396 58.62645-6.23303 59.1069-6.05373 59.40648-5.94781 59.70607-5.8419 60.18651-5.68414 60.4861-5.59064 60.78568-5.49715 61.26613-5.3572 61.5657-5.27393 61.8653-5.19063 62.34573-5.06493 62.64532-4.99039 62.94492-4.91586 63.42535-4.80376 63.72495-4.7367 64.02452-4.66966 64.50496-4.5679 64.80455-4.50714 65.10414-4.44638 65.58458-4.35393 65.88417-4.29877 66.18375-4.24359 66.6642-4.15997 66.96378-4.10953 67.26337-4.05908 67.7438-3.98161 68.0434-3.93523 68.34297-3.88881 68.82344-3.81766 69.12302-3.77507 69.4226-3.73248 69.90305-3.66756 70.20264-3.62833 70.50223-3.5891 70.98267-3.52876 71.28226-3.4923 71.58183-3.45583 72.06229-3.39937 72.36186-3.36545 72.66145-3.33154 73.14189-3.27931 73.44148-3.2478 73.74106-3.21631 74.22151-3.16774 74.52109-3.13837 74.82068-3.10901 75.30112-3.06367 75.60071-3.0362 75.9003-3.00871 76.38074-2.96606 76.68033-2.94026 76.9799-2.91449 77.46036-2.87454 77.75993-2.8503 78.05952-2.82605 78.53996-2.78833 78.83955-2.76552 79.13913-2.74272 79.61958-2.70746 79.91916-2.68594 80.21875-2.66441 80.69919-2.6307 80.99878-2.61035 81.29837-2.59 81.77881-2.55847 82.0784-2.5392 82.37798-2.51993 82.85841-2.48976 83.158-2.4715 83.4576-2.45325 83.93803-2.42488 84.23763-2.40761 84.5372-2.39032 85.01765-2.36339 85.31723-2.34694 85.61682-2.3305 86.09726-2.30472 86.39685-2.2891 86.69644-2.27345 87.17688-2.24913 87.47646-2.23425 87.77605-2.21939 88.25648-2.19615 88.55608-2.18192 88.85567-2.16771 89.3361-2.14531 89.6357-2.13174 89.93527-2.1182 90.41573-2.09712 90.7153-2.08417 91.0149-2.07123 91.49535-2.0508 91.79494-2.03842 92.09451-2.02605 92.57497-2.00682 92.87454-1.99496 93.17413-1.9831 93.65457-1.96431 93.95416-1.9529 94.25375-1.94148 94.73419-1.92358 95.03378-1.91267 95.33336-1.90175 95.81381-1.88464 96.11339-1.87416 96.41298-1.8637 96.89342-1.84727 97.19301-1.8372 97.49258-1.82712 97.97304-1.81122 98.27261-1.8015 98.5722-1.79181 99.05264-1.77655 99.35223-1.76723 99.65182-1.7579 100.13226-1.74323 100.43185-1.73425 100.73143-1.72528 101.21188-1.71121 101.51146-1.70258 101.81105-1.69391 102.29149-1.68018 102.59108-1.67184 102.89066-1.66353 103.37111-1.65057 103.67068-1.64255 103.97028-1.63452 104.45071-1.62177 104.7503-1.614 105.0499-1.60623 105.53033-1.59402 105.82991-1.58653 106.1295-1.57904 106.60994-1.5672 106.90953-1.55992 107.20912-1.55267 107.68956-1.54123 107.98915-1.5342 108.28873-1.52716 108.76918-1.516 109.06876-1.50922 109.36835-1.50243 109.84879-1.49178 110.14838-1.48521 110.44795-1.47864 110.9284-1.46823 111.22798-1.46185 111.52757-1.45547 112.00801-1.44543 112.3076-1.43925 112.6072-1.43309 113.38724-1.4173 111.51471-1.45514"/>
<path transform="matrix(-.04543,.9989799,.99892,.045432725,102.88196,131.89379)" d="M1.27522 0C-.31879 .31879-1.91284 .9564-3.8257 2.07224-1.91284 .6376-1.91284-.6376-3.8257-2.07224-1.91284-.9564-.31879-.31879 1.27522 0Z" fill="#f20000"/>
<path transform="matrix(-.04543,.9989799,.99892,.045432725,102.88196,131.89379)" stroke-width="1.19553" stroke-linecap="butt" stroke-linejoin="round" fill="none" stroke="#f20000" d="M1.27522 0C-.31879 .31879-1.91284 .9564-3.8257 2.07224-1.91284 .6376-1.91284-.6376-3.8257-2.07224-1.91284-.9564-.31879-.31879 1.27522 0Z"/>
<path transform="matrix(.99976,-.02020121,-.0202,-.99981996,170.01972,78.52307)" d="M1.27522 0C-.31879 .31879-1.91284 .9564-3.8257 2.07224-1.91284 .6376-1.91284-.6376-3.8257-2.07224-1.91284-.9564-.31879-.31879 1.27522 0Z" fill="#f20000"/>
<path transform="matrix(.99976,-.02020121,-.0202,-.99981996,170.01972,78.52307)" stroke-width="1.19553" stroke-linecap="butt" stroke-linejoin="round" fill="none" stroke="#f20000" d="M1.27522 0C-.31879 .31879-1.91284 .9564-3.8257 2.07224-1.91284 .6376-1.91284-.6376-3.8257-2.07224-1.91284-.9564-.31879-.31879 1.27522 0Z"/>
<path transform="matrix(1,0,0,-1.00006,58.505006,77.06784)" d="M42.71945 15.94199H103.78342V40.75161H42.71945Z" fill="#ffffff"/>
<use data-text="g" xlink:href="#font_1_1" transform="matrix(9.9626,0,0,-9.963197,103.21701,51.467306)" fill="#ff0000"/>
<use data-text="(" xlink:href="#font_3_1" transform="matrix(9.9626,0,0,-9.963197,108.326007,51.467306)" fill="#ff0000"/>
<use data-text="x" xlink:href="#font_1_2" transform="matrix(9.9626,0,0,-9.963197,112.201007,51.467306)" fill="#ff0000"/>
<use data-text=")" xlink:href="#font_3_2" transform="matrix(9.9626,0,0,-9.963197,117.894,51.467306)" fill="#ff0000"/>
<use data-text="=" xlink:href="#font_3_8" transform="matrix(9.9626,0,0,-9.963197,124.519138,51.467306)" fill="#ff0000"/>
<use data-text="1" xlink:href="#font_3_3" transform="matrix(9.9626,0,0,-9.963197,145.183,44.727899)" fill="#ff0000"/>
<path transform="matrix(1,0,0,-1.00006,-40.288,-12.60754)" stroke-width=".3985" stroke-linecap="butt" stroke-miterlimit="10" stroke-linejoin="miter" fill="none" stroke="#ff0000" d="M176.536-61.581H199.387"/>
<use data-text="3" xlink:href="#font_3_4" transform="matrix(9.9626,0,0,-9.963197,136.248,58.30171)" fill="#ff0000"/>
<use data-text="&#x2212;" xlink:href="#font_2_1" transform="matrix(9.9626,0,0,-9.963197,143.44301,58.30171)" fill="#ff0000"/>
<use data-text="x" xlink:href="#font_1_2" transform="matrix(9.9626,0,0,-9.963197,153.406,58.30171)" fill="#ff0000"/>
</svg>
