<svg xmlns="http://www.w3.org/2000/svg" xmlns:xlink="http://www.w3.org/1999/xlink" version="1.1" width="155" height="183" viewBox="0 0 155 183">
<defs>
<path id="font_1_3" d="M.33399964 .30233766C.33999635 .32835389 .36299134 .42037965 .43299867 .42037965 .43798829 .42037965 .46199037 .42037965 .48298646 .40734864 .45498658 .402359 .43499757 .37734986 .43499757 .35334779 .43499757 .33735658 .44599916 .31835938 .47299195 .31835938 .49499513 .31835938 .5269928 .3363495 .5269928 .37635804 .5269928 .42837525 .46798707 .4423828 .43399049 .4423828 .37599183 .4423828 .34098817 .38935853 .32899476 .36634828 .3039856 .43237306 .25 .4423828 .22099304 .4423828 .116989139 .4423828 .05999756 .3133545 .05999756 .28834535 .05999756 .27833558 .069992069 .27833558 .07199097 .27833558 .07998657 .27833558 .08299255 .28033448 .084991458 .28933717 .11898804 .39535523 .18499756 .42037965 .21899414 .42037965 .23799134 .42037965 .272995 .4113617 .272995 .35334779 .272995 .32235719 .2559967 .25532533 .21899414 .11528015 .20298767 .053268434 .16799927 .011245728 .12399292 .011245728 .117996219 .011245728 .09498596 .011245728 .07398987 .024276734 .09899902 .029266358 .12098694 .05027771 .12098694 .07827759 .12098694 .105270389 .09899902 .11328125 .083999637 .11328125 .053985597 .11328125 .0289917 .08728027 .0289917 .055267335 .0289917 .009246826 .07899475-.0107421879 .12298584-.0107421879 .18899536-.0107421879 .22499085 .059280397 .22799683 .0652771 .23999024 .028274537 .27598573-.0107421879 .33599855-.0107421879 .43899537-.0107421879 .49598695 .118270877 .49598695 .14328003 .49598695 .1532898 .4869995 .1532898 .48399354 .1532898 .47499085 .1532898 .47299195 .14929199 .47099305 .14228821 .43798829 .03527832 .36999513 .011245728 .33799745 .011245728 .29899598 .011245728 .2829895 .043273927 .2829895 .07727051 .2829895 .09927368 .2889862 .121276859 .2999878 .16529846L.33399964 .30233766Z"/>
<path id="font_1_4" d="M.48599244 .38136292C.48999024 .39537049 .48999024 .39736939 .48999024 .40437318 .48999024 .42237855 .47599793 .43138124 .46099855 .43138124 .45098878 .43138124 .43499757 .42536927 .42599488 .41036988 .42399598 .405365 .41600038 .37435914 .4119873 .35635377 .40499879 .33035279 .397995 .30334474 .3919983 .27633668L.34700013 .09628296C.34298707 .08126831 .2999878 .011245728 .23399353 .011245728 .18299866 .011245728 .17199707 .055267335 .17199707 .0922699 .17199707 .1382904 .18899536 .20030213 .22299195 .28833009 .23899842 .3293457 .24299622 .3403473 .24299622 .36035157 .24299622 .405365 .21099854 .4423828 .16099549 .4423828 .06599426 .4423828 .0289917 .29733277 .0289917 .28833009 .0289917 .27833558 .038986207 .27833558 .040985109 .27833558 .050994874 .27833558 .051986696 .28033448 .056991579 .29634095 .083999637 .3903656 .12399292 .42037965 .1579895 .42037965 .1659851 .42037965 .18299866 .42037965 .18299866 .3883667 .18299866 .36335755 .17298889 .3373413 .1659851 .31834413 .12599182 .21231079 .10798645 .1552887 .10798645 .10827637 .10798645 .019256592 .17098999-.0107421879 .22999573-.0107421879 .2689972-.0107421879 .30299378 .0062561037 .33099366 .03425598 .31799317-.017745972 .30599977-.06674194 .2659912-.11973572 .23999024-.15385437 .20199585-.18309021 .1559906-.18309021 .14199829-.18309021 .09700012-.18005371 .07998657-.14074707 .09599304-.14074707 .10899353-.14074707 .12298584-.1287384 .1329956-.11973572 .14299011-.10673523 .14299011-.08773804 .14299011-.056747438 .115997318-.052734376 .10598755-.052734376 .08299255-.052734376 .049987794-.068740848 .049987794-.11773682 .049987794-.16796875 .09399414-.20507813 .1559906-.20507813 .25898744-.20507813 .3619995-.11373901 .3899994-.00074768069L.48599244 .38136292Z"/>
<path id="font_2_1" d="M.6589966 .23046875C.6759949 .23046875 .69400027 .23046875 .69400027 .25045777 .69400027 .27046205 .6759949 .27046205 .6589966 .27046205H.117996219C.100997928 .27046205 .08299255 .27046205 .08299255 .25045777 .08299255 .23046875 .100997928 .23046875 .117996219 .23046875H.6589966Z"/>
<path id="font_3_2" d="M.1269989 .07699585 .23298645 .18003845C.3889923 .31811524 .44898988 .3721466 .44898988 .47216798 .44898988 .5860901 .35899354 .6660156 .23699951 .6660156 .12399292 .6660156 .049987794 .57411196 .049987794 .48516847 .049987794 .4291687 .099990848 .4291687 .102996829 .4291687 .11999512 .4291687 .15499878 .44117738 .15499878 .48217774 .15499878 .5081787 .13699341 .5341797 .101989749 .5341797 .09399414 .5341797 .09199524 .5341797 .08898926 .5331726 .11199951 .59806826 .1659851 .63500979 .22399903 .63500979 .31498719 .63500979 .35798646 .5541382 .35798646 .47216798 .35798646 .39215089 .30799867 .31311036 .25299073 .25108338L.06098938 .036987306C.049987794 .025985718 .049987794 .023986817 .049987794 0H.42099L.44898988 .17404175H.42399598C.4189911 .14402771 .4119873 .1000061 .4019928 .084991458 .394989 .07699585 .32899476 .07699585 .30699159 .07699585H.1269989Z"/>
<path id="font_3_3" d="M.2939911 .16503906V.07800293C.2939911 .041992189 .2919922 .0309906 .21798706 .0309906H.19699097V0C.23799134 .0029907227 .2899933 .0029907227 .33198548 .0029907227 .37399293 .0029907227 .4269867 .0029907227 .46798707 0V.0309906H.44699098C.37298585 .0309906 .37098695 .041992189 .37098695 .07800293V.16503906H.47099305V.19602967H.37098695V.65075686C.37098695 .67074587 .37098695 .6767578 .35499574 .6767578 .34599305 .6767578 .34298707 .6767578 .33499146 .66474917L.027999878 .19602967V.16503906H.2939911M.2999878 .19602967H.055999757L.2999878 .5688019V.19602967Z"/>
<path id="font_3_1" d="M.45999146 .31976319C.45999146 .39982606 .45498658 .47988893 .41999818 .5539398 .37399293 .65000918 .2919922 .6660156 .25 .6660156 .18998719 .6660156 .116989139 .64001467 .07598877 .54693606 .04399109 .47789 .038986207 .39982606 .038986207 .31976319 .038986207 .24472046 .042999269 .15464783 .083999637 .07859802 .1269989-.0024719239 .19999695-.022460938 .24899292-.022460938 .30299378-.022460938 .3789978-.0014648438 .4229889 .09359741 .45498658 .16265869 .45999146 .2407074 .45999146 .31976319M.24899292-.00047302247C.20999146-.00047302247 .15098572 .024551392 .1329956 .12062073 .12199402 .18066406 .12199402 .2727356 .12199402 .3317871 .12199402 .39582826 .12199402 .46188355 .12998963 .5159149 .14898682 .63500979 .22399903 .64401248 .24899292 .64401248 .28199769 .64401248 .34799195 .6259918 .36698915 .52693179 .3769989 .47088624 .3769989 .39482118 .3769989 .3317871 .3769989 .25672914 .3769989 .18867493 .3659973 .12461853 .35099793 .029556275 .2939911-.00047302247 .24899292-.00047302247Z"/>
<path id="font_1_2" d="M.47099305 .3773346C.47200013 .3833313 .47399903 .38833619 .47399903 .39535523 .47399903 .41236878 .46199037 .42237855 .44499208 .42237855 .43499757 .42237855 .4079895 .41537477 .4039917 .3793335 .38598634 .41636659 .35099793 .4423828 .31098939 .4423828 .19699097 .4423828 .07299805 .30226136 .07299805 .15812683 .07299805 .059020997 .13398743 0 .20599365 0 .2649994 0 .31199647 .04701233 .32199098 .058029176L.32299806 .057022096C.3019867-.031982423 .2899933-.07295227 .2899933-.07495117 .28599549-.08395386 .2519989-.18309021 .1459961-.18309021 .1269989-.18309021 .09399414-.18206787 .06599426-.17297364 .09599304-.16394043 .10699463-.13793946 .10699463-.12094116 .10699463-.10494995 .09599304-.0859375 .068984989-.0859375 .04699707-.0859375 .01499939-.10394287 .01499939-.14395142 .01499939-.18508911 .051986696-.20507813 .147995-.20507813 .272995-.20507813 .34498597-.12693787 .3600006-.06695557L.47099305 .3773346M.34098817 .12809754C.33499146 .10206604 .31199647 .077041629 .2899933 .058029176 .2689972 .040008546 .23799134 .021987915 .20899964 .021987915 .15899658 .021987915 .14399719 .074035648 .14399719 .11407471 .14399719 .16212464 .17298889 .28024293 .19999695 .33128358 .22698975 .38034059 .269989 .42037965 .31199647 .42037965 .37799073 .42037965 .3919983 .33929444 .3919983 .33428956 .3919983 .32928468 .3899994 .3232727 .3889923 .3192749L.34098817 .12809754Z"/>
<path id="font_1_1" d="M.36698915 .3996582H.45298768C.47299195 .3996582 .48298646 .3996582 .48298646 .41966249 .48298646 .43066407 .47299195 .43066407 .45599366 .43066407H.37298585L.3939972 .5449524C.397995 .5660095 .4119873 .6370239 .41799928 .6490326 .4269867 .66804507 .44400025 .68307498 .46499635 .68307498 .46899415 .68307498 .49499513 .68307498 .5139923 .66503909 .46998597 .661026 .45999146 .6260376 .45999146 .6110382 .45999146 .58802798 .47799684 .57603457 .49699403 .57603457 .522995 .57603457 .5519867 .5980377 .5519867 .6360321 .5519867 .6820679 .5059967 .7050781 .46499635 .7050781 .43099977 .7050781 .36799623 .68707278 .33799745 .58802798 .33198548 .56700137 .32899476 .5569763 .30499269 .43066407H.23599243C.21699524 .43066407 .20599365 .43066407 .20599365 .4116516 .20599365 .3996582 .21499634 .3996582 .23399353 .3996582H.2999878L.22499085 .0048828127C.20698548-.09207153 .18998719-.18309021 .13798523-.18309021 .13398743-.18309021 .10899353-.18309021 .08999634-.16506958 .13598633-.1620636 .14498902-.12606812 .14498902-.111068729 .14498902-.08807373 .1269989-.07606506 .10798645-.07606506 .08198547-.07606506 .052993776-.09806824 .052993776-.13606262 .052993776-.18109131 .09700012-.20507813 .13798523-.20507813 .19299317-.20507813 .23298645-.14607239 .25099183-.108062747 .2829895-.04508972 .30599977 .07583618 .30699159 .082839969L.36698915 .3996582Z"/>
</defs>
<path transform="matrix(1.00008,0,0,-1.00003,69.3331,99.17559)" stroke-width=".3985" stroke-linecap="butt" stroke-miterlimit="10" stroke-linejoin="miter" fill="none" stroke="#00aeef" d="M-68.0326-79.37071H68.0326M-68.0326-59.52802H68.0326M-68.0326-39.68535H68.0326M-68.0326-19.84267H68.0326M-68.0326 0H68.0326M-68.0326 19.84267H68.0326M-68.0326 39.68535H68.0326M-68.0326 59.52802H68.0326M-68.0326 79.36931H68.0326M-68.0326-79.37071V79.37071M-45.35506-79.37071V79.37071M-22.67752-79.37071V79.37071M0-79.37071V79.37071M22.67752-79.37071V79.37071M45.35506-79.37071V79.37071M68.02461-79.37071V79.37071M68.0326 79.37071"/>
<path transform="matrix(1.00008,0,0,-1.00003,69.3331,99.17559)" stroke-width=".79701" stroke-linecap="butt" stroke-miterlimit="10" stroke-linejoin="miter" fill="none" stroke="#000000" d="M-68.0326 0H80.20462"/>
<path transform="matrix(1.00008,0,0,-1.00003,149.54413,99.17559)" d="M1.0361 0C-.25902 .25902-1.55415 .77707-3.1083 1.68365-1.55415 .51805-1.55415-.51805-3.1083-1.68365-1.55415-.77707-.25902-.25902 1.0361 0Z"/>
<path transform="matrix(1.00008,0,0,-1.00003,149.54413,99.17559)" stroke-width=".79701" stroke-linecap="butt" stroke-linejoin="round" fill="none" stroke="#000000" d="M1.0361 0C-.25902 .25902-1.55415 .77707-3.1083 1.68365-1.55415 .51805-1.55415-.51805-3.1083-1.68365-1.55415-.77707-.25902-.25902 1.0361 0Z"/>
<use data-text="x" xlink:href="#font_1_3" transform="matrix(9.963397,0,0,-9.962899,148.13141,95.45648)"/>
<path transform="matrix(1.00008,0,0,-1.00003,69.3331,99.17559)" stroke-width=".79701" stroke-linecap="butt" stroke-miterlimit="10" stroke-linejoin="miter" fill="none" stroke="#000000" d="M0-79.37071V85.87317"/>
<path transform="matrix(0,-1.00003,-1.00008,-0,69.3331,13.299843)" d="M1.0361 0C-.25902 .25902-1.55415 .77707-3.1083 1.68365-1.55415 .51805-1.55415-.51805-3.1083-1.68365-1.55415-.77707-.25902-.25902 1.0361 0Z"/>
<path transform="matrix(0,-1.00003,-1.00008,-0,69.3331,13.299843)" stroke-width=".79701" stroke-linecap="butt" stroke-linejoin="round" fill="none" stroke="#000000" d="M1.0361 0C-.25902 .25902-1.55415 .77707-3.1083 1.68365-1.55415 .51805-1.55415-.51805-3.1083-1.68365-1.55415-.77707-.25902-.25902 1.0361 0Z"/>
<use data-text="y" xlink:href="#font_1_4" transform="matrix(9.963397,0,0,-9.962899,66.71189,6.2088015)"/>
<path transform="matrix(1.00008,0,0,-1.00003,69.3331,99.17559)" stroke-width=".79701" stroke-linecap="butt" stroke-miterlimit="10" stroke-linejoin="miter" fill="none" stroke="#000000" d="M-45.35506 .59525V-.5953"/>
<path transform="matrix(1.00008,0,0,-1.00003,69.3331,99.17559)" d="M-52.71645-12.22958H-37.993669V-2.98635H-52.71645Z" fill="#ffffff"/>
<use data-text="&#x2212;" xlink:href="#font_2_1" transform="matrix(9.963397,0,0,-9.962899,17.608963,109.5789)"/>
<use data-text="2" xlink:href="#font_3_2" transform="matrix(9.963397,0,0,-9.962899,25.358582,109.5789)"/>
<path transform="matrix(1.00008,0,0,-1.00003,69.3331,99.17559)" stroke-width=".79701" stroke-linecap="butt" stroke-miterlimit="10" stroke-linejoin="miter" fill="none" stroke="#000000" d="M45.35506 .59525V-.5953"/>
<path transform="matrix(1.00008,0,0,-1.00003,69.3331,99.17559)" d="M41.86809-11.39935H48.842035V-2.98637H41.86809Z" fill="#ffffff"/>
<use data-text="2" xlink:href="#font_3_2" transform="matrix(9.963397,0,0,-9.962899,112.20053,109.5789)"/>
<path transform="matrix(1.00008,0,0,-1.00003,69.3331,99.17559)" stroke-width=".79701" stroke-linecap="butt" stroke-miterlimit="10" stroke-linejoin="miter" fill="none" stroke="#000000" d="M3.40146-79.37071H-3.40182"/>
<path transform="matrix(1.00008,0,0,-1.00003,69.3331,99.17559)" d="M-25.49709-83.99232H-5.7928888V-74.749088H-25.49709Z" fill="#ffffff"/>
<use data-text="&#x2212;" xlink:href="#font_2_1" transform="matrix(9.963397,0,0,-9.962899,44.83014,181.34406)"/>
<use data-text="4" xlink:href="#font_3_3" transform="matrix(9.963397,0,0,-9.962899,52.579759,181.34406)"/>
<use data-text="0" xlink:href="#font_3_1" transform="matrix(9.963397,0,0,-9.962899,57.561449,181.34406)"/>
<path transform="matrix(1.00008,0,0,-1.00003,69.3331,99.17559)" stroke-width=".79701" stroke-linecap="butt" stroke-miterlimit="10" stroke-linejoin="miter" fill="none" stroke="#000000" d="M3.40146-39.68535H-3.40182"/>
<path transform="matrix(1.00008,0,0,-1.00003,69.3331,99.17559)" d="M-25.49709-44.30696H-5.7928888V-35.063734H-25.49709Z" fill="#ffffff"/>
<use data-text="&#x2212;" xlink:href="#font_2_1" transform="matrix(9.963397,0,0,-9.962899,44.83014,141.65686)"/>
<use data-text="2" xlink:href="#font_3_2" transform="matrix(9.963397,0,0,-9.962899,52.579759,141.65686)"/>
<use data-text="0" xlink:href="#font_3_1" transform="matrix(9.963397,0,0,-9.962899,57.561449,141.65686)"/>
<path transform="matrix(1.00008,0,0,-1.00003,69.3331,99.17559)" stroke-width=".79701" stroke-linecap="butt" stroke-miterlimit="10" stroke-linejoin="miter" fill="none" stroke="#000000" d="M3.40146 39.68535H-3.40182"/>
<path transform="matrix(1.00008,0,0,-1.00003,69.3331,99.17559)" d="M-17.74825 35.47885H-5.7929089V43.89183H-17.74825Z" fill="#ffffff"/>
<use data-text="2" xlink:href="#font_3_2" transform="matrix(9.963397,0,0,-9.962899,52.579759,62.699499)"/>
<use data-text="0" xlink:href="#font_3_1" transform="matrix(9.963397,0,0,-9.962899,57.561449,62.699499)"/>
<path transform="matrix(1.00008,0,0,-1.00003,69.3331,99.17559)" stroke-width=".79701" stroke-linecap="butt" stroke-miterlimit="10" stroke-linejoin="miter" fill="none" stroke="#000000" d="M3.40146 79.37071H-3.40182"/>
<path transform="matrix(1.00008,0,0,-1.00003,69.3331,99.17559)" d="M-17.74825 75.16422H-5.7929089V83.5772H-17.74825Z" fill="#ffffff"/>
<use data-text="4" xlink:href="#font_3_3" transform="matrix(9.963397,0,0,-9.962899,52.579759,23.013298)"/>
<use data-text="0" xlink:href="#font_3_1" transform="matrix(9.963397,0,0,-9.962899,57.561449,23.013298)"/>
<path transform="matrix(1.00008,0,0,-1.00003,69.3331,99.17559)" stroke-width=".79701" stroke-linecap="butt" stroke-miterlimit="10" stroke-linejoin="miter" fill="none" stroke="#ff0000" d="M-66.5981 .1572C-66.56653 .15752-66.56653 .15752-66.00345 .16191-65.44038 .1663-64.5374 .17366-63.97432 .17856-63.41125 .18347-62.50826 .19182-61.94519 .1972-61.38213 .20262-60.47913 .21155-59.91606 .2175-59.35298 .22345-58.45 .23347-57.88693 .2401-57.32385 .24669-56.42087 .25781-55.8578 .2651-55.29472 .27237-54.39174 .28455-53.82866 .29253-53.2656 .30052-52.36261 .31389-51.79953 .32268-51.23647 .33148-50.33348 .3463-49.77042 .35599-49.20735 .36568-48.30435 .38176-47.74129 .3925-47.17822 .40324-46.27522 .42159-45.71216 .43343-45.14908 .44528-44.2461 .46484-43.68303 .47787-43.11995 .49092-42.21696 .51306-41.6539 .52747-41.09082 .5419-40.18784 .56593-39.62476 .58186-39.06169 .59778-38.1587 .62466-37.59563 .64223-37.03256 .6598-36.12958 .68921-35.5665 .70854-35.00343 .72786-34.10043 .7602-33.53737 .78157-32.9743 .80293-32.07132 .83896-31.50826 .86252-30.94518 .8861-30.04219 .92543-29.47913 .95142-28.91605 .97742-28.01306 1.0212-27.45 1.04988-26.88692 1.07857-25.98393 1.12656-25.42085 1.15822-24.85779 1.18988-23.9548 1.2432-23.39172 1.2781-22.82864 1.31305-21.92567 1.37146-21.3626 1.40994-20.79951 1.44844-19.89653 1.51308-19.33347 1.55559-18.77039 1.5981-17.8674 1.66943-17.30432 1.71635-16.74126 1.76329-15.83827 1.84201-15.27519 1.89378-14.71213 1.94556-13.80914 2.03238-13.24608 2.08951-12.683 2.14662-11.78001 2.24248-11.21695 2.30544-10.65387 2.36838-9.75089 2.47379-9.1878 2.54324-8.62474 2.61269-7.72176 2.72932-7.15868 2.80598-6.59561 2.88264-5.69263 3.01114-5.12955 3.09573-4.56648 3.18034-3.66348 3.32236-3.10042 3.41571-2.53735 3.50906-1.63435 3.66574-1.07129 3.76857-.50822 3.8714 .39473 4.04344 .9578 4.1569 1.52087 4.27037 2.42386 4.461 2.98692 4.5863 3.55 4.71161 4.45297 4.92172 5.01605 5.05997 5.57912 5.1982 6.48212 5.43011 7.04518 5.58261 7.60825 5.73512 8.51125 5.99088 9.07431 6.15916 9.63737 6.32744 10.54037 6.60983 11.10344 6.79547 11.6665 6.98112 12.5695 7.29239 13.13257 7.49718 13.69565 7.70198 14.59863 8.04556 15.1617 8.27156 15.72478 8.49754 16.62776 8.87666 17.19083 9.12599 17.7539 9.37534 18.65689 9.79352 19.21997 10.06866 19.78304 10.3438 20.68602 10.80553 21.2491 11.10905 21.81216 11.41257 22.71515 11.92146 23.27821 12.25627 23.84128 12.59108 24.74428 13.15266 25.30734 13.52211 25.87042 13.89154 26.7734 14.51129 27.33647 14.91895 27.89957 15.32658 28.80254 16.0104 29.36562 16.46011 29.9287 16.90982 30.83167 17.66394 31.39474 18.16008 31.95782 18.65622 32.8608 19.48856 33.42387 20.03595 33.98695 20.58336 34.88994 21.50146 35.45302 22.10542 36.01608 22.7094 36.91907 23.72258 37.48215 24.38895 38.04521 25.05534 38.9482 26.17311 39.51128 26.90828 40.07434 27.64346 40.97733 28.87648 41.54039 29.68759 42.10345 30.49869 43.00645 31.85928 43.56952 32.75417 44.1326 33.64902 45.03558 35.14986 45.59865 36.13718 46.16173 37.1245 47.06471 38.78076 47.62778 39.8701 48.19086 40.95944 49.09384 42.78664 49.65692 43.98845 50.21999 45.19026 51.12297 47.20601 51.68605 48.53195 52.24911 49.8579 53.1521 52.082 53.71518 53.54489 54.27824 55.00777 55.18124 57.46118 55.74431 59.07544 56.30737 60.6897 57.21037 63.39836 57.77344 65.17932 58.3365 66.96028 59.23949 69.94664 59.80255 71.91136 60.36563 73.87605 61.83168 79.33957 61.4599 77.95401"/>
<path transform="matrix(-1,.007190216,.007190575,.99995008,2.7296906,99.01838)" d="M1.0361 0C-.25902 .25902-1.55415 .77707-3.1083 1.68365-1.55415 .51805-1.55415-.51805-3.1083-1.68365-1.55415-.77707-.25902-.25902 1.0361 0Z" fill="#ff0000"/>
<path transform="matrix(-1,.007190216,.007190575,.99995008,2.7296906,99.01838)" stroke-width=".79701" stroke-linecap="butt" stroke-linejoin="round" fill="none" stroke="#ff0000" d="M1.0361 0C-.25902 .25902-1.55415 .77707-3.1083 1.68365-1.55415 .51805-1.55415-.51805-3.1083-1.68365-1.55415-.77707-.25902-.25902 1.0361 0Z"/>
<path transform="matrix(.25918076,-.96584907,-.96589729,-.2591678,130.79792,21.219239)" d="M1.0361 0C-.25902 .25902-1.55415 .77707-3.1083 1.68365-1.55415 .51805-1.55415-.51805-3.1083-1.68365-1.55415-.77707-.25902-.25902 1.0361 0Z" fill="#ff0000"/>
<path transform="matrix(.25918076,-.96584907,-.96589729,-.2591678,130.79792,21.219239)" stroke-width=".79701" stroke-linecap="butt" stroke-linejoin="round" fill="none" stroke="#ff0000" d="M1.0361 0C-.25902 .25902-1.55415 .77707-3.1083 1.68365-1.55415 .51805-1.55415-.51805-3.1083-1.68365-1.55415-.77707-.25902-.25902 1.0361 0Z"/>
<path transform="matrix(1.00008,0,0,-1.00003,69.3331,99.17559)" stroke-width=".79701" stroke-linecap="butt" stroke-miterlimit="10" stroke-linejoin="miter" fill="none" stroke="#0000ff" d="M-60.85994-76.7261C-59.84694-72.92409-59.84694-72.92409-59.31604-71.01654-58.78514-69.10898-57.93375-66.15056-57.40285-64.36401-56.87193-62.57747-56.02052-59.80981-55.48961-58.14034-54.95871-56.47086-54.10732-53.88792-53.57642-52.33154-53.0455-50.77516-52.19412-48.37027-51.66321-46.923-51.13231-45.47574-50.2809-43.24278-49.75-41.9007-49.21909-40.5586-48.3677-38.49103-47.83679-37.25012-47.3059-36.00922-46.45447-34.10081-45.92357-32.95714-45.39267-31.81346-44.54128-30.05774-44.01038-29.00731-43.47946-27.9569-42.62805-26.34752-42.09715-25.38635-41.56625-24.4252-40.71486-22.95581-40.18396-22.07999-39.65305-21.20416-38.80165-19.86844-38.27074-19.07397-37.73984-18.27951-36.88843-17.07112-36.35753-16.35402-35.82661-15.63695-34.97523-14.5494-34.44432-13.90573-33.91342-13.26205-33.06201-12.28914-32.53111-11.7149-32.00021-11.14067-31.14882-10.27585-30.6179-9.76709-30.087-9.25833-29.23558-8.4954-28.70468-8.04817-28.17378-7.60094-27.32239-6.93341-26.79149-6.54375-26.26057-6.15405-25.40916-5.57573-24.87828-5.23962-24.34738-4.90353-23.49597-4.40787-22.96507-4.12135-22.43416-3.83485-21.58278-3.41557-21.05186-3.1747-20.52097-2.93384-19.66954-2.58455-19.13864-2.38536-18.60774-2.18619-17.75635-1.90065-17.22543-1.7392-16.69453-1.57771-15.84312-1.34937-15.31223-1.22162-14.78133-1.09389-13.92993-.91647-13.39902-.81851-12.86812-.72054-12.01671-.5877-11.4858-.51555-10.95491-.44339-10.1035-.34877-9.5726-.29845-9.04169-.24814-8.1903-.18533-7.6594-.15288-7.1285-.12042-6.27708-.08308-5.74619-.06454-5.21527-.04597-4.36389-.02776-3.83298-.01912-3.30208-.0105-2.45065-.00499-1.91975-.00235-1.38885 .00027-.53746-.00063-.00656 0 .52432 .00063 1.37572-.0003 1.90662 .00229 2.43753 .00491 3.28891 .01038 3.81982 .01894 4.35072 .02751 5.20213 .04558 5.73303 .06406 6.26393 .08252 7.11534 .11969 7.64624 .15204 8.17715 .18437 9.02855 .247 9.55945 .2972 10.09035 .34737 10.94176 .44179 11.47266 .5138 12.00357 .5858 12.85497 .71838 13.38586 .81615 13.91676 .91393 14.76819 1.09096 15.29909 1.21848 15.82999 1.346 16.68138 1.57396 17.2123 1.7352 17.7432 1.89641 18.59459 2.18155 19.12549 2.38046 19.65639 2.57938 20.5078 2.9282 21.03871 3.16876 21.56961 3.40933 22.42102 3.82811 22.95192 4.11427 23.48282 4.40045 24.33423 4.89552 24.86513 5.23128 25.39604 5.56703 26.24742 6.14488 26.77834 6.53418 27.30923 6.9235 28.16064 7.59033 28.69154 8.03716 29.22246 8.48398 30.07384 9.24625 30.60475 9.75455 31.13565 10.26286 31.98706 11.12692 32.51796 11.70067 33.04886 12.27441 33.90027 13.24657 34.43118 13.88974 34.96208 14.53291 35.81348 15.61964 36.34438 16.33623 36.87527 17.05281 37.72668 18.26042 38.2576 19.05437 38.7885 19.84828 39.6399 21.18307 40.17079 22.0583 40.70169 22.93356 41.55312 24.40202 42.08401 25.36256 42.61493 26.3231 43.46631 27.9314 43.99722 28.98122 44.52812 30.03102 45.37953 31.78583 45.91042 32.92885 46.44133 34.07188 47.29272 35.97922 47.82364 37.21942 48.35454 38.45963 49.20595 40.52606 49.73685 41.86745 50.26775 43.20883 51.11916 45.44072 51.65005 46.8872 52.18097 48.33372 53.03236 50.73729 53.56326 52.29291 54.09416 53.84851 54.94557 56.4303 55.47647 58.09898 56.00739 59.76768 56.85878 62.53397 57.38968 64.31969 57.92058 66.10541 58.772 69.0625 59.3029 70.96924 59.8338 72.87596 61.21611 78.06204 60.84662 76.67589"/>
<path transform="matrix(-.25745059,.96628907,.9663373,.2574377,8.468311,175.90399)" d="M1.0361 0C-.25902 .25902-1.55415 .77707-3.1083 1.68365-1.55415 .51805-1.55415-.51805-3.1083-1.68365-1.55415-.77707-.25902-.25902 1.0361 0Z" fill="#0000ff"/>
<path transform="matrix(-.25745059,.96628907,.9663373,.2574377,8.468311,175.90399)" stroke-width=".79701" stroke-linecap="butt" stroke-linejoin="round" fill="none" stroke="#0000ff" d="M1.0361 0C-.25902 .25902-1.55415 .77707-3.1083 1.68365-1.55415 .51805-1.55415-.51805-3.1083-1.68365-1.55415-.77707-.25902-.25902 1.0361 0Z"/>
<path transform="matrix(.2575706,-.966259,-.9663073,-.25755776,130.18457,22.497399)" d="M1.0361 0C-.25902 .25902-1.55415 .77707-3.1083 1.68365-1.55415 .51805-1.55415-.51805-3.1083-1.68365-1.55415-.77707-.25902-.25902 1.0361 0Z" fill="#0000ff"/>
<path transform="matrix(.2575706,-.966259,-.9663073,-.25755776,130.18457,22.497399)" stroke-width=".79701" stroke-linecap="butt" stroke-linejoin="round" fill="none" stroke="#0000ff" d="M1.0361 0C-.25902 .25902-1.55415 .77707-3.1083 1.68365-1.55415 .51805-1.55415-.51805-3.1083-1.68365-1.55415-.77707-.25902-.25902 1.0361 0Z"/>
<path transform="matrix(1.00008,0,0,-1.00003,69.3331,99.17559)" d="M-60.24477 3.82742H-53.142869V12.04667H-60.24477Z" fill="#ffffff"/>
<use data-text="g" xlink:href="#font_1_2" transform="matrix(9.963397,0,0,-9.962899,10.080368,92.41439)" fill="#ff0000"/>
<path transform="matrix(1.00008,0,0,-1.00003,69.3331,99.17559)" d="M41.38376 6.48141H49.32633V17.32975H41.38376Z" fill="#ffffff"/>
<use data-text="f" xlink:href="#font_1_1" transform="matrix(9.963397,0,0,-9.962899,111.71649,89.76031)" fill="#0000ff"/>
</svg>
