<svg xmlns="http://www.w3.org/2000/svg" xmlns:xlink="http://www.w3.org/1999/xlink" version="1.1" width="199" height="141" viewBox="0 0 199 141">
<defs>
<path id="font_1_2" d="M.20599365 .3996582H.2999878C.31999208 .3996582 .32998658 .3996582 .32998658 .41966249 .32998658 .43066407 .31999208 .43066407 .3019867 .43066407H.21398926C.25 .5724945 .25498963 .59246829 .25498963 .59846499 .25498963 .61546328 .24299622 .62545779 .22599793 .62545779 .22299195 .62545779 .19499207 .62446597 .18598938 .58947756L.14698792 .43066407H.052993776C.032989503 .43066407 .022994996 .43066407 .022994996 .4116516 .022994996 .3996582 .0309906 .3996582 .050994874 .3996582H.13899231C.066986087 .11608887 .06298828 .099121097 .06298828 .08114624 .06298828 .02722168 .100997928-.0107421879 .15499878-.0107421879 .25698854-.0107421879 .31399537 .13505554 .31399537 .14305115 .31399537 .1530304 .30599977 .1530304 .3019867 .1530304 .29299928 .1530304 .2919922 .15003968 .2869873 .13905335 .24398804 .035217287 .19099427 .011245728 .15699768 .011245728 .13598633 .011245728 .12599182 .024230957 .12599182 .057174684 .12599182 .08114624 .12799073 .088134769 .13198853 .10510254L.20599365 .3996582Z"/>
<path id="font_1_1" d="M.7599945 .69506838C.7599945 .69807437 .7579956 .7050781 .7489929 .7050781 .74598696 .7050781 .7449951 .70407107 .73399356 .69306948L.6639862 .61602786C.6549988 .6300354 .60899356 .7050781 .49798585 .7050781 .2749939 .7050781 .049987794 .48391725 .049987794 .25172425 .049987794 .08659363 .16799927-.022460938 .32099916-.022460938 .4079895-.022460938 .48399354 .017532349 .5369873 .063583377 .6299896 .14564514 .6469879 .2367096 .6469879 .23971558 .6469879 .24972534 .6369934 .24972534 .6349945 .24972534 .6289978 .24972534 .6239929 .24772644 .621994 .23971558 .61299136 .21069336 .58999636 .13963318 .5209961 .081588748 .45199586 .025543213 .3889923 .008529663 .33699037 .008529663 .24699402 .008529663 .14099121 .060577394 .14099121 .21670532 .14099121 .27374269 .1619873 .43588258 .2619934 .55296328 .32299806 .62402346 .4169922 .67407229 .5059967 .67407229 .60798647 .67407229 .6669922 .5970001 .6669922 .48091126 .6669922 .44088746 .6639862 .43988038 .6639862 .4298706 .6639862 .41986085 .6749878 .41986085 .67900088 .41986085 .69200137 .41986085 .69200137 .42185975 .69699099 .43988038L.7599945 .69506838Z"/>
<path id="font_2_1" d="M.33099366-.2400055C.33099366-.23701477 .33099366-.23500061 .31399537-.21800232 .18899536-.0920105 .15699768 .09700012 .15699768 .25 .15699768 .42399598 .19499207 .59799197 .31799317 .72299197 .33099366 .73498538 .33099366 .7369995 .33099366 .73999026 .33099366 .746994 .32699586 .75 .32099916 .75 .31098939 .75 .22099304 .6819916 .1619873 .5549927 .11099243 .44499208 .09899902 .33399964 .09899902 .25 .09899902 .17199707 .10998535 .050994874 .16499329-.06201172 .22499085-.18501282 .31098939-.25 .32099916-.25 .32699586-.25 .33099366-.24700928 .33099366-.2400055Z"/>
<path id="font_2_2" d="M.2889862 .25C.2889862 .32798768 .27799989 .44898988 .22299195 .56199648 .16299439 .68499758 .07699585 .75 .066986087 .75 .06098938 .75 .056991579 .74598696 .056991579 .73999026 .056991579 .7369995 .056991579 .73498538 .07598877 .71699526 .17399597 .6179962 .23098755 .45899964 .23098755 .25 .23098755 .07899475 .19400025-.09700012 .069992069-.2230072 .056991579-.23500061 .056991579-.23701477 .056991579-.2400055 .056991579-.2460022 .06098938-.25 .066986087-.25 .07699585-.25 .16699219-.18200684 .22599793-.055007936 .2769928 .054992677 .2889862 .16600037 .2889862 .25Z"/>
<path id="font_2_6" d="M.44898988 .20022583C.44898988 .3193512 .36698915 .41944886 .25898744 .41944886 .21099854 .41944886 .16799927 .40345765 .13198853 .36842347V.5637665C.1519928 .5577698 .18499756 .55078127 .21699524 .55078127 .33999635 .55078127 .4099884 .6417694 .4099884 .6547699 .4099884 .6607666 .40699769 .6657715 .3999939 .6657715 .39898683 .6657715 .39698792 .6657715 .3919983 .66278079 .37199403 .6537781 .32299806 .6337738 .2559967 .6337738 .21598816 .6337738 .16999817 .6407776 .12298584 .6617737 .114990238 .66477969 .11299133 .66477969 .11099243 .66477969 .100997928 .66477969 .100997928 .6567688 .100997928 .6407776V.34439088C.100997928 .32637025 .100997928 .31835938 .114990238 .31835938 .12199402 .31835938 .12399292 .32136537 .12799073 .32736207 .13899231 .3433838 .17599488 .39746095 .25698854 .39746095 .30899049 .39746095 .33399964 .35139466 .34199525 .33337403 .35798646 .29632569 .3600006 .25727845 .3600006 .20722962 .3600006 .17222595 .3600006 .11222839 .33599855 .07035828 .31199647 .031463624 .2749939 .0055389406 .22898865 .0055389406 .1559906 .0055389406 .09899902 .058380128 .08198547 .11723328 .084991458 .1162262 .08799744 .115234378 .09899902 .115234378 .13198853 .115234378 .14898682 .14022827 .14898682 .16423035 .14898682 .18823242 .13198853 .21322632 .09899902 .21322632 .084991458 .21322632 .049987794 .20622254 .049987794 .16023255 .049987794 .07434082 .11898804-.022460938 .23098755-.022460938 .34700013-.022460938 .44898988 .073349 .44898988 .20022583Z"/>
<path id="font_2_4" d="M.2939911 .64004519C.2939911 .66400149 .2939911 .6660156 .2709961 .6660156 .20899964 .60227969 .12098694 .60227969 .08898926 .60227969V.57128909C.10899353 .57128909 .16799927 .57128909 .21998596 .5972748V.07902527C.21998596 .042999269 .21699524 .0309906 .1269989 .0309906H.09498596V0C.12998963 .0029907227 .21699524 .0029907227 .25698854 .0029907227 .29699708 .0029907227 .38398744 .0029907227 .4189911 0V.0309906H.3869934C.29699708 .0309906 .2939911 .041992189 .2939911 .07902527V.64004519Z"/>
<path id="font_2_3" d="M.45999146 .31976319C.45999146 .39982606 .45498658 .47988893 .41999818 .5539398 .37399293 .65000918 .2919922 .6660156 .25 .6660156 .18998719 .6660156 .116989139 .64001467 .07598877 .54693606 .04399109 .47789 .038986207 .39982606 .038986207 .31976319 .038986207 .24472046 .042999269 .15464783 .083999637 .07859802 .1269989-.0024719239 .19999695-.022460938 .24899292-.022460938 .30299378-.022460938 .3789978-.0014648438 .4229889 .09359741 .45498658 .16265869 .45999146 .2407074 .45999146 .31976319M.24899292-.00047302247C.20999146-.00047302247 .15098572 .024551392 .1329956 .12062073 .12199402 .18066406 .12199402 .2727356 .12199402 .3317871 .12199402 .39582826 .12199402 .46188355 .12998963 .5159149 .14898682 .63500979 .22399903 .64401248 .24899292 .64401248 .28199769 .64401248 .34799195 .6259918 .36698915 .52693179 .3769989 .47088624 .3769989 .39482118 .3769989 .3317871 .3769989 .25672914 .3769989 .18867493 .3659973 .12461853 .35099793 .029556275 .2939911-.00047302247 .24899292-.00047302247Z"/>
<path id="font_2_5" d="M.1269989 .07699585 .23298645 .18003845C.3889923 .31811524 .44898988 .3721466 .44898988 .47216798 .44898988 .5860901 .35899354 .6660156 .23699951 .6660156 .12399292 .6660156 .049987794 .57411196 .049987794 .48516847 .049987794 .4291687 .099990848 .4291687 .102996829 .4291687 .11999512 .4291687 .15499878 .44117738 .15499878 .48217774 .15499878 .5081787 .13699341 .5341797 .101989749 .5341797 .09399414 .5341797 .09199524 .5341797 .08898926 .5331726 .11199951 .59806826 .1659851 .63500979 .22399903 .63500979 .31498719 .63500979 .35798646 .5541382 .35798646 .47216798 .35798646 .39215089 .30799867 .31311036 .25299073 .25108338L.06098938 .036987306C.049987794 .025985718 .049987794 .023986817 .049987794 0H.42099L.44898988 .17404175H.42399598C.4189911 .14402771 .4119873 .1000061 .4019928 .084991458 .394989 .07699585 .32899476 .07699585 .30699159 .07699585H.1269989Z"/>
</defs>
<path transform="matrix(1.00006,0,0,-1.00005,14.963051,128.28577)" stroke-width=".3985" stroke-linecap="butt" stroke-miterlimit="10" stroke-linejoin="miter" fill="none" stroke="#00aeef" d="M0 0H177.16754M0 7.08669H177.16754M0 14.17339H177.16754M0 21.2601H177.16754M0 28.3468H177.16754M0 35.43349H177.16754M0 42.5202H177.16754M0 49.6069H177.16754M0 56.69362H177.16754M0 63.7803H177.16754M0 70.867H177.16754M0 77.95372H177.16754M0 85.04042H177.16754M0 92.1271H177.16754M0 99.21382H177.16754M0 106.29803H177.16754M0 0V106.30052M7.08669 0V106.30052M14.17339 0V106.30052M21.2601 0V106.30052M28.3468 0V106.30052M35.43349 0V106.30052M42.5202 0V106.30052M49.6069 0V106.30052M56.69362 0V106.30052M63.7803 0V106.30052M70.867 0V106.30052M77.95372 0V106.30052M85.04042 0V106.30052M92.1271 0V106.30052M99.21382 0V106.30052M106.30052 0V106.30052M113.38724 0V106.30052M120.47392 0V106.30052M127.56062 0V106.30052M134.64734 0V106.30052M141.73404 0V106.30052M148.82074 0V106.30052M155.90744 0V106.30052M162.99414 0V106.30052M170.08086 0V106.30052M177.16507 0V106.30052M177.16754 106.30052"/>
<path transform="matrix(1.00006,0,0,-1.00005,14.963051,128.28577)" stroke-width=".79701" stroke-linecap="butt" stroke-miterlimit="10" stroke-linejoin="miter" fill="none" stroke="#000000" d="M0 0H179.985"/>
<path transform="matrix(1.00006,0,0,-1.00005,194.95883,128.28577)" d="M1.0361 0C-.25902 .25902-1.55415 .77707-3.1083 1.68365-1.55415 .51805-1.55415-.51805-3.1083-1.68365-1.55415-.77707-.25902-.25902 1.0361 0Z"/>
<path transform="matrix(1.00006,0,0,-1.00005,194.95883,128.28577)" stroke-width=".79701" stroke-linecap="butt" stroke-linejoin="round" fill="none" stroke="#000000" d="M1.0361 0C-.25902 .25902-1.55415 .77707-3.1083 1.68365-1.55415 .51805-1.55415-.51805-3.1083-1.68365-1.55415-.77707-.25902-.25902 1.0361 0Z"/>
<use data-text="t" xlink:href="#font_1_2" transform="matrix(9.963197,0,0,-9.963098,194.59482,124.56658)"/>
<path transform="matrix(1.00006,0,0,-1.00005,14.963051,128.28577)" stroke-width=".79701" stroke-linecap="butt" stroke-miterlimit="10" stroke-linejoin="miter" fill="none" stroke="#000000" d="M0 0V111.24391"/>
<path transform="matrix(0,-1.00005,-1.00006,-0,14.963051,17.0363)" d="M1.0361 0C-.25902 .25902-1.55415 .77707-3.1083 1.68365-1.55415 .51805-1.55415-.51805-3.1083-1.68365-1.55415-.77707-.25902-.25902 1.0361 0Z"/>
<path transform="matrix(0,-1.00005,-1.00006,-0,14.963051,17.0363)" stroke-width=".79701" stroke-linecap="butt" stroke-linejoin="round" fill="none" stroke="#000000" d="M1.0361 0C-.25902 .25902-1.55415 .77707-3.1083 1.68365-1.55415 .51805-1.55415-.51805-3.1083-1.68365-1.55415-.77707-.25902-.25902 1.0361 0Z"/>
<use data-text="C" xlink:href="#font_1_1" transform="matrix(9.963197,0,0,-9.963098,5.3724749,9.39183)"/>
<use data-text="(" xlink:href="#font_2_1" transform="matrix(9.963197,0,0,-9.963098,13.205948,9.39183)"/>
<use data-text="t" xlink:href="#font_1_2" transform="matrix(9.963197,0,0,-9.963098,17.080185,9.39183)"/>
<use data-text=")" xlink:href="#font_2_2" transform="matrix(9.963197,0,0,-9.963098,20.678399,9.39183)"/>
<path transform="matrix(1.00006,0,0,-1.00005,14.963051,128.28577)" stroke-width=".79701" stroke-linecap="butt" stroke-miterlimit="10" stroke-linejoin="miter" fill="none" stroke="#000000" d="M35.43349 1.06294V-1.06305"/>
<use data-text="5" xlink:href="#font_2_6" transform="matrix(9.963197,0,0,-9.963098,47.908029,139.48932)"/>
<path transform="matrix(1.00006,0,0,-1.00005,14.963051,128.28577)" stroke-width=".79701" stroke-linecap="butt" stroke-miterlimit="10" stroke-linejoin="miter" fill="none" stroke="#000000" d="M70.867 1.06294V-1.06305"/>
<use data-text="1" xlink:href="#font_2_4" transform="matrix(9.963197,0,0,-9.963098,80.853008,139.48932)"/>
<use data-text="0" xlink:href="#font_2_3" transform="matrix(9.963197,0,0,-9.963098,85.83461,139.48932)"/>
<path transform="matrix(1.00006,0,0,-1.00005,14.963051,128.28577)" stroke-width=".79701" stroke-linecap="butt" stroke-miterlimit="10" stroke-linejoin="miter" fill="none" stroke="#000000" d="M106.30052 1.06294V-1.06305"/>
<use data-text="1" xlink:href="#font_2_4" transform="matrix(9.963197,0,0,-9.963098,116.288127,139.48932)"/>
<use data-text="5" xlink:href="#font_2_6" transform="matrix(9.963197,0,0,-9.963098,121.26973,139.48932)"/>
<path transform="matrix(1.00006,0,0,-1.00005,14.963051,128.28577)" stroke-width=".79701" stroke-linecap="butt" stroke-miterlimit="10" stroke-linejoin="miter" fill="none" stroke="#000000" d="M141.73404 1.06294V-1.06305"/>
<use data-text="2" xlink:href="#font_2_5" transform="matrix(9.963197,0,0,-9.963098,151.72425,139.48932)"/>
<use data-text="0" xlink:href="#font_2_3" transform="matrix(9.963197,0,0,-9.963098,156.70586,139.48932)"/>
<path transform="matrix(1.00006,0,0,-1.00005,14.963051,128.28577)" stroke-width=".79701" stroke-linecap="butt" stroke-miterlimit="10" stroke-linejoin="miter" fill="none" stroke="#000000" d="M177.16754 1.06294V-1.06305"/>
<use data-text="2" xlink:href="#font_2_5" transform="matrix(9.963197,0,0,-9.963098,187.1594,139.48932)"/>
<use data-text="5" xlink:href="#font_2_6" transform="matrix(9.963197,0,0,-9.963098,192.14099,139.48932)"/>
<path transform="matrix(1.00006,0,0,-1.00005,14.963051,128.28577)" stroke-width=".79701" stroke-linecap="butt" stroke-miterlimit="10" stroke-linejoin="miter" fill="none" stroke="#000000" d="M1.06294 35.43349H-1.06305"/>
<use data-text="5" xlink:href="#font_2_6" transform="matrix(9.963197,0,0,-9.963098,5.1984636,96.06116)"/>
<path transform="matrix(1.00006,0,0,-1.00005,14.963051,128.28577)" stroke-width=".79701" stroke-linecap="butt" stroke-miterlimit="10" stroke-linejoin="miter" fill="none" stroke="#000000" d="M1.06294 70.867H-1.06305"/>
<use data-text="1" xlink:href="#font_2_4" transform="matrix(9.963197,0,0,-9.963098,.21716309,60.62539)"/>
<use data-text="0" xlink:href="#font_2_3" transform="matrix(9.963197,0,0,-9.963098,5.1987688,60.62539)"/>
<path transform="matrix(1.00006,0,0,-1.00005,14.963051,128.28577)" stroke-width=".79701" stroke-linecap="butt" stroke-miterlimit="10" stroke-linejoin="miter" fill="none" stroke="#000000" d="M1.06294 106.30052H-1.06305"/>
<use data-text="1" xlink:href="#font_2_4" transform="matrix(9.963197,0,0,-9.963098,.21716309,25.19062)"/>
<use data-text="5" xlink:href="#font_2_6" transform="matrix(9.963197,0,0,-9.963098,5.1987688,25.19062)"/>
<path transform="matrix(1.00006,0,0,-1.00005,14.963051,128.28577)" stroke-width="1.19553" stroke-linecap="butt" stroke-miterlimit="10" stroke-linejoin="miter" fill="none" stroke="#ff0000" d="M0 50.52821C0 50.52821 2.00006 50.92218 2.76823 51.07483 3.53639 51.22746 4.7683 51.47401 5.53648 51.62837 6.30464 51.78271 7.53654 52.03133 8.30472 52.18732 9.07288 52.34329 10.30478 52.59474 11.07297 52.75253 11.84113 52.91032 13.07303 53.16519 13.8412 53.32457 14.60938 53.48395 15.84128 53.74014 16.60945 53.90125 17.37762 54.06235 18.60951 54.32268 19.37769 54.4857 20.14587 54.64873 21.37776 54.9115 22.14594 55.07625 22.91411 55.24097 24.146 55.50656 24.91418 55.67303 25.68236 55.8395 26.91425 56.10771 27.68242 56.27599 28.45059 56.44427 29.68248 56.71579 30.45067 56.88586 31.21884 57.05594 32.45073 57.32991 33.2189 57.5018 33.98708 57.6737 35.21898 57.95093 35.98715 58.12477 36.75533 58.2986 37.98721 58.579 38.75539 58.75476 39.52357 58.93053 40.75546 59.21387 41.52364 59.39156 42.29181 59.56924 43.5237 59.8559 44.29187 60.03539 45.06006 60.21489 46.29195 60.50397 47.06012 60.68529 47.8283 60.86661 49.06018 61.15884 49.82837 61.3422 50.59654 61.52554 51.82843 61.8212 52.5966 62.00679 53.36478 62.1924 54.59666 62.4923 55.36485 62.67992 56.13303 62.86755 57.36491 63.16977 58.13309 63.35912 58.90126 63.54846 60.13316 63.85321 60.90134 64.04459 61.66951 64.23596 62.9014 64.54488 63.66957 64.73848 64.43776 64.9321 65.66965 65.2443 66.43782 65.44006 67.206 65.63583 68.43788 65.95163 69.20605 66.14943 69.97424 66.34721 71.20613 66.6659 71.9743 66.8656 72.74248 67.0653 73.97437 67.38663 74.74255 67.5888 75.51073 67.791 76.74261 68.11829 77.51079 68.32281 78.27896 68.52736 79.51085 68.85664 80.27904 69.063 81.04721 69.26936 82.2791 69.6015 83.04727 69.8101 83.81546 70.01869 85.04735 70.35524 85.81552 70.56639 86.5837 70.77754 87.81558 71.11847 88.58376 71.33199 89.35194 71.54552 90.58383 71.8897 91.352 72.10536 92.12018 72.32103 93.35207 72.6685 94.12024 72.88643 94.88843 73.10432 96.12032 73.45566 96.88849 73.6759 97.65666 73.89615 98.88857 74.25113 99.65674 74.47383 100.42491 74.69653 101.65681 75.05597 102.42497 75.28105 103.19315 75.50613 104.42505 75.86873 105.19322 76.09607 105.9614 76.3234 107.1933 76.68951 107.96146 76.91951 108.72964 77.1495 109.96155 77.52112 110.7297 77.75366 111.49788 77.98622 112.72978 78.36057 113.49796 78.59561 114.26613 78.83063 115.49803 79.20999 116.2662 79.44759 117.03436 79.68518 118.26627 80.06775 119.03445 80.30801 119.80261 80.54828 121.03452 80.93642 121.80269 81.17926 122.57085 81.42207 123.80275 81.8131 124.57094 82.05817 125.3391 82.30324 126.571 82.69768 127.33917 82.94563 128.10733 83.19359 129.33925 83.59413 130.10742 83.84532 130.8756 84.09648 132.10749 84.50237 132.87566 84.75592 133.64385 85.00946 134.87574 85.41647 135.6439 85.67267 136.41208 85.92888 137.64397 86.34344 138.41214 86.60242 139.18033 86.86139 140.41222 87.27763 141.18039 87.53918 141.94857 87.80074 143.18045 88.22266 143.94864 88.48753 144.71681 88.7524 145.9487 89.18065 146.71688 89.4482 147.48505 89.71573 148.71694 90.14578 149.48513 90.41579 150.2533 90.68578 151.48519 91.12064 152.25336 91.39418 153.02153 91.66772 154.25344 92.11075 155.0216 92.3873 155.78978 92.66382 157.02167 93.108 157.78984 93.3872 158.55803 93.6664 159.78992 94.11737 160.55809 94.39957 161.32627 94.68176 162.55815 95.13571 163.32633 95.42111 164.09452 95.70653 165.3264 96.16809 166.09458 96.4566 166.86275 96.74512 168.09464 97.20914 168.86283 97.50053 169.631 97.79193 170.86289 98.26219 171.63106 98.5568 172.39923 98.85141 173.63112 99.3176 174.3993 99.62386 175.16748 99.93011 177.16754 100.76414 175.43886 100.04347"/>
<path transform="matrix(.9230153,-.3847992,-.38480307,-.92300608,190.41242,28.237298)" d="M1.27522 0C-.31879 .31879-1.91284 .9564-3.8257 2.07224-1.91284 .6376-1.91284-.6376-3.8257-2.07224-1.91284-.9564-.31879-.31879 1.27522 0Z" fill="#ff0000"/>
<path transform="matrix(.9230153,-.3847992,-.38480307,-.92300608,190.41242,28.237298)" stroke-width="1.19553" stroke-linecap="butt" stroke-linejoin="round" fill="none" stroke="#ff0000" d="M1.27522 0C-.31879 .31879-1.91284 .9564-3.8257 2.07224-1.91284 .6376-1.91284-.6376-3.8257-2.07224-1.91284-.9564-.31879-.31879 1.27522 0Z"/>
</svg>
