<svg xmlns="http://www.w3.org/2000/svg" xmlns:xlink="http://www.w3.org/1999/xlink" version="1.1" width="127" height="129" viewBox="0 0 127 129">
<defs>
<path id="font_1_2" d="M.20599365 .3996582H.2999878C.31999208 .3996582 .32998658 .3996582 .32998658 .41966249 .32998658 .43066407 .31999208 .43066407 .3019867 .43066407H.21398926C.25 .5724945 .25498963 .59246829 .25498963 .59846499 .25498963 .61546328 .24299622 .62545779 .22599793 .62545779 .22299195 .62545779 .19499207 .62446597 .18598938 .58947756L.14698792 .43066407H.052993776C.032989503 .43066407 .022994996 .43066407 .022994996 .4116516 .022994996 .3996582 .0309906 .3996582 .050994874 .3996582H.13899231C.066986087 .11608887 .06298828 .099121097 .06298828 .08114624 .06298828 .02722168 .100997928-.0107421879 .15499878-.0107421879 .25698854-.0107421879 .31399537 .13505554 .31399537 .14305115 .31399537 .1530304 .30599977 .1530304 .3019867 .1530304 .29299928 .1530304 .2919922 .15003968 .2869873 .13905335 .24398804 .035217287 .19099427 .011245728 .15699768 .011245728 .13598633 .011245728 .12599182 .024230957 .12599182 .057174684 .12599182 .08114624 .12799073 .088134769 .13198853 .10510254L.20599365 .3996582Z"/>
<path id="font_1_1" d="M.30299378 .3157959H.47299195C.61499026 .3157959 .7539978 .41973878 .7539978 .53167727 .7539978 .6086273 .6879883 .6826172 .5569916 .6826172H.23298645C.21398926 .6826172 .20298767 .6826172 .20298767 .66360476 .20298767 .6516113 .21199036 .6516113 .23199463 .6516113 .24499512 .6516113 .2630005 .65060427 .2749939 .6496124 .29100038 .6476135 .29699708 .64460757 .29699708 .6336212 .29699708 .6296234 .29599 .62661746 .29299928 .614624L.15899658 .07795715C.14898682 .038986207 .14698792 .0309906 .067993167 .0309906 .050994874 .0309906 .039993287 .0309906 .039993287 .011993408 .039993287 0 .051986696 0 .054992677 0 .08299255 0 .1539917 .0029907227 .18199158 .0029907227 .20298767 .0029907227 .22499085 .0019989014 .24598694 .0019989014 .2679901 .0019989014 .2899933 0 .31098939 0 .31799317 0 .33099366 0 .33099366 .019989014 .33099366 .0309906 .32199098 .0309906 .30299378 .0309906 .2659912 .0309906 .23799134 .0309906 .23799134 .048980714 .23799134 .054977418 .23999024 .05996704 .24099732 .065963748L.30299378 .3157959M.375 .6136322C.38398744 .64860537 .38598634 .6516113 .42900086 .6516113H.5249939C.60798647 .6516113 .6609955 .62461856 .6609955 .55566409 .6609955 .5166931 .6409912 .43074037 .60198977 .39476014 .5519867 .34977723 .49198915 .34179688 .44799806 .34179688H.30699159L.375 .6136322Z"/>
<path id="font_2_7" d="M.13198853 .327713V.35173036C.13198853 .6047821 .2559967 .64100649 .30699159 .64100649 .33099366 .64100649 .37298585 .634964 .394989 .6007538 .37998963 .6007538 .33999635 .6007538 .33999635 .5557556 .33999635 .524765 .3639984 .5097656 .38598634 .5097656 .4019928 .5097656 .43199159 .51875308 .43199159 .5577545 .43199159 .6178589 .3880005 .6660156 .30499269 .6660156 .1769867 .6660156 .041992189 .5367584 .041992189 .31570436 .041992189 .048553468 .1579895-.022460938 .25099183-.022460938 .3619995-.022460938 .45700074 .07156372 .45700074 .2036438 .45700074 .33070375 .36799623 .4267578 .25698854 .4267578 .18899536 .4267578 .1519928 .37573243 .13198853 .327713M.25099183 .0055389406C.18798828 .0055389406 .1579895 .06556702 .1519928 .080566409 .13398743 .127594 .13398743 .2076416 .13398743 .22564698 .13398743 .30369569 .1659851 .40374757 .2559967 .40374757 .27198792 .40374757 .31799317 .40374757 .34899903 .34172059 .36698915 .30470277 .36698915 .2536621 .36698915 .20463562 .36698915 .15661621 .36698915 .10658264 .34999085 .0705719 .31999208 .010528564 .27398683 .0055389406 .25099183 .0055389406Z"/>
<path id="font_2_2" d="M.2939911 .64004519C.2939911 .66400149 .2939911 .6660156 .2709961 .6660156 .20899964 .60227969 .12098694 .60227969 .08898926 .60227969V.57128909C.10899353 .57128909 .16799927 .57128909 .21998596 .5972748V.07902527C.21998596 .042999269 .21699524 .0309906 .1269989 .0309906H.09498596V0C.12998963 .0029907227 .21699524 .0029907227 .25698854 .0029907227 .29699708 .0029907227 .38398744 .0029907227 .4189911 0V.0309906H.3869934C.29699708 .0309906 .2939911 .041992189 .2939911 .07902527V.64004519Z"/>
<path id="font_2_3" d="M.1269989 .07699585 .23298645 .18003845C.3889923 .31811524 .44898988 .3721466 .44898988 .47216798 .44898988 .5860901 .35899354 .6660156 .23699951 .6660156 .12399292 .6660156 .049987794 .57411196 .049987794 .48516847 .049987794 .4291687 .099990848 .4291687 .102996829 .4291687 .11999512 .4291687 .15499878 .44117738 .15499878 .48217774 .15499878 .5081787 .13699341 .5341797 .101989749 .5341797 .09399414 .5341797 .09199524 .5341797 .08898926 .5331726 .11199951 .59806826 .1659851 .63500979 .22399903 .63500979 .31498719 .63500979 .35798646 .5541382 .35798646 .47216798 .35798646 .39215089 .30799867 .31311036 .25299073 .25108338L.06098938 .036987306C.049987794 .025985718 .049987794 .023986817 .049987794 0H.42099L.44898988 .17404175H.42399598C.4189911 .14402771 .4119873 .1000061 .4019928 .084991458 .394989 .07699585 .32899476 .07699585 .30699159 .07699585H.1269989Z"/>
<path id="font_2_8" d="M.16299439 .4569702C.116989139 .486969 .11299133 .52098086 .11299133 .5379791 .11299133 .598999 .17799378 .64100649 .24899292 .64100649 .32199098 .64100649 .38598634 .58898928 .38598634 .51698306 .38598634 .45996095 .34700013 .4119568 .2869873 .37695313L.16299439 .4569702M.30899049 .36193849C.3809967 .3989563 .42999269 .45095826 .42999269 .51698306 .42999269 .6090088 .34098817 .6660156 .25 .6660156 .1499939 .6660156 .068984989 .59199526 .068984989 .49897767 .068984989 .4809723 .070999149 .43595887 .11299133 .38894654 .12399292 .37695313 .16099549 .35194398 .18598938 .33494569 .12799073 .30592347 .041992189 .24984741 .041992189 .15072632 .041992189 .04458618 .14399719-.022460938 .24899292-.022460938 .3619995-.022460938 .45700074 .06060791 .45700074 .16773987 .45700074 .20379639 .44599916 .24885559 .4079895 .2909088 .3889923 .31193543 .37298585 .3219452 .30899049 .36193849M.20899964 .3199463 .33198548 .24183655C.3600006 .2228241 .40699769 .19277954 .40699769 .13169861 .40699769 .05760193 .33198548 .0055389406 .25 .0055389406 .1639862 .0055389406 .09199524 .067611698 .09199524 .15072632 .09199524 .20880127 .12399292 .27288819 .20899964 .3199463Z"/>
<path id="font_2_5" d="M.2939911 .16503906V.07800293C.2939911 .041992189 .2919922 .0309906 .21798706 .0309906H.19699097V0C.23799134 .0029907227 .2899933 .0029907227 .33198548 .0029907227 .37399293 .0029907227 .4269867 .0029907227 .46798707 0V.0309906H.44699098C.37298585 .0309906 .37098695 .041992189 .37098695 .07800293V.16503906H.47099305V.19602967H.37098695V.65075686C.37098695 .67074587 .37098695 .6767578 .35499574 .6767578 .34599305 .6767578 .34298707 .6767578 .33499146 .66474917L.027999878 .19602967V.16503906H.2939911M.2999878 .19602967H.055999757L.2999878 .5688019V.19602967Z"/>
<path id="font_2_4" d="M.2899933 .35191346C.37199403 .37893678 .42999269 .4490509 .42999269 .52809146 .42999269 .6100464 .34199525 .6660156 .24598694 .6660156 .14498902 .6660156 .068984989 .60606387 .068984989 .53009036 .068984989 .49710084 .09098816 .47808839 .11999512 .47808839 .15098572 .47808839 .17098999 .50009158 .17098999 .5290985 .17098999 .57910159 .12399292 .57910159 .10899353 .57910159 .13999939 .62802127 .20599365 .64100649 .24198914 .64100649 .2829895 .64100649 .33799745 .6190338 .33799745 .5290985 .33799745 .51708987 .33599855 .45906068 .30999757 .4149933 .27999879 .36691285 .24598694 .36390687 .22099304 .36291505 .21299744 .36190797 .18899536 .35990907 .18199158 .35990907 .17399597 .35890199 .16699219 .35791017 .16699219 .3479004 .16699219 .33691407 .17399597 .33691407 .19099427 .33691407H.23498535C.31698609 .33691407 .35398866 .2686615 .35398866 .17037964 .35398866 .034469606 .2849884 .0055389406 .24099732 .0055389406 .19799805 .0055389406 .12298584 .022491456 .08799744 .08137512 .12298584 .07637024 .1539917 .09837341 .1539917 .1363678 .1539917 .17237854 .1269989 .19238281 .09799194 .19238281 .07398987 .19238281 .041992189 .17837525 .041992189 .1343689 .041992189 .043441774 .1349945-.022460938 .24398804-.022460938 .3659973-.022460938 .45700074 .06838989 .45700074 .17037964 .45700074 .252594 .3939972 .33088685 .2899933 .35191346Z"/>
<path id="font_2_1" d="M.45999146 .31976319C.45999146 .39982606 .45498658 .47988893 .41999818 .5539398 .37399293 .65000918 .2919922 .6660156 .25 .6660156 .18998719 .6660156 .116989139 .64001467 .07598877 .54693606 .04399109 .47789 .038986207 .39982606 .038986207 .31976319 .038986207 .24472046 .042999269 .15464783 .083999637 .07859802 .1269989-.0024719239 .19999695-.022460938 .24899292-.022460938 .30299378-.022460938 .3789978-.0014648438 .4229889 .09359741 .45498658 .16265869 .45999146 .2407074 .45999146 .31976319M.24899292-.00047302247C.20999146-.00047302247 .15098572 .024551392 .1329956 .12062073 .12199402 .18066406 .12199402 .2727356 .12199402 .3317871 .12199402 .39582826 .12199402 .46188355 .12998963 .5159149 .14898682 .63500979 .22399903 .64401248 .24899292 .64401248 .28199769 .64401248 .34799195 .6259918 .36698915 .52693179 .3769989 .47088624 .3769989 .39482118 .3769989 .3317871 .3769989 .25672914 .3769989 .18867493 .3659973 .12461853 .35099793 .029556275 .2939911-.00047302247 .24899292-.00047302247Z"/>
<path id="font_2_6" d="M.44898988 .20022583C.44898988 .3193512 .36698915 .41944886 .25898744 .41944886 .21099854 .41944886 .16799927 .40345765 .13198853 .36842347V.5637665C.1519928 .5577698 .18499756 .55078127 .21699524 .55078127 .33999635 .55078127 .4099884 .6417694 .4099884 .6547699 .4099884 .6607666 .40699769 .6657715 .3999939 .6657715 .39898683 .6657715 .39698792 .6657715 .3919983 .66278079 .37199403 .6537781 .32299806 .6337738 .2559967 .6337738 .21598816 .6337738 .16999817 .6407776 .12298584 .6617737 .114990238 .66477969 .11299133 .66477969 .11099243 .66477969 .100997928 .66477969 .100997928 .6567688 .100997928 .6407776V.34439088C.100997928 .32637025 .100997928 .31835938 .114990238 .31835938 .12199402 .31835938 .12399292 .32136537 .12799073 .32736207 .13899231 .3433838 .17599488 .39746095 .25698854 .39746095 .30899049 .39746095 .33399964 .35139466 .34199525 .33337403 .35798646 .29632569 .3600006 .25727845 .3600006 .20722962 .3600006 .17222595 .3600006 .11222839 .33599855 .07035828 .31199647 .031463624 .2749939 .0055389406 .22898865 .0055389406 .1559906 .0055389406 .09899902 .058380128 .08198547 .11723328 .084991458 .1162262 .08799744 .115234378 .09899902 .115234378 .13198853 .115234378 .14898682 .14022827 .14898682 .16423035 .14898682 .18823242 .13198853 .21322632 .09899902 .21322632 .084991458 .21322632 .049987794 .20622254 .049987794 .16023255 .049987794 .07434082 .11898804-.022460938 .23098755-.022460938 .34700013-.022460938 .44898988 .073349 .44898988 .20022583Z"/>
</defs>
<path transform="matrix(1.00003,0,0,-1.00008,14.837059,116.01932)" stroke-width=".3985" stroke-linecap="butt" stroke-miterlimit="10" stroke-linejoin="miter" fill="none" stroke="#00aeef" d="M0 0H102.04953M0 8.50412H102.04953M0 17.00824H102.04953M0 25.51237H102.04953M0 34.0165H102.04953M0 42.52063H102.04953M0 51.02477H102.04953M0 59.52888H102.04953M0 68.03302H102.04953M0 76.53716H102.04953M0 85.04128H102.04953M0 93.54541H102.04953M0 102.04655H102.04953M0 0V102.04953M8.50412 0V102.04953M17.00824 0V102.04953M25.51237 0V102.04953M34.0165 0V102.04953M42.52063 0V102.04953M51.02477 0V102.04953M59.52888 0V102.04953M68.03302 0V102.04953M76.53716 0V102.04953M85.04128 0V102.04953M93.54541 0V102.04953M102.04655 0V102.04953M102.04953 102.04953"/>
<path transform="matrix(1.00003,0,0,-1.00008,14.837059,116.01932)" stroke-width=".79701" stroke-linecap="butt" stroke-miterlimit="10" stroke-linejoin="miter" fill="none" stroke="#000000" d="M0 0H107.41824"/>
<path transform="matrix(1.00003,0,0,-1.00008,122.25853,116.01932)" d="M1.0361 0C-.25902 .25902-1.55415 .77707-3.1083 1.68365-1.55415 .51805-1.55415-.51805-3.1083-1.68365-1.55415-.77707-.25902-.25902 1.0361 0Z"/>
<path transform="matrix(1.00003,0,0,-1.00008,122.25853,116.01932)" stroke-width=".79701" stroke-linecap="butt" stroke-linejoin="round" fill="none" stroke="#000000" d="M1.0361 0C-.25902 .25902-1.55415 .77707-3.1083 1.68365-1.55415 .51805-1.55415-.51805-3.1083-1.68365-1.55415-.77707-.25902-.25902 1.0361 0Z"/>
<use data-text="t" xlink:href="#font_1_2" transform="matrix(9.962899,0,0,-9.963397,121.89428,112.30002)"/>
<path transform="matrix(1.00003,0,0,-1.00008,14.837059,116.01932)" stroke-width=".79701" stroke-linecap="butt" stroke-miterlimit="10" stroke-linejoin="miter" fill="none" stroke="#000000" d="M0 0V107.41824"/>
<path transform="matrix(0,-1.00008,-1.00003,-0,14.837059,8.5924839)" d="M1.0361 0C-.25902 .25902-1.55415 .77707-3.1083 1.68365-1.55415 .51805-1.55415-.51805-3.1083-1.68365-1.55415-.77707-.25902-.25902 1.0361 0Z"/>
<path transform="matrix(0,-1.00008,-1.00003,-0,14.837059,8.5924839)" stroke-width=".79701" stroke-linecap="butt" stroke-linejoin="round" fill="none" stroke="#000000" d="M1.0361 0C-.25902 .25902-1.55415 .77707-3.1083 1.68365-1.55415 .51805-1.55415-.51805-3.1083-1.68365-1.55415-.77707-.25902-.25902 1.0361 0Z"/>
<use data-text="P" xlink:href="#font_1_1" transform="matrix(9.962899,0,0,-9.963397,3.3377152,7.7266619)"/>
<path transform="matrix(1.00003,0,0,-1.00008,14.837059,116.01932)" stroke-width=".79701" stroke-linecap="butt" stroke-miterlimit="10" stroke-linejoin="miter" fill="none" stroke="#000000" d="M17.00824 1.27554V-1.27568"/>
<path transform="matrix(1.00003,0,0,-1.00008,14.837059,116.01932)" d="M13.52127-12.07973H20.495209V-3.66675H13.52127Z" fill="#ffffff"/>
<use data-text="6" xlink:href="#font_2_7" transform="matrix(9.962899,0,0,-9.963397,29.355492,127.1032)"/>
<path transform="matrix(1.00003,0,0,-1.00008,14.837059,116.01932)" stroke-width=".79701" stroke-linecap="butt" stroke-miterlimit="10" stroke-linejoin="miter" fill="none" stroke="#000000" d="M34.0165 1.27554V-1.27568"/>
<path transform="matrix(1.00003,0,0,-1.00008,14.837059,116.01932)" d="M28.03882-12.07973H39.99416V-3.66675H28.03882Z" fill="#ffffff"/>
<use data-text="1" xlink:href="#font_2_2" transform="matrix(9.962899,0,0,-9.963397,43.872934,127.1032)"/>
<use data-text="2" xlink:href="#font_2_3" transform="matrix(9.962899,0,0,-9.963397,48.854387,127.1032)"/>
<path transform="matrix(1.00003,0,0,-1.00008,14.837059,116.01932)" stroke-width=".79701" stroke-linecap="butt" stroke-miterlimit="10" stroke-linejoin="miter" fill="none" stroke="#000000" d="M51.02477 1.27554V-1.27568"/>
<path transform="matrix(1.00003,0,0,-1.00008,14.837059,116.01932)" d="M45.04709-12.07973H57.00243V-3.66675H45.04709Z" fill="#ffffff"/>
<use data-text="1" xlink:href="#font_2_2" transform="matrix(9.962899,0,0,-9.963397,60.881444,127.1032)"/>
<use data-text="8" xlink:href="#font_2_8" transform="matrix(9.962899,0,0,-9.963397,65.8629,127.1032)"/>
<path transform="matrix(1.00003,0,0,-1.00008,14.837059,116.01932)" stroke-width=".79701" stroke-linecap="butt" stroke-miterlimit="10" stroke-linejoin="miter" fill="none" stroke="#000000" d="M68.03302 1.27554V-1.27568"/>
<path transform="matrix(1.00003,0,0,-1.00008,14.837059,116.01932)" d="M62.05534-12.07973H74.01068V-3.66675H62.05534Z" fill="#ffffff"/>
<use data-text="2" xlink:href="#font_2_3" transform="matrix(9.962899,0,0,-9.963397,77.89095,127.1032)"/>
<use data-text="4" xlink:href="#font_2_5" transform="matrix(9.962899,0,0,-9.963397,82.872409,127.1032)"/>
<path transform="matrix(1.00003,0,0,-1.00008,14.837059,116.01932)" stroke-width=".79701" stroke-linecap="butt" stroke-miterlimit="10" stroke-linejoin="miter" fill="none" stroke="#000000" d="M85.04128 1.27554V-1.27568"/>
<path transform="matrix(1.00003,0,0,-1.00008,14.837059,116.01932)" d="M79.0636-12.07973H91.018939V-3.66675H79.0636Z" fill="#ffffff"/>
<use data-text="3" xlink:href="#font_2_4" transform="matrix(9.962899,0,0,-9.963397,94.89946,127.1032)"/>
<use data-text="0" xlink:href="#font_2_1" transform="matrix(9.962899,0,0,-9.963397,99.88091,127.1032)"/>
<path transform="matrix(1.00003,0,0,-1.00008,14.837059,116.01932)" stroke-width=".79701" stroke-linecap="butt" stroke-miterlimit="10" stroke-linejoin="miter" fill="none" stroke="#000000" d="M102.04953 1.27554V-1.27568"/>
<path transform="matrix(1.00003,0,0,-1.00008,14.837059,116.01932)" d="M96.07185-12.07973H108.02719V-3.66675H96.07185Z" fill="#ffffff"/>
<use data-text="3" xlink:href="#font_2_4" transform="matrix(9.962899,0,0,-9.963397,111.907978,127.1032)"/>
<use data-text="6" xlink:href="#font_2_7" transform="matrix(9.962899,0,0,-9.963397,116.88943,127.1032)"/>
<path transform="matrix(1.00003,0,0,-1.00008,14.837059,116.01932)" stroke-width=".79701" stroke-linecap="butt" stroke-miterlimit="10" stroke-linejoin="miter" fill="none" stroke="#000000" d="M1.27554 42.52063H-1.27568"/>
<path transform="matrix(1.00003,0,0,-1.00008,14.837059,116.01932)" d="M-10.64067 38.31413H-3.66673V46.727109H-10.64067Z" fill="#ffffff"/>
<use data-text="5" xlink:href="#font_2_6" transform="matrix(9.962899,0,0,-9.963397,5.192772,76.70618)"/>
<path transform="matrix(1.00003,0,0,-1.00008,14.837059,116.01932)" stroke-width=".79701" stroke-linecap="butt" stroke-miterlimit="10" stroke-linejoin="miter" fill="none" stroke="#000000" d="M1.27554 85.04128H-1.27568"/>
<path transform="matrix(1.00003,0,0,-1.00008,14.837059,116.01932)" d="M-15.62209 80.83478H-3.66675V89.24776H-15.62209Z" fill="#ffffff"/>
<use data-text="1" xlink:href="#font_2_2" transform="matrix(9.962899,0,0,-9.963397,.21061707,34.18177)"/>
<use data-text="0" xlink:href="#font_2_1" transform="matrix(9.962899,0,0,-9.963397,5.19207,34.18177)"/>
<path transform="matrix(1.00003,0,0,-1.00008,14.837059,116.01932)" stroke-width="1.19553" stroke-linecap="butt" stroke-miterlimit="10" stroke-linejoin="miter" fill="none" stroke="#ff0000" d="M0 .85045C0 .85045 .88072 .89734 1.21898 .91637 1.55724 .9354 2.0997 .96709 2.43796 .98761 2.77623 1.00813 3.3187 1.04219 3.65695 1.0643 3.99522 1.0864 4.53769 1.12311 4.87595 1.14696 5.2142 1.17079 5.75668 1.2104 6.09494 1.2361 6.4332 1.26178 6.97566 1.30446 7.31392 1.33212 7.65219 1.35979 8.19466 1.40573 8.53293 1.43555 8.87119 1.46536 9.41365 1.51488 9.7519 1.54701 10.09016 1.57915 10.63263 1.63254 10.9709 1.66718 11.30917 1.70181 11.85162 1.75934 12.1899 1.79668 12.52815 1.83401 13.07062 1.89606 13.40889 1.9363 13.74715 1.97653 14.28961 2.04333 14.62787 2.08669 14.96614 2.13005 15.50859 2.20206 15.84686 2.24878 16.18513 2.29549 16.7276 2.3731 17.06586 2.42343 17.40411 2.47377 17.94658 2.55733 18.28485 2.61159 18.62311 2.66585 19.16559 2.75607 19.50385 2.81453 19.8421 2.87302 20.38457 2.97005 20.72282 3.03307 21.06108 3.09607 21.60356 3.20079 21.94182 3.2687 22.28009 3.33662 22.82256 3.44948 23.16081 3.52266 23.49907 3.59584 24.04153 3.71732 24.3798 3.7962 24.71806 3.87506 25.26053 4.00613 25.59879 4.09116 25.93706 4.17615 26.47952 4.3172 26.8178 4.4088 27.15605 4.5004 27.69852 4.65263 28.03677 4.75137 28.37503 4.85011 28.9175 5.01404 29.25575 5.1204 29.59404 5.22678 30.13649 5.40338 30.47476 5.518 30.81302 5.63264 31.35548 5.82304 31.69374 5.94661 32.032 6.07018 32.57448 6.27542 32.91273 6.40857 33.251 6.54172 33.79347 6.76285 34.13173 6.90634 34.46999 7.04984 35.01247 7.28815 35.35072 7.4428 35.68898 7.59743 36.23145 7.85422 36.56972 8.02087 36.90797 8.18753 37.45044 8.4644 37.78871 8.644 38.12697 8.82358 38.66943 9.12173 39.00769 9.31526 39.34595 9.50879 39.88841 9.83025 40.2267 10.03882 40.56496 10.24739 41.10742 10.59377 41.44568 10.81856 41.78394 11.04337 42.3264 11.41678 42.66466 11.65903 43.00293 11.90129 43.5454 12.30348 43.88365 12.56451 44.22192 12.82553 44.76439 13.259 45.10265 13.54033 45.4409 13.82166 45.98338 14.28899 46.32164 14.5922 46.6599 14.89539 47.20236 15.39894 47.54062 15.72566 47.87889 16.0524 48.42137 16.5949 48.75963 16.94699 49.09789 17.29909 49.64035 17.88383 49.9786 18.2633 50.31686 18.64278 50.85933 19.27304 51.19762 19.68199 51.53587 20.09094 52.07834 20.77008 52.4166 21.21074 52.75485 21.6514 53.29732 22.38307 53.63559 22.85794 53.97386 23.33282 54.51631 24.12152 54.85458 24.63335 55.19284 25.1452 55.7353 25.99536 56.07356 26.54697 56.41183 27.09859 56.9543 28.01465 57.29256 28.60904 57.63081 29.2034 58.17328 30.19029 58.51155 30.83083 58.84981 31.47137 59.39229 32.53528 59.73055 33.2256 60.0688 33.91591 60.61127 35.06224 60.94952 35.80618 61.28778 36.55013 61.83026 37.78568 62.16853 38.58739 62.50679 39.38911 63.04926 40.72029 63.38751 41.5844 63.72577 42.44849 64.26823 43.88405 64.6065 44.81523 64.94476 45.74641 65.48723 47.29231 65.82549 48.29572 66.16376 49.29913 66.70622 50.96585 67.0445 52.04716 67.38275 53.12846 67.92522 54.92366 68.26347 56.08902 68.60175 57.25435 69.1442 59.19023 69.48247 60.44618 69.82074 61.70213 70.3632 63.78763 70.70146 65.141 71.03972 66.49435 71.58218 68.74184 71.92044 70.20032 72.25871 71.65878 72.80118 74.08069 73.13945 75.65268 73.4777 77.22467 74.02017 79.83607 74.35843 81.53017 74.69669 83.22424 75.23917 86.03708 75.57742 87.86246 75.91568 89.68782 76.45815 92.71904 76.79642 94.68616 77.13467 96.65326 78.01541 102.04007 77.71321 100.19171"/>
<path transform="matrix(.16135484,-.98692896,-.98687967,-.1613629,92.552608,15.819603)" d="M1.27522 0C-.31879 .31879-1.91284 .9564-3.8257 2.07224-1.91284 .6376-1.91284-.6376-3.8257-2.07224-1.91284-.9564-.31879-.31879 1.27522 0Z" fill="#ff0000"/>
<path transform="matrix(.16135484,-.98692896,-.98687967,-.1613629,92.552608,15.819603)" stroke-width="1.19553" stroke-linecap="butt" stroke-linejoin="round" fill="none" stroke="#ff0000" d="M1.27522 0C-.31879 .31879-1.91284 .9564-3.8257 2.07224-1.91284 .6376-1.91284-.6376-3.8257-2.07224-1.91284-.9564-.31879-.31879 1.27522 0Z"/>
</svg>
