<?xml version="1.0" encoding="UTF-8"?>
<svg xmlns="http://www.w3.org/2000/svg" xmlns:xlink="http://www.w3.org/1999/xlink" width="71pt" height="71pt" viewBox="0 0 71 71" version="1.1">
<g id="surface1">
<path style="fill-rule:nonzero;fill:rgb(100%,75%,75%);fill-opacity:1;stroke-width:0.3985;stroke-linecap:butt;stroke-linejoin:miter;stroke:rgb(100%,75%,75%);stroke-opacity:1;stroke-miterlimit:10;" d="M 0.00187719 -0.00125 L 0.00187719 68.033906 L 45.354625 68.033906 L 45.354625 -0.00125 Z M 0.00187719 -0.00125 " transform="matrix(1.00006,0,0,-1,1.294998,69.03)"/>
<path style="fill-rule:nonzero;fill:rgb(0%,0%,100%);fill-opacity:0.4;stroke-width:0.3985;stroke-linecap:butt;stroke-linejoin:miter;stroke:rgb(0%,0%,100%);stroke-opacity:0.4;stroke-miterlimit:10;" d="M 0.00187719 22.678438 L 0.00187719 68.033906 L 68.032952 68.033906 L 68.032952 22.678438 Z M 0.00187719 22.678438 " transform="matrix(1.00006,0,0,-1,1.294998,69.03)"/>
<path style="fill:none;stroke-width:0.79701;stroke-linecap:butt;stroke-linejoin:miter;stroke:rgb(0%,0%,0%);stroke-opacity:1;stroke-miterlimit:10;" d="M 0.00187719 -0.00125 L 68.032952 -0.00125 M 0.00187719 22.678438 L 68.032952 22.678438 M 0.00187719 45.354219 L 68.032952 45.354219 M 0.00187719 68.026094 L 68.032952 68.026094 M 0.00187719 -0.00125 L 0.00187719 68.033906 M 22.676298 -0.00125 L 22.676298 68.033906 M 45.354625 -0.00125 L 45.354625 68.033906 M 68.02514 -0.00125 L 68.02514 68.033906 " transform="matrix(1.00006,0,0,-1,1.294998,69.03)"/>
</g>
</svg>
