<?xml version="1.0" encoding="UTF-8"?>
<svg xmlns="http://www.w3.org/2000/svg" xmlns:xlink="http://www.w3.org/1999/xlink" width="184pt" height="59pt" viewBox="0 0 184 59" version="1.1">
<g id="surface1">
<path style="fill-rule:nonzero;fill:rgb(0%,0%,100%);fill-opacity:1;stroke-width:0.3985;stroke-linecap:butt;stroke-linejoin:miter;stroke:rgb(0%,0%,100%);stroke-opacity:1;stroke-miterlimit:10;" d="M 0.00171016 0.00187448 L 0.00171016 56.695486 L 45.354911 56.695486 L 45.354911 0.00187448 Z M 0.00171016 0.00187448 " transform="matrix(1.00005,0,0,-1.00003,1.295165,57.693281)"/>
<path style="fill:none;stroke-width:0.79701;stroke-linecap:butt;stroke-linejoin:miter;stroke:rgb(0%,0%,0%);stroke-opacity:1;stroke-miterlimit:10;" d="M 0.00171016 0.00187448 L 181.418421 0.00187448 M 0.00171016 28.34868 L 181.418421 28.34868 M 0.00171016 56.683768 L 181.418421 56.683768 M 0.00171016 0.00187448 L 0.00171016 56.695486 M 22.676358 0.00187448 L 22.676358 56.695486 M 45.354911 0.00187448 L 45.354911 56.695486 M 68.033465 0.00187448 L 68.033465 56.695486 M 90.712018 0.00187448 L 90.712018 56.695486 M 113.386666 0.00187448 L 113.386666 56.695486 M 136.065219 0.00187448 L 136.065219 56.695486 M 158.743773 0.00187448 L 158.743773 56.695486 M 181.410608 0.00187448 L 181.410608 56.695486 " transform="matrix(1.00005,0,0,-1.00003,1.295165,57.693281)"/>
</g>
</svg>
