<?xml version="1.0" encoding="UTF-8"?>
<svg xmlns="http://www.w3.org/2000/svg" xmlns:xlink="http://www.w3.org/1999/xlink" width="116pt" height="116pt" viewBox="0 0 116 116" version="1.1">
<g id="surface1">
<path style="fill-rule:nonzero;fill:rgb(0%,0%,100%);fill-opacity:1;stroke-width:0.3985;stroke-linecap:butt;stroke-linejoin:miter;stroke:rgb(0%,0%,100%);stroke-opacity:1;stroke-miterlimit:10;" d="M 0.00171016 85.04025 L 0.00171016 113.387906 L 113.386666 113.387906 L 113.386666 85.04025 Z M 0.00171016 85.04025 " transform="matrix(1.00005,0,0,-1,1.295165,114.384)"/>
<path style="fill:none;stroke-width:0.79701;stroke-linecap:butt;stroke-linejoin:miter;stroke:rgb(0%,0%,0%);stroke-opacity:1;stroke-miterlimit:10;" d="M 0.00171016 0.0011875 L 113.386666 0.0011875 M 0.00171016 28.344938 L 113.386666 28.344938 M 0.00171016 56.692594 L 113.386666 56.692594 M 0.00171016 85.04025 L 113.386666 85.04025 M 0.00171016 113.376188 L 113.386666 113.376188 M 0.00171016 0.0011875 L 0.00171016 113.387906 M 22.676358 0.0011875 L 22.676358 113.387906 M 45.354911 0.0011875 L 45.354911 113.387906 M 68.033465 0.0011875 L 68.033465 113.387906 M 90.712018 0.0011875 L 90.712018 113.387906 M 113.378854 0.0011875 L 113.378854 113.387906 " transform="matrix(1.00005,0,0,-1,1.295165,114.384)"/>
</g>
</svg>
