<?xml version="1.0" encoding="UTF-8"?>
<svg xmlns="http://www.w3.org/2000/svg" xmlns:xlink="http://www.w3.org/1999/xlink" width="184pt" height="173pt" viewBox="0 0 184 173" version="1.1">
<g id="surface1">
<path style="fill-rule:nonzero;fill:rgb(0%,0%,100%);fill-opacity:1;stroke-width:0.3985;stroke-linecap:butt;stroke-linejoin:miter;stroke:rgb(0%,0%,100%);stroke-opacity:1;stroke-miterlimit:10;" d="M 0.00171016 -0.001125 L 0.00171016 170.080906 L 45.354911 170.080906 L 45.354911 -0.001125 Z M 0.00171016 -0.001125 " transform="matrix(1.00005,0,0,-1,1.295165,171.077)"/>
<path style="fill:none;stroke-width:0.79701;stroke-linecap:butt;stroke-linejoin:miter;stroke:rgb(0%,0%,0%);stroke-opacity:1;stroke-miterlimit:10;" d="M 0.00171016 -0.001125 L 181.418421 -0.001125 M 0.00171016 28.346531 L 181.418421 28.346531 M 0.00171016 56.694187 L 181.418421 56.694187 M 0.00171016 85.041844 L 181.418421 85.041844 M 0.00171016 113.385594 L 181.418421 113.385594 M 0.00171016 141.73325 L 181.418421 141.73325 M 0.00171016 170.069187 L 181.418421 170.069187 M 0.00171016 -0.001125 L 0.00171016 170.080906 M 22.676358 -0.001125 L 22.676358 170.080906 M 45.354911 -0.001125 L 45.354911 170.080906 M 68.033465 -0.001125 L 68.033465 170.080906 M 90.712018 -0.001125 L 90.712018 170.080906 M 113.386666 -0.001125 L 113.386666 170.080906 M 136.065219 -0.001125 L 136.065219 170.080906 M 158.743773 -0.001125 L 158.743773 170.080906 M 181.410608 -0.001125 L 181.410608 170.080906 " transform="matrix(1.00005,0,0,-1,1.295165,171.077)"/>
</g>
</svg>
