<?xml version="1.0" encoding="UTF-8"?>
<svg xmlns="http://www.w3.org/2000/svg" xmlns:xlink="http://www.w3.org/1999/xlink" width="185pt" height="173pt" viewBox="0 0 185 173" version="1.1">
<g id="surface1">
<path style="fill:none;stroke-width:0.79701;stroke-linecap:butt;stroke-linejoin:miter;stroke:rgb(0%,0%,0%);stroke-opacity:1;stroke-miterlimit:10;" d="M 0.0000844649 -0.001125 L 181.418887 -0.001125 M 0.0000844649 28.346531 L 181.418887 28.346531 M 0.0000844649 56.694187 L 181.418887 56.694187 M 0.0000844649 85.041844 L 181.418887 85.041844 M 0.0000844649 113.385594 L 181.418887 113.385594 M 0.0000844649 141.73325 L 181.418887 141.73325 M 0.0000844649 170.069187 L 181.418887 170.069187 M 0.0000844649 -0.001125 L 0.0000844649 170.080906 M 22.678411 -0.001125 L 22.678411 170.080906 M 45.356738 -0.001125 L 45.356738 170.080906 M 68.031159 -0.001125 L 68.031159 170.080906 M 90.709486 -0.001125 L 90.709486 170.080906 M 113.387812 -0.001125 L 113.387812 170.080906 M 136.066139 -0.001125 L 136.066139 170.080906 M 158.744466 -0.001125 L 158.744466 170.080906 M 181.411075 -0.001125 L 181.411075 170.080906 " transform="matrix(1.00006,0,0,-1,1.613197,171.077)"/>
</g>
</svg>
