<?xml version="1.0" encoding="UTF-8"?>
<svg xmlns="http://www.w3.org/2000/svg" xmlns:xlink="http://www.w3.org/1999/xlink" width="71pt" height="139pt" viewBox="0 0 71 139" version="1.1">
<g id="surface1">
<path style="fill-rule:nonzero;fill:rgb(100%,75%,75%);fill-opacity:1;stroke-width:0.3985;stroke-linecap:butt;stroke-linejoin:miter;stroke:rgb(100%,75%,75%);stroke-opacity:1;stroke-miterlimit:10;" d="M 0.00187719 -0.000917208 L 0.00187719 136.067507 L 51.026159 136.067507 L 51.026159 -0.000917208 Z M 0.00187719 -0.000917208 " transform="matrix(1.00006,0,0,-1.0001,1.294998,137.077208)"/>
<path style="fill-rule:nonzero;fill:rgb(0%,0%,100%);fill-opacity:0.4;stroke-width:0.3985;stroke-linecap:butt;stroke-linejoin:miter;stroke:rgb(0%,0%,100%);stroke-opacity:0.4;stroke-miterlimit:10;" d="M 0.00187719 51.02523 L 0.00187719 136.067507 L 68.032952 136.067507 L 68.032952 51.02523 Z M 0.00187719 51.02523 " transform="matrix(1.00006,0,0,-1.0001,1.294998,137.077208)"/>
<path style="fill:none;stroke-width:0.79701;stroke-linecap:butt;stroke-linejoin:miter;stroke:rgb(0%,0%,0%);stroke-opacity:1;stroke-miterlimit:10;" d="M 0.00187719 -0.000917208 L 68.032952 -0.000917208 M 0.00187719 17.009101 L 68.032952 17.009101 M 0.00187719 34.015212 L 68.032952 34.015212 M 0.00187719 51.02523 L 68.032952 51.02523 M 0.00187719 68.031342 L 68.032952 68.031342 M 0.00187719 85.04136 L 68.032952 85.04136 M 0.00187719 102.051378 L 68.032952 102.051378 M 0.00187719 119.057489 L 68.032952 119.057489 M 0.00187719 136.059695 L 68.032952 136.059695 M 0.00187719 -0.000917208 L 0.00187719 136.067507 M 17.008669 -0.000917208 L 17.008669 136.067507 M 34.015461 -0.000917208 L 34.015461 136.067507 M 51.026159 -0.000917208 L 51.026159 136.067507 M 68.02514 -0.000917208 L 68.02514 136.067507 " transform="matrix(1.00006,0,0,-1.0001,1.294998,137.077208)"/>
</g>
</svg>
