<?xml version="1.0" encoding="UTF-8"?>
<svg xmlns="http://www.w3.org/2000/svg" xmlns:xlink="http://www.w3.org/1999/xlink" width="107pt" height="61pt" viewBox="0 0 107 61" version="1.1">
<g id="surface1">
<path style="fill-rule:nonzero;fill:rgb(100%,50%,0%);fill-opacity:1;stroke-width:0.3985;stroke-linecap:butt;stroke-linejoin:miter;stroke:rgb(0%,0%,0%);stroke-opacity:1;stroke-miterlimit:10;" d="M 0.00174031 0.000964102 L -28.348405 0.000964102 L -28.348405 28.34692 Z M 0.00174031 0.000964102 " transform="matrix(1.00005,0,0,-1.00006,30.443572,54.985339)"/>
<path style="fill-rule:nonzero;fill:rgb(100%,75%,75%);fill-opacity:1;stroke-width:0.3985;stroke-linecap:butt;stroke-linejoin:miter;stroke:rgb(0%,0%,0%);stroke-opacity:1;stroke-miterlimit:10;" d="M 0.00174031 0.000964102 L -28.348405 28.34692 L -8.302532 48.392592 Z M 0.00174031 0.000964102 " transform="matrix(1.00005,0,0,-1.00006,30.443572,54.985339)"/>
<path style="fill-rule:nonzero;fill:rgb(100%,94.898987%,0%);fill-opacity:1;stroke-width:0.3985;stroke-linecap:butt;stroke-linejoin:miter;stroke:rgb(0%,0%,0%);stroke-opacity:1;stroke-miterlimit:10;" d="M 0.00174031 0.000964102 L -8.302532 48.392592 L 19.633571 53.185273 Z M 0.00174031 0.000964102 " transform="matrix(1.00005,0,0,-1.00006,30.443572,54.985339)"/>
<path style="fill-rule:nonzero;fill:rgb(0%,100%,0%);fill-opacity:1;stroke-width:0.3985;stroke-linecap:butt;stroke-linejoin:miter;stroke:rgb(0%,0%,0%);stroke-opacity:1;stroke-miterlimit:10;" d="M 0.00174031 0.000964102 L 19.633571 53.185273 L 46.225992 43.36555 Z M 0.00174031 0.000964102 " transform="matrix(1.00005,0,0,-1.00006,30.443572,54.985339)"/>
<path style="fill-rule:nonzero;fill:rgb(0%,0%,100%);fill-opacity:1;stroke-width:0.3985;stroke-linecap:butt;stroke-linejoin:miter;stroke:rgb(0%,0%,0%);stroke-opacity:1;stroke-miterlimit:10;" d="M 0.00174031 0.000964102 L 46.225992 43.36555 L 65.619553 22.694915 Z M 0.00174031 0.000964102 " transform="matrix(1.00005,0,0,-1.00006,30.443572,54.985339)"/>
<path style="fill-rule:nonzero;fill:rgb(92.549133%,0%,54.899597%);fill-opacity:1;stroke-width:0.3985;stroke-linecap:butt;stroke-linejoin:miter;stroke:rgb(0%,0%,0%);stroke-opacity:1;stroke-miterlimit:10;" d="M 0.00174031 0.000964102 L 65.619553 22.694915 L 74.884715 -4.096446 Z M 0.00174031 0.000964102 " transform="matrix(1.00005,0,0,-1.00006,30.443572,54.985339)"/>
</g>
</svg>
