<?xml version="1.0" encoding="UTF-8" standalone="no"?>
<!-- Created with Inkscape (http://www.inkscape.org/) -->

<svg
   xmlns:dc="http://purl.org/dc/elements/1.1/"
   xmlns:cc="http://creativecommons.org/ns#"
   xmlns:rdf="http://www.w3.org/1999/02/22-rdf-syntax-ns#"
   xmlns:svg="http://www.w3.org/2000/svg"
   xmlns="http://www.w3.org/2000/svg"
   xmlns:sodipodi="http://sodipodi.sourceforge.net/DTD/sodipodi-0.dtd"
   xmlns:inkscape="http://www.inkscape.org/namespaces/inkscape"
   width="42.880424mm"
   height="46.610672mm"
   viewBox="0 0 151.93851 165.15592"
   id="svg4070"
   version="1.1"
   inkscape:version="0.91 r13725"
   sodipodi:docname="fig-ex-ans-1-1-3.svg">
  <defs
     id="defs4072">
    <clipPath
       clipPathUnits="userSpaceOnUse"
       id="clipPath3865">
      <path
         d="m 182.411,495.422 121.178,0 0,137.308 -121.178,0 0,-137.308 z"
         id="path3867"
         inkscape:connector-curvature="0" />
    </clipPath>
    <clipPath
       clipPathUnits="userSpaceOnUse"
       id="clipPath3841">
      <path
         d="m 182.411,495.422 121.178,0 0,137.308 -121.178,0 0,-137.308 z"
         id="path3843"
         inkscape:connector-curvature="0" />
    </clipPath>
  </defs>
  <sodipodi:namedview
     id="base"
     pagecolor="#ffffff"
     bordercolor="#666666"
     borderopacity="1.0"
     inkscape:pageopacity="0.0"
     inkscape:pageshadow="2"
     inkscape:zoom="2.1307116"
     inkscape:cx="75.969258"
     inkscape:cy="82.577935"
     inkscape:document-units="px"
     inkscape:current-layer="layer1"
     showgrid="false"
     fit-margin-top="0"
     fit-margin-left="0"
     fit-margin-right="0"
     fit-margin-bottom="0"
     inkscape:window-width="1366"
     inkscape:window-height="715"
     inkscape:window-x="0"
     inkscape:window-y="0"
     inkscape:window-maximized="1" />
  <metadata
     id="metadata4075">
    <rdf:RDF>
      <cc:Work
         rdf:about="">
        <dc:format>image/svg+xml</dc:format>
        <dc:type
           rdf:resource="http://purl.org/dc/dcmitype/StillImage" />
        <dc:title></dc:title>
      </cc:Work>
    </rdf:RDF>
  </metadata>
  <g
     inkscape:label="Layer 1"
     inkscape:groupmode="layer"
     id="layer1"
     transform="translate(-299.03074,-449.78421)">
    <g
       id="g3699"
       transform="matrix(1.25,0,0,-1.25,433.24957,602.63339)">
      <path
         d="m 0,0 0,116.57 m 0,0 -95.27,0 M 0,107.022 l -95.27,0"
         style="fill:none;stroke:#000000;stroke-width:0.199;stroke-linecap:round;stroke-linejoin:round;stroke-miterlimit:4;stroke-dasharray:0, 0.795;stroke-dashoffset:0;stroke-opacity:1"
         id="path3701"
         inkscape:connector-curvature="0" />
    </g>
    <g
       id="g3703"
       transform="matrix(1.25,0,0,-1.25,317.16757,468.85639)">
      <path
         d="M 0,0 -4.971,0"
         style="fill:none;stroke:#000000;stroke-width:0.34799999;stroke-linecap:butt;stroke-linejoin:miter;stroke-miterlimit:4;stroke-dasharray:none;stroke-opacity:1"
         id="path3705"
         inkscape:connector-curvature="0" />
    </g>
    <g
       id="g3707"
       transform="matrix(1.25,0,0,-1.25,334.01044,456.92089)">
      <path
         d="M 0,0 0,-116.482"
         style="fill:none;stroke:#000000;stroke-width:0.199;stroke-linecap:round;stroke-linejoin:round;stroke-miterlimit:4;stroke-dasharray:0, 0.795;stroke-dashoffset:0;stroke-opacity:1"
         id="path3709"
         inkscape:connector-curvature="0" />
    </g>
    <g
       id="g3711"
       transform="matrix(1.25,0,0,-1.25,334.01044,599.51639)">
      <path
         d="M 0,0 0,-4.971"
         style="fill:none;stroke:#000000;stroke-width:0.34799999;stroke-linecap:butt;stroke-linejoin:miter;stroke-miterlimit:4;stroke-dasharray:none;stroke-opacity:1"
         id="path3713"
         inkscape:connector-curvature="0" />
    </g>
    <g
       id="g3715"
       transform="matrix(1.25,0,0,-1.25,353.85782,456.92089)">
      <path
         d="M 0,0 0,-116.482"
         style="fill:none;stroke:#000000;stroke-width:0.199;stroke-linecap:round;stroke-linejoin:round;stroke-miterlimit:4;stroke-dasharray:0, 0.795;stroke-dashoffset:0;stroke-opacity:1"
         id="path3717"
         inkscape:connector-curvature="0" />
    </g>
    <g
       id="g3719"
       transform="matrix(1.25,0,0,-1.25,353.85782,599.51639)">
      <path
         d="M 0,0 0,-4.971"
         style="fill:none;stroke:#000000;stroke-width:0.34799999;stroke-linecap:butt;stroke-linejoin:miter;stroke-miterlimit:4;stroke-dasharray:none;stroke-opacity:1"
         id="path3721"
         inkscape:connector-curvature="0" />
    </g>
    <g
       id="g3723"
       transform="matrix(1.25,0,0,-1.25,373.70445,456.92089)">
      <path
         d="M 0,0 0,-116.482"
         style="fill:none;stroke:#000000;stroke-width:0.199;stroke-linecap:round;stroke-linejoin:round;stroke-miterlimit:4;stroke-dasharray:0, 0.795;stroke-dashoffset:0;stroke-opacity:1"
         id="path3725"
         inkscape:connector-curvature="0" />
    </g>
    <g
       id="g3727"
       transform="matrix(1.25,0,0,-1.25,373.70445,599.51639)">
      <path
         d="M 0,0 0,-4.971"
         style="fill:none;stroke:#000000;stroke-width:0.34799999;stroke-linecap:butt;stroke-linejoin:miter;stroke-miterlimit:4;stroke-dasharray:none;stroke-opacity:1"
         id="path3729"
         inkscape:connector-curvature="0" />
    </g>
    <g
       id="g3731"
       transform="matrix(1.25,0,0,-1.25,393.55295,456.92089)">
      <path
         d="M 0,0 0,-116.482"
         style="fill:none;stroke:#000000;stroke-width:0.199;stroke-linecap:round;stroke-linejoin:round;stroke-miterlimit:4;stroke-dasharray:0, 0.795;stroke-dashoffset:0;stroke-opacity:1"
         id="path3733"
         inkscape:connector-curvature="0" />
    </g>
    <g
       id="g3735"
       transform="matrix(1.25,0,0,-1.25,393.55295,599.51639)">
      <path
         d="M 0,0 0,-4.971"
         style="fill:none;stroke:#000000;stroke-width:0.34799999;stroke-linecap:butt;stroke-linejoin:miter;stroke-miterlimit:4;stroke-dasharray:none;stroke-opacity:1"
         id="path3737"
         inkscape:connector-curvature="0" />
    </g>
    <g
       id="g3739"
       transform="matrix(1.25,0,0,-1.25,413.40032,456.92089)">
      <path
         d="M 0,0 0,-116.482"
         style="fill:none;stroke:#000000;stroke-width:0.199;stroke-linecap:round;stroke-linejoin:round;stroke-miterlimit:4;stroke-dasharray:0, 0.795;stroke-dashoffset:0;stroke-opacity:1"
         id="path3741"
         inkscape:connector-curvature="0" />
    </g>
    <g
       id="g3743"
       transform="matrix(1.25,0,0,-1.25,413.40032,599.51639)">
      <path
         d="m 0,0 0,-4.971 m 15.919,4.118 0,-3.266"
         style="fill:none;stroke:#000000;stroke-width:0.34799999;stroke-linecap:butt;stroke-linejoin:miter;stroke-miterlimit:4;stroke-dasharray:none;stroke-opacity:1"
         id="path3745"
         inkscape:connector-curvature="0" />
    </g>
    <g
       id="g3747"
       transform="matrix(1.25,0,0,-1.25,433.24957,481.01802)">
      <path
         d="M 0,0 -95.27,0 M 0,-9.729 l -95.27,0"
         style="fill:none;stroke:#000000;stroke-width:0.199;stroke-linecap:round;stroke-linejoin:round;stroke-miterlimit:4;stroke-dasharray:0, 0.795;stroke-dashoffset:0;stroke-opacity:1"
         id="path3749"
         inkscape:connector-curvature="0" />
    </g>
    <g
       id="g3751"
       transform="matrix(1.25,0,0,-1.25,317.16757,493.17964)">
      <path
         d="M 0,0 -4.971,0"
         style="fill:none;stroke:#000000;stroke-width:0.34799999;stroke-linecap:butt;stroke-linejoin:miter;stroke-miterlimit:4;stroke-dasharray:none;stroke-opacity:1"
         id="path3753"
         inkscape:connector-curvature="0" />
    </g>
    <g
       id="g3755"
       transform="matrix(1.25,0,0,-1.25,433.24957,505.34077)">
      <path
         d="M 0,0 -95.27,0"
         style="fill:none;stroke:#000000;stroke-width:0.199;stroke-linecap:round;stroke-linejoin:round;stroke-miterlimit:4;stroke-dasharray:0, 0.795;stroke-dashoffset:0;stroke-opacity:1"
         id="path3757"
         inkscape:connector-curvature="0" />
    </g>
    <g
       id="g3759"
       transform="matrix(1.25,0,0,-1.25,317.16757,505.34077)">
      <path
         d="M 0,0 -4.971,0"
         style="fill:none;stroke:#000000;stroke-width:0.34799999;stroke-linecap:butt;stroke-linejoin:miter;stroke-miterlimit:4;stroke-dasharray:none;stroke-opacity:1"
         id="path3761"
         inkscape:connector-curvature="0" />
    </g>
    <g
       id="g3763"
       transform="matrix(1.25,0,0,-1.25,433.24957,517.50239)">
      <path
         d="M 0,0 -95.27,0"
         style="fill:none;stroke:#000000;stroke-width:0.199;stroke-linecap:round;stroke-linejoin:round;stroke-miterlimit:4;stroke-dasharray:0, 0.795;stroke-dashoffset:0;stroke-opacity:1"
         id="path3765"
         inkscape:connector-curvature="0" />
    </g>
    <g
       id="g3767"
       transform="matrix(1.25,0,0,-1.25,317.16757,517.50239)">
      <path
         d="M 0,0 -4.971,0"
         style="fill:none;stroke:#000000;stroke-width:0.34799999;stroke-linecap:butt;stroke-linejoin:miter;stroke-miterlimit:4;stroke-dasharray:none;stroke-opacity:1"
         id="path3769"
         inkscape:connector-curvature="0" />
    </g>
    <g
       id="g3771"
       transform="matrix(1.25,0,0,-1.25,433.24957,529.66476)">
      <path
         d="M 0,0 -95.27,0"
         style="fill:none;stroke:#000000;stroke-width:0.199;stroke-linecap:round;stroke-linejoin:round;stroke-miterlimit:4;stroke-dasharray:0, 0.795;stroke-dashoffset:0;stroke-opacity:1"
         id="path3773"
         inkscape:connector-curvature="0" />
    </g>
    <g
       id="g3775"
       transform="matrix(1.25,0,0,-1.25,317.16757,529.66476)">
      <path
         d="M 0,0 -4.971,0"
         style="fill:none;stroke:#000000;stroke-width:0.34799999;stroke-linecap:butt;stroke-linejoin:miter;stroke-miterlimit:4;stroke-dasharray:none;stroke-opacity:1"
         id="path3777"
         inkscape:connector-curvature="0" />
    </g>
    <g
       id="g3779"
       transform="matrix(1.25,0,0,-1.25,433.24957,541.82577)">
      <path
         d="M 0,0 -95.27,0"
         style="fill:none;stroke:#000000;stroke-width:0.199;stroke-linecap:round;stroke-linejoin:round;stroke-miterlimit:4;stroke-dasharray:0, 0.795;stroke-dashoffset:0;stroke-opacity:1"
         id="path3781"
         inkscape:connector-curvature="0" />
    </g>
    <g
       id="g3783"
       transform="matrix(1.25,0,0,-1.25,317.16757,541.82577)">
      <path
         d="M 0,0 -4.971,0"
         style="fill:none;stroke:#000000;stroke-width:0.34799999;stroke-linecap:butt;stroke-linejoin:miter;stroke-miterlimit:4;stroke-dasharray:none;stroke-opacity:1"
         id="path3785"
         inkscape:connector-curvature="0" />
    </g>
    <g
       id="g3787"
       transform="matrix(1.25,0,0,-1.25,433.24957,553.98814)">
      <path
         d="M 0,0 -95.27,0"
         style="fill:none;stroke:#000000;stroke-width:0.199;stroke-linecap:round;stroke-linejoin:round;stroke-miterlimit:4;stroke-dasharray:0, 0.795;stroke-dashoffset:0;stroke-opacity:1"
         id="path3789"
         inkscape:connector-curvature="0" />
    </g>
    <g
       id="g3791"
       transform="matrix(1.25,0,0,-1.25,317.16757,553.98814)">
      <path
         d="M 0,0 -4.971,0"
         style="fill:none;stroke:#000000;stroke-width:0.34799999;stroke-linecap:butt;stroke-linejoin:miter;stroke-miterlimit:4;stroke-dasharray:none;stroke-opacity:1"
         id="path3793"
         inkscape:connector-curvature="0" />
    </g>
    <g
       id="g3795"
       transform="matrix(1.25,0,0,-1.25,433.24957,566.15039)">
      <path
         d="M 0,0 -95.27,0"
         style="fill:none;stroke:#000000;stroke-width:0.199;stroke-linecap:round;stroke-linejoin:round;stroke-miterlimit:4;stroke-dasharray:0, 0.795;stroke-dashoffset:0;stroke-opacity:1"
         id="path3797"
         inkscape:connector-curvature="0" />
    </g>
    <g
       id="g3799"
       transform="matrix(1.25,0,0,-1.25,317.16757,566.15039)">
      <path
         d="M 0,0 -4.971,0"
         style="fill:none;stroke:#000000;stroke-width:0.34799999;stroke-linecap:butt;stroke-linejoin:miter;stroke-miterlimit:4;stroke-dasharray:none;stroke-opacity:1"
         id="path3801"
         inkscape:connector-curvature="0" />
    </g>
    <g
       id="g3803"
       transform="matrix(1.25,0,0,-1.25,433.24957,578.31039)">
      <path
         d="M 0,0 -95.27,0"
         style="fill:none;stroke:#000000;stroke-width:0.199;stroke-linecap:round;stroke-linejoin:round;stroke-miterlimit:4;stroke-dasharray:0, 0.795;stroke-dashoffset:0;stroke-opacity:1"
         id="path3805"
         inkscape:connector-curvature="0" />
    </g>
    <g
       id="g3807"
       transform="matrix(1.25,0,0,-1.25,317.16757,578.31039)">
      <path
         d="M 0,0 -4.971,0"
         style="fill:none;stroke:#000000;stroke-width:0.34799999;stroke-linecap:butt;stroke-linejoin:miter;stroke-miterlimit:4;stroke-dasharray:none;stroke-opacity:1"
         id="path3809"
         inkscape:connector-curvature="0" />
    </g>
    <g
       id="g3811"
       transform="matrix(1.25,0,0,-1.25,433.24957,590.47251)">
      <path
         d="M 0,0 -95.27,0"
         style="fill:none;stroke:#000000;stroke-width:0.199;stroke-linecap:round;stroke-linejoin:round;stroke-miterlimit:4;stroke-dasharray:0, 0.795;stroke-dashoffset:0;stroke-opacity:1"
         id="path3813"
         inkscape:connector-curvature="0" />
    </g>
    <g
       id="g3815"
       transform="matrix(1.25,0,0,-1.25,317.16757,590.47251)">
      <path
         d="M 0,0 -4.971,0 M 0,-9.729 l -4.971,0"
         style="fill:none;stroke:#000000;stroke-width:0.34799999;stroke-linecap:butt;stroke-linejoin:miter;stroke-miterlimit:4;stroke-dasharray:none;stroke-opacity:1"
         id="path3817"
         inkscape:connector-curvature="0" />
    </g>
    <g
       id="g3819"
       transform="matrix(1.25,0,0,-1.25,314.16194,481.01802)">
      <path
         d="M 0,0 75.235,-97.292"
         style="fill:none;stroke:#da2128;stroke-width:0.99400002;stroke-linecap:butt;stroke-linejoin:miter;stroke-miterlimit:4;stroke-dasharray:none;stroke-opacity:1"
         id="path3821"
         inkscape:connector-curvature="0" />
    </g>
    <text
       y="580.75031"
       x="303.31885"
       transform="scale(0.9999941,1.0000059)"
       style="font-variant:normal;font-weight:normal;font-stretch:normal;font-size:10.56381321px;font-family:'Minion Pro';-inkscape-font-specification:MinionPro-Regular;writing-mode:lr-tb;fill:#000000;fill-opacity:1;fill-rule:nonzero;stroke:none"
       id="text3823">
      <tspan
         x="303.31885"
         y="580.75031"
         id="tspan3825">4</tspan>
      <tspan
         x="328.94669 334.0173 346.26077 351.33139 356.40201 366.13129 371.20193 376.27255 385.99124 391.06189 396.13251 405.85123 410.92184 415.99249 425.71118 430.78183 435.85245"
         y="614.78693"
         sodipodi:role="line"
         id="tspan3827">50100150200250300</tspan>
      <tspan
         x="303.32944"
         y="557.07684"
         id="tspan3829">8</tspan>
      <tspan
         x="298.25879 303.32944"
         y="532.82233"
         sodipodi:role="line"
         id="tspan3831">12</tspan>
      <tspan
         x="298.25879 303.32944"
         y="507.98679"
         sodipodi:role="line"
         id="tspan3833">16</tspan>
      <tspan
         x="298.25879 303.32944"
         y="483.43649"
         sodipodi:role="line"
         id="tspan3835">20</tspan>
    </text>
    <g
       transform="matrix(1.25,0,0,-1.25,70.233315,1237.9191)"
       id="g3837">
      <g
         id="g3839"
         clip-path="url(#clipPath3841)">
        <text
           transform="matrix(0.99998817,0,0,-1,186.167,625.7748)"
           style="font-style:italic;font-variant:normal;font-weight:normal;font-stretch:normal;font-size:8.45110035px;font-family:'Minion Pro';-inkscape-font-specification:MinionPro-It;writing-mode:lr-tb;fill:#000000;fill-opacity:1;fill-rule:nonzero;stroke:none"
           id="text3845">
          <tspan
             x="0"
             y="0"
             id="tspan3847">g</tspan>
        </text>
      </g>
    </g>
    <text
       y="606.20416"
       x="444.21994"
       transform="scale(0.9999941,1.0000059)"
       style="font-style:italic;font-variant:normal;font-weight:normal;font-stretch:normal;font-size:10.56381321px;font-family:'Minion Pro';-inkscape-font-specification:MinionPro-It;writing-mode:lr-tb;fill:#000000;fill-opacity:1;fill-rule:nonzero;stroke:none"
       id="text3849">
      <tspan
         x="444.21994"
         y="606.20416"
         id="tspan3851">d</tspan>
    </text>
    <g
       id="g3853"
       transform="matrix(1.25,0,0,-1.25,314.16194,599.51639)">
      <path
         d="M 0,0 0,-4.971"
         style="fill:none;stroke:#000000;stroke-width:0.34799999;stroke-linecap:butt;stroke-linejoin:miter;stroke-miterlimit:4;stroke-dasharray:none;stroke-opacity:1"
         id="path3855"
         inkscape:connector-curvature="0" />
    </g>
    <g
       id="g3857"
       transform="matrix(1.25,0,0,-1.25,314.16194,602.63339)">
      <path
         d="M 0,0 96.65,0"
         style="fill:none;stroke:#000000;stroke-width:0.74599999;stroke-linecap:butt;stroke-linejoin:miter;stroke-miterlimit:4;stroke-dasharray:none;stroke-opacity:1"
         id="path3859"
         inkscape:connector-curvature="0" />
    </g>
    <g
       transform="matrix(1.25,0,0,-1.25,70.233315,1237.9191)"
       id="g3861">
      <g
         id="g3863"
         clip-path="url(#clipPath3865)">
        <g
           id="g3869"
           transform="translate(293.5548,508.9921)">
          <path
             d="m 0,0 c -1.234,0.372 -2.034,0.715 -3.024,1.114 l 0,-3.764 c 0.354,0.169 1.79,0.74 3.024,1.113 1.319,0.399 2.515,0.671 3.291,0.769 C 2.515,-0.67 1.319,-0.399 0,0"
             style="fill:#000000;fill-opacity:1;fill-rule:nonzero;stroke:none"
             id="path3871"
             inkscape:connector-curvature="0" />
        </g>
        <g
           id="g3873"
           transform="translate(195.1429,507.9064)">
          <path
             d="M 0,0 0,116.892"
             style="fill:none;stroke:#000000;stroke-width:0.74599999;stroke-linecap:butt;stroke-linejoin:miter;stroke-miterlimit:4;stroke-dasharray:none;stroke-opacity:1"
             id="path3875"
             inkscape:connector-curvature="0" />
        </g>
        <g
           id="g3877"
           transform="translate(194.3792,626.5599)">
          <path
             d="m 0,0 c -0.372,-1.233 -0.716,-2.035 -1.113,-3.023 l 3.762,0 C 2.481,-2.67 1.909,-1.233 1.537,0 1.138,1.32 0.866,2.516 0.768,3.292 0.67,2.516 0.398,1.32 0,0"
             style="fill:#000000;fill-opacity:1;fill-rule:nonzero;stroke:none"
             id="path3879"
             inkscape:connector-curvature="0" />
        </g>
        <g
           id="g3881"
           transform="translate(197.5474,605.5209)">
          <path
             d="M 0,0 -4.971,0"
             style="fill:none;stroke:#000000;stroke-width:0.34799999;stroke-linecap:butt;stroke-linejoin:miter;stroke-miterlimit:4;stroke-dasharray:none;stroke-opacity:1"
             id="path3883"
             inkscape:connector-curvature="0" />
        </g>
      </g>
    </g>
  </g>
</svg>
