<?xml version="1.0" encoding="UTF-8" standalone="no"?>
<!-- Created with Inkscape (http://www.inkscape.org/) -->

<svg
   xmlns:dc="http://purl.org/dc/elements/1.1/"
   xmlns:cc="http://creativecommons.org/ns#"
   xmlns:rdf="http://www.w3.org/1999/02/22-rdf-syntax-ns#"
   xmlns:svg="http://www.w3.org/2000/svg"
   xmlns="http://www.w3.org/2000/svg"
   xmlns:sodipodi="http://sodipodi.sourceforge.net/DTD/sodipodi-0.dtd"
   xmlns:inkscape="http://www.inkscape.org/namespaces/inkscape"
   width="57.039047mm"
   height="53.136581mm"
   viewBox="0 0 202.10686 188.27922"
   id="svg7920"
   version="1.1"
   inkscape:version="0.91 r13725"
   sodipodi:docname="fig-example-2-1-1ans.svg">
  <defs
     id="defs7922">
    <clipPath
       clipPathUnits="userSpaceOnUse"
       id="clipPath7504">
      <path
         d="m 378.734,290 161.516,0 0,154.163 -161.516,0 0,-154.163 z"
         id="path7506"
         inkscape:connector-curvature="0" />
    </clipPath>
    <clipPath
       clipPathUnits="userSpaceOnUse"
       id="clipPath7480">
      <path
         d="m 378.734,290 161.516,0 0,154.163 -161.516,0 0,-154.163 z"
         id="path7482"
         inkscape:connector-curvature="0" />
    </clipPath>
    <clipPath
       clipPathUnits="userSpaceOnUse"
       id="clipPath7440">
      <path
         d="m 378.734,290 161.516,0 0,154.163 -161.516,0 0,-154.163 z"
         id="path7442"
         inkscape:connector-curvature="0" />
    </clipPath>
    <clipPath
       clipPathUnits="userSpaceOnUse"
       id="clipPath7420">
      <path
         d="m 378.734,290 161.516,0 0,154.163 -161.516,0 0,-154.163 z"
         id="path7422"
         inkscape:connector-curvature="0" />
    </clipPath>
  </defs>
  <sodipodi:namedview
     id="base"
     pagecolor="#ffffff"
     bordercolor="#666666"
     borderopacity="1.0"
     inkscape:pageopacity="0.0"
     inkscape:pageshadow="2"
     inkscape:zoom="1.5066406"
     inkscape:cx="-19.087874"
     inkscape:cy="109.70613"
     inkscape:document-units="px"
     inkscape:current-layer="layer1"
     showgrid="false"
     fit-margin-top="0"
     fit-margin-left="0"
     fit-margin-right="0"
     fit-margin-bottom="0"
     inkscape:window-width="1366"
     inkscape:window-height="715"
     inkscape:window-x="0"
     inkscape:window-y="0"
     inkscape:window-maximized="1" />
  <metadata
     id="metadata7925">
    <rdf:RDF>
      <cc:Work
         rdf:about="">
        <dc:format>image/svg+xml</dc:format>
        <dc:type
           rdf:resource="http://purl.org/dc/dcmitype/StillImage" />
        <dc:title></dc:title>
      </cc:Work>
    </rdf:RDF>
  </metadata>
  <g
     inkscape:label="Layer 1"
     inkscape:groupmode="layer"
     id="layer1"
     transform="translate(-394.08787,-639.63302)">
    <g
       id="g7412"
       transform="matrix(1.25,0,0,-1.25,501.70234,794.913)">
      <path
         d="m 0,0 -71.251,0 0,121.557 142.5,0 L 71.249,0 0,0 M -71.251,121.557 -71.251,0 m 15.787,121.557 0,-121.557 m 15.892,121.557 0,-121.557 m 15.786,121.557 0,-121.557"
         style="fill:none;stroke:#000000;stroke-width:0.175;stroke-linecap:round;stroke-linejoin:round;stroke-miterlimit:4;stroke-dasharray:0, 0.702;stroke-dashoffset:0;stroke-opacity:1"
         id="path7414"
         inkscape:connector-curvature="0" />
    </g>
    <g
       transform="matrix(1.25,0,0,-1.25,-79.812538,1193.8909)"
       id="g7416">
      <g
         id="g7418"
         clip-path="url(#clipPath7420)">
        <g
           id="g7424"
           transform="translate(411.1682,346.7567)">
          <path
             d="m 0,0 c 0,-0.908 -0.736,-1.645 -1.645,-1.645 -0.908,0 -1.644,0.737 -1.644,1.645 0,0.908 0.736,1.645 1.644,1.645 C -0.736,1.645 0,0.908 0,0"
             style="fill:#0095da;fill-opacity:1;fill-rule:nonzero;stroke:none"
             id="path7426"
             inkscape:connector-curvature="0" />
        </g>
        <g
           id="g7428"
           transform="translate(457.3179,440.7388)">
          <path
             d="M 0,0 0,-121.557 M 15.787,0 l 0,-121.557 M 31.574,0 l 0,-121.557 M 47.466,0 l 0,-121.557 M 63.252,0 l 0,-121.557 m 15.891,0 -142.5,0 m 142.5,11.052 -142.5,0 m 142.5,11.05 -142.5,0 m 142.5,11.05 -142.5,0 m 142.5,11.052 -142.5,0 m 142.5,11.051 -142.5,0 m 142.5,11.049 -142.5,0 m 142.5,11.052 -142.5,0 m 142.5,11.05 -142.5,0 m 142.5,11.05 -142.5,0 m 142.5,11.051 -142.5,0"
             style="fill:none;stroke:#000000;stroke-width:0.175;stroke-linecap:round;stroke-linejoin:round;stroke-miterlimit:4;stroke-dasharray:0, 0.702;stroke-dashoffset:0;stroke-opacity:1"
             id="path7430"
             inkscape:connector-curvature="0" />
        </g>
      </g>
    </g>
    <text
       y="802.34033"
       x="414.03854"
       transform="scale(0.99089714,1.0091865)"
       style="font-variant:normal;font-weight:normal;font-stretch:normal;font-size:9.95802116px;font-family:'Minion Pro';-inkscape-font-specification:MinionPro-Regular;writing-mode:lr-tb;fill:#000000;fill-opacity:1;fill-rule:nonzero;stroke:none"
       id="text7432">
      <tspan
         x="414.03854 434.01431"
         y="802.34033"
         sodipodi:role="line"
         id="tspan7434">05</tspan>
    </text>
    <g
       transform="matrix(1.25,0,0,-1.25,-79.812538,1193.8909)"
       id="g7436">
      <g
         id="g7438"
         clip-path="url(#clipPath7440)">
        <g
           id="g7444"
           transform="translate(393.9606,315.1844)">
          <path
             d="M 0,0 0,3.998 M 15.787,0 l 0,3.998 M 31.679,0 l 0,3.998 M 47.465,0 l 0,3.998 M 63.357,0 l 0,3.998 M 79.145,0 l 0,3.998 M 94.932,0 l 0,3.998 M 110.823,0 l 0,3.998 M 126.609,0 l 0,3.998 M 142.501,0 l 0,3.998"
             style="fill:none;stroke:#000000;stroke-width:0.30700001;stroke-linecap:butt;stroke-linejoin:miter;stroke-miterlimit:4;stroke-dasharray:none;stroke-opacity:1"
             id="path7446"
             inkscape:connector-curvature="0" />
        </g>
        <g
           id="g7448"
           transform="translate(393.9606,319.1823)">
          <path
             d="M 0,0 142.501,0"
             style="fill:none;stroke:#000000;stroke-width:0.65799999;stroke-linecap:round;stroke-linejoin:round;stroke-miterlimit:4;stroke-dasharray:none;stroke-opacity:1"
             id="path7450"
             inkscape:connector-curvature="0" />
        </g>
      </g>
    </g>
    <text
       y="791.24164"
       x="404.39172"
       transform="scale(0.99089714,1.0091865)"
       style="font-variant:normal;font-weight:normal;font-stretch:normal;font-size:9.95802116px;font-family:'Minion Pro';-inkscape-font-specification:MinionPro-Regular;writing-mode:lr-tb;fill:#000000;fill-opacity:1;fill-rule:nonzero;stroke:none"
       id="text7452">
      <tspan
         x="404.39172"
         y="791.24164"
         id="tspan7454">0</tspan>
      <tspan
         x="397.22192 402.08145 404.39172"
         y="777.16101"
         sodipodi:role="line"
         id="tspan7456">0.5</tspan>
      <tspan
         x="404.39172"
         y="763.86707"
         id="tspan7458">1</tspan>
      <tspan
         x="397.22192 402.08145 404.39172"
         y="749.78638"
         sodipodi:role="line"
         id="tspan7460">1.5</tspan>
      <tspan
         x="404.39172"
         y="736.49243"
         id="tspan7462">2</tspan>
      <tspan
         x="397.22192 402.08145 404.39172"
         y="722.4118"
         sodipodi:role="line"
         id="tspan7464">2.5</tspan>
      <tspan
         x="404.39172"
         y="709.11786"
         id="tspan7466">3</tspan>
      <tspan
         x="397.22192 402.08145 404.39172"
         y="695.03723"
         sodipodi:role="line"
         id="tspan7468">3.5</tspan>
      <tspan
         x="404.39172"
         y="681.74323"
         id="tspan7470">4</tspan>
      <tspan
         x="397.22192 402.08145 404.39172"
         y="667.6626"
         sodipodi:role="line"
         id="tspan7472">4.5</tspan>
      <tspan
         x="404.39172"
         y="654.36865"
         id="tspan7474">5</tspan>
    </text>
    <g
       transform="matrix(1.25,0,0,-1.25,-79.812538,1193.8909)"
       id="g7476">
      <g
         id="g7478"
         clip-path="url(#clipPath7480)">
        <text
           transform="matrix(0.98187721,0,0,-1,378.7345,437.5454)"
           style="font-variant:normal;font-weight:normal;font-stretch:normal;font-size:8.03960037px;font-family:'Minion Pro';-inkscape-font-specification:MinionPro-Regular;writing-mode:lr-tb;fill:#000000;fill-opacity:1;fill-rule:nonzero;stroke:none"
           id="text7484">
          <tspan
             x="0 3.9233248 5.7885122"
             y="0"
             sodipodi:role="line"
             id="tspan7486">5.5</tspan>
        </text>
        <g
           id="g7488"
           transform="translate(389.9623,319.1823)">
          <path
             d="M 0,0 3.998,0 M 0,11.052 l 3.998,0 M 0,22.101 l 3.998,0 M 0,33.152 l 3.998,0 M 0,44.203 l 3.998,0 M 0,55.255 l 3.998,0 M 0,66.304 l 3.998,0 M 0,77.355 l 3.998,0 M 0,88.406 l 3.998,0 M 0,99.456 l 3.998,0 M 0,110.506 l 3.998,0 M 0,121.557 l 3.998,0"
             style="fill:none;stroke:#000000;stroke-width:0.30700001;stroke-linecap:butt;stroke-linejoin:miter;stroke-miterlimit:4;stroke-dasharray:none;stroke-opacity:1"
             id="path7490"
             inkscape:connector-curvature="0" />
        </g>
      </g>
    </g>
    <text
       y="802.34033"
       x="451.59604"
       transform="scale(0.99089714,1.0091865)"
       style="font-variant:normal;font-weight:normal;font-stretch:normal;font-size:9.95802116px;font-family:'Minion Pro';-inkscape-font-specification:MinionPro-Regular;writing-mode:lr-tb;fill:#000000;fill-opacity:1;fill-rule:nonzero;stroke:none"
       id="text7492">
      <tspan
         x="451.59604 456.37589 471.57181 476.35168 491.54761 496.32745 511.52341 516.30328 531.49921 536.27905 551.47498 556.25482 571.45081 576.23059"
         y="802.34033"
         sodipodi:role="line"
         id="tspan7494">10152025303540</tspan>
      <tspan
         x="474.32022 480.63361 484.86578 489.23737 492.93176 496.58636 498.84683 503.21841 509.01398 513.24615 516.94055 519.20105 523.9809 528.76074 533.54059"
         y="820.23486"
         sodipodi:role="line"
         id="tspan7496">Years afer 1960</tspan>
      <tspan
         x="591.42657 596.20642"
         y="802.34033"
         sodipodi:role="line"
         id="tspan7498">45</tspan>
    </text>
    <g
       transform="matrix(1.25,0,0,-1.25,-79.812538,1193.8909)"
       id="g7500">
      <g
         id="g7502"
         clip-path="url(#clipPath7504)">
        <g
           id="g7508"
           transform="translate(427.1793,354.491)">
          <path
             d="m 0,0 c 0,-0.908 -0.736,-1.645 -1.645,-1.645 -0.908,0 -1.644,0.737 -1.644,1.645 0,0.908 0.736,1.645 1.644,1.645 C -0.736,1.645 0,0.908 0,0"
             style="fill:#0095da;fill-opacity:1;fill-rule:nonzero;stroke:none"
             id="path7510"
             inkscape:connector-curvature="0" />
        </g>
        <g
           id="g7512"
           transform="translate(443.0041,365.5955)">
          <path
             d="m 0,0 c 0,-0.908 -0.736,-1.645 -1.645,-1.645 -0.908,0 -1.644,0.737 -1.644,1.645 0,0.908 0.736,1.645 1.644,1.645 C -0.736,1.645 0,0.908 0,0"
             style="fill:#0095da;fill-opacity:1;fill-rule:nonzero;stroke:none"
             id="path7514"
             inkscape:connector-curvature="0" />
        </g>
        <g
           id="g7516"
           transform="translate(458.9107,387.7501)">
          <path
             d="m 0,0 c 0,-0.908 -0.736,-1.645 -1.645,-1.645 -0.908,0 -1.644,0.737 -1.644,1.645 0,0.908 0.736,1.645 1.644,1.645 C -0.736,1.645 0,0.908 0,0"
             style="fill:#0095da;fill-opacity:1;fill-rule:nonzero;stroke:none"
             id="path7518"
             inkscape:connector-curvature="0" />
        </g>
        <g
           id="g7520"
           transform="translate(474.8024,393.1172)">
          <path
             d="m 0,0 c 0,-0.908 -0.736,-1.645 -1.645,-1.645 -0.908,0 -1.644,0.737 -1.644,1.645 0,0.908 0.736,1.645 1.644,1.645 C -0.736,1.645 0,0.908 0,0"
             style="fill:#0095da;fill-opacity:1;fill-rule:nonzero;stroke:none"
             id="path7522"
             inkscape:connector-curvature="0" />
        </g>
        <g
           id="g7524"
           transform="translate(506.4273,413.1134)">
          <path
             d="m 0,0 c 0,-0.908 -0.737,-1.645 -1.645,-1.645 -0.907,0 -1.644,0.737 -1.644,1.645 0,0.908 0.737,1.645 1.644,1.645 C -0.737,1.645 0,0.908 0,0"
             style="fill:#0095da;fill-opacity:1;fill-rule:nonzero;stroke:none"
             id="path7526"
             inkscape:connector-curvature="0" />
        </g>
        <g
           id="g7528"
           transform="translate(522.267,433.1618)">
          <path
             d="m 0,0 c 0,-0.908 -0.737,-1.645 -1.645,-1.645 -0.908,0 -1.644,0.737 -1.644,1.645 0,0.908 0.736,1.645 1.644,1.645 C -0.737,1.645 0,0.908 0,0"
             style="fill:#0095da;fill-opacity:1;fill-rule:nonzero;stroke:none"
             id="path7530"
             inkscape:connector-curvature="0" />
        </g>
        <g
           id="g7532"
           transform="translate(490.5876,403.3247)">
          <path
             d="m 0,0 c 0,-0.908 -0.736,-1.645 -1.645,-1.645 -0.907,0 -1.644,0.737 -1.644,1.645 0,0.908 0.737,1.645 1.644,1.645 C -0.736,1.645 0,0.908 0,0"
             style="fill:#0095da;fill-opacity:1;fill-rule:nonzero;stroke:none"
             id="path7534"
             inkscape:connector-curvature="0" />
        </g>
        <g
           id="g7536"
           transform="translate(393.9606,336.0218)">
          <path
             d="M 0,0 142.501,104.078"
             style="fill:none;stroke:#da2128;stroke-width:0.87699997;stroke-linecap:butt;stroke-linejoin:miter;stroke-miterlimit:4;stroke-dasharray:none;stroke-opacity:1"
             id="path7538"
             inkscape:connector-curvature="0" />
        </g>
        <g
           id="g7540"
           transform="translate(393.9606,319.1823)">
          <path
             d="M 0,0 0,121.557"
             style="fill:none;stroke:#000000;stroke-width:0.65799999;stroke-linecap:round;stroke-linejoin:round;stroke-miterlimit:4;stroke-dasharray:none;stroke-opacity:1"
             id="path7542"
             inkscape:connector-curvature="0" />
        </g>
        <g
           id="g7544"
           transform="translate(395.6052,341.2301)">
          <path
             d="m 0,0 c 0,-0.908 -0.736,-1.645 -1.645,-1.645 -0.908,0 -1.644,0.737 -1.644,1.645 0,0.908 0.736,1.645 1.644,1.645 C -0.736,1.645 0,0.908 0,0"
             style="fill:#0095da;fill-opacity:1;fill-rule:nonzero;stroke:none"
             id="path7546"
             inkscape:connector-curvature="0" />
        </g>
      </g>
    </g>
  </g>
</svg>
