<?xml version="1.0" encoding="UTF-8" standalone="no"?>
<!-- Created with Inkscape (http://www.inkscape.org/) -->

<svg
   xmlns:dc="http://purl.org/dc/elements/1.1/"
   xmlns:cc="http://creativecommons.org/ns#"
   xmlns:rdf="http://www.w3.org/1999/02/22-rdf-syntax-ns#"
   xmlns:svg="http://www.w3.org/2000/svg"
   xmlns="http://www.w3.org/2000/svg"
   xmlns:sodipodi="http://sodipodi.sourceforge.net/DTD/sodipodi-0.dtd"
   xmlns:inkscape="http://www.inkscape.org/namespaces/inkscape"
   width="57.039047mm"
   height="53.136581mm"
   viewBox="0 0 202.10686 188.27922"
   id="svg7920"
   version="1.1"
   inkscape:version="0.91 r13725"
   sodipodi:docname="fig-example-2-1-1ans.svg">
  <defs
     id="defs7922">
    <clipPath
       clipPathUnits="userSpaceOnUse"
       id="clipPath7504">
      <path
         d="m 378.734,290 161.516,0 0,154.163 -161.516,0 0,-154.163 z"
         id="path7506"
         inkscape:connector-curvature="0" />
    </clipPath>
    <clipPath
       clipPathUnits="userSpaceOnUse"
       id="clipPath7480">
      <path
         d="m 378.734,290 161.516,0 0,154.163 -161.516,0 0,-154.163 z"
         id="path7482"
         inkscape:connector-curvature="0" />
    </clipPath>
    <clipPath
       clipPathUnits="userSpaceOnUse"
       id="clipPath7440">
      <path
         d="m 378.734,290 161.516,0 0,154.163 -161.516,0 0,-154.163 z"
         id="path7442"
         inkscape:connector-curvature="0" />
    </clipPath>
    <clipPath
       clipPathUnits="userSpaceOnUse"
       id="clipPath7420">
      <path
         d="m 378.734,290 161.516,0 0,154.163 -161.516,0 0,-154.163 z"
         id="path7422"
         inkscape:connector-curvature="0" />
    </clipPath>
  </defs>
  <sodipodi:namedview
     id="base"
     pagecolor="#ffffff"
     bordercolor="#666666"
     borderopacity="1.0"
     inkscape:pageopacity="0.0"
     inkscape:pageshadow="2"
     inkscape:zoom="3.2428085"
     inkscape:cx="79.235561"
     inkscape:cy="26.579435"
     inkscape:document-units="px"
     inkscape:current-layer="layer1"
     showgrid="false"
     fit-margin-top="0"
     fit-margin-left="0"
     fit-margin-right="0"
     fit-margin-bottom="0"
     inkscape:window-width="1366"
     inkscape:window-height="715"
     inkscape:window-x="0"
     inkscape:window-y="0"
     inkscape:window-maximized="1" />
  <metadata
     id="metadata7925">
    <rdf:RDF>
      <cc:Work
         rdf:about="">
        <dc:format>image/svg+xml</dc:format>
        <dc:type
           rdf:resource="http://purl.org/dc/dcmitype/StillImage" />
        <dc:title></dc:title>
      </cc:Work>
    </rdf:RDF>
  </metadata>
  <g
     inkscape:label="Layer 1"
     inkscape:groupmode="layer"
     id="layer1"
     transform="translate(-394.08787,-639.63302)">
    <g
       id="g7412"
       transform="matrix(1.25,0,0,-1.25,501.70234,794.913)">
      <path
         d="m 0,0 -71.251,0 0,121.557 142.5,0 L 71.249,0 0,0 M -71.251,121.557 -71.251,0 m 15.787,121.557 0,-121.557 m 15.892,121.557 0,-121.557 m 15.786,121.557 0,-121.557"
         style="fill:none;stroke:#000000;stroke-width:0.175;stroke-linecap:round;stroke-linejoin:round;stroke-miterlimit:4;stroke-dasharray:0, 0.702;stroke-dashoffset:0;stroke-opacity:1"
         id="path7414"
         inkscape:connector-curvature="0" />
    </g>
    <g
       transform="matrix(1.25,0,0,-1.25,-79.812538,1193.8909)"
       id="g7416">
      <g
         id="g7418"
         clip-path="url(#clipPath7420)">
        <g
           id="g7424"
           transform="translate(411.1682,346.7567)">
          <path
             d="m 0,0 c 0,-0.908 -0.736,-1.645 -1.645,-1.645 -0.908,0 -1.644,0.737 -1.644,1.645 0,0.908 0.736,1.645 1.644,1.645 C -0.736,1.645 0,0.908 0,0"
             style="fill:#0095da;fill-opacity:1;fill-rule:nonzero;stroke:none"
             id="path7426"
             inkscape:connector-curvature="0" />
        </g>
        <g
           id="g7428"
           transform="translate(457.3179,440.7388)">
          <path
             d="M 0,0 0,-121.557 M 15.787,0 l 0,-121.557 M 31.574,0 l 0,-121.557 M 47.466,0 l 0,-121.557 M 63.252,0 l 0,-121.557 m 15.891,0 -142.5,0 m 142.5,11.052 -142.5,0 m 142.5,11.05 -142.5,0 m 142.5,11.05 -142.5,0 m 142.5,11.052 -142.5,0 m 142.5,11.051 -142.5,0 m 142.5,11.049 -142.5,0 m 142.5,11.052 -142.5,0 m 142.5,11.05 -142.5,0 m 142.5,11.05 -142.5,0 m 142.5,11.051 -142.5,0"
             style="fill:none;stroke:#000000;stroke-width:0.175;stroke-linecap:round;stroke-linejoin:round;stroke-miterlimit:4;stroke-dasharray:0, 0.702;stroke-dashoffset:0;stroke-opacity:1"
             id="path7430"
             inkscape:connector-curvature="0" />
        </g>
      </g>
    </g>
    <text
       y="802.34033"
       x="414.03854"
       transform="scale(0.99089714,1.0091865)"
       style="font-variant:normal;font-weight:normal;font-stretch:normal;font-size:9.95802116px;font-family:'Minion Pro';-inkscape-font-specification:MinionPro-Regular;writing-mode:lr-tb;fill:#000000;fill-opacity:1;fill-rule:nonzero;stroke:none"
       id="text7432">
      <tspan
         x="414.03854 434.01431"
         y="802.34033"
         sodipodi:role="line"
         id="tspan7434">05</tspan>
    </text>
    <g
       transform="matrix(1.25,0,0,-1.25,-79.812538,1193.8909)"
       id="g7436">
      <g
         id="g7438"
         clip-path="url(#clipPath7440)">
        <g
           id="g7444"
           transform="translate(393.9606,315.1844)">
          <path
             d="M 0,0 0,3.998 M 15.787,0 l 0,3.998 M 31.679,0 l 0,3.998 M 47.465,0 l 0,3.998 M 63.357,0 l 0,3.998 M 79.145,0 l 0,3.998 M 94.932,0 l 0,3.998 M 110.823,0 l 0,3.998 M 126.609,0 l 0,3.998 M 142.501,0 l 0,3.998"
             style="fill:none;stroke:#000000;stroke-width:0.30700001;stroke-linecap:butt;stroke-linejoin:miter;stroke-miterlimit:4;stroke-dasharray:none;stroke-opacity:1"
             id="path7446"
             inkscape:connector-curvature="0" />
        </g>
        <g
           id="g7448"
           transform="translate(393.9606,319.1823)">
          <path
             d="M 0,0 142.501,0"
             style="fill:none;stroke:#000000;stroke-width:0.65799999;stroke-linecap:round;stroke-linejoin:round;stroke-miterlimit:4;stroke-dasharray:none;stroke-opacity:1"
             id="path7450"
             inkscape:connector-curvature="0" />
        </g>
      </g>
    </g>
    <text
       y="791.24164"
       x="404.39172"
       transform="scale(0.99089714,1.0091865)"
       style="font-variant:normal;font-weight:normal;font-stretch:normal;font-size:9.95802116px;font-family:'Minion Pro';-inkscape-font-specification:MinionPro-Regular;writing-mode:lr-tb;fill:#000000;fill-opacity:1;fill-rule:nonzero;stroke:none"
       id="text7452">
      <tspan
         x="404.39172"
         y="791.24164"
         id="tspan7454">0</tspan>
      <tspan
         x="397.22192 402.08145 404.39172"
         y="777.16101"
         sodipodi:role="line"
         id="tspan7456">0.5</tspan>
      <tspan
         x="404.39172"
         y="763.86707"
         id="tspan7458">1</tspan>
      <tspan
         x="397.22192 402.08145 404.39172"
         y="749.78638"
         sodipodi:role="line"
         id="tspan7460">1.5</tspan>
      <tspan
         x="404.39172"
         y="736.49243"
         id="tspan7462">2</tspan>
      <tspan
         x="397.22192 402.08145 404.39172"
         y="722.4118"
         sodipodi:role="line"
         id="tspan7464">2.5</tspan>
      <tspan
         x="404.39172"
         y="709.11786"
         id="tspan7466">3</tspan>
      <tspan
         x="397.22192 402.08145 404.39172"
         y="695.03723"
         sodipodi:role="line"
         id="tspan7468">3.5</tspan>
      <tspan
         x="404.39172"
         y="681.74323"
         id="tspan7470">4</tspan>
      <tspan
         x="397.22192 402.08145 404.39172"
         y="667.6626"
         sodipodi:role="line"
         id="tspan7472">4.5</tspan>
      <tspan
         x="404.39172"
         y="654.36865"
         id="tspan7474">5</tspan>
    </text>
    <g
       transform="matrix(1.25,0,0,-1.25,-79.812538,1193.8909)"
       id="g7476">
      <g
         id="g7478"
         clip-path="url(#clipPath7480)">
        <text
           transform="matrix(0.98187721,0,0,-1,378.7345,437.5454)"
           style="font-variant:normal;font-weight:normal;font-stretch:normal;font-size:8.03960037px;font-family:'Minion Pro';-inkscape-font-specification:MinionPro-Regular;writing-mode:lr-tb;fill:#000000;fill-opacity:1;fill-rule:nonzero;stroke:none"
           id="text7484">
          <tspan
             x="0 3.9233248 5.7885122"
             y="0"
             sodipodi:role="line"
             id="tspan7486">5.5</tspan>
        </text>
        <g
           id="g7488"
           transform="translate(389.9623,319.1823)">
          <path
             d="M 0,0 3.998,0 M 0,11.052 l 3.998,0 M 0,22.101 l 3.998,0 M 0,33.152 l 3.998,0 M 0,44.203 l 3.998,0 M 0,55.255 l 3.998,0 M 0,66.304 l 3.998,0 M 0,77.355 l 3.998,0 M 0,88.406 l 3.998,0 M 0,99.456 l 3.998,0 M 0,110.506 l 3.998,0 M 0,121.557 l 3.998,0"
             style="fill:none;stroke:#000000;stroke-width:0.30700001;stroke-linecap:butt;stroke-linejoin:miter;stroke-miterlimit:4;stroke-dasharray:none;stroke-opacity:1"
             id="path7490"
             inkscape:connector-curvature="0" />
        </g>
      </g>
    </g>
    <text
       y="802.34033"
       x="451.59604"
       transform="scale(0.99089714,1.0091865)"
       style="font-variant:normal;font-weight:normal;font-stretch:normal;font-size:9.95802116px;font-family:'Minion Pro';-inkscape-font-specification:MinionPro-Regular;writing-mode:lr-tb;fill:#000000;fill-opacity:1;fill-rule:nonzero;stroke:none"
       id="text7492">
      <tspan
         x="451.59604 456.37589 471.57181 476.35168 491.54761 496.32745 511.52341 516.30328 531.49921 536.27905 551.47498 556.25482 571.45081 576.23059"
         y="802.34033"
         sodipodi:role="line"
         id="tspan7494">10152025303540</tspan>
      <tspan
         x="528.76074 533.54059"
         sodipodi:role="line"
         id="tspan7496" />
      <tspan
         x="591.42657 596.20642"
         y="802.34033"
         sodipodi:role="line"
         id="tspan7498">45</tspan>
    </text>
    <g
       transform="matrix(1.25,0,0,-1.25,-79.812538,1193.8909)"
       id="g7500">
      <g
         id="g7502"
         clip-path="url(#clipPath7504)">
        <g
           id="g7508"
           transform="translate(427.1793,354.491)">
          <path
             d="m 0,0 c 0,-0.908 -0.736,-1.645 -1.645,-1.645 -0.908,0 -1.644,0.737 -1.644,1.645 0,0.908 0.736,1.645 1.644,1.645 C -0.736,1.645 0,0.908 0,0"
             style="fill:#0095da;fill-opacity:1;fill-rule:nonzero;stroke:none"
             id="path7510"
             inkscape:connector-curvature="0" />
        </g>
        <g
           id="g7512"
           transform="translate(443.0041,365.5955)">
          <path
             d="m 0,0 c 0,-0.908 -0.736,-1.645 -1.645,-1.645 -0.908,0 -1.644,0.737 -1.644,1.645 0,0.908 0.736,1.645 1.644,1.645 C -0.736,1.645 0,0.908 0,0"
             style="fill:#0095da;fill-opacity:1;fill-rule:nonzero;stroke:none"
             id="path7514"
             inkscape:connector-curvature="0" />
        </g>
        <g
           id="g7516"
           transform="translate(458.9107,387.7501)">
          <path
             d="m 0,0 c 0,-0.908 -0.736,-1.645 -1.645,-1.645 -0.908,0 -1.644,0.737 -1.644,1.645 0,0.908 0.736,1.645 1.644,1.645 C -0.736,1.645 0,0.908 0,0"
             style="fill:#0095da;fill-opacity:1;fill-rule:nonzero;stroke:none"
             id="path7518"
             inkscape:connector-curvature="0" />
        </g>
        <g
           id="g7520"
           transform="translate(474.8024,393.1172)">
          <path
             d="m 0,0 c 0,-0.908 -0.736,-1.645 -1.645,-1.645 -0.908,0 -1.644,0.737 -1.644,1.645 0,0.908 0.736,1.645 1.644,1.645 C -0.736,1.645 0,0.908 0,0"
             style="fill:#0095da;fill-opacity:1;fill-rule:nonzero;stroke:none"
             id="path7522"
             inkscape:connector-curvature="0" />
        </g>
        <g
           id="g7524"
           transform="translate(506.4273,413.1134)">
          <path
             d="m 0,0 c 0,-0.908 -0.737,-1.645 -1.645,-1.645 -0.907,0 -1.644,0.737 -1.644,1.645 0,0.908 0.737,1.645 1.644,1.645 C -0.737,1.645 0,0.908 0,0"
             style="fill:#0095da;fill-opacity:1;fill-rule:nonzero;stroke:none"
             id="path7526"
             inkscape:connector-curvature="0" />
        </g>
        <g
           id="g7528"
           transform="translate(522.267,433.1618)">
          <path
             d="m 0,0 c 0,-0.908 -0.737,-1.645 -1.645,-1.645 -0.908,0 -1.644,0.737 -1.644,1.645 0,0.908 0.736,1.645 1.644,1.645 C -0.737,1.645 0,0.908 0,0"
             style="fill:#0095da;fill-opacity:1;fill-rule:nonzero;stroke:none"
             id="path7530"
             inkscape:connector-curvature="0" />
        </g>
        <g
           id="g7532"
           transform="translate(490.5876,403.3247)">
          <path
             d="m 0,0 c 0,-0.908 -0.736,-1.645 -1.645,-1.645 -0.907,0 -1.644,0.737 -1.644,1.645 0,0.908 0.737,1.645 1.644,1.645 C -0.736,1.645 0,0.908 0,0"
             style="fill:#0095da;fill-opacity:1;fill-rule:nonzero;stroke:none"
             id="path7534"
             inkscape:connector-curvature="0" />
        </g>
        <g
           id="g7536"
           transform="translate(393.9606,336.0218)">
          <path
             d="M 0,0 142.501,104.078"
             style="fill:none;stroke:#da2128;stroke-width:0.87699997;stroke-linecap:butt;stroke-linejoin:miter;stroke-miterlimit:4;stroke-dasharray:none;stroke-opacity:1"
             id="path7538"
             inkscape:connector-curvature="0" />
        </g>
        <g
           id="g7540"
           transform="translate(393.9606,319.1823)">
          <path
             d="M 0,0 0,121.557"
             style="fill:none;stroke:#000000;stroke-width:0.65799999;stroke-linecap:round;stroke-linejoin:round;stroke-miterlimit:4;stroke-dasharray:none;stroke-opacity:1"
             id="path7542"
             inkscape:connector-curvature="0" />
        </g>
        <g
           id="g7544"
           transform="translate(395.6052,341.2301)">
          <path
             d="m 0,0 c 0,-0.908 -0.736,-1.645 -1.645,-1.645 -0.908,0 -1.644,0.737 -1.644,1.645 0,0.908 0.736,1.645 1.644,1.645 C -0.736,1.645 0,0.908 0,0"
             style="fill:#0095da;fill-opacity:1;fill-rule:nonzero;stroke:none"
             id="path7546"
             inkscape:connector-curvature="0" />
        </g>
      </g>
    </g>
    <g
       transform="translate(399.5196,620.32475)"
       style="font-style:normal;font-weight:normal;font-size:10px;line-height:125%;font-family:sans-serif;letter-spacing:0px;word-spacing:0px;fill:#000000;fill-opacity:1;stroke:none;stroke-width:1px;stroke-linecap:butt;stroke-linejoin:miter;stroke-opacity:1"
       id="flowRoot3389">
      <path
         d="m 67.207031,199.53292 1.059571,0 2.021484,2.99805 2.006836,-2.99805 1.05957,0 -2.578125,3.81836 0,3.47168 -0.991211,0 0,-3.47168 -2.578125,-3.81836 z"
         style=""
         id="path3531" />
      <path
         d="m 77.631836,203.86398 0,0.43945 -4.130859,0 q 0.05859,0.92773 0.55664,1.41601 0.50293,0.4834 1.396485,0.4834 0.517578,0 1.000976,-0.12695 0.488281,-0.12695 0.966797,-0.38086 l 0,0.84961 q -0.483398,0.20508 -0.991211,0.3125 -0.507812,0.10742 -1.030273,0.10742 -1.308594,0 -2.075196,-0.76172 -0.761718,-0.76172 -0.761718,-2.06054 0,-1.34278 0.722656,-2.12891 0.727539,-0.79102 1.958008,-0.79102 1.103515,0 1.743164,0.7129 0.644531,0.708 0.644531,1.92871 z m -0.898438,-0.26368 q -0.0098,-0.7373 -0.415039,-1.17675 -0.40039,-0.43946 -1.064453,-0.43946 -0.751953,0 -1.206054,0.42481 -0.449219,0.4248 -0.517579,1.19629 l 3.203125,-0.005 z"
         style=""
         id="path3533" />
      <path
         d="m 81.591797,204.07394 q -1.088867,0 -1.508789,0.24902 -0.419922,0.24902 -0.419922,0.84961 0,0.47852 0.3125,0.76172 0.317383,0.27832 0.859375,0.27832 0.74707,0 1.196289,-0.52734 0.454102,-0.53223 0.454102,-1.41114 l 0,-0.20019 -0.893555,0 z m 1.791992,-0.3711 0,3.12012 -0.898437,0 0,-0.83008 q -0.307618,0.49805 -0.766602,0.73731 -0.458984,0.23437 -1.123047,0.23437 -0.839844,0 -1.337891,-0.46875 -0.493164,-0.47363 -0.493164,-1.26465 0,-0.92285 0.615235,-1.3916 Q 80,203.37081 81.225586,203.37081 l 1.259766,0 0,-0.0879 q 0,-0.62012 -0.410157,-0.95703 -0.405273,-0.3418 -1.142578,-0.3418 -0.46875,0 -0.913086,0.11231 -0.444336,0.1123 -0.854492,0.33691 l 0,-0.83008 q 0.493164,-0.19043 0.957031,-0.2832 0.463867,-0.0977 0.903321,-0.0977 1.186523,0 1.772461,0.61524 0.585937,0.61523 0.585937,1.86523 z"
         style=""
         id="path3535" />
      <path
         d="m 88.408203,202.19405 q -0.151367,-0.0879 -0.332031,-0.12695 -0.175781,-0.0439 -0.390625,-0.0439 -0.761719,0 -1.171875,0.49804 -0.405274,0.49317 -0.405274,1.4209 l 0,2.88086 -0.90332,0 0,-5.46875 0.90332,0 0,0.84961 q 0.283204,-0.49805 0.737305,-0.7373 0.454102,-0.24415 1.103516,-0.24415 0.09277,0 0.205078,0.0146 0.112305,0.01 0.249023,0.0342 l 0.0049,0.92285 z"
         style=""
         id="path3537" />
      <path
         d="m 92.84668,201.51534 0,0.84961 q -0.38086,-0.19531 -0.791016,-0.29297 -0.410156,-0.0976 -0.849609,-0.0976 -0.668946,0 -1.00586,0.20508 -0.332031,0.20507 -0.332031,0.61523 0,0.3125 0.239258,0.49316 0.239258,0.17579 0.961914,0.33692 l 0.307617,0.0684 q 0.957031,0.20508 1.357422,0.58105 0.405273,0.3711 0.405273,1.04004 0,0.76172 -0.605468,1.20606 -0.600586,0.44433 -1.655274,0.44433 -0.439453,0 -0.917969,-0.0879 -0.473632,-0.083 -1.000976,-0.2539 l 0,-0.92774 q 0.498047,0.25879 0.981445,0.39063 0.483399,0.12695 0.957031,0.12695 0.634766,0 0.976563,-0.21484 0.341797,-0.21973 0.341797,-0.61524 0,-0.36621 -0.249024,-0.56152 -0.24414,-0.19532 -1.079101,-0.37598 l -0.3125,-0.0732 q -0.834961,-0.17578 -1.206055,-0.53711 -0.371094,-0.36621 -0.371094,-1.00098 0,-0.77148 0.546875,-1.1914 0.546875,-0.41993 1.552735,-0.41993 0.498047,0 0.9375,0.0733 0.439453,0.0732 0.810547,0.21972 z"
         style=""
         id="path3539" />
      <path
         d="m 100.24414,204.07394 q -1.088867,0 -1.508788,0.24902 -0.419922,0.24902 -0.419922,0.84961 0,0.47852 0.3125,0.76172 0.317382,0.27832 0.859375,0.27832 0.747075,0 1.196285,-0.52734 0.45411,-0.53223 0.45411,-1.41114 l 0,-0.20019 -0.89356,0 z m 1.79199,-0.3711 0,3.12012 -0.89843,0 0,-0.83008 q -0.30762,0.49805 -0.76661,0.73731 -0.458981,0.23437 -1.123043,0.23437 -0.839844,0 -1.337891,-0.46875 -0.493164,-0.47363 -0.493164,-1.26465 0,-0.92285 0.615235,-1.3916 0.620117,-0.46875 1.845703,-0.46875 l 1.25977,0 0,-0.0879 q 0,-0.62012 -0.41016,-0.95703 -0.40527,-0.3418 -1.142579,-0.3418 -0.46875,0 -0.913086,0.11231 -0.444336,0.1123 -0.854492,0.33691 l 0,-0.83008 q 0.493164,-0.19043 0.957031,-0.2832 0.463867,-0.0977 0.90332,-0.0977 1.186526,0 1.772466,0.61524 0.58593,0.61523 0.58593,1.86523 z"
         style=""
         id="path3541" />
      <path
         d="m 106.66016,199.2253 0,0.74707 -0.85938,0 q -0.4834,0 -0.67383,0.19532 -0.18554,0.19531 -0.18554,0.70312 l 0,0.4834 1.47949,0 0,0.69824 -1.47949,0 0,4.77051 -0.90332,0 0,-4.77051 -0.85938,0 0,-0.69824 0.85938,0 0,-0.38086 q 0,-0.91308 0.4248,-1.32812 0.42481,-0.41993 1.34766,-0.41993 l 0.84961,0 z"
         style=""
         id="path3543" />
      <path
         d="m 108.12012,199.80148 0,1.55273 1.85058,0 0,0.69824 -1.85058,0 0,2.96875 q 0,0.66895 0.18066,0.85938 0.18555,0.19043 0.74707,0.19043 l 0.92285,0 0,0.75195 -0.92285,0 q -1.04004,0 -1.43555,-0.38574 -0.3955,-0.39063 -0.3955,-1.41602 l 0,-2.96875 -0.65918,0 0,-0.69824 0.65918,0 0,-1.55273 0.90332,0 z"
         style=""
         id="path3545" />
      <path
         d="m 115.83496,203.86398 0,0.43945 -4.13086,0 q 0.0586,0.92773 0.55664,1.41601 0.50293,0.4834 1.39649,0.4834 0.51757,0 1.00097,-0.12695 0.48828,-0.12695 0.9668,-0.38086 l 0,0.84961 q -0.4834,0.20508 -0.99121,0.3125 -0.50781,0.10742 -1.03027,0.10742 -1.3086,0 -2.0752,-0.76172 -0.76172,-0.76172 -0.76172,-2.06054 0,-1.34278 0.72266,-2.12891 0.72754,-0.79102 1.95801,-0.79102 1.10351,0 1.74316,0.7129 0.64453,0.708 0.64453,1.92871 z m -0.89844,-0.26368 q -0.01,-0.7373 -0.41504,-1.17675 -0.40039,-0.43946 -1.06445,-0.43946 -0.75195,0 -1.20605,0.42481 -0.44922,0.4248 -0.51758,1.19629 l 3.20312,-0.005 z"
         style=""
         id="path3547" />
      <path
         d="m 120.47852,202.19405 q -0.15137,-0.0879 -0.33204,-0.12695 -0.17578,-0.0439 -0.39062,-0.0439 -0.76172,0 -1.17188,0.49804 -0.40527,0.49317 -0.40527,1.4209 l 0,2.88086 -0.90332,0 0,-5.46875 0.90332,0 0,0.84961 q 0.2832,-0.49805 0.73731,-0.7373 0.4541,-0.24415 1.10351,-0.24415 0.0928,0 0.20508,0.0146 0.1123,0.01 0.24902,0.0342 l 0.005,0.92285 z"
         style=""
         id="path3549" />
      <path
         d="m 124.91211,205.99288 1.61133,0 0,-5.56152 -1.75293,0.35156 0,-0.89844 1.74316,-0.35156 0.98633,0 0,6.45996 1.61133,0 0,0.83008 -4.19922,0 0,-0.83008 z"
         style=""
         id="path3551" />
      <path
         d="m 131.1377,206.67159 0,-0.89843 q 0.37109,0.17578 0.75195,0.26855 0.38086,0.0928 0.74707,0.0928 0.97656,0 1.48926,-0.65429 0.51757,-0.65918 0.59082,-1.99707 -0.28321,0.41992 -0.71778,0.64453 -0.43457,0.22461 -0.96191,0.22461 -1.09375,0 -1.7334,-0.65918 -0.63476,-0.66406 -0.63476,-1.81153 0,-1.12304 0.66406,-1.80175 0.66406,-0.67871 1.76758,-0.67871 1.26464,0 1.92871,0.97168 0.66894,0.96679 0.66894,2.8125 0,1.72363 -0.82031,2.7539 -0.81543,1.02539 -2.19727,1.02539 -0.37109,0 -0.75195,-0.0732 -0.38086,-0.0732 -0.79101,-0.21973 z m 1.96289,-3.09082 q 0.66406,0 1.0498,-0.4541 0.39063,-0.4541 0.39063,-1.24512 0,-0.78613 -0.39063,-1.24023 -0.38574,-0.45898 -1.0498,-0.45898 -0.66407,0 -1.05469,0.45898 -0.38574,0.4541 -0.38574,1.24023 0,0.79102 0.38574,1.24512 0.39062,0.4541 1.05469,0.4541 z"
         style=""
         id="path3553" />
      <path
         d="m 139.70703,202.78487 q -0.66406,0 -1.05469,0.45411 -0.38574,0.4541 -0.38574,1.24511 0,0.78614 0.38574,1.24512 0.39063,0.4541 1.05469,0.4541 0.66406,0 1.04981,-0.4541 0.39062,-0.45898 0.39062,-1.24512 0,-0.79101 -0.39062,-1.24511 -0.38575,-0.45411 -1.04981,-0.45411 z m 1.95801,-3.09082 0,0.89844 q -0.37109,-0.17578 -0.75195,-0.26855 -0.37598,-0.0928 -0.74707,-0.0928 -0.97657,0 -1.49415,0.65918 -0.51269,0.65918 -0.58593,1.99219 0.28808,-0.4248 0.72265,-0.64941 0.43457,-0.2295 0.95703,-0.2295 1.09864,0 1.7334,0.66895 0.63965,0.66406 0.63965,1.81152 0,1.12305 -0.66406,1.80176 -0.66406,0.67871 -1.76758,0.67871 -1.26465,0 -1.93359,-0.96679 -0.66895,-0.97168 -0.66895,-2.8125 0,-1.72852 0.82031,-2.75391 0.82032,-1.03027 2.20215,-1.03027 0.3711,0 0.74707,0.0732 0.38086,0.0732 0.79102,0.21972 z"
         style=""
         id="path3555" />
      <path
         d="m 145.95215,200.18234 q -0.76172,0 -1.14746,0.75195 -0.38086,0.74707 -0.38086,2.25098 0,1.49902 0.38086,2.25097 0.38574,0.74707 1.14746,0.74707 0.7666,0 1.14746,-0.74707 0.38574,-0.75195 0.38574,-2.25097 0,-1.50391 -0.38574,-2.25098 -0.38086,-0.75195 -1.14746,-0.75195 z m 0,-0.78125 q 1.22558,0 1.87012,0.97168 0.64941,0.96679 0.64941,2.8125 0,1.84082 -0.64941,2.8125 -0.64454,0.96679 -1.87012,0.96679 -1.22559,0 -1.875,-0.96679 -0.64453,-0.97168 -0.64453,-2.8125 0,-1.84571 0.64453,-2.8125 0.64941,-0.97168 1.875,-0.97168 z"
         style=""
         id="path3557" />
    </g>
  </g>
</svg>
