<?xml version="1.0" encoding="UTF-8" standalone="no"?>
<!-- Created with Inkscape (http://www.inkscape.org/) -->

<svg
   xmlns:dc="http://purl.org/dc/elements/1.1/"
   xmlns:cc="http://creativecommons.org/ns#"
   xmlns:rdf="http://www.w3.org/1999/02/22-rdf-syntax-ns#"
   xmlns:svg="http://www.w3.org/2000/svg"
   xmlns="http://www.w3.org/2000/svg"
   xmlns:sodipodi="http://sodipodi.sourceforge.net/DTD/sodipodi-0.dtd"
   xmlns:inkscape="http://www.inkscape.org/namespaces/inkscape"
   width="45.490906mm"
   height="42.547718mm"
   viewBox="0 0 161.18825 150.75963"
   id="svg5167"
   version="1.1"
   inkscape:version="0.91 r13725"
   sodipodi:docname="fig-power-vs-exponential-3.svg">
  <defs
     id="defs5169">
    <clipPath
       clipPathUnits="userSpaceOnUse"
       id="clipPath1544">
      <path
         d="m 76.5,380.14 132,0 0,-128 -132,0 0,128 z"
         id="path1546"
         inkscape:connector-curvature="0"
         style="clip-rule:evenodd" />
    </clipPath>
    <clipPath
       clipPathUnits="userSpaceOnUse"
       id="clipPath1550">
      <path
         d="m 28,776 640,0 0,-748 -640,0 0,748 z"
         id="path1552"
         inkscape:connector-curvature="0" />
    </clipPath>
    <clipPath
       clipPathUnits="userSpaceOnUse"
       id="clipPath1556">
      <path
         d="m 0,804.03 696,0 0,-804 -696,0 0,804 z"
         id="path1558"
         inkscape:connector-curvature="0" />
    </clipPath>
  </defs>
  <sodipodi:namedview
     id="base"
     pagecolor="#ffffff"
     bordercolor="#666666"
     borderopacity="1.0"
     inkscape:pageopacity="0.0"
     inkscape:pageshadow="2"
     inkscape:zoom="2.1307116"
     inkscape:cx="95.8534"
     inkscape:cy="40.502965"
     inkscape:document-units="px"
     inkscape:current-layer="layer1"
     showgrid="false"
     fit-margin-top="0"
     fit-margin-left="0"
     fit-margin-right="0"
     fit-margin-bottom="0"
     inkscape:window-width="1366"
     inkscape:window-height="715"
     inkscape:window-x="0"
     inkscape:window-y="0"
     inkscape:window-maximized="1" />
  <metadata
     id="metadata5172">
    <rdf:RDF>
      <cc:Work
         rdf:about="">
        <dc:format>image/svg+xml</dc:format>
        <dc:type
           rdf:resource="http://purl.org/dc/dcmitype/StillImage" />
        <dc:title></dc:title>
      </cc:Work>
    </rdf:RDF>
  </metadata>
  <g
     inkscape:label="Layer 1"
     inkscape:groupmode="layer"
     id="layer1"
     transform="translate(-279.1466,-422.10554)">
    <g
       transform="matrix(1.25,0,0,-1.25,180.49485,891.16392)"
       id="g1540">
      <g
         id="g1542"
         clip-path="url(#clipPath1544)">
        <g
           id="g1548"
           clip-path="url(#clipPath1550)">
          <g
             id="g1554"
             clip-path="url(#clipPath1556)">
            <path
               d="m 98.682,264.33 0,92 m 18.4,-92 0,92 m -9.2,-92 0,92 m 27.6,-92 0,92 m -9.2,-92 0,92 m 27.6,-92 0,92 m -9.2,-92 0,92 m 27.6,-92 0,92 m -9.2,-92 0,92 m 27.6,-92 0,92 m -9.201,-92 0,92 m -82.799,0 92,0 m -92,-9.2 92,0 m -92,-9.2 92,0 m -92,-9.201 92,0 m -92,-9.199 92,0 m -92,-9.2 92,0 m -92,-9.201 92,0 m -92,-9.2 92,0 m -92,-9.199 92,0 m -92,-9.2 92,0 m -92,-9.2 92,0"
               style="fill:none;stroke:#bdbcbc;stroke-width:0.34999999;stroke-linecap:butt;stroke-linejoin:miter;stroke-miterlimit:4;stroke-dasharray:none;stroke-opacity:1"
               id="path1560"
               inkscape:connector-curvature="0" />
            <path
               d="m 98.682,264.33 0,99.034"
               style="fill:none;stroke:#231f20;stroke-width:0.69999999;stroke-linecap:butt;stroke-linejoin:miter;stroke-miterlimit:4;stroke-dasharray:none;stroke-opacity:1"
               id="path1562"
               inkscape:connector-curvature="0" />
            <path
               d="m 98.682,366.33 1.708,-4.179 -1.708,0.991 -1.707,-0.991 1.707,4.179"
               style="fill:#231f20;fill-opacity:1;fill-rule:nonzero;stroke:none"
               id="path1564"
               inkscape:connector-curvature="0" />
            <path
               d="m 197.716,264.33 -99.034,0"
               style="fill:none;stroke:#231f20;stroke-width:0.69999999;stroke-linecap:butt;stroke-linejoin:miter;stroke-miterlimit:4;stroke-dasharray:none;stroke-opacity:1"
               id="path1566"
               inkscape:connector-curvature="0" />
            <path
               d="m 200.682,264.33 -4.18,-1.708 0.992,1.708 -0.992,1.707 4.18,-1.707"
               style="fill:#231f20;fill-opacity:1;fill-rule:nonzero;stroke:none"
               id="path1568"
               inkscape:connector-curvature="0" />
            <text
               transform="matrix(1,0,0,-1,96.6842,371.2777)"
               style="font-style:italic;font-variant:normal;font-size:9px;font-family:Times;-inkscape-font-specification:Times-Italic;writing-mode:lr-tb;fill:#231f20;fill-opacity:1;fill-rule:nonzero;stroke:none"
               id="text1570">
              <tspan
                 x="0"
                 y="0"
                 id="tspan1572">y</tspan>
              <tspan
                 x="107.1648"
                 y="109.2285"
                 id="tspan1574">x</tspan>
            </text>
            <path
               d="m 118.762,336.098 45.987,0 0,-10.16 -45.987,0 0,10.16 z"
               style="fill:#ffffff;fill-opacity:1;fill-rule:nonzero;stroke:none"
               id="path1576"
               inkscape:connector-curvature="0" />
            <text
               transform="matrix(1,0,0,-1,119.6963,328.6869)"
               style="font-style:italic;font-variant:normal;font-size:9px;font-family:Times;-inkscape-font-specification:Times-Italic;writing-mode:lr-tb;fill:#ef2f2c;fill-opacity:1;fill-rule:nonzero;stroke:none"
               id="text1578">
              <tspan
                 x="0"
                 y="0"
                 id="tspan1580">g</tspan>
            </text>
            <text
               transform="matrix(1,0,0,-1,124.1963,328.6869)"
               style="font-variant:normal;font-weight:normal;font-size:9px;font-family:Times;-inkscape-font-specification:Times-Roman;writing-mode:lr-tb;fill:#ef2f2c;fill-opacity:1;fill-rule:nonzero;stroke:none"
               id="text1582">
              <tspan
                 x="0"
                 y="0"
                 id="tspan1584">(</tspan>
            </text>
            <text
               transform="matrix(1,0,0,-1,127.1933,328.6869)"
               style="font-style:italic;font-variant:normal;font-size:9px;font-family:Times;-inkscape-font-specification:Times-Italic;writing-mode:lr-tb;fill:#ef2f2c;fill-opacity:1;fill-rule:nonzero;stroke:none"
               id="text1586">
              <tspan
                 x="0"
                 y="0"
                 id="tspan1588">x</tspan>
            </text>
            <text
               transform="matrix(1,0,0,-1,131.1893,328.6869)"
               style="font-variant:normal;font-weight:normal;font-size:9px;font-family:Times;-inkscape-font-specification:Times-Roman;writing-mode:lr-tb;fill:#ef2f2c;fill-opacity:1;fill-rule:nonzero;stroke:none"
               id="text1590">
              <tspan
                 x="0 2.997"
                 y="0"
                 sodipodi:role="line"
                 id="tspan1592">)</tspan>
            </text>
            <text
               transform="matrix(1,0,0,-1,136.4363,328.6869)"
               style="font-variant:normal;font-weight:normal;font-size:9px;font-family:Symbol;-inkscape-font-specification:Symbol;writing-mode:lr-tb;fill:#ef2f2c;fill-opacity:1;fill-rule:nonzero;stroke:none"
               id="text1594">
              <tspan
                 x="0"
                 y="0"
                 id="tspan1596">=</tspan>
            </text>
            <text
               transform="matrix(1,0,0,-1,143.6273,328.6869)"
               style="font-variant:normal;font-weight:normal;font-size:9px;font-family:Times;-inkscape-font-specification:Times-Roman;writing-mode:lr-tb;fill:#ef2f2c;fill-opacity:1;fill-rule:nonzero;stroke:none"
               id="text1598">
              <tspan
                 x="0 2.997 7.4970002 9.7469997 14.247"
                 y="0"
                 sodipodi:role="line"
                 id="tspan1600">(1.8)</tspan>
            </text>
            <text
               transform="matrix(1,0,0,-1,160.8697,331.6869)"
               style="font-style:italic;font-variant:normal;font-size:7px;font-family:Times;-inkscape-font-specification:Times-Italic;writing-mode:lr-tb;fill:#ef2f2c;fill-opacity:1;fill-rule:nonzero;stroke:none"
               id="text1602">
              <tspan
                 x="0"
                 y="0"
                 id="tspan1604">x</tspan>
            </text>
            <path
               d="m 122.1,290.518 33.023,0 0,-11.681 -33.023,0 0,11.681 z"
               style="fill:#ffffff;fill-opacity:1;fill-rule:nonzero;stroke:none"
               id="path1606"
               inkscape:connector-curvature="0" />
            <text
               transform="matrix(1,0,0,-1,124.1768,281.5863)"
               style="font-style:italic;font-variant:normal;font-size:9px;font-family:Times;-inkscape-font-specification:Times-Italic;writing-mode:lr-tb;fill:#2056ae;fill-opacity:1;fill-rule:nonzero;stroke:none"
               id="text1608">
              <tspan
                 x="0"
                 y="0"
                 id="tspan1610">f</tspan>
            </text>
            <text
               transform="matrix(1,0,0,-1,127.5788,281.5863)"
               style="font-variant:normal;font-weight:normal;font-size:9px;font-family:Times;-inkscape-font-specification:Times-Roman;writing-mode:lr-tb;fill:#2056ae;fill-opacity:1;fill-rule:nonzero;stroke:none"
               id="text1612">
              <tspan
                 x="0"
                 y="0"
                 id="tspan1614">(</tspan>
            </text>
            <text
               transform="matrix(1,0,0,-1,130.5758,281.5863)"
               style="font-style:italic;font-variant:normal;font-size:9px;font-family:Times;-inkscape-font-specification:Times-Italic;writing-mode:lr-tb;fill:#2056ae;fill-opacity:1;fill-rule:nonzero;stroke:none"
               id="text1616">
              <tspan
                 x="0"
                 y="0"
                 id="tspan1618">x</tspan>
            </text>
            <text
               transform="matrix(1,0,0,-1,134.5718,281.5863)"
               style="font-variant:normal;font-weight:normal;font-size:9px;font-family:Times;-inkscape-font-specification:Times-Roman;writing-mode:lr-tb;fill:#2056ae;fill-opacity:1;fill-rule:nonzero;stroke:none"
               id="text1620">
              <tspan
                 x="0 2.997"
                 y="0"
                 sodipodi:role="line"
                 id="tspan1622">)</tspan>
            </text>
            <text
               transform="matrix(1,0,0,-1,139.8188,281.5863)"
               style="font-variant:normal;font-weight:normal;font-size:9px;font-family:Symbol;-inkscape-font-specification:Symbol;writing-mode:lr-tb;fill:#2056ae;fill-opacity:1;fill-rule:nonzero;stroke:none"
               id="text1624">
              <tspan
                 x="0"
                 y="0"
                 id="tspan1626">=</tspan>
            </text>
            <text
               transform="matrix(1,0,0,-1,147.0098,281.5863)"
               style="font-style:italic;font-variant:normal;font-size:9px;font-family:Times;-inkscape-font-specification:Times-Italic;writing-mode:lr-tb;fill:#2056ae;fill-opacity:1;fill-rule:nonzero;stroke:none"
               id="text1628">
              <tspan
                 x="0"
                 y="0"
                 id="tspan1630">x</tspan>
            </text>
            <text
               transform="matrix(1,0,0,-1,151.0048,284.5863)"
               style="font-variant:normal;font-weight:normal;font-size:7px;font-family:Times;-inkscape-font-specification:Times-Roman;writing-mode:lr-tb;fill:#2056ae;fill-opacity:1;fill-rule:nonzero;stroke:none"
               id="text1632">
              <tspan
                 x="0"
                 y="0"
                 id="tspan1634">6</tspan>
            </text>
            <text
               transform="matrix(1,0,0,-1,96.4321,254.765)"
               style="font-variant:normal;font-weight:normal;font-size:9px;font-family:Times;-inkscape-font-specification:Times-Roman;writing-mode:lr-tb;fill:#231f20;fill-opacity:1;fill-rule:nonzero;stroke:none"
               id="text1636">
              <tspan
                 x="0 71.350197 75.850197 52.948799 57.448799 34.550098 39.050098 16.149599 20.649599"
                 y="0"
                 sodipodi:role="line"
                 id="tspan1638">040302010</tspan>
              <tspan
                 x="-4.9689002"
                 y="-43.304401"
                 id="tspan1640">2</tspan>
              <tspan
                 x="-4.9689002"
                 y="-80.1036"
                 id="tspan1642">4</tspan>
              <tspan
                 x="89.748901 94.248901"
                 y="0"
                 sodipodi:role="line"
                 id="tspan1644">50</tspan>
            </text>
            <text
               transform="matrix(0,1,1,0,85.0684,298.0766)"
               style="font-variant:normal;font-weight:normal;font-size:9px;font-family:Times;-inkscape-font-specification:Times-Roman;writing-mode:lr-tb;fill:#231f20;fill-opacity:1;fill-rule:nonzero;stroke:none"
               id="text1646">
              <tspan
                 x="0 2.997 9 11.502 14.004 16.506001 19.007999 23.507999 28.007999 31.509001"
                 y="0"
                 sodipodi:role="line"
                 id="tspan1648">(Billions)</tspan>
            </text>
            <path
               d="m 98.682,264.33 30.985,0 c 34.837,0 40.938,59.405 44.892,87.794"
               style="fill:none;stroke:#2056ae;stroke-width:1.20000005;stroke-linecap:butt;stroke-linejoin:miter;stroke-miterlimit:4;stroke-dasharray:none;stroke-opacity:1"
               id="path1650"
               inkscape:connector-curvature="0" />
            <path
               d="m 175.144,356.32 1.591,-6.249 -2.22,1.74 -2.61,-1.067 3.239,5.576"
               style="fill:#2056ae;fill-opacity:1;fill-rule:nonzero;stroke:none"
               id="path1652"
               inkscape:connector-curvature="0" />
            <path
               d="m 98.682,264.33 51.484,0 c 13.01,0 15.13,16.846 16.16,42.637 l 2.137,45.079"
               style="fill:none;stroke:#ef2f2c;stroke-width:1.20000005;stroke-linecap:butt;stroke-linejoin:miter;stroke-miterlimit:4;stroke-dasharray:none;stroke-opacity:1"
               id="path1654"
               inkscape:connector-curvature="0" />
            <path
               d="m 168.664,356.277 2.153,-6.078 -2.369,1.53 -2.503,-1.299 2.719,5.847"
               style="fill:#ef2f2c;fill-opacity:1;fill-rule:nonzero;stroke:none"
               id="path1656"
               inkscape:connector-curvature="0" />
          </g>
        </g>
      </g>
    </g>
  </g>
</svg>
