<?xml version="1.0" encoding="UTF-8" standalone="no"?>
<!-- Created with Inkscape (http://www.inkscape.org/) -->

<svg
   xmlns:dc="http://purl.org/dc/elements/1.1/"
   xmlns:cc="http://creativecommons.org/ns#"
   xmlns:rdf="http://www.w3.org/1999/02/22-rdf-syntax-ns#"
   xmlns:svg="http://www.w3.org/2000/svg"
   xmlns="http://www.w3.org/2000/svg"
   xmlns:sodipodi="http://sodipodi.sourceforge.net/DTD/sodipodi-0.dtd"
   xmlns:inkscape="http://www.inkscape.org/namespaces/inkscape"
   width="56.361633mm"
   height="52.162842mm"
   viewBox="0 0 199.70657 184.82897"
   id="svg7682"
   version="1.1"
   inkscape:version="0.91 r13725"
   sodipodi:docname="fig-example-2-1-1.svg">
  <defs
     id="defs7684">
    <clipPath
       clipPathUnits="userSpaceOnUse"
       id="clipPath7372">
      <path
         d="m 380.389,476.074 159.611,0 0,151.357 -159.611,0 0,-151.357 z"
         id="path7374"
         inkscape:connector-curvature="0" />
    </clipPath>
    <clipPath
       clipPathUnits="userSpaceOnUse"
       id="clipPath7344">
      <path
         d="m 380.389,476.074 159.611,0 0,151.357 -159.611,0 0,-151.357 z"
         id="path7346"
         inkscape:connector-curvature="0" />
    </clipPath>
  </defs>
  <sodipodi:namedview
     id="base"
     pagecolor="#ffffff"
     bordercolor="#666666"
     borderopacity="1.0"
     inkscape:pageopacity="0.0"
     inkscape:pageshadow="2"
     inkscape:zoom="1.5066406"
     inkscape:cx="-9.6683725"
     inkscape:cy="123.91047"
     inkscape:document-units="px"
     inkscape:current-layer="layer1"
     showgrid="false"
     fit-margin-top="0"
     fit-margin-left="0"
     fit-margin-right="0"
     fit-margin-bottom="0"
     inkscape:window-width="1366"
     inkscape:window-height="715"
     inkscape:window-x="0"
     inkscape:window-y="0"
     inkscape:window-maximized="1" />
  <metadata
     id="metadata7687">
    <rdf:RDF>
      <cc:Work
         rdf:about="">
        <dc:format>image/svg+xml</dc:format>
        <dc:type
           rdf:resource="http://purl.org/dc/dcmitype/StillImage" />
        <dc:title></dc:title>
      </cc:Work>
    </rdf:RDF>
  </metadata>
  <g
     inkscape:label="Layer 1"
     inkscape:groupmode="layer"
     id="layer1"
     transform="translate(-384.66837,-232.50153)">
    <g
       id="g7300"
       transform="matrix(1.25,0,0,-1.25,491.3399,385.88231)">
      <path
         d="m 0,0 -70.38,0 0,120.07 140.758,0 L 70.378,0 0,0 M -70.38,120.07 -70.38,0 m 15.594,120.07 0,-120.07 m 15.698,120.07 0,-120.07 m 15.592,120.07 0,-120.07 M -7.797,120.07 -7.797,0 M 7.797,120.07 7.797,0 M 23.391,120.07 23.391,0 M 39.088,120.07 39.088,0 M 54.681,120.07 54.681,0 M 70.378,120.07 70.378,0 m 0,0 -140.758,0 m 140.758,10.916 -140.758,0 m 140.758,10.915 -140.758,0 m 140.758,10.916 -140.758,0 m 140.758,10.916 -140.758,0 m 140.758,10.915 -140.758,0 m 140.758,10.915 -140.758,0 m 140.758,10.916 -140.758,0 m 140.758,10.915 -140.758,0 m 140.758,10.916 -140.758,0 m 140.758,10.915 -140.758,0 m 140.758,10.915 -140.758,0"
         style="fill:none;stroke:#000000;stroke-width:0.17299999;stroke-linecap:round;stroke-linejoin:round;stroke-miterlimit:4;stroke-dasharray:0, 0.693;stroke-dashoffset:0;stroke-opacity:1"
         id="path7302"
         inkscape:connector-curvature="0" />
    </g>
    <text
       y="396.81616"
       x="404.54398"
       transform="scale(0.99089201,1.0091917)"
       style="font-variant:normal;font-weight:normal;font-stretch:normal;font-size:9.83621311px;font-family:'Minion Pro';-inkscape-font-specification:MinionPro-Regular;writing-mode:lr-tb;fill:#000000;fill-opacity:1;fill-rule:nonzero;stroke:none"
       id="text7304">
      <tspan
         x="404.54398 423.81311"
         y="396.81616"
         sodipodi:role="line"
         id="tspan7306">05</tspan>
    </text>
    <g
       id="g7308"
       transform="matrix(1.25,0,0,-1.25,403.36515,390.81844)">
      <path
         d="M 0,0 0,3.949 M 15.594,0 l 0,3.949 M 31.292,0 l 0,3.949 M 46.884,0 l 0,3.949 M 62.582,0 l 0,3.949 M 78.177,0 l 0,3.949 M 93.771,0 l 0,3.949 M 109.468,0 l 0,3.949 M 125.061,0 l 0,3.949 M 140.758,0 l 0,3.949"
         style="fill:none;stroke:#000000;stroke-width:0.303;stroke-linecap:butt;stroke-linejoin:miter;stroke-miterlimit:4;stroke-dasharray:none;stroke-opacity:1"
         id="path7310"
         inkscape:connector-curvature="0" />
    </g>
    <g
       id="g7312"
       transform="matrix(1.25,0,0,-1.25,403.36515,385.88231)">
      <path
         d="M 0,0 140.758,0"
         style="fill:none;stroke:#000000;stroke-width:0.64999998;stroke-linecap:round;stroke-linejoin:round;stroke-miterlimit:4;stroke-dasharray:none;stroke-opacity:1"
         id="path7314"
         inkscape:connector-curvature="0" />
    </g>
    <text
       y="385.88861"
       x="394.80591"
       transform="scale(0.99089201,1.0091917)"
       style="font-variant:normal;font-weight:normal;font-stretch:normal;font-size:9.83621311px;font-family:'Minion Pro';-inkscape-font-specification:MinionPro-Regular;writing-mode:lr-tb;fill:#000000;fill-opacity:1;fill-rule:nonzero;stroke:none"
       id="text7316">
      <tspan
         x="394.80591"
         y="385.88861"
         id="tspan7318">0</tspan>
      <tspan
         x="387.72385 392.52393 394.80591"
         y="371.98019"
         sodipodi:role="line"
         id="tspan7320">0.5</tspan>
      <tspan
         x="394.80591"
         y="358.84885"
         id="tspan7322">1</tspan>
      <tspan
         x="387.72385 392.52393 394.80591"
         y="344.94043"
         sodipodi:role="line"
         id="tspan7324">1.5</tspan>
      <tspan
         x="394.80591"
         y="331.80911"
         id="tspan7326">2</tspan>
      <tspan
         x="387.72385 392.52393 394.80591"
         y="317.9007"
         sodipodi:role="line"
         id="tspan7328">2.5</tspan>
      <tspan
         x="394.80591"
         y="304.76935"
         id="tspan7330">3</tspan>
      <tspan
         x="387.72385 392.52393 394.80591"
         y="290.86093"
         sodipodi:role="line"
         id="tspan7332">3.5</tspan>
      <tspan
         x="394.80591"
         y="277.72958"
         id="tspan7334">4</tspan>
      <tspan
         x="387.72385 392.52393 394.80591"
         y="263.8212"
         sodipodi:role="line"
         id="tspan7336">4.5</tspan>
      <tspan
         x="394.80591"
         y="250.68985"
         id="tspan7338">5</tspan>
    </text>
    <g
       transform="matrix(1.25,0,0,-1.25,-91.295351,1015.8562)"
       id="g7340">
      <g
         id="g7342"
         clip-path="url(#clipPath7344)">
        <text
           transform="matrix(0.98186695,0,0,-1,380.3899,620.8945)"
           style="font-variant:normal;font-weight:normal;font-stretch:normal;font-size:7.94129992px;font-family:'Minion Pro';-inkscape-font-specification:MinionPro-Regular;writing-mode:lr-tb;fill:#000000;fill-opacity:1;fill-rule:nonzero;stroke:none"
           id="text7348">
          <tspan
             x="0 3.8753543 5.7177358"
             y="0"
             sodipodi:role="line"
             id="tspan7350">5.5</tspan>
        </text>
      </g>
    </g>
    <g
       id="g7352"
       transform="matrix(1.25,0,0,-1.25,398.42828,385.88231)">
      <path
         d="M 0,0 3.949,0 M 0,10.916 l 3.949,0 M 0,21.831 l 3.949,0 M 0,32.747 l 3.949,0 M 0,43.663 l 3.949,0 M 0,54.578 l 3.949,0 M 0,65.493 l 3.949,0 M 0,76.409 l 3.949,0 M 0,87.324 l 3.949,0 M 0,98.24 l 3.949,0 M 0,109.155 l 3.949,0 M 0,120.07 l 3.949,0"
         style="fill:none;stroke:#000000;stroke-width:0.303;stroke-linecap:butt;stroke-linejoin:miter;stroke-miterlimit:4;stroke-dasharray:none;stroke-opacity:1"
         id="path7354"
         inkscape:connector-curvature="0" />
    </g>
    <g
       id="g7356"
       transform="matrix(1.25,0,0,-1.25,403.36515,385.88231)">
      <path
         d="M 0,0 0,120.07"
         style="fill:none;stroke:#000000;stroke-width:0.64999998;stroke-linecap:round;stroke-linejoin:round;stroke-miterlimit:4;stroke-dasharray:none;stroke-opacity:1"
         id="path7358"
         inkscape:connector-curvature="0" />
    </g>
    <text
       y="396.81616"
       x="441.70319"
       transform="scale(0.99089201,1.0091917)"
       style="font-variant:normal;font-weight:normal;font-stretch:normal;font-size:9.83621311px;font-family:'Minion Pro';-inkscape-font-specification:MinionPro-Regular;writing-mode:lr-tb;fill:#000000;fill-opacity:1;fill-rule:nonzero;stroke:none"
       id="text7360">
      <tspan
         x="441.70319 446.42456 460.97232 465.6937 481.29395 486.01532 500.56308 505.28445 520.75684 525.47821 540.1637 544.88507 560.35742 565.0788"
         y="396.81616"
         sodipodi:role="line"
         id="tspan7362">10152025303540</tspan>
      <tspan
         x="464.08057 470.31671 474.4971 478.81522 482.46445 486.07434 488.30716 492.62524 498.34995 502.5303 506.17957 508.41235 513.13373 517.85516 522.57654"
         y="413.39017"
         sodipodi:role="line"
         id="tspan7364">Years afer 1960</tspan>
      <tspan
         x="579.62659 584.34796"
         y="396.81616"
         sodipodi:role="line"
         id="tspan7366">45</tspan>
    </text>
    <g
       transform="matrix(1.25,0,0,-1.25,-91.295351,1015.8562)"
       id="g7368">
      <g
         id="g7370"
         clip-path="url(#clipPath7372)">
        <g
           id="g7376"
           transform="translate(397.1349,525.811)">
          <path
             d="m 0,0 c 0,-0.897 -0.728,-1.624 -1.624,-1.624 -0.897,0 -1.625,0.727 -1.625,1.624 0,0.897 0.728,1.624 1.625,1.624 C -0.728,1.624 0,0.897 0,0"
             style="fill:#0095da;fill-opacity:1;fill-rule:nonzero;stroke:none"
             id="path7378"
             inkscape:connector-curvature="0" />
        </g>
        <g
           id="g7380"
           transform="translate(412.8081,531.2163)">
          <path
             d="m 0,0 c 0,-0.897 -0.728,-1.624 -1.624,-1.624 -0.897,0 -1.625,0.727 -1.625,1.624 0,0.897 0.728,1.624 1.625,1.624 C -0.728,1.624 0,0.897 0,0"
             style="fill:#0095da;fill-opacity:1;fill-rule:nonzero;stroke:none"
             id="path7382"
             inkscape:connector-curvature="0" />
        </g>
        <g
           id="g7384"
           transform="translate(428.6964,538.3501)">
          <path
             d="m 0,0 c 0,-0.897 -0.728,-1.624 -1.624,-1.624 -0.897,0 -1.625,0.727 -1.625,1.624 0,0.897 0.728,1.624 1.625,1.624 C -0.728,1.624 0,0.897 0,0"
             style="fill:#0095da;fill-opacity:1;fill-rule:nonzero;stroke:none"
             id="path7386"
             inkscape:connector-curvature="0" />
        </g>
        <g
           id="g7388"
           transform="translate(444.2905,549.2663)">
          <path
             d="m 0,0 c 0,-0.897 -0.728,-1.624 -1.624,-1.624 -0.897,0 -1.625,0.727 -1.625,1.624 0,0.897 0.728,1.624 1.625,1.624 C -0.728,1.624 0,0.897 0,0"
             style="fill:#0095da;fill-opacity:1;fill-rule:nonzero;stroke:none"
             id="path7390"
             inkscape:connector-curvature="0" />
        </g>
        <g
           id="g7392"
           transform="translate(459.9352,569.4725)">
          <path
             d="m 0,0 c 0,-0.897 -0.728,-1.624 -1.624,-1.624 -0.897,0 -1.625,0.727 -1.625,1.624 0,0.897 0.728,1.625 1.625,1.625 C -0.728,1.625 0,0.897 0,0"
             style="fill:#0095da;fill-opacity:1;fill-rule:nonzero;stroke:none"
             id="path7394"
             inkscape:connector-curvature="0" />
        </g>
        <g
           id="g7396"
           transform="translate(475.5825,577.0623)">
          <path
             d="m 0,0 c 0,-0.897 -0.728,-1.624 -1.624,-1.624 -0.898,0 -1.625,0.727 -1.625,1.624 0,0.897 0.727,1.624 1.625,1.624 C -0.728,1.624 0,0.897 0,0"
             style="fill:#0095da;fill-opacity:1;fill-rule:nonzero;stroke:none"
             id="path7398"
             inkscape:connector-curvature="0" />
        </g>
        <g
           id="g7400"
           transform="translate(491.1747,586.8848)">
          <path
             d="m 0,0 c 0,-0.897 -0.728,-1.624 -1.624,-1.624 -0.897,0 -1.625,0.727 -1.625,1.624 0,0.897 0.728,1.624 1.625,1.624 C -0.728,1.624 0,0.897 0,0"
             style="fill:#0095da;fill-opacity:1;fill-rule:nonzero;stroke:none"
             id="path7402"
             inkscape:connector-curvature="0" />
        </g>
        <g
           id="g7404"
           transform="translate(506.8717,596.7094)">
          <path
             d="m 0,0 c 0,-0.897 -0.728,-1.624 -1.624,-1.624 -0.897,0 -1.625,0.727 -1.625,1.624 0,0.897 0.728,1.624 1.625,1.624 C -0.728,1.624 0,0.897 0,0"
             style="fill:#0095da;fill-opacity:1;fill-rule:nonzero;stroke:none"
             id="path7406"
             inkscape:connector-curvature="0" />
        </g>
        <g
           id="g7408"
           transform="translate(522.4648,616.3577)">
          <path
             d="m 0,0 c 0,-0.897 -0.728,-1.624 -1.625,-1.624 -0.896,0 -1.624,0.727 -1.624,1.624 0,0.897 0.728,1.624 1.624,1.624 C -0.728,1.624 0,0.897 0,0"
             style="fill:#0095da;fill-opacity:1;fill-rule:nonzero;stroke:none"
             id="path7410"
             inkscape:connector-curvature="0" />
        </g>
      </g>
    </g>
  </g>
</svg>
