<?xml version="1.0" encoding="UTF-8" standalone="no"?>
<!-- Created with Inkscape (http://www.inkscape.org/) -->

<svg
   xmlns:dc="http://purl.org/dc/elements/1.1/"
   xmlns:cc="http://creativecommons.org/ns#"
   xmlns:rdf="http://www.w3.org/1999/02/22-rdf-syntax-ns#"
   xmlns:svg="http://www.w3.org/2000/svg"
   xmlns="http://www.w3.org/2000/svg"
   xmlns:sodipodi="http://sodipodi.sourceforge.net/DTD/sodipodi-0.dtd"
   xmlns:inkscape="http://www.inkscape.org/namespaces/inkscape"
   width="36.674744mm"
   height="21.946236mm"
   viewBox="0 0 129.94988 77.762252"
   id="svg4829"
   version="1.1"
   inkscape:version="0.91 r13725"
   sodipodi:docname="fig-GC-healt-club-membership.svg">
  <defs
     id="defs4831">
    <clipPath
       clipPathUnits="userSpaceOnUse"
       id="clipPath628">
      <path
         d="m 102.94,328.62 110,0 0,-67 -110,0 0,67 z"
         id="path630"
         inkscape:connector-curvature="0"
         style="clip-rule:evenodd" />
    </clipPath>
    <clipPath
       clipPathUnits="userSpaceOnUse"
       id="clipPath634">
      <path
         d="m 28,776 640,0 0,-748 -640,0 0,748 z"
         id="path636"
         inkscape:connector-curvature="0" />
    </clipPath>
    <clipPath
       clipPathUnits="userSpaceOnUse"
       id="clipPath640">
      <path
         d="m 0,804.015 696,0 0,-804 -696,0 0,804 z"
         id="path642"
         inkscape:connector-curvature="0" />
    </clipPath>
    <clipPath
       clipPathUnits="userSpaceOnUse"
       id="clipPath590">
      <path
         d="m 103.5,235.64 105,0 0,-67 -105,0 0,67 z"
         id="path592"
         inkscape:connector-curvature="0"
         style="clip-rule:evenodd" />
    </clipPath>
    <clipPath
       clipPathUnits="userSpaceOnUse"
       id="clipPath596">
      <path
         d="m 28,776 640,0 0,-748 -640,0 0,748 z"
         id="path598"
         inkscape:connector-curvature="0" />
    </clipPath>
    <clipPath
       clipPathUnits="userSpaceOnUse"
       id="clipPath602">
      <path
         d="m 0,804.015 696,0 0,-804 -696,0 0,804 z"
         id="path604"
         inkscape:connector-curvature="0" />
    </clipPath>
  </defs>
  <sodipodi:namedview
     id="base"
     pagecolor="#ffffff"
     bordercolor="#666666"
     borderopacity="1.0"
     inkscape:pageopacity="0.0"
     inkscape:pageshadow="2"
     inkscape:zoom="1.5066406"
     inkscape:cx="273.74941"
     inkscape:cy="15.490536"
     inkscape:document-units="px"
     inkscape:current-layer="layer1"
     showgrid="false"
     fit-margin-top="0"
     fit-margin-left="0"
     fit-margin-right="0"
     fit-margin-bottom="0"
     inkscape:window-width="1366"
     inkscape:window-height="715"
     inkscape:window-x="0"
     inkscape:window-y="0"
     inkscape:window-maximized="1" />
  <metadata
     id="metadata4834">
    <rdf:RDF>
      <cc:Work
         rdf:about="">
        <dc:format>image/svg+xml</dc:format>
        <dc:type
           rdf:resource="http://purl.org/dc/dcmitype/StillImage" />
        <dc:title></dc:title>
      </cc:Work>
    </rdf:RDF>
  </metadata>
  <g
     inkscape:label="Layer 1"
     inkscape:groupmode="layer"
     id="layer1"
     transform="translate(9.183455,-620.27506)">
    <g
       transform="matrix(1.25,0,0,-1.25,-139.55783,911.87056)"
       id="g586">
      <g
         id="g588"
         clip-path="url(#clipPath590)">
        <g
           id="g594"
           clip-path="url(#clipPath596)">
          <g
             id="g600"
             clip-path="url(#clipPath602)">
            <path
               d="m 112.046,230.253 84.001,0 0,-56 -84.001,0 0,56 z"
               style="fill:#e6f7fd;fill-opacity:1;fill-rule:nonzero;stroke:none"
               id="path606"
               inkscape:connector-curvature="0" />
            <path
               d="m 112.046,174.253 84.001,0 0,56 -84.001,0 0,-56 z"
               style="fill:none;stroke:#231f20;stroke-width:0.69999999;stroke-linecap:butt;stroke-linejoin:miter;stroke-miterlimit:4;stroke-dasharray:none;stroke-opacity:1"
               id="path608"
               inkscape:connector-curvature="0" />
            <path
               d="m 113.584,228.706 0,-52.906 m 80.915,-0.088 -80.906,0"
               style="fill:none;stroke:#231f20;stroke-width:0.69999999;stroke-linecap:square;stroke-linejoin:miter;stroke-miterlimit:4;stroke-dasharray:none;stroke-opacity:1"
               id="path610"
               inkscape:connector-curvature="0" />
            <path
               d="m 115.29,228.722 -1.659,0 m 1.659,-17.673 -1.659,0 m 1.659,-17.674 -1.659,0 m 1.659,-17.673 -1.659,0 m -0.082,0.01 0,1.66 m 4.048,-1.66 0,1.66 m 4.048,-1.66 0,1.66 m 4.048,-1.66 0,1.66 m 4.047,-1.66 0,1.66 m 4.048,-1.66 0,1.66 m 4.048,-1.66 0,1.66 m 4.048,-1.66 0,1.66 m 4.048,-1.66 0,1.66 m 4.047,-1.66 0,1.66 m 4.048,-1.66 0,1.66 m 4.047,-1.66 0,1.66 m 4.049,-1.66 0,1.66 m 4.047,-1.66 0,1.66 m 4.048,-1.66 0,1.66 m 4.048,-1.66 0,1.66 m 4.048,-1.66 0,1.66 m 4.046,-1.66 0,1.66 m 4.049,-1.66 0,1.66 m 4.048,-1.66 0,1.66 m 4.048,-1.66 0,1.66"
               style="fill:none;stroke:#231f20;stroke-width:0.69999999;stroke-linecap:butt;stroke-linejoin:miter;stroke-miterlimit:4;stroke-dasharray:none;stroke-opacity:1"
               id="path612"
               inkscape:connector-curvature="0" />
            <text
               transform="matrix(1,0,0,-1,104.0835,171.1926)"
               style="font-variant:normal;font-weight:normal;font-size:9px;font-family:Times;-inkscape-font-specification:Times-Roman;writing-mode:lr-tb;fill:#231f20;fill-opacity:1;fill-rule:nonzero;stroke:none"
               id="text614">
              <tspan
                 x="0"
                 y="0"
                 id="tspan616">0</tspan>
              <tspan
                 x="0"
                 y="-55.999802"
                 id="tspan618">3</tspan>
              <tspan
                 x="95.391899 99.891899"
                 y="0"
                 sodipodi:role="line"
                 id="tspan620">20</tspan>
            </text>
            <path
               d="m 194.334,185.045 c -64.787,5.038 -66.851,35.535 -72.692,35.5 -4.349,-0.025 -5.64,-20.497 -8.025,-44.878"
               style="fill:none;stroke:#231f20;stroke-width:0.69999999;stroke-linecap:butt;stroke-linejoin:miter;stroke-miterlimit:4;stroke-dasharray:none;stroke-opacity:1"
               id="path622"
               inkscape:connector-curvature="0" />
          </g>
        </g>
      </g>
    </g>
  </g>
</svg>
