<?xml version="1.0" encoding="UTF-8" standalone="no"?>
<!-- Created with Inkscape (http://www.inkscape.org/) -->

<svg
   xmlns:dc="http://purl.org/dc/elements/1.1/"
   xmlns:cc="http://creativecommons.org/ns#"
   xmlns:rdf="http://www.w3.org/1999/02/22-rdf-syntax-ns#"
   xmlns:svg="http://www.w3.org/2000/svg"
   xmlns="http://www.w3.org/2000/svg"
   xmlns:sodipodi="http://sodipodi.sourceforge.net/DTD/sodipodi-0.dtd"
   xmlns:inkscape="http://www.inkscape.org/namespaces/inkscape"
   width="36.946838mm"
   height="24.275734mm"
   viewBox="0 0 130.91399 86.01638"
   id="svg4693"
   version="1.1"
   inkscape:version="0.91 r13725"
   sodipodi:docname="fig-GC-doppler.svg">
  <defs
     id="defs4695">
    <clipPath
       clipPathUnits="userSpaceOnUse"
       id="clipPath690">
      <path
         d="m 400.06,293.64 106,0 0,-74 -106,0 0,74 z"
         id="path692"
         inkscape:connector-curvature="0"
         style="clip-rule:evenodd" />
    </clipPath>
    <clipPath
       clipPathUnits="userSpaceOnUse"
       id="clipPath696">
      <path
         d="m 28,776 640,0 0,-748 -640,0 0,748 z"
         id="path698"
         inkscape:connector-curvature="0" />
    </clipPath>
    <clipPath
       clipPathUnits="userSpaceOnUse"
       id="clipPath702">
      <path
         d="m 0,804.015 696,0 0,-804 -696,0 0,804 z"
         id="path704"
         inkscape:connector-curvature="0" />
    </clipPath>
  </defs>
  <sodipodi:namedview
     id="base"
     pagecolor="#ffffff"
     bordercolor="#666666"
     borderopacity="1.0"
     inkscape:pageopacity="0.0"
     inkscape:pageshadow="2"
     inkscape:zoom="2.1307116"
     inkscape:cx="-15.724288"
     inkscape:cy="71.849255"
     inkscape:document-units="px"
     inkscape:current-layer="layer1"
     showgrid="false"
     fit-margin-top="0"
     fit-margin-left="0"
     fit-margin-right="0"
     fit-margin-bottom="0"
     inkscape:window-width="1366"
     inkscape:window-height="715"
     inkscape:window-x="0"
     inkscape:window-y="0"
     inkscape:window-maximized="1" />
  <metadata
     id="metadata4698">
    <rdf:RDF>
      <cc:Work
         rdf:about="">
        <dc:format>image/svg+xml</dc:format>
        <dc:type
           rdf:resource="http://purl.org/dc/dcmitype/StillImage" />
        <dc:title></dc:title>
      </cc:Work>
    </rdf:RDF>
  </metadata>
  <g
     inkscape:label="Layer 1"
     inkscape:groupmode="layer"
     id="layer1"
     transform="translate(-515.96898,-518.19508)">
    <g
       transform="matrix(1.25,0,0,-1.25,15.502354,882.04796)"
       id="g686">
      <g
         id="g688"
         clip-path="url(#clipPath690)">
        <g
           id="g694"
           clip-path="url(#clipPath696)">
          <g
             id="g700"
             clip-path="url(#clipPath702)">
            <path
               d="m 416.856,287.951 84.001,0 0,-56 -84.001,0 0,56 z"
               style="fill:#e6f7fd;fill-opacity:1;fill-rule:nonzero;stroke:none"
               id="path706"
               inkscape:connector-curvature="0" />
            <path
               d="m 416.856,231.95 84.001,0 0,56 -84.001,0 0,-56 z"
               style="fill:none;stroke:#231f20;stroke-width:0.69999999;stroke-linecap:butt;stroke-linejoin:miter;stroke-miterlimit:4;stroke-dasharray:none;stroke-opacity:1"
               id="path708"
               inkscape:connector-curvature="0" />
            <path
               d="m 458.808,286.404 0,-52.907 m 40.501,-0.087 -80.906,0"
               style="fill:none;stroke:#231f20;stroke-width:0.69999999;stroke-linecap:square;stroke-linejoin:miter;stroke-miterlimit:4;stroke-dasharray:none;stroke-opacity:1"
               id="path710"
               inkscape:connector-curvature="0" />
            <path
               d="m 418.359,233.41 0,1.66 m 4.261,-1.66 0,1.66 m 4.26,-1.66 0,1.66 m 4.262,-1.66 0,1.66 m 4.26,-1.66 0,1.66 m 4.261,-1.66 0,1.66 m 4.26,-1.66 0,1.66 m 4.262,-1.66 0,1.66 m 4.26,-1.66 0,1.66 m 4.261,-1.66 0,1.66 m 4.262,-1.66 0,1.66 m 4.26,-1.66 0,1.66 m 4.261,-1.66 0,1.66 m 4.261,-1.66 0,1.66 m 4.261,-1.66 0,1.66 m 4.261,-1.66 0,1.66 m 4.26,-1.66 0,1.66 m 4.261,-1.66 0,1.66 m 4.261,-1.66 0,1.66 m 4.261,-1.66 0,1.66"
               style="fill:none;stroke:#231f20;stroke-width:0.69999999;stroke-linecap:butt;stroke-linejoin:miter;stroke-miterlimit:4;stroke-dasharray:none;stroke-opacity:1"
               id="path712"
               inkscape:connector-curvature="0" />
            <text
               transform="matrix(1,0,0,-1,400.0673,228.8905)"
               style="font-variant:normal;font-weight:normal;font-size:9px;font-family:Times;-inkscape-font-specification:Times-Roman;writing-mode:lr-tb;fill:#231f20;fill-opacity:1;fill-rule:nonzero;stroke:none"
               id="text714">
              <tspan
                 x="0 4.5 9"
                 y="0"
                 sodipodi:role="line"
                 id="tspan716">300</tspan>
              <tspan
                 x="0 4.5 9"
                 y="-55.999802"
                 sodipodi:role="line"
                 id="tspan718">650</tspan>
              <tspan
                 x="96.2892 100.7892"
                 y="6.3017998"
                 sodipodi:role="line"
                 id="tspan720">94</tspan>
            </text>
            <text
               transform="matrix(1,0,0,-1,407.6012,222.4672)"
               style="font-variant:normal;font-weight:normal;font-size:9px;font-family:Symbol;-inkscape-font-specification:Symbol;writing-mode:lr-tb;fill:#231f20;fill-opacity:1;fill-rule:nonzero;stroke:none"
               id="text722">
              <tspan
                 x="0"
                 y="0"
                 id="tspan724">−</tspan>
            </text>
            <text
               transform="matrix(1,0,0,-1,412.5422,222.4672)"
               style="font-variant:normal;font-weight:normal;font-size:9px;font-family:Times;-inkscape-font-specification:Times-Roman;writing-mode:lr-tb;fill:#231f20;fill-opacity:1;fill-rule:nonzero;stroke:none"
               id="text726">
              <tspan
                 x="0 4.5"
                 y="0"
                 sodipodi:role="line"
                 id="tspan728">94</tspan>
            </text>
            <path
               d="m 499.917,282.591 c -32.058,-27.034 -68.808,-38.158 -81.442,-42.155 m 42.04,45.984 -1.659,0 m 1.659,-7.574 -1.659,0 m 1.659,-7.575 -1.659,0 m 1.659,-7.574 -1.659,0 m 1.659,-7.574 -1.659,0 m 1.659,-7.575 -1.659,0 m 1.659,-7.574 -1.659,0 m 27.764,-7.574 -1.659,0"
               style="fill:none;stroke:#231f20;stroke-width:0.69999999;stroke-linecap:butt;stroke-linejoin:miter;stroke-miterlimit:4;stroke-dasharray:none;stroke-opacity:1"
               id="path730"
               inkscape:connector-curvature="0" />
          </g>
        </g>
      </g>
    </g>
  </g>
</svg>
