<?xml version="1.0" encoding="UTF-8"?>
<svg xmlns="http://www.w3.org/2000/svg" xmlns:xlink="http://www.w3.org/1999/xlink" width="157pt" height="156pt" viewBox="0 0 157 156" version="1.1">
<g id="surface1">
<path style="fill:none;stroke-width:0.3985;stroke-linecap:butt;stroke-linejoin:miter;stroke:rgb(0%,67.83905%,93.728638%);stroke-opacity:1;stroke-miterlimit:10;" d="M 0.001875 0.00046875 L 141.732344 0.00046875 M 0.001875 14.172344 L 141.732344 14.172344 M 0.001875 28.348125 L 141.732344 28.348125 M 0.001875 42.52 L 141.732344 42.52 M 0.001875 56.691875 L 141.732344 56.691875 M 0.001875 70.867656 L 141.732344 70.867656 M 0.001875 85.039531 L 141.732344 85.039531 M 0.001875 99.215312 L 141.732344 99.215312 M 0.001875 113.387187 L 141.732344 113.387187 M 0.001875 127.559062 L 141.732344 127.559062 M 0.001875 141.730937 L 141.732344 141.730937 M 0.001875 0.00046875 L 0.001875 141.734844 M 14.17375 0.00046875 L 14.17375 141.734844 M 28.345625 0.00046875 L 28.345625 141.734844 M 42.521406 0.00046875 L 42.521406 141.734844 M 56.693281 0.00046875 L 56.693281 141.734844 M 70.865156 0.00046875 L 70.865156 141.734844 M 85.040937 0.00046875 L 85.040937 141.734844 M 99.212812 0.00046875 L 99.212812 141.734844 M 113.388594 0.00046875 L 113.388594 141.734844 M 127.560469 0.00046875 L 127.560469 141.734844 M 141.728437 0.00046875 L 141.728437 141.734844 " transform="matrix(1,0,0,-1,2.92,153.27)"/>
<path style="fill:none;stroke-width:1.19553;stroke-linecap:butt;stroke-linejoin:miter;stroke:rgb(0%,0%,0%);stroke-opacity:1;stroke-miterlimit:10;" d="M 0.001875 0.00046875 L 151.201094 0.00046875 " transform="matrix(1,0,0,-1,2.92,153.27)"/>
<path style="fill-rule:nonzero;fill:rgb(0%,0%,0%);fill-opacity:1;stroke-width:1.19553;stroke-linecap:butt;stroke-linejoin:round;stroke:rgb(0%,0%,0%);stroke-opacity:1;stroke-miterlimit:10;" d="M 1.274721 0.00046875 C -0.319029 0.316875 -1.912779 0.9575 -3.826841 2.070781 C -1.912779 0.637187 -1.912779 -0.63625 -3.826841 -2.07375 C -1.912779 -0.956563 -0.319029 -0.319844 1.274721 0.00046875 Z M 1.274721 0.00046875 " transform="matrix(1,0,0,-1,154.11981,153.27)"/>
<path style="fill:none;stroke-width:1.19553;stroke-linecap:butt;stroke-linejoin:miter;stroke:rgb(0%,0%,0%);stroke-opacity:1;stroke-miterlimit:10;" d="M 0.001875 0.00046875 L 0.001875 151.199687 " transform="matrix(1,0,0,-1,2.92,153.27)"/>
<path style="fill-rule:nonzero;fill:rgb(0%,0%,0%);fill-opacity:1;stroke-width:1.19553;stroke-linecap:butt;stroke-linejoin:round;stroke:rgb(0%,0%,0%);stroke-opacity:1;stroke-miterlimit:10;" d="M 1.273315 -0.001875 C -0.320435 0.318438 -1.914185 0.955156 -3.824341 2.072344 C -1.914185 0.63875 -1.914185 -0.638594 -3.824341 -2.072187 C -1.914185 -0.955 -0.320435 -0.318281 1.273315 -0.001875 Z M 1.273315 -0.001875 " transform="matrix(0,-1,-1,0,2.92,2.07019)"/>
</g>
</svg>
