<svg xmlns="http://www.w3.org/2000/svg" xmlns:xlink="http://www.w3.org/1999/xlink" version="1.1" width="175" height="160" viewBox="0 0 175 160">
<defs>
<path id="font_1_1" d="M.33399964 .30233766C.33999635 .32835389 .36299134 .42037965 .43299867 .42037965 .43798829 .42037965 .46199037 .42037965 .48298646 .40734864 .45498658 .402359 .43499757 .37734986 .43499757 .35334779 .43499757 .33735658 .44599916 .31835938 .47299195 .31835938 .49499513 .31835938 .5269928 .3363495 .5269928 .37635804 .5269928 .42837525 .46798707 .4423828 .43399049 .4423828 .37599183 .4423828 .34098817 .38935853 .32899476 .36634828 .3039856 .43237306 .25 .4423828 .22099304 .4423828 .116989139 .4423828 .05999756 .3133545 .05999756 .28834535 .05999756 .27833558 .069992069 .27833558 .07199097 .27833558 .07998657 .27833558 .08299255 .28033448 .084991458 .28933717 .11898804 .39535523 .18499756 .42037965 .21899414 .42037965 .23799134 .42037965 .272995 .4113617 .272995 .35334779 .272995 .32235719 .2559967 .25532533 .21899414 .11528015 .20298767 .053268434 .16799927 .011245728 .12399292 .011245728 .117996219 .011245728 .09498596 .011245728 .07398987 .024276734 .09899902 .029266358 .12098694 .05027771 .12098694 .07827759 .12098694 .105270389 .09899902 .11328125 .083999637 .11328125 .053985597 .11328125 .0289917 .08728027 .0289917 .055267335 .0289917 .009246826 .07899475-.0107421879 .12298584-.0107421879 .18899536-.0107421879 .22499085 .059280397 .22799683 .0652771 .23999024 .028274537 .27598573-.0107421879 .33599855-.0107421879 .43899537-.0107421879 .49598695 .118270877 .49598695 .14328003 .49598695 .1532898 .4869995 .1532898 .48399354 .1532898 .47499085 .1532898 .47299195 .14929199 .47099305 .14228821 .43798829 .03527832 .36999513 .011245728 .33799745 .011245728 .29899598 .011245728 .2829895 .043273927 .2829895 .07727051 .2829895 .09927368 .2889862 .121276859 .2999878 .16529846L.33399964 .30233766Z"/>
<path id="font_1_2" d="M.48599244 .38136292C.48999024 .39537049 .48999024 .39736939 .48999024 .40437318 .48999024 .42237855 .47599793 .43138124 .46099855 .43138124 .45098878 .43138124 .43499757 .42536927 .42599488 .41036988 .42399598 .405365 .41600038 .37435914 .4119873 .35635377 .40499879 .33035279 .397995 .30334474 .3919983 .27633668L.34700013 .09628296C.34298707 .08126831 .2999878 .011245728 .23399353 .011245728 .18299866 .011245728 .17199707 .055267335 .17199707 .0922699 .17199707 .1382904 .18899536 .20030213 .22299195 .28833009 .23899842 .3293457 .24299622 .3403473 .24299622 .36035157 .24299622 .405365 .21099854 .4423828 .16099549 .4423828 .06599426 .4423828 .0289917 .29733277 .0289917 .28833009 .0289917 .27833558 .038986207 .27833558 .040985109 .27833558 .050994874 .27833558 .051986696 .28033448 .056991579 .29634095 .083999637 .3903656 .12399292 .42037965 .1579895 .42037965 .1659851 .42037965 .18299866 .42037965 .18299866 .3883667 .18299866 .36335755 .17298889 .3373413 .1659851 .31834413 .12599182 .21231079 .10798645 .1552887 .10798645 .10827637 .10798645 .019256592 .17098999-.0107421879 .22999573-.0107421879 .2689972-.0107421879 .30299378 .0062561037 .33099366 .03425598 .31799317-.017745972 .30599977-.06674194 .2659912-.11973572 .23999024-.15385437 .20199585-.18309021 .1559906-.18309021 .14199829-.18309021 .09700012-.18005371 .07998657-.14074707 .09599304-.14074707 .10899353-.14074707 .12298584-.1287384 .1329956-.11973572 .14299011-.10673523 .14299011-.08773804 .14299011-.056747438 .115997318-.052734376 .10598755-.052734376 .08299255-.052734376 .049987794-.068740848 .049987794-.11773682 .049987794-.16796875 .09399414-.20507813 .1559906-.20507813 .25898744-.20507813 .3619995-.11373901 .3899994-.00074768069L.48599244 .38136292Z"/>
<path id="font_2_4" d="M.44898988 .20022583C.44898988 .3193512 .36698915 .41944886 .25898744 .41944886 .21099854 .41944886 .16799927 .40345765 .13198853 .36842347V.5637665C.1519928 .5577698 .18499756 .55078127 .21699524 .55078127 .33999635 .55078127 .4099884 .6417694 .4099884 .6547699 .4099884 .6607666 .40699769 .6657715 .3999939 .6657715 .39898683 .6657715 .39698792 .6657715 .3919983 .66278079 .37199403 .6537781 .32299806 .6337738 .2559967 .6337738 .21598816 .6337738 .16999817 .6407776 .12298584 .6617737 .114990238 .66477969 .11299133 .66477969 .11099243 .66477969 .100997928 .66477969 .100997928 .6567688 .100997928 .6407776V.34439088C.100997928 .32637025 .100997928 .31835938 .114990238 .31835938 .12199402 .31835938 .12399292 .32136537 .12799073 .32736207 .13899231 .3433838 .17599488 .39746095 .25698854 .39746095 .30899049 .39746095 .33399964 .35139466 .34199525 .33337403 .35798646 .29632569 .3600006 .25727845 .3600006 .20722962 .3600006 .17222595 .3600006 .11222839 .33599855 .07035828 .31199647 .031463624 .2749939 .0055389406 .22898865 .0055389406 .1559906 .0055389406 .09899902 .058380128 .08198547 .11723328 .084991458 .1162262 .08799744 .115234378 .09899902 .115234378 .13198853 .115234378 .14898682 .14022827 .14898682 .16423035 .14898682 .18823242 .13198853 .21322632 .09899902 .21322632 .084991458 .21322632 .049987794 .20622254 .049987794 .16023255 .049987794 .07434082 .11898804-.022460938 .23098755-.022460938 .34700013-.022460938 .44898988 .073349 .44898988 .20022583Z"/>
<path id="font_2_1" d="M.45999146 .31976319C.45999146 .39982606 .45498658 .47988893 .41999818 .5539398 .37399293 .65000918 .2919922 .6660156 .25 .6660156 .18998719 .6660156 .116989139 .64001467 .07598877 .54693606 .04399109 .47789 .038986207 .39982606 .038986207 .31976319 .038986207 .24472046 .042999269 .15464783 .083999637 .07859802 .1269989-.0024719239 .19999695-.022460938 .24899292-.022460938 .30299378-.022460938 .3789978-.0014648438 .4229889 .09359741 .45498658 .16265869 .45999146 .2407074 .45999146 .31976319M.24899292-.00047302247C.20999146-.00047302247 .15098572 .024551392 .1329956 .12062073 .12199402 .18066406 .12199402 .2727356 .12199402 .3317871 .12199402 .39582826 .12199402 .46188355 .12998963 .5159149 .14898682 .63500979 .22399903 .64401248 .24899292 .64401248 .28199769 .64401248 .34799195 .6259918 .36698915 .52693179 .3769989 .47088624 .3769989 .39482118 .3769989 .3317871 .3769989 .25672914 .3769989 .18867493 .3659973 .12461853 .35099793 .029556275 .2939911-.00047302247 .24899292-.00047302247Z"/>
<path id="font_2_2" d="M.2939911 .64004519C.2939911 .66400149 .2939911 .6660156 .2709961 .6660156 .20899964 .60227969 .12098694 .60227969 .08898926 .60227969V.57128909C.10899353 .57128909 .16799927 .57128909 .21998596 .5972748V.07902527C.21998596 .042999269 .21699524 .0309906 .1269989 .0309906H.09498596V0C.12998963 .0029907227 .21699524 .0029907227 .25698854 .0029907227 .29699708 .0029907227 .38398744 .0029907227 .4189911 0V.0309906H.3869934C.29699708 .0309906 .2939911 .041992189 .2939911 .07902527V.64004519Z"/>
<path id="font_2_3" d="M.2939911 .16503906V.07800293C.2939911 .041992189 .2919922 .0309906 .21798706 .0309906H.19699097V0C.23799134 .0029907227 .2899933 .0029907227 .33198548 .0029907227 .37399293 .0029907227 .4269867 .0029907227 .46798707 0V.0309906H.44699098C.37298585 .0309906 .37098695 .041992189 .37098695 .07800293V.16503906H.47099305V.19602967H.37098695V.65075686C.37098695 .67074587 .37098695 .6767578 .35499574 .6767578 .34599305 .6767578 .34298707 .6767578 .33499146 .66474917L.027999878 .19602967V.16503906H.2939911M.2999878 .19602967H.055999757L.2999878 .5688019V.19602967Z"/>
<path id="font_2_5" d="M.13198853 .327713V.35173036C.13198853 .6047821 .2559967 .64100649 .30699159 .64100649 .33099366 .64100649 .37298585 .634964 .394989 .6007538 .37998963 .6007538 .33999635 .6007538 .33999635 .5557556 .33999635 .524765 .3639984 .5097656 .38598634 .5097656 .4019928 .5097656 .43199159 .51875308 .43199159 .5577545 .43199159 .6178589 .3880005 .6660156 .30499269 .6660156 .1769867 .6660156 .041992189 .5367584 .041992189 .31570436 .041992189 .048553468 .1579895-.022460938 .25099183-.022460938 .3619995-.022460938 .45700074 .07156372 .45700074 .2036438 .45700074 .33070375 .36799623 .4267578 .25698854 .4267578 .18899536 .4267578 .1519928 .37573243 .13198853 .327713M.25099183 .0055389406C.18798828 .0055389406 .1579895 .06556702 .1519928 .080566409 .13398743 .127594 .13398743 .2076416 .13398743 .22564698 .13398743 .30369569 .1659851 .40374757 .2559967 .40374757 .27198792 .40374757 .31799317 .40374757 .34899903 .34172059 .36698915 .30470277 .36698915 .2536621 .36698915 .20463562 .36698915 .15661621 .36698915 .10658264 .34999085 .0705719 .31999208 .010528564 .27398683 .0055389406 .25099183 .0055389406Z"/>
<path id="font_2_6" d="M.16299439 .4569702C.116989139 .486969 .11299133 .52098086 .11299133 .5379791 .11299133 .598999 .17799378 .64100649 .24899292 .64100649 .32199098 .64100649 .38598634 .58898928 .38598634 .51698306 .38598634 .45996095 .34700013 .4119568 .2869873 .37695313L.16299439 .4569702M.30899049 .36193849C.3809967 .3989563 .42999269 .45095826 .42999269 .51698306 .42999269 .6090088 .34098817 .6660156 .25 .6660156 .1499939 .6660156 .068984989 .59199526 .068984989 .49897767 .068984989 .4809723 .070999149 .43595887 .11299133 .38894654 .12399292 .37695313 .16099549 .35194398 .18598938 .33494569 .12799073 .30592347 .041992189 .24984741 .041992189 .15072632 .041992189 .04458618 .14399719-.022460938 .24899292-.022460938 .3619995-.022460938 .45700074 .06060791 .45700074 .16773987 .45700074 .20379639 .44599916 .24885559 .4079895 .2909088 .3889923 .31193543 .37298585 .3219452 .30899049 .36193849M.20899964 .3199463 .33198548 .24183655C.3600006 .2228241 .40699769 .19277954 .40699769 .13169861 .40699769 .05760193 .33198548 .0055389406 .25 .0055389406 .1639862 .0055389406 .09199524 .067611698 .09199524 .15072632 .09199524 .20880127 .12399292 .27288819 .20899964 .3199463Z"/>
<path id="font_3_117" d="M.73799136 .6516113V.6826172C.70700076 .680603 .6669922 .6796112 .6399994 .6796112L.5249939 .6826172V.6516113C.56599429 .6516113 .58200076 .63261416 .58200076 .6126251 .58200076 .6016388 .57598879 .5886383 .57199099 .5826416L.40699769 .31481935 .22599793 .6096344C.21899414 .6196289 .21899414 .6216278 .21899414 .62661746 .21899414 .6476135 .24398804 .6516113 .2889862 .6516113V.6826172C.25299073 .6796112 .17999268 .6796112 .14099121 .6796112L.010986328 .6826172V.6516113H.0289917C.09700012 .6516113 .10499573 .64060977 .12098694 .614624L.33099366 .2728424V.07795715C.33099366 .041992189 .32899476 .0309906 .2519989 .0309906H.22799683V0C.2639923 .0029907227 .33499146 .0029907227 .37399293 .0029907227 .41299439 .0029907227 .48399354 .0029907227 .519989 0V.0309906H.49699403C.41999818 .0309906 .4169922 .040985109 .4169922 .079956058V.2728424L.6100006 .5866394C.6469879 .6476135 .70599368 .6516113 .73799136 .6516113Z"/>
<path id="font_3_50" d="M.4149933 .11933899C.4149933 .12934876 .40699769 .13134766 .4019928 .13134766 .3929901 .13134766 .3909912 .12535095 .3889923 .11734009 .35398866 .014251709 .2639923 .014251709 .2539978 .014251709 .20399475 .014251709 .1639862 .044281007 .14099121 .08131409 .11099243 .12934876 .11099243 .19540406 .11099243 .23144531H.3899994C.4119873 .23144531 .4149933 .23144531 .4149933 .2524414 .4149933 .35131837 .36099244 .4482422 .23599243 .4482422 .11999512 .4482422 .027999878 .34532167 .027999878 .22042847 .027999878 .08631897 .1329956-.0107421879 .24798584-.0107421879 .36999513-.0107421879 .4149933 .10032654 .4149933 .11933899M.34899903 .2524414H.11199951C.117996219 .40126039 .20199585 .426239 .23599243 .426239 .33898927 .426239 .34899903 .2913971 .34899903 .2524414Z"/>
<path id="font_3_28" d="M.48298646 .08912659V.14511109H.45799256V.08912659C.45799256 .03112793 .43299867 .025131226 .42199708 .025131226 .3889923 .025131226 .3849945 .070129398 .3849945 .07511902V.27508546C.3849945 .31707765 .3849945 .3560791 .34899903 .39312745 .30999757 .43223573 .2599945 .4482422 .21199036 .4482422 .12998963 .4482422 .06098938 .40115357 .06098938 .335083 .06098938 .30508424 .08099365 .28808595 .10699463 .28808595 .1349945 .28808595 .15299988 .30807496 .15299988 .33407594 .15299988 .3460846 .147995 .37908937 .101989749 .38008119 .1289978 .41519166 .17799378 .426239 .20999146 .426239 .25898744 .426239 .31599427 .38710023 .31599427 .29808045V.26107789C.2649994 .25808717 .19499207 .25508119 .13198853 .22509766 .056991579 .19110108 .03199768 .13911438 .03199768 .09512329 .03199768 .014251709 .1289978-.0107421879 .19198609-.0107421879 .2579956-.0107421879 .3039856 .029251099 .32299806 .07624817 .32699586 .036132814 .35398866-.005859375 .40098573-.005859375 .42199708-.005859375 .48298646 .008132935 .48298646 .08912659M.31599427 .14013672C.31599427 .04525757 .24398804 .011245728 .19898987 .011245728 .1499939 .011245728 .10899353 .04624939 .10899353 .09625244 .10899353 .15124512 .15098572 .23425293 .31599427 .24024964V.14013672Z"/>
<path id="font_3_96" d="M.3639984 .38137818C.3639984 .41337586 .33299256 .4423828 .2899933 .4423828 .21699524 .4423828 .18099976 .37538148 .16699219 .3323822V.4423828L.027999878 .43066407V.3996582C.09799194 .3996582 .10598755 .39266969 .10598755 .34370423V.07595825C.10598755 .0309906 .09498596 .0309906 .027999878 .0309906V0L.14199829 .0029907227C.18199158 .0029907227 .22898865 .0029907227 .2689972 0V.0309906H.24798584C.17399597 .0309906 .17199707 .04197693 .17199707 .07795715V.23181153C.17199707 .33137513 .21398926 .42037965 .2899933 .42037965 .29699708 .42037965 .29899598 .42037965 .30099488 .41937257 .2979889 .41838075 .27799989 .40637208 .27799989 .3803711 .27799989 .35237123 .29899598 .33737184 .32099916 .33737184 .33898927 .33737184 .3639984 .3493805 .3639984 .38137818Z"/>
<path id="font_3_98" d="M.3600006 .12823487C.3600006 .18122864 .32998658 .21122742 .31799317 .22323609 .2849884 .25523377 .24598694 .26322938 .20399475 .27124024 .147995 .28224183 .08099365 .29522706 .08099365 .35324098 .08099365 .38822938 .10699463 .42922975 .19299317 .42922975 .30299378 .42922975 .30799867 .3392334 .30999757 .30822755 .31098939 .2992401 .32199098 .2992401 .32199098 .2992401 .33499146 .2992401 .33499146 .30422975 .33499146 .32322694V.4242401C.33499146 .4412384 .33499146 .4482422 .32398988 .4482422 .31900025 .4482422 .31698609 .4482422 .3039856 .43623353 .30099488 .43223573 .29100038 .42323304 .2869873 .42022706 .24899292 .4482422 .20799256 .4482422 .19299317 .4482422 .070999149 .4482422 .032989503 .38124085 .032989503 .3252411 .032989503 .29023744 .04899597 .26223756 .07598877 .24023438 .10798645 .2142334 .13598633 .2082367 .20799256 .19422913 .22999573 .19021607 .31199647 .17422486 .31199647 .10221863 .31199647 .051223756 .2769928 .011245728 .19898987 .011245728 .114990238 .011245728 .07899475 .068222049 .05999756 .1532135 .056991579 .16621399 .055999757 .17021179 .04598999 .17021179 .032989503 .17021179 .032989503 .16322327 .032989503 .1452179V.013214111C.032989503-.003753662 .032989503-.0107421879 .04399109-.0107421879 .04899597-.0107421879 .049987794-.009750366 .068984989 .009246826 .070999149 .011245728 .070999149 .013214111 .08898926 .032226564 .1329956-.009750366 .17799378-.0107421879 .19898987-.0107421879 .31399537-.0107421879 .3600006 .05621338 .3600006 .1282196V.12823487Z"/>
<path id="font_3_55" d="M.35699464 .63479617C.35699464 .6717987 .31999208 .7050781 .2669983 .7050781 .19699097 .7050781 .11199951 .65179446 .11199951 .5457611V.43066407H.032989503V.3996582H.11199951V.07595825C.11199951 .0309906 .100997928 .0309906 .033996583 .0309906V0L.147995 .0029907227C.18798828 .0029907227 .23498535 .0029907227 .2749939 0V.0309906H.2539978C.17999268 .0309906 .17799378 .04197693 .17799378 .07795715V.3996582H.2919922V.43066407H.1749878V.5467529C.1749878 .63479617 .22299195 .68307498 .2669983 .68307498 .269989 .68307498 .2849884 .68307498 .2999878 .675827 .28799439 .6717987 .269989 .6587982 .269989 .6338043 .269989 .61079409 .28599549 .5907898 .31298829 .5907898 .34199525 .5907898 .35699464 .61079409 .35699464 .63479617Z"/>
<path id="font_3_105" d="M.33198548 .12385559V.18066406H.30699159V.12585449C.30699159 .052108766 .2769928 .014251709 .23999024 .014251709 .17298889 .014251709 .17298889 .10491943 .17298889 .12187195V.3996582H.31599427V.43066407H.17298889V.6142578H.147995C.14698792 .5324249 .116989139 .42565919 .018997193 .42166139V.3996582H.10398865V.12408447C.10398865 .0012512207 .19699097-.0107421879 .23298645-.0107421879 .3039856-.0107421879 .33198548 .060180665 .33198548 .12408447V.12385559Z"/>
<path id="font_3_82" d="M.4189911 0V.0309906H.3869934C.29699708 .0309906 .2939911 .041992189 .2939911 .07902527V.64012148C.2939911 .6640167 .2939911 .6660156 .2709961 .6660156 .20899964 .60227969 .12098694 .60227969 .08898926 .60227969V.57128909C.10899353 .57128909 .16799927 .57128909 .21998596 .5972748V.07902527C.21998596 .042999269 .21699524 .0309906 .1269989 .0309906H.09498596V0C.12998963 .0029907227 .21699524 .0029907227 .25698854 .0029907227 .29699708 .0029907227 .38398744 .0029907227 .4189911 0Z"/>
<path id="font_3_78" d="M.45700074 .32888795C.45700074 .598114 .34199525 .6660156 .25299073 .6660156 .19799805 .6660156 .14898682 .64801028 .10598755 .6031189 .06498718 .5580902 .041992189 .5160217 .041992189 .44091798 .041992189 .3158722 .12998963 .21777344 .24198914 .21777344 .30299378 .21777344 .34399415 .25979615 .36698915 .3178711V.28582765C.36698915 .05178833 .2630005 .0055389406 .20498657 .0055389406 .18798828 .0055389406 .13398743 .007537842 .10699463 .041778566 .15098572 .041778566 .15899658 .07078552 .15899658 .08778381 .15899658 .118774417 .1349945 .13378906 .11299133 .13378906 .09700012 .13378906 .066986087 .12478638 .066986087 .08578491 .066986087 .018615723 .12098694-.022460938 .20599365-.022460938 .33499146-.022460938 .45700074 .11378479 .45700074 .32888795M.36499024 .42089845C.36499024 .33789063 .33099366 .24076844 .24299622 .24076844 .22698975 .2407074 .18099976 .2407074 .1499939 .30371095 .13198853 .34072877 .13198853 .3908081 .13198853 .43988038 .13198853 .49397279 .13198853 .5410614 .15299988 .578125 .17999268 .62805178 .21798706 .64100649 .25299073 .64100649 .29899598 .64100649 .33198548 .60710147 .34899903 .562088 .36099244 .52989199 .36499024 .46688844 .36499024 .42089845Z"/>
<path id="font_3_121" d="M.45999146 .31976319C.45999146 .39982606 .45498658 .47988893 .41999818 .5539398 .37399293 .65000918 .2919922 .6660156 .25 .6660156 .18998719 .6660156 .116989139 .64001467 .07598877 .54693606 .04399109 .47789 .038986207 .39982606 .038986207 .31976319 .038986207 .24472046 .042999269 .15464783 .083999637 .07859802 .1269989-.0024719239 .19999695-.022460938 .24899292-.022460938 .30299378-.022460938 .3789978-.0014648438 .4229889 .09359741 .45498658 .16265869 .45999146 .2407074 .45999146 .31976319M.3769989 .3317871C.3769989 .25672914 .3769989 .18867493 .3659973 .12461853 .35099793 .029556275 .2939911-.00047302247 .24899292-.00047302247 .20999146-.00047302247 .15098572 .024551392 .1329956 .12062073 .12199402 .18066406 .12199402 .2727356 .12199402 .3317871 .12199402 .39582826 .12199402 .46188355 .12998963 .5159149 .14898682 .63500979 .22399903 .64401248 .24899292 .64401248 .28199769 .64401248 .34799195 .6259918 .36698915 .52693179 .3769989 .47088624 .3769989 .39482118 .3769989 .3317871Z"/>
<path id="font_3_27" d="M.71699526 0V.0309906H.69898989C.6389923 .0309906 .625 .037979127 .6139984 .07095337L.397995 .6958008C.3929901 .7088165 .3909912 .7158203 .375 .7158203 .35899354 .7158203 .35598756 .70980837 .35099793 .6958008L.14399719 .09791565C.12599182 .04698181 .085998538 .03199768 .03199768 .0309906V0L.13398743 .0029907227 .24899292 0V.0309906C.19898987 .0309906 .17399597 .05596924 .17399597 .0819397 .17399597 .08493042 .1749878 .09492493 .17599488 .09692383L.22200012 .2277832H.46899415L.5219879 .07495117C.522995 .07095337 .5249939 .064956668 .5249939 .060958864 .5249939 .0309906 .46899415 .0309906 .44198609 .0309906V0C.47799684 .0029907227 .5479889 .0029907227 .58599856 .0029907227L.71699526 0M.45799256 .25878907H.23298645L.34498597 .58380129 .45799256 .25878907Z"/>
<path id="font_3_112" d="M.5079956 .3996582V.43066407C.4850006 .4286499 .45599366 .42765809 .43299867 .42765809L.34599305 .43066407V.3996582C.3829956 .39865113 .3939972 .37568666 .3939972 .35671998 .3939972 .34773255 .3919983 .34373475 .3880005 .3327484L.28599549 .078125 .17399597 .35671998C.16799927 .3697052 .16799927 .37368775 .16799927 .37368775 .16799927 .3996582 .20698548 .3996582 .22499085 .3996582V.43066407L.115997318 .42765809C.08898926 .42765809 .04899597 .4286499 .018997193 .43066407V.3996582C.08198547 .3996582 .085998538 .3936615 .09899902 .36271668L.24299622 .008224487C.24899292-.0057525637 .25099183-.0107421879 .2639923-.0107421879 .2769928-.0107421879 .2809906-.0017700195 .2849884 .008224487L.41600038 .3327484C.4249878 .3557129 .44198609 .39865113 .5079956 .3996582Z"/>
<path id="font_3_59" d="M.4850006 .40411378C.4850006 .42111207 .47299195 .453125 .43399049 .453125 .4139862 .453125 .36999513 .44711305 .32798768 .40611268 .28599549 .43937684 .24398804 .4423828 .22200012 .4423828 .1289978 .4423828 .05999756 .37338258 .05999756 .29638673 .05999756 .25239564 .08198547 .21440125 .10699463 .19340515 .09399414 .17840576 .07598877 .14538574 .07598877 .11035156 .07598877 .07899475 .08898926 .04083252 .11999512 .020828248 .05999756 .003829956 .027999878-.039138795 .027999878-.07911682 .027999878-.15107727 .1269989-.20605469 .24899292-.20605469 .36698915-.20605469 .47099305-.15507508 .47099305-.07711792 .47099305-.042144777 .45700074 .008834839 .4059906 .036834718 .35299684 .064834598 .29499818 .064834598 .23399353 .064834598 .20899964 .064834598 .1659851 .064834598 .15899658 .065841678 .1269989 .069885257 .10598755 .101242069 .10598755 .13334656 .10598755 .13735962 .10598755 .16040039 .12298584 .18040467 .1619873 .15240479 .20298767 .14941406 .22200012 .14941406 .31498719 .14941406 .38398744 .21839905 .38398744 .2953949 .38398744 .3323822 .36799623 .36938478 .34298707 .39237977 .3789978 .42637635 .4149933 .43138124 .43299867 .43138124 .43299867 .43112184 .43998719 .43112184 .44299317 .43011476 .43199159 .42611695 .4269867 .41513063 .4269867 .40315248 .4269867 .38616944 .43998719 .37417604 .45599366 .37417604 .46598817 .37417604 .4850006 .3811798 .4850006 .4041443V.40411378M.30899049 .29626466C.30899049 .26930238 .30799867 .2373352 .29299928 .21235657 .2849884 .20037842 .2619934 .17240906 .22200012 .17240906 .1349945 .17240906 .1349945 .2722931 .1349945 .29527284 .1349945 .3222351 .13598633 .35420228 .15098572 .3791809 .15899658 .3913269 .18199158 .41937257 .22200012 .41937257 .30899049 .41937257 .30899049 .31922914 .30899049 .29618836V.29626466M.4189911-.07911682C.4189911-.13308716 .34799195-.18305969 .25-.18305969 .14898682-.18305969 .07998657-.13209534 .07998657-.07911682 .07998657-.03314209 .117996219 .003829956 .1619873 .0068359377H.22099304C.30699159 .0068359377 .4189911 .0068359377 .4189911-.07911682Z"/>
<path id="font_3_71" d="M.58200076 .2578125H.5569916C.54599 .15588379 .5319977 .0309906 .35598756 .0309906H.27398683C.22698975 .03060913 .22499085 .037612916 .22499085 .07060242V.6036072C.22499085 .63760378 .22499085 .6516113 .31999208 .6516113H.35299684V.6826172C.31698609 .6796112 .22599793 .6796112 .18499756 .6796112 .1459961 .6796112 .067993167 .6796112 .032989503 .6826172V.6516113H.056991579C.13398743 .6518097 .13598633 .6408081 .13598633 .6048126V.07795715C.13598633 .04197693 .13398743 .0309906 .056991579 .0309906H.032989503V0H.55400088L.58200076 .2578125Z"/>
<path id="font_3_66" d="M.24699402 0V.0309906C.18099976 .0309906 .1769867 .035995485 .1769867 .075042728V.4423828L.036987306 .43066407V.3996582C.101989749 .3996582 .11099243 .3936615 .11099243 .3447113V.07595825C.11099243 .0309906 .099990848 .0309906 .032989503 .0309906V0L.14299011 .0029907227C.17799378 .0029907227 .21299744 .0009918213 .24699402 0M.19198609 .603775C.19198609 .6307678 .16899109 .6567688 .13899231 .6567688 .10499573 .6567688 .084991458 .6287689 .084991458 .603775 .084991458 .57676699 .10798645 .55078127 .13798523 .55078127 .17199707 .55078127 .19198609 .5787811 .19198609 .603775Z"/>
<path id="font_3_49" d="M.6519928 .2579193H.6269989C.60198977 .10397339 .57899478 .0309906 .40699769 .0309906H.27398683C.22698975 .0309906 .22499085 .037994386 .22499085 .07098389V.33789063H.31498719C.4119873 .33789063 .4229889 .30589295 .4229889 .220932H.44799806V.48606874H.4229889C.4229889 .39994813 .4119873 .36888124 .31498719 .36888124H.22499085V.6087799C.22499085 .6416931 .22698975 .64868167 .27398683 .64868167H.40299989C.55599978 .64868167 .58299258 .59381106 .598999 .45507813H.6239929L.59599307 .6796875H.032989503V.64868167H.056991579C.13398743 .64868167 .13598633 .6377106 .13598633 .6017914V.07797241C.13598633 .041992189 .13398743 .0309906 .056991579 .0309906H.032989503V0H.6100006L.6519928 .2579193Z"/>
<path id="font_3_116" d="M.5159912 0V.0309906C.46199037 .03125 .44400025 .0332489 .42099 .0622406L.2869873 .23493958C.31698609 .27287293 .35499574 .3217926 .3789978 .3477478 .4099884 .38368226 .45098878 .39866639 .49798585 .3996582V.43066407C.47200013 .4286499 .44198609 .42765809 .41600038 .42765809 .38598634 .42765809 .33299256 .42965699 .31999208 .43066407V.3996582C.34098817 .3973999 .34899903 .3843994 .34899903 .3684082 .34899903 .35240174 .33898927 .33940126 .33399964 .33340455L.27198792 .2554016 .19400025 .35639955C.18499756 .3664093 .18499756 .3684082 .18499756 .3744049 .18499756 .3894043 .19999695 .39840699 .21998596 .39941407V.43066407L.11199951 .42765809C.09098816 .42765809 .04399109 .4286499 .016998291 .43066407V.3996582C.08699036 .3996582 .08799744 .39865113 .1349945 .3387146L.23399353 .20982361C.18699646 .14988709 .18699646 .14788819 .13999939 .09094238 .09199524 .032989503 .032989503 .0309906 .011993408 .0309906V0C.037994386 .0019989014 .068984989 .0029907227 .09498596 .0029907227L.18998719 0V.0309906C.16799927 .034240724 .16099549 .04724121 .16099549 .0622406 .16099549 .084243778 .18998719 .117248538 .25099183 .1892395L.32699586 .08924866C.33499146 .07824707 .34799195 .0622406 .34799195 .056243898 .34799195 .04724121 .33898927 .03224182 .31199647 .03125V0L.41999818 .0029907227C.44699098 .0029907227 .48599244 .0019989014 .5159912 0Z"/>
<path id="font_3_84" d="M.5209961 .21636963C.5209961 .34336854 .42399598 .4423828 .31199647 .4423828 .23399353 .4423828 .19198609 .39837647 .17199707 .3763733V.4423828L.027999878 .43066407V.3996582C.09899902 .3996582 .10598755 .3936615 .10598755 .34973146V-.117996219C.10598755-.16308594 .09498596-.16308594 .027999878-.16308594V-.1940918L.13999939-.19110108 .25299073-.1940918V-.16308594C.18598938-.16308594 .1749878-.16308594 .1749878-.117996219V.050186159 .059173585C.17999268 .04319763 .22200012-.0107421879 .2979889-.0107421879 .4169922-.0107421879 .5209961 .087127689 .5209961 .21594239V.21636963M.43798829 .21594239C.43798829 .09512329 .36799623 .011245728 .2939911 .011245728 .2539978 .011245728 .21598816 .031219483 .18899536 .07215881 .1749878 .09312439 .1749878 .09411621 .1749878 .114089969V.33674623C.20399475 .38838197 .25299073 .41737367 .3039856 .41737367 .3769989 .41737367 .43798829 .32937623 .43798829 .21636963V.21594239Z"/>
<path id="font_3_43" d="M.4149933 .119140628C.4149933 .12911988 .40499879 .12911988 .4019928 .12911988 .3929901 .12911988 .3909912 .12512207 .3889923 .119140628 .3600006 .026229859 .29499818 .014251709 .2579956 .014251709 .20498657 .014251709 .116989139 .0572052 .116989139 .21801758 .116989139 .38093568 .19898987 .42323304 .2519989 .42323304 .26098634 .42323304 .32398988 .42222596 .35899354 .38594056 .31799317 .38293458 .31199647 .3529358 .31199647 .3399353 .31199647 .31393434 .32998658 .2939453 .35798646 .2939453 .38398744 .2939453 .4039917 .3109436 .4039917 .34094239 .4039917 .40911866 .32798768 .4482422 .25099183 .4482422 .12599182 .4482422 .033996583 .3399353 .033996583 .21601868 .033996583 .08816528 .1329956-.0107421879 .24899292-.0107421879 .3829956-.0107421879 .4149933 .10914612 .4149933 .119140628Z"/>
<path id="font_3_77" d="M.5349884 0V.0309906C.48298646 .0309906 .45799256 .0309906 .45700074 .061019899V.25221253C.45700074 .3383026 .45700074 .36932374 .42599488 .405365 .4119873 .42237855 .3789978 .4423828 .32099916 .4423828 .24798584 .4423828 .20098877 .39935304 .17298889 .33729554V.4423828L.03199768 .43066407V.3996582C.101989749 .3996582 .10998535 .39266969 .10998535 .34370423V.07595825C.10998535 .0309906 .09899902 .0309906 .03199768 .0309906V0L.14498902 .0029907227 .25698854 0V.0309906C.18998719 .0309906 .1789856 .0309906 .1789856 .07595825V.25978089C.1789856 .36431886 .25 .42037965 .31399537 .42037965 .3769989 .42037965 .3880005 .36631776 .3880005 .30926515V.076034549C.3880005 .0309906 .3769989 .0309906 .30999757 .0309906V0L.4229889 .0029907227 .5349884 0Z"/>
<path id="font_3_118" d="M.5079956 .3996582V.43066407C.4850006 .4286499 .45599366 .42765809 .43299867 .42765809L.34599305 .43066407V.3996582C.3769989 .39866639 .3929901 .3816681 .3929901 .35668946 .3929901 .34669496 .3919983 .34469605 .3869934 .33270265L.28599549 .08685303 .1749878 .35568238C.17098999 .36567689 .16899109 .36967469 .16899109 .3736725 .16899109 .3996582 .20599365 .3996582 .22499085 .3996582V.43066407L.115997318 .42765809C.08898926 .42765809 .04899597 .4286499 .018997193 .43066407V.3996582C.066986087 .3996582 .085998538 .3996582 .099990848 .36468507L.25-.000091552738 .22499085-.059066774C.20298767-.11407471 .1749878-.18309021 .11099243-.18309021 .10598755-.18309021 .08299255-.18309021 .06399536-.16503906 .09498596-.16104126 .102996829-.13905335 .102996829-.123046878 .102996829-.0970459 .083999637-.08103943 .06098938-.08103943 .040985109-.08103943 .018997193-.09403992 .018997193-.124053958 .018997193-.16905213 .06098938-.20507813 .11099243-.20507813 .17399597-.20507813 .21499634-.14804077 .23899842-.091049198L.4149933 .33569337C.44099427 .39865113 .49198915 .3996582 .5079956 .3996582Z"/>
</defs>
<path transform="matrix(1.00005,0,0,-1.00008,29.771683,231.28447)" stroke-width=".3985" stroke-linecap="butt" stroke-miterlimit="10" stroke-linejoin="miter" fill="none" stroke="#00aeef" d="M0 114.80373H127.55977M0 127.55971H127.55977M0 140.31568H127.55977M0 153.07163H127.55977M0 165.8276H127.55977M0 178.58358H127.55977M0 191.33956H127.55977M0 204.09552H127.55977M0 102.0478V204.09563M12.75595 102.0478V204.09563M25.51193 102.0478V204.09563M38.26791 102.0478V204.09563M51.0239 102.0478V204.09563M63.77988 102.0478V204.09563M76.53586 102.0478V204.09563M89.29184 102.0478V204.09563M102.0478 102.0478V204.09563M114.80379 102.0478V204.09563M127.55528 102.0478V204.09563M127.55977 204.09563"/>
<path transform="matrix(1.00005,0,0,-1.00008,29.771683,231.28447)" stroke-width=".79701" stroke-linecap="butt" stroke-miterlimit="10" stroke-linejoin="miter" fill="none" stroke="#000000" d="M0 102.0478H133.77881"/>
<path transform="matrix(1.00005,0,0,-1.00008,163.55718,129.22852)" d="M1.0361 0C-.25902 .25902-1.55415 .77707-3.1083 1.68365-1.55415 .51805-1.55415-.51805-3.1083-1.68365-1.55415-.77707-.25902-.25902 1.0361 0Z"/>
<path transform="matrix(1.00005,0,0,-1.00008,163.55718,129.22852)" stroke-width=".79701" stroke-linecap="butt" stroke-linejoin="round" fill="none" stroke="#000000" d="M1.0361 0C-.25902 .25902-1.55415 .77707-3.1083 1.68365-1.55415 .51805-1.55415-.51805-3.1083-1.68365-1.55415-.77707-.25902-.25902 1.0361 0Z"/>
<use data-text="x" xlink:href="#font_1_1" transform="matrix(9.963098,0,0,-9.963397,168.71163,131.37348)"/>
<path transform="matrix(1.00005,0,0,-1.00008,29.771683,231.28447)" stroke-width=".79701" stroke-linecap="butt" stroke-miterlimit="10" stroke-linejoin="miter" fill="none" stroke="#000000" d="M0 102.0478V217.96834"/>
<path transform="matrix(0,-1.00008,-1.00005,-0,29.771683,13.298691)" d="M1.0361 0C-.25902 .25902-1.55415 .77707-3.1083 1.68365-1.55415 .51805-1.55415-.51805-3.1083-1.68365-1.55415-.77707-.25902-.25902 1.0361 0Z"/>
<path transform="matrix(0,-1.00008,-1.00005,-0,29.771683,13.298691)" stroke-width=".79701" stroke-linecap="butt" stroke-linejoin="round" fill="none" stroke="#000000" d="M1.0361 0C-.25902 .25902-1.55415 .77707-3.1083 1.68365-1.55415 .51805-1.55415-.51805-3.1083-1.68365-1.55415-.77707-.25902-.25902 1.0361 0Z"/>
<use data-text="y" xlink:href="#font_1_2" transform="matrix(9.963098,0,0,-9.963397,27.15055,6.2074587)"/>
<path transform="matrix(1.00005,0,0,-1.00008,29.771683,231.28447)" stroke-width=".3985" stroke-linecap="butt" stroke-miterlimit="10" stroke-linejoin="miter" fill="none" stroke="#000000" d="M63.77988 105.87445V98.22078"/>
<use data-text="5" xlink:href="#font_2_4" transform="matrix(9.963098,0,0,-9.963397,88.57262,142.9964)"/>
<use data-text="0" xlink:href="#font_2_1" transform="matrix(9.963098,0,0,-9.963397,93.55417,142.9964)"/>
<path transform="matrix(1.00005,0,0,-1.00008,29.771683,231.28447)" stroke-width=".3985" stroke-linecap="butt" stroke-miterlimit="10" stroke-linejoin="miter" fill="none" stroke="#000000" d="M127.55977 105.87445V98.22078"/>
<use data-text="1" xlink:href="#font_2_2" transform="matrix(9.963098,0,0,-9.963397,149.86568,142.9964)"/>
<use data-text="0" xlink:href="#font_2_1" transform="matrix(9.963098,0,0,-9.963397,154.84723,142.9964)"/>
<use data-text="0" xlink:href="#font_2_1" transform="matrix(9.963098,0,0,-9.963397,159.82877,142.9964)"/>
<path transform="matrix(1.00005,0,0,-1.00008,29.771683,231.28447)" stroke-width=".3985" stroke-linecap="butt" stroke-miterlimit="10" stroke-linejoin="miter" fill="none" stroke="#000000" d="M1.9133 102.0478H-1.9135"/>
<use data-text="4" xlink:href="#font_2_3" transform="matrix(9.963098,0,0,-9.963397,14.374916,132.43857)"/>
<use data-text="0" xlink:href="#font_2_1" transform="matrix(9.963098,0,0,-9.963397,19.35646,132.43857)"/>
<path transform="matrix(1.00005,0,0,-1.00008,29.771683,231.28447)" stroke-width=".3985" stroke-linecap="butt" stroke-miterlimit="10" stroke-linejoin="miter" fill="none" stroke="#000000" d="M1.9133 153.07172H-1.9135"/>
<use data-text="6" xlink:href="#font_2_5" transform="matrix(9.963098,0,0,-9.963397,14.374916,81.41048)"/>
<use data-text="0" xlink:href="#font_2_1" transform="matrix(9.963098,0,0,-9.963397,19.35646,81.41048)"/>
<path transform="matrix(1.00005,0,0,-1.00008,29.771683,231.28447)" stroke-width=".3985" stroke-linecap="butt" stroke-miterlimit="10" stroke-linejoin="miter" fill="none" stroke="#000000" d="M1.9133 204.09563H-1.9135"/>
<use data-text="8" xlink:href="#font_2_6" transform="matrix(9.963098,0,0,-9.963397,14.374916,30.383408)"/>
<use data-text="0" xlink:href="#font_2_1" transform="matrix(9.963098,0,0,-9.963397,19.35646,30.383408)"/>
<path transform="matrix(1.00005,0,0,-1.00008,29.771683,231.28447)" stroke-width="1.19553" stroke-linecap="butt" stroke-miterlimit="10" stroke-linejoin="miter" fill="none" stroke="#ff0000" d="M7.01581 102.40788C7.01581 102.40788 8.37653 108.00713 8.89915 109.8821 9.42177 111.75706 10.25987 114.38104 10.7825 115.9214 11.30511 117.46178 12.14322 119.67682 12.66583 120.98401 13.18846 122.29121 14.02657 124.20709 14.54918 125.3428 15.07181 126.4785 15.90991 128.16547 16.43253 129.16944 16.95514 130.17342 17.79326 131.67911 18.31587 132.57877 18.8385 133.47844 19.67659 134.83731 20.1992 135.6537 20.72183 136.47008 21.55994 137.71578 22.08257 138.46276 22.60518 139.20973 23.44328 140.3502 23.9659 141.03746 24.48853 141.7247 25.32663 142.77924 25.84926 143.41597 26.37187 144.05272 27.20996 145.03333 27.73259 145.62671 28.2552 146.22008 29.09332 147.13722 29.61594 147.69261 30.13857 148.24802 30.97665 149.10733 31.49928 149.62967 32.0219 150.15201 32.86002 150.96451 33.38263 151.45737 33.90524 151.95021 34.74335 152.71578 35.26596 153.18189 35.78859 153.648 36.6267 154.37424 37.1493 154.81687 37.67194 155.25948 38.51004 155.95032 39.03265 156.37204 39.55528 156.79378 40.39339 157.4542 40.916 157.85637 41.43863 158.25855 42.27672 158.88645 42.79935 159.27063 43.32196 159.65482 44.16006 160.25737 44.6827 160.62534 45.2053 160.99332 46.04341 161.5698 46.56604 161.92282 47.08865 162.27584 47.92676 162.83032 48.44939 163.16968 48.972 163.50902 49.8101 164.0419 50.33272 164.36867 50.85533 164.69544 51.69345 165.21 52.21606 165.52484 52.7387 165.83966 53.5768 166.33402 54.09941 166.63779 54.62202 166.94156 55.46014 167.42053 55.98276 167.71414 56.50539 168.00775 57.34348 168.46993 57.86609 168.75392 58.38872 169.0379 59.22682 169.48603 59.74945 169.761 60.27206 170.03598 61.11017 170.46916 61.63278 170.73575 62.15541 171.00235 62.99352 171.42372 63.51614 171.68248 64.03876 171.94124 64.87685 172.3496 65.39948 172.6008 65.92209 172.852 66.76021 173.24886 67.28282 173.49304 67.80544 173.73722 68.64354 174.12332 69.16617 174.36074 69.68878 174.59818 70.5269 174.97299 71.04951 175.20432 71.57213 175.43564 72.41023 175.80222 72.93285 176.02803 73.45547 176.25385 74.29358 176.61174 74.8162 176.8319 75.33882 177.05205 76.17693 177.4006 76.69954 177.61476 77.22217 177.8289 78.06027 178.16638 78.58289 178.3754 79.10551 178.58441 79.9436 178.91663 80.46623 179.12128 80.98885 179.32592 81.82695 179.65073 82.34956 179.85039 82.8722 180.05007 83.7103 180.36548 84.23293 180.56044 84.75554 180.75542 85.59364 181.06488 86.11627 181.25569 86.63889 181.44652 87.47699 181.74895 87.9996 181.93576 88.52222 182.1226 89.36032 182.41934 89.88295 182.60222 90.40556 182.7851 91.24368 183.07479 91.7663 183.25388 92.28891 183.43299 93.12703 183.71743 93.64964 183.89308 94.17227 184.06873 95.01036 184.34775 95.53297 184.5198 96.0556 184.6919 96.8937 184.96482 97.41632 185.13333 97.93895 185.30185 98.77705 185.56899 99.29967 185.73439 99.8223 185.89977 100.6604 186.16286 101.18303 186.3253 101.70564 186.48777 102.54373 186.7458 103.06636 186.90534 103.58897 187.06488 104.42708 187.31858 104.9497 187.47527 105.47232 187.63193 106.31042 187.88082 106.83305 188.03466 107.35567 188.18846 108.19379 188.4328 108.7164 188.58393 109.23901 188.73503 110.07712 188.97527 110.59973 189.12386 111.12236 189.27243 111.96046 189.50887 112.48308 189.65485 113.00569 189.80083 113.84381 190.03252 114.36642 190.17609 114.88905 190.31966 115.72716 190.5482 116.24977 190.68955 116.7724 190.8309 117.61049 191.05571 118.13312 191.19484 118.65573 191.33397 119.49384 191.55536 120.01645 191.69234 120.53908 191.8293 121.37718 192.04737 121.89981 192.18206 122.42242 192.31676 123.26053 192.5305 123.78316 192.6632 124.30577 192.7959 125.14388 193.00782 125.66649 193.13852 126.1891 193.26923 127.54984 193.60526 125.73149 193.15634"/>
<path transform="matrix(.97087857,-.23970919,-.23970197,-.9709077,155.50945,38.112688)" d="M1.27522 0C-.31879 .31879-1.91284 .9564-3.8257 2.07224-1.91284 .6376-1.91284-.6376-3.8257-2.07224-1.91284-.9564-.31879-.31879 1.27522 0Z" fill="#ff0000"/>
<path transform="matrix(.97087857,-.23970919,-.23970197,-.9709077,155.50945,38.112688)" stroke-width="1.19553" stroke-linecap="butt" stroke-linejoin="round" fill="none" stroke="#ff0000" d="M1.27522 0C-.31879 .31879-1.91284 .9564-3.8257 2.07224-1.91284 .6376-1.91284-.6376-3.8257-2.07224-1.91284-.9564-.31879-.31879 1.27522 0Z"/>
<path transform="matrix(1.00005,0,0,-1.00008,29.771683,231.28447)" d="M15.30711 127.55977C15.30711 128.96884 14.16492 130.1111 12.75595 130.1111 11.34698 130.1111 10.2048 128.96884 10.2048 127.55977 10.2048 126.1507 11.34698 125.00842 12.75595 125.00842 14.16492 125.00842 15.30711 126.1507 15.30711 127.55977ZM12.75595 127.55977" fill="#0000ff"/>
<path transform="matrix(1.00005,0,0,-1.00008,29.771683,231.28447)" stroke-width=".3985" stroke-linecap="butt" stroke-miterlimit="10" stroke-linejoin="miter" fill="none" stroke="#0000ff" d="M15.30711 127.55977C15.30711 128.96884 14.16492 130.1111 12.75595 130.1111 11.34698 130.1111 10.2048 128.96884 10.2048 127.55977 10.2048 126.1507 11.34698 125.00842 12.75595 125.00842 14.16492 125.00842 15.30711 126.1507 15.30711 127.55977ZM12.75595 127.55977"/>
<path transform="matrix(1.00005,0,0,-1.00008,29.771683,231.28447)" d="M28.0631 138.01976C28.0631 139.42884 26.9209 140.57109 25.51193 140.57109 24.10297 140.57109 22.96078 139.42884 22.96078 138.01976 22.96078 136.61069 24.10297 135.46843 25.51193 135.46843 26.9209 135.46843 28.0631 136.61069 28.0631 138.01976ZM25.51193 138.01976" fill="#0000ff"/>
<path transform="matrix(1.00005,0,0,-1.00008,29.771683,231.28447)" stroke-width=".3985" stroke-linecap="butt" stroke-miterlimit="10" stroke-linejoin="miter" fill="none" stroke="#0000ff" d="M28.0631 138.01976C28.0631 139.42884 26.9209 140.57109 25.51193 140.57109 24.10297 140.57109 22.96078 139.42884 22.96078 138.01976 22.96078 136.61069 24.10297 135.46843 25.51193 135.46843 26.9209 135.46843 28.0631 136.61069 28.0631 138.01976ZM25.51193 138.01976"/>
<path transform="matrix(1.00005,0,0,-1.00008,29.771683,231.28447)" d="M40.81906 152.30638C40.81906 153.71546 39.67688 154.85771 38.26791 154.85771 36.85895 154.85771 35.71677 153.71546 35.71677 152.30638 35.71677 150.89731 36.85895 149.75505 38.26791 149.75505 39.67688 149.75505 40.81906 150.89731 40.81906 152.30638ZM38.26791 152.30638" fill="#0000ff"/>
<path transform="matrix(1.00005,0,0,-1.00008,29.771683,231.28447)" stroke-width=".3985" stroke-linecap="butt" stroke-miterlimit="10" stroke-linejoin="miter" fill="none" stroke="#0000ff" d="M40.81906 152.30638C40.81906 153.71546 39.67688 154.85771 38.26791 154.85771 36.85895 154.85771 35.71677 153.71546 35.71677 152.30638 35.71677 150.89731 36.85895 149.75505 38.26791 149.75505 39.67688 149.75505 40.81906 150.89731 40.81906 152.30638ZM38.26791 152.30638"/>
<path transform="matrix(1.00005,0,0,-1.00008,29.771683,231.28447)" d="M53.57504 160.47C53.57504 161.87908 52.43286 163.02135 51.0239 163.02135 49.61493 163.02135 48.47275 161.87908 48.47275 160.47 48.47275 159.06095 49.61493 157.91867 51.0239 157.91867 52.43286 157.91867 53.57504 159.06095 53.57504 160.47ZM51.0239 160.47" fill="#0000ff"/>
<path transform="matrix(1.00005,0,0,-1.00008,29.771683,231.28447)" stroke-width=".3985" stroke-linecap="butt" stroke-miterlimit="10" stroke-linejoin="miter" fill="none" stroke="#0000ff" d="M53.57504 160.47C53.57504 161.87908 52.43286 163.02135 51.0239 163.02135 49.61493 163.02135 48.47275 161.87908 48.47275 160.47 48.47275 159.06095 49.61493 157.91867 51.0239 157.91867 52.43286 157.91867 53.57504 159.06095 53.57504 160.47ZM51.0239 160.47"/>
<path transform="matrix(1.00005,0,0,-1.00008,29.771683,231.28447)" d="M66.33102 173.9917C66.33102 175.40077 65.18884 176.54303 63.77988 176.54303 62.37091 176.54303 61.22873 175.40077 61.22873 173.9917 61.22873 172.58263 62.37091 171.44037 63.77988 171.44037 65.18884 171.44037 66.33102 172.58263 66.33102 173.9917ZM63.77988 173.9917" fill="#0000ff"/>
<path transform="matrix(1.00005,0,0,-1.00008,29.771683,231.28447)" stroke-width=".3985" stroke-linecap="butt" stroke-miterlimit="10" stroke-linejoin="miter" fill="none" stroke="#0000ff" d="M66.33102 173.9917C66.33102 175.40077 65.18884 176.54303 63.77988 176.54303 62.37091 176.54303 61.22873 175.40077 61.22873 173.9917 61.22873 172.58263 62.37091 171.44037 63.77988 171.44037 65.18884 171.44037 66.33102 172.58263 66.33102 173.9917ZM63.77988 173.9917"/>
<path transform="matrix(1.00005,0,0,-1.00008,29.771683,231.28447)" d="M79.087 177.81835C79.087 179.22742 77.94482 180.36968 76.53586 180.36968 75.12689 180.36968 73.98471 179.22742 73.98471 177.81835 73.98471 176.40927 75.12689 175.26702 76.53586 175.26702 77.94482 175.26702 79.087 176.40927 79.087 177.81835ZM76.53586 177.81835" fill="#0000ff"/>
<path transform="matrix(1.00005,0,0,-1.00008,29.771683,231.28447)" stroke-width=".3985" stroke-linecap="butt" stroke-miterlimit="10" stroke-linejoin="miter" fill="none" stroke="#0000ff" d="M79.087 177.81835C79.087 179.22742 77.94482 180.36968 76.53586 180.36968 75.12689 180.36968 73.98471 179.22742 73.98471 177.81835 73.98471 176.40927 75.12689 175.26702 76.53586 175.26702 77.94482 175.26702 79.087 176.40927 79.087 177.81835ZM76.53586 177.81835"/>
<path transform="matrix(1.00005,0,0,-1.00008,29.771683,231.28447)" d="M91.84299 180.62467C91.84299 182.03374 90.7008 183.17601 89.29184 183.17601 87.88287 183.17601 86.74069 182.03374 86.74069 180.62467 86.74069 179.21559 87.88287 178.07334 89.29184 178.07334 90.7008 178.07334 91.84299 179.21559 91.84299 180.62467ZM89.29184 180.62467" fill="#0000ff"/>
<path transform="matrix(1.00005,0,0,-1.00008,29.771683,231.28447)" stroke-width=".3985" stroke-linecap="butt" stroke-miterlimit="10" stroke-linejoin="miter" fill="none" stroke="#0000ff" d="M91.84299 180.62467C91.84299 182.03374 90.7008 183.17601 89.29184 183.17601 87.88287 183.17601 86.74069 182.03374 86.74069 180.62467 86.74069 179.21559 87.88287 178.07334 89.29184 178.07334 90.7008 178.07334 91.84299 179.21559 91.84299 180.62467ZM89.29184 180.62467"/>
<path transform="matrix(1.00005,0,0,-1.00008,29.771683,231.28447)" d="M104.59895 188.02297C104.59895 189.43204 103.45677 190.57431 102.0478 190.57431 100.63884 190.57431 99.49666 189.43204 99.49666 188.02297 99.49666 186.6139 100.63884 185.47164 102.0478 185.47164 103.45677 185.47164 104.59895 186.6139 104.59895 188.02297ZM102.0478 188.02297" fill="#0000ff"/>
<path transform="matrix(1.00005,0,0,-1.00008,29.771683,231.28447)" stroke-width=".3985" stroke-linecap="butt" stroke-miterlimit="10" stroke-linejoin="miter" fill="none" stroke="#0000ff" d="M104.59895 188.02297C104.59895 189.43204 103.45677 190.57431 102.0478 190.57431 100.63884 190.57431 99.49666 189.43204 99.49666 188.02297 99.49666 186.6139 100.63884 185.47164 102.0478 185.47164 103.45677 185.47164 104.59895 186.6139 104.59895 188.02297ZM102.0478 188.02297"/>
<path transform="matrix(1.00005,0,0,-1.00008,29.771683,231.28447)" d="M117.35493 192.35996C117.35493 193.76903 116.21275 194.91129 114.80379 194.91129 113.39482 194.91129 112.25262 193.76903 112.25262 192.35996 112.25262 190.95088 113.39482 189.80863 114.80379 189.80863 116.21275 189.80863 117.35493 190.95088 117.35493 192.35996ZM114.80379 192.35996" fill="#0000ff"/>
<path transform="matrix(1.00005,0,0,-1.00008,29.771683,231.28447)" stroke-width=".3985" stroke-linecap="butt" stroke-miterlimit="10" stroke-linejoin="miter" fill="none" stroke="#0000ff" d="M117.35493 192.35996C117.35493 193.76903 116.21275 194.91129 114.80379 194.91129 113.39482 194.91129 112.25262 193.76903 112.25262 192.35996 112.25262 190.95088 113.39482 189.80863 114.80379 189.80863 116.21275 189.80863 117.35493 190.95088 117.35493 192.35996ZM114.80379 192.35996"/>
<path transform="matrix(1.00005,0,0,-1.00008,29.771683,231.28447)" d="M130.11092 195.93163C130.11092 197.34069 128.96874 198.48296 127.55977 198.48296 126.1508 198.48296 125.0086 197.34069 125.0086 195.93163 125.0086 194.52256 126.1508 193.38028 127.55977 193.38028 128.96874 193.38028 130.11092 194.52256 130.11092 195.93163ZM127.55977 195.93163" fill="#0000ff"/>
<path transform="matrix(1.00005,0,0,-1.00008,29.771683,231.28447)" stroke-width=".3985" stroke-linecap="butt" stroke-miterlimit="10" stroke-linejoin="miter" fill="none" stroke="#0000ff" d="M130.11092 195.93163C130.11092 197.34069 128.96874 198.48296 127.55977 198.48296 126.1508 198.48296 125.0086 197.34069 125.0086 195.93163 125.0086 194.52256 126.1508 193.38028 127.55977 193.38028 128.96874 193.38028 130.11092 194.52256 130.11092 195.93163ZM127.55977 195.93163"/>
<use data-text="Y" xlink:href="#font_3_117" transform="matrix(9.963098,0,0,-9.963397,70.97174,158.14463)"/>
<use data-text="e" xlink:href="#font_3_50" transform="matrix(9.963098,0,0,-9.963397,77.62708,158.14463)"/>
<use data-text="a" xlink:href="#font_3_28" transform="matrix(9.963098,0,0,-9.963397,82.0507,158.14463)"/>
<use data-text="r" xlink:href="#font_3_96" transform="matrix(9.963098,0,0,-9.963397,87.03224,158.14463)"/>
<use data-text="s" xlink:href="#font_3_98" transform="matrix(9.963098,0,0,-9.963397,90.937778,158.14463)"/>
<use data-text="a" xlink:href="#font_3_28" transform="matrix(9.963098,0,0,-9.963397,98.170978,158.14463)"/>
<use data-text="f" xlink:href="#font_3_55" transform="matrix(9.963098,0,0,-9.963397,103.15253,158.14463)"/>
<use data-text="t" xlink:href="#font_3_105" transform="matrix(9.963098,0,0,-9.963397,106.20123,158.14463)"/>
<use data-text="e" xlink:href="#font_3_50" transform="matrix(9.963098,0,0,-9.963397,110.07687,158.14463)"/>
<use data-text="r" xlink:href="#font_3_96" transform="matrix(9.963098,0,0,-9.963397,114.5005,158.14463)"/>
<use data-text="1" xlink:href="#font_3_82" transform="matrix(9.963098,0,0,-9.963397,121.723758,158.14463)"/>
<use data-text="9" xlink:href="#font_3_78" transform="matrix(9.963098,0,0,-9.963397,126.70529,158.14463)"/>
<use data-text="0" xlink:href="#font_3_121" transform="matrix(9.963098,0,0,-9.963397,131.68683,158.14463)"/>
<use data-text="0" xlink:href="#font_3_121" transform="matrix(9.963098,0,0,-9.963397,136.66837,158.14463)"/>
<use data-text="A" xlink:href="#font_3_27" transform="matrix(0,-9.963397,-9.963098,-0,9.3506779,132.18354)"/>
<use data-text="v" xlink:href="#font_3_112" transform="matrix(0,-9.963397,-9.963098,-0,9.3506779,125.80696)"/>
<use data-text="e" xlink:href="#font_3_50" transform="matrix(0,-9.963397,-9.963098,-0,9.3506779,120.825267)"/>
<use data-text="r" xlink:href="#font_3_96" transform="matrix(0,-9.963397,-9.963098,-0,9.3506779,116.40152)"/>
<use data-text="a" xlink:href="#font_3_28" transform="matrix(0,-9.963397,-9.963098,-0,9.3506779,112.495868)"/>
<use data-text="g" xlink:href="#font_3_59" transform="matrix(0,-9.963397,-9.963098,-0,9.3506779,107.514179)"/>
<use data-text="e" xlink:href="#font_3_50" transform="matrix(0,-9.963397,-9.963098,-0,9.3506779,102.532489)"/>
<use data-text="L" xlink:href="#font_3_71" transform="matrix(0,-9.963397,-9.963098,-0,9.3506779,94.80089)"/>
<use data-text="i" xlink:href="#font_3_66" transform="matrix(0,-9.963397,-9.963098,-0,9.3506779,88.57376)"/>
<use data-text="f" xlink:href="#font_3_55" transform="matrix(0,-9.963397,-9.963098,-0,9.3506779,85.803928)"/>
<use data-text="e" xlink:href="#font_3_50" transform="matrix(0,-9.963397,-9.963098,-0,9.3506779,82.75514)"/>
<use data-text="E" xlink:href="#font_3_49" transform="matrix(0,-9.963397,-9.963098,-0,9.3506779,75.013568)"/>
<use data-text="x" xlink:href="#font_3_116" transform="matrix(0,-9.963397,-9.963098,-0,9.3506779,68.228488)"/>
<use data-text="p" xlink:href="#font_3_84" transform="matrix(0,-9.963397,-9.963098,-0,9.3506779,62.96782)"/>
<use data-text="e" xlink:href="#font_3_50" transform="matrix(0,-9.963397,-9.963098,-0,9.3506779,57.1492)"/>
<use data-text="c" xlink:href="#font_3_43" transform="matrix(0,-9.963397,-9.963098,-0,9.3506779,52.72545)"/>
<use data-text="t" xlink:href="#font_3_105" transform="matrix(0,-9.963397,-9.963098,-0,9.3506779,48.301698)"/>
<use data-text="a" xlink:href="#font_3_28" transform="matrix(0,-9.963397,-9.963098,-0,9.3506779,44.425935)"/>
<use data-text="n" xlink:href="#font_3_77" transform="matrix(0,-9.963397,-9.963098,-0,9.3506779,39.44423)"/>
<use data-text="c" xlink:href="#font_3_43" transform="matrix(0,-9.963397,-9.963098,-0,9.3506779,33.904588)"/>
<use data-text="y" xlink:href="#font_3_118" transform="matrix(0,-9.963397,-9.963098,-0,9.3506779,29.480835)"/>
</svg>
