<svg xmlns="http://www.w3.org/2000/svg" xmlns:xlink="http://www.w3.org/1999/xlink" version="1.1" width="118" height="89" viewBox="0 0 118 89">
<g>
<path transform="matrix(1.00005,0,0,-1.00003,2.4941788,87.24014)" d="M0 28.3468V56.69362H113.38724V28.3468ZM113.38724 56.69362" fill="#c7eafb" fill-opacity=".5"/>
<path transform="matrix(1.00005,0,0,-1.00003,2.4941788,87.24014)" stroke-width="1.19553" stroke-linecap="butt" stroke-miterlimit="10" stroke-linejoin="miter" fill="none" stroke="#000000" stroke-opacity=".5" d="M0 28.3468V56.69362H113.38724V28.3468ZM113.38724 56.69362"/>
</g>
<g>
<path transform="matrix(1.00005,0,0,-1.00003,2.4941788,87.24014)" d="M0 56.69362V85.04042H113.38724V56.69362ZM113.38724 85.04042" fill="#c7eafb" fill-opacity=".5"/>
<path transform="matrix(1.00005,0,0,-1.00003,2.4941788,87.24014)" stroke-width="1.19553" stroke-linecap="butt" stroke-miterlimit="10" stroke-linejoin="miter" fill="none" stroke="#000000" stroke-opacity=".5" d="M0 56.69362V85.04042H113.38724V56.69362ZM113.38724 85.04042"/>
</g>
<path transform="matrix(1.00005,0,0,-1.00003,2.4941788,87.24014)" stroke-width="1.19553" stroke-linecap="butt" stroke-miterlimit="10" stroke-linejoin="miter" fill="none" stroke="#000000" d="M28.3468 0V85.04042"/>
<path transform="matrix(1.00005,0,0,-1.00003,2.4941788,87.24014)" stroke-width="1.19553" stroke-linecap="butt" stroke-miterlimit="10" stroke-linejoin="miter" fill="none" stroke="#000000" d="M56.69362 0V85.04042"/>
<path transform="matrix(1.00005,0,0,-1.00003,2.4941788,87.24014)" stroke-width="1.19553" stroke-linecap="butt" stroke-miterlimit="10" stroke-linejoin="miter" fill="none" stroke="#000000" d="M85.04042 0V85.04042"/>
<path transform="matrix(1.00005,0,0,-1.00003,2.4941788,87.24014)" stroke-width="1.19553" stroke-linecap="butt" stroke-miterlimit="10" stroke-linejoin="miter" fill="none" stroke="#000000" d="M0 0V28.3468H113.38724V0ZM113.38724 28.3468"/>
</svg>
