<svg xmlns="http://www.w3.org/2000/svg" xmlns:xlink="http://www.w3.org/1999/xlink" version="1.1" width="314" height="233" viewBox="0 0 314 233">
<defs>
<path id="font_1_104" d="M.68499758 .45214845 .66600039 .6767578H.054992677L.035995485 .45214845H.06098938C.07499695 .6128235 .08999634 .64575198 .24099732 .64575198 .25898744 .64575198 .2849884 .64575198 .29499818 .64375308 .31599427 .6397705 .31599427 .6287842 .31599427 .60583499V.07901001C.31599427 .04499817 .31599427 .0309906 .21099854 .0309906H.17098999V0C.21199036 .0029907227 .31399537 .0029907227 .3600006 .0029907227 .4059906 .0029907227 .5089874 .0029907227 .5499878 0V.0309906H.5099945C.40499879 .0309906 .40499879 .04499817 .40499879 .07901001V.60583499C.40499879 .62579348 .40499879 .6397705 .4229889 .64375308 .43399049 .64575198 .46099855 .64575198 .47999574 .64575198 .6309967 .64575198 .6459961 .6128235 .6599884 .45214845H.68499758Z"/>
<path id="font_1_66" d="M.24699402 0V.0309906C.18099976 .0309906 .1769867 .035995485 .1769867 .075042728V.4423828L.036987306 .43066407V.3996582C.101989749 .3996582 .11099243 .3936615 .11099243 .3447113V.07595825C.11099243 .0309906 .099990848 .0309906 .032989503 .0309906V0L.14299011 .0029907227C.17799378 .0029907227 .21299744 .0009918213 .24699402 0M.19198609 .603775C.19198609 .6307678 .16899109 .6567688 .13899231 .6567688 .10499573 .6567688 .084991458 .6287689 .084991458 .603775 .084991458 .57676699 .10798645 .55078127 .13798523 .55078127 .17199707 .55078127 .19198609 .5787811 .19198609 .603775Z"/>
<path id="font_1_75" d="M.8129883 0V.0309906C.7609863 .0309906 .73599246 .0309906 .7350006 .061019899V.25221253C.7350006 .3383026 .7350006 .36932374 .70399478 .405365 .6899872 .42237855 .6569977 .4423828 .598999 .4423828 .5149994 .4423828 .47099305 .38233949 .45399476 .34429933 .43998719 .43138124 .3659973 .4423828 .32099916 .4423828 .24798584 .4423828 .20098877 .39935304 .17298889 .33729554V.4423828L.03199768 .43066407V.3996582C.101989749 .3996582 .10998535 .39266969 .10998535 .34370423V.07595825C.10998535 .0309906 .09899902 .0309906 .03199768 .0309906V0L.14498902 .0029907227 .25698854 0V.0309906C.18998719 .0309906 .1789856 .0309906 .1789856 .07595825V.25978089C.1789856 .36431886 .25 .42037965 .31399537 .42037965 .3769989 .42037965 .3880005 .36631776 .3880005 .30926515V.076034549C.3880005 .0309906 .3769989 .0309906 .30999757 .0309906V0L.4229889 .0029907227 .5349884 0V.0309906C.46798707 .0309906 .45700074 .0309906 .45700074 .076034549V.2602234C.45700074 .36431886 .5279999 .42037965 .59199526 .42037965 .6549988 .42037965 .66600039 .36631776 .66600039 .30926515V.076034549C.66600039 .0309906 .6549988 .0309906 .58799746 .0309906V0L.70098879 .0029907227 .8129883 0Z"/>
<path id="font_1_50" d="M.4149933 .11933899C.4149933 .12934876 .40699769 .13134766 .4019928 .13134766 .3929901 .13134766 .3909912 .12535095 .3889923 .11734009 .35398866 .014251709 .2639923 .014251709 .2539978 .014251709 .20399475 .014251709 .1639862 .044281007 .14099121 .08131409 .11099243 .12934876 .11099243 .19540406 .11099243 .23144531H.3899994C.4119873 .23144531 .4149933 .23144531 .4149933 .2524414 .4149933 .35131837 .36099244 .4482422 .23599243 .4482422 .11999512 .4482422 .027999878 .34532167 .027999878 .22042847 .027999878 .08631897 .1329956-.0107421879 .24798584-.0107421879 .36999513-.0107421879 .4149933 .10032654 .4149933 .11933899M.34899903 .2524414H.11199951C.117996219 .40126039 .20199585 .426239 .23599243 .426239 .33898927 .426239 .34899903 .2913971 .34899903 .2524414Z"/>
<path id="font_1_85" d="M.33099366-.2400055C.33099366-.23701477 .33099366-.23500061 .31399537-.21800232 .18899536-.0920105 .15699768 .09700012 .15699768 .25 .15699768 .42399598 .19499207 .59799197 .31799317 .72299197 .33099366 .7350006 .33099366 .7369995 .33099366 .73999026 .33099366 .746994 .32699586 .75 .32099916 .75 .31098939 .75 .22099304 .6819916 .1619873 .5549927 .11099243 .44499208 .09899902 .33399964 .09899902 .25 .09899902 .17199707 .10998535 .050994874 .16499329-.06201172 .22499085-.18501282 .31098939-.25 .32099916-.25 .32699586-.25 .33099366-.24700928 .33099366-.2400055Z"/>
<path id="font_1_28" d="M.48298646 .08912659V.14511109H.45799256V.08912659C.45799256 .03112793 .43299867 .025131226 .42199708 .025131226 .3889923 .025131226 .3849945 .070129398 .3849945 .07511902V.27508546C.3849945 .31707765 .3849945 .3560791 .34899903 .39312745 .30999757 .43223573 .2599945 .4482422 .21199036 .4482422 .12998963 .4482422 .06098938 .40115357 .06098938 .335083 .06098938 .30508424 .08099365 .28808595 .10699463 .28808595 .1349945 .28808595 .15299988 .30807496 .15299988 .33407594 .15299988 .3460846 .147995 .37908937 .101989749 .38008119 .1289978 .41519166 .17799378 .426239 .20999146 .426239 .25898744 .426239 .31599427 .38710023 .31599427 .29808045V.26107789C.2649994 .25808717 .19499207 .25508119 .13198853 .22509766 .056991579 .19110108 .03199768 .13911438 .03199768 .09512329 .03199768 .014251709 .1289978-.0107421879 .19198609-.0107421879 .2579956-.0107421879 .3039856 .029251099 .32299806 .07624817 .32699586 .036132814 .35398866-.005859375 .40098573-.005859375 .42199708-.005859375 .48298646 .008132935 .48298646 .08912659M.31599427 .14013672C.31599427 .04525757 .24398804 .011245728 .19898987 .011245728 .1499939 .011245728 .10899353 .04624939 .10899353 .09625244 .10899353 .15124512 .15098572 .23425293 .31599427 .24024964V.14013672Z"/>
<path id="font_1_86" d="M.2889862 .25C.2889862 .32798768 .27799989 .44898988 .22299195 .56199648 .16299439 .68499758 .07699585 .75 .066986087 .75 .06098938 .75 .056991579 .74598696 .056991579 .73999026 .056991579 .7369995 .056991579 .7350006 .07598877 .71699526 .17399597 .6179962 .23098755 .45899964 .23098755 .25 .23098755 .07899475 .19400025-.09700012 .069992069-.2230072 .056991579-.23500061 .056991579-.23701477 .056991579-.2400055 .056991579-.2460022 .06098938-.25 .066986087-.25 .07699585-.25 .16699219-.18200684 .22599793-.055007936 .2769928 .054992677 .2889862 .16600037 .2889862 .25Z"/>
<path id="font_1_46" d="M.70700076 .33580018C.70700076 .52568057 .57199099 .6826172 .40098573 .6826172H.034988405V.6516113H.05899048C.13598633 .6516113 .13798523 .64060977 .13798523 .6046295V.07795715C.13798523 .041992189 .13598633 .0309906 .05899048 .0309906H.034988405V0H.40098573C.56900027 0 .70700076 .1479187 .70700076 .33580018M.6069946 .33580018C.6069946 .22486878 .58799746 .16490174 .5519867 .11593628 .5319977 .08895874 .47499085 .0309906 .37399293 .0309906H.272995C.22599793 .0309906 .22399903 .037994386 .22399903 .07096863V.6116333C.22399903 .64460757 .22599793 .6516113 .272995 .6516113H.37298585C.43499757 .6516113 .5039978 .6296234 .5549927 .55867007 .59799197 .49969483 .6069946 .41375733 .6069946 .33580018Z"/>
<path id="font_1_98" d="M.3600006 .12823487C.3600006 .18122864 .32998658 .21122742 .31799317 .22323609 .2849884 .25523377 .24598694 .26322938 .20399475 .27124024 .147995 .28224183 .08099365 .29522706 .08099365 .35324098 .08099365 .38822938 .10699463 .42922975 .19299317 .42922975 .30299378 .42922975 .30799867 .3392334 .30999757 .30822755 .31098939 .2992401 .32199098 .2992401 .32199098 .2992401 .33499146 .2992401 .33499146 .30422975 .33499146 .32322694V.4242401C.33499146 .4412384 .33499146 .4482422 .32398988 .4482422 .31900025 .4482422 .31698609 .4482422 .3039856 .43623353 .30099488 .43223573 .29100038 .42323304 .2869873 .42022706 .24899292 .4482422 .20799256 .4482422 .19299317 .4482422 .070999149 .4482422 .032989503 .38124085 .032989503 .3252411 .032989503 .29023744 .04899597 .26223756 .07598877 .24023438 .10798645 .2142334 .13598633 .2082367 .20799256 .19422913 .22999573 .19021607 .31199647 .17422486 .31199647 .10221863 .31199647 .051223756 .2769928 .011245728 .19898987 .011245728 .114990238 .011245728 .07899475 .068222049 .05999756 .1532135 .056991579 .16621399 .055999757 .17021179 .04598999 .17021179 .032989503 .17021179 .032989503 .16322327 .032989503 .1452179V.013214111C.032989503-.003753662 .032989503-.0107421879 .04399109-.0107421879 .04899597-.0107421879 .049987794-.009750366 .068984989 .009246826 .070999149 .011245728 .070999149 .013214111 .08898926 .032226564 .1329956-.009750366 .17799378-.0107421879 .19898987-.0107421879 .31399537-.0107421879 .3600006 .05621338 .3600006 .1282196V.12823487Z"/>
<path id="font_1_105" d="M.33198548 .12385559V.18066406H.30699159V.12585449C.30699159 .052108766 .2769928 .014251709 .23999024 .014251709 .17298889 .014251709 .17298889 .10491943 .17298889 .12187195V.3996582H.31599427V.43066407H.17298889V.6142578H.147995C.14698792 .5324249 .116989139 .42565919 .018997193 .42166139V.3996582H.10398865V.12408447C.10398865 .0012512207 .19699097-.0107421879 .23298645-.0107421879 .3039856-.0107421879 .33198548 .060180665 .33198548 .12408447V.12385559Z"/>
<path id="font_1_77" d="M.5349884 0V.0309906C.48298646 .0309906 .45799256 .0309906 .45700074 .061019899V.25221253C.45700074 .3383026 .45700074 .36932374 .42599488 .405365 .4119873 .42237855 .3789978 .4423828 .32099916 .4423828 .24798584 .4423828 .20098877 .39935304 .17298889 .33729554V.4423828L.03199768 .43066407V.3996582C.101989749 .3996582 .10998535 .39266969 .10998535 .34370423V.07595825C.10998535 .0309906 .09899902 .0309906 .03199768 .0309906V0L.14498902 .0029907227 .25698854 0V.0309906C.18998719 .0309906 .1789856 .0309906 .1789856 .07595825V.25978089C.1789856 .36431886 .25 .42037965 .31399537 .42037965 .3769989 .42037965 .3880005 .36631776 .3880005 .30926515V.076034549C.3880005 .0309906 .3769989 .0309906 .30999757 .0309906V0L.4229889 .0029907227 .5349884 0Z"/>
<path id="font_1_43" d="M.4149933 .119140628C.4149933 .12911988 .40499879 .12911988 .4019928 .12911988 .3929901 .12911988 .3909912 .12512207 .3889923 .119140628 .3600006 .026229859 .29499818 .014251709 .2579956 .014251709 .20498657 .014251709 .116989139 .0572052 .116989139 .21801758 .116989139 .38093568 .19898987 .42323304 .2519989 .42323304 .26098634 .42323304 .32398988 .42222596 .35899354 .38594056 .31799317 .38293458 .31199647 .3529358 .31199647 .3399353 .31199647 .31393434 .32998658 .2939453 .35798646 .2939453 .38398744 .2939453 .4039917 .3109436 .4039917 .34094239 .4039917 .40911866 .32798768 .4482422 .25099183 .4482422 .12599182 .4482422 .033996583 .3399353 .033996583 .21601868 .033996583 .08816528 .1329956-.0107421879 .24899292-.0107421879 .3829956-.0107421879 .4149933 .10914612 .4149933 .119140628Z"/>
<path id="font_1_55" d="M.35699464 .63479617C.35699464 .6717987 .31999208 .7050781 .2669983 .7050781 .19699097 .7050781 .11199951 .65179446 .11199951 .5457611V.43066407H.032989503V.3996582H.11199951V.07595825C.11199951 .0309906 .100997928 .0309906 .033996583 .0309906V0L.147995 .0029907227C.18798828 .0029907227 .23498535 .0029907227 .2749939 0V.0309906H.2539978C.17999268 .0309906 .17799378 .04197693 .17799378 .07795715V.3996582H.2919922V.43066407H.1749878V.5467529C.1749878 .63479617 .22299195 .68307498 .2669983 .68307498 .269989 .68307498 .2849884 .68307498 .2999878 .675827 .28799439 .6717987 .269989 .6587982 .269989 .6338043 .269989 .61079409 .28599549 .5907898 .31298829 .5907898 .34199525 .5907898 .35699464 .61079409 .35699464 .63479617Z"/>
<path id="font_1_96" d="M.3639984 .38137818C.3639984 .41337586 .33299256 .4423828 .2899933 .4423828 .21699524 .4423828 .18099976 .37538148 .16699219 .3323822V.4423828L.027999878 .43066407V.3996582C.09799194 .3996582 .10598755 .39266969 .10598755 .34370423V.07595825C.10598755 .0309906 .09498596 .0309906 .027999878 .0309906V0L.14199829 .0029907227C.18199158 .0029907227 .22898865 .0029907227 .2689972 0V.0309906H.24798584C.17399597 .0309906 .17199707 .04197693 .17199707 .07795715V.23181153C.17199707 .33137513 .21398926 .42037965 .2899933 .42037965 .29699708 .42037965 .29899598 .42037965 .30099488 .41937257 .2979889 .41838075 .27799989 .40637208 .27799989 .3803711 .27799989 .35237123 .29899598 .33737184 .32099916 .33737184 .33898927 .33737184 .3639984 .3493805 .3639984 .38137818Z"/>
<path id="font_1_81" d="M.47099305 .21424866C.47099305 .34223939 .37098695 .4482422 .25 .4482422 .125 .4482422 .027999878 .3392334 .027999878 .21424866 .027999878 .085250858 .13198853-.0107421879 .24899292-.0107421879 .36999513-.0107421879 .47099305 .087249759 .47099305 .21424866M.3880005 .22224427C.3880005 .18624878 .3880005 .13224793 .3659973 .08824158 .34399415 .04324341 .2999878 .014251709 .25 .014251709 .20698548 .014251709 .16299439 .035247804 .13598633 .08125305 .11099243 .12524414 .11099243 .18624878 .11099243 .22224427 .11099243 .26124574 .11099243 .31523133 .1349945 .35923768 .1619873 .40522767 .20899964 .426239 .24899292 .426239 .29299928 .426239 .33599855 .40423585 .3619995 .36123658 .3880005 .3182373 .3880005 .26023866 .3880005 .22224427Z"/>
<path id="font_1_63" d="M.5349884 0V.0309906C.48298646 .0309906 .45799256 .0309906 .45700074 .061019899V.25221253C.45700074 .3383026 .45700074 .36932374 .42599488 .405365 .4119873 .42237855 .3789978 .4423828 .32099916 .4423828 .23699951 .4423828 .19299317 .38233949 .1769867 .34629823H.17599488V.69433596L.03199768 .6826172V.6516113C.101989749 .6516113 .10998535 .64463809 .10998535 .59580996V.076034549C.10998535 .0309906 .09899902 .0309906 .03199768 .0309906V0L.14498902 .0029907227 .25698854 0V.0309906C.18998719 .0309906 .1789856 .0309906 .1789856 .076034549V.2602234C.1789856 .36431886 .25 .42037965 .31399537 .42037965 .3769989 .42037965 .3880005 .36631776 .3880005 .30926515V.076034549C.3880005 .0309906 .3769989 .0309906 .30999757 .0309906V0L.4229889 .0029907227 .5349884 0Z"/>
<path id="font_1_35" d="M.5209961 .2163086C.5209961 .34335328 .4229889 .4423828 .30899049 .4423828 .23098755 .4423828 .18798828 .39537049 .17199707 .3773651V.69433596L.027999878 .68333438V.6523285C.09799194 .6523285 .10598755 .6453247 .10598755 .596344V.00024414063H.1309967L.16699219 .06227112C.18199158 .039260866 .22399903-.0107421879 .2979889-.0107421879 .4169922-.0107421879 .5209961 .08728027 .5209961 .2163086M.43798829 .21731568C.43798829 .18029785 .43598939 .120285037 .40699769 .07527161 .38598634 .044265748 .34799195 .011245728 .2939911 .011245728 .24899292 .011260986 .21299744 .03526306 .18899536 .072265628 .1749878 .09326172 .1749878 .09625244 .1749878 .11425781V.32034303C.1749878 .3393402 .1749878 .3403473 .18598938 .35635377 .22499085 .41236878 .27999879 .42037965 .3039856 .42037965 .34899903 .42037965 .3849945 .3943634 .40899659 .35635377 .43499757 .31533814 .43798829 .25831605 .43798829 .21730042V.21731568Z"/>
<path id="font_1_47" d="M.5269928 0V.0309906C.45700074 .0309906 .44898988 .038009645 .44898988 .0871582V.69433596L.30499269 .6826172V.6516113C.375 .6516113 .3829956 .64463809 .3829956 .59580996V.38035584C.35398866 .41636659 .31098939 .4423828 .25698854 .4423828 .13899231 .4423828 .033996583 .3443451 .033996583 .21531677 .033996583 .088272098 .13198853-.0107421879 .24598694-.0107421879 .30999757-.0107421879 .35499574 .023254395 .37998963 .055267335V-.0107421879L.5269928 0M.37998963 .117996219C.37998963 .099990848 .37998963 .09799194 .36898805 .08099365 .33898927 .033218385 .2939911 .011245728 .25099183 .011245728 .20599365 .011245728 .16999817 .037216188 .1459961 .075164798 .11999512 .1161499 .116989139 .17320252 .116989139 .21421814 .116989139 .25125123 .11898804 .31129457 .147995 .35632325 .16899109 .38734437 .20698548 .42037965 .26098634 .42037965 .29599 .42037965 .33799745 .405365 .36898805 .3603363 .37998963 .34332276 .37998963 .34132386 .37998963 .32330323V.117996219Z"/>
</defs>
<path transform="matrix(1.00002,0,0,-1,14.746002,87.271)" stroke-width=".79701" stroke-linecap="butt" stroke-miterlimit="10" stroke-linejoin="miter" fill="none" stroke="#000000" d="M0 0H126.12602"/>
<path transform="matrix(1.00002,0,0,-1,140.87454,87.271)" d="M1.0361 0C-.25902 .25902-1.55415 .77707-3.1083 1.68365-1.55415 .51805-1.55415-.51805-3.1083-1.68365-1.55415-.77707-.25902-.25902 1.0361 0Z"/>
<path transform="matrix(1.00002,0,0,-1,140.87454,87.271)" stroke-width=".79701" stroke-linecap="butt" stroke-linejoin="round" fill="none" stroke="#000000" d="M1.0361 0C-.25902 .25902-1.55415 .77707-3.1083 1.68365-1.55415 .51805-1.55415-.51805-3.1083-1.68365-1.55415-.77707-.25902-.25902 1.0361 0Z"/>
<use data-text="T" xlink:href="#font_1_104" transform="matrix(9.962799,0,0,-9.9626,67.18505,97.735)"/>
<use data-text="i" xlink:href="#font_1_66" transform="matrix(9.962799,0,0,-9.9626,74.3782,97.735)"/>
<use data-text="m" xlink:href="#font_1_75" transform="matrix(9.962799,0,0,-9.9626,77.14785,97.735)"/>
<use data-text="e" xlink:href="#font_1_50" transform="matrix(9.962799,0,0,-9.9626,85.44686,97.735)"/>
<use data-text="(" xlink:href="#font_1_85" transform="matrix(9.962799,0,0,-9.9626,72.16215,109.69)"/>
<use data-text="a" xlink:href="#font_1_28" transform="matrix(9.962799,0,0,-9.9626,76.037677,109.69)"/>
<use data-text=")" xlink:href="#font_1_86" transform="matrix(9.962799,0,0,-9.9626,81.01907,109.69)"/>
<path transform="matrix(1.00002,0,0,-1,14.746002,87.271)" stroke-width=".79701" stroke-linecap="butt" stroke-miterlimit="10" stroke-linejoin="miter" fill="none" stroke="#000000" d="M0 0V83.6058"/>
<path transform="matrix(0,-1,-1.00002,-0,14.746002,3.665207)" d="M1.0361 0C-.25902 .25902-1.55415 .77707-3.1083 1.68365-1.55415 .51805-1.55415-.51805-3.1083-1.68365-1.55415-.77707-.25902-.25902 1.0361 0Z"/>
<path transform="matrix(0,-1,-1.00002,-0,14.746002,3.665207)" stroke-width=".79701" stroke-linecap="butt" stroke-linejoin="round" fill="none" stroke="#000000" d="M1.0361 0C-.25902 .25902-1.55415 .77707-3.1083 1.68365-1.55415 .51805-1.55415-.51805-3.1083-1.68365-1.55415-.77707-.25902-.25902 1.0361 0Z"/>
<use data-text="D" xlink:href="#font_1_46" transform="matrix(0,-9.9626,-9.962799,-0,8.240875,88.582)"/>
<use data-text="i" xlink:href="#font_1_66" transform="matrix(0,-9.9626,-9.962799,-0,8.240875,80.97057)"/>
<use data-text="s" xlink:href="#font_1_98" transform="matrix(0,-9.9626,-9.962799,-0,8.240875,78.20097)"/>
<use data-text="t" xlink:href="#font_1_105" transform="matrix(0,-9.9626,-9.962799,-0,8.240875,74.27571)"/>
<use data-text="a" xlink:href="#font_1_28" transform="matrix(0,-9.9626,-9.962799,-0,8.240875,70.40026)"/>
<use data-text="n" xlink:href="#font_1_77" transform="matrix(0,-9.9626,-9.962799,-0,8.240875,65.41896)"/>
<use data-text="c" xlink:href="#font_1_43" transform="matrix(0,-9.9626,-9.962799,-0,8.240875,59.87976)"/>
<use data-text="e" xlink:href="#font_1_50" transform="matrix(0,-9.9626,-9.962799,-0,8.240875,55.45636)"/>
<use data-text="f" xlink:href="#font_1_55" transform="matrix(0,-9.9626,-9.962799,-0,8.240875,47.71541)"/>
<use data-text="r" xlink:href="#font_1_96" transform="matrix(0,-9.9626,-9.962799,-0,8.240875,44.666856)"/>
<use data-text="o" xlink:href="#font_1_81" transform="matrix(0,-9.9626,-9.962799,-0,8.240875,40.76152)"/>
<use data-text="m" xlink:href="#font_1_75" transform="matrix(0,-9.9626,-9.962799,-0,8.240875,35.780229)"/>
<use data-text="h" xlink:href="#font_1_63" transform="matrix(0,-9.9626,-9.962799,-0,8.240875,24.163834)"/>
<use data-text="o" xlink:href="#font_1_81" transform="matrix(0,-9.9626,-9.962799,-0,8.240875,18.624634)"/>
<use data-text="m" xlink:href="#font_1_75" transform="matrix(0,-9.9626,-9.962799,-0,8.240875,13.643341)"/>
<use data-text="e" xlink:href="#font_1_50" transform="matrix(0,-9.9626,-9.962799,-0,8.240875,5.3444979)"/>
<path transform="matrix(1.00002,0,0,-1,14.746002,87.271)" stroke-width="1.59404" stroke-linecap="butt" stroke-miterlimit="10" stroke-linejoin="miter" fill="none" stroke="#ff0000" d="M0 0 21.2601 28.3468 42.5202 0H121.89134"/>
<path transform="matrix(1.00002,0,0,-1,14.746002,87.271)" stroke-width=".79701" stroke-linecap="butt" stroke-miterlimit="10" stroke-linejoin="miter" fill="none" stroke="#000000" d="M170.08086 0H296.20689"/>
<path transform="matrix(1.00002,0,0,-1,310.9588,87.271)" d="M1.0361 0C-.25902 .25902-1.55415 .77707-3.1083 1.68365-1.55415 .51805-1.55415-.51805-3.1083-1.68365-1.55415-.77707-.25902-.25902 1.0361 0Z"/>
<path transform="matrix(1.00002,0,0,-1,310.9588,87.271)" stroke-width=".79701" stroke-linecap="butt" stroke-linejoin="round" fill="none" stroke="#000000" d="M1.0361 0C-.25902 .25902-1.55415 .77707-3.1083 1.68365-1.55415 .51805-1.55415-.51805-3.1083-1.68365-1.55415-.77707-.25902-.25902 1.0361 0Z"/>
<use data-text="T" xlink:href="#font_1_104" transform="matrix(9.962799,0,0,-9.9626,237.26946,97.735)"/>
<use data-text="i" xlink:href="#font_1_66" transform="matrix(9.962799,0,0,-9.9626,244.4626,97.735)"/>
<use data-text="m" xlink:href="#font_1_75" transform="matrix(9.962799,0,0,-9.9626,247.23226,97.735)"/>
<use data-text="e" xlink:href="#font_1_50" transform="matrix(9.962799,0,0,-9.9626,255.53127,97.735)"/>
<use data-text="(" xlink:href="#font_1_85" transform="matrix(9.962799,0,0,-9.9626,241.96755,109.69)"/>
<use data-text="b" xlink:href="#font_1_35" transform="matrix(9.962799,0,0,-9.9626,245.84308,109.69)"/>
<use data-text=")" xlink:href="#font_1_86" transform="matrix(9.962799,0,0,-9.9626,251.38239,109.69)"/>
<path transform="matrix(1.00002,0,0,-1,14.746002,87.271)" stroke-width=".79701" stroke-linecap="butt" stroke-miterlimit="10" stroke-linejoin="miter" fill="none" stroke="#000000" d="M170.08086 0V83.6058"/>
<path transform="matrix(0,-1,-1.00002,-0,184.83026,3.665207)" d="M1.0361 0C-.25902 .25902-1.55415 .77707-3.1083 1.68365-1.55415 .51805-1.55415-.51805-3.1083-1.68365-1.55415-.77707-.25902-.25902 1.0361 0Z"/>
<path transform="matrix(0,-1,-1.00002,-0,184.83026,3.665207)" stroke-width=".79701" stroke-linecap="butt" stroke-linejoin="round" fill="none" stroke="#000000" d="M1.0361 0C-.25902 .25902-1.55415 .77707-3.1083 1.68365-1.55415 .51805-1.55415-.51805-3.1083-1.68365-1.55415-.77707-.25902-.25902 1.0361 0Z"/>
<use data-text="D" xlink:href="#font_1_46" transform="matrix(0,-9.9626,-9.962799,-0,178.32529,88.582)"/>
<use data-text="i" xlink:href="#font_1_66" transform="matrix(0,-9.9626,-9.962799,-0,178.32529,80.97057)"/>
<use data-text="s" xlink:href="#font_1_98" transform="matrix(0,-9.9626,-9.962799,-0,178.32529,78.20097)"/>
<use data-text="t" xlink:href="#font_1_105" transform="matrix(0,-9.9626,-9.962799,-0,178.32529,74.27571)"/>
<use data-text="a" xlink:href="#font_1_28" transform="matrix(0,-9.9626,-9.962799,-0,178.32529,70.40026)"/>
<use data-text="n" xlink:href="#font_1_77" transform="matrix(0,-9.9626,-9.962799,-0,178.32529,65.41896)"/>
<use data-text="c" xlink:href="#font_1_43" transform="matrix(0,-9.9626,-9.962799,-0,178.32529,59.87976)"/>
<use data-text="e" xlink:href="#font_1_50" transform="matrix(0,-9.9626,-9.962799,-0,178.32529,55.45636)"/>
<use data-text="f" xlink:href="#font_1_55" transform="matrix(0,-9.9626,-9.962799,-0,178.32529,47.71541)"/>
<use data-text="r" xlink:href="#font_1_96" transform="matrix(0,-9.9626,-9.962799,-0,178.32529,44.666856)"/>
<use data-text="o" xlink:href="#font_1_81" transform="matrix(0,-9.9626,-9.962799,-0,178.32529,40.76152)"/>
<use data-text="m" xlink:href="#font_1_75" transform="matrix(0,-9.9626,-9.962799,-0,178.32529,35.780229)"/>
<use data-text="h" xlink:href="#font_1_63" transform="matrix(0,-9.9626,-9.962799,-0,178.32529,24.163834)"/>
<use data-text="o" xlink:href="#font_1_81" transform="matrix(0,-9.9626,-9.962799,-0,178.32529,18.624634)"/>
<use data-text="m" xlink:href="#font_1_75" transform="matrix(0,-9.9626,-9.962799,-0,178.32529,13.643341)"/>
<use data-text="e" xlink:href="#font_1_50" transform="matrix(0,-9.9626,-9.962799,-0,178.32529,5.3444979)"/>
<path transform="matrix(1.00002,0,0,-1,14.746002,87.271)" stroke-width="1.59404" stroke-linecap="butt" stroke-miterlimit="10" stroke-linejoin="miter" fill="none" stroke="#ff0000" d="M170.08086 0 191.34096 28.3468 212.60106 0H229.6093L272.12953 56.69362H291.97218"/>
<path transform="matrix(1.00002,0,0,-1,14.746002,87.271)" stroke-width=".79701" stroke-linecap="butt" stroke-miterlimit="10" stroke-linejoin="miter" fill="none" stroke="#000000" d="M0-119.0565H126.12602"/>
<path transform="matrix(1.00002,0,0,-1,140.87454,206.32752)" d="M1.0361 0C-.25902 .25902-1.55415 .77707-3.1083 1.68365-1.55415 .51805-1.55415-.51805-3.1083-1.68365-1.55415-.77707-.25902-.25902 1.0361 0Z"/>
<path transform="matrix(1.00002,0,0,-1,140.87454,206.32752)" stroke-width=".79701" stroke-linecap="butt" stroke-linejoin="round" fill="none" stroke="#000000" d="M1.0361 0C-.25902 .25902-1.55415 .77707-3.1083 1.68365-1.55415 .51805-1.55415-.51805-3.1083-1.68365-1.55415-.77707-.25902-.25902 1.0361 0Z"/>
<use data-text="T" xlink:href="#font_1_104" transform="matrix(9.962799,0,0,-9.9626,67.18505,216.79199)"/>
<use data-text="i" xlink:href="#font_1_66" transform="matrix(9.962799,0,0,-9.9626,74.3782,216.79199)"/>
<use data-text="m" xlink:href="#font_1_75" transform="matrix(9.962799,0,0,-9.9626,77.14785,216.79199)"/>
<use data-text="e" xlink:href="#font_1_50" transform="matrix(9.962799,0,0,-9.9626,85.44686,216.79199)"/>
<use data-text="(" xlink:href="#font_1_85" transform="matrix(9.962799,0,0,-9.9626,72.441158,228.74701)"/>
<use data-text="c" xlink:href="#font_1_43" transform="matrix(9.962799,0,0,-9.9626,76.31668,228.74701)"/>
<use data-text=")" xlink:href="#font_1_86" transform="matrix(9.962799,0,0,-9.9626,80.74016,228.74701)"/>
<path transform="matrix(1.00002,0,0,-1,14.746002,87.271)" stroke-width=".79701" stroke-linecap="butt" stroke-miterlimit="10" stroke-linejoin="miter" fill="none" stroke="#000000" d="M0-119.0565V-35.45068"/>
<path transform="matrix(0,-1,-1.00002,-0,14.746002,122.72168)" d="M1.0361 0C-.25902 .25902-1.55415 .77707-3.1083 1.68365-1.55415 .51805-1.55415-.51805-3.1083-1.68365-1.55415-.77707-.25902-.25902 1.0361 0Z"/>
<path transform="matrix(0,-1,-1.00002,-0,14.746002,122.72168)" stroke-width=".79701" stroke-linecap="butt" stroke-linejoin="round" fill="none" stroke="#000000" d="M1.0361 0C-.25902 .25902-1.55415 .77707-3.1083 1.68365-1.55415 .51805-1.55415-.51805-3.1083-1.68365-1.55415-.77707-.25902-.25902 1.0361 0Z"/>
<use data-text="D" xlink:href="#font_1_46" transform="matrix(0,-9.9626,-9.962799,-0,8.240875,207.639)"/>
<use data-text="i" xlink:href="#font_1_66" transform="matrix(0,-9.9626,-9.962799,-0,8.240875,200.02759)"/>
<use data-text="s" xlink:href="#font_1_98" transform="matrix(0,-9.9626,-9.962799,-0,8.240875,197.25798)"/>
<use data-text="t" xlink:href="#font_1_105" transform="matrix(0,-9.9626,-9.962799,-0,8.240875,193.33272)"/>
<use data-text="a" xlink:href="#font_1_28" transform="matrix(0,-9.9626,-9.962799,-0,8.240875,189.45728)"/>
<use data-text="n" xlink:href="#font_1_77" transform="matrix(0,-9.9626,-9.962799,-0,8.240875,184.47597)"/>
<use data-text="c" xlink:href="#font_1_43" transform="matrix(0,-9.9626,-9.962799,-0,8.240875,178.93677)"/>
<use data-text="e" xlink:href="#font_1_50" transform="matrix(0,-9.9626,-9.962799,-0,8.240875,174.51337)"/>
<use data-text="f" xlink:href="#font_1_55" transform="matrix(0,-9.9626,-9.962799,-0,8.240875,166.77242)"/>
<use data-text="r" xlink:href="#font_1_96" transform="matrix(0,-9.9626,-9.962799,-0,8.240875,163.72386)"/>
<use data-text="o" xlink:href="#font_1_81" transform="matrix(0,-9.9626,-9.962799,-0,8.240875,159.81853)"/>
<use data-text="m" xlink:href="#font_1_75" transform="matrix(0,-9.9626,-9.962799,-0,8.240875,154.83724)"/>
<use data-text="h" xlink:href="#font_1_63" transform="matrix(0,-9.9626,-9.962799,-0,8.240875,143.22084)"/>
<use data-text="o" xlink:href="#font_1_81" transform="matrix(0,-9.9626,-9.962799,-0,8.240875,137.68164)"/>
<use data-text="m" xlink:href="#font_1_75" transform="matrix(0,-9.9626,-9.962799,-0,8.240875,132.70035)"/>
<use data-text="e" xlink:href="#font_1_50" transform="matrix(0,-9.9626,-9.962799,-0,8.240875,124.401508)"/>
<path transform="matrix(1.00002,0,0,-1,14.746002,87.271)" stroke-width="1.59404" stroke-linecap="butt" stroke-miterlimit="10" stroke-linejoin="miter" fill="none" stroke="#ff0000" d="M0-119.0565 34.01608-68.03218H121.89136"/>
<path transform="matrix(1.00002,0,0,-1,14.746002,87.271)" stroke-width=".79701" stroke-linecap="butt" stroke-miterlimit="10" stroke-linejoin="miter" fill="none" stroke="#000000" d="M170.08086-119.0565H296.20689"/>
<path transform="matrix(1.00002,0,0,-1,310.9588,206.32752)" d="M1.0361 0C-.25902 .25902-1.55415 .77707-3.1083 1.68365-1.55415 .51805-1.55415-.51805-3.1083-1.68365-1.55415-.77707-.25902-.25902 1.0361 0Z"/>
<path transform="matrix(1.00002,0,0,-1,310.9588,206.32752)" stroke-width=".79701" stroke-linecap="butt" stroke-linejoin="round" fill="none" stroke="#000000" d="M1.0361 0C-.25902 .25902-1.55415 .77707-3.1083 1.68365-1.55415 .51805-1.55415-.51805-3.1083-1.68365-1.55415-.77707-.25902-.25902 1.0361 0Z"/>
<use data-text="T" xlink:href="#font_1_104" transform="matrix(9.962799,0,0,-9.9626,237.26946,216.79199)"/>
<use data-text="i" xlink:href="#font_1_66" transform="matrix(9.962799,0,0,-9.9626,244.4626,216.79199)"/>
<use data-text="m" xlink:href="#font_1_75" transform="matrix(9.962799,0,0,-9.9626,247.23226,216.79199)"/>
<use data-text="e" xlink:href="#font_1_50" transform="matrix(9.962799,0,0,-9.9626,255.53127,216.79199)"/>
<use data-text="(" xlink:href="#font_1_85" transform="matrix(9.962799,0,0,-9.9626,241.96755,228.74701)"/>
<use data-text="d" xlink:href="#font_1_47" transform="matrix(9.962799,0,0,-9.9626,245.84308,228.74701)"/>
<use data-text=")" xlink:href="#font_1_86" transform="matrix(9.962799,0,0,-9.9626,251.38239,228.74701)"/>
<path transform="matrix(1.00002,0,0,-1,14.746002,87.271)" stroke-width=".79701" stroke-linecap="butt" stroke-miterlimit="10" stroke-linejoin="miter" fill="none" stroke="#000000" d="M170.08086-119.0565V-35.45068"/>
<path transform="matrix(0,-1,-1.00002,-0,184.83026,122.72168)" d="M1.0361 0C-.25902 .25902-1.55415 .77707-3.1083 1.68365-1.55415 .51805-1.55415-.51805-3.1083-1.68365-1.55415-.77707-.25902-.25902 1.0361 0Z"/>
<path transform="matrix(0,-1,-1.00002,-0,184.83026,122.72168)" stroke-width=".79701" stroke-linecap="butt" stroke-linejoin="round" fill="none" stroke="#000000" d="M1.0361 0C-.25902 .25902-1.55415 .77707-3.1083 1.68365-1.55415 .51805-1.55415-.51805-3.1083-1.68365-1.55415-.77707-.25902-.25902 1.0361 0Z"/>
<use data-text="D" xlink:href="#font_1_46" transform="matrix(0,-9.9626,-9.962799,-0,178.32529,207.639)"/>
<use data-text="i" xlink:href="#font_1_66" transform="matrix(0,-9.9626,-9.962799,-0,178.32529,200.02759)"/>
<use data-text="s" xlink:href="#font_1_98" transform="matrix(0,-9.9626,-9.962799,-0,178.32529,197.25798)"/>
<use data-text="t" xlink:href="#font_1_105" transform="matrix(0,-9.9626,-9.962799,-0,178.32529,193.33272)"/>
<use data-text="a" xlink:href="#font_1_28" transform="matrix(0,-9.9626,-9.962799,-0,178.32529,189.45728)"/>
<use data-text="n" xlink:href="#font_1_77" transform="matrix(0,-9.9626,-9.962799,-0,178.32529,184.47597)"/>
<use data-text="c" xlink:href="#font_1_43" transform="matrix(0,-9.9626,-9.962799,-0,178.32529,178.93677)"/>
<use data-text="e" xlink:href="#font_1_50" transform="matrix(0,-9.9626,-9.962799,-0,178.32529,174.51337)"/>
<use data-text="f" xlink:href="#font_1_55" transform="matrix(0,-9.9626,-9.962799,-0,178.32529,166.77242)"/>
<use data-text="r" xlink:href="#font_1_96" transform="matrix(0,-9.9626,-9.962799,-0,178.32529,163.72386)"/>
<use data-text="o" xlink:href="#font_1_81" transform="matrix(0,-9.9626,-9.962799,-0,178.32529,159.81853)"/>
<use data-text="m" xlink:href="#font_1_75" transform="matrix(0,-9.9626,-9.962799,-0,178.32529,154.83724)"/>
<use data-text="h" xlink:href="#font_1_63" transform="matrix(0,-9.9626,-9.962799,-0,178.32529,143.22084)"/>
<use data-text="o" xlink:href="#font_1_81" transform="matrix(0,-9.9626,-9.962799,-0,178.32529,137.68164)"/>
<use data-text="m" xlink:href="#font_1_75" transform="matrix(0,-9.9626,-9.962799,-0,178.32529,132.70035)"/>
<use data-text="e" xlink:href="#font_1_50" transform="matrix(0,-9.9626,-9.962799,-0,178.32529,124.401508)"/>
<path transform="matrix(1.00002,0,0,-1,14.746002,87.271)" stroke-width="1.59404" stroke-linecap="butt" stroke-miterlimit="10" stroke-linejoin="miter" fill="none" stroke="#ff0000" d="M170.08086-119.0565 187.0891-93.54456H201.2625L218.27074-68.03262H291.9726"/>
</svg>
