<svg xmlns="http://www.w3.org/2000/svg" xmlns:xlink="http://www.w3.org/1999/xlink" version="1.1" width="165" height="174" viewBox="0 0 165 174">
<defs>
<path id="font_1_2" d="M.08799744 .059265138C.084991458 .044265748 .07899475 .021255494 .07899475 .01625061 .07899475-.0017547608 .09298706-.0107421879 .10798645-.0107421879 .11999512-.0107421879 .13798523-.002746582 .14498902 .01725769 .1459961 .019256592 .1579895 .06626892 .1639862 .091278079L.18598938 .18130493C.19198609 .2033081 .19799805 .22531128 .20298767 .24832154 .20698548 .26531983 .21499634 .29434205 .21598816 .29833985 .23098755 .3293457 .28399659 .42037965 .3789978 .42037965 .42399598 .42037965 .43299867 .38336183 .43299867 .35035707 .43299867 .28833009 .38398744 .16029358 .36799623 .11727905 .35899354 .0942688 .35798646 .08227539 .35798646 .0712738 .35798646 .024261475 .3929901-.0107421879 .43998719-.0107421879 .5339966-.0107421879 .57099917 .13528443 .57099917 .14329529 .57099917 .1532898 .56199648 .1532898 .5589905 .1532898 .548996 .1532898 .548996 .15029907 .5439911 .13528443 .5239868 .06726074 .4909973 .011245728 .44198609 .011245728 .4249878 .011245728 .41799928 .021255494 .41799928 .044265748 .41799928 .0692749 .4269867 .09327698 .43598939 .11528015 .45498658 .16830445 .49699403 .27833558 .49699403 .3353424 .49699403 .40237428 .45399476 .4423828 .38198854 .4423828 .2919922 .4423828 .24299622 .37835694 .22599793 .35534669 .22099304 .41137696 .17999268 .4423828 .13398743 .4423828 .08799744 .4423828 .068984989 .4033661 .05899048 .38536073 .042999269 .35134889 .0289917 .29232789 .0289917 .28833009 .0289917 .27833558 .038986207 .27833558 .040985109 .27833558 .050994874 .27833558 .051986696 .2793274 .057998659 .30133058 .07499695 .37236024 .09498596 .42037965 .1309967 .42037965 .15098572 .42037965 .1619873 .4073639 .1619873 .37435914 .1619873 .35334779 .15899658 .3423462 .1459961 .29032899L.08799744 .059265138Z"/>
<path id="font_1_1" d="M.375 .6136017C.3809967 .63760378 .38398744 .6476135 .40299989 .65060427 .4119873 .6516113 .44400025 .6516113 .46398927 .6516113 .5349884 .6516113 .6459961 .6516113 .6459961 .5525818 .6459961 .51856997 .6299896 .44955445 .59098818 .41055299 .5649872 .38453675 .5119934 .35253907 .42199708 .35253907H.30999757L.375 .6136017M.5189972 .33953858C.6199951 .3615265 .7389984 .43154908 .7389984 .5325775 .7389984 .61860659 .6489868 .6826172 .5179901 .6826172H.23298645C.21299744 .6826172 .20399475 .6826172 .20399475 .6626129 .20399475 .6516113 .21299744 .6516113 .23199463 .6516113 .23399353 .6516113 .25299073 .6516113 .269989 .6496124 .28799439 .6476135 .29699708 .64660647 .29699708 .63360598 .29699708 .62960818 .29599 .6266022 .29299928 .6145935L.15899658 .07752991C.14898682 .038528444 .14698792 .030532837 .067993167 .030532837 .049987794 .030532837 .040985109 .030532837 .040985109 .010528564 .040985109-.00047302247 .052993776-.00047302247 .054992677-.00047302247 .08299255-.00047302247 .15299988 .002532959 .18099976 .002532959 .20899964 .002532959 .27999879-.00047302247 .30799867-.00047302247 .31599427-.00047302247 .32798768-.00047302247 .32798768 .01953125 .32798768 .030532837 .31900025 .030532837 .2999878 .030532837 .2630005 .030532837 .23498535 .030532837 .23498535 .048538209 .23498535 .054534913 .23699951 .059524537 .23799134 .0655365L.3039856 .3305359H.4229889C.5139923 .3305359 .5319977 .27453614 .5319977 .23953247 .5319977 .22453308 .5239868 .19352722 .5179901 .17053223 .5109863 .14253235 .5019989 .105529788 .5019989 .08552551 .5019989-.022460938 .621994-.022460938 .6349945-.022460938 .7200012-.022460938 .7549896 .07853699 .7549896 .0925293 .7549896 .104537967 .74398806 .104537967 .7429962 .104537967 .73399356 .104537967 .7319946 .09753418 .7299957 .090530399 .7049866 .016525269 .6619873-.00047302247 .6389923-.00047302247 .60598757-.00047302247 .598999 .021530152 .598999 .060531618 .598999 .091537479 .6049957 .14253235 .60899356 .17453003 .61099246 .1885376 .61299136 .20753479 .61299136 .2215271 .61299136 .2985382 .54599 .3295288 .5189972 .33953858Z"/>
<path id="font_2_3" d="M.1269989 .07699585 .23298645 .18003845C.3889923 .31811524 .44898988 .3721466 .44898988 .47216798 .44898988 .5860901 .35899354 .6660156 .23699951 .6660156 .12399292 .6660156 .049987794 .57411196 .049987794 .48516847 .049987794 .4291687 .099990848 .4291687 .102996829 .4291687 .11999512 .4291687 .15499878 .44117738 .15499878 .48217774 .15499878 .5081787 .13699341 .5341797 .101989749 .5341797 .09399414 .5341797 .09199524 .5341797 .08898926 .5331726 .11199951 .59806826 .1659851 .63500979 .22399903 .63500979 .31498719 .63500979 .35798646 .5541382 .35798646 .47216798 .35798646 .39215089 .30799867 .31311036 .25299073 .25108338L.06098938 .036987306C.049987794 .025985718 .049987794 .023986817 .049987794 0H.42099L.44898988 .17404175H.42399598C.4189911 .14402771 .4119873 .1000061 .4019928 .084991458 .394989 .07699585 .32899476 .07699585 .30699159 .07699585H.1269989Z"/>
<path id="font_2_1" d="M.45999146 .31976319C.45999146 .39982606 .45498658 .47988893 .41999818 .5539398 .37399293 .65000918 .2919922 .6660156 .25 .6660156 .18998719 .6660156 .116989139 .64001467 .07598877 .54693606 .04399109 .47789 .038986207 .39982606 .038986207 .31976319 .038986207 .24472046 .042999269 .15464783 .083999637 .07859802 .1269989-.0024719239 .19999695-.022460938 .24899292-.022460938 .30299378-.022460938 .3789978-.0014648438 .4229889 .09359741 .45498658 .16265869 .45999146 .2407074 .45999146 .31976319M.24899292-.00047302247C.20999146-.00047302247 .15098572 .024551392 .1329956 .12062073 .12199402 .18066406 .12199402 .2727356 .12199402 .3317871 .12199402 .39582826 .12199402 .46188355 .12998963 .5159149 .14898682 .63500979 .22399903 .64401248 .24899292 .64401248 .28199769 .64401248 .34799195 .6259918 .36698915 .52693179 .3769989 .47088624 .3769989 .39482118 .3769989 .3317871 .3769989 .25672914 .3769989 .18867493 .3659973 .12461853 .35099793 .029556275 .2939911-.00047302247 .24899292-.00047302247Z"/>
<path id="font_2_4" d="M.2939911 .16503906V.07800293C.2939911 .041992189 .2919922 .0309906 .21798706 .0309906H.19699097V0C.23799134 .0029907227 .2899933 .0029907227 .33198548 .0029907227 .37399293 .0029907227 .4269867 .0029907227 .46798707 0V.0309906H.44699098C.37298585 .0309906 .37098695 .041992189 .37098695 .07800293V.16503906H.47099305V.19602967H.37098695V.65075686C.37098695 .67074587 .37098695 .6767578 .35499574 .6767578 .34599305 .6767578 .34298707 .6767578 .33499146 .66474917L.027999878 .19602967V.16503906H.2939911M.2999878 .19602967H.055999757L.2999878 .5688019V.19602967Z"/>
<path id="font_2_5" d="M.44898988 .20022583C.44898988 .3193512 .36698915 .41944886 .25898744 .41944886 .21099854 .41944886 .16799927 .40345765 .13198853 .36842347V.5637665C.1519928 .5577698 .18499756 .55078127 .21699524 .55078127 .33999635 .55078127 .4099884 .6417694 .4099884 .6547699 .4099884 .6607666 .40699769 .6657715 .3999939 .6657715 .39898683 .6657715 .39698792 .6657715 .3919983 .66278079 .37199403 .6537781 .32299806 .6337738 .2559967 .6337738 .21598816 .6337738 .16999817 .6407776 .12298584 .6617737 .114990238 .66477969 .11299133 .66477969 .11099243 .66477969 .100997928 .66477969 .100997928 .6567688 .100997928 .6407776V.34439088C.100997928 .32637025 .100997928 .31835938 .114990238 .31835938 .12199402 .31835938 .12399292 .32136537 .12799073 .32736207 .13899231 .3433838 .17599488 .39746095 .25698854 .39746095 .30899049 .39746095 .33399964 .35139466 .34199525 .33337403 .35798646 .29632569 .3600006 .25727845 .3600006 .20722962 .3600006 .17222595 .3600006 .11222839 .33599855 .07035828 .31199647 .031463624 .2749939 .0055389406 .22898865 .0055389406 .1559906 .0055389406 .09899902 .058380128 .08198547 .11723328 .084991458 .1162262 .08799744 .115234378 .09899902 .115234378 .13198853 .115234378 .14898682 .14022827 .14898682 .16423035 .14898682 .18823242 .13198853 .21322632 .09899902 .21322632 .084991458 .21322632 .049987794 .20622254 .049987794 .16023255 .049987794 .07434082 .11898804-.022460938 .23098755-.022460938 .34700013-.022460938 .44898988 .073349 .44898988 .20022583Z"/>
<path id="font_2_2" d="M.2939911 .64004519C.2939911 .66400149 .2939911 .6660156 .2709961 .6660156 .20899964 .60227969 .12098694 .60227969 .08898926 .60227969V.57128909C.10899353 .57128909 .16799927 .57128909 .21998596 .5972748V.07902527C.21998596 .042999269 .21699524 .0309906 .1269989 .0309906H.09498596V0C.12998963 .0029907227 .21699524 .0029907227 .25698854 .0029907227 .29699708 .0029907227 .38398744 .0029907227 .4189911 0V.0309906H.3869934C.29699708 .0309906 .2939911 .041992189 .2939911 .07902527V.64004519Z"/>
</defs>
<path transform="matrix(1.00002,0,0,-1.00008,26.332192,160.24185)" stroke-width=".3985" stroke-linecap="butt" stroke-miterlimit="10" stroke-linejoin="miter" fill="none" stroke="#00aeef" d="M0 0H113.38724M0 14.17339H113.38724M0 28.3468H113.38724M0 42.5202H113.38724M0 56.69362H113.38724M0 70.867H113.38724M0 85.04042H113.38724M0 99.21382H113.38724M0 113.38724H113.38724M0 127.56062H113.38724M0 141.72905H113.38724M0 0V141.73404M14.17339 0V141.73404M28.3468 0V141.73404M42.5202 0V141.73404M56.69362 0V141.73404M70.867 0V141.73404M85.04042 0V141.73404M99.21382 0V141.73404M113.38225 0V141.73404M113.38724 141.73404"/>
<path transform="matrix(1.00002,0,0,-1.00008,26.332192,160.24185)" stroke-width=".79701" stroke-linecap="butt" stroke-miterlimit="10" stroke-linejoin="miter" fill="none" stroke="#000000" d="M0 0H126.12602"/>
<path transform="matrix(1.00002,0,0,-1.00008,152.46074,160.24185)" d="M1.0361 0C-.25902 .25902-1.55415 .77707-3.1083 1.68365-1.55415 .51805-1.55415-.51805-3.1083-1.68365-1.55415-.77707-.25902-.25902 1.0361 0Z"/>
<path transform="matrix(1.00002,0,0,-1.00008,152.46074,160.24185)" stroke-width=".79701" stroke-linecap="butt" stroke-linejoin="round" fill="none" stroke="#000000" d="M1.0361 0C-.25902 .25902-1.55415 .77707-3.1083 1.68365-1.55415 .51805-1.55415-.51805-3.1083-1.68365-1.55415-.77707-.25902-.25902 1.0361 0Z"/>
<use data-text="n" xlink:href="#font_1_2" transform="matrix(9.962799,0,0,-9.963397,157.6148,162.38703)"/>
<path transform="matrix(1.00002,0,0,-1.00008,26.332192,160.24185)" stroke-width=".79701" stroke-linecap="butt" stroke-miterlimit="10" stroke-linejoin="miter" fill="none" stroke="#000000" d="M0 0V154.47283"/>
<path transform="matrix(0,-1.00008,-1.00002,-0,26.332192,5.756668)" d="M1.0361 0C-.25902 .25902-1.55415 .77707-3.1083 1.68365-1.55415 .51805-1.55415-.51805-3.1083-1.68365-1.55415-.77707-.25902-.25902 1.0361 0Z"/>
<path transform="matrix(0,-1.00008,-1.00002,-0,26.332192,5.756668)" stroke-width=".79701" stroke-linecap="butt" stroke-linejoin="round" fill="none" stroke="#000000" d="M1.0361 0C-.25902 .25902-1.55415 .77707-3.1083 1.68365-1.55415 .51805-1.55415-.51805-3.1083-1.68365-1.55415-.77707-.25902-.25902 1.0361 0Z"/>
<use data-text="R" xlink:href="#font_1_1" transform="matrix(9.962799,0,0,-9.963397,14.970963,7.725662)"/>
<path transform="matrix(1.00002,0,0,-1.00008,26.332192,160.24185)" stroke-width="1.19553" stroke-linecap="butt" stroke-miterlimit="10" stroke-linejoin="miter" fill="none" stroke="#00aeef" d="M56.69362 0V141.73404"/>
<path transform="matrix(1.00002,0,0,-1.00008,26.332192,160.24185)" stroke-width=".79701" stroke-linecap="butt" stroke-miterlimit="10" stroke-linejoin="miter" fill="none" stroke="#000000" d="M56.69362 2.12592V-2.12613"/>
<path transform="matrix(1.00002,0,0,-1.00008,26.332192,160.24185)" d="M50.71594-12.93018H62.67128V-4.5171997H50.71594Z" fill="#ffffff"/>
<use data-text="2" xlink:href="#font_2_3" transform="matrix(9.962799,0,0,-9.963397,78.04523,172.1768)"/>
<use data-text="0" xlink:href="#font_2_1" transform="matrix(9.962799,0,0,-9.963397,83.02663,172.1768)"/>
<path transform="matrix(1.00002,0,0,-1.00008,26.332192,160.24185)" stroke-width="1.19553" stroke-linecap="butt" stroke-miterlimit="10" stroke-linejoin="miter" fill="none" stroke="#00aeef" d="M113.38724 0V141.73404"/>
<path transform="matrix(1.00002,0,0,-1.00008,26.332192,160.24185)" stroke-width=".79701" stroke-linecap="butt" stroke-miterlimit="10" stroke-linejoin="miter" fill="none" stroke="#000000" d="M113.38724 2.12592V-2.12613"/>
<path transform="matrix(1.00002,0,0,-1.00008,26.332192,160.24185)" d="M107.40956-12.93018H119.3649V-4.5171997H107.40956Z" fill="#ffffff"/>
<use data-text="4" xlink:href="#font_2_4" transform="matrix(9.962799,0,0,-9.963397,134.74036,172.1768)"/>
<use data-text="0" xlink:href="#font_2_1" transform="matrix(9.962799,0,0,-9.963397,139.72177,172.1768)"/>
<path transform="matrix(1.00002,0,0,-1.00008,26.332192,160.24185)" stroke-width="1.19553" stroke-linecap="butt" stroke-miterlimit="10" stroke-linejoin="miter" fill="none" stroke="#00aeef" d="M0 70.867H113.38724"/>
<path transform="matrix(1.00002,0,0,-1.00008,26.332192,160.24185)" stroke-width=".79701" stroke-linecap="butt" stroke-miterlimit="10" stroke-linejoin="miter" fill="none" stroke="#000000" d="M2.12592 70.867H-2.12613"/>
<path transform="matrix(1.00002,0,0,-1.00008,26.332192,160.24185)" d="M-21.45392 66.66052H-4.5172007V75.0735H-21.45392Z" fill="#ffffff"/>
<use data-text="5" xlink:href="#font_2_5" transform="matrix(9.962799,0,0,-9.963397,5.8737795,92.579448)"/>
<use data-text="0" xlink:href="#font_2_1" transform="matrix(9.962799,0,0,-9.963397,10.855179,92.579448)"/>
<use data-text="0" xlink:href="#font_2_1" transform="matrix(9.962799,0,0,-9.963397,15.836578,92.579448)"/>
<path transform="matrix(1.00002,0,0,-1.00008,26.332192,160.24185)" stroke-width="1.19553" stroke-linecap="butt" stroke-miterlimit="10" stroke-linejoin="miter" fill="none" stroke="#00aeef" d="M0 141.73404H113.38724"/>
<path transform="matrix(1.00002,0,0,-1.00008,26.332192,160.24185)" stroke-width=".79701" stroke-linecap="butt" stroke-miterlimit="10" stroke-linejoin="miter" fill="none" stroke="#000000" d="M2.12592 141.73404H-2.12613"/>
<path transform="matrix(1.00002,0,0,-1.00008,26.332192,160.24185)" d="M-26.43533 137.52754H-4.517189V145.94052H-26.43533Z" fill="#ffffff"/>
<use data-text="1" xlink:href="#font_2_2" transform="matrix(9.962799,0,0,-9.963397,.89268496,21.706772)"/>
<use data-text="0" xlink:href="#font_2_1" transform="matrix(9.962799,0,0,-9.963397,5.8740847,21.706772)"/>
<use data-text="0" xlink:href="#font_2_1" transform="matrix(9.962799,0,0,-9.963397,10.855484,21.706772)"/>
<use data-text="0" xlink:href="#font_2_1" transform="matrix(9.962799,0,0,-9.963397,15.836884,21.706772)"/>
<path transform="matrix(1.00002,0,0,-1.00008,26.332192,160.24185)" stroke-width="1.59404" stroke-linecap="butt" stroke-miterlimit="10" stroke-linejoin="miter" fill="none" stroke="#c64a86" d="M0 0C0 0 1.28003 5.07104 1.77167 6.97618 2.26329 8.8813 3.0517 11.88722 3.54333 13.73091 4.03496 15.57458 4.82338 18.48192 5.31502 20.26418 5.80664 22.04643 6.59505 24.85533 7.08669 26.5762 7.57831 28.29706 8.36673 31.00754 8.85837 32.66699 9.35 34.32643 10.1384 36.93832 10.63004 38.5363 11.12167 40.1343 11.9101 42.64761 12.40172 44.18417 12.89336 45.72073 13.68176 48.13564 14.17339 49.6108 14.66502 51.08597 15.45343 53.4024 15.94505 54.81616 16.43669 56.22993 17.22511 58.44797 17.71674 59.80031 18.20837 61.15265 18.99678 63.27208 19.48842 64.56297 19.98004 65.85387 20.76846 67.87473 21.2601 69.1042 21.75172 70.33366 22.54013 72.2561 23.03177 73.42418 23.52339 74.59225 24.31181 76.41624 24.80345 77.5229 25.29507 78.62955 26.08348 80.35498 26.57512 81.40018 27.06676 82.44537 27.85516 84.07217 28.3468 85.05598 28.83844 86.03978 29.62685 87.56836 30.11847 88.49077 30.6101 89.41318 31.39851 90.84314 31.89014 91.70409 32.38177 92.56505 33.1702 93.89642 33.66182 94.69595 34.15346 95.4955 34.94186 96.72845 35.43349 97.46658 35.92513 98.20473 36.71355 99.33925 37.20518 100.01596 37.69681 100.69267 38.48521 101.72862 38.97685 102.34387 39.46848 102.95914 40.2569 103.89651 40.74854 104.45033 41.24016 105.00418 42.02856 105.84311 42.5202 106.33556 43.01183 106.82799 43.80023 107.5685 44.29187 107.99953 44.7835 108.43059 45.57191 109.07263 46.06355 109.44226 46.55519 109.81187 47.34358 110.35536 47.83522 110.66354 48.32686 110.9717 49.11528 111.4166 49.6069 111.66335 50.09854 111.91008 50.88695 112.25658 51.37857 112.44191 51.87021 112.62727 52.65863 112.8753 53.15025 112.99924 53.64189 113.12315 54.4303 113.27263 54.92192 113.3351 55.41356 113.39757 56.20198 113.44844 56.69362 113.44951 57.18524 113.45059 57.97365 113.40321 58.46529 113.34288 58.95691 113.28258 59.74532 113.13658 60.23695 113.01482 60.72858 112.89305 61.517 112.64847 62.00864 112.46526 62.50026 112.28207 63.28867 111.93907 63.7803 111.69449 64.27194 111.4499 65.06035 111.00847 65.55199 110.70245 66.04362 110.39645 66.83203 109.85643 67.32365 109.48897 67.81529 109.1215 68.60371 108.48293 69.09534 108.05403 69.58698 107.62515 70.37538 106.88812 70.867 106.39784 71.35864 105.90756 72.14705 105.07208 72.63867 104.5204 73.13031 103.96873 73.91873 103.03484 74.41037 102.42174 74.902 101.80864 75.6904 100.77615 76.18204 100.1016 76.67366 99.42706 77.46208 98.29599 77.95372 97.56001 78.44534 96.82404 79.23375 95.59454 79.72539 94.79718 80.21701 93.99982 81.00543 92.67189 81.49707 91.8131 81.9887 90.9543 82.7771 89.5278 83.26874 88.60754 83.76038 87.6873 84.54878 86.1622 85.04042 85.18056 85.53206 84.19891 86.32047 82.57558 86.81209 81.53253 87.30373 80.4895 88.09213 78.76753 88.58376 77.66306 89.0754 76.55855 89.86382 74.738 90.35544 73.5721 90.84708 72.40617 91.63548 70.48721 92.1271 69.25992 92.61874 68.03261 93.40717 66.01523 93.8988 64.72649 94.39043 63.43776 95.17883 61.32178 95.67047 59.9716 96.1621 58.6214 96.95052 56.40686 97.44215 54.99525 97.93378 53.58363 98.72218 51.27066 99.21382 49.79764 99.70544 48.32465 100.49385 45.91322 100.98549 44.37881 101.47713 42.8444 102.26553 40.33455 102.75717 38.73874 103.24881 37.14291 104.03722 34.53448 104.52884 32.8772 105.02048 31.21991 105.8089 28.5129 106.30052 26.79419 106.79216 25.07549 107.58057 22.27005 108.07219 20.48996 108.56383 18.70985 109.35225 15.80598 109.84387 13.96446 110.33551 12.12294 111.12392 9.12051 111.61555 7.21753 112.10718 5.31456 113.38724 .24911 113.38724 .24911"/>
</svg>
