<?xml version="1.0" encoding="UTF-8" standalone="no"?>
<!-- Created with Inkscape (http://www.inkscape.org/) -->

<svg
   xmlns:dc="http://purl.org/dc/elements/1.1/"
   xmlns:cc="http://creativecommons.org/ns#"
   xmlns:rdf="http://www.w3.org/1999/02/22-rdf-syntax-ns#"
   xmlns:svg="http://www.w3.org/2000/svg"
   xmlns="http://www.w3.org/2000/svg"
   xmlns:sodipodi="http://sodipodi.sourceforge.net/DTD/sodipodi-0.dtd"
   xmlns:inkscape="http://www.inkscape.org/namespaces/inkscape"
   width="35.866917mm"
   height="23.833948mm"
   viewBox="0 0 127.0875 84.450997"
   id="svg6422"
   version="1.1"
   inkscape:version="0.91 r13725"
   sodipodi:docname="act-5-4-2-3.svg">
  <defs
     id="defs6424">
    <clipPath
       clipPathUnits="userSpaceOnUse"
       id="clipPath6172">
      <path
         d="m 235.033,235.79 108,0 0,-71.757 -108,0 0,71.757 z"
         id="path6174"
         inkscape:connector-curvature="0"
         style="clip-rule:evenodd" />
    </clipPath>
    <clipPath
       clipPathUnits="userSpaceOnUse"
       id="clipPath6178">
      <path
         d="m 0,787.5 612,0 0,-783 -612,0 0,783 z"
         id="path6180"
         inkscape:connector-curvature="0" />
    </clipPath>
    <clipPath
       clipPathUnits="userSpaceOnUse"
       id="clipPath6184">
      <path
         d="m 0,792.06 612,0 0,-792 -612,0 0,792 z"
         id="path6186"
         inkscape:connector-curvature="0" />
    </clipPath>
  </defs>
  <sodipodi:namedview
     id="base"
     pagecolor="#ffffff"
     bordercolor="#666666"
     borderopacity="1.0"
     inkscape:pageopacity="0.0"
     inkscape:pageshadow="2"
     inkscape:zoom="1.4"
     inkscape:cx="155.43372"
     inkscape:cy="74.197101"
     inkscape:document-units="px"
     inkscape:current-layer="layer1"
     showgrid="false"
     fit-margin-top="0"
     fit-margin-left="0"
     fit-margin-right="0"
     fit-margin-bottom="0"
     inkscape:window-width="1366"
     inkscape:window-height="715"
     inkscape:window-x="0"
     inkscape:window-y="0"
     inkscape:window-maximized="1" />
  <metadata
     id="metadata6427">
    <rdf:RDF>
      <cc:Work
         rdf:about="">
        <dc:format>image/svg+xml</dc:format>
        <dc:type
           rdf:resource="http://purl.org/dc/dcmitype/StillImage" />
        <dc:title></dc:title>
      </cc:Work>
    </rdf:RDF>
  </metadata>
  <g
     inkscape:label="Layer 1"
     inkscape:groupmode="layer"
     id="layer1"
     transform="translate(-150.74196,-224.42242)">
    <g
       transform="matrix(1.25,0,0,-1.25,-143.04929,518.89592)"
       id="g6168">
      <g
         id="g6170"
         clip-path="url(#clipPath6172)">
        <g
           id="g6176"
           clip-path="url(#clipPath6178)">
          <g
             id="g6182"
             clip-path="url(#clipPath6184)">
            <path
               d="m 307.858,196.765 27.845,0 0,-27.747 -27.845,0 0,27.747 z m 0,27.748 27.845,0 0,-27.747 -27.845,0 0,27.747 z m -55.678,-27.737 55.691,0 0,-27.748 -55.691,0 0,27.748 z m 0,27.747 55.691,0 0,-27.747 -55.691,0 0,27.747 z"
               style="fill:none;stroke:#df0071;stroke-width:2;stroke-linecap:butt;stroke-linejoin:miter;stroke-miterlimit:4;stroke-dasharray:none;stroke-opacity:1"
               id="path6188"
               inkscape:connector-curvature="0" />
            <g
               transform="matrix(1,0,0,-1,274.4514,228.7488)"
               style="font-variant:normal;font-weight:normal;font-size:10px;font-family:Times;-inkscape-font-specification:Times-Roman;writing-mode:lr-tb;fill:#000000;fill-opacity:1;fill-rule:nonzero;stroke:none"
               id="text6190">
              <path
                 d="m 1.53,-3.3 c 0.59,0 0.82,0.02 1.06,0.11 0.62,0.22 1.01,0.79 1.01,1.48 0,0.84 -0.57,1.49 -1.31,1.49 -0.27,0 -0.47,-0.07 -0.84,-0.31 -0.3,-0.18 -0.47,-0.25 -0.64,-0.25 -0.23,0 -0.38,0.14 -0.38,0.35 0,0.35 0.43,0.57 1.13,0.57 0.77,0 1.56,-0.26 2.03,-0.67 0.47,-0.41 0.73,-0.99 0.73,-1.66 0,-0.51 -0.16,-0.98 -0.45,-1.29 -0.2,-0.22 -0.39,-0.34 -0.83,-0.53 0.69,-0.47 0.94,-0.84 0.94,-1.38 0,-0.81 -0.64,-1.37 -1.56,-1.37 -0.5,0 -0.94,0.17 -1.3,0.49 C 0.82,-6 0.67,-5.74 0.45,-5.14 L 0.6,-5.1 c 0.41,-0.73 0.86,-1.06 1.49,-1.06 0.65,0 1.1,0.44 1.1,1.07 0,0.36 -0.15,0.72 -0.4,0.97 -0.3,0.3 -0.58,0.45 -1.26,0.69 l 0,0.13 z"
                 style=""
                 id="path6493" />
            </g>
            <g
               transform="matrix(1,0,0,-1,279.4514,228.7488)"
               style="font-style:italic;font-variant:normal;font-size:10px;font-family:Times;-inkscape-font-specification:Times-Italic;writing-mode:lr-tb;fill:#000000;fill-opacity:1;fill-rule:nonzero;stroke:none"
               id="text6194">
              <path
                 d="m 4.64,-1.1 c -0.15,0.15 -0.21,0.2 -0.28,0.28 -0.3,0.31 -0.43,0.41 -0.52,0.41 -0.08,0 -0.14,-0.06 -0.14,-0.13 0,-0.2 0.42,-1.91 0.89,-3.63 0.03,-0.1 0.04,-0.12 0.06,-0.21 L 4.58,-4.41 3.97,-4.34 3.94,-4.31 3.83,-3.83 C 3.75,-4.2 3.46,-4.41 3.03,-4.41 c -1.32,0 -2.86,1.83 -2.86,3.41 0,0.7 0.38,1.11 1.02,1.11 0.7,0 1.13,-0.33 2.01,-1.57 -0.2,0.78 -0.23,0.91 -0.23,1.15 0,0.29 0.12,0.41 0.4,0.41 0.4,0 0.65,-0.19 1.39,-1.1 L 4.64,-1.1 Z M 3.09,-4.19 c 0.34,0.02 0.56,0.26 0.56,0.61 0,0.84 -0.5,2.02 -1.19,2.76 -0.24,0.27 -0.58,0.44 -0.87,0.44 -0.35,0 -0.58,-0.29 -0.58,-0.75 0,-0.54 0.38,-1.57 0.81,-2.19 0.4,-0.58 0.87,-0.9 1.27,-0.87 z"
                 style=""
                 id="path6496" />
            </g>
            <g
               transform="matrix(1,0,0,-1,238.2704,207.0698)"
               style="font-variant:normal;font-weight:normal;font-size:10px;font-family:Times;-inkscape-font-specification:Times-Roman;writing-mode:lr-tb;fill:#000000;fill-opacity:1;fill-rule:nonzero;stroke:none"
               id="text6198">
              <path
                 d="m 1.53,-3.3 c 0.59,0 0.82,0.02 1.06,0.11 0.62,0.22 1.01,0.79 1.01,1.48 0,0.84 -0.57,1.49 -1.31,1.49 -0.27,0 -0.47,-0.07 -0.84,-0.31 -0.3,-0.18 -0.47,-0.25 -0.64,-0.25 -0.23,0 -0.38,0.14 -0.38,0.35 0,0.35 0.43,0.57 1.13,0.57 0.77,0 1.56,-0.26 2.03,-0.67 0.47,-0.41 0.73,-0.99 0.73,-1.66 0,-0.51 -0.16,-0.98 -0.45,-1.29 -0.2,-0.22 -0.39,-0.34 -0.83,-0.53 0.69,-0.47 0.94,-0.84 0.94,-1.38 0,-0.81 -0.64,-1.37 -1.56,-1.37 -0.5,0 -0.94,0.17 -1.3,0.49 C 0.82,-6 0.67,-5.74 0.45,-5.14 L 0.6,-5.1 c 0.41,-0.73 0.86,-1.06 1.49,-1.06 0.65,0 1.1,0.44 1.1,1.07 0,0.36 -0.15,0.72 -0.4,0.97 -0.3,0.3 -0.58,0.45 -1.26,0.69 l 0,0.13 z"
                 style=""
                 id="path6499" />
            </g>
            <g
               transform="matrix(1,0,0,-1,243.2704,207.0698)"
               style="font-style:italic;font-variant:normal;font-size:10px;font-family:Times;-inkscape-font-specification:Times-Italic;writing-mode:lr-tb;fill:#000000;fill-opacity:1;fill-rule:nonzero;stroke:none"
               id="text6202">
              <path
                 d="m 4.64,-1.1 c -0.15,0.15 -0.21,0.2 -0.28,0.28 -0.3,0.31 -0.43,0.41 -0.52,0.41 -0.08,0 -0.14,-0.06 -0.14,-0.13 0,-0.2 0.42,-1.91 0.89,-3.63 0.03,-0.1 0.04,-0.12 0.06,-0.21 L 4.58,-4.41 3.97,-4.34 3.94,-4.31 3.83,-3.83 C 3.75,-4.2 3.46,-4.41 3.03,-4.41 c -1.32,0 -2.86,1.83 -2.86,3.41 0,0.7 0.38,1.11 1.02,1.11 0.7,0 1.13,-0.33 2.01,-1.57 -0.2,0.78 -0.23,0.91 -0.23,1.15 0,0.29 0.12,0.41 0.4,0.41 0.4,0 0.65,-0.19 1.39,-1.1 L 4.64,-1.1 Z M 3.09,-4.19 c 0.34,0.02 0.56,0.26 0.56,0.61 0,0.84 -0.5,2.02 -1.19,2.76 -0.24,0.27 -0.58,0.44 -0.87,0.44 -0.35,0 -0.58,-0.29 -0.58,-0.75 0,-0.54 0.38,-1.57 0.81,-2.19 0.4,-0.58 0.87,-0.9 1.27,-0.87 z"
                 style=""
                 id="path6502" />
            </g>
            <g
               transform="matrix(1,0,0,-1,315.8954,228.7488)"
               style="font-variant:normal;font-weight:normal;font-size:10px;font-family:Symbol;-inkscape-font-specification:Symbol;writing-mode:lr-tb;fill:#000000;fill-opacity:1;fill-rule:nonzero;stroke:none"
               id="text6206">
              <path
                 d="m 0.11,-2.94 0,0.55 5.24,0 0,-0.55 -5.24,0 z"
                 style=""
                 id="path6505" />
            </g>
            <g
               transform="matrix(1,0,0,-1,321.3854,228.7488)"
               style="font-style:italic;font-variant:normal;font-size:10px;font-family:Times;-inkscape-font-specification:Times-Italic;writing-mode:lr-tb;fill:#000000;fill-opacity:1;fill-rule:nonzero;stroke:none"
               id="text6210">
              <path
                 d="m 1.1,-6.43 c 0.59,0.02 0.65,0.05 0.65,0.27 0,0.09 -0.03,0.21 -0.09,0.43 -0.02,0.07 -0.04,0.14 -0.05,0.19 l -0.02,0.07 -1.36,5.01 0,0.04 c 0,0.23 0.77,0.53 1.33,0.53 1.51,0 3.17,-1.75 3.17,-3.32 0,-0.7 -0.49,-1.2 -1.16,-1.2 -0.7,0 -1.22,0.41 -1.93,1.51 L 2.68,-6.78 2.63,-6.83 C 2.13,-6.74 1.77,-6.68 1.1,-6.6 l 0,0.17 z m 2.08,2.51 c 0.43,0 0.7,0.33 0.7,0.86 0,0.66 -0.51,1.73 -1.1,2.35 -0.37,0.38 -0.8,0.59 -1.23,0.59 -0.31,0 -0.46,-0.11 -0.46,-0.34 0,-0.6 0.3,-1.57 0.72,-2.31 0.44,-0.77 0.89,-1.15 1.37,-1.15 z"
                 style=""
                 id="path6508" />
            </g>
            <g
               transform="matrix(1,0,0,-1,232.7814,175.5248)"
               style="font-variant:normal;font-weight:normal;font-size:10px;font-family:Symbol;-inkscape-font-specification:Symbol;writing-mode:lr-tb;fill:#000000;fill-opacity:1;fill-rule:nonzero;stroke:none"
               id="text6214">
              <path
                 d="m 0.11,-2.94 0,0.55 5.24,0 0,-0.55 -5.24,0 z"
                 style=""
                 id="path6511" />
            </g>
            <g
               transform="matrix(1,0,0,-1,238.2714,175.5248)"
               style="font-variant:normal;font-weight:normal;font-size:10px;font-family:Times;-inkscape-font-specification:Times-Roman;writing-mode:lr-tb;fill:#000000;fill-opacity:1;fill-rule:nonzero;stroke:none"
               id="text6218">
              <path
                 d="m 1.81,-5.83 1.96,0 c 0.16,0 0.2,-0.02 0.23,-0.09 L 4.38,-6.81 4.29,-6.88 c -0.15,0.21 -0.25,0.26 -0.46,0.26 l -2.09,0 -1.09,2.37 c -0.01,0.02 -0.01,0.03 -0.01,0.05 0,0.05 0.04,0.08 0.12,0.08 0.32,0 0.72,0.07 1.13,0.2 1.15,0.37 1.68,0.99 1.68,1.98 0,0.96 -0.61,1.71 -1.39,1.71 -0.2,0 -0.37,-0.07 -0.67,-0.29 -0.32,-0.23 -0.55,-0.33 -0.76,-0.33 -0.29,0 -0.43,0.12 -0.43,0.37 0,0.38 0.47,0.62 1.22,0.62 0.84,0 1.56,-0.27 2.06,-0.78 C 4.06,-1.09 4.27,-1.66 4.27,-2.42 4.27,-3.14 4.08,-3.6 3.58,-4.1 3.14,-4.54 2.57,-4.77 1.39,-4.98 l 0.42,-0.85 z"
                 style=""
                 id="path6514" />
            </g>
            <g
               transform="matrix(1,0,0,-1,243.2714,175.5248)"
               style="font-style:italic;font-variant:normal;font-size:10px;font-family:Times;-inkscape-font-specification:Times-Italic;writing-mode:lr-tb;fill:#000000;fill-opacity:1;fill-rule:nonzero;stroke:none"
               id="text6222">
              <path
                 d="m 1.1,-6.43 c 0.59,0.02 0.65,0.05 0.65,0.27 0,0.09 -0.03,0.21 -0.09,0.43 -0.02,0.07 -0.04,0.14 -0.05,0.19 l -0.02,0.07 -1.36,5.01 0,0.04 c 0,0.23 0.77,0.53 1.33,0.53 1.51,0 3.17,-1.75 3.17,-3.32 0,-0.7 -0.49,-1.2 -1.16,-1.2 -0.7,0 -1.22,0.41 -1.93,1.51 L 2.68,-6.78 2.63,-6.83 C 2.13,-6.74 1.77,-6.68 1.1,-6.6 l 0,0.17 z m 2.08,2.51 c 0.43,0 0.7,0.33 0.7,0.86 0,0.66 -0.51,1.73 -1.1,2.35 -0.37,0.38 -0.8,0.59 -1.23,0.59 -0.31,0 -0.46,-0.11 -0.46,-0.34 0,-0.6 0.3,-1.57 0.72,-2.31 0.44,-0.77 0.89,-1.15 1.37,-1.15 z"
                 style=""
                 id="path6517" />
            </g>
          </g>
        </g>
      </g>
    </g>
  </g>
</svg>
