<?xml version="1.0" encoding="UTF-8" standalone="no"?>
<!-- Created with Inkscape (http://www.inkscape.org/) -->

<svg
   xmlns:dc="http://purl.org/dc/elements/1.1/"
   xmlns:cc="http://creativecommons.org/ns#"
   xmlns:rdf="http://www.w3.org/1999/02/22-rdf-syntax-ns#"
   xmlns:svg="http://www.w3.org/2000/svg"
   xmlns="http://www.w3.org/2000/svg"
   xmlns:sodipodi="http://sodipodi.sourceforge.net/DTD/sodipodi-0.dtd"
   xmlns:inkscape="http://www.inkscape.org/namespaces/inkscape"
   width="35.855804mm"
   height="40.297421mm"
   viewBox="0 0 127.04813 142.78613"
   id="svg4346"
   version="1.1"
   inkscape:version="0.91 r13725"
   sodipodi:docname="fig-hw-hyperbola-up-down.svg">
  <defs
     id="defs4348">
    <clipPath
       clipPathUnits="userSpaceOnUse"
       id="clipPath88">
      <path
         d="m 348.37,264 107.9,0 0,-120.67 -107.9,0 0,120.67 z"
         id="path90"
         inkscape:connector-curvature="0"
         style="clip-rule:evenodd" />
    </clipPath>
    <clipPath
       clipPathUnits="userSpaceOnUse"
       id="clipPath94">
      <path
         d="m 17,757 578,0 0,-722 -578,0 0,722 z"
         id="path96"
         inkscape:connector-curvature="0" />
    </clipPath>
    <clipPath
       clipPathUnits="userSpaceOnUse"
       id="clipPath100">
      <path
         d="m 0,792.06 612,0 0,-792 -612,0 0,792 z"
         id="path102"
         inkscape:connector-curvature="0" />
    </clipPath>
  </defs>
  <sodipodi:namedview
     id="base"
     pagecolor="#ffffff"
     bordercolor="#666666"
     borderopacity="1.0"
     inkscape:pageopacity="0.0"
     inkscape:pageshadow="2"
     inkscape:zoom="3.0132812"
     inkscape:cx="63.52406"
     inkscape:cy="71.393068"
     inkscape:document-units="px"
     inkscape:current-layer="layer1"
     showgrid="false"
     fit-margin-top="0"
     fit-margin-left="0"
     fit-margin-right="0"
     fit-margin-bottom="0"
     inkscape:window-width="1366"
     inkscape:window-height="715"
     inkscape:window-x="0"
     inkscape:window-y="0"
     inkscape:window-maximized="1" />
  <metadata
     id="metadata4351">
    <rdf:RDF>
      <cc:Work
         rdf:about="">
        <dc:format>image/svg+xml</dc:format>
        <dc:type
           rdf:resource="http://purl.org/dc/dcmitype/StillImage" />
        <dc:title></dc:title>
      </cc:Work>
    </rdf:RDF>
  </metadata>
  <g
     inkscape:label="Layer 1"
     inkscape:groupmode="layer"
     id="layer1"
     transform="translate(-311.47594,-460.96914)">
    <g
       transform="matrix(1.25,0,0,-1.25,-125.16906,787.81326)"
       id="g84">
      <g
         id="g86"
         clip-path="url(#clipPath88)">
        <g
           id="g92"
           clip-path="url(#clipPath94)">
          <g
             id="g98"
             clip-path="url(#clipPath100)">
            <path
               d="m 362.84,147.533 0,96.807 m 8.04,-96.807 0,96.807 m 8.038,-96.807 0,96.807 m 8.04,-96.807 0,96.807 m 8.038,-96.807 0,96.807 m 8.04,-96.807 0,96.807 m 8.039,-96.807 0,96.807 m 8.039,-96.807 0,96.807 m 8.039,-96.807 0,96.807 m -72.352,-16.138 80.392,0 m -80.392,8.071 80.392,0 m -80.392,-16.138 80.392,0 m -80.392,-8.066 80.392,0 m -80.392,-8.067 80.392,0 m -80.392,-8.066 80.392,0 m -80.392,-8.067 80.392,0 m -80.392,-8.066 80.392,0 m -80.392,-8.067 80.392,0 m -80.392,-8.066 80.392,0 m -80.392,-8.07 80.392,0 m -80.392,-8.067 80.392,0 0,96.807 -80.392,0 0,-96.807 z"
               style="fill:none;stroke:#3a6abc;stroke-width:0.5;stroke-linecap:butt;stroke-linejoin:miter;stroke-miterlimit:4;stroke-dasharray:none;stroke-opacity:1"
               id="path104"
               inkscape:connector-curvature="0" />
            <path
               d="m 354.801,244.34 80.396,-96.807 m -0.031,96.744 -80.396,-96.807"
               style="fill:none;stroke:#000000;stroke-width:0.69999999;stroke-linecap:butt;stroke-linejoin:miter;stroke-miterlimit:4;stroke-dasharray:4, 2;stroke-dashoffset:0;stroke-opacity:1"
               id="path106"
               inkscape:connector-curvature="0" />
            <text
               transform="matrix(1,0,0,-1,393.1817,257.5063)"
               style="font-style:italic;font-variant:normal;font-size:9px;font-family:Times;-inkscape-font-specification:Times-Italic;writing-mode:lr-tb;fill:#231f20;fill-opacity:1;fill-rule:nonzero;stroke:none"
               id="text108">
              <tspan
                 x="0"
                 y="0"
                 id="tspan110">y</tspan>
            </text>
            <path
               d="m 395.02,147.533 0,102.807"
               style="fill:none;stroke:#000000;stroke-width:0.69999999;stroke-linecap:butt;stroke-linejoin:miter;stroke-miterlimit:4;stroke-dasharray:none;stroke-opacity:1"
               id="path112"
               inkscape:connector-curvature="0" />
            <path
               d="m 395.013,253.305 1.707,-4.178 -1.707,0.991 -1.708,-0.991 1.708,4.178"
               style="fill:#000000;fill-opacity:1;fill-rule:nonzero;stroke:none"
               id="path114"
               inkscape:connector-curvature="0" />
            <path
               d="m 386.023,231.673 6.875,0 0,9.083 -6.875,0 0,-9.083 z"
               style="fill:#ffffff;fill-opacity:1;fill-rule:nonzero;stroke:none"
               id="path116"
               inkscape:connector-curvature="0" />
            <path
               d="m 380.773,150.86 12.125,0 0,9.083 -12.125,0 0,-9.083 z"
               style="fill:#ffffff;fill-opacity:1;fill-rule:nonzero;stroke:none"
               id="path118"
               inkscape:connector-curvature="0" />
            <text
               transform="matrix(1,0,0,-1,387.4208,233.4741)"
               style="font-variant:normal;font-weight:normal;font-size:9px;font-family:Times;-inkscape-font-specification:Times-Roman;writing-mode:lr-tb;fill:#231f20;fill-opacity:1;fill-rule:nonzero;stroke:none"
               id="text120">
              <tspan
                 x="0"
                 y="0"
                 id="tspan122">5</tspan>
            </text>
            <text
               transform="matrix(1,0,0,-1,382.4798,152.3904)"
               style="font-variant:normal;font-weight:normal;font-size:9px;font-family:Symbol;-inkscape-font-specification:Symbol;writing-mode:lr-tb;fill:#231f20;fill-opacity:1;fill-rule:nonzero;stroke:none"
               id="text124">
              <tspan
                 x="0"
                 y="0"
                 id="tspan126">−</tspan>
            </text>
            <text
               transform="matrix(1,0,0,-1,387.4208,152.3904)"
               style="font-variant:normal;font-weight:normal;font-size:9px;font-family:Times;-inkscape-font-specification:Times-Roman;writing-mode:lr-tb;fill:#231f20;fill-opacity:1;fill-rule:nonzero;stroke:none"
               id="text128">
              <tspan
                 x="0"
                 y="0"
                 id="tspan130">5</tspan>
            </text>
            <text
               transform="matrix(1,0,0,-1,446.9315,193.5195)"
               style="font-style:italic;font-variant:normal;font-size:9px;font-family:Times;-inkscape-font-specification:Times-Italic;writing-mode:lr-tb;fill:#231f20;fill-opacity:1;fill-rule:nonzero;stroke:none"
               id="text132">
              <tspan
                 x="0"
                 y="0"
                 id="tspan134">x</tspan>
            </text>
            <path
               d="m 441.805,195.978 -87,0"
               style="fill:none;stroke:#000000;stroke-width:0.69999999;stroke-linecap:butt;stroke-linejoin:miter;stroke-miterlimit:4;stroke-dasharray:none;stroke-opacity:1"
               id="path136"
               inkscape:connector-curvature="0" />
            <path
               d="m 444.77,195.978 -4.179,-1.707 0.992,1.707 -0.992,1.707 4.179,-1.707"
               style="fill:#000000;fill-opacity:1;fill-rule:nonzero;stroke:none"
               id="path138"
               inkscape:connector-curvature="0" />
            <path
               d="m 349.316,186.027 10.875,0 0,9.084 -10.875,0 0,-9.084 z"
               style="fill:#ffffff;fill-opacity:1;fill-rule:nonzero;stroke:none"
               id="path140"
               inkscape:connector-curvature="0" />
            <path
               d="m 432.805,186.027 4.875,0 0,9.084 -4.875,0 0,-9.084 z"
               style="fill:#ffffff;fill-opacity:1;fill-rule:nonzero;stroke:none"
               id="path142"
               inkscape:connector-curvature="0" />
            <text
               transform="matrix(1,0,0,-1,432.9926,187.5781)"
               style="font-variant:normal;font-weight:normal;font-size:9px;font-family:Times;-inkscape-font-specification:Times-Roman;writing-mode:lr-tb;fill:#231f20;fill-opacity:1;fill-rule:nonzero;stroke:none"
               id="text144">
              <tspan
                 x="0"
                 y="0"
                 id="tspan146">5</tspan>
            </text>
            <text
               transform="matrix(1,0,0,-1,350.0333,187.5781)"
               style="font-variant:normal;font-weight:normal;font-size:9px;font-family:Symbol;-inkscape-font-specification:Symbol;writing-mode:lr-tb;fill:#231f20;fill-opacity:1;fill-rule:nonzero;stroke:none"
               id="text148">
              <tspan
                 x="0"
                 y="0"
                 id="tspan150">−</tspan>
            </text>
            <text
               transform="matrix(1,0,0,-1,354.9743,187.5781)"
               style="font-variant:normal;font-weight:normal;font-size:9px;font-family:Times;-inkscape-font-specification:Times-Roman;writing-mode:lr-tb;fill:#231f20;fill-opacity:1;fill-rule:nonzero;stroke:none"
               id="text152">
              <tspan
                 x="0"
                 y="0"
                 id="tspan154">5</tspan>
            </text>
            <path
               d="m 373.209,168.357 43.549,0 0,55.25 -43.549,0 0,-55.25 z"
               style="fill:none;stroke:#000000;stroke-width:0.69999999;stroke-linecap:butt;stroke-linejoin:miter;stroke-miterlimit:4;stroke-dasharray:4, 2;stroke-dashoffset:0;stroke-opacity:1"
               id="path156"
               inkscape:connector-curvature="0" />
            <path
               d="m 430.156,241.194 c -9.972,-11.208 -25.681,-16.938 -35.142,-16.979 -9.46,-0.042 -25.169,5.771 -35.141,16.979"
               style="fill:none;stroke:#ba0069;stroke-width:1.20000005;stroke-linecap:butt;stroke-linejoin:miter;stroke-miterlimit:4;stroke-dasharray:none;stroke-opacity:1"
               id="path158"
               inkscape:connector-curvature="0" />
            <path
               d="m 357.055,244.359 5.79,-2.839 -2.764,-0.562 -0.88,-2.68 -2.146,6.081"
               style="fill:#ba0069;fill-opacity:1;fill-rule:nonzero;stroke:none"
               id="path160"
               inkscape:connector-curvature="0" />
            <path
               d="m 432.973,244.36 -2.147,-6.082 -0.88,2.68 -2.764,0.563 5.791,2.839"
               style="fill:#ba0069;fill-opacity:1;fill-rule:nonzero;stroke:none"
               id="path162"
               inkscape:connector-curvature="0" />
            <path
               d="m 430.156,150.777 c -9.972,11.209 -25.681,16.938 -35.142,16.979 -9.46,0.042 -25.169,-5.77 -35.141,-16.979"
               style="fill:none;stroke:#ba0069;stroke-width:1.20000005;stroke-linecap:butt;stroke-linejoin:miter;stroke-miterlimit:4;stroke-dasharray:none;stroke-opacity:1"
               id="path164"
               inkscape:connector-curvature="0" />
            <path
               d="m 357.055,147.612 5.79,2.839 -2.764,0.563 -0.88,2.679 -2.146,-6.081"
               style="fill:#ba0069;fill-opacity:1;fill-rule:nonzero;stroke:none"
               id="path166"
               inkscape:connector-curvature="0" />
            <path
               d="m 432.973,147.611 -2.147,6.082 -0.88,-2.68 -2.764,-0.562 5.791,-2.84"
               style="fill:#ba0069;fill-opacity:1;fill-rule:nonzero;stroke:none"
               id="path168"
               inkscape:connector-curvature="0" />
          </g>
        </g>
      </g>
    </g>
  </g>
</svg>
