<?xml version="1.0" encoding="UTF-8" standalone="no"?>
<svg
   xmlns:dc="http://purl.org/dc/elements/1.1/"
   xmlns:cc="http://creativecommons.org/ns#"
   xmlns:rdf="http://www.w3.org/1999/02/22-rdf-syntax-ns#"
   xmlns:svg="http://www.w3.org/2000/svg"
   xmlns="http://www.w3.org/2000/svg"
   xmlns:sodipodi="http://sodipodi.sourceforge.net/DTD/sodipodi-0.dtd"
   xmlns:inkscape="http://www.inkscape.org/namespaces/inkscape"
   width="133.22656pt"
   height="97.171875pt"
   viewBox="0 0 133.22656 97.171875"
   version="1.1"
   id="svg2"
   inkscape:version="0.91 r13725"
   sodipodi:docname="fig-water-fountain.svg">
  <metadata
     id="metadata122">
    <rdf:RDF>
      <cc:Work
         rdf:about="">
        <dc:format>image/svg+xml</dc:format>
        <dc:type
           rdf:resource="http://purl.org/dc/dcmitype/StillImage" />
        <dc:title></dc:title>
      </cc:Work>
    </rdf:RDF>
  </metadata>
  <sodipodi:namedview
     pagecolor="#ffffff"
     bordercolor="#666666"
     borderopacity="1"
     objecttolerance="10"
     gridtolerance="10"
     guidetolerance="10"
     inkscape:pageopacity="0"
     inkscape:pageshadow="2"
     inkscape:window-width="640"
     inkscape:window-height="480"
     id="namedview120"
     showgrid="false"
     showguides="false"
     inkscape:zoom="1.9716156"
     inkscape:cx="83.267689"
     inkscape:cy="60.732589"
     inkscape:window-x="0"
     inkscape:window-y="0"
     inkscape:window-maximized="0"
     inkscape:current-layer="svg2"
     fit-margin-top="0"
     fit-margin-left="0"
     fit-margin-right="0"
     fit-margin-bottom="0" />
  <defs
     id="defs4">
    <clipPath
       id="clip1">
      <path
         d="m 0,0 133,0 0,97.171875 -133,0 z m 0,0"
         id="path7"
         inkscape:connector-curvature="0" />
    </clipPath>
    <linearGradient
       id="linear0"
       gradientUnits="userSpaceOnUse"
       x1="153.24234"
       y1="128"
       x2="247.45654"
       y2="128"
       gradientTransform="matrix(1.4141,0,0,0.6691,-216.7,-48.9742)">
      <stop
         offset="0"
         style="stop-color:rgb(83.009338%,92.112732%,95.655823%);stop-opacity:1;"
         id="stop10" />
      <stop
         offset="0.0625"
         style="stop-color:rgb(83.206177%,92.247009%,95.762634%);stop-opacity:1;"
         id="stop12" />
      <stop
         offset="0.125"
         style="stop-color:rgb(83.599854%,92.510986%,95.973206%);stop-opacity:1;"
         id="stop14" />
      <stop
         offset="0.1875"
         style="stop-color:rgb(83.995056%,92.778015%,96.186829%);stop-opacity:1;"
         id="stop16" />
      <stop
         offset="0.25"
         style="stop-color:rgb(84.390259%,93.043518%,96.398926%);stop-opacity:1;"
         id="stop18" />
      <stop
         offset="0.3125"
         style="stop-color:rgb(84.786987%,93.310547%,96.612549%);stop-opacity:1;"
         id="stop20" />
      <stop
         offset="0.375"
         style="stop-color:rgb(85.183716%,93.57605%,96.824646%);stop-opacity:1;"
         id="stop22" />
      <stop
         offset="0.4375"
         style="stop-color:rgb(85.58197%,93.844604%,97.036743%);stop-opacity:1;"
         id="stop24" />
      <stop
         offset="0.5"
         style="stop-color:rgb(85.980225%,94.111633%,97.250366%);stop-opacity:1;"
         id="stop26" />
      <stop
         offset="0.5625"
         style="stop-color:rgb(86.381531%,94.378662%,97.463989%);stop-opacity:1;"
         id="stop28" />
      <stop
         offset="0.625"
         style="stop-color:rgb(86.781311%,94.645691%,97.676086%);stop-opacity:1;"
         id="stop30" />
      <stop
         offset="0.6875"
         style="stop-color:rgb(87.182617%,94.914246%,97.889709%);stop-opacity:1;"
         id="stop32" />
      <stop
         offset="0.75"
         style="stop-color:rgb(87.585449%,95.1828%,98.103333%);stop-opacity:1;"
         id="stop34" />
      <stop
         offset="0.8125"
         style="stop-color:rgb(87.989807%,95.451355%,98.316956%);stop-opacity:1;"
         id="stop36" />
      <stop
         offset="0.875"
         style="stop-color:rgb(88.394165%,95.71991%,98.529053%);stop-opacity:1;"
         id="stop38" />
      <stop
         offset="0.9375"
         style="stop-color:rgb(88.798523%,95.988464%,98.742676%);stop-opacity:1;"
         id="stop40" />
      <stop
         offset="1"
         style="stop-color:rgb(89.205933%,96.258545%,98.956299%);stop-opacity:1;"
         id="stop42" />
    </linearGradient>
    <clipPath
       id="clip2">
      <path
         d="m 8,1.324219 124,0 L 132,95 8,95 Z m 0,0"
         id="path45"
         inkscape:connector-curvature="0" />
    </clipPath>
    <clipPath
       id="clip3">
      <path
         d="m 2,66 13,0 0,29.324219 -13,0 z m 0,0"
         id="path48"
         inkscape:connector-curvature="0" />
    </clipPath>
    <clipPath
       id="clip4">
      <path
         d="M 1.300781,66 15,66 15,70 1.300781,70 Z m 0,0"
         id="path51"
         inkscape:connector-curvature="0" />
    </clipPath>
    <clipPath
       id="clip5">
      <path
         d="M 1.300781,63 18,63 18,73 1.300781,73 Z m 0,0"
         id="path54"
         inkscape:connector-curvature="0" />
    </clipPath>
    <clipPath
       id="clip6">
      <path
         d="m 0,0 133.22656,0 0,97.171875 -133.22656,0 z m 0,0"
         id="path57"
         inkscape:connector-curvature="0" />
    </clipPath>
  </defs>
  <g
     style="clip-rule:nonzero"
     id="g64"
     clip-path="url(#clip2)">
    <path
       inkscape:connector-curvature="0"
       id="path66"
       transform="matrix(1,0,0,-1,-475.2,679.7858)"
       d="m 483.50078,678.12564 123,0 0,-92.66406 -123,0 z m 0,0"
       style="fill:#fde1ab;fill-opacity:1;fill-rule:nonzero;stroke:#ee2e2b;stroke-width:0.5;stroke-linecap:butt;stroke-linejoin:miter;stroke-miterlimit:4;stroke-opacity:1" />
  </g>
  <path
     inkscape:connector-curvature="0"
     id="path68"
     d="m 11.585938,94.269531 -1.105469,-24.621093 -4.222657,0 -1.105468,24.621093 6.433594,0"
     style="fill:#118763;fill-opacity:1;fill-rule:nonzero;stroke:none" />
  <g
     style="clip-rule:nonzero"
     id="g70"
     clip-path="url(#clip3)">
    <path
       inkscape:connector-curvature="0"
       id="path72"
       transform="matrix(1,0,0,-1,-475.2,679.7858)"
       d="m 486.78594,585.51627 -1.10547,24.62109 -4.22266,0 -1.10547,-24.62109 z m 0,0"
       style="fill:none;stroke:#211e1e;stroke-width:0.5;stroke-linecap:butt;stroke-linejoin:miter;stroke-miterlimit:4;stroke-opacity:1" />
  </g>
  <g
     style="clip-rule:nonzero"
     id="g74"
     clip-path="url(#clip4)">
    <path
       inkscape:connector-curvature="0"
       id="path76"
       d="m 1.871094,66.039062 c 0,2.15625 2.910156,3.898438 6.496094,3.898438 3.589843,0 6.496093,-1.742188 6.496093,-3.898438 l -12.992187,0"
       style="fill:#118763;fill-opacity:1;fill-rule:nonzero;stroke:none" />
  </g>
  <g
     style="clip-rule:nonzero"
     id="g78"
     clip-path="url(#clip5)">
    <path
       inkscape:connector-curvature="0"
       id="path80"
       transform="matrix(1,0,0,-1,-475.2,679.7858)"
       d="m 477.07109,613.74674 c 0,-2.15625 2.91016,-3.89844 6.4961,-3.89844 3.58984,0 6.49609,1.74219 6.49609,3.89844 z m 0,0"
       style="fill:none;stroke:#211e1e;stroke-width:0.5;stroke-linecap:butt;stroke-linejoin:miter;stroke-miterlimit:4;stroke-opacity:1" />
  </g>
  <path
     inkscape:connector-curvature="0"
     id="path82"
     d="m 9.113281,66.011719 c 4.375,-12.0625 22.769531,-45.617188 41.519531,-45.601563 18.417969,0.01172 40.65625,46.898438 48.792969,72.039063 0.687499,2.125 -3.75,1 -3.75,1.8125 l 9.624999,0 c 0,-0.8125 -3.3125,0.3125 -4,-1.8125 -8.136718,-25.140625 -30.249999,-72.875 -50.499999,-72.875 -20.25,0 -37.875,34.375 -42.25,46.4375 l 0.5625,0"
     style="fill:#ffffff;fill-opacity:1;fill-rule:nonzero;stroke:none" />
  <path
     inkscape:connector-curvature="0"
     id="path84"
     d="m 9.11328,66.01172 c 4.375,-12.0625 22.76953,-45.61719 41.51953,-45.60156 18.41797,0.0117 40.65625,46.89843 48.79297,72.03906 0.6875,2.125 -3.75,1 -3.75,1.8125 l 9.625,0 c 0,-0.8125 -3.3125,0.3125 -4,-1.8125 -8.13672,-25.14063 -30.25,-72.875 -50.5,-72.875 -20.25,0 -37.875,34.375 -42.25,46.4375 z m 0,0"
     style="fill:none;stroke:#211e1e;stroke-width:0.5;stroke-linecap:butt;stroke-linejoin:round;stroke-miterlimit:4;stroke-opacity:1" />
  <path
     inkscape:connector-curvature="0"
     id="path86"
     d="m 102.69922,91.3125 c -0.38672,1.046875 -0.80859,-2.9375 -0.0156,-2.882812 0.79297,0.05469 0.51172,1.542968 0.0156,2.882812"
     style="fill:#ffffff;fill-opacity:1;fill-rule:nonzero;stroke:none" />
  <path
     inkscape:connector-curvature="0"
     id="path88"
     d="m 102.69922,91.3125 c -0.38672,1.04688 -0.80859,-2.9375 -0.0156,-2.88281 0.79297,0.0547 0.51172,1.54297 0.0156,2.88281 z m 0,0"
     style="fill:none;stroke:#211e1e;stroke-width:0.5;stroke-linecap:butt;stroke-linejoin:round;stroke-miterlimit:4;stroke-opacity:1" />
  <path
     inkscape:connector-curvature="0"
     id="path90"
     d="m 96.613281,91.449219 c 0.792969,0.53125 -1,-2.1875 -1.8125,-1.625 -0.8125,0.5625 0.875,1 1.8125,1.625"
     style="fill:#ffffff;fill-opacity:1;fill-rule:nonzero;stroke:none" />
  <path
     inkscape:connector-curvature="0"
     id="path92"
     d="m 96.61328,91.44922 c 0.79297,0.53125 -1,-2.1875 -1.8125,-1.625 -0.8125,0.5625 0.875,1 1.8125,1.625 z m 0,0"
     style="fill:none;stroke:#211e1e;stroke-width:0.5;stroke-linecap:butt;stroke-linejoin:round;stroke-miterlimit:4;stroke-opacity:1" />
  <path
     inkscape:connector-curvature="0"
     id="path94"
     d="m 96.425781,92.761719 c 1.058594,-0.527344 -2.25,-0.0625 -1.9375,0.1875 0.3125,0.25 0.6875,0.4375 1.9375,-0.1875"
     style="fill:#ffffff;fill-opacity:1;fill-rule:nonzero;stroke:none" />
  <path
     inkscape:connector-curvature="0"
     id="path96"
     d="m 96.42578,92.76172 c 1.0586,-0.52734 -2.25,-0.0625 -1.9375,0.1875 0.3125,0.25 0.6875,0.4375 1.9375,-0.1875 z m 0,0"
     style="fill:none;stroke:#211e1e;stroke-width:0.5;stroke-linecap:butt;stroke-linejoin:round;stroke-miterlimit:4;stroke-opacity:1" />
  <path
     inkscape:connector-curvature="0"
     id="path98"
     d="m 103.69922,92.203125 c 0.26953,-1.15625 1.61719,-3.304687 2.35937,-2.503906 0.74219,0.804687 -2.61328,3.601562 -2.35937,2.503906"
     style="fill:#ffffff;fill-opacity:1;fill-rule:nonzero;stroke:none" />
  <path
     inkscape:connector-curvature="0"
     id="path100"
     d="m 103.69922,92.20313 c 0.26953,-1.15625 1.61719,-3.30469 2.35937,-2.50391 0.74219,0.80469 -2.61328,3.60156 -2.35937,2.50391 z m 0,0"
     style="fill:none;stroke:#211e1e;stroke-width:0.5;stroke-linecap:butt;stroke-linejoin:round;stroke-miterlimit:4;stroke-opacity:1" />
  <path
     inkscape:connector-curvature="0"
     id="path102"
     d="m 106.11328,93.074219 c -0.625,-0.0625 1.75,-1.4375 2.125,-1.0625 0.375,0.375 -0.375,1.25 -2.125,1.0625"
     style="fill:#ffffff;fill-opacity:1;fill-rule:nonzero;stroke:none" />
  <path
     inkscape:connector-curvature="0"
     id="path104"
     d="m 106.11328,93.07422 c -0.625,-0.0625 1.75,-1.4375 2.125,-1.0625 0.375,0.375 -0.375,1.25 -2.125,1.0625 z m 0,0"
     style="fill:none;stroke:#211e1e;stroke-width:0.5;stroke-linecap:butt;stroke-linejoin:round;stroke-miterlimit:4;stroke-opacity:1" />
  <path
     inkscape:connector-curvature="0"
     id="path106"
     d="m 8.628906,66.035156 0,-0.21875 c 0,-0.472656 0.070313,-0.679687 0.09375,-0.71875 -0.011718,0.01563 -0.050781,0.04687 -0.105468,0.04687 0.171874,0 0.308593,-0.15625 0.308593,-0.351562 0,-0.195313 -0.136719,-0.355469 -0.308593,-0.355469 -0.273438,0 -0.605469,0.242188 -0.605469,1.378906 l 0,0.21875 0.617187,0"
     style="fill:#ffffff;fill-opacity:1;fill-rule:nonzero;stroke:none" />
  <path
     inkscape:connector-curvature="0"
     id="path108"
     d="m 8.62891,66.03516 0,-0.21875 c 0,-0.47266 0.0703,-0.67969 0.0937,-0.71875 -0.0117,0.0156 -0.0508,0.0469 -0.10547,0.0469 0.17187,0 0.30859,-0.15625 0.30859,-0.35156 0,-0.19531 -0.13672,-0.35547 -0.30859,-0.35547 -0.27344,0 -0.60547,0.24219 -0.60547,1.37891 l 0,0.21875 z m 0,0"
     style="fill:none;stroke:#211e1e;stroke-width:0.5;stroke-linecap:butt;stroke-linejoin:miter;stroke-miterlimit:4;stroke-opacity:1" />
  <g
     style="clip-rule:nonzero"
     id="g110"
     clip-path="url(#clip6)">
    <path
       inkscape:connector-curvature="0"
       id="path112"
       transform="matrix(1,0,0,-1,-475.2,679.7858)"
       d="m 42.000781,804.00064 0,-24 m -41.99999975,-18 23.99999975,0 m 629.999999,42 0,-24 m 42,-18 -24,0 M 42.000781,6.4375e-4 l 0,24.00000025 m -41.99999975,18 23.99999975,0 M 654.00078,6.4375e-4 l 0,24.00000025 m 42,18 -24,0"
       style="fill:none;stroke:#ffffff;stroke-width:0.5;stroke-linecap:butt;stroke-linejoin:miter;stroke-miterlimit:10;stroke-opacity:1" />
    <path
       inkscape:connector-curvature="0"
       id="path114"
       transform="matrix(1,0,0,-1,-475.2,679.7858)"
       d="m 42.000781,804.00064 0,-24 m -41.99999975,-18 23.99999975,0 m 629.999999,42 0,-24 m 42,-18 -24,0 M 42.000781,6.4375e-4 l 0,24.00000025 m -41.99999975,18 23.99999975,0 M 654.00078,6.4375e-4 l 0,24.00000025 m 42,18 -24,0"
       style="fill:none;stroke:#000000;stroke-width:0.25;stroke-linecap:butt;stroke-linejoin:miter;stroke-miterlimit:10;stroke-opacity:1" />
    <path
       inkscape:connector-curvature="0"
       id="path116"
       transform="matrix(1,0,0,-1,-475.2,679.7858)"
       d="m 324.00078,792.00064 48,0 m -48,-779.999996 48,0 M 12.000781,426.00064 l 0,-48 m 671.999999,48 0,-48 m -336,426 0,-24 m 0,-755.999996 0,-24.00000025 M 7.8125e-4,402.00064 l 23.99999975,0 m 647.999999,0 24,0 m -348,390 6,0 c 0,-3.3125 -2.6875,-6 -6,-6 -3.3125,0 -6,2.6875 -6,6 0,3.3125 2.6875,6 6,6 3.3125,0 6,-2.6875 6,-6 m -6,-779.999996 6,0 c 0,-3.3125 -2.6875,-6 -6,-6 -3.3125,0 -6,2.6875 -6,6 0,3.3125 2.6875,6 6,6 3.3125,0 6,-2.6875 6,-6 M 12.000781,402.00064 l 6,0 c 0,-3.3125 -2.6875,-6 -6,-6 -3.3125,0 -6,2.6875 -6,6 0,3.3125 2.6875,6 6,6 3.3125,0 6,-2.6875 6,-6 m 665.999999,0 6,0 c 0,-3.3125 -2.6875,-6 -6,-6 -3.3125,0 -6,2.6875 -6,6 0,3.3125 2.6875,6 6,6 3.3125,0 6,-2.6875 6,-6"
       style="fill:none;stroke:#ffffff;stroke-width:0.5;stroke-linecap:butt;stroke-linejoin:miter;stroke-miterlimit:10;stroke-opacity:1" />
    <path
       inkscape:connector-curvature="0"
       id="path118"
       transform="matrix(1,0,0,-1,-475.2,679.7858)"
       d="m 324.00078,792.00064 48,0 m -48,-779.999996 48,0 M 12.000781,426.00064 l 0,-48 m 671.999999,48 0,-48 m -336,426 0,-24 m 0,-755.999996 0,-24.00000025 M 7.8125e-4,402.00064 l 23.99999975,0 m 647.999999,0 24,0 m -348,390 6,0 c 0,-3.3125 -2.6875,-6 -6,-6 -3.3125,0 -6,2.6875 -6,6 0,3.3125 2.6875,6 6,6 3.3125,0 6,-2.6875 6,-6 m -6,-779.999996 6,0 c 0,-3.3125 -2.6875,-6 -6,-6 -3.3125,0 -6,2.6875 -6,6 0,3.3125 2.6875,6 6,6 3.3125,0 6,-2.6875 6,-6 M 12.000781,402.00064 l 6,0 c 0,-3.3125 -2.6875,-6 -6,-6 -3.3125,0 -6,2.6875 -6,6 0,3.3125 2.6875,6 6,6 3.3125,0 6,-2.6875 6,-6 m 665.999999,0 6,0 c 0,-3.3125 -2.6875,-6 -6,-6 -3.3125,0 -6,2.6875 -6,6 0,3.3125 2.6875,6 6,6 3.3125,0 6,-2.6875 6,-6"
       style="fill:none;stroke:#000000;stroke-width:0.25;stroke-linecap:butt;stroke-linejoin:miter;stroke-miterlimit:10;stroke-opacity:1" />
  </g>
</svg>
