<?xml version="1.0" encoding="UTF-8" standalone="no"?>
<!-- Created with Inkscape (http://www.inkscape.org/) -->

<svg
   xmlns:dc="http://purl.org/dc/elements/1.1/"
   xmlns:cc="http://creativecommons.org/ns#"
   xmlns:rdf="http://www.w3.org/1999/02/22-rdf-syntax-ns#"
   xmlns:svg="http://www.w3.org/2000/svg"
   xmlns="http://www.w3.org/2000/svg"
   xmlns:sodipodi="http://sodipodi.sourceforge.net/DTD/sodipodi-0.dtd"
   xmlns:inkscape="http://www.inkscape.org/namespaces/inkscape"
   width="35.855804mm"
   height="40.284504mm"
   viewBox="0 0 127.04813 142.74037"
   id="svg6305"
   version="1.1"
   inkscape:version="0.91 r13725"
   sodipodi:docname="fig-hw-hyperbola-left-right-2.svg">
  <defs
     id="defs6307">
    <clipPath
       clipPathUnits="userSpaceOnUse"
       id="clipPath5080">
      <path
         d="m 84.37,720 118,0 0,-120.67 -118,0 0,120.67 z"
         id="path5082"
         inkscape:connector-curvature="0"
         style="clip-rule:evenodd" />
    </clipPath>
    <clipPath
       clipPathUnits="userSpaceOnUse"
       id="clipPath5086">
      <path
         d="m 17,757 578,0 0,-722 -578,0 0,722 z"
         id="path5088"
         inkscape:connector-curvature="0" />
    </clipPath>
    <clipPath
       clipPathUnits="userSpaceOnUse"
       id="clipPath5092">
      <path
         d="m 0,792.06 612,0 0,-792 -612,0 0,792 z"
         id="path5094"
         inkscape:connector-curvature="0" />
    </clipPath>
  </defs>
  <sodipodi:namedview
     id="base"
     pagecolor="#ffffff"
     bordercolor="#666666"
     borderopacity="1.0"
     inkscape:pageopacity="0.0"
     inkscape:pageshadow="2"
     inkscape:zoom="2.1307116"
     inkscape:cx="55.02497"
     inkscape:cy="23.407466"
     inkscape:document-units="px"
     inkscape:current-layer="layer1"
     showgrid="false"
     fit-margin-top="0"
     fit-margin-left="0"
     fit-margin-right="0"
     fit-margin-bottom="0"
     inkscape:window-width="1366"
     inkscape:window-height="715"
     inkscape:window-x="0"
     inkscape:window-y="0"
     inkscape:window-maximized="1" />
  <metadata
     id="metadata6310">
    <rdf:RDF>
      <cc:Work
         rdf:about="">
        <dc:format>image/svg+xml</dc:format>
        <dc:type
           rdf:resource="http://purl.org/dc/dcmitype/StillImage" />
        <dc:title></dc:title>
      </cc:Work>
    </rdf:RDF>
  </metadata>
  <g
     inkscape:label="Layer 1"
     inkscape:groupmode="layer"
     id="layer1"
     transform="translate(-319.97503,-394.25622)">
    <g
       transform="matrix(1.25,0,0,-1.25,213.31753,1292.8191)"
       id="g5076">
      <g
         id="g5078"
         clip-path="url(#clipPath5080)">
        <g
           id="g5084"
           clip-path="url(#clipPath5086)">
          <g
             id="g5090"
             clip-path="url(#clipPath5092)">
            <path
               d="m 98.85,604.908 0,96.807 m 8.04,-96.807 0,96.807 m 8.038,-96.807 0,96.807 m 8.04,-96.807 0,96.807 m 8.038,-96.807 0,96.807 m 8.041,-96.807 0,96.807 m 8.038,-96.807 0,96.807 m 8.039,-96.807 0,96.807 m 8.039,-96.807 0,96.807 m -72.352,-16.138 80.392,0 m -80.392,8.071 80.392,0 m -80.392,-16.138 80.392,0 m -80.392,-8.066 80.392,0 m -80.392,-8.067 80.392,0 m -80.392,-8.066 80.392,0 m -80.392,-8.067 80.392,0 m -80.392,-8.066 80.392,0 m -80.392,-8.067 80.392,0 m -80.392,-8.066 80.392,0 m -80.392,-8.07 80.392,0 m -80.392,-8.067 80.392,0 0,96.807 -80.392,0 0,-96.807 z"
               style="fill:none;stroke:#3a6abc;stroke-width:0.5;stroke-linecap:butt;stroke-linejoin:miter;stroke-miterlimit:4;stroke-dasharray:none;stroke-opacity:1"
               id="path5096"
               inkscape:connector-curvature="0" />
            <path
               d="m 98.63,701.818 65.067,-96.941 m -0.565,96.735 -64.288,-96.696"
               style="fill:none;stroke:#000000;stroke-width:0.69999999;stroke-linecap:butt;stroke-linejoin:miter;stroke-miterlimit:4;stroke-dasharray:4, 2;stroke-dashoffset:0;stroke-opacity:1"
               id="path5098"
               inkscape:connector-curvature="0" />
            <text
               transform="matrix(1,0,0,-1,129.1917,714.8813)"
               style="font-style:italic;font-variant:normal;font-size:9px;font-family:Times;-inkscape-font-specification:Times-Italic;writing-mode:lr-tb;fill:#231f20;fill-opacity:1;fill-rule:nonzero;stroke:none"
               id="text5100">
              <tspan
                 x="0"
                 y="0"
                 id="tspan5102">y</tspan>
            </text>
            <path
               d="m 131.03,604.908 0,102.807"
               style="fill:none;stroke:#000000;stroke-width:0.69999999;stroke-linecap:butt;stroke-linejoin:miter;stroke-miterlimit:4;stroke-dasharray:none;stroke-opacity:1"
               id="path5104"
               inkscape:connector-curvature="0" />
            <path
               d="m 131.023,710.68 1.707,-4.178 -1.707,0.991 -1.708,-0.991 1.708,4.178"
               style="fill:#000000;fill-opacity:1;fill-rule:nonzero;stroke:none"
               id="path5106"
               inkscape:connector-curvature="0" />
            <path
               d="m 122.033,689.048 6.875,0 0,9.083 -6.875,0 0,-9.083 z"
               style="fill:#ffffff;fill-opacity:1;fill-rule:nonzero;stroke:none"
               id="path5108"
               inkscape:connector-curvature="0" />
            <path
               d="m 116.783,608.235 12.125,0 0,9.083 -12.125,0 0,-9.083 z"
               style="fill:#ffffff;fill-opacity:1;fill-rule:nonzero;stroke:none"
               id="path5110"
               inkscape:connector-curvature="0" />
            <text
               transform="matrix(1,0,0,-1,123.4308,690.8491)"
               style="font-variant:normal;font-weight:normal;font-size:9px;font-family:Times;-inkscape-font-specification:Times-Roman;writing-mode:lr-tb;fill:#231f20;fill-opacity:1;fill-rule:nonzero;stroke:none"
               id="text5112">
              <tspan
                 x="0"
                 y="0"
                 id="tspan5114">5</tspan>
            </text>
            <text
               transform="matrix(1,0,0,-1,118.4898,609.7654)"
               style="font-variant:normal;font-weight:normal;font-size:9px;font-family:Symbol;-inkscape-font-specification:Symbol;writing-mode:lr-tb;fill:#231f20;fill-opacity:1;fill-rule:nonzero;stroke:none"
               id="text5116">
              <tspan
                 x="0"
                 y="0"
                 id="tspan5118">−</tspan>
            </text>
            <text
               transform="matrix(1,0,0,-1,123.4308,609.7654)"
               style="font-variant:normal;font-weight:normal;font-size:9px;font-family:Times;-inkscape-font-specification:Times-Roman;writing-mode:lr-tb;fill:#231f20;fill-opacity:1;fill-rule:nonzero;stroke:none"
               id="text5120">
              <tspan
                 x="0"
                 y="0"
                 id="tspan5122">5</tspan>
            </text>
            <text
               transform="matrix(1,0,0,-1,182.9415,650.8945)"
               style="font-style:italic;font-variant:normal;font-size:9px;font-family:Times;-inkscape-font-specification:Times-Italic;writing-mode:lr-tb;fill:#231f20;fill-opacity:1;fill-rule:nonzero;stroke:none"
               id="text5124">
              <tspan
                 x="0"
                 y="0"
                 id="tspan5126">x</tspan>
            </text>
            <path
               d="m 177.815,653.353 -87,0"
               style="fill:none;stroke:#000000;stroke-width:0.69999999;stroke-linecap:butt;stroke-linejoin:miter;stroke-miterlimit:4;stroke-dasharray:none;stroke-opacity:1"
               id="path5128"
               inkscape:connector-curvature="0" />
            <path
               d="m 180.78,653.353 -4.179,-1.707 0.992,1.707 -0.992,1.707 4.179,-1.707"
               style="fill:#000000;fill-opacity:1;fill-rule:nonzero;stroke:none"
               id="path5130"
               inkscape:connector-curvature="0" />
            <path
               d="m 85.326,643.402 10.875,0 0,9.084 -10.875,0 0,-9.084 z"
               style="fill:#ffffff;fill-opacity:1;fill-rule:nonzero;stroke:none"
               id="path5132"
               inkscape:connector-curvature="0" />
            <path
               d="m 168.815,643.402 4.875,0 0,9.084 -4.875,0 0,-9.084 z"
               style="fill:#ffffff;fill-opacity:1;fill-rule:nonzero;stroke:none"
               id="path5134"
               inkscape:connector-curvature="0" />
            <text
               transform="matrix(1,0,0,-1,169.0026,644.9531)"
               style="font-variant:normal;font-weight:normal;font-size:9px;font-family:Times;-inkscape-font-specification:Times-Roman;writing-mode:lr-tb;fill:#231f20;fill-opacity:1;fill-rule:nonzero;stroke:none"
               id="text5136">
              <tspan
                 x="0"
                 y="0"
                 id="tspan5138">5</tspan>
            </text>
            <text
               transform="matrix(1,0,0,-1,86.0424,644.9531)"
               style="font-variant:normal;font-weight:normal;font-size:9px;font-family:Symbol;-inkscape-font-specification:Symbol;writing-mode:lr-tb;fill:#231f20;fill-opacity:1;fill-rule:nonzero;stroke:none"
               id="text5140">
              <tspan
                 x="0"
                 y="0"
                 id="tspan5142">−</tspan>
            </text>
            <text
               transform="matrix(1,0,0,-1,90.9834,644.9531)"
               style="font-variant:normal;font-weight:normal;font-size:9px;font-family:Times;-inkscape-font-specification:Times-Roman;writing-mode:lr-tb;fill:#231f20;fill-opacity:1;fill-rule:nonzero;stroke:none"
               id="text5144">
              <tspan
                 x="0"
                 y="0"
                 id="tspan5146">5</tspan>
            </text>
            <path
               d="m 114.921,629.152 32.145,0 0,48.375 -32.145,0 0,-48.375 z"
               style="fill:none;stroke:#000000;stroke-width:0.69999999;stroke-linecap:butt;stroke-linejoin:miter;stroke-miterlimit:4;stroke-dasharray:4, 2;stroke-dashoffset:0;stroke-opacity:1"
               id="path5148"
               inkscape:connector-curvature="0" />
            <path
               d="m 114.754,653.361 c 0.041,13.916 -6.124,30.889 -14.627,44.133"
               style="fill:none;stroke:#ba0069;stroke-width:1.20000005;stroke-linecap:butt;stroke-linejoin:miter;stroke-miterlimit:4;stroke-dasharray:none;stroke-opacity:1"
               id="path5150"
               inkscape:connector-curvature="0" />
            <path
               d="m 97.888,701.458 5.059,-3.998 -2.82,0.034 -1.427,-2.433 -0.812,6.397"
               style="fill:#ba0069;fill-opacity:1;fill-rule:nonzero;stroke:none"
               id="path5152"
               inkscape:connector-curvature="0" />
            <path
               d="m 114.754,653.361 c 0.041,-13.917 -6.124,-30.889 -14.627,-44.133"
               style="fill:none;stroke:#ba0069;stroke-width:1.20000005;stroke-linecap:butt;stroke-linejoin:miter;stroke-miterlimit:4;stroke-dasharray:none;stroke-opacity:1"
               id="path5154"
               inkscape:connector-curvature="0" />
            <path
               d="m 97.888,605.264 5.059,3.998 -2.82,-0.034 -1.427,2.433 -0.812,-6.397"
               style="fill:#ba0069;fill-opacity:1;fill-rule:nonzero;stroke:none"
               id="path5156"
               inkscape:connector-curvature="0" />
            <path
               d="m 147.223,653.361 c -0.041,13.916 6.124,30.889 14.627,44.133"
               style="fill:none;stroke:#ba0069;stroke-width:1.20000005;stroke-linecap:butt;stroke-linejoin:miter;stroke-miterlimit:4;stroke-dasharray:none;stroke-opacity:1"
               id="path5158"
               inkscape:connector-curvature="0" />
            <path
               d="m 164.089,701.458 -5.06,-3.998 2.821,0.034 1.427,-2.433 0.812,6.397"
               style="fill:#ba0069;fill-opacity:1;fill-rule:nonzero;stroke:none"
               id="path5160"
               inkscape:connector-curvature="0" />
            <path
               d="m 147.223,653.361 c -0.041,-13.917 6.124,-30.889 14.627,-44.133"
               style="fill:none;stroke:#ba0069;stroke-width:1.20000005;stroke-linecap:butt;stroke-linejoin:miter;stroke-miterlimit:4;stroke-dasharray:none;stroke-opacity:1"
               id="path5162"
               inkscape:connector-curvature="0" />
            <path
               d="m 164.089,605.264 -5.06,3.998 2.821,-0.034 1.427,2.433 0.812,-6.397"
               style="fill:#ba0069;fill-opacity:1;fill-rule:nonzero;stroke:none"
               id="path5164"
               inkscape:connector-curvature="0" />
          </g>
        </g>
      </g>
    </g>
  </g>
</svg>
