<?xml version="1.0" encoding="UTF-8" standalone="no"?>
<!-- Created with Inkscape (http://www.inkscape.org/) -->

<svg
   xmlns:dc="http://purl.org/dc/elements/1.1/"
   xmlns:cc="http://creativecommons.org/ns#"
   xmlns:rdf="http://www.w3.org/1999/02/22-rdf-syntax-ns#"
   xmlns:svg="http://www.w3.org/2000/svg"
   xmlns="http://www.w3.org/2000/svg"
   xmlns:sodipodi="http://sodipodi.sourceforge.net/DTD/sodipodi-0.dtd"
   xmlns:inkscape="http://www.inkscape.org/namespaces/inkscape"
   width="36.059673mm"
   height="40.284927mm"
   viewBox="0 0 127.7705 142.74187"
   id="svg6064"
   version="1.1"
   inkscape:version="0.91 r13725"
   sodipodi:docname="fig-hyperbola-left-right-at-0-4.svg">
  <defs
     id="defs6066">
    <clipPath
       clipPathUnits="userSpaceOnUse"
       id="clipPath1786">
      <path
         d="m 89.62,618 116.89,0 0,-117.33 -116.89,0 0,117.33 z"
         id="path1788"
         inkscape:connector-curvature="0"
         style="clip-rule:evenodd" />
    </clipPath>
    <clipPath
       clipPathUnits="userSpaceOnUse"
       id="clipPath1792">
      <path
         d="m 17,757 578,0 0,-722 -578,0 0,722 z"
         id="path1794"
         inkscape:connector-curvature="0" />
    </clipPath>
    <clipPath
       clipPathUnits="userSpaceOnUse"
       id="clipPath1798">
      <path
         d="m 0,792.06 612,0 0,-792 -612,0 0,792 z"
         id="path1800"
         inkscape:connector-curvature="0" />
    </clipPath>
  </defs>
  <sodipodi:namedview
     id="base"
     pagecolor="#ffffff"
     bordercolor="#666666"
     borderopacity="1.0"
     inkscape:pageopacity="0.0"
     inkscape:pageshadow="2"
     inkscape:zoom="2.0070312"
     inkscape:cx="79.14452"
     inkscape:cy="68.353095"
     inkscape:document-units="px"
     inkscape:current-layer="layer1"
     showgrid="false"
     fit-margin-top="0"
     fit-margin-left="0"
     fit-margin-right="0"
     fit-margin-bottom="0"
     inkscape:window-width="531"
     inkscape:window-height="632"
     inkscape:window-x="809"
     inkscape:window-y="83"
     inkscape:window-maximized="0" />
  <metadata
     id="metadata6069">
    <rdf:RDF>
      <cc:Work
         rdf:about="">
        <dc:format>image/svg+xml</dc:format>
        <dc:type
           rdf:resource="http://purl.org/dc/dcmitype/StillImage" />
        <dc:title></dc:title>
      </cc:Work>
    </rdf:RDF>
  </metadata>
  <g
     inkscape:label="Layer 1"
     inkscape:groupmode="layer"
     id="layer1"
     transform="translate(-295.85548,-457.97342)">
    <g
       transform="matrix(1.25,0,0,-1.25,183.57173,1229.5228)"
       id="g1782">
      <g
         id="g1784"
         clip-path="url(#clipPath1786)">
        <g
           id="g1790"
           clip-path="url(#clipPath1792)">
          <g
             id="g1796"
             clip-path="url(#clipPath1798)">
            <path
               d="m 111.999,503.296 0,96.808 m -8.07,-96.808 0,96.808 m 16.11,-96.808 0,96.808 m 8.038,-96.808 0,96.808 m 16.078,-96.808 0,96.808 m 8.04,-96.808 0,96.808 m 8.038,-96.808 0,96.808 m 8.04,-96.808 0,96.808 m -72.384,-8.068 80.392,0 m -80.392,-8.067 80.392,0 m -80.392,-8.066 80.392,0 m -80.392,-8.067 80.392,0 m -80.392,-8.066 80.392,0 m -80.392,-8.067 80.392,0 m -40.164,-48.407 0,96.808 m -40.228,-48.401 80.392,0 m -80.392,0 80.392,0 m -80.392,-8.066 80.392,0 m -80.392,-8.067 80.392,0 m -80.392,-8.066 80.392,0 m -80.392,-8.07 80.392,0 m -80.392,-8.07 80.392,0 m -80.392,-8.068 80.392,0 0,96.808 -80.392,0 0,-96.808 z"
               style="fill:none;stroke:#3a6abc;stroke-width:0.5;stroke-linecap:butt;stroke-linejoin:miter;stroke-miterlimit:4;stroke-dasharray:none;stroke-opacity:1"
               id="path1802"
               inkscape:connector-curvature="0" />
            <path
               d="m 112.056,600.076 48,-96.619"
               style="fill:none;stroke:#000000;stroke-width:0.69999999;stroke-linecap:butt;stroke-linejoin:miter;stroke-miterlimit:4;stroke-dasharray:4, 2;stroke-dashoffset:0;stroke-opacity:1"
               id="path1804"
               inkscape:connector-curvature="0" />
            <text
               transform="matrix(1,0,0,-1,134.2703,613.2705)"
               style="font-style:italic;font-variant:normal;font-size:9px;font-family:Times;-inkscape-font-specification:Times-Italic;writing-mode:lr-tb;fill:#231f20;fill-opacity:1;fill-rule:nonzero;stroke:none"
               id="text1806">
              <tspan
                 x="0"
                 y="0"
                 id="tspan1808">y</tspan>
            </text>
            <path
               d="m 136.109,503.296 0,102.808"
               style="fill:none;stroke:#000000;stroke-width:0.69999999;stroke-linecap:butt;stroke-linejoin:miter;stroke-miterlimit:4;stroke-dasharray:none;stroke-opacity:1"
               id="path1810"
               inkscape:connector-curvature="0" />
            <path
               d="m 136.101,609.069 1.707,-4.179 -1.707,0.992 -1.707,-0.992 1.707,4.179"
               style="fill:#000000;fill-opacity:1;fill-rule:nonzero;stroke:none"
               id="path1812"
               inkscape:connector-curvature="0" />
            <path
               d="m 127.111,555.132 6.875,0 0,9.083 -6.875,0 0,-9.083 z"
               style="fill:#ffffff;fill-opacity:1;fill-rule:nonzero;stroke:none"
               id="path1814"
               inkscape:connector-curvature="0" />
            <text
               transform="matrix(1,0,0,-1,128.5094,556.9331)"
               style="font-variant:normal;font-weight:normal;font-size:9px;font-family:Times;-inkscape-font-specification:Times-Roman;writing-mode:lr-tb;fill:#231f20;fill-opacity:1;fill-rule:nonzero;stroke:none"
               id="text1816">
              <tspan
                 x="0"
                 y="0"
                 id="tspan1818">5</tspan>
            </text>
            <path
               d="m 89.827,508.59 12.055,0 0,9.083 -12.055,0 0,-9.083 z"
               style="fill:#ffffff;fill-opacity:1;fill-rule:nonzero;stroke:none"
               id="path1820"
               inkscape:connector-curvature="0" />
            <text
               transform="matrix(1,0,0,-1,91.4639,510.1206)"
               style="font-variant:normal;font-weight:normal;font-size:9px;font-family:Symbol;-inkscape-font-specification:Symbol;writing-mode:lr-tb;fill:#231f20;fill-opacity:1;fill-rule:nonzero;stroke:none"
               id="text1822">
              <tspan
                 x="0"
                 y="0"
                 id="tspan1824">−</tspan>
            </text>
            <text
               transform="matrix(1,0,0,-1,96.4049,510.1206)"
               style="font-variant:normal;font-weight:normal;font-size:9px;font-family:Times;-inkscape-font-specification:Times-Roman;writing-mode:lr-tb;fill:#231f20;fill-opacity:1;fill-rule:nonzero;stroke:none"
               id="text1826">
              <tspan
                 x="0"
                 y="0"
                 id="tspan1828">5</tspan>
            </text>
            <text
               transform="matrix(1,0,0,-1,188.0204,516.9858)"
               style="font-style:italic;font-variant:normal;font-size:9px;font-family:Times;-inkscape-font-specification:Times-Italic;writing-mode:lr-tb;fill:#231f20;fill-opacity:1;fill-rule:nonzero;stroke:none"
               id="text1830">
              <tspan
                 x="0"
                 y="0"
                 id="tspan1832">x</tspan>
            </text>
            <path
               d="m 182.893,519.444 -87,0"
               style="fill:none;stroke:#000000;stroke-width:0.69999999;stroke-linecap:butt;stroke-linejoin:miter;stroke-miterlimit:4;stroke-dasharray:none;stroke-opacity:1"
               id="path1834"
               inkscape:connector-curvature="0" />
            <path
               d="m 185.858,519.444 -4.178,-1.707 0.991,1.707 -0.991,1.707 4.178,-1.707"
               style="fill:#000000;fill-opacity:1;fill-rule:nonzero;stroke:none"
               id="path1836"
               inkscape:connector-curvature="0" />
            <path
               d="m 122.145,523.424 27.951,0 0,56.5 -27.951,0 0,-56.5 z"
               style="fill:none;stroke:#000000;stroke-width:0.69999999;stroke-linecap:butt;stroke-linejoin:miter;stroke-miterlimit:4;stroke-dasharray:4, 2;stroke-dashoffset:0;stroke-opacity:1"
               id="path1838"
               inkscape:connector-curvature="0" />
            <path
               d="m 173.977,508.577 4.875,0 0,9.083 -4.875,0 0,-9.083 z"
               style="fill:#ffffff;fill-opacity:1;fill-rule:nonzero;stroke:none"
               id="path1840"
               inkscape:connector-curvature="0" />
            <text
               transform="matrix(1,0,0,-1,174.1647,510.1279)"
               style="font-variant:normal;font-weight:normal;font-size:9px;font-family:Times;-inkscape-font-specification:Times-Roman;writing-mode:lr-tb;fill:#231f20;fill-opacity:1;fill-rule:nonzero;stroke:none"
               id="text1842">
              <tspan
                 x="0"
                 y="0"
                 id="tspan1844">5</tspan>
            </text>
            <path
               d="m 160.255,600.014 -48.043,-96.62"
               style="fill:none;stroke:#000000;stroke-width:0.69999999;stroke-linecap:butt;stroke-linejoin:miter;stroke-miterlimit:4;stroke-dasharray:4, 2;stroke-dashoffset:0;stroke-opacity:1"
               id="path1846"
               inkscape:connector-curvature="0" />
            <path
               d="m 156.005,517.053 c -3.646,9.354 -6,25.085 -5.896,34.669 0.104,9.583 2.25,25.314 5.896,34.669"
               style="fill:none;stroke:#ba0069;stroke-width:1.20000005;stroke-linecap:butt;stroke-linejoin:miter;stroke-miterlimit:4;stroke-dasharray:none;stroke-opacity:1"
               id="path1848"
               inkscape:connector-curvature="0" />
            <path
               d="m 157.542,590.343 0.104,-6.448 -1.758,2.205 -2.786,-0.434 4.44,4.677"
               style="fill:#ba0069;fill-opacity:1;fill-rule:nonzero;stroke:none"
               id="path1850"
               inkscape:connector-curvature="0" />
            <path
               d="m 157.548,513.107 -4.44,4.677 2.787,-0.434 1.757,2.205 -0.104,-6.448"
               style="fill:#ba0069;fill-opacity:1;fill-rule:nonzero;stroke:none"
               id="path1852"
               inkscape:connector-curvature="0" />
            <path
               d="m 116.234,517.053 c 3.646,9.354 6,25.085 5.896,34.669 -0.105,9.583 -2.25,25.314 -5.896,34.669"
               style="fill:none;stroke:#ba0069;stroke-width:1.20000005;stroke-linecap:butt;stroke-linejoin:miter;stroke-miterlimit:4;stroke-dasharray:none;stroke-opacity:1"
               id="path1854"
               inkscape:connector-curvature="0" />
            <path
               d="m 114.697,590.343 -0.104,-6.448 1.758,2.205 2.786,-0.434 -4.44,4.677"
               style="fill:#ba0069;fill-opacity:1;fill-rule:nonzero;stroke:none"
               id="path1856"
               inkscape:connector-curvature="0" />
            <path
               d="m 114.691,513.107 4.44,4.677 -2.786,-0.434 -1.758,2.205 0.104,-6.448"
               style="fill:#ba0069;fill-opacity:1;fill-rule:nonzero;stroke:none"
               id="path1858"
               inkscape:connector-curvature="0" />
            <path
               d="m 90.66,541.444 22.5,0 0,10.084 -22.5,0 0,-10.084 z"
               style="fill:#ffffff;fill-opacity:1;fill-rule:nonzero;stroke:none"
               id="path1860"
               inkscape:connector-curvature="0" />
            <text
               transform="matrix(1,0,0,-1,92.1634,544.0977)"
               style="font-variant:normal;font-weight:normal;font-size:9px;font-family:Times;-inkscape-font-specification:Times-Roman;writing-mode:lr-tb;fill:#231f20;fill-opacity:1;fill-rule:nonzero;stroke:none"
               id="text1862">
              <tspan
                 x="0 2.997 7.4970002 9.7469997 11.997 16.497"
                 y="0"
                 sodipodi:role="line"
                 id="tspan1864">(0, 4)</tspan>
            </text>
            <path
               d="m 113.671,546.451 c 6,0.083 14.25,0.333 19.417,3.417"
               style="fill:none;stroke:#000000;stroke-width:0.69999999;stroke-linecap:butt;stroke-linejoin:miter;stroke-miterlimit:4;stroke-dasharray:none;stroke-opacity:1"
               id="path1866"
               inkscape:connector-curvature="0" />
            <path
               d="m 135.636,551.385 -2.714,-3.608 -0.023,1.974 -1.726,0.958 4.463,0.676"
               style="fill:#000000;fill-opacity:1;fill-rule:nonzero;stroke:none"
               id="path1868"
               inkscape:connector-curvature="0" />
          </g>
        </g>
      </g>
    </g>
  </g>
</svg>
