<?xml version="1.0" encoding="UTF-8" standalone="no"?>
<!-- Created with Inkscape (http://www.inkscape.org/) -->

<svg
   xmlns:dc="http://purl.org/dc/elements/1.1/"
   xmlns:cc="http://creativecommons.org/ns#"
   xmlns:rdf="http://www.w3.org/1999/02/22-rdf-syntax-ns#"
   xmlns:svg="http://www.w3.org/2000/svg"
   xmlns="http://www.w3.org/2000/svg"
   xmlns:sodipodi="http://sodipodi.sourceforge.net/DTD/sodipodi-0.dtd"
   xmlns:inkscape="http://www.inkscape.org/namespaces/inkscape"
   width="127.762mm"
   height="25.853107mm"
   viewBox="0 0 452.7 91.605498"
   id="svg3934"
   version="1.1"
   inkscape:version="0.91 r13725"
   sodipodi:docname="fig-hw-5-5-1.svg">
  <defs
     id="defs3936">
    <clipPath
       clipPathUnits="userSpaceOnUse"
       id="clipPath3702">
      <path
         d="m 94.5,418.41 178,0 0,-73 -178,0 0,73 z"
         id="path3704"
         inkscape:connector-curvature="0"
         style="clip-rule:evenodd" />
    </clipPath>
    <clipPath
       clipPathUnits="userSpaceOnUse"
       id="clipPath3708">
      <path
         d="m 28,776 640,0 0,-748 -640,0 0,748 z"
         id="path3710"
         inkscape:connector-curvature="0" />
    </clipPath>
    <clipPath
       clipPathUnits="userSpaceOnUse"
       id="clipPath3714">
      <path
         d="m 0,804.03 696,0 0,-804 -696,0 0,804 z"
         id="path3716"
         inkscape:connector-curvature="0" />
    </clipPath>
    <clipPath
       clipPathUnits="userSpaceOnUse"
       id="clipPath3654">
      <path
         d="m 281,417.43 177,0 0,-73 -177,0 0,73 z"
         id="path3656"
         inkscape:connector-curvature="0"
         style="clip-rule:evenodd" />
    </clipPath>
    <clipPath
       clipPathUnits="userSpaceOnUse"
       id="clipPath3660">
      <path
         d="m 28,776 640,0 0,-748 -640,0 0,748 z"
         id="path3662"
         inkscape:connector-curvature="0" />
    </clipPath>
    <clipPath
       clipPathUnits="userSpaceOnUse"
       id="clipPath3666">
      <path
         d="m 0,804.03 696,0 0,-804 -696,0 0,804 z"
         id="path3668"
         inkscape:connector-curvature="0" />
    </clipPath>
  </defs>
  <sodipodi:namedview
     id="base"
     pagecolor="#ffffff"
     bordercolor="#666666"
     borderopacity="1.0"
     inkscape:pageopacity="0.0"
     inkscape:pageshadow="2"
     inkscape:zoom="1.5066406"
     inkscape:cx="192.55583"
     inkscape:cy="-1.0211934"
     inkscape:document-units="px"
     inkscape:current-layer="layer1"
     showgrid="false"
     fit-margin-top="0"
     fit-margin-left="0"
     fit-margin-right="0"
     fit-margin-bottom="0"
     inkscape:window-width="1366"
     inkscape:window-height="715"
     inkscape:window-x="0"
     inkscape:window-y="0"
     inkscape:window-maximized="1" />
  <metadata
     id="metadata3939">
    <rdf:RDF>
      <cc:Work
         rdf:about="">
        <dc:format>image/svg+xml</dc:format>
        <dc:type
           rdf:resource="http://purl.org/dc/dcmitype/StillImage" />
        <dc:title></dc:title>
      </cc:Work>
    </rdf:RDF>
  </metadata>
  <g
     inkscape:label="Layer 1"
     inkscape:groupmode="layer"
     id="layer1"
     transform="translate(-420.12135,-599.0303)">
    <g
       transform="matrix(1.25,0,0,-1.25,301.0776,1121.8303)"
       id="g3650">
      <g
         id="g3652"
         clip-path="url(#clipPath3654)">
        <g
           id="g3658"
           clip-path="url(#clipPath3660)">
          <g
             id="g3664"
             clip-path="url(#clipPath3666)">
            <text
               transform="matrix(1,0,0,-1,318.2766,346.4676)"
               style="font-variant:normal;font-weight:bold;font-size:9px;font-family:Times;-inkscape-font-specification:Times-Bold;writing-mode:lr-tb;fill:#231f20;fill-opacity:1;fill-rule:nonzero;stroke:none"
               id="text3670">
              <tspan
                 x="0 2.997 6.993 91.907997 94.904999 99.908997"
                 y="0"
                 sodipodi:role="line"
                 id="tspan3672">(c)(d)</tspan>
            </text>
            <path
               d="m 281.891,416.93 82.761,0 0,-56.196 -82.761,0 0,56.196 z"
               style="fill:#e6f7fd;fill-opacity:1;fill-rule:nonzero;stroke:none"
               id="path3674"
               inkscape:connector-curvature="0" />
            <path
               d="m 281.891,360.735 82.761,0 0,56.196 -82.761,0 0,-56.196 z"
               style="fill:none;stroke:#231f20;stroke-width:0.66000003;stroke-linecap:butt;stroke-linejoin:miter;stroke-miterlimit:4;stroke-dasharray:none;stroke-opacity:1"
               id="path3676"
               inkscape:connector-curvature="0" />
            <path
               d="m 283.762,415.046 0,-52.427 m 79.006,-0.105 -78.994,0"
               style="fill:none;stroke:#231f20;stroke-width:0.66000003;stroke-linecap:square;stroke-linejoin:miter;stroke-miterlimit:4;stroke-dasharray:none;stroke-opacity:1"
               id="path3678"
               inkscape:connector-curvature="0" />
            <path
               d="m 285.841,415.066 -2.02,0 m 0,-11.482 c 10.689,-0.021 18.774,-28.126 22.275,-40.98"
               style="fill:none;stroke:#231f20;stroke-width:0.66000003;stroke-linecap:butt;stroke-linejoin:miter;stroke-miterlimit:4;stroke-dasharray:none;stroke-opacity:1"
               id="path3680"
               inkscape:connector-curvature="0" />
            <path
               d="m 285.841,362.56 -2.02,0 m -0.041,-0.046 0,2.02"
               style="fill:none;stroke:#231f20;stroke-width:0.66000003;stroke-linecap:square;stroke-linejoin:miter;stroke-miterlimit:4;stroke-dasharray:none;stroke-opacity:1"
               id="path3682"
               inkscape:connector-curvature="0" />
            <path
               d="m 291.68,362.514 0,2.02 m 7.898,-2.02 0,2.02 m 7.9,-2.02 0,2.02 m 7.9,-2.02 0,2.02 m 7.897,-2.02 0,2.02 m 7.901,-2.02 0,2.02 m 7.898,-2.02 0,2.02 m 7.9,-2.02 0,2.02 m 7.898,-2.02 0,2.02 m 7.9,-2.02 0,2.02"
               style="fill:none;stroke:#231f20;stroke-width:0.66000003;stroke-linecap:butt;stroke-linejoin:miter;stroke-miterlimit:4;stroke-dasharray:none;stroke-opacity:1"
               id="path3684"
               inkscape:connector-curvature="0" />
            <path
               d="m 374.304,416.93 82.761,0 0,-56.196 -82.761,0 0,56.196 z"
               style="fill:#e6f7fd;fill-opacity:1;fill-rule:nonzero;stroke:none"
               id="path3686"
               inkscape:connector-curvature="0" />
            <path
               d="m 374.304,360.735 82.761,0 0,56.196 -82.761,0 0,-56.196 z"
               style="fill:none;stroke:#231f20;stroke-width:0.66000003;stroke-linecap:butt;stroke-linejoin:miter;stroke-miterlimit:4;stroke-dasharray:none;stroke-opacity:1"
               id="path3688"
               inkscape:connector-curvature="0" />
            <path
               d="m 376.177,415.046 0,-52.427 m 79.004,-0.105 -78.993,0"
               style="fill:none;stroke:#231f20;stroke-width:0.66000003;stroke-linecap:square;stroke-linejoin:miter;stroke-miterlimit:4;stroke-dasharray:none;stroke-opacity:1"
               id="path3690"
               inkscape:connector-curvature="0" />
            <path
               d="m 378.256,415.066 -2.022,0"
               style="fill:none;stroke:#231f20;stroke-width:0.66000003;stroke-linecap:butt;stroke-linejoin:miter;stroke-miterlimit:4;stroke-dasharray:none;stroke-opacity:1"
               id="path3692"
               inkscape:connector-curvature="0" />
            <path
               d="m 378.256,362.56 -2.022,0 m -0.041,-0.046 0,2.02"
               style="fill:none;stroke:#231f20;stroke-width:0.66000003;stroke-linecap:square;stroke-linejoin:miter;stroke-miterlimit:4;stroke-dasharray:none;stroke-opacity:1"
               id="path3694"
               inkscape:connector-curvature="0" />
            <path
               d="m 384.093,362.514 0,2.02 m 7.899,-2.02 0,2.02 m 7.899,-2.02 0,2.02 m 7.901,-2.02 0,2.02 m 7.897,-2.02 0,2.02 m 7.901,-2.02 0,2.02 m 7.897,-2.02 0,2.02 m 7.902,-2.02 0,2.02 m 7.898,-2.02 0,2.02 m 7.899,-2.02 0,2.02 m 0.321,47.646 c -76.261,-0.057 -38.123,-36.33 -79.273,-44.276"
               style="fill:none;stroke:#231f20;stroke-width:0.66000003;stroke-linecap:butt;stroke-linejoin:miter;stroke-miterlimit:4;stroke-dasharray:none;stroke-opacity:1"
               id="path3696"
               inkscape:connector-curvature="0" />
          </g>
        </g>
      </g>
    </g>
    <g
       transform="matrix(1.25,0,0,-1.25,301.0776,1121.8303)"
       id="g3698">
      <g
         id="g3700"
         clip-path="url(#clipPath3702)">
        <g
           id="g3706"
           clip-path="url(#clipPath3708)">
          <g
             id="g3712"
             clip-path="url(#clipPath3714)">
            <path
               d="m 95.565,417.91 82.76,0 0,-56.194 -82.76,0 0,56.194 z"
               style="fill:#e6f7fd;fill-opacity:1;fill-rule:nonzero;stroke:none"
               id="path3718"
               inkscape:connector-curvature="0" />
            <path
               d="m 95.565,361.716 82.76,0 0,56.194 -82.76,0 0,-56.194 z"
               style="fill:none;stroke:#231f20;stroke-width:0.66000003;stroke-linecap:butt;stroke-linejoin:miter;stroke-miterlimit:4;stroke-dasharray:none;stroke-opacity:1"
               id="path3720"
               inkscape:connector-curvature="0" />
            <path
               d="m 97.436,416.026 0,-52.426 m 79.005,-0.106 -78.992,0"
               style="fill:none;stroke:#231f20;stroke-width:0.66000003;stroke-linecap:square;stroke-linejoin:miter;stroke-miterlimit:4;stroke-dasharray:none;stroke-opacity:1"
               id="path3722"
               inkscape:connector-curvature="0" />
            <path
               d="m 99.516,416.046 -2.021,0 m 44.414,1.825 -44.414,-44.277"
               style="fill:none;stroke:#231f20;stroke-width:0.66000003;stroke-linecap:butt;stroke-linejoin:miter;stroke-miterlimit:4;stroke-dasharray:none;stroke-opacity:1"
               id="path3724"
               inkscape:connector-curvature="0" />
            <path
               d="m 99.516,363.54 -2.021,0 m -0.041,-0.046 0,2.021"
               style="fill:none;stroke:#231f20;stroke-width:0.66000003;stroke-linecap:square;stroke-linejoin:miter;stroke-miterlimit:4;stroke-dasharray:none;stroke-opacity:1"
               id="path3726"
               inkscape:connector-curvature="0" />
            <path
               d="m 105.353,363.494 0,2.021 m 7.9,-2.021 0,2.021 m 7.899,-2.021 0,2.021 m 7.9,-2.021 0,2.021 m 7.898,-2.021 0,2.021 m 7.9,-2.021 0,2.021 m 7.898,-2.021 0,2.021 m 7.9,-2.021 0,2.021 m 7.899,-2.021 0,2.021 m 7.899,-2.021 0,2.021"
               style="fill:none;stroke:#231f20;stroke-width:0.66000003;stroke-linecap:butt;stroke-linejoin:miter;stroke-miterlimit:4;stroke-dasharray:none;stroke-opacity:1"
               id="path3728"
               inkscape:connector-curvature="0" />
            <text
               transform="matrix(1,0,0,-1,131.6984,347.4476)"
               style="font-variant:normal;font-weight:bold;font-size:9px;font-family:Times;-inkscape-font-specification:Times-Bold;writing-mode:lr-tb;fill:#231f20;fill-opacity:1;fill-rule:nonzero;stroke:none"
               id="text3730">
              <tspan
                 x="0 2.997 7.4970002 92.160004 95.156998 100.161"
                 y="0"
                 sodipodi:role="line"
                 id="tspan3732">(a)(b)</tspan>
            </text>
            <path
               d="m 187.978,417.91 82.761,0 0,-56.194 -82.761,0 0,56.194 z"
               style="fill:#e6f7fd;fill-opacity:1;fill-rule:nonzero;stroke:none"
               id="path3734"
               inkscape:connector-curvature="0" />
            <path
               d="m 187.978,361.716 82.761,0 0,56.194 -82.761,0 0,-56.194 z"
               style="fill:none;stroke:#231f20;stroke-width:0.66000003;stroke-linecap:butt;stroke-linejoin:miter;stroke-miterlimit:4;stroke-dasharray:none;stroke-opacity:1"
               id="path3736"
               inkscape:connector-curvature="0" />
            <path
               d="m 189.851,416.026 0,-52.426 m 79.003,-0.106 -78.993,0"
               style="fill:none;stroke:#231f20;stroke-width:0.66000003;stroke-linecap:square;stroke-linejoin:miter;stroke-miterlimit:4;stroke-dasharray:none;stroke-opacity:1"
               id="path3738"
               inkscape:connector-curvature="0" />
            <path
               d="m 191.93,416.046 -2.022,0"
               style="fill:none;stroke:#231f20;stroke-width:0.66000003;stroke-linecap:butt;stroke-linejoin:miter;stroke-miterlimit:4;stroke-dasharray:none;stroke-opacity:1"
               id="path3740"
               inkscape:connector-curvature="0" />
            <path
               d="m 191.93,363.54 -2.022,0 m -0.041,-0.046 0,2.021"
               style="fill:none;stroke:#231f20;stroke-width:0.66000003;stroke-linecap:square;stroke-linejoin:miter;stroke-miterlimit:4;stroke-dasharray:none;stroke-opacity:1"
               id="path3742"
               inkscape:connector-curvature="0" />
            <path
               d="m 197.766,363.494 0,2.021 m 7.899,-2.021 0,2.021 m 7.899,-2.021 0,2.021 m 7.901,-2.021 0,2.021 m 7.897,-2.021 0,2.021 m 7.902,-2.021 0,2.021 m 7.896,-2.021 0,2.021 m 7.901,-2.021 0,2.021 m 7.9,-2.021 0,2.021 m 7.898,-2.021 0,2.021 m -43.486,52.356 c -2.307,-11.834 -17.986,-54.111 -35.465,-54.169"
               style="fill:none;stroke:#231f20;stroke-width:0.66000003;stroke-linecap:butt;stroke-linejoin:miter;stroke-miterlimit:4;stroke-dasharray:none;stroke-opacity:1"
               id="path3744"
               inkscape:connector-curvature="0" />
          </g>
        </g>
      </g>
    </g>
  </g>
</svg>
