<?xml version="1.0" encoding="UTF-8" standalone="no"?>
<!-- Created with Inkscape (http://www.inkscape.org/) -->

<svg
   xmlns:dc="http://purl.org/dc/elements/1.1/"
   xmlns:cc="http://creativecommons.org/ns#"
   xmlns:rdf="http://www.w3.org/1999/02/22-rdf-syntax-ns#"
   xmlns:svg="http://www.w3.org/2000/svg"
   xmlns="http://www.w3.org/2000/svg"
   xmlns:sodipodi="http://sodipodi.sourceforge.net/DTD/sodipodi-0.dtd"
   xmlns:inkscape="http://www.inkscape.org/namespaces/inkscape"
   width="44.518684mm"
   height="44.843628mm"
   viewBox="0 0 157.74337 158.89474"
   id="svg7225"
   version="1.1"
   inkscape:version="0.91 r13725"
   sodipodi:docname="fig-hw-parabola-right.svg">
  <defs
     id="defs7227">
    <clipPath
       clipPathUnits="userSpaceOnUse"
       id="clipPath6766">
      <path
         d="m 109.04,516.33 148.67,0 0,-131.9 -148.67,0 0,131.9 z"
         id="path6768"
         inkscape:connector-curvature="0"
         style="clip-rule:evenodd" />
    </clipPath>
    <clipPath
       clipPathUnits="userSpaceOnUse"
       id="clipPath6772">
      <path
         d="m 17,757 578,0 0,-722 -578,0 0,722 z"
         id="path6774"
         inkscape:connector-curvature="0" />
    </clipPath>
    <clipPath
       clipPathUnits="userSpaceOnUse"
       id="clipPath6778">
      <path
         d="m 0,792.06 612,0 0,-792 -612,0 0,792 z"
         id="path6780"
         inkscape:connector-curvature="0" />
    </clipPath>
  </defs>
  <sodipodi:namedview
     id="base"
     pagecolor="#ffffff"
     bordercolor="#666666"
     borderopacity="1.0"
     inkscape:pageopacity="0.0"
     inkscape:pageshadow="2"
     inkscape:zoom="0.75332031"
     inkscape:cx="86.9041"
     inkscape:cy="94.232995"
     inkscape:document-units="px"
     inkscape:current-layer="layer1"
     showgrid="false"
     fit-margin-top="0"
     fit-margin-left="0"
     fit-margin-right="0"
     fit-margin-bottom="0"
     inkscape:window-width="1366"
     inkscape:window-height="715"
     inkscape:window-x="0"
     inkscape:window-y="0"
     inkscape:window-maximized="1" />
  <metadata
     id="metadata7230">
    <rdf:RDF>
      <cc:Work
         rdf:about="">
        <dc:format>image/svg+xml</dc:format>
        <dc:type
           rdf:resource="http://purl.org/dc/dcmitype/StillImage" />
        <dc:title></dc:title>
      </cc:Work>
    </rdf:RDF>
  </metadata>
  <g
     inkscape:label="Layer 1"
     inkscape:groupmode="layer"
     id="layer1"
     transform="translate(-288.0959,-467.70045)">
    <g
       transform="matrix(1.25,0,0,-1.25,149.08965,1111.0352)"
       id="g6762">
      <g
         id="g6764"
         clip-path="url(#clipPath6766)">
        <g
           id="g6770"
           clip-path="url(#clipPath6772)">
          <g
             id="g6776"
             clip-path="url(#clipPath6778)">
            <path
               d="m 111.43,387.777 111.784,0 0,111.469 -111.784,0 0,-111.469 z m 11.183,111.468 0,-111.468 m 11.18,111.468 0,-111.468 m 11.179,111.468 0,-111.468 m 11.181,111.468 0,-111.468 m 11.178,111.468 0,-111.468 m 11.179,111.468 0,-111.468 m 11.181,111.468 0,-111.468 m 11.178,111.468 0,-111.468 m 11.181,111.468 0,-111.468 m -100.62,100.308 111.784,0 m -111.784,-11.152 111.784,0 m -111.784,-11.149 111.784,0 m -111.784,-11.152 111.784,0 m -111.784,-11.149 111.784,0 m -111.784,-11.149 111.784,0 m -111.784,-11.152 111.784,0 m -111.784,-11.149 111.784,0 m -111.784,-11.151 111.784,0"
               style="fill:none;stroke:#3a6abc;stroke-width:0.44999999;stroke-linecap:butt;stroke-linejoin:miter;stroke-miterlimit:4;stroke-dasharray:none;stroke-opacity:1"
               id="path6782"
               inkscape:connector-curvature="0" />
            <text
               transform="matrix(1,0,0,-1,132.1167,511.0957)"
               style="font-style:italic;font-variant:normal;font-size:8.10000038px;font-family:Times;-inkscape-font-specification:Times-Italic;writing-mode:lr-tb;fill:#231f20;fill-opacity:1;fill-rule:nonzero;stroke:none"
               id="text6784">
              <tspan
                 x="0"
                 y="0"
                 id="tspan6786">y</tspan>
            </text>
            <path
               d="m 133.772,387.777 0,116.868"
               style="fill:none;stroke:#000000;stroke-width:0.63;stroke-linecap:butt;stroke-linejoin:miter;stroke-miterlimit:4;stroke-dasharray:none;stroke-opacity:1"
               id="path6788"
               inkscape:connector-curvature="0" />
            <path
               d="m 133.765,507.315 1.536,-3.762 -1.536,0.893 -1.537,-0.893 1.537,3.762"
               style="fill:#000000;fill-opacity:1;fill-rule:nonzero;stroke:none"
               id="path6790"
               inkscape:connector-curvature="0" />
            <path
               d="m 125.674,472.89 6.188,0 0,8.175 -6.188,0 0,-8.175 z"
               style="fill:#ffffff;fill-opacity:1;fill-rule:nonzero;stroke:none"
               id="path6792"
               inkscape:connector-curvature="0" />
            <path
               d="m 120.949,406.027 10.913,0 0,8.175 -10.913,0 0,-8.175 z"
               style="fill:#ffffff;fill-opacity:1;fill-rule:nonzero;stroke:none"
               id="path6794"
               inkscape:connector-curvature="0" />
            <text
               transform="matrix(1,0,0,-1,126.9319,474.5108)"
               style="font-variant:normal;font-weight:normal;font-size:8.10000038px;font-family:Times;-inkscape-font-specification:Times-Roman;writing-mode:lr-tb;fill:#231f20;fill-opacity:1;fill-rule:nonzero;stroke:none"
               id="text6796">
              <tspan
                 x="0"
                 y="0"
                 id="tspan6798">3</tspan>
            </text>
            <text
               transform="matrix(1,0,0,-1,122.485,407.40473)"
               style="font-variant:normal;font-weight:normal;font-size:8.10000038px;font-family:Symbol;-inkscape-font-specification:Symbol;writing-mode:lr-tb;fill:#231f20;fill-opacity:1;fill-rule:nonzero;stroke:none"
               id="text6800">
              <tspan
                 x="0"
                 y="0"
                 id="tspan6802">−</tspan>
            </text>
            <text
               transform="matrix(1,0,0,-1,126.9319,407.40473)"
               style="font-variant:normal;font-weight:normal;font-size:8.10000038px;font-family:Times;-inkscape-font-specification:Times-Roman;writing-mode:lr-tb;fill:#231f20;fill-opacity:1;fill-rule:nonzero;stroke:none"
               id="text6804">
              <tspan
                 x="0"
                 y="0"
                 id="tspan6806">3</tspan>
            </text>
            <text
               transform="matrix(1,0,0,-1,233.779,441.28946)"
               style="font-style:italic;font-variant:normal;font-size:8.10000038px;font-family:Times;-inkscape-font-specification:Times-Italic;writing-mode:lr-tb;fill:#231f20;fill-opacity:1;fill-rule:nonzero;stroke:none"
               id="text6808">
              <tspan
                 x="0"
                 y="0"
                 id="tspan6810">x</tspan>
            </text>
            <path
               d="m 229.165,443.502 -117.731,0"
               style="fill:none;stroke:#000000;stroke-width:0.63;stroke-linecap:butt;stroke-linejoin:miter;stroke-miterlimit:4;stroke-dasharray:none;stroke-opacity:1"
               id="path6812"
               inkscape:connector-curvature="0" />
            <path
               d="m 231.834,443.502 -3.761,-1.537 0.892,1.537 -0.892,1.536 3.761,-1.536"
               style="fill:#000000;fill-opacity:1;fill-rule:nonzero;stroke:none"
               id="path6814"
               inkscape:connector-curvature="0" />
            <path
               d="m 165.04,434.546 4.387,0 0,8.175 -4.387,0 0,-8.175 z"
               style="fill:#ffffff;fill-opacity:1;fill-rule:nonzero;stroke:none"
               id="path6816"
               inkscape:connector-curvature="0" />
            <text
               transform="matrix(1,0,0,-1,165.2092,435.9422)"
               style="font-variant:normal;font-weight:normal;font-size:8.10000038px;font-family:Times;-inkscape-font-specification:Times-Roman;writing-mode:lr-tb;fill:#231f20;fill-opacity:1;fill-rule:nonzero;stroke:none"
               id="text6818">
              <tspan
                 x="0"
                 y="0"
                 id="tspan6820">3</tspan>
            </text>
            <path
               d="m 219.095,410.871 c -22.414,3.835 -85.266,17.044 -85.266,32.596 0,15.553 62.852,28.762 85.266,32.596"
               style="fill:none;stroke:#ba0069;stroke-width:1.08000004;stroke-linecap:butt;stroke-linejoin:miter;stroke-miterlimit:4;stroke-dasharray:none;stroke-opacity:1"
               id="path6822"
               inkscape:connector-curvature="0" />
            <path
               d="m 222.857,476.708 -4.927,-3.069 0.887,2.378 -1.627,1.949 5.667,-1.258"
               style="fill:#ba0069;fill-opacity:1;fill-rule:nonzero;stroke:none"
               id="path6824"
               inkscape:connector-curvature="0" />
            <path
               d="m 222.853,410.231 -5.666,-1.257 1.627,1.949 -0.887,2.378 4.926,-3.07"
               style="fill:#ba0069;fill-opacity:1;fill-rule:nonzero;stroke:none"
               id="path6826"
               inkscape:connector-curvature="0" />
          </g>
        </g>
      </g>
    </g>
  </g>
</svg>
