<?xml version="1.0" encoding="UTF-8" standalone="no"?>
<!-- Created with Inkscape (http://www.inkscape.org/) -->

<svg
   xmlns:dc="http://purl.org/dc/elements/1.1/"
   xmlns:cc="http://creativecommons.org/ns#"
   xmlns:rdf="http://www.w3.org/1999/02/22-rdf-syntax-ns#"
   xmlns:svg="http://www.w3.org/2000/svg"
   xmlns="http://www.w3.org/2000/svg"
   xmlns:sodipodi="http://sodipodi.sourceforge.net/DTD/sodipodi-0.dtd"
   xmlns:inkscape="http://www.inkscape.org/namespaces/inkscape"
   width="54.921471mm"
   height="76.620689mm"
   viewBox="0 0 194.60364 271.49063"
   id="svg3753"
   version="1.1"
   inkscape:version="0.91 r13725"
   sodipodi:docname="act-6-2-1-2.svg">
  <defs
     id="defs3755" />
  <sodipodi:namedview
     id="base"
     pagecolor="#ffffff"
     bordercolor="#666666"
     borderopacity="1.0"
     inkscape:pageopacity="0.0"
     inkscape:pageshadow="2"
     inkscape:zoom="1.4"
     inkscape:cx="17.976212"
     inkscape:cy="162.31635"
     inkscape:document-units="px"
     inkscape:current-layer="layer1"
     showgrid="false"
     fit-margin-top="0"
     fit-margin-left="0"
     fit-margin-right="0"
     fit-margin-bottom="0"
     inkscape:window-width="1366"
     inkscape:window-height="715"
     inkscape:window-x="0"
     inkscape:window-y="0"
     inkscape:window-maximized="1" />
  <metadata
     id="metadata3758">
    <rdf:RDF>
      <cc:Work
         rdf:about="">
        <dc:format>image/svg+xml</dc:format>
        <dc:type
           rdf:resource="http://purl.org/dc/dcmitype/StillImage" />
        <dc:title></dc:title>
      </cc:Work>
    </rdf:RDF>
  </metadata>
  <g
     inkscape:label="Layer 1"
     inkscape:groupmode="layer"
     id="layer1"
     transform="translate(-174.12676,-328.04547)">
    <g
       id="g3797">
      <path
         inkscape:connector-curvature="0"
         id="path3697"
         style="fill:none;stroke:#aedaf6;stroke-width:0.5625;stroke-linecap:butt;stroke-linejoin:miter;stroke-miterlimit:4;stroke-dasharray:none;stroke-opacity:1"
         d="m 208.88038,587.57621 0,-242.9925 m 10.125,242.9925 0,-242.9925 m 10.125,242.9925 0,-242.9925 m 10.125,242.9925 0,-242.9925 m 20.2475,242.9925 0,-242.9925 m 10.125,242.9925 0,-242.9925 m 10.125,242.9925 0,-242.9925 m 10.125,242.9925 0,-242.9925 m 20.25,242.9925 0,-242.9925 m 10.125,242.9925 0,-242.9925 m 10.125,242.9925 0,-242.9925 m 10.125,242.9925 0,-242.9925 m 10.07875,232.87625 -151.82625,0 m 151.82625,-10.125 -151.82625,0 m 151.82625,-10.125 -151.82625,0 m 151.82625,-20.25 -151.82625,0 m 151.82625,-10.12375 -151.82625,0 m 151.82625,-10.125 -151.82625,0 m 151.82625,-20.25 -151.82625,0 m 151.82625,-10.125 -151.82625,0 m 151.82625,-10.125 -151.82625,0 m 151.82625,-20.25 -151.82625,0 m 151.82625,-10.125 -151.82625,0 m 151.82625,-10.125 -151.82625,0 m 151.82625,-20.25 -151.82625,0 m 151.82625,-10.125 -151.82625,0 m 151.82625,-10.125 -151.82625,0 m 151.82625,-20.25 -151.82625,0 m 151.82625,-10.125 -151.82625,0 m 151.82625,-10.125 -151.82625,0" />
      <g
         style="font-style:italic;font-variant:normal;font-weight:bold;font-size:11.25px;font-family:Times;-inkscape-font-specification:Times-BoldItalic;writing-mode:lr-tb;fill:#000000;fill-opacity:1;fill-rule:nonzero;stroke:none"
         id="text3699">
        <path
           d="m 188.98238,328.32672 c 0.1575,0.0225 0.30375,0.045 0.36,0.0562 0.34875,0.045 0.46125,0.135 0.46125,0.36 0,0.135 -0.0563,0.495 -0.1125,0.68625 l -1.38375,5.05125 c -0.18,0.585 -0.34875,0.7425 -0.9,0.81 l 0,0.28125 3.33,0 0,-0.28125 c -0.6525,-0.045 -0.81,-0.135 -0.81,-0.4725 0,-0.1575 0.0563,-0.45 0.1575,-0.79875 l 0.61875,-2.17125 0.32625,0 1.20375,3.72375 2.2725,0 0,-0.28125 c -0.63,-0.0563 -0.7425,-0.14625 -0.99,-0.81 l -0.93375,-2.7675 c 0.61875,-0.12375 0.9,-0.23625 1.26,-0.4725 0.57375,-0.3825 0.9,-0.95625 0.9,-1.58625 0,-1.08 -0.8775,-1.60875 -2.655,-1.60875 l -3.105,0 0,0.28125 z m 2.4975,0.57375 c 0.10125,-0.405 0.2025,-0.495 0.55125,-0.495 0.64125,0 1.0125,0.39375 1.0125,1.06875 0,0.7425 -0.32625,1.42875 -0.81,1.7325 -0.2925,0.19125 -0.73125,0.27 -1.42875,0.28125 l 0.675,-2.5875 z"
           style=""
           id="path3816" />
        <path
           d="m 363.97164,585.77281 c 0.50625,0.0225 0.6075,0.0675 0.6075,0.28125 0,0.10125 -0.10125,0.55125 -0.2475,1.1025 l -1.125,4.365 c -0.18,0.68625 -0.315,0.8325 -0.77625,0.8325 l -0.0675,0 0,0.30375 2.80125,0 0,-0.30375 c -0.55125,-0.0113 -0.73125,-0.10125 -0.73125,-0.37125 0,-0.135 0.09,-0.50625 0.2925,-1.27125 l 0.09,-0.315 0.0337,-0.14625 c 0.39375,0.2025 0.52875,0.2475 0.765,0.2475 1.51875,0 3.11625,-2.03625 3.11625,-3.9825 0,-0.8325 -0.4725,-1.36125 -1.215,-1.36125 -0.64125,0 -1.13625,0.36 -1.8,1.29375 l 0.4275,-1.29375 c -1.1475,0.18 -1.58625,0.2475 -2.17125,0.315 l 0,0.30375 z m 2.91375,0.18 c 0.2925,0.0225 0.46125,0.28125 0.43875,0.64125 -0.045,0.73125 -0.405,1.85625 -0.81,2.5875 -0.34875,0.6075 -0.72,0.9225 -1.09125,0.9225 -0.2475,0 -0.43875,-0.18 -0.43875,-0.405 0,-0.18 0.09,-0.5175 0.39375,-1.54125 0.27,-0.9225 0.3825,-1.2375 0.5625,-1.5075 0.28125,-0.43875 0.6525,-0.72 0.945,-0.6975 z"
           style=""
           id="path3818" />
      </g>
      <g
         style="font-variant:normal;font-weight:normal;font-size:11.25px;font-family:Times;-inkscape-font-specification:Times-Roman;writing-mode:lr-tb;fill:#000000;fill-opacity:1;fill-rule:nonzero;stroke:none"
         id="text3705">
        <path
           d="m 183.84676,549.33186 -0.14625,-0.0562 c -0.41625,0.64125 -0.5625,0.7425 -1.06875,0.7425 l -2.68875,0 1.89,-1.98 c 1.00125,-1.04625 1.44,-1.90125 1.44,-2.77875 0,-1.125 -0.91125,-1.99125 -2.08125,-1.99125 -0.61875,0 -1.20375,0.2475 -1.62,0.6975 -0.36,0.3825 -0.52875,0.7425 -0.72,1.54125 l 0.23625,0.0563 c 0.45,-1.1025 0.855,-1.4625 1.63125,-1.4625 0.945,0 1.58625,0.64125 1.58625,1.58625 0,0.8775 -0.5175,1.92375 -1.4625,2.925 l -2.0025,2.12625 0,0.135 4.3875,0 0.61875,-1.54125 z"
           style=""
           id="path3821" />
        <path
           d="m 186.98551,543.26811 c -0.61875,0 -1.09125,0.19125 -1.5075,0.585 -0.6525,0.63 -1.08,1.92375 -1.08,3.24 0,1.22625 0.37125,2.5425 0.9,3.1725 0.41625,0.495 0.99,0.765 1.6425,0.765 0.57375,0 1.0575,-0.19125 1.4625,-0.585 0.6525,-0.61875 1.08,-1.92375 1.08,-3.285 0,-2.30625 -1.02375,-3.8925 -2.4975,-3.8925 z m -0.0337,0.2925 c 0.945,0 1.45125,1.27125 1.45125,3.6225 0,2.35125 -0.495,3.555 -1.4625,3.555 -0.9675,0 -1.4625,-1.20375 -1.4625,-3.54375 0,-2.385 0.50625,-3.63375 1.47375,-3.63375 z"
           style=""
           id="path3823" />
        <path
           d="m 192.61051,543.26811 c -0.61875,0 -1.09125,0.19125 -1.5075,0.585 -0.6525,0.63 -1.08,1.92375 -1.08,3.24 0,1.22625 0.37125,2.5425 0.9,3.1725 0.41625,0.495 0.99,0.765 1.6425,0.765 0.57375,0 1.0575,-0.19125 1.4625,-0.585 0.6525,-0.61875 1.08,-1.92375 1.08,-3.285 0,-2.30625 -1.02375,-3.8925 -2.4975,-3.8925 z m -0.0337,0.2925 c 0.945,0 1.45125,1.27125 1.45125,3.6225 0,2.35125 -0.495,3.555 -1.4625,3.555 -0.9675,0 -1.4625,-1.20375 -1.4625,-3.54375 0,-2.385 0.50625,-3.63375 1.47375,-3.63375 z"
           style=""
           id="path3825" />
        <path
           d="m 183.81301,507.77433 -1.1475,0 0,-5.00625 -0.495,0 -3.5325,5.00625 0,0.72 3.16125,0 0,1.87875 0.86625,0 0,-1.87875 1.1475,0 0,-0.72 z m -2.025,0 -2.7,0 2.7,-3.85875 0,3.85875 z"
           style=""
           id="path3827" />
        <path
           d="m 186.98551,502.76808 c -0.61875,0 -1.09125,0.19125 -1.5075,0.585 -0.6525,0.63 -1.08,1.92375 -1.08,3.24 0,1.22625 0.37125,2.5425 0.9,3.1725 0.41625,0.495 0.99,0.765 1.6425,0.765 0.57375,0 1.0575,-0.19125 1.4625,-0.585 0.6525,-0.61875 1.08,-1.92375 1.08,-3.285 0,-2.30625 -1.02375,-3.8925 -2.4975,-3.8925 z m -0.0337,0.2925 c 0.945,0 1.45125,1.27125 1.45125,3.6225 0,2.35125 -0.495,3.555 -1.4625,3.555 -0.9675,0 -1.4625,-1.20375 -1.4625,-3.54375 0,-2.385 0.50625,-3.63375 1.47375,-3.63375 z"
           style=""
           id="path3829" />
        <path
           d="m 192.61051,502.76808 c -0.61875,0 -1.09125,0.19125 -1.5075,0.585 -0.6525,0.63 -1.08,1.92375 -1.08,3.24 0,1.22625 0.37125,2.5425 0.9,3.1725 0.41625,0.495 0.99,0.765 1.6425,0.765 0.57375,0 1.0575,-0.19125 1.4625,-0.585 0.6525,-0.61875 1.08,-1.92375 1.08,-3.285 0,-2.30625 -1.02375,-3.8925 -2.4975,-3.8925 z m -0.0337,0.2925 c 0.945,0 1.45125,1.27125 1.45125,3.6225 0,2.35125 -0.495,3.555 -1.4625,3.555 -0.9675,0 -1.4625,-1.20375 -1.4625,-3.54375 0,-2.385 0.50625,-3.63375 1.47375,-3.63375 z"
           style=""
           id="path3831" />
        <path
           d="m 183.52051,462.17808 c -1.2825,0.1125 -1.935,0.32625 -2.75625,0.9 -1.215,0.86625 -1.87875,2.14875 -1.87875,3.65625 0,0.97875 0.30375,1.96875 0.7875,2.53125 0.4275,0.495 1.035,0.765 1.7325,0.765 1.395,0 2.3625,-1.06875 2.3625,-2.62125 0,-1.44 -0.82125,-2.35125 -2.115,-2.35125 -0.495,0 -0.73125,0.0787 -1.44,0.50625 0.30375,-1.69875 1.56375,-2.91375 3.33,-3.20625 l -0.0225,-0.18 z m -2.295,3.3975 c 0.9675,0 1.53,0.81 1.53,2.21625 0,1.2375 -0.43875,1.92375 -1.22625,1.92375 -0.99,0 -1.5975,-1.0575 -1.5975,-2.80125 0,-0.57375 0.09,-0.88875 0.315,-1.0575 0.23625,-0.18 0.585,-0.28125 0.97875,-0.28125 z"
           style=""
           id="path3833" />
        <path
           d="m 186.98551,462.26808 c -0.61875,0 -1.09125,0.19125 -1.5075,0.585 -0.6525,0.63 -1.08,1.92375 -1.08,3.24 0,1.22625 0.37125,2.5425 0.9,3.1725 0.41625,0.495 0.99,0.765 1.6425,0.765 0.57375,0 1.0575,-0.19125 1.4625,-0.585 0.6525,-0.61875 1.08,-1.92375 1.08,-3.285 0,-2.30625 -1.02375,-3.8925 -2.4975,-3.8925 z m -0.0337,0.2925 c 0.945,0 1.45125,1.27125 1.45125,3.6225 0,2.35125 -0.495,3.555 -1.4625,3.555 -0.9675,0 -1.4625,-1.20375 -1.4625,-3.54375 0,-2.385 0.50625,-3.63375 1.47375,-3.63375 z"
           style=""
           id="path3835" />
        <path
           d="m 192.61051,462.26808 c -0.61875,0 -1.09125,0.19125 -1.5075,0.585 -0.6525,0.63 -1.08,1.92375 -1.08,3.24 0,1.22625 0.37125,2.5425 0.9,3.1725 0.41625,0.495 0.99,0.765 1.6425,0.765 0.57375,0 1.0575,-0.19125 1.4625,-0.585 0.6525,-0.61875 1.08,-1.92375 1.08,-3.285 0,-2.30625 -1.02375,-3.8925 -2.4975,-3.8925 z m -0.0337,0.2925 c 0.945,0 1.45125,1.27125 1.45125,3.6225 0,2.35125 -0.495,3.555 -1.4625,3.555 -0.9675,0 -1.4625,-1.20375 -1.4625,-3.54375 0,-2.385 0.50625,-3.63375 1.47375,-3.63375 z"
           style=""
           id="path3837" />
        <path
           d="m 181.76551,425.19933 c 1.11375,-0.59625 1.5075,-1.06875 1.5075,-1.83375 0,-0.9225 -0.81,-1.5975 -1.935,-1.5975 -1.22625,0 -2.1375,0.75375 -2.1375,1.7775 0,0.73125 0.21375,1.0575 1.395,2.0925 -1.215,0.9225 -1.4625,1.27125 -1.4625,2.03625 0,1.09125 0.88875,1.85625 2.16,1.85625 1.35,0 2.21625,-0.7425 2.21625,-1.90125 0,-0.86625 -0.3825,-1.4175 -1.74375,-2.43 z m -0.2025,1.15875 c 0.82125,0.585 1.09125,0.99 1.09125,1.62 0,0.73125 -0.50625,1.2375 -1.2375,1.2375 -0.855,0 -1.42875,-0.6525 -1.42875,-1.63125 0,-0.72 0.2475,-1.1925 0.9,-1.72125 l 0.675,0.495 z m -0.12375,-1.36125 c -1.00125,-0.6525 -1.40625,-1.17 -1.40625,-1.8 0,-0.6525 0.50625,-1.11375 1.215,-1.11375 0.765,0 1.24875,0.495 1.24875,1.27125 0,0.64125 -0.315,1.1475 -0.95625,1.575 -0.0563,0.0337 -0.0563,0.0337 -0.10125,0.0675 z"
           style=""
           id="path3839" />
        <path
           d="m 186.98551,421.76808 c -0.61875,0 -1.09125,0.19125 -1.5075,0.585 -0.6525,0.63 -1.08,1.92375 -1.08,3.24 0,1.22625 0.37125,2.5425 0.9,3.1725 0.41625,0.495 0.99,0.765 1.6425,0.765 0.57375,0 1.0575,-0.19125 1.4625,-0.585 0.6525,-0.61875 1.08,-1.92375 1.08,-3.285 0,-2.30625 -1.02375,-3.8925 -2.4975,-3.8925 z m -0.0337,0.2925 c 0.945,0 1.45125,1.27125 1.45125,3.6225 0,2.35125 -0.495,3.555 -1.4625,3.555 -0.9675,0 -1.4625,-1.20375 -1.4625,-3.54375 0,-2.385 0.50625,-3.63375 1.47375,-3.63375 z"
           style=""
           id="path3841" />
        <path
           d="m 192.61051,421.76808 c -0.61875,0 -1.09125,0.19125 -1.5075,0.585 -0.6525,0.63 -1.08,1.92375 -1.08,3.24 0,1.22625 0.37125,2.5425 0.9,3.1725 0.41625,0.495 0.99,0.765 1.6425,0.765 0.57375,0 1.0575,-0.19125 1.4625,-0.585 0.6525,-0.61875 1.08,-1.92375 1.08,-3.285 0,-2.30625 -1.02375,-3.8925 -2.4975,-3.8925 z m -0.0337,0.2925 c 0.945,0 1.45125,1.27125 1.45125,3.6225 0,2.35125 -0.495,3.555 -1.4625,3.555 -0.9675,0 -1.4625,-1.20375 -1.4625,-3.54375 0,-2.385 0.50625,-3.63375 1.47375,-3.63375 z"
           style=""
           id="path3843" />
        <path
           d="m 176.15176,381.26808 -2.025,1.02375 0,0.1575 c 0.135,-0.0562 0.25875,-0.10125 0.30375,-0.12375 0.2025,-0.0788 0.39375,-0.12375 0.50625,-0.12375 0.23625,0 0.3375,0.16875 0.3375,0.52875 l 0,5.09625 c 0,0.37125 -0.09,0.63 -0.27,0.73125 -0.16875,0.10125 -0.32625,0.135 -0.79875,0.14625 l 0,0.16875 3.105,0 0,-0.16875 c -0.88875,-0.0113 -1.06875,-0.12375 -1.06875,-0.66375 l 0,-6.75 -0.09,-0.0225 z"
           style=""
           id="path3845" />
        <path
           d="m 181.36051,381.26808 c -0.61875,0 -1.09125,0.19125 -1.5075,0.585 -0.6525,0.63 -1.08,1.92375 -1.08,3.24 0,1.22625 0.37125,2.5425 0.9,3.1725 0.41625,0.495 0.99,0.765 1.6425,0.765 0.57375,0 1.0575,-0.19125 1.4625,-0.585 0.6525,-0.61875 1.08,-1.92375 1.08,-3.285 0,-2.30625 -1.02375,-3.8925 -2.4975,-3.8925 z m -0.0337,0.2925 c 0.945,0 1.45125,1.27125 1.45125,3.6225 0,2.35125 -0.495,3.555 -1.4625,3.555 -0.9675,0 -1.4625,-1.20375 -1.4625,-3.54375 0,-2.385 0.50625,-3.63375 1.47375,-3.63375 z"
           style=""
           id="path3847" />
        <path
           d="m 186.98551,381.26808 c -0.61875,0 -1.09125,0.19125 -1.5075,0.585 -0.6525,0.63 -1.08,1.92375 -1.08,3.24 0,1.22625 0.37125,2.5425 0.9,3.1725 0.41625,0.495 0.99,0.765 1.6425,0.765 0.57375,0 1.0575,-0.19125 1.4625,-0.585 0.6525,-0.61875 1.08,-1.92375 1.08,-3.285 0,-2.30625 -1.02375,-3.8925 -2.4975,-3.8925 z m -0.0337,0.2925 c 0.945,0 1.45125,1.27125 1.45125,3.6225 0,2.35125 -0.495,3.555 -1.4625,3.555 -0.9675,0 -1.4625,-1.20375 -1.4625,-3.54375 0,-2.385 0.50625,-3.63375 1.47375,-3.63375 z"
           style=""
           id="path3849" />
        <path
           d="m 192.61051,381.26808 c -0.61875,0 -1.09125,0.19125 -1.5075,0.585 -0.6525,0.63 -1.08,1.92375 -1.08,3.24 0,1.22625 0.37125,2.5425 0.9,3.1725 0.41625,0.495 0.99,0.765 1.6425,0.765 0.57375,0 1.0575,-0.19125 1.4625,-0.585 0.6525,-0.61875 1.08,-1.92375 1.08,-3.285 0,-2.30625 -1.02375,-3.8925 -2.4975,-3.8925 z m -0.0337,0.2925 c 0.945,0 1.45125,1.27125 1.45125,3.6225 0,2.35125 -0.495,3.555 -1.4625,3.555 -0.9675,0 -1.4625,-1.20375 -1.4625,-3.54375 0,-2.385 0.50625,-3.63375 1.47375,-3.63375 z"
           style=""
           id="path3851" />
        <path
           d="m 176.15176,340.76808 -2.025,1.02375 0,0.1575 c 0.135,-0.0562 0.25875,-0.10125 0.30375,-0.12375 0.2025,-0.0788 0.39375,-0.12375 0.50625,-0.12375 0.23625,0 0.3375,0.16875 0.3375,0.52875 l 0,5.09625 c 0,0.37125 -0.09,0.63 -0.27,0.73125 -0.16875,0.10125 -0.32625,0.135 -0.79875,0.14625 l 0,0.16875 3.105,0 0,-0.16875 c -0.88875,-0.0113 -1.06875,-0.12375 -1.06875,-0.66375 l 0,-6.75 -0.09,-0.0225 z"
           style=""
           id="path3853" />
        <path
           d="m 183.84676,346.83183 -0.14625,-0.0563 c -0.41625,0.64125 -0.5625,0.7425 -1.06875,0.7425 l -2.68875,0 1.89,-1.98 c 1.00125,-1.04625 1.44,-1.90125 1.44,-2.77875 0,-1.125 -0.91125,-1.99125 -2.08125,-1.99125 -0.61875,0 -1.20375,0.2475 -1.62,0.6975 -0.36,0.3825 -0.52875,0.7425 -0.72,1.54125 l 0.23625,0.0563 c 0.45,-1.1025 0.855,-1.4625 1.63125,-1.4625 0.945,0 1.58625,0.64125 1.58625,1.58625 0,0.8775 -0.5175,1.92375 -1.4625,2.925 l -2.0025,2.12625 0,0.135 4.3875,0 0.61875,-1.54125 z"
           style=""
           id="path3855" />
        <path
           d="m 186.98551,340.76808 c -0.61875,0 -1.09125,0.19125 -1.5075,0.585 -0.6525,0.63 -1.08,1.92375 -1.08,3.24 0,1.22625 0.37125,2.5425 0.9,3.1725 0.41625,0.495 0.99,0.765 1.6425,0.765 0.57375,0 1.0575,-0.19125 1.4625,-0.585 0.6525,-0.61875 1.08,-1.92375 1.08,-3.285 0,-2.30625 -1.02375,-3.8925 -2.4975,-3.8925 z m -0.0337,0.2925 c 0.945,0 1.45125,1.27125 1.45125,3.6225 0,2.35125 -0.495,3.555 -1.4625,3.555 -0.9675,0 -1.4625,-1.20375 -1.4625,-3.54375 0,-2.385 0.50625,-3.63375 1.47375,-3.63375 z"
           style=""
           id="path3857" />
        <path
           d="m 192.61051,340.76808 c -0.61875,0 -1.09125,0.19125 -1.5075,0.585 -0.6525,0.63 -1.08,1.92375 -1.08,3.24 0,1.22625 0.37125,2.5425 0.9,3.1725 0.41625,0.495 0.99,0.765 1.6425,0.765 0.57375,0 1.0575,-0.19125 1.4625,-0.585 0.6525,-0.61875 1.08,-1.92375 1.08,-3.285 0,-2.30625 -1.02375,-3.8925 -2.4975,-3.8925 z m -0.0337,0.2925 c 0.945,0 1.45125,1.27125 1.45125,3.6225 0,2.35125 -0.495,3.555 -1.4625,3.555 -0.9675,0 -1.4625,-1.20375 -1.4625,-3.54375 0,-2.385 0.50625,-3.63375 1.47375,-3.63375 z"
           style=""
           id="path3859" />
        <path
           d="m 299.76562,597.83735 -0.14625,-0.0562 c -0.41625,0.64125 -0.5625,0.7425 -1.06874,0.7425 l -2.68876,0 1.89,-1.98 c 1.00125,-1.04625 1.44,-1.90125 1.44,-2.77875 0,-1.125 -0.91125,-1.99125 -2.08124,-1.99125 -0.61876,0 -1.20375,0.2475 -1.62,0.6975 -0.36001,0.3825 -0.52875,0.7425 -0.72001,1.54125 l 0.23625,0.0562 c 0.45001,-1.1025 0.855,-1.4625 1.63125,-1.4625 0.945,0 1.58625,0.64125 1.58625,1.58625 0,0.8775 -0.51749,1.92375 -1.4625,2.925 l -2.0025,2.12625 0,0.135 4.38751,0 0.61874,-1.54125 z"
           style=""
           id="path3861" />
        <path
           d="m 302.90438,591.7736 c -0.61876,0 -1.09125,0.19125 -1.5075,0.585 -0.65251,0.63 -1.08001,1.92375 -1.08001,3.24 0,1.22625 0.37126,2.5425 0.90001,3.1725 0.41624,0.495 0.99,0.765 1.64249,0.765 0.57376,0 1.0575,-0.19125 1.4625,-0.585 0.6525,-0.61875 1.08001,-1.92375 1.08001,-3.285 0,-2.30625 -1.02376,-3.8925 -2.4975,-3.8925 z m -0.0337,0.2925 c 0.94499,0 1.45124,1.27125 1.45124,3.6225 0,2.35125 -0.495,3.555 -1.4625,3.555 -0.96749,0 -1.46249,-1.20375 -1.46249,-3.54375 0,-2.385 0.50624,-3.63375 1.47375,-3.63375 z"
           style=""
           id="path3863" />
        <path
           d="m 346.76812,595.6661 c 0.66375,0 0.9225,0.0225 1.1925,0.12375 0.6975,0.2475 1.13625,0.88875 1.13625,1.665 0,0.945 -0.64125,1.67625 -1.47374,1.67625 -0.30376,0 -0.52875,-0.0787 -0.945,-0.34875 -0.33751,-0.2025 -0.52875,-0.28125 -0.72001,-0.28125 -0.25875,0 -0.4275,0.1575 -0.4275,0.39375 0,0.39375 0.48375,0.64125 1.27125,0.64125 0.86625,0 1.755,-0.2925 2.28375,-0.75375 0.52875,-0.46125 0.82126,-1.11375 0.82126,-1.8675 0,-0.57375 -0.18001,-1.1025 -0.50626,-1.45125 -0.22499,-0.2475 -0.43874,-0.3825 -0.93374,-0.59625 0.77625,-0.52875 1.0575,-0.945 1.0575,-1.5525 0,-0.91125 -0.72001,-1.54125 -1.755,-1.54125 -0.5625,0 -1.0575,0.19125 -1.46251,0.55125 -0.33749,0.30375 -0.50624,0.59625 -0.75374,1.27125 l 0.16874,0.045 c 0.46126,-0.82125 0.9675,-1.1925 1.67625,-1.1925 0.73125,0 1.2375,0.495 1.2375,1.20375 0,0.405 -0.16874,0.81 -0.44999,1.09125 -0.33751,0.3375 -0.65251,0.50625 -1.41751,0.77625 l 0,0.14625 z"
           style=""
           id="path3865" />
        <path
           d="m 353.52938,591.7736 c -0.61876,0 -1.09125,0.19125 -1.5075,0.585 -0.65251,0.63 -1.08001,1.92375 -1.08001,3.24 0,1.22625 0.37126,2.5425 0.90001,3.1725 0.41624,0.495 0.99,0.765 1.64249,0.765 0.57376,0 1.0575,-0.19125 1.4625,-0.585 0.6525,-0.61875 1.08001,-1.92375 1.08001,-3.285 0,-2.30625 -1.02376,-3.8925 -2.4975,-3.8925 z m -0.0337,0.2925 c 0.94499,0 1.45124,1.27125 1.45124,3.6225 0,2.35125 -0.495,3.555 -1.4625,3.555 -0.96749,0 -1.46249,-1.20375 -1.46249,-3.54375 0,-2.385 0.50624,-3.63375 1.47375,-3.63375 z"
           style=""
           id="path3867" />
        <path
           d="m 247.07062,591.7736 -2.025,1.02375 0,0.1575 c 0.135,-0.0562 0.25875,-0.10125 0.30375,-0.12375 0.2025,-0.0788 0.39375,-0.12375 0.50625,-0.12375 0.23625,0 0.3375,0.16875 0.3375,0.52875 l 0,5.09625 c 0,0.37125 -0.09,0.63 -0.27,0.73125 -0.16875,0.10125 -0.32625,0.135 -0.79875,0.14625 l 0,0.16875 3.105,0 0,-0.16875 c -0.88875,-0.0112 -1.06875,-0.12375 -1.06875,-0.66375 l 0,-6.75 -0.09,-0.0225 z"
           style=""
           id="path3869" />
        <path
           d="m 252.27937,591.7736 c -0.61875,0 -1.09124,0.19125 -1.5075,0.585 -0.6525,0.63 -1.08,1.92375 -1.08,3.24 0,1.22625 0.37126,2.5425 0.9,3.1725 0.41625,0.495 0.99,0.765 1.6425,0.765 0.57375,0 1.0575,-0.19125 1.4625,-0.585 0.6525,-0.61875 1.08,-1.92375 1.08,-3.285 0,-2.30625 -1.02375,-3.8925 -2.4975,-3.8925 z m -0.0337,0.2925 c 0.945,0 1.45125,1.27125 1.45125,3.6225 0,2.35125 -0.495,3.555 -1.4625,3.555 -0.9675,0 -1.4625,-1.20375 -1.4625,-3.54375 0,-2.385 0.50625,-3.63375 1.47375,-3.63375 z"
           style=""
           id="path3871" />
      </g>
      <path
         inkscape:connector-curvature="0"
         id="path3721"
         style="fill:none;stroke:#02a0e9;stroke-width:0.5625;stroke-linecap:butt;stroke-linejoin:miter;stroke-miterlimit:4;stroke-dasharray:none;stroke-opacity:1"
         d="m 249.38038,587.57621 0,-242.9925 m 50.6225,242.9925 0,-242.9925 m 50.57875,202.50125 -151.82625,0 m 151.82625,-40.49875 -151.82625,0 m 151.82625,-40.5 -151.82625,0 m 151.82625,-40.5 -151.82625,0 m 151.82625,-40.5 -151.82625,0 m -0.002,-40.5 151.8725,0 0,242.98 -151.8725,0 0,-242.98 z" />
      <path
         inkscape:connector-curvature="0"
         id="path3723"
         style="fill:none;stroke:#000000;stroke-width:0.78750002;stroke-linecap:butt;stroke-linejoin:miter;stroke-miterlimit:4;stroke-dasharray:none;stroke-opacity:1"
         d="m 357.33163,587.58496 -158.57625,0 0,-254.32" />
      <path
         inkscape:connector-curvature="0"
         id="path3725"
         style="fill:#000000;fill-opacity:1;fill-rule:nonzero;stroke:none"
         d="m 198.75538,329.92746 1.92,4.70125 -1.92,-1.11625 -1.92125,1.11625 1.92125,-4.70125" />
      <path
         inkscape:connector-curvature="0"
         id="path3727"
         style="fill:#000000;fill-opacity:1;fill-rule:nonzero;stroke:none"
         d="m 360.66788,587.58496 -4.7025,1.92125 1.115,-1.92125 -1.115,-1.92 4.7025,1.92" />
    </g>
  </g>
</svg>
