<?xml version="1.0" encoding="UTF-8" standalone="no"?>
<!-- Created with Inkscape (http://www.inkscape.org/) -->

<svg
   xmlns:dc="http://purl.org/dc/elements/1.1/"
   xmlns:cc="http://creativecommons.org/ns#"
   xmlns:rdf="http://www.w3.org/1999/02/22-rdf-syntax-ns#"
   xmlns:svg="http://www.w3.org/2000/svg"
   xmlns="http://www.w3.org/2000/svg"
   xmlns:sodipodi="http://sodipodi.sourceforge.net/DTD/sodipodi-0.dtd"
   xmlns:inkscape="http://www.inkscape.org/namespaces/inkscape"
   width="35.306923mm"
   height="44.066055mm"
   viewBox="0 0 125.10327 156.13957"
   id="svg4369"
   version="1.1"
   inkscape:version="0.91 r13725"
   sodipodi:docname="act-9-5-2.svg">
  <defs
     id="defs4371">
    <clipPath
       clipPathUnits="userSpaceOnUse"
       id="clipPath3700">
      <path
         d="m 451.833,505.29 104.667,0 0,-128.29 -104.667,0 0,128.29 z"
         id="path3702"
         inkscape:connector-curvature="0"
         style="clip-rule:evenodd" />
    </clipPath>
    <clipPath
       clipPathUnits="userSpaceOnUse"
       id="clipPath3706">
      <path
         d="m 0,787.5 612,0 0,-783 -612,0 0,783 z"
         id="path3708"
         inkscape:connector-curvature="0" />
    </clipPath>
    <clipPath
       clipPathUnits="userSpaceOnUse"
       id="clipPath3712">
      <path
         d="m 0,792.06 612,0 0,-792 -612,0 0,792 z"
         id="path3714"
         inkscape:connector-curvature="0" />
    </clipPath>
  </defs>
  <sodipodi:namedview
     id="base"
     pagecolor="#ffffff"
     bordercolor="#666666"
     borderopacity="1.0"
     inkscape:pageopacity="0.0"
     inkscape:pageshadow="2"
     inkscape:zoom="1.4"
     inkscape:cx="-156.1566"
     inkscape:cy="23.837533"
     inkscape:document-units="px"
     inkscape:current-layer="layer1"
     showgrid="false"
     fit-margin-top="0"
     fit-margin-left="0"
     fit-margin-right="0"
     fit-margin-bottom="0"
     inkscape:window-width="1366"
     inkscape:window-height="715"
     inkscape:window-x="0"
     inkscape:window-y="0"
     inkscape:window-maximized="1" />
  <metadata
     id="metadata4374">
    <rdf:RDF>
      <cc:Work
         rdf:about="">
        <dc:format>image/svg+xml</dc:format>
        <dc:type
           rdf:resource="http://purl.org/dc/dcmitype/StillImage" />
        <dc:title></dc:title>
      </cc:Work>
    </rdf:RDF>
  </metadata>
  <g
     inkscape:label="Layer 1"
     inkscape:groupmode="layer"
     id="layer1"
     transform="translate(-137.45857,-378.30239)">
    <g
       transform="matrix(1.25,0,0,-1.25,-430.33115,1008.9288)"
       id="g3696">
      <g
         id="g3698"
         clip-path="url(#clipPath3700)">
        <g
           id="g3704"
           clip-path="url(#clipPath3706)">
          <g
             id="g3710"
             clip-path="url(#clipPath3712)">
            <path
               d="m 505.478,397.943 c -0.312,0 -0.937,0.312 -1.125,0.437 -0.625,0.375 -1.25,0.688 -1.937,0.438 0,0 -0.063,-0.25 0,-0.375 0.312,-0.438 0.687,-0.688 1.062,-1 0.313,-0.188 0.625,-0.25 0.875,-0.438 0.188,-0.312 0.063,-0.687 0.188,-1.063 0.187,-0.625 -0.25,-1.062 -0.438,-1.625 0,-0.062 -0.187,-0.187 -0.312,-0.312 -0.063,-0.125 -0.125,-0.25 -0.25,-0.375 0,-0.063 0,-0.125 0,-0.188 0.125,-0.125 0.312,-0.187 0.5,-0.125 0,0 0,0.125 0,0.188 0.375,0 0.812,0.062 1,0.437 -0.188,0 -0.438,-0.062 -0.438,0.188 0.125,-0.063 0.25,0.062 0.313,0.125 0.062,0.125 0.187,0.312 0.125,0.5 0.75,-0.188 1.437,0.375 1.25,1 -0.063,0.062 -0.438,0.437 -0.375,0.437 0.187,0.126 0.5,0.188 0.562,0.376 0.125,0.25 0.438,0.562 0.25,0.75 -0.312,0.5 -0.875,0.687 -1.437,0.687 -0.063,0 -0.438,0 -0.5,0.063"
               style="fill:#fff9a5;fill-opacity:1;fill-rule:nonzero;stroke:none"
               id="path3716"
               inkscape:connector-curvature="0" />
            <path
               d="m 487.853,390.171 -1.75,1.062 -1.333,-2 1.583,-0.894 1.5,1.832"
               style="fill:#6e6e6e;fill-opacity:1;fill-rule:nonzero;stroke:none"
               id="path3718"
               inkscape:connector-curvature="0" />
            <path
               d="m 492.499,387.692 -1.75,1.063 -0.708,-1.813 1.583,-0.896 0.875,1.646"
               style="fill:#6e6e6e;fill-opacity:1;fill-rule:nonzero;stroke:none"
               id="path3720"
               inkscape:connector-curvature="0" />
            <path
               d="m 496.144,386.546 -1.75,1.062 -0.937,-1.832 1.584,-0.896 1.103,1.666"
               style="fill:#6e6e6e;fill-opacity:1;fill-rule:nonzero;stroke:none"
               id="path3722"
               inkscape:connector-curvature="0" />
            <path
               d="m 500.957,385.214 -1.75,1.062 -1.333,-2 1.583,-0.896 1.5,1.834"
               style="fill:#6e6e6e;fill-opacity:1;fill-rule:nonzero;stroke:none"
               id="path3724"
               inkscape:connector-curvature="0" />
            <path
               d="m 504.061,384.339 -1.75,1.062 -1.333,-2 1.583,-0.896 1.5,1.834"
               style="fill:#6e6e6e;fill-opacity:1;fill-rule:nonzero;stroke:none"
               id="path3726"
               inkscape:connector-curvature="0" />
            <path
               d="m 507.103,383.526 -1.75,1.063 -1.334,-2 1.772,-0.459 1.312,1.396"
               style="fill:#6e6e6e;fill-opacity:1;fill-rule:nonzero;stroke:none"
               id="path3728"
               inkscape:connector-curvature="0" />
            <path
               d="m 511.207,383.13 -2.166,0.416 -1.167,-1.916 2,-0.5 1.333,2"
               style="fill:#6e6e6e;fill-opacity:1;fill-rule:nonzero;stroke:none"
               id="path3730"
               inkscape:connector-curvature="0" />
            <path
               d="m 515.769,382.505 -2.165,0.416 -1.168,-1.916 2,-0.5 1.333,2"
               style="fill:#6e6e6e;fill-opacity:1;fill-rule:nonzero;stroke:none"
               id="path3732"
               inkscape:connector-curvature="0" />
            <path
               d="m 520.332,382.171 -2.166,0.418 -1.167,-1.918 2,-0.5 1.333,2"
               style="fill:#6e6e6e;fill-opacity:1;fill-rule:nonzero;stroke:none"
               id="path3734"
               inkscape:connector-curvature="0" />
            <path
               d="m 525.166,382.005 -2.167,0.416 -1.167,-1.916 2,-0.5 1.334,2"
               style="fill:#6e6e6e;fill-opacity:1;fill-rule:nonzero;stroke:none"
               id="path3736"
               inkscape:connector-curvature="0" />
            <path
               d="m 530.291,381.796 -2.167,0.418 -1.167,-1.918 2,-0.5 1.334,2"
               style="fill:#6e6e6e;fill-opacity:1;fill-rule:nonzero;stroke:none"
               id="path3738"
               inkscape:connector-curvature="0" />
            <path
               d="m 480.874,394.589 -1.75,1.062 -1.396,-1.646 1.646,-1.25 1.5,1.834"
               style="fill:#6e6e6e;fill-opacity:1;fill-rule:nonzero;stroke:none"
               id="path3740"
               inkscape:connector-curvature="0" />
            <path
               d="m 484.436,391.964 -1.75,1.062 -1.27,-1.562 1.583,-0.897 1.437,1.397"
               style="fill:#6e6e6e;fill-opacity:1;fill-rule:nonzero;stroke:none"
               id="path3742"
               inkscape:connector-curvature="0" />
            <path
               d="m 477.871,397.092 -1.455,0.976 -1.375,-1.625 1.187,-1.313 1.643,1.962"
               style="fill:#6e6e6e;fill-opacity:1;fill-rule:nonzero;stroke:none"
               id="path3744"
               inkscape:connector-curvature="0" />
            <path
               d="m 474.98,399.777 -1.669,1.186 -1.473,-1.898 1.514,-1.008 1.628,1.72"
               style="fill:#6e6e6e;fill-opacity:1;fill-rule:nonzero;stroke:none"
               id="path3746"
               inkscape:connector-curvature="0" />
            <path
               d="m 472.045,403.1 -1.669,1.187 -1.475,-1.899 1.015,-1.342 2.129,2.054"
               style="fill:#6e6e6e;fill-opacity:1;fill-rule:nonzero;stroke:none"
               id="path3748"
               inkscape:connector-curvature="0" />
            <path
               d="m 469.416,406.213 -1.353,1.386 -1.731,-1.469 1.25,-1.667 1.834,1.75"
               style="fill:#6e6e6e;fill-opacity:1;fill-rule:nonzero;stroke:none"
               id="path3750"
               inkscape:connector-curvature="0" />
            <path
               d="m 467.166,409.547 -1.084,1.5 -2,-1.584 1.25,-1.667 1.834,1.751"
               style="fill:#6e6e6e;fill-opacity:1;fill-rule:nonzero;stroke:none"
               id="path3752"
               inkscape:connector-curvature="0" />
            <path
               d="m 465.332,412.88 -1.083,1.667 -2.167,-1.167 0.917,-1.833 2.333,1.333"
               style="fill:#6e6e6e;fill-opacity:1;fill-rule:nonzero;stroke:none"
               id="path3754"
               inkscape:connector-curvature="0" />
            <path
               d="m 463.666,416.88 -1.167,2.083 -2.333,-1.083 1,-2.083 2.5,1.083"
               style="fill:#6e6e6e;fill-opacity:1;fill-rule:nonzero;stroke:none"
               id="path3756"
               inkscape:connector-curvature="0" />
            <path
               d="m 461.832,420.63 -0.75,2.104 -2.083,-1.083 0.75,-2.021 2.083,1"
               style="fill:#6e6e6e;fill-opacity:1;fill-rule:nonzero;stroke:none"
               id="path3758"
               inkscape:connector-curvature="0" />
            <path
               d="m 460.666,424.713 -0.75,2.105 -2.084,-1.084 0.75,-2.021 2.084,1"
               style="fill:#6e6e6e;fill-opacity:1;fill-rule:nonzero;stroke:none"
               id="path3760"
               inkscape:connector-curvature="0" />
            <path
               d="m 459.582,428.963 -0.75,2.105 -2.083,-1.084 0.75,-2.021 2.083,1"
               style="fill:#6e6e6e;fill-opacity:1;fill-rule:nonzero;stroke:none"
               id="path3762"
               inkscape:connector-curvature="0" />
            <path
               d="m 458.749,432.963 -0.667,2.355 -2.25,-0.688 0.584,-2.167 2.333,0.5"
               style="fill:#6e6e6e;fill-opacity:1;fill-rule:nonzero;stroke:none"
               id="path3764"
               inkscape:connector-curvature="0" />
            <path
               d="m 458.082,437.13 -0.333,2.25 -2.417,-0.417 0.334,-2.083 2.416,0.25"
               style="fill:#6e6e6e;fill-opacity:1;fill-rule:nonzero;stroke:none"
               id="path3766"
               inkscape:connector-curvature="0" />
            <path
               d="m 457.666,441.713 -0.334,2.25 -2.416,-0.416 0.333,-2.084 2.417,0.25"
               style="fill:#6e6e6e;fill-opacity:1;fill-rule:nonzero;stroke:none"
               id="path3768"
               inkscape:connector-curvature="0" />
            <path
               d="m 457.332,445.797 -0.333,2.25 -2.417,-0.417 0.334,-2.083 2.416,0.25"
               style="fill:#6e6e6e;fill-opacity:1;fill-rule:nonzero;stroke:none"
               id="path3770"
               inkscape:connector-curvature="0" />
            <path
               d="m 457.249,450.13 -0.333,2.25 -2.417,-0.417 0.333,-2.083 2.417,0.25"
               style="fill:#6e6e6e;fill-opacity:1;fill-rule:nonzero;stroke:none"
               id="path3772"
               inkscape:connector-curvature="0" />
            <path
               d="m 457.499,454.88 -0.333,2.25 -2.417,-0.417 0.333,-2.083 2.417,0.25"
               style="fill:#6e6e6e;fill-opacity:1;fill-rule:nonzero;stroke:none"
               id="path3774"
               inkscape:connector-curvature="0" />
            <path
               d="m 457.707,458.547 0.25,2 -2.833,0.333 -0.333,-1.667 2.916,-0.666"
               style="fill:#6e6e6e;fill-opacity:1;fill-rule:nonzero;stroke:none"
               id="path3776"
               inkscape:connector-curvature="0" />
            <path
               d="m 458.582,462.797 0.25,2 -2.833,0.333 -0.333,-1.667 2.916,-0.666"
               style="fill:#6e6e6e;fill-opacity:1;fill-rule:nonzero;stroke:none"
               id="path3778"
               inkscape:connector-curvature="0" />
            <path
               d="m 459.291,466.38 0.875,2.333 -2.834,0.334 -0.708,-1.834 2.667,-0.833"
               style="fill:#6e6e6e;fill-opacity:1;fill-rule:nonzero;stroke:none"
               id="path3780"
               inkscape:connector-curvature="0" />
            <path
               d="m 461.249,470.38 0.25,2 -2.833,0.333 -0.334,-1.666 2.917,-0.667"
               style="fill:#6e6e6e;fill-opacity:1;fill-rule:nonzero;stroke:none"
               id="path3782"
               inkscape:connector-curvature="0" />
            <path
               d="m 462.832,473.963 0.25,2 -2.833,0.334 -0.333,-1.667 2.916,-0.667"
               style="fill:#6e6e6e;fill-opacity:1;fill-rule:nonzero;stroke:none"
               id="path3784"
               inkscape:connector-curvature="0" />
            <path
               d="m 464.124,477.588 1.27,1.771 -2.625,0.875 -1.353,-1.937 2.708,-0.709"
               style="fill:#6e6e6e;fill-opacity:1;fill-rule:nonzero;stroke:none"
               id="path3786"
               inkscape:connector-curvature="0" />
            <path
               d="m 466.457,481.047 1.271,1.771 -2.5,1.041 -1.354,-1.937 2.583,-0.875"
               style="fill:#6e6e6e;fill-opacity:1;fill-rule:nonzero;stroke:none"
               id="path3788"
               inkscape:connector-curvature="0" />
            <path
               d="m 469.624,484.255 1.271,1.771 -3.251,1.167 -1.353,-1.938 3.333,-1"
               style="fill:#6e6e6e;fill-opacity:1;fill-rule:nonzero;stroke:none"
               id="path3790"
               inkscape:connector-curvature="0" />
            <path
               d="m 471.291,487.38 2.166,1.667 -2.729,1.229 -1.354,-1.938 1.917,-0.958"
               style="fill:#6e6e6e;fill-opacity:1;fill-rule:nonzero;stroke:none"
               id="path3792"
               inkscape:connector-curvature="0" />
            <path
               d="m 475.249,490.047 1.667,1.416 -2.25,1.584 -1.834,-1.334 2.417,-1.666"
               style="fill:#6e6e6e;fill-opacity:1;fill-rule:nonzero;stroke:none"
               id="path3794"
               inkscape:connector-curvature="0" />
            <path
               d="m 478.749,492.797 1.667,1.416 -2.25,1.584 -1.834,-1.334 2.417,-1.666"
               style="fill:#6e6e6e;fill-opacity:1;fill-rule:nonzero;stroke:none"
               id="path3796"
               inkscape:connector-curvature="0" />
            <path
               d="m 482.499,495.213 1.667,1.417 -2.25,1.583 -1.834,-1.333 2.417,-1.667"
               style="fill:#6e6e6e;fill-opacity:1;fill-rule:nonzero;stroke:none"
               id="path3798"
               inkscape:connector-curvature="0" />
            <path
               d="m 485.916,497.047 1.666,1.416 -2.25,1.584 -1.833,-1.334 2.417,-1.666"
               style="fill:#6e6e6e;fill-opacity:1;fill-rule:nonzero;stroke:none"
               id="path3800"
               inkscape:connector-curvature="0" />
            <path
               d="m 489.332,499.38 2.25,0.833 -1.5,1.5 -1.916,-0.916 1.166,-1.417"
               style="fill:#6e6e6e;fill-opacity:1;fill-rule:nonzero;stroke:none"
               id="path3802"
               inkscape:connector-curvature="0" />
            <path
               d="m 492.999,500.713 2.083,0.667 -1.166,1.667 -1.917,-1.084 1,-1.25"
               style="fill:#6e6e6e;fill-opacity:1;fill-rule:nonzero;stroke:none"
               id="path3804"
               inkscape:connector-curvature="0" />
            <path
               d="m 499.582,501.13 2.167,0.25 -1.667,2.25 -2.333,-0.167 1.833,-2.333"
               style="fill:#6e6e6e;fill-opacity:1;fill-rule:nonzero;stroke:none"
               id="path3806"
               inkscape:connector-curvature="0" />
            <path
               d="m 503.916,501.463 2.166,0.25 -1.166,2.25 -2.25,-0.083 1.25,-2.417"
               style="fill:#6e6e6e;fill-opacity:1;fill-rule:nonzero;stroke:none"
               id="path3808"
               inkscape:connector-curvature="0" />
            <path
               d="m 508.082,501.38 2,-0.25 -0.729,2.667 -1.854,-0.167 0.583,-2.25"
               style="fill:#6e6e6e;fill-opacity:1;fill-rule:nonzero;stroke:none"
               id="path3810"
               inkscape:connector-curvature="0" />
            <path
               d="m 511.999,500.63 2.104,-0.354 -0.146,2.667 -2.125,0.437 0.167,-2.75"
               style="fill:#6e6e6e;fill-opacity:1;fill-rule:nonzero;stroke:none"
               id="path3812"
               inkscape:connector-curvature="0" />
            <path
               d="m 516.082,499.63 1.5,-0.25 0.334,2.417 -1.917,0.416 0.083,-2.583"
               style="fill:#6e6e6e;fill-opacity:1;fill-rule:nonzero;stroke:none"
               id="path3814"
               inkscape:connector-curvature="0" />
            <path
               d="m 519.582,498.797 2.084,-0.834 0.833,2.084 -2.333,0.833 -0.584,-2.083"
               style="fill:#6e6e6e;fill-opacity:1;fill-rule:nonzero;stroke:none"
               id="path3816"
               inkscape:connector-curvature="0" />
            <path
               d="m 523.499,497.047 2.083,-0.834 0.834,2.084 -2.334,0.833 -0.583,-2.083"
               style="fill:#6e6e6e;fill-opacity:1;fill-rule:nonzero;stroke:none"
               id="path3818"
               inkscape:connector-curvature="0" />
            <path
               d="m 527.416,494.797 2.083,-0.834 0.833,2.084 -2.333,0.833 -0.583,-2.083"
               style="fill:#6e6e6e;fill-opacity:1;fill-rule:nonzero;stroke:none"
               id="path3820"
               inkscape:connector-curvature="0" />
            <path
               d="m 531.166,492.297 1.416,-1.25 1.25,2.083 -2.083,1.25 -0.583,-2.083"
               style="fill:#6e6e6e;fill-opacity:1;fill-rule:nonzero;stroke:none"
               id="path3822"
               inkscape:connector-curvature="0" />
            <path
               d="m 534.332,489.963 1.417,-1.25 1.25,2.084 -2.083,1.25 -0.584,-2.084"
               style="fill:#6e6e6e;fill-opacity:1;fill-rule:nonzero;stroke:none"
               id="path3824"
               inkscape:connector-curvature="0" />
            <path
               d="m 537.666,486.88 1.416,-1.25 1.25,2.083 -2.083,1.25 -0.583,-2.083"
               style="fill:#6e6e6e;fill-opacity:1;fill-rule:nonzero;stroke:none"
               id="path3826"
               inkscape:connector-curvature="0" />
            <path
               d="m 540.249,484.38 1.167,-1.667 1.666,1.334 -1.583,1.916 -1.25,-1.583"
               style="fill:#6e6e6e;fill-opacity:1;fill-rule:nonzero;stroke:none"
               id="path3828"
               inkscape:connector-curvature="0" />
            <path
               d="m 542.916,480.88 1.166,-1.667 1.667,1.334 -1.583,1.916 -1.25,-1.583"
               style="fill:#6e6e6e;fill-opacity:1;fill-rule:nonzero;stroke:none"
               id="path3830"
               inkscape:connector-curvature="0" />
            <path
               d="m 545.499,476.547 1.167,-1.667 1.666,1.333 -1.583,1.917 -1.25,-1.583"
               style="fill:#6e6e6e;fill-opacity:1;fill-rule:nonzero;stroke:none"
               id="path3832"
               inkscape:connector-curvature="0" />
            <path
               d="m 547.666,472.713 0.916,-2.333 2,1 -1.5,2.25 -1.416,-0.917"
               style="fill:#6e6e6e;fill-opacity:1;fill-rule:nonzero;stroke:none"
               id="path3834"
               inkscape:connector-curvature="0" />
            <path
               d="m 549.436,468.755 0.917,-2.333 2,1 -1.5,2.25 -1.417,-0.917"
               style="fill:#6e6e6e;fill-opacity:1;fill-rule:nonzero;stroke:none"
               id="path3836"
               inkscape:connector-curvature="0" />
            <path
               d="m 550.519,464.859 0.48,-2.062 1.917,0.75 -0.563,2.062 -1.834,-0.75"
               style="fill:#6e6e6e;fill-opacity:1;fill-rule:nonzero;stroke:none"
               id="path3838"
               inkscape:connector-curvature="0" />
            <path
               d="m 551.186,461.359 0.48,-2.062 1.916,0.75 -0.563,2.062 -1.833,-0.75"
               style="fill:#6e6e6e;fill-opacity:1;fill-rule:nonzero;stroke:none"
               id="path3840"
               inkscape:connector-curvature="0" />
            <path
               d="m 551.499,456.88 0.479,-2.062 1.854,0.145 0,2.334 -2.333,-0.417"
               style="fill:#6e6e6e;fill-opacity:1;fill-rule:nonzero;stroke:none"
               id="path3842"
               inkscape:connector-curvature="0" />
            <path
               d="m 551.416,452.713 0.478,-2.062 1.855,0.146 0,2.333 -2.333,-0.417"
               style="fill:#6e6e6e;fill-opacity:1;fill-rule:nonzero;stroke:none"
               id="path3844"
               inkscape:connector-curvature="0" />
            <path
               d="m 551.416,448.297 0.478,-2.063 1.855,0.146 0,2.333 -2.333,-0.416"
               style="fill:#6e6e6e;fill-opacity:1;fill-rule:nonzero;stroke:none"
               id="path3846"
               inkscape:connector-curvature="0" />
            <path
               d="m 550.916,444.047 0.478,-2.063 1.855,0.146 0,2.333 -2.333,-0.416"
               style="fill:#6e6e6e;fill-opacity:1;fill-rule:nonzero;stroke:none"
               id="path3848"
               inkscape:connector-curvature="0" />
            <path
               d="m 550.832,439.63 -0.333,-2.167 2,-0.333 0.25,2.583 -1.917,-0.083"
               style="fill:#6e6e6e;fill-opacity:1;fill-rule:nonzero;stroke:none"
               id="path3850"
               inkscape:connector-curvature="0" />
            <path
               d="m 550.166,434.88 -0.334,-2.167 2,-0.333 0.25,2.583 -1.916,-0.083"
               style="fill:#6e6e6e;fill-opacity:1;fill-rule:nonzero;stroke:none"
               id="path3852"
               inkscape:connector-curvature="0" />
            <path
               d="m 549.082,430.63 -0.333,-2.417 2,-0.333 0.25,2.583 -1.917,0.167"
               style="fill:#6e6e6e;fill-opacity:1;fill-rule:nonzero;stroke:none"
               id="path3854"
               inkscape:connector-curvature="0" />
            <path
               d="m 548.249,426.213 -0.667,-2.166 2.084,-0.584 0.416,2.084 -1.833,0.666"
               style="fill:#6e6e6e;fill-opacity:1;fill-rule:nonzero;stroke:none"
               id="path3856"
               inkscape:connector-curvature="0" />
            <path
               d="m 546.832,422.213 -1,-2.083 2.25,-0.75 0.667,2.25 -1.917,0.583"
               style="fill:#6e6e6e;fill-opacity:1;fill-rule:nonzero;stroke:none"
               id="path3858"
               inkscape:connector-curvature="0" />
            <path
               d="m 545.249,418.213 -1.167,-2.416 2.25,-0.75 0.917,2.583 -2,0.583"
               style="fill:#6e6e6e;fill-opacity:1;fill-rule:nonzero;stroke:none"
               id="path3860"
               inkscape:connector-curvature="0" />
            <path
               d="m 543.166,414.047 -1.167,-2.417 2.25,-0.75 0.917,2.583 -2,0.584"
               style="fill:#6e6e6e;fill-opacity:1;fill-rule:nonzero;stroke:none"
               id="path3862"
               inkscape:connector-curvature="0" />
            <path
               d="m 540.499,409.713 -1,-1.917 2.083,-1.25 1.25,2.084 -2.333,1.083"
               style="fill:#6e6e6e;fill-opacity:1;fill-rule:nonzero;stroke:none"
               id="path3864"
               inkscape:connector-curvature="0" />
            <path
               d="m 537.666,405.88 -1,-1.917 2.083,-1.25 1.25,2.083 -2.333,1.084"
               style="fill:#6e6e6e;fill-opacity:1;fill-rule:nonzero;stroke:none"
               id="path3866"
               inkscape:connector-curvature="0" />
            <path
               d="m 534.332,401.963 -1,-1.917 2.084,-1.25 1.25,2.084 -2.334,1.083"
               style="fill:#6e6e6e;fill-opacity:1;fill-rule:nonzero;stroke:none"
               id="path3868"
               inkscape:connector-curvature="0" />
            <path
               d="m 531.749,398.713 -1.833,-1.333 2.25,-1.666 1.5,1.582 -1.917,1.417"
               style="fill:#6e6e6e;fill-opacity:1;fill-rule:nonzero;stroke:none"
               id="path3870"
               inkscape:connector-curvature="0" />
            <path
               d="m 528.249,395.796 -1.833,-1.332 2.25,-1.668 1.5,1.584 -1.917,1.416"
               style="fill:#6e6e6e;fill-opacity:1;fill-rule:nonzero;stroke:none"
               id="path3872"
               inkscape:connector-curvature="0" />
            <path
               d="m 524.166,393.214 -1.834,-1.334 2.25,-1.666 1.5,1.582 -1.916,1.418"
               style="fill:#6e6e6e;fill-opacity:1;fill-rule:nonzero;stroke:none"
               id="path3874"
               inkscape:connector-curvature="0" />
            <path
               d="m 520.249,391.046 -1.833,-1.332 2.25,-1.668 1.5,1.584 -1.917,1.416"
               style="fill:#6e6e6e;fill-opacity:1;fill-rule:nonzero;stroke:none"
               id="path3876"
               inkscape:connector-curvature="0" />
            <path
               d="m 516.582,388.88 -2,-0.916 1.667,-1.918 1.667,0.834 -1.334,2"
               style="fill:#6e6e6e;fill-opacity:1;fill-rule:nonzero;stroke:none"
               id="path3878"
               inkscape:connector-curvature="0" />
            <path
               d="m 512.624,387.651 -2,-0.918 1.667,-1.916 1.666,0.834 -1.333,2"
               style="fill:#6e6e6e;fill-opacity:1;fill-rule:nonzero;stroke:none"
               id="path3880"
               inkscape:connector-curvature="0" />
            <path
               d="m 508.374,386.276 -2,-0.918 1.667,-1.916 1.666,0.834 -1.333,2"
               style="fill:#6e6e6e;fill-opacity:1;fill-rule:nonzero;stroke:none"
               id="path3882"
               inkscape:connector-curvature="0" />
            <path
               d="m 499.041,383.464 -2.167,-0.606 1.042,-1.603 2.125,0.125 -1,2.084"
               style="fill:#6e6e6e;fill-opacity:1;fill-rule:nonzero;stroke:none"
               id="path3884"
               inkscape:connector-curvature="0" />
            <path
               d="m 493.791,382.63 -2.48,-0.272 0.355,-1.728 2.375,0.125 -0.25,1.875"
               style="fill:#6e6e6e;fill-opacity:1;fill-rule:nonzero;stroke:none"
               id="path3886"
               inkscape:connector-curvature="0" />
            <path
               d="m 488.541,382.38 -2.375,-0.25 0,-2 2.5,0 -0.125,2.25"
               style="fill:#6e6e6e;fill-opacity:1;fill-rule:nonzero;stroke:none"
               id="path3888"
               inkscape:connector-curvature="0" />
            <path
               d="m 483.666,382.255 -2.375,-0.25 0,-2 2.5,0 -0.125,2.25"
               style="fill:#6e6e6e;fill-opacity:1;fill-rule:nonzero;stroke:none"
               id="path3890"
               inkscape:connector-curvature="0" />
            <path
               d="m 478.416,382.13 -2.375,-0.25 0,-2 2.5,0 -0.125,2.25"
               style="fill:#6e6e6e;fill-opacity:1;fill-rule:nonzero;stroke:none"
               id="path3892"
               inkscape:connector-curvature="0" />
            <path
               d="m 504.582,455.213 0,46"
               style="fill:none;stroke:#000000;stroke-width:1;stroke-linecap:butt;stroke-linejoin:miter;stroke-miterlimit:4;stroke-dasharray:none;stroke-opacity:1"
               id="path3894"
               inkscape:connector-curvature="0" />
            <path
               d="m 536.916,381.88 c -28.555,-0.377 -79.667,1.334 -79.667,71.333 10e-4,23.626 20.223,48 46.667,48 24.209,0 47.978,-21.333 47.645,-47.666 -0.567,-44.832 -23.653,-63.548 -47.937,-68.833 m -4.583,-1.25 c -7.67,-1.203 -17.871,-1.674 -24.125,-1.584"
               style="fill:none;stroke:#000000;stroke-width:0.69999999;stroke-linecap:round;stroke-linejoin:miter;stroke-miterlimit:4;stroke-dasharray:none;stroke-opacity:1"
               id="path3896"
               inkscape:connector-curvature="0" />
            <path
               d="m 474.266,379.956 c 7.896,-0.115 20.587,0.344 29.858,2.34 m 4.417,1.5 c 23,5.084 44.25,25.084 45.41,70.689 0.684,26.887 -25.035,49.728 -49.182,49.666 -25.374,-0.066 -50.273,-22.271 -50.187,-51.021 0.209,-68.916 48.667,-73.25 80.022,-73.145"
               style="fill:none;stroke:#000000;stroke-width:0.69999999;stroke-linecap:round;stroke-linejoin:miter;stroke-miterlimit:4;stroke-dasharray:none;stroke-opacity:1"
               id="path3898"
               inkscape:connector-curvature="0" />
            <path
               d="m 487.793,483.939 c -0.078,0.192 -0.172,0.508 -0.07,0.727 -0.073,0.226 -0.082,0.456 -0.231,0.631 l -0.028,0.094 c 0.061,-0.024 0.142,-0.081 0.196,-0.135 0.072,-0.333 0.272,-0.479 0.152,-0.821 0.04,-0.291 0.094,-0.64 0.378,-0.776 0.033,-0.018 0.067,0.009 0.098,0.013 0.116,0.224 -0.007,0.456 -0.003,0.661 l -0.381,1.152 c 0.037,0 0.083,-0.045 0.102,-0.088 0.156,-0.595 0.559,-1.099 0.442,-1.704 0.002,-0.097 -0.112,-0.11 -0.171,-0.165 -0.263,-0.04 -0.388,0.24 -0.484,0.411"
               style="fill:#000000;fill-opacity:1;fill-rule:nonzero;stroke:none"
               id="path3900"
               inkscape:connector-curvature="0" />
            <path
               d="m 494.813,485.717 c -0.301,0.342 -0.319,0.923 -0.565,1.281 -0.04,0.17 -0.09,0.393 -0.033,0.544 0.095,-0.03 0.045,-0.148 0.088,-0.205 0.088,-0.475 0.328,-0.995 0.507,-1.448 0.047,-0.051 0.074,-0.123 0.149,-0.139 0.089,0.043 0.114,0.142 0.135,0.234 0.013,0.296 -0.094,0.657 -0.352,0.838 -0.069,0.194 -0.136,0.509 -0.17,0.66 0.096,0.022 0.113,0.2 0.219,0.168 -0.272,-0.206 0.049,-0.524 0.034,-0.766 0.038,-0.037 0.074,-0.085 0.126,-0.113 -0.054,0.216 -0.167,0.434 -0.228,0.642 10e-4,0.012 0.019,0.023 0.009,0.041 0.087,0.048 0.061,-0.079 0.119,-0.094 0.159,-0.48 0.365,-0.92 0.71,-1.247 0.054,-0.055 0.072,-0.005 0.134,-0.014 0.082,0.3 -0.091,0.538 -0.287,0.744 l -0.276,0.224 c -0.084,0.228 -0.363,0.511 -0.128,0.737 0.051,-0.06 -0.005,-0.163 -0.003,-0.242 l 0.22,-0.452 c 0.296,-0.176 0.538,-0.448 0.588,-0.795 -0.003,-0.119 0,-0.253 -0.093,-0.339 -0.305,-0.043 -0.425,0.304 -0.585,0.498 0.051,-0.28 0.111,-0.591 -0.08,-0.815 -0.088,-0.048 -0.187,-0.007 -0.238,0.058"
               style="fill:#000000;fill-opacity:1;fill-rule:nonzero;stroke:none"
               id="path3902"
               inkscape:connector-curvature="0" />
            <path
               d="m 487.166,483.569 c -0.111,0.322 -0.15,0.655 0.025,0.928 -0.006,0.166 0.025,0.335 -0.033,0.491 -0.024,-0.496 -0.413,-0.909 -0.825,-1.134 -0.068,-0.042 -0.109,0.043 -0.159,0.066 -0.109,0.242 0.011,0.536 0.188,0.756 0.06,0.093 0.169,0.12 0.255,0.178 l 0.198,0.42 -0.014,0.012 -0.275,-0.291 c -0.229,-0.08 -0.484,-0.215 -0.688,-0.292 -0.079,-0.024 -0.191,-0.03 -0.229,0.06 -0.08,0.182 0.002,0.411 0.131,0.557 0.127,0.118 0.348,0.227 0.522,0.166 0.166,0.076 0.256,0.264 0.424,0.309 l 0.033,-0.017 c -0.11,-0.178 -0.245,-0.299 -0.409,-0.418 -0.207,0.025 -0.476,-0.066 -0.578,-0.264 -0.054,-0.092 -0.064,-0.185 -0.034,-0.284 0.115,-0.058 0.242,0.034 0.343,0.08 0.284,0.074 0.523,0.302 0.724,0.512 0.04,-0.096 0.145,-0.032 0.147,-0.15 -0.086,-0.198 -0.111,-0.512 -0.371,-0.579 -0.182,-0.189 -0.383,-0.431 -0.285,-0.688 0.099,-0.083 0.176,0.042 0.244,0.084 0.356,0.213 0.525,0.624 0.602,1.018 0.021,10e-4 0.037,0 0.056,-0.008 0.04,0.081 -0.141,0.183 0.012,0.211 0.166,-0.213 0.1,-0.535 0.125,-0.763 -0.195,-0.301 -0.125,-0.647 0.01,-0.94 0.052,-0.066 0.123,-0.012 0.13,0.039 0.196,0.462 0.077,0.932 0.02,1.411 0.014,0.047 0.022,0.093 0.035,0.14 0.114,-0.149 0.076,-0.311 0.112,-0.468 0.037,-0.393 0.093,-0.822 -0.093,-1.207 -0.098,-0.142 -0.277,-0.049 -0.343,0.065"
               style="fill:#000000;fill-opacity:1;fill-rule:nonzero;stroke:none"
               id="path3904"
               inkscape:connector-curvature="0" />
            <path
               d="m 495.992,486.909 c -0.404,0.127 -0.71,0.359 -0.938,0.689 0.003,0.028 0.026,0.041 0.051,0.043 0.224,-0.133 0.313,-0.38 0.572,-0.487 0.207,-0.1 0.443,-0.17 0.675,-0.15 -0.028,0.219 -0.258,0.339 -0.456,0.409 -0.347,-0.082 -0.448,0.292 -0.736,0.389 -0.006,0.074 -0.037,0.161 0.038,0.217 0.005,-0.269 0.321,-0.282 0.474,-0.468 0.301,0.02 0.582,-0.134 0.74,-0.388 0.061,-0.112 0.037,-0.232 -0.06,-0.287 -0.108,-10e-4 -0.239,0.02 -0.36,0.033"
               style="fill:#000000;fill-opacity:1;fill-rule:nonzero;stroke:none"
               id="path3906"
               inkscape:connector-curvature="0" />
            <path
               d="m 489.936,485.6 c -0.038,0.075 -0.026,0.181 -0.031,0.271 -0.07,0 -0.13,-0.033 -0.184,0.026 l -0.009,0.46 0.044,0.014 0.004,-0.01 c 0.778,0.258 1.61,0.501 2.487,0.595 l 0.093,0.071 c 0.091,-0.199 0.103,-0.352 0.19,-0.552 -0.034,-0.064 -0.076,-0.033 -0.139,-0.057 -0.001,-0.087 0.049,-0.164 0.095,-0.231 l -0.013,-0.042 c -0.834,-0.237 -1.719,-0.393 -2.537,-0.545 z"
               style="fill:#000000;fill-opacity:1;fill-rule:nonzero;stroke:#000000;stroke-width:0.33000001;stroke-linecap:butt;stroke-linejoin:miter;stroke-miterlimit:4;stroke-dasharray:none;stroke-opacity:1"
               id="path3908"
               inkscape:connector-curvature="0" />
            <path
               d="m 490.035,485.743 -0.031,0.158 c 0.74,0.192 1.506,0.367 2.254,0.493 l 0.078,-0.17 c -0.74,-0.194 -1.526,-0.374 -2.301,-0.481"
               style="fill:#ffffff;fill-opacity:1;fill-rule:nonzero;stroke:none"
               id="path3910"
               inkscape:connector-curvature="0" />
            <path
               d="m 489.825,485.976 -0.005,0.053 c 0.783,0.244 1.676,0.446 2.545,0.564 l 0.033,-0.055 c -0.798,-0.157 -1.728,-0.358 -2.573,-0.562"
               style="fill:#ffffff;fill-opacity:1;fill-rule:nonzero;stroke:none"
               id="path3912"
               inkscape:connector-curvature="0" />
            <path
               d="m 495.31,487.95 c -0.012,0.023 -0.013,0.044 0.008,0.066 0.158,-0.007 0.318,-0.056 0.475,-0.079 0.224,0.066 0.481,0.03 0.668,0.144 0.015,0.081 -0.053,0.141 -0.112,0.162 -0.192,0.082 -0.447,0.071 -0.595,-0.048 -0.188,-0.111 -0.381,0.015 -0.569,0.051 -0.025,0.03 0.009,0.041 0.02,0.059 0.225,0.002 0.438,-0.133 0.639,0.061 0.207,0.063 0.418,0.098 0.588,-0.056 0.054,-0.075 0.147,-0.155 0.117,-0.267 -0.133,-0.19 -0.442,-0.223 -0.651,-0.242 -0.197,0.032 -0.396,0.07 -0.588,0.149"
               style="fill:#000000;fill-opacity:1;fill-rule:nonzero;stroke:none"
               id="path3914"
               inkscape:connector-curvature="0" />
            <path
               d="m 489.055,486.086 c -0.034,-0.01 -0.066,0.002 -0.098,0.019 -0.027,0.094 -0.066,0.212 -0.039,0.312 0.975,0.618 2.246,0.777 3.395,1 0.278,0.045 0.591,0.096 0.865,0.102 0.069,-0.125 0.095,-0.231 0.091,-0.361 -1.421,-0.111 -3.003,-0.383 -4.214,-1.072"
               style="fill:#000000;fill-opacity:1;fill-rule:nonzero;stroke:none"
               id="path3916"
               inkscape:connector-curvature="0" />
            <path
               d="m 487.75,485.697 c -0.082,0.31 -0.44,0.047 -0.543,0.34 l -0.088,0.351 0.034,0.009 c 0.064,-0.143 0.091,-0.322 0.242,-0.379 0.088,-0.045 0.181,-0.027 0.273,-0.011 0.111,-0.069 0.141,-0.238 0.309,-0.242 0.15,0.023 0.292,0.104 0.384,0.228 0.098,0.163 0.152,0.341 0.053,0.511 -0.119,0.002 -0.2,-0.125 -0.289,-0.205 -0.053,-0.058 -0.096,-0.131 -0.187,-0.147 -0.179,0.108 -0.106,0.479 -0.348,0.478 -0.096,0.014 -0.185,0.042 -0.242,0.11 -0.004,0.478 0.049,0.953 0.107,1.427 -0.098,0.079 -0.262,0.104 -0.398,0.113 -0.094,-0.502 -0.131,-1.03 -0.131,-1.552 -0.151,-0.072 -0.278,-0.152 -0.315,-0.336 -0.014,-0.134 0.039,-0.22 0.099,-0.332 l -0.019,-0.031 c -0.095,0.019 -0.123,0.124 -0.164,0.209 -0.044,0.186 0.002,0.41 0.163,0.538 0.029,0.014 0.056,0.033 0.091,0.038 0.016,0.457 0.084,0.93 0.129,1.358 -0.018,-0.011 -0.029,0.007 -0.041,0.014 -0.006,-0.018 -0.014,-0.084 -0.05,-0.052 -0.046,0.062 -0.092,0.128 -0.137,0.19 0.345,0.179 0.752,-0.013 1.053,-0.192 0.05,-0.06 0.141,-0.13 0.105,-0.227 -0.049,-0.035 -0.121,-0.047 -0.175,-0.01 -0.023,0.025 0.013,0.031 0.024,0.046 0.012,-0.003 0.014,0.009 0.022,0.017 l -0.155,0.035 c -0.084,-0.387 -0.093,-0.809 -0.119,-1.215 0.143,-0.044 0.323,-0.032 0.426,-0.158 l 0.104,-0.314 c 0.187,0.056 0.304,0.424 0.545,0.264 0.116,-0.153 0.093,-0.349 0.023,-0.509 -0.146,-0.265 -0.49,-0.561 -0.785,-0.364"
               style="fill:#000000;fill-opacity:1;fill-rule:nonzero;stroke:none"
               id="path3918"
               inkscape:connector-curvature="0" />
            <path
               d="m 493.449,487.6 c -0.063,0.088 -0.149,0.213 -0.13,0.311 0.011,0.073 0.098,0.105 0.163,0.102 0.1,-0.028 0.211,-0.094 0.305,-0.027 0.156,0.18 -0.126,0.349 0.104,0.52 0.065,0.068 0.136,0.138 0.176,0.236 -0.26,0.353 -0.5,0.723 -0.813,1.034 -0.031,-0.021 -0.086,-0.09 -0.125,-0.14 l 0.091,10e-4 c -0.029,-0.101 -0.135,-0.182 -0.251,-0.205 -0.12,0.186 0.084,0.386 0.171,0.546 0.174,0.246 0.4,0.426 0.676,0.546 0.087,-0.092 -10e-4,-0.193 -0.037,-0.306 -0.072,-0.049 -0.034,0.113 -0.09,0.011 l 0.135,-0.166 c 0.094,0.174 0.276,0.379 0.178,0.582 -0.123,0.065 -0.256,-0.007 -0.377,0.017 -0.005,0.106 0.032,0.236 -0.048,0.325 -0.449,-0.118 -0.76,-0.506 -0.975,-0.888 -0.014,-0.075 -0.088,-0.188 0.004,-0.231 0.072,-0.021 0.162,0.005 0.22,-0.047 0.011,-0.164 -0.135,-0.326 -0.051,-0.484 0.226,-0.159 0.387,0.148 0.563,0.248 0.023,-0.009 0.035,-0.028 0.041,-0.051 -0.152,-0.192 -0.305,-0.382 -0.585,-0.386 -0.102,0.057 -0.163,0.189 -0.168,0.312 0.001,0.086 0.036,0.188 0.065,0.255 -0.101,-0.008 -0.203,0.01 -0.251,0.103 -0.1,0.208 0.291,0.465 -0.071,0.577 l -0.287,0.404 c -0.234,0.119 -0.432,0.239 -0.651,0.415 l -0.021,0.07 c 0.24,-0.102 0.447,-0.271 0.721,-0.341 0.167,-0.181 0.342,-0.355 0.488,-0.554 0.168,0.157 0.297,0.358 0.498,0.497 -0.177,0.304 -0.399,0.582 -0.664,0.799 -0.084,-0.008 -0.078,-0.227 -0.187,-0.148 -0.251,0.282 -0.54,0.567 -0.922,0.62 l -0.077,0.042 c 0.034,0.031 0.135,0.051 0.2,0.016 0.29,-0.053 0.625,-0.255 0.808,-0.491 0.046,0.046 0.084,0.187 0.19,0.143 0.312,-0.22 0.521,-0.577 0.725,-0.92 0.124,0.09 0.335,0.229 0.488,0.134 0.142,-0.044 -0.004,-0.292 0.148,-0.317 0.072,0.028 0.18,0.049 0.244,-0.008 0.071,-0.016 0.086,-0.071 0.117,-0.121 0,-0.252 -0.189,-0.411 -0.322,-0.613 l 0.686,-0.878 c 0.154,-0.029 0.34,-0.038 0.452,-0.161 0.06,-0.149 0.09,-0.34 0.009,-0.466 -0.102,0.056 -0.008,0.171 -0.04,0.263 -0.065,0.217 -0.339,0.179 -0.515,0.245 -0.245,0.444 -0.607,0.794 -0.918,1.185 -0.104,-0.051 -0.187,-0.164 -0.273,-0.258 0.307,-0.345 0.587,-0.708 0.834,-1.098 0.134,-0.202 -0.102,-0.385 -0.196,-0.521 0.032,-0.109 0.079,-0.247 0.026,-0.358 -0.039,-0.087 -0.118,-0.148 -0.216,-0.141 -0.097,0.015 -0.207,0.079 -0.293,0.043 -0.023,-0.142 0.117,-0.23 0.218,-0.297 0.094,-0.03 0.191,-0.044 0.296,-0.002 0.161,0.074 0.125,0.269 0.186,0.405 0.143,0.01 0.281,0.068 0.326,0.21 0.057,0.13 0.069,0.274 0.027,0.396 0.032,0.02 0.053,-0.017 0.083,-0.024 0.082,-0.202 0.066,-0.423 -0.089,-0.571 -0.052,-0.058 -0.155,-0.073 -0.236,-0.08 -0.042,-0.142 -0.066,-0.349 -0.224,-0.417 -0.199,-0.091 -0.41,-0.014 -0.559,0.103"
               style="fill:#000000;fill-opacity:1;fill-rule:nonzero;stroke:none"
               id="path3920"
               inkscape:connector-curvature="0" />
            <path
               d="m 489.055,486.215 c -0.041,0.172 0.011,0.156 0.136,0.245 1.264,0.581 2.641,0.825 3.934,0.967 l 0.077,-0.171 c -1.421,-0.165 -2.856,-0.355 -4.147,-1.041"
               style="fill:#000000;fill-opacity:1;fill-rule:nonzero;stroke:none"
               id="path3922"
               inkscape:connector-curvature="0" />
            <path
               d="m 492.205,487.476 c 0.178,0.199 0.451,0.308 0.616,0.534 0.036,0.059 0.102,0.111 0.103,0.182 -0.172,0.142 -0.429,-0.027 -0.619,-0.039 l -0.6,-0.243 c -0.029,0.006 -0.042,0.029 -0.033,0.054 0.127,0.205 0.354,0.348 0.553,0.498 0.023,0.95 -0.303,2.118 -1.257,2.571 -0.28,0.111 -0.552,0.136 -0.85,0.162 -0.042,0.047 0.03,0.057 0.026,0.088 0.534,0.072 1.189,-0.174 1.565,-0.621 0.449,-0.625 0.672,-1.588 0.575,-2.402 0.259,0.05 0.504,0.187 0.718,0.008 0.111,-0.171 -0.083,-0.314 -0.176,-0.439 -0.185,-0.137 -0.361,-0.286 -0.589,-0.37 l -0.032,0.017"
               style="fill:#000000;fill-opacity:1;fill-rule:nonzero;stroke:none"
               id="path3924"
               inkscape:connector-curvature="0" />
            <path
               d="m 489.264,486.778 c -0.229,0.099 -0.26,0.456 -0.266,0.675 -0.006,0.165 0.054,0.344 0.146,0.468 -0.312,0.413 -0.416,1.034 -0.38,1.53 -0.07,-0.005 -0.153,0.024 -0.192,0.083 -0.164,0.188 0.131,0.388 -0.056,0.537 -0.036,0.13 0.095,0.217 0.148,0.33 0.135,0.325 0.123,0.634 0.174,0.967 l 0.07,0.02 c 0.113,-0.127 0.193,-0.287 0.336,-0.389 0.219,0.205 0.465,0.375 0.684,0.58 0.025,-0.009 0.035,-0.027 0.037,-0.053 l -0.727,-0.723 c -0.131,0.058 -0.212,0.206 -0.269,0.345 l -0.033,0.018 c 0.011,-0.342 -0.12,-0.757 -0.342,-1.055 0.023,-0.058 0.049,-0.109 0.105,-0.141 0.006,-0.128 -0.138,-0.257 -0.031,-0.382 l 0.105,-0.049 0.048,0.187 c -0.02,0.016 -0.036,-0.059 -0.071,-0.011 0.122,0.327 0.385,0.621 0.584,0.896 0.24,0.26 0.476,0.584 0.666,0.889 0.021,-0.016 0.053,0.003 0.071,-0.024 -0.143,-0.402 -0.485,-0.736 -0.719,-1.091 -0.235,-0.35 -0.593,-0.721 -0.476,-1.186 0.042,-0.284 0.046,-0.589 0.179,-0.851 0.248,-0.073 0.496,-0.203 0.593,-0.442 -0.107,-0.054 -0.234,0.063 -0.336,0.011 -0.195,-0.143 -0.267,-0.44 -0.195,-0.703 0.039,-0.096 0.044,-0.257 0.158,-0.314 0.107,-0.049 0.244,-0.008 0.332,0.061 0.084,0.063 0.145,0.147 0.219,0.222 0.093,-0.021 0.027,-0.126 -0.007,-0.158 -0.108,-0.178 -0.347,-0.33 -0.555,-0.247"
               style="fill:#000000;fill-opacity:1;fill-rule:nonzero;stroke:none"
               id="path3926"
               inkscape:connector-curvature="0" />
            <path
               d="m 489.294,487.11 c -0.039,0.059 -0.054,0.14 -0.095,0.193 0.072,0.059 0.123,-0.196 0.215,-0.039 0.113,0.126 -0.16,0.125 -0.095,0.285 0.023,0.141 0.185,0.194 0.3,0.201 l 0.045,-0.023 c -0.012,-0.068 -0.117,-0.111 -0.139,-0.182 0.041,-0.069 0.135,-0.072 0.159,-0.136 0,-0.124 -0.102,-0.234 -0.192,-0.315 -0.071,-0.032 -0.14,-0.031 -0.198,0.016"
               style="fill:#000000;fill-opacity:1;fill-rule:nonzero;stroke:none"
               id="path3928"
               inkscape:connector-curvature="0" />
            <path
               d="m 490.266,487.659 c -0.099,0.675 -0.446,1.406 -0.319,2.117 0.065,0.111 0.137,0.229 0.272,0.248 0.095,0.04 0.193,-0.002 0.265,-0.061 0.266,-0.454 0.178,-1.008 0.325,-1.519 0.185,-0.101 0.367,-0.186 0.494,-0.36 -0.01,-0.023 -0.035,-0.047 -0.057,-0.026 -0.109,0.117 -0.287,0.15 -0.436,0.128 -0.258,-0.093 -0.454,-0.377 -0.468,-0.656 -0.075,-0.033 -0.073,0.086 -0.076,0.129"
               style="fill:#000000;fill-opacity:1;fill-rule:nonzero;stroke:none"
               id="path3930"
               inkscape:connector-curvature="0" />
            <path
               d="m 487.592,487.653 c -0.007,0.025 0.013,0.101 0.07,0.07 0.137,0.013 0.334,-0.052 0.419,0.113 0.048,0.202 -0.179,0.314 -0.232,0.475 0.026,0.056 0.116,0.041 0.157,0.085 -0.033,0.184 -0.221,0.289 -0.376,0.394 -0.294,0.139 -0.691,0.312 -1.013,0.096 -0.078,-0.119 0.133,-0.196 0.091,-0.306 -0.07,-0.091 -0.232,-0.09 -0.258,-0.222 0.073,-0.189 0.251,-0.298 0.402,-0.424 l -0.039,-0.05 c -0.221,0.144 -0.46,0.294 -0.502,0.561 0.027,0.111 0.124,0.162 0.228,0.197 -0.025,0.084 -0.148,0.209 -0.055,0.308 0.103,0.127 0.215,0.128 0.376,0.165 -0.014,0.34 0.003,0.696 0.21,0.993 -0.068,0.12 -0.04,0.264 -0.029,0.39 0.082,0.1 0.228,0.138 0.318,0.198 0.088,0.3 0.17,0.567 0.287,0.861 -0.081,0.061 -0.185,0.132 -0.171,0.234 l 0.057,0.093 c -0.102,0.055 -0.223,0.116 -0.241,0.251 0.227,0.449 0.666,0.634 1.098,0.833 l 0.033,-0.018 c -0.297,-0.287 -0.834,-0.383 -0.967,-0.804 0.035,-0.103 0.158,-0.136 0.24,-0.16 0.104,0.09 0.182,0.226 0.277,0.303 l 0.01,-0.035 c -0.083,-0.192 -0.213,-0.349 -0.349,-0.491 0.025,-0.031 0.041,-0.063 0.08,-0.084 0.363,0.044 0.477,0.384 0.67,0.603 l 0.019,-0.01 c -0.103,-0.193 -0.124,-0.452 -0.299,-0.607 l -0.337,-0.202 c -0.138,-0.278 -0.163,-0.592 -0.307,-0.85 -0.072,-0.086 -0.191,-0.046 -0.254,-0.141 -0.027,-0.11 0.025,-0.229 0.037,-0.339 -0.133,-0.227 -0.232,-0.489 -0.239,-0.755 0.292,0.012 0.556,-0.13 0.808,-0.292 0.044,0.234 0.358,0.337 0.292,0.593 l -0.068,0.265 c 0.1,0.116 0.191,0.246 0.262,0.386 l 0.119,-0.057 c 0.088,0.123 0.168,0.287 0.166,0.437 l 0.07,0.021 c 0.043,-0.219 -0.108,-0.436 -0.209,-0.6 -0.048,-0.042 -0.052,0.032 -0.097,0.034 -0.061,-0.104 -0.164,-0.209 -0.108,-0.342 0.039,-0.081 0.077,-0.151 0.061,-0.242 -0.059,-0.163 -0.219,-0.237 -0.299,-0.385 -0.032,-0.166 -0.287,-0.413 -0.037,-0.528 0.084,-0.067 0.17,-0.154 0.201,-0.279 -0.008,-0.083 -0.087,-0.106 -0.137,-0.154 0.081,-0.094 0.205,-0.239 0.221,-0.402 -0.052,-0.129 -0.199,-0.211 -0.334,-0.213 -0.11,-0.027 -0.223,0.008 -0.322,0.033"
               style="fill:#000000;fill-opacity:1;fill-rule:nonzero;stroke:none"
               id="path3932"
               inkscape:connector-curvature="0" />
            <path
               d="m 491.168,491.173 c 0.066,0.177 0.127,0.372 0.074,0.55 -0.183,-0.108 -0.16,-0.478 -0.451,-0.403 -0.146,0.053 -0.332,0.067 -0.465,0.169 l 0.011,0.018 c 0.2,0.017 0.49,-0.181 0.603,0.051 0.086,0.111 0.12,0.267 0.282,0.304 0.182,-0.123 0.112,-0.322 0.111,-0.5 -0.044,-0.088 -0.045,-0.228 -0.149,-0.239 l -0.016,0.05"
               style="fill:#000000;fill-opacity:1;fill-rule:nonzero;stroke:none"
               id="path3934"
               inkscape:connector-curvature="0" />
            <path
               d="m 490.519,491.546 c 0.125,0.699 0.135,1.461 -0.004,2.13 0.118,-10e-4 0.216,-0.022 0.321,-0.083 0.084,-0.684 0.086,-1.427 -0.108,-2.098 -0.084,-0.009 -0.13,0.025 -0.209,0.051"
               style="fill:#02a0e9;fill-opacity:1;fill-rule:nonzero;stroke:none"
               id="path3936"
               inkscape:connector-curvature="0" />
            <path
               d="m 489.1,491.268 c -0.051,0.55 -0.206,1.145 -0.396,1.637 0.089,0.081 0.189,0.16 0.296,0.217 0.016,-0.016 0.035,0.006 0.051,0.005 0.238,-0.63 0.347,-1.216 0.357,-1.848 -0.017,-0.118 -0.07,-0.139 -0.176,-0.182 l -0.132,0.171"
               style="fill:#02a0e9;fill-opacity:1;fill-rule:nonzero;stroke:none"
               id="path3938"
               inkscape:connector-curvature="0" />
            <path
               d="m 489.945,491.806 c 0.094,0.248 0.158,0.504 0.321,0.752 -0.085,0.087 -0.288,0.098 -0.259,0.274 0.073,0.17 0.214,0.331 0.303,0.503 -0.021,0.177 -0.214,0.265 -0.256,0.424 0.059,-0.019 0.13,-0.091 0.186,-0.121 0.094,-0.059 0.186,-0.112 0.212,-0.223 0.03,-0.265 -0.259,-0.378 -0.358,-0.585 0.042,-0.161 0.282,-0.1 0.322,-0.254 -0.164,-0.314 -0.314,-0.546 -0.445,-0.854 l -0.026,0.084"
               style="fill:#000000;fill-opacity:1;fill-rule:nonzero;stroke:none"
               id="path3940"
               inkscape:connector-curvature="0" />
            <path
               d="m 491.012,492.403 c 0.015,0.306 0.287,0.5 0.465,0.736 0,0.216 -0.297,0.24 -0.441,0.359 l 0.05,0.052 c 0.159,-0.157 0.551,-0.061 0.562,-0.376 -0.16,-0.29 -0.453,-0.463 -0.56,-0.77 -0.025,-0.007 -0.053,-0.026 -0.076,-10e-4"
               style="fill:#000000;fill-opacity:1;fill-rule:nonzero;stroke:none"
               id="path3942"
               inkscape:connector-curvature="0" />
            <path
               d="m 489.724,492.046 c -0.014,0.174 0.067,0.316 0.194,0.435 0.037,0.016 0.125,0.032 0.15,-0.036 0.016,-0.146 -0.1,-0.316 -0.202,-0.405 -0.048,-0.02 -0.102,-0.036 -0.142,0.006"
               style="fill:#000000;fill-opacity:1;fill-rule:nonzero;stroke:none"
               id="path3944"
               inkscape:connector-curvature="0" />
            <path
               d="m 497.15,501.918 c 0.233,0.338 0.013,0.786 -0.491,0.999 -0.503,0.213 -1.099,0.112 -1.333,-0.226 -0.232,-0.339 -0.011,-0.785 0.492,-0.998 0.502,-0.215 1.1,-0.112 1.332,0.225 z"
               style="fill:#ffffff;fill-opacity:1;fill-rule:nonzero;stroke:#000000;stroke-width:0.352;stroke-linecap:butt;stroke-linejoin:miter;stroke-miterlimit:4;stroke-dasharray:none;stroke-opacity:1"
               id="path3946"
               inkscape:connector-curvature="0" />
            <path
               d="m 496.627,502.123 c 0.09,0.13 0.005,0.303 -0.19,0.385 -0.194,0.083 -0.423,0.043 -0.513,-0.086 -0.09,-0.132 -0.006,-0.303 0.189,-0.386 0.194,-0.081 0.425,-0.043 0.514,0.087"
               style="fill:#000000;fill-opacity:1;fill-rule:nonzero;stroke:none"
               id="path3948"
               inkscape:connector-curvature="0" />
            <path
               d="m 487.674,498.55 c 0.232,0.339 0.014,0.785 -0.49,0.999 -0.504,0.213 -1.1,0.112 -1.333,-0.226 -0.233,-0.338 -0.013,-0.785 0.49,-0.999 0.505,-0.213 1.1,-0.112 1.333,0.226 z"
               style="fill:#ffffff;fill-opacity:1;fill-rule:nonzero;stroke:#000000;stroke-width:0.352;stroke-linecap:butt;stroke-linejoin:miter;stroke-miterlimit:4;stroke-dasharray:none;stroke-opacity:1"
               id="path3950"
               inkscape:connector-curvature="0" />
            <path
               d="m 487.152,498.755 c 0.089,0.131 0.004,0.303 -0.189,0.386 -0.195,0.082 -0.426,0.043 -0.516,-0.088 -0.09,-0.13 -0.004,-0.304 0.19,-0.385 0.195,-0.083 0.424,-0.043 0.515,0.087"
               style="fill:#000000;fill-opacity:1;fill-rule:nonzero;stroke:none"
               id="path3952"
               inkscape:connector-curvature="0" />
            <path
               d="m 493.388,494.983 -0.876,-1.449 -7.458,-2.202 0.778,6.835 11.759,4.299 2.645,-4.484 -6.848,-2.999"
               style="fill:#df0071;fill-opacity:1;fill-rule:nonzero;stroke:none"
               id="path3954"
               inkscape:connector-curvature="0" />
            <path
               d="m 487.744,493.403 c 2.47,3.048 7.247,3.567 8.871,5.815 0.967,1.337 0.639,0.819 0.871,2.303 0.005,0.031 -0.58,-0.519 -0.718,-0.718 -0.98,-1.408 -3.76,-3.451 -6.627,-4.396 -2.575,-0.849 -2.806,-3.51 -2.397,-3.004 z"
               style="fill:#ffffff;fill-opacity:1;fill-rule:nonzero;stroke:#ffffff;stroke-width:0.122;stroke-linecap:butt;stroke-linejoin:miter;stroke-miterlimit:4;stroke-dasharray:none;stroke-opacity:1"
               id="path3956"
               inkscape:connector-curvature="0" />
            <path
               d="m 486.648,495.076 c 2.875,2.671 7.534,3.112 9.542,5.025 1.093,1.042 0.167,0.139 1.335,1.739 -0.408,-0.56 -0.492,-0.448 -0.116,-0.24 -2.352,-1.297 -4.083,-2.583 -6.751,-3.062 -2.669,-0.479 -4.486,-3.906 -4.01,-3.462 z"
               style="fill:#ffffff;fill-opacity:1;fill-rule:nonzero;stroke:#ffffff;stroke-width:0.122;stroke-linecap:butt;stroke-linejoin:miter;stroke-miterlimit:4;stroke-dasharray:none;stroke-opacity:1"
               id="path3958"
               inkscape:connector-curvature="0" />
            <path
               d="m 493.016,495.116 -0.737,-1.287 -6.741,-1.931 0.677,5.93 11.31,4.012 2.133,-3.737 -6.642,-2.987 z"
               style="fill:none;stroke:#ffffff;stroke-width:0.40000001;stroke-linecap:butt;stroke-linejoin:miter;stroke-miterlimit:4;stroke-dasharray:none;stroke-opacity:1"
               id="path3960"
               inkscape:connector-curvature="0" />
            <path
               d="m 487.614,389.852 c -0.473,-0.13 -0.617,-0.71 -0.318,-1.296 0.3,-0.584 0.927,-0.95 1.401,-0.819 0.476,0.133 0.618,0.713 0.319,1.297 -0.299,0.586 -0.927,0.951 -1.402,0.818 z"
               style="fill:#ffffff;fill-opacity:1;fill-rule:nonzero;stroke:#000000;stroke-width:0.352;stroke-linecap:butt;stroke-linejoin:miter;stroke-miterlimit:4;stroke-dasharray:none;stroke-opacity:1"
               id="path3962"
               inkscape:connector-curvature="0" />
            <path
               d="m 487.938,389.263 c -0.184,-0.051 -0.238,-0.276 -0.123,-0.502 0.117,-0.225 0.358,-0.365 0.54,-0.315 0.184,0.051 0.239,0.276 0.123,0.5 -0.116,0.227 -0.357,0.367 -0.54,0.317"
               style="fill:#000000;fill-opacity:1;fill-rule:nonzero;stroke:none"
               id="path3964"
               inkscape:connector-curvature="0" />
            <path
               d="m 496.785,386.399 c -0.475,-0.132 -0.615,-0.713 -0.317,-1.296 0.3,-0.585 0.926,-0.952 1.401,-0.819 0.475,0.131 0.617,0.713 0.319,1.295 -0.3,0.586 -0.928,0.951 -1.403,0.82 z"
               style="fill:#ffffff;fill-opacity:1;fill-rule:nonzero;stroke:#000000;stroke-width:0.352;stroke-linecap:butt;stroke-linejoin:miter;stroke-miterlimit:4;stroke-dasharray:none;stroke-opacity:1"
               id="path3966"
               inkscape:connector-curvature="0" />
            <path
               d="m 497.109,385.808 c -0.183,-0.051 -0.238,-0.276 -0.123,-0.5 0.116,-0.227 0.358,-0.368 0.541,-0.317 0.183,0.051 0.239,0.276 0.122,0.5 -0.116,0.225 -0.356,0.367 -0.54,0.317"
               style="fill:#000000;fill-opacity:1;fill-rule:nonzero;stroke:none"
               id="path3968"
               inkscape:connector-curvature="0" />
            <path
               d="m 495.388,392.759 1.608,0.529 7.094,-3.188 -5.043,-4.679 -11.723,4.398 0.914,5.125 7.15,-2.185"
               style="fill:#02a0e9;fill-opacity:1;fill-rule:nonzero;stroke:none"
               id="path3970"
               inkscape:connector-curvature="0" />
            <path
               d="m 500.699,390.282 c -3.859,-0.705 -7.822,2.014 -10.518,1.365 -1.605,-0.384 -1.019,-0.203 -2.162,-1.179 -0.023,-0.02 0.778,0.015 1.012,0.078 1.661,0.429 5.102,0.168 7.893,-0.983 2.506,-1.033 4.415,0.834 3.775,0.719 z"
               style="fill:#ffffff;fill-opacity:1;fill-rule:nonzero;stroke:#ffffff;stroke-width:0.122;stroke-linecap:butt;stroke-linejoin:miter;stroke-miterlimit:4;stroke-dasharray:none;stroke-opacity:1"
               id="path3972"
               inkscape:connector-curvature="0" />
            <path
               d="m 500.439,388.298 c -3.92,-0.155 -7.742,2.547 -10.511,2.402 -1.508,-0.078 -0.217,0.004 -2.146,-0.449 0.675,0.16 0.665,0.02 0.245,0.107 2.628,-0.549 4.78,-0.701 7.116,-2.076 2.336,-1.373 5.948,0.041 5.296,0.016 z"
               style="fill:#ffffff;fill-opacity:1;fill-rule:nonzero;stroke:#ffffff;stroke-width:0.122;stroke-linecap:butt;stroke-linejoin:miter;stroke-miterlimit:4;stroke-dasharray:none;stroke-opacity:1"
               id="path3974"
               inkscape:connector-curvature="0" />
            <path
               d="m 495.584,392.415 1.396,0.498 6.373,-2.928 -4.376,-4.056 -11.195,4.322 0.817,4.226 6.985,-2.062 z"
               style="fill:none;stroke:#ffffff;stroke-width:0.40000001;stroke-linecap:butt;stroke-linejoin:miter;stroke-miterlimit:4;stroke-dasharray:none;stroke-opacity:1"
               id="path3976"
               inkscape:connector-curvature="0" />
            <path
               d="m 507.117,396.876 c -0.074,-0.467 -0.476,-0.766 -0.893,-0.912 0.359,0.261 0.871,0.559 0.78,1.1 -0.199,0.469 -0.691,0.719 -1.186,0.867 -0.14,0.023 -0.314,0.047 -0.471,0.049 0.105,0.097 0.29,0.019 0.432,0.016 0.625,-0.104 1.299,-0.45 1.338,-1.12"
               style="fill:#000000;fill-opacity:1;fill-rule:nonzero;stroke:none"
               id="path3978"
               inkscape:connector-curvature="0" />
            <path
               d="m 505.309,397.895 0.037,-0.1 c -0.582,0.656 -1.528,1.248 -2.442,1.155 -0.199,0.001 -0.203,-0.191 -0.201,-0.322 0.295,-0.984 1.369,-1.552 2.311,-1.67 0.044,0.021 0.114,0.009 0.127,-0.009 -0.157,-0.088 -0.358,0.106 -0.469,-0.049 -0.109,-0.197 -0.042,-0.442 0.074,-0.61 0.356,-0.334 0.912,-0.379 1.361,-0.191 0.256,0.095 0.461,0.277 0.532,0.555 -0.02,0.228 -0.274,0.213 -0.424,0.274 -0.325,0.024 -0.735,-0.031 -0.98,-0.284 -0.073,-0.056 -0.085,-0.174 -0.007,-0.23 0.325,-0.146 0.706,-0.169 0.994,0.044 0.028,0.063 0.003,0.129 -0.04,0.169 -0.196,0.069 -0.412,0.043 -0.602,-0.056 0.088,-0.122 0.253,-0.046 0.385,-0.058 -0.127,-0.024 -0.287,-0.09 -0.42,0.025 0.117,0.201 0.407,0.159 0.609,0.136 0.058,-0.04 0.124,-0.091 0.115,-0.169 -0.144,-0.215 -0.404,-0.242 -0.64,-0.217 -0.157,0.03 -0.353,0.022 -0.47,0.158 -0.044,0.116 0.046,0.192 0.095,0.286 0.402,0.25 0.914,0.32 1.326,0.093 0.055,-0.046 0.083,-0.134 0.074,-0.199 -0.082,-0.348 -0.449,-0.551 -0.781,-0.635 -0.336,-0.074 -0.678,-0.043 -1.01,0.164 -0.073,-0.07 -0.027,-0.195 0.028,-0.273 0.293,-0.291 0.735,-0.299 1.109,-0.229 -0.373,-0.16 -0.848,-0.131 -1.187,0.18 -0.072,-0.008 -0.046,-0.088 -0.04,-0.133 0.112,-0.283 0.493,-0.414 0.772,-0.432 l 0.33,0.03 c -0.132,-0.078 -0.303,-0.063 -0.451,-0.057 -0.25,0.039 -0.549,0.166 -0.686,0.381 -0.047,-0.027 -0.053,-0.088 -0.08,-0.131 0.121,-0.355 0.564,-0.529 0.901,-0.557 -0.334,-0.054 -0.748,0.153 -0.962,0.422 -0.046,0.11 -0.034,0.256 0.065,0.327 0.051,0.066 -0.037,0.189 0.066,0.251 -0.036,0.071 -0.05,0.161 -0.02,0.243 -0.165,0.15 -0.314,0.354 -0.339,0.6 -0.541,0.155 -0.914,0.496 -1.232,0.914 -0.258,0.068 -0.561,0.172 -0.836,0.05 0.104,-0.302 0.482,-0.405 0.744,-0.585 -0.878,-0.212 -1.526,-0.915 -1.809,-1.843 -0.176,-0.736 0.192,-1.472 0.702,-1.951 -0.003,-0.142 0.059,-0.308 0.016,-0.431 -0.112,0.097 -0.075,0.3 -0.144,0.455 -0.26,0.318 -0.595,0.594 -0.677,1.048 -0.225,0.883 0.335,1.844 0.997,2.382 l 0.622,0.39 c -0.198,0.153 -0.511,0.28 -0.49,0.552 0.047,0.089 0.159,0.079 0.24,0.091 0.209,-0.006 0.418,-0.032 0.621,-0.083 -0.262,0.27 -0.519,0.674 -0.458,1.065 0.03,0.172 0.22,0.182 0.347,0.22 0.867,-0.009 1.735,-0.532 2.297,-1.156"
               style="fill:#000000;fill-opacity:1;fill-rule:nonzero;stroke:none"
               id="path3980"
               inkscape:connector-curvature="0" />
            <path
               d="m 504.966,397.473 c -0.041,-0.167 -0.228,-0.185 -0.363,-0.179 -0.683,0.112 -1.29,0.606 -1.556,1.213 -0.006,0.078 0.07,0.126 0.099,0.189 -0.164,-0.195 0.041,-0.424 0.148,-0.582 0.354,-0.401 0.895,-0.825 1.479,-0.78 0.082,0.017 0.145,0.065 0.165,0.152 -0.143,0.504 -0.647,0.753 -1.135,0.947 -0.071,0.011 -0.15,0.005 -0.221,-0.018 -0.016,-0.246 0.232,-0.378 0.381,-0.536 0.205,-0.092 0.385,-0.257 0.612,-0.208 0.054,0.119 -0.104,0.178 -0.155,0.262 -0.186,0.105 -0.332,0.268 -0.552,0.236 l 0.123,-0.152 c -0.075,0 -0.106,0.098 -0.157,0.154 0.004,0.039 0.043,0.049 0.076,0.062 0.293,-0.112 0.634,-0.253 0.704,-0.552 -0.114,-0.176 -0.304,0.027 -0.432,0.03 -0.286,0.158 -0.557,0.376 -0.655,0.66 0.027,0.12 0.131,0.079 0.211,0.104 0.523,-0.182 1.086,-0.45 1.228,-1.002"
               style="fill:#000000;fill-opacity:1;fill-rule:nonzero;stroke:none"
               id="path3982"
               inkscape:connector-curvature="0" />
            <path
               d="m 497.395,393.862 c 0.05,-0.283 1.361,0.139 1.376,-0.142 0.583,0.121 1.819,0.199 2.188,-0.078 0.226,0.013 0.311,-0.209 0.471,-0.309 -0.114,-0.1 -0.165,0.074 -0.25,0.113 -0.1,-0.113 -0.135,-0.234 -0.235,-0.306 -0.014,0 -0.015,0.013 -0.023,0.025 -0.017,-0.022 -0.059,-0.022 -0.061,-0.057 l -0.021,0.012 c 0.049,0.018 0.035,0.078 -0.01,0.1 -0.082,0.078 -0.238,0.093 -0.305,0.193 l -0.189,-0.135 c 0.035,-0.07 0.145,-0.086 0.217,-0.125 l -0.008,-0.017 c -0.152,-0.034 -0.207,0.238 -0.355,0.08 l 0.163,-0.137 c -0.091,-0.008 -0.159,0.16 -0.28,0.105 0.059,-0.066 0.142,-0.111 0.179,-0.197 -0.115,-0.084 -0.108,0.112 -0.215,0.117 -0.393,0.268 -1.783,-0.027 -2.033,0.373 -0.072,0.04 -0.427,-0.046 -0.467,0.034 -0.053,-0.272 -0.684,-0.028 -0.555,0.197 0.081,-0.051 0.385,-0.045 0.502,-0.057 0.035,0.074 -0.338,0.057 -0.357,0.135"
               style="fill:#000000;fill-opacity:1;fill-rule:nonzero;stroke:none"
               id="path3984"
               inkscape:connector-curvature="0" />
            <path
               d="m 506.66,395.655 c 0.068,-0.394 -0.271,-0.707 -0.553,-0.902 -0.177,-0.104 -0.396,-0.135 -0.595,-0.225 l -0.057,0.028 c 0.497,0.171 1.051,0.47 1.057,1.029 -0.006,0.154 -0.175,0.203 -0.268,0.273 0.012,0.071 0.096,0.012 0.14,0.02 0.124,-0.043 0.222,-0.115 0.276,-0.223"
               style="fill:#000000;fill-opacity:1;fill-rule:nonzero;stroke:none"
               id="path3986"
               inkscape:connector-curvature="0" />
            <path
               d="m 504.297,396.329 c -0.551,-0.656 -1.176,-1.293 -1.778,-1.926 -0.074,0.233 -0.328,0.381 -0.576,0.426 -0.119,-0.035 -0.24,0.047 -0.31,-0.094 0,-0.047 -0.032,-0.101 0.019,-0.138 0.19,-0.114 0.389,-0.004 0.573,-0.116 -0.197,0.02 -0.463,-0.05 -0.638,0.077 -0.085,0.085 -0.005,0.214 0.05,0.292 0.172,0.108 0.366,0.02 0.547,-0.035 0.332,0.262 0.582,0.649 0.863,0.996 0.007,0.106 -0.176,0.127 -0.232,0.215 l 0.097,0.155 c -0.102,0.107 -0.211,0.26 -0.201,0.42 -0.008,0.086 0.049,0.211 0.119,0.262 0.059,0.021 0.154,-0.023 0.176,-0.08 l 0.022,-0.209 c 0.117,0.044 0.255,0.125 0.353,0.019 -0.004,-0.115 0.039,-0.23 0.123,-0.317 0.213,-0.138 0.474,-0.105 0.693,0.015 0.027,0.043 0.06,0.056 0.1,0.038"
               style="fill:#000000;fill-opacity:1;fill-rule:nonzero;stroke:none"
               id="path3988"
               inkscape:connector-curvature="0" />
            <path
               d="m 502.994,396.542 c 0.119,0.007 0.208,0.097 0.336,0.046 0.013,-0.108 0.049,-0.241 0.133,-0.327 0.118,-0.088 0.267,-0.135 0.407,-0.118 -0.328,-0.056 -0.693,-0.076 -0.977,0.177 -0.071,0.087 -0.151,0.212 -0.139,0.343 0.037,0.053 0.033,0.136 0.103,0.153 0.149,-0.033 0.102,-0.184 0.137,-0.274"
               style="fill:#ffffff;fill-opacity:1;fill-rule:nonzero;stroke:none"
               id="path3990"
               inkscape:connector-curvature="0" />
            <path
               d="m 503.715,395.804 c -0.294,-0.061 -0.577,0.041 -0.842,0.216 l 0.055,0.12 c 0.343,-0.198 0.728,-0.166 1.097,-0.018 l -0.31,-0.318"
               style="fill:#ffffff;fill-opacity:1;fill-rule:nonzero;stroke:none"
               id="path3992"
               inkscape:connector-curvature="0" />
            <path
               d="m 504.553,395.321 c -0.11,-0.123 0.058,-0.267 0.129,-0.367 0.226,-0.152 0.496,-0.287 0.74,-0.322 -0.312,0.025 -0.749,0.195 -0.908,0.494 -0.112,-0.108 -0.028,-0.256 0.052,-0.354 0.161,-0.175 0.433,-0.209 0.651,-0.273 -0.123,-0.014 -0.258,0.033 -0.385,0.057 -0.011,-0.098 -0.087,-0.221 -0.2,-0.26 -0.144,-0.043 -0.257,0.054 -0.377,0.123 -0.042,0.074 -0.079,0.16 -0.049,0.256 0.06,0.055 0.077,0.17 0.179,0.166 -0.012,0.095 -0.012,0.205 0.042,0.275 l 0.087,0.01 c -0.023,0.072 -0.039,0.141 0.011,0.207 l 0.028,-0.012"
               style="fill:#000000;fill-opacity:1;fill-rule:nonzero;stroke:none"
               id="path3994"
               inkscape:connector-curvature="0" />
            <path
               d="m 500.937,392.005 c -0.045,0.185 -0.124,0.433 -0.313,0.457 -0.046,-0.041 -0.185,-0.061 -0.151,-0.151 -0.105,0.178 -0.265,0.354 -0.502,0.391 -0.135,0.022 -0.158,-0.181 -0.268,-0.152 l -0.02,-0.045 c 0.11,-0.043 0.231,-0.141 0.35,-0.104 0.006,0.059 -0.113,0.051 -0.043,0.116 0.206,-0.059 0.282,-0.225 0.323,-0.409"
               style="fill:#000000;fill-opacity:1;fill-rule:nonzero;stroke:none"
               id="path3996"
               inkscape:connector-curvature="0" />
            <path
               d="m 499.501,392.786 c -0.161,0.189 -0.38,0.371 -0.656,0.414 -0.017,-0.021 -0.001,-0.049 0.003,-0.07 l -0.256,-0.063 -0.015,0.041 c 0.15,0.014 0.273,0.254 0.458,0.102 0.305,-0.098 0.53,-0.33 0.655,-0.627 0.084,0.078 0.122,0.24 0.273,0.207 0.051,-0.037 0.172,-0.059 0.164,0.027 0.262,0.094 0.542,0.153 0.793,0.116 l -0.267,-0.073 c 0.12,-0.129 0.314,-0.017 0.471,-0.021 -0.003,0.023 -0.021,0.031 -0.038,0.039 0.047,0.101 0.185,0.121 0.266,0.174 l -0.11,0.048 c 0.096,0.137 0.344,0.155 0.519,0.13 0.011,-0.005 0.034,-0.016 0.032,-0.036 -0.071,-0.035 -0.188,-0.004 -0.278,-0.037 -0.055,-0.031 -0.101,-0.01 -0.156,-0.041 l 0.118,-0.072 -0.286,-0.117 c 0.143,-0.031 0.319,-0.022 0.479,-0.034 0.049,0.047 0.094,0.102 0.148,0.147 -0.003,-0.115 -0.15,-0.152 -0.142,-0.285 0.264,0.023 0.537,0.078 0.82,0.176 -0.07,0.115 0.027,0.269 0.035,0.41 0.686,0.088 1.255,0.543 1.694,1.009 l 0.062,-0.041 c -0.203,-0.238 -0.406,-0.474 -0.654,-0.658 -0.102,-0.119 -0.055,-0.256 0.011,-0.369 0.249,-0.133 0.485,-0.019 0.729,0.049 -0.092,0.041 -0.321,0.049 -0.322,0.227 0.052,0.101 0.084,0.216 0.147,0.296 0.011,-0.113 0.089,-0.259 0.234,-0.255 0.281,-0.032 0.595,0.148 0.79,0.334 -0.156,-0.04 -0.367,-0.081 -0.548,-0.012 -0.076,0.09 0.032,0.191 0.071,0.263 0.195,-0.054 0.401,-0.025 0.552,0.127 l 0.06,0.104 c 0.064,-0.133 -0.104,-0.201 -0.176,-0.285 -0.134,-0.082 -0.311,-0.065 -0.463,-0.037 -0.038,-0.024 -0.058,-0.084 -0.037,-0.127 0.063,-0.104 0.208,-0.039 0.315,-0.061 0.091,0.049 0.219,0.059 0.31,0.108 -0.116,-0.243 -0.391,-0.393 -0.634,-0.489 -0.176,-0.058 -0.38,-0.068 -0.51,0.1 l -0.021,0.059 c -0.084,-0.065 -0.072,-0.188 -0.002,-0.247 0.111,-0.072 0.223,-0.068 0.337,-0.105 -0.252,-0.207 -0.634,-0.248 -0.891,-0.104 -0.079,0.071 -0.136,0.172 -0.12,0.282 l 0.039,0.084 c -0.119,-0.022 -0.238,-0.131 -0.377,-0.18 l -0.553,-0.16 c 10e-4,-0.104 -0.045,-0.205 -0.072,-0.311 0.061,0.014 0.129,0.059 0.154,0.129 0.015,-0.013 0.026,-0.004 0.033,-0.002 -0.019,-0.135 -0.199,-0.17 -0.312,-0.22 -0.332,-0.112 -0.715,-0.096 -1.029,-0.303 -0.164,-0.016 -0.342,0.004 -0.494,-0.045 l 0.019,0.041 c 0.023,-0.01 0.047,0.012 0.071,0.021 -0.018,0.141 -0.13,0.094 -0.223,0.082 l 0.099,-0.142 -0.152,0.131 c -0.064,-0.034 -0.139,-0.034 -0.186,-0.045 l 0.129,0.072 c -0.027,0.031 -0.104,0.088 -0.142,0.049 l -0.164,-0.076 0.156,-0.166 c 0.066,0.099 0.185,0.121 0.273,0.027 0.137,-0.049 0.131,-0.41 0.332,-0.207 l -0.003,0.023 c 0.068,-0.017 0.16,0.018 0.231,0.039 -0.071,0.116 -0.223,-0.037 -0.333,0.022 0.015,0.109 0.177,0.119 0.264,0.113 0.023,-0.023 0.043,-0.041 0.013,-0.074 0.178,-0.109 0.357,0.043 0.549,0.045 l 0.014,0.029 c 0.042,-0.013 0.086,-0.052 0.133,-0.041 -0.014,0.049 -0.006,0.094 -0.037,0.149 l -0.136,0.06 c 0.028,0.063 0.107,0.041 0.157,0.061 0.086,-0.006 0.082,-0.108 0.093,-0.16 0.008,-0.057 -0.089,-0.18 0.023,-0.174 0.173,0.004 0.284,0.234 0.462,0.187 0.057,-0.087 0.182,-0.054 0.238,0.01 l 0.054,0.119 0.218,-0.064 c 0.025,0.16 -0.145,0.332 -0.222,0.465 l -0.132,0.072 c 0.237,-0.024 0.348,-0.322 0.418,-0.531 -0.047,-0.09 -0.162,0.004 -0.244,0.007 -0.066,-0.074 -0.134,-0.22 -0.267,-0.154 -0.164,0.184 -0.227,-0.09 -0.374,-0.098 l 0.011,-0.019 c 0.215,0.019 0.479,0.072 0.695,0.049 -0.153,-0.02 -0.31,-0.018 -0.471,-0.055 l 0.079,-0.084 c 0.206,0.018 0.411,0.061 0.619,0.051 -0.18,-0.051 -0.438,-0.016 -0.58,-0.115 -0.019,0.062 -0.069,-0.002 -0.104,0.027 l -0.059,-0.023 c 0.037,-0.207 0.328,0.009 0.458,-0.186 l 0.054,-0.094 c 0.06,0.041 0.134,0.057 0.192,0.092 -0.007,0.106 -0.122,0.139 -0.214,0.18 0.088,0.027 0.176,-0.067 0.24,-0.123 l 0.006,-0.016 0.18,0.063 c -0.012,-0.057 -0.098,-0.081 -0.164,-0.106 0.014,-0.074 0.029,-0.115 0.027,-0.197 0.127,0.101 0.327,0.146 0.358,0.318 -0.077,0.276 -0.406,0.197 -0.555,0.369 l 0.014,0.028 c 0.166,-0.131 0.502,-0.041 0.617,-0.301 0.115,-0.231 -0.139,-0.443 -0.198,-0.651 -0.23,-0.445 -0.574,-0.509 -1.015,-0.679"
               style="fill:#000000;fill-opacity:1;fill-rule:nonzero;stroke:none"
               id="path3998"
               inkscape:connector-curvature="0" />
            <path
               d="m 504.716,394.589 c 0.028,-0.09 -0.062,-0.151 -0.122,-0.193 -0.088,-0.014 -0.206,-0.003 -0.254,0.087 -0.105,0.09 -0.025,0.219 0.03,0.295 0.108,0.041 0.175,-0.099 0.261,-0.152 l 0.085,-0.037"
               style="fill:#ffffff;fill-opacity:1;fill-rule:nonzero;stroke:none"
               id="path4000"
               inkscape:connector-curvature="0" />
            <path
               d="m 499.016,393.774 -0.075,-0.166 c -0.164,0.096 -0.547,0.725 -0.527,0.95 l 0.177,0.132 c 0.065,-0.173 0.207,-0.851 0.425,-0.916"
               style="fill:#ffffff;fill-opacity:1;fill-rule:nonzero;stroke:none"
               id="path4002"
               inkscape:connector-curvature="0" />
            <path
               d="m 498.872,393.579 -0.083,-0.08 c -0.119,0.164 -0.633,0.717 -0.54,0.982 l 0.104,0.049 c 0.028,-0.197 0.348,-0.861 0.519,-0.951"
               style="fill:#ffffff;fill-opacity:1;fill-rule:nonzero;stroke:none"
               id="path4004"
               inkscape:connector-curvature="0" />
            <path
               d="m 499.09,393.515 -0.119,0.052 0.091,0.172 0.112,-0.086 -0.084,-0.138"
               style="fill:#ffffff;fill-opacity:1;fill-rule:nonzero;stroke:none"
               id="path4006"
               inkscape:connector-curvature="0" />
            <path
               d="m 500.426,393.704 -1.321,-0.232 0.104,0.152 1.316,0.226 -0.099,-0.146"
               style="fill:#ffffff;fill-opacity:1;fill-rule:nonzero;stroke:none"
               id="path4008"
               inkscape:connector-curvature="0" />
            <path
               d="m 498.292,394.167 0.438,-0.69 c -0.056,-0.064 -0.3,0.436 -0.379,0.397 -0.081,0.062 -0.356,0.154 -0.231,0.322 0.02,0.074 -0.051,0.162 -0.099,0.225 l 0.159,0.045 c 0.082,-0.092 -0.016,-0.233 0.112,-0.299"
               style="fill:#ffffff;fill-opacity:1;fill-rule:nonzero;stroke:none"
               id="path4010"
               inkscape:connector-curvature="0" />
            <path
               d="m 500.609,393.567 -0.134,0.094 0.085,0.16 0.136,-0.109 -0.087,-0.145"
               style="fill:#ffffff;fill-opacity:1;fill-rule:nonzero;stroke:none"
               id="path4012"
               inkscape:connector-curvature="0" />
            <path
               d="m 498.369,393.407 0.104,-0.06 c -0.198,-0.041 -0.514,0.662 -0.62,0.806 0.055,0.03 0.049,0.094 0.034,0.151 l -0.037,0.097 c 0.136,0.09 0.166,-0.088 0.229,-0.158 l -0.068,-0.181 0.358,-0.655"
               style="fill:#ffffff;fill-opacity:1;fill-rule:nonzero;stroke:none"
               id="path4014"
               inkscape:connector-curvature="0" />
            <path
               d="m 499.02,393.464 c -0.059,-0.098 -0.11,-0.061 -0.18,-0.002 0.042,0.078 0.13,0.058 0.18,0.002"
               style="fill:#ffffff;fill-opacity:1;fill-rule:nonzero;stroke:none"
               id="path4016"
               inkscape:connector-curvature="0" />
            <path
               d="m 501.14,393.464 -0.128,-0.176 -0.356,0.23 c -0.019,0.063 0.067,0.1 0.067,0.149 0.103,-0.123 0.279,-0.113 0.417,-0.203"
               style="fill:#ffffff;fill-opacity:1;fill-rule:nonzero;stroke:none"
               id="path4018"
               inkscape:connector-curvature="0" />
            <path
               d="m 500.376,393.673 -0.042,-0.065 c -0.148,0.055 -1.196,-0.322 -1.342,-0.25 l 0.076,0.063 c 0.131,-0.074 1.176,0.324 1.308,0.252"
               style="fill:#ffffff;fill-opacity:1;fill-rule:nonzero;stroke:none"
               id="path4020"
               inkscape:connector-curvature="0" />
            <path
               d="m 497.844,394.239 c -0.074,-0.041 0.146,-0.625 0.183,-0.676 -0.035,0.043 -0.287,0.553 -0.29,0.621 0.068,0.075 -0.006,0.155 10e-4,0.213 0.094,0.028 0.082,-0.105 0.106,-0.158"
               style="fill:#ffffff;fill-opacity:1;fill-rule:nonzero;stroke:none"
               id="path4022"
               inkscape:connector-curvature="0" />
            <path
               d="m 498.906,393.35 c -0.056,-0.05 -0.12,-0.083 -0.189,-0.113 l -0.33,0.592 c 0.117,0.002 0.423,-0.299 0.519,-0.479"
               style="fill:#ffffff;fill-opacity:1;fill-rule:nonzero;stroke:none"
               id="path4024"
               inkscape:connector-curvature="0" />
            <path
               d="m 500.559,393.528 c -0.006,-0.025 -0.039,-0.023 -0.038,-0.053 l -0.169,0.098 c 0.076,0.123 0.137,0 0.207,-0.045"
               style="fill:#ffffff;fill-opacity:1;fill-rule:nonzero;stroke:none"
               id="path4026"
               inkscape:connector-curvature="0" />
            <path
               d="m 500.274,393.554 c -0.066,-0.026 -0.122,-0.088 -0.204,-0.086 l -1.308,-0.285 c 0.16,0.353 1.345,0.439 1.512,0.371"
               style="fill:#ffffff;fill-opacity:1;fill-rule:nonzero;stroke:none"
               id="path4028"
               inkscape:connector-curvature="0" />
            <path
               d="m 500.928,393.21 -0.38,0.221 0.059,0.054 0.375,-0.232 -0.054,-0.043"
               style="fill:#ffffff;fill-opacity:1;fill-rule:nonzero;stroke:none"
               id="path4030"
               inkscape:connector-curvature="0" />
            <path
               d="m 500.315,393.309 -0.181,0.116 0.181,0.111 0.134,-0.109 -0.134,-0.118"
               style="fill:#ffffff;fill-opacity:1;fill-rule:nonzero;stroke:none"
               id="path4032"
               inkscape:connector-curvature="0" />
            <path
               d="m 498.648,393.22 c -0.002,-0.006 -0.048,-0.061 -0.088,-0.043 -0.048,0.029 -0.076,0.076 -0.137,0.09 0.085,0.113 0.145,-0.024 0.225,-0.047"
               style="fill:#ffffff;fill-opacity:1;fill-rule:nonzero;stroke:none"
               id="path4034"
               inkscape:connector-curvature="0" />
            <path
               d="m 498.268,393.29 -0.124,0.137 0.148,-0.114 -0.024,-0.023"
               style="fill:#ffffff;fill-opacity:1;fill-rule:nonzero;stroke:none"
               id="path4036"
               inkscape:connector-curvature="0" />
            <path
               d="m 500.005,393.429 c -0.12,-0.069 -1.264,-0.381 -1.396,-0.295 0.183,0.054 1.231,0.355 1.396,0.295"
               style="fill:#ffffff;fill-opacity:1;fill-rule:nonzero;stroke:none"
               id="path4038"
               inkscape:connector-curvature="0" />
            <path
               d="m 501.596,392.729 c -0.131,-0.167 -0.414,-0.156 -0.624,-0.15 l -0.06,0.096 0.563,0.074 -0.016,0.041 c -0.202,-0.053 -0.424,-0.041 -0.613,-0.051 l -0.04,0.018 c 0.272,0.027 0.499,0.131 0.78,0.058 -0.026,-0.029 0.008,-0.058 0.01,-0.086"
               style="fill:#ffffff;fill-opacity:1;fill-rule:nonzero;stroke:none"
               id="path4040"
               inkscape:connector-curvature="0" />
            <path
               d="m 503.047,391.345 c -0.035,0.043 -0.107,0.005 -0.156,-0.012 0.052,0.086 0.123,0.15 0.214,0.184 -0.005,0.05 -0.048,10e-4 -0.074,0.019 l 0.147,0.277 0.254,0.166 c -0.079,-0.218 -0.224,-0.461 -0.385,-0.634"
               style="fill:#ffffff;fill-opacity:1;fill-rule:nonzero;stroke:none"
               id="path4042"
               inkscape:connector-curvature="0" />
            <path
               d="m 498.5,393.149 c -0.083,-0.031 -0.143,0.051 -0.185,0.106 0.06,0.013 0.125,-0.071 0.185,-0.106"
               style="fill:#ffffff;fill-opacity:1;fill-rule:nonzero;stroke:none"
               id="path4044"
               inkscape:connector-curvature="0" />
            <path
               d="m 500.24,393.296 c -0.028,-0.016 -0.049,-0.061 -0.083,-0.047 l -0.172,0.105 c 0.107,0.131 0.154,-0.054 0.255,-0.058"
               style="fill:#ffffff;fill-opacity:1;fill-rule:nonzero;stroke:none"
               id="path4046"
               inkscape:connector-curvature="0" />
            <path
               d="m 498.876,392.815 -0.359,0.266 0.035,0.031 0.366,-0.281 -0.042,-0.016"
               style="fill:#ffffff;fill-opacity:1;fill-rule:nonzero;stroke:none"
               id="path4048"
               inkscape:connector-curvature="0" />
            <path
               d="m 502.454,392.292 c -0.071,-0.037 -0.169,-0.025 -0.247,0.029 0.068,0.031 0.167,0.022 0.247,-0.029"
               style="fill:#ffffff;fill-opacity:1;fill-rule:nonzero;stroke:none"
               id="path4050"
               inkscape:connector-curvature="0" />
            <path
               d="m 502.955,391.763 -0.058,-0.022 0.013,0.18 0.188,0.08 c 0.041,-0.137 -0.027,-0.195 -0.143,-0.238"
               style="fill:#ffffff;fill-opacity:1;fill-rule:nonzero;stroke:none"
               id="path4052"
               inkscape:connector-curvature="0" />
            <path
               d="m 500.068,393.235 -0.017,-0.039 c -0.05,0.043 -1.069,-0.449 -1.129,-0.416 0.038,0.037 1.103,0.496 1.146,0.455"
               style="fill:#ffffff;fill-opacity:1;fill-rule:nonzero;stroke:none"
               id="path4054"
               inkscape:connector-curvature="0" />
            <path
               d="m 502.842,391.952 c -0.168,-0.068 -0.364,-0.152 -0.542,-0.152 -0.021,0.092 -0.093,0.158 -0.169,0.172 l 0.11,-0.18 c -0.106,-0.082 -0.2,-0.02 -0.227,0.103 -0.004,0.036 -0.041,0.032 -0.061,0.047 l 0.725,0.145 c 0.047,-0.047 0.133,-0.067 0.164,-0.135"
               style="fill:#ffffff;fill-opacity:1;fill-rule:nonzero;stroke:none"
               id="path4056"
               inkscape:connector-curvature="0" />
            <path
               d="m 501.946,392.337 c -0.166,0.027 -0.341,-0.162 -0.501,0.013 0.155,-0.007 0.44,0.186 0.501,-0.013"
               style="fill:#ffffff;fill-opacity:1;fill-rule:nonzero;stroke:none"
               id="path4058"
               inkscape:connector-curvature="0" />
            <path
               d="m 502.237,392.253 c -0.183,-0.028 -0.38,-0.158 -0.552,-0.024 0.172,0.018 0.372,0.155 0.552,0.024"
               style="fill:#ffffff;fill-opacity:1;fill-rule:nonzero;stroke:none"
               id="path4060"
               inkscape:connector-curvature="0" />
            <path
               d="m 502.391,392.122 c -0.189,0.037 -0.409,-0.207 -0.551,-0.02 l 0.461,0.108 c 0.023,-0.037 0.077,-0.041 0.09,-0.088"
               style="fill:#ffffff;fill-opacity:1;fill-rule:nonzero;stroke:none"
               id="path4062"
               inkscape:connector-curvature="0" />
            <path
               d="m 502.84,391.72 -0.5,-0.151 -0.019,0.172 0.529,0.152 c 0.027,-0.046 -0.01,-0.113 -0.01,-0.173"
               style="fill:#ffffff;fill-opacity:1;fill-rule:nonzero;stroke:none"
               id="path4064"
               inkscape:connector-curvature="0" />
            <path
               d="m 502.855,391.466 -0.083,-0.032 c 0.06,0.131 0.13,0.333 0.3,0.331 -0.041,-0.092 -0.047,-0.301 -0.217,-0.299"
               style="fill:#ffffff;fill-opacity:1;fill-rule:nonzero;stroke:none"
               id="path4066"
               inkscape:connector-curvature="0" />
            <path
               d="m 500.656,392.79 c -0.072,-0.008 -0.144,-0.045 -0.207,0.012 0.067,0.011 0.138,0.048 0.207,-0.012"
               style="fill:#ffffff;fill-opacity:1;fill-rule:nonzero;stroke:none"
               id="path4068"
               inkscape:connector-curvature="0" />
            <path
               d="m 500.799,392.712 c -0.041,-0.016 -0.132,-0.063 -0.168,-0.006 -0.014,0 -0.014,0.014 -0.024,0.023 0.065,0.02 0.129,0.026 0.192,-0.017"
               style="fill:#ffffff;fill-opacity:1;fill-rule:nonzero;stroke:none"
               id="path4070"
               inkscape:connector-curvature="0" />
            <path
               d="m 500.453,392.753 c -0.051,-0.039 -0.172,-0.033 -0.16,-0.113 -0.063,0.013 -0.07,0.072 -0.129,0.078 0.07,0.064 0.212,0.076 0.289,0.035"
               style="fill:#ffffff;fill-opacity:1;fill-rule:nonzero;stroke:none"
               id="path4072"
               inkscape:connector-curvature="0" />
            <path
               d="m 501.535,392.263 c -0.115,-0.12 -0.239,0.033 -0.312,0.037 0.107,0.054 0.209,-0.026 0.312,-0.037"
               style="fill:#ffffff;fill-opacity:1;fill-rule:nonzero;stroke:none"
               id="path4074"
               inkscape:connector-curvature="0" />
            <path
               d="m 501.727,392.142 c -0.102,-0.03 -0.168,-0.055 -0.264,0.037 0.076,0.06 0.197,0.027 0.264,-0.037"
               style="fill:#ffffff;fill-opacity:1;fill-rule:nonzero;stroke:none"
               id="path4076"
               inkscape:connector-curvature="0" />
            <path
               d="m 502.237,391.237 0.101,0.283 0.477,0.143 c -0.025,-0.326 -0.405,-0.332 -0.578,-0.426"
               style="fill:#ffffff;fill-opacity:1;fill-rule:nonzero;stroke:none"
               id="path4078"
               inkscape:connector-curvature="0" />
            <path
               d="m 501.878,392.005 c -0.069,-0.018 -0.277,-0.143 -0.326,0.037 l 0.169,-0.098 c 0.039,0.086 -0.1,0.053 -0.077,0.117 0.096,0.047 0.177,0.03 0.234,-0.056"
               style="fill:#ffffff;fill-opacity:1;fill-rule:nonzero;stroke:none"
               id="path4080"
               inkscape:connector-curvature="0" />
            <path
               d="m 501.325,392.192 c -0.13,-0.105 -0.249,0.01 -0.372,-0.017 l -0.016,0.043 c 0.134,0.035 0.255,0.076 0.388,-0.026"
               style="fill:#ffffff;fill-opacity:1;fill-rule:nonzero;stroke:none"
               id="path4082"
               inkscape:connector-curvature="0" />
            <path
               d="m 501.522,392.083 c -0.114,0.004 -0.191,-0.119 -0.304,-0.006 0.064,0.066 0.241,0.11 0.304,0.006"
               style="fill:#ffffff;fill-opacity:1;fill-rule:nonzero;stroke:none"
               id="path4084"
               inkscape:connector-curvature="0" />
            <path
               d="m 502.039,391.739 c -0.133,-0.051 -0.309,-0.107 -0.432,0.032 0.004,0.038 -0.023,0.085 -0.039,0.126 0.106,-0.13 0.231,0.039 0.344,0.03 0.031,-0.035 0.099,-0.114 0.127,-0.188"
               style="fill:#ffffff;fill-opacity:1;fill-rule:nonzero;stroke:none"
               id="path4086"
               inkscape:connector-curvature="0" />
            <path
               d="m 502.264,391.583 c -0.016,-0.063 -0.104,-0.016 -0.159,-0.061 -0.066,0.141 0.033,0.192 0.164,0.209 0.024,-0.039 0.017,-0.097 -0.005,-0.148"
               style="fill:#ffffff;fill-opacity:1;fill-rule:nonzero;stroke:none"
               id="path4088"
               inkscape:connector-curvature="0" />
            <path
               d="m 502.605,391.249 c 0.085,0.064 0.163,0.174 0.277,0.17 -0.034,-0.137 -0.172,-0.108 -0.277,-0.17"
               style="fill:#ffffff;fill-opacity:1;fill-rule:nonzero;stroke:none"
               id="path4090"
               inkscape:connector-curvature="0" />
            <path
               d="m 501.388,391.649 c -0.009,0.012 -0.02,0.002 -0.035,0.002 0.028,0.09 -0.001,0.194 -0.021,0.27 0.234,0.184 0.328,-0.305 0.056,-0.272"
               style="fill:#ffffff;fill-opacity:1;fill-rule:nonzero;stroke:none"
               id="path4092"
               inkscape:connector-curvature="0" />
            <path
               d="m 502.031,391.509 c -0.109,-0.012 -0.238,-0.131 -0.313,-0.008 -0.04,0.031 -0.082,0.029 -0.126,0.008 -0.004,0.023 0.017,0.129 0.017,0.191 0.105,-0.088 0.278,-0.07 0.415,-0.023 0.036,-0.043 0.025,-0.114 0.007,-0.168"
               style="fill:#ffffff;fill-opacity:1;fill-rule:nonzero;stroke:none"
               id="path4094"
               inkscape:connector-curvature="0" />
            <path
               d="m 501.321,391.714 -0.018,-0.039 c -0.098,0.009 -0.2,0.166 -0.286,0.096 0.074,-0.11 0.34,-0.067 0.235,-0.239 -0.071,0.053 -0.172,0.119 -0.261,0.106 0.037,0.127 0.034,0.271 0.024,0.414 0.069,0.004 0.184,-0.016 0.256,-0.082 -0.015,-0.096 0.061,-0.158 0.05,-0.256"
               style="fill:#ffffff;fill-opacity:1;fill-rule:nonzero;stroke:none"
               id="path4096"
               inkscape:connector-curvature="0" />
            <path
               d="m 502.16,391.204 -0.244,-0.068 c 0.178,0.119 0.064,0.443 0.355,0.359 l -0.111,-0.291"
               style="fill:#ffffff;fill-opacity:1;fill-rule:nonzero;stroke:none"
               id="path4098"
               inkscape:connector-curvature="0" />
            <path
               d="m 502.144,391.059 c 0.065,0.178 0.312,0.161 0.448,0.264 -0.049,-0.17 -0.313,-0.16 -0.448,-0.264"
               style="fill:#ffffff;fill-opacity:1;fill-rule:nonzero;stroke:none"
               id="path4100"
               inkscape:connector-curvature="0" />
            <path
               d="m 498.344,393.063 c 0.045,0.055 0.117,0.002 0.178,0 0.193,-0.107 0.379,-0.254 0.383,-0.501"
               style="fill:#000000;fill-opacity:1;fill-rule:nonzero;stroke:none"
               id="path4102"
               inkscape:connector-curvature="0" />
            <path
               d="m 501.523,391.479 c -0.083,-0.066 -0.15,-0.029 -0.213,0.028 -0.027,0.17 0.182,0.054 0.217,0.162 0.049,-0.043 0.004,-0.125 -0.004,-0.19"
               style="fill:#ffffff;fill-opacity:1;fill-rule:nonzero;stroke:none"
               id="path4104"
               inkscape:connector-curvature="0" />
            <path
               d="m 498.535,392.96 c -0.683,0.311 -0.953,0.406 -1.687,0.601 0,0 -0.573,-0.365 -0.682,-0.445"
               style="fill:none;stroke:#000000;stroke-width:0.125;stroke-linecap:butt;stroke-linejoin:miter;stroke-miterlimit:4;stroke-dasharray:none;stroke-opacity:1"
               id="path4106"
               inkscape:connector-curvature="0" />
            <g
               transform="matrix(1,0,0,-1,506.3459,474.8803)"
               style="font-style:italic;font-variant:normal;font-size:10px;font-family:Times;-inkscape-font-specification:Times-Italic;writing-mode:lr-tb;fill:#000000;fill-opacity:1;fill-rule:nonzero;stroke:none"
               id="text4108">
              <path
                 d="m 1.21,0 c 0.52,-1.7 0.69,-2.13 1.15,-2.89 0.33,-0.56 0.61,-0.87 0.78,-0.87 0.06,0 0.11,0.04 0.16,0.14 0.08,0.17 0.16,0.22 0.36,0.22 0.29,0 0.46,-0.18 0.46,-0.49 0,-0.31 -0.19,-0.52 -0.47,-0.52 -0.23,0 -0.5,0.15 -0.76,0.42 -0.41,0.42 -0.81,1.01 -0.97,1.41 L 1.78,-2.22 2.31,-4.39 2.28,-4.41 c -0.73,0.13 -0.82,0.15 -1.55,0.27 l 0,0.17 C 0.97,-4.02 1,-4.02 1.07,-4.02 c 0.22,0 0.35,0.1 0.35,0.28 0,0.14 0,0.14 -0.16,0.82 L 0.45,0 1.21,0 Z"
                 style=""
                 id="path4800" />
            </g>
            <path
               d="m 504.186,500.832 c 26.425,0 47.848,-21.422 47.848,-47.847 0,-26.426 -21.423,-47.848 -47.848,-47.848 -26.424,0 -47.846,21.422 -47.846,47.848 0,26.425 21.422,47.847 47.846,47.847 z"
               style="fill:none;stroke:#02a0e9;stroke-width:1;stroke-linecap:butt;stroke-linejoin:miter;stroke-miterlimit:4;stroke-dasharray:5, 3;stroke-dashoffset:0;stroke-opacity:1"
               id="path4112"
               inkscape:connector-curvature="0" />
          </g>
        </g>
      </g>
    </g>
  </g>
</svg>
