<?xml version="1.0" encoding="UTF-8" standalone="no"?>
<!-- Created with Inkscape (http://www.inkscape.org/) -->

<svg
   xmlns:dc="http://purl.org/dc/elements/1.1/"
   xmlns:cc="http://creativecommons.org/ns#"
   xmlns:rdf="http://www.w3.org/1999/02/22-rdf-syntax-ns#"
   xmlns:svg="http://www.w3.org/2000/svg"
   xmlns="http://www.w3.org/2000/svg"
   xmlns:sodipodi="http://sodipodi.sourceforge.net/DTD/sodipodi-0.dtd"
   xmlns:inkscape="http://www.inkscape.org/namespaces/inkscape"
   width="44.244724mm"
   height="49.807812mm"
   viewBox="0 0 156.77265 176.48437"
   id="svg4703"
   version="1.1"
   inkscape:version="0.91 r13725"
   sodipodi:docname="act-6-5-2.svg">
  <defs
     id="defs4705">
    <clipPath
       clipPathUnits="userSpaceOnUse"
       id="clipPath4521">
      <path
         d="m 439.5,263.998 130.667,0 0,-152 -130.667,0 0,152 z"
         id="path4523"
         inkscape:connector-curvature="0"
         style="clip-rule:evenodd" />
    </clipPath>
    <clipPath
       clipPathUnits="userSpaceOnUse"
       id="clipPath4527">
      <path
         d="m 0,787.5 612,0 0,-783 -612,0 0,783 z"
         id="path4529"
         inkscape:connector-curvature="0" />
    </clipPath>
    <clipPath
       clipPathUnits="userSpaceOnUse"
       id="clipPath4533">
      <path
         d="m 0,792.06 612,0 0,-792 -612,0 0,792 z"
         id="path4535"
         inkscape:connector-curvature="0" />
    </clipPath>
  </defs>
  <sodipodi:namedview
     id="base"
     pagecolor="#ffffff"
     bordercolor="#666666"
     borderopacity="1.0"
     inkscape:pageopacity="0.0"
     inkscape:pageshadow="2"
     inkscape:zoom="0.98994949"
     inkscape:cx="-57.68577"
     inkscape:cy="65.385044"
     inkscape:document-units="px"
     inkscape:current-layer="layer1"
     showgrid="false"
     fit-margin-top="0"
     fit-margin-left="0"
     fit-margin-right="0"
     fit-margin-bottom="0"
     inkscape:window-width="1366"
     inkscape:window-height="715"
     inkscape:window-x="0"
     inkscape:window-y="0"
     inkscape:window-maximized="1" />
  <metadata
     id="metadata4708">
    <rdf:RDF>
      <cc:Work
         rdf:about="">
        <dc:format>image/svg+xml</dc:format>
        <dc:type
           rdf:resource="http://purl.org/dc/dcmitype/StillImage" />
        <dc:title></dc:title>
      </cc:Work>
    </rdf:RDF>
  </metadata>
  <g
     inkscape:label="Layer 1"
     inkscape:groupmode="layer"
     id="layer1"
     transform="translate(-133.04225,-192.69145)">
    <g
       transform="matrix(1.25,0,0,-1.25,-417.41523,516.35332)"
       id="g4517">
      <g
         id="g4519"
         clip-path="url(#clipPath4521)">
        <g
           id="g4525"
           clip-path="url(#clipPath4527)">
          <g
             id="g4531"
             clip-path="url(#clipPath4533)">
            <path
               d="m 494.498,248.046 0,-130.054 m 17.94,130.054 0,-130.054 m 17.972,130.054 0,-129.923 m -54.646,129.923 0,-129.923 m -35.148,15.275 107.796,0 m -107.78,34.013 107.796,0 m -107.562,16.293 107.796,0 m -108.046,32.001 107.796,0 m -107.796,16.364 107.796,0"
               style="fill:none;stroke:#aedaf6;stroke-width:0.5;stroke-linecap:butt;stroke-linejoin:miter;stroke-miterlimit:4;stroke-dasharray:none;stroke-opacity:1"
               id="path4537"
               inkscape:connector-curvature="0" />
            <path
               d="m 548.412,150.098 -0.008,97.964 -107.778,0 -0.01,-130.07 107.796,0 0,19.106"
               style="fill:none;stroke:#02a0e9;stroke-width:0.5;stroke-linecap:butt;stroke-linejoin:miter;stroke-miterlimit:4;stroke-dasharray:none;stroke-opacity:1"
               id="path4539"
               inkscape:connector-curvature="0" />
            <g
               transform="matrix(1,0,0,-1,450.7301,254.3095)"
               style="font-style:italic;font-variant:normal;font-weight:bold;font-size:10px;font-family:Times;-inkscape-font-specification:Times-BoldItalic;writing-mode:lr-tb;fill:#000000;fill-opacity:1;fill-rule:nonzero;stroke:none"
               id="text4541">
              <path
                 d="m 0.14,-4.11 c 0.18,0 0.23,0.01 0.3,0.05 0.17,0.1 0.33,0.51 0.48,1.22 0.33,1.6 0.5,2.57 0.5,2.88 0,0.23 -0.09,0.47 -0.27,0.72 C 0.94,1.04 0.67,1.25 0.5,1.25 0.43,1.25 0.24,1.18 0.16,1.11 -0.01,0.99 -0.26,0.9 -0.44,0.9 c -0.26,0 -0.5,0.26 -0.5,0.55 0,0.33 0.27,0.6 0.62,0.6 0.55,0 1.2,-0.4 1.75,-1.06 1.3,-1.59 2.49,-3.96 2.49,-4.97 0,-0.34 -0.29,-0.64 -0.62,-0.64 -0.3,0 -0.57,0.27 -0.57,0.58 0,0.24 0.07,0.36 0.31,0.54 0.18,0.14 0.24,0.22 0.24,0.35 0,0.3 -0.18,0.72 -0.87,2.05 L 2.29,-1.85 C 2.07,-3.03 1.81,-4.15 1.63,-4.62 1.15,-4.5 0.79,-4.44 0.14,-4.38 l 0,0.27 z"
                 style=""
                 id="path4848" />
              <path
                 d="m 114.364,105.497 c -0.39,0.5 -0.49,0.59 -0.67,0.59 -0.19,0 -0.29,-0.15 -0.37,-0.53 l -0.32,-1.56 c 0.03,-0.04 0.04,-0.05 0.09,-0.13 0.35,-0.58 0.6,-0.82 0.83,-0.82 0.06,0 0.13,0.03 0.25,0.09 0.14,0.09 0.21,0.11 0.32,0.11 0.3,0 0.56,-0.24 0.56,-0.52 0,-0.33 -0.28,-0.62 -0.58,-0.62 -0.47,0 -0.78,0.27 -1.58,1.38 -0.18,-0.85 -0.26,-1.1 -0.45,-1.38 l -1.67,0.24 0,0.27 c 0.21,-0.02 0.26,-0.02 0.35,-0.02 0.32,0 0.46,0.18 0.56,0.67 l 0.3,1.54 -0.44,0.7 c -0.2,0.32 -0.31,0.41 -0.48,0.41 -0.06,0 -0.11,-0.02 -0.21,-0.08 -0.16,-0.09 -0.28,-0.13 -0.4,-0.13 -0.31,0 -0.55,0.25 -0.55,0.56 0,0.35 0.26,0.59 0.64,0.59 0.5,0 0.73,-0.2 1.31,-1.16 l 0.24,-0.39 c 0.15,0.75 0.23,1.01 0.45,1.29 0.12,0.16 0.32,0.26 0.52,0.26 0.48,0 0.9,-0.34 1.51,-1.22 l -0.21,-0.14 z"
                 style=""
                 id="path4850" />
            </g>
            <path
               d="m 457.202,199.744 91.21,0 m -107.741,0.979 6.931,0"
               style="fill:none;stroke:#02a0e9;stroke-width:0.5;stroke-linecap:butt;stroke-linejoin:miter;stroke-miterlimit:4;stroke-dasharray:none;stroke-opacity:1"
               id="path4547"
               inkscape:connector-curvature="0" />
            <g
               transform="matrix(1,0,0,-1,546.0938,140.7652)"
               style="font-variant:normal;font-weight:normal;font-size:10px;font-family:Times;-inkscape-font-specification:Times-Roman;writing-mode:lr-tb;fill:#000000;fill-opacity:1;fill-rule:nonzero;stroke:none"
               id="text4549">
              <path
                 d="m 1.81,-5.83 1.96,0 c 0.16,0 0.2,-0.02 0.23,-0.09 L 4.38,-6.81 4.29,-6.88 c -0.15,0.21 -0.25,0.26 -0.46,0.26 l -2.09,0 -1.09,2.37 c -0.01,0.02 -0.01,0.03 -0.01,0.05 0,0.05 0.04,0.08 0.12,0.08 0.32,0 0.72,0.07 1.13,0.2 1.15,0.37 1.68,0.99 1.68,1.98 0,0.96 -0.61,1.71 -1.39,1.71 -0.2,0 -0.37,-0.07 -0.67,-0.29 -0.32,-0.23 -0.55,-0.33 -0.76,-0.33 -0.29,0 -0.43,0.12 -0.43,0.37 0,0.38 0.47,0.62 1.22,0.62 0.84,0 1.56,-0.27 2.06,-0.78 C 4.06,-1.09 4.27,-1.66 4.27,-2.42 4.27,-3.14 4.08,-3.6 3.58,-4.1 3.14,-4.54 2.57,-4.77 1.39,-4.98 l 0.42,-0.85 z"
                 style=""
                 id="path4853" />
              <path
                 d="m -95.470999,-60.966 c 0.59,0 0.82,0.02 1.06,0.11 0.62,0.22 1.01,0.79 1.01,1.48 0,0.84 -0.57,1.49 -1.31,1.49 -0.27,0 -0.47,-0.07 -0.84,-0.31 -0.3,-0.18 -0.47,-0.25 -0.64,-0.25 -0.23,0 -0.38,0.14 -0.38,0.35 0,0.35 0.43,0.57 1.13,0.57 0.77,0 1.56,-0.26 2.03,-0.67 0.47,-0.41 0.73,-0.99 0.73,-1.66 0,-0.51 -0.16,-0.98 -0.45,-1.29 -0.2,-0.22 -0.39,-0.34 -0.83,-0.53 0.69,-0.47 0.94,-0.84 0.94,-1.38 0,-0.81 -0.64,-1.37 -1.56,-1.37 -0.5,0 -0.94,0.17 -1.3,0.49 -0.3,0.27 -0.45,0.53 -0.67,1.13 l 0.15,0.04 c 0.41,-0.73 0.86,-1.06 1.49,-1.06 0.65,0 1.1,0.44 1.1,1.07 0,0.36 -0.15,0.72 -0.4,0.97 -0.3,0.3 -0.58,0.45 -1.26,0.69 l 0,0.13 z"
                 style=""
                 id="path4855" />
            </g>
            <path
               d="m 457.609,117.753 0,137.366"
               style="fill:none;stroke:#000000;stroke-width:0.69999999;stroke-linecap:butt;stroke-linejoin:miter;stroke-miterlimit:4;stroke-dasharray:none;stroke-opacity:1"
               id="path4555"
               inkscape:connector-curvature="0" />
            <path
               d="m 457.609,258.084 1.707,-4.179 -1.707,0.992 -1.707,-0.992 1.707,4.179"
               style="fill:#000000;fill-opacity:1;fill-rule:nonzero;stroke:none"
               id="path4557"
               inkscape:connector-curvature="0" />
            <path
               d="m 440.381,150.038 116.09,0"
               style="fill:none;stroke:#000000;stroke-width:0.69999999;stroke-linecap:butt;stroke-linejoin:miter;stroke-miterlimit:4;stroke-dasharray:none;stroke-opacity:1"
               id="path4559"
               inkscape:connector-curvature="0" />
            <path
               d="m 559.438,150.038 -4.18,-1.707 0.992,1.707 -0.992,1.707 4.18,-1.707"
               style="fill:#000000;fill-opacity:1;fill-rule:nonzero;stroke:none"
               id="path4561"
               inkscape:connector-curvature="0" />
            <path
               d="m 534.027,243.417 c -13.121,-50.851 -26.304,-76.042 -39.538,-76.025 -13.234,0.016 -26.418,25.174 -39.538,76.025"
               style="fill:none;stroke:#f6a7c0;stroke-width:1.29999995;stroke-linecap:butt;stroke-linejoin:miter;stroke-miterlimit:4;stroke-dasharray:none;stroke-opacity:1"
               id="path4563"
               inkscape:connector-curvature="0" />
            <path
               d="m 453.804,247.861 4.174,-5.602 -2.941,0.826 -2.175,-2.146 0.942,6.922"
               style="fill:#f6a7c0;fill-opacity:1;fill-rule:nonzero;stroke:none"
               id="path4565"
               inkscape:connector-curvature="0" />
            <path
               d="m 535.174,247.861 0.941,-6.922 -2.174,2.146 -2.941,-0.826 4.174,5.602"
               style="fill:#f6a7c0;fill-opacity:1;fill-rule:nonzero;stroke:none"
               id="path4567"
               inkscape:connector-curvature="0" />
            <path
               d="m 448.563,243.323 c 14.13,-73.222 30.04,-110.018 45.926,-109.926 15.886,0.093 31.796,36.704 45.925,109.926"
               style="fill:none;stroke:#df0071;stroke-width:1.29999995;stroke-linecap:butt;stroke-linejoin:miter;stroke-miterlimit:4;stroke-dasharray:none;stroke-opacity:1"
               id="path4569"
               inkscape:connector-curvature="0" />
            <path
               d="m 541.283,247.83 1.369,-6.851 -2.302,2.007 -2.885,-1.006 3.818,5.85"
               style="fill:#df0071;fill-opacity:1;fill-rule:nonzero;stroke:none"
               id="path4571"
               inkscape:connector-curvature="0" />
            <path
               d="m 447.693,247.83 3.82,-5.85 -2.885,1.006 -2.303,-2.007 1.368,6.851"
               style="fill:#df0071;fill-opacity:1;fill-rule:nonzero;stroke:none"
               id="path4573"
               inkscape:connector-curvature="0" />
            <path
               d="m 451.869,243.363 c 12.693,-62.333 27.682,-93.391 42.62,-93.361 14.937,0.031 29.927,31.028 42.62,93.361"
               style="fill:none;stroke:#ed6e9d;stroke-width:1.29999995;stroke-linecap:butt;stroke-linejoin:miter;stroke-miterlimit:4;stroke-dasharray:none;stroke-opacity:1"
               id="path4575"
               inkscape:connector-curvature="0" />
            <path
               d="m 538.025,247.86 1.299,-6.864 -2.283,2.031 -2.896,-0.977 3.88,5.81"
               style="fill:#ed6e9d;fill-opacity:1;fill-rule:nonzero;stroke:none"
               id="path4577"
               inkscape:connector-curvature="0" />
            <path
               d="m 450.953,247.86 3.879,-5.81 -2.895,0.977 -2.282,-2.031 1.298,6.864"
               style="fill:#ed6e9d;fill-opacity:1;fill-rule:nonzero;stroke:none"
               id="path4579"
               inkscape:connector-curvature="0" />
          </g>
        </g>
      </g>
    </g>
  </g>
</svg>
