<?xml version="1.0" encoding="UTF-8" standalone="no"?>
<!-- Created with Inkscape (http://www.inkscape.org/) -->

<svg
   xmlns:dc="http://purl.org/dc/elements/1.1/"
   xmlns:cc="http://creativecommons.org/ns#"
   xmlns:rdf="http://www.w3.org/1999/02/22-rdf-syntax-ns#"
   xmlns:svg="http://www.w3.org/2000/svg"
   xmlns="http://www.w3.org/2000/svg"
   xmlns:sodipodi="http://sodipodi.sourceforge.net/DTD/sodipodi-0.dtd"
   xmlns:inkscape="http://www.inkscape.org/namespaces/inkscape"
   width="32.931454mm"
   height="23.551762mm"
   viewBox="0 0 116.68625 83.451124"
   id="svg4341"
   version="1.1"
   inkscape:version="0.91 r13725"
   sodipodi:docname="act-5-4-1-3b.svg">
  <defs
     id="defs4343">
    <clipPath
       clipPathUnits="userSpaceOnUse"
       id="clipPath3970">
      <path
         d="m 426.167,302.123 105.033,0 0,-84 -105.033,0 0,84 z"
         id="path3972"
         inkscape:connector-curvature="0"
         style="clip-rule:evenodd" />
    </clipPath>
    <clipPath
       clipPathUnits="userSpaceOnUse"
       id="clipPath3976">
      <path
         d="m 0,787.5 612,0 0,-783 -612,0 0,783 z"
         id="path3978"
         inkscape:connector-curvature="0" />
    </clipPath>
    <clipPath
       clipPathUnits="userSpaceOnUse"
       id="clipPath3982">
      <path
         d="m 0,792.06 612,0 0,-792 -612,0 0,792 z"
         id="path3984"
         inkscape:connector-curvature="0" />
    </clipPath>
  </defs>
  <sodipodi:namedview
     id="base"
     pagecolor="#ffffff"
     bordercolor="#666666"
     borderopacity="1.0"
     inkscape:pageopacity="0.0"
     inkscape:pageshadow="2"
     inkscape:zoom="1.979899"
     inkscape:cx="140.97266"
     inkscape:cy="-32.538785"
     inkscape:document-units="px"
     inkscape:current-layer="g3980"
     showgrid="false"
     fit-margin-top="0"
     fit-margin-left="0"
     fit-margin-right="0"
     fit-margin-bottom="0"
     inkscape:window-width="1366"
     inkscape:window-height="715"
     inkscape:window-x="0"
     inkscape:window-y="0"
     inkscape:window-maximized="1" />
  <metadata
     id="metadata4346">
    <rdf:RDF>
      <cc:Work
         rdf:about="">
        <dc:format>image/svg+xml</dc:format>
        <dc:type
           rdf:resource="http://purl.org/dc/dcmitype/StillImage" />
        <dc:title></dc:title>
      </cc:Work>
    </rdf:RDF>
  </metadata>
  <g
     inkscape:label="Layer 1"
     inkscape:groupmode="layer"
     id="layer1"
     transform="translate(-267.37116,-416.37229)">
    <g
       id="g3974"
       clip-path="url(#clipPath3976)"
       transform="matrix(1.25,0,0,-1.25,-266.20509,793.54842)">
      <g
         id="g3980"
         clip-path="url(#clipPath3982)">
        <g
           id="g4468">
          <path
             inkscape:connector-curvature="0"
             id="path3986"
             style="fill:none;stroke:#df0071;stroke-width:2;stroke-linecap:butt;stroke-linejoin:miter;stroke-miterlimit:4;stroke-dasharray:none;stroke-opacity:1"
             d="m 435.71,235.98 83.5,0 0,55.5 -83.5,0 0,-55.5 z m 55,55.001 0,-54.501 m -55,25.501 83.5,0" />
          <g
             transform="matrix(1,0,0,-1,460.21,294.9809)"
             style="font-variant:normal;font-weight:normal;font-size:10px;font-family:Times;-inkscape-font-specification:Times-Roman;writing-mode:lr-tb;fill:#000000;fill-opacity:1;fill-rule:nonzero;stroke:none"
             id="text3988">
            <path
               d="M 4.75,-1.37 4.62,-1.42 c -0.37,0.57 -0.5,0.66 -0.95,0.66 l -2.39,0 1.68,-1.76 c 0.89,-0.93 1.28,-1.69 1.28,-2.47 0,-1 -0.81,-1.77 -1.85,-1.77 -0.55,0 -1.07,0.22 -1.44,0.62 -0.32,0.34 -0.47,0.66 -0.64,1.37 l 0.21,0.05 c 0.4,-0.98 0.76,-1.3 1.45,-1.3 0.84,0 1.41,0.57 1.41,1.41 0,0.78 -0.46,1.71 -1.3,2.6 L 0.3,-0.12 0.3,0 4.2,0 4.75,-1.37 Z"
               style=""
               id="path4480" />
          </g>
          <g
             transform="matrix(1,0,0,-1,465.21,294.9809)"
             style="font-style:italic;font-variant:normal;font-size:10px;font-family:Times;-inkscape-font-specification:Times-Italic;writing-mode:lr-tb;fill:#000000;fill-opacity:1;fill-rule:nonzero;stroke:none"
             id="text3992">
            <path
               d="M 4.02,-1.11 C 3.94,-1.02 3.89,-0.96 3.8,-0.84 3.57,-0.54 3.45,-0.44 3.34,-0.44 3.19,-0.44 3.1,-0.57 3.03,-0.85 3.01,-0.93 3,-0.99 2.99,-1.02 2.74,-2.03 2.63,-2.49 2.63,-2.64 c 0.44,-0.77 0.8,-1.21 0.98,-1.21 0.06,0 0.14,0.03 0.24,0.08 0.12,0.07 0.19,0.09 0.27,0.09 0.21,0 0.35,-0.15 0.35,-0.36 0,-0.21 -0.17,-0.37 -0.41,-0.37 -0.44,0 -0.82,0.36 -1.51,1.43 L 2.44,-3.53 C 2.3,-4.21 2.19,-4.41 1.92,-4.41 c -0.22,0 -0.56,0.09 -1.17,0.29 l -0.11,0.04 0.04,0.15 c 0.38,-0.09 0.47,-0.11 0.56,-0.11 0.25,0 0.31,0.09 0.45,0.69 l 0.29,1.23 -0.82,1.17 c -0.2,0.3 -0.4,0.48 -0.51,0.48 -0.06,0 -0.16,-0.03 -0.26,-0.09 -0.13,-0.07 -0.24,-0.1 -0.32,-0.1 -0.19,0 -0.34,0.15 -0.34,0.35 0,0.26 0.2,0.42 0.5,0.42 0.31,0 0.43,-0.09 0.93,-0.7 0.27,-0.32 0.48,-0.59 0.9,-1.17 l 0.3,1.2 c 0.13,0.51 0.26,0.67 0.58,0.67 0.38,0 0.64,-0.24 1.22,-1.14 L 4.02,-1.11 Z"
               style=""
               id="path4483" />
            <path
               d="m -34.058999,20.89 c -0.08,0.09 -0.13,0.15 -0.22,0.27 -0.23,0.3 -0.35,0.4 -0.46,0.4 -0.15,0 -0.24,-0.13 -0.31,-0.41 -0.02,-0.08 -0.03,-0.14 -0.04,-0.17 -0.25,-1.01 -0.36,-1.47 -0.36,-1.62 0.44,-0.77 0.8,-1.21 0.98,-1.21 0.06,0 0.14,0.03 0.24,0.08 0.12,0.07 0.19,0.09 0.27,0.09 0.21,0 0.35,-0.15 0.35,-0.36 0,-0.21 -0.17,-0.37 -0.41,-0.37 -0.44,0 -0.82,0.36 -1.51,1.43 l -0.11,-0.55 c -0.14,-0.68 -0.25,-0.88 -0.52,-0.88 -0.22,0 -0.56,0.09 -1.17,0.29 l -0.11,0.04 0.04,0.15 c 0.38,-0.09 0.47,-0.11 0.56,-0.11 0.25,0 0.31,0.09 0.45,0.69 l 0.29,1.23 -0.82,1.17 c -0.2,0.3 -0.4,0.48 -0.51,0.48 -0.06,0 -0.16,-0.03 -0.26,-0.09 -0.13,-0.07 -0.24,-0.1 -0.32,-0.1 -0.19,0 -0.34,0.15 -0.34,0.35 0,0.26 0.2,0.42 0.5,0.42 0.31,0 0.43,-0.09 0.93,-0.7 0.27,-0.32 0.48,-0.59 0.9,-1.17 l 0.3,1.2 c 0.13,0.51 0.26,0.67 0.58,0.67 0.38,0 0.64,-0.24 1.22,-1.14 l -0.14,-0.08 z"
               style=""
               id="path4485" />
          </g>
          <g
             transform="matrix(1,0,0,-1,426.571,245.9799)"
             style="font-variant:normal;font-weight:normal;font-size:10px;font-family:Times;-inkscape-font-specification:Times-Roman;writing-mode:lr-tb;fill:#000000;fill-opacity:1;fill-rule:nonzero;stroke:none"
             id="text3998">
            <path
               d="m 1.53,-3.3 c 0.59,0 0.82,0.02 1.06,0.11 0.62,0.22 1.01,0.79 1.01,1.48 0,0.84 -0.57,1.49 -1.31,1.49 -0.27,0 -0.47,-0.07 -0.84,-0.31 -0.3,-0.18 -0.47,-0.25 -0.64,-0.25 -0.23,0 -0.38,0.14 -0.38,0.35 0,0.35 0.43,0.57 1.13,0.57 0.77,0 1.56,-0.26 2.03,-0.67 0.47,-0.41 0.73,-0.99 0.73,-1.66 0,-0.51 -0.16,-0.98 -0.45,-1.29 -0.2,-0.22 -0.39,-0.34 -0.83,-0.53 0.69,-0.47 0.94,-0.84 0.94,-1.38 0,-0.81 -0.64,-1.37 -1.56,-1.37 -0.5,0 -0.94,0.17 -1.3,0.49 C 0.82,-6 0.67,-5.74 0.45,-5.14 L 0.6,-5.1 c 0.41,-0.73 0.86,-1.06 1.49,-1.06 0.65,0 1.1,0.44 1.1,1.07 0,0.36 -0.15,0.72 -0.4,0.97 -0.3,0.3 -0.58,0.45 -1.26,0.69 l 0,0.13 z"
               style=""
               id="path4488" />
            <path
               d="m 80.859999,-51.310999 -1.02,0 0,-4.45 -0.44,0 -3.14,4.45 0,0.64 2.81,0 0,1.67 0.77,0 0,-1.67 1.02,0 0,-0.64 z m -1.8,0 -2.4,0 2.4,-3.43 0,3.43 z"
               style=""
               id="path4490" />
          </g>
        </g>
      </g>
    </g>
  </g>
</svg>
