<?xml version="1.0" encoding="UTF-8" standalone="no"?>
<!-- Created with Inkscape (http://www.inkscape.org/) -->

<svg
   xmlns:dc="http://purl.org/dc/elements/1.1/"
   xmlns:cc="http://creativecommons.org/ns#"
   xmlns:rdf="http://www.w3.org/1999/02/22-rdf-syntax-ns#"
   xmlns:svg="http://www.w3.org/2000/svg"
   xmlns="http://www.w3.org/2000/svg"
   xmlns:sodipodi="http://sodipodi.sourceforge.net/DTD/sodipodi-0.dtd"
   xmlns:inkscape="http://www.inkscape.org/namespaces/inkscape"
   width="49.562103mm"
   height="23.108603mm"
   viewBox="0 0 175.61375 81.880875"
   id="svg5682"
   version="1.1"
   inkscape:version="0.91 r13725"
   sodipodi:docname="act-5-4-1-2b.svg">
  <defs
     id="defs5684">
    <clipPath
       clipPathUnits="userSpaceOnUse"
       id="clipPath5543">
      <path
         d="m 420,696.543 144.571,0 0,-82.857 -144.571,0 0,82.857 z"
         id="path5545"
         inkscape:connector-curvature="0"
         style="clip-rule:evenodd" />
    </clipPath>
    <clipPath
       clipPathUnits="userSpaceOnUse"
       id="clipPath5549">
      <path
         d="m 0,787.5 612,0 0,-783 -612,0 0,783 z"
         id="path5551"
         inkscape:connector-curvature="0" />
    </clipPath>
    <clipPath
       clipPathUnits="userSpaceOnUse"
       id="clipPath5555">
      <path
         d="m 0,792.06 612,0 0,-792 -612,0 0,792 z"
         id="path5557"
         inkscape:connector-curvature="0" />
    </clipPath>
  </defs>
  <sodipodi:namedview
     id="base"
     pagecolor="#ffffff"
     bordercolor="#666666"
     borderopacity="1.0"
     inkscape:pageopacity="0.0"
     inkscape:pageshadow="2"
     inkscape:zoom="1.979899"
     inkscape:cx="108.05677"
     inkscape:cy="26.481454"
     inkscape:document-units="px"
     inkscape:current-layer="g5553"
     showgrid="false"
     fit-margin-top="0"
     fit-margin-left="0"
     fit-margin-right="0"
     fit-margin-bottom="0"
     inkscape:window-width="1366"
     inkscape:window-height="715"
     inkscape:window-x="0"
     inkscape:window-y="0"
     inkscape:window-maximized="1" />
  <metadata
     id="metadata5687">
    <rdf:RDF>
      <cc:Work
         rdf:about="">
        <dc:format>image/svg+xml</dc:format>
        <dc:type
           rdf:resource="http://purl.org/dc/dcmitype/StillImage" />
        <dc:title></dc:title>
      </cc:Work>
    </rdf:RDF>
  </metadata>
  <g
     inkscape:label="Layer 1"
     inkscape:groupmode="layer"
     id="layer1"
     transform="translate(-63.6217,-189.05352)">
    <g
       clip-path="url(#clipPath5555)"
       id="g5553"
       transform="matrix(1.25,0,0,-1.25,-462.3883,1057.2319)">
      <g
         transform="matrix(1,0,0,-1,472.7094,688.1207)"
         style="font-variant:normal;font-weight:normal;font-size:9.5px;font-family:Times;-inkscape-font-specification:Times-Roman;writing-mode:lr-tb;fill:#000000;fill-opacity:1;fill-rule:nonzero;stroke:none"
         id="text5559">
        <path
           d="m 1.4535,-3.135 c 0.5605,0 0.779,0.019 1.007,0.1045 0.589,0.209 0.9595,0.7505 0.9595,1.406 0,0.798 -0.5415,1.4155 -1.2445,1.4155 -0.2565,0 -0.4465,-0.0665 -0.798,-0.2945 -0.285,-0.171 -0.4465,-0.2375 -0.608,-0.2375 -0.2185,0 -0.361,0.133 -0.361,0.3325 0,0.3325 0.4085,0.5415 1.0735,0.5415 0.7315,0 1.482,-0.247 1.9285,-0.6365 C 3.857,-0.893 4.104,-1.444 4.104,-2.0805 4.104,-2.565 3.952,-3.0115 3.6765,-3.306 3.4865,-3.515 3.306,-3.629 2.888,-3.8095 3.5435,-4.256 3.781,-4.6075 3.781,-5.1205 3.781,-5.89 3.173,-6.422 2.299,-6.422 1.824,-6.422 1.406,-6.2605 1.064,-5.9565 0.779,-5.7 0.6365,-5.453 0.4275,-4.883 L 0.57,-4.845 c 0.3895,-0.6935 0.817,-1.007 1.4155,-1.007 0.6175,0 1.045,0.418 1.045,1.0165 0,0.342 -0.1425,0.684 -0.38,0.9215 -0.285,0.285 -0.551,0.4275 -1.197,0.6555 l 0,0.1235 z"
           style=""
           id="path5884" />
        <path
           d="m 7.163,-6.422 c -0.5225,0 -0.9215,0.1615 -1.273,0.494 -0.551,0.532 -0.912,1.6245 -0.912,2.736 0,1.0355 0.3135,2.147 0.76,2.679 0.3515,0.418 0.836,0.646 1.387,0.646 0.4845,0 0.893,-0.1615 1.235,-0.494 0.551,-0.5225 0.912,-1.6245 0.912,-2.774 0,-1.9475 -0.8645,-3.287 -2.109,-3.287 z m -0.0285,0.247 c 0.798,0 1.2255,1.0735 1.2255,3.059 0,1.9855 -0.418,3.002 -1.235,3.002 -0.817,0 -1.235,-1.0165 -1.235,-2.9925 0,-2.014 0.4275,-3.0685 1.2445,-3.0685 z"
           style=""
           id="path5886" />
      </g>
      <path
         inkscape:connector-curvature="0"
         id="path5563"
         style="fill:#d7edfc;fill-opacity:1;fill-rule:nonzero;stroke:#df0071;stroke-width:1.89999998;stroke-linecap:butt;stroke-linejoin:miter;stroke-miterlimit:4;stroke-dasharray:none;stroke-opacity:1"
         d="m 421.758,629.988 110.2,0 0,38.761 -110.2,0 0,-38.761 z" />
      <path
         inkscape:connector-curvature="0"
         id="path5565"
         style="fill:none;stroke:#df0071;stroke-width:1.89999998;stroke-linecap:butt;stroke-linejoin:miter;stroke-miterlimit:4;stroke-dasharray:none;stroke-opacity:1"
         d="m 421.758,683.949 126.92,0 0,-53.961 -126.92,0 0,53.961 z" />
      <text
         id="text5567"
         style="font-variant:normal;font-weight:bold;font-size:9.5px;font-family:Times;-inkscape-font-specification:Times-Bold;writing-mode:lr-tb;fill:#000000;fill-opacity:1;fill-rule:nonzero;stroke:none"
         transform="matrix(1,0,0,-1,421.7582,617.702)">
        <tspan
           id="tspan5569"
           sodipodi:role="line"
           x="0"
           y="0" />
      </text>
      <g
         transform="matrix(1,0,0,-1,471.78805,673.27035)"
         style="font-variant:normal;font-weight:normal;font-size:9.5px;font-family:Times;-inkscape-font-specification:Times-Roman;writing-mode:lr-tb;fill:#000000;fill-opacity:1;fill-rule:nonzero;stroke:none"
         id="text5571">
        <path
           d="m 1.4535,-3.135 c 0.5605,0 0.779,0.019 1.007,0.1045 0.589,0.209 0.9595,0.7505 0.9595,1.406 0,0.798 -0.5415,1.4155 -1.2445,1.4155 -0.2565,0 -0.4465,-0.0665 -0.798,-0.2945 -0.285,-0.171 -0.4465,-0.2375 -0.608,-0.2375 -0.2185,0 -0.361,0.133 -0.361,0.3325 0,0.3325 0.4085,0.5415 1.0735,0.5415 0.7315,0 1.482,-0.247 1.9285,-0.6365 C 3.857,-0.893 4.104,-1.444 4.104,-2.0805 4.104,-2.565 3.952,-3.0115 3.6765,-3.306 3.4865,-3.515 3.306,-3.629 2.888,-3.8095 3.5435,-4.256 3.781,-4.6075 3.781,-5.1205 3.781,-5.89 3.173,-6.422 2.299,-6.422 1.824,-6.422 1.406,-6.2605 1.064,-5.9565 0.779,-5.7 0.6365,-5.453 0.4275,-4.883 L 0.57,-4.845 c 0.3895,-0.6935 0.817,-1.007 1.4155,-1.007 0.6175,0 1.045,0.418 1.045,1.0165 0,0.342 -0.1425,0.684 -0.38,0.9215 -0.285,0.285 -0.551,0.4275 -1.197,0.6555 l 0,0.1235 z"
           style=""
           id="path5879" />
        <path
           d="m 7.163,-6.422 c -0.5225,0 -0.9215,0.1615 -1.273,0.494 -0.551,0.532 -0.912,1.6245 -0.912,2.736 0,1.0355 0.3135,2.147 0.76,2.679 0.3515,0.418 0.836,0.646 1.387,0.646 0.4845,0 0.893,-0.1615 1.235,-0.494 0.551,-0.5225 0.912,-1.6245 0.912,-2.774 0,-1.9475 -0.8645,-3.287 -2.109,-3.287 z m -0.0285,0.247 c 0.798,0 1.2255,1.0735 1.2255,3.059 0,1.9855 -0.418,3.002 -1.235,3.002 -0.817,0 -1.235,-1.0165 -1.235,-2.9925 0,-2.014 0.4275,-3.0685 1.2445,-3.0685 z"
           style=""
           id="path5881" />
      </g>
      <g
         transform="matrix(1,0,0,-1,481.2871,673.27035)"
         style="font-style:italic;font-variant:normal;font-size:9.5px;font-family:Times;-inkscape-font-specification:Times-Italic;writing-mode:lr-tb;fill:#000000;fill-opacity:1;fill-rule:nonzero;stroke:none"
         id="text5575">
        <path
           d="M 3.819,-1.0545 C 3.743,-0.969 3.6955,-0.912 3.61,-0.798 c -0.2185,0.285 -0.3325,0.38 -0.437,0.38 -0.1425,0 -0.228,-0.1235 -0.2945,-0.3895 -0.019,-0.076 -0.0285,-0.133 -0.038,-0.1615 -0.2375,-0.9595 -0.342,-1.3965 -0.342,-1.539 0.418,-0.7315 0.76,-1.1495 0.931,-1.1495 0.057,0 0.133,0.0285 0.228,0.076 0.114,0.0665 0.1805,0.0855 0.2565,0.0855 0.1995,0 0.3325,-0.1425 0.3325,-0.342 0,-0.1995 -0.1615,-0.3515 -0.3895,-0.3515 -0.418,0 -0.779,0.342 -1.4345,1.3585 L 2.318,-3.3535 c -0.133,-0.646 -0.2375,-0.836 -0.494,-0.836 -0.209,0 -0.532,0.0855 -1.1115,0.2755 L 0.608,-3.876 0.646,-3.7335 C 1.007,-3.819 1.0925,-3.838 1.178,-3.838 c 0.2375,0 0.2945,0.0855 0.4275,0.6555 L 1.881,-2.014 1.102,-0.9025 c -0.19,0.285 -0.38,0.456 -0.4845,0.456 -0.057,0 -0.152,-0.0285 -0.247,-0.0855 -0.1235,-0.0665 -0.228,-0.095 -0.304,-0.095 -0.1805,0 -0.323,0.1425 -0.323,0.3325 0,0.247 0.19,0.399 0.475,0.399 0.2945,0 0.4085,-0.0855 0.8835,-0.665 0.2565,-0.304 0.456,-0.5605 0.855,-1.1115 l 0.285,1.14 c 0.1235,0.4845 0.247,0.6365 0.551,0.6365 0.361,0 0.608,-0.228 1.159,-1.083 l -0.133,-0.076 z"
           style=""
           id="path5872" />
        <path
           d="m 60.168251,-14.59865 c -0.076,0.0855 -0.1235,0.1425 -0.209,0.2565 -0.2185,0.285 -0.3325,0.38 -0.437,0.38 -0.1425,0 -0.228,-0.1235 -0.2945,-0.3895 -0.019,-0.076 -0.0285,-0.133 -0.038,-0.1615 -0.2375,-0.9595 -0.342,-1.3965 -0.342,-1.539 0.418,-0.7315 0.76,-1.1495 0.931,-1.1495 0.057,0 0.133,0.0285 0.228,0.076 0.114,0.0665 0.1805,0.0855 0.2565,0.0855 0.1995,0 0.3325,-0.1425 0.3325,-0.342 0,-0.1995 -0.1615,-0.3515 -0.3895,-0.3515 -0.418,0 -0.779,0.342 -1.4345,1.3585 l -0.1045,-0.5225 c -0.133,-0.646 -0.2375,-0.836 -0.494,-0.836 -0.209,0 -0.532,0.0855 -1.1115,0.2755 l -0.1045,0.038 0.038,0.1425 c 0.361,-0.0855 0.4465,-0.1045 0.532,-0.1045 0.2375,0 0.2945,0.0855 0.4275,0.6555 l 0.2755,1.1685 -0.779,1.1115 c -0.19,0.285 -0.38,0.456 -0.4845,0.456 -0.057,0 -0.152,-0.0285 -0.247,-0.0855 -0.1235,-0.0665 -0.228,-0.095 -0.304,-0.095 -0.1805,0 -0.323,0.1425 -0.323,0.3325 0,0.247 0.19,0.399 0.475,0.399 0.2945,0 0.4085,-0.0855 0.8835,-0.665 0.2565,-0.304 0.456,-0.5605 0.855,-1.1115 l 0.285,1.14 c 0.1235,0.4845 0.247,0.6365 0.551,0.6365 0.361,0 0.608,-0.228 1.159,-1.083 l -0.133,-0.076 z"
           style=""
           id="path5874" />
        <path
           d="m 58.268249,-0.93575 c -0.076,0.0855 -0.1235,0.1425 -0.209,0.2565 -0.2185,0.285 -0.3325,0.38 -0.437,0.38 -0.1425,0 -0.228,-0.1235 -0.2945,-0.3895 -0.019,-0.076 -0.0285,-0.133 -0.038,-0.1615 -0.2375,-0.9595 -0.342,-1.3965 -0.342,-1.539 0.418,-0.7315 0.76,-1.1495 0.931,-1.1495 0.057,0 0.133,0.0285 0.228,0.076 0.114,0.0665 0.1805,0.0855 0.2565,0.0855 0.1995,0 0.3325,-0.1425 0.3325,-0.342 0,-0.1995 -0.1615,-0.3515 -0.3895,-0.3515 -0.418,0 -0.779,0.342 -1.4345,1.3585 l -0.1045,-0.5225 c -0.133,-0.646 -0.2375,-0.836 -0.494,-0.836 -0.209,0 -0.532,0.0855 -1.1115,0.2755 l -0.1045,0.038 0.038,0.1425 c 0.361,-0.0855 0.4465,-0.1045 0.532,-0.1045 0.2375,0 0.2945,0.0855 0.4275,0.6555 l 0.2755,1.1685 -0.779,1.1115 c -0.19,0.285 -0.38,0.456 -0.4845,0.456 -0.057,0 -0.152,-0.0285 -0.247,-0.0855 -0.1235,-0.0665 -0.228,-0.095 -0.304,-0.095 -0.1805,0 -0.323,0.1425 -0.323,0.3325 0,0.247 0.19,0.399 0.475,0.399 0.2945,0 0.4085,-0.0855 0.8835,-0.665 0.2565,-0.304 0.456,-0.5605 0.855,-1.1115 l 0.285,1.14 c 0.1235,0.4845 0.247,0.6365 0.551,0.6365 0.361,0 0.608,-0.228 1.159,-1.083 l -0.133,-0.076 z"
           style=""
           id="path5876" />
      </g>
      <g
         transform="matrix(1,0,0,-1,539.9545,675.0518)"
         style="font-variant:normal;font-weight:normal;font-size:7.5999999px;font-family:Times;-inkscape-font-specification:Times-Roman;writing-mode:lr-tb;fill:#000000;fill-opacity:1;fill-rule:nonzero;stroke:none"
         id="text5583">
        <path
           d="m 3.61,-1.0412 -0.0988,-0.038 c -0.2812,0.43320001 -0.38,0.50160001 -0.722,0.50160001 l -1.81640001,0 L 2.2496,-1.9152 c 0.6764,-0.7068 0.9728,-1.2844 0.9728,-1.8772 0,-0.7599999 -0.6156,-1.3451999 -1.406,-1.3451999 -0.418,0 -0.8132,0.1672 -1.09440001,0.4712 -0.2432,0.2584 -0.35719999,0.5016 -0.48639999,1.0411999 l 0.1596,0.038 c 0.30399999,-0.7447999 0.57759999,-0.9879999 1.102,-0.9879999 0.6384,0 1.0716,0.4332 1.0716,1.0715999 0,0.5928 -0.3496,1.2996 -0.988,1.976 L 0.228,-0.0912 0.228,0 3.192,0 3.61,-1.0412 Z"
           style=""
           id="path5869" />
      </g>
      <g
         transform="matrix(1,0,0,-1,552.7395,673.1517)"
         style="font-style:italic;font-variant:normal;font-size:9.5px;font-family:Times;-inkscape-font-specification:Times-Italic;writing-mode:lr-tb;fill:#000000;fill-opacity:1;fill-rule:nonzero;stroke:none"
         id="text5587">
        <path
           d="M 3.819,-1.0545 C 3.743,-0.969 3.6955,-0.912 3.61,-0.798 c -0.2185,0.285 -0.3325,0.38 -0.437,0.38 -0.1425,0 -0.228,-0.1235 -0.2945,-0.3895 -0.019,-0.076 -0.0285,-0.133 -0.038,-0.1615 -0.2375,-0.9595 -0.342,-1.3965 -0.342,-1.539 0.418,-0.7315 0.76,-1.1495 0.931,-1.1495 0.057,0 0.133,0.0285 0.228,0.076 0.114,0.0665 0.1805,0.0855 0.2565,0.0855 0.1995,0 0.3325,-0.1425 0.3325,-0.342 0,-0.1995 -0.1615,-0.3515 -0.3895,-0.3515 -0.418,0 -0.779,0.342 -1.4345,1.3585 L 2.318,-3.3535 c -0.133,-0.646 -0.2375,-0.836 -0.494,-0.836 -0.209,0 -0.532,0.0855 -1.1115,0.2755 L 0.608,-3.876 0.646,-3.7335 C 1.007,-3.819 1.0925,-3.838 1.178,-3.838 c 0.2375,0 0.2945,0.0855 0.4275,0.6555 L 1.881,-2.014 1.102,-0.9025 c -0.19,0.285 -0.38,0.456 -0.4845,0.456 -0.057,0 -0.152,-0.0285 -0.247,-0.0855 -0.1235,-0.0665 -0.228,-0.095 -0.304,-0.095 -0.1805,0 -0.323,0.1425 -0.323,0.3325 0,0.247 0.19,0.399 0.475,0.399 0.2945,0 0.4085,-0.0855 0.8835,-0.665 0.2565,-0.304 0.456,-0.5605 0.855,-1.1115 l 0.285,1.14 c 0.1235,0.4845 0.247,0.6365 0.551,0.6365 0.361,0 0.608,-0.228 1.159,-1.083 l -0.133,-0.076 z"
           style=""
           id="path5866" />
      </g>
      <g
         transform="matrix(1,0,0,-1,532.8864,647.31075)"
         style="font-variant:normal;font-weight:normal;font-size:9.5px;font-family:Times;-inkscape-font-specification:Times-Roman;writing-mode:lr-tb;fill:#000000;fill-opacity:1;fill-rule:nonzero;stroke:none"
         id="text5591">
        <path
           d="m 2.7645,-6.422 -1.71,0.8645 0,0.133 C 1.1685,-5.472 1.273,-5.51 1.311,-5.529 c 0.171,-0.0665 0.3325,-0.1045 0.4275,-0.1045 0.1995,0 0.285,0.1425 0.285,0.4465 l 0,4.3035 c 0,0.3135 -0.076,0.532 -0.228,0.6175 C 1.653,-0.1805 1.52,-0.152 1.121,-0.1425 l 0,0.1425 2.622,0 0,-0.1425 C 2.9925,-0.152 2.8405,-0.247 2.8405,-0.703 l 0,-5.7 -0.076,-0.019 z"
           style=""
           id="path5861" />
        <path
           d="m 7.163,-6.422 c -0.5225,0 -0.9215,0.1615 -1.273,0.494 -0.551,0.532 -0.912,1.6245 -0.912,2.736 0,1.0355 0.3135,2.147 0.76,2.679 0.3515,0.418 0.836,0.646 1.387,0.646 0.4845,0 0.893,-0.1615 1.235,-0.494 0.551,-0.5225 0.912,-1.6245 0.912,-2.774 0,-1.9475 -0.8645,-3.287 -2.109,-3.287 z m -0.0285,0.247 c 0.798,0 1.2255,1.0735 1.2255,3.059 0,1.9855 -0.418,3.002 -1.235,3.002 -0.817,0 -1.235,-1.0165 -1.235,-2.9925 0,-2.014 0.4275,-3.0685 1.2445,-3.0685 z"
           style=""
           id="path5863" />
      </g>
      <g
         transform="matrix(1,0,0,-1,542.3864,647.31075)"
         style="font-style:italic;font-variant:normal;font-size:9.5px;font-family:Times;-inkscape-font-specification:Times-Italic;writing-mode:lr-tb;fill:#000000;fill-opacity:1;fill-rule:nonzero;stroke:none"
         id="text5595">
        <path
           d="M 3.819,-1.0545 C 3.743,-0.969 3.6955,-0.912 3.61,-0.798 c -0.2185,0.285 -0.3325,0.38 -0.437,0.38 -0.1425,0 -0.228,-0.1235 -0.2945,-0.3895 -0.019,-0.076 -0.0285,-0.133 -0.038,-0.1615 -0.2375,-0.9595 -0.342,-1.3965 -0.342,-1.539 0.418,-0.7315 0.76,-1.1495 0.931,-1.1495 0.057,0 0.133,0.0285 0.228,0.076 0.114,0.0665 0.1805,0.0855 0.2565,0.0855 0.1995,0 0.3325,-0.1425 0.3325,-0.342 0,-0.1995 -0.1615,-0.3515 -0.3895,-0.3515 -0.418,0 -0.779,0.342 -1.4345,1.3585 L 2.318,-3.3535 c -0.133,-0.646 -0.2375,-0.836 -0.494,-0.836 -0.209,0 -0.532,0.0855 -1.1115,0.2755 L 0.608,-3.876 0.646,-3.7335 C 1.007,-3.819 1.0925,-3.838 1.178,-3.838 c 0.2375,0 0.2945,0.0855 0.4275,0.6555 L 1.881,-2.014 1.102,-0.9025 c -0.19,0.285 -0.38,0.456 -0.4845,0.456 -0.057,0 -0.152,-0.0285 -0.247,-0.0855 -0.1235,-0.0665 -0.228,-0.095 -0.304,-0.095 -0.1805,0 -0.323,0.1425 -0.323,0.3325 0,0.247 0.19,0.399 0.475,0.399 0.2945,0 0.4085,-0.0855 0.8835,-0.665 0.2565,-0.304 0.456,-0.5605 0.855,-1.1115 l 0.285,1.14 c 0.1235,0.4845 0.247,0.6365 0.551,0.6365 0.361,0 0.608,-0.228 1.159,-1.083 l -0.133,-0.076 z"
           style=""
           id="path5858" />
      </g>
      <g
         transform="matrix(1,0,0,-1,471.5221,647.27085)"
         style="font-variant:normal;font-weight:normal;font-size:9.5px;font-family:Times;-inkscape-font-specification:Times-Roman;writing-mode:lr-tb;fill:#000000;fill-opacity:1;fill-rule:nonzero;stroke:none"
         id="text5599">
        <path
           d="m 1.4535,-3.135 c 0.5605,0 0.779,0.019 1.007,0.1045 0.589,0.209 0.9595,0.7505 0.9595,1.406 0,0.798 -0.5415,1.4155 -1.2445,1.4155 -0.2565,0 -0.4465,-0.0665 -0.798,-0.2945 -0.285,-0.171 -0.4465,-0.2375 -0.608,-0.2375 -0.2185,0 -0.361,0.133 -0.361,0.3325 0,0.3325 0.4085,0.5415 1.0735,0.5415 0.7315,0 1.482,-0.247 1.9285,-0.6365 C 3.857,-0.893 4.104,-1.444 4.104,-2.0805 4.104,-2.565 3.952,-3.0115 3.6765,-3.306 3.4865,-3.515 3.306,-3.629 2.888,-3.8095 3.5435,-4.256 3.781,-4.6075 3.781,-5.1205 3.781,-5.89 3.173,-6.422 2.299,-6.422 1.824,-6.422 1.406,-6.2605 1.064,-5.9565 0.779,-5.7 0.6365,-5.453 0.4275,-4.883 L 0.57,-4.845 c 0.3895,-0.6935 0.817,-1.007 1.4155,-1.007 0.6175,0 1.045,0.418 1.045,1.0165 0,0.342 -0.1425,0.684 -0.38,0.9215 -0.285,0.285 -0.551,0.4275 -1.197,0.6555 l 0,0.1235 z"
           style=""
           id="path5851" />
        <path
           d="m 7.163,-6.422 c -0.5225,0 -0.9215,0.1615 -1.273,0.494 -0.551,0.532 -0.912,1.6245 -0.912,2.736 0,1.0355 0.3135,2.147 0.76,2.679 0.3515,0.418 0.836,0.646 1.387,0.646 0.4845,0 0.893,-0.1615 1.235,-0.494 0.551,-0.5225 0.912,-1.6245 0.912,-2.774 0,-1.9475 -0.8645,-3.287 -2.109,-3.287 z m -0.0285,0.247 c 0.798,0 1.2255,1.0735 1.2255,3.059 0,1.9855 -0.418,3.002 -1.235,3.002 -0.817,0 -1.235,-1.0165 -1.235,-2.9925 0,-2.014 0.4275,-3.0685 1.2445,-3.0685 z"
           style=""
           id="path5853" />
        <path
           d="m 11.913,-6.422 c -0.5225,0 -0.9215,0.1615 -1.273,0.494 -0.551,0.532 -0.912,1.6245 -0.912,2.736 0,1.0355 0.3135,2.147 0.76,2.679 0.3515,0.418 0.836,0.646 1.387,0.646 0.4845,0 0.893,-0.1615 1.235,-0.494 0.551,-0.5225 0.912,-1.6245 0.912,-2.774 0,-1.9475 -0.8645,-3.287 -2.109,-3.287 z m -0.0285,0.247 c 0.798,0 1.2255,1.0735 1.2255,3.059 0,1.9855 -0.418,3.002 -1.235,3.002 -0.817,0 -1.235,-1.0165 -1.235,-2.9925 0,-2.014 0.4275,-3.0685 1.2445,-3.0685 z"
           style=""
           id="path5855" />
      </g>
      <path
         inkscape:connector-curvature="0"
         id="path5603"
         style="fill:none;stroke:#df0071;stroke-width:1.89999998;stroke-linecap:butt;stroke-linejoin:miter;stroke-miterlimit:4;stroke-dasharray:none;stroke-opacity:1"
         d="m 531.958,668.749 0,15.097 0,-15.097 z m 16.824,0.035 -16.824,0" />
      <g
         transform="matrix(1,0,0,-1,552.027,647.1919)"
         style="font-variant:normal;font-weight:normal;font-size:9.5px;font-family:Times;-inkscape-font-specification:Times-Roman;writing-mode:lr-tb;fill:#000000;fill-opacity:1;fill-rule:nonzero;stroke:none"
         id="text5605">
        <path
           d="m 2.7645,-6.422 -1.71,0.8645 0,0.133 C 1.1685,-5.472 1.273,-5.51 1.311,-5.529 c 0.171,-0.0665 0.3325,-0.1045 0.4275,-0.1045 0.1995,0 0.285,0.1425 0.285,0.4465 l 0,4.3035 c 0,0.3135 -0.076,0.532 -0.228,0.6175 C 1.653,-0.1805 1.52,-0.152 1.121,-0.1425 l 0,0.1425 2.622,0 0,-0.1425 C 2.9925,-0.152 2.8405,-0.247 2.8405,-0.703 l 0,-5.7 -0.076,-0.019 z"
           style=""
           id="path5846" />
        <path
           d="m 7.163,-6.422 c -0.5225,0 -0.9215,0.1615 -1.273,0.494 -0.551,0.532 -0.912,1.6245 -0.912,2.736 0,1.0355 0.3135,2.147 0.76,2.679 0.3515,0.418 0.836,0.646 1.387,0.646 0.4845,0 0.893,-0.1615 1.235,-0.494 0.551,-0.5225 0.912,-1.6245 0.912,-2.774 0,-1.9475 -0.8645,-3.287 -2.109,-3.287 z m -0.0285,0.247 c 0.798,0 1.2255,1.0735 1.2255,3.059 0,1.9855 -0.418,3.002 -1.235,3.002 -0.817,0 -1.235,-1.0165 -1.235,-2.9925 0,-2.014 0.4275,-3.0685 1.2445,-3.0685 z"
           style=""
           id="path5848" />
      </g>
    </g>
  </g>
</svg>
