<?xml version="1.0" encoding="UTF-8" standalone="no"?>
<!-- Created with Inkscape (http://www.inkscape.org/) -->

<svg
   xmlns:dc="http://purl.org/dc/elements/1.1/"
   xmlns:cc="http://creativecommons.org/ns#"
   xmlns:rdf="http://www.w3.org/1999/02/22-rdf-syntax-ns#"
   xmlns:svg="http://www.w3.org/2000/svg"
   xmlns="http://www.w3.org/2000/svg"
   xmlns:sodipodi="http://sodipodi.sourceforge.net/DTD/sodipodi-0.dtd"
   xmlns:inkscape="http://www.inkscape.org/namespaces/inkscape"
   width="46.925865mm"
   height="28.21686mm"
   viewBox="0 0 166.27275 99.980999"
   id="svg4273"
   version="1.1"
   inkscape:version="0.91 r13725"
   sodipodi:docname="fig-krypton-91-decay.svg">
  <defs
     id="defs4275">
    <clipPath
       clipPathUnits="userSpaceOnUse"
       id="clipPath602">
      <path
         d="m 285.56,462.34 135,0 0,-85 -135,0 0,85 z"
         id="path604"
         inkscape:connector-curvature="0"
         style="clip-rule:evenodd" />
    </clipPath>
    <clipPath
       clipPathUnits="userSpaceOnUse"
       id="clipPath608">
      <path
         d="m 28,776 640,0 0,-748 -640,0 0,748 z"
         id="path610"
         inkscape:connector-curvature="0" />
    </clipPath>
    <clipPath
       clipPathUnits="userSpaceOnUse"
       id="clipPath614">
      <path
         d="m 0,804.03 696,0 0,-804 -696,0 0,804 z"
         id="path616"
         inkscape:connector-curvature="0" />
    </clipPath>
  </defs>
  <sodipodi:namedview
     id="base"
     pagecolor="#ffffff"
     bordercolor="#666666"
     borderopacity="1.0"
     inkscape:pageopacity="0.0"
     inkscape:pageshadow="2"
     inkscape:zoom="2.1307116"
     inkscape:cx="102.37802"
     inkscape:cy="46.97257"
     inkscape:document-units="px"
     inkscape:current-layer="layer1"
     showgrid="false"
     fit-margin-top="0"
     fit-margin-left="0"
     fit-margin-right="0"
     fit-margin-bottom="0"
     inkscape:window-width="1366"
     inkscape:window-height="715"
     inkscape:window-x="0"
     inkscape:window-y="0"
     inkscape:window-maximized="1" />
  <metadata
     id="metadata4278">
    <rdf:RDF>
      <cc:Work
         rdf:about="">
        <dc:format>image/svg+xml</dc:format>
        <dc:type
           rdf:resource="http://purl.org/dc/dcmitype/StillImage" />
        <dc:title></dc:title>
      </cc:Work>
    </rdf:RDF>
  </metadata>
  <g
     inkscape:label="Layer 1"
     inkscape:groupmode="layer"
     id="layer1"
     transform="translate(-272.62198,-479.35377)">
    <g
       transform="matrix(1.25,0,0,-1.25,-85.756766,1054.2654)"
       id="g598">
      <g
         id="g600"
         clip-path="url(#clipPath602)">
        <g
           id="g606"
           clip-path="url(#clipPath608)">
          <g
             id="g612"
             clip-path="url(#clipPath614)">
            <path
               d="m 298.807,456.276 108.6,0 0,-72.4 -108.6,0 0,72.4 z"
               style="fill:#e6f7fd;fill-opacity:1;fill-rule:nonzero;stroke:none"
               id="path618"
               inkscape:connector-curvature="0" />
            <path
               d="m 298.807,383.876 108.6,0 0,72.4 -108.6,0 0,-72.4 z m 1.987,70.4 0,-68.4"
               style="fill:none;stroke:#231f20;stroke-width:0.69999999;stroke-linecap:butt;stroke-linejoin:miter;stroke-miterlimit:4;stroke-dasharray:none;stroke-opacity:1"
               id="path620"
               inkscape:connector-curvature="0" />
            <path
               d="m 405.407,385.764 -104.6,0"
               style="fill:none;stroke:#231f20;stroke-width:0.69999999;stroke-linecap:square;stroke-linejoin:miter;stroke-miterlimit:4;stroke-dasharray:none;stroke-opacity:1"
               id="path622"
               inkscape:connector-curvature="0" />
            <path
               d="m 303.001,454.234 -2.145,0 m 2.145,-2.736 -2.145,0 m 2.145,-2.736 -2.145,0 m 2.145,-2.738 -2.145,0 m 2.145,-2.736 -2.145,0 m 2.145,-2.738 -2.145,0 m 2.145,-2.736 -2.145,0 m 2.145,-2.738 -2.145,0 m 2.145,-2.736 -2.145,0 m 2.145,-2.737 -2.145,0 m 2.145,-2.737 -2.145,0 m 2.145,-2.737 -2.145,0 m 2.145,-2.737 -2.145,0 m 2.145,-2.737 -2.145,0 m 2.145,-2.736 -2.145,0 m 2.145,-2.738 -2.145,0 m 2.145,-2.737 -2.145,0 m 2.145,-2.737 -2.145,0 m 2.145,-2.736 -2.145,0 m 2.145,-2.737 -2.145,0 m 2.145,-2.738 -2.145,0 m 2.145,-2.737 -2.145,0 m 2.145,-2.735 -2.145,0 m 2.145,-2.739 -2.145,0 m 2.145,-2.736 -2.145,0 m 2.145,-2.736 -2.145,0 m -0.044,-0.049 0,2.145 m 17.434,-2.134 0,2.145 m 17.434,-2.136 0,2.146 m 17.432,-2.134 0,2.145 m 17.433,-2.135 0,2.144 m 17.433,-2.133 0,2.145 m 17.435,-2.136 0,2.146"
               style="fill:none;stroke:#231f20;stroke-width:0.69999999;stroke-linecap:butt;stroke-linejoin:miter;stroke-miterlimit:4;stroke-dasharray:none;stroke-opacity:1"
               id="path624"
               inkscape:connector-curvature="0" />
            <text
               transform="matrix(1,0,0,-1,290.933,380.0705)"
               style="font-variant:normal;font-weight:normal;font-size:9px;font-family:Times;-inkscape-font-specification:Times-Roman;writing-mode:lr-tb;fill:#231f20;fill-opacity:1;fill-rule:nonzero;stroke:none"
               id="text626">
              <tspan
                 x="0"
                 y="0"
                 id="tspan628">0</tspan>
              <tspan
                 x="-4.5 0"
                 y="-73.666801"
                 sodipodi:role="line"
                 id="tspan630">25</tspan>
              <tspan
                 x="120.0042 124.5042"
                 y="0"
                 sodipodi:role="line"
                 id="tspan632">60</tspan>
            </text>
            <path
               d="m 300.803,454.16 c 16.121,-62.576 71.435,-67.834 104.605,-67.834"
               style="fill:none;stroke:#231f20;stroke-width:0.69999999;stroke-linecap:butt;stroke-linejoin:miter;stroke-miterlimit:4;stroke-dasharray:none;stroke-opacity:1"
               id="path634"
               inkscape:connector-curvature="0" />
          </g>
        </g>
      </g>
    </g>
  </g>
</svg>
