<?xml version="1.0" encoding="UTF-8" standalone="no"?>
<!-- Created with Inkscape (http://www.inkscape.org/) -->

<svg
   xmlns:dc="http://purl.org/dc/elements/1.1/"
   xmlns:cc="http://creativecommons.org/ns#"
   xmlns:rdf="http://www.w3.org/1999/02/22-rdf-syntax-ns#"
   xmlns:svg="http://www.w3.org/2000/svg"
   xmlns="http://www.w3.org/2000/svg"
   xmlns:sodipodi="http://sodipodi.sourceforge.net/DTD/sodipodi-0.dtd"
   xmlns:inkscape="http://www.inkscape.org/namespaces/inkscape"
   width="99.131996mm"
   height="68.917419mm"
   viewBox="0 0 351.25511 244.19558"
   id="svg8801"
   version="1.1"
   inkscape:version="0.91 r13725"
   sodipodi:docname="fig-example-cocoa.svg">
  <defs
     id="defs8803">
    <clipPath
       clipPathUnits="userSpaceOnUse"
       id="clipPath8617">
      <path
         d="m 109.721,176.138 266.558,0 0,197.452 -266.558,0 0,-197.452 z"
         id="path8619"
         inkscape:connector-curvature="0" />
    </clipPath>
    <clipPath
       clipPathUnits="userSpaceOnUse"
       id="clipPath8595">
      <path
         d="m 109.721,176.138 266.558,0 0,197.452 -266.558,0 0,-197.452 z"
         id="path8597"
         inkscape:connector-curvature="0" />
    </clipPath>
    <clipPath
       clipPathUnits="userSpaceOnUse"
       id="clipPath8557">
      <path
         d="m 109.721,176.138 266.558,0 0,197.452 -266.558,0 0,-197.452 z"
         id="path8559"
         inkscape:connector-curvature="0" />
    </clipPath>
    <clipPath
       clipPathUnits="userSpaceOnUse"
       id="clipPath8533">
      <path
         d="m 109.721,176.138 266.558,0 0,197.452 -266.558,0 0,-197.452 z"
         id="path8535"
         inkscape:connector-curvature="0" />
    </clipPath>
  </defs>
  <sodipodi:namedview
     id="base"
     pagecolor="#ffffff"
     bordercolor="#666666"
     borderopacity="1.0"
     inkscape:pageopacity="0.0"
     inkscape:pageshadow="2"
     inkscape:zoom="1.5066406"
     inkscape:cx="179.79576"
     inkscape:cy="132.35446"
     inkscape:document-units="px"
     inkscape:current-layer="layer1"
     showgrid="false"
     fit-margin-top="0"
     fit-margin-left="0"
     fit-margin-right="0"
     fit-margin-bottom="0"
     inkscape:window-width="1366"
     inkscape:window-height="715"
     inkscape:window-x="0"
     inkscape:window-y="0"
     inkscape:window-maximized="1" />
  <metadata
     id="metadata8806">
    <rdf:RDF>
      <cc:Work
         rdf:about="">
        <dc:format>image/svg+xml</dc:format>
        <dc:type
           rdf:resource="http://purl.org/dc/dcmitype/StillImage" />
        <dc:title></dc:title>
      </cc:Work>
    </rdf:RDF>
  </metadata>
  <g
     inkscape:label="Layer 1"
     inkscape:groupmode="layer"
     id="layer1"
     transform="translate(-195.20423,-420.5211)">
    <g
       id="g8525"
       transform="matrix(1.25,0,0,-1.25,282.33314,425.52958)">
      <path
         d="m 0,0 0,-165.625 m 206.21,145.029 -247.403,0"
         style="fill:none;stroke:#000000;stroke-width:0.2;stroke-linecap:round;stroke-linejoin:round;stroke-miterlimit:4;stroke-dasharray:0, 0.8;stroke-dashoffset:0;stroke-opacity:1"
         id="path8527"
         inkscape:connector-curvature="0" />
    </g>
    <g
       transform="matrix(1.25,0,0,-1.25,75.145392,886.59908)"
       id="g8529">
      <g
         id="g8531"
         clip-path="url(#clipPath8533)">
        <g
           id="g8537"
           transform="translate(167.7487,347.8937)">
          <path
             d="m 0,0 c 0,-1.036 -0.84,-1.875 -1.875,-1.875 -1.036,0 -1.875,0.839 -1.875,1.875 0,1.036 0.839,1.875 1.875,1.875 C -0.84,1.875 0,1.036 0,0"
             style="fill:#0095da;fill-opacity:1;fill-rule:evenodd;stroke:none"
             id="path8539"
             inkscape:connector-curvature="0" />
        </g>
        <g
           id="g8541"
           transform="translate(371.9599,203.231)">
          <path
             d="m 0,0 -247.403,0 0,165.625"
             style="fill:none;stroke:#000000;stroke-width:0.75;stroke-linecap:round;stroke-linejoin:round;stroke-miterlimit:4;stroke-dasharray:none;stroke-opacity:1"
             id="path8543"
             inkscape:connector-curvature="0" />
        </g>
        <g
           id="g8545"
           transform="translate(138.3288,368.8556)">
          <path
             d="M 0,0 0,-165.625 M 13.773,0 l 0,-165.625 M 41.194,0 l 0,-165.625 M 54.966,0 l 0,-165.625 M 68.738,0 l 0,-165.625 M 82.387,0 l 0,-165.625 M 96.159,0 l 0,-165.625 M 109.931,0 l 0,-165.625 M 123.702,0 l 0,-165.625 M 137.351,0 l 0,-165.625 M 151.123,0 l 0,-165.625 M 164.895,0 l 0,-165.625 M 178.667,0 l 0,-165.625 M 192.438,0 l 0,-165.625 M 206.088,0 l 0,-165.625 M 219.86,0 l 0,-165.625 M 233.631,0 l 0,-165.625 m 0,6.824 -247.402,0 m 247.402,6.947 -247.402,0 m 247.402,6.946 -247.402,0 m 247.402,6.826 -247.402,0 m 247.402,6.946 -247.402,0 m 247.402,6.948 -247.402,0 m 247.402,6.824 -247.402,0 m 247.402,6.947 -247.402,0 m 247.402,6.946 -247.402,0 m 247.402,6.826 -247.402,0 m 247.402,6.947 -247.402,0 m 247.402,6.947 -247.402,0 m 247.402,6.823 -247.402,0 m 247.402,6.948 -247.402,0 m 247.402,6.948 -247.402,0 m 247.402,6.824 -247.402,0 m 247.402,6.946 -247.402,0 m 247.402,6.948 -247.402,0 m 247.402,6.825 -247.402,0 m 247.402,6.946 -247.402,0 m 247.402,13.894 -247.402,0 m 247.402,6.824 -247.402,0 M 233.631,0 -13.771,0"
             style="fill:none;stroke:#000000;stroke-width:0.2;stroke-linecap:round;stroke-linejoin:round;stroke-miterlimit:4;stroke-dasharray:0, 0.8;stroke-dashoffset:0;stroke-opacity:1"
             id="path8547"
             inkscape:connector-curvature="0" />
        </g>
      </g>
    </g>
    <text
       y="647.4491"
       x="228.14189"
       style="font-variant:normal;font-weight:normal;font-stretch:normal;font-size:11.25px;font-family:'Minion Pro';-inkscape-font-specification:MinionPro-Regular;writing-mode:lr-tb;fill:#000000;fill-opacity:1;fill-rule:nonzero;stroke:none"
       id="text8549">
      <tspan
         x="228.14189 245.23064 262.28564 279.1944 297.16064 314.05814 331.12439 348.03314 365.08813"
         y="647.4491"
         sodipodi:role="line"
         id="tspan8551">123456789</tspan>
    </text>
    <g
       transform="matrix(1.25,0,0,-1.25,75.145392,886.59908)"
       id="g8553">
      <g
         id="g8555"
         clip-path="url(#clipPath8557)">
        <g
           id="g8561"
           transform="translate(124.5573,198.843)">
          <path
             d="M 0,0 0,4.388 M 13.771,0 l 0,4.388 M 27.544,0 l 0,4.388 M 41.193,0 l 0,4.388 M 54.966,0 l 0,4.388 M 68.737,0 l 0,4.388 M 82.509,0 l 0,4.388 M 96.159,0 l 0,4.388 M 109.931,0 l 0,4.388 M 123.703,0 l 0,4.388 M 137.474,0 l 0,4.388 M 151.123,0 l 0,4.388 M 164.895,0 l 0,4.388 M 178.667,0 l 0,4.388 M 192.439,0 l 0,4.388 M 206.21,0 l 0,4.388 M 219.86,0 l 0,4.388 M 233.632,0 l 0,4.388 M 247.403,0 l 0,4.388"
             style="fill:none;stroke:#000000;stroke-width:0.34999999;stroke-linecap:butt;stroke-linejoin:miter;stroke-miterlimit:4;stroke-dasharray:none;stroke-opacity:1"
             id="path8563"
             inkscape:connector-curvature="0" />
        </g>
      </g>
    </g>
    <text
       y="636.05286"
       x="218.54227"
       style="font-variant:normal;font-weight:normal;font-stretch:normal;font-size:11.25px;font-family:'Minion Pro';-inkscape-font-specification:MinionPro-Regular;writing-mode:lr-tb;fill:#000000;fill-opacity:1;fill-rule:nonzero;stroke:none"
       id="text8565">
      <tspan
         x="218.54227"
         y="636.05286"
         id="tspan8567">0</tspan>
      <tspan
         x="218.54227"
         y="618.78406"
         id="tspan8569">4</tspan>
      <tspan
         x="218.54227"
         y="601.51532"
         id="tspan8571">8</tspan>
      <tspan
         x="212.29851 217.69852"
         y="584.24658"
         sodipodi:role="line"
         id="tspan8573">12</tspan>
      <tspan
         x="212.29851 217.69852"
         y="566.97784"
         sodipodi:role="line"
         id="tspan8575">16</tspan>
      <tspan
         x="212.29851 217.69852"
         y="549.70911"
         sodipodi:role="line"
         id="tspan8577">20</tspan>
      <tspan
         x="212.29851 217.69852"
         y="532.44037"
         sodipodi:role="line"
         id="tspan8579">24</tspan>
      <tspan
         x="212.29851 217.69852"
         y="515.17157"
         sodipodi:role="line"
         id="tspan8581">28</tspan>
      <tspan
         x="212.29851 217.69852"
         y="497.90283"
         sodipodi:role="line"
         id="tspan8583">32</tspan>
      <tspan
         x="212.29851 217.69852"
         y="480.63409"
         sodipodi:role="line"
         id="tspan8585">36</tspan>
      <tspan
         x="212.29851 217.69852"
         y="463.36533"
         sodipodi:role="line"
         id="tspan8587">40</tspan>
      <tspan
         x="212.29851 217.69852"
         y="446.09659"
         sodipodi:role="line"
         id="tspan8589">44</tspan>
    </text>
    <g
       transform="matrix(1.25,0,0,-1.25,75.145392,886.59908)"
       id="g8591">
      <g
         id="g8593"
         clip-path="url(#clipPath8595)">
        <text
           transform="matrix(1,0,0,-1,109.7209,366.1827)"
           style="font-variant:normal;font-weight:normal;font-stretch:normal;font-size:9px;font-family:'Minion Pro';-inkscape-font-specification:MinionPro-Regular;writing-mode:lr-tb;fill:#000000;fill-opacity:1;fill-rule:nonzero;stroke:none"
           id="text8599">
          <tspan
             x="0 4.3200002"
             y="0"
             sodipodi:role="line"
             id="tspan8601">48</tspan>
        </text>
        <g
           id="g8603"
           transform="translate(120.6569,203.231)">
          <path
             d="M 0,0 3.9,0 M 0,6.824 l 3.9,0 m -3.9,6.947 3.9,0 m -3.9,6.946 3.9,0 m -3.9,6.826 3.9,0 m -3.9,6.946 3.9,0 m -3.9,6.948 3.9,0 m -3.9,6.824 3.9,0 m -3.9,6.947 3.9,0 m -3.9,6.946 3.9,0 M 0,68.98 l 3.9,0 m -3.9,6.946 3.9,0 m -3.9,6.947 3.9,0 m -3.9,6.824 3.9,0 m -3.9,6.947 3.9,0 m -3.9,6.948 3.9,0 m -3.9,6.825 3.9,0 m -3.9,6.946 3.9,0 m -3.9,6.947 3.9,0 m -3.9,6.825 3.9,0 m -3.9,6.947 3.9,0 m -3.9,6.947 3.9,0 m -3.9,6.946 3.9,0 M 0,158.8 l 3.9,0 m -3.9,6.825 3.9,0"
             style="fill:none;stroke:#000000;stroke-width:0.34999999;stroke-linecap:butt;stroke-linejoin:miter;stroke-miterlimit:4;stroke-dasharray:none;stroke-opacity:1"
             id="path8605"
             inkscape:connector-curvature="0" />
        </g>
      </g>
    </g>
    <text
       y="662.37659"
       x="355.82901"
       style="font-variant:normal;font-weight:normal;font-stretch:normal;font-size:11.25px;font-family:'Minion Pro';-inkscape-font-specification:MinionPro-Regular;writing-mode:lr-tb;fill:#000000;fill-opacity:1;fill-rule:nonzero;stroke:none"
       id="text8607">
      <tspan
         x="355.82901 362.77026 367.55151 376.76526 382.66025 387.4415 391.61526 396.55402 399.98526 405.95901 410.13275"
         y="662.37659"
         sodipodi:role="line"
         id="tspan8609">Temperature</tspan>
      <tspan
         x="380.129 385.52902 397.02652 402.42651 414.08151 419.48151 430.979 436.37903 448.94525 454.34528 465.854 471.254 482.909 488.30899 500.26776 505.66776 516.86151 522.26154 534.69275 540.09277"
         y="647.44781"
         sodipodi:role="line"
         id="tspan8611">10111213141516171819</tspan>
    </text>
    <g
       transform="matrix(1.25,0,0,-1.25,75.145392,886.59908)"
       id="g8613">
      <g
         id="g8615"
         clip-path="url(#clipPath8617)">
        <g
           id="g8621"
           transform="translate(140.2658,358.4958)">
          <path
             d="m 0,0 c 0,-1.035 -0.839,-1.875 -1.875,-1.875 -1.036,0 -1.875,0.84 -1.875,1.875 0,1.036 0.839,1.875 1.875,1.875 C -0.839,1.875 0,1.036 0,0"
             style="fill:#0095da;fill-opacity:1;fill-rule:evenodd;stroke:none"
             id="path8623"
             inkscape:connector-curvature="0" />
        </g>
        <g
           id="g8625"
           transform="translate(181.4582,348.1379)">
          <path
             d="m 0,0 c 0,-1.036 -0.839,-1.875 -1.875,-1.875 -1.036,0 -1.875,0.839 -1.875,1.875 0,1.036 0.839,1.875 1.875,1.875 C -0.839,1.875 0,1.036 0,0"
             style="fill:#0095da;fill-opacity:1;fill-rule:evenodd;stroke:none"
             id="path8627"
             inkscape:connector-curvature="0" />
        </g>
        <g
           id="g8629"
           transform="translate(222.5299,324.006)">
          <path
             d="m 0,0 c 0,-1.036 -0.839,-1.875 -1.874,-1.875 -1.036,0 -1.876,0.839 -1.876,1.875 0,1.036 0.84,1.875 1.876,1.875 C -0.839,1.875 0,1.036 0,0"
             style="fill:#0095da;fill-opacity:1;fill-rule:evenodd;stroke:none"
             id="path8631"
             inkscape:connector-curvature="0" />
        </g>
        <g
           id="g8633"
           transform="translate(250.1339,289.5162)">
          <path
             d="m 0,0 c 0,-1.036 -0.838,-1.875 -1.874,-1.875 -1.036,0 -1.876,0.839 -1.876,1.875 0,1.036 0.84,1.875 1.876,1.875 C -0.838,1.875 0,1.036 0,0"
             style="fill:#0095da;fill-opacity:1;fill-rule:evenodd;stroke:none"
             id="path8635"
             inkscape:connector-curvature="0" />
        </g>
        <g
           id="g8637"
           transform="translate(277.5559,261.546)">
          <path
             d="m 0,0 c 0,-1.036 -0.837,-1.875 -1.875,-1.875 -1.036,0 -1.875,0.839 -1.875,1.875 0,1.036 0.839,1.875 1.875,1.875 C -0.837,1.875 0,1.036 0,0"
             style="fill:#0095da;fill-opacity:1;fill-rule:evenodd;stroke:none"
             id="path8639"
             inkscape:connector-curvature="0" />
        </g>
        <g
           id="g8641"
           transform="translate(318.6279,258.378)">
          <path
             d="m 0,0 c 0,-1.036 -0.838,-1.875 -1.875,-1.875 -1.036,0 -1.875,0.839 -1.875,1.875 0,1.035 0.839,1.875 1.875,1.875 C -0.838,1.875 0,1.035 0,0"
             style="fill:#0095da;fill-opacity:1;fill-rule:evenodd;stroke:none"
             id="path8643"
             inkscape:connector-curvature="0" />
        </g>
        <g
           id="g8645"
           transform="translate(332.6439,254.783)">
          <path
             d="m 0,0 c 0,-1.035 -0.839,-1.875 -1.875,-1.875 -1.037,0 -1.875,0.84 -1.875,1.875 0,1.036 0.838,1.875 1.875,1.875 C -0.839,1.875 0,1.036 0,0"
             style="fill:#0095da;fill-opacity:1;fill-rule:evenodd;stroke:none"
             id="path8647"
             inkscape:connector-curvature="0" />
        </g>
        <g
           id="g8649"
           transform="translate(360.1249,223.827)">
          <path
             d="m 0,0 c 0,-1.036 -0.838,-1.875 -1.874,-1.875 -1.037,0 -1.876,0.839 -1.876,1.875 0,1.035 0.839,1.875 1.876,1.875 C -0.838,1.875 0,1.035 0,0"
             style="fill:#0095da;fill-opacity:1;fill-rule:evenodd;stroke:none"
             id="path8651"
             inkscape:connector-curvature="0" />
        </g>
        <g
           id="g8653"
           transform="translate(263.9069,289.5162)">
          <path
             d="m 0,0 c 0,-1.036 -0.838,-1.875 -1.875,-1.875 -1.036,0 -1.875,0.839 -1.875,1.875 0,1.036 0.839,1.875 1.875,1.875 C -0.838,1.875 0,1.036 0,0"
             style="fill:#0095da;fill-opacity:1;fill-rule:evenodd;stroke:none"
             id="path8655"
             inkscape:connector-curvature="0" />
        </g>
        <g
           id="g8657"
           transform="translate(132.3801,368.8556)">
          <path
             d="M 0,0 239.58,-149.372"
             style="fill:none;stroke:#da2128;stroke-width:1;stroke-linecap:butt;stroke-linejoin:miter;stroke-miterlimit:4;stroke-dasharray:none;stroke-opacity:1"
             id="path8659"
             inkscape:connector-curvature="0" />
        </g>
      </g>
    </g>
    <g
       transform="matrix(0,-1,1,0,105.94182,357.81965)"
       style="font-style:normal;font-weight:normal;font-size:10px;line-height:125%;font-family:sans-serif;letter-spacing:0px;word-spacing:0px;fill:#000000;fill-opacity:1;stroke:none;stroke-width:1px;stroke-linecap:butt;stroke-linejoin:miter;stroke-opacity:1"
       id="flowRoot9127">
      <path
         d="m -197.32324,90.131554 0,1.040039 q -0.49805,-0.463867 -1.06446,-0.693359 -0.56152,-0.229492 -1.19628,-0.229492 -1.25,0 -1.91407,0.766601 -0.66406,0.761719 -0.66406,2.207031 0,1.44043 0.66406,2.207032 0.66407,0.761718 1.91407,0.761718 0.63476,0 1.19628,-0.229492 0.56641,-0.229492 1.06446,-0.693359 l 0,1.030273 q -0.51758,0.351563 -1.09863,0.527344 -0.57618,0.175781 -1.22071,0.175781 -1.65527,0 -2.60742,-1.010742 -0.95215,-1.015625 -0.95215,-2.768555 0,-1.757812 0.95215,-2.768554 0.95215,-1.015625 2.60742,-1.015625 0.6543,0 1.23047,0.175781 0.58106,0.170898 1.08887,0.517578 z"
         id="path9136"
         inkscape:connector-curvature="0" />
      <path
         d="m -195.92187,94.701867 0,-3.310547 0.89843,0 0,3.276367 q 0,0.776367 0.30274,1.166992 0.30273,0.385742 0.9082,0.385742 0.72754,0 1.14746,-0.463867 0.42481,-0.463867 0.42481,-1.264648 l 0,-3.100586 0.89843,0 0,5.46875 -0.89843,0 0,-0.839844 q -0.32715,0.498047 -0.76172,0.742187 -0.42969,0.239258 -1.00098,0.239258 -0.94238,0 -1.43066,-0.585937 -0.48828,-0.585938 -0.48828,-1.713867 z m 2.26074,-3.442383 0,0 z"
         id="path9138"
         inkscape:connector-curvature="0" />
      <path
         d="m -188.6123,96.039757 0,2.900391 -0.90332,0 0,-7.548828 0.90332,0 0,0.830078 q 0.2832,-0.488281 0.71289,-0.722656 0.43457,-0.239258 1.03515,-0.239258 0.9961,0 1.61621,0.791015 0.625,0.791016 0.625,2.080079 0,1.289062 -0.625,2.080078 -0.62011,0.791015 -1.61621,0.791015 -0.60058,0 -1.03515,-0.234375 -0.42969,-0.239258 -0.71289,-0.727539 z m 3.05664,-1.909179 q 0,-0.991211 -0.41016,-1.552735 -0.40527,-0.566406 -1.11816,-0.566406 -0.71289,0 -1.12305,0.566406 -0.40527,0.561524 -0.40527,1.552735 0,0.99121 0.40527,1.557617 0.41016,0.561523 1.12305,0.561523 0.71289,0 1.11816,-0.561523 0.41016,-0.566407 0.41016,-1.557617 z"
         id="path9140"
         inkscape:connector-curvature="0" />
      <path
         d="m -179.64746,91.552453 0,0.849609 q -0.38086,-0.195313 -0.79102,-0.292969 -0.41015,-0.09766 -0.84961,-0.09766 -0.66894,0 -1.00586,0.205078 -0.33203,0.205078 -0.33203,0.615234 0,0.3125 0.23926,0.493164 0.23926,0.175782 0.96192,0.336915 l 0.30761,0.06836 q 0.95703,0.205078 1.35742,0.581055 0.40528,0.371093 0.40528,1.040039 0,0.761718 -0.60547,1.206054 -0.60059,0.444336 -1.65527,0.444336 -0.43946,0 -0.91797,-0.08789 -0.47364,-0.08301 -1.00098,-0.253907 l 0,-0.927734 q 0.49805,0.258789 0.98145,0.390625 0.48339,0.126953 0.95703,0.126953 0.63476,0 0.97656,-0.214844 0.3418,-0.219726 0.3418,-0.615234 0,-0.366211 -0.24903,-0.561523 -0.24414,-0.195313 -1.0791,-0.375977 l -0.3125,-0.07324 q -0.83496,-0.175781 -1.20605,-0.53711 -0.3711,-0.36621 -0.3711,-1.000976 0,-0.771484 0.54688,-1.191406 0.54687,-0.419922 1.55273,-0.419922 0.49805,0 0.9375,0.07324 0.43946,0.07324 0.81055,0.219727 z"
         id="path9142"
         inkscape:connector-curvature="0" />
      <path
         d="m -172.61621,92.021203 q -0.72266,0 -1.14258,0.566406 -0.41992,0.561523 -0.41992,1.542969 0,0.981445 0.41504,1.547851 0.41992,0.561524 1.14746,0.561524 0.71777,0 1.13769,-0.566407 0.41993,-0.566406 0.41993,-1.542968 0,-0.97168 -0.41993,-1.538086 -0.41992,-0.571289 -1.13769,-0.571289 z m 0,-0.761719 q 1.17187,0 1.84082,0.761719 0.66894,0.761718 0.66894,2.109375 0,1.342773 -0.66894,2.109375 -0.66895,0.761718 -1.84082,0.761718 -1.17676,0 -1.8457,-0.761718 -0.66407,-0.766602 -0.66407,-2.109375 0,-1.347657 0.66407,-2.109375 0.66894,-0.761719 1.8457,-0.761719 z"
         id="path9144"
         inkscape:connector-curvature="0" />
      <path
         d="m -165.85352,89.262413 0,0.747071 -0.85937,0 q -0.4834,0 -0.67383,0.195312 -0.18555,0.195313 -0.18555,0.703125 l 0,0.483399 1.4795,0 0,0.698242 -1.4795,0 0,4.770508 -0.90332,0 0,-4.770508 -0.85937,0 0,-0.698242 0.85937,0 0,-0.38086 q 0,-0.913086 0.42481,-1.328125 0.4248,-0.419922 1.34766,-0.419922 l 0.8496,0 z"
         id="path9146"
         inkscape:connector-curvature="0" />
      <path
         d="m -157.9873,91.601281 0,0.839843 q -0.38086,-0.209961 -0.76661,-0.3125 -0.38086,-0.107421 -0.77148,-0.107421 -0.87402,0 -1.35742,0.55664 -0.4834,0.551758 -0.4834,1.552735 0,1.000976 0.4834,1.557617 0.4834,0.551758 1.35742,0.551758 0.39062,0 0.77148,-0.10254 0.38575,-0.107421 0.76661,-0.317382 l 0,0.830078 q -0.37598,0.175781 -0.78125,0.263672 -0.4004,0.08789 -0.8545,0.08789 -1.23535,0 -1.96289,-0.776367 -0.72754,-0.776367 -0.72754,-2.094726 0,-1.337891 0.73243,-2.104493 0.7373,-0.766601 2.0166,-0.766601 0.41504,0 0.81054,0.08789 0.39551,0.08301 0.76661,0.253907 z"
         id="path9148"
         inkscape:connector-curvature="0" />
      <path
         d="m -154.2959,92.021203 q -0.72265,0 -1.14258,0.566406 -0.41992,0.561523 -0.41992,1.542969 0,0.981445 0.41504,1.547851 0.41992,0.561524 1.14746,0.561524 0.71778,0 1.1377,-0.566407 0.41992,-0.566406 0.41992,-1.542968 0,-0.97168 -0.41992,-1.538086 -0.41992,-0.571289 -1.1377,-0.571289 z m 0,-0.761719 q 1.17188,0 1.84082,0.761719 0.66895,0.761718 0.66895,2.109375 0,1.342773 -0.66895,2.109375 -0.66894,0.761718 -1.84082,0.761718 -1.17676,0 -1.8457,-0.761718 -0.66406,-0.766602 -0.66406,-2.109375 0,-1.347657 0.66406,-2.109375 0.66894,-0.761719 1.8457,-0.761719 z"
         id="path9150"
         inkscape:connector-curvature="0" />
      <path
         d="m -146.36621,91.601281 0,0.839843 q -0.38086,-0.209961 -0.7666,-0.3125 -0.38086,-0.107421 -0.77149,-0.107421 -0.87402,0 -1.35742,0.55664 -0.4834,0.551758 -0.4834,1.552735 0,1.000976 0.4834,1.557617 0.4834,0.551758 1.35742,0.551758 0.39063,0 0.77149,-0.10254 0.38574,-0.107421 0.7666,-0.317382 l 0,0.830078 q -0.37598,0.175781 -0.78125,0.263672 -0.40039,0.08789 -0.85449,0.08789 -1.23535,0 -1.96289,-0.776367 -0.72754,-0.776367 -0.72754,-2.094726 0,-1.337891 0.73242,-2.104493 0.7373,-0.766601 2.0166,-0.766601 0.41504,0 0.81055,0.08789 0.39551,0.08301 0.7666,0.253907 z"
         id="path9152"
         inkscape:connector-curvature="0" />
      <path
         d="m -142.6748,92.021203 q -0.72266,0 -1.14258,0.566406 -0.41992,0.561523 -0.41992,1.542969 0,0.981445 0.41503,1.547851 0.41993,0.561524 1.14747,0.561524 0.71777,0 1.13769,-0.566407 0.41992,-0.566406 0.41992,-1.542968 0,-0.97168 -0.41992,-1.538086 -0.41992,-0.571289 -1.13769,-0.571289 z m 0,-0.761719 q 1.17187,0 1.84082,0.761719 0.66894,0.761718 0.66894,2.109375 0,1.342773 -0.66894,2.109375 -0.66895,0.761718 -1.84082,0.761718 -1.17676,0 -1.84571,-0.761718 -0.66406,-0.766602 -0.66406,-2.109375 0,-1.347657 0.66406,-2.109375 0.66895,-0.761719 1.84571,-0.761719 z"
         id="path9154"
         inkscape:connector-curvature="0" />
      <path
         d="m -136.19531,94.111046 q -1.08887,0 -1.50879,0.249024 -0.41992,0.249023 -0.41992,0.849609 0,0.478516 0.3125,0.761719 0.31738,0.27832 0.85937,0.27832 0.74707,0 1.19629,-0.527344 0.4541,-0.532226 0.4541,-1.411132 l 0,-0.200196 -0.89355,0 z m 1.79199,-0.371093 0,3.120117 -0.89844,0 0,-0.830078 q -0.30761,0.498046 -0.7666,0.737304 -0.45898,0.234375 -1.12305,0.234375 -0.83984,0 -1.33789,-0.46875 -0.49316,-0.473633 -0.49316,-1.264648 0,-0.922852 0.61523,-1.391602 0.62012,-0.46875 1.84571,-0.46875 l 1.25976,0 0,-0.08789 q 0,-0.620118 -0.41015,-0.957032 -0.40528,-0.341796 -1.14258,-0.341796 -0.46875,0 -0.91309,0.112304 -0.44433,0.112305 -0.85449,0.336914 l 0,-0.830078 q 0.49316,-0.19043 0.95703,-0.283203 0.46387,-0.09766 0.90332,-0.09766 1.18652,0 1.77246,0.615234 0.58594,0.615235 0.58594,1.865235 z"
         id="path9156"
         inkscape:connector-curvature="0" />
    </g>
  </g>
</svg>
