<?xml version="1.0" encoding="UTF-8" standalone="no"?>
<!-- Created with Inkscape (http://www.inkscape.org/) -->

<svg
   xmlns:dc="http://purl.org/dc/elements/1.1/"
   xmlns:cc="http://creativecommons.org/ns#"
   xmlns:rdf="http://www.w3.org/1999/02/22-rdf-syntax-ns#"
   xmlns:svg="http://www.w3.org/2000/svg"
   xmlns="http://www.w3.org/2000/svg"
   xmlns:sodipodi="http://sodipodi.sourceforge.net/DTD/sodipodi-0.dtd"
   xmlns:inkscape="http://www.inkscape.org/namespaces/inkscape"
   width="58.337799mm"
   height="55.28204mm"
   viewBox="0 0 206.70874 195.88124"
   id="svg8621"
   version="1.1"
   inkscape:version="0.91 r13725"
   sodipodi:docname="fig-Barry-groceries.svg">
  <defs
     id="defs8623" />
  <sodipodi:namedview
     id="base"
     pagecolor="#ffffff"
     bordercolor="#666666"
     borderopacity="1.0"
     inkscape:pageopacity="0.0"
     inkscape:pageshadow="2"
     inkscape:zoom="1.979899"
     inkscape:cx="-55.56762"
     inkscape:cy="121.36919"
     inkscape:document-units="px"
     inkscape:current-layer="layer1"
     showgrid="false"
     fit-margin-top="0"
     fit-margin-left="0"
     fit-margin-right="0"
     fit-margin-bottom="0"
     inkscape:window-width="1366"
     inkscape:window-height="715"
     inkscape:window-x="0"
     inkscape:window-y="0"
     inkscape:window-maximized="1" />
  <metadata
     id="metadata8626">
    <rdf:RDF>
      <cc:Work
         rdf:about="">
        <dc:format>image/svg+xml</dc:format>
        <dc:type
           rdf:resource="http://purl.org/dc/dcmitype/StillImage" />
        <dc:title></dc:title>
      </cc:Work>
    </rdf:RDF>
  </metadata>
  <g
     inkscape:label="Layer 1"
     inkscape:groupmode="layer"
     id="layer1"
     transform="translate(-278.64562,-457.85016)">
    <path
       d="m 299.92988,489.91016 160.8125,0 m -160.8125,10.79 160.8125,0 m -160.8125,10.79 160.8125,0 m -160.8125,10.79 160.8125,0 m -160.8125,21.58 160.8125,0 m -160.8125,10.7875 160.8125,0 m -160.8125,10.79125 160.8125,0 m -160.8125,10.79 160.8125,0 m -160.8125,21.57875 160.8125,0 m -160.8125,10.79 160.8125,0 m -160.8125,10.78875 160.8125,0 m -160.8125,10.79 160.8125,0 m -10.54875,10.73125 0,-161.78625 m -10.73875,161.78625 0,-161.78625 m -10.74,161.78625 0,-161.78625 m -10.73875,161.78625 0,-161.78625 m -21.48,161.78625 0,-161.78625 m -10.73875,161.78625 0,-161.78625 m -10.73875,161.78625 0,-161.78625 m -10.74,161.78625 0,-161.78625 m -21.48,161.78625 0,-161.78625 m -10.73875,161.78625 0,-161.78625 m -10.74,161.78625 0,-161.78625 m -10.74,161.78625 0,-161.78625"
       style="fill:none;stroke:#aedaf6;stroke-width:0.625;stroke-linecap:butt;stroke-linejoin:miter;stroke-miterlimit:4;stroke-dasharray:none;stroke-opacity:1"
       id="path8515"
       inkscape:connector-curvature="0" />
    <path
       d="m 299.92988,533.06891 160.8125,0 m -160.8125,53.95 160.8125,0 m -160.8125,53.94875 160.8125,0 m 0.19,-0.06 0,-161.78625 -161.0025,-0.001 m 107.30625,161.7875 0,-161.78625 m -53.6975,161.78625 0,-161.78625 m -53.69625,161.78625 0,-161.78625"
       style="fill:none;stroke:#02a0e9;stroke-width:0.625;stroke-linecap:butt;stroke-linejoin:miter;stroke-miterlimit:4;stroke-dasharray:none;stroke-opacity:1"
       id="path8517"
       inkscape:connector-curvature="0" />
    <text
       y="482.51514"
       x="277.25812"
       style="font-variant:normal;font-weight:normal;font-size:12.5px;font-family:Times;-inkscape-font-specification:Times-Roman;writing-mode:lr-tb;fill:#000000;fill-opacity:1;fill-rule:nonzero;stroke:none"
       id="text8519">
      <tspan
         x="277.25812 283.50812 289.75812"
         y="482.51514"
         sodipodi:role="line"
         id="tspan8521">150</tspan>
      <tspan
         x="277.25812 283.50812 289.75812"
         y="537.42889"
         sodipodi:role="line"
         id="tspan8523">100</tspan>
      <tspan
         x="283.50812 289.75812"
         y="591.12512"
         sodipodi:role="line"
         id="tspan8525">50</tspan>
      <tspan
         x="290.2619"
         y="650.86511"
         id="tspan8527">0</tspan>
      <tspan
         x="346.94061 353.19061 451.52814 457.77814 464.02814 397.5144 403.7644 410.0144"
         y="653.5564"
         sodipodi:role="line"
         id="tspan8529">50150100</tspan>
    </text>
    <text
       y="466.75641"
       x="289.17065"
       style="font-style:italic;font-variant:normal;font-weight:bold;font-size:12.5px;font-family:Times;-inkscape-font-specification:Times-BoldItalic;writing-mode:lr-tb;fill:#000000;fill-opacity:1;fill-rule:nonzero;stroke:none"
       id="text8531">
      <tspan
         x="289.17065"
         y="466.75641"
         id="tspan8533">k</tspan>
      <tspan
         x="479.77936"
         y="643.60016"
         id="tspan8535">p</tspan>
    </text>
    <path
       d="m 472.65863,640.90766 -172.72875,0 0,-179.35125"
       style="fill:none;stroke:#000000;stroke-width:0.875;stroke-linecap:butt;stroke-linejoin:miter;stroke-miterlimit:4;stroke-dasharray:none;stroke-opacity:1"
       id="path8537"
       inkscape:connector-curvature="0" />
    <path
       d="m 299.92988,457.85016 2.13375,5.2225 -2.13375,-1.23875 -2.13375,1.23875 2.13375,-5.2225"
       style="fill:#000000;fill-opacity:1;fill-rule:nonzero;stroke:none"
       id="path8539"
       inkscape:connector-curvature="0" />
    <path
       d="m 476.36488,640.90766 -5.22375,2.135 1.23875,-2.135 -1.23875,-2.13375 5.22375,2.13375"
       style="fill:#000000;fill-opacity:1;fill-rule:nonzero;stroke:none"
       id="path8541"
       inkscape:connector-curvature="0" />
  </g>
</svg>
