<?xml version="1.0" encoding="UTF-8" standalone="no"?>
<!-- Created with Inkscape (http://www.inkscape.org/) -->

<svg
   xmlns:dc="http://purl.org/dc/elements/1.1/"
   xmlns:cc="http://creativecommons.org/ns#"
   xmlns:rdf="http://www.w3.org/1999/02/22-rdf-syntax-ns#"
   xmlns:svg="http://www.w3.org/2000/svg"
   xmlns="http://www.w3.org/2000/svg"
   xmlns:sodipodi="http://sodipodi.sourceforge.net/DTD/sodipodi-0.dtd"
   xmlns:inkscape="http://www.inkscape.org/namespaces/inkscape"
   width="124.77083mm"
   height="71.748779mm"
   viewBox="0 0 442.10136 254.22796"
   id="svg3928"
   version="1.1"
   inkscape:version="0.91 r13725"
   sodipodi:docname="fig-unemployment.svg">
  <defs
     id="defs3930">
    <clipPath
       clipPathUnits="userSpaceOnUse"
       id="clipPath3485">
      <path
         d="m 1781,5419 1423,0 0,-139 -1423,0 0,139 z"
         id="path3487"
         inkscape:connector-curvature="0" />
    </clipPath>
    <clipPath
       clipPathUnits="userSpaceOnUse"
       id="clipPath3449">
      <path
         d="m 1211,5173 2577,0 0,-1142 -2577,0 0,1142 z"
         id="path3451"
         inkscape:connector-curvature="0" />
    </clipPath>
  </defs>
  <sodipodi:namedview
     id="base"
     pagecolor="#ffffff"
     bordercolor="#666666"
     borderopacity="1.0"
     inkscape:pageopacity="0.0"
     inkscape:pageshadow="2"
     inkscape:zoom="0.7"
     inkscape:cx="195.43663"
     inkscape:cy="305.68544"
     inkscape:document-units="px"
     inkscape:current-layer="layer1"
     showgrid="false"
     fit-margin-top="0"
     fit-margin-left="0"
     fit-margin-right="0"
     fit-margin-bottom="0"
     inkscape:window-width="1366"
     inkscape:window-height="715"
     inkscape:window-x="0"
     inkscape:window-y="0"
     inkscape:window-maximized="1" />
  <metadata
     id="metadata3933">
    <rdf:RDF>
      <cc:Work
         rdf:about="">
        <dc:format>image/svg+xml</dc:format>
        <dc:type
           rdf:resource="http://purl.org/dc/dcmitype/StillImage" />
        <dc:title></dc:title>
      </cc:Work>
    </rdf:RDF>
  </metadata>
  <g
     inkscape:label="Layer 1"
     inkscape:groupmode="layer"
     id="layer1"
     transform="translate(371.05068,-698.1054)">
    <path
       d="m -326.93001,918.59706 384.899998,0 0,1.05 -384.899998,0 0,-1.05 z m 0,-6.9 384.899998,0 0,1.2 -384.899998,0 0,-1.2 z m 0,-7.8 384.899998,0 0,1.05 -384.899998,0 0,-1.05 z m 0,-7.95 384.899998,0 0,1.05 -384.899998,0 0,-1.05 z m 0,-15.9 384.899998,0 0,1.2 -384.899998,0 0,-1.2 z m 0,-7.8 384.899998,0 0,1.05 -384.899998,0 0,-1.05 z m 0,-7.95 384.899998,0 0,1.05 -384.899998,0 0,-1.05 z m 0,-7.95 384.899998,0 0,1.2 -384.899998,0 0,-1.2 z m 0,-14.7 384.899998,0 0,1.2 -384.899998,0 0,-1.2 z m 0,-7.95 384.899998,0 0,1.2 -384.899998,0 0,-1.2 z m 0,-7.8 384.899998,0 0,1.05 -384.899998,0 0,-1.05 z m 0,-7.95 384.899998,0 0,1.05 -384.899998,0 0,-1.05 z m 0,-15.9 384.899998,0 0,1.2 -384.899998,0 0,-1.2 z m 0,-7.8 384.899998,0 0,1.05 -384.899998,0 0,-1.05 z m 0,-7.95 384.899998,0 0,1.05 -384.899998,0 0,-1.05 z m 0,-7.95 384.899998,0 0,1.2 -384.899998,0 0,-1.2 z m 0,-14.7 384.899998,0 0,1.2 -384.899998,0 0,-1.2 z m 0,-7.95 384.899998,0 0,1.2 -384.899998,0 0,-1.2 z m 0,-7.8 384.899998,0 0,1.05 -384.899998,0 0,-1.05 z m 0,-7.95 384.899998,0 0,1.05 -384.899998,0 0,-1.05"
       style="fill:#b7b7b7;fill-opacity:1;fill-rule:nonzero;stroke:none"
       id="path3397"
       inkscape:connector-curvature="0" />
    <g
       id="g3399"
       transform="matrix(0.14805615,0,0,0.151944,-508.58001,1508.5471)">
      <path
         d="m 1226.9,-3882.68 2599.68,0 0,6.91 -2599.68,0 0,-6.91 z m 0,-45.42 2599.68,0 0,7.9 -2599.68,0 0,-7.9 z m 0,-51.33 2599.68,0 0,6.91 -2599.68,0 0,-6.91 z m 0,-52.32 2599.68,0 0,6.91 -2599.68,0 0,-6.91 z m 0,-104.65 2599.68,0 0,7.9 -2599.68,0 0,-7.9 z m 0,-51.33 2599.68,0 0,6.91 -2599.68,0 0,-6.91 z m 0,-52.32 2599.68,0 0,6.91 -2599.68,0 0,-6.91 z m 0,-52.33 2599.68,0 0,7.9 -2599.68,0 0,-7.9 z m 0,-96.74 2599.68,0 0,7.9 -2599.68,0 0,-7.9 z m 0,-52.32 2599.68,0 0,7.89 -2599.68,0 0,-7.89 z m 0,-51.34 2599.68,0 0,6.91 -2599.68,0 0,-6.91 z m 0,-52.32 2599.68,0 0,6.91 -2599.68,0 0,-6.91 z m 0,-104.64 2599.68,0 0,7.89 -2599.68,0 0,-7.89 z m 0,-51.34 2599.68,0 0,6.91 -2599.68,0 0,-6.91 z m 0,-52.32 2599.68,0 0,6.91 -2599.68,0 0,-6.91 z m 0,-52.32 2599.68,0 0,7.9 -2599.68,0 0,-7.9 z m 0,-96.75 2599.68,0 0,7.9 -2599.68,0 0,-7.9 z m 0,-52.32 2599.68,0 0,7.9 -2599.68,0 0,-7.9 z m 0,-51.34 2599.68,0 0,6.91 -2599.68,0 0,-6.91 z m 0,-52.32 2599.68,0 0,6.91 -2599.68,0 0,-6.91 z"
         style="fill:none;stroke:#b7b7b7;stroke-width:7.40799999;stroke-linecap:butt;stroke-linejoin:bevel;stroke-miterlimit:10;stroke-dasharray:none;stroke-opacity:1"
         id="path3401"
         inkscape:connector-curvature="0" />
    </g>
    <path
       d="m -326.93001,887.99706 384.899998,0 0,1.2 -384.899998,0 0,-1.2 z m 0,-39.6 384.899998,0 0,1.2 -384.899998,0 0,-1.2 z m 0,-38.4 384.899998,0 0,1.2 -384.899998,0 0,-1.2 z m 0,-38.4 384.899998,0 0,1.05 -384.899998,0 0,-1.05 z m 0,-39.6 384.899998,0 0,1.2 -384.899998,0 0,-1.2"
       style="fill:#868686;fill-opacity:1;fill-rule:nonzero;stroke:none"
       id="path3403"
       inkscape:connector-curvature="0" />
    <g
       id="g3405"
       transform="matrix(0.14805615,0,0,0.151944,-508.58001,1508.5471)">
      <path
         d="m 1226.9,-4084.07 2599.68,0 0,7.89 -2599.68,0 0,-7.89 z m 0,-260.63 2599.68,0 0,7.9 -2599.68,0 0,-7.9 z m 0,-252.72 2599.68,0 0,7.9 -2599.68,0 0,-7.9 z m 0,-252.73 2599.68,0 0,6.91 -2599.68,0 0,-6.91 z m 0,-260.62 2599.68,0 0,7.9 -2599.68,0 0,-7.9 z"
         style="fill:none;stroke:#868686;stroke-width:7.40799999;stroke-linecap:butt;stroke-linejoin:bevel;stroke-miterlimit:10;stroke-dasharray:none;stroke-opacity:1"
         id="path3407"
         inkscape:connector-curvature="0" />
    </g>
    <path
       d="m -326.48001,732.59706 0,194.4 -1.05,0 0,-194.4 1.05,0 z m 29.7,0 0,194.4 -1.05,0 0,-194.4 1.05,0 z m 29.7,0 0,194.4 -1.05,0 0,-194.4 1.05,0 z m 29.7,0 0,194.4 -1.05,0 0,-194.4 1.05,0 z m 29.7,0 0,194.4 -1.05,0 0,-194.4 1.05,0 z m 29.7,0 0,194.4 -1.05,0 0,-194.4 1.05,0 z m 29.7,0 0,194.4 -1.05,0 0,-194.4 1.05,0 z m 29.7,0 0,194.4 -1.05,0 0,-194.4 1.05,0 z m 28.649998,0 0,194.4 -1.2,0 0,-194.4 1.2,0 z m 29.7,0 0,194.4 -1.2,0 0,-194.4 1.2,0 z m 29.7,0 0,194.4 -1.2,0 0,-194.4 1.2,0 z m 29.69999993,0 0,194.4 -1.20000003,0 0,-194.4 1.20000003,0 z m 29.70000007,0 0,194.4 -1.2,0 0,-194.4 1.2,0 z m 29.7,0 0,194.4 -1.2,0 0,-194.4 1.2,0"
       style="fill:#b3b3b3;fill-opacity:1;fill-rule:nonzero;stroke:none"
       id="path3409"
       inkscape:connector-curvature="0" />
    <g
       id="g3411"
       transform="matrix(0.14805615,0,0,0.151944,-508.58001,1508.5471)">
      <path
         d="m 1229.93,-5106.82 0,1279.42 -7.09,0 0,-1279.42 7.09,0 z m 200.6,0 0,1279.42 -7.09,0 0,-1279.42 7.09,0 z m 200.6,0 0,1279.42 -7.09,0 0,-1279.42 7.09,0 z m 200.6,0 0,1279.42 -7.09,0 0,-1279.42 7.09,0 z m 200.6,0 0,1279.42 -7.09,0 0,-1279.42 7.09,0 z m 200.6,0 0,1279.42 -7.09,0 0,-1279.42 7.09,0 z m 200.6,0 0,1279.42 -7.09,0 0,-1279.42 7.09,0 z m 200.6,0 0,1279.42 -7.09,0 0,-1279.42 7.09,0 z m 193.51,0 0,1279.42 -8.11,0 0,-1279.42 8.11,0 z m 200.6,0 0,1279.42 -8.11,0 0,-1279.42 8.11,0 z m 200.6,0 0,1279.42 -8.11,0 0,-1279.42 8.11,0 z m 200.6,0 0,1279.42 -8.11,0 0,-1279.42 8.11,0 z m 200.6,0 0,1279.42 -8.11,0 0,-1279.42 8.11,0 z m 200.6,0 0,1279.42 -8.11,0 0,-1279.42 8.11,0 z"
         style="fill:none;stroke:#b3b3b3;stroke-width:7.40799999;stroke-linecap:butt;stroke-linejoin:bevel;stroke-miterlimit:10;stroke-dasharray:none;stroke-opacity:1"
         id="path3413"
         inkscape:connector-curvature="0" />
    </g>
    <path
       d="m -327.53001,732.59706 c 0,-0.3 0.3,-0.6 0.6,-0.6 l 384.899998,0 c 0.3,0 0.6,0.3 0.6,0.6 l 0,194.4 c 0,0.45 -0.3,0.6 -0.6,0.6 l -384.899998,0 c -0.3,0 -0.6,-0.15 -0.6,-0.6 l 0,-194.4 z m 1.05,194.4 -0.45,-0.6 384.899998,0 -0.6,0.6 0,-194.4 0.6,0.6 -384.899998,0 0.45,-0.6"
       style="fill:#b3b3b3;fill-opacity:1;fill-rule:nonzero;stroke:none"
       id="path3415"
       inkscape:connector-curvature="0" />
    <g
       id="g3417"
       transform="matrix(0.14805615,0,0,0.151944,-508.58001,1508.5471)">
      <path
         d="m 1222.84,-5106.82 c 0,-1.98 2.03,-3.95 4.06,-3.95 l 2599.68,0 c 2.03,0 4.06,1.97 4.06,3.95 l 0,1279.42 c 0,2.96 -2.03,3.95 -4.06,3.95 l -2599.68,0 c -2.03,0 -4.06,-0.99 -4.06,-3.95 l 0,-1279.42 z m 7.09,1279.42 -3.03,-3.95 2599.68,0 -4.05,3.95 0,-1279.42 4.05,3.95 -2599.68,0 3.03,-3.95 0,1279.42 z"
         style="fill:none;stroke:#b3b3b3;stroke-width:7.40799999;stroke-linecap:butt;stroke-linejoin:bevel;stroke-miterlimit:10;stroke-dasharray:none;stroke-opacity:1"
         id="path3419"
         inkscape:connector-curvature="0" />
    </g>
    <path
       d="m -327.53001,926.99706 1.05,0 0,-194.4 -1.05,0 0,194.4 z"
       style="fill:#b3b3b3;fill-opacity:1;fill-rule:nonzero;stroke:none"
       id="path3421"
       inkscape:connector-curvature="0" />
    <g
       id="g3423"
       transform="matrix(0.14805615,0,0,0.151944,-508.58001,1508.5471)">
      <path
         d="m 1222.84,-3827.4 0,-1279.42 7.09,0 0,1279.42 -7.09,0 z"
         style="fill:none;stroke:#b3b3b3;stroke-width:7.40799999;stroke-linecap:butt;stroke-linejoin:bevel;stroke-miterlimit:10;stroke-dasharray:none;stroke-opacity:1"
         id="path3425"
         inkscape:connector-curvature="0" />
    </g>
    <path
       d="m -330.23001,926.39706 5.4,0 0,1.2 -5.4,0 0,-1.2 z m 0,-7.8 5.4,0 0,1.05 -5.4,0 0,-1.05 z m 0,-6.9 5.4,0 0,1.2 -5.4,0 0,-1.2 z m 0,-7.8 5.4,0 0,1.05 -5.4,0 0,-1.05 z m 0,-7.95 5.4,0 0,1.05 -5.4,0 0,-1.05 z m 0,-7.95 5.4,0 0,1.2 -5.4,0 0,-1.2 z m 0,-7.95 5.4,0 0,1.2 -5.4,0 0,-1.2 z m 0,-7.8 5.4,0 0,1.05 -5.4,0 0,-1.05 z m 0,-7.95 5.4,0 0,1.05 -5.4,0 0,-1.05 z m 0,-7.95 5.4,0 0,1.2 -5.4,0 0,-1.2 z m 0,-7.95 5.4,0 0,1.2 -5.4,0 0,-1.2 z m 0,-6.75 5.4,0 0,1.2 -5.4,0 0,-1.2 z m 0,-7.95 5.4,0 0,1.2 -5.4,0 0,-1.2 z m 0,-7.8 5.4,0 0,1.05 -5.4,0 0,-1.05 z m 0,-7.95 5.4,0 0,1.05 -5.4,0 0,-1.05 z m 0,-7.95 5.4,0 0,1.2 -5.4,0 0,-1.2 z m 0,-7.95 5.4,0 0,1.2 -5.4,0 0,-1.2 z m 0,-7.8 5.4,0 0,1.05 -5.4,0 0,-1.05 z m 0,-7.95 5.4,0 0,1.05 -5.4,0 0,-1.05 z m 0,-7.95 5.4,0 0,1.2 -5.4,0 0,-1.2 z m 0,-6.75 5.4,0 0,1.05 -5.4,0 0,-1.05 z m 0,-7.95 5.4,0 0,1.2 -5.4,0 0,-1.2 z m 0,-7.95 5.4,0 0,1.2 -5.4,0 0,-1.2 z m 0,-7.8 5.4,0 0,1.05 -5.4,0 0,-1.05 z m 0,-7.95 5.4,0 0,1.05 -5.4,0 0,-1.05 z m 0,-7.95 5.4,0 0,1.2 -5.4,0 0,-1.2 z m 0,194.4 3.3,0 0,1.2 -3.3,0 0,-1.2 z m 0,-38.4 3.3,0 0,1.2 -3.3,0 0,-1.2 z m 0,-39.6 3.3,0 0,1.2 -3.3,0 0,-1.2 z m 0,-38.4 3.3,0 0,1.2 -3.3,0 0,-1.2 z m 0,-38.4 3.3,0 0,1.05 -3.3,0 0,-1.05 z m 0,-39.6 3.3,0 0,1.2 -3.3,0 0,-1.2"
       style="fill:#b3b3b3;fill-opacity:1;fill-rule:nonzero;stroke:none"
       id="path3427"
       inkscape:connector-curvature="0" />
    <g
       id="g3429"
       transform="matrix(0.14805615,0,0,0.151944,-508.58001,1508.5471)">
      <path
         d="m 1204.61,-3831.35 36.47,0 0,7.9 -36.47,0 0,-7.9 z m 0,-51.33 36.47,0 0,6.91 -36.47,0 0,-6.91 z m 0,-45.42 36.47,0 0,7.9 -36.47,0 0,-7.9 z m 0,-51.33 36.47,0 0,6.91 -36.47,0 0,-6.91 z m 0,-52.32 36.47,0 0,6.91 -36.47,0 0,-6.91 z m 0,-52.32 36.47,0 0,7.89 -36.47,0 0,-7.89 z m 0,-52.33 36.47,0 0,7.9 -36.47,0 0,-7.9 z m 0,-51.33 36.47,0 0,6.91 -36.47,0 0,-6.91 z m 0,-52.32 36.47,0 0,6.91 -36.47,0 0,-6.91 z m 0,-52.33 36.47,0 0,7.9 -36.47,0 0,-7.9 z m 0,-52.32 36.47,0 0,7.9 -36.47,0 0,-7.9 z m 0,-44.42 36.47,0 0,7.9 -36.47,0 0,-7.9 z m 0,-52.32 36.47,0 0,7.89 -36.47,0 0,-7.89 z m 0,-51.34 36.47,0 0,6.91 -36.47,0 0,-6.91 z m 0,-52.32 36.47,0 0,6.91 -36.47,0 0,-6.91 z m 0,-52.32 36.47,0 0,7.9 -36.47,0 0,-7.9 z m 0,-52.32 36.47,0 0,7.89 -36.47,0 0,-7.89 z m 0,-51.34 36.47,0 0,6.91 -36.47,0 0,-6.91 z m 0,-52.32 36.47,0 0,6.91 -36.47,0 0,-6.91 z m 0,-52.32 36.47,0 0,7.9 -36.47,0 0,-7.9 z m 0,-44.43 36.47,0 0,6.91 -36.47,0 0,-6.91 z m 0,-52.32 36.47,0 0,7.9 -36.47,0 0,-7.9 z m 0,-52.32 36.47,0 0,7.9 -36.47,0 0,-7.9 z m 0,-51.34 36.47,0 0,6.91 -36.47,0 0,-6.91 z m 0,-52.32 36.47,0 0,6.91 -36.47,0 0,-6.91 z m 0,-52.32 36.47,0 0,7.9 -36.47,0 0,-7.9 z m 0,1279.42 22.29,0 0,7.9 -22.29,0 0,-7.9 z m 0,-252.72 22.29,0 0,7.89 -22.29,0 0,-7.89 z m 0,-260.63 22.29,0 0,7.9 -22.29,0 0,-7.9 z m 0,-252.72 22.29,0 0,7.9 -22.29,0 0,-7.9 z m 0,-252.73 22.29,0 0,6.91 -22.29,0 0,-6.91 z m 0,-260.62 22.29,0 0,7.9 -22.29,0 0,-7.9 z"
         style="fill:none;stroke:#b3b3b3;stroke-width:7.40799999;stroke-linecap:butt;stroke-linejoin:bevel;stroke-miterlimit:10;stroke-dasharray:none;stroke-opacity:1"
         id="path3431"
         inkscape:connector-curvature="0" />
    </g>
    <path
       d="m -326.93001,927.59706 384.899998,0 0,-1.2 -384.899998,0 0,1.2 z"
       style="fill:#b3b3b3;fill-opacity:1;fill-rule:nonzero;stroke:none"
       id="path3433"
       inkscape:connector-curvature="0" />
    <g
       id="g3435"
       transform="matrix(0.14805615,0,0,0.151944,-508.58001,1508.5471)">
      <path
         d="m 1226.9,-3831.35 2599.68,0 0,7.9 -2599.68,0 0,-7.9 z"
         style="fill:none;stroke:#b3b3b3;stroke-width:7.40799999;stroke-linecap:butt;stroke-linejoin:bevel;stroke-miterlimit:10;stroke-dasharray:none;stroke-opacity:1"
         id="path3437"
         inkscape:connector-curvature="0" />
    </g>
    <path
       d="m -326.48001,926.99706 0,4.5 -1.05,0 0,-4.5 1.05,0 z m 29.7,0 0,4.5 -1.05,0 0,-4.5 1.05,0 z m 29.7,0 0,4.5 -1.05,0 0,-4.5 1.05,0 z m 29.7,0 0,4.5 -1.05,0 0,-4.5 1.05,0 z m 29.7,0 0,4.5 -1.05,0 0,-4.5 1.05,0 z m 29.7,0 0,4.5 -1.05,0 0,-4.5 1.05,0 z m 29.7,0 0,4.5 -1.05,0 0,-4.5 1.05,0 z m 29.7,0 0,4.5 -1.05,0 0,-4.5 1.05,0 z m 28.649998,0 0,4.5 -1.2,0 0,-4.5 1.2,0 z m 29.7,0 0,4.5 -1.2,0 0,-4.5 1.2,0 z m 29.7,0 0,4.5 -1.2,0 0,-4.5 1.2,0 z m 29.69999993,0 0,4.5 -1.20000003,0 0,-4.5 1.20000003,0 z m 29.70000007,0 0,4.5 -1.2,0 0,-4.5 1.2,0 z m 29.7,0 0,4.5 -1.2,0 0,-4.5 1.2,0"
       style="fill:#b3b3b3;fill-opacity:1;fill-rule:nonzero;stroke:none"
       id="path3439"
       inkscape:connector-curvature="0" />
    <g
       id="g3441"
       transform="matrix(0.14805615,0,0,0.151944,-508.58001,1508.5471)">
      <path
         d="m 1229.93,-3827.4 0,29.62 -7.09,0 0,-29.62 7.09,0 z m 200.6,0 0,29.62 -7.09,0 0,-29.62 7.09,0 z m 200.6,0 0,29.62 -7.09,0 0,-29.62 7.09,0 z m 200.6,0 0,29.62 -7.09,0 0,-29.62 7.09,0 z m 200.6,0 0,29.62 -7.09,0 0,-29.62 7.09,0 z m 200.6,0 0,29.62 -7.09,0 0,-29.62 7.09,0 z m 200.6,0 0,29.62 -7.09,0 0,-29.62 7.09,0 z m 200.6,0 0,29.62 -7.09,0 0,-29.62 7.09,0 z m 193.51,0 0,29.62 -8.11,0 0,-29.62 8.11,0 z m 200.6,0 0,29.62 -8.11,0 0,-29.62 8.11,0 z m 200.6,0 0,29.62 -8.11,0 0,-29.62 8.11,0 z m 200.6,0 0,29.62 -8.11,0 0,-29.62 8.11,0 z m 200.6,0 0,29.62 -8.11,0 0,-29.62 8.11,0 z m 200.6,0 0,29.62 -8.11,0 0,-29.62 8.11,0 z"
         style="fill:none;stroke:#b3b3b3;stroke-width:7.40799999;stroke-linecap:butt;stroke-linejoin:bevel;stroke-miterlimit:10;stroke-dasharray:none;stroke-opacity:1"
         id="path3443"
         inkscape:connector-curvature="0" />
    </g>
    <g
       transform="matrix(0.15,0,0,-0.15,-508.58001,1508.5471)"
       id="g3445">
      <g
         id="g3447"
         clip-path="url(#clipPath3449)">
        <path
           d="m 1208,4044 198,294 198,362 197,399 c 1,1 2,2 3,2 l 198,68 c 1,0 2,0 3,0 l 198,-166 -1,0 198,-83 c 0,0 1,0 1,0 l 198,-159 190,-143 -5,0 198,249 c 2,0 4,1 5,0 l 198,-98 198,-136 c 1,0 1,0 1,0 l 198,-241 198,-272 c 2,-2 1,-4 -1,-5 -1,-2 -3,-1 -5,1 l -198,271 -198,241 1,-1 -197,135 -198,98 4,1 -198,-248 c -1,-2 -3,-2 -5,-1 l -190,143 -198,159 0,-1 -198,83 c 0,0 0,1 -1,1 l -198,165 4,0 -198,-68 2,2 -198,-400 -198,-362 -198,-294 c -1,-2 -3,-2 -5,-1 -2,1 -2,4 -1,5"
           style="fill:#004586;fill-opacity:1;fill-rule:nonzero;stroke:none"
           id="path3453"
           inkscape:connector-curvature="0" />
        <g
           id="g3455"
           transform="scale(0.987041,-1.01296)">
          <path
             d="m 1223.86,-3992.26 200.6,-290.24 200.6,-357.37 199.58,-393.9 c 1.01,-0.98 2.03,-1.97 3.04,-1.97 l 200.6,-67.13 c 1.01,0 2.03,0 3.04,0 l 200.6,163.87 -1.01,0 200.6,81.94 c 0,0 1.01,0 1.01,0 l 200.6,156.97 192.49,141.17 -5.06,0 200.6,-245.82 c 2.02,0 4.05,-0.98 5.06,0 l 200.6,96.75 200.6,134.26 c 1.02,0 1.02,0 1.02,0 l 200.59,237.92 200.6,268.52 c 2.03,1.97 1.02,3.95 -1.01,4.93 -1.01,1.98 -3.04,0.99 -5.06,-0.98 l -200.6,-267.54 -200.6,-237.91 1.01,0.98 -199.59,-133.27 -200.6,-96.74 4.06,-0.99 -200.6,244.83 c -1.02,1.97 -3.04,1.97 -5.07,0.98 l -192.49,-141.17 -200.6,-156.96 0,0.98 -200.6,-81.94 c 0,0 0,-0.98 -1.02,-0.98 l -200.6,-162.89 4.06,0 -200.6,67.13 2.02,-1.98 -200.6,394.89 -200.6,357.37 -200.6,290.23 c -1.01,1.98 -3.03,1.98 -5.06,0.99 -2.03,-0.99 -2.03,-3.95 -1.01,-4.93 z"
             style="fill:none;stroke:#004586;stroke-width:7.40799999;stroke-linecap:butt;stroke-linejoin:bevel;stroke-miterlimit:10;stroke-dasharray:none;stroke-opacity:1"
             id="path3457"
             inkscape:connector-curvature="0" />
        </g>
      </g>
    </g>
    <g
       id="g3459"
       transform="matrix(1.2499995,0,0,-1.2499995,-508.58001,1508.5471)">
      <text
         transform="matrix(0.972717,0,0,-1,130.08,461.16)"
         style="font-variant:normal;font-weight:normal;font-size:9.94919968px;font-family:Helvetica;-inkscape-font-specification:Helvetica;writing-mode:lr-tb;fill:#000000;fill-opacity:1;fill-rule:nonzero;stroke:none"
         id="text3461">
        <tspan
           x="0"
           y="0"
           id="tspan3463">0</tspan>
        <tspan
           x="0"
           y="-31.200001"
           id="tspan3465">5</tspan>
        <tspan
           x="-5.3047299 0.12335653"
           y="-62.279999"
           sodipodi:role="line"
           id="tspan3467">10</tspan>
        <tspan
           x="-5.3047299 0.12335653"
           y="-93.480003"
           sodipodi:role="line"
           id="tspan3469">15</tspan>
        <tspan
           x="-5.3047299 0.12335653"
           y="-124.56"
           sodipodi:role="line"
           id="tspan3471">20</tspan>
        <tspan
           x="-5.3047299 0.12335653"
           y="-155.75999"
           sodipodi:role="line"
           id="tspan3473">25</tspan>
        <tspan
           x="4.6879001 10.115987 15.544073 20.97216 29.114296 34.542381 39.97047 45.398556 53.540691 58.968781 64.396866 69.824951 77.843727 83.271812 88.699905 94.127991 102.27013 107.69821 113.1263 118.55438 126.57316 132.00125 137.42934 142.85742 150.99956 156.42764 161.85573 167.28381 175.42595 180.85403 186.28212 191.71022 199.72899 205.15707 210.58516 216.01324 224.15538 229.58347 235.01157 240.43965 248.45842 253.88651 259.31461 264.74268 272.88483 278.3129 283.741 289.16907 297.18787 302.61594 308.04404 313.47189 321.61404 327.04211 332.47021 337.89828"
           y="15.96"
           sodipodi:role="line"
           id="tspan3475">19291930193119321933193419351936193719381939194019411942</tspan>
      </text>
      <text
         transform="matrix(0,1,0.97274372,0,117.72,500.52)"
         style="font-variant:normal;font-weight:normal;font-size:10.85342407px;font-family:Helvetica;-inkscape-font-specification:Helvetica;writing-mode:lr-tb;fill:#000000;fill-opacity:1;fill-rule:nonzero;stroke:none"
         id="text3477">
        <tspan
           x="0 8.1600208 14.400014 20.760006 30.720013 37.080006 39.720032 46.080025 51.480019 60.600021 66.960014 72.360001 75.000031 76.800049 84.120064 90.480057 93.120087"
           y="0"
           sodipodi:role="line"
           id="tspan3479">Unemployment Rate</tspan>
      </text>
    </g>
    <g
       transform="matrix(0.15,0,0,-0.15,-508.58001,1508.5471)"
       id="g3481">
      <g
         id="g3483"
         clip-path="url(#clipPath3485)">
        <g
           id="g3489"
           transform="scale(8.33333,8.33333)">
          <text
             transform="matrix(0.972747,0,0,-1,213.72,636.96)"
             style="font-variant:normal;font-weight:normal;font-size:15.3760004px;font-family:Helvetica;-inkscape-font-specification:Helvetica;writing-mode:lr-tb;fill:#000000;fill-opacity:1;fill-rule:nonzero;stroke:none"
             id="text3491">
            <tspan
               x="0 10.855877 15.420289 25.412642 29.853689 34.418102 45.273991 53.415916 61.557842 74.1408 82.282722 85.983574 94.125504 102.2674 114.85036 122.99229 131.13422 135.69862 143.84053 154.69643 162.83835 167.40277"
               y="0"
               sodipodi:role="line"
               id="tspan3493">U.S. Unemployment Rate</tspan>
          </text>
        </g>
      </g>
    </g>
  </g>
</svg>
