<?xml version="1.0" encoding="UTF-8"?>
<svg xmlns="http://www.w3.org/2000/svg" xmlns:xlink="http://www.w3.org/1999/xlink" width="115pt" height="70pt" viewBox="0 0 115 70" version="1.1">
<g id="surface1">
<path style="fill-rule:nonzero;fill:rgb(50%,83.918762%,96.864319%);fill-opacity:1;stroke-width:1.19553;stroke-linecap:butt;stroke-linejoin:miter;stroke:rgb(0%,0%,0%);stroke-opacity:1;stroke-miterlimit:10;" d="M 0.001875 -0.00046875 L 0.001875 68.030781 L 28.345625 68.030781 L 28.345625 -0.00046875 Z M 0.001875 -0.00046875 " transform="matrix(1,0,0,-1,0.92,69.23)"/>
<path style="fill-rule:nonzero;fill:rgb(50%,83.918762%,96.864319%);fill-opacity:1;stroke-width:1.19553;stroke-linecap:butt;stroke-linejoin:miter;stroke:rgb(0%,0%,0%);stroke-opacity:1;stroke-miterlimit:10;" d="M 28.345625 -0.00046875 L 28.345625 68.030781 L 56.693281 68.030781 L 56.693281 -0.00046875 Z M 28.345625 -0.00046875 " transform="matrix(1,0,0,-1,0.92,69.23)"/>
<path style="fill-rule:nonzero;fill:rgb(50%,83.918762%,96.864319%);fill-opacity:1;stroke-width:1.19553;stroke-linecap:butt;stroke-linejoin:miter;stroke:rgb(0%,0%,0%);stroke-opacity:1;stroke-miterlimit:10;" d="M 56.693281 -0.00046875 L 56.693281 68.030781 L 85.040937 68.030781 L 85.040937 -0.00046875 Z M 56.693281 -0.00046875 " transform="matrix(1,0,0,-1,0.92,69.23)"/>
<path style="fill:none;stroke-width:1.19553;stroke-linecap:butt;stroke-linejoin:miter;stroke:rgb(0%,0%,0%);stroke-opacity:1;stroke-miterlimit:10;" d="M 85.040937 -0.00046875 L 85.040937 68.030781 L 113.388594 68.030781 L 113.388594 -0.00046875 Z M 85.040937 -0.00046875 " transform="matrix(1,0,0,-1,0.92,69.23)"/>
<path style="fill:none;stroke-width:1.19553;stroke-linecap:butt;stroke-linejoin:miter;stroke:rgb(0%,0%,0%);stroke-opacity:1;stroke-miterlimit:10;" d="M 0.001875 22.679219 L 113.388594 22.679219 " transform="matrix(1,0,0,-1,0.92,69.23)"/>
<path style="fill:none;stroke-width:1.19553;stroke-linecap:butt;stroke-linejoin:miter;stroke:rgb(0%,0%,0%);stroke-opacity:1;stroke-miterlimit:10;" d="M 0.001875 45.355 L 113.388594 45.355 " transform="matrix(1,0,0,-1,0.92,69.23)"/>
</g>
</svg>
