<?xml version="1.0" encoding="UTF-8" standalone="no"?>
<!-- Created with Inkscape (http://www.inkscape.org/) -->

<svg
   xmlns:dc="http://purl.org/dc/elements/1.1/"
   xmlns:cc="http://creativecommons.org/ns#"
   xmlns:rdf="http://www.w3.org/1999/02/22-rdf-syntax-ns#"
   xmlns:svg="http://www.w3.org/2000/svg"
   xmlns="http://www.w3.org/2000/svg"
   xmlns:sodipodi="http://sodipodi.sourceforge.net/DTD/sodipodi-0.dtd"
   xmlns:inkscape="http://www.inkscape.org/namespaces/inkscape"
   width="54.726765mm"
   height="28.87129mm"
   viewBox="0 0 193.91373 102.29985"
   id="svg4474"
   version="1.1"
   inkscape:version="0.91 r13725"
   sodipodi:docname="hp-5-3-29.svg">
  <defs
     id="defs4476" />
  <sodipodi:namedview
     id="base"
     pagecolor="#ffffff"
     bordercolor="#666666"
     borderopacity="1.0"
     inkscape:pageopacity="0.0"
     inkscape:pageshadow="2"
     inkscape:zoom="0.98994949"
     inkscape:cx="-93.757417"
     inkscape:cy="33.615409"
     inkscape:document-units="px"
     inkscape:current-layer="layer1"
     showgrid="false"
     fit-margin-top="0"
     fit-margin-left="0"
     fit-margin-right="0"
     fit-margin-bottom="0"
     inkscape:window-width="1366"
     inkscape:window-height="715"
     inkscape:window-x="0"
     inkscape:window-y="0"
     inkscape:window-maximized="1" />
  <metadata
     id="metadata4479">
    <rdf:RDF>
      <cc:Work
         rdf:about="">
        <dc:format>image/svg+xml</dc:format>
        <dc:type
           rdf:resource="http://purl.org/dc/dcmitype/StillImage" />
        <dc:title></dc:title>
      </cc:Work>
    </rdf:RDF>
  </metadata>
  <g
     inkscape:label="Layer 1"
     inkscape:groupmode="layer"
     id="layer1"
     transform="translate(-468.75742,-786.92658)">
    <path
       d="m 550.6374,845.51605 c 1.20875,0.20125 2.2475,-0.20375 3.06375,-0.20375 11.6425,-1.02125 7.3275,-0.89375 18.96875,-0.69 2.045,0.20375 3.025,-0.1525 4.3275,0.0388 0.64,0.0937 3.3,0.81375 4.51875,1.14875 0.5125,0.14 2.73375,0.18625 3.14125,0.15375 2.335,-0.19125 13.57,-0.2425 20.92375,1.1875 1.8375,0.4075 3.2675,2.24625 4.90125,2.45125 3.06375,0.81625 5.9225,1.6325 8.7825,3.06375 1.225,0.4075 3.42,1.42875 4.64625,1.8375 1.02125,0.20375 5.29625,1.345 6.28,1.83875 0.91875,0.45875 5.20875,2.45125 9.09125,5.51375 2.05125,1.62125 17.0825,4.93125 20.8325,4.9025 1.36875,-0.0125 0.4075,2.655 0.20375,4.085 -0.20375,1.63375 -2.2475,1.8375 -3.2675,2.45 -1.8375,0.8175 -3.67625,1.83875 -5.31125,2.45125 -1.8375,0.6125 -3.88,-0.20375 -5.92375,0.40875 -3.47,0.8175 -6.33125,2.655 -10.0075,3.4725 -2.65375,0.6125 -5.105,0.20375 -7.55625,1.02125 -1.635,0.6125 -3.27,1.63375 -4.90125,2.0425 -5.72125,1.63375 -11.23625,3.88 -16.95375,5.105 -8.2475,1.76875 -16.95375,1.0225 -25.5325,0.61375 -2.04125,0 -4.28875,-0.81625 -6.33,-1.02125 -10.0075,-0.8175 -20.01625,-0.205 -30.22875,-1.225 -3.4725,-0.40875 -6.74,-1.63375 -10.2125,-2.45125 -1.02125,-0.205 -1.63375,-0.8175 -2.45125,-1.22625 -3.4725,-1.02 -6.94375,0 -10.41625,-0.4075 -1.02125,0 -2.0425,-0.41 -3.06375,-1.0225 -0.81625,-0.4075 -1.83875,-0.6125 -2.86,-0.81625 -1.02,-0.40875 -1.8375,-0.8175 -2.85875,-1.43 -1.83875,-0.8175 -3.88125,-0.6125 -5.515,-1.8375 -2.45,-1.43 -4.49375,-2.65625 -6.945,-4.49375 -1.02,-0.61375 -1.225,-1.83875 -1.6325,-2.655 -0.41,-1.225 -0.61375,-2.86 0.6125,-4.08625 2.24625,-3.06375 5.515,-5.105 8.37375,-7.3525 0.6125,-0.4075 1.02,-1.02125 1.63375,-1.42875 1.8375,-1.0225 3.4725,-2.0425 5.51375,-2.2475 2.86125,-0.6125 5.515,-1.42875 8.17125,-2.24625 1.43,-0.40875 2.655,-1.83875 4.28875,-2.0425 1.83875,-0.40875 3.47125,-1.22625 4.9025,-1.83875 3.2675,-1.42875 6.05,-2.11875 9.80375,-2.85875 4.05875,-0.56125 5.31,-0.8175 8.98625,-0.205 z"
       style="fill:#e0f5ff;fill-opacity:1;fill-rule:nonzero;stroke:#181819;stroke-width:0.61250001;stroke-linecap:butt;stroke-linejoin:miter;stroke-miterlimit:4;stroke-dasharray:none;stroke-opacity:1"
       id="path4009"
       inkscape:connector-curvature="0" />
    <path
       d="m 606.04115,851.64355 c -0.9125,0.71125 -3.145,0.71125 -3.95625,0 -0.6075,0.40625 -1.42,0.81125 -2.73875,0 -1.21875,1.015 -3.39875,0.9125 -5.12375,0 -0.8125,0.60875 -2.385,0.60875 -3.5,0 -0.5075,0.40625 -0.71125,0.60875 -1.625,0 -0.60875,0.40625 -1.31875,0.5075 -2.0275,0 -1.1175,0.71125 -2.8425,0.81125 -4.06,0 -0.6075,0.40625 -1.5225,0.30375 -2.23,0 -1.31875,1.015 -2.6375,0.60875 -3.34875,0 -0.60875,0.40625 -1.11625,0.5075 -1.72625,0 -1.21625,1.115 -3.145,0.60875 -4.05625,0 -0.915,0.71125 -3.14625,0.71125 -3.9575,0 -0.61,0.40625 -1.42125,0.81125 -2.74,0 -1.21625,1.015 -3.3475,0.9125 -5.0725,0 m 31.3825,6.53625 c -0.915,0.71 -3.14625,0.71 -3.9575,0 -0.61,0.405 -1.42125,0.81125 -2.74,0 -1.215,1.015 -3.39875,0.9125 -5.1225,0 -0.81125,0.60875 -2.38375,0.60875 -3.50125,0 -0.5075,0.405 -0.70875,0.60875 -1.62375,0 -0.6075,0.405 -1.31875,0.5075 -2.02875,0 -1.11625,0.71 -2.83875,0.81125 -4.0575,0 -0.6075,0.405 -1.52125,0.30375 -2.23375,0 -1.31875,1.015 -2.6375,0.60875 -3.345,0 -0.61125,0.405 -1.1175,0.5075 -1.7275,0 -1.21625,1.115 -3.14375,0.60875 -4.05625,0 m 77.73375,5.71875 c -0.915,0.71 -3.14625,0.71 -3.9575,0 -0.61,0.40625 -1.42125,0.81125 -2.74,0 -1.21875,1.015 -3.39875,0.9125 -5.1225,0 -0.81125,0.60875 -2.38625,0.60875 -3.50125,0 -0.5075,0.40625 -0.71125,0.60875 -1.6225,0 -0.60875,0.40625 -1.32,0.5075 -2.03,0 m -48.98125,15.34375 c -0.915,0.71 -3.14625,0.71 -3.9575,0 -0.61,0.405 -1.42125,0.81125 -2.74125,0 -1.21625,1.015 -3.39875,0.9125 -5.12125,0 -0.81125,0.60875 -2.385,0.60875 -3.50125,0 -0.5075,0.405 -0.71,0.60875 -1.62375,0 -0.6075,0.405 -1.31875,0.5075 -2.02875,0 m 55.5325,4.67375 c -0.9125,0.70875 -3.14625,0.70875 -3.9575,0 -0.6075,0.40375 -1.41875,0.81125 -2.7375,0 -1.2175,1.01375 -3.4,0.91125 -5.125,0 -0.81125,0.6075 -2.38375,0.6075 -3.49875,0 -0.5075,0.40375 -0.71125,0.6075 -1.62375,0 -0.6075,0.40375 -1.31875,0.50625 -2.03,0 m 48.65125,-11.8475 c -0.5075,0.40625 -0.71125,0.60875 -1.6225,0 -0.61,0.40625 -1.31875,0.50625 -2.03,0 -1.115,0.71 -2.84,0.81125 -4.0575,0 -0.61,0.40625 -1.52125,0.30375 -2.2325,0 -1.31875,1.01375 -2.6375,0.60875 -3.3475,0 -0.60875,0.40625 -1.11625,0.50625 -1.72375,0 -1.21875,1.11625 -3.145,0.60875 -4.06,0 -0.91125,0.71 -3.145,0.71 -3.9575,0 -0.6075,0.40625 -1.41875,0.81125 -2.7375,0 -1.2175,1.01375 -3.3475,0.9125 -5.075,0 m -54.72,-10.00875 c -0.5075,0.4075 -0.71125,0.61 -1.62375,0 -0.60875,0.4075 -1.31875,0.5075 -2.03,0 -1.115,0.71125 -2.84,0.81125 -4.0575,0 -0.60875,0.4075 -1.52125,0.30375 -2.2325,0 -1.31875,1.015 -2.6375,0.61 -3.3475,0 -0.60875,0.4075 -1.115,0.5075 -1.72375,0 -1.2175,1.115 -3.145,0.61 -4.06,0 -0.91125,0.71125 -3.14375,0.71125 -3.955,0 -0.60875,0.4075 -1.42125,0.81125 -2.74,0 -1.2175,1.015 -3.3475,0.91375 -5.0725,0 m 15.67625,10.52 c -1.31875,1.015 -2.63875,0.6075 -3.34875,0 -0.61,0.40375 -1.11625,0.5075 -1.725,0 -1.2175,1.115 -3.145,0.6075 -4.05625,0 -0.91625,0.71 -3.14625,0.71 -3.95875,0 -0.60875,0.40375 -1.42,0.81125 -2.73875,0 -1.2175,1.015 -3.34875,0.91125 -5.0725,0"
       style="fill:none;stroke:#181819;stroke-width:0.48999998;stroke-linecap:butt;stroke-linejoin:miter;stroke-miterlimit:4;stroke-dasharray:none;stroke-opacity:1"
       id="path4011"
       inkscape:connector-curvature="0" />
    <path
       d="m 660.72865,867.39605 -162.5825,0 0,-73.565 162.5825,73.565 z"
       style="fill:none;stroke:#181819;stroke-width:0.91875005;stroke-linecap:butt;stroke-linejoin:miter;stroke-miterlimit:4;stroke-dasharray:none;stroke-opacity:1"
       id="path4013"
       inkscape:connector-curvature="0" />
    <path
       d="m 563.70865,844.6998 c -2.655,-0.205 -5.51375,0.20375 -8.16875,0.20375"
       style="fill:none;stroke:#181819;stroke-width:0.48999998;stroke-linecap:butt;stroke-linejoin:miter;stroke-miterlimit:4;stroke-dasharray:none;stroke-opacity:1"
       id="path4015"
       inkscape:connector-curvature="0" />
    <text
       y="830.9118"
       x="468.38977"
       style="font-variant:normal;font-weight:normal;font-size:12.25487518px;font-family:Times;-inkscape-font-specification:Times-Roman;writing-mode:lr-tb;fill:#181819;fill-opacity:1;fill-rule:nonzero;stroke:none"
       id="text4017">
      <tspan
         x="468.38977 474.51721 480.64465 483.70837"
         y="830.9118"
         sodipodi:role="line"
         id="tspan4019">28 m</tspan>
      <tspan
         x="579.53046 585.6579 591.78534 594.84906"
         y="826.31622"
         sodipodi:role="line"
         id="tspan4021">84 m</tspan>
      <tspan
         x="486.6814"
         y="795.03931"
         id="tspan4023">P</tspan>
    </text>
    <path
       d="m 498.14615,795.77605 c 1.07375,0 1.945,-0.87125 1.945,-1.945 0,-1.07375 -0.87125,-1.945 -1.945,-1.945 -1.07375,0 -1.945,0.87125 -1.945,1.945 0,1.07375 0.87125,1.945 1.945,1.945"
       style="fill:#cc1e9a;fill-opacity:1;fill-rule:nonzero;stroke:none"
       id="path4025"
       inkscape:connector-curvature="0" />
    <path
       d="m 498.14615,869.34105 c 1.07375,0 1.945,-0.87125 1.945,-1.945 0,-1.07375 -0.87125,-1.945 -1.945,-1.945 -1.07375,0 -1.945,0.87125 -1.945,1.945 0,1.07375 0.87125,1.945 1.945,1.945"
       style="fill:#cc1e9a;fill-opacity:1;fill-rule:nonzero;stroke:none"
       id="path4027"
       inkscape:connector-curvature="0" />
    <path
       d="m 660.72865,869.34105 c 1.07125,0 1.9425,-0.87125 1.9425,-1.945 0,-1.07375 -0.87125,-1.945 -1.9425,-1.945 -1.075,0 -1.94625,0.87125 -1.94625,1.945 0,1.07375 0.87125,1.945 1.94625,1.945"
       style="fill:#cc1e9a;fill-opacity:1;fill-rule:nonzero;stroke:none"
       id="path4029"
       inkscape:connector-curvature="0" />
  </g>
</svg>
