<svg xmlns="http://www.w3.org/2000/svg" xmlns:xlink="http://www.w3.org/1999/xlink" version="1.1" width="125" height="128" viewBox="0 0 125 128">
<defs>
<path id="font_1_2" d="M.5159912 .68333438C.5159912 .6843262 .5159912 .69433596 .5029907 .69433596 .48799134 .69433596 .3929901 .68533328 .37599183 .68333438 .36799623 .6823273 .3619995 .6773224 .3619995 .6643219 .3619995 .6523285 .37098695 .6523285 .38598634 .6523285 .43399049 .6523285 .43598939 .6453247 .43598939 .6353302L.43299867 .6153412 .37298585 .37835694C.35499574 .41537477 .32598878 .4423828 .2809906 .4423828 .1639862 .4423828 .039993287 .29533387 .039993287 .14929199 .039993287 .055267335 .09498596-.0107421879 .17298889-.0107421879 .19299317-.0107421879 .24299622-.0067443849 .30299378 .06427002 .31098939 .022247315 .34599305-.0107421879 .3939972-.0107421879 .42900086-.0107421879 .45199586 .012252808 .46798707 .044265748 .4850006 .08027649 .49798585 .14129639 .49798585 .14329529 .49798585 .1532898 .4889984 .1532898 .48599244 .1532898 .47599793 .1532898 .47499085 .14929199 .47200013 .13528443 .45498658 .07026672 .43699647 .011245728 .3959961 .011245728 .36898805 .011245728 .3659973 .037261964 .3659973 .057266237 .3659973 .08126831 .36799623 .088272098 .37199403 .105285648L.5159912 .68333438M.30799867 .119277957C.30299378 .10127258 .30299378 .09927368 .28799439 .08227539 .24398804 .027252198 .20298767 .011245728 .1749878 .011245728 .125 .011245728 .11099243 .06626892 .11099243 .105285648 .11099243 .1552887 .14299011 .27833558 .1659851 .32434083 .19699097 .38336183 .24198914 .42037965 .28199769 .42037965 .34700013 .42037965 .36099244 .3383484 .36099244 .33235169 .36099244 .32633973 .35899354 .32034303 .35798646 .31533814L.30799867 .119277957Z"/>
<path id="font_1_1" d="M.1599884 .07795715C.1499939 .038986207 .147995 .0309906 .068984989 .0309906 .051986696 .0309906 .041992189 .0309906 .041992189 .010986328 .041992189 0 .050994874 0 .068984989 0H.42599488C.58399966 0 .70199587 .11791992 .70199587 .21585083 .70199587 .28778077 .6439972 .3457489 .5469971 .35673524 .651001 .37573243 .7559967 .44970704 .7559967 .5446625 .7559967 .6186218 .6899872 .6826172 .56999209 .6826172H.23399353C.21499634 .6826172 .20498657 .6826172 .20498657 .6626129 .20498657 .6516113 .21398926 .6516113 .23298645 .6516113 .23498535 .6516113 .2539978 .6516113 .2709961 .6496124 .2889862 .6476135 .2979889 .64660647 .2979889 .6336212 .2979889 .6296234 .29699708 .62661746 .2939911 .614624L.1599884 .07795715M.31098939 .36573792 .37298585 .6136322C.38198854 .64860537 .38398744 .6516113 .4269867 .6516113H.55599978C.6439972 .6516113 .6649933 .5926361 .6649933 .5486603 .6649933 .46069337 .57899478 .36573792 .45700074 .36573792H.31098939M.2659912 .0309906C.2519989 .0309906 .25 .0309906 .24398804 .03199768 .23399353 .032989503 .23098755 .033996583 .23098755 .04197693 .23098755 .04498291 .23098755 .04698181 .23599243 .064971927L.30499269 .34375H.49398805C.58999636 .34375 .60899356 .2698059 .60899356 .22683716 .60899356 .12791443 .519989 .0309906 .4019928 .0309906H.2659912Z"/>
<path id="font_2_2" d="M.1269989 .07699585 .23298645 .18003845C.3889923 .31811524 .44898988 .3721466 .44898988 .47216798 .44898988 .5860901 .35899354 .6660156 .23699951 .6660156 .12399292 .6660156 .049987794 .57411196 .049987794 .48516847 .049987794 .4291687 .099990848 .4291687 .102996829 .4291687 .11999512 .4291687 .15499878 .44117738 .15499878 .48217774 .15499878 .5081787 .13699341 .5341797 .101989749 .5341797 .09399414 .5341797 .09199524 .5341797 .08898926 .5331726 .11199951 .59806826 .1659851 .63500979 .22399903 .63500979 .31498719 .63500979 .35798646 .5541382 .35798646 .47216798 .35798646 .39215089 .30799867 .31311036 .25299073 .25108338L.06098938 .036987306C.049987794 .025985718 .049987794 .023986817 .049987794 0H.42099L.44898988 .17404175H.42399598C.4189911 .14402771 .4119873 .1000061 .4019928 .084991458 .394989 .07699585 .32899476 .07699585 .30699159 .07699585H.1269989Z"/>
<path id="font_2_1" d="M.2939911 .64004519C.2939911 .66400149 .2939911 .6660156 .2709961 .6660156 .20899964 .60227969 .12098694 .60227969 .08898926 .60227969V.57128909C.10899353 .57128909 .16799927 .57128909 .21998596 .5972748V.07902527C.21998596 .042999269 .21699524 .0309906 .1269989 .0309906H.09498596V0C.12998963 .0029907227 .21699524 .0029907227 .25698854 .0029907227 .29699708 .0029907227 .38398744 .0029907227 .4189911 0V.0309906H.3869934C.29699708 .0309906 .2939911 .041992189 .2939911 .07902527V.64004519Z"/>
<path id="font_2_3" d="M.2939911 .16503906V.07800293C.2939911 .041992189 .2919922 .0309906 .21798706 .0309906H.19699097V0C.23799134 .0029907227 .2899933 .0029907227 .33198548 .0029907227 .37399293 .0029907227 .4269867 .0029907227 .46798707 0V.0309906H.44699098C.37298585 .0309906 .37098695 .041992189 .37098695 .07800293V.16503906H.47099305V.19602967H.37098695V.65075686C.37098695 .67074587 .37098695 .6767578 .35499574 .6767578 .34599305 .6767578 .34298707 .6767578 .33499146 .66474917L.027999878 .19602967V.16503906H.2939911M.2999878 .19602967H.055999757L.2999878 .5688019V.19602967Z"/>
</defs>
<path transform="matrix(1.00003,0,0,-1.00008,12.782967,113.70313)" stroke-width=".3985" stroke-linecap="butt" stroke-miterlimit="10" stroke-linejoin="miter" fill="none" stroke="#00aeef" d="M0 0H90.71013M0 22.67752H90.71013M0 45.35506H90.71013M0 68.0326H90.71013M0 90.70215H90.71013M0 0V90.71013M22.67752 0V90.71013M45.35506 0V90.71013M68.0326 0V90.71013M90.70215 0V90.71013M90.71013 90.71013"/>
<path transform="matrix(1.00003,0,0,-1.00008,12.782967,113.70313)" stroke-width="1.19553" stroke-linecap="butt" stroke-miterlimit="10" stroke-linejoin="miter" fill="none" stroke="#000000" d="M0 0H100.17589"/>
<path transform="matrix(1.00003,0,0,-1.00008,112.96186,113.70313)" d="M1.27522 0C-.31879 .31879-1.91284 .9564-3.8257 2.07224-1.91284 .6376-1.91284-.6376-3.8257-2.07224-1.91284-.9564-.31879-.31879 1.27522 0Z"/>
<path transform="matrix(1.00003,0,0,-1.00008,112.96186,113.70313)" stroke-width="1.19553" stroke-linecap="butt" stroke-linejoin="round" fill="none" stroke="#000000" d="M1.27522 0C-.31879 .31879-1.91284 .9564-3.8257 2.07224-1.91284 .6376-1.91284-.6376-3.8257-2.07224-1.91284-.9564-.31879-.31879 1.27522 0Z"/>
<use data-text="d" xlink:href="#font_1_2" transform="matrix(9.962899,0,0,-9.963397,118.75315,117.16241)"/>
<path transform="matrix(1.00003,0,0,-1.00008,12.782967,113.70313)" stroke-width="1.19553" stroke-linecap="butt" stroke-miterlimit="10" stroke-linejoin="miter" fill="none" stroke="#000000" d="M0 0V100.17589"/>
<path transform="matrix(0,-1.00008,-1.00003,-0,12.782967,13.519234)" d="M1.27522 0C-.31879 .31879-1.91284 .9564-3.8257 2.07224-1.91284 .6376-1.91284-.6376-3.8257-2.07224-1.91284-.9564-.31879-.31879 1.27522 0Z"/>
<path transform="matrix(0,-1.00008,-1.00003,-0,12.782967,13.519234)" stroke-width="1.19553" stroke-linecap="butt" stroke-linejoin="round" fill="none" stroke="#000000" d="M1.27522 0C-.31879 .31879-1.91284 .9564-3.8257 2.07224-1.91284 .6376-1.91284-.6376-3.8257-2.07224-1.91284-.9564-.31879-.31879 1.27522 0Z"/>
<use data-text="B" xlink:href="#font_1_1" transform="matrix(9.962899,0,0,-9.963397,8.754845,7.7276537)"/>
<path transform="matrix(1.00003,0,0,-1.00008,12.782967,113.70313)" stroke-width=".3985" stroke-linecap="butt" stroke-miterlimit="10" stroke-linejoin="miter" fill="none" stroke="#000000" d="M45.35506 3.40146V-3.40182"/>
<path transform="matrix(1.00003,0,0,-1.00008,12.782967,113.70313)" d="M41.86809-14.00662H48.842035V-5.5936405H41.86809Z" fill="#ffffff"/>
<use data-text="2" xlink:href="#font_2_2" transform="matrix(9.962899,0,0,-9.963397,55.648256,126.71417)"/>
<path transform="matrix(1.00003,0,0,-1.00008,12.782967,113.70313)" stroke-width=".3985" stroke-linecap="butt" stroke-miterlimit="10" stroke-linejoin="miter" fill="none" stroke="#000000" d="M3.40146 45.35506H-3.40182"/>
<path transform="matrix(1.00003,0,0,-1.00008,12.782967,113.70313)" d="M-12.56758 41.14856H-5.5936405V49.56154H-12.56758Z" fill="#ffffff"/>
<use data-text="1" xlink:href="#font_2_1" transform="matrix(9.962899,0,0,-9.963397,1.2116165,71.55476)"/>
<path transform="matrix(1.00003,0,0,-1.00008,12.782967,113.70313)" stroke-width=".3985" stroke-linecap="butt" stroke-miterlimit="10" stroke-linejoin="miter" fill="none" stroke="#000000" d="M90.71013 3.40146V-3.40182"/>
<path transform="matrix(1.00003,0,0,-1.00008,12.782967,113.70313)" d="M87.22316-14.00662H94.1971V-5.5936405H87.22316Z" fill="#ffffff"/>
<use data-text="4" xlink:href="#font_2_3" transform="matrix(9.962899,0,0,-9.963397,101.004619,126.71417)"/>
<path transform="matrix(1.00003,0,0,-1.00008,12.782967,113.70313)" stroke-width=".3985" stroke-linecap="butt" stroke-miterlimit="10" stroke-linejoin="miter" fill="none" stroke="#000000" d="M3.40146 90.71013H-3.40182"/>
<path transform="matrix(1.00003,0,0,-1.00008,12.782967,113.70313)" d="M-12.56758 86.50363H-5.5936405V94.91661H-12.56758Z" fill="#ffffff"/>
<use data-text="2" xlink:href="#font_2_2" transform="matrix(9.962899,0,0,-9.963397,1.2116165,26.196137)"/>
<path transform="matrix(1.00003,0,0,-1.00008,12.782967,113.70313)" stroke-width="1.19553" stroke-linecap="butt" stroke-miterlimit="10" stroke-linejoin="miter" fill="none" stroke="#d73589" d="M14.50203 88.852C15.20435 80.6496 15.20435 80.6496 15.53543 77.31523 15.8665 73.98085 16.39746 69.35228 16.72853 66.68617 17.0596 64.02007 17.59058 60.266 17.92165 58.09973 18.25273 55.93347 18.78369 52.85687 19.11476 51.07323 19.44585 49.28957 19.9768 46.73036 20.30789 45.24432 20.63896 43.75829 21.16994 41.61365 21.501 40.36285 21.83209 39.11206 22.36305 37.29256 22.6941 36.22949 23.02519 35.16644 23.55615 33.6119 23.88724 32.70102 24.2183 31.79015 24.74928 30.45154 25.08035 29.66458 25.41142 28.87764 25.9424 27.71326 26.27347 27.0292 26.60455 26.34515 27.13551 25.33244 27.4666 24.73433 27.79767 24.1362 28.32863 23.24535 28.65971 22.71835 28.99078 22.19135 29.52176 21.40192 29.85283 20.93594 30.1839 20.46996 30.71487 19.77351 31.04594 19.35977 31.37703 18.94601 31.90799 18.32385 32.23907 17.95383 32.57014 17.58382 33.1011 17.0245 33.43219 16.69289 33.76324 16.36127 34.29422 15.8619 34.62529 15.5638 34.95638 15.2657 35.48734 14.8138 35.8184 14.54437 36.14949 14.27495 36.68045 13.8661 37.01154 13.62186 37.3426 13.37762 37.87358 13.00612 38.20465 12.78413 38.53574 12.56212 39.0667 12.22423 39.39777 12.02182 39.72884 11.81941 40.2598 11.51027 40.59088 11.32526 40.92195 11.14021 41.45293 10.85782 41.784 10.68822 42.11507 10.51859 42.64604 10.25865 42.97711 10.10272 43.3082 9.94678 43.83916 9.70784 44.17024 9.56429 44.50131 9.42075 45.03227 9.20064 45.36334 9.06808 45.69441 8.93553 46.22539 8.7315 46.55646 8.6089 46.88754 8.48628 47.4185 8.29796 47.74957 8.18433 48.08066 8.0707 48.61163 7.89537 48.94272 7.78986 49.27379 7.68433 49.80475 7.52193 50.13583 7.42374 50.4669 7.32556 50.99788 7.17368 51.32893 7.08221 51.66002 6.99075 52.19098 6.84996 52.52205 6.76456 52.85313 6.67914 53.3841 6.5464 53.71518 6.46661 54.04625 6.38683 54.57722 6.2641 54.9083 6.18945 55.23938 6.1148 55.77034 5.99861 56.10141 5.92854 56.4325 5.85846 56.96344 5.74997 57.29453 5.68423 57.6256 5.61852 58.15656 5.51665 58.48764 5.45483 58.81871 5.393 59.34969 5.29674 59.68076 5.23857 60.01184 5.18037 60.5428 5.09021 60.87389 5.03543 61.20496 4.98067 61.73592 4.89543 62.067 4.84373 62.39806 4.79204 62.92903 4.71158 63.2601 4.66277 63.59119 4.61392 64.12215 4.538 64.45322 4.49182 64.7843 4.44565 65.31526 4.37361 65.64635 4.32988 65.97742 4.28615 66.50839 4.218 66.83946 4.17659 67.17055 4.13516 67.70152 4.07048 68.0326 4.03125 68.36366 3.99203 68.89462 3.93108 69.2257 3.89388 69.55678 3.85667 70.08774 3.79845 70.41882 3.76308 70.7499 3.7277 71.28087 3.67255 71.61194 3.63885 71.94302 3.60516 72.47398 3.55228 72.80505 3.52016 73.13614 3.48804 73.6671 3.4379 73.99817 3.40736 74.32924 3.37683 74.8602 3.32907 75.19128 3.30008 75.52235 3.27109 76.05333 3.22603 76.3844 3.19835 76.71548 3.17065 77.24644 3.12692 77.57753 3.10042 77.9086 3.07393 78.43956 3.03264 78.77065 3.00734 79.10172 2.98204 79.63269 2.94225 79.96375 2.91806 80.29483 2.89388 80.82579 2.85606 81.15686 2.83295 81.48795 2.8098 82.0189 2.77339 82.34999 2.75128 82.68106 2.72916 83.21204 2.69458 83.5431 2.67342 83.87419 2.65225 84.40515 2.61897 84.73622 2.59868 85.0673 2.57838 85.59825 2.54654 85.92934 2.52705 86.2604 2.50757 86.79137 2.47691 87.12245 2.45819 87.45352 2.43947 87.98451 2.40999 88.31558 2.3921 88.64667 2.37419 89.17763 2.3463 89.5087 2.32912 89.83978 2.31194 90.70183 2.26822 88.8313 2.36304"/>
<path transform="matrix(-.085282567,-.9963797,-.9963299,.085286829,27.285433,24.844025)" d="M1.27522 0C-.31879 .31879-1.91284 .9564-3.8257 2.07224-1.91284 .6376-1.91284-.6376-3.8257-2.07224-1.91284-.9564-.31879-.31879 1.27522 0Z" fill="#d73589"/>
<path transform="matrix(-.085282567,-.9963797,-.9963299,.085286829,27.285433,24.844025)" stroke-width="1.19553" stroke-linecap="butt" stroke-linejoin="round" fill="none" stroke="#d73589" d="M1.27522 0C-.31879 .31879-1.91284 .9564-3.8257 2.07224-1.91284 .6376-1.91284-.6376-3.8257-2.07224-1.91284-.9564-.31879-.31879 1.27522 0Z"/>
<path transform="matrix(.99872,.05063405,.05063152,-.9987699,101.616939,111.3399)" d="M1.27522 0C-.31879 .31879-1.91284 .9564-3.8257 2.07224-1.91284 .6376-1.91284-.6376-3.8257-2.07224-1.91284-.9564-.31879-.31879 1.27522 0Z" fill="#d73589"/>
<path transform="matrix(.99872,.05063405,.05063152,-.9987699,101.616939,111.3399)" stroke-width="1.19553" stroke-linecap="butt" stroke-linejoin="round" fill="none" stroke="#d73589" d="M1.27522 0C-.31879 .31879-1.91284 .9564-3.8257 2.07224-1.91284 .6376-1.91284-.6376-3.8257-2.07224-1.91284-.9564-.31879-.31879 1.27522 0Z"/>
</svg>
