<svg xmlns="http://www.w3.org/2000/svg" xmlns:xlink="http://www.w3.org/1999/xlink" version="1.1" width="227" height="194" viewBox="0 0 227 194">
<defs>
<path id="font_1_3" d="M.1269989 .07699585 .23298645 .18003845C.3889923 .31811524 .44898988 .3721466 .44898988 .47216798 .44898988 .5860901 .35899354 .6660156 .23699951 .6660156 .12399292 .6660156 .049987794 .57411196 .049987794 .48516847 .049987794 .4291687 .099990848 .4291687 .102996829 .4291687 .11999512 .4291687 .15499878 .44117738 .15499878 .48217774 .15499878 .5081787 .13699341 .5341797 .101989749 .5341797 .09399414 .5341797 .09199524 .5341797 .08898926 .5331726 .11199951 .59806826 .1659851 .63500979 .22399903 .63500979 .31498719 .63500979 .35798646 .5541382 .35798646 .47216798 .35798646 .39215089 .30799867 .31311036 .25299073 .25108338L.06098938 .036987306C.049987794 .025985718 .049987794 .023986817 .049987794 0H.42099L.44898988 .17404175H.42399598C.4189911 .14402771 .4119873 .1000061 .4019928 .084991458 .394989 .07699585 .32899476 .07699585 .30699159 .07699585H.1269989Z"/>
<path id="font_1_4" d="M.2939911 .16503906V.07800293C.2939911 .041992189 .2919922 .0309906 .21798706 .0309906H.19699097V0C.23799134 .0029907227 .2899933 .0029907227 .33198548 .0029907227 .37399293 .0029907227 .4269867 .0029907227 .46798707 0V.0309906H.44699098C.37298585 .0309906 .37098695 .041992189 .37098695 .07800293V.16503906H.47099305V.19602967H.37098695V.65075686C.37098695 .67074587 .37098695 .6767578 .35499574 .6767578 .34599305 .6767578 .34298707 .6767578 .33499146 .66474917L.027999878 .19602967V.16503906H.2939911M.2999878 .19602967H.055999757L.2999878 .5688019V.19602967Z"/>
<path id="font_1_5" d="M.13198853 .327713V.35173036C.13198853 .6047821 .2559967 .64100649 .30699159 .64100649 .33099366 .64100649 .37298585 .634964 .394989 .6007538 .37998963 .6007538 .33999635 .6007538 .33999635 .5557556 .33999635 .524765 .3639984 .5097656 .38598634 .5097656 .4019928 .5097656 .43199159 .51875308 .43199159 .5577545 .43199159 .6178589 .3880005 .6660156 .30499269 .6660156 .1769867 .6660156 .041992189 .5367584 .041992189 .31570436 .041992189 .048553468 .1579895-.022460938 .25099183-.022460938 .3619995-.022460938 .45700074 .07156372 .45700074 .2036438 .45700074 .33070375 .36799623 .4267578 .25698854 .4267578 .18899536 .4267578 .1519928 .37573243 .13198853 .327713M.25099183 .0055389406C.18798828 .0055389406 .1579895 .06556702 .1519928 .080566409 .13398743 .127594 .13398743 .2076416 .13398743 .22564698 .13398743 .30369569 .1659851 .40374757 .2559967 .40374757 .27198792 .40374757 .31799317 .40374757 .34899903 .34172059 .36698915 .30470277 .36698915 .2536621 .36698915 .20463562 .36698915 .15661621 .36698915 .10658264 .34999085 .0705719 .31999208 .010528564 .27398683 .0055389406 .25099183 .0055389406Z"/>
<path id="font_1_6" d="M.16299439 .4569702C.116989139 .486969 .11299133 .52098086 .11299133 .5379791 .11299133 .598999 .17799378 .64100649 .24899292 .64100649 .32199098 .64100649 .38598634 .58898928 .38598634 .51698306 .38598634 .45996095 .34700013 .4119568 .2869873 .37695313L.16299439 .4569702M.30899049 .36193849C.3809967 .3989563 .42999269 .45095826 .42999269 .51698306 .42999269 .6090088 .34098817 .6660156 .25 .6660156 .1499939 .6660156 .068984989 .59199526 .068984989 .49897767 .068984989 .4809723 .070999149 .43595887 .11299133 .38894654 .12399292 .37695313 .16099549 .35194398 .18598938 .33494569 .12799073 .30592347 .041992189 .24984741 .041992189 .15072632 .041992189 .04458618 .14399719-.022460938 .24899292-.022460938 .3619995-.022460938 .45700074 .06060791 .45700074 .16773987 .45700074 .20379639 .44599916 .24885559 .4079895 .2909088 .3889923 .31193543 .37298585 .3219452 .30899049 .36193849M.20899964 .3199463 .33198548 .24183655C.3600006 .2228241 .40699769 .19277954 .40699769 .13169861 .40699769 .05760193 .33198548 .0055389406 .25 .0055389406 .1639862 .0055389406 .09199524 .067611698 .09199524 .15072632 .09199524 .20880127 .12399292 .27288819 .20899964 .3199463Z"/>
<path id="font_1_2" d="M.2939911 .64004519C.2939911 .66400149 .2939911 .6660156 .2709961 .6660156 .20899964 .60227969 .12098694 .60227969 .08898926 .60227969V.57128909C.10899353 .57128909 .16799927 .57128909 .21998596 .5972748V.07902527C.21998596 .042999269 .21699524 .0309906 .1269989 .0309906H.09498596V0C.12998963 .0029907227 .21699524 .0029907227 .25698854 .0029907227 .29699708 .0029907227 .38398744 .0029907227 .4189911 0V.0309906H.3869934C.29699708 .0309906 .2939911 .041992189 .2939911 .07902527V.64004519Z"/>
<path id="font_1_1" d="M.45999146 .31976319C.45999146 .39982606 .45498658 .47988893 .41999818 .5539398 .37399293 .65000918 .2919922 .6660156 .25 .6660156 .18998719 .6660156 .116989139 .64001467 .07598877 .54693606 .04399109 .47789 .038986207 .39982606 .038986207 .31976319 .038986207 .24472046 .042999269 .15464783 .083999637 .07859802 .1269989-.0024719239 .19999695-.022460938 .24899292-.022460938 .30299378-.022460938 .3789978-.0014648438 .4229889 .09359741 .45498658 .16265869 .45999146 .2407074 .45999146 .31976319M.24899292-.00047302247C.20999146-.00047302247 .15098572 .024551392 .1329956 .12062073 .12199402 .18066406 .12199402 .2727356 .12199402 .3317871 .12199402 .39582826 .12199402 .46188355 .12998963 .5159149 .14898682 .63500979 .22399903 .64401248 .24899292 .64401248 .28199769 .64401248 .34799195 .6259918 .36698915 .52693179 .3769989 .47088624 .3769989 .39482118 .3769989 .3317871 .3769989 .25672914 .3769989 .18867493 .3659973 .12461853 .35099793 .029556275 .2939911-.00047302247 .24899292-.00047302247Z"/>
<path id="font_2_27" d="M.82699587 0V.04699707H.7299957L.47399903 .6722412C.46299745 .6982422 .45098878 .6982422 .43399049 .6982422 .4059906 .6982422 .4019928 .6902313 .394989 .6722412L.14698792 .07002258C.14099121 .055007936 .13798523 .04699707 .06199646 .04699707H.040985109V0L.1579895 .0029907227C.19699097 .0029907227 .25299073 .0029907227 .2899933 0V.04699707C.2899933 .04699707 .20098877 .04699707 .20098877 .060012819L.20498657 .07203674 .25498963 .19322205H.522995L.58299258 .04699707H.48799134V0C.526001 .0029907227 .62098696 .0029907227 .6639862 .0029907227 .70399478 .0029907227 .7919922 .0029907227 .82699587 0M.5029907 .24023438H.2749939L.3889923 .51823428 .5029907 .24023438Z"/>
<path id="font_2_59" d="M.55799868 .3970642C.55799868 .42007447 .54100039 .45507813 .49499513 .45507813 .47999574 .45507813 .43299867 .45207215 .3889923 .41706849 .37098695 .42918397 .32899476 .4501953 .25498963 .4501953 .11099243 .4501953 .055999757 .37243653 .055999757 .3024292 .055999757 .26127626 .07598877 .22012329 .10798645 .19703675 .07998657 .16191101 .07398987 .12878418 .07398987 .10771179 .07398987 .0927124 .07798767 .04371643 .117996219 .01171875 .10499573 .008712769 .03199768-.012252808 .03199768-.075164798 .03199768-.12609864 .08699036-.2010498 .2869873-.2010498 .46398927-.2010498 .5419922-.14207459 .5419922-.07217407 .5419922-.04222107 .5339966 .020706177 .46699525 .054718019 .41099549 .08300781 .35099793 .08300781 .25498963 .08300781 .22898865 .08300781 .18299866 .08300781 .17799378 .083984378 .13398743 .0909729 .12298584 .12898255 .12298584 .14697266 .12298584 .15698242 .1269989 .17198181 .1329956 .17997742 .1789856 .15629578 .22999573 .15429688 .25498963 .15429688 .39898683 .15429688 .45399476 .23234558 .45399476 .3024292 .45399476 .34942628 .42900086 .38243104 .4139862 .3984375 .44400025 .4144287 .46499635 .4164276 .47599793 .4174347 .47399903 .4124298 .47200013 .40342713 .47200013 .39743043 .47200013 .37219239 .4889984 .354187 .5149994 .354187 .54100039 .354187 .55799868 .3731842 .55799868 .39718629V.3970642M.34298707 .30221559C.34298707 .25724793 .34298707 .19029236 .25498963 .19029236 .16699219 .19021607 .16699219 .25733949 .16699219 .3024292 .16699219 .34742738 .16699219 .41418458 .25498963 .41418458 .34298707 .41418458 .34298707 .34742738 .34298707 .3024292V.30221559M.45599366-.07501221C.45599366-.11102295 .4169922-.16503906 .2869873-.16503906 .16699219-.16503906 .117996219-.11903381 .117996219-.073013309 .117996219-.013000488 .18099976-.013000488 .19499207-.013000488H.31199647C.34298707-.013000488 .45599366-.013000488 .45599366-.07501221Z"/>
<path id="font_2_50" d="M.49398805 .11706543C.49398805 .13504029 .47499085 .13504029 .46998597 .13504029 .45298768 .13504029 .45098878 .13005066 .44499208 .11405945 .42399598 .066101077 .36698915 .03413391 .3019867 .03413391 .16099549 .03413391 .1599884 .16700745 .1599884 .2179718H.46199037C.48399354 .2179718 .49398805 .2179718 .49398805 .2449646 .49398805 .27598573 .48799134 .34906007 .43798829 .3991089 .40098573 .43511964 .34799195 .453125 .2789917 .453125 .11898804 .453125 .03199768 .35005189 .03199768 .22497559 .03199768 .09107971 .13198853-.005859375 .29299928-.005859375 .45098878-.005859375 .49398805 .10006714 .49398805 .11706543M.39898683 .25097657H.1599884C.1619873 .29000855 .16299439 .3320465 .18399048 .36506654 .20999146 .4051056 .25 .41711427 .2789917 .41711427 .3959961 .41711427 .397995 .28599549 .39898683 .25097657Z"/>
<path id="font_2_66" d="M.28599549 0V.04699707H.22399903V.4501953L.049987794 .4423828V.39537049C.10899353 .39537049 .115997318 .39537049 .115997318 .3563385V.04699707H.04699707V0L.16899109 .0029907227 .28599549 0M.23799134 .60728457C.23799134 .6502838 .20298767 .6852875 .1599884 .6852875 .116989139 .6852875 .08198547 .6502838 .08198547 .60728457 .08198547 .5642853 .116989139 .5292969 .1599884 .5292969 .20298767 .5292969 .23799134 .5642853 .23799134 .60728457Z"/>
<path id="font_2_77" d="M.61499026 0V.04699707H.54599V.30613709C.54599 .41119386 .49198915 .4501953 .3919983 .4501953 .29599 .4501953 .24299622 .39318849 .21699524 .3421631V.4501953L.04499817 .4423828V.39537049C.10699463 .39537049 .11399841 .39537049 .11399841 .3563385V.04699707H.04499817V0L.17098999 .0029907227 .29699708 0V.04699707H.22799683V.2562256C.22799683 .3653412 .31399537 .41436769 .3769989 .41436769 .41099549 .41436769 .43199159 .39337159 .43199159 .31729127V.04699707H.36299134V0L.4889984 .0029907227 .61499026 0Z"/>
<path id="font_2_117" d="M.848999 .63853457V.6855469L.7350006 .6826172C.69599917 .6825409 .6399994 .6825409 .6029968 .6855469V.63853457C.6259918 .63853457 .6529999 .63853457 .67900088 .62854006 .6769867 .62454226 .6769867 .62254336 .6719971 .61654666L.4850006 .34153749 .28199769 .63853457H.36698915V.6855469C.32598878 .6826172 .22898865 .6826172 .18399048 .6826172 .14399719 .6825409 .053985597 .6825409 .018997193 .6855469V.63853457H.116989139L.3659973 .27381898V.04699707H.2579956V0C.2939911 .0029907227 .3919983 .0029907227 .43399049 .0029907227 .47698976 .0029907227 .57299807 .0029907227 .61099246 0V.04699707H.5019989V.27381898L.7369995 .61854556C.74598696 .63261416 .7539978 .63261416 .776001 .63560488 .79299929 .6375427 .8109894 .63853457 .8279877 .63853457H.848999Z"/>
<path id="font_2_28" d="M.5529938 .023986817C.5529938 .04699707 .5399933 .04699707 .5269928 .04699707 .46598817 .04798889 .46598817 .06100464 .46598817 .083999637V.29907228C.46598817 .3881073 .394989 .453125 .24598694 .453125 .18899536 .453125 .066986087 .44911195 .066986087 .36109925 .066986087 .3170929 .101989749 .29808045 .1289978 .29808045 .1599884 .29808045 .19198609 .3190918 .19198609 .36109925 .19198609 .39111329 .17298889 .40811158 .16999817 .41011048 .19799805 .41612245 .22999573 .41711427 .24198914 .41711427 .31698609 .41711427 .35198976 .3751068 .35198976 .29907228V.26506043C.2809906 .2620697 .026992798 .25306703 .026992798 .10801697 .026992798 .012130737 .15098572-.005859375 .21998596-.005859375 .2999878-.005859375 .34700013 .035125734 .36898805 .07713318 .36898805 .04598999 .36898805 0 .47299195 0H.5209961C.54100039 0 .5529938 0 .5529938 .023986817M.35198976 .13899231C.35198976 .043151857 .2599945 .030136109 .23498535 .030136109 .18399048 .030136109 .14399719 .06517029 .14399719 .10922241 .14399719 .21734619 .3019867 .23136902 .35198976 .234375V.13899231Z"/>
<path id="font_2_96" d="M.44198609 .36819459C.44198609 .42118836 .3880005 .4501953 .33599855 .4501953 .2659912 .4501953 .22599793 .40019227 .20298767 .33718873V.4501953L.036987306 .4423828V.39537049C.09899902 .39537049 .10598755 .39537049 .10598755 .3563385V.04699707H.036987306V0L.16299439 .0029907227C.20098877 .0029907227 .2649994 .0029907227 .30099488 0V.04699707H.21398926V.22218323C.21398926 .29226686 .23899842 .41436769 .33898927 .41436769 .33898927 .41436769 .31999208 .39736939 .31999208 .36834718 .31999208 .32730104 .35198976 .3072815 .3809967 .3072815 .4099884 .3072815 .44198609 .3283081 .44198609 .36834718V.36819459Z"/>
<path id="font_2_98" d="M.4149933 .14012146C.4149933 .18312073 .394989 .21812439 .3600006 .24612427 .32099916 .27511598 .2889862 .28112794 .21099854 .29412843 .17399597 .30111695 .10899353 .31211854 .10899353 .3591156 .10899353 .42111207 .20199585 .42111207 .22099304 .42111207 .29599 .42111207 .33399964 .39212037 .33898927 .33711244 .33999635 .32211305 .34098817 .3171234 .3619995 .3171234 .38598634 .3171234 .38598634 .32211305 .38598634 .3451233V.42510987C.38598634 .4441223 .38598634 .453125 .36799623 .453125 .3639984 .453125 .3619995 .453125 .32299806 .43411256 .29699708 .44711305 .2619934 .453125 .22200012 .453125 .19198609 .453125 .037994386 .453125 .037994386 .32211305 .037994386 .28211976 .057998659 .25512696 .07798767 .23812866 .117996219 .203125 .1559906 .1971283 .23298645 .18312073 .2689972 .17712403 .34399415 .16412354 .34399415 .10513306 .34399415 .030136109 .2519989 .030136109 .22999573 .030136109 .12399292 .030136109 .09799194 .103134158 .085998538 .14613343 .08099365 .16012573 .07598877 .16012573 .06199646 .16012573 .037994386 .16012573 .037994386 .15412903 .037994386 .13113404V.022140503C.037994386 .0031280518 .037994386-.005859375 .055999757-.005859375 .06298828-.005859375 .06498718-.005859375 .085998538 .009140015L.11199951 .026138306C.1579895-.005859375 .20999146-.005859375 .22999573-.005859375 .26098634-.005859375 .4149933-.005859375 .4149933 .14013672V.14012146Z"/>
<path id="font_2_62" d="M.8600006 0V.04699707H.7519989V.63853457H.8600006V.6855469C.82199099 .6825409 .723999 .6825409 .68099978 .6825409 .6380005 .6825409 .5399933 .6825409 .5019989 .6855469V.63853457H.6100006V.3798828H.2889862V.63853457H.39698792V.6855469C.35899354 .6825409 .26098634 .6825409 .21798706 .6825409 .1749878 .6825409 .07699585 .6825409 .038986207 .6855469V.63853457H.14698792V.04699707H.038986207V0C.07699585 .0029907227 .1749878 .0029907227 .21798706 .0029907227 .26098634 .0029907227 .35899354 .0029907227 .39698792 0V.04699707H.2889862V.33287049H.6100006V.04699707H.5019989V0C.5399933 .0029907227 .6380005 .0029907227 .68099978 .0029907227 .723999 .0029907227 .82199099 .0029907227 .8600006 0Z"/>
<path id="font_2_63" d="M.61499026 0V.04699707H.54599V.30613709C.54599 .41119386 .49198915 .4501953 .3919983 .4501953 .29599 .4501953 .24499512 .3921814 .22299195 .3541565H.22200012V.69433596L.04499817 .6855469V.63853457C.10699463 .63853457 .11399841 .63853457 .11399841 .5996704V.04699707H.04499817V0L.17098999 .0029907227 .29699708 0V.04699707H.22799683V.25610353C.22799683 .36515809 .31399537 .41418458 .3769989 .41418458 .41099549 .41418458 .43199159 .39317323 .43199159 .31713868V.04699707H.36299134V0L.4889984 .0029907227 .61499026 0Z"/>
<path id="font_2_105" d="M.38198854 .124176029V.17721558H.33499146V.12619019C.33499146 .058151246 .30299378 .03413391 .2749939 .03413391 .21699524 .03413391 .21699524 .09817505 .21699524 .1211853V.3973236H.36299134V.44433595H.21699524V.6357422H.16999817C.16899109 .53552249 .11999512 .43632508 .020996094 .43333436V.3973236H.102996829V.123184207C.102996829 .01612854 .18998719-.005859375 .26098634-.005859375 .33699037-.005859375 .38198854 .05114746 .38198854 .124176029Z"/>
<path id="font_2_85" d="M.38198854-.23503113C.38198854-.23002625 .3789978-.22503662 .3789978-.22503662 .34999085-.19802857 .2849884-.13702393 .24299622-.009033203 .21699524 .06997681 .20498657 .16197205 .20498657 .24998474 .20498657 .4469757 .2559967 .60398867 .3659973 .7149811 .3809967 .72998049 .38198854 .73098757 .38198854 .73599246 .38198854 .74697878 .37199403 .75 .3639984 .75 .34700013 .75 .30499269 .7129822 .2869873 .6959839 .1309967 .5409851 .10798645 .35697938 .10798645 .25097657 .10798645 .12597656 .14099121 .015975953 .18798828-.06703186 .2539978-.18203736 .34498597-.24902344 .3639984-.24902344 .37199403-.24902344 .38198854-.24603272 .38198854-.23503113Z"/>
<path id="font_2_43" d="M.47799684 .117126468C.47799684 .13113404 .46398927 .13113404 .45399476 .13113404 .43598939 .13113404 .43499757 .12913513 .42999269 .11613464 .4039917 .053131105 .35598756 .03413391 .30499269 .03413391 .1659851 .03413391 .1659851 .18112183 .1659851 .22712708 .1659851 .28312684 .1659851 .41311646 .29499818 .41311646 .32998658 .41311646 .34700013 .41011048 .3600006 .40711976 .34199525 .39111329 .33999635 .3701172 .33999635 .3611145 .33999635 .3171234 .375 .29811097 .4019928 .29811097 .43299867 .29811097 .46499635 .3191223 .46499635 .3611145 .46499635 .44711305 .34899903 .453125 .29100038 .453125 .11199951 .45314027 .037994386 .33813478 .037994386 .22213745 .037994386 .08912659 .13198853-.005859375 .28599549-.005859375 .44799806-.005859375 .47799684 .11013794 .47799684 .117126468Z"/>
<path id="font_2_75" d="M.93499758 0V.04699707H.8659973V.30613709C.8659973 .40919496 .8149872 .4501953 .71199038 .4501953 .62098696 .4501953 .56900027 .40019227 .54299929 .3541565 .522995 .44718934 .43099977 .4501953 .3929901 .4501953 .30599977 .4501953 .24899292 .40518189 .21699524 .3421631V.4501953L.04499817 .4423828V.39537049C.10699463 .39537049 .11399841 .39537049 .11399841 .3563385V.04699707H.04499817V0L.17098999 .0029907227 .29699708 0V.04699707H.22799683V.2562256C.22799683 .3653412 .31498719 .41436769 .3769989 .41436769 .41099549 .41436769 .43299867 .39437867 .43299867 .31729127V.04699707H.3639984V0L.48999024 .0029907227 .6159973 0V.04699707H.5469971V.2562256C.5469971 .3653412 .6339874 .41436769 .69599917 .41436769 .7299957 .41436769 .7519989 .39437867 .7519989 .31729127V.04699707H.68299868V0L.8089905 .0029907227 .93499758 0Z"/>
<path id="font_2_86" d="M.33799745 .24998474C.33799745 .37498475 .30499269 .48498536 .2579956 .5679779 .19198609 .6829834 .100997928 .75 .08198547 .75 .07398987 .75 .06399536 .74697878 .06399536 .73599246 .06399536 .73098757 .06399536 .72898867 .08099365 .7129822 .20698548 .5849762 .24099732 .40797425 .24099732 .25097657 .24099732 .053970338 .18998719-.103027347 .07998657-.21403504 .06498718-.22903443 .06399536-.23002625 .06399536-.23503113 .06399536-.24603272 .07398987-.24902344 .08198547-.24902344 .09899902-.24902344 .14099121-.21203614 .15899658-.19502259 .31498719-.040023805 .33799745 .14398194 .33799745 .24998474Z"/>
</defs>
<path transform="matrix(1,0,0,-1.00002,22.385003,203.23778)" stroke-width=".3985" stroke-linecap="butt" stroke-miterlimit="10" stroke-linejoin="miter" fill="none" stroke="#00aeef" d="M19.84311 39.68622H198.4311M19.84311 49.60777H198.4311M19.84311 59.52933H198.4311M19.84311 69.45088H198.4311M19.84311 79.37244H198.4311M19.84311 89.29399H198.4311M19.84311 99.21555H198.4311M19.84311 109.13712H198.4311M19.84311 119.05867H198.4311M19.84311 128.98023H198.4311M19.84311 138.90178H198.4311M19.84311 148.82334H198.4311M19.84311 158.74489H198.4311M19.84311 168.66645H198.4311M19.84311 178.588H198.4311M19.84311 188.50955H198.4311M19.84311 198.42763H198.4311M19.84311 39.68622V198.4311M29.76466 39.68622V198.4311M39.68622 39.68622V198.4311M49.60777 39.68622V198.4311M59.52933 39.68622V198.4311M69.45088 39.68622V198.4311M79.37244 39.68622V198.4311M89.29399 39.68622V198.4311M99.21555 39.68622V198.4311M109.13712 39.68622V198.4311M119.05867 39.68622V198.4311M128.98023 39.68622V198.4311M138.90178 39.68622V198.4311M148.82334 39.68622V198.4311M158.74489 39.68622V198.4311M168.66645 39.68622V198.4311M178.588 39.68622V198.4311M188.50955 39.68622V198.4311M198.42763 39.68622V198.4311M198.4311 198.4311"/>
<path transform="matrix(1,0,0,-1.00002,22.385003,203.23778)" stroke-width=".79701" stroke-linecap="butt" stroke-miterlimit="10" stroke-linejoin="miter" fill="none" stroke="#000000" d="M9.92155 39.68622H198.4311"/>
<path transform="matrix(1,0,0,-1.00002,22.385003,203.23778)" stroke-width=".79701" stroke-linecap="butt" stroke-miterlimit="10" stroke-linejoin="miter" fill="none" stroke="#000000" d="M19.84311 39.68622V198.4311"/>
<path transform="matrix(1,0,0,-1.00002,22.385003,203.23778)" stroke-width=".3985" stroke-linecap="butt" stroke-miterlimit="10" stroke-linejoin="miter" fill="none" stroke="#000000" d="M19.84311 41.17438V38.19788"/>
<path transform="matrix(1,0,0,-1.00002,22.385003,203.23778)" d="M16.35614 27.5931H23.33008V36.00608H16.35614Z" fill="#ffffff"/>
<use data-text="2" xlink:href="#font_1_3" transform="matrix(9.9626,0,0,-9.962799,39.737,174.64821)"/>
<path transform="matrix(1,0,0,-1.00002,22.385003,203.23778)" stroke-width=".3985" stroke-linecap="butt" stroke-miterlimit="10" stroke-linejoin="miter" fill="none" stroke="#000000" d="M39.68622 41.17438V38.19788"/>
<path transform="matrix(1,0,0,-1.00002,22.385003,203.23778)" d="M36.19925 27.5931H43.173189V36.00608H36.19925Z" fill="#ffffff"/>
<use data-text="4" xlink:href="#font_1_4" transform="matrix(9.9626,0,0,-9.962799,59.581,174.64821)"/>
<path transform="matrix(1,0,0,-1.00002,22.385003,203.23778)" stroke-width=".3985" stroke-linecap="butt" stroke-miterlimit="10" stroke-linejoin="miter" fill="none" stroke="#000000" d="M59.52933 41.17438V38.19788"/>
<path transform="matrix(1,0,0,-1.00002,22.385003,203.23778)" d="M56.04236 27.5931H63.016298V36.00608H56.04236Z" fill="#ffffff"/>
<use data-text="6" xlink:href="#font_1_5" transform="matrix(9.9626,0,0,-9.962799,79.424,174.64821)"/>
<path transform="matrix(1,0,0,-1.00002,22.385003,203.23778)" stroke-width=".3985" stroke-linecap="butt" stroke-miterlimit="10" stroke-linejoin="miter" fill="none" stroke="#000000" d="M79.37244 41.17438V38.19788"/>
<path transform="matrix(1,0,0,-1.00002,22.385003,203.23778)" d="M75.88547 27.5931H82.859409V36.00608H75.88547Z" fill="#ffffff"/>
<use data-text="8" xlink:href="#font_1_6" transform="matrix(9.9626,0,0,-9.962799,99.267009,174.64821)"/>
<path transform="matrix(1,0,0,-1.00002,22.385003,203.23778)" stroke-width=".3985" stroke-linecap="butt" stroke-miterlimit="10" stroke-linejoin="miter" fill="none" stroke="#000000" d="M99.21555 41.17438V38.19788"/>
<path transform="matrix(1,0,0,-1.00002,22.385003,203.23778)" d="M93.23787 27.5931H105.19321V36.00608H93.23787Z" fill="#ffffff"/>
<use data-text="1" xlink:href="#font_1_2" transform="matrix(9.9626,0,0,-9.962799,116.619,174.64821)"/>
<use data-text="0" xlink:href="#font_1_1" transform="matrix(9.9626,0,0,-9.962799,121.6003,174.64821)"/>
<path transform="matrix(1,0,0,-1.00002,22.385003,203.23778)" stroke-width=".3985" stroke-linecap="butt" stroke-miterlimit="10" stroke-linejoin="miter" fill="none" stroke="#000000" d="M119.05867 41.17438V38.19788"/>
<path transform="matrix(1,0,0,-1.00002,22.385003,203.23778)" d="M113.081 27.5931H125.03634V36.00608H113.081Z" fill="#ffffff"/>
<use data-text="1" xlink:href="#font_1_2" transform="matrix(9.9626,0,0,-9.962799,136.462,174.64821)"/>
<use data-text="2" xlink:href="#font_1_3" transform="matrix(9.9626,0,0,-9.962799,141.4433,174.64821)"/>
<path transform="matrix(1,0,0,-1.00002,22.385003,203.23778)" stroke-width=".3985" stroke-linecap="butt" stroke-miterlimit="10" stroke-linejoin="miter" fill="none" stroke="#000000" d="M138.90178 41.17438V38.19788"/>
<path transform="matrix(1,0,0,-1.00002,22.385003,203.23778)" d="M132.9241 27.5931H144.87944V36.00608H132.9241Z" fill="#ffffff"/>
<use data-text="1" xlink:href="#font_1_2" transform="matrix(9.9626,0,0,-9.962799,156.305,174.64821)"/>
<use data-text="4" xlink:href="#font_1_4" transform="matrix(9.9626,0,0,-9.962799,161.2863,174.64821)"/>
<path transform="matrix(1,0,0,-1.00002,22.385003,203.23778)" stroke-width=".3985" stroke-linecap="butt" stroke-miterlimit="10" stroke-linejoin="miter" fill="none" stroke="#000000" d="M158.74489 41.17438V38.19788"/>
<path transform="matrix(1,0,0,-1.00002,22.385003,203.23778)" d="M152.76721 27.5931H164.72255V36.00608H152.76721Z" fill="#ffffff"/>
<use data-text="1" xlink:href="#font_1_2" transform="matrix(9.9626,0,0,-9.962799,176.14801,174.64821)"/>
<use data-text="6" xlink:href="#font_1_5" transform="matrix(9.9626,0,0,-9.962799,181.1293,174.64821)"/>
<path transform="matrix(1,0,0,-1.00002,22.385003,203.23778)" stroke-width=".3985" stroke-linecap="butt" stroke-miterlimit="10" stroke-linejoin="miter" fill="none" stroke="#000000" d="M178.588 41.17438V38.19788"/>
<path transform="matrix(1,0,0,-1.00002,22.385003,203.23778)" d="M172.61032 27.5931H184.56566V36.00608H172.61032Z" fill="#ffffff"/>
<use data-text="1" xlink:href="#font_1_2" transform="matrix(9.9626,0,0,-9.962799,195.992,174.64821)"/>
<use data-text="8" xlink:href="#font_1_6" transform="matrix(9.9626,0,0,-9.962799,200.9733,174.64821)"/>
<path transform="matrix(1,0,0,-1.00002,22.385003,203.23778)" stroke-width=".3985" stroke-linecap="butt" stroke-miterlimit="10" stroke-linejoin="miter" fill="none" stroke="#000000" d="M198.4311 41.17438V38.19788"/>
<path transform="matrix(1,0,0,-1.00002,22.385003,203.23778)" d="M192.45343 27.5931H204.40877V36.00608H192.45343Z" fill="#ffffff"/>
<use data-text="2" xlink:href="#font_1_3" transform="matrix(9.9626,0,0,-9.962799,215.83499,174.64821)"/>
<use data-text="0" xlink:href="#font_1_1" transform="matrix(9.9626,0,0,-9.962799,220.8163,174.64821)"/>
<path transform="matrix(1,0,0,-1.00002,22.385003,203.23778)" stroke-width=".3985" stroke-linecap="butt" stroke-miterlimit="10" stroke-linejoin="miter" fill="none" stroke="#000000" d="M21.33127 39.68622H18.35477"/>
<path transform="matrix(1,0,0,-1.00002,22.385003,203.23778)" d="M4.20761 35.47972H16.16295V43.8927H4.20761Z" fill="#ffffff"/>
<use data-text="4" xlink:href="#font_1_4" transform="matrix(9.9626,0,0,-9.962799,27.589005,166.76105)"/>
<use data-text="0" xlink:href="#font_1_1" transform="matrix(9.9626,0,0,-9.962799,32.570306,166.76105)"/>
<path transform="matrix(1,0,0,-1.00002,22.385003,203.23778)" stroke-width=".3985" stroke-linecap="butt" stroke-miterlimit="10" stroke-linejoin="miter" fill="none" stroke="#000000" d="M21.33127 59.52933H18.35477"/>
<path transform="matrix(1,0,0,-1.00002,22.385003,203.23778)" d="M4.20761 55.32283H16.16295V63.73581H4.20761Z" fill="#ffffff"/>
<use data-text="6" xlink:href="#font_1_5" transform="matrix(9.9626,0,0,-9.962799,27.589005,146.91765)"/>
<use data-text="0" xlink:href="#font_1_1" transform="matrix(9.9626,0,0,-9.962799,32.570306,146.91765)"/>
<path transform="matrix(1,0,0,-1.00002,22.385003,203.23778)" stroke-width=".3985" stroke-linecap="butt" stroke-miterlimit="10" stroke-linejoin="miter" fill="none" stroke="#000000" d="M21.33127 79.37244H18.35477"/>
<path transform="matrix(1,0,0,-1.00002,22.385003,203.23778)" d="M4.20761 75.16594H16.16295V83.57892H4.20761Z" fill="#ffffff"/>
<use data-text="8" xlink:href="#font_1_6" transform="matrix(9.9626,0,0,-9.962799,27.589005,127.07425)"/>
<use data-text="0" xlink:href="#font_1_1" transform="matrix(9.9626,0,0,-9.962799,32.570306,127.07425)"/>
<path transform="matrix(1,0,0,-1.00002,22.385003,203.23778)" stroke-width=".3985" stroke-linecap="butt" stroke-miterlimit="10" stroke-linejoin="miter" fill="none" stroke="#000000" d="M21.33127 99.21555H18.35477"/>
<path transform="matrix(1,0,0,-1.00002,22.385003,203.23778)" d="M-.77376 95.00906H16.16296V103.42204H-.77376Z" fill="#ffffff"/>
<use data-text="1" xlink:href="#font_1_2" transform="matrix(9.9626,0,0,-9.962799,22.608002,107.23086)"/>
<use data-text="0" xlink:href="#font_1_1" transform="matrix(9.9626,0,0,-9.962799,27.589303,107.23086)"/>
<use data-text="0" xlink:href="#font_1_1" transform="matrix(9.9626,0,0,-9.962799,32.570604,107.23086)"/>
<path transform="matrix(1,0,0,-1.00002,22.385003,203.23778)" stroke-width=".3985" stroke-linecap="butt" stroke-miterlimit="10" stroke-linejoin="miter" fill="none" stroke="#000000" d="M21.33127 119.05867H18.35477"/>
<path transform="matrix(1,0,0,-1.00002,22.385003,203.23778)" d="M-.77376 114.85217H16.16296V123.26515H-.77376Z" fill="#ffffff"/>
<use data-text="1" xlink:href="#font_1_2" transform="matrix(9.9626,0,0,-9.962799,22.608002,87.38746)"/>
<use data-text="2" xlink:href="#font_1_3" transform="matrix(9.9626,0,0,-9.962799,27.589303,87.38746)"/>
<use data-text="0" xlink:href="#font_1_1" transform="matrix(9.9626,0,0,-9.962799,32.570604,87.38746)"/>
<path transform="matrix(1,0,0,-1.00002,22.385003,203.23778)" stroke-width=".3985" stroke-linecap="butt" stroke-miterlimit="10" stroke-linejoin="miter" fill="none" stroke="#000000" d="M21.33127 138.90178H18.35477"/>
<path transform="matrix(1,0,0,-1.00002,22.385003,203.23778)" d="M-.77376 134.69528H16.16296V143.10826H-.77376Z" fill="#ffffff"/>
<use data-text="1" xlink:href="#font_1_2" transform="matrix(9.9626,0,0,-9.962799,22.608002,67.54306)"/>
<use data-text="4" xlink:href="#font_1_4" transform="matrix(9.9626,0,0,-9.962799,27.589303,67.54306)"/>
<use data-text="0" xlink:href="#font_1_1" transform="matrix(9.9626,0,0,-9.962799,32.570604,67.54306)"/>
<path transform="matrix(1,0,0,-1.00002,22.385003,203.23778)" stroke-width=".3985" stroke-linecap="butt" stroke-miterlimit="10" stroke-linejoin="miter" fill="none" stroke="#000000" d="M21.33127 158.74489H18.35477"/>
<path transform="matrix(1,0,0,-1.00002,22.385003,203.23778)" d="M-.77376 154.53839H16.16296V162.95137H-.77376Z" fill="#ffffff"/>
<use data-text="1" xlink:href="#font_1_2" transform="matrix(9.9626,0,0,-9.962799,22.608002,47.69966)"/>
<use data-text="6" xlink:href="#font_1_5" transform="matrix(9.9626,0,0,-9.962799,27.589303,47.69966)"/>
<use data-text="0" xlink:href="#font_1_1" transform="matrix(9.9626,0,0,-9.962799,32.570604,47.69966)"/>
<path transform="matrix(1,0,0,-1.00002,22.385003,203.23778)" stroke-width=".3985" stroke-linecap="butt" stroke-miterlimit="10" stroke-linejoin="miter" fill="none" stroke="#000000" d="M21.33127 178.588H18.35477"/>
<path transform="matrix(1,0,0,-1.00002,22.385003,203.23778)" d="M-.77376 174.3815H16.16296V182.79448H-.77376Z" fill="#ffffff"/>
<use data-text="1" xlink:href="#font_1_2" transform="matrix(9.9626,0,0,-9.962799,22.608002,27.856263)"/>
<use data-text="8" xlink:href="#font_1_6" transform="matrix(9.9626,0,0,-9.962799,27.589303,27.856263)"/>
<use data-text="0" xlink:href="#font_1_1" transform="matrix(9.9626,0,0,-9.962799,32.570604,27.856263)"/>
<path transform="matrix(1,0,0,-1.00002,22.385003,203.23778)" stroke-width=".3985" stroke-linecap="butt" stroke-miterlimit="10" stroke-linejoin="miter" fill="none" stroke="#000000" d="M21.33127 198.4311H18.35477"/>
<path transform="matrix(1,0,0,-1.00002,22.385003,203.23778)" d="M-.77376 194.22463H16.16296V202.6376H-.77376Z" fill="#ffffff"/>
<use data-text="2" xlink:href="#font_1_3" transform="matrix(9.9626,0,0,-9.962799,22.608002,8.012878)"/>
<use data-text="0" xlink:href="#font_1_1" transform="matrix(9.9626,0,0,-9.962799,27.589303,8.012878)"/>
<use data-text="0" xlink:href="#font_1_1" transform="matrix(9.9626,0,0,-9.962799,32.570604,8.012878)"/>
<path transform="matrix(1,0,0,-1.00002,22.385003,203.23778)" stroke-width="1.19553" stroke-linecap="butt" stroke-miterlimit="10" stroke-linejoin="miter" fill="none" stroke="#ff0000" d="M19.84311 76.16824C19.84311 76.16824 21.85919 79.99428 22.63353 81.34749 23.40787 82.70068 24.64964 84.71829 25.42397 85.92114 26.1983 87.12401 27.44006 88.93382 28.2144 90.01688 28.98874 91.09995 30.23051 92.74203 31.00484 93.72717 31.77917 94.71231 33.02095 96.21425 33.79529 97.11711 34.56961 98.01997 35.81139 99.40137 36.58572 100.2344 37.36006 101.06744 38.60182 102.34555 39.37616 103.12112 40.15048 103.8967 41.39226 105.09926 42.1666 105.82422 42.94093 106.54916 44.18271 107.66745 44.95703 108.34608 45.73137 109.02472 46.97313 110.07663 47.74748 110.71535 48.5218 111.35408 49.76358 112.34642 50.5379 112.94958 51.31226 113.55275 52.554 114.49101 53.32835 115.06255 54.10268 115.63406 55.34445 116.52565 56.11877 117.06879 56.89313 117.61191 58.1349 118.4596 58.90923 118.97707 59.68355 119.49452 60.92532 120.30424 61.69966 120.7983 62.474 121.29236 63.71577 122.06541 64.4901 122.53793 65.26442 123.01044 66.5062 123.75098 67.28055 124.20384 68.05487 124.65668 69.29665 125.36684 70.07097 125.80176 70.84532 126.2367 72.08708 126.92068 72.86142 127.33853 73.63574 127.75638 74.87752 128.41146 75.65184 128.81339 76.4262 129.21532 77.66795 129.84604 78.44229 130.2354 79.21661 130.62477 80.45839 131.24324 81.23273 131.6197 82.00706 131.99619 83.24883 132.58625 84.02316 132.94878 84.7975 133.31133 86.03926 133.88167 86.8136 134.23271 87.58794 134.58377 88.82971 135.13874 89.60403 135.47898 90.37837 135.81922 91.62015 136.3553 92.39449 136.68495 93.16881 137.0146 94.41058 137.53476 95.18492 137.8549 95.95924 138.17507 97.20102 138.68129 97.97536 138.99246 98.7497 139.30362 99.99146 139.79537 100.7658 140.09761 101.54013 140.39986 102.78189 140.87676 103.55623 141.17082 104.33057 141.46489 105.57234 141.93058 106.34666 142.21709 107.121 142.5036 108.36276 142.95668 109.13712 143.2358 109.91144 143.51491 111.15321 143.95659 111.92754 144.22876 112.70186 144.50096 113.94363 144.93216 114.71799 145.19751 115.49231 145.46288 116.73409 145.882 117.5084 146.1413 118.28276 146.40058 119.52452 146.81275 120.29886 147.06629 121.07318 147.31981 122.31496 147.72089 123.08928 147.96857 123.86363 148.21628 125.1054 148.6093 125.87973 148.85149 126.65405 149.09368 127.89583 149.47759 128.67017 149.71411 129.4445 149.95066 130.68628 150.32494 131.4606 150.55629 132.23494 150.78768 133.4767 151.15489 134.25104 151.38169 135.02538 151.60848 136.26715 151.96866 137.04148 152.19087 137.81581 152.41309 139.05759 152.76561 139.83193 152.98325 140.60625 153.20088 141.84803 153.54604 142.62236 153.75943 143.39669 153.97283 144.63846 154.31175 145.4128 154.52123 146.18714 154.73072 147.4289 155.06388 148.20323 155.26924 148.97757 155.47464 150.21933 155.80016 150.99367 156.00153 151.768 156.20291 153.00978 156.52275 153.7841 156.72064 154.55844 156.91852 155.8002 157.23207 156.57456 157.4278 157.34888 157.62352 158.59066 157.93898 159.36498 158.1313 160.13932 158.32363 161.38109 158.62627 162.15543 158.81392 162.92975 159.00157 164.17153 159.29927 164.94586 159.48383 165.7202 159.66838 166.96198 159.96231 167.7363 160.14405 168.51062 160.32578 169.7524 160.61508 170.52674 160.79366 171.30107 160.97223 172.54285 161.25543 173.31717 161.43117 174.0915 161.60689 175.33327 161.88713 176.10762 162.0602 176.88195 162.23326 178.12372 162.50815 178.89804 162.67848 179.6724 162.8488 180.91414 163.12015 181.68849 163.28781 182.46282 163.45548 183.70459 163.72171 184.47891 163.88689 185.25327 164.05204 186.49504 164.31546 187.26937 164.47821 188.04369 164.64096 189.28546 164.89954 190.0598 165.05985 190.83414 165.22019 192.07592 165.47586 192.85024 165.63378 193.62458 165.79169 194.86634 166.04236 195.64069 166.19802 196.41501 166.35369 198.4311 166.75574 198.4311 166.75574"/>
<use data-text="A" xlink:href="#font_2_27" transform="matrix(9.9626,0,0,-9.962799,99.233,190.83054)"/>
<use data-text="g" xlink:href="#font_2_59" transform="matrix(9.9626,0,0,-9.962799,107.8905,190.83054)"/>
<use data-text="e" xlink:href="#font_2_50" transform="matrix(9.9626,0,0,-9.962799,113.618999,190.83054)"/>
<use data-text="i" xlink:href="#font_2_66" transform="matrix(9.9626,0,0,-9.962799,122.68496,190.83054)"/>
<use data-text="n" xlink:href="#font_2_77" transform="matrix(9.9626,0,0,-9.962799,125.86303,190.83054)"/>
<use data-text="Y" xlink:href="#font_2_117" transform="matrix(9.9626,0,0,-9.962799,136.0448,190.83054)"/>
<use data-text="e" xlink:href="#font_2_50" transform="matrix(9.9626,0,0,-9.962799,143.75586,190.83054)"/>
<use data-text="a" xlink:href="#font_2_28" transform="matrix(9.9626,0,0,-9.962799,149.00617,190.83054)"/>
<use data-text="r" xlink:href="#font_2_96" transform="matrix(9.9626,0,0,-9.962799,154.57526,190.83054)"/>
<use data-text="s" xlink:href="#font_2_98" transform="matrix(9.9626,0,0,-9.962799,159.29752,190.83054)"/>
<use data-text="H" xlink:href="#font_2_62" transform="matrix(0,-9.962799,-9.9626,-0,9.007004,114.669)"/>
<use data-text="e" xlink:href="#font_2_50" transform="matrix(0,-9.962799,-9.9626,-0,9.007004,105.702487)"/>
<use data-text="i" xlink:href="#font_2_66" transform="matrix(0,-9.962799,-9.9626,-0,9.007004,100.45209)"/>
<use data-text="g" xlink:href="#font_2_59" transform="matrix(0,-9.962799,-9.9626,-0,9.007004,97.27396)"/>
<use data-text="h" xlink:href="#font_2_63" transform="matrix(0,-9.962799,-9.9626,-0,9.007004,91.54535)"/>
<use data-text="t" xlink:href="#font_2_105" transform="matrix(0,-9.962799,-9.9626,-0,9.007004,85.48796)"/>
<use data-text="(" xlink:href="#font_2_85" transform="matrix(0,-9.962799,-9.9626,-0,9.007004,77.228809)"/>
<use data-text="c" xlink:href="#font_2_43" transform="matrix(0,-9.962799,-9.9626,-0,9.007004,72.77544)"/>
<use data-text="m" xlink:href="#font_2_75" transform="matrix(0,-9.962799,-9.9626,-0,9.007004,67.68443)"/>
<use data-text=")" xlink:href="#font_2_86" transform="matrix(0,-9.962799,-9.9626,-0,9.007004,58.140077)"/>
</svg>
