<svg xmlns="http://www.w3.org/2000/svg" xmlns:xlink="http://www.w3.org/1999/xlink" version="1.1" width="137" height="133" viewBox="0 0 137 133">
<defs>
<path id="font_1_1" d="M.33399964 .30233766C.33999635 .32835389 .36299134 .42037965 .43299867 .42037965 .43798829 .42037965 .46199037 .42037965 .48298646 .40734864 .45498658 .402359 .43499757 .37734986 .43499757 .35334779 .43499757 .33735658 .44599916 .31835938 .47299195 .31835938 .49499513 .31835938 .5269928 .3363495 .5269928 .37635804 .5269928 .42837525 .46798707 .4423828 .43399049 .4423828 .37599183 .4423828 .34098817 .38935853 .32899476 .36634828 .3039856 .43237306 .25 .4423828 .22099304 .4423828 .116989139 .4423828 .05999756 .3133545 .05999756 .28834535 .05999756 .27833558 .069992069 .27833558 .07199097 .27833558 .07998657 .27833558 .08299255 .28033448 .084991458 .28933717 .11898804 .39535523 .18499756 .42037965 .21899414 .42037965 .23799134 .42037965 .272995 .4113617 .272995 .35334779 .272995 .32235719 .2559967 .25532533 .21899414 .11528015 .20298767 .053268434 .16799927 .011245728 .12399292 .011245728 .117996219 .011245728 .09498596 .011245728 .07398987 .024276734 .09899902 .029266358 .12098694 .05027771 .12098694 .07827759 .12098694 .105270389 .09899902 .11328125 .083999637 .11328125 .053985597 .11328125 .0289917 .08728027 .0289917 .055267335 .0289917 .009246826 .07899475-.0107421879 .12298584-.0107421879 .18899536-.0107421879 .22499085 .059280397 .22799683 .0652771 .23999024 .028274537 .27598573-.0107421879 .33599855-.0107421879 .43899537-.0107421879 .49598695 .118270877 .49598695 .14328003 .49598695 .1532898 .4869995 .1532898 .48399354 .1532898 .47499085 .1532898 .47299195 .14929199 .47099305 .14228821 .43798829 .03527832 .36999513 .011245728 .33799745 .011245728 .29899598 .011245728 .2829895 .043273927 .2829895 .07727051 .2829895 .09927368 .2889862 .121276859 .2999878 .16529846L.33399964 .30233766Z"/>
<path id="font_1_2" d="M.48599244 .38136292C.48999024 .39537049 .48999024 .39736939 .48999024 .40437318 .48999024 .42237855 .47599793 .43138124 .46099855 .43138124 .45098878 .43138124 .43499757 .42536927 .42599488 .41036988 .42399598 .405365 .41600038 .37435914 .4119873 .35635377 .40499879 .33035279 .397995 .30334474 .3919983 .27633668L.34700013 .09628296C.34298707 .08126831 .2999878 .011245728 .23399353 .011245728 .18299866 .011245728 .17199707 .055267335 .17199707 .0922699 .17199707 .1382904 .18899536 .20030213 .22299195 .28833009 .23899842 .3293457 .24299622 .3403473 .24299622 .36035157 .24299622 .405365 .21099854 .4423828 .16099549 .4423828 .06599426 .4423828 .0289917 .29733277 .0289917 .28833009 .0289917 .27833558 .038986207 .27833558 .040985109 .27833558 .050994874 .27833558 .051986696 .28033448 .056991579 .29634095 .083999637 .3903656 .12399292 .42037965 .1579895 .42037965 .1659851 .42037965 .18299866 .42037965 .18299866 .3883667 .18299866 .36335755 .17298889 .3373413 .1659851 .31834413 .12599182 .21231079 .10798645 .1552887 .10798645 .10827637 .10798645 .019256592 .17098999-.0107421879 .22999573-.0107421879 .2689972-.0107421879 .30299378 .0062561037 .33099366 .03425598 .31799317-.017745972 .30599977-.06674194 .2659912-.11973572 .23999024-.15385437 .20199585-.18309021 .1559906-.18309021 .14199829-.18309021 .09700012-.18005371 .07998657-.14074707 .09599304-.14074707 .10899353-.14074707 .12298584-.1287384 .1329956-.11973572 .14299011-.10673523 .14299011-.08773804 .14299011-.056747438 .115997318-.052734376 .10598755-.052734376 .08299255-.052734376 .049987794-.068740848 .049987794-.11773682 .049987794-.16796875 .09399414-.20507813 .1559906-.20507813 .25898744-.20507813 .3619995-.11373901 .3899994-.00074768069L.48599244 .38136292Z"/>
<path id="font_2_1" d="M.6589966 .23046875C.6759949 .23046875 .69400027 .23046875 .69400027 .25045777 .69400027 .27046205 .6759949 .27046205 .6589966 .27046205H.117996219C.100997928 .27046205 .08299255 .27046205 .08299255 .25045777 .08299255 .23046875 .100997928 .23046875 .117996219 .23046875H.6589966Z"/>
<path id="font_3_3" d="M.44898988 .20022583C.44898988 .3193512 .36698915 .41944886 .25898744 .41944886 .21099854 .41944886 .16799927 .40345765 .13198853 .36842347V.5637665C.1519928 .5577698 .18499756 .55078127 .21699524 .55078127 .33999635 .55078127 .4099884 .6417694 .4099884 .6547699 .4099884 .6607666 .40699769 .6657715 .3999939 .6657715 .39898683 .6657715 .39698792 .6657715 .3919983 .66278079 .37199403 .6537781 .32299806 .6337738 .2559967 .6337738 .21598816 .6337738 .16999817 .6407776 .12298584 .6617737 .114990238 .66477969 .11299133 .66477969 .11099243 .66477969 .100997928 .66477969 .100997928 .6567688 .100997928 .6407776V.34439088C.100997928 .32637025 .100997928 .31835938 .114990238 .31835938 .12199402 .31835938 .12399292 .32136537 .12799073 .32736207 .13899231 .3433838 .17599488 .39746095 .25698854 .39746095 .30899049 .39746095 .33399964 .35139466 .34199525 .33337403 .35798646 .29632569 .3600006 .25727845 .3600006 .20722962 .3600006 .17222595 .3600006 .11222839 .33599855 .07035828 .31199647 .031463624 .2749939 .0055389406 .22898865 .0055389406 .1559906 .0055389406 .09899902 .058380128 .08198547 .11723328 .084991458 .1162262 .08799744 .115234378 .09899902 .115234378 .13198853 .115234378 .14898682 .14022827 .14898682 .16423035 .14898682 .18823242 .13198853 .21322632 .09899902 .21322632 .084991458 .21322632 .049987794 .20622254 .049987794 .16023255 .049987794 .07434082 .11898804-.022460938 .23098755-.022460938 .34700013-.022460938 .44898988 .073349 .44898988 .20022583Z"/>
<path id="font_3_2" d="M.2939911 .64004519C.2939911 .66400149 .2939911 .6660156 .2709961 .6660156 .20899964 .60227969 .12098694 .60227969 .08898926 .60227969V.57128909C.10899353 .57128909 .16799927 .57128909 .21998596 .5972748V.07902527C.21998596 .042999269 .21699524 .0309906 .1269989 .0309906H.09498596V0C.12998963 .0029907227 .21699524 .0029907227 .25698854 .0029907227 .29699708 .0029907227 .38398744 .0029907227 .4189911 0V.0309906H.3869934C.29699708 .0309906 .2939911 .041992189 .2939911 .07902527V.64004519Z"/>
<path id="font_3_1" d="M.45999146 .31976319C.45999146 .39982606 .45498658 .47988893 .41999818 .5539398 .37399293 .65000918 .2919922 .6660156 .25 .6660156 .18998719 .6660156 .116989139 .64001467 .07598877 .54693606 .04399109 .47789 .038986207 .39982606 .038986207 .31976319 .038986207 .24472046 .042999269 .15464783 .083999637 .07859802 .1269989-.0024719239 .19999695-.022460938 .24899292-.022460938 .30299378-.022460938 .3789978-.0014648438 .4229889 .09359741 .45498658 .16265869 .45999146 .2407074 .45999146 .31976319M.24899292-.00047302247C.20999146-.00047302247 .15098572 .024551392 .1329956 .12062073 .12199402 .18066406 .12199402 .2727356 .12199402 .3317871 .12199402 .39582826 .12199402 .46188355 .12998963 .5159149 .14898682 .63500979 .22399903 .64401248 .24899292 .64401248 .28199769 .64401248 .34799195 .6259918 .36698915 .52693179 .3769989 .47088624 .3769989 .39482118 .3769989 .3317871 .3769989 .25672914 .3769989 .18867493 .3659973 .12461853 .35099793 .029556275 .2939911-.00047302247 .24899292-.00047302247Z"/>
<path id="font_4_85" d="M.33099366-.2400055C.33099366-.23701477 .33099366-.23500061 .31399537-.21800232 .18899536-.0920105 .15699768 .09700012 .15699768 .25 .15699768 .42399598 .19499207 .59799197 .31799317 .72299197 .33099366 .7350006 .33099366 .7369995 .33099366 .73999026 .33099366 .746994 .32699586 .75 .32099916 .75 .31098939 .75 .22099304 .6819916 .1619873 .5549927 .11099243 .44499208 .09899902 .33399964 .09899902 .25 .09899902 .17199707 .10998535 .050994874 .16499329-.06201172 .22499085-.18501282 .31098939-.25 .32099916-.25 .32699586-.25 .33099366-.24700928 .33099366-.2400055Z"/>
<path id="font_4_106" d="M.45700074 .17037964C.45700074 .252594 .3939972 .33088685 .2899933 .35191346 .37199403 .37893678 .42999269 .4490509 .42999269 .52809146 .42999269 .6100464 .34199525 .6660156 .24598694 .6660156 .14498902 .6660156 .068984989 .60606387 .068984989 .53009036 .068984989 .49710084 .09098816 .47808839 .11999512 .47808839 .15098572 .47808839 .17098999 .50009158 .17098999 .5290985 .17098999 .57910159 .12399292 .57910159 .10899353 .57910159 .13999939 .62802127 .20599365 .64100649 .24198914 .64100649 .2829895 .64100649 .33799745 .6190338 .33799745 .5290985 .33799745 .51708987 .33599855 .45906068 .30999757 .4149933 .27999879 .36691285 .24598694 .36390687 .22099304 .36291505 .21299744 .36190797 .18899536 .35990907 .18199158 .35990907 .17399597 .35890199 .16699219 .35791017 .16699219 .3479004 .16699219 .33691407 .17399597 .33691407 .19099427 .33691407H.23498535C.31698609 .33691407 .35398866 .2686615 .35398866 .17037964 .35398866 .034469606 .2849884 .0055389406 .24099732 .0055389406 .19799805 .0055389406 .12298584 .022491456 .08799744 .08137512 .12298584 .07637024 .1539917 .09837341 .1539917 .1363678 .1539917 .17237854 .1269989 .19238281 .09799194 .19238281 .07398987 .19238281 .041992189 .17837525 .041992189 .1343689 .041992189 .043441774 .1349945-.022460938 .24398804-.022460938 .3659973-.022460938 .45700074 .06838989 .45700074 .17037964Z"/>
<path id="font_4_45" d="M.20298767 .0009918213C.20298767 .06498718 .1789856 .10598755 .13899231 .10598755 .10398865 .10598755 .085998538 .07899475 .085998538 .052993776 .085998538 .026992798 .102996829 0 .13899231 0 .1539917 0 .16799927 .005996704 .1789856 .015991211 .18099976-.06312561 .15299988-.12423706 .10899353-.17132569 .102996829-.17733765 .101989749-.17834473 .101989749-.18234253 .101989749-.18936157 .10699463-.19335938 .11199951-.19335938 .12399292-.19335938 .20298767-.114227298 .20298767 .0009918213Z"/>
<path id="font_4_82" d="M.4189911 0V.0309906H.3869934C.29699708 .0309906 .2939911 .041992189 .2939911 .07902527V.64012148C.2939911 .6640167 .2939911 .6660156 .2709961 .6660156 .20899964 .60227969 .12098694 .60227969 .08898926 .60227969V.57128909C.10899353 .57128909 .16799927 .57128909 .21998596 .5972748V.07902527C.21998596 .042999269 .21699524 .0309906 .1269989 .0309906H.09498596V0C.12998963 .0029907227 .21699524 .0029907227 .25698854 .0029907227 .29699708 .0029907227 .38398744 .0029907227 .4189911 0Z"/>
<path id="font_4_107" d="M.44898988 .17396546H.42399598C.4189911 .14398194 .4119873 .099990848 .4019928 .084991458 .394989 .07699585 .32899476 .07699585 .30699159 .07699585H.1269989L.23298645 .17996216C.3889923 .31803895 .44898988 .37210084 .44898988 .47216798 .44898988 .5860901 .35899354 .6660156 .23699951 .6660156 .12399292 .6660156 .049987794 .57411196 .049987794 .48516847 .049987794 .4291687 .099990848 .4291687 .102996829 .4291687 .11999512 .4291687 .15499878 .44117738 .15499878 .48217774 .15499878 .5081787 .13699341 .5341797 .101989749 .5341797 .09399414 .5341797 .09199524 .5341797 .08898926 .5331726 .11199951 .59806826 .1659851 .63500979 .22399903 .63500979 .31498719 .63500979 .35798646 .5541382 .35798646 .47216798 .35798646 .39196778 .30799867 .31297303 .25299073 .25097657L.06098938 .036987306C.049987794 .025985718 .049987794 .023986817 .049987794 0H.42099L.44898988 .17396546Z"/>
<path id="font_4_88" d="M.19198609 .052993776C.19198609 .08198547 .16799927 .10598755 .13899231 .10598755 .10998535 .10598755 .085998538 .08198547 .085998538 .052993776 .085998538 .023986817 .10998535 0 .13899231 0 .16799927 0 .19198609 .023986817 .19198609 .052993776Z"/>
<path id="font_4_56" d="M.44898988 .20091248C.44898988 .31991578 .36698915 .41992188 .25898744 .41992188 .21099854 .41992188 .16799927 .4039154 .13198853 .36891175V.5641022C.1519928 .55778506 .18499756 .55078127 .21699524 .55078127 .33999635 .55078127 .4099884 .6418457 .4099884 .65493777 .4099884 .6609802 .40699769 .6660156 .3999939 .6660156 .3999939 .66607668 .39698792 .66607668 .3919983 .66308596 .37199403 .65408328 .32299806 .63378909 .2559967 .63378909 .21598816 .63409426 .16999817 .641098 .12298584 .6621094 .114990238 .6651001 .11099243 .6651001 .11099243 .6651001 .100997928 .66508486 .100997928 .657074 .100997928 .64108279V.3447113C.100997928 .3266449 .100997928 .31861878 .114990238 .31861878 .12199402 .31861878 .12399292 .32164 .12799073 .32765199 .13899231 .34371949 .17599488 .3979187 .25698854 .3979187 .30899049 .3979187 .33399964 .3517456 .34199525 .3336792 .35798646 .2965393 .3600006 .2574005 .3600006 .20721436 .3600006 .17218018 .3600006 .112197879 .33599855 .07032776 .31199647 .031448366 .2749939 .0055389406 .22898865 .0055389406 .1559906 .0055389406 .09899902 .05836487 .08198547 .1171875 .084991458 .11685181 .08799744 .115859989 .09899902 .115859989 .13198853 .115859989 .14898682 .14085388 .14898682 .16485596 .14898682 .18885803 .13198853 .21386719 .09899902 .21386719 .084991458 .21386719 .049987794 .2068634 .049987794 .16085816 .049987794 .07432556 .11898804-.022460938 .23098755-.022460938 .34700013-.022460938 .44898988 .07331848 .44898988 .20019531V.20091248Z"/>
<path id="font_4_86" d="M.2889862 .25C.2889862 .32798768 .27799989 .44898988 .22299195 .56199648 .16299439 .68499758 .07699585 .75 .066986087 .75 .06098938 .75 .056991579 .74598696 .056991579 .73999026 .056991579 .7369995 .056991579 .7350006 .07598877 .71699526 .17399597 .6179962 .23098755 .45899964 .23098755 .25 .23098755 .07899475 .19400025-.09700012 .069992069-.2230072 .056991579-.23500061 .056991579-.23701477 .056991579-.2400055 .056991579-.2460022 .06098938-.25 .066986087-.25 .07699585-.25 .16699219-.18200684 .22599793-.055007936 .2769928 .054992677 .2889862 .16600037 .2889862 .25Z"/>
<path id="font_4_64" d="M.27598573 .18710327V.24511719H.010986328V.18710327H.27598573Z"/>
<path id="font_4_121" d="M.45999146 .31976319C.45999146 .39982606 .45498658 .47988893 .41999818 .5539398 .37399293 .65000918 .2919922 .6660156 .25 .6660156 .18998719 .6660156 .116989139 .64001467 .07598877 .54693606 .04399109 .47789 .038986207 .39982606 .038986207 .31976319 .038986207 .24472046 .042999269 .15464783 .083999637 .07859802 .1269989-.0024719239 .19999695-.022460938 .24899292-.022460938 .30299378-.022460938 .3789978-.0014648438 .4229889 .09359741 .45498658 .16265869 .45999146 .2407074 .45999146 .31976319M.3769989 .3317871C.3769989 .25672914 .3769989 .18867493 .3659973 .12461853 .35099793 .029556275 .2939911-.00047302247 .24899292-.00047302247 .20999146-.00047302247 .15098572 .024551392 .1329956 .12062073 .12199402 .18066406 .12199402 .2727356 .12199402 .3317871 .12199402 .39582826 .12199402 .46188355 .12998963 .5159149 .14898682 .63500979 .22399903 .64401248 .24899292 .64401248 .28199769 .64401248 .34799195 .6259918 .36698915 .52693179 .3769989 .47088624 .3769989 .39482118 .3769989 .3317871Z"/>
</defs>
<path transform="matrix(1.00002,0,0,-1.00008,63.274995,100.31298)" stroke-width=".3985" stroke-linecap="butt" stroke-miterlimit="10" stroke-linejoin="miter" fill="none" stroke="#00aeef" d="M-56.69275-28.34636H56.69275M-56.69275-22.6771H56.69275M-56.69275-17.00781H56.69275M-56.69275-11.33855H56.69275M-56.69275-5.66927H56.69275M-56.69275 0H56.69275M-56.69275 5.66927H56.69275M-56.69275 11.33855H56.69275M-56.69275 17.00781H56.69275M-56.69275 22.6771H56.69275M-56.69275 28.34636H56.69275M-56.69275 34.01564H56.69275M-56.69275 39.6849H56.69275M-56.69275 45.35419H56.69275M-56.69275 51.02345H56.69275M-56.69275 56.69275H56.69275M-56.69275 62.36201H56.69275M-56.69275 68.0313H56.69275M-56.69275 73.70056H56.69275M-56.69275 79.36984H56.69275M-56.69275 85.03712H56.69275M-56.69275-28.34636V85.03911M-45.35419-28.34636V85.03911M-34.01564-28.34636V85.03911M-22.6771-28.34636V85.03911M-11.33855-28.34636V85.03911M0-28.34636V85.03911M11.33855-28.34636V85.03911M22.6771-28.34636V85.03911M34.01564-28.34636V85.03911M45.35419-28.34636V85.03911M56.68877-28.34636V85.03911M56.69275 85.03911"/>
<path transform="matrix(1.00002,0,0,-1.00008,63.274995,100.31298)" stroke-width=".79701" stroke-linecap="butt" stroke-miterlimit="10" stroke-linejoin="miter" fill="none" stroke="#000000" d="M-56.69275 0H62.06133"/>
<path transform="matrix(1.00002,0,0,-1.00008,125.33757,100.31298)" d="M1.0361 0C-.25902 .25902-1.55415 .77707-3.1083 1.68365-1.55415 .51805-1.55415-.51805-3.1083-1.68365-1.55415-.77707-.25902-.25902 1.0361 0Z"/>
<path transform="matrix(1.00002,0,0,-1.00008,125.33757,100.31298)" stroke-width=".79701" stroke-linecap="butt" stroke-linejoin="round" fill="none" stroke="#000000" d="M1.0361 0C-.25902 .25902-1.55415 .77707-3.1083 1.68365-1.55415 .51805-1.55415-.51805-3.1083-1.68365-1.55415-.77707-.25902-.25902 1.0361 0Z"/>
<use data-text="x" xlink:href="#font_1_1" transform="matrix(9.962799,0,0,-9.963397,130.49134,102.45815)"/>
<path transform="matrix(1.00002,0,0,-1.00008,63.274995,100.31298)" stroke-width=".79701" stroke-linecap="butt" stroke-miterlimit="10" stroke-linejoin="miter" fill="none" stroke="#000000" d="M0-28.34636V87.0061"/>
<path transform="matrix(0,-1.00008,-1.00002,-0,63.274995,13.299919)" d="M1.0361 0C-.25902 .25902-1.55415 .77707-3.1083 1.68365-1.55415 .51805-1.55415-.51805-3.1083-1.68365-1.55415-.77707-.25902-.25902 1.0361 0Z"/>
<path transform="matrix(0,-1.00008,-1.00002,-0,63.274995,13.299919)" stroke-width=".79701" stroke-linecap="butt" stroke-linejoin="round" fill="none" stroke="#000000" d="M1.0361 0C-.25902 .25902-1.55415 .77707-3.1083 1.68365-1.55415 .51805-1.55415-.51805-3.1083-1.68365-1.55415-.77707-.25902-.25902 1.0361 0Z"/>
<use data-text="y" xlink:href="#font_1_2" transform="matrix(9.962799,0,0,-9.963397,60.65394,6.2084505)"/>
<path transform="matrix(1.00002,0,0,-1.00008,63.274995,100.31298)" stroke-width=".3985" stroke-linecap="butt" stroke-miterlimit="10" stroke-linejoin="miter" fill="none" stroke="#000000" d="M-56.69275 .45352V-.45354"/>
<use data-text="&#x2212;" xlink:href="#font_2_1" transform="matrix(9.962799,0,0,-9.963397,.21572876,110.70781)"/>
<use data-text="5" xlink:href="#font_3_3" transform="matrix(9.962799,0,0,-9.963397,7.9648745,110.70781)"/>
<path transform="matrix(1.00002,0,0,-1.00008,63.274995,100.31298)" stroke-width=".3985" stroke-linecap="butt" stroke-miterlimit="10" stroke-linejoin="miter" fill="none" stroke="#000000" d="M56.69275 .45352V-.45354"/>
<use data-text="5" xlink:href="#font_3_3" transform="matrix(9.962799,0,0,-9.963397,117.47808,110.70781)"/>
<path transform="matrix(1.00002,0,0,-1.00008,63.274995,100.31298)" stroke-width=".3985" stroke-linecap="butt" stroke-miterlimit="10" stroke-linejoin="miter" fill="none" stroke="#000000" d="M.90707-28.34636H-.90709"/>
<use data-text="&#x2212;" xlink:href="#font_2_1" transform="matrix(9.962799,0,0,-9.963397,46.117654,131.45648)"/>
<use data-text="5" xlink:href="#font_3_3" transform="matrix(9.962799,0,0,-9.963397,53.8668,131.45648)"/>
<path transform="matrix(1.00002,0,0,-1.00008,63.274995,100.31298)" stroke-width=".3985" stroke-linecap="butt" stroke-miterlimit="10" stroke-linejoin="miter" fill="none" stroke="#000000" d="M.90707 28.34636H-.90709"/>
<use data-text="5" xlink:href="#font_3_3" transform="matrix(9.962799,0,0,-9.963397,53.866807,75.17497)"/>
<path transform="matrix(1.00002,0,0,-1.00008,63.274995,100.31298)" stroke-width=".3985" stroke-linecap="butt" stroke-miterlimit="10" stroke-linejoin="miter" fill="none" stroke="#000000" d="M.90707 56.69275H-.90709"/>
<use data-text="1" xlink:href="#font_3_2" transform="matrix(9.962799,0,0,-9.963397,48.884706,46.825704)"/>
<use data-text="0" xlink:href="#font_3_1" transform="matrix(9.962799,0,0,-9.963397,53.86609,46.825704)"/>
<path transform="matrix(1.00002,0,0,-1.00008,63.274995,100.31298)" stroke-width=".3985" stroke-linecap="butt" stroke-miterlimit="10" stroke-linejoin="miter" fill="none" stroke="#000000" d="M.90707 85.03911H-.90709"/>
<use data-text="1" xlink:href="#font_3_2" transform="matrix(9.962799,0,0,-9.963397,48.884706,18.477433)"/>
<use data-text="5" xlink:href="#font_3_3" transform="matrix(9.962799,0,0,-9.963397,53.86609,18.477433)"/>
<path transform="matrix(1.00002,0,0,-1.00008,63.274995,100.31298)" stroke-width="1.19553" stroke-linecap="butt" stroke-miterlimit="10" stroke-linejoin="miter" fill="none" stroke="#ff0000" d="M-26.96928-27.07819C-26.50604-23.54192-26.50604-23.54192-26.23474-21.591-25.96344-19.64008-25.52835-16.65427-25.25705-14.8744-24.98575-13.09453-24.55066-10.37787-24.27934-8.76299-24.00806-7.1481-23.57295-4.69133-23.30167-3.2354-23.03035-1.7795-22.59528 .42719-22.32396 1.7302-22.05267 3.03322-21.61757 4.9996-21.34628 6.15578-21.07497 7.31194-20.6399 9.04764-20.36858 10.063-20.09727 11.07837-19.66219 12.59322-19.39087 13.47386-19.11958 14.35448-18.6845 15.65807-18.4132 16.40997-18.14188 17.16187-17.7068 18.26385-17.43549 18.89313-17.1642 19.5224-16.7291 20.43262-16.45781 20.94531-16.1865 21.45801-15.7514 22.18619-15.4801 22.58832-15.2088 22.99048-14.77371 23.54607-14.50243 23.8437-14.23111 24.14134-13.79602 24.5343-13.52472 24.7335-13.25342 24.93272-12.81833 25.17268-12.54703 25.27954-12.27573 25.38638-11.84064 25.4831-11.56932 25.50359-11.29802 25.52408-10.86295 25.48708-10.59163 25.42729-10.32034 25.36751-9.88524 25.2067-9.61395 25.07271-9.34264 24.9387-8.90755 24.66373-8.63625 24.46155-8.36494 24.25935-7.92986 23.8798-7.65855 23.61551-7.38725 23.35121-6.95216 22.87697-6.68086 22.55658-6.40956 22.2362-5.97447 21.67682-5.70317 21.3064-5.43187 20.93597-4.99678 20.30121-4.72546 19.88683-4.45418 19.47243-4.01907 18.77205-3.74779 18.31976-3.47647 17.86748-3.0414 17.11118-2.77008 16.627-2.4988 16.14285-2.06369 15.34027-1.7924 14.83026-1.52109 14.32027-1.086 13.48105-.8147 12.95128-.54338 12.4215-.1083 11.55553 .16296 11.01207 .43427 10.4686 .86935 9.5854 1.14066 9.03427 1.41196 8.48314 1.84705 7.5926 2.11835 7.03986 2.38965 6.48712 2.82474 5.59877 3.09604 5.05049 3.36734 4.50218 3.80243 3.62589 4.07375 3.08809 4.34503 2.55028 4.78014 1.69557 5.05142 1.1743 5.32274 .65305 5.75781-.17018 6.02913-.66885 6.30042-1.16753 6.73552-1.9497 7.0068-2.41974 7.27812-2.88977 7.71321-3.6212 7.98451-4.05652 8.25583-4.49185 8.6909-5.16277 8.96222-5.55731 9.2335-5.95189 9.66861-6.55249 9.9399-6.90025 10.21121-7.248 10.64629-7.76883 10.9176-8.06375 11.18889-8.35867 11.624-8.78986 11.89528-9.02588 12.1666-9.26189 12.60167-9.59377 12.87299-9.76482 13.14429-9.93585 13.57938-10.15865 13.85066-10.25868 14.12198-10.35872 14.55707-10.46286 14.82837-10.48584 15.09967-10.50883 15.53476-10.48447 15.80606-10.42433 16.07736-10.36421 16.51245-10.20181 16.78375-10.05254 17.05507-9.90324 17.49014-9.59288 17.76146-9.34837 18.03275-9.10387 18.46785-8.63599 18.73915-8.29022 19.01045-7.94446 19.44554-7.30937 19.71684-6.8563 19.98814-6.40321 20.42323-5.59114 20.69453-5.0247 20.96584-4.45825 21.40092-3.4596 21.67223-2.77371 21.94353-2.08784 22.37862-.89273 22.64992-.08139 22.92122 .72993 23.35631 2.13101 23.62762 3.0739 23.89891 4.01678 24.334 5.6338 24.6053 6.71425 24.87662 7.79471 25.31169 9.63704 25.58301 10.8611 25.8543 12.08517 26.2894 14.16275 26.56068 15.5365 26.832 16.91026 27.26709 19.23268 27.53839 20.76219 27.80971 22.29169 28.24478 24.86879 28.51608 26.5601 28.78738 28.25139 29.22249 31.09282 29.49377 32.95195 29.76509 34.81108 30.20016 37.9264 30.47148 39.9594 30.74277 41.99239 31.17787 45.39139 31.44917 47.60431 31.72047 49.81721 32.15555 53.50963 32.42686 55.90855 32.69815 58.30748 33.13326 62.30309 33.40454 64.89404 33.67586 67.48503 34.11095 71.79341 34.38225 74.58249 34.65355 77.37157 35.35994 84.99577 35.18713 83.13089"/>
<path transform="matrix(-.1298226,.99156937,.99150988,.12983039,36.305185,127.39332)" d="M1.27522 0C-.31879 .31879-1.91284 .9564-3.8257 2.07224-1.91284 .6376-1.91284-.6376-3.8257-2.07224-1.91284-.9564-.31879-.31879 1.27522 0Z" fill="#ff0000"/>
<path transform="matrix(-.1298226,.99156937,.99150988,.12983039,36.305185,127.39332)" stroke-width="1.19553" stroke-linecap="butt" stroke-linejoin="round" fill="none" stroke="#ff0000" d="M1.27522 0C-.31879 .31879-1.91284 .9564-3.8257 2.07224-1.91284 .6376-1.91284-.6376-3.8257-2.07224-1.91284-.9564-.31879-.31879 1.27522 0Z"/>
<path transform="matrix(.09227185,-.9957596,-.99569997,-.092277389,98.46283,17.17546)" d="M1.27522 0C-.31879 .31879-1.91284 .9564-3.8257 2.07224-1.91284 .6376-1.91284-.6376-3.8257-2.07224-1.91284-.9564-.31879-.31879 1.27522 0Z" fill="#ff0000"/>
<path transform="matrix(.09227185,-.9957596,-.99569997,-.092277389,98.46283,17.17546)" stroke-width="1.19553" stroke-linecap="butt" stroke-linejoin="round" fill="none" stroke="#ff0000" d="M1.27522 0C-.31879 .31879-1.91284 .9564-3.8257 2.07224-1.91284 .6376-1.91284-.6376-3.8257-2.07224-1.91284-.9564-.31879-.31879 1.27522 0Z"/>
<path transform="matrix(1.00002,0,0,-1.00008,63.274995,100.31298)" d="M35.71634 70.86594C35.71634 71.80527 34.95493 72.56673 34.01564 72.56673 33.07635 72.56673 32.31493 71.80527 32.31493 70.86594 32.31493 69.9266 33.07635 69.16513 34.01564 69.16513 34.95493 69.16513 35.71634 69.9266 35.71634 70.86594ZM34.01564 70.86594" fill="#0000ff"/>
<path transform="matrix(1.00002,0,0,-1.00008,63.274995,100.31298)" stroke-width=".3985" stroke-linecap="butt" stroke-miterlimit="10" stroke-linejoin="miter" fill="none" stroke="#0000ff" d="M35.71634 70.86594C35.71634 71.80527 34.95493 72.56673 34.01564 72.56673 33.07635 72.56673 32.31493 71.80527 32.31493 70.86594 32.31493 69.9266 33.07635 69.16513 34.01564 69.16513 34.95493 69.16513 35.71634 69.9266 35.71634 70.86594ZM34.01564 70.86594"/>
<path transform="matrix(1.00002,0,0,-1.00008,63.274995,100.31298)" d="M37.20372 65.88457H70.419589V75.847309H37.20372Z" fill="#ffffff"/>
<use data-text="(" xlink:href="#font_4_85" transform="matrix(9.962799,0,0,-9.963397,100.47974,31.93251)" fill="#0000ff"/>
<use data-text="3" xlink:href="#font_4_106" transform="matrix(9.962799,0,0,-9.963397,104.35527,31.93251)" fill="#0000ff"/>
<use data-text="," xlink:href="#font_4_45" transform="matrix(9.962799,0,0,-9.963397,109.33667,31.93251)" fill="#0000ff"/>
<use data-text="1" xlink:href="#font_4_82" transform="matrix(9.962799,0,0,-9.963397,112.10632,31.93251)" fill="#0000ff"/>
<use data-text="2" xlink:href="#font_4_107" transform="matrix(9.962799,0,0,-9.963397,117.08772,31.93251)" fill="#0000ff"/>
<use data-text="." xlink:href="#font_4_88" transform="matrix(9.962799,0,0,-9.963397,122.06911,31.93251)" fill="#0000ff"/>
<use data-text="5" xlink:href="#font_4_56" transform="matrix(9.962799,0,0,-9.963397,124.838779,31.93251)" fill="#0000ff"/>
<use data-text=")" xlink:href="#font_4_86" transform="matrix(9.962799,0,0,-9.963397,129.82016,31.93251)" fill="#0000ff"/>
<path transform="matrix(1.00002,0,0,-1.00008,63.274995,100.31298)" d="M-20.97638 0C-20.97638 .93932-21.73781 1.70079-22.6771 1.70079-23.61638 1.70079-24.37779 .93932-24.37779 0-24.37779-.93932-23.61638-1.70079-22.6771-1.70079-21.73781-1.70079-20.97638-.93932-20.97638 0ZM-22.6771 0" fill="#0000ff"/>
<path transform="matrix(1.00002,0,0,-1.00008,63.274995,100.31298)" stroke-width=".3985" stroke-linecap="butt" stroke-miterlimit="10" stroke-linejoin="miter" fill="none" stroke="#0000ff" d="M-20.97638 0C-20.97638 .93932-21.73781 1.70079-22.6771 1.70079-23.61638 1.70079-24.37779 .93932-24.37779 0-24.37779-.93932-23.61638-1.70079-22.6771-1.70079-21.73781-1.70079-20.97638-.93932-20.97638 0ZM-22.6771 0"/>
<path transform="matrix(1.00002,0,0,-1.00008,63.274995,100.31298)" d="M-49.66621 3.18808H-25.865181V13.15082H-49.66621Z" fill="#ffffff"/>
<use data-text="(" xlink:href="#font_4_85" transform="matrix(9.962799,0,0,-9.963397,13.608002,94.63353)" fill="#0000ff"/>
<use data-text="-" xlink:href="#font_4_64" transform="matrix(9.962799,0,0,-9.963397,17.483536,94.63353)" fill="#0000ff"/>
<use data-text="2" xlink:href="#font_4_107" transform="matrix(9.962799,0,0,-9.963397,20.801148,94.63353)" fill="#0000ff"/>
<use data-text="," xlink:href="#font_4_45" transform="matrix(9.962799,0,0,-9.963397,25.782547,94.63353)" fill="#0000ff"/>
<use data-text="0" xlink:href="#font_4_121" transform="matrix(9.962799,0,0,-9.963397,28.552216,94.63353)" fill="#0000ff"/>
<use data-text=")" xlink:href="#font_4_86" transform="matrix(9.962799,0,0,-9.963397,33.5336,94.63353)" fill="#0000ff"/>
</svg>
