<svg xmlns="http://www.w3.org/2000/svg" xmlns:xlink="http://www.w3.org/1999/xlink" version="1.1" width="123" height="128" viewBox="0 0 123 128">
<defs>
<path id="font_1_2" d="M.20599365 .3996582H.2999878C.31999208 .3996582 .32998658 .3996582 .32998658 .41966249 .32998658 .43066407 .31999208 .43066407 .3019867 .43066407H.21398926C.25 .5724945 .25498963 .59246829 .25498963 .59846499 .25498963 .61546328 .24299622 .62545779 .22599793 .62545779 .22299195 .62545779 .19499207 .62446597 .18598938 .58947756L.14698792 .43066407H.052993776C.032989503 .43066407 .022994996 .43066407 .022994996 .4116516 .022994996 .3996582 .0309906 .3996582 .050994874 .3996582H.13899231C.066986087 .11608887 .06298828 .099121097 .06298828 .08114624 .06298828 .02722168 .100997928-.0107421879 .15499878-.0107421879 .25698854-.0107421879 .31399537 .13505554 .31399537 .14305115 .31399537 .1530304 .30599977 .1530304 .3019867 .1530304 .29299928 .1530304 .2919922 .15003968 .2869873 .13905335 .24398804 .035217287 .19099427 .011245728 .15699768 .011245728 .13598633 .011245728 .12599182 .024230957 .12599182 .057174684 .12599182 .08114624 .12799073 .088134769 .13198853 .10510254L.20599365 .3996582Z"/>
<path id="font_1_1" d="M.5159912 .68333438C.5159912 .6843262 .5159912 .69433596 .5029907 .69433596 .48799134 .69433596 .3929901 .68533328 .37599183 .68333438 .36799623 .6823273 .3619995 .6773224 .3619995 .6643219 .3619995 .6523285 .37098695 .6523285 .38598634 .6523285 .43399049 .6523285 .43598939 .6453247 .43598939 .6353302L.43299867 .6153412 .37298585 .37835694C.35499574 .41537477 .32598878 .4423828 .2809906 .4423828 .1639862 .4423828 .039993287 .29533387 .039993287 .14929199 .039993287 .055267335 .09498596-.0107421879 .17298889-.0107421879 .19299317-.0107421879 .24299622-.0067443849 .30299378 .06427002 .31098939 .022247315 .34599305-.0107421879 .3939972-.0107421879 .42900086-.0107421879 .45199586 .012252808 .46798707 .044265748 .4850006 .08027649 .49798585 .14129639 .49798585 .14329529 .49798585 .1532898 .4889984 .1532898 .48599244 .1532898 .47599793 .1532898 .47499085 .14929199 .47200013 .13528443 .45498658 .07026672 .43699647 .011245728 .3959961 .011245728 .36898805 .011245728 .3659973 .037261964 .3659973 .057266237 .3659973 .08126831 .36799623 .088272098 .37199403 .105285648L.5159912 .68333438M.30799867 .119277957C.30299378 .10127258 .30299378 .09927368 .28799439 .08227539 .24398804 .027252198 .20298767 .011245728 .1749878 .011245728 .125 .011245728 .11099243 .06626892 .11099243 .105285648 .11099243 .1552887 .14299011 .27833558 .1659851 .32434083 .19699097 .38336183 .24198914 .42037965 .28199769 .42037965 .34700013 .42037965 .36099244 .3383484 .36099244 .33235169 .36099244 .32633973 .35899354 .32034303 .35798646 .31533814L.30799867 .119277957Z"/>
<path id="font_2_1" d="M.1269989 .07699585 .23298645 .18003845C.3889923 .31811524 .44898988 .3721466 .44898988 .47216798 .44898988 .5860901 .35899354 .6660156 .23699951 .6660156 .12399292 .6660156 .049987794 .57411196 .049987794 .48516847 .049987794 .4291687 .099990848 .4291687 .102996829 .4291687 .11999512 .4291687 .15499878 .44117738 .15499878 .48217774 .15499878 .5081787 .13699341 .5341797 .101989749 .5341797 .09399414 .5341797 .09199524 .5341797 .08898926 .5331726 .11199951 .59806826 .1659851 .63500979 .22399903 .63500979 .31498719 .63500979 .35798646 .5541382 .35798646 .47216798 .35798646 .39215089 .30799867 .31311036 .25299073 .25108338L.06098938 .036987306C.049987794 .025985718 .049987794 .023986817 .049987794 0H.42099L.44898988 .17404175H.42399598C.4189911 .14402771 .4119873 .1000061 .4019928 .084991458 .394989 .07699585 .32899476 .07699585 .30699159 .07699585H.1269989Z"/>
<path id="font_2_2" d="M.2939911 .16503906V.07800293C.2939911 .041992189 .2919922 .0309906 .21798706 .0309906H.19699097V0C.23799134 .0029907227 .2899933 .0029907227 .33198548 .0029907227 .37399293 .0029907227 .4269867 .0029907227 .46798707 0V.0309906H.44699098C.37298585 .0309906 .37098695 .041992189 .37098695 .07800293V.16503906H.47099305V.19602967H.37098695V.65075686C.37098695 .67074587 .37098695 .6767578 .35499574 .6767578 .34599305 .6767578 .34298707 .6767578 .33499146 .66474917L.027999878 .19602967V.16503906H.2939911M.2999878 .19602967H.055999757L.2999878 .5688019V.19602967Z"/>
</defs>
<path transform="matrix(1.00003,0,0,-1.00009,12.782967,113.81616)" stroke-width=".3985" stroke-linecap="butt" stroke-miterlimit="10" stroke-linejoin="miter" fill="none" stroke="#00aeef" d="M0 0H90.71013M0 22.67752H90.71013M0 45.35506H90.71013M0 68.0326H90.71013M0 90.70215H90.71013M0 0V90.71013M22.67752 0V90.71013M45.35506 0V90.71013M68.0326 0V90.71013M90.70215 0V90.71013M90.71013 90.71013"/>
<path transform="matrix(1.00003,0,0,-1.00009,12.782967,113.81616)" stroke-width="1.19553" stroke-linecap="butt" stroke-miterlimit="10" stroke-linejoin="miter" fill="none" stroke="#000000" d="M0 0H100.17589"/>
<path transform="matrix(1.00003,0,0,-1.00009,112.96186,113.81616)" d="M1.27522 0C-.31879 .31879-1.91284 .9564-3.8257 2.07224-1.91284 .6376-1.91284-.6376-3.8257-2.07224-1.91284-.9564-.31879-.31879 1.27522 0Z"/>
<path transform="matrix(1.00003,0,0,-1.00009,112.96186,113.81616)" stroke-width="1.19553" stroke-linecap="butt" stroke-linejoin="round" fill="none" stroke="#000000" d="M1.27522 0C-.31879 .31879-1.91284 .9564-3.8257 2.07224-1.91284 .6376-1.91284-.6376-3.8257-2.07224-1.91284-.9564-.31879-.31879 1.27522 0Z"/>
<use data-text="t" xlink:href="#font_1_2" transform="matrix(9.962899,0,0,-9.963496,118.75315,116.88044)"/>
<path transform="matrix(1.00003,0,0,-1.00009,12.782967,113.81616)" stroke-width="1.19553" stroke-linecap="butt" stroke-miterlimit="10" stroke-linejoin="miter" fill="none" stroke="#000000" d="M0 0V100.17589"/>
<path transform="matrix(0,-1.00009,-1.00003,-0,12.782967,13.631256)" d="M1.27522 0C-.31879 .31879-1.91284 .9564-3.8257 2.07224-1.91284 .6376-1.91284-.6376-3.8257-2.07224-1.91284-.9564-.31879-.31879 1.27522 0Z"/>
<path transform="matrix(0,-1.00009,-1.00003,-0,12.782967,13.631256)" stroke-width="1.19553" stroke-linecap="butt" stroke-linejoin="round" fill="none" stroke="#000000" d="M1.27522 0C-.31879 .31879-1.91284 .9564-3.8257 2.07224-1.91284 .6376-1.91284-.6376-3.8257-2.07224-1.91284-.9564-.31879-.31879 1.27522 0Z"/>
<use data-text="d" xlink:href="#font_1_1" transform="matrix(9.962899,0,0,-9.963496,10.189888,7.8396227)"/>
<path transform="matrix(1.00003,0,0,-1.00009,12.782967,113.81616)" stroke-width=".3985" stroke-linecap="butt" stroke-miterlimit="10" stroke-linejoin="miter" fill="none" stroke="#000000" d="M45.35506 3.40146V-3.40182"/>
<path transform="matrix(1.00003,0,0,-1.00009,12.782967,113.81616)" d="M41.86809-14.00662H48.842035V-5.5936405H41.86809Z" fill="#ffffff"/>
<use data-text="2" xlink:href="#font_2_1" transform="matrix(9.962899,0,0,-9.963496,55.648256,126.82733)"/>
<path transform="matrix(1.00003,0,0,-1.00009,12.782967,113.81616)" stroke-width=".3985" stroke-linecap="butt" stroke-miterlimit="10" stroke-linejoin="miter" fill="none" stroke="#000000" d="M3.40146 45.35506H-3.40182"/>
<path transform="matrix(1.00003,0,0,-1.00009,12.782967,113.81616)" d="M-12.56758 41.14856H-5.5936405V49.56154H-12.56758Z" fill="#ffffff"/>
<use data-text="2" xlink:href="#font_2_1" transform="matrix(9.962899,0,0,-9.963496,1.2116165,71.66737)"/>
<path transform="matrix(1.00003,0,0,-1.00009,12.782967,113.81616)" stroke-width=".3985" stroke-linecap="butt" stroke-miterlimit="10" stroke-linejoin="miter" fill="none" stroke="#000000" d="M90.71013 3.40146V-3.40182"/>
<path transform="matrix(1.00003,0,0,-1.00009,12.782967,113.81616)" d="M87.22316-14.00662H94.1971V-5.5936405H87.22316Z" fill="#ffffff"/>
<use data-text="4" xlink:href="#font_2_2" transform="matrix(9.962899,0,0,-9.963496,101.004619,126.82733)"/>
<path transform="matrix(1.00003,0,0,-1.00009,12.782967,113.81616)" stroke-width=".3985" stroke-linecap="butt" stroke-miterlimit="10" stroke-linejoin="miter" fill="none" stroke="#000000" d="M3.40146 90.71013H-3.40182"/>
<path transform="matrix(1.00003,0,0,-1.00009,12.782967,113.81616)" d="M-12.56758 86.50363H-5.5936405V94.91661H-12.56758Z" fill="#ffffff"/>
<use data-text="4" xlink:href="#font_2_2" transform="matrix(9.962899,0,0,-9.963496,1.2116165,26.308289)"/>
<path transform="matrix(1.00003,0,0,-1.00009,12.782967,113.81616)" stroke-width="1.19553" stroke-linecap="butt" stroke-miterlimit="10" stroke-linejoin="miter" fill="none" stroke="#d73589" d="M0 0C0 0 .83601 .00954 1.1571 .02177 1.47818 .03401 1.99313 .06364 2.31424 .08823 2.63533 .1128 3.15027 .1621 3.47136 .19896 3.79247 .23581 4.3074 .30482 4.6285 .35397 4.94958 .40314 5.46452 .49182 5.78563 .55328 6.10672 .61473 6.62167 .72314 6.94275 .79688 7.26384 .87062 7.7788 .99876 8.09988 1.0848 8.42097 1.17082 8.93593 1.3187 9.257 1.41696 9.57811 1.51524 10.09306 1.68256 10.41415 1.79312 10.73523 1.90367 11.25018 2.09097 11.57129 2.21388 11.89236 2.33679 12.40732 2.54381 12.72841 2.67896 13.0495 2.8141 13.56444 3.04054 13.88554 3.18797 14.20662 3.33542 14.72157 3.58183 15.04266 3.74162 15.36377 3.9014 15.87871 4.16754 16.1998 4.33957 16.52089 4.51158 17.03583 4.79715 17.35693 4.98145 17.67802 5.16576 18.19296 5.47136 18.51405 5.66797 18.83516 5.86458 19.3501 6.18956 19.67119 6.39844 19.99228 6.60733 20.50723 6.95238 20.82831 7.17357 21.14941 7.39473 21.66437 7.75914 21.98544 7.99261 22.30653 8.2261 22.82149 8.61055 23.1426 8.85631 23.46367 9.10207 23.97862 9.50589 24.29971 9.76396 24.6208 10.02202 25.13574 10.44589 25.45685 10.71625 25.77792 10.98659 26.29288 11.42987 26.61397 11.71246 26.93506 11.99506 27.45001 12.45804 27.7711 12.75298 28.0922 13.04791 28.60713 13.53091 28.92824 13.83812 29.24933 14.14534 29.76427 14.64777 30.08536 14.96722 30.40646 15.2867 30.92139 15.80888 31.2425 16.14063 31.56358 16.47238 32.07854 17.01428 32.39961 17.3583 32.72072 17.70236 33.23567 18.2639 33.55675 18.62029 33.87784 18.97667 34.39279 19.55824 34.71388 19.92691 35.03497 20.29558 35.54993 20.89656 35.87102 21.27747 36.19211 21.65839 36.70706 22.27911 37.02815 22.67233 37.34923 23.06552 37.86418 23.70598 38.18527 24.11147 38.50636 24.51697 39.02132 25.17712 39.3424 25.59491 39.66348 26.01271 40.17844 26.69255 40.49954 27.12263 40.82063 27.5527 41.33557 28.25229 41.65666 28.69466 41.97777 29.13701 42.4927 29.85631 42.8138 30.31097 43.13489 30.76564 43.64983 31.50464 43.97092 31.97157 44.29202 32.43852 44.80698 33.19724 45.12805 33.67648 45.44914 34.1557 45.96408 34.93413 46.28519 35.42566 46.60626 35.9172 47.12122 36.71538 47.4423 37.21915 47.7634 37.72293 48.27835 38.54051 48.59944 39.05658 48.92052 39.57265 49.43547 40.41023 49.75658 40.93864 50.07765 41.46706 50.5926 42.32433 50.9137 42.865 51.23479 43.4057 51.74973 44.28271 52.07083 44.83566 52.39192 45.3886 52.90686 46.28502 53.22795 46.85025 53.54906 47.4155 54.064 48.33191 54.38509 48.90948 54.70618 49.48706 55.22113 50.42314 55.54222 51.01302 55.86331 51.60286 56.37827 52.55872 56.69934 53.16083 57.02045 53.76292 57.53539 54.73824 57.85648 55.3526 58.17757 55.96695 58.69252 56.96198 59.01361 57.58865 59.3347 58.21535 59.84966 59.23033 60.17075 59.86935 60.49182 60.50836 61.00677 61.54308 61.32788 62.19434 61.64896 62.84561 62.16391 63.8997 62.485 64.56326 62.80609 65.22684 63.32103 66.301 63.64214 66.97684 63.96323 67.6527 64.47816 68.74628 64.79926 69.43436 65.12036 70.12245 65.6353 71.23575 65.95639 71.93616 66.27748 72.6366 66.79242 73.7699 67.11353 74.48262 67.43462 75.19533 67.94957 76.34799 68.27065 77.073 68.59175 77.79802 69.10669 78.97075 69.42778 79.70804 69.74887 80.44533 70.26382 81.63748 70.5849 82.38702 70.906 83.13657 71.42096 84.34845 71.74205 85.11029 72.06313 85.87212 72.57808 87.10368 72.89919 87.87785 73.22026 88.65202 74.0563 90.69003 73.34554 88.95728"/>
<path transform="matrix(.3795014,-.9252233,-.9251678,-.37952415,86.130718,24.850899)" d="M1.27522 0C-.31879 .31879-1.91284 .9564-3.8257 2.07224-1.91284 .6376-1.91284-.6376-3.8257-2.07224-1.91284-.9564-.31879-.31879 1.27522 0Z" fill="#d73589"/>
<path transform="matrix(.3795014,-.9252233,-.9251678,-.37952415,86.130718,24.850899)" stroke-width="1.19553" stroke-linecap="butt" stroke-linejoin="round" fill="none" stroke="#d73589" d="M1.27522 0C-.31879 .31879-1.91284 .9564-3.8257 2.07224-1.91284 .6376-1.91284-.6376-3.8257-2.07224-1.91284-.9564-.31879-.31879 1.27522 0Z"/>
</svg>
