<svg xmlns="http://www.w3.org/2000/svg" xmlns:xlink="http://www.w3.org/1999/xlink" version="1.1" width="179" height="257" viewBox="0 0 179 257">
<defs>
<path id="font_1_2" d="M.20599365 .3996582H.2999878C.31999208 .3996582 .32998658 .3996582 .32998658 .41966249 .32998658 .43066407 .31999208 .43066407 .3019867 .43066407H.21398926C.25 .5724945 .25498963 .59246829 .25498963 .59846499 .25498963 .61546328 .24299622 .62545779 .22599793 .62545779 .22299195 .62545779 .19499207 .62446597 .18598938 .58947756L.14698792 .43066407H.052993776C.032989503 .43066407 .022994996 .43066407 .022994996 .4116516 .022994996 .3996582 .0309906 .3996582 .050994874 .3996582H.13899231C.066986087 .11608887 .06298828 .099121097 .06298828 .08114624 .06298828 .02722168 .100997928-.0107421879 .15499878-.0107421879 .25698854-.0107421879 .31399537 .13505554 .31399537 .14305115 .31399537 .1530304 .30599977 .1530304 .3019867 .1530304 .29299928 .1530304 .2919922 .15003968 .2869873 .13905335 .24398804 .035217287 .19099427 .011245728 .15699768 .011245728 .13598633 .011245728 .12599182 .024230957 .12599182 .057174684 .12599182 .08114624 .12799073 .088134769 .13198853 .10510254L.20599365 .3996582Z"/>
<path id="font_1_1" d="M.37399293 .6056366C.3829956 .6416168 .38598634 .6516113 .46499635 .6516113 .4889984 .6516113 .49699403 .6516113 .49699403 .6706085 .49699403 .6826172 .48599244 .6826172 .48199464 .6826172 .45298768 .6826172 .3789978 .6796112 .34999085 .6796112 .31999208 .6796112 .24699402 .6826172 .21699524 .6826172 .20999146 .6826172 .19699097 .6826172 .19699097 .6626129 .19699097 .6516113 .20599365 .6516113 .22499085 .6516113 .2669983 .6516113 .2939911 .6516113 .2939911 .63261416 .2939911 .6276245 .2939911 .6256256 .2919922 .6166229L.15699768 .07795715C.147995 .040985109 .14498902 .0309906 .06599426 .0309906 .042999269 .0309906 .033996583 .0309906 .033996583 .010986328 .033996583 0 .04598999 0 .04899597 0 .07798767 0 .15098572 .0029907227 .17999268 .0029907227 .20999146 .0029907227 .28399659 0 .31399537 0 .32199098 0 .33399964 0 .33399964 .018997193 .33399964 .0309906 .32598878 .0309906 .3039856 .0309906 .28599549 .0309906 .2809906 .0309906 .26098634 .032989503 .23999024 .034988405 .23599243 .038986207 .23599243 .049987794 .23599243 .05796814 .23799134 .065963748 .23999024 .07296753L.37399293 .6056366Z"/>
<path id="font_2_6" d="M.44898988 .20022583C.44898988 .3193512 .36698915 .41944886 .25898744 .41944886 .21099854 .41944886 .16799927 .40345765 .13198853 .36842347V.5637665C.1519928 .5577698 .18499756 .55078127 .21699524 .55078127 .33999635 .55078127 .4099884 .6417694 .4099884 .6547699 .4099884 .6607666 .40699769 .6657715 .3999939 .6657715 .39898683 .6657715 .39698792 .6657715 .3919983 .66278079 .37199403 .6537781 .32299806 .6337738 .2559967 .6337738 .21598816 .6337738 .16999817 .6407776 .12298584 .6617737 .114990238 .66477969 .11299133 .66477969 .11099243 .66477969 .100997928 .66477969 .100997928 .6567688 .100997928 .6407776V.34439088C.100997928 .32637025 .100997928 .31835938 .114990238 .31835938 .12199402 .31835938 .12399292 .32136537 .12799073 .32736207 .13899231 .3433838 .17599488 .39746095 .25698854 .39746095 .30899049 .39746095 .33399964 .35139466 .34199525 .33337403 .35798646 .29632569 .3600006 .25727845 .3600006 .20722962 .3600006 .17222595 .3600006 .11222839 .33599855 .07035828 .31199647 .031463624 .2749939 .0055389406 .22898865 .0055389406 .1559906 .0055389406 .09899902 .058380128 .08198547 .11723328 .084991458 .1162262 .08799744 .115234378 .09899902 .115234378 .13198853 .115234378 .14898682 .14022827 .14898682 .16423035 .14898682 .18823242 .13198853 .21322632 .09899902 .21322632 .084991458 .21322632 .049987794 .20622254 .049987794 .16023255 .049987794 .07434082 .11898804-.022460938 .23098755-.022460938 .34700013-.022460938 .44898988 .073349 .44898988 .20022583Z"/>
<path id="font_2_2" d="M.2939911 .64004519C.2939911 .66400149 .2939911 .6660156 .2709961 .6660156 .20899964 .60227969 .12098694 .60227969 .08898926 .60227969V.57128909C.10899353 .57128909 .16799927 .57128909 .21998596 .5972748V.07902527C.21998596 .042999269 .21699524 .0309906 .1269989 .0309906H.09498596V0C.12998963 .0029907227 .21699524 .0029907227 .25698854 .0029907227 .29699708 .0029907227 .38398744 .0029907227 .4189911 0V.0309906H.3869934C.29699708 .0309906 .2939911 .041992189 .2939911 .07902527V.64004519Z"/>
<path id="font_2_1" d="M.45999146 .31976319C.45999146 .39982606 .45498658 .47988893 .41999818 .5539398 .37399293 .65000918 .2919922 .6660156 .25 .6660156 .18998719 .6660156 .116989139 .64001467 .07598877 .54693606 .04399109 .47789 .038986207 .39982606 .038986207 .31976319 .038986207 .24472046 .042999269 .15464783 .083999637 .07859802 .1269989-.0024719239 .19999695-.022460938 .24899292-.022460938 .30299378-.022460938 .3789978-.0014648438 .4229889 .09359741 .45498658 .16265869 .45999146 .2407074 .45999146 .31976319M.24899292-.00047302247C.20999146-.00047302247 .15098572 .024551392 .1329956 .12062073 .12199402 .18066406 .12199402 .2727356 .12199402 .3317871 .12199402 .39582826 .12199402 .46188355 .12998963 .5159149 .14898682 .63500979 .22399903 .64401248 .24899292 .64401248 .28199769 .64401248 .34799195 .6259918 .36698915 .52693179 .3769989 .47088624 .3769989 .39482118 .3769989 .3317871 .3769989 .25672914 .3769989 .18867493 .3659973 .12461853 .35099793 .029556275 .2939911-.00047302247 .24899292-.00047302247Z"/>
<path id="font_2_3" d="M.1269989 .07699585 .23298645 .18003845C.3889923 .31811524 .44898988 .3721466 .44898988 .47216798 .44898988 .5860901 .35899354 .6660156 .23699951 .6660156 .12399292 .6660156 .049987794 .57411196 .049987794 .48516847 .049987794 .4291687 .099990848 .4291687 .102996829 .4291687 .11999512 .4291687 .15499878 .44117738 .15499878 .48217774 .15499878 .5081787 .13699341 .5341797 .101989749 .5341797 .09399414 .5341797 .09199524 .5341797 .08898926 .5331726 .11199951 .59806826 .1659851 .63500979 .22399903 .63500979 .31498719 .63500979 .35798646 .5541382 .35798646 .47216798 .35798646 .39215089 .30799867 .31311036 .25299073 .25108338L.06098938 .036987306C.049987794 .025985718 .049987794 .023986817 .049987794 0H.42099L.44898988 .17404175H.42399598C.4189911 .14402771 .4119873 .1000061 .4019928 .084991458 .394989 .07699585 .32899476 .07699585 .30699159 .07699585H.1269989Z"/>
<path id="font_2_4" d="M.2899933 .35191346C.37199403 .37893678 .42999269 .4490509 .42999269 .52809146 .42999269 .6100464 .34199525 .6660156 .24598694 .6660156 .14498902 .6660156 .068984989 .60606387 .068984989 .53009036 .068984989 .49710084 .09098816 .47808839 .11999512 .47808839 .15098572 .47808839 .17098999 .50009158 .17098999 .5290985 .17098999 .57910159 .12399292 .57910159 .10899353 .57910159 .13999939 .62802127 .20599365 .64100649 .24198914 .64100649 .2829895 .64100649 .33799745 .6190338 .33799745 .5290985 .33799745 .51708987 .33599855 .45906068 .30999757 .4149933 .27999879 .36691285 .24598694 .36390687 .22099304 .36291505 .21299744 .36190797 .18899536 .35990907 .18199158 .35990907 .17399597 .35890199 .16699219 .35791017 .16699219 .3479004 .16699219 .33691407 .17399597 .33691407 .19099427 .33691407H.23498535C.31698609 .33691407 .35398866 .2686615 .35398866 .17037964 .35398866 .034469606 .2849884 .0055389406 .24099732 .0055389406 .19799805 .0055389406 .12298584 .022491456 .08799744 .08137512 .12298584 .07637024 .1539917 .09837341 .1539917 .1363678 .1539917 .17237854 .1269989 .19238281 .09799194 .19238281 .07398987 .19238281 .041992189 .17837525 .041992189 .1343689 .041992189 .043441774 .1349945-.022460938 .24398804-.022460938 .3659973-.022460938 .45700074 .06838989 .45700074 .17037964 .45700074 .252594 .3939972 .33088685 .2899933 .35191346Z"/>
<path id="font_2_5" d="M.2939911 .16503906V.07800293C.2939911 .041992189 .2919922 .0309906 .21798706 .0309906H.19699097V0C.23799134 .0029907227 .2899933 .0029907227 .33198548 .0029907227 .37399293 .0029907227 .4269867 .0029907227 .46798707 0V.0309906H.44699098C.37298585 .0309906 .37098695 .041992189 .37098695 .07800293V.16503906H.47099305V.19602967H.37098695V.65075686C.37098695 .67074587 .37098695 .6767578 .35499574 .6767578 .34599305 .6767578 .34298707 .6767578 .33499146 .66474917L.027999878 .19602967V.16503906H.2939911M.2999878 .19602967H.055999757L.2999878 .5688019V.19602967Z"/>
<path id="font_3_104" d="M.7569885 .43385316 .73599246 .6748047H.06298828L.041992189 .43385316H.08898926C.09799194 .5468292 .10798645 .62779238 .2519989 .62779238H.32899476V.04699707H.17599488V0C.22999573 .0029907227 .34098817 .0029907227 .3999939 .0029907227 .45899964 .0029907227 .56999209 .0029907227 .6239929 0V.04699707H.47099305V.62779238H.5469971C.6899872 .62779238 .69999697 .54782107 .70999148 .43385316H.7569885Z"/>
<path id="font_3_66" d="M.28599549 0V.04699707H.22399903V.4501953L.049987794 .4423828V.39537049C.10899353 .39537049 .115997318 .39537049 .115997318 .3563385V.04699707H.04699707V0L.16899109 .0029907227 .28599549 0M.23799134 .60728457C.23799134 .6502838 .20298767 .6852875 .1599884 .6852875 .116989139 .6852875 .08198547 .6502838 .08198547 .60728457 .08198547 .5642853 .116989139 .5292969 .1599884 .5292969 .20298767 .5292969 .23799134 .5642853 .23799134 .60728457Z"/>
<path id="font_3_75" d="M.93499758 0V.04699707H.8659973V.30613709C.8659973 .40919496 .8149872 .4501953 .71199038 .4501953 .62098696 .4501953 .56900027 .40019227 .54299929 .3541565 .522995 .44718934 .43099977 .4501953 .3929901 .4501953 .30599977 .4501953 .24899292 .40518189 .21699524 .3421631V.4501953L.04499817 .4423828V.39537049C.10699463 .39537049 .11399841 .39537049 .11399841 .3563385V.04699707H.04499817V0L.17098999 .0029907227 .29699708 0V.04699707H.22799683V.2562256C.22799683 .3653412 .31498719 .41436769 .3769989 .41436769 .41099549 .41436769 .43299867 .39437867 .43299867 .31729127V.04699707H.3639984V0L.48999024 .0029907227 .6159973 0V.04699707H.5469971V.2562256C.5469971 .3653412 .6339874 .41436769 .69599917 .41436769 .7299957 .41436769 .7519989 .39437867 .7519989 .31729127V.04699707H.68299868V0L.8089905 .0029907227 .93499758 0Z"/>
<path id="font_3_50" d="M.49398805 .11706543C.49398805 .13504029 .47499085 .13504029 .46998597 .13504029 .45298768 .13504029 .45098878 .13005066 .44499208 .11405945 .42399598 .066101077 .36698915 .03413391 .3019867 .03413391 .16099549 .03413391 .1599884 .16700745 .1599884 .2179718H.46199037C.48399354 .2179718 .49398805 .2179718 .49398805 .2449646 .49398805 .27598573 .48799134 .34906007 .43798829 .3991089 .40098573 .43511964 .34799195 .453125 .2789917 .453125 .11898804 .453125 .03199768 .35005189 .03199768 .22497559 .03199768 .09107971 .13198853-.005859375 .29299928-.005859375 .45098878-.005859375 .49398805 .10006714 .49398805 .11706543M.39898683 .25097657H.1599884C.1619873 .29000855 .16299439 .3320465 .18399048 .36506654 .20999146 .4051056 .25 .41711427 .2789917 .41711427 .3959961 .41711427 .397995 .28599549 .39898683 .25097657Z"/>
<path id="font_3_85" d="M.38198854-.23503113C.38198854-.23002625 .3789978-.22503662 .3789978-.22503662 .34999085-.19802857 .2849884-.13702393 .24299622-.009033203 .21699524 .06997681 .20498657 .16197205 .20498657 .24998474 .20498657 .4469757 .2559967 .60398867 .3659973 .7149811 .3809967 .72998049 .38198854 .73098757 .38198854 .73599246 .38198854 .74697878 .37199403 .75 .3639984 .75 .34700013 .75 .30499269 .7129822 .2869873 .6959839 .1309967 .5409851 .10798645 .35697938 .10798645 .25097657 .10798645 .12597656 .14099121 .015975953 .18798828-.06703186 .2539978-.18203736 .34498597-.24902344 .3639984-.24902344 .37199403-.24902344 .38198854-.24603272 .38198854-.23503113Z"/>
<path id="font_3_47" d="M.6009979 0V.04699707C.5389862 .04699707 .5319977 .04699707 .5319977 .086013797V.69433596L.35499574 .6855469V.63853457C.4169922 .63853457 .42399598 .63853457 .42399598 .5996704V.40518189C.37399293 .44418336 .32199098 .4501953 .2889862 .4501953 .14299011 .4501953 .037994386 .36218263 .037994386 .22116089 .037994386 .089141849 .12998963-.005859375 .27799989-.005859375 .33898927-.005859375 .3869934 .018127442 .41799928 .043136598V-.005859375L.6009979 0M.41799928 .102996829C.40499879 .08514404 .3639984 .030136109 .28799439 .030136109 .1659851 .030136109 .1659851 .15115357 .1659851 .22116089 .1659851 .26916505 .1659851 .3231659 .19198609 .36218263 .22099304 .40419007 .2679901 .41418458 .29899598 .41418458 .35598756 .41418458 .3959961 .3821869 .41799928 .35317994V.102996829Z"/>
<path id="font_3_28" d="M.5529938 .023986817C.5529938 .04699707 .5399933 .04699707 .5269928 .04699707 .46598817 .04798889 .46598817 .06100464 .46598817 .083999637V.29907228C.46598817 .3881073 .394989 .453125 .24598694 .453125 .18899536 .453125 .066986087 .44911195 .066986087 .36109925 .066986087 .3170929 .101989749 .29808045 .1289978 .29808045 .1599884 .29808045 .19198609 .3190918 .19198609 .36109925 .19198609 .39111329 .17298889 .40811158 .16999817 .41011048 .19799805 .41612245 .22999573 .41711427 .24198914 .41711427 .31698609 .41711427 .35198976 .3751068 .35198976 .29907228V.26506043C.2809906 .2620697 .026992798 .25306703 .026992798 .10801697 .026992798 .012130737 .15098572-.005859375 .21998596-.005859375 .2999878-.005859375 .34700013 .035125734 .36898805 .07713318 .36898805 .04598999 .36898805 0 .47299195 0H.5209961C.54100039 0 .5529938 0 .5529938 .023986817M.35198976 .13899231C.35198976 .043151857 .2599945 .030136109 .23498535 .030136109 .18399048 .030136109 .14399719 .06517029 .14399719 .10922241 .14399719 .21734619 .3019867 .23136902 .35198976 .234375V.13899231Z"/>
<path id="font_3_118" d="M.5799866 .3973236V.44433595C.55599978 .44232179 .526001 .44132997 .5009918 .44132997L.4099884 .44433595V.3973236C.4099884 .3973236 .45700074 .3973236 .45700074 .3853302L.45199586 .37332154 .33699037 .12713623 .20999146 .3973236H.2639923V.44433595L.13999939 .44132997 .025985718 .44433595V.3973236H.08999634L.2769928 .000045776369 .2539978-.04798889C.23199463-.09602356 .19999695-.1640625 .1289978-.1640625 .114990238-.1640625 .11299133-.16307068 .10499573-.1600647 .11399841-.1560669 .13699341-.14205933 .13699341-.10702515 .13699341-.07400513 .11299133-.049987794 .07899475-.049987794 .050994874-.049987794 .021987915-.069000247 .021987915-.10803223 .021987915-.15907288 .068984989-.20007324 .1289978-.20007324 .20599365-.20007324 .2639923-.13804627 .29100038-.08100891L.5059967 .37631227C.5130005 .39031983 .5159912 .3973236 .5799866 .3973236Z"/>
<path id="font_3_98" d="M.4149933 .14012146C.4149933 .18312073 .394989 .21812439 .3600006 .24612427 .32099916 .27511598 .2889862 .28112794 .21099854 .29412843 .17399597 .30111695 .10899353 .31211854 .10899353 .3591156 .10899353 .42111207 .20199585 .42111207 .22099304 .42111207 .29599 .42111207 .33399964 .39212037 .33898927 .33711244 .33999635 .32211305 .34098817 .3171234 .3619995 .3171234 .38598634 .3171234 .38598634 .32211305 .38598634 .3451233V.42510987C.38598634 .4441223 .38598634 .453125 .36799623 .453125 .3639984 .453125 .3619995 .453125 .32299806 .43411256 .29699708 .44711305 .2619934 .453125 .22200012 .453125 .19198609 .453125 .037994386 .453125 .037994386 .32211305 .037994386 .28211976 .057998659 .25512696 .07798767 .23812866 .117996219 .203125 .1559906 .1971283 .23298645 .18312073 .2689972 .17712403 .34399415 .16412354 .34399415 .10513306 .34399415 .030136109 .2519989 .030136109 .22999573 .030136109 .12399292 .030136109 .09799194 .103134158 .085998538 .14613343 .08099365 .16012573 .07598877 .16012573 .06199646 .16012573 .037994386 .16012573 .037994386 .15412903 .037994386 .13113404V.022140503C.037994386 .0031280518 .037994386-.005859375 .055999757-.005859375 .06298828-.005859375 .06498718-.005859375 .085998538 .009140015L.11199951 .026138306C.1579895-.005859375 .20999146-.005859375 .22999573-.005859375 .26098634-.005859375 .4149933-.005859375 .4149933 .14013672V.14012146Z"/>
<path id="font_3_86" d="M.33799745 .24998474C.33799745 .37498475 .30499269 .48498536 .2579956 .5679779 .19198609 .6829834 .100997928 .75 .08198547 .75 .07398987 .75 .06399536 .74697878 .06399536 .73599246 .06399536 .73098757 .06399536 .72898867 .08099365 .7129822 .20698548 .5849762 .24099732 .40797425 .24099732 .25097657 .24099732 .053970338 .18998719-.103027347 .07998657-.21403504 .06498718-.22903443 .06399536-.23002625 .06399536-.23503113 .06399536-.24603272 .07398987-.24902344 .08198547-.24902344 .09899902-.24902344 .14099121-.21203614 .15899658-.19502259 .31498719-.040023805 .33799745 .14398194 .33799745 .24998474Z"/>
<path id="font_3_76" d="M.8600006 .63853457V.6855469C.82199099 .6826172 .7649994 .6826172 .7259979 .6826172 .6839905 .6825409 .6319885 .6825409 .59098818 .6855469V.63853457H.6159973C.6339874 .63861086 .651001 .63760378 .6689911 .63560488 .69799807 .63261416 .69898989 .63160708 .69898989 .6096039V.2046051L.30099488 .6726074C.2899933 .6845398 .2889862 .6855469 .2679901 .6855469H.038986207V.63853457H.14698792V.075912479C.14698792 .05392456 .1459961 .05291748 .117996219 .049926759 .09399414 .04699707 .09199524 .04699707 .06399536 .04699707H.038986207V0C.07699585 .0029296876 .13398743 .0029296876 .17298889 .0029296876 .21499634 .0029907227 .2669983 .0029907227 .30799867 0V.04699707H.2829895C.2649994 .046920778 .24798584 .047927858 .22999573 .049926759 .20098877 .05291748 .19999695 .05392456 .19999695 .075927738V.5989227L.69799807 .012924194C.70799258 .0009918213 .70899966 0 .72499087 0 .7519989 0 .7519989 .008987427 .7519989 .03199768V.60961917C.7519989 .63160708 .7529907 .63261416 .7809906 .63560488 .8049927 .63853457 .8069916 .63853457 .83499148 .63853457H.8600006Z"/>
<path id="font_3_109" d="M.61499026 .0001373291V.0471344C.5529938 .0471344 .54599 .0471344 .54599 .086135867V.4501953L.36299134 .44218446V.39518739C.4249878 .39518739 .43199159 .39518739 .43199159 .3561859V.16514588C.43199159 .08314514 .3809967 .030136109 .30799867 .030136109 .23098755 .030136109 .22799683 .055130006 .22799683 .10914612V.4501953L.04499817 .44218446V.39518739C.10699463 .39518739 .11399841 .39518739 .11399841 .3561859V.12313843C.11399841 .01612854 .19499207-.005859375 .2939911-.005859375 .31999208-.005859375 .3919983-.005859375 .43798829 .072143558V-.005859375L.61499026 .0001373291Z"/>
<path id="font_3_35" d="M.59999087 .22319031C.59999087 .3561859 .5059967 .4501953 .36099244 .4501953 .28799439 .4501953 .23799134 .42118836 .21398926 .40118409V.69433596L.036987306 .6863251V.639328C.09899902 .639328 .10598755 .639328 .10598755 .600296V.00018310547H.15299988C.16899109 .019180298 .18598938 .03718567 .20199585 .05618286 .20999146 .04814148 .25898744-.005859375 .34799195-.005859375 .49699403-.005859375 .59999087 .08413696 .59999087 .22315979V.22319031M.47200013 .22315979C.47200013 .17614746 .47200013 .12113953 .44599916 .08213806 .4169922 .041137697 .37098695 .030136109 .33898927 .030136109 .2689972 .030136109 .22999573 .08413696 .21998596 .09913635V.35017396C.24699402 .3851776 .29499818 .41418458 .34999085 .41418458 .47200013 .41418458 .47200013 .2931671 .47200013 .22315979Z"/>
<path id="font_3_96" d="M.44198609 .36819459C.44198609 .42118836 .3880005 .4501953 .33599855 .4501953 .2659912 .4501953 .22599793 .40019227 .20298767 .33718873V.4501953L.036987306 .4423828V.39537049C.09899902 .39537049 .10598755 .39537049 .10598755 .3563385V.04699707H.036987306V0L.16299439 .0029907227C.20098877 .0029907227 .2649994 .0029907227 .30099488 0V.04699707H.21398926V.22218323C.21398926 .29226686 .23899842 .41436769 .33898927 .41436769 .33898927 .41436769 .31999208 .39736939 .31999208 .36834718 .31999208 .32730104 .35198976 .3072815 .3809967 .3072815 .4099884 .3072815 .44198609 .3283081 .44198609 .36834718V.36819459Z"/>
<path id="font_3_81" d="M.5419922 .21812439C.5419922 .35212709 .44999696 .453125 .2869873 .453125 .12298584 .453125 .03199768 .35112 .03199768 .21812439 .03199768 .09413147 .11999512-.005859375 .2869873-.005859375 .45498658-.005859375 .5419922 .09512329 .5419922 .21812439M.4139862 .22912598C.4139862 .14213562 .4139862 .03413391 .2869873 .03413391 .1599884 .03413391 .1599884 .14213562 .1599884 .22912598 .1599884 .27412416 .1599884 .32511903 .1769867 .3591156 .19599915 .39611817 .23799134 .41711427 .2869873 .41711427 .32899476 .41711427 .37098695 .40112306 .3929901 .36611939 .4139862 .3321228 .4139862 .27713014 .4139862 .22912598Z"/>
<path id="font_3_55" d="M.43699647 .6132202C.43699647 .65519717 .40098573 .7001953 .32299806 .7001953 .22499085 .7001953 .116989139 .65818789 .116989139 .54525759V.44433595H.041992189V.3973236H.116989139V.04699707H.04798889V0L.17399597 .0029907227C.21199036 .0029907227 .27598573 .0029907227 .31199647 0V.04699707H.22499085V.3973236H.33999635V.44433595H.21899414V.54525759C.21899414 .65519717 .29499818 .6641846 .31999208 .6641846 .32499696 .6641846 .32998658 .6641846 .33699037 .66218569 .32199098 .65119937 .31399537 .63220217 .31399537 .6132202 .31399537 .57025149 .34899903 .5512543 .375 .5512543 .40499879 .5512543 .43699647 .57225039 .43699647 .6132202Z"/>
<path id="font_3_77" d="M.61499026 0V.04699707H.54599V.30613709C.54599 .41119386 .49198915 .4501953 .3919983 .4501953 .29599 .4501953 .24299622 .39318849 .21699524 .3421631V.4501953L.04499817 .4423828V.39537049C.10699463 .39537049 .11399841 .39537049 .11399841 .3563385V.04699707H.04499817V0L.17098999 .0029907227 .29699708 0V.04699707H.22799683V.2562256C.22799683 .3653412 .31399537 .41436769 .3769989 .41436769 .41099549 .41436769 .43199159 .39337159 .43199159 .31729127V.04699707H.36299134V0L.4889984 .0029907227 .61499026 0Z"/>
<path id="font_3_43" d="M.47799684 .117126468C.47799684 .13113404 .46398927 .13113404 .45399476 .13113404 .43598939 .13113404 .43499757 .12913513 .42999269 .11613464 .4039917 .053131105 .35598756 .03413391 .30499269 .03413391 .1659851 .03413391 .1659851 .18112183 .1659851 .22712708 .1659851 .28312684 .1659851 .41311646 .29499818 .41311646 .32998658 .41311646 .34700013 .41011048 .3600006 .40711976 .34199525 .39111329 .33999635 .3701172 .33999635 .3611145 .33999635 .3171234 .375 .29811097 .4019928 .29811097 .43299867 .29811097 .46499635 .3191223 .46499635 .3611145 .46499635 .44711305 .34899903 .453125 .29100038 .453125 .11199951 .45314027 .037994386 .33813478 .037994386 .22213745 .037994386 .08912659 .13198853-.005859375 .28599549-.005859375 .44799806-.005859375 .47799684 .11013794 .47799684 .117126468Z"/>
<path id="font_3_105" d="M.38198854 .124176029V.17721558H.33499146V.12619019C.33499146 .058151246 .30299378 .03413391 .2749939 .03413391 .21699524 .03413391 .21699524 .09817505 .21699524 .1211853V.3973236H.36299134V.44433595H.21699524V.6357422H.16999817C.16899109 .53552249 .11999512 .43632508 .020996094 .43333436V.3973236H.102996829V.123184207C.102996829 .01612854 .18998719-.005859375 .26098634-.005859375 .33699037-.005859375 .38198854 .05114746 .38198854 .124176029Z"/>
<path id="font_3_84" d="M.59999087 .22319031C.59999087 .3561859 .5089874 .4501953 .36499024 .4501953 .2899933 .4501953 .23699951 .41918946 .21398926 .40118409V.4501953L.036987306 .4423828V.39537049C.09899902 .39537049 .10598755 .39537049 .10598755 .3573761V-.14648438H.036987306V-.1934967L.16299439-.19049073 .2889862-.1934967V-.14648438H.21998596V.03945923C.2630005 .004135132 .30699159-.005859375 .34799195-.005859375 .49798585-.005859375 .59999087 .08413696 .59999087 .22312927V.22319031M.47200013 .22312927C.47200013 .08213806 .4019928 .030136109 .33699037 .030136109 .32299806 .030136109 .27598573 .030136109 .23098755 .08413696 .21998596 .09713745 .21998596 .09812927 .21998596 .117126468V.32913209C.21998596 .34814454 .22099304 .3491516 .23498535 .36314393 .2749939 .4041443 .32699586 .41015626 .34899903 .41015626 .41600038 .41015626 .47200013 .3491516 .47200013 .22314453V.22312927Z"/>
<path id="font_3_72" d="M.29299928 0V.04699707H.22399903V.69433596L.04699707 .6855469V.63853457C.10899353 .63853457 .115997318 .63853457 .115997318 .5995636V.04699707H.04699707V0L.16999817 .0029907227 .29299928 0Z"/>
</defs>
<path transform="matrix(1.00006,0,0,-1.00008,36.45553,230.8685)" stroke-width=".3985" stroke-linecap="butt" stroke-miterlimit="10" stroke-linejoin="miter" fill="none" stroke="#00aeef" d="M0 0H127.56192M0 8.50412H127.56192M0 17.00824H127.56192M0 25.51237H127.56192M0 34.0165H127.56192M0 42.52063H127.56192M0 51.02477H127.56192M0 59.52888H127.56192M0 68.03302H127.56192M0 76.53716H127.56192M0 85.04128H127.56192M0 93.54541H127.56192M0 102.04953H127.56192M0 110.55368H127.56192M0 119.0578H127.56192M0 127.56192H127.56192M0 136.06606H127.56192M0 144.57019H127.56192M0 153.07433H127.56192M0 161.57845H127.56192M0 170.08257H127.56192M0 178.5867H127.56192M0 187.09084H127.56192M0 195.59496H127.56192M0 204.09909H127.56192M0 212.60024H127.56192M0 0V212.60321M8.50412 0V212.60321M17.00824 0V212.60321M25.51237 0V212.60321M34.0165 0V212.60321M42.52063 0V212.60321M51.02477 0V212.60321M59.52888 0V212.60321M68.03302 0V212.60321M76.53716 0V212.60321M85.04128 0V212.60321M93.54541 0V212.60321M102.04953 0V212.60321M110.55368 0V212.60321M119.0578 0V212.60321M127.55894 0V212.60321M127.56192 212.60321"/>
<path transform="matrix(1.00006,0,0,-1.00008,36.45553,230.8685)" stroke-width=".79701" stroke-linecap="butt" stroke-miterlimit="10" stroke-linejoin="miter" fill="none" stroke="#000000" d="M0 0H132.93064"/>
<path transform="matrix(1.00006,0,0,-1.00008,169.39414,230.8685)" d="M1.0361 0C-.25902 .25902-1.55415 .77707-3.1083 1.68365-1.55415 .51805-1.55415-.51805-3.1083-1.68365-1.55415-.77707-.25902-.25902 1.0361 0Z"/>
<path transform="matrix(1.00006,0,0,-1.00008,169.39414,230.8685)" stroke-width=".79701" stroke-linecap="butt" stroke-linejoin="round" fill="none" stroke="#000000" d="M1.0361 0C-.25902 .25902-1.55415 .77707-3.1083 1.68365-1.55415 .51805-1.55415-.51805-3.1083-1.68365-1.55415-.77707-.25902-.25902 1.0361 0Z"/>
<use data-text="t" xlink:href="#font_1_2" transform="matrix(9.963197,0,0,-9.963397,174.54782,233.93274)"/>
<path transform="matrix(1.00006,0,0,-1.00008,36.45553,230.8685)" stroke-width=".79701" stroke-linecap="butt" stroke-miterlimit="10" stroke-linejoin="miter" fill="none" stroke="#000000" d="M0 0V217.97194"/>
<path transform="matrix(0,-1.00008,-1.00006,-0,36.45553,12.87912)" d="M1.0361 0C-.25902 .25902-1.55415 .77707-3.1083 1.68365-1.55415 .51805-1.55415-.51805-3.1083-1.68365-1.55415-.77707-.25902-.25902 1.0361 0Z"/>
<path transform="matrix(0,-1.00008,-1.00006,-0,36.45553,12.87912)" stroke-width=".79701" stroke-linecap="butt" stroke-linejoin="round" fill="none" stroke="#000000" d="M1.0361 0C-.25902 .25902-1.55415 .77707-3.1083 1.68365-1.55415 .51805-1.55415-.51805-3.1083-1.68365-1.55415-.77707-.25902-.25902 1.0361 0Z"/>
<use data-text="I" xlink:href="#font_1_1" transform="matrix(9.963197,0,0,-9.963397,33.874376,7.72464)"/>
<path transform="matrix(1.00006,0,0,-1.00008,36.45553,230.8685)" stroke-width=".79701" stroke-linecap="butt" stroke-miterlimit="10" stroke-linejoin="miter" fill="none" stroke="#000000" d="M42.52063 .85045V-.85031"/>
<use data-text="5" xlink:href="#font_2_6" transform="matrix(9.963197,0,0,-9.963397,76.48793,241.85938)"/>
<path transform="matrix(1.00006,0,0,-1.00008,36.45553,230.8685)" stroke-width="1.59404" stroke-linecap="butt" stroke-miterlimit="10" stroke-linejoin="miter" fill="none" stroke="#00aeef" d="M42.52063 0V212.60321"/>
<path transform="matrix(1.00006,0,0,-1.00008,36.45553,230.8685)" stroke-width=".79701" stroke-linecap="butt" stroke-miterlimit="10" stroke-linejoin="miter" fill="none" stroke="#000000" d="M85.04128 .85045V-.85031"/>
<use data-text="1" xlink:href="#font_2_2" transform="matrix(9.963197,0,0,-9.963397,116.520328,241.85938)"/>
<use data-text="0" xlink:href="#font_2_1" transform="matrix(9.963197,0,0,-9.963397,121.50192,241.85938)"/>
<path transform="matrix(1.00006,0,0,-1.00008,36.45553,230.8685)" stroke-width="1.59404" stroke-linecap="butt" stroke-miterlimit="10" stroke-linejoin="miter" fill="none" stroke="#00aeef" d="M85.04128 0V212.60321"/>
<path transform="matrix(1.00006,0,0,-1.00008,36.45553,230.8685)" stroke-width=".79701" stroke-linecap="butt" stroke-miterlimit="10" stroke-linejoin="miter" fill="none" stroke="#000000" d="M127.56192 .85045V-.85031"/>
<use data-text="1" xlink:href="#font_2_2" transform="matrix(9.963197,0,0,-9.963397,159.04389,241.85938)"/>
<use data-text="5" xlink:href="#font_2_6" transform="matrix(9.963197,0,0,-9.963397,164.02548,241.85938)"/>
<path transform="matrix(1.00006,0,0,-1.00008,36.45553,230.8685)" stroke-width="1.59404" stroke-linecap="butt" stroke-miterlimit="10" stroke-linejoin="miter" fill="none" stroke="#00aeef" d="M127.56192 0V212.60321"/>
<path transform="matrix(1.00006,0,0,-1.00008,36.45553,230.8685)" stroke-width=".3985" stroke-linecap="butt" stroke-miterlimit="10" stroke-linejoin="miter" fill="none" stroke="#000000" d="M.85045 42.52063H-.85031"/>
<use data-text="1" xlink:href="#font_2_2" transform="matrix(9.963197,0,0,-9.963397,12.158073,191.55536)"/>
<use data-text="0" xlink:href="#font_2_1" transform="matrix(9.963197,0,0,-9.963397,17.139672,191.55536)"/>
<use data-text="0" xlink:href="#font_2_1" transform="matrix(9.963197,0,0,-9.963397,22.121254,191.55536)"/>
<use data-text="0" xlink:href="#font_2_1" transform="matrix(9.963197,0,0,-9.963397,27.102852,191.55536)"/>
<path transform="matrix(1.00006,0,0,-1.00008,36.45553,230.8685)" stroke-width="1.59404" stroke-linecap="butt" stroke-miterlimit="10" stroke-linejoin="miter" fill="none" stroke="#00aeef" d="M0 42.52063H127.56192"/>
<path transform="matrix(1.00006,0,0,-1.00008,36.45553,230.8685)" stroke-width=".3985" stroke-linecap="butt" stroke-miterlimit="10" stroke-linejoin="miter" fill="none" stroke="#000000" d="M.85045 85.04128H-.85031"/>
<use data-text="2" xlink:href="#font_2_3" transform="matrix(9.963197,0,0,-9.963397,12.158073,149.03095)"/>
<use data-text="0" xlink:href="#font_2_1" transform="matrix(9.963197,0,0,-9.963397,17.139672,149.03095)"/>
<use data-text="0" xlink:href="#font_2_1" transform="matrix(9.963197,0,0,-9.963397,22.121254,149.03095)"/>
<use data-text="0" xlink:href="#font_2_1" transform="matrix(9.963197,0,0,-9.963397,27.102852,149.03095)"/>
<path transform="matrix(1.00006,0,0,-1.00008,36.45553,230.8685)" stroke-width="1.59404" stroke-linecap="butt" stroke-miterlimit="10" stroke-linejoin="miter" fill="none" stroke="#00aeef" d="M0 85.04128H127.56192"/>
<path transform="matrix(1.00006,0,0,-1.00008,36.45553,230.8685)" stroke-width=".3985" stroke-linecap="butt" stroke-miterlimit="10" stroke-linejoin="miter" fill="none" stroke="#000000" d="M.85045 127.56192H-.85031"/>
<use data-text="3" xlink:href="#font_2_4" transform="matrix(9.963197,0,0,-9.963397,12.158073,106.50655)"/>
<use data-text="0" xlink:href="#font_2_1" transform="matrix(9.963197,0,0,-9.963397,17.139672,106.50655)"/>
<use data-text="0" xlink:href="#font_2_1" transform="matrix(9.963197,0,0,-9.963397,22.121254,106.50655)"/>
<use data-text="0" xlink:href="#font_2_1" transform="matrix(9.963197,0,0,-9.963397,27.102852,106.50655)"/>
<path transform="matrix(1.00006,0,0,-1.00008,36.45553,230.8685)" stroke-width="1.59404" stroke-linecap="butt" stroke-miterlimit="10" stroke-linejoin="miter" fill="none" stroke="#00aeef" d="M0 127.56192H127.56192"/>
<path transform="matrix(1.00006,0,0,-1.00008,36.45553,230.8685)" stroke-width=".3985" stroke-linecap="butt" stroke-miterlimit="10" stroke-linejoin="miter" fill="none" stroke="#000000" d="M.85045 170.08257H-.85031"/>
<use data-text="4" xlink:href="#font_2_5" transform="matrix(9.963197,0,0,-9.963397,12.158073,63.983156)"/>
<use data-text="0" xlink:href="#font_2_1" transform="matrix(9.963197,0,0,-9.963397,17.139672,63.983156)"/>
<use data-text="0" xlink:href="#font_2_1" transform="matrix(9.963197,0,0,-9.963397,22.121254,63.983156)"/>
<use data-text="0" xlink:href="#font_2_1" transform="matrix(9.963197,0,0,-9.963397,27.102852,63.983156)"/>
<path transform="matrix(1.00006,0,0,-1.00008,36.45553,230.8685)" stroke-width="1.59404" stroke-linecap="butt" stroke-miterlimit="10" stroke-linejoin="miter" fill="none" stroke="#00aeef" d="M0 170.08257H127.56192"/>
<path transform="matrix(1.00006,0,0,-1.00008,36.45553,230.8685)" stroke-width=".3985" stroke-linecap="butt" stroke-miterlimit="10" stroke-linejoin="miter" fill="none" stroke="#000000" d="M.85045 212.60321H-.85031"/>
<use data-text="5" xlink:href="#font_2_6" transform="matrix(9.963197,0,0,-9.963397,12.158073,21.45874)"/>
<use data-text="0" xlink:href="#font_2_1" transform="matrix(9.963197,0,0,-9.963397,17.139672,21.45874)"/>
<use data-text="0" xlink:href="#font_2_1" transform="matrix(9.963197,0,0,-9.963397,22.121254,21.45874)"/>
<use data-text="0" xlink:href="#font_2_1" transform="matrix(9.963197,0,0,-9.963397,27.102852,21.45874)"/>
<path transform="matrix(1.00006,0,0,-1.00008,36.45553,230.8685)" stroke-width="1.59404" stroke-linecap="butt" stroke-miterlimit="10" stroke-linejoin="miter" fill="none" stroke="#00aeef" d="M0 212.60321H127.56192"/>
<use data-text="T" xlink:href="#font_3_104" transform="matrix(9.963197,0,0,-9.963397,69.81253,252.92527)"/>
<use data-text="i" xlink:href="#font_3_66" transform="matrix(9.963197,0,0,-9.963397,77.78308,252.92527)"/>
<use data-text="m" xlink:href="#font_3_75" transform="matrix(9.963197,0,0,-9.963397,80.96135,252.92527)"/>
<use data-text="e" xlink:href="#font_3_50" transform="matrix(9.963197,0,0,-9.963397,90.50609,252.92527)"/>
<use data-text="(" xlink:href="#font_3_85" transform="matrix(9.963197,0,0,-9.963397,99.56264,252.92527)"/>
<use data-text="d" xlink:href="#font_3_47" transform="matrix(9.963197,0,0,-9.963397,104.016178,252.92527)"/>
<use data-text="a" xlink:href="#font_3_28" transform="matrix(9.963197,0,0,-9.963397,110.38266,252.92527)"/>
<use data-text="y" xlink:href="#font_3_118" transform="matrix(9.963197,0,0,-9.963397,115.643238,252.92527)"/>
<use data-text="s" xlink:href="#font_3_98" transform="matrix(9.963197,0,0,-9.963397,121.6909,252.92527)"/>
<use data-text=")" xlink:href="#font_3_86" transform="matrix(9.963197,0,0,-9.963397,126.2142,252.92527)"/>
<use data-text="N" xlink:href="#font_3_76" transform="matrix(0,-9.963397,-9.963197,-0,7.508789,191.46335)"/>
<use data-text="u" xlink:href="#font_3_109" transform="matrix(0,-9.963397,-9.963197,-0,7.508789,182.49629)"/>
<use data-text="m" xlink:href="#font_3_75" transform="matrix(0,-9.963397,-9.963197,-0,7.508789,176.12969)"/>
<use data-text="b" xlink:href="#font_3_35" transform="matrix(0,-9.963397,-9.963197,-0,7.508789,166.90358)"/>
<use data-text="e" xlink:href="#font_3_50" transform="matrix(0,-9.963397,-9.963197,-0,7.508789,160.2281)"/>
<use data-text="r" xlink:href="#font_3_96" transform="matrix(0,-9.963397,-9.963197,-0,7.508789,154.97739)"/>
<use data-text="o" xlink:href="#font_3_81" transform="matrix(0,-9.963397,-9.963197,-0,7.508789,146.43875)"/>
<use data-text="f" xlink:href="#font_3_55" transform="matrix(0,-9.963397,-9.963197,-0,7.508789,140.7098)"/>
<use data-text="i" xlink:href="#font_3_66" transform="matrix(0,-9.963397,-9.963197,-0,7.508789,133.39667)"/>
<use data-text="n" xlink:href="#font_3_77" transform="matrix(0,-9.963397,-9.963197,-0,7.508789,130.21834)"/>
<use data-text="f" xlink:href="#font_3_55" transform="matrix(0,-9.963397,-9.963197,-0,7.508789,123.85173)"/>
<use data-text="e" xlink:href="#font_3_50" transform="matrix(0,-9.963397,-9.963197,-0,7.508789,120.35458)"/>
<use data-text="c" xlink:href="#font_3_43" transform="matrix(0,-9.963397,-9.963197,-0,7.508789,115.10387)"/>
<use data-text="t" xlink:href="#font_3_105" transform="matrix(0,-9.963397,-9.963197,-0,7.508789,110.01256)"/>
<use data-text="e" xlink:href="#font_3_50" transform="matrix(0,-9.963397,-9.963197,-0,7.508789,105.55893)"/>
<use data-text="d" xlink:href="#font_3_47" transform="matrix(0,-9.963397,-9.963197,-0,7.508789,100.30823)"/>
<use data-text="p" xlink:href="#font_3_84" transform="matrix(0,-9.963397,-9.963197,-0,7.508789,90.125629)"/>
<use data-text="e" xlink:href="#font_3_50" transform="matrix(0,-9.963397,-9.963197,-0,7.508789,83.43022)"/>
<use data-text="o" xlink:href="#font_3_81" transform="matrix(0,-9.963397,-9.963197,-0,7.508789,78.17952)"/>
<use data-text="p" xlink:href="#font_3_84" transform="matrix(0,-9.963397,-9.963197,-0,7.508789,72.45056)"/>
<use data-text="l" xlink:href="#font_3_72" transform="matrix(0,-9.963397,-9.963197,-0,7.508789,66.08394)"/>
<use data-text="e" xlink:href="#font_3_50" transform="matrix(0,-9.963397,-9.963197,-0,7.508789,62.90561)"/>
</svg>
