<svg xmlns="http://www.w3.org/2000/svg" xmlns:xlink="http://www.w3.org/1999/xlink" version="1.1" width="98" height="184" viewBox="0 0 98 184">
<defs>
<path id="font_1_1" d="M.33399964 .30233766C.33999635 .32835389 .36299134 .42037965 .43299867 .42037965 .43798829 .42037965 .46199037 .42037965 .48298646 .40734864 .45498658 .402359 .43499757 .37734986 .43499757 .35334779 .43499757 .33735658 .44599916 .31835938 .47299195 .31835938 .49499513 .31835938 .5269928 .3363495 .5269928 .37635804 .5269928 .42837525 .46798707 .4423828 .43399049 .4423828 .37599183 .4423828 .34098817 .38935853 .32899476 .36634828 .3039856 .43237306 .25 .4423828 .22099304 .4423828 .116989139 .4423828 .05999756 .3133545 .05999756 .28834535 .05999756 .27833558 .069992069 .27833558 .07199097 .27833558 .07998657 .27833558 .08299255 .28033448 .084991458 .28933717 .11898804 .39535523 .18499756 .42037965 .21899414 .42037965 .23799134 .42037965 .272995 .4113617 .272995 .35334779 .272995 .32235719 .2559967 .25532533 .21899414 .11528015 .20298767 .053268434 .16799927 .011245728 .12399292 .011245728 .117996219 .011245728 .09498596 .011245728 .07398987 .024276734 .09899902 .029266358 .12098694 .05027771 .12098694 .07827759 .12098694 .105270389 .09899902 .11328125 .083999637 .11328125 .053985597 .11328125 .0289917 .08728027 .0289917 .055267335 .0289917 .009246826 .07899475-.0107421879 .12298584-.0107421879 .18899536-.0107421879 .22499085 .059280397 .22799683 .0652771 .23999024 .028274537 .27598573-.0107421879 .33599855-.0107421879 .43899537-.0107421879 .49598695 .118270877 .49598695 .14328003 .49598695 .1532898 .4869995 .1532898 .48399354 .1532898 .47499085 .1532898 .47299195 .14929199 .47099305 .14228821 .43798829 .03527832 .36999513 .011245728 .33799745 .011245728 .29899598 .011245728 .2829895 .043273927 .2829895 .07727051 .2829895 .09927368 .2889862 .121276859 .2999878 .16529846L.33399964 .30233766Z"/>
<path id="font_1_2" d="M.48599244 .38136292C.48999024 .39537049 .48999024 .39736939 .48999024 .40437318 .48999024 .42237855 .47599793 .43138124 .46099855 .43138124 .45098878 .43138124 .43499757 .42536927 .42599488 .41036988 .42399598 .405365 .41600038 .37435914 .4119873 .35635377 .40499879 .33035279 .397995 .30334474 .3919983 .27633668L.34700013 .09628296C.34298707 .08126831 .2999878 .011245728 .23399353 .011245728 .18299866 .011245728 .17199707 .055267335 .17199707 .0922699 .17199707 .1382904 .18899536 .20030213 .22299195 .28833009 .23899842 .3293457 .24299622 .3403473 .24299622 .36035157 .24299622 .405365 .21099854 .4423828 .16099549 .4423828 .06599426 .4423828 .0289917 .29733277 .0289917 .28833009 .0289917 .27833558 .038986207 .27833558 .040985109 .27833558 .050994874 .27833558 .051986696 .28033448 .056991579 .29634095 .083999637 .3903656 .12399292 .42037965 .1579895 .42037965 .1659851 .42037965 .18299866 .42037965 .18299866 .3883667 .18299866 .36335755 .17298889 .3373413 .1659851 .31834413 .12599182 .21231079 .10798645 .1552887 .10798645 .10827637 .10798645 .019256592 .17098999-.0107421879 .22999573-.0107421879 .2689972-.0107421879 .30299378 .0062561037 .33099366 .03425598 .31799317-.017745972 .30599977-.06674194 .2659912-.11973572 .23999024-.15385437 .20199585-.18309021 .1559906-.18309021 .14199829-.18309021 .09700012-.18005371 .07998657-.14074707 .09599304-.14074707 .10899353-.14074707 .12298584-.1287384 .1329956-.11973572 .14299011-.10673523 .14299011-.08773804 .14299011-.056747438 .115997318-.052734376 .10598755-.052734376 .08299255-.052734376 .049987794-.068740848 .049987794-.11773682 .049987794-.16796875 .09399414-.20507813 .1559906-.20507813 .25898744-.20507813 .3619995-.11373901 .3899994-.00074768069L.48599244 .38136292Z"/>
<path id="font_2_1" d="M.6589966 .23046875C.6759949 .23046875 .69400027 .23046875 .69400027 .25045777 .69400027 .27046205 .6759949 .27046205 .6589966 .27046205H.117996219C.100997928 .27046205 .08299255 .27046205 .08299255 .25045777 .08299255 .23046875 .100997928 .23046875 .117996219 .23046875H.6589966Z"/>
<path id="font_3_1" d="M.1269989 .07699585 .23298645 .18003845C.3889923 .31811524 .44898988 .3721466 .44898988 .47216798 .44898988 .5860901 .35899354 .6660156 .23699951 .6660156 .12399292 .6660156 .049987794 .57411196 .049987794 .48516847 .049987794 .4291687 .099990848 .4291687 .102996829 .4291687 .11999512 .4291687 .15499878 .44117738 .15499878 .48217774 .15499878 .5081787 .13699341 .5341797 .101989749 .5341797 .09399414 .5341797 .09199524 .5341797 .08898926 .5331726 .11199951 .59806826 .1659851 .63500979 .22399903 .63500979 .31498719 .63500979 .35798646 .5541382 .35798646 .47216798 .35798646 .39215089 .30799867 .31311036 .25299073 .25108338L.06098938 .036987306C.049987794 .025985718 .049987794 .023986817 .049987794 0H.42099L.44898988 .17404175H.42399598C.4189911 .14402771 .4119873 .1000061 .4019928 .084991458 .394989 .07699585 .32899476 .07699585 .30699159 .07699585H.1269989Z"/>
<path id="font_3_2" d="M.2939911 .16503906V.07800293C.2939911 .041992189 .2919922 .0309906 .21798706 .0309906H.19699097V0C.23799134 .0029907227 .2899933 .0029907227 .33198548 .0029907227 .37399293 .0029907227 .4269867 .0029907227 .46798707 0V.0309906H.44699098C.37298585 .0309906 .37098695 .041992189 .37098695 .07800293V.16503906H.47099305V.19602967H.37098695V.65075686C.37098695 .67074587 .37098695 .6767578 .35499574 .6767578 .34599305 .6767578 .34298707 .6767578 .33499146 .66474917L.027999878 .19602967V.16503906H.2939911M.2999878 .19602967H.055999757L.2999878 .5688019V.19602967Z"/>
<path id="font_4_85" d="M.33099366-.2400055C.33099366-.23701477 .33099366-.23500061 .31399537-.21800232 .18899536-.0920105 .15699768 .09700012 .15699768 .25 .15699768 .42399598 .19499207 .59799197 .31799317 .72299197 .33099366 .7350006 .33099366 .7369995 .33099366 .73999026 .33099366 .746994 .32699586 .75 .32099916 .75 .31098939 .75 .22099304 .6819916 .1619873 .5549927 .11099243 .44499208 .09899902 .33399964 .09899902 .25 .09899902 .17199707 .10998535 .050994874 .16499329-.06201172 .22499085-.18501282 .31098939-.25 .32099916-.25 .32699586-.25 .33099366-.24700928 .33099366-.2400055Z"/>
<path id="font_4_35" d="M.5209961 .2163086C.5209961 .34335328 .4229889 .4423828 .30899049 .4423828 .23098755 .4423828 .18798828 .39537049 .17199707 .3773651V.69433596L.027999878 .68333438V.6523285C.09799194 .6523285 .10598755 .6453247 .10598755 .596344V.00024414063H.1309967L.16699219 .06227112C.18199158 .039260866 .22399903-.0107421879 .2979889-.0107421879 .4169922-.0107421879 .5209961 .08728027 .5209961 .2163086M.43798829 .21731568C.43798829 .18029785 .43598939 .120285037 .40699769 .07527161 .38598634 .044265748 .34799195 .011245728 .2939911 .011245728 .24899292 .011260986 .21299744 .03526306 .18899536 .072265628 .1749878 .09326172 .1749878 .09625244 .1749878 .11425781V.32034303C.1749878 .3393402 .1749878 .3403473 .18598938 .35635377 .22499085 .41236878 .27999879 .42037965 .3039856 .42037965 .34899903 .42037965 .3849945 .3943634 .40899659 .35635377 .43499757 .31533814 .43798829 .25831605 .43798829 .21730042V.21731568Z"/>
<path id="font_4_86" d="M.2889862 .25C.2889862 .32798768 .27799989 .44898988 .22299195 .56199648 .16299439 .68499758 .07699585 .75 .066986087 .75 .06098938 .75 .056991579 .74598696 .056991579 .73999026 .056991579 .7369995 .056991579 .7350006 .07598877 .71699526 .17399597 .6179962 .23098755 .45899964 .23098755 .25 .23098755 .07899475 .19400025-.09700012 .069992069-.2230072 .056991579-.23500061 .056991579-.23701477 .056991579-.2400055 .056991579-.2460022 .06098938-.25 .066986087-.25 .07699585-.25 .16699219-.18200684 .22599793-.055007936 .2769928 .054992677 .2889862 .16600037 .2889862 .25Z"/>
</defs>
<path transform="matrix(1.00005,0,0,-1.00006,46.769578,86.705417)" stroke-width=".3985" stroke-linecap="butt" stroke-miterlimit="10" stroke-linejoin="miter" fill="none" stroke="#00aeef" d="M-45.35419-68.0313H45.35419M-45.35419-45.35419H45.35419M-45.35419-22.6771H45.35419M-45.35419 0H45.35419M-45.35419 22.6771H45.35419M-45.35419 45.35419H45.35419M-45.35419 68.02731H45.35419M-45.35419-68.0313V68.0313M-22.6771-68.0313V68.0313M0-68.0313V68.0313M22.6771-68.0313V68.0313M45.3502-68.0313V68.0313M45.35419 68.0313"/>
<path transform="matrix(1.00005,0,0,-1.00006,46.769578,86.705417)" stroke-width=".79701" stroke-linecap="butt" stroke-miterlimit="10" stroke-linejoin="miter" fill="none" stroke="#000000" d="M-34.01564 0H39.38423"/>
<path transform="matrix(1.00005,0,0,-1.00006,86.15578,86.705417)" d="M1.0361 0C-.25902 .25902-1.55415 .77707-3.1083 1.68365-1.55415 .51805-1.55415-.51805-3.1083-1.68365-1.55415-.77707-.25902-.25902 1.0361 0Z"/>
<path transform="matrix(1.00005,0,0,-1.00006,86.15578,86.705417)" stroke-width=".79701" stroke-linecap="butt" stroke-linejoin="round" fill="none" stroke="#000000" d="M1.0361 0C-.25902 .25902-1.55415 .77707-3.1083 1.68365-1.55415 .51805-1.55415-.51805-3.1083-1.68365-1.55415-.77707-.25902-.25902 1.0361 0Z"/>
<use data-text="x" xlink:href="#font_1_1" transform="matrix(9.963098,0,0,-9.963197,91.3098,88.85054)"/>
<path transform="matrix(1.00005,0,0,-1.00006,46.769578,86.705417)" stroke-width=".79701" stroke-linecap="butt" stroke-miterlimit="10" stroke-linejoin="miter" fill="none" stroke="#000000" d="M0-68.0313V73.39987"/>
<path transform="matrix(0,-1.00006,-1.00005,-0,46.769578,13.30114)" d="M1.0361 0C-.25902 .25902-1.55415 .77707-3.1083 1.68365-1.55415 .51805-1.55415-.51805-3.1083-1.68365-1.55415-.77707-.25902-.25902 1.0361 0Z"/>
<path transform="matrix(0,-1.00006,-1.00005,-0,46.769578,13.30114)" stroke-width=".79701" stroke-linecap="butt" stroke-linejoin="round" fill="none" stroke="#000000" d="M1.0361 0C-.25902 .25902-1.55415 .77707-3.1083 1.68365-1.55415 .51805-1.55415-.51805-3.1083-1.68365-1.55415-.77707-.25902-.25902 1.0361 0Z"/>
<use data-text="y" xlink:href="#font_1_2" transform="matrix(9.963098,0,0,-9.963197,44.148447,6.209587)"/>
<path transform="matrix(1.00005,0,0,-1.00006,46.769578,86.705417)" stroke-width=".3985" stroke-linecap="butt" stroke-miterlimit="10" stroke-linejoin="miter" fill="none" stroke="#000000" d="M-22.6771 1.13391V-1.13374"/>
<path transform="matrix(1.00005,0,0,-1.00006,46.769578,86.705417)" d="M-30.03848-12.56877H-15.315701V-3.3255406H-30.03848Z" fill="#ffffff"/>
<use data-text="&#x2212;" xlink:href="#font_2_1" transform="matrix(9.963098,0,0,-9.963197,17.726128,97.44806)"/>
<use data-text="2" xlink:href="#font_3_1" transform="matrix(9.963098,0,0,-9.963197,25.475518,97.44806)"/>
<path transform="matrix(1.00005,0,0,-1.00006,46.769578,86.705417)" stroke-width=".3985" stroke-linecap="butt" stroke-miterlimit="10" stroke-linejoin="miter" fill="none" stroke="#000000" d="M22.6771 1.13391V-1.13374"/>
<path transform="matrix(1.00005,0,0,-1.00006,46.769578,86.705417)" d="M19.19012-11.73854H26.16406V-3.3255597H19.19012Z" fill="#ffffff"/>
<use data-text="2" xlink:href="#font_3_1" transform="matrix(9.963098,0,0,-9.963197,66.95659,97.44806)"/>
<path transform="matrix(1.00005,0,0,-1.00006,46.769578,86.705417)" stroke-width=".3985" stroke-linecap="butt" stroke-miterlimit="10" stroke-linejoin="miter" fill="none" stroke="#000000" d="M1.13391-45.35419H-1.13374"/>
<path transform="matrix(1.00005,0,0,-1.00006,46.769578,86.705417)" d="M-18.04832-49.9758H-3.3255406V-40.73257H-18.04832Z" fill="#ffffff"/>
<use data-text="&#x2212;" xlink:href="#font_2_1" transform="matrix(9.963098,0,0,-9.963197,29.71672,134.8573)"/>
<use data-text="4" xlink:href="#font_3_2" transform="matrix(9.963098,0,0,-9.963197,37.46611,134.8573)"/>
<path transform="matrix(1.00005,0,0,-1.00006,46.769578,86.705417)" stroke-width=".3985" stroke-linecap="butt" stroke-miterlimit="10" stroke-linejoin="miter" fill="none" stroke="#000000" d="M1.13391 45.35419H-1.13374"/>
<path transform="matrix(1.00005,0,0,-1.00006,46.769578,86.705417)" d="M-10.29948 41.14769H-3.3255406V49.56067H-10.29948Z" fill="#ffffff"/>
<use data-text="4" xlink:href="#font_3_2" transform="matrix(9.963098,0,0,-9.963197,37.46611,44.558889)"/>
<path transform="matrix(1.00005,0,0,-1.00006,46.769578,86.705417)" stroke-width="1.19553" stroke-linecap="butt" stroke-miterlimit="10" stroke-linejoin="miter" fill="none" stroke="#ff0000" d="M-17.74693-66.16853C-17.53882-64.62984-17.53882-64.62984-17.36247-63.38884-17.18614-62.14786-16.90335-60.23222-16.727-59.0803-16.55066-57.92839-16.26787-56.15273-16.09152-55.08665-15.91519-54.02058-15.6324-52.38036-15.45605-51.39682-15.27971-50.41328-14.99693-48.90242-14.82059-47.99799-14.64424-47.09358-14.36143-45.70692-14.1851-44.87839-14.00877-44.04985-13.72598-42.78249-13.54964-42.02646-13.37329-41.27045-13.0905-40.11638-12.91417-39.42955-12.73782-38.7427-12.45502-37.69716-12.27869-37.07623-12.10234-36.45529-11.81955-35.51263-11.6432-34.95424-11.46687-34.39583-11.18407-33.55078-11.00774-33.05162-10.83139-32.55244-10.5486-31.79982-10.37225-31.3566-10.1959-30.91336-9.91313-30.24776-9.73679-29.8571-9.56044-29.46645-9.27765-28.88243-9.1013-28.54099-8.92497-28.19957-8.64217-27.69182-8.46584-27.39635-8.28949-27.10088-8.0067-26.66423-7.83035-26.41139-7.65402-26.15855-7.37122-25.78758-7.19487-25.574-7.01854-25.36043-6.73575-25.04968-6.5594-24.87209-6.38306-24.69452-6.10027-24.439-5.92393-24.29407-5.74759-24.14912-5.4648-23.9431-5.28845-23.82745-5.1121-23.71179-4.82933-23.55013-4.65298-23.4605-4.47664-23.37085-4.19385-23.2484-4.01752-23.18141-3.84117-23.11443-3.55838-23.02539-3.38203-22.97778-3.20569-22.93016-2.9229-22.86974-2.74657-22.83815-2.57022-22.80656-2.28741-22.76898-2.11107-22.7501-1.93475-22.7312-1.65195-22.7115-1.4756-22.70201-1.29926-22.6925-1.01648-22.68504-.84013-22.6816-.66379-22.67812-.381-22.67778-.20465-22.6771-.02832-22.67639 .25444-22.67786 .43079-22.67657 .60713-22.67526 .88992-22.67297 1.06625-22.66774 1.2426-22.6625 1.52539-22.6513 1.70174-22.63884 1.87808-22.62639 2.16087-22.60095 2.3372-22.57794 2.51355-22.55493 2.79636-22.50986 2.97269-22.47293 3.14902-22.43602 3.43181-22.36598 3.60815-22.31186 3.7845-22.25772 4.06729-22.15744 4.24362-22.08278 4.41997-22.00812 4.70277-21.8723 4.87912-21.77379 5.05544-21.67528 5.33824-21.49843 5.51459-21.37274 5.69093-21.24706 5.97371-21.02408 6.15005-20.86789 6.3264-20.71169 6.60919-20.43697 6.78554-20.24695 6.96187-20.05692 7.24466-19.72548 7.421-19.49832 7.59735-19.27116 7.88016-18.87737 8.05647-18.60974 8.23282-18.3421 8.51563-17.88083 8.69197-17.56941 8.8683-17.258 9.1511-16.72382 9.32744-16.36523 9.50378-16.00668 9.78658-15.39413 9.9629-14.9851 10.13925-14.5761 10.42204-13.88005 10.59839-13.41727 10.77473-12.95451 11.05751-12.1696 11.23386-11.64978 11.4102-11.12996 11.69301-10.25096 11.86934-9.67068 12.04567-9.09041 12.32846-8.11156 12.5048-7.46756 12.68115-6.82353 12.96393-5.74017 13.14027-5.02911 13.31662-4.31805 13.59943-3.12418 13.77576-2.34274 13.95209-1.56131 14.2349-.2522 14.41124 .60294 14.58757 1.45808 14.87038 2.88843 15.0467 3.82062 15.22305 4.75279 15.50584 6.30902 15.68219 7.32152 15.85854 8.33403 16.14131 10.02188 16.31766 11.11812 16.494 12.21436 16.7768 14.03928 16.95313 15.22249 17.12947 16.40572 17.41228 18.37236 17.58861 19.6459 17.76495 20.91945 18.04774 23.03413 18.22409 24.40132 18.40042 25.76851 18.68323 28.0355 18.85957 29.49966 19.0359 30.9638 19.3187 33.38942 19.49504 34.95389 19.67139 36.51834 19.95416 39.10716 20.13051 40.77524 20.30685 42.44331 20.58965 45.20114 20.76599 46.97617 20.94232 48.75122 21.22511 51.68321 21.40146 53.56848 21.5778 55.45374 21.8606 58.56499 22.03693 60.5639 22.21327 62.5628 22.67241 67.97523 22.51414 66.10905"/>
<path transform="matrix(-.13403669,.9909994,.99098947,.13403803,29.02177,152.87792)" d="M1.27522 0C-.31879 .31879-1.91284 .9564-3.8257 2.07224-1.91284 .6376-1.91284-.6376-3.8257-2.07224-1.91284-.9564-.31879-.31879 1.27522 0Z" fill="#ff0000"/>
<path transform="matrix(-.13403669,.9909994,.99098947,.13403803,29.02177,152.87792)" stroke-width="1.19553" stroke-linecap="butt" stroke-linejoin="round" fill="none" stroke="#ff0000" d="M1.27522 0C-.31879 .31879-1.91284 .9564-3.8257 2.07224-1.91284 .6376-1.91284-.6376-3.8257-2.07224-1.91284-.9564-.31879-.31879 1.27522 0Z"/>
<path transform="matrix(.08450422,-.99642977,-.9964198,-.08450507,69.284839,20.5924)" d="M1.27522 0C-.31879 .31879-1.91284 .9564-3.8257 2.07224-1.91284 .6376-1.91284-.6376-3.8257-2.07224-1.91284-.9564-.31879-.31879 1.27522 0Z" fill="#ff0000"/>
<path transform="matrix(.08450422,-.99642977,-.9964198,-.08450507,69.284839,20.5924)" stroke-width="1.19553" stroke-linecap="butt" stroke-linejoin="round" fill="none" stroke="#ff0000" d="M1.27522 0C-.31879 .31879-1.91284 .9564-3.8257 2.07224-1.91284 .6376-1.91284-.6376-3.8257-2.07224-1.91284-.9564-.31879-.31879 1.27522 0Z"/>
<use data-text="(" xlink:href="#font_4_85" transform="matrix(9.963098,0,0,-9.963197,40.124246,179.91)"/>
<use data-text="b" xlink:href="#font_4_35" transform="matrix(9.963098,0,0,-9.963197,43.9999,179.91)"/>
<use data-text=")" xlink:href="#font_4_86" transform="matrix(9.963098,0,0,-9.963197,49.539377,179.91)"/>
</svg>
