<svg xmlns="http://www.w3.org/2000/svg" xmlns:xlink="http://www.w3.org/1999/xlink" version="1.1" width="251" height="181" viewBox="0 0 251 181">
<defs>
<path id="font_1_42" d="M.6649933 .23271179C.6649933 .24272156 .6649933 .24972534 .6519928 .24972534 .6409912 .24972534 .6409912 .24372864 .6399994 .23371887 .6319885 .09059143 .5249939 .008529663 .41600038 .008529663 .35499574 .008529663 .15899658 .042556764 .15899658 .34080506 .15899658 .64004519 .35398866 .67407229 .4149933 .67407229 .5239868 .67407229 .61299136 .58299258 .6329956 .4368744 .6349945 .42286683 .6349945 .41986085 .6489868 .41986085 .6649933 .41986085 .6649933 .42286683 .6649933 .44387818V.68107607C.6649933 .69807437 .6649933 .7050781 .6539917 .7050781 .6499939 .7050781 .6459961 .7050781 .6380005 .69306948L.58799746 .61901858C.5509949 .6550598 .5 .7050781 .4039917 .7050781 .21699524 .7050781 .055999757 .5459595 .055999757 .34179688 .055999757 .1346283 .21798706-.022460938 .4039917-.022460938 .5669861-.022460938 .6649933 .116622928 .6649933 .23271179Z"/>
<path id="font_1_72" d="M.25498963 0V.0309906C.18798828 .0309906 .1769867 .0309906 .1769867 .07601929V.69433596L.032989503 .6826172V.6516113C.102996829 .6516113 .11099243 .64460757 .11099243 .5956421V.07595825C.11099243 .0309906 .099990848 .0309906 .032989503 .0309906V0L.14399719 .0029907227 .25498963 0Z"/>
<path id="font_1_109" d="M.5349884 0V.0309906C.46499635 .0309906 .45700074 .037994386 .45700074 .08705139V.4423828L.30999757 .43066407V.3996582C.37998963 .3996582 .3880005 .39266969 .3880005 .34373475V.16601563C.3880005 .07910156 .33999635 .011245728 .2669983 .011245728 .18299866 .011245728 .1789856 .058135988 .1789856 .11009216V.4423828L.03199768 .43066407V.3996582C.10998535 .3996582 .10998535 .39666749 .10998535 .3078003V.15802002C.10998535 .080093387 .10998535-.0107421879 .2619934-.0107421879 .31799317-.0107421879 .3619995 .017242432 .3909912 .07910156V-.0107421879L.5349884 0Z"/>
<path id="font_1_105" d="M.33198548 .12385559V.18066406H.30699159V.12585449C.30699159 .052108766 .2769928 .014251709 .23999024 .014251709 .17298889 .014251709 .17298889 .10491943 .17298889 .12187195V.3996582H.31599427V.43066407H.17298889V.6142578H.147995C.14698792 .5324249 .116989139 .42565919 .018997193 .42166139V.3996582H.10398865V.12408447C.10398865 .0012512207 .19699097-.0107421879 .23298645-.0107421879 .3039856-.0107421879 .33198548 .060180665 .33198548 .12408447V.12385559Z"/>
<path id="font_1_43" d="M.4149933 .119140628C.4149933 .12911988 .40499879 .12911988 .4019928 .12911988 .3929901 .12911988 .3909912 .12512207 .3889923 .119140628 .3600006 .026229859 .29499818 .014251709 .2579956 .014251709 .20498657 .014251709 .116989139 .0572052 .116989139 .21801758 .116989139 .38093568 .19898987 .42323304 .2519989 .42323304 .26098634 .42323304 .32398988 .42222596 .35899354 .38594056 .31799317 .38293458 .31199647 .3529358 .31199647 .3399353 .31199647 .31393434 .32998658 .2939453 .35798646 .2939453 .38398744 .2939453 .4039917 .3109436 .4039917 .34094239 .4039917 .40911866 .32798768 .4482422 .25099183 .4482422 .12599182 .4482422 .033996583 .3399353 .033996583 .21601868 .033996583 .08816528 .1329956-.0107421879 .24899292-.0107421879 .3829956-.0107421879 .4149933 .10914612 .4149933 .119140628Z"/>
<path id="font_1_63" d="M.5349884 0V.0309906C.48298646 .0309906 .45799256 .0309906 .45700074 .061019899V.25221253C.45700074 .3383026 .45700074 .36932374 .42599488 .405365 .4119873 .42237855 .3789978 .4423828 .32099916 .4423828 .23699951 .4423828 .19299317 .38233949 .1769867 .34629823H.17599488V.69433596L.03199768 .6826172V.6516113C.101989749 .6516113 .10998535 .64463809 .10998535 .59580996V.076034549C.10998535 .0309906 .09899902 .0309906 .03199768 .0309906V0L.14498902 .0029907227 .25698854 0V.0309906C.18998719 .0309906 .1789856 .0309906 .1789856 .076034549V.2602234C.1789856 .36431886 .25 .42037965 .31399537 .42037965 .3769989 .42037965 .3880005 .36631776 .3880005 .30926515V.076034549C.3880005 .0309906 .3769989 .0309906 .30999757 .0309906V0L.4229889 .0029907227 .5349884 0Z"/>
<path id="font_1_98" d="M.3600006 .12823487C.3600006 .18122864 .32998658 .21122742 .31799317 .22323609 .2849884 .25523377 .24598694 .26322938 .20399475 .27124024 .147995 .28224183 .08099365 .29522706 .08099365 .35324098 .08099365 .38822938 .10699463 .42922975 .19299317 .42922975 .30299378 .42922975 .30799867 .3392334 .30999757 .30822755 .31098939 .2992401 .32199098 .2992401 .32199098 .2992401 .33499146 .2992401 .33499146 .30422975 .33499146 .32322694V.4242401C.33499146 .4412384 .33499146 .4482422 .32398988 .4482422 .31900025 .4482422 .31698609 .4482422 .3039856 .43623353 .30099488 .43223573 .29100038 .42323304 .2869873 .42022706 .24899292 .4482422 .20799256 .4482422 .19299317 .4482422 .070999149 .4482422 .032989503 .38124085 .032989503 .3252411 .032989503 .29023744 .04899597 .26223756 .07598877 .24023438 .10798645 .2142334 .13598633 .2082367 .20799256 .19422913 .22999573 .19021607 .31199647 .17422486 .31199647 .10221863 .31199647 .051223756 .2769928 .011245728 .19898987 .011245728 .114990238 .011245728 .07899475 .068222049 .05999756 .1532135 .056991579 .16621399 .055999757 .17021179 .04598999 .17021179 .032989503 .17021179 .032989503 .16322327 .032989503 .1452179V.013214111C.032989503-.003753662 .032989503-.0107421879 .04399109-.0107421879 .04899597-.0107421879 .049987794-.009750366 .068984989 .009246826 .070999149 .011245728 .070999149 .013214111 .08898926 .032226564 .1329956-.009750366 .17799378-.0107421879 .19898987-.0107421879 .31399537-.0107421879 .3600006 .05621338 .3600006 .1282196V.12823487Z"/>
<path id="font_1_66" d="M.24699402 0V.0309906C.18099976 .0309906 .1769867 .035995485 .1769867 .075042728V.4423828L.036987306 .43066407V.3996582C.101989749 .3996582 .11099243 .3936615 .11099243 .3447113V.07595825C.11099243 .0309906 .099990848 .0309906 .032989503 .0309906V0L.14299011 .0029907227C.17799378 .0029907227 .21299744 .0009918213 .24699402 0M.19198609 .603775C.19198609 .6307678 .16899109 .6567688 .13899231 .6567688 .10499573 .6567688 .084991458 .6287689 .084991458 .603775 .084991458 .57676699 .10798645 .55078127 .13798523 .55078127 .17199707 .55078127 .19198609 .5787811 .19198609 .603775Z"/>
<path id="font_1_120" d="M.40098573 .18684387H.37599183C.36698915 .06895447 .34599305 .024993897 .22999573 .024993897H.11199951L.3899994 .40066529C.39898683 .4116516 .39898683 .4136505 .39898683 .41766358 .39898683 .43066407 .3909912 .43066407 .37298585 .43066407H.052993776L.041992189 .2697754H.066986087C.07299805 .37168885 .09199524 .4086609 .20199585 .4086609H.31599427L.036987306 .031982423C.027999878 .020996094 .027999878 .018997193 .027999878 .01399231 .027999878 0 .034988405 0 .053985597 0H.38398744L.40098573 .18684387Z"/>
<path id="font_1_50" d="M.4149933 .11933899C.4149933 .12934876 .40699769 .13134766 .4019928 .13134766 .3929901 .13134766 .3909912 .12535095 .3889923 .11734009 .35398866 .014251709 .2639923 .014251709 .2539978 .014251709 .20399475 .014251709 .1639862 .044281007 .14099121 .08131409 .11099243 .12934876 .11099243 .19540406 .11099243 .23144531H.3899994C.4119873 .23144531 .4149933 .23144531 .4149933 .2524414 .4149933 .35131837 .36099244 .4482422 .23599243 .4482422 .11999512 .4482422 .027999878 .34532167 .027999878 .22042847 .027999878 .08631897 .1329956-.0107421879 .24798584-.0107421879 .36999513-.0107421879 .4149933 .10032654 .4149933 .11933899M.34899903 .2524414H.11199951C.117996219 .40126039 .20199585 .426239 .23599243 .426239 .33898927 .426239 .34899903 .2913971 .34899903 .2524414Z"/>
<path id="font_1_83" d="M.6239929 .4967041C.6239929 .59465029 .5249939 .6826172 .3880005 .6826172H.034988405V.6516113H.05899048C.13598633 .6516113 .13798523 .64060977 .13798523 .6046295V.07795715C.13798523 .041992189 .13598633 .0309906 .05899048 .0309906H.034988405V0C.069992069 .0029907227 .14399719 .0029907227 .18199158 .0029907227 .21998596 .0029907227 .29499818 .0029907227 .32998658 0V.0309906H.30599977C.22898865 .0309906 .22698975 .041992189 .22698975 .07795715V.3157959H.3959961C.5159912 .3157959 .6239929 .39675904 .6239929 .4967041M.5209961 .4967041C.5209961 .4497223 .5209961 .34179688 .3619995 .34179688H.22399903V.6116333C.22399903 .64460757 .22599793 .6516113 .272995 .6516113H.3619995C.5209961 .6516113 .5209961 .54566958 .5209961 .4967041Z"/>
<path id="font_1_96" d="M.3639984 .38137818C.3639984 .41337586 .33299256 .4423828 .2899933 .4423828 .21699524 .4423828 .18099976 .37538148 .16699219 .3323822V.4423828L.027999878 .43066407V.3996582C.09799194 .3996582 .10598755 .39266969 .10598755 .34370423V.07595825C.10598755 .0309906 .09498596 .0309906 .027999878 .0309906V0L.14199829 .0029907227C.18199158 .0029907227 .22898865 .0029907227 .2689972 0V.0309906H.24798584C.17399597 .0309906 .17199707 .04197693 .17199707 .07795715V.23181153C.17199707 .33137513 .21398926 .42037965 .2899933 .42037965 .29699708 .42037965 .29899598 .42037965 .30099488 .41937257 .2979889 .41838075 .27799989 .40637208 .27799989 .3803711 .27799989 .35237123 .29899598 .33737184 .32099916 .33737184 .33898927 .33737184 .3639984 .3493805 .3639984 .38137818Z"/>
<path id="font_1_77" d="M.5349884 0V.0309906C.48298646 .0309906 .45799256 .0309906 .45700074 .061019899V.25221253C.45700074 .3383026 .45700074 .36932374 .42599488 .405365 .4119873 .42237855 .3789978 .4423828 .32099916 .4423828 .24798584 .4423828 .20098877 .39935304 .17298889 .33729554V.4423828L.03199768 .43066407V.3996582C.101989749 .3996582 .10998535 .39266969 .10998535 .34370423V.07595825C.10998535 .0309906 .09899902 .0309906 .03199768 .0309906V0L.14498902 .0029907227 .25698854 0V.0309906C.18998719 .0309906 .1789856 .0309906 .1789856 .07595825V.25978089C.1789856 .36431886 .25 .42037965 .31399537 .42037965 .3769989 .42037965 .3880005 .36631776 .3880005 .30926515V.076034549C.3880005 .0309906 .3769989 .0309906 .30999757 .0309906V0L.4229889 .0029907227 .5349884 0Z"/>
<path id="font_1_81" d="M.47099305 .21424866C.47099305 .34223939 .37098695 .4482422 .25 .4482422 .125 .4482422 .027999878 .3392334 .027999878 .21424866 .027999878 .085250858 .13198853-.0107421879 .24899292-.0107421879 .36999513-.0107421879 .47099305 .087249759 .47099305 .21424866M.3880005 .22224427C.3880005 .18624878 .3880005 .13224793 .3659973 .08824158 .34399415 .04324341 .2999878 .014251709 .25 .014251709 .20698548 .014251709 .16299439 .035247804 .13598633 .08125305 .11099243 .12524414 .11099243 .18624878 .11099243 .22224427 .11099243 .26124574 .11099243 .31523133 .1349945 .35923768 .1619873 .40522767 .20899964 .426239 .24899292 .426239 .29299928 .426239 .33599855 .40423585 .3619995 .36123658 .3880005 .3182373 .3880005 .26023866 .3880005 .22224427Z"/>
<path id="font_1_55" d="M.35699464 .63479617C.35699464 .6717987 .31999208 .7050781 .2669983 .7050781 .19699097 .7050781 .11199951 .65179446 .11199951 .5457611V.43066407H.032989503V.3996582H.11199951V.07595825C.11199951 .0309906 .100997928 .0309906 .033996583 .0309906V0L.147995 .0029907227C.18798828 .0029907227 .23498535 .0029907227 .2749939 0V.0309906H.2539978C.17999268 .0309906 .17799378 .04197693 .17799378 .07795715V.3996582H.2919922V.43066407H.1749878V.5467529C.1749878 .63479617 .22299195 .68307498 .2669983 .68307498 .269989 .68307498 .2849884 .68307498 .2999878 .675827 .28799439 .6717987 .269989 .6587982 .269989 .6338043 .269989 .61079409 .28599549 .5907898 .31298829 .5907898 .34199525 .5907898 .35699464 .61079409 .35699464 .63479617Z"/>
<path id="font_1_112" d="M.5079956 .3996582V.43066407C.4850006 .4286499 .45599366 .42765809 .43299867 .42765809L.34599305 .43066407V.3996582C.3829956 .39865113 .3939972 .37568666 .3939972 .35671998 .3939972 .34773255 .3919983 .34373475 .3880005 .3327484L.28599549 .078125 .17399597 .35671998C.16799927 .3697052 .16799927 .37368775 .16799927 .37368775 .16799927 .3996582 .20698548 .3996582 .22499085 .3996582V.43066407L.115997318 .42765809C.08898926 .42765809 .04899597 .4286499 .018997193 .43066407V.3996582C.08198547 .3996582 .085998538 .3936615 .09899902 .36271668L.24299622 .008224487C.24899292-.0057525637 .25099183-.0107421879 .2639923-.0107421879 .2769928-.0107421879 .2809906-.0017700195 .2849884 .008224487L.41600038 .3327484C.4249878 .3557129 .44198609 .39865113 .5079956 .3996582Z"/>
<path id="font_1_59" d="M.4850006 .40411378C.4850006 .42111207 .47299195 .453125 .43399049 .453125 .4139862 .453125 .36999513 .44711305 .32798768 .40611268 .28599549 .43937684 .24398804 .4423828 .22200012 .4423828 .1289978 .4423828 .05999756 .37338258 .05999756 .29638673 .05999756 .25239564 .08198547 .21440125 .10699463 .19340515 .09399414 .17840576 .07598877 .14538574 .07598877 .11035156 .07598877 .07899475 .08898926 .04083252 .11999512 .020828248 .05999756 .003829956 .027999878-.039138795 .027999878-.07911682 .027999878-.15107727 .1269989-.20605469 .24899292-.20605469 .36698915-.20605469 .47099305-.15507508 .47099305-.07711792 .47099305-.042144777 .45700074 .008834839 .4059906 .036834718 .35299684 .064834598 .29499818 .064834598 .23399353 .064834598 .20899964 .064834598 .1659851 .064834598 .15899658 .065841678 .1269989 .069885257 .10598755 .101242069 .10598755 .13334656 .10598755 .13735962 .10598755 .16040039 .12298584 .18040467 .1619873 .15240479 .20298767 .14941406 .22200012 .14941406 .31498719 .14941406 .38398744 .21839905 .38398744 .2953949 .38398744 .3323822 .36799623 .36938478 .34298707 .39237977 .3789978 .42637635 .4149933 .43138124 .43299867 .43138124 .43299867 .43112184 .43998719 .43112184 .44299317 .43011476 .43199159 .42611695 .4269867 .41513063 .4269867 .40315248 .4269867 .38616944 .43998719 .37417604 .45599366 .37417604 .46598817 .37417604 .4850006 .3811798 .4850006 .4041443V.40411378M.30899049 .29626466C.30899049 .26930238 .30799867 .2373352 .29299928 .21235657 .2849884 .20037842 .2619934 .17240906 .22200012 .17240906 .1349945 .17240906 .1349945 .2722931 .1349945 .29527284 .1349945 .3222351 .13598633 .35420228 .15098572 .3791809 .15899658 .3913269 .18199158 .41937257 .22200012 .41937257 .30899049 .41937257 .30899049 .31922914 .30899049 .29618836V.29626466M.4189911-.07911682C.4189911-.13308716 .34799195-.18305969 .25-.18305969 .14898682-.18305969 .07998657-.13209534 .07998657-.07911682 .07998657-.03314209 .117996219 .003829956 .1619873 .0068359377H.22099304C.30699159 .0068359377 .4189911 .0068359377 .4189911-.07911682Z"/>
<path id="font_2_3" d="M.1269989 .07699585 .23298645 .18003845C.3889923 .31811524 .44898988 .3721466 .44898988 .47216798 .44898988 .5860901 .35899354 .6660156 .23699951 .6660156 .12399292 .6660156 .049987794 .57411196 .049987794 .48516847 .049987794 .4291687 .099990848 .4291687 .102996829 .4291687 .11999512 .4291687 .15499878 .44117738 .15499878 .48217774 .15499878 .5081787 .13699341 .5341797 .101989749 .5341797 .09399414 .5341797 .09199524 .5341797 .08898926 .5331726 .11199951 .59806826 .1659851 .63500979 .22399903 .63500979 .31498719 .63500979 .35798646 .5541382 .35798646 .47216798 .35798646 .39215089 .30799867 .31311036 .25299073 .25108338L.06098938 .036987306C.049987794 .025985718 .049987794 .023986817 .049987794 0H.42099L.44898988 .17404175H.42399598C.4189911 .14402771 .4119873 .1000061 .4019928 .084991458 .394989 .07699585 .32899476 .07699585 .30699159 .07699585H.1269989Z"/>
<path id="font_2_4" d="M.2939911 .16503906V.07800293C.2939911 .041992189 .2919922 .0309906 .21798706 .0309906H.19699097V0C.23799134 .0029907227 .2899933 .0029907227 .33198548 .0029907227 .37399293 .0029907227 .4269867 .0029907227 .46798707 0V.0309906H.44699098C.37298585 .0309906 .37098695 .041992189 .37098695 .07800293V.16503906H.47099305V.19602967H.37098695V.65075686C.37098695 .67074587 .37098695 .6767578 .35499574 .6767578 .34599305 .6767578 .34298707 .6767578 .33499146 .66474917L.027999878 .19602967V.16503906H.2939911M.2999878 .19602967H.055999757L.2999878 .5688019V.19602967Z"/>
<path id="font_2_5" d="M.13198853 .327713V.35173036C.13198853 .6047821 .2559967 .64100649 .30699159 .64100649 .33099366 .64100649 .37298585 .634964 .394989 .6007538 .37998963 .6007538 .33999635 .6007538 .33999635 .5557556 .33999635 .524765 .3639984 .5097656 .38598634 .5097656 .4019928 .5097656 .43199159 .51875308 .43199159 .5577545 .43199159 .6178589 .3880005 .6660156 .30499269 .6660156 .1769867 .6660156 .041992189 .5367584 .041992189 .31570436 .041992189 .048553468 .1579895-.022460938 .25099183-.022460938 .3619995-.022460938 .45700074 .07156372 .45700074 .2036438 .45700074 .33070375 .36799623 .4267578 .25698854 .4267578 .18899536 .4267578 .1519928 .37573243 .13198853 .327713M.25099183 .0055389406C.18798828 .0055389406 .1579895 .06556702 .1519928 .080566409 .13398743 .127594 .13398743 .2076416 .13398743 .22564698 .13398743 .30369569 .1659851 .40374757 .2559967 .40374757 .27198792 .40374757 .31799317 .40374757 .34899903 .34172059 .36698915 .30470277 .36698915 .2536621 .36698915 .20463562 .36698915 .15661621 .36698915 .10658264 .34999085 .0705719 .31999208 .010528564 .27398683 .0055389406 .25099183 .0055389406Z"/>
<path id="font_2_6" d="M.16299439 .4569702C.116989139 .486969 .11299133 .52098086 .11299133 .5379791 .11299133 .598999 .17799378 .64100649 .24899292 .64100649 .32199098 .64100649 .38598634 .58898928 .38598634 .51698306 .38598634 .45996095 .34700013 .4119568 .2869873 .37695313L.16299439 .4569702M.30899049 .36193849C.3809967 .3989563 .42999269 .45095826 .42999269 .51698306 .42999269 .6090088 .34098817 .6660156 .25 .6660156 .1499939 .6660156 .068984989 .59199526 .068984989 .49897767 .068984989 .4809723 .070999149 .43595887 .11299133 .38894654 .12399292 .37695313 .16099549 .35194398 .18598938 .33494569 .12799073 .30592347 .041992189 .24984741 .041992189 .15072632 .041992189 .04458618 .14399719-.022460938 .24899292-.022460938 .3619995-.022460938 .45700074 .06060791 .45700074 .16773987 .45700074 .20379639 .44599916 .24885559 .4079895 .2909088 .3889923 .31193543 .37298585 .3219452 .30899049 .36193849M.20899964 .3199463 .33198548 .24183655C.3600006 .2228241 .40699769 .19277954 .40699769 .13169861 .40699769 .05760193 .33198548 .0055389406 .25 .0055389406 .1639862 .0055389406 .09199524 .067611698 .09199524 .15072632 .09199524 .20880127 .12399292 .27288819 .20899964 .3199463Z"/>
<path id="font_2_2" d="M.2939911 .64004519C.2939911 .66400149 .2939911 .6660156 .2709961 .6660156 .20899964 .60227969 .12098694 .60227969 .08898926 .60227969V.57128909C.10899353 .57128909 .16799927 .57128909 .21998596 .5972748V.07902527C.21998596 .042999269 .21699524 .0309906 .1269989 .0309906H.09498596V0C.12998963 .0029907227 .21699524 .0029907227 .25698854 .0029907227 .29699708 .0029907227 .38398744 .0029907227 .4189911 0V.0309906H.3869934C.29699708 .0309906 .2939911 .041992189 .2939911 .07902527V.64004519Z"/>
<path id="font_2_1" d="M.45999146 .31976319C.45999146 .39982606 .45498658 .47988893 .41999818 .5539398 .37399293 .65000918 .2919922 .6660156 .25 .6660156 .18998719 .6660156 .116989139 .64001467 .07598877 .54693606 .04399109 .47789 .038986207 .39982606 .038986207 .31976319 .038986207 .24472046 .042999269 .15464783 .083999637 .07859802 .1269989-.0024719239 .19999695-.022460938 .24899292-.022460938 .30299378-.022460938 .3789978-.0014648438 .4229889 .09359741 .45498658 .16265869 .45999146 .2407074 .45999146 .31976319M.24899292-.00047302247C.20999146-.00047302247 .15098572 .024551392 .1329956 .12062073 .12199402 .18066406 .12199402 .2727356 .12199402 .3317871 .12199402 .39582826 .12199402 .46188355 .12998963 .5159149 .14898682 .63500979 .22399903 .64401248 .24899292 .64401248 .28199769 .64401248 .34799195 .6259918 .36698915 .52693179 .3769989 .47088624 .3769989 .39482118 .3769989 .3317871 .3769989 .25672914 .3769989 .18867493 .3659973 .12461853 .35099793 .029556275 .2939911-.00047302247 .24899292-.00047302247Z"/>
</defs>
<path transform="matrix(1.00003,0,0,-1.00006,42.678956,151.24417)" stroke-width=".3985" stroke-linecap="butt" stroke-miterlimit="10" stroke-linejoin="miter" fill="none" stroke="#00aeef" d="M0 0H198.42766M0 28.3468H198.42766M0 56.69362H198.42766M0 85.04042H198.42766M0 113.38724H198.42766M0 141.72905H198.42766M0 0V141.73404M28.3468 0V141.73404M56.69362 0V141.73404M85.04042 0V141.73404M113.38724 0V141.73404M141.73404 0V141.73404M170.08086 0V141.73404M198.42267 0V141.73404M198.42766 141.73404"/>
<path transform="matrix(1.00003,0,0,-1.00006,42.678956,151.24417)" stroke-width=".79701" stroke-linecap="butt" stroke-miterlimit="10" stroke-linejoin="miter" fill="none" stroke="#000000" d="M0 0H205.49718"/>
<path transform="matrix(1.00003,0,0,-1.00006,248.18231,151.24417)" d="M1.0361 0C-.25902 .25902-1.55415 .77707-3.1083 1.68365-1.55415 .51805-1.55415-.51805-3.1083-1.68365-1.55415-.77707-.25902-.25902 1.0361 0Z"/>
<path transform="matrix(1.00003,0,0,-1.00006,248.18231,151.24417)" stroke-width=".79701" stroke-linecap="butt" stroke-linejoin="round" fill="none" stroke="#000000" d="M1.0361 0C-.25902 .25902-1.55415 .77707-3.1083 1.68365-1.55415 .51805-1.55415-.51805-3.1083-1.68365-1.55415-.77707-.25902-.25902 1.0361 0Z"/>
<use data-text="C" xlink:href="#font_1_42" transform="matrix(9.962899,0,0,-9.963197,122.18634,178.99683)"/>
<use data-text="l" xlink:href="#font_1_72" transform="matrix(9.962899,0,0,-9.963197,129.37955,178.99683)"/>
<use data-text="u" xlink:href="#font_1_109" transform="matrix(9.962899,0,0,-9.963197,132.14925,178.99683)"/>
<use data-text="t" xlink:href="#font_1_105" transform="matrix(9.962899,0,0,-9.963197,137.68862,178.99683)"/>
<use data-text="c" xlink:href="#font_1_43" transform="matrix(9.962899,0,0,-9.963197,141.56418,178.99683)"/>
<use data-text="h" xlink:href="#font_1_63" transform="matrix(9.962899,0,0,-9.963197,145.71872,178.99683)"/>
<use data-text="s" xlink:href="#font_1_98" transform="matrix(9.962899,0,0,-9.963197,154.56577,178.99683)"/>
<use data-text="i" xlink:href="#font_1_66" transform="matrix(9.962899,0,0,-9.963197,158.49115,178.99683)"/>
<use data-text="z" xlink:href="#font_1_120" transform="matrix(9.962899,0,0,-9.963197,161.26084,178.99683)"/>
<use data-text="e" xlink:href="#font_1_50" transform="matrix(9.962899,0,0,-9.963197,165.68437,178.99683)"/>
<path transform="matrix(1.00003,0,0,-1.00006,42.678956,151.24417)" stroke-width=".79701" stroke-linecap="butt" stroke-miterlimit="10" stroke-linejoin="miter" fill="none" stroke="#000000" d="M0 0V148.80356"/>
<path transform="matrix(0,-1.00006,-1.00003,-0,42.678956,2.4316865)" d="M1.0361 0C-.25902 .25902-1.55415 .77707-3.1083 1.68365-1.55415 .51805-1.55415-.51805-3.1083-1.68365-1.55415-.77707-.25902-.25902 1.0361 0Z"/>
<path transform="matrix(0,-1.00006,-1.00003,-0,42.678956,2.4316865)" stroke-width=".79701" stroke-linecap="butt" stroke-linejoin="round" fill="none" stroke="#000000" d="M1.0361 0C-.25902 .25902-1.55415 .77707-3.1083 1.68365-1.55415 .51805-1.55415-.51805-3.1083-1.68365-1.55415-.77707-.25902-.25902 1.0361 0Z"/>
<use data-text="P" xlink:href="#font_1_83" transform="matrix(0,-9.963197,-9.962899,-0,7.558899,117.00513)"/>
<use data-text="e" xlink:href="#font_1_50" transform="matrix(0,-9.963197,-9.962899,-0,7.558899,110.4892)"/>
<use data-text="r" xlink:href="#font_1_96" transform="matrix(0,-9.963197,-9.962899,-0,7.558899,106.06554)"/>
<use data-text="c" xlink:href="#font_1_43" transform="matrix(0,-9.963197,-9.962899,-0,7.558899,102.15996)"/>
<use data-text="e" xlink:href="#font_1_50" transform="matrix(0,-9.963197,-9.962899,-0,7.558899,97.7363)"/>
<use data-text="n" xlink:href="#font_1_77" transform="matrix(0,-9.963197,-9.962899,-0,7.558899,93.31262)"/>
<use data-text="t" xlink:href="#font_1_105" transform="matrix(0,-9.963197,-9.962899,-0,7.558899,88.05206)"/>
<use data-text="o" xlink:href="#font_1_81" transform="matrix(0,-9.963197,-9.962899,-0,7.558899,80.86859)"/>
<use data-text="f" xlink:href="#font_1_55" transform="matrix(0,-9.963197,-9.962899,-0,7.558899,75.88699)"/>
<use data-text="s" xlink:href="#font_1_98" transform="matrix(0,-9.963197,-9.962899,-0,7.558899,69.52051)"/>
<use data-text="u" xlink:href="#font_1_109" transform="matrix(0,-9.963197,-9.962899,-0,7.558899,65.59502)"/>
<use data-text="r" xlink:href="#font_1_96" transform="matrix(0,-9.963197,-9.962899,-0,7.558899,60.05548)"/>
<use data-text="v" xlink:href="#font_1_112" transform="matrix(0,-9.963197,-9.962899,-0,7.558899,56.149904)"/>
<use data-text="i" xlink:href="#font_1_66" transform="matrix(0,-9.963197,-9.962899,-0,7.558899,50.889345)"/>
<use data-text="v" xlink:href="#font_1_112" transform="matrix(0,-9.963197,-9.962899,-0,7.558899,48.119569)"/>
<use data-text="i" xlink:href="#font_1_66" transform="matrix(0,-9.963197,-9.962899,-0,7.558899,42.858995)"/>
<use data-text="n" xlink:href="#font_1_77" transform="matrix(0,-9.963197,-9.962899,-0,7.558899,40.08922)"/>
<use data-text="g" xlink:href="#font_1_59" transform="matrix(0,-9.963197,-9.962899,-0,7.558899,34.549699)"/>
<use data-text="c" xlink:href="#font_1_43" transform="matrix(0,-9.963197,-9.962899,-0,19.51426,90.607547)"/>
<use data-text="l" xlink:href="#font_1_72" transform="matrix(0,-9.963197,-9.962899,-0,19.51426,86.18387)"/>
<use data-text="u" xlink:href="#font_1_109" transform="matrix(0,-9.963197,-9.962899,-0,19.51426,83.41411)"/>
<use data-text="t" xlink:href="#font_1_105" transform="matrix(0,-9.963197,-9.962899,-0,19.51426,77.87457)"/>
<use data-text="c" xlink:href="#font_1_43" transform="matrix(0,-9.963197,-9.962899,-0,19.51426,73.998889)"/>
<use data-text="h" xlink:href="#font_1_63" transform="matrix(0,-9.963197,-9.962899,-0,19.51426,69.84422)"/>
<use data-text="e" xlink:href="#font_1_50" transform="matrix(0,-9.963197,-9.962899,-0,19.51426,64.30469)"/>
<use data-text="s" xlink:href="#font_1_98" transform="matrix(0,-9.963197,-9.962899,-0,19.51426,59.881029)"/>
<path transform="matrix(1.00003,0,0,-1.00006,42.678956,151.24417)" stroke-width=".79701" stroke-linecap="butt" stroke-miterlimit="10" stroke-linejoin="miter" fill="none" stroke="#000000" d="M28.3468 1.4174V-1.41719"/>
<path transform="matrix(1.00003,0,0,-1.00006,42.678956,151.24417)" d="M24.85983-12.22124H31.83377V-3.80826H24.85983Z" fill="#ffffff"/>
<use data-text="2" xlink:href="#font_2_3" transform="matrix(9.962899,0,0,-9.963197,68.535739,162.46985)"/>
<path transform="matrix(1.00003,0,0,-1.00006,42.678956,151.24417)" stroke-width=".79701" stroke-linecap="butt" stroke-miterlimit="10" stroke-linejoin="miter" fill="none" stroke="#000000" d="M56.69362 1.4174V-1.41719"/>
<path transform="matrix(1.00003,0,0,-1.00006,42.678956,151.24417)" d="M53.20665-12.22124H60.180589V-3.80826H53.20665Z" fill="#ffffff"/>
<use data-text="4" xlink:href="#font_2_4" transform="matrix(9.962899,0,0,-9.963197,96.88358,162.46985)"/>
<path transform="matrix(1.00003,0,0,-1.00006,42.678956,151.24417)" stroke-width=".79701" stroke-linecap="butt" stroke-miterlimit="10" stroke-linejoin="miter" fill="none" stroke="#000000" d="M85.04042 1.4174V-1.41719"/>
<path transform="matrix(1.00003,0,0,-1.00006,42.678956,151.24417)" d="M81.55345-12.22124H88.52739V-3.80826H81.55345Z" fill="#ffffff"/>
<use data-text="6" xlink:href="#font_2_5" transform="matrix(9.962899,0,0,-9.963197,125.23144,162.46985)"/>
<path transform="matrix(1.00003,0,0,-1.00006,42.678956,151.24417)" stroke-width=".79701" stroke-linecap="butt" stroke-miterlimit="10" stroke-linejoin="miter" fill="none" stroke="#000000" d="M113.38724 1.4174V-1.41719"/>
<path transform="matrix(1.00003,0,0,-1.00006,42.678956,151.24417)" d="M109.90027-12.22124H116.87421V-3.80826H109.90027Z" fill="#ffffff"/>
<use data-text="8" xlink:href="#font_2_6" transform="matrix(9.962899,0,0,-9.963197,153.57929,162.46985)"/>
<path transform="matrix(1.00003,0,0,-1.00006,42.678956,151.24417)" stroke-width=".79701" stroke-linecap="butt" stroke-miterlimit="10" stroke-linejoin="miter" fill="none" stroke="#000000" d="M141.73404 1.4174V-1.41719"/>
<path transform="matrix(1.00003,0,0,-1.00006,42.678956,151.24417)" d="M135.75637-12.22124H147.7117V-3.80826H135.75637Z" fill="#ffffff"/>
<use data-text="1" xlink:href="#font_2_2" transform="matrix(9.962899,0,0,-9.963197,179.43607,162.46985)"/>
<use data-text="0" xlink:href="#font_2_1" transform="matrix(9.962899,0,0,-9.963197,184.41751,162.46985)"/>
<path transform="matrix(1.00003,0,0,-1.00006,42.678956,151.24417)" stroke-width=".79701" stroke-linecap="butt" stroke-miterlimit="10" stroke-linejoin="miter" fill="none" stroke="#000000" d="M170.08086 1.4174V-1.41719"/>
<path transform="matrix(1.00003,0,0,-1.00006,42.678956,151.24417)" d="M164.10318-12.22124H176.05852V-3.80826H164.10318Z" fill="#ffffff"/>
<use data-text="1" xlink:href="#font_2_2" transform="matrix(9.962899,0,0,-9.963197,207.78292,162.46985)"/>
<use data-text="2" xlink:href="#font_2_3" transform="matrix(9.962899,0,0,-9.963197,212.76436,162.46985)"/>
<path transform="matrix(1.00003,0,0,-1.00006,42.678956,151.24417)" stroke-width=".79701" stroke-linecap="butt" stroke-miterlimit="10" stroke-linejoin="miter" fill="none" stroke="#000000" d="M198.42766 1.4174V-1.41719"/>
<path transform="matrix(1.00003,0,0,-1.00006,42.678956,151.24417)" d="M192.44998-12.22124H204.40532V-3.80826H192.44998Z" fill="#ffffff"/>
<use data-text="1" xlink:href="#font_2_2" transform="matrix(9.962899,0,0,-9.963197,236.13077,162.46985)"/>
<use data-text="4" xlink:href="#font_2_4" transform="matrix(9.962899,0,0,-9.963197,241.11222,162.46985)"/>
<path transform="matrix(1.00003,0,0,-1.00006,42.678956,151.24417)" stroke-width=".79701" stroke-linecap="butt" stroke-miterlimit="10" stroke-linejoin="miter" fill="none" stroke="#000000" d="M1.4174 28.3468H-1.41719"/>
<path transform="matrix(1.00003,0,0,-1.00006,42.678956,151.24417)" d="M-15.76361 24.1403H-3.8082696V32.55328H-15.76361Z" fill="#ffffff"/>
<use data-text="2" xlink:href="#font_2_3" transform="matrix(9.962899,0,0,-9.963197,27.911515,126.10567)"/>
<use data-text="0" xlink:href="#font_2_1" transform="matrix(9.962899,0,0,-9.963197,32.89296,126.10567)"/>
<path transform="matrix(1.00003,0,0,-1.00006,42.678956,151.24417)" stroke-width=".79701" stroke-linecap="butt" stroke-miterlimit="10" stroke-linejoin="miter" fill="none" stroke="#000000" d="M1.4174 56.69362H-1.41719"/>
<path transform="matrix(1.00003,0,0,-1.00006,42.678956,151.24417)" d="M-15.76361 52.48712H-3.8082696V60.9001H-15.76361Z" fill="#ffffff"/>
<use data-text="4" xlink:href="#font_2_4" transform="matrix(9.962899,0,0,-9.963197,27.911515,97.757968)"/>
<use data-text="0" xlink:href="#font_2_1" transform="matrix(9.962899,0,0,-9.963197,32.89296,97.757968)"/>
<path transform="matrix(1.00003,0,0,-1.00006,42.678956,151.24417)" stroke-width=".79701" stroke-linecap="butt" stroke-miterlimit="10" stroke-linejoin="miter" fill="none" stroke="#000000" d="M1.4174 85.04042H-1.41719"/>
<path transform="matrix(1.00003,0,0,-1.00006,42.678956,151.24417)" d="M-15.76361 80.83392H-3.8082696V89.2469H-15.76361Z" fill="#ffffff"/>
<use data-text="6" xlink:href="#font_2_5" transform="matrix(9.962899,0,0,-9.963197,27.911515,69.40926)"/>
<use data-text="0" xlink:href="#font_2_1" transform="matrix(9.962899,0,0,-9.963197,32.89296,69.40926)"/>
<path transform="matrix(1.00003,0,0,-1.00006,42.678956,151.24417)" stroke-width=".79701" stroke-linecap="butt" stroke-miterlimit="10" stroke-linejoin="miter" fill="none" stroke="#000000" d="M1.4174 113.38724H-1.41719"/>
<path transform="matrix(1.00003,0,0,-1.00006,42.678956,151.24417)" d="M-15.76361 109.18074H-3.8082696V117.59372H-15.76361Z" fill="#ffffff"/>
<use data-text="8" xlink:href="#font_2_6" transform="matrix(9.962899,0,0,-9.963197,27.911515,41.060564)"/>
<use data-text="0" xlink:href="#font_2_1" transform="matrix(9.962899,0,0,-9.963197,32.89296,41.060564)"/>
<path transform="matrix(1.00003,0,0,-1.00006,42.678956,151.24417)" stroke-width=".79701" stroke-linecap="butt" stroke-miterlimit="10" stroke-linejoin="miter" fill="none" stroke="#000000" d="M1.4174 141.73404H-1.41719"/>
<path transform="matrix(1.00003,0,0,-1.00006,42.678956,151.24417)" d="M-20.745 137.52754H-3.808281V145.94052H-20.745Z" fill="#ffffff"/>
<use data-text="1" xlink:href="#font_2_2" transform="matrix(9.962899,0,0,-9.963197,22.92936,12.711868)"/>
<use data-text="0" xlink:href="#font_2_1" transform="matrix(9.962899,0,0,-9.963197,27.910805,12.711868)"/>
<use data-text="0" xlink:href="#font_2_1" transform="matrix(9.962899,0,0,-9.963197,32.89225,12.711868)"/>
<path transform="matrix(1.00003,0,0,-1.00006,42.678956,151.24417)" stroke-width="1.19553" stroke-linecap="butt" stroke-miterlimit="10" stroke-linejoin="miter" fill="none" stroke="#ff0000" d="M14.17339 21.89786C14.17339 21.89786 16.25346 25.59393 17.05235 26.98991 17.85127 28.3859 19.13243 30.59724 19.93134 31.95914 20.73022 33.32103 22.01141 35.4777 22.8103 36.8055 23.6092 38.1333 24.89038 40.23529 25.68929 41.52905 26.48817 42.82278 27.76935 44.87029 28.56825 46.12994 29.36716 47.3896 30.64832 49.38222 31.44724 50.60779 32.24612 51.83336 33.5273 53.77151 34.3262 54.96301 35.1251 56.15454 36.40627 58.03798 37.20518 59.1954 38.00407 60.35283 39.28525 62.18158 40.08414 63.30495 40.88306 64.42831 42.16422 66.20259 42.96312 67.29187 43.76202 68.38113 45.0432 70.10054 45.84209 71.15573 46.641 72.21092 47.92216 73.87582 48.72107 74.89696 49.51996 75.91809 50.80113 77.52832 51.60004 78.51537 52.39893 79.5024 53.68011 81.05795 54.479 82.01091 55.27791 82.96388 56.55908 84.46477 57.35799 85.38364 58.15688 86.3025 59.43805 87.7487 60.23695 88.6335 61.03586 89.51831 62.31702 90.91 63.11594 91.76076 63.91483 92.61151 65.196 93.9485 65.9949 94.76517 66.79381 95.58183 68.07497 96.86415 68.87387 97.64674 69.67278 98.4293 70.95395 99.65697 71.75284 100.40546 72.55176 101.15396 73.83292 102.3269 74.63182 103.04134 75.43073 103.75577 76.7119 104.87424 77.51079 105.55461 78.30971 106.23497 79.59087 107.29878 80.38977 107.94502 81.18866 108.5913 82.46985 109.60019 83.26874 110.21239 84.06764 110.82458 85.34882 111.7792 86.14772 112.35736 86.94661 112.93549 88.22777 113.83524 89.02669 114.37926 89.82558 114.92326 91.10675 115.76834 91.90565 116.27832 92.70456 116.78828 93.98572 117.57884 94.78464 118.05473 95.58353 118.53065 96.8647 119.26653 97.6636 119.70834 98.46251 120.15015 99.74367 120.83134 100.54257 121.23909 101.34148 121.64682 102.62265 122.27335 103.42154 122.647 104.22046 123.02063 105.50162 123.59248 106.30052 123.93207 107.09943 124.27165 108.3806 124.78899 109.17949 125.09451 109.9784 125.40005 111.25957 125.8627 112.05847 126.13412 112.85736 126.40552 114.13855 126.81331 114.93744 127.05066 115.73634 127.28801 117.01752 127.64151 117.81642 127.8448 118.61531 128.0481 119.89648 128.34671 120.69539 128.51589 121.4943 128.68506 122.77545 128.92902 123.57437 129.06414 124.37326 129.19925 125.65442 129.38869 126.45334 129.48975 127.25223 129.5908 128.5334 129.72556 129.33229 129.79253 130.13121 129.8595 131.41237 129.93958 132.21128 129.97246 133.01018 130.00534 134.29135 130.03075 135.09024 130.02956 135.88916 130.02837 137.17032 129.99906 137.96923 129.9638 138.76813 129.92855 140.0493 129.84476 140.84819 129.77544 141.6471 129.70613 142.92827 129.56763 143.72718 129.46424 144.52606 129.36083 145.80725 129.16767 146.60614 129.03017 147.40505 128.89269 148.6862 128.64487 149.48513 128.47328 150.28401 128.30171 151.56519 127.9992 152.36409 127.79355 153.163 127.58789 154.44416 127.2307 155.24308 126.99098 156.04196 126.75127 157.32314 126.33955 158.12204 126.06577 158.92095 125.792 160.2021 125.3256 161.001 125.01773 161.79991 124.70987 163.08107 124.18881 163.87998 123.84686 164.67888 123.50491 165.96006 122.92915 166.75894 122.55315 167.55786 122.17712 168.83902 121.54689 169.63793 121.1368 170.43683 120.72668 171.718 120.04158 172.51689 119.5974 173.3158 119.1532 174.59697 118.41362 175.39588 117.93536 176.19477 117.45712 177.47595 116.66283 178.27484 116.1505 179.07375 115.63815 180.3549 114.7892 181.15383 114.24278 181.95272 113.69637 183.23389 112.79271 184.03279 112.21223 184.8317 111.63176 186.11286 110.67363 186.91178 110.05907 187.71067 109.44449 188.99184 108.43147 189.79074 107.78282 190.58965 107.13417 191.8708 106.0667 192.66971 105.38397 193.46862 104.70126 194.74979 103.57909 195.54868 102.86227 196.3476 102.14548 198.42766 100.21774 198.42766 100.21774"/>
<path transform="matrix(1.00003,0,0,-1.00006,42.678956,151.24417)" d="M30.47272 28.3468C30.47272 29.52092 29.52092 30.47272 28.3468 30.47272 27.17268 30.47272 26.22089 29.52092 26.22089 28.3468 26.22089 27.17268 27.17268 26.22089 28.3468 26.22089 29.52092 26.22089 30.47272 27.17268 30.47272 28.3468ZM28.3468 28.3468" fill="#ff0000"/>
<path transform="matrix(1.00003,0,0,-1.00006,42.678956,151.24417)" stroke-width=".3985" stroke-linecap="butt" stroke-miterlimit="10" stroke-linejoin="miter" fill="none" stroke="#ff0000" d="M30.47272 28.3468C30.47272 29.52092 29.52092 30.47272 28.3468 30.47272 27.17268 30.47272 26.22089 29.52092 26.22089 28.3468 26.22089 27.17268 27.17268 26.22089 28.3468 26.22089 29.52092 26.22089 30.47272 27.17268 30.47272 28.3468ZM28.3468 28.3468"/>
<path transform="matrix(1.00003,0,0,-1.00006,42.678956,151.24417)" d="M44.64612 73.70164C44.64612 74.87578 43.69432 75.82756 42.5202 75.82756 41.34607 75.82756 40.39427 74.87578 40.39427 73.70164 40.39427 72.52753 41.34607 71.57573 42.5202 71.57573 43.69432 71.57573 44.64612 72.52753 44.64612 73.70164ZM42.5202 73.70164" fill="#ff0000"/>
<path transform="matrix(1.00003,0,0,-1.00006,42.678956,151.24417)" stroke-width=".3985" stroke-linecap="butt" stroke-miterlimit="10" stroke-linejoin="miter" fill="none" stroke="#ff0000" d="M44.64612 73.70164C44.64612 74.87578 43.69432 75.82756 42.5202 75.82756 41.34607 75.82756 40.39427 74.87578 40.39427 73.70164 40.39427 72.52753 41.34607 71.57573 42.5202 71.57573 43.69432 71.57573 44.64612 72.52753 44.64612 73.70164ZM42.5202 73.70164"/>
<path transform="matrix(1.00003,0,0,-1.00006,42.678956,151.24417)" d="M58.81953 85.04042C58.81953 86.21455 57.86774 87.16634 56.69362 87.16634 55.51949 87.16634 54.56769 86.21455 54.56769 85.04042 54.56769 83.8663 55.51949 82.9145 56.69362 82.9145 57.86774 82.9145 58.81953 83.8663 58.81953 85.04042ZM56.69362 85.04042" fill="#ff0000"/>
<path transform="matrix(1.00003,0,0,-1.00006,42.678956,151.24417)" stroke-width=".3985" stroke-linecap="butt" stroke-miterlimit="10" stroke-linejoin="miter" fill="none" stroke="#ff0000" d="M58.81953 85.04042C58.81953 86.21455 57.86774 87.16634 56.69362 87.16634 55.51949 87.16634 54.56769 86.21455 54.56769 85.04042 54.56769 83.8663 55.51949 82.9145 56.69362 82.9145 57.86774 82.9145 58.81953 83.8663 58.81953 85.04042ZM56.69362 85.04042"/>
<path transform="matrix(1.00003,0,0,-1.00006,42.678956,151.24417)" d="M72.99294 110.55258C72.99294 111.7267 72.04114 112.6785 70.867 112.6785 69.69289 112.6785 68.74109 111.7267 68.74109 110.55258 68.74109 109.37845 69.69289 108.42667 70.867 108.42667 72.04114 108.42667 72.99294 109.37845 72.99294 110.55258ZM70.867 110.55258" fill="#ff0000"/>
<path transform="matrix(1.00003,0,0,-1.00006,42.678956,151.24417)" stroke-width=".3985" stroke-linecap="butt" stroke-miterlimit="10" stroke-linejoin="miter" fill="none" stroke="#ff0000" d="M72.99294 110.55258C72.99294 111.7267 72.04114 112.6785 70.867 112.6785 69.69289 112.6785 68.74109 111.7267 68.74109 110.55258 68.74109 109.37845 69.69289 108.42667 70.867 108.42667 72.04114 108.42667 72.99294 109.37845 72.99294 110.55258ZM70.867 110.55258"/>
<path transform="matrix(1.00003,0,0,-1.00006,42.678956,151.24417)" d="M87.16634 114.09593C87.16634 115.27005 86.21455 116.22185 85.04042 116.22185 83.8663 116.22185 82.9145 115.27005 82.9145 114.09593 82.9145 112.92181 83.8663 111.97002 85.04042 111.97002 86.21455 111.97002 87.16634 112.92181 87.16634 114.09593ZM85.04042 114.09593" fill="#ff0000"/>
<path transform="matrix(1.00003,0,0,-1.00006,42.678956,151.24417)" stroke-width=".3985" stroke-linecap="butt" stroke-miterlimit="10" stroke-linejoin="miter" fill="none" stroke="#ff0000" d="M87.16634 114.09593C87.16634 115.27005 86.21455 116.22185 85.04042 116.22185 83.8663 116.22185 82.9145 115.27005 82.9145 114.09593 82.9145 112.92181 83.8663 111.97002 85.04042 111.97002 86.21455 111.97002 87.16634 112.92181 87.16634 114.09593ZM85.04042 114.09593"/>
<path transform="matrix(1.00003,0,0,-1.00006,42.678956,151.24417)" d="M101.33974 124.726C101.33974 125.90012 100.38794 126.85191 99.21382 126.85191 98.03969 126.85191 97.0879 125.90012 97.0879 124.726 97.0879 123.55186 98.03969 122.60007 99.21382 122.60007 100.38794 122.60007 101.33974 123.55186 101.33974 124.726ZM99.21382 124.726" fill="#ff0000"/>
<path transform="matrix(1.00003,0,0,-1.00006,42.678956,151.24417)" stroke-width=".3985" stroke-linecap="butt" stroke-miterlimit="10" stroke-linejoin="miter" fill="none" stroke="#ff0000" d="M101.33974 124.726C101.33974 125.90012 100.38794 126.85191 99.21382 126.85191 98.03969 126.85191 97.0879 125.90012 97.0879 124.726 97.0879 123.55186 98.03969 122.60007 99.21382 122.60007 100.38794 122.60007 101.33974 123.55186 101.33974 124.726ZM99.21382 124.726"/>
<path transform="matrix(1.00003,0,0,-1.00006,42.678956,151.24417)" d="M115.51315 117.63928C115.51315 118.81342 114.56136 119.76521 113.38724 119.76521 112.2131 119.76521 111.2613 118.81342 111.2613 117.63928 111.2613 116.46516 112.2131 115.51337 113.38724 115.51337 114.56136 115.51337 115.51315 116.46516 115.51315 117.63928ZM113.38724 117.63928" fill="#ff0000"/>
<path transform="matrix(1.00003,0,0,-1.00006,42.678956,151.24417)" stroke-width=".3985" stroke-linecap="butt" stroke-miterlimit="10" stroke-linejoin="miter" fill="none" stroke="#ff0000" d="M115.51315 117.63928C115.51315 118.81342 114.56136 119.76521 113.38724 119.76521 112.2131 119.76521 111.2613 118.81342 111.2613 117.63928 111.2613 116.46516 112.2131 115.51337 113.38724 115.51337 114.56136 115.51337 115.51315 116.46516 115.51315 117.63928ZM113.38724 117.63928"/>
<path transform="matrix(1.00003,0,0,-1.00006,42.678956,151.24417)" d="M129.68656 121.18263C129.68656 122.35677 128.73476 123.30856 127.56062 123.30856 126.3865 123.30856 125.43471 122.35677 125.43471 121.18263 125.43471 120.00851 126.3865 119.05672 127.56062 119.05672 128.73476 119.05672 129.68656 120.00851 129.68656 121.18263ZM127.56062 121.18263" fill="#ff0000"/>
<path transform="matrix(1.00003,0,0,-1.00006,42.678956,151.24417)" stroke-width=".3985" stroke-linecap="butt" stroke-miterlimit="10" stroke-linejoin="miter" fill="none" stroke="#ff0000" d="M129.68656 121.18263C129.68656 122.35677 128.73476 123.30856 127.56062 123.30856 126.3865 123.30856 125.43471 122.35677 125.43471 121.18263 125.43471 120.00851 126.3865 119.05672 127.56062 119.05672 128.73476 119.05672 129.68656 120.00851 129.68656 121.18263ZM127.56062 121.18263"/>
<path transform="matrix(1.00003,0,0,-1.00006,42.678956,151.24417)" d="M143.85996 130.39527C143.85996 131.5694 142.90818 132.52118 141.73404 132.52118 140.55992 132.52118 139.60813 131.5694 139.60813 130.39527 139.60813 129.22115 140.55992 128.26935 141.73404 128.26935 142.90818 128.26935 143.85996 129.22115 143.85996 130.39527ZM141.73404 130.39527" fill="#ff0000"/>
<path transform="matrix(1.00003,0,0,-1.00006,42.678956,151.24417)" stroke-width=".3985" stroke-linecap="butt" stroke-miterlimit="10" stroke-linejoin="miter" fill="none" stroke="#ff0000" d="M143.85996 130.39527C143.85996 131.5694 142.90818 132.52118 141.73404 132.52118 140.55992 132.52118 139.60813 131.5694 139.60813 130.39527 139.60813 129.22115 140.55992 128.26935 141.73404 128.26935 142.90818 128.26935 143.85996 129.22115 143.85996 130.39527ZM141.73404 130.39527"/>
<path transform="matrix(1.00003,0,0,-1.00006,42.678956,151.24417)" d="M158.03336 119.0565C158.03336 120.23064 157.08156 121.18242 155.90744 121.18242 154.7333 121.18242 153.78153 120.23064 153.78153 119.0565 153.78153 117.88239 154.7333 116.93059 155.90744 116.93059 157.08156 116.93059 158.03336 117.88239 158.03336 119.0565ZM155.90744 119.0565" fill="#ff0000"/>
<path transform="matrix(1.00003,0,0,-1.00006,42.678956,151.24417)" stroke-width=".3985" stroke-linecap="butt" stroke-miterlimit="10" stroke-linejoin="miter" fill="none" stroke="#ff0000" d="M158.03336 119.0565C158.03336 120.23064 157.08156 121.18242 155.90744 121.18242 154.7333 121.18242 153.78153 120.23064 153.78153 119.0565 153.78153 117.88239 154.7333 116.93059 155.90744 116.93059 157.08156 116.93059 158.03336 117.88239 158.03336 119.0565ZM155.90744 119.0565"/>
<path transform="matrix(1.00003,0,0,-1.00006,42.678956,151.24417)" d="M172.20677 139.60811C172.20677 140.78223 171.25498 141.73403 170.08086 141.73403 168.90673 141.73403 167.95493 140.78223 167.95493 139.60811 167.95493 138.43398 168.90673 137.48218 170.08086 137.48218 171.25498 137.48218 172.20677 138.43398 172.20677 139.60811ZM170.08086 139.60811" fill="#ff0000"/>
<path transform="matrix(1.00003,0,0,-1.00006,42.678956,151.24417)" stroke-width=".3985" stroke-linecap="butt" stroke-miterlimit="10" stroke-linejoin="miter" fill="none" stroke="#ff0000" d="M172.20677 139.60811C172.20677 140.78223 171.25498 141.73403 170.08086 141.73403 168.90673 141.73403 167.95493 140.78223 167.95493 139.60811 167.95493 138.43398 168.90673 137.48218 170.08086 137.48218 171.25498 137.48218 172.20677 138.43398 172.20677 139.60811ZM170.08086 139.60811"/>
<path transform="matrix(1.00003,0,0,-1.00006,42.678956,151.24417)" d="M186.38018 114.09593C186.38018 115.27005 185.42838 116.22185 184.25424 116.22185 183.08013 116.22185 182.12833 115.27005 182.12833 114.09593 182.12833 112.92181 183.08013 111.97002 184.25424 111.97002 185.42838 111.97002 186.38018 112.92181 186.38018 114.09593ZM184.25424 114.09593" fill="#ff0000"/>
<path transform="matrix(1.00003,0,0,-1.00006,42.678956,151.24417)" stroke-width=".3985" stroke-linecap="butt" stroke-miterlimit="10" stroke-linejoin="miter" fill="none" stroke="#ff0000" d="M186.38018 114.09593C186.38018 115.27005 185.42838 116.22185 184.25424 116.22185 183.08013 116.22185 182.12833 115.27005 182.12833 114.09593 182.12833 112.92181 183.08013 111.97002 184.25424 111.97002 185.42838 111.97002 186.38018 112.92181 186.38018 114.09593ZM184.25424 114.09593"/>
<path transform="matrix(1.00003,0,0,-1.00006,42.678956,151.24417)" d="M200.55359 101.33974C200.55359 102.51387 199.60179 103.46567 198.42766 103.46567 197.25354 103.46567 196.30175 102.51387 196.30175 101.33974 196.30175 100.16562 197.25354 99.21382 198.42766 99.21382 199.60179 99.21382 200.55359 100.16562 200.55359 101.33974ZM198.42766 101.33974" fill="#ff0000"/>
<path transform="matrix(1.00003,0,0,-1.00006,42.678956,151.24417)" stroke-width=".3985" stroke-linecap="butt" stroke-miterlimit="10" stroke-linejoin="miter" fill="none" stroke="#ff0000" d="M200.55359 101.33974C200.55359 102.51387 199.60179 103.46567 198.42766 103.46567 197.25354 103.46567 196.30175 102.51387 196.30175 101.33974 196.30175 100.16562 197.25354 99.21382 198.42766 99.21382 199.60179 99.21382 200.55359 100.16562 200.55359 101.33974ZM198.42766 101.33974"/>
</svg>
