<svg xmlns="http://www.w3.org/2000/svg" xmlns:xlink="http://www.w3.org/1999/xlink" version="1.1" width="166" height="244" viewBox="0 0 166 244">
<defs>
<path id="font_1_2" d="M.08799744 .059265138C.084991458 .044265748 .07899475 .021255494 .07899475 .01625061 .07899475-.0017547608 .09298706-.0107421879 .10798645-.0107421879 .11999512-.0107421879 .13798523-.002746582 .14498902 .01725769 .1459961 .019256592 .1579895 .06626892 .1639862 .091278079L.18598938 .18130493C.19198609 .2033081 .19799805 .22531128 .20298767 .24832154 .20698548 .26531983 .21499634 .29434205 .21598816 .29833985 .23098755 .3293457 .28399659 .42037965 .3789978 .42037965 .42399598 .42037965 .43299867 .38336183 .43299867 .35035707 .43299867 .28833009 .38398744 .16029358 .36799623 .11727905 .35899354 .0942688 .35798646 .08227539 .35798646 .0712738 .35798646 .024261475 .3929901-.0107421879 .43998719-.0107421879 .5339966-.0107421879 .57099917 .13528443 .57099917 .14329529 .57099917 .1532898 .56199648 .1532898 .5589905 .1532898 .548996 .1532898 .548996 .15029907 .5439911 .13528443 .5239868 .06726074 .4909973 .011245728 .44198609 .011245728 .4249878 .011245728 .41799928 .021255494 .41799928 .044265748 .41799928 .0692749 .4269867 .09327698 .43598939 .11528015 .45498658 .16830445 .49699403 .27833558 .49699403 .3353424 .49699403 .40237428 .45399476 .4423828 .38198854 .4423828 .2919922 .4423828 .24299622 .37835694 .22599793 .35534669 .22099304 .41137696 .17999268 .4423828 .13398743 .4423828 .08799744 .4423828 .068984989 .4033661 .05899048 .38536073 .042999269 .35134889 .0289917 .29232789 .0289917 .28833009 .0289917 .27833558 .038986207 .27833558 .040985109 .27833558 .050994874 .27833558 .051986696 .2793274 .057998659 .30133058 .07499695 .37236024 .09498596 .42037965 .1309967 .42037965 .15098572 .42037965 .1619873 .4073639 .1619873 .37435914 .1619873 .35334779 .15899658 .3423462 .1459961 .29032899L.08799744 .059265138Z"/>
<path id="font_1_1" d="M.7599945 .69506838C.7599945 .69807437 .7579956 .7050781 .7489929 .7050781 .74598696 .7050781 .7449951 .70407107 .73399356 .69306948L.6639862 .61602786C.6549988 .6300354 .60899356 .7050781 .49798585 .7050781 .2749939 .7050781 .049987794 .48391725 .049987794 .25172425 .049987794 .08659363 .16799927-.022460938 .32099916-.022460938 .4079895-.022460938 .48399354 .017532349 .5369873 .063583377 .6299896 .14564514 .6469879 .2367096 .6469879 .23971558 .6469879 .24972534 .6369934 .24972534 .6349945 .24972534 .6289978 .24972534 .6239929 .24772644 .621994 .23971558 .61299136 .21069336 .58999636 .13963318 .5209961 .081588748 .45199586 .025543213 .3889923 .008529663 .33699037 .008529663 .24699402 .008529663 .14099121 .060577394 .14099121 .21670532 .14099121 .27374269 .1619873 .43588258 .2619934 .55296328 .32299806 .62402346 .4169922 .67407229 .5059967 .67407229 .60798647 .67407229 .6669922 .5970001 .6669922 .48091126 .6669922 .44088746 .6639862 .43988038 .6639862 .4298706 .6639862 .41986085 .6749878 .41986085 .67900088 .41986085 .69200137 .41986085 .69200137 .42185975 .69699099 .43988038L.7599945 .69506838Z"/>
<path id="font_2_82" d="M.4189911 0V.0309906H.3869934C.29699708 .0309906 .2939911 .041992189 .2939911 .07902527V.64012148C.2939911 .6640167 .2939911 .6660156 .2709961 .6660156 .20899964 .60227969 .12098694 .60227969 .08898926 .60227969V.57128909C.10899353 .57128909 .16799927 .57128909 .21998596 .5972748V.07902527C.21998596 .042999269 .21699524 .0309906 .1269989 .0309906H.09498596V0C.12998963 .0029907227 .21699524 .0029907227 .25698854 .0029907227 .29699708 .0029907227 .38398744 .0029907227 .4189911 0Z"/>
<path id="font_2_121" d="M.45999146 .31976319C.45999146 .39982606 .45498658 .47988893 .41999818 .5539398 .37399293 .65000918 .2919922 .6660156 .25 .6660156 .18998719 .6660156 .116989139 .64001467 .07598877 .54693606 .04399109 .47789 .038986207 .39982606 .038986207 .31976319 .038986207 .24472046 .042999269 .15464783 .083999637 .07859802 .1269989-.0024719239 .19999695-.022460938 .24899292-.022460938 .30299378-.022460938 .3789978-.0014648438 .4229889 .09359741 .45498658 .16265869 .45999146 .2407074 .45999146 .31976319M.3769989 .3317871C.3769989 .25672914 .3769989 .18867493 .3659973 .12461853 .35099793 .029556275 .2939911-.00047302247 .24899292-.00047302247 .20999146-.00047302247 .15098572 .024551392 .1329956 .12062073 .12199402 .18066406 .12199402 .2727356 .12199402 .3317871 .12199402 .39582826 .12199402 .46188355 .12998963 .5159149 .14898682 .63500979 .22399903 .64401248 .24899292 .64401248 .28199769 .64401248 .34799195 .6259918 .36698915 .52693179 .3769989 .47088624 .3769989 .39482118 .3769989 .3317871Z"/>
<path id="font_2_107" d="M.44898988 .17396546H.42399598C.4189911 .14398194 .4119873 .099990848 .4019928 .084991458 .394989 .07699585 .32899476 .07699585 .30699159 .07699585H.1269989L.23298645 .17996216C.3889923 .31803895 .44898988 .37210084 .44898988 .47216798 .44898988 .5860901 .35899354 .6660156 .23699951 .6660156 .12399292 .6660156 .049987794 .57411196 .049987794 .48516847 .049987794 .4291687 .099990848 .4291687 .102996829 .4291687 .11999512 .4291687 .15499878 .44117738 .15499878 .48217774 .15499878 .5081787 .13699341 .5341797 .101989749 .5341797 .09399414 .5341797 .09199524 .5341797 .08898926 .5331726 .11199951 .59806826 .1659851 .63500979 .22399903 .63500979 .31498719 .63500979 .35798646 .5541382 .35798646 .47216798 .35798646 .39196778 .30799867 .31297303 .25299073 .25097657L.06098938 .036987306C.049987794 .025985718 .049987794 .023986817 .049987794 0H.42099L.44898988 .17396546Z"/>
<path id="font_2_106" d="M.45700074 .17037964C.45700074 .252594 .3939972 .33088685 .2899933 .35191346 .37199403 .37893678 .42999269 .4490509 .42999269 .52809146 .42999269 .6100464 .34199525 .6660156 .24598694 .6660156 .14498902 .6660156 .068984989 .60606387 .068984989 .53009036 .068984989 .49710084 .09098816 .47808839 .11999512 .47808839 .15098572 .47808839 .17098999 .50009158 .17098999 .5290985 .17098999 .57910159 .12399292 .57910159 .10899353 .57910159 .13999939 .62802127 .20599365 .64100649 .24198914 .64100649 .2829895 .64100649 .33799745 .6190338 .33799745 .5290985 .33799745 .51708987 .33599855 .45906068 .30999757 .4149933 .27999879 .36691285 .24598694 .36390687 .22099304 .36291505 .21299744 .36190797 .18899536 .35990907 .18199158 .35990907 .17399597 .35890199 .16699219 .35791017 .16699219 .3479004 .16699219 .33691407 .17399597 .33691407 .19099427 .33691407H.23498535C.31698609 .33691407 .35398866 .2686615 .35398866 .17037964 .35398866 .034469606 .2849884 .0055389406 .24099732 .0055389406 .19799805 .0055389406 .12298584 .022491456 .08799744 .08137512 .12298584 .07637024 .1539917 .09837341 .1539917 .1363678 .1539917 .17237854 .1269989 .19238281 .09799194 .19238281 .07398987 .19238281 .041992189 .17837525 .041992189 .1343689 .041992189 .043441774 .1349945-.022460938 .24398804-.022460938 .3659973-.022460938 .45700074 .06838989 .45700074 .17037964Z"/>
<path id="font_2_57" d="M.47099305 .16503906V.19602967H.37098695V.6507721C.37098695 .6707611 .37098695 .6767578 .35499574 .6767578 .34599305 .6767578 .34298707 .6767578 .33499146 .6647644L.027999878 .19602967V.16503906H.2939911V.07800293C.2939911 .041992189 .2919922 .0309906 .21798706 .0309906H.19699097V0C.23799134 .0029907227 .2899933 .0029907227 .33198548 .0029907227 .37399293 .0029907227 .4269867 .0029907227 .46798707 0V.0309906H.44699098C.37298585 .0309906 .37098695 .041992189 .37098695 .07800293V.16503906H.47099305M.2999878 .19602967H.055999757L.2999878 .56881716V.19602967Z"/>
<path id="font_2_56" d="M.44898988 .20091248C.44898988 .31991578 .36698915 .41992188 .25898744 .41992188 .21099854 .41992188 .16799927 .4039154 .13198853 .36891175V.5641022C.1519928 .55778506 .18499756 .55078127 .21699524 .55078127 .33999635 .55078127 .4099884 .6418457 .4099884 .65493777 .4099884 .6609802 .40699769 .6660156 .3999939 .6660156 .3999939 .66607668 .39698792 .66607668 .3919983 .66308596 .37199403 .65408328 .32299806 .63378909 .2559967 .63378909 .21598816 .63409426 .16999817 .641098 .12298584 .6621094 .114990238 .6651001 .11099243 .6651001 .11099243 .6651001 .100997928 .66508486 .100997928 .657074 .100997928 .64108279V.3447113C.100997928 .3266449 .100997928 .31861878 .114990238 .31861878 .12199402 .31861878 .12399292 .32164 .12799073 .32765199 .13899231 .34371949 .17599488 .3979187 .25698854 .3979187 .30899049 .3979187 .33399964 .3517456 .34199525 .3336792 .35798646 .2965393 .3600006 .2574005 .3600006 .20721436 .3600006 .17218018 .3600006 .112197879 .33599855 .07032776 .31199647 .031448366 .2749939 .0055389406 .22898865 .0055389406 .1559906 .0055389406 .09899902 .05836487 .08198547 .1171875 .084991458 .11685181 .08799744 .115859989 .09899902 .115859989 .13198853 .115859989 .14898682 .14085388 .14898682 .16485596 .14898682 .18885803 .13198853 .21386719 .09899902 .21386719 .084991458 .21386719 .049987794 .2068634 .049987794 .16085816 .049987794 .07432556 .11898804-.022460938 .23098755-.022460938 .34700013-.022460938 .44898988 .07331848 .44898988 .20019531V.20091248Z"/>
<path id="font_2_101" d="M.45700074 .2036438C.45700074 .33070375 .36799623 .4267578 .25698854 .4267578 .18899536 .4267578 .1519928 .37573243 .13198853 .327713V.35173036C.13198853 .6047821 .2559967 .64100649 .30699159 .64100649 .33099366 .64100649 .37298585 .634964 .394989 .6007538 .37998963 .6007538 .33999635 .6007538 .33999635 .5557556 .33999635 .524765 .3639984 .5097656 .38598634 .5097656 .4019928 .5097656 .43199159 .51875308 .43199159 .5577545 .43199159 .6178589 .3880005 .6660156 .30499269 .6660156 .1769867 .6660156 .041992189 .5367584 .041992189 .31570436 .041992189 .048553468 .1579895-.022460938 .25099183-.022460938 .3619995-.022460938 .45700074 .07156372 .45700074 .2036438M.36698915 .20463562C.36698915 .15661621 .36698915 .10658264 .34999085 .0705719 .31999208 .010528564 .27398683 .0055389406 .25099183 .0055389406 .18798828 .0055389406 .1579895 .06556702 .1519928 .080566409 .13398743 .127594 .13398743 .2076416 .13398743 .22564698 .13398743 .30369569 .1659851 .40374757 .2559967 .40374757 .27198792 .40374757 .31799317 .40374757 .34899903 .34172059 .36698915 .30470277 .36698915 .2536621 .36698915 .20463562Z"/>
</defs>
<path transform="matrix(1,0,0,-1.00003,15.977997,230.85857)" stroke-width=".3985" stroke-linecap="butt" stroke-miterlimit="10" stroke-linejoin="miter" fill="none" stroke="#00aeef" d="M0 0H127.56062M0 8.50412H127.56062M0 17.00824H127.56062M0 25.51237H127.56062M0 34.0165H127.56062M0 42.52063H127.56062M0 51.02477H127.56062M0 59.52888H127.56062M0 68.03302H127.56062M0 76.53716H127.56062M0 85.04128H127.56062M0 93.54541H127.56062M0 102.04953H127.56062M0 110.55368H127.56062M0 119.0578H127.56062M0 127.56192H127.56062M0 136.06606H127.56062M0 144.57019H127.56062M0 153.07433H127.56062M0 161.57845H127.56062M0 170.08257H127.56062M0 178.5867H127.56062M0 187.09084H127.56062M0 195.59496H127.56062M0 204.09909H127.56062M0 212.60024H127.56062M0 0V212.60321M14.17339 0V212.60321M28.3468 0V212.60321M42.5202 0V212.60321M56.69362 0V212.60321M70.867 0V212.60321M85.04042 0V212.60321M99.21382 0V212.60321M113.38724 0V212.60321M127.55566 0V212.60321M127.56062 212.60321"/>
<path transform="matrix(1,0,0,-1.00003,15.977997,230.85857)" stroke-width=".79701" stroke-linecap="butt" stroke-miterlimit="10" stroke-linejoin="miter" fill="none" stroke="#000000" d="M0 0H137.46479"/>
<path transform="matrix(1,0,0,-1.00003,153.44278,230.85857)" d="M1.0361 0C-.25902 .25902-1.55415 .77707-3.1083 1.68365-1.55415 .51805-1.55415-.51805-3.1083-1.68365-1.55415-.77707-.25902-.25902 1.0361 0Z"/>
<path transform="matrix(1,0,0,-1.00003,153.44278,230.85857)" stroke-width=".79701" stroke-linecap="butt" stroke-linejoin="round" fill="none" stroke="#000000" d="M1.0361 0C-.25902 .25902-1.55415 .77707-3.1083 1.68365-1.55415 .51805-1.55415-.51805-3.1083-1.68365-1.55415-.77707-.25902-.25902 1.0361 0Z"/>
<use data-text="n" xlink:href="#font_1_2" transform="matrix(9.9626,0,0,-9.962899,158.596,233.00363)"/>
<path transform="matrix(1,0,0,-1.00003,15.977997,230.85857)" stroke-width=".79701" stroke-linecap="butt" stroke-miterlimit="10" stroke-linejoin="miter" fill="none" stroke="#000000" d="M0 0V217.97194"/>
<path transform="matrix(0,-1.00003,-1,-0,15.977997,12.880081)" d="M1.0361 0C-.25902 .25902-1.55415 .77707-3.1083 1.68365-1.55415 .51805-1.55415-.51805-3.1083-1.68365-1.55415-.77707-.25902-.25902 1.0361 0Z"/>
<path transform="matrix(0,-1.00003,-1,-0,15.977997,12.880081)" stroke-width=".79701" stroke-linecap="butt" stroke-linejoin="round" fill="none" stroke="#000000" d="M1.0361 0C-.25902 .25902-1.55415 .77707-3.1083 1.68365-1.55415 .51805-1.55415-.51805-3.1083-1.68365-1.55415-.77707-.25902-.25902 1.0361 0Z"/>
<use data-text="C" xlink:href="#font_1_1" transform="matrix(9.9626,0,0,-9.962899,12.060997,7.7258608)"/>
<path transform="matrix(1,0,0,-1.00003,15.977997,230.85857)" stroke-width=".79701" stroke-linecap="butt" stroke-miterlimit="10" stroke-linejoin="miter" fill="none" stroke="#000000" d="M28.3468 .85045V-.85031"/>
<path transform="matrix(1,0,0,-1.00003,15.977997,230.85857)" d="M22.36914-12.08829H34.324464V-3.2413798H22.36914Z" fill="#ffffff"/>
<use data-text="1" xlink:href="#font_2_82" transform="matrix(9.9626,0,0,-9.962899,39.342996,241.73189)"/>
<use data-text="0" xlink:href="#font_2_121" transform="matrix(9.9626,0,0,-9.962899,44.324296,241.73189)"/>
<path transform="matrix(1,0,0,-1.00003,15.977997,230.85857)" stroke-width=".79701" stroke-linecap="butt" stroke-miterlimit="10" stroke-linejoin="miter" fill="none" stroke="#000000" d="M56.69362 .85045V-.85031"/>
<path transform="matrix(1,0,0,-1.00003,15.977997,230.85857)" d="M50.71596-12.08829H62.67128V-3.2413798H50.71596Z" fill="#ffffff"/>
<use data-text="2" xlink:href="#font_2_107" transform="matrix(9.9626,0,0,-9.962899,67.69,241.73189)"/>
<use data-text="0" xlink:href="#font_2_121" transform="matrix(9.9626,0,0,-9.962899,72.671298,241.73189)"/>
<path transform="matrix(1,0,0,-1.00003,15.977997,230.85857)" stroke-width=".79701" stroke-linecap="butt" stroke-miterlimit="10" stroke-linejoin="miter" fill="none" stroke="#000000" d="M85.04042 .85045V-.85031"/>
<path transform="matrix(1,0,0,-1.00003,15.977997,230.85857)" d="M79.06276-12.08829H91.01808V-3.2413798H79.06276Z" fill="#ffffff"/>
<use data-text="3" xlink:href="#font_2_106" transform="matrix(9.9626,0,0,-9.962899,96.036998,241.73189)"/>
<use data-text="0" xlink:href="#font_2_121" transform="matrix(9.9626,0,0,-9.962899,101.018299,241.73189)"/>
<path transform="matrix(1,0,0,-1.00003,15.977997,230.85857)" stroke-width=".79701" stroke-linecap="butt" stroke-miterlimit="10" stroke-linejoin="miter" fill="none" stroke="#000000" d="M113.38724 .85045V-.85031"/>
<path transform="matrix(1,0,0,-1.00003,15.977997,230.85857)" d="M107.40958-12.19789H119.3649V-3.2413808H107.40958Z" fill="#ffffff"/>
<use data-text="4" xlink:href="#font_2_57" transform="matrix(9.9626,0,0,-9.962899,124.383998,241.8409)"/>
<use data-text="0" xlink:href="#font_2_121" transform="matrix(9.9626,0,0,-9.962899,129.3653,241.8409)"/>
<path transform="matrix(1,0,0,-1.00003,15.977997,230.85857)" stroke-width=".79701" stroke-linecap="butt" stroke-miterlimit="10" stroke-linejoin="miter" fill="none" stroke="#000000" d="M1.4174 34.0165H-1.41719"/>
<path transform="matrix(1,0,0,-1.00003,15.977997,230.85857)" d="M-15.76358 29.59305H-3.80826V38.43996H-15.76358Z" fill="#ffffff"/>
<use data-text="1" xlink:href="#font_2_82" transform="matrix(9.9626,0,0,-9.962899,1.2109985,200.04964)"/>
<use data-text="0" xlink:href="#font_2_121" transform="matrix(9.9626,0,0,-9.962899,6.192299,200.04964)"/>
<path transform="matrix(1,0,0,-1.00003,15.977997,230.85857)" stroke-width=".79701" stroke-linecap="butt" stroke-miterlimit="10" stroke-linejoin="miter" fill="none" stroke="#000000" d="M1.4174 68.03302H-1.41719"/>
<path transform="matrix(1,0,0,-1.00003,15.977997,230.85857)" d="M-15.76358 63.60957H-3.80826V72.45648H-15.76358Z" fill="#ffffff"/>
<use data-text="2" xlink:href="#font_2_107" transform="matrix(9.9626,0,0,-9.962899,1.2109985,166.03162)"/>
<use data-text="0" xlink:href="#font_2_121" transform="matrix(9.9626,0,0,-9.962899,6.192299,166.03162)"/>
<path transform="matrix(1,0,0,-1.00003,15.977997,230.85857)" stroke-width=".79701" stroke-linecap="butt" stroke-miterlimit="10" stroke-linejoin="miter" fill="none" stroke="#000000" d="M1.4174 102.04953H-1.41719"/>
<path transform="matrix(1,0,0,-1.00003,15.977997,230.85857)" d="M-15.76358 97.62608H-3.80826V106.47299H-15.76358Z" fill="#ffffff"/>
<use data-text="3" xlink:href="#font_2_106" transform="matrix(9.9626,0,0,-9.962899,1.2109985,132.01459)"/>
<use data-text="0" xlink:href="#font_2_121" transform="matrix(9.9626,0,0,-9.962899,6.192299,132.01459)"/>
<path transform="matrix(1,0,0,-1.00003,15.977997,230.85857)" stroke-width=".79701" stroke-linecap="butt" stroke-miterlimit="10" stroke-linejoin="miter" fill="none" stroke="#000000" d="M1.4174 136.06606H-1.41719"/>
<path transform="matrix(1,0,0,-1.00003,15.977997,230.85857)" d="M-15.76358 131.5878H-3.80826V140.54431H-15.76358Z" fill="#ffffff"/>
<use data-text="4" xlink:href="#font_2_57" transform="matrix(9.9626,0,0,-9.962899,1.2109985,98.05159)"/>
<use data-text="0" xlink:href="#font_2_121" transform="matrix(9.9626,0,0,-9.962899,6.192299,98.05159)"/>
<path transform="matrix(1,0,0,-1.00003,15.977997,230.85857)" stroke-width=".79701" stroke-linecap="butt" stroke-miterlimit="10" stroke-linejoin="miter" fill="none" stroke="#000000" d="M1.4174 170.08257H-1.41719"/>
<path transform="matrix(1,0,0,-1.00003,15.977997,230.85857)" d="M-15.76358 165.65912H-3.80826V174.50603H-15.76358Z" fill="#ffffff"/>
<use data-text="5" xlink:href="#font_2_56" transform="matrix(9.9626,0,0,-9.962899,1.2109985,63.978548)"/>
<use data-text="0" xlink:href="#font_2_121" transform="matrix(9.9626,0,0,-9.962899,6.192299,63.978548)"/>
<path transform="matrix(1,0,0,-1.00003,15.977997,230.85857)" stroke-width=".79701" stroke-linecap="butt" stroke-miterlimit="10" stroke-linejoin="miter" fill="none" stroke="#000000" d="M1.4174 204.09909H-1.41719"/>
<path transform="matrix(1,0,0,-1.00003,15.977997,230.85857)" d="M-15.76358 199.67565H-3.80826V208.52256H-15.76358Z" fill="#ffffff"/>
<use data-text="6" xlink:href="#font_2_101" transform="matrix(9.9626,0,0,-9.962899,1.2109985,29.961518)"/>
<use data-text="0" xlink:href="#font_2_121" transform="matrix(9.9626,0,0,-9.962899,6.192299,29.961518)"/>
</svg>
