<svg xmlns="http://www.w3.org/2000/svg" xmlns:xlink="http://www.w3.org/1999/xlink" version="1.1" width="234" height="224" viewBox="0 0 234 224">
<defs>
<path id="font_1_1" d="M.33399964 .30233766C.33999635 .32835389 .36299134 .42037965 .43299867 .42037965 .43798829 .42037965 .46199037 .42037965 .48298646 .40734864 .45498658 .402359 .43499757 .37734986 .43499757 .35334779 .43499757 .33735658 .44599916 .31835938 .47299195 .31835938 .49499513 .31835938 .5269928 .3363495 .5269928 .37635804 .5269928 .42837525 .46798707 .4423828 .43399049 .4423828 .37599183 .4423828 .34098817 .38935853 .32899476 .36634828 .3039856 .43237306 .25 .4423828 .22099304 .4423828 .116989139 .4423828 .05999756 .3133545 .05999756 .28834535 .05999756 .27833558 .069992069 .27833558 .07199097 .27833558 .07998657 .27833558 .08299255 .28033448 .084991458 .28933717 .11898804 .39535523 .18499756 .42037965 .21899414 .42037965 .23799134 .42037965 .272995 .4113617 .272995 .35334779 .272995 .32235719 .2559967 .25532533 .21899414 .11528015 .20298767 .053268434 .16799927 .011245728 .12399292 .011245728 .117996219 .011245728 .09498596 .011245728 .07398987 .024276734 .09899902 .029266358 .12098694 .05027771 .12098694 .07827759 .12098694 .105270389 .09899902 .11328125 .083999637 .11328125 .053985597 .11328125 .0289917 .08728027 .0289917 .055267335 .0289917 .009246826 .07899475-.0107421879 .12298584-.0107421879 .18899536-.0107421879 .22499085 .059280397 .22799683 .0652771 .23999024 .028274537 .27598573-.0107421879 .33599855-.0107421879 .43899537-.0107421879 .49598695 .118270877 .49598695 .14328003 .49598695 .1532898 .4869995 .1532898 .48399354 .1532898 .47499085 .1532898 .47299195 .14929199 .47099305 .14228821 .43798829 .03527832 .36999513 .011245728 .33799745 .011245728 .29899598 .011245728 .2829895 .043273927 .2829895 .07727051 .2829895 .09927368 .2889862 .121276859 .2999878 .16529846L.33399964 .30233766Z"/>
<path id="font_1_2" d="M.48599244 .38136292C.48999024 .39537049 .48999024 .39736939 .48999024 .40437318 .48999024 .42237855 .47599793 .43138124 .46099855 .43138124 .45098878 .43138124 .43499757 .42536927 .42599488 .41036988 .42399598 .405365 .41600038 .37435914 .4119873 .35635377 .40499879 .33035279 .397995 .30334474 .3919983 .27633668L.34700013 .09628296C.34298707 .08126831 .2999878 .011245728 .23399353 .011245728 .18299866 .011245728 .17199707 .055267335 .17199707 .0922699 .17199707 .1382904 .18899536 .20030213 .22299195 .28833009 .23899842 .3293457 .24299622 .3403473 .24299622 .36035157 .24299622 .405365 .21099854 .4423828 .16099549 .4423828 .06599426 .4423828 .0289917 .29733277 .0289917 .28833009 .0289917 .27833558 .038986207 .27833558 .040985109 .27833558 .050994874 .27833558 .051986696 .28033448 .056991579 .29634095 .083999637 .3903656 .12399292 .42037965 .1579895 .42037965 .1659851 .42037965 .18299866 .42037965 .18299866 .3883667 .18299866 .36335755 .17298889 .3373413 .1659851 .31834413 .12599182 .21231079 .10798645 .1552887 .10798645 .10827637 .10798645 .019256592 .17098999-.0107421879 .22999573-.0107421879 .2689972-.0107421879 .30299378 .0062561037 .33099366 .03425598 .31799317-.017745972 .30599977-.06674194 .2659912-.11973572 .23999024-.15385437 .20199585-.18309021 .1559906-.18309021 .14199829-.18309021 .09700012-.18005371 .07998657-.14074707 .09599304-.14074707 .10899353-.14074707 .12298584-.1287384 .1329956-.11973572 .14299011-.10673523 .14299011-.08773804 .14299011-.056747438 .115997318-.052734376 .10598755-.052734376 .08299255-.052734376 .049987794-.068740848 .049987794-.11773682 .049987794-.16796875 .09399414-.20507813 .1559906-.20507813 .25898744-.20507813 .3619995-.11373901 .3899994-.00074768069L.48599244 .38136292Z"/>
<path id="font_2_1" d="M.6589966 .23046875C.6759949 .23046875 .69400027 .23046875 .69400027 .25045777 .69400027 .27046205 .6759949 .27046205 .6589966 .27046205H.117996219C.100997928 .27046205 .08299255 .27046205 .08299255 .25045777 .08299255 .23046875 .100997928 .23046875 .117996219 .23046875H.6589966Z"/>
<path id="font_3_5" d="M.44898988 .20022583C.44898988 .3193512 .36698915 .41944886 .25898744 .41944886 .21099854 .41944886 .16799927 .40345765 .13198853 .36842347V.5637665C.1519928 .5577698 .18499756 .55078127 .21699524 .55078127 .33999635 .55078127 .4099884 .6417694 .4099884 .6547699 .4099884 .6607666 .40699769 .6657715 .3999939 .6657715 .39898683 .6657715 .39698792 .6657715 .3919983 .66278079 .37199403 .6537781 .32299806 .6337738 .2559967 .6337738 .21598816 .6337738 .16999817 .6407776 .12298584 .6617737 .114990238 .66477969 .11299133 .66477969 .11099243 .66477969 .100997928 .66477969 .100997928 .6567688 .100997928 .6407776V.34439088C.100997928 .32637025 .100997928 .31835938 .114990238 .31835938 .12199402 .31835938 .12399292 .32136537 .12799073 .32736207 .13899231 .3433838 .17599488 .39746095 .25698854 .39746095 .30899049 .39746095 .33399964 .35139466 .34199525 .33337403 .35798646 .29632569 .3600006 .25727845 .3600006 .20722962 .3600006 .17222595 .3600006 .11222839 .33599855 .07035828 .31199647 .031463624 .2749939 .0055389406 .22898865 .0055389406 .1559906 .0055389406 .09899902 .058380128 .08198547 .11723328 .084991458 .1162262 .08799744 .115234378 .09899902 .115234378 .13198853 .115234378 .14898682 .14022827 .14898682 .16423035 .14898682 .18823242 .13198853 .21322632 .09899902 .21322632 .084991458 .21322632 .049987794 .20622254 .049987794 .16023255 .049987794 .07434082 .11898804-.022460938 .23098755-.022460938 .34700013-.022460938 .44898988 .073349 .44898988 .20022583Z"/>
<path id="font_3_2" d="M.2939911 .64004519C.2939911 .66400149 .2939911 .6660156 .2709961 .6660156 .20899964 .60227969 .12098694 .60227969 .08898926 .60227969V.57128909C.10899353 .57128909 .16799927 .57128909 .21998596 .5972748V.07902527C.21998596 .042999269 .21699524 .0309906 .1269989 .0309906H.09498596V0C.12998963 .0029907227 .21699524 .0029907227 .25698854 .0029907227 .29699708 .0029907227 .38398744 .0029907227 .4189911 0V.0309906H.3869934C.29699708 .0309906 .2939911 .041992189 .2939911 .07902527V.64004519Z"/>
<path id="font_3_1" d="M.45999146 .31976319C.45999146 .39982606 .45498658 .47988893 .41999818 .5539398 .37399293 .65000918 .2919922 .6660156 .25 .6660156 .18998719 .6660156 .116989139 .64001467 .07598877 .54693606 .04399109 .47789 .038986207 .39982606 .038986207 .31976319 .038986207 .24472046 .042999269 .15464783 .083999637 .07859802 .1269989-.0024719239 .19999695-.022460938 .24899292-.022460938 .30299378-.022460938 .3789978-.0014648438 .4229889 .09359741 .45498658 .16265869 .45999146 .2407074 .45999146 .31976319M.24899292-.00047302247C.20999146-.00047302247 .15098572 .024551392 .1329956 .12062073 .12199402 .18066406 .12199402 .2727356 .12199402 .3317871 .12199402 .39582826 .12199402 .46188355 .12998963 .5159149 .14898682 .63500979 .22399903 .64401248 .24899292 .64401248 .28199769 .64401248 .34799195 .6259918 .36698915 .52693179 .3769989 .47088624 .3769989 .39482118 .3769989 .3317871 .3769989 .25672914 .3769989 .18867493 .3659973 .12461853 .35099793 .029556275 .2939911-.00047302247 .24899292-.00047302247Z"/>
<path id="font_3_4" d="M.2899933 .35191346C.37199403 .37893678 .42999269 .4490509 .42999269 .52809146 .42999269 .6100464 .34199525 .6660156 .24598694 .6660156 .14498902 .6660156 .068984989 .60606387 .068984989 .53009036 .068984989 .49710084 .09098816 .47808839 .11999512 .47808839 .15098572 .47808839 .17098999 .50009158 .17098999 .5290985 .17098999 .57910159 .12399292 .57910159 .10899353 .57910159 .13999939 .62802127 .20599365 .64100649 .24198914 .64100649 .2829895 .64100649 .33799745 .6190338 .33799745 .5290985 .33799745 .51708987 .33599855 .45906068 .30999757 .4149933 .27999879 .36691285 .24598694 .36390687 .22099304 .36291505 .21299744 .36190797 .18899536 .35990907 .18199158 .35990907 .17399597 .35890199 .16699219 .35791017 .16699219 .3479004 .16699219 .33691407 .17399597 .33691407 .19099427 .33691407H.23498535C.31698609 .33691407 .35398866 .2686615 .35398866 .17037964 .35398866 .034469606 .2849884 .0055389406 .24099732 .0055389406 .19799805 .0055389406 .12298584 .022491456 .08799744 .08137512 .12298584 .07637024 .1539917 .09837341 .1539917 .1363678 .1539917 .17237854 .1269989 .19238281 .09799194 .19238281 .07398987 .19238281 .041992189 .17837525 .041992189 .1343689 .041992189 .043441774 .1349945-.022460938 .24398804-.022460938 .3659973-.022460938 .45700074 .06838989 .45700074 .17037964 .45700074 .252594 .3939972 .33088685 .2899933 .35191346Z"/>
<path id="font_3_3" d="M.1269989 .07699585 .23298645 .18003845C.3889923 .31811524 .44898988 .3721466 .44898988 .47216798 .44898988 .5860901 .35899354 .6660156 .23699951 .6660156 .12399292 .6660156 .049987794 .57411196 .049987794 .48516847 .049987794 .4291687 .099990848 .4291687 .102996829 .4291687 .11999512 .4291687 .15499878 .44117738 .15499878 .48217774 .15499878 .5081787 .13699341 .5341797 .101989749 .5341797 .09399414 .5341797 .09199524 .5341797 .08898926 .5331726 .11199951 .59806826 .1659851 .63500979 .22399903 .63500979 .31498719 .63500979 .35798646 .5541382 .35798646 .47216798 .35798646 .39215089 .30799867 .31311036 .25299073 .25108338L.06098938 .036987306C.049987794 .025985718 .049987794 .023986817 .049987794 0H.42099L.44898988 .17404175H.42399598C.4189911 .14402771 .4119873 .1000061 .4019928 .084991458 .394989 .07699585 .32899476 .07699585 .30699159 .07699585H.1269989Z"/>
</defs>
<path transform="matrix(1,0,0,-1,108.28,70.515)" stroke-width=".3985" stroke-linecap="butt" stroke-miterlimit="10" stroke-linejoin="miter" fill="none" stroke="#00aeef" d="M-99.21555-148.82334H99.21555M-99.21555-138.90178H99.21555M-99.21555-128.98023H99.21555M-99.21555-119.05867H99.21555M-99.21555-109.13712H99.21555M-99.21555-99.21555H99.21555M-99.21555-89.29399H99.21555M-99.21555-79.37244H99.21555M-99.21555-69.45088H99.21555M-99.21555-59.52933H99.21555M-99.21555-49.60777H99.21555M-99.21555-39.68622H99.21555M-99.21555-29.76466H99.21555M-99.21555-19.84311H99.21555M-99.21555-9.92155H99.21555M-99.21555 0H99.21555M-99.21555 9.92155H99.21555M-99.21555 19.84311H99.21555M-99.21555 29.76466H99.21555M-99.21555 39.68622H99.21555M-99.21555 49.60428H99.21555M-99.21555-148.82334V49.60777M-89.29399-148.82334V49.60777M-79.37244-148.82334V49.60777M-69.45088-148.82334V49.60777M-59.52933-148.82334V49.60777M-49.60777-148.82334V49.60777M-39.68622-148.82334V49.60777M-29.76466-148.82334V49.60777M-19.84311-148.82334V49.60777M-9.92155-148.82334V49.60777M0-148.82334V49.60777M9.92155-148.82334V49.60777M19.84311-148.82334V49.60777M29.76466-148.82334V49.60777M39.68622-148.82334V49.60777M49.60777-148.82334V49.60777M59.52933-148.82334V49.60777M69.45088-148.82334V49.60777M79.37244-148.82334V49.60777M89.29399-148.82334V49.60777M99.21207-148.82334V49.60777M99.21555 49.60777"/>
<path transform="matrix(1,0,0,-1,108.28,70.515)" stroke-width=".79701" stroke-linecap="butt" stroke-miterlimit="10" stroke-linejoin="miter" fill="none" stroke="#000000" d="M-99.21555 0H113.65549"/>
<path transform="matrix(1,0,0,-1,221.93549,70.515)" d="M1.0361 0C-.25902 .25902-1.55415 .77707-3.1083 1.68365-1.55415 .51805-1.55415-.51805-3.1083-1.68365-1.55415-.77707-.25902-.25902 1.0361 0Z"/>
<path transform="matrix(1,0,0,-1,221.93549,70.515)" stroke-width=".79701" stroke-linecap="butt" stroke-linejoin="round" fill="none" stroke="#000000" d="M1.0361 0C-.25902 .25902-1.55415 .77707-3.1083 1.68365-1.55415 .51805-1.55415-.51805-3.1083-1.68365-1.55415-.77707-.25902-.25902 1.0361 0Z"/>
<use data-text="x" xlink:href="#font_1_1" transform="matrix(9.9626,0,0,-9.9626,227.08899,72.66)"/>
<path transform="matrix(1,0,0,-1,108.28,70.515)" stroke-width=".79701" stroke-linecap="butt" stroke-miterlimit="10" stroke-linejoin="miter" fill="none" stroke="#000000" d="M0-148.82334V64.0477"/>
<path transform="matrix(0,-1,-1,-0,108.28,6.4673006)" d="M1.0361 0C-.25902 .25902-1.55415 .77707-3.1083 1.68365-1.55415 .51805-1.55415-.51805-3.1083-1.68365-1.55415-.77707-.25902-.25902 1.0361 0Z"/>
<path transform="matrix(0,-1,-1,-0,108.28,6.4673006)" stroke-width=".79701" stroke-linecap="butt" stroke-linejoin="round" fill="none" stroke="#000000" d="M1.0361 0C-.25902 .25902-1.55415 .77707-3.1083 1.68365-1.55415 .51805-1.55415-.51805-3.1083-1.68365-1.55415-.77707-.25902-.25902 1.0361 0Z"/>
<use data-text="y" xlink:href="#font_1_2" transform="matrix(9.9626,0,0,-9.9626,101.311,6.2089998)"/>
<path transform="matrix(1,0,0,-1,108.28,70.515)" stroke-width="1.19553" stroke-linecap="butt" stroke-miterlimit="10" stroke-linejoin="miter" fill="none" stroke="#00aeef" d="M-49.60777-148.82334V49.60777"/>
<path transform="matrix(1,0,0,-1,108.28,70.515)" stroke-width=".3985" stroke-linecap="butt" stroke-miterlimit="10" stroke-linejoin="miter" fill="none" stroke="#000000" d="M-49.60777 1.48816V-1.48831"/>
<path transform="matrix(1,0,0,-1,108.28,70.515)" d="M-56.96916-12.92334H-42.246377V-3.68011H-56.96916Z" fill="#ffffff"/>
<use data-text="&#x2212;" xlink:href="#font_2_1" transform="matrix(9.9626,0,0,-9.9626,52.307008,81.612)"/>
<use data-text="5" xlink:href="#font_3_5" transform="matrix(9.9626,0,0,-9.9626,60.056,81.612)"/>
<path transform="matrix(1,0,0,-1,108.28,70.515)" stroke-width="1.19553" stroke-linecap="butt" stroke-miterlimit="10" stroke-linejoin="miter" fill="none" stroke="#00aeef" d="M49.60777-148.82334V49.60777"/>
<path transform="matrix(1,0,0,-1,108.28,70.515)" stroke-width=".3985" stroke-linecap="butt" stroke-miterlimit="10" stroke-linejoin="miter" fill="none" stroke="#000000" d="M49.60777 1.48816V-1.48831"/>
<path transform="matrix(1,0,0,-1,108.28,70.515)" d="M46.1208-12.09311H53.09474V-3.68013H46.1208Z" fill="#ffffff"/>
<use data-text="5" xlink:href="#font_3_5" transform="matrix(9.9626,0,0,-9.9626,155.397,81.612)"/>
<path transform="matrix(1,0,0,-1,108.28,70.515)" stroke-width="1.19553" stroke-linecap="butt" stroke-miterlimit="10" stroke-linejoin="miter" fill="none" stroke="#00aeef" d="M-99.21555-148.82334V49.60777"/>
<path transform="matrix(1,0,0,-1,108.28,70.515)" stroke-width=".3985" stroke-linecap="butt" stroke-miterlimit="10" stroke-linejoin="miter" fill="none" stroke="#000000" d="M-99.21555 1.48816V-1.48831"/>
<path transform="matrix(1,0,0,-1,108.28,70.515)" d="M-109.06766-12.92334H-89.36346V-3.68011H-109.06766Z" fill="#ffffff"/>
<use data-text="&#x2212;" xlink:href="#font_2_1" transform="matrix(9.9626,0,0,-9.9626,.20899964,81.612)"/>
<use data-text="1" xlink:href="#font_3_2" transform="matrix(9.9626,0,0,-9.9626,7.9579927,81.612)"/>
<use data-text="0" xlink:href="#font_3_1" transform="matrix(9.9626,0,0,-9.9626,12.939285,81.612)"/>
<path transform="matrix(1,0,0,-1,108.28,70.515)" stroke-width="1.19553" stroke-linecap="butt" stroke-miterlimit="10" stroke-linejoin="miter" fill="none" stroke="#00aeef" d="M99.21555-148.82334V49.60777"/>
<path transform="matrix(1,0,0,-1,108.28,70.515)" stroke-width=".3985" stroke-linecap="butt" stroke-miterlimit="10" stroke-linejoin="miter" fill="none" stroke="#000000" d="M99.21555 1.48816V-1.48831"/>
<path transform="matrix(1,0,0,-1,108.28,70.515)" d="M93.23787-12.09311H105.19321V-3.68013H93.23787Z" fill="#ffffff"/>
<use data-text="1" xlink:href="#font_3_2" transform="matrix(9.9626,0,0,-9.9626,202.514,81.612)"/>
<use data-text="0" xlink:href="#font_3_1" transform="matrix(9.9626,0,0,-9.9626,207.4953,81.612)"/>
<path transform="matrix(1,0,0,-1,108.28,70.515)" stroke-width=".79701" stroke-linecap="butt" stroke-miterlimit="10" stroke-linejoin="miter" fill="none" stroke="#000000" d="M0-148.82334V64.0477"/>
<path transform="matrix(0,-1,-1,-0,108.28,6.4673006)" d="M1.0361 0C-.25902 .25902-1.55415 .77707-3.1083 1.68365-1.55415 .51805-1.55415-.51805-3.1083-1.68365-1.55415-.77707-.25902-.25902 1.0361 0Z"/>
<path transform="matrix(0,-1,-1,-0,108.28,6.4673006)" stroke-width=".79701" stroke-linecap="butt" stroke-linejoin="round" fill="none" stroke="#000000" d="M1.0361 0C-.25902 .25902-1.55415 .77707-3.1083 1.68365-1.55415 .51805-1.55415-.51805-3.1083-1.68365-1.55415-.77707-.25902-.25902 1.0361 0Z"/>
<use data-text="y" xlink:href="#font_1_2" transform="matrix(9.9626,0,0,-9.9626,101.311,6.2089998)"/>
<path transform="matrix(1,0,0,-1,108.28,70.515)" stroke-width="1.19553" stroke-linecap="butt" stroke-miterlimit="10" stroke-linejoin="miter" fill="none" stroke="#00aeef" d="M-99.21555-148.82334H99.21555"/>
<path transform="matrix(1,0,0,-1,108.28,70.515)" stroke-width=".3985" stroke-linecap="butt" stroke-miterlimit="10" stroke-linejoin="miter" fill="none" stroke="#000000" d="M1.48816-148.82334H-1.48831"/>
<path transform="matrix(1,0,0,-1,108.28,70.515)" d="M-23.38431-153.44495H-3.680109V-144.20172H-23.38431Z" fill="#ffffff"/>
<use data-text="&#x2212;" xlink:href="#font_2_1" transform="matrix(9.9626,0,0,-9.9626,85.892,222.133)"/>
<use data-text="3" xlink:href="#font_3_4" transform="matrix(9.9626,0,0,-9.9626,93.64099,222.133)"/>
<use data-text="0" xlink:href="#font_3_1" transform="matrix(9.9626,0,0,-9.9626,98.622287,222.133)"/>
<path transform="matrix(1,0,0,-1,108.28,70.515)" stroke-width="1.19553" stroke-linecap="butt" stroke-miterlimit="10" stroke-linejoin="miter" fill="none" stroke="#00aeef" d="M-99.21555-99.21555H99.21555"/>
<path transform="matrix(1,0,0,-1,108.28,70.515)" stroke-width=".3985" stroke-linecap="butt" stroke-miterlimit="10" stroke-linejoin="miter" fill="none" stroke="#000000" d="M1.48816-99.21555H-1.48831"/>
<path transform="matrix(1,0,0,-1,108.28,70.515)" d="M-23.38431-103.83717H-3.680109V-94.59394H-23.38431Z" fill="#ffffff"/>
<use data-text="&#x2212;" xlink:href="#font_2_1" transform="matrix(9.9626,0,0,-9.9626,85.892,172.526)"/>
<use data-text="2" xlink:href="#font_3_3" transform="matrix(9.9626,0,0,-9.9626,93.64099,172.526)"/>
<use data-text="0" xlink:href="#font_3_1" transform="matrix(9.9626,0,0,-9.9626,98.622287,172.526)"/>
<path transform="matrix(1,0,0,-1,108.28,70.515)" stroke-width="1.19553" stroke-linecap="butt" stroke-miterlimit="10" stroke-linejoin="miter" fill="none" stroke="#00aeef" d="M-99.21555-49.60777H99.21555"/>
<path transform="matrix(1,0,0,-1,108.28,70.515)" stroke-width=".3985" stroke-linecap="butt" stroke-miterlimit="10" stroke-linejoin="miter" fill="none" stroke="#000000" d="M1.48816-49.60777H-1.48831"/>
<path transform="matrix(1,0,0,-1,108.28,70.515)" d="M-23.38431-54.22939H-3.680109V-44.98616H-23.38431Z" fill="#ffffff"/>
<use data-text="&#x2212;" xlink:href="#font_2_1" transform="matrix(9.9626,0,0,-9.9626,85.892,122.918)"/>
<use data-text="1" xlink:href="#font_3_2" transform="matrix(9.9626,0,0,-9.9626,93.64099,122.918)"/>
<use data-text="0" xlink:href="#font_3_1" transform="matrix(9.9626,0,0,-9.9626,98.622287,122.918)"/>
<path transform="matrix(1,0,0,-1,108.28,70.515)" stroke-width="1.19553" stroke-linecap="butt" stroke-miterlimit="10" stroke-linejoin="miter" fill="none" stroke="#00aeef" d="M-99.21555 49.60777H99.21555"/>
<path transform="matrix(1,0,0,-1,108.28,70.515)" stroke-width=".3985" stroke-linecap="butt" stroke-miterlimit="10" stroke-linejoin="miter" fill="none" stroke="#000000" d="M1.48816 49.60777H-1.48831"/>
<path transform="matrix(1,0,0,-1,108.28,70.515)" d="M-15.63547 45.40128H-3.68013V53.81426H-15.63547Z" fill="#ffffff"/>
<use data-text="1" xlink:href="#font_3_2" transform="matrix(9.9626,0,0,-9.9626,93.641,24.117)"/>
<use data-text="0" xlink:href="#font_3_1" transform="matrix(9.9626,0,0,-9.9626,98.62229,24.117)"/>
<path transform="matrix(1,0,0,-1,108.28,70.515)" stroke-width="1.19553" stroke-linecap="butt" stroke-miterlimit="10" stroke-linejoin="miter" fill="none" stroke="#ff0000" d="M-9.58339 47.76566C-8.68947 42.89664-8.68947 42.89664-8.21626 40.37534-7.74307 37.85405-6.9842 33.87598-6.511 31.436-6.0378 28.99605-5.27895 25.14839-4.80574 22.78976-4.33252 20.43115-3.57367 16.71393-3.10046 14.43663-2.62726 12.15933-1.86841 8.57254-1.3952 6.37657-.922 4.1806-.16315 .72424 .31004-1.39035 .78323-3.50499 1.5421-6.83093 2.0153-8.86423 2.4885-10.89754 3.24736-14.09303 3.72057-16.045 4.19376-17.99696 4.95264-21.06204 5.42584-22.93268 5.89905-24.80333 6.6579-27.73796 7.1311-29.52727 7.60431-31.31659 8.36316-34.1208 8.83636-35.82878 9.30957-37.53674 10.06844-40.21053 10.54164-41.83717 11.01485-43.4638 11.7737-46.00717 12.2469-47.55247 12.72011-49.0978 13.47896-51.51073 13.95216-52.9747 14.42538-54.43867 15.18423-56.72118 15.65744-58.10382 16.13065-59.48647 16.8895-61.63853 17.3627-62.93987 17.8359-64.24117 18.59476-66.26282 19.06798-67.48279 19.54118-68.70277 20.30003-70.594 20.77324-71.73264 21.24644-72.87128 22.00531-74.63208 22.4785-75.68939 22.9517-76.7467 23.71057-78.37708 24.18378-79.35306 24.65698-80.32904 25.41585-81.82898 25.88904-82.72363 26.36224-83.61827 27.12111-84.98778 27.5943-85.8011 28.0675-86.61443 28.82639-87.8535 29.29959-88.58548 29.77278-89.31747 30.53165-90.42612 31.00484-91.07677 31.47804-91.72742 32.23691-92.70564 32.71011-93.27496 33.18332-93.8443 33.94218-94.69208 34.41539-95.18007 34.8886-95.66806 35.64745-96.38544 36.12065-96.79208 36.59384-97.19873 37.3527-97.78568 37.82591-98.111 38.29912-98.43631 39.05798-98.89282 39.53119-99.13683 40.0044-99.38081 40.76324-99.7069 41.23645-99.86955 41.70966-100.03221 42.4685-100.22787 42.94173-100.3092 43.41493-100.39053 44.17378-100.45575 44.64699-100.45575 45.1202-100.45575 45.87904-100.39053 46.35225-100.3092 46.82545-100.22787 47.58432-100.03221 48.05753-99.86955 48.53073-99.7069 49.28958-99.38081 49.76279-99.13683 50.236-98.89282 50.99484-98.43631 51.46805-98.111 51.94125-97.78568 52.70013-97.19873 53.17332-96.79208 53.64653-96.38544 54.40538-95.66806 54.87859-95.18007 55.35179-94.69208 56.11066-93.8443 56.58385-93.27496 57.05707-92.70564 57.81593-91.72742 58.28914-91.07677 58.76233-90.42612 59.5212-89.31747 59.99438-88.58548 60.46759-87.8535 61.22646-86.61443 61.69966-85.8011 62.17287-84.98778 62.93173-83.61827 63.40494-82.72363 63.87813-81.82898 64.637-80.32904 65.11018-79.35306 65.58339-78.37708 66.34225-76.7467 66.81548-75.68939 67.28867-74.63208 68.04753-72.87128 68.52074-71.73264 68.99394-70.594 69.75279-68.70277 70.226-67.48279 70.6992-66.26282 71.45807-64.24117 71.93127-62.93987 72.40448-61.63853 73.16333-59.48647 73.63654-58.10382 74.10974-56.72118 74.86859-54.43867 75.3418-52.9747 75.81502-51.51073 76.57387-49.0978 77.04707-47.55247 77.52028-46.00717 78.27913-43.4638 78.75233-41.83717 79.22554-40.21053 79.98439-37.53674 80.4576-35.82878 80.93082-34.1208 81.68967-31.31659 82.16287-29.52727 82.63608-27.73796 83.39493-24.80333 83.86813-22.93268 84.34134-21.06204 85.10019-17.99696 85.57341-16.045 86.04662-14.09303 86.80548-10.89754 87.27867-8.86423 87.75188-6.83093 88.51073-3.50499 88.98393-1.39035 89.45714 .72424 90.21602 4.1806 90.68921 6.37657 91.16241 8.57254 91.92128 12.15933 92.39449 14.43663 92.86768 16.71393 93.62654 20.43115 94.09973 22.78976 94.57294 25.14839 95.33182 28.99605 95.80501 31.436 96.27821 33.87598 97.03708 37.85405 97.51028 40.37534 97.98347 42.89664 99.21555 49.60777 98.8774 47.76566"/>
<path transform="matrix(-.18054,-.98352,-.98352,.18054,98.69661,22.74936)" d="M1.27522 0C-.31879 .31879-1.91284 .9564-3.8257 2.07224-1.91284 .6376-1.91284-.6376-3.8257-2.07224-1.91284-.9564-.31879-.31879 1.27522 0Z" fill="#ff0000"/>
<path transform="matrix(-.18054,-.98352,-.98352,.18054,98.69661,22.74936)" stroke-width="1.19553" stroke-linecap="butt" stroke-linejoin="round" fill="none" stroke="#ff0000" d="M1.27522 0C-.31879 .31879-1.91284 .9564-3.8257 2.07224-1.91284 .6376-1.91284-.6376-3.8257-2.07224-1.91284-.9564-.31879-.31879 1.27522 0Z"/>
<path transform="matrix(.18054,-.98352,-.98352,-.18054,207.15741,22.74936)" d="M1.27522 0C-.31879 .31879-1.91284 .9564-3.8257 2.07224-1.91284 .6376-1.91284-.6376-3.8257-2.07224-1.91284-.9564-.31879-.31879 1.27522 0Z" fill="#ff0000"/>
<path transform="matrix(.18054,-.98352,-.98352,-.18054,207.15741,22.74936)" stroke-width="1.19553" stroke-linecap="butt" stroke-linejoin="round" fill="none" stroke="#ff0000" d="M1.27522 0C-.31879 .31879-1.91284 .9564-3.8257 2.07224-1.91284 .6376-1.91284-.6376-3.8257-2.07224-1.91284-.9564-.31879-.31879 1.27522 0Z"/>
</svg>
