<svg xmlns="http://www.w3.org/2000/svg" xmlns:xlink="http://www.w3.org/1999/xlink" version="1.1" width="240" height="244" viewBox="0 0 240 244">
<defs>
<path id="font_1_1" d="M.33399964 .30233766C.33999635 .32835389 .36299134 .42037965 .43299867 .42037965 .43798829 .42037965 .46199037 .42037965 .48298646 .40734864 .45498658 .402359 .43499757 .37734986 .43499757 .35334779 .43499757 .33735658 .44599916 .31835938 .47299195 .31835938 .49499513 .31835938 .5269928 .3363495 .5269928 .37635804 .5269928 .42837525 .46798707 .4423828 .43399049 .4423828 .37599183 .4423828 .34098817 .38935853 .32899476 .36634828 .3039856 .43237306 .25 .4423828 .22099304 .4423828 .116989139 .4423828 .05999756 .3133545 .05999756 .28834535 .05999756 .27833558 .069992069 .27833558 .07199097 .27833558 .07998657 .27833558 .08299255 .28033448 .084991458 .28933717 .11898804 .39535523 .18499756 .42037965 .21899414 .42037965 .23799134 .42037965 .272995 .4113617 .272995 .35334779 .272995 .32235719 .2559967 .25532533 .21899414 .11528015 .20298767 .053268434 .16799927 .011245728 .12399292 .011245728 .117996219 .011245728 .09498596 .011245728 .07398987 .024276734 .09899902 .029266358 .12098694 .05027771 .12098694 .07827759 .12098694 .105270389 .09899902 .11328125 .083999637 .11328125 .053985597 .11328125 .0289917 .08728027 .0289917 .055267335 .0289917 .009246826 .07899475-.0107421879 .12298584-.0107421879 .18899536-.0107421879 .22499085 .059280397 .22799683 .0652771 .23999024 .028274537 .27598573-.0107421879 .33599855-.0107421879 .43899537-.0107421879 .49598695 .118270877 .49598695 .14328003 .49598695 .1532898 .4869995 .1532898 .48399354 .1532898 .47499085 .1532898 .47299195 .14929199 .47099305 .14228821 .43798829 .03527832 .36999513 .011245728 .33799745 .011245728 .29899598 .011245728 .2829895 .043273927 .2829895 .07727051 .2829895 .09927368 .2889862 .121276859 .2999878 .16529846L.33399964 .30233766Z"/>
<path id="font_1_2" d="M.48599244 .38136292C.48999024 .39537049 .48999024 .39736939 .48999024 .40437318 .48999024 .42237855 .47599793 .43138124 .46099855 .43138124 .45098878 .43138124 .43499757 .42536927 .42599488 .41036988 .42399598 .405365 .41600038 .37435914 .4119873 .35635377 .40499879 .33035279 .397995 .30334474 .3919983 .27633668L.34700013 .09628296C.34298707 .08126831 .2999878 .011245728 .23399353 .011245728 .18299866 .011245728 .17199707 .055267335 .17199707 .0922699 .17199707 .1382904 .18899536 .20030213 .22299195 .28833009 .23899842 .3293457 .24299622 .3403473 .24299622 .36035157 .24299622 .405365 .21099854 .4423828 .16099549 .4423828 .06599426 .4423828 .0289917 .29733277 .0289917 .28833009 .0289917 .27833558 .038986207 .27833558 .040985109 .27833558 .050994874 .27833558 .051986696 .28033448 .056991579 .29634095 .083999637 .3903656 .12399292 .42037965 .1579895 .42037965 .1659851 .42037965 .18299866 .42037965 .18299866 .3883667 .18299866 .36335755 .17298889 .3373413 .1659851 .31834413 .12599182 .21231079 .10798645 .1552887 .10798645 .10827637 .10798645 .019256592 .17098999-.0107421879 .22999573-.0107421879 .2689972-.0107421879 .30299378 .0062561037 .33099366 .03425598 .31799317-.017745972 .30599977-.06674194 .2659912-.11973572 .23999024-.15385437 .20199585-.18309021 .1559906-.18309021 .14199829-.18309021 .09700012-.18005371 .07998657-.14074707 .09599304-.14074707 .10899353-.14074707 .12298584-.1287384 .1329956-.11973572 .14299011-.10673523 .14299011-.08773804 .14299011-.056747438 .115997318-.052734376 .10598755-.052734376 .08299255-.052734376 .049987794-.068740848 .049987794-.11773682 .049987794-.16796875 .09399414-.20507813 .1559906-.20507813 .25898744-.20507813 .3619995-.11373901 .3899994-.00074768069L.48599244 .38136292Z"/>
<path id="font_2_1" d="M.6589966 .23046875C.6759949 .23046875 .69400027 .23046875 .69400027 .25045777 .69400027 .27046205 .6759949 .27046205 .6589966 .27046205H.117996219C.100997928 .27046205 .08299255 .27046205 .08299255 .25045777 .08299255 .23046875 .100997928 .23046875 .117996219 .23046875H.6589966Z"/>
<path id="font_3_1" d="M.44898988 .20022583C.44898988 .3193512 .36698915 .41944886 .25898744 .41944886 .21099854 .41944886 .16799927 .40345765 .13198853 .36842347V.5637665C.1519928 .5577698 .18499756 .55078127 .21699524 .55078127 .33999635 .55078127 .4099884 .6417694 .4099884 .6547699 .4099884 .6607666 .40699769 .6657715 .3999939 .6657715 .39898683 .6657715 .39698792 .6657715 .3919983 .66278079 .37199403 .6537781 .32299806 .6337738 .2559967 .6337738 .21598816 .6337738 .16999817 .6407776 .12298584 .6617737 .114990238 .66477969 .11299133 .66477969 .11099243 .66477969 .100997928 .66477969 .100997928 .6567688 .100997928 .6407776V.34439088C.100997928 .32637025 .100997928 .31835938 .114990238 .31835938 .12199402 .31835938 .12399292 .32136537 .12799073 .32736207 .13899231 .3433838 .17599488 .39746095 .25698854 .39746095 .30899049 .39746095 .33399964 .35139466 .34199525 .33337403 .35798646 .29632569 .3600006 .25727845 .3600006 .20722962 .3600006 .17222595 .3600006 .11222839 .33599855 .07035828 .31199647 .031463624 .2749939 .0055389406 .22898865 .0055389406 .1559906 .0055389406 .09899902 .058380128 .08198547 .11723328 .084991458 .1162262 .08799744 .115234378 .09899902 .115234378 .13198853 .115234378 .14898682 .14022827 .14898682 .16423035 .14898682 .18823242 .13198853 .21322632 .09899902 .21322632 .084991458 .21322632 .049987794 .20622254 .049987794 .16023255 .049987794 .07434082 .11898804-.022460938 .23098755-.022460938 .34700013-.022460938 .44898988 .073349 .44898988 .20022583Z"/>
</defs>
<path transform="matrix(1.00002,0,0,-1.00003,110.74892,130.35852)" stroke-width=".3985" stroke-linecap="butt" stroke-miterlimit="10" stroke-linejoin="miter" fill="none" stroke="#00aeef" d="M-109.1358-109.1358H109.1358M-109.1358-93.54497H109.1358M-109.1358-77.95415H109.1358M-109.1358-62.36331H109.1358M-109.1358-46.77248H109.1358M-109.1358-31.18166H109.1358M-109.1358-15.59082H109.1358M-109.1358 0H109.1358M-109.1358 15.59082H109.1358M-109.1358 31.18166H109.1358M-109.1358 46.77248H109.1358M-109.1358 62.36331H109.1358M-109.1358 77.95415H109.1358M-109.1358 93.54497H109.1358M-109.1358 109.13033H109.1358M-109.1358-109.1358V109.1358M-93.54497-109.1358V109.1358M-77.95415-109.1358V109.1358M-62.36331-109.1358V109.1358M-46.77248-109.1358V109.1358M-31.18166-109.1358V109.1358M-15.59082-109.1358V109.1358M0-109.1358V109.1358M15.59082-109.1358V109.1358M31.18166-109.1358V109.1358M46.77248-109.1358V109.1358M62.36331-109.1358V109.1358M77.95415-109.1358V109.1358M93.54497-109.1358V109.1358M109.13033-109.1358V109.1358M109.1358 109.1358"/>
<path transform="matrix(1.00002,0,0,-1.00003,110.74892,130.35852)" stroke-width=".79701" stroke-linecap="butt" stroke-miterlimit="10" stroke-linejoin="miter" fill="none" stroke="#000000" d="M-109.1358 0H117.05579"/>
<path transform="matrix(1.00002,0,0,-1.00003,227.80706,130.35852)" d="M1.0361 0C-.25902 .25902-1.55415 .77707-3.1083 1.68365-1.55415 .51805-1.55415-.51805-3.1083-1.68365-1.55415-.77707-.25902-.25902 1.0361 0Z"/>
<path transform="matrix(1.00002,0,0,-1.00003,227.80706,130.35852)" stroke-width=".79701" stroke-linecap="butt" stroke-linejoin="round" fill="none" stroke="#000000" d="M1.0361 0C-.25902 .25902-1.55415 .77707-3.1083 1.68365-1.55415 .51805-1.55415-.51805-3.1083-1.68365-1.55415-.77707-.25902-.25902 1.0361 0Z"/>
<use data-text="x" xlink:href="#font_1_1" transform="matrix(9.962799,0,0,-9.962899,232.96036,132.50359)"/>
<path transform="matrix(1.00002,0,0,-1.00003,110.74892,130.35852)" stroke-width=".79701" stroke-linecap="butt" stroke-miterlimit="10" stroke-linejoin="miter" fill="none" stroke="#000000" d="M0-109.1358V117.05579"/>
<path transform="matrix(0,-1.00003,-1.00002,-0,110.74892,13.29921)" d="M1.0361 0C-.25902 .25902-1.55415 .77707-3.1083 1.68365-1.55415 .51805-1.55415-.51805-3.1083-1.68365-1.55415-.77707-.25902-.25902 1.0361 0Z"/>
<path transform="matrix(0,-1.00003,-1.00002,-0,110.74892,13.29921)" stroke-width=".79701" stroke-linecap="butt" stroke-linejoin="round" fill="none" stroke="#000000" d="M1.0361 0C-.25902 .25902-1.55415 .77707-3.1083 1.68365-1.55415 .51805-1.55415-.51805-3.1083-1.68365-1.55415-.77707-.25902-.25902 1.0361 0Z"/>
<use data-text="y" xlink:href="#font_1_2" transform="matrix(9.962799,0,0,-9.962899,108.12786,6.2077867)"/>
<path transform="matrix(1.00002,0,0,-1.00003,110.74892,130.35852)" stroke-width=".3985" stroke-linecap="butt" stroke-miterlimit="10" stroke-linejoin="miter" fill="none" stroke="#000000" d="M-77.95415 1.55917V-1.55893"/>
<path transform="matrix(1.00002,0,0,-1.00003,110.74892,130.35852)" d="M-85.31554-12.99396H-70.59276V-3.7507306H-85.31554Z" fill="#ffffff"/>
<use data-text="&#x2212;" xlink:href="#font_2_1" transform="matrix(9.962799,0,0,-9.962899,26.428223,141.52585)"/>
<use data-text="5" xlink:href="#font_3_1" transform="matrix(9.962799,0,0,-9.962899,34.17737,141.52585)"/>
<path transform="matrix(1.00002,0,0,-1.00003,110.74892,130.35852)" stroke-width=".3985" stroke-linecap="butt" stroke-miterlimit="10" stroke-linejoin="miter" fill="none" stroke="#000000" d="M77.95415 1.55917V-1.55893"/>
<path transform="matrix(1.00002,0,0,-1.00003,110.74892,130.35852)" d="M74.46718-12.16371H81.44112V-3.7507296H74.46718Z" fill="#ffffff"/>
<use data-text="5" xlink:href="#font_3_1" transform="matrix(9.962799,0,0,-9.962899,186.21343,141.52585)"/>
<path transform="matrix(1.00002,0,0,-1.00003,110.74892,130.35852)" stroke-width=".3985" stroke-linecap="butt" stroke-miterlimit="10" stroke-linejoin="miter" fill="none" stroke="#000000" d="M1.55917-77.95415H-1.55893"/>
<path transform="matrix(1.00002,0,0,-1.00003,110.74892,130.35852)" d="M-18.47351-82.57576H-3.7507306V-73.33253H-18.47351Z" fill="#ffffff"/>
<use data-text="&#x2212;" xlink:href="#font_2_1" transform="matrix(9.962799,0,0,-9.962899,93.27157,211.10996)"/>
<use data-text="5" xlink:href="#font_3_1" transform="matrix(9.962799,0,0,-9.962899,101.02071,211.10996)"/>
<path transform="matrix(1.00002,0,0,-1.00003,110.74892,130.35852)" stroke-width=".3985" stroke-linecap="butt" stroke-miterlimit="10" stroke-linejoin="miter" fill="none" stroke="#000000" d="M1.55917 77.95415H-1.55893"/>
<path transform="matrix(1.00002,0,0,-1.00003,110.74892,130.35852)" d="M-10.72467 73.74765H-3.7507306V82.16063H-10.72467Z" fill="#ffffff"/>
<use data-text="5" xlink:href="#font_3_1" transform="matrix(9.962799,0,0,-9.962899,101.02072,55.612276)"/>
<path transform="matrix(1.00002,0,0,-1.00003,110.74892,130.35852)" stroke-width=".3985" stroke-linecap="butt" stroke-dasharray="2.98883,2.98883" stroke-miterlimit="10" stroke-linejoin="miter" fill="none" stroke="#929292" d="M-81.85185-109.13533 81.85185 109.13533"/>
<path transform="matrix(1.00002,0,0,-1.00003,110.74892,130.35852)" stroke-width=".3985" stroke-linecap="butt" stroke-dasharray="2.98883,2.98883" stroke-miterlimit="10" stroke-linejoin="miter" fill="none" stroke="#929292" d="M-81.85185 109.13533 81.85185-109.13533"/>
<path transform="matrix(1.00002,0,0,-1.00003,110.74892,130.35852)" stroke-width="1.19553" stroke-linecap="butt" stroke-miterlimit="10" stroke-linejoin="miter" fill="none" stroke="#ff0000" d="M95.24677-110.62398C93.74689-108.32619 93.74689-108.32619 92.80846-106.87769 91.87-105.42918 90.40048-103.14984 89.50691-101.75243 88.61333-100.35501 87.2181-98.1541 86.36809-96.80608 85.51808-95.45804 84.18861-93.33827 83.38058-92.03671 82.57256-90.73514 81.312-88.6825 80.54436-87.42531 79.77673-86.1681 78.57684-84.19061 77.84805-82.97568 77.11923-81.76073 75.98228-79.84413 75.2916-78.6688 74.6009-77.49344 73.524-75.64221 72.87004-74.50462 72.2161-73.36707 71.19707-71.57182 70.57838-70.4699 69.9597-69.36795 68.99544-67.63026 68.4109-66.56267 67.82635-65.49507 66.91661-63.81139 66.36546-62.77534 65.8143-61.7393 64.95728-60.10136 64.43849-59.09555 63.91971-58.08975 63.11401-56.50343 62.62643-55.52614 62.13884-54.54886 61.38116-53.00304 60.92426-52.05188 60.46738-51.10074 59.76073-49.59709 59.33345-48.67088 58.90617-47.74469 58.24336-46.27933 57.8447-45.3765 57.44601-44.47366 56.83028-43.04523 56.46013-42.16393 56.08997-41.28262 55.51923-39.88614 55.17691-39.02464 54.8346-38.16315 54.30838-36.79782 53.9929-35.95482 53.67741-35.11179 53.19263-33.77446 52.90309-32.94875 52.61356-32.12302 52.16957-30.8136 51.90605-30.00357 51.64256-29.19357 51.2419-27.90663 51.00395-27.11075 50.76599-26.31487 50.40405-25.05087 50.19106-24.2674 49.97806-23.48393 49.65724-22.23627 49.46881-21.46402 49.28036-20.69179 48.99709-19.46391 48.83292-18.70155 48.66873-17.93922 48.4257-16.72345 48.2855-15.96954 48.14528-15.21564 47.93877-14.01448 47.82231-13.26799 47.70587-12.52148 47.53899-11.3301 47.4462-10.58926 47.35342-9.84843 47.2233-8.66455 47.1536-7.92863 47.08388-7.19269 46.99019-6.01775 46.94376-5.28511 46.89732-4.55247 46.84193-3.37917 46.81886-2.64825 46.7958-1.91733 46.77786-.74539 46.77747-.0171 46.77707 .71114 46.79343 1.87173 46.81601 2.60068 46.83858 3.32962 46.89397 4.5042 46.94019 5.23657 46.98643 5.96895 47.0799 7.14346 47.1493 7.87914 47.21872 8.6148 47.348 9.7984 47.44049 10.53882 47.53297 11.27925 47.69994 12.46915 47.81589 13.21565 47.93184 13.96214 48.1367 15.1652 48.27621 15.91911 48.41574 16.673 48.65771 17.88727 48.82149 18.64922 48.98526 19.41116 49.26852 20.63889 49.45668 21.41074 49.64482 22.18259 49.9651 23.42874 50.17749 24.21222 50.3899 24.99568 50.75018 26.26158 50.98753 27.05746 51.2249 27.85335 51.62541 29.13837 51.88821 29.94838 52.15102 30.75839 52.59293 32.06987 52.88167 32.89546 53.17043 33.72104 53.65396 35.05672 53.96935 35.89867 54.28473 36.74062 54.81245 38.10316 55.15479 38.96375 55.49712 39.82433 56.06712 41.21994 56.43658 42.10112 56.80603 42.9823 57.4197 44.41194 57.81757 45.31464 58.21544 46.21733 58.8773 47.68134 59.30418 48.60713 59.73108 49.53294 60.43791 51.03682 60.8943 51.98718 61.3507 52.93755 62.10681 54.47964 62.5936 55.45668 63.08038 56.43369 63.88441 58.02353 64.4028 59.02895 64.92119 60.03435 65.7791 61.6675 66.32977 62.70303 66.88043 63.73854 67.788 65.42503 68.37163 66.49225 68.95529 67.55945 69.91818 69.29372 70.53627 70.39471 71.15437 71.49571 72.17305 73.29051 72.82649 74.42755 73.47995 75.5646 74.55592 77.41525 75.24591 78.5898 75.93591 79.76434 77.07188 81.67873 77.7995 82.89288 78.52711 84.10704 79.72328 86.08446 80.49013 87.34062 81.25696 88.59676 82.5189 90.64552 83.32634 91.9463 84.13376 93.24707 85.46043 95.36803 86.30957 96.71567 87.15869 98.06331 88.55345 100.26282 89.44624 101.65918 90.33902 103.05553 91.80667 105.33235 92.7442 106.77968 93.68176 108.22699 96.20348 112.09048 95.17973 110.52213"/>
<path transform="matrix(.546631,.83736518,.83735677,-.5466364,205.99758,240.98581)" d="M1.27522 0C-.31879 .31879-1.91284 .9564-3.8257 2.07224-1.91284 .6376-1.91284-.6376-3.8257-2.07224-1.91284-.9564-.31879-.31879 1.27522 0Z" fill="#ff0000"/>
<path transform="matrix(.546631,.83736518,.83735677,-.5466364,205.99758,240.98581)" stroke-width="1.19553" stroke-linecap="butt" stroke-linejoin="round" fill="none" stroke="#ff0000" d="M1.27522 0C-.31879 .31879-1.91284 .9564-3.8257 2.07224-1.91284 .6376-1.91284-.6376-3.8257-2.07224-1.91284-.9564-.31879-.31879 1.27522 0Z"/>
<path transform="matrix(.54660096,-.8373852,-.8373768,-.54660639,205.93056,19.833069)" d="M1.27522 0C-.31879 .31879-1.91284 .9564-3.8257 2.07224-1.91284 .6376-1.91284-.6376-3.8257-2.07224-1.91284-.9564-.31879-.31879 1.27522 0Z" fill="#ff0000"/>
<path transform="matrix(.54660096,-.8373852,-.8373768,-.54660639,205.93056,19.833069)" stroke-width="1.19553" stroke-linecap="butt" stroke-linejoin="round" fill="none" stroke="#ff0000" d="M1.27522 0C-.31879 .31879-1.91284 .9564-3.8257 2.07224-1.91284 .6376-1.91284-.6376-3.8257-2.07224-1.91284-.9564-.31879-.31879 1.27522 0Z"/>
<path transform="matrix(1.00002,0,0,-1.00003,110.74892,130.35852)" stroke-width="1.19553" stroke-linecap="butt" stroke-miterlimit="10" stroke-linejoin="miter" fill="none" stroke="#ff0000" d="M-95.24677-110.62398C-93.74689-108.32619-93.74689-108.32619-92.80846-106.87769-91.87-105.42918-90.40048-103.14984-89.50691-101.75243-88.61333-100.35501-87.2181-98.1541-86.36809-96.80608-85.51808-95.45804-84.18861-93.33827-83.38058-92.03671-82.57256-90.73514-81.312-88.6825-80.54436-87.42531-79.77673-86.1681-78.57684-84.19061-77.84805-82.97568-77.11923-81.76073-75.98228-79.84413-75.2916-78.6688-74.6009-77.49344-73.524-75.64221-72.87004-74.50462-72.2161-73.36707-71.19707-71.57182-70.57838-70.4699-69.9597-69.36795-68.99544-67.63026-68.4109-66.56267-67.82635-65.49507-66.91661-63.81139-66.36546-62.77534-65.8143-61.7393-64.95728-60.10136-64.43849-59.09555-63.91971-58.08975-63.11401-56.50343-62.62643-55.52614-62.13884-54.54886-61.38116-53.00304-60.92426-52.05188-60.46738-51.10074-59.76073-49.59709-59.33345-48.67088-58.90617-47.74469-58.24336-46.27933-57.8447-45.3765-57.44601-44.47366-56.83028-43.04523-56.46013-42.16393-56.08997-41.28262-55.51923-39.88614-55.17691-39.02464-54.8346-38.16315-54.30838-36.79782-53.9929-35.95482-53.67741-35.11179-53.19263-33.77446-52.90309-32.94875-52.61356-32.12302-52.16957-30.8136-51.90605-30.00357-51.64256-29.19357-51.2419-27.90663-51.00395-27.11075-50.76599-26.31487-50.40405-25.05087-50.19106-24.2674-49.97806-23.48393-49.65724-22.23627-49.46881-21.46402-49.28036-20.69179-48.99709-19.46391-48.83292-18.70155-48.66873-17.93922-48.4257-16.72345-48.2855-15.96954-48.14528-15.21564-47.93877-14.01448-47.82231-13.26799-47.70587-12.52148-47.53899-11.3301-47.4462-10.58926-47.35342-9.84843-47.2233-8.66455-47.1536-7.92863-47.08388-7.19269-46.99019-6.01775-46.94376-5.28511-46.89732-4.55247-46.84193-3.37917-46.81886-2.64825-46.7958-1.91733-46.77786-.74539-46.77747-.0171-46.77707 .71114-46.79343 1.87173-46.81601 2.60068-46.83858 3.32962-46.89397 4.5042-46.94019 5.23657-46.98643 5.96895-47.0799 7.14346-47.1493 7.87914-47.21872 8.6148-47.348 9.7984-47.44049 10.53882-47.53297 11.27925-47.69994 12.46915-47.81589 13.21565-47.93184 13.96214-48.1367 15.1652-48.27621 15.91911-48.41574 16.673-48.65771 17.88727-48.82149 18.64922-48.98526 19.41116-49.26852 20.63889-49.45668 21.41074-49.64482 22.18259-49.9651 23.42874-50.17749 24.21222-50.3899 24.99568-50.75018 26.26158-50.98753 27.05746-51.2249 27.85335-51.62541 29.13837-51.88821 29.94838-52.15102 30.75839-52.59293 32.06987-52.88167 32.89546-53.17043 33.72104-53.65396 35.05672-53.96935 35.89867-54.28473 36.74062-54.81245 38.10316-55.15479 38.96375-55.49712 39.82433-56.06712 41.21994-56.43658 42.10112-56.80603 42.9823-57.4197 44.41194-57.81757 45.31464-58.21544 46.21733-58.8773 47.68134-59.30418 48.60713-59.73108 49.53294-60.43791 51.03682-60.8943 51.98718-61.3507 52.93755-62.10681 54.47964-62.5936 55.45668-63.08038 56.43369-63.88441 58.02353-64.4028 59.02895-64.92119 60.03435-65.7791 61.6675-66.32977 62.70303-66.88043 63.73854-67.788 65.42503-68.37163 66.49225-68.95529 67.55945-69.91818 69.29372-70.53627 70.39471-71.15437 71.49571-72.17305 73.29051-72.82649 74.42755-73.47995 75.5646-74.55592 77.41525-75.24591 78.5898-75.93591 79.76434-77.07188 81.67873-77.7995 82.89288-78.52711 84.10704-79.72328 86.08446-80.49013 87.34062-81.25696 88.59676-82.5189 90.64552-83.32634 91.9463-84.13376 93.24707-85.46043 95.36803-86.30957 96.71567-87.15869 98.06331-88.55345 100.26282-89.44624 101.65918-90.33902 103.05553-91.80667 105.33235-92.7442 106.77968-93.68176 108.22699-96.20348 112.09048-95.17973 110.52213"/>
<path transform="matrix(-.546631,.83736518,.83735677,.5466364,15.500259,240.98581)" d="M1.27522 0C-.31879 .31879-1.91284 .9564-3.8257 2.07224-1.91284 .6376-1.91284-.6376-3.8257-2.07224-1.91284-.9564-.31879-.31879 1.27522 0Z" fill="#ff0000"/>
<path transform="matrix(-.546631,.83736518,.83735677,.5466364,15.500259,240.98581)" stroke-width="1.19553" stroke-linecap="butt" stroke-linejoin="round" fill="none" stroke="#ff0000" d="M1.27522 0C-.31879 .31879-1.91284 .9564-3.8257 2.07224-1.91284 .6376-1.91284-.6376-3.8257-2.07224-1.91284-.9564-.31879-.31879 1.27522 0Z"/>
<path transform="matrix(-.54660096,-.8373852,-.8373768,.54660639,15.567276,19.833069)" d="M1.27522 0C-.31879 .31879-1.91284 .9564-3.8257 2.07224-1.91284 .6376-1.91284-.6376-3.8257-2.07224-1.91284-.9564-.31879-.31879 1.27522 0Z" fill="#ff0000"/>
<path transform="matrix(-.54660096,-.8373852,-.8373768,.54660639,15.567276,19.833069)" stroke-width="1.19553" stroke-linecap="butt" stroke-linejoin="round" fill="none" stroke="#ff0000" d="M1.27522 0C-.31879 .31879-1.91284 .9564-3.8257 2.07224-1.91284 .6376-1.91284-.6376-3.8257-2.07224-1.91284-.9564-.31879-.31879 1.27522 0Z"/>
</svg>
