<svg xmlns="http://www.w3.org/2000/svg" xmlns:xlink="http://www.w3.org/1999/xlink" version="1.1" width="219" height="182" viewBox="0 0 219 182">
<defs>
<path id="font_1_5" d="M.33399964 .30233766C.33999635 .32835389 .36299134 .42037965 .43299867 .42037965 .43798829 .42037965 .46199037 .42037965 .48298646 .40734864 .45498658 .402359 .43499757 .37734986 .43499757 .35334779 .43499757 .33735658 .44599916 .31835938 .47299195 .31835938 .49499513 .31835938 .5269928 .3363495 .5269928 .37635804 .5269928 .42837525 .46798707 .4423828 .43399049 .4423828 .37599183 .4423828 .34098817 .38935853 .32899476 .36634828 .3039856 .43237306 .25 .4423828 .22099304 .4423828 .116989139 .4423828 .05999756 .3133545 .05999756 .28834535 .05999756 .27833558 .069992069 .27833558 .07199097 .27833558 .07998657 .27833558 .08299255 .28033448 .084991458 .28933717 .11898804 .39535523 .18499756 .42037965 .21899414 .42037965 .23799134 .42037965 .272995 .4113617 .272995 .35334779 .272995 .32235719 .2559967 .25532533 .21899414 .11528015 .20298767 .053268434 .16799927 .011245728 .12399292 .011245728 .117996219 .011245728 .09498596 .011245728 .07398987 .024276734 .09899902 .029266358 .12098694 .05027771 .12098694 .07827759 .12098694 .105270389 .09899902 .11328125 .083999637 .11328125 .053985597 .11328125 .0289917 .08728027 .0289917 .055267335 .0289917 .009246826 .07899475-.0107421879 .12298584-.0107421879 .18899536-.0107421879 .22499085 .059280397 .22799683 .0652771 .23999024 .028274537 .27598573-.0107421879 .33599855-.0107421879 .43899537-.0107421879 .49598695 .118270877 .49598695 .14328003 .49598695 .1532898 .4869995 .1532898 .48399354 .1532898 .47499085 .1532898 .47299195 .14929199 .47099305 .14228821 .43798829 .03527832 .36999513 .011245728 .33799745 .011245728 .29899598 .011245728 .2829895 .043273927 .2829895 .07727051 .2829895 .09927368 .2889862 .121276859 .2999878 .16529846L.33399964 .30233766Z"/>
<path id="font_1_6" d="M.48599244 .38136292C.48999024 .39537049 .48999024 .39736939 .48999024 .40437318 .48999024 .42237855 .47599793 .43138124 .46099855 .43138124 .45098878 .43138124 .43499757 .42536927 .42599488 .41036988 .42399598 .405365 .41600038 .37435914 .4119873 .35635377 .40499879 .33035279 .397995 .30334474 .3919983 .27633668L.34700013 .09628296C.34298707 .08126831 .2999878 .011245728 .23399353 .011245728 .18299866 .011245728 .17199707 .055267335 .17199707 .0922699 .17199707 .1382904 .18899536 .20030213 .22299195 .28833009 .23899842 .3293457 .24299622 .3403473 .24299622 .36035157 .24299622 .405365 .21099854 .4423828 .16099549 .4423828 .06599426 .4423828 .0289917 .29733277 .0289917 .28833009 .0289917 .27833558 .038986207 .27833558 .040985109 .27833558 .050994874 .27833558 .051986696 .28033448 .056991579 .29634095 .083999637 .3903656 .12399292 .42037965 .1579895 .42037965 .1659851 .42037965 .18299866 .42037965 .18299866 .3883667 .18299866 .36335755 .17298889 .3373413 .1659851 .31834413 .12599182 .21231079 .10798645 .1552887 .10798645 .10827637 .10798645 .019256592 .17098999-.0107421879 .22999573-.0107421879 .2689972-.0107421879 .30299378 .0062561037 .33099366 .03425598 .31799317-.017745972 .30599977-.06674194 .2659912-.11973572 .23999024-.15385437 .20199585-.18309021 .1559906-.18309021 .14199829-.18309021 .09700012-.18005371 .07998657-.14074707 .09599304-.14074707 .10899353-.14074707 .12298584-.1287384 .1329956-.11973572 .14299011-.10673523 .14299011-.08773804 .14299011-.056747438 .115997318-.052734376 .10598755-.052734376 .08299255-.052734376 .049987794-.068740848 .049987794-.11773682 .049987794-.16796875 .09399414-.20507813 .1559906-.20507813 .25898744-.20507813 .3619995-.11373901 .3899994-.00074768069L.48599244 .38136292Z"/>
<path id="font_2_1" d="M.33099366-.2400055C.33099366-.23701477 .33099366-.23500061 .31399537-.21800232 .18899536-.0920105 .15699768 .09700012 .15699768 .25 .15699768 .42399598 .19499207 .59799197 .31799317 .72299197 .33099366 .73498538 .33099366 .7369995 .33099366 .73999026 .33099366 .746994 .32699586 .75 .32099916 .75 .31098939 .75 .22099304 .6819916 .1619873 .5549927 .11099243 .44499208 .09899902 .33399964 .09899902 .25 .09899902 .17199707 .10998535 .050994874 .16499329-.06201172 .22499085-.18501282 .31098939-.25 .32099916-.25 .32699586-.25 .33099366-.24700928 .33099366-.2400055Z"/>
<path id="font_3_1" d="M.6589966 .23046875C.6759949 .23046875 .69400027 .23046875 .69400027 .25045777 .69400027 .27046205 .6759949 .27046205 .6589966 .27046205H.117996219C.100997928 .27046205 .08299255 .27046205 .08299255 .25045777 .08299255 .23046875 .100997928 .23046875 .117996219 .23046875H.6589966Z"/>
<path id="font_2_5" d="M.1269989 .07699585 .23298645 .18003845C.3889923 .31811524 .44898988 .3721466 .44898988 .47216798 .44898988 .5860901 .35899354 .6660156 .23699951 .6660156 .12399292 .6660156 .049987794 .57411196 .049987794 .48516847 .049987794 .4291687 .099990848 .4291687 .102996829 .4291687 .11999512 .4291687 .15499878 .44117738 .15499878 .48217774 .15499878 .5081787 .13699341 .5341797 .101989749 .5341797 .09399414 .5341797 .09199524 .5341797 .08898926 .5331726 .11199951 .59806826 .1659851 .63500979 .22399903 .63500979 .31498719 .63500979 .35798646 .5541382 .35798646 .47216798 .35798646 .39215089 .30799867 .31311036 .25299073 .25108338L.06098938 .036987306C.049987794 .025985718 .049987794 .023986817 .049987794 0H.42099L.44898988 .17404175H.42399598C.4189911 .14402771 .4119873 .1000061 .4019928 .084991458 .394989 .07699585 .32899476 .07699585 .30699159 .07699585H.1269989Z"/>
<path id="font_1_2" d="M.20298767 .0009918213C.20298767 .066986087 .17799378 .10598755 .13899231 .10598755 .10598755 .10598755 .085998538 .08099365 .085998538 .052993776 .085998538 .025985718 .10598755 0 .13899231 0 .15098572 0 .1639862 .0039978029 .17399597 .0129852299 .1769867 .01499939 .17799378 .015991211 .1789856 .015991211 .17999268 .015991211 .18099976 .01499939 .18099976 .0009918213 .18099976-.07316589 .1459961-.13328552 .11299133-.16635132 .101989749-.17736817 .101989749-.17936707 .101989749-.18237305 .101989749-.18936157 .10699463-.19335938 .11199951-.19335938 .12298584-.19335938 .20298767-.116256717 .20298767 .0009918213Z"/>
<path id="font_2_4" d="M.2939911 .64004519C.2939911 .66400149 .2939911 .6660156 .2709961 .6660156 .20899964 .60227969 .12098694 .60227969 .08898926 .60227969V.57128909C.10899353 .57128909 .16799927 .57128909 .21998596 .5972748V.07902527C.21998596 .042999269 .21699524 .0309906 .1269989 .0309906H.09498596V0C.12998963 .0029907227 .21699524 .0029907227 .25698854 .0029907227 .29699708 .0029907227 .38398744 .0029907227 .4189911 0V.0309906H.3869934C.29699708 .0309906 .2939911 .041992189 .2939911 .07902527V.64004519Z"/>
<path id="font_2_2" d="M.2889862 .25C.2889862 .32798768 .27799989 .44898988 .22299195 .56199648 .16299439 .68499758 .07699585 .75 .066986087 .75 .06098938 .75 .056991579 .74598696 .056991579 .73999026 .056991579 .7369995 .056991579 .73498538 .07598877 .71699526 .17399597 .6179962 .23098755 .45899964 .23098755 .25 .23098755 .07899475 .19400025-.09700012 .069992069-.2230072 .056991579-.23500061 .056991579-.23701477 .056991579-.2400055 .056991579-.2460022 .06098938-.25 .066986087-.25 .07699585-.25 .16699219-.18200684 .22599793-.055007936 .2769928 .054992677 .2889862 .16600037 .2889862 .25Z"/>
<path id="font_2_9" d="M.13198853 .327713V.35173036C.13198853 .6047821 .2559967 .64100649 .30699159 .64100649 .33099366 .64100649 .37298585 .634964 .394989 .6007538 .37998963 .6007538 .33999635 .6007538 .33999635 .5557556 .33999635 .524765 .3639984 .5097656 .38598634 .5097656 .4019928 .5097656 .43199159 .51875308 .43199159 .5577545 .43199159 .6178589 .3880005 .6660156 .30499269 .6660156 .1769867 .6660156 .041992189 .5367584 .041992189 .31570436 .041992189 .048553468 .1579895-.022460938 .25099183-.022460938 .3619995-.022460938 .45700074 .07156372 .45700074 .2036438 .45700074 .33070375 .36799623 .4267578 .25698854 .4267578 .18899536 .4267578 .1519928 .37573243 .13198853 .327713M.25099183 .0055389406C.18798828 .0055389406 .1579895 .06556702 .1519928 .080566409 .13398743 .127594 .13398743 .2076416 .13398743 .22564698 .13398743 .30369569 .1659851 .40374757 .2559967 .40374757 .27198792 .40374757 .31799317 .40374757 .34899903 .34172059 .36698915 .30470277 .36698915 .2536621 .36698915 .20463562 .36698915 .15661621 .36698915 .10658264 .34999085 .0705719 .31999208 .010528564 .27398683 .0055389406 .25099183 .0055389406Z"/>
<path id="font_2_6" d="M.2899933 .35191346C.37199403 .37893678 .42999269 .4490509 .42999269 .52809146 .42999269 .6100464 .34199525 .6660156 .24598694 .6660156 .14498902 .6660156 .068984989 .60606387 .068984989 .53009036 .068984989 .49710084 .09098816 .47808839 .11999512 .47808839 .15098572 .47808839 .17098999 .50009158 .17098999 .5290985 .17098999 .57910159 .12399292 .57910159 .10899353 .57910159 .13999939 .62802127 .20599365 .64100649 .24198914 .64100649 .2829895 .64100649 .33799745 .6190338 .33799745 .5290985 .33799745 .51708987 .33599855 .45906068 .30999757 .4149933 .27999879 .36691285 .24598694 .36390687 .22099304 .36291505 .21299744 .36190797 .18899536 .35990907 .18199158 .35990907 .17399597 .35890199 .16699219 .35791017 .16699219 .3479004 .16699219 .33691407 .17399597 .33691407 .19099427 .33691407H.23498535C.31698609 .33691407 .35398866 .2686615 .35398866 .17037964 .35398866 .034469606 .2849884 .0055389406 .24099732 .0055389406 .19799805 .0055389406 .12298584 .022491456 .08799744 .08137512 .12298584 .07637024 .1539917 .09837341 .1539917 .1363678 .1539917 .17237854 .1269989 .19238281 .09799194 .19238281 .07398987 .19238281 .041992189 .17837525 .041992189 .1343689 .041992189 .043441774 .1349945-.022460938 .24398804-.022460938 .3659973-.022460938 .45700074 .06838989 .45700074 .17037964 .45700074 .252594 .3939972 .33088685 .2899933 .35191346Z"/>
<path id="font_1_1" d="M.19198609 .052993776C.19198609 .08198547 .16799927 .10598755 .13899231 .10598755 .10998535 .10598755 .085998538 .08198547 .085998538 .052993776 .085998538 .023986817 .10998535 0 .13899231 0 .16799927 0 .19198609 .023986817 .19198609 .052993776Z"/>
<path id="font_1_4" d="M.23899842 .68333438C.23899842 .6843262 .23899842 .69433596 .22599793 .69433596 .20298767 .69433596 .12998963 .6863251 .10398865 .6843262 .09599304 .68333438 .084991458 .6823273 .084991458 .6643219 .084991458 .6523285 .09399414 .6523285 .10899353 .6523285 .15699768 .6523285 .15899658 .6453247 .15899658 .6353302 .15899658 .6283264 .1499939 .5943451 .14498902 .573349L.06298828 .24731446C.050994874 .1973114 .04699707 .18130493 .04699707 .14628601 .04699707 .05126953 .099990848-.0107421879 .17399597-.0107421879 .2919922-.0107421879 .4149933 .1382904 .4149933 .28233338 .4149933 .37335206 .3619995 .4423828 .28199769 .4423828 .23599243 .4423828 .19499207 .41337586 .16499329 .38235475L.23899842 .68333438M.14498902 .30534364C.15098572 .3273468 .15098572 .3293457 .1599884 .3403473 .20899964 .405365 .2539978 .42037965 .27999879 .42037965 .31599427 .42037965 .34298707 .3903656 .34298707 .32633973 .34298707 .26733399 .30999757 .15229798 .2919922 .11428833 .25898744 .04725647 .21299744 .011245728 .17399597 .011245728 .13999939 .011245728 .10699463 .038253786 .10699463 .11227417 .10699463 .13128662 .10699463 .15029907 .12298584 .21331787L.14498902 .30534364Z"/>
<path id="font_2_10" d="M.68699648 .32714845C.70199587 .32714845 .72099307 .32714845 .72099307 .34713746 .72099307 .36714173 .70199587 .36714173 .6879883 .36714173H.08898926C.07499695 .36714173 .055999757 .36714173 .055999757 .34713746 .055999757 .32714845 .07499695 .32714845 .08999634 .32714845H.68699648M.6879883 .13284302C.70199587 .13284302 .72099307 .13284302 .72099307 .15284729 .72099307 .17285156 .70199587 .17285156 .68699648 .17285156H.08999634C.07499695 .17285156 .055999757 .17285156 .055999757 .15284729 .055999757 .13284302 .07499695 .13284302 .08898926 .13284302H.6879883Z"/>
<path id="font_3_2" d="M.3889923-.8549652 .21299744-.4659729C.20599365-.44996644 .20098877-.44996644 .19799805-.44996644 .19699097-.44996644 .19198609-.44996644 .18099976-.45796205L.085998538-.52996829C.07299805-.53996279 .07299805-.54296877 .07299805-.54597476 .07299805-.55096438 .07598877-.55696108 .08299255-.55696108 .08898926-.55696108 .10598755-.54296877 .116989139-.53497317 .12298584-.52996829 .13798523-.5189667 .14898682-.51097109L.34599305-.9439697C.35299684-.95996096 .35798646-.95996096 .36698915-.95996096 .38198854-.95996096 .3849945-.95396426 .3919983-.9399719L.84599307 .000030517579C.8529968 .014038086 .8529968 .018035889 .8529968 .02003479 .8529968 .030029297 .8450012 .040039064 .83299258 .040039064 .82499697 .040039064 .81799319 .03503418 .80999758 .01902771L.3889923-.8549652Z"/>
<path id="font_2_8" d="M.44898988 .20022583C.44898988 .3193512 .36698915 .41944886 .25898744 .41944886 .21099854 .41944886 .16799927 .40345765 .13198853 .36842347V.5637665C.1519928 .5577698 .18499756 .55078127 .21699524 .55078127 .33999635 .55078127 .4099884 .6417694 .4099884 .6547699 .4099884 .6607666 .40699769 .6657715 .3999939 .6657715 .39898683 .6657715 .39698792 .6657715 .3919983 .66278079 .37199403 .6537781 .32299806 .6337738 .2559967 .6337738 .21598816 .6337738 .16999817 .6407776 .12298584 .6617737 .114990238 .66477969 .11299133 .66477969 .11099243 .66477969 .100997928 .66477969 .100997928 .6567688 .100997928 .6407776V.34439088C.100997928 .32637025 .100997928 .31835938 .114990238 .31835938 .12199402 .31835938 .12399292 .32136537 .12799073 .32736207 .13899231 .3433838 .17599488 .39746095 .25698854 .39746095 .30899049 .39746095 .33399964 .35139466 .34199525 .33337403 .35798646 .29632569 .3600006 .25727845 .3600006 .20722962 .3600006 .17222595 .3600006 .11222839 .33599855 .07035828 .31199647 .031463624 .2749939 .0055389406 .22898865 .0055389406 .1559906 .0055389406 .09899902 .058380128 .08198547 .11723328 .084991458 .1162262 .08799744 .115234378 .09899902 .115234378 .13198853 .115234378 .14898682 .14022827 .14898682 .16423035 .14898682 .18823242 .13198853 .21322632 .09899902 .21322632 .084991458 .21322632 .049987794 .20622254 .049987794 .16023255 .049987794 .07434082 .11898804-.022460938 .23098755-.022460938 .34700013-.022460938 .44898988 .073349 .44898988 .20022583Z"/>
<path id="font_1_3" d="M.37298585 .37835694C.35499574 .41537477 .32598878 .4423828 .2809906 .4423828 .1639862 .4423828 .039993287 .29533387 .039993287 .14929199 .039993287 .055267335 .09498596-.0107421879 .17298889-.0107421879 .19299317-.0107421879 .24299622-.0067443849 .30299378 .06427002 .31098939 .022247315 .34599305-.0107421879 .3939972-.0107421879 .42900086-.0107421879 .45199586 .012252808 .46798707 .044265748 .4850006 .08027649 .49798585 .14129639 .49798585 .14329529 .49798585 .1532898 .4889984 .1532898 .48599244 .1532898 .47599793 .1532898 .47499085 .14929199 .47200013 .13528443 .45498658 .07026672 .43699647 .011245728 .3959961 .011245728 .36898805 .011245728 .3659973 .037261964 .3659973 .057266237 .3659973 .07926941 .36799623 .08728027 .3789978 .13128662 .3899994 .17329407 .3919983 .18330384 .40098573 .22131348L.43699647 .36135865C.44400025 .38935853 .44400025 .39135743 .44400025 .39537049 .44400025 .41236878 .43199159 .42237855 .4149933 .42237855 .3909912 .42237855 .37599183 .4003601 .37298585 .37835694M.30799867 .119277957C.30299378 .10127258 .30299378 .09927368 .28799439 .08227539 .24398804 .027252198 .20298767 .011245728 .1749878 .011245728 .125 .011245728 .11099243 .06626892 .11099243 .105285648 .11099243 .1552887 .14299011 .27833558 .1659851 .32434083 .19699097 .38336183 .24198914 .42037965 .28199769 .42037965 .34700013 .42037965 .36099244 .3383484 .36099244 .33235169 .36099244 .32633973 .35899354 .32034303 .35798646 .31533814L.30799867 .119277957Z"/>
<path id="font_2_7" d="M.2939911 .16503906V.07800293C.2939911 .041992189 .2919922 .0309906 .21798706 .0309906H.19699097V0C.23799134 .0029907227 .2899933 .0029907227 .33198548 .0029907227 .37399293 .0029907227 .4269867 .0029907227 .46798707 0V.0309906H.44699098C.37298585 .0309906 .37098695 .041992189 .37098695 .07800293V.16503906H.47099305V.19602967H.37098695V.65075686C.37098695 .67074587 .37098695 .6767578 .35499574 .6767578 .34599305 .6767578 .34298707 .6767578 .33499146 .66474917L.027999878 .19602967V.16503906H.2939911M.2999878 .19602967H.055999757L.2999878 .5688019V.19602967Z"/>
<path id="font_2_3" d="M.40899659 .23046875H.6879883C.70199587 .23046875 .72099307 .23046875 .72099307 .25045777 .72099307 .27046205 .70199587 .27046205 .6879883 .27046205H.40899659V.5500183C.40899659 .56399539 .40899659 .5830078 .3889923 .5830078 .36898805 .5830078 .36898805 .56399539 .36898805 .5500183V.27046205H.08898926C.07499695 .27046205 .055999757 .27046205 .055999757 .25045777 .055999757 .23046875 .07499695 .23046875 .08898926 .23046875H.36898805V-.05000305C.36898805-.06401062 .36898805-.08300781 .3889923-.08300781 .40899659-.08300781 .40899659-.06401062 .40899659-.05000305V.23046875Z"/>
<path id="font_4_1" d="M.5049896 .18203736H.47099305C.46798707 .16001892 .45799256 .100997928 .44499208 .09098816 .43699647 .084991458 .3600006 .084991458 .34599305 .084991458H.1619873C.2669983 .17803955 .3019867 .20603943 .3619995 .25306703 .43598939 .312088 .5049896 .374115 .5049896 .46914674 .5049896 .5900879 .39898683 .6640625 .2709961 .6640625 .14698792 .6640625 .06298828 .57710269 .06298828 .4851532 .06298828 .43414308 .10598755 .42915345 .115997318 .42915345 .13999939 .42915345 .16899109 .44615174 .16899109 .48214723 .16899109 .5001526 .1619873 .53515627 .10998535 .53515627 .14099121 .6060791 .20899964 .62805178 .2559967 .62805178 .35598756 .62805178 .4079895 .5501404 .4079895 .46914674 .4079895 .38212586 .34599305 .3130951 .31399537 .27708436L.07299805 .038986207C.06298828 .02999878 .06298828 .027999878 .06298828 0H.47499085L.5049896 .18203736Z"/>
<path id="font_5_1" d="M.39898683 .23057556H.6749878C.68899539 .23057556 .70700076 .23057556 .70700076 .24856568 .70700076 .26757813 .6899872 .26757813 .6749878 .26757813H.39898683V.5441437C.39898683 .5581665 .39898683 .5761719 .3809967 .5761719 .3619995 .5761719 .3619995 .5591583 .3619995 .5441437V.26757813H.085998538C.07199097 .26757813 .053985597 .26757813 .053985597 .24957276 .053985597 .23057556 .070999149 .23057556 .085998538 .23057556H.3619995V-.045166017C.3619995-.059158327 .3619995-.07714844 .37998963-.07714844 .39898683-.07714844 .39898683-.060150148 .39898683-.045166017V.23057556Z"/>
<path id="font_5_2" d="M.6749878 .32421876C.68899539 .32421876 .70700076 .32421876 .70700076 .34220887 .70700076 .36120606 .6899872 .36120606 .6749878 .36120606H.085998538C.07199097 .36120606 .053985597 .36120606 .053985597 .34321595 .053985597 .32421876 .070999149 .32421876 .085998538 .32421876H.6749878M.6749878 .13780213C.68899539 .13780213 .70700076 .13780213 .70700076 .15579224 .70700076 .17480469 .6899872 .17480469 .6749878 .17480469H.085998538C.07199097 .17480469 .053985597 .17480469 .053985597 .15679932 .053985597 .13780213 .070999149 .13780213 .085998538 .13780213H.6749878Z"/>
<path id="font_6_82" d="M.4189911 0V.0309906H.3869934C.29699708 .0309906 .2939911 .041992189 .2939911 .07902527V.64012148C.2939911 .6640167 .2939911 .6660156 .2709961 .6660156 .20899964 .60227969 .12098694 .60227969 .08898926 .60227969V.57128909C.10899353 .57128909 .16799927 .57128909 .21998596 .5972748V.07902527C.21998596 .042999269 .21699524 .0309906 .1269989 .0309906H.09498596V0C.12998963 .0029907227 .21699524 .0029907227 .25698854 .0029907227 .29699708 .0029907227 .38398744 .0029907227 .4189911 0Z"/>
</defs>
<path transform="matrix(1.00002,0,0,-1.00005,152.81783,121.005397)" stroke-width=".3985" stroke-linecap="butt" stroke-miterlimit="10" stroke-linejoin="miter" fill="none" stroke="#00aeef" d="M-138.89876-59.52802H39.68535M-138.89876-39.68535H39.68535M-138.89876-19.84267H39.68535M-138.89876 0H39.68535M-138.89876 19.84267H39.68535M-138.89876 39.68535H39.68535M-138.89876 59.52802H39.68535M-138.89876 79.37071H39.68535M-138.89876 99.20642H39.68535M-138.89876-59.52802V99.2134M-119.05606-59.52802V99.2134M-99.2134-59.52802V99.2134M-79.37071-59.52802V99.2134M-59.52802-59.52802V99.2134M-39.68535-59.52802V99.2134M-19.84267-59.52802V99.2134M0-59.52802V99.2134M19.84267-59.52802V99.2134M39.67838-59.52802V99.2134M39.68535 99.2134"/>
<path transform="matrix(1.00002,0,0,-1.00005,152.81783,121.005397)" stroke-width=".79701" stroke-linecap="butt" stroke-miterlimit="10" stroke-linejoin="miter" fill="none" stroke="#000000" d="M-138.89876 0H48.17207"/>
<path transform="matrix(1.00002,0,0,-1.00005,200.99086,121.005397)" d="M1.0361 0C-.25902 .25902-1.55415 .77707-3.1083 1.68365-1.55415 .51805-1.55415-.51805-3.1083-1.68365-1.55415-.77707-.25902-.25902 1.0361 0Z"/>
<path transform="matrix(1.00002,0,0,-1.00005,200.99086,121.005397)" stroke-width=".79701" stroke-linecap="butt" stroke-linejoin="round" fill="none" stroke="#000000" d="M1.0361 0C-.25902 .25902-1.55415 .77707-3.1083 1.68365-1.55415 .51805-1.55415-.51805-3.1083-1.68365-1.55415-.77707-.25902-.25902 1.0361 0Z"/>
<use data-text="x" xlink:href="#font_1_5" transform="matrix(9.962799,0,0,-9.963098,206.1449,123.1505)"/>
<path transform="matrix(1.00002,0,0,-1.00005,152.81783,121.005397)" stroke-width=".79701" stroke-linecap="butt" stroke-miterlimit="10" stroke-linejoin="miter" fill="none" stroke="#000000" d="M0-59.52802V107.7001"/>
<path transform="matrix(0,-1.00005,-1.00002,-0,152.81783,13.2999119)" d="M1.0361 0C-.25902 .25902-1.55415 .77707-3.1083 1.68365-1.55415 .51805-1.55415-.51805-3.1083-1.68365-1.55415-.77707-.25902-.25902 1.0361 0Z"/>
<path transform="matrix(0,-1.00005,-1.00002,-0,152.81783,13.2999119)" stroke-width=".79701" stroke-linecap="butt" stroke-linejoin="round" fill="none" stroke="#000000" d="M1.0361 0C-.25902 .25902-1.55415 .77707-3.1083 1.68365-1.55415 .51805-1.55415-.51805-3.1083-1.68365-1.55415-.77707-.25902-.25902 1.0361 0Z"/>
<use data-text="y" xlink:href="#font_1_6" transform="matrix(9.962799,0,0,-9.963098,150.19678,6.2086565)"/>
<path transform="matrix(1.00002,0,0,-1.00005,152.81783,121.005397)" stroke-width="1.59404" stroke-linecap="butt" stroke-dasharray="2.98883,2.98883" stroke-miterlimit="10" stroke-linejoin="miter" fill="none" stroke="#00ff00" d="M-39.68607-24.52625V64.21231"/>
<path transform="matrix(1.00002,0,0,-1.00005,152.81783,121.005397)" stroke-width="1.19553" stroke-linecap="butt" stroke-dasharray="2.98883,2.98883" stroke-miterlimit="10" stroke-linejoin="miter" fill="none" stroke="#0000ff" d="M-119.05606 19.84267H39.68535"/>
<path transform="matrix(1.00002,0,0,-1.00005,152.81783,121.005397)" stroke-width=".79701" stroke-linecap="butt" stroke-miterlimit="10" stroke-linejoin="miter" fill="none" stroke="#ff0000" d="M39.68463 19.84302C39.68463 44.3478 4.1497 64.21228-39.68607 64.21228-83.52185 64.21228-119.05678 44.3478-119.05678 19.84302-119.05678-4.66176-83.52185-24.52625-39.68607-24.52625 4.1497-24.52625 39.68463-4.66176 39.68463 19.84302ZM-39.68607 19.84302"/>
<path transform="matrix(1.00002,0,0,-1.00005,152.81783,121.005397)" d="M-37.70169 19.84302C-37.70169 20.93895-38.59012 21.8274-39.68607 21.8274-40.78201 21.8274-41.67044 20.93895-41.67044 19.84302-41.67044 18.74707-40.78201 17.85864-39.68607 17.85864-38.59012 17.85864-37.70169 18.74707-37.70169 19.84302ZM-39.68607 19.84302" fill="#929292"/>
<path transform="matrix(1.00002,0,0,-1.00005,152.81783,121.005397)" stroke-width=".3985" stroke-linecap="butt" stroke-miterlimit="10" stroke-linejoin="miter" fill="none" stroke="#929292" d="M-37.70169 19.84302C-37.70169 20.93895-38.59012 21.8274-39.68607 21.8274-40.78201 21.8274-41.67044 20.93895-41.67044 19.84302-41.67044 18.74707-40.78201 17.85864-39.68607 17.85864-38.59012 17.85864-37.70169 18.74707-37.70169 19.84302ZM-39.68607 19.84302"/>
<use data-text="(" xlink:href="#font_2_1" transform="matrix(9.962799,0,0,-9.963098,79.72235,95.1501)"/>
<use data-text="&#x2212;" xlink:href="#font_3_1" transform="matrix(9.962799,0,0,-9.963098,83.59743,95.1501)"/>
<use data-text="2" xlink:href="#font_2_5" transform="matrix(9.962799,0,0,-9.963098,91.34558,95.1501)"/>
<use data-text="," xlink:href="#font_1_2" transform="matrix(9.962799,0,0,-9.963098,96.3277,95.1501)"/>
<use data-text="1" xlink:href="#font_2_4" transform="matrix(9.962799,0,0,-9.963098,100.75479,95.1501)"/>
<use data-text=")" xlink:href="#font_2_2" transform="matrix(9.962799,0,0,-9.963098,105.736179,95.1501)"/>
<path transform="matrix(1.00002,0,0,-1.00005,152.81783,121.005397)" d="M-117.07242 19.84302C-117.07242 20.93895-117.96085 21.8274-119.0568 21.8274-120.15274 21.8274-121.04117 20.93895-121.04117 19.84302-121.04117 18.74707-120.15274 17.85864-119.0568 17.85864-117.96085 17.85864-117.07242 18.74707-117.07242 19.84302ZM-119.0568 19.84302" fill="#ff0000"/>
<path transform="matrix(1.00002,0,0,-1.00005,152.81783,121.005397)" stroke-width=".3985" stroke-linecap="butt" stroke-miterlimit="10" stroke-linejoin="miter" fill="none" stroke="#ff0000" d="M-117.07242 19.84302C-117.07242 20.93895-117.96085 21.8274-119.0568 21.8274-120.15274 21.8274-121.04117 20.93895-121.04117 19.84302-121.04117 18.74707-120.15274 17.85864-119.0568 17.85864-117.96085 17.85864-117.07242 18.74707-117.07242 19.84302ZM-119.0568 19.84302"/>
<path transform="matrix(1.00002,0,0,-1.00005,152.81783,121.005397)" d="M-152.13321 26.01993H-120.252338V37.97525H-152.13321Z" fill="#ffffff"/>
<use data-text="(" xlink:href="#font_2_1" transform="matrix(9.962799,0,0,-9.963098,1.6778107,91.49692)" fill="#ff0000"/>
<use data-text="&#x2212;" xlink:href="#font_3_1" transform="matrix(9.962799,0,0,-9.963098,5.552887,91.49692)" fill="#ff0000"/>
<use data-text="6" xlink:href="#font_2_9" transform="matrix(9.962799,0,0,-9.963098,13.301041,91.49692)" fill="#ff0000"/>
<use data-text="," xlink:href="#font_1_2" transform="matrix(9.962799,0,0,-9.963098,18.283158,91.49692)" fill="#ff0000"/>
<use data-text="1" xlink:href="#font_2_4" transform="matrix(9.962799,0,0,-9.963098,22.71025,91.49692)" fill="#ff0000"/>
<use data-text=")" xlink:href="#font_2_2" transform="matrix(9.962799,0,0,-9.963098,27.691636,91.49692)" fill="#ff0000"/>
<path transform="matrix(1.00002,0,0,-1.00005,152.81783,121.005397)" d="M41.66899 19.84302C41.66899 20.93895 40.78056 21.8274 39.68462 21.8274 38.58868 21.8274 37.70024 20.93895 37.70024 19.84302 37.70024 18.74707 38.58868 17.85864 39.68462 17.85864 40.78056 17.85864 41.66899 18.74707 41.66899 19.84302ZM39.68462 19.84302" fill="#ff0000"/>
<path transform="matrix(1.00002,0,0,-1.00005,152.81783,121.005397)" stroke-width=".3985" stroke-linecap="butt" stroke-miterlimit="10" stroke-linejoin="miter" fill="none" stroke="#ff0000" d="M41.66899 19.84302C41.66899 20.93895 40.78056 21.8274 39.68462 21.8274 38.58868 21.8274 37.70024 20.93895 37.70024 19.84302 37.70024 18.74707 38.58868 17.85864 39.68462 17.85864 40.78056 17.85864 41.66899 18.74707 41.66899 19.84302ZM39.68462 19.84302"/>
<path transform="matrix(1.00002,0,0,-1.00005,152.81783,121.005397)" d="M42.8727 24.02737H67.00473V35.98269H42.8727Z" fill="#ffffff"/>
<use data-text="(" xlink:href="#font_2_1" transform="matrix(9.962799,0,0,-9.963098,196.6877,93.49002)" fill="#ff0000"/>
<use data-text="2" xlink:href="#font_2_5" transform="matrix(9.962799,0,0,-9.963098,200.55327,93.49002)" fill="#ff0000"/>
<use data-text="," xlink:href="#font_1_2" transform="matrix(9.962799,0,0,-9.963098,205.54389,93.49002)" fill="#ff0000"/>
<use data-text="1" xlink:href="#font_2_4" transform="matrix(9.962799,0,0,-9.963098,209.97197,93.49002)" fill="#ff0000"/>
<use data-text=")" xlink:href="#font_2_2" transform="matrix(9.962799,0,0,-9.963098,214.95336,93.49002)" fill="#ff0000"/>
<path transform="matrix(1.00002,0,0,-1.00005,152.81783,121.005397)" d="M-37.70169 64.2123C-37.70169 65.30824-38.59012 66.19667-39.68607 66.19667-40.78201 66.19667-41.67044 65.30824-41.67044 64.2123-41.67044 63.11636-40.78201 62.22792-39.68607 62.22792-38.59012 62.22792-37.70169 63.11636-37.70169 64.2123ZM-39.68607 64.2123" fill="#ff0000"/>
<path transform="matrix(1.00002,0,0,-1.00005,152.81783,121.005397)" stroke-width=".3985" stroke-linecap="butt" stroke-miterlimit="10" stroke-linejoin="miter" fill="none" stroke="#ff0000" d="M-37.70169 64.2123C-37.70169 65.30824-38.59012 66.19667-39.68607 66.19667-40.78201 66.19667-41.67044 65.30824-41.67044 64.2123-41.67044 63.11636-40.78201 62.22792-39.68607 62.22792-38.59012 62.22792-37.70169 63.11636-37.70169 64.2123ZM-39.68607 64.2123"/>
<path transform="matrix(1.00002,0,0,-1.00005,152.81783,121.005397)" d="M-36.49799 66.4041H3.1317406V78.35942H-36.49799Z" fill="#ffffff"/>
<use data-text="(" xlink:href="#font_2_1" transform="matrix(9.962799,0,0,-9.963098,117.31512,51.1109)" fill="#ff0000"/>
<use data-text="&#x2212;" xlink:href="#font_3_1" transform="matrix(9.962799,0,0,-9.963098,121.19019,51.1109)" fill="#ff0000"/>
<use data-text="2" xlink:href="#font_2_5" transform="matrix(9.962799,0,0,-9.963098,128.93836,51.1109)" fill="#ff0000"/>
<use data-text="," xlink:href="#font_1_2" transform="matrix(9.962799,0,0,-9.963098,133.92047,51.1109)" fill="#ff0000"/>
<use data-text="3" xlink:href="#font_2_6" transform="matrix(9.962799,0,0,-9.963098,138.34757,51.1109)" fill="#ff0000"/>
<use data-text="." xlink:href="#font_1_1" transform="matrix(9.962799,0,0,-9.963098,143.32965,51.1109)" fill="#ff0000"/>
<use data-text="2" xlink:href="#font_2_5" transform="matrix(9.962799,0,0,-9.963098,146.09671,51.1109)" fill="#ff0000"/>
<use data-text=")" xlink:href="#font_2_2" transform="matrix(9.962799,0,0,-9.963098,151.0781,51.1109)" fill="#ff0000"/>
<path transform="matrix(1.00002,0,0,-1.00005,152.81783,121.005397)" d="M-37.70169-24.52625C-37.70169-23.4303-38.59012-22.54187-39.68607-22.54187-40.78201-22.54187-41.67044-23.4303-41.67044-24.52625-41.67044-25.62218-40.78201-26.51062-39.68607-26.51062-38.59012-26.51062-37.70169-25.62218-37.70169-24.52625ZM-39.68607-24.52625" fill="#ff0000"/>
<path transform="matrix(1.00002,0,0,-1.00005,152.81783,121.005397)" stroke-width=".3985" stroke-linecap="butt" stroke-miterlimit="10" stroke-linejoin="miter" fill="none" stroke="#ff0000" d="M-37.70169-24.52625C-37.70169-23.4303-38.59012-22.54187-39.68607-22.54187-40.78201-22.54187-41.67044-23.4303-41.67044-24.52625-41.67044-25.62218-40.78201-26.51062-39.68607-26.51062-38.59012-26.51062-37.70169-25.62218-37.70169-24.52625ZM-39.68607-24.52625"/>
<path transform="matrix(1.00002,0,0,-1.00005,152.81783,121.005397)" d="M-63.37535-39.66965H-15.99678V-27.71433H-63.37535Z" fill="#ffffff"/>
<use data-text="(" xlink:href="#font_2_1" transform="matrix(9.962799,0,0,-9.963098,90.43758,157.1902)" fill="#ff0000"/>
<use data-text="&#x2212;" xlink:href="#font_3_1" transform="matrix(9.962799,0,0,-9.963098,94.31265,157.1902)" fill="#ff0000"/>
<use data-text="2" xlink:href="#font_2_5" transform="matrix(9.962799,0,0,-9.963098,102.06081,157.1902)" fill="#ff0000"/>
<use data-text="," xlink:href="#font_1_2" transform="matrix(9.962799,0,0,-9.963098,107.04292,157.1902)" fill="#ff0000"/>
<use data-text="&#x2212;" xlink:href="#font_3_1" transform="matrix(9.962799,0,0,-9.963098,111.47002,157.1902)" fill="#ff0000"/>
<use data-text="1" xlink:href="#font_2_4" transform="matrix(9.962799,0,0,-9.963098,119.21916,157.1902)" fill="#ff0000"/>
<use data-text="." xlink:href="#font_1_1" transform="matrix(9.962799,0,0,-9.963098,124.20125,157.1902)" fill="#ff0000"/>
<use data-text="2" xlink:href="#font_2_5" transform="matrix(9.962799,0,0,-9.963098,126.96831,157.1902)" fill="#ff0000"/>
<use data-text=")" xlink:href="#font_2_2" transform="matrix(9.962799,0,0,-9.963098,131.94969,157.1902)" fill="#ff0000"/>
<path transform="matrix(1.00002,0,0,-1.00005,152.81783,121.005397)" stroke-width=".3985" stroke-linecap="butt" stroke-miterlimit="10" stroke-linejoin="miter" fill="none" stroke="#009900" d="M-39.68607-24.52625C-41.77827-23.4802-43.17303-21.03928-43.17303-17.5523V-9.31555C-43.17303-5.82858-44.5678-3.38766-46.66-2.34161-44.5678-1.29556-43.17303 1.14534-43.17303 4.63231V12.86908C-43.17303 16.35605-41.77827 18.79697-39.68607 19.84302"/>
<path transform="matrix(1.00002,0,0,-1.00005,152.81783,121.005397)" d="M-86.05196-9.51477H-51.223867V4.8315708H-86.05196Z" fill="#ffffff"/>
<use data-text="b" xlink:href="#font_1_4" transform="matrix(9.962799,0,0,-9.963098,68.75714,127.204708)" fill="#009900"/>
<use data-text="=" xlink:href="#font_2_10" transform="matrix(9.962799,0,0,-9.963098,75.80028,127.204708)" fill="#009900"/>
<use data-text="&#x221a;" xlink:href="#font_3_2" transform="matrix(9.962799,0,0,-9.963098,86.3165,118.963298)" fill="#009900"/>
<path transform="matrix(1.00002,0,0,-1.00005,-172.06269,19.191308)" stroke-width=".3985" stroke-linecap="butt" stroke-miterlimit="10" stroke-linejoin="miter" fill="none" stroke="#009900" d="M266.676-99.567H271.658"/>
<use data-text="5" xlink:href="#font_2_8" transform="matrix(9.962799,0,0,-9.963098,94.61865,127.204708)" fill="#009900"/>
<path transform="matrix(1.00002,0,0,-1.00005,152.81783,121.005397)" stroke-width=".3985" stroke-linecap="butt" stroke-miterlimit="10" stroke-linejoin="miter" fill="none" stroke="#0000ff" d="M-39.68607 19.84302C-38.49059 22.2341-35.70096 23.82813-31.71585 23.82813H-7.97093C-3.98582 23.82813-1.19621 25.42213-.00072 27.81323 1.19475 25.42213 3.98438 23.82813 7.96948 23.82813H31.7144C35.69951 23.82813 38.48914 22.2341 39.68462 19.84302"/>
<path transform="matrix(1.00002,0,0,-1.00005,152.81783,121.005397)" d="M-13.75885 31.38081H13.75742V41.78634H-13.75885Z" fill="#ffffff"/>
<use data-text="a" xlink:href="#font_1_3" transform="matrix(9.962799,0,0,-9.963098,141.05159,87.63072)" fill="#0000ff"/>
<use data-text="=" xlink:href="#font_2_10" transform="matrix(9.962799,0,0,-9.963098,149.08576,87.63072)" fill="#0000ff"/>
<use data-text="4" xlink:href="#font_2_7" transform="matrix(9.962799,0,0,-9.963098,159.58654,87.63072)" fill="#0000ff"/>
<path transform="matrix(1.00002,0,0,-1.00005,152.81783,121.005397)" d="M-154.603 73.33354H-43.8238V97.3136H-154.603Z" fill="#ffffff"/>
<use data-text="(" xlink:href="#font_2_1" transform="matrix(9.962799,0,0,-9.963098,1.4008026,33.79003)"/>
<use data-text="x" xlink:href="#font_1_5" transform="matrix(9.962799,0,0,-9.963098,5.274872,33.79003)"/>
<use data-text="+" xlink:href="#font_2_3" transform="matrix(9.962799,0,0,-9.963098,10.968979,33.79003)"/>
<use data-text="2" xlink:href="#font_2_5" transform="matrix(9.962799,0,0,-9.963098,18.710083,33.79003)"/>
<use data-text=")" xlink:href="#font_2_2" transform="matrix(9.962799,0,0,-9.963098,23.691468,33.79003)"/>
<use data-text="2" xlink:href="#font_4_1" transform="matrix(6.97394,0,0,-6.9741489,27.573304,30.17485)"/>
<path transform="matrix(1.00002,0,0,-1.00005,-240.61505,-67.28502)" stroke-width=".5738" stroke-linecap="butt" stroke-miterlimit="10" stroke-linejoin="miter" fill="none" stroke="#000000" d="M242.011-104.421H272.653"/>
<use data-text="1" xlink:href="#font_2_4" transform="matrix(9.962799,0,0,-9.963098,11.7400059,45.67563)"/>
<use data-text="6" xlink:href="#font_2_9" transform="matrix(9.962799,0,0,-9.963098,16.721405,45.67563)"/>
<use data-text="+" xlink:href="#font_5_1" transform="matrix(14.346487,0,0,-14.346916,36.426515,40.72838)"/>
<use data-text="(" xlink:href="#font_2_1" transform="matrix(9.962799,0,0,-9.963098,51.73581,33.79003)"/>
<use data-text="y" xlink:href="#font_1_6" transform="matrix(9.962799,0,0,-9.963098,55.61087,33.79003)"/>
<use data-text="&#x2212;" xlink:href="#font_3_1" transform="matrix(9.962799,0,0,-9.963098,60.852998,33.79003)"/>
<use data-text="1" xlink:href="#font_2_4" transform="matrix(9.962799,0,0,-9.963098,68.60214,33.79003)"/>
<use data-text=")" xlink:href="#font_2_2" transform="matrix(9.962799,0,0,-9.963098,73.58353,33.79003)"/>
<use data-text="2" xlink:href="#font_4_1" transform="matrix(6.97394,0,0,-6.9741489,77.45734,30.17485)"/>
<path transform="matrix(1.00002,0,0,-1.00005,-240.61505,-67.28502)" stroke-width=".5738" stroke-linecap="butt" stroke-miterlimit="10" stroke-linejoin="miter" fill="none" stroke="#000000" d="M292.345-104.421H322.536"/>
<use data-text="5" xlink:href="#font_2_8" transform="matrix(9.962799,0,0,-9.963098,64.341068,45.67563)"/>
<use data-text="=" xlink:href="#font_5_2" transform="matrix(14.346487,0,0,-14.346916,87.10751,40.72838)"/>
<use data-text="1" xlink:href="#font_6_82" transform="matrix(9.962799,0,0,-9.963098,102.01883,40.72838)"/>
</svg>
