<svg xmlns="http://www.w3.org/2000/svg" xmlns:xlink="http://www.w3.org/1999/xlink" version="1.1" width="80" height="102" viewBox="0 0 80 102">
<defs>
<path id="font_1_34" d="M.651001 .18289185C.651001 .26983644 .56900027 .34480287 .45799256 .35679627 .5549927 .3757782 .6239929 .43974305 .6239929 .51368716 .6239929 .6006317 .5319977 .6826172 .4019928 .6826172H.035995485V.6516113H.05999756C.13699341 .6516113 .13899231 .64060977 .13899231 .6046295V.07795715C.13899231 .041992189 .13699341 .0309906 .05999756 .0309906H.035995485V0H.42799378C.5609894-.0002593994 .651001 .08874512 .651001 .18273926V.18289185M.5269928 .5136719C.5269928 .44970704 .47799684 .36573792 .36698915 .36573792H.22200012V.6116333C.22200012 .64460757 .22399903 .6516113 .2709961 .6516113H.394989C.49198915 .65174868 .5269928 .56674197 .5269928 .51374819V.5136719M.5509949 .18386841C.5509949 .1129303 .49899293 .0309906 .3959961 .0309906H.2709961C.22399903 .0309906 .22200012 .037994386 .22200012 .07095337V.34375H.4099884C.5089874 .34399415 .5509949 .25099183 .5509949 .18399048V.18386841Z"/>
<path id="font_1_27" d="M.71699526 0V.0309906H.69898989C.6389923 .0309906 .625 .037979127 .6139984 .07095337L.397995 .6958008C.3929901 .7088165 .3909912 .7158203 .375 .7158203 .35899354 .7158203 .35598756 .70980837 .35099793 .6958008L.14399719 .09791565C.12599182 .04698181 .085998538 .03199768 .03199768 .0309906V0L.13398743 .0029907227 .24899292 0V.0309906C.19898987 .0309906 .17399597 .05596924 .17399597 .0819397 .17399597 .08493042 .1749878 .09492493 .17599488 .09692383L.22200012 .2277832H.46899415L.5219879 .07495117C.522995 .07095337 .5249939 .064956668 .5249939 .060958864 .5249939 .0309906 .46899415 .0309906 .44198609 .0309906V0C.47799684 .0029907227 .5479889 .0029907227 .58599856 .0029907227L.71699526 0M.45799256 .25878907H.23298645L.34498597 .58380129 .45799256 .25878907Z"/>
</defs>
<path transform="matrix(1.00006,0,0,-1.00003,3.6131974,99.033588)" stroke-width=".3985" stroke-linecap="butt" stroke-miterlimit="10" stroke-linejoin="miter" fill="none" stroke="#00aeef" d="M0 0H68.03217M0 14.17339H68.03217M0 28.34679H68.03217M0 42.52019H68.03217M0 56.69359H68.03217M0 70.86697H68.03217M0 85.04037H68.03217M0 0V85.04042M17.00801 0V85.04042M34.01605 0V85.04042M51.02408 0V85.04042M68.03212 0V85.04042M68.03217 85.04042"/>
<path transform="matrix(1.00006,0,0,-1.00003,3.6131974,99.033588)" stroke-width=".79701" stroke-linecap="butt" stroke-miterlimit="10" stroke-linejoin="miter" fill="none" stroke="#000000" d="M0 0H73.40067"/>
<path transform="matrix(1.00006,0,0,-1.00003,77.01827,99.033588)" d="M1.0361 0C-.25902 .25902-1.55415 .77707-3.1083 1.68365-1.55415 .51805-1.55415-.51805-3.1083-1.68365-1.55415-.77707-.25902-.25902 1.0361 0Z"/>
<path transform="matrix(1.00006,0,0,-1.00003,77.01827,99.033588)" stroke-width=".79701" stroke-linecap="butt" stroke-linejoin="round" fill="none" stroke="#000000" d="M1.0361 0C-.25902 .25902-1.55415 .77707-3.1083 1.68365-1.55415 .51805-1.55415-.51805-3.1083-1.68365-1.55415-.77707-.25902-.25902 1.0361 0Z"/>
<path transform="matrix(1.00006,0,0,-1.00003,3.6131974,99.033588)" stroke-width=".79701" stroke-linecap="butt" stroke-miterlimit="10" stroke-linejoin="miter" fill="none" stroke="#000000" d="M0 0V92.10994"/>
<path transform="matrix(0,-1.00003,-1.00006,-0,3.6131974,6.9208757)" d="M1.0361 0C-.25902 .25902-1.55415 .77707-3.1083 1.68365-1.55415 .51805-1.55415-.51805-3.1083-1.68365-1.55415-.77707-.25902-.25902 1.0361 0Z"/>
<path transform="matrix(0,-1.00003,-1.00006,-0,3.6131974,6.9208757)" stroke-width=".79701" stroke-linecap="butt" stroke-linejoin="round" fill="none" stroke="#000000" d="M1.0361 0C-.25902 .25902-1.55415 .77707-3.1083 1.68365-1.55415 .51805-1.55415-.51805-3.1083-1.68365-1.55415-.77707-.25902-.25902 1.0361 0Z"/>
<path transform="matrix(1.00006,0,0,-1.00003,3.6131974,99.033588)" stroke-width="1.19553" stroke-linecap="butt" stroke-miterlimit="10" stroke-linejoin="miter" fill="none" stroke="#0000ff" d="M23.76578 83.16658C24.0883 79.80681 24.0883 79.80681 24.28087 77.94765 24.47343 76.0885 24.78226 73.29391 24.97482 71.6313 25.16739 69.96869 25.47621 67.45326 25.66878 65.96463 25.86136 64.476 26.1702 62.23859 26.36276 60.9022 26.55533 59.56583 26.86415 57.53955 27.05672 56.33287 27.24928 55.12617 27.5581 53.29553 27.75067 52.20515 27.94324 51.11478 28.25208 49.46136 28.44464 48.47409 28.6372 47.4868 28.94603 45.98468 29.1386 45.08948 29.33116 44.19426 29.63998 42.83604 29.83255 42.02191 30.02512 41.20776 30.33395 39.96558 30.52654 39.22166 30.7191 38.47774 31.02792 37.34035 31.22049 36.66017 31.41306 35.98 31.72188 34.94197 31.91444 34.31927 32.10701 33.6966 32.41585 32.74307 32.60841 32.17216 32.80098 31.60126 33.10982 30.72954 33.30237 30.20454 33.49493 29.67955 33.80377 28.86914 33.99632 28.38832 34.18889 27.9075 34.49774 27.18152 34.69029 26.73906 34.88287 26.29659 35.1917 25.6109 35.38426 25.19922 35.57683 24.78754 35.88565 24.15323 36.07823 23.77184 36.27078 23.39046 36.57964 22.80338 36.7722 22.45044 36.96475 22.09752 37.27359 21.55539 37.46616 21.22807 37.6587 20.90077 37.96754 20.39641 38.16011 20.09137 38.35266 19.78633 38.66151 19.31288 38.85408 19.0295 39.04666 18.74611 39.35547 18.31293 39.54803 18.04893 39.74062 17.78494 40.04942 17.37323 40.242 17.12675 40.43457 16.88028 40.74338 16.50174 40.93596 16.27249 41.12852 16.04324 41.43736 15.68901 41.62993 15.47447 41.8225 15.25992 42.13132 14.92764 42.32388 14.72618 42.51645 14.52472 42.82527 14.21165 43.01784 14.02243 43.2104 13.83322 43.51924 13.53906 43.7118 13.36238 43.90439 13.1857 44.2132 12.91461 44.40576 12.74904 44.59834 12.58348 44.90715 12.32498 45.09973 12.169 45.2923 12.01303 45.60114 11.77155 45.7937 11.62486 45.98627 11.4782 46.29509 11.25032 46.48766 11.11188 46.68022 10.97343 46.98904 10.75717 47.18161 10.62701 47.37418 10.49686 47.68301 10.2965 47.87558 10.1737 48.06815 10.05092 48.37697 9.85846 48.56953 9.74205 48.76212 9.62563 49.07092 9.44386 49.26349 9.33458 49.45607 9.22531 49.76491 9.05783 49.95747 8.95438 50.15004 8.85094 50.45888 8.68744 50.65143 8.5889 50.844 8.49036 51.15283 8.337 51.34538 8.24416 51.53795 8.15132 51.8468 8.0076 52.03935 7.91975 52.23192 7.8319 52.54076 7.6944 52.7333 7.61092 52.92587 7.52745 53.23471 7.397 53.42728 7.31808 53.61984 7.23918 53.92868 7.11732 54.12126 7.04214 54.31381 6.96695 54.62265 6.84752 54.81522 6.77612 55.00777 6.70471 55.3166 6.59517 55.50917 6.52742 55.70172 6.45966 56.01056 6.35272 56.20313 6.2878 56.39569 6.22285 56.70453 6.1211 56.8971 6.0594 57.08966 5.99773 57.39848 5.9016 57.59105 5.84314 57.78362 5.7847 58.09244 5.69405 58.285 5.63812 58.47758 5.58218 58.7864 5.49348 58.97899 5.44002 59.17155 5.38655 59.48038 5.30374 59.67294 5.25273 59.86551 5.20174 60.17433 5.12108 60.3669 5.07236 60.55946 5.02364 60.8683 4.94759 61.06087 4.9015 61.25343 4.85542 61.56226 4.78421 61.75482 4.74017 61.94739 4.69612 62.25621 4.6265 62.44878 4.58403 62.64134 4.54155 62.95018 4.47469 63.14276 4.43394 63.33533 4.3932 63.64413 4.32921 63.83672 4.29033 64.02928 4.25143 64.3381 4.19072 64.53067 4.15364 64.72324 4.11656 65.03207 4.05864 65.22464 4.02301 65.4172 3.98738 65.72603 3.93105 65.9186 3.89671 66.11116 3.8624 66.41998 3.80855 66.61255 3.7756 66.80511 3.74266 67.11395 3.69058 67.30652 3.65926 67.4991 3.62794 68.00049 3.54982 66.14992 3.83812"/>
<path transform="matrix(-.09550573,-.9954099,-.99543967,.09550287,27.380423,15.864532)" d="M1.27522 0C-.31879 .31879-1.91284 .9564-3.8257 2.07224-1.91284 .6376-1.91284-.6376-3.8257-2.07224-1.91284-.9564-.31879-.31879 1.27522 0Z" fill="#0000ff"/>
<path transform="matrix(-.09550573,-.9954099,-.99543967,.09550287,27.380423,15.864532)" stroke-width="1.19553" stroke-linecap="butt" stroke-linejoin="round" fill="none" stroke="#0000ff" d="M1.27522 0C-.31879 .31879-1.91284 .9564-3.8257 2.07224-1.91284 .6376-1.91284-.6376-3.8257-2.07224-1.91284-.9564-.31879-.31879 1.27522 0Z"/>
<path transform="matrix(.9880992,.15393462,.15393922,-.98806968,69.76708,95.19535)" d="M1.27522 0C-.31879 .31879-1.91284 .9564-3.8257 2.07224-1.91284 .6376-1.91284-.6376-3.8257-2.07224-1.91284-.9564-.31879-.31879 1.27522 0Z" fill="#0000ff"/>
<path transform="matrix(.9880992,.15393462,.15393922,-.98806968,69.76708,95.19535)" stroke-width="1.19553" stroke-linecap="butt" stroke-linejoin="round" fill="none" stroke="#0000ff" d="M1.27522 0C-.31879 .31879-1.91284 .9564-3.8257 2.07224-1.91284 .6376-1.91284-.6376-3.8257-2.07224-1.91284-.9564-.31879-.31879 1.27522 0Z"/>
<use data-text="B" xlink:href="#font_1_34" transform="matrix(9.963197,0,0,-9.962899,25.599518,8.888878)" fill="#0000ff"/>
<path transform="matrix(1.00006,0,0,-1.00003,3.6131974,99.033588)" stroke-width="1.19553" stroke-linecap="butt" stroke-miterlimit="10" stroke-linejoin="miter" fill="none" stroke="#ff0000" d="M19.85999 83.21234C20.18353 80.50871 20.18353 80.50871 20.39323 78.8815 20.60294 77.2543 20.93925 74.80272 21.14896 73.34416 21.35866 71.88559 21.69498 69.68166 21.90468 68.3691 22.11436 67.05655 22.45071 65.07016 22.66042 63.88412 22.87009 62.69807 23.20645 60.89539 23.41615 59.82086 23.62584 58.74632 23.96217 57.11595 24.17188 56.13953 24.38156 55.1631 24.71791 53.67334 24.9276 52.78346 25.13728 51.89359 25.47363 50.53932 25.68332 49.72585 25.89302 48.91237 26.22935 47.66597 26.43904 46.92041 26.64874 46.17487 26.9851 45.03694 27.1948 44.35243 27.4045 43.66792 27.74081 42.61841 27.95052 41.98688 28.16022 41.35536 28.49654 40.38399 28.70624 39.80084 28.91594 39.2177 29.25226 38.32288 29.46196 37.7839 29.67166 37.24493 30.008 36.41504 30.2177 35.91621 30.42738 35.41739 30.76373 34.65213 30.97343 34.18864 31.18312 33.72517 31.51945 33.00703 31.72916 32.57571 31.93884 32.14441 32.27519 31.48135 32.4849 31.08 32.69458 30.67863 33.03091 30.05829 33.2406 29.6829 33.4503 29.30753 33.78664 28.72308 33.99632 28.37447 34.20602 28.02586 34.54237 27.49663 34.75204 27.17029 34.96175 26.84395 35.29811 26.33008 35.5078 26.02232 35.7175 25.71458 36.05382 25.24095 36.26352 24.95222 36.47322 24.66351 36.80956 24.2133 37.01926 23.94139 37.22894 23.66948 37.56528 23.24763 37.77498 22.9924 37.98468 22.73718 38.321 22.3424 38.5307 22.10182 38.7404 21.86122 39.07675 21.48532 39.28645 21.25836 39.49612 21.0314 39.83247 20.68057 40.04218 20.46596 40.25186 20.25136 40.5882 19.91444 40.7979 19.71161 41.00758 19.50877 41.34392 19.19594 41.55362 19.00397 41.7633 18.812 42.09966 18.51024 42.30934 18.32793 42.51904 18.1456 42.8554 17.86217 43.06508 17.68993 43.27478 17.51768 43.61111 17.25018 43.8208 17.08653 44.0305 16.92288 44.36685 16.666 44.57654 16.51039 44.78624 16.35478 45.12256 16.11264 45.33226 15.96495 45.54196 15.81728 45.87828 15.58646 46.08798 15.44592 46.29768 15.30537 46.63403 15.08572 46.84373 14.95197 47.05344 14.81819 47.38976 14.60948 47.59946 14.4818 47.80914 14.3541 48.14548 14.15329 48.35518 14.03152 48.56487 13.90976 48.90121 13.72034 49.1109 13.60417 49.32059 13.48799 49.65694 13.30527 49.86664 13.19412 50.07632 13.08298 50.41267 12.90933 50.62236 12.80312 50.83206 12.6969 51.16841 12.53014 51.3781 12.42854 51.58778 12.32693 51.92413 12.16791 52.13382 12.07082 52.34352 11.97372 52.67986 11.82187 52.88954 11.72868 53.09924 11.6355 53.43556 11.48839 53.64526 11.3991 53.85497 11.3098 54.19131 11.17021 54.40102 11.08507 54.61072 10.99991 54.94704 10.86736 55.15674 10.78532 55.36644 10.7033 55.70276 10.57277 55.91246 10.49379 56.12216 10.41483 56.4585 10.29172 56.6682 10.2161 56.87788 10.14049 57.21422 10.02151 57.42392 9.94879 57.6336 9.87607 57.96996 9.76178 58.17966 9.69186 58.38934 9.62195 58.7257 9.5121 58.9354 9.44489 59.14508 9.37769 59.48141 9.27199 59.6911 9.20741 59.9008 9.14285 60.23714 9.04187 60.44682 8.97946 60.65652 8.91707 60.99286 8.81752 61.20255 8.75758 61.41225 8.69763 61.7486 8.60533 61.95828 8.54736 62.16798 8.4894 62.50432 8.39561 62.71402 8.33975 62.92372 8.28389 63.26006 8.19821 63.46974 8.14468 63.67944 8.09116 64.01578 8.00607 64.22548 7.95392 64.43518 7.90178 64.7715 7.81903 64.9812 7.7688 65.19089 7.71857 65.52722 7.64037 65.73692 7.59189 65.94661 7.54341 66.28297 7.46599 66.49268 7.4193 66.70236 7.37262 67.0387 7.30026 67.2484 7.25539 67.45808 7.21051 68.0041 7.09578 66.17119 7.48087"/>
<path transform="matrix(-.11879712,-.9929198,-.99294957,.11879357,23.474389,15.818748)" d="M1.27522 0C-.31879 .31879-1.91284 .9564-3.8257 2.07224-1.91284 .6376-1.91284-.6376-3.8257-2.07224-1.91284-.9564-.31879-.31879 1.27522 0Z" fill="#ff0000"/>
<path transform="matrix(-.11879712,-.9929198,-.99294957,.11879357,23.474389,15.818748)" stroke-width="1.19553" stroke-linecap="butt" stroke-linejoin="round" fill="none" stroke="#ff0000" d="M1.27522 0C-.31879 .31879-1.91284 .9564-3.8257 2.07224-1.91284 .6376-1.91284-.6376-3.8257-2.07224-1.91284-.9564-.31879-.31879 1.27522 0Z"/>
<path transform="matrix(.9786587,.20561619,.20562233,-.9786294,69.78835,91.55248)" d="M1.27522 0C-.31879 .31879-1.91284 .9564-3.8257 2.07224-1.91284 .6376-1.91284-.6376-3.8257-2.07224-1.91284-.9564-.31879-.31879 1.27522 0Z" fill="#ff0000"/>
<path transform="matrix(.9786587,.20561619,.20562233,-.9786294,69.78835,91.55248)" stroke-width="1.19553" stroke-linecap="butt" stroke-linejoin="round" fill="none" stroke="#ff0000" d="M1.27522 0C-.31879 .31879-1.91284 .9564-3.8257 2.07224-1.91284 .6376-1.91284-.6376-3.8257-2.07224-1.91284-.9564-.31879-.31879 1.27522 0Z"/>
<use data-text="A" xlink:href="#font_1_27" transform="matrix(9.963197,0,0,-9.962899,16.885994,9.052887)" fill="#ff0000"/>
</svg>
