<svg xmlns="http://www.w3.org/2000/svg" xmlns:xlink="http://www.w3.org/1999/xlink" version="1.1" width="225" height="168" viewBox="0 0 225 168">
<defs>
<path id="font_1_1" d="M.33399964 .30233766C.33999635 .32835389 .36299134 .42037965 .43299867 .42037965 .43798829 .42037965 .46199037 .42037965 .48298646 .40734864 .45498658 .402359 .43499757 .37734986 .43499757 .35334779 .43499757 .33735658 .44599916 .31835938 .47299195 .31835938 .49499513 .31835938 .5269928 .3363495 .5269928 .37635804 .5269928 .42837525 .46798707 .4423828 .43399049 .4423828 .37599183 .4423828 .34098817 .38935853 .32899476 .36634828 .3039856 .43237306 .25 .4423828 .22099304 .4423828 .116989139 .4423828 .05999756 .3133545 .05999756 .28834535 .05999756 .27833558 .069992069 .27833558 .07199097 .27833558 .07998657 .27833558 .08299255 .28033448 .084991458 .28933717 .11898804 .39535523 .18499756 .42037965 .21899414 .42037965 .23799134 .42037965 .272995 .4113617 .272995 .35334779 .272995 .32235719 .2559967 .25532533 .21899414 .11528015 .20298767 .053268434 .16799927 .011245728 .12399292 .011245728 .117996219 .011245728 .09498596 .011245728 .07398987 .024276734 .09899902 .029266358 .12098694 .05027771 .12098694 .07827759 .12098694 .105270389 .09899902 .11328125 .083999637 .11328125 .053985597 .11328125 .0289917 .08728027 .0289917 .055267335 .0289917 .009246826 .07899475-.0107421879 .12298584-.0107421879 .18899536-.0107421879 .22499085 .059280397 .22799683 .0652771 .23999024 .028274537 .27598573-.0107421879 .33599855-.0107421879 .43899537-.0107421879 .49598695 .118270877 .49598695 .14328003 .49598695 .1532898 .4869995 .1532898 .48399354 .1532898 .47499085 .1532898 .47299195 .14929199 .47099305 .14228821 .43798829 .03527832 .36999513 .011245728 .33799745 .011245728 .29899598 .011245728 .2829895 .043273927 .2829895 .07727051 .2829895 .09927368 .2889862 .121276859 .2999878 .16529846L.33399964 .30233766Z"/>
<path id="font_1_2" d="M.48599244 .38136292C.48999024 .39537049 .48999024 .39736939 .48999024 .40437318 .48999024 .42237855 .47599793 .43138124 .46099855 .43138124 .45098878 .43138124 .43499757 .42536927 .42599488 .41036988 .42399598 .405365 .41600038 .37435914 .4119873 .35635377 .40499879 .33035279 .397995 .30334474 .3919983 .27633668L.34700013 .09628296C.34298707 .08126831 .2999878 .011245728 .23399353 .011245728 .18299866 .011245728 .17199707 .055267335 .17199707 .0922699 .17199707 .1382904 .18899536 .20030213 .22299195 .28833009 .23899842 .3293457 .24299622 .3403473 .24299622 .36035157 .24299622 .405365 .21099854 .4423828 .16099549 .4423828 .06599426 .4423828 .0289917 .29733277 .0289917 .28833009 .0289917 .27833558 .038986207 .27833558 .040985109 .27833558 .050994874 .27833558 .051986696 .28033448 .056991579 .29634095 .083999637 .3903656 .12399292 .42037965 .1579895 .42037965 .1659851 .42037965 .18299866 .42037965 .18299866 .3883667 .18299866 .36335755 .17298889 .3373413 .1659851 .31834413 .12599182 .21231079 .10798645 .1552887 .10798645 .10827637 .10798645 .019256592 .17098999-.0107421879 .22999573-.0107421879 .2689972-.0107421879 .30299378 .0062561037 .33099366 .03425598 .31799317-.017745972 .30599977-.06674194 .2659912-.11973572 .23999024-.15385437 .20199585-.18309021 .1559906-.18309021 .14199829-.18309021 .09700012-.18005371 .07998657-.14074707 .09599304-.14074707 .10899353-.14074707 .12298584-.1287384 .1329956-.11973572 .14299011-.10673523 .14299011-.08773804 .14299011-.056747438 .115997318-.052734376 .10598755-.052734376 .08299255-.052734376 .049987794-.068740848 .049987794-.11773682 .049987794-.16796875 .09399414-.20507813 .1559906-.20507813 .25898744-.20507813 .3619995-.11373901 .3899994-.00074768069L.48599244 .38136292Z"/>
<path id="font_2_2" d="M.2939911 .64004519C.2939911 .66400149 .2939911 .6660156 .2709961 .6660156 .20899964 .60227969 .12098694 .60227969 .08898926 .60227969V.57128909C.10899353 .57128909 .16799927 .57128909 .21998596 .5972748V.07902527C.21998596 .042999269 .21699524 .0309906 .1269989 .0309906H.09498596V0C.12998963 .0029907227 .21699524 .0029907227 .25698854 .0029907227 .29699708 .0029907227 .38398744 .0029907227 .4189911 0V.0309906H.3869934C.29699708 .0309906 .2939911 .041992189 .2939911 .07902527V.64004519Z"/>
<path id="font_2_1" d="M.45999146 .31976319C.45999146 .39982606 .45498658 .47988893 .41999818 .5539398 .37399293 .65000918 .2919922 .6660156 .25 .6660156 .18998719 .6660156 .116989139 .64001467 .07598877 .54693606 .04399109 .47789 .038986207 .39982606 .038986207 .31976319 .038986207 .24472046 .042999269 .15464783 .083999637 .07859802 .1269989-.0024719239 .19999695-.022460938 .24899292-.022460938 .30299378-.022460938 .3789978-.0014648438 .4229889 .09359741 .45498658 .16265869 .45999146 .2407074 .45999146 .31976319M.24899292-.00047302247C.20999146-.00047302247 .15098572 .024551392 .1329956 .12062073 .12199402 .18066406 .12199402 .2727356 .12199402 .3317871 .12199402 .39582826 .12199402 .46188355 .12998963 .5159149 .14898682 .63500979 .22399903 .64401248 .24899292 .64401248 .28199769 .64401248 .34799195 .6259918 .36698915 .52693179 .3769989 .47088624 .3769989 .39482118 .3769989 .3317871 .3769989 .25672914 .3769989 .18867493 .3659973 .12461853 .35099793 .029556275 .2939911-.00047302247 .24899292-.00047302247Z"/>
<path id="font_2_5" d="M.44898988 .20022583C.44898988 .3193512 .36698915 .41944886 .25898744 .41944886 .21099854 .41944886 .16799927 .40345765 .13198853 .36842347V.5637665C.1519928 .5577698 .18499756 .55078127 .21699524 .55078127 .33999635 .55078127 .4099884 .6417694 .4099884 .6547699 .4099884 .6607666 .40699769 .6657715 .3999939 .6657715 .39898683 .6657715 .39698792 .6657715 .3919983 .66278079 .37199403 .6537781 .32299806 .6337738 .2559967 .6337738 .21598816 .6337738 .16999817 .6407776 .12298584 .6617737 .114990238 .66477969 .11299133 .66477969 .11099243 .66477969 .100997928 .66477969 .100997928 .6567688 .100997928 .6407776V.34439088C.100997928 .32637025 .100997928 .31835938 .114990238 .31835938 .12199402 .31835938 .12399292 .32136537 .12799073 .32736207 .13899231 .3433838 .17599488 .39746095 .25698854 .39746095 .30899049 .39746095 .33399964 .35139466 .34199525 .33337403 .35798646 .29632569 .3600006 .25727845 .3600006 .20722962 .3600006 .17222595 .3600006 .11222839 .33599855 .07035828 .31199647 .031463624 .2749939 .0055389406 .22898865 .0055389406 .1559906 .0055389406 .09899902 .058380128 .08198547 .11723328 .084991458 .1162262 .08799744 .115234378 .09899902 .115234378 .13198853 .115234378 .14898682 .14022827 .14898682 .16423035 .14898682 .18823242 .13198853 .21322632 .09899902 .21322632 .084991458 .21322632 .049987794 .20622254 .049987794 .16023255 .049987794 .07434082 .11898804-.022460938 .23098755-.022460938 .34700013-.022460938 .44898988 .073349 .44898988 .20022583Z"/>
<path id="font_3_1" d="M.6589966 .23046875C.6759949 .23046875 .69400027 .23046875 .69400027 .25045777 .69400027 .27046205 .6759949 .27046205 .6589966 .27046205H.117996219C.100997928 .27046205 .08299255 .27046205 .08299255 .25045777 .08299255 .23046875 .100997928 .23046875 .117996219 .23046875H.6589966Z"/>
<path id="font_2_4" d="M.2939911 .16503906V.07800293C.2939911 .041992189 .2919922 .0309906 .21798706 .0309906H.19699097V0C.23799134 .0029907227 .2899933 .0029907227 .33198548 .0029907227 .37399293 .0029907227 .4269867 .0029907227 .46798707 0V.0309906H.44699098C.37298585 .0309906 .37098695 .041992189 .37098695 .07800293V.16503906H.47099305V.19602967H.37098695V.65075686C.37098695 .67074587 .37098695 .6767578 .35499574 .6767578 .34599305 .6767578 .34298707 .6767578 .33499146 .66474917L.027999878 .19602967V.16503906H.2939911M.2999878 .19602967H.055999757L.2999878 .5688019V.19602967Z"/>
<path id="font_2_7" d="M.16299439 .4569702C.116989139 .486969 .11299133 .52098086 .11299133 .5379791 .11299133 .598999 .17799378 .64100649 .24899292 .64100649 .32199098 .64100649 .38598634 .58898928 .38598634 .51698306 .38598634 .45996095 .34700013 .4119568 .2869873 .37695313L.16299439 .4569702M.30899049 .36193849C.3809967 .3989563 .42999269 .45095826 .42999269 .51698306 .42999269 .6090088 .34098817 .6660156 .25 .6660156 .1499939 .6660156 .068984989 .59199526 .068984989 .49897767 .068984989 .4809723 .070999149 .43595887 .11299133 .38894654 .12399292 .37695313 .16099549 .35194398 .18598938 .33494569 .12799073 .30592347 .041992189 .24984741 .041992189 .15072632 .041992189 .04458618 .14399719-.022460938 .24899292-.022460938 .3619995-.022460938 .45700074 .06060791 .45700074 .16773987 .45700074 .20379639 .44599916 .24885559 .4079895 .2909088 .3889923 .31193543 .37298585 .3219452 .30899049 .36193849M.20899964 .3199463 .33198548 .24183655C.3600006 .2228241 .40699769 .19277954 .40699769 .13169861 .40699769 .05760193 .33198548 .0055389406 .25 .0055389406 .1639862 .0055389406 .09199524 .067611698 .09199524 .15072632 .09199524 .20880127 .12399292 .27288819 .20899964 .3199463Z"/>
<path id="font_2_3" d="M.1269989 .07699585 .23298645 .18003845C.3889923 .31811524 .44898988 .3721466 .44898988 .47216798 .44898988 .5860901 .35899354 .6660156 .23699951 .6660156 .12399292 .6660156 .049987794 .57411196 .049987794 .48516847 .049987794 .4291687 .099990848 .4291687 .102996829 .4291687 .11999512 .4291687 .15499878 .44117738 .15499878 .48217774 .15499878 .5081787 .13699341 .5341797 .101989749 .5341797 .09399414 .5341797 .09199524 .5341797 .08898926 .5331726 .11199951 .59806826 .1659851 .63500979 .22399903 .63500979 .31498719 .63500979 .35798646 .5541382 .35798646 .47216798 .35798646 .39215089 .30799867 .31311036 .25299073 .25108338L.06098938 .036987306C.049987794 .025985718 .049987794 .023986817 .049987794 0H.42099L.44898988 .17404175H.42399598C.4189911 .14402771 .4119873 .1000061 .4019928 .084991458 .394989 .07699585 .32899476 .07699585 .30699159 .07699585H.1269989Z"/>
<path id="font_2_6" d="M.13198853 .327713V.35173036C.13198853 .6047821 .2559967 .64100649 .30699159 .64100649 .33099366 .64100649 .37298585 .634964 .394989 .6007538 .37998963 .6007538 .33999635 .6007538 .33999635 .5557556 .33999635 .524765 .3639984 .5097656 .38598634 .5097656 .4019928 .5097656 .43199159 .51875308 .43199159 .5577545 .43199159 .6178589 .3880005 .6660156 .30499269 .6660156 .1769867 .6660156 .041992189 .5367584 .041992189 .31570436 .041992189 .048553468 .1579895-.022460938 .25099183-.022460938 .3619995-.022460938 .45700074 .07156372 .45700074 .2036438 .45700074 .33070375 .36799623 .4267578 .25698854 .4267578 .18899536 .4267578 .1519928 .37573243 .13198853 .327713M.25099183 .0055389406C.18798828 .0055389406 .1579895 .06556702 .1519928 .080566409 .13398743 .127594 .13398743 .2076416 .13398743 .22564698 .13398743 .30369569 .1659851 .40374757 .2559967 .40374757 .27198792 .40374757 .31799317 .40374757 .34899903 .34172059 .36698915 .30470277 .36698915 .2536621 .36698915 .20463562 .36698915 .15661621 .36698915 .10658264 .34999085 .0705719 .31999208 .010528564 .27398683 .0055389406 .25099183 .0055389406Z"/>
</defs>
<path transform="matrix(1.00005,0,0,-1,23.662529,27.373002)" stroke-width=".3985" stroke-linecap="butt" stroke-miterlimit="10" stroke-linejoin="miter" fill="none" stroke="#cbcbcb" d="M0-136.06606H170.08257M0-119.0578H170.08257M0-102.04953H170.08257M0-85.04128H170.08257M0-68.03302H170.08257M0-51.02477H170.08257M0-34.0165H170.08257M0-17.00824H170.08257M0-.00298H170.08257M0-136.06606V0M17.00824-136.06606V0M34.0165-136.06606V0M51.02477-136.06606V0M68.03302-136.06606V0M85.04128-136.06606V0M102.04953-136.06606V0M119.0578-136.06606V0M136.06606-136.06606V0M153.07433-136.06606V0M170.0766-136.06606V0M170.08257 0"/>
<path transform="matrix(1.00005,0,0,-1,23.662529,27.373002)" stroke-width="1.19553" stroke-linecap="butt" stroke-miterlimit="10" stroke-linejoin="miter" fill="none" stroke="#000000" d="M0 0H188.61943"/>
<path transform="matrix(1.00005,0,0,-1,212.29138,27.373002)" d="M1.27522 0C-.31879 .31879-1.91284 .9564-3.8257 2.07224-1.91284 .6376-1.91284-.6376-3.8257-2.07224-1.91284-.9564-.31879-.31879 1.27522 0Z"/>
<path transform="matrix(1.00005,0,0,-1,212.29138,27.373002)" stroke-width="1.19553" stroke-linecap="butt" stroke-linejoin="round" fill="none" stroke="#000000" d="M1.27522 0C-.31879 .31879-1.91284 .9564-3.8257 2.07224-1.91284 .6376-1.91284-.6376-3.8257-2.07224-1.91284-.9564-.31879-.31879 1.27522 0Z"/>
<use data-text="x" xlink:href="#font_1_1" transform="matrix(9.963098,0,0,-9.9626,218.08322,29.518002)"/>
<path transform="matrix(1.00005,0,0,-1,23.662529,27.373002)" stroke-width="1.19553" stroke-linecap="butt" stroke-miterlimit="10" stroke-linejoin="miter" fill="none" stroke="#000000" d="M0-136.06606V13.43445"/>
<path transform="matrix(0,-1,-1.00005,-0,23.662529,13.938551)" d="M1.27522 0C-.31879 .31879-1.91284 .9564-3.8257 2.07224-1.91284 .6376-1.91284-.6376-3.8257-2.07224-1.91284-.9564-.31879-.31879 1.27522 0Z"/>
<path transform="matrix(0,-1,-1.00005,-0,23.662529,13.938551)" stroke-width="1.19553" stroke-linecap="butt" stroke-linejoin="round" fill="none" stroke="#000000" d="M1.27522 0C-.31879 .31879-1.91284 .9564-3.8257 2.07224-1.91284 .6376-1.91284-.6376-3.8257-2.07224-1.91284-.9564-.31879-.31879 1.27522 0Z"/>
<use data-text="y" xlink:href="#font_1_2" transform="matrix(9.963098,0,0,-9.9626,21.041398,6.210001)"/>
<path transform="matrix(1.00005,0,0,-1,23.662529,27.373002)" stroke-width=".3985" stroke-linecap="butt" stroke-miterlimit="10" stroke-linejoin="miter" fill="none" stroke="#000000" d="M170.08257 1.27554V-1.27568"/>
<path transform="matrix(1.00005,0,0,-1,23.662529,27.373002)" d="M164.10489-11.88048H176.06023V-3.4674998H164.10489Z" fill="#ffffff"/>
<use data-text="1" xlink:href="#font_2_2" transform="matrix(9.963098,0,0,-9.9626,188.77176,38.257)"/>
<use data-text="0" xlink:href="#font_2_1" transform="matrix(9.963098,0,0,-9.9626,193.75333,38.257)"/>
<path transform="matrix(1.00005,0,0,-1,23.662529,27.373002)" stroke-width=".3985" stroke-linecap="butt" stroke-miterlimit="10" stroke-linejoin="miter" fill="none" stroke="#000000" d="M85.04128 1.27554V-1.27568"/>
<path transform="matrix(1.00005,0,0,-1,23.662529,27.373002)" d="M81.5543-11.88048H88.52824V-3.4674998H81.5543Z" fill="#ffffff"/>
<use data-text="5" xlink:href="#font_2_5" transform="matrix(9.963098,0,0,-9.9626,106.21765,38.257)"/>
<path transform="matrix(1.00005,0,0,-1,23.662529,27.373002)" stroke-width=".3985" stroke-linecap="butt" stroke-miterlimit="10" stroke-linejoin="miter" fill="none" stroke="#000000" d="M2.55112-34.0165H-2.55139"/>
<path transform="matrix(1.00005,0,0,-1,23.662529,27.373002)" d="M-19.46597-38.63812H-4.743189V-29.39489H-19.46597Z" fill="#ffffff"/>
<use data-text="&#x2212;" xlink:href="#font_3_1" transform="matrix(9.963098,0,0,-9.9626,5.1916048,64.185)"/>
<use data-text="4" xlink:href="#font_2_4" transform="matrix(9.963098,0,0,-9.9626,12.940994,64.185)"/>
<path transform="matrix(1.00005,0,0,-1,23.662529,27.373002)" stroke-width=".3985" stroke-linecap="butt" stroke-miterlimit="10" stroke-linejoin="miter" fill="none" stroke="#000000" d="M2.55112-68.03302H-2.55139"/>
<path transform="matrix(1.00005,0,0,-1,23.662529,27.373002)" d="M-19.46597-72.65465H-4.743189V-63.41142H-19.46597Z" fill="#ffffff"/>
<use data-text="&#x2212;" xlink:href="#font_3_1" transform="matrix(9.963098,0,0,-9.9626,5.1916048,98.201007)"/>
<use data-text="8" xlink:href="#font_2_7" transform="matrix(9.963098,0,0,-9.9626,12.940994,98.201007)"/>
<path transform="matrix(1.00005,0,0,-1,23.662529,27.373002)" stroke-width=".3985" stroke-linecap="butt" stroke-miterlimit="10" stroke-linejoin="miter" fill="none" stroke="#000000" d="M2.55112-102.04953H-2.55139"/>
<path transform="matrix(1.00005,0,0,-1,23.662529,27.373002)" d="M-24.44739-106.67114H-4.743189V-97.42791H-24.44739Z" fill="#ffffff"/>
<use data-text="&#x2212;" xlink:href="#font_3_1" transform="matrix(9.963098,0,0,-9.9626,.21035767,132.218)"/>
<use data-text="1" xlink:href="#font_2_2" transform="matrix(9.963098,0,0,-9.9626,7.9597475,132.218)"/>
<use data-text="2" xlink:href="#font_2_3" transform="matrix(9.963098,0,0,-9.9626,12.941299,132.218)"/>
<path transform="matrix(1.00005,0,0,-1,23.662529,27.373002)" stroke-width=".3985" stroke-linecap="butt" stroke-miterlimit="10" stroke-linejoin="miter" fill="none" stroke="#000000" d="M2.55112-136.06606H-2.55139"/>
<path transform="matrix(1.00005,0,0,-1,23.662529,27.373002)" d="M-24.44739-140.68767H-4.743189V-131.44445H-24.44739Z" fill="#ffffff"/>
<use data-text="&#x2212;" xlink:href="#font_3_1" transform="matrix(9.963098,0,0,-9.9626,.21035767,166.234)"/>
<use data-text="1" xlink:href="#font_2_2" transform="matrix(9.963098,0,0,-9.9626,7.9597475,166.234)"/>
<use data-text="6" xlink:href="#font_2_6" transform="matrix(9.963098,0,0,-9.9626,12.941299,166.234)"/>
<path transform="matrix(1.00005,0,0,-1,23.662529,27.373002)" stroke-width="1.59404" stroke-linecap="butt" stroke-miterlimit="10" stroke-linejoin="miter" fill="none" stroke="#d73589" d="M85.04128-8.50412V-127.56192H153.07433V-8.50412ZM153.07433-127.56192"/>
<path transform="matrix(1.00005,0,0,-1,23.662529,27.373002)" d="M86.74219-68.03302C86.74219-67.09369 85.98067-66.33223 85.04128-66.33223 84.10188-66.33223 83.34035-67.09369 83.34035-68.03302 83.34035-68.97235 84.10188-69.73383 85.04128-69.73383 85.98067-69.73383 86.74219-68.97235 86.74219-68.03302ZM85.04128-68.03302"/>
<path transform="matrix(1.00005,0,0,-1,23.662529,27.373002)" stroke-width=".3985" stroke-linecap="butt" stroke-miterlimit="10" stroke-linejoin="miter" fill="none" stroke="#000000" d="M86.74219-68.03302C86.74219-67.09369 85.98067-66.33223 85.04128-66.33223 84.10188-66.33223 83.34035-67.09369 83.34035-68.03302 83.34035-68.97235 84.10188-69.73383 85.04128-69.73383 85.98067-69.73383 86.74219-68.97235 86.74219-68.03302ZM85.04128-68.03302"/>
<path transform="matrix(1.00005,0,0,-1,23.662529,27.373002)" d="M154.77524-68.03302C154.77524-67.09369 154.01372-66.33223 153.07433-66.33223 152.13494-66.33223 151.3734-67.09369 151.3734-68.03302 151.3734-68.97235 152.13494-69.73383 153.07433-69.73383 154.01372-69.73383 154.77524-68.97235 154.77524-68.03302ZM153.07433-68.03302"/>
<path transform="matrix(1.00005,0,0,-1,23.662529,27.373002)" stroke-width=".3985" stroke-linecap="butt" stroke-miterlimit="10" stroke-linejoin="miter" fill="none" stroke="#000000" d="M154.77524-68.03302C154.77524-67.09369 154.01372-66.33223 153.07433-66.33223 152.13494-66.33223 151.3734-67.09369 151.3734-68.03302 151.3734-68.97235 152.13494-69.73383 153.07433-69.73383 154.01372-69.73383 154.77524-68.97235 154.77524-68.03302ZM153.07433-68.03302"/>
<path transform="matrix(1.00005,0,0,-1,23.662529,27.373002)" d="M120.75871-127.56192C120.75871-126.62259 119.9972-125.86113 119.0578-125.86113 118.11841-125.86113 117.35687-126.62259 117.35687-127.56192 117.35687-128.50125 118.11841-129.26273 119.0578-129.26273 119.9972-129.26273 120.75871-128.50125 120.75871-127.56192ZM119.0578-127.56192"/>
<path transform="matrix(1.00005,0,0,-1,23.662529,27.373002)" stroke-width=".3985" stroke-linecap="butt" stroke-miterlimit="10" stroke-linejoin="miter" fill="none" stroke="#000000" d="M120.75871-127.56192C120.75871-126.62259 119.9972-125.86113 119.0578-125.86113 118.11841-125.86113 117.35687-126.62259 117.35687-127.56192 117.35687-128.50125 118.11841-129.26273 119.0578-129.26273 119.9972-129.26273 120.75871-128.50125 120.75871-127.56192ZM119.0578-127.56192"/>
<path transform="matrix(1.00005,0,0,-1,23.662529,27.373002)" d="M120.75871-8.50412C120.75871-7.56479 119.9972-6.80331 119.0578-6.80331 118.11841-6.80331 117.35687-7.56479 117.35687-8.50412 117.35687-9.44345 118.11841-10.20491 119.0578-10.20491 119.9972-10.20491 120.75871-9.44345 120.75871-8.50412ZM119.0578-8.50412"/>
<path transform="matrix(1.00005,0,0,-1,23.662529,27.373002)" stroke-width=".3985" stroke-linecap="butt" stroke-miterlimit="10" stroke-linejoin="miter" fill="none" stroke="#000000" d="M120.75871-8.50412C120.75871-7.56479 119.9972-6.80331 119.0578-6.80331 118.11841-6.80331 117.35687-7.56479 117.35687-8.50412 117.35687-9.44345 118.11841-10.20491 119.0578-10.20491 119.9972-10.20491 120.75871-9.44345 120.75871-8.50412ZM119.0578-8.50412"/>
<path transform="matrix(1.00005,0,0,-1,23.662529,27.373002)" stroke-width=".79701" stroke-linecap="butt" stroke-miterlimit="10" stroke-linejoin="miter" fill="none" stroke="#0000ff" d="M85.04128-8.50412 153.07433-127.56192"/>
<path transform="matrix(1.00005,0,0,-1,23.662529,27.373002)" stroke-width=".79701" stroke-linecap="butt" stroke-miterlimit="10" stroke-linejoin="miter" fill="none" stroke="#0000ff" d="M85.04128-127.56192 153.07433-8.50412"/>
</svg>
