<?xml version="1.0" encoding="UTF-8"?>
<svg xmlns="http://www.w3.org/2000/svg" xmlns:xlink="http://www.w3.org/1999/xlink" width="159pt" height="135pt" viewBox="0 0 159 135" version="1.1">
<g id="surface1">
<path style="fill:none;stroke-width:0.3985;stroke-linecap:butt;stroke-linejoin:miter;stroke:rgb(0%,67.83905%,93.728638%);stroke-opacity:1;stroke-miterlimit:10;" d="M -0.000104357 -0.000617569 L 136.066126 -0.000617569 M -0.000104357 28.345621 L 136.066126 28.345621 M -0.000104357 56.69186 L 136.066126 56.69186 M -0.000104357 85.042005 L 136.066126 85.042005 M -0.000104357 113.376526 L 136.066126 113.376526 M -0.000104357 -0.000617569 L -0.000104357 113.388244 M 45.354004 -0.000617569 L 45.354004 113.388244 M 90.712018 -0.000617569 L 90.712018 113.388244 M 136.050502 -0.000617569 L 136.050502 113.388244 " transform="matrix(1.00003,0,0,-1.00005,3.812604,131.39782)"/>
<path style="fill:none;stroke-width:0.79701;stroke-linecap:butt;stroke-linejoin:miter;stroke:rgb(0%,0%,0%);stroke-opacity:1;stroke-miterlimit:10;" d="M -0.000104357 -0.000617569 L 152.772656 -0.000617569 " transform="matrix(1.00003,0,0,-1.00005,3.812604,131.39782)"/>
<path style="fill-rule:nonzero;fill:rgb(0%,0%,0%);fill-opacity:1;stroke-width:0.79701;stroke-linecap:butt;stroke-linejoin:round;stroke:rgb(0%,0%,0%);stroke-opacity:1;stroke-miterlimit:10;" d="M 1.035461 -0.000617569 C -0.257469 0.257182 -1.554305 0.776687 -3.108946 1.682892 C -1.554305 0.518888 -1.554305 -0.516217 -3.108946 -1.684127 C -1.554305 -0.777922 -0.257469 -0.258417 1.035461 -0.000617569 Z M 1.035461 -0.000617569 " transform="matrix(1.00003,0,0,-1.00005,156.589508,131.39782)"/>
<path style="fill:none;stroke-width:0.79701;stroke-linecap:butt;stroke-linejoin:miter;stroke:rgb(0%,0%,0%);stroke-opacity:1;stroke-miterlimit:10;" d="M -0.000104357 -0.000617569 L -0.000104357 128.961684 " transform="matrix(1.00003,0,0,-1.00005,3.812604,131.39782)"/>
<path style="fill-rule:nonzero;fill:rgb(0%,0%,0%);fill-opacity:1;stroke-width:0.79701;stroke-linecap:butt;stroke-linejoin:round;stroke:rgb(0%,0%,0%);stroke-opacity:1;stroke-miterlimit:10;" d="M 1.035929 0.000104357 C -0.260881 0.257909 -1.553785 0.777425 -3.108395 1.683648 C -1.553785 0.51962 -1.553785 -0.519411 -3.108395 -1.683439 C -1.553785 -0.777216 -0.260881 -0.2577 1.035929 0.000104357 Z M 1.035929 0.000104357 " transform="matrix(0,-1.00005,-1.00003,0,3.812604,2.430512)"/>
<path style="fill:none;stroke-width:1.19553;stroke-linecap:butt;stroke-linejoin:miter;stroke:rgb(0%,0%,100%);stroke-opacity:1;stroke-miterlimit:10;" d="M -0.000104357 -0.000617569 C -0.000104357 -0.000617569 1.535006 12.240958 2.124832 14.818954 C 2.714658 17.39695 3.663848 17.682092 4.253674 18.576579 C 4.8435 19.471065 5.788784 20.596009 6.378611 21.263944 C 6.968437 21.935786 7.913721 22.857615 8.503547 23.404462 C 9.093373 23.955216 10.038657 24.740333 10.628483 25.212966 C 11.218309 25.681692 12.167499 26.37697 12.757325 26.791012 C 13.347151 27.205053 14.292436 27.826116 14.882262 28.201097 C 15.472088 28.572173 16.417372 29.13855 17.007198 29.482283 C 17.597024 29.82211 18.542308 30.345521 19.13604 30.661912 C 19.725866 30.978302 20.671151 31.462653 21.260977 31.755607 C 21.850803 32.052467 22.796087 32.50557 23.385913 32.7829 C 23.975739 33.056323 24.921023 33.485989 25.510849 33.747695 C 26.100675 34.005495 27.049865 34.411724 27.639691 34.657806 C 28.229518 34.903887 29.174802 35.286681 29.764628 35.52495 C 30.354454 35.759313 31.299738 36.126482 31.889564 36.353033 C 32.47939 36.579585 33.424674 36.927224 34.0145 37.142057 C 34.604326 37.35689 35.553517 37.696716 36.143343 37.899831 C 36.733169 38.106852 37.678453 38.431055 38.268279 38.630263 C 38.858105 38.829472 39.803389 39.141957 40.393215 39.333353 C 40.983041 39.52475 41.932231 39.825516 42.522057 40.009101 C 43.111884 40.196591 44.057168 40.489545 44.646994 40.665318 C 45.23682 40.844996 46.182104 41.130138 46.77193 41.302005 C 47.361756 41.473871 48.30704 41.751201 48.896866 41.919161 C 49.486692 42.087122 50.435883 42.352734 51.025709 42.516788 C 51.615535 42.680842 52.560819 42.938642 53.150645 43.09879 C 53.740471 43.258938 54.685755 43.512832 55.275581 43.669074 C 55.865407 43.82141 56.810691 44.067492 57.404424 44.215922 C 57.99425 44.368258 58.939534 44.606527 59.52936 44.754957 C 60.119186 44.903387 61.06447 45.141657 61.654296 45.286181 C 62.244122 45.430705 63.189406 45.657256 63.779232 45.80178 C 64.369058 45.942398 65.318249 46.165043 65.908075 46.305661 C 66.497901 46.442373 67.443185 46.661112 68.033011 46.797824 C 68.622837 46.934536 69.568121 47.145463 70.157947 47.278268 C 70.747773 47.411074 71.693057 47.622001 72.282883 47.750901 C 72.872709 47.883707 73.8219 48.086822 74.411726 48.215722 C 75.001552 48.344621 75.946836 48.547736 76.536662 48.67273 C 77.126488 48.797724 78.071772 48.993026 78.661598 49.11802 C 79.251424 49.239108 80.200615 49.434411 80.790441 49.555498 C 81.380267 49.676586 82.325551 49.867983 82.915377 49.985164 C 83.505203 50.106252 84.450487 50.293743 85.040313 50.410924 C 85.630139 50.528106 86.575423 50.711691 87.165249 50.824966 C 87.755075 50.942148 88.704266 51.121826 89.294092 51.235102 C 89.883918 51.348377 90.829202 51.528056 91.419028 51.641332 C 92.008854 51.750701 92.954138 51.926474 93.543964 52.035843 C 94.13379 52.145213 95.079075 52.320985 95.668901 52.426449 C 96.262633 52.535818 97.207917 52.707685 97.797743 52.813148 C 98.387569 52.918611 99.332853 53.090478 99.922679 53.192035 C 100.512505 53.297499 101.457789 53.465459 102.047615 53.567017 C 102.637442 53.67248 103.586632 53.836534 104.176458 53.938092 C 104.766284 54.039649 105.711568 54.203703 106.301394 54.301355 C 106.89122 54.402912 107.836504 54.56306 108.42633 54.660712 C 109.016156 54.762269 109.961441 54.918511 110.551267 55.016163 C 111.141093 55.113814 112.090283 55.270056 112.680109 55.363802 C 113.269935 55.461453 114.215219 55.613789 114.805045 55.711441 C 115.394871 55.805186 116.340155 55.957522 116.929981 56.051267 C 117.519808 56.145013 118.468998 56.293443 119.058824 56.387188 C 119.64865 56.480933 120.593934 56.633269 121.18376 56.727015 C 121.773586 56.82076 122.71887 56.965284 123.308696 57.055123 C 123.898522 57.148869 124.843807 57.293393 125.433633 57.383232 C 126.023459 57.473071 126.972649 57.613689 127.562475 57.703528 C 128.152301 57.793368 129.097585 57.933986 129.687411 58.023825 C 130.277237 58.109758 131.222521 58.250376 131.812348 58.336309 C 132.402174 58.426149 133.347458 58.562861 133.937284 58.648794 C 134.531016 58.734727 136.066126 58.957372 134.210713 58.69176 " transform="matrix(1.00003,0,0,-1.00005,3.812604,131.39782)"/>
<path style="fill-rule:nonzero;fill:rgb(0%,0%,100%);fill-opacity:1;stroke-width:1.19553;stroke-linecap:butt;stroke-linejoin:round;stroke:rgb(0%,0%,100%);stroke-opacity:1;stroke-miterlimit:10;" d="M 1.274284 0.00197576 C -0.317758 0.319488 -1.910821 0.956856 -3.825556 2.071059 C -1.913667 0.63756 -1.912893 -0.637441 -3.82608 -2.073241 C -1.911873 -0.957298 -0.319584 -0.319666 1.274284 0.00197576 Z M 1.274284 0.00197576 " transform="matrix(0.98965,-0.143397,-0.143394,-0.989669,138.028251,72.704215)"/>
<path style="fill:none;stroke-width:1.19553;stroke-linecap:butt;stroke-linejoin:miter;stroke:rgb(100%,0%,0%);stroke-opacity:1;stroke-miterlimit:10;" d="M -0.000104357 -0.000617569 C -0.000104357 -0.000617569 1.535006 8.627857 2.124832 10.71369 C 2.714658 12.799524 3.663848 13.967434 4.253674 15.037693 C 4.8435 16.104046 5.788784 17.549286 6.378611 18.41643 C 6.968437 19.279668 7.913721 20.521794 8.503547 21.263944 C 9.093373 22.010001 10.038657 23.111508 10.628483 23.775537 C 11.218309 24.435661 12.167499 25.439517 12.757325 26.041049 C 13.347151 26.646488 14.292436 27.568316 14.882262 28.126882 C 15.472088 28.685448 16.417372 29.54478 17.007198 30.064285 C 17.597024 30.587697 18.542308 31.39625 19.13604 31.888413 C 19.725866 32.380576 20.671151 33.146163 21.260977 33.614889 C 21.850803 34.07971 22.796087 34.810142 23.385913 35.255432 C 23.975739 35.700722 24.921023 36.396 25.510849 36.82176 C 26.100675 37.24752 27.049865 37.915455 27.639691 38.325591 C 28.229518 38.731821 29.174802 39.372414 29.764628 39.766925 C 30.354454 40.161437 31.299738 40.786406 31.889564 41.169199 C 32.47939 41.548086 33.424674 42.149619 34.0145 42.516788 C 34.604326 42.887863 35.553517 43.469865 36.143343 43.825316 C 36.733169 44.184673 37.678453 44.751051 38.268279 45.09869 C 38.858105 45.446329 39.803389 45.993176 40.393215 46.333003 C 40.983041 46.668924 41.932231 47.20796 42.522057 47.536068 C 43.111884 47.864177 44.057168 48.387588 44.646994 48.707885 C 45.23682 49.032087 46.182104 49.54378 46.77193 49.856265 C 47.361756 50.172655 48.30704 50.668724 48.896866 50.977302 C 49.486692 51.281975 50.435883 51.770231 51.025709 52.074904 C 51.615535 52.37567 52.560819 52.852209 53.150645 53.149069 C 53.740471 53.442023 54.685755 53.910749 55.275581 54.199797 C 55.865407 54.484939 56.810691 54.945854 57.404424 55.22709 C 57.99425 55.512232 58.939534 55.961428 59.52936 56.238758 C 60.119186 56.519994 61.06447 56.965284 61.654296 57.242614 C 62.244122 57.516038 63.189406 57.94961 63.779232 58.219128 C 64.369058 58.488645 65.318249 58.918311 65.908075 59.183923 C 66.497901 59.445629 67.443185 59.867483 68.033011 60.129188 C 68.622837 60.390894 69.568121 60.804936 70.157947 61.062736 C 70.747773 61.316629 71.693057 61.726765 72.282883 61.980658 C 72.872709 62.234552 73.8219 62.636876 74.411726 62.886863 C 75.001552 63.136851 75.946836 63.531362 76.536662 63.777444 C 77.126488 64.023525 78.071772 64.41413 78.661598 64.656306 C 79.251424 64.898481 80.200615 65.285181 80.790441 65.52345 C 81.380267 65.761719 82.325551 66.144513 82.915377 66.382782 C 83.505203 66.617145 84.450487 66.992127 85.040313 67.22649 C 85.630139 67.460853 86.575423 67.831928 87.165249 68.062386 C 87.755075 68.292843 88.704266 68.660012 89.294092 68.886563 C 89.883918 69.113114 90.829202 69.476377 91.419028 69.702929 C 92.008854 69.925574 92.954138 70.284931 93.543964 70.507576 C 94.13379 70.730221 95.079075 71.085672 95.668901 71.304411 C 96.262633 71.52315 97.207917 71.874695 97.797743 72.089528 C 98.387569 72.308267 99.332853 72.655906 99.922679 72.870739 C 100.512505 73.085572 101.457789 73.429305 102.047615 73.640232 C 102.637442 73.855065 103.586632 74.194891 104.176458 74.405818 C 104.766284 74.616745 105.711568 74.952666 106.301394 75.159687 C 106.89122 75.370614 107.836504 75.698722 108.42633 75.905743 C 109.016156 76.112764 109.961441 76.440873 110.551267 76.647894 C 111.141093 76.851009 112.090283 77.175211 112.680109 77.378326 C 113.269935 77.581441 114.215219 77.905643 114.805045 78.104852 C 115.394871 78.304061 116.340155 78.624357 116.929981 78.823566 C 117.519808 79.018869 118.468998 79.335259 119.058824 79.534468 C 119.64865 79.733677 120.593934 80.053973 121.18376 80.253182 C 121.773586 80.448485 122.71887 80.757063 123.308696 80.952366 C 123.898522 81.143763 124.843807 81.456247 125.433633 81.647644 C 126.023459 81.83904 126.972649 82.143713 127.562475 82.335109 C 128.152301 82.526506 129.097585 82.831178 129.687411 83.018669 C 130.277237 83.20616 131.222521 83.506926 131.812348 83.694416 C 132.402174 83.881907 133.347458 84.182673 133.937284 84.370164 C 134.531016 84.553748 136.066126 85.034193 134.277117 84.475627 " transform="matrix(1.00003,0,0,-1.00005,3.812604,131.39782)"/>
<path style="fill-rule:nonzero;fill:rgb(100%,0%,0%);fill-opacity:1;stroke-width:1.19553;stroke-linecap:butt;stroke-linejoin:round;stroke:rgb(100%,0%,0%);stroke-opacity:1;stroke-miterlimit:10;" d="M 1.276513 0.000728445 C -0.318087 0.320333 -1.912203 0.954989 -3.82635 2.070636 C -1.913856 0.636211 -1.911843 -0.637511 -3.826862 -2.071865 C -1.913496 -0.956289 -0.317665 -0.318391 1.276513 0.000728445 Z M 1.276513 0.000728445 " transform="matrix(0.954229,-0.299045,-0.299039,-0.954248,138.094633,46.917586)"/>
</g>
</svg>
