<svg xmlns="http://www.w3.org/2000/svg" xmlns:xlink="http://www.w3.org/1999/xlink" version="1.1" width="308" height="30" viewBox="0 0 308 30">
<defs>
<path id="font_1_107" d="M.44898988 .17396546H.42399598C.4189911 .14398194 .4119873 .099990848 .4019928 .084991458 .394989 .07699585 .32899476 .07699585 .30699159 .07699585H.1269989L.23298645 .17996216C.3889923 .31803895 .44898988 .37210084 .44898988 .47216798 .44898988 .5860901 .35899354 .6660156 .23699951 .6660156 .12399292 .6660156 .049987794 .57411196 .049987794 .48516847 .049987794 .4291687 .099990848 .4291687 .102996829 .4291687 .11999512 .4291687 .15499878 .44117738 .15499878 .48217774 .15499878 .5081787 .13699341 .5341797 .101989749 .5341797 .09399414 .5341797 .09199524 .5341797 .08898926 .5331726 .11199951 .59806826 .1659851 .63500979 .22399903 .63500979 .31498719 .63500979 .35798646 .5541382 .35798646 .47216798 .35798646 .39196778 .30799867 .31297303 .25299073 .25097657L.06098938 .036987306C.049987794 .025985718 .049987794 .023986817 .049987794 0H.42099L.44898988 .17396546Z"/>
<path id="font_1_106" d="M.45700074 .17037964C.45700074 .252594 .3939972 .33088685 .2899933 .35191346 .37199403 .37893678 .42999269 .4490509 .42999269 .52809146 .42999269 .6100464 .34199525 .6660156 .24598694 .6660156 .14498902 .6660156 .068984989 .60606387 .068984989 .53009036 .068984989 .49710084 .09098816 .47808839 .11999512 .47808839 .15098572 .47808839 .17098999 .50009158 .17098999 .5290985 .17098999 .57910159 .12399292 .57910159 .10899353 .57910159 .13999939 .62802127 .20599365 .64100649 .24198914 .64100649 .2829895 .64100649 .33799745 .6190338 .33799745 .5290985 .33799745 .51708987 .33599855 .45906068 .30999757 .4149933 .27999879 .36691285 .24598694 .36390687 .22099304 .36291505 .21299744 .36190797 .18899536 .35990907 .18199158 .35990907 .17399597 .35890199 .16699219 .35791017 .16699219 .3479004 .16699219 .33691407 .17399597 .33691407 .19099427 .33691407H.23498535C.31698609 .33691407 .35398866 .2686615 .35398866 .17037964 .35398866 .034469606 .2849884 .0055389406 .24099732 .0055389406 .19799805 .0055389406 .12298584 .022491456 .08799744 .08137512 .12298584 .07637024 .1539917 .09837341 .1539917 .1363678 .1539917 .17237854 .1269989 .19238281 .09799194 .19238281 .07398987 .19238281 .041992189 .17837525 .041992189 .1343689 .041992189 .043441774 .1349945-.022460938 .24398804-.022460938 .3659973-.022460938 .45700074 .06838989 .45700074 .17037964Z"/>
<path id="font_1_56" d="M.44898988 .20091248C.44898988 .31991578 .36698915 .41992188 .25898744 .41992188 .21099854 .41992188 .16799927 .4039154 .13198853 .36891175V.5641022C.1519928 .55778506 .18499756 .55078127 .21699524 .55078127 .33999635 .55078127 .4099884 .6418457 .4099884 .65493777 .4099884 .6609802 .40699769 .6660156 .3999939 .6660156 .3999939 .66607668 .39698792 .66607668 .3919983 .66308596 .37199403 .65408328 .32299806 .63378909 .2559967 .63378909 .21598816 .63409426 .16999817 .641098 .12298584 .6621094 .114990238 .6651001 .11099243 .6651001 .11099243 .6651001 .100997928 .66508486 .100997928 .657074 .100997928 .64108279V.3447113C.100997928 .3266449 .100997928 .31861878 .114990238 .31861878 .12199402 .31861878 .12399292 .32164 .12799073 .32765199 .13899231 .34371949 .17599488 .3979187 .25698854 .3979187 .30899049 .3979187 .33399964 .3517456 .34199525 .3336792 .35798646 .2965393 .3600006 .2574005 .3600006 .20721436 .3600006 .17218018 .3600006 .112197879 .33599855 .07032776 .31199647 .031448366 .2749939 .0055389406 .22898865 .0055389406 .1559906 .0055389406 .09899902 .05836487 .08198547 .1171875 .084991458 .11685181 .08799744 .115859989 .09899902 .115859989 .13198853 .115859989 .14898682 .14085388 .14898682 .16485596 .14898682 .18885803 .13198853 .21386719 .09899902 .21386719 .084991458 .21386719 .049987794 .2068634 .049987794 .16085816 .049987794 .07432556 .11898804-.022460938 .23098755-.022460938 .34700013-.022460938 .44898988 .07331848 .44898988 .20019531V.20091248Z"/>
<path id="font_1_100" d="M.4850006 .6435547H.24198914C.11999512 .6435547 .117996219 .6566467 .11399841 .67578127H.08898926L.055999757 .46954347H.08099365C.083999637 .48554994 .09298706 .54855349 .10598755 .5605469 .11299133 .5665436 .19099427 .5665436 .20399475 .5665436H.41099549L.29899598 .40853883C.20899964 .2735443 .17599488 .13453675 .17599488 .03253174 .17599488 .022537232 .17599488-.022460938 .22200012-.022460938 .2679901-.022460938 .2679901 .022537232 .2679901 .03253174V.08354187C.2679901 .13853455 .2709961 .19354248 .2789917 .24754334 .2829895 .27053834 .29699708 .35653688 .34098817 .41854859L.47599793 .608551C.4850006 .62054446 .4850006 .62254336 .4850006 .6435547Z"/>
<path id="font_1_121" d="M.45999146 .31976319C.45999146 .39982606 .45498658 .47988893 .41999818 .5539398 .37399293 .65000918 .2919922 .6660156 .25 .6660156 .18998719 .6660156 .116989139 .64001467 .07598877 .54693606 .04399109 .47789 .038986207 .39982606 .038986207 .31976319 .038986207 .24472046 .042999269 .15464783 .083999637 .07859802 .1269989-.0024719239 .19999695-.022460938 .24899292-.022460938 .30299378-.022460938 .3789978-.0014648438 .4229889 .09359741 .45498658 .16265869 .45999146 .2407074 .45999146 .31976319M.3769989 .3317871C.3769989 .25672914 .3769989 .18867493 .3659973 .12461853 .35099793 .029556275 .2939911-.00047302247 .24899292-.00047302247 .20999146-.00047302247 .15098572 .024551392 .1329956 .12062073 .12199402 .18066406 .12199402 .2727356 .12199402 .3317871 .12199402 .39582826 .12199402 .46188355 .12998963 .5159149 .14898682 .63500979 .22399903 .64401248 .24899292 .64401248 .28199769 .64401248 .34799195 .6259918 .36698915 .52693179 .3769989 .47088624 .3769989 .39482118 .3769989 .3317871Z"/>
<path id="font_2_2" d="M.35398866 .62316897C.35398866 .6452637 .35398866 .65527346 .32798768 .65527346 .31698609 .65527346 .31498719 .65527346 .30599977 .64826968 .22898865 .5909424 .12599182 .5909424 .10499573 .5909424H.084991458V.5439453H.10499573C.12098694 .5439453 .17599488 .54493716 .23498535 .5639343V.04699707H.09599304V0C.13999939 .0029907227 .24598694 .0029907227 .29499818 .0029907227 .34399415 .0029907227 .44999696 .0029907227 .49398805 0V.04699707H.35398866V.62316897Z"/>
<path id="font_2_1" d="M.5289917 .31925965C.5289917 .41625978 .5279999 .65527346 .2869873 .65527346 .04598999 .65527346 .04499817 .41726686 .04499817 .31925965 .04499817 .22026062 .04598999-.0107421879 .2869873-.0107421879 .5269928-.0107421879 .5289917 .21925354 .5289917 .31925965M.2869873 .025253296C.25099183 .025253296 .19499207 .04725647 .18199158 .12025452 .17298889 .17225647 .17298889 .27626039 .17298889 .33125306 .17298889 .40325929 .17298889 .46826173 .18099976 .5202637 .19299317 .6092682 .2630005 .6192627 .2869873 .6192627 .32398988 .6192627 .36499024 .6002655 .38398744 .5562744 .40098573 .51927188 .40098573 .41326905 .40098573 .33125306 .40098573 .2752533 .40098573 .18424988 .3939972 .13224793 .37998963 .039245607 .31698609 .025253296 .2869873 .025253296Z"/>
<path id="font_3_1" d="M.59199526 .31825257C.59199526 .44125367 .57899478 .65625 .32299806 .65625 .066986087 .65625 .053985597 .44024659 .053985597 .31825257 .053985597 .19226074 .069992069-.01171875 .32299806-.01171875 .57598879-.01171875 .59199526 .19126892 .59199526 .31825257M.32299806 .03427124C.29100038 .03427124 .26098634 .045272829 .23699951 .06626892 .20999146 .089263919 .19299317 .104263309 .19299317 .33125306 .19299317 .4002533 .19299317 .47924806 .20399475 .5272522 .21998596 .5922394 .28199769 .61024478 .32299806 .61024478 .36099244 .61024478 .42599488 .5942383 .44198609 .52523806 .45298768 .47824098 .45298768 .3952484 .45298768 .33125306 .45298768 .261261 .45298768 .18826294 .44299317 .13226319 .42900086 .05126953 .3600006 .03427124 .32299806 .03427124Z"/>
<path id="font_3_2" d="M.39898683 .62120059C.39898683 .65625 .3919983 .65625 .34999085 .65625 .28799439 .6061554 .20599365 .59213259 .12599182 .59213259H.101989749V.5361328H.12599182C.1659851 .5361328 .22698975 .54312136 .2689972 .5571289V.055999757H.11099243V0C.1599884 .0039978029 .27999879 .0039978029 .33399964 .0039978029 .36999513 .0039978029 .4059906 .0029907227 .44198609 .0029907227 .47200013 .0029907227 .5239868 .0019989014 .5529938 0V.055999757H.39898683V.62120059Z"/>
<path id="font_3_3" d="M.5779877 .2280426H.5149994C.5130005 .21603394 .5039978 .14500427 .48599244 .14099121 .46499635 .13699341 .40499879 .13699341 .38198854 .13699341H.24499512C.2999878 .17800904 .35598756 .21903992 .4139862 .25605775 .49499513 .3080902 .5779877 .3611145 .5779877 .46116639 .5779877 .5812378 .46499635 .65625 .30599977 .65625 .16999817 .65625 .067993167 .60324099 .067993167 .50819399 .067993167 .4501648 .114990238 .42915345 .14498902 .42915345 .18099976 .42915345 .22299195 .4541626 .22299195 .5071869 .22299195 .55522158 .18598938 .57522585 .18299866 .5762329 .21899414 .59924319 .2649994 .600235 .2769928 .600235 .3619995 .600235 .42900086 .5462189 .42900086 .4601593 .42900086 .38311769 .3769989 .3190918 .31900025 .2680664L.08099365 .056991579C.068984989 .04499817 .067993167 .04399109 .067993167 .023986817V0H.5439911L.5779877 .2280426Z"/>
</defs>
<path transform="matrix(1.00002,0,0,-1.00009,8.451897,12.903082)" stroke-width=".79701" stroke-linecap="butt" stroke-miterlimit="10" stroke-linejoin="miter" fill="none" stroke="#000000" d="M-5.66927 0H296.20689"/>
<path transform="matrix(1.00002,0,0,-1.00009,304.6647,12.903082)" d="M1.0361 0C-.25902 .25902-1.55415 .77707-3.1083 1.68365-1.55415 .51805-1.55415-.51805-3.1083-1.68365-1.55415-.77707-.25902-.25902 1.0361 0Z"/>
<path transform="matrix(1.00002,0,0,-1.00009,304.6647,12.903082)" stroke-width=".79701" stroke-linecap="butt" stroke-linejoin="round" fill="none" stroke="#000000" d="M1.0361 0C-.25902 .25902-1.55415 .77707-3.1083 1.68365-1.55415 .51805-1.55415-.51805-3.1083-1.68365-1.55415-.77707-.25902-.25902 1.0361 0Z"/>
<path transform="matrix(1.00002,0,0,-1.00009,8.451897,12.903082)" d="M44.50165 0C44.50165 1.01764 43.6767 1.84259 42.65904 1.84259 41.64139 1.84259 40.81644 1.01764 40.81644 0 40.81644-1.01764 41.64139-1.84259 42.65904-1.84259 43.6767-1.84259 44.50165-1.01764 44.50165 0ZM42.65904 0" fill="#ff0000"/>
<path transform="matrix(1.00002,0,0,-1.00009,8.451897,12.903082)" stroke-width=".3985" stroke-linecap="butt" stroke-miterlimit="10" stroke-linejoin="miter" fill="none" stroke="#ff0000" d="M44.50165 0C44.50165 1.01764 43.6767 1.84259 42.65904 1.84259 41.64139 1.84259 40.81644 1.01764 40.81644 0 40.81644-1.01764 41.64139-1.84259 42.65904-1.84259 43.6767-1.84259 44.50165-1.01764 44.50165 0ZM42.65904 0"/>
<path transform="matrix(1.00002,0,0,-1.00009,8.451897,12.903082)" d="M69.46341 0C69.46341 1.01764 68.63846 1.84259 67.6208 1.84259 66.60316 1.84259 65.77821 1.01764 65.77821 0 65.77821-1.01764 66.60316-1.84259 67.6208-1.84259 68.63846-1.84259 69.46341-1.01764 69.46341 0ZM67.6208 0" fill="#ff0000"/>
<path transform="matrix(1.00002,0,0,-1.00009,8.451897,12.903082)" stroke-width=".3985" stroke-linecap="butt" stroke-miterlimit="10" stroke-linejoin="miter" fill="none" stroke="#ff0000" d="M69.46341 0C69.46341 1.01764 68.63846 1.84259 67.6208 1.84259 66.60316 1.84259 65.77821 1.01764 65.77821 0 65.77821-1.01764 66.60316-1.84259 67.6208-1.84259 68.63846-1.84259 69.46341-1.01764 69.46341 0ZM67.6208 0"/>
<path transform="matrix(1.00002,0,0,-1.00009,8.451897,12.903082)" d="M87.17369 0C87.17369 1.01764 86.34874 1.84259 85.33109 1.84259 84.31343 1.84259 83.48848 1.01764 83.48848 0 83.48848-1.01764 84.31343-1.84259 85.33109-1.84259 86.34874-1.84259 87.17369-1.01764 87.17369 0ZM85.33109 0" fill="#ff0000"/>
<path transform="matrix(1.00002,0,0,-1.00009,8.451897,12.903082)" stroke-width=".3985" stroke-linecap="butt" stroke-miterlimit="10" stroke-linejoin="miter" fill="none" stroke="#ff0000" d="M87.17369 0C87.17369 1.01764 86.34874 1.84259 85.33109 1.84259 84.31343 1.84259 83.48848 1.01764 83.48848 0 83.48848-1.01764 84.31343-1.84259 85.33109-1.84259 86.34874-1.84259 87.17369-1.01764 87.17369 0ZM85.33109 0"/>
<path transform="matrix(1.00002,0,0,-1.00009,8.451897,12.903082)" d="M100.90894 0C100.90894 1.01764 100.08398 1.84259 99.06633 1.84259 98.04868 1.84259 97.22372 1.01764 97.22372 0 97.22372-1.01764 98.04868-1.84259 99.06633-1.84259 100.08398-1.84259 100.90894-1.01764 100.90894 0ZM99.06633 0" fill="#ff0000"/>
<path transform="matrix(1.00002,0,0,-1.00009,8.451897,12.903082)" stroke-width=".3985" stroke-linecap="butt" stroke-miterlimit="10" stroke-linejoin="miter" fill="none" stroke="#ff0000" d="M100.90894 0C100.90894 1.01764 100.08398 1.84259 99.06633 1.84259 98.04868 1.84259 97.22372 1.01764 97.22372 0 97.22372-1.01764 98.04868-1.84259 99.06633-1.84259 100.08398-1.84259 100.90894-1.01764 100.90894 0ZM99.06633 0"/>
<path transform="matrix(1.00002,0,0,-1.00009,8.451897,12.903082)" d="M112.13112 0C112.13112 1.01764 111.30617 1.84259 110.28853 1.84259 109.27087 1.84259 108.44592 1.01764 108.44592 0 108.44592-1.01764 109.27087-1.84259 110.28853-1.84259 111.30617-1.84259 112.13112-1.01764 112.13112 0ZM110.28853 0" fill="#ff0000"/>
<path transform="matrix(1.00002,0,0,-1.00009,8.451897,12.903082)" stroke-width=".3985" stroke-linecap="butt" stroke-miterlimit="10" stroke-linejoin="miter" fill="none" stroke="#ff0000" d="M112.13112 0C112.13112 1.01764 111.30617 1.84259 110.28853 1.84259 109.27087 1.84259 108.44592 1.01764 108.44592 0 108.44592-1.01764 109.27087-1.84259 110.28853-1.84259 111.30617-1.84259 112.13112-1.01764 112.13112 0ZM110.28853 0"/>
<path transform="matrix(1.00002,0,0,-1.00009,8.451897,12.903082)" d="M121.61452 0C121.61452 1.01764 120.78957 1.84259 119.77191 1.84259 118.75426 1.84259 117.9293 1.01764 117.9293 0 117.9293-1.01764 118.75426-1.84259 119.77191-1.84259 120.78957-1.84259 121.61452-1.01764 121.61452 0ZM119.77191 0" fill="#ff0000"/>
<path transform="matrix(1.00002,0,0,-1.00009,8.451897,12.903082)" stroke-width=".3985" stroke-linecap="butt" stroke-miterlimit="10" stroke-linejoin="miter" fill="none" stroke="#ff0000" d="M121.61452 0C121.61452 1.01764 120.78957 1.84259 119.77191 1.84259 118.75426 1.84259 117.9293 1.01764 117.9293 0 117.9293-1.01764 118.75426-1.84259 119.77191-1.84259 120.78957-1.84259 121.61452-1.01764 121.61452 0ZM119.77191 0"/>
<path transform="matrix(1.00002,0,0,-1.00009,8.451897,12.903082)" d="M129.83922 0C129.83922 1.01764 129.01427 1.84259 127.99663 1.84259 126.97897 1.84259 126.15402 1.01764 126.15402 0 126.15402-1.01764 126.97897-1.84259 127.99663-1.84259 129.01427-1.84259 129.83922-1.01764 129.83922 0ZM127.99663 0" fill="#ff0000"/>
<path transform="matrix(1.00002,0,0,-1.00009,8.451897,12.903082)" stroke-width=".3985" stroke-linecap="butt" stroke-miterlimit="10" stroke-linejoin="miter" fill="none" stroke="#ff0000" d="M129.83922 0C129.83922 1.01764 129.01427 1.84259 127.99663 1.84259 126.97897 1.84259 126.15402 1.01764 126.15402 0 126.15402-1.01764 126.97897-1.84259 127.99663-1.84259 129.01427-1.84259 129.83922-1.01764 129.83922 0ZM127.99663 0"/>
<path transform="matrix(1.00002,0,0,-1.00009,8.451897,12.903082)" d="M137.08856 0C137.08856 1.01764 136.26361 1.84259 135.24596 1.84259 134.2283 1.84259 133.40335 1.01764 133.40335 0 133.40335-1.01764 134.2283-1.84259 135.24596-1.84259 136.26361-1.84259 137.08856-1.01764 137.08856 0ZM135.24596 0" fill="#ff0000"/>
<path transform="matrix(1.00002,0,0,-1.00009,8.451897,12.903082)" stroke-width=".3985" stroke-linecap="butt" stroke-miterlimit="10" stroke-linejoin="miter" fill="none" stroke="#ff0000" d="M137.08856 0C137.08856 1.01764 136.26361 1.84259 135.24596 1.84259 134.2283 1.84259 133.40335 1.01764 133.40335 0 133.40335-1.01764 134.2283-1.84259 135.24596-1.84259 136.26361-1.84259 137.08856-1.01764 137.08856 0ZM135.24596 0"/>
<path transform="matrix(1.00002,0,0,-1.00009,8.451897,12.903082)" d="M186.24002 0C186.24002 1.01764 185.41507 1.84259 184.39742 1.84259 183.37978 1.84259 182.55483 1.01764 182.55483 0 182.55483-1.01764 183.37978-1.84259 184.39742-1.84259 185.41507-1.84259 186.24002-1.01764 186.24002 0ZM184.39742 0" fill="#ff0000"/>
<path transform="matrix(1.00002,0,0,-1.00009,8.451897,12.903082)" stroke-width=".3985" stroke-linecap="butt" stroke-miterlimit="10" stroke-linejoin="miter" fill="none" stroke="#ff0000" d="M186.24002 0C186.24002 1.01764 185.41507 1.84259 184.39742 1.84259 183.37978 1.84259 182.55483 1.01764 182.55483 0 182.55483-1.01764 183.37978-1.84259 184.39742-1.84259 185.41507-1.84259 186.24002-1.01764 186.24002 0ZM184.39742 0"/>
<path transform="matrix(1.00002,0,0,-1.00009,8.451897,12.903082)" d="M211.18881 0C211.18881 1.01764 210.36386 1.84259 209.3462 1.84259 208.32855 1.84259 207.5036 1.01764 207.5036 0 207.5036-1.01764 208.32855-1.84259 209.3462-1.84259 210.36386-1.84259 211.18881-1.01764 211.18881 0ZM209.3462 0" fill="#ff0000"/>
<path transform="matrix(1.00002,0,0,-1.00009,8.451897,12.903082)" stroke-width=".3985" stroke-linecap="butt" stroke-miterlimit="10" stroke-linejoin="miter" fill="none" stroke="#ff0000" d="M211.18881 0C211.18881 1.01764 210.36386 1.84259 209.3462 1.84259 208.32855 1.84259 207.5036 1.01764 207.5036 0 207.5036-1.01764 208.32855-1.84259 209.3462-1.84259 210.36386-1.84259 211.18881-1.01764 211.18881 0ZM209.3462 0"/>
<path transform="matrix(1.00002,0,0,-1.00009,8.451897,12.903082)" d="M228.90773 0C228.90773 1.01764 228.08278 1.84259 227.06514 1.84259 226.04749 1.84259 225.22254 1.01764 225.22254 0 225.22254-1.01764 226.04749-1.84259 227.06514-1.84259 228.08278-1.84259 228.90773-1.01764 228.90773 0ZM227.06514 0" fill="#ff0000"/>
<path transform="matrix(1.00002,0,0,-1.00009,8.451897,12.903082)" stroke-width=".3985" stroke-linecap="butt" stroke-miterlimit="10" stroke-linejoin="miter" fill="none" stroke="#ff0000" d="M228.90773 0C228.90773 1.01764 228.08278 1.84259 227.06514 1.84259 226.04749 1.84259 225.22254 1.01764 225.22254 0 225.22254-1.01764 226.04749-1.84259 227.06514-1.84259 228.08278-1.84259 228.90773-1.01764 228.90773 0ZM227.06514 0"/>
<path transform="matrix(1.00002,0,0,-1.00009,8.451897,12.903082)" d="M242.64081 0C242.64081 1.01764 241.81586 1.84259 240.7982 1.84259 239.78055 1.84259 238.9556 1.01764 238.9556 0 238.9556-1.01764 239.78055-1.84259 240.7982-1.84259 241.81586-1.84259 242.64081-1.01764 242.64081 0ZM240.7982 0" fill="#ff0000"/>
<path transform="matrix(1.00002,0,0,-1.00009,8.451897,12.903082)" stroke-width=".3985" stroke-linecap="butt" stroke-miterlimit="10" stroke-linejoin="miter" fill="none" stroke="#ff0000" d="M242.64081 0C242.64081 1.01764 241.81586 1.84259 240.7982 1.84259 239.78055 1.84259 238.9556 1.01764 238.9556 0 238.9556-1.01764 239.78055-1.84259 240.7982-1.84259 241.81586-1.84259 242.64081-1.01764 242.64081 0ZM240.7982 0"/>
<path transform="matrix(1.00002,0,0,-1.00009,8.451897,12.903082)" d="M253.85652 0C253.85652 1.01764 253.03157 1.84259 252.01392 1.84259 250.99628 1.84259 250.17133 1.01764 250.17133 0 250.17133-1.01764 250.99628-1.84259 252.01392-1.84259 253.03157-1.84259 253.85652-1.01764 253.85652 0ZM252.01392 0" fill="#ff0000"/>
<path transform="matrix(1.00002,0,0,-1.00009,8.451897,12.903082)" stroke-width=".3985" stroke-linecap="butt" stroke-miterlimit="10" stroke-linejoin="miter" fill="none" stroke="#ff0000" d="M253.85652 0C253.85652 1.01764 253.03157 1.84259 252.01392 1.84259 250.99628 1.84259 250.17133 1.01764 250.17133 0 250.17133-1.01764 250.99628-1.84259 252.01392-1.84259 253.03157-1.84259 253.85652-1.01764 253.85652 0ZM252.01392 0"/>
<path transform="matrix(1.00002,0,0,-1.00009,8.451897,12.903082)" d="M263.35289 0C263.35289 1.01764 262.52796 1.84259 261.5103 1.84259 260.49266 1.84259 259.6677 1.01764 259.6677 0 259.6677-1.01764 260.49266-1.84259 261.5103-1.84259 262.52796-1.84259 263.35289-1.01764 263.35289 0ZM261.5103 0" fill="#ff0000"/>
<path transform="matrix(1.00002,0,0,-1.00009,8.451897,12.903082)" stroke-width=".3985" stroke-linecap="butt" stroke-miterlimit="10" stroke-linejoin="miter" fill="none" stroke="#ff0000" d="M263.35289 0C263.35289 1.01764 262.52796 1.84259 261.5103 1.84259 260.49266 1.84259 259.6677 1.01764 259.6677 0 259.6677-1.01764 260.49266-1.84259 261.5103-1.84259 262.52796-1.84259 263.35289-1.01764 263.35289 0ZM261.5103 0"/>
<path transform="matrix(1.00002,0,0,-1.00009,8.451897,12.903082)" d="M271.57328 0C271.57328 1.01764 270.74833 1.84259 269.73069 1.84259 268.713 1.84259 267.8881 1.01764 267.8881 0 267.8881-1.01764 268.713-1.84259 269.73069-1.84259 270.74833-1.84259 271.57328-1.01764 271.57328 0ZM269.73069 0" fill="#ff0000"/>
<path transform="matrix(1.00002,0,0,-1.00009,8.451897,12.903082)" stroke-width=".3985" stroke-linecap="butt" stroke-miterlimit="10" stroke-linejoin="miter" fill="none" stroke="#ff0000" d="M271.57328 0C271.57328 1.01764 270.74833 1.84259 269.73069 1.84259 268.713 1.84259 267.8881 1.01764 267.8881 0 267.8881-1.01764 268.713-1.84259 269.73069-1.84259 270.74833-1.84259 271.57328-1.01764 271.57328 0ZM269.73069 0"/>
<path transform="matrix(1.00002,0,0,-1.00009,8.451897,12.903082)" d="M278.82264 0C278.82264 1.01764 277.99769 1.84259 276.98 1.84259 275.96238 1.84259 275.1374 1.01764 275.1374 0 275.1374-1.01764 275.96238-1.84259 276.98-1.84259 277.99769-1.84259 278.82264-1.01764 278.82264 0ZM276.98 0" fill="#ff0000"/>
<path transform="matrix(1.00002,0,0,-1.00009,8.451897,12.903082)" stroke-width=".3985" stroke-linecap="butt" stroke-miterlimit="10" stroke-linejoin="miter" fill="none" stroke="#ff0000" d="M278.82264 0C278.82264 1.01764 277.99769 1.84259 276.98 1.84259 275.96238 1.84259 275.1374 1.01764 275.1374 0 275.1374-1.01764 275.96238-1.84259 276.98-1.84259 277.99769-1.84259 278.82264-1.01764 278.82264 0ZM276.98 0"/>
<use data-text="2" xlink:href="#font_1_107" transform="matrix(9.962799,0,0,-9.963496,48.6207,7.715615)"/>
<use data-text="3" xlink:href="#font_1_106" transform="matrix(9.962799,0,0,-9.963496,73.5832,7.6066048)"/>
<use data-text="5" xlink:href="#font_1_56" transform="matrix(9.962799,0,0,-9.963496,105.02983,7.6066048)"/>
<use data-text="7" xlink:href="#font_1_100" transform="matrix(9.962799,0,0,-9.963496,125.735248,7.6566097)"/>
<use data-text="2" xlink:href="#font_1_107" transform="matrix(9.962799,0,0,-9.963496,187.87149,7.6066048)"/>
<use data-text="0" xlink:href="#font_1_121" transform="matrix(9.962799,0,0,-9.963496,192.85288,7.6066048)"/>
<use data-text="3" xlink:href="#font_1_106" transform="matrix(9.962799,0,0,-9.963496,212.82099,7.6066048)"/>
<use data-text="0" xlink:href="#font_1_121" transform="matrix(9.962799,0,0,-9.963496,217.8024,7.6066048)"/>
<use data-text="5" xlink:href="#font_1_56" transform="matrix(9.962799,0,0,-9.963496,244.27362,7.6066048)"/>
<use data-text="0" xlink:href="#font_1_121" transform="matrix(9.962799,0,0,-9.963496,249.25504,7.6066048)"/>
<use data-text="7" xlink:href="#font_1_100" transform="matrix(9.962799,0,0,-9.963496,264.98603,7.6566097)"/>
<use data-text="0" xlink:href="#font_1_121" transform="matrix(9.962799,0,0,-9.963496,269.9674,7.6566097)"/>
<path transform="matrix(1.00002,0,0,-1.00009,8.451897,12.903082)" stroke-width=".3985" stroke-linecap="butt" stroke-miterlimit="10" stroke-linejoin="miter" fill="none" stroke="#000000" d="M0 3.54333V-3.54335"/>
<use data-text="1" xlink:href="#font_2_2" transform="matrix(9.962799,0,0,-9.963496,.21773529,28.077448)"/>
<use data-text="0" xlink:href="#font_2_1" transform="matrix(9.962799,0,0,-9.963496,5.9463427,28.077448)"/>
<use data-text="0" xlink:href="#font_3_1" transform="matrix(6.97394,0,0,-6.9744279,11.674965,24.461123)"/>
<path transform="matrix(1.00002,0,0,-1.00009,8.451897,12.903082)" stroke-width=".3985" stroke-linecap="butt" stroke-miterlimit="10" stroke-linejoin="miter" fill="none" stroke="#000000" d="M141.73404 3.54333V-3.54335"/>
<use data-text="1" xlink:href="#font_2_2" transform="matrix(9.962799,0,0,-9.963496,141.95456,28.077448)"/>
<use data-text="0" xlink:href="#font_2_1" transform="matrix(9.962799,0,0,-9.963496,147.68317,28.077448)"/>
<use data-text="1" xlink:href="#font_3_2" transform="matrix(6.97394,0,0,-6.9744279,153.4118,24.461123)"/>
<path transform="matrix(1.00002,0,0,-1.00009,8.451897,12.903082)" stroke-width=".3985" stroke-linecap="butt" stroke-miterlimit="10" stroke-linejoin="miter" fill="none" stroke="#000000" d="M283.4681 3.54333V-3.54335"/>
<use data-text="1" xlink:href="#font_2_2" transform="matrix(9.962799,0,0,-9.963496,283.69145,28.077448)"/>
<use data-text="0" xlink:href="#font_2_1" transform="matrix(9.962799,0,0,-9.963496,289.42005,28.077448)"/>
<use data-text="2" xlink:href="#font_3_3" transform="matrix(6.97394,0,0,-6.9744279,295.14866,24.461123)"/>
</svg>
