<svg xmlns="http://www.w3.org/2000/svg" xmlns:xlink="http://www.w3.org/1999/xlink" version="1.1" width="234" height="224" viewBox="0 0 234 224">
<defs>
<path id="font_1_1" d="M.33399964 .30233766C.33999635 .32835389 .36299134 .42037965 .43299867 .42037965 .43798829 .42037965 .46199037 .42037965 .48298646 .40734864 .45498658 .402359 .43499757 .37734986 .43499757 .35334779 .43499757 .33735658 .44599916 .31835938 .47299195 .31835938 .49499513 .31835938 .5269928 .3363495 .5269928 .37635804 .5269928 .42837525 .46798707 .4423828 .43399049 .4423828 .37599183 .4423828 .34098817 .38935853 .32899476 .36634828 .3039856 .43237306 .25 .4423828 .22099304 .4423828 .116989139 .4423828 .05999756 .3133545 .05999756 .28834535 .05999756 .27833558 .069992069 .27833558 .07199097 .27833558 .07998657 .27833558 .08299255 .28033448 .084991458 .28933717 .11898804 .39535523 .18499756 .42037965 .21899414 .42037965 .23799134 .42037965 .272995 .4113617 .272995 .35334779 .272995 .32235719 .2559967 .25532533 .21899414 .11528015 .20298767 .053268434 .16799927 .011245728 .12399292 .011245728 .117996219 .011245728 .09498596 .011245728 .07398987 .024276734 .09899902 .029266358 .12098694 .05027771 .12098694 .07827759 .12098694 .105270389 .09899902 .11328125 .083999637 .11328125 .053985597 .11328125 .0289917 .08728027 .0289917 .055267335 .0289917 .009246826 .07899475-.0107421879 .12298584-.0107421879 .18899536-.0107421879 .22499085 .059280397 .22799683 .0652771 .23999024 .028274537 .27598573-.0107421879 .33599855-.0107421879 .43899537-.0107421879 .49598695 .118270877 .49598695 .14328003 .49598695 .1532898 .4869995 .1532898 .48399354 .1532898 .47499085 .1532898 .47299195 .14929199 .47099305 .14228821 .43798829 .03527832 .36999513 .011245728 .33799745 .011245728 .29899598 .011245728 .2829895 .043273927 .2829895 .07727051 .2829895 .09927368 .2889862 .121276859 .2999878 .16529846L.33399964 .30233766Z"/>
<path id="font_1_2" d="M.48599244 .38136292C.48999024 .39537049 .48999024 .39736939 .48999024 .40437318 .48999024 .42237855 .47599793 .43138124 .46099855 .43138124 .45098878 .43138124 .43499757 .42536927 .42599488 .41036988 .42399598 .405365 .41600038 .37435914 .4119873 .35635377 .40499879 .33035279 .397995 .30334474 .3919983 .27633668L.34700013 .09628296C.34298707 .08126831 .2999878 .011245728 .23399353 .011245728 .18299866 .011245728 .17199707 .055267335 .17199707 .0922699 .17199707 .1382904 .18899536 .20030213 .22299195 .28833009 .23899842 .3293457 .24299622 .3403473 .24299622 .36035157 .24299622 .405365 .21099854 .4423828 .16099549 .4423828 .06599426 .4423828 .0289917 .29733277 .0289917 .28833009 .0289917 .27833558 .038986207 .27833558 .040985109 .27833558 .050994874 .27833558 .051986696 .28033448 .056991579 .29634095 .083999637 .3903656 .12399292 .42037965 .1579895 .42037965 .1659851 .42037965 .18299866 .42037965 .18299866 .3883667 .18299866 .36335755 .17298889 .3373413 .1659851 .31834413 .12599182 .21231079 .10798645 .1552887 .10798645 .10827637 .10798645 .019256592 .17098999-.0107421879 .22999573-.0107421879 .2689972-.0107421879 .30299378 .0062561037 .33099366 .03425598 .31799317-.017745972 .30599977-.06674194 .2659912-.11973572 .23999024-.15385437 .20199585-.18309021 .1559906-.18309021 .14199829-.18309021 .09700012-.18005371 .07998657-.14074707 .09599304-.14074707 .10899353-.14074707 .12298584-.1287384 .1329956-.11973572 .14299011-.10673523 .14299011-.08773804 .14299011-.056747438 .115997318-.052734376 .10598755-.052734376 .08299255-.052734376 .049987794-.068740848 .049987794-.11773682 .049987794-.16796875 .09399414-.20507813 .1559906-.20507813 .25898744-.20507813 .3619995-.11373901 .3899994-.00074768069L.48599244 .38136292Z"/>
<path id="font_2_1" d="M.6589966 .23046875C.6759949 .23046875 .69400027 .23046875 .69400027 .25045777 .69400027 .27046205 .6759949 .27046205 .6589966 .27046205H.117996219C.100997928 .27046205 .08299255 .27046205 .08299255 .25045777 .08299255 .23046875 .100997928 .23046875 .117996219 .23046875H.6589966Z"/>
<path id="font_3_3" d="M.44898988 .20022583C.44898988 .3193512 .36698915 .41944886 .25898744 .41944886 .21099854 .41944886 .16799927 .40345765 .13198853 .36842347V.5637665C.1519928 .5577698 .18499756 .55078127 .21699524 .55078127 .33999635 .55078127 .4099884 .6417694 .4099884 .6547699 .4099884 .6607666 .40699769 .6657715 .3999939 .6657715 .39898683 .6657715 .39698792 .6657715 .3919983 .66278079 .37199403 .6537781 .32299806 .6337738 .2559967 .6337738 .21598816 .6337738 .16999817 .6407776 .12298584 .6617737 .114990238 .66477969 .11299133 .66477969 .11099243 .66477969 .100997928 .66477969 .100997928 .6567688 .100997928 .6407776V.34439088C.100997928 .32637025 .100997928 .31835938 .114990238 .31835938 .12199402 .31835938 .12399292 .32136537 .12799073 .32736207 .13899231 .3433838 .17599488 .39746095 .25698854 .39746095 .30899049 .39746095 .33399964 .35139466 .34199525 .33337403 .35798646 .29632569 .3600006 .25727845 .3600006 .20722962 .3600006 .17222595 .3600006 .11222839 .33599855 .07035828 .31199647 .031463624 .2749939 .0055389406 .22898865 .0055389406 .1559906 .0055389406 .09899902 .058380128 .08198547 .11723328 .084991458 .1162262 .08799744 .115234378 .09899902 .115234378 .13198853 .115234378 .14898682 .14022827 .14898682 .16423035 .14898682 .18823242 .13198853 .21322632 .09899902 .21322632 .084991458 .21322632 .049987794 .20622254 .049987794 .16023255 .049987794 .07434082 .11898804-.022460938 .23098755-.022460938 .34700013-.022460938 .44898988 .073349 .44898988 .20022583Z"/>
<path id="font_3_2" d="M.2939911 .64004519C.2939911 .66400149 .2939911 .6660156 .2709961 .6660156 .20899964 .60227969 .12098694 .60227969 .08898926 .60227969V.57128909C.10899353 .57128909 .16799927 .57128909 .21998596 .5972748V.07902527C.21998596 .042999269 .21699524 .0309906 .1269989 .0309906H.09498596V0C.12998963 .0029907227 .21699524 .0029907227 .25698854 .0029907227 .29699708 .0029907227 .38398744 .0029907227 .4189911 0V.0309906H.3869934C.29699708 .0309906 .2939911 .041992189 .2939911 .07902527V.64004519Z"/>
<path id="font_3_1" d="M.45999146 .31976319C.45999146 .39982606 .45498658 .47988893 .41999818 .5539398 .37399293 .65000918 .2919922 .6660156 .25 .6660156 .18998719 .6660156 .116989139 .64001467 .07598877 .54693606 .04399109 .47789 .038986207 .39982606 .038986207 .31976319 .038986207 .24472046 .042999269 .15464783 .083999637 .07859802 .1269989-.0024719239 .19999695-.022460938 .24899292-.022460938 .30299378-.022460938 .3789978-.0014648438 .4229889 .09359741 .45498658 .16265869 .45999146 .2407074 .45999146 .31976319M.24899292-.00047302247C.20999146-.00047302247 .15098572 .024551392 .1329956 .12062073 .12199402 .18066406 .12199402 .2727356 .12199402 .3317871 .12199402 .39582826 .12199402 .46188355 .12998963 .5159149 .14898682 .63500979 .22399903 .64401248 .24899292 .64401248 .28199769 .64401248 .34799195 .6259918 .36698915 .52693179 .3769989 .47088624 .3769989 .39482118 .3769989 .3317871 .3769989 .25672914 .3769989 .18867493 .3659973 .12461853 .35099793 .029556275 .2939911-.00047302247 .24899292-.00047302247Z"/>
</defs>
<path transform="matrix(1,0,0,-1,108.28,120.122)" stroke-width=".3985" stroke-linecap="butt" stroke-miterlimit="10" stroke-linejoin="miter" fill="none" stroke="#00aeef" d="M-99.21555-99.21555H99.21555M-99.21555-89.29399H99.21555M-99.21555-79.37244H99.21555M-99.21555-69.45088H99.21555M-99.21555-59.52933H99.21555M-99.21555-49.60777H99.21555M-99.21555-39.68622H99.21555M-99.21555-29.76466H99.21555M-99.21555-19.84311H99.21555M-99.21555-9.92155H99.21555M-99.21555 0H99.21555M-99.21555 9.92155H99.21555M-99.21555 19.84311H99.21555M-99.21555 29.76466H99.21555M-99.21555 39.68622H99.21555M-99.21555 49.60777H99.21555M-99.21555 59.52933H99.21555M-99.21555 69.45088H99.21555M-99.21555 79.37244H99.21555M-99.21555 89.29399H99.21555M-99.21555 99.21207H99.21555M-99.21555-99.21555V99.21555M-89.29399-99.21555V99.21555M-79.37244-99.21555V99.21555M-69.45088-99.21555V99.21555M-59.52933-99.21555V99.21555M-49.60777-99.21555V99.21555M-39.68622-99.21555V99.21555M-29.76466-99.21555V99.21555M-19.84311-99.21555V99.21555M-9.92155-99.21555V99.21555M0-99.21555V99.21555M9.92155-99.21555V99.21555M19.84311-99.21555V99.21555M29.76466-99.21555V99.21555M39.68622-99.21555V99.21555M49.60777-99.21555V99.21555M59.52933-99.21555V99.21555M69.45088-99.21555V99.21555M79.37244-99.21555V99.21555M89.29399-99.21555V99.21555M99.21207-99.21555V99.21555M99.21555 99.21555"/>
<path transform="matrix(1,0,0,-1,108.28,120.122)" stroke-width=".79701" stroke-linecap="butt" stroke-miterlimit="10" stroke-linejoin="miter" fill="none" stroke="#000000" d="M-99.21555 0H113.65549"/>
<path transform="matrix(1,0,0,-1,221.93549,120.122)" d="M1.0361 0C-.25902 .25902-1.55415 .77707-3.1083 1.68365-1.55415 .51805-1.55415-.51805-3.1083-1.68365-1.55415-.77707-.25902-.25902 1.0361 0Z"/>
<path transform="matrix(1,0,0,-1,221.93549,120.122)" stroke-width=".79701" stroke-linecap="butt" stroke-linejoin="round" fill="none" stroke="#000000" d="M1.0361 0C-.25902 .25902-1.55415 .77707-3.1083 1.68365-1.55415 .51805-1.55415-.51805-3.1083-1.68365-1.55415-.77707-.25902-.25902 1.0361 0Z"/>
<use data-text="x" xlink:href="#font_1_1" transform="matrix(9.9626,0,0,-9.9626,227.08899,122.267)"/>
<path transform="matrix(1,0,0,-1,108.28,120.122)" stroke-width=".79701" stroke-linecap="butt" stroke-miterlimit="10" stroke-linejoin="miter" fill="none" stroke="#000000" d="M0-99.21555V113.65549"/>
<path transform="matrix(0,-1,-1,-0,108.28,6.4665148)" d="M1.0361 0C-.25902 .25902-1.55415 .77707-3.1083 1.68365-1.55415 .51805-1.55415-.51805-3.1083-1.68365-1.55415-.77707-.25902-.25902 1.0361 0Z"/>
<path transform="matrix(0,-1,-1,-0,108.28,6.4665148)" stroke-width=".79701" stroke-linecap="butt" stroke-linejoin="round" fill="none" stroke="#000000" d="M1.0361 0C-.25902 .25902-1.55415 .77707-3.1083 1.68365-1.55415 .51805-1.55415-.51805-3.1083-1.68365-1.55415-.77707-.25902-.25902 1.0361 0Z"/>
<use data-text="y" xlink:href="#font_1_2" transform="matrix(9.9626,0,0,-9.9626,101.311,6.208)"/>
<path transform="matrix(1,0,0,-1,108.28,120.122)" stroke-width="1.19553" stroke-linecap="butt" stroke-miterlimit="10" stroke-linejoin="miter" fill="none" stroke="#00aeef" d="M-49.60777-99.21555V99.21555"/>
<path transform="matrix(1,0,0,-1,108.28,120.122)" stroke-width="1.19553" stroke-linecap="butt" stroke-miterlimit="10" stroke-linejoin="miter" fill="none" stroke="#00aeef" d="M-99.21555-49.60777H99.21555"/>
<path transform="matrix(1,0,0,-1,108.28,120.122)" stroke-width=".3985" stroke-linecap="butt" stroke-miterlimit="10" stroke-linejoin="miter" fill="none" stroke="#000000" d="M-49.60777 1.48816V-1.48831"/>
<path transform="matrix(1,0,0,-1,108.28,120.122)" d="M-56.96916-12.92334H-42.246377V-3.68011H-56.96916Z" fill="#ffffff"/>
<use data-text="&#x2212;" xlink:href="#font_2_1" transform="matrix(9.9626,0,0,-9.9626,52.307008,131.219)"/>
<use data-text="5" xlink:href="#font_3_3" transform="matrix(9.9626,0,0,-9.9626,60.056,131.219)"/>
<path transform="matrix(1,0,0,-1,108.28,120.122)" stroke-width=".3985" stroke-linecap="butt" stroke-miterlimit="10" stroke-linejoin="miter" fill="none" stroke="#000000" d="M1.48816-49.60777H-1.48831"/>
<path transform="matrix(1,0,0,-1,108.28,120.122)" d="M-18.4029-54.22939H-3.6801205V-44.98616H-18.4029Z" fill="#ffffff"/>
<use data-text="&#x2212;" xlink:href="#font_2_1" transform="matrix(9.9626,0,0,-9.9626,90.873,172.525)"/>
<use data-text="5" xlink:href="#font_3_3" transform="matrix(9.9626,0,0,-9.9626,98.621997,172.525)"/>
<path transform="matrix(1,0,0,-1,108.28,120.122)" stroke-width="1.19553" stroke-linecap="butt" stroke-miterlimit="10" stroke-linejoin="miter" fill="none" stroke="#00aeef" d="M49.60777-99.21555V99.21555"/>
<path transform="matrix(1,0,0,-1,108.28,120.122)" stroke-width="1.19553" stroke-linecap="butt" stroke-miterlimit="10" stroke-linejoin="miter" fill="none" stroke="#00aeef" d="M-99.21555 49.60777H99.21555"/>
<path transform="matrix(1,0,0,-1,108.28,120.122)" stroke-width=".3985" stroke-linecap="butt" stroke-miterlimit="10" stroke-linejoin="miter" fill="none" stroke="#000000" d="M49.60777 1.48816V-1.48831"/>
<path transform="matrix(1,0,0,-1,108.28,120.122)" d="M46.1208-12.09311H53.09474V-3.68013H46.1208Z" fill="#ffffff"/>
<use data-text="5" xlink:href="#font_3_3" transform="matrix(9.9626,0,0,-9.9626,155.397,131.219)"/>
<path transform="matrix(1,0,0,-1,108.28,120.122)" stroke-width=".3985" stroke-linecap="butt" stroke-miterlimit="10" stroke-linejoin="miter" fill="none" stroke="#000000" d="M1.48816 49.60777H-1.48831"/>
<path transform="matrix(1,0,0,-1,108.28,120.122)" d="M-10.65405 45.40128H-3.68011V53.81426H-10.65405Z" fill="#ffffff"/>
<use data-text="5" xlink:href="#font_3_3" transform="matrix(9.9626,0,0,-9.9626,98.622,73.724)"/>
<path transform="matrix(1,0,0,-1,108.28,120.122)" stroke-width="1.19553" stroke-linecap="butt" stroke-miterlimit="10" stroke-linejoin="miter" fill="none" stroke="#00aeef" d="M-99.21555-99.21555V99.21555"/>
<path transform="matrix(1,0,0,-1,108.28,120.122)" stroke-width="1.19553" stroke-linecap="butt" stroke-miterlimit="10" stroke-linejoin="miter" fill="none" stroke="#00aeef" d="M-99.21555-99.21555H99.21555"/>
<path transform="matrix(1,0,0,-1,108.28,120.122)" stroke-width=".3985" stroke-linecap="butt" stroke-miterlimit="10" stroke-linejoin="miter" fill="none" stroke="#000000" d="M-99.21555 1.48816V-1.48831"/>
<path transform="matrix(1,0,0,-1,108.28,120.122)" d="M-109.06766-12.92334H-89.36346V-3.68011H-109.06766Z" fill="#ffffff"/>
<use data-text="&#x2212;" xlink:href="#font_2_1" transform="matrix(9.9626,0,0,-9.9626,.20899964,131.219)"/>
<use data-text="1" xlink:href="#font_3_2" transform="matrix(9.9626,0,0,-9.9626,7.9579927,131.219)"/>
<use data-text="0" xlink:href="#font_3_1" transform="matrix(9.9626,0,0,-9.9626,12.939285,131.219)"/>
<path transform="matrix(1,0,0,-1,108.28,120.122)" stroke-width=".3985" stroke-linecap="butt" stroke-miterlimit="10" stroke-linejoin="miter" fill="none" stroke="#000000" d="M1.48816-99.21555H-1.48831"/>
<path transform="matrix(1,0,0,-1,108.28,120.122)" d="M-23.38431-103.83717H-3.680109V-94.59394H-23.38431Z" fill="#ffffff"/>
<use data-text="&#x2212;" xlink:href="#font_2_1" transform="matrix(9.9626,0,0,-9.9626,85.892,222.133)"/>
<use data-text="1" xlink:href="#font_3_2" transform="matrix(9.9626,0,0,-9.9626,93.64099,222.133)"/>
<use data-text="0" xlink:href="#font_3_1" transform="matrix(9.9626,0,0,-9.9626,98.622287,222.133)"/>
<path transform="matrix(1,0,0,-1,108.28,120.122)" stroke-width="1.19553" stroke-linecap="butt" stroke-miterlimit="10" stroke-linejoin="miter" fill="none" stroke="#00aeef" d="M99.21555-99.21555V99.21555"/>
<path transform="matrix(1,0,0,-1,108.28,120.122)" stroke-width="1.19553" stroke-linecap="butt" stroke-miterlimit="10" stroke-linejoin="miter" fill="none" stroke="#00aeef" d="M-99.21555 99.21555H99.21555"/>
<path transform="matrix(1,0,0,-1,108.28,120.122)" stroke-width=".3985" stroke-linecap="butt" stroke-miterlimit="10" stroke-linejoin="miter" fill="none" stroke="#000000" d="M99.21555 1.48816V-1.48831"/>
<path transform="matrix(1,0,0,-1,108.28,120.122)" d="M93.23787-12.09311H105.19321V-3.68013H93.23787Z" fill="#ffffff"/>
<use data-text="1" xlink:href="#font_3_2" transform="matrix(9.9626,0,0,-9.9626,202.514,131.219)"/>
<use data-text="0" xlink:href="#font_3_1" transform="matrix(9.9626,0,0,-9.9626,207.4953,131.219)"/>
<path transform="matrix(1,0,0,-1,108.28,120.122)" stroke-width=".3985" stroke-linecap="butt" stroke-miterlimit="10" stroke-linejoin="miter" fill="none" stroke="#000000" d="M1.48816 99.21555H-1.48831"/>
<path transform="matrix(1,0,0,-1,108.28,120.122)" d="M-15.63547 95.00906H-3.68013V103.42204H-15.63547Z" fill="#ffffff"/>
<use data-text="1" xlink:href="#font_3_2" transform="matrix(9.9626,0,0,-9.9626,93.641,24.117005)"/>
<use data-text="0" xlink:href="#font_3_1" transform="matrix(9.9626,0,0,-9.9626,98.62229,24.117005)"/>
<path transform="matrix(1,0,0,-1,108.28,120.122)" stroke-width="1.19553" stroke-linecap="butt" stroke-miterlimit="10" stroke-linejoin="miter" fill="none" stroke="#ff0000" d="M-34.23894 97.35446C-33.44728 90.34221-33.44728 90.34221-33.06255 87.00859-32.67781 83.67499-32.06084 78.41528-31.67612 75.18921-31.29138 71.96312-30.67441 66.87578-30.28967 63.75722-29.90494 60.63864-29.28798 55.72382-28.90324 52.7128-28.51851 49.70177-27.90152 44.9593-27.5168 42.05579-27.13208 39.15225-26.51509 34.58218-26.13036 31.78618-25.74564 28.99016-25.12865 24.5926-24.74391 21.90413-24.35919 19.21565-23.74222 14.99045-23.35748 12.4095-22.97275 9.82854-22.35577 5.77583-21.97105 3.30243-21.58632 .82901-20.96935-3.05115-20.58461-5.41705-20.19987-7.78294-19.5829-11.49094-19.19818-13.74931-18.81345-16.00768-18.19646-19.54301-17.81174-21.69385-17.427-23.84468-16.81003-27.20766-16.4253-29.25099-16.04056-31.2943-15.42358-34.48491-15.03885-36.42072-14.65413-38.3565-14.03716-41.37459-13.65242-43.20287-13.26768-45.03114-12.65071-47.87688-12.26598-49.59761-11.88126-51.31837-11.26427-53.9916-10.87953-55.60481-10.49481-57.21803-9.87782-59.71889-9.4931-61.2246-9.10837-62.7303-8.4914-65.0588-8.10666-66.45697-7.72192-67.85513-7.10495-70.01099-6.72023-71.30164-6.3355-72.59227-5.71852-74.5759-5.33379-75.75903-4.94905-76.94215-4.33209-78.7533-3.94736-79.82887-3.56262-80.90446-2.94563-82.5431-2.56091-83.51117-2.1762-84.47923-1.5592-85.94547-1.17447-86.80603-.78975-87.6666-.17278-88.96046 .21193-89.7135 .59665-90.46652 1.21364-91.58792 1.59837-92.23338 1.98311-92.87888 2.60008-93.82777 2.9848-94.36574 3.36954-94.9037 3.98651-95.6802 4.37125-96.11067 4.75598-96.54112 5.37296-97.14525 5.75768-97.46819 6.14241-97.79112 6.75938-98.22278 7.14412-98.43816 7.52885-98.65353 8.14583-98.9127 8.53056-99.02055 8.91528-99.12842 9.53227-99.2152 9.917-99.21555 10.30173-99.2159 10.9187-99.1303 11.30344-99.02313 11.68817-98.91597 12.30515-98.65785 12.68988-98.44316 13.0746-98.22845 13.69157-97.79799 14.07631-97.47577 14.46104-97.15353 15.07802-96.55055 15.46274-96.1208 15.84747-95.69107 16.46446-94.91574 16.84918-94.37845 17.23392-93.84119 17.8509-92.89333 18.23563-92.24854 18.62035-91.60374 19.23734-90.48354 19.62207-89.7312 20.00679-88.9789 20.62376-87.68616 21.0085-86.82632 21.39323-85.96648 22.01021-84.50139 22.39494-83.53401 22.77966-82.56665 23.39664-80.92905 23.78137-79.85416 24.1661-78.77927 24.78308-76.9693 25.16782-75.78688 25.55254-74.60449 26.16953-72.62213 26.55426-71.33221 26.939-70.04228 27.55597-67.88745 27.94069-66.48997 28.32542-65.09251 28.9424-62.76518 29.32713-61.26018 29.71187-59.75517 30.32884-57.2555 30.71356-55.64296 31.0983-54.03044 31.71529-51.35825 32.1-49.6382 32.48474-47.91815 33.10172-45.07356 33.48645-43.24602 33.87117-41.41846 34.48816-38.40152 34.8729-36.46642 35.25761-34.53134 35.87459-31.34189 36.25932-29.29929 36.64406-27.25667 37.26103-23.89484 37.64577-21.74472 38.03049-19.59459 38.64746-16.06027 39.0322-13.8026 39.41693-11.54492 40.0339-7.83812 40.41862-5.47292 40.80336-3.10771 41.42035 .77142 41.80507 3.24414 42.1898 5.71684 42.8068 9.7684 43.19151 12.34863 43.57623 14.92886 44.19322 19.15294 44.57796 21.84068 44.96269 24.52846 45.57967 28.92487 45.96439 31.72017 46.34912 34.51546 46.9661 39.08438 47.35083 41.9872 47.73555 44.89 48.35252 49.63129 48.73726 52.64163 49.122 55.65198 49.73897 60.56577 50.1237 63.68364 50.50842 66.8015 51.12541 71.88765 51.51015 75.11305 51.89488 78.33844 52.51186 83.5971 52.89658 86.93002 53.28131 90.26294 54.28302 99.1344 54.0729 97.27333"/>
<path transform="matrix(-.11215,-.99365,-.99365,.11215,74.04108,22.767556)" d="M1.27522 0C-.31879 .31879-1.91284 .9564-3.8257 2.07224-1.91284 .6376-1.91284-.6376-3.8257-2.07224-1.91284-.9564-.31879-.31879 1.27522 0Z" fill="#ff0000"/>
<path transform="matrix(-.11215,-.99365,-.99365,.11215,74.04108,22.767556)" stroke-width="1.19553" stroke-linecap="butt" stroke-linejoin="round" fill="none" stroke="#ff0000" d="M1.27522 0C-.31879 .31879-1.91284 .9564-3.8257 2.07224-1.91284 .6376-1.91284-.6376-3.8257-2.07224-1.91284-.9564-.31879-.31879 1.27522 0Z"/>
<path transform="matrix(.11218,-.99364,-.99364,-.11218,162.35289,22.848671)" d="M1.27522 0C-.31879 .31879-1.91284 .9564-3.8257 2.07224-1.91284 .6376-1.91284-.6376-3.8257-2.07224-1.91284-.9564-.31879-.31879 1.27522 0Z" fill="#ff0000"/>
<path transform="matrix(.11218,-.99364,-.99364,-.11218,162.35289,22.848671)" stroke-width="1.19553" stroke-linecap="butt" stroke-linejoin="round" fill="none" stroke="#ff0000" d="M1.27522 0C-.31879 .31879-1.91284 .9564-3.8257 2.07224-1.91284 .6376-1.91284-.6376-3.8257-2.07224-1.91284-.9564-.31879-.31879 1.27522 0Z"/>
<path transform="matrix(1,0,0,-1,108.28,120.122)" stroke-width="1.19553" stroke-linecap="butt" stroke-dasharray="2.98883,2.98883" stroke-miterlimit="10" stroke-linejoin="miter" fill="none" stroke="#009900" d="M-29.76466 59.52933V1.87299"/>
<path transform="matrix(0,1,1,0,78.515338,118.24901)" d="M1.27522 0C-.31879 .31879-1.91284 .9564-3.8257 2.07224-1.91284 .6376-1.91284-.6376-3.8257-2.07224-1.91284-.9564-.31879-.31879 1.27522 0Z" fill="#009900"/>
<path transform="matrix(0,1,1,0,78.515338,118.24901)" stroke-width="1.19553" stroke-linecap="butt" stroke-linejoin="round" fill="none" stroke="#009900" d="M1.27522 0C-.31879 .31879-1.91284 .9564-3.8257 2.07224-1.91284 .6376-1.91284-.6376-3.8257-2.07224-1.91284-.9564-.31879-.31879 1.27522 0Z"/>
<path transform="matrix(1,0,0,-1,108.28,120.122)" stroke-width="1.19553" stroke-linecap="butt" stroke-dasharray="2.98883,2.98883" stroke-miterlimit="10" stroke-linejoin="miter" fill="none" stroke="#009900" d="M49.60777 59.52933V1.87299"/>
<path transform="matrix(0,1,1,0,157.88777,118.24901)" d="M1.27522 0C-.31879 .31879-1.91284 .9564-3.8257 2.07224-1.91284 .6376-1.91284-.6376-3.8257-2.07224-1.91284-.9564-.31879-.31879 1.27522 0Z" fill="#009900"/>
<path transform="matrix(0,1,1,0,157.88777,118.24901)" stroke-width="1.19553" stroke-linecap="butt" stroke-linejoin="round" fill="none" stroke="#009900" d="M1.27522 0C-.31879 .31879-1.91284 .9564-3.8257 2.07224-1.91284 .6376-1.91284-.6376-3.8257-2.07224-1.91284-.9564-.31879-.31879 1.27522 0Z"/>
<path transform="matrix(1,0,0,-1,108.28,120.122)" d="M-27.7804 59.52933C-27.7804 60.62523-28.66876 61.5136-29.76466 61.5136-30.86055 61.5136-31.74893 60.62523-31.74893 59.52933-31.74893 58.43343-30.86055 57.54506-29.76466 57.54506-28.66876 57.54506-27.7804 58.43343-27.7804 59.52933ZM-29.76466 59.52933" fill="#ff0000"/>
<path transform="matrix(1,0,0,-1,108.28,120.122)" stroke-width=".3985" stroke-linecap="butt" stroke-miterlimit="10" stroke-linejoin="miter" fill="none" stroke="#ff0000" d="M-27.7804 59.52933C-27.7804 60.62523-28.66876 61.5136-29.76466 61.5136-30.86055 61.5136-31.74893 60.62523-31.74893 59.52933-31.74893 58.43343-30.86055 57.54506-29.76466 57.54506-28.66876 57.54506-27.7804 58.43343-27.7804 59.52933ZM-29.76466 59.52933"/>
<path transform="matrix(1,0,0,-1,108.28,120.122)" d="M51.59204 59.52933C51.59204 60.62523 50.70367 61.5136 49.60777 61.5136 48.51187 61.5136 47.6235 60.62523 47.6235 59.52933 47.6235 58.43343 48.51187 57.54506 49.60777 57.54506 50.70367 57.54506 51.59204 58.43343 51.59204 59.52933ZM49.60777 59.52933" fill="#ff0000"/>
<path transform="matrix(1,0,0,-1,108.28,120.122)" stroke-width=".3985" stroke-linecap="butt" stroke-miterlimit="10" stroke-linejoin="miter" fill="none" stroke="#ff0000" d="M51.59204 59.52933C51.59204 60.62523 50.70367 61.5136 49.60777 61.5136 48.51187 61.5136 47.6235 60.62523 47.6235 59.52933 47.6235 58.43343 48.51187 57.54506 49.60777 57.54506 50.70367 57.54506 51.59204 58.43343 51.59204 59.52933ZM49.60777 59.52933"/>
<path transform="matrix(1,0,0,-1,108.28,120.122)" stroke-width="1.59404" stroke-linecap="butt" stroke-miterlimit="10" stroke-linejoin="miter" fill="none" stroke="#0000ff" d="M49.60777 0H-29.76466"/>
<path transform="matrix(1,0,0,-1,108.28,120.122)" d="M-27.7804 0C-27.7804 1.09589-28.66876 1.98427-29.76466 1.98427-30.86055 1.98427-31.74893 1.09589-31.74893 0-31.74893-1.09589-30.86055-1.98427-29.76466-1.98427-28.66876-1.98427-27.7804-1.09589-27.7804 0ZM-29.76466 0" fill="#0000ff"/>
<path transform="matrix(1,0,0,-1,108.28,120.122)" stroke-width=".3985" stroke-linecap="butt" stroke-miterlimit="10" stroke-linejoin="miter" fill="none" stroke="#0000ff" d="M-27.7804 0C-27.7804 1.09589-28.66876 1.98427-29.76466 1.98427-30.86055 1.98427-31.74893 1.09589-31.74893 0-31.74893-1.09589-30.86055-1.98427-29.76466-1.98427-28.66876-1.98427-27.7804-1.09589-27.7804 0ZM-29.76466 0"/>
<path transform="matrix(1,0,0,-1,108.28,120.122)" d="M51.59204 0C51.59204 1.09589 50.70367 1.98427 49.60777 1.98427 48.51187 1.98427 47.6235 1.09589 47.6235 0 47.6235-1.09589 48.51187-1.98427 49.60777-1.98427 50.70367-1.98427 51.59204-1.09589 51.59204 0ZM49.60777 0" fill="#0000ff"/>
<path transform="matrix(1,0,0,-1,108.28,120.122)" stroke-width=".3985" stroke-linecap="butt" stroke-miterlimit="10" stroke-linejoin="miter" fill="none" stroke="#0000ff" d="M51.59204 0C51.59204 1.09589 50.70367 1.98427 49.60777 1.98427 48.51187 1.98427 47.6235 1.09589 47.6235 0 47.6235-1.09589 48.51187-1.98427 49.60777-1.98427 50.70367-1.98427 51.59204-1.09589 51.59204 0ZM49.60777 0"/>
</svg>
