<svg xmlns="http://www.w3.org/2000/svg" xmlns:xlink="http://www.w3.org/1999/xlink" version="1.1" width="241" height="238" viewBox="0 0 241 238">
<defs>
<path id="font_1_1" d="M.33399964 .30233766C.33999635 .32835389 .36299134 .42037965 .43299867 .42037965 .43798829 .42037965 .46199037 .42037965 .48298646 .40734864 .45498658 .402359 .43499757 .37734986 .43499757 .35334779 .43499757 .33735658 .44599916 .31835938 .47299195 .31835938 .49499513 .31835938 .5269928 .3363495 .5269928 .37635804 .5269928 .42837525 .46798707 .4423828 .43399049 .4423828 .37599183 .4423828 .34098817 .38935853 .32899476 .36634828 .3039856 .43237306 .25 .4423828 .22099304 .4423828 .116989139 .4423828 .05999756 .3133545 .05999756 .28834535 .05999756 .27833558 .069992069 .27833558 .07199097 .27833558 .07998657 .27833558 .08299255 .28033448 .084991458 .28933717 .11898804 .39535523 .18499756 .42037965 .21899414 .42037965 .23799134 .42037965 .272995 .4113617 .272995 .35334779 .272995 .32235719 .2559967 .25532533 .21899414 .11528015 .20298767 .053268434 .16799927 .011245728 .12399292 .011245728 .117996219 .011245728 .09498596 .011245728 .07398987 .024276734 .09899902 .029266358 .12098694 .05027771 .12098694 .07827759 .12098694 .105270389 .09899902 .11328125 .083999637 .11328125 .053985597 .11328125 .0289917 .08728027 .0289917 .055267335 .0289917 .009246826 .07899475-.0107421879 .12298584-.0107421879 .18899536-.0107421879 .22499085 .059280397 .22799683 .0652771 .23999024 .028274537 .27598573-.0107421879 .33599855-.0107421879 .43899537-.0107421879 .49598695 .118270877 .49598695 .14328003 .49598695 .1532898 .4869995 .1532898 .48399354 .1532898 .47499085 .1532898 .47299195 .14929199 .47099305 .14228821 .43798829 .03527832 .36999513 .011245728 .33799745 .011245728 .29899598 .011245728 .2829895 .043273927 .2829895 .07727051 .2829895 .09927368 .2889862 .121276859 .2999878 .16529846L.33399964 .30233766Z"/>
<path id="font_1_2" d="M.48599244 .38136292C.48999024 .39537049 .48999024 .39736939 .48999024 .40437318 .48999024 .42237855 .47599793 .43138124 .46099855 .43138124 .45098878 .43138124 .43499757 .42536927 .42599488 .41036988 .42399598 .405365 .41600038 .37435914 .4119873 .35635377 .40499879 .33035279 .397995 .30334474 .3919983 .27633668L.34700013 .09628296C.34298707 .08126831 .2999878 .011245728 .23399353 .011245728 .18299866 .011245728 .17199707 .055267335 .17199707 .0922699 .17199707 .1382904 .18899536 .20030213 .22299195 .28833009 .23899842 .3293457 .24299622 .3403473 .24299622 .36035157 .24299622 .405365 .21099854 .4423828 .16099549 .4423828 .06599426 .4423828 .0289917 .29733277 .0289917 .28833009 .0289917 .27833558 .038986207 .27833558 .040985109 .27833558 .050994874 .27833558 .051986696 .28033448 .056991579 .29634095 .083999637 .3903656 .12399292 .42037965 .1579895 .42037965 .1659851 .42037965 .18299866 .42037965 .18299866 .3883667 .18299866 .36335755 .17298889 .3373413 .1659851 .31834413 .12599182 .21231079 .10798645 .1552887 .10798645 .10827637 .10798645 .019256592 .17098999-.0107421879 .22999573-.0107421879 .2689972-.0107421879 .30299378 .0062561037 .33099366 .03425598 .31799317-.017745972 .30599977-.06674194 .2659912-.11973572 .23999024-.15385437 .20199585-.18309021 .1559906-.18309021 .14199829-.18309021 .09700012-.18005371 .07998657-.14074707 .09599304-.14074707 .10899353-.14074707 .12298584-.1287384 .1329956-.11973572 .14299011-.10673523 .14299011-.08773804 .14299011-.056747438 .115997318-.052734376 .10598755-.052734376 .08299255-.052734376 .049987794-.068740848 .049987794-.11773682 .049987794-.16796875 .09399414-.20507813 .1559906-.20507813 .25898744-.20507813 .3619995-.11373901 .3899994-.00074768069L.48599244 .38136292Z"/>
<path id="font_2_1" d="M.6589966 .23046875C.6759949 .23046875 .69400027 .23046875 .69400027 .25045777 .69400027 .27046205 .6759949 .27046205 .6589966 .27046205H.117996219C.100997928 .27046205 .08299255 .27046205 .08299255 .25045777 .08299255 .23046875 .100997928 .23046875 .117996219 .23046875H.6589966Z"/>
<path id="font_3_2" d="M.2939911 .64004519C.2939911 .66400149 .2939911 .6660156 .2709961 .6660156 .20899964 .60227969 .12098694 .60227969 .08898926 .60227969V.57128909C.10899353 .57128909 .16799927 .57128909 .21998596 .5972748V.07902527C.21998596 .042999269 .21699524 .0309906 .1269989 .0309906H.09498596V0C.12998963 .0029907227 .21699524 .0029907227 .25698854 .0029907227 .29699708 .0029907227 .38398744 .0029907227 .4189911 0V.0309906H.3869934C.29699708 .0309906 .2939911 .041992189 .2939911 .07902527V.64004519Z"/>
<path id="font_3_1" d="M.45999146 .31976319C.45999146 .39982606 .45498658 .47988893 .41999818 .5539398 .37399293 .65000918 .2919922 .6660156 .25 .6660156 .18998719 .6660156 .116989139 .64001467 .07598877 .54693606 .04399109 .47789 .038986207 .39982606 .038986207 .31976319 .038986207 .24472046 .042999269 .15464783 .083999637 .07859802 .1269989-.0024719239 .19999695-.022460938 .24899292-.022460938 .30299378-.022460938 .3789978-.0014648438 .4229889 .09359741 .45498658 .16265869 .45999146 .2407074 .45999146 .31976319M.24899292-.00047302247C.20999146-.00047302247 .15098572 .024551392 .1329956 .12062073 .12199402 .18066406 .12199402 .2727356 .12199402 .3317871 .12199402 .39582826 .12199402 .46188355 .12998963 .5159149 .14898682 .63500979 .22399903 .64401248 .24899292 .64401248 .28199769 .64401248 .34799195 .6259918 .36698915 .52693179 .3769989 .47088624 .3769989 .39482118 .3769989 .3317871 .3769989 .25672914 .3769989 .18867493 .3659973 .12461853 .35099793 .029556275 .2939911-.00047302247 .24899292-.00047302247Z"/>
<path id="font_3_3" d="M.44898988 .20022583C.44898988 .3193512 .36698915 .41944886 .25898744 .41944886 .21099854 .41944886 .16799927 .40345765 .13198853 .36842347V.5637665C.1519928 .5577698 .18499756 .55078127 .21699524 .55078127 .33999635 .55078127 .4099884 .6417694 .4099884 .6547699 .4099884 .6607666 .40699769 .6657715 .3999939 .6657715 .39898683 .6657715 .39698792 .6657715 .3919983 .66278079 .37199403 .6537781 .32299806 .6337738 .2559967 .6337738 .21598816 .6337738 .16999817 .6407776 .12298584 .6617737 .114990238 .66477969 .11299133 .66477969 .11099243 .66477969 .100997928 .66477969 .100997928 .6567688 .100997928 .6407776V.34439088C.100997928 .32637025 .100997928 .31835938 .114990238 .31835938 .12199402 .31835938 .12399292 .32136537 .12799073 .32736207 .13899231 .3433838 .17599488 .39746095 .25698854 .39746095 .30899049 .39746095 .33399964 .35139466 .34199525 .33337403 .35798646 .29632569 .3600006 .25727845 .3600006 .20722962 .3600006 .17222595 .3600006 .11222839 .33599855 .07035828 .31199647 .031463624 .2749939 .0055389406 .22898865 .0055389406 .1559906 .0055389406 .09899902 .058380128 .08198547 .11723328 .084991458 .1162262 .08799744 .115234378 .09899902 .115234378 .13198853 .115234378 .14898682 .14022827 .14898682 .16423035 .14898682 .18823242 .13198853 .21322632 .09899902 .21322632 .084991458 .21322632 .049987794 .20622254 .049987794 .16023255 .049987794 .07434082 .11898804-.022460938 .23098755-.022460938 .34700013-.022460938 .44898988 .073349 .44898988 .20022583Z"/>
</defs>
<path transform="matrix(1.00005,0,0,-1.00005,150.80588,162.10945)" stroke-width=".3985" stroke-linecap="butt" stroke-miterlimit="10" stroke-linejoin="miter" fill="none" stroke="#00aeef" d="M-141.73404-70.867H70.867M-141.73404-56.69362H70.867M-141.73404-42.5202H70.867M-141.73404-28.3468H70.867M-141.73404-14.17339H70.867M-141.73404 0H70.867M-141.73404 14.17339H70.867M-141.73404 28.3468H70.867M-141.73404 42.5202H70.867M-141.73404 56.69362H70.867M-141.73404 70.867H70.867M-141.73404 85.04042H70.867M-141.73404 99.21382H70.867M-141.73404 113.38724H70.867M-141.73404 127.56062H70.867M-141.73404 141.72905H70.867M-141.73404-70.867V141.73404M-127.56062-70.867V141.73404M-113.38724-70.867V141.73404M-99.21382-70.867V141.73404M-85.04042-70.867V141.73404M-70.867-70.867V141.73404M-56.69362-70.867V141.73404M-42.5202-70.867V141.73404M-28.3468-70.867V141.73404M-14.17339-70.867V141.73404M0-70.867V141.73404M14.17339-70.867V141.73404M28.3468-70.867V141.73404M42.5202-70.867V141.73404M56.69362-70.867V141.73404M70.86205-70.867V141.73404M70.867 141.73404"/>
<path transform="matrix(1.00005,0,0,-1.00005,150.80588,162.10945)" stroke-width=".79701" stroke-linecap="butt" stroke-miterlimit="10" stroke-linejoin="miter" fill="none" stroke="#000000" d="M-141.73404 0H77.93652"/>
<path transform="matrix(1.00005,0,0,-1.00005,228.74629,162.10945)" d="M1.0361 0C-.25902 .25902-1.55415 .77707-3.1083 1.68365-1.55415 .51805-1.55415-.51805-3.1083-1.68365-1.55415-.77707-.25902-.25902 1.0361 0Z"/>
<path transform="matrix(1.00005,0,0,-1.00005,228.74629,162.10945)" stroke-width=".79701" stroke-linecap="butt" stroke-linejoin="round" fill="none" stroke="#000000" d="M1.0361 0C-.25902 .25902-1.55415 .77707-3.1083 1.68365-1.55415 .51805-1.55415-.51805-3.1083-1.68365-1.55415-.77707-.25902-.25902 1.0361 0Z"/>
<use data-text="x" xlink:href="#font_1_1" transform="matrix(9.963098,0,0,-9.963098,233.90003,164.25457)"/>
<path transform="matrix(1.00005,0,0,-1.00005,150.80588,162.10945)" stroke-width=".79701" stroke-linecap="butt" stroke-miterlimit="10" stroke-linejoin="miter" fill="none" stroke="#000000" d="M0-70.867V148.80356"/>
<path transform="matrix(0,-1.00005,-1.00005,-0,150.80588,13.298462)" d="M1.0361 0C-.25902 .25902-1.55415 .77707-3.1083 1.68365-1.55415 .51805-1.55415-.51805-3.1083-1.68365-1.55415-.77707-.25902-.25902 1.0361 0Z"/>
<path transform="matrix(0,-1.00005,-1.00005,-0,150.80588,13.298462)" stroke-width=".79701" stroke-linecap="butt" stroke-linejoin="round" fill="none" stroke="#000000" d="M1.0361 0C-.25902 .25902-1.55415 .77707-3.1083 1.68365-1.55415 .51805-1.55415-.51805-3.1083-1.68365-1.55415-.77707-.25902-.25902 1.0361 0Z"/>
<use data-text="y" xlink:href="#font_1_2" transform="matrix(9.963098,0,0,-9.963098,148.18476,6.207672)"/>
<path transform="matrix(1.00005,0,0,-1.00005,150.80588,162.10945)" stroke-width=".3985" stroke-linecap="butt" stroke-miterlimit="10" stroke-linejoin="miter" fill="none" stroke="#000000" d="M-141.73404 1.4174V-1.41719"/>
<path transform="matrix(1.00005,0,0,-1.00005,150.80588,162.10945)" d="M-151.58614-12.85223H-131.88193V-3.6090003H-151.58614Z" fill="#ffffff"/>
<use data-text="&#x2212;" xlink:href="#font_2_1" transform="matrix(9.963098,0,0,-9.963098,.20835877,173.136)"/>
<use data-text="1" xlink:href="#font_3_2" transform="matrix(9.963098,0,0,-9.963098,7.9577486,173.136)"/>
<use data-text="0" xlink:href="#font_3_1" transform="matrix(9.963098,0,0,-9.963098,12.939285,173.136)"/>
<path transform="matrix(1.00005,0,0,-1.00005,150.80588,162.10945)" stroke-width=".3985" stroke-linecap="butt" stroke-miterlimit="10" stroke-linejoin="miter" fill="none" stroke="#000000" d="M-70.867 1.4174V-1.41719"/>
<path transform="matrix(1.00005,0,0,-1.00005,150.80588,162.10945)" d="M-78.2284-12.85223H-63.505624V-3.6090003H-78.2284Z" fill="#ffffff"/>
<use data-text="&#x2212;" xlink:href="#font_2_1" transform="matrix(9.963098,0,0,-9.963098,73.57001,173.136)"/>
<use data-text="5" xlink:href="#font_3_3" transform="matrix(9.963098,0,0,-9.963098,81.3194,173.136)"/>
<path transform="matrix(1.00005,0,0,-1.00005,150.80588,162.10945)" stroke-width=".3985" stroke-linecap="butt" stroke-miterlimit="10" stroke-linejoin="miter" fill="none" stroke="#000000" d="M70.867 1.4174V-1.41719"/>
<path transform="matrix(1.00005,0,0,-1.00005,150.80588,162.10945)" d="M67.38004-12.02199H74.35398V-3.6090098H67.38004Z" fill="#ffffff"/>
<use data-text="5" xlink:href="#font_3_3" transform="matrix(9.963098,0,0,-9.963098,219.1853,173.136)"/>
<path transform="matrix(1.00005,0,0,-1.00005,150.80588,162.10945)" stroke-width=".3985" stroke-linecap="butt" stroke-miterlimit="10" stroke-linejoin="miter" fill="none" stroke="#000000" d="M1.4174-70.867H-1.41719"/>
<path transform="matrix(1.00005,0,0,-1.00005,150.80588,162.10945)" d="M-18.33179-75.48862H-3.6090108V-66.245388H-18.33179Z" fill="#ffffff"/>
<use data-text="&#x2212;" xlink:href="#font_2_1" transform="matrix(9.963098,0,0,-9.963098,133.46901,235.77513)"/>
<use data-text="5" xlink:href="#font_3_3" transform="matrix(9.963098,0,0,-9.963098,141.2184,235.77513)"/>
<path transform="matrix(1.00005,0,0,-1.00005,150.80588,162.10945)" stroke-width=".3985" stroke-linecap="butt" stroke-miterlimit="10" stroke-linejoin="miter" fill="none" stroke="#000000" d="M1.4174 70.867H-1.41719"/>
<path transform="matrix(1.00005,0,0,-1.00005,150.80588,162.10945)" d="M-10.58295 66.66052H-3.6090098V75.0735H-10.58295Z" fill="#ffffff"/>
<use data-text="5" xlink:href="#font_3_3" transform="matrix(9.963098,0,0,-9.963098,141.2184,94.44907)"/>
<path transform="matrix(1.00005,0,0,-1.00005,150.80588,162.10945)" stroke-width=".3985" stroke-linecap="butt" stroke-miterlimit="10" stroke-linejoin="miter" fill="none" stroke="#000000" d="M1.4174 141.73404H-1.41719"/>
<path transform="matrix(1.00005,0,0,-1.00005,150.80588,162.10945)" d="M-15.56436 137.52754H-3.6090193V145.94052H-15.56436Z" fill="#ffffff"/>
<use data-text="1" xlink:href="#font_3_2" transform="matrix(9.963098,0,0,-9.963098,136.23715,23.578537)"/>
<use data-text="0" xlink:href="#font_3_1" transform="matrix(9.963098,0,0,-9.963098,141.2187,23.578537)"/>
<path transform="matrix(1.00005,0,0,-1.00005,150.80588,162.10945)" stroke-width="1.19553" stroke-linecap="butt" stroke-miterlimit="10" stroke-linejoin="miter" fill="none" stroke="#ff0000" d="M-122.06728 139.96973C-120.88673 136.66289-120.88673 136.66289-120.19148 134.75785-119.49622 132.8528-118.38127 129.84691-117.686 128.00333-116.99075 126.15973-115.87578 123.25262-115.18053 121.47049-114.48528 119.68835-113.37032 116.87958-112.67505 115.1589-111.9798 113.43822-110.86482 110.72821-110.16959 109.06898-109.47432 107.40976-108.35936 104.79808-107.6641 103.20032-106.96886 101.60254-105.85388 99.08961-105.15863 97.55331-104.46336 96.01698-103.34839 93.60242-102.65315 92.12755-101.95789 90.6527-100.84293 88.33688-100.14766 86.92348-99.45241 85.51006-98.33743 83.29262-97.6422 81.94063-96.94693 80.58864-95.83197 78.46979-95.1367 77.17924-94.44147 75.88872-93.32649 73.86838-92.63124 72.63933-91.93597 71.41028-90.82101 69.4887-90.12576 68.32109-89.43051 67.1535-88.31554 65.33026-87.62029 64.22409-86.92503 63.11792-85.81007 61.39328-85.1148 60.34854-84.41956 59.30383-83.30458 57.67773-82.60933 56.69446-81.91408 55.7112-80.79912 54.18365-80.10385 53.26184-79.4086 52.34004-78.29362 50.91104-77.59839 50.05067-76.90312 49.19032-75.78816 47.85988-75.0929 47.06099-74.39766 46.26207-73.28268 45.03018-72.58743 44.29274-71.89217 43.55528-70.7772 42.42195-70.08195 41.74596-69.3867 41.06996-68.27173 40.0352-67.57648 39.42064-66.88121 38.80606-65.76627 37.86967-65.071 37.31654-64.37575 36.76344-63.26077 35.92578-62.56552 35.43414-61.87027 34.94252-60.75531 34.20341-60.06004 33.7732-59.36479 33.34299-58.24982 32.70224-57.55458 32.3335-56.85931 31.96475-55.74435 31.42274-55.04909 31.11548-54.35385 30.8082-53.23888 30.36475-52.54362 30.1189-51.84836 29.87305-50.7334 29.52797-50.03815 29.34358-49.3429 29.15918-48.22792 28.91286-47.53267 28.78993-46.8374 28.66699-45.72246 28.519-45.02719 28.45752-44.33194 28.39604-43.21696 28.34682-42.52171 28.3468-41.82646 28.34677-40.7115 28.39592-40.01624 28.4573-39.32098 28.5187-38.20601 28.66644-37.51077 28.78929-36.8155 28.91214-35.70055 29.15837-35.00528 29.34271-34.31004 29.52704-33.19507 29.87202-32.49982 30.11781-31.80455 30.3636-30.68959 30.80698-29.99434 31.11417-29.29909 31.42139-28.18411 31.96332-27.48885 32.33199-26.7936 32.70065-25.67862 33.34114-24.98338 33.77126-24.28812 34.20137-23.17316 34.94041-22.47789 35.43199-21.78265 35.92355-20.66768 36.76114-19.97243 37.31418-19.27716 37.86719-18.1622 38.80334-17.46695 39.41783-16.7717 40.0323-15.65672 41.067-14.96147 41.74292-14.26622 42.41887-13.15126 43.55211-12.456 44.28949-11.76074 45.02689-10.64577 46.25868-9.95052 47.05753-9.25526 47.85637-8.1403 49.18674-7.44504 50.047-6.74979 50.90727-5.63481 52.33603-4.93958 53.25774-4.24431 54.17946-3.12935 55.70694-2.43408 56.69014-1.73885 57.67336-.62389 59.29935 .07135 60.34401 .76662 61.38867 1.88158 63.11325 2.57683 64.21933 3.27208 65.32542 4.38705 67.14836 5.0823 68.3159 5.77757 69.48343 6.89252 71.40517 7.58778 72.63416 8.28304 73.86314 9.39801 75.8832 10.09326 77.17363 10.78851 78.46408 11.90347 80.5829 12.59874 81.9348 13.29399 83.2867 14.40897 85.50385 15.1042 86.91719 15.79947 88.33054 16.91443 90.64647 17.6097 92.12128 18.30493 93.59608 19.4199 96.01036 20.11516 97.5466 20.81042 99.08282 21.92538 101.5957 22.62064 103.19337 23.31589 104.79106 24.43086 107.40245 25.12611 109.06163 25.82138 110.7208 26.93633 113.43092 27.63159 115.15155 28.32684 116.87216 29.44182 119.68066 30.13707 121.4627 30.83232 123.24475 31.94728 126.15182 32.64255 127.99533 33.3378 129.83882 34.45277 132.84445 35.14801 134.74942 35.84328 136.65436 37.6535 141.72495 37.02382 139.96108"/>
<path transform="matrix(-.33621679,-.941787,-.941787,.33621679,28.732522,22.132737)" d="M1.27522 0C-.31879 .31879-1.91284 .9564-3.8257 2.07224-1.91284 .6376-1.91284-.6376-3.8257-2.07224-1.91284-.9564-.31879-.31879 1.27522 0Z" fill="#ff0000"/>
<path transform="matrix(-.33621679,-.941787,-.941787,.33621679,28.732522,22.132737)" stroke-width="1.19553" stroke-linecap="butt" stroke-linejoin="round" fill="none" stroke="#ff0000" d="M1.27522 0C-.31879 .31879-1.91284 .9564-3.8257 2.07224-1.91284 .6376-1.91284-.6376-3.8257-2.07224-1.91284-.9564-.31879-.31879 1.27522 0Z"/>
<path transform="matrix(.33621679,-.941787,-.941787,-.33621679,187.83153,22.141388)" d="M1.27522 0C-.31879 .31879-1.91284 .9564-3.8257 2.07224-1.91284 .6376-1.91284-.6376-3.8257-2.07224-1.91284-.9564-.31879-.31879 1.27522 0Z" fill="#ff0000"/>
<path transform="matrix(.33621679,-.941787,-.941787,-.33621679,187.83153,22.141388)" stroke-width="1.19553" stroke-linecap="butt" stroke-linejoin="round" fill="none" stroke="#ff0000" d="M1.27522 0C-.31879 .31879-1.91284 .9564-3.8257 2.07224-1.91284 .6376-1.91284-.6376-3.8257-2.07224-1.91284-.9564-.31879-.31879 1.27522 0Z"/>
</svg>
