<svg xmlns="http://www.w3.org/2000/svg" xmlns:xlink="http://www.w3.org/1999/xlink" version="1.1" width="132" height="209" viewBox="0 0 132 209">
<defs>
<path id="font_1_2" d="M.20599365 .3996582H.2999878C.31999208 .3996582 .32998658 .3996582 .32998658 .41966249 .32998658 .43066407 .31999208 .43066407 .3019867 .43066407H.21398926C.25 .5724945 .25498963 .59246829 .25498963 .59846499 .25498963 .61546328 .24299622 .62545779 .22599793 .62545779 .22299195 .62545779 .19499207 .62446597 .18598938 .58947756L.14698792 .43066407H.052993776C.032989503 .43066407 .022994996 .43066407 .022994996 .4116516 .022994996 .3996582 .0309906 .3996582 .050994874 .3996582H.13899231C.066986087 .11608887 .06298828 .099121097 .06298828 .08114624 .06298828 .02722168 .100997928-.0107421879 .15499878-.0107421879 .25698854-.0107421879 .31399537 .13505554 .31399537 .14305115 .31399537 .1530304 .30599977 .1530304 .3019867 .1530304 .29299928 .1530304 .2919922 .15003968 .2869873 .13905335 .24398804 .035217287 .19099427 .011245728 .15699768 .011245728 .13598633 .011245728 .12599182 .024230957 .12599182 .057174684 .12599182 .08114624 .12799073 .088134769 .13198853 .10510254L.20599365 .3996582Z"/>
<path id="font_1_1" d="M.30299378 .3157959H.47299195C.61499026 .3157959 .7539978 .41973878 .7539978 .53167727 .7539978 .6086273 .6879883 .6826172 .5569916 .6826172H.23298645C.21398926 .6826172 .20298767 .6826172 .20298767 .66360476 .20298767 .6516113 .21199036 .6516113 .23199463 .6516113 .24499512 .6516113 .2630005 .65060427 .2749939 .6496124 .29100038 .6476135 .29699708 .64460757 .29699708 .6336212 .29699708 .6296234 .29599 .62661746 .29299928 .614624L.15899658 .07795715C.14898682 .038986207 .14698792 .0309906 .067993167 .0309906 .050994874 .0309906 .039993287 .0309906 .039993287 .011993408 .039993287 0 .051986696 0 .054992677 0 .08299255 0 .1539917 .0029907227 .18199158 .0029907227 .20298767 .0029907227 .22499085 .0019989014 .24598694 .0019989014 .2679901 .0019989014 .2899933 0 .31098939 0 .31799317 0 .33099366 0 .33099366 .019989014 .33099366 .0309906 .32199098 .0309906 .30299378 .0309906 .2659912 .0309906 .23799134 .0309906 .23799134 .048980714 .23799134 .054977418 .23999024 .05996704 .24099732 .065963748L.30299378 .3157959M.375 .6136322C.38398744 .64860537 .38598634 .6516113 .42900086 .6516113H.5249939C.60798647 .6516113 .6609955 .62461856 .6609955 .55566409 .6609955 .5166931 .6409912 .43074037 .60198977 .39476014 .5519867 .34977723 .49198915 .34179688 .44799806 .34179688H.30699159L.375 .6136322Z"/>
<path id="font_2_4" d="M.2899933 .35191346C.37199403 .37893678 .42999269 .4490509 .42999269 .52809146 .42999269 .6100464 .34199525 .6660156 .24598694 .6660156 .14498902 .6660156 .068984989 .60606387 .068984989 .53009036 .068984989 .49710084 .09098816 .47808839 .11999512 .47808839 .15098572 .47808839 .17098999 .50009158 .17098999 .5290985 .17098999 .57910159 .12399292 .57910159 .10899353 .57910159 .13999939 .62802127 .20599365 .64100649 .24198914 .64100649 .2829895 .64100649 .33799745 .6190338 .33799745 .5290985 .33799745 .51708987 .33599855 .45906068 .30999757 .4149933 .27999879 .36691285 .24598694 .36390687 .22099304 .36291505 .21299744 .36190797 .18899536 .35990907 .18199158 .35990907 .17399597 .35890199 .16699219 .35791017 .16699219 .3479004 .16699219 .33691407 .17399597 .33691407 .19099427 .33691407H.23498535C.31698609 .33691407 .35398866 .2686615 .35398866 .17037964 .35398866 .034469606 .2849884 .0055389406 .24099732 .0055389406 .19799805 .0055389406 .12298584 .022491456 .08799744 .08137512 .12298584 .07637024 .1539917 .09837341 .1539917 .1363678 .1539917 .17237854 .1269989 .19238281 .09799194 .19238281 .07398987 .19238281 .041992189 .17837525 .041992189 .1343689 .041992189 .043441774 .1349945-.022460938 .24398804-.022460938 .3659973-.022460938 .45700074 .06838989 .45700074 .17037964 .45700074 .252594 .3939972 .33088685 .2899933 .35191346Z"/>
<path id="font_2_6" d="M.13198853 .327713V.35173036C.13198853 .6047821 .2559967 .64100649 .30699159 .64100649 .33099366 .64100649 .37298585 .634964 .394989 .6007538 .37998963 .6007538 .33999635 .6007538 .33999635 .5557556 .33999635 .524765 .3639984 .5097656 .38598634 .5097656 .4019928 .5097656 .43199159 .51875308 .43199159 .5577545 .43199159 .6178589 .3880005 .6660156 .30499269 .6660156 .1769867 .6660156 .041992189 .5367584 .041992189 .31570436 .041992189 .048553468 .1579895-.022460938 .25099183-.022460938 .3619995-.022460938 .45700074 .07156372 .45700074 .2036438 .45700074 .33070375 .36799623 .4267578 .25698854 .4267578 .18899536 .4267578 .1519928 .37573243 .13198853 .327713M.25099183 .0055389406C.18798828 .0055389406 .1579895 .06556702 .1519928 .080566409 .13398743 .127594 .13398743 .2076416 .13398743 .22564698 .13398743 .30369569 .1659851 .40374757 .2559967 .40374757 .27198792 .40374757 .31799317 .40374757 .34899903 .34172059 .36698915 .30470277 .36698915 .2536621 .36698915 .20463562 .36698915 .15661621 .36698915 .10658264 .34999085 .0705719 .31999208 .010528564 .27398683 .0055389406 .25099183 .0055389406Z"/>
<path id="font_2_8" d="M.36698915 .31781007V.28579713C.36698915 .05178833 .2630005 .0055389406 .20498657 .0055389406 .18798828 .0055389406 .13398743 .007537842 .10699463 .041778566 .15098572 .041778566 .15899658 .07078552 .15899658 .08778381 .15899658 .118774417 .1349945 .13378906 .11299133 .13378906 .09700012 .13378906 .066986087 .12478638 .066986087 .08578491 .066986087 .018615723 .12098694-.022460938 .20599365-.022460938 .33499146-.022460938 .45700074 .11378479 .45700074 .32881166 .45700074 .5979767 .34199525 .6660156 .25299073 .6660156 .19799805 .6660156 .14898682 .64801028 .10598755 .60298159 .06498718 .5579529 .041992189 .5159302 .041992189 .44088746 .041992189 .31581117 .12998963 .21777344 .24198914 .21777344 .30299378 .21777344 .34399415 .25978089 .36698915 .31781007M.24299622 .24076844C.22698975 .24076844 .18099976 .24076844 .1499939 .3038025 .13198853 .3408203 .13198853 .39085389 .13198853 .43988038 .13198853 .49391175 .13198853 .54093936 .15299988 .5779724 .17999268 .6279907 .21798706 .64100649 .25299073 .64100649 .29899598 .64100649 .33198548 .60697939 .34899903 .5619507 .36099244 .52993777 .36499024 .4669037 .36499024 .42086793 .36499024 .3378296 .33099366 .24076844 .24299622 .24076844Z"/>
<path id="font_2_3" d="M.1269989 .07699585 .23298645 .18003845C.3889923 .31811524 .44898988 .3721466 .44898988 .47216798 .44898988 .5860901 .35899354 .6660156 .23699951 .6660156 .12399292 .6660156 .049987794 .57411196 .049987794 .48516847 .049987794 .4291687 .099990848 .4291687 .102996829 .4291687 .11999512 .4291687 .15499878 .44117738 .15499878 .48217774 .15499878 .5081787 .13699341 .5341797 .101989749 .5341797 .09399414 .5341797 .09199524 .5341797 .08898926 .5331726 .11199951 .59806826 .1659851 .63500979 .22399903 .63500979 .31498719 .63500979 .35798646 .5541382 .35798646 .47216798 .35798646 .39215089 .30799867 .31311036 .25299073 .25108338L.06098938 .036987306C.049987794 .025985718 .049987794 .023986817 .049987794 0H.42099L.44898988 .17404175H.42399598C.4189911 .14402771 .4119873 .1000061 .4019928 .084991458 .394989 .07699585 .32899476 .07699585 .30699159 .07699585H.1269989Z"/>
<path id="font_2_1" d="M.45999146 .31976319C.45999146 .39982606 .45498658 .47988893 .41999818 .5539398 .37399293 .65000918 .2919922 .6660156 .25 .6660156 .18998719 .6660156 .116989139 .64001467 .07598877 .54693606 .04399109 .47789 .038986207 .39982606 .038986207 .31976319 .038986207 .24472046 .042999269 .15464783 .083999637 .07859802 .1269989-.0024719239 .19999695-.022460938 .24899292-.022460938 .30299378-.022460938 .3789978-.0014648438 .4229889 .09359741 .45498658 .16265869 .45999146 .2407074 .45999146 .31976319M.24899292-.00047302247C.20999146-.00047302247 .15098572 .024551392 .1329956 .12062073 .12199402 .18066406 .12199402 .2727356 .12199402 .3317871 .12199402 .39582826 .12199402 .46188355 .12998963 .5159149 .14898682 .63500979 .22399903 .64401248 .24899292 .64401248 .28199769 .64401248 .34799195 .6259918 .36698915 .52693179 .3769989 .47088624 .3769989 .39482118 .3769989 .3317871 .3769989 .25672914 .3769989 .18867493 .3659973 .12461853 .35099793 .029556275 .2939911-.00047302247 .24899292-.00047302247Z"/>
<path id="font_2_5" d="M.2939911 .16503906V.07800293C.2939911 .041992189 .2919922 .0309906 .21798706 .0309906H.19699097V0C.23799134 .0029907227 .2899933 .0029907227 .33198548 .0029907227 .37399293 .0029907227 .4269867 .0029907227 .46798707 0V.0309906H.44699098C.37298585 .0309906 .37098695 .041992189 .37098695 .07800293V.16503906H.47099305V.19602967H.37098695V.65075686C.37098695 .67074587 .37098695 .6767578 .35499574 .6767578 .34599305 .6767578 .34298707 .6767578 .33499146 .66474917L.027999878 .19602967V.16503906H.2939911M.2999878 .19602967H.055999757L.2999878 .5688019V.19602967Z"/>
<path id="font_2_7" d="M.16299439 .4569702C.116989139 .486969 .11299133 .52098086 .11299133 .5379791 .11299133 .598999 .17799378 .64100649 .24899292 .64100649 .32199098 .64100649 .38598634 .58898928 .38598634 .51698306 .38598634 .45996095 .34700013 .4119568 .2869873 .37695313L.16299439 .4569702M.30899049 .36193849C.3809967 .3989563 .42999269 .45095826 .42999269 .51698306 .42999269 .6090088 .34098817 .6660156 .25 .6660156 .1499939 .6660156 .068984989 .59199526 .068984989 .49897767 .068984989 .4809723 .070999149 .43595887 .11299133 .38894654 .12399292 .37695313 .16099549 .35194398 .18598938 .33494569 .12799073 .30592347 .041992189 .24984741 .041992189 .15072632 .041992189 .04458618 .14399719-.022460938 .24899292-.022460938 .3619995-.022460938 .45700074 .06060791 .45700074 .16773987 .45700074 .20379639 .44599916 .24885559 .4079895 .2909088 .3889923 .31193543 .37298585 .3219452 .30899049 .36193849M.20899964 .3199463 .33198548 .24183655C.3600006 .2228241 .40699769 .19277954 .40699769 .13169861 .40699769 .05760193 .33198548 .0055389406 .25 .0055389406 .1639862 .0055389406 .09199524 .067611698 .09199524 .15072632 .09199524 .20880127 .12399292 .27288819 .20899964 .3199463Z"/>
<path id="font_2_2" d="M.2939911 .64004519C.2939911 .66400149 .2939911 .6660156 .2709961 .6660156 .20899964 .60227969 .12098694 .60227969 .08898926 .60227969V.57128909C.10899353 .57128909 .16799927 .57128909 .21998596 .5972748V.07902527C.21998596 .042999269 .21699524 .0309906 .1269989 .0309906H.09498596V0C.12998963 .0029907227 .21699524 .0029907227 .25698854 .0029907227 .29699708 .0029907227 .38398744 .0029907227 .4189911 0V.0309906H.3869934C.29699708 .0309906 .2939911 .041992189 .2939911 .07902527V.64004519Z"/>
</defs>
<path transform="matrix(1.00005,0,0,-1.00003,20.244355,195.3825)" stroke-width=".3985" stroke-linecap="butt" stroke-miterlimit="10" stroke-linejoin="miter" fill="none" stroke="#00aeef" d="M0 0H102.04694M0 11.33855H102.04694M0 22.6771H102.04694M0 34.01564H102.04694M0 45.35419H102.04694M0 56.69275H102.04694M0 68.0313H102.04694M0 79.36984H102.04694M0 90.70839H102.04694M0 102.04694H102.04694M0 113.3855H102.04694M0 124.72404H102.04694M0 136.06259H102.04694M0 147.40114H102.04694M0 158.7397H102.04694M0 170.07825H102.04694M0 181.41281H102.04694M0 0V181.4168M11.33855 0V181.4168M22.6771 0V181.4168M34.01564 0V181.4168M45.35419 0V181.4168M56.69275 0V181.4168M68.0313 0V181.4168M79.36984 0V181.4168M90.70839 0V181.4168M102.04295 0V181.4168M102.04694 181.4168"/>
<path transform="matrix(1.00005,0,0,-1.00003,20.244355,195.3825)" stroke-width=".79701" stroke-linecap="butt" stroke-miterlimit="10" stroke-linejoin="miter" fill="none" stroke="#000000" d="M0 0H107.41553"/>
<path transform="matrix(1.00005,0,0,-1.00003,127.665248,195.3825)" d="M1.0361 0C-.25902 .25902-1.55415 .77707-3.1083 1.68365-1.55415 .51805-1.55415-.51805-3.1083-1.68365-1.55415-.77707-.25902-.25902 1.0361 0Z"/>
<path transform="matrix(1.00005,0,0,-1.00003,127.665248,195.3825)" stroke-width=".79701" stroke-linecap="butt" stroke-linejoin="round" fill="none" stroke="#000000" d="M1.0361 0C-.25902 .25902-1.55415 .77707-3.1083 1.68365-1.55415 .51805-1.55415-.51805-3.1083-1.68365-1.55415-.77707-.25902-.25902 1.0361 0Z"/>
<use data-text="t" xlink:href="#font_1_2" transform="matrix(9.963098,0,0,-9.962899,127.300708,191.66339)"/>
<path transform="matrix(1.00005,0,0,-1.00003,20.244355,195.3825)" stroke-width=".79701" stroke-linecap="butt" stroke-miterlimit="10" stroke-linejoin="miter" fill="none" stroke="#000000" d="M0 0V186.78539"/>
<path transform="matrix(0,-1.00003,-1.00005,-0,20.244355,8.591507)" d="M1.0361 0C-.25902 .25902-1.55415 .77707-3.1083 1.68365-1.55415 .51805-1.55415-.51805-3.1083-1.68365-1.55415-.77707-.25902-.25902 1.0361 0Z"/>
<path transform="matrix(0,-1.00003,-1.00005,-0,20.244355,8.591507)" stroke-width=".79701" stroke-linecap="butt" stroke-linejoin="round" fill="none" stroke="#000000" d="M1.0361 0C-.25902 .25902-1.55415 .77707-3.1083 1.68365-1.55415 .51805-1.55415-.51805-3.1083-1.68365-1.55415-.77707-.25902-.25902 1.0361 0Z"/>
<use data-text="P" xlink:href="#font_1_1" transform="matrix(9.963098,0,0,-9.962899,8.7447819,7.725876)"/>
<path transform="matrix(1.00005,0,0,-1.00003,20.244355,195.3825)" stroke-width=".79701" stroke-linecap="butt" stroke-miterlimit="10" stroke-linejoin="miter" fill="none" stroke="#000000" d="M34.01564 1.7007V-1.70087"/>
<path transform="matrix(1.00005,0,0,-1.00003,20.244355,195.3825)" d="M30.52867-12.50491H37.50261V-4.0919306H30.52867Z" fill="#ffffff"/>
<use data-text="3" xlink:href="#font_2_4" transform="matrix(9.963098,0,0,-9.962899,51.770929,206.89185)"/>
<path transform="matrix(1.00005,0,0,-1.00003,20.244355,195.3825)" stroke-width=".79701" stroke-linecap="butt" stroke-miterlimit="10" stroke-linejoin="miter" fill="none" stroke="#000000" d="M68.0313 1.7007V-1.70087"/>
<path transform="matrix(1.00005,0,0,-1.00003,20.244355,195.3825)" d="M64.54433-12.50491H71.518268V-4.0919306H64.54433Z" fill="#ffffff"/>
<use data-text="6" xlink:href="#font_2_6" transform="matrix(9.963098,0,0,-9.962899,85.78863,206.89185)"/>
<path transform="matrix(1.00005,0,0,-1.00003,20.244355,195.3825)" stroke-width=".79701" stroke-linecap="butt" stroke-miterlimit="10" stroke-linejoin="miter" fill="none" stroke="#000000" d="M102.04694 1.7007V-1.70087"/>
<path transform="matrix(1.00005,0,0,-1.00003,20.244355,195.3825)" d="M98.55997-12.50491H105.533908V-4.0919306H98.55997Z" fill="#ffffff"/>
<use data-text="9" xlink:href="#font_2_8" transform="matrix(9.963098,0,0,-9.962899,119.80533,206.89185)"/>
<path transform="matrix(1.00005,0,0,-1.00003,20.244355,195.3825)" stroke-width=".79701" stroke-linecap="butt" stroke-miterlimit="10" stroke-linejoin="miter" fill="none" stroke="#000000" d="M1.7007 22.6771H-1.70087"/>
<path transform="matrix(1.00005,0,0,-1.00003,20.244355,195.3825)" d="M-16.04727 18.4706H-4.0919296V26.88358H-16.04727Z" fill="#ffffff"/>
<use data-text="2" xlink:href="#font_2_3" transform="matrix(9.963098,0,0,-9.962899,5.192604,175.91492)"/>
<use data-text="0" xlink:href="#font_2_1" transform="matrix(9.963098,0,0,-9.962899,10.174156,175.91492)"/>
<path transform="matrix(1.00005,0,0,-1.00003,20.244355,195.3825)" stroke-width=".79701" stroke-linecap="butt" stroke-miterlimit="10" stroke-linejoin="miter" fill="none" stroke="#000000" d="M1.7007 45.35419H-1.70087"/>
<path transform="matrix(1.00005,0,0,-1.00003,20.244355,195.3825)" d="M-16.04727 41.14769H-4.0919296V49.56067H-16.04727Z" fill="#ffffff"/>
<use data-text="4" xlink:href="#font_2_5" transform="matrix(9.963098,0,0,-9.962899,5.192604,153.23725)"/>
<use data-text="0" xlink:href="#font_2_1" transform="matrix(9.963098,0,0,-9.962899,10.174156,153.23725)"/>
<path transform="matrix(1.00005,0,0,-1.00003,20.244355,195.3825)" stroke-width=".79701" stroke-linecap="butt" stroke-miterlimit="10" stroke-linejoin="miter" fill="none" stroke="#000000" d="M1.7007 68.0313H-1.70087"/>
<path transform="matrix(1.00005,0,0,-1.00003,20.244355,195.3825)" d="M-16.04727 63.8248H-4.0919296V72.23778H-16.04727Z" fill="#ffffff"/>
<use data-text="6" xlink:href="#font_2_6" transform="matrix(9.963098,0,0,-9.962899,5.192604,130.55957)"/>
<use data-text="0" xlink:href="#font_2_1" transform="matrix(9.963098,0,0,-9.962899,10.174156,130.55957)"/>
<path transform="matrix(1.00005,0,0,-1.00003,20.244355,195.3825)" stroke-width=".79701" stroke-linecap="butt" stroke-miterlimit="10" stroke-linejoin="miter" fill="none" stroke="#000000" d="M1.7007 90.70839H-1.70087"/>
<path transform="matrix(1.00005,0,0,-1.00003,20.244355,195.3825)" d="M-16.04727 86.50189H-4.0919296V94.91487H-16.04727Z" fill="#ffffff"/>
<use data-text="8" xlink:href="#font_2_7" transform="matrix(9.963098,0,0,-9.962899,5.192604,107.881877)"/>
<use data-text="0" xlink:href="#font_2_1" transform="matrix(9.963098,0,0,-9.962899,10.174156,107.881877)"/>
<path transform="matrix(1.00005,0,0,-1.00003,20.244355,195.3825)" stroke-width=".79701" stroke-linecap="butt" stroke-miterlimit="10" stroke-linejoin="miter" fill="none" stroke="#000000" d="M1.7007 113.3855H-1.70087"/>
<path transform="matrix(1.00005,0,0,-1.00003,20.244355,195.3825)" d="M-21.02866 109.179H-4.09194V117.59198H-21.02866Z" fill="#ffffff"/>
<use data-text="1" xlink:href="#font_2_2" transform="matrix(9.963098,0,0,-9.962899,.21134949,85.20419)"/>
<use data-text="0" xlink:href="#font_2_1" transform="matrix(9.963098,0,0,-9.962899,5.1929018,85.20419)"/>
<use data-text="0" xlink:href="#font_2_1" transform="matrix(9.963098,0,0,-9.962899,10.174446,85.20419)"/>
<path transform="matrix(1.00005,0,0,-1.00003,20.244355,195.3825)" stroke-width=".79701" stroke-linecap="butt" stroke-miterlimit="10" stroke-linejoin="miter" fill="none" stroke="#000000" d="M1.7007 136.06259H-1.70087"/>
<path transform="matrix(1.00005,0,0,-1.00003,20.244355,195.3825)" d="M-21.02866 131.8561H-4.09194V140.26908H-21.02866Z" fill="#ffffff"/>
<use data-text="1" xlink:href="#font_2_2" transform="matrix(9.963098,0,0,-9.962899,.21134949,62.526506)"/>
<use data-text="2" xlink:href="#font_2_3" transform="matrix(9.963098,0,0,-9.962899,5.1929018,62.526506)"/>
<use data-text="0" xlink:href="#font_2_1" transform="matrix(9.963098,0,0,-9.962899,10.174446,62.526506)"/>
<path transform="matrix(1.00005,0,0,-1.00003,20.244355,195.3825)" stroke-width=".79701" stroke-linecap="butt" stroke-miterlimit="10" stroke-linejoin="miter" fill="none" stroke="#000000" d="M1.7007 158.7397H-1.70087"/>
<path transform="matrix(1.00005,0,0,-1.00003,20.244355,195.3825)" d="M-21.02866 154.5332H-4.09194V162.94618H-21.02866Z" fill="#ffffff"/>
<use data-text="1" xlink:href="#font_2_2" transform="matrix(9.963098,0,0,-9.962899,.21134949,39.84883)"/>
<use data-text="4" xlink:href="#font_2_5" transform="matrix(9.963098,0,0,-9.962899,5.1929018,39.84883)"/>
<use data-text="0" xlink:href="#font_2_1" transform="matrix(9.963098,0,0,-9.962899,10.174446,39.84883)"/>
<path transform="matrix(1.00005,0,0,-1.00003,20.244355,195.3825)" stroke-width=".79701" stroke-linecap="butt" stroke-miterlimit="10" stroke-linejoin="miter" fill="none" stroke="#000000" d="M1.7007 181.4168H-1.70087"/>
<path transform="matrix(1.00005,0,0,-1.00003,20.244355,195.3825)" d="M-21.02866 177.21031H-4.09194V185.62329H-21.02866Z" fill="#ffffff"/>
<use data-text="1" xlink:href="#font_2_2" transform="matrix(9.963098,0,0,-9.962899,.21134949,17.17015)"/>
<use data-text="6" xlink:href="#font_2_6" transform="matrix(9.963098,0,0,-9.962899,5.1929018,17.17015)"/>
<use data-text="0" xlink:href="#font_2_1" transform="matrix(9.963098,0,0,-9.962899,10.174446,17.17015)"/>
<path transform="matrix(1.00005,0,0,-1.00003,20.244355,195.3825)" stroke-width="1.19553" stroke-linecap="butt" stroke-miterlimit="10" stroke-linejoin="miter" fill="none" stroke="#ff0000" d="M0 22.6771C0 22.6771 1.152 23.21439 1.59447 23.42554 2.03693 23.63669 2.74649 23.9807 3.18893 24.1989 3.63141 24.4171 4.34097 24.77286 4.78343 24.99821 5.2259 25.22359 5.93546 25.5904 6.3779 25.82314 6.82037 26.0559 7.52994 26.43527 7.9724 26.67575 8.41487 26.91621 9.12442 27.30788 9.56688 27.5564 10.00934 27.80489 10.7189 28.21007 11.16136 28.46678 11.60384 28.72348 12.31339 29.14156 12.75584 29.40657 13.1983 29.6716 13.90787 30.10294 14.35034 30.37683 14.7928 30.65074 15.50237 31.09763 15.94481 31.38065 16.38728 31.66368 17.09683 32.12447 17.5393 32.41664 17.98177 32.70885 18.69133 33.18462 19.13377 33.48656 19.57625 33.7885 20.28581 34.28088 20.72827 34.5928 21.17075 34.90472 21.8803 35.4126 22.32274 35.7347 22.76521 36.0568 23.47478 36.58133 23.91724 36.91429 24.35971 37.24724 25.06926 37.79044 25.51172 38.13437 25.95418 38.47832 26.66374 39.03813 27.1062 39.39322 27.54868 39.7483 28.25822 40.32663 28.70068 40.69357 29.14314 41.0605 29.8527 41.6588 30.29518 42.03789 30.73763 42.41696 31.4472 43.03432 31.88965 43.42578 32.33212 43.81726 33.04167 44.45499 33.48415 44.85938 33.92659 45.26376 34.63617 45.9224 35.07861 46.34035 35.52109 46.75833 36.23065 47.44022 36.67311 47.87186 37.11557 48.30351 37.82513 49.00574 38.26758 49.45146 38.71005 49.89719 39.41962 50.6238 39.86208 51.08435 40.30453 51.54492 41.0141 52.29506 41.45656 52.77089 41.89902 53.24672 42.60858 54.02225 43.05104 54.51381 43.4935 55.00539 44.20306 55.80608 44.64552 56.31384 45.08798 56.8216 45.79755 57.64906 46.24002 58.17337 46.68246 58.69771 47.39204 59.55104 47.83449 60.09277 48.27696 60.63452 48.98651 61.51784 49.42899 62.07793 49.87143 62.63802 50.58101 63.55118 51.02345 64.1295 51.46593 64.70784 52.17548 65.6489 52.61795 66.24614 53.0604 66.8434 53.76997 67.81708 54.21242 68.43405 54.65489 69.05104 55.36444 70.05557 55.80692 70.69292 56.24936 71.33026 56.95894 72.36903 57.4014 73.02754 57.84386 73.68605 58.55342 74.75888 58.99588 75.439 59.43834 76.11911 60.1479 77.22656 60.59036 77.92934 61.03282 78.63211 61.74239 79.7781 62.18484 80.5041 62.6273 81.23012 63.33688 82.41235 63.77933 83.16193 64.2218 83.91151 64.93135 85.13205 65.37381 85.9066 65.81627 86.68114 66.52585 87.94408 66.96829 88.74435 67.41077 89.54463 68.12032 90.84796 68.56279 91.67448 69.00523 92.50104 69.71481 93.84766 70.15726 94.70152 70.59973 95.55539 71.30928 96.9465 71.75175 97.82855 72.1942 98.71059 72.90378 100.14745 73.34624 101.05869 73.7887 101.96992 74.49826 103.45477 74.94072 104.39612 75.38318 105.33743 76.09273 106.87067 76.5352 107.8432 76.97766 108.81573 77.68723 110.40102 78.12968 111.40553 78.57214 112.41005 79.28171 114.04544 79.72417 115.08308 80.16664 116.12074 80.87619 117.8123 81.31865 118.88417 81.76111 119.95605 82.47067 121.70128 82.91313 122.80844 83.3556 123.9156 84.06516 125.72002 84.50763 126.86386 84.95007 128.0077 85.65964 129.87078 86.1021 131.05249 86.54457 132.23423 87.25412 134.16022 87.6966 135.38092 88.13904 136.60163 88.8486 138.58945 89.29108 139.85053 89.73354 141.11162 90.4431 143.16754 90.88556 144.46996 91.32802 145.77239 92.03757 147.89202 92.48004 149.23749 92.9225 150.583 93.63206 152.77724 94.07452 154.16732 94.51698 155.55742 95.22655 157.82051 95.669 159.25632 96.11148 160.6921 96.82103 163.03208 97.26349 164.51555 97.70595 165.99901 98.41551 168.41551 98.85797 169.94814 99.30045 171.48078 100.01 173.97046 100.45247 175.5617 100.89491 177.15297 102.04694 181.4168 101.55847 179.60872"/>
<path transform="matrix(.26081304,-.965379,-.9653982,-.26080785,121.807888,15.768402)" d="M1.27522 0C-.31879 .31879-1.91284 .9564-3.8257 2.07224-1.91284 .6376-1.91284-.6376-3.8257-2.07224-1.91284-.9564-.31879-.31879 1.27522 0Z" fill="#ff0000"/>
<path transform="matrix(.26081304,-.965379,-.9653982,-.26080785,121.807888,15.768402)" stroke-width="1.19553" stroke-linecap="butt" stroke-linejoin="round" fill="none" stroke="#ff0000" d="M1.27522 0C-.31879 .31879-1.91284 .9564-3.8257 2.07224-1.91284 .6376-1.91284-.6376-3.8257-2.07224-1.91284-.9564-.31879-.31879 1.27522 0Z"/>
</svg>
