<svg xmlns="http://www.w3.org/2000/svg" xmlns:xlink="http://www.w3.org/1999/xlink" version="1.1" width="160" height="145" viewBox="0 0 160 145">
<defs>
<path id="font_1_3" d="M.04499817-.122177127C.036987306-.15631104 .034988405-.16334534-.009002686-.16334534-.021011353-.16334534-.03201294-.16334534-.03201294-.18234253-.03201294-.19033814-.027008057-.19433594-.019012452-.19433594 .0079956059-.19433594 .036987306-.19134522 .06498718-.19134522 .09799194-.19134522 .13198853-.19433594 .1639862-.19433594 .16899109-.19433594 .18199158-.19433594 .18199158-.17434693 .18199158-.16334534 .17199707-.16334534 .1579895-.16334534 .10798645-.16334534 .10798645-.15631104 .10798645-.14727783 .10798645-.13523865 .1499939 .028259278 .15699768 .053268434 .16999817 .024261475 .19799805-.0107421879 .24899292-.0107421879 .36499024-.0107421879 .48999024 .13528443 .48999024 .28233338 .48999024 .37635804 .43299867 .4423828 .35699464 .4423828 .30699159 .4423828 .25898744 .40637208 .22599793 .36735536 .21598816 .42137147 .17298889 .4423828 .13598633 .4423828 .08999634 .4423828 .070999149 .4033661 .06199646 .38536073 .04399109 .35134889 .0309906 .29133607 .0309906 .28833009 .0309906 .27833558 .040985109 .27833558 .042999269 .27833558 .052993776 .27833558 .053985597 .2793274 .05999756 .30133058 .07699585 .37236024 .09700012 .42037965 .1329956 .42037965 .1499939 .42037965 .1639862 .41236878 .1639862 .37435914 .1639862 .35134889 .16099549 .3403473 .15699768 .323349L.04499817-.122177127M.22099304 .3123474C.22799683 .33935548 .25498963 .36735536 .272995 .38235475 .30799867 .41337586 .33699037 .42037965 .35398866 .42037965 .3939972 .42037965 .41799928 .38536073 .41799928 .32633973 .41799928 .26733399 .3849945 .15229798 .36698915 .11428833 .33299256 .044265748 .2849884 .011245728 .24798584 .011245728 .18199158 .011245728 .16899109 .0942688 .16899109 .10028076 .16899109 .10227966 .16899109 .104278568 .17199707 .11628723L.22099304 .3123474Z"/>
<path id="font_1_2" d="M.47099305 .3773346C.47200013 .3833313 .47399903 .38833619 .47399903 .39535523 .47399903 .41236878 .46199037 .42237855 .44499208 .42237855 .43499757 .42237855 .4079895 .41537477 .4039917 .3793335 .38598634 .41636659 .35099793 .4423828 .31098939 .4423828 .19699097 .4423828 .07299805 .30226136 .07299805 .15812683 .07299805 .059020997 .13398743 0 .20599365 0 .2649994 0 .31199647 .04701233 .32199098 .058029176L.32299806 .057022096C.3019867-.031982423 .2899933-.07295227 .2899933-.07495117 .28599549-.08395386 .2519989-.18309021 .1459961-.18309021 .1269989-.18309021 .09399414-.18206787 .06599426-.17297364 .09599304-.16394043 .10699463-.13793946 .10699463-.12094116 .10699463-.10494995 .09599304-.0859375 .068984989-.0859375 .04699707-.0859375 .01499939-.10394287 .01499939-.14395142 .01499939-.18508911 .051986696-.20507813 .147995-.20507813 .272995-.20507813 .34498597-.12693787 .3600006-.06695557L.47099305 .3773346M.34098817 .12809754C.33499146 .10206604 .31199647 .077041629 .2899933 .058029176 .2689972 .040008546 .23799134 .021987915 .20899964 .021987915 .15899658 .021987915 .14399719 .074035648 .14399719 .11407471 .14399719 .16212464 .17298889 .28024293 .19999695 .33128358 .22698975 .38034059 .269989 .42037965 .31199647 .42037965 .37799073 .42037965 .3919983 .33929444 .3919983 .33428956 .3919983 .32928468 .3899994 .3232727 .3889923 .3192749L.34098817 .12809754Z"/>
<path id="font_2_4" d="M.2939911 .64004519C.2939911 .66400149 .2939911 .6660156 .2709961 .6660156 .20899964 .60227969 .12098694 .60227969 .08898926 .60227969V.57128909C.10899353 .57128909 .16799927 .57128909 .21998596 .5972748V.07902527C.21998596 .042999269 .21699524 .0309906 .1269989 .0309906H.09498596V0C.12998963 .0029907227 .21699524 .0029907227 .25698854 .0029907227 .29699708 .0029907227 .38398744 .0029907227 .4189911 0V.0309906H.3869934C.29699708 .0309906 .2939911 .041992189 .2939911 .07902527V.64004519Z"/>
<path id="font_2_3" d="M.45999146 .31976319C.45999146 .39982606 .45498658 .47988893 .41999818 .5539398 .37399293 .65000918 .2919922 .6660156 .25 .6660156 .18998719 .6660156 .116989139 .64001467 .07598877 .54693606 .04399109 .47789 .038986207 .39982606 .038986207 .31976319 .038986207 .24472046 .042999269 .15464783 .083999637 .07859802 .1269989-.0024719239 .19999695-.022460938 .24899292-.022460938 .30299378-.022460938 .3789978-.0014648438 .4229889 .09359741 .45498658 .16265869 .45999146 .2407074 .45999146 .31976319M.24899292-.00047302247C.20999146-.00047302247 .15098572 .024551392 .1329956 .12062073 .12199402 .18066406 .12199402 .2727356 .12199402 .3317871 .12199402 .39582826 .12199402 .46188355 .12998963 .5159149 .14898682 .63500979 .22399903 .64401248 .24899292 .64401248 .28199769 .64401248 .34799195 .6259918 .36698915 .52693179 .3769989 .47088624 .3769989 .39482118 .3769989 .3317871 .3769989 .25672914 .3769989 .18867493 .3659973 .12461853 .35099793 .029556275 .2939911-.00047302247 .24899292-.00047302247Z"/>
<path id="font_2_5" d="M.1269989 .07699585 .23298645 .18003845C.3889923 .31811524 .44898988 .3721466 .44898988 .47216798 .44898988 .5860901 .35899354 .6660156 .23699951 .6660156 .12399292 .6660156 .049987794 .57411196 .049987794 .48516847 .049987794 .4291687 .099990848 .4291687 .102996829 .4291687 .11999512 .4291687 .15499878 .44117738 .15499878 .48217774 .15499878 .5081787 .13699341 .5341797 .101989749 .5341797 .09399414 .5341797 .09199524 .5341797 .08898926 .5331726 .11199951 .59806826 .1659851 .63500979 .22399903 .63500979 .31498719 .63500979 .35798646 .5541382 .35798646 .47216798 .35798646 .39215089 .30799867 .31311036 .25299073 .25108338L.06098938 .036987306C.049987794 .025985718 .049987794 .023986817 .049987794 0H.42099L.44898988 .17404175H.42399598C.4189911 .14402771 .4119873 .1000061 .4019928 .084991458 .394989 .07699585 .32899476 .07699585 .30699159 .07699585H.1269989Z"/>
<path id="font_2_1" d="M.33099366-.2400055C.33099366-.23701477 .33099366-.23500061 .31399537-.21800232 .18899536-.0920105 .15699768 .09700012 .15699768 .25 .15699768 .42399598 .19499207 .59799197 .31799317 .72299197 .33099366 .73498538 .33099366 .7369995 .33099366 .73999026 .33099366 .746994 .32699586 .75 .32099916 .75 .31098939 .75 .22099304 .6819916 .1619873 .5549927 .11099243 .44499208 .09899902 .33399964 .09899902 .25 .09899902 .17199707 .10998535 .050994874 .16499329-.06201172 .22499085-.18501282 .31098939-.25 .32099916-.25 .32699586-.25 .33099366-.24700928 .33099366-.2400055Z"/>
<path id="font_1_1" d="M.20298767 .0009918213C.20298767 .066986087 .17799378 .10598755 .13899231 .10598755 .10598755 .10598755 .085998538 .08099365 .085998538 .052993776 .085998538 .025985718 .10598755 0 .13899231 0 .15098572 0 .1639862 .0039978029 .17399597 .0129852299 .1769867 .01499939 .17799378 .015991211 .1789856 .015991211 .17999268 .015991211 .18099976 .01499939 .18099976 .0009918213 .18099976-.07316589 .1459961-.13328552 .11299133-.16635132 .101989749-.17736817 .101989749-.17936707 .101989749-.18237305 .101989749-.18936157 .10699463-.19335938 .11199951-.19335938 .12298584-.19335938 .20298767-.116256717 .20298767 .0009918213Z"/>
<path id="font_2_2" d="M.2889862 .25C.2889862 .32798768 .27799989 .44898988 .22299195 .56199648 .16299439 .68499758 .07699585 .75 .066986087 .75 .06098938 .75 .056991579 .74598696 .056991579 .73999026 .056991579 .7369995 .056991579 .73498538 .07598877 .71699526 .17399597 .6179962 .23098755 .45899964 .23098755 .25 .23098755 .07899475 .19400025-.09700012 .069992069-.2230072 .056991579-.23500061 .056991579-.23701477 .056991579-.2400055 .056991579-.2460022 .06098938-.25 .066986087-.25 .07699585-.25 .16699219-.18200684 .22599793-.055007936 .2769928 .054992677 .2889862 .16600037 .2889862 .25Z"/>
<path id="font_2_6" d="M.13198853 .327713V.35173036C.13198853 .6047821 .2559967 .64100649 .30699159 .64100649 .33099366 .64100649 .37298585 .634964 .394989 .6007538 .37998963 .6007538 .33999635 .6007538 .33999635 .5557556 .33999635 .524765 .3639984 .5097656 .38598634 .5097656 .4019928 .5097656 .43199159 .51875308 .43199159 .5577545 .43199159 .6178589 .3880005 .6660156 .30499269 .6660156 .1769867 .6660156 .041992189 .5367584 .041992189 .31570436 .041992189 .048553468 .1579895-.022460938 .25099183-.022460938 .3619995-.022460938 .45700074 .07156372 .45700074 .2036438 .45700074 .33070375 .36799623 .4267578 .25698854 .4267578 .18899536 .4267578 .1519928 .37573243 .13198853 .327713M.25099183 .0055389406C.18798828 .0055389406 .1579895 .06556702 .1519928 .080566409 .13398743 .127594 .13398743 .2076416 .13398743 .22564698 .13398743 .30369569 .1659851 .40374757 .2559967 .40374757 .27198792 .40374757 .31799317 .40374757 .34899903 .34172059 .36698915 .30470277 .36698915 .2536621 .36698915 .20463562 .36698915 .15661621 .36698915 .10658264 .34999085 .0705719 .31999208 .010528564 .27398683 .0055389406 .25099183 .0055389406Z"/>
</defs>
<path transform="matrix(1.00006,0,0,-1.00002,31.514168,129.78734)" stroke-width=".3985" stroke-linecap="butt" stroke-miterlimit="10" stroke-linejoin="miter" fill="none" stroke="#cbcbcb" d="M0 0H113.3855M0 11.33855H113.3855M0 22.6771H113.3855M0 34.01564H113.3855M0 45.35419H113.3855M0 56.69275H113.3855M0 68.0313H113.3855M0 79.36984H113.3855M0 90.70839H113.3855M0 102.04694H113.3855M0 113.38351H113.3855M0 0V113.3855M11.33855 0V113.3855M22.6771 0V113.3855M34.01564 0V113.3855M45.35419 0V113.3855M56.69275 0V113.3855M68.0313 0V113.3855M79.36984 0V113.3855M90.70839 0V113.3855M102.04694 0V113.3855M113.38351 0V113.3855M113.3855 113.3855"/>
<path transform="matrix(1.00006,0,0,-1.00002,31.514168,129.78734)" stroke-width=".79701" stroke-linecap="butt" stroke-miterlimit="10" stroke-linejoin="miter" fill="none" stroke="#000000" d="M0 0H116.48633"/>
<path transform="matrix(1.00006,0,0,-1.00002,148.00748,129.78734)" d="M1.0361 0C-.25902 .25902-1.55415 .77707-3.1083 1.68365-1.55415 .51805-1.55415-.51805-3.1083-1.68365-1.55415-.77707-.25902-.25902 1.0361 0Z"/>
<path transform="matrix(1.00006,0,0,-1.00002,148.00748,129.78734)" stroke-width=".79701" stroke-linecap="butt" stroke-linejoin="round" fill="none" stroke="#000000" d="M1.0361 0C-.25902 .25902-1.55415 .77707-3.1083 1.68365-1.55415 .51805-1.55415-.51805-3.1083-1.68365-1.55415-.77707-.25902-.25902 1.0361 0Z"/>
<use data-text="p" xlink:href="#font_1_3" transform="matrix(9.963197,0,0,-9.962799,153.16147,130.96337)"/>
<path transform="matrix(1.00006,0,0,-1.00002,31.514168,129.78734)" stroke-width=".79701" stroke-linecap="butt" stroke-miterlimit="10" stroke-linejoin="miter" fill="none" stroke="#000000" d="M0 0V116.48633"/>
<path transform="matrix(0,-1.00002,-1.00006,-0,31.514168,13.298676)" d="M1.0361 0C-.25902 .25902-1.55415 .77707-3.1083 1.68365-1.55415 .51805-1.55415-.51805-3.1083-1.68365-1.55415-.77707-.25902-.25902 1.0361 0Z"/>
<path transform="matrix(0,-1.00002,-1.00006,-0,31.514168,13.298676)" stroke-width=".79701" stroke-linecap="butt" stroke-linejoin="round" fill="none" stroke="#000000" d="M1.0361 0C-.25902 .25902-1.55415 .77707-3.1083 1.68365-1.55415 .51805-1.55415-.51805-3.1083-1.68365-1.55415-.77707-.25902-.25902 1.0361 0Z"/>
<use data-text="g" xlink:href="#font_1_2" transform="matrix(9.963197,0,0,-9.962799,28.959015,6.207863)"/>
<path transform="matrix(1.00006,0,0,-1.00002,31.514168,129.78734)" stroke-width=".79701" stroke-linecap="butt" stroke-miterlimit="10" stroke-linejoin="miter" fill="none" stroke="#000000" d="M56.69275 .56696V-.56686"/>
<path transform="matrix(1.00006,0,0,-1.00002,31.514168,129.78734)" d="M50.71507-11.37091H62.67041V-2.9579297H50.71507Z" fill="#ffffff"/>
<use data-text="1" xlink:href="#font_2_4" transform="matrix(9.963197,0,0,-9.962799,83.22827,140.16255)"/>
<use data-text="0" xlink:href="#font_2_3" transform="matrix(9.963197,0,0,-9.962799,88.20987,140.16255)"/>
<path transform="matrix(1.00006,0,0,-1.00002,31.514168,129.78734)" stroke-width=".79701" stroke-linecap="butt" stroke-miterlimit="10" stroke-linejoin="miter" fill="none" stroke="#000000" d="M.56696 56.69275H-.56686"/>
<path transform="matrix(1.00006,0,0,-1.00002,31.514168,129.78734)" d="M-14.91327 52.48625H-2.9579297V60.89923H-14.91327Z" fill="#ffffff"/>
<use data-text="1" xlink:href="#font_2_4" transform="matrix(9.963197,0,0,-9.962799,17.596337,76.30327)"/>
<use data-text="0" xlink:href="#font_2_3" transform="matrix(9.963197,0,0,-9.962799,22.577935,76.30327)"/>
<path transform="matrix(1.00006,0,0,-1.00002,31.514168,129.78734)" stroke-width=".79701" stroke-linecap="butt" stroke-miterlimit="10" stroke-linejoin="miter" fill="none" stroke="#000000" d="M113.3855 .56696V-.56686"/>
<path transform="matrix(1.00006,0,0,-1.00002,31.514168,129.78734)" d="M107.40782-11.37091H119.36316V-2.9579297H107.40782Z" fill="#ffffff"/>
<use data-text="2" xlink:href="#font_2_5" transform="matrix(9.963197,0,0,-9.962799,139.92467,140.16255)"/>
<use data-text="0" xlink:href="#font_2_3" transform="matrix(9.963197,0,0,-9.962799,144.90627,140.16255)"/>
<path transform="matrix(1.00006,0,0,-1.00002,31.514168,129.78734)" stroke-width=".79701" stroke-linecap="butt" stroke-miterlimit="10" stroke-linejoin="miter" fill="none" stroke="#000000" d="M.56696 113.3855H-.56686"/>
<path transform="matrix(1.00006,0,0,-1.00002,31.514168,129.78734)" d="M-14.91327 109.179H-2.9579297V117.59198H-14.91327Z" fill="#ffffff"/>
<use data-text="2" xlink:href="#font_2_5" transform="matrix(9.963197,0,0,-9.962799,17.596337,19.61013)"/>
<use data-text="0" xlink:href="#font_2_3" transform="matrix(9.963197,0,0,-9.962799,22.577935,19.61013)"/>
<g>
<path transform="matrix(1.00006,0,0,-1.00002,31.514168,129.78734)" d="M0 0V68.0313L11.33855 56.69275 34.01564 0Z" fill="#f49ac1" fill-opacity=".2"/>
<path transform="matrix(1.00006,0,0,-1.00002,31.514168,129.78734)" stroke-width=".3985" stroke-linecap="butt" stroke-miterlimit="10" stroke-linejoin="miter" fill="none" stroke="#f49ac1" stroke-opacity=".2" d="M0 0V68.0313L11.33855 56.69275 34.01564 0Z"/>
</g>
<path transform="matrix(1.00006,0,0,-1.00002,31.514168,129.78734)" stroke-width="1.19553" stroke-linecap="butt" stroke-miterlimit="10" stroke-linejoin="miter" fill="none" stroke="#ff0000" d="M0 0V68.0313L11.33855 56.69275 34.01564 0Z"/>
<path transform="matrix(1.00006,0,0,-1.00002,31.514168,129.78734)" d="M1.4173 68.0313C1.4173 68.81406 .78276 69.44861 0 69.44861-.78276 69.44861-1.4173 68.81406-1.4173 68.0313-1.4173 67.24854-.78276 66.61398 0 66.61398 .78276 66.61398 1.4173 67.24854 1.4173 68.0313ZM0 68.0313" fill="#ff0000"/>
<path transform="matrix(1.00006,0,0,-1.00002,31.514168,129.78734)" stroke-width=".3985" stroke-linecap="butt" stroke-miterlimit="10" stroke-linejoin="miter" fill="none" stroke="#ff0000" d="M1.4173 68.0313C1.4173 68.81406 .78276 69.44861 0 69.44861-.78276 69.44861-1.4173 68.81406-1.4173 68.0313-1.4173 67.24854-.78276 66.61398 0 66.61398 .78276 66.61398 1.4173 67.24854 1.4173 68.0313ZM0 68.0313"/>
<path transform="matrix(1.00006,0,0,-1.00002,31.514168,129.78734)" d="M-33.2978 61.05736H-2.1917973V75.00524H-33.2978Z" fill="#ffffff"/>
<use data-text="(" xlink:href="#font_2_1" transform="matrix(9.963197,0,0,-9.962799,.20729065,64.245029)" fill="#ff0000"/>
<use data-text="0" xlink:href="#font_2_3" transform="matrix(9.963197,0,0,-9.962799,4.0730135,64.245029)" fill="#ff0000"/>
<use data-text="," xlink:href="#font_1_1" transform="matrix(9.963197,0,0,-9.962799,9.06282,64.245029)" fill="#ff0000"/>
<use data-text="1" xlink:href="#font_2_4" transform="matrix(9.963197,0,0,-9.962799,13.491089,64.245029)" fill="#ff0000"/>
<use data-text="2" xlink:href="#font_2_5" transform="matrix(9.963197,0,0,-9.962799,18.472672,64.245029)" fill="#ff0000"/>
<use data-text=")" xlink:href="#font_2_2" transform="matrix(9.963197,0,0,-9.962799,23.45427,64.245029)" fill="#ff0000"/>
<path transform="matrix(1.00006,0,0,-1.00002,31.514168,129.78734)" d="M12.75584 56.69275C12.75584 57.47551 12.1213 58.11006 11.33855 58.11006 10.55577 58.11006 9.92123 57.47551 9.92123 56.69275 9.92123 55.90997 10.55577 55.27544 11.33855 55.27544 12.1213 55.27544 12.75584 55.90997 12.75584 56.69275ZM11.33855 56.69275" fill="#ff0000"/>
<path transform="matrix(1.00006,0,0,-1.00002,31.514168,129.78734)" stroke-width=".3985" stroke-linecap="butt" stroke-miterlimit="10" stroke-linejoin="miter" fill="none" stroke="#ff0000" d="M12.75584 56.69275C12.75584 57.47551 12.1213 58.11006 11.33855 58.11006 10.55577 58.11006 9.92123 57.47551 9.92123 56.69275 9.92123 55.90997 10.55577 55.27544 11.33855 55.27544 12.1213 55.27544 12.75584 55.90997 12.75584 56.69275ZM11.33855 56.69275"/>
<path transform="matrix(1.00006,0,0,-1.00002,31.514168,129.78734)" d="M13.53035 56.892H42.6438V68.84732H13.53035Z" fill="#ffffff"/>
<use data-text="(" xlink:href="#font_2_1" transform="matrix(9.963197,0,0,-9.962799,46.042039,69.40713)" fill="#ff0000"/>
<use data-text="2" xlink:href="#font_2_5" transform="matrix(9.963197,0,0,-9.962799,49.90776,69.40713)" fill="#ff0000"/>
<use data-text="," xlink:href="#font_1_1" transform="matrix(9.963197,0,0,-9.962799,54.897569,69.40713)" fill="#ff0000"/>
<use data-text="1" xlink:href="#font_2_4" transform="matrix(9.963197,0,0,-9.962799,59.325838,69.40713)" fill="#ff0000"/>
<use data-text="0" xlink:href="#font_2_3" transform="matrix(9.963197,0,0,-9.962799,64.30742,69.40713)" fill="#ff0000"/>
<use data-text=")" xlink:href="#font_2_2" transform="matrix(9.963197,0,0,-9.962799,69.28902,69.40713)" fill="#ff0000"/>
<path transform="matrix(1.00006,0,0,-1.00002,31.514168,129.78734)" d="M35.43295 0C35.43295 .78276 34.7984 1.4173 34.01564 1.4173 33.23286 1.4173 32.59833 .78276 32.59833 0 32.59833-.78276 33.23286-1.4173 34.01564-1.4173 34.7984-1.4173 35.43295-.78276 35.43295 0ZM34.01564 0" fill="#ff0000"/>
<path transform="matrix(1.00006,0,0,-1.00002,31.514168,129.78734)" stroke-width=".3985" stroke-linecap="butt" stroke-miterlimit="10" stroke-linejoin="miter" fill="none" stroke="#ff0000" d="M35.43295 0C35.43295 .78276 34.7984 1.4173 34.01564 1.4173 33.23286 1.4173 32.59833 .78276 32.59833 0 32.59833-.78276 33.23286-1.4173 34.01564-1.4173 34.7984-1.4173 35.43295-.78276 35.43295 0ZM34.01564 0"/>
<path transform="matrix(1.00006,0,0,-1.00002,31.514168,129.78734)" d="M34.21489-16.13968H60.339479V-2.191801H34.21489Z" fill="#ffffff"/>
<use data-text="(" xlink:href="#font_2_1" transform="matrix(9.963197,0,0,-9.962799,67.72334,141.44358)" fill="#ff0000"/>
<use data-text="6" xlink:href="#font_2_6" transform="matrix(9.963197,0,0,-9.962799,71.589069,141.44358)" fill="#ff0000"/>
<use data-text="," xlink:href="#font_1_1" transform="matrix(9.963197,0,0,-9.962799,76.57887,141.44358)" fill="#ff0000"/>
<use data-text="0" xlink:href="#font_2_3" transform="matrix(9.963197,0,0,-9.962799,81.00714,141.44358)" fill="#ff0000"/>
<use data-text=")" xlink:href="#font_2_2" transform="matrix(9.963197,0,0,-9.962799,85.98872,141.44358)" fill="#ff0000"/>
<path transform="matrix(1.00006,0,0,-1.00002,31.514168,129.78734)" d="M1.4173 0C1.4173 .78276 .78276 1.4173 0 1.4173-.78276 1.4173-1.4173 .78276-1.4173 0-1.4173-.78276-.78276-1.4173 0-1.4173 .78276-1.4173 1.4173-.78276 1.4173 0ZM0 0" fill="#ff0000"/>
<path transform="matrix(1.00006,0,0,-1.00002,31.514168,129.78734)" stroke-width=".3985" stroke-linecap="butt" stroke-miterlimit="10" stroke-linejoin="miter" fill="none" stroke="#ff0000" d="M1.4173 0C1.4173 .78276 .78276 1.4173 0 1.4173-.78276 1.4173-1.4173 .78276-1.4173 0-1.4173-.78276-.78276-1.4173 0-1.4173 .78276-1.4173 1.4173-.78276 1.4173 0ZM0 0"/>
<path transform="matrix(1.00006,0,0,-1.00002,31.514168,129.78734)" d="M-26.32384-16.13968H-.19924927V-2.191801H-26.32384Z" fill="#ffffff"/>
<use data-text="(" xlink:href="#font_2_1" transform="matrix(9.963197,0,0,-9.962799,7.1817095,141.44358)" fill="#ff0000"/>
<use data-text="0" xlink:href="#font_2_3" transform="matrix(9.963197,0,0,-9.962799,11.047432,141.44358)" fill="#ff0000"/>
<use data-text="," xlink:href="#font_1_1" transform="matrix(9.963197,0,0,-9.962799,16.03724,141.44358)" fill="#ff0000"/>
<use data-text="0" xlink:href="#font_2_3" transform="matrix(9.963197,0,0,-9.962799,20.465508,141.44358)" fill="#ff0000"/>
<use data-text=")" xlink:href="#font_2_2" transform="matrix(9.963197,0,0,-9.962799,25.44709,141.44358)" fill="#ff0000"/>
</svg>
