<svg xmlns="http://www.w3.org/2000/svg" xmlns:xlink="http://www.w3.org/1999/xlink" version="1.1" width="234" height="196" viewBox="0 0 234 196">
<defs>
<path id="font_1_1" d="M.33399964 .30233766C.33999635 .32835389 .36299134 .42037965 .43299867 .42037965 .43798829 .42037965 .46199037 .42037965 .48298646 .40734864 .45498658 .402359 .43499757 .37734986 .43499757 .35334779 .43499757 .33735658 .44599916 .31835938 .47299195 .31835938 .49499513 .31835938 .5269928 .3363495 .5269928 .37635804 .5269928 .42837525 .46798707 .4423828 .43399049 .4423828 .37599183 .4423828 .34098817 .38935853 .32899476 .36634828 .3039856 .43237306 .25 .4423828 .22099304 .4423828 .116989139 .4423828 .05999756 .3133545 .05999756 .28834535 .05999756 .27833558 .069992069 .27833558 .07199097 .27833558 .07998657 .27833558 .08299255 .28033448 .084991458 .28933717 .11898804 .39535523 .18499756 .42037965 .21899414 .42037965 .23799134 .42037965 .272995 .4113617 .272995 .35334779 .272995 .32235719 .2559967 .25532533 .21899414 .11528015 .20298767 .053268434 .16799927 .011245728 .12399292 .011245728 .117996219 .011245728 .09498596 .011245728 .07398987 .024276734 .09899902 .029266358 .12098694 .05027771 .12098694 .07827759 .12098694 .105270389 .09899902 .11328125 .083999637 .11328125 .053985597 .11328125 .0289917 .08728027 .0289917 .055267335 .0289917 .009246826 .07899475-.0107421879 .12298584-.0107421879 .18899536-.0107421879 .22499085 .059280397 .22799683 .0652771 .23999024 .028274537 .27598573-.0107421879 .33599855-.0107421879 .43899537-.0107421879 .49598695 .118270877 .49598695 .14328003 .49598695 .1532898 .4869995 .1532898 .48399354 .1532898 .47499085 .1532898 .47299195 .14929199 .47099305 .14228821 .43798829 .03527832 .36999513 .011245728 .33799745 .011245728 .29899598 .011245728 .2829895 .043273927 .2829895 .07727051 .2829895 .09927368 .2889862 .121276859 .2999878 .16529846L.33399964 .30233766Z"/>
<path id="font_1_2" d="M.48599244 .38136292C.48999024 .39537049 .48999024 .39736939 .48999024 .40437318 .48999024 .42237855 .47599793 .43138124 .46099855 .43138124 .45098878 .43138124 .43499757 .42536927 .42599488 .41036988 .42399598 .405365 .41600038 .37435914 .4119873 .35635377 .40499879 .33035279 .397995 .30334474 .3919983 .27633668L.34700013 .09628296C.34298707 .08126831 .2999878 .011245728 .23399353 .011245728 .18299866 .011245728 .17199707 .055267335 .17199707 .0922699 .17199707 .1382904 .18899536 .20030213 .22299195 .28833009 .23899842 .3293457 .24299622 .3403473 .24299622 .36035157 .24299622 .405365 .21099854 .4423828 .16099549 .4423828 .06599426 .4423828 .0289917 .29733277 .0289917 .28833009 .0289917 .27833558 .038986207 .27833558 .040985109 .27833558 .050994874 .27833558 .051986696 .28033448 .056991579 .29634095 .083999637 .3903656 .12399292 .42037965 .1579895 .42037965 .1659851 .42037965 .18299866 .42037965 .18299866 .3883667 .18299866 .36335755 .17298889 .3373413 .1659851 .31834413 .12599182 .21231079 .10798645 .1552887 .10798645 .10827637 .10798645 .019256592 .17098999-.0107421879 .22999573-.0107421879 .2689972-.0107421879 .30299378 .0062561037 .33099366 .03425598 .31799317-.017745972 .30599977-.06674194 .2659912-.11973572 .23999024-.15385437 .20199585-.18309021 .1559906-.18309021 .14199829-.18309021 .09700012-.18005371 .07998657-.14074707 .09599304-.14074707 .10899353-.14074707 .12298584-.1287384 .1329956-.11973572 .14299011-.10673523 .14299011-.08773804 .14299011-.056747438 .115997318-.052734376 .10598755-.052734376 .08299255-.052734376 .049987794-.068740848 .049987794-.11773682 .049987794-.16796875 .09399414-.20507813 .1559906-.20507813 .25898744-.20507813 .3619995-.11373901 .3899994-.00074768069L.48599244 .38136292Z"/>
<path id="font_2_1" d="M.6589966 .23046875C.6759949 .23046875 .69400027 .23046875 .69400027 .25045777 .69400027 .27046205 .6759949 .27046205 .6589966 .27046205H.117996219C.100997928 .27046205 .08299255 .27046205 .08299255 .25045777 .08299255 .23046875 .100997928 .23046875 .117996219 .23046875H.6589966Z"/>
<path id="font_3_4" d="M.2899933 .35191346C.37199403 .37893678 .42999269 .4490509 .42999269 .52809146 .42999269 .6100464 .34199525 .6660156 .24598694 .6660156 .14498902 .6660156 .068984989 .60606387 .068984989 .53009036 .068984989 .49710084 .09098816 .47808839 .11999512 .47808839 .15098572 .47808839 .17098999 .50009158 .17098999 .5290985 .17098999 .57910159 .12399292 .57910159 .10899353 .57910159 .13999939 .62802127 .20599365 .64100649 .24198914 .64100649 .2829895 .64100649 .33799745 .6190338 .33799745 .5290985 .33799745 .51708987 .33599855 .45906068 .30999757 .4149933 .27999879 .36691285 .24598694 .36390687 .22099304 .36291505 .21299744 .36190797 .18899536 .35990907 .18199158 .35990907 .17399597 .35890199 .16699219 .35791017 .16699219 .3479004 .16699219 .33691407 .17399597 .33691407 .19099427 .33691407H.23498535C.31698609 .33691407 .35398866 .2686615 .35398866 .17037964 .35398866 .034469606 .2849884 .0055389406 .24099732 .0055389406 .19799805 .0055389406 .12298584 .022491456 .08799744 .08137512 .12298584 .07637024 .1539917 .09837341 .1539917 .1363678 .1539917 .17237854 .1269989 .19238281 .09799194 .19238281 .07398987 .19238281 .041992189 .17837525 .041992189 .1343689 .041992189 .043441774 .1349945-.022460938 .24398804-.022460938 .3659973-.022460938 .45700074 .06838989 .45700074 .17037964 .45700074 .252594 .3939972 .33088685 .2899933 .35191346Z"/>
<path id="font_3_1" d="M.45999146 .31976319C.45999146 .39982606 .45498658 .47988893 .41999818 .5539398 .37399293 .65000918 .2919922 .6660156 .25 .6660156 .18998719 .6660156 .116989139 .64001467 .07598877 .54693606 .04399109 .47789 .038986207 .39982606 .038986207 .31976319 .038986207 .24472046 .042999269 .15464783 .083999637 .07859802 .1269989-.0024719239 .19999695-.022460938 .24899292-.022460938 .30299378-.022460938 .3789978-.0014648438 .4229889 .09359741 .45498658 .16265869 .45999146 .2407074 .45999146 .31976319M.24899292-.00047302247C.20999146-.00047302247 .15098572 .024551392 .1329956 .12062073 .12199402 .18066406 .12199402 .2727356 .12199402 .3317871 .12199402 .39582826 .12199402 .46188355 .12998963 .5159149 .14898682 .63500979 .22399903 .64401248 .24899292 .64401248 .28199769 .64401248 .34799195 .6259918 .36698915 .52693179 .3769989 .47088624 .3769989 .39482118 .3769989 .3317871 .3769989 .25672914 .3769989 .18867493 .3659973 .12461853 .35099793 .029556275 .2939911-.00047302247 .24899292-.00047302247Z"/>
<path id="font_3_3" d="M.1269989 .07699585 .23298645 .18003845C.3889923 .31811524 .44898988 .3721466 .44898988 .47216798 .44898988 .5860901 .35899354 .6660156 .23699951 .6660156 .12399292 .6660156 .049987794 .57411196 .049987794 .48516847 .049987794 .4291687 .099990848 .4291687 .102996829 .4291687 .11999512 .4291687 .15499878 .44117738 .15499878 .48217774 .15499878 .5081787 .13699341 .5341797 .101989749 .5341797 .09399414 .5341797 .09199524 .5341797 .08898926 .5331726 .11199951 .59806826 .1659851 .63500979 .22399903 .63500979 .31498719 .63500979 .35798646 .5541382 .35798646 .47216798 .35798646 .39215089 .30799867 .31311036 .25299073 .25108338L.06098938 .036987306C.049987794 .025985718 .049987794 .023986817 .049987794 0H.42099L.44898988 .17404175H.42399598C.4189911 .14402771 .4119873 .1000061 .4019928 .084991458 .394989 .07699585 .32899476 .07699585 .30699159 .07699585H.1269989Z"/>
<path id="font_3_2" d="M.2939911 .64004519C.2939911 .66400149 .2939911 .6660156 .2709961 .6660156 .20899964 .60227969 .12098694 .60227969 .08898926 .60227969V.57128909C.10899353 .57128909 .16799927 .57128909 .21998596 .5972748V.07902527C.21998596 .042999269 .21699524 .0309906 .1269989 .0309906H.09498596V0C.12998963 .0029907227 .21699524 .0029907227 .25698854 .0029907227 .29699708 .0029907227 .38398744 .0029907227 .4189911 0V.0309906H.3869934C.29699708 .0309906 .2939911 .041992189 .2939911 .07902527V.64004519Z"/>
<path id="font_3_5" d="M.2939911 .16503906V.07800293C.2939911 .041992189 .2919922 .0309906 .21798706 .0309906H.19699097V0C.23799134 .0029907227 .2899933 .0029907227 .33198548 .0029907227 .37399293 .0029907227 .4269867 .0029907227 .46798707 0V.0309906H.44699098C.37298585 .0309906 .37098695 .041992189 .37098695 .07800293V.16503906H.47099305V.19602967H.37098695V.65075686C.37098695 .67074587 .37098695 .6767578 .35499574 .6767578 .34599305 .6767578 .34298707 .6767578 .33499146 .66474917L.027999878 .19602967V.16503906H.2939911M.2999878 .19602967H.055999757L.2999878 .5688019V.19602967Z"/>
<path id="font_3_6" d="M.13198853 .327713V.35173036C.13198853 .6047821 .2559967 .64100649 .30699159 .64100649 .33099366 .64100649 .37298585 .634964 .394989 .6007538 .37998963 .6007538 .33999635 .6007538 .33999635 .5557556 .33999635 .524765 .3639984 .5097656 .38598634 .5097656 .4019928 .5097656 .43199159 .51875308 .43199159 .5577545 .43199159 .6178589 .3880005 .6660156 .30499269 .6660156 .1769867 .6660156 .041992189 .5367584 .041992189 .31570436 .041992189 .048553468 .1579895-.022460938 .25099183-.022460938 .3619995-.022460938 .45700074 .07156372 .45700074 .2036438 .45700074 .33070375 .36799623 .4267578 .25698854 .4267578 .18899536 .4267578 .1519928 .37573243 .13198853 .327713M.25099183 .0055389406C.18798828 .0055389406 .1579895 .06556702 .1519928 .080566409 .13398743 .127594 .13398743 .2076416 .13398743 .22564698 .13398743 .30369569 .1659851 .40374757 .2559967 .40374757 .27198792 .40374757 .31799317 .40374757 .34899903 .34172059 .36698915 .30470277 .36698915 .2536621 .36698915 .20463562 .36698915 .15661621 .36698915 .10658264 .34999085 .0705719 .31999208 .010528564 .27398683 .0055389406 .25099183 .0055389406Z"/>
<path id="font_3_7" d="M.16299439 .4569702C.116989139 .486969 .11299133 .52098086 .11299133 .5379791 .11299133 .598999 .17799378 .64100649 .24899292 .64100649 .32199098 .64100649 .38598634 .58898928 .38598634 .51698306 .38598634 .45996095 .34700013 .4119568 .2869873 .37695313L.16299439 .4569702M.30899049 .36193849C.3809967 .3989563 .42999269 .45095826 .42999269 .51698306 .42999269 .6090088 .34098817 .6660156 .25 .6660156 .1499939 .6660156 .068984989 .59199526 .068984989 .49897767 .068984989 .4809723 .070999149 .43595887 .11299133 .38894654 .12399292 .37695313 .16099549 .35194398 .18598938 .33494569 .12799073 .30592347 .041992189 .24984741 .041992189 .15072632 .041992189 .04458618 .14399719-.022460938 .24899292-.022460938 .3619995-.022460938 .45700074 .06060791 .45700074 .16773987 .45700074 .20379639 .44599916 .24885559 .4079895 .2909088 .3889923 .31193543 .37298585 .3219452 .30899049 .36193849M.20899964 .3199463 .33198548 .24183655C.3600006 .2228241 .40699769 .19277954 .40699769 .13169861 .40699769 .05760193 .33198548 .0055389406 .25 .0055389406 .1639862 .0055389406 .09199524 .067611698 .09199524 .15072632 .09199524 .20880127 .12399292 .27288819 .20899964 .3199463Z"/>
</defs>
<path transform="matrix(1.00006,0,0,-1.00005,111.12089,158.14225)" stroke-width=".3985" stroke-linecap="butt" stroke-miterlimit="10" stroke-linejoin="miter" fill="none" stroke="#00aeef" d="M-102.04953-34.0165H102.04953M-102.04953-17.00824H102.04953M-102.04953 0H102.04953M-102.04953 17.00824H102.04953M-102.04953 34.0165H102.04953M-102.04953 51.02477H102.04953M-102.04953 68.03302H102.04953M-102.04953 85.04128H102.04953M-102.04953 102.04953H102.04953M-102.04953 119.0578H102.04953M-102.04953 136.06009H102.04953M-102.04953-34.0165V136.06606M-85.04128-34.0165V136.06606M-68.03302-34.0165V136.06606M-51.02477-34.0165V136.06606M-34.0165-34.0165V136.06606M-17.00824-34.0165V136.06606M0-34.0165V136.06606M17.00824-34.0165V136.06606M34.0165-34.0165V136.06606M51.02477-34.0165V136.06606M68.03302-34.0165V136.06606M85.04128-34.0165V136.06606M102.04356-34.0165V136.06606M102.04953 136.06606"/>
<path transform="matrix(1.00006,0,0,-1.00005,111.12089,158.14225)" stroke-width=".79701" stroke-linecap="butt" stroke-miterlimit="10" stroke-linejoin="miter" fill="none" stroke="#000000" d="M-102.04953 0H110.81998"/>
<path transform="matrix(1.00006,0,0,-1.00005,221.94751,158.14225)" d="M1.0361 0C-.25902 .25902-1.55415 .77707-3.1083 1.68365-1.55415 .51805-1.55415-.51805-3.1083-1.68365-1.55415-.77707-.25902-.25902 1.0361 0Z"/>
<path transform="matrix(1.00006,0,0,-1.00005,221.94751,158.14225)" stroke-width=".79701" stroke-linecap="butt" stroke-linejoin="round" fill="none" stroke="#000000" d="M1.0361 0C-.25902 .25902-1.55415 .77707-3.1083 1.68365-1.55415 .51805-1.55415-.51805-3.1083-1.68365-1.55415-.77707-.25902-.25902 1.0361 0Z"/>
<use data-text="x" xlink:href="#font_1_1" transform="matrix(9.963197,0,0,-9.963098,227.10184,160.28736)"/>
<path transform="matrix(1.00006,0,0,-1.00005,111.12089,158.14225)" stroke-width=".79701" stroke-linecap="butt" stroke-miterlimit="10" stroke-linejoin="miter" fill="none" stroke="#000000" d="M0-34.0165V144.83649"/>
<path transform="matrix(0,-1.00005,-1.00006,-0,111.12089,13.298523)" d="M1.0361 0C-.25902 .25902-1.55415 .77707-3.1083 1.68365-1.55415 .51805-1.55415-.51805-3.1083-1.68365-1.55415-.77707-.25902-.25902 1.0361 0Z"/>
<path transform="matrix(0,-1.00005,-1.00006,-0,111.12089,13.298523)" stroke-width=".79701" stroke-linecap="butt" stroke-linejoin="round" fill="none" stroke="#000000" d="M1.0361 0C-.25902 .25902-1.55415 .77707-3.1083 1.68365-1.55415 .51805-1.55415-.51805-3.1083-1.68365-1.55415-.77707-.25902-.25902 1.0361 0Z"/>
<use data-text="y" xlink:href="#font_1_2" transform="matrix(9.963197,0,0,-9.963098,108.49973,6.207657)"/>
<path transform="matrix(1.00006,0,0,-1.00005,111.12089,158.14225)" stroke-width=".3985" stroke-linecap="butt" stroke-miterlimit="10" stroke-linejoin="miter" fill="none" stroke="#000000" d="M-102.04953 1.70091V-1.70065"/>
<path transform="matrix(1.00006,0,0,-1.00005,111.12089,158.14225)" d="M-111.90163-13.13568H-92.197429V-3.8924504H-111.90163Z" fill="#ffffff"/>
<use data-text="&#x2212;" xlink:href="#font_2_1" transform="matrix(9.963197,0,0,-9.963098,.20922852,169.45182)"/>
<use data-text="3" xlink:href="#font_3_4" transform="matrix(9.963197,0,0,-9.963098,7.958679,169.45182)"/>
<use data-text="0" xlink:href="#font_3_1" transform="matrix(9.963197,0,0,-9.963098,12.940277,169.45182)"/>
<path transform="matrix(1.00006,0,0,-1.00005,111.12089,158.14225)" stroke-width=".3985" stroke-linecap="butt" stroke-miterlimit="10" stroke-linejoin="miter" fill="none" stroke="#000000" d="M-68.03302 1.70091V-1.70065"/>
<path transform="matrix(1.00006,0,0,-1.00005,111.12089,158.14225)" d="M-77.88513-13.13568H-58.18093V-3.8924504H-77.88513Z" fill="#ffffff"/>
<use data-text="&#x2212;" xlink:href="#font_2_1" transform="matrix(9.963197,0,0,-9.963098,34.22728,169.45182)"/>
<use data-text="2" xlink:href="#font_3_3" transform="matrix(9.963197,0,0,-9.963098,41.97673,169.45182)"/>
<use data-text="0" xlink:href="#font_3_1" transform="matrix(9.963197,0,0,-9.963098,46.95833,169.45182)"/>
<path transform="matrix(1.00006,0,0,-1.00005,111.12089,158.14225)" stroke-width=".3985" stroke-linecap="butt" stroke-miterlimit="10" stroke-linejoin="miter" fill="none" stroke="#000000" d="M-34.0165 1.70091V-1.70065"/>
<path transform="matrix(1.00006,0,0,-1.00005,111.12089,158.14225)" d="M-43.8686-13.13568H-24.164399V-3.8924504H-43.8686Z" fill="#ffffff"/>
<use data-text="&#x2212;" xlink:href="#font_2_1" transform="matrix(9.963197,0,0,-9.963098,68.24631,169.45182)"/>
<use data-text="1" xlink:href="#font_3_2" transform="matrix(9.963197,0,0,-9.963098,75.99576,169.45182)"/>
<use data-text="0" xlink:href="#font_3_1" transform="matrix(9.963197,0,0,-9.963098,80.977359,169.45182)"/>
<path transform="matrix(1.00006,0,0,-1.00005,111.12089,158.14225)" stroke-width=".3985" stroke-linecap="butt" stroke-miterlimit="10" stroke-linejoin="miter" fill="none" stroke="#000000" d="M34.0165 1.70091V-1.70065"/>
<path transform="matrix(1.00006,0,0,-1.00005,111.12089,158.14225)" d="M28.03882-12.30545H39.99416V-3.8924704H28.03882Z" fill="#ffffff"/>
<use data-text="1" xlink:href="#font_3_2" transform="matrix(9.963197,0,0,-9.963098,140.15763,169.45182)"/>
<use data-text="0" xlink:href="#font_3_1" transform="matrix(9.963197,0,0,-9.963098,145.13922,169.45182)"/>
<path transform="matrix(1.00006,0,0,-1.00005,111.12089,158.14225)" stroke-width=".3985" stroke-linecap="butt" stroke-miterlimit="10" stroke-linejoin="miter" fill="none" stroke="#000000" d="M68.03302 1.70091V-1.70065"/>
<path transform="matrix(1.00006,0,0,-1.00005,111.12089,158.14225)" d="M62.05534-12.30545H74.01068V-3.8924704H62.05534Z" fill="#ffffff"/>
<use data-text="2" xlink:href="#font_3_3" transform="matrix(9.963197,0,0,-9.963098,174.17667,169.45182)"/>
<use data-text="0" xlink:href="#font_3_1" transform="matrix(9.963197,0,0,-9.963098,179.15825,169.45182)"/>
<path transform="matrix(1.00006,0,0,-1.00005,111.12089,158.14225)" stroke-width=".3985" stroke-linecap="butt" stroke-miterlimit="10" stroke-linejoin="miter" fill="none" stroke="#000000" d="M102.04953 1.70091V-1.70065"/>
<path transform="matrix(1.00006,0,0,-1.00005,111.12089,158.14225)" d="M96.07185-12.30545H108.02719V-3.8924704H96.07185Z" fill="#ffffff"/>
<use data-text="3" xlink:href="#font_3_4" transform="matrix(9.963197,0,0,-9.963098,208.1947,169.45182)"/>
<use data-text="0" xlink:href="#font_3_1" transform="matrix(9.963197,0,0,-9.963098,213.1763,169.45182)"/>
<path transform="matrix(1.00006,0,0,-1.00005,111.12089,158.14225)" stroke-width=".3985" stroke-linecap="butt" stroke-miterlimit="10" stroke-linejoin="miter" fill="none" stroke="#000000" d="M1.70091-34.0165H-1.70065"/>
<path transform="matrix(1.00006,0,0,-1.00005,111.12089,158.14225)" d="M-18.61523-38.63812H-3.8924504V-29.39489H-18.61523Z" fill="#ffffff"/>
<use data-text="&#x2212;" xlink:href="#font_2_1" transform="matrix(9.963197,0,0,-9.963098,93.50083,194.95609)"/>
<use data-text="2" xlink:href="#font_3_3" transform="matrix(9.963197,0,0,-9.963098,101.25028,194.95609)"/>
<path transform="matrix(1.00006,0,0,-1.00005,111.12089,158.14225)" stroke-width=".3985" stroke-linecap="butt" stroke-miterlimit="10" stroke-linejoin="miter" fill="none" stroke="#000000" d="M1.70091 34.0165H-1.70065"/>
<path transform="matrix(1.00006,0,0,-1.00005,111.12089,158.14225)" d="M-10.8664 29.81001H-3.8924599V38.222993H-10.8664Z" fill="#ffffff"/>
<use data-text="2" xlink:href="#font_3_3" transform="matrix(9.963197,0,0,-9.963098,101.2503,127.3347)"/>
<path transform="matrix(1.00006,0,0,-1.00005,111.12089,158.14225)" stroke-width=".3985" stroke-linecap="butt" stroke-miterlimit="10" stroke-linejoin="miter" fill="none" stroke="#000000" d="M1.70091 68.03302H-1.70065"/>
<path transform="matrix(1.00006,0,0,-1.00005,111.12089,158.14225)" d="M-10.8664 63.82654H-3.8924599V72.239528H-10.8664Z" fill="#ffffff"/>
<use data-text="4" xlink:href="#font_3_5" transform="matrix(9.963197,0,0,-9.963098,101.2503,93.31601)"/>
<path transform="matrix(1.00006,0,0,-1.00005,111.12089,158.14225)" stroke-width=".3985" stroke-linecap="butt" stroke-miterlimit="10" stroke-linejoin="miter" fill="none" stroke="#000000" d="M1.70091 102.04953H-1.70065"/>
<path transform="matrix(1.00006,0,0,-1.00005,111.12089,158.14225)" d="M-10.8664 97.84305H-3.8924599V106.25603H-10.8664Z" fill="#ffffff"/>
<use data-text="6" xlink:href="#font_3_6" transform="matrix(9.963197,0,0,-9.963098,101.2503,59.29831)"/>
<path transform="matrix(1.00006,0,0,-1.00005,111.12089,158.14225)" stroke-width=".3985" stroke-linecap="butt" stroke-miterlimit="10" stroke-linejoin="miter" fill="none" stroke="#000000" d="M1.70091 136.06606H-1.70065"/>
<path transform="matrix(1.00006,0,0,-1.00005,111.12089,158.14225)" d="M-10.8664 131.85958H-3.8924599V140.27256H-10.8664Z" fill="#ffffff"/>
<use data-text="8" xlink:href="#font_3_7" transform="matrix(9.963197,0,0,-9.963098,101.2503,25.279603)"/>
<path transform="matrix(1.00006,0,0,-1.00005,111.12089,158.14225)" stroke-width="1.19553" stroke-linecap="butt" stroke-miterlimit="10" stroke-linejoin="miter" fill="none" stroke="#ff0000" d="M0 68.03302C0 68.03302 .576 59.37682 .79724 57.54324 1.01846 55.7097 1.37326 55.46141 1.5945 54.81798 1.81575 54.17456 2.17053 53.38216 2.39177 52.90579 2.613 52.42944 2.9678 51.77374 3.18903 51.38472 3.41026 50.99568 3.76506 50.43568 3.9863 50.10188 4.20752 49.7681 4.56232 49.27412 4.78355 48.97893 5.00478 48.68373 5.35957 48.2403 5.58081 47.97429 5.80206 47.7083 6.15685 47.30508 6.37807 47.06181 6.5993 46.81853 6.9541 46.44572 7.17534 46.22093 7.39658 45.99614 7.75136 45.65091 7.97261 45.44159 8.19385 45.23228 8.54865 44.9087 8.76987 44.71231 8.99109 44.51593 9.3459 44.2114 9.56712 44.02614 9.78835 43.84087 10.14314 43.55264 10.36438 43.37706 10.58562 43.20149 10.94041 42.92773 11.16165 42.7607 11.38289 42.59366 11.73769 42.33253 11.95892 42.17313 12.18015 42.01372 12.53494 41.76443 12.75616 41.61176 12.97742 41.45909 13.33221 41.21967 13.55344 41.07272 13.77467 40.92578 14.12947 40.6942 14.3507 40.55266 14.57193 40.4111 14.92673 40.18887 15.14796 40.05254 15.36919 39.91621 15.724 39.7018 15.94522 39.57008 16.16646 39.43839 16.52124 39.23065 16.7425 39.1032 16.96373 38.97572 17.31851 38.77493 17.53975 38.65135 17.76099 38.52779 18.11578 38.33243 18.33702 38.21251 18.55824 38.09256 18.91304 37.90341 19.13426 37.78688 19.3555 37.67038 19.7103 37.48622 19.93153 37.37267 20.15277 37.25914 20.50755 37.07913 20.7288 36.96858 20.95004 36.85806 21.30482 36.6837 21.52606 36.57594 21.74728 36.46817 22.10208 36.29701 22.32332 36.19185 22.54456 36.08665 22.89935 35.92062 23.12059 35.81786 23.34181 35.7151 23.69661 35.55157 23.91785 35.45116 24.13907 35.35074 24.49387 35.19206 24.7151 35.09406 24.93634 34.99605 25.29112 34.84073 25.51236 34.74472 25.73361 34.64874 26.0884 34.49641 26.30963 34.40215 26.53087 34.30788 26.88567 34.15808 27.1069 34.06529 27.32813 33.9725 27.68292 33.8243 27.90414 33.73337 28.12538 33.64244 28.48018 33.49895 28.70142 33.40999 28.92265 33.32101 29.27744 33.17949 29.49867 33.09207 29.71992 33.00464 30.0747 32.86569 30.29594 32.77985 30.51717 32.69402 30.87198 32.55772 31.0932 32.47334 31.31444 32.38899 31.66924 32.25475 31.89047 32.17178 32.1117 32.08884 32.46649 31.95697 32.68773 31.87541 32.90895 31.79385 33.26375 31.66415 33.485 31.58397 33.70622 31.50378 34.06102 31.3764 34.28224 31.29744 34.50348 31.21849 34.85828 31.09279 35.07951 31.01483 35.30075 30.93687 35.65555 30.8123 35.87679 30.73558 36.09802 30.65886 36.45282 30.53732 36.67404 30.46178 36.89526 30.38625 37.25008 30.26563 37.4713 30.19109 37.69252 30.11656 38.04732 29.99794 38.26855 29.92456 38.48979 29.85118 38.84459 29.73448 39.06583 29.66219 39.28706 29.58987 39.64186 29.47487 39.8631 29.40343 40.08432 29.332 40.4391 29.2179 40.66035 29.14728 40.88159 29.07668 41.23639 28.96411 41.45761 28.8945 41.67885 28.8249 42.03365 28.71432 42.25487 28.64561 42.4761 28.57692 42.8309 28.46721 43.05214 28.39932 43.27336 28.33145 43.62816 28.22357 43.8494 28.15642 44.07063 28.08926 44.42542 27.98155 44.64667 27.91531 44.8679 27.84908 45.22269 27.74422 45.44392 27.6789 45.66516 27.61359 46.01996 27.50917 46.24118 27.44453 46.46242 27.37991 46.81721 27.27713 47.03844 27.21304 47.25967 27.14894 47.61447 27.04596 47.83571 26.98257 48.05695 26.91922 48.41173 26.81866 48.63298 26.75629 48.85422 26.69388 49.209 26.59464 49.43022 26.53282 49.65147 26.471 50.00626 26.37178 50.2275 26.31068 50.44873 26.24957 50.80353 26.15305 51.02477 26.0924 51.24599 26.03177 51.60078 25.93355 51.82202 25.87363 52.04324 25.8137 52.39806 25.71982 52.61928 25.66057 52.84052 25.60129 53.1953 25.50528 53.41653 25.44644 53.63779 25.38762 53.99257 25.29504 54.2138 25.2365 54.43504 25.17795 54.78984 25.08253 55.01108 25.02446 55.23228 24.96638 55.5871 24.87491 55.80832 24.81787 56.02956 24.76083 56.38435 24.6699 56.60559 24.61337 56.82683 24.55685 57.18161 24.46645 57.40286 24.41043 57.6241 24.3544 57.97888 24.26508 58.20012 24.20955 58.42134 24.15402 58.77615 24.06526 58.99738 24.01024 59.21861 23.95523 59.57341 23.86761 59.79465 23.81299 60.01587 23.75838 60.37067 23.67061 60.5919 23.61655 60.81313 23.56245 61.16792 23.4767 61.38918 23.42319 61.6104 23.36967 61.96518 23.28398 62.18642 23.23088 62.40765 23.17778 62.76245 23.093 62.98369 23.0404 63.20493 22.9878 63.55972 22.90402 63.78096 22.85172 64.0022 22.7994 64.357 22.71513 64.57823 22.6633 64.79944 22.61147 65.15424 22.52928 65.37547 22.478 65.5967 22.42673 65.95149 22.34465 66.17273 22.29373 66.39398 22.24281 66.74876 22.16158 66.97 22.11102 67.19124 22.06049 67.54604 21.97964 67.76726 21.92937 67.9885 21.87906 68.34328 21.79826 68.56453 21.74847 68.78577 21.69867 69.14056 21.61974 69.36179 21.57043 69.58302 21.52115 69.93782 21.44211 70.15904 21.39317 70.38028 21.34425 70.73508 21.26646 70.9563 21.21774 71.17754 21.16902 71.53233 21.09035 71.75357 21.04204 71.97481 20.99373 72.32959 20.91742 72.55084 20.86945 72.77208 20.82149 73.12686 20.74399 73.3481 20.69635 73.56934 20.64871 73.92415 20.57323 74.14536 20.5261 74.3666 20.47897 74.72139 20.40355 74.94261 20.35664 75.16385 20.30972 75.51865 20.23454 75.73988 20.18794 75.96112 20.14136 76.31592 20.06711 76.53716 20.02081 76.75838 19.97452 77.11317 19.90028 77.3344 19.85419 77.55565 19.8081 77.91045 19.73415 78.13167 19.68861 78.3529 19.64308 78.7077 19.57101 78.92892 19.5259 79.15016 19.48077 79.50496 19.40846 79.7262 19.36343 79.94742 19.31839 80.30223 19.2461 80.52345 19.20123 80.74469 19.15637 81.09947 19.08441 81.32072 19.04005 81.54196 18.9957 81.89674 18.92563 82.11798 18.88148 82.33922 18.83736 82.69402 18.76582 82.91525 18.72188 83.13647 18.67796 83.49127 18.60818 83.7125 18.56488 83.93373 18.52155 84.28853 18.45288 84.50977 18.40968 84.731 18.36646 85.08578 18.29662 85.30704 18.25345 85.52827 18.21028 85.88306 18.14122 86.1043 18.0985 86.32552 18.05579 86.68031 17.98802 86.90155 17.94565 87.12279 17.90327 87.47758 17.83542 87.69882 17.79305 87.92004 17.75067 88.27484 17.68228 88.49608 17.64018 88.7173 17.5981 89.07211 17.53131 89.29335 17.48965 89.51457 17.448 89.86935 17.38142 90.09059 17.33992 90.31184 17.2984 90.66663 17.23183 90.88786 17.19041 91.1091 17.14902 91.4639 17.08253 91.68513 17.04146 91.90637 17.00037 92.26117 16.93503 92.48239 16.89432 92.70361 16.85359 93.05841 16.78825 93.27965 16.74794 93.50087 16.70761 93.85567 16.64392 94.0769 16.60364 94.29816 16.56335 94.65294 16.49782 94.87418 16.45753 95.09541 16.41724 95.45021 16.35283 95.67143 16.31323 95.89267 16.27362 96.24747 16.21158 96.4687 16.17206 96.68994 16.1325 97.04474 16.06784 97.26596 16.02827 97.4872 15.98871 97.842 15.92586 98.06323 15.88684 98.28444 15.8478 98.63925 15.78586 98.86047 15.74695 99.08171 15.70802 99.43651 15.64525 99.65775 15.60628 99.87898 15.56734 100.23378 15.50465 100.45502 15.46614 100.67625 15.42761 101.03104 15.36674 101.25227 15.32858 101.47351 15.29044 102.04953 15.19104 100.2039 15.50946"/>
<path transform="matrix(.9854591,.1700185,.1700202,-.98544928,211.33078,142.63199)" d="M1.27522 0C-.31879 .31879-1.91284 .9564-3.8257 2.07224-1.91284 .6376-1.91284-.6376-3.8257-2.07224-1.91284-.9564-.31879-.31879 1.27522 0Z" fill="#ff0000"/>
<path transform="matrix(.9854591,.1700185,.1700202,-.98544928,211.33078,142.63199)" stroke-width="1.19553" stroke-linecap="butt" stroke-linejoin="round" fill="none" stroke="#ff0000" d="M1.27522 0C-.31879 .31879-1.91284 .9564-3.8257 2.07224-1.91284 .6376-1.91284-.6376-3.8257-2.07224-1.91284-.9564-.31879-.31879 1.27522 0Z"/>
<path transform="matrix(1.00006,0,0,-1.00005,111.12089,158.14225)" stroke-width="1.19553" stroke-linecap="butt" stroke-miterlimit="10" stroke-linejoin="miter" fill="none" stroke="#ff0000" d="M0 68.03302C0 68.03302-.576 76.68921-.79724 78.52277-1.01846 80.35632-1.37326 80.60461-1.5945 81.24805-1.81575 81.89148-2.17053 82.68387-2.39177 83.16025-2.613 83.6366-2.9678 84.29228-3.18903 84.68132-3.41026 85.07036-3.76506 85.63036-3.9863 85.96414-4.20752 86.29793-4.56232 86.79192-4.78355 87.08711-5.00478 87.38231-5.35957 87.82574-5.58081 88.09174-5.80206 88.35774-6.15685 88.76096-6.37807 89.00423-6.5993 89.24751-6.9541 89.62029-7.17534 89.8451-7.39658 90.06989-7.75136 90.41513-7.97261 90.62444-8.19385 90.83376-8.54865 91.15732-8.76987 91.35371-8.99109 91.55011-9.3459 91.85463-9.56712 92.0399-9.78835 92.22516-10.14314 92.5134-10.36438 92.68898-10.58562 92.86455-10.94041 93.1383-11.16165 93.30534-11.38289 93.47238-11.73769 93.7335-11.95892 93.89291-12.18015 94.0523-12.53494 94.30159-12.75616 94.45427-12.97742 94.60693-13.33221 94.84636-13.55344 94.9933-13.77467 95.14024-14.12947 95.37184-14.3507 95.51338-14.57193 95.65492-14.92673 95.87717-15.14796 96.0135-15.36919 96.14981-15.724 96.36424-15.94522 96.49594-16.16646 96.62766-16.52124 96.83536-16.7425 96.96283-16.96373 97.0903-17.31851 97.29109-17.53975 97.41466-17.76099 97.53824-18.11578 97.73358-18.33702 97.85353-18.55824 97.97346-18.91304 98.16263-19.13426 98.27914-19.3555 98.39566-19.7103 98.57982-19.93153 98.69334-20.15277 98.8069-20.50755 98.9869-20.7288 99.09743-20.95004 99.20798-21.30482 99.38234-21.52606 99.4901-21.74728 99.59787-22.10208 99.76901-22.32332 99.87419-22.54456 99.97937-22.89935 100.14542-23.12059 100.24817-23.34181 100.35092-23.69661 100.51445-23.91785 100.61488-24.13907 100.7153-24.49387 100.87398-24.7151 100.97198-24.93634 101.06999-25.29112 101.22531-25.51236 101.3213-25.73361 101.4173-26.0884 101.56961-26.30963 101.66388-26.53087 101.75815-26.88567 101.90794-27.1069 102.00073-27.32813 102.09354-27.68292 102.24174-27.90414 102.33267-28.12538 102.4236-28.48018 102.5671-28.70142 102.65605-28.92265 102.74501-29.27744 102.88654-29.49867 102.97397-29.71992 103.0614-30.0747 103.20035-30.29594 103.28616-30.51717 103.37201-30.87198 103.50832-31.0932 103.59267-31.31444 103.67705-31.66924 103.8113-31.89047 103.89426-32.1117 103.9772-32.46649 104.10907-32.68773 104.19063-32.90895 104.27217-33.26375 104.40187-33.485 104.48207-33.70622 104.56226-34.06102 104.68962-34.28224 104.76857-34.50348 104.84755-34.85828 104.97325-35.07951 105.05121-35.30075 105.12915-35.65555 105.25374-35.87679 105.33046-36.09802 105.40718-36.45282 105.52872-36.67404 105.60426-36.89526 105.6798-37.25008 105.80042-37.4713 105.87494-37.69252 105.94946-38.04732 106.06808-38.26855 106.14146-38.48979 106.21484-38.84459 106.33156-39.06583 106.40385-39.28706 106.47615-39.64186 106.59116-39.8631 106.6626-40.08432 106.73404-40.4391 106.84814-40.66035 106.91875-40.88159 106.98936-41.23639 107.10193-41.45761 107.17152-41.67885 107.24113-42.03365 107.35172-42.25487 107.42041-42.4761 107.4891-42.8309 107.59883-43.05214 107.66672-43.27336 107.73457-43.62816 107.84247-43.8494 107.9096-44.07063 107.97678-44.42542 108.08446-44.64667 108.15071-44.8679 108.21696-45.22269 108.32182-45.44392 108.38713-45.66516 108.45245-46.01996 108.55687-46.24118 108.62149-46.46242 108.68613-46.81721 108.7889-47.03844 108.853-47.25967 108.91708-47.61447 109.02007-47.83571 109.08345-48.05695 109.14682-48.41173 109.24736-48.63298 109.30975-48.85422 109.37216-49.209 109.47139-49.43022 109.53322-49.65147 109.59503-50.00626 109.69426-50.2275 109.75536-50.44873 109.81647-50.80353 109.913-51.02477 109.97363-51.24599 110.03427-51.60078 110.13249-51.82202 110.1924-52.04324 110.25232-52.39806 110.3462-52.61928 110.40547-52.84052 110.46472-53.1953 110.56075-53.41653 110.61958-53.63779 110.67842-53.99257 110.77098-54.2138 110.82953-54.43504 110.88809-54.78984 110.98349-55.01108 111.04156-55.23228 111.09964-55.5871 111.19112-55.80832 111.24817-56.02956 111.3052-56.38435 111.39613-56.60559 111.45265-56.82683 111.50919-57.18161 111.59958-57.40286 111.65561-57.6241 111.71162-57.97888 111.80096-58.20012 111.85649-58.42134 111.912-58.77615 112.00076-58.99738 112.0558-59.21861 112.11081-59.57341 112.19843-59.79465 112.25304-60.01587 112.30766-60.37067 112.39542-60.5919 112.4495-60.81313 112.50357-61.16792 112.58934-61.38918 112.64285-61.6104 112.69635-61.96518 112.78204-62.18642 112.83516-62.40765 112.88826-62.76245 112.97304-62.98369 113.02563-63.20493 113.07823-63.55972 113.162-63.78096 113.21432-64.0022 113.26663-64.357 113.35089-64.57823 113.40274-64.79944 113.45457-65.15424 113.53676-65.37547 113.58803-65.5967 113.6393-65.95149 113.72139-66.17273 113.7723-66.39398 113.82321-66.74876 113.90446-66.97 113.95502-67.19124 114.00555-67.54604 114.08638-67.76726 114.13667-67.9885 114.18698-68.34328 114.26776-68.56453 114.31757-68.78577 114.36736-69.14056 114.4463-69.36179 114.49559-69.58302 114.54489-69.93782 114.62393-70.15904 114.67285-70.38028 114.72179-70.73508 114.79958-70.9563 114.8483-71.17754 114.897-71.53233 114.97568-71.75357 115.024-71.97481 115.07231-72.32959 115.14862-72.55084 115.19656-72.77208 115.24454-73.12686 115.32205-73.3481 115.36967-73.56934 115.41731-73.92415 115.4928-74.14536 115.53992-74.3666 115.58707-74.72139 115.66248-74.94261 115.7094-75.16385 115.7563-75.51865 115.8315-75.73988 115.87808-75.96112 115.92467-76.31592 115.99892-76.53716 116.04523-76.75838 116.09152-77.11317 116.16574-77.3344 116.21184-77.55565 116.25793-77.91045 116.33186-78.13167 116.37741-78.3529 116.42296-78.7077 116.49501-78.92892 116.54013-79.15016 116.58524-79.50496 116.65756-79.7262 116.7026-79.94742 116.74765-80.30223 116.81995-80.52345 116.8648-80.74469 116.90967-81.09947 116.98161-81.32072 117.02596-81.54196 117.07033-81.89674 117.1404-82.11798 117.18456-82.33922 117.22868-82.69402 117.30022-82.91525 117.34415-83.13647 117.38808-83.49127 117.45784-83.7125 117.50116-83.93373 117.54446-84.28853 117.61316-84.50977 117.65636-84.731 117.69955-85.08578 117.76941-85.30704 117.81259-85.52827 117.85576-85.88306 117.92482-86.1043 117.96753-86.32552 118.01022-86.68031 118.07802-86.90155 118.12038-87.12279 118.16277-87.47758 118.2306-87.69882 118.27298-87.92004 118.31537-88.27484 118.38376-88.49608 118.42586-88.7173 118.46794-89.07211 118.53471-89.29335 118.57639-89.51457 118.61804-89.86935 118.6846-90.09059 118.72612-90.31184 118.76764-90.66663 118.83421-90.88786 118.8756-91.1091 118.917-91.4639 118.98349-91.68513 119.02458-91.90637 119.06566-92.26117 119.13101-92.48239 119.17172-92.70361 119.21243-93.05841 119.27777-93.27965 119.3181-93.50087 119.35843-93.85567 119.4221-94.0769 119.46239-94.29816 119.50269-94.65294 119.56822-94.87418 119.6085-95.09541 119.64879-95.45021 119.7132-95.67143 119.7528-95.89267 119.7924-96.24747 119.85446-96.4687 119.89398-96.68994 119.9335-97.04474 119.9982-97.26596 120.03777-97.4872 120.07733-97.842 120.14018-98.06323 120.1792-98.28444 120.21825-98.63925 120.28017-98.86047 120.31909-99.08171 120.358-99.43651 120.42079-99.65775 120.45975-99.87898 120.4987-100.23378 120.56137-100.45502 120.5999-100.67625 120.63843-101.03104 120.69928-101.25227 120.73744-101.47351 120.7756-102.04953 120.875-100.2039 120.55658"/>
<path transform="matrix(-.9854591,-.1700185,-.1700202,.98544928,10.910988,37.579668)" d="M1.27522 0C-.31879 .31879-1.91284 .9564-3.8257 2.07224-1.91284 .6376-1.91284-.6376-3.8257-2.07224-1.91284-.9564-.31879-.31879 1.27522 0Z" fill="#ff0000"/>
<path transform="matrix(-.9854591,-.1700185,-.1700202,.98544928,10.910988,37.579668)" stroke-width="1.19553" stroke-linecap="butt" stroke-linejoin="round" fill="none" stroke="#ff0000" d="M1.27522 0C-.31879 .31879-1.91284 .9564-3.8257 2.07224-1.91284 .6376-1.91284-.6376-3.8257-2.07224-1.91284-.9564-.31879-.31879 1.27522 0Z"/>
</svg>
