<svg xmlns="http://www.w3.org/2000/svg" xmlns:xlink="http://www.w3.org/1999/xlink" version="1.1" width="256" height="161" viewBox="0 0 256 161">
<defs>
<path id="font_1_1" d="M.15899658 .07795715C.14898682 .038986207 .14698792 .0309906 .067993167 .0309906 .050994874 .0309906 .039993287 .0309906 .039993287 .011993408 .039993287 0 .04899597 0 .067993167 0H.39898683C.6069946 0 .80400088 .21087647 .80400088 .42974855 .80400088 .5706482 .71899417 .6826172 .56900027 .6826172H.23298645C.21398926 .6826172 .20298767 .6826172 .20298767 .66360476 .20298767 .6516113 .21199036 .6516113 .23199463 .6516113 .24499512 .6516113 .2630005 .65060427 .2749939 .6496124 .29100038 .6476135 .29699708 .64460757 .29699708 .6336212 .29699708 .6296234 .29599 .62661746 .29299928 .614624L.15899658 .07795715M.375 .6136322C.38398744 .64860537 .38598634 .6516113 .42900086 .6516113H.5359955C.6339874 .6516113 .71699526 .5986328 .71699526 .46672059 .71699526 .41775514 .69699099 .25386048 .6119995 .1439209 .58299258 .10694885 .5039978 .0309906 .3809967 .0309906H.2679901C.2539978 .0309906 .2519989 .0309906 .24598694 .03199768 .23599243 .032989503 .23298645 .033996583 .23298645 .041992189 .23298645 .04498291 .23298645 .04698181 .23799134 .064971927L.375 .6136322Z"/>
<path id="font_1_2" d="M.43798829 .0055236818C.59298709 .0644989 .73999026 .24256897 .73999026 .43579103 .73999026 .5969696 .6339874 .7050781 .4850006 .7050781 .2689972 .7050781 .04899597 .47784425 .04899597 .24456787 .04899597 .07847595 .16099549-.022460938 .30499269-.022460938 .32998658-.022460938 .3639984-.018463135 .40299989-.007461548 .39898683-.06939697 .39898683-.071380618 .39898683-.084365848 .39898683-.11634827 .39898683-.19433594 .48199464-.19433594 .6009979-.19433594 .6489868-.011474609 .6489868-.00047302247 .6489868 .0065307619 .6419983 .009521484 .6380005 .009521484 .6299896 .009521484 .6279907 .0045318605 .6259918-.0014648438 .60198977-.072387699 .5439911-.097335819 .5089874-.097335819 .46299745-.097335819 .44799806-.070388797 .43798829 .0055236818M.24899292 .013519287C.17098999 .044509889 .13699341 .12245178 .13699341 .21252442 .13699341 .2816162 .16299439 .4237671 .23899842 .5319061 .31199647 .63401797 .4059906 .68006899 .47898866 .68006899 .57899478 .68006899 .6519928 .6019745 .6519928 .4678192 .6519928 .3677063 .6009979 .13345337 .43299867 .039505006 .42799378 .07447815 .41799928 .14746094 .34498597 .14746094 .2919922 .14746094 .24299622 .097473148 .24299622 .04550171 .24299622 .025512696 .24899292 .014526367 .24899292 .013519287M.31098939 .002532959C.29699708 .002532959 .2649994 .002532959 .2649994 .04550171 .2649994 .08547974 .30299378 .12545777 .34498597 .12545777 .3869934 .12545777 .4059906 .10147095 .4059906 .040512086 .4059906 .025512696 .40499879 .024520874 .394989 .020523072 .36898805 .009521484 .33898927 .002532959 .31098939 .002532959Z"/>
</defs>
<path transform="matrix(1.00009,0,0,-1.00006,4.474411,156.26165)" stroke-width=".3985" stroke-linecap="butt" stroke-miterlimit="10" stroke-linejoin="miter" fill="none" stroke="#00aeef" d="M0 0H226.77448M0 17.00824H226.77448M0 34.0165H226.77448M0 51.02477H226.77448M0 68.03302H226.77448M0 85.04128H226.77448M0 102.04953H226.77448M0 119.0578H226.77448M0 136.06009H226.77448M0 0V136.06606M28.3468 0V136.06606M56.69362 0V136.06606M85.04042 0V136.06606M113.38724 0V136.06606M141.73404 0V136.06606M170.08086 0V136.06606M198.42766 0V136.06606M226.76451 0V136.06606M226.77448 136.06606"/>
<path transform="matrix(1.00009,0,0,-1.00006,4.474411,156.26165)" stroke-width=".79701" stroke-linecap="butt" stroke-miterlimit="10" stroke-linejoin="miter" fill="none" stroke="#000000" d="M0 0H236.6784"/>
<path transform="matrix(1.00009,0,0,-1.00006,241.17412,156.26165)" d="M1.0361 0C-.25902 .25902-1.55415 .77707-3.1083 1.68365-1.55415 .51805-1.55415-.51805-3.1083-1.68365-1.55415-.77707-.25902-.25902 1.0361 0Z"/>
<path transform="matrix(1.00009,0,0,-1.00006,241.17412,156.26165)" stroke-width=".79701" stroke-linecap="butt" stroke-linejoin="round" fill="none" stroke="#000000" d="M1.0361 0C-.25902 .25902-1.55415 .77707-3.1083 1.68365-1.55415 .51805-1.55415-.51805-3.1083-1.68365-1.55415-.77707-.25902-.25902 1.0361 0Z"/>
<use data-text="D" xlink:href="#font_1_1" transform="matrix(9.963496,0,0,-9.963197,246.32817,159.66585)"/>
<path transform="matrix(1.00009,0,0,-1.00006,4.474411,156.26165)" stroke-width=".79701" stroke-linecap="butt" stroke-miterlimit="10" stroke-linejoin="miter" fill="none" stroke="#000000" d="M0 0V141.43463"/>
<path transform="matrix(0,-1.00006,-1.00009,-0,4.474411,14.818527)" d="M1.0361 0C-.25902 .25902-1.55415 .77707-3.1083 1.68365-1.55415 .51805-1.55415-.51805-3.1083-1.68365-1.55415-.77707-.25902-.25902 1.0361 0Z"/>
<path transform="matrix(0,-1.00006,-1.00009,-0,4.474411,14.818527)" stroke-width=".79701" stroke-linecap="butt" stroke-linejoin="round" fill="none" stroke="#000000" d="M1.0361 0C-.25902 .25902-1.55415 .77707-3.1083 1.68365-1.55415 .51805-1.55415-.51805-3.1083-1.68365-1.55415-.77707-.25902-.25902 1.0361 0Z"/>
<use data-text="Q" xlink:href="#font_1_2" transform="matrix(9.963496,0,0,-9.963197,.5360565,7.7267305)"/>
<path transform="matrix(1.00009,0,0,-1.00006,4.474411,156.26165)" stroke-width="1.19553" stroke-linecap="butt" stroke-miterlimit="10" stroke-linejoin="miter" fill="none" stroke="#ff0000" d="M0 0C0 0 2.56007 13.67088 3.54333 17.00824 4.5266 20.3456 6.10342 22.32578 7.08669 24.05333 8.06995 25.78085 9.64677 28.07686 10.63004 29.45923 11.6133 30.8416 13.19012 32.82715 14.17339 34.0165 15.15665 35.20586 16.73347 36.97064 17.71674 38.03136 18.70001 39.09206 20.27682 40.69452 21.2601 41.66133 22.24336 42.62816 23.82019 44.1054 24.80345 44.99962 25.78671 45.89386 27.36354 47.27042 28.3468 48.1064 29.33006 48.94237 30.90688 50.2369 31.89014 51.02477 32.8734 51.81264 34.45023 53.03763 35.43349 53.7848 36.41676 54.53198 37.99358 55.69766 38.97685 56.40991 39.96011 57.12216 41.53694 58.23642 42.5202 58.91823 43.50346 59.60005 45.08029 60.66904 46.06355 61.32404 47.04681 61.97902 48.62364 63.00787 49.6069 63.63899 50.59016 64.27011 52.16699 65.26308 53.15025 65.87273 54.13353 66.48238 55.71034 67.44281 56.69362 68.03302 57.67688 68.62323 59.2537 69.554 60.23695 70.12662 61.22021 70.6992 62.79704 71.60356 63.7803 72.15999 64.76357 72.71642 66.3404 73.59549 67.32365 74.13705 68.30692 74.67862 69.88374 75.5354 70.867 76.06325 71.85028 76.5911 73.4271 77.42635 74.41037 77.94144 75.39363 78.45654 76.97046 79.27249 77.95372 79.77576 78.93698 80.27905 80.51381 81.07666 81.49707 81.56882 82.48033 82.06099 84.05716 82.84117 85.04042 83.32297 86.02368 83.80476 87.6005 84.5692 88.58376 85.04128 89.56702 85.51335 91.14384 86.26245 92.1271 86.72533 93.11038 87.18822 94.6872 87.92323 95.67047 88.37749 96.65373 88.83174 98.23056 89.55322 99.21382 89.99925 100.19708 90.44528 101.77391 91.15396 102.75717 91.59221 103.74043 92.03047 105.31726 92.72704 106.30052 93.15793 107.28378 93.58884 108.86061 94.27408 109.84387 94.69797 110.82715 95.12186 112.40396 95.79588 113.38724 96.21307 114.3705 96.63026 115.94731 97.29396 116.93057 97.7048 117.91383 98.11568 119.49066 98.7695 120.47392 99.17426 121.45718 99.57901 123.03401 100.2232 124.01727 100.62215 125.00053 101.02107 126.57736 101.65619 127.56062 102.04953 128.5439 102.44289 130.12071 103.06921 131.10399 103.4572 132.08725 103.8452 133.66408 104.46307 134.64734 104.84592 135.6306 105.22876 137.20743 105.83856 138.19069 106.21648 139.17395 106.59438 140.75078 107.19649 141.73404 107.56963 142.7173 107.9428 144.29412 108.53735 145.27738 108.90594 146.26065 109.27452 147.83747 109.862 148.82074 110.22615 149.804 110.5903 151.38083 111.17064 152.36409 111.53052 153.34735 111.89038 154.92418 112.46405 155.90744 112.81984 156.8907 113.17563 158.46753 113.74309 159.45079 114.09488 160.43405 114.44669 162.01088 115.00746 162.99414 115.35541 163.9774 115.70335 165.55423 116.2584 166.53749 116.60269 167.52077 116.94696 169.09758 117.49608 170.08086 117.83673 171.06412 118.17735 172.64093 118.72067 173.62419 119.0578 174.60746 119.39491 176.18428 119.9327 177.16754 120.2664 178.1508 120.60013 179.72763 121.1326 180.71089 121.46309 181.69416 121.79356 183.27098 122.32104 184.25424 122.64832 185.23752 122.9756 186.81433 123.49776 187.7976 123.8219 188.78087 124.14606 190.3577 124.66345 191.34096 124.98457 192.32422 125.30571 193.90105 125.81815 194.88431 126.13635 195.86757 126.45454 197.4444 126.96262 198.42766 127.27802 199.41092 127.5934 200.98773 128.09696 201.971 128.40953 202.95427 128.72212 204.53108 129.2211 205.51436 129.53095 206.49762 129.84079 208.07445 130.33554 209.05771 130.64276 210.04097 130.94997 211.6178 131.44055 212.60106 131.74523 213.58432 132.04988 215.16115 132.53646 216.14441 132.8386 217.12767 133.14073 218.7045 133.62317 219.68776 133.9229 220.67104 134.22263 222.24785 134.70153 223.23113 134.99889 224.21439 135.29624 226.77448 136.06606 224.98091 135.5268"/>
<path transform="matrix(.9576862,-.28793726,-.28794594,-.9576574,229.47557,20.726716)" d="M1.27522 0C-.31879 .31879-1.91284 .9564-3.8257 2.07224-1.91284 .6376-1.91284-.6376-3.8257-2.07224-1.91284-.9564-.31879-.31879 1.27522 0Z" fill="#ff0000"/>
<path transform="matrix(.9576862,-.28793726,-.28794594,-.9576574,229.47557,20.726716)" stroke-width="1.19553" stroke-linecap="butt" stroke-linejoin="round" fill="none" stroke="#ff0000" d="M1.27522 0C-.31879 .31879-1.91284 .9564-3.8257 2.07224-1.91284 .6376-1.91284-.6376-3.8257-2.07224-1.91284-.9564-.31879-.31879 1.27522 0Z"/>
</svg>
