<svg xmlns="http://www.w3.org/2000/svg" xmlns:xlink="http://www.w3.org/1999/xlink" version="1.1" width="265" height="117" viewBox="0 0 265 117">
<defs>
<path id="font_1_2" d="M.2869873 .68333438C.2869873 .6843262 .2869873 .69433596 .27398683 .69433596 .25099183 .69433596 .17799378 .6863251 .1519928 .6843262 .14399719 .68333438 .1329956 .6823273 .1329956 .6643219 .1329956 .6523285 .14199829 .6523285 .15699768 .6523285 .20498657 .6523285 .20698548 .6453247 .20698548 .6353302L.20399475 .6153412 .05899048 .039260866C.054992677 .025253296 .054992677 .023254395 .054992677 .01725769 .054992677-.0057525637 .07499695-.0107421879 .083999637-.0107421879 .099990848-.0107421879 .115997318 .0012512207 .12098694 .015258789L.13999939 .091278079 .1619873 .18130493C.16799927 .2033081 .17399597 .22531128 .1789856 .24832154 .18099976 .25431825 .18899536 .28733827 .18998719 .29333497 .19299317 .30233766 .22399903 .35835267 .2579956 .38536073 .27999879 .4013672 .31098939 .42037965 .35398866 .42037965 .39698792 .42037965 .4079895 .3863678 .4079895 .35035707 .4079895 .29634095 .36999513 .18730164 .34599305 .12628174 .33799745 .103271488 .33299256 .091278079 .33299256 .0712738 .33299256 .024261475 .36799623-.0107421879 .4149933-.0107421879 .5089874-.0107421879 .54599 .13528443 .54599 .14329529 .54599 .1532898 .5369873 .1532898 .5339966 .1532898 .5239868 .1532898 .5239868 .15029907 .5189972 .13528443 .5039978 .08227539 .47200013 .011245728 .4169922 .011245728 .3999939 .011245728 .3929901 .021255494 .3929901 .044265748 .3929901 .0692749 .4019928 .09327698 .41099549 .11528015 .4269867 .15829468 .47200013 .2773285 .47200013 .3353424 .47200013 .4003601 .43199159 .4423828 .35699464 .4423828 .2939911 .4423828 .24598694 .41137696 .20899964 .36535646L.2869873 .68333438Z"/>
<path id="font_1_1" d="M.4269867 .6066284C.43399049 .63461306 .43798829 .64060977 .44999696 .6436157 .45899964 .6456146 .49198915 .6456146 .5130005 .6456146 .6139984 .6456146 .6589966 .6416168 .6589966 .56365969 .6589966 .54867556 .6549988 .50968936 .651001 .4837036 .6499939 .4797058 .647995 .4677124 .647995 .46472169 .647995 .45872499 .651001 .45173646 .6599884 .45173646 .67099 .45173646 .6729889 .45973207 .6749878 .4747162L.70199587 .64860537C.7029877 .65260317 .70399478 .6626129 .70399478 .66560366 .70399478 .6766052 .69400027 .6766052 .6769867 .6766052H.12199402C.09799194 .6766052 .09700012 .6756134 .08999634 .6566162L.02999878 .4807129C.0289917 .478714 .023986817 .46472169 .023986817 .46272279 .023986817 .45672608 .0289917 .45173646 .035995485 .45173646 .04598999 .45173646 .04699707 .45672608 .052993776 .4727173 .10699463 .6276245 .1329956 .6456146 .2809906 .6456146H.31999208C.34799195 .6456146 .34799195 .6416168 .34799195 .6336212 .34799195 .6276245 .34498597 .6156311 .34399415 .6126251L.20999146 .07896423C.20098877 .041992189 .19799805 .0309906 .09098816 .0309906 .054992677 .0309906 .04899597 .0309906 .04899597 .011993408 .04899597 0 .05999756 0 .06599426 0 .09298706 0 .12098694 .0019989014 .147995 .0019989014 .17599488 .0019989014 .20498657 .0029907227 .23298645 .0029907227 .26098634 .0029907227 .2889862 .0019989014 .31599427 .0019989014 .34498597 .0019989014 .375 0 .40299989 0 .41299439 0 .4249878 0 .4249878 .019989014 .4249878 .0309906 .4169922 .0309906 .3909912 .0309906 .3659973 .0309906 .35299684 .0309906 .32699586 .032989503 .2979889 .035995485 .2899933 .038986207 .2899933 .054977418 .2899933 .05596924 .2899933 .06097412 .2939911 .07595825L.4269867 .6066284Z"/>
<path id="font_2_56" d="M.44898988 .20091248C.44898988 .31991578 .36698915 .41992188 .25898744 .41992188 .21099854 .41992188 .16799927 .4039154 .13198853 .36891175V.5641022C.1519928 .55778506 .18499756 .55078127 .21699524 .55078127 .33999635 .55078127 .4099884 .6418457 .4099884 .65493777 .4099884 .6609802 .40699769 .6660156 .3999939 .6660156 .3999939 .66607668 .39698792 .66607668 .3919983 .66308596 .37199403 .65408328 .32299806 .63378909 .2559967 .63378909 .21598816 .63409426 .16999817 .641098 .12298584 .6621094 .114990238 .6651001 .11099243 .6651001 .11099243 .6651001 .100997928 .66508486 .100997928 .657074 .100997928 .64108279V.3447113C.100997928 .3266449 .100997928 .31861878 .114990238 .31861878 .12199402 .31861878 .12399292 .32164 .12799073 .32765199 .13899231 .34371949 .17599488 .3979187 .25698854 .3979187 .30899049 .3979187 .33399964 .3517456 .34199525 .3336792 .35798646 .2965393 .3600006 .2574005 .3600006 .20721436 .3600006 .17218018 .3600006 .112197879 .33599855 .07032776 .31199647 .031448366 .2749939 .0055389406 .22898865 .0055389406 .1559906 .0055389406 .09899902 .05836487 .08198547 .1171875 .084991458 .11685181 .08799744 .115859989 .09899902 .115859989 .13198853 .115859989 .14898682 .14085388 .14898682 .16485596 .14898682 .18885803 .13198853 .21386719 .09899902 .21386719 .084991458 .21386719 .049987794 .2068634 .049987794 .16085816 .049987794 .07432556 .11898804-.022460938 .23098755-.022460938 .34700013-.022460938 .44898988 .07331848 .44898988 .20019531V.20091248Z"/>
<path id="font_2_121" d="M.45999146 .31976319C.45999146 .39982606 .45498658 .47988893 .41999818 .5539398 .37399293 .65000918 .2919922 .6660156 .25 .6660156 .18998719 .6660156 .116989139 .64001467 .07598877 .54693606 .04399109 .47789 .038986207 .39982606 .038986207 .31976319 .038986207 .24472046 .042999269 .15464783 .083999637 .07859802 .1269989-.0024719239 .19999695-.022460938 .24899292-.022460938 .30299378-.022460938 .3789978-.0014648438 .4229889 .09359741 .45498658 .16265869 .45999146 .2407074 .45999146 .31976319M.3769989 .3317871C.3769989 .25672914 .3769989 .18867493 .3659973 .12461853 .35099793 .029556275 .2939911-.00047302247 .24899292-.00047302247 .20999146-.00047302247 .15098572 .024551392 .1329956 .12062073 .12199402 .18066406 .12199402 .2727356 .12199402 .3317871 .12199402 .39582826 .12199402 .46188355 .12998963 .5159149 .14898682 .63500979 .22399903 .64401248 .24899292 .64401248 .28199769 .64401248 .34799195 .6259918 .36698915 .52693179 .3769989 .47088624 .3769989 .39482118 .3769989 .3317871Z"/>
<path id="font_2_82" d="M.4189911 0V.0309906H.3869934C.29699708 .0309906 .2939911 .041992189 .2939911 .07902527V.64012148C.2939911 .6640167 .2939911 .6660156 .2709961 .6660156 .20899964 .60227969 .12098694 .60227969 .08898926 .60227969V.57128909C.10899353 .57128909 .16799927 .57128909 .21998596 .5972748V.07902527C.21998596 .042999269 .21699524 .0309906 .1269989 .0309906H.09498596V0C.12998963 .0029907227 .21699524 .0029907227 .25698854 .0029907227 .29699708 .0029907227 .38398744 .0029907227 .4189911 0Z"/>
<path id="font_2_45" d="M.20298767 .0009918213C.20298767 .06498718 .1789856 .10598755 .13899231 .10598755 .10398865 .10598755 .085998538 .07899475 .085998538 .052993776 .085998538 .026992798 .102996829 0 .13899231 0 .1539917 0 .16799927 .005996704 .1789856 .015991211 .18099976-.06312561 .15299988-.12423706 .10899353-.17132569 .102996829-.17733765 .101989749-.17834473 .101989749-.18234253 .101989749-.18936157 .10699463-.19335938 .11199951-.19335938 .12399292-.19335938 .20298767-.114227298 .20298767 .0009918213Z"/>
<path id="font_2_107" d="M.44898988 .17396546H.42399598C.4189911 .14398194 .4119873 .099990848 .4019928 .084991458 .394989 .07699585 .32899476 .07699585 .30699159 .07699585H.1269989L.23298645 .17996216C.3889923 .31803895 .44898988 .37210084 .44898988 .47216798 .44898988 .5860901 .35899354 .6660156 .23699951 .6660156 .12399292 .6660156 .049987794 .57411196 .049987794 .48516847 .049987794 .4291687 .099990848 .4291687 .102996829 .4291687 .11999512 .4291687 .15499878 .44117738 .15499878 .48217774 .15499878 .5081787 .13699341 .5341797 .101989749 .5341797 .09399414 .5341797 .09199524 .5341797 .08898926 .5331726 .11199951 .59806826 .1659851 .63500979 .22399903 .63500979 .31498719 .63500979 .35798646 .5541382 .35798646 .47216798 .35798646 .39196778 .30799867 .31297303 .25299073 .25097657L.06098938 .036987306C.049987794 .025985718 .049987794 .023986817 .049987794 0H.42099L.44898988 .17396546Z"/>
<path id="font_3_2" d="M.44898988 .20022583C.44898988 .3193512 .36698915 .41944886 .25898744 .41944886 .21099854 .41944886 .16799927 .40345765 .13198853 .36842347V.5637665C.1519928 .5577698 .18499756 .55078127 .21699524 .55078127 .33999635 .55078127 .4099884 .6417694 .4099884 .6547699 .4099884 .6607666 .40699769 .6657715 .3999939 .6657715 .39898683 .6657715 .39698792 .6657715 .3919983 .66278079 .37199403 .6537781 .32299806 .6337738 .2559967 .6337738 .21598816 .6337738 .16999817 .6407776 .12298584 .6617737 .114990238 .66477969 .11299133 .66477969 .11099243 .66477969 .100997928 .66477969 .100997928 .6567688 .100997928 .6407776V.34439088C.100997928 .32637025 .100997928 .31835938 .114990238 .31835938 .12199402 .31835938 .12399292 .32136537 .12799073 .32736207 .13899231 .3433838 .17599488 .39746095 .25698854 .39746095 .30899049 .39746095 .33399964 .35139466 .34199525 .33337403 .35798646 .29632569 .3600006 .25727845 .3600006 .20722962 .3600006 .17222595 .3600006 .11222839 .33599855 .07035828 .31199647 .031463624 .2749939 .0055389406 .22898865 .0055389406 .1559906 .0055389406 .09899902 .058380128 .08198547 .11723328 .084991458 .1162262 .08799744 .115234378 .09899902 .115234378 .13198853 .115234378 .14898682 .14022827 .14898682 .16423035 .14898682 .18823242 .13198853 .21322632 .09899902 .21322632 .084991458 .21322632 .049987794 .20622254 .049987794 .16023255 .049987794 .07434082 .11898804-.022460938 .23098755-.022460938 .34700013-.022460938 .44898988 .073349 .44898988 .20022583Z"/>
<path id="font_3_1" d="M.45999146 .31976319C.45999146 .39982606 .45498658 .47988893 .41999818 .5539398 .37399293 .65000918 .2919922 .6660156 .25 .6660156 .18998719 .6660156 .116989139 .64001467 .07598877 .54693606 .04399109 .47789 .038986207 .39982606 .038986207 .31976319 .038986207 .24472046 .042999269 .15464783 .083999637 .07859802 .1269989-.0024719239 .19999695-.022460938 .24899292-.022460938 .30299378-.022460938 .3789978-.0014648438 .4229889 .09359741 .45498658 .16265869 .45999146 .2407074 .45999146 .31976319M.24899292-.00047302247C.20999146-.00047302247 .15098572 .024551392 .1329956 .12062073 .12199402 .18066406 .12199402 .2727356 .12199402 .3317871 .12199402 .39582826 .12199402 .46188355 .12998963 .5159149 .14898682 .63500979 .22399903 .64401248 .24899292 .64401248 .28199769 .64401248 .34799195 .6259918 .36698915 .52693179 .3769989 .47088624 .3769989 .39482118 .3769989 .3317871 .3769989 .25672914 .3769989 .18867493 .3659973 .12461853 .35099793 .029556275 .2939911-.00047302247 .24899292-.00047302247Z"/>
</defs>
<path transform="matrix(1.00006,0,0,-1.00005,16.063118,101.839488)" stroke-width=".3985" stroke-linecap="butt" stroke-miterlimit="10" stroke-linejoin="miter" fill="none" stroke="#00aeef" d="M0-11.33855H226.77101M0 0H226.77101M0 11.33855H226.77101M0 22.6771H226.77101M0 34.01564H226.77101M0 45.35419H226.77101M0 56.69275H226.77101M0 68.0313H226.77101M0 79.36984H226.77101M0 90.7044H226.77101M0-11.33855V90.70839M11.33855-11.33855V90.70839M22.6771-11.33855V90.70839M34.01564-11.33855V90.70839M45.35419-11.33855V90.70839M56.69275-11.33855V90.70839M68.0313-11.33855V90.70839M79.36984-11.33855V90.70839M90.70839-11.33855V90.70839M102.04694-11.33855V90.70839M113.3855-11.33855V90.70839M124.72404-11.33855V90.70839M136.06259-11.33855V90.70839M147.40114-11.33855V90.70839M158.7397-11.33855V90.70839M170.07825-11.33855V90.70839M181.4168-11.33855V90.70839M192.75534-11.33855V90.70839M204.09389-11.33855V90.70839M215.43247-11.33855V90.70839M226.76703-11.33855V90.70839M226.77101 90.70839"/>
<path transform="matrix(1.00006,0,0,-1.00005,16.063118,101.839488)" stroke-width="1.19553" stroke-linecap="butt" stroke-miterlimit="10" stroke-linejoin="miter" fill="none" stroke="#000000" d="M0 0H236.23656"/>
<path transform="matrix(1.00006,0,0,-1.00005,252.31385,101.839488)" d="M1.27522 0C-.31879 .31879-1.91284 .9564-3.8257 2.07224-1.91284 .6376-1.91284-.6376-3.8257-2.07224-1.91284-.9564-.31879-.31879 1.27522 0Z"/>
<path transform="matrix(1.00006,0,0,-1.00005,252.31385,101.839488)" stroke-width="1.19553" stroke-linecap="butt" stroke-linejoin="round" fill="none" stroke="#000000" d="M1.27522 0C-.31879 .31879-1.91284 .9564-3.8257 2.07224-1.91284 .6376-1.91284-.6376-3.8257-2.07224-1.91284-.9564-.31879-.31879 1.27522 0Z"/>
<use data-text="h" xlink:href="#font_1_2" transform="matrix(9.963197,0,0,-9.963098,258.10563,105.29866)"/>
<path transform="matrix(1.00006,0,0,-1.00005,16.063118,101.839488)" stroke-width="1.19553" stroke-linecap="butt" stroke-miterlimit="10" stroke-linejoin="miter" fill="none" stroke="#000000" d="M0-11.33855V95.6386"/>
<path transform="matrix(0,-1.00005,-1.00006,-0,16.063118,6.196106)" d="M1.27522 0C-.31879 .31879-1.91284 .9564-3.8257 2.07224-1.91284 .6376-1.91284-.6376-3.8257-2.07224-1.91284-.9564-.31879-.31879 1.27522 0Z"/>
<path transform="matrix(0,-1.00005,-1.00006,-0,16.063118,6.196106)" stroke-width="1.19553" stroke-linecap="butt" stroke-linejoin="round" fill="none" stroke="#000000" d="M1.27522 0C-.31879 .31879-1.91284 .9564-3.8257 2.07224-1.91284 .6376-1.91284-.6376-3.8257-2.07224-1.91284-.9564-.31879-.31879 1.27522 0Z"/>
<use data-text="T" xlink:href="#font_1_1" transform="matrix(9.963197,0,0,-9.963098,6.931572,7.7267839)"/>
<path transform="matrix(1.00006,0,0,-1.00005,16.063118,101.839488)" stroke-width=".79701" stroke-linecap="butt" stroke-miterlimit="10" stroke-linejoin="miter" fill="none" stroke="#0092b8" d="M56.69275-11.33855V90.70839"/>
<path transform="matrix(1.00006,0,0,-1.00005,16.063118,101.839488)" stroke-width=".79701" stroke-linecap="butt" stroke-miterlimit="10" stroke-linejoin="miter" fill="none" stroke="#0092b8" d="M113.3855-11.33855V90.70839"/>
<path transform="matrix(1.00006,0,0,-1.00005,16.063118,101.839488)" stroke-width=".79701" stroke-linecap="butt" stroke-miterlimit="10" stroke-linejoin="miter" fill="none" stroke="#0092b8" d="M170.07825-11.33855V90.70839"/>
<path transform="matrix(1.00006,0,0,-1.00005,16.063118,101.839488)" stroke-width=".79701" stroke-linecap="butt" stroke-miterlimit="10" stroke-linejoin="miter" fill="none" stroke="#0092b8" d="M226.77101-11.33855V90.70839"/>
<path transform="matrix(1.00006,0,0,-1.00005,16.063118,101.839488)" stroke-width=".3985" stroke-linecap="butt" stroke-miterlimit="10" stroke-linejoin="miter" fill="none" stroke="#000000" d="M56.69275 1.13391V-1.13391"/>
<path transform="matrix(1.00006,0,0,-1.00005,16.063118,101.839488)" d="M44.73743-14.16518H68.64807V-3.3257199H44.73743Z" fill="#ffffff"/>
<use data-text="5" xlink:href="#font_2_56" transform="matrix(9.963197,0,0,-9.963098,62.79592,113.79308)"/>
<use data-text="0" xlink:href="#font_2_121" transform="matrix(9.963197,0,0,-9.963098,67.77752,113.79308)"/>
<use data-text="0" xlink:href="#font_2_121" transform="matrix(9.963197,0,0,-9.963098,72.75912,113.79308)"/>
<use data-text="0" xlink:href="#font_2_121" transform="matrix(9.963197,0,0,-9.963098,77.74072,113.79308)"/>
<path transform="matrix(1.00006,0,0,-1.00005,16.063118,101.839488)" stroke-width=".3985" stroke-linecap="butt" stroke-miterlimit="10" stroke-linejoin="miter" fill="none" stroke="#000000" d="M113.3855 1.13391V-1.13391"/>
<path transform="matrix(1.00006,0,0,-1.00005,16.063118,101.839488)" d="M97.55466-15.8688H129.21633V-3.3257104H97.55466Z" fill="#ffffff"/>
<use data-text="1" xlink:href="#font_2_82" transform="matrix(9.963197,0,0,-9.963098,115.61608,113.79308)"/>
<use data-text="0" xlink:href="#font_2_121" transform="matrix(9.963197,0,0,-9.963098,120.59768,113.79308)"/>
<use data-text="," xlink:href="#font_2_45" transform="matrix(9.963197,0,0,-9.963098,125.57928,113.79308)"/>
<use data-text="0" xlink:href="#font_2_121" transform="matrix(9.963197,0,0,-9.963098,128.34905,113.79308)"/>
<use data-text="0" xlink:href="#font_2_121" transform="matrix(9.963197,0,0,-9.963098,133.33065,113.79308)"/>
<use data-text="0" xlink:href="#font_2_121" transform="matrix(9.963197,0,0,-9.963098,138.31226,113.79308)"/>
<path transform="matrix(1.00006,0,0,-1.00005,16.063118,101.839488)" stroke-width=".3985" stroke-linecap="butt" stroke-miterlimit="10" stroke-linejoin="miter" fill="none" stroke="#000000" d="M170.07825 1.13391V-1.13391"/>
<path transform="matrix(1.00006,0,0,-1.00005,16.063118,101.839488)" d="M154.2474-15.8688H185.90908V-3.3257104H154.2474Z" fill="#ffffff"/>
<use data-text="1" xlink:href="#font_2_82" transform="matrix(9.963197,0,0,-9.963098,172.3125,113.79308)"/>
<use data-text="5" xlink:href="#font_2_56" transform="matrix(9.963197,0,0,-9.963098,177.2941,113.79308)"/>
<use data-text="," xlink:href="#font_2_45" transform="matrix(9.963197,0,0,-9.963098,182.2757,113.79308)"/>
<use data-text="0" xlink:href="#font_2_121" transform="matrix(9.963197,0,0,-9.963098,185.04546,113.79308)"/>
<use data-text="0" xlink:href="#font_2_121" transform="matrix(9.963197,0,0,-9.963098,190.02706,113.79308)"/>
<use data-text="0" xlink:href="#font_2_121" transform="matrix(9.963197,0,0,-9.963098,195.00867,113.79308)"/>
<path transform="matrix(1.00006,0,0,-1.00005,16.063118,101.839488)" stroke-width=".3985" stroke-linecap="butt" stroke-miterlimit="10" stroke-linejoin="miter" fill="none" stroke="#000000" d="M226.77101 1.13391V-1.13391"/>
<path transform="matrix(1.00006,0,0,-1.00005,16.063118,101.839488)" d="M210.94017-15.8688H242.60184V-3.3257104H210.94017Z" fill="#ffffff"/>
<use data-text="2" xlink:href="#font_2_107" transform="matrix(9.963197,0,0,-9.963098,229.00888,113.79308)"/>
<use data-text="0" xlink:href="#font_2_121" transform="matrix(9.963197,0,0,-9.963098,233.99048,113.79308)"/>
<use data-text="," xlink:href="#font_2_45" transform="matrix(9.963197,0,0,-9.963098,238.97208,113.79308)"/>
<use data-text="0" xlink:href="#font_2_121" transform="matrix(9.963197,0,0,-9.963098,241.74185,113.79308)"/>
<use data-text="0" xlink:href="#font_2_121" transform="matrix(9.963197,0,0,-9.963098,246.72345,113.79308)"/>
<use data-text="0" xlink:href="#font_2_121" transform="matrix(9.963197,0,0,-9.963098,251.70505,113.79308)"/>
<path transform="matrix(1.00006,0,0,-1.00005,16.063118,101.839488)" stroke-width=".79701" stroke-linecap="butt" stroke-miterlimit="10" stroke-linejoin="miter" fill="none" stroke="#0092b8" d="M0 56.69275H226.77101"/>
<path transform="matrix(1.00006,0,0,-1.00005,16.063118,101.839488)" stroke-width=".3985" stroke-linecap="butt" stroke-miterlimit="10" stroke-linejoin="miter" fill="none" stroke="#000000" d="M1.7007 56.69275H-1.70087"/>
<path transform="matrix(1.00006,0,0,-1.00005,16.063118,101.839488)" d="M-15.84802 52.48625H-3.8926793V60.89923H-15.84802Z" fill="#ffffff"/>
<use data-text="5" xlink:href="#font_3_2" transform="matrix(9.963197,0,0,-9.963098,1.210228,48.353815)"/>
<use data-text="0" xlink:href="#font_3_1" transform="matrix(9.963197,0,0,-9.963098,6.191826,48.353815)"/>
<path transform="matrix(1.00006,0,0,-1.00005,16.063118,101.839488)" stroke-width="1.19553" stroke-linecap="butt" stroke-miterlimit="10" stroke-linejoin="miter" fill="none" stroke="#d73589" d="M0 79.36984 225.01209-2.95084"/>
<path transform="matrix(.93915638,.34358717,.3435906,-.93914696,241.08869,104.79045)" d="M1.27522 0C-.31879 .31879-1.91284 .9564-3.8257 2.07224-1.91284 .6376-1.91284-.6376-3.8257-2.07224-1.91284-.9564-.31879-.31879 1.27522 0Z" fill="#d73589"/>
<path transform="matrix(.93915638,.34358717,.3435906,-.93914696,241.08869,104.79045)" stroke-width="1.19553" stroke-linecap="butt" stroke-linejoin="round" fill="none" stroke="#d73589" d="M1.27522 0C-.31879 .31879-1.91284 .9564-3.8257 2.07224-1.91284 .6376-1.91284-.6376-3.8257-2.07224-1.91284-.9564-.31879-.31879 1.27522 0Z"/>
</svg>
