<svg xmlns="http://www.w3.org/2000/svg" xmlns:xlink="http://www.w3.org/1999/xlink" version="1.1" width="139" height="309" viewBox="0 0 139 309">
<defs>
<path id="font_1_1" d="M.33399964 .30233766C.33999635 .32835389 .36299134 .42037965 .43299867 .42037965 .43798829 .42037965 .46199037 .42037965 .48298646 .40734864 .45498658 .402359 .43499757 .37734986 .43499757 .35334779 .43499757 .33735658 .44599916 .31835938 .47299195 .31835938 .49499513 .31835938 .5269928 .3363495 .5269928 .37635804 .5269928 .42837525 .46798707 .4423828 .43399049 .4423828 .37599183 .4423828 .34098817 .38935853 .32899476 .36634828 .3039856 .43237306 .25 .4423828 .22099304 .4423828 .116989139 .4423828 .05999756 .3133545 .05999756 .28834535 .05999756 .27833558 .069992069 .27833558 .07199097 .27833558 .07998657 .27833558 .08299255 .28033448 .084991458 .28933717 .11898804 .39535523 .18499756 .42037965 .21899414 .42037965 .23799134 .42037965 .272995 .4113617 .272995 .35334779 .272995 .32235719 .2559967 .25532533 .21899414 .11528015 .20298767 .053268434 .16799927 .011245728 .12399292 .011245728 .117996219 .011245728 .09498596 .011245728 .07398987 .024276734 .09899902 .029266358 .12098694 .05027771 .12098694 .07827759 .12098694 .105270389 .09899902 .11328125 .083999637 .11328125 .053985597 .11328125 .0289917 .08728027 .0289917 .055267335 .0289917 .009246826 .07899475-.0107421879 .12298584-.0107421879 .18899536-.0107421879 .22499085 .059280397 .22799683 .0652771 .23999024 .028274537 .27598573-.0107421879 .33599855-.0107421879 .43899537-.0107421879 .49598695 .118270877 .49598695 .14328003 .49598695 .1532898 .4869995 .1532898 .48399354 .1532898 .47499085 .1532898 .47299195 .14929199 .47099305 .14228821 .43798829 .03527832 .36999513 .011245728 .33799745 .011245728 .29899598 .011245728 .2829895 .043273927 .2829895 .07727051 .2829895 .09927368 .2889862 .121276859 .2999878 .16529846L.33399964 .30233766Z"/>
<path id="font_1_2" d="M.48599244 .38136292C.48999024 .39537049 .48999024 .39736939 .48999024 .40437318 .48999024 .42237855 .47599793 .43138124 .46099855 .43138124 .45098878 .43138124 .43499757 .42536927 .42599488 .41036988 .42399598 .405365 .41600038 .37435914 .4119873 .35635377 .40499879 .33035279 .397995 .30334474 .3919983 .27633668L.34700013 .09628296C.34298707 .08126831 .2999878 .011245728 .23399353 .011245728 .18299866 .011245728 .17199707 .055267335 .17199707 .0922699 .17199707 .1382904 .18899536 .20030213 .22299195 .28833009 .23899842 .3293457 .24299622 .3403473 .24299622 .36035157 .24299622 .405365 .21099854 .4423828 .16099549 .4423828 .06599426 .4423828 .0289917 .29733277 .0289917 .28833009 .0289917 .27833558 .038986207 .27833558 .040985109 .27833558 .050994874 .27833558 .051986696 .28033448 .056991579 .29634095 .083999637 .3903656 .12399292 .42037965 .1579895 .42037965 .1659851 .42037965 .18299866 .42037965 .18299866 .3883667 .18299866 .36335755 .17298889 .3373413 .1659851 .31834413 .12599182 .21231079 .10798645 .1552887 .10798645 .10827637 .10798645 .019256592 .17098999-.0107421879 .22999573-.0107421879 .2689972-.0107421879 .30299378 .0062561037 .33099366 .03425598 .31799317-.017745972 .30599977-.06674194 .2659912-.11973572 .23999024-.15385437 .20199585-.18309021 .1559906-.18309021 .14199829-.18309021 .09700012-.18005371 .07998657-.14074707 .09599304-.14074707 .10899353-.14074707 .12298584-.1287384 .1329956-.11973572 .14299011-.10673523 .14299011-.08773804 .14299011-.056747438 .115997318-.052734376 .10598755-.052734376 .08299255-.052734376 .049987794-.068740848 .049987794-.11773682 .049987794-.16796875 .09399414-.20507813 .1559906-.20507813 .25898744-.20507813 .3619995-.11373901 .3899994-.00074768069L.48599244 .38136292Z"/>
<path id="font_2_1" d="M.6589966 .23046875C.6759949 .23046875 .69400027 .23046875 .69400027 .25045777 .69400027 .27046205 .6759949 .27046205 .6589966 .27046205H.117996219C.100997928 .27046205 .08299255 .27046205 .08299255 .25045777 .08299255 .23046875 .100997928 .23046875 .117996219 .23046875H.6589966Z"/>
<path id="font_3_4" d="M.2939911 .16503906V.07800293C.2939911 .041992189 .2919922 .0309906 .21798706 .0309906H.19699097V0C.23799134 .0029907227 .2899933 .0029907227 .33198548 .0029907227 .37399293 .0029907227 .4269867 .0029907227 .46798707 0V.0309906H.44699098C.37298585 .0309906 .37098695 .041992189 .37098695 .07800293V.16503906H.47099305V.19602967H.37098695V.65075686C.37098695 .67074587 .37098695 .6767578 .35499574 .6767578 .34599305 .6767578 .34298707 .6767578 .33499146 .66474917L.027999878 .19602967V.16503906H.2939911M.2999878 .19602967H.055999757L.2999878 .5688019V.19602967Z"/>
<path id="font_3_3" d="M.1269989 .07699585 .23298645 .18003845C.3889923 .31811524 .44898988 .3721466 .44898988 .47216798 .44898988 .5860901 .35899354 .6660156 .23699951 .6660156 .12399292 .6660156 .049987794 .57411196 .049987794 .48516847 .049987794 .4291687 .099990848 .4291687 .102996829 .4291687 .11999512 .4291687 .15499878 .44117738 .15499878 .48217774 .15499878 .5081787 .13699341 .5341797 .101989749 .5341797 .09399414 .5341797 .09199524 .5341797 .08898926 .5331726 .11199951 .59806826 .1659851 .63500979 .22399903 .63500979 .31498719 .63500979 .35798646 .5541382 .35798646 .47216798 .35798646 .39215089 .30799867 .31311036 .25299073 .25108338L.06098938 .036987306C.049987794 .025985718 .049987794 .023986817 .049987794 0H.42099L.44898988 .17404175H.42399598C.4189911 .14402771 .4119873 .1000061 .4019928 .084991458 .394989 .07699585 .32899476 .07699585 .30699159 .07699585H.1269989Z"/>
<path id="font_3_6" d="M.16299439 .4569702C.116989139 .486969 .11299133 .52098086 .11299133 .5379791 .11299133 .598999 .17799378 .64100649 .24899292 .64100649 .32199098 .64100649 .38598634 .58898928 .38598634 .51698306 .38598634 .45996095 .34700013 .4119568 .2869873 .37695313L.16299439 .4569702M.30899049 .36193849C.3809967 .3989563 .42999269 .45095826 .42999269 .51698306 .42999269 .6090088 .34098817 .6660156 .25 .6660156 .1499939 .6660156 .068984989 .59199526 .068984989 .49897767 .068984989 .4809723 .070999149 .43595887 .11299133 .38894654 .12399292 .37695313 .16099549 .35194398 .18598938 .33494569 .12799073 .30592347 .041992189 .24984741 .041992189 .15072632 .041992189 .04458618 .14399719-.022460938 .24899292-.022460938 .3619995-.022460938 .45700074 .06060791 .45700074 .16773987 .45700074 .20379639 .44599916 .24885559 .4079895 .2909088 .3889923 .31193543 .37298585 .3219452 .30899049 .36193849M.20899964 .3199463 .33198548 .24183655C.3600006 .2228241 .40699769 .19277954 .40699769 .13169861 .40699769 .05760193 .33198548 .0055389406 .25 .0055389406 .1639862 .0055389406 .09199524 .067611698 .09199524 .15072632 .09199524 .20880127 .12399292 .27288819 .20899964 .3199463Z"/>
<path id="font_3_5" d="M.13198853 .327713V.35173036C.13198853 .6047821 .2559967 .64100649 .30699159 .64100649 .33099366 .64100649 .37298585 .634964 .394989 .6007538 .37998963 .6007538 .33999635 .6007538 .33999635 .5557556 .33999635 .524765 .3639984 .5097656 .38598634 .5097656 .4019928 .5097656 .43199159 .51875308 .43199159 .5577545 .43199159 .6178589 .3880005 .6660156 .30499269 .6660156 .1769867 .6660156 .041992189 .5367584 .041992189 .31570436 .041992189 .048553468 .1579895-.022460938 .25099183-.022460938 .3619995-.022460938 .45700074 .07156372 .45700074 .2036438 .45700074 .33070375 .36799623 .4267578 .25698854 .4267578 .18899536 .4267578 .1519928 .37573243 .13198853 .327713M.25099183 .0055389406C.18798828 .0055389406 .1579895 .06556702 .1519928 .080566409 .13398743 .127594 .13398743 .2076416 .13398743 .22564698 .13398743 .30369569 .1659851 .40374757 .2559967 .40374757 .27198792 .40374757 .31799317 .40374757 .34899903 .34172059 .36698915 .30470277 .36698915 .2536621 .36698915 .20463562 .36698915 .15661621 .36698915 .10658264 .34999085 .0705719 .31999208 .010528564 .27398683 .0055389406 .25099183 .0055389406Z"/>
<path id="font_3_2" d="M.2939911 .64004519C.2939911 .66400149 .2939911 .6660156 .2709961 .6660156 .20899964 .60227969 .12098694 .60227969 .08898926 .60227969V.57128909C.10899353 .57128909 .16799927 .57128909 .21998596 .5972748V.07902527C.21998596 .042999269 .21699524 .0309906 .1269989 .0309906H.09498596V0C.12998963 .0029907227 .21699524 .0029907227 .25698854 .0029907227 .29699708 .0029907227 .38398744 .0029907227 .4189911 0V.0309906H.3869934C.29699708 .0309906 .2939911 .041992189 .2939911 .07902527V.64004519Z"/>
<path id="font_3_1" d="M.45999146 .31976319C.45999146 .39982606 .45498658 .47988893 .41999818 .5539398 .37399293 .65000918 .2919922 .6660156 .25 .6660156 .18998719 .6660156 .116989139 .64001467 .07598877 .54693606 .04399109 .47789 .038986207 .39982606 .038986207 .31976319 .038986207 .24472046 .042999269 .15464783 .083999637 .07859802 .1269989-.0024719239 .19999695-.022460938 .24899292-.022460938 .30299378-.022460938 .3789978-.0014648438 .4229889 .09359741 .45498658 .16265869 .45999146 .2407074 .45999146 .31976319M.24899292-.00047302247C.20999146-.00047302247 .15098572 .024551392 .1329956 .12062073 .12199402 .18066406 .12199402 .2727356 .12199402 .3317871 .12199402 .39582826 .12199402 .46188355 .12998963 .5159149 .14898682 .63500979 .22399903 .64401248 .24899292 .64401248 .28199769 .64401248 .34799195 .6259918 .36698915 .52693179 .3769989 .47088624 .3769989 .39482118 .3769989 .3317871 .3769989 .25672914 .3769989 .18867493 .3659973 .12461853 .35099793 .029556275 .2939911-.00047302247 .24899292-.00047302247Z"/>
</defs>
<path transform="matrix(1.00005,0,0,-1.00005,63.271516,190.45687)" stroke-width=".3985" stroke-linecap="butt" stroke-miterlimit="10" stroke-linejoin="miter" fill="none" stroke="#00aeef" d="M-56.69362-113.38724H56.69362M-56.69362-99.21382H56.69362M-56.69362-85.04042H56.69362M-56.69362-70.867H56.69362M-56.69362-56.69362H56.69362M-56.69362-42.5202H56.69362M-56.69362-28.3468H56.69362M-56.69362-14.17339H56.69362M-56.69362 0H56.69362M-56.69362 14.17339H56.69362M-56.69362 28.3468H56.69362M-56.69362 42.5202H56.69362M-56.69362 56.69362H56.69362M-56.69362 70.867H56.69362M-56.69362 85.04042H56.69362M-56.69362 99.21382H56.69362M-56.69362 113.38724H56.69362M-56.69362 127.56062H56.69362M-56.69362 141.73404H56.69362M-56.69362 155.90744H56.69362M-56.69362 170.07587H56.69362M-56.69362-113.38724V170.08086M-42.5202-113.38724V170.08086M-28.3468-113.38724V170.08086M-14.17339-113.38724V170.08086M0-113.38724V170.08086M14.17339-113.38724V170.08086M28.3468-113.38724V170.08086M42.5202-113.38724V170.08086M56.68863-113.38724V170.08086M56.69362 170.08086"/>
<path transform="matrix(1.00005,0,0,-1.00005,63.271516,190.45687)" stroke-width=".79701" stroke-linecap="butt" stroke-miterlimit="10" stroke-linejoin="miter" fill="none" stroke="#000000" d="M-56.69362 0H63.76312"/>
<path transform="matrix(1.00005,0,0,-1.00005,127.03782,190.45687)" d="M1.0361 0C-.25902 .25902-1.55415 .77707-3.1083 1.68365-1.55415 .51805-1.55415-.51805-3.1083-1.68365-1.55415-.77707-.25902-.25902 1.0361 0Z"/>
<path transform="matrix(1.00005,0,0,-1.00005,127.03782,190.45687)" stroke-width=".79701" stroke-linecap="butt" stroke-linejoin="round" fill="none" stroke="#000000" d="M1.0361 0C-.25902 .25902-1.55415 .77707-3.1083 1.68365-1.55415 .51805-1.55415-.51805-3.1083-1.68365-1.55415-.77707-.25902-.25902 1.0361 0Z"/>
<use data-text="x" xlink:href="#font_1_1" transform="matrix(9.963098,0,0,-9.963098,132.19196,192.60198)"/>
<path transform="matrix(1.00005,0,0,-1.00005,63.271516,190.45687)" stroke-width=".79701" stroke-linecap="butt" stroke-miterlimit="10" stroke-linejoin="miter" fill="none" stroke="#000000" d="M0-113.38724V177.15036"/>
<path transform="matrix(0,-1.00005,-1.00005,-0,63.271516,13.297653)" d="M1.0361 0C-.25902 .25902-1.55415 .77707-3.1083 1.68365-1.55415 .51805-1.55415-.51805-3.1083-1.68365-1.55415-.77707-.25902-.25902 1.0361 0Z"/>
<path transform="matrix(0,-1.00005,-1.00005,-0,63.271516,13.297653)" stroke-width=".79701" stroke-linecap="butt" stroke-linejoin="round" fill="none" stroke="#000000" d="M1.0361 0C-.25902 .25902-1.55415 .77707-3.1083 1.68365-1.55415 .51805-1.55415-.51805-3.1083-1.68365-1.55415-.77707-.25902-.25902 1.0361 0Z"/>
<use data-text="y" xlink:href="#font_1_2" transform="matrix(9.963098,0,0,-9.963098,60.650384,6.206665)"/>
<path transform="matrix(1.00005,0,0,-1.00005,63.271516,190.45687)" stroke-width=".79701" stroke-linecap="butt" stroke-miterlimit="10" stroke-linejoin="miter" fill="none" stroke="#000000" d="M-56.69362 1.4174V-1.41719"/>
<path transform="matrix(1.00005,0,0,-1.00005,63.271516,190.45687)" d="M-64.05501-13.05148H-49.33223V-3.8082505H-64.05501Z" fill="#ffffff"/>
<use data-text="&#x2212;" xlink:href="#font_2_1" transform="matrix(9.963098,0,0,-9.963098,.20936585,201.68242)"/>
<use data-text="4" xlink:href="#font_3_4" transform="matrix(9.963098,0,0,-9.963098,7.95874,201.68242)"/>
<path transform="matrix(1.00005,0,0,-1.00005,63.271516,190.45687)" stroke-width=".79701" stroke-linecap="butt" stroke-miterlimit="10" stroke-linejoin="miter" fill="none" stroke="#000000" d="M-28.3468 1.4174V-1.41719"/>
<path transform="matrix(1.00005,0,0,-1.00005,63.271516,190.45687)" d="M-35.70819-13.05148H-20.98541V-3.8082505H-35.70819Z" fill="#ffffff"/>
<use data-text="&#x2212;" xlink:href="#font_2_1" transform="matrix(9.963098,0,0,-9.963098,28.557778,201.68242)"/>
<use data-text="2" xlink:href="#font_3_3" transform="matrix(9.963098,0,0,-9.963098,36.30715,201.68242)"/>
<path transform="matrix(1.00005,0,0,-1.00005,63.271516,190.45687)" stroke-width=".79701" stroke-linecap="butt" stroke-miterlimit="10" stroke-linejoin="miter" fill="none" stroke="#000000" d="M28.3468 1.4174V-1.41719"/>
<path transform="matrix(1.00005,0,0,-1.00005,63.271516,190.45687)" d="M24.85983-12.22124H31.83377V-3.80826H24.85983Z" fill="#ffffff"/>
<use data-text="2" xlink:href="#font_3_3" transform="matrix(9.963098,0,0,-9.963098,89.12881,201.68242)"/>
<path transform="matrix(1.00005,0,0,-1.00005,63.271516,190.45687)" stroke-width=".79701" stroke-linecap="butt" stroke-miterlimit="10" stroke-linejoin="miter" fill="none" stroke="#000000" d="M56.69362 1.4174V-1.41719"/>
<path transform="matrix(1.00005,0,0,-1.00005,63.271516,190.45687)" d="M53.20665-12.22124H60.180589V-3.80826H53.20665Z" fill="#ffffff"/>
<use data-text="4" xlink:href="#font_3_4" transform="matrix(9.963098,0,0,-9.963098,117.47722,201.68242)"/>
<path transform="matrix(1.00005,0,0,-1.00005,63.271516,190.45687)" stroke-width=".79701" stroke-linecap="butt" stroke-miterlimit="10" stroke-linejoin="miter" fill="none" stroke="#000000" d="M1.4174-113.38724H-1.41719"/>
<path transform="matrix(1.00005,0,0,-1.00005,63.271516,190.45687)" d="M-18.53104-118.00885H-3.80826V-108.76562H-18.53104Z" fill="#ffffff"/>
<use data-text="&#x2212;" xlink:href="#font_2_1" transform="matrix(9.963098,0,0,-9.963098,45.73564,306.64466)"/>
<use data-text="8" xlink:href="#font_3_6" transform="matrix(9.963098,0,0,-9.963098,53.485017,306.64466)"/>
<path transform="matrix(1.00005,0,0,-1.00005,63.271516,190.45687)" stroke-width=".79701" stroke-linecap="butt" stroke-miterlimit="10" stroke-linejoin="miter" fill="none" stroke="#000000" d="M1.4174-85.04042H-1.41719"/>
<path transform="matrix(1.00005,0,0,-1.00005,63.271516,190.45687)" d="M-18.53104-89.66203H-3.80826V-80.4188H-18.53104Z" fill="#ffffff"/>
<use data-text="&#x2212;" xlink:href="#font_2_1" transform="matrix(9.963098,0,0,-9.963098,45.73564,278.29725)"/>
<use data-text="6" xlink:href="#font_3_5" transform="matrix(9.963098,0,0,-9.963098,53.485017,278.29725)"/>
<path transform="matrix(1.00005,0,0,-1.00005,63.271516,190.45687)" stroke-width=".79701" stroke-linecap="butt" stroke-miterlimit="10" stroke-linejoin="miter" fill="none" stroke="#000000" d="M1.4174-56.69362H-1.41719"/>
<path transform="matrix(1.00005,0,0,-1.00005,63.271516,190.45687)" d="M-18.53104-61.31523H-3.80826V-52.072004H-18.53104Z" fill="#ffffff"/>
<use data-text="&#x2212;" xlink:href="#font_2_1" transform="matrix(9.963098,0,0,-9.963098,45.73564,249.94884)"/>
<use data-text="4" xlink:href="#font_3_4" transform="matrix(9.963098,0,0,-9.963098,53.485017,249.94884)"/>
<path transform="matrix(1.00005,0,0,-1.00005,63.271516,190.45687)" stroke-width=".79701" stroke-linecap="butt" stroke-miterlimit="10" stroke-linejoin="miter" fill="none" stroke="#000000" d="M1.4174-28.3468H-1.41719"/>
<path transform="matrix(1.00005,0,0,-1.00005,63.271516,190.45687)" d="M-18.53104-32.96841H-3.80826V-23.725182H-18.53104Z" fill="#ffffff"/>
<use data-text="&#x2212;" xlink:href="#font_2_1" transform="matrix(9.963098,0,0,-9.963098,45.73564,221.60042)"/>
<use data-text="2" xlink:href="#font_3_3" transform="matrix(9.963098,0,0,-9.963098,53.485017,221.60042)"/>
<path transform="matrix(1.00005,0,0,-1.00005,63.271516,190.45687)" stroke-width=".79701" stroke-linecap="butt" stroke-miterlimit="10" stroke-linejoin="miter" fill="none" stroke="#000000" d="M1.4174 28.3468H-1.41719"/>
<path transform="matrix(1.00005,0,0,-1.00005,63.271516,190.45687)" d="M-10.7822 24.1403H-3.80826V32.55328H-10.7822Z" fill="#ffffff"/>
<use data-text="2" xlink:href="#font_3_3" transform="matrix(9.963098,0,0,-9.963098,53.485025,165.3186)"/>
<path transform="matrix(1.00005,0,0,-1.00005,63.271516,190.45687)" stroke-width=".79701" stroke-linecap="butt" stroke-miterlimit="10" stroke-linejoin="miter" fill="none" stroke="#000000" d="M1.4174 56.69362H-1.41719"/>
<path transform="matrix(1.00005,0,0,-1.00005,63.271516,190.45687)" d="M-10.7822 52.48712H-3.80826V60.9001H-10.7822Z" fill="#ffffff"/>
<use data-text="4" xlink:href="#font_3_4" transform="matrix(9.963098,0,0,-9.963098,53.485025,136.97119)"/>
<path transform="matrix(1.00005,0,0,-1.00005,63.271516,190.45687)" stroke-width=".79701" stroke-linecap="butt" stroke-miterlimit="10" stroke-linejoin="miter" fill="none" stroke="#000000" d="M1.4174 85.04042H-1.41719"/>
<path transform="matrix(1.00005,0,0,-1.00005,63.271516,190.45687)" d="M-10.7822 80.83392H-3.80826V89.2469H-10.7822Z" fill="#ffffff"/>
<use data-text="6" xlink:href="#font_3_5" transform="matrix(9.963098,0,0,-9.963098,53.485025,108.62277)"/>
<path transform="matrix(1.00005,0,0,-1.00005,63.271516,190.45687)" stroke-width=".79701" stroke-linecap="butt" stroke-miterlimit="10" stroke-linejoin="miter" fill="none" stroke="#000000" d="M1.4174 113.38724H-1.41719"/>
<path transform="matrix(1.00005,0,0,-1.00005,63.271516,190.45687)" d="M-10.7822 109.18074H-3.80826V117.59372H-10.7822Z" fill="#ffffff"/>
<use data-text="8" xlink:href="#font_3_6" transform="matrix(9.963098,0,0,-9.963098,53.485025,80.27436)"/>
<path transform="matrix(1.00005,0,0,-1.00005,63.271516,190.45687)" stroke-width=".79701" stroke-linecap="butt" stroke-miterlimit="10" stroke-linejoin="miter" fill="none" stroke="#000000" d="M1.4174 141.73404H-1.41719"/>
<path transform="matrix(1.00005,0,0,-1.00005,63.271516,190.45687)" d="M-15.76361 137.52754H-3.8082696V145.94052H-15.76361Z" fill="#ffffff"/>
<use data-text="1" xlink:href="#font_3_2" transform="matrix(9.963098,0,0,-9.963098,48.503778,51.92595)"/>
<use data-text="0" xlink:href="#font_3_1" transform="matrix(9.963098,0,0,-9.963098,53.485315,51.92595)"/>
<path transform="matrix(1.00005,0,0,-1.00005,63.271516,190.45687)" stroke-width=".79701" stroke-linecap="butt" stroke-miterlimit="10" stroke-linejoin="miter" fill="none" stroke="#000000" d="M1.4174 170.08086H-1.41719"/>
<path transform="matrix(1.00005,0,0,-1.00005,63.271516,190.45687)" d="M-15.76361 165.87436H-3.8082696V174.28734H-15.76361Z" fill="#ffffff"/>
<use data-text="1" xlink:href="#font_3_2" transform="matrix(9.963098,0,0,-9.963098,48.503778,23.57753)"/>
<use data-text="2" xlink:href="#font_3_3" transform="matrix(9.963098,0,0,-9.963098,53.485315,23.57753)"/>
<path transform="matrix(1.00005,0,0,-1.00005,63.271516,190.45687)" stroke-width="1.19553" stroke-linecap="butt" stroke-miterlimit="10" stroke-linejoin="miter" fill="none" stroke="#ff0000" d="M-41.16055 168.2132C-40.38922 159.30504-40.38922 159.30504-40.03093 155.25734-39.67265 151.20964-39.0981 144.82332-38.73982 140.90616-38.38153 136.98899-37.80698 130.81172-37.4487 127.02516-37.09042 123.23859-36.51584 117.27121-36.15756 113.61517-35.79929 109.95914-35.22473 104.20045-34.86644 100.67493-34.50816 97.14941-33.9336 91.60065-33.57532 88.20573-33.21703 84.8108-32.64247 79.47108-32.2842 76.2067-31.9259 72.9423-31.35133 67.81206-30.99306 64.67825-30.63478 61.54446-30.06021 56.6237-29.70193 53.62042-29.34366 50.61716-28.7691 45.9055-28.41081 43.03276-28.05254 40.16002-27.47797 35.6579-27.11969 32.9157-26.7614 30.1735-26.18684 25.88042-25.82857 23.2688-25.47029 20.65718-24.8957 16.57396-24.53743 14.09294-24.17915 11.61191-23.60458 7.7378-23.2463 5.38724-22.88803 3.03668-22.31346-.62822-21.95517-2.84825-21.5969-5.06827-21.02234-8.52373-20.66406-10.61316-20.30577-12.70259-19.7312-15.94864-19.37292-17.9075-19.01465-19.86635-18.44008-22.9029-18.0818-24.73122-17.72353-26.55954-17.14897-29.38696-16.79068-31.08475-16.4324-32.78255-15.85783-35.40051-15.49954-36.96771-15.14127-38.53491-14.56671-40.94339-14.20844-42.38005-13.85014-43.81673-13.27557-46.0161-12.9173-47.32224-12.55902-48.62837-11.98445-50.61826-11.62617-51.79382-11.2679-52.96936-10.69333-54.74979-10.33504-55.7948-9.97676-56.83981-9.4022-58.4111-9.04393-59.32559-8.68564-60.24008-8.11107-61.6019-7.75279-62.3858-7.3945-63.1697-6.81995-64.32204-6.46167-64.9754-6.1034-65.62877-5.52882-66.572-5.17055-67.09485-4.81227-67.61768-4.2377-68.35143-3.87941-68.74367-3.52113-69.13593-2.94658-69.6602-2.5883-69.92192-2.23001-70.18364-1.65544-70.49884-1.29716-70.62997-.93889-70.7611-.36432-70.86641-.00604-70.867 .35222-70.8676 .92679-70.76424 1.28506-70.6343 1.64334-70.50438 2.2179-70.19109 2.57619-69.93057 2.93446-69.67004 3.50902-69.14764 3.8673-68.75665 4.22559-68.36568 4.80016-67.63416 5.15843-67.11258 5.51671-66.591 6.09128-65.64963 6.44955-64.99747 6.80783-64.3453 7.3824-63.19489 7.74069-62.41219 8.09897-61.6295 8.67352-60.26955 9.03181-59.35631 9.39009-58.44308 9.96466-56.87401 10.32294-55.83026 10.68123-54.7865 11.25578-53.00795 11.61406-51.8336 11.97234-50.65926 12.54692-48.6713 12.9052-47.36636 13.26347-46.06143 13.83803-43.86398 14.19632-42.4285 14.5546-40.99304 15.12915-38.58647 15.48743-37.02048 15.84572-35.45447 16.42029-32.83838 16.77856-31.14185 17.13684-29.44533 17.71141-26.62012 18.06969-24.79306 18.42796-22.966 19.00255-19.93132 19.36082-17.97368 19.7191-16.01602 20.29366-12.77191 20.65195-10.68367 21.01022-8.59543 21.5848-5.14185 21.94307-2.92308 22.30136-.70432 22.87592 2.95836 23.23419 5.30766 23.59247 7.65695 24.16705 11.52919 24.52533 14.00903 24.8836 16.48885 25.45816 20.5702 25.81645 23.18056 26.17473 25.79092 26.74928 30.08174 27.10757 32.8227 27.46585 35.56364 28.04042 40.06389 28.3987 42.93544 28.75699 45.80698 29.33154 50.5167 29.68982 53.51877 30.0481 56.52084 30.62268 61.43968 30.98096 64.57228 31.33923 67.7049 31.91379 72.8332 32.27208 76.0964 32.63036 79.35957 33.20493 84.69739 33.5632 88.09111 33.9215 91.48483 34.49605 97.03172 34.85432 100.55598 35.21262 104.08023 35.78717 109.83669 36.14545 113.49147 36.50372 117.14624 37.07831 123.11174 37.43658 126.89711 37.79486 130.68248 38.36942 136.85784 38.7277 140.77379 39.08598 144.68976 39.66055 151.07422 40.01883 155.12065 40.37712 159.16709 41.30995 169.93769 41.14838 168.07176"/>
<path transform="matrix(-.08624431,-.9962798,-.9962798,.08624431,22.108918,22.23526)" d="M1.27522 0C-.31879 .31879-1.91284 .9564-3.8257 2.07224-1.91284 .6376-1.91284-.6376-3.8257-2.07224-1.91284-.9564-.31879-.31879 1.27522 0Z" fill="#ff0000"/>
<path transform="matrix(-.08624431,-.9962798,-.9962798,.08624431,22.108918,22.23526)" stroke-width="1.19553" stroke-linecap="butt" stroke-linejoin="round" fill="none" stroke="#ff0000" d="M1.27522 0C-.31879 .31879-1.91284 .9564-3.8257 2.07224-1.91284 .6376-1.91284-.6376-3.8257-2.07224-1.91284-.9564-.31879-.31879 1.27522 0Z"/>
<path transform="matrix(.0862743,-.9962798,-.9962798,-.0862743,104.421939,22.376709)" d="M1.27522 0C-.31879 .31879-1.91284 .9564-3.8257 2.07224-1.91284 .6376-1.91284-.6376-3.8257-2.07224-1.91284-.9564-.31879-.31879 1.27522 0Z" fill="#ff0000"/>
<path transform="matrix(.0862743,-.9962798,-.9962798,-.0862743,104.421939,22.376709)" stroke-width="1.19553" stroke-linecap="butt" stroke-linejoin="round" fill="none" stroke="#ff0000" d="M1.27522 0C-.31879 .31879-1.91284 .9564-3.8257 2.07224-1.91284 .6376-1.91284-.6376-3.8257-2.07224-1.91284-.9564-.31879-.31879 1.27522 0Z"/>
<path transform="matrix(1.00005,0,0,-1.00005,63.271516,190.45687)" stroke-width="1.59404" stroke-linecap="butt" stroke-miterlimit="10" stroke-linejoin="miter" fill="none" stroke="#009900" d="M-56.69362 99.21382H56.69362"/>
<path transform="matrix(1.00005,0,0,-1.00005,63.271516,190.45687)" stroke-width="1.59404" stroke-linecap="butt" stroke-dasharray="2.98883,2.98883" stroke-miterlimit="10" stroke-linejoin="miter" fill="none" stroke="#009900" d="M-34.71744 99.21382V2.31134"/>
<path transform="matrix(0,1.00005,1.00005,0,28.552338,188.1454)" d="M1.51433 0C-.37857 .37857-2.27148 1.13573-4.54298 2.46077-2.27148 .75716-2.27148-.75716-4.54298-2.46077-2.27148-1.13573-.37857-.37857 1.51433 0Z" fill="#009900"/>
<path transform="matrix(0,1.00005,1.00005,0,28.552338,188.1454)" stroke-width="1.59404" stroke-linecap="butt" stroke-linejoin="round" fill="none" stroke="#009900" d="M1.51433 0C-.37857 .37857-2.27148 1.13573-4.54298 2.46077-2.27148 .75716-2.27148-.75716-4.54298-2.46077-2.27148-1.13573-.37857-.37857 1.51433 0Z"/>
<path transform="matrix(1.00005,0,0,-1.00005,63.271516,190.45687)" stroke-width="1.59404" stroke-linecap="butt" stroke-dasharray="2.98883,2.98883" stroke-miterlimit="10" stroke-linejoin="miter" fill="none" stroke="#009900" d="M34.71744 99.21382V2.31134"/>
<path transform="matrix(0,1.00005,1.00005,0,97.99069,188.1454)" d="M1.51433 0C-.37857 .37857-2.27148 1.13573-4.54298 2.46077-2.27148 .75716-2.27148-.75716-4.54298-2.46077-2.27148-1.13573-.37857-.37857 1.51433 0Z" fill="#009900"/>
<path transform="matrix(0,1.00005,1.00005,0,97.99069,188.1454)" stroke-width="1.59404" stroke-linecap="butt" stroke-linejoin="round" fill="none" stroke="#009900" d="M1.51433 0C-.37857 .37857-2.27148 1.13573-4.54298 2.46077-2.27148 .75716-2.27148-.75716-4.54298-2.46077-2.27148-1.13573-.37857-.37857 1.51433 0Z"/>
<path transform="matrix(1.00005,0,0,-1.00005,63.271516,190.45687)" d="M-31.8828 99.21382C-31.8828 100.77936-33.15189 102.04846-34.71744 102.04846-36.28297 102.04846-37.55208 100.77936-37.55208 99.21382-37.55208 97.64827-36.28297 96.37918-34.71744 96.37918-33.15189 96.37918-31.8828 97.64827-31.8828 99.21382ZM-34.71744 99.21382" fill="#ff0000"/>
<path transform="matrix(1.00005,0,0,-1.00005,63.271516,190.45687)" stroke-width=".3985" stroke-linecap="butt" stroke-miterlimit="10" stroke-linejoin="miter" fill="none" stroke="#ff0000" d="M-31.8828 99.21382C-31.8828 100.77936-33.15189 102.04846-34.71744 102.04846-36.28297 102.04846-37.55208 100.77936-37.55208 99.21382-37.55208 97.64827-36.28297 96.37918-34.71744 96.37918-33.15189 96.37918-31.8828 97.64827-31.8828 99.21382ZM-34.71744 99.21382"/>
<path transform="matrix(1.00005,0,0,-1.00005,63.271516,190.45687)" d="M37.55208 99.21382C37.55208 100.77936 36.28297 102.04846 34.71744 102.04846 33.15189 102.04846 31.8828 100.77936 31.8828 99.21382 31.8828 97.64827 33.15189 96.37918 34.71744 96.37918 36.28297 96.37918 37.55208 97.64827 37.55208 99.21382ZM34.71744 99.21382" fill="#ff0000"/>
<path transform="matrix(1.00005,0,0,-1.00005,63.271516,190.45687)" stroke-width=".3985" stroke-linecap="butt" stroke-miterlimit="10" stroke-linejoin="miter" fill="none" stroke="#ff0000" d="M37.55208 99.21382C37.55208 100.77936 36.28297 102.04846 34.71744 102.04846 33.15189 102.04846 31.8828 100.77936 31.8828 99.21382 31.8828 97.64827 33.15189 96.37918 34.71744 96.37918 36.28297 96.37918 37.55208 97.64827 37.55208 99.21382ZM34.71744 99.21382"/>
</svg>
