<svg xmlns="http://www.w3.org/2000/svg" xmlns:xlink="http://www.w3.org/1999/xlink" version="1.1" width="109" height="191" viewBox="0 0 109 191">
<defs>
<path id="font_1_1" d="M.33399964 .30233766C.33999635 .32835389 .36299134 .42037965 .43299867 .42037965 .43798829 .42037965 .46199037 .42037965 .48298646 .40734864 .45498658 .402359 .43499757 .37734986 .43499757 .35334779 .43499757 .33735658 .44599916 .31835938 .47299195 .31835938 .49499513 .31835938 .5269928 .3363495 .5269928 .37635804 .5269928 .42837525 .46798707 .4423828 .43399049 .4423828 .37599183 .4423828 .34098817 .38935853 .32899476 .36634828 .3039856 .43237306 .25 .4423828 .22099304 .4423828 .116989139 .4423828 .05999756 .3133545 .05999756 .28834535 .05999756 .27833558 .069992069 .27833558 .07199097 .27833558 .07998657 .27833558 .08299255 .28033448 .084991458 .28933717 .11898804 .39535523 .18499756 .42037965 .21899414 .42037965 .23799134 .42037965 .272995 .4113617 .272995 .35334779 .272995 .32235719 .2559967 .25532533 .21899414 .11528015 .20298767 .053268434 .16799927 .011245728 .12399292 .011245728 .117996219 .011245728 .09498596 .011245728 .07398987 .024276734 .09899902 .029266358 .12098694 .05027771 .12098694 .07827759 .12098694 .105270389 .09899902 .11328125 .083999637 .11328125 .053985597 .11328125 .0289917 .08728027 .0289917 .055267335 .0289917 .009246826 .07899475-.0107421879 .12298584-.0107421879 .18899536-.0107421879 .22499085 .059280397 .22799683 .0652771 .23999024 .028274537 .27598573-.0107421879 .33599855-.0107421879 .43899537-.0107421879 .49598695 .118270877 .49598695 .14328003 .49598695 .1532898 .4869995 .1532898 .48399354 .1532898 .47499085 .1532898 .47299195 .14929199 .47099305 .14228821 .43798829 .03527832 .36999513 .011245728 .33799745 .011245728 .29899598 .011245728 .2829895 .043273927 .2829895 .07727051 .2829895 .09927368 .2889862 .121276859 .2999878 .16529846L.33399964 .30233766Z"/>
<path id="font_1_2" d="M.48599244 .38136292C.48999024 .39537049 .48999024 .39736939 .48999024 .40437318 .48999024 .42237855 .47599793 .43138124 .46099855 .43138124 .45098878 .43138124 .43499757 .42536927 .42599488 .41036988 .42399598 .405365 .41600038 .37435914 .4119873 .35635377 .40499879 .33035279 .397995 .30334474 .3919983 .27633668L.34700013 .09628296C.34298707 .08126831 .2999878 .011245728 .23399353 .011245728 .18299866 .011245728 .17199707 .055267335 .17199707 .0922699 .17199707 .1382904 .18899536 .20030213 .22299195 .28833009 .23899842 .3293457 .24299622 .3403473 .24299622 .36035157 .24299622 .405365 .21099854 .4423828 .16099549 .4423828 .06599426 .4423828 .0289917 .29733277 .0289917 .28833009 .0289917 .27833558 .038986207 .27833558 .040985109 .27833558 .050994874 .27833558 .051986696 .28033448 .056991579 .29634095 .083999637 .3903656 .12399292 .42037965 .1579895 .42037965 .1659851 .42037965 .18299866 .42037965 .18299866 .3883667 .18299866 .36335755 .17298889 .3373413 .1659851 .31834413 .12599182 .21231079 .10798645 .1552887 .10798645 .10827637 .10798645 .019256592 .17098999-.0107421879 .22999573-.0107421879 .2689972-.0107421879 .30299378 .0062561037 .33099366 .03425598 .31799317-.017745972 .30599977-.06674194 .2659912-.11973572 .23999024-.15385437 .20199585-.18309021 .1559906-.18309021 .14199829-.18309021 .09700012-.18005371 .07998657-.14074707 .09599304-.14074707 .10899353-.14074707 .12298584-.1287384 .1329956-.11973572 .14299011-.10673523 .14299011-.08773804 .14299011-.056747438 .115997318-.052734376 .10598755-.052734376 .08299255-.052734376 .049987794-.068740848 .049987794-.11773682 .049987794-.16796875 .09399414-.20507813 .1559906-.20507813 .25898744-.20507813 .3619995-.11373901 .3899994-.00074768069L.48599244 .38136292Z"/>
<path id="font_2_1" d="M.6589966 .23046875C.6759949 .23046875 .69400027 .23046875 .69400027 .25045777 .69400027 .27046205 .6759949 .27046205 .6589966 .27046205H.117996219C.100997928 .27046205 .08299255 .27046205 .08299255 .25045777 .08299255 .23046875 .100997928 .23046875 .117996219 .23046875H.6589966Z"/>
<path id="font_3_1" d="M.1269989 .07699585 .23298645 .18003845C.3889923 .31811524 .44898988 .3721466 .44898988 .47216798 .44898988 .5860901 .35899354 .6660156 .23699951 .6660156 .12399292 .6660156 .049987794 .57411196 .049987794 .48516847 .049987794 .4291687 .099990848 .4291687 .102996829 .4291687 .11999512 .4291687 .15499878 .44117738 .15499878 .48217774 .15499878 .5081787 .13699341 .5341797 .101989749 .5341797 .09399414 .5341797 .09199524 .5341797 .08898926 .5331726 .11199951 .59806826 .1659851 .63500979 .22399903 .63500979 .31498719 .63500979 .35798646 .5541382 .35798646 .47216798 .35798646 .39215089 .30799867 .31311036 .25299073 .25108338L.06098938 .036987306C.049987794 .025985718 .049987794 .023986817 .049987794 0H.42099L.44898988 .17404175H.42399598C.4189911 .14402771 .4119873 .1000061 .4019928 .084991458 .394989 .07699585 .32899476 .07699585 .30699159 .07699585H.1269989Z"/>
<path id="font_4_85" d="M.33099366-.2400055C.33099366-.23701477 .33099366-.23500061 .31399537-.21800232 .18899536-.0920105 .15699768 .09700012 .15699768 .25 .15699768 .42399598 .19499207 .59799197 .31799317 .72299197 .33099366 .7350006 .33099366 .7369995 .33099366 .73999026 .33099366 .746994 .32699586 .75 .32099916 .75 .31098939 .75 .22099304 .6819916 .1619873 .5549927 .11099243 .44499208 .09899902 .33399964 .09899902 .25 .09899902 .17199707 .10998535 .050994874 .16499329-.06201172 .22499085-.18501282 .31098939-.25 .32099916-.25 .32699586-.25 .33099366-.24700928 .33099366-.2400055Z"/>
<path id="font_4_47" d="M.5269928 0V.0309906C.45700074 .0309906 .44898988 .038009645 .44898988 .0871582V.69433596L.30499269 .6826172V.6516113C.375 .6516113 .3829956 .64463809 .3829956 .59580996V.38035584C.35398866 .41636659 .31098939 .4423828 .25698854 .4423828 .13899231 .4423828 .033996583 .3443451 .033996583 .21531677 .033996583 .088272098 .13198853-.0107421879 .24598694-.0107421879 .30999757-.0107421879 .35499574 .023254395 .37998963 .055267335V-.0107421879L.5269928 0M.37998963 .117996219C.37998963 .099990848 .37998963 .09799194 .36898805 .08099365 .33898927 .033218385 .2939911 .011245728 .25099183 .011245728 .20599365 .011245728 .16999817 .037216188 .1459961 .075164798 .11999512 .1161499 .116989139 .17320252 .116989139 .21421814 .116989139 .25125123 .11898804 .31129457 .147995 .35632325 .16899109 .38734437 .20698548 .42037965 .26098634 .42037965 .29599 .42037965 .33799745 .405365 .36898805 .3603363 .37998963 .34332276 .37998963 .34132386 .37998963 .32330323V.117996219Z"/>
<path id="font_4_86" d="M.2889862 .25C.2889862 .32798768 .27799989 .44898988 .22299195 .56199648 .16299439 .68499758 .07699585 .75 .066986087 .75 .06098938 .75 .056991579 .74598696 .056991579 .73999026 .056991579 .7369995 .056991579 .7350006 .07598877 .71699526 .17399597 .6179962 .23098755 .45899964 .23098755 .25 .23098755 .07899475 .19400025-.09700012 .069992069-.2230072 .056991579-.23500061 .056991579-.23701477 .056991579-.2400055 .056991579-.2460022 .06098938-.25 .066986087-.25 .07699585-.25 .16699219-.18200684 .22599793-.055007936 .2769928 .054992677 .2889862 .16600037 .2889862 .25Z"/>
</defs>
<path transform="matrix(1,0,0,-1,46.966005,116.182)" stroke-width=".3985" stroke-linecap="butt" stroke-miterlimit="10" stroke-linejoin="miter" fill="none" stroke="#00aeef" d="M-45.35419-45.35506H45.35419M-45.35419 0H45.35419M-45.35419 45.35506H45.35419M-45.35419 90.70215H45.35419M-45.35419-45.35506V90.71013M-22.6771-45.35506V90.71013M0-45.35506V90.71013M22.6771-45.35506V90.71013M45.3502-45.35506V90.71013M45.35419 90.71013"/>
<path transform="matrix(1,0,0,-1,46.966005,116.182)" stroke-width=".79701" stroke-linecap="butt" stroke-miterlimit="10" stroke-linejoin="miter" fill="none" stroke="#000000" d="M-45.35419 0H50.72278"/>
<path transform="matrix(1,0,0,-1,97.68878,116.182)" d="M1.0361 0C-.25902 .25902-1.55415 .77707-3.1083 1.68365-1.55415 .51805-1.55415-.51805-3.1083-1.68365-1.55415-.77707-.25902-.25902 1.0361 0Z"/>
<path transform="matrix(1,0,0,-1,97.68878,116.182)" stroke-width=".79701" stroke-linecap="butt" stroke-linejoin="round" fill="none" stroke="#000000" d="M1.0361 0C-.25902 .25902-1.55415 .77707-3.1083 1.68365-1.55415 .51805-1.55415-.51805-3.1083-1.68365-1.55415-.77707-.25902-.25902 1.0361 0Z"/>
<use data-text="x" xlink:href="#font_1_1" transform="matrix(9.9626,0,0,-9.9626,102.842,118.326999)"/>
<path transform="matrix(1,0,0,-1,46.966005,116.182)" stroke-width=".79701" stroke-linecap="butt" stroke-miterlimit="10" stroke-linejoin="miter" fill="none" stroke="#000000" d="M0-45.35506V102.88216"/>
<path transform="matrix(0,-1,-1,-0,46.966005,13.299843)" d="M1.0361 0C-.25902 .25902-1.55415 .77707-3.1083 1.68365-1.55415 .51805-1.55415-.51805-3.1083-1.68365-1.55415-.77707-.25902-.25902 1.0361 0Z"/>
<path transform="matrix(0,-1,-1,-0,46.966005,13.299843)" stroke-width=".79701" stroke-linecap="butt" stroke-linejoin="round" fill="none" stroke="#000000" d="M1.0361 0C-.25902 .25902-1.55415 .77707-3.1083 1.68365-1.55415 .51805-1.55415-.51805-3.1083-1.68365-1.55415-.77707-.25902-.25902 1.0361 0Z"/>
<use data-text="y" xlink:href="#font_1_2" transform="matrix(9.9626,0,0,-9.9626,44.345,6.2089998)"/>
<path transform="matrix(1,0,0,-1,46.966005,116.182)" stroke-width=".3985" stroke-linecap="butt" stroke-miterlimit="10" stroke-linejoin="miter" fill="none" stroke="#000000" d="M-22.6771 2.26787V-2.26753"/>
<path transform="matrix(1,0,0,-1,46.966005,116.182)" d="M-30.03848-13.70258H-15.315701V-4.4593508H-30.03848Z" fill="#ffffff"/>
<use data-text="&#x2212;" xlink:href="#font_2_1" transform="matrix(9.9626,0,0,-9.9626,17.924004,128.058)"/>
<use data-text="2" xlink:href="#font_3_1" transform="matrix(9.9626,0,0,-9.9626,25.672997,128.058)"/>
<path transform="matrix(1,0,0,-1,46.966005,116.182)" stroke-width=".3985" stroke-linecap="butt" stroke-miterlimit="10" stroke-linejoin="miter" fill="none" stroke="#000000" d="M22.6771 2.26787V-2.26753"/>
<path transform="matrix(1,0,0,-1,46.966005,116.182)" d="M19.19012-12.87233H26.16406V-4.4593498H19.19012Z" fill="#ffffff"/>
<use data-text="2" xlink:href="#font_3_1" transform="matrix(9.9626,0,0,-9.9626,67.15201,128.058)"/>
<path transform="matrix(1,0,0,-1,46.966005,116.182)" stroke-width=".3985" stroke-linecap="butt" stroke-miterlimit="10" stroke-linejoin="miter" fill="none" stroke="#000000" d="M1.13391 45.35506H-1.13374"/>
<path transform="matrix(1,0,0,-1,46.966005,116.182)" d="M-10.29948 41.14856H-3.3255406V49.56154H-10.29948Z" fill="#ffffff"/>
<use data-text="2" xlink:href="#font_3_1" transform="matrix(9.9626,0,0,-9.9626,37.663003,74.037)"/>
<path transform="matrix(1,0,0,-1,46.966005,116.182)" stroke-width="1.19553" stroke-linecap="butt" stroke-miterlimit="10" stroke-linejoin="miter" fill="none" stroke="#ff0000" d="M-34.01564 0C-34.01564 0-33.11961 6.03107-32.77547 7.50334-32.43135 8.97559-31.87947 9.8494-31.53532 10.61105-31.19118 11.37268-30.63931 12.38347-30.29518 12.99277-29.95103 13.60208-29.39915 14.47792-29.05502 15.00253-28.71088 15.52716-28.159 16.30591-27.81487 16.77386-27.47073 17.24182-26.91885 17.94882-26.5747 18.3753-26.23058 18.80179-25.6787 19.45364-25.33456 19.84767-24.99042 20.24168-24.43854 20.84698-24.09439 21.21518-23.75026 21.58337-23.19838 22.15446-22.85425 22.50139-22.51012 22.84831-21.95824 23.38646-21.61409 23.7156-21.26996 24.04477-20.71808 24.5597-20.37395 24.87378-20.0298 25.18787-19.47792 25.6788-19.13377 25.97935-18.78966 26.27989-18.23778 26.7512-17.89363 27.03993-17.54948 27.32866-16.99762 27.7821-16.65349 28.06038-16.30934 28.33865-15.75746 28.77687-15.41333 29.04553-15.0692 29.3142-14.5173 29.7368-14.17316 29.99678-13.82904 30.25674-13.27716 30.66716-12.93301 30.9193-12.58887 31.17145-12.03699 31.56857-11.69287 31.81413-11.34872 32.05971-10.79684 32.45001-10.45271 32.68925-10.10857 32.92848-9.55669 33.30566-9.21255 33.53842-8.86842 33.77116-8.31654 34.13959-7.9724 34.36682-7.62827 34.59404-7.07639 34.95424-6.73225 35.17618-6.3881 35.39813-5.83623 35.74957-5.49208 35.96652-5.14796 36.18347-4.59607 36.52745-4.25194 36.7399-3.90779 36.95233-3.35593 37.28963-3.01178 37.49771-2.66765 37.70578-2.11577 38.0356-1.77164 38.2396-1.42749 38.4436-.87561 38.76775-.53146 38.968-.18735 39.16826 .3645 39.48616 .70865 39.68289 1.05278 39.87964 1.60464 40.19275 1.94879 40.38602 2.29294 40.57932 2.84482 40.88625 3.18893 41.07602 3.53308 41.26581 4.08496 41.56718 4.42911 41.75389 4.77324 41.94061 5.32512 42.23787 5.66925 42.42174 6.0134 42.60562 6.56528 42.89828 6.90941 43.07921 7.25354 43.26012 7.80544 43.54729 8.14958 43.7256 8.4937 43.9039 9.04558 44.18874 9.38972 44.36435 9.73387 44.53996 10.28574 44.81749 10.62987 44.99138 10.97401 45.16525 11.5259 45.44595 11.87003 45.61768 12.21416 45.78941 12.76605 46.06027 13.11018 46.22911 13.45432 46.39798 14.0062 46.66798 14.35034 46.83467 14.69447 47.00136 15.24634 47.26605 15.59048 47.43054 15.93463 47.59503 16.48651 47.85768 16.83063 48.02019 17.17477 48.18271 17.72667 48.44118 18.0708 48.60187 18.41493 48.76256 18.96681 49.01964 19.31096 49.17834 19.65509 49.33707 20.20697 49.589 20.5511 49.74583 20.89525 49.9027 21.44713 50.15372 21.79126 50.30884 22.13539 50.46396 22.68727 50.71053 23.03142 50.86386 23.37556 51.01723 23.92743 51.26216 24.27156 51.41406 24.6157 51.56595 25.16759 51.8087 25.51172 51.95872 25.85585 52.10873 26.40775 52.34697 26.75188 52.49542 27.09601 52.64386 27.64789 52.88156 27.99203 53.02866 28.33617 53.17575 28.88805 53.40985 29.23218 53.55565 29.57632 53.70145 30.1282 53.93513 30.47234 54.07956 30.81647 54.22395 31.36836 54.45369 31.7125 54.59651 32.05663 54.73933 32.6085 54.9673 32.95265 55.109 33.29678 55.25066 33.84866 55.47737 34.1928 55.61766 34.53694 55.75795 35.08882 55.98106 35.43295 56.12009 35.77708 56.25912 36.32896 56.48178 36.67311 56.61977 37.01726 56.75774 37.56912 56.97797 37.91325 57.1146 38.2574 57.25124 38.80928 57.46935 39.15341 57.60457 39.49754 57.7398 40.04944 57.95518 40.39357 58.08937 40.7377 58.22354 41.28958 58.43854 41.63373 58.57173 41.97787 58.70491 42.52974 58.91718 42.87387 59.04926 43.21802 59.18132 43.7699 59.39276 44.11403 59.52367 44.45816 59.65459 45.35419 59.99289 43.60197 59.33142"/>
<path transform="matrix(.93552,-.35316,-.35316,-.93552,90.56798,56.85058)" d="M1.27522 0C-.31879 .31879-1.91284 .9564-3.8257 2.07224-1.91284 .6376-1.91284-.6376-3.8257-2.07224-1.91284-.9564-.31879-.31879 1.27522 0Z" fill="#ff0000"/>
<path transform="matrix(.93552,-.35316,-.35316,-.93552,90.56798,56.85058)" stroke-width="1.19553" stroke-linecap="butt" stroke-linejoin="round" fill="none" stroke="#ff0000" d="M1.27522 0C-.31879 .31879-1.91284 .9564-3.8257 2.07224-1.91284 .6376-1.91284-.6376-3.8257-2.07224-1.91284-.9564-.31879-.31879 1.27522 0Z"/>
<use data-text="(" xlink:href="#font_4_85" transform="matrix(9.9626,0,0,-9.9626,40.321008,186.705)"/>
<use data-text="d" xlink:href="#font_4_47" transform="matrix(9.9626,0,0,-9.9626,44.196466,186.705)"/>
<use data-text=")" xlink:href="#font_4_86" transform="matrix(9.9626,0,0,-9.9626,49.735666,186.705)"/>
</svg>
