<svg xmlns="http://www.w3.org/2000/svg" xmlns:xlink="http://www.w3.org/1999/xlink" version="1.1" width="182" height="133" viewBox="0 0 182 133">
<defs>
<path id="font_1_1" d="M.33399964 .30233766C.33999635 .32835389 .36299134 .42037965 .43299867 .42037965 .43798829 .42037965 .46199037 .42037965 .48298646 .40734864 .45498658 .402359 .43499757 .37734986 .43499757 .35334779 .43499757 .33735658 .44599916 .31835938 .47299195 .31835938 .49499513 .31835938 .5269928 .3363495 .5269928 .37635804 .5269928 .42837525 .46798707 .4423828 .43399049 .4423828 .37599183 .4423828 .34098817 .38935853 .32899476 .36634828 .3039856 .43237306 .25 .4423828 .22099304 .4423828 .116989139 .4423828 .05999756 .3133545 .05999756 .28834535 .05999756 .27833558 .069992069 .27833558 .07199097 .27833558 .07998657 .27833558 .08299255 .28033448 .084991458 .28933717 .11898804 .39535523 .18499756 .42037965 .21899414 .42037965 .23799134 .42037965 .272995 .4113617 .272995 .35334779 .272995 .32235719 .2559967 .25532533 .21899414 .11528015 .20298767 .053268434 .16799927 .011245728 .12399292 .011245728 .117996219 .011245728 .09498596 .011245728 .07398987 .024276734 .09899902 .029266358 .12098694 .05027771 .12098694 .07827759 .12098694 .105270389 .09899902 .11328125 .083999637 .11328125 .053985597 .11328125 .0289917 .08728027 .0289917 .055267335 .0289917 .009246826 .07899475-.0107421879 .12298584-.0107421879 .18899536-.0107421879 .22499085 .059280397 .22799683 .0652771 .23999024 .028274537 .27598573-.0107421879 .33599855-.0107421879 .43899537-.0107421879 .49598695 .118270877 .49598695 .14328003 .49598695 .1532898 .4869995 .1532898 .48399354 .1532898 .47499085 .1532898 .47299195 .14929199 .47099305 .14228821 .43798829 .03527832 .36999513 .011245728 .33799745 .011245728 .29899598 .011245728 .2829895 .043273927 .2829895 .07727051 .2829895 .09927368 .2889862 .121276859 .2999878 .16529846L.33399964 .30233766Z"/>
<path id="font_1_2" d="M.48599244 .38136292C.48999024 .39537049 .48999024 .39736939 .48999024 .40437318 .48999024 .42237855 .47599793 .43138124 .46099855 .43138124 .45098878 .43138124 .43499757 .42536927 .42599488 .41036988 .42399598 .405365 .41600038 .37435914 .4119873 .35635377 .40499879 .33035279 .397995 .30334474 .3919983 .27633668L.34700013 .09628296C.34298707 .08126831 .2999878 .011245728 .23399353 .011245728 .18299866 .011245728 .17199707 .055267335 .17199707 .0922699 .17199707 .1382904 .18899536 .20030213 .22299195 .28833009 .23899842 .3293457 .24299622 .3403473 .24299622 .36035157 .24299622 .405365 .21099854 .4423828 .16099549 .4423828 .06599426 .4423828 .0289917 .29733277 .0289917 .28833009 .0289917 .27833558 .038986207 .27833558 .040985109 .27833558 .050994874 .27833558 .051986696 .28033448 .056991579 .29634095 .083999637 .3903656 .12399292 .42037965 .1579895 .42037965 .1659851 .42037965 .18299866 .42037965 .18299866 .3883667 .18299866 .36335755 .17298889 .3373413 .1659851 .31834413 .12599182 .21231079 .10798645 .1552887 .10798645 .10827637 .10798645 .019256592 .17098999-.0107421879 .22999573-.0107421879 .2689972-.0107421879 .30299378 .0062561037 .33099366 .03425598 .31799317-.017745972 .30599977-.06674194 .2659912-.11973572 .23999024-.15385437 .20199585-.18309021 .1559906-.18309021 .14199829-.18309021 .09700012-.18005371 .07998657-.14074707 .09599304-.14074707 .10899353-.14074707 .12298584-.1287384 .1329956-.11973572 .14299011-.10673523 .14299011-.08773804 .14299011-.056747438 .115997318-.052734376 .10598755-.052734376 .08299255-.052734376 .049987794-.068740848 .049987794-.11773682 .049987794-.16796875 .09399414-.20507813 .1559906-.20507813 .25898744-.20507813 .3619995-.11373901 .3899994-.00074768069L.48599244 .38136292Z"/>
<path id="font_2_1" d="M.6589966 .23046875C.6759949 .23046875 .69400027 .23046875 .69400027 .25045777 .69400027 .27046205 .6759949 .27046205 .6589966 .27046205H.117996219C.100997928 .27046205 .08299255 .27046205 .08299255 .25045777 .08299255 .23046875 .100997928 .23046875 .117996219 .23046875H.6589966Z"/>
<path id="font_3_3" d="M.44898988 .20022583C.44898988 .3193512 .36698915 .41944886 .25898744 .41944886 .21099854 .41944886 .16799927 .40345765 .13198853 .36842347V.5637665C.1519928 .5577698 .18499756 .55078127 .21699524 .55078127 .33999635 .55078127 .4099884 .6417694 .4099884 .6547699 .4099884 .6607666 .40699769 .6657715 .3999939 .6657715 .39898683 .6657715 .39698792 .6657715 .3919983 .66278079 .37199403 .6537781 .32299806 .6337738 .2559967 .6337738 .21598816 .6337738 .16999817 .6407776 .12298584 .6617737 .114990238 .66477969 .11299133 .66477969 .11099243 .66477969 .100997928 .66477969 .100997928 .6567688 .100997928 .6407776V.34439088C.100997928 .32637025 .100997928 .31835938 .114990238 .31835938 .12199402 .31835938 .12399292 .32136537 .12799073 .32736207 .13899231 .3433838 .17599488 .39746095 .25698854 .39746095 .30899049 .39746095 .33399964 .35139466 .34199525 .33337403 .35798646 .29632569 .3600006 .25727845 .3600006 .20722962 .3600006 .17222595 .3600006 .11222839 .33599855 .07035828 .31199647 .031463624 .2749939 .0055389406 .22898865 .0055389406 .1559906 .0055389406 .09899902 .058380128 .08198547 .11723328 .084991458 .1162262 .08799744 .115234378 .09899902 .115234378 .13198853 .115234378 .14898682 .14022827 .14898682 .16423035 .14898682 .18823242 .13198853 .21322632 .09899902 .21322632 .084991458 .21322632 .049987794 .20622254 .049987794 .16023255 .049987794 .07434082 .11898804-.022460938 .23098755-.022460938 .34700013-.022460938 .44898988 .073349 .44898988 .20022583Z"/>
<path id="font_3_2" d="M.2939911 .64004519C.2939911 .66400149 .2939911 .6660156 .2709961 .6660156 .20899964 .60227969 .12098694 .60227969 .08898926 .60227969V.57128909C.10899353 .57128909 .16799927 .57128909 .21998596 .5972748V.07902527C.21998596 .042999269 .21699524 .0309906 .1269989 .0309906H.09498596V0C.12998963 .0029907227 .21699524 .0029907227 .25698854 .0029907227 .29699708 .0029907227 .38398744 .0029907227 .4189911 0V.0309906H.3869934C.29699708 .0309906 .2939911 .041992189 .2939911 .07902527V.64004519Z"/>
<path id="font_3_1" d="M.45999146 .31976319C.45999146 .39982606 .45498658 .47988893 .41999818 .5539398 .37399293 .65000918 .2919922 .6660156 .25 .6660156 .18998719 .6660156 .116989139 .64001467 .07598877 .54693606 .04399109 .47789 .038986207 .39982606 .038986207 .31976319 .038986207 .24472046 .042999269 .15464783 .083999637 .07859802 .1269989-.0024719239 .19999695-.022460938 .24899292-.022460938 .30299378-.022460938 .3789978-.0014648438 .4229889 .09359741 .45498658 .16265869 .45999146 .2407074 .45999146 .31976319M.24899292-.00047302247C.20999146-.00047302247 .15098572 .024551392 .1329956 .12062073 .12199402 .18066406 .12199402 .2727356 .12199402 .3317871 .12199402 .39582826 .12199402 .46188355 .12998963 .5159149 .14898682 .63500979 .22399903 .64401248 .24899292 .64401248 .28199769 .64401248 .34799195 .6259918 .36698915 .52693179 .3769989 .47088624 .3769989 .39482118 .3769989 .3317871 .3769989 .25672914 .3769989 .18867493 .3659973 .12461853 .35099793 .029556275 .2939911-.00047302247 .24899292-.00047302247Z"/>
</defs>
<path transform="matrix(1.00002,0,0,-1.00008,56.18387,120.13157)" stroke-width=".3985" stroke-linecap="butt" stroke-miterlimit="10" stroke-linejoin="miter" fill="none" stroke="#00aeef" d="M-49.60777 0H99.21555M-49.60777 9.92155H99.21555M-49.60777 19.84311H99.21555M-49.60777 29.76466H99.21555M-49.60777 39.68622H99.21555M-49.60777 49.60777H99.21555M-49.60777 59.52933H99.21555M-49.60777 69.45088H99.21555M-49.60777 79.37244H99.21555M-49.60777 89.29399H99.21555M-49.60777 99.21207H99.21555M-49.60777 0V99.21555M-39.68622 0V99.21555M-29.76466 0V99.21555M-19.84311 0V99.21555M-9.92155 0V99.21555M0 0V99.21555M9.92155 0V99.21555M19.84311 0V99.21555M29.76466 0V99.21555M39.68622 0V99.21555M49.60777 0V99.21555M59.52933 0V99.21555M69.45088 0V99.21555M79.37244 0V99.21555M89.29399 0V99.21555M99.21207 0V99.21555M99.21555 99.21555"/>
<path transform="matrix(1.00002,0,0,-1.00008,56.18387,120.13157)" stroke-width=".79701" stroke-linecap="butt" stroke-miterlimit="10" stroke-linejoin="miter" fill="none" stroke="#000000" d="M-49.60777 0H113.65549"/>
<path transform="matrix(1.00002,0,0,-1.00008,169.84163,120.13157)" d="M1.0361 0C-.25902 .25902-1.55415 .77707-3.1083 1.68365-1.55415 .51805-1.55415-.51805-3.1083-1.68365-1.55415-.77707-.25902-.25902 1.0361 0Z"/>
<path transform="matrix(1.00002,0,0,-1.00008,169.84163,120.13157)" stroke-width=".79701" stroke-linecap="butt" stroke-linejoin="round" fill="none" stroke="#000000" d="M1.0361 0C-.25902 .25902-1.55415 .77707-3.1083 1.68365-1.55415 .51805-1.55415-.51805-3.1083-1.68365-1.55415-.77707-.25902-.25902 1.0361 0Z"/>
<use data-text="x" xlink:href="#font_1_1" transform="matrix(9.962799,0,0,-9.963397,174.99524,122.27674)"/>
<path transform="matrix(1.00002,0,0,-1.00008,56.18387,120.13157)" stroke-width=".79701" stroke-linecap="butt" stroke-miterlimit="10" stroke-linejoin="miter" fill="none" stroke="#000000" d="M0 0V113.65549"/>
<path transform="matrix(0,-1.00008,-1.00002,-0,56.18387,6.4669878)" d="M1.0361 0C-.25902 .25902-1.55415 .77707-3.1083 1.68365-1.55415 .51805-1.55415-.51805-3.1083-1.68365-1.55415-.77707-.25902-.25902 1.0361 0Z"/>
<path transform="matrix(0,-1.00008,-1.00002,-0,56.18387,6.4669878)" stroke-width=".79701" stroke-linecap="butt" stroke-linejoin="round" fill="none" stroke="#000000" d="M1.0361 0C-.25902 .25902-1.55415 .77707-3.1083 1.68365-1.55415 .51805-1.55415-.51805-3.1083-1.68365-1.55415-.77707-.25902-.25902 1.0361 0Z"/>
<use data-text="y" xlink:href="#font_1_2" transform="matrix(9.962799,0,0,-9.963397,49.21473,6.208458)"/>
<path transform="matrix(1.00002,0,0,-1.00008,56.18387,120.13157)" stroke-width=".3985" stroke-linecap="butt" stroke-miterlimit="10" stroke-linejoin="miter" fill="none" stroke="#000000" d="M-49.60777 1.48816V-1.48831"/>
<path transform="matrix(1.00002,0,0,-1.00008,56.18387,120.13157)" d="M-56.96916-12.92334H-42.246377V-3.68011H-56.96916Z" fill="#ffffff"/>
<use data-text="&#x2212;" xlink:href="#font_2_1" transform="matrix(9.962799,0,0,-9.963397,.20974732,131.22946)"/>
<use data-text="5" xlink:href="#font_3_3" transform="matrix(9.962799,0,0,-9.963397,7.957901,131.22946)"/>
<path transform="matrix(1.00002,0,0,-1.00008,56.18387,120.13157)" stroke-width=".3985" stroke-linecap="butt" stroke-miterlimit="10" stroke-linejoin="miter" fill="none" stroke="#000000" d="M49.60777 1.48816V-1.48831"/>
<path transform="matrix(1.00002,0,0,-1.00008,56.18387,120.13157)" d="M46.1208-12.09311H53.09474V-3.68013H46.1208Z" fill="#ffffff"/>
<use data-text="5" xlink:href="#font_3_3" transform="matrix(9.962799,0,0,-9.963397,103.30181,131.22946)"/>
<path transform="matrix(1.00002,0,0,-1.00008,56.18387,120.13157)" stroke-width=".3985" stroke-linecap="butt" stroke-miterlimit="10" stroke-linejoin="miter" fill="none" stroke="#000000" d="M99.21555 1.48816V-1.48831"/>
<path transform="matrix(1.00002,0,0,-1.00008,56.18387,120.13157)" d="M93.23787-12.09311H105.19321V-3.68013H93.23787Z" fill="#ffffff"/>
<use data-text="1" xlink:href="#font_3_2" transform="matrix(9.962799,0,0,-9.963397,150.41976,131.22946)"/>
<use data-text="0" xlink:href="#font_3_1" transform="matrix(9.962799,0,0,-9.963397,155.40114,131.22946)"/>
<path transform="matrix(1.00002,0,0,-1.00008,56.18387,120.13157)" stroke-width=".3985" stroke-linecap="butt" stroke-miterlimit="10" stroke-linejoin="miter" fill="none" stroke="#000000" d="M1.48816 49.60777H-1.48831"/>
<path transform="matrix(1.00002,0,0,-1.00008,56.18387,120.13157)" d="M-10.65405 45.40128H-3.68011V53.81426H-10.65405Z" fill="#ffffff"/>
<use data-text="5" xlink:href="#font_3_3" transform="matrix(9.962799,0,0,-9.963397,46.525674,73.72986)"/>
<path transform="matrix(1.00002,0,0,-1.00008,56.18387,120.13157)" stroke-width=".3985" stroke-linecap="butt" stroke-miterlimit="10" stroke-linejoin="miter" fill="none" stroke="#000000" d="M1.48816 99.21555H-1.48831"/>
<path transform="matrix(1.00002,0,0,-1.00008,56.18387,120.13157)" d="M-15.63547 95.00906H-3.68013V103.42204H-15.63547Z" fill="#ffffff"/>
<use data-text="1" xlink:href="#font_3_2" transform="matrix(9.962799,0,0,-9.963397,41.54458,24.118889)"/>
<use data-text="0" xlink:href="#font_3_1" transform="matrix(9.962799,0,0,-9.963397,46.525964,24.118889)"/>
<path transform="matrix(1.00002,0,0,-1.00008,56.18387,120.13157)" stroke-width="1.19553" stroke-linecap="butt" stroke-miterlimit="10" stroke-linejoin="miter" fill="none" stroke="#ff0000" d="M-13.29082 97.3701C-12.97165 95.55437-12.97165 95.55437-12.72453 94.17923-12.47745 92.80408-12.08116 90.63446-11.83406 89.30368-11.58696 87.9729-11.19069 85.8743-10.94357 84.58786-10.69647 83.30142-10.3002 81.27399-10.05309 80.0319-9.806 78.78981-9.40971 76.83351-9.16261 75.6358-8.91551 74.4381-8.51924 72.55295-8.27214 71.39958-8.02502 70.2462-7.62875 68.4321-7.38165 67.32307-7.13455 66.21407-6.73827 64.47125-6.49118 63.40659-6.24406 62.34195-5.8478 60.67014-5.6007 59.64984-5.35358 58.62952-4.9573 57.02887-4.7102 56.05292-4.4631 55.07698-4.06682 53.54749-3.81973 52.6159-3.57263 51.68433-3.17636 50.22597-2.92924 49.33875-2.68214 48.45152-2.28587 47.06433-2.03876 46.22145-1.79167 45.37859-1.39539 44.0624-1.14828 43.26389-.90118 42.46536-.50491 41.22047-.2578 40.46632-.0107 39.71219 .38554 38.5383 .63266 37.82849 .87975 37.1187 1.27603 36.01598 1.52312 35.35052 1.77023 34.68507 2.1665 33.6535 2.4136 33.03242 2.66072 32.41135 3.05699 31.45094 3.3041 30.87419 3.5512 30.29745 3.94748 29.40807 4.19456 28.87569 4.44168 28.3433 4.83795 27.5252 5.08505 27.0372 5.33217 26.54918 5.72844 25.80208 5.97554 25.35841 6.22264 24.91475 6.61891 24.23882 6.86601 23.83951 7.11311 23.44022 7.50938 22.83542 7.7565 22.48048 8.0036 22.12553 8.39987 21.59189 8.64699 21.28131 8.89407 20.97073 9.29036 20.50826 9.53746 20.242 9.78456 19.97577 10.18083 19.5843 10.42795 19.36243 10.67505 19.14055 11.07132 18.82037 11.31842 18.64287 11.56552 18.46535 11.9618 18.21619 12.2089 18.08302 12.45601 17.94984 12.85228 17.77187 13.09938 17.68306 13.3465 17.59424 13.74277 17.4874 13.98987 17.44295 14.23697 17.3985 14.63326 17.36281 14.88034 17.3627 15.12746 17.36261 15.52373 17.39793 15.77083 17.44218 16.01794 17.48643 16.4142 17.59308 16.66132 17.68169 16.9084 17.7703 17.30469 17.94795 17.55179 18.0809 17.79889 18.21387 18.19516 18.46268 18.44228 18.63998 18.68938 18.81732 19.08565 19.13727 19.33276 19.35895 19.57985 19.58063 19.97614 19.97174 20.22324 20.23778 20.47034 20.5038 20.86661 20.96593 21.11371 21.27632 21.36082 21.58672 21.7571 22.12012 22.0042 22.47487 22.2513 22.82962 22.64758 23.43405 22.89467 23.83315 23.14178 24.23225 23.53806 24.90784 23.78516 25.3513 24.03227 25.79477 24.42854 26.54149 24.67564 27.02933 24.92276 27.51714 25.31903 28.33502 25.56613 28.86722 25.81323 29.39938 26.2095 30.28842 26.4566 30.86496 26.7037 31.44151 27.09998 32.40169 27.34709 33.02258 27.5942 33.64348 27.99046 34.6747 28.23758 35.33992 28.48466 36.00516 28.88095 37.10753 29.12805 37.81714 29.37515 38.52673 29.77144 39.70024 30.01854 40.45422 30.26564 41.20818 30.66191 42.45284 30.90903 43.25116 31.15611 44.04948 31.5524 45.3653 31.79948 46.20798 32.0466 47.05066 32.44289 48.43764 32.68997 49.32466 32.93709 50.21169 33.33336 51.66968 33.58046 52.60107 33.82756 53.53246 34.22385 55.06174 34.47093 56.03749 34.71805 57.01324 35.11433 58.61353 35.36142 59.63364 35.60854 60.65373 36.00479 62.32518 36.2519 63.38965 36.499 64.4541 36.89528 66.19672 37.1424 67.30553 37.38948 68.41432 37.78577 70.22795 38.03287 71.3811 38.27997 72.53427 38.67624 74.41919 38.92336 75.61673 39.17044 76.81425 39.56673 78.77017 39.81384 80.01207 40.06093 81.25394 40.45721 83.28116 40.70432 84.56741 40.95142 85.85367 41.34769 87.95189 41.59479 89.28249 41.84189 90.61307 42.23817 92.78249 42.48528 94.15742 42.73238 95.53235 43.37575 99.19208 43.0515 97.34743"/>
<path transform="matrix(-.17310347,-.9849788,-.9849197,.17311384,42.892786,22.753693)" d="M1.27522 0C-.31879 .31879-1.91284 .9564-3.8257 2.07224-1.91284 .6376-1.91284-.6376-3.8257-2.07224-1.91284-.9564-.31879-.31879 1.27522 0Z" fill="#ff0000"/>
<path transform="matrix(-.17310347,-.9849788,-.9849197,.17311384,42.892786,22.753693)" stroke-width="1.19553" stroke-linecap="butt" stroke-linejoin="round" fill="none" stroke="#ff0000" d="M1.27522 0C-.31879 .31879-1.91284 .9564-3.8257 2.07224-1.91284 .6376-1.91284-.6376-3.8257-2.07224-1.91284-.9564-.31879-.31879 1.27522 0Z"/>
<path transform="matrix(.17313348,-.98495879,-.9848997,-.17314385,99.23623,22.776368)" d="M1.27522 0C-.31879 .31879-1.91284 .9564-3.8257 2.07224-1.91284 .6376-1.91284-.6376-3.8257-2.07224-1.91284-.9564-.31879-.31879 1.27522 0Z" fill="#ff0000"/>
<path transform="matrix(.17313348,-.98495879,-.9848997,-.17314385,99.23623,22.776368)" stroke-width="1.19553" stroke-linecap="butt" stroke-linejoin="round" fill="none" stroke="#ff0000" d="M1.27522 0C-.31879 .31879-1.91284 .9564-3.8257 2.07224-1.91284 .6376-1.91284-.6376-3.8257-2.07224-1.91284-.9564-.31879-.31879 1.27522 0Z"/>
<path transform="matrix(1.00002,0,0,-1.00008,56.18387,120.13157)" d="M16.8666 17.3627C16.8666 18.4586 15.97821 19.34697 14.88232 19.34697 13.78642 19.34697 12.89806 18.4586 12.89806 17.3627 12.89806 16.26682 13.78642 15.37843 14.88232 15.37843 15.97821 15.37843 16.8666 16.26682 16.8666 17.3627ZM14.88232 17.3627" fill="#0000ff"/>
<path transform="matrix(1.00002,0,0,-1.00008,56.18387,120.13157)" stroke-width=".3985" stroke-linecap="butt" stroke-miterlimit="10" stroke-linejoin="miter" fill="none" stroke="#0000ff" d="M16.8666 17.3627C16.8666 18.4586 15.97821 19.34697 14.88232 19.34697 13.78642 19.34697 12.89806 18.4586 12.89806 17.3627 12.89806 16.26682 13.78642 15.37843 14.88232 15.37843 15.97821 15.37843 16.8666 16.26682 16.8666 17.3627ZM14.88232 17.3627"/>
<path transform="matrix(1.00002,0,0,-1.00008,56.18387,120.13157)" d="M1.98427 39.68622C1.98427 40.7821 1.09589 41.67049 0 41.67049-1.09589 41.67049-1.98427 40.7821-1.98427 39.68622-1.98427 38.59032-1.09589 37.70195 0 37.70195 1.09589 37.70195 1.98427 38.59032 1.98427 39.68622ZM0 39.68622"/>
<path transform="matrix(1.00002,0,0,-1.00008,56.18387,120.13157)" stroke-width=".3985" stroke-linecap="butt" stroke-miterlimit="10" stroke-linejoin="miter" fill="none" stroke="#000000" d="M1.98427 39.68622C1.98427 40.7821 1.09589 41.67049 0 41.67049-1.09589 41.67049-1.98427 40.7821-1.98427 39.68622-1.98427 38.59032-1.09589 37.70195 0 37.70195 1.09589 37.70195 1.98427 38.59032 1.98427 39.68622ZM0 39.68622"/>
</svg>
