<svg xmlns="http://www.w3.org/2000/svg" xmlns:xlink="http://www.w3.org/1999/xlink" version="1.1" width="230" height="268" viewBox="0 0 230 268">
<defs>
<path id="font_1_2" d="M.33399964 .30233766C.33999635 .32835389 .36299134 .42037965 .43299867 .42037965 .43798829 .42037965 .46199037 .42037965 .48298646 .40734864 .45498658 .402359 .43499757 .37734986 .43499757 .35334779 .43499757 .33735658 .44599916 .31835938 .47299195 .31835938 .49499513 .31835938 .5269928 .3363495 .5269928 .37635804 .5269928 .42837525 .46798707 .4423828 .43399049 .4423828 .37599183 .4423828 .34098817 .38935853 .32899476 .36634828 .3039856 .43237306 .25 .4423828 .22099304 .4423828 .116989139 .4423828 .05999756 .3133545 .05999756 .28834535 .05999756 .27833558 .069992069 .27833558 .07199097 .27833558 .07998657 .27833558 .08299255 .28033448 .084991458 .28933717 .11898804 .39535523 .18499756 .42037965 .21899414 .42037965 .23799134 .42037965 .272995 .4113617 .272995 .35334779 .272995 .32235719 .2559967 .25532533 .21899414 .11528015 .20298767 .053268434 .16799927 .011245728 .12399292 .011245728 .117996219 .011245728 .09498596 .011245728 .07398987 .024276734 .09899902 .029266358 .12098694 .05027771 .12098694 .07827759 .12098694 .105270389 .09899902 .11328125 .083999637 .11328125 .053985597 .11328125 .0289917 .08728027 .0289917 .055267335 .0289917 .009246826 .07899475-.0107421879 .12298584-.0107421879 .18899536-.0107421879 .22499085 .059280397 .22799683 .0652771 .23999024 .028274537 .27598573-.0107421879 .33599855-.0107421879 .43899537-.0107421879 .49598695 .118270877 .49598695 .14328003 .49598695 .1532898 .4869995 .1532898 .48399354 .1532898 .47499085 .1532898 .47299195 .14929199 .47099305 .14228821 .43798829 .03527832 .36999513 .011245728 .33799745 .011245728 .29899598 .011245728 .2829895 .043273927 .2829895 .07727051 .2829895 .09927368 .2889862 .121276859 .2999878 .16529846L.33399964 .30233766Z"/>
<path id="font_1_3" d="M.48599244 .38136292C.48999024 .39537049 .48999024 .39736939 .48999024 .40437318 .48999024 .42237855 .47599793 .43138124 .46099855 .43138124 .45098878 .43138124 .43499757 .42536927 .42599488 .41036988 .42399598 .405365 .41600038 .37435914 .4119873 .35635377 .40499879 .33035279 .397995 .30334474 .3919983 .27633668L.34700013 .09628296C.34298707 .08126831 .2999878 .011245728 .23399353 .011245728 .18299866 .011245728 .17199707 .055267335 .17199707 .0922699 .17199707 .1382904 .18899536 .20030213 .22299195 .28833009 .23899842 .3293457 .24299622 .3403473 .24299622 .36035157 .24299622 .405365 .21099854 .4423828 .16099549 .4423828 .06599426 .4423828 .0289917 .29733277 .0289917 .28833009 .0289917 .27833558 .038986207 .27833558 .040985109 .27833558 .050994874 .27833558 .051986696 .28033448 .056991579 .29634095 .083999637 .3903656 .12399292 .42037965 .1579895 .42037965 .1659851 .42037965 .18299866 .42037965 .18299866 .3883667 .18299866 .36335755 .17298889 .3373413 .1659851 .31834413 .12599182 .21231079 .10798645 .1552887 .10798645 .10827637 .10798645 .019256592 .17098999-.0107421879 .22999573-.0107421879 .2689972-.0107421879 .30299378 .0062561037 .33099366 .03425598 .31799317-.017745972 .30599977-.06674194 .2659912-.11973572 .23999024-.15385437 .20199585-.18309021 .1559906-.18309021 .14199829-.18309021 .09700012-.18005371 .07998657-.14074707 .09599304-.14074707 .10899353-.14074707 .12298584-.1287384 .1329956-.11973572 .14299011-.10673523 .14299011-.08773804 .14299011-.056747438 .115997318-.052734376 .10598755-.052734376 .08299255-.052734376 .049987794-.068740848 .049987794-.11773682 .049987794-.16796875 .09399414-.20507813 .1559906-.20507813 .25898744-.20507813 .3619995-.11373901 .3899994-.00074768069L.48599244 .38136292Z"/>
<path id="font_2_1" d="M.6589966 .23046875C.6759949 .23046875 .69400027 .23046875 .69400027 .25045777 .69400027 .27046205 .6759949 .27046205 .6589966 .27046205H.117996219C.100997928 .27046205 .08299255 .27046205 .08299255 .25045777 .08299255 .23046875 .100997928 .23046875 .117996219 .23046875H.6589966Z"/>
<path id="font_3_4" d="M.2899933 .35191346C.37199403 .37893678 .42999269 .4490509 .42999269 .52809146 .42999269 .6100464 .34199525 .6660156 .24598694 .6660156 .14498902 .6660156 .068984989 .60606387 .068984989 .53009036 .068984989 .49710084 .09098816 .47808839 .11999512 .47808839 .15098572 .47808839 .17098999 .50009158 .17098999 .5290985 .17098999 .57910159 .12399292 .57910159 .10899353 .57910159 .13999939 .62802127 .20599365 .64100649 .24198914 .64100649 .2829895 .64100649 .33799745 .6190338 .33799745 .5290985 .33799745 .51708987 .33599855 .45906068 .30999757 .4149933 .27999879 .36691285 .24598694 .36390687 .22099304 .36291505 .21299744 .36190797 .18899536 .35990907 .18199158 .35990907 .17399597 .35890199 .16699219 .35791017 .16699219 .3479004 .16699219 .33691407 .17399597 .33691407 .19099427 .33691407H.23498535C.31698609 .33691407 .35398866 .2686615 .35398866 .17037964 .35398866 .034469606 .2849884 .0055389406 .24099732 .0055389406 .19799805 .0055389406 .12298584 .022491456 .08799744 .08137512 .12298584 .07637024 .1539917 .09837341 .1539917 .1363678 .1539917 .17237854 .1269989 .19238281 .09799194 .19238281 .07398987 .19238281 .041992189 .17837525 .041992189 .1343689 .041992189 .043441774 .1349945-.022460938 .24398804-.022460938 .3659973-.022460938 .45700074 .06838989 .45700074 .17037964 .45700074 .252594 .3939972 .33088685 .2899933 .35191346Z"/>
<path id="font_3_3" d="M.1269989 .07699585 .23298645 .18003845C.3889923 .31811524 .44898988 .3721466 .44898988 .47216798 .44898988 .5860901 .35899354 .6660156 .23699951 .6660156 .12399292 .6660156 .049987794 .57411196 .049987794 .48516847 .049987794 .4291687 .099990848 .4291687 .102996829 .4291687 .11999512 .4291687 .15499878 .44117738 .15499878 .48217774 .15499878 .5081787 .13699341 .5341797 .101989749 .5341797 .09399414 .5341797 .09199524 .5341797 .08898926 .5331726 .11199951 .59806826 .1659851 .63500979 .22399903 .63500979 .31498719 .63500979 .35798646 .5541382 .35798646 .47216798 .35798646 .39215089 .30799867 .31311036 .25299073 .25108338L.06098938 .036987306C.049987794 .025985718 .049987794 .023986817 .049987794 0H.42099L.44898988 .17404175H.42399598C.4189911 .14402771 .4119873 .1000061 .4019928 .084991458 .394989 .07699585 .32899476 .07699585 .30699159 .07699585H.1269989Z"/>
<path id="font_3_2" d="M.2939911 .64004519C.2939911 .66400149 .2939911 .6660156 .2709961 .6660156 .20899964 .60227969 .12098694 .60227969 .08898926 .60227969V.57128909C.10899353 .57128909 .16799927 .57128909 .21998596 .5972748V.07902527C.21998596 .042999269 .21699524 .0309906 .1269989 .0309906H.09498596V0C.12998963 .0029907227 .21699524 .0029907227 .25698854 .0029907227 .29699708 .0029907227 .38398744 .0029907227 .4189911 0V.0309906H.3869934C.29699708 .0309906 .2939911 .041992189 .2939911 .07902527V.64004519Z"/>
<path id="font_3_1" d="M.45999146 .31976319C.45999146 .39982606 .45498658 .47988893 .41999818 .5539398 .37399293 .65000918 .2919922 .6660156 .25 .6660156 .18998719 .6660156 .116989139 .64001467 .07598877 .54693606 .04399109 .47789 .038986207 .39982606 .038986207 .31976319 .038986207 .24472046 .042999269 .15464783 .083999637 .07859802 .1269989-.0024719239 .19999695-.022460938 .24899292-.022460938 .30299378-.022460938 .3789978-.0014648438 .4229889 .09359741 .45498658 .16265869 .45999146 .2407074 .45999146 .31976319M.24899292-.00047302247C.20999146-.00047302247 .15098572 .024551392 .1329956 .12062073 .12199402 .18066406 .12199402 .2727356 .12199402 .3317871 .12199402 .39582826 .12199402 .46188355 .12998963 .5159149 .14898682 .63500979 .22399903 .64401248 .24899292 .64401248 .28199769 .64401248 .34799195 .6259918 .36698915 .52693179 .3769989 .47088624 .3769989 .39482118 .3769989 .3317871 .3769989 .25672914 .3769989 .18867493 .3659973 .12461853 .35099793 .029556275 .2939911-.00047302247 .24899292-.00047302247Z"/>
<path id="font_3_8" d="M.16299439 .4569702C.116989139 .486969 .11299133 .52098086 .11299133 .5379791 .11299133 .598999 .17799378 .64100649 .24899292 .64100649 .32199098 .64100649 .38598634 .58898928 .38598634 .51698306 .38598634 .45996095 .34700013 .4119568 .2869873 .37695313L.16299439 .4569702M.30899049 .36193849C.3809967 .3989563 .42999269 .45095826 .42999269 .51698306 .42999269 .6090088 .34098817 .6660156 .25 .6660156 .1499939 .6660156 .068984989 .59199526 .068984989 .49897767 .068984989 .4809723 .070999149 .43595887 .11299133 .38894654 .12399292 .37695313 .16099549 .35194398 .18598938 .33494569 .12799073 .30592347 .041992189 .24984741 .041992189 .15072632 .041992189 .04458618 .14399719-.022460938 .24899292-.022460938 .3619995-.022460938 .45700074 .06060791 .45700074 .16773987 .45700074 .20379639 .44599916 .24885559 .4079895 .2909088 .3889923 .31193543 .37298585 .3219452 .30899049 .36193849M.20899964 .3199463 .33198548 .24183655C.3600006 .2228241 .40699769 .19277954 .40699769 .13169861 .40699769 .05760193 .33198548 .0055389406 .25 .0055389406 .1639862 .0055389406 .09199524 .067611698 .09199524 .15072632 .09199524 .20880127 .12399292 .27288819 .20899964 .3199463Z"/>
<path id="font_3_7" d="M.13198853 .327713V.35173036C.13198853 .6047821 .2559967 .64100649 .30699159 .64100649 .33099366 .64100649 .37298585 .634964 .394989 .6007538 .37998963 .6007538 .33999635 .6007538 .33999635 .5557556 .33999635 .524765 .3639984 .5097656 .38598634 .5097656 .4019928 .5097656 .43199159 .51875308 .43199159 .5577545 .43199159 .6178589 .3880005 .6660156 .30499269 .6660156 .1769867 .6660156 .041992189 .5367584 .041992189 .31570436 .041992189 .048553468 .1579895-.022460938 .25099183-.022460938 .3619995-.022460938 .45700074 .07156372 .45700074 .2036438 .45700074 .33070375 .36799623 .4267578 .25698854 .4267578 .18899536 .4267578 .1519928 .37573243 .13198853 .327713M.25099183 .0055389406C.18798828 .0055389406 .1579895 .06556702 .1519928 .080566409 .13398743 .127594 .13398743 .2076416 .13398743 .22564698 .13398743 .30369569 .1659851 .40374757 .2559967 .40374757 .27198792 .40374757 .31799317 .40374757 .34899903 .34172059 .36698915 .30470277 .36698915 .2536621 .36698915 .20463562 .36698915 .15661621 .36698915 .10658264 .34999085 .0705719 .31999208 .010528564 .27398683 .0055389406 .25099183 .0055389406Z"/>
<path id="font_3_5" d="M.2939911 .16503906V.07800293C.2939911 .041992189 .2919922 .0309906 .21798706 .0309906H.19699097V0C.23799134 .0029907227 .2899933 .0029907227 .33198548 .0029907227 .37399293 .0029907227 .4269867 .0029907227 .46798707 0V.0309906H.44699098C.37298585 .0309906 .37098695 .041992189 .37098695 .07800293V.16503906H.47099305V.19602967H.37098695V.65075686C.37098695 .67074587 .37098695 .6767578 .35499574 .6767578 .34599305 .6767578 .34298707 .6767578 .33499146 .66474917L.027999878 .19602967V.16503906H.2939911M.2999878 .19602967H.055999757L.2999878 .5688019V.19602967Z"/>
<path id="font_3_9" d="M.68699648 .32714845C.70199587 .32714845 .72099307 .32714845 .72099307 .34713746 .72099307 .36714173 .70199587 .36714173 .6879883 .36714173H.08898926C.07499695 .36714173 .055999757 .36714173 .055999757 .34713746 .055999757 .32714845 .07499695 .32714845 .08999634 .32714845H.68699648M.6879883 .13284302C.70199587 .13284302 .72099307 .13284302 .72099307 .15284729 .72099307 .17285156 .70199587 .17285156 .68699648 .17285156H.08999634C.07499695 .17285156 .055999757 .17285156 .055999757 .15284729 .055999757 .13284302 .07499695 .13284302 .08898926 .13284302H.6879883Z"/>
<path id="font_4_1" d="M.5049896 .18203736H.47099305C.46798707 .16001892 .45799256 .100997928 .44499208 .09098816 .43699647 .084991458 .3600006 .084991458 .34599305 .084991458H.1619873C.2669983 .17803955 .3019867 .20603943 .3619995 .25306703 .43598939 .312088 .5049896 .374115 .5049896 .46914674 .5049896 .5900879 .39898683 .6640625 .2709961 .6640625 .14698792 .6640625 .06298828 .57710269 .06298828 .4851532 .06298828 .43414308 .10598755 .42915345 .115997318 .42915345 .13999939 .42915345 .16899109 .44615174 .16899109 .48214723 .16899109 .5001526 .1619873 .53515627 .10998535 .53515627 .14099121 .6060791 .20899964 .62805178 .2559967 .62805178 .35598756 .62805178 .4079895 .5501404 .4079895 .46914674 .4079895 .38212586 .34599305 .3130951 .31399537 .27708436L.07299805 .038986207C.06298828 .02999878 .06298828 .027999878 .06298828 0H.47499085L.5049896 .18203736Z"/>
<path id="font_1_1" d="M.19198609 .052993776C.19198609 .08198547 .16799927 .10598755 .13899231 .10598755 .10998535 .10598755 .085998538 .08198547 .085998538 .052993776 .085998538 .023986817 .10998535 0 .13899231 0 .16799927 0 .19198609 .023986817 .19198609 .052993776Z"/>
<path id="font_3_6" d="M.44898988 .20022583C.44898988 .3193512 .36698915 .41944886 .25898744 .41944886 .21099854 .41944886 .16799927 .40345765 .13198853 .36842347V.5637665C.1519928 .5577698 .18499756 .55078127 .21699524 .55078127 .33999635 .55078127 .4099884 .6417694 .4099884 .6547699 .4099884 .6607666 .40699769 .6657715 .3999939 .6657715 .39898683 .6657715 .39698792 .6657715 .3919983 .66278079 .37199403 .6537781 .32299806 .6337738 .2559967 .6337738 .21598816 .6337738 .16999817 .6407776 .12298584 .6617737 .114990238 .66477969 .11299133 .66477969 .11099243 .66477969 .100997928 .66477969 .100997928 .6567688 .100997928 .6407776V.34439088C.100997928 .32637025 .100997928 .31835938 .114990238 .31835938 .12199402 .31835938 .12399292 .32136537 .12799073 .32736207 .13899231 .3433838 .17599488 .39746095 .25698854 .39746095 .30899049 .39746095 .33399964 .35139466 .34199525 .33337403 .35798646 .29632569 .3600006 .25727845 .3600006 .20722962 .3600006 .17222595 .3600006 .11222839 .33599855 .07035828 .31199647 .031463624 .2749939 .0055389406 .22898865 .0055389406 .1559906 .0055389406 .09899902 .058380128 .08198547 .11723328 .084991458 .1162262 .08799744 .115234378 .09899902 .115234378 .13198853 .115234378 .14898682 .14022827 .14898682 .16423035 .14898682 .18823242 .13198853 .21322632 .09899902 .21322632 .084991458 .21322632 .049987794 .20622254 .049987794 .16023255 .049987794 .07434082 .11898804-.022460938 .23098755-.022460938 .34700013-.022460938 .44898988 .073349 .44898988 .20022583Z"/>
</defs>
<path transform="matrix(1.00003,0,0,-1.00009,91.61838,138.87233)" stroke-width=".3985" stroke-linecap="butt" stroke-miterlimit="10" stroke-linejoin="miter" fill="none" stroke="#00aeef" d="M-85.04042-113.38766H85.04042M-85.04042-90.71013H85.04042M-85.04042-68.0326H85.04042M-85.04042-45.35506H85.04042M-85.04042-22.67752H85.04042M-85.04042 0H85.04042M-85.04042 22.67752H85.04042M-85.04042 45.35506H85.04042M-85.04042 68.0326H85.04042M-85.04042 90.71013H85.04042M-85.04042 113.37968H85.04042M-85.04042-113.38766V113.38766M-56.69362-113.38766V113.38766M-28.3468-113.38766V113.38766M0-113.38766V113.38766M28.3468-113.38766V113.38766M56.69362-113.38766V113.38766M85.03047-113.38766V113.38766M85.04042 113.38766"/>
<path transform="matrix(1.00003,0,0,-1.00009,91.61838,138.87233)" stroke-width=".79701" stroke-linecap="butt" stroke-miterlimit="10" stroke-linejoin="miter" fill="none" stroke="#000000" d="M-85.04042 0H100.61406"/>
<path transform="matrix(1.00003,0,0,-1.00009,192.23546,138.87233)" d="M1.0361 0C-.25902 .25902-1.55415 .77707-3.1083 1.68365-1.55415 .51805-1.55415-.51805-3.1083-1.68365-1.55415-.77707-.25902-.25902 1.0361 0Z"/>
<path transform="matrix(1.00003,0,0,-1.00009,192.23546,138.87233)" stroke-width=".79701" stroke-linecap="butt" stroke-linejoin="round" fill="none" stroke="#000000" d="M1.0361 0C-.25902 .25902-1.55415 .77707-3.1083 1.68365-1.55415 .51805-1.55415-.51805-3.1083-1.68365-1.55415-.77707-.25902-.25902 1.0361 0Z"/>
<use data-text="x" xlink:href="#font_1_2" transform="matrix(9.962899,0,0,-9.963496,197.38956,141.01752)"/>
<path transform="matrix(1.00003,0,0,-1.00009,91.61838,138.87233)" stroke-width=".79701" stroke-linecap="butt" stroke-miterlimit="10" stroke-linejoin="miter" fill="none" stroke="#000000" d="M0-113.38766V125.5597"/>
<path transform="matrix(0,-1.00009,-1.00003,-0,91.61838,13.301331)" d="M1.0361 0C-.25902 .25902-1.55415 .77707-3.1083 1.68365-1.55415 .51805-1.55415-.51805-3.1083-1.68365-1.55415-.77707-.25902-.25902 1.0361 0Z"/>
<path transform="matrix(0,-1.00009,-1.00003,-0,91.61838,13.301331)" stroke-width=".79701" stroke-linecap="butt" stroke-linejoin="round" fill="none" stroke="#000000" d="M1.0361 0C-.25902 .25902-1.55415 .77707-3.1083 1.68365-1.55415 .51805-1.55415-.51805-3.1083-1.68365-1.55415-.77707-.25902-.25902 1.0361 0Z"/>
<use data-text="y" xlink:href="#font_1_3" transform="matrix(9.962899,0,0,-9.963496,88.9973,6.2093966)"/>
<path transform="matrix(1.00003,0,0,-1.00009,91.61838,138.87233)" stroke-width=".79701" stroke-linecap="butt" stroke-miterlimit="10" stroke-linejoin="miter" fill="none" stroke="#000000" d="M-85.04042 2.26787V-2.26753"/>
<path transform="matrix(1.00003,0,0,-1.00009,91.61838,138.87233)" d="M-92.40181-13.90182H-77.67903V-4.6585905H-92.40181Z" fill="#ffffff"/>
<use data-text="&#x2212;" xlink:href="#font_2_1" transform="matrix(9.962899,0,0,-9.963496,.2096405,150.94843)"/>
<use data-text="3" xlink:href="#font_3_4" transform="matrix(9.962899,0,0,-9.963496,7.9588625,150.94843)"/>
<path transform="matrix(1.00003,0,0,-1.00009,91.61838,138.87233)" stroke-width=".79701" stroke-linecap="butt" stroke-miterlimit="10" stroke-linejoin="miter" fill="none" stroke="#000000" d="M-56.69362 2.26787V-2.26753"/>
<path transform="matrix(1.00003,0,0,-1.00009,91.61838,138.87233)" d="M-64.05501-13.90182H-49.33223V-4.6585905H-64.05501Z" fill="#ffffff"/>
<use data-text="&#x2212;" xlink:href="#font_2_1" transform="matrix(9.962899,0,0,-9.963496,28.55748,150.94843)"/>
<use data-text="2" xlink:href="#font_3_3" transform="matrix(9.962899,0,0,-9.963496,36.3067,150.94843)"/>
<path transform="matrix(1.00003,0,0,-1.00009,91.61838,138.87233)" stroke-width=".79701" stroke-linecap="butt" stroke-miterlimit="10" stroke-linejoin="miter" fill="none" stroke="#000000" d="M-28.3468 2.26787V-2.26753"/>
<path transform="matrix(1.00003,0,0,-1.00009,91.61838,138.87233)" d="M-35.70819-13.90182H-20.98541V-4.6585905H-35.70819Z" fill="#ffffff"/>
<use data-text="&#x2212;" xlink:href="#font_2_1" transform="matrix(9.962899,0,0,-9.963496,56.905336,150.94843)"/>
<use data-text="1" xlink:href="#font_3_2" transform="matrix(9.962899,0,0,-9.963496,64.65456,150.94843)"/>
<path transform="matrix(1.00003,0,0,-1.00009,91.61838,138.87233)" stroke-width=".79701" stroke-linecap="butt" stroke-miterlimit="10" stroke-linejoin="miter" fill="none" stroke="#000000" d="M28.3468 2.26787V-2.26753"/>
<path transform="matrix(1.00003,0,0,-1.00009,91.61838,138.87233)" d="M24.85983-13.07158H31.83377V-4.6586H24.85983Z" fill="#ffffff"/>
<use data-text="1" xlink:href="#font_3_2" transform="matrix(9.962899,0,0,-9.963496,117.47516,150.94843)"/>
<path transform="matrix(1.00003,0,0,-1.00009,91.61838,138.87233)" stroke-width=".79701" stroke-linecap="butt" stroke-miterlimit="10" stroke-linejoin="miter" fill="none" stroke="#000000" d="M56.69362 2.26787V-2.26753"/>
<path transform="matrix(1.00003,0,0,-1.00009,91.61838,138.87233)" d="M53.20665-13.07158H60.180589V-4.6586H53.20665Z" fill="#ffffff"/>
<use data-text="2" xlink:href="#font_3_3" transform="matrix(9.962899,0,0,-9.963496,145.823,150.94843)"/>
<path transform="matrix(1.00003,0,0,-1.00009,91.61838,138.87233)" stroke-width=".79701" stroke-linecap="butt" stroke-miterlimit="10" stroke-linejoin="miter" fill="none" stroke="#000000" d="M85.04042 2.26787V-2.26753"/>
<path transform="matrix(1.00003,0,0,-1.00009,91.61838,138.87233)" d="M81.55345-13.07158H88.52739V-4.6586H81.55345Z" fill="#ffffff"/>
<use data-text="3" xlink:href="#font_3_4" transform="matrix(9.962899,0,0,-9.963496,174.17087,150.94843)"/>
<path transform="matrix(1.00003,0,0,-1.00009,91.61838,138.87233)" stroke-width=".79701" stroke-linecap="butt" stroke-miterlimit="10" stroke-linejoin="miter" fill="none" stroke="#000000" d="M2.83484-113.38766H-2.83441"/>
<path transform="matrix(1.00003,0,0,-1.00009,91.61838,138.87233)" d="M-24.92967-118.00928H-5.2254698V-108.766048H-24.92967Z" fill="#ffffff"/>
<use data-text="&#x2212;" xlink:href="#font_2_1" transform="matrix(9.962899,0,0,-9.963496,67.68466,255.0658)"/>
<use data-text="1" xlink:href="#font_3_2" transform="matrix(9.962899,0,0,-9.963496,75.43388,255.0658)"/>
<use data-text="0" xlink:href="#font_3_1" transform="matrix(9.962899,0,0,-9.963496,80.41533,255.0658)"/>
<path transform="matrix(1.00003,0,0,-1.00009,91.61838,138.87233)" stroke-width=".79701" stroke-linecap="butt" stroke-miterlimit="10" stroke-linejoin="miter" fill="none" stroke="#000000" d="M2.83484-90.71013H-2.83441"/>
<path transform="matrix(1.00003,0,0,-1.00009,91.61838,138.87233)" d="M-19.94826-95.33174H-5.225479V-86.08851H-19.94826Z" fill="#ffffff"/>
<use data-text="&#x2212;" xlink:href="#font_2_1" transform="matrix(9.962899,0,0,-9.963496,72.66581,232.38574)"/>
<use data-text="8" xlink:href="#font_3_8" transform="matrix(9.962899,0,0,-9.963496,80.41503,232.38574)"/>
<path transform="matrix(1.00003,0,0,-1.00009,91.61838,138.87233)" stroke-width=".79701" stroke-linecap="butt" stroke-miterlimit="10" stroke-linejoin="miter" fill="none" stroke="#000000" d="M2.83484-68.0326H-2.83441"/>
<path transform="matrix(1.00003,0,0,-1.00009,91.61838,138.87233)" d="M-19.94826-72.6542H-5.225479V-63.41097H-19.94826Z" fill="#ffffff"/>
<use data-text="&#x2212;" xlink:href="#font_2_1" transform="matrix(9.962899,0,0,-9.963496,72.66581,209.70671)"/>
<use data-text="6" xlink:href="#font_3_7" transform="matrix(9.962899,0,0,-9.963496,80.41503,209.70671)"/>
<path transform="matrix(1.00003,0,0,-1.00009,91.61838,138.87233)" stroke-width=".79701" stroke-linecap="butt" stroke-miterlimit="10" stroke-linejoin="miter" fill="none" stroke="#000000" d="M2.83484-45.35506H-2.83441"/>
<path transform="matrix(1.00003,0,0,-1.00009,91.61838,138.87233)" d="M-19.94826-49.97667H-5.225479V-40.73344H-19.94826Z" fill="#ffffff"/>
<use data-text="&#x2212;" xlink:href="#font_2_1" transform="matrix(9.962899,0,0,-9.963496,72.66581,187.02667)"/>
<use data-text="4" xlink:href="#font_3_5" transform="matrix(9.962899,0,0,-9.963496,80.41503,187.02667)"/>
<path transform="matrix(1.00003,0,0,-1.00009,91.61838,138.87233)" stroke-width=".79701" stroke-linecap="butt" stroke-miterlimit="10" stroke-linejoin="miter" fill="none" stroke="#000000" d="M2.83484-22.67752H-2.83441"/>
<path transform="matrix(1.00003,0,0,-1.00009,91.61838,138.87233)" d="M-19.94826-27.29913H-5.225479V-18.0559H-19.94826Z" fill="#ffffff"/>
<use data-text="&#x2212;" xlink:href="#font_2_1" transform="matrix(9.962899,0,0,-9.963496,72.66581,164.34763)"/>
<use data-text="2" xlink:href="#font_3_3" transform="matrix(9.962899,0,0,-9.963496,80.41503,164.34763)"/>
<path transform="matrix(1.00003,0,0,-1.00009,91.61838,138.87233)" stroke-width=".79701" stroke-linecap="butt" stroke-miterlimit="10" stroke-linejoin="miter" fill="none" stroke="#000000" d="M2.83484 22.67752H-2.83441"/>
<path transform="matrix(1.00003,0,0,-1.00009,91.61838,138.87233)" d="M-12.19942 18.47102H-5.22548V26.883999H-12.19942Z" fill="#ffffff"/>
<use data-text="2" xlink:href="#font_3_3" transform="matrix(9.962899,0,0,-9.963496,80.41504,119.40358)"/>
<path transform="matrix(1.00003,0,0,-1.00009,91.61838,138.87233)" stroke-width=".79701" stroke-linecap="butt" stroke-miterlimit="10" stroke-linejoin="miter" fill="none" stroke="#000000" d="M2.83484 45.35506H-2.83441"/>
<path transform="matrix(1.00003,0,0,-1.00009,91.61838,138.87233)" d="M-12.19942 41.14856H-5.22548V49.56154H-12.19942Z" fill="#ffffff"/>
<use data-text="4" xlink:href="#font_3_5" transform="matrix(9.962899,0,0,-9.963496,80.41504,96.72354)"/>
<path transform="matrix(1.00003,0,0,-1.00009,91.61838,138.87233)" stroke-width=".79701" stroke-linecap="butt" stroke-miterlimit="10" stroke-linejoin="miter" fill="none" stroke="#000000" d="M2.83484 68.0326H-2.83441"/>
<path transform="matrix(1.00003,0,0,-1.00009,91.61838,138.87233)" d="M-12.19942 63.8261H-5.22548V72.23908H-12.19942Z" fill="#ffffff"/>
<use data-text="6" xlink:href="#font_3_7" transform="matrix(9.962899,0,0,-9.963496,80.41504,74.044498)"/>
<path transform="matrix(1.00003,0,0,-1.00009,91.61838,138.87233)" stroke-width=".79701" stroke-linecap="butt" stroke-miterlimit="10" stroke-linejoin="miter" fill="none" stroke="#000000" d="M2.83484 90.71013H-2.83441"/>
<path transform="matrix(1.00003,0,0,-1.00009,91.61838,138.87233)" d="M-12.19942 86.50363H-5.22548V94.91661H-12.19942Z" fill="#ffffff"/>
<use data-text="8" xlink:href="#font_3_8" transform="matrix(9.962899,0,0,-9.963496,80.41504,51.364458)"/>
<path transform="matrix(1.00003,0,0,-1.00009,91.61838,138.87233)" stroke-width=".79701" stroke-linecap="butt" stroke-miterlimit="10" stroke-linejoin="miter" fill="none" stroke="#000000" d="M2.83484 113.38766H-2.83441"/>
<path transform="matrix(1.00003,0,0,-1.00009,91.61838,138.87233)" d="M-17.18083 109.18117H-5.2254898V117.59415H-17.18083Z" fill="#ffffff"/>
<use data-text="1" xlink:href="#font_3_2" transform="matrix(9.962899,0,0,-9.963496,75.43289,28.68541)"/>
<use data-text="0" xlink:href="#font_3_1" transform="matrix(9.962899,0,0,-9.963496,80.41432,28.68541)"/>
<path transform="matrix(1.00003,0,0,-1.00009,91.61838,138.87233)" stroke-width="1.19553" stroke-linecap="butt" stroke-miterlimit="10" stroke-linejoin="miter" fill="none" stroke="#000000" d="M-85.04042 102.04889C-85.04042 102.04889-83.12035 97.48505-82.3829 95.77048-81.64546 94.05591-80.46283 91.35066-79.72539 89.6914-78.98793 88.03214-77.80533 85.41559-77.06789 83.81163-76.33043 82.20767-75.14781 79.67981-74.41037 78.13116-73.67291 76.58252-72.4903 74.14337-71.75284 72.65004-71.0154 71.1567-69.8328 68.80623-69.09534 67.3682-68.3579 65.93016-67.17526 63.6684-66.43782 62.28569-65.70038 60.90297-64.51775 58.72989-63.7803 57.40248-63.04286 56.07507-61.86024 53.99072-61.1228 52.7186-60.38535 51.4465-59.20273 49.45082-58.46529 48.23402-57.72783 47.01723-56.54521 45.11026-55.80777 43.94878-55.07031 42.7873-53.88771 40.96901-53.15025 39.86284-52.41281 38.75667-51.2302 37.02705-50.49274 35.9762-49.7553 34.92534-48.57266 33.28444-47.83522 32.2889-47.09778 31.29333-45.91516 29.74115-45.17772 28.80089-44.44028 27.86063-43.25764 26.39716-42.5202 25.51219-41.78275 24.62726-40.60013 23.25247-39.86269 22.42284-39.12523 21.5932-37.94263 20.3071-37.20518 19.53278-36.46773 18.75845-35.28511 17.56105-34.54765 16.84204-33.81021 16.12303-32.6276 15.0143-31.89014 14.35062-31.1527 13.6869-29.97008 12.66689-29.23264 12.05849-28.4952 11.45009-27.31256 10.51878-26.57512 9.9657-25.83768 9.41261-24.65504 8.56999-23.9176 8.07222-23.18015 7.57442-21.99754 6.8205-21.2601 6.37802-20.52264 5.93556-19.34003 5.27034-18.60258 4.8832-17.86513 4.49602-16.68251 3.9195-15.94505 3.58765-15.20761 3.25578-14.02501 2.76796-13.28755 2.4914-12.55011 2.21486-11.36748 1.81573-10.63004 1.5945-9.8926 1.37326-8.70996 1.0628-7.97252 .8969-7.23508 .73096-6.05246 .50922-5.31502 .3986-4.57756 .288-3.39494 .15494-2.6575 .09964-1.92004 .04434-.73743 0 0 0 .73743 0 1.92004 .04434 2.6575 .09964 3.39494 .15494 4.57756 .288 5.31502 .3986 6.05246 .50922 7.23508 .73096 7.97252 .8969 8.70996 1.0628 9.8926 1.37326 10.63004 1.5945 11.36748 1.81573 12.55011 2.21486 13.28755 2.4914 14.02501 2.76796 15.20761 3.25578 15.94505 3.58765 16.68251 3.9195 17.86513 4.49602 18.60258 4.8832 19.34003 5.27034 20.52264 5.93556 21.2601 6.37802 21.99754 6.8205 23.18015 7.57442 23.9176 8.07222 24.65504 8.56999 25.83768 9.41261 26.57512 9.9657 27.31256 10.51878 28.4952 11.45009 29.23264 12.05849 29.97008 12.66689 31.1527 13.6869 31.89014 14.35062 32.6276 15.0143 33.81021 16.12303 34.54765 16.84204 35.28511 17.56105 36.46773 18.75845 37.20518 19.53278 37.94263 20.3071 39.12523 21.5932 39.86269 22.42284 40.60013 23.25247 41.78275 24.62726 42.5202 25.51219 43.25764 26.39716 44.44028 27.86063 45.17772 28.80089 45.91516 29.74115 47.09778 31.29333 47.83522 32.2889 48.57266 33.28444 49.7553 34.92534 50.49274 35.9762 51.2302 37.02705 52.41281 38.75667 53.15025 39.86284 53.88771 40.96901 55.07031 42.7873 55.80777 43.94878 56.54521 45.11026 57.72783 47.01723 58.46529 48.23402 59.20273 49.45082 60.38535 51.4465 61.1228 52.7186 61.86024 53.99072 63.04286 56.07507 63.7803 57.40248 64.51775 58.72989 65.70038 60.90297 66.43782 62.28569 67.17526 63.6684 68.3579 65.93016 69.09534 67.3682 69.8328 68.80623 71.0154 71.1567 71.75284 72.65004 72.4903 74.14337 73.67291 76.58252 74.41037 78.13116 75.14781 79.67981 76.33043 82.20767 77.06789 83.81163 77.80533 85.41559 78.98793 88.03214 79.72539 89.6914 80.46283 91.35066 81.64546 94.05591 82.3829 95.77048 83.12035 97.48505 85.04042 102.04889 85.04042 102.04889"/>
<use data-text="y" xlink:href="#font_1_3" transform="matrix(9.962899,0,0,-9.963496,180.58005,39.90043)"/>
<use data-text="=" xlink:href="#font_3_9" transform="matrix(9.962899,0,0,-9.963496,188.58928,39.90043)"/>
<use data-text="x" xlink:href="#font_1_2" transform="matrix(9.962899,0,0,-9.963496,199.1056,39.90043)"/>
<use data-text="2" xlink:href="#font_4_1" transform="matrix(6.9740097,0,0,-6.9744279,204.79978,36.284105)"/>
<path transform="matrix(1.00003,0,0,-1.00009,91.61838,138.87233)" stroke-width="1.19553" stroke-linecap="butt" stroke-miterlimit="10" stroke-linejoin="miter" fill="none" stroke="#0000ff" d="M-85.04042-51.02443C-85.04042-51.02443-83.12035-48.74252-82.3829-47.88524-81.64546-47.02795-80.46283-45.67532-79.72539-44.84569-78.98793-44.01605-77.80533-42.70778-77.06789-41.9058-76.33043-41.10384-75.14781-39.83989-74.41037-39.06557-73.67291-38.29126-72.4903-37.07167-71.75284-36.32501-71.0154-35.57834-69.8328-34.40309-69.09534-33.68408-68.3579-32.96507-67.17526-31.83418-66.43782-31.14282-65.70038-30.45148-64.51775-29.36493-63.7803-28.70123-63.04286-28.03754-61.86024-26.99535-61.1228-26.3593-60.38535-25.72325-59.20273-24.7254-58.46529-24.117-57.72783-23.5086-56.54521-22.55511-55.80777-21.97438-55.07031-21.39365-53.88771-20.4845-53.15025-19.93141-52.41281-19.37833-51.2302-18.51352-50.49274-17.9881-49.7553-17.46266-48.57266-16.64221-47.83522-16.14444-47.09778-15.64665-45.91516-14.87056-45.17772-14.40044-44.44028-13.93031-43.25764-13.19855-42.5202-12.75609-41.78275-12.31363-40.60013-11.6262-39.86269-11.21141-39.12523-10.79659-37.94263-10.15353-37.20518-9.76639-36.46773-9.37923-35.28511-8.7805-34.54765-8.421-33.81021-8.06151-32.6276-7.50714-31.89014-7.1753-31.1527-6.84344-29.97008-6.33342-29.23264-6.02924-28.4952-5.72504-27.31256-5.25937-26.57512-4.98283-25.83768-4.7063-24.65504-4.28497-23.9176-4.03609-23.18015-3.7872-21.99754-3.41023-21.2601-3.189-20.52264-2.96777-19.34003-2.63515-18.60258-2.44159-17.86513-2.248-16.68251-1.95975-15.94505-1.79381-15.20761-1.6279-14.02501-1.38396-13.28755-1.24568-12.55011-1.10742-11.36748-.90785-10.63004-.79724-9.8926-.68663-8.70996-.53139-7.97252-.44844-7.23508-.36548-6.05246-.2546-5.31502-.1993-4.57756-.14398-3.39494-.07747-2.6575-.0498-1.92004-.02217-.73743 0 0 0 .73743 0 1.92004-.02217 2.6575-.0498 3.39494-.07747 4.57756-.14398 5.31502-.1993 6.05246-.2546 7.23508-.36548 7.97252-.44844 8.70996-.53139 9.8926-.68663 10.63004-.79724 11.36748-.90785 12.55011-1.10742 13.28755-1.24568 14.02501-1.38396 15.20761-1.6279 15.94505-1.79381 16.68251-1.95975 17.86513-2.248 18.60258-2.44159 19.34003-2.63515 20.52264-2.96777 21.2601-3.189 21.99754-3.41023 23.18015-3.7872 23.9176-4.03609 24.65504-4.28497 25.83768-4.7063 26.57512-4.98283 27.31256-5.25937 28.4952-5.72504 29.23264-6.02924 29.97008-6.33342 31.1527-6.84344 31.89014-7.1753 32.6276-7.50714 33.81021-8.06151 34.54765-8.421 35.28511-8.7805 36.46773-9.37923 37.20518-9.76639 37.94263-10.15353 39.12523-10.79659 39.86269-11.21141 40.60013-11.6262 41.78275-12.31363 42.5202-12.75609 43.25764-13.19855 44.44028-13.93031 45.17772-14.40044 45.91516-14.87056 47.09778-15.64665 47.83522-16.14444 48.57266-16.64221 49.7553-17.46266 50.49274-17.9881 51.2302-18.51352 52.41281-19.37833 53.15025-19.93141 53.88771-20.4845 55.07031-21.39365 55.80777-21.97438 56.54521-22.55511 57.72783-23.5086 58.46529-24.117 59.20273-24.7254 60.38535-25.72325 61.1228-26.3593 61.86024-26.99535 63.04286-28.03754 63.7803-28.70123 64.51775-29.36493 65.70038-30.45148 66.43782-31.14282 67.17526-31.83418 68.3579-32.96507 69.09534-33.68408 69.8328-34.40309 71.0154-35.57834 71.75284-36.32501 72.4903-37.07167 73.67291-38.29126 74.41037-39.06557 75.14781-39.83989 76.33043-41.10384 77.06789-41.9058 77.80533-42.70778 78.98793-44.01605 79.72539-44.84569 80.46283-45.67532 81.64546-47.02795 82.3829-47.88524 83.12035-48.74252 85.04042-51.02443 85.04042-51.02443"/>
<use data-text="y" xlink:href="#font_1_3" transform="matrix(9.962899,0,0,-9.963496,180.58005,192.98819)" fill="#0000ff"/>
<use data-text="=" xlink:href="#font_3_9" transform="matrix(9.962899,0,0,-9.963496,188.58928,192.98819)" fill="#0000ff"/>
<use data-text="&#x2212;" xlink:href="#font_2_1" transform="matrix(9.962899,0,0,-9.963496,199.1056,192.98819)" fill="#0000ff"/>
<use data-text="0" xlink:href="#font_3_1" transform="matrix(9.962899,0,0,-9.963496,206.85483,192.98819)" fill="#0000ff"/>
<use data-text="." xlink:href="#font_1_1" transform="matrix(9.962899,0,0,-9.963496,211.83599,192.98819)" fill="#0000ff"/>
<use data-text="5" xlink:href="#font_3_6" transform="matrix(9.962899,0,0,-9.963496,214.60408,192.98819)" fill="#0000ff"/>
<use data-text="x" xlink:href="#font_1_2" transform="matrix(9.962899,0,0,-9.963496,219.58522,192.98819)" fill="#0000ff"/>
<use data-text="2" xlink:href="#font_4_1" transform="matrix(6.9740097,0,0,-6.9744279,225.2794,189.37187)" fill="#0000ff"/>
<path transform="matrix(1.00003,0,0,-1.00009,91.61838,138.87233)" stroke-width="1.19553" stroke-linecap="butt" stroke-miterlimit="10" stroke-linejoin="miter" fill="none" stroke="#ff0000" d="M-63.38496-113.38593C-63.38496-113.38593-61.95396-108.3155-61.40437-106.41061-60.85477-104.50574-59.97337-101.5002-59.42378-99.65675-58.87419-97.81332-57.99278-94.90636-57.44319-93.12437-56.8936-91.34239-56.01219-88.53398-55.4626-86.81345-54.91301-85.09291-54.03162-82.3831-53.48201-80.72398-52.93242-79.06488-52.05103-76.4533-51.50142-74.85564-50.95183-73.25798-50.07043-70.7453-49.52083-69.20909-48.97124-67.67288-48.08984-65.25845-47.54024-63.78366-46.99065-62.30885-46.10924-59.99303-45.55963-58.57968-45.01004-57.16634-44.12865-54.94907-43.57904-53.59717-43.02945-52.24527-42.14806-50.12656-41.59846-48.83612-41.04886-47.54568-40.16747-45.52557-39.61787-44.29654-39.06827-43.06752-38.18687-41.14563-37.63728-39.97806-37.08768-38.81047-36.20628-36.98752-35.6567-35.8814-35.10709-34.77527-34.2257-33.05057-33.6761-32.00584-33.1265-30.96112-32.2451-29.335-31.69551-28.35175-31.1459-27.36848-30.26451-25.84093-29.71492-24.91911-29.16533-23.99728-28.2839-22.56828-27.73431-21.70793-27.18472-20.8476-26.30333-19.51712-25.75372-18.71822-25.20413-17.91933-24.32274-16.68745-23.77313-15.94997-23.22354-15.21248-22.34215-14.07886-21.79254-13.40283-21.24295-12.72679-20.36156-11.69208-19.81195-11.07748-19.26236-10.4629-18.38097-9.52644-17.83136-8.97328-17.28177-8.42009-16.40038-7.58226-15.85077-7.09052-15.30118-6.59879-14.41978-5.85948-13.8702-5.42921-13.32059-4.99895-12.4392-4.35818-11.8896-3.98936-11.34-3.62056-10.45859-3.07841-9.909-2.771-9.35939-2.4636-8.478-2.0197-7.9284-1.77373-7.3788-1.52777-6.4974-1.18279-5.94781-.99829-5.39821-.81378-4.51682-.56703-3.96722-.44394-3.41762-.32083-2.53622-.17264-1.98663-.11105-1.43704-.04947-.55563-.00017-.00604 0 .54353 .00017 1.42493-.04846 1.97452-.10968 2.52411-.17088 3.4055-.31847 3.95511-.44116 4.5047-.56387 5.3861-.80997 5.9357-.99413 6.48529-1.17828 7.3667-1.52298 7.9163-1.76854 8.4659-2.0141 9.34729-2.4571 9.8969-2.76408 10.44649-3.07106 11.32788-3.6126 11.87749-3.98106 12.42708-4.34955 13.30847-4.98993 13.85806-5.41988 14.40767-5.84982 15.28906-6.58846 15.83865-7.0798 16.38826-7.57114 17.26965-8.40842 17.81924-8.96117 18.36885-9.5139 19.25024-10.44945 19.79984-11.06364 20.34944-11.67784 21.23083-12.71223 21.78043-13.38795 22.33003-14.06364 23.21144-15.1966 23.76103-15.9337 24.31064-16.67082 25.19203-17.90205 25.74162-18.70058 26.29121-19.49908 27.17262-20.82892 27.72221-21.6889 28.2718-22.54887 29.15321-23.97726 29.7028-24.8987 30.2524-25.82013 31.13379-27.34706 31.6834-28.32994 32.23299-29.3128 33.11438-30.93831 33.66399-31.98265 34.21358-33.02698 35.09497-34.75104 35.64458-35.85683 36.19417-36.96262 37.07556-38.78526 37.62517-39.95247 38.17476-41.11966 39.05615-43.04054 39.60576-44.2692 40.15535-45.49786 41.03676-47.51765 41.58636-48.80775 42.13596-50.09785 43.01735-52.2159 43.56694-53.56741 44.11655-54.91891 44.99794-57.13557 45.54753-58.54854 46.09714-59.9615 46.97853-62.27672 47.52812-63.75113 48.07773-65.22556 48.95912-67.63931 49.50871-69.17517 50.05832-70.71104 50.93971-73.2234 51.4893-74.82068 52.03891-76.41797 52.9203-79.02856 53.4699-80.6873 54.01949-82.34605 54.9009-85.05554 55.45049-86.77574 56.00008-88.49593 56.88148-91.30368 57.43108-93.08528 57.98067-94.86687 58.86208-97.77324 59.41168-99.61627 59.96127-101.45932 60.84267-104.46423 61.39227-106.36874 61.94186-108.27325 63.37286-113.34268 63.37286-113.34268"/>
<use data-text="y" xlink:href="#font_1_3" transform="matrix(9.962899,0,0,-9.963496,134.28266,264.2546)" fill="#ff0000"/>
<use data-text="=" xlink:href="#font_3_9" transform="matrix(9.962899,0,0,-9.963496,142.29189,264.2546)" fill="#ff0000"/>
<use data-text="&#x2212;" xlink:href="#font_2_1" transform="matrix(9.962899,0,0,-9.963496,152.80821,264.2546)" fill="#ff0000"/>
<use data-text="2" xlink:href="#font_3_3" transform="matrix(9.962899,0,0,-9.963496,160.55744,264.2546)" fill="#ff0000"/>
<use data-text="x" xlink:href="#font_1_2" transform="matrix(9.962899,0,0,-9.963496,165.53859,264.2546)" fill="#ff0000"/>
<use data-text="2" xlink:href="#font_4_1" transform="matrix(6.9740097,0,0,-6.9744279,171.23276,260.6383)" fill="#ff0000"/>
</svg>
