<?xml version="1.0" encoding="UTF-8"?>
<svg xmlns="http://www.w3.org/2000/svg" xmlns:xlink="http://www.w3.org/1999/xlink" width="155pt" height="129pt" viewBox="0 0 155 129" version="1.1">
<g id="surface1">
<path style="fill:none;stroke-width:0.3985;stroke-linecap:butt;stroke-linejoin:miter;stroke:rgb(0%,67.83905%,93.728638%);stroke-opacity:1;stroke-miterlimit:10;" d="M 0.000548979 -0.00144783 L 136.064234 -0.00144783 M 0.000548979 18.849172 L 136.064234 18.849172 M 0.000548979 37.699792 L 136.064234 37.699792 M 0.000548979 56.550412 L 136.064234 56.550412 M 0.000548979 75.401032 L 136.064234 75.401032 M 0.000548979 94.251652 L 136.064234 94.251652 M 0.000548979 113.102272 L 136.064234 113.102272 M 0.000548979 -0.00144783 L 0.000548979 113.102272 M 34.015494 -0.00144783 L 34.015494 113.102272 M 68.030438 -0.00144783 L 68.030438 113.102272 M 102.049289 -0.00144783 L 102.049289 113.102272 M 136.064234 -0.00144783 L 136.064234 113.102272 " transform="matrix(1.00002,0,0,-1.00005,3.612732,125.416521)"/>
<path style="fill:none;stroke-width:0.79701;stroke-linecap:butt;stroke-linejoin:miter;stroke:rgb(0%,0%,0%);stroke-opacity:1;stroke-miterlimit:10;" d="M 0.000548979 -0.00144783 L 148.235866 -0.00144783 " transform="matrix(1.00002,0,0,-1.00005,3.612732,125.416521)"/>
<path style="fill-rule:nonzero;fill:rgb(0%,0%,0%);fill-opacity:1;stroke-width:0.79701;stroke-linecap:butt;stroke-linejoin:round;stroke:rgb(0%,0%,0%);stroke-opacity:1;stroke-miterlimit:10;" d="M 1.035051 -0.00144783 C -0.257892 0.260258 -1.554741 0.775857 -3.109397 1.682062 C -1.554741 0.518057 -1.554741 -0.517047 -3.109397 -1.684957 C -1.554741 -0.778753 -0.257892 -0.259247 1.035051 -0.00144783 Z M 1.035051 -0.00144783 " transform="matrix(1.00002,0,0,-1.00005,151.851647,125.416521)"/>
<path style="fill:none;stroke-width:0.79701;stroke-linecap:butt;stroke-linejoin:miter;stroke:rgb(0%,0%,0%);stroke-opacity:1;stroke-miterlimit:10;" d="M 0.000548979 -0.00144783 L 0.000548979 122.980684 " transform="matrix(1.00002,0,0,-1.00005,3.612732,125.416521)"/>
<path style="fill-rule:nonzero;fill:rgb(0%,0%,0%);fill-opacity:1;stroke-width:0.79701;stroke-linecap:butt;stroke-linejoin:round;stroke:rgb(0%,0%,0%);stroke-opacity:1;stroke-miterlimit:10;" d="M 1.035989 -0.000548979 C -0.260821 0.257258 -1.553725 0.776779 -3.108335 1.683011 C -1.553725 0.518972 -1.553725 -0.516164 -3.108335 -1.684109 C -1.553725 -0.777877 -0.260821 -0.258356 1.035989 -0.000548979 Z M 1.035989 -0.000548979 " transform="matrix(0,-1.00005,-1.00002,0,3.612732,2.430572)"/>
<path style="fill:none;stroke-width:1.19553;stroke-linecap:butt;stroke-linejoin:miter;stroke:rgb(0%,0%,100%);stroke-opacity:1;stroke-miterlimit:10;" d="M 47.441006 111.239084 C 48.175367 106.141683 48.175367 106.141683 48.562078 103.66915 C 48.948789 101.196617 49.565964 97.481959 49.948769 95.271132 C 50.33548 93.060305 50.952655 89.712816 51.339366 87.732447 C 51.722171 85.752077 52.339346 82.775663 52.726057 80.998408 C 53.108862 79.221154 53.729943 76.525976 54.112748 74.924493 C 54.499459 73.319105 55.116634 70.881727 55.499439 69.43258 C 55.88615 67.983434 56.503325 65.784325 56.890036 64.471891 C 57.272841 63.159457 57.893922 61.159557 58.276727 59.96821 C 58.663438 58.776863 59.280613 56.972266 59.663418 55.890289 C 60.050129 54.808312 60.667304 53.156051 61.054015 52.163913 C 61.43682 51.175681 62.053995 49.664038 62.440706 48.757833 C 62.827417 47.851628 63.444593 46.472791 63.827397 45.644707 C 64.214108 44.816624 64.831284 43.547156 65.217995 42.789381 C 65.600799 42.031607 66.217975 40.871509 66.604686 40.172325 C 66.991397 39.473141 67.608572 38.39507 67.991377 37.758383 C 68.378088 37.11779 68.995263 36.152994 69.381974 35.56318 C 69.764779 34.973366 70.381954 34.063255 70.768665 33.516408 C 71.155376 32.965654 71.772551 32.121946 72.155356 31.618065 C 72.542067 31.110278 73.159242 30.329067 73.545953 29.86034 C 73.928758 29.391614 74.545933 28.668994 74.932644 28.231516 C 75.319355 27.797943 75.93653 27.126102 76.319335 26.719872 C 76.706046 26.317549 77.323221 25.684768 77.709932 25.309787 C 78.092737 24.930899 78.709912 24.356709 79.096623 24.005164 C 79.479428 23.653619 80.100509 23.106772 80.483314 22.778663 C 80.870025 22.450555 81.4872 21.946674 81.870005 21.642001 C 82.256716 21.337329 82.873892 20.864696 83.260603 20.579554 C 83.643407 20.294412 84.264489 19.853028 84.647294 19.587416 C 85.034005 19.317899 85.65118 18.899951 86.033985 18.649963 C 86.420696 18.399976 87.037871 18.005464 87.424582 17.771101 C 87.807387 17.536738 88.424562 17.177381 88.811273 16.954736 C 89.197984 16.735997 89.815159 16.392264 90.197964 16.185243 C 90.584675 15.978222 91.20185 15.657925 91.588561 15.462623 C 91.971366 15.26732 92.588541 14.962648 92.975252 14.779063 C 93.361963 14.595479 93.979138 14.306431 94.361943 14.134564 C 94.748654 13.962698 95.365829 13.69318 95.75254 13.529126 C 96.135345 13.368977 96.75252 13.111178 97.139231 12.958842 C 97.525942 12.802599 98.143117 12.560424 98.525922 12.4159 C 98.912633 12.271376 99.529808 12.048731 99.916519 11.908113 C 100.299324 11.771401 100.916499 11.552662 101.30321 11.423762 C 101.689921 11.290956 102.307097 11.087841 102.689901 10.962848 C 103.076612 10.84176 103.693788 10.650363 104.080499 10.533182 C 104.463303 10.416 105.080479 10.232415 105.46719 10.123046 C 105.849994 10.00977 106.471076 9.837904 106.853881 9.73244 C 107.240592 9.626977 107.857767 9.466829 108.240572 9.365271 C 108.627283 9.26762 109.244458 9.107472 109.631169 9.013726 C 110.013974 8.916075 110.635055 8.771551 111.01786 8.681712 C 111.404571 8.591873 112.021746 8.447348 112.404551 8.361415 C 112.791262 8.275482 113.408437 8.142676 113.795148 8.060649 C 114.177953 7.978622 114.795128 7.849722 115.181839 7.771601 C 115.56855 7.69348 116.185725 7.572392 116.56853 7.498177 C 116.955241 7.423962 117.572416 7.306781 117.959127 7.236472 C 118.341932 7.162256 118.959107 7.052887 119.345818 6.986484 C 119.732529 6.920081 120.349704 6.810712 120.732509 6.744309 C 121.11922 6.681812 121.736396 6.580254 122.123107 6.517757 C 122.505911 6.459167 123.123087 6.361515 123.509798 6.302924 C 123.896509 6.244334 124.513684 6.154494 124.896489 6.095904 C 125.2832 6.041219 125.900375 5.95138 126.287086 5.896695 C 126.669891 5.84201 127.287066 5.756077 127.673777 5.705298 C 128.060488 5.654519 128.677663 5.572492 129.060468 5.52562 C 129.447179 5.474841 130.064354 5.39672 130.451065 5.349847 C 130.83387 5.302974 131.451045 5.228759 131.837756 5.181887 C 132.220561 5.13892 132.841642 5.064705 133.224447 5.021739 C 133.611158 4.978772 134.228333 4.908463 134.611138 4.865496 C 134.997849 4.826436 136.001735 4.720972 134.138491 4.912369 " transform="matrix(1.00002,0,0,-1.00005,3.612732,125.416521)"/>
<path style="fill-rule:nonzero;fill:rgb(0%,0%,100%);fill-opacity:1;stroke-width:1.19553;stroke-linecap:butt;stroke-linejoin:round;stroke:rgb(0%,0%,100%);stroke-opacity:1;stroke-miterlimit:10;" d="M 1.276571 0.00163057 C -0.319491 0.318783 -1.912889 0.955243 -3.827668 2.072231 C -1.91113 0.639243 -1.914055 -0.639106 -3.825836 -2.072198 C -1.912296 -0.955106 -0.320954 -0.320392 1.276571 0.00163057 Z M 1.276571 0.00163057 " transform="matrix(-0.142823,-0.989749,-0.98972,0.142827,51.055031,14.173409)"/>
<path style="fill-rule:nonzero;fill:rgb(0%,0%,100%);fill-opacity:1;stroke-width:1.19553;stroke-linecap:butt;stroke-linejoin:round;stroke:rgb(0%,0%,100%);stroke-opacity:1;stroke-miterlimit:10;" d="M 1.276708 0.000838018 C -0.319191 0.318698 -1.912691 0.954896 -3.826969 2.072335 C -1.911204 0.636961 -1.912626 -0.63947 -3.826264 -2.070603 C -1.911139 -0.957405 -0.320103 -0.317574 1.276708 0.000838018 Z M 1.276708 0.000838018 " transform="matrix(0.99468,0.102945,0.102942,-0.99471,137.753435,120.502215)"/>
<path style="fill:none;stroke-width:1.19553;stroke-linecap:butt;stroke-linejoin:miter;stroke:rgb(100%,0%,0%);stroke-opacity:1;stroke-miterlimit:10;" d="M 39.605226 111.301581 C 40.366929 107.07523 40.366929 107.07523 40.78489 104.911275 C 41.206756 102.747321 41.878618 99.489671 42.296578 97.548362 C 42.718445 95.607053 43.390306 92.677512 43.808267 90.931506 C 44.230133 89.185499 44.901995 86.545006 45.319955 84.96696 C 45.741822 83.388914 46.413683 80.990596 46.831644 79.56098 C 47.25351 78.131364 47.925372 75.963504 48.343332 74.666694 C 48.761293 73.365978 49.43706 71.385608 49.855021 70.202073 C 50.272981 69.018539 50.948749 67.217847 51.366709 66.13587 C 51.78467 65.053893 52.460437 63.397726 52.878398 62.405588 C 53.296358 61.41345 53.972126 59.897901 54.390086 58.98779 C 54.808047 58.077679 55.479908 56.683218 55.901775 55.843416 C 56.319735 55.003614 56.991597 53.71071 57.413463 52.933405 C 57.831424 52.160007 58.503285 50.96866 58.925152 50.253852 C 59.343112 49.535138 60.014974 48.43363 60.43684 47.769601 C 60.854801 47.105572 61.526662 46.086092 61.948529 45.472841 C 62.366489 44.855684 63.038351 43.898701 63.460217 43.324511 C 63.878178 42.750321 64.550039 41.871459 64.968 41.336329 C 65.389866 40.8012 66.061728 39.977022 66.479688 39.477047 C 66.901555 38.980978 67.573416 38.203673 67.991377 37.738853 C 68.413243 37.274032 69.085105 36.570942 69.503065 36.13737 C 69.924932 35.703798 70.596793 35.020239 71.014754 34.610103 C 71.43662 34.199967 72.108482 33.571092 72.526442 33.188299 C 72.948309 32.8016 73.62017 32.203973 74.038131 31.84071 C 74.456091 31.481353 75.131859 30.918881 75.549819 30.579054 C 75.96778 30.239228 76.643547 29.715816 77.061508 29.39552 C 77.479468 29.075223 78.155236 28.575248 78.573196 28.274482 C 78.991157 27.973716 79.663018 27.504989 80.084885 27.219847 C 80.502845 26.934705 81.174707 26.485509 81.596573 26.215991 C 82.014534 25.946474 82.686395 25.532432 83.108262 25.274632 C 83.526222 25.020739 84.198084 24.618415 84.61995 24.37624 C 85.037911 24.134064 85.709772 23.755177 86.131639 23.528626 C 86.549599 23.298168 87.221461 22.942717 87.643327 22.723978 C 88.061288 22.509145 88.733149 22.165413 89.155016 21.958392 C 89.572976 21.751371 90.244838 21.431074 90.662798 21.231866 C 91.084665 21.036563 91.756526 20.731891 92.174487 20.5444 C 92.596353 20.356909 93.268215 20.063955 93.686175 19.884277 C 94.108042 19.708504 94.779903 19.431174 95.197864 19.259308 C 95.61973 19.091348 96.291592 18.825736 96.709552 18.661682 C 97.131419 18.501533 97.80328 18.24764 98.221241 18.095304 C 98.643107 17.939061 99.314969 17.696886 99.732929 17.548456 C 100.15089 17.400026 100.826657 17.169569 101.244618 17.028951 C 101.662578 16.888333 102.338346 16.665688 102.756306 16.528976 C 103.174267 16.39617 103.850034 16.185243 104.267995 16.052437 C 104.685955 15.923537 105.357817 15.724328 105.779683 15.599335 C 106.197644 15.474341 106.869505 15.279038 107.291372 15.161857 C 107.709332 15.040769 108.381194 14.857184 108.80306 14.743909 C 109.221021 14.630633 109.892882 14.454861 110.314749 14.345491 C 110.732709 14.236122 111.404571 14.060349 111.826437 13.954886 C 112.244398 13.853328 112.916259 13.689274 113.338126 13.587716 C 113.756086 13.486159 114.427948 13.329917 114.845908 13.232265 C 115.267775 13.134614 115.939636 12.982278 116.357597 12.888533 C 116.779463 12.798693 117.451325 12.650263 117.869285 12.560424 C 118.291152 12.470585 118.963013 12.329967 119.380974 12.244034 C 119.80284 12.1581 120.474702 12.025295 120.892662 11.943267 C 121.314529 11.86124 121.986391 11.728434 122.404351 11.646407 C 122.826217 11.568286 123.498079 11.443292 123.916039 11.369077 C 124.337906 11.290956 125.009768 11.165963 125.427728 11.091748 C 125.845688 11.017532 126.521456 10.904257 126.939416 10.833948 C 127.357377 10.759733 128.033145 10.646457 128.451105 10.580054 C 128.869065 10.509745 129.544833 10.400376 129.962793 10.333973 C 130.380754 10.26757 131.052615 10.162106 131.474482 10.095704 C 131.892442 10.033207 132.564304 9.931649 132.986171 9.869152 C 133.404131 9.806656 134.075992 9.709004 134.497859 9.650413 C 134.915819 9.591823 136.009548 9.43558 134.154116 9.697286 " transform="matrix(1.00002,0,0,-1.00005,3.612732,125.416521)"/>
<path style="fill-rule:nonzero;fill:rgb(100%,0%,0%);fill-opacity:1;stroke-width:1.19553;stroke-linecap:butt;stroke-linejoin:round;stroke:rgb(100%,0%,0%);stroke-opacity:1;stroke-miterlimit:10;" d="M 1.276618 -0.00199902 C -0.320987 0.317211 -1.912538 0.956823 -3.827434 2.071365 C -1.914056 0.639573 -1.913823 -0.6385 -3.826868 -2.072417 C -1.911496 -0.956442 -0.320179 -0.317982 1.276618 -0.00199902 Z M 1.276618 -0.00199902 " transform="matrix(-0.177084,-0.984209,-0.98418,0.177089,43.220194,14.108376)"/>
<path style="fill-rule:nonzero;fill:rgb(100%,0%,0%);fill-opacity:1;stroke-width:1.19553;stroke-linecap:butt;stroke-linejoin:round;stroke:rgb(100%,0%,0%);stroke-opacity:1;stroke-miterlimit:10;" d="M 1.274588 0.00136315 C -0.319847 0.31898 -1.911629 0.956438 -3.826749 2.073292 C -1.914282 0.636598 -1.913828 -0.637275 -3.827499 -2.072036 C -1.912612 -0.956576 -0.317416 -0.31962 1.274588 0.00136315 Z M 1.274588 0.00136315 " transform="matrix(0.99038,0.138347,0.138343,-0.99041,137.768735,115.719546)"/>
</g>
</svg>
