<svg xmlns="http://www.w3.org/2000/svg" xmlns:xlink="http://www.w3.org/1999/xlink" version="1.1" width="134" height="195" viewBox="0 0 134 195">
<defs>
<path id="font_1_1" d="M.33399964 .30233766C.33999635 .32835389 .36299134 .42037965 .43299867 .42037965 .43798829 .42037965 .46199037 .42037965 .48298646 .40734864 .45498658 .402359 .43499757 .37734986 .43499757 .35334779 .43499757 .33735658 .44599916 .31835938 .47299195 .31835938 .49499513 .31835938 .5269928 .3363495 .5269928 .37635804 .5269928 .42837525 .46798707 .4423828 .43399049 .4423828 .37599183 .4423828 .34098817 .38935853 .32899476 .36634828 .3039856 .43237306 .25 .4423828 .22099304 .4423828 .116989139 .4423828 .05999756 .3133545 .05999756 .28834535 .05999756 .27833558 .069992069 .27833558 .07199097 .27833558 .07998657 .27833558 .08299255 .28033448 .084991458 .28933717 .11898804 .39535523 .18499756 .42037965 .21899414 .42037965 .23799134 .42037965 .272995 .4113617 .272995 .35334779 .272995 .32235719 .2559967 .25532533 .21899414 .11528015 .20298767 .053268434 .16799927 .011245728 .12399292 .011245728 .117996219 .011245728 .09498596 .011245728 .07398987 .024276734 .09899902 .029266358 .12098694 .05027771 .12098694 .07827759 .12098694 .105270389 .09899902 .11328125 .083999637 .11328125 .053985597 .11328125 .0289917 .08728027 .0289917 .055267335 .0289917 .009246826 .07899475-.0107421879 .12298584-.0107421879 .18899536-.0107421879 .22499085 .059280397 .22799683 .0652771 .23999024 .028274537 .27598573-.0107421879 .33599855-.0107421879 .43899537-.0107421879 .49598695 .118270877 .49598695 .14328003 .49598695 .1532898 .4869995 .1532898 .48399354 .1532898 .47499085 .1532898 .47299195 .14929199 .47099305 .14228821 .43798829 .03527832 .36999513 .011245728 .33799745 .011245728 .29899598 .011245728 .2829895 .043273927 .2829895 .07727051 .2829895 .09927368 .2889862 .121276859 .2999878 .16529846L.33399964 .30233766Z"/>
<path id="font_1_2" d="M.48599244 .38136292C.48999024 .39537049 .48999024 .39736939 .48999024 .40437318 .48999024 .42237855 .47599793 .43138124 .46099855 .43138124 .45098878 .43138124 .43499757 .42536927 .42599488 .41036988 .42399598 .405365 .41600038 .37435914 .4119873 .35635377 .40499879 .33035279 .397995 .30334474 .3919983 .27633668L.34700013 .09628296C.34298707 .08126831 .2999878 .011245728 .23399353 .011245728 .18299866 .011245728 .17199707 .055267335 .17199707 .0922699 .17199707 .1382904 .18899536 .20030213 .22299195 .28833009 .23899842 .3293457 .24299622 .3403473 .24299622 .36035157 .24299622 .405365 .21099854 .4423828 .16099549 .4423828 .06599426 .4423828 .0289917 .29733277 .0289917 .28833009 .0289917 .27833558 .038986207 .27833558 .040985109 .27833558 .050994874 .27833558 .051986696 .28033448 .056991579 .29634095 .083999637 .3903656 .12399292 .42037965 .1579895 .42037965 .1659851 .42037965 .18299866 .42037965 .18299866 .3883667 .18299866 .36335755 .17298889 .3373413 .1659851 .31834413 .12599182 .21231079 .10798645 .1552887 .10798645 .10827637 .10798645 .019256592 .17098999-.0107421879 .22999573-.0107421879 .2689972-.0107421879 .30299378 .0062561037 .33099366 .03425598 .31799317-.017745972 .30599977-.06674194 .2659912-.11973572 .23999024-.15385437 .20199585-.18309021 .1559906-.18309021 .14199829-.18309021 .09700012-.18005371 .07998657-.14074707 .09599304-.14074707 .10899353-.14074707 .12298584-.1287384 .1329956-.11973572 .14299011-.10673523 .14299011-.08773804 .14299011-.056747438 .115997318-.052734376 .10598755-.052734376 .08299255-.052734376 .049987794-.068740848 .049987794-.11773682 .049987794-.16796875 .09399414-.20507813 .1559906-.20507813 .25898744-.20507813 .3619995-.11373901 .3899994-.00074768069L.48599244 .38136292Z"/>
<path id="font_2_1" d="M.1269989 .07699585 .23298645 .18003845C.3889923 .31811524 .44898988 .3721466 .44898988 .47216798 .44898988 .5860901 .35899354 .6660156 .23699951 .6660156 .12399292 .6660156 .049987794 .57411196 .049987794 .48516847 .049987794 .4291687 .099990848 .4291687 .102996829 .4291687 .11999512 .4291687 .15499878 .44117738 .15499878 .48217774 .15499878 .5081787 .13699341 .5341797 .101989749 .5341797 .09399414 .5341797 .09199524 .5341797 .08898926 .5331726 .11199951 .59806826 .1659851 .63500979 .22399903 .63500979 .31498719 .63500979 .35798646 .5541382 .35798646 .47216798 .35798646 .39215089 .30799867 .31311036 .25299073 .25108338L.06098938 .036987306C.049987794 .025985718 .049987794 .023986817 .049987794 0H.42099L.44898988 .17404175H.42399598C.4189911 .14402771 .4119873 .1000061 .4019928 .084991458 .394989 .07699585 .32899476 .07699585 .30699159 .07699585H.1269989Z"/>
<path id="font_2_2" d="M.2939911 .16503906V.07800293C.2939911 .041992189 .2919922 .0309906 .21798706 .0309906H.19699097V0C.23799134 .0029907227 .2899933 .0029907227 .33198548 .0029907227 .37399293 .0029907227 .4269867 .0029907227 .46798707 0V.0309906H.44699098C.37298585 .0309906 .37098695 .041992189 .37098695 .07800293V.16503906H.47099305V.19602967H.37098695V.65075686C.37098695 .67074587 .37098695 .6767578 .35499574 .6767578 .34599305 .6767578 .34298707 .6767578 .33499146 .66474917L.027999878 .19602967V.16503906H.2939911M.2999878 .19602967H.055999757L.2999878 .5688019V.19602967Z"/>
<path id="font_3_85" d="M.33099366-.2400055C.33099366-.23701477 .33099366-.23500061 .31399537-.21800232 .18899536-.0920105 .15699768 .09700012 .15699768 .25 .15699768 .42399598 .19499207 .59799197 .31799317 .72299197 .33099366 .7350006 .33099366 .7369995 .33099366 .73999026 .33099366 .746994 .32699586 .75 .32099916 .75 .31098939 .75 .22099304 .6819916 .1619873 .5549927 .11099243 .44499208 .09899902 .33399964 .09899902 .25 .09899902 .17199707 .10998535 .050994874 .16499329-.06201172 .22499085-.18501282 .31098939-.25 .32099916-.25 .32699586-.25 .33099366-.24700928 .33099366-.2400055Z"/>
<path id="font_3_43" d="M.4149933 .119140628C.4149933 .12911988 .40499879 .12911988 .4019928 .12911988 .3929901 .12911988 .3909912 .12512207 .3889923 .119140628 .3600006 .026229859 .29499818 .014251709 .2579956 .014251709 .20498657 .014251709 .116989139 .0572052 .116989139 .21801758 .116989139 .38093568 .19898987 .42323304 .2519989 .42323304 .26098634 .42323304 .32398988 .42222596 .35899354 .38594056 .31799317 .38293458 .31199647 .3529358 .31199647 .3399353 .31199647 .31393434 .32998658 .2939453 .35798646 .2939453 .38398744 .2939453 .4039917 .3109436 .4039917 .34094239 .4039917 .40911866 .32798768 .4482422 .25099183 .4482422 .12599182 .4482422 .033996583 .3399353 .033996583 .21601868 .033996583 .08816528 .1329956-.0107421879 .24899292-.0107421879 .3829956-.0107421879 .4149933 .10914612 .4149933 .119140628Z"/>
<path id="font_3_86" d="M.2889862 .25C.2889862 .32798768 .27799989 .44898988 .22299195 .56199648 .16299439 .68499758 .07699585 .75 .066986087 .75 .06098938 .75 .056991579 .74598696 .056991579 .73999026 .056991579 .7369995 .056991579 .7350006 .07598877 .71699526 .17399597 .6179962 .23098755 .45899964 .23098755 .25 .23098755 .07899475 .19400025-.09700012 .069992069-.2230072 .056991579-.23500061 .056991579-.23701477 .056991579-.2400055 .056991579-.2460022 .06098938-.25 .066986087-.25 .07699585-.25 .16699219-.18200684 .22599793-.055007936 .2769928 .054992677 .2889862 .16600037 .2889862 .25Z"/>
</defs>
<path transform="matrix(1.00009,0,0,-1.00002,30.161362,133.47241)" stroke-width=".3985" stroke-linecap="butt" stroke-miterlimit="10" stroke-linejoin="miter" fill="none" stroke="#00aeef" d="M-28.3468-36.85048H85.04042M-28.3468-18.42523H85.04042M-28.3468 0H85.04042M-28.3468 18.42523H85.04042M-28.3468 36.85048H85.04042M-28.3468 55.27574H85.04042M-28.3468 73.70099H85.04042M-28.3468 92.12625H85.04042M-28.3468 110.54504H85.04042M-28.3468-36.85048V110.5515M0-36.85048V110.5515M28.3468-36.85048V110.5515M56.69362-36.85048V110.5515M85.03543-36.85048V110.5515M85.04042 110.5515"/>
<path transform="matrix(1.00009,0,0,-1.00002,30.161362,133.47241)" stroke-width=".79701" stroke-linecap="butt" stroke-miterlimit="10" stroke-linejoin="miter" fill="none" stroke="#000000" d="M-28.3468 0H92.10994"/>
<path transform="matrix(1.00009,0,0,-1.00002,122.279598,133.47241)" d="M1.0361 0C-.25902 .25902-1.55415 .77707-3.1083 1.68365-1.55415 .51805-1.55415-.51805-3.1083-1.68365-1.55415-.77707-.25902-.25902 1.0361 0Z"/>
<path transform="matrix(1.00009,0,0,-1.00002,122.279598,133.47241)" stroke-width=".79701" stroke-linecap="butt" stroke-linejoin="round" fill="none" stroke="#000000" d="M1.0361 0C-.25902 .25902-1.55415 .77707-3.1083 1.68365-1.55415 .51805-1.55415-.51805-3.1083-1.68365-1.55415-.77707-.25902-.25902 1.0361 0Z"/>
<use data-text="x" xlink:href="#font_1_1" transform="matrix(9.963496,0,0,-9.962799,127.43411,135.61746)"/>
<path transform="matrix(1.00009,0,0,-1.00002,30.161362,133.47241)" stroke-width=".79701" stroke-linecap="butt" stroke-miterlimit="10" stroke-linejoin="miter" fill="none" stroke="#000000" d="M0-36.85048V120.17215"/>
<path transform="matrix(0,-1.00002,-1.00009,-0,30.161362,13.297859)" d="M1.0361 0C-.25902 .25902-1.55415 .77707-3.1083 1.68365-1.55415 .51805-1.55415-.51805-3.1083-1.68365-1.55415-.77707-.25902-.25902 1.0361 0Z"/>
<path transform="matrix(0,-1.00002,-1.00009,-0,30.161362,13.297859)" stroke-width=".79701" stroke-linecap="butt" stroke-linejoin="round" fill="none" stroke="#000000" d="M1.0361 0C-.25902 .25902-1.55415 .77707-3.1083 1.68365-1.55415 .51805-1.55415-.51805-3.1083-1.68365-1.55415-.77707-.25902-.25902 1.0361 0Z"/>
<use data-text="y" xlink:href="#font_1_2" transform="matrix(9.963496,0,0,-9.962799,27.540123,6.2068636)"/>
<path transform="matrix(1.00009,0,0,-1.00002,30.161362,133.47241)" stroke-width=".3985" stroke-linecap="butt" stroke-miterlimit="10" stroke-linejoin="miter" fill="none" stroke="#000000" d="M28.3468 1.84262V-1.84235"/>
<path transform="matrix(1.00009,0,0,-1.00002,30.161362,133.47241)" d="M24.85983-12.44714H31.83377V-4.0341598H24.85983Z" fill="#ffffff"/>
<use data-text="2" xlink:href="#font_2_1" transform="matrix(9.963496,0,0,-9.962799,56.01969,144.92365)"/>
<path transform="matrix(1.00009,0,0,-1.00002,30.161362,133.47241)" stroke-width=".3985" stroke-linecap="butt" stroke-miterlimit="10" stroke-linejoin="miter" fill="none" stroke="#000000" d="M56.69362 1.84262V-1.84235"/>
<path transform="matrix(1.00009,0,0,-1.00002,30.161362,133.47241)" d="M53.20665-12.44714H60.180589V-4.0341598H53.20665Z" fill="#ffffff"/>
<use data-text="4" xlink:href="#font_2_2" transform="matrix(9.963496,0,0,-9.962799,84.36924,144.92365)"/>
<path transform="matrix(1.00009,0,0,-1.00002,30.161362,133.47241)" stroke-width=".3985" stroke-linecap="butt" stroke-miterlimit="10" stroke-linejoin="miter" fill="none" stroke="#000000" d="M1.4174 36.85048H-1.41719"/>
<path transform="matrix(1.00009,0,0,-1.00002,30.161362,133.47241)" d="M-10.58295 32.644H-3.6090098V41.05698H-10.58295Z" fill="#ffffff"/>
<use data-text="2" xlink:href="#font_2_1" transform="matrix(9.963496,0,0,-9.962799,20.573502,99.83174)"/>
<path transform="matrix(1.00009,0,0,-1.00002,30.161362,133.47241)" stroke-width=".3985" stroke-linecap="butt" stroke-miterlimit="10" stroke-linejoin="miter" fill="none" stroke="#000000" d="M1.4174 73.70099H-1.41719"/>
<path transform="matrix(1.00009,0,0,-1.00002,30.161362,133.47241)" d="M-10.58295 69.49449H-3.6090098V77.90747H-10.58295Z" fill="#ffffff"/>
<use data-text="4" xlink:href="#font_2_2" transform="matrix(9.963496,0,0,-9.962799,20.573502,62.980005)"/>
<path transform="matrix(1.00009,0,0,-1.00002,30.161362,133.47241)" stroke-width="1.19553" stroke-linecap="butt" stroke-miterlimit="10" stroke-linejoin="miter" fill="none" stroke="#ff0000" d="M-26.4743 .7764C-27.61223 .7524-27.61223 .7524-27.33011 .75851-27.04799 .76463-26.59555 .77458-26.31343 .781-26.03131 .78745-25.57887 .7982-25.29675 .8049-25.01463 .81161-24.5622 .82239-24.28008 .82936-23.99796 .83635-23.54552 .8479-23.2634 .85522-22.98128 .86256-22.52882 .87454-22.2467 .88222-21.96458 .88991-21.51215 .90254-21.23003 .91061-20.9479 .91869-20.49547 .93196-20.21335 .94041-19.93123 .94887-19.47879 .96274-19.19667 .97163-18.91455 .98051-18.46211 .99516-18.18 1.00452-17.89787 1.01387-17.44543 1.02927-17.16331 1.03911-16.8812 1.04893-16.42874 1.06503-16.14662 1.07536-15.8645 1.08571-15.41206 1.10268-15.12994 1.1136-14.84782 1.12453-14.39539 1.1426-14.11327 1.15408-13.83115 1.16559-13.37871 1.18445-13.09659 1.19653-12.81447 1.20862-12.36203 1.22842-12.07991 1.24124-11.79779 1.25406-11.34535 1.27542-11.06323 1.28903-10.78111 1.30263-10.32866 1.32497-10.04654 1.33936-9.76442 1.35374-9.31198 1.37749-9.02986 1.39278-8.74774 1.40807-8.2953 1.43338-8.01318 1.44957-7.73106 1.46577-7.27863 1.49225-6.9965 1.50946-6.71439 1.52667-6.26195 1.5552-5.97983 1.57356-5.69771 1.59193-5.24527 1.62239-4.96315 1.64188-4.68103 1.66139-4.22858 1.69334-3.94646 1.71414-3.66434 1.73492-3.2119 1.76945-2.92978 1.79173-2.64766 1.814-2.19522 1.85085-1.9131 1.87466-1.63098 1.8985-1.17854 1.938-.89642 1.96352-.6143 1.989-.16187 2.03111 .12022 2.05853 .40234 2.08595 .8548 2.13162 1.13692 2.16116 1.41904 2.19069 1.87148 2.23953 2.1536 2.27136 2.43571 2.30319 2.88815 2.35623 3.17027 2.39056 3.4524 2.42491 3.90483 2.48169 4.18695 2.51878 4.46907 2.55588 4.92151 2.61769 5.20363 2.65796 5.48575 2.69821 5.93819 2.76515 6.2203 2.80893 6.50243 2.85269 6.95488 2.92581 7.237 2.97339 7.51912 3.02098 7.97156 3.09996 8.25368 3.15193 8.5358 3.20387 8.98824 3.29094 9.27036 3.34789 9.55247 3.40483 10.00491 3.4999 10.28703 3.5624 10.56915 3.62488 11.02159 3.72948 11.30371 3.79828 11.58583 3.86707 12.03827 3.98239 12.32039 4.05835 12.60251 4.1343 13.05496 4.26146 13.33708 4.34567 13.6192 4.4299 14.07164 4.5716 14.35376 4.66533 14.63588 4.75906 15.08832 4.91661 15.37044 5.02127 15.65256 5.12592 16.105 5.30228 16.38712 5.41965 16.66924 5.53702 17.12167 5.73505 17.4038 5.86725 17.68591 5.99942 18.13835 6.2227 18.42047 6.37245 18.70259 6.5222 19.15504 6.77611 19.43716 6.94656 19.71928 7.11702 20.17172 7.40608 20.45384 7.60107 20.73596 7.79607 21.1884 8.12714 21.47052 8.35202 21.75264 8.57689 22.20508 8.9606 22.4872 9.2219 22.76932 9.48317 23.22176 9.92969 23.50388 10.23514 23.786 10.5406 24.23845 11.06306 24.52057 11.42355 24.80269 11.78401 25.25513 12.40375 25.53725 12.8332 25.81937 13.26268 26.2718 14.00156 26.55392 14.51898 26.83604 15.03639 27.28848 15.9314 27.5706 16.56235 27.85272 17.19333 28.30516 18.28616 28.58728 19.06653 28.8694 19.8469 29.32184 21.20505 29.60396 22.1867 29.88608 23.16835 30.33853 24.88353 30.62065 26.14159 30.90277 27.39966 31.35521 29.60527 31.63733 31.25397 31.91945 32.90266 32.37189 35.80254 32.654 38.02428 32.93613 40.24602 33.38857 44.17172 33.67068 47.2667 33.9528 50.36168 34.40524 55.83432 34.68736 60.33076 34.96948 64.82722 35.42192 72.77435 35.70404 79.67395 35.98616 86.57358 36.72073 110.05836 36.6622 108.18637"/>
<path transform="matrix(-.99983,.021120424,.021121903,.99976006,3.684679,132.69599)" d="M1.27522 0C-.31879 .31879-1.91284 .9564-3.8257 2.07224-1.91284 .6376-1.91284-.6376-3.8257-2.07224-1.91284-.9564-.31879-.31879 1.27522 0Z" fill="#ff0000"/>
<path transform="matrix(-.99983,.021120424,.021121903,.99976006,3.684679,132.69599)" stroke-width="1.19553" stroke-linecap="butt" stroke-linejoin="round" fill="none" stroke="#ff0000" d="M1.27522 0C-.31879 .31879-1.91284 .9564-3.8257 2.07224-1.91284 .6376-1.91284-.6376-3.8257-2.07224-1.91284-.9564-.31879-.31879 1.27522 0Z"/>
<path transform="matrix(.031252814,-.99949,-.99955996,-.031250627,66.82686,25.283875)" d="M1.27522 0C-.31879 .31879-1.91284 .9564-3.8257 2.07224-1.91284 .6376-1.91284-.6376-3.8257-2.07224-1.91284-.9564-.31879-.31879 1.27522 0Z" fill="#ff0000"/>
<path transform="matrix(.031252814,-.99949,-.99955996,-.031250627,66.82686,25.283875)" stroke-width="1.19553" stroke-linecap="butt" stroke-linejoin="round" fill="none" stroke="#ff0000" d="M1.27522 0C-.31879 .31879-1.91284 .9564-3.8257 2.07224-1.91284 .6376-1.91284-.6376-3.8257-2.07224-1.91284-.9564-.31879-.31879 1.27522 0Z"/>
<path transform="matrix(1.00009,0,0,-1.00002,30.161362,133.47241)" stroke-width="1.19553" stroke-linecap="butt" stroke-miterlimit="10" stroke-linejoin="miter" fill="none" stroke="#ff0000" d="M48.36012 108.6957C48.72081 96.175 48.72081 96.175 48.88002 91.517 49.03923 86.859 49.29457 80.58124 49.45378 76.99603 49.61299 73.41083 49.86833 68.49614 50.02754 65.67734 50.18675 62.85855 50.44211 58.93631 50.60132 56.68007 50.76053 54.42381 51.01585 51.24991 51.17506 49.41579 51.33427 47.58168 51.58963 44.9726 51.74884 43.46109 51.90805 41.9496 52.16338 39.78168 52.32259 38.52191 52.4818 37.26213 52.73715 35.4428 52.89636 34.38145 53.05557 33.32011 53.3109 31.77534 53.47011 30.87245 53.62932 29.96957 53.88467 28.6483 54.04388 27.87402 54.2031 27.09973 54.45844 25.96088 54.61765 25.29196 54.77686 24.62305 55.03218 23.63464 55.19139 23.05292 55.3506 22.47119 55.60596 21.60858 55.76517 21.09923 55.92438 20.58986 56.1797 19.83041 56.33891 19.3817 56.49812 18.93298 56.75348 18.26147 56.91269 17.86519 57.0719 17.4689 57.32722 16.8778 57.48643 16.52551 57.64565 16.17323 57.901 15.64133 58.06021 15.32616 58.21942 15.01097 58.47476 14.53635 58.63397 14.25386 58.79318 13.97136 59.04852 13.5442 59.20773 13.29008 59.36694 13.03595 59.62228 12.65175 59.7815 12.42218 59.9407 12.19263 60.19604 11.84389 60.35526 11.63554 60.51447 11.42719 60.7698 11.11 60.92902 10.92058 61.08823 10.73114 61.34357 10.44281 61.50278 10.27028 61.66199 10.09775 61.91733 9.83481 62.07654 9.67705 62.23575 9.51932 62.49109 9.27803 62.6503 9.13333 62.80951 8.9886 63.06485 8.76701 63.22406 8.634 63.38327 8.501 63.63863 8.29704 63.79784 8.1746 63.95705 8.05215 64.21237 7.86452 64.37158 7.75148 64.53079 7.63844 64.78615 7.46452 64.94536 7.35985 65.10457 7.25516 65.3599 7.09386 65.5191 6.99689 65.67831 6.89992 65.93367 6.7509 66.09288 6.66092 66.25209 6.57092 66.50742 6.43205 66.66663 6.34828 66.82584 6.2645 67.08119 6.13515 67.2404 6.057 67.39961 5.97888 67.65495 5.85805 67.81416 5.78516 67.97337 5.71225 68.2287 5.59969 68.38791 5.53156 68.54712 5.4634 68.80247 5.35779 68.96169 5.29398 69.1209 5.23018 69.37622 5.13142 69.53543 5.0716 69.69464 5.01176 69.95 4.9189 70.1092 4.8627 70.26842 4.80649 70.52374 4.71928 70.68295 4.66646 70.84216 4.61365 71.09752 4.53172 71.25673 4.48203 71.41594 4.43233 71.67126 4.35509 71.83047 4.30827 71.98969 4.26147 72.24504 4.18884 72.40425 4.14464 72.56346 4.10046 72.8188 4.03146 72.97801 3.98973 73.13722 3.948 73.39256 3.88329 73.55177 3.84381 73.71098 3.80435 73.96632 3.74258 74.12553 3.70522 74.28474 3.66785 74.54008 3.60985 74.6993 3.57448 74.8585 3.53912 75.11385 3.4838 75.27306 3.45021 75.43227 3.41664 75.6876 3.36426 75.84682 3.33241 76.00603 3.30058 76.26137 3.25107 76.42058 3.22081 76.57979 3.19054 76.83514 3.14304 76.99435 3.11426 77.15356 3.08546 77.40889 3.0407 77.5681 3.01332 77.72731 2.98593 77.98267 2.94298 78.14188 2.91689 78.30109 2.8908 78.55641 2.85005 78.71562 2.82523 78.87483 2.80038 79.13019 2.76154 79.2894 2.7378 79.44861 2.71404 79.70393 2.67667 79.86314 2.654 80.02235 2.63135 80.27771 2.59601 80.43692 2.57445 80.59613 2.55287 80.85147 2.51921 81.01068 2.49854 81.16989 2.47787 81.42522 2.44525 81.58444 2.42543 81.74365 2.40561 81.999 2.37462 82.1582 2.35571 82.31741 2.33679 82.57274 2.30717 82.73195 2.28908 82.89116 2.27098 83.14651 2.24265 83.30573 2.22527 83.46494 2.20787 83.72026 2.18037 83.87947 2.1637 84.03868 2.147 84.29404 2.12091 84.45325 2.10492 84.61246 2.08894 85.027 2.04842 83.16302 2.23059"/>
<path transform="matrix(-.028762589,-.99956,-.9996299,.028760575,78.525859,24.774559)" d="M1.27522 0C-.31879 .31879-1.91284 .9564-3.8257 2.07224-1.91284 .6376-1.91284-.6376-3.8257-2.07224-1.91284-.9564-.31879-.31879 1.27522 0Z" fill="#ff0000"/>
<path transform="matrix(-.028762589,-.99956,-.9996299,.028760575,78.525859,24.774559)" stroke-width="1.19553" stroke-linecap="butt" stroke-linejoin="round" fill="none" stroke="#ff0000" d="M1.27522 0C-.31879 .31879-1.91284 .9564-3.8257 2.07224-1.91284 .6376-1.91284-.6376-3.8257-2.07224-1.91284-.9564-.31879-.31879 1.27522 0Z"/>
<path transform="matrix(.99528959,.09727194,.09727875,-.9952199,113.331859,131.24176)" d="M1.27522 0C-.31879 .31879-1.91284 .9564-3.8257 2.07224-1.91284 .6376-1.91284-.6376-3.8257-2.07224-1.91284-.9564-.31879-.31879 1.27522 0Z" fill="#ff0000"/>
<path transform="matrix(.99528959,.09727194,.09727875,-.9952199,113.331859,131.24176)" stroke-width="1.19553" stroke-linecap="butt" stroke-linejoin="round" fill="none" stroke="#ff0000" d="M1.27522 0C-.31879 .31879-1.91284 .9564-3.8257 2.07224-1.91284 .6376-1.91284-.6376-3.8257-2.07224-1.91284-.9564-.31879-.31879 1.27522 0Z"/>
<path transform="matrix(1.00009,0,0,-1.00002,30.161362,133.47241)" stroke-width=".79701" stroke-linecap="butt" stroke-dasharray="2.98883,2.98883" stroke-miterlimit="10" stroke-linejoin="miter" fill="none" stroke="#0000ff" d="M42.5202 0V110.5515"/>
<use data-text="(" xlink:href="#font_3_85" transform="matrix(9.963496,0,0,-9.962799,66.59764,191.23957)"/>
<use data-text="c" xlink:href="#font_3_43" transform="matrix(9.963496,0,0,-9.962799,70.473438,191.23957)"/>
<use data-text=")" xlink:href="#font_3_86" transform="matrix(9.963496,0,0,-9.962799,74.897228,191.23957)"/>
</svg>
