<svg xmlns="http://www.w3.org/2000/svg" xmlns:xlink="http://www.w3.org/1999/xlink" version="1.1" width="191" height="107" viewBox="0 0 191 107">
<defs>
<path id="font_1_1" d="M.33399964 .30233766C.33999635 .32835389 .36299134 .42037965 .43299867 .42037965 .43798829 .42037965 .46199037 .42037965 .48298646 .40734864 .45498658 .402359 .43499757 .37734986 .43499757 .35334779 .43499757 .33735658 .44599916 .31835938 .47299195 .31835938 .49499513 .31835938 .5269928 .3363495 .5269928 .37635804 .5269928 .42837525 .46798707 .4423828 .43399049 .4423828 .37599183 .4423828 .34098817 .38935853 .32899476 .36634828 .3039856 .43237306 .25 .4423828 .22099304 .4423828 .116989139 .4423828 .05999756 .3133545 .05999756 .28834535 .05999756 .27833558 .069992069 .27833558 .07199097 .27833558 .07998657 .27833558 .08299255 .28033448 .084991458 .28933717 .11898804 .39535523 .18499756 .42037965 .21899414 .42037965 .23799134 .42037965 .272995 .4113617 .272995 .35334779 .272995 .32235719 .2559967 .25532533 .21899414 .11528015 .20298767 .053268434 .16799927 .011245728 .12399292 .011245728 .117996219 .011245728 .09498596 .011245728 .07398987 .024276734 .09899902 .029266358 .12098694 .05027771 .12098694 .07827759 .12098694 .105270389 .09899902 .11328125 .083999637 .11328125 .053985597 .11328125 .0289917 .08728027 .0289917 .055267335 .0289917 .009246826 .07899475-.0107421879 .12298584-.0107421879 .18899536-.0107421879 .22499085 .059280397 .22799683 .0652771 .23999024 .028274537 .27598573-.0107421879 .33599855-.0107421879 .43899537-.0107421879 .49598695 .118270877 .49598695 .14328003 .49598695 .1532898 .4869995 .1532898 .48399354 .1532898 .47499085 .1532898 .47299195 .14929199 .47099305 .14228821 .43798829 .03527832 .36999513 .011245728 .33799745 .011245728 .29899598 .011245728 .2829895 .043273927 .2829895 .07727051 .2829895 .09927368 .2889862 .121276859 .2999878 .16529846L.33399964 .30233766Z"/>
<path id="font_1_2" d="M.48599244 .38136292C.48999024 .39537049 .48999024 .39736939 .48999024 .40437318 .48999024 .42237855 .47599793 .43138124 .46099855 .43138124 .45098878 .43138124 .43499757 .42536927 .42599488 .41036988 .42399598 .405365 .41600038 .37435914 .4119873 .35635377 .40499879 .33035279 .397995 .30334474 .3919983 .27633668L.34700013 .09628296C.34298707 .08126831 .2999878 .011245728 .23399353 .011245728 .18299866 .011245728 .17199707 .055267335 .17199707 .0922699 .17199707 .1382904 .18899536 .20030213 .22299195 .28833009 .23899842 .3293457 .24299622 .3403473 .24299622 .36035157 .24299622 .405365 .21099854 .4423828 .16099549 .4423828 .06599426 .4423828 .0289917 .29733277 .0289917 .28833009 .0289917 .27833558 .038986207 .27833558 .040985109 .27833558 .050994874 .27833558 .051986696 .28033448 .056991579 .29634095 .083999637 .3903656 .12399292 .42037965 .1579895 .42037965 .1659851 .42037965 .18299866 .42037965 .18299866 .3883667 .18299866 .36335755 .17298889 .3373413 .1659851 .31834413 .12599182 .21231079 .10798645 .1552887 .10798645 .10827637 .10798645 .019256592 .17098999-.0107421879 .22999573-.0107421879 .2689972-.0107421879 .30299378 .0062561037 .33099366 .03425598 .31799317-.017745972 .30599977-.06674194 .2659912-.11973572 .23999024-.15385437 .20199585-.18309021 .1559906-.18309021 .14199829-.18309021 .09700012-.18005371 .07998657-.14074707 .09599304-.14074707 .10899353-.14074707 .12298584-.1287384 .1329956-.11973572 .14299011-.10673523 .14299011-.08773804 .14299011-.056747438 .115997318-.052734376 .10598755-.052734376 .08299255-.052734376 .049987794-.068740848 .049987794-.11773682 .049987794-.16796875 .09399414-.20507813 .1559906-.20507813 .25898744-.20507813 .3619995-.11373901 .3899994-.00074768069L.48599244 .38136292Z"/>
</defs>
<path transform="matrix(1,0,0,-1,15.786003,91.236)" stroke-width=".3985" stroke-linecap="butt" stroke-miterlimit="10" stroke-linejoin="miter" fill="none" stroke="#cbcbcb" d="M-14.17339-14.17339H155.90744M-14.17339 0H155.90744M-14.17339 14.17339H155.90744M-14.17339 28.3468H155.90744M-14.17339 42.5202H155.90744M-14.17339 56.69362H155.90744M-14.17339 70.86205H155.90744M-14.17339-14.17339V70.867M0-14.17339V70.867M14.17339-14.17339V70.867M28.3468-14.17339V70.867M42.5202-14.17339V70.867M56.69362-14.17339V70.867M70.867-14.17339V70.867M85.04042-14.17339V70.867M99.21382-14.17339V70.867M113.38724-14.17339V70.867M127.56062-14.17339V70.867M141.73404-14.17339V70.867M155.90247-14.17339V70.867M155.90744 70.867"/>
<path transform="matrix(1,0,0,-1,15.786003,91.236)" stroke-width=".79701" stroke-linecap="butt" stroke-miterlimit="10" stroke-linejoin="miter" fill="none" stroke="#000000" d="M-14.17339 0H162.97696"/>
<path transform="matrix(1,0,0,-1,178.76297,91.236)" d="M1.0361 0C-.25902 .25902-1.55415 .77707-3.1083 1.68365-1.55415 .51805-1.55415-.51805-3.1083-1.68365-1.55415-.77707-.25902-.25902 1.0361 0Z"/>
<path transform="matrix(1,0,0,-1,178.76297,91.236)" stroke-width=".79701" stroke-linecap="butt" stroke-linejoin="round" fill="none" stroke="#000000" d="M1.0361 0C-.25902 .25902-1.55415 .77707-3.1083 1.68365-1.55415 .51805-1.55415-.51805-3.1083-1.68365-1.55415-.77707-.25902-.25902 1.0361 0Z"/>
<use data-text="x" xlink:href="#font_1_1" transform="matrix(9.9626,0,0,-9.9626,183.91699,93.381)"/>
<path transform="matrix(1,0,0,-1,15.786003,91.236)" stroke-width=".79701" stroke-linecap="butt" stroke-miterlimit="10" stroke-linejoin="miter" fill="none" stroke="#000000" d="M0-14.17339V77.93652"/>
<path transform="matrix(0,-1,-1,-0,15.786003,13.299477)" d="M1.0361 0C-.25902 .25902-1.55415 .77707-3.1083 1.68365-1.55415 .51805-1.55415-.51805-3.1083-1.68365-1.55415-.77707-.25902-.25902 1.0361 0Z"/>
<path transform="matrix(0,-1,-1,-0,15.786003,13.299477)" stroke-width=".79701" stroke-linecap="butt" stroke-linejoin="round" fill="none" stroke="#000000" d="M1.0361 0C-.25902 .25902-1.55415 .77707-3.1083 1.68365-1.55415 .51805-1.55415-.51805-3.1083-1.68365-1.55415-.77707-.25902-.25902 1.0361 0Z"/>
<use data-text="y" xlink:href="#font_1_2" transform="matrix(9.9626,0,0,-9.9626,13.165001,6.2089998)"/>
<path transform="matrix(1,0,0,-1,15.786003,91.236)" stroke-width="1.19553" stroke-linecap="butt" stroke-miterlimit="10" stroke-linejoin="miter" fill="none" stroke="#ff0000" d="M56.69362 0C56.69362 0 57.81364 3.76767 58.24382 4.6874 58.67401 5.60713 59.36386 6.15277 59.79404 6.62885 60.22421 7.10493 60.91408 7.73775 61.34425 8.11871 61.77443 8.49968 62.4643 9.04678 62.89447 9.3746 63.32466 9.70242 64.01451 10.1891 64.44469 10.48146 64.87486 10.77382 65.56473 11.21529 65.9949 11.4817 66.42508 11.74814 67.11493 12.15529 67.54512 12.40172 67.9753 12.64816 68.66516 13.02754 69.09534 13.25792 69.52551 13.48831 70.21538 13.84511 70.64555 14.06223 71.07573 14.27936 71.76558 14.61694 72.19577 14.82285 72.62595 15.02875 73.31581 15.34996 73.74597 15.54626 74.17616 15.74257 74.86603 16.04979 75.2962 16.23769 75.72638 16.42558 76.41623 16.72006 76.84642 16.90054 77.2766 17.08102 77.96646 17.3646 78.39662 17.53853 78.82681 17.7125 79.51666 17.9862 79.94685 18.15425 80.37701 18.32228 81.06688 18.58698 81.49707 18.74963 81.92725 18.91231 82.61711 19.16884 83.04727 19.32664 83.47746 19.48445 84.16731 19.73363 84.5975 19.88701 85.02766 20.04036 85.71753 20.28278 86.14772 20.43199 86.5779 20.58122 87.26776 20.81706 87.69792 20.96251 88.12811 21.10794 88.81796 21.33829 89.24815 21.48026 89.67831 21.62221 90.36818 21.84695 90.79836 21.98567 91.22855 22.12439 91.91841 22.3444 92.34857 22.48007 92.77876 22.61572 93.46861 22.83066 93.8988 22.96342 94.32896 23.0962 95.01883 23.30695 95.449 23.43704 95.8792 23.56717 96.56905 23.7736 96.99922 23.90117 97.4294 24.02873 98.11926 24.23123 98.54945 24.35641 98.97961 24.48161 99.66948 24.68051 100.09966 24.80345 100.52985 24.92639 101.2197 25.1217 101.64987 25.24246 102.08005 25.36325 102.76991 25.55519 103.20009 25.67393 103.63026 25.79266 104.32013 25.98143 104.7503 26.09825 105.1805 26.21506 105.87035 26.4009 106.30052 26.51585 106.7307 26.63084 107.42056 26.81374 107.85074 26.92699 108.28091 27.04022 108.97078 27.2205 109.40096 27.33206 109.83115 27.44362 110.521 27.62114 110.95117 27.73108 111.38135 27.84102 112.07121 28.01608 112.50139 28.12447 112.93156 28.23285 113.62141 28.40533 114.0516 28.51225 114.48178 28.61914 115.17165 28.7895 115.60182 28.89503 116.032 29.00056 116.72186 29.16872 117.15204 29.27286 117.58221 29.37701 118.27206 29.54288 118.70226 29.6457 119.13243 29.74855 119.8223 29.91245 120.25246 30.01402 120.68265 30.11559 121.37251 30.2774 121.80269 30.37778 122.23286 30.47815 122.92271 30.63823 123.3529 30.73744 123.78308 30.83662 124.47295 30.9947 124.9031 31.09277 125.3333 31.19081 126.02315 31.34724 126.45334 31.4442 126.8835 31.54115 127.57336 31.69566 128.00356 31.79152 128.43373 31.8874 129.1236 32.04033 129.55376 32.13518 129.98395 32.23003 130.6738 32.38127 131.10399 32.47516 131.53415 32.56905 132.22402 32.71895 132.6542 32.81187 133.08438 32.90482 133.77425 33.05296 134.2044 33.14494 134.6346 33.2369 135.32445 33.38368 135.75464 33.47475 136.1848 33.56583 136.87467 33.71112 137.30484 33.80132 137.73503 33.89151 138.4249 34.03552 138.85506 34.12485 139.28525 34.21417 139.9751 34.35666 140.40529 34.44514 140.83545 34.53365 141.52532 34.67493 141.95549 34.76263 142.38568 34.85034 143.07553 34.99037 143.5057 35.0773 143.93589 35.16422 144.62575 35.30301 145.05594 35.38916 145.4861 35.47531 146.17597 35.61281 146.60614 35.69821 147.03633 35.78362 147.72618 35.91998 148.15636 36.00467 148.58654 36.08934 149.2764 36.22458 149.70658 36.30852 150.13675 36.39249 150.82662 36.52652 151.25679 36.60977 151.68698 36.69305 152.37683 36.82605 152.807 36.90866 153.23719 36.99127 153.92705 37.12323 154.35723 37.20518 154.7874 37.28711 155.90744 37.4993 155.90744 37.4993"/>
</svg>
