<svg xmlns="http://www.w3.org/2000/svg" xmlns:xlink="http://www.w3.org/1999/xlink" version="1.1" width="191" height="347" viewBox="0 0 191 347">
<defs>
<path id="font_1_1" d="M.33399964 .30233766C.33999635 .32835389 .36299134 .42037965 .43299867 .42037965 .43798829 .42037965 .46199037 .42037965 .48298646 .40734864 .45498658 .402359 .43499757 .37734986 .43499757 .35334779 .43499757 .33735658 .44599916 .31835938 .47299195 .31835938 .49499513 .31835938 .5269928 .3363495 .5269928 .37635804 .5269928 .42837525 .46798707 .4423828 .43399049 .4423828 .37599183 .4423828 .34098817 .38935853 .32899476 .36634828 .3039856 .43237306 .25 .4423828 .22099304 .4423828 .116989139 .4423828 .05999756 .3133545 .05999756 .28834535 .05999756 .27833558 .069992069 .27833558 .07199097 .27833558 .07998657 .27833558 .08299255 .28033448 .084991458 .28933717 .11898804 .39535523 .18499756 .42037965 .21899414 .42037965 .23799134 .42037965 .272995 .4113617 .272995 .35334779 .272995 .32235719 .2559967 .25532533 .21899414 .11528015 .20298767 .053268434 .16799927 .011245728 .12399292 .011245728 .117996219 .011245728 .09498596 .011245728 .07398987 .024276734 .09899902 .029266358 .12098694 .05027771 .12098694 .07827759 .12098694 .105270389 .09899902 .11328125 .083999637 .11328125 .053985597 .11328125 .0289917 .08728027 .0289917 .055267335 .0289917 .009246826 .07899475-.0107421879 .12298584-.0107421879 .18899536-.0107421879 .22499085 .059280397 .22799683 .0652771 .23999024 .028274537 .27598573-.0107421879 .33599855-.0107421879 .43899537-.0107421879 .49598695 .118270877 .49598695 .14328003 .49598695 .1532898 .4869995 .1532898 .48399354 .1532898 .47499085 .1532898 .47299195 .14929199 .47099305 .14228821 .43798829 .03527832 .36999513 .011245728 .33799745 .011245728 .29899598 .011245728 .2829895 .043273927 .2829895 .07727051 .2829895 .09927368 .2889862 .121276859 .2999878 .16529846L.33399964 .30233766Z"/>
<path id="font_1_2" d="M.48599244 .38136292C.48999024 .39537049 .48999024 .39736939 .48999024 .40437318 .48999024 .42237855 .47599793 .43138124 .46099855 .43138124 .45098878 .43138124 .43499757 .42536927 .42599488 .41036988 .42399598 .405365 .41600038 .37435914 .4119873 .35635377 .40499879 .33035279 .397995 .30334474 .3919983 .27633668L.34700013 .09628296C.34298707 .08126831 .2999878 .011245728 .23399353 .011245728 .18299866 .011245728 .17199707 .055267335 .17199707 .0922699 .17199707 .1382904 .18899536 .20030213 .22299195 .28833009 .23899842 .3293457 .24299622 .3403473 .24299622 .36035157 .24299622 .405365 .21099854 .4423828 .16099549 .4423828 .06599426 .4423828 .0289917 .29733277 .0289917 .28833009 .0289917 .27833558 .038986207 .27833558 .040985109 .27833558 .050994874 .27833558 .051986696 .28033448 .056991579 .29634095 .083999637 .3903656 .12399292 .42037965 .1579895 .42037965 .1659851 .42037965 .18299866 .42037965 .18299866 .3883667 .18299866 .36335755 .17298889 .3373413 .1659851 .31834413 .12599182 .21231079 .10798645 .1552887 .10798645 .10827637 .10798645 .019256592 .17098999-.0107421879 .22999573-.0107421879 .2689972-.0107421879 .30299378 .0062561037 .33099366 .03425598 .31799317-.017745972 .30599977-.06674194 .2659912-.11973572 .23999024-.15385437 .20199585-.18309021 .1559906-.18309021 .14199829-.18309021 .09700012-.18005371 .07998657-.14074707 .09599304-.14074707 .10899353-.14074707 .12298584-.1287384 .1329956-.11973572 .14299011-.10673523 .14299011-.08773804 .14299011-.056747438 .115997318-.052734376 .10598755-.052734376 .08299255-.052734376 .049987794-.068740848 .049987794-.11773682 .049987794-.16796875 .09399414-.20507813 .1559906-.20507813 .25898744-.20507813 .3619995-.11373901 .3899994-.00074768069L.48599244 .38136292Z"/>
<path id="font_2_1" d="M.6589966 .23046875C.6759949 .23046875 .69400027 .23046875 .69400027 .25045777 .69400027 .27046205 .6759949 .27046205 .6589966 .27046205H.117996219C.100997928 .27046205 .08299255 .27046205 .08299255 .25045777 .08299255 .23046875 .100997928 .23046875 .117996219 .23046875H.6589966Z"/>
<path id="font_3_4" d="M.2939911 .16503906V.07800293C.2939911 .041992189 .2919922 .0309906 .21798706 .0309906H.19699097V0C.23799134 .0029907227 .2899933 .0029907227 .33198548 .0029907227 .37399293 .0029907227 .4269867 .0029907227 .46798707 0V.0309906H.44699098C.37298585 .0309906 .37098695 .041992189 .37098695 .07800293V.16503906H.47099305V.19602967H.37098695V.65075686C.37098695 .67074587 .37098695 .6767578 .35499574 .6767578 .34599305 .6767578 .34298707 .6767578 .33499146 .66474917L.027999878 .19602967V.16503906H.2939911M.2999878 .19602967H.055999757L.2999878 .5688019V.19602967Z"/>
<path id="font_3_3" d="M.1269989 .07699585 .23298645 .18003845C.3889923 .31811524 .44898988 .3721466 .44898988 .47216798 .44898988 .5860901 .35899354 .6660156 .23699951 .6660156 .12399292 .6660156 .049987794 .57411196 .049987794 .48516847 .049987794 .4291687 .099990848 .4291687 .102996829 .4291687 .11999512 .4291687 .15499878 .44117738 .15499878 .48217774 .15499878 .5081787 .13699341 .5341797 .101989749 .5341797 .09399414 .5341797 .09199524 .5341797 .08898926 .5331726 .11199951 .59806826 .1659851 .63500979 .22399903 .63500979 .31498719 .63500979 .35798646 .5541382 .35798646 .47216798 .35798646 .39215089 .30799867 .31311036 .25299073 .25108338L.06098938 .036987306C.049987794 .025985718 .049987794 .023986817 .049987794 0H.42099L.44898988 .17404175H.42399598C.4189911 .14402771 .4119873 .1000061 .4019928 .084991458 .394989 .07699585 .32899476 .07699585 .30699159 .07699585H.1269989Z"/>
<path id="font_3_5" d="M.13198853 .327713V.35173036C.13198853 .6047821 .2559967 .64100649 .30699159 .64100649 .33099366 .64100649 .37298585 .634964 .394989 .6007538 .37998963 .6007538 .33999635 .6007538 .33999635 .5557556 .33999635 .524765 .3639984 .5097656 .38598634 .5097656 .4019928 .5097656 .43199159 .51875308 .43199159 .5577545 .43199159 .6178589 .3880005 .6660156 .30499269 .6660156 .1769867 .6660156 .041992189 .5367584 .041992189 .31570436 .041992189 .048553468 .1579895-.022460938 .25099183-.022460938 .3619995-.022460938 .45700074 .07156372 .45700074 .2036438 .45700074 .33070375 .36799623 .4267578 .25698854 .4267578 .18899536 .4267578 .1519928 .37573243 .13198853 .327713M.25099183 .0055389406C.18798828 .0055389406 .1579895 .06556702 .1519928 .080566409 .13398743 .127594 .13398743 .2076416 .13398743 .22564698 .13398743 .30369569 .1659851 .40374757 .2559967 .40374757 .27198792 .40374757 .31799317 .40374757 .34899903 .34172059 .36698915 .30470277 .36698915 .2536621 .36698915 .20463562 .36698915 .15661621 .36698915 .10658264 .34999085 .0705719 .31999208 .010528564 .27398683 .0055389406 .25099183 .0055389406Z"/>
<path id="font_3_6" d="M.16299439 .4569702C.116989139 .486969 .11299133 .52098086 .11299133 .5379791 .11299133 .598999 .17799378 .64100649 .24899292 .64100649 .32199098 .64100649 .38598634 .58898928 .38598634 .51698306 .38598634 .45996095 .34700013 .4119568 .2869873 .37695313L.16299439 .4569702M.30899049 .36193849C.3809967 .3989563 .42999269 .45095826 .42999269 .51698306 .42999269 .6090088 .34098817 .6660156 .25 .6660156 .1499939 .6660156 .068984989 .59199526 .068984989 .49897767 .068984989 .4809723 .070999149 .43595887 .11299133 .38894654 .12399292 .37695313 .16099549 .35194398 .18598938 .33494569 .12799073 .30592347 .041992189 .24984741 .041992189 .15072632 .041992189 .04458618 .14399719-.022460938 .24899292-.022460938 .3619995-.022460938 .45700074 .06060791 .45700074 .16773987 .45700074 .20379639 .44599916 .24885559 .4079895 .2909088 .3889923 .31193543 .37298585 .3219452 .30899049 .36193849M.20899964 .3199463 .33198548 .24183655C.3600006 .2228241 .40699769 .19277954 .40699769 .13169861 .40699769 .05760193 .33198548 .0055389406 .25 .0055389406 .1639862 .0055389406 .09199524 .067611698 .09199524 .15072632 .09199524 .20880127 .12399292 .27288819 .20899964 .3199463Z"/>
<path id="font_3_2" d="M.2939911 .64004519C.2939911 .66400149 .2939911 .6660156 .2709961 .6660156 .20899964 .60227969 .12098694 .60227969 .08898926 .60227969V.57128909C.10899353 .57128909 .16799927 .57128909 .21998596 .5972748V.07902527C.21998596 .042999269 .21699524 .0309906 .1269989 .0309906H.09498596V0C.12998963 .0029907227 .21699524 .0029907227 .25698854 .0029907227 .29699708 .0029907227 .38398744 .0029907227 .4189911 0V.0309906H.3869934C.29699708 .0309906 .2939911 .041992189 .2939911 .07902527V.64004519Z"/>
<path id="font_3_1" d="M.45999146 .31976319C.45999146 .39982606 .45498658 .47988893 .41999818 .5539398 .37399293 .65000918 .2919922 .6660156 .25 .6660156 .18998719 .6660156 .116989139 .64001467 .07598877 .54693606 .04399109 .47789 .038986207 .39982606 .038986207 .31976319 .038986207 .24472046 .042999269 .15464783 .083999637 .07859802 .1269989-.0024719239 .19999695-.022460938 .24899292-.022460938 .30299378-.022460938 .3789978-.0014648438 .4229889 .09359741 .45498658 .16265869 .45999146 .2407074 .45999146 .31976319M.24899292-.00047302247C.20999146-.00047302247 .15098572 .024551392 .1329956 .12062073 .12199402 .18066406 .12199402 .2727356 .12199402 .3317871 .12199402 .39582826 .12199402 .46188355 .12998963 .5159149 .14898682 .63500979 .22399903 .64401248 .24899292 .64401248 .28199769 .64401248 .34799195 .6259918 .36698915 .52693179 .3769989 .47088624 .3769989 .39482118 .3769989 .3317871 .3769989 .25672914 .3769989 .18867493 .3659973 .12461853 .35099793 .029556275 .2939911-.00047302247 .24899292-.00047302247Z"/>
</defs>
<path transform="matrix(1,0,0,-1.00003,86.852008,226.17441)" stroke-width=".3985" stroke-linecap="butt" stroke-miterlimit="10" stroke-linejoin="miter" fill="none" stroke="#00aeef" d="M-85.04128-119.0578H85.04128M-85.04128-102.04953H85.04128M-85.04128-85.04128H85.04128M-85.04128-68.03302H85.04128M-85.04128-51.02477H85.04128M-85.04128-34.0165H85.04128M-85.04128-17.00824H85.04128M-85.04128 0H85.04128M-85.04128 17.00824H85.04128M-85.04128 34.0165H85.04128M-85.04128 51.02477H85.04128M-85.04128 68.03302H85.04128M-85.04128 85.04128H85.04128M-85.04128 102.04953H85.04128M-85.04128 119.0578H85.04128M-85.04128 136.06606H85.04128M-85.04128 153.07433H85.04128M-85.04128 170.08257H85.04128M-85.04128 187.09084H85.04128M-85.04128 204.09313H85.04128M-85.04128-119.0578V204.09909M-68.03302-119.0578V204.09909M-51.02477-119.0578V204.09909M-34.0165-119.0578V204.09909M-17.00824-119.0578V204.09909M0-119.0578V204.09909M17.00824-119.0578V204.09909M34.0165-119.0578V204.09909M51.02477-119.0578V204.09909M68.03302-119.0578V204.09909M85.0353-119.0578V204.09909M85.04128 204.09909"/>
<path transform="matrix(1,0,0,-1.00003,86.852008,226.17441)" stroke-width=".79701" stroke-linecap="butt" stroke-miterlimit="10" stroke-linejoin="miter" fill="none" stroke="#000000" d="M-85.04128 0H92.11078"/>
<path transform="matrix(1,0,0,-1.00003,178.96279,226.17441)" d="M1.0361 0C-.25902 .25902-1.55415 .77707-3.1083 1.68365-1.55415 .51805-1.55415-.51805-3.1083-1.68365-1.55415-.77707-.25902-.25902 1.0361 0Z"/>
<path transform="matrix(1,0,0,-1.00003,178.96279,226.17441)" stroke-width=".79701" stroke-linecap="butt" stroke-linejoin="round" fill="none" stroke="#000000" d="M1.0361 0C-.25902 .25902-1.55415 .77707-3.1083 1.68365-1.55415 .51805-1.55415-.51805-3.1083-1.68365-1.55415-.77707-.25902-.25902 1.0361 0Z"/>
<use data-text="x" xlink:href="#font_1_1" transform="matrix(9.9626,0,0,-9.962899,184.116,228.31948)"/>
<path transform="matrix(1,0,0,-1.00003,86.852008,226.17441)" stroke-width=".79701" stroke-linecap="butt" stroke-miterlimit="10" stroke-linejoin="miter" fill="none" stroke="#000000" d="M0-119.0578V212.86954"/>
<path transform="matrix(0,-1.00003,-1,-0,86.852008,13.298477)" d="M1.0361 0C-.25902 .25902-1.55415 .77707-3.1083 1.68365-1.55415 .51805-1.55415-.51805-3.1083-1.68365-1.55415-.77707-.25902-.25902 1.0361 0Z"/>
<path transform="matrix(0,-1.00003,-1,-0,86.852008,13.298477)" stroke-width=".79701" stroke-linecap="butt" stroke-linejoin="round" fill="none" stroke="#000000" d="M1.0361 0C-.25902 .25902-1.55415 .77707-3.1083 1.68365-1.55415 .51805-1.55415-.51805-3.1083-1.68365-1.55415-.77707-.25902-.25902 1.0361 0Z"/>
<use data-text="y" xlink:href="#font_1_2" transform="matrix(9.9626,0,0,-9.962899,84.231,6.207794)"/>
<path transform="matrix(1,0,0,-1.00003,86.852008,226.17441)" stroke-width=".3985" stroke-linecap="butt" stroke-miterlimit="10" stroke-linejoin="miter" fill="none" stroke="#000000" d="M-68.03302 2.55112V-2.55139"/>
<path transform="matrix(1,0,0,-1.00003,86.852008,226.17441)" d="M-75.39442-13.98642H-60.67164V-4.74319H-75.39442Z" fill="#ffffff"/>
<use data-text="&#x2212;" xlink:href="#font_2_1" transform="matrix(9.9626,0,0,-9.962899,12.453995,238.33478)"/>
<use data-text="4" xlink:href="#font_3_4" transform="matrix(9.9626,0,0,-9.962899,20.202988,238.33478)"/>
<path transform="matrix(1,0,0,-1.00003,86.852008,226.17441)" stroke-width=".3985" stroke-linecap="butt" stroke-miterlimit="10" stroke-linejoin="miter" fill="none" stroke="#000000" d="M-34.0165 2.55112V-2.55139"/>
<path transform="matrix(1,0,0,-1.00003,86.852008,226.17441)" d="M-41.3779-13.98642H-26.655119V-4.74319H-41.3779Z" fill="#ffffff"/>
<use data-text="&#x2212;" xlink:href="#font_2_1" transform="matrix(9.9626,0,0,-9.962899,46.47,238.33478)"/>
<use data-text="2" xlink:href="#font_3_3" transform="matrix(9.9626,0,0,-9.962899,54.218996,238.33478)"/>
<path transform="matrix(1,0,0,-1.00003,86.852008,226.17441)" stroke-width=".3985" stroke-linecap="butt" stroke-miterlimit="10" stroke-linejoin="miter" fill="none" stroke="#000000" d="M34.0165 2.55112V-2.55139"/>
<path transform="matrix(1,0,0,-1.00003,86.852008,226.17441)" d="M30.52953-13.15617H37.50347V-4.74319H30.52953Z" fill="#ffffff"/>
<use data-text="2" xlink:href="#font_3_3" transform="matrix(9.9626,0,0,-9.962899,118.378009,238.33478)"/>
<path transform="matrix(1,0,0,-1.00003,86.852008,226.17441)" stroke-width=".3985" stroke-linecap="butt" stroke-miterlimit="10" stroke-linejoin="miter" fill="none" stroke="#000000" d="M68.03302 2.55112V-2.55139"/>
<path transform="matrix(1,0,0,-1.00003,86.852008,226.17441)" d="M64.54605-13.15617H71.51999V-4.74319H64.54605Z" fill="#ffffff"/>
<use data-text="4" xlink:href="#font_3_4" transform="matrix(9.9626,0,0,-9.962899,152.39402,238.33478)"/>
<path transform="matrix(1,0,0,-1.00003,86.852008,226.17441)" stroke-width=".3985" stroke-linecap="butt" stroke-miterlimit="10" stroke-linejoin="miter" fill="none" stroke="#000000" d="M5.10251-102.04953H-5.10251"/>
<path transform="matrix(1,0,0,-1.00003,86.852008,226.17441)" d="M-22.01709-106.67114H-7.2943098V-97.42791H-22.01709Z" fill="#ffffff"/>
<use data-text="&#x2212;" xlink:href="#font_2_1" transform="matrix(9.9626,0,0,-9.962899,65.83101,331.02256)"/>
<use data-text="6" xlink:href="#font_3_5" transform="matrix(9.9626,0,0,-9.962899,73.58,331.02256)"/>
<path transform="matrix(1,0,0,-1.00003,86.852008,226.17441)" stroke-width=".3985" stroke-linecap="butt" stroke-miterlimit="10" stroke-linejoin="miter" fill="none" stroke="#000000" d="M5.10251-68.03302H-5.10251"/>
<path transform="matrix(1,0,0,-1.00003,86.852008,226.17441)" d="M-22.01709-72.65465H-7.2943098V-63.41142H-22.01709Z" fill="#ffffff"/>
<use data-text="&#x2212;" xlink:href="#font_2_1" transform="matrix(9.9626,0,0,-9.962899,65.83101,297.00456)"/>
<use data-text="4" xlink:href="#font_3_4" transform="matrix(9.9626,0,0,-9.962899,73.58,297.00456)"/>
<path transform="matrix(1,0,0,-1.00003,86.852008,226.17441)" stroke-width=".3985" stroke-linecap="butt" stroke-miterlimit="10" stroke-linejoin="miter" fill="none" stroke="#000000" d="M5.10251 34.0165H-5.10251"/>
<path transform="matrix(1,0,0,-1.00003,86.852008,226.17441)" d="M-14.26825 29.81001H-7.2943108V38.222993H-14.26825Z" fill="#ffffff"/>
<use data-text="2" xlink:href="#font_3_3" transform="matrix(9.9626,0,0,-9.962899,73.58,195.36748)"/>
<path transform="matrix(1,0,0,-1.00003,86.852008,226.17441)" stroke-width=".3985" stroke-linecap="butt" stroke-miterlimit="10" stroke-linejoin="miter" fill="none" stroke="#000000" d="M5.10251 68.03302H-5.10251"/>
<path transform="matrix(1,0,0,-1.00003,86.852008,226.17441)" d="M-14.26825 63.82654H-7.2943108V72.239528H-14.26825Z" fill="#ffffff"/>
<use data-text="4" xlink:href="#font_3_4" transform="matrix(9.9626,0,0,-9.962899,73.58,161.34946)"/>
<path transform="matrix(1,0,0,-1.00003,86.852008,226.17441)" stroke-width=".3985" stroke-linecap="butt" stroke-miterlimit="10" stroke-linejoin="miter" fill="none" stroke="#000000" d="M5.10251 102.04953H-5.10251"/>
<path transform="matrix(1,0,0,-1.00003,86.852008,226.17441)" d="M-14.26825 97.84305H-7.2943108V106.25603H-14.26825Z" fill="#ffffff"/>
<use data-text="6" xlink:href="#font_3_5" transform="matrix(9.9626,0,0,-9.962899,73.58,127.33244)"/>
<path transform="matrix(1,0,0,-1.00003,86.852008,226.17441)" stroke-width=".3985" stroke-linecap="butt" stroke-miterlimit="10" stroke-linejoin="miter" fill="none" stroke="#000000" d="M5.10251 136.06606H-5.10251"/>
<path transform="matrix(1,0,0,-1.00003,86.852008,226.17441)" d="M-14.26825 131.85958H-7.2943108V140.27256H-14.26825Z" fill="#ffffff"/>
<use data-text="8" xlink:href="#font_3_6" transform="matrix(9.9626,0,0,-9.962899,73.58,93.31441)"/>
<path transform="matrix(1,0,0,-1.00003,86.852008,226.17441)" stroke-width=".3985" stroke-linecap="butt" stroke-miterlimit="10" stroke-linejoin="miter" fill="none" stroke="#000000" d="M5.10251 170.08257H-5.10251"/>
<path transform="matrix(1,0,0,-1.00003,86.852008,226.17441)" d="M-19.24966 165.87607H-7.29432V174.28905H-19.24966Z" fill="#ffffff"/>
<use data-text="1" xlink:href="#font_3_2" transform="matrix(9.9626,0,0,-9.962899,68.59901,59.297395)"/>
<use data-text="0" xlink:href="#font_3_1" transform="matrix(9.9626,0,0,-9.962899,73.5803,59.297395)"/>
<path transform="matrix(1,0,0,-1.00003,86.852008,226.17441)" stroke-width=".3985" stroke-linecap="butt" stroke-miterlimit="10" stroke-linejoin="miter" fill="none" stroke="#000000" d="M5.10251 204.09909H-5.10251"/>
<path transform="matrix(1,0,0,-1.00003,86.852008,226.17441)" d="M-19.24966 199.8926H-7.29432V208.30558H-19.24966Z" fill="#ffffff"/>
<use data-text="1" xlink:href="#font_3_2" transform="matrix(9.9626,0,0,-9.962899,68.59901,25.279358)"/>
<use data-text="2" xlink:href="#font_3_3" transform="matrix(9.9626,0,0,-9.962899,73.5803,25.279358)"/>
<path transform="matrix(1,0,0,-1.00003,86.852008,226.17441)" stroke-width="1.19553" stroke-linecap="butt" stroke-miterlimit="10" stroke-linejoin="miter" fill="none" stroke="#0000ff" d="M-50.79027 202.24088C-49.4887 191.92882-49.4887 191.92882-48.89873 187.35659-48.30876 182.78435-47.36266 175.57033-46.77269 171.14559-46.18274 166.72086-45.23663 159.74335-44.64667 155.4661-44.05669 151.18886-43.1106 144.44788-42.52063 140.31812-41.93066 136.18836-40.98456 129.68392-40.39459 125.70164-39.80463 121.71938-38.85854 115.45145-38.26855 111.61667-37.6786 107.78189-36.73248 101.75052-36.14253 98.06323-35.55255 94.37593-34.60646 88.58107-34.0165 85.04128-33.42654 81.50148-32.48044 75.94315-31.89047 72.55084-31.3005 69.15854-30.3544 63.83672-29.76443 60.5919-29.17447 57.34709-28.22836 52.2618-27.63841 49.16449-27.04843 46.06715-26.10234 41.2184-25.51236 38.26855-24.92241 35.31874-23.97629 30.70648-23.38634 27.90414-22.79637 25.10182-21.85027 20.72609-21.26031 18.07126-20.67033 15.41641-19.72423 11.27722-19.13426 8.76987-18.54431 6.26253-17.5982 2.35985-17.00824 0-16.41827-2.35985-15.47217-6.02599-14.88222-8.23836-14.29224-10.45071-13.34615-13.88034-12.75616-15.94522-12.16621-18.0101-11.22011-21.2032-10.63014-23.12059-10.04019-25.03796-9.09407-27.99454-8.50412-29.76443-7.91414-31.53432-6.96805-34.25438-6.37807-35.87679-5.78812-37.49919-4.84201-39.9827-4.25204-41.45761-3.66208-42.93253-2.71597-45.17952-2.126-46.50693-1.53604-47.83435-.58994-49.84483 0-51.02477 .58994-52.2047 1.53604-53.97862 2.126-55.01108 2.71597-56.04352 3.66208-57.58092 4.25204-58.46588 4.84201-59.35083 5.78812-60.6517 6.37807-61.38918 6.96805-62.12662 7.91414-63.19098 8.50412-63.78096 9.09407-64.37091 10.04019-65.19876 10.63014-65.64122 11.22011-66.08371 12.16621-66.67502 12.75616-66.97 13.34615-67.26498 14.29224-67.61978 14.88222-67.76726 15.47217-67.91475 16.41827-68.03302 17.00824-68.03302 17.5982-68.03302 18.54431-67.91475 19.13426-67.76726 19.72423-67.61978 20.67033-67.26498 21.26031-66.97 21.85027-66.67502 22.79637-66.08371 23.38634-65.64122 23.97629-65.19876 24.92241-64.37091 25.51236-63.78096 26.10234-63.19098 27.04843-62.12662 27.63841-61.38918 28.22836-60.6517 29.17447-59.35083 29.76443-58.46588 30.3544-57.58092 31.3005-56.04352 31.89047-55.01108 32.48044-53.97862 33.42654-52.2047 34.0165-51.02477 34.60646-49.84483 35.55255-47.83435 36.14253-46.50693 36.73248-45.17952 37.6786-42.93253 38.26855-41.45761 38.85854-39.9827 39.80463-37.49919 40.39459-35.87679 40.98456-34.25438 41.93066-31.53432 42.52063-29.76443 43.1106-27.99454 44.05669-25.03796 44.64667-23.12059 45.23663-21.2032 46.18274-18.0101 46.77269-15.94522 47.36266-13.88034 48.30876-10.45071 48.89873-8.23836 49.4887-6.02599 50.43478-2.35985 51.02477 0 51.61472 2.35985 52.56082 6.26253 53.15079 8.76987 53.74075 11.27722 54.68686 15.41641 55.27682 18.07126 55.86678 20.72609 56.81288 25.10182 57.40286 27.90414 57.99281 30.70648 58.93893 35.31874 59.52888 38.26855 60.11885 41.2184 61.06496 46.06715 61.6549 49.16449 62.24489 52.2618 63.19098 57.34709 63.78096 60.5919 64.37091 63.83672 65.31703 69.15854 65.90698 72.55084 66.49696 75.94315 67.44305 81.50148 68.03302 85.04128 68.62299 88.58107 69.56908 94.37593 70.15904 98.06323 70.74901 101.75052 71.69511 107.78189 72.28508 111.61667 72.87505 115.45145 73.82115 121.71938 74.4111 125.70164 75.00108 129.68392 75.94717 136.18836 76.53716 140.31812 77.1271 144.44788 78.07321 151.18886 78.66318 155.4661 79.25314 159.74335 80.19925 166.72086 80.78922 171.14559 81.37918 175.57033 82.32529 182.78435 82.91525 187.35659 83.5052 191.92882 85.04128 204.09909 84.80678 202.24088"/>
<path transform="matrix(-.1252,-.9921398,-.99211,.12520376,36.061735,23.92746)" d="M1.27522 0C-.31879 .31879-1.91284 .9564-3.8257 2.07224-1.91284 .6376-1.91284-.6376-3.8257-2.07224-1.91284-.9564-.31879-.31879 1.27522 0Z" fill="#0000ff"/>
<path transform="matrix(-.1252,-.9921398,-.99211,.12520376,36.061735,23.92746)" stroke-width="1.19553" stroke-linecap="butt" stroke-linejoin="round" fill="none" stroke="#0000ff" d="M1.27522 0C-.31879 .31879-1.91284 .9564-3.8257 2.07224-1.91284 .6376-1.91284-.6376-3.8257-2.07224-1.91284-.9564-.31879-.31879 1.27522 0Z"/>
<path transform="matrix(.1252,-.9921398,-.99211,-.12520376,171.65879,23.92746)" d="M1.27522 0C-.31879 .31879-1.91284 .9564-3.8257 2.07224-1.91284 .6376-1.91284-.6376-3.8257-2.07224-1.91284-.9564-.31879-.31879 1.27522 0Z" fill="#0000ff"/>
<path transform="matrix(.1252,-.9921398,-.99211,-.12520376,171.65879,23.92746)" stroke-width="1.19553" stroke-linecap="butt" stroke-linejoin="round" fill="none" stroke="#0000ff" d="M1.27522 0C-.31879 .31879-1.91284 .9564-3.8257 2.07224-1.91284 .6376-1.91284-.6376-3.8257-2.07224-1.91284-.9564-.31879-.31879 1.27522 0Z"/>
<path transform="matrix(1,0,0,-1.00003,86.852008,226.17441)" stroke-width="1.19553" stroke-linecap="butt" stroke-miterlimit="10" stroke-linejoin="miter" fill="none" stroke="#ff0000" d="M-17.00824 0H-83.16829"/>
<path transform="matrix(-1,-0,0,1.00003,3.6837159,226.17441)" d="M1.27522 0C-.31879 .31879-1.91284 .9564-3.8257 2.07224-1.91284 .6376-1.91284-.6376-3.8257-2.07224-1.91284-.9564-.31879-.31879 1.27522 0Z" fill="#ff0000"/>
<path transform="matrix(-1,-0,0,1.00003,3.6837159,226.17441)" stroke-width="1.19553" stroke-linecap="butt" stroke-linejoin="round" fill="none" stroke="#ff0000" d="M1.27522 0C-.31879 .31879-1.91284 .9564-3.8257 2.07224-1.91284 .6376-1.91284-.6376-3.8257-2.07224-1.91284-.9564-.31879-.31879 1.27522 0Z"/>
<path transform="matrix(1,0,0,-1.00003,86.852008,226.17441)" stroke-width="1.19553" stroke-linecap="butt" stroke-miterlimit="10" stroke-linejoin="miter" fill="none" stroke="#ff0000" d="M51.02477 0H91.67241"/>
<path transform="matrix(1,0,0,-1.00003,178.52442,226.17441)" d="M1.27522 0C-.31879 .31879-1.91284 .9564-3.8257 2.07224-1.91284 .6376-1.91284-.6376-3.8257-2.07224-1.91284-.9564-.31879-.31879 1.27522 0Z" fill="#ff0000"/>
<path transform="matrix(1,0,0,-1.00003,178.52442,226.17441)" stroke-width="1.19553" stroke-linecap="butt" stroke-linejoin="round" fill="none" stroke="#ff0000" d="M1.27522 0C-.31879 .31879-1.91284 .9564-3.8257 2.07224-1.91284 .6376-1.91284-.6376-3.8257-2.07224-1.91284-.9564-.31879-.31879 1.27522 0Z"/>
<path transform="matrix(1,0,0,-1.00003,86.852008,226.17441)" d="M-13.60664 0C-13.60664 1.87865-15.12958 3.40158-17.00824 3.40158-18.8869 3.40158-20.40984 1.87865-20.40984 0-20.40984-1.87865-18.8869-3.40158-17.00824-3.40158-15.12958-3.40158-13.60664-1.87865-13.60664 0ZM-17.00824 0" fill="#ffffff"/>
<path transform="matrix(1,0,0,-1.00003,86.852008,226.17441)" stroke-width=".3985" stroke-linecap="butt" stroke-miterlimit="10" stroke-linejoin="miter" fill="none" stroke="#ff0000" d="M-13.60664 0C-13.60664 1.87865-15.12958 3.40158-17.00824 3.40158-18.8869 3.40158-20.40984 1.87865-20.40984 0-20.40984-1.87865-18.8869-3.40158-17.00824-3.40158-15.12958-3.40158-13.60664-1.87865-13.60664 0ZM-17.00824 0"/>
<path transform="matrix(1,0,0,-1.00003,86.852008,226.17441)" d="M54.42636 0C54.42636 1.87865 52.90343 3.40158 51.02477 3.40158 49.1461 3.40158 47.62317 1.87865 47.62317 0 47.62317-1.87865 49.1461-3.40158 51.02477-3.40158 52.90343-3.40158 54.42636-1.87865 54.42636 0ZM51.02477 0" fill="#ffffff"/>
<path transform="matrix(1,0,0,-1.00003,86.852008,226.17441)" stroke-width=".3985" stroke-linecap="butt" stroke-miterlimit="10" stroke-linejoin="miter" fill="none" stroke="#ff0000" d="M54.42636 0C54.42636 1.87865 52.90343 3.40158 51.02477 3.40158 49.1461 3.40158 47.62317 1.87865 47.62317 0 47.62317-1.87865 49.1461-3.40158 51.02477-3.40158 52.90343-3.40158 54.42636-1.87865 54.42636 0ZM51.02477 0"/>
</svg>
