<svg xmlns="http://www.w3.org/2000/svg" xmlns:xlink="http://www.w3.org/1999/xlink" version="1.1" width="118" height="160" viewBox="0 0 118 160">
<defs>
<path id="font_1_4" d="M.5159912 .68333438C.5159912 .6843262 .5159912 .69433596 .5029907 .69433596 .48799134 .69433596 .3929901 .68533328 .37599183 .68333438 .36799623 .6823273 .3619995 .6773224 .3619995 .6643219 .3619995 .6523285 .37098695 .6523285 .38598634 .6523285 .43399049 .6523285 .43598939 .6453247 .43598939 .6353302L.43299867 .6153412 .37298585 .37835694C.35499574 .41537477 .32598878 .4423828 .2809906 .4423828 .1639862 .4423828 .039993287 .29533387 .039993287 .14929199 .039993287 .055267335 .09498596-.0107421879 .17298889-.0107421879 .19299317-.0107421879 .24299622-.0067443849 .30299378 .06427002 .31098939 .022247315 .34599305-.0107421879 .3939972-.0107421879 .42900086-.0107421879 .45199586 .012252808 .46798707 .044265748 .4850006 .08027649 .49798585 .14129639 .49798585 .14329529 .49798585 .1532898 .4889984 .1532898 .48599244 .1532898 .47599793 .1532898 .47499085 .14929199 .47200013 .13528443 .45498658 .07026672 .43699647 .011245728 .3959961 .011245728 .36898805 .011245728 .3659973 .037261964 .3659973 .057266237 .3659973 .08126831 .36799623 .088272098 .37199403 .105285648L.5159912 .68333438M.30799867 .119277957C.30299378 .10127258 .30299378 .09927368 .28799439 .08227539 .24398804 .027252198 .20298767 .011245728 .1749878 .011245728 .125 .011245728 .11099243 .06626892 .11099243 .105285648 .11099243 .1552887 .14299011 .27833558 .1659851 .32434083 .19699097 .38336183 .24198914 .42037965 .28199769 .42037965 .34700013 .42037965 .36099244 .3383484 .36099244 .33235169 .36099244 .32633973 .35899354 .32034303 .35798646 .31533814L.30799867 .119277957Z"/>
<path id="font_1_3" d="M.37399293 .6056366C.3829956 .6416168 .38598634 .6516113 .46499635 .6516113 .4889984 .6516113 .49699403 .6516113 .49699403 .6706085 .49699403 .6826172 .48599244 .6826172 .48199464 .6826172 .45298768 .6826172 .3789978 .6796112 .34999085 .6796112 .31999208 .6796112 .24699402 .6826172 .21699524 .6826172 .20999146 .6826172 .19699097 .6826172 .19699097 .6626129 .19699097 .6516113 .20599365 .6516113 .22499085 .6516113 .2669983 .6516113 .2939911 .6516113 .2939911 .63261416 .2939911 .6276245 .2939911 .6256256 .2919922 .6166229L.15699768 .07795715C.147995 .040985109 .14498902 .0309906 .06599426 .0309906 .042999269 .0309906 .033996583 .0309906 .033996583 .010986328 .033996583 0 .04598999 0 .04899597 0 .07798767 0 .15098572 .0029907227 .17999268 .0029907227 .20999146 .0029907227 .28399659 0 .31399537 0 .32199098 0 .33399964 0 .33399964 .018997193 .33399964 .0309906 .32598878 .0309906 .3039856 .0309906 .28599549 .0309906 .2809906 .0309906 .26098634 .032989503 .23999024 .034988405 .23599243 .038986207 .23599243 .049987794 .23599243 .05796814 .23799134 .065963748 .23999024 .07296753L.37399293 .6056366Z"/>
<path id="font_2_6" d="M.44898988 .20022583C.44898988 .3193512 .36698915 .41944886 .25898744 .41944886 .21099854 .41944886 .16799927 .40345765 .13198853 .36842347V.5637665C.1519928 .5577698 .18499756 .55078127 .21699524 .55078127 .33999635 .55078127 .4099884 .6417694 .4099884 .6547699 .4099884 .6607666 .40699769 .6657715 .3999939 .6657715 .39898683 .6657715 .39698792 .6657715 .3919983 .66278079 .37199403 .6537781 .32299806 .6337738 .2559967 .6337738 .21598816 .6337738 .16999817 .6407776 .12298584 .6617737 .114990238 .66477969 .11299133 .66477969 .11099243 .66477969 .100997928 .66477969 .100997928 .6567688 .100997928 .6407776V.34439088C.100997928 .32637025 .100997928 .31835938 .114990238 .31835938 .12199402 .31835938 .12399292 .32136537 .12799073 .32736207 .13899231 .3433838 .17599488 .39746095 .25698854 .39746095 .30899049 .39746095 .33399964 .35139466 .34199525 .33337403 .35798646 .29632569 .3600006 .25727845 .3600006 .20722962 .3600006 .17222595 .3600006 .11222839 .33599855 .07035828 .31199647 .031463624 .2749939 .0055389406 .22898865 .0055389406 .1559906 .0055389406 .09899902 .058380128 .08198547 .11723328 .084991458 .1162262 .08799744 .115234378 .09899902 .115234378 .13198853 .115234378 .14898682 .14022827 .14898682 .16423035 .14898682 .18823242 .13198853 .21322632 .09899902 .21322632 .084991458 .21322632 .049987794 .20622254 .049987794 .16023255 .049987794 .07434082 .11898804-.022460938 .23098755-.022460938 .34700013-.022460938 .44898988 .073349 .44898988 .20022583Z"/>
<path id="font_2_3" d="M.45999146 .31976319C.45999146 .39982606 .45498658 .47988893 .41999818 .5539398 .37399293 .65000918 .2919922 .6660156 .25 .6660156 .18998719 .6660156 .116989139 .64001467 .07598877 .54693606 .04399109 .47789 .038986207 .39982606 .038986207 .31976319 .038986207 .24472046 .042999269 .15464783 .083999637 .07859802 .1269989-.0024719239 .19999695-.022460938 .24899292-.022460938 .30299378-.022460938 .3789978-.0014648438 .4229889 .09359741 .45498658 .16265869 .45999146 .2407074 .45999146 .31976319M.24899292-.00047302247C.20999146-.00047302247 .15098572 .024551392 .1329956 .12062073 .12199402 .18066406 .12199402 .2727356 .12199402 .3317871 .12199402 .39582826 .12199402 .46188355 .12998963 .5159149 .14898682 .63500979 .22399903 .64401248 .24899292 .64401248 .28199769 .64401248 .34799195 .6259918 .36698915 .52693179 .3769989 .47088624 .3769989 .39482118 .3769989 .3317871 .3769989 .25672914 .3769989 .18867493 .3659973 .12461853 .35099793 .029556275 .2939911-.00047302247 .24899292-.00047302247Z"/>
<path id="font_1_1" d="M.19198609 .052993776C.19198609 .08198547 .16799927 .10598755 .13899231 .10598755 .10998535 .10598755 .085998538 .08198547 .085998538 .052993776 .085998538 .023986817 .10998535 0 .13899231 0 .16799927 0 .19198609 .023986817 .19198609 .052993776Z"/>
<path id="font_2_4" d="M.2939911 .64004519C.2939911 .66400149 .2939911 .6660156 .2709961 .6660156 .20899964 .60227969 .12098694 .60227969 .08898926 .60227969V.57128909C.10899353 .57128909 .16799927 .57128909 .21998596 .5972748V.07902527C.21998596 .042999269 .21699524 .0309906 .1269989 .0309906H.09498596V0C.12998963 .0029907227 .21699524 .0029907227 .25698854 .0029907227 .29699708 .0029907227 .38398744 .0029907227 .4189911 0V.0309906H.3869934C.29699708 .0309906 .2939911 .041992189 .2939911 .07902527V.64004519Z"/>
<path id="font_2_5" d="M.1269989 .07699585 .23298645 .18003845C.3889923 .31811524 .44898988 .3721466 .44898988 .47216798 .44898988 .5860901 .35899354 .6660156 .23699951 .6660156 .12399292 .6660156 .049987794 .57411196 .049987794 .48516847 .049987794 .4291687 .099990848 .4291687 .102996829 .4291687 .11999512 .4291687 .15499878 .44117738 .15499878 .48217774 .15499878 .5081787 .13699341 .5341797 .101989749 .5341797 .09399414 .5341797 .09199524 .5341797 .08898926 .5331726 .11199951 .59806826 .1659851 .63500979 .22399903 .63500979 .31498719 .63500979 .35798646 .5541382 .35798646 .47216798 .35798646 .39215089 .30799867 .31311036 .25299073 .25108338L.06098938 .036987306C.049987794 .025985718 .049987794 .023986817 .049987794 0H.42099L.44898988 .17404175H.42399598C.4189911 .14402771 .4119873 .1000061 .4019928 .084991458 .394989 .07699585 .32899476 .07699585 .30699159 .07699585H.1269989Z"/>
<path id="font_2_1" d="M.33099366-.2400055C.33099366-.23701477 .33099366-.23500061 .31399537-.21800232 .18899536-.0920105 .15699768 .09700012 .15699768 .25 .15699768 .42399598 .19499207 .59799197 .31799317 .72299197 .33099366 .73498538 .33099366 .7369995 .33099366 .73999026 .33099366 .746994 .32699586 .75 .32099916 .75 .31098939 .75 .22099304 .6819916 .1619873 .5549927 .11099243 .44499208 .09899902 .33399964 .09899902 .25 .09899902 .17199707 .10998535 .050994874 .16499329-.06201172 .22499085-.18501282 .31098939-.25 .32099916-.25 .32699586-.25 .33099366-.24700928 .33099366-.2400055Z"/>
<path id="font_1_2" d="M.20298767 .0009918213C.20298767 .066986087 .17799378 .10598755 .13899231 .10598755 .10598755 .10598755 .085998538 .08099365 .085998538 .052993776 .085998538 .025985718 .10598755 0 .13899231 0 .15098572 0 .1639862 .0039978029 .17399597 .0129852299 .1769867 .01499939 .17799378 .015991211 .1789856 .015991211 .17999268 .015991211 .18099976 .01499939 .18099976 .0009918213 .18099976-.07316589 .1459961-.13328552 .11299133-.16635132 .101989749-.17736817 .101989749-.17936707 .101989749-.18237305 .101989749-.18936157 .10699463-.19335938 .11199951-.19335938 .12298584-.19335938 .20298767-.116256717 .20298767 .0009918213Z"/>
<path id="font_2_7" d="M.13198853 .327713V.35173036C.13198853 .6047821 .2559967 .64100649 .30699159 .64100649 .33099366 .64100649 .37298585 .634964 .394989 .6007538 .37998963 .6007538 .33999635 .6007538 .33999635 .5557556 .33999635 .524765 .3639984 .5097656 .38598634 .5097656 .4019928 .5097656 .43199159 .51875308 .43199159 .5577545 .43199159 .6178589 .3880005 .6660156 .30499269 .6660156 .1769867 .6660156 .041992189 .5367584 .041992189 .31570436 .041992189 .048553468 .1579895-.022460938 .25099183-.022460938 .3619995-.022460938 .45700074 .07156372 .45700074 .2036438 .45700074 .33070375 .36799623 .4267578 .25698854 .4267578 .18899536 .4267578 .1519928 .37573243 .13198853 .327713M.25099183 .0055389406C.18798828 .0055389406 .1579895 .06556702 .1519928 .080566409 .13398743 .127594 .13398743 .2076416 .13398743 .22564698 .13398743 .30369569 .1659851 .40374757 .2559967 .40374757 .27198792 .40374757 .31799317 .40374757 .34899903 .34172059 .36698915 .30470277 .36698915 .2536621 .36698915 .20463562 .36698915 .15661621 .36698915 .10658264 .34999085 .0705719 .31999208 .010528564 .27398683 .0055389406 .25099183 .0055389406Z"/>
<path id="font_2_2" d="M.2889862 .25C.2889862 .32798768 .27799989 .44898988 .22299195 .56199648 .16299439 .68499758 .07699585 .75 .066986087 .75 .06098938 .75 .056991579 .74598696 .056991579 .73999026 .056991579 .7369995 .056991579 .73498538 .07598877 .71699526 .17399597 .6179962 .23098755 .45899964 .23098755 .25 .23098755 .07899475 .19400025-.09700012 .069992069-.2230072 .056991579-.23500061 .056991579-.23701477 .056991579-.2400055 .056991579-.2460022 .06098938-.25 .066986087-.25 .07699585-.25 .16699219-.18200684 .22599793-.055007936 .2769928 .054992677 .2889862 .16600037 .2889862 .25Z"/>
<path id="font_2_8" d="M.68699648 .32714845C.70199587 .32714845 .72099307 .32714845 .72099307 .34713746 .72099307 .36714173 .70199587 .36714173 .6879883 .36714173H.08898926C.07499695 .36714173 .055999757 .36714173 .055999757 .34713746 .055999757 .32714845 .07499695 .32714845 .08999634 .32714845H.68699648M.6879883 .13284302C.70199587 .13284302 .72099307 .13284302 .72099307 .15284729 .72099307 .17285156 .70199587 .17285156 .68699648 .17285156H.08999634C.07499695 .17285156 .055999757 .17285156 .055999757 .15284729 .055999757 .13284302 .07499695 .13284302 .08898926 .13284302H.6879883Z"/>
<path id="font_3_1" d="M.5159912 .31925965C.5159912 .42918397 .5029907 .50813296 .45700074 .5780945 .42599488 .62405398 .3639984 .6640625 .28399659 .6640625 .051986696 .6640625 .051986696 .39120484 .051986696 .31925965 .051986696 .2472992 .051986696-.01953125 .28399659-.01953125 .5159912-.01953125 .5159912 .2472992 .5159912 .31925965M.28399659 .008468628C.23799134 .008468628 .1769867 .035446168 .15699768 .117385867 .14299011 .17634583 .14299011 .25830079 .14299011 .33224488 .14299011 .40519715 .14299011 .4811554 .1579895 .53611758 .1789856 .6150665 .24299622 .63604739 .28399659 .63604739 .33799745 .63604739 .3899994 .6030731 .4079895 .545105 .42399598 .4911499 .4249878 .41918946 .4249878 .33224488 .4249878 .25830079 .4249878 .18434143 .4119873 .12138367 .3919983 .030441285 .32398988 .008468628 .28399659 .008468628Z"/>
<path id="font_4_1" d="M.22698975 .056991579C.22698975 .09298706 .19699097 .114990238 .16999817 .114990238 .13699341 .114990238 .11199951 .08799744 .11199951 .057998659 .11199951 .021987915 .14199829 0 .16899109 0 .20199585 0 .22698975 .026992798 .22698975 .056991579Z"/>
<path id="font_3_2" d="M.33499146 .63612368C.33499146 .6630554 .33299256 .6640625 .30499269 .6640625 .24099732 .6014404 .1499939 .6004486 .10899353 .6004486V.5644531C.1329956 .5644531 .19898987 .5644531 .2539978 .592453V.08203125C.2539978 .04899597 .2539978 .035995485 .1539917 .035995485H.115997318V0C.13398743 .0009918213 .25698854 .0039978029 .2939911 .0039978029 .32499696 .0039978029 .45098878 .0009918213 .47299195 0V.035995485H.43499757C.33499146 .035995485 .33499146 .04899597 .33499146 .08203125V.63612368Z"/>
<path id="font_3_3" d="M.1499939 .3274536C.1499939 .40945436 .15699768 .48303224 .19499207 .543869 .22898865 .5978699 .2829895 .63505557 .34700013 .63505557 .3769989 .63505557 .4169922 .62701418 .43699647 .5998688 .4119873 .5978699 .3909912 .5808716 .3909912 .5518799 .3909912 .5268707 .4079895 .5048828 .43798829 .5048828 .46798707 .5048828 .48599244 .5248718 .48599244 .5538788 .48599244 .6119385 .44400025 .6640625 .34498597 .6640625 .20098877 .6640625 .053985597 .5318756 .053985597 .3174591 .053985597 .05845642 .17599488-.01953125 .28599549-.01953125 .4079895-.01953125 .5139923 .07345581 .5139923 .20445252 .5139923 .33145143 .41299439 .42546083 .29599 .42546083 .21598816 .42546083 .17199707 .37245179 .1499939 .3274536M.28599549 .012466431C.23599243 .012466431 .19699097 .04145813 .17599488 .08546448 .16099549 .11546326 .15299988 .16545105 .15299988 .22544861 .15299988 .32244874 .21099854 .39746095 .29100038 .39746095 .33699037 .39746095 .36799623 .37945558 .3929901 .342453 .4169922 .30445863 .41799928 .26245118 .41799928 .20445252 .41799928 .14746094 .41799928 .10545349 .3909912 .066467288 .36698915 .031463624 .33499146 .012466431 .28599549 .012466431Z"/>
<path id="font_4_2" d="M.57099917 .66430667C.57199099 .66630557 .57499697 .67930606 .57499697 .68029788 .57499697 .68530276 .57099917 .6943054 .5589905 .6943054 .5389862 .6943054 .45599366 .6863098 .43099977 .6843109 .4229889 .68330386 .40899659 .682312 .40899659 .66130068 .40899659 .64730837 .4229889 .64730837 .43499757 .64730837 .48298646 .64730837 .48298646 .64030459 .48298646 .63230898 .48298646 .62532046 .48098756 .61932376 .47898866 .61032107L.42199708 .38238526C.40098573 .41540528 .36698915 .44140626 .31900025 .44140626 .19099427 .44140626 .06098938 .300354 .06098938 .15628052 .06098938 .059249879 .12599182-.009765625 .21199036-.009765625 .2659912-.009765625 .31399537 .021224976 .35398866 .0602417 .37298585 .00022888184 .43099977-.009765625 .45700074-.009765625 .49299623-.009765625 .5179901 .01222229 .5359955 .04324341 .55799868 .08226013 .57099917 .13928223 .57099917 .14328003 .57099917 .15628052 .55799868 .15628052 .5549927 .15628052 .54100039 .15628052 .5399933 .15228272 .5329895 .12527466 .5209961 .07725525 .5019989 .018234253 .45999146 .018234253 .43399049 .018234253 .4269867 .040237428 .4269867 .06724548 .4269867 .086257938 .42900086 .09526062 .43199159 .10826111L.57099917 .66430667M.35798646 .12527466C.35099793 .09725952 .32899476 .07725525 .30699159 .058242799 .2979889 .050247194 .2579956 .018234253 .21499634 .018234253 .17799378 .018234253 .14199829 .04423523 .14199829 .11526489 .14199829 .16828919 .17098999 .27833558 .19400025 .31835938 .23999024 .39839173 .29100038 .4133911 .31900025 .4133911 .3889923 .4133911 .4079895 .33737184 .4079895 .32635499 .4079895 .32235719 .4059906 .3153534 .40499879 .3123474L.35798646 .12527466Z"/>
<path id="font_5_1" d="M.58898928 .19296265H.5469971C.5439911 .17396546 .5339966 .11198425 .5179901 .101989749 .5099945 .09599304 .42599488 .09599304 .41099549 .09599304H.21499634C.2809906 .14497376 .35499574 .20095825 .4149933 .24093628 .5049896 .30291749 .58898928 .36090089 .58898928 .46687318 .58898928 .59495547 .46798707 .6660156 .32499696 .6660156 .18998719 .6660156 .09098816 .58795168 .09098816 .48986817 .09098816 .4378662 .1349945 .42886354 .14898682 .42886354 .17599488 .42886354 .20799256 .4468689 .20799256 .48786927 .20799256 .52386477 .18199158 .543869 .15098572 .546875 .1789856 .59194949 .23699951 .6220093 .3039856 .6220093 .40098573 .6220093 .48199464 .5639038 .48199464 .4658661 .48199464 .3818817 .42399598 .31791688 .34700013 .2529297L.102996829 .04598999C.09298706 .036987306 .09199524 .036987306 .09098816 .02999878V0H.55599978L.58898928 .19296265Z"/>
</defs>
<path transform="matrix(1.00005,0,0,-1.00006,23.386467,146.66808)" stroke-width=".3985" stroke-linecap="butt" stroke-miterlimit="10" stroke-linejoin="miter" fill="none" stroke="#00aeef" d="M0 0H76.53586M0 12.75595H76.53586M0 25.51193H76.53586M0 38.26791H76.53586M0 51.0239H76.53586M0 63.77988H76.53586M0 76.53586H76.53586M0 89.29184H76.53586M0 102.0478H76.53586M0 114.80379H76.53586M0 127.55528H76.53586M0 0V127.55977M12.75595 0V127.55977M25.51193 0V127.55977M38.26791 0V127.55977M51.0239 0V127.55977M63.77988 0V127.55977M76.53137 0V127.55977M76.53586 127.55977"/>
<path transform="matrix(1.00005,0,0,-1.00006,23.386467,146.66808)" stroke-width=".79701" stroke-linecap="butt" stroke-miterlimit="10" stroke-linejoin="miter" fill="none" stroke="#000000" d="M0 0H82.7549"/>
<path transform="matrix(1.00005,0,0,-1.00006,106.1455,146.66808)" d="M1.0361 0C-.25902 .25902-1.55415 .77707-3.1083 1.68365-1.55415 .51805-1.55415-.51805-3.1083-1.68365-1.55415-.77707-.25902-.25902 1.0361 0Z"/>
<path transform="matrix(1.00005,0,0,-1.00006,106.1455,146.66808)" stroke-width=".79701" stroke-linecap="butt" stroke-linejoin="round" fill="none" stroke="#000000" d="M1.0361 0C-.25902 .25902-1.55415 .77707-3.1083 1.68365-1.55415 .51805-1.55415-.51805-3.1083-1.68365-1.55415-.77707-.25902-.25902 1.0361 0Z"/>
<use data-text="d" xlink:href="#font_1_4" transform="matrix(9.963098,0,0,-9.963197,111.29986,150.12729)"/>
<path transform="matrix(1.00005,0,0,-1.00006,23.386467,146.66808)" stroke-width=".79701" stroke-linecap="butt" stroke-miterlimit="10" stroke-linejoin="miter" fill="none" stroke="#000000" d="M0 0V133.77881"/>
<path transform="matrix(0,-1.00006,-1.00005,-0,23.386467,12.881241)" d="M1.0361 0C-.25902 .25902-1.55415 .77707-3.1083 1.68365-1.55415 .51805-1.55415-.51805-3.1083-1.68365-1.55415-.77707-.25902-.25902 1.0361 0Z"/>
<path transform="matrix(0,-1.00006,-1.00005,-0,23.386467,12.881241)" stroke-width=".79701" stroke-linecap="butt" stroke-linejoin="round" fill="none" stroke="#000000" d="M1.0361 0C-.25902 .25902-1.55415 .77707-3.1083 1.68365-1.55415 .51805-1.55415-.51805-3.1083-1.68365-1.55415-.77707-.25902-.25902 1.0361 0Z"/>
<use data-text="I" xlink:href="#font_1_3" transform="matrix(9.963098,0,0,-9.963197,20.805336,7.7267458)"/>
<path transform="matrix(1.00005,0,0,-1.00006,23.386467,146.66808)" stroke-width=".3985" stroke-linecap="butt" stroke-miterlimit="10" stroke-linejoin="miter" fill="none" stroke="#000000" d="M63.77988 1.27565V-1.27547"/>
<path transform="matrix(1.00005,0,0,-1.00006,23.386467,146.66808)" d="M60.29291-11.88026H67.26685V-3.4672805H60.29291Z" fill="#ffffff"/>
<use data-text="5" xlink:href="#font_2_6" transform="matrix(9.963098,0,0,-9.963197,84.67853,157.55274)"/>
<path transform="matrix(1.00005,0,0,-1.00006,23.386467,146.66808)" stroke-width=".3985" stroke-linecap="butt" stroke-miterlimit="10" stroke-linejoin="miter" fill="none" stroke="#000000" d="M1.27565 63.77988H-1.27547"/>
<path transform="matrix(1.00005,0,0,-1.00006,23.386467,146.66808)" d="M-23.17148 59.57338H-3.4672795V67.98636H-23.17148Z" fill="#ffffff"/>
<use data-text="0" xlink:href="#font_2_3" transform="matrix(9.963098,0,0,-9.963197,1.2103577,86.094448)"/>
<use data-text="." xlink:href="#font_1_1" transform="matrix(9.963098,0,0,-9.963197,6.1926119,86.094448)"/>
<use data-text="0" xlink:href="#font_2_3" transform="matrix(9.963098,0,0,-9.963197,8.959747,86.094448)"/>
<use data-text="1" xlink:href="#font_2_4" transform="matrix(9.963098,0,0,-9.963197,13.941292,86.094448)"/>
<path transform="matrix(1.00005,0,0,-1.00006,23.386467,146.66808)" stroke-width=".3985" stroke-linecap="butt" stroke-miterlimit="10" stroke-linejoin="miter" fill="none" stroke="#000000" d="M1.27565 127.55977H-1.27547"/>
<path transform="matrix(1.00005,0,0,-1.00006,23.386467,146.66808)" d="M-23.17148 123.35327H-3.4672795V131.76625H-23.17148Z" fill="#ffffff"/>
<use data-text="0" xlink:href="#font_2_3" transform="matrix(9.963098,0,0,-9.963197,1.2103577,22.310624)"/>
<use data-text="." xlink:href="#font_1_1" transform="matrix(9.963098,0,0,-9.963197,6.1926119,22.310624)"/>
<use data-text="0" xlink:href="#font_2_3" transform="matrix(9.963098,0,0,-9.963197,8.959747,22.310624)"/>
<use data-text="2" xlink:href="#font_2_5" transform="matrix(9.963098,0,0,-9.963197,13.941292,22.310624)"/>
<path transform="matrix(1.00005,0,0,-1.00006,23.386467,146.66808)" stroke-width="1.19553" stroke-linecap="butt" stroke-miterlimit="10" stroke-linejoin="miter" fill="none" stroke="#ff0000" d="M11.50032 125.6953C12.14445 112.47147 12.14445 112.47147 12.42682 107.51799 12.7092 102.56451 13.16203 95.76721 13.44441 91.86479 13.72678 87.96234 14.17963 82.52328 14.46199 79.392 14.74435 76.26074 15.1972 71.84697 15.47957 69.29677 15.76193 66.74655 16.21478 63.11644 16.49715 61.01189 16.77953 58.90733 17.23236 55.88591 17.51474 54.12862 17.7971 52.37129 18.24995 49.82872 18.53232 48.34642 18.8147 46.86412 19.26753 44.70688 19.5499 43.44516 19.83226 42.18344 20.2851 40.33585 20.56747 39.25279 20.84984 38.16974 21.30269 36.57597 21.58505 35.6393 21.86743 34.7026 22.32027 33.31732 22.60265 32.50186 22.88501 31.68643 23.33786 30.47633 23.62022 29.76212 23.90259 29.04788 24.35544 27.98337 24.6378 27.35422 24.92017 26.72505 25.37302 25.78468 25.65538 25.22757 25.93776 24.67046 26.3906 23.83458 26.67297 23.33897 26.95534 22.84335 27.40819 22.0983 27.69055 21.65552 27.97293 21.21272 28.42577 20.545 28.70815 20.14764 28.9905 19.75027 29.44334 19.14949 29.72571 18.79158 30.00809 18.43367 30.46092 17.8915 30.7433 17.56807 31.02567 17.24464 31.47852 16.75381 31.76088 16.46056 32.04326 16.16731 32.4961 15.72125 32.77847 15.45447 33.06084 15.18767 33.51369 14.78107 33.79604 14.5377 34.07841 14.29433 34.53125 13.92299 34.81363 13.70035 35.096 13.47772 35.54884 13.13727 35.8312 12.93307 36.11359 12.72888 36.56642 12.41637 36.8488 12.22868 37.13116 12.041 37.584 11.7533 37.86638 11.58032 38.14873 11.40736 38.6016 11.1417 38.88394 10.98201 39.16632 10.82231 39.61916 10.5772 39.90154 10.42941 40.1839 10.28163 40.63675 10.054 40.91911 9.91693 41.20149 9.77985 41.65433 9.56873 41.9367 9.44142 42.21907 9.31412 42.67192 9.11786 42.95427 8.99939 43.23665 8.88092 43.68948 8.69792 43.97186 8.58752 44.25423 8.47713 44.70708 8.30675 44.98944 8.2037 45.27182 8.10066 45.72466 7.9412 46.00703 7.84479 46.2894 7.74838 46.74225 7.59908 47.02461 7.50882 47.30698 7.41858 47.75983 7.27893 48.04219 7.1943 48.32455 7.10965 48.7774 6.97833 49.05977 6.89883 49.34215 6.81932 49.79498 6.69603 50.07736 6.62128 50.35973 6.54652 50.81258 6.4304 51.09494 6.36006 51.37732 6.28972 51.83015 6.18053 52.11253 6.11423 52.39488 6.04794 52.84773 5.9448 53.1301 5.88222 53.41248 5.81966 53.86531 5.72237 54.14769 5.66325 54.43005 5.60414 54.8829 5.51205 55.16527 5.45615 55.44765 5.40025 55.90048 5.31323 56.18285 5.26035 56.46521 5.20744 56.91806 5.12497 57.20042 5.07486 57.48279 5.02473 57.93564 4.94662 58.218 4.8991 58.50038 4.85155 58.95322 4.77742 59.2356 4.73228 59.51796 4.68713 59.97081 4.61656 60.25317 4.57364 60.53555 4.53075 60.98839 4.46378 61.27077 4.423 61.55312 4.38222 62.00598 4.31854 62.28833 4.27974 62.57071 4.24094 63.02354 4.1803 63.30592 4.14331 63.58829 4.10631 64.04114 4.04836 64.3235 4.01309 64.60588 3.97781 65.05872 3.92271 65.3411 3.8891 65.62346 3.85548 66.07631 3.80286 66.35866 3.77077 66.64104 3.73866 67.09387 3.68834 67.37625 3.65767 67.65862 3.62698 68.11147 3.57895 68.39383 3.54964 68.67621 3.52034 69.12904 3.47452 69.41142 3.44647 69.69379 3.41846 70.14664 3.37447 70.429 3.34761 70.71136 3.32074 71.16422 3.27856 71.44658 3.25282 71.72894 3.22708 72.1818 3.18677 72.46416 3.16211 72.74654 3.13747 73.19937 3.09874 73.48175 3.0751 73.76411 3.05148 74.21695 3.01447 74.49933 2.9918 74.7817 2.96915 75.23454 2.9336 75.5169 2.9118 75.79927 2.89003 76.53448 2.83472 74.66689 2.97516"/>
<path transform="matrix(-.048632429,-.9988399,-.9988299,.048632917,34.88736,20.965256)" d="M1.27522 0C-.31879 .31879-1.91284 .9564-3.8257 2.07224-1.91284 .6376-1.91284-.6376-3.8257-2.07224-1.91284-.9564-.31879-.31879 1.27522 0Z" fill="#ff0000"/>
<path transform="matrix(-.048632429,-.9988399,-.9988299,.048632917,34.88736,20.965256)" stroke-width="1.19553" stroke-linecap="butt" stroke-linejoin="round" fill="none" stroke="#ff0000" d="M1.27522 0C-.31879 .31879-1.91284 .9564-3.8257 2.07224-1.91284 .6376-1.91284-.6376-3.8257-2.07224-1.91284-.9564-.31879-.31879 1.27522 0Z"/>
<path transform="matrix(.9971798,.07498449,.074983749,-.99718979,98.05709,143.69274)" d="M1.27522 0C-.31879 .31879-1.91284 .9564-3.8257 2.07224-1.91284 .6376-1.91284-.6376-3.8257-2.07224-1.91284-.9564-.31879-.31879 1.27522 0Z" fill="#ff0000"/>
<path transform="matrix(.9971798,.07498449,.074983749,-.99718979,98.05709,143.69274)" stroke-width="1.19553" stroke-linecap="butt" stroke-linejoin="round" fill="none" stroke="#ff0000" d="M1.27522 0C-.31879 .31879-1.91284 .9564-3.8257 2.07224-1.91284 .6376-1.91284-.6376-3.8257-2.07224-1.91284-.9564-.31879-.31879 1.27522 0Z"/>
<path transform="matrix(1.00005,0,0,-1.00006,23.386467,146.66808)" d="M14.03162 102.0478C14.03162 102.75233 13.4605 103.32346 12.75595 103.32346 12.05142 103.32346 11.4803 102.75233 11.4803 102.0478 11.4803 101.34326 12.05142 100.77214 12.75595 100.77214 13.4605 100.77214 14.03162 101.34326 14.03162 102.0478ZM12.75595 102.0478" fill="#ff0000"/>
<path transform="matrix(1.00005,0,0,-1.00006,23.386467,146.66808)" stroke-width=".3985" stroke-linecap="butt" stroke-miterlimit="10" stroke-linejoin="miter" fill="none" stroke="#ff0000" d="M14.03162 102.0478C14.03162 102.75233 13.4605 103.32346 12.75595 103.32346 12.05142 103.32346 11.4803 102.75233 11.4803 102.0478 11.4803 101.34326 12.05142 100.77214 12.75595 100.77214 13.4605 100.77214 14.03162 101.34326 14.03162 102.0478ZM12.75595 102.0478"/>
<path transform="matrix(1.00005,0,0,-1.00006,23.386467,146.66808)" d="M16.94032 95.07387H60.77655V109.02174H16.94032Z" fill="#ffffff"/>
<use data-text="(" xlink:href="#font_2_1" transform="matrix(9.963098,0,0,-9.963197,42.32041,47.10511)" fill="#ff0000"/>
<use data-text="1" xlink:href="#font_2_4" transform="matrix(9.963098,0,0,-9.963197,46.18609,47.10511)" fill="#ff0000"/>
<use data-text="," xlink:href="#font_1_2" transform="matrix(9.963098,0,0,-9.963197,51.176858,47.10511)" fill="#ff0000"/>
<use data-text="0" xlink:href="#font_2_3" transform="matrix(9.963098,0,0,-9.963197,55.60508,47.10511)" fill="#ff0000"/>
<use data-text="." xlink:href="#font_1_1" transform="matrix(9.963098,0,0,-9.963197,60.586336,47.10511)" fill="#ff0000"/>
<use data-text="0" xlink:href="#font_2_3" transform="matrix(9.963098,0,0,-9.963197,63.354478,47.10511)" fill="#ff0000"/>
<use data-text="1" xlink:href="#font_2_4" transform="matrix(9.963098,0,0,-9.963197,68.33601,47.10511)" fill="#ff0000"/>
<use data-text="6" xlink:href="#font_2_7" transform="matrix(9.963098,0,0,-9.963197,73.317569,47.10511)" fill="#ff0000"/>
<use data-text=")" xlink:href="#font_2_2" transform="matrix(9.963098,0,0,-9.963197,78.2991,47.10511)" fill="#ff0000"/>
<path transform="matrix(1.00005,0,0,-1.00006,23.386467,146.66808)" d="M29.48775 68.61703H72.56006V84.45466H29.48775Z" fill="#ffffff"/>
<use data-text="I" xlink:href="#font_1_3" transform="matrix(9.963098,0,0,-9.963197,54.86804,72.61864)"/>
<use data-text="=" xlink:href="#font_2_8" transform="matrix(9.963098,0,0,-9.963197,62.797437,72.61864)"/>
<use data-text="0" xlink:href="#font_3_1" transform="matrix(6.9741489,0,0,-6.9742186,74.50902,68.695407)"/>
<use data-text="." xlink:href="#font_4_1" transform="matrix(6.9741489,0,0,-6.9742186,78.48122,68.695407)"/>
<use data-text="0" xlink:href="#font_3_1" transform="matrix(6.9741489,0,0,-6.9742186,80.847339,68.695407)"/>
<use data-text="1" xlink:href="#font_3_2" transform="matrix(6.9741489,0,0,-6.9742186,84.81563,68.695407)"/>
<use data-text="6" xlink:href="#font_3_3" transform="matrix(6.9741489,0,0,-6.9742186,88.78392,68.695407)"/>
<path transform="matrix(1.00005,0,0,-1.00006,-54.522428,-62.05844)" stroke-width=".3985" stroke-linecap="butt" stroke-miterlimit="10" stroke-linejoin="miter" fill="none" stroke="#000000" d="M129.025-132.178H147.277"/>
<use data-text="d" xlink:href="#font_4_2" transform="matrix(6.9741489,0,0,-6.9742186,79.61726,76.05385)"/>
<use data-text="2" xlink:href="#font_5_1" transform="matrix(4.981549,0,0,-4.9815986,83.76547,74.06172)"/>
</svg>
