<svg xmlns="http://www.w3.org/2000/svg" xmlns:xlink="http://www.w3.org/1999/xlink" version="1.1" width="234" height="224" viewBox="0 0 234 224">
<defs>
<path id="font_1_1" d="M.33399964 .30233766C.33999635 .32835389 .36299134 .42037965 .43299867 .42037965 .43798829 .42037965 .46199037 .42037965 .48298646 .40734864 .45498658 .402359 .43499757 .37734986 .43499757 .35334779 .43499757 .33735658 .44599916 .31835938 .47299195 .31835938 .49499513 .31835938 .5269928 .3363495 .5269928 .37635804 .5269928 .42837525 .46798707 .4423828 .43399049 .4423828 .37599183 .4423828 .34098817 .38935853 .32899476 .36634828 .3039856 .43237306 .25 .4423828 .22099304 .4423828 .116989139 .4423828 .05999756 .3133545 .05999756 .28834535 .05999756 .27833558 .069992069 .27833558 .07199097 .27833558 .07998657 .27833558 .08299255 .28033448 .084991458 .28933717 .11898804 .39535523 .18499756 .42037965 .21899414 .42037965 .23799134 .42037965 .272995 .4113617 .272995 .35334779 .272995 .32235719 .2559967 .25532533 .21899414 .11528015 .20298767 .053268434 .16799927 .011245728 .12399292 .011245728 .117996219 .011245728 .09498596 .011245728 .07398987 .024276734 .09899902 .029266358 .12098694 .05027771 .12098694 .07827759 .12098694 .105270389 .09899902 .11328125 .083999637 .11328125 .053985597 .11328125 .0289917 .08728027 .0289917 .055267335 .0289917 .009246826 .07899475-.0107421879 .12298584-.0107421879 .18899536-.0107421879 .22499085 .059280397 .22799683 .0652771 .23999024 .028274537 .27598573-.0107421879 .33599855-.0107421879 .43899537-.0107421879 .49598695 .118270877 .49598695 .14328003 .49598695 .1532898 .4869995 .1532898 .48399354 .1532898 .47499085 .1532898 .47299195 .14929199 .47099305 .14228821 .43798829 .03527832 .36999513 .011245728 .33799745 .011245728 .29899598 .011245728 .2829895 .043273927 .2829895 .07727051 .2829895 .09927368 .2889862 .121276859 .2999878 .16529846L.33399964 .30233766Z"/>
<path id="font_1_2" d="M.48599244 .38136292C.48999024 .39537049 .48999024 .39736939 .48999024 .40437318 .48999024 .42237855 .47599793 .43138124 .46099855 .43138124 .45098878 .43138124 .43499757 .42536927 .42599488 .41036988 .42399598 .405365 .41600038 .37435914 .4119873 .35635377 .40499879 .33035279 .397995 .30334474 .3919983 .27633668L.34700013 .09628296C.34298707 .08126831 .2999878 .011245728 .23399353 .011245728 .18299866 .011245728 .17199707 .055267335 .17199707 .0922699 .17199707 .1382904 .18899536 .20030213 .22299195 .28833009 .23899842 .3293457 .24299622 .3403473 .24299622 .36035157 .24299622 .405365 .21099854 .4423828 .16099549 .4423828 .06599426 .4423828 .0289917 .29733277 .0289917 .28833009 .0289917 .27833558 .038986207 .27833558 .040985109 .27833558 .050994874 .27833558 .051986696 .28033448 .056991579 .29634095 .083999637 .3903656 .12399292 .42037965 .1579895 .42037965 .1659851 .42037965 .18299866 .42037965 .18299866 .3883667 .18299866 .36335755 .17298889 .3373413 .1659851 .31834413 .12599182 .21231079 .10798645 .1552887 .10798645 .10827637 .10798645 .019256592 .17098999-.0107421879 .22999573-.0107421879 .2689972-.0107421879 .30299378 .0062561037 .33099366 .03425598 .31799317-.017745972 .30599977-.06674194 .2659912-.11973572 .23999024-.15385437 .20199585-.18309021 .1559906-.18309021 .14199829-.18309021 .09700012-.18005371 .07998657-.14074707 .09599304-.14074707 .10899353-.14074707 .12298584-.1287384 .1329956-.11973572 .14299011-.10673523 .14299011-.08773804 .14299011-.056747438 .115997318-.052734376 .10598755-.052734376 .08299255-.052734376 .049987794-.068740848 .049987794-.11773682 .049987794-.16796875 .09399414-.20507813 .1559906-.20507813 .25898744-.20507813 .3619995-.11373901 .3899994-.00074768069L.48599244 .38136292Z"/>
<path id="font_2_1" d="M.6589966 .23046875C.6759949 .23046875 .69400027 .23046875 .69400027 .25045777 .69400027 .27046205 .6759949 .27046205 .6589966 .27046205H.117996219C.100997928 .27046205 .08299255 .27046205 .08299255 .25045777 .08299255 .23046875 .100997928 .23046875 .117996219 .23046875H.6589966Z"/>
<path id="font_3_3" d="M.44898988 .20022583C.44898988 .3193512 .36698915 .41944886 .25898744 .41944886 .21099854 .41944886 .16799927 .40345765 .13198853 .36842347V.5637665C.1519928 .5577698 .18499756 .55078127 .21699524 .55078127 .33999635 .55078127 .4099884 .6417694 .4099884 .6547699 .4099884 .6607666 .40699769 .6657715 .3999939 .6657715 .39898683 .6657715 .39698792 .6657715 .3919983 .66278079 .37199403 .6537781 .32299806 .6337738 .2559967 .6337738 .21598816 .6337738 .16999817 .6407776 .12298584 .6617737 .114990238 .66477969 .11299133 .66477969 .11099243 .66477969 .100997928 .66477969 .100997928 .6567688 .100997928 .6407776V.34439088C.100997928 .32637025 .100997928 .31835938 .114990238 .31835938 .12199402 .31835938 .12399292 .32136537 .12799073 .32736207 .13899231 .3433838 .17599488 .39746095 .25698854 .39746095 .30899049 .39746095 .33399964 .35139466 .34199525 .33337403 .35798646 .29632569 .3600006 .25727845 .3600006 .20722962 .3600006 .17222595 .3600006 .11222839 .33599855 .07035828 .31199647 .031463624 .2749939 .0055389406 .22898865 .0055389406 .1559906 .0055389406 .09899902 .058380128 .08198547 .11723328 .084991458 .1162262 .08799744 .115234378 .09899902 .115234378 .13198853 .115234378 .14898682 .14022827 .14898682 .16423035 .14898682 .18823242 .13198853 .21322632 .09899902 .21322632 .084991458 .21322632 .049987794 .20622254 .049987794 .16023255 .049987794 .07434082 .11898804-.022460938 .23098755-.022460938 .34700013-.022460938 .44898988 .073349 .44898988 .20022583Z"/>
<path id="font_3_2" d="M.2939911 .64004519C.2939911 .66400149 .2939911 .6660156 .2709961 .6660156 .20899964 .60227969 .12098694 .60227969 .08898926 .60227969V.57128909C.10899353 .57128909 .16799927 .57128909 .21998596 .5972748V.07902527C.21998596 .042999269 .21699524 .0309906 .1269989 .0309906H.09498596V0C.12998963 .0029907227 .21699524 .0029907227 .25698854 .0029907227 .29699708 .0029907227 .38398744 .0029907227 .4189911 0V.0309906H.3869934C.29699708 .0309906 .2939911 .041992189 .2939911 .07902527V.64004519Z"/>
<path id="font_3_1" d="M.45999146 .31976319C.45999146 .39982606 .45498658 .47988893 .41999818 .5539398 .37399293 .65000918 .2919922 .6660156 .25 .6660156 .18998719 .6660156 .116989139 .64001467 .07598877 .54693606 .04399109 .47789 .038986207 .39982606 .038986207 .31976319 .038986207 .24472046 .042999269 .15464783 .083999637 .07859802 .1269989-.0024719239 .19999695-.022460938 .24899292-.022460938 .30299378-.022460938 .3789978-.0014648438 .4229889 .09359741 .45498658 .16265869 .45999146 .2407074 .45999146 .31976319M.24899292-.00047302247C.20999146-.00047302247 .15098572 .024551392 .1329956 .12062073 .12199402 .18066406 .12199402 .2727356 .12199402 .3317871 .12199402 .39582826 .12199402 .46188355 .12998963 .5159149 .14898682 .63500979 .22399903 .64401248 .24899292 .64401248 .28199769 .64401248 .34799195 .6259918 .36698915 .52693179 .3769989 .47088624 .3769989 .39482118 .3769989 .3317871 .3769989 .25672914 .3769989 .18867493 .3659973 .12461853 .35099793 .029556275 .2939911-.00047302247 .24899292-.00047302247Z"/>
</defs>
<path transform="matrix(1,0,0,-1,108.28,120.122)" stroke-width=".3985" stroke-linecap="butt" stroke-miterlimit="10" stroke-linejoin="miter" fill="none" stroke="#00aeef" d="M-99.21555-99.21555H99.21555M-99.21555-89.29399H99.21555M-99.21555-79.37244H99.21555M-99.21555-69.45088H99.21555M-99.21555-59.52933H99.21555M-99.21555-49.60777H99.21555M-99.21555-39.68622H99.21555M-99.21555-29.76466H99.21555M-99.21555-19.84311H99.21555M-99.21555-9.92155H99.21555M-99.21555 0H99.21555M-99.21555 9.92155H99.21555M-99.21555 19.84311H99.21555M-99.21555 29.76466H99.21555M-99.21555 39.68622H99.21555M-99.21555 49.60777H99.21555M-99.21555 59.52933H99.21555M-99.21555 69.45088H99.21555M-99.21555 79.37244H99.21555M-99.21555 89.29399H99.21555M-99.21555 99.21207H99.21555M-99.21555-99.21555V99.21555M-89.29399-99.21555V99.21555M-79.37244-99.21555V99.21555M-69.45088-99.21555V99.21555M-59.52933-99.21555V99.21555M-49.60777-99.21555V99.21555M-39.68622-99.21555V99.21555M-29.76466-99.21555V99.21555M-19.84311-99.21555V99.21555M-9.92155-99.21555V99.21555M0-99.21555V99.21555M9.92155-99.21555V99.21555M19.84311-99.21555V99.21555M29.76466-99.21555V99.21555M39.68622-99.21555V99.21555M49.60777-99.21555V99.21555M59.52933-99.21555V99.21555M69.45088-99.21555V99.21555M79.37244-99.21555V99.21555M89.29399-99.21555V99.21555M99.21207-99.21555V99.21555M99.21555 99.21555"/>
<path transform="matrix(1,0,0,-1,108.28,120.122)" stroke-width=".79701" stroke-linecap="butt" stroke-miterlimit="10" stroke-linejoin="miter" fill="none" stroke="#000000" d="M-99.21555 0H113.65549"/>
<path transform="matrix(1,0,0,-1,221.93549,120.122)" d="M1.0361 0C-.25902 .25902-1.55415 .77707-3.1083 1.68365-1.55415 .51805-1.55415-.51805-3.1083-1.68365-1.55415-.77707-.25902-.25902 1.0361 0Z"/>
<path transform="matrix(1,0,0,-1,221.93549,120.122)" stroke-width=".79701" stroke-linecap="butt" stroke-linejoin="round" fill="none" stroke="#000000" d="M1.0361 0C-.25902 .25902-1.55415 .77707-3.1083 1.68365-1.55415 .51805-1.55415-.51805-3.1083-1.68365-1.55415-.77707-.25902-.25902 1.0361 0Z"/>
<use data-text="x" xlink:href="#font_1_1" transform="matrix(9.9626,0,0,-9.9626,227.08899,122.267)"/>
<path transform="matrix(1,0,0,-1,108.28,120.122)" stroke-width=".79701" stroke-linecap="butt" stroke-miterlimit="10" stroke-linejoin="miter" fill="none" stroke="#000000" d="M0-99.21555V113.65549"/>
<path transform="matrix(0,-1,-1,-0,108.28,6.4665148)" d="M1.0361 0C-.25902 .25902-1.55415 .77707-3.1083 1.68365-1.55415 .51805-1.55415-.51805-3.1083-1.68365-1.55415-.77707-.25902-.25902 1.0361 0Z"/>
<path transform="matrix(0,-1,-1,-0,108.28,6.4665148)" stroke-width=".79701" stroke-linecap="butt" stroke-linejoin="round" fill="none" stroke="#000000" d="M1.0361 0C-.25902 .25902-1.55415 .77707-3.1083 1.68365-1.55415 .51805-1.55415-.51805-3.1083-1.68365-1.55415-.77707-.25902-.25902 1.0361 0Z"/>
<use data-text="y" xlink:href="#font_1_2" transform="matrix(9.9626,0,0,-9.9626,101.311,6.208)"/>
<path transform="matrix(1,0,0,-1,108.28,120.122)" stroke-width="1.19553" stroke-linecap="butt" stroke-miterlimit="10" stroke-linejoin="miter" fill="none" stroke="#00aeef" d="M-49.60777-99.21555V99.21555"/>
<path transform="matrix(1,0,0,-1,108.28,120.122)" stroke-width="1.19553" stroke-linecap="butt" stroke-miterlimit="10" stroke-linejoin="miter" fill="none" stroke="#00aeef" d="M-99.21555-49.60777H99.21555"/>
<path transform="matrix(1,0,0,-1,108.28,120.122)" stroke-width=".3985" stroke-linecap="butt" stroke-miterlimit="10" stroke-linejoin="miter" fill="none" stroke="#000000" d="M-49.60777 1.48816V-1.48831"/>
<path transform="matrix(1,0,0,-1,108.28,120.122)" d="M-56.96916-12.92334H-42.246377V-3.68011H-56.96916Z" fill="#ffffff"/>
<use data-text="&#x2212;" xlink:href="#font_2_1" transform="matrix(9.9626,0,0,-9.9626,52.307008,131.219)"/>
<use data-text="5" xlink:href="#font_3_3" transform="matrix(9.9626,0,0,-9.9626,60.056,131.219)"/>
<path transform="matrix(1,0,0,-1,108.28,120.122)" stroke-width=".3985" stroke-linecap="butt" stroke-miterlimit="10" stroke-linejoin="miter" fill="none" stroke="#000000" d="M1.48816-49.60777H-1.48831"/>
<path transform="matrix(1,0,0,-1,108.28,120.122)" d="M-18.4029-54.22939H-3.6801205V-44.98616H-18.4029Z" fill="#ffffff"/>
<use data-text="&#x2212;" xlink:href="#font_2_1" transform="matrix(9.9626,0,0,-9.9626,90.873,172.525)"/>
<use data-text="5" xlink:href="#font_3_3" transform="matrix(9.9626,0,0,-9.9626,98.621997,172.525)"/>
<path transform="matrix(1,0,0,-1,108.28,120.122)" stroke-width="1.19553" stroke-linecap="butt" stroke-miterlimit="10" stroke-linejoin="miter" fill="none" stroke="#00aeef" d="M49.60777-99.21555V99.21555"/>
<path transform="matrix(1,0,0,-1,108.28,120.122)" stroke-width="1.19553" stroke-linecap="butt" stroke-miterlimit="10" stroke-linejoin="miter" fill="none" stroke="#00aeef" d="M-99.21555 49.60777H99.21555"/>
<path transform="matrix(1,0,0,-1,108.28,120.122)" stroke-width=".3985" stroke-linecap="butt" stroke-miterlimit="10" stroke-linejoin="miter" fill="none" stroke="#000000" d="M49.60777 1.48816V-1.48831"/>
<path transform="matrix(1,0,0,-1,108.28,120.122)" d="M46.1208-12.09311H53.09474V-3.68013H46.1208Z" fill="#ffffff"/>
<use data-text="5" xlink:href="#font_3_3" transform="matrix(9.9626,0,0,-9.9626,155.397,131.219)"/>
<path transform="matrix(1,0,0,-1,108.28,120.122)" stroke-width=".3985" stroke-linecap="butt" stroke-miterlimit="10" stroke-linejoin="miter" fill="none" stroke="#000000" d="M1.48816 49.60777H-1.48831"/>
<path transform="matrix(1,0,0,-1,108.28,120.122)" d="M-10.65405 45.40128H-3.68011V53.81426H-10.65405Z" fill="#ffffff"/>
<use data-text="5" xlink:href="#font_3_3" transform="matrix(9.9626,0,0,-9.9626,98.622,73.724)"/>
<path transform="matrix(1,0,0,-1,108.28,120.122)" stroke-width="1.19553" stroke-linecap="butt" stroke-miterlimit="10" stroke-linejoin="miter" fill="none" stroke="#00aeef" d="M-99.21555-99.21555V99.21555"/>
<path transform="matrix(1,0,0,-1,108.28,120.122)" stroke-width="1.19553" stroke-linecap="butt" stroke-miterlimit="10" stroke-linejoin="miter" fill="none" stroke="#00aeef" d="M-99.21555-99.21555H99.21555"/>
<path transform="matrix(1,0,0,-1,108.28,120.122)" stroke-width=".3985" stroke-linecap="butt" stroke-miterlimit="10" stroke-linejoin="miter" fill="none" stroke="#000000" d="M-99.21555 1.48816V-1.48831"/>
<path transform="matrix(1,0,0,-1,108.28,120.122)" d="M-109.06766-12.92334H-89.36346V-3.68011H-109.06766Z" fill="#ffffff"/>
<use data-text="&#x2212;" xlink:href="#font_2_1" transform="matrix(9.9626,0,0,-9.9626,.20899964,131.219)"/>
<use data-text="1" xlink:href="#font_3_2" transform="matrix(9.9626,0,0,-9.9626,7.9579927,131.219)"/>
<use data-text="0" xlink:href="#font_3_1" transform="matrix(9.9626,0,0,-9.9626,12.939285,131.219)"/>
<path transform="matrix(1,0,0,-1,108.28,120.122)" stroke-width=".3985" stroke-linecap="butt" stroke-miterlimit="10" stroke-linejoin="miter" fill="none" stroke="#000000" d="M1.48816-99.21555H-1.48831"/>
<path transform="matrix(1,0,0,-1,108.28,120.122)" d="M-23.38431-103.83717H-3.680109V-94.59394H-23.38431Z" fill="#ffffff"/>
<use data-text="&#x2212;" xlink:href="#font_2_1" transform="matrix(9.9626,0,0,-9.9626,85.892,222.133)"/>
<use data-text="1" xlink:href="#font_3_2" transform="matrix(9.9626,0,0,-9.9626,93.64099,222.133)"/>
<use data-text="0" xlink:href="#font_3_1" transform="matrix(9.9626,0,0,-9.9626,98.622287,222.133)"/>
<path transform="matrix(1,0,0,-1,108.28,120.122)" stroke-width="1.19553" stroke-linecap="butt" stroke-miterlimit="10" stroke-linejoin="miter" fill="none" stroke="#00aeef" d="M99.21555-99.21555V99.21555"/>
<path transform="matrix(1,0,0,-1,108.28,120.122)" stroke-width="1.19553" stroke-linecap="butt" stroke-miterlimit="10" stroke-linejoin="miter" fill="none" stroke="#00aeef" d="M-99.21555 99.21555H99.21555"/>
<path transform="matrix(1,0,0,-1,108.28,120.122)" stroke-width=".3985" stroke-linecap="butt" stroke-miterlimit="10" stroke-linejoin="miter" fill="none" stroke="#000000" d="M99.21555 1.48816V-1.48831"/>
<path transform="matrix(1,0,0,-1,108.28,120.122)" d="M93.23787-12.09311H105.19321V-3.68013H93.23787Z" fill="#ffffff"/>
<use data-text="1" xlink:href="#font_3_2" transform="matrix(9.9626,0,0,-9.9626,202.514,131.219)"/>
<use data-text="0" xlink:href="#font_3_1" transform="matrix(9.9626,0,0,-9.9626,207.4953,131.219)"/>
<path transform="matrix(1,0,0,-1,108.28,120.122)" stroke-width=".3985" stroke-linecap="butt" stroke-miterlimit="10" stroke-linejoin="miter" fill="none" stroke="#000000" d="M1.48816 99.21555H-1.48831"/>
<path transform="matrix(1,0,0,-1,108.28,120.122)" d="M-15.63547 95.00906H-3.68013V103.42204H-15.63547Z" fill="#ffffff"/>
<use data-text="1" xlink:href="#font_3_2" transform="matrix(9.9626,0,0,-9.9626,93.641,24.117005)"/>
<use data-text="0" xlink:href="#font_3_1" transform="matrix(9.9626,0,0,-9.9626,98.62229,24.117005)"/>
<path transform="matrix(1,0,0,-1,108.28,120.122)" stroke-width="1.19553" stroke-linecap="butt" stroke-miterlimit="10" stroke-linejoin="miter" fill="none" stroke="#ff0000" d="M-43.95811 97.38864C-43.36884 94.77887-43.36884 94.77887-42.9841 93.11206-42.59937 91.44525-41.9824 88.81543-41.59767 87.20238-41.21294 85.58932-40.59596 83.0456-40.21123 81.48631-39.8265 79.92702-39.20953 77.46967-38.8248 75.96417-38.44006 74.45866-37.82307 72.08743-37.43835 70.63567-37.05363 69.1839-36.43665 66.89879-36.05193 65.5008-35.66719 64.10278-35.0502 61.90405-34.66548 60.55984-34.28076 59.2156-33.66377 57.10298-33.27904 55.81252-32.8943 54.52205-32.27733 52.4957-31.89261 51.25899-31.50787 50.02228-30.8909 48.08218-30.50616 46.89922-30.12143 45.71628-29.50447 43.86229-29.11974 42.73311-28.735 41.6039-28.11803 39.83618-27.73329 38.76076-27.34857 37.68533-26.73158 36.00385-26.34685 34.9822-25.96211 33.96054-25.34514 32.3653-24.9604 31.3974-24.57568 30.4295-23.95871 28.9204-23.57397 28.00624-23.18924 27.0921-22.57227 25.66925-22.18755 24.80888-21.80281 23.9485-21.18582 22.61188-20.80109 21.80527-20.41637 20.99869-19.79938 19.7483-19.41466 18.99545-19.02992 18.24261-18.41295 17.07837-18.02821 16.37927-17.64348 15.68018-17.02652 14.60217-16.64178 13.95686-16.25705 13.31154-15.64008 12.31981-15.25534 11.72824-14.87062 11.13667-14.25365 10.23103-13.86891 9.69325-13.48418 9.15544-12.86719 8.3362-12.48247 7.85217-12.09775 7.36815-11.48076 6.63504-11.09602 6.20474-10.7113 5.77444-10.09431 5.12744-9.7096 4.75093-9.32486 4.37442-8.70789 3.8138-8.32315 3.49106-7.93842 3.16832-7.32144 2.6938-6.93672 2.42482-6.55199 2.15582-5.93501 1.76756-5.55028 1.55234-5.16554 1.33713-4.54857 1.03513-4.16385 .87367-3.77911 .71219-3.16212 .49629-2.7774 .3886-2.39268 .28091-1.7757 .15138-1.39096 .09749-1.00623 .04356-.38925 .00017-.00452 0 .38017-.00017 .99715 .04253 1.38188 .09612 1.76662 .1497 2.38359 .27882 2.76833 .38618 3.15305 .49355 3.77002 .70877 4.15475 .86987 4.53949 1.03098 5.15646 1.33249 5.54118 1.54736 5.92592 1.7622 6.54291 2.14983 6.92763 2.41844 7.31236 2.68707 7.92935 3.16107 8.31406 3.48347 8.69879 3.8059 9.31578 4.36598 9.70052 4.74214 10.08524 5.11832 10.70221 5.7647 11.08694 6.1946 11.47168 6.62451 12.08865 7.357 12.47339 7.84067 12.85811 8.32436 13.47508 9.14322 13.85982 9.68068 14.24455 10.21814 14.86153 11.12312 15.24626 11.71432 15.63098 12.3055 16.24797 13.29662 16.6327 13.94157 17.01744 14.58653 17.63441 15.66403 18.01913 16.36276 18.40387 17.06151 19.02084 18.22511 19.40558 18.9776 19.79031 19.73007 20.40729 20.97993 20.792 21.7862 21.17674 22.59245 21.79373 23.92854 22.17845 24.78857 22.56319 25.64862 23.18016 27.07095 23.5649 27.98476 23.94962 28.89854 24.5666 30.407 24.95134 31.37454 25.33606 32.34209 25.95303 33.93683 26.33777 34.95811 26.7225 35.97942 27.33948 37.66026 27.72421 38.73532 28.10893 39.81038 28.7259 41.57762 29.11064 42.70645 29.49538 43.8353 30.11235 45.68863 30.49707 46.87122 30.8818 48.05382 31.4988 49.99341 31.88351 51.22977 32.26825 52.46613 32.88524 54.49197 33.26996 55.78209 33.65468 57.0722 34.27167 59.18417 34.6564 60.52805 35.04114 61.87192 35.6581 64.07014 36.04283 65.46779 36.42757 66.86542 37.04454 69.14989 37.42928 70.60129 37.814 72.05272 38.43097 74.42342 38.8157 75.92859 39.20044 77.43376 39.81741 79.8906 40.20215 81.44952 40.58687 83.00844 41.20386 85.55153 41.5886 87.16422 41.97333 88.77692 42.5903 91.40625 42.97502 93.07271 43.35976 94.73918 44.36147 99.17497 43.94896 97.3481"/>
<path transform="matrix(-.2202,-.9754,-.9754,.2202,64.321887,22.733368)" d="M1.27522 0C-.31879 .31879-1.91284 .9564-3.8257 2.07224-1.91284 .6376-1.91284-.6376-3.8257-2.07224-1.91284-.9564-.31879-.31879 1.27522 0Z" fill="#ff0000"/>
<path transform="matrix(-.2202,-.9754,-.9754,.2202,64.321887,22.733368)" stroke-width="1.19553" stroke-linecap="butt" stroke-linejoin="round" fill="none" stroke="#ff0000" d="M1.27522 0C-.31879 .31879-1.91284 .9564-3.8257 2.07224-1.91284 .6376-1.91284-.6376-3.8257-2.07224-1.91284-.9564-.31879-.31879 1.27522 0Z"/>
<path transform="matrix(.22025,-.97539,-.97539,-.22025,152.22895,22.773903)" d="M1.27522 0C-.31879 .31879-1.91284 .9564-3.8257 2.07224-1.91284 .6376-1.91284-.6376-3.8257-2.07224-1.91284-.9564-.31879-.31879 1.27522 0Z" fill="#ff0000"/>
<path transform="matrix(.22025,-.97539,-.97539,-.22025,152.22895,22.773903)" stroke-width="1.19553" stroke-linecap="butt" stroke-linejoin="round" fill="none" stroke="#ff0000" d="M1.27522 0C-.31879 .31879-1.91284 .9564-3.8257 2.07224-1.91284 .6376-1.91284-.6376-3.8257-2.07224-1.91284-.9564-.31879-.31879 1.27522 0Z"/>
</svg>
