<svg xmlns="http://www.w3.org/2000/svg" xmlns:xlink="http://www.w3.org/1999/xlink" version="1.1" width="196" height="197" viewBox="0 0 196 197">
<defs>
<path id="font_1_1" d="M.33399964 .30233766C.33999635 .32835389 .36299134 .42037965 .43299867 .42037965 .43798829 .42037965 .46199037 .42037965 .48298646 .40734864 .45498658 .402359 .43499757 .37734986 .43499757 .35334779 .43499757 .33735658 .44599916 .31835938 .47299195 .31835938 .49499513 .31835938 .5269928 .3363495 .5269928 .37635804 .5269928 .42837525 .46798707 .4423828 .43399049 .4423828 .37599183 .4423828 .34098817 .38935853 .32899476 .36634828 .3039856 .43237306 .25 .4423828 .22099304 .4423828 .116989139 .4423828 .05999756 .3133545 .05999756 .28834535 .05999756 .27833558 .069992069 .27833558 .07199097 .27833558 .07998657 .27833558 .08299255 .28033448 .084991458 .28933717 .11898804 .39535523 .18499756 .42037965 .21899414 .42037965 .23799134 .42037965 .272995 .4113617 .272995 .35334779 .272995 .32235719 .2559967 .25532533 .21899414 .11528015 .20298767 .053268434 .16799927 .011245728 .12399292 .011245728 .117996219 .011245728 .09498596 .011245728 .07398987 .024276734 .09899902 .029266358 .12098694 .05027771 .12098694 .07827759 .12098694 .105270389 .09899902 .11328125 .083999637 .11328125 .053985597 .11328125 .0289917 .08728027 .0289917 .055267335 .0289917 .009246826 .07899475-.0107421879 .12298584-.0107421879 .18899536-.0107421879 .22499085 .059280397 .22799683 .0652771 .23999024 .028274537 .27598573-.0107421879 .33599855-.0107421879 .43899537-.0107421879 .49598695 .118270877 .49598695 .14328003 .49598695 .1532898 .4869995 .1532898 .48399354 .1532898 .47499085 .1532898 .47299195 .14929199 .47099305 .14228821 .43798829 .03527832 .36999513 .011245728 .33799745 .011245728 .29899598 .011245728 .2829895 .043273927 .2829895 .07727051 .2829895 .09927368 .2889862 .121276859 .2999878 .16529846L.33399964 .30233766Z"/>
<path id="font_1_2" d="M.48599244 .38136292C.48999024 .39537049 .48999024 .39736939 .48999024 .40437318 .48999024 .42237855 .47599793 .43138124 .46099855 .43138124 .45098878 .43138124 .43499757 .42536927 .42599488 .41036988 .42399598 .405365 .41600038 .37435914 .4119873 .35635377 .40499879 .33035279 .397995 .30334474 .3919983 .27633668L.34700013 .09628296C.34298707 .08126831 .2999878 .011245728 .23399353 .011245728 .18299866 .011245728 .17199707 .055267335 .17199707 .0922699 .17199707 .1382904 .18899536 .20030213 .22299195 .28833009 .23899842 .3293457 .24299622 .3403473 .24299622 .36035157 .24299622 .405365 .21099854 .4423828 .16099549 .4423828 .06599426 .4423828 .0289917 .29733277 .0289917 .28833009 .0289917 .27833558 .038986207 .27833558 .040985109 .27833558 .050994874 .27833558 .051986696 .28033448 .056991579 .29634095 .083999637 .3903656 .12399292 .42037965 .1579895 .42037965 .1659851 .42037965 .18299866 .42037965 .18299866 .3883667 .18299866 .36335755 .17298889 .3373413 .1659851 .31834413 .12599182 .21231079 .10798645 .1552887 .10798645 .10827637 .10798645 .019256592 .17098999-.0107421879 .22999573-.0107421879 .2689972-.0107421879 .30299378 .0062561037 .33099366 .03425598 .31799317-.017745972 .30599977-.06674194 .2659912-.11973572 .23999024-.15385437 .20199585-.18309021 .1559906-.18309021 .14199829-.18309021 .09700012-.18005371 .07998657-.14074707 .09599304-.14074707 .10899353-.14074707 .12298584-.1287384 .1329956-.11973572 .14299011-.10673523 .14299011-.08773804 .14299011-.056747438 .115997318-.052734376 .10598755-.052734376 .08299255-.052734376 .049987794-.068740848 .049987794-.11773682 .049987794-.16796875 .09399414-.20507813 .1559906-.20507813 .25898744-.20507813 .3619995-.11373901 .3899994-.00074768069L.48599244 .38136292Z"/>
<path id="font_2_3" d="M.2939911 .16503906V.07800293C.2939911 .041992189 .2919922 .0309906 .21798706 .0309906H.19699097V0C.23799134 .0029907227 .2899933 .0029907227 .33198548 .0029907227 .37399293 .0029907227 .4269867 .0029907227 .46798707 0V.0309906H.44699098C.37298585 .0309906 .37098695 .041992189 .37098695 .07800293V.16503906H.47099305V.19602967H.37098695V.65075686C.37098695 .67074587 .37098695 .6767578 .35499574 .6767578 .34599305 .6767578 .34298707 .6767578 .33499146 .66474917L.027999878 .19602967V.16503906H.2939911M.2999878 .19602967H.055999757L.2999878 .5688019V.19602967Z"/>
<path id="font_2_4" d="M.16299439 .4569702C.116989139 .486969 .11299133 .52098086 .11299133 .5379791 .11299133 .598999 .17799378 .64100649 .24899292 .64100649 .32199098 .64100649 .38598634 .58898928 .38598634 .51698306 .38598634 .45996095 .34700013 .4119568 .2869873 .37695313L.16299439 .4569702M.30899049 .36193849C.3809967 .3989563 .42999269 .45095826 .42999269 .51698306 .42999269 .6090088 .34098817 .6660156 .25 .6660156 .1499939 .6660156 .068984989 .59199526 .068984989 .49897767 .068984989 .4809723 .070999149 .43595887 .11299133 .38894654 .12399292 .37695313 .16099549 .35194398 .18598938 .33494569 .12799073 .30592347 .041992189 .24984741 .041992189 .15072632 .041992189 .04458618 .14399719-.022460938 .24899292-.022460938 .3619995-.022460938 .45700074 .06060791 .45700074 .16773987 .45700074 .20379639 .44599916 .24885559 .4079895 .2909088 .3889923 .31193543 .37298585 .3219452 .30899049 .36193849M.20899964 .3199463 .33198548 .24183655C.3600006 .2228241 .40699769 .19277954 .40699769 .13169861 .40699769 .05760193 .33198548 .0055389406 .25 .0055389406 .1639862 .0055389406 .09199524 .067611698 .09199524 .15072632 .09199524 .20880127 .12399292 .27288819 .20899964 .3199463Z"/>
<path id="font_2_1" d="M.2939911 .64004519C.2939911 .66400149 .2939911 .6660156 .2709961 .6660156 .20899964 .60227969 .12098694 .60227969 .08898926 .60227969V.57128909C.10899353 .57128909 .16799927 .57128909 .21998596 .5972748V.07902527C.21998596 .042999269 .21699524 .0309906 .1269989 .0309906H.09498596V0C.12998963 .0029907227 .21699524 .0029907227 .25698854 .0029907227 .29699708 .0029907227 .38398744 .0029907227 .4189911 0V.0309906H.3869934C.29699708 .0309906 .2939911 .041992189 .2939911 .07902527V.64004519Z"/>
<path id="font_2_2" d="M.1269989 .07699585 .23298645 .18003845C.3889923 .31811524 .44898988 .3721466 .44898988 .47216798 .44898988 .5860901 .35899354 .6660156 .23699951 .6660156 .12399292 .6660156 .049987794 .57411196 .049987794 .48516847 .049987794 .4291687 .099990848 .4291687 .102996829 .4291687 .11999512 .4291687 .15499878 .44117738 .15499878 .48217774 .15499878 .5081787 .13699341 .5341797 .101989749 .5341797 .09399414 .5341797 .09199524 .5341797 .08898926 .5331726 .11199951 .59806826 .1659851 .63500979 .22399903 .63500979 .31498719 .63500979 .35798646 .5541382 .35798646 .47216798 .35798646 .39215089 .30799867 .31311036 .25299073 .25108338L.06098938 .036987306C.049987794 .025985718 .049987794 .023986817 .049987794 0H.42099L.44898988 .17404175H.42399598C.4189911 .14402771 .4119873 .1000061 .4019928 .084991458 .394989 .07699585 .32899476 .07699585 .30699159 .07699585H.1269989Z"/>
<path id="font_3_1" d="M.6589966 .23046875C.6759949 .23046875 .69400027 .23046875 .69400027 .25045777 .69400027 .27046205 .6759949 .27046205 .6589966 .27046205H.117996219C.100997928 .27046205 .08299255 .27046205 .08299255 .25045777 .08299255 .23046875 .100997928 .23046875 .117996219 .23046875H.6589966Z"/>
</defs>
<path transform="matrix(1,0,0,-1.00006,35.628999,76.50181)" stroke-width=".3985" stroke-linecap="butt" stroke-miterlimit="10" stroke-linejoin="miter" fill="none" stroke="#cbcbcb" d="M-34.0165-119.0578H136.06606M-34.0165-102.04953H136.06606M-34.0165-85.04128H136.06606M-34.0165-68.03302H136.06606M-34.0165-51.02477H136.06606M-34.0165-34.0165H136.06606M-34.0165-17.00824H136.06606M-34.0165 0H136.06606M-34.0165 17.00824H136.06606M-34.0165 34.0165H136.06606M-34.0165 51.01878H136.06606M-34.0165-119.0578V51.02477M-17.00824-119.0578V51.02477M0-119.0578V51.02477M17.00824-119.0578V51.02477M34.0165-119.0578V51.02477M51.02477-119.0578V51.02477M68.03302-119.0578V51.02477M85.04128-119.0578V51.02477M102.04953-119.0578V51.02477M119.0578-119.0578V51.02477M136.06009-119.0578V51.02477M136.06606 51.02477"/>
<path transform="matrix(1,0,0,-1.00006,35.628999,76.50181)" stroke-width=".79701" stroke-linecap="butt" stroke-miterlimit="10" stroke-linejoin="miter" fill="none" stroke="#000000" d="M-34.0165 0H148.2381"/>
<path transform="matrix(1,0,0,-1.00006,183.8671,76.50181)" d="M1.0361 0C-.25902 .25902-1.55415 .77707-3.1083 1.68365-1.55415 .51805-1.55415-.51805-3.1083-1.68365-1.55415-.77707-.25902-.25902 1.0361 0Z"/>
<path transform="matrix(1,0,0,-1.00006,183.8671,76.50181)" stroke-width=".79701" stroke-linecap="butt" stroke-linejoin="round" fill="none" stroke="#000000" d="M1.0361 0C-.25902 .25902-1.55415 .77707-3.1083 1.68365-1.55415 .51805-1.55415-.51805-3.1083-1.68365-1.55415-.77707-.25902-.25902 1.0361 0Z"/>
<use data-text="x" xlink:href="#font_1_1" transform="matrix(9.9626,0,0,-9.963197,189.021,78.646938)"/>
<path transform="matrix(1,0,0,-1.00006,35.628999,76.50181)" stroke-width=".79701" stroke-linecap="butt" stroke-miterlimit="10" stroke-linejoin="miter" fill="none" stroke="#000000" d="M0-119.0578V63.19681"/>
<path transform="matrix(0,-1.00006,-1,-0,35.628999,13.3012089)" d="M1.0361 0C-.25902 .25902-1.55415 .77707-3.1083 1.68365-1.55415 .51805-1.55415-.51805-3.1083-1.68365-1.55415-.77707-.25902-.25902 1.0361 0Z"/>
<path transform="matrix(0,-1.00006,-1,-0,35.628999,13.3012089)" stroke-width=".79701" stroke-linecap="butt" stroke-linejoin="round" fill="none" stroke="#000000" d="M1.0361 0C-.25902 .25902-1.55415 .77707-3.1083 1.68365-1.55415 .51805-1.55415-.51805-3.1083-1.68365-1.55415-.77707-.25902-.25902 1.0361 0Z"/>
<use data-text="y" xlink:href="#font_1_2" transform="matrix(9.9626,0,0,-9.963197,33.007997,6.2095949)"/>
<path transform="matrix(1,0,0,-1.00006,35.628999,76.50181)" stroke-width=".79701" stroke-linecap="butt" stroke-miterlimit="10" stroke-linejoin="miter" fill="none" stroke="#000000" d="M34.0165 2.55112V-2.55139"/>
<path transform="matrix(1,0,0,-1.00006,35.628999,76.50181)" d="M30.52953-13.35544H37.50347V-4.94246H30.52953Z" fill="#ffffff"/>
<use data-text="4" xlink:href="#font_2_3" transform="matrix(9.9626,0,0,-9.963197,67.155,88.86155)"/>
<path transform="matrix(1,0,0,-1.00006,35.628999,76.50181)" stroke-width=".79701" stroke-linecap="butt" stroke-miterlimit="10" stroke-linejoin="miter" fill="none" stroke="#000000" d="M68.03302 2.55112V-2.55139"/>
<path transform="matrix(1,0,0,-1.00006,35.628999,76.50181)" d="M64.54605-13.35544H71.51999V-4.94246H64.54605Z" fill="#ffffff"/>
<use data-text="8" xlink:href="#font_2_4" transform="matrix(9.9626,0,0,-9.963197,101.171,88.86155)"/>
<path transform="matrix(1,0,0,-1.00006,35.628999,76.50181)" stroke-width=".79701" stroke-linecap="butt" stroke-miterlimit="10" stroke-linejoin="miter" fill="none" stroke="#000000" d="M102.04953 2.55112V-2.55139"/>
<path transform="matrix(1,0,0,-1.00006,35.628999,76.50181)" d="M96.07185-13.35544H108.02719V-4.94246H96.07185Z" fill="#ffffff"/>
<use data-text="1" xlink:href="#font_2_1" transform="matrix(9.9626,0,0,-9.963197,132.69699,88.86155)"/>
<use data-text="2" xlink:href="#font_2_2" transform="matrix(9.9626,0,0,-9.963197,137.6783,88.86155)"/>
<path transform="matrix(1,0,0,-1.00006,35.628999,76.50181)" stroke-width=".79701" stroke-linecap="butt" stroke-miterlimit="10" stroke-linejoin="miter" fill="none" stroke="#000000" d="M2.55112 34.0165H-2.55139"/>
<path transform="matrix(1,0,0,-1.00006,35.628999,76.50181)" d="M-11.91638 29.81001H-4.94244V38.222993H-11.91638Z" fill="#ffffff"/>
<use data-text="4" xlink:href="#font_2_3" transform="matrix(9.9626,0,0,-9.963197,24.709,45.693964)"/>
<path transform="matrix(1,0,0,-1.00006,35.628999,76.50181)" stroke-width=".79701" stroke-linecap="butt" stroke-miterlimit="10" stroke-linejoin="miter" fill="none" stroke="#000000" d="M2.55112-34.0165H-2.55139"/>
<path transform="matrix(1,0,0,-1.00006,35.628999,76.50181)" d="M-19.66522-38.63812H-4.94244V-29.39489H-19.66522Z" fill="#ffffff"/>
<use data-text="&#x2212;" xlink:href="#font_3_1" transform="matrix(9.9626,0,0,-9.963197,16.96,113.31602)"/>
<use data-text="4" xlink:href="#font_2_3" transform="matrix(9.9626,0,0,-9.963197,24.708992,113.31602)"/>
<path transform="matrix(1,0,0,-1.00006,35.628999,76.50181)" stroke-width=".79701" stroke-linecap="butt" stroke-miterlimit="10" stroke-linejoin="miter" fill="none" stroke="#000000" d="M2.55112-68.03302H-2.55139"/>
<path transform="matrix(1,0,0,-1.00006,35.628999,76.50181)" d="M-19.66522-72.65465H-4.94244V-63.41142H-19.66522Z" fill="#ffffff"/>
<use data-text="&#x2212;" xlink:href="#font_3_1" transform="matrix(9.9626,0,0,-9.963197,16.96,147.33406)"/>
<use data-text="8" xlink:href="#font_2_4" transform="matrix(9.9626,0,0,-9.963197,24.708992,147.33406)"/>
<path transform="matrix(1,0,0,-1.00006,35.628999,76.50181)" stroke-width=".79701" stroke-linecap="butt" stroke-miterlimit="10" stroke-linejoin="miter" fill="none" stroke="#000000" d="M2.55112-102.04953H-2.55139"/>
<path transform="matrix(1,0,0,-1.00006,35.628999,76.50181)" d="M-24.64664-106.67114H-4.94244V-97.42791H-24.64664Z" fill="#ffffff"/>
<use data-text="&#x2212;" xlink:href="#font_3_1" transform="matrix(9.9626,0,0,-9.963197,11.978996,181.35309)"/>
<use data-text="1" xlink:href="#font_2_1" transform="matrix(9.9626,0,0,-9.963197,19.72799,181.35309)"/>
<use data-text="2" xlink:href="#font_2_2" transform="matrix(9.9626,0,0,-9.963197,24.709282,181.35309)"/>
<path transform="matrix(1,0,0,-1.00006,35.628999,76.50181)" stroke-width="1.19553" stroke-linecap="butt" stroke-miterlimit="10" stroke-linejoin="miter" fill="none" stroke="#ff0000" d="M59.52887-8.50412C59.52887 14.97966 40.49203 34.0165 17.00824 34.0165-6.47554 34.0165-25.51237 14.97966-25.51237-8.50412-25.51237-31.9879-6.47554-51.02475 17.00824-51.02475 40.49203-51.02475 59.52887-31.9879 59.52887-8.50412ZM17.00824-8.50412"/>
<path transform="matrix(1,0,0,-1.00006,35.628999,76.50181)" stroke-width="1.19553" stroke-linecap="butt" stroke-miterlimit="10" stroke-linejoin="miter" fill="none" stroke="#0000ff" d="M110.55367-42.52063C110.55367-9.64331 83.90208 17.00826 51.02477 17.00826 18.14745 17.00826-8.50412-9.64331-8.50412-42.52063-8.50412-75.39795 18.14745-102.04951 51.02477-102.04951 83.90208-102.04951 110.55367-75.39795 110.55367-42.52063ZM51.02477-42.52063"/>
<path transform="matrix(1,0,0,-1.00006,35.628999,76.50181)" d="M-5.953-42.52063C-5.953-41.11168-7.09517-39.9695-8.50412-39.9695-9.91307-39.9695-11.05524-41.11168-11.05524-42.52063-11.05524-43.92958-9.91307-45.07175-8.50412-45.07175-7.09517-45.07175-5.953-43.92958-5.953-42.52063ZM-8.50412-42.52063"/>
<path transform="matrix(1,0,0,-1.00006,35.628999,76.50181)" stroke-width=".3985" stroke-linecap="butt" stroke-miterlimit="10" stroke-linejoin="miter" fill="none" stroke="#000000" d="M-5.953-42.52063C-5.953-41.11168-7.09517-39.9695-8.50412-39.9695-9.91307-39.9695-11.05524-41.11168-11.05524-42.52063-11.05524-43.92958-9.91307-45.07175-8.50412-45.07175-7.09517-45.07175-5.953-43.92958-5.953-42.52063ZM-8.50412-42.52063"/>
<path transform="matrix(1,0,0,-1.00006,35.628999,76.50181)" d="M53.57588 17.00824C53.57588 18.41719 52.43372 19.55936 51.02477 19.55936 49.61581 19.55936 48.47365 18.41719 48.47365 17.00824 48.47365 15.59929 49.61581 14.45712 51.02477 14.45712 52.43372 14.45712 53.57588 15.59929 53.57588 17.00824ZM51.02477 17.00824"/>
<path transform="matrix(1,0,0,-1.00006,35.628999,76.50181)" stroke-width=".3985" stroke-linecap="butt" stroke-miterlimit="10" stroke-linejoin="miter" fill="none" stroke="#000000" d="M53.57588 17.00824C53.57588 18.41719 52.43372 19.55936 51.02477 19.55936 49.61581 19.55936 48.47365 18.41719 48.47365 17.00824 48.47365 15.59929 49.61581 14.45712 51.02477 14.45712 52.43372 14.45712 53.57588 15.59929 53.57588 17.00824ZM51.02477 17.00824"/>
</svg>
