<svg xmlns="http://www.w3.org/2000/svg" xmlns:xlink="http://www.w3.org/1999/xlink" version="1.1" width="153" height="144" viewBox="0 0 153 144">
<defs>
<path id="font_1_2" d="M.5159912 .68333438C.5159912 .6843262 .5159912 .69433596 .5029907 .69433596 .48799134 .69433596 .3929901 .68533328 .37599183 .68333438 .36799623 .6823273 .3619995 .6773224 .3619995 .6643219 .3619995 .6523285 .37098695 .6523285 .38598634 .6523285 .43399049 .6523285 .43598939 .6453247 .43598939 .6353302L.43299867 .6153412 .37298585 .37835694C.35499574 .41537477 .32598878 .4423828 .2809906 .4423828 .1639862 .4423828 .039993287 .29533387 .039993287 .14929199 .039993287 .055267335 .09498596-.0107421879 .17298889-.0107421879 .19299317-.0107421879 .24299622-.0067443849 .30299378 .06427002 .31098939 .022247315 .34599305-.0107421879 .3939972-.0107421879 .42900086-.0107421879 .45199586 .012252808 .46798707 .044265748 .4850006 .08027649 .49798585 .14129639 .49798585 .14329529 .49798585 .1532898 .4889984 .1532898 .48599244 .1532898 .47599793 .1532898 .47499085 .14929199 .47200013 .13528443 .45498658 .07026672 .43699647 .011245728 .3959961 .011245728 .36898805 .011245728 .3659973 .037261964 .3659973 .057266237 .3659973 .08126831 .36799623 .088272098 .37199403 .105285648L.5159912 .68333438M.30799867 .119277957C.30299378 .10127258 .30299378 .09927368 .28799439 .08227539 .24398804 .027252198 .20298767 .011245728 .1749878 .011245728 .125 .011245728 .11099243 .06626892 .11099243 .105285648 .11099243 .1552887 .14299011 .27833558 .1659851 .32434083 .19699097 .38336183 .24198914 .42037965 .28199769 .42037965 .34700013 .42037965 .36099244 .3383484 .36099244 .33235169 .36099244 .32633973 .35899354 .32034303 .35798646 .31533814L.30799867 .119277957Z"/>
<path id="font_1_1" d="M.37399293 .6056366C.3829956 .6416168 .38598634 .6516113 .46499635 .6516113 .4889984 .6516113 .49699403 .6516113 .49699403 .6706085 .49699403 .6826172 .48599244 .6826172 .48199464 .6826172 .45298768 .6826172 .3789978 .6796112 .34999085 .6796112 .31999208 .6796112 .24699402 .6826172 .21699524 .6826172 .20999146 .6826172 .19699097 .6826172 .19699097 .6626129 .19699097 .6516113 .20599365 .6516113 .22499085 .6516113 .2669983 .6516113 .2939911 .6516113 .2939911 .63261416 .2939911 .6276245 .2939911 .6256256 .2919922 .6166229L.15699768 .07795715C.147995 .040985109 .14498902 .0309906 .06599426 .0309906 .042999269 .0309906 .033996583 .0309906 .033996583 .010986328 .033996583 0 .04598999 0 .04899597 0 .07798767 0 .15098572 .0029907227 .17999268 .0029907227 .20999146 .0029907227 .28399659 0 .31399537 0 .32199098 0 .33399964 0 .33399964 .018997193 .33399964 .0309906 .32598878 .0309906 .3039856 .0309906 .28599549 .0309906 .2809906 .0309906 .26098634 .032989503 .23999024 .034988405 .23599243 .038986207 .23599243 .049987794 .23599243 .05796814 .23799134 .065963748 .23999024 .07296753L.37399293 .6056366Z"/>
<path id="font_2_4" d="M.44898988 .20022583C.44898988 .3193512 .36698915 .41944886 .25898744 .41944886 .21099854 .41944886 .16799927 .40345765 .13198853 .36842347V.5637665C.1519928 .5577698 .18499756 .55078127 .21699524 .55078127 .33999635 .55078127 .4099884 .6417694 .4099884 .6547699 .4099884 .6607666 .40699769 .6657715 .3999939 .6657715 .39898683 .6657715 .39698792 .6657715 .3919983 .66278079 .37199403 .6537781 .32299806 .6337738 .2559967 .6337738 .21598816 .6337738 .16999817 .6407776 .12298584 .6617737 .114990238 .66477969 .11299133 .66477969 .11099243 .66477969 .100997928 .66477969 .100997928 .6567688 .100997928 .6407776V.34439088C.100997928 .32637025 .100997928 .31835938 .114990238 .31835938 .12199402 .31835938 .12399292 .32136537 .12799073 .32736207 .13899231 .3433838 .17599488 .39746095 .25698854 .39746095 .30899049 .39746095 .33399964 .35139466 .34199525 .33337403 .35798646 .29632569 .3600006 .25727845 .3600006 .20722962 .3600006 .17222595 .3600006 .11222839 .33599855 .07035828 .31199647 .031463624 .2749939 .0055389406 .22898865 .0055389406 .1559906 .0055389406 .09899902 .058380128 .08198547 .11723328 .084991458 .1162262 .08799744 .115234378 .09899902 .115234378 .13198853 .115234378 .14898682 .14022827 .14898682 .16423035 .14898682 .18823242 .13198853 .21322632 .09899902 .21322632 .084991458 .21322632 .049987794 .20622254 .049987794 .16023255 .049987794 .07434082 .11898804-.022460938 .23098755-.022460938 .34700013-.022460938 .44898988 .073349 .44898988 .20022583Z"/>
<path id="font_2_1" d="M.45999146 .31976319C.45999146 .39982606 .45498658 .47988893 .41999818 .5539398 .37399293 .65000918 .2919922 .6660156 .25 .6660156 .18998719 .6660156 .116989139 .64001467 .07598877 .54693606 .04399109 .47789 .038986207 .39982606 .038986207 .31976319 .038986207 .24472046 .042999269 .15464783 .083999637 .07859802 .1269989-.0024719239 .19999695-.022460938 .24899292-.022460938 .30299378-.022460938 .3789978-.0014648438 .4229889 .09359741 .45498658 .16265869 .45999146 .2407074 .45999146 .31976319M.24899292-.00047302247C.20999146-.00047302247 .15098572 .024551392 .1329956 .12062073 .12199402 .18066406 .12199402 .2727356 .12199402 .3317871 .12199402 .39582826 .12199402 .46188355 .12998963 .5159149 .14898682 .63500979 .22399903 .64401248 .24899292 .64401248 .28199769 .64401248 .34799195 .6259918 .36698915 .52693179 .3769989 .47088624 .3769989 .39482118 .3769989 .3317871 .3769989 .25672914 .3769989 .18867493 .3659973 .12461853 .35099793 .029556275 .2939911-.00047302247 .24899292-.00047302247Z"/>
<path id="font_2_2" d="M.2939911 .64004519C.2939911 .66400149 .2939911 .6660156 .2709961 .6660156 .20899964 .60227969 .12098694 .60227969 .08898926 .60227969V.57128909C.10899353 .57128909 .16799927 .57128909 .21998596 .5972748V.07902527C.21998596 .042999269 .21699524 .0309906 .1269989 .0309906H.09498596V0C.12998963 .0029907227 .21699524 .0029907227 .25698854 .0029907227 .29699708 .0029907227 .38398744 .0029907227 .4189911 0V.0309906H.3869934C.29699708 .0309906 .2939911 .041992189 .2939911 .07902527V.64004519Z"/>
<path id="font_2_6" d="M.68699648 .32714845C.70199587 .32714845 .72099307 .32714845 .72099307 .34713746 .72099307 .36714173 .70199587 .36714173 .6879883 .36714173H.08898926C.07499695 .36714173 .055999757 .36714173 .055999757 .34713746 .055999757 .32714845 .07499695 .32714845 .08999634 .32714845H.68699648M.6879883 .13284302C.70199587 .13284302 .72099307 .13284302 .72099307 .15284729 .72099307 .17285156 .70199587 .17285156 .68699648 .17285156H.08999634C.07499695 .17285156 .055999757 .17285156 .055999757 .15284729 .055999757 .13284302 .07499695 .13284302 .08898926 .13284302H.6879883Z"/>
<path id="font_2_3" d="M.2899933 .35191346C.37199403 .37893678 .42999269 .4490509 .42999269 .52809146 .42999269 .6100464 .34199525 .6660156 .24598694 .6660156 .14498902 .6660156 .068984989 .60606387 .068984989 .53009036 .068984989 .49710084 .09098816 .47808839 .11999512 .47808839 .15098572 .47808839 .17098999 .50009158 .17098999 .5290985 .17098999 .57910159 .12399292 .57910159 .10899353 .57910159 .13999939 .62802127 .20599365 .64100649 .24198914 .64100649 .2829895 .64100649 .33799745 .6190338 .33799745 .5290985 .33799745 .51708987 .33599855 .45906068 .30999757 .4149933 .27999879 .36691285 .24598694 .36390687 .22099304 .36291505 .21299744 .36190797 .18899536 .35990907 .18199158 .35990907 .17399597 .35890199 .16699219 .35791017 .16699219 .3479004 .16699219 .33691407 .17399597 .33691407 .19099427 .33691407H.23498535C.31698609 .33691407 .35398866 .2686615 .35398866 .17037964 .35398866 .034469606 .2849884 .0055389406 .24099732 .0055389406 .19799805 .0055389406 .12298584 .022491456 .08799744 .08137512 .12298584 .07637024 .1539917 .09837341 .1539917 .1363678 .1539917 .17237854 .1269989 .19238281 .09799194 .19238281 .07398987 .19238281 .041992189 .17837525 .041992189 .1343689 .041992189 .043441774 .1349945-.022460938 .24398804-.022460938 .3659973-.022460938 .45700074 .06838989 .45700074 .17037964 .45700074 .252594 .3939972 .33088685 .2899933 .35191346Z"/>
<path id="font_2_5" d="M.47599793 .609375C.4850006 .6213684 .4850006 .62338259 .4850006 .64437869H.24198914C.11999512 .64437869 .117996219 .65737918 .11399841 .67637637H.08898926L.055999757 .4702301H.08099365C.083999637 .48625184 .09298706 .5493469 .10598755 .56137087 .11299133 .5673828 .19099427 .5673828 .20399475 .5673828H.41099549C.3999939 .5513611 .32099916 .4421997 .29899598 .40914918 .20899964 .27394105 .17599488 .1347351 .17599488 .032577516 .17599488 .022567749 .17599488-.022460938 .22200012-.022460938 .2679901-.022460938 .2679901 .022567749 .2679901 .032577516V.08366394C.2679901 .13873291 .2709961 .19381714 .2789917 .24790955 .2829895 .27093507 .29699708 .35707093 .34098817 .41915895L.47599793 .609375Z"/>
<path id="font_3_1" d="M.74398806 .2263794C.7599945 .2263794 .7839966 .2263794 .7839966 .25038148 .7839966 .27539063 .7609863 .27539063 .74398806 .27539063H.147995C.13198853 .27539063 .10798645 .27539063 .10798645 .25138856 .10798645 .2263794 .1309967 .2263794 .147995 .2263794H.74398806Z"/>
<path id="font_4_1" d="M.5049896 .18203736H.47099305C.46798707 .16001892 .45799256 .100997928 .44499208 .09098816 .43699647 .084991458 .3600006 .084991458 .34599305 .084991458H.1619873C.2669983 .17803955 .3019867 .20603943 .3619995 .25306703 .43598939 .312088 .5049896 .374115 .5049896 .46914674 .5049896 .5900879 .39898683 .6640625 .2709961 .6640625 .14698792 .6640625 .06298828 .57710269 .06298828 .4851532 .06298828 .43414308 .10598755 .42915345 .115997318 .42915345 .13999939 .42915345 .16899109 .44615174 .16899109 .48214723 .16899109 .5001526 .1619873 .53515627 .10998535 .53515627 .14099121 .6060791 .20899964 .62805178 .2559967 .62805178 .35598756 .62805178 .4079895 .5501404 .4079895 .46914674 .4079895 .38212586 .34599305 .3130951 .31399537 .27708436L.07299805 .038986207C.06298828 .02999878 .06298828 .027999878 .06298828 0H.47499085L.5049896 .18203736Z"/>
</defs>
<path transform="matrix(1.00008,0,0,-1.00005,30.009362,131.63997)" stroke-width=".3985" stroke-linecap="butt" stroke-miterlimit="10" stroke-linejoin="miter" fill="none" stroke="#00aeef" d="M0 0H102.04953M0 11.33855H102.04953M0 22.6771H102.04953M0 34.01564H102.04953M0 45.35419H102.04953M0 56.69275H102.04953M0 68.0313H102.04953M0 79.36984H102.04953M0 90.70839H102.04953M0 102.04694H102.04953M0 113.38152H102.04953M0 0V113.3855M17.00824 0V113.3855M34.0165 0V113.3855M51.02477 0V113.3855M68.03302 0V113.3855M85.04128 0V113.3855M102.04356 0V113.3855M102.04953 113.3855"/>
<path transform="matrix(1.00008,0,0,-1.00005,30.009362,131.63997)" stroke-width=".79701" stroke-linecap="butt" stroke-miterlimit="10" stroke-linejoin="miter" fill="none" stroke="#000000" d="M0 0H110.81998"/>
<path transform="matrix(1.00008,0,0,-1.00005,140.8382,131.63997)" d="M1.0361 0C-.25902 .25902-1.55415 .77707-3.1083 1.68365-1.55415 .51805-1.55415-.51805-3.1083-1.68365-1.55415-.77707-.25902-.25902 1.0361 0Z"/>
<path transform="matrix(1.00008,0,0,-1.00005,140.8382,131.63997)" stroke-width=".79701" stroke-linecap="butt" stroke-linejoin="round" fill="none" stroke="#000000" d="M1.0361 0C-.25902 .25902-1.55415 .77707-3.1083 1.68365-1.55415 .51805-1.55415-.51805-3.1083-1.68365-1.55415-.77707-.25902-.25902 1.0361 0Z"/>
<use data-text="d" xlink:href="#font_1_2" transform="matrix(9.963397,0,0,-9.963098,145.99265,135.09914)"/>
<path transform="matrix(1.00008,0,0,-1.00005,30.009362,131.63997)" stroke-width=".79701" stroke-linecap="butt" stroke-miterlimit="10" stroke-linejoin="miter" fill="none" stroke="#000000" d="M0 0V118.75407"/>
<path transform="matrix(0,-1.00005,-1.00008,-0,30.009362,12.879974)" d="M1.0361 0C-.25902 .25902-1.55415 .77707-3.1083 1.68365-1.55415 .51805-1.55415-.51805-3.1083-1.68365-1.55415-.77707-.25902-.25902 1.0361 0Z"/>
<path transform="matrix(0,-1.00005,-1.00008,-0,30.009362,12.879974)" stroke-width=".79701" stroke-linecap="butt" stroke-linejoin="round" fill="none" stroke="#000000" d="M1.0361 0C-.25902 .25902-1.55415 .77707-3.1083 1.68365-1.55415 .51805-1.55415-.51805-3.1083-1.68365-1.55415-.77707-.25902-.25902 1.0361 0Z"/>
<use data-text="I" xlink:href="#font_1_1" transform="matrix(9.963397,0,0,-9.963098,27.428154,7.7257845)"/>
<path transform="matrix(1.00008,0,0,-1.00005,30.009362,131.63997)" stroke-width=".3985" stroke-linecap="butt" stroke-miterlimit="10" stroke-linejoin="miter" fill="none" stroke="#000000" d="M85.04128 1.13391V-1.13374"/>
<path transform="matrix(1.00008,0,0,-1.00005,30.009362,131.63997)" d="M81.5543-11.73854H88.52824V-3.3255597H81.5543Z" fill="#ffffff"/>
<use data-text="5" xlink:href="#font_2_4" transform="matrix(9.963397,0,0,-9.963098,112.56696,142.3825)"/>
<path transform="matrix(1.00008,0,0,-1.00005,30.009362,131.63997)" stroke-width=".3985" stroke-linecap="butt" stroke-miterlimit="10" stroke-linejoin="miter" fill="none" stroke="#000000" d="M1.70091 56.69275H-1.70065"/>
<path transform="matrix(1.00008,0,0,-1.00005,30.009362,131.63997)" d="M-25.81061 52.48625H-3.8924695V60.89923H-25.81061Z" fill="#ffffff"/>
<use data-text="5" xlink:href="#font_2_4" transform="matrix(9.963397,0,0,-9.963098,5.1933748,78.1543)"/>
<use data-text="0" xlink:href="#font_2_1" transform="matrix(9.963397,0,0,-9.963098,10.175072,78.1543)"/>
<use data-text="0" xlink:href="#font_2_1" transform="matrix(9.963397,0,0,-9.963098,15.156769,78.1543)"/>
<use data-text="0" xlink:href="#font_2_1" transform="matrix(9.963397,0,0,-9.963098,20.138466,78.1543)"/>
<path transform="matrix(1.00008,0,0,-1.00005,30.009362,131.63997)" stroke-width=".3985" stroke-linecap="butt" stroke-miterlimit="10" stroke-linejoin="miter" fill="none" stroke="#000000" d="M1.70091 113.3855H-1.70065"/>
<path transform="matrix(1.00008,0,0,-1.00005,30.009362,131.63997)" d="M-30.79199 109.179H-3.8924695V117.59198H-30.79199Z" fill="#ffffff"/>
<use data-text="1" xlink:href="#font_2_2" transform="matrix(9.963397,0,0,-9.963098,.21097565,21.459465)"/>
<use data-text="0" xlink:href="#font_2_1" transform="matrix(9.963397,0,0,-9.963098,5.1926729,21.459465)"/>
<use data-text="0" xlink:href="#font_2_1" transform="matrix(9.963397,0,0,-9.963098,10.17437,21.459465)"/>
<use data-text="0" xlink:href="#font_2_1" transform="matrix(9.963397,0,0,-9.963098,15.156067,21.459465)"/>
<use data-text="0" xlink:href="#font_2_1" transform="matrix(9.963397,0,0,-9.963098,20.137757,21.459465)"/>
<path transform="matrix(1.00008,0,0,-1.00005,30.009362,131.63997)" stroke-width="1.19553" stroke-linecap="butt" stroke-miterlimit="10" stroke-linejoin="miter" fill="none" stroke="#ff0000" d="M6.36082 111.51317C7.37608 82.5314 7.37608 82.5314 7.79118 74.0286 8.2063 65.52579 8.87201 57.0117 9.2871 52.1027 9.7022 47.19373 10.3679 41.74164 10.78302 38.64804 11.1981 35.55446 11.8638 31.88263 12.2789 29.80624 12.69402 27.72984 13.35973 25.14464 13.77481 23.6828 14.18991 22.22096 14.8556 20.33849 15.27072 19.2703 15.68582 18.2021 16.35152 16.78853 16.76662 15.98392 17.18172 15.17932 17.84743 14.09203 18.26253 13.47125 18.67763 12.85048 19.34332 11.99875 19.75842 11.50983 20.17354 11.02087 20.83923 10.33986 21.25433 9.94734 21.66943 9.55481 22.33513 9.00038 22.75024 8.68071 23.16533 8.36104 23.83104 7.90683 24.24614 7.64334 24.66125 7.37982 25.32695 7.00171 25.74205 6.78156 26.15715 6.56142 26.82285 6.24248 27.23796 6.05663 27.65305 5.87079 28.31876 5.60019 28.73386 5.4421 29.14897 5.284 29.81467 5.0528 30.22977 4.91718 30.64487 4.78154 31.31056 4.58188 31.72568 4.46457 32.14076 4.34727 32.80647 4.17381 33.22157 4.07166 33.63667 3.9695 34.30237 3.81773 34.71748 3.72823 35.13257 3.63872 35.79828 3.5053 36.21338 3.42648 36.62848 3.3477 37.29419 3.23 37.70929 3.16023 38.12439 3.09045 38.79008 2.98564 39.2052 2.92354 39.62029 2.86145 40.286 2.76813 40.7011 2.71265 41.1162 2.65718 41.7819 2.5735 42.19699 2.52371 42.61209 2.47394 43.2778 2.39865 43.69292 2.35382 44.108 2.30898 44.77371 2.24103 45.18881 2.20053 45.60391 2.16003 46.26962 2.09871 46.68471 2.06195 47.09981 2.02519 47.76552 1.9691 48.18062 1.93564 48.59572 1.90219 49.26141 1.85123 49.67651 1.82077 50.09161 1.79031 50.75732 1.74396 51.17242 1.7161 51.58752 1.68822 52.25323 1.64548 52.66833 1.6199 53.08344 1.59431 53.74913 1.55519 54.16423 1.53166 54.57933 1.50815 55.24504 1.47202 55.66014 1.45035 56.07524 1.42868 56.74095 1.39543 57.15605 1.37544 57.57115 1.35545 58.23685 1.32474 58.65195 1.30623 59.06705 1.28772 59.73276 1.2592 60.14786 1.24203 60.56296 1.22488 61.22865 1.19846 61.64375 1.18253 62.05887 1.1666 62.72456 1.14201 63.13966 1.12715 63.55476 1.1123 64.22047 1.08928 64.63556 1.07542 65.05067 1.06158 65.71637 1.04022 66.13147 1.02733 66.54657 1.01445 67.21227 .99457 67.62738 .98253 68.04248 .97047 68.70818 .9518 69.12328 .94048 69.53838 .92915 70.20409 .91145 70.61919 .90086 71.03429 .89024 71.69998 .87393 72.1151 .86401 72.5302 .85406 73.19589 .83858 73.611 .82922 74.0261 .81987 74.6918 .80533 75.1069 .79652 75.522 .78773 76.1877 .77403 76.60281 .76573 77.01791 .75743 77.68361 .7445 78.09871 .73666 78.51381 .72882 79.1795 .71655 79.59462 .70917 80.00972 .70178 80.67542 .69035 81.09052 .68338 81.50562 .6764 82.17133 .66547 82.58643 .65881 83.00151 .65218 83.66722 .64174 84.08234 .63545 84.49744 .62917 85.16313 .61942 85.57823 .61348 85.99333 .60756 86.65904 .59836 87.07414 .59273 87.48923 .5871 88.15494 .5782 88.57004 .57283 88.98514 .56746 89.65085 .55908 90.06595 .55397 90.48105 .54886 91.14676 .54085 91.56186 .53596 91.97694 .5311 92.64265 .52347 93.05775 .51884 93.47285 .51422 94.13857 .50699 94.55367 .50258 94.96877 .49817 95.63446 .49121 96.04958 .48701 96.46466 .48282 97.13037 .47632 97.54546 .4723 97.96057 .46829 98.62628 .46194 99.04138 .45811 99.45647 .45427 100.12216 .44829 100.53728 .44463 100.95238 .44096 102.03317 .43166 100.16034 .44774"/>
<path transform="matrix(-.0349928,-.99941989,-.9994499,.03499175,36.37071,20.121247)" d="M1.27522 0C-.31879 .31879-1.91284 .9564-3.8257 2.07224-1.91284 .6376-1.91284-.6376-3.8257-2.07224-1.91284-.9564-.31879-.31879 1.27522 0Z" fill="#ff0000"/>
<path transform="matrix(-.0349928,-.99941989,-.9994499,.03499175,36.37071,20.121247)" stroke-width="1.19553" stroke-linecap="butt" stroke-linejoin="round" fill="none" stroke="#ff0000" d="M1.27522 0C-.31879 .31879-1.91284 .9564-3.8257 2.07224-1.91284 .6376-1.91284-.6376-3.8257-2.07224-1.91284-.9564-.31879-.31879 1.27522 0Z"/>
<path transform="matrix(1,.008590429,.008590687,-.99996998,130.17769,131.1922)" d="M1.27522 0C-.31879 .31879-1.91284 .9564-3.8257 2.07224-1.91284 .6376-1.91284-.6376-3.8257-2.07224-1.91284-.9564-.31879-.31879 1.27522 0Z" fill="#ff0000"/>
<path transform="matrix(1,.008590429,.008590687,-.99996998,130.17769,131.1922)" stroke-width="1.19553" stroke-linecap="butt" stroke-linejoin="round" fill="none" stroke="#ff0000" d="M1.27522 0C-.31879 .31879-1.91284 .9564-3.8257 2.07224-1.91284 .6376-1.91284-.6376-3.8257-2.07224-1.91284-.9564-.31879-.31879 1.27522 0Z"/>
<path transform="matrix(1.00008,0,0,-1.00005,30.009362,131.63997)" d="M21.90616 68.23055H80.143367V80.325359H21.90616Z" fill="#ffffff"/>
<use data-text="I" xlink:href="#font_1_1" transform="matrix(9.963397,0,0,-9.963098,53.91027,61.41346)" fill="#ff0000"/>
<use data-text="=" xlink:href="#font_2_6" transform="matrix(9.963397,0,0,-9.963098,61.838907,61.41346)" fill="#ff0000"/>
<use data-text="1" xlink:href="#font_2_2" transform="matrix(9.963397,0,0,-9.963098,72.34033,61.41346)" fill="#ff0000"/>
<use data-text="3" xlink:href="#font_2_3" transform="matrix(9.963397,0,0,-9.963098,77.32202,61.41346)" fill="#ff0000"/>
<use data-text="7" xlink:href="#font_2_5" transform="matrix(9.963397,0,0,-9.963098,82.30371,61.41346)" fill="#ff0000"/>
<use data-text="0" xlink:href="#font_2_1" transform="matrix(9.963397,0,0,-9.963098,87.2854,61.41346)" fill="#ff0000"/>
<use data-text="d" xlink:href="#font_1_2" transform="matrix(9.963397,0,0,-9.963098,92.28334,61.41346)" fill="#ff0000"/>
<use data-text="&#x2212;" xlink:href="#font_3_1" transform="matrix(6.974358,0,0,-6.9741489,97.46875,57.798288)" fill="#ff0000"/>
<use data-text="2" xlink:href="#font_4_1" transform="matrix(6.974358,0,0,-6.9741489,103.69624,57.798288)" fill="#ff0000"/>
</svg>
