<svg xmlns="http://www.w3.org/2000/svg" xmlns:xlink="http://www.w3.org/1999/xlink" version="1.1" width="184" height="200" viewBox="0 0 184 200">
<defs>
<path id="font_1_1" d="M.33399964 .30233766C.33999635 .32835389 .36299134 .42037965 .43299867 .42037965 .43798829 .42037965 .46199037 .42037965 .48298646 .40734864 .45498658 .402359 .43499757 .37734986 .43499757 .35334779 .43499757 .33735658 .44599916 .31835938 .47299195 .31835938 .49499513 .31835938 .5269928 .3363495 .5269928 .37635804 .5269928 .42837525 .46798707 .4423828 .43399049 .4423828 .37599183 .4423828 .34098817 .38935853 .32899476 .36634828 .3039856 .43237306 .25 .4423828 .22099304 .4423828 .116989139 .4423828 .05999756 .3133545 .05999756 .28834535 .05999756 .27833558 .069992069 .27833558 .07199097 .27833558 .07998657 .27833558 .08299255 .28033448 .084991458 .28933717 .11898804 .39535523 .18499756 .42037965 .21899414 .42037965 .23799134 .42037965 .272995 .4113617 .272995 .35334779 .272995 .32235719 .2559967 .25532533 .21899414 .11528015 .20298767 .053268434 .16799927 .011245728 .12399292 .011245728 .117996219 .011245728 .09498596 .011245728 .07398987 .024276734 .09899902 .029266358 .12098694 .05027771 .12098694 .07827759 .12098694 .105270389 .09899902 .11328125 .083999637 .11328125 .053985597 .11328125 .0289917 .08728027 .0289917 .055267335 .0289917 .009246826 .07899475-.0107421879 .12298584-.0107421879 .18899536-.0107421879 .22499085 .059280397 .22799683 .0652771 .23999024 .028274537 .27598573-.0107421879 .33599855-.0107421879 .43899537-.0107421879 .49598695 .118270877 .49598695 .14328003 .49598695 .1532898 .4869995 .1532898 .48399354 .1532898 .47499085 .1532898 .47299195 .14929199 .47099305 .14228821 .43798829 .03527832 .36999513 .011245728 .33799745 .011245728 .29899598 .011245728 .2829895 .043273927 .2829895 .07727051 .2829895 .09927368 .2889862 .121276859 .2999878 .16529846L.33399964 .30233766Z"/>
<path id="font_1_2" d="M.48599244 .38136292C.48999024 .39537049 .48999024 .39736939 .48999024 .40437318 .48999024 .42237855 .47599793 .43138124 .46099855 .43138124 .45098878 .43138124 .43499757 .42536927 .42599488 .41036988 .42399598 .405365 .41600038 .37435914 .4119873 .35635377 .40499879 .33035279 .397995 .30334474 .3919983 .27633668L.34700013 .09628296C.34298707 .08126831 .2999878 .011245728 .23399353 .011245728 .18299866 .011245728 .17199707 .055267335 .17199707 .0922699 .17199707 .1382904 .18899536 .20030213 .22299195 .28833009 .23899842 .3293457 .24299622 .3403473 .24299622 .36035157 .24299622 .405365 .21099854 .4423828 .16099549 .4423828 .06599426 .4423828 .0289917 .29733277 .0289917 .28833009 .0289917 .27833558 .038986207 .27833558 .040985109 .27833558 .050994874 .27833558 .051986696 .28033448 .056991579 .29634095 .083999637 .3903656 .12399292 .42037965 .1579895 .42037965 .1659851 .42037965 .18299866 .42037965 .18299866 .3883667 .18299866 .36335755 .17298889 .3373413 .1659851 .31834413 .12599182 .21231079 .10798645 .1552887 .10798645 .10827637 .10798645 .019256592 .17098999-.0107421879 .22999573-.0107421879 .2689972-.0107421879 .30299378 .0062561037 .33099366 .03425598 .31799317-.017745972 .30599977-.06674194 .2659912-.11973572 .23999024-.15385437 .20199585-.18309021 .1559906-.18309021 .14199829-.18309021 .09700012-.18005371 .07998657-.14074707 .09599304-.14074707 .10899353-.14074707 .12298584-.1287384 .1329956-.11973572 .14299011-.10673523 .14299011-.08773804 .14299011-.056747438 .115997318-.052734376 .10598755-.052734376 .08299255-.052734376 .049987794-.068740848 .049987794-.11773682 .049987794-.16796875 .09399414-.20507813 .1559906-.20507813 .25898744-.20507813 .3619995-.11373901 .3899994-.00074768069L.48599244 .38136292Z"/>
<path id="font_2_1" d="M.6589966 .23046875C.6759949 .23046875 .69400027 .23046875 .69400027 .25045777 .69400027 .27046205 .6759949 .27046205 .6589966 .27046205H.117996219C.100997928 .27046205 .08299255 .27046205 .08299255 .25045777 .08299255 .23046875 .100997928 .23046875 .117996219 .23046875H.6589966Z"/>
<path id="font_3_3" d="M.2939911 .16503906V.07800293C.2939911 .041992189 .2919922 .0309906 .21798706 .0309906H.19699097V0C.23799134 .0029907227 .2899933 .0029907227 .33198548 .0029907227 .37399293 .0029907227 .4269867 .0029907227 .46798707 0V.0309906H.44699098C.37298585 .0309906 .37098695 .041992189 .37098695 .07800293V.16503906H.47099305V.19602967H.37098695V.65075686C.37098695 .67074587 .37098695 .6767578 .35499574 .6767578 .34599305 .6767578 .34298707 .6767578 .33499146 .66474917L.027999878 .19602967V.16503906H.2939911M.2999878 .19602967H.055999757L.2999878 .5688019V.19602967Z"/>
<path id="font_3_4" d="M.16299439 .4569702C.116989139 .486969 .11299133 .52098086 .11299133 .5379791 .11299133 .598999 .17799378 .64100649 .24899292 .64100649 .32199098 .64100649 .38598634 .58898928 .38598634 .51698306 .38598634 .45996095 .34700013 .4119568 .2869873 .37695313L.16299439 .4569702M.30899049 .36193849C.3809967 .3989563 .42999269 .45095826 .42999269 .51698306 .42999269 .6090088 .34098817 .6660156 .25 .6660156 .1499939 .6660156 .068984989 .59199526 .068984989 .49897767 .068984989 .4809723 .070999149 .43595887 .11299133 .38894654 .12399292 .37695313 .16099549 .35194398 .18598938 .33494569 .12799073 .30592347 .041992189 .24984741 .041992189 .15072632 .041992189 .04458618 .14399719-.022460938 .24899292-.022460938 .3619995-.022460938 .45700074 .06060791 .45700074 .16773987 .45700074 .20379639 .44599916 .24885559 .4079895 .2909088 .3889923 .31193543 .37298585 .3219452 .30899049 .36193849M.20899964 .3199463 .33198548 .24183655C.3600006 .2228241 .40699769 .19277954 .40699769 .13169861 .40699769 .05760193 .33198548 .0055389406 .25 .0055389406 .1639862 .0055389406 .09199524 .067611698 .09199524 .15072632 .09199524 .20880127 .12399292 .27288819 .20899964 .3199463Z"/>
<path id="font_3_1" d="M.2939911 .64004519C.2939911 .66400149 .2939911 .6660156 .2709961 .6660156 .20899964 .60227969 .12098694 .60227969 .08898926 .60227969V.57128909C.10899353 .57128909 .16799927 .57128909 .21998596 .5972748V.07902527C.21998596 .042999269 .21699524 .0309906 .1269989 .0309906H.09498596V0C.12998963 .0029907227 .21699524 .0029907227 .25698854 .0029907227 .29699708 .0029907227 .38398744 .0029907227 .4189911 0V.0309906H.3869934C.29699708 .0309906 .2939911 .041992189 .2939911 .07902527V.64004519Z"/>
<path id="font_3_2" d="M.1269989 .07699585 .23298645 .18003845C.3889923 .31811524 .44898988 .3721466 .44898988 .47216798 .44898988 .5860901 .35899354 .6660156 .23699951 .6660156 .12399292 .6660156 .049987794 .57411196 .049987794 .48516847 .049987794 .4291687 .099990848 .4291687 .102996829 .4291687 .11999512 .4291687 .15499878 .44117738 .15499878 .48217774 .15499878 .5081787 .13699341 .5341797 .101989749 .5341797 .09399414 .5341797 .09199524 .5341797 .08898926 .5331726 .11199951 .59806826 .1659851 .63500979 .22399903 .63500979 .31498719 .63500979 .35798646 .5541382 .35798646 .47216798 .35798646 .39215089 .30799867 .31311036 .25299073 .25108338L.06098938 .036987306C.049987794 .025985718 .049987794 .023986817 .049987794 0H.42099L.44898988 .17404175H.42399598C.4189911 .14402771 .4119873 .1000061 .4019928 .084991458 .394989 .07699585 .32899476 .07699585 .30699159 .07699585H.1269989Z"/>
</defs>
<path transform="matrix(1.00003,0,0,-1.00005,46.263,139.0663)" stroke-width=".3985" stroke-linecap="butt" stroke-miterlimit="10" stroke-linejoin="miter" fill="none" stroke="#cbcbcb" d="M-39.68622-59.52933H119.05867M-39.68622-39.68622H119.05867M-39.68622-19.84311H119.05867M-39.68622 0H119.05867M-39.68622 19.84311H119.05867M-39.68622 39.68622H119.05867M-39.68622 59.52933H119.05867M-39.68622 79.37244H119.05867M-39.68622 99.21555H119.05867M-39.68622 119.05518H119.05867M-39.68622-59.52933V119.05867M-19.84311-59.52933V119.05867M0-59.52933V119.05867M19.84311-59.52933V119.05867M39.68622-59.52933V119.05867M59.52933-59.52933V119.05867M79.37244-59.52933V119.05867M99.21555-59.52933V119.05867M119.05518-59.52933V119.05867M119.05867 119.05867"/>
<path transform="matrix(1.00003,0,0,-1.00005,46.263,139.0663)" stroke-width="1.19553" stroke-linecap="butt" stroke-miterlimit="10" stroke-linejoin="miter" fill="none" stroke="#000000" d="M-39.68622 0H125.12294"/>
<path transform="matrix(1.00003,0,0,-1.00005,171.38971,139.0663)" d="M1.27522 0C-.31879 .31879-1.91284 .9564-3.8257 2.07224-1.91284 .6376-1.91284-.6376-3.8257-2.07224-1.91284-.9564-.31879-.31879 1.27522 0Z"/>
<path transform="matrix(1.00003,0,0,-1.00005,171.38971,139.0663)" stroke-width="1.19553" stroke-linecap="butt" stroke-linejoin="round" fill="none" stroke="#000000" d="M1.27522 0C-.31879 .31879-1.91284 .9564-3.8257 2.07224-1.91284 .6376-1.91284-.6376-3.8257-2.07224-1.91284-.9564-.31879-.31879 1.27522 0Z"/>
<use data-text="x" xlink:href="#font_1_1" transform="matrix(9.962899,0,0,-9.963098,177.18094,141.21141)"/>
<path transform="matrix(1.00003,0,0,-1.00005,46.263,139.0663)" stroke-width="1.19553" stroke-linecap="butt" stroke-miterlimit="10" stroke-linejoin="miter" fill="none" stroke="#000000" d="M0-59.52933V125.12294"/>
<path transform="matrix(0,-1.00005,-1.00003,-0,46.263,13.937111)" d="M1.27522 0C-.31879 .31879-1.91284 .9564-3.8257 2.07224-1.91284 .6376-1.91284-.6376-3.8257-2.07224-1.91284-.9564-.31879-.31879 1.27522 0Z"/>
<path transform="matrix(0,-1.00005,-1.00003,-0,46.263,13.937111)" stroke-width="1.19553" stroke-linecap="butt" stroke-linejoin="round" fill="none" stroke="#000000" d="M1.27522 0C-.31879 .31879-1.91284 .9564-3.8257 2.07224-1.91284 .6376-1.91284-.6376-3.8257-2.07224-1.91284-.9564-.31879-.31879 1.27522 0Z"/>
<use data-text="y" xlink:href="#font_1_2" transform="matrix(9.962899,0,0,-9.963098,43.641923,6.208664)"/>
<path transform="matrix(1.00003,0,0,-1.00005,46.263,139.0663)" stroke-width=".3985" stroke-linecap="butt" stroke-miterlimit="10" stroke-linejoin="miter" fill="none" stroke="#000000" d="M-39.68622 1.48816V-1.48831"/>
<path transform="matrix(1.00003,0,0,-1.00005,46.263,139.0663)" d="M-47.0476-12.92334H-32.32482V-3.68011H-47.0476Z" fill="#ffffff"/>
<use data-text="&#x2212;" xlink:href="#font_2_1" transform="matrix(9.962899,0,0,-9.963098,.21061707,150.16385)"/>
<use data-text="4" xlink:href="#font_3_3" transform="matrix(9.962899,0,0,-9.963098,7.959854,150.16385)"/>
<path transform="matrix(1.00003,0,0,-1.00005,46.263,139.0663)" stroke-width=".3985" stroke-linecap="butt" stroke-miterlimit="10" stroke-linejoin="miter" fill="none" stroke="#000000" d="M1.48816-39.68622H-1.48831"/>
<path transform="matrix(1.00003,0,0,-1.00005,46.263,139.0663)" d="M-18.4029-44.30783H-3.6801205V-35.0646H-18.4029Z" fill="#ffffff"/>
<use data-text="&#x2212;" xlink:href="#font_2_1" transform="matrix(9.962899,0,0,-9.963098,28.855477,181.54943)"/>
<use data-text="4" xlink:href="#font_3_3" transform="matrix(9.962899,0,0,-9.963098,36.604715,181.54943)"/>
<path transform="matrix(1.00003,0,0,-1.00005,46.263,139.0663)" stroke-width=".3985" stroke-linecap="butt" stroke-miterlimit="10" stroke-linejoin="miter" fill="none" stroke="#000000" d="M39.68622 1.48816V-1.48831"/>
<path transform="matrix(1.00003,0,0,-1.00005,46.263,139.0663)" d="M36.19925-12.09311H43.173189V-3.68013H36.19925Z" fill="#ffffff"/>
<use data-text="4" xlink:href="#font_3_3" transform="matrix(9.962899,0,0,-9.963098,83.46011,150.16385)"/>
<path transform="matrix(1.00003,0,0,-1.00005,46.263,139.0663)" stroke-width=".3985" stroke-linecap="butt" stroke-miterlimit="10" stroke-linejoin="miter" fill="none" stroke="#000000" d="M1.48816 39.68622H-1.48831"/>
<path transform="matrix(1.00003,0,0,-1.00005,46.263,139.0663)" d="M-10.65405 35.47972H-3.68011V43.8927H-10.65405Z" fill="#ffffff"/>
<use data-text="4" xlink:href="#font_3_3" transform="matrix(9.962899,0,0,-9.963098,36.604715,102.58847)"/>
<path transform="matrix(1.00003,0,0,-1.00005,46.263,139.0663)" stroke-width=".3985" stroke-linecap="butt" stroke-miterlimit="10" stroke-linejoin="miter" fill="none" stroke="#000000" d="M79.37244 1.48816V-1.48831"/>
<path transform="matrix(1.00003,0,0,-1.00005,46.263,139.0663)" d="M75.88547-12.09311H82.859409V-3.68013H75.88547Z" fill="#ffffff"/>
<use data-text="8" xlink:href="#font_3_4" transform="matrix(9.962899,0,0,-9.963098,123.147319,150.16385)"/>
<path transform="matrix(1.00003,0,0,-1.00005,46.263,139.0663)" stroke-width=".3985" stroke-linecap="butt" stroke-miterlimit="10" stroke-linejoin="miter" fill="none" stroke="#000000" d="M1.48816 79.37244H-1.48831"/>
<path transform="matrix(1.00003,0,0,-1.00005,46.263,139.0663)" d="M-10.65405 75.16594H-3.68011V83.57892H-10.65405Z" fill="#ffffff"/>
<use data-text="8" xlink:href="#font_3_4" transform="matrix(9.962899,0,0,-9.963098,36.604715,62.90049)"/>
<path transform="matrix(1.00003,0,0,-1.00005,46.263,139.0663)" stroke-width=".3985" stroke-linecap="butt" stroke-miterlimit="10" stroke-linejoin="miter" fill="none" stroke="#000000" d="M119.05867 1.48816V-1.48831"/>
<path transform="matrix(1.00003,0,0,-1.00005,46.263,139.0663)" d="M113.081-12.09311H125.03634V-3.68013H113.081Z" fill="#ffffff"/>
<use data-text="1" xlink:href="#font_3_1" transform="matrix(9.962899,0,0,-9.963098,160.34343,150.16385)"/>
<use data-text="2" xlink:href="#font_3_2" transform="matrix(9.962899,0,0,-9.963098,165.32488,150.16385)"/>
<path transform="matrix(1.00003,0,0,-1.00005,46.263,139.0663)" stroke-width=".3985" stroke-linecap="butt" stroke-miterlimit="10" stroke-linejoin="miter" fill="none" stroke="#000000" d="M1.48816 119.05867H-1.48831"/>
<path transform="matrix(1.00003,0,0,-1.00005,46.263,139.0663)" d="M-15.63547 114.85217H-3.68013V123.26515H-15.63547Z" fill="#ffffff"/>
<use data-text="1" xlink:href="#font_3_1" transform="matrix(9.962899,0,0,-9.963098,31.623558,23.212517)"/>
<use data-text="2" xlink:href="#font_3_2" transform="matrix(9.962899,0,0,-9.963098,36.605005,23.212517)"/>
<path transform="matrix(1.00003,0,0,-1.00005,46.263,139.0663)" stroke-width="1.59404" stroke-linecap="butt" stroke-miterlimit="10" stroke-linejoin="miter" fill="none" stroke="#d73589" d="M9.92155-39.68622V99.21555H89.29399V-39.68622ZM89.29399 99.21555"/>
<path transform="matrix(1.00003,0,0,-1.00005,46.263,139.0663)" d="M11.90582 29.76466C11.90582 30.86055 11.01744 31.74893 9.92155 31.74893 8.82565 31.74893 7.93729 30.86055 7.93729 29.76466 7.93729 28.66876 8.82565 27.7804 9.92155 27.7804 11.01744 27.7804 11.90582 28.66876 11.90582 29.76466ZM9.92155 29.76466"/>
<path transform="matrix(1.00003,0,0,-1.00005,46.263,139.0663)" stroke-width=".3985" stroke-linecap="butt" stroke-miterlimit="10" stroke-linejoin="miter" fill="none" stroke="#000000" d="M11.90582 29.76466C11.90582 30.86055 11.01744 31.74893 9.92155 31.74893 8.82565 31.74893 7.93729 30.86055 7.93729 29.76466 7.93729 28.66876 8.82565 27.7804 9.92155 27.7804 11.01744 27.7804 11.90582 28.66876 11.90582 29.76466ZM9.92155 29.76466"/>
<path transform="matrix(1.00003,0,0,-1.00005,46.263,139.0663)" d="M91.27826 29.76466C91.27826 30.86055 90.3899 31.74893 89.29399 31.74893 88.1981 31.74893 87.30972 30.86055 87.30972 29.76466 87.30972 28.66876 88.1981 27.7804 89.29399 27.7804 90.3899 27.7804 91.27826 28.66876 91.27826 29.76466ZM89.29399 29.76466"/>
<path transform="matrix(1.00003,0,0,-1.00005,46.263,139.0663)" stroke-width=".3985" stroke-linecap="butt" stroke-miterlimit="10" stroke-linejoin="miter" fill="none" stroke="#000000" d="M91.27826 29.76466C91.27826 30.86055 90.3899 31.74893 89.29399 31.74893 88.1981 31.74893 87.30972 30.86055 87.30972 29.76466 87.30972 28.66876 88.1981 27.7804 89.29399 27.7804 90.3899 27.7804 91.27826 28.66876 91.27826 29.76466ZM89.29399 29.76466"/>
<path transform="matrix(1.00003,0,0,-1.00005,46.263,139.0663)" d="M51.59204 99.21555C51.59204 100.31145 50.70367 101.19981 49.60777 101.19981 48.51187 101.19981 47.6235 100.31145 47.6235 99.21555 47.6235 98.11966 48.51187 97.23128 49.60777 97.23128 50.70367 97.23128 51.59204 98.11966 51.59204 99.21555ZM49.60777 99.21555"/>
<path transform="matrix(1.00003,0,0,-1.00005,46.263,139.0663)" stroke-width=".3985" stroke-linecap="butt" stroke-miterlimit="10" stroke-linejoin="miter" fill="none" stroke="#000000" d="M51.59204 99.21555C51.59204 100.31145 50.70367 101.19981 49.60777 101.19981 48.51187 101.19981 47.6235 100.31145 47.6235 99.21555 47.6235 98.11966 48.51187 97.23128 49.60777 97.23128 50.70367 97.23128 51.59204 98.11966 51.59204 99.21555ZM49.60777 99.21555"/>
<path transform="matrix(1.00003,0,0,-1.00005,46.263,139.0663)" d="M51.59204-39.68622C51.59204-38.59032 50.70367-37.70195 49.60777-37.70195 48.51187-37.70195 47.6235-38.59032 47.6235-39.68622 47.6235-40.7821 48.51187-41.67049 49.60777-41.67049 50.70367-41.67049 51.59204-40.7821 51.59204-39.68622ZM49.60777-39.68622"/>
<path transform="matrix(1.00003,0,0,-1.00005,46.263,139.0663)" stroke-width=".3985" stroke-linecap="butt" stroke-miterlimit="10" stroke-linejoin="miter" fill="none" stroke="#000000" d="M51.59204-39.68622C51.59204-38.59032 50.70367-37.70195 49.60777-37.70195 48.51187-37.70195 47.6235-38.59032 47.6235-39.68622 47.6235-40.7821 48.51187-41.67049 49.60777-41.67049 50.70367-41.67049 51.59204-40.7821 51.59204-39.68622ZM49.60777-39.68622"/>
<path transform="matrix(1.00003,0,0,-1.00005,46.263,139.0663)" stroke-width=".79701" stroke-linecap="butt" stroke-miterlimit="10" stroke-linejoin="miter" fill="none" stroke="#0000ff" d="M-.7056 117.81316 99.92116-58.28381"/>
<path transform="matrix(-.4961249,-.8682434,-.8682261,.49613477,45.5574,21.247277)" d="M1.0361 0C-.25902 .25902-1.55415 .77707-3.1083 1.68365-1.55415 .51805-1.55415-.51805-3.1083-1.68365-1.55415-.77707-.25902-.25902 1.0361 0Z" fill="#0000ff"/>
<path transform="matrix(-.4961249,-.8682434,-.8682261,.49613477,45.5574,21.247277)" stroke-width=".79701" stroke-linecap="butt" stroke-linejoin="round" fill="none" stroke="#0000ff" d="M1.0361 0C-.25902 .25902-1.55415 .77707-3.1083 1.68365-1.55415 .51805-1.55415-.51805-3.1083-1.68365-1.55415-.77707-.25902-.25902 1.0361 0Z"/>
<path transform="matrix(.4961249,.8682434,.8682261,-.49613477,146.18714,197.35301)" d="M1.0361 0C-.25902 .25902-1.55415 .77707-3.1083 1.68365-1.55415 .51805-1.55415-.51805-3.1083-1.68365-1.55415-.77707-.25902-.25902 1.0361 0Z" fill="#0000ff"/>
<path transform="matrix(.4961249,.8682434,.8682261,-.49613477,146.18714,197.35301)" stroke-width=".79701" stroke-linecap="butt" stroke-linejoin="round" fill="none" stroke="#0000ff" d="M1.0361 0C-.25902 .25902-1.55415 .77707-3.1083 1.68365-1.55415 .51805-1.55415-.51805-3.1083-1.68365-1.55415-.77707-.25902-.25902 1.0361 0Z"/>
<path transform="matrix(1.00003,0,0,-1.00005,46.263,139.0663)" stroke-width=".79701" stroke-linecap="butt" stroke-miterlimit="10" stroke-linejoin="miter" fill="none" stroke="#0000ff" d="M99.92116 117.81316-.7056-58.28381"/>
<path transform="matrix(.4961249,-.8682434,-.8682261,-.49613477,146.18714,21.247277)" d="M1.0361 0C-.25902 .25902-1.55415 .77707-3.1083 1.68365-1.55415 .51805-1.55415-.51805-3.1083-1.68365-1.55415-.77707-.25902-.25902 1.0361 0Z" fill="#0000ff"/>
<path transform="matrix(.4961249,-.8682434,-.8682261,-.49613477,146.18714,21.247277)" stroke-width=".79701" stroke-linecap="butt" stroke-linejoin="round" fill="none" stroke="#0000ff" d="M1.0361 0C-.25902 .25902-1.55415 .77707-3.1083 1.68365-1.55415 .51805-1.55415-.51805-3.1083-1.68365-1.55415-.77707-.25902-.25902 1.0361 0Z"/>
<path transform="matrix(-.4961249,.8682434,.8682261,.49613477,45.5574,197.35301)" d="M1.0361 0C-.25902 .25902-1.55415 .77707-3.1083 1.68365-1.55415 .51805-1.55415-.51805-3.1083-1.68365-1.55415-.77707-.25902-.25902 1.0361 0Z" fill="#0000ff"/>
<path transform="matrix(-.4961249,.8682434,.8682261,.49613477,45.5574,197.35301)" stroke-width=".79701" stroke-linecap="butt" stroke-linejoin="round" fill="none" stroke="#0000ff" d="M1.0361 0C-.25902 .25902-1.55415 .77707-3.1083 1.68365-1.55415 .51805-1.55415-.51805-3.1083-1.68365-1.55415-.77707-.25902-.25902 1.0361 0Z"/>
<path transform="matrix(1.00003,0,0,-1.00005,46.263,139.0663)" d="M51.59204 29.76466C51.59204 30.86055 50.70367 31.74893 49.60777 31.74893 48.51187 31.74893 47.6235 30.86055 47.6235 29.76466 47.6235 28.66876 48.51187 27.7804 49.60777 27.7804 50.70367 27.7804 51.59204 28.66876 51.59204 29.76466ZM49.60777 29.76466" fill="#ff0000"/>
<path transform="matrix(1.00003,0,0,-1.00005,46.263,139.0663)" stroke-width=".3985" stroke-linecap="butt" stroke-miterlimit="10" stroke-linejoin="miter" fill="none" stroke="#ff0000" d="M51.59204 29.76466C51.59204 30.86055 50.70367 31.74893 49.60777 31.74893 48.51187 31.74893 47.6235 30.86055 47.6235 29.76466 47.6235 28.66876 48.51187 27.7804 49.60777 27.7804 50.70367 27.7804 51.59204 28.66876 51.59204 29.76466ZM49.60777 29.76466"/>
</svg>
