<?xml version="1.0" encoding="UTF-8"?>
<svg xmlns="http://www.w3.org/2000/svg" xmlns:xlink="http://www.w3.org/1999/xlink" width="159pt" height="135pt" viewBox="0 0 159 135" version="1.1">
<g id="surface1">
<path style="fill:none;stroke-width:0.3985;stroke-linecap:butt;stroke-linejoin:miter;stroke:rgb(0%,67.83905%,93.728638%);stroke-opacity:1;stroke-miterlimit:10;" d="M -0.00003125 0.001375 L 136.066375 0.001375 M -0.00003125 28.345125 L 136.066375 28.345125 M -0.00003125 56.692781 L 136.066375 56.692781 M -0.00003125 85.040437 L 136.066375 85.040437 M -0.00003125 113.376375 L 136.066375 113.376375 M -0.00003125 0.001375 L -0.00003125 113.388094 M 45.355437 0.001375 L 45.355437 113.388094 M 90.710906 0.001375 L 90.710906 113.388094 M 136.05075 0.001375 L 136.05075 113.388094 " transform="matrix(1,0,0,-1,3.293,131.392)"/>
<path style="fill:none;stroke-width:0.79701;stroke-linecap:butt;stroke-linejoin:miter;stroke:rgb(0%,0%,0%);stroke-opacity:1;stroke-miterlimit:10;" d="M -0.00003125 0.001375 L 152.773406 0.001375 " transform="matrix(1,0,0,-1,3.293,131.392)"/>
<path style="fill-rule:nonzero;fill:rgb(0%,0%,0%);fill-opacity:1;stroke-width:0.79701;stroke-linecap:butt;stroke-linejoin:round;stroke:rgb(0%,0%,0%);stroke-opacity:1;stroke-miterlimit:10;" d="M 1.036242 0.001375 C -0.260633 0.259187 -1.553601 0.778719 -3.108289 1.684969 C -1.553601 0.517 -1.553601 -0.518156 -3.108289 -1.682219 C -1.553601 -0.775969 -0.260633 -0.260344 1.036242 0.001375 Z M 1.036242 0.001375 " transform="matrix(1,0,0,-1,156.06532,131.392)"/>
<path style="fill:none;stroke-width:0.79701;stroke-linecap:butt;stroke-linejoin:miter;stroke:rgb(0%,0%,0%);stroke-opacity:1;stroke-miterlimit:10;" d="M -0.00003125 0.001375 L -0.00003125 128.962312 " transform="matrix(1,0,0,-1,3.293,131.392)"/>
<path style="fill-rule:nonzero;fill:rgb(0%,0%,0%);fill-opacity:1;stroke-width:0.79701;stroke-linecap:butt;stroke-linejoin:round;stroke:rgb(0%,0%,0%);stroke-opacity:1;stroke-miterlimit:10;" d="M 1.036609 0.00003125 C -0.260266 0.257844 -1.553235 0.777375 -3.107923 1.683625 C -1.553235 0.519563 -1.553235 -0.5195 -3.107923 -1.683562 C -1.553235 -0.777312 -0.260266 -0.257781 1.036609 0.00003125 Z M 1.036609 0.00003125 " transform="matrix(0,-1,-1,0,3.293,2.43114)"/>
<path style="fill:none;stroke-width:1.19553;stroke-linecap:butt;stroke-linejoin:miter;stroke:rgb(0%,0%,100%);stroke-opacity:1;stroke-miterlimit:10;" d="M -0.00003125 0.001375 C -0.00003125 0.001375 1.023406 0.001375 1.417937 0.001375 C 1.808562 0.001375 2.441375 0.001375 2.832 0.001375 C 3.226531 0.00528125 3.855437 0.0091875 4.249969 0.0130937 C 4.6445 0.0130937 5.273406 0.0209062 5.667937 0.0287187 C 6.058562 0.032625 6.691375 0.0443437 7.082 0.0521562 C 7.476531 0.063875 8.105437 0.0795 8.499969 0.0912187 C 8.8945 0.106844 9.523406 0.130281 9.917937 0.149812 C 10.308562 0.165437 10.941375 0.196687 11.332 0.220125 C 11.726531 0.243562 12.355437 0.286531 12.749969 0.313875 C 13.1445 0.345125 13.773406 0.395906 14.167937 0.431062 C 14.558562 0.466219 15.191375 0.532625 15.582 0.575594 C 15.976531 0.618562 16.605437 0.692781 16.999969 0.747469 C 17.3945 0.79825 18.023406 0.888094 18.417937 0.946687 C 18.808562 1.009187 19.441375 1.114656 19.832 1.184969 C 20.226531 1.255281 20.855437 1.376375 21.249969 1.458406 C 21.6445 1.536531 22.273406 1.677156 22.667937 1.770906 C 23.058562 1.86075 23.691375 2.017 24.082 2.122469 C 24.476531 2.224031 25.105437 2.403719 25.499969 2.517 C 25.8945 2.634187 26.523406 2.833406 26.917937 2.962312 C 27.308562 3.091219 27.941375 3.309969 28.332 3.4545 C 28.726531 3.599031 29.355437 3.841219 29.749969 4.001375 C 30.1445 4.157625 30.773406 4.42325 31.167937 4.599031 C 31.558562 4.770906 32.191375 5.063875 32.582 5.255281 C 32.976531 5.446687 33.605437 5.763094 33.999969 5.970125 C 34.3945 6.177156 35.023406 6.524812 35.417937 6.747469 C 35.808562 6.974031 36.441375 7.349031 36.832 7.591219 C 37.226531 7.833406 37.855437 8.239656 38.249969 8.501375 C 38.6445 8.763094 39.273406 9.200594 39.667937 9.481844 C 40.058562 9.763094 40.691375 10.231844 41.082 10.532625 C 41.476531 10.837312 42.105437 11.337312 42.499969 11.661531 C 42.8945 11.98575 43.523406 12.520906 43.917937 12.864656 C 44.308562 13.212312 44.941375 13.782625 45.332 14.153719 C 45.726531 14.520906 46.355437 15.130281 46.749969 15.520906 C 47.1445 15.911531 47.773406 16.559969 48.167937 16.974031 C 48.558562 17.392 49.191375 18.075594 49.582 18.517 C 49.976531 18.958406 50.605437 19.684969 50.999969 20.149812 C 51.3945 20.618562 52.023406 21.384187 52.417937 21.876375 C 52.808562 22.368562 53.441375 23.181062 53.832 23.700594 C 54.226531 24.220125 54.855437 25.071687 55.249969 25.618562 C 55.6445 26.165437 56.273406 27.067781 56.667937 27.642 C 57.058562 28.216219 57.691375 29.161531 58.082 29.767 C 58.476531 30.372469 59.105437 31.364656 59.499969 31.997469 C 59.8945 32.634187 60.523406 33.67325 60.917937 34.337312 C 61.308562 35.005281 61.941375 36.095125 62.332 36.790437 C 62.726531 37.48575 63.355437 38.630281 63.749969 39.356844 C 64.140594 40.083406 64.773406 41.278719 65.167937 42.040437 C 65.558562 42.79825 66.191375 44.04825 66.582 44.841219 C 66.976531 45.634187 67.605437 46.934969 67.999969 47.767 C 68.390594 48.595125 69.023406 49.950594 69.417937 50.813875 C 69.808562 51.677156 70.441375 53.087312 70.832 53.98575 C 71.226531 54.888094 71.855437 56.356844 72.249969 57.290437 C 72.640594 58.227937 73.273406 59.755281 73.664031 60.727937 C 74.058562 61.700594 74.691375 63.290437 75.082 64.302156 C 75.476531 65.309969 76.105437 66.958406 76.499969 68.009187 C 76.890594 69.056062 77.523406 70.770906 77.914031 71.856844 C 78.308562 72.946687 78.941375 74.720125 79.332 75.849031 C 79.726531 76.977937 80.355437 78.817781 80.749969 79.98575 C 81.140594 81.153719 81.773406 83.059969 82.164031 84.270906 C 82.558562 85.477937 83.191375 87.450594 83.582 88.7045 C 83.976531 89.9545 84.605437 91.997469 84.999969 93.290437 C 85.390594 94.587312 86.023406 96.696687 86.414031 98.032625 C 86.808562 99.372469 87.437469 101.552156 87.832 102.934969 C 88.226531 104.317781 88.855437 106.567781 89.249969 107.997469 C 89.640594 109.42325 90.664031 113.220125 90.179656 111.411531 " transform="matrix(1,0,0,-1,3.293,131.392)"/>
<path style="fill-rule:nonzero;fill:rgb(0%,0%,100%);fill-opacity:1;stroke-width:1.19553;stroke-linecap:butt;stroke-linejoin:round;stroke:rgb(0%,0%,100%);stroke-opacity:1;stroke-miterlimit:10;" d="M 1.277459 -0.000841611 C -0.317459 0.3178 -1.913471 0.955759 -3.824271 2.071238 C -1.912378 0.636442 -1.912796 -0.638068 -3.824433 -2.071608 C -1.911704 -0.957384 -0.320063 -0.318077 1.277459 -0.000841611 Z M 1.277459 -0.000841611 " transform="matrix(0.2602,-0.96553,-0.96553,-0.2602,93.47148,19.9793)"/>
<path style="fill:none;stroke-width:1.19553;stroke-linecap:butt;stroke-linejoin:miter;stroke:rgb(100%,0%,0%);stroke-opacity:1;stroke-miterlimit:10;" d="M -0.00003125 0.001375 C -0.00003125 0.001375 1.449187 0.0130937 2.003875 0.0287187 C 2.558562 0.0443437 3.453094 0.0795 4.007781 0.11075 C 4.566375 0.142 5.457 0.2045 6.011687 0.247469 C 6.570281 0.294344 7.460906 0.380281 8.015594 0.442781 C 8.574187 0.505281 9.464812 0.614656 10.0195 0.692781 C 10.578094 0.767 11.468719 0.903719 12.023406 0.997469 C 12.582 1.087312 13.472625 1.247469 14.031219 1.356844 C 14.585906 1.462312 15.476531 1.649812 16.035125 1.770906 C 16.589812 1.895906 17.480437 2.102937 18.039031 2.239656 C 18.593719 2.380281 19.484344 2.614656 20.042937 2.767 C 20.597625 2.919344 21.48825 3.181062 22.046844 3.349031 C 22.601531 3.517 23.496062 3.802156 24.05075 3.98575 C 24.605437 4.169344 25.499969 4.477937 26.054656 4.677156 C 26.609344 4.876375 27.503875 5.208406 28.058562 5.42325 C 28.61325 5.638094 29.507781 5.997469 30.062469 6.227937 C 30.621062 6.458406 31.511687 6.837312 32.066375 7.083406 C 32.624969 7.3295 33.515594 7.73575 34.070281 7.997469 C 34.628875 8.259187 35.5195 8.688875 36.074187 8.966219 C 36.632781 9.243562 37.523406 9.700594 38.082 9.989656 C 38.636687 10.282625 39.527312 10.763094 40.085906 11.071687 C 40.640594 11.376375 41.531219 11.884187 42.089812 12.2045 C 42.6445 12.528719 43.535125 13.056062 44.093719 13.395906 C 44.648406 13.731844 45.539031 14.286531 46.097625 14.642 C 46.652312 14.993562 47.546844 15.571687 48.101531 15.942781 C 48.656219 16.309969 49.55075 16.915437 50.105437 17.29825 C 50.660125 17.681062 51.554656 18.309969 52.109344 18.708406 C 52.664031 19.106844 53.558562 19.763094 54.11325 20.177156 C 54.671844 20.591219 55.562469 21.267 56.117156 21.696687 C 56.67575 22.126375 57.566375 22.8295 58.121062 23.274812 C 58.679656 23.720125 59.570281 24.446687 60.124969 24.907625 C 60.683562 25.368562 61.574187 26.122469 62.128875 26.595125 C 62.687469 27.071687 63.578094 27.849031 64.136687 28.341219 C 64.691375 28.833406 65.582 29.634187 66.140594 30.138094 C 66.695281 30.645906 67.585906 31.470125 68.1445 31.993562 C 68.699187 32.517 69.589812 33.364656 70.148406 33.903719 C 70.703094 34.442781 71.593719 35.313875 72.152312 35.868562 C 72.707 36.42325 73.601531 37.321687 74.156219 37.888094 C 74.710906 38.458406 75.605437 39.380281 76.160125 39.966219 C 76.714812 40.54825 77.609344 41.497469 78.164031 42.095125 C 78.718719 42.696687 79.61325 43.669344 80.167937 44.282625 C 80.726531 44.895906 81.617156 45.895906 82.171844 46.524812 C 82.730437 47.153719 83.621062 48.177156 84.17575 48.821687 C 84.734344 49.466219 85.624969 50.513094 86.179656 51.17325 C 86.73825 51.833406 87.628875 52.903719 88.183562 53.583406 C 88.742156 54.259187 89.632781 55.352937 90.191375 56.044344 C 90.746062 56.73575 91.636687 57.856844 92.195281 58.563875 C 92.749969 59.270906 93.640594 60.415437 94.199187 61.138094 C 94.753875 61.86075 95.6445 63.028719 96.203094 63.767 C 96.757781 64.505281 97.652312 65.696687 98.207 66.450594 C 98.761687 67.2045 99.656219 68.42325 100.210906 69.192781 C 100.765594 69.958406 101.660125 71.2045 102.214812 71.98575 C 102.7695 72.770906 103.664031 74.040437 104.218719 74.837312 C 104.773406 75.634187 105.667937 76.927156 106.222625 77.743562 C 106.781219 78.556062 107.671844 79.876375 108.226531 80.7045 C 108.785125 81.532625 109.67575 82.876375 110.230437 83.720125 C 110.789031 84.567781 111.679656 85.934969 112.234344 86.794344 C 112.792937 87.653719 113.683562 89.044344 114.242156 89.919344 C 114.796844 90.794344 115.687469 92.212312 116.246062 93.102937 C 116.80075 93.993562 117.691375 95.434969 118.249969 96.341219 C 118.804656 97.247469 119.695281 98.712312 120.253875 99.634187 C 120.808562 100.556062 121.699187 102.04825 122.257781 102.98575 C 122.812469 103.919344 123.707 105.434969 124.261687 106.388094 C 124.816375 107.341219 125.710906 108.880281 126.265594 109.849031 C 126.820281 110.813875 128.2695 113.364656 127.343719 111.73575 " transform="matrix(1,0,0,-1,3.293,131.392)"/>
<path style="fill-rule:nonzero;fill:rgb(100%,0%,0%);fill-opacity:1;stroke-width:1.19553;stroke-linecap:butt;stroke-linejoin:round;stroke:rgb(100%,0%,0%);stroke-opacity:1;stroke-miterlimit:10;" d="M 1.275899 0.00243816 C -0.318953 0.318158 -1.913543 0.957547 -3.827318 2.07155 C -1.912339 0.639204 -1.914316 -0.638031 -3.827181 -2.071242 C -1.913111 -0.956375 -0.319941 -0.32046 1.275899 0.00243816 Z M 1.275899 0.00243816 " transform="matrix(0.49411,-0.86934,-0.86934,-0.49411,130.63731,19.65727)"/>
</g>
</svg>
