<svg xmlns="http://www.w3.org/2000/svg" xmlns:xlink="http://www.w3.org/1999/xlink" version="1.1" width="225" height="226" viewBox="0 0 225 226">
<defs>
<path id="font_1_2" d="M.33399964 .30233766C.33999635 .32835389 .36299134 .42037965 .43299867 .42037965 .43798829 .42037965 .46199037 .42037965 .48298646 .40734864 .45498658 .402359 .43499757 .37734986 .43499757 .35334779 .43499757 .33735658 .44599916 .31835938 .47299195 .31835938 .49499513 .31835938 .5269928 .3363495 .5269928 .37635804 .5269928 .42837525 .46798707 .4423828 .43399049 .4423828 .37599183 .4423828 .34098817 .38935853 .32899476 .36634828 .3039856 .43237306 .25 .4423828 .22099304 .4423828 .116989139 .4423828 .05999756 .3133545 .05999756 .28834535 .05999756 .27833558 .069992069 .27833558 .07199097 .27833558 .07998657 .27833558 .08299255 .28033448 .084991458 .28933717 .11898804 .39535523 .18499756 .42037965 .21899414 .42037965 .23799134 .42037965 .272995 .4113617 .272995 .35334779 .272995 .32235719 .2559967 .25532533 .21899414 .11528015 .20298767 .053268434 .16799927 .011245728 .12399292 .011245728 .117996219 .011245728 .09498596 .011245728 .07398987 .024276734 .09899902 .029266358 .12098694 .05027771 .12098694 .07827759 .12098694 .105270389 .09899902 .11328125 .083999637 .11328125 .053985597 .11328125 .0289917 .08728027 .0289917 .055267335 .0289917 .009246826 .07899475-.0107421879 .12298584-.0107421879 .18899536-.0107421879 .22499085 .059280397 .22799683 .0652771 .23999024 .028274537 .27598573-.0107421879 .33599855-.0107421879 .43899537-.0107421879 .49598695 .118270877 .49598695 .14328003 .49598695 .1532898 .4869995 .1532898 .48399354 .1532898 .47499085 .1532898 .47299195 .14929199 .47099305 .14228821 .43798829 .03527832 .36999513 .011245728 .33799745 .011245728 .29899598 .011245728 .2829895 .043273927 .2829895 .07727051 .2829895 .09927368 .2889862 .121276859 .2999878 .16529846L.33399964 .30233766Z"/>
<path id="font_1_3" d="M.48599244 .38136292C.48999024 .39537049 .48999024 .39736939 .48999024 .40437318 .48999024 .42237855 .47599793 .43138124 .46099855 .43138124 .45098878 .43138124 .43499757 .42536927 .42599488 .41036988 .42399598 .405365 .41600038 .37435914 .4119873 .35635377 .40499879 .33035279 .397995 .30334474 .3919983 .27633668L.34700013 .09628296C.34298707 .08126831 .2999878 .011245728 .23399353 .011245728 .18299866 .011245728 .17199707 .055267335 .17199707 .0922699 .17199707 .1382904 .18899536 .20030213 .22299195 .28833009 .23899842 .3293457 .24299622 .3403473 .24299622 .36035157 .24299622 .405365 .21099854 .4423828 .16099549 .4423828 .06599426 .4423828 .0289917 .29733277 .0289917 .28833009 .0289917 .27833558 .038986207 .27833558 .040985109 .27833558 .050994874 .27833558 .051986696 .28033448 .056991579 .29634095 .083999637 .3903656 .12399292 .42037965 .1579895 .42037965 .1659851 .42037965 .18299866 .42037965 .18299866 .3883667 .18299866 .36335755 .17298889 .3373413 .1659851 .31834413 .12599182 .21231079 .10798645 .1552887 .10798645 .10827637 .10798645 .019256592 .17098999-.0107421879 .22999573-.0107421879 .2689972-.0107421879 .30299378 .0062561037 .33099366 .03425598 .31799317-.017745972 .30599977-.06674194 .2659912-.11973572 .23999024-.15385437 .20199585-.18309021 .1559906-.18309021 .14199829-.18309021 .09700012-.18005371 .07998657-.14074707 .09599304-.14074707 .10899353-.14074707 .12298584-.1287384 .1329956-.11973572 .14299011-.10673523 .14299011-.08773804 .14299011-.056747438 .115997318-.052734376 .10598755-.052734376 .08299255-.052734376 .049987794-.068740848 .049987794-.11773682 .049987794-.16796875 .09399414-.20507813 .1559906-.20507813 .25898744-.20507813 .3619995-.11373901 .3899994-.00074768069L.48599244 .38136292Z"/>
<path id="font_2_1" d="M.6589966 .23046875C.6759949 .23046875 .69400027 .23046875 .69400027 .25045777 .69400027 .27046205 .6759949 .27046205 .6589966 .27046205H.117996219C.100997928 .27046205 .08299255 .27046205 .08299255 .25045777 .08299255 .23046875 .100997928 .23046875 .117996219 .23046875H.6589966Z"/>
<path id="font_3_2" d="M.44898988 .20022583C.44898988 .3193512 .36698915 .41944886 .25898744 .41944886 .21099854 .41944886 .16799927 .40345765 .13198853 .36842347V.5637665C.1519928 .5577698 .18499756 .55078127 .21699524 .55078127 .33999635 .55078127 .4099884 .6417694 .4099884 .6547699 .4099884 .6607666 .40699769 .6657715 .3999939 .6657715 .39898683 .6657715 .39698792 .6657715 .3919983 .66278079 .37199403 .6537781 .32299806 .6337738 .2559967 .6337738 .21598816 .6337738 .16999817 .6407776 .12298584 .6617737 .114990238 .66477969 .11299133 .66477969 .11099243 .66477969 .100997928 .66477969 .100997928 .6567688 .100997928 .6407776V.34439088C.100997928 .32637025 .100997928 .31835938 .114990238 .31835938 .12199402 .31835938 .12399292 .32136537 .12799073 .32736207 .13899231 .3433838 .17599488 .39746095 .25698854 .39746095 .30899049 .39746095 .33399964 .35139466 .34199525 .33337403 .35798646 .29632569 .3600006 .25727845 .3600006 .20722962 .3600006 .17222595 .3600006 .11222839 .33599855 .07035828 .31199647 .031463624 .2749939 .0055389406 .22898865 .0055389406 .1559906 .0055389406 .09899902 .058380128 .08198547 .11723328 .084991458 .1162262 .08799744 .115234378 .09899902 .115234378 .13198853 .115234378 .14898682 .14022827 .14898682 .16423035 .14898682 .18823242 .13198853 .21322632 .09899902 .21322632 .084991458 .21322632 .049987794 .20622254 .049987794 .16023255 .049987794 .07434082 .11898804-.022460938 .23098755-.022460938 .34700013-.022460938 .44898988 .073349 .44898988 .20022583Z"/>
<path id="font_1_1" d="M.30299378 .3244629H.3999939C.47499085 .3244629 .48298646 .30848695 .48298646 .27954103 .48298646 .2725525 .48298646 .26057435 .47599793 .2306366 .47399903 .22564698 .47299195 .22164917 .47299195 .21965027 .47299195 .21166992 .47898866 .20767212 .4850006 .20767212 .49499513 .20767212 .49499513 .21066284 .5 .2286377L.5549927 .44551087C.55799868 .45651246 .55799868 .45851136 .55799868 .46151734 .55799868 .46351625 .55599978 .47251893 .54599 .47251893 .5359955 .47251893 .5349884 .46751405 .5309906 .45150758 .5099945 .37347413 .4869995 .35546876 .4019928 .35546876H.31098939L.375 .6095886C.38398744 .64460757 .3849945 .64860537 .42900086 .64860537H.5609894C.6839905 .64860537 .70700076 .6156006 .70700076 .53855898 .70700076 .5155487 .70700076 .51153567 .70399478 .4845276 .70199587 .4715271 .70199587 .46951295 .70199587 .46652223 .70199587 .46151734 .7049866 .45451356 .71398928 .45451356 .72499087 .45451356 .7259979 .46051026 .7279968 .4795227L.7480011 .65260317C.7509918 .6796112 .74598696 .6796112 .72099307 .6796112H.23098755C.21099854 .6796112 .20098877 .6796112 .20098877 .65960696 .20098877 .64860537 .20999146 .64860537 .22898865 .64860537 .2659912 .64860537 .2939911 .64860537 .2939911 .6306 .2939911 .6266022 .2939911 .6246033 .2889862 .60658267L.15699768 .07791138C.14698792 .038970949 .14498902 .0309906 .06599426 .0309906 .04899597 .0309906 .037994386 .0309906 .037994386 .011993408 .037994386 0 .049987794 0 .052993776 0 .08198547 0 .1559906 .0029907227 .18499756 .0029907227 .21798706 .0029907227 .30099488 0 .33399964 0 .34298707 0 .35499574 0 .35499574 .018997193 .35499574 .026992798 .34899903 .0289917 .34899903 .02999878 .34599305 .0309906 .34399415 .0309906 .32099916 .0309906 .29899598 .0309906 .2939911 .0309906 .2689972 .032989503 .23999024 .035980226 .23699951 .039978029 .23699951 .052947999 .23699951 .0549469 .23699951 .060943605 .24099732 .075912479L.30299378 .3244629Z"/>
<path id="font_4_1" d="M.33499146 .63612368C.33499146 .6630554 .33299256 .6640625 .30499269 .6640625 .24099732 .6014404 .1499939 .6004486 .10899353 .6004486V.5644531C.1329956 .5644531 .19898987 .5644531 .2539978 .592453V.08203125C.2539978 .04899597 .2539978 .035995485 .1539917 .035995485H.115997318V0C.13398743 .0009918213 .25698854 .0039978029 .2939911 .0039978029 .32499696 .0039978029 .45098878 .0009918213 .47299195 0V.035995485H.43499757C.33499146 .035995485 .33499146 .04899597 .33499146 .08203125V.63612368Z"/>
<path id="font_4_2" d="M.5049896 .18203736H.47099305C.46798707 .16001892 .45799256 .100997928 .44499208 .09098816 .43699647 .084991458 .3600006 .084991458 .34599305 .084991458H.1619873C.2669983 .17803955 .3019867 .20603943 .3619995 .25306703 .43598939 .312088 .5049896 .374115 .5049896 .46914674 .5049896 .5900879 .39898683 .6640625 .2709961 .6640625 .14698792 .6640625 .06298828 .57710269 .06298828 .4851532 .06298828 .43414308 .10598755 .42915345 .115997318 .42915345 .13999939 .42915345 .16899109 .44615174 .16899109 .48214723 .16899109 .5001526 .1619873 .53515627 .10998535 .53515627 .14099121 .6060791 .20899964 .62805178 .2559967 .62805178 .35598756 .62805178 .4079895 .5501404 .4079895 .46914674 .4079895 .38212586 .34599305 .3130951 .31399537 .27708436L.07299805 .038986207C.06298828 .02999878 .06298828 .027999878 .06298828 0H.47499085L.5049896 .18203736Z"/>
<path id="font_3_3" d="M.16299439 .4569702C.116989139 .486969 .11299133 .52098086 .11299133 .5379791 .11299133 .598999 .17799378 .64100649 .24899292 .64100649 .32199098 .64100649 .38598634 .58898928 .38598634 .51698306 .38598634 .45996095 .34700013 .4119568 .2869873 .37695313L.16299439 .4569702M.30899049 .36193849C.3809967 .3989563 .42999269 .45095826 .42999269 .51698306 .42999269 .6090088 .34098817 .6660156 .25 .6660156 .1499939 .6660156 .068984989 .59199526 .068984989 .49897767 .068984989 .4809723 .070999149 .43595887 .11299133 .38894654 .12399292 .37695313 .16099549 .35194398 .18598938 .33494569 .12799073 .30592347 .041992189 .24984741 .041992189 .15072632 .041992189 .04458618 .14399719-.022460938 .24899292-.022460938 .3619995-.022460938 .45700074 .06060791 .45700074 .16773987 .45700074 .20379639 .44599916 .24885559 .4079895 .2909088 .3889923 .31193543 .37298585 .3219452 .30899049 .36193849M.20899964 .3199463 .33198548 .24183655C.3600006 .2228241 .40699769 .19277954 .40699769 .13169861 .40699769 .05760193 .33198548 .0055389406 .25 .0055389406 .1639862 .0055389406 .09199524 .067611698 .09199524 .15072632 .09199524 .20880127 .12399292 .27288819 .20899964 .3199463Z"/>
<path id="font_5_1" d="M.39898683 .23057556H.6749878C.68899539 .23057556 .70700076 .23057556 .70700076 .24856568 .70700076 .26757813 .6899872 .26757813 .6749878 .26757813H.39898683V.5441437C.39898683 .5581665 .39898683 .5761719 .3809967 .5761719 .3619995 .5761719 .3619995 .5591583 .3619995 .5441437V.26757813H.085998538C.07199097 .26757813 .053985597 .26757813 .053985597 .24957276 .053985597 .23057556 .070999149 .23057556 .085998538 .23057556H.3619995V-.045166017C.3619995-.059158327 .3619995-.07714844 .37998963-.07714844 .39898683-.07714844 .39898683-.060150148 .39898683-.045166017V.23057556Z"/>
<path id="font_3_1" d="M.1269989 .07699585 .23298645 .18003845C.3889923 .31811524 .44898988 .3721466 .44898988 .47216798 .44898988 .5860901 .35899354 .6660156 .23699951 .6660156 .12399292 .6660156 .049987794 .57411196 .049987794 .48516847 .049987794 .4291687 .099990848 .4291687 .102996829 .4291687 .11999512 .4291687 .15499878 .44117738 .15499878 .48217774 .15499878 .5081787 .13699341 .5341797 .101989749 .5341797 .09399414 .5341797 .09199524 .5341797 .08898926 .5331726 .11199951 .59806826 .1659851 .63500979 .22399903 .63500979 .31498719 .63500979 .35798646 .5541382 .35798646 .47216798 .35798646 .39215089 .30799867 .31311036 .25299073 .25108338L.06098938 .036987306C.049987794 .025985718 .049987794 .023986817 .049987794 0H.42099L.44898988 .17404175H.42399598C.4189911 .14402771 .4119873 .1000061 .4019928 .084991458 .394989 .07699585 .32899476 .07699585 .30699159 .07699585H.1269989Z"/>
<path id="font_5_2" d="M.6749878 .32421876C.68899539 .32421876 .70700076 .32421876 .70700076 .34220887 .70700076 .36120606 .6899872 .36120606 .6749878 .36120606H.085998538C.07199097 .36120606 .053985597 .36120606 .053985597 .34321595 .053985597 .32421876 .070999149 .32421876 .085998538 .32421876H.6749878M.6749878 .13780213C.68899539 .13780213 .70700076 .13780213 .70700076 .15579224 .70700076 .17480469 .6899872 .17480469 .6749878 .17480469H.085998538C.07199097 .17480469 .053985597 .17480469 .053985597 .15679932 .053985597 .13780213 .070999149 .13780213 .085998538 .13780213H.6749878Z"/>
<path id="font_6_82" d="M.4189911 0V.0309906H.3869934C.29699708 .0309906 .2939911 .041992189 .2939911 .07902527V.64012148C.2939911 .6640167 .2939911 .6660156 .2709961 .6660156 .20899964 .60227969 .12098694 .60227969 .08898926 .60227969V.57128909C.10899353 .57128909 .16799927 .57128909 .21998596 .5972748V.07902527C.21998596 .042999269 .21699524 .0309906 .1269989 .0309906H.09498596V0C.12998963 .0029907227 .21699524 .0029907227 .25698854 .0029907227 .29699708 .0029907227 .38398744 .0029907227 .4189911 0Z"/>
<path id="font_2_2" d="M.3889923-.8549652 .21299744-.4659729C.20599365-.44996644 .20098877-.44996644 .19799805-.44996644 .19699097-.44996644 .19198609-.44996644 .18099976-.45796205L.085998538-.52996829C.07299805-.53996279 .07299805-.54296877 .07299805-.54597476 .07299805-.55096438 .07598877-.55696108 .08299255-.55696108 .08898926-.55696108 .10598755-.54296877 .116989139-.53497317 .12298584-.52996829 .13798523-.5189667 .14898682-.51097109L.34599305-.9439697C.35299684-.95996096 .35798646-.95996096 .36698915-.95996096 .38198854-.95996096 .3849945-.95396426 .3919983-.9399719L.84599307 .000030517579C.8529968 .014038086 .8529968 .018035889 .8529968 .02003479 .8529968 .030029297 .8450012 .040039064 .83299258 .040039064 .82499697 .040039064 .81799319 .03503418 .80999758 .01902771L.3889923-.8549652Z"/>
</defs>
<path transform="matrix(1.00002,0,0,-1.00002,103.66278,122.42019)" stroke-width=".3985" stroke-linecap="butt" stroke-miterlimit="10" stroke-linejoin="miter" fill="none" stroke="#00aeef" d="M-102.04953-102.04953H102.04953M-102.04953-85.04128H102.04953M-102.04953-68.03302H102.04953M-102.04953-51.02477H102.04953M-102.04953-34.0165H102.04953M-102.04953-17.00824H102.04953M-102.04953 0H102.04953M-102.04953 17.00824H102.04953M-102.04953 34.0165H102.04953M-102.04953 51.02477H102.04953M-102.04953 68.03302H102.04953M-102.04953 85.04128H102.04953M-102.04953 102.04356H102.04953M-102.04953-102.04953V102.04953M-85.04128-102.04953V102.04953M-68.03302-102.04953V102.04953M-51.02477-102.04953V102.04953M-34.0165-102.04953V102.04953M-17.00824-102.04953V102.04953M0-102.04953V102.04953M17.00824-102.04953V102.04953M34.0165-102.04953V102.04953M51.02477-102.04953V102.04953M68.03302-102.04953V102.04953M85.04128-102.04953V102.04953M102.04356-102.04953V102.04953M102.04953 102.04953"/>
<path transform="matrix(1.00002,0,0,-1.00002,103.66278,122.42019)" stroke-width=".79701" stroke-linecap="butt" stroke-miterlimit="10" stroke-linejoin="miter" fill="none" stroke="#000000" d="M-102.04953 0H109.11905"/>
<path transform="matrix(1.00002,0,0,-1.00002,212.78401,122.42019)" d="M1.0361 0C-.25902 .25902-1.55415 .77707-3.1083 1.68365-1.55415 .51805-1.55415-.51805-3.1083-1.68365-1.55415-.77707-.25902-.25902 1.0361 0Z"/>
<path transform="matrix(1.00002,0,0,-1.00002,212.78401,122.42019)" stroke-width=".79701" stroke-linecap="butt" stroke-linejoin="round" fill="none" stroke="#000000" d="M1.0361 0C-.25902 .25902-1.55415 .77707-3.1083 1.68365-1.55415 .51805-1.55415-.51805-3.1083-1.68365-1.55415-.77707-.25902-.25902 1.0361 0Z"/>
<use data-text="x" xlink:href="#font_1_2" transform="matrix(9.962799,0,0,-9.962799,217.93808,124.56523)"/>
<path transform="matrix(1.00002,0,0,-1.00002,103.66278,122.42019)" stroke-width=".79701" stroke-linecap="butt" stroke-miterlimit="10" stroke-linejoin="miter" fill="none" stroke="#000000" d="M0-102.04953V109.11905"/>
<path transform="matrix(0,-1.00002,-1.00002,-0,103.66278,13.298958)" d="M1.0361 0C-.25902 .25902-1.55415 .77707-3.1083 1.68365-1.55415 .51805-1.55415-.51805-3.1083-1.68365-1.55415-.77707-.25902-.25902 1.0361 0Z"/>
<path transform="matrix(0,-1.00002,-1.00002,-0,103.66278,13.298958)" stroke-width=".79701" stroke-linecap="butt" stroke-linejoin="round" fill="none" stroke="#000000" d="M1.0361 0C-.25902 .25902-1.55415 .77707-3.1083 1.68365-1.55415 .51805-1.55415-.51805-3.1083-1.68365-1.55415-.77707-.25902-.25902 1.0361 0Z"/>
<use data-text="y" xlink:href="#font_1_3" transform="matrix(9.962799,0,0,-9.962799,101.041728,6.207863)"/>
<path transform="matrix(1.00002,0,0,-1.00002,103.66278,122.42019)" stroke-width=".3985" stroke-linecap="butt" stroke-miterlimit="10" stroke-linejoin="miter" fill="none" stroke="#000000" d="M-85.04128 2.55112V-2.55139"/>
<path transform="matrix(1.00002,0,0,-1.00002,103.66278,122.42019)" d="M-92.40266-13.98642H-77.67988V-4.74319H-92.40266Z" fill="#ffffff"/>
<use data-text="&#x2212;" xlink:href="#font_2_1" transform="matrix(9.962799,0,0,-9.962799,12.254959,134.58043)"/>
<use data-text="5" xlink:href="#font_3_2" transform="matrix(9.962799,0,0,-9.962799,20.004105,134.58043)"/>
<path transform="matrix(1.00002,0,0,-1.00002,103.66278,122.42019)" stroke-width=".3985" stroke-linecap="butt" stroke-miterlimit="10" stroke-linejoin="miter" fill="none" stroke="#000000" d="M2.55112-85.04128H-2.55139"/>
<path transform="matrix(1.00002,0,0,-1.00002,103.66278,122.42019)" d="M-19.46597-89.66289H-4.743189V-80.419658H-19.46597Z" fill="#ffffff"/>
<use data-text="&#x2212;" xlink:href="#font_2_1" transform="matrix(9.962799,0,0,-9.962799,85.19241,210.25795)"/>
<use data-text="5" xlink:href="#font_3_2" transform="matrix(9.962799,0,0,-9.962799,92.94156,210.25795)"/>
<path transform="matrix(1.00002,0,0,-1.00002,103.66278,122.42019)" stroke-width=".3985" stroke-linecap="butt" stroke-miterlimit="10" stroke-linejoin="miter" fill="none" stroke="#000000" d="M85.04128 2.55112V-2.55139"/>
<path transform="matrix(1.00002,0,0,-1.00002,103.66278,122.42019)" d="M81.5543-13.15617H88.52824V-4.74319H81.5543Z" fill="#ffffff"/>
<use data-text="5" xlink:href="#font_3_2" transform="matrix(9.962799,0,0,-9.962799,186.21544,134.58043)"/>
<path transform="matrix(1.00002,0,0,-1.00002,103.66278,122.42019)" stroke-width=".3985" stroke-linecap="butt" stroke-miterlimit="10" stroke-linejoin="miter" fill="none" stroke="#000000" d="M2.55112 85.04128H-2.55139"/>
<path transform="matrix(1.00002,0,0,-1.00002,103.66278,122.42019)" d="M-11.71713 80.83478H-4.74319V89.24776H-11.71713Z" fill="#ffffff"/>
<use data-text="5" xlink:href="#font_3_2" transform="matrix(9.962799,0,0,-9.962799,92.94157,40.587549)"/>
<path transform="matrix(1.00002,0,0,-1.00002,103.66278,122.42019)" stroke-width=".79701" stroke-linecap="butt" stroke-miterlimit="10" stroke-linejoin="miter" fill="none" stroke="#ff0000" d="M48.1064 0C48.1064 46.9676 26.56876 85.04128 0 85.04128-26.56876 85.04128-48.1064 46.9676-48.1064 0-48.1064-46.9676-26.56876-85.04128 0-85.04128 26.56876-85.04128 48.1064-46.9676 48.1064 0ZM0 0"/>
<path transform="matrix(1.00002,0,0,-1.00002,103.66278,122.42019)" d="M1.70091 70.12662C1.70091 71.06601 .93938 71.82753 0 71.82753-.93938 71.82753-1.70091 71.06601-1.70091 70.12662-1.70091 69.18723-.93938 68.42569 0 68.42569 .93938 68.42569 1.70091 69.18723 1.70091 70.12662ZM0 70.12662"/>
<path transform="matrix(1.00002,0,0,-1.00002,103.66278,122.42019)" stroke-width=".3985" stroke-linecap="butt" stroke-miterlimit="10" stroke-linejoin="miter" fill="none" stroke="#000000" d="M1.70091 70.12662C1.70091 71.06601 .93938 71.82753 0 71.82753-.93938 71.82753-1.70091 71.06601-1.70091 70.12662-1.70091 69.18723-.93938 68.42569 0 68.42569 .93938 68.42569 1.70091 69.18723 1.70091 70.12662ZM0 70.12662"/>
<use data-text="F" xlink:href="#font_1_1" transform="matrix(9.962799,0,0,-9.962799,107.18285,54.948839)"/>
<use data-text="1" xlink:href="#font_4_1" transform="matrix(6.97394,0,0,-6.97394,113.58898,56.44287)"/>
<path transform="matrix(1.00002,0,0,-1.00002,103.66278,122.42019)" d="M1.70091-70.12662C1.70091-69.18723 .93938-68.42569 0-68.42569-.93938-68.42569-1.70091-69.18723-1.70091-70.12662-1.70091-71.06601-.93938-71.82753 0-71.82753 .93938-71.82753 1.70091-71.06601 1.70091-70.12662ZM0-70.12662"/>
<path transform="matrix(1.00002,0,0,-1.00002,103.66278,122.42019)" stroke-width=".3985" stroke-linecap="butt" stroke-miterlimit="10" stroke-linejoin="miter" fill="none" stroke="#000000" d="M1.70091-70.12662C1.70091-69.18723 .93938-68.42569 0-68.42569-.93938-68.42569-1.70091-69.18723-1.70091-70.12662-1.70091-71.06601-.93938-71.82753 0-71.82753 .93938-71.82753 1.70091-71.06601 1.70091-70.12662ZM0-70.12662"/>
<use data-text="F" xlink:href="#font_1_1" transform="matrix(9.962799,0,0,-9.962799,107.18285,195.20465)"/>
<use data-text="2" xlink:href="#font_4_2" transform="matrix(6.97394,0,0,-6.97394,113.58898,196.69867)"/>
<path transform="matrix(1.00002,0,0,-1.00002,103.66278,122.42019)" d="M-46.40547 0C-46.40547 .93938-47.167 1.70091-48.1064 1.70091-49.04579 1.70091-49.80731 .93938-49.80731 0-49.80731-.93938-49.04579-1.70091-48.1064-1.70091-47.167-1.70091-46.40547-.93938-46.40547 0ZM-48.1064 0" fill="#ff0000"/>
<path transform="matrix(1.00002,0,0,-1.00002,103.66278,122.42019)" stroke-width=".3985" stroke-linecap="butt" stroke-miterlimit="10" stroke-linejoin="miter" fill="none" stroke="#ff0000" d="M-46.40547 0C-46.40547 .93938-47.167 1.70091-48.1064 1.70091-49.04579 1.70091-49.80731 .93938-49.80731 0-49.80731-.93938-49.04579-1.70091-48.1064-1.70091-47.167-1.70091-46.40547-.93938-46.40547 0ZM-48.1064 0"/>
<path transform="matrix(1.00002,0,0,-1.00002,103.66278,122.42019)" d="M48.1064 0" fill="#ff0000"/>
<path transform="matrix(1.00002,0,0,-1.00002,103.66278,122.42019)" stroke-width=".3985" stroke-linecap="butt" stroke-miterlimit="10" stroke-linejoin="miter" fill="none" stroke="#ff0000" d="M48.1064 0"/>
<path transform="matrix(1.00002,0,0,-1.00002,103.66278,122.42019)" d="M1.70091 85.04128C1.70091 85.98067 .93938 86.74219 0 86.74219-.93938 86.74219-1.70091 85.98067-1.70091 85.04128-1.70091 84.10188-.93938 83.34035 0 83.34035 .93938 83.34035 1.70091 84.10188 1.70091 85.04128ZM0 85.04128" fill="#ff0000"/>
<path transform="matrix(1.00002,0,0,-1.00002,103.66278,122.42019)" stroke-width=".3985" stroke-linecap="butt" stroke-miterlimit="10" stroke-linejoin="miter" fill="none" stroke="#ff0000" d="M1.70091 85.04128C1.70091 85.98067 .93938 86.74219 0 86.74219-.93938 86.74219-1.70091 85.98067-1.70091 85.04128-1.70091 84.10188-.93938 83.34035 0 83.34035 .93938 83.34035 1.70091 84.10188 1.70091 85.04128ZM0 85.04128"/>
<path transform="matrix(1.00002,0,0,-1.00002,103.66278,122.42019)" d="M1.70091-85.04128C1.70091-84.10188 .93938-83.34035 0-83.34035-.93938-83.34035-1.70091-84.10188-1.70091-85.04128-1.70091-85.98067-.93938-86.74219 0-86.74219 .93938-86.74219 1.70091-85.98067 1.70091-85.04128ZM0-85.04128" fill="#ff0000"/>
<path transform="matrix(1.00002,0,0,-1.00002,103.66278,122.42019)" stroke-width=".3985" stroke-linecap="butt" stroke-miterlimit="10" stroke-linejoin="miter" fill="none" stroke="#ff0000" d="M1.70091-85.04128C1.70091-84.10188 .93938-83.34035 0-83.34035-.93938-83.34035-1.70091-84.10188-1.70091-85.04128-1.70091-85.98067-.93938-86.74219 0-86.74219 .93938-86.74219 1.70091-85.98067 1.70091-85.04128ZM0-85.04128"/>
<path transform="matrix(1.00002,0,0,-1.00002,103.66278,122.42019)" d="M-98.81715 75.02892H-28.744759V98.45549H-98.81715Z" fill="#ffffff"/>
<use data-text="x" xlink:href="#font_1_2" transform="matrix(9.962799,0,0,-9.962799,8.030869,34.800439)"/>
<use data-text="2" xlink:href="#font_4_2" transform="matrix(6.97394,0,0,-6.97394,13.724991,31.185372)"/>
<path transform="matrix(1.00002,0,0,-1.00002,-181.82894,-68.97464)" stroke-width=".5738" stroke-linecap="butt" stroke-miterlimit="10" stroke-linejoin="miter" fill="none" stroke="#000000" d="M189.856-105.835H200.02"/>
<use data-text="8" xlink:href="#font_3_3" transform="matrix(9.962799,0,0,-9.962799,10.621933,45.396654)"/>
<use data-text="+" xlink:href="#font_5_1" transform="matrix(14.346487,0,0,-14.346487,22.578156,40.449556)"/>
<use data-text="y" xlink:href="#font_1_3" transform="matrix(9.962799,0,0,-9.962799,38.013475,34.064424)"/>
<use data-text="2" xlink:href="#font_4_2" transform="matrix(6.97394,0,0,-6.97394,43.25557,30.449357)"/>
<path transform="matrix(1.00002,0,0,-1.00002,-181.82894,-68.97464)" stroke-width=".5738" stroke-linecap="butt" stroke-miterlimit="10" stroke-linejoin="miter" fill="none" stroke="#000000" d="M219.712-105.835H229.675"/>
<use data-text="2" xlink:href="#font_3_1" transform="matrix(9.962799,0,0,-9.962799,37.887468,45.396654)"/>
<use data-text="5" xlink:href="#font_3_2" transform="matrix(9.962799,0,0,-9.962799,42.868867,45.396654)"/>
<use data-text="=" xlink:href="#font_5_2" transform="matrix(14.346487,0,0,-14.346487,53.03177,40.449556)"/>
<use data-text="1" xlink:href="#font_6_82" transform="matrix(9.962799,0,0,-9.962799,67.94208,40.449556)"/>
<path transform="matrix(1.00002,0,0,-1.00002,103.66278,122.42019)" stroke-width=".3985" stroke-linecap="butt" stroke-miterlimit="10" stroke-linejoin="miter" fill="none" stroke="#009900" d="M0 1.70091C.8966 3.49423 2.98883 4.68974 5.97766 4.68974H18.07553C21.06436 4.68974 23.15657 5.88525 24.05319 7.67857 24.9498 5.88525 27.04202 4.68974 30.03085 4.68974H42.12874C45.11757 4.68974 47.20978 3.49423 48.1064 1.70091"/>
<path transform="matrix(1.00002,0,0,-1.00002,103.66278,122.42019)" d="M15.41876 10.40428H32.68759V24.75062H15.41876Z" fill="#ffffff"/>
<use data-text="&#x221a;" xlink:href="#font_2_2" transform="matrix(9.962799,0,0,-9.962799,121.07413,100.458759)" fill="#009900"/>
<path transform="matrix(1.00002,0,0,-1.00002,-67.59065,-.7242727)" stroke-width=".3985" stroke-linecap="butt" stroke-miterlimit="10" stroke-linejoin="miter" fill="none" stroke="#009900" d="M196.963-100.981H201.944"/>
<use data-text="8" xlink:href="#font_3_3" transform="matrix(9.962799,0,0,-9.962799,129.3763,108.69991)" fill="#009900"/>
</svg>
