<svg xmlns="http://www.w3.org/2000/svg" xmlns:xlink="http://www.w3.org/1999/xlink" version="1.1" width="185" height="172" viewBox="0 0 185 172">
<defs>
<path id="font_1_2" d="M.20599365 .3996582H.2999878C.31999208 .3996582 .32998658 .3996582 .32998658 .41966249 .32998658 .43066407 .31999208 .43066407 .3019867 .43066407H.21398926C.25 .5724945 .25498963 .59246829 .25498963 .59846499 .25498963 .61546328 .24299622 .62545779 .22599793 .62545779 .22299195 .62545779 .19499207 .62446597 .18598938 .58947756L.14698792 .43066407H.052993776C.032989503 .43066407 .022994996 .43066407 .022994996 .4116516 .022994996 .3996582 .0309906 .3996582 .050994874 .3996582H.13899231C.066986087 .11608887 .06298828 .099121097 .06298828 .08114624 .06298828 .02722168 .100997928-.0107421879 .15499878-.0107421879 .25698854-.0107421879 .31399537 .13505554 .31399537 .14305115 .31399537 .1530304 .30599977 .1530304 .3019867 .1530304 .29299928 .1530304 .2919922 .15003968 .2869873 .13905335 .24398804 .035217287 .19099427 .011245728 .15699768 .011245728 .13598633 .011245728 .12599182 .024230957 .12599182 .057174684 .12599182 .08114624 .12799073 .088134769 .13198853 .10510254L.20599365 .3996582Z"/>
<path id="font_1_1" d="M.6279907 .5686035C.6769867 .64660647 .71899417 .6496124 .7559967 .6516113 .7679901 .65260317 .7689972 .6696167 .7689972 .6706085 .7689972 .6786041 .7639923 .6826172 .7559967 .6826172 .7299957 .6826172 .70098879 .6796112 .673996 .6796112 .6409912 .6796112 .6069946 .6826172 .57499697 .6826172 .56900027 .6826172 .55599978 .6826172 .55599978 .66360476 .55599978 .65260317 .5649872 .6516113 .57199099 .6516113 .598999 .6496124 .6179962 .63960269 .6179962 .61860659 .6179962 .6036072 .6029968 .581604 .6029968 .5805969L.29599 .092544559 .22799683 .62161257C.22799683 .63861086 .25099183 .6516113 .29699708 .6516113 .31098939 .6516113 .32199098 .6516113 .32199098 .6716156 .32199098 .680603 .31399537 .6826172 .30799867 .6826172 .2679901 .6826172 .22499085 .6796112 .18399048 .6796112 .1659851 .6796112 .14698792 .680603 .1289978 .680603 .11099243 .680603 .09199524 .6826172 .07499695 .6826172 .067993167 .6826172 .055999757 .6826172 .055999757 .66360476 .055999757 .6516113 .06498718 .6516113 .08099365 .6516113 .13699341 .6516113 .13798523 .64260867 .14099121 .6175995L.21998596 .0005340576C.22299195-.019470215 .22698975-.022460938 .23999024-.022460938 .2559967-.022460938 .2599945-.017471314 .2679901-.004470825L.6279907 .5686035Z"/>
<path id="font_2_3" d="M.1269989 .07699585 .23298645 .18003845C.3889923 .31811524 .44898988 .3721466 .44898988 .47216798 .44898988 .5860901 .35899354 .6660156 .23699951 .6660156 .12399292 .6660156 .049987794 .57411196 .049987794 .48516847 .049987794 .4291687 .099990848 .4291687 .102996829 .4291687 .11999512 .4291687 .15499878 .44117738 .15499878 .48217774 .15499878 .5081787 .13699341 .5341797 .101989749 .5341797 .09399414 .5341797 .09199524 .5341797 .08898926 .5331726 .11199951 .59806826 .1659851 .63500979 .22399903 .63500979 .31498719 .63500979 .35798646 .5541382 .35798646 .47216798 .35798646 .39215089 .30799867 .31311036 .25299073 .25108338L.06098938 .036987306C.049987794 .025985718 .049987794 .023986817 .049987794 0H.42099L.44898988 .17404175H.42399598C.4189911 .14402771 .4119873 .1000061 .4019928 .084991458 .394989 .07699585 .32899476 .07699585 .30699159 .07699585H.1269989Z"/>
<path id="font_2_4" d="M.2939911 .16503906V.07800293C.2939911 .041992189 .2919922 .0309906 .21798706 .0309906H.19699097V0C.23799134 .0029907227 .2899933 .0029907227 .33198548 .0029907227 .37399293 .0029907227 .4269867 .0029907227 .46798707 0V.0309906H.44699098C.37298585 .0309906 .37098695 .041992189 .37098695 .07800293V.16503906H.47099305V.19602967H.37098695V.65075686C.37098695 .67074587 .37098695 .6767578 .35499574 .6767578 .34599305 .6767578 .34298707 .6767578 .33499146 .66474917L.027999878 .19602967V.16503906H.2939911M.2999878 .19602967H.055999757L.2999878 .5688019V.19602967Z"/>
<path id="font_2_6" d="M.13198853 .327713V.35173036C.13198853 .6047821 .2559967 .64100649 .30699159 .64100649 .33099366 .64100649 .37298585 .634964 .394989 .6007538 .37998963 .6007538 .33999635 .6007538 .33999635 .5557556 .33999635 .524765 .3639984 .5097656 .38598634 .5097656 .4019928 .5097656 .43199159 .51875308 .43199159 .5577545 .43199159 .6178589 .3880005 .6660156 .30499269 .6660156 .1769867 .6660156 .041992189 .5367584 .041992189 .31570436 .041992189 .048553468 .1579895-.022460938 .25099183-.022460938 .3619995-.022460938 .45700074 .07156372 .45700074 .2036438 .45700074 .33070375 .36799623 .4267578 .25698854 .4267578 .18899536 .4267578 .1519928 .37573243 .13198853 .327713M.25099183 .0055389406C.18798828 .0055389406 .1579895 .06556702 .1519928 .080566409 .13398743 .127594 .13398743 .2076416 .13398743 .22564698 .13398743 .30369569 .1659851 .40374757 .2559967 .40374757 .27198792 .40374757 .31799317 .40374757 .34899903 .34172059 .36698915 .30470277 .36698915 .2536621 .36698915 .20463562 .36698915 .15661621 .36698915 .10658264 .34999085 .0705719 .31999208 .010528564 .27398683 .0055389406 .25099183 .0055389406Z"/>
<path id="font_2_7" d="M.16299439 .4569702C.116989139 .486969 .11299133 .52098086 .11299133 .5379791 .11299133 .598999 .17799378 .64100649 .24899292 .64100649 .32199098 .64100649 .38598634 .58898928 .38598634 .51698306 .38598634 .45996095 .34700013 .4119568 .2869873 .37695313L.16299439 .4569702M.30899049 .36193849C.3809967 .3989563 .42999269 .45095826 .42999269 .51698306 .42999269 .6090088 .34098817 .6660156 .25 .6660156 .1499939 .6660156 .068984989 .59199526 .068984989 .49897767 .068984989 .4809723 .070999149 .43595887 .11299133 .38894654 .12399292 .37695313 .16099549 .35194398 .18598938 .33494569 .12799073 .30592347 .041992189 .24984741 .041992189 .15072632 .041992189 .04458618 .14399719-.022460938 .24899292-.022460938 .3619995-.022460938 .45700074 .06060791 .45700074 .16773987 .45700074 .20379639 .44599916 .24885559 .4079895 .2909088 .3889923 .31193543 .37298585 .3219452 .30899049 .36193849M.20899964 .3199463 .33198548 .24183655C.3600006 .2228241 .40699769 .19277954 .40699769 .13169861 .40699769 .05760193 .33198548 .0055389406 .25 .0055389406 .1639862 .0055389406 .09199524 .067611698 .09199524 .15072632 .09199524 .20880127 .12399292 .27288819 .20899964 .3199463Z"/>
<path id="font_2_2" d="M.2939911 .64004519C.2939911 .66400149 .2939911 .6660156 .2709961 .6660156 .20899964 .60227969 .12098694 .60227969 .08898926 .60227969V.57128909C.10899353 .57128909 .16799927 .57128909 .21998596 .5972748V.07902527C.21998596 .042999269 .21699524 .0309906 .1269989 .0309906H.09498596V0C.12998963 .0029907227 .21699524 .0029907227 .25698854 .0029907227 .29699708 .0029907227 .38398744 .0029907227 .4189911 0V.0309906H.3869934C.29699708 .0309906 .2939911 .041992189 .2939911 .07902527V.64004519Z"/>
<path id="font_2_1" d="M.45999146 .31976319C.45999146 .39982606 .45498658 .47988893 .41999818 .5539398 .37399293 .65000918 .2919922 .6660156 .25 .6660156 .18998719 .6660156 .116989139 .64001467 .07598877 .54693606 .04399109 .47789 .038986207 .39982606 .038986207 .31976319 .038986207 .24472046 .042999269 .15464783 .083999637 .07859802 .1269989-.0024719239 .19999695-.022460938 .24899292-.022460938 .30299378-.022460938 .3789978-.0014648438 .4229889 .09359741 .45498658 .16265869 .45999146 .2407074 .45999146 .31976319M.24899292-.00047302247C.20999146-.00047302247 .15098572 .024551392 .1329956 .12062073 .12199402 .18066406 .12199402 .2727356 .12199402 .3317871 .12199402 .39582826 .12199402 .46188355 .12998963 .5159149 .14898682 .63500979 .22399903 .64401248 .24899292 .64401248 .28199769 .64401248 .34799195 .6259918 .36698915 .52693179 .3769989 .47088624 .3769989 .39482118 .3769989 .3317871 .3769989 .25672914 .3769989 .18867493 .3659973 .12461853 .35099793 .029556275 .2939911-.00047302247 .24899292-.00047302247Z"/>
<path id="font_2_5" d="M.44898988 .20022583C.44898988 .3193512 .36698915 .41944886 .25898744 .41944886 .21099854 .41944886 .16799927 .40345765 .13198853 .36842347V.5637665C.1519928 .5577698 .18499756 .55078127 .21699524 .55078127 .33999635 .55078127 .4099884 .6417694 .4099884 .6547699 .4099884 .6607666 .40699769 .6657715 .3999939 .6657715 .39898683 .6657715 .39698792 .6657715 .3919983 .66278079 .37199403 .6537781 .32299806 .6337738 .2559967 .6337738 .21598816 .6337738 .16999817 .6407776 .12298584 .6617737 .114990238 .66477969 .11299133 .66477969 .11099243 .66477969 .100997928 .66477969 .100997928 .6567688 .100997928 .6407776V.34439088C.100997928 .32637025 .100997928 .31835938 .114990238 .31835938 .12199402 .31835938 .12399292 .32136537 .12799073 .32736207 .13899231 .3433838 .17599488 .39746095 .25698854 .39746095 .30899049 .39746095 .33399964 .35139466 .34199525 .33337403 .35798646 .29632569 .3600006 .25727845 .3600006 .20722962 .3600006 .17222595 .3600006 .11222839 .33599855 .07035828 .31199647 .031463624 .2749939 .0055389406 .22898865 .0055389406 .1559906 .0055389406 .09899902 .058380128 .08198547 .11723328 .084991458 .1162262 .08799744 .115234378 .09899902 .115234378 .13198853 .115234378 .14898682 .14022827 .14898682 .16423035 .14898682 .18823242 .13198853 .21322632 .09899902 .21322632 .084991458 .21322632 .049987794 .20622254 .049987794 .16023255 .049987794 .07434082 .11898804-.022460938 .23098755-.022460938 .34700013-.022460938 .44898988 .073349 .44898988 .20022583Z"/>
<path id="font_3_104" d="M.7569885 .43385316 .73599246 .6748047H.06298828L.041992189 .43385316H.08898926C.09799194 .5468292 .10798645 .62779238 .2519989 .62779238H.32899476V.04699707H.17599488V0C.22999573 .0029907227 .34098817 .0029907227 .3999939 .0029907227 .45899964 .0029907227 .56999209 .0029907227 .6239929 0V.04699707H.47099305V.62779238H.5469971C.6899872 .62779238 .69999697 .54782107 .70999148 .43385316H.7569885Z"/>
<path id="font_3_63" d="M.61499026 0V.04699707H.54599V.30613709C.54599 .41119386 .49198915 .4501953 .3919983 .4501953 .29599 .4501953 .24499512 .3921814 .22299195 .3541565H.22200012V.69433596L.04499817 .6855469V.63853457C.10699463 .63853457 .11399841 .63853457 .11399841 .5996704V.04699707H.04499817V0L.17098999 .0029907227 .29699708 0V.04699707H.22799683V.25610353C.22799683 .36515809 .31399537 .41418458 .3769989 .41418458 .41099549 .41418458 .43199159 .39317323 .43199159 .31713868V.04699707H.36299134V0L.4889984 .0029907227 .61499026 0Z"/>
<path id="font_3_81" d="M.5419922 .21812439C.5419922 .35212709 .44999696 .453125 .2869873 .453125 .12298584 .453125 .03199768 .35112 .03199768 .21812439 .03199768 .09413147 .11999512-.005859375 .2869873-.005859375 .45498658-.005859375 .5419922 .09512329 .5419922 .21812439M.4139862 .22912598C.4139862 .14213562 .4139862 .03413391 .2869873 .03413391 .1599884 .03413391 .1599884 .14213562 .1599884 .22912598 .1599884 .27412416 .1599884 .32511903 .1769867 .3591156 .19599915 .39611817 .23799134 .41711427 .2869873 .41711427 .32899476 .41711427 .37098695 .40112306 .3929901 .36611939 .4139862 .3321228 .4139862 .27713014 .4139862 .22912598Z"/>
<path id="font_3_109" d="M.61499026 .0001373291V.0471344C.5529938 .0471344 .54599 .0471344 .54599 .086135867V.4501953L.36299134 .44218446V.39518739C.4249878 .39518739 .43199159 .39518739 .43199159 .3561859V.16514588C.43199159 .08314514 .3809967 .030136109 .30799867 .030136109 .23098755 .030136109 .22799683 .055130006 .22799683 .10914612V.4501953L.04499817 .44218446V.39518739C.10699463 .39518739 .11399841 .39518739 .11399841 .3561859V.12313843C.11399841 .01612854 .19499207-.005859375 .2939911-.005859375 .31999208-.005859375 .3919983-.005859375 .43798829 .072143558V-.005859375L.61499026 .0001373291Z"/>
<path id="font_3_98" d="M.4149933 .14012146C.4149933 .18312073 .394989 .21812439 .3600006 .24612427 .32099916 .27511598 .2889862 .28112794 .21099854 .29412843 .17399597 .30111695 .10899353 .31211854 .10899353 .3591156 .10899353 .42111207 .20199585 .42111207 .22099304 .42111207 .29599 .42111207 .33399964 .39212037 .33898927 .33711244 .33999635 .32211305 .34098817 .3171234 .3619995 .3171234 .38598634 .3171234 .38598634 .32211305 .38598634 .3451233V.42510987C.38598634 .4441223 .38598634 .453125 .36799623 .453125 .3639984 .453125 .3619995 .453125 .32299806 .43411256 .29699708 .44711305 .2619934 .453125 .22200012 .453125 .19198609 .453125 .037994386 .453125 .037994386 .32211305 .037994386 .28211976 .057998659 .25512696 .07798767 .23812866 .117996219 .203125 .1559906 .1971283 .23298645 .18312073 .2689972 .17712403 .34399415 .16412354 .34399415 .10513306 .34399415 .030136109 .2519989 .030136109 .22999573 .030136109 .12399292 .030136109 .09799194 .103134158 .085998538 .14613343 .08099365 .16012573 .07598877 .16012573 .06199646 .16012573 .037994386 .16012573 .037994386 .15412903 .037994386 .13113404V.022140503C.037994386 .0031280518 .037994386-.005859375 .055999757-.005859375 .06298828-.005859375 .06498718-.005859375 .085998538 .009140015L.11199951 .026138306C.1579895-.005859375 .20999146-.005859375 .22999573-.005859375 .26098634-.005859375 .4149933-.005859375 .4149933 .14013672V.14012146Z"/>
<path id="font_3_28" d="M.5529938 .023986817C.5529938 .04699707 .5399933 .04699707 .5269928 .04699707 .46598817 .04798889 .46598817 .06100464 .46598817 .083999637V.29907228C.46598817 .3881073 .394989 .453125 .24598694 .453125 .18899536 .453125 .066986087 .44911195 .066986087 .36109925 .066986087 .3170929 .101989749 .29808045 .1289978 .29808045 .1599884 .29808045 .19198609 .3190918 .19198609 .36109925 .19198609 .39111329 .17298889 .40811158 .16999817 .41011048 .19799805 .41612245 .22999573 .41711427 .24198914 .41711427 .31698609 .41711427 .35198976 .3751068 .35198976 .29907228V.26506043C.2809906 .2620697 .026992798 .25306703 .026992798 .10801697 .026992798 .012130737 .15098572-.005859375 .21998596-.005859375 .2999878-.005859375 .34700013 .035125734 .36898805 .07713318 .36898805 .04598999 .36898805 0 .47299195 0H.5209961C.54100039 0 .5529938 0 .5529938 .023986817M.35198976 .13899231C.35198976 .043151857 .2599945 .030136109 .23498535 .030136109 .18399048 .030136109 .14399719 .06517029 .14399719 .10922241 .14399719 .21734619 .3019867 .23136902 .35198976 .234375V.13899231Z"/>
<path id="font_3_77" d="M.61499026 0V.04699707H.54599V.30613709C.54599 .41119386 .49198915 .4501953 .3919983 .4501953 .29599 .4501953 .24299622 .39318849 .21699524 .3421631V.4501953L.04499817 .4423828V.39537049C.10699463 .39537049 .11399841 .39537049 .11399841 .3563385V.04699707H.04499817V0L.17098999 .0029907227 .29699708 0V.04699707H.22799683V.2562256C.22799683 .3653412 .31399537 .41436769 .3769989 .41436769 .41099549 .41436769 .43199159 .39337159 .43199159 .31729127V.04699707H.36299134V0L.4889984 .0029907227 .61499026 0Z"/>
<path id="font_3_47" d="M.6009979 0V.04699707C.5389862 .04699707 .5319977 .04699707 .5319977 .086013797V.69433596L.35499574 .6855469V.63853457C.4169922 .63853457 .42399598 .63853457 .42399598 .5996704V.40518189C.37399293 .44418336 .32199098 .4501953 .2889862 .4501953 .14299011 .4501953 .037994386 .36218263 .037994386 .22116089 .037994386 .089141849 .12998963-.005859375 .27799989-.005859375 .33898927-.005859375 .3869934 .018127442 .41799928 .043136598V-.005859375L.6009979 0M.41799928 .102996829C.40499879 .08514404 .3639984 .030136109 .28799439 .030136109 .1659851 .030136109 .1659851 .15115357 .1659851 .22116089 .1659851 .26916505 .1659851 .3231659 .19198609 .36218263 .22099304 .40419007 .2679901 .41418458 .29899598 .41418458 .35598756 .41418458 .3959961 .3821869 .41799928 .35317994V.102996829Z"/>
<path id="font_3_55" d="M.43699647 .6132202C.43699647 .65519717 .40098573 .7001953 .32299806 .7001953 .22499085 .7001953 .116989139 .65818789 .116989139 .54525759V.44433595H.041992189V.3973236H.116989139V.04699707H.04798889V0L.17399597 .0029907227C.21199036 .0029907227 .27598573 .0029907227 .31199647 0V.04699707H.22499085V.3973236H.33999635V.44433595H.21899414V.54525759C.21899414 .65519717 .29499818 .6641846 .31999208 .6641846 .32499696 .6641846 .32998658 .6641846 .33699037 .66218569 .32199098 .65119937 .31399537 .63220217 .31399537 .6132202 .31399537 .57025149 .34899903 .5512543 .375 .5512543 .40499879 .5512543 .43699647 .57225039 .43699647 .6132202Z"/>
<path id="font_3_72" d="M.29299928 0V.04699707H.22399903V.69433596L.04699707 .6855469V.63853457C.10899353 .63853457 .115997318 .63853457 .115997318 .5995636V.04699707H.04699707V0L.16999817 .0029907227 .29299928 0Z"/>
<path id="font_3_96" d="M.44198609 .36819459C.44198609 .42118836 .3880005 .4501953 .33599855 .4501953 .2659912 .4501953 .22599793 .40019227 .20298767 .33718873V.4501953L.036987306 .4423828V.39537049C.09899902 .39537049 .10598755 .39537049 .10598755 .3563385V.04699707H.036987306V0L.16299439 .0029907227C.20098877 .0029907227 .2649994 .0029907227 .30099488 0V.04699707H.21398926V.22218323C.21398926 .29226686 .23899842 .41436769 .33898927 .41436769 .33898927 .41436769 .31999208 .39736939 .31999208 .36834718 .31999208 .32730104 .35198976 .3072815 .3809967 .3072815 .4099884 .3072815 .44198609 .3283081 .44198609 .36834718V.36819459Z"/>
</defs>
<path transform="matrix(1.00005,0,0,-1.00003,32.40007,159.25142)" stroke-width=".3985" stroke-linecap="butt" stroke-miterlimit="10" stroke-linejoin="miter" fill="none" stroke="#00aeef" d="M0 0H141.73404M0 9.35448H141.73404M0 18.70897H141.73404M0 28.06348H141.73404M0 37.41797H141.73404M0 46.77248H141.73404M0 56.12697H141.73404M0 65.48148H141.73404M0 74.83597H141.73404M0 84.19048H141.73404M0 93.54497H141.73404M0 102.89948H141.73404M0 112.25397H141.73404M0 121.60847H141.73404M0 130.96297H141.73404M0 140.3142H141.73404M0 0V140.31748M14.17339 0V140.31748M28.3468 0V140.31748M42.5202 0V140.31748M56.69362 0V140.31748M70.867 0V140.31748M85.04042 0V140.31748M99.21382 0V140.31748M113.38724 0V140.31748M127.56062 0V140.31748M141.72905 0V140.31748M141.73404 140.31748"/>
<path transform="matrix(1.00005,0,0,-1.00003,32.40007,159.25142)" stroke-width=".79701" stroke-linecap="butt" stroke-miterlimit="10" stroke-linejoin="miter" fill="none" stroke="#000000" d="M0 0H148.80356"/>
<path transform="matrix(1.00005,0,0,-1.00003,181.21106,159.25142)" d="M1.0361 0C-.25902 .25902-1.55415 .77707-3.1083 1.68365-1.55415 .51805-1.55415-.51805-3.1083-1.68365-1.55415-.77707-.25902-.25902 1.0361 0Z"/>
<path transform="matrix(1.00005,0,0,-1.00003,181.21106,159.25142)" stroke-width=".79701" stroke-linecap="butt" stroke-linejoin="round" fill="none" stroke="#000000" d="M1.0361 0C-.25902 .25902-1.55415 .77707-3.1083 1.68365-1.55415 .51805-1.55415-.51805-3.1083-1.68365-1.55415-.77707-.25902-.25902 1.0361 0Z"/>
<use data-text="t" xlink:href="#font_1_2" transform="matrix(9.963098,0,0,-9.962899,180.84648,155.5323)"/>
<path transform="matrix(1.00005,0,0,-1.00003,32.40007,159.25142)" stroke-width=".79701" stroke-linecap="butt" stroke-miterlimit="10" stroke-linejoin="miter" fill="none" stroke="#000000" d="M0 0V146.36649"/>
<path transform="matrix(0,-1.00003,-1.00005,-0,32.40007,12.880539)" d="M1.0361 0C-.25902 .25902-1.55415 .77707-3.1083 1.68365-1.55415 .51805-1.55415-.51805-3.1083-1.68365-1.55415-.77707-.25902-.25902 1.0361 0Z"/>
<path transform="matrix(0,-1.00003,-1.00005,-0,32.40007,12.880539)" stroke-width=".79701" stroke-linecap="butt" stroke-linejoin="round" fill="none" stroke="#000000" d="M1.0361 0C-.25902 .25902-1.55415 .77707-3.1083 1.68365-1.55415 .51805-1.55415-.51805-3.1083-1.68365-1.55415-.77707-.25902-.25902 1.0361 0Z"/>
<use data-text="V" xlink:href="#font_1_1" transform="matrix(9.963098,0,0,-9.962899,28.386872,7.7268679)"/>
<path transform="matrix(1.00005,0,0,-1.00003,32.40007,159.25142)" stroke-width=".79701" stroke-linecap="butt" stroke-miterlimit="10" stroke-linejoin="miter" fill="none" stroke="#000000" d="M28.3468 1.4031V-1.40324"/>
<path transform="matrix(1.00005,0,0,-1.00003,32.40007,159.25142)" d="M24.85983-12.20729H31.83377V-3.7943097H24.85983Z" fill="#ffffff"/>
<use data-text="2" xlink:href="#font_2_3" transform="matrix(9.963098,0,0,-9.962899,58.257364,170.46276)"/>
<path transform="matrix(1.00005,0,0,-1.00003,32.40007,159.25142)" stroke-width=".79701" stroke-linecap="butt" stroke-miterlimit="10" stroke-linejoin="miter" fill="none" stroke="#000000" d="M56.69362 1.4031V-1.40324"/>
<path transform="matrix(1.00005,0,0,-1.00003,32.40007,159.25142)" d="M53.20665-12.20729H60.180589V-3.7943097H53.20665Z" fill="#ffffff"/>
<use data-text="4" xlink:href="#font_2_4" transform="matrix(9.963098,0,0,-9.962899,86.605777,170.46276)"/>
<path transform="matrix(1.00005,0,0,-1.00003,32.40007,159.25142)" stroke-width=".79701" stroke-linecap="butt" stroke-miterlimit="10" stroke-linejoin="miter" fill="none" stroke="#000000" d="M85.04042 1.4031V-1.40324"/>
<path transform="matrix(1.00005,0,0,-1.00003,32.40007,159.25142)" d="M81.55345-12.20729H88.52739V-3.7943097H81.55345Z" fill="#ffffff"/>
<use data-text="6" xlink:href="#font_2_6" transform="matrix(9.963098,0,0,-9.962899,114.95419,170.46276)"/>
<path transform="matrix(1.00005,0,0,-1.00003,32.40007,159.25142)" stroke-width=".79701" stroke-linecap="butt" stroke-miterlimit="10" stroke-linejoin="miter" fill="none" stroke="#000000" d="M113.38724 1.4031V-1.40324"/>
<path transform="matrix(1.00005,0,0,-1.00003,32.40007,159.25142)" d="M109.90027-12.20729H116.87421V-3.7943097H109.90027Z" fill="#ffffff"/>
<use data-text="8" xlink:href="#font_2_7" transform="matrix(9.963098,0,0,-9.962899,143.30261,170.46276)"/>
<path transform="matrix(1.00005,0,0,-1.00003,32.40007,159.25142)" stroke-width=".79701" stroke-linecap="butt" stroke-miterlimit="10" stroke-linejoin="miter" fill="none" stroke="#000000" d="M141.73404 1.4031V-1.40324"/>
<path transform="matrix(1.00005,0,0,-1.00003,32.40007,159.25142)" d="M135.75637-12.20729H147.7117V-3.7943097H135.75637Z" fill="#ffffff"/>
<use data-text="1" xlink:href="#font_2_2" transform="matrix(9.963098,0,0,-9.962899,169.15991,170.46276)"/>
<use data-text="0" xlink:href="#font_2_1" transform="matrix(9.963098,0,0,-9.962899,174.14145,170.46276)"/>
<path transform="matrix(1.00005,0,0,-1.00003,32.40007,159.25142)" stroke-width=".79701" stroke-linecap="butt" stroke-miterlimit="10" stroke-linejoin="miter" fill="none" stroke="#000000" d="M2.12592 46.77248H-2.12613"/>
<path transform="matrix(1.00005,0,0,-1.00003,32.40007,159.25142)" d="M-11.49112 42.566H-4.5171806V50.97898H-11.49112Z" fill="#ffffff"/>
<use data-text="5" xlink:href="#font_2_5" transform="matrix(9.963098,0,0,-9.962899,21.904549,115.68811)"/>
<path transform="matrix(1.00005,0,0,-1.00003,32.40007,159.25142)" stroke-width=".79701" stroke-linecap="butt" stroke-miterlimit="10" stroke-linejoin="miter" fill="none" stroke="#000000" d="M2.12592 93.54497H-2.12613"/>
<path transform="matrix(1.00005,0,0,-1.00003,32.40007,159.25142)" d="M-16.47253 89.33847H-4.51719V97.75145H-16.47253Z" fill="#ffffff"/>
<use data-text="1" xlink:href="#font_2_2" transform="matrix(9.963098,0,0,-9.962899,16.923295,68.913707)"/>
<use data-text="0" xlink:href="#font_2_1" transform="matrix(9.963098,0,0,-9.962899,21.904839,68.913707)"/>
<path transform="matrix(1.00005,0,0,-1.00003,32.40007,159.25142)" stroke-width=".79701" stroke-linecap="butt" stroke-miterlimit="10" stroke-linejoin="miter" fill="none" stroke="#000000" d="M2.12592 140.31748H-2.12613"/>
<path transform="matrix(1.00005,0,0,-1.00003,32.40007,159.25142)" d="M-16.47253 136.11098H-4.51719V144.52396H-16.47253Z" fill="#ffffff"/>
<use data-text="1" xlink:href="#font_2_2" transform="matrix(9.963098,0,0,-9.962899,16.923295,22.140305)"/>
<use data-text="5" xlink:href="#font_2_5" transform="matrix(9.963098,0,0,-9.962899,21.904839,22.140305)"/>
<path transform="matrix(1.00005,0,0,-1.00003,32.40007,159.25142)" stroke-width="1.19553" stroke-linecap="butt" stroke-miterlimit="10" stroke-linejoin="miter" fill="none" stroke="#ff0000" d="M0 140.31748C0 140.31748 1.60005 138.42469 2.21458 137.69893 2.82913 136.97319 3.81464 135.80367 4.42918 135.08683 5.04372 134.37 6.02924 133.2354 6.64377 132.53253 7.25832 131.82965 8.24382 130.71024 8.85837 130.02104 9.4729 129.33185 10.45842 128.24106 11.07297 127.56522 11.6875 126.88939 12.67302 125.81435 13.28755 125.1501 13.9021 124.48584 14.8876 123.42807 15.50215 122.77779 16.11668 122.1275 17.1022 121.10197 17.71674 120.46329 18.33128 119.82458 19.3168 118.80159 19.93134 118.17447 20.54588 117.54736 21.53139 116.55692 22.14594 115.94348 22.76047 115.33003 23.74599 114.3568 24.36052 113.75316 24.97507 113.14952 25.96057 112.18457 26.57512 111.5928 27.18965 111.00104 28.17517 110.0686 28.78972 109.48814 29.40425 108.90767 30.38977 107.97981 31.0043 107.40915 31.61885 106.83847 32.60435 105.93391 33.2189 105.37512 33.83344 104.81635 34.81895 103.92899 35.43349 103.38179 36.04803 102.83458 37.03355 101.96866 37.64809 101.43127 38.26263 100.89386 39.24814 100.03647 39.86269 99.50859 40.47722 98.9807 41.46274 98.14467 42.07727 97.62659 42.69182 97.10849 43.67732 96.28284 44.29187 95.77454 44.9064 95.26627 45.89192 94.4596 46.50647 93.9632 47.121 93.4668 48.10654 92.68549 48.72107 92.19681 49.33562 91.70813 50.32112 90.9224 50.93567 90.44113 51.5502 89.95987 52.53572 89.19765 53.15025 88.72827 53.7648 88.2589 54.7503 87.51958 55.36485 87.05823 55.97939 86.59688 56.9649 85.8568 57.57945 85.40318 58.19398 84.94955 59.1795 84.23293 59.79404 83.78882 60.40858 83.34468 61.39409 82.63837 62.00864 82.20227 62.62317 81.76617 63.60869 81.072 64.22322 80.6457 64.83777 80.21942 65.82329 79.54869 66.43782 79.12984 67.05237 78.71095 68.03787 78.03734 68.65242 77.6268 69.26695 77.21625 70.25247 76.57399 70.867 76.17087 71.48155 75.76775 72.46706 75.11913 73.0816 74.72134 73.69614 74.3236 74.68166 73.69342 75.2962 73.30396 75.91074 72.9145 76.89626 72.29614 77.51079 71.91441 78.12534 71.53267 79.11084 70.9264 79.72539 70.55269 80.33992 70.17897 81.32544 69.58693 81.93997 69.22093 82.55452 68.85495 83.54004 68.27522 84.15457 67.91487 84.76912 67.55455 85.75462 66.97823 86.36917 66.62383 86.9837 66.26941 87.96922 65.70726 88.58376 65.36058 89.1983 65.0139 90.1838 64.46413 90.79836 64.12517 91.41289 63.78621 92.3984 63.25063 93.01295 62.9176 93.62749 62.5846 94.61302 62.05211 95.22755 61.72502 95.8421 61.39795 96.8276 60.88142 97.44215 60.56029 98.05669 60.23915 99.0422 59.72601 99.65674 59.41052 100.27129 59.09503 101.2568 58.59631 101.87134 58.28645 102.48587 57.97662 103.47139 57.481 104.08594 57.17738 104.70047 56.87378 105.68599 56.39417 106.30052 56.09828 106.91507 55.80241 107.90057 55.33719 108.51512 55.04488 109.12965 54.75256 110.11517 54.27783 110.7297 53.99147 111.34425 53.7051 112.32977 53.2613 112.9443 52.98088 113.55885 52.70045 114.54436 52.24687 115.1589 51.97029 115.77344 51.69373 116.75896 51.25818 117.37349 50.98753 117.98804 50.7169 118.97354 50.28445 119.58809 50.01978 120.20262 49.7551 121.18814 49.33888 121.80269 49.07983 122.41722 48.8208 123.40274 48.40794 124.01727 48.15276 124.63182 47.89758 125.61732 47.49168 126.23187 47.24066 126.8464 46.98962 127.83192 46.58891 128.44646 46.34354 129.061 46.09818 130.04653 45.71365 130.66106 45.47214 131.2756 45.23062 132.26111 44.84021 132.87566 44.60286 133.49019 44.36551 134.47571 43.99312 135.09024 43.76141 135.70479 43.52971 136.69029 43.16068 137.30484 42.93282 137.91938 42.70497 138.90489 42.33904 139.51944 42.1192 140.13397 41.89938 141.73404 41.34842 139.96309 41.95815"/>
<path transform="matrix(.9455772,.32555978,.32556627,-.9455584,172.37015,117.29201)" d="M1.27522 0C-.31879 .31879-1.91284 .9564-3.8257 2.07224-1.91284 .6376-1.91284-.6376-3.8257-2.07224-1.91284-.9564-.31879-.31879 1.27522 0Z" fill="#ff0000"/>
<path transform="matrix(.9455772,.32555978,.32556627,-.9455584,172.37015,117.29201)" stroke-width="1.19553" stroke-linecap="butt" stroke-linejoin="round" fill="none" stroke="#ff0000" d="M1.27522 0C-.31879 .31879-1.91284 .9564-3.8257 2.07224-1.91284 .6376-1.91284-.6376-3.8257-2.07224-1.91284-.9564-.31879-.31879 1.27522 0Z"/>
<use data-text="T" xlink:href="#font_3_104" transform="matrix(0,-9.962899,-9.963098,-0,7.5088198,141.04288)"/>
<use data-text="h" xlink:href="#font_3_63" transform="matrix(0,-9.962899,-9.963098,-0,7.5088198,133.07254)"/>
<use data-text="o" xlink:href="#font_3_81" transform="matrix(0,-9.962899,-9.963098,-0,7.5088198,126.70625)"/>
<use data-text="u" xlink:href="#font_3_109" transform="matrix(0,-9.962899,-9.963098,-0,7.5088198,120.97757)"/>
<use data-text="s" xlink:href="#font_3_98" transform="matrix(0,-9.962899,-9.963098,-0,7.5088198,114.61128)"/>
<use data-text="a" xlink:href="#font_3_28" transform="matrix(0,-9.962899,-9.963098,-0,7.5088198,110.08812)"/>
<use data-text="n" xlink:href="#font_3_77" transform="matrix(0,-9.962899,-9.963098,-0,7.5088198,104.51886)"/>
<use data-text="d" xlink:href="#font_3_47" transform="matrix(0,-9.962899,-9.963098,-0,7.5088198,98.15257)"/>
<use data-text="s" xlink:href="#font_3_98" transform="matrix(0,-9.962899,-9.963098,-0,7.5088198,91.78627)"/>
<use data-text="o" xlink:href="#font_3_81" transform="matrix(0,-9.962899,-9.963098,-0,7.5088198,83.45729)"/>
<use data-text="f" xlink:href="#font_3_55" transform="matrix(0,-9.962899,-9.963098,-0,7.5088198,77.72861)"/>
<use data-text="d" xlink:href="#font_3_47" transform="matrix(0,-9.962899,-9.963098,-0,7.5088198,70.41585)"/>
<use data-text="o" xlink:href="#font_3_81" transform="matrix(0,-9.962899,-9.963098,-0,7.5088198,64.03958)"/>
<use data-text="l" xlink:href="#font_3_72" transform="matrix(0,-9.962899,-9.963098,-0,7.5088198,58.310914)"/>
<use data-text="l" xlink:href="#font_3_72" transform="matrix(0,-9.962899,-9.963098,-0,7.5088198,55.13275)"/>
<use data-text="a" xlink:href="#font_3_28" transform="matrix(0,-9.962899,-9.963098,-0,7.5088198,51.95459)"/>
<use data-text="r" xlink:href="#font_3_96" transform="matrix(0,-9.962899,-9.963098,-0,7.5088198,46.38533)"/>
<use data-text="s" xlink:href="#font_3_98" transform="matrix(0,-9.962899,-9.963098,-0,7.5088198,41.662904)"/>
</svg>
