<svg xmlns="http://www.w3.org/2000/svg" xmlns:xlink="http://www.w3.org/1999/xlink" version="1.1" width="130" height="132" viewBox="0 0 130 132">
<defs>
<path id="font_1_3" d="M.33399964 .30233766C.33999635 .32835389 .36299134 .42037965 .43299867 .42037965 .43798829 .42037965 .46199037 .42037965 .48298646 .40734864 .45498658 .402359 .43499757 .37734986 .43499757 .35334779 .43499757 .33735658 .44599916 .31835938 .47299195 .31835938 .49499513 .31835938 .5269928 .3363495 .5269928 .37635804 .5269928 .42837525 .46798707 .4423828 .43399049 .4423828 .37599183 .4423828 .34098817 .38935853 .32899476 .36634828 .3039856 .43237306 .25 .4423828 .22099304 .4423828 .116989139 .4423828 .05999756 .3133545 .05999756 .28834535 .05999756 .27833558 .069992069 .27833558 .07199097 .27833558 .07998657 .27833558 .08299255 .28033448 .084991458 .28933717 .11898804 .39535523 .18499756 .42037965 .21899414 .42037965 .23799134 .42037965 .272995 .4113617 .272995 .35334779 .272995 .32235719 .2559967 .25532533 .21899414 .11528015 .20298767 .053268434 .16799927 .011245728 .12399292 .011245728 .117996219 .011245728 .09498596 .011245728 .07398987 .024276734 .09899902 .029266358 .12098694 .05027771 .12098694 .07827759 .12098694 .105270389 .09899902 .11328125 .083999637 .11328125 .053985597 .11328125 .0289917 .08728027 .0289917 .055267335 .0289917 .009246826 .07899475-.0107421879 .12298584-.0107421879 .18899536-.0107421879 .22499085 .059280397 .22799683 .0652771 .23999024 .028274537 .27598573-.0107421879 .33599855-.0107421879 .43899537-.0107421879 .49598695 .118270877 .49598695 .14328003 .49598695 .1532898 .4869995 .1532898 .48399354 .1532898 .47499085 .1532898 .47299195 .14929199 .47099305 .14228821 .43798829 .03527832 .36999513 .011245728 .33799745 .011245728 .29899598 .011245728 .2829895 .043273927 .2829895 .07727051 .2829895 .09927368 .2889862 .121276859 .2999878 .16529846L.33399964 .30233766Z"/>
<path id="font_1_4" d="M.48599244 .38136292C.48999024 .39537049 .48999024 .39736939 .48999024 .40437318 .48999024 .42237855 .47599793 .43138124 .46099855 .43138124 .45098878 .43138124 .43499757 .42536927 .42599488 .41036988 .42399598 .405365 .41600038 .37435914 .4119873 .35635377 .40499879 .33035279 .397995 .30334474 .3919983 .27633668L.34700013 .09628296C.34298707 .08126831 .2999878 .011245728 .23399353 .011245728 .18299866 .011245728 .17199707 .055267335 .17199707 .0922699 .17199707 .1382904 .18899536 .20030213 .22299195 .28833009 .23899842 .3293457 .24299622 .3403473 .24299622 .36035157 .24299622 .405365 .21099854 .4423828 .16099549 .4423828 .06599426 .4423828 .0289917 .29733277 .0289917 .28833009 .0289917 .27833558 .038986207 .27833558 .040985109 .27833558 .050994874 .27833558 .051986696 .28033448 .056991579 .29634095 .083999637 .3903656 .12399292 .42037965 .1579895 .42037965 .1659851 .42037965 .18299866 .42037965 .18299866 .3883667 .18299866 .36335755 .17298889 .3373413 .1659851 .31834413 .12599182 .21231079 .10798645 .1552887 .10798645 .10827637 .10798645 .019256592 .17098999-.0107421879 .22999573-.0107421879 .2689972-.0107421879 .30299378 .0062561037 .33099366 .03425598 .31799317-.017745972 .30599977-.06674194 .2659912-.11973572 .23999024-.15385437 .20199585-.18309021 .1559906-.18309021 .14199829-.18309021 .09700012-.18005371 .07998657-.14074707 .09599304-.14074707 .10899353-.14074707 .12298584-.1287384 .1329956-.11973572 .14299011-.10673523 .14299011-.08773804 .14299011-.056747438 .115997318-.052734376 .10598755-.052734376 .08299255-.052734376 .049987794-.068740848 .049987794-.11773682 .049987794-.16796875 .09399414-.20507813 .1559906-.20507813 .25898744-.20507813 .3619995-.11373901 .3899994-.00074768069L.48599244 .38136292Z"/>
<path id="font_2_5" d="M.44898988 .20022583C.44898988 .3193512 .36698915 .41944886 .25898744 .41944886 .21099854 .41944886 .16799927 .40345765 .13198853 .36842347V.5637665C.1519928 .5577698 .18499756 .55078127 .21699524 .55078127 .33999635 .55078127 .4099884 .6417694 .4099884 .6547699 .4099884 .6607666 .40699769 .6657715 .3999939 .6657715 .39898683 .6657715 .39698792 .6657715 .3919983 .66278079 .37199403 .6537781 .32299806 .6337738 .2559967 .6337738 .21598816 .6337738 .16999817 .6407776 .12298584 .6617737 .114990238 .66477969 .11299133 .66477969 .11099243 .66477969 .100997928 .66477969 .100997928 .6567688 .100997928 .6407776V.34439088C.100997928 .32637025 .100997928 .31835938 .114990238 .31835938 .12199402 .31835938 .12399292 .32136537 .12799073 .32736207 .13899231 .3433838 .17599488 .39746095 .25698854 .39746095 .30899049 .39746095 .33399964 .35139466 .34199525 .33337403 .35798646 .29632569 .3600006 .25727845 .3600006 .20722962 .3600006 .17222595 .3600006 .11222839 .33599855 .07035828 .31199647 .031463624 .2749939 .0055389406 .22898865 .0055389406 .1559906 .0055389406 .09899902 .058380128 .08198547 .11723328 .084991458 .1162262 .08799744 .115234378 .09899902 .115234378 .13198853 .115234378 .14898682 .14022827 .14898682 .16423035 .14898682 .18823242 .13198853 .21322632 .09899902 .21322632 .084991458 .21322632 .049987794 .20622254 .049987794 .16023255 .049987794 .07434082 .11898804-.022460938 .23098755-.022460938 .34700013-.022460938 .44898988 .073349 .44898988 .20022583Z"/>
<path id="font_2_4" d="M.2939911 .64004519C.2939911 .66400149 .2939911 .6660156 .2709961 .6660156 .20899964 .60227969 .12098694 .60227969 .08898926 .60227969V.57128909C.10899353 .57128909 .16799927 .57128909 .21998596 .5972748V.07902527C.21998596 .042999269 .21699524 .0309906 .1269989 .0309906H.09498596V0C.12998963 .0029907227 .21699524 .0029907227 .25698854 .0029907227 .29699708 .0029907227 .38398744 .0029907227 .4189911 0V.0309906H.3869934C.29699708 .0309906 .2939911 .041992189 .2939911 .07902527V.64004519Z"/>
<path id="font_2_3" d="M.45999146 .31976319C.45999146 .39982606 .45498658 .47988893 .41999818 .5539398 .37399293 .65000918 .2919922 .6660156 .25 .6660156 .18998719 .6660156 .116989139 .64001467 .07598877 .54693606 .04399109 .47789 .038986207 .39982606 .038986207 .31976319 .038986207 .24472046 .042999269 .15464783 .083999637 .07859802 .1269989-.0024719239 .19999695-.022460938 .24899292-.022460938 .30299378-.022460938 .3789978-.0014648438 .4229889 .09359741 .45498658 .16265869 .45999146 .2407074 .45999146 .31976319M.24899292-.00047302247C.20999146-.00047302247 .15098572 .024551392 .1329956 .12062073 .12199402 .18066406 .12199402 .2727356 .12199402 .3317871 .12199402 .39582826 .12199402 .46188355 .12998963 .5159149 .14898682 .63500979 .22399903 .64401248 .24899292 .64401248 .28199769 .64401248 .34799195 .6259918 .36698915 .52693179 .3769989 .47088624 .3769989 .39482118 .3769989 .3317871 .3769989 .25672914 .3769989 .18867493 .3659973 .12461853 .35099793 .029556275 .2939911-.00047302247 .24899292-.00047302247Z"/>
<path id="font_2_6" d="M.68699648 .32714845C.70199587 .32714845 .72099307 .32714845 .72099307 .34713746 .72099307 .36714173 .70199587 .36714173 .6879883 .36714173H.08898926C.07499695 .36714173 .055999757 .36714173 .055999757 .34713746 .055999757 .32714845 .07499695 .32714845 .08999634 .32714845H.68699648M.6879883 .13284302C.70199587 .13284302 .72099307 .13284302 .72099307 .15284729 .72099307 .17285156 .70199587 .17285156 .68699648 .17285156H.08999634C.07499695 .17285156 .055999757 .17285156 .055999757 .15284729 .055999757 .13284302 .07499695 .13284302 .08898926 .13284302H.6879883Z"/>
<path id="font_1_2" d="M.47099305 .3773346C.47200013 .3833313 .47399903 .38833619 .47399903 .39535523 .47399903 .41236878 .46199037 .42237855 .44499208 .42237855 .43499757 .42237855 .4079895 .41537477 .4039917 .3793335 .38598634 .41636659 .35099793 .4423828 .31098939 .4423828 .19699097 .4423828 .07299805 .30226136 .07299805 .15812683 .07299805 .059020997 .13398743 0 .20599365 0 .2649994 0 .31199647 .04701233 .32199098 .058029176L.32299806 .057022096C.3019867-.031982423 .2899933-.07295227 .2899933-.07495117 .28599549-.08395386 .2519989-.18309021 .1459961-.18309021 .1269989-.18309021 .09399414-.18206787 .06599426-.17297364 .09599304-.16394043 .10699463-.13793946 .10699463-.12094116 .10699463-.10494995 .09599304-.0859375 .068984989-.0859375 .04699707-.0859375 .01499939-.10394287 .01499939-.14395142 .01499939-.18508911 .051986696-.20507813 .147995-.20507813 .272995-.20507813 .34498597-.12693787 .3600006-.06695557L.47099305 .3773346M.34098817 .12809754C.33499146 .10206604 .31199647 .077041629 .2899933 .058029176 .2689972 .040008546 .23799134 .021987915 .20899964 .021987915 .15899658 .021987915 .14399719 .074035648 .14399719 .11407471 .14399719 .16212464 .17298889 .28024293 .19999695 .33128358 .22698975 .38034059 .269989 .42037965 .31199647 .42037965 .37799073 .42037965 .3919983 .33929444 .3919983 .33428956 .3919983 .32928468 .3899994 .3232727 .3889923 .3192749L.34098817 .12809754Z"/>
<path id="font_2_1" d="M.33099366-.2400055C.33099366-.23701477 .33099366-.23500061 .31399537-.21800232 .18899536-.0920105 .15699768 .09700012 .15699768 .25 .15699768 .42399598 .19499207 .59799197 .31799317 .72299197 .33099366 .73498538 .33099366 .7369995 .33099366 .73999026 .33099366 .746994 .32699586 .75 .32099916 .75 .31098939 .75 .22099304 .6819916 .1619873 .5549927 .11099243 .44499208 .09899902 .33399964 .09899902 .25 .09899902 .17199707 .10998535 .050994874 .16499329-.06201172 .22499085-.18501282 .31098939-.25 .32099916-.25 .32699586-.25 .33099366-.24700928 .33099366-.2400055Z"/>
<path id="font_2_2" d="M.2889862 .25C.2889862 .32798768 .27799989 .44898988 .22299195 .56199648 .16299439 .68499758 .07699585 .75 .066986087 .75 .06098938 .75 .056991579 .74598696 .056991579 .73999026 .056991579 .7369995 .056991579 .73498538 .07598877 .71699526 .17399597 .6179962 .23098755 .45899964 .23098755 .25 .23098755 .07899475 .19400025-.09700012 .069992069-.2230072 .056991579-.23500061 .056991579-.23701477 .056991579-.2400055 .056991579-.2460022 .06098938-.25 .066986087-.25 .07699585-.25 .16699219-.18200684 .22599793-.055007936 .2769928 .054992677 .2889862 .16600037 .2889862 .25Z"/>
<path id="font_2_8" d="M.1769867 .69433596 .032989503 .68333438V.6523285C.102996829 .6523285 .11099243 .6453247 .11099243 .5962982V.07601929C.11099243 .0309906 .099990848 .0309906 .032989503 .0309906V0C.06599426 .0009918213 .11898804 .0029907227 .14399719 .0029907227 .16899109 .0029907227 .21798706 .0009918213 .25498963 0V.0309906C.18798828 .0309906 .1769867 .0309906 .1769867 .07601929V.69433596Z"/>
<path id="font_2_9" d="M.47099305 .21424866C.47099305 .34223939 .37098695 .4482422 .25 .4482422 .125 .4482422 .027999878 .3392334 .027999878 .21424866 .027999878 .085250858 .13198853-.0107421879 .24899292-.0107421879 .36999513-.0107421879 .47099305 .087249759 .47099305 .21424866M.25 .014251709C.20698548 .014251709 .16299439 .035247804 .13598633 .08125305 .11099243 .12524414 .11099243 .18624878 .11099243 .22224427 .11099243 .26124574 .11099243 .31523133 .1349945 .35923768 .1619873 .40522767 .20899964 .426239 .24899292 .426239 .29299928 .426239 .33599855 .40423585 .3619995 .36123658 .3880005 .3182373 .3880005 .26023866 .3880005 .22224427 .3880005 .18624878 .3880005 .13224793 .3659973 .08824158 .34399415 .04324341 .2999878 .014251709 .25 .014251709Z"/>
<path id="font_2_7" d="M.22200012 .17240906C.1349945 .17240906 .1349945 .2723999 .1349945 .2953949 .1349945 .3223877 .13598633 .35438539 .15098572 .37937928 .15899658 .39137269 .18199158 .41937257 .22200012 .41937257 .30899049 .41937257 .30899049 .3193817 .30899049 .29638673 .30899049 .26939393 .30799867 .23739624 .29299928 .21240235 .2849884 .20040894 .2619934 .17240906 .22200012 .17240906M.10598755 .13330078C.10598755 .1373291 .10598755 .16040039 .12298584 .18040467 .1619873 .15240479 .20298767 .14941406 .22200012 .14941406 .31498719 .14941406 .38398744 .21839905 .38398744 .2953949 .38398744 .3323822 .36799623 .36938478 .34298707 .39237977 .3789978 .42637635 .4149933 .43138124 .43299867 .43138124 .43499757 .43138124 .43998719 .43138124 .44299317 .43037416 .43199159 .42637635 .4269867 .41537477 .4269867 .40338136 .4269867 .38638307 .43998719 .3743744 .45599366 .3743744 .46598817 .3743744 .4850006 .38137818 .4850006 .40437318 .4850006 .42137147 .47299195 .45336915 .43399049 .45336915 .4139862 .45336915 .36999513 .44737245 .32798768 .40637208 .28599549 .43937684 .24398804 .4423828 .22200012 .4423828 .1289978 .4423828 .05999756 .37338258 .05999756 .29638673 .05999756 .25239564 .08198547 .21440125 .10699463 .19340515 .09399414 .17840576 .07598877 .14538574 .07598877 .11013794 .07598877 .07891846 .08898926 .04083252 .11999512 .020828248 .05999756 .003829956 .027999878-.039138795 .027999878-.07911682 .027999878-.15107727 .1269989-.20605469 .24899292-.20605469 .36698915-.20605469 .47099305-.15507508 .47099305-.07711792 .47099305-.042144777 .45700074 .008834839 .4059906 .036834718 .35299684 .064834598 .29499818 .064834598 .23399353 .064834598 .20899964 .064834598 .1659851 .064834598 .15899658 .065841678 .1269989 .069869998 .10598755 .10107422 .10598755 .13330078M.25-.18305969C.14898682-.18305969 .07998657-.13209534 .07998657-.07911682 .07998657-.03314209 .117996219 .003829956 .1619873 .0068359377H.22099304C.30699159 .0068359377 .4189911 .0068359377 .4189911-.07911682 .4189911-.13308716 .34799195-.18305969 .25-.18305969Z"/>
<path id="font_3_2" d="M.33499146 .63612368C.33499146 .6630554 .33299256 .6640625 .30499269 .6640625 .24099732 .6014404 .1499939 .6004486 .10899353 .6004486V.5644531C.1329956 .5644531 .19898987 .5644531 .2539978 .592453V.08203125C.2539978 .04899597 .2539978 .035995485 .1539917 .035995485H.115997318V0C.13398743 .0009918213 .25698854 .0039978029 .2939911 .0039978029 .32499696 .0039978029 .45098878 .0009918213 .47299195 0V.035995485H.43499757C.33499146 .035995485 .33499146 .04899597 .33499146 .08203125V.63612368Z"/>
<path id="font_3_1" d="M.5159912 .31925965C.5159912 .42918397 .5029907 .50813296 .45700074 .5780945 .42599488 .62405398 .3639984 .6640625 .28399659 .6640625 .051986696 .6640625 .051986696 .39120484 .051986696 .31925965 .051986696 .2472992 .051986696-.01953125 .28399659-.01953125 .5159912-.01953125 .5159912 .2472992 .5159912 .31925965M.28399659 .008468628C.23799134 .008468628 .1769867 .035446168 .15699768 .117385867 .14299011 .17634583 .14299011 .25830079 .14299011 .33224488 .14299011 .40519715 .14299011 .4811554 .1579895 .53611758 .1789856 .6150665 .24299622 .63604739 .28399659 .63604739 .33799745 .63604739 .3899994 .6030731 .4079895 .545105 .42399598 .4911499 .4249878 .41918946 .4249878 .33224488 .4249878 .25830079 .4249878 .18434143 .4119873 .12138367 .3919983 .030441285 .32398988 .008468628 .28399659 .008468628Z"/>
<path id="font_1_1" d="M.36698915 .3996582H.45298768C.47299195 .3996582 .48298646 .3996582 .48298646 .41966249 .48298646 .43066407 .47299195 .43066407 .45599366 .43066407H.37298585L.3939972 .5449524C.397995 .5660095 .4119873 .6370239 .41799928 .6490326 .4269867 .66804507 .44400025 .68307498 .46499635 .68307498 .46899415 .68307498 .49499513 .68307498 .5139923 .66503909 .46998597 .661026 .45999146 .6260376 .45999146 .6110382 .45999146 .58802798 .47799684 .57603457 .49699403 .57603457 .522995 .57603457 .5519867 .5980377 .5519867 .6360321 .5519867 .6820679 .5059967 .7050781 .46499635 .7050781 .43099977 .7050781 .36799623 .68707278 .33799745 .58802798 .33198548 .56700137 .32899476 .5569763 .30499269 .43066407H.23599243C.21699524 .43066407 .20599365 .43066407 .20599365 .4116516 .20599365 .3996582 .21499634 .3996582 .23399353 .3996582H.2999878L.22499085 .0048828127C.20698548-.09207153 .18998719-.18309021 .13798523-.18309021 .13398743-.18309021 .10899353-.18309021 .08999634-.16506958 .13598633-.1620636 .14498902-.12606812 .14498902-.111068729 .14498902-.08807373 .1269989-.07606506 .10798645-.07606506 .08198547-.07606506 .052993776-.09806824 .052993776-.13606262 .052993776-.18109131 .09700012-.20507813 .13798523-.20507813 .19299317-.20507813 .23298645-.14607239 .25099183-.108062747 .2829895-.04508972 .30599977 .07583618 .30699159 .082839969L.36698915 .3996582Z"/>
<path id="font_4_1" d="M.24899292 .10601807C.23899842 .072021488 .20599365 .018234253 .15499878 .018234253 .1519928 .018234253 .12199402 .018234253 .100997928 .03215027 .14199829 .04508972 .14498902 .08100891 .14498902 .087020877 .14498902 .10900879 .12799073 .12402344 .10499573 .12402344 .07699585 .12402344 .04798889 .10002136 .04798889 .0630188 .04798889 .01322937 .10398865-.009765625 .15299988-.009765625 .19898987-.009765625 .23999024 .019226075 .2649994 .061019899 .2889862 .008224487 .34399415-.009765625 .38398744-.009765625 .49899293-.009765625 .55999758 .11502075 .55999758 .14305115 .55999758 .15608216 .5469971 .15608216 .5439911 .15608216 .5299988 .15608216 .5289917 .15107727 .5249939 .13905335 .5039978 .07002258 .44400025 .018234253 .3880005 .018234253 .34799195 .018234253 .32699586 .04508972 .32699586 .08302307 .32699586 .10900879 .35099793 .20018006 .3789978 .31140138 .39898683 .38841249 .44400025 .4133911 .47698976 .4133911 .47898866 .4133911 .5099945 .4133911 .5309906 .39941407 .49899293 .39041139 .4869995 .3624115 .4869995 .34440614 .4869995 .32240296 .5039978 .30740357 .5269928 .30740357 .5499878 .30740357 .58299258 .32640077 .58299258 .3684082 .58299258 .4243927 .5189972 .44140626 .47898866 .44140626 .42900086 .44140626 .3889923 .4084015 .36698915 .3704071 .34899903 .4113922 .30299378 .44140626 .24699402 .44140626 .1349945 .44140626 .070999149 .31840516 .070999149 .2883606 .070999149 .27534486 .084991458 .27534486 .08799744 .27534486 .100997928 .27534486 .101989749 .27934266 .10699463 .29237367 .13198853 .3704071 .19499207 .4133911 .24398804 .4133911 .2769928 .4133911 .3039856 .395401 .3039856 .3474121 .3039856 .32740785 .2919922 .27734376 .2829895 .24327088L.24899292 .10601807Z"/>
</defs>
<path transform="matrix(1,0,0,-1.00009,17.487,114.263118)" stroke-width=".3985" stroke-linecap="butt" stroke-miterlimit="10" stroke-linejoin="miter" fill="none" stroke="#00aeef" d="M-15.87413-15.87413H95.24486M-15.87413-7.93706H95.24486M-15.87413 0H95.24486M-15.87413 7.93706H95.24486M-15.87413 15.87413H95.24486M-15.87413 23.8112H95.24486M-15.87413 31.74828H95.24486M-15.87413 39.68535H95.24486M-15.87413 47.62242H95.24486M-15.87413 55.55948H95.24486M-15.87413 63.49655H95.24486M-15.87413 71.43364H95.24486M-15.87413 79.37071H95.24486M-15.87413 87.30779H95.24486M-15.87413 95.24207H95.24486M-15.87413-15.87413V95.24486M-7.93706-15.87413V95.24486M0-15.87413V95.24486M7.93706-15.87413V95.24486M15.87413-15.87413V95.24486M23.8112-15.87413V95.24486M31.74828-15.87413V95.24486M39.68535-15.87413V95.24486M47.62242-15.87413V95.24486M55.55948-15.87413V95.24486M63.49655-15.87413V95.24486M71.43364-15.87413V95.24486M79.37071-15.87413V95.24486M87.30779-15.87413V95.24486M95.24207-15.87413V95.24486M95.24486 95.24486"/>
<path transform="matrix(1,0,0,-1.00009,17.487,114.263118)" stroke-width=".79701" stroke-linecap="butt" stroke-miterlimit="10" stroke-linejoin="miter" fill="none" stroke="#000000" d="M-15.87413 0H100.95355"/>
<path transform="matrix(1,0,0,-1.00009,118.44055,114.263118)" d="M1.0361 0C-.25902 .25902-1.55415 .77707-3.1083 1.68365-1.55415 .51805-1.55415-.51805-3.1083-1.68365-1.55415-.77707-.25902-.25902 1.0361 0Z"/>
<path transform="matrix(1,0,0,-1.00009,118.44055,114.263118)" stroke-width=".79701" stroke-linecap="butt" stroke-linejoin="round" fill="none" stroke="#000000" d="M1.0361 0C-.25902 .25902-1.55415 .77707-3.1083 1.68365-1.55415 .51805-1.55415-.51805-3.1083-1.68365-1.55415-.77707-.25902-.25902 1.0361 0Z"/>
<use data-text="x" xlink:href="#font_1_3" transform="matrix(9.9626,0,0,-9.963496,123.594,116.40831)"/>
<path transform="matrix(1,0,0,-1.00009,17.487,114.263118)" stroke-width=".79701" stroke-linecap="butt" stroke-miterlimit="10" stroke-linejoin="miter" fill="none" stroke="#000000" d="M0-15.87413V100.95355"/>
<path transform="matrix(0,-1.00009,-1,-0,17.487,13.300476)" d="M1.0361 0C-.25902 .25902-1.55415 .77707-3.1083 1.68365-1.55415 .51805-1.55415-.51805-3.1083-1.68365-1.55415-.77707-.25902-.25902 1.0361 0Z"/>
<path transform="matrix(0,-1.00009,-1,-0,17.487,13.300476)" stroke-width=".79701" stroke-linecap="butt" stroke-linejoin="round" fill="none" stroke="#000000" d="M1.0361 0C-.25902 .25902-1.55415 .77707-3.1083 1.68365-1.55415 .51805-1.55415-.51805-3.1083-1.68365-1.55415-.77707-.25902-.25902 1.0361 0Z"/>
<use data-text="y" xlink:href="#font_1_4" transform="matrix(9.9626,0,0,-9.963496,14.865997,6.2093889)"/>
<path transform="matrix(1,0,0,-1.00009,17.487,114.263118)" stroke-width=".3985" stroke-linecap="butt" stroke-miterlimit="10" stroke-linejoin="miter" fill="none" stroke="#000000" d="M39.68535 1.19049V-1.19061"/>
<path transform="matrix(1,0,0,-1.00009,17.487,114.263118)" d="M36.19838-11.79541H43.172319V-3.38243H36.19838Z" fill="#ffffff"/>
<use data-text="5" xlink:href="#font_2_5" transform="matrix(9.9626,0,0,-9.963496,54.682,125.06309)"/>
<path transform="matrix(1,0,0,-1.00009,17.487,114.263118)" stroke-width=".3985" stroke-linecap="butt" stroke-miterlimit="10" stroke-linejoin="miter" fill="none" stroke="#000000" d="M1.19049 39.68535H-1.19061"/>
<path transform="matrix(1,0,0,-1.00009,17.487,114.263118)" d="M-10.35635 35.47885H-3.38241V43.89183H-10.35635Z" fill="#ffffff"/>
<use data-text="5" xlink:href="#font_2_5" transform="matrix(9.9626,0,0,-9.963496,8.126999,77.784839)"/>
<path transform="matrix(1,0,0,-1.00009,17.487,114.263118)" stroke-width=".3985" stroke-linecap="butt" stroke-miterlimit="10" stroke-linejoin="miter" fill="none" stroke="#000000" d="M79.37071 1.19049V-1.19061"/>
<path transform="matrix(1,0,0,-1.00009,17.487,114.263118)" d="M73.39304-11.79541H85.34838V-3.38243H73.39304Z" fill="#ffffff"/>
<use data-text="1" xlink:href="#font_2_4" transform="matrix(9.9626,0,0,-9.963496,91.876,125.06309)"/>
<use data-text="0" xlink:href="#font_2_3" transform="matrix(9.9626,0,0,-9.963496,96.8573,125.06309)"/>
<path transform="matrix(1,0,0,-1.00009,17.487,114.263118)" stroke-width=".3985" stroke-linecap="butt" stroke-miterlimit="10" stroke-linejoin="miter" fill="none" stroke="#000000" d="M1.19049 79.37071H-1.19061"/>
<path transform="matrix(1,0,0,-1.00009,17.487,114.263118)" d="M-15.33777 75.16422H-3.38243V83.5772H-15.33777Z" fill="#ffffff"/>
<use data-text="1" xlink:href="#font_2_4" transform="matrix(9.9626,0,0,-9.963496,3.145996,38.09626)"/>
<use data-text="0" xlink:href="#font_2_3" transform="matrix(9.9626,0,0,-9.963496,8.127296,38.09626)"/>
<path transform="matrix(1,0,0,-1.00009,17.487,114.263118)" stroke-width=".79701" stroke-linecap="butt" stroke-dasharray="2.98883,2.98883" stroke-miterlimit="10" stroke-linejoin="miter" fill="none" stroke="#515151" d="M-14.85971-14.85971 94.23044 94.23044"/>
<path transform="matrix(-.7071,.70716366,.7071,.70716366,2.6272994,129.12415)" d="M1.0361 0C-.25902 .25902-1.55415 .77707-3.1083 1.68365-1.55415 .51805-1.55415-.51805-3.1083-1.68365-1.55415-.77707-.25902-.25902 1.0361 0Z" fill="#515151"/>
<path transform="matrix(-.7071,.70716366,.7071,.70716366,2.6272994,129.12415)" stroke-width=".79701" stroke-linecap="butt" stroke-linejoin="round" fill="none" stroke="#515151" d="M1.0361 0C-.25902 .25902-1.55415 .77707-3.1083 1.68365-1.55415 .51805-1.55415-.51805-3.1083-1.68365-1.55415-.77707-.25902-.25902 1.0361 0Z"/>
<path transform="matrix(.7071,-.70716366,-.7071,-.70716366,111.71742,20.024209)" d="M1.0361 0C-.25902 .25902-1.55415 .77707-3.1083 1.68365-1.55415 .51805-1.55415-.51805-3.1083-1.68365-1.55415-.77707-.25902-.25902 1.0361 0Z" fill="#515151"/>
<path transform="matrix(.7071,-.70716366,-.7071,-.70716366,111.71742,20.024209)" stroke-width=".79701" stroke-linecap="butt" stroke-linejoin="round" fill="none" stroke="#515151" d="M1.0361 0C-.25902 .25902-1.55415 .77707-3.1083 1.68365-1.55415 .51805-1.55415-.51805-3.1083-1.68365-1.55415-.77707-.25902-.25902 1.0361 0Z"/>
<path transform="matrix(1,0,0,-1.00009,17.487,114.263118)" d="M81.14252 67.62646H109.3472V77.83826H81.14252Z" fill="#ffffff"/>
<use data-text="y" xlink:href="#font_1_4" transform="matrix(9.9626,0,0,-9.963496,100.622,42.700677)" fill="#515151"/>
<use data-text="=" xlink:href="#font_2_6" transform="matrix(9.9626,0,0,-9.963496,108.631008,42.700677)" fill="#515151"/>
<use data-text="x" xlink:href="#font_1_3" transform="matrix(9.9626,0,0,-9.963496,119.147,42.700677)" fill="#515151"/>
<path transform="matrix(1,0,0,-1.00009,17.487,114.263118)" stroke-width=".79701" stroke-linecap="butt" stroke-miterlimit="10" stroke-linejoin="miter" fill="none" stroke="#ff0000" d="M.25879-14.42674C1.15358-7.33142 1.15358-7.33142 1.56618-5.58922 1.97878-3.84702 2.64046-3.80176 3.05305-3.29346 3.46565-2.78513 4.12732-2.25089 4.53992-1.92563 4.95251-1.60039 5.6142-1.19019 6.02678-.94925 6.43938-.7083 7.10104-.38086 7.51366-.18903 7.92625 .00276 8.58792 .27382 9.00052 .4333 9.41312 .59279 10.07478 .8239 10.4874 .96039 10.9 1.09688 11.56166 1.29773 11.97426 1.41708 12.38686 1.53645 13.04854 1.71469 13.46114 1.82076 13.87373 1.92682 14.5354 2.08607 14.948 2.18153 15.3606 2.27702 16.02226 2.42207 16.43486 2.5089 16.84746 2.59573 17.50912 2.72778 17.92174 2.80731 18.33434 2.88684 18.996 3.00867 19.4086 3.08212 19.8212 3.15556 20.48288 3.26851 20.89548 3.33669 21.30807 3.40486 21.96974 3.50987 22.38234 3.57346 22.79494 3.63704 23.45662 3.73532 23.86922 3.79497 24.28181 3.85461 24.9435 3.94722 25.35608 4.0034 25.76868 4.05957 26.43034 4.14682 26.84294 4.19984 27.25554 4.25285 27.9172 4.3353 28.32982 4.3855 28.74242 4.4357 29.40408 4.51395 29.81668 4.5617 30.2293 4.6095 30.89096 4.68431 31.30356 4.72981 31.71616 4.77531 32.37782 4.84628 32.79042 4.88968 33.20302 4.93309 33.8647 5.00113 34.2773 5.04263 34.6899 5.08415 35.35156 5.14915 35.76416 5.18895 36.17676 5.22873 36.83842 5.29123 37.25102 5.32942 37.66362 5.36765 38.3253 5.4276 38.7379 5.46434 39.1505 5.5011 39.81216 5.55894 40.22476 5.5943 40.63737 5.62965 41.29904 5.68507 41.71164 5.71916 42.12424 5.75325 42.78592 5.80707 43.19852 5.84003 43.61111 5.873 44.27278 5.92494 44.68538 5.95679 45.09796 5.98863 45.75964 6.03876 46.17224 6.06953 46.58484 6.10031 47.2465 6.14882 47.6591 6.17865 48.07172 6.2085 48.73338 6.25568 49.14598 6.28462 49.55858 6.31357 50.22025 6.35924 50.63284 6.38733 51.04546 6.41542 51.70712 6.45982 52.11972 6.48712 52.53232 6.5144 53.194 6.55746 53.6066 6.58401 54.0192 6.61053 54.68086 6.65254 55.09344 6.67836 55.50604 6.70418 56.16772 6.7449 56.58032 6.77003 56.99292 6.79517 57.65459 6.83505 58.06718 6.85954 58.4798 6.88403 59.14146 6.92273 59.55406 6.94661 59.96666 6.9705 60.62834 7.00847 61.04094 7.03175 61.45354 7.05505 62.1152 7.0917 62.5278 7.11447 62.9404 7.13725 63.60208 7.17363 64.01468 7.19586 64.42726 7.21811 65.08893 7.25313 65.50153 7.27483 65.91414 7.29651 66.5758 7.33098 66.9884 7.35222 67.401 7.37346 68.06267 7.4071 68.47527 7.4279 68.88788 7.4487 69.54955 7.48181 69.96214 7.50215 70.37474 7.52248 71.03642 7.55457 71.44902 7.57445 71.86162 7.59433 72.52328 7.62592 72.93588 7.64542 73.34848 7.66492 74.01016 7.69592 74.42274 7.71506 74.83534 7.73419 75.49701 7.76463 75.9096 7.78336 76.32222 7.80211 76.98389 7.83173 77.39648 7.8501 77.80908 7.86845 78.47076 7.8977 78.88336 7.91574 79.29596 7.93376 79.95763 7.96236 80.37022 7.98004 80.78282 7.99773 81.4445 8.02577 81.8571 8.04315 82.2697 8.06052 82.93137 8.08823 83.34398 8.10527 83.75658 8.12233 84.41823 8.14932 84.83083 8.16608 85.24342 8.18282 85.90509 8.20955 86.3177 8.22603 86.7303 8.24251 87.39197 8.26868 87.80457 8.28488 88.21716 8.30107 88.87885 8.32683 89.29144 8.34277 89.70404 8.35872 90.3657 8.38416 90.7783 8.39981 91.1909 8.41547 91.85258 8.44023 92.26518 8.45566 92.67778 8.47105 93.33945 8.49571 93.75206 8.51088 94.16464 8.52605 95.2389 8.56502 93.80528 8.51315"/>
<path transform="matrix(-.1251,.9921993,.99211,.12511127,17.7458,128.69115)" d="M1.0361 0C-.25902 .25902-1.55415 .77707-3.1083 1.68365-1.55415 .51805-1.55415-.51805-3.1083-1.68365-1.55415-.77707-.25902-.25902 1.0361 0Z" fill="#ff0000"/>
<path transform="matrix(-.1251,.9921993,.99211,.12511127,17.7458,128.69115)" stroke-width=".79701" stroke-linecap="butt" stroke-linejoin="round" fill="none" stroke="#ff0000" d="M1.0361 0C-.25902 .25902-1.55415 .77707-3.1083 1.68365-1.55415 .51805-1.55415-.51805-3.1083-1.68365-1.55415-.77707-.25902-.25902 1.0361 0Z"/>
<path transform="matrix(.99931,-.036163257,-.03616,-.99939998,111.29228,105.7492)" d="M1.0361 0C-.25902 .25902-1.55415 .77707-3.1083 1.68365-1.55415 .51805-1.55415-.51805-3.1083-1.68365-1.55415-.77707-.25902-.25902 1.0361 0Z" fill="#ff0000"/>
<path transform="matrix(.99931,-.036163257,-.03616,-.99939998,111.29228,105.7492)" stroke-width=".79701" stroke-linecap="butt" stroke-linejoin="round" fill="none" stroke="#ff0000" d="M1.0361 0C-.25902 .25902-1.55415 .77707-3.1083 1.68365-1.55415 .51805-1.55415-.51805-3.1083-1.68365-1.55415-.77707-.25902-.25902 1.0361 0Z"/>
<path transform="matrix(1,0,0,-1.00009,17.487,114.263118)" stroke-width=".79701" stroke-linecap="butt" stroke-miterlimit="10" stroke-linejoin="miter" fill="none" stroke="#0000ff" d="M-14.43994 .11089C-15.59822 .0854-15.59822 .0854-15.49226 .08803-15.3863 .09067-15.21637 .09523-15.11041 .09831-15.00444 .10143-14.8345 .1069-14.72855 .1103-14.62257 .11372-14.45265 .11905-14.34668 .12291-14.24072 .12675-14.07079 .13376-13.96481 .13806-13.85886 .14235-13.68893 .14917-13.58296 .15392-13.477 .15866-13.30707 .16692-13.2011 .1722-13.09514 .17749-12.9252 .18613-12.81924 .19206-12.71329 .19801-12.54333 .20847-12.43738 .21507-12.33142 .22168-12.16148 .23228-12.05553 .23965-11.94957 .24702-11.77963 .25998-11.67366 .26825-11.5677 .2765-11.39777 .28998-11.29181 .29924-11.18584 .3085-11.01591 .32463-10.90996 .33496-10.80397 .34532-10.63405 .3624-10.52808 .37386-10.42212 .3853-10.2522 .40468-10.14622 .41757-10.04027 .43045-9.87032 .45233-9.76436 .46674-9.6584 .48116-9.48846 .5054-9.3825 .52148-9.27655 .53757-9.1066 .56468-9.00064 .58264-8.89468 .6006-8.72475 .6309-8.61879 .65096-8.51283 .67099-8.34288 .70467-8.23692 .72713-8.13095 .7496-7.96103 .78777-7.85507 .81287-7.7491 .83798-7.57916 .88022-7.47319 .90819-7.36723 .93616-7.19731 .98335-7.09135 1.01453-6.98538 1.04568-6.81544 1.09793-6.70947 1.13284-6.60352 1.16776-6.4336 1.2271-6.32762 1.26619-6.22166 1.3053-6.05171 1.37117-5.94576 1.41467-5.8398 1.45816-5.66986 1.53116-5.5639 1.57974-5.45795 1.62833-5.288 1.71039-5.18204 1.7648-5.07608 1.81923-4.90614 1.91122-4.80019 1.97203-4.69423 2.03282-4.52428 2.13513-4.41832 2.20297-4.31235 2.27083-4.14243 2.38527-4.03647 2.46106-3.9305 2.53685-3.76056 2.66447-3.65459 2.74918-3.54863 2.83388-3.37871 2.97684-3.27274 3.07158-3.16678 3.16632-2.99684 3.32626-2.89087 3.432-2.78491 3.53775-2.61497 3.71564-2.50902 3.83372-2.40306 3.95181-2.23312 4.1511-2.12717 4.28305-2.0212 4.415-1.85126 4.63742-1.7453 4.7848-1.63934 4.93219-1.4694 5.18063-1.36345 5.34529-1.25748 5.50998-1.08754 5.78773-.98158 5.97168-.87561 6.15562-.70569 6.46567-.59972 6.6711-.49376 6.87651-.32382 7.22298-.21786 7.45224-.1119 7.68153 .058 8.06747 .16396 8.32364 .26993 8.5798 .43987 9.01216 .54582 9.29857 .6518 9.58498 .82172 10.06789 .92769 10.38783 1.03365 10.7078 1.20358 11.2472 1.30956 11.60463 1.41551 11.96207 1.58545 12.5646 1.6914 12.96397 1.79736 13.36334 1.96732 14.03682 2.07327 14.48293 2.17923 14.92906 2.34917 15.68097 2.45512 16.17932 2.56108 16.67767 2.73103 17.51791 2.83699 18.0747 2.94295 18.63147 3.11288 19.57019 3.21884 20.19218 3.32481 20.8142 3.49475 21.86288 3.60071 22.55771 3.70668 23.25253 3.8766 24.4237 3.98257 25.19997 4.08853 25.97624 4.25847 27.28531 4.36444 28.15253 4.4704 29.01971 4.64032 30.48148 4.74629 31.45023 4.85225 32.41896 5.02219 34.05222 5.12816 35.13452 5.23412 36.21681 5.40405 38.04156 5.51001 39.25069 5.61597 40.4598 5.7859 42.49829 5.89188 43.84898 5.99783 45.19968 6.16777 47.47661 6.27373 48.9855 6.3797 50.4944 6.54962 53.0383 6.65558 54.72408 6.76155 56.40984 6.93149 59.25223 7.03745 61.1354 7.14342 63.01857 7.31334 66.19298 7.4193 68.29665 7.52527 70.40031 7.6952 73.94667 7.80118 76.29716 7.90714 78.64767 8.07706 82.61183 8.18303 85.2374 8.28899 87.86298 8.5649 95.2205 8.51115 93.78697"/>
<path transform="matrix(-.99971,.022021981,.02202,.9998,3.047059,114.15221)" d="M1.0361 0C-.25902 .25902-1.55415 .77707-3.1083 1.68365-1.55415 .51805-1.55415-.51805-3.1083-1.68365-1.55415-.77707-.25902-.25902 1.0361 0Z" fill="#0000ff"/>
<path transform="matrix(-.99971,.022021981,.02202,.9998,3.047059,114.15221)" stroke-width=".79701" stroke-linecap="butt" stroke-linejoin="round" fill="none" stroke="#0000ff" d="M1.0361 0C-.25902 .25902-1.55415 .77707-3.1083 1.68365-1.55415 .51805-1.55415-.51805-3.1083-1.68365-1.55415-.77707-.25902-.25902 1.0361 0Z"/>
<path transform="matrix(.03746,-.99933996,-.99925,-.03746337,25.99815,20.467705)" d="M1.0361 0C-.25902 .25902-1.55415 .77707-3.1083 1.68365-1.55415 .51805-1.55415-.51805-3.1083-1.68365-1.55415-.77707-.25902-.25902 1.0361 0Z" fill="#0000ff"/>
<path transform="matrix(.03746,-.99933996,-.99925,-.03746337,25.99815,20.467705)" stroke-width=".79701" stroke-linecap="butt" stroke-linejoin="round" fill="none" stroke="#0000ff" d="M1.0361 0C-.25902 .25902-1.55415 .77707-3.1083 1.68365-1.55415 .51805-1.55415-.51805-3.1083-1.68365-1.55415-.77707-.25902-.25902 1.0361 0Z"/>
<path transform="matrix(1,0,0,-1.00009,17.487,114.263118)" d="M47.1284 16.83727H111.61299V30.78515H47.1284Z" fill="#ffffff"/>
<use data-text="g" xlink:href="#font_1_2" transform="matrix(9.9626,0,0,-9.963496,66.608,92.9402)" fill="#ff0000"/>
<use data-text="(" xlink:href="#font_2_1" transform="matrix(9.9626,0,0,-9.963496,71.716999,92.9402)" fill="#ff0000"/>
<use data-text="x" xlink:href="#font_1_3" transform="matrix(9.9626,0,0,-9.963496,75.591,92.9402)" fill="#ff0000"/>
<use data-text=")" xlink:href="#font_2_2" transform="matrix(9.9626,0,0,-9.963496,81.285,92.9402)" fill="#ff0000"/>
<use data-text="=" xlink:href="#font_2_6" transform="matrix(9.9626,0,0,-9.963496,87.910129,92.9402)" fill="#ff0000"/>
<use data-text="l" xlink:href="#font_2_8" transform="matrix(9.9626,0,0,-9.963496,98.420688,92.9402)" fill="#ff0000"/>
<use data-text="o" xlink:href="#font_2_9" transform="matrix(9.9626,0,0,-9.963496,101.18033,92.9402)" fill="#ff0000"/>
<use data-text="g" xlink:href="#font_2_7" transform="matrix(9.9626,0,0,-9.963496,106.16162,92.9402)" fill="#ff0000"/>
<use data-text="1" xlink:href="#font_3_2" transform="matrix(6.9738,0,0,-6.9744279,111.311008,95.37541)" fill="#ff0000"/>
<use data-text="0" xlink:href="#font_3_1" transform="matrix(6.9738,0,0,-6.9744279,115.2791,95.37541)" fill="#ff0000"/>
<use data-text="x" xlink:href="#font_1_3" transform="matrix(9.9626,0,0,-9.963496,121.412,92.9402)" fill="#ff0000"/>
<path transform="matrix(1,0,0,-1.00009,17.487,114.263118)" d="M13.86519 81.92123H65.50551V95.86911H13.86519Z" fill="#ffffff"/>
<use data-text="f" xlink:href="#font_1_1" transform="matrix(9.9626,0,0,-9.963496,33.345,27.851342)" fill="#0000ff"/>
<use data-text="(" xlink:href="#font_2_1" transform="matrix(9.9626,0,0,-9.963496,39.295,27.851342)" fill="#0000ff"/>
<use data-text="x" xlink:href="#font_1_3" transform="matrix(9.9626,0,0,-9.963496,43.169,27.851342)" fill="#0000ff"/>
<use data-text=")" xlink:href="#font_2_2" transform="matrix(9.9626,0,0,-9.963496,48.863,27.851342)" fill="#0000ff"/>
<use data-text="=" xlink:href="#font_2_6" transform="matrix(9.9626,0,0,-9.963496,55.48813,27.851342)" fill="#0000ff"/>
<use data-text="1" xlink:href="#font_2_4" transform="matrix(9.9626,0,0,-9.963496,65.99867,27.851342)" fill="#0000ff"/>
<use data-text="0" xlink:href="#font_2_3" transform="matrix(9.9626,0,0,-9.963496,70.979969,27.851342)" fill="#0000ff"/>
<use data-text="x" xlink:href="#font_4_1" transform="matrix(6.9738,0,0,-6.9744279,75.983,24.236016)" fill="#0000ff"/>
</svg>
