<svg xmlns="http://www.w3.org/2000/svg" xmlns:xlink="http://www.w3.org/1999/xlink" version="1.1" width="253" height="160" viewBox="0 0 253 160">
<defs>
<path id="font_1_2" d="M.5159912 .68333438C.5159912 .6843262 .5159912 .69433596 .5029907 .69433596 .48799134 .69433596 .3929901 .68533328 .37599183 .68333438 .36799623 .6823273 .3619995 .6773224 .3619995 .6643219 .3619995 .6523285 .37098695 .6523285 .38598634 .6523285 .43399049 .6523285 .43598939 .6453247 .43598939 .6353302L.43299867 .6153412 .37298585 .37835694C.35499574 .41537477 .32598878 .4423828 .2809906 .4423828 .1639862 .4423828 .039993287 .29533387 .039993287 .14929199 .039993287 .055267335 .09498596-.0107421879 .17298889-.0107421879 .19299317-.0107421879 .24299622-.0067443849 .30299378 .06427002 .31098939 .022247315 .34599305-.0107421879 .3939972-.0107421879 .42900086-.0107421879 .45199586 .012252808 .46798707 .044265748 .4850006 .08027649 .49798585 .14129639 .49798585 .14329529 .49798585 .1532898 .4889984 .1532898 .48599244 .1532898 .47599793 .1532898 .47499085 .14929199 .47200013 .13528443 .45498658 .07026672 .43699647 .011245728 .3959961 .011245728 .36898805 .011245728 .3659973 .037261964 .3659973 .057266237 .3659973 .08126831 .36799623 .088272098 .37199403 .105285648L.5159912 .68333438M.30799867 .119277957C.30299378 .10127258 .30299378 .09927368 .28799439 .08227539 .24398804 .027252198 .20298767 .011245728 .1749878 .011245728 .125 .011245728 .11099243 .06626892 .11099243 .105285648 .11099243 .1552887 .14299011 .27833558 .1659851 .32434083 .19699097 .38336183 .24198914 .42037965 .28199769 .42037965 .34700013 .42037965 .36099244 .3383484 .36099244 .33235169 .36099244 .32633973 .35899354 .32034303 .35798646 .31533814L.30799867 .119277957Z"/>
<path id="font_1_1" d="M.37399293 .6056366C.3829956 .6416168 .38598634 .6516113 .46499635 .6516113 .4889984 .6516113 .49699403 .6516113 .49699403 .6706085 .49699403 .6826172 .48599244 .6826172 .48199464 .6826172 .45298768 .6826172 .3789978 .6796112 .34999085 .6796112 .31999208 .6796112 .24699402 .6826172 .21699524 .6826172 .20999146 .6826172 .19699097 .6826172 .19699097 .6626129 .19699097 .6516113 .20599365 .6516113 .22499085 .6516113 .2669983 .6516113 .2939911 .6516113 .2939911 .63261416 .2939911 .6276245 .2939911 .6256256 .2919922 .6166229L.15699768 .07795715C.147995 .040985109 .14498902 .0309906 .06599426 .0309906 .042999269 .0309906 .033996583 .0309906 .033996583 .010986328 .033996583 0 .04598999 0 .04899597 0 .07798767 0 .15098572 .0029907227 .17999268 .0029907227 .20999146 .0029907227 .28399659 0 .31399537 0 .32199098 0 .33399964 0 .33399964 .018997193 .33399964 .0309906 .32598878 .0309906 .3039856 .0309906 .28599549 .0309906 .2809906 .0309906 .26098634 .032989503 .23999024 .034988405 .23599243 .038986207 .23599243 .049987794 .23599243 .05796814 .23799134 .065963748 .23999024 .07296753L.37399293 .6056366Z"/>
</defs>
<path transform="matrix(1.0001,0,0,-1.00008,4.116211,154.32639)" stroke-width=".3985" stroke-linecap="butt" stroke-miterlimit="10" stroke-linejoin="miter" fill="none" stroke="#00aeef" d="M0 0H226.77448M0 17.00824H226.77448M0 34.0165H226.77448M0 51.02477H226.77448M0 68.03302H226.77448M0 85.04128H226.77448M0 102.04953H226.77448M0 119.0578H226.77448M0 136.06009H226.77448M0 0V136.06606M28.3468 0V136.06606M56.69362 0V136.06606M85.04042 0V136.06606M113.38724 0V136.06606M141.73404 0V136.06606M170.08086 0V136.06606M198.42766 0V136.06606M226.76451 0V136.06606M226.77448 136.06606"/>
<path transform="matrix(1.0001,0,0,-1.00008,4.116211,154.32639)" stroke-width=".79701" stroke-linecap="butt" stroke-miterlimit="10" stroke-linejoin="miter" fill="none" stroke="#000000" d="M0 0H236.6784"/>
<path transform="matrix(1.0001,0,0,-1.00008,240.81829,154.32639)" d="M1.0361 0C-.25902 .25902-1.55415 .77707-3.1083 1.68365-1.55415 .51805-1.55415-.51805-3.1083-1.68365-1.55415-.77707-.25902-.25902 1.0361 0Z"/>
<path transform="matrix(1.0001,0,0,-1.00008,240.81829,154.32639)" stroke-width=".79701" stroke-linecap="butt" stroke-linejoin="round" fill="none" stroke="#000000" d="M1.0361 0C-.25902 .25902-1.55415 .77707-3.1083 1.68365-1.55415 .51805-1.55415-.51805-3.1083-1.68365-1.55415-.77707-.25902-.25902 1.0361 0Z"/>
<use data-text="d" xlink:href="#font_1_2" transform="matrix(9.963596,0,0,-9.963397,245.97238,157.78566)"/>
<path transform="matrix(1.0001,0,0,-1.00008,4.116211,154.32639)" stroke-width=".79701" stroke-linecap="butt" stroke-miterlimit="10" stroke-linejoin="miter" fill="none" stroke="#000000" d="M0 0V141.43463"/>
<path transform="matrix(0,-1.00008,-1.0001,-0,4.116211,12.880447)" d="M1.0361 0C-.25902 .25902-1.55415 .77707-3.1083 1.68365-1.55415 .51805-1.55415-.51805-3.1083-1.68365-1.55415-.77707-.25902-.25902 1.0361 0Z"/>
<path transform="matrix(0,-1.00008,-1.0001,-0,4.116211,12.880447)" stroke-width=".79701" stroke-linecap="butt" stroke-linejoin="round" fill="none" stroke="#000000" d="M1.0361 0C-.25902 .25902-1.55415 .77707-3.1083 1.68365-1.55415 .51805-1.55415-.51805-3.1083-1.68365-1.55415-.77707-.25902-.25902 1.0361 0Z"/>
<use data-text="I" xlink:href="#font_1_1" transform="matrix(9.963596,0,0,-9.963397,1.5349503,7.7266695)"/>
<path transform="matrix(1.0001,0,0,-1.00008,4.116211,154.32639)" stroke-width="1.19553" stroke-linecap="butt" stroke-miterlimit="10" stroke-linejoin="miter" fill="none" stroke="#ff0000" d="M40.38068 134.21605C42.19574 122.72693 42.19574 122.72693 43.00508 118.23535 43.81442 113.74377 45.11234 107.37854 45.92168 103.6939 46.73102 100.00923 48.02895 94.73927 48.83827 91.6789 49.64761 88.61853 50.94554 84.20639 51.75488 81.63683 52.56422 79.06725 53.86215 75.33768 54.6715 73.15916 55.48083 70.98064 56.77876 67.79846 57.58809 65.93553 58.39743 64.07259 59.69536 61.33769 60.5047 59.73235 61.31404 58.12703 62.61195 55.75885 63.4213 54.36537 64.23064 52.97188 65.52856 50.90622 66.3379 49.68898 67.14723 48.47174 68.44516 46.66171 69.2545 45.59236 70.06384 44.52303 71.36177 42.9265 72.17111 41.98186 72.98045 41.0372 74.27838 39.6226 75.08772 38.78398 75.89705 37.94533 77.19499 36.68533 78.00432 35.93752 78.81366 35.18968 80.11159 34.06387 80.92093 33.39417 81.73027 32.72444 83.02818 31.71277 83.83752 31.1106 84.64685 30.50842 85.9448 29.59744 86.75412 29.05412 87.56346 28.51079 88.86139 27.6866 89.67073 27.19461 90.48007 26.70264 91.778 25.955 92.58734 25.50821 93.39668 25.06143 94.69461 24.38148 95.50394 23.97443 96.31328 23.56735 97.6112 22.94624 98.42055 22.57428 99.22989 22.20232 100.52782 21.63423 101.33716 21.29352 102.1465 20.95282 103.44441 20.4315 104.25375 20.11865 105.06308 19.80582 106.36101 19.32672 107.17035 19.03877 107.97969 18.75081 109.27762 18.30888 110.08696 18.04321 110.8963 17.77757 112.19423 17.36963 113.00357 17.124 113.8129 16.87834 115.11082 16.50026 115.92017 16.27274 116.7295 16.04521 118.02744 15.69518 118.83678 15.48404 119.64612 15.27293 120.94403 14.94751 121.75337 14.75114 122.5627 14.5548 123.86064 14.25174 124.66997 14.06886 125.47931 13.88599 126.77724 13.60362 127.58658 13.43303 128.39592 13.2624 129.69385 12.99863 130.50319 12.83922 131.31253 12.67982 132.61046 12.43323 133.41979 12.2841 134.22913 12.13496 135.52706 11.90405 136.3364 11.76427 137.14574 11.62448 138.44367 11.40784 139.253 11.27663 140.06235 11.14542 141.36026 10.94186 142.16959 10.81856 142.97893 10.69527 144.27686 10.50398 145.0862 10.388 145.89554 10.27203 147.19347 10.09187 148.0028 9.98264 148.81215 9.87337 150.11008 9.70363 150.91942 9.6006 151.72875 9.49759 153.02667 9.33742 153.83602 9.24011 154.64536 9.14284 155.94329 8.99133 156.75263 8.89937 157.56197 8.8074 158.8599 8.66434 159.66924 8.5773 160.47856 8.49026 161.77649 8.3545 162.58582 8.2721 163.39516 8.18968 164.69309 8.06133 165.50243 7.98323 166.31177 7.90514 167.6097 7.78331 168.41904 7.70917 169.22837 7.63506 170.5263 7.5193 171.33563 7.44887 172.14498 7.37845 173.4429 7.26848 174.25225 7.20155 175.06159 7.13461 176.35951 7.03008 177.16886 6.96642 177.9782 6.90276 179.27611 6.8033 180.08544 6.7427 180.89478 6.68211 182.1927 6.58743 183.00205 6.52963 183.81139 6.47185 185.10932 6.38132 185.91866 6.32617 186.728 6.27106 188.02593 6.1849 188.83527 6.13231 189.64459 6.07971 190.94252 5.99724 191.75186 5.947 192.5612 5.89677 193.85913 5.81827 194.66847 5.77026 195.47782 5.72227 196.77574 5.64696 197.58509 5.60106 198.39441 5.55516 199.69232 5.4833 200.50167 5.43938 201.311 5.39545 202.60894 5.32649 203.41828 5.28442 204.22762 5.24239 205.52555 5.17654 206.33489 5.13626 207.14421 5.09596 208.44216 5.0327 209.25148 4.99402 210.06082 4.95537 211.35875 4.8946 212.16809 4.85753 212.97743 4.82043 214.27536 4.76228 215.0847 4.72672 215.89403 4.69115 217.19197 4.63527 218.0013 4.6011 218.81064 4.56694 220.10855 4.51326 220.9179 4.48042 221.72724 4.44759 223.02516 4.396 223.8345 4.36443 224.64385 4.33284 226.7511 4.25282 224.87955 4.32373"/>
<path transform="matrix(-.1560156,-.98780909,-.9878288,.15601248,44.50093,20.099595)" d="M1.27522 0C-.31879 .31879-1.91284 .9564-3.8257 2.07224-1.91284 .6376-1.91284-.6376-3.8257-2.07224-1.91284-.9564-.31879-.31879 1.27522 0Z" fill="#ff0000"/>
<path transform="matrix(-.1560156,-.98780909,-.9878288,.15601248,44.50093,20.099595)" stroke-width="1.19553" stroke-linecap="butt" stroke-linejoin="round" fill="none" stroke="#ff0000" d="M1.27522 0C-.31879 .31879-1.91284 .9564-3.8257 2.07224-1.91284 .6376-1.91284-.6376-3.8257-2.07224-1.91284-.9564-.31879-.31879 1.27522 0Z"/>
<path transform="matrix(.99933996,.037863029,.037863785,-.9993199,229.01825,150.0023)" d="M1.27522 0C-.31879 .31879-1.91284 .9564-3.8257 2.07224-1.91284 .6376-1.91284-.6376-3.8257-2.07224-1.91284-.9564-.31879-.31879 1.27522 0Z" fill="#ff0000"/>
<path transform="matrix(.99933996,.037863029,.037863785,-.9993199,229.01825,150.0023)" stroke-width="1.19553" stroke-linecap="butt" stroke-linejoin="round" fill="none" stroke="#ff0000" d="M1.27522 0C-.31879 .31879-1.91284 .9564-3.8257 2.07224-1.91284 .6376-1.91284-.6376-3.8257-2.07224-1.91284-.9564-.31879-.31879 1.27522 0Z"/>
</svg>
