<svg xmlns="http://www.w3.org/2000/svg" xmlns:xlink="http://www.w3.org/1999/xlink" version="1.1" width="157" height="157" viewBox="0 0 157 157">
<defs>
<path id="font_1_1" d="M.33399964 .30233766C.33999635 .32835389 .36299134 .42037965 .43299867 .42037965 .43798829 .42037965 .46199037 .42037965 .48298646 .40734864 .45498658 .402359 .43499757 .37734986 .43499757 .35334779 .43499757 .33735658 .44599916 .31835938 .47299195 .31835938 .49499513 .31835938 .5269928 .3363495 .5269928 .37635804 .5269928 .42837525 .46798707 .4423828 .43399049 .4423828 .37599183 .4423828 .34098817 .38935853 .32899476 .36634828 .3039856 .43237306 .25 .4423828 .22099304 .4423828 .116989139 .4423828 .05999756 .3133545 .05999756 .28834535 .05999756 .27833558 .069992069 .27833558 .07199097 .27833558 .07998657 .27833558 .08299255 .28033448 .084991458 .28933717 .11898804 .39535523 .18499756 .42037965 .21899414 .42037965 .23799134 .42037965 .272995 .4113617 .272995 .35334779 .272995 .32235719 .2559967 .25532533 .21899414 .11528015 .20298767 .053268434 .16799927 .011245728 .12399292 .011245728 .117996219 .011245728 .09498596 .011245728 .07398987 .024276734 .09899902 .029266358 .12098694 .05027771 .12098694 .07827759 .12098694 .105270389 .09899902 .11328125 .083999637 .11328125 .053985597 .11328125 .0289917 .08728027 .0289917 .055267335 .0289917 .009246826 .07899475-.0107421879 .12298584-.0107421879 .18899536-.0107421879 .22499085 .059280397 .22799683 .0652771 .23999024 .028274537 .27598573-.0107421879 .33599855-.0107421879 .43899537-.0107421879 .49598695 .118270877 .49598695 .14328003 .49598695 .1532898 .4869995 .1532898 .48399354 .1532898 .47499085 .1532898 .47299195 .14929199 .47099305 .14228821 .43798829 .03527832 .36999513 .011245728 .33799745 .011245728 .29899598 .011245728 .2829895 .043273927 .2829895 .07727051 .2829895 .09927368 .2889862 .121276859 .2999878 .16529846L.33399964 .30233766Z"/>
<path id="font_1_2" d="M.48599244 .38136292C.48999024 .39537049 .48999024 .39736939 .48999024 .40437318 .48999024 .42237855 .47599793 .43138124 .46099855 .43138124 .45098878 .43138124 .43499757 .42536927 .42599488 .41036988 .42399598 .405365 .41600038 .37435914 .4119873 .35635377 .40499879 .33035279 .397995 .30334474 .3919983 .27633668L.34700013 .09628296C.34298707 .08126831 .2999878 .011245728 .23399353 .011245728 .18299866 .011245728 .17199707 .055267335 .17199707 .0922699 .17199707 .1382904 .18899536 .20030213 .22299195 .28833009 .23899842 .3293457 .24299622 .3403473 .24299622 .36035157 .24299622 .405365 .21099854 .4423828 .16099549 .4423828 .06599426 .4423828 .0289917 .29733277 .0289917 .28833009 .0289917 .27833558 .038986207 .27833558 .040985109 .27833558 .050994874 .27833558 .051986696 .28033448 .056991579 .29634095 .083999637 .3903656 .12399292 .42037965 .1579895 .42037965 .1659851 .42037965 .18299866 .42037965 .18299866 .3883667 .18299866 .36335755 .17298889 .3373413 .1659851 .31834413 .12599182 .21231079 .10798645 .1552887 .10798645 .10827637 .10798645 .019256592 .17098999-.0107421879 .22999573-.0107421879 .2689972-.0107421879 .30299378 .0062561037 .33099366 .03425598 .31799317-.017745972 .30599977-.06674194 .2659912-.11973572 .23999024-.15385437 .20199585-.18309021 .1559906-.18309021 .14199829-.18309021 .09700012-.18005371 .07998657-.14074707 .09599304-.14074707 .10899353-.14074707 .12298584-.1287384 .1329956-.11973572 .14299011-.10673523 .14299011-.08773804 .14299011-.056747438 .115997318-.052734376 .10598755-.052734376 .08299255-.052734376 .049987794-.068740848 .049987794-.11773682 .049987794-.16796875 .09399414-.20507813 .1559906-.20507813 .25898744-.20507813 .3619995-.11373901 .3899994-.00074768069L.48599244 .38136292Z"/>
<path id="font_2_2" d="M.2939911 .64004519C.2939911 .66400149 .2939911 .6660156 .2709961 .6660156 .20899964 .60227969 .12098694 .60227969 .08898926 .60227969V.57128909C.10899353 .57128909 .16799927 .57128909 .21998596 .5972748V.07902527C.21998596 .042999269 .21699524 .0309906 .1269989 .0309906H.09498596V0C.12998963 .0029907227 .21699524 .0029907227 .25698854 .0029907227 .29699708 .0029907227 .38398744 .0029907227 .4189911 0V.0309906H.3869934C.29699708 .0309906 .2939911 .041992189 .2939911 .07902527V.64004519Z"/>
<path id="font_2_3" d="M.1269989 .07699585 .23298645 .18003845C.3889923 .31811524 .44898988 .3721466 .44898988 .47216798 .44898988 .5860901 .35899354 .6660156 .23699951 .6660156 .12399292 .6660156 .049987794 .57411196 .049987794 .48516847 .049987794 .4291687 .099990848 .4291687 .102996829 .4291687 .11999512 .4291687 .15499878 .44117738 .15499878 .48217774 .15499878 .5081787 .13699341 .5341797 .101989749 .5341797 .09399414 .5341797 .09199524 .5341797 .08898926 .5331726 .11199951 .59806826 .1659851 .63500979 .22399903 .63500979 .31498719 .63500979 .35798646 .5541382 .35798646 .47216798 .35798646 .39215089 .30799867 .31311036 .25299073 .25108338L.06098938 .036987306C.049987794 .025985718 .049987794 .023986817 .049987794 0H.42099L.44898988 .17404175H.42399598C.4189911 .14402771 .4119873 .1000061 .4019928 .084991458 .394989 .07699585 .32899476 .07699585 .30699159 .07699585H.1269989Z"/>
<path id="font_2_4" d="M.2899933 .35191346C.37199403 .37893678 .42999269 .4490509 .42999269 .52809146 .42999269 .6100464 .34199525 .6660156 .24598694 .6660156 .14498902 .6660156 .068984989 .60606387 .068984989 .53009036 .068984989 .49710084 .09098816 .47808839 .11999512 .47808839 .15098572 .47808839 .17098999 .50009158 .17098999 .5290985 .17098999 .57910159 .12399292 .57910159 .10899353 .57910159 .13999939 .62802127 .20599365 .64100649 .24198914 .64100649 .2829895 .64100649 .33799745 .6190338 .33799745 .5290985 .33799745 .51708987 .33599855 .45906068 .30999757 .4149933 .27999879 .36691285 .24598694 .36390687 .22099304 .36291505 .21299744 .36190797 .18899536 .35990907 .18199158 .35990907 .17399597 .35890199 .16699219 .35791017 .16699219 .3479004 .16699219 .33691407 .17399597 .33691407 .19099427 .33691407H.23498535C.31698609 .33691407 .35398866 .2686615 .35398866 .17037964 .35398866 .034469606 .2849884 .0055389406 .24099732 .0055389406 .19799805 .0055389406 .12298584 .022491456 .08799744 .08137512 .12298584 .07637024 .1539917 .09837341 .1539917 .1363678 .1539917 .17237854 .1269989 .19238281 .09799194 .19238281 .07398987 .19238281 .041992189 .17837525 .041992189 .1343689 .041992189 .043441774 .1349945-.022460938 .24398804-.022460938 .3659973-.022460938 .45700074 .06838989 .45700074 .17037964 .45700074 .252594 .3939972 .33088685 .2899933 .35191346Z"/>
<path id="font_2_5" d="M.2939911 .16503906V.07800293C.2939911 .041992189 .2919922 .0309906 .21798706 .0309906H.19699097V0C.23799134 .0029907227 .2899933 .0029907227 .33198548 .0029907227 .37399293 .0029907227 .4269867 .0029907227 .46798707 0V.0309906H.44699098C.37298585 .0309906 .37098695 .041992189 .37098695 .07800293V.16503906H.47099305V.19602967H.37098695V.65075686C.37098695 .67074587 .37098695 .6767578 .35499574 .6767578 .34599305 .6767578 .34298707 .6767578 .33499146 .66474917L.027999878 .19602967V.16503906H.2939911M.2999878 .19602967H.055999757L.2999878 .5688019V.19602967Z"/>
<path id="font_2_6" d="M.44898988 .20022583C.44898988 .3193512 .36698915 .41944886 .25898744 .41944886 .21099854 .41944886 .16799927 .40345765 .13198853 .36842347V.5637665C.1519928 .5577698 .18499756 .55078127 .21699524 .55078127 .33999635 .55078127 .4099884 .6417694 .4099884 .6547699 .4099884 .6607666 .40699769 .6657715 .3999939 .6657715 .39898683 .6657715 .39698792 .6657715 .3919983 .66278079 .37199403 .6537781 .32299806 .6337738 .2559967 .6337738 .21598816 .6337738 .16999817 .6407776 .12298584 .6617737 .114990238 .66477969 .11299133 .66477969 .11099243 .66477969 .100997928 .66477969 .100997928 .6567688 .100997928 .6407776V.34439088C.100997928 .32637025 .100997928 .31835938 .114990238 .31835938 .12199402 .31835938 .12399292 .32136537 .12799073 .32736207 .13899231 .3433838 .17599488 .39746095 .25698854 .39746095 .30899049 .39746095 .33399964 .35139466 .34199525 .33337403 .35798646 .29632569 .3600006 .25727845 .3600006 .20722962 .3600006 .17222595 .3600006 .11222839 .33599855 .07035828 .31199647 .031463624 .2749939 .0055389406 .22898865 .0055389406 .1559906 .0055389406 .09899902 .058380128 .08198547 .11723328 .084991458 .1162262 .08799744 .115234378 .09899902 .115234378 .13198853 .115234378 .14898682 .14022827 .14898682 .16423035 .14898682 .18823242 .13198853 .21322632 .09899902 .21322632 .084991458 .21322632 .049987794 .20622254 .049987794 .16023255 .049987794 .07434082 .11898804-.022460938 .23098755-.022460938 .34700013-.022460938 .44898988 .073349 .44898988 .20022583Z"/>
<path id="font_2_7" d="M.13198853 .327713V.35173036C.13198853 .6047821 .2559967 .64100649 .30699159 .64100649 .33099366 .64100649 .37298585 .634964 .394989 .6007538 .37998963 .6007538 .33999635 .6007538 .33999635 .5557556 .33999635 .524765 .3639984 .5097656 .38598634 .5097656 .4019928 .5097656 .43199159 .51875308 .43199159 .5577545 .43199159 .6178589 .3880005 .6660156 .30499269 .6660156 .1769867 .6660156 .041992189 .5367584 .041992189 .31570436 .041992189 .048553468 .1579895-.022460938 .25099183-.022460938 .3619995-.022460938 .45700074 .07156372 .45700074 .2036438 .45700074 .33070375 .36799623 .4267578 .25698854 .4267578 .18899536 .4267578 .1519928 .37573243 .13198853 .327713M.25099183 .0055389406C.18798828 .0055389406 .1579895 .06556702 .1519928 .080566409 .13398743 .127594 .13398743 .2076416 .13398743 .22564698 .13398743 .30369569 .1659851 .40374757 .2559967 .40374757 .27198792 .40374757 .31799317 .40374757 .34899903 .34172059 .36698915 .30470277 .36698915 .2536621 .36698915 .20463562 .36698915 .15661621 .36698915 .10658264 .34999085 .0705719 .31999208 .010528564 .27398683 .0055389406 .25099183 .0055389406Z"/>
<path id="font_2_1" d="M.45999146 .31976319C.45999146 .39982606 .45498658 .47988893 .41999818 .5539398 .37399293 .65000918 .2919922 .6660156 .25 .6660156 .18998719 .6660156 .116989139 .64001467 .07598877 .54693606 .04399109 .47789 .038986207 .39982606 .038986207 .31976319 .038986207 .24472046 .042999269 .15464783 .083999637 .07859802 .1269989-.0024719239 .19999695-.022460938 .24899292-.022460938 .30299378-.022460938 .3789978-.0014648438 .4229889 .09359741 .45498658 .16265869 .45999146 .2407074 .45999146 .31976319M.24899292-.00047302247C.20999146-.00047302247 .15098572 .024551392 .1329956 .12062073 .12199402 .18066406 .12199402 .2727356 .12199402 .3317871 .12199402 .39582826 .12199402 .46188355 .12998963 .5159149 .14898682 .63500979 .22399903 .64401248 .24899292 .64401248 .28199769 .64401248 .34799195 .6259918 .36698915 .52693179 .3769989 .47088624 .3769989 .39482118 .3769989 .3317871 .3769989 .25672914 .3769989 .18867493 .3659973 .12461853 .35099793 .029556275 .2939911-.00047302247 .24899292-.00047302247Z"/>
</defs>
<path transform="matrix(1.00006,0,0,-1.00005,17.339196,142.83248)" stroke-width=".3985" stroke-linecap="butt" stroke-miterlimit="10" stroke-linejoin="miter" fill="none" stroke="#00aeef" d="M0 0H119.05606M0 19.84267H119.05606M0 39.68535H119.05606M0 59.52802H119.05606M0 79.37071H119.05606M0 99.2134H119.05606M0 119.0491H119.05606M0 0V119.05606M19.84267 0V119.05606M39.68535 0V119.05606M59.52802 0V119.05606M79.37071 0V119.05606M99.2134 0V119.05606M119.0491 0V119.05606M119.05606 119.05606"/>
<path transform="matrix(1.00006,0,0,-1.00005,17.339196,142.83248)" stroke-width=".79701" stroke-linecap="butt" stroke-miterlimit="10" stroke-linejoin="miter" fill="none" stroke="#000000" d="M0 0H127.5428"/>
<path transform="matrix(1.00006,0,0,-1.00005,144.88965,142.83248)" d="M1.0361 0C-.25902 .25902-1.55415 .77707-3.1083 1.68365-1.55415 .51805-1.55415-.51805-3.1083-1.68365-1.55415-.77707-.25902-.25902 1.0361 0Z"/>
<path transform="matrix(1.00006,0,0,-1.00005,144.88965,142.83248)" stroke-width=".79701" stroke-linecap="butt" stroke-linejoin="round" fill="none" stroke="#000000" d="M1.0361 0C-.25902 .25902-1.55415 .77707-3.1083 1.68365-1.55415 .51805-1.55415-.51805-3.1083-1.68365-1.55415-.77707-.25902-.25902 1.0361 0Z"/>
<use data-text="x" xlink:href="#font_1_1" transform="matrix(9.963197,0,0,-9.963098,150.04315,144.97759)"/>
<path transform="matrix(1.00006,0,0,-1.00005,17.339196,142.83248)" stroke-width=".79701" stroke-linecap="butt" stroke-miterlimit="10" stroke-linejoin="miter" fill="none" stroke="#000000" d="M0 0V129.52718"/>
<path transform="matrix(0,-1.00005,-1.00006,-0,17.339196,13.298828)" d="M1.0361 0C-.25902 .25902-1.55415 .77707-3.1083 1.68365-1.55415 .51805-1.55415-.51805-3.1083-1.68365-1.55415-.77707-.25902-.25902 1.0361 0Z"/>
<path transform="matrix(0,-1.00005,-1.00006,-0,17.339196,13.298828)" stroke-width=".79701" stroke-linecap="butt" stroke-linejoin="round" fill="none" stroke="#000000" d="M1.0361 0C-.25902 .25902-1.55415 .77707-3.1083 1.68365-1.55415 .51805-1.55415-.51805-3.1083-1.68365-1.55415-.77707-.25902-.25902 1.0361 0Z"/>
<use data-text="y" xlink:href="#font_1_2" transform="matrix(9.963197,0,0,-9.963098,14.71804,6.207657)"/>
<path transform="matrix(1.00006,0,0,-1.00005,17.339196,142.83248)" stroke-width=".3985" stroke-linecap="butt" stroke-miterlimit="10" stroke-linejoin="miter" fill="none" stroke="#000000" d="M19.84267 2.97627V-2.97658"/>
<path transform="matrix(1.00006,0,0,-1.00005,17.339196,142.83248)" d="M16.3557-13.58136H23.32964V-5.16838H16.3557Z" fill="#ffffff"/>
<use data-text="1" xlink:href="#font_2_2" transform="matrix(9.963197,0,0,-9.963098,34.692239,155.4181)"/>
<path transform="matrix(1.00006,0,0,-1.00005,17.339196,142.83248)" stroke-width=".3985" stroke-linecap="butt" stroke-miterlimit="10" stroke-linejoin="miter" fill="none" stroke="#000000" d="M39.68535 2.97627V-2.97658"/>
<path transform="matrix(1.00006,0,0,-1.00005,17.339196,142.83248)" d="M36.19838-13.58136H43.172319V-5.16838H36.19838Z" fill="#ffffff"/>
<use data-text="2" xlink:href="#font_2_3" transform="matrix(9.963197,0,0,-9.963098,54.536428,155.4181)"/>
<path transform="matrix(1.00006,0,0,-1.00005,17.339196,142.83248)" stroke-width=".3985" stroke-linecap="butt" stroke-miterlimit="10" stroke-linejoin="miter" fill="none" stroke="#000000" d="M59.52802 2.97627V-2.97658"/>
<path transform="matrix(1.00006,0,0,-1.00005,17.339196,142.83248)" d="M56.04105-13.58136H63.01499V-5.16838H56.04105Z" fill="#ffffff"/>
<use data-text="3" xlink:href="#font_2_4" transform="matrix(9.963197,0,0,-9.963098,74.379619,155.4181)"/>
<path transform="matrix(1.00006,0,0,-1.00005,17.339196,142.83248)" stroke-width=".3985" stroke-linecap="butt" stroke-miterlimit="10" stroke-linejoin="miter" fill="none" stroke="#000000" d="M79.37071 2.97627V-2.97658"/>
<path transform="matrix(1.00006,0,0,-1.00005,17.339196,142.83248)" d="M75.88374-13.58136H82.85768V-5.16838H75.88374Z" fill="#ffffff"/>
<use data-text="4" xlink:href="#font_2_5" transform="matrix(9.963197,0,0,-9.963098,94.2238,155.4181)"/>
<path transform="matrix(1.00006,0,0,-1.00005,17.339196,142.83248)" stroke-width=".3985" stroke-linecap="butt" stroke-miterlimit="10" stroke-linejoin="miter" fill="none" stroke="#000000" d="M99.2134 2.97627V-2.97658"/>
<path transform="matrix(1.00006,0,0,-1.00005,17.339196,142.83248)" d="M95.72643-13.58136H102.70037V-5.16838H95.72643Z" fill="#ffffff"/>
<use data-text="5" xlink:href="#font_2_6" transform="matrix(9.963197,0,0,-9.963098,114.06799,155.4181)"/>
<path transform="matrix(1.00006,0,0,-1.00005,17.339196,142.83248)" stroke-width=".3985" stroke-linecap="butt" stroke-miterlimit="10" stroke-linejoin="miter" fill="none" stroke="#000000" d="M119.05606 2.97627V-2.97658"/>
<path transform="matrix(1.00006,0,0,-1.00005,17.339196,142.83248)" d="M115.56909-13.58136H122.54303V-5.16838H115.56909Z" fill="#ffffff"/>
<use data-text="6" xlink:href="#font_2_7" transform="matrix(9.963197,0,0,-9.963098,133.9112,155.4181)"/>
<path transform="matrix(1.00006,0,0,-1.00005,17.339196,142.83248)" stroke-width=".3985" stroke-linecap="butt" stroke-miterlimit="10" stroke-linejoin="miter" fill="none" stroke="#000000" d="M2.97627 19.84267H-2.97658"/>
<path transform="matrix(1.00006,0,0,-1.00005,17.339196,142.83248)" d="M-12.14232 15.63617H-5.16838V24.04915H-12.14232Z" fill="#ffffff"/>
<use data-text="5" xlink:href="#font_2_6" transform="matrix(9.963197,0,0,-9.963098,6.192528,126.199649)"/>
<path transform="matrix(1.00006,0,0,-1.00005,17.339196,142.83248)" stroke-width=".3985" stroke-linecap="butt" stroke-miterlimit="10" stroke-linejoin="miter" fill="none" stroke="#000000" d="M2.97627 39.68535H-2.97658"/>
<path transform="matrix(1.00006,0,0,-1.00005,17.339196,142.83248)" d="M-17.12373 35.47885H-5.1683895V43.89183H-17.12373Z" fill="#ffffff"/>
<use data-text="1" xlink:href="#font_2_2" transform="matrix(9.963197,0,0,-9.963098,1.2112274,106.35565)"/>
<use data-text="0" xlink:href="#font_2_1" transform="matrix(9.963197,0,0,-9.963098,6.1928255,106.35565)"/>
<path transform="matrix(1.00006,0,0,-1.00005,17.339196,142.83248)" stroke-width=".3985" stroke-linecap="butt" stroke-miterlimit="10" stroke-linejoin="miter" fill="none" stroke="#000000" d="M2.97627 59.52802H-2.97658"/>
<path transform="matrix(1.00006,0,0,-1.00005,17.339196,142.83248)" d="M-17.12373 55.32153H-5.1683895V63.73451H-17.12373Z" fill="#ffffff"/>
<use data-text="1" xlink:href="#font_2_2" transform="matrix(9.963197,0,0,-9.963098,1.2112274,86.51166)"/>
<use data-text="5" xlink:href="#font_2_6" transform="matrix(9.963197,0,0,-9.963098,6.1928255,86.51166)"/>
<path transform="matrix(1.00006,0,0,-1.00005,17.339196,142.83248)" stroke-width=".3985" stroke-linecap="butt" stroke-miterlimit="10" stroke-linejoin="miter" fill="none" stroke="#000000" d="M2.97627 79.37071H-2.97658"/>
<path transform="matrix(1.00006,0,0,-1.00005,17.339196,142.83248)" d="M-17.12373 75.16422H-5.1683895V83.5772H-17.12373Z" fill="#ffffff"/>
<use data-text="2" xlink:href="#font_2_3" transform="matrix(9.963197,0,0,-9.963098,1.2112274,66.66866)"/>
<use data-text="0" xlink:href="#font_2_1" transform="matrix(9.963197,0,0,-9.963098,6.1928255,66.66866)"/>
<path transform="matrix(1.00006,0,0,-1.00005,17.339196,142.83248)" stroke-width=".3985" stroke-linecap="butt" stroke-miterlimit="10" stroke-linejoin="miter" fill="none" stroke="#000000" d="M2.97627 99.2134H-2.97658"/>
<path transform="matrix(1.00006,0,0,-1.00005,17.339196,142.83248)" d="M-17.12373 95.0069H-5.1683895V103.419879H-17.12373Z" fill="#ffffff"/>
<use data-text="2" xlink:href="#font_2_3" transform="matrix(9.963197,0,0,-9.963098,1.2112274,46.824678)"/>
<use data-text="5" xlink:href="#font_2_6" transform="matrix(9.963197,0,0,-9.963098,6.1928255,46.824678)"/>
<path transform="matrix(1.00006,0,0,-1.00005,17.339196,142.83248)" stroke-width=".3985" stroke-linecap="butt" stroke-miterlimit="10" stroke-linejoin="miter" fill="none" stroke="#000000" d="M2.97627 119.05606H-2.97658"/>
<path transform="matrix(1.00006,0,0,-1.00005,17.339196,142.83248)" d="M-17.12373 114.84956H-5.1683895V123.26254H-17.12373Z" fill="#ffffff"/>
<use data-text="3" xlink:href="#font_2_4" transform="matrix(9.963197,0,0,-9.963098,1.2112274,26.98069)"/>
<use data-text="0" xlink:href="#font_2_1" transform="matrix(9.963197,0,0,-9.963098,6.1928255,26.98069)"/>
<path transform="matrix(1.00006,0,0,-1.00005,17.339196,142.83248)" stroke-width="1.19553" stroke-linecap="butt" stroke-miterlimit="10" stroke-linejoin="miter" fill="none" stroke="#ff0000" d="M0 87.30766C0 87.30766 1.34401 84.11307 1.86023 82.91287 2.37643 81.71266 3.20427 79.81883 3.72047 78.65736 4.2367 77.4959 5.06451 75.66447 5.58073 74.54173 6.09694 73.419 6.92477 71.64944 7.44098 70.56538 7.9572 69.48134 8.78503 67.77394 9.30124 66.72862 9.81744 65.6833 10.64526 64.03806 11.16148 63.03143 11.67769 62.02481 12.50552 60.44142 13.02173 59.47353 13.53795 58.50563 14.36578 56.98465 14.882 56.0555 15.3982 55.12633 16.22603 53.6672 16.74223 52.77673 17.25845 51.88628 18.08629 50.48929 18.6025 49.63757 19.1187 48.78583 19.94653 47.45102 20.46275 46.63797 20.97896 45.8249 21.80678 44.55197 22.32298 43.77765 22.8392 43.00333 23.66704 41.7928 24.18324 41.05722 24.69945 40.32162 25.5273 39.17294 26.0435 38.47604 26.55972 37.77916 27.38753 36.69263 27.90375 36.03447 28.41995 35.37631 29.24779 34.35193 29.764 33.73247 30.28021 33.11302 31.10805 32.15047 31.62425 31.56975 32.14047 30.98903 32.96829 30.08891 33.4845 29.5469 34.0007 29.0049 34.82855 28.16666 35.34476 27.66335 35.86098 27.16003 36.6888 26.38394 37.20502 25.91937 37.72122 25.45477 38.54904 24.74084 39.06525 24.31494 39.58147 23.88907 40.4093 23.23697 40.9255 22.84982 41.44173 22.46266 42.26955 21.873 42.78577 21.52457 43.30197 21.17615 44.1298 20.64833 44.64601 20.3386 45.16222 20.02887 45.99005 19.5632 46.50627 19.29222 47.02248 19.02121 47.8503 18.6177 48.36652 18.3854 48.88274 18.15309 49.71056 17.81145 50.22676 17.61787 50.74298 17.42429 51.5708 17.14505 52.08702 16.9902 52.60323 16.83536 53.43106 16.618 53.94727 16.50183 54.46349 16.38568 55.2913 16.23044 55.80753 16.15303 56.32373 16.0756 57.15155 15.98254 57.66777 15.94383 58.18399 15.9051 59.01181 15.87389 59.52802 15.87389 60.04424 15.87389 60.87206 15.9051 61.38828 15.94383 61.90448 15.98254 62.73232 16.0756 63.24852 16.15303 63.76474 16.23044 64.59256 16.38568 65.10878 16.50183 65.62498 16.618 66.4528 16.83536 66.96902 16.9902 67.48524 17.14505 68.31306 17.42429 68.82927 17.61787 69.34549 17.81145 70.17331 18.15309 70.68953 18.3854 71.20573 18.6177 72.03357 19.02121 72.54977 19.29222 73.066 19.5632 73.89383 20.02887 74.41003 20.3386 74.92624 20.64833 75.75406 21.17615 76.27028 21.52457 76.7865 21.873 77.61432 22.46266 78.13052 22.84982 78.64674 23.23697 79.47458 23.88907 79.99078 24.31494 80.50699 24.74084 81.33482 25.45477 81.85103 25.91937 82.36725 26.38394 83.19507 27.16003 83.71129 27.66335 84.2275 28.16666 85.05533 29.0049 85.57155 29.5469 86.08775 30.08891 86.91557 30.98903 87.43178 31.56975 87.948 32.15047 88.77583 33.11302 89.29204 33.73247 89.80824 34.35193 90.6361 35.37631 91.1523 36.03447 91.66852 36.69263 92.49632 37.77916 93.01254 38.47604 93.52875 39.17294 94.35658 40.32162 94.87279 41.05722 95.389 41.7928 96.21684 43.00333 96.73305 43.77765 97.24927 44.55197 98.07707 45.8249 98.59329 46.63797 99.1095 47.45102 99.93735 48.78583 100.45355 49.63757 100.96976 50.48929 101.79759 51.88628 102.31381 52.77673 102.83002 53.6672 103.65784 55.12633 104.17404 56.0555 104.69026 56.98465 105.5181 58.50563 106.0343 59.47353 106.55052 60.44142 107.37834 62.02481 107.89456 63.03143 108.41077 64.03806 109.2386 65.6833 109.7548 66.72862 110.27101 67.77394 111.09885 69.48134 111.61507 70.56538 112.13127 71.64944 112.95909 73.419 113.47531 74.54173 113.99153 75.66447 114.81935 77.4959 115.33556 78.65736 115.85176 79.81883 116.6796 81.71266 117.19582 82.91287 117.71202 84.11307 119.05606 87.30766 119.05606 87.30766"/>
</svg>
