<svg xmlns="http://www.w3.org/2000/svg" xmlns:xlink="http://www.w3.org/1999/xlink" version="1.1" width="156" height="287" viewBox="0 0 156 287">
<defs>
<path id="font_1_2" d="M.46798707 .37236024C.46798707 .42637635 .44198609 .4423828 .42399598 .4423828 .39898683 .4423828 .375 .41636659 .375 .3943634 .375 .38136292 .37998963 .3753662 .3909912 .36434938 .4119873 .3443451 .4249878 .31834413 .4249878 .28233338 .4249878 .24032593 .3639984 .011245728 .24699402 .011245728 .19599915 .011245728 .17298889 .04626465 .17298889 .09828186 .17298889 .15429688 .19999695 .22731018 .23098755 .31033326 .23799134 .3273468 .24299622 .34135438 .24299622 .36035157 .24299622 .405365 .21099854 .4423828 .16099549 .4423828 .066986087 .4423828 .0289917 .29733277 .0289917 .28833009 .0289917 .27833558 .038986207 .27833558 .040985109 .27833558 .050994874 .27833558 .051986696 .28033448 .056991579 .29634095 .085998538 .39736939 .1289978 .42037965 .1579895 .42037965 .1659851 .42037965 .18299866 .42037965 .18299866 .3883667 .18299866 .36335755 .17298889 .3363495 .1659851 .31834413 .12199402 .20230103 .10899353 .15629578 .10899353 .11328125 .10899353 .0052490236 .19699097-.0107421879 .24299622-.0107421879 .41099549-.0107421879 .46798707 .32034303 .46798707 .37236024Z"/>
<path id="font_1_1" d="M.20599365 .3996582H.2999878C.31999208 .3996582 .32998658 .3996582 .32998658 .41966249 .32998658 .43066407 .31999208 .43066407 .3019867 .43066407H.21398926C.25 .5724945 .25498963 .59246829 .25498963 .59846499 .25498963 .61546328 .24299622 .62545779 .22599793 .62545779 .22299195 .62545779 .19499207 .62446597 .18598938 .58947756L.14698792 .43066407H.052993776C.032989503 .43066407 .022994996 .43066407 .022994996 .4116516 .022994996 .3996582 .0309906 .3996582 .050994874 .3996582H.13899231C.066986087 .11608887 .06298828 .099121097 .06298828 .08114624 .06298828 .02722168 .100997928-.0107421879 .15499878-.0107421879 .25698854-.0107421879 .31399537 .13505554 .31399537 .14305115 .31399537 .1530304 .30599977 .1530304 .3019867 .1530304 .29299928 .1530304 .2919922 .15003968 .2869873 .13905335 .24398804 .035217287 .19099427 .011245728 .15699768 .011245728 .13598633 .011245728 .12599182 .024230957 .12599182 .057174684 .12599182 .08114624 .12799073 .088134769 .13198853 .10510254L.20599365 .3996582Z"/>
<path id="font_2_5" d="M.44898988 .20022583C.44898988 .3193512 .36698915 .41944886 .25898744 .41944886 .21099854 .41944886 .16799927 .40345765 .13198853 .36842347V.5637665C.1519928 .5577698 .18499756 .55078127 .21699524 .55078127 .33999635 .55078127 .4099884 .6417694 .4099884 .6547699 .4099884 .6607666 .40699769 .6657715 .3999939 .6657715 .39898683 .6657715 .39698792 .6657715 .3919983 .66278079 .37199403 .6537781 .32299806 .6337738 .2559967 .6337738 .21598816 .6337738 .16999817 .6407776 .12298584 .6617737 .114990238 .66477969 .11299133 .66477969 .11099243 .66477969 .100997928 .66477969 .100997928 .6567688 .100997928 .6407776V.34439088C.100997928 .32637025 .100997928 .31835938 .114990238 .31835938 .12199402 .31835938 .12399292 .32136537 .12799073 .32736207 .13899231 .3433838 .17599488 .39746095 .25698854 .39746095 .30899049 .39746095 .33399964 .35139466 .34199525 .33337403 .35798646 .29632569 .3600006 .25727845 .3600006 .20722962 .3600006 .17222595 .3600006 .11222839 .33599855 .07035828 .31199647 .031463624 .2749939 .0055389406 .22898865 .0055389406 .1559906 .0055389406 .09899902 .058380128 .08198547 .11723328 .084991458 .1162262 .08799744 .115234378 .09899902 .115234378 .13198853 .115234378 .14898682 .14022827 .14898682 .16423035 .14898682 .18823242 .13198853 .21322632 .09899902 .21322632 .084991458 .21322632 .049987794 .20622254 .049987794 .16023255 .049987794 .07434082 .11898804-.022460938 .23098755-.022460938 .34700013-.022460938 .44898988 .073349 .44898988 .20022583Z"/>
<path id="font_2_2" d="M.2939911 .64004519C.2939911 .66400149 .2939911 .6660156 .2709961 .6660156 .20899964 .60227969 .12098694 .60227969 .08898926 .60227969V.57128909C.10899353 .57128909 .16799927 .57128909 .21998596 .5972748V.07902527C.21998596 .042999269 .21699524 .0309906 .1269989 .0309906H.09498596V0C.12998963 .0029907227 .21699524 .0029907227 .25698854 .0029907227 .29699708 .0029907227 .38398744 .0029907227 .4189911 0V.0309906H.3869934C.29699708 .0309906 .2939911 .041992189 .2939911 .07902527V.64004519Z"/>
<path id="font_2_1" d="M.45999146 .31976319C.45999146 .39982606 .45498658 .47988893 .41999818 .5539398 .37399293 .65000918 .2919922 .6660156 .25 .6660156 .18998719 .6660156 .116989139 .64001467 .07598877 .54693606 .04399109 .47789 .038986207 .39982606 .038986207 .31976319 .038986207 .24472046 .042999269 .15464783 .083999637 .07859802 .1269989-.0024719239 .19999695-.022460938 .24899292-.022460938 .30299378-.022460938 .3789978-.0014648438 .4229889 .09359741 .45498658 .16265869 .45999146 .2407074 .45999146 .31976319M.24899292-.00047302247C.20999146-.00047302247 .15098572 .024551392 .1329956 .12062073 .12199402 .18066406 .12199402 .2727356 .12199402 .3317871 .12199402 .39582826 .12199402 .46188355 .12998963 .5159149 .14898682 .63500979 .22399903 .64401248 .24899292 .64401248 .28199769 .64401248 .34799195 .6259918 .36698915 .52693179 .3769989 .47088624 .3769989 .39482118 .3769989 .3317871 .3769989 .25672914 .3769989 .18867493 .3659973 .12461853 .35099793 .029556275 .2939911-.00047302247 .24899292-.00047302247Z"/>
<path id="font_2_3" d="M.1269989 .07699585 .23298645 .18003845C.3889923 .31811524 .44898988 .3721466 .44898988 .47216798 .44898988 .5860901 .35899354 .6660156 .23699951 .6660156 .12399292 .6660156 .049987794 .57411196 .049987794 .48516847 .049987794 .4291687 .099990848 .4291687 .102996829 .4291687 .11999512 .4291687 .15499878 .44117738 .15499878 .48217774 .15499878 .5081787 .13699341 .5341797 .101989749 .5341797 .09399414 .5341797 .09199524 .5341797 .08898926 .5331726 .11199951 .59806826 .1659851 .63500979 .22399903 .63500979 .31498719 .63500979 .35798646 .5541382 .35798646 .47216798 .35798646 .39215089 .30799867 .31311036 .25299073 .25108338L.06098938 .036987306C.049987794 .025985718 .049987794 .023986817 .049987794 0H.42099L.44898988 .17404175H.42399598C.4189911 .14402771 .4119873 .1000061 .4019928 .084991458 .394989 .07699585 .32899476 .07699585 .30699159 .07699585H.1269989Z"/>
<path id="font_2_4" d="M.2899933 .35191346C.37199403 .37893678 .42999269 .4490509 .42999269 .52809146 .42999269 .6100464 .34199525 .6660156 .24598694 .6660156 .14498902 .6660156 .068984989 .60606387 .068984989 .53009036 .068984989 .49710084 .09098816 .47808839 .11999512 .47808839 .15098572 .47808839 .17098999 .50009158 .17098999 .5290985 .17098999 .57910159 .12399292 .57910159 .10899353 .57910159 .13999939 .62802127 .20599365 .64100649 .24198914 .64100649 .2829895 .64100649 .33799745 .6190338 .33799745 .5290985 .33799745 .51708987 .33599855 .45906068 .30999757 .4149933 .27999879 .36691285 .24598694 .36390687 .22099304 .36291505 .21299744 .36190797 .18899536 .35990907 .18199158 .35990907 .17399597 .35890199 .16699219 .35791017 .16699219 .3479004 .16699219 .33691407 .17399597 .33691407 .19099427 .33691407H.23498535C.31698609 .33691407 .35398866 .2686615 .35398866 .17037964 .35398866 .034469606 .2849884 .0055389406 .24099732 .0055389406 .19799805 .0055389406 .12298584 .022491456 .08799744 .08137512 .12298584 .07637024 .1539917 .09837341 .1539917 .1363678 .1539917 .17237854 .1269989 .19238281 .09799194 .19238281 .07398987 .19238281 .041992189 .17837525 .041992189 .1343689 .041992189 .043441774 .1349945-.022460938 .24398804-.022460938 .3659973-.022460938 .45700074 .06838989 .45700074 .17037964 .45700074 .252594 .3939972 .33088685 .2899933 .35191346Z"/>
</defs>
<path transform="matrix(1.00002,0,0,-1.00008,21.610154,273.73185)" stroke-width=".3985" stroke-linecap="butt" stroke-miterlimit="10" stroke-linejoin="miter" fill="none" stroke="#00aeef" d="M0 0H113.3855M0 8.50412H113.3855M0 17.00824H113.3855M0 25.51237H113.3855M0 34.0165H113.3855M0 42.52063H113.3855M0 51.02477H113.3855M0 59.52888H113.3855M0 68.03302H113.3855M0 76.53716H113.3855M0 85.04128H113.3855M0 93.54541H113.3855M0 102.04953H113.3855M0 110.55368H113.3855M0 119.0578H113.3855M0 127.56192H113.3855M0 136.06606H113.3855M0 144.57019H113.3855M0 153.07433H113.3855M0 161.57845H113.3855M0 170.08257H113.3855M0 178.5867H113.3855M0 187.09084H113.3855M0 195.59496H113.3855M0 204.09909H113.3855M0 212.60321H113.3855M0 221.10736H113.3855M0 229.61148H113.3855M0 238.1156H113.3855M0 246.61974H113.3855M0 255.12088H113.3855M0 0V255.12387M11.33855 0V255.12387M22.6771 0V255.12387M34.01564 0V255.12387M45.35419 0V255.12387M56.69275 0V255.12387M68.0313 0V255.12387M79.36984 0V255.12387M90.70839 0V255.12387M102.04694 0V255.12387M113.38152 0V255.12387M113.3855 255.12387"/>
<path transform="matrix(1.00002,0,0,-1.00008,21.610154,273.73185)" stroke-width="1.19553" stroke-linecap="butt" stroke-miterlimit="10" stroke-linejoin="miter" fill="none" stroke="#000000" d="M0 0H122.85106"/>
<path transform="matrix(1.00002,0,0,-1.00008,144.46367,273.73185)" d="M1.27522 0C-.31879 .31879-1.91284 .9564-3.8257 2.07224-1.91284 .6376-1.91284-.6376-3.8257-2.07224-1.91284-.9564-.31879-.31879 1.27522 0Z"/>
<path transform="matrix(1.00002,0,0,-1.00008,144.46367,273.73185)" stroke-width="1.19553" stroke-linecap="butt" stroke-linejoin="round" fill="none" stroke="#000000" d="M1.27522 0C-.31879 .31879-1.91284 .9564-3.8257 2.07224-1.91284 .6376-1.91284-.6376-3.8257-2.07224-1.91284-.9564-.31879-.31879 1.27522 0Z"/>
<use data-text="v" xlink:href="#font_1_2" transform="matrix(9.962799,0,0,-9.963397,150.25473,275.877)"/>
<path transform="matrix(1.00002,0,0,-1.00008,21.610154,273.73185)" stroke-width="1.19553" stroke-linecap="butt" stroke-miterlimit="10" stroke-linejoin="miter" fill="none" stroke="#000000" d="M0 0V266.85755"/>
<path transform="matrix(0,-1.00008,-1.00002,-0,21.610154,6.8529665)" d="M1.27522 0C-.31879 .31879-1.91284 .9564-3.8257 2.07224-1.91284 .6376-1.91284-.6376-3.8257-2.07224-1.91284-.9564-.31879-.31879 1.27522 0Z"/>
<path transform="matrix(0,-1.00008,-1.00002,-0,21.610154,6.8529665)" stroke-width="1.19553" stroke-linecap="butt" stroke-linejoin="round" fill="none" stroke="#000000" d="M1.27522 0C-.31879 .31879-1.91284 .9564-3.8257 2.07224-1.91284 .6376-1.91284-.6376-3.8257-2.07224-1.91284-.9564-.31879-.31879 1.27522 0Z"/>
<use data-text="t" xlink:href="#font_1_1" transform="matrix(9.962799,0,0,-9.963397,16.087044,8.04361)"/>
<path transform="matrix(1.00002,0,0,-1.00008,21.610154,273.73185)" stroke-width=".79701" stroke-linecap="butt" stroke-miterlimit="10" stroke-linejoin="miter" fill="none" stroke="#00aeef" d="M56.69275 0V255.12387"/>
<path transform="matrix(1.00002,0,0,-1.00008,21.610154,273.73185)" stroke-width=".3985" stroke-linecap="butt" stroke-miterlimit="10" stroke-linejoin="miter" fill="none" stroke="#000000" d="M56.69275 1.70079V-1.70079"/>
<path transform="matrix(1.00002,0,0,-1.00008,21.610154,273.73185)" d="M53.20578-12.30559H60.179719V-3.8926097H53.20578Z" fill="#ffffff"/>
<use data-text="5" xlink:href="#font_2_5" transform="matrix(9.962799,0,0,-9.963397,75.81324,285.04176)"/>
<path transform="matrix(1.00002,0,0,-1.00008,21.610154,273.73185)" stroke-width=".79701" stroke-linecap="butt" stroke-miterlimit="10" stroke-linejoin="miter" fill="none" stroke="#00aeef" d="M113.3855 0V255.12387"/>
<path transform="matrix(1.00002,0,0,-1.00008,21.610154,273.73185)" stroke-width=".3985" stroke-linecap="butt" stroke-miterlimit="10" stroke-linejoin="miter" fill="none" stroke="#000000" d="M113.3855 1.70079V-1.70079"/>
<path transform="matrix(1.00002,0,0,-1.00008,21.610154,273.73185)" d="M107.40782-12.30559H119.36316V-3.8926097H107.40782Z" fill="#ffffff"/>
<use data-text="1" xlink:href="#font_2_2" transform="matrix(9.962799,0,0,-9.963397,130.01633,285.04176)"/>
<use data-text="0" xlink:href="#font_2_1" transform="matrix(9.962799,0,0,-9.963397,134.99774,285.04176)"/>
<path transform="matrix(1.00002,0,0,-1.00008,21.610154,273.73185)" stroke-width="1.19553" stroke-linecap="butt" stroke-miterlimit="10" stroke-linejoin="miter" fill="none" stroke="#00aeef" d="M0 42.52063H113.3855"/>
<path transform="matrix(1.00002,0,0,-1.00008,21.610154,273.73185)" stroke-width=".3985" stroke-linecap="butt" stroke-miterlimit="10" stroke-linejoin="miter" fill="none" stroke="#000000" d="M2.26765 42.52063H-2.26765"/>
<path transform="matrix(1.00002,0,0,-1.00008,21.610154,273.73185)" d="M-16.41481 38.31413H-4.45947V46.727109H-16.41481Z" fill="#ffffff"/>
<use data-text="5" xlink:href="#font_2_5" transform="matrix(9.962799,0,0,-9.963397,6.1908419,234.4187)"/>
<use data-text="0" xlink:href="#font_2_1" transform="matrix(9.962799,0,0,-9.963397,11.172249,234.4187)"/>
<path transform="matrix(1.00002,0,0,-1.00008,21.610154,273.73185)" stroke-width="1.19553" stroke-linecap="butt" stroke-miterlimit="10" stroke-linejoin="miter" fill="none" stroke="#00aeef" d="M0 85.04128H113.3855"/>
<path transform="matrix(1.00002,0,0,-1.00008,21.610154,273.73185)" stroke-width=".3985" stroke-linecap="butt" stroke-miterlimit="10" stroke-linejoin="miter" fill="none" stroke="#000000" d="M2.26765 85.04128H-2.26765"/>
<path transform="matrix(1.00002,0,0,-1.00008,21.610154,273.73185)" d="M-21.3962 80.83478H-4.4594805V89.24776H-21.3962Z" fill="#ffffff"/>
<use data-text="1" xlink:href="#font_2_2" transform="matrix(9.962799,0,0,-9.963397,1.2097473,191.89429)"/>
<use data-text="0" xlink:href="#font_2_1" transform="matrix(9.962799,0,0,-9.963397,6.1911547,191.89429)"/>
<use data-text="0" xlink:href="#font_2_1" transform="matrix(9.962799,0,0,-9.963397,11.172554,191.89429)"/>
<path transform="matrix(1.00002,0,0,-1.00008,21.610154,273.73185)" stroke-width="1.19553" stroke-linecap="butt" stroke-miterlimit="10" stroke-linejoin="miter" fill="none" stroke="#00aeef" d="M0 127.56192H113.3855"/>
<path transform="matrix(1.00002,0,0,-1.00008,21.610154,273.73185)" stroke-width=".3985" stroke-linecap="butt" stroke-miterlimit="10" stroke-linejoin="miter" fill="none" stroke="#000000" d="M2.26765 127.56192H-2.26765"/>
<path transform="matrix(1.00002,0,0,-1.00008,21.610154,273.73185)" d="M-21.3962 123.35542H-4.4594805V131.7684H-21.3962Z" fill="#ffffff"/>
<use data-text="1" xlink:href="#font_2_2" transform="matrix(9.962799,0,0,-9.963397,1.2097473,149.3699)"/>
<use data-text="5" xlink:href="#font_2_5" transform="matrix(9.962799,0,0,-9.963397,6.1911547,149.3699)"/>
<use data-text="0" xlink:href="#font_2_1" transform="matrix(9.962799,0,0,-9.963397,11.172554,149.3699)"/>
<path transform="matrix(1.00002,0,0,-1.00008,21.610154,273.73185)" stroke-width="1.19553" stroke-linecap="butt" stroke-miterlimit="10" stroke-linejoin="miter" fill="none" stroke="#00aeef" d="M0 170.08257H113.3855"/>
<path transform="matrix(1.00002,0,0,-1.00008,21.610154,273.73185)" stroke-width=".3985" stroke-linecap="butt" stroke-miterlimit="10" stroke-linejoin="miter" fill="none" stroke="#000000" d="M2.26765 170.08257H-2.26765"/>
<path transform="matrix(1.00002,0,0,-1.00008,21.610154,273.73185)" d="M-21.3962 165.87607H-4.4594805V174.28905H-21.3962Z" fill="#ffffff"/>
<use data-text="2" xlink:href="#font_2_3" transform="matrix(9.962799,0,0,-9.963397,1.2097473,106.8465)"/>
<use data-text="0" xlink:href="#font_2_1" transform="matrix(9.962799,0,0,-9.963397,6.1911547,106.8465)"/>
<use data-text="0" xlink:href="#font_2_1" transform="matrix(9.962799,0,0,-9.963397,11.172554,106.8465)"/>
<path transform="matrix(1.00002,0,0,-1.00008,21.610154,273.73185)" stroke-width="1.19553" stroke-linecap="butt" stroke-miterlimit="10" stroke-linejoin="miter" fill="none" stroke="#00aeef" d="M0 212.60321H113.3855"/>
<path transform="matrix(1.00002,0,0,-1.00008,21.610154,273.73185)" stroke-width=".3985" stroke-linecap="butt" stroke-miterlimit="10" stroke-linejoin="miter" fill="none" stroke="#000000" d="M2.26765 212.60321H-2.26765"/>
<path transform="matrix(1.00002,0,0,-1.00008,21.610154,273.73185)" d="M-21.3962 208.39673H-4.4594805V216.80971H-21.3962Z" fill="#ffffff"/>
<use data-text="2" xlink:href="#font_2_3" transform="matrix(9.962799,0,0,-9.963397,1.2097473,64.32208)"/>
<use data-text="5" xlink:href="#font_2_5" transform="matrix(9.962799,0,0,-9.963397,6.1911547,64.32208)"/>
<use data-text="0" xlink:href="#font_2_1" transform="matrix(9.962799,0,0,-9.963397,11.172554,64.32208)"/>
<path transform="matrix(1.00002,0,0,-1.00008,21.610154,273.73185)" stroke-width="1.19553" stroke-linecap="butt" stroke-miterlimit="10" stroke-linejoin="miter" fill="none" stroke="#00aeef" d="M0 255.12387H113.3855"/>
<path transform="matrix(1.00002,0,0,-1.00008,21.610154,273.73185)" stroke-width=".3985" stroke-linecap="butt" stroke-miterlimit="10" stroke-linejoin="miter" fill="none" stroke="#000000" d="M2.26765 255.12387H-2.26765"/>
<path transform="matrix(1.00002,0,0,-1.00008,21.610154,273.73185)" d="M-21.3962 250.91738H-4.4594805V259.33036H-21.3962Z" fill="#ffffff"/>
<use data-text="3" xlink:href="#font_2_4" transform="matrix(9.962799,0,0,-9.963397,1.2097473,21.797684)"/>
<use data-text="0" xlink:href="#font_2_1" transform="matrix(9.962799,0,0,-9.963397,6.1911547,21.797684)"/>
<use data-text="0" xlink:href="#font_2_1" transform="matrix(9.962799,0,0,-9.963397,11.172554,21.797684)"/>
<path transform="matrix(1.00002,0,0,-1.00008,21.610154,273.73185)" stroke-width="1.19553" stroke-linecap="butt" stroke-miterlimit="10" stroke-linejoin="miter" fill="none" stroke="#ff0000" d="M1.8265 25.9266C1.152 25.7738 1.152 25.7738 1.59447 25.87622 2.03693 25.97865 2.74649 26.14517 3.18893 26.25058 3.63141 26.35602 4.34097 26.52745 4.78343 26.63599 5.2259 26.74452 5.93546 26.92113 6.3779 27.03293 6.82037 27.14473 7.52994 27.3266 7.9724 27.44182 8.41487 27.557 9.12442 27.74452 9.56688 27.86328 10.00934 27.98206 10.7189 28.17534 11.16136 28.29785 11.60384 28.42038 12.31339 28.61989 12.75584 28.74632 13.1983 28.87274 13.90787 29.07852 14.35034 29.20905 14.7928 29.33958 15.50237 29.55225 15.94481 29.6871 16.38728 29.82195 17.09683 30.04163 17.5393 30.18097 17.98177 30.32033 18.69133 30.54732 19.13377 30.69147 19.57625 30.83559 20.28581 31.07072 20.72827 31.21985 21.17075 31.36899 21.8803 31.61191 22.32274 31.7663 22.76521 31.92065 23.47478 32.17247 23.91724 32.33244 24.35971 32.49242 25.06926 32.75343 25.51172 32.91922 25.95418 33.08504 26.66374 33.35542 27.1062 33.52742 27.54868 33.69942 28.25822 33.9803 28.70068 34.15886 29.14314 34.3374 29.8527 34.62881 30.29518 34.81429 30.73763 34.99974 31.4472 35.30275 31.88965 35.49553 32.33212 35.68832 33.04167 36.00323 33.48415 36.20378 33.92659 36.40434 34.63617 36.73213 35.07861 36.94096 35.52109 37.1498 36.23065 37.49129 36.67311 37.7089 37.11557 37.9265 37.82513 38.28236 38.26758 38.50928 38.71005 38.7362 39.41962 39.10756 39.86208 39.34444 40.30453 39.58131 41.0141 39.96909 41.45656 40.21657 41.89902 40.46404 42.60858 40.86928 43.05104 41.12814 43.4935 41.38701 44.20306 41.81126 44.64552 42.08229 45.08798 42.35332 45.79755 42.79744 46.24002 43.08145 46.68246 43.36548 47.39204 43.83125 47.83449 44.1293 48.27696 44.42734 48.98651 44.91643 49.42899 45.22955 49.87143 45.5427 50.58101 46.05675 51.02345 46.38612 51.46593 46.71552 52.17548 47.25671 52.61795 47.60356 53.0604 47.95042 53.76997 48.52023 54.21242 48.88602 54.65489 49.25179 55.36444 49.85347 55.80692 50.23982 56.24936 50.62619 56.95894 51.2619 57.4014 51.6706 57.84386 52.07928 58.55342 52.75237 58.99588 53.18544 59.43834 53.61852 60.1479 54.3323 60.59036 54.7919 61.03282 55.2515 61.74239 56.00922 62.18484 56.49788 62.6273 56.98657 63.33688 57.79324 63.77933 58.31392 64.2218 58.83458 64.93135 59.69463 65.37381 60.25049 65.81627 60.80638 66.52585 61.72559 66.96829 62.32036 67.41077 62.9151 68.12032 63.89923 68.56279 64.53708 69.00523 65.17493 69.71481 66.23167 70.15726 66.91759 70.59973 67.6035 71.30928 68.7411 71.75175 69.48065 72.1942 70.2202 72.90378 71.44804 73.34624 72.24771 73.7887 73.04736 74.49826 74.37662 74.94072 75.24406 75.38318 76.11151 76.09273 77.5554 76.5352 78.49968 76.97766 79.44395 77.68723 81.01791 78.12968 82.04973 78.57214 83.08154 79.28171 84.80405 79.72417 85.93625 80.16664 87.06845 80.87619 88.96205 81.31865 90.20985 81.76111 91.45766 82.47067 93.54745 82.91313 94.92958 83.3556 96.31174 84.06516 98.63185 84.50763 100.17134 84.95007 101.71083 85.65964 104.29991 86.1021 106.0252 86.54457 107.7505 87.25412 110.65912 87.6966 112.60612 88.13904 114.55313 88.8486 117.84343 89.29108 120.05788 89.73354 122.27232 90.4431 126.02519 90.88556 128.56629 91.32802 131.10739 92.03757 135.42664 92.48004 138.37232 92.9225 141.31801 93.63206 146.34098 94.07452 149.79676 94.51698 153.25255 95.22655 159.16799 95.669 163.27924 96.11148 167.3905 96.82103 174.45488 97.26349 179.42783 97.70595 184.40077 98.41551 192.98215 98.85797 199.12075 99.30045 205.25934 100.01 215.90023 100.45247 223.67055 100.89491 231.44089 102.04694 255.12387 101.95595 253.25318"/>
<path transform="matrix(-.97520956,.22117768,.22116442,.975268,23.43669,247.80316)" d="M1.27522 0C-.31879 .31879-1.91284 .9564-3.8257 2.07224-1.91284 .6376-1.91284-.6376-3.8257-2.07224-1.91284-.9564-.31879-.31879 1.27522 0Z" fill="#ff0000"/>
<path transform="matrix(-.97520956,.22117768,.22116442,.975268,23.43669,247.80316)" stroke-width="1.19553" stroke-linecap="butt" stroke-linejoin="round" fill="none" stroke="#ff0000" d="M1.27522 0C-.31879 .31879-1.91284 .9564-3.8257 2.07224-1.91284 .6376-1.91284-.6376-3.8257-2.07224-1.91284-.9564-.31879-.31879 1.27522 0Z"/>
<path transform="matrix(.04858097,-.9988599,-.99880006,-.048583885,123.56813,20.45842)" d="M1.27522 0C-.31879 .31879-1.91284 .9564-3.8257 2.07224-1.91284 .6376-1.91284-.6376-3.8257-2.07224-1.91284-.9564-.31879-.31879 1.27522 0Z" fill="#ff0000"/>
<path transform="matrix(.04858097,-.9988599,-.99880006,-.048583885,123.56813,20.45842)" stroke-width="1.19553" stroke-linecap="butt" stroke-linejoin="round" fill="none" stroke="#ff0000" d="M1.27522 0C-.31879 .31879-1.91284 .9564-3.8257 2.07224-1.91284 .6376-1.91284-.6376-3.8257-2.07224-1.91284-.9564-.31879-.31879 1.27522 0Z"/>
</svg>
