<svg xmlns="http://www.w3.org/2000/svg" xmlns:xlink="http://www.w3.org/1999/xlink" version="1.1" width="234" height="224" viewBox="0 0 234 224">
<defs>
<path id="font_1_1" d="M.33399964 .30233766C.33999635 .32835389 .36299134 .42037965 .43299867 .42037965 .43798829 .42037965 .46199037 .42037965 .48298646 .40734864 .45498658 .402359 .43499757 .37734986 .43499757 .35334779 .43499757 .33735658 .44599916 .31835938 .47299195 .31835938 .49499513 .31835938 .5269928 .3363495 .5269928 .37635804 .5269928 .42837525 .46798707 .4423828 .43399049 .4423828 .37599183 .4423828 .34098817 .38935853 .32899476 .36634828 .3039856 .43237306 .25 .4423828 .22099304 .4423828 .116989139 .4423828 .05999756 .3133545 .05999756 .28834535 .05999756 .27833558 .069992069 .27833558 .07199097 .27833558 .07998657 .27833558 .08299255 .28033448 .084991458 .28933717 .11898804 .39535523 .18499756 .42037965 .21899414 .42037965 .23799134 .42037965 .272995 .4113617 .272995 .35334779 .272995 .32235719 .2559967 .25532533 .21899414 .11528015 .20298767 .053268434 .16799927 .011245728 .12399292 .011245728 .117996219 .011245728 .09498596 .011245728 .07398987 .024276734 .09899902 .029266358 .12098694 .05027771 .12098694 .07827759 .12098694 .105270389 .09899902 .11328125 .083999637 .11328125 .053985597 .11328125 .0289917 .08728027 .0289917 .055267335 .0289917 .009246826 .07899475-.0107421879 .12298584-.0107421879 .18899536-.0107421879 .22499085 .059280397 .22799683 .0652771 .23999024 .028274537 .27598573-.0107421879 .33599855-.0107421879 .43899537-.0107421879 .49598695 .118270877 .49598695 .14328003 .49598695 .1532898 .4869995 .1532898 .48399354 .1532898 .47499085 .1532898 .47299195 .14929199 .47099305 .14228821 .43798829 .03527832 .36999513 .011245728 .33799745 .011245728 .29899598 .011245728 .2829895 .043273927 .2829895 .07727051 .2829895 .09927368 .2889862 .121276859 .2999878 .16529846L.33399964 .30233766Z"/>
<path id="font_1_2" d="M.48599244 .38136292C.48999024 .39537049 .48999024 .39736939 .48999024 .40437318 .48999024 .42237855 .47599793 .43138124 .46099855 .43138124 .45098878 .43138124 .43499757 .42536927 .42599488 .41036988 .42399598 .405365 .41600038 .37435914 .4119873 .35635377 .40499879 .33035279 .397995 .30334474 .3919983 .27633668L.34700013 .09628296C.34298707 .08126831 .2999878 .011245728 .23399353 .011245728 .18299866 .011245728 .17199707 .055267335 .17199707 .0922699 .17199707 .1382904 .18899536 .20030213 .22299195 .28833009 .23899842 .3293457 .24299622 .3403473 .24299622 .36035157 .24299622 .405365 .21099854 .4423828 .16099549 .4423828 .06599426 .4423828 .0289917 .29733277 .0289917 .28833009 .0289917 .27833558 .038986207 .27833558 .040985109 .27833558 .050994874 .27833558 .051986696 .28033448 .056991579 .29634095 .083999637 .3903656 .12399292 .42037965 .1579895 .42037965 .1659851 .42037965 .18299866 .42037965 .18299866 .3883667 .18299866 .36335755 .17298889 .3373413 .1659851 .31834413 .12599182 .21231079 .10798645 .1552887 .10798645 .10827637 .10798645 .019256592 .17098999-.0107421879 .22999573-.0107421879 .2689972-.0107421879 .30299378 .0062561037 .33099366 .03425598 .31799317-.017745972 .30599977-.06674194 .2659912-.11973572 .23999024-.15385437 .20199585-.18309021 .1559906-.18309021 .14199829-.18309021 .09700012-.18005371 .07998657-.14074707 .09599304-.14074707 .10899353-.14074707 .12298584-.1287384 .1329956-.11973572 .14299011-.10673523 .14299011-.08773804 .14299011-.056747438 .115997318-.052734376 .10598755-.052734376 .08299255-.052734376 .049987794-.068740848 .049987794-.11773682 .049987794-.16796875 .09399414-.20507813 .1559906-.20507813 .25898744-.20507813 .3619995-.11373901 .3899994-.00074768069L.48599244 .38136292Z"/>
<path id="font_2_1" d="M.6589966 .23046875C.6759949 .23046875 .69400027 .23046875 .69400027 .25045777 .69400027 .27046205 .6759949 .27046205 .6589966 .27046205H.117996219C.100997928 .27046205 .08299255 .27046205 .08299255 .25045777 .08299255 .23046875 .100997928 .23046875 .117996219 .23046875H.6589966Z"/>
<path id="font_3_3" d="M.44898988 .20022583C.44898988 .3193512 .36698915 .41944886 .25898744 .41944886 .21099854 .41944886 .16799927 .40345765 .13198853 .36842347V.5637665C.1519928 .5577698 .18499756 .55078127 .21699524 .55078127 .33999635 .55078127 .4099884 .6417694 .4099884 .6547699 .4099884 .6607666 .40699769 .6657715 .3999939 .6657715 .39898683 .6657715 .39698792 .6657715 .3919983 .66278079 .37199403 .6537781 .32299806 .6337738 .2559967 .6337738 .21598816 .6337738 .16999817 .6407776 .12298584 .6617737 .114990238 .66477969 .11299133 .66477969 .11099243 .66477969 .100997928 .66477969 .100997928 .6567688 .100997928 .6407776V.34439088C.100997928 .32637025 .100997928 .31835938 .114990238 .31835938 .12199402 .31835938 .12399292 .32136537 .12799073 .32736207 .13899231 .3433838 .17599488 .39746095 .25698854 .39746095 .30899049 .39746095 .33399964 .35139466 .34199525 .33337403 .35798646 .29632569 .3600006 .25727845 .3600006 .20722962 .3600006 .17222595 .3600006 .11222839 .33599855 .07035828 .31199647 .031463624 .2749939 .0055389406 .22898865 .0055389406 .1559906 .0055389406 .09899902 .058380128 .08198547 .11723328 .084991458 .1162262 .08799744 .115234378 .09899902 .115234378 .13198853 .115234378 .14898682 .14022827 .14898682 .16423035 .14898682 .18823242 .13198853 .21322632 .09899902 .21322632 .084991458 .21322632 .049987794 .20622254 .049987794 .16023255 .049987794 .07434082 .11898804-.022460938 .23098755-.022460938 .34700013-.022460938 .44898988 .073349 .44898988 .20022583Z"/>
<path id="font_3_2" d="M.2939911 .64004519C.2939911 .66400149 .2939911 .6660156 .2709961 .6660156 .20899964 .60227969 .12098694 .60227969 .08898926 .60227969V.57128909C.10899353 .57128909 .16799927 .57128909 .21998596 .5972748V.07902527C.21998596 .042999269 .21699524 .0309906 .1269989 .0309906H.09498596V0C.12998963 .0029907227 .21699524 .0029907227 .25698854 .0029907227 .29699708 .0029907227 .38398744 .0029907227 .4189911 0V.0309906H.3869934C.29699708 .0309906 .2939911 .041992189 .2939911 .07902527V.64004519Z"/>
<path id="font_3_1" d="M.45999146 .31976319C.45999146 .39982606 .45498658 .47988893 .41999818 .5539398 .37399293 .65000918 .2919922 .6660156 .25 .6660156 .18998719 .6660156 .116989139 .64001467 .07598877 .54693606 .04399109 .47789 .038986207 .39982606 .038986207 .31976319 .038986207 .24472046 .042999269 .15464783 .083999637 .07859802 .1269989-.0024719239 .19999695-.022460938 .24899292-.022460938 .30299378-.022460938 .3789978-.0014648438 .4229889 .09359741 .45498658 .16265869 .45999146 .2407074 .45999146 .31976319M.24899292-.00047302247C.20999146-.00047302247 .15098572 .024551392 .1329956 .12062073 .12199402 .18066406 .12199402 .2727356 .12199402 .3317871 .12199402 .39582826 .12199402 .46188355 .12998963 .5159149 .14898682 .63500979 .22399903 .64401248 .24899292 .64401248 .28199769 .64401248 .34799195 .6259918 .36698915 .52693179 .3769989 .47088624 .3769989 .39482118 .3769989 .3317871 .3769989 .25672914 .3769989 .18867493 .3659973 .12461853 .35099793 .029556275 .2939911-.00047302247 .24899292-.00047302247Z"/>
</defs>
<path transform="matrix(1,0,0,-1,108.28,120.122)" stroke-width=".3985" stroke-linecap="butt" stroke-miterlimit="10" stroke-linejoin="miter" fill="none" stroke="#00aeef" d="M-99.21555-99.21555H99.21555M-99.21555-89.29399H99.21555M-99.21555-79.37244H99.21555M-99.21555-69.45088H99.21555M-99.21555-59.52933H99.21555M-99.21555-49.60777H99.21555M-99.21555-39.68622H99.21555M-99.21555-29.76466H99.21555M-99.21555-19.84311H99.21555M-99.21555-9.92155H99.21555M-99.21555 0H99.21555M-99.21555 9.92155H99.21555M-99.21555 19.84311H99.21555M-99.21555 29.76466H99.21555M-99.21555 39.68622H99.21555M-99.21555 49.60777H99.21555M-99.21555 59.52933H99.21555M-99.21555 69.45088H99.21555M-99.21555 79.37244H99.21555M-99.21555 89.29399H99.21555M-99.21555 99.21207H99.21555M-99.21555-99.21555V99.21555M-89.29399-99.21555V99.21555M-79.37244-99.21555V99.21555M-69.45088-99.21555V99.21555M-59.52933-99.21555V99.21555M-49.60777-99.21555V99.21555M-39.68622-99.21555V99.21555M-29.76466-99.21555V99.21555M-19.84311-99.21555V99.21555M-9.92155-99.21555V99.21555M0-99.21555V99.21555M9.92155-99.21555V99.21555M19.84311-99.21555V99.21555M29.76466-99.21555V99.21555M39.68622-99.21555V99.21555M49.60777-99.21555V99.21555M59.52933-99.21555V99.21555M69.45088-99.21555V99.21555M79.37244-99.21555V99.21555M89.29399-99.21555V99.21555M99.21207-99.21555V99.21555M99.21555 99.21555"/>
<path transform="matrix(1,0,0,-1,108.28,120.122)" stroke-width=".79701" stroke-linecap="butt" stroke-miterlimit="10" stroke-linejoin="miter" fill="none" stroke="#000000" d="M-99.21555 0H113.65549"/>
<path transform="matrix(1,0,0,-1,221.93549,120.122)" d="M1.0361 0C-.25902 .25902-1.55415 .77707-3.1083 1.68365-1.55415 .51805-1.55415-.51805-3.1083-1.68365-1.55415-.77707-.25902-.25902 1.0361 0Z"/>
<path transform="matrix(1,0,0,-1,221.93549,120.122)" stroke-width=".79701" stroke-linecap="butt" stroke-linejoin="round" fill="none" stroke="#000000" d="M1.0361 0C-.25902 .25902-1.55415 .77707-3.1083 1.68365-1.55415 .51805-1.55415-.51805-3.1083-1.68365-1.55415-.77707-.25902-.25902 1.0361 0Z"/>
<use data-text="x" xlink:href="#font_1_1" transform="matrix(9.9626,0,0,-9.9626,227.08899,122.267)"/>
<path transform="matrix(1,0,0,-1,108.28,120.122)" stroke-width=".79701" stroke-linecap="butt" stroke-miterlimit="10" stroke-linejoin="miter" fill="none" stroke="#000000" d="M0-99.21555V113.65549"/>
<path transform="matrix(0,-1,-1,-0,108.28,6.4665148)" d="M1.0361 0C-.25902 .25902-1.55415 .77707-3.1083 1.68365-1.55415 .51805-1.55415-.51805-3.1083-1.68365-1.55415-.77707-.25902-.25902 1.0361 0Z"/>
<path transform="matrix(0,-1,-1,-0,108.28,6.4665148)" stroke-width=".79701" stroke-linecap="butt" stroke-linejoin="round" fill="none" stroke="#000000" d="M1.0361 0C-.25902 .25902-1.55415 .77707-3.1083 1.68365-1.55415 .51805-1.55415-.51805-3.1083-1.68365-1.55415-.77707-.25902-.25902 1.0361 0Z"/>
<use data-text="y" xlink:href="#font_1_2" transform="matrix(9.9626,0,0,-9.9626,101.311,6.208)"/>
<path transform="matrix(1,0,0,-1,108.28,120.122)" stroke-width="1.19553" stroke-linecap="butt" stroke-miterlimit="10" stroke-linejoin="miter" fill="none" stroke="#00aeef" d="M-49.60777-99.21555V99.21555"/>
<path transform="matrix(1,0,0,-1,108.28,120.122)" stroke-width="1.19553" stroke-linecap="butt" stroke-miterlimit="10" stroke-linejoin="miter" fill="none" stroke="#00aeef" d="M-99.21555-49.60777H99.21555"/>
<path transform="matrix(1,0,0,-1,108.28,120.122)" stroke-width=".3985" stroke-linecap="butt" stroke-miterlimit="10" stroke-linejoin="miter" fill="none" stroke="#000000" d="M-49.60777 1.48816V-1.48831"/>
<path transform="matrix(1,0,0,-1,108.28,120.122)" d="M-56.96916-12.92334H-42.246377V-3.68011H-56.96916Z" fill="#ffffff"/>
<use data-text="&#x2212;" xlink:href="#font_2_1" transform="matrix(9.9626,0,0,-9.9626,52.307008,131.219)"/>
<use data-text="5" xlink:href="#font_3_3" transform="matrix(9.9626,0,0,-9.9626,60.056,131.219)"/>
<path transform="matrix(1,0,0,-1,108.28,120.122)" stroke-width=".3985" stroke-linecap="butt" stroke-miterlimit="10" stroke-linejoin="miter" fill="none" stroke="#000000" d="M1.48816-49.60777H-1.48831"/>
<path transform="matrix(1,0,0,-1,108.28,120.122)" d="M-18.4029-54.22939H-3.6801205V-44.98616H-18.4029Z" fill="#ffffff"/>
<use data-text="&#x2212;" xlink:href="#font_2_1" transform="matrix(9.9626,0,0,-9.9626,90.873,172.525)"/>
<use data-text="5" xlink:href="#font_3_3" transform="matrix(9.9626,0,0,-9.9626,98.621997,172.525)"/>
<path transform="matrix(1,0,0,-1,108.28,120.122)" stroke-width="1.19553" stroke-linecap="butt" stroke-miterlimit="10" stroke-linejoin="miter" fill="none" stroke="#00aeef" d="M49.60777-99.21555V99.21555"/>
<path transform="matrix(1,0,0,-1,108.28,120.122)" stroke-width="1.19553" stroke-linecap="butt" stroke-miterlimit="10" stroke-linejoin="miter" fill="none" stroke="#00aeef" d="M-99.21555 49.60777H99.21555"/>
<path transform="matrix(1,0,0,-1,108.28,120.122)" stroke-width=".3985" stroke-linecap="butt" stroke-miterlimit="10" stroke-linejoin="miter" fill="none" stroke="#000000" d="M49.60777 1.48816V-1.48831"/>
<path transform="matrix(1,0,0,-1,108.28,120.122)" d="M46.1208-12.09311H53.09474V-3.68013H46.1208Z" fill="#ffffff"/>
<use data-text="5" xlink:href="#font_3_3" transform="matrix(9.9626,0,0,-9.9626,155.397,131.219)"/>
<path transform="matrix(1,0,0,-1,108.28,120.122)" stroke-width=".3985" stroke-linecap="butt" stroke-miterlimit="10" stroke-linejoin="miter" fill="none" stroke="#000000" d="M1.48816 49.60777H-1.48831"/>
<path transform="matrix(1,0,0,-1,108.28,120.122)" d="M-10.65405 45.40128H-3.68011V53.81426H-10.65405Z" fill="#ffffff"/>
<use data-text="5" xlink:href="#font_3_3" transform="matrix(9.9626,0,0,-9.9626,98.622,73.724)"/>
<path transform="matrix(1,0,0,-1,108.28,120.122)" stroke-width="1.19553" stroke-linecap="butt" stroke-miterlimit="10" stroke-linejoin="miter" fill="none" stroke="#00aeef" d="M-99.21555-99.21555V99.21555"/>
<path transform="matrix(1,0,0,-1,108.28,120.122)" stroke-width="1.19553" stroke-linecap="butt" stroke-miterlimit="10" stroke-linejoin="miter" fill="none" stroke="#00aeef" d="M-99.21555-99.21555H99.21555"/>
<path transform="matrix(1,0,0,-1,108.28,120.122)" stroke-width=".3985" stroke-linecap="butt" stroke-miterlimit="10" stroke-linejoin="miter" fill="none" stroke="#000000" d="M-99.21555 1.48816V-1.48831"/>
<path transform="matrix(1,0,0,-1,108.28,120.122)" d="M-109.06766-12.92334H-89.36346V-3.68011H-109.06766Z" fill="#ffffff"/>
<use data-text="&#x2212;" xlink:href="#font_2_1" transform="matrix(9.9626,0,0,-9.9626,.20899964,131.219)"/>
<use data-text="1" xlink:href="#font_3_2" transform="matrix(9.9626,0,0,-9.9626,7.9579927,131.219)"/>
<use data-text="0" xlink:href="#font_3_1" transform="matrix(9.9626,0,0,-9.9626,12.939285,131.219)"/>
<path transform="matrix(1,0,0,-1,108.28,120.122)" stroke-width=".3985" stroke-linecap="butt" stroke-miterlimit="10" stroke-linejoin="miter" fill="none" stroke="#000000" d="M1.48816-99.21555H-1.48831"/>
<path transform="matrix(1,0,0,-1,108.28,120.122)" d="M-23.38431-103.83717H-3.680109V-94.59394H-23.38431Z" fill="#ffffff"/>
<use data-text="&#x2212;" xlink:href="#font_2_1" transform="matrix(9.9626,0,0,-9.9626,85.892,222.133)"/>
<use data-text="1" xlink:href="#font_3_2" transform="matrix(9.9626,0,0,-9.9626,93.64099,222.133)"/>
<use data-text="0" xlink:href="#font_3_1" transform="matrix(9.9626,0,0,-9.9626,98.622287,222.133)"/>
<path transform="matrix(1,0,0,-1,108.28,120.122)" stroke-width="1.19553" stroke-linecap="butt" stroke-miterlimit="10" stroke-linejoin="miter" fill="none" stroke="#00aeef" d="M99.21555-99.21555V99.21555"/>
<path transform="matrix(1,0,0,-1,108.28,120.122)" stroke-width="1.19553" stroke-linecap="butt" stroke-miterlimit="10" stroke-linejoin="miter" fill="none" stroke="#00aeef" d="M-99.21555 99.21555H99.21555"/>
<path transform="matrix(1,0,0,-1,108.28,120.122)" stroke-width=".3985" stroke-linecap="butt" stroke-miterlimit="10" stroke-linejoin="miter" fill="none" stroke="#000000" d="M99.21555 1.48816V-1.48831"/>
<path transform="matrix(1,0,0,-1,108.28,120.122)" d="M93.23787-12.09311H105.19321V-3.68013H93.23787Z" fill="#ffffff"/>
<use data-text="1" xlink:href="#font_3_2" transform="matrix(9.9626,0,0,-9.9626,202.514,131.219)"/>
<use data-text="0" xlink:href="#font_3_1" transform="matrix(9.9626,0,0,-9.9626,207.4953,131.219)"/>
<path transform="matrix(1,0,0,-1,108.28,120.122)" stroke-width=".3985" stroke-linecap="butt" stroke-miterlimit="10" stroke-linejoin="miter" fill="none" stroke="#000000" d="M1.48816 99.21555H-1.48831"/>
<path transform="matrix(1,0,0,-1,108.28,120.122)" d="M-15.63547 95.00906H-3.68013V103.42204H-15.63547Z" fill="#ffffff"/>
<use data-text="1" xlink:href="#font_3_2" transform="matrix(9.9626,0,0,-9.9626,93.641,24.117005)"/>
<use data-text="0" xlink:href="#font_3_1" transform="matrix(9.9626,0,0,-9.9626,98.62229,24.117005)"/>
<path transform="matrix(1,0,0,-1,108.28,120.122)" stroke-width="1.19553" stroke-linecap="butt" stroke-miterlimit="10" stroke-linejoin="miter" fill="none" stroke="#ff0000" d="M-28.26239-97.35852C-27.63698-92.56068-27.63698-92.56068-27.30379-90.06049-26.97061-87.56027-26.4363-83.61548-26.10312-81.19594-25.76993-78.77638-25.23561-74.96097-24.90244-72.62206-24.56924-70.28316-24.03493-66.59697-23.70175-64.3387-23.36856-62.08043-22.83424-58.52365-22.50107-56.34602-22.16788-54.1684-21.63356-50.74084-21.30038-48.64386-20.9672-46.54688-20.43288-43.24869-20.0997-41.23236-19.76651-39.21603-19.2322-36.04723-18.89902-34.11154-18.56584-32.17584-18.03151-29.13629-17.69833-27.28123-17.36516-25.42618-16.83084-22.51602-16.49767-20.74161-16.16449-18.9672-15.63016-16.18625-15.29698-14.49248-14.9638-12.7987-14.42949-10.14717-14.0963-8.53403-13.7631-6.9209-13.2288-4.3986-12.89561-2.86612-12.56244-1.33362-12.02812 1.05927-11.69493 2.5111-11.36176 3.96294-10.82744 6.2265-10.49425 7.59769-10.16107 8.96889-9.62675 11.1032-9.29356 12.39375-8.96039 13.68431-8.42607 15.68922-8.09288 16.89915-7.7597 18.10905-7.22539 19.98474-6.89221 21.11401-6.55902 22.2433-6.0247 23.98961-5.69153 25.03822-5.35834 26.08685-4.82402 27.70378-4.49084 28.67175-4.15765 29.63974-3.62334 31.12741-3.29016 32.01479-2.95697 32.90213-2.42265 34.26056-2.08948 35.06726-1.75629 35.874-1.22198 37.10304-.88881 37.8291-.55562 38.55516-.0213 39.65485 .31184 40.30025 .64503 40.94565 1.17935 41.91597 1.51253 42.48073 1.8457 43.0455 2.38004 43.88655 2.71321 44.37071 3.04639 44.85484 3.58072 45.56664 3.9139 45.97014 4.24707 46.37364 4.78139 46.95607 5.11458 47.27892 5.44775 47.60176 5.98207 48.05481 6.31526 48.29703 6.64844 48.53923 7.18274 48.86304 7.51595 49.02461 7.84912 49.18617 8.38344 49.38062 8.71663 49.46152 9.0498 49.54243 9.58412 49.6075 9.91731 49.60777 10.25049 49.60805 10.7848 49.54384 11.118 49.46349 11.45117 49.38315 11.98547 49.18967 12.31866 49.0287 12.65184 48.8677 13.18616 48.54486 13.51933 48.30322 13.85252 48.06158 14.38684 47.60936 14.72002 47.28708 15.0532 46.96481 15.58752 46.38336 15.9207 45.98044 16.25389 45.57751 16.78821 44.86668 17.12138 44.38312 17.45457 43.89954 17.98889 43.05934 18.32207 42.49512 18.65526 41.9309 19.18958 40.96144 19.52275 40.31659 19.85594 39.67175 20.39026 38.57306 20.72343 37.84756 21.05661 37.12207 21.59094 35.89384 21.92412 35.0877 22.2573 34.28157 22.79163 32.92426 23.1248 32.03749 23.45798 31.15071 23.9923 29.66386 24.32549 28.69643 24.65866 27.729 25.19296 26.11293 25.52617 25.06488 25.85934 24.01682 26.39366 22.27148 26.72685 21.14278 27.06003 20.0141 27.59433 18.13939 27.92752 16.93002 28.2607 15.72067 28.79501 13.7166 29.1282 12.4266 29.46138 11.13661 29.9957 9.00328 30.32889 7.63266 30.66206 6.26202 31.19638 3.99933 31.52957 2.54803 31.86275 1.09676 32.39706-1.29527 32.73024-2.82721 33.06343-4.35913 33.59775-6.88046 33.93092-8.49301 34.26411-10.10556 34.79843-12.75612 35.1316-14.44934 35.4648-16.14255 35.99911-18.92264 36.33229-20.69649 36.66548-22.47032 37.1998-25.37952 37.53297-27.23401 37.86617-29.08847 38.40048-32.12721 38.73366-34.06233 39.06685-35.99745 39.60117-39.16527 39.93434-41.18105 40.26753-43.19681 40.80183-46.49416 41.13501-48.59058 41.4682-50.687 42.00252-54.11354 42.33571-56.2906 42.66888-58.46768 43.20322-62.02364 43.53639-64.28133 43.86957-66.53903 44.40387-70.22423 44.73706-72.56256 45.07024-74.9009 45.60455-78.7155 45.93774-81.13448 46.27092-83.55345 46.80524-87.49727 47.13843-89.9969 47.4716-92.49652 48.33911-99.14998 48.09698-97.2928"/>
<path transform="matrix(-.12926,.99156,.99156,.12926,80.01761,217.4805)" d="M1.27522 0C-.31879 .31879-1.91284 .9564-3.8257 2.07224-1.91284 .6376-1.91284-.6376-3.8257-2.07224-1.91284-.9564-.31879-.31879 1.27522 0Z" fill="#ff0000"/>
<path transform="matrix(-.12926,.99156,.99156,.12926,80.01761,217.4805)" stroke-width="1.19553" stroke-linecap="butt" stroke-linejoin="round" fill="none" stroke="#ff0000" d="M1.27522 0C-.31879 .31879-1.91284 .9564-3.8257 2.07224-1.91284 .6376-1.91284-.6376-3.8257-2.07224-1.91284-.9564-.31879-.31879 1.27522 0Z"/>
<path transform="matrix(.12927,.99156,.99156,-.12927,156.37699,217.4148)" d="M1.27522 0C-.31879 .31879-1.91284 .9564-3.8257 2.07224-1.91284 .6376-1.91284-.6376-3.8257-2.07224-1.91284-.9564-.31879-.31879 1.27522 0Z" fill="#ff0000"/>
<path transform="matrix(.12927,.99156,.99156,-.12927,156.37699,217.4148)" stroke-width="1.19553" stroke-linecap="butt" stroke-linejoin="round" fill="none" stroke="#ff0000" d="M1.27522 0C-.31879 .31879-1.91284 .9564-3.8257 2.07224-1.91284 .6376-1.91284-.6376-3.8257-2.07224-1.91284-.9564-.31879-.31879 1.27522 0Z"/>
<path transform="matrix(1,0,0,-1,108.28,120.122)" d="M11.90582 49.60777C11.90582 50.70367 11.01744 51.59204 9.92155 51.59204 8.82565 51.59204 7.93729 50.70367 7.93729 49.60777 7.93729 48.51187 8.82565 47.6235 9.92155 47.6235 11.01744 47.6235 11.90582 48.51187 11.90582 49.60777ZM9.92155 49.60777" fill="#0000ff"/>
<path transform="matrix(1,0,0,-1,108.28,120.122)" stroke-width=".3985" stroke-linecap="butt" stroke-miterlimit="10" stroke-linejoin="miter" fill="none" stroke="#0000ff" d="M11.90582 49.60777C11.90582 50.70367 11.01744 51.59204 9.92155 51.59204 8.82565 51.59204 7.93729 50.70367 7.93729 49.60777 7.93729 48.51187 8.82565 47.6235 9.92155 47.6235 11.01744 47.6235 11.90582 48.51187 11.90582 49.60777ZM9.92155 49.60777"/>
<path transform="matrix(1,0,0,-1,108.28,120.122)" d="M-10.3185 0C-10.3185 1.09589-11.20688 1.98427-12.30276 1.98427-13.39867 1.98427-14.28703 1.09589-14.28703 0-14.28703-1.09589-13.39867-1.98427-12.30276-1.98427-11.20688-1.98427-10.3185-1.09589-10.3185 0ZM-12.30276 0"/>
<path transform="matrix(1,0,0,-1,108.28,120.122)" stroke-width=".3985" stroke-linecap="butt" stroke-miterlimit="10" stroke-linejoin="miter" fill="none" stroke="#000000" d="M-10.3185 0C-10.3185 1.09589-11.20688 1.98427-12.30276 1.98427-13.39867 1.98427-14.28703 1.09589-14.28703 0-14.28703-1.09589-13.39867-1.98427-12.30276-1.98427-11.20688-1.98427-10.3185-1.09589-10.3185 0ZM-12.30276 0"/>
<path transform="matrix(1,0,0,-1,108.28,120.122)" d="M34.13016 0C34.13016 1.09589 33.24178 1.98427 32.14589 1.98427 31.04999 1.98427 30.16162 1.09589 30.16162 0 30.16162-1.09589 31.04999-1.98427 32.14589-1.98427 33.24178-1.98427 34.13016-1.09589 34.13016 0ZM32.14589 0"/>
<path transform="matrix(1,0,0,-1,108.28,120.122)" stroke-width=".3985" stroke-linecap="butt" stroke-miterlimit="10" stroke-linejoin="miter" fill="none" stroke="#000000" d="M34.13016 0C34.13016 1.09589 33.24178 1.98427 32.14589 1.98427 31.04999 1.98427 30.16162 1.09589 30.16162 0 30.16162-1.09589 31.04999-1.98427 32.14589-1.98427 33.24178-1.98427 34.13016-1.09589 34.13016 0ZM32.14589 0"/>
<path transform="matrix(1,0,0,-1,108.28,120.122)" d="M1.98427 39.68622C1.98427 40.7821 1.09589 41.67049 0 41.67049-1.09589 41.67049-1.98427 40.7821-1.98427 39.68622-1.98427 38.59032-1.09589 37.70195 0 37.70195 1.09589 37.70195 1.98427 38.59032 1.98427 39.68622ZM0 39.68622"/>
<path transform="matrix(1,0,0,-1,108.28,120.122)" stroke-width=".3985" stroke-linecap="butt" stroke-miterlimit="10" stroke-linejoin="miter" fill="none" stroke="#000000" d="M1.98427 39.68622C1.98427 40.7821 1.09589 41.67049 0 41.67049-1.09589 41.67049-1.98427 40.7821-1.98427 39.68622-1.98427 38.59032-1.09589 37.70195 0 37.70195 1.09589 37.70195 1.98427 38.59032 1.98427 39.68622ZM0 39.68622"/>
</svg>
