<svg xmlns="http://www.w3.org/2000/svg" xmlns:xlink="http://www.w3.org/1999/xlink" version="1.1" width="173" height="174" viewBox="0 0 173 174">
<defs>
<path id="font_1_3" d="M.33399964 .30233766C.33999635 .32835389 .36299134 .42037965 .43299867 .42037965 .43798829 .42037965 .46199037 .42037965 .48298646 .40734864 .45498658 .402359 .43499757 .37734986 .43499757 .35334779 .43499757 .33735658 .44599916 .31835938 .47299195 .31835938 .49499513 .31835938 .5269928 .3363495 .5269928 .37635804 .5269928 .42837525 .46798707 .4423828 .43399049 .4423828 .37599183 .4423828 .34098817 .38935853 .32899476 .36634828 .3039856 .43237306 .25 .4423828 .22099304 .4423828 .116989139 .4423828 .05999756 .3133545 .05999756 .28834535 .05999756 .27833558 .069992069 .27833558 .07199097 .27833558 .07998657 .27833558 .08299255 .28033448 .084991458 .28933717 .11898804 .39535523 .18499756 .42037965 .21899414 .42037965 .23799134 .42037965 .272995 .4113617 .272995 .35334779 .272995 .32235719 .2559967 .25532533 .21899414 .11528015 .20298767 .053268434 .16799927 .011245728 .12399292 .011245728 .117996219 .011245728 .09498596 .011245728 .07398987 .024276734 .09899902 .029266358 .12098694 .05027771 .12098694 .07827759 .12098694 .105270389 .09899902 .11328125 .083999637 .11328125 .053985597 .11328125 .0289917 .08728027 .0289917 .055267335 .0289917 .009246826 .07899475-.0107421879 .12298584-.0107421879 .18899536-.0107421879 .22499085 .059280397 .22799683 .0652771 .23999024 .028274537 .27598573-.0107421879 .33599855-.0107421879 .43899537-.0107421879 .49598695 .118270877 .49598695 .14328003 .49598695 .1532898 .4869995 .1532898 .48399354 .1532898 .47499085 .1532898 .47299195 .14929199 .47099305 .14228821 .43798829 .03527832 .36999513 .011245728 .33799745 .011245728 .29899598 .011245728 .2829895 .043273927 .2829895 .07727051 .2829895 .09927368 .2889862 .121276859 .2999878 .16529846L.33399964 .30233766Z"/>
<path id="font_1_4" d="M.48599244 .38136292C.48999024 .39537049 .48999024 .39736939 .48999024 .40437318 .48999024 .42237855 .47599793 .43138124 .46099855 .43138124 .45098878 .43138124 .43499757 .42536927 .42599488 .41036988 .42399598 .405365 .41600038 .37435914 .4119873 .35635377 .40499879 .33035279 .397995 .30334474 .3919983 .27633668L.34700013 .09628296C.34298707 .08126831 .2999878 .011245728 .23399353 .011245728 .18299866 .011245728 .17199707 .055267335 .17199707 .0922699 .17199707 .1382904 .18899536 .20030213 .22299195 .28833009 .23899842 .3293457 .24299622 .3403473 .24299622 .36035157 .24299622 .405365 .21099854 .4423828 .16099549 .4423828 .06599426 .4423828 .0289917 .29733277 .0289917 .28833009 .0289917 .27833558 .038986207 .27833558 .040985109 .27833558 .050994874 .27833558 .051986696 .28033448 .056991579 .29634095 .083999637 .3903656 .12399292 .42037965 .1579895 .42037965 .1659851 .42037965 .18299866 .42037965 .18299866 .3883667 .18299866 .36335755 .17298889 .3373413 .1659851 .31834413 .12599182 .21231079 .10798645 .1552887 .10798645 .10827637 .10798645 .019256592 .17098999-.0107421879 .22999573-.0107421879 .2689972-.0107421879 .30299378 .0062561037 .33099366 .03425598 .31799317-.017745972 .30599977-.06674194 .2659912-.11973572 .23999024-.15385437 .20199585-.18309021 .1559906-.18309021 .14199829-.18309021 .09700012-.18005371 .07998657-.14074707 .09599304-.14074707 .10899353-.14074707 .12298584-.1287384 .1329956-.11973572 .14299011-.10673523 .14299011-.08773804 .14299011-.056747438 .115997318-.052734376 .10598755-.052734376 .08299255-.052734376 .049987794-.068740848 .049987794-.11773682 .049987794-.16796875 .09399414-.20507813 .1559906-.20507813 .25898744-.20507813 .3619995-.11373901 .3899994-.00074768069L.48599244 .38136292Z"/>
<path id="font_2_1" d="M.6589966 .23046875C.6759949 .23046875 .69400027 .23046875 .69400027 .25045777 .69400027 .27046205 .6759949 .27046205 .6589966 .27046205H.117996219C.100997928 .27046205 .08299255 .27046205 .08299255 .25045777 .08299255 .23046875 .100997928 .23046875 .117996219 .23046875H.6589966Z"/>
<path id="font_3_3" d="M.2899933 .35191346C.37199403 .37893678 .42999269 .4490509 .42999269 .52809146 .42999269 .6100464 .34199525 .6660156 .24598694 .6660156 .14498902 .6660156 .068984989 .60606387 .068984989 .53009036 .068984989 .49710084 .09098816 .47808839 .11999512 .47808839 .15098572 .47808839 .17098999 .50009158 .17098999 .5290985 .17098999 .57910159 .12399292 .57910159 .10899353 .57910159 .13999939 .62802127 .20599365 .64100649 .24198914 .64100649 .2829895 .64100649 .33799745 .6190338 .33799745 .5290985 .33799745 .51708987 .33599855 .45906068 .30999757 .4149933 .27999879 .36691285 .24598694 .36390687 .22099304 .36291505 .21299744 .36190797 .18899536 .35990907 .18199158 .35990907 .17399597 .35890199 .16699219 .35791017 .16699219 .3479004 .16699219 .33691407 .17399597 .33691407 .19099427 .33691407H.23498535C.31698609 .33691407 .35398866 .2686615 .35398866 .17037964 .35398866 .034469606 .2849884 .0055389406 .24099732 .0055389406 .19799805 .0055389406 .12298584 .022491456 .08799744 .08137512 .12298584 .07637024 .1539917 .09837341 .1539917 .1363678 .1539917 .17237854 .1269989 .19238281 .09799194 .19238281 .07398987 .19238281 .041992189 .17837525 .041992189 .1343689 .041992189 .043441774 .1349945-.022460938 .24398804-.022460938 .3659973-.022460938 .45700074 .06838989 .45700074 .17037964 .45700074 .252594 .3939972 .33088685 .2899933 .35191346Z"/>
<path id="font_3_4" d="M.13198853 .327713V.35173036C.13198853 .6047821 .2559967 .64100649 .30699159 .64100649 .33099366 .64100649 .37298585 .634964 .394989 .6007538 .37998963 .6007538 .33999635 .6007538 .33999635 .5557556 .33999635 .524765 .3639984 .5097656 .38598634 .5097656 .4019928 .5097656 .43199159 .51875308 .43199159 .5577545 .43199159 .6178589 .3880005 .6660156 .30499269 .6660156 .1769867 .6660156 .041992189 .5367584 .041992189 .31570436 .041992189 .048553468 .1579895-.022460938 .25099183-.022460938 .3619995-.022460938 .45700074 .07156372 .45700074 .2036438 .45700074 .33070375 .36799623 .4267578 .25698854 .4267578 .18899536 .4267578 .1519928 .37573243 .13198853 .327713M.25099183 .0055389406C.18798828 .0055389406 .1579895 .06556702 .1519928 .080566409 .13398743 .127594 .13398743 .2076416 .13398743 .22564698 .13398743 .30369569 .1659851 .40374757 .2559967 .40374757 .27198792 .40374757 .31799317 .40374757 .34899903 .34172059 .36698915 .30470277 .36698915 .2536621 .36698915 .20463562 .36698915 .15661621 .36698915 .10658264 .34999085 .0705719 .31999208 .010528564 .27398683 .0055389406 .25099183 .0055389406Z"/>
<path id="font_3_5" d="M.68699648 .32714845C.70199587 .32714845 .72099307 .32714845 .72099307 .34713746 .72099307 .36714173 .70199587 .36714173 .6879883 .36714173H.08898926C.07499695 .36714173 .055999757 .36714173 .055999757 .34713746 .055999757 .32714845 .07499695 .32714845 .08999634 .32714845H.68699648M.6879883 .13284302C.70199587 .13284302 .72099307 .13284302 .72099307 .15284729 .72099307 .17285156 .70199587 .17285156 .68699648 .17285156H.08999634C.07499695 .17285156 .055999757 .17285156 .055999757 .15284729 .055999757 .13284302 .07499695 .13284302 .08898926 .13284302H.6879883Z"/>
<path id="font_1_2" d="M.47099305 .3773346C.47200013 .3833313 .47399903 .38833619 .47399903 .39535523 .47399903 .41236878 .46199037 .42237855 .44499208 .42237855 .43499757 .42237855 .4079895 .41537477 .4039917 .3793335 .38598634 .41636659 .35099793 .4423828 .31098939 .4423828 .19699097 .4423828 .07299805 .30226136 .07299805 .15812683 .07299805 .059020997 .13398743 0 .20599365 0 .2649994 0 .31199647 .04701233 .32199098 .058029176L.32299806 .057022096C.3019867-.031982423 .2899933-.07295227 .2899933-.07495117 .28599549-.08395386 .2519989-.18309021 .1459961-.18309021 .1269989-.18309021 .09399414-.18206787 .06599426-.17297364 .09599304-.16394043 .10699463-.13793946 .10699463-.12094116 .10699463-.10494995 .09599304-.0859375 .068984989-.0859375 .04699707-.0859375 .01499939-.10394287 .01499939-.14395142 .01499939-.18508911 .051986696-.20507813 .147995-.20507813 .272995-.20507813 .34498597-.12693787 .3600006-.06695557L.47099305 .3773346M.34098817 .12809754C.33499146 .10206604 .31199647 .077041629 .2899933 .058029176 .2689972 .040008546 .23799134 .021987915 .20899964 .021987915 .15899658 .021987915 .14399719 .074035648 .14399719 .11407471 .14399719 .16212464 .17298889 .28024293 .19999695 .33128358 .22698975 .38034059 .269989 .42037965 .31199647 .42037965 .37799073 .42037965 .3919983 .33929444 .3919983 .33428956 .3919983 .32928468 .3899994 .3232727 .3889923 .3192749L.34098817 .12809754Z"/>
<path id="font_3_1" d="M.33099366-.2400055C.33099366-.23701477 .33099366-.23500061 .31399537-.21800232 .18899536-.0920105 .15699768 .09700012 .15699768 .25 .15699768 .42399598 .19499207 .59799197 .31799317 .72299197 .33099366 .73498538 .33099366 .7369995 .33099366 .73999026 .33099366 .746994 .32699586 .75 .32099916 .75 .31098939 .75 .22099304 .6819916 .1619873 .5549927 .11099243 .44499208 .09899902 .33399964 .09899902 .25 .09899902 .17199707 .10998535 .050994874 .16499329-.06201172 .22499085-.18501282 .31098939-.25 .32099916-.25 .32699586-.25 .33099366-.24700928 .33099366-.2400055Z"/>
<path id="font_3_2" d="M.2889862 .25C.2889862 .32798768 .27799989 .44898988 .22299195 .56199648 .16299439 .68499758 .07699585 .75 .066986087 .75 .06098938 .75 .056991579 .74598696 .056991579 .73999026 .056991579 .7369995 .056991579 .73498538 .07598877 .71699526 .17399597 .6179962 .23098755 .45899964 .23098755 .25 .23098755 .07899475 .19400025-.09700012 .069992069-.2230072 .056991579-.23500061 .056991579-.23701477 .056991579-.2400055 .056991579-.2460022 .06098938-.25 .066986087-.25 .07699585-.25 .16699219-.18200684 .22599793-.055007936 .2769928 .054992677 .2889862 .16600037 .2889862 .25Z"/>
<path id="font_3_7" d="M.1769867 .69433596 .032989503 .68333438V.6523285C.102996829 .6523285 .11099243 .6453247 .11099243 .5962982V.07601929C.11099243 .0309906 .099990848 .0309906 .032989503 .0309906V0C.06599426 .0009918213 .11898804 .0029907227 .14399719 .0029907227 .16899109 .0029907227 .21798706 .0009918213 .25498963 0V.0309906C.18798828 .0309906 .1769867 .0309906 .1769867 .07601929V.69433596Z"/>
<path id="font_3_8" d="M.47099305 .21424866C.47099305 .34223939 .37098695 .4482422 .25 .4482422 .125 .4482422 .027999878 .3392334 .027999878 .21424866 .027999878 .085250858 .13198853-.0107421879 .24899292-.0107421879 .36999513-.0107421879 .47099305 .087249759 .47099305 .21424866M.25 .014251709C.20698548 .014251709 .16299439 .035247804 .13598633 .08125305 .11099243 .12524414 .11099243 .18624878 .11099243 .22224427 .11099243 .26124574 .11099243 .31523133 .1349945 .35923768 .1619873 .40522767 .20899964 .426239 .24899292 .426239 .29299928 .426239 .33599855 .40423585 .3619995 .36123658 .3880005 .3182373 .3880005 .26023866 .3880005 .22224427 .3880005 .18624878 .3880005 .13224793 .3659973 .08824158 .34399415 .04324341 .2999878 .014251709 .25 .014251709Z"/>
<path id="font_3_6" d="M.22200012 .17240906C.1349945 .17240906 .1349945 .2723999 .1349945 .2953949 .1349945 .3223877 .13598633 .35438539 .15098572 .37937928 .15899658 .39137269 .18199158 .41937257 .22200012 .41937257 .30899049 .41937257 .30899049 .3193817 .30899049 .29638673 .30899049 .26939393 .30799867 .23739624 .29299928 .21240235 .2849884 .20040894 .2619934 .17240906 .22200012 .17240906M.10598755 .13330078C.10598755 .1373291 .10598755 .16040039 .12298584 .18040467 .1619873 .15240479 .20298767 .14941406 .22200012 .14941406 .31498719 .14941406 .38398744 .21839905 .38398744 .2953949 .38398744 .3323822 .36799623 .36938478 .34298707 .39237977 .3789978 .42637635 .4149933 .43138124 .43299867 .43138124 .43499757 .43138124 .43998719 .43138124 .44299317 .43037416 .43199159 .42637635 .4269867 .41537477 .4269867 .40338136 .4269867 .38638307 .43998719 .3743744 .45599366 .3743744 .46598817 .3743744 .4850006 .38137818 .4850006 .40437318 .4850006 .42137147 .47299195 .45336915 .43399049 .45336915 .4139862 .45336915 .36999513 .44737245 .32798768 .40637208 .28599549 .43937684 .24398804 .4423828 .22200012 .4423828 .1289978 .4423828 .05999756 .37338258 .05999756 .29638673 .05999756 .25239564 .08198547 .21440125 .10699463 .19340515 .09399414 .17840576 .07598877 .14538574 .07598877 .11013794 .07598877 .07891846 .08898926 .04083252 .11999512 .020828248 .05999756 .003829956 .027999878-.039138795 .027999878-.07911682 .027999878-.15107727 .1269989-.20605469 .24899292-.20605469 .36698915-.20605469 .47099305-.15507508 .47099305-.07711792 .47099305-.042144777 .45700074 .008834839 .4059906 .036834718 .35299684 .064834598 .29499818 .064834598 .23399353 .064834598 .20899964 .064834598 .1659851 .064834598 .15899658 .065841678 .1269989 .069869998 .10598755 .10107422 .10598755 .13330078M.25-.18305969C.14898682-.18305969 .07998657-.13209534 .07998657-.07911682 .07998657-.03314209 .117996219 .003829956 .1619873 .0068359377H.22099304C.30699159 .0068359377 .4189911 .0068359377 .4189911-.07911682 .4189911-.13308716 .34799195-.18305969 .25-.18305969Z"/>
<path id="font_4_1" d="M.272995 .33428956C.35099793 .33428956 .40699769 .2803192 .40699769 .1733551 .40699769 .04940796 .33499146 .012466431 .2769928 .012466431 .23699951 .012466431 .14898682 .0234375 .10699463 .082351688 .1539917 .084350589 .16499329 .11735535 .16499329 .13835144 .16499329 .17034912 .14099121 .19335938 .10998535 .19335938 .08198547 .19335938 .053985597 .17634583 .053985597 .13534546 .053985597 .041412355 .1579895-.01953125 .2789917-.01953125 .41799928-.01953125 .5139923 .07336426 .5139923 .1733551 .5139923 .2513275 .44999696 .32929994 .33999635 .35229493 .44499208 .39024354 .48298646 .4650879 .48298646 .5260773 .48298646 .60505679 .3919983 .6640625 .2809906 .6640625 .16999817 .6640625 .084991458 .61006167 .084991458 .5300751 .084991458 .49606324 .10699463 .47706605 .13699341 .47706605 .16799927 .47706605 .18798828 .5000763 .18798828 .5280762 .18798828 .5570679 .16799927 .57806399 .13699341 .5800781 .17199707 .62405398 .24099732 .63505557 .27799989 .63505557 .32299806 .63505557 .38598634 .6130676 .38598634 .5260773 .38598634 .48406983 .37199403 .43814088 .34599305 .4072113 .31298829 .36927796 .2849884 .3672943 .23498535 .36428834 .20999146 .3623047 .20799256 .3623047 .20298767 .3612976 .20098877 .3612976 .19299317 .3592987 .19299317 .34829713 .19299317 .33428956 .20199585 .33428956 .21899414 .33428956H.272995Z"/>
<path id="font_1_1" d="M.36698915 .3996582H.45298768C.47299195 .3996582 .48298646 .3996582 .48298646 .41966249 .48298646 .43066407 .47299195 .43066407 .45599366 .43066407H.37298585L.3939972 .5449524C.397995 .5660095 .4119873 .6370239 .41799928 .6490326 .4269867 .66804507 .44400025 .68307498 .46499635 .68307498 .46899415 .68307498 .49499513 .68307498 .5139923 .66503909 .46998597 .661026 .45999146 .6260376 .45999146 .6110382 .45999146 .58802798 .47799684 .57603457 .49699403 .57603457 .522995 .57603457 .5519867 .5980377 .5519867 .6360321 .5519867 .6820679 .5059967 .7050781 .46499635 .7050781 .43099977 .7050781 .36799623 .68707278 .33799745 .58802798 .33198548 .56700137 .32899476 .5569763 .30499269 .43066407H.23599243C.21699524 .43066407 .20599365 .43066407 .20599365 .4116516 .20599365 .3996582 .21499634 .3996582 .23399353 .3996582H.2999878L.22499085 .0048828127C.20698548-.09207153 .18998719-.18309021 .13798523-.18309021 .13398743-.18309021 .10899353-.18309021 .08999634-.16506958 .13598633-.1620636 .14498902-.12606812 .14498902-.111068729 .14498902-.08807373 .1269989-.07606506 .10798645-.07606506 .08198547-.07606506 .052993776-.09806824 .052993776-.13606262 .052993776-.18109131 .09700012-.20507813 .13798523-.20507813 .19299317-.20507813 .23298645-.14607239 .25099183-.108062747 .2829895-.04508972 .30599977 .07583618 .30699159 .082839969L.36698915 .3996582Z"/>
<path id="font_5_1" d="M.24899292 .10601807C.23899842 .072021488 .20599365 .018234253 .15499878 .018234253 .1519928 .018234253 .12199402 .018234253 .100997928 .03215027 .14199829 .04508972 .14498902 .08100891 .14498902 .087020877 .14498902 .10900879 .12799073 .12402344 .10499573 .12402344 .07699585 .12402344 .04798889 .10002136 .04798889 .0630188 .04798889 .01322937 .10398865-.009765625 .15299988-.009765625 .19898987-.009765625 .23999024 .019226075 .2649994 .061019899 .2889862 .008224487 .34399415-.009765625 .38398744-.009765625 .49899293-.009765625 .55999758 .11502075 .55999758 .14305115 .55999758 .15608216 .5469971 .15608216 .5439911 .15608216 .5299988 .15608216 .5289917 .15107727 .5249939 .13905335 .5039978 .07002258 .44400025 .018234253 .3880005 .018234253 .34799195 .018234253 .32699586 .04508972 .32699586 .08302307 .32699586 .10900879 .35099793 .20018006 .3789978 .31140138 .39898683 .38841249 .44400025 .4133911 .47698976 .4133911 .47898866 .4133911 .5099945 .4133911 .5309906 .39941407 .49899293 .39041139 .4869995 .3624115 .4869995 .34440614 .4869995 .32240296 .5039978 .30740357 .5269928 .30740357 .5499878 .30740357 .58299258 .32640077 .58299258 .3684082 .58299258 .4243927 .5189972 .44140626 .47898866 .44140626 .42900086 .44140626 .3889923 .4084015 .36698915 .3704071 .34899903 .4113922 .30299378 .44140626 .24699402 .44140626 .1349945 .44140626 .070999149 .31840516 .070999149 .2883606 .070999149 .27534486 .084991458 .27534486 .08799744 .27534486 .100997928 .27534486 .101989749 .27934266 .10699463 .29237367 .13198853 .3704071 .19499207 .4133911 .24398804 .4133911 .2769928 .4133911 .3039856 .395401 .3039856 .3474121 .3039856 .32740785 .2919922 .27734376 .2829895 .24327088L.24899292 .10601807Z"/>
</defs>
<path transform="matrix(1.00006,0,0,-1.00005,52.885339,121.57142)" stroke-width=".3985" stroke-linecap="butt" stroke-miterlimit="10" stroke-linejoin="miter" fill="none" stroke="#00aeef" d="M-51.0239-51.0239H102.0478M-51.0239-38.26791H102.0478M-51.0239-25.51193H102.0478M-51.0239-12.75595H102.0478M-51.0239 0H102.0478M-51.0239 12.75595H102.0478M-51.0239 25.51193H102.0478M-51.0239 38.26791H102.0478M-51.0239 51.0239H102.0478M-51.0239 63.77988H102.0478M-51.0239 76.53586H102.0478M-51.0239 89.29184H102.0478M-51.0239 102.04333H102.0478M-51.0239-51.0239V102.0478M-38.26791-51.0239V102.0478M-25.51193-51.0239V102.0478M-12.75595-51.0239V102.0478M0-51.0239V102.0478M12.75595-51.0239V102.0478M25.51193-51.0239V102.0478M38.26791-51.0239V102.0478M51.0239-51.0239V102.0478M63.77988-51.0239V102.0478M76.53586-51.0239V102.0478M89.29184-51.0239V102.0478M102.04333-51.0239V102.0478M102.0478 102.0478"/>
<path transform="matrix(1.00006,0,0,-1.00005,52.885339,121.57142)" stroke-width=".79701" stroke-linecap="butt" stroke-miterlimit="10" stroke-linejoin="miter" fill="none" stroke="#000000" d="M-51.0239 0H108.26686"/>
<path transform="matrix(1.00006,0,0,-1.00005,161.15869,121.57142)" d="M1.0361 0C-.25902 .25902-1.55415 .77707-3.1083 1.68365-1.55415 .51805-1.55415-.51805-3.1083-1.68365-1.55415-.77707-.25902-.25902 1.0361 0Z"/>
<path transform="matrix(1.00006,0,0,-1.00005,161.15869,121.57142)" stroke-width=".79701" stroke-linecap="butt" stroke-linejoin="round" fill="none" stroke="#000000" d="M1.0361 0C-.25902 .25902-1.55415 .77707-3.1083 1.68365-1.55415 .51805-1.55415-.51805-3.1083-1.68365-1.55415-.77707-.25902-.25902 1.0361 0Z"/>
<use data-text="x" xlink:href="#font_1_3" transform="matrix(9.963197,0,0,-9.963098,166.31314,123.71652)"/>
<path transform="matrix(1.00006,0,0,-1.00005,52.885339,121.57142)" stroke-width=".79701" stroke-linecap="butt" stroke-miterlimit="10" stroke-linejoin="miter" fill="none" stroke="#000000" d="M0-51.0239V108.26686"/>
<path transform="matrix(0,-1.00005,-1.00006,-0,52.885339,13.299149)" d="M1.0361 0C-.25902 .25902-1.55415 .77707-3.1083 1.68365-1.55415 .51805-1.55415-.51805-3.1083-1.68365-1.55415-.77707-.25902-.25902 1.0361 0Z"/>
<path transform="matrix(0,-1.00005,-1.00006,-0,52.885339,13.299149)" stroke-width=".79701" stroke-linecap="butt" stroke-linejoin="round" fill="none" stroke="#000000" d="M1.0361 0C-.25902 .25902-1.55415 .77707-3.1083 1.68365-1.55415 .51805-1.55415-.51805-3.1083-1.68365-1.55415-.77707-.25902-.25902 1.0361 0Z"/>
<use data-text="y" xlink:href="#font_1_4" transform="matrix(9.963197,0,0,-9.963098,50.264184,6.207657)"/>
<path transform="matrix(1.00006,0,0,-1.00005,52.885339,121.57142)" stroke-width=".3985" stroke-linecap="butt" stroke-miterlimit="10" stroke-linejoin="miter" fill="none" stroke="#000000" d="M-38.26791 1.9133V-1.9135"/>
<path transform="matrix(1.00006,0,0,-1.00005,52.885339,121.57142)" d="M-45.6293-13.34853H-30.906519V-4.1053H-45.6293Z" fill="#ffffff"/>
<use data-text="&#x2212;" xlink:href="#font_2_1" transform="matrix(9.963197,0,0,-9.963098,8.249664,133.094)"/>
<use data-text="3" xlink:href="#font_3_3" transform="matrix(9.963197,0,0,-9.963098,15.999115,133.094)"/>
<path transform="matrix(1.00006,0,0,-1.00005,52.885339,121.57142)" stroke-width=".3985" stroke-linecap="butt" stroke-miterlimit="10" stroke-linejoin="miter" fill="none" stroke="#000000" d="M1.9133-38.26791H-1.9135"/>
<path transform="matrix(1.00006,0,0,-1.00005,52.885339,121.57142)" d="M-18.82808-42.88953H-4.105299V-33.6463H-18.82808Z" fill="#ffffff"/>
<use data-text="&#x2212;" xlink:href="#font_2_1" transform="matrix(9.963197,0,0,-9.963098,35.05227,162.63648)"/>
<use data-text="3" xlink:href="#font_3_3" transform="matrix(9.963197,0,0,-9.963098,42.80172,162.63648)"/>
<path transform="matrix(1.00006,0,0,-1.00005,52.885339,121.57142)" stroke-width=".3985" stroke-linecap="butt" stroke-miterlimit="10" stroke-linejoin="miter" fill="none" stroke="#000000" d="M38.26791 1.9133V-1.9135"/>
<path transform="matrix(1.00006,0,0,-1.00005,52.885339,121.57142)" d="M34.78094-12.5183H41.754884V-4.10532H34.78094Z" fill="#ffffff"/>
<use data-text="3" xlink:href="#font_3_3" transform="matrix(9.963197,0,0,-9.963098,88.66448,133.094)"/>
<path transform="matrix(1.00006,0,0,-1.00005,52.885339,121.57142)" stroke-width=".3985" stroke-linecap="butt" stroke-miterlimit="10" stroke-linejoin="miter" fill="none" stroke="#000000" d="M1.9133 38.26791H-1.9135"/>
<path transform="matrix(1.00006,0,0,-1.00005,52.885339,121.57142)" d="M-11.07924 34.06142H-4.1053V42.4744H-11.07924Z" fill="#ffffff"/>
<use data-text="3" xlink:href="#font_3_3" transform="matrix(9.963197,0,0,-9.963098,42.801736,86.51167)"/>
<path transform="matrix(1.00006,0,0,-1.00005,52.885339,121.57142)" stroke-width=".3985" stroke-linecap="butt" stroke-miterlimit="10" stroke-linejoin="miter" fill="none" stroke="#000000" d="M76.53586 1.9133V-1.9135"/>
<path transform="matrix(1.00006,0,0,-1.00005,52.885339,121.57142)" d="M73.04889-12.5183H80.02283V-4.10532H73.04889Z" fill="#ffffff"/>
<use data-text="6" xlink:href="#font_3_4" transform="matrix(9.963197,0,0,-9.963098,126.93478,133.094)"/>
<path transform="matrix(1.00006,0,0,-1.00005,52.885339,121.57142)" stroke-width=".3985" stroke-linecap="butt" stroke-miterlimit="10" stroke-linejoin="miter" fill="none" stroke="#000000" d="M1.9133 76.53586H-1.9135"/>
<path transform="matrix(1.00006,0,0,-1.00005,52.885339,121.57142)" d="M-11.07924 72.32936H-4.1053V80.74234H-11.07924Z" fill="#ffffff"/>
<use data-text="6" xlink:href="#font_3_4" transform="matrix(9.963197,0,0,-9.963098,42.801736,48.24176)"/>
<path transform="matrix(1.00006,0,0,-1.00005,52.885339,121.57142)" stroke-width=".79701" stroke-linecap="butt" stroke-dasharray="2.98883,2.98883" stroke-miterlimit="10" stroke-linejoin="miter" fill="none" stroke="#515151" d="M-50.00949-50.00949 101.03339 101.03339"/>
<path transform="matrix(-.70714238,.7071353,.70714238,.7071353,2.87286,171.5834)" d="M1.0361 0C-.25902 .25902-1.55415 .77707-3.1083 1.68365-1.55415 .51805-1.55415-.51805-3.1083-1.68365-1.55415-.77707-.25902-.25902 1.0361 0Z" fill="#515151"/>
<path transform="matrix(-.70714238,.7071353,.70714238,.7071353,2.87286,171.5834)" stroke-width=".79701" stroke-linecap="butt" stroke-linejoin="round" fill="none" stroke="#515151" d="M1.0361 0C-.25902 .25902-1.55415 .77707-3.1083 1.68365-1.55415 .51805-1.55415-.51805-3.1083-1.68365-1.55415-.77707-.25902-.25902 1.0361 0Z"/>
<path transform="matrix(.70714238,-.7071353,-.70714238,-.7071353,153.92478,20.533005)" d="M1.0361 0C-.25902 .25902-1.55415 .77707-3.1083 1.68365-1.55415 .51805-1.55415-.51805-3.1083-1.68365-1.55415-.77707-.25902-.25902 1.0361 0Z" fill="#515151"/>
<path transform="matrix(.70714238,-.7071353,-.70714238,-.7071353,153.92478,20.533005)" stroke-width=".79701" stroke-linecap="butt" stroke-linejoin="round" fill="none" stroke="#515151" d="M1.0361 0C-.25902 .25902-1.55415 .77707-3.1083 1.68365-1.55415 .51805-1.55415-.51805-3.1083-1.68365-1.55415-.77707-.25902-.25902 1.0361 0Z"/>
<path transform="matrix(1.00006,0,0,-1.00005,52.885339,121.57142)" d="M87.94547 74.42941H116.150157V84.64121H87.94547Z" fill="#ffffff"/>
<use data-text="y" xlink:href="#font_1_4" transform="matrix(9.963197,0,0,-9.963098,142.82874,43.208505)" fill="#515151"/>
<use data-text="=" xlink:href="#font_3_5" transform="matrix(9.963197,0,0,-9.963098,150.83821,43.208505)" fill="#515151"/>
<use data-text="x" xlink:href="#font_1_3" transform="matrix(9.963197,0,0,-9.963098,161.35486,43.208505)" fill="#515151"/>
<path transform="matrix(1.00006,0,0,-1.00005,52.885339,121.57142)" stroke-width=".79701" stroke-linecap="butt" stroke-miterlimit="10" stroke-linejoin="miter" fill="none" stroke="#ff0000" d="M.22815-49.59111C1.30745-27.7863 1.30745-27.7863 1.74922-22.86502 2.19098-17.94374 2.89941-17.19678 3.34119-15.5547 3.78294-13.91261 4.4914-12.10846 4.93315-11.03008 5.37491-9.9517 6.08336-8.58476 6.52512-7.78249 6.96687-6.98022 7.67532-5.88805 8.1171-5.24788 8.55884-4.60771 9.26729-3.70163 9.70906-3.16853 10.1508-2.63545 10.85925-1.86247 11.30103-1.40567 11.74278-.94887 12.45122-.27602 12.89299 .12376 13.33475 .52359 14.04318 1.12038 14.48495 1.47594 14.92671 1.83151 15.63515 2.36644 16.07692 2.68642 16.51868 3.00638 17.22711 3.49107 17.66888 3.78204 18.11064 4.07301 18.81909 4.51657 19.26085 4.78348 19.7026 5.05037 20.41107 5.4593 20.85281 5.70567 21.29457 5.95206 22.00304 6.33034 22.4448 6.55919 22.88654 6.78802 23.595 7.1413 24.03676 7.35507 24.47852 7.56885 25.18697 7.89944 25.62872 8.09996 26.0705 8.30048 26.77893 8.6116 27.22069 8.80026 27.66246 8.98894 28.3709 9.28148 28.81265 9.45972 29.25443 9.63795 29.96286 9.91605 30.40462 10.08492 30.84639 10.25377 31.55482 10.51648 31.99658 10.6768 32.43835 10.83713 33.14679 11.08777 33.58855 11.2405 34.03032 11.39319 34.73877 11.63168 35.18051 11.7775 35.62228 11.92332 36.33073 12.1519 36.77248 12.29155 37.21425 12.43118 37.9227 12.65018 38.36446 12.784 38.80621 12.9178 39.51466 13.1275 39.95642 13.256 40.3982 13.38448 41.10663 13.58638 41.5484 13.7101 41.99016 13.83379 42.6986 14.02872 43.14037 14.14764 43.58212 14.26657 44.29056 14.45279 44.73233 14.56729 45.17409 14.6818 45.88252 14.86232 46.3243 14.97292 46.76605 15.08353 47.47449 15.25763 47.91626 15.36455 48.35802 15.47145 49.06647 15.6396 49.50822 15.7435 49.94998 15.8474 50.65843 16.01262 51.10019 16.11331 51.54195 16.21402 52.2504 16.37196 52.69217 16.46931 53.13391 16.56667 53.84236 16.7205 54.28413 16.81499 54.72588 16.90948 55.43433 17.05852 55.8761 17.15036 56.31786 17.24222 57.02629 17.38759 57.46806 17.47697 57.90982 17.56636 58.61826 17.70773 59.06003 17.79462 59.50179 17.88153 60.21024 18.01874 60.652 18.10333 61.09375 18.18791 61.8022 18.32176 62.24396 18.40424 62.68571 18.48672 63.39418 18.61758 63.83592 18.69775 64.2777 18.77794 64.98615 18.90393 65.42789 18.98213 65.86966 19.06033 66.57811 19.1848 67.01987 19.26144 67.46162 19.33807 68.17007 19.45964 68.61183 19.53452 69.05359 19.6094 69.76204 19.7281 70.2038 19.80118 70.64557 19.87425 71.354 19.98975 71.79576 20.06122 72.23753 20.1327 72.94597 20.24648 73.38773 20.31639 73.8295 20.3863 74.53793 20.49701 74.97969 20.56514 75.42146 20.63327 76.1299 20.74059 76.57166 20.80748 77.01343 20.87436 77.72186 20.9816 78.16362 21.04727 78.6054 21.11295 79.31384 21.21658 79.75558 21.28084 80.19736 21.34508 80.9058 21.44716 81.34758 21.51031 81.78932 21.57349 82.49777 21.67415 82.93954 21.7361 83.38129 21.79805 84.08974 21.89612 84.53151 21.95682 84.97327 22.01753 85.6817 22.114 86.12347 22.17365 86.56523 22.23329 87.27367 22.32837 87.71544 22.3868 88.1572 22.44519 88.86563 22.53734 89.3074 22.59467 89.74916 22.652 90.4576 22.74353 90.89937 22.80002 91.34113 22.85648 92.04956 22.94627 92.49133 23.00165 92.93309 23.05704 93.64154 23.14471 94.0833 23.19922 94.52505 23.25371 95.2335 23.34097 95.67526 23.39444 96.11702 23.4479 96.82547 23.53204 97.26724 23.5846 97.70898 23.63715 98.41743 23.72136 98.8592 23.77321 99.30096 23.82504 100.00941 23.90733 100.45117 23.95831 100.89293 24.0093 102.04314 24.14069 100.61787 23.97797"/>
<path transform="matrix(-.04942296,.9987799,.9987899,.04942247,53.113504,171.165)" d="M1.0361 0C-.25902 .25902-1.55415 .77707-3.1083 1.68365-1.55415 .51805-1.55415-.51805-3.1083-1.68365-1.55415-.77707-.25902-.25902 1.0361 0Z" fill="#ff0000"/>
<path transform="matrix(-.04942296,.9987799,.9987899,.04942247,53.113504,171.165)" stroke-width=".79701" stroke-linecap="butt" stroke-linejoin="round" fill="none" stroke="#ff0000" d="M1.0361 0C-.25902 .25902-1.55415 .77707-3.1083 1.68365-1.55415 .51805-1.55415-.51805-3.1083-1.68365-1.55415-.77707-.25902-.25902 1.0361 0Z"/>
<path transform="matrix(.9935396,-.11343566,-.1134368,-.9935297,153.50923,97.592258)" d="M1.0361 0C-.25902 .25902-1.55415 .77707-3.1083 1.68365-1.55415 .51805-1.55415-.51805-3.1083-1.68365-1.55415-.77707-.25902-.25902 1.0361 0Z" fill="#ff0000"/>
<path transform="matrix(.9935396,-.11343566,-.1134368,-.9935297,153.50923,97.592258)" stroke-width=".79701" stroke-linecap="butt" stroke-linejoin="round" fill="none" stroke="#ff0000" d="M1.0361 0C-.25902 .25902-1.55415 .77707-3.1083 1.68365-1.55415 .51805-1.55415-.51805-3.1083-1.68365-1.55415-.77707-.25902-.25902 1.0361 0Z"/>
<path transform="matrix(1.00006,0,0,-1.00005,52.885339,121.57142)" stroke-width=".79701" stroke-linecap="butt" stroke-miterlimit="10" stroke-linejoin="miter" fill="none" stroke="#0000ff" d="M-49.58946 .1763C-50.17534 .16852-50.17534 .16852-49.84944 .1734-49.52353 .1783-49.00089 .18701-48.67496 .19247-48.34906 .19795-47.8264 .20691-47.5005 .21292-47.1746 .21895-46.65195 .22932-46.32605 .23589-46.00015 .24245-45.4775 .25296-45.15158 .26022-44.82567 .26747-44.30302 .28012-43.97711 .28824-43.65121 .29637-43.12857 .3098-42.80266 .3188-42.47675 .32782-41.95409 .34334-41.62819 .35326-41.30229 .36316-40.77963 .37926-40.45374 .39023-40.12784 .40121-39.60518 .42024-39.27928 .43248-38.95335 .4447-38.43071 .46497-38.1048 .4784-37.7789 .49185-37.25624 .51454-36.93034 .5294-36.60445 .54425-36.08179 .56898-35.75587 .58545-35.42996 .60193-34.90732 .62991-34.58142 .64813-34.25552 .66635-33.73286 .69669-33.40697 .71684-33.08105 .73701-32.55841 .77104-32.23248 .79353-31.90659 .81602-31.38393 .85419-31.05803 .87898-30.73213 .90376-30.20947 .94496-29.88358 .97221-29.55766 .99947-29.035 1.04514-28.7091 1.07536-28.3832 1.10562-27.86055 1.15675-27.53464 1.19022-27.20874 1.22368-26.6861 1.27954-26.36018 1.31653-26.03427 1.35353-25.51163 1.4158-25.18571 1.45686-24.85982 1.49794-24.33716 1.56708-24.01126 1.61258-23.68536 1.65808-23.1627 1.73456-22.83679 1.78484-22.51088 1.83511-21.98824 1.91959-21.66232 1.975-21.33643 2.03041-20.81377 2.1228-20.48787 2.18425-20.16197 2.24568-19.63931 2.34984-19.3134 2.4178-18.9875 2.48578-18.46484 2.59892-18.13895 2.67416-17.81305 2.74939-17.29039 2.8767-16.9645 2.96008-16.63858 3.04347-16.11594 3.18318-15.79001 3.27519-15.46411 3.36723-14.94145 3.52164-14.61555 3.62341-14.28966 3.7252-13.767 3.89603-13.4411 4.0088-13.11519 4.12157-12.59253 4.31145-12.26663 4.43623-11.94072 4.56102-11.41808 4.77034-11.09216 4.90823-10.76627 5.04613-10.24362 5.27747-9.91772 5.43007-9.5918 5.58267-9.06915 5.83907-8.74324 6.00815-8.41734 6.17725-7.89468 6.46179-7.56879 6.64871-7.24289 6.83565-6.72023 7.14871-6.39432 7.35545-6.0684 7.56221-5.54576 7.90997-5.21985 8.13889-4.89395 8.36778-4.37129 8.75208-4.0454 9.00523-3.7195 9.25838-3.19684 9.6834-2.87093 9.96344-2.54503 10.2435-2.02237 10.71368-1.69647 11.02367-1.37057 11.33363-.84792 11.85493-.52202 12.19754-.19609 12.54013 .32652 13.11388 .65242 13.49287 .97832 13.87187 1.50098 14.50937 1.82687 14.92912 2.15279 15.34888 2.67543 16.05379 3.00134 16.51817 3.32726 16.98256 3.84991 17.76234 4.17581 18.27615 4.50171 18.79 5.02437 19.6529 5.35027 20.2214 5.67616 20.7899 6.19882 21.74449 6.52473 22.37355 6.85063 23.0026 7.37329 24.05914 7.69919 24.75517 8.0251 25.45119 8.54774 26.61992 8.87366 27.39001 9.19955 28.16013 9.72221 29.45346 10.04813 30.30554 10.37402 31.15765 10.89668 32.58855 11.22258 33.53133 11.54848 34.4741 12.07114 36.05728 12.39703 37.10046 12.72295 38.14365 13.24559 39.8958 13.5715 41.04993 13.89742 42.20404 14.42006 44.14182 14.74596 45.41862 15.07187 46.69543 15.59451 48.8394 15.92043 50.25233 16.24634 51.66527 16.769 54.03867 17.0949 55.60204 17.42079 57.16542 17.94345 59.79037 18.26935 61.5201 18.59526 63.2498 19.1179 66.1547 19.44382 68.06859 19.76973 69.98247 20.29239 73.19638 20.61829 75.31409 20.94418 77.43181 21.46683 80.98854 21.79274 83.33154 22.11864 85.67453 22.6413 89.60864 22.96721 92.20073 23.2931 94.79283 24.14166 102.01355 23.97427 100.58879"/>
<path transform="matrix(-.99994,.013290664,.013290797,.99992999,3.2929154,121.39509)" d="M1.0361 0C-.25902 .25902-1.55415 .77707-3.1083 1.68365-1.55415 .51805-1.55415-.51805-3.1083-1.68365-1.55415-.77707-.25902-.25902 1.0361 0Z" fill="#0000ff"/>
<path transform="matrix(-.99994,.013290664,.013290797,.99992999,3.2929154,121.39509)" stroke-width=".79701" stroke-linecap="butt" stroke-linejoin="round" fill="none" stroke="#0000ff" d="M1.0361 0C-.25902 .25902-1.55415 .77707-3.1083 1.68365-1.55415 .51805-1.55415-.51805-3.1083-1.68365-1.55415-.77707-.25902-.25902 1.0361 0Z"/>
<path transform="matrix(.116687,-.9931796,-.9931896,-.11668583,76.86104,20.9776)" d="M1.0361 0C-.25902 .25902-1.55415 .77707-3.1083 1.68365-1.55415 .51805-1.55415-.51805-3.1083-1.68365-1.55415-.77707-.25902-.25902 1.0361 0Z" fill="#0000ff"/>
<path transform="matrix(.116687,-.9931796,-.9931896,-.11668583,76.86104,20.9776)" stroke-width=".79701" stroke-linecap="butt" stroke-linejoin="round" fill="none" stroke="#0000ff" d="M1.0361 0C-.25902 .25902-1.55415 .77707-3.1083 1.68365-1.55415 .51805-1.55415-.51805-3.1083-1.68365-1.55415-.77707-.25902-.25902 1.0361 0Z"/>
<path transform="matrix(1.00006,0,0,-1.00005,52.885339,121.57142)" d="M8.01125-32.48587H68.52457V-18.53799H8.01125Z" fill="#ffffff"/>
<use data-text="g" xlink:href="#font_1_2" transform="matrix(9.963197,0,0,-9.963098,62.88994,149.57582)" fill="#ff0000"/>
<use data-text="(" xlink:href="#font_3_1" transform="matrix(9.963197,0,0,-9.963098,67.99924,149.57582)" fill="#ff0000"/>
<use data-text="x" xlink:href="#font_1_3" transform="matrix(9.963197,0,0,-9.963098,71.87346,149.57582)" fill="#ff0000"/>
<use data-text=")" xlink:href="#font_3_2" transform="matrix(9.963197,0,0,-9.963098,77.567798,149.57582)" fill="#ff0000"/>
<use data-text="=" xlink:href="#font_3_5" transform="matrix(9.963197,0,0,-9.963098,84.19333,149.57582)" fill="#ff0000"/>
<use data-text="l" xlink:href="#font_3_7" transform="matrix(9.963197,0,0,-9.963098,94.70451,149.57582)" fill="#ff0000"/>
<use data-text="o" xlink:href="#font_3_8" transform="matrix(9.963197,0,0,-9.963098,97.464328,149.57582)" fill="#ff0000"/>
<use data-text="g" xlink:href="#font_3_6" transform="matrix(9.963197,0,0,-9.963098,102.44591,149.57582)" fill="#ff0000"/>
<use data-text="3" xlink:href="#font_4_1" transform="matrix(6.9742186,0,0,-6.9741489,107.5966,152.01094)" fill="#ff0000"/>
<use data-text="x" xlink:href="#font_1_3" transform="matrix(9.963197,0,0,-9.963098,113.72598,149.57582)" fill="#ff0000"/>
<path transform="matrix(1.00006,0,0,-1.00005,52.885339,121.57142)" d="M-52.66823 9.60886H-6.009327V23.55674H-52.66823Z" fill="#ffffff"/>
<use data-text="f" xlink:href="#font_1_1" transform="matrix(9.963197,0,0,-9.963098,2.2062989,107.478717)" fill="#0000ff"/>
<use data-text="(" xlink:href="#font_3_1" transform="matrix(9.963197,0,0,-9.963098,8.156647,107.478717)" fill="#0000ff"/>
<use data-text="x" xlink:href="#font_1_3" transform="matrix(9.963197,0,0,-9.963098,12.030869,107.478717)" fill="#0000ff"/>
<use data-text=")" xlink:href="#font_3_2" transform="matrix(9.963197,0,0,-9.963098,17.72522,107.478717)" fill="#0000ff"/>
<use data-text="=" xlink:href="#font_3_5" transform="matrix(9.963197,0,0,-9.963098,24.350754,107.478717)" fill="#0000ff"/>
<use data-text="3" xlink:href="#font_3_3" transform="matrix(9.963197,0,0,-9.963098,34.861925,107.478717)" fill="#0000ff"/>
<use data-text="x" xlink:href="#font_5_1" transform="matrix(6.9742186,0,0,-6.9741489,39.865556,103.86353)" fill="#0000ff"/>
</svg>
