<svg xmlns="http://www.w3.org/2000/svg" xmlns:xlink="http://www.w3.org/1999/xlink" version="1.1" width="142" height="144" viewBox="0 0 142 144">
<defs>
<path id="font_1_2" d="M.33399964 .30233766C.33999635 .32835389 .36299134 .42037965 .43299867 .42037965 .43798829 .42037965 .46199037 .42037965 .48298646 .40734864 .45498658 .402359 .43499757 .37734986 .43499757 .35334779 .43499757 .33735658 .44599916 .31835938 .47299195 .31835938 .49499513 .31835938 .5269928 .3363495 .5269928 .37635804 .5269928 .42837525 .46798707 .4423828 .43399049 .4423828 .37599183 .4423828 .34098817 .38935853 .32899476 .36634828 .3039856 .43237306 .25 .4423828 .22099304 .4423828 .116989139 .4423828 .05999756 .3133545 .05999756 .28834535 .05999756 .27833558 .069992069 .27833558 .07199097 .27833558 .07998657 .27833558 .08299255 .28033448 .084991458 .28933717 .11898804 .39535523 .18499756 .42037965 .21899414 .42037965 .23799134 .42037965 .272995 .4113617 .272995 .35334779 .272995 .32235719 .2559967 .25532533 .21899414 .11528015 .20298767 .053268434 .16799927 .011245728 .12399292 .011245728 .117996219 .011245728 .09498596 .011245728 .07398987 .024276734 .09899902 .029266358 .12098694 .05027771 .12098694 .07827759 .12098694 .105270389 .09899902 .11328125 .083999637 .11328125 .053985597 .11328125 .0289917 .08728027 .0289917 .055267335 .0289917 .009246826 .07899475-.0107421879 .12298584-.0107421879 .18899536-.0107421879 .22499085 .059280397 .22799683 .0652771 .23999024 .028274537 .27598573-.0107421879 .33599855-.0107421879 .43899537-.0107421879 .49598695 .118270877 .49598695 .14328003 .49598695 .1532898 .4869995 .1532898 .48399354 .1532898 .47499085 .1532898 .47299195 .14929199 .47099305 .14228821 .43798829 .03527832 .36999513 .011245728 .33799745 .011245728 .29899598 .011245728 .2829895 .043273927 .2829895 .07727051 .2829895 .09927368 .2889862 .121276859 .2999878 .16529846L.33399964 .30233766Z"/>
<path id="font_1_1" d="M.04499817-.122177127C.036987306-.15631104 .034988405-.16334534-.009002686-.16334534-.021011353-.16334534-.03201294-.16334534-.03201294-.18234253-.03201294-.19033814-.027008057-.19433594-.019012452-.19433594 .0079956059-.19433594 .036987306-.19134522 .06498718-.19134522 .09799194-.19134522 .13198853-.19433594 .1639862-.19433594 .16899109-.19433594 .18199158-.19433594 .18199158-.17434693 .18199158-.16334534 .17199707-.16334534 .1579895-.16334534 .10798645-.16334534 .10798645-.15631104 .10798645-.14727783 .10798645-.13523865 .1499939 .028259278 .15699768 .053268434 .16999817 .024261475 .19799805-.0107421879 .24899292-.0107421879 .36499024-.0107421879 .48999024 .13528443 .48999024 .28233338 .48999024 .37635804 .43299867 .4423828 .35699464 .4423828 .30699159 .4423828 .25898744 .40637208 .22599793 .36735536 .21598816 .42137147 .17298889 .4423828 .13598633 .4423828 .08999634 .4423828 .070999149 .4033661 .06199646 .38536073 .04399109 .35134889 .0309906 .29133607 .0309906 .28833009 .0309906 .27833558 .040985109 .27833558 .042999269 .27833558 .052993776 .27833558 .053985597 .2793274 .05999756 .30133058 .07699585 .37236024 .09700012 .42037965 .1329956 .42037965 .1499939 .42037965 .1639862 .41236878 .1639862 .37435914 .1639862 .35134889 .16099549 .3403473 .15699768 .323349L.04499817-.122177127M.22099304 .3123474C.22799683 .33935548 .25498963 .36735536 .272995 .38235475 .30799867 .41337586 .33699037 .42037965 .35398866 .42037965 .3939972 .42037965 .41799928 .38536073 .41799928 .32633973 .41799928 .26733399 .3849945 .15229798 .36698915 .11428833 .33299256 .044265748 .2849884 .011245728 .24798584 .011245728 .18199158 .011245728 .16899109 .0942688 .16899109 .10028076 .16899109 .10227966 .16899109 .104278568 .17199707 .11628723L.22099304 .3123474Z"/>
<path id="font_2_1" d="M.33099366-.2400055C.33099366-.23701477 .33099366-.23500061 .31399537-.21800232 .18899536-.0920105 .15699768 .09700012 .15699768 .25 .15699768 .42399598 .19499207 .59799197 .31799317 .72299197 .33099366 .73498538 .33099366 .7369995 .33099366 .73999026 .33099366 .746994 .32699586 .75 .32099916 .75 .31098939 .75 .22099304 .6819916 .1619873 .5549927 .11099243 .44499208 .09899902 .33399964 .09899902 .25 .09899902 .17199707 .10998535 .050994874 .16499329-.06201172 .22499085-.18501282 .31098939-.25 .32099916-.25 .32699586-.25 .33099366-.24700928 .33099366-.2400055Z"/>
<path id="font_2_2" d="M.2889862 .25C.2889862 .32798768 .27799989 .44898988 .22299195 .56199648 .16299439 .68499758 .07699585 .75 .066986087 .75 .06098938 .75 .056991579 .74598696 .056991579 .73999026 .056991579 .7369995 .056991579 .73498538 .07598877 .71699526 .17399597 .6179962 .23098755 .45899964 .23098755 .25 .23098755 .07899475 .19400025-.09700012 .069992069-.2230072 .056991579-.23500061 .056991579-.23701477 .056991579-.2400055 .056991579-.2460022 .06098938-.25 .066986087-.25 .07699585-.25 .16699219-.18200684 .22599793-.055007936 .2769928 .054992677 .2889862 .16600037 .2889862 .25Z"/>
<path id="font_3_1" d="M.6589966 .23046875C.6759949 .23046875 .69400027 .23046875 .69400027 .25045777 .69400027 .27046205 .6759949 .27046205 .6589966 .27046205H.117996219C.100997928 .27046205 .08299255 .27046205 .08299255 .25045777 .08299255 .23046875 .100997928 .23046875 .117996219 .23046875H.6589966Z"/>
<path id="font_2_5" d="M.2939911 .16503906V.07800293C.2939911 .041992189 .2919922 .0309906 .21798706 .0309906H.19699097V0C.23799134 .0029907227 .2899933 .0029907227 .33198548 .0029907227 .37399293 .0029907227 .4269867 .0029907227 .46798707 0V.0309906H.44699098C.37298585 .0309906 .37098695 .041992189 .37098695 .07800293V.16503906H.47099305V.19602967H.37098695V.65075686C.37098695 .67074587 .37098695 .6767578 .35499574 .6767578 .34599305 .6767578 .34298707 .6767578 .33499146 .66474917L.027999878 .19602967V.16503906H.2939911M.2999878 .19602967H.055999757L.2999878 .5688019V.19602967Z"/>
<path id="font_2_4" d="M.1269989 .07699585 .23298645 .18003845C.3889923 .31811524 .44898988 .3721466 .44898988 .47216798 .44898988 .5860901 .35899354 .6660156 .23699951 .6660156 .12399292 .6660156 .049987794 .57411196 .049987794 .48516847 .049987794 .4291687 .099990848 .4291687 .102996829 .4291687 .11999512 .4291687 .15499878 .44117738 .15499878 .48217774 .15499878 .5081787 .13699341 .5341797 .101989749 .5341797 .09399414 .5341797 .09199524 .5341797 .08898926 .5331726 .11199951 .59806826 .1659851 .63500979 .22399903 .63500979 .31498719 .63500979 .35798646 .5541382 .35798646 .47216798 .35798646 .39215089 .30799867 .31311036 .25299073 .25108338L.06098938 .036987306C.049987794 .025985718 .049987794 .023986817 .049987794 0H.42099L.44898988 .17404175H.42399598C.4189911 .14402771 .4119873 .1000061 .4019928 .084991458 .394989 .07699585 .32899476 .07699585 .30699159 .07699585H.1269989Z"/>
<path id="font_2_6" d="M.16299439 .4569702C.116989139 .486969 .11299133 .52098086 .11299133 .5379791 .11299133 .598999 .17799378 .64100649 .24899292 .64100649 .32199098 .64100649 .38598634 .58898928 .38598634 .51698306 .38598634 .45996095 .34700013 .4119568 .2869873 .37695313L.16299439 .4569702M.30899049 .36193849C.3809967 .3989563 .42999269 .45095826 .42999269 .51698306 .42999269 .6090088 .34098817 .6660156 .25 .6660156 .1499939 .6660156 .068984989 .59199526 .068984989 .49897767 .068984989 .4809723 .070999149 .43595887 .11299133 .38894654 .12399292 .37695313 .16099549 .35194398 .18598938 .33494569 .12799073 .30592347 .041992189 .24984741 .041992189 .15072632 .041992189 .04458618 .14399719-.022460938 .24899292-.022460938 .3619995-.022460938 .45700074 .06060791 .45700074 .16773987 .45700074 .20379639 .44599916 .24885559 .4079895 .2909088 .3889923 .31193543 .37298585 .3219452 .30899049 .36193849M.20899964 .3199463 .33198548 .24183655C.3600006 .2228241 .40699769 .19277954 .40699769 .13169861 .40699769 .05760193 .33198548 .0055389406 .25 .0055389406 .1639862 .0055389406 .09199524 .067611698 .09199524 .15072632 .09199524 .20880127 .12399292 .27288819 .20899964 .3199463Z"/>
<path id="font_2_3" d="M.2939911 .64004519C.2939911 .66400149 .2939911 .6660156 .2709961 .6660156 .20899964 .60227969 .12098694 .60227969 .08898926 .60227969V.57128909C.10899353 .57128909 .16799927 .57128909 .21998596 .5972748V.07902527C.21998596 .042999269 .21699524 .0309906 .1269989 .0309906H.09498596V0C.12998963 .0029907227 .21699524 .0029907227 .25698854 .0029907227 .29699708 .0029907227 .38398744 .0029907227 .4189911 0V.0309906H.3869934C.29699708 .0309906 .2939911 .041992189 .2939911 .07902527V.64004519Z"/>
</defs>
<path transform="matrix(1.00005,0,0,-1.00003,63.271516,111.98398)" stroke-width=".3985" stroke-linecap="butt" stroke-miterlimit="10" stroke-linejoin="miter" fill="none" stroke="#00aeef" d="M-56.69362-28.34679H56.69362M-56.69362-21.26009H56.69362M-56.69362-14.17339H56.69362M-56.69362-7.08669H56.69362M-56.69362 0H56.69362M-56.69362 7.08669H56.69362M-56.69362 14.17339H56.69362M-56.69362 21.26009H56.69362M-56.69362 28.34679H56.69362M-56.69362 35.43347H56.69362M-56.69362 42.52019H56.69362M-56.69362 49.60687H56.69362M-56.69362 56.69359H56.69362M-56.69362 63.78027H56.69362M-56.69362 70.86697H56.69362M-56.69362 77.95367H56.69362M-56.69362 85.04037H56.69362M-56.69362-28.3468V85.04042M-42.5202-28.3468V85.04042M-28.3468-28.3468V85.04042M-14.17339-28.3468V85.04042M0-28.3468V85.04042M14.17339-28.3468V85.04042M28.3468-28.3468V85.04042M42.5202-28.3468V85.04042M56.68863-28.3468V85.04042M56.69362 85.04042"/>
<path transform="matrix(1.00005,0,0,-1.00003,63.271516,111.98398)" stroke-width=".79701" stroke-linecap="butt" stroke-miterlimit="10" stroke-linejoin="miter" fill="none" stroke="#000000" d="M-56.69362 0H66.59776"/>
<path transform="matrix(1.00005,0,0,-1.00003,129.8726,111.98398)" d="M1.0361 0C-.25902 .25902-1.55415 .77707-3.1083 1.68365-1.55415 .51805-1.55415-.51805-3.1083-1.68365-1.55415-.77707-.25902-.25902 1.0361 0Z"/>
<path transform="matrix(1.00005,0,0,-1.00003,129.8726,111.98398)" stroke-width=".79701" stroke-linecap="butt" stroke-linejoin="round" fill="none" stroke="#000000" d="M1.0361 0C-.25902 .25902-1.55415 .77707-3.1083 1.68365-1.55415 .51805-1.55415-.51805-3.1083-1.68365-1.55415-.77707-.25902-.25902 1.0361 0Z"/>
<use data-text="x" xlink:href="#font_1_2" transform="matrix(9.963098,0,0,-9.962899,135.0261,114.12904)"/>
<path transform="matrix(1.00005,0,0,-1.00003,63.271516,111.98398)" stroke-width=".79701" stroke-linecap="butt" stroke-miterlimit="10" stroke-linejoin="miter" fill="none" stroke="#000000" d="M0-28.3468V94.94456"/>
<path transform="matrix(0,-1.00003,-1.00005,-0,63.271516,17.036568)" d="M1.0361 0C-.25902 .25902-1.55415 .77707-3.1083 1.68365-1.55415 .51805-1.55415-.51805-3.1083-1.68365-1.55415-.77707-.25902-.25902 1.0361 0Z"/>
<path transform="matrix(0,-1.00003,-1.00005,-0,63.271516,17.036568)" stroke-width=".79701" stroke-linecap="butt" stroke-linejoin="round" fill="none" stroke="#000000" d="M1.0361 0C-.25902 .25902-1.55415 .77707-3.1083 1.68365-1.55415 .51805-1.55415-.51805-3.1083-1.68365-1.55415-.77707-.25902-.25902 1.0361 0Z"/>
<use data-text="p" xlink:href="#font_1_1" transform="matrix(9.963098,0,0,-9.962899,54.043054,9.391899)"/>
<use data-text="(" xlink:href="#font_2_1" transform="matrix(9.963098,0,0,-9.962899,59.056299,9.391899)"/>
<use data-text="x" xlink:href="#font_1_2" transform="matrix(9.963098,0,0,-9.962899,62.93049,9.391899)"/>
<use data-text=")" xlink:href="#font_2_2" transform="matrix(9.963098,0,0,-9.962899,68.62478,9.391899)"/>
<path transform="matrix(1.00005,0,0,-1.00003,63.271516,111.98398)" stroke-width=".3985" stroke-linecap="butt" stroke-miterlimit="10" stroke-linejoin="miter" fill="none" stroke="#000000" d="M-56.69362 2.12592V-2.12613"/>
<path transform="matrix(1.00005,0,0,-1.00003,63.271516,111.98398)" d="M-64.05501-13.56116H-49.33223V-4.31793H-64.05501Z" fill="#ffffff"/>
<use data-text="&#x2212;" xlink:href="#font_3_1" transform="matrix(9.963098,0,0,-9.962899,.20936585,123.71933)"/>
<use data-text="4" xlink:href="#font_2_5" transform="matrix(9.963098,0,0,-9.962899,7.95874,123.71933)"/>
<path transform="matrix(1.00005,0,0,-1.00003,63.271516,111.98398)" stroke-width=".3985" stroke-linecap="butt" stroke-miterlimit="10" stroke-linejoin="miter" fill="none" stroke="#000000" d="M-28.3468 2.12592V-2.12613"/>
<path transform="matrix(1.00005,0,0,-1.00003,63.271516,111.98398)" d="M-35.70819-13.56116H-20.98541V-4.31793H-35.70819Z" fill="#ffffff"/>
<use data-text="&#x2212;" xlink:href="#font_3_1" transform="matrix(9.963098,0,0,-9.962899,28.557778,123.71933)"/>
<use data-text="2" xlink:href="#font_2_4" transform="matrix(9.963098,0,0,-9.962899,36.30715,123.71933)"/>
<path transform="matrix(1.00005,0,0,-1.00003,63.271516,111.98398)" stroke-width=".3985" stroke-linecap="butt" stroke-miterlimit="10" stroke-linejoin="miter" fill="none" stroke="#000000" d="M28.3468 2.12592V-2.12613"/>
<path transform="matrix(1.00005,0,0,-1.00003,63.271516,111.98398)" d="M24.85983-12.73093H31.83377V-4.3179504H24.85983Z" fill="#ffffff"/>
<use data-text="2" xlink:href="#font_2_4" transform="matrix(9.963098,0,0,-9.962899,89.12881,123.71933)"/>
<path transform="matrix(1.00005,0,0,-1.00003,63.271516,111.98398)" stroke-width=".3985" stroke-linecap="butt" stroke-miterlimit="10" stroke-linejoin="miter" fill="none" stroke="#000000" d="M56.69362 2.12592V-2.12613"/>
<path transform="matrix(1.00005,0,0,-1.00003,63.271516,111.98398)" d="M53.20665-12.73093H60.180589V-4.3179504H53.20665Z" fill="#ffffff"/>
<use data-text="4" xlink:href="#font_2_5" transform="matrix(9.963098,0,0,-9.962899,117.47722,123.71933)"/>
<path transform="matrix(1.00005,0,0,-1.00003,63.271516,111.98398)" stroke-width=".3985" stroke-linecap="butt" stroke-miterlimit="10" stroke-linejoin="miter" fill="none" stroke="#000000" d="M2.12592-28.3468H-2.12613"/>
<path transform="matrix(1.00005,0,0,-1.00003,63.271516,111.98398)" d="M-19.04071-32.96841H-4.31793V-23.725182H-19.04071Z" fill="#ffffff"/>
<use data-text="&#x2212;" xlink:href="#font_3_1" transform="matrix(9.963098,0,0,-9.962899,45.22661,143.12693)"/>
<use data-text="4" xlink:href="#font_2_5" transform="matrix(9.963098,0,0,-9.962899,52.975984,143.12693)"/>
<path transform="matrix(1.00005,0,0,-1.00003,63.271516,111.98398)" stroke-width=".3985" stroke-linecap="butt" stroke-miterlimit="10" stroke-linejoin="miter" fill="none" stroke="#000000" d="M2.12592 28.3468H-2.12613"/>
<path transform="matrix(1.00005,0,0,-1.00003,63.271516,111.98398)" d="M-11.29187 24.1403H-4.31793V32.55328H-11.29187Z" fill="#ffffff"/>
<use data-text="4" xlink:href="#font_2_5" transform="matrix(9.963098,0,0,-9.962899,52.975,86.84622)"/>
<path transform="matrix(1.00005,0,0,-1.00003,63.271516,111.98398)" stroke-width=".3985" stroke-linecap="butt" stroke-miterlimit="10" stroke-linejoin="miter" fill="none" stroke="#000000" d="M2.12592 56.69362H-2.12613"/>
<path transform="matrix(1.00005,0,0,-1.00003,63.271516,111.98398)" d="M-11.29187 52.48712H-4.31793V60.9001H-11.29187Z" fill="#ffffff"/>
<use data-text="8" xlink:href="#font_2_6" transform="matrix(9.963098,0,0,-9.962899,52.975,58.49937)"/>
<path transform="matrix(1.00005,0,0,-1.00003,63.271516,111.98398)" stroke-width=".3985" stroke-linecap="butt" stroke-miterlimit="10" stroke-linejoin="miter" fill="none" stroke="#000000" d="M2.12592 85.04042H-2.12613"/>
<path transform="matrix(1.00005,0,0,-1.00003,63.271516,111.98398)" d="M-16.27328 80.83392H-4.317939V89.2469H-16.27328Z" fill="#ffffff"/>
<use data-text="1" xlink:href="#font_2_3" transform="matrix(9.963098,0,0,-9.962899,47.99375,30.15152)"/>
<use data-text="2" xlink:href="#font_2_4" transform="matrix(9.963098,0,0,-9.962899,52.97529,30.15152)"/>
<path transform="matrix(1.00005,0,0,-1.00003,63.271516,111.98398)" stroke-width="1.19553" stroke-linecap="butt" stroke-miterlimit="10" stroke-linejoin="miter" fill="none" stroke="#ff0000" d="M-50.59781-26.5429C-49.94904-24.22644-49.94904-24.22644-49.5059-22.6786-49.06276-21.13075-48.35211-18.68846-47.90898-17.19055-47.46585-15.69264-46.75519-13.33066-46.31204-11.88266-45.86891-10.4347-45.15825-8.15256-44.7151-6.7545-44.27197-5.35646-43.56133-3.15457-43.11818-1.80647-42.67505-.45839-41.96439 1.66338-41.52124 2.96156-41.07811 4.25975-40.36746 6.30168-39.92433 7.54993-39.48119 8.7982-38.77052 10.75983-38.3274 11.95815-37.88425 13.15646-37.1736 15.03821-36.73047 16.18663-36.28732 17.33505-35.57666 19.1367-35.13353 20.2352-34.69038 21.33368-33.97974 23.05528-33.5366 24.1038-33.09348 25.15233-32.38281 26.79369-31.93967 27.79228-31.49654 28.79088-30.78589 30.35234-30.34274 31.30104-29.89961 32.24973-29.18895 33.73108-28.7458 34.62984-28.30267 35.52861-27.59203 36.92989-27.14888 37.77872-26.70575 38.62755-25.99509 39.94876-25.55196 40.74767-25.10881 41.54655-24.39816 42.78769-23.95503 43.53667-23.51189 44.28563-22.80122 45.44669-22.3581 46.14574-21.91495 46.84477-21.2043 47.92577-20.76117 48.57487-20.31802 49.22398-19.60736 50.2249-19.16423 50.82407-18.72108 51.42323-18.01044 52.34409-17.56729 52.89333-17.12416 53.44257-16.41351 54.28334-15.97037 54.78265-15.52724 55.28195-14.81657 56.04263-14.37343 56.49205-13.9303 56.94145-13.21965 57.62224-12.7765 58.02171-12.33337 58.42119-11.62271 59.02171-11.17957 59.37123-10.73643 59.72075-10.02579 60.2412-9.58266 60.5408-9.13951 60.84042-8.42885 61.28099-7.98572 61.53069-7.54257 61.78036-6.83192 62.14067-6.3888 62.3404-5.94565 62.54012-5.23499 62.82034-4.79185 62.97015-4.34871 63.12-3.63806 63.32033-3.19493 63.42021-2.7518 63.52011-2.04114 63.64015-1.59799 63.69012-1.15486 63.74008-.44421 63.78026-.00107 63.7803 .44205 63.78036 1.1527 63.74046 1.59584 63.69055 2.03897 63.64066 2.74962 63.5205 3.19276 63.42065 3.6359 63.32082 4.34656 63.12076 4.78969 62.97102 5.23283 62.8213 5.94348 62.54115 6.38661 62.34146 6.82976 62.14177 7.54042 61.78139 7.98355 61.53177 8.4267 61.28214 9.13736 60.84186 9.58049 60.54233 10.02364 60.2428 10.73428 59.72243 11.17741 59.37296 11.62054 59.02351 12.3312 58.42305 12.77435 58.02367 13.21748 57.62428 13.92813 56.94374 14.37128 56.49442 14.8144 56.0451 15.52507 55.2845 15.96822 54.78525 16.41135 54.286 17.122 53.44531 17.56514 52.89615 18.00827 52.34695 18.71893 51.42621 19.16206 50.82709 19.60521 50.22797 20.31586 49.22716 20.75899 48.57811 21.20213 47.92906 21.9128 46.84818 22.35593 46.1492 22.79907 45.45021 23.50972 44.28926 23.95285 43.54034 24.396 42.79143 25.10666 41.55038 25.54979 40.75156 25.99294 39.95271 26.70357 38.63159 27.14671 37.78282 27.58984 36.93405 28.3005 35.53284 28.74365 34.63417 29.18678 33.73549 29.89743 32.2544 30.34058 31.30579 30.7837 30.3572 31.49437 28.79582 31.93752 27.79726 32.38065 26.79869 33.0913 25.15726 33.53444 24.1088 33.97757 23.06033 34.68823 21.339 35.13136 20.2406 35.57451 19.1422 36.28517 17.34064 36.7283 16.19226 37.17145 15.0439 37.8821 13.16225 38.32523 11.96397 38.76837 10.76572 39.47903 8.80415 39.92216 7.55598 40.36531 6.30783 41.07596 4.26616 41.51909 2.96806 41.96222 1.66997 42.67288-.45172 43.11603-1.79977 43.55916-3.14784 44.2698-5.34981 44.71295-6.7478 45.15608-8.14578 45.86674-10.42764 46.30989-11.87553 46.75302-13.32341 47.46367-15.68535 47.90681-17.1832 48.34995-18.68105 49.06061-21.12325 49.50374-22.67104 49.94688-24.21881 51.10066-28.33858 50.59564-26.53511"/>
<path transform="matrix(-.26965348,.96291896,.96293815,.2696481,12.671177,138.52765)" d="M1.27522 0C-.31879 .31879-1.91284 .9564-3.8257 2.07224-1.91284 .6376-1.91284-.6376-3.8257-2.07224-1.91284-.9564-.31879-.31879 1.27522 0Z" fill="#ff0000"/>
<path transform="matrix(-.26965348,.96291896,.96293815,.2696481,12.671177,138.52765)" stroke-width="1.19553" stroke-linecap="butt" stroke-linejoin="round" fill="none" stroke="#ff0000" d="M1.27522 0C-.31879 .31879-1.91284 .9564-3.8257 2.07224-1.91284 .6376-1.91284-.6376-3.8257-2.07224-1.91284-.9564-.31879-.31879 1.27522 0Z"/>
<path transform="matrix(.26965348,.96291896,.96293815,-.2696481,113.869678,138.51988)" d="M1.27522 0C-.31879 .31879-1.91284 .9564-3.8257 2.07224-1.91284 .6376-1.91284-.6376-3.8257-2.07224-1.91284-.9564-.31879-.31879 1.27522 0Z" fill="#ff0000"/>
<path transform="matrix(.26965348,.96291896,.96293815,-.2696481,113.869678,138.51988)" stroke-width="1.19553" stroke-linecap="butt" stroke-linejoin="round" fill="none" stroke="#ff0000" d="M1.27522 0C-.31879 .31879-1.91284 .9564-3.8257 2.07224-1.91284 .6376-1.91284-.6376-3.8257-2.07224-1.91284-.9564-.31879-.31879 1.27522 0Z"/>
</svg>
