<svg xmlns="http://www.w3.org/2000/svg" xmlns:xlink="http://www.w3.org/1999/xlink" version="1.1" width="172" height="242" viewBox="0 0 172 242">
<defs>
<path id="font_1_2" d="M.46199037 .33935548C.46699525 .36135865 .47698976 .3983612 .47698976 .40437318 .47698976 .42237855 .46299745 .43138124 .44799806 .43138124 .43598939 .43138124 .41799928 .42337037 .41099549 .4033661 .4079895 .3963623 .36099244 .205307 .35398866 .17930603 .34700013 .14929199 .34498597 .13128662 .34498597 .11328125 .34498597 .10227966 .34498597 .10028076 .34599305 .09527588 .32299806 .042266847 .29299928 .011245728 .2539978 .011245728 .17399597 .011245728 .17399597 .08526611 .17399597 .10227966 .17399597 .1342926 .1789856 .17329407 .22599793 .29634095 .23699951 .32633973 .24299622 .3403473 .24299622 .36035157 .24299622 .405365 .20999146 .4423828 .16099549 .4423828 .06599426 .4423828 .0289917 .29733277 .0289917 .28833009 .0289917 .27833558 .038986207 .27833558 .040985109 .27833558 .050994874 .27833558 .051986696 .28033448 .056991579 .29634095 .083999637 .38935853 .12298584 .42037965 .1579895 .42037965 .16699219 .42037965 .18299866 .41937257 .18299866 .38735963 .18299866 .36235047 .17199707 .3343506 .16499329 .31733705 .12098694 .1993103 .10899353 .1532898 .10899353 .11528015 .10899353 .024261475 .17599488-.0107421879 .25099183-.0107421879 .2679901-.0107421879 .31498719-.0107421879 .35499574 .059265138 .3809967-.0047454836 .44999696-.0107421879 .47999574-.0107421879 .5549927-.0107421879 .598999 .052261354 .625 .11227417 .6589966 .19030762 .69099429 .32434083 .69099429 .37236024 .69099429 .42736817 .6639862 .4423828 .6469879 .4423828 .621994 .4423828 .5970001 .41636659 .5970001 .3943634 .5970001 .38136292 .6029968 .3753662 .6119995 .36735536 .6230011 .35635377 .647995 .33035279 .647995 .28233338 .647995 .24832154 .61898806 .15029907 .59298709 .09927368 .5669861 .04626465 .5319977 .011245728 .48298646 .011245728 .43598939 .011245728 .40899659 .041259767 .40899659 .09828186 .40899659 .12628174 .41600038 .1572876 .41999818 .17129517L.46199037 .33935548Z"/>
<path id="font_1_1" d="M.1789856 .114868167C.13899231 .047973634 .099990848 .033981325 .055999757 .0309906 .04399109 .02999878 .034988405 .02999878 .034988405 .010986328 .034988405 .004989624 .039993287 0 .04798889 0 .07499695 0 .10598755 .0029907227 .13398743 .0029907227 .16699219 .0029907227 .20199585 0 .23399353 0 .23999024 0 .25299073 0 .25299073 .018997193 .25299073 .02999878 .24398804 .0309906 .23699951 .0309906 .21398926 .032989503 .18998719 .04096985 .18998719 .06593323 .18998719 .077926639 .19599915 .088897708 .20399475 .102890018L.27999879 .23068238H.5309906C.5329895 .2097168 .5469971 .07392883 .5469971 .063949588 .5469971 .033981325 .49499513 .0309906 .47499085 .0309906 .46099855 .0309906 .45098878 .0309906 .45098878 .010986328 .45098878 0 .46299745 0 .46499635 0 .5059967 0 .548996 .0029907227 .58999636 .0029907227 .61499026 .0029907227 .6779938 0 .7029877 0 .70899966 0 .72099307 0 .72099307 .019989014 .72099307 .0309906 .71099856 .0309906 .69799807 .0309906 .6359863 .0309906 .6359863 .037979127 .6329956 .06694031L.57199099 .691803C.56999209 .71180728 .56999209 .7158203 .5529938 .7158203 .5369873 .7158203 .5329895 .7088165 .5269928 .69880679L.1789856 .114868167M.29899598 .26168824 .49598695 .5917816 .5279999 .26168824H.29899598Z"/>
<path id="font_2_57" d="M.47099305 .16503906V.19602967H.37098695V.6507721C.37098695 .6707611 .37098695 .6767578 .35499574 .6767578 .34599305 .6767578 .34298707 .6767578 .33499146 .6647644L.027999878 .19602967V.16503906H.2939911V.07800293C.2939911 .041992189 .2919922 .0309906 .21798706 .0309906H.19699097V0C.23799134 .0029907227 .2899933 .0029907227 .33198548 .0029907227 .37399293 .0029907227 .4269867 .0029907227 .46798707 0V.0309906H.44699098C.37298585 .0309906 .37098695 .041992189 .37098695 .07800293V.16503906H.47099305M.2999878 .19602967H.055999757L.2999878 .56881716V.19602967Z"/>
<path id="font_2_51" d="M.45700074 .16764832C.45700074 .20367432 .44599916 .24871826 .4079895 .29074098 .3889923 .31176759 .37298585 .32176209 .30899049 .36180116 .3809967 .39881898 .42999269 .4508667 .42999269 .51690676 .42999269 .6089783 .34098817 .6660156 .25 .6660156 .1499939 .6660156 .068984989 .5919647 .068984989 .49890138 .068984989 .48088075 .070999149 .43585206 .11299133 .38882447 .12399292 .3768158 .16099549 .35179139 .18598938 .33477784 .12799073 .30575563 .041992189 .24971009 .041992189 .15063477 .041992189 .044555665 .14399719-.022460938 .24899292-.022460938 .3619995-.022460938 .45700074 .060577394 .45700074 .16764832M.38598634 .51690676C.38598634 .45986939 .34700013 .41183473 .2869873 .3768158L.16299439 .4568634C.116989139 .4868927 .11299133 .5209198 .11299133 .53793337 .11299133 .5989685 .17799378 .64100649 .24899292 .64100649 .32199098 .64100649 .38598634 .588974 .38598634 .51690676M.40699769 .13162232C.40699769 .05757141 .33198548 .0055389406 .25 .0055389406 .1639862 .0055389406 .09199524 .06758118 .09199524 .15063477 .09199524 .2086792 .12399292 .2727356 .20899964 .31976319L.33198548 .24171448C.3600006 .22268677 .40699769 .19267273 .40699769 .13162232Z"/>
<path id="font_2_82" d="M.4189911 0V.0309906H.3869934C.29699708 .0309906 .2939911 .041992189 .2939911 .07902527V.64012148C.2939911 .6640167 .2939911 .6660156 .2709961 .6660156 .20899964 .60227969 .12098694 .60227969 .08898926 .60227969V.57128909C.10899353 .57128909 .16799927 .57128909 .21998596 .5972748V.07902527C.21998596 .042999269 .21699524 .0309906 .1269989 .0309906H.09498596V0C.12998963 .0029907227 .21699524 .0029907227 .25698854 .0029907227 .29699708 .0029907227 .38398744 .0029907227 .4189911 0Z"/>
<path id="font_2_107" d="M.44898988 .17396546H.42399598C.4189911 .14398194 .4119873 .099990848 .4019928 .084991458 .394989 .07699585 .32899476 .07699585 .30699159 .07699585H.1269989L.23298645 .17996216C.3889923 .31803895 .44898988 .37210084 .44898988 .47216798 .44898988 .5860901 .35899354 .6660156 .23699951 .6660156 .12399292 .6660156 .049987794 .57411196 .049987794 .48516847 .049987794 .4291687 .099990848 .4291687 .102996829 .4291687 .11999512 .4291687 .15499878 .44117738 .15499878 .48217774 .15499878 .5081787 .13699341 .5341797 .101989749 .5341797 .09399414 .5341797 .09199524 .5341797 .08898926 .5331726 .11199951 .59806826 .1659851 .63500979 .22399903 .63500979 .31498719 .63500979 .35798646 .5541382 .35798646 .47216798 .35798646 .39196778 .30799867 .31297303 .25299073 .25097657L.06098938 .036987306C.049987794 .025985718 .049987794 .023986817 .049987794 0H.42099L.44898988 .17396546Z"/>
<path id="font_2_101" d="M.45700074 .2036438C.45700074 .33070375 .36799623 .4267578 .25698854 .4267578 .18899536 .4267578 .1519928 .37573243 .13198853 .327713V.35173036C.13198853 .6047821 .2559967 .64100649 .30699159 .64100649 .33099366 .64100649 .37298585 .634964 .394989 .6007538 .37998963 .6007538 .33999635 .6007538 .33999635 .5557556 .33999635 .524765 .3639984 .5097656 .38598634 .5097656 .4019928 .5097656 .43199159 .51875308 .43199159 .5577545 .43199159 .6178589 .3880005 .6660156 .30499269 .6660156 .1769867 .6660156 .041992189 .5367584 .041992189 .31570436 .041992189 .048553468 .1579895-.022460938 .25099183-.022460938 .3619995-.022460938 .45700074 .07156372 .45700074 .2036438M.36698915 .20463562C.36698915 .15661621 .36698915 .10658264 .34999085 .0705719 .31999208 .010528564 .27398683 .0055389406 .25099183 .0055389406 .18798828 .0055389406 .1579895 .06556702 .1519928 .080566409 .13398743 .127594 .13398743 .2076416 .13398743 .22564698 .13398743 .30369569 .1659851 .40374757 .2559967 .40374757 .27198792 .40374757 .31799317 .40374757 .34899903 .34172059 .36698915 .30470277 .36698915 .2536621 .36698915 .20463562Z"/>
<path id="font_2_121" d="M.45999146 .31976319C.45999146 .39982606 .45498658 .47988893 .41999818 .5539398 .37399293 .65000918 .2919922 .6660156 .25 .6660156 .18998719 .6660156 .116989139 .64001467 .07598877 .54693606 .04399109 .47789 .038986207 .39982606 .038986207 .31976319 .038986207 .24472046 .042999269 .15464783 .083999637 .07859802 .1269989-.0024719239 .19999695-.022460938 .24899292-.022460938 .30299378-.022460938 .3789978-.0014648438 .4229889 .09359741 .45498658 .16265869 .45999146 .2407074 .45999146 .31976319M.3769989 .3317871C.3769989 .25672914 .3769989 .18867493 .3659973 .12461853 .35099793 .029556275 .2939911-.00047302247 .24899292-.00047302247 .20999146-.00047302247 .15098572 .024551392 .1329956 .12062073 .12199402 .18066406 .12199402 .2727356 .12199402 .3317871 .12199402 .39582826 .12199402 .46188355 .12998963 .5159149 .14898682 .63500979 .22399903 .64401248 .24899292 .64401248 .28199769 .64401248 .34799195 .6259918 .36698915 .52693179 .3769989 .47088624 .3769989 .39482118 .3769989 .3317871Z"/>
</defs>
<path transform="matrix(1.00003,0,0,-1.00003,20.960213,228.27147)" stroke-width=".3985" stroke-linecap="butt" stroke-miterlimit="10" stroke-linejoin="miter" fill="none" stroke="#00aeef" d="M0 0H127.56062M0 14.17339H127.56062M0 28.3468H127.56062M0 42.5202H127.56062M0 56.69362H127.56062M0 70.867H127.56062M0 85.04042H127.56062M0 99.21382H127.56062M0 113.38724H127.56062M0 127.56062H127.56062M0 141.73404H127.56062M0 155.90744H127.56062M0 170.08086H127.56062M0 184.25424H127.56062M0 198.42766H127.56062M0 212.59609H127.56062M0 0V212.60106M14.17339 0V212.60106M28.3468 0V212.60106M42.5202 0V212.60106M56.69362 0V212.60106M70.867 0V212.60106M85.04042 0V212.60106M99.21382 0V212.60106M113.38724 0V212.60106M127.55566 0V212.60106M127.56062 212.60106"/>
<path transform="matrix(1.00003,0,0,-1.00003,20.960213,228.27147)" stroke-width=".79701" stroke-linecap="butt" stroke-miterlimit="10" stroke-linejoin="miter" fill="none" stroke="#000000" d="M0 0H137.46479"/>
<path transform="matrix(1.00003,0,0,-1.00003,158.42914,228.27147)" d="M1.0361 0C-.25902 .25902-1.55415 .77707-3.1083 1.68365-1.55415 .51805-1.55415-.51805-3.1083-1.68365-1.55415-.77707-.25902-.25902 1.0361 0Z"/>
<path transform="matrix(1.00003,0,0,-1.00003,158.42914,228.27147)" stroke-width=".79701" stroke-linecap="butt" stroke-linejoin="round" fill="none" stroke="#000000" d="M1.0361 0C-.25902 .25902-1.55415 .77707-3.1083 1.68365-1.55415 .51805-1.55415-.51805-3.1083-1.68365-1.55415-.77707-.25902-.25902 1.0361 0Z"/>
<use data-text="w" xlink:href="#font_1_2" transform="matrix(9.962899,0,0,-9.962899,163.58249,230.41654)"/>
<path transform="matrix(1.00003,0,0,-1.00003,20.960213,228.27147)" stroke-width=".79701" stroke-linecap="butt" stroke-miterlimit="10" stroke-linejoin="miter" fill="none" stroke="#000000" d="M0 0V222.5052"/>
<path transform="matrix(0,-1.00003,-1.00003,-0,20.960213,5.7595827)" d="M1.0361 0C-.25902 .25902-1.55415 .77707-3.1083 1.68365-1.55415 .51805-1.55415-.51805-3.1083-1.68365-1.55415-.77707-.25902-.25902 1.0361 0Z"/>
<path transform="matrix(0,-1.00003,-1.00003,-0,20.960213,5.7595827)" stroke-width=".79701" stroke-linecap="butt" stroke-linejoin="round" fill="none" stroke="#000000" d="M1.0361 0C-.25902 .25902-1.55415 .77707-3.1083 1.68365-1.55415 .51805-1.55415-.51805-3.1083-1.68365-1.55415-.77707-.25902-.25902 1.0361 0Z"/>
<use data-text="A" xlink:href="#font_1_1" transform="matrix(9.962899,0,0,-9.962899,9.768875,8.724884)"/>
<path transform="matrix(1.00003,0,0,-1.00003,20.960213,228.27147)" stroke-width=".79701" stroke-linecap="butt" stroke-miterlimit="10" stroke-linejoin="miter" fill="none" stroke="#000000" d="M28.3468 1.4174V-1.41719"/>
<path transform="matrix(1.00003,0,0,-1.00003,20.960213,228.27147)" d="M24.85983-12.5456H31.83377V-3.80826H24.85983Z" fill="#ffffff"/>
<use data-text="4" xlink:href="#font_2_57" transform="matrix(9.962899,0,0,-9.962899,46.81699,239.82082)"/>
<path transform="matrix(1.00003,0,0,-1.00003,20.960213,228.27147)" stroke-width=".79701" stroke-linecap="butt" stroke-miterlimit="10" stroke-linejoin="miter" fill="none" stroke="#000000" d="M56.69362 1.4174V-1.41719"/>
<path transform="matrix(1.00003,0,0,-1.00003,20.960213,228.27147)" d="M53.20665-12.65517H60.180589V-3.80826H53.20665Z" fill="#ffffff"/>
<use data-text="8" xlink:href="#font_2_51" transform="matrix(9.962899,0,0,-9.962899,75.16484,239.7118)"/>
<path transform="matrix(1.00003,0,0,-1.00003,20.960213,228.27147)" stroke-width=".79701" stroke-linecap="butt" stroke-miterlimit="10" stroke-linejoin="miter" fill="none" stroke="#000000" d="M85.04042 1.4174V-1.41719"/>
<path transform="matrix(1.00003,0,0,-1.00003,20.960213,228.27147)" d="M79.06276-12.43602H91.01808V-3.8082696H79.06276Z" fill="#ffffff"/>
<use data-text="1" xlink:href="#font_2_82" transform="matrix(9.962899,0,0,-9.962899,101.021617,239.7118)"/>
<use data-text="2" xlink:href="#font_2_107" transform="matrix(9.962899,0,0,-9.962899,106.00307,239.7118)"/>
<path transform="matrix(1.00003,0,0,-1.00003,20.960213,228.27147)" stroke-width=".79701" stroke-linecap="butt" stroke-miterlimit="10" stroke-linejoin="miter" fill="none" stroke="#000000" d="M113.38724 1.4174V-1.41719"/>
<path transform="matrix(1.00003,0,0,-1.00003,20.960213,228.27147)" d="M107.40958-12.65517H119.3649V-3.80826H107.40958Z" fill="#ffffff"/>
<use data-text="1" xlink:href="#font_2_82" transform="matrix(9.962899,0,0,-9.962899,129.36948,239.7118)"/>
<use data-text="6" xlink:href="#font_2_101" transform="matrix(9.962899,0,0,-9.962899,134.35092,239.7118)"/>
<path transform="matrix(1.00003,0,0,-1.00003,20.960213,228.27147)" stroke-width=".79701" stroke-linecap="butt" stroke-miterlimit="10" stroke-linejoin="miter" fill="none" stroke="#000000" d="M1.4174 28.3468H-1.41719"/>
<path transform="matrix(1.00003,0,0,-1.00003,20.960213,228.27147)" d="M-15.76358 23.86855H-3.80826V32.825059H-15.76358Z" fill="#ffffff"/>
<use data-text="4" xlink:href="#font_2_57" transform="matrix(9.962899,0,0,-9.962899,6.192772,203.18672)"/>
<use data-text="0" xlink:href="#font_2_121" transform="matrix(9.962899,0,0,-9.962899,11.174225,203.18672)"/>
<path transform="matrix(1.00003,0,0,-1.00003,20.960213,228.27147)" stroke-width=".79701" stroke-linecap="butt" stroke-miterlimit="10" stroke-linejoin="miter" fill="none" stroke="#000000" d="M1.4174 56.69362H-1.41719"/>
<path transform="matrix(1.00003,0,0,-1.00003,20.960213,228.27147)" d="M-15.76358 52.27016H-3.80826V61.117074H-15.76358Z" fill="#ffffff"/>
<use data-text="8" xlink:href="#font_2_51" transform="matrix(9.962899,0,0,-9.962899,6.192772,174.78386)"/>
<use data-text="0" xlink:href="#font_2_121" transform="matrix(9.962899,0,0,-9.962899,11.174225,174.78386)"/>
<path transform="matrix(1.00003,0,0,-1.00003,20.960213,228.27147)" stroke-width=".79701" stroke-linecap="butt" stroke-miterlimit="10" stroke-linejoin="miter" fill="none" stroke="#000000" d="M1.4174 85.04042H-1.41719"/>
<path transform="matrix(1.00003,0,0,-1.00003,20.960213,228.27147)" d="M-20.74496 80.61696H-3.80826V89.46387H-20.74496Z" fill="#ffffff"/>
<use data-text="1" xlink:href="#font_2_82" transform="matrix(9.962899,0,0,-9.962899,1.2106171,146.43701)"/>
<use data-text="2" xlink:href="#font_2_107" transform="matrix(9.962899,0,0,-9.962899,6.19207,146.43701)"/>
<use data-text="0" xlink:href="#font_2_121" transform="matrix(9.962899,0,0,-9.962899,11.173515,146.43701)"/>
<path transform="matrix(1.00003,0,0,-1.00003,20.960213,228.27147)" stroke-width=".79701" stroke-linecap="butt" stroke-miterlimit="10" stroke-linejoin="miter" fill="none" stroke="#000000" d="M1.4174 113.38724H-1.41719"/>
<path transform="matrix(1.00003,0,0,-1.00003,20.960213,228.27147)" d="M-20.74496 108.96378H-3.80826V117.81069H-20.74496Z" fill="#ffffff"/>
<use data-text="1" xlink:href="#font_2_82" transform="matrix(9.962899,0,0,-9.962899,1.2106171,118.08916)"/>
<use data-text="6" xlink:href="#font_2_101" transform="matrix(9.962899,0,0,-9.962899,6.19207,118.08916)"/>
<use data-text="0" xlink:href="#font_2_121" transform="matrix(9.962899,0,0,-9.962899,11.173515,118.08916)"/>
<path transform="matrix(1.00003,0,0,-1.00003,20.960213,228.27147)" stroke-width=".79701" stroke-linecap="butt" stroke-miterlimit="10" stroke-linejoin="miter" fill="none" stroke="#000000" d="M1.4174 141.73404H-1.41719"/>
<path transform="matrix(1.00003,0,0,-1.00003,20.960213,228.27147)" d="M-20.74496 137.3106H-3.80826V146.1575H-20.74496Z" fill="#ffffff"/>
<use data-text="2" xlink:href="#font_2_107" transform="matrix(9.962899,0,0,-9.962899,1.2106171,89.7413)"/>
<use data-text="0" xlink:href="#font_2_121" transform="matrix(9.962899,0,0,-9.962899,6.19207,89.7413)"/>
<use data-text="0" xlink:href="#font_2_121" transform="matrix(9.962899,0,0,-9.962899,11.173515,89.7413)"/>
<path transform="matrix(1.00003,0,0,-1.00003,20.960213,228.27147)" stroke-width=".79701" stroke-linecap="butt" stroke-miterlimit="10" stroke-linejoin="miter" fill="none" stroke="#000000" d="M1.4174 170.08086H-1.41719"/>
<path transform="matrix(1.00003,0,0,-1.00003,20.960213,228.27147)" d="M-20.74496 165.60259H-3.80826V174.5591H-20.74496Z" fill="#ffffff"/>
<use data-text="2" xlink:href="#font_2_107" transform="matrix(9.962899,0,0,-9.962899,1.2106171,61.44847)"/>
<use data-text="4" xlink:href="#font_2_57" transform="matrix(9.962899,0,0,-9.962899,6.19207,61.44847)"/>
<use data-text="0" xlink:href="#font_2_121" transform="matrix(9.962899,0,0,-9.962899,11.173515,61.44847)"/>
<path transform="matrix(1.00003,0,0,-1.00003,20.960213,228.27147)" stroke-width=".79701" stroke-linecap="butt" stroke-miterlimit="10" stroke-linejoin="miter" fill="none" stroke="#000000" d="M1.4174 198.42766H-1.41719"/>
<path transform="matrix(1.00003,0,0,-1.00003,20.960213,228.27147)" d="M-20.74496 194.00421H-3.80826V202.85112H-20.74496Z" fill="#ffffff"/>
<use data-text="2" xlink:href="#font_2_107" transform="matrix(9.962899,0,0,-9.962899,1.2106171,33.04561)"/>
<use data-text="8" xlink:href="#font_2_51" transform="matrix(9.962899,0,0,-9.962899,6.19207,33.04561)"/>
<use data-text="0" xlink:href="#font_2_121" transform="matrix(9.962899,0,0,-9.962899,11.173515,33.04561)"/>
</svg>
