<svg xmlns="http://www.w3.org/2000/svg" xmlns:xlink="http://www.w3.org/1999/xlink" version="1.1" width="195" height="160" viewBox="0 0 195 160">
<defs>
<path id="font_1_1" d="M.33399964 .30233766C.33999635 .32835389 .36299134 .42037965 .43299867 .42037965 .43798829 .42037965 .46199037 .42037965 .48298646 .40734864 .45498658 .402359 .43499757 .37734986 .43499757 .35334779 .43499757 .33735658 .44599916 .31835938 .47299195 .31835938 .49499513 .31835938 .5269928 .3363495 .5269928 .37635804 .5269928 .42837525 .46798707 .4423828 .43399049 .4423828 .37599183 .4423828 .34098817 .38935853 .32899476 .36634828 .3039856 .43237306 .25 .4423828 .22099304 .4423828 .116989139 .4423828 .05999756 .3133545 .05999756 .28834535 .05999756 .27833558 .069992069 .27833558 .07199097 .27833558 .07998657 .27833558 .08299255 .28033448 .084991458 .28933717 .11898804 .39535523 .18499756 .42037965 .21899414 .42037965 .23799134 .42037965 .272995 .4113617 .272995 .35334779 .272995 .32235719 .2559967 .25532533 .21899414 .11528015 .20298767 .053268434 .16799927 .011245728 .12399292 .011245728 .117996219 .011245728 .09498596 .011245728 .07398987 .024276734 .09899902 .029266358 .12098694 .05027771 .12098694 .07827759 .12098694 .105270389 .09899902 .11328125 .083999637 .11328125 .053985597 .11328125 .0289917 .08728027 .0289917 .055267335 .0289917 .009246826 .07899475-.0107421879 .12298584-.0107421879 .18899536-.0107421879 .22499085 .059280397 .22799683 .0652771 .23999024 .028274537 .27598573-.0107421879 .33599855-.0107421879 .43899537-.0107421879 .49598695 .118270877 .49598695 .14328003 .49598695 .1532898 .4869995 .1532898 .48399354 .1532898 .47499085 .1532898 .47299195 .14929199 .47099305 .14228821 .43798829 .03527832 .36999513 .011245728 .33799745 .011245728 .29899598 .011245728 .2829895 .043273927 .2829895 .07727051 .2829895 .09927368 .2889862 .121276859 .2999878 .16529846L.33399964 .30233766Z"/>
<path id="font_1_2" d="M.48599244 .38136292C.48999024 .39537049 .48999024 .39736939 .48999024 .40437318 .48999024 .42237855 .47599793 .43138124 .46099855 .43138124 .45098878 .43138124 .43499757 .42536927 .42599488 .41036988 .42399598 .405365 .41600038 .37435914 .4119873 .35635377 .40499879 .33035279 .397995 .30334474 .3919983 .27633668L.34700013 .09628296C.34298707 .08126831 .2999878 .011245728 .23399353 .011245728 .18299866 .011245728 .17199707 .055267335 .17199707 .0922699 .17199707 .1382904 .18899536 .20030213 .22299195 .28833009 .23899842 .3293457 .24299622 .3403473 .24299622 .36035157 .24299622 .405365 .21099854 .4423828 .16099549 .4423828 .06599426 .4423828 .0289917 .29733277 .0289917 .28833009 .0289917 .27833558 .038986207 .27833558 .040985109 .27833558 .050994874 .27833558 .051986696 .28033448 .056991579 .29634095 .083999637 .3903656 .12399292 .42037965 .1579895 .42037965 .1659851 .42037965 .18299866 .42037965 .18299866 .3883667 .18299866 .36335755 .17298889 .3373413 .1659851 .31834413 .12599182 .21231079 .10798645 .1552887 .10798645 .10827637 .10798645 .019256592 .17098999-.0107421879 .22999573-.0107421879 .2689972-.0107421879 .30299378 .0062561037 .33099366 .03425598 .31799317-.017745972 .30599977-.06674194 .2659912-.11973572 .23999024-.15385437 .20199585-.18309021 .1559906-.18309021 .14199829-.18309021 .09700012-.18005371 .07998657-.14074707 .09599304-.14074707 .10899353-.14074707 .12298584-.1287384 .1329956-.11973572 .14299011-.10673523 .14299011-.08773804 .14299011-.056747438 .115997318-.052734376 .10598755-.052734376 .08299255-.052734376 .049987794-.068740848 .049987794-.11773682 .049987794-.16796875 .09399414-.20507813 .1559906-.20507813 .25898744-.20507813 .3619995-.11373901 .3899994-.00074768069L.48599244 .38136292Z"/>
</defs>
<path transform="matrix(1.00002,0,0,-1.00006,129.17429,86.98944)" stroke-width=".3985" stroke-linecap="butt" stroke-miterlimit="10" stroke-linejoin="miter" fill="none" stroke="#cbcbcb" d="M-127.56062-70.867H42.5202M-127.56062-63.7803H42.5202M-127.56062-56.69362H42.5202M-127.56062-49.6069H42.5202M-127.56062-42.5202H42.5202M-127.56062-35.43349H42.5202M-127.56062-28.3468H42.5202M-127.56062-21.2601H42.5202M-127.56062-14.17339H42.5202M-127.56062-7.08669H42.5202M-127.56062 0H42.5202M-127.56062 7.08669H42.5202M-127.56062 14.17339H42.5202M-127.56062 21.2601H42.5202M-127.56062 28.3468H42.5202M-127.56062 35.43349H42.5202M-127.56062 42.5202H42.5202M-127.56062 49.6069H42.5202M-127.56062 56.69362H42.5202M-127.56062 63.7803H42.5202M-127.56062 70.86452H42.5202M-127.56062-70.867V70.867M-106.30052-70.867V70.867M-85.04042-70.867V70.867M-63.7803-70.867V70.867M-42.5202-70.867V70.867M-21.2601-70.867V70.867M0-70.867V70.867M21.2601-70.867V70.867M42.51274-70.867V70.867M42.5202 70.867"/>
<path transform="matrix(1.00002,0,0,-1.00006,129.17429,86.98944)" stroke-width=".79701" stroke-linecap="butt" stroke-miterlimit="10" stroke-linejoin="miter" fill="none" stroke="#000000" d="M-127.56062 0H53.84178"/>
<path transform="matrix(1.00002,0,0,-1.00006,183.01715,86.98944)" d="M1.0361 0C-.25902 .25902-1.55415 .77707-3.1083 1.68365-1.55415 .51805-1.55415-.51805-3.1083-1.68365-1.55415-.77707-.25902-.25902 1.0361 0Z"/>
<path transform="matrix(1.00002,0,0,-1.00006,183.01715,86.98944)" stroke-width=".79701" stroke-linecap="butt" stroke-linejoin="round" fill="none" stroke="#000000" d="M1.0361 0C-.25902 .25902-1.55415 .77707-3.1083 1.68365-1.55415 .51805-1.55415-.51805-3.1083-1.68365-1.55415-.77707-.25902-.25902 1.0361 0Z"/>
<use data-text="x" xlink:href="#font_1_1" transform="matrix(9.962799,0,0,-9.963197,188.17047,89.13457)"/>
<path transform="matrix(1.00002,0,0,-1.00006,129.17429,86.98944)" stroke-width=".79701" stroke-linecap="butt" stroke-miterlimit="10" stroke-linejoin="miter" fill="none" stroke="#000000" d="M0-70.867V73.68446"/>
<path transform="matrix(0,-1.00006,-1.00002,-0,129.17429,13.30056)" d="M1.0361 0C-.25902 .25902-1.55415 .77707-3.1083 1.68365-1.55415 .51805-1.55415-.51805-3.1083-1.68365-1.55415-.77707-.25902-.25902 1.0361 0Z"/>
<path transform="matrix(0,-1.00006,-1.00002,-0,129.17429,13.30056)" stroke-width=".79701" stroke-linecap="butt" stroke-linejoin="round" fill="none" stroke="#000000" d="M1.0361 0C-.25902 .25902-1.55415 .77707-3.1083 1.68365-1.55415 .51805-1.55415-.51805-3.1083-1.68365-1.55415-.77707-.25902-.25902 1.0361 0Z"/>
<use data-text="y" xlink:href="#font_1_2" transform="matrix(9.962799,0,0,-9.963197,126.55323,6.2095949)"/>
<path transform="matrix(1.00002,0,0,-1.00006,129.17429,86.98944)" stroke-width="1.19553" stroke-linecap="butt" stroke-miterlimit="10" stroke-linejoin="miter" fill="none" stroke="#ff0000" d="M-126.58904-70.85329C-126.58904-70.85329-125.55495-66.1466-125.15778-64.41614-124.76059-62.68567-124.12367-60.00192-123.7265-58.38126-123.32935-56.76059-122.69241-54.24991-122.29523-52.73544-121.89806-51.221-121.26114-48.8779-120.86397-47.46605-120.4668-46.05421-119.82986-43.87273-119.4327-42.55989-119.03552-41.24706-118.3986-39.22153-118.00143-38.00407-117.60426-36.78662-116.96733-34.91096-116.57016-33.78531-116.17299-32.65965-115.53606-30.9285-115.13889-29.89107-114.74171-28.85364-114.1048-27.26106-113.70763-26.30824-113.31044-25.35542-112.67351-23.8956-112.27635-23.02377-111.87918-22.15193-111.24226-20.81909-110.84508-20.02466-110.4479-19.23022-109.81097-18.01868-109.41382-17.29805-109.01665-16.57741-108.37971-15.48128-107.98254-14.83084-107.58539-14.18042-106.94846-13.19402-106.55128-12.6102-106.1541-12.02638-105.51718-11.1439-105.12001-10.62312-104.72285-10.10231-104.08592-9.31804-103.68874-8.85663-103.29156-8.39522-102.65465-7.70319-102.25748-7.29755-101.8603-6.89192-101.22337-6.28651-100.8262-5.9331-100.42903-5.57971-99.79211-5.05522-99.39494-4.75044-98.99777-4.44565-98.36084-3.99617-97.96367-3.73634-97.5665-3.47655-96.92957-3.0963-96.53241-2.87788-96.13524-2.65945-95.4983-2.34274-95.10114-2.16214-94.70395-1.98152-94.06703-1.72256-93.66988-1.57614-93.2727-1.42975-92.63577-1.22275-92.23859-1.10695-91.84142-.99117-91.2045-.83037-90.80734-.74158-90.41016-.65277-89.77322-.5323-89.37605-.4669-88.9789-.4015-88.34198-.31581-87.9448-.2702-87.54762-.22461-86.91069-.1677-86.51352-.13829-86.11636-.10889-85.47943-.07507-85.08226-.05827-84.68509-.04146-84.04816-.02496-83.65099-.01717-83.25381-.00937-82.6169-.00441-82.21973-.00204-81.82256 .0003-81.18562-.00055-80.78844 0-80.39128 .00055-79.75436-.0003-79.3572 .00204-78.96 .00441-78.32307 .00937-77.92592 .01717-77.52875 .02496-76.89183 .04146-76.49464 .05827-76.09747 .07507-75.46054 .10889-75.06339 .13829-74.66621 .1677-74.02928 .22461-73.63211 .2702-73.23494 .31581-72.598 .4015-72.20085 .4669-71.80367 .5323-71.16675 .65277-70.76958 .74158-70.3724 .83037-69.73547 .99117-69.3383 1.10695-68.94113 1.22275-68.30421 1.42975-67.90704 1.57614-67.50987 1.72256-66.87294 1.98152-66.47577 2.16214-66.0786 2.34274-65.44168 2.65945-65.0445 2.87788-64.64734 3.0963-64.0104 3.47655-63.61324 3.73634-63.21606 3.99617-62.57913 4.44565-62.18196 4.75044-61.7848 5.05522-61.14787 5.57971-60.7507 5.9331-60.35352 6.28651-59.7166 6.89192-59.31943 7.29755-58.92227 7.70319-58.28534 8.39522-57.88815 8.85663-57.49098 9.31804-56.85406 10.10231-56.45691 10.62312-56.05972 11.1439-55.42279 12.02638-55.02562 12.6102-54.62845 13.19402-53.99153 14.18042-53.59436 14.83084-53.19719 15.48128-52.56026 16.57741-52.16309 17.29805-51.76591 18.01868-51.12898 19.23022-50.73183 20.02466-50.33466 20.81909-49.69772 22.15193-49.30055 23.02377-48.90337 23.8956-48.26645 25.35542-47.8693 26.30824-47.47212 27.26106-46.83519 28.85364-46.438 29.89107-46.04085 30.9285-45.40393 32.65965-45.00676 33.78531-44.60957 34.91096-43.97264 36.78662-43.57547 38.00407-43.17831 39.22153-42.5414 41.24706-42.14421 42.55989-41.74704 43.87273-41.1101 46.05421-40.71294 47.46605-40.31578 48.8779-39.67885 51.221-39.28168 52.73544-38.8845 54.24991-38.24757 56.76059-37.8504 58.38126-37.45323 60.00192-36.81631 62.68567-36.41914 64.41614-36.02197 66.1466-34.98787 70.85329-34.98787 70.85329"/>
</svg>
