<svg xmlns="http://www.w3.org/2000/svg" xmlns:xlink="http://www.w3.org/1999/xlink" version="1.1" width="194" height="137" viewBox="0 0 194 137">
<defs>
<path id="font_1_2" d="M.08799744 .059265138C.084991458 .044265748 .07899475 .021255494 .07899475 .01625061 .07899475-.0017547608 .09298706-.0107421879 .10798645-.0107421879 .11999512-.0107421879 .13798523-.002746582 .14498902 .01725769 .14698792 .021255494 .18099976 .15730286 .18499756 .17530823 .19299317 .20831299 .21099854 .27833558 .21699524 .30534364 .22099304 .31835938 .24899292 .36535646 .272995 .38734437 .2809906 .39434815 .30999757 .42037965 .35299684 .42037965 .3789978 .42037965 .3939972 .4083557 .394989 .4083557 .36499024 .40335084 .34298707 .37934876 .34298707 .35334779 .34298707 .33735658 .35398866 .31835938 .3809967 .31835938 .4079895 .31835938 .43598939 .34135438 .43598939 .37734986 .43598939 .41235353 .4039917 .4423828 .35299684 .4423828 .28799439 .4423828 .24398804 .39335633 .22499085 .36535646 .21699524 .4103546 .18099976 .4423828 .13398743 .4423828 .08799744 .4423828 .068984989 .40335084 .05999756 .38534547 .041992189 .35134889 .0289917 .29133607 .0289917 .28834535 .0289917 .27833558 .038986207 .27833558 .040985109 .27833558 .050994874 .27833558 .051986696 .27934266 .057998659 .30134584 .07499695 .37234498 .09498596 .42037965 .1309967 .42037965 .147995 .42037965 .1619873 .41235353 .1619873 .37435914 .1619873 .35334779 .15899658 .3423462 .1459961 .29034425L.08799744 .059265138Z"/>
<path id="font_1_1" d="M.7559967 .577652C.7659912 .61763 .7839966 .64860537 .8639984 .6516113 .86898806 .6516113 .8809967 .65260317 .8809967 .6716156 .8809967 .6726074 .8809967 .6826172 .8679962 .6826172 .83499148 .6826172 .7999878 .6796112 .7669983 .6796112 .73298647 .6796112 .69799807 .6826172 .6649933 .6826172 .6589966 .6826172 .6469879 .6826172 .6469879 .6626129 .6469879 .6516113 .6569977 .6516113 .6649933 .6516113 .7220001 .65060427 .73298647 .6296234 .73298647 .6076355 .73298647 .6046295 .73098757 .5896454 .7299957 .5866394L.6179962 .141922 .39698792 .66360476C.3889923 .6816101 .3880005 .6826172 .36499024 .6826172H.23098755C.21099854 .6826172 .20199585 .6826172 .20199585 .6626129 .20199585 .6516113 .21099854 .6516113 .22999573 .6516113 .23498535 .6516113 .2979889 .6516113 .2979889 .64260867L.1639862 .10594177C.1539917 .065963748 .13699341 .033996583 .055999757 .0309906 .049987794 .0309906 .038986207 .02999878 .038986207 .010986328 .038986207 .0039978029 .04399109 0 .051986696 0 .083999637 0 .11898804 .0029907227 .1519928 .0029907227 .18598938 .0029907227 .22200012 0 .25498963 0 .2599945 0 .272995 0 .272995 .019989014 .272995 .02999878 .2639923 .0309906 .25299073 .0309906 .19499207 .032989503 .18699646 .054977418 .18699646 .07496643 .18699646 .081954959 .18798828 .08695984 .19099427 .09794617L.32299806 .6256256C.32699586 .6196289 .32699586 .61763 .33198548 .6076355L.58099368 .018997193C.58799746 .0019989014 .59098818 0 .59999087 0 .61099246 0 .61099246 .0029907227 .6159973 .020996094L.7559967 .577652Z"/>
<path id="font_2_82" d="M.4189911 0V.0309906H.3869934C.29699708 .0309906 .2939911 .041992189 .2939911 .07902527V.64012148C.2939911 .6640167 .2939911 .6660156 .2709961 .6660156 .20899964 .60227969 .12098694 .60227969 .08898926 .60227969V.57128909C.10899353 .57128909 .16799927 .57128909 .21998596 .5972748V.07902527C.21998596 .042999269 .21699524 .0309906 .1269989 .0309906H.09498596V0C.12998963 .0029907227 .21699524 .0029907227 .25698854 .0029907227 .29699708 .0029907227 .38398744 .0029907227 .4189911 0Z"/>
<path id="font_2_107" d="M.44898988 .17396546H.42399598C.4189911 .14398194 .4119873 .099990848 .4019928 .084991458 .394989 .07699585 .32899476 .07699585 .30699159 .07699585H.1269989L.23298645 .17996216C.3889923 .31803895 .44898988 .37210084 .44898988 .47216798 .44898988 .5860901 .35899354 .6660156 .23699951 .6660156 .12399292 .6660156 .049987794 .57411196 .049987794 .48516847 .049987794 .4291687 .099990848 .4291687 .102996829 .4291687 .11999512 .4291687 .15499878 .44117738 .15499878 .48217774 .15499878 .5081787 .13699341 .5341797 .101989749 .5341797 .09399414 .5341797 .09199524 .5341797 .08898926 .5331726 .11199951 .59806826 .1659851 .63500979 .22399903 .63500979 .31498719 .63500979 .35798646 .5541382 .35798646 .47216798 .35798646 .39196778 .30799867 .31297303 .25299073 .25097657L.06098938 .036987306C.049987794 .025985718 .049987794 .023986817 .049987794 0H.42099L.44898988 .17396546Z"/>
<path id="font_2_106" d="M.45700074 .17037964C.45700074 .252594 .3939972 .33088685 .2899933 .35191346 .37199403 .37893678 .42999269 .4490509 .42999269 .52809146 .42999269 .6100464 .34199525 .6660156 .24598694 .6660156 .14498902 .6660156 .068984989 .60606387 .068984989 .53009036 .068984989 .49710084 .09098816 .47808839 .11999512 .47808839 .15098572 .47808839 .17098999 .50009158 .17098999 .5290985 .17098999 .57910159 .12399292 .57910159 .10899353 .57910159 .13999939 .62802127 .20599365 .64100649 .24198914 .64100649 .2829895 .64100649 .33799745 .6190338 .33799745 .5290985 .33799745 .51708987 .33599855 .45906068 .30999757 .4149933 .27999879 .36691285 .24598694 .36390687 .22099304 .36291505 .21299744 .36190797 .18899536 .35990907 .18199158 .35990907 .17399597 .35890199 .16699219 .35791017 .16699219 .3479004 .16699219 .33691407 .17399597 .33691407 .19099427 .33691407H.23498535C.31698609 .33691407 .35398866 .2686615 .35398866 .17037964 .35398866 .034469606 .2849884 .0055389406 .24099732 .0055389406 .19799805 .0055389406 .12298584 .022491456 .08799744 .08137512 .12298584 .07637024 .1539917 .09837341 .1539917 .1363678 .1539917 .17237854 .1269989 .19238281 .09799194 .19238281 .07398987 .19238281 .041992189 .17837525 .041992189 .1343689 .041992189 .043441774 .1349945-.022460938 .24398804-.022460938 .3659973-.022460938 .45700074 .06838989 .45700074 .17037964Z"/>
<path id="font_2_57" d="M.47099305 .16503906V.19602967H.37098695V.6507721C.37098695 .6707611 .37098695 .6767578 .35499574 .6767578 .34599305 .6767578 .34298707 .6767578 .33499146 .6647644L.027999878 .19602967V.16503906H.2939911V.07800293C.2939911 .041992189 .2919922 .0309906 .21798706 .0309906H.19699097V0C.23799134 .0029907227 .2899933 .0029907227 .33198548 .0029907227 .37399293 .0029907227 .4269867 .0029907227 .46798707 0V.0309906H.44699098C.37298585 .0309906 .37098695 .041992189 .37098695 .07800293V.16503906H.47099305M.2999878 .19602967H.055999757L.2999878 .56881716V.19602967Z"/>
<path id="font_2_56" d="M.44898988 .20091248C.44898988 .31991578 .36698915 .41992188 .25898744 .41992188 .21099854 .41992188 .16799927 .4039154 .13198853 .36891175V.5641022C.1519928 .55778506 .18499756 .55078127 .21699524 .55078127 .33999635 .55078127 .4099884 .6418457 .4099884 .65493777 .4099884 .6609802 .40699769 .6660156 .3999939 .6660156 .3999939 .66607668 .39698792 .66607668 .3919983 .66308596 .37199403 .65408328 .32299806 .63378909 .2559967 .63378909 .21598816 .63409426 .16999817 .641098 .12298584 .6621094 .114990238 .6651001 .11099243 .6651001 .11099243 .6651001 .100997928 .66508486 .100997928 .657074 .100997928 .64108279V.3447113C.100997928 .3266449 .100997928 .31861878 .114990238 .31861878 .12199402 .31861878 .12399292 .32164 .12799073 .32765199 .13899231 .34371949 .17599488 .3979187 .25698854 .3979187 .30899049 .3979187 .33399964 .3517456 .34199525 .3336792 .35798646 .2965393 .3600006 .2574005 .3600006 .20721436 .3600006 .17218018 .3600006 .112197879 .33599855 .07032776 .31199647 .031448366 .2749939 .0055389406 .22898865 .0055389406 .1559906 .0055389406 .09899902 .05836487 .08198547 .1171875 .084991458 .11685181 .08799744 .115859989 .09899902 .115859989 .13198853 .115859989 .14898682 .14085388 .14898682 .16485596 .14898682 .18885803 .13198853 .21386719 .09899902 .21386719 .084991458 .21386719 .049987794 .2068634 .049987794 .16085816 .049987794 .07432556 .11898804-.022460938 .23098755-.022460938 .34700013-.022460938 .44898988 .07331848 .44898988 .20019531V.20091248Z"/>
<path id="font_3_3" d="M.44898988 .20022583C.44898988 .3193512 .36698915 .41944886 .25898744 .41944886 .21099854 .41944886 .16799927 .40345765 .13198853 .36842347V.5637665C.1519928 .5577698 .18499756 .55078127 .21699524 .55078127 .33999635 .55078127 .4099884 .6417694 .4099884 .6547699 .4099884 .6607666 .40699769 .6657715 .3999939 .6657715 .39898683 .6657715 .39698792 .6657715 .3919983 .66278079 .37199403 .6537781 .32299806 .6337738 .2559967 .6337738 .21598816 .6337738 .16999817 .6407776 .12298584 .6617737 .114990238 .66477969 .11299133 .66477969 .11099243 .66477969 .100997928 .66477969 .100997928 .6567688 .100997928 .6407776V.34439088C.100997928 .32637025 .100997928 .31835938 .114990238 .31835938 .12199402 .31835938 .12399292 .32136537 .12799073 .32736207 .13899231 .3433838 .17599488 .39746095 .25698854 .39746095 .30899049 .39746095 .33399964 .35139466 .34199525 .33337403 .35798646 .29632569 .3600006 .25727845 .3600006 .20722962 .3600006 .17222595 .3600006 .11222839 .33599855 .07035828 .31199647 .031463624 .2749939 .0055389406 .22898865 .0055389406 .1559906 .0055389406 .09899902 .058380128 .08198547 .11723328 .084991458 .1162262 .08799744 .115234378 .09899902 .115234378 .13198853 .115234378 .14898682 .14022827 .14898682 .16423035 .14898682 .18823242 .13198853 .21322632 .09899902 .21322632 .084991458 .21322632 .049987794 .20622254 .049987794 .16023255 .049987794 .07434082 .11898804-.022460938 .23098755-.022460938 .34700013-.022460938 .44898988 .073349 .44898988 .20022583Z"/>
<path id="font_3_1" d="M.45999146 .31976319C.45999146 .39982606 .45498658 .47988893 .41999818 .5539398 .37399293 .65000918 .2919922 .6660156 .25 .6660156 .18998719 .6660156 .116989139 .64001467 .07598877 .54693606 .04399109 .47789 .038986207 .39982606 .038986207 .31976319 .038986207 .24472046 .042999269 .15464783 .083999637 .07859802 .1269989-.0024719239 .19999695-.022460938 .24899292-.022460938 .30299378-.022460938 .3789978-.0014648438 .4229889 .09359741 .45498658 .16265869 .45999146 .2407074 .45999146 .31976319M.24899292-.00047302247C.20999146-.00047302247 .15098572 .024551392 .1329956 .12062073 .12199402 .18066406 .12199402 .2727356 .12199402 .3317871 .12199402 .39582826 .12199402 .46188355 .12998963 .5159149 .14898682 .63500979 .22399903 .64401248 .24899292 .64401248 .28199769 .64401248 .34799195 .6259918 .36698915 .52693179 .3769989 .47088624 .3769989 .39482118 .3769989 .3317871 .3769989 .25672914 .3769989 .18867493 .3659973 .12461853 .35099793 .029556275 .2939911-.00047302247 .24899292-.00047302247Z"/>
<path id="font_3_2" d="M.2939911 .64004519C.2939911 .66400149 .2939911 .6660156 .2709961 .6660156 .20899964 .60227969 .12098694 .60227969 .08898926 .60227969V.57128909C.10899353 .57128909 .16799927 .57128909 .21998596 .5972748V.07902527C.21998596 .042999269 .21699524 .0309906 .1269989 .0309906H.09498596V0C.12998963 .0029907227 .21699524 .0029907227 .25698854 .0029907227 .29699708 .0029907227 .38398744 .0029907227 .4189911 0V.0309906H.3869934C.29699708 .0309906 .2939911 .041992189 .2939911 .07902527V.64004519Z"/>
</defs>
<path transform="matrix(1.00006,0,0,-1.00002,31.79824,124.12624)" stroke-width=".3985" stroke-linecap="butt" stroke-miterlimit="10" stroke-linejoin="miter" fill="none" stroke="#00aeef" d="M0 0H141.73404M0 7.08669H141.73404M0 14.17339H141.73404M0 21.2601H141.73404M0 28.3468H141.73404M0 35.43349H141.73404M0 42.5202H141.73404M0 49.6069H141.73404M0 56.69362H141.73404M0 63.7803H141.73404M0 70.867H141.73404M0 77.95372H141.73404M0 85.04042H141.73404M0 92.1271H141.73404M0 99.21382H141.73404M0 106.29803H141.73404M0 0V106.30052M28.3468 0V106.30052M56.69362 0V106.30052M85.04042 0V106.30052M113.38724 0V106.30052M141.72409 0V106.30052M141.73404 106.30052"/>
<path transform="matrix(1.00006,0,0,-1.00002,31.79824,124.12624)" stroke-width=".79701" stroke-linecap="butt" stroke-miterlimit="10" stroke-linejoin="miter" fill="none" stroke="#000000" d="M0 0H151.63799"/>
<path transform="matrix(1.00006,0,0,-1.00002,183.44532,124.12624)" d="M1.0361 0C-.25902 .25902-1.55415 .77707-3.1083 1.68365-1.55415 .51805-1.55415-.51805-3.1083-1.68365-1.55415-.77707-.25902-.25902 1.0361 0Z"/>
<path transform="matrix(1.00006,0,0,-1.00002,183.44532,124.12624)" stroke-width=".79701" stroke-linecap="butt" stroke-linejoin="round" fill="none" stroke="#000000" d="M1.0361 0C-.25902 .25902-1.55415 .77707-3.1083 1.68365-1.55415 .51805-1.55415-.51805-3.1083-1.68365-1.55415-.77707-.25902-.25902 1.0361 0Z"/>
<use data-text="r" xlink:href="#font_1_2" transform="matrix(9.963197,0,0,-9.962799,188.59964,126.271289)"/>
<path transform="matrix(1.00006,0,0,-1.00002,31.79824,124.12624)" stroke-width=".79701" stroke-linecap="butt" stroke-miterlimit="10" stroke-linejoin="miter" fill="none" stroke="#000000" d="M0 0V111.24391"/>
<path transform="matrix(0,-1.00002,-1.00006,-0,31.79824,12.880104)" d="M1.0361 0C-.25902 .25902-1.55415 .77707-3.1083 1.68365-1.55415 .51805-1.55415-.51805-3.1083-1.68365-1.55415-.77707-.25902-.25902 1.0361 0Z"/>
<path transform="matrix(0,-1.00002,-1.00006,-0,31.79824,12.880104)" stroke-width=".79701" stroke-linecap="butt" stroke-linejoin="round" fill="none" stroke="#000000" d="M1.0361 0C-.25902 .25902-1.55415 .77707-3.1083 1.68365-1.55415 .51805-1.55415-.51805-3.1083-1.68365-1.55415-.77707-.25902-.25902 1.0361 0Z"/>
<use data-text="N" xlink:href="#font_1_1" transform="matrix(9.963197,0,0,-9.962799,27.252968,7.7259066)"/>
<path transform="matrix(1.00006,0,0,-1.00002,31.79824,124.12624)" stroke-width=".3985" stroke-linecap="butt" stroke-miterlimit="10" stroke-linejoin="miter" fill="none" stroke="#000000" d="M28.3468 .7087V-.70859"/>
<use data-text="1" xlink:href="#font_2_82" transform="matrix(9.963197,0,0,-9.962799,57.655794,134.99047)"/>
<path transform="matrix(1.00006,0,0,-1.00002,31.79824,124.12624)" stroke-width=".3985" stroke-linecap="butt" stroke-miterlimit="10" stroke-linejoin="miter" fill="none" stroke="#000000" d="M56.69362 .7087V-.70859"/>
<use data-text="2" xlink:href="#font_2_107" transform="matrix(9.963197,0,0,-9.962799,86.004489,134.99047)"/>
<path transform="matrix(1.00006,0,0,-1.00002,31.79824,124.12624)" stroke-width=".3985" stroke-linecap="butt" stroke-miterlimit="10" stroke-linejoin="miter" fill="none" stroke="#000000" d="M85.04042 .7087V-.70859"/>
<use data-text="3" xlink:href="#font_2_106" transform="matrix(9.963197,0,0,-9.962799,114.353199,134.99047)"/>
<path transform="matrix(1.00006,0,0,-1.00002,31.79824,124.12624)" stroke-width=".3985" stroke-linecap="butt" stroke-miterlimit="10" stroke-linejoin="miter" fill="none" stroke="#000000" d="M113.38724 .7087V-.70859"/>
<use data-text="4" xlink:href="#font_2_57" transform="matrix(9.963197,0,0,-9.962799,142.7019,135.09946)"/>
<path transform="matrix(1.00006,0,0,-1.00002,31.79824,124.12624)" stroke-width=".3985" stroke-linecap="butt" stroke-miterlimit="10" stroke-linejoin="miter" fill="none" stroke="#000000" d="M141.73404 .7087V-.70859"/>
<use data-text="5" xlink:href="#font_2_56" transform="matrix(9.963197,0,0,-9.962799,171.04959,134.99047)"/>
<path transform="matrix(1.00006,0,0,-1.00002,31.79824,124.12624)" stroke-width=".3985" stroke-linecap="butt" stroke-miterlimit="10" stroke-linejoin="miter" fill="none" stroke="#000000" d="M2.83484 35.43349H-2.83441"/>
<use data-text="5" xlink:href="#font_3_3" transform="matrix(9.963197,0,0,-9.962799,5.5166628,91.9026)"/>
<use data-text="0" xlink:href="#font_3_1" transform="matrix(9.963197,0,0,-9.962799,10.498268,91.9026)"/>
<use data-text="0" xlink:href="#font_3_1" transform="matrix(9.963197,0,0,-9.962799,15.479858,91.9026)"/>
<use data-text="0" xlink:href="#font_3_1" transform="matrix(9.963197,0,0,-9.962799,20.461441,91.9026)"/>
<path transform="matrix(1.00006,0,0,-1.00002,31.79824,124.12624)" stroke-width=".3985" stroke-linecap="butt" stroke-miterlimit="10" stroke-linejoin="miter" fill="none" stroke="#000000" d="M2.83484 70.867H-2.83441"/>
<use data-text="1" xlink:href="#font_3_2" transform="matrix(9.963197,0,0,-9.962799,.5353699,56.467889)"/>
<use data-text="0" xlink:href="#font_3_1" transform="matrix(9.963197,0,0,-9.962799,5.5169756,56.467889)"/>
<use data-text="0" xlink:href="#font_3_1" transform="matrix(9.963197,0,0,-9.962799,10.498566,56.467889)"/>
<use data-text="0" xlink:href="#font_3_1" transform="matrix(9.963197,0,0,-9.962799,15.480148,56.467889)"/>
<use data-text="0" xlink:href="#font_3_1" transform="matrix(9.963197,0,0,-9.962799,20.461747,56.467889)"/>
<path transform="matrix(1.00006,0,0,-1.00002,31.79824,124.12624)" stroke-width=".3985" stroke-linecap="butt" stroke-miterlimit="10" stroke-linejoin="miter" fill="none" stroke="#000000" d="M2.83484 106.30052H-2.83441"/>
<use data-text="1" xlink:href="#font_3_2" transform="matrix(9.963197,0,0,-9.962799,.5353699,21.03418)"/>
<use data-text="5" xlink:href="#font_3_3" transform="matrix(9.963197,0,0,-9.962799,5.5169756,21.03418)"/>
<use data-text="0" xlink:href="#font_3_1" transform="matrix(9.963197,0,0,-9.962799,10.498566,21.03418)"/>
<use data-text="0" xlink:href="#font_3_1" transform="matrix(9.963197,0,0,-9.962799,15.480148,21.03418)"/>
<use data-text="0" xlink:href="#font_3_1" transform="matrix(9.963197,0,0,-9.962799,20.461747,21.03418)"/>
<path transform="matrix(1.00006,0,0,-1.00002,31.79824,124.12624)" stroke-width="1.19553" stroke-linecap="butt" stroke-miterlimit="10" stroke-linejoin="miter" fill="none" stroke="#ff0000" d="M0 0C0 0 1.60005 6.0926 2.21458 7.71538 2.82913 9.33815 3.81464 10.70738 4.42918 11.69582 5.04372 12.68423 6.02924 14.01514 6.64377 14.83928 7.25832 15.6634 8.24382 16.89702 8.85837 17.63564 9.4729 18.37425 10.45842 19.48901 11.07297 20.16273 11.6875 20.83647 12.67302 21.8654 13.28755 22.49142 13.9021 23.11745 14.8876 24.08607 15.50215 24.67465 16.11668 25.26323 17.1022 26.17639 17.71674 26.73354 18.33128 27.2907 19.3168 28.1591 19.93134 28.69023 20.54588 29.22134 21.53139 30.05258 22.14594 30.56151 22.76047 31.07042 23.74599 31.86838 24.36052 32.35815 24.97507 32.84795 25.96057 33.61902 26.57512 34.09155 27.18965 34.56407 28.17517 35.30632 28.78972 35.76385 29.40425 36.22137 30.38977 36.94432 31.0043 37.3891 31.61885 37.8339 32.60435 38.53671 33.2189 38.96948 33.83344 39.40227 34.81895 40.08658 35.43349 40.50826 36.04803 40.92992 37.03355 41.59715 37.64809 42.00862 38.26263 42.42007 39.24814 43.07175 39.86269 43.47383 40.47722 43.87593 41.46274 44.51309 42.07727 44.90662 42.69182 45.30016 43.67732 45.92447 44.29187 46.31021 44.9064 46.69594 45.89192 47.30875 46.50647 47.68675 47.121 48.06477 48.10654 48.66393 48.72107 49.03465 49.33562 49.4054 50.32112 49.9944 50.93567 50.35876 51.5502 50.72311 52.53572 51.30264 53.15025 51.66069 53.7648 52.01875 54.7503 52.58614 55.36485 52.93939 55.97939 53.29263 56.9649 53.85872 57.57945 54.20673 58.19398 54.55472 59.1795 55.10587 59.79404 55.44757 60.40858 55.78928 61.39409 56.33229 62.00864 56.66948 62.62317 57.0067 63.60869 57.54535 64.22322 57.8779 64.83777 58.21045 65.82329 58.73856 66.43782 59.06628 67.05237 59.39404 68.03787 59.91653 68.65242 60.2401 69.26695 60.56364 70.25247 61.07887 70.867 61.39821 71.48155 61.71756 72.46706 62.22615 73.0816 62.54173 73.69614 62.85733 74.68166 63.36082 75.2962 63.67282 75.91074 63.98482 76.89626 64.48222 77.51079 64.7904 78.12534 65.09856 79.11084 65.5895 79.72539 65.8939 80.33992 66.19833 81.32544 66.68317 81.93997 66.98444 82.55452 67.2857 83.54004 67.76668 84.15457 68.06525 84.76912 68.3638 85.75462 68.84099 86.36917 69.1363 86.9837 69.43166 87.96922 69.90169 88.58376 70.19386 89.1983 70.48607 90.1838 70.95297 90.79836 71.24223 91.41289 71.53151 92.3984 71.99237 93.01295 72.27872 93.62749 72.56503 94.61302 73.02257 95.22755 73.30598 95.8421 73.5894 96.8276 74.04005 97.44215 74.32137 98.05669 74.60268 99.0422 75.05482 99.65674 75.3335 100.27129 75.61218 101.2568 76.05397 101.87134 76.32996 102.48587 76.60596 103.47139 77.04897 104.08594 77.32263 104.70047 77.5963 105.68599 78.03116 106.30052 78.30234 106.91507 78.57352 107.90057 79.00822 108.51512 79.27718 109.12965 79.54611 110.11517 79.97359 110.7297 80.24066 111.34425 80.5077 112.32977 80.93535 112.9443 81.20197 113.55885 81.46857 114.54436 81.89792 115.1589 82.1622 115.77344 82.42648 116.75896 82.84601 117.37349 83.10677 117.98804 83.36752 118.97354 83.7824 119.58809 84.04158 120.20262 84.30075 121.18814 84.71754 121.80269 84.97478 122.41722 85.23201 123.40274 85.64026 124.01727 85.89555 124.63182 86.15082 125.61732 86.56076 126.23187 86.8147 126.8464 87.0686 127.83192 87.47388 128.44646 87.72571 129.061 87.97755 130.04653 88.37968 130.66106 88.62971 131.2756 88.87976 132.26111 89.27933 132.87566 89.52777 133.49019 89.77623 134.47571 90.17355 135.09024 90.42043 135.70479 90.66731 136.69029 91.06204 137.30484 91.30713 137.91938 91.5522 138.90489 91.9433 139.51944 92.18681 140.13397 92.43031 141.73404 93.06215 139.99207 92.37428"/>
<path transform="matrix(.9301058,-.36726738,-.36728204,-.9300686,171.7987,31.750115)" d="M1.27522 0C-.31879 .31879-1.91284 .9564-3.8257 2.07224-1.91284 .6376-1.91284-.6376-3.8257-2.07224-1.91284-.9564-.31879-.31879 1.27522 0Z" fill="#ff0000"/>
<path transform="matrix(.9301058,-.36726738,-.36728204,-.9300686,171.7987,31.750115)" stroke-width="1.19553" stroke-linecap="butt" stroke-linejoin="round" fill="none" stroke="#ff0000" d="M1.27522 0C-.31879 .31879-1.91284 .9564-3.8257 2.07224-1.91284 .6376-1.91284-.6376-3.8257-2.07224-1.91284-.9564-.31879-.31879 1.27522 0Z"/>
</svg>
