<svg xmlns="http://www.w3.org/2000/svg" xmlns:xlink="http://www.w3.org/1999/xlink" version="1.1" width="141" height="208" viewBox="0 0 141 208">
<defs>
<path id="font_1_1" d="M.33399964 .30233766C.33999635 .32835389 .36299134 .42037965 .43299867 .42037965 .43798829 .42037965 .46199037 .42037965 .48298646 .40734864 .45498658 .402359 .43499757 .37734986 .43499757 .35334779 .43499757 .33735658 .44599916 .31835938 .47299195 .31835938 .49499513 .31835938 .5269928 .3363495 .5269928 .37635804 .5269928 .42837525 .46798707 .4423828 .43399049 .4423828 .37599183 .4423828 .34098817 .38935853 .32899476 .36634828 .3039856 .43237306 .25 .4423828 .22099304 .4423828 .116989139 .4423828 .05999756 .3133545 .05999756 .28834535 .05999756 .27833558 .069992069 .27833558 .07199097 .27833558 .07998657 .27833558 .08299255 .28033448 .084991458 .28933717 .11898804 .39535523 .18499756 .42037965 .21899414 .42037965 .23799134 .42037965 .272995 .4113617 .272995 .35334779 .272995 .32235719 .2559967 .25532533 .21899414 .11528015 .20298767 .053268434 .16799927 .011245728 .12399292 .011245728 .117996219 .011245728 .09498596 .011245728 .07398987 .024276734 .09899902 .029266358 .12098694 .05027771 .12098694 .07827759 .12098694 .105270389 .09899902 .11328125 .083999637 .11328125 .053985597 .11328125 .0289917 .08728027 .0289917 .055267335 .0289917 .009246826 .07899475-.0107421879 .12298584-.0107421879 .18899536-.0107421879 .22499085 .059280397 .22799683 .0652771 .23999024 .028274537 .27598573-.0107421879 .33599855-.0107421879 .43899537-.0107421879 .49598695 .118270877 .49598695 .14328003 .49598695 .1532898 .4869995 .1532898 .48399354 .1532898 .47499085 .1532898 .47299195 .14929199 .47099305 .14228821 .43798829 .03527832 .36999513 .011245728 .33799745 .011245728 .29899598 .011245728 .2829895 .043273927 .2829895 .07727051 .2829895 .09927368 .2889862 .121276859 .2999878 .16529846L.33399964 .30233766Z"/>
<path id="font_1_2" d="M.48599244 .38136292C.48999024 .39537049 .48999024 .39736939 .48999024 .40437318 .48999024 .42237855 .47599793 .43138124 .46099855 .43138124 .45098878 .43138124 .43499757 .42536927 .42599488 .41036988 .42399598 .405365 .41600038 .37435914 .4119873 .35635377 .40499879 .33035279 .397995 .30334474 .3919983 .27633668L.34700013 .09628296C.34298707 .08126831 .2999878 .011245728 .23399353 .011245728 .18299866 .011245728 .17199707 .055267335 .17199707 .0922699 .17199707 .1382904 .18899536 .20030213 .22299195 .28833009 .23899842 .3293457 .24299622 .3403473 .24299622 .36035157 .24299622 .405365 .21099854 .4423828 .16099549 .4423828 .06599426 .4423828 .0289917 .29733277 .0289917 .28833009 .0289917 .27833558 .038986207 .27833558 .040985109 .27833558 .050994874 .27833558 .051986696 .28033448 .056991579 .29634095 .083999637 .3903656 .12399292 .42037965 .1579895 .42037965 .1659851 .42037965 .18299866 .42037965 .18299866 .3883667 .18299866 .36335755 .17298889 .3373413 .1659851 .31834413 .12599182 .21231079 .10798645 .1552887 .10798645 .10827637 .10798645 .019256592 .17098999-.0107421879 .22999573-.0107421879 .2689972-.0107421879 .30299378 .0062561037 .33099366 .03425598 .31799317-.017745972 .30599977-.06674194 .2659912-.11973572 .23999024-.15385437 .20199585-.18309021 .1559906-.18309021 .14199829-.18309021 .09700012-.18005371 .07998657-.14074707 .09599304-.14074707 .10899353-.14074707 .12298584-.1287384 .1329956-.11973572 .14299011-.10673523 .14299011-.08773804 .14299011-.056747438 .115997318-.052734376 .10598755-.052734376 .08299255-.052734376 .049987794-.068740848 .049987794-.11773682 .049987794-.16796875 .09399414-.20507813 .1559906-.20507813 .25898744-.20507813 .3619995-.11373901 .3899994-.00074768069L.48599244 .38136292Z"/>
<path id="font_2_1" d="M.6589966 .23046875C.6759949 .23046875 .69400027 .23046875 .69400027 .25045777 .69400027 .27046205 .6759949 .27046205 .6589966 .27046205H.117996219C.100997928 .27046205 .08299255 .27046205 .08299255 .25045777 .08299255 .23046875 .100997928 .23046875 .117996219 .23046875H.6589966Z"/>
<path id="font_3_1" d="M.2939911 .16503906V.07800293C.2939911 .041992189 .2919922 .0309906 .21798706 .0309906H.19699097V0C.23799134 .0029907227 .2899933 .0029907227 .33198548 .0029907227 .37399293 .0029907227 .4269867 .0029907227 .46798707 0V.0309906H.44699098C.37298585 .0309906 .37098695 .041992189 .37098695 .07800293V.16503906H.47099305V.19602967H.37098695V.65075686C.37098695 .67074587 .37098695 .6767578 .35499574 .6767578 .34599305 .6767578 .34298707 .6767578 .33499146 .66474917L.027999878 .19602967V.16503906H.2939911M.2999878 .19602967H.055999757L.2999878 .5688019V.19602967Z"/>
<path id="font_3_2" d="M.16299439 .4569702C.116989139 .486969 .11299133 .52098086 .11299133 .5379791 .11299133 .598999 .17799378 .64100649 .24899292 .64100649 .32199098 .64100649 .38598634 .58898928 .38598634 .51698306 .38598634 .45996095 .34700013 .4119568 .2869873 .37695313L.16299439 .4569702M.30899049 .36193849C.3809967 .3989563 .42999269 .45095826 .42999269 .51698306 .42999269 .6090088 .34098817 .6660156 .25 .6660156 .1499939 .6660156 .068984989 .59199526 .068984989 .49897767 .068984989 .4809723 .070999149 .43595887 .11299133 .38894654 .12399292 .37695313 .16099549 .35194398 .18598938 .33494569 .12799073 .30592347 .041992189 .24984741 .041992189 .15072632 .041992189 .04458618 .14399719-.022460938 .24899292-.022460938 .3619995-.022460938 .45700074 .06060791 .45700074 .16773987 .45700074 .20379639 .44599916 .24885559 .4079895 .2909088 .3889923 .31193543 .37298585 .3219452 .30899049 .36193849M.20899964 .3199463 .33198548 .24183655C.3600006 .2228241 .40699769 .19277954 .40699769 .13169861 .40699769 .05760193 .33198548 .0055389406 .25 .0055389406 .1639862 .0055389406 .09199524 .067611698 .09199524 .15072632 .09199524 .20880127 .12399292 .27288819 .20899964 .3199463Z"/>
<path id="font_4_85" d="M.33099366-.2400055C.33099366-.23701477 .33099366-.23500061 .31399537-.21800232 .18899536-.0920105 .15699768 .09700012 .15699768 .25 .15699768 .42399598 .19499207 .59799197 .31799317 .72299197 .33099366 .7350006 .33099366 .7369995 .33099366 .73999026 .33099366 .746994 .32699586 .75 .32099916 .75 .31098939 .75 .22099304 .6819916 .1619873 .5549927 .11099243 .44499208 .09899902 .33399964 .09899902 .25 .09899902 .17199707 .10998535 .050994874 .16499329-.06201172 .22499085-.18501282 .31098939-.25 .32099916-.25 .32699586-.25 .33099366-.24700928 .33099366-.2400055Z"/>
<path id="font_4_28" d="M.48298646 .08912659V.14511109H.45799256V.08912659C.45799256 .03112793 .43299867 .025131226 .42199708 .025131226 .3889923 .025131226 .3849945 .070129398 .3849945 .07511902V.27508546C.3849945 .31707765 .3849945 .3560791 .34899903 .39312745 .30999757 .43223573 .2599945 .4482422 .21199036 .4482422 .12998963 .4482422 .06098938 .40115357 .06098938 .335083 .06098938 .30508424 .08099365 .28808595 .10699463 .28808595 .1349945 .28808595 .15299988 .30807496 .15299988 .33407594 .15299988 .3460846 .147995 .37908937 .101989749 .38008119 .1289978 .41519166 .17799378 .426239 .20999146 .426239 .25898744 .426239 .31599427 .38710023 .31599427 .29808045V.26107789C.2649994 .25808717 .19499207 .25508119 .13198853 .22509766 .056991579 .19110108 .03199768 .13911438 .03199768 .09512329 .03199768 .014251709 .1289978-.0107421879 .19198609-.0107421879 .2579956-.0107421879 .3039856 .029251099 .32299806 .07624817 .32699586 .036132814 .35398866-.005859375 .40098573-.005859375 .42199708-.005859375 .48298646 .008132935 .48298646 .08912659M.31599427 .14013672C.31599427 .04525757 .24398804 .011245728 .19898987 .011245728 .1499939 .011245728 .10899353 .04624939 .10899353 .09625244 .10899353 .15124512 .15098572 .23425293 .31599427 .24024964V.14013672Z"/>
<path id="font_4_86" d="M.2889862 .25C.2889862 .32798768 .27799989 .44898988 .22299195 .56199648 .16299439 .68499758 .07699585 .75 .066986087 .75 .06098938 .75 .056991579 .74598696 .056991579 .73999026 .056991579 .7369995 .056991579 .7350006 .07598877 .71699526 .17399597 .6179962 .23098755 .45899964 .23098755 .25 .23098755 .07899475 .19400025-.09700012 .069992069-.2230072 .056991579-.23500061 .056991579-.23701477 .056991579-.2400055 .056991579-.2460022 .06098938-.25 .066986087-.25 .07699585-.25 .16699219-.18200684 .22599793-.055007936 .2769928 .054992677 .2889862 .16600037 .2889862 .25Z"/>
</defs>
<path transform="matrix(1.00009,0,0,-1.00005,62.847307,120.04134)" stroke-width=".3985" stroke-linecap="butt" stroke-miterlimit="10" stroke-linejoin="miter" fill="none" stroke="#00aeef" d="M-61.2292-61.2292H61.2292M-61.2292-40.81946H61.2292M-61.2292-20.40973H61.2292M-61.2292 0H61.2292M-61.2292 20.40973H61.2292M-61.2292 40.81946H61.2292M-61.2292 61.2292H61.2292M-61.2292 81.63893H61.2292M-61.2292 102.04507H61.2292M-61.2292-61.2292V102.04868M-40.81946-61.2292V102.04868M-20.40973-61.2292V102.04868M0-61.2292V102.04868M20.40973-61.2292V102.04868M40.81946-61.2292V102.04868M61.22562-61.2292V102.04868M61.2292 102.04868"/>
<path transform="matrix(1.00009,0,0,-1.00005,62.847307,120.04134)" stroke-width=".79701" stroke-linecap="butt" stroke-miterlimit="10" stroke-linejoin="miter" fill="none" stroke="#000000" d="M-61.2292 0H65.91757"/>
<path transform="matrix(1.00009,0,0,-1.00005,128.77082,120.04134)" d="M1.0361 0C-.25902 .25902-1.55415 .77707-3.1083 1.68365-1.55415 .51805-1.55415-.51805-3.1083-1.68365-1.55415-.77707-.25902-.25902 1.0361 0Z"/>
<path transform="matrix(1.00009,0,0,-1.00005,128.77082,120.04134)" stroke-width=".79701" stroke-linecap="butt" stroke-linejoin="round" fill="none" stroke="#000000" d="M1.0361 0C-.25902 .25902-1.55415 .77707-3.1083 1.68365-1.55415 .51805-1.55415-.51805-3.1083-1.68365-1.55415-.77707-.25902-.25902 1.0361 0Z"/>
<use data-text="x" xlink:href="#font_1_1" transform="matrix(9.963496,0,0,-9.963098,133.9247,122.18645)"/>
<path transform="matrix(1.00009,0,0,-1.00005,62.847307,120.04134)" stroke-width=".79701" stroke-linecap="butt" stroke-miterlimit="10" stroke-linejoin="miter" fill="none" stroke="#000000" d="M0-61.2292V106.73703"/>
<path transform="matrix(0,-1.00005,-1.00009,-0,62.847307,13.298981)" d="M1.0361 0C-.25902 .25902-1.55415 .77707-3.1083 1.68365-1.55415 .51805-1.55415-.51805-3.1083-1.68365-1.55415-.77707-.25902-.25902 1.0361 0Z"/>
<path transform="matrix(0,-1.00005,-1.00009,-0,62.847307,13.298981)" stroke-width=".79701" stroke-linecap="butt" stroke-linejoin="round" fill="none" stroke="#000000" d="M1.0361 0C-.25902 .25902-1.55415 .77707-3.1083 1.68365-1.55415 .51805-1.55415-.51805-3.1083-1.68365-1.55415-.77707-.25902-.25902 1.0361 0Z"/>
<use data-text="y" xlink:href="#font_1_2" transform="matrix(9.963496,0,0,-9.963098,60.226068,6.207657)"/>
<path transform="matrix(1.00009,0,0,-1.00005,62.847307,120.04134)" stroke-width=".3985" stroke-linecap="butt" stroke-miterlimit="10" stroke-linejoin="miter" fill="none" stroke="#000000" d="M-40.81946 1.02054V-1.02039"/>
<path transform="matrix(1.00009,0,0,-1.00005,62.847307,120.04134)" d="M-48.18085-12.45541H-33.45807V-3.2121802H-48.18085Z" fill="#ffffff"/>
<use data-text="&#x2212;" xlink:href="#font_2_1" transform="matrix(9.963496,0,0,-9.963098,15.658051,130.67087)"/>
<use data-text="4" xlink:href="#font_3_1" transform="matrix(9.963496,0,0,-9.963098,23.407746,130.67087)"/>
<path transform="matrix(1.00009,0,0,-1.00005,62.847307,120.04134)" stroke-width=".3985" stroke-linecap="butt" stroke-miterlimit="10" stroke-linejoin="miter" fill="none" stroke="#000000" d="M40.81946 1.02054V-1.02039"/>
<path transform="matrix(1.00009,0,0,-1.00005,62.847307,120.04134)" d="M37.33249-11.62517H44.306428V-3.2121897H37.33249Z" fill="#ffffff"/>
<use data-text="4" xlink:href="#font_3_1" transform="matrix(9.963496,0,0,-9.963098,101.17975,130.67087)"/>
<path transform="matrix(1.00009,0,0,-1.00005,62.847307,120.04134)" stroke-width=".3985" stroke-linecap="butt" stroke-miterlimit="10" stroke-linejoin="miter" fill="none" stroke="#000000" d="M1.02054-40.81946H-1.02039"/>
<path transform="matrix(1.00009,0,0,-1.00005,62.847307,120.04134)" d="M-17.93497-45.44107H-3.2121907V-36.19784H-17.93497Z" fill="#ffffff"/>
<use data-text="&#x2212;" xlink:href="#font_2_1" transform="matrix(9.963496,0,0,-9.963098,45.906785,163.65853)"/>
<use data-text="4" xlink:href="#font_3_1" transform="matrix(9.963496,0,0,-9.963098,53.65648,163.65853)"/>
<path transform="matrix(1.00009,0,0,-1.00005,62.847307,120.04134)" stroke-width=".3985" stroke-linecap="butt" stroke-miterlimit="10" stroke-linejoin="miter" fill="none" stroke="#000000" d="M1.02054 40.81946H-1.02039"/>
<path transform="matrix(1.00009,0,0,-1.00005,62.847307,120.04134)" d="M-10.18613 36.61298H-3.2121897V45.02596H-10.18613Z" fill="#ffffff"/>
<use data-text="4" xlink:href="#font_3_1" transform="matrix(9.963496,0,0,-9.963098,53.65648,82.430469)"/>
<path transform="matrix(1.00009,0,0,-1.00005,62.847307,120.04134)" stroke-width=".3985" stroke-linecap="butt" stroke-miterlimit="10" stroke-linejoin="miter" fill="none" stroke="#000000" d="M1.02054 81.63893H-1.02039"/>
<path transform="matrix(1.00009,0,0,-1.00005,62.847307,120.04134)" d="M-10.18613 77.43243H-3.2121897V85.845409H-10.18613Z" fill="#ffffff"/>
<use data-text="8" xlink:href="#font_3_2" transform="matrix(9.963496,0,0,-9.963098,53.65648,41.60843)"/>
<path transform="matrix(1.00009,0,0,-1.00005,62.847307,120.04134)" stroke-width="1.19553" stroke-linecap="butt" stroke-miterlimit="10" stroke-linejoin="miter" fill="none" stroke="#ff0000" d="M-18.45963 100.18353C-18.2108 97.48508-18.2108 97.48508-18.04926 95.7706-17.8877 94.0561-17.6286 91.35088-17.46704 89.69168-17.30548 88.03247-17.04639 85.41614-16.88483 83.81223-16.72327 82.20833-16.46417 79.6804-16.30261 78.13179-16.14104 76.58316-15.88196 74.14415-15.72038 72.6508-15.55884 71.15747-15.29973 68.80682-15.13818 67.36884-14.97662 65.93085-14.71753 63.66943-14.55597 62.2868-14.39441 60.90417-14.13531 58.73119-13.97375 57.40378-13.8122 56.07637-13.5531 53.99185-13.39154 52.71974-13.22997 51.44762-12.97089 49.45195-12.80931 48.23518-12.64777 47.0184-12.38866 45.11151-12.22711 43.95009-12.06555 42.78867-11.80646 40.9706-11.6449 39.86446-11.48332 38.75833-11.22424 37.02876-11.06268 35.97784-10.90112 34.92693-10.64203 33.28578-10.48047 32.29022-10.3189 31.29466-10.05981 29.74275-9.89824 28.80254-9.7367 27.86235-9.47758 26.39885-9.31604 25.51387-9.15446 24.62889-8.89539 23.25381-8.73381 22.4242-8.57225 21.59456-8.31317 20.3088-8.15161 19.53445-7.99005 18.76012-7.73096 17.5623-7.5694 16.84325-7.40784 16.12419-7.14874 15.01569-6.98717 14.35199-6.82562 13.68828-6.56651 12.66814-6.40497 12.05972-6.2434 11.45131-5.98431 10.51999-5.82274 9.96692-5.6612 9.41386-5.40208 8.57137-5.24054 8.0736-5.07898 7.57582-4.81989 6.82182-4.65833 6.37927-4.49677 5.93672-4.23767 5.27116-4.0761 4.88394-3.91455 4.49675-3.65544 3.92041-3.4939 3.58856-3.33232 3.25671-3.07324 2.76881-2.91167 2.49219-2.75012 2.21556-2.49101 1.81609-2.32947 1.5948-2.16791 1.37352-1.90881 1.06328-1.74725 .89737-1.5857 .73143-1.3266 .50963-1.16504 .39893-1.00348 .28822-.74437 .15485-.58282 .09949-.42125 .04414-.16217 .00003-.0006 0 .16092-.00003 .42001 .0438 .58157 .09901 .74312 .15424 1.00223 .28741 1.16377 .398 1.32535 .50856 1.58444 .73012 1.746 .89597 1.90756 1.06181 2.16666 1.37225 2.32822 1.5934 2.48978 1.81454 2.74887 2.21341 2.91043 2.48985 3.07199 2.76628 3.3311 3.25398 3.49265 3.58575 3.65422 3.91754 3.9133 4.49408 4.07486 4.88115 4.23642 5.26822 4.4955 5.93317 4.65707 6.37553 4.81863 6.8179 5.07773 7.57169 5.23929 8.06938 5.40085 8.5671 5.65994 9.40971 5.8215 9.96272 5.98306 10.5157 6.24216 11.44676 6.40372 12.05504 6.56529 12.66333 6.82437 13.6832 6.98593 14.34685 7.14749 15.01047 7.40659 16.11919 7.56815 16.83812 7.7297 17.55704 7.9888 18.75417 8.15036 19.52838 8.31192 20.3026 8.57101 21.58861 8.73257 22.41812 8.89413 23.24762 9.15323 24.62207 9.31479 25.50687 9.47636 26.39165 9.73544 27.85492 9.897 28.79506 10.05856 29.73521 10.31766 31.28732 10.47922 32.28275 10.64078 33.27818 10.89987 34.91872 11.06143 35.96944 11.22299 37.02016 11.48209 38.74953 11.64365 39.85558 11.8052 40.96165 12.0643 42.77985 12.22586 43.94121 12.38744 45.10255 12.64651 47.00919 12.80807 48.22583 12.96964 49.44247 13.22873 51.43794 13.39029 52.70993 13.55185 53.98192 13.81094 56.06621 13.9725 57.3935 14.13406 58.72078 14.39316 60.8935 14.55472 62.27605 14.71628 63.65863 14.97537 65.92024 15.13693 67.3581 15.29851 68.79596 15.55759 71.14598 15.71916 72.63913 15.8807 74.13228 16.1398 76.57114 16.30136 78.11964 16.46292 79.66814 16.72202 82.19577 16.88359 83.79962 17.04514 85.40346 17.30423 88.01993 17.46579 89.67906 17.62735 91.3382 17.88644 94.04315 18.048 95.7575 18.20956 97.47186 18.63023 102.03497 18.45836 100.17"/>
<path transform="matrix(-.09175826,-.9957797,-.9958196,.091754589,44.386034,19.852822)" d="M1.27522 0C-.31879 .31879-1.91284 .9564-3.8257 2.07224-1.91284 .6376-1.91284-.6376-3.8257-2.07224-1.91284-.9564-.31879-.31879 1.27522 0Z" fill="#ff0000"/>
<path transform="matrix(-.09175826,-.9957797,-.9958196,.091754589,44.386034,19.852822)" stroke-width="1.19553" stroke-linecap="butt" stroke-linejoin="round" fill="none" stroke="#ff0000" d="M1.27522 0C-.31879 .31879-1.91284 .9564-3.8257 2.07224-1.91284 .6376-1.91284-.6376-3.8257-2.07224-1.91284-.9564-.31879-.31879 1.27522 0Z"/>
<path transform="matrix(.09177826,-.9957797,-.9958196,-.09177458,81.30733,19.866356)" d="M1.27522 0C-.31879 .31879-1.91284 .9564-3.8257 2.07224-1.91284 .6376-1.91284-.6376-3.8257-2.07224-1.91284-.9564-.31879-.31879 1.27522 0Z" fill="#ff0000"/>
<path transform="matrix(.09177826,-.9957797,-.9958196,-.09177458,81.30733,19.866356)" stroke-width="1.19553" stroke-linecap="butt" stroke-linejoin="round" fill="none" stroke="#ff0000" d="M1.27522 0C-.31879 .31879-1.91284 .9564-3.8257 2.07224-1.91284 .6376-1.91284-.6376-3.8257-2.07224-1.91284-.9564-.31879-.31879 1.27522 0Z"/>
<use data-text="(" xlink:href="#font_4_85" transform="matrix(9.963496,0,0,-9.963098,56.48073,204.17554)"/>
<use data-text="a" xlink:href="#font_4_28" transform="matrix(9.963496,0,0,-9.963098,60.356538,204.17554)"/>
<use data-text=")" xlink:href="#font_4_86" transform="matrix(9.963496,0,0,-9.963098,65.33827,204.17554)"/>
</svg>
