<svg xmlns="http://www.w3.org/2000/svg" xmlns:xlink="http://www.w3.org/1999/xlink" version="1.1" width="187" height="229" viewBox="0 0 187 229">
<defs>
<path id="font_1_2" d="M.2939911 .64004519C.2939911 .66400149 .2939911 .6660156 .2709961 .6660156 .20899964 .60227969 .12098694 .60227969 .08898926 .60227969V.57128909C.10899353 .57128909 .16799927 .57128909 .21998596 .5972748V.07902527C.21998596 .042999269 .21699524 .0309906 .1269989 .0309906H.09498596V0C.12998963 .0029907227 .21699524 .0029907227 .25698854 .0029907227 .29699708 .0029907227 .38398744 .0029907227 .4189911 0V.0309906H.3869934C.29699708 .0309906 .2939911 .041992189 .2939911 .07902527V.64004519Z"/>
<path id="font_1_3" d="M.1269989 .07699585 .23298645 .18003845C.3889923 .31811524 .44898988 .3721466 .44898988 .47216798 .44898988 .5860901 .35899354 .6660156 .23699951 .6660156 .12399292 .6660156 .049987794 .57411196 .049987794 .48516847 .049987794 .4291687 .099990848 .4291687 .102996829 .4291687 .11999512 .4291687 .15499878 .44117738 .15499878 .48217774 .15499878 .5081787 .13699341 .5341797 .101989749 .5341797 .09399414 .5341797 .09199524 .5341797 .08898926 .5331726 .11199951 .59806826 .1659851 .63500979 .22399903 .63500979 .31498719 .63500979 .35798646 .5541382 .35798646 .47216798 .35798646 .39215089 .30799867 .31311036 .25299073 .25108338L.06098938 .036987306C.049987794 .025985718 .049987794 .023986817 .049987794 0H.42099L.44898988 .17404175H.42399598C.4189911 .14402771 .4119873 .1000061 .4019928 .084991458 .394989 .07699585 .32899476 .07699585 .30699159 .07699585H.1269989Z"/>
<path id="font_1_5" d="M.2939911 .16503906V.07800293C.2939911 .041992189 .2919922 .0309906 .21798706 .0309906H.19699097V0C.23799134 .0029907227 .2899933 .0029907227 .33198548 .0029907227 .37399293 .0029907227 .4269867 .0029907227 .46798707 0V.0309906H.44699098C.37298585 .0309906 .37098695 .041992189 .37098695 .07800293V.16503906H.47099305V.19602967H.37098695V.65075686C.37098695 .67074587 .37098695 .6767578 .35499574 .6767578 .34599305 .6767578 .34298707 .6767578 .33499146 .66474917L.027999878 .19602967V.16503906H.2939911M.2999878 .19602967H.055999757L.2999878 .5688019V.19602967Z"/>
<path id="font_1_4" d="M.2899933 .35191346C.37199403 .37893678 .42999269 .4490509 .42999269 .52809146 .42999269 .6100464 .34199525 .6660156 .24598694 .6660156 .14498902 .6660156 .068984989 .60606387 .068984989 .53009036 .068984989 .49710084 .09098816 .47808839 .11999512 .47808839 .15098572 .47808839 .17098999 .50009158 .17098999 .5290985 .17098999 .57910159 .12399292 .57910159 .10899353 .57910159 .13999939 .62802127 .20599365 .64100649 .24198914 .64100649 .2829895 .64100649 .33799745 .6190338 .33799745 .5290985 .33799745 .51708987 .33599855 .45906068 .30999757 .4149933 .27999879 .36691285 .24598694 .36390687 .22099304 .36291505 .21299744 .36190797 .18899536 .35990907 .18199158 .35990907 .17399597 .35890199 .16699219 .35791017 .16699219 .3479004 .16699219 .33691407 .17399597 .33691407 .19099427 .33691407H.23498535C.31698609 .33691407 .35398866 .2686615 .35398866 .17037964 .35398866 .034469606 .2849884 .0055389406 .24099732 .0055389406 .19799805 .0055389406 .12298584 .022491456 .08799744 .08137512 .12298584 .07637024 .1539917 .09837341 .1539917 .1363678 .1539917 .17237854 .1269989 .19238281 .09799194 .19238281 .07398987 .19238281 .041992189 .17837525 .041992189 .1343689 .041992189 .043441774 .1349945-.022460938 .24398804-.022460938 .3659973-.022460938 .45700074 .06838989 .45700074 .17037964 .45700074 .252594 .3939972 .33088685 .2899933 .35191346Z"/>
<path id="font_1_6" d="M.13198853 .327713V.35173036C.13198853 .6047821 .2559967 .64100649 .30699159 .64100649 .33099366 .64100649 .37298585 .634964 .394989 .6007538 .37998963 .6007538 .33999635 .6007538 .33999635 .5557556 .33999635 .524765 .3639984 .5097656 .38598634 .5097656 .4019928 .5097656 .43199159 .51875308 .43199159 .5577545 .43199159 .6178589 .3880005 .6660156 .30499269 .6660156 .1769867 .6660156 .041992189 .5367584 .041992189 .31570436 .041992189 .048553468 .1579895-.022460938 .25099183-.022460938 .3619995-.022460938 .45700074 .07156372 .45700074 .2036438 .45700074 .33070375 .36799623 .4267578 .25698854 .4267578 .18899536 .4267578 .1519928 .37573243 .13198853 .327713M.25099183 .0055389406C.18798828 .0055389406 .1579895 .06556702 .1519928 .080566409 .13398743 .127594 .13398743 .2076416 .13398743 .22564698 .13398743 .30369569 .1659851 .40374757 .2559967 .40374757 .27198792 .40374757 .31799317 .40374757 .34899903 .34172059 .36698915 .30470277 .36698915 .2536621 .36698915 .20463562 .36698915 .15661621 .36698915 .10658264 .34999085 .0705719 .31999208 .010528564 .27398683 .0055389406 .25099183 .0055389406Z"/>
<path id="font_1_8" d="M.16299439 .4569702C.116989139 .486969 .11299133 .52098086 .11299133 .5379791 .11299133 .598999 .17799378 .64100649 .24899292 .64100649 .32199098 .64100649 .38598634 .58898928 .38598634 .51698306 .38598634 .45996095 .34700013 .4119568 .2869873 .37695313L.16299439 .4569702M.30899049 .36193849C.3809967 .3989563 .42999269 .45095826 .42999269 .51698306 .42999269 .6090088 .34098817 .6660156 .25 .6660156 .1499939 .6660156 .068984989 .59199526 .068984989 .49897767 .068984989 .4809723 .070999149 .43595887 .11299133 .38894654 .12399292 .37695313 .16099549 .35194398 .18598938 .33494569 .12799073 .30592347 .041992189 .24984741 .041992189 .15072632 .041992189 .04458618 .14399719-.022460938 .24899292-.022460938 .3619995-.022460938 .45700074 .06060791 .45700074 .16773987 .45700074 .20379639 .44599916 .24885559 .4079895 .2909088 .3889923 .31193543 .37298585 .3219452 .30899049 .36193849M.20899964 .3199463 .33198548 .24183655C.3600006 .2228241 .40699769 .19277954 .40699769 .13169861 .40699769 .05760193 .33198548 .0055389406 .25 .0055389406 .1639862 .0055389406 .09199524 .067611698 .09199524 .15072632 .09199524 .20880127 .12399292 .27288819 .20899964 .3199463Z"/>
<path id="font_1_1" d="M.45999146 .31976319C.45999146 .39982606 .45498658 .47988893 .41999818 .5539398 .37399293 .65000918 .2919922 .6660156 .25 .6660156 .18998719 .6660156 .116989139 .64001467 .07598877 .54693606 .04399109 .47789 .038986207 .39982606 .038986207 .31976319 .038986207 .24472046 .042999269 .15464783 .083999637 .07859802 .1269989-.0024719239 .19999695-.022460938 .24899292-.022460938 .30299378-.022460938 .3789978-.0014648438 .4229889 .09359741 .45498658 .16265869 .45999146 .2407074 .45999146 .31976319M.24899292-.00047302247C.20999146-.00047302247 .15098572 .024551392 .1329956 .12062073 .12199402 .18066406 .12199402 .2727356 .12199402 .3317871 .12199402 .39582826 .12199402 .46188355 .12998963 .5159149 .14898682 .63500979 .22399903 .64401248 .24899292 .64401248 .28199769 .64401248 .34799195 .6259918 .36698915 .52693179 .3769989 .47088624 .3769989 .39482118 .3769989 .3317871 .3769989 .25672914 .3769989 .18867493 .3659973 .12461853 .35099793 .029556275 .2939911-.00047302247 .24899292-.00047302247Z"/>
<path id="font_1_7" d="M.47599793 .609375C.4850006 .6213684 .4850006 .62338259 .4850006 .64437869H.24198914C.11999512 .64437869 .117996219 .65737918 .11399841 .67637637H.08898926L.055999757 .4702301H.08099365C.083999637 .48625184 .09298706 .5493469 .10598755 .56137087 .11299133 .5673828 .19099427 .5673828 .20399475 .5673828H.41099549C.3999939 .5513611 .32099916 .4421997 .29899598 .40914918 .20899964 .27394105 .17599488 .1347351 .17599488 .032577516 .17599488 .022567749 .17599488-.022460938 .22200012-.022460938 .2679901-.022460938 .2679901 .022567749 .2679901 .032577516V.08366394C.2679901 .13873291 .2709961 .19381714 .2789917 .24790955 .2829895 .27093507 .29699708 .35707093 .34098817 .41915895L.47599793 .609375Z"/>
</defs>
<path transform="matrix(1.00008,0,0,-1.00003,17.11325,215.30702)" stroke-width=".3985" stroke-linecap="butt" stroke-miterlimit="10" stroke-linejoin="miter" fill="none" stroke="#00aeef" d="M0 0H153.07172M0 17.00824H153.07172M0 34.0165H153.07172M0 51.02477H153.07172M0 68.03302H153.07172M0 85.04128H153.07172M0 102.04953H153.07172M0 119.0578H153.07172M0 136.06606H153.07172M0 153.07433H153.07172M0 170.08257H153.07172M0 187.09084H153.07172M0 204.09313H153.07172M0 0V204.09909M25.51193 0V204.09909M51.0239 0V204.09909M76.53586 0V204.09909M102.0478 0V204.09909M127.55977 0V204.09909M153.06276 0V204.09909M153.07172 204.09909"/>
<path transform="matrix(1.00008,0,0,-1.00003,17.11325,215.30702)" stroke-width=".79701" stroke-linecap="butt" stroke-miterlimit="10" stroke-linejoin="miter" fill="none" stroke="#000000" d="M0 0H166.94443"/>
<path transform="matrix(1.00008,0,0,-1.00003,184.07103,215.30702)" d="M1.0361 0C-.25902 .25902-1.55415 .77707-3.1083 1.68365-1.55415 .51805-1.55415-.51805-3.1083-1.68365-1.55415-.77707-.25902-.25902 1.0361 0Z"/>
<path transform="matrix(1.00008,0,0,-1.00003,184.07103,215.30702)" stroke-width=".79701" stroke-linecap="butt" stroke-linejoin="round" fill="none" stroke="#000000" d="M1.0361 0C-.25902 .25902-1.55415 .77707-3.1083 1.68365-1.55415 .51805-1.55415-.51805-3.1083-1.68365-1.55415-.77707-.25902-.25902 1.0361 0Z"/>
<path transform="matrix(1.00008,0,0,-1.00003,17.11325,215.30702)" stroke-width=".79701" stroke-linecap="butt" stroke-miterlimit="10" stroke-linejoin="miter" fill="none" stroke="#000000" d="M0 0V212.86954"/>
<path transform="matrix(0,-1.00003,-1.00008,-0,17.11325,2.4310914)" d="M1.0361 0C-.25902 .25902-1.55415 .77707-3.1083 1.68365-1.55415 .51805-1.55415-.51805-3.1083-1.68365-1.55415-.77707-.25902-.25902 1.0361 0Z"/>
<path transform="matrix(0,-1.00003,-1.00008,-0,17.11325,2.4310914)" stroke-width=".79701" stroke-linecap="butt" stroke-linejoin="round" fill="none" stroke="#000000" d="M1.0361 0C-.25902 .25902-1.55415 .77707-3.1083 1.68365-1.55415 .51805-1.55415-.51805-3.1083-1.68365-1.55415-.77707-.25902-.25902 1.0361 0Z"/>
<path transform="matrix(1.00008,0,0,-1.00003,17.11325,215.30702)" stroke-width=".79701" stroke-linecap="butt" stroke-miterlimit="10" stroke-linejoin="miter" fill="none" stroke="#000000" d="M51.0239 1.70091V-1.70065"/>
<path transform="matrix(1.00008,0,0,-1.00003,17.11325,215.30702)" d="M45.04622-12.5047H57.00156V-4.0917198H45.04622Z" fill="#ffffff"/>
<use data-text="1" xlink:href="#font_1_2" transform="matrix(9.963397,0,0,-9.962899,63.15893,226.81537)"/>
<use data-text="2" xlink:href="#font_1_3" transform="matrix(9.963397,0,0,-9.962899,68.140628,226.81537)"/>
<path transform="matrix(1.00008,0,0,-1.00003,17.11325,215.30702)" stroke-width=".79701" stroke-linecap="butt" stroke-miterlimit="10" stroke-linejoin="miter" fill="none" stroke="#000000" d="M102.0478 1.70091V-1.70065"/>
<path transform="matrix(1.00008,0,0,-1.00003,17.11325,215.30702)" d="M96.07013-12.5047H108.02547V-4.0917198H96.07013Z" fill="#ffffff"/>
<use data-text="2" xlink:href="#font_1_3" transform="matrix(9.963397,0,0,-9.962899,114.18702,226.81537)"/>
<use data-text="4" xlink:href="#font_1_5" transform="matrix(9.963397,0,0,-9.962899,119.16872,226.81537)"/>
<path transform="matrix(1.00008,0,0,-1.00003,17.11325,215.30702)" stroke-width=".79701" stroke-linecap="butt" stroke-miterlimit="10" stroke-linejoin="miter" fill="none" stroke="#000000" d="M153.07172 1.70091V-1.70065"/>
<path transform="matrix(1.00008,0,0,-1.00003,17.11325,215.30702)" d="M147.09404-12.5047H159.04938V-4.0917198H147.09404Z" fill="#ffffff"/>
<use data-text="3" xlink:href="#font_1_4" transform="matrix(9.963397,0,0,-9.962899,165.21509,226.81537)"/>
<use data-text="6" xlink:href="#font_1_6" transform="matrix(9.963397,0,0,-9.962899,170.19678,226.81537)"/>
<path transform="matrix(1.00008,0,0,-1.00003,17.11325,215.30702)" stroke-width=".79701" stroke-linecap="butt" stroke-miterlimit="10" stroke-linejoin="miter" fill="none" stroke="#000000" d="M2.55133 34.0165H-2.55095"/>
<path transform="matrix(1.00008,0,0,-1.00003,17.11325,215.30702)" d="M-16.89735 29.81001H-4.94201V38.222993H-16.89735Z" fill="#ffffff"/>
<use data-text="1" xlink:href="#font_1_2" transform="matrix(9.963397,0,0,-9.962899,1.2109757,184.50009)"/>
<use data-text="2" xlink:href="#font_1_3" transform="matrix(9.963397,0,0,-9.962899,6.1926729,184.50009)"/>
<path transform="matrix(1.00008,0,0,-1.00003,17.11325,215.30702)" stroke-width=".79701" stroke-linecap="butt" stroke-miterlimit="10" stroke-linejoin="miter" fill="none" stroke="#000000" d="M2.55133 68.03302H-2.55095"/>
<path transform="matrix(1.00008,0,0,-1.00003,17.11325,215.30702)" d="M-16.89735 63.82654H-4.94201V72.239528H-16.89735Z" fill="#ffffff"/>
<use data-text="2" xlink:href="#font_1_3" transform="matrix(9.963397,0,0,-9.962899,1.2109757,150.48209)"/>
<use data-text="4" xlink:href="#font_1_5" transform="matrix(9.963397,0,0,-9.962899,6.1926729,150.48209)"/>
<path transform="matrix(1.00008,0,0,-1.00003,17.11325,215.30702)" stroke-width=".79701" stroke-linecap="butt" stroke-miterlimit="10" stroke-linejoin="miter" fill="none" stroke="#000000" d="M2.55133 102.04953H-2.55095"/>
<path transform="matrix(1.00008,0,0,-1.00003,17.11325,215.30702)" d="M-16.89735 97.84305H-4.94201V106.25603H-16.89735Z" fill="#ffffff"/>
<use data-text="3" xlink:href="#font_1_4" transform="matrix(9.963397,0,0,-9.962899,1.2109757,116.46506)"/>
<use data-text="6" xlink:href="#font_1_6" transform="matrix(9.963397,0,0,-9.962899,6.1926729,116.46506)"/>
<path transform="matrix(1.00008,0,0,-1.00003,17.11325,215.30702)" stroke-width=".79701" stroke-linecap="butt" stroke-miterlimit="10" stroke-linejoin="miter" fill="none" stroke="#000000" d="M2.55133 136.06606H-2.55095"/>
<path transform="matrix(1.00008,0,0,-1.00003,17.11325,215.30702)" d="M-16.89735 131.85958H-4.94201V140.27256H-16.89735Z" fill="#ffffff"/>
<use data-text="4" xlink:href="#font_1_5" transform="matrix(9.963397,0,0,-9.962899,1.2109757,82.44702)"/>
<use data-text="8" xlink:href="#font_1_8" transform="matrix(9.963397,0,0,-9.962899,6.1926729,82.44702)"/>
<path transform="matrix(1.00008,0,0,-1.00003,17.11325,215.30702)" stroke-width=".79701" stroke-linecap="butt" stroke-miterlimit="10" stroke-linejoin="miter" fill="none" stroke="#000000" d="M2.55133 170.08257H-2.55095"/>
<path transform="matrix(1.00008,0,0,-1.00003,17.11325,215.30702)" d="M-16.89735 165.87607H-4.94201V174.28905H-16.89735Z" fill="#ffffff"/>
<use data-text="6" xlink:href="#font_1_6" transform="matrix(9.963397,0,0,-9.962899,1.2109757,48.430009)"/>
<use data-text="0" xlink:href="#font_1_1" transform="matrix(9.963397,0,0,-9.962899,6.1926729,48.430009)"/>
<path transform="matrix(1.00008,0,0,-1.00003,17.11325,215.30702)" stroke-width=".79701" stroke-linecap="butt" stroke-miterlimit="10" stroke-linejoin="miter" fill="none" stroke="#000000" d="M2.55133 204.09909H-2.55095"/>
<path transform="matrix(1.00008,0,0,-1.00003,17.11325,215.30702)" d="M-16.89735 199.8926H-4.94201V208.30558H-16.89735Z" fill="#ffffff"/>
<use data-text="7" xlink:href="#font_1_7" transform="matrix(9.963397,0,0,-9.962899,1.2109757,14.411972)"/>
<use data-text="2" xlink:href="#font_1_3" transform="matrix(9.963397,0,0,-9.962899,6.1926729,14.411972)"/>
</svg>
