<svg xmlns="http://www.w3.org/2000/svg" xmlns:xlink="http://www.w3.org/1999/xlink" version="1.1" width="134" height="197" viewBox="0 0 134 197">
<defs>
<path id="font_1_1" d="M.33399964 .30233766C.33999635 .32835389 .36299134 .42037965 .43299867 .42037965 .43798829 .42037965 .46199037 .42037965 .48298646 .40734864 .45498658 .402359 .43499757 .37734986 .43499757 .35334779 .43499757 .33735658 .44599916 .31835938 .47299195 .31835938 .49499513 .31835938 .5269928 .3363495 .5269928 .37635804 .5269928 .42837525 .46798707 .4423828 .43399049 .4423828 .37599183 .4423828 .34098817 .38935853 .32899476 .36634828 .3039856 .43237306 .25 .4423828 .22099304 .4423828 .116989139 .4423828 .05999756 .3133545 .05999756 .28834535 .05999756 .27833558 .069992069 .27833558 .07199097 .27833558 .07998657 .27833558 .08299255 .28033448 .084991458 .28933717 .11898804 .39535523 .18499756 .42037965 .21899414 .42037965 .23799134 .42037965 .272995 .4113617 .272995 .35334779 .272995 .32235719 .2559967 .25532533 .21899414 .11528015 .20298767 .053268434 .16799927 .011245728 .12399292 .011245728 .117996219 .011245728 .09498596 .011245728 .07398987 .024276734 .09899902 .029266358 .12098694 .05027771 .12098694 .07827759 .12098694 .105270389 .09899902 .11328125 .083999637 .11328125 .053985597 .11328125 .0289917 .08728027 .0289917 .055267335 .0289917 .009246826 .07899475-.0107421879 .12298584-.0107421879 .18899536-.0107421879 .22499085 .059280397 .22799683 .0652771 .23999024 .028274537 .27598573-.0107421879 .33599855-.0107421879 .43899537-.0107421879 .49598695 .118270877 .49598695 .14328003 .49598695 .1532898 .4869995 .1532898 .48399354 .1532898 .47499085 .1532898 .47299195 .14929199 .47099305 .14228821 .43798829 .03527832 .36999513 .011245728 .33799745 .011245728 .29899598 .011245728 .2829895 .043273927 .2829895 .07727051 .2829895 .09927368 .2889862 .121276859 .2999878 .16529846L.33399964 .30233766Z"/>
<path id="font_1_2" d="M.48599244 .38136292C.48999024 .39537049 .48999024 .39736939 .48999024 .40437318 .48999024 .42237855 .47599793 .43138124 .46099855 .43138124 .45098878 .43138124 .43499757 .42536927 .42599488 .41036988 .42399598 .405365 .41600038 .37435914 .4119873 .35635377 .40499879 .33035279 .397995 .30334474 .3919983 .27633668L.34700013 .09628296C.34298707 .08126831 .2999878 .011245728 .23399353 .011245728 .18299866 .011245728 .17199707 .055267335 .17199707 .0922699 .17199707 .1382904 .18899536 .20030213 .22299195 .28833009 .23899842 .3293457 .24299622 .3403473 .24299622 .36035157 .24299622 .405365 .21099854 .4423828 .16099549 .4423828 .06599426 .4423828 .0289917 .29733277 .0289917 .28833009 .0289917 .27833558 .038986207 .27833558 .040985109 .27833558 .050994874 .27833558 .051986696 .28033448 .056991579 .29634095 .083999637 .3903656 .12399292 .42037965 .1579895 .42037965 .1659851 .42037965 .18299866 .42037965 .18299866 .3883667 .18299866 .36335755 .17298889 .3373413 .1659851 .31834413 .12599182 .21231079 .10798645 .1552887 .10798645 .10827637 .10798645 .019256592 .17098999-.0107421879 .22999573-.0107421879 .2689972-.0107421879 .30299378 .0062561037 .33099366 .03425598 .31799317-.017745972 .30599977-.06674194 .2659912-.11973572 .23999024-.15385437 .20199585-.18309021 .1559906-.18309021 .14199829-.18309021 .09700012-.18005371 .07998657-.14074707 .09599304-.14074707 .10899353-.14074707 .12298584-.1287384 .1329956-.11973572 .14299011-.10673523 .14299011-.08773804 .14299011-.056747438 .115997318-.052734376 .10598755-.052734376 .08299255-.052734376 .049987794-.068740848 .049987794-.11773682 .049987794-.16796875 .09399414-.20507813 .1559906-.20507813 .25898744-.20507813 .3619995-.11373901 .3899994-.00074768069L.48599244 .38136292Z"/>
<path id="font_2_1" d="M.1269989 .07699585 .23298645 .18003845C.3889923 .31811524 .44898988 .3721466 .44898988 .47216798 .44898988 .5860901 .35899354 .6660156 .23699951 .6660156 .12399292 .6660156 .049987794 .57411196 .049987794 .48516847 .049987794 .4291687 .099990848 .4291687 .102996829 .4291687 .11999512 .4291687 .15499878 .44117738 .15499878 .48217774 .15499878 .5081787 .13699341 .5341797 .101989749 .5341797 .09399414 .5341797 .09199524 .5341797 .08898926 .5331726 .11199951 .59806826 .1659851 .63500979 .22399903 .63500979 .31498719 .63500979 .35798646 .5541382 .35798646 .47216798 .35798646 .39215089 .30799867 .31311036 .25299073 .25108338L.06098938 .036987306C.049987794 .025985718 .049987794 .023986817 .049987794 0H.42099L.44898988 .17404175H.42399598C.4189911 .14402771 .4119873 .1000061 .4019928 .084991458 .394989 .07699585 .32899476 .07699585 .30699159 .07699585H.1269989Z"/>
<path id="font_2_2" d="M.13198853 .327713V.35173036C.13198853 .6047821 .2559967 .64100649 .30699159 .64100649 .33099366 .64100649 .37298585 .634964 .394989 .6007538 .37998963 .6007538 .33999635 .6007538 .33999635 .5557556 .33999635 .524765 .3639984 .5097656 .38598634 .5097656 .4019928 .5097656 .43199159 .51875308 .43199159 .5577545 .43199159 .6178589 .3880005 .6660156 .30499269 .6660156 .1769867 .6660156 .041992189 .5367584 .041992189 .31570436 .041992189 .048553468 .1579895-.022460938 .25099183-.022460938 .3619995-.022460938 .45700074 .07156372 .45700074 .2036438 .45700074 .33070375 .36799623 .4267578 .25698854 .4267578 .18899536 .4267578 .1519928 .37573243 .13198853 .327713M.25099183 .0055389406C.18798828 .0055389406 .1579895 .06556702 .1519928 .080566409 .13398743 .127594 .13398743 .2076416 .13398743 .22564698 .13398743 .30369569 .1659851 .40374757 .2559967 .40374757 .27198792 .40374757 .31799317 .40374757 .34899903 .34172059 .36698915 .30470277 .36698915 .2536621 .36698915 .20463562 .36698915 .15661621 .36698915 .10658264 .34999085 .0705719 .31999208 .010528564 .27398683 .0055389406 .25099183 .0055389406Z"/>
<path id="font_3_85" d="M.33099366-.2400055C.33099366-.23701477 .33099366-.23500061 .31399537-.21800232 .18899536-.0920105 .15699768 .09700012 .15699768 .25 .15699768 .42399598 .19499207 .59799197 .31799317 .72299197 .33099366 .7350006 .33099366 .7369995 .33099366 .73999026 .33099366 .746994 .32699586 .75 .32099916 .75 .31098939 .75 .22099304 .6819916 .1619873 .5549927 .11099243 .44499208 .09899902 .33399964 .09899902 .25 .09899902 .17199707 .10998535 .050994874 .16499329-.06201172 .22499085-.18501282 .31098939-.25 .32099916-.25 .32699586-.25 .33099366-.24700928 .33099366-.2400055Z"/>
<path id="font_3_28" d="M.48298646 .08912659V.14511109H.45799256V.08912659C.45799256 .03112793 .43299867 .025131226 .42199708 .025131226 .3889923 .025131226 .3849945 .070129398 .3849945 .07511902V.27508546C.3849945 .31707765 .3849945 .3560791 .34899903 .39312745 .30999757 .43223573 .2599945 .4482422 .21199036 .4482422 .12998963 .4482422 .06098938 .40115357 .06098938 .335083 .06098938 .30508424 .08099365 .28808595 .10699463 .28808595 .1349945 .28808595 .15299988 .30807496 .15299988 .33407594 .15299988 .3460846 .147995 .37908937 .101989749 .38008119 .1289978 .41519166 .17799378 .426239 .20999146 .426239 .25898744 .426239 .31599427 .38710023 .31599427 .29808045V.26107789C.2649994 .25808717 .19499207 .25508119 .13198853 .22509766 .056991579 .19110108 .03199768 .13911438 .03199768 .09512329 .03199768 .014251709 .1289978-.0107421879 .19198609-.0107421879 .2579956-.0107421879 .3039856 .029251099 .32299806 .07624817 .32699586 .036132814 .35398866-.005859375 .40098573-.005859375 .42199708-.005859375 .48298646 .008132935 .48298646 .08912659M.31599427 .14013672C.31599427 .04525757 .24398804 .011245728 .19898987 .011245728 .1499939 .011245728 .10899353 .04624939 .10899353 .09625244 .10899353 .15124512 .15098572 .23425293 .31599427 .24024964V.14013672Z"/>
<path id="font_3_86" d="M.2889862 .25C.2889862 .32798768 .27799989 .44898988 .22299195 .56199648 .16299439 .68499758 .07699585 .75 .066986087 .75 .06098938 .75 .056991579 .74598696 .056991579 .73999026 .056991579 .7369995 .056991579 .7350006 .07598877 .71699526 .17399597 .6179962 .23098755 .45899964 .23098755 .25 .23098755 .07899475 .19400025-.09700012 .069992069-.2230072 .056991579-.23500061 .056991579-.23701477 .056991579-.2400055 .056991579-.2460022 .06098938-.25 .066986087-.25 .07699585-.25 .16699219-.18200684 .22599793-.055007936 .2769928 .054992677 .2889862 .16600037 .2889862 .25Z"/>
</defs>
<path transform="matrix(1.00002,0,0,-1.00005,58.30687,133.76204)" stroke-width=".3985" stroke-linecap="butt" stroke-miterlimit="10" stroke-linejoin="miter" fill="none" stroke="#00aeef" d="M-56.69362-28.3468H56.69362M-56.69362 0H56.69362M-56.69362 28.3468H56.69362M-56.69362 56.69362H56.69362M-56.69362 85.04042H56.69362M-56.69362 113.38225H56.69362M-56.69362-28.3468V113.38724M-28.3468-28.3468V113.38724M0-28.3468V113.38724M28.3468-28.3468V113.38724M56.68863-28.3468V113.38724M56.69362 113.38724"/>
<path transform="matrix(1.00002,0,0,-1.00005,58.30687,133.76204)" stroke-width=".79701" stroke-linecap="butt" stroke-miterlimit="10" stroke-linejoin="miter" fill="none" stroke="#000000" d="M-56.69362 0H63.76312"/>
<path transform="matrix(1.00002,0,0,-1.00005,122.071269,133.76204)" d="M1.0361 0C-.25902 .25902-1.55415 .77707-3.1083 1.68365-1.55415 .51805-1.55415-.51805-3.1083-1.68365-1.55415-.77707-.25902-.25902 1.0361 0Z"/>
<path transform="matrix(1.00002,0,0,-1.00005,122.071269,133.76204)" stroke-width=".79701" stroke-linecap="butt" stroke-linejoin="round" fill="none" stroke="#000000" d="M1.0361 0C-.25902 .25902-1.55415 .77707-3.1083 1.68365-1.55415 .51805-1.55415-.51805-3.1083-1.68365-1.55415-.77707-.25902-.25902 1.0361 0Z"/>
<use data-text="x" xlink:href="#font_1_1" transform="matrix(9.962799,0,0,-9.963098,127.22525,135.90715)"/>
<path transform="matrix(1.00002,0,0,-1.00005,58.30687,133.76204)" stroke-width=".79701" stroke-linecap="butt" stroke-miterlimit="10" stroke-linejoin="miter" fill="none" stroke="#000000" d="M0-28.3468V120.45674"/>
<path transform="matrix(0,-1.00005,-1.00002,-0,58.30687,13.299278)" d="M1.0361 0C-.25902 .25902-1.55415 .77707-3.1083 1.68365-1.55415 .51805-1.55415-.51805-3.1083-1.68365-1.55415-.77707-.25902-.25902 1.0361 0Z"/>
<path transform="matrix(0,-1.00005,-1.00002,-0,58.30687,13.299278)" stroke-width=".79701" stroke-linecap="butt" stroke-linejoin="round" fill="none" stroke="#000000" d="M1.0361 0C-.25902 .25902-1.55415 .77707-3.1083 1.68365-1.55415 .51805-1.55415-.51805-3.1083-1.68365-1.55415-.77707-.25902-.25902 1.0361 0Z"/>
<use data-text="y" xlink:href="#font_1_2" transform="matrix(9.962799,0,0,-9.963098,55.685815,6.207672)"/>
<path transform="matrix(1.00002,0,0,-1.00005,58.30687,133.76204)" stroke-width=".3985" stroke-linecap="butt" stroke-miterlimit="10" stroke-linejoin="miter" fill="none" stroke="#000000" d="M28.3468 1.4174V-1.41719"/>
<path transform="matrix(1.00002,0,0,-1.00005,58.30687,133.76204)" d="M24.85983-12.02199H31.83377V-3.6090098H24.85983Z" fill="#ffffff"/>
<use data-text="2" xlink:href="#font_2_1" transform="matrix(9.962799,0,0,-9.963098,84.16339,144.78859)"/>
<path transform="matrix(1.00002,0,0,-1.00005,58.30687,133.76204)" stroke-width=".3985" stroke-linecap="butt" stroke-miterlimit="10" stroke-linejoin="miter" fill="none" stroke="#000000" d="M1.4174 28.3468H-1.41719"/>
<path transform="matrix(1.00002,0,0,-1.00005,58.30687,133.76204)" d="M-10.58295 24.1403H-3.6090098V32.55328H-10.58295Z" fill="#ffffff"/>
<use data-text="2" xlink:href="#font_2_1" transform="matrix(9.962799,0,0,-9.963098,48.71968,108.62379)"/>
<path transform="matrix(1.00002,0,0,-1.00005,58.30687,133.76204)" stroke-width=".3985" stroke-linecap="butt" stroke-miterlimit="10" stroke-linejoin="miter" fill="none" stroke="#000000" d="M1.4174 85.04042H-1.41719"/>
<path transform="matrix(1.00002,0,0,-1.00005,58.30687,133.76204)" d="M-10.58295 80.83392H-3.6090098V89.2469H-10.58295Z" fill="#ffffff"/>
<use data-text="6" xlink:href="#font_2_2" transform="matrix(9.962799,0,0,-9.963098,48.71968,51.927949)"/>
<path transform="matrix(1.00002,0,0,-1.00005,58.30687,133.76204)" stroke-width="1.19553" stroke-linecap="butt" stroke-miterlimit="10" stroke-linejoin="miter" fill="none" stroke="#ff0000" d="M-31.28004 111.55922C-30.97697 110.21715-30.97697 110.21715-30.70218 109.0266-30.42737 107.83604-29.98668 105.9576-29.71188 104.80545-29.43709 103.65332-28.99638 101.83647-28.72159 100.72272-28.4468 99.609-28.00609 97.85374-27.7313 96.77841-27.4565 95.7031-27.0158 94.00945-26.741 92.9725-26.4662 91.93556-26.02551 90.30334-25.7507 89.30481-25.4759 88.30627-25.0352 86.73586-24.7604 85.77573-24.48561 84.8156-24.04492 83.3066-23.77011 82.38484-23.49532 81.46309-23.05461 80.01572-22.7798 79.13237-22.50502 78.24902-22.06432 76.86325-21.78952 76.01833-21.51471 75.17339-21.07402 73.8492-20.79922 73.04266-20.52443 72.23616-20.08372 70.97359-19.80893 70.20544-19.53412 69.4373-19.09343 68.23615-18.81863 67.5064-18.54384 66.77667-18.10313 65.63731-17.82834 64.94598-17.55353 64.25467-17.11284 63.17674-16.83804 62.52379-16.56325 61.87085-16.12254 60.85454-15.84775 60.23999-15.57294 59.62546-15.13225 58.67072-14.85745 58.09459-14.58266 57.51846-14.14195 56.62534-13.86714 56.08762-13.59236 55.54991-13.15166 54.71835-12.87686 54.21906-12.60205 53.71974-12.16136 52.94983-11.88655 52.48889-11.61177 52.02797-11.17107 51.31947-10.89627 50.89694-10.62146 50.47443-10.18077 49.82773-9.90596 49.44362-9.63118 49.0595-9.19048 48.47423-8.91568 48.12848-8.64087 47.78275-8.20018 47.2591-7.92537 46.95177-7.65059 46.64444-7.20988 46.18237-6.93509 45.91347-6.66028 45.64455-6.21959 45.24408-5.9448 45.01357-5.67 44.78307-5.2293 44.44421-4.95448 44.25209-4.67969 44.05995-4.23898 43.78252-3.9642 43.62878-3.68939 43.47507-3.2487 43.25946-2.97389 43.14413-2.6991 43.02882-2.25839 42.8746-1.98361 42.79767-1.7088 42.72073-1.26811 42.62811-.9933 42.58963-.71852 42.55113-.2778 42.52032-.00302 42.5202 .27176 42.5201 .71245 42.55049 .98726 42.58876 1.26204 42.62701 1.70274 42.71925 1.97754 42.79594 2.25235 42.87263 2.69304 43.02644 2.96785 43.14154 3.24263 43.25664 3.68333 43.47208 3.95815 43.62555 4.23294 43.77902 4.67365 44.0559 4.94844 44.24776 5.22324 44.43962 5.66393 44.77808 5.93874 45.00836 6.21353 45.23868 6.65424 45.63892 6.92902 45.90762 7.20383 46.17633 7.64452 46.63797 7.91933 46.94507 8.19412 47.25215 8.63483 47.77545 8.9096 48.12091 9.18442 48.46638 9.6251 49.05109 9.89992 49.43497 10.17471 49.81883 10.61542 50.46533 10.8902 50.88765 11.16501 51.30995 11.60571 52.01805 11.88051 52.47874 12.15532 52.93944 12.59601 53.70895 12.8708 54.20802 13.1456 54.70709 13.5863 55.53825 13.8611 56.07573 14.1359 56.6132 14.5766 57.50595 14.8514 58.08185 15.12619 58.65773 15.5669 59.61206 15.84169 60.22635 16.11649 60.84065 16.55717 61.85658 16.83199 62.5093 17.10678 63.16199 17.54749 64.23952 17.82228 64.93063 18.09708 65.62177 18.53777 66.76091 18.81258 67.4904 19.08737 68.21991 19.52808 69.42046 19.80287 70.18837 20.07767 70.95625 20.51837 72.21863 20.79317 73.02495 21.06798 73.83125 21.50867 75.15503 21.78346 75.99971 22.05826 76.8444 22.49896 78.22981 22.77376 79.11292 23.04857 79.99602 23.48926 81.44301 23.76405 82.36452 24.03885 83.28603 24.47955 84.79462 24.75435 85.75453 25.02916 86.71445 25.46985 88.28467 25.74464 89.28296 26.01944 90.28127 26.46014 91.91289 26.73494 92.94958 27.00974 93.9863 27.45044 95.67972 27.72523 96.75484 28.00003 97.82996 28.44073 99.5848 28.71553 100.69829 28.99033 101.81178 29.43103 103.62825 29.70583 104.78015 29.98064 105.93204 30.42133 107.81012 30.69614 109.00043 30.97092 110.19073 31.68642 113.35912 31.27388 111.53223"/>
<path transform="matrix(-.22020442,-.97544869,-.9754195,.220211,27.026204,22.197274)" d="M1.27522 0C-.31879 .31879-1.91284 .9564-3.8257 2.07224-1.91284 .6376-1.91284-.6376-3.8257-2.07224-1.91284-.9564-.31879-.31879 1.27522 0Z" fill="#ff0000"/>
<path transform="matrix(-.22020442,-.97544869,-.9754195,.220211,27.026204,22.197274)" stroke-width="1.19553" stroke-linecap="butt" stroke-linejoin="round" fill="none" stroke="#ff0000" d="M1.27522 0C-.31879 .31879-1.91284 .9564-3.8257 2.07224-1.91284 .6376-1.91284-.6376-3.8257-2.07224-1.91284-.9564-.31879-.31879 1.27522 0Z"/>
<path transform="matrix(.2202644,-.9754387,-.97540959,-.22027099,89.581378,22.224244)" d="M1.27522 0C-.31879 .31879-1.91284 .9564-3.8257 2.07224-1.91284 .6376-1.91284-.6376-3.8257-2.07224-1.91284-.9564-.31879-.31879 1.27522 0Z" fill="#ff0000"/>
<path transform="matrix(.2202644,-.9754387,-.97540959,-.22027099,89.581378,22.224244)" stroke-width="1.19553" stroke-linecap="butt" stroke-linejoin="round" fill="none" stroke="#ff0000" d="M1.27522 0C-.31879 .31879-1.91284 .9564-3.8257 2.07224-1.91284 .6376-1.91284-.6376-3.8257-2.07224-1.91284-.9564-.31879-.31879 1.27522 0Z"/>
<use data-text="(" xlink:href="#font_3_85" transform="matrix(9.962799,0,0,-9.963098,51.940744,192.949)"/>
<use data-text="a" xlink:href="#font_3_28" transform="matrix(9.962799,0,0,-9.963098,55.816278,192.949)"/>
<use data-text=")" xlink:href="#font_3_86" transform="matrix(9.962799,0,0,-9.963098,60.797677,192.949)"/>
</svg>
