<svg xmlns="http://www.w3.org/2000/svg" xmlns:xlink="http://www.w3.org/1999/xlink" version="1.1" width="143" height="145" viewBox="0 0 143 145">
<defs>
<path id="font_1_3" d="M.33399964 .30233766C.33999635 .32835389 .36299134 .42037965 .43299867 .42037965 .43798829 .42037965 .46199037 .42037965 .48298646 .40734864 .45498658 .402359 .43499757 .37734986 .43499757 .35334779 .43499757 .33735658 .44599916 .31835938 .47299195 .31835938 .49499513 .31835938 .5269928 .3363495 .5269928 .37635804 .5269928 .42837525 .46798707 .4423828 .43399049 .4423828 .37599183 .4423828 .34098817 .38935853 .32899476 .36634828 .3039856 .43237306 .25 .4423828 .22099304 .4423828 .116989139 .4423828 .05999756 .3133545 .05999756 .28834535 .05999756 .27833558 .069992069 .27833558 .07199097 .27833558 .07998657 .27833558 .08299255 .28033448 .084991458 .28933717 .11898804 .39535523 .18499756 .42037965 .21899414 .42037965 .23799134 .42037965 .272995 .4113617 .272995 .35334779 .272995 .32235719 .2559967 .25532533 .21899414 .11528015 .20298767 .053268434 .16799927 .011245728 .12399292 .011245728 .117996219 .011245728 .09498596 .011245728 .07398987 .024276734 .09899902 .029266358 .12098694 .05027771 .12098694 .07827759 .12098694 .105270389 .09899902 .11328125 .083999637 .11328125 .053985597 .11328125 .0289917 .08728027 .0289917 .055267335 .0289917 .009246826 .07899475-.0107421879 .12298584-.0107421879 .18899536-.0107421879 .22499085 .059280397 .22799683 .0652771 .23999024 .028274537 .27598573-.0107421879 .33599855-.0107421879 .43899537-.0107421879 .49598695 .118270877 .49598695 .14328003 .49598695 .1532898 .4869995 .1532898 .48399354 .1532898 .47499085 .1532898 .47299195 .14929199 .47099305 .14228821 .43798829 .03527832 .36999513 .011245728 .33799745 .011245728 .29899598 .011245728 .2829895 .043273927 .2829895 .07727051 .2829895 .09927368 .2889862 .121276859 .2999878 .16529846L.33399964 .30233766Z"/>
<path id="font_1_4" d="M.48599244 .38136292C.48999024 .39537049 .48999024 .39736939 .48999024 .40437318 .48999024 .42237855 .47599793 .43138124 .46099855 .43138124 .45098878 .43138124 .43499757 .42536927 .42599488 .41036988 .42399598 .405365 .41600038 .37435914 .4119873 .35635377 .40499879 .33035279 .397995 .30334474 .3919983 .27633668L.34700013 .09628296C.34298707 .08126831 .2999878 .011245728 .23399353 .011245728 .18299866 .011245728 .17199707 .055267335 .17199707 .0922699 .17199707 .1382904 .18899536 .20030213 .22299195 .28833009 .23899842 .3293457 .24299622 .3403473 .24299622 .36035157 .24299622 .405365 .21099854 .4423828 .16099549 .4423828 .06599426 .4423828 .0289917 .29733277 .0289917 .28833009 .0289917 .27833558 .038986207 .27833558 .040985109 .27833558 .050994874 .27833558 .051986696 .28033448 .056991579 .29634095 .083999637 .3903656 .12399292 .42037965 .1579895 .42037965 .1659851 .42037965 .18299866 .42037965 .18299866 .3883667 .18299866 .36335755 .17298889 .3373413 .1659851 .31834413 .12599182 .21231079 .10798645 .1552887 .10798645 .10827637 .10798645 .019256592 .17098999-.0107421879 .22999573-.0107421879 .2689972-.0107421879 .30299378 .0062561037 .33099366 .03425598 .31799317-.017745972 .30599977-.06674194 .2659912-.11973572 .23999024-.15385437 .20199585-.18309021 .1559906-.18309021 .14199829-.18309021 .09700012-.18005371 .07998657-.14074707 .09599304-.14074707 .10899353-.14074707 .12298584-.1287384 .1329956-.11973572 .14299011-.10673523 .14299011-.08773804 .14299011-.056747438 .115997318-.052734376 .10598755-.052734376 .08299255-.052734376 .049987794-.068740848 .049987794-.11773682 .049987794-.16796875 .09399414-.20507813 .1559906-.20507813 .25898744-.20507813 .3619995-.11373901 .3899994-.00074768069L.48599244 .38136292Z"/>
<path id="font_2_1" d="M.6589966 .23046875C.6759949 .23046875 .69400027 .23046875 .69400027 .25045777 .69400027 .27046205 .6759949 .27046205 .6589966 .27046205H.117996219C.100997928 .27046205 .08299255 .27046205 .08299255 .25045777 .08299255 .23046875 .100997928 .23046875 .117996219 .23046875H.6589966Z"/>
<path id="font_3_3" d="M.2899933 .35191346C.37199403 .37893678 .42999269 .4490509 .42999269 .52809146 .42999269 .6100464 .34199525 .6660156 .24598694 .6660156 .14498902 .6660156 .068984989 .60606387 .068984989 .53009036 .068984989 .49710084 .09098816 .47808839 .11999512 .47808839 .15098572 .47808839 .17098999 .50009158 .17098999 .5290985 .17098999 .57910159 .12399292 .57910159 .10899353 .57910159 .13999939 .62802127 .20599365 .64100649 .24198914 .64100649 .2829895 .64100649 .33799745 .6190338 .33799745 .5290985 .33799745 .51708987 .33599855 .45906068 .30999757 .4149933 .27999879 .36691285 .24598694 .36390687 .22099304 .36291505 .21299744 .36190797 .18899536 .35990907 .18199158 .35990907 .17399597 .35890199 .16699219 .35791017 .16699219 .3479004 .16699219 .33691407 .17399597 .33691407 .19099427 .33691407H.23498535C.31698609 .33691407 .35398866 .2686615 .35398866 .17037964 .35398866 .034469606 .2849884 .0055389406 .24099732 .0055389406 .19799805 .0055389406 .12298584 .022491456 .08799744 .08137512 .12298584 .07637024 .1539917 .09837341 .1539917 .1363678 .1539917 .17237854 .1269989 .19238281 .09799194 .19238281 .07398987 .19238281 .041992189 .17837525 .041992189 .1343689 .041992189 .043441774 .1349945-.022460938 .24398804-.022460938 .3659973-.022460938 .45700074 .06838989 .45700074 .17037964 .45700074 .252594 .3939972 .33088685 .2899933 .35191346Z"/>
<path id="font_3_4" d="M.68699648 .32714845C.70199587 .32714845 .72099307 .32714845 .72099307 .34713746 .72099307 .36714173 .70199587 .36714173 .6879883 .36714173H.08898926C.07499695 .36714173 .055999757 .36714173 .055999757 .34713746 .055999757 .32714845 .07499695 .32714845 .08999634 .32714845H.68699648M.6879883 .13284302C.70199587 .13284302 .72099307 .13284302 .72099307 .15284729 .72099307 .17285156 .70199587 .17285156 .68699648 .17285156H.08999634C.07499695 .17285156 .055999757 .17285156 .055999757 .15284729 .055999757 .13284302 .07499695 .13284302 .08898926 .13284302H.6879883Z"/>
<path id="font_1_2" d="M.47099305 .3773346C.47200013 .3833313 .47399903 .38833619 .47399903 .39535523 .47399903 .41236878 .46199037 .42237855 .44499208 .42237855 .43499757 .42237855 .4079895 .41537477 .4039917 .3793335 .38598634 .41636659 .35099793 .4423828 .31098939 .4423828 .19699097 .4423828 .07299805 .30226136 .07299805 .15812683 .07299805 .059020997 .13398743 0 .20599365 0 .2649994 0 .31199647 .04701233 .32199098 .058029176L.32299806 .057022096C.3019867-.031982423 .2899933-.07295227 .2899933-.07495117 .28599549-.08395386 .2519989-.18309021 .1459961-.18309021 .1269989-.18309021 .09399414-.18206787 .06599426-.17297364 .09599304-.16394043 .10699463-.13793946 .10699463-.12094116 .10699463-.10494995 .09599304-.0859375 .068984989-.0859375 .04699707-.0859375 .01499939-.10394287 .01499939-.14395142 .01499939-.18508911 .051986696-.20507813 .147995-.20507813 .272995-.20507813 .34498597-.12693787 .3600006-.06695557L.47099305 .3773346M.34098817 .12809754C.33499146 .10206604 .31199647 .077041629 .2899933 .058029176 .2689972 .040008546 .23799134 .021987915 .20899964 .021987915 .15899658 .021987915 .14399719 .074035648 .14399719 .11407471 .14399719 .16212464 .17298889 .28024293 .19999695 .33128358 .22698975 .38034059 .269989 .42037965 .31199647 .42037965 .37799073 .42037965 .3919983 .33929444 .3919983 .33428956 .3919983 .32928468 .3899994 .3232727 .3889923 .3192749L.34098817 .12809754Z"/>
<path id="font_3_1" d="M.33099366-.2400055C.33099366-.23701477 .33099366-.23500061 .31399537-.21800232 .18899536-.0920105 .15699768 .09700012 .15699768 .25 .15699768 .42399598 .19499207 .59799197 .31799317 .72299197 .33099366 .73498538 .33099366 .7369995 .33099366 .73999026 .33099366 .746994 .32699586 .75 .32099916 .75 .31098939 .75 .22099304 .6819916 .1619873 .5549927 .11099243 .44499208 .09899902 .33399964 .09899902 .25 .09899902 .17199707 .10998535 .050994874 .16499329-.06201172 .22499085-.18501282 .31098939-.25 .32099916-.25 .32699586-.25 .33099366-.24700928 .33099366-.2400055Z"/>
<path id="font_3_2" d="M.2889862 .25C.2889862 .32798768 .27799989 .44898988 .22299195 .56199648 .16299439 .68499758 .07699585 .75 .066986087 .75 .06098938 .75 .056991579 .74598696 .056991579 .73999026 .056991579 .7369995 .056991579 .73498538 .07598877 .71699526 .17399597 .6179962 .23098755 .45899964 .23098755 .25 .23098755 .07899475 .19400025-.09700012 .069992069-.2230072 .056991579-.23500061 .056991579-.23701477 .056991579-.2400055 .056991579-.2460022 .06098938-.25 .066986087-.25 .07699585-.25 .16699219-.18200684 .22599793-.055007936 .2769928 .054992677 .2889862 .16600037 .2889862 .25Z"/>
<path id="font_4_1" d="M.32998658 .3310547C.42199708 .3310547 .48298646 .2737732 .48298646 .17437744 .48298646 .07237244 .41999818 .01852417 .33099366 .01852417 .31999208 .01852417 .20098877 .01852417 .1499939 .070373538 .19099427 .07637024 .20298767 .1073761 .20298767 .13137818 .20298767 .16838074 .1749878 .19238281 .14199829 .19238281 .10998535 .19238281 .07998657 .17137146 .07998657 .12937927 .07998657 .025512696 .19799805-.022460938 .33399964-.022460938 .49798585-.022460938 .59999087 .07637024 .59999087 .17337036 .59999087 .25567628 .5269928 .3260193 .41299439 .35205079 .5329895 .3909912 .5649872 .46684266 .5649872 .5228424 .5649872 .60491946 .46299745 .6660156 .33699037 .6660156 .21398926 .6660156 .114990238 .61395266 .114990238 .5238342 .114990238 .47683717 .15299988 .46484376 .17199707 .46484376 .20098877 .46484376 .22898865 .48583985 .22898865 .5218353 .22898865 .5448303 .21699524 .5728302 .18099976 .57884219 .22399903 .625 .31298829 .628006 .33399964 .628006 .40699769 .628006 .45899964 .5908661 .45899964 .5228424 .45899964 .46484376 .42099 .37402345 .31599427 .368042 .28799439 .3670349 .28399659 .3660431 .2579956 .365036 .24699402 .3640442 .23599243 .36305238 .23599243 .34805299 .23599243 .3310547 .24598694 .3310547 .2639923 .3310547H.32998658Z"/>
<path id="font_2_2" d="M.3889923-.8549652 .21299744-.4659729C.20599365-.44996644 .20098877-.44996644 .19799805-.44996644 .19699097-.44996644 .19198609-.44996644 .18099976-.45796205L.085998538-.52996829C.07299805-.53996279 .07299805-.54296877 .07299805-.54597476 .07299805-.55096438 .07598877-.55696108 .08299255-.55696108 .08898926-.55696108 .10598755-.54296877 .116989139-.53497317 .12298584-.52996829 .13798523-.5189667 .14898682-.51097109L.34599305-.9439697C.35299684-.95996096 .35798646-.95996096 .36698915-.95996096 .38198854-.95996096 .3849945-.95396426 .3919983-.9399719L.84599307 .000030517579C.8529968 .014038086 .8529968 .018035889 .8529968 .02003479 .8529968 .030029297 .8450012 .040039064 .83299258 .040039064 .82499697 .040039064 .81799319 .03503418 .80999758 .01902771L.3889923-.8549652Z"/>
<path id="font_1_1" d="M.36698915 .3996582H.45298768C.47299195 .3996582 .48298646 .3996582 .48298646 .41966249 .48298646 .43066407 .47299195 .43066407 .45599366 .43066407H.37298585L.3939972 .5449524C.397995 .5660095 .4119873 .6370239 .41799928 .6490326 .4269867 .66804507 .44400025 .68307498 .46499635 .68307498 .46899415 .68307498 .49499513 .68307498 .5139923 .66503909 .46998597 .661026 .45999146 .6260376 .45999146 .6110382 .45999146 .58802798 .47799684 .57603457 .49699403 .57603457 .522995 .57603457 .5519867 .5980377 .5519867 .6360321 .5519867 .6820679 .5059967 .7050781 .46499635 .7050781 .43099977 .7050781 .36799623 .68707278 .33799745 .58802798 .33198548 .56700137 .32899476 .5569763 .30499269 .43066407H.23599243C.21699524 .43066407 .20599365 .43066407 .20599365 .4116516 .20599365 .3996582 .21499634 .3996582 .23399353 .3996582H.2999878L.22499085 .0048828127C.20698548-.09207153 .18998719-.18309021 .13798523-.18309021 .13398743-.18309021 .10899353-.18309021 .08999634-.16506958 .13598633-.1620636 .14498902-.12606812 .14498902-.111068729 .14498902-.08807373 .1269989-.07606506 .10798645-.07606506 .08198547-.07606506 .052993776-.09806824 .052993776-.13606262 .052993776-.18109131 .09700012-.20507813 .13798523-.20507813 .19299317-.20507813 .23298645-.14607239 .25099183-.108062747 .2829895-.04508972 .30599977 .07583618 .30699159 .082839969L.36698915 .3996582Z"/>
<path id="font_5_1" d="M.272995 .33428956C.35099793 .33428956 .40699769 .2803192 .40699769 .1733551 .40699769 .04940796 .33499146 .012466431 .2769928 .012466431 .23699951 .012466431 .14898682 .0234375 .10699463 .082351688 .1539917 .084350589 .16499329 .11735535 .16499329 .13835144 .16499329 .17034912 .14099121 .19335938 .10998535 .19335938 .08198547 .19335938 .053985597 .17634583 .053985597 .13534546 .053985597 .041412355 .1579895-.01953125 .2789917-.01953125 .41799928-.01953125 .5139923 .07336426 .5139923 .1733551 .5139923 .2513275 .44999696 .32929994 .33999635 .35229493 .44499208 .39024354 .48298646 .4650879 .48298646 .5260773 .48298646 .60505679 .3919983 .6640625 .2809906 .6640625 .16999817 .6640625 .084991458 .61006167 .084991458 .5300751 .084991458 .49606324 .10699463 .47706605 .13699341 .47706605 .16799927 .47706605 .18798828 .5000763 .18798828 .5280762 .18798828 .5570679 .16799927 .57806399 .13699341 .5800781 .17199707 .62405398 .24099732 .63505557 .27799989 .63505557 .32299806 .63505557 .38598634 .6130676 .38598634 .5260773 .38598634 .48406983 .37199403 .43814088 .34599305 .4072113 .31298829 .36927796 .2849884 .3672943 .23498535 .36428834 .20999146 .3623047 .20799256 .3623047 .20298767 .3612976 .20098877 .3612976 .19299317 .3592987 .19299317 .34829713 .19299317 .33428956 .20199585 .33428956 .21899414 .33428956H.272995Z"/>
</defs>
<path transform="matrix(1.00008,0,0,-1.00008,63.980928,80.47139)" stroke-width=".3985" stroke-linecap="butt" stroke-miterlimit="10" stroke-linejoin="miter" fill="none" stroke="#00aeef" d="M-62.36331-62.36331H62.36331M-62.36331-46.77248H62.36331M-62.36331-31.18166H62.36331M-62.36331-15.59082H62.36331M-62.36331 0H62.36331M-62.36331 15.59082H62.36331M-62.36331 31.18166H62.36331M-62.36331 46.77248H62.36331M-62.36331 62.35783H62.36331M-62.36331-62.36331V62.36331M-46.77248-62.36331V62.36331M-31.18166-62.36331V62.36331M-15.59082-62.36331V62.36331M0-62.36331V62.36331M15.59082-62.36331V62.36331M31.18166-62.36331V62.36331M46.77248-62.36331V62.36331M62.35783-62.36331V62.36331M62.36331 62.36331"/>
<path transform="matrix(1.00008,0,0,-1.00008,63.980928,80.47139)" stroke-width=".79701" stroke-linecap="butt" stroke-miterlimit="10" stroke-linejoin="miter" fill="none" stroke="#000000" d="M-62.36331 0H67.16493"/>
<path transform="matrix(1.00008,0,0,-1.00008,131.15123,80.47139)" d="M1.0361 0C-.25902 .25902-1.55415 .77707-3.1083 1.68365-1.55415 .51805-1.55415-.51805-3.1083-1.68365-1.55415-.77707-.25902-.25902 1.0361 0Z"/>
<path transform="matrix(1.00008,0,0,-1.00008,131.15123,80.47139)" stroke-width=".79701" stroke-linecap="butt" stroke-linejoin="round" fill="none" stroke="#000000" d="M1.0361 0C-.25902 .25902-1.55415 .77707-3.1083 1.68365-1.55415 .51805-1.55415-.51805-3.1083-1.68365-1.55415-.77707-.25902-.25902 1.0361 0Z"/>
<use data-text="x" xlink:href="#font_1_3" transform="matrix(9.963397,0,0,-9.963397,136.30571,82.61656)"/>
<path transform="matrix(1.00008,0,0,-1.00008,63.980928,80.47139)" stroke-width=".79701" stroke-linecap="butt" stroke-miterlimit="10" stroke-linejoin="miter" fill="none" stroke="#000000" d="M0-62.36331V67.16493"/>
<path transform="matrix(0,-1.00008,-1.00008,-0,63.980928,13.301086)" d="M1.0361 0C-.25902 .25902-1.55415 .77707-3.1083 1.68365-1.55415 .51805-1.55415-.51805-3.1083-1.68365-1.55415-.77707-.25902-.25902 1.0361 0Z"/>
<path transform="matrix(0,-1.00008,-1.00008,-0,63.980928,13.301086)" stroke-width=".79701" stroke-linecap="butt" stroke-linejoin="round" fill="none" stroke="#000000" d="M1.0361 0C-.25902 .25902-1.55415 .77707-3.1083 1.68365-1.55415 .51805-1.55415-.51805-3.1083-1.68365-1.55415-.77707-.25902-.25902 1.0361 0Z"/>
<use data-text="y" xlink:href="#font_1_4" transform="matrix(9.963397,0,0,-9.963397,61.35972,6.20945)"/>
<path transform="matrix(1.00008,0,0,-1.00008,63.980928,80.47139)" stroke-width=".3985" stroke-linecap="butt" stroke-miterlimit="10" stroke-linejoin="miter" fill="none" stroke="#000000" d="M-46.77248 2.33852V-2.33876"/>
<path transform="matrix(1.00008,0,0,-1.00008,63.980928,80.47139)" d="M-54.13387-13.77379H-39.411088V-4.5305607H-54.13387Z" fill="#ffffff"/>
<use data-text="&#x2212;" xlink:href="#font_2_1" transform="matrix(9.963397,0,0,-9.963397,10.838669,92.41934)"/>
<use data-text="3" xlink:href="#font_3_3" transform="matrix(9.963397,0,0,-9.963397,18.588288,92.41934)"/>
<path transform="matrix(1.00008,0,0,-1.00008,63.980928,80.47139)" stroke-width=".3985" stroke-linecap="butt" stroke-miterlimit="10" stroke-linejoin="miter" fill="none" stroke="#000000" d="M2.33852-46.77248H-2.33876"/>
<path transform="matrix(1.00008,0,0,-1.00008,63.980928,80.47139)" d="M-19.25334-51.39409H-4.5305597V-42.15086H-19.25334Z" fill="#ffffff"/>
<use data-text="&#x2212;" xlink:href="#font_2_1" transform="matrix(9.963397,0,0,-9.963397,45.722467,130.04335)"/>
<use data-text="3" xlink:href="#font_3_3" transform="matrix(9.963397,0,0,-9.963397,53.472085,130.04335)"/>
<path transform="matrix(1.00008,0,0,-1.00008,63.980928,80.47139)" stroke-width=".3985" stroke-linecap="butt" stroke-miterlimit="10" stroke-linejoin="miter" fill="none" stroke="#000000" d="M46.77248 2.33852V-2.33876"/>
<path transform="matrix(1.00008,0,0,-1.00008,63.980928,80.47139)" d="M43.2855-12.94354H50.259439V-4.5305597H43.2855Z" fill="#ffffff"/>
<use data-text="3" xlink:href="#font_3_3" transform="matrix(9.963397,0,0,-9.963397,108.26647,92.41934)"/>
<path transform="matrix(1.00008,0,0,-1.00008,63.980928,80.47139)" stroke-width=".3985" stroke-linecap="butt" stroke-miterlimit="10" stroke-linejoin="miter" fill="none" stroke="#000000" d="M2.33852 46.77248H-2.33876"/>
<path transform="matrix(1.00008,0,0,-1.00008,63.980928,80.47139)" d="M-11.5045 42.566H-4.5305607V50.97898H-11.5045Z" fill="#ffffff"/>
<use data-text="3" xlink:href="#font_3_3" transform="matrix(9.963397,0,0,-9.963397,53.472085,36.905908)"/>
<path transform="matrix(1.00008,0,0,-1.00008,63.980928,80.47139)" stroke-width=".79701" stroke-linecap="butt" stroke-dasharray="2.98883,2.98883" stroke-miterlimit="10" stroke-linejoin="miter" fill="none" stroke="#515151" d="M-61.34889-61.34889 61.34889 61.34889"/>
<path transform="matrix(-.70715656,.70715656,.70715656,.70715656,2.62714,141.82518)" d="M1.0361 0C-.25902 .25902-1.55415 .77707-3.1083 1.68365-1.55415 .51805-1.55415-.51805-3.1083-1.68365-1.55415-.77707-.25902-.25902 1.0361 0Z" fill="#515151"/>
<path transform="matrix(-.70715656,.70715656,.70715656,.70715656,2.62714,141.82518)" stroke-width=".79701" stroke-linecap="butt" stroke-linejoin="round" fill="none" stroke="#515151" d="M1.0361 0C-.25902 .25902-1.55415 .77707-3.1083 1.68365-1.55415 .51805-1.55415-.51805-3.1083-1.68365-1.55415-.77707-.25902-.25902 1.0361 0Z"/>
<path transform="matrix(.70715656,-.70715656,-.70715656,-.70715656,125.33472,19.117604)" d="M1.0361 0C-.25902 .25902-1.55415 .77707-3.1083 1.68365-1.55415 .51805-1.55415-.51805-3.1083-1.68365-1.55415-.77707-.25902-.25902 1.0361 0Z" fill="#515151"/>
<path transform="matrix(.70715656,-.70715656,-.70715656,-.70715656,125.33472,19.117604)" stroke-width=".79701" stroke-linecap="butt" stroke-linejoin="round" fill="none" stroke="#515151" d="M1.0361 0C-.25902 .25902-1.55415 .77707-3.1083 1.68365-1.55415 .51805-1.55415-.51805-3.1083-1.68365-1.55415-.77707-.25902-.25902 1.0361 0Z"/>
<path transform="matrix(1.00008,0,0,-1.00008,63.980928,80.47139)" d="M48.26097 34.74492H76.46565V44.95672H48.26097Z" fill="#ffffff"/>
<use data-text="y" xlink:href="#font_1_4" transform="matrix(9.963397,0,0,-9.963397,114.23895,41.793298)" fill="#515151"/>
<use data-text="=" xlink:href="#font_3_4" transform="matrix(9.963397,0,0,-9.963397,122.2486,41.793298)" fill="#515151"/>
<use data-text="x" xlink:href="#font_1_3" transform="matrix(9.963397,0,0,-9.963397,132.76644,41.793298)" fill="#515151"/>
<path transform="matrix(1.00008,0,0,-1.00008,63.980928,80.47139)" stroke-width=".79701" stroke-linecap="butt" stroke-miterlimit="10" stroke-linejoin="miter" fill="none" stroke="#ff0000" d="M-60.93237-24.55595C-58.21312-24.18909-58.21312-24.18909-56.69064-23.97455-55.16817-23.76-52.80695-23.41594-51.38103-23.20137-49.9551-22.98683-47.74602-22.64276-46.41348-22.42822-45.08096-22.21367-43.0194-21.86958-41.77711-21.65504-40.53484-21.44049-38.61516-21.09644-37.45999-20.88188-36.30481-20.66734-34.52267-20.32327-33.45142-20.10873-32.38016-19.89418-30.72955-19.5501-29.73903-19.33556-28.74852-19.12102-27.22527-18.77693-26.31236-18.56238-25.39948-18.34784-23.99802-18.00377-23.15952-17.78922-22.32103-17.57466-21.03629-17.2306-20.26906-17.01605-19.50183-16.80151-18.32901-16.45743-17.62984-16.24287-16.93066-16.02834-15.86417-15.68427-15.22993-15.46973-14.59569-15.25517-13.63104-14.91112-13.05862-14.69656-12.4862-14.48203-11.61816-14.13794-11.10431-13.92339-10.59045-13.70885-9.81349-13.36476-9.35504-13.15022-8.8966-12.93567-8.20631-12.59161-7.80016-12.37706-7.394-12.1625-6.78479-11.81844-6.42772-11.6039-6.07066-11.38934-5.5377-11.04527-5.22658-10.83073-4.91547-10.61618-4.4537-10.27211-4.1853-10.05756-3.91692-9.84302-3.52101-9.49895-3.29224-9.28441-3.06346-9.06985-2.72878-8.72577-2.53644-8.51123-2.3441-8.29669-2.06511-7.95262-1.90602-7.73805-1.74692-7.52351-1.51877-7.17944-1.38977-6.9649-1.26079-6.75034-1.07832-6.40628-.9763-6.19173-.87428-5.97719-.7327-5.63312-.65443-5.41856-.57617-5.20403-.46994-4.85994-.41226-4.6454-.35457-4.43085-.27882-4.08679-.23859-3.87224-.19836-3.6577-.1482-3.31361-.12227-3.09906-.09633-2.88452-.06645-2.54045-.0516-2.3259-.03674-2.11134-.0221-1.76729-.01521-1.55273-.0083-1.3382-.004-.99411-.00188-.77957 .00018-.56502-.00047-.22095 0-.00641 .00047 .20811-.00038 .55217 .00165 .76672 .00372 .98128 .00816 1.32535 .01497 1.53989 .02176 1.75444 .03598 2.09853 .05066 2.31306 .06532 2.5276 .09508 2.87167 .12083 3.08623 .14658 3.30077 .19624 3.64484 .23622 3.85938 .27618 4.07393 .35156 4.418 .40892 4.63255 .4663 4.84709 .57178 5.19116 .64967 5.40573 .72757 5.62027 .86873 5.96434 .97037 6.17888 1.07199 6.39343 1.25366 6.7375 1.38217 6.95206 1.51067 7.1666 1.73796 7.51067 1.8965 7.72522 2.05504 7.93976 2.33301 8.28384 2.52478 8.49838 2.71655 8.71294 3.05049 9.05699 3.27869 9.27155 3.50687 9.48608 3.90167 9.83017 4.16936 10.04471 4.43706 10.25926 4.89763 10.60333 5.20802 10.81787 5.51843 11.03244 6.05028 11.3765 6.40654 11.59105 6.76283 11.80559 7.37059 12.14967 7.7759 12.36421 8.18118 12.57877 8.87015 12.92284 9.3277 13.13737 9.78523 13.35191 10.56071 13.696 11.07361 13.91055 11.58653 14.12509 12.45296 14.46916 13.02438 14.6837 13.59581 14.89825 14.55891 15.24232 15.19211 15.45688 15.82529 15.67142 16.88991 16.01549 17.58795 16.23004 18.286 16.4446 19.45706 16.78867 20.22314 17.0032 20.98921 17.21776 22.272 17.56183 23.10931 17.77638 23.94662 17.99092 25.34625 18.33499 26.25789 18.54953 27.16953 18.76408 28.69066 19.10817 29.67981 19.32271 30.66893 19.53726 32.31705 19.88132 33.38695 20.09587 34.45686 20.31041 36.23718 20.6545 37.391 20.86903 38.54482 21.08359 40.4621 21.42766 41.7029 21.6422 42.94368 21.85677 45.00284 22.20082 46.3338 22.41537 47.66476 22.62991 49.87128 22.974 51.29562 23.18854 52.71997 23.40309 55.07863 23.74716 56.59953 23.9617 58.12042 24.17624 62.25722 24.73488 60.83557 24.54292"/>
<path transform="matrix(-.9910593,.1336807,.1336807,.9910593,3.0436898,105.029308)" d="M1.0361 0C-.25902 .25902-1.55415 .77707-3.1083 1.68365-1.55415 .51805-1.55415-.51805-3.1083-1.68365-1.55415-.77707-.25902-.25902 1.0361 0Z" fill="#ff0000"/>
<path transform="matrix(-.9910593,.1336807,.1336807,.9910593,3.0436898,105.029308)" stroke-width=".79701" stroke-linecap="butt" stroke-linejoin="round" fill="none" stroke="#ff0000" d="M1.0361 0C-.25902 .25902-1.55415 .77707-3.1083 1.68365-1.55415 .51805-1.55415-.51805-3.1083-1.68365-1.55415-.77707-.25902-.25902 1.0361 0Z"/>
<path transform="matrix(.9910493,-.1338107,-.1338107,-.9910493,124.821369,55.926507)" d="M1.0361 0C-.25902 .25902-1.55415 .77707-3.1083 1.68365-1.55415 .51805-1.55415-.51805-3.1083-1.68365-1.55415-.77707-.25902-.25902 1.0361 0Z" fill="#ff0000"/>
<path transform="matrix(.9910493,-.1338107,-.1338107,-.9910493,124.821369,55.926507)" stroke-width=".79701" stroke-linecap="butt" stroke-linejoin="round" fill="none" stroke="#ff0000" d="M1.0361 0C-.25902 .25902-1.55415 .77707-3.1083 1.68365-1.55415 .51805-1.55415-.51805-3.1083-1.68365-1.55415-.77707-.25902-.25902 1.0361 0Z"/>
<path transform="matrix(1.00008,0,0,-1.00008,63.980928,80.47139)" stroke-width=".79701" stroke-linecap="butt" stroke-miterlimit="10" stroke-linejoin="miter" fill="none" stroke="#0000ff" d="M-24.55595-60.93237C-24.18909-58.21312-24.18909-58.21312-23.97455-56.69064-23.76-55.16817-23.41594-52.80695-23.20137-51.38103-22.98683-49.9551-22.64276-47.74602-22.42822-46.41348-22.21367-45.08096-21.86958-43.0194-21.65504-41.77711-21.44049-40.53484-21.09644-38.61516-20.88188-37.45999-20.66734-36.30481-20.32327-34.52267-20.10873-33.45142-19.89418-32.38016-19.5501-30.72955-19.33556-29.73903-19.12102-28.74852-18.77693-27.22527-18.56238-26.31236-18.34784-25.39948-18.00377-23.99802-17.78922-23.15952-17.57466-22.32103-17.2306-21.03629-17.01605-20.26906-16.80151-19.50183-16.45743-18.32901-16.24287-17.62984-16.02834-16.93066-15.68427-15.86417-15.46973-15.22993-15.25517-14.59569-14.91112-13.63104-14.69656-13.05862-14.48203-12.4862-14.13794-11.61816-13.92339-11.10431-13.70885-10.59045-13.36476-9.81349-13.15022-9.35504-12.93567-8.8966-12.59161-8.20631-12.37706-7.80016-12.1625-7.394-11.81844-6.78479-11.6039-6.42772-11.38934-6.07066-11.04527-5.5377-10.83073-5.22658-10.61618-4.91547-10.27211-4.4537-10.05756-4.1853-9.84302-3.91692-9.49895-3.52101-9.28441-3.29224-9.06985-3.06346-8.72577-2.72878-8.51123-2.53644-8.29669-2.3441-7.95262-2.06511-7.73805-1.90602-7.52351-1.74692-7.17944-1.51877-6.9649-1.38977-6.75034-1.26079-6.40628-1.07832-6.19173-.9763-5.97719-.87428-5.63312-.7327-5.41856-.65443-5.20403-.57617-4.85994-.46994-4.6454-.41226-4.43085-.35457-4.08679-.27882-3.87224-.23859-3.6577-.19836-3.31361-.1482-3.09906-.12227-2.88452-.09633-2.54045-.06645-2.3259-.0516-2.11134-.03674-1.76729-.0221-1.55273-.01521-1.3382-.0083-.99411-.004-.77957-.00188-.56502 .00018-.22095-.00047-.00641 0 .20811 .00047 .55217-.00038 .76672 .00165 .98128 .00372 1.32535 .00816 1.53989 .01497 1.75444 .02176 2.09853 .03598 2.31306 .05066 2.5276 .06532 2.87167 .09508 3.08623 .12083 3.30077 .14658 3.64484 .19624 3.85938 .23622 4.07393 .27618 4.418 .35156 4.63255 .40892 4.84709 .4663 5.19116 .57178 5.40573 .64967 5.62027 .72757 5.96434 .86873 6.17888 .97037 6.39343 1.07199 6.7375 1.25366 6.95206 1.38217 7.1666 1.51067 7.51067 1.73796 7.72522 1.8965 7.93976 2.05504 8.28384 2.33301 8.49838 2.52478 8.71294 2.71655 9.05699 3.05049 9.27155 3.27869 9.48608 3.50687 9.83017 3.90167 10.04471 4.16936 10.25926 4.43706 10.60333 4.89763 10.81787 5.20802 11.03244 5.51843 11.3765 6.05028 11.59105 6.40654 11.80559 6.76283 12.14967 7.37059 12.36421 7.7759 12.57877 8.18118 12.92284 8.87015 13.13737 9.3277 13.35191 9.78523 13.696 10.56071 13.91055 11.07361 14.12509 11.58653 14.46916 12.45296 14.6837 13.02438 14.89825 13.59581 15.24232 14.55891 15.45688 15.19211 15.67142 15.82529 16.01549 16.88991 16.23004 17.58795 16.4446 18.286 16.78867 19.45706 17.0032 20.22314 17.21776 20.98921 17.56183 22.272 17.77638 23.10931 17.99092 23.94662 18.33499 25.34625 18.54953 26.25789 18.76408 27.16953 19.10817 28.69066 19.32271 29.67981 19.53726 30.66893 19.88132 32.31705 20.09587 33.38695 20.31041 34.45686 20.6545 36.23718 20.86903 37.391 21.08359 38.54482 21.42766 40.4621 21.6422 41.7029 21.85677 42.94368 22.20082 45.00284 22.41537 46.3338 22.62991 47.66476 22.974 49.87128 23.18854 51.29562 23.40309 52.71997 23.74716 55.07863 23.9617 56.59953 24.17624 58.12042 24.73488 62.25722 24.54292 60.83557"/>
<path transform="matrix(-.1336807,.9910593,.9910593,.1336807,39.42301,141.40863)" d="M1.0361 0C-.25902 .25902-1.55415 .77707-3.1083 1.68365-1.55415 .51805-1.55415-.51805-3.1083-1.68365-1.55415-.77707-.25902-.25902 1.0361 0Z" fill="#0000ff"/>
<path transform="matrix(-.1336807,.9910593,.9910593,.1336807,39.42301,141.40863)" stroke-width=".79701" stroke-linecap="butt" stroke-linejoin="round" fill="none" stroke="#0000ff" d="M1.0361 0C-.25902 .25902-1.55415 .77707-3.1083 1.68365-1.55415 .51805-1.55415-.51805-3.1083-1.68365-1.55415-.77707-.25902-.25902 1.0361 0Z"/>
<path transform="matrix(.1338107,-.9910493,-.9910493,-.1338107,88.52581,19.63095)" d="M1.0361 0C-.25902 .25902-1.55415 .77707-3.1083 1.68365-1.55415 .51805-1.55415-.51805-3.1083-1.68365-1.55415-.77707-.25902-.25902 1.0361 0Z" fill="#0000ff"/>
<path transform="matrix(.1338107,-.9910493,-.9910493,-.1338107,88.52581,19.63095)" stroke-width=".79701" stroke-linecap="butt" stroke-linejoin="round" fill="none" stroke="#0000ff" d="M1.0361 0C-.25902 .25902-1.55415 .77707-3.1083 1.68365-1.55415 .51805-1.55415-.51805-3.1083-1.68365-1.55415-.77707-.25902-.25902 1.0361 0Z"/>
<path transform="matrix(1.00008,0,0,-1.00008,63.980928,80.47139)" d="M18.43436 1.35063H68.87436V15.79935H18.43436Z" fill="#ffffff"/>
<use data-text="g" xlink:href="#font_1_2" transform="matrix(9.963397,0,0,-9.963397,84.40956,74.636928)" fill="#ff0000"/>
<use data-text="(" xlink:href="#font_3_1" transform="matrix(9.963397,0,0,-9.963397,89.51997,74.636928)" fill="#ff0000"/>
<use data-text="x" xlink:href="#font_1_3" transform="matrix(9.963397,0,0,-9.963397,93.39427,74.636928)" fill="#ff0000"/>
<use data-text=")" xlink:href="#font_3_2" transform="matrix(9.963397,0,0,-9.963397,99.08873,74.636928)" fill="#ff0000"/>
<use data-text="=" xlink:href="#font_3_4" transform="matrix(9.963397,0,0,-9.963397,105.7144,74.636928)" fill="#ff0000"/>
<use data-text="3" xlink:href="#font_4_1" transform="matrix(4.9816987,0,0,-4.9816987,119.01532,71.28566)" fill="#ff0000"/>
<use data-text="&#x221a;" xlink:href="#font_2_2" transform="matrix(9.963397,0,0,-9.963397,116.87015,67.46035)" fill="#ff0000"/>
<path transform="matrix(1.00008,0,0,-1.00008,-64.57736,7.155531)" stroke-width=".3985" stroke-linecap="butt" stroke-miterlimit="10" stroke-linejoin="miter" fill="none" stroke="#ff0000" d="M189.736-60.101H195.43"/>
<use data-text="x" xlink:href="#font_1_3" transform="matrix(9.963397,0,0,-9.963397,125.17381,74.636928)" fill="#ff0000"/>
<path transform="matrix(1.00008,0,0,-1.00008,63.980928,80.47139)" d="M-48.35788 16.09348H-1.5329285V30.678978H-48.35788Z" fill="#ffffff"/>
<use data-text="f" xlink:href="#font_1_1" transform="matrix(9.963397,0,0,-9.963397,17.612214,59.892747)" fill="#0000ff"/>
<use data-text="(" xlink:href="#font_3_1" transform="matrix(9.963397,0,0,-9.963397,23.562684,59.892747)" fill="#0000ff"/>
<use data-text="x" xlink:href="#font_1_3" transform="matrix(9.963397,0,0,-9.963397,27.437989,59.892747)" fill="#0000ff"/>
<use data-text=")" xlink:href="#font_3_2" transform="matrix(9.963397,0,0,-9.963397,33.13144,59.892747)" fill="#0000ff"/>
<use data-text="=" xlink:href="#font_3_4" transform="matrix(9.963397,0,0,-9.963397,39.75711,59.892747)" fill="#0000ff"/>
<use data-text="x" xlink:href="#font_1_3" transform="matrix(9.963397,0,0,-9.963397,50.290819,59.892747)" fill="#0000ff"/>
<use data-text="3" xlink:href="#font_5_1" transform="matrix(6.974358,0,0,-6.974358,55.985277,56.27646)" fill="#0000ff"/>
</svg>
