<svg xmlns="http://www.w3.org/2000/svg" xmlns:xlink="http://www.w3.org/1999/xlink" version="1.1" width="225" height="177" viewBox="0 0 225 177">
<defs>
<path id="font_1_3" d="M.33399964 .30233766C.33999635 .32835389 .36299134 .42037965 .43299867 .42037965 .43798829 .42037965 .46199037 .42037965 .48298646 .40734864 .45498658 .402359 .43499757 .37734986 .43499757 .35334779 .43499757 .33735658 .44599916 .31835938 .47299195 .31835938 .49499513 .31835938 .5269928 .3363495 .5269928 .37635804 .5269928 .42837525 .46798707 .4423828 .43399049 .4423828 .37599183 .4423828 .34098817 .38935853 .32899476 .36634828 .3039856 .43237306 .25 .4423828 .22099304 .4423828 .116989139 .4423828 .05999756 .3133545 .05999756 .28834535 .05999756 .27833558 .069992069 .27833558 .07199097 .27833558 .07998657 .27833558 .08299255 .28033448 .084991458 .28933717 .11898804 .39535523 .18499756 .42037965 .21899414 .42037965 .23799134 .42037965 .272995 .4113617 .272995 .35334779 .272995 .32235719 .2559967 .25532533 .21899414 .11528015 .20298767 .053268434 .16799927 .011245728 .12399292 .011245728 .117996219 .011245728 .09498596 .011245728 .07398987 .024276734 .09899902 .029266358 .12098694 .05027771 .12098694 .07827759 .12098694 .105270389 .09899902 .11328125 .083999637 .11328125 .053985597 .11328125 .0289917 .08728027 .0289917 .055267335 .0289917 .009246826 .07899475-.0107421879 .12298584-.0107421879 .18899536-.0107421879 .22499085 .059280397 .22799683 .0652771 .23999024 .028274537 .27598573-.0107421879 .33599855-.0107421879 .43899537-.0107421879 .49598695 .118270877 .49598695 .14328003 .49598695 .1532898 .4869995 .1532898 .48399354 .1532898 .47499085 .1532898 .47299195 .14929199 .47099305 .14228821 .43798829 .03527832 .36999513 .011245728 .33799745 .011245728 .29899598 .011245728 .2829895 .043273927 .2829895 .07727051 .2829895 .09927368 .2889862 .121276859 .2999878 .16529846L.33399964 .30233766Z"/>
<path id="font_1_4" d="M.48599244 .38136292C.48999024 .39537049 .48999024 .39736939 .48999024 .40437318 .48999024 .42237855 .47599793 .43138124 .46099855 .43138124 .45098878 .43138124 .43499757 .42536927 .42599488 .41036988 .42399598 .405365 .41600038 .37435914 .4119873 .35635377 .40499879 .33035279 .397995 .30334474 .3919983 .27633668L.34700013 .09628296C.34298707 .08126831 .2999878 .011245728 .23399353 .011245728 .18299866 .011245728 .17199707 .055267335 .17199707 .0922699 .17199707 .1382904 .18899536 .20030213 .22299195 .28833009 .23899842 .3293457 .24299622 .3403473 .24299622 .36035157 .24299622 .405365 .21099854 .4423828 .16099549 .4423828 .06599426 .4423828 .0289917 .29733277 .0289917 .28833009 .0289917 .27833558 .038986207 .27833558 .040985109 .27833558 .050994874 .27833558 .051986696 .28033448 .056991579 .29634095 .083999637 .3903656 .12399292 .42037965 .1579895 .42037965 .1659851 .42037965 .18299866 .42037965 .18299866 .3883667 .18299866 .36335755 .17298889 .3373413 .1659851 .31834413 .12599182 .21231079 .10798645 .1552887 .10798645 .10827637 .10798645 .019256592 .17098999-.0107421879 .22999573-.0107421879 .2689972-.0107421879 .30299378 .0062561037 .33099366 .03425598 .31799317-.017745972 .30599977-.06674194 .2659912-.11973572 .23999024-.15385437 .20199585-.18309021 .1559906-.18309021 .14199829-.18309021 .09700012-.18005371 .07998657-.14074707 .09599304-.14074707 .10899353-.14074707 .12298584-.1287384 .1329956-.11973572 .14299011-.10673523 .14299011-.08773804 .14299011-.056747438 .115997318-.052734376 .10598755-.052734376 .08299255-.052734376 .049987794-.068740848 .049987794-.11773682 .049987794-.16796875 .09399414-.20507813 .1559906-.20507813 .25898744-.20507813 .3619995-.11373901 .3899994-.00074768069L.48599244 .38136292Z"/>
<path id="font_2_1" d="M.6589966 .23046875C.6759949 .23046875 .69400027 .23046875 .69400027 .25045777 .69400027 .27046205 .6759949 .27046205 .6589966 .27046205H.117996219C.100997928 .27046205 .08299255 .27046205 .08299255 .25045777 .08299255 .23046875 .100997928 .23046875 .117996219 .23046875H.6589966Z"/>
<path id="font_3_7" d="M.44898988 .20022583C.44898988 .3193512 .36698915 .41944886 .25898744 .41944886 .21099854 .41944886 .16799927 .40345765 .13198853 .36842347V.5637665C.1519928 .5577698 .18499756 .55078127 .21699524 .55078127 .33999635 .55078127 .4099884 .6417694 .4099884 .6547699 .4099884 .6607666 .40699769 .6657715 .3999939 .6657715 .39898683 .6657715 .39698792 .6657715 .3919983 .66278079 .37199403 .6537781 .32299806 .6337738 .2559967 .6337738 .21598816 .6337738 .16999817 .6407776 .12298584 .6617737 .114990238 .66477969 .11299133 .66477969 .11099243 .66477969 .100997928 .66477969 .100997928 .6567688 .100997928 .6407776V.34439088C.100997928 .32637025 .100997928 .31835938 .114990238 .31835938 .12199402 .31835938 .12399292 .32136537 .12799073 .32736207 .13899231 .3433838 .17599488 .39746095 .25698854 .39746095 .30899049 .39746095 .33399964 .35139466 .34199525 .33337403 .35798646 .29632569 .3600006 .25727845 .3600006 .20722962 .3600006 .17222595 .3600006 .11222839 .33599855 .07035828 .31199647 .031463624 .2749939 .0055389406 .22898865 .0055389406 .1559906 .0055389406 .09899902 .058380128 .08198547 .11723328 .084991458 .1162262 .08799744 .115234378 .09899902 .115234378 .13198853 .115234378 .14898682 .14022827 .14898682 .16423035 .14898682 .18823242 .13198853 .21322632 .09899902 .21322632 .084991458 .21322632 .049987794 .20622254 .049987794 .16023255 .049987794 .07434082 .11898804-.022460938 .23098755-.022460938 .34700013-.022460938 .44898988 .073349 .44898988 .20022583Z"/>
<path id="font_3_1" d="M.33099366-.2400055C.33099366-.23701477 .33099366-.23500061 .31399537-.21800232 .18899536-.0920105 .15699768 .09700012 .15699768 .25 .15699768 .42399598 .19499207 .59799197 .31799317 .72299197 .33099366 .73498538 .33099366 .7369995 .33099366 .73999026 .33099366 .746994 .32699586 .75 .32099916 .75 .31098939 .75 .22099304 .6819916 .1619873 .5549927 .11099243 .44499208 .09899902 .33399964 .09899902 .25 .09899902 .17199707 .10998535 .050994874 .16499329-.06201172 .22499085-.18501282 .31098939-.25 .32099916-.25 .32699586-.25 .33099366-.24700928 .33099366-.2400055Z"/>
<path id="font_3_4" d="M.2939911 .64004519C.2939911 .66400149 .2939911 .6660156 .2709961 .6660156 .20899964 .60227969 .12098694 .60227969 .08898926 .60227969V.57128909C.10899353 .57128909 .16799927 .57128909 .21998596 .5972748V.07902527C.21998596 .042999269 .21699524 .0309906 .1269989 .0309906H.09498596V0C.12998963 .0029907227 .21699524 .0029907227 .25698854 .0029907227 .29699708 .0029907227 .38398744 .0029907227 .4189911 0V.0309906H.3869934C.29699708 .0309906 .2939911 .041992189 .2939911 .07902527V.64004519Z"/>
<path id="font_1_1" d="M.19198609 .052993776C.19198609 .08198547 .16799927 .10598755 .13899231 .10598755 .10998535 .10598755 .085998538 .08198547 .085998538 .052993776 .085998538 .023986817 .10998535 0 .13899231 0 .16799927 0 .19198609 .023986817 .19198609 .052993776Z"/>
<path id="font_1_2" d="M.20298767 .0009918213C.20298767 .066986087 .17799378 .10598755 .13899231 .10598755 .10598755 .10598755 .085998538 .08099365 .085998538 .052993776 .085998538 .025985718 .10598755 0 .13899231 0 .15098572 0 .1639862 .0039978029 .17399597 .0129852299 .1769867 .01499939 .17799378 .015991211 .1789856 .015991211 .17999268 .015991211 .18099976 .01499939 .18099976 .0009918213 .18099976-.07316589 .1459961-.13328552 .11299133-.16635132 .101989749-.17736817 .101989749-.17936707 .101989749-.18237305 .101989749-.18936157 .10699463-.19335938 .11199951-.19335938 .12298584-.19335938 .20298767-.116256717 .20298767 .0009918213Z"/>
<path id="font_3_5" d="M.1269989 .07699585 .23298645 .18003845C.3889923 .31811524 .44898988 .3721466 .44898988 .47216798 .44898988 .5860901 .35899354 .6660156 .23699951 .6660156 .12399292 .6660156 .049987794 .57411196 .049987794 .48516847 .049987794 .4291687 .099990848 .4291687 .102996829 .4291687 .11999512 .4291687 .15499878 .44117738 .15499878 .48217774 .15499878 .5081787 .13699341 .5341797 .101989749 .5341797 .09399414 .5341797 .09199524 .5341797 .08898926 .5331726 .11199951 .59806826 .1659851 .63500979 .22399903 .63500979 .31498719 .63500979 .35798646 .5541382 .35798646 .47216798 .35798646 .39215089 .30799867 .31311036 .25299073 .25108338L.06098938 .036987306C.049987794 .025985718 .049987794 .023986817 .049987794 0H.42099L.44898988 .17404175H.42399598C.4189911 .14402771 .4119873 .1000061 .4019928 .084991458 .394989 .07699585 .32899476 .07699585 .30699159 .07699585H.1269989Z"/>
<path id="font_3_2" d="M.2889862 .25C.2889862 .32798768 .27799989 .44898988 .22299195 .56199648 .16299439 .68499758 .07699585 .75 .066986087 .75 .06098938 .75 .056991579 .74598696 .056991579 .73999026 .056991579 .7369995 .056991579 .73498538 .07598877 .71699526 .17399597 .6179962 .23098755 .45899964 .23098755 .25 .23098755 .07899475 .19400025-.09700012 .069992069-.2230072 .056991579-.23500061 .056991579-.23701477 .056991579-.2400055 .056991579-.2460022 .06098938-.25 .066986087-.25 .07699585-.25 .16699219-.18200684 .22599793-.055007936 .2769928 .054992677 .2889862 .16600037 .2889862 .25Z"/>
<path id="font_3_3" d="M.45999146 .31976319C.45999146 .39982606 .45498658 .47988893 .41999818 .5539398 .37399293 .65000918 .2919922 .6660156 .25 .6660156 .18998719 .6660156 .116989139 .64001467 .07598877 .54693606 .04399109 .47789 .038986207 .39982606 .038986207 .31976319 .038986207 .24472046 .042999269 .15464783 .083999637 .07859802 .1269989-.0024719239 .19999695-.022460938 .24899292-.022460938 .30299378-.022460938 .3789978-.0014648438 .4229889 .09359741 .45498658 .16265869 .45999146 .2407074 .45999146 .31976319M.24899292-.00047302247C.20999146-.00047302247 .15098572 .024551392 .1329956 .12062073 .12199402 .18066406 .12199402 .2727356 .12199402 .3317871 .12199402 .39582826 .12199402 .46188355 .12998963 .5159149 .14898682 .63500979 .22399903 .64401248 .24899292 .64401248 .28199769 .64401248 .34799195 .6259918 .36698915 .52693179 .3769989 .47088624 .3769989 .39482118 .3769989 .3317871 .3769989 .25672914 .3769989 .18867493 .3659973 .12461853 .35099793 .029556275 .2939911-.00047302247 .24899292-.00047302247Z"/>
<path id="font_3_6" d="M.2899933 .35191346C.37199403 .37893678 .42999269 .4490509 .42999269 .52809146 .42999269 .6100464 .34199525 .6660156 .24598694 .6660156 .14498902 .6660156 .068984989 .60606387 .068984989 .53009036 .068984989 .49710084 .09098816 .47808839 .11999512 .47808839 .15098572 .47808839 .17098999 .50009158 .17098999 .5290985 .17098999 .57910159 .12399292 .57910159 .10899353 .57910159 .13999939 .62802127 .20599365 .64100649 .24198914 .64100649 .2829895 .64100649 .33799745 .6190338 .33799745 .5290985 .33799745 .51708987 .33599855 .45906068 .30999757 .4149933 .27999879 .36691285 .24598694 .36390687 .22099304 .36291505 .21299744 .36190797 .18899536 .35990907 .18199158 .35990907 .17399597 .35890199 .16699219 .35791017 .16699219 .3479004 .16699219 .33691407 .17399597 .33691407 .19099427 .33691407H.23498535C.31698609 .33691407 .35398866 .2686615 .35398866 .17037964 .35398866 .034469606 .2849884 .0055389406 .24099732 .0055389406 .19799805 .0055389406 .12298584 .022491456 .08799744 .08137512 .12298584 .07637024 .1539917 .09837341 .1539917 .1363678 .1539917 .17237854 .1269989 .19238281 .09799194 .19238281 .07398987 .19238281 .041992189 .17837525 .041992189 .1343689 .041992189 .043441774 .1349945-.022460938 .24398804-.022460938 .3659973-.022460938 .45700074 .06838989 .45700074 .17037964 .45700074 .252594 .3939972 .33088685 .2899933 .35191346Z"/>
</defs>
<path transform="matrix(1.00002,0,0,-1.00006,103.66278,124.126659)" stroke-width=".3985" stroke-linecap="butt" stroke-miterlimit="10" stroke-linejoin="miter" fill="none" stroke="#00aeef" d="M-102.04953-51.02477H102.04953M-102.04953-34.0165H102.04953M-102.04953-17.00824H102.04953M-102.04953 0H102.04953M-102.04953 17.00824H102.04953M-102.04953 34.0165H102.04953M-102.04953 51.02477H102.04953M-102.04953 68.03302H102.04953M-102.04953 85.04128H102.04953M-102.04953 102.04356H102.04953M-102.04953-51.02477V102.04953M-85.04128-51.02477V102.04953M-68.03302-51.02477V102.04953M-51.02477-51.02477V102.04953M-34.0165-51.02477V102.04953M-17.00824-51.02477V102.04953M0-51.02477V102.04953M17.00824-51.02477V102.04953M34.0165-51.02477V102.04953M51.02477-51.02477V102.04953M68.03302-51.02477V102.04953M85.04128-51.02477V102.04953M102.04356-51.02477V102.04953M102.04953 102.04953"/>
<path transform="matrix(1.00002,0,0,-1.00006,103.66278,124.126659)" stroke-width=".79701" stroke-linecap="butt" stroke-miterlimit="10" stroke-linejoin="miter" fill="none" stroke="#000000" d="M-102.04953 0H109.11905"/>
<path transform="matrix(1.00002,0,0,-1.00006,212.78401,124.126659)" d="M1.0361 0C-.25902 .25902-1.55415 .77707-3.1083 1.68365-1.55415 .51805-1.55415-.51805-3.1083-1.68365-1.55415-.77707-.25902-.25902 1.0361 0Z"/>
<path transform="matrix(1.00002,0,0,-1.00006,212.78401,124.126659)" stroke-width=".79701" stroke-linecap="butt" stroke-linejoin="round" fill="none" stroke="#000000" d="M1.0361 0C-.25902 .25902-1.55415 .77707-3.1083 1.68365-1.55415 .51805-1.55415-.51805-3.1083-1.68365-1.55415-.77707-.25902-.25902 1.0361 0Z"/>
<use data-text="x" xlink:href="#font_1_3" transform="matrix(9.962799,0,0,-9.963197,217.93808,126.27178)"/>
<path transform="matrix(1.00002,0,0,-1.00006,103.66278,124.126659)" stroke-width=".79701" stroke-linecap="butt" stroke-miterlimit="10" stroke-linejoin="miter" fill="none" stroke="#000000" d="M0-51.02477V110.81998"/>
<path transform="matrix(0,-1.00006,-1.00002,-0,103.66278,13.300034)" d="M1.0361 0C-.25902 .25902-1.55415 .77707-3.1083 1.68365-1.55415 .51805-1.55415-.51805-3.1083-1.68365-1.55415-.77707-.25902-.25902 1.0361 0Z"/>
<path transform="matrix(0,-1.00006,-1.00002,-0,103.66278,13.300034)" stroke-width=".79701" stroke-linecap="butt" stroke-linejoin="round" fill="none" stroke="#000000" d="M1.0361 0C-.25902 .25902-1.55415 .77707-3.1083 1.68365-1.55415 .51805-1.55415-.51805-3.1083-1.68365-1.55415-.77707-.25902-.25902 1.0361 0Z"/>
<use data-text="y" xlink:href="#font_1_4" transform="matrix(9.962799,0,0,-9.963197,101.041728,6.20858)"/>
<path transform="matrix(1.00002,0,0,-1.00006,103.66278,124.126659)" stroke-width=".3985" stroke-linecap="butt" stroke-miterlimit="10" stroke-linejoin="miter" fill="none" stroke="#000000" d="M-85.04128 2.55112V-2.55139"/>
<path transform="matrix(1.00002,0,0,-1.00006,103.66278,124.126659)" d="M-92.40266-13.98642H-77.67988V-4.74319H-92.40266Z" fill="#ffffff"/>
<use data-text="&#x2212;" xlink:href="#font_2_1" transform="matrix(9.962799,0,0,-9.963197,12.254959,136.28739)"/>
<use data-text="5" xlink:href="#font_3_7" transform="matrix(9.962799,0,0,-9.963197,20.004105,136.28739)"/>
<path transform="matrix(1.00002,0,0,-1.00006,103.66278,124.126659)" stroke-width=".3985" stroke-linecap="butt" stroke-miterlimit="10" stroke-linejoin="miter" fill="none" stroke="#000000" d="M85.04128 2.55112V-2.55139"/>
<path transform="matrix(1.00002,0,0,-1.00006,103.66278,124.126659)" d="M81.5543-13.15617H88.52824V-4.74319H81.5543Z" fill="#ffffff"/>
<use data-text="5" xlink:href="#font_3_7" transform="matrix(9.962799,0,0,-9.963197,186.21544,136.28739)"/>
<path transform="matrix(1.00002,0,0,-1.00006,103.66278,124.126659)" stroke-width=".3985" stroke-linecap="butt" stroke-miterlimit="10" stroke-linejoin="miter" fill="none" stroke="#000000" d="M5.10251 85.04128H-5.10251"/>
<path transform="matrix(1.00002,0,0,-1.00006,103.66278,124.126659)" d="M-14.26825 80.83478H-7.2943108V89.24776H-14.26825Z" fill="#ffffff"/>
<use data-text="5" xlink:href="#font_3_7" transform="matrix(9.962799,0,0,-9.963197,90.39052,42.29075)"/>
<path transform="matrix(1.00002,0,0,-1.00006,103.66278,124.126659)" stroke-width="1.19553" stroke-linecap="butt" stroke-miterlimit="10" stroke-linejoin="miter" fill="none" stroke="#ff0000" d="M-70.96338 100.20847C-70.27455 96.53499-70.27455 96.53499-69.87747 94.46333-69.48036 92.39171-68.84354 89.12306-68.44644 87.11826-68.04935 85.11345-67.4125 81.95198-67.01543 80.014-66.61832 78.07603-65.98149 75.02179-65.5844 73.15059-65.1873 71.2794-64.55046 68.33212-64.15337 66.52777-63.75627 64.72342-63.11945 61.88356-62.72235 60.14604-62.32524 58.40852-61.68842 55.67561-61.29134 54.00488-60.89424 52.33415-60.2574 49.70847-59.8603 48.10457-59.4632 46.50069-58.82637 43.98218-58.42928 42.4451-58.0322 40.90805-57.39536 38.4967-56.99825 37.02646-56.60115 35.55623-55.96432 33.25209-55.56723 31.84868-55.17014 30.44528-54.53331 28.24834-54.1362 26.91173-53.7391 25.57512-53.10228 23.48514-52.70518 22.21536-52.30809 20.94559-51.67126 18.96301-51.27417 17.76009-50.87708 16.55714-50.24023 14.68153-49.84312 13.5454-49.44604 12.40926-48.80922 10.64084-48.41212 9.57153-48.01501 8.50223-47.37819 6.841-46.98108 5.83853-46.584 4.83604-45.94716 3.28203-45.55008 2.34636-45.15297 1.41068-44.51613-.03636-44.11903-.90521-43.72194-1.77405-43.08511-3.11368-42.68802-3.9157-42.29092-4.71771-41.6541-5.9504-41.257-6.68562-40.8599-7.42084-40.22307-8.54634-39.82597-9.21469-39.42888-9.88304-38.79205-10.90115-38.39496-11.50266-37.99785-12.10419-37.36102-13.0153-36.96393-13.55006-36.56683-14.08482-35.93001-14.88895-35.5329-15.35687-35.1358-15.82481-34.49896-16.52153-34.10188-16.92259-33.70479-17.32365-33.06796-17.9132-32.67085-18.24747-32.27376-18.58174-31.63693-19.06429-31.23984-19.33177-30.84274-19.59924-30.20592-19.97462-29.8088-20.17522-29.41171-20.37582-28.77489-20.64383-28.37778-20.77759-27.9807-20.91135-27.34386-21.0724-26.94676-21.13936-26.54967-21.20633-25.91284-21.26013-25.51573-21.26031-25.11865-21.26048-24.48181-21.20732-24.08472-21.14067-23.68762-21.07402-23.0508-20.9134-22.65369-20.77992-22.2566-20.64644-21.61978-20.3789-21.22269-20.1786-20.82558-19.97829-20.18874-19.60332-19.79164-19.33618-19.39456-19.06903-18.75774-18.58711-18.36063-18.25317-17.96353-17.91924-17.32669-17.33011-16.9296-16.92934-16.5325-16.52856-15.89568-15.83226-15.49858-15.36467-15.10149-14.89706-14.46465-14.09355-14.06755-13.55916-13.67046-13.02477-13.03362-12.11429-12.63654-11.51305-12.23944-10.91182-11.60262-9.8939-11.2055-9.22585-10.80841-8.5578-10.17157-7.43294-9.77449-6.69807-9.3774-5.9632-8.74057-4.73116-8.34346-3.92944-7.94637-3.12775-7.30952-1.7885-6.91245-.92-6.51535-.05148-5.87851 1.39491-5.48141 2.33026-5.08432 3.26561-4.44748 4.8192-4.0504 5.8214-3.6533 6.82358-3.01646 8.48439-2.61937 9.55338-2.22227 10.62236-1.58545 12.3901-1.18834 13.52594-.79126 14.66176-.15443 16.53693 .24263 17.73958 .63974 18.94223 1.27657 20.92438 1.67366 22.19382 2.07074 23.46326 2.70758 25.55261 3.10469 26.88889 3.50179 28.22517 4.13861 30.42169 4.5357 31.8248 4.9328 33.22792 5.56963 35.53162 5.96674 37.00156 6.36383 38.4715 7.00066 40.88242 7.39775 42.41916 7.79485 43.95589 8.43167 46.47377 8.82877 48.07733 9.22586 49.6809 9.8627 52.3062 10.25981 53.9766 10.65689 55.647 11.29373 58.37926 11.69081 60.11646 12.08792 61.85365 12.72475 64.6931 13.12186 66.49715 13.51895 68.30118 14.15578 71.2478 14.55286 73.11867 14.94997 74.98955 15.5868 78.04335 15.9839 79.98105 16.381 81.91875 17.01782 85.07971 17.41492 87.08426 17.81201 89.08879 18.44884 92.35698 18.84593 94.42831 19.24304 96.49963 20.27696 102.01294 19.93182 100.17213"/>
<path transform="matrix(-.18427369,-.9828789,-.98283967,.18428105,32.697999,23.91217)" d="M1.27522 0C-.31879 .31879-1.91284 .9564-3.8257 2.07224-1.91284 .6376-1.91284-.6376-3.8257-2.07224-1.91284-.9564-.31879-.31879 1.27522 0Z" fill="#ff0000"/>
<path transform="matrix(-.18427369,-.9828789,-.98283967,.18428105,32.697999,23.91217)" stroke-width="1.19553" stroke-linecap="butt" stroke-linejoin="round" fill="none" stroke="#ff0000" d="M1.27522 0C-.31879 .31879-1.91284 .9564-3.8257 2.07224-1.91284 .6376-1.91284-.6376-3.8257-2.07224-1.91284-.9564-.31879-.31879 1.27522 0Z"/>
<path transform="matrix(.18428369,-.9828789,-.98283967,-.18429105,123.594989,23.948525)" d="M1.27522 0C-.31879 .31879-1.91284 .9564-3.8257 2.07224-1.91284 .6376-1.91284-.6376-3.8257-2.07224-1.91284-.9564-.31879-.31879 1.27522 0Z" fill="#ff0000"/>
<path transform="matrix(.18428369,-.9828789,-.98283967,-.18429105,123.594989,23.948525)" stroke-width="1.19553" stroke-linecap="butt" stroke-linejoin="round" fill="none" stroke="#ff0000" d="M1.27522 0C-.31879 .31879-1.91284 .9564-3.8257 2.07224-1.91284 .6376-1.91284-.6376-3.8257-2.07224-1.91284-.9564-.31879-.31879 1.27522 0Z"/>
<path transform="matrix(1.00002,0,0,-1.00006,103.66278,124.126659)" d="M-23.47147-21.26031C-23.47147-20.13315-24.3852-19.2194-25.51236-19.2194-26.63953-19.2194-27.55325-20.13315-27.55325-21.26031-27.55325-22.38748-26.63953-23.30121-25.51236-23.30121-24.3852-23.30121-23.47147-22.38748-23.47147-21.26031ZM-25.51236-21.26031" fill="#ff0000"/>
<path transform="matrix(1.00002,0,0,-1.00006,103.66278,124.126659)" stroke-width=".3985" stroke-linecap="butt" stroke-miterlimit="10" stroke-linejoin="miter" fill="none" stroke="#ff0000" d="M-23.47147-21.26031C-23.47147-20.13315-24.3852-19.2194-25.51236-19.2194-26.63953-19.2194-27.55325-20.13315-27.55325-21.26031-27.55325-22.38748-26.63953-23.30121-25.51236-23.30121-24.3852-23.30121-23.47147-22.38748-23.47147-21.26031ZM-25.51236-21.26031"/>
<path transform="matrix(1.00002,0,0,-1.00006,103.66278,124.126659)" d="M-55.56679-39.08415H4.542038V-27.128829H-55.56679Z" fill="#ffffff"/>
<use data-text="(" xlink:href="#font_3_1" transform="matrix(9.962799,0,0,-9.963197,49.090684,159.7258)"/>
<use data-text="&#x2212;" xlink:href="#font_2_1" transform="matrix(9.962799,0,0,-9.963197,52.964754,159.7258)"/>
<use data-text="1" xlink:href="#font_3_4" transform="matrix(9.962799,0,0,-9.963197,60.713899,159.7258)"/>
<use data-text="." xlink:href="#font_1_1" transform="matrix(9.962799,0,0,-9.963197,65.69499,159.7258)"/>
<use data-text="5" xlink:href="#font_3_7" transform="matrix(9.962799,0,0,-9.963197,68.46306,159.7258)"/>
<use data-text="," xlink:href="#font_1_2" transform="matrix(9.962799,0,0,-9.963197,73.44417,159.7258)"/>
<use data-text="&#x2212;" xlink:href="#font_2_1" transform="matrix(9.962799,0,0,-9.963197,77.87224,159.7258)"/>
<use data-text="1" xlink:href="#font_3_4" transform="matrix(9.962799,0,0,-9.963197,85.6214,159.7258)"/>
<use data-text="." xlink:href="#font_1_1" transform="matrix(9.962799,0,0,-9.963197,90.60249,159.7258)"/>
<use data-text="2" xlink:href="#font_3_5" transform="matrix(9.962799,0,0,-9.963197,93.36955,159.7258)"/>
<use data-text="5" xlink:href="#font_3_7" transform="matrix(9.962799,0,0,-9.963197,98.35094,159.7258)"/>
<use data-text=")" xlink:href="#font_3_2" transform="matrix(9.962799,0,0,-9.963197,103.33234,159.7258)"/>
<path transform="matrix(1.00002,0,0,-1.00006,103.66278,124.126659)" d="M2.0409 17.00824C2.0409 18.1354 1.12715 19.04913 0 19.04913-1.12715 19.04913-2.0409 18.1354-2.0409 17.00824-2.0409 15.88107-1.12715 14.96735 0 14.96735 1.12715 14.96735 2.0409 15.88107 2.0409 17.00824ZM0 17.00824" fill="#ff0000"/>
<path transform="matrix(1.00002,0,0,-1.00006,103.66278,124.126659)" stroke-width=".3985" stroke-linecap="butt" stroke-miterlimit="10" stroke-linejoin="miter" fill="none" stroke="#ff0000" d="M2.0409 17.00824C2.0409 18.1354 1.12715 19.04913 0 19.04913-1.12715 19.04913-2.0409 18.1354-2.0409 17.00824-2.0409 15.88107-1.12715 14.96735 0 14.96735 1.12715 14.96735 2.0409 15.88107 2.0409 17.00824ZM0 17.00824"/>
<path transform="matrix(1.00002,0,0,-1.00006,103.66278,124.126659)" d="M5.86852 11.03058H30.00055V22.9859H5.86852Z" fill="#ffffff"/>
<use data-text="(" xlink:href="#font_3_1" transform="matrix(9.962799,0,0,-9.963197,110.527919,109.60779)"/>
<use data-text="0" xlink:href="#font_3_3" transform="matrix(9.962799,0,0,-9.963197,114.393489,109.60779)"/>
<use data-text="," xlink:href="#font_1_2" transform="matrix(9.962799,0,0,-9.963197,119.38409,109.60779)"/>
<use data-text="1" xlink:href="#font_3_4" transform="matrix(9.962799,0,0,-9.963197,123.81118,109.60779)"/>
<use data-text=")" xlink:href="#font_3_2" transform="matrix(9.962799,0,0,-9.963197,128.79257,109.60779)"/>
<path transform="matrix(1.00002,0,0,-1.00006,103.66278,124.126659)" d="M-48.98387 17.00824C-48.98387 18.1354-49.8976 19.04913-51.02477 19.04913-52.15193 19.04913-53.06566 18.1354-53.06566 17.00824-53.06566 15.88107-52.15193 14.96735-51.02477 14.96735-49.8976 14.96735-48.98387 15.88107-48.98387 17.00824ZM-51.02477 17.00824" fill="#ff0000"/>
<path transform="matrix(1.00002,0,0,-1.00006,103.66278,124.126659)" stroke-width=".3985" stroke-linecap="butt" stroke-miterlimit="10" stroke-linejoin="miter" fill="none" stroke="#ff0000" d="M-48.98387 17.00824C-48.98387 18.1354-49.8976 19.04913-51.02477 19.04913-52.15193 19.04913-53.06566 18.1354-53.06566 17.00824-53.06566 15.88107-52.15193 14.96735-51.02477 14.96735-49.8976 14.96735-48.98387 15.88107-48.98387 17.00824ZM-51.02477 17.00824"/>
<path transform="matrix(1.00002,0,0,-1.00006,103.66278,124.126659)" d="M-88.77419 11.03058H-56.893323V22.9859H-88.77419Z" fill="#ffffff"/>
<use data-text="(" xlink:href="#font_3_1" transform="matrix(9.962799,0,0,-9.963197,15.883026,109.60779)"/>
<use data-text="&#x2212;" xlink:href="#font_2_1" transform="matrix(9.962799,0,0,-9.963197,19.757096,109.60779)"/>
<use data-text="3" xlink:href="#font_3_6" transform="matrix(9.962799,0,0,-9.963197,27.50624,109.60779)"/>
<use data-text="," xlink:href="#font_1_2" transform="matrix(9.962799,0,0,-9.963197,32.487337,109.60779)"/>
<use data-text="1" xlink:href="#font_3_4" transform="matrix(9.962799,0,0,-9.963197,36.91542,109.60779)"/>
<use data-text=")" xlink:href="#font_3_2" transform="matrix(9.962799,0,0,-9.963197,41.89682,109.60779)"/>
</svg>
