<svg xmlns="http://www.w3.org/2000/svg" xmlns:xlink="http://www.w3.org/1999/xlink" version="1.1" width="139" height="307" viewBox="0 0 139 307">
<defs>
<path id="font_1_121" d="M.45999146 .31976319C.45999146 .39982606 .45498658 .47988893 .41999818 .5539398 .37399293 .65000918 .2919922 .6660156 .25 .6660156 .18998719 .6660156 .116989139 .64001467 .07598877 .54693606 .04399109 .47789 .038986207 .39982606 .038986207 .31976319 .038986207 .24472046 .042999269 .15464783 .083999637 .07859802 .1269989-.0024719239 .19999695-.022460938 .24899292-.022460938 .30299378-.022460938 .3789978-.0014648438 .4229889 .09359741 .45498658 .16265869 .45999146 .2407074 .45999146 .31976319M.3769989 .3317871C.3769989 .25672914 .3769989 .18867493 .3659973 .12461853 .35099793 .029556275 .2939911-.00047302247 .24899292-.00047302247 .20999146-.00047302247 .15098572 .024551392 .1329956 .12062073 .12199402 .18066406 .12199402 .2727356 .12199402 .3317871 .12199402 .39582826 .12199402 .46188355 .12998963 .5159149 .14898682 .63500979 .22399903 .64401248 .24899292 .64401248 .28199769 .64401248 .34799195 .6259918 .36698915 .52693179 .3769989 .47088624 .3769989 .39482118 .3769989 .3317871Z"/>
<path id="font_1_82" d="M.4189911 0V.0309906H.3869934C.29699708 .0309906 .2939911 .041992189 .2939911 .07902527V.64012148C.2939911 .6640167 .2939911 .6660156 .2709961 .6660156 .20899964 .60227969 .12098694 .60227969 .08898926 .60227969V.57128909C.10899353 .57128909 .16799927 .57128909 .21998596 .5972748V.07902527C.21998596 .042999269 .21699524 .0309906 .1269989 .0309906H.09498596V0C.12998963 .0029907227 .21699524 .0029907227 .25698854 .0029907227 .29699708 .0029907227 .38398744 .0029907227 .4189911 0Z"/>
<path id="font_1_107" d="M.44898988 .17396546H.42399598C.4189911 .14398194 .4119873 .099990848 .4019928 .084991458 .394989 .07699585 .32899476 .07699585 .30699159 .07699585H.1269989L.23298645 .17996216C.3889923 .31803895 .44898988 .37210084 .44898988 .47216798 .44898988 .5860901 .35899354 .6660156 .23699951 .6660156 .12399292 .6660156 .049987794 .57411196 .049987794 .48516847 .049987794 .4291687 .099990848 .4291687 .102996829 .4291687 .11999512 .4291687 .15499878 .44117738 .15499878 .48217774 .15499878 .5081787 .13699341 .5341797 .101989749 .5341797 .09399414 .5341797 .09199524 .5341797 .08898926 .5331726 .11199951 .59806826 .1659851 .63500979 .22399903 .63500979 .31498719 .63500979 .35798646 .5541382 .35798646 .47216798 .35798646 .39196778 .30799867 .31297303 .25299073 .25097657L.06098938 .036987306C.049987794 .025985718 .049987794 .023986817 .049987794 0H.42099L.44898988 .17396546Z"/>
<path id="font_1_106" d="M.45700074 .17037964C.45700074 .252594 .3939972 .33088685 .2899933 .35191346 .37199403 .37893678 .42999269 .4490509 .42999269 .52809146 .42999269 .6100464 .34199525 .6660156 .24598694 .6660156 .14498902 .6660156 .068984989 .60606387 .068984989 .53009036 .068984989 .49710084 .09098816 .47808839 .11999512 .47808839 .15098572 .47808839 .17098999 .50009158 .17098999 .5290985 .17098999 .57910159 .12399292 .57910159 .10899353 .57910159 .13999939 .62802127 .20599365 .64100649 .24198914 .64100649 .2829895 .64100649 .33799745 .6190338 .33799745 .5290985 .33799745 .51708987 .33599855 .45906068 .30999757 .4149933 .27999879 .36691285 .24598694 .36390687 .22099304 .36291505 .21299744 .36190797 .18899536 .35990907 .18199158 .35990907 .17399597 .35890199 .16699219 .35791017 .16699219 .3479004 .16699219 .33691407 .17399597 .33691407 .19099427 .33691407H.23498535C.31698609 .33691407 .35398866 .2686615 .35398866 .17037964 .35398866 .034469606 .2849884 .0055389406 .24099732 .0055389406 .19799805 .0055389406 .12298584 .022491456 .08799744 .08137512 .12298584 .07637024 .1539917 .09837341 .1539917 .1363678 .1539917 .17237854 .1269989 .19238281 .09799194 .19238281 .07398987 .19238281 .041992189 .17837525 .041992189 .1343689 .041992189 .043441774 .1349945-.022460938 .24398804-.022460938 .3659973-.022460938 .45700074 .06838989 .45700074 .17037964Z"/>
<path id="font_1_57" d="M.47099305 .16503906V.19602967H.37098695V.6507721C.37098695 .6707611 .37098695 .6767578 .35499574 .6767578 .34599305 .6767578 .34298707 .6767578 .33499146 .6647644L.027999878 .19602967V.16503906H.2939911V.07800293C.2939911 .041992189 .2919922 .0309906 .21798706 .0309906H.19699097V0C.23799134 .0029907227 .2899933 .0029907227 .33198548 .0029907227 .37399293 .0029907227 .4269867 .0029907227 .46798707 0V.0309906H.44699098C.37298585 .0309906 .37098695 .041992189 .37098695 .07800293V.16503906H.47099305M.2999878 .19602967H.055999757L.2999878 .56881716V.19602967Z"/>
<path id="font_1_101" d="M.45700074 .2036438C.45700074 .33070375 .36799623 .4267578 .25698854 .4267578 .18899536 .4267578 .1519928 .37573243 .13198853 .327713V.35173036C.13198853 .6047821 .2559967 .64100649 .30699159 .64100649 .33099366 .64100649 .37298585 .634964 .394989 .6007538 .37998963 .6007538 .33999635 .6007538 .33999635 .5557556 .33999635 .524765 .3639984 .5097656 .38598634 .5097656 .4019928 .5097656 .43199159 .51875308 .43199159 .5577545 .43199159 .6178589 .3880005 .6660156 .30499269 .6660156 .1769867 .6660156 .041992189 .5367584 .041992189 .31570436 .041992189 .048553468 .1579895-.022460938 .25099183-.022460938 .3619995-.022460938 .45700074 .07156372 .45700074 .2036438M.36698915 .20463562C.36698915 .15661621 .36698915 .10658264 .34999085 .0705719 .31999208 .010528564 .27398683 .0055389406 .25099183 .0055389406 .18798828 .0055389406 .1579895 .06556702 .1519928 .080566409 .13398743 .127594 .13398743 .2076416 .13398743 .22564698 .13398743 .30369569 .1659851 .40374757 .2559967 .40374757 .27198792 .40374757 .31799317 .40374757 .34899903 .34172059 .36698915 .30470277 .36698915 .2536621 .36698915 .20463562Z"/>
<path id="font_1_51" d="M.45700074 .16764832C.45700074 .20367432 .44599916 .24871826 .4079895 .29074098 .3889923 .31176759 .37298585 .32176209 .30899049 .36180116 .3809967 .39881898 .42999269 .4508667 .42999269 .51690676 .42999269 .6089783 .34098817 .6660156 .25 .6660156 .1499939 .6660156 .068984989 .5919647 .068984989 .49890138 .068984989 .48088075 .070999149 .43585206 .11299133 .38882447 .12399292 .3768158 .16099549 .35179139 .18598938 .33477784 .12799073 .30575563 .041992189 .24971009 .041992189 .15063477 .041992189 .044555665 .14399719-.022460938 .24899292-.022460938 .3619995-.022460938 .45700074 .060577394 .45700074 .16764832M.38598634 .51690676C.38598634 .45986939 .34700013 .41183473 .2869873 .3768158L.16299439 .4568634C.116989139 .4868927 .11299133 .5209198 .11299133 .53793337 .11299133 .5989685 .17799378 .64100649 .24899292 .64100649 .32199098 .64100649 .38598634 .588974 .38598634 .51690676M.40699769 .13162232C.40699769 .05757141 .33198548 .0055389406 .25 .0055389406 .1639862 .0055389406 .09199524 .06758118 .09199524 .15063477 .09199524 .2086792 .12399292 .2727356 .20899964 .31976319L.33198548 .24171448C.3600006 .22268677 .40699769 .19267273 .40699769 .13162232Z"/>
<path id="font_1_100" d="M.4850006 .6435547H.24198914C.11999512 .6435547 .117996219 .6566467 .11399841 .67578127H.08898926L.055999757 .46954347H.08099365C.083999637 .48554994 .09298706 .54855349 .10598755 .5605469 .11299133 .5665436 .19099427 .5665436 .20399475 .5665436H.41099549L.29899598 .40853883C.20899964 .2735443 .17599488 .13453675 .17599488 .03253174 .17599488 .022537232 .17599488-.022460938 .22200012-.022460938 .2679901-.022460938 .2679901 .022537232 .2679901 .03253174V.08354187C.2679901 .13853455 .2709961 .19354248 .2789917 .24754334 .2829895 .27053834 .29699708 .35653688 .34098817 .41854859L.47599793 .608551C.4850006 .62054446 .4850006 .62254336 .4850006 .6435547Z"/>
</defs>
<path transform="matrix(1.00008,0,0,-1.00008,15.980156,292.98924)" stroke-width=".3985" stroke-linecap="butt" stroke-miterlimit="10" stroke-linejoin="miter" fill="none" stroke="#00aeef" d="M0 0H113.38724M0 14.17339H113.38724M0 28.3468H113.38724M0 42.5202H113.38724M0 56.69362H113.38724M0 70.867H113.38724M0 85.04042H113.38724M0 99.21382H113.38724M0 113.38724H113.38724M0 127.56062H113.38724M0 141.73404H113.38724M0 155.90744H113.38724M0 170.08086H113.38724M0 184.25424H113.38724M0 198.42766H113.38724M0 212.60106H113.38724M0 226.77448H113.38724M0 240.94788H113.38724M0 255.12128H113.38724M0 269.29469H113.38724M0 283.4631H113.38724M0 0V283.4681M14.17339 0V283.4681M28.3468 0V283.4681M42.5202 0V283.4681M56.69362 0V283.4681M70.867 0V283.4681M85.04042 0V283.4681M99.21382 0V283.4681M113.38225 0V283.4681M113.38724 283.4681"/>
<path transform="matrix(1.00008,0,0,-1.00008,15.980156,292.98924)" stroke-width=".79701" stroke-linecap="butt" stroke-miterlimit="10" stroke-linejoin="miter" fill="none" stroke="#000000" d="M0 0H120.45674"/>
<path transform="matrix(1.00008,0,0,-1.00008,136.44654,292.98924)" d="M1.0361 0C-.25902 .25902-1.55415 .77707-3.1083 1.68365-1.55415 .51805-1.55415-.51805-3.1083-1.68365-1.55415-.77707-.25902-.25902 1.0361 0Z"/>
<path transform="matrix(1.00008,0,0,-1.00008,136.44654,292.98924)" stroke-width=".79701" stroke-linecap="butt" stroke-linejoin="round" fill="none" stroke="#000000" d="M1.0361 0C-.25902 .25902-1.55415 .77707-3.1083 1.68365-1.55415 .51805-1.55415-.51805-3.1083-1.68365-1.55415-.77707-.25902-.25902 1.0361 0Z"/>
<path transform="matrix(1.00008,0,0,-1.00008,15.980156,292.98924)" stroke-width=".79701" stroke-linecap="butt" stroke-miterlimit="10" stroke-linejoin="miter" fill="none" stroke="#000000" d="M0 0V290.5376"/>
<path transform="matrix(0,-1.00008,-1.00008,-0,15.980156,2.4283753)" d="M1.0361 0C-.25902 .25902-1.55415 .77707-3.1083 1.68365-1.55415 .51805-1.55415-.51805-3.1083-1.68365-1.55415-.77707-.25902-.25902 1.0361 0Z"/>
<path transform="matrix(0,-1.00008,-1.00008,-0,15.980156,2.4283753)" stroke-width=".79701" stroke-linecap="butt" stroke-linejoin="round" fill="none" stroke="#000000" d="M1.0361 0C-.25902 .25902-1.55415 .77707-3.1083 1.68365-1.55415 .51805-1.55415-.51805-3.1083-1.68365-1.55415-.77707-.25902-.25902 1.0361 0Z"/>
<path transform="matrix(1.00008,0,0,-1.00008,15.980156,292.98924)" stroke-width=".79701" stroke-linecap="butt" stroke-miterlimit="10" stroke-linejoin="miter" fill="none" stroke="#000000" d="M0 1.4174V-1.41719"/>
<path transform="matrix(1.00008,0,0,-1.00008,15.980156,292.98924)" d="M-3.48697-12.65517H3.48697V-3.80826H-3.48697Z" fill="#ffffff"/>
<use data-text="0" xlink:href="#font_1_121" transform="matrix(9.963397,0,0,-9.963397,13.48896,304.43016)"/>
<path transform="matrix(1.00008,0,0,-1.00008,15.980156,292.98924)" stroke-width=".79701" stroke-linecap="butt" stroke-miterlimit="10" stroke-linejoin="miter" fill="none" stroke="#000000" d="M28.3468 1.4174V-1.41719"/>
<path transform="matrix(1.00008,0,0,-1.00008,15.980156,292.98924)" d="M22.36914-12.65517H34.324464V-3.80826H22.36914Z" fill="#ffffff"/>
<use data-text="1" xlink:href="#font_1_82" transform="matrix(9.963397,0,0,-9.963397,39.347024,304.43016)"/>
<use data-text="0" xlink:href="#font_1_121" transform="matrix(9.963397,0,0,-9.963397,44.32872,304.43016)"/>
<path transform="matrix(1.00008,0,0,-1.00008,15.980156,292.98924)" stroke-width=".79701" stroke-linecap="butt" stroke-miterlimit="10" stroke-linejoin="miter" fill="none" stroke="#000000" d="M56.69362 1.4174V-1.41719"/>
<path transform="matrix(1.00008,0,0,-1.00008,15.980156,292.98924)" d="M50.71596-12.65517H62.67128V-3.80826H50.71596Z" fill="#ffffff"/>
<use data-text="2" xlink:href="#font_1_107" transform="matrix(9.963397,0,0,-9.963397,67.69629,304.43016)"/>
<use data-text="0" xlink:href="#font_1_121" transform="matrix(9.963397,0,0,-9.963397,72.67799,304.43016)"/>
<path transform="matrix(1.00008,0,0,-1.00008,15.980156,292.98924)" stroke-width=".79701" stroke-linecap="butt" stroke-miterlimit="10" stroke-linejoin="miter" fill="none" stroke="#000000" d="M85.04042 1.4174V-1.41719"/>
<path transform="matrix(1.00008,0,0,-1.00008,15.980156,292.98924)" d="M79.06276-12.65517H91.01808V-3.80826H79.06276Z" fill="#ffffff"/>
<use data-text="3" xlink:href="#font_1_106" transform="matrix(9.963397,0,0,-9.963397,96.045558,304.43016)"/>
<use data-text="0" xlink:href="#font_1_121" transform="matrix(9.963397,0,0,-9.963397,101.02725,304.43016)"/>
<path transform="matrix(1.00008,0,0,-1.00008,15.980156,292.98924)" stroke-width=".79701" stroke-linecap="butt" stroke-miterlimit="10" stroke-linejoin="miter" fill="none" stroke="#000000" d="M113.38724 1.4174V-1.41719"/>
<path transform="matrix(1.00008,0,0,-1.00008,15.980156,292.98924)" d="M107.40958-12.76477H119.3649V-3.80826H107.40958Z" fill="#ffffff"/>
<use data-text="4" xlink:href="#font_1_57" transform="matrix(9.963397,0,0,-9.963397,124.39483,304.53916)"/>
<use data-text="0" xlink:href="#font_1_121" transform="matrix(9.963397,0,0,-9.963397,129.37653,304.53916)"/>
<path transform="matrix(1.00008,0,0,-1.00008,15.980156,292.98924)" stroke-width=".79701" stroke-linecap="butt" stroke-miterlimit="10" stroke-linejoin="miter" fill="none" stroke="#000000" d="M1.4174 42.5202H-1.41719"/>
<path transform="matrix(1.00008,0,0,-1.00008,15.980156,292.98924)" d="M-15.76358 38.20631H-3.80826V46.83406H-15.76358Z" fill="#ffffff"/>
<use data-text="1" xlink:href="#font_1_82" transform="matrix(9.963397,0,0,-9.963397,1.2119751,253.7831)"/>
<use data-text="2" xlink:href="#font_1_107" transform="matrix(9.963397,0,0,-9.963397,6.193672,253.7831)"/>
<path transform="matrix(1.00008,0,0,-1.00008,15.980156,292.98924)" stroke-width=".79701" stroke-linecap="butt" stroke-miterlimit="10" stroke-linejoin="miter" fill="none" stroke="#000000" d="M1.4174 85.04042H-1.41719"/>
<path transform="matrix(1.00008,0,0,-1.00008,15.980156,292.98924)" d="M-15.76358 80.67175H-3.80826V89.409099H-15.76358Z" fill="#ffffff"/>
<use data-text="2" xlink:href="#font_1_107" transform="matrix(9.963397,0,0,-9.963397,1.2119751,211.3147)"/>
<use data-text="4" xlink:href="#font_1_57" transform="matrix(9.963397,0,0,-9.963397,6.193672,211.3147)"/>
<path transform="matrix(1.00008,0,0,-1.00008,15.980156,292.98924)" stroke-width=".79701" stroke-linecap="butt" stroke-miterlimit="10" stroke-linejoin="miter" fill="none" stroke="#000000" d="M1.4174 127.56062H-1.41719"/>
<path transform="matrix(1.00008,0,0,-1.00008,15.980156,292.98924)" d="M-15.76358 123.13718H-3.80826V131.98409H-15.76358Z" fill="#ffffff"/>
<use data-text="3" xlink:href="#font_1_106" transform="matrix(9.963397,0,0,-9.963397,1.2119751,168.62628)"/>
<use data-text="6" xlink:href="#font_1_101" transform="matrix(9.963397,0,0,-9.963397,6.193672,168.62628)"/>
<path transform="matrix(1.00008,0,0,-1.00008,15.980156,292.98924)" stroke-width=".79701" stroke-linecap="butt" stroke-miterlimit="10" stroke-linejoin="miter" fill="none" stroke="#000000" d="M1.4174 170.08086H-1.41719"/>
<path transform="matrix(1.00008,0,0,-1.00008,15.980156,292.98924)" d="M-15.76358 165.60259H-3.80826V174.5591H-15.76358Z" fill="#ffffff"/>
<use data-text="4" xlink:href="#font_1_57" transform="matrix(9.963397,0,0,-9.963397,1.2119751,126.1579)"/>
<use data-text="8" xlink:href="#font_1_51" transform="matrix(9.963397,0,0,-9.963397,6.193672,126.1579)"/>
<path transform="matrix(1.00008,0,0,-1.00008,15.980156,292.98924)" stroke-width=".79701" stroke-linecap="butt" stroke-miterlimit="10" stroke-linejoin="miter" fill="none" stroke="#000000" d="M1.4174 212.60106H-1.41719"/>
<path transform="matrix(1.00008,0,0,-1.00008,15.980156,292.98924)" d="M-15.76358 208.1776H-3.80826V217.0245H-15.76358Z" fill="#ffffff"/>
<use data-text="6" xlink:href="#font_1_101" transform="matrix(9.963397,0,0,-9.963397,1.2119751,83.57947)"/>
<use data-text="0" xlink:href="#font_1_121" transform="matrix(9.963397,0,0,-9.963397,6.193672,83.57947)"/>
<path transform="matrix(1.00008,0,0,-1.00008,15.980156,292.98924)" stroke-width=".79701" stroke-linecap="butt" stroke-miterlimit="10" stroke-linejoin="miter" fill="none" stroke="#000000" d="M1.4174 255.12128H-1.41719"/>
<path transform="matrix(1.00008,0,0,-1.00008,15.980156,292.98924)" d="M-15.76358 250.64801H-3.80826V259.59455H-15.76358Z" fill="#ffffff"/>
<use data-text="7" xlink:href="#font_1_100" transform="matrix(9.963397,0,0,-9.963397,1.2119751,41.10608)"/>
<use data-text="2" xlink:href="#font_1_107" transform="matrix(9.963397,0,0,-9.963397,6.193672,41.10608)"/>
</svg>
