<svg xmlns="http://www.w3.org/2000/svg" xmlns:xlink="http://www.w3.org/1999/xlink" version="1.1" width="168" height="198" viewBox="0 0 168 198">
<defs>
<path id="font_1_2" d="M.33399964 .30233766C.33999635 .32835389 .36299134 .42037965 .43299867 .42037965 .43798829 .42037965 .46199037 .42037965 .48298646 .40734864 .45498658 .402359 .43499757 .37734986 .43499757 .35334779 .43499757 .33735658 .44599916 .31835938 .47299195 .31835938 .49499513 .31835938 .5269928 .3363495 .5269928 .37635804 .5269928 .42837525 .46798707 .4423828 .43399049 .4423828 .37599183 .4423828 .34098817 .38935853 .32899476 .36634828 .3039856 .43237306 .25 .4423828 .22099304 .4423828 .116989139 .4423828 .05999756 .3133545 .05999756 .28834535 .05999756 .27833558 .069992069 .27833558 .07199097 .27833558 .07998657 .27833558 .08299255 .28033448 .084991458 .28933717 .11898804 .39535523 .18499756 .42037965 .21899414 .42037965 .23799134 .42037965 .272995 .4113617 .272995 .35334779 .272995 .32235719 .2559967 .25532533 .21899414 .11528015 .20298767 .053268434 .16799927 .011245728 .12399292 .011245728 .117996219 .011245728 .09498596 .011245728 .07398987 .024276734 .09899902 .029266358 .12098694 .05027771 .12098694 .07827759 .12098694 .105270389 .09899902 .11328125 .083999637 .11328125 .053985597 .11328125 .0289917 .08728027 .0289917 .055267335 .0289917 .009246826 .07899475-.0107421879 .12298584-.0107421879 .18899536-.0107421879 .22499085 .059280397 .22799683 .0652771 .23999024 .028274537 .27598573-.0107421879 .33599855-.0107421879 .43899537-.0107421879 .49598695 .118270877 .49598695 .14328003 .49598695 .1532898 .4869995 .1532898 .48399354 .1532898 .47499085 .1532898 .47299195 .14929199 .47099305 .14228821 .43798829 .03527832 .36999513 .011245728 .33799745 .011245728 .29899598 .011245728 .2829895 .043273927 .2829895 .07727051 .2829895 .09927368 .2889862 .121276859 .2999878 .16529846L.33399964 .30233766Z"/>
<path id="font_1_3" d="M.48599244 .38136292C.48999024 .39537049 .48999024 .39736939 .48999024 .40437318 .48999024 .42237855 .47599793 .43138124 .46099855 .43138124 .45098878 .43138124 .43499757 .42536927 .42599488 .41036988 .42399598 .405365 .41600038 .37435914 .4119873 .35635377 .40499879 .33035279 .397995 .30334474 .3919983 .27633668L.34700013 .09628296C.34298707 .08126831 .2999878 .011245728 .23399353 .011245728 .18299866 .011245728 .17199707 .055267335 .17199707 .0922699 .17199707 .1382904 .18899536 .20030213 .22299195 .28833009 .23899842 .3293457 .24299622 .3403473 .24299622 .36035157 .24299622 .405365 .21099854 .4423828 .16099549 .4423828 .06599426 .4423828 .0289917 .29733277 .0289917 .28833009 .0289917 .27833558 .038986207 .27833558 .040985109 .27833558 .050994874 .27833558 .051986696 .28033448 .056991579 .29634095 .083999637 .3903656 .12399292 .42037965 .1579895 .42037965 .1659851 .42037965 .18299866 .42037965 .18299866 .3883667 .18299866 .36335755 .17298889 .3373413 .1659851 .31834413 .12599182 .21231079 .10798645 .1552887 .10798645 .10827637 .10798645 .019256592 .17098999-.0107421879 .22999573-.0107421879 .2689972-.0107421879 .30299378 .0062561037 .33099366 .03425598 .31799317-.017745972 .30599977-.06674194 .2659912-.11973572 .23999024-.15385437 .20199585-.18309021 .1559906-.18309021 .14199829-.18309021 .09700012-.18005371 .07998657-.14074707 .09599304-.14074707 .10899353-.14074707 .12298584-.1287384 .1329956-.11973572 .14299011-.10673523 .14299011-.08773804 .14299011-.056747438 .115997318-.052734376 .10598755-.052734376 .08299255-.052734376 .049987794-.068740848 .049987794-.11773682 .049987794-.16796875 .09399414-.20507813 .1559906-.20507813 .25898744-.20507813 .3619995-.11373901 .3899994-.00074768069L.48599244 .38136292Z"/>
<path id="font_2_1" d="M.6589966 .23046875C.6759949 .23046875 .69400027 .23046875 .69400027 .25045777 .69400027 .27046205 .6759949 .27046205 .6589966 .27046205H.117996219C.100997928 .27046205 .08299255 .27046205 .08299255 .25045777 .08299255 .23046875 .100997928 .23046875 .117996219 .23046875H.6589966Z"/>
<path id="font_3_4" d="M.2939911 .64004519C.2939911 .66400149 .2939911 .6660156 .2709961 .6660156 .20899964 .60227969 .12098694 .60227969 .08898926 .60227969V.57128909C.10899353 .57128909 .16799927 .57128909 .21998596 .5972748V.07902527C.21998596 .042999269 .21699524 .0309906 .1269989 .0309906H.09498596V0C.12998963 .0029907227 .21699524 .0029907227 .25698854 .0029907227 .29699708 .0029907227 .38398744 .0029907227 .4189911 0V.0309906H.3869934C.29699708 .0309906 .2939911 .041992189 .2939911 .07902527V.64004519Z"/>
<path id="font_3_5" d="M.1269989 .07699585 .23298645 .18003845C.3889923 .31811524 .44898988 .3721466 .44898988 .47216798 .44898988 .5860901 .35899354 .6660156 .23699951 .6660156 .12399292 .6660156 .049987794 .57411196 .049987794 .48516847 .049987794 .4291687 .099990848 .4291687 .102996829 .4291687 .11999512 .4291687 .15499878 .44117738 .15499878 .48217774 .15499878 .5081787 .13699341 .5341797 .101989749 .5341797 .09399414 .5341797 .09199524 .5341797 .08898926 .5331726 .11199951 .59806826 .1659851 .63500979 .22399903 .63500979 .31498719 .63500979 .35798646 .5541382 .35798646 .47216798 .35798646 .39215089 .30799867 .31311036 .25299073 .25108338L.06098938 .036987306C.049987794 .025985718 .049987794 .023986817 .049987794 0H.42099L.44898988 .17404175H.42399598C.4189911 .14402771 .4119873 .1000061 .4019928 .084991458 .394989 .07699585 .32899476 .07699585 .30699159 .07699585H.1269989Z"/>
<path id="font_3_6" d="M.2899933 .35191346C.37199403 .37893678 .42999269 .4490509 .42999269 .52809146 .42999269 .6100464 .34199525 .6660156 .24598694 .6660156 .14498902 .6660156 .068984989 .60606387 .068984989 .53009036 .068984989 .49710084 .09098816 .47808839 .11999512 .47808839 .15098572 .47808839 .17098999 .50009158 .17098999 .5290985 .17098999 .57910159 .12399292 .57910159 .10899353 .57910159 .13999939 .62802127 .20599365 .64100649 .24198914 .64100649 .2829895 .64100649 .33799745 .6190338 .33799745 .5290985 .33799745 .51708987 .33599855 .45906068 .30999757 .4149933 .27999879 .36691285 .24598694 .36390687 .22099304 .36291505 .21299744 .36190797 .18899536 .35990907 .18199158 .35990907 .17399597 .35890199 .16699219 .35791017 .16699219 .3479004 .16699219 .33691407 .17399597 .33691407 .19099427 .33691407H.23498535C.31698609 .33691407 .35398866 .2686615 .35398866 .17037964 .35398866 .034469606 .2849884 .0055389406 .24099732 .0055389406 .19799805 .0055389406 .12298584 .022491456 .08799744 .08137512 .12298584 .07637024 .1539917 .09837341 .1539917 .1363678 .1539917 .17237854 .1269989 .19238281 .09799194 .19238281 .07398987 .19238281 .041992189 .17837525 .041992189 .1343689 .041992189 .043441774 .1349945-.022460938 .24398804-.022460938 .3659973-.022460938 .45700074 .06838989 .45700074 .17037964 .45700074 .252594 .3939972 .33088685 .2899933 .35191346Z"/>
<path id="font_3_7" d="M.2939911 .16503906V.07800293C.2939911 .041992189 .2919922 .0309906 .21798706 .0309906H.19699097V0C.23799134 .0029907227 .2899933 .0029907227 .33198548 .0029907227 .37399293 .0029907227 .4269867 .0029907227 .46798707 0V.0309906H.44699098C.37298585 .0309906 .37098695 .041992189 .37098695 .07800293V.16503906H.47099305V.19602967H.37098695V.65075686C.37098695 .67074587 .37098695 .6767578 .35499574 .6767578 .34599305 .6767578 .34298707 .6767578 .33499146 .66474917L.027999878 .19602967V.16503906H.2939911M.2999878 .19602967H.055999757L.2999878 .5688019V.19602967Z"/>
<path id="font_3_8" d="M.44898988 .20022583C.44898988 .3193512 .36698915 .41944886 .25898744 .41944886 .21099854 .41944886 .16799927 .40345765 .13198853 .36842347V.5637665C.1519928 .5577698 .18499756 .55078127 .21699524 .55078127 .33999635 .55078127 .4099884 .6417694 .4099884 .6547699 .4099884 .6607666 .40699769 .6657715 .3999939 .6657715 .39898683 .6657715 .39698792 .6657715 .3919983 .66278079 .37199403 .6537781 .32299806 .6337738 .2559967 .6337738 .21598816 .6337738 .16999817 .6407776 .12298584 .6617737 .114990238 .66477969 .11299133 .66477969 .11099243 .66477969 .100997928 .66477969 .100997928 .6567688 .100997928 .6407776V.34439088C.100997928 .32637025 .100997928 .31835938 .114990238 .31835938 .12199402 .31835938 .12399292 .32136537 .12799073 .32736207 .13899231 .3433838 .17599488 .39746095 .25698854 .39746095 .30899049 .39746095 .33399964 .35139466 .34199525 .33337403 .35798646 .29632569 .3600006 .25727845 .3600006 .20722962 .3600006 .17222595 .3600006 .11222839 .33599855 .07035828 .31199647 .031463624 .2749939 .0055389406 .22898865 .0055389406 .1559906 .0055389406 .09899902 .058380128 .08198547 .11723328 .084991458 .1162262 .08799744 .115234378 .09899902 .115234378 .13198853 .115234378 .14898682 .14022827 .14898682 .16423035 .14898682 .18823242 .13198853 .21322632 .09899902 .21322632 .084991458 .21322632 .049987794 .20622254 .049987794 .16023255 .049987794 .07434082 .11898804-.022460938 .23098755-.022460938 .34700013-.022460938 .44898988 .073349 .44898988 .20022583Z"/>
<path id="font_1_1" d="M.47099305 .3773346C.47200013 .3833313 .47399903 .38833619 .47399903 .39535523 .47399903 .41236878 .46199037 .42237855 .44499208 .42237855 .43499757 .42237855 .4079895 .41537477 .4039917 .3793335 .38598634 .41636659 .35099793 .4423828 .31098939 .4423828 .19699097 .4423828 .07299805 .30226136 .07299805 .15812683 .07299805 .059020997 .13398743 0 .20599365 0 .2649994 0 .31199647 .04701233 .32199098 .058029176L.32299806 .057022096C.3019867-.031982423 .2899933-.07295227 .2899933-.07495117 .28599549-.08395386 .2519989-.18309021 .1459961-.18309021 .1269989-.18309021 .09399414-.18206787 .06599426-.17297364 .09599304-.16394043 .10699463-.13793946 .10699463-.12094116 .10699463-.10494995 .09599304-.0859375 .068984989-.0859375 .04699707-.0859375 .01499939-.10394287 .01499939-.14395142 .01499939-.18508911 .051986696-.20507813 .147995-.20507813 .272995-.20507813 .34498597-.12693787 .3600006-.06695557L.47099305 .3773346M.34098817 .12809754C.33499146 .10206604 .31199647 .077041629 .2899933 .058029176 .2689972 .040008546 .23799134 .021987915 .20899964 .021987915 .15899658 .021987915 .14399719 .074035648 .14399719 .11407471 .14399719 .16212464 .17298889 .28024293 .19999695 .33128358 .22698975 .38034059 .269989 .42037965 .31199647 .42037965 .37799073 .42037965 .3919983 .33929444 .3919983 .33428956 .3919983 .32928468 .3899994 .3232727 .3889923 .3192749L.34098817 .12809754Z"/>
<path id="font_3_1" d="M.33099366-.2400055C.33099366-.23701477 .33099366-.23500061 .31399537-.21800232 .18899536-.0920105 .15699768 .09700012 .15699768 .25 .15699768 .42399598 .19499207 .59799197 .31799317 .72299197 .33099366 .73498538 .33099366 .7369995 .33099366 .73999026 .33099366 .746994 .32699586 .75 .32099916 .75 .31098939 .75 .22099304 .6819916 .1619873 .5549927 .11099243 .44499208 .09899902 .33399964 .09899902 .25 .09899902 .17199707 .10998535 .050994874 .16499329-.06201172 .22499085-.18501282 .31098939-.25 .32099916-.25 .32699586-.25 .33099366-.24700928 .33099366-.2400055Z"/>
<path id="font_3_2" d="M.2889862 .25C.2889862 .32798768 .27799989 .44898988 .22299195 .56199648 .16299439 .68499758 .07699585 .75 .066986087 .75 .06098938 .75 .056991579 .74598696 .056991579 .73999026 .056991579 .7369995 .056991579 .73498538 .07598877 .71699526 .17399597 .6179962 .23098755 .45899964 .23098755 .25 .23098755 .07899475 .19400025-.09700012 .069992069-.2230072 .056991579-.23500061 .056991579-.23701477 .056991579-.2400055 .056991579-.2460022 .06098938-.25 .066986087-.25 .07699585-.25 .16699219-.18200684 .22599793-.055007936 .2769928 .054992677 .2889862 .16600037 .2889862 .25Z"/>
<path id="font_3_9" d="M.68699648 .32714845C.70199587 .32714845 .72099307 .32714845 .72099307 .34713746 .72099307 .36714173 .70199587 .36714173 .6879883 .36714173H.08898926C.07499695 .36714173 .055999757 .36714173 .055999757 .34713746 .055999757 .32714845 .07499695 .32714845 .08999634 .32714845H.68699648M.6879883 .13284302C.70199587 .13284302 .72099307 .13284302 .72099307 .15284729 .72099307 .17285156 .70199587 .17285156 .68699648 .17285156H.08999634C.07499695 .17285156 .055999757 .17285156 .055999757 .15284729 .055999757 .13284302 .07499695 .13284302 .08898926 .13284302H.6879883Z"/>
<path id="font_3_3" d="M.40899659 .23046875H.6879883C.70199587 .23046875 .72099307 .23046875 .72099307 .25045777 .72099307 .27046205 .70199587 .27046205 .6879883 .27046205H.40899659V.5500183C.40899659 .56399539 .40899659 .5830078 .3889923 .5830078 .36898805 .5830078 .36898805 .56399539 .36898805 .5500183V.27046205H.08898926C.07499695 .27046205 .055999757 .27046205 .055999757 .25045777 .055999757 .23046875 .07499695 .23046875 .08898926 .23046875H.36898805V-.05000305C.36898805-.06401062 .36898805-.08300781 .3889923-.08300781 .40899659-.08300781 .40899659-.06401062 .40899659-.05000305V.23046875Z"/>
</defs>
<path transform="matrix(1,0,0,-1.00006,44.332,181.95613)" stroke-width=".3985" stroke-linecap="butt" stroke-miterlimit="10" stroke-linejoin="miter" fill="none" stroke="#00aeef" d="M-42.5202 0H99.21382M-42.5202 14.17339H99.21382M-42.5202 28.34679H99.21382M-42.5202 42.52019H99.21382M-42.5202 56.69359H99.21382M-42.5202 70.86697H99.21382M-42.5202 85.04037H99.21382M-42.5202 99.21378H99.21382M-42.5202 113.38718H99.21382M-42.5202 127.56056H99.21382M-42.5202 141.73397H99.21382M-42.5202 155.90737H99.21382M-42.52019 0V155.90744M-28.34679 0V155.90744M-14.17339 0V155.90744M0 0V155.90744M14.17339 0V155.90744M28.34679 0V155.90744M42.52019 0V155.90744M56.69359 0V155.90744M70.86697 0V155.90744M85.04037 0V155.90744M99.21378 0V155.90744M99.21382 155.90744"/>
<path transform="matrix(1,0,0,-1.00006,44.332,181.95613)" stroke-width=".79701" stroke-linecap="butt" stroke-miterlimit="10" stroke-linejoin="miter" fill="none" stroke="#000000" d="M-42.5202 0H111.95262"/>
<path transform="matrix(1,0,0,-1.00006,156.28462,181.95613)" d="M1.0361 0C-.25902 .25902-1.55415 .77707-3.1083 1.68365-1.55415 .51805-1.55415-.51805-3.1083-1.68365-1.55415-.77707-.25902-.25902 1.0361 0Z"/>
<path transform="matrix(1,0,0,-1.00006,156.28462,181.95613)" stroke-width=".79701" stroke-linecap="butt" stroke-linejoin="round" fill="none" stroke="#000000" d="M1.0361 0C-.25902 .25902-1.55415 .77707-3.1083 1.68365-1.55415 .51805-1.55415-.51805-3.1083-1.68365-1.55415-.77707-.25902-.25902 1.0361 0Z"/>
<use data-text="x" xlink:href="#font_1_2" transform="matrix(9.9626,0,0,-9.963197,161.438,184.10126)"/>
<path transform="matrix(1,0,0,-1.00006,44.332,181.95613)" stroke-width=".79701" stroke-linecap="butt" stroke-miterlimit="10" stroke-linejoin="miter" fill="none" stroke="#000000" d="M0 0V168.64624"/>
<path transform="matrix(0,-1.00006,-1,-0,44.332,13.299774)" d="M1.0361 0C-.25902 .25902-1.55415 .77707-3.1083 1.68365-1.55415 .51805-1.55415-.51805-3.1083-1.68365-1.55415-.77707-.25902-.25902 1.0361 0Z"/>
<path transform="matrix(0,-1.00006,-1,-0,44.332,13.299774)" stroke-width=".79701" stroke-linecap="butt" stroke-linejoin="round" fill="none" stroke="#000000" d="M1.0361 0C-.25902 .25902-1.55415 .77707-3.1083 1.68365-1.55415 .51805-1.55415-.51805-3.1083-1.68365-1.55415-.77707-.25902-.25902 1.0361 0Z"/>
<use data-text="y" xlink:href="#font_1_3" transform="matrix(9.9626,0,0,-9.963197,41.711,6.2085878)"/>
<path transform="matrix(1,0,0,-1.00006,44.332,181.95613)" stroke-width="1.19553" stroke-linecap="butt" stroke-miterlimit="10" stroke-linejoin="miter" fill="none" stroke="#00aeef" d="M-28.3468 0V155.90744"/>
<path transform="matrix(1,0,0,-1.00006,44.332,181.95613)" stroke-width=".3985" stroke-linecap="butt" stroke-miterlimit="10" stroke-linejoin="miter" fill="none" stroke="#000000" d="M-28.3468 4.25183V-4.25227"/>
<path transform="matrix(1,0,0,-1.00006,44.332,181.95613)" d="M-35.70819-15.6873H-20.98541V-6.44407H-35.70819Z" fill="#ffffff"/>
<use data-text="&#x2212;" xlink:href="#font_2_1" transform="matrix(9.9626,0,0,-9.963197,9.619995,195.81797)"/>
<use data-text="1" xlink:href="#font_3_4" transform="matrix(9.9626,0,0,-9.963197,17.367997,195.81797)"/>
<path transform="matrix(1,0,0,-1.00006,44.332,181.95613)" stroke-width="1.19553" stroke-linecap="butt" stroke-miterlimit="10" stroke-linejoin="miter" fill="none" stroke="#00aeef" d="M28.3468 0V155.90744"/>
<path transform="matrix(1,0,0,-1.00006,44.332,181.95613)" stroke-width=".3985" stroke-linecap="butt" stroke-miterlimit="10" stroke-linejoin="miter" fill="none" stroke="#000000" d="M28.3468 4.25183V-4.25227"/>
<path transform="matrix(1,0,0,-1.00006,44.332,181.95613)" d="M24.85983-14.85707H31.83377V-6.44409H24.85983Z" fill="#ffffff"/>
<use data-text="1" xlink:href="#font_3_4" transform="matrix(9.9626,0,0,-9.963197,70.188,195.81797)"/>
<path transform="matrix(1,0,0,-1.00006,44.332,181.95613)" stroke-width="1.19553" stroke-linecap="butt" stroke-miterlimit="10" stroke-linejoin="miter" fill="none" stroke="#00aeef" d="M56.69362 0V155.90744"/>
<path transform="matrix(1,0,0,-1.00006,44.332,181.95613)" stroke-width=".3985" stroke-linecap="butt" stroke-miterlimit="10" stroke-linejoin="miter" fill="none" stroke="#000000" d="M56.69362 4.25183V-4.25227"/>
<path transform="matrix(1,0,0,-1.00006,44.332,181.95613)" d="M53.20665-14.85707H60.180589V-6.44409H53.20665Z" fill="#ffffff"/>
<use data-text="2" xlink:href="#font_3_5" transform="matrix(9.9626,0,0,-9.963197,98.535,195.81797)"/>
<path transform="matrix(1,0,0,-1.00006,44.332,181.95613)" stroke-width="1.19553" stroke-linecap="butt" stroke-miterlimit="10" stroke-linejoin="miter" fill="none" stroke="#00aeef" d="M85.04042 0V155.90744"/>
<path transform="matrix(1,0,0,-1.00006,44.332,181.95613)" stroke-width=".3985" stroke-linecap="butt" stroke-miterlimit="10" stroke-linejoin="miter" fill="none" stroke="#000000" d="M85.04042 4.25183V-4.25227"/>
<path transform="matrix(1,0,0,-1.00006,44.332,181.95613)" d="M81.55345-14.85707H88.52739V-6.44409H81.55345Z" fill="#ffffff"/>
<use data-text="3" xlink:href="#font_3_6" transform="matrix(9.9626,0,0,-9.963197,126.882,195.81797)"/>
<path transform="matrix(1,0,0,-1.00006,44.332,181.95613)" stroke-width="1.19553" stroke-linecap="butt" stroke-miterlimit="10" stroke-linejoin="miter" fill="none" stroke="#00aeef" d="M-42.5202 28.3468H99.21384"/>
<path transform="matrix(1,0,0,-1.00006,44.332,181.95613)" stroke-width=".3985" stroke-linecap="butt" stroke-miterlimit="10" stroke-linejoin="miter" fill="none" stroke="#000000" d="M4.25183 28.3468H-4.25227"/>
<path transform="matrix(1,0,0,-1.00006,44.332,181.95613)" d="M-13.41801 24.1403H-6.44407V32.55328H-13.41801Z" fill="#ffffff"/>
<use data-text="1" xlink:href="#font_3_4" transform="matrix(9.9626,0,0,-9.963197,31.910004,156.81763)"/>
<path transform="matrix(1,0,0,-1.00006,44.332,181.95613)" stroke-width="1.19553" stroke-linecap="butt" stroke-miterlimit="10" stroke-linejoin="miter" fill="none" stroke="#00aeef" d="M-42.5202 56.69362H99.21384"/>
<path transform="matrix(1,0,0,-1.00006,44.332,181.95613)" stroke-width=".3985" stroke-linecap="butt" stroke-miterlimit="10" stroke-linejoin="miter" fill="none" stroke="#000000" d="M4.25183 56.69362H-4.25227"/>
<path transform="matrix(1,0,0,-1.00006,44.332,181.95613)" d="M-13.41801 52.48712H-6.44407V60.9001H-13.41801Z" fill="#ffffff"/>
<use data-text="2" xlink:href="#font_3_5" transform="matrix(9.9626,0,0,-9.963197,31.910004,128.46993)"/>
<path transform="matrix(1,0,0,-1.00006,44.332,181.95613)" stroke-width="1.19553" stroke-linecap="butt" stroke-miterlimit="10" stroke-linejoin="miter" fill="none" stroke="#00aeef" d="M-42.5202 85.04042H99.21384"/>
<path transform="matrix(1,0,0,-1.00006,44.332,181.95613)" stroke-width=".3985" stroke-linecap="butt" stroke-miterlimit="10" stroke-linejoin="miter" fill="none" stroke="#000000" d="M4.25183 85.04042H-4.25227"/>
<path transform="matrix(1,0,0,-1.00006,44.332,181.95613)" d="M-13.41801 80.83392H-6.44407V89.2469H-13.41801Z" fill="#ffffff"/>
<use data-text="3" xlink:href="#font_3_6" transform="matrix(9.9626,0,0,-9.963197,31.910004,100.12122)"/>
<path transform="matrix(1,0,0,-1.00006,44.332,181.95613)" stroke-width="1.19553" stroke-linecap="butt" stroke-miterlimit="10" stroke-linejoin="miter" fill="none" stroke="#00aeef" d="M-42.5202 113.38724H99.21384"/>
<path transform="matrix(1,0,0,-1.00006,44.332,181.95613)" stroke-width=".3985" stroke-linecap="butt" stroke-miterlimit="10" stroke-linejoin="miter" fill="none" stroke="#000000" d="M4.25183 113.38724H-4.25227"/>
<path transform="matrix(1,0,0,-1.00006,44.332,181.95613)" d="M-13.41801 109.18074H-6.44407V117.59372H-13.41801Z" fill="#ffffff"/>
<use data-text="4" xlink:href="#font_3_7" transform="matrix(9.9626,0,0,-9.963197,31.910004,71.77252)"/>
<path transform="matrix(1,0,0,-1.00006,44.332,181.95613)" stroke-width="1.19553" stroke-linecap="butt" stroke-miterlimit="10" stroke-linejoin="miter" fill="none" stroke="#00aeef" d="M-42.5202 141.73404H99.21384"/>
<path transform="matrix(1,0,0,-1.00006,44.332,181.95613)" stroke-width=".3985" stroke-linecap="butt" stroke-miterlimit="10" stroke-linejoin="miter" fill="none" stroke="#000000" d="M4.25183 141.73404H-4.25227"/>
<path transform="matrix(1,0,0,-1.00006,44.332,181.95613)" d="M-13.41801 137.52754H-6.44407V145.94052H-13.41801Z" fill="#ffffff"/>
<use data-text="5" xlink:href="#font_3_8" transform="matrix(9.9626,0,0,-9.963197,31.910004,43.42383)"/>
<path transform="matrix(1,0,0,-1.00006,44.332,181.95613)" stroke-width="1.19553" stroke-linecap="butt" stroke-miterlimit="10" stroke-linejoin="miter" fill="none" stroke="#ff0000" d="M-35.81567 154.05117C-34.55031 145.09127-34.55031 145.09127-33.96373 141.41049-33.37717 137.72974-32.43648 132.45528-31.84991 129.37729-31.26335 126.29932-30.32268 121.8372-29.73611 119.2265-29.14954 116.61578-28.20886 112.80325-27.62228 110.56102-27.03572 108.31879-26.09506 105.01361-25.50848 103.066-24.92192 101.11838-23.98123 98.23077-23.39467 96.52386-22.8081 94.81696-21.86742 92.27292-21.28085 90.76375-20.69427 89.2546-19.75362 86.99036-19.16704 85.64684-18.58047 84.30331-17.63979 82.2832-17.05322 81.08054-16.46666 79.87785-15.52599 78.06273-14.93942 76.97876-14.35284 75.8948-13.41217 74.2505-12.82559 73.26802-12.23903 72.28555-11.29836 70.79129-10.71179 69.89769-10.12523 69.00409-9.18454 67.64409-8.59798 66.82755-8.0114 66.011-7.07074 64.76178-6.48416 64.01257-5.8976 63.26338-4.95691 62.11758-4.37035 61.42773-3.78378 60.73788-2.8431 59.67772-2.25653 59.04056-1.66997 58.4034-.7293 57.42583-.14273 56.83548 .44383 56.24512 1.38449 55.33437 1.97107 54.78568 2.55763 54.23697 3.4983 53.39125 4.08487 52.88078 4.67143 52.37032 5.61212 51.58337 6.19868 51.1065 6.78526 50.62964 7.72592 49.89064 8.3125 49.44383 8.89906 48.99704 9.83975 48.30516 10.42632 47.88628 11.01288 47.46738 11.95355 46.81847 12.54012 46.42473 13.1267 46.03098 14.06737 45.41908 14.65395 45.04839 15.24051 44.67767 16.1812 44.10237 16.76776 43.75293 17.35432 43.40347 18.295 42.86015 18.88156 42.52971 19.46814 42.19928 20.40881 41.68399 20.99538 41.37138 21.58195 41.05879 22.52261 40.5728 23.10919 40.27663 23.69576 39.98047 24.63644 39.51796 25.223 39.2368 25.80957 38.95564 26.75024 38.5173 27.3368 38.2502 27.92339 37.98308 28.86406 37.56584 29.45064 37.31157 30.0372 37.05731 30.97787 36.65967 31.56444 36.41751 32.151 36.17537 33.09169 35.79713 33.67825 35.56628 34.26483 35.33542 35.2055 34.9741 35.79208 34.75356 36.37865 34.533 37.31932 34.18759 37.90588 33.9767 38.49245 33.76582 39.43314 33.43538 40.0197 33.23361 40.60628 33.03186 41.54694 32.71558 42.13351 32.5225 42.72008 32.32945 43.66075 32.02715 44.24733 31.84213 44.8339 31.65712 45.77457 31.36644 46.36113 31.189 46.9477 31.01154 47.88838 30.73366 48.47495 30.56311 49.06152 30.39256 50.00218 30.12363 50.58876 29.95973 51.17532 29.79584 52.11601 29.5395 52.70258 29.38187 53.28914 29.22421 54.22983 28.97527 54.81639 28.82344 55.40297 28.67162 56.34363 28.43372 56.9302 28.28754 57.51677 28.14134 58.45746 27.91064 59.04402 27.76979 59.63058 27.62895 60.57126 27.40794 61.15782 27.27237 61.7444 27.1368 62.68507 26.92365 63.27165 26.7927 63.85822 26.66174 64.79887 26.45525 65.38545 26.32857 65.97202 26.20189 66.9127 26.00177 67.49927 25.8796 68.08583 25.75742 69.0265 25.56609 69.61307 25.44792 70.19965 25.32976 71.14032 25.14244 71.7269 25.02794 72.31346 24.91344 73.25415 24.73323 73.84071 24.62263 74.42728 24.51204 75.36795 24.33788 75.95451 24.23076 76.54109 24.12364 77.48177 23.95438 78.06834 23.85056 78.6549 23.74675 79.59558 23.583 80.18214 23.48247 80.7687 23.38196 81.7094 23.22371 82.29596 23.12607 82.88254 23.02843 83.8232 22.87354 84.40977 22.77873 84.99634 22.68391 85.93703 22.53455 86.52359 22.44266 87.11015 22.35078 88.05084 22.20581 88.6374 22.11652 89.22397 22.02722 90.16464 21.88586 90.7512 21.79904 91.33778 21.7122 92.27846 21.57495 92.86504 21.49063 93.4516 21.40633 94.39227 21.27316 94.97884 21.19131 95.5654 21.10948 96.50609 20.98035 97.09265 20.90067 97.67923 20.82097 99.20647 20.61691 97.35005 20.86472"/>
<path transform="matrix(-.13982,-.99021938,-.99016,.13982839,8.516331,27.895737)" d="M1.27522 0C-.31879 .31879-1.91284 .9564-3.8257 2.07224-1.91284 .6376-1.91284-.6376-3.8257-2.07224-1.91284-.9564-.31879-.31879 1.27522 0Z" fill="#ff0000"/>
<path transform="matrix(-.13982,-.99021938,-.99016,.13982839,8.516331,27.895737)" stroke-width="1.19553" stroke-linecap="butt" stroke-linejoin="round" fill="none" stroke="#ff0000" d="M1.27522 0C-.31879 .31879-1.91284 .9564-3.8257 2.07224-1.91284 .6376-1.91284-.6376-3.8257-2.07224-1.91284-.9564-.31879-.31879 1.27522 0Z"/>
<path transform="matrix(.99115,.13231793,.13231,-.99120947,141.68204,161.09017)" d="M1.27522 0C-.31879 .31879-1.91284 .9564-3.8257 2.07224-1.91284 .6376-1.91284-.6376-3.8257-2.07224-1.91284-.9564-.31879-.31879 1.27522 0Z" fill="#ff0000"/>
<path transform="matrix(.99115,.13231793,.13231,-.99120947,141.68204,161.09017)" stroke-width="1.19553" stroke-linecap="butt" stroke-linejoin="round" fill="none" stroke="#ff0000" d="M1.27522 0C-.31879 .31879-1.91284 .9564-3.8257 2.07224-1.91284 .6376-1.91284-.6376-3.8257-2.07224-1.91284-.9564-.31879-.31879 1.27522 0Z"/>
<path transform="matrix(1,0,0,-1.00006,44.332,181.95613)" d="M27.1579 87.80528H86.22931V110.622348H27.1579Z" fill="#ffffff"/>
<use data-text="g" xlink:href="#font_1_1" transform="matrix(9.9626,0,0,-9.963197,72.486,85.484348)" fill="#ff0000"/>
<use data-text="(" xlink:href="#font_3_1" transform="matrix(9.9626,0,0,-9.963197,77.59499,85.484348)" fill="#ff0000"/>
<use data-text="x" xlink:href="#font_1_2" transform="matrix(9.9626,0,0,-9.963197,81.46899,85.484348)" fill="#ff0000"/>
<use data-text=")" xlink:href="#font_3_2" transform="matrix(9.9626,0,0,-9.963197,87.16299,85.484348)" fill="#ff0000"/>
<use data-text="=" xlink:href="#font_3_9" transform="matrix(9.9626,0,0,-9.963197,93.788127,85.484348)" fill="#ff0000"/>
<use data-text="4" xlink:href="#font_3_7" transform="matrix(9.9626,0,0,-9.963197,114.45199,78.74393)" fill="#ff0000"/>
<path transform="matrix(1,0,0,-1.00006,-56.846,-83.48279)" stroke-width=".3985" stroke-linecap="butt" stroke-miterlimit="10" stroke-linejoin="miter" fill="none" stroke="#ff0000" d="M162.363-166.466H185.214"/>
<use data-text="x" xlink:href="#font_1_2" transform="matrix(9.9626,0,0,-9.963197,105.517009,92.318759)" fill="#ff0000"/>
<use data-text="+" xlink:href="#font_3_3" transform="matrix(9.9626,0,0,-9.963197,113.424,92.318759)" fill="#ff0000"/>
<use data-text="2" xlink:href="#font_3_5" transform="matrix(9.9626,0,0,-9.963197,123.37664,92.318759)" fill="#ff0000"/>
</svg>
