<svg xmlns="http://www.w3.org/2000/svg" xmlns:xlink="http://www.w3.org/1999/xlink" version="1.1" width="167" height="311" viewBox="0 0 167 311">
<defs>
<path id="font_1_1" d="M.33399964 .30233766C.33999635 .32835389 .36299134 .42037965 .43299867 .42037965 .43798829 .42037965 .46199037 .42037965 .48298646 .40734864 .45498658 .402359 .43499757 .37734986 .43499757 .35334779 .43499757 .33735658 .44599916 .31835938 .47299195 .31835938 .49499513 .31835938 .5269928 .3363495 .5269928 .37635804 .5269928 .42837525 .46798707 .4423828 .43399049 .4423828 .37599183 .4423828 .34098817 .38935853 .32899476 .36634828 .3039856 .43237306 .25 .4423828 .22099304 .4423828 .116989139 .4423828 .05999756 .3133545 .05999756 .28834535 .05999756 .27833558 .069992069 .27833558 .07199097 .27833558 .07998657 .27833558 .08299255 .28033448 .084991458 .28933717 .11898804 .39535523 .18499756 .42037965 .21899414 .42037965 .23799134 .42037965 .272995 .4113617 .272995 .35334779 .272995 .32235719 .2559967 .25532533 .21899414 .11528015 .20298767 .053268434 .16799927 .011245728 .12399292 .011245728 .117996219 .011245728 .09498596 .011245728 .07398987 .024276734 .09899902 .029266358 .12098694 .05027771 .12098694 .07827759 .12098694 .105270389 .09899902 .11328125 .083999637 .11328125 .053985597 .11328125 .0289917 .08728027 .0289917 .055267335 .0289917 .009246826 .07899475-.0107421879 .12298584-.0107421879 .18899536-.0107421879 .22499085 .059280397 .22799683 .0652771 .23999024 .028274537 .27598573-.0107421879 .33599855-.0107421879 .43899537-.0107421879 .49598695 .118270877 .49598695 .14328003 .49598695 .1532898 .4869995 .1532898 .48399354 .1532898 .47499085 .1532898 .47299195 .14929199 .47099305 .14228821 .43798829 .03527832 .36999513 .011245728 .33799745 .011245728 .29899598 .011245728 .2829895 .043273927 .2829895 .07727051 .2829895 .09927368 .2889862 .121276859 .2999878 .16529846L.33399964 .30233766Z"/>
<path id="font_1_2" d="M.48599244 .38136292C.48999024 .39537049 .48999024 .39736939 .48999024 .40437318 .48999024 .42237855 .47599793 .43138124 .46099855 .43138124 .45098878 .43138124 .43499757 .42536927 .42599488 .41036988 .42399598 .405365 .41600038 .37435914 .4119873 .35635377 .40499879 .33035279 .397995 .30334474 .3919983 .27633668L.34700013 .09628296C.34298707 .08126831 .2999878 .011245728 .23399353 .011245728 .18299866 .011245728 .17199707 .055267335 .17199707 .0922699 .17199707 .1382904 .18899536 .20030213 .22299195 .28833009 .23899842 .3293457 .24299622 .3403473 .24299622 .36035157 .24299622 .405365 .21099854 .4423828 .16099549 .4423828 .06599426 .4423828 .0289917 .29733277 .0289917 .28833009 .0289917 .27833558 .038986207 .27833558 .040985109 .27833558 .050994874 .27833558 .051986696 .28033448 .056991579 .29634095 .083999637 .3903656 .12399292 .42037965 .1579895 .42037965 .1659851 .42037965 .18299866 .42037965 .18299866 .3883667 .18299866 .36335755 .17298889 .3373413 .1659851 .31834413 .12599182 .21231079 .10798645 .1552887 .10798645 .10827637 .10798645 .019256592 .17098999-.0107421879 .22999573-.0107421879 .2689972-.0107421879 .30299378 .0062561037 .33099366 .03425598 .31799317-.017745972 .30599977-.06674194 .2659912-.11973572 .23999024-.15385437 .20199585-.18309021 .1559906-.18309021 .14199829-.18309021 .09700012-.18005371 .07998657-.14074707 .09599304-.14074707 .10899353-.14074707 .12298584-.1287384 .1329956-.11973572 .14299011-.10673523 .14299011-.08773804 .14299011-.056747438 .115997318-.052734376 .10598755-.052734376 .08299255-.052734376 .049987794-.068740848 .049987794-.11773682 .049987794-.16796875 .09399414-.20507813 .1559906-.20507813 .25898744-.20507813 .3619995-.11373901 .3899994-.00074768069L.48599244 .38136292Z"/>
<path id="font_2_1" d="M.6589966 .23046875C.6759949 .23046875 .69400027 .23046875 .69400027 .25045777 .69400027 .27046205 .6759949 .27046205 .6589966 .27046205H.117996219C.100997928 .27046205 .08299255 .27046205 .08299255 .25045777 .08299255 .23046875 .100997928 .23046875 .117996219 .23046875H.6589966Z"/>
<path id="font_3_3" d="M.44898988 .20022583C.44898988 .3193512 .36698915 .41944886 .25898744 .41944886 .21099854 .41944886 .16799927 .40345765 .13198853 .36842347V.5637665C.1519928 .5577698 .18499756 .55078127 .21699524 .55078127 .33999635 .55078127 .4099884 .6417694 .4099884 .6547699 .4099884 .6607666 .40699769 .6657715 .3999939 .6657715 .39898683 .6657715 .39698792 .6657715 .3919983 .66278079 .37199403 .6537781 .32299806 .6337738 .2559967 .6337738 .21598816 .6337738 .16999817 .6407776 .12298584 .6617737 .114990238 .66477969 .11299133 .66477969 .11099243 .66477969 .100997928 .66477969 .100997928 .6567688 .100997928 .6407776V.34439088C.100997928 .32637025 .100997928 .31835938 .114990238 .31835938 .12199402 .31835938 .12399292 .32136537 .12799073 .32736207 .13899231 .3433838 .17599488 .39746095 .25698854 .39746095 .30899049 .39746095 .33399964 .35139466 .34199525 .33337403 .35798646 .29632569 .3600006 .25727845 .3600006 .20722962 .3600006 .17222595 .3600006 .11222839 .33599855 .07035828 .31199647 .031463624 .2749939 .0055389406 .22898865 .0055389406 .1559906 .0055389406 .09899902 .058380128 .08198547 .11723328 .084991458 .1162262 .08799744 .115234378 .09899902 .115234378 .13198853 .115234378 .14898682 .14022827 .14898682 .16423035 .14898682 .18823242 .13198853 .21322632 .09899902 .21322632 .084991458 .21322632 .049987794 .20622254 .049987794 .16023255 .049987794 .07434082 .11898804-.022460938 .23098755-.022460938 .34700013-.022460938 .44898988 .073349 .44898988 .20022583Z"/>
<path id="font_3_2" d="M.2939911 .64004519C.2939911 .66400149 .2939911 .6660156 .2709961 .6660156 .20899964 .60227969 .12098694 .60227969 .08898926 .60227969V.57128909C.10899353 .57128909 .16799927 .57128909 .21998596 .5972748V.07902527C.21998596 .042999269 .21699524 .0309906 .1269989 .0309906H.09498596V0C.12998963 .0029907227 .21699524 .0029907227 .25698854 .0029907227 .29699708 .0029907227 .38398744 .0029907227 .4189911 0V.0309906H.3869934C.29699708 .0309906 .2939911 .041992189 .2939911 .07902527V.64004519Z"/>
<path id="font_3_1" d="M.45999146 .31976319C.45999146 .39982606 .45498658 .47988893 .41999818 .5539398 .37399293 .65000918 .2919922 .6660156 .25 .6660156 .18998719 .6660156 .116989139 .64001467 .07598877 .54693606 .04399109 .47789 .038986207 .39982606 .038986207 .31976319 .038986207 .24472046 .042999269 .15464783 .083999637 .07859802 .1269989-.0024719239 .19999695-.022460938 .24899292-.022460938 .30299378-.022460938 .3789978-.0014648438 .4229889 .09359741 .45498658 .16265869 .45999146 .2407074 .45999146 .31976319M.24899292-.00047302247C.20999146-.00047302247 .15098572 .024551392 .1329956 .12062073 .12199402 .18066406 .12199402 .2727356 .12199402 .3317871 .12199402 .39582826 .12199402 .46188355 .12998963 .5159149 .14898682 .63500979 .22399903 .64401248 .24899292 .64401248 .28199769 .64401248 .34799195 .6259918 .36698915 .52693179 .3769989 .47088624 .3769989 .39482118 .3769989 .3317871 .3769989 .25672914 .3769989 .18867493 .3659973 .12461853 .35099793 .029556275 .2939911-.00047302247 .24899292-.00047302247Z"/>
</defs>
<path transform="matrix(1.00003,0,0,-1.00006,77.44495,164.9471)" stroke-width=".3985" stroke-linecap="butt" stroke-miterlimit="10" stroke-linejoin="miter" fill="none" stroke="#00aeef" d="M-70.867-141.73404H70.867M-70.867-127.56062H70.867M-70.867-113.38724H70.867M-70.867-99.21382H70.867M-70.867-85.04042H70.867M-70.867-70.867H70.867M-70.867-56.69362H70.867M-70.867-42.5202H70.867M-70.867-28.3468H70.867M-70.867-14.17339H70.867M-70.867 0H70.867M-70.867 14.17339H70.867M-70.867 28.3468H70.867M-70.867 42.5202H70.867M-70.867 56.69362H70.867M-70.867 70.867H70.867M-70.867 85.04042H70.867M-70.867 99.21382H70.867M-70.867 113.38724H70.867M-70.867 127.56062H70.867M-70.867 141.72905H70.867M-70.867-141.73404V141.73404M-56.69362-141.73404V141.73404M-42.5202-141.73404V141.73404M-28.3468-141.73404V141.73404M-14.17339-141.73404V141.73404M0-141.73404V141.73404M14.17339-141.73404V141.73404M28.3468-141.73404V141.73404M42.5202-141.73404V141.73404M56.69362-141.73404V141.73404M70.86205-141.73404V141.73404M70.867 141.73404"/>
<path transform="matrix(1.00003,0,0,-1.00006,77.44495,164.9471)" stroke-width=".79701" stroke-linecap="butt" stroke-miterlimit="10" stroke-linejoin="miter" fill="none" stroke="#000000" d="M-70.867 0H77.93652"/>
<path transform="matrix(1.00003,0,0,-1.00006,155.38382,164.9471)" d="M1.0361 0C-.25902 .25902-1.55415 .77707-3.1083 1.68365-1.55415 .51805-1.55415-.51805-3.1083-1.68365-1.55415-.77707-.25902-.25902 1.0361 0Z"/>
<path transform="matrix(1.00003,0,0,-1.00006,155.38382,164.9471)" stroke-width=".79701" stroke-linecap="butt" stroke-linejoin="round" fill="none" stroke="#000000" d="M1.0361 0C-.25902 .25902-1.55415 .77707-3.1083 1.68365-1.55415 .51805-1.55415-.51805-3.1083-1.68365-1.55415-.77707-.25902-.25902 1.0361 0Z"/>
<use data-text="x" xlink:href="#font_1_1" transform="matrix(9.962899,0,0,-9.963197,160.53745,167.09223)"/>
<path transform="matrix(1.00003,0,0,-1.00006,77.44495,164.9471)" stroke-width=".79701" stroke-linecap="butt" stroke-miterlimit="10" stroke-linejoin="miter" fill="none" stroke="#000000" d="M0-141.73404V151.6382"/>
<path transform="matrix(0,-1.00006,-1.00003,-0,77.44495,13.299805)" d="M1.0361 0C-.25902 .25902-1.55415 .77707-3.1083 1.68365-1.55415 .51805-1.55415-.51805-3.1083-1.68365-1.55415-.77707-.25902-.25902 1.0361 0Z"/>
<path transform="matrix(0,-1.00006,-1.00003,-0,77.44495,13.299805)" stroke-width=".79701" stroke-linecap="butt" stroke-linejoin="round" fill="none" stroke="#000000" d="M1.0361 0C-.25902 .25902-1.55415 .77707-3.1083 1.68365-1.55415 .51805-1.55415-.51805-3.1083-1.68365-1.55415-.77707-.25902-.25902 1.0361 0Z"/>
<use data-text="y" xlink:href="#font_1_2" transform="matrix(9.962899,0,0,-9.963197,74.82387,6.2085726)"/>
<path transform="matrix(1.00003,0,0,-1.00006,77.44495,164.9471)" stroke-width=".3985" stroke-linecap="butt" stroke-miterlimit="10" stroke-linejoin="miter" fill="none" stroke="#000000" d="M-70.867 2.12592V-2.12613"/>
<path transform="matrix(1.00003,0,0,-1.00006,77.44495,164.9471)" d="M-78.2284-13.56116H-63.505624V-4.31793H-78.2284Z" fill="#ffffff"/>
<use data-text="&#x2212;" xlink:href="#font_2_1" transform="matrix(9.962899,0,0,-9.963197,.21061707,176.6828)"/>
<use data-text="5" xlink:href="#font_3_3" transform="matrix(9.962899,0,0,-9.963197,7.958847,176.6828)"/>
<path transform="matrix(1.00003,0,0,-1.00006,77.44495,164.9471)" stroke-width=".3985" stroke-linecap="butt" stroke-miterlimit="10" stroke-linejoin="miter" fill="none" stroke="#000000" d="M70.867 2.12592V-2.12613"/>
<path transform="matrix(1.00003,0,0,-1.00006,77.44495,164.9471)" d="M67.38004-12.73093H74.35398V-4.3179504H67.38004Z" fill="#ffffff"/>
<use data-text="5" xlink:href="#font_3_3" transform="matrix(9.962899,0,0,-9.963197,145.823,176.6828)"/>
<path transform="matrix(1.00003,0,0,-1.00006,77.44495,164.9471)" stroke-width=".3985" stroke-linecap="butt" stroke-miterlimit="10" stroke-linejoin="miter" fill="none" stroke="#00aeef" d="M70.867-141.73404H-70.867"/>
<path transform="matrix(1.00003,0,0,-1.00006,77.44495,164.9471)" stroke-width=".3985" stroke-linecap="butt" stroke-miterlimit="10" stroke-linejoin="miter" fill="none" stroke="#000000" d="M2.12592-141.73404H-2.12613"/>
<path transform="matrix(1.00003,0,0,-1.00006,77.44495,164.9471)" d="M-24.02213-146.35565H-4.3179285V-137.11243H-24.02213Z" fill="#ffffff"/>
<use data-text="&#x2212;" xlink:href="#font_2_1" transform="matrix(9.962899,0,0,-9.963197,54.41826,309.48478)"/>
<use data-text="1" xlink:href="#font_3_2" transform="matrix(9.962899,0,0,-9.963197,62.16649,309.48478)"/>
<use data-text="0" xlink:href="#font_3_1" transform="matrix(9.962899,0,0,-9.963197,67.147937,309.48478)"/>
<path transform="matrix(1.00003,0,0,-1.00006,77.44495,164.9471)" stroke-width=".3985" stroke-linecap="butt" stroke-miterlimit="10" stroke-linejoin="miter" fill="none" stroke="#00aeef" d="M70.867-70.867H-70.867"/>
<path transform="matrix(1.00003,0,0,-1.00006,77.44495,164.9471)" stroke-width=".3985" stroke-linecap="butt" stroke-miterlimit="10" stroke-linejoin="miter" fill="none" stroke="#000000" d="M2.12592-70.867H-2.12613"/>
<path transform="matrix(1.00003,0,0,-1.00006,77.44495,164.9471)" d="M-19.04071-75.48862H-4.31793V-66.245388H-19.04071Z" fill="#ffffff"/>
<use data-text="&#x2212;" xlink:href="#font_2_1" transform="matrix(9.962899,0,0,-9.963197,59.400407,238.61353)"/>
<use data-text="5" xlink:href="#font_3_3" transform="matrix(9.962899,0,0,-9.963197,67.148639,238.61353)"/>
<path transform="matrix(1.00003,0,0,-1.00006,77.44495,164.9471)" stroke-width=".3985" stroke-linecap="butt" stroke-miterlimit="10" stroke-linejoin="miter" fill="none" stroke="#00aeef" d="M70.867 70.867H-70.867"/>
<path transform="matrix(1.00003,0,0,-1.00006,77.44495,164.9471)" stroke-width=".3985" stroke-linecap="butt" stroke-miterlimit="10" stroke-linejoin="miter" fill="none" stroke="#000000" d="M2.12592 70.867H-2.12613"/>
<path transform="matrix(1.00003,0,0,-1.00006,77.44495,164.9471)" d="M-11.29187 66.66052H-4.31793V75.0735H-11.29187Z" fill="#ffffff"/>
<use data-text="5" xlink:href="#font_3_3" transform="matrix(9.962899,0,0,-9.963197,67.148639,97.28604)"/>
<path transform="matrix(1.00003,0,0,-1.00006,77.44495,164.9471)" stroke-width=".3985" stroke-linecap="butt" stroke-miterlimit="10" stroke-linejoin="miter" fill="none" stroke="#00aeef" d="M70.867 141.73404H-70.867"/>
<path transform="matrix(1.00003,0,0,-1.00006,77.44495,164.9471)" stroke-width=".3985" stroke-linecap="butt" stroke-miterlimit="10" stroke-linejoin="miter" fill="none" stroke="#000000" d="M2.12592 141.73404H-2.12613"/>
<path transform="matrix(1.00003,0,0,-1.00006,77.44495,164.9471)" d="M-16.27328 137.52754H-4.317939V145.94052H-16.27328Z" fill="#ffffff"/>
<use data-text="1" xlink:href="#font_3_2" transform="matrix(9.962899,0,0,-9.963197,62.16749,26.414795)"/>
<use data-text="0" xlink:href="#font_3_1" transform="matrix(9.962899,0,0,-9.963197,67.14893,26.414795)"/>
<path transform="matrix(1.00003,0,0,-1.00006,77.44495,164.9471)" stroke-width="1.19553" stroke-linecap="butt" stroke-miterlimit="10" stroke-linejoin="miter" fill="none" stroke="#ff0000" d="M-30.39694-139.83867C-29.8443-132.29323-29.8443-132.29323-29.57953-128.83229-29.31474-125.37137-28.89014-120.00388-28.62535-116.76253-28.36058-113.5212-27.93596-108.49985-27.67117-105.4709-27.40639-102.44199-26.98177-97.7558-26.717-94.93211-26.45221-92.10844-26.02759-87.74545-25.76282-85.1198-25.49803-82.49413-25.07343-78.44307-24.80864-76.00815-24.54385-73.57326-24.11923-69.82196-23.85445-67.57065-23.58968-65.3193-23.16505-61.857-22.90028-59.78214-22.6355-57.70728-22.21088-54.52214-21.9461-52.6165-21.6813-50.71086-21.2567-47.79121-20.99191-46.04755-20.72714-44.30388-20.30252-41.6382-20.03773-40.04933-19.77296-38.46046-19.34834-36.03737-19.08357-34.59612-18.81879-33.15483-18.39417-30.96255-18.12938-29.66171-17.8646-28.36086-17.43999-26.38805-17.1752-25.22041-16.91043-24.0528-16.48581-22.28784-16.22102-21.24625-15.95625-20.20465-15.53163-18.63611-15.26685-17.71327-15.00206-16.79045-14.57744-15.40637-14.31267-14.59511-14.04788-13.78386-13.62328-12.57304-13.35849-11.86623-13.09372-11.15942-12.6691-10.11047-12.40431-9.5009-12.13953-8.89131-11.7149-7.99236-11.45013-7.47272-11.18535-6.95311-10.76073-6.19261-10.49596-5.75577-10.23117-5.31894-9.80656-4.6855-9.54178-4.32428-9.277-3.96306-8.85237-3.44513-8.58759-3.15231-8.32281-2.85951-7.8982-2.44553-7.63342-2.21393-7.36864-1.98235-6.94402-1.66077-6.67924-1.48315-6.41446-1.30556-5.98985-1.06464-5.72505-.93384-5.46028-.80304-5.03566-.63164-4.77087-.54044-4.5061-.44925-4.08148-.3354-3.81671-.2766-3.55193-.21779-3.1273-.15016-2.86252-.11656-2.59773-.08295-2.17313-.04996-1.90834-.03436-1.64357-.01877-1.21895-.00885-.95416-.00409-.68939 .00064-.26477-.00111 0 0 .26477 .00111 .68939-.00064 .95416 .00409 1.21895 .00885 1.64357 .01877 1.90834 .03436 2.17313 .04996 2.59773 .08295 2.86252 .11656 3.1273 .15016 3.55193 .21779 3.81671 .2766 4.08148 .3354 4.5061 .44925 4.77087 .54044 5.03566 .63164 5.46028 .80304 5.72505 .93384 5.98985 1.06464 6.41446 1.30556 6.67924 1.48315 6.94402 1.66077 7.36864 1.98235 7.63342 2.21393 7.8982 2.44553 8.32281 2.85951 8.58759 3.15231 8.85237 3.44513 9.277 3.96306 9.54178 4.32428 9.80656 4.6855 10.23117 5.31894 10.49596 5.75577 10.76073 6.19261 11.18535 6.95311 11.45013 7.47272 11.7149 7.99236 12.13953 8.89131 12.40431 9.5009 12.6691 10.11047 13.09372 11.15942 13.35849 11.86623 13.62328 12.57304 14.04788 13.78386 14.31267 14.59511 14.57744 15.40637 15.00206 16.79045 15.26685 17.71327 15.53163 18.63611 15.95625 20.20465 16.22102 21.24625 16.48581 22.28784 16.91043 24.0528 17.1752 25.22041 17.43999 26.38805 17.8646 28.36086 18.12938 29.66171 18.39417 30.96255 18.81879 33.15483 19.08357 34.59612 19.34834 36.03737 19.77296 38.46046 20.03773 40.04933 20.30252 41.6382 20.72714 44.30388 20.99191 46.04755 21.2567 47.79121 21.6813 50.71086 21.9461 52.6165 22.21088 54.52214 22.6355 57.70728 22.90028 59.78214 23.16505 61.857 23.58968 65.3193 23.85445 67.57065 24.11923 69.82196 24.54385 73.57326 24.80864 76.00815 25.07343 78.44307 25.49803 82.49413 25.76282 85.1198 26.02759 87.74545 26.45221 92.10844 26.717 94.93211 26.98177 97.7558 27.40639 102.44199 27.67117 105.4709 27.93596 108.49985 28.36058 113.5212 28.62535 116.76253 28.89014 120.00388 29.31474 125.37137 29.57953 128.83229 29.8443 132.29323 30.5337 141.70658 30.39694 139.83867"/>
<path transform="matrix(-.07303219,.9973398,.99731,.07303438,47.047105,304.79414)" d="M1.27522 0C-.31879 .31879-1.91284 .9564-3.8257 2.07224-1.91284 .6376-1.91284-.6376-3.8257-2.07224-1.91284-.9564-.31879-.31879 1.27522 0Z" fill="#ff0000"/>
<path transform="matrix(-.07303219,.9973398,.99731,.07303438,47.047105,304.79414)" stroke-width="1.19553" stroke-linecap="butt" stroke-linejoin="round" fill="none" stroke="#ff0000" d="M1.27522 0C-.31879 .31879-1.91284 .9564-3.8257 2.07224-1.91284 .6376-1.91284-.6376-3.8257-2.07224-1.91284-.9564-.31879-.31879 1.27522 0Z"/>
<path transform="matrix(.07303219,-.9973398,-.99731,-.07303438,107.84279,25.100052)" d="M1.27522 0C-.31879 .31879-1.91284 .9564-3.8257 2.07224-1.91284 .6376-1.91284-.6376-3.8257-2.07224-1.91284-.9564-.31879-.31879 1.27522 0Z" fill="#ff0000"/>
<path transform="matrix(.07303219,-.9973398,-.99731,-.07303438,107.84279,25.100052)" stroke-width="1.19553" stroke-linecap="butt" stroke-linejoin="round" fill="none" stroke="#ff0000" d="M1.27522 0C-.31879 .31879-1.91284 .9564-3.8257 2.07224-1.91284 .6376-1.91284-.6376-3.8257-2.07224-1.91284-.9564-.31879-.31879 1.27522 0Z"/>
<path transform="matrix(1.00003,0,0,-1.00006,77.44495,164.9471)" d="M-12.04747-14.17339C-12.04747-12.99927-12.99927-12.04747-14.17339-12.04747-15.34752-12.04747-16.29932-12.99927-16.29932-14.17339-16.29932-15.34752-15.34752-16.29932-14.17339-16.29932-12.99927-16.29932-12.04747-15.34752-12.04747-14.17339ZM-14.17339-14.17339" fill="#ff0000"/>
<path transform="matrix(1.00003,0,0,-1.00006,77.44495,164.9471)" stroke-width=".3985" stroke-linecap="butt" stroke-miterlimit="10" stroke-linejoin="miter" fill="none" stroke="#ff0000" d="M-12.04747-14.17339C-12.04747-12.99927-12.99927-12.04747-14.17339-12.04747-15.34752-12.04747-16.29932-12.99927-16.29932-14.17339-16.29932-15.34752-15.34752-16.29932-14.17339-16.29932-12.99927-16.29932-12.04747-15.34752-12.04747-14.17339ZM-14.17339-14.17339"/>
<path transform="matrix(1.00003,0,0,-1.00006,77.44495,164.9471)" d="M16.29932 14.17339C16.29932 15.34752 15.34752 16.29932 14.17339 16.29932 12.99927 16.29932 12.04747 15.34752 12.04747 14.17339 12.04747 12.99927 12.99927 12.04747 14.17339 12.04747 15.34752 12.04747 16.29932 12.99927 16.29932 14.17339ZM14.17339 14.17339" fill="#ff0000"/>
<path transform="matrix(1.00003,0,0,-1.00006,77.44495,164.9471)" stroke-width=".3985" stroke-linecap="butt" stroke-miterlimit="10" stroke-linejoin="miter" fill="none" stroke="#ff0000" d="M16.29932 14.17339C16.29932 15.34752 15.34752 16.29932 14.17339 16.29932 12.99927 16.29932 12.04747 15.34752 12.04747 14.17339 12.04747 12.99927 12.99927 12.04747 14.17339 12.04747 15.34752 12.04747 16.29932 12.99927 16.29932 14.17339ZM14.17339 14.17339"/>
<path transform="matrix(1.00003,0,0,-1.00006,77.44495,164.9471)" d="M2.12592 0C2.12592 1.17412 1.17412 2.12592 0 2.12592-1.17412 2.12592-2.12592 1.17412-2.12592 0-2.12592-1.17412-1.17412-2.12592 0-2.12592 1.17412-2.12592 2.12592-1.17412 2.12592 0ZM0 0" fill="#ff0000"/>
<path transform="matrix(1.00003,0,0,-1.00006,77.44495,164.9471)" stroke-width=".3985" stroke-linecap="butt" stroke-miterlimit="10" stroke-linejoin="miter" fill="none" stroke="#ff0000" d="M2.12592 0C2.12592 1.17412 1.17412 2.12592 0 2.12592-1.17412 2.12592-2.12592 1.17412-2.12592 0-2.12592-1.17412-1.17412-2.12592 0-2.12592 1.17412-2.12592 2.12592-1.17412 2.12592 0ZM0 0"/>
</svg>
