<svg xmlns="http://www.w3.org/2000/svg" xmlns:xlink="http://www.w3.org/1999/xlink" version="1.1" width="127" height="163" viewBox="0 0 127 163">
<defs>
<path id="font_1_1" d="M.33399964 .30233766C.33999635 .32835389 .36299134 .42037965 .43299867 .42037965 .43798829 .42037965 .46199037 .42037965 .48298646 .40734864 .45498658 .402359 .43499757 .37734986 .43499757 .35334779 .43499757 .33735658 .44599916 .31835938 .47299195 .31835938 .49499513 .31835938 .5269928 .3363495 .5269928 .37635804 .5269928 .42837525 .46798707 .4423828 .43399049 .4423828 .37599183 .4423828 .34098817 .38935853 .32899476 .36634828 .3039856 .43237306 .25 .4423828 .22099304 .4423828 .116989139 .4423828 .05999756 .3133545 .05999756 .28834535 .05999756 .27833558 .069992069 .27833558 .07199097 .27833558 .07998657 .27833558 .08299255 .28033448 .084991458 .28933717 .11898804 .39535523 .18499756 .42037965 .21899414 .42037965 .23799134 .42037965 .272995 .4113617 .272995 .35334779 .272995 .32235719 .2559967 .25532533 .21899414 .11528015 .20298767 .053268434 .16799927 .011245728 .12399292 .011245728 .117996219 .011245728 .09498596 .011245728 .07398987 .024276734 .09899902 .029266358 .12098694 .05027771 .12098694 .07827759 .12098694 .105270389 .09899902 .11328125 .083999637 .11328125 .053985597 .11328125 .0289917 .08728027 .0289917 .055267335 .0289917 .009246826 .07899475-.0107421879 .12298584-.0107421879 .18899536-.0107421879 .22499085 .059280397 .22799683 .0652771 .23999024 .028274537 .27598573-.0107421879 .33599855-.0107421879 .43899537-.0107421879 .49598695 .118270877 .49598695 .14328003 .49598695 .1532898 .4869995 .1532898 .48399354 .1532898 .47499085 .1532898 .47299195 .14929199 .47099305 .14228821 .43798829 .03527832 .36999513 .011245728 .33799745 .011245728 .29899598 .011245728 .2829895 .043273927 .2829895 .07727051 .2829895 .09927368 .2889862 .121276859 .2999878 .16529846L.33399964 .30233766Z"/>
<path id="font_1_2" d="M.48599244 .38136292C.48999024 .39537049 .48999024 .39736939 .48999024 .40437318 .48999024 .42237855 .47599793 .43138124 .46099855 .43138124 .45098878 .43138124 .43499757 .42536927 .42599488 .41036988 .42399598 .405365 .41600038 .37435914 .4119873 .35635377 .40499879 .33035279 .397995 .30334474 .3919983 .27633668L.34700013 .09628296C.34298707 .08126831 .2999878 .011245728 .23399353 .011245728 .18299866 .011245728 .17199707 .055267335 .17199707 .0922699 .17199707 .1382904 .18899536 .20030213 .22299195 .28833009 .23899842 .3293457 .24299622 .3403473 .24299622 .36035157 .24299622 .405365 .21099854 .4423828 .16099549 .4423828 .06599426 .4423828 .0289917 .29733277 .0289917 .28833009 .0289917 .27833558 .038986207 .27833558 .040985109 .27833558 .050994874 .27833558 .051986696 .28033448 .056991579 .29634095 .083999637 .3903656 .12399292 .42037965 .1579895 .42037965 .1659851 .42037965 .18299866 .42037965 .18299866 .3883667 .18299866 .36335755 .17298889 .3373413 .1659851 .31834413 .12599182 .21231079 .10798645 .1552887 .10798645 .10827637 .10798645 .019256592 .17098999-.0107421879 .22999573-.0107421879 .2689972-.0107421879 .30299378 .0062561037 .33099366 .03425598 .31799317-.017745972 .30599977-.06674194 .2659912-.11973572 .23999024-.15385437 .20199585-.18309021 .1559906-.18309021 .14199829-.18309021 .09700012-.18005371 .07998657-.14074707 .09599304-.14074707 .10899353-.14074707 .12298584-.1287384 .1329956-.11973572 .14299011-.10673523 .14299011-.08773804 .14299011-.056747438 .115997318-.052734376 .10598755-.052734376 .08299255-.052734376 .049987794-.068740848 .049987794-.11773682 .049987794-.16796875 .09399414-.20507813 .1559906-.20507813 .25898744-.20507813 .3619995-.11373901 .3899994-.00074768069L.48599244 .38136292Z"/>
<path id="font_2_1" d="M.6589966 .23046875C.6759949 .23046875 .69400027 .23046875 .69400027 .25045777 .69400027 .27046205 .6759949 .27046205 .6589966 .27046205H.117996219C.100997928 .27046205 .08299255 .27046205 .08299255 .25045777 .08299255 .23046875 .100997928 .23046875 .117996219 .23046875H.6589966Z"/>
<path id="font_3_1" d="M.1269989 .07699585 .23298645 .18003845C.3889923 .31811524 .44898988 .3721466 .44898988 .47216798 .44898988 .5860901 .35899354 .6660156 .23699951 .6660156 .12399292 .6660156 .049987794 .57411196 .049987794 .48516847 .049987794 .4291687 .099990848 .4291687 .102996829 .4291687 .11999512 .4291687 .15499878 .44117738 .15499878 .48217774 .15499878 .5081787 .13699341 .5341797 .101989749 .5341797 .09399414 .5341797 .09199524 .5341797 .08898926 .5331726 .11199951 .59806826 .1659851 .63500979 .22399903 .63500979 .31498719 .63500979 .35798646 .5541382 .35798646 .47216798 .35798646 .39215089 .30799867 .31311036 .25299073 .25108338L.06098938 .036987306C.049987794 .025985718 .049987794 .023986817 .049987794 0H.42099L.44898988 .17404175H.42399598C.4189911 .14402771 .4119873 .1000061 .4019928 .084991458 .394989 .07699585 .32899476 .07699585 .30699159 .07699585H.1269989Z"/>
<path id="font_3_2" d="M.2939911 .16503906V.07800293C.2939911 .041992189 .2919922 .0309906 .21798706 .0309906H.19699097V0C.23799134 .0029907227 .2899933 .0029907227 .33198548 .0029907227 .37399293 .0029907227 .4269867 .0029907227 .46798707 0V.0309906H.44699098C.37298585 .0309906 .37098695 .041992189 .37098695 .07800293V.16503906H.47099305V.19602967H.37098695V.65075686C.37098695 .67074587 .37098695 .6767578 .35499574 .6767578 .34599305 .6767578 .34298707 .6767578 .33499146 .66474917L.027999878 .19602967V.16503906H.2939911M.2999878 .19602967H.055999757L.2999878 .5688019V.19602967Z"/>
<path id="font_3_3" d="M.13198853 .327713V.35173036C.13198853 .6047821 .2559967 .64100649 .30699159 .64100649 .33099366 .64100649 .37298585 .634964 .394989 .6007538 .37998963 .6007538 .33999635 .6007538 .33999635 .5557556 .33999635 .524765 .3639984 .5097656 .38598634 .5097656 .4019928 .5097656 .43199159 .51875308 .43199159 .5577545 .43199159 .6178589 .3880005 .6660156 .30499269 .6660156 .1769867 .6660156 .041992189 .5367584 .041992189 .31570436 .041992189 .048553468 .1579895-.022460938 .25099183-.022460938 .3619995-.022460938 .45700074 .07156372 .45700074 .2036438 .45700074 .33070375 .36799623 .4267578 .25698854 .4267578 .18899536 .4267578 .1519928 .37573243 .13198853 .327713M.25099183 .0055389406C.18798828 .0055389406 .1579895 .06556702 .1519928 .080566409 .13398743 .127594 .13398743 .2076416 .13398743 .22564698 .13398743 .30369569 .1659851 .40374757 .2559967 .40374757 .27198792 .40374757 .31799317 .40374757 .34899903 .34172059 .36698915 .30470277 .36698915 .2536621 .36698915 .20463562 .36698915 .15661621 .36698915 .10658264 .34999085 .0705719 .31999208 .010528564 .27398683 .0055389406 .25099183 .0055389406Z"/>
<path id="font_4_65" d="M.40299989 0V.04699707H.2889862V.63853457H.40299989V.6855469C.3619995 .6825409 .2639923 .6825409 .21798706 .6825409 .17199707 .6825409 .07398987 .6825409 .032989503 .6855469V.63853457H.14698792V.04699707H.032989503V0C.07398987 .0029907227 .17199707 .0029907227 .21798706 .0029907227 .2639923 .0029907227 .3619995 .0029907227 .40299989 0Z"/>
</defs>
<path transform="matrix(1,0,0,-1.00005,74.608,94.78308)" stroke-width=".3985" stroke-linecap="butt" stroke-miterlimit="10" stroke-linejoin="miter" fill="none" stroke="#00aeef" d="M-68.03302-51.0239H34.0165M-68.03302-38.26791H34.0165M-68.03302-25.51193H34.0165M-68.03302-12.75595H34.0165M-68.03302 0H34.0165M-68.03302 12.75595H34.0165M-68.03302 25.51193H34.0165M-68.03302 38.26791H34.0165M-68.03302 51.0239H34.0165M-68.03302 63.77988H34.0165M-68.03302 76.53137H34.0165M-68.03302-51.0239V76.53586M-51.02477-51.0239V76.53586M-34.0165-51.0239V76.53586M-17.00824-51.0239V76.53586M0-51.0239V76.53586M17.00824-51.0239V76.53586M34.01053-51.0239V76.53586M34.0165 76.53586"/>
<path transform="matrix(1,0,0,-1.00005,74.608,94.78308)" stroke-width=".79701" stroke-linecap="butt" stroke-miterlimit="10" stroke-linejoin="miter" fill="none" stroke="#000000" d="M-68.03302 0H41.08601"/>
<path transform="matrix(1,0,0,-1.00005,115.694019,94.78308)" d="M1.0361 0C-.25902 .25902-1.55415 .77707-3.1083 1.68365-1.55415 .51805-1.55415-.51805-3.1083-1.68365-1.55415-.77707-.25902-.25902 1.0361 0Z"/>
<path transform="matrix(1,0,0,-1.00005,115.694019,94.78308)" stroke-width=".79701" stroke-linecap="butt" stroke-linejoin="round" fill="none" stroke="#000000" d="M1.0361 0C-.25902 .25902-1.55415 .77707-3.1083 1.68365-1.55415 .51805-1.55415-.51805-3.1083-1.68365-1.55415-.77707-.25902-.25902 1.0361 0Z"/>
<use data-text="x" xlink:href="#font_1_1" transform="matrix(9.9626,0,0,-9.963098,120.84801,96.92819)"/>
<path transform="matrix(1,0,0,-1.00005,74.608,94.78308)" stroke-width=".79701" stroke-linecap="butt" stroke-miterlimit="10" stroke-linejoin="miter" fill="none" stroke="#000000" d="M0-51.0239V81.47922"/>
<path transform="matrix(0,-1.00005,-1,-0,74.608,13.299797)" d="M1.0361 0C-.25902 .25902-1.55415 .77707-3.1083 1.68365-1.55415 .51805-1.55415-.51805-3.1083-1.68365-1.55415-.77707-.25902-.25902 1.0361 0Z"/>
<path transform="matrix(0,-1.00005,-1,-0,74.608,13.299797)" stroke-width=".79701" stroke-linecap="butt" stroke-linejoin="round" fill="none" stroke="#000000" d="M1.0361 0C-.25902 .25902-1.55415 .77707-3.1083 1.68365-1.55415 .51805-1.55415-.51805-3.1083-1.68365-1.55415-.77707-.25902-.25902 1.0361 0Z"/>
<use data-text="y" xlink:href="#font_1_2" transform="matrix(9.9626,0,0,-9.963098,71.987,6.2086565)"/>
<path transform="matrix(1,0,0,-1.00005,74.608,94.78308)" stroke-width=".79701" stroke-linecap="butt" stroke-miterlimit="10" stroke-linejoin="miter" fill="none" stroke="#000000" d="M-34.0165 1.27565V-1.27547"/>
<path transform="matrix(1,0,0,-1.00005,74.608,94.78308)" d="M-41.3779-12.90976H-26.655119V-3.6665307H-41.3779Z" fill="#ffffff"/>
<use data-text="&#x2212;" xlink:href="#font_2_1" transform="matrix(9.9626,0,0,-9.963098,34.225999,105.86664)"/>
<use data-text="2" xlink:href="#font_3_1" transform="matrix(9.9626,0,0,-9.963098,41.974,105.86664)"/>
<path transform="matrix(1,0,0,-1.00005,74.608,94.78308)" stroke-width=".79701" stroke-linecap="butt" stroke-miterlimit="10" stroke-linejoin="miter" fill="none" stroke="#000000" d="M34.0165 1.27565V-1.27547"/>
<path transform="matrix(1,0,0,-1.00005,74.608,94.78308)" d="M30.52953-12.07951H37.50347V-3.6665297H30.52953Z" fill="#ffffff"/>
<use data-text="2" xlink:href="#font_3_1" transform="matrix(9.9626,0,0,-9.963098,106.134,105.86664)"/>
<path transform="matrix(1,0,0,-1.00005,74.608,94.78308)" stroke-width=".79701" stroke-linecap="butt" stroke-miterlimit="10" stroke-linejoin="miter" fill="none" stroke="#000000" d="M-68.03302 1.27565V-1.27547"/>
<path transform="matrix(1,0,0,-1.00005,74.608,94.78308)" d="M-75.39442-12.90976H-60.67164V-3.6665307H-75.39442Z" fill="#ffffff"/>
<use data-text="&#x2212;" xlink:href="#font_2_1" transform="matrix(9.9626,0,0,-9.963098,.20999146,105.86664)"/>
<use data-text="4" xlink:href="#font_3_2" transform="matrix(9.9626,0,0,-9.963098,7.9579927,105.86664)"/>
<path transform="matrix(1,0,0,-1.00005,74.608,94.78308)" stroke-width=".79701" stroke-linecap="butt" stroke-miterlimit="10" stroke-linejoin="miter" fill="none" stroke="#000000" d="M1.70091-51.0239H-1.70065"/>
<path transform="matrix(1,0,0,-1.00005,74.608,94.78308)" d="M-18.8145-55.64551H-4.0917208V-46.402284H-18.8145Z" fill="#ffffff"/>
<use data-text="&#x2212;" xlink:href="#font_2_1" transform="matrix(9.9626,0,0,-9.963098,56.79,148.60477)"/>
<use data-text="4" xlink:href="#font_3_2" transform="matrix(9.9626,0,0,-9.963098,64.538,148.60477)"/>
<path transform="matrix(1,0,0,-1.00005,74.608,94.78308)" stroke-width=".79701" stroke-linecap="butt" stroke-miterlimit="10" stroke-linejoin="miter" fill="none" stroke="#000000" d="M1.70091-25.51193H-1.70065"/>
<path transform="matrix(1,0,0,-1.00005,74.608,94.78308)" d="M-18.8145-30.13354H-4.0917208V-20.890309H-18.8145Z" fill="#ffffff"/>
<use data-text="&#x2212;" xlink:href="#font_2_1" transform="matrix(9.9626,0,0,-9.963098,56.79,123.09149)"/>
<use data-text="2" xlink:href="#font_3_1" transform="matrix(9.9626,0,0,-9.963098,64.538,123.09149)"/>
<path transform="matrix(1,0,0,-1.00005,74.608,94.78308)" stroke-width=".79701" stroke-linecap="butt" stroke-miterlimit="10" stroke-linejoin="miter" fill="none" stroke="#000000" d="M1.70091 25.51193H-1.70065"/>
<path transform="matrix(1,0,0,-1.00005,74.608,94.78308)" d="M-11.06564 21.30545H-4.0917007V29.71843H-11.06564Z" fill="#ffffff"/>
<use data-text="2" xlink:href="#font_3_1" transform="matrix(9.9626,0,0,-9.963098,64.539,72.479969)"/>
<path transform="matrix(1,0,0,-1.00005,74.608,94.78308)" stroke-width=".79701" stroke-linecap="butt" stroke-miterlimit="10" stroke-linejoin="miter" fill="none" stroke="#000000" d="M1.70091 51.0239H-1.70065"/>
<path transform="matrix(1,0,0,-1.00005,74.608,94.78308)" d="M-11.06564 46.8174H-4.0917007V55.23038H-11.06564Z" fill="#ffffff"/>
<use data-text="4" xlink:href="#font_3_2" transform="matrix(9.9626,0,0,-9.963098,64.539,46.966695)"/>
<path transform="matrix(1,0,0,-1.00005,74.608,94.78308)" stroke-width=".79701" stroke-linecap="butt" stroke-miterlimit="10" stroke-linejoin="miter" fill="none" stroke="#000000" d="M1.70091 76.53586H-1.70065"/>
<path transform="matrix(1,0,0,-1.00005,74.608,94.78308)" d="M-11.06564 72.32936H-4.0917007V80.74234H-11.06564Z" fill="#ffffff"/>
<use data-text="6" xlink:href="#font_3_3" transform="matrix(9.9626,0,0,-9.963098,64.539,21.453423)"/>
<path transform="matrix(1,0,0,-1.00005,74.608,94.78308)" stroke-width="1.19553" stroke-linecap="butt" stroke-miterlimit="10" stroke-linejoin="miter" fill="none" stroke="#ff0000" d="M-61.54613 74.72076C-60.99196 72.5428-60.99196 72.5428-60.60176 71.0427-60.21158 69.5426-59.58585 67.17584-59.19566 65.72414-58.80547 64.27242-58.17975 61.98312-57.78955 60.57979-57.39937 59.17644-56.77364 56.96477-56.38345 55.60983-55.99326 54.25488-55.36752 52.1208-54.97733 50.81425-54.58713 49.5077-53.96141 47.45128-53.57121 46.1931-53.18103 44.93492-52.5553 42.95593-52.16512 41.74614-51.77492 40.53636-51.14919 38.63516-50.759 37.47379-50.36882 36.3124-49.74309 34.48865-49.35289 33.37561-48.9627 32.26259-48.33698 30.5165-47.9468 29.45184-47.5566 28.38722-46.93088 26.71877-46.54068 25.7025-46.1505 24.68623-45.52477 23.0952-45.13458 22.12732-44.74437 21.15945-44.11864 19.64624-43.72845 18.72676-43.33826 17.80728-42.71254 16.37148-42.32234 15.50038-41.93216 14.62932-41.30643 13.2713-40.91624 12.44862-40.52605 11.62595-39.90031 10.34537-39.51013 9.57104-39.11995 8.79674-38.49422 7.59383-38.10402 6.86787-37.71384 6.14194-37.0881 5.01646-36.69792 4.33891-36.30772 3.66136-35.682 2.6137-35.29181 1.98453-34.90161 1.3554-34.27588 .38513-33.88568-.1956-33.4955-.77635-32.86977-1.66881-32.47958-2.20117-32.08939-2.73355-31.46367-3.54854-31.07347-4.03255-30.68329-4.51654-30.05756-5.2539-29.66737-5.68953-29.27718-6.12515-28.65144-6.78506-28.26126-7.1723-27.87108-7.55954-27.24533-8.14165-26.85515-8.48048-26.46497-8.81934-25.83923-9.324-25.44905-9.61446-25.05887-9.9049-24.43314-10.33179-24.04294-10.57385-23.65276-10.8159-23.02702-11.16534-22.63683-11.35902-22.24664-11.5527-21.62091-11.8245-21.23073-11.9698-20.84053-12.11511-20.21481-12.30946-19.82462-12.40639-19.43443-12.5033-18.80869-12.61987-18.4185-12.66838-18.0283-12.71687-17.40257-12.75583-17.01239-12.75595-16.62221-12.75609-15.99648-12.71758-15.60628-12.66934-15.2161-12.62111-14.59036-12.50496-14.20018-12.40834-13.80998-12.3117-13.18427-12.11794-12.79407-11.97292-12.40388-11.82791-11.77815-11.55649-11.38795-11.36311-10.99777-11.16972-10.37204-10.82088-9.98186-10.5791-9.59166-10.33731-8.96593-9.91066-8.57573-9.62048-8.18555-9.3303-7.55981-8.82623-7.16963-8.48769-6.77943-8.14914-6.1537-7.56741-5.76352-7.18048-5.37334-6.79355-4.7476-6.1342-4.3574-5.69887-3.96722-5.26352-3.34149-4.52657-2.95131-4.04286-2.56111-3.55916-1.93538-2.74475-1.5452-2.21266-1.15501-1.68056-.52927-.78833-.13908-.20787 .25107 .37259 .8768 1.34225 1.26698 1.97112 1.65717 2.59996 2.2829 3.64725 2.6731 4.32451 3.06328 5.00179 3.68901 6.12666 4.0792 6.85231 4.46939 7.57796 5.09512 8.78047 5.4853 9.5545 5.8755 10.32855 6.50122 11.60869 6.89143 12.4311 7.28162 13.25352 7.90735 14.61113 8.29753 15.4819 8.68773 16.35269 9.31346 17.7879 9.70364 18.7071 10.09383 19.62631 10.71956 21.1393 11.10976 22.10689 11.49994 23.07448 12.12569 24.66495 12.51585 25.68088 12.90605 26.69682 13.53177 28.36476 13.92197 29.42908 14.31213 30.49341 14.93788 32.23912 15.32806 33.35187 15.71826 34.46463 16.344 36.28793 16.73418 37.44907 17.12437 38.61018 17.75009 40.51097 18.14029 41.72046 18.53047 42.92993 19.1562 44.90836 19.54639 46.16624 19.93658 47.42413 20.56232 49.48015 20.9525 50.78642 21.34268 52.0927 21.96841 54.22638 22.35861 55.58102 22.74881 56.93565 23.37454 59.14676 23.76472 60.5498 24.15492 61.95285 24.78064 64.24176 25.17084 65.69318 25.56102 67.14462 26.18675 69.51096 26.57693 71.01077 26.96713 72.51059 27.98305 76.50276 27.52124 74.68768"/>
<path transform="matrix(-.24654,-.9691384,-.96909,.2465523,13.061893,20.058594)" d="M1.27522 0C-.31879 .31879-1.91284 .9564-3.8257 2.07224-1.91284 .6376-1.91284-.6376-3.8257-2.07224-1.91284-.9564-.31879-.31879 1.27522 0Z" fill="#ff0000"/>
<path transform="matrix(-.24654,-.9691384,-.96909,.2465523,13.061893,20.058594)" stroke-width="1.19553" stroke-linecap="butt" stroke-linejoin="round" fill="none" stroke="#ff0000" d="M1.27522 0C-.31879 .31879-1.91284 .9564-3.8257 2.07224-1.91284 .6376-1.91284-.6376-3.8257-2.07224-1.91284-.9564-.31879-.31879 1.27522 0Z"/>
<path transform="matrix(.24657,-.9691384,-.96909,-.24658233,102.12922,20.091668)" d="M1.27522 0C-.31879 .31879-1.91284 .9564-3.8257 2.07224-1.91284 .6376-1.91284-.6376-3.8257-2.07224-1.91284-.9564-.31879-.31879 1.27522 0Z" fill="#ff0000"/>
<path transform="matrix(.24657,-.9691384,-.96909,-.24658233,102.12922,20.091668)" stroke-width="1.19553" stroke-linecap="butt" stroke-linejoin="round" fill="none" stroke="#ff0000" d="M1.27522 0C-.31879 .31879-1.91284 .9564-3.8257 2.07224-1.91284 .6376-1.91284-.6376-3.8257-2.07224-1.91284-.9564-.31879-.31879 1.27522 0Z"/>
<use data-text="I" xlink:href="#font_4_65" transform="matrix(9.9626,0,0,-9.963098,53.097,161.98343)"/>
<use data-text="I" xlink:href="#font_4_65" transform="matrix(9.9626,0,0,-9.963098,57.749528,161.98343)"/>
</svg>
