<svg xmlns="http://www.w3.org/2000/svg" xmlns:xlink="http://www.w3.org/1999/xlink" version="1.1" width="103" height="158" viewBox="0 0 103 158">
<defs>
<path id="font_1_3" d="M.33399964 .30233766C.33999635 .32835389 .36299134 .42037965 .43299867 .42037965 .43798829 .42037965 .46199037 .42037965 .48298646 .40734864 .45498658 .402359 .43499757 .37734986 .43499757 .35334779 .43499757 .33735658 .44599916 .31835938 .47299195 .31835938 .49499513 .31835938 .5269928 .3363495 .5269928 .37635804 .5269928 .42837525 .46798707 .4423828 .43399049 .4423828 .37599183 .4423828 .34098817 .38935853 .32899476 .36634828 .3039856 .43237306 .25 .4423828 .22099304 .4423828 .116989139 .4423828 .05999756 .3133545 .05999756 .28834535 .05999756 .27833558 .069992069 .27833558 .07199097 .27833558 .07998657 .27833558 .08299255 .28033448 .084991458 .28933717 .11898804 .39535523 .18499756 .42037965 .21899414 .42037965 .23799134 .42037965 .272995 .4113617 .272995 .35334779 .272995 .32235719 .2559967 .25532533 .21899414 .11528015 .20298767 .053268434 .16799927 .011245728 .12399292 .011245728 .117996219 .011245728 .09498596 .011245728 .07398987 .024276734 .09899902 .029266358 .12098694 .05027771 .12098694 .07827759 .12098694 .105270389 .09899902 .11328125 .083999637 .11328125 .053985597 .11328125 .0289917 .08728027 .0289917 .055267335 .0289917 .009246826 .07899475-.0107421879 .12298584-.0107421879 .18899536-.0107421879 .22499085 .059280397 .22799683 .0652771 .23999024 .028274537 .27598573-.0107421879 .33599855-.0107421879 .43899537-.0107421879 .49598695 .118270877 .49598695 .14328003 .49598695 .1532898 .4869995 .1532898 .48399354 .1532898 .47499085 .1532898 .47299195 .14929199 .47099305 .14228821 .43798829 .03527832 .36999513 .011245728 .33799745 .011245728 .29899598 .011245728 .2829895 .043273927 .2829895 .07727051 .2829895 .09927368 .2889862 .121276859 .2999878 .16529846L.33399964 .30233766Z"/>
<path id="font_1_4" d="M.48599244 .38136292C.48999024 .39537049 .48999024 .39736939 .48999024 .40437318 .48999024 .42237855 .47599793 .43138124 .46099855 .43138124 .45098878 .43138124 .43499757 .42536927 .42599488 .41036988 .42399598 .405365 .41600038 .37435914 .4119873 .35635377 .40499879 .33035279 .397995 .30334474 .3919983 .27633668L.34700013 .09628296C.34298707 .08126831 .2999878 .011245728 .23399353 .011245728 .18299866 .011245728 .17199707 .055267335 .17199707 .0922699 .17199707 .1382904 .18899536 .20030213 .22299195 .28833009 .23899842 .3293457 .24299622 .3403473 .24299622 .36035157 .24299622 .405365 .21099854 .4423828 .16099549 .4423828 .06599426 .4423828 .0289917 .29733277 .0289917 .28833009 .0289917 .27833558 .038986207 .27833558 .040985109 .27833558 .050994874 .27833558 .051986696 .28033448 .056991579 .29634095 .083999637 .3903656 .12399292 .42037965 .1579895 .42037965 .1659851 .42037965 .18299866 .42037965 .18299866 .3883667 .18299866 .36335755 .17298889 .3373413 .1659851 .31834413 .12599182 .21231079 .10798645 .1552887 .10798645 .10827637 .10798645 .019256592 .17098999-.0107421879 .22999573-.0107421879 .2689972-.0107421879 .30299378 .0062561037 .33099366 .03425598 .31799317-.017745972 .30599977-.06674194 .2659912-.11973572 .23999024-.15385437 .20199585-.18309021 .1559906-.18309021 .14199829-.18309021 .09700012-.18005371 .07998657-.14074707 .09599304-.14074707 .10899353-.14074707 .12298584-.1287384 .1329956-.11973572 .14299011-.10673523 .14299011-.08773804 .14299011-.056747438 .115997318-.052734376 .10598755-.052734376 .08299255-.052734376 .049987794-.068740848 .049987794-.11773682 .049987794-.16796875 .09399414-.20507813 .1559906-.20507813 .25898744-.20507813 .3619995-.11373901 .3899994-.00074768069L.48599244 .38136292Z"/>
<path id="font_2_1" d="M.6589966 .23046875C.6759949 .23046875 .69400027 .23046875 .69400027 .25045777 .69400027 .27046205 .6759949 .27046205 .6589966 .27046205H.117996219C.100997928 .27046205 .08299255 .27046205 .08299255 .25045777 .08299255 .23046875 .100997928 .23046875 .117996219 .23046875H.6589966Z"/>
<path id="font_3_5" d="M.1269989 .07699585 .23298645 .18003845C.3889923 .31811524 .44898988 .3721466 .44898988 .47216798 .44898988 .5860901 .35899354 .6660156 .23699951 .6660156 .12399292 .6660156 .049987794 .57411196 .049987794 .48516847 .049987794 .4291687 .099990848 .4291687 .102996829 .4291687 .11999512 .4291687 .15499878 .44117738 .15499878 .48217774 .15499878 .5081787 .13699341 .5341797 .101989749 .5341797 .09399414 .5341797 .09199524 .5341797 .08898926 .5331726 .11199951 .59806826 .1659851 .63500979 .22399903 .63500979 .31498719 .63500979 .35798646 .5541382 .35798646 .47216798 .35798646 .39215089 .30799867 .31311036 .25299073 .25108338L.06098938 .036987306C.049987794 .025985718 .049987794 .023986817 .049987794 0H.42099L.44898988 .17404175H.42399598C.4189911 .14402771 .4119873 .1000061 .4019928 .084991458 .394989 .07699585 .32899476 .07699585 .30699159 .07699585H.1269989Z"/>
<path id="font_3_8" d="M.44898988 .20022583C.44898988 .3193512 .36698915 .41944886 .25898744 .41944886 .21099854 .41944886 .16799927 .40345765 .13198853 .36842347V.5637665C.1519928 .5577698 .18499756 .55078127 .21699524 .55078127 .33999635 .55078127 .4099884 .6417694 .4099884 .6547699 .4099884 .6607666 .40699769 .6657715 .3999939 .6657715 .39898683 .6657715 .39698792 .6657715 .3919983 .66278079 .37199403 .6537781 .32299806 .6337738 .2559967 .6337738 .21598816 .6337738 .16999817 .6407776 .12298584 .6617737 .114990238 .66477969 .11299133 .66477969 .11099243 .66477969 .100997928 .66477969 .100997928 .6567688 .100997928 .6407776V.34439088C.100997928 .32637025 .100997928 .31835938 .114990238 .31835938 .12199402 .31835938 .12399292 .32136537 .12799073 .32736207 .13899231 .3433838 .17599488 .39746095 .25698854 .39746095 .30899049 .39746095 .33399964 .35139466 .34199525 .33337403 .35798646 .29632569 .3600006 .25727845 .3600006 .20722962 .3600006 .17222595 .3600006 .11222839 .33599855 .07035828 .31199647 .031463624 .2749939 .0055389406 .22898865 .0055389406 .1559906 .0055389406 .09899902 .058380128 .08198547 .11723328 .084991458 .1162262 .08799744 .115234378 .09899902 .115234378 .13198853 .115234378 .14898682 .14022827 .14898682 .16423035 .14898682 .18823242 .13198853 .21322632 .09899902 .21322632 .084991458 .21322632 .049987794 .20622254 .049987794 .16023255 .049987794 .07434082 .11898804-.022460938 .23098755-.022460938 .34700013-.022460938 .44898988 .073349 .44898988 .20022583Z"/>
<path id="font_3_4" d="M.2939911 .64004519C.2939911 .66400149 .2939911 .6660156 .2709961 .6660156 .20899964 .60227969 .12098694 .60227969 .08898926 .60227969V.57128909C.10899353 .57128909 .16799927 .57128909 .21998596 .5972748V.07902527C.21998596 .042999269 .21699524 .0309906 .1269989 .0309906H.09498596V0C.12998963 .0029907227 .21699524 .0029907227 .25698854 .0029907227 .29699708 .0029907227 .38398744 .0029907227 .4189911 0V.0309906H.3869934C.29699708 .0309906 .2939911 .041992189 .2939911 .07902527V.64004519Z"/>
<path id="font_3_3" d="M.45999146 .31976319C.45999146 .39982606 .45498658 .47988893 .41999818 .5539398 .37399293 .65000918 .2919922 .6660156 .25 .6660156 .18998719 .6660156 .116989139 .64001467 .07598877 .54693606 .04399109 .47789 .038986207 .39982606 .038986207 .31976319 .038986207 .24472046 .042999269 .15464783 .083999637 .07859802 .1269989-.0024719239 .19999695-.022460938 .24899292-.022460938 .30299378-.022460938 .3789978-.0014648438 .4229889 .09359741 .45498658 .16265869 .45999146 .2407074 .45999146 .31976319M.24899292-.00047302247C.20999146-.00047302247 .15098572 .024551392 .1329956 .12062073 .12199402 .18066406 .12199402 .2727356 .12199402 .3317871 .12199402 .39582826 .12199402 .46188355 .12998963 .5159149 .14898682 .63500979 .22399903 .64401248 .24899292 .64401248 .28199769 .64401248 .34799195 .6259918 .36698915 .52693179 .3769989 .47088624 .3769989 .39482118 .3769989 .3317871 .3769989 .25672914 .3769989 .18867493 .3659973 .12461853 .35099793 .029556275 .2939911-.00047302247 .24899292-.00047302247Z"/>
<path id="font_1_1" d="M.36698915 .3996582H.45298768C.47299195 .3996582 .48298646 .3996582 .48298646 .41966249 .48298646 .43066407 .47299195 .43066407 .45599366 .43066407H.37298585L.3939972 .5449524C.397995 .5660095 .4119873 .6370239 .41799928 .6490326 .4269867 .66804507 .44400025 .68307498 .46499635 .68307498 .46899415 .68307498 .49499513 .68307498 .5139923 .66503909 .46998597 .661026 .45999146 .6260376 .45999146 .6110382 .45999146 .58802798 .47799684 .57603457 .49699403 .57603457 .522995 .57603457 .5519867 .5980377 .5519867 .6360321 .5519867 .6820679 .5059967 .7050781 .46499635 .7050781 .43099977 .7050781 .36799623 .68707278 .33799745 .58802798 .33198548 .56700137 .32899476 .5569763 .30499269 .43066407H.23599243C.21699524 .43066407 .20599365 .43066407 .20599365 .4116516 .20599365 .3996582 .21499634 .3996582 .23399353 .3996582H.2999878L.22499085 .0048828127C.20698548-.09207153 .18998719-.18309021 .13798523-.18309021 .13398743-.18309021 .10899353-.18309021 .08999634-.16506958 .13598633-.1620636 .14498902-.12606812 .14498902-.111068729 .14498902-.08807373 .1269989-.07606506 .10798645-.07606506 .08198547-.07606506 .052993776-.09806824 .052993776-.13606262 .052993776-.18109131 .09700012-.20507813 .13798523-.20507813 .19299317-.20507813 .23298645-.14607239 .25099183-.108062747 .2829895-.04508972 .30599977 .07583618 .30699159 .082839969L.36698915 .3996582Z"/>
<path id="font_3_1" d="M.33099366-.2400055C.33099366-.23701477 .33099366-.23500061 .31399537-.21800232 .18899536-.0920105 .15699768 .09700012 .15699768 .25 .15699768 .42399598 .19499207 .59799197 .31799317 .72299197 .33099366 .73498538 .33099366 .7369995 .33099366 .73999026 .33099366 .746994 .32699586 .75 .32099916 .75 .31098939 .75 .22099304 .6819916 .1619873 .5549927 .11099243 .44499208 .09899902 .33399964 .09899902 .25 .09899902 .17199707 .10998535 .050994874 .16499329-.06201172 .22499085-.18501282 .31098939-.25 .32099916-.25 .32699586-.25 .33099366-.24700928 .33099366-.2400055Z"/>
<path id="font_3_2" d="M.2889862 .25C.2889862 .32798768 .27799989 .44898988 .22299195 .56199648 .16299439 .68499758 .07699585 .75 .066986087 .75 .06098938 .75 .056991579 .74598696 .056991579 .73999026 .056991579 .7369995 .056991579 .73498538 .07598877 .71699526 .17399597 .6179962 .23098755 .45899964 .23098755 .25 .23098755 .07899475 .19400025-.09700012 .069992069-.2230072 .056991579-.23500061 .056991579-.23701477 .056991579-.2400055 .056991579-.2460022 .06098938-.25 .066986087-.25 .07699585-.25 .16699219-.18200684 .22599793-.055007936 .2769928 .054992677 .2889862 .16600037 .2889862 .25Z"/>
<path id="font_3_9" d="M.68699648 .32714845C.70199587 .32714845 .72099307 .32714845 .72099307 .34713746 .72099307 .36714173 .70199587 .36714173 .6879883 .36714173H.08898926C.07499695 .36714173 .055999757 .36714173 .055999757 .34713746 .055999757 .32714845 .07499695 .32714845 .08999634 .32714845H.68699648M.6879883 .13284302C.70199587 .13284302 .72099307 .13284302 .72099307 .15284729 .72099307 .17285156 .70199587 .17285156 .68699648 .17285156H.08999634C.07499695 .17285156 .055999757 .17285156 .055999757 .15284729 .055999757 .13284302 .07499695 .13284302 .08898926 .13284302H.6879883Z"/>
<path id="font_3_6" d="M.2899933 .35191346C.37199403 .37893678 .42999269 .4490509 .42999269 .52809146 .42999269 .6100464 .34199525 .6660156 .24598694 .6660156 .14498902 .6660156 .068984989 .60606387 .068984989 .53009036 .068984989 .49710084 .09098816 .47808839 .11999512 .47808839 .15098572 .47808839 .17098999 .50009158 .17098999 .5290985 .17098999 .57910159 .12399292 .57910159 .10899353 .57910159 .13999939 .62802127 .20599365 .64100649 .24198914 .64100649 .2829895 .64100649 .33799745 .6190338 .33799745 .5290985 .33799745 .51708987 .33599855 .45906068 .30999757 .4149933 .27999879 .36691285 .24598694 .36390687 .22099304 .36291505 .21299744 .36190797 .18899536 .35990907 .18199158 .35990907 .17399597 .35890199 .16699219 .35791017 .16699219 .3479004 .16699219 .33691407 .17399597 .33691407 .19099427 .33691407H.23498535C.31698609 .33691407 .35398866 .2686615 .35398866 .17037964 .35398866 .034469606 .2849884 .0055389406 .24099732 .0055389406 .19799805 .0055389406 .12298584 .022491456 .08799744 .08137512 .12298584 .07637024 .1539917 .09837341 .1539917 .1363678 .1539917 .17237854 .1269989 .19238281 .09799194 .19238281 .07398987 .19238281 .041992189 .17837525 .041992189 .1343689 .041992189 .043441774 .1349945-.022460938 .24398804-.022460938 .3659973-.022460938 .45700074 .06838989 .45700074 .17037964 .45700074 .252594 .3939972 .33088685 .2899933 .35191346Z"/>
<path id="font_4_1" d="M.24899292 .10601807C.23899842 .072021488 .20599365 .018234253 .15499878 .018234253 .1519928 .018234253 .12199402 .018234253 .100997928 .03215027 .14199829 .04508972 .14498902 .08100891 .14498902 .087020877 .14498902 .10900879 .12799073 .12402344 .10499573 .12402344 .07699585 .12402344 .04798889 .10002136 .04798889 .0630188 .04798889 .01322937 .10398865-.009765625 .15299988-.009765625 .19898987-.009765625 .23999024 .019226075 .2649994 .061019899 .2889862 .008224487 .34399415-.009765625 .38398744-.009765625 .49899293-.009765625 .55999758 .11502075 .55999758 .14305115 .55999758 .15608216 .5469971 .15608216 .5439911 .15608216 .5299988 .15608216 .5289917 .15107727 .5249939 .13905335 .5039978 .07002258 .44400025 .018234253 .3880005 .018234253 .34799195 .018234253 .32699586 .04508972 .32699586 .08302307 .32699586 .10900879 .35099793 .20018006 .3789978 .31140138 .39898683 .38841249 .44400025 .4133911 .47698976 .4133911 .47898866 .4133911 .5099945 .4133911 .5309906 .39941407 .49899293 .39041139 .4869995 .3624115 .4869995 .34440614 .4869995 .32240296 .5039978 .30740357 .5269928 .30740357 .5499878 .30740357 .58299258 .32640077 .58299258 .3684082 .58299258 .4243927 .5189972 .44140626 .47898866 .44140626 .42900086 .44140626 .3889923 .4084015 .36698915 .3704071 .34899903 .4113922 .30299378 .44140626 .24699402 .44140626 .1349945 .44140626 .070999149 .31840516 .070999149 .2883606 .070999149 .27534486 .084991458 .27534486 .08799744 .27534486 .100997928 .27534486 .101989749 .27934266 .10699463 .29237367 .13198853 .3704071 .19499207 .4133911 .24398804 .4133911 .2769928 .4133911 .3039856 .395401 .3039856 .3474121 .3039856 .32740785 .2919922 .27734376 .2829895 .24327088L.24899292 .10601807Z"/>
<path id="font_1_2" d="M.47099305 .3773346C.47200013 .3833313 .47399903 .38833619 .47399903 .39535523 .47399903 .41236878 .46199037 .42237855 .44499208 .42237855 .43499757 .42237855 .4079895 .41537477 .4039917 .3793335 .38598634 .41636659 .35099793 .4423828 .31098939 .4423828 .19699097 .4423828 .07299805 .30226136 .07299805 .15812683 .07299805 .059020997 .13398743 0 .20599365 0 .2649994 0 .31199647 .04701233 .32199098 .058029176L.32299806 .057022096C.3019867-.031982423 .2899933-.07295227 .2899933-.07495117 .28599549-.08395386 .2519989-.18309021 .1459961-.18309021 .1269989-.18309021 .09399414-.18206787 .06599426-.17297364 .09599304-.16394043 .10699463-.13793946 .10699463-.12094116 .10699463-.10494995 .09599304-.0859375 .068984989-.0859375 .04699707-.0859375 .01499939-.10394287 .01499939-.14395142 .01499939-.18508911 .051986696-.20507813 .147995-.20507813 .272995-.20507813 .34498597-.12693787 .3600006-.06695557L.47099305 .3773346M.34098817 .12809754C.33499146 .10206604 .31199647 .077041629 .2899933 .058029176 .2689972 .040008546 .23799134 .021987915 .20899964 .021987915 .15899658 .021987915 .14399719 .074035648 .14399719 .11407471 .14399719 .16212464 .17298889 .28024293 .19999695 .33128358 .22698975 .38034059 .269989 .42037965 .31199647 .42037965 .37799073 .42037965 .3919983 .33929444 .3919983 .33428956 .3919983 .32928468 .3899994 .3232727 .3889923 .3192749L.34098817 .12809754Z"/>
<path id="font_3_7" d="M.2939911 .16503906V.07800293C.2939911 .041992189 .2919922 .0309906 .21798706 .0309906H.19699097V0C.23799134 .0029907227 .2899933 .0029907227 .33198548 .0029907227 .37399293 .0029907227 .4269867 .0029907227 .46798707 0V.0309906H.44699098C.37298585 .0309906 .37098695 .041992189 .37098695 .07800293V.16503906H.47099305V.19602967H.37098695V.65075686C.37098695 .67074587 .37098695 .6767578 .35499574 .6767578 .34599305 .6767578 .34298707 .6767578 .33499146 .66474917L.027999878 .19602967V.16503906H.2939911M.2999878 .19602967H.055999757L.2999878 .5688019V.19602967Z"/>
</defs>
<path transform="matrix(1,0,0,-1.00005,41.648004,146.00763)" stroke-width=".3985" stroke-linecap="butt" stroke-miterlimit="10" stroke-linejoin="miter" fill="none" stroke="#00aeef" d="M-39.68535 0H39.68535M-39.68535 7.93706H39.68535M-39.68535 15.87413H39.68535M-39.68535 23.8112H39.68535M-39.68535 31.74828H39.68535M-39.68535 39.68535H39.68535M-39.68535 47.62242H39.68535M-39.68535 55.55948H39.68535M-39.68535 63.49655H39.68535M-39.68535 71.43364H39.68535M-39.68535 79.37071H39.68535M-39.68535 87.30779H39.68535M-39.68535 95.24486H39.68535M-39.68535 103.18192H39.68535M-39.68535 111.11899H39.68535M-39.68535 119.05606H39.68535M-39.68535 126.99036H39.68535M-39.68535 0V126.99313M-31.74828 0V126.99313M-23.8112 0V126.99313M-15.87413 0V126.99313M-7.93706 0V126.99313M0 0V126.99313M7.93706 0V126.99313M15.87413 0V126.99313M23.8112 0V126.99313M31.74828 0V126.99313M39.68256 0V126.99313M39.68535 126.99313"/>
<path transform="matrix(1,0,0,-1.00005,41.648004,146.00763)" stroke-width=".79701" stroke-linecap="butt" stroke-miterlimit="10" stroke-linejoin="miter" fill="none" stroke="#000000" d="M-39.68535 0H45.39404"/>
<path transform="matrix(1,0,0,-1.00005,87.04204,146.00763)" d="M1.0361 0C-.25902 .25902-1.55415 .77707-3.1083 1.68365-1.55415 .51805-1.55415-.51805-3.1083-1.68365-1.55415-.77707-.25902-.25902 1.0361 0Z"/>
<path transform="matrix(1,0,0,-1.00005,87.04204,146.00763)" stroke-width=".79701" stroke-linecap="butt" stroke-linejoin="round" fill="none" stroke="#000000" d="M1.0361 0C-.25902 .25902-1.55415 .77707-3.1083 1.68365-1.55415 .51805-1.55415-.51805-3.1083-1.68365-1.55415-.77707-.25902-.25902 1.0361 0Z"/>
<use data-text="x" xlink:href="#font_1_3" transform="matrix(9.9626,0,0,-9.963098,92.196,148.15274)"/>
<path transform="matrix(1,0,0,-1.00005,41.648004,146.00763)" stroke-width=".79701" stroke-linecap="butt" stroke-miterlimit="10" stroke-linejoin="miter" fill="none" stroke="#000000" d="M0 0V132.70185"/>
<path transform="matrix(0,-1.00005,-1,-0,41.648004,13.299164)" d="M1.0361 0C-.25902 .25902-1.55415 .77707-3.1083 1.68365-1.55415 .51805-1.55415-.51805-3.1083-1.68365-1.55415-.77707-.25902-.25902 1.0361 0Z"/>
<path transform="matrix(0,-1.00005,-1,-0,41.648004,13.299164)" stroke-width=".79701" stroke-linecap="butt" stroke-linejoin="round" fill="none" stroke="#000000" d="M1.0361 0C-.25902 .25902-1.55415 .77707-3.1083 1.68365-1.55415 .51805-1.55415-.51805-3.1083-1.68365-1.55415-.77707-.25902-.25902 1.0361 0Z"/>
<use data-text="y" xlink:href="#font_1_4" transform="matrix(9.9626,0,0,-9.963098,39.027,6.2076418)"/>
<path transform="matrix(1,0,0,-1.00005,41.648004,146.00763)" stroke-width=".79701" stroke-linecap="butt" stroke-miterlimit="10" stroke-linejoin="miter" fill="none" stroke="#000000" d="M-31.74828 1.19049V-1.19061"/>
<use data-text="&#x2212;" xlink:href="#font_2_1" transform="matrix(9.9626,0,0,-9.963098,3.5350037,157.3382)"/>
<use data-text="2" xlink:href="#font_3_5" transform="matrix(9.9626,0,0,-9.963098,11.282997,157.3382)"/>
<path transform="matrix(1,0,0,-1.00005,41.648004,146.00763)" stroke-width=".79701" stroke-linecap="butt" stroke-miterlimit="10" stroke-linejoin="miter" fill="none" stroke="#000000" d="M31.74828 1.19049V-1.19061"/>
<use data-text="2" xlink:href="#font_3_5" transform="matrix(9.9626,0,0,-9.963098,70.906009,157.3382)"/>
<path transform="matrix(1,0,0,-1.00005,41.648004,146.00763)" stroke-width=".79701" stroke-linecap="butt" stroke-miterlimit="10" stroke-linejoin="miter" fill="none" stroke="#000000" d="M1.19049 39.68535H-1.19061"/>
<use data-text="5" xlink:href="#font_3_8" transform="matrix(9.9626,0,0,-9.963098,31.757004,109.53081)"/>
<path transform="matrix(1,0,0,-1.00005,41.648004,146.00763)" stroke-width=".79701" stroke-linecap="butt" stroke-miterlimit="10" stroke-linejoin="miter" fill="none" stroke="#000000" d="M1.19049 79.37071H-1.19061"/>
<use data-text="1" xlink:href="#font_3_4" transform="matrix(9.9626,0,0,-9.963098,26.776001,69.84382)"/>
<use data-text="0" xlink:href="#font_3_3" transform="matrix(9.9626,0,0,-9.963098,31.757302,69.84382)"/>
<path transform="matrix(1,0,0,-1.00005,41.648004,146.00763)" stroke-width=".79701" stroke-linecap="butt" stroke-miterlimit="10" stroke-linejoin="miter" fill="none" stroke="#000000" d="M1.19049 119.05606H-1.19061"/>
<use data-text="1" xlink:href="#font_3_4" transform="matrix(9.9626,0,0,-9.963098,26.776001,30.155846)"/>
<use data-text="5" xlink:href="#font_3_8" transform="matrix(9.9626,0,0,-9.963098,31.757302,30.155846)"/>
<path transform="matrix(1,0,0,-1.00005,41.648004,146.00763)" stroke-width="1.19553" stroke-linecap="butt" stroke-miterlimit="10" stroke-linejoin="miter" fill="none" stroke="#ff0000" d="M-37.81367 .57722C-38.78932 .54156-38.78932 .54156-38.44518 .5548-38.10103 .56801-37.54915 .58975-37.20502 .60408-36.86087 .61841-36.30898 .64235-35.96483 .6581-35.62071 .67383-35.06882 .7004-34.72467 .71756-34.38052 .73474-33.82864 .76326-33.48451 .78186-33.14037 .80048-32.58847 .83148-32.24432 .85175-31.9002 .87202-31.34831 .90579-31.00417 .92792-30.66002 .95007-30.10815 .98714-29.764 1.01137-29.41986 1.03561-28.86797 1.07635-28.52385 1.10269-28.1797 1.12903-27.6278 1.17252-27.28366 1.20114-26.93953 1.22978-26.38763 1.2779-26.0435 1.30907-25.69936 1.34023-25.14748 1.3918-24.80333 1.42581-24.45918 1.45984-23.9073 1.5172-23.56317 1.5543-23.21902 1.59143-22.66714 1.65303-22.323 1.69334-21.97887 1.73367-21.42697 1.80103-21.08282 1.84499-20.73868 1.88892-20.18681 1.96214-19.84267 2.01004-19.49852 2.05794-18.94664 2.13794-18.60251 2.19026-18.25836 2.24258-17.70647 2.33025-17.36232 2.38719-17.01819 2.44414-16.46631 2.53868-16.12216 2.60071-15.77802 2.66272-15.22614 2.76657-14.882 2.8342-14.53786 2.90184-13.98596 3.01448-13.64182 3.08817-13.29768 3.16185-12.7458 3.28497-12.40166 3.36526-12.05751 3.44557-11.50563 3.57962-11.16148 3.66695-10.81735 3.7543-10.26546 3.89961-9.92133 3.9948-9.57718 4.08998-9.0253 4.24904-8.68115 4.35292-8.33702 4.4568-7.78513 4.63026-7.44098 4.7435-7.09685 4.85672-6.54497 5.04572-6.20082 5.16898-5.85667 5.2922-5.3048 5.49757-4.96066 5.63184-4.61652 5.76611-4.06462 5.99046-3.72047 6.13676-3.37636 6.28304-2.82446 6.52673-2.48032 6.68611-2.13617 6.84549-1.58429 7.11192-1.24016 7.28548-.89601 7.45905-.34412 7.748 0 7.93706 .34412 8.12611 .89601 8.4419 1.24016 8.64809 1.58429 8.8543 2.13617 9.1985 2.48032 9.4232 2.82446 9.6479 3.37636 10.02277 3.72047 10.26758 4.06462 10.51239 4.61652 10.92091 4.96066 11.18765 5.3048 11.45439 5.85667 11.89938 6.20082 12.19008 6.54497 12.48077 7.09685 12.96594 7.44098 13.28273 7.78513 13.59952 8.33702 14.12811 8.68115 14.47325 9.0253 14.81837 9.57718 15.39423 9.92133 15.77022 10.26546 16.1462 10.81735 16.77335 11.16148 17.18309 11.50563 17.59283 12.05751 18.27686 12.40166 18.72336 12.7458 19.16988 13.29768 19.91475 13.64182 20.40123 13.98596 20.8877 14.53786 21.69945 14.882 22.22949 15.22614 22.75955 15.77802 23.64398 16.12216 24.22151 16.46631 24.79906 17.01819 25.7627 17.36232 26.39206 17.70647 27.02142 18.25836 28.07172 18.60251 28.75757 18.94664 29.44342 19.49852 30.58795 19.84267 31.33516 20.18681 32.08238 20.73868 33.32898 21.08282 34.14297 21.42697 34.95699 21.97887 36.3149 22.323 37.20198 22.66714 38.08907 23.21902 39.56972 23.56317 40.53651 23.9073 41.5033 24.45918 43.11658 24.80333 44.16994 25.14748 45.2233 25.69936 46.98082 26.0435 48.1284 26.38763 49.276 26.93953 51.19054 27.28366 52.44102 27.6278 53.69151 28.1797 55.77837 28.52385 57.14107 28.86797 58.50377 29.41986 60.7777 29.764 62.26245 30.10815 63.7472 30.66002 66.22456 31.00417 67.8421 31.34831 69.45966 31.9002 72.15785 32.24432 73.92062 32.58847 75.6834 33.14037 78.62599 33.48451 80.54694 33.82864 82.46786 34.38052 85.67267 34.72467 87.76546 35.06882 89.85823 35.62071 93.34999 35.96483 95.63023 36.30898 97.91045 36.86087 101.71504 37.20502 104.19974 37.54915 106.6844 38.10103 110.83044 38.44518 113.53806 38.78932 116.24567 39.68535 123.71431 39.4623 121.85474"/>
<path transform="matrix(-.9993,.036561826,.03656,.9993499,3.834343,145.43038)" d="M1.27522 0C-.31879 .31879-1.91284 .9564-3.8257 2.07224-1.91284 .6376-1.91284-.6376-3.8257-2.07224-1.91284-.9564-.31879-.31879 1.27522 0Z" fill="#ff0000"/>
<path transform="matrix(-.9993,.036561826,.03656,.9993499,3.834343,145.43038)" stroke-width="1.19553" stroke-linecap="butt" stroke-linejoin="round" fill="none" stroke="#ff0000" d="M1.27522 0C-.31879 .31879-1.91284 .9564-3.8257 2.07224-1.91284 .6376-1.91284-.6376-3.8257-2.07224-1.91284-.9564-.31879-.31879 1.27522 0Z"/>
<path transform="matrix(.1191,-.9928896,-.99284,-.11910594,81.110309,24.146805)" d="M1.27522 0C-.31879 .31879-1.91284 .9564-3.8257 2.07224-1.91284 .6376-1.91284-.6376-3.8257-2.07224-1.91284-.9564-.31879-.31879 1.27522 0Z" fill="#ff0000"/>
<path transform="matrix(.1191,-.9928896,-.99284,-.11910594,81.110309,24.146805)" stroke-width="1.19553" stroke-linecap="butt" stroke-linejoin="round" fill="none" stroke="#ff0000" d="M1.27522 0C-.31879 .31879-1.91284 .9564-3.8257 2.07224-1.91284 .6376-1.91284-.6376-3.8257-2.07224-1.91284-.9564-.31879-.31879 1.27522 0Z"/>
<path transform="matrix(1,0,0,-1.00005,41.648004,146.00763)" d="M18.34845 10.89275H61.02225V20.85552H18.34845Z" fill="#ffffff"/>
<use data-text="f" xlink:href="#font_1_1" transform="matrix(9.9626,0,0,-9.963098,59.996004,132.62397)" fill="#ff0000"/>
<use data-text="(" xlink:href="#font_3_1" transform="matrix(9.9626,0,0,-9.963098,65.94601,132.62397)" fill="#ff0000"/>
<use data-text="x" xlink:href="#font_1_3" transform="matrix(9.9626,0,0,-9.963098,69.82,132.62397)" fill="#ff0000"/>
<use data-text=")" xlink:href="#font_3_2" transform="matrix(9.9626,0,0,-9.963098,75.514,132.62397)" fill="#ff0000"/>
<use data-text="=" xlink:href="#font_3_9" transform="matrix(9.9626,0,0,-9.963098,82.13914,132.62397)" fill="#ff0000"/>
<use data-text="3" xlink:href="#font_3_6" transform="matrix(9.9626,0,0,-9.963098,92.64968,132.62397)" fill="#ff0000"/>
<use data-text="x" xlink:href="#font_4_1" transform="matrix(6.9738,0,0,-6.9741489,97.65299,129.00879)" fill="#ff0000"/>
<path transform="matrix(1,0,0,-1.00005,41.648004,146.00763)" stroke-width="1.19553" stroke-linecap="butt" stroke-miterlimit="10" stroke-linejoin="miter" fill="none" stroke="#0000ff" d="M-37.81291 .28926C-38.87892 .26558-38.87892 .26558-38.56918 .27296-38.25946 .28035-37.76277 .29268-37.45305 .30083-37.14333 .30898-36.6466 .32268-36.33688 .3317-36.02716 .34073-35.53047 .35593-35.22075 .36586-34.91101 .37578-34.41432 .39236-34.10458 .40329-33.79486 .41418-33.29816 .43234-32.98843 .44446-32.67871 .45657-32.18202 .47726-31.8723 .4906-31.56256 .50394-31.06586 .52599-30.75613 .54062-30.44641 .55527-29.9497 .5799-29.63998 .5961-29.33026 .61227-28.83357 .6394-28.52385 .65726-28.21411 .6751-27.7174 .70511-27.40768 .7247-27.09796 .74431-26.60127 .777-26.29153 .79858-25.98181 .82018-25.4851 .85645-25.17538 .88033-24.86566 .90422-24.36896 .94447-24.05923 .97081-23.74951 .99713-23.2528 1.04115-22.94307 1.0701-22.63335 1.09908-22.13666 1.14764-21.82693 1.1796-21.51721 1.21153-21.02051 1.26509-20.71077 1.30034-20.40105 1.33559-19.90436 1.3948-19.59464 1.43369-19.2849 1.47256-18.78821 1.53775-18.47849 1.58058-18.16875 1.62344-17.67204 1.69527-17.36232 1.74252-17.0526 1.78976-16.55591 1.86917-16.24619 1.92116-15.93645 1.97313-15.43976 2.05984-15.13002 2.11723-14.8203 2.1746-14.3236 2.27141-14.01387 2.33475-13.70415 2.39807-13.20746 2.50395-12.89774 2.57368-12.58801 2.64343-12.0913 2.76045-11.78157 2.83736-11.47185 2.91425-10.97516 3.04318-10.66542 3.12788-10.3557 3.2126-9.859 3.35446-9.54927 3.44786-9.23955 3.54128-8.74284 3.69817-8.43312 3.80115-8.1234 3.90413-7.62671 4.07669-7.31696 4.19016-7.00723 4.3036-6.51054 4.49376-6.20082 4.61888-5.8911 4.744-5.3944 4.95392-5.08467 5.09193-4.77493 5.22995-4.27824 5.46144-3.96852 5.61357-3.65878 5.76567-3.1621 6.02069-2.85237 6.18834-2.54265 6.35599-2.04594 6.63704-1.7362 6.82188-1.42648 7.00671-.9298 7.3171-.62007 7.52057-.31033 7.72401 .18633 8.06404 .49605 8.28828 .80577 8.51251 1.30247 8.88925 1.6122 9.13678 1.92194 9.38428 2.41862 9.79936 2.72835 10.07224 3.03807 10.3451 3.53477 10.80269 3.8445 11.10347 4.15422 11.40425 4.65092 11.90851 4.96066 12.2401 5.27039 12.57169 5.76707 13.1278 6.0768 13.49335 6.38652 13.85887 6.88324 14.47163 7.19296 14.87462 7.50269 15.27757 7.99937 15.95348 8.3091 16.39769 8.61884 16.8419 9.11552 17.58646 9.42525 18.07614 9.73499 18.56586 10.23169 19.38718 10.54141 19.92708 10.85114 20.46698 11.34782 21.3723 11.65755 21.9674 11.96729 22.56255 12.46397 23.56027 12.77371 24.21632 13.08344 24.87234 13.58014 25.9725 13.88986 26.69566 14.19958 27.41885 14.69627 28.6313 15.006 29.42853 15.31573 30.22575 15.81244 31.56259 16.12216 32.4415 16.43188 33.3204 16.92857 34.7942 17.23831 35.76308 17.54803 36.73193 18.04474 38.35643 18.35446 39.42447 18.66418 40.49251 19.16089 42.28337 19.47061 43.46082 19.78033 44.63829 20.27704 46.61275 20.58678 47.91078 20.8965 49.2088 21.39319 51.38528 21.70291 52.8161 22.01263 54.24693 22.50934 56.6459 22.81908 58.22319 23.1288 59.80046 23.62549 62.44516 23.93521 64.18398 24.24495 65.92279 24.74164 68.83842 25.05136 70.75542 25.36108 72.67241 25.8578 75.88716 26.16753 78.00034 26.47725 80.11353 26.97394 83.65628 27.28366 85.98575 27.5934 88.31519 28.09009 92.22145 28.39981 94.78947 28.70955 97.35748 29.20625 101.66328 29.51598 104.49428 29.8257 107.32524 30.32239 112.07158 30.63211 115.19325 30.94183 118.31494 31.74828 126.99313 31.575 125.1283"/>
<path transform="matrix(-.99971,.02222111,.02222,.99976,3.8350945,145.71836)" d="M1.27522 0C-.31879 .31879-1.91284 .9564-3.8257 2.07224-1.91284 .6376-1.91284-.6376-3.8257-2.07224-1.91284-.9564-.31879-.31879 1.27522 0Z" fill="#0000ff"/>
<path transform="matrix(-.99971,.02222111,.02222,.99976,3.8350945,145.71836)" stroke-width="1.19553" stroke-linecap="butt" stroke-linejoin="round" fill="none" stroke="#0000ff" d="M1.27522 0C-.31879 .31879-1.91284 .9564-3.8257 2.07224-1.91284 .6376-1.91284-.6376-3.8257-2.07224-1.91284-.9564-.31879-.31879 1.27522 0Z"/>
<path transform="matrix(.09251,-.9956997,-.99565,-.09251462,73.222988,20.873078)" d="M1.27522 0C-.31879 .31879-1.91284 .9564-3.8257 2.07224-1.91284 .6376-1.91284-.6376-3.8257-2.07224-1.91284-.9564-.31879-.31879 1.27522 0Z" fill="#0000ff"/>
<path transform="matrix(.09251,-.9956997,-.99565,-.09251462,73.222988,20.873078)" stroke-width="1.19553" stroke-linecap="butt" stroke-linejoin="round" fill="none" stroke="#0000ff" d="M1.27522 0C-.31879 .31879-1.91284 .9564-3.8257 2.07224-1.91284 .6376-1.91284-.6376-3.8257-2.07224-1.91284-.9564-.31879-.31879 1.27522 0Z"/>
<path transform="matrix(1,0,0,-1.00005,41.648004,146.00763)" d="M-14.56691 98.9943H27.26625V108.95707H-14.56691Z" fill="#ffffff"/>
<use data-text="g" xlink:href="#font_1_2" transform="matrix(9.9626,0,0,-9.963098,27.081002,44.517564)" fill="#0000ff"/>
<use data-text="(" xlink:href="#font_3_1" transform="matrix(9.9626,0,0,-9.963098,32.190004,44.517564)" fill="#0000ff"/>
<use data-text="x" xlink:href="#font_1_3" transform="matrix(9.9626,0,0,-9.963098,36.063997,44.517564)" fill="#0000ff"/>
<use data-text=")" xlink:href="#font_3_2" transform="matrix(9.9626,0,0,-9.963098,41.757997,44.517564)" fill="#0000ff"/>
<use data-text="=" xlink:href="#font_3_9" transform="matrix(9.9626,0,0,-9.963098,48.383134,44.517564)" fill="#0000ff"/>
<use data-text="4" xlink:href="#font_3_7" transform="matrix(9.9626,0,0,-9.963098,58.893678,44.517564)" fill="#0000ff"/>
<use data-text="x" xlink:href="#font_4_1" transform="matrix(6.9738,0,0,-6.9741489,63.896989,40.90239)" fill="#0000ff"/>
</svg>
