<svg xmlns="http://www.w3.org/2000/svg" xmlns:xlink="http://www.w3.org/1999/xlink" version="1.1" width="102" height="130" viewBox="0 0 102 130">
<defs>
<path id="font_1_2" d="M.20599365 .3996582H.2999878C.31999208 .3996582 .32998658 .3996582 .32998658 .41966249 .32998658 .43066407 .31999208 .43066407 .3019867 .43066407H.21398926C.25 .5724945 .25498963 .59246829 .25498963 .59846499 .25498963 .61546328 .24299622 .62545779 .22599793 .62545779 .22299195 .62545779 .19499207 .62446597 .18598938 .58947756L.14698792 .43066407H.052993776C.032989503 .43066407 .022994996 .43066407 .022994996 .4116516 .022994996 .3996582 .0309906 .3996582 .050994874 .3996582H.13899231C.066986087 .11608887 .06298828 .099121097 .06298828 .08114624 .06298828 .02722168 .100997928-.0107421879 .15499878-.0107421879 .25698854-.0107421879 .31399537 .13505554 .31399537 .14305115 .31399537 .1530304 .30599977 .1530304 .3019867 .1530304 .29299928 .1530304 .2919922 .15003968 .2869873 .13905335 .24398804 .035217287 .19099427 .011245728 .15699768 .011245728 .13598633 .011245728 .12599182 .024230957 .12599182 .057174684 .12599182 .08114624 .12799073 .088134769 .13198853 .10510254L.20599365 .3996582Z"/>
<path id="font_1_1" d="M.30299378 .3157959H.47299195C.61499026 .3157959 .7539978 .41973878 .7539978 .53167727 .7539978 .6086273 .6879883 .6826172 .5569916 .6826172H.23298645C.21398926 .6826172 .20298767 .6826172 .20298767 .66360476 .20298767 .6516113 .21199036 .6516113 .23199463 .6516113 .24499512 .6516113 .2630005 .65060427 .2749939 .6496124 .29100038 .6476135 .29699708 .64460757 .29699708 .6336212 .29699708 .6296234 .29599 .62661746 .29299928 .614624L.15899658 .07795715C.14898682 .038986207 .14698792 .0309906 .067993167 .0309906 .050994874 .0309906 .039993287 .0309906 .039993287 .011993408 .039993287 0 .051986696 0 .054992677 0 .08299255 0 .1539917 .0029907227 .18199158 .0029907227 .20298767 .0029907227 .22499085 .0019989014 .24598694 .0019989014 .2679901 .0019989014 .2899933 0 .31098939 0 .31799317 0 .33099366 0 .33099366 .019989014 .33099366 .0309906 .32199098 .0309906 .30299378 .0309906 .2659912 .0309906 .23799134 .0309906 .23799134 .048980714 .23799134 .054977418 .23999024 .05996704 .24099732 .065963748L.30299378 .3157959M.375 .6136322C.38398744 .64860537 .38598634 .6516113 .42900086 .6516113H.5249939C.60798647 .6516113 .6609955 .62461856 .6609955 .55566409 .6609955 .5166931 .6409912 .43074037 .60198977 .39476014 .5519867 .34977723 .49198915 .34179688 .44799806 .34179688H.30699159L.375 .6136322Z"/>
<path id="font_2_5" d="M.44898988 .20022583C.44898988 .3193512 .36698915 .41944886 .25898744 .41944886 .21099854 .41944886 .16799927 .40345765 .13198853 .36842347V.5637665C.1519928 .5577698 .18499756 .55078127 .21699524 .55078127 .33999635 .55078127 .4099884 .6417694 .4099884 .6547699 .4099884 .6607666 .40699769 .6657715 .3999939 .6657715 .39898683 .6657715 .39698792 .6657715 .3919983 .66278079 .37199403 .6537781 .32299806 .6337738 .2559967 .6337738 .21598816 .6337738 .16999817 .6407776 .12298584 .6617737 .114990238 .66477969 .11299133 .66477969 .11099243 .66477969 .100997928 .66477969 .100997928 .6567688 .100997928 .6407776V.34439088C.100997928 .32637025 .100997928 .31835938 .114990238 .31835938 .12199402 .31835938 .12399292 .32136537 .12799073 .32736207 .13899231 .3433838 .17599488 .39746095 .25698854 .39746095 .30899049 .39746095 .33399964 .35139466 .34199525 .33337403 .35798646 .29632569 .3600006 .25727845 .3600006 .20722962 .3600006 .17222595 .3600006 .11222839 .33599855 .07035828 .31199647 .031463624 .2749939 .0055389406 .22898865 .0055389406 .1559906 .0055389406 .09899902 .058380128 .08198547 .11723328 .084991458 .1162262 .08799744 .115234378 .09899902 .115234378 .13198853 .115234378 .14898682 .14022827 .14898682 .16423035 .14898682 .18823242 .13198853 .21322632 .09899902 .21322632 .084991458 .21322632 .049987794 .20622254 .049987794 .16023255 .049987794 .07434082 .11898804-.022460938 .23098755-.022460938 .34700013-.022460938 .44898988 .073349 .44898988 .20022583Z"/>
<path id="font_2_2" d="M.2939911 .64004519C.2939911 .66400149 .2939911 .6660156 .2709961 .6660156 .20899964 .60227969 .12098694 .60227969 .08898926 .60227969V.57128909C.10899353 .57128909 .16799927 .57128909 .21998596 .5972748V.07902527C.21998596 .042999269 .21699524 .0309906 .1269989 .0309906H.09498596V0C.12998963 .0029907227 .21699524 .0029907227 .25698854 .0029907227 .29699708 .0029907227 .38398744 .0029907227 .4189911 0V.0309906H.3869934C.29699708 .0309906 .2939911 .041992189 .2939911 .07902527V.64004519Z"/>
<path id="font_2_1" d="M.45999146 .31976319C.45999146 .39982606 .45498658 .47988893 .41999818 .5539398 .37399293 .65000918 .2919922 .6660156 .25 .6660156 .18998719 .6660156 .116989139 .64001467 .07598877 .54693606 .04399109 .47789 .038986207 .39982606 .038986207 .31976319 .038986207 .24472046 .042999269 .15464783 .083999637 .07859802 .1269989-.0024719239 .19999695-.022460938 .24899292-.022460938 .30299378-.022460938 .3789978-.0014648438 .4229889 .09359741 .45498658 .16265869 .45999146 .2407074 .45999146 .31976319M.24899292-.00047302247C.20999146-.00047302247 .15098572 .024551392 .1329956 .12062073 .12199402 .18066406 .12199402 .2727356 .12199402 .3317871 .12199402 .39582826 .12199402 .46188355 .12998963 .5159149 .14898682 .63500979 .22399903 .64401248 .24899292 .64401248 .28199769 .64401248 .34799195 .6259918 .36698915 .52693179 .3769989 .47088624 .3769989 .39482118 .3769989 .3317871 .3769989 .25672914 .3769989 .18867493 .3659973 .12461853 .35099793 .029556275 .2939911-.00047302247 .24899292-.00047302247Z"/>
<path id="font_2_3" d="M.1269989 .07699585 .23298645 .18003845C.3889923 .31811524 .44898988 .3721466 .44898988 .47216798 .44898988 .5860901 .35899354 .6660156 .23699951 .6660156 .12399292 .6660156 .049987794 .57411196 .049987794 .48516847 .049987794 .4291687 .099990848 .4291687 .102996829 .4291687 .11999512 .4291687 .15499878 .44117738 .15499878 .48217774 .15499878 .5081787 .13699341 .5341797 .101989749 .5341797 .09399414 .5341797 .09199524 .5341797 .08898926 .5331726 .11199951 .59806826 .1659851 .63500979 .22399903 .63500979 .31498719 .63500979 .35798646 .5541382 .35798646 .47216798 .35798646 .39215089 .30799867 .31311036 .25299073 .25108338L.06098938 .036987306C.049987794 .025985718 .049987794 .023986817 .049987794 0H.42099L.44898988 .17404175H.42399598C.4189911 .14402771 .4119873 .1000061 .4019928 .084991458 .394989 .07699585 .32899476 .07699585 .30699159 .07699585H.1269989Z"/>
<path id="font_2_4" d="M.2939911 .16503906V.07800293C.2939911 .041992189 .2919922 .0309906 .21798706 .0309906H.19699097V0C.23799134 .0029907227 .2899933 .0029907227 .33198548 .0029907227 .37399293 .0029907227 .4269867 .0029907227 .46798707 0V.0309906H.44699098C.37298585 .0309906 .37098695 .041992189 .37098695 .07800293V.16503906H.47099305V.19602967H.37098695V.65075686C.37098695 .67074587 .37098695 .6767578 .35499574 .6767578 .34599305 .6767578 .34298707 .6767578 .33499146 .66474917L.027999878 .19602967V.16503906H.2939911M.2999878 .19602967H.055999757L.2999878 .5688019V.19602967Z"/>
<path id="font_2_6" d="M.13198853 .327713V.35173036C.13198853 .6047821 .2559967 .64100649 .30699159 .64100649 .33099366 .64100649 .37298585 .634964 .394989 .6007538 .37998963 .6007538 .33999635 .6007538 .33999635 .5557556 .33999635 .524765 .3639984 .5097656 .38598634 .5097656 .4019928 .5097656 .43199159 .51875308 .43199159 .5577545 .43199159 .6178589 .3880005 .6660156 .30499269 .6660156 .1769867 .6660156 .041992189 .5367584 .041992189 .31570436 .041992189 .048553468 .1579895-.022460938 .25099183-.022460938 .3619995-.022460938 .45700074 .07156372 .45700074 .2036438 .45700074 .33070375 .36799623 .4267578 .25698854 .4267578 .18899536 .4267578 .1519928 .37573243 .13198853 .327713M.25099183 .0055389406C.18798828 .0055389406 .1579895 .06556702 .1519928 .080566409 .13398743 .127594 .13398743 .2076416 .13398743 .22564698 .13398743 .30369569 .1659851 .40374757 .2559967 .40374757 .27198792 .40374757 .31799317 .40374757 .34899903 .34172059 .36698915 .30470277 .36698915 .2536621 .36698915 .20463562 .36698915 .15661621 .36698915 .10658264 .34999085 .0705719 .31999208 .010528564 .27398683 .0055389406 .25099183 .0055389406Z"/>
</defs>
<path transform="matrix(1.00003,0,0,-1.00005,13.035034,116.69423)" stroke-width=".3985" stroke-linecap="butt" stroke-miterlimit="10" stroke-linejoin="miter" fill="none" stroke="#00aeef" d="M0 0H79.37071M0 7.93706H79.37071M0 15.87413H79.37071M0 23.8112H79.37071M0 31.74828H79.37071M0 39.68535H79.37071M0 47.62242H79.37071M0 55.55948H79.37071M0 63.49655H79.37071M0 71.43364H79.37071M0 79.37071H79.37071M0 87.30779H79.37071M0 95.24486H79.37071M0 103.17914H79.37071M0 0V103.18192M7.93706 0V103.18192M15.87413 0V103.18192M23.8112 0V103.18192M31.74828 0V103.18192M39.68535 0V103.18192M47.62242 0V103.18192M55.55948 0V103.18192M63.49655 0V103.18192M71.43364 0V103.18192M79.36792 0V103.18192M79.37071 103.18192"/>
<path transform="matrix(1.00003,0,0,-1.00005,13.035034,116.69423)" stroke-width=".79701" stroke-linecap="butt" stroke-miterlimit="10" stroke-linejoin="miter" fill="none" stroke="#000000" d="M0 0H84.28578"/>
<path transform="matrix(1.00003,0,0,-1.00005,97.32335,116.69423)" d="M1.0361 0C-.25902 .25902-1.55415 .77707-3.1083 1.68365-1.55415 .51805-1.55415-.51805-3.1083-1.68365-1.55415-.77707-.25902-.25902 1.0361 0Z"/>
<path transform="matrix(1.00003,0,0,-1.00005,97.32335,116.69423)" stroke-width=".79701" stroke-linecap="butt" stroke-linejoin="round" fill="none" stroke="#000000" d="M1.0361 0C-.25902 .25902-1.55415 .77707-3.1083 1.68365-1.55415 .51805-1.55415-.51805-3.1083-1.68365-1.55415-.77707-.25902-.25902 1.0361 0Z"/>
<use data-text="t" xlink:href="#font_1_2" transform="matrix(9.962899,0,0,-9.963098,96.95955,112.975048)"/>
<path transform="matrix(1.00003,0,0,-1.00005,13.035034,116.69423)" stroke-width=".79701" stroke-linecap="butt" stroke-miterlimit="10" stroke-linejoin="miter" fill="none" stroke="#000000" d="M0 0V108.09698"/>
<path transform="matrix(0,-1.00005,-1.00003,-0,13.035034,8.59185)" d="M1.0361 0C-.25902 .25902-1.55415 .77707-3.1083 1.68365-1.55415 .51805-1.55415-.51805-3.1083-1.68365-1.55415-.77707-.25902-.25902 1.0361 0Z"/>
<path transform="matrix(0,-1.00005,-1.00003,-0,13.035034,8.59185)" stroke-width=".79701" stroke-linecap="butt" stroke-linejoin="round" fill="none" stroke="#000000" d="M1.0361 0C-.25902 .25902-1.55415 .77707-3.1083 1.68365-1.55415 .51805-1.55415-.51805-3.1083-1.68365-1.55415-.77707-.25902-.25902 1.0361 0Z"/>
<use data-text="P" xlink:href="#font_1_1" transform="matrix(9.962899,0,0,-9.963098,1.5356903,7.7267916)"/>
<path transform="matrix(1.00003,0,0,-1.00005,13.035034,116.69423)" stroke-width=".79701" stroke-linecap="butt" stroke-miterlimit="10" stroke-linejoin="miter" fill="none" stroke="#000000" d="M39.68535 1.19049V-1.19061"/>
<use data-text="5" xlink:href="#font_2_5" transform="matrix(9.962899,0,0,-9.963098,50.23115,128.0248)"/>
<path transform="matrix(1.00003,0,0,-1.00005,13.035034,116.69423)" stroke-width=".79701" stroke-linecap="butt" stroke-miterlimit="10" stroke-linejoin="miter" fill="none" stroke="#000000" d="M79.37071 1.19049V-1.19061"/>
<use data-text="1" xlink:href="#font_2_2" transform="matrix(9.962899,0,0,-9.963098,87.42627,128.0248)"/>
<use data-text="0" xlink:href="#font_2_1" transform="matrix(9.962899,0,0,-9.963098,92.407718,128.0248)"/>
<path transform="matrix(1.00003,0,0,-1.00005,13.035034,116.69423)" stroke-width=".79701" stroke-linecap="butt" stroke-miterlimit="10" stroke-linejoin="miter" fill="none" stroke="#000000" d="M1.19049 31.74828H-1.19061"/>
<use data-text="2" xlink:href="#font_2_3" transform="matrix(9.962899,0,0,-9.963098,3.1437379,88.1548)"/>
<path transform="matrix(1.00003,0,0,-1.00005,13.035034,116.69423)" stroke-width=".79701" stroke-linecap="butt" stroke-miterlimit="10" stroke-linejoin="miter" fill="none" stroke="#000000" d="M1.19049 63.49655H-1.19061"/>
<use data-text="4" xlink:href="#font_2_4" transform="matrix(9.962899,0,0,-9.963098,3.1437379,56.40522)"/>
<path transform="matrix(1.00003,0,0,-1.00005,13.035034,116.69423)" stroke-width=".79701" stroke-linecap="butt" stroke-miterlimit="10" stroke-linejoin="miter" fill="none" stroke="#000000" d="M1.19049 95.24486H-1.19061"/>
<use data-text="6" xlink:href="#font_2_6" transform="matrix(9.962899,0,0,-9.963098,3.1437379,24.654625)"/>
<path transform="matrix(1.00003,0,0,-1.00005,13.035034,116.69423)" stroke-width="1.19553" stroke-linecap="butt" stroke-miterlimit="10" stroke-linejoin="miter" fill="none" stroke="#ff0000" d="M0 31.74828C0 31.74828 .89601 32.15637 1.24016 32.31506 1.58429 32.47375 2.13617 32.73051 2.48032 32.89204 2.82446 33.05354 3.37636 33.3147 3.72047 33.47917 4.06462 33.64365 4.61652 33.91003 4.96066 34.07747 5.3048 34.2449 5.85667 34.51552 6.20082 34.68593 6.54497 34.85631 7.09685 35.13203 7.44098 35.30551 7.78513 35.47899 8.33702 35.75969 8.68115 35.93625 9.0253 36.11282 9.57718 36.39848 9.92133 36.57814 10.26546 36.75781 10.81735 37.0482 11.16148 37.23117 11.50563 37.41412 12.05751 37.7106 12.40166 37.89679 12.7458 38.08298 13.29768 38.38367 13.64182 38.57306 13.98596 38.76248 14.53786 39.06897 14.882 39.26195 15.22614 39.45493 15.77802 39.76743 16.12216 39.9639 16.46631 40.16037 17.01819 40.4782 17.36232 40.67796 17.70647 40.87772 18.25836 41.20026 18.60251 41.40366 18.94664 41.60704 19.49852 41.93672 19.84267 42.14388 20.18681 42.35103 20.73868 42.68597 21.08282 42.8967 21.42697 43.10742 21.97887 43.4482 22.323 43.6626 22.66714 43.87701 23.21902 44.22375 23.56317 44.44206 23.9073 44.66039 24.45918 45.01372 24.80333 45.23607 25.14748 45.4584 25.69936 45.81834 26.0435 46.0446 26.38763 46.27083 26.93953 46.63647 27.28366 46.86668 27.6278 47.0969 28.1797 47.46944 28.52385 47.7038 28.86797 47.93819 29.41986 48.31746 29.764 48.55594 30.10815 48.7944 30.66002 49.17969 31.00417 49.42259 31.34831 49.66551 31.9002 50.05948 32.24432 50.3067 32.58847 50.55391 33.14037 50.95299 33.48451 51.20438 33.82864 51.45575 34.38052 51.86235 34.72467 52.1185 35.06882 52.37465 35.62071 52.78978 35.96483 53.05057 36.30898 53.31137 36.86087 53.73291 37.20502 53.99814 37.54915 54.26337 38.10103 54.69157 38.44518 54.96217 38.78932 55.23277 39.3412 55.67358 39.68535 55.94849 40.0295 56.2234 40.58138 56.6644 40.9255 56.94353 41.26965 57.22267 41.82153 57.67564 42.16568 57.96037 42.50981 58.2451 43.0617 58.70566 43.40585 58.99564 43.75 59.2856 44.30186 59.75519 44.64601 60.05025 44.99016 60.34532 45.54204 60.82213 45.88617 61.12231 46.23032 61.42249 46.78221 61.90799 47.12636 62.21376 47.47049 62.51953 48.02237 63.01476 48.36652 63.32603 48.71066 63.63731 49.26254 64.14063 49.60667 64.4572 49.95082 64.77379 50.50272 65.28552 50.84686 65.60774 51.191 65.92998 51.74287 66.45148 52.08702 66.7796 52.43115 67.10776 52.98305 67.639 53.3272 67.9728 53.67133 68.30658 54.22322 68.84529 54.56735 69.18535 54.9115 69.52539 55.46338 70.07736 55.80753 70.42358 56.15166 70.76979 56.70355 71.32863 57.0477 71.6807 57.39183 72.03278 57.94371 72.60262 58.28786 72.96107 58.632 73.31953 59.18388 73.8993 59.52802 74.2642 59.87216 74.62912 60.42406 75.21967 60.7682 75.5911 61.11232 75.96252 61.66422 76.56342 62.00836 76.94124 62.35251 77.31905 62.90437 77.92934 63.24852 78.31413 63.59267 78.69894 64.14456 79.32285 64.48868 79.71465 64.83282 80.10645 65.38472 80.73943 65.72887 81.13794 66.073 81.53645 66.6249 82.18112 66.96902 82.5869 67.31317 82.99269 67.86507 83.64948 68.2092 84.06252 68.55334 84.47554 69.10522 85.14336 69.44937 85.5638 69.7935 85.98422 70.34538 86.66466 70.68953 87.09268 71.03368 87.5207 71.58556 88.21301 71.9297 88.6487 72.27385 89.0844 72.82573 89.78947 73.16986 90.23282 73.514 90.67618 74.06589 91.39285 74.41003 91.84407 74.75417 92.29529 75.30606 93.02559 75.6502 93.48488 75.99435 93.94415 76.54622 94.68678 76.89037 95.15425 77.23451 95.62175 77.78639 96.37674 78.13052 96.85417 78.47467 97.33159 79.37071 98.59523 78.28738 97.06747"/>
<path transform="matrix(.5784174,-.81573078,-.8157145,-.5784289,91.32475,19.621926)" d="M1.27522 0C-.31879 .31879-1.91284 .9564-3.8257 2.07224-1.91284 .6376-1.91284-.6376-3.8257-2.07224-1.91284-.9564-.31879-.31879 1.27522 0Z" fill="#ff0000"/>
<path transform="matrix(.5784174,-.81573078,-.8157145,-.5784289,91.32475,19.621926)" stroke-width="1.19553" stroke-linecap="butt" stroke-linejoin="round" fill="none" stroke="#ff0000" d="M1.27522 0C-.31879 .31879-1.91284 .9564-3.8257 2.07224-1.91284 .6376-1.91284-.6376-3.8257-2.07224-1.91284-.9564-.31879-.31879 1.27522 0Z"/>
</svg>
