<svg xmlns="http://www.w3.org/2000/svg" xmlns:xlink="http://www.w3.org/1999/xlink" version="1.1" width="209" height="171" viewBox="0 0 209 171">
<defs>
<path id="font_1_2" d="M.33399964 .30233766C.33999635 .32835389 .36299134 .42037965 .43299867 .42037965 .43798829 .42037965 .46199037 .42037965 .48298646 .40734864 .45498658 .402359 .43499757 .37734986 .43499757 .35334779 .43499757 .33735658 .44599916 .31835938 .47299195 .31835938 .49499513 .31835938 .5269928 .3363495 .5269928 .37635804 .5269928 .42837525 .46798707 .4423828 .43399049 .4423828 .37599183 .4423828 .34098817 .38935853 .32899476 .36634828 .3039856 .43237306 .25 .4423828 .22099304 .4423828 .116989139 .4423828 .05999756 .3133545 .05999756 .28834535 .05999756 .27833558 .069992069 .27833558 .07199097 .27833558 .07998657 .27833558 .08299255 .28033448 .084991458 .28933717 .11898804 .39535523 .18499756 .42037965 .21899414 .42037965 .23799134 .42037965 .272995 .4113617 .272995 .35334779 .272995 .32235719 .2559967 .25532533 .21899414 .11528015 .20298767 .053268434 .16799927 .011245728 .12399292 .011245728 .117996219 .011245728 .09498596 .011245728 .07398987 .024276734 .09899902 .029266358 .12098694 .05027771 .12098694 .07827759 .12098694 .105270389 .09899902 .11328125 .083999637 .11328125 .053985597 .11328125 .0289917 .08728027 .0289917 .055267335 .0289917 .009246826 .07899475-.0107421879 .12298584-.0107421879 .18899536-.0107421879 .22499085 .059280397 .22799683 .0652771 .23999024 .028274537 .27598573-.0107421879 .33599855-.0107421879 .43899537-.0107421879 .49598695 .118270877 .49598695 .14328003 .49598695 .1532898 .4869995 .1532898 .48399354 .1532898 .47499085 .1532898 .47299195 .14929199 .47099305 .14228821 .43798829 .03527832 .36999513 .011245728 .33799745 .011245728 .29899598 .011245728 .2829895 .043273927 .2829895 .07727051 .2829895 .09927368 .2889862 .121276859 .2999878 .16529846L.33399964 .30233766Z"/>
<path id="font_1_1" d="M.7599945 .69506838C.7599945 .69807437 .7579956 .7050781 .7489929 .7050781 .74598696 .7050781 .7449951 .70407107 .73399356 .69306948L.6639862 .61602786C.6549988 .6300354 .60899356 .7050781 .49798585 .7050781 .2749939 .7050781 .049987794 .48391725 .049987794 .25172425 .049987794 .08659363 .16799927-.022460938 .32099916-.022460938 .4079895-.022460938 .48399354 .017532349 .5369873 .063583377 .6299896 .14564514 .6469879 .2367096 .6469879 .23971558 .6469879 .24972534 .6369934 .24972534 .6349945 .24972534 .6289978 .24972534 .6239929 .24772644 .621994 .23971558 .61299136 .21069336 .58999636 .13963318 .5209961 .081588748 .45199586 .025543213 .3889923 .008529663 .33699037 .008529663 .24699402 .008529663 .14099121 .060577394 .14099121 .21670532 .14099121 .27374269 .1619873 .43588258 .2619934 .55296328 .32299806 .62402346 .4169922 .67407229 .5059967 .67407229 .60798647 .67407229 .6669922 .5970001 .6669922 .48091126 .6669922 .44088746 .6639862 .43988038 .6639862 .4298706 .6639862 .41986085 .6749878 .41986085 .67900088 .41986085 .69200137 .41986085 .69200137 .42185975 .69699099 .43988038L.7599945 .69506838Z"/>
<path id="font_2_2" d="M.2939911 .64004519C.2939911 .66400149 .2939911 .6660156 .2709961 .6660156 .20899964 .60227969 .12098694 .60227969 .08898926 .60227969V.57128909C.10899353 .57128909 .16799927 .57128909 .21998596 .5972748V.07902527C.21998596 .042999269 .21699524 .0309906 .1269989 .0309906H.09498596V0C.12998963 .0029907227 .21699524 .0029907227 .25698854 .0029907227 .29699708 .0029907227 .38398744 .0029907227 .4189911 0V.0309906H.3869934C.29699708 .0309906 .2939911 .041992189 .2939911 .07902527V.64004519Z"/>
<path id="font_2_1" d="M.45999146 .31976319C.45999146 .39982606 .45498658 .47988893 .41999818 .5539398 .37399293 .65000918 .2919922 .6660156 .25 .6660156 .18998719 .6660156 .116989139 .64001467 .07598877 .54693606 .04399109 .47789 .038986207 .39982606 .038986207 .31976319 .038986207 .24472046 .042999269 .15464783 .083999637 .07859802 .1269989-.0024719239 .19999695-.022460938 .24899292-.022460938 .30299378-.022460938 .3789978-.0014648438 .4229889 .09359741 .45498658 .16265869 .45999146 .2407074 .45999146 .31976319M.24899292-.00047302247C.20999146-.00047302247 .15098572 .024551392 .1329956 .12062073 .12199402 .18066406 .12199402 .2727356 .12199402 .3317871 .12199402 .39582826 .12199402 .46188355 .12998963 .5159149 .14898682 .63500979 .22399903 .64401248 .24899292 .64401248 .28199769 .64401248 .34799195 .6259918 .36698915 .52693179 .3769989 .47088624 .3769989 .39482118 .3769989 .3317871 .3769989 .25672914 .3769989 .18867493 .3659973 .12461853 .35099793 .029556275 .2939911-.00047302247 .24899292-.00047302247Z"/>
<path id="font_2_3" d="M.1269989 .07699585 .23298645 .18003845C.3889923 .31811524 .44898988 .3721466 .44898988 .47216798 .44898988 .5860901 .35899354 .6660156 .23699951 .6660156 .12399292 .6660156 .049987794 .57411196 .049987794 .48516847 .049987794 .4291687 .099990848 .4291687 .102996829 .4291687 .11999512 .4291687 .15499878 .44117738 .15499878 .48217774 .15499878 .5081787 .13699341 .5341797 .101989749 .5341797 .09399414 .5341797 .09199524 .5341797 .08898926 .5331726 .11199951 .59806826 .1659851 .63500979 .22399903 .63500979 .31498719 .63500979 .35798646 .5541382 .35798646 .47216798 .35798646 .39215089 .30799867 .31311036 .25299073 .25108338L.06098938 .036987306C.049987794 .025985718 .049987794 .023986817 .049987794 0H.42099L.44898988 .17404175H.42399598C.4189911 .14402771 .4119873 .1000061 .4019928 .084991458 .394989 .07699585 .32899476 .07699585 .30699159 .07699585H.1269989Z"/>
<path id="font_2_4" d="M.2899933 .35191346C.37199403 .37893678 .42999269 .4490509 .42999269 .52809146 .42999269 .6100464 .34199525 .6660156 .24598694 .6660156 .14498902 .6660156 .068984989 .60606387 .068984989 .53009036 .068984989 .49710084 .09098816 .47808839 .11999512 .47808839 .15098572 .47808839 .17098999 .50009158 .17098999 .5290985 .17098999 .57910159 .12399292 .57910159 .10899353 .57910159 .13999939 .62802127 .20599365 .64100649 .24198914 .64100649 .2829895 .64100649 .33799745 .6190338 .33799745 .5290985 .33799745 .51708987 .33599855 .45906068 .30999757 .4149933 .27999879 .36691285 .24598694 .36390687 .22099304 .36291505 .21299744 .36190797 .18899536 .35990907 .18199158 .35990907 .17399597 .35890199 .16699219 .35791017 .16699219 .3479004 .16699219 .33691407 .17399597 .33691407 .19099427 .33691407H.23498535C.31698609 .33691407 .35398866 .2686615 .35398866 .17037964 .35398866 .034469606 .2849884 .0055389406 .24099732 .0055389406 .19799805 .0055389406 .12298584 .022491456 .08799744 .08137512 .12298584 .07637024 .1539917 .09837341 .1539917 .1363678 .1539917 .17237854 .1269989 .19238281 .09799194 .19238281 .07398987 .19238281 .041992189 .17837525 .041992189 .1343689 .041992189 .043441774 .1349945-.022460938 .24398804-.022460938 .3659973-.022460938 .45700074 .06838989 .45700074 .17037964 .45700074 .252594 .3939972 .33088685 .2899933 .35191346Z"/>
<path id="font_2_5" d="M.2939911 .16503906V.07800293C.2939911 .041992189 .2919922 .0309906 .21798706 .0309906H.19699097V0C.23799134 .0029907227 .2899933 .0029907227 .33198548 .0029907227 .37399293 .0029907227 .4269867 .0029907227 .46798707 0V.0309906H.44699098C.37298585 .0309906 .37098695 .041992189 .37098695 .07800293V.16503906H.47099305V.19602967H.37098695V.65075686C.37098695 .67074587 .37098695 .6767578 .35499574 .6767578 .34599305 .6767578 .34298707 .6767578 .33499146 .66474917L.027999878 .19602967V.16503906H.2939911M.2999878 .19602967H.055999757L.2999878 .5688019V.19602967Z"/>
<path id="font_2_6" d="M.44898988 .20022583C.44898988 .3193512 .36698915 .41944886 .25898744 .41944886 .21099854 .41944886 .16799927 .40345765 .13198853 .36842347V.5637665C.1519928 .5577698 .18499756 .55078127 .21699524 .55078127 .33999635 .55078127 .4099884 .6417694 .4099884 .6547699 .4099884 .6607666 .40699769 .6657715 .3999939 .6657715 .39898683 .6657715 .39698792 .6657715 .3919983 .66278079 .37199403 .6537781 .32299806 .6337738 .2559967 .6337738 .21598816 .6337738 .16999817 .6407776 .12298584 .6617737 .114990238 .66477969 .11299133 .66477969 .11099243 .66477969 .100997928 .66477969 .100997928 .6567688 .100997928 .6407776V.34439088C.100997928 .32637025 .100997928 .31835938 .114990238 .31835938 .12199402 .31835938 .12399292 .32136537 .12799073 .32736207 .13899231 .3433838 .17599488 .39746095 .25698854 .39746095 .30899049 .39746095 .33399964 .35139466 .34199525 .33337403 .35798646 .29632569 .3600006 .25727845 .3600006 .20722962 .3600006 .17222595 .3600006 .11222839 .33599855 .07035828 .31199647 .031463624 .2749939 .0055389406 .22898865 .0055389406 .1559906 .0055389406 .09899902 .058380128 .08198547 .11723328 .084991458 .1162262 .08799744 .115234378 .09899902 .115234378 .13198853 .115234378 .14898682 .14022827 .14898682 .16423035 .14898682 .18823242 .13198853 .21322632 .09899902 .21322632 .084991458 .21322632 .049987794 .20622254 .049987794 .16023255 .049987794 .07434082 .11898804-.022460938 .23098755-.022460938 .34700013-.022460938 .44898988 .073349 .44898988 .20022583Z"/>
</defs>
<path transform="matrix(1.00005,0,0,-1,16.719239,157.717)" stroke-width=".3985" stroke-linecap="butt" stroke-miterlimit="10" stroke-linejoin="miter" fill="none" stroke="#cbcbcb" d="M0 0H170.08257M0 17.00824H170.08257M0 34.0165H170.08257M0 51.02477H170.08257M0 68.03302H170.08257M0 85.04128H170.08257M0 102.04953H170.08257M0 119.0578H170.08257M0 136.06009H170.08257M0 0V136.06606M17.00824 0V136.06606M34.0165 0V136.06606M51.02477 0V136.06606M68.03302 0V136.06606M85.04128 0V136.06606M102.04953 0V136.06606M119.0578 0V136.06606M136.06606 0V136.06606M153.07433 0V136.06606M170.0766 0V136.06606M170.08257 136.06606"/>
<path transform="matrix(1.00005,0,0,-1,16.719239,157.717)" stroke-width=".79701" stroke-linecap="butt" stroke-miterlimit="10" stroke-linejoin="miter" fill="none" stroke="#000000" d="M0 0H180.5537"/>
<path transform="matrix(1.00005,0,0,-1,197.28195,157.717)" d="M1.0361 0C-.25902 .25902-1.55415 .77707-3.1083 1.68365-1.55415 .51805-1.55415-.51805-3.1083-1.68365-1.55415-.77707-.25902-.25902 1.0361 0Z"/>
<path transform="matrix(1.00005,0,0,-1,197.28195,157.717)" stroke-width=".79701" stroke-linecap="butt" stroke-linejoin="round" fill="none" stroke="#000000" d="M1.0361 0C-.25902 .25902-1.55415 .77707-3.1083 1.68365-1.55415 .51805-1.55415-.51805-3.1083-1.68365-1.55415-.77707-.25902-.25902 1.0361 0Z"/>
<use data-text="x" xlink:href="#font_1_2" transform="matrix(9.963098,0,0,-9.9626,202.43552,159.862)"/>
<path transform="matrix(1.00005,0,0,-1,16.719239,157.717)" stroke-width=".79701" stroke-linecap="butt" stroke-miterlimit="10" stroke-linejoin="miter" fill="none" stroke="#000000" d="M0 0V144.83649"/>
<path transform="matrix(0,-1,-1.00005,-0,16.719239,12.880508)" d="M1.0361 0C-.25902 .25902-1.55415 .77707-3.1083 1.68365-1.55415 .51805-1.55415-.51805-3.1083-1.68365-1.55415-.77707-.25902-.25902 1.0361 0Z"/>
<path transform="matrix(0,-1,-1.00005,-0,16.719239,12.880508)" stroke-width=".79701" stroke-linecap="butt" stroke-linejoin="round" fill="none" stroke="#000000" d="M1.0361 0C-.25902 .25902-1.55415 .77707-3.1083 1.68365-1.55415 .51805-1.55415-.51805-3.1083-1.68365-1.55415-.77707-.25902-.25902 1.0361 0Z"/>
<use data-text="C" xlink:href="#font_1_1" transform="matrix(9.963098,0,0,-9.9626,12.80204,7.7269899)"/>
<path transform="matrix(1.00005,0,0,-1,16.719239,157.717)" stroke-width=".3985" stroke-linecap="butt" stroke-miterlimit="10" stroke-linejoin="miter" fill="none" stroke="#000000" d="M34.0165 1.70091V-1.70065"/>
<use data-text="1" xlink:href="#font_2_2" transform="matrix(9.963098,0,0,-9.9626,45.755689,169.358)"/>
<use data-text="0" xlink:href="#font_2_1" transform="matrix(9.963098,0,0,-9.9626,50.737234,169.358)"/>
<path transform="matrix(1.00005,0,0,-1,16.719239,157.717)" stroke-width=".3985" stroke-linecap="butt" stroke-miterlimit="10" stroke-linejoin="miter" fill="none" stroke="#000000" d="M68.03302 1.70091V-1.70065"/>
<use data-text="2" xlink:href="#font_2_3" transform="matrix(9.963098,0,0,-9.9626,79.77438,169.358)"/>
<use data-text="0" xlink:href="#font_2_1" transform="matrix(9.963098,0,0,-9.9626,84.755939,169.358)"/>
<path transform="matrix(1.00005,0,0,-1,16.719239,157.717)" stroke-width=".3985" stroke-linecap="butt" stroke-miterlimit="10" stroke-linejoin="miter" fill="none" stroke="#000000" d="M102.04953 1.70091V-1.70065"/>
<use data-text="3" xlink:href="#font_2_4" transform="matrix(9.963098,0,0,-9.9626,113.79208,169.358)"/>
<use data-text="0" xlink:href="#font_2_1" transform="matrix(9.963098,0,0,-9.9626,118.77363,169.358)"/>
<path transform="matrix(1.00005,0,0,-1,16.719239,157.717)" stroke-width=".3985" stroke-linecap="butt" stroke-miterlimit="10" stroke-linejoin="miter" fill="none" stroke="#000000" d="M136.06606 1.70091V-1.70065"/>
<use data-text="4" xlink:href="#font_2_5" transform="matrix(9.963098,0,0,-9.9626,147.81079,169.358)"/>
<use data-text="0" xlink:href="#font_2_1" transform="matrix(9.963098,0,0,-9.9626,152.79233,169.358)"/>
<path transform="matrix(1.00005,0,0,-1,16.719239,157.717)" stroke-width=".3985" stroke-linecap="butt" stroke-miterlimit="10" stroke-linejoin="miter" fill="none" stroke="#000000" d="M170.08257 1.70091V-1.70065"/>
<use data-text="5" xlink:href="#font_2_6" transform="matrix(9.963098,0,0,-9.9626,181.82848,169.358)"/>
<use data-text="0" xlink:href="#font_2_1" transform="matrix(9.963098,0,0,-9.9626,186.81003,169.358)"/>
<path transform="matrix(1.00005,0,0,-1,16.719239,157.717)" stroke-width=".3985" stroke-linecap="butt" stroke-miterlimit="10" stroke-linejoin="miter" fill="none" stroke="#000000" d="M1.70091 34.0165H-1.70065"/>
<use data-text="1" xlink:href="#font_2_2" transform="matrix(9.963098,0,0,-9.9626,1.5354767,126.910999)"/>
<use data-text="0" xlink:href="#font_2_1" transform="matrix(9.963098,0,0,-9.9626,6.517021,126.910999)"/>
<path transform="matrix(1.00005,0,0,-1,16.719239,157.717)" stroke-width=".3985" stroke-linecap="butt" stroke-miterlimit="10" stroke-linejoin="miter" fill="none" stroke="#000000" d="M1.70091 68.03302H-1.70065"/>
<use data-text="2" xlink:href="#font_2_3" transform="matrix(9.963098,0,0,-9.9626,1.5354767,92.894)"/>
<use data-text="0" xlink:href="#font_2_1" transform="matrix(9.963098,0,0,-9.9626,6.517021,92.894)"/>
<path transform="matrix(1.00005,0,0,-1,16.719239,157.717)" stroke-width=".3985" stroke-linecap="butt" stroke-miterlimit="10" stroke-linejoin="miter" fill="none" stroke="#000000" d="M1.70091 102.04953H-1.70065"/>
<use data-text="3" xlink:href="#font_2_4" transform="matrix(9.963098,0,0,-9.9626,1.5354767,58.878)"/>
<use data-text="0" xlink:href="#font_2_1" transform="matrix(9.963098,0,0,-9.9626,6.517021,58.878)"/>
<path transform="matrix(1.00005,0,0,-1,16.719239,157.717)" stroke-width=".3985" stroke-linecap="butt" stroke-miterlimit="10" stroke-linejoin="miter" fill="none" stroke="#000000" d="M1.70091 136.06606H-1.70065"/>
<use data-text="4" xlink:href="#font_2_5" transform="matrix(9.963098,0,0,-9.9626,1.5354767,24.860993)"/>
<use data-text="0" xlink:href="#font_2_1" transform="matrix(9.963098,0,0,-9.9626,6.517021,24.860993)"/>
<path transform="matrix(1.00005,0,0,-1,16.719239,157.717)" stroke-width="1.19553" stroke-linecap="butt" stroke-miterlimit="10" stroke-linejoin="miter" fill="none" stroke="#d73589" d="M9.89856 134.20752C11.52916 117.28995 11.52916 117.28995 12.22441 111.6691 12.91965 106.04826 14.0346 99.37955 14.72987 95.56062 15.42513 91.74168 16.54008 86.91132 17.23532 84.14487 17.93057 81.37843 19.04553 77.72043 19.74078 75.62207 20.43602 73.5237 21.55098 70.66754 22.24623 69.02129 22.9415 67.37506 24.05646 65.08356 24.75171 63.75708 25.44695 62.4306 26.5619 60.55302 27.25716 59.46089 27.95242 58.36874 29.06738 56.80035 29.76262 55.88565 30.45787 54.97096 31.57281 53.64574 32.26808 52.86842 32.96332 52.09111 34.07828 50.95206 34.77353 50.2833 35.46878 49.61453 36.58374 48.62993 37.27899 48.04852 37.97424 47.46709 39.0892 46.60312 39.78445 46.09274 40.4797 45.58237 41.59465 44.82137 42.28992 44.37001 42.98517 43.91862 44.10011 43.24176 44.79536 42.83958 45.49062 42.43741 46.60558 41.83191 47.30083 41.47137 47.99608 41.11082 49.11104 40.56607 49.80627 40.24095 50.50154 39.91585 51.6165 39.42276 52.31175 39.12811 53.00699 38.83347 54.12195 38.38557 54.8172 38.11725 55.51245 37.84892 56.62741 37.43938 57.32266 37.19412 58.01791 36.94887 59.13286 36.57475 59.82813 36.34964 60.52338 36.12451 61.63834 35.77902 62.33357 35.57158 63.02882 35.36412 64.14378 35.04613 64.83905 34.85449 65.53429 34.66287 66.64923 34.36807 67.3445 34.19038 68.03975 34.01268 69.15471 33.73888 69.84995 33.57375 70.5452 33.40862 71.66016 33.15395 72.35542 33.0002 73.05067 32.84645 74.16562 32.60928 74.86087 32.46558 75.55612 32.32187 76.67108 32.09903 77.36633 31.96443 78.06158 31.82983 79.17653 31.62167 79.87178 31.49547 80.56705 31.36928 81.682 31.17348 82.37724 31.0548 83.0725 30.93613 84.18745 30.75183 84.8827 30.64006 85.57796 30.5283 86.69292 30.35464 87.38817 30.24922 88.08342 30.1438 89.19836 29.97981 89.89362 29.88017 90.58887 29.78055 91.70383 29.62543 92.39908 29.53113 93.09433 29.43681 94.20929 29.28981 94.90454 29.20049 95.5998 29.11116 96.71475 28.972 97.41 28.88724 98.10524 28.80246 99.2202 28.67024 99.91547 28.58957 100.61072 28.50887 101.72566 28.38237 102.4209 28.30563 103.11617 28.22891 104.23112 28.10957 104.92638 28.03651 105.62163 27.96346 106.73657 27.84885 107.43182 27.77905 108.12709 27.70927 109.24205 27.60013 109.9373 27.53355 110.63254 27.46698 111.7475 27.36282 112.44275 27.29921 113.13802 27.23558 114.25296 27.13594 114.9482 27.07498 115.64345 27.014 116.7584 26.91823 117.45367 26.85982 118.14891 26.80144 119.26387 26.70995 119.95912 26.65404 120.65437 26.5981 121.76933 26.5104 122.46458 26.45679 123.15984 26.40317 124.27478 26.31912 124.97005 26.26758 125.6653 26.21606 126.78026 26.13495 127.4755 26.0854 128.17075 26.03587 129.2857 25.95811 129.98096 25.91049 130.67621 25.86285 131.79117 25.78789 132.48642 25.74205 133.18167 25.69621 134.29663 25.62422 134.99187 25.58011 135.68714 25.53598 136.80208 25.46672 137.49733 25.42413 138.19258 25.38153 139.30754 25.31418 140.00279 25.27309 140.69805 25.23201 141.813 25.16765 142.50826 25.128 143.2035 25.08836 144.31845 25.02565 145.01372 24.98735 145.70897 24.94904 146.82393 24.88882 147.51917 24.85188 148.21442 24.81494 149.32938 24.75684 150.02463 24.72108 150.71987 24.68533 151.83483 24.62874 152.53009 24.59416 153.22534 24.55962 154.3403 24.50542 155.03554 24.47192 155.73079 24.43845 156.84575 24.38524 157.54102 24.3528 158.23627 24.32037 159.35121 24.26947 160.04645 24.2381 160.74172 24.20674 161.85668 24.15718 162.55193 24.12677 163.24716 24.09634 164.36212 24.04836 165.05738 24.0188 165.75264 23.98923 166.8676 23.9424 167.56284 23.9137 168.25809 23.885 170.0683 23.81197 168.19692 23.88734"/>
<path transform="matrix(-.09590479,-.99533,-.9953797,.0959,26.618302,23.509491)" d="M1.27522 0C-.31879 .31879-1.91284 .9564-3.8257 2.07224-1.91284 .6376-1.91284-.6376-3.8257-2.07224-1.91284-.9564-.31879-.31879 1.27522 0Z" fill="#d73589"/>
<path transform="matrix(-.09590479,-.99533,-.9953797,.0959,26.618302,23.509491)" stroke-width="1.19553" stroke-linecap="butt" stroke-linejoin="round" fill="none" stroke="#d73589" d="M1.27522 0C-.31879 .31879-1.91284 .9564-3.8257 2.07224-1.91284 .6376-1.91284-.6376-3.8257-2.07224-1.91284-.9564-.31879-.31879 1.27522 0Z"/>
<path transform="matrix(.99919989,.04025,.04025201,-.99915,184.92455,133.82964)" d="M1.27522 0C-.31879 .31879-1.91284 .9564-3.8257 2.07224-1.91284 .6376-1.91284-.6376-3.8257-2.07224-1.91284-.9564-.31879-.31879 1.27522 0Z" fill="#d73589"/>
<path transform="matrix(.99919989,.04025,.04025201,-.99915,184.92455,133.82964)" stroke-width="1.19553" stroke-linecap="butt" stroke-linejoin="round" fill="none" stroke="#d73589" d="M1.27522 0C-.31879 .31879-1.91284 .9564-3.8257 2.07224-1.91284 .6376-1.91284-.6376-3.8257-2.07224-1.91284-.9564-.31879-.31879 1.27522 0Z"/>
<path transform="matrix(1.00005,0,0,-1,16.719239,157.717)" stroke-width="1.59404" stroke-linecap="butt" stroke-dasharray="2.98883,2.98883" stroke-miterlimit="10" stroke-linejoin="miter" fill="none" stroke="#0000ff" d="M0 17.00824H170.08257"/>
</svg>
