<svg xmlns="http://www.w3.org/2000/svg" xmlns:xlink="http://www.w3.org/1999/xlink" version="1.1" width="252" height="158" viewBox="0 0 252 158">
<defs>
<path id="font_1_2" d="M.3959961 .37998963C.37998963 .37998963 .3659973 .37998963 .35198976 .36598207 .33599855 .35098268 .33399964 .33398438 .33399964 .3269806 .33399964 .30297853 .35198976 .2919922 .37098695 .2919922 .3999939 .2919922 .4269867 .315979 .4269867 .35598756 .4269867 .40522767 .37998963 .4423828 .30899049 .4423828 .17399597 .4423828 .040985109 .2989807 .040985109 .15811157 .040985109 .06819153 .09899902-.0107421879 .20298767-.0107421879 .34599305-.0107421879 .42999269 .09516907 .42999269 .107162479 .42999269 .11315918 .42399598 .120147708 .41799928 .120147708 .41299439 .120147708 .41099549 .1181488 .40499879 .1101532 .32598878 .011245728 .21699524 .011245728 .20498657 .011245728 .14199829 .011245728 .114990238 .06021118 .114990238 .120147708 .114990238 .1611023 .1349945 .25801087 .16899109 .31999208 .19999695 .37698365 .25498963 .42037965 .30999757 .42037965 .34399415 .42037965 .38198854 .40724183 .3959961 .37998963Z"/>
<path id="font_1_1" d="M.1599884 .07795715C.1499939 .038986207 .147995 .0309906 .068984989 .0309906 .051986696 .0309906 .041992189 .0309906 .041992189 .010986328 .041992189 0 .050994874 0 .068984989 0H.42599488C.58399966 0 .70199587 .11791992 .70199587 .21585083 .70199587 .28778077 .6439972 .3457489 .5469971 .35673524 .651001 .37573243 .7559967 .44970704 .7559967 .5446625 .7559967 .6186218 .6899872 .6826172 .56999209 .6826172H.23399353C.21499634 .6826172 .20498657 .6826172 .20498657 .6626129 .20498657 .6516113 .21398926 .6516113 .23298645 .6516113 .23498535 .6516113 .2539978 .6516113 .2709961 .6496124 .2889862 .6476135 .2979889 .64660647 .2979889 .6336212 .2979889 .6296234 .29699708 .62661746 .2939911 .614624L.1599884 .07795715M.31098939 .36573792 .37298585 .6136322C.38198854 .64860537 .38398744 .6516113 .4269867 .6516113H.55599978C.6439972 .6516113 .6649933 .5926361 .6649933 .5486603 .6649933 .46069337 .57899478 .36573792 .45700074 .36573792H.31098939M.2659912 .0309906C.2519989 .0309906 .25 .0309906 .24398804 .03199768 .23399353 .032989503 .23098755 .033996583 .23098755 .04197693 .23098755 .04498291 .23098755 .04698181 .23599243 .064971927L.30499269 .34375H.49398805C.58999636 .34375 .60899356 .2698059 .60899356 .22683716 .60899356 .12791443 .519989 .0309906 .4019928 .0309906H.2659912Z"/>
</defs>
<path transform="matrix(1.00005,0,0,-1.00003,4.5636827,154.32028)" stroke-width=".3985" stroke-linecap="butt" stroke-miterlimit="10" stroke-linejoin="miter" fill="none" stroke="#00aeef" d="M0 0H226.77448M0 17.00824H226.77448M0 34.0165H226.77448M0 51.02477H226.77448M0 68.03302H226.77448M0 85.04128H226.77448M0 102.04953H226.77448M0 119.0578H226.77448M0 136.06009H226.77448M0 0V136.06606M28.3468 0V136.06606M56.69362 0V136.06606M85.04042 0V136.06606M113.38724 0V136.06606M141.73404 0V136.06606M170.08086 0V136.06606M198.42766 0V136.06606M226.76451 0V136.06606M226.77448 136.06606"/>
<path transform="matrix(1.00005,0,0,-1.00003,4.5636827,154.32028)" stroke-width=".79701" stroke-linecap="butt" stroke-miterlimit="10" stroke-linejoin="miter" fill="none" stroke="#000000" d="M0 0H236.6784"/>
<path transform="matrix(1.00005,0,0,-1.00003,241.2539,154.32028)" d="M1.0361 0C-.25902 .25902-1.55415 .77707-3.1083 1.68365-1.55415 .51805-1.55415-.51805-3.1083-1.68365-1.55415-.77707-.25902-.25902 1.0361 0Z"/>
<path transform="matrix(1.00005,0,0,-1.00003,241.2539,154.32028)" stroke-width=".79701" stroke-linecap="butt" stroke-linejoin="round" fill="none" stroke="#000000" d="M1.0361 0C-.25902 .25902-1.55415 .77707-3.1083 1.68365-1.55415 .51805-1.55415-.51805-3.1083-1.68365-1.55415-.77707-.25902-.25902 1.0361 0Z"/>
<use data-text="c" xlink:href="#font_1_2" transform="matrix(9.963098,0,0,-9.962899,246.40778,156.46535)"/>
<path transform="matrix(1.00005,0,0,-1.00003,4.5636827,154.32028)" stroke-width=".79701" stroke-linecap="butt" stroke-miterlimit="10" stroke-linejoin="miter" fill="none" stroke="#000000" d="M0 0V141.43463"/>
<path transform="matrix(0,-1.00003,-1.00005,-0,4.5636827,12.881409)" d="M1.0361 0C-.25902 .25902-1.55415 .77707-3.1083 1.68365-1.55415 .51805-1.55415-.51805-3.1083-1.68365-1.55415-.77707-.25902-.25902 1.0361 0Z"/>
<path transform="matrix(0,-1.00003,-1.00005,-0,4.5636827,12.881409)" stroke-width=".79701" stroke-linecap="butt" stroke-linejoin="round" fill="none" stroke="#000000" d="M1.0361 0C-.25902 .25902-1.55415 .77707-3.1083 1.68365-1.55415 .51805-1.55415-.51805-3.1083-1.68365-1.55415-.77707-.25902-.25902 1.0361 0Z"/>
<use data-text="B" xlink:href="#font_1_1" transform="matrix(9.963098,0,0,-9.962899,.5354843,7.7278749)"/>
<path transform="matrix(1.00005,0,0,-1.00003,4.5636827,154.32028)" stroke-width="1.19553" stroke-linecap="butt" stroke-miterlimit="10" stroke-linejoin="miter" fill="none" stroke="#ff0000" d="M0 0C0 0 2.1885-.00026 3.02905 .00023 3.8696 .00078 5.21758 .002 6.05812 .00388 6.89867 .00574 8.24663 .0097 9.08717 .01373 9.92772 .01776 11.2757 .0259 12.11624 .03293 12.95679 .04 14.30475 .05365 15.1453 .0646 15.98584 .07555 17.33382 .09615 18.17436 .11183 19.01492 .12753 20.36287 .15643 21.20343 .17776 22.04398 .19908 23.39195 .23769 24.2325 .26547 25.07304 .29327 26.42102 .34297 27.26157 .37811 28.10211 .41325 29.45007 .47546 30.29062 .51877 31.13116 .56209 32.47914 .63794 33.31969 .6903 34.16023 .7427 35.5082 .83405 36.34874 .89638 37.18929 .95871 38.53726 1.06642 39.3778 1.13954 40.21837 1.21268 41.56631 1.33868 42.40688 1.42348 43.24742 1.50829 44.5954 1.65343 45.43594 1.75075 46.27649 1.84807 47.62447 2.01425 48.46501 2.12498 49.30556 2.2357 50.65352 2.42384 51.49406 2.54878 52.33461 2.67372 53.68259 2.88547 54.52313 3.02554 55.36368 3.16559 56.71164 3.40227 57.55219 3.55833 58.39273 3.71439 59.7407 3.9774 60.58125 4.15031 61.42181 4.32323 62.76976 4.61394 63.61032 4.80458 64.45087 4.9952 65.79884 5.31508 66.63939 5.52425 67.47993 5.73341 68.8279 6.08354 69.66844 6.31216 70.50899 6.54077 71.85696 6.92305 72.69751 7.17197 73.53806 7.42088 74.88603 7.8362 75.72658 8.10626 76.56712 8.37633 77.91508 8.82628 78.75563 9.11841 79.59618 9.41055 80.94415 9.89676 81.7847 10.21179 82.62526 10.52681 83.9732 11.05026 84.81377 11.38899 85.65431 11.72772 87.00229 12.2898 87.84283 12.65315 88.68338 13.01651 90.03134 13.61902 90.87189 14.00786 91.71243 14.39671 93.06041 15.04054 93.90096 15.45575 94.7415 15.87097 96.08948 16.55801 96.93002 17.00046 97.77057 17.4429 99.11853 18.17406 99.95908 18.64455 100.79962 19.11504 102.1476 19.89198 102.98814 20.3914 103.8287 20.89084 105.17665 21.71495 106.01721 22.24417 106.85776 22.77339 108.20573 23.6458 109.04628 24.20564 109.88683 24.7655 111.23479 25.68782 112.07533 26.27927 112.91588 26.87071 114.26385 27.84451 115.1044 28.46837 115.94495 29.09221 117.29291 30.1185 118.13345 30.77554 118.974 31.43259 120.32198 32.51274 121.16252 33.20392 122.00308 33.89511 123.35104 35.03096 124.1916 35.75713 125.03215 36.4833 126.38011 37.67575 127.22066 38.43777 128.0612 39.19978 129.40918 40.45047 130.24973 41.2492 131.09027 42.04794 132.43824 43.35825 133.27878 44.19456 134.11933 45.0309 135.4673 46.40219 136.30785 47.27695 137.14839 48.15172 138.49636 49.58517 139.3369 50.49922 140.17745 51.41327 141.52542 52.91052 142.36597 53.86475 143.20653 54.81897 144.55449 56.3814 145.39505 57.37663 146.2356 58.37189 147.58356 60.00061 148.4241 61.03777 149.26465 62.07492 150.61263 63.77182 151.45317 64.85176 152.29372 65.93169 153.64168 67.69766 154.48223 68.82118 155.32277 69.94473 156.67075 71.78145 157.51129 72.94946 158.35184 74.11746 159.6998 76.02608 160.54035 77.23943 161.38089 78.45276 162.72887 80.43486 163.56941 81.69444 164.40998 82.95401 165.75792 85.01094 166.59848 86.31761 167.43903 87.6243 168.787 89.75749 169.62755 91.11209 170.4681 92.4667 171.81607 94.6773 172.65662 96.0807 173.49716 97.4841 174.84513 99.77374 175.68567 101.22684 176.52622 102.67993 177.87419 105.05 178.71474 106.55359 179.55529 108.0572 180.90325 110.50885 181.74379 112.06384 182.58434 113.61885 183.93231 116.15366 184.77286 117.76094 185.61342 119.36823 186.96137 121.98763 187.80193 123.64803 188.64247 125.30841 189.99045 128.01355 190.831 129.72794 191.67154 131.4423 193.86006 136.00403 193.04991 134.31543"/>
<path transform="matrix(.4325616,-.90157708,-.901595,-.432553,197.62323,20.000824)" d="M1.27522 0C-.31879 .31879-1.91284 .9564-3.8257 2.07224-1.91284 .6376-1.91284-.6376-3.8257-2.07224-1.91284-.9564-.31879-.31879 1.27522 0Z" fill="#ff0000"/>
<path transform="matrix(.4325616,-.90157708,-.901595,-.432553,197.62323,20.000824)" stroke-width="1.19553" stroke-linecap="butt" stroke-linejoin="round" fill="none" stroke="#ff0000" d="M1.27522 0C-.31879 .31879-1.91284 .9564-3.8257 2.07224-1.91284 .6376-1.91284-.6376-3.8257-2.07224-1.91284-.9564-.31879-.31879 1.27522 0Z"/>
</svg>
