<svg xmlns="http://www.w3.org/2000/svg" xmlns:xlink="http://www.w3.org/1999/xlink" version="1.1" width="82" height="73" viewBox="0 0 82 73">
<defs>
<path id="font_1_27" d="M.71699526 0V.0309906H.69898989C.6389923 .0309906 .625 .037979127 .6139984 .07095337L.397995 .6958008C.3929901 .7088165 .3909912 .7158203 .375 .7158203 .35899354 .7158203 .35598756 .70980837 .35099793 .6958008L.14399719 .09791565C.12599182 .04698181 .085998538 .03199768 .03199768 .0309906V0L.13398743 .0029907227 .24899292 0V.0309906C.19898987 .0309906 .17399597 .05596924 .17399597 .0819397 .17399597 .08493042 .1749878 .09492493 .17599488 .09692383L.22200012 .2277832H.46899415L.5219879 .07495117C.522995 .07095337 .5249939 .064956668 .5249939 .060958864 .5249939 .0309906 .46899415 .0309906 .44198609 .0309906V0C.47799684 .0029907227 .5479889 .0029907227 .58599856 .0029907227L.71699526 0M.45799256 .25878907H.23298645L.34498597 .58380129 .45799256 .25878907Z"/>
<path id="font_1_34" d="M.651001 .18289185C.651001 .26983644 .56900027 .34480287 .45799256 .35679627 .5549927 .3757782 .6239929 .43974305 .6239929 .51368716 .6239929 .6006317 .5319977 .6826172 .4019928 .6826172H.035995485V.6516113H.05999756C.13699341 .6516113 .13899231 .64060977 .13899231 .6046295V.07795715C.13899231 .041992189 .13699341 .0309906 .05999756 .0309906H.035995485V0H.42799378C.5609894-.0002593994 .651001 .08874512 .651001 .18273926V.18289185M.5269928 .5136719C.5269928 .44970704 .47799684 .36573792 .36698915 .36573792H.22200012V.6116333C.22200012 .64460757 .22399903 .6516113 .2709961 .6516113H.394989C.49198915 .65174868 .5269928 .56674197 .5269928 .51374819V.5136719M.5509949 .18386841C.5509949 .1129303 .49899293 .0309906 .3959961 .0309906H.2709961C.22399903 .0309906 .22200012 .037994386 .22200012 .07095337V.34375H.4099884C.5089874 .34399415 .5509949 .25099183 .5509949 .18399048V.18386841Z"/>
</defs>
<path transform="matrix(1.00006,0,0,-1.00006,3.8122025,69.58639)" stroke-width=".3985" stroke-linecap="butt" stroke-miterlimit="10" stroke-linejoin="miter" fill="none" stroke="#00aeef" d="M0 0H68.0326M0 14.17339H68.0326M0 28.3468H68.0326M0 42.5202H68.0326M0 56.68863H68.0326M0 0V56.69362M22.67752 0V56.69362M45.35506 0V56.69362M68.02461 0V56.69362M68.0326 56.69362"/>
<path transform="matrix(1.00006,0,0,-1.00006,3.8122025,69.58639)" stroke-width=".79701" stroke-linecap="butt" stroke-miterlimit="10" stroke-linejoin="miter" fill="none" stroke="#000000" d="M0 0H75.66884"/>
<path transform="matrix(1.00006,0,0,-1.00006,79.48558,69.58639)" d="M1.0361 0C-.25902 .25902-1.55415 .77707-3.1083 1.68365-1.55415 .51805-1.55415-.51805-3.1083-1.68365-1.55415-.77707-.25902-.25902 1.0361 0Z"/>
<path transform="matrix(1.00006,0,0,-1.00006,79.48558,69.58639)" stroke-width=".79701" stroke-linecap="butt" stroke-linejoin="round" fill="none" stroke="#000000" d="M1.0361 0C-.25902 .25902-1.55415 .77707-3.1083 1.68365-1.55415 .51805-1.55415-.51805-3.1083-1.68365-1.55415-.77707-.25902-.25902 1.0361 0Z"/>
<path transform="matrix(1.00006,0,0,-1.00006,3.8122025,69.58639)" stroke-width=".79701" stroke-linecap="butt" stroke-miterlimit="10" stroke-linejoin="miter" fill="none" stroke="#000000" d="M0 0V63.76312"/>
<path transform="matrix(0,-1.00006,-1.00006,-0,3.8122025,5.8194468)" d="M1.0361 0C-.25902 .25902-1.55415 .77707-3.1083 1.68365-1.55415 .51805-1.55415-.51805-3.1083-1.68365-1.55415-.77707-.25902-.25902 1.0361 0Z"/>
<path transform="matrix(0,-1.00006,-1.00006,-0,3.8122025,5.8194468)" stroke-width=".79701" stroke-linecap="butt" stroke-linejoin="round" fill="none" stroke="#000000" d="M1.0361 0C-.25902 .25902-1.55415 .77707-3.1083 1.68365-1.55415 .51805-1.55415-.51805-3.1083-1.68365-1.55415-.77707-.25902-.25902 1.0361 0Z"/>
<path transform="matrix(1.00006,0,0,-1.00006,3.8122025,69.58639)" stroke-width="1.19553" stroke-linecap="butt" stroke-miterlimit="10" stroke-linejoin="miter" fill="none" stroke="#0000ff" d="M0 0C0 0 .51175-.00018 .7083 0 .90486 .00018 1.22008 .00072 1.41664 .0015 1.61319 .00227 1.9284 .00394 2.12495 .0056 2.32152 .0073 2.63673 .01068 2.8333 .01361 3.02985 .01654 3.34505 .02225 3.54161 .02681 3.73816 .03137 4.05339 .03995 4.24994 .04648 4.44649 .05302 4.7617 .06508 4.95827 .07394 5.15483 .08282 5.47005 .09895 5.66661 .11049 5.86316 .12206 6.17836 .14261 6.37491 .15721 6.57147 .17181 6.88669 .19778 7.08325 .21582 7.27982 .23384 7.59502 .26538 7.79156 .28719 7.98813 .309 8.30334 .34709 8.49991 .37305 8.69647 .399 9.01166 .44383 9.20822 .47426 9.40477 .50468 9.72 .55707 9.91655 .59235 10.11311 .62764 10.42831 .68806 10.62488 .72859 10.82144 .76913 11.13666 .83844 11.33322 .88452 11.52977 .93062 11.84499 1.00877 12.04153 1.06079 12.2381 1.11278 12.5533 1.20102 12.74986 1.25932 12.94643 1.31763 13.26164 1.41605 13.45818 1.481 13.65474 1.54596 13.96996 1.65556 14.16652 1.72754 14.36308 1.79953 14.6783 1.92049 14.87485 1.99983 15.0714 2.07915 15.38661 2.21231 15.58316 2.29935 15.77972 2.3864 16.09494 2.53206 16.2915 2.62721 16.48805 2.72237 16.80327 2.88155 16.99983 2.98514 17.19638 3.08876 17.5116 3.2616 17.70816 3.374 17.90471 3.4864 18.21991 3.6737 18.41647 3.79529 18.61304 3.91687 18.92825 4.1192 19.1248 4.25032 19.32135 4.38144 19.63657 4.59935 19.83313 4.74039 20.0297 4.88141 20.34491 5.11552 20.54147 5.26678 20.73802 5.41805 21.05322 5.66876 21.24977 5.8306 21.44633 5.99242 21.76155 6.26028 21.95811 6.43312 22.15468 6.60597 22.46988 6.89217 22.66644 7.0763 22.86299 7.26045 23.17822 7.56454 23.37477 7.76036 23.57133 7.95619 23.88654 8.2798 24.0831 8.48769 24.27965 8.69557 24.59486 9.0384 24.79143 9.25868 24.98798 9.47896 25.30318 9.84224 25.49974 10.0753 25.6963 10.30836 26.01152 10.69226 26.20808 10.93845 26.40463 11.1846 26.71985 11.58994 26.9164 11.84958 27.11296 12.10924 27.42816 12.5363 27.62473 12.80981 27.82129 13.08331 28.1365 13.53317 28.33305 13.82088 28.5296 14.10858 28.84483 14.58115 29.04138 14.88339 29.23795 15.18565 29.55316 15.68216 29.74971 15.99934 29.94626 16.31654 30.26147 16.83711 30.45804 17.16957 30.65459 17.50206 30.9698 18.0475 31.16635 18.3956 31.36292 18.74371 31.67813 19.31444 31.8747 19.67851 32.07124 20.04259 32.38647 20.63916 32.58302 21.0196 32.77957 21.40005 33.09479 22.02336 33.29135 22.42058 33.48792 22.81781 33.80312 23.4683 33.99968 23.88257 34.19621 24.29684 34.51144 24.97473 34.708 25.4064 34.90456 25.83807 35.21977 26.54431 35.41634 26.9938 35.61287 27.44331 35.9281 28.17842 36.12465 28.64612 36.32121 29.11378 36.63641 29.87842 36.83298 30.3646 37.02954 30.85075 37.34474 31.64508 37.5413 32.1501 37.73785 32.6551 38.05309 33.48012 38.24963 34.00438 38.4462 34.52867 38.7614 35.38484 38.95796 35.92876 39.15453 36.47266 39.46973 37.36066 39.66629 37.92448 39.86284 38.48831 40.17805 39.40831 40.3746 39.99245 40.57117 40.5766 40.88638 41.52974 41.08295 42.13458 41.2795 42.73944 41.59471 43.7259 41.79126 44.35178 41.98782 44.97766 42.30304 45.99826 42.49959 46.64552 42.69615 47.29282 43.01137 48.34793 43.20792 49.01692 43.40446 49.68593 43.7197 50.77617 43.91624 51.46725 44.11281 52.15833 44.42802 53.2842 44.62457 53.99782 44.82114 54.71143 45.3329 56.61057 44.8457 54.8021"/>
<path transform="matrix(.2601356,-.9656179,-.9656179,-.2601356,48.66059,14.781025)" d="M1.27522 0C-.31879 .31879-1.91284 .9564-3.8257 2.07224-1.91284 .6376-1.91284-.6376-3.8257-2.07224-1.91284-.9564-.31879-.31879 1.27522 0Z" fill="#0000ff"/>
<path transform="matrix(.2601356,-.9656179,-.9656179,-.2601356,48.66059,14.781025)" stroke-width="1.19553" stroke-linecap="butt" stroke-linejoin="round" fill="none" stroke="#0000ff" d="M1.27522 0C-.31879 .31879-1.91284 .9564-3.8257 2.07224-1.91284 .6376-1.91284-.6376-3.8257-2.07224-1.91284-.9564-.31879-.31879 1.27522 0Z"/>
<use data-text="A" xlink:href="#font_1_27" transform="matrix(9.963197,0,0,-9.963197,45.411699,9.053761)" fill="#0000ff"/>
<path transform="matrix(1.00006,0,0,-1.00006,3.8122025,69.58639)" stroke-width="1.19553" stroke-linecap="butt" stroke-miterlimit="10" stroke-linejoin="miter" fill="none" stroke="#ff0000" d="M0 0C0 0 .72401 .00597 1.00209 .01361 1.28017 .02126 1.72612 .03978 2.0042 .05513 2.28227 .0705 2.72823 .1013 3.0063 .12434 3.28438 .14737 3.73033 .1905 4.0084 .22122 4.28648 .25195 4.73244 .30739 5.01051 .3458 5.28859 .3842 5.73454 .45197 6.01262 .49806 6.2907 .54413 6.73666 .62422 7.01474 .67798 7.29282 .73175 7.73877 .82419 8.01685 .8856 8.29492 .94704 8.74088 1.05159 9.01895 1.1207 9.29703 1.18979 9.74298 1.30685 10.02106 1.38368 10.29913 1.4605 10.74509 1.58984 11.02316 1.67433 11.30124 1.75883 11.7472 1.90054 12.02527 1.99268 12.30334 2.08484 12.7493 2.23866 13.02737 2.3385 13.30545 2.43832 13.75142 2.6047 14.0295 2.7122 14.30756 2.81972 14.75352 2.9982 15.0316 3.11339 15.30968 3.22859 15.75563 3.41956 16.0337 3.54247 16.31178 3.66537 16.75774 3.86868 17.03581 3.99924 17.31389 4.12979 17.75984 4.34521 18.03792 4.48344 18.316 4.6217 18.76195 4.84966 19.04002 4.99557 19.3181 5.1415 19.76405 5.38159 20.04213 5.53517 20.3202 5.68874 20.76617 5.94116 21.04425 6.10245 21.32231 6.26373 21.76828 6.52867 22.04636 6.69762 22.32443 6.8666 22.77039 7.14362 23.04846 7.32027 23.32654 7.4969 23.77249 7.78647 24.05057 7.9708 24.32864 8.15512 24.7746 8.45682 25.05267 8.64879 25.33075 8.84077 25.7767 9.15479 26.05478 9.35448 26.33286 9.55418 26.77881 9.88069 27.05688 10.08807 27.33496 10.29544 27.78093 10.6341 28.059 10.8491 28.33707 11.06415 28.78304 11.41515 29.06111 11.63785 29.33919 11.86057 29.78514 12.22389 30.06322 12.45427 30.3413 12.68466 30.78725 13.06027 31.06532 13.29837 31.3434 13.53647 31.78935 13.92458 32.06743 14.17036 32.3455 14.41615 32.79146 14.81639 33.06953 15.06982 33.34761 15.32326 33.79356 15.73586 34.07164 15.99698 34.34972 16.25809 34.79568 16.683 35.07376 16.9518 35.35182 17.2206 35.79779 17.65784 36.07587 17.93431 36.35394 18.21078 36.7999 18.66032 37.07797 18.9445 37.35605 19.22865 37.802 19.69052 38.08008 19.98238 38.35815 20.27422 38.80411 20.74841 39.08218 21.04794 39.36026 21.34746 39.8062 21.83395 40.08429 22.14117 40.36237 22.44838 40.80832 22.94724 41.0864 23.26208 41.36447 23.57695 41.81044 24.08794 42.08852 24.41048 42.36658 24.73302 42.81255 25.25652 43.09062 25.58678 43.3687 25.91702 43.81465 26.4528 44.09273 26.79074 44.3708 27.12866 44.81676 27.67677 45.09483 28.02238 45.37291 28.36801 45.81886 28.92847 46.09694 29.28172 46.37502 29.63501 46.82095 30.20758 47.09904 30.56853 47.37712 30.92949 47.82307 31.51456 48.10115 31.88322 48.37923 32.25189 48.8252 32.84929 49.10327 33.2256 49.38133 33.60191 49.8273 34.21147 50.10538 34.59546 50.38345 34.97946 50.8294 35.60149 51.10748 35.9932 51.38556 36.3849 51.83151 37.01927 52.10959 37.41862 52.38766 37.81798 52.83362 38.46448 53.1117 38.87152 53.38977 39.27856 53.83571 39.93759 54.11378 40.35233 54.39188 40.76704 54.83783 41.43819 55.1159 41.86058 55.39398 42.28299 55.83995 42.96664 56.11803 43.39673 56.39609 43.82683 56.84206 44.52258 57.12013 44.96036 57.39821 45.39813 57.84416 46.10643 58.12224 46.55188 58.40031 46.99733 58.84625 47.71777 59.12434 48.17088 59.40242 48.62398 59.84837 49.35674 60.12645 49.81755 60.40453 50.27837 60.85046 51.02362 61.12854 51.49211 61.40663 51.96062 61.8526 52.718 62.13068 53.19417 62.40875 53.6703 62.8547 54.44002 63.13278 54.92387 63.41084 55.40773 64.13489 56.6815 63.20941 55.05324"/>
<path transform="matrix(.4941596,-.86939218,-.86939218,-.4941596,67.025409,14.529869)" d="M1.27522 0C-.31879 .31879-1.91284 .9564-3.8257 2.07224-1.91284 .6376-1.91284-.6376-3.8257-2.07224-1.91284-.9564-.31879-.31879 1.27522 0Z" fill="#ff0000"/>
<path transform="matrix(.4941596,-.86939218,-.86939218,-.4941596,67.025409,14.529869)" stroke-width="1.19553" stroke-linecap="butt" stroke-linejoin="round" fill="none" stroke="#ff0000" d="M1.27522 0C-.31879 .31879-1.91284 .9564-3.8257 2.07224-1.91284 .6376-1.91284-.6376-3.8257-2.07224-1.91284-.9564-.31879-.31879 1.27522 0Z"/>
<use data-text="B" xlink:href="#font_1_34" transform="matrix(9.963197,0,0,-9.963197,64.42384,8.982754)" fill="#ff0000"/>
</svg>
