<svg xmlns="http://www.w3.org/2000/svg" xmlns:xlink="http://www.w3.org/1999/xlink" version="1.1" width="175" height="165" viewBox="0 0 175 165">
<defs>
<path id="font_1_3" d="M.33399964 .30233766C.33999635 .32835389 .36299134 .42037965 .43299867 .42037965 .43798829 .42037965 .46199037 .42037965 .48298646 .40734864 .45498658 .402359 .43499757 .37734986 .43499757 .35334779 .43499757 .33735658 .44599916 .31835938 .47299195 .31835938 .49499513 .31835938 .5269928 .3363495 .5269928 .37635804 .5269928 .42837525 .46798707 .4423828 .43399049 .4423828 .37599183 .4423828 .34098817 .38935853 .32899476 .36634828 .3039856 .43237306 .25 .4423828 .22099304 .4423828 .116989139 .4423828 .05999756 .3133545 .05999756 .28834535 .05999756 .27833558 .069992069 .27833558 .07199097 .27833558 .07998657 .27833558 .08299255 .28033448 .084991458 .28933717 .11898804 .39535523 .18499756 .42037965 .21899414 .42037965 .23799134 .42037965 .272995 .4113617 .272995 .35334779 .272995 .32235719 .2559967 .25532533 .21899414 .11528015 .20298767 .053268434 .16799927 .011245728 .12399292 .011245728 .117996219 .011245728 .09498596 .011245728 .07398987 .024276734 .09899902 .029266358 .12098694 .05027771 .12098694 .07827759 .12098694 .105270389 .09899902 .11328125 .083999637 .11328125 .053985597 .11328125 .0289917 .08728027 .0289917 .055267335 .0289917 .009246826 .07899475-.0107421879 .12298584-.0107421879 .18899536-.0107421879 .22499085 .059280397 .22799683 .0652771 .23999024 .028274537 .27598573-.0107421879 .33599855-.0107421879 .43899537-.0107421879 .49598695 .118270877 .49598695 .14328003 .49598695 .1532898 .4869995 .1532898 .48399354 .1532898 .47499085 .1532898 .47299195 .14929199 .47099305 .14228821 .43798829 .03527832 .36999513 .011245728 .33799745 .011245728 .29899598 .011245728 .2829895 .043273927 .2829895 .07727051 .2829895 .09927368 .2889862 .121276859 .2999878 .16529846L.33399964 .30233766Z"/>
<path id="font_1_4" d="M.48599244 .38136292C.48999024 .39537049 .48999024 .39736939 .48999024 .40437318 .48999024 .42237855 .47599793 .43138124 .46099855 .43138124 .45098878 .43138124 .43499757 .42536927 .42599488 .41036988 .42399598 .405365 .41600038 .37435914 .4119873 .35635377 .40499879 .33035279 .397995 .30334474 .3919983 .27633668L.34700013 .09628296C.34298707 .08126831 .2999878 .011245728 .23399353 .011245728 .18299866 .011245728 .17199707 .055267335 .17199707 .0922699 .17199707 .1382904 .18899536 .20030213 .22299195 .28833009 .23899842 .3293457 .24299622 .3403473 .24299622 .36035157 .24299622 .405365 .21099854 .4423828 .16099549 .4423828 .06599426 .4423828 .0289917 .29733277 .0289917 .28833009 .0289917 .27833558 .038986207 .27833558 .040985109 .27833558 .050994874 .27833558 .051986696 .28033448 .056991579 .29634095 .083999637 .3903656 .12399292 .42037965 .1579895 .42037965 .1659851 .42037965 .18299866 .42037965 .18299866 .3883667 .18299866 .36335755 .17298889 .3373413 .1659851 .31834413 .12599182 .21231079 .10798645 .1552887 .10798645 .10827637 .10798645 .019256592 .17098999-.0107421879 .22999573-.0107421879 .2689972-.0107421879 .30299378 .0062561037 .33099366 .03425598 .31799317-.017745972 .30599977-.06674194 .2659912-.11973572 .23999024-.15385437 .20199585-.18309021 .1559906-.18309021 .14199829-.18309021 .09700012-.18005371 .07998657-.14074707 .09599304-.14074707 .10899353-.14074707 .12298584-.1287384 .1329956-.11973572 .14299011-.10673523 .14299011-.08773804 .14299011-.056747438 .115997318-.052734376 .10598755-.052734376 .08299255-.052734376 .049987794-.068740848 .049987794-.11773682 .049987794-.16796875 .09399414-.20507813 .1559906-.20507813 .25898744-.20507813 .3619995-.11373901 .3899994-.00074768069L.48599244 .38136292Z"/>
<path id="font_2_6" d="M.44898988 .20022583C.44898988 .3193512 .36698915 .41944886 .25898744 .41944886 .21099854 .41944886 .16799927 .40345765 .13198853 .36842347V.5637665C.1519928 .5577698 .18499756 .55078127 .21699524 .55078127 .33999635 .55078127 .4099884 .6417694 .4099884 .6547699 .4099884 .6607666 .40699769 .6657715 .3999939 .6657715 .39898683 .6657715 .39698792 .6657715 .3919983 .66278079 .37199403 .6537781 .32299806 .6337738 .2559967 .6337738 .21598816 .6337738 .16999817 .6407776 .12298584 .6617737 .114990238 .66477969 .11299133 .66477969 .11099243 .66477969 .100997928 .66477969 .100997928 .6567688 .100997928 .6407776V.34439088C.100997928 .32637025 .100997928 .31835938 .114990238 .31835938 .12199402 .31835938 .12399292 .32136537 .12799073 .32736207 .13899231 .3433838 .17599488 .39746095 .25698854 .39746095 .30899049 .39746095 .33399964 .35139466 .34199525 .33337403 .35798646 .29632569 .3600006 .25727845 .3600006 .20722962 .3600006 .17222595 .3600006 .11222839 .33599855 .07035828 .31199647 .031463624 .2749939 .0055389406 .22898865 .0055389406 .1559906 .0055389406 .09899902 .058380128 .08198547 .11723328 .084991458 .1162262 .08799744 .115234378 .09899902 .115234378 .13198853 .115234378 .14898682 .14022827 .14898682 .16423035 .14898682 .18823242 .13198853 .21322632 .09899902 .21322632 .084991458 .21322632 .049987794 .20622254 .049987794 .16023255 .049987794 .07434082 .11898804-.022460938 .23098755-.022460938 .34700013-.022460938 .44898988 .073349 .44898988 .20022583Z"/>
<path id="font_2_3" d="M.45999146 .31976319C.45999146 .39982606 .45498658 .47988893 .41999818 .5539398 .37399293 .65000918 .2919922 .6660156 .25 .6660156 .18998719 .6660156 .116989139 .64001467 .07598877 .54693606 .04399109 .47789 .038986207 .39982606 .038986207 .31976319 .038986207 .24472046 .042999269 .15464783 .083999637 .07859802 .1269989-.0024719239 .19999695-.022460938 .24899292-.022460938 .30299378-.022460938 .3789978-.0014648438 .4229889 .09359741 .45498658 .16265869 .45999146 .2407074 .45999146 .31976319M.24899292-.00047302247C.20999146-.00047302247 .15098572 .024551392 .1329956 .12062073 .12199402 .18066406 .12199402 .2727356 .12199402 .3317871 .12199402 .39582826 .12199402 .46188355 .12998963 .5159149 .14898682 .63500979 .22399903 .64401248 .24899292 .64401248 .28199769 .64401248 .34799195 .6259918 .36698915 .52693179 .3769989 .47088624 .3769989 .39482118 .3769989 .3317871 .3769989 .25672914 .3769989 .18867493 .3659973 .12461853 .35099793 .029556275 .2939911-.00047302247 .24899292-.00047302247Z"/>
<path id="font_2_4" d="M.2939911 .64004519C.2939911 .66400149 .2939911 .6660156 .2709961 .6660156 .20899964 .60227969 .12098694 .60227969 .08898926 .60227969V.57128909C.10899353 .57128909 .16799927 .57128909 .21998596 .5972748V.07902527C.21998596 .042999269 .21699524 .0309906 .1269989 .0309906H.09498596V0C.12998963 .0029907227 .21699524 .0029907227 .25698854 .0029907227 .29699708 .0029907227 .38398744 .0029907227 .4189911 0V.0309906H.3869934C.29699708 .0309906 .2939911 .041992189 .2939911 .07902527V.64004519Z"/>
<path id="font_1_2" d="M.47099305 .3773346C.47200013 .3833313 .47399903 .38833619 .47399903 .39535523 .47399903 .41236878 .46199037 .42237855 .44499208 .42237855 .43499757 .42237855 .4079895 .41537477 .4039917 .3793335 .38598634 .41636659 .35099793 .4423828 .31098939 .4423828 .19699097 .4423828 .07299805 .30226136 .07299805 .15812683 .07299805 .059020997 .13398743 0 .20599365 0 .2649994 0 .31199647 .04701233 .32199098 .058029176L.32299806 .057022096C.3019867-.031982423 .2899933-.07295227 .2899933-.07495117 .28599549-.08395386 .2519989-.18309021 .1459961-.18309021 .1269989-.18309021 .09399414-.18206787 .06599426-.17297364 .09599304-.16394043 .10699463-.13793946 .10699463-.12094116 .10699463-.10494995 .09599304-.0859375 .068984989-.0859375 .04699707-.0859375 .01499939-.10394287 .01499939-.14395142 .01499939-.18508911 .051986696-.20507813 .147995-.20507813 .272995-.20507813 .34498597-.12693787 .3600006-.06695557L.47099305 .3773346M.34098817 .12809754C.33499146 .10206604 .31199647 .077041629 .2899933 .058029176 .2689972 .040008546 .23799134 .021987915 .20899964 .021987915 .15899658 .021987915 .14399719 .074035648 .14399719 .11407471 .14399719 .16212464 .17298889 .28024293 .19999695 .33128358 .22698975 .38034059 .269989 .42037965 .31199647 .42037965 .37799073 .42037965 .3919983 .33929444 .3919983 .33428956 .3919983 .32928468 .3899994 .3232727 .3889923 .3192749L.34098817 .12809754Z"/>
<path id="font_2_1" d="M.33099366-.2400055C.33099366-.23701477 .33099366-.23500061 .31399537-.21800232 .18899536-.0920105 .15699768 .09700012 .15699768 .25 .15699768 .42399598 .19499207 .59799197 .31799317 .72299197 .33099366 .73498538 .33099366 .7369995 .33099366 .73999026 .33099366 .746994 .32699586 .75 .32099916 .75 .31098939 .75 .22099304 .6819916 .1619873 .5549927 .11099243 .44499208 .09899902 .33399964 .09899902 .25 .09899902 .17199707 .10998535 .050994874 .16499329-.06201172 .22499085-.18501282 .31098939-.25 .32099916-.25 .32699586-.25 .33099366-.24700928 .33099366-.2400055Z"/>
<path id="font_2_2" d="M.2889862 .25C.2889862 .32798768 .27799989 .44898988 .22299195 .56199648 .16299439 .68499758 .07699585 .75 .066986087 .75 .06098938 .75 .056991579 .74598696 .056991579 .73999026 .056991579 .7369995 .056991579 .73498538 .07598877 .71699526 .17399597 .6179962 .23098755 .45899964 .23098755 .25 .23098755 .07899475 .19400025-.09700012 .069992069-.2230072 .056991579-.23500061 .056991579-.23701477 .056991579-.2400055 .056991579-.2460022 .06098938-.25 .066986087-.25 .07699585-.25 .16699219-.18200684 .22599793-.055007936 .2769928 .054992677 .2889862 .16600037 .2889862 .25Z"/>
<path id="font_2_7" d="M.68699648 .32714845C.70199587 .32714845 .72099307 .32714845 .72099307 .34713746 .72099307 .36714173 .70199587 .36714173 .6879883 .36714173H.08898926C.07499695 .36714173 .055999757 .36714173 .055999757 .34713746 .055999757 .32714845 .07499695 .32714845 .08999634 .32714845H.68699648M.6879883 .13284302C.70199587 .13284302 .72099307 .13284302 .72099307 .15284729 .72099307 .17285156 .70199587 .17285156 .68699648 .17285156H.08999634C.07499695 .17285156 .055999757 .17285156 .055999757 .15284729 .055999757 .13284302 .07499695 .13284302 .08898926 .13284302H.6879883Z"/>
<path id="font_2_5" d="M.2899933 .35191346C.37199403 .37893678 .42999269 .4490509 .42999269 .52809146 .42999269 .6100464 .34199525 .6660156 .24598694 .6660156 .14498902 .6660156 .068984989 .60606387 .068984989 .53009036 .068984989 .49710084 .09098816 .47808839 .11999512 .47808839 .15098572 .47808839 .17098999 .50009158 .17098999 .5290985 .17098999 .57910159 .12399292 .57910159 .10899353 .57910159 .13999939 .62802127 .20599365 .64100649 .24198914 .64100649 .2829895 .64100649 .33799745 .6190338 .33799745 .5290985 .33799745 .51708987 .33599855 .45906068 .30999757 .4149933 .27999879 .36691285 .24598694 .36390687 .22099304 .36291505 .21299744 .36190797 .18899536 .35990907 .18199158 .35990907 .17399597 .35890199 .16699219 .35791017 .16699219 .3479004 .16699219 .33691407 .17399597 .33691407 .19099427 .33691407H.23498535C.31698609 .33691407 .35398866 .2686615 .35398866 .17037964 .35398866 .034469606 .2849884 .0055389406 .24099732 .0055389406 .19799805 .0055389406 .12298584 .022491456 .08799744 .08137512 .12298584 .07637024 .1539917 .09837341 .1539917 .1363678 .1539917 .17237854 .1269989 .19238281 .09799194 .19238281 .07398987 .19238281 .041992189 .17837525 .041992189 .1343689 .041992189 .043441774 .1349945-.022460938 .24398804-.022460938 .3659973-.022460938 .45700074 .06838989 .45700074 .17037964 .45700074 .252594 .3939972 .33088685 .2899933 .35191346Z"/>
<path id="font_3_1" d="M.24899292 .10601807C.23899842 .072021488 .20599365 .018234253 .15499878 .018234253 .1519928 .018234253 .12199402 .018234253 .100997928 .03215027 .14199829 .04508972 .14498902 .08100891 .14498902 .087020877 .14498902 .10900879 .12799073 .12402344 .10499573 .12402344 .07699585 .12402344 .04798889 .10002136 .04798889 .0630188 .04798889 .01322937 .10398865-.009765625 .15299988-.009765625 .19898987-.009765625 .23999024 .019226075 .2649994 .061019899 .2889862 .008224487 .34399415-.009765625 .38398744-.009765625 .49899293-.009765625 .55999758 .11502075 .55999758 .14305115 .55999758 .15608216 .5469971 .15608216 .5439911 .15608216 .5299988 .15608216 .5289917 .15107727 .5249939 .13905335 .5039978 .07002258 .44400025 .018234253 .3880005 .018234253 .34799195 .018234253 .32699586 .04508972 .32699586 .08302307 .32699586 .10900879 .35099793 .20018006 .3789978 .31140138 .39898683 .38841249 .44400025 .4133911 .47698976 .4133911 .47898866 .4133911 .5099945 .4133911 .5309906 .39941407 .49899293 .39041139 .4869995 .3624115 .4869995 .34440614 .4869995 .32240296 .5039978 .30740357 .5269928 .30740357 .5499878 .30740357 .58299258 .32640077 .58299258 .3684082 .58299258 .4243927 .5189972 .44140626 .47898866 .44140626 .42900086 .44140626 .3889923 .4084015 .36698915 .3704071 .34899903 .4113922 .30299378 .44140626 .24699402 .44140626 .1349945 .44140626 .070999149 .31840516 .070999149 .2883606 .070999149 .27534486 .084991458 .27534486 .08799744 .27534486 .100997928 .27534486 .101989749 .27934266 .10699463 .29237367 .13198853 .3704071 .19499207 .4133911 .24398804 .4133911 .2769928 .4133911 .3039856 .395401 .3039856 .3474121 .3039856 .32740785 .2919922 .27734376 .2829895 .24327088L.24899292 .10601807Z"/>
<path id="font_1_1" d="M.36698915 .3996582H.45298768C.47299195 .3996582 .48298646 .3996582 .48298646 .41966249 .48298646 .43066407 .47299195 .43066407 .45599366 .43066407H.37298585L.3939972 .5449524C.397995 .5660095 .4119873 .6370239 .41799928 .6490326 .4269867 .66804507 .44400025 .68307498 .46499635 .68307498 .46899415 .68307498 .49499513 .68307498 .5139923 .66503909 .46998597 .661026 .45999146 .6260376 .45999146 .6110382 .45999146 .58802798 .47799684 .57603457 .49699403 .57603457 .522995 .57603457 .5519867 .5980377 .5519867 .6360321 .5519867 .6820679 .5059967 .7050781 .46499635 .7050781 .43099977 .7050781 .36799623 .68707278 .33799745 .58802798 .33198548 .56700137 .32899476 .5569763 .30499269 .43066407H.23599243C.21699524 .43066407 .20599365 .43066407 .20599365 .4116516 .20599365 .3996582 .21499634 .3996582 .23399353 .3996582H.2999878L.22499085 .0048828127C.20698548-.09207153 .18998719-.18309021 .13798523-.18309021 .13398743-.18309021 .10899353-.18309021 .08999634-.16506958 .13598633-.1620636 .14498902-.12606812 .14498902-.111068729 .14498902-.08807373 .1269989-.07606506 .10798645-.07606506 .08198547-.07606506 .052993776-.09806824 .052993776-.13606262 .052993776-.18109131 .09700012-.20507813 .13798523-.20507813 .19299317-.20507813 .23298645-.14607239 .25099183-.108062747 .2829895-.04508972 .30599977 .07583618 .30699159 .082839969L.36698915 .3996582Z"/>
<path id="font_4_1" d="M.272995 .33428956C.35099793 .33428956 .40699769 .2803192 .40699769 .1733551 .40699769 .04940796 .33499146 .012466431 .2769928 .012466431 .23699951 .012466431 .14898682 .0234375 .10699463 .082351688 .1539917 .084350589 .16499329 .11735535 .16499329 .13835144 .16499329 .17034912 .14099121 .19335938 .10998535 .19335938 .08198547 .19335938 .053985597 .17634583 .053985597 .13534546 .053985597 .041412355 .1579895-.01953125 .2789917-.01953125 .41799928-.01953125 .5139923 .07336426 .5139923 .1733551 .5139923 .2513275 .44999696 .32929994 .33999635 .35229493 .44499208 .39024354 .48298646 .4650879 .48298646 .5260773 .48298646 .60505679 .3919983 .6640625 .2809906 .6640625 .16999817 .6640625 .084991458 .61006167 .084991458 .5300751 .084991458 .49606324 .10699463 .47706605 .13699341 .47706605 .16799927 .47706605 .18798828 .5000763 .18798828 .5280762 .18798828 .5570679 .16799927 .57806399 .13699341 .5800781 .17199707 .62405398 .24099732 .63505557 .27799989 .63505557 .32299806 .63505557 .38598634 .6130676 .38598634 .5260773 .38598634 .48406983 .37199403 .43814088 .34599305 .4072113 .31298829 .36927796 .2849884 .3672943 .23498535 .36428834 .20999146 .3623047 .20799256 .3623047 .20298767 .3612976 .20098877 .3612976 .19299317 .3592987 .19299317 .34829713 .19299317 .33428956 .20199585 .33428956 .21899414 .33428956H.272995Z"/>
</defs>
<path transform="matrix(1.00003,0,0,-1.00008,25.577347,150.91605)" stroke-width=".3985" stroke-linecap="butt" stroke-miterlimit="10" stroke-linejoin="miter" fill="none" stroke="#00aeef" d="M0 0H127.55977M0 12.75595H127.55977M0 25.51193H127.55977M0 38.26791H127.55977M0 51.0239H127.55977M0 63.77988H127.55977M0 76.53586H127.55977M0 89.29184H127.55977M0 102.0478H127.55977M0 114.80379H127.55977M0 127.55528H127.55977M0 0V127.55977M12.75595 0V127.55977M25.51193 0V127.55977M38.26791 0V127.55977M51.0239 0V127.55977M63.77988 0V127.55977M76.53586 0V127.55977M89.29184 0V127.55977M102.0478 0V127.55977M114.80379 0V127.55977M127.55528 0V127.55977M127.55977 127.55977"/>
<path transform="matrix(1.00003,0,0,-1.00008,25.577347,150.91605)" stroke-width=".79701" stroke-linecap="butt" stroke-miterlimit="10" stroke-linejoin="miter" fill="none" stroke="#000000" d="M0 0H137.60546"/>
<path transform="matrix(1.00003,0,0,-1.00008,163.18694,150.91605)" d="M1.0361 0C-.25902 .25902-1.55415 .77707-3.1083 1.68365-1.55415 .51805-1.55415-.51805-3.1083-1.68365-1.55415-.77707-.25902-.25902 1.0361 0Z"/>
<path transform="matrix(1.00003,0,0,-1.00008,163.18694,150.91605)" stroke-width=".79701" stroke-linecap="butt" stroke-linejoin="round" fill="none" stroke="#000000" d="M1.0361 0C-.25902 .25902-1.55415 .77707-3.1083 1.68365-1.55415 .51805-1.55415-.51805-3.1083-1.68365-1.55415-.77707-.25902-.25902 1.0361 0Z"/>
<use data-text="x" xlink:href="#font_1_3" transform="matrix(9.962899,0,0,-9.963397,168.34064,153.06122)"/>
<path transform="matrix(1.00003,0,0,-1.00008,25.577347,150.91605)" stroke-width=".79701" stroke-linecap="butt" stroke-miterlimit="10" stroke-linejoin="miter" fill="none" stroke="#000000" d="M0 0V137.60546"/>
<path transform="matrix(0,-1.00008,-1.00003,-0,25.577347,13.299591)" d="M1.0361 0C-.25902 .25902-1.55415 .77707-3.1083 1.68365-1.55415 .51805-1.55415-.51805-3.1083-1.68365-1.55415-.77707-.25902-.25902 1.0361 0Z"/>
<path transform="matrix(0,-1.00008,-1.00003,-0,25.577347,13.299591)" stroke-width=".79701" stroke-linecap="butt" stroke-linejoin="round" fill="none" stroke="#000000" d="M1.0361 0C-.25902 .25902-1.55415 .77707-3.1083 1.68365-1.55415 .51805-1.55415-.51805-3.1083-1.68365-1.55415-.77707-.25902-.25902 1.0361 0Z"/>
<use data-text="y" xlink:href="#font_1_4" transform="matrix(9.962899,0,0,-9.963397,22.956269,6.2084658)"/>
<path transform="matrix(1.00003,0,0,-1.00008,25.577347,150.91605)" stroke-width=".3985" stroke-linecap="butt" stroke-miterlimit="10" stroke-linejoin="miter" fill="none" stroke="#000000" d="M63.77988 1.9133V-1.9135"/>
<use data-text="5" xlink:href="#font_2_6" transform="matrix(9.962899,0,0,-9.963397,86.868198,162.771)"/>
<path transform="matrix(1.00003,0,0,-1.00008,25.577347,150.91605)" stroke-width=".3985" stroke-linecap="butt" stroke-miterlimit="10" stroke-linejoin="miter" fill="none" stroke="#000000" d="M1.9133 63.77988H-1.9135"/>
<use data-text="5" xlink:href="#font_2_6" transform="matrix(9.962899,0,0,-9.963397,5.1987307,90.3412)"/>
<use data-text="0" xlink:href="#font_2_3" transform="matrix(9.962899,0,0,-9.963397,10.180183,90.3412)"/>
<use data-text="0" xlink:href="#font_2_3" transform="matrix(9.962899,0,0,-9.963397,15.161636,90.3412)"/>
<path transform="matrix(1.00003,0,0,-1.00008,25.577347,150.91605)" stroke-width=".3985" stroke-linecap="butt" stroke-miterlimit="10" stroke-linejoin="miter" fill="none" stroke="#000000" d="M127.55977 1.9133V-1.9135"/>
<use data-text="1" xlink:href="#font_2_4" transform="matrix(9.962899,0,0,-9.963397,148.15903,162.771)"/>
<use data-text="0" xlink:href="#font_2_3" transform="matrix(9.962899,0,0,-9.963397,153.14049,162.771)"/>
<path transform="matrix(1.00003,0,0,-1.00008,25.577347,150.91605)" stroke-width=".3985" stroke-linecap="butt" stroke-miterlimit="10" stroke-linejoin="miter" fill="none" stroke="#000000" d="M1.9133 127.55977H-1.9135"/>
<use data-text="1" xlink:href="#font_2_4" transform="matrix(9.962899,0,0,-9.963397,.21759033,26.556099)"/>
<use data-text="0" xlink:href="#font_2_3" transform="matrix(9.962899,0,0,-9.963397,5.1990435,26.556099)"/>
<use data-text="0" xlink:href="#font_2_3" transform="matrix(9.962899,0,0,-9.963397,10.180496,26.556099)"/>
<use data-text="0" xlink:href="#font_2_3" transform="matrix(9.962899,0,0,-9.963397,15.161942,26.556099)"/>
<path transform="matrix(1.00003,0,0,-1.00008,25.577347,150.91605)" stroke-width=".79701" stroke-linecap="butt" stroke-miterlimit="10" stroke-linejoin="miter" fill="none" stroke="#0000ff" d="M1.43443 .14381C.90535 .13782 .90535 .13782 1.25308 .14207 1.6008 .14633 2.15845 .1535 2.50618 .15823 2.85391 .16295 3.41154 .17085 3.75928 .17612 4.10701 .18141 4.66464 .19046 5.01237 .19637 5.3601 .20229 5.91774 .2122 6.26547 .21875 6.61319 .22531 7.17084 .23639 7.51857 .24367 7.86629 .25096 8.42393 .26318 8.77167 .27132 9.11938 .27943 9.67703 .2932 10.02477 .30226 10.37248 .31133 10.93013 .3266 11.27785 .33672 11.62558 .34685 12.18323 .36398 12.53096 .37526 12.87868 .3865 13.43633 .40535 13.78406 .41788 14.13177 .4304 14.68942 .45158 15.03716 .46555 15.38489 .47954 15.94252 .50311 16.29025 .51869 16.63797 .53429 17.19562 .56053 17.54335 .57787 17.89107 .59521 18.44872 .62436 18.79645 .64366 19.14417 .66296 19.70181 .69551 20.04955 .71704 20.39726 .73856 20.9549 .77481 21.30263 .7988 21.65036 .82277 22.208 .86317 22.55573 .88988 22.90346 .91658 23.4611 .96155 23.80882 .99129 24.15656 1.02101 24.7142 1.07104 25.06194 1.10417 25.40965 1.13731 25.9673 1.19319 26.31503 1.2301 26.66275 1.26703 27.2204 1.32915 27.56813 1.37025 27.91585 1.41136 28.4735 1.48056 28.82123 1.52637 29.16895 1.57214 29.7266 1.64935 30.07433 1.70036 30.42204 1.75139 30.97969 1.83719 31.32742 1.89404 31.67514 1.95088 32.23277 2.04675 32.5805 2.11009 32.92824 2.1734 33.48587 2.27995 33.8336 2.35046 34.18134 2.42097 34.73898 2.53972 35.0867 2.61829 35.43443 2.69685 35.99208 2.82916 36.3398 2.91667 36.68753 3.0042 37.24518 3.15164 37.59291 3.24913 37.94061 3.3466 38.49828 3.51071 38.84601 3.61932 39.19371 3.72794 39.75137 3.91098 40.0991 4.03197 40.44682 4.15294 41.00447 4.35657 41.3522 4.49133 41.69992 4.62608 42.25755 4.85307 42.60529 5.00322 42.95302 5.15337 43.51065 5.40627 43.85838 5.57352 44.20612 5.74077 44.76375 6.02235 45.11148 6.20863 45.45921 6.39491 46.01685 6.70863 46.36458 6.91615 46.71231 7.12367 47.26996 7.47308 47.61768 7.70425 47.9654 7.93542 48.52306 8.32472 48.87077 8.58228 49.21849 8.83983 49.77615 9.27365 50.12389 9.56055 50.47159 9.84743 51.02925 10.33041 51.37698 10.64995 51.7247 10.96948 52.28235 11.50754 52.63008 11.86354 52.9778 12.21953 53.53543 12.81915 53.88316 13.2157 54.2309 13.61226 54.78853 14.2799 55.13626 14.72163 55.484 15.16338 56.04163 15.90733 56.38936 16.39943 56.73709 16.89154 57.29472 17.72023 57.64246 18.26837 57.99019 18.81654 58.54782 19.73965 58.89555 20.35025 59.24327 20.96086 59.80093 21.98901 60.14865 22.66922 60.49637 23.34941 61.05403 24.4949 61.40175 25.25267 61.74947 26.01042 62.30713 27.28659 62.65486 28.13063 63.00256 28.97467 63.56021 30.3957 63.90794 31.33598 64.25568 32.27625 64.81331 33.85999 65.16104 34.90744 65.50877 35.95491 66.0664 37.71861 66.41414 38.88531 66.76187 40.05203 67.3195 42.01654 67.66724 43.31631 68.01497 44.61607 68.5726 46.80525 68.92033 48.25319 69.26805 49.70111 69.8257 52.13904 70.17343 53.75198 70.52115 55.36491 71.0788 58.08145 71.42653 59.87811 71.77425 61.67476 72.33191 64.6997 72.67963 66.70105 73.02734 68.70236 73.585 72.0727 73.93272 74.30234 74.28044 76.53198 74.83809 80.28719 75.18582 82.77078 75.53354 85.25436 76.09119 89.43579 76.43892 92.20229 76.78665 94.9688 77.34428 99.62773 77.69202 102.70978 78.03975 105.79181 78.59738 110.98218 78.94511 114.41548 79.29285 117.84877 80.19821 127.45465 80.06364 126.02644"/>
<path transform="matrix(-.99993,.011400912,.011400343,.99998,27.01184,150.7722)" d="M1.0361 0C-.25902 .25902-1.55415 .77707-3.1083 1.68365-1.55415 .51805-1.55415-.51805-3.1083-1.68365-1.55415-.77707-.25902-.25902 1.0361 0Z" fill="#0000ff"/>
<path transform="matrix(-.99993,.011400912,.011400343,.99998,27.01184,150.7722)" stroke-width=".79701" stroke-linecap="butt" stroke-linejoin="round" fill="none" stroke="#0000ff" d="M1.0361 0C-.25902 .25902-1.55415 .77707-3.1083 1.68365-1.55415 .51805-1.55415-.51805-3.1083-1.68365-1.55415-.77707-.25902-.25902 1.0361 0Z"/>
<path transform="matrix(.093812819,-.99561968,-.99556997,-.0938175,105.64338,24.879525)" d="M1.0361 0C-.25902 .25902-1.55415 .77707-3.1083 1.68365-1.55415 .51805-1.55415-.51805-3.1083-1.68365-1.55415-.77707-.25902-.25902 1.0361 0Z" fill="#0000ff"/>
<path transform="matrix(.093812819,-.99561968,-.99556997,-.0938175,105.64338,24.879525)" stroke-width=".79701" stroke-linecap="butt" stroke-linejoin="round" fill="none" stroke="#0000ff" d="M1.0361 0C-.25902 .25902-1.55415 .77707-3.1083 1.68365-1.55415 .51805-1.55415-.51805-3.1083-1.68365-1.55415-.77707-.25902-.25902 1.0361 0Z"/>
<path transform="matrix(1.00003,0,0,-1.00008,25.577347,150.91605)" stroke-width=".79701" stroke-linecap="butt" stroke-miterlimit="10" stroke-linejoin="miter" fill="none" stroke="#ff0000" d="M1.4346 0C1.44003-.00012 1.44003-.00012 1.9931 .00037 2.54619 .0009 3.43315 .00212 3.98622 .00389 4.5393 .00563 5.42627 .00925 5.97934 .01302 6.53244 .0168 7.41937 .0245 7.97247 .03113 8.52554 .03773 9.4125 .05045 9.96559 .06071 10.51866 .07097 11.40562 .09036 11.95871 .10509 12.5118 .1198 13.39874 .14682 13.95184 .1668 14.50491 .18678 15.39188 .22307 15.94495 .24911 16.49803 .27518 17.385 .32167 17.93806 .35461 18.49117 .38757 19.37811 .44594 19.9312 .48657 20.48428 .52722 21.37123 .5984 21.92432 .64755 22.47742 .6967 23.36435 .78236 23.91745 .84084 24.47052 .89929 25.35748 1.00035 25.91057 1.06895 26.46364 1.13754 27.3506 1.25568 27.90369 1.3352 28.45677 1.41475 29.34372 1.55089 29.8968 1.64217 30.44989 1.73344 31.33685 1.88927 31.88992 1.9931 32.44301 2.09694 33.32997 2.27336 33.88304 2.39056 34.43613 2.50775 35.32307 2.70647 35.87617 2.83784 36.42926 2.96922 37.31621 3.19112 37.8693 3.3375 38.42236 3.48386 39.30933 3.73062 39.86241 3.89279 40.41548 4.05496 41.30244 4.32753 41.85553 4.5063 42.40862 4.68507 43.29558 4.98514 43.84865 5.18134 44.40173 5.37752 45.2887 5.70595 45.84178 5.92038 46.39487 6.1348 47.28183 6.4933 47.8349 6.72676 48.38799 6.96024 49.27493 7.34972 49.82802 7.60304 50.3811 7.85635 51.26805 8.27852 51.82114 8.5525 52.37422 8.82648 53.26118 9.28223 53.81427 9.57768 54.36734 9.87311 55.2543 10.36414 55.80739 10.68185 56.36046 10.9996 57.24742 11.5268 57.80049 11.86761 58.35359 12.20844 59.24054 12.77353 59.79362 13.13824 60.34671 13.50294 61.23367 14.10683 61.78674 14.49623 62.33983 14.88567 63.2268 15.53001 63.77988 15.94495 64.33296 16.3599 65.21991 17.04562 65.773 17.48691 66.32607 17.92818 67.21303 18.65697 67.76611 19.12538 68.3192 19.59381 69.20615 20.36656 69.75925 20.86295 70.31232 21.35931 71.19928 22.17775 71.75235 22.70288 72.30544 23.22803 73.1924 24.09303 73.74547 24.64774 74.29857 25.20244 75.18552 26.1157 75.7386 26.7008 76.29169 27.28589 77.17865 28.24835 77.73172 28.86462 78.2848 29.4809 79.17175 30.49422 79.72484 31.1425 80.27792 31.79079 81.16487 32.8559 81.71797 33.53697 82.27104 34.21806 83.158 35.33664 83.71109 36.05135 84.26416 36.76605 85.15112 37.939 85.70422 38.68814 86.2573 39.4373 87.14426 40.6663 87.69733 41.45068 88.25041 42.23508 89.13737 43.52104 89.69044 44.34149 90.24355 45.16193 91.1305 46.50656 91.68358 47.36388 92.23666 48.22118 93.12361 49.62538 93.6767 50.52036 94.22978 51.41533 95.11673 52.8808 95.66982 53.81427 96.22289 54.74773 97.10985 56.27536 97.66295 57.24812 98.21602 58.22087 99.10298 59.81238 99.65607 60.82523 100.20914 61.83809 101.0961 63.49434 101.64917 64.54811 102.20226 65.60188 103.08922 67.32462 103.64229 68.42012 104.19539 69.51561 105.08235 71.3057 105.63542 72.44373 106.1885 73.58174 107.07545 75.4409 107.62856 76.62227 108.18164 77.80363 109.06859 79.73274 109.62167 80.95828 110.17474 82.1838 111.0617 84.18457 111.61479 85.45508 112.16786 86.72556 113.05482 88.79889 113.60791 90.11516 114.161 91.43144 115.04796 93.57901 115.60103 94.94186 116.15411 96.3047 117.04108 98.52745 117.59415 99.93771 118.14723 101.34795 119.0342 103.64754 119.58727 105.106 120.14037 106.56447 121.0273 108.9418 121.5804 110.44928 122.13348 111.95676 123.02043 114.41354 123.57352 115.97086 124.12659 117.52814 125.01355 120.06529 125.56664 121.67323 126.11972 123.28117 127.55977 127.55977 127.1022 126.20018"/>
<path transform="matrix(-1.00003,-0,0,1.00008,27.01199,150.91605)" d="M1.0361 0C-.25902 .25902-1.55415 .77707-3.1083 1.68365-1.55415 .51805-1.55415-.51805-3.1083-1.68365-1.55415-.77707-.25902-.25902 1.0361 0Z" fill="#ff0000"/>
<path transform="matrix(-1.00003,-0,0,1.00008,27.01199,150.91605)" stroke-width=".79701" stroke-linecap="butt" stroke-linejoin="round" fill="none" stroke="#ff0000" d="M1.0361 0C-.25902 .25902-1.55415 .77707-3.1083 1.68365-1.55415 .51805-1.55415-.51805-3.1083-1.68365-1.55415-.77707-.25902-.25902 1.0361 0Z"/>
<path transform="matrix(.3189596,-.9477858,-.94773849,-.3189755,152.68337,24.705773)" d="M1.0361 0C-.25902 .25902-1.55415 .77707-3.1083 1.68365-1.55415 .51805-1.55415-.51805-3.1083-1.68365-1.55415-.77707-.25902-.25902 1.0361 0Z" fill="#ff0000"/>
<path transform="matrix(.3189596,-.9477858,-.94773849,-.3189755,152.68337,24.705773)" stroke-width=".79701" stroke-linecap="butt" stroke-linejoin="round" fill="none" stroke="#ff0000" d="M1.0361 0C-.25902 .25902-1.55415 .77707-3.1083 1.68365-1.55415 .51805-1.55415-.51805-3.1083-1.68365-1.55415-.77707-.25902-.25902 1.0361 0Z"/>
<use data-text="g" xlink:href="#font_1_2" transform="matrix(9.962899,0,0,-9.963397,65.89056,15.631226)" fill="#0000ff"/>
<use data-text="(" xlink:href="#font_2_1" transform="matrix(9.962899,0,0,-9.963397,70.99971,15.631226)" fill="#0000ff"/>
<use data-text="x" xlink:href="#font_1_3" transform="matrix(9.962899,0,0,-9.963397,74.87383,15.631226)" fill="#0000ff"/>
<use data-text=")" xlink:href="#font_2_2" transform="matrix(9.962899,0,0,-9.963397,80.568,15.631226)" fill="#0000ff"/>
<use data-text="=" xlink:href="#font_2_7" transform="matrix(9.962899,0,0,-9.963397,87.19334,15.631226)" fill="#0000ff"/>
<use data-text="3" xlink:href="#font_2_5" transform="matrix(9.962899,0,0,-9.963397,97.704189,15.631226)" fill="#0000ff"/>
<use data-text="x" xlink:href="#font_3_1" transform="matrix(6.9740097,0,0,-6.974358,102.707668,12.01593)" fill="#0000ff"/>
<use data-text="f" xlink:href="#font_1_1" transform="matrix(9.962899,0,0,-9.963397,125.34235,15.950256)" fill="#ff0000"/>
<use data-text="(" xlink:href="#font_2_1" transform="matrix(9.962899,0,0,-9.963397,131.29253,15.950256)" fill="#ff0000"/>
<use data-text="x" xlink:href="#font_1_3" transform="matrix(9.962899,0,0,-9.963397,135.16664,15.950256)" fill="#ff0000"/>
<use data-text=")" xlink:href="#font_2_2" transform="matrix(9.962899,0,0,-9.963397,140.86081,15.950256)" fill="#ff0000"/>
<use data-text="=" xlink:href="#font_2_7" transform="matrix(9.962899,0,0,-9.963397,147.48615,15.950256)" fill="#ff0000"/>
<use data-text="x" xlink:href="#font_1_3" transform="matrix(9.962899,0,0,-9.963397,158.01934,15.950256)" fill="#ff0000"/>
<use data-text="3" xlink:href="#font_4_1" transform="matrix(6.9740097,0,0,-6.974358,163.7135,12.334961)" fill="#ff0000"/>
</svg>
