<svg xmlns="http://www.w3.org/2000/svg" xmlns:xlink="http://www.w3.org/1999/xlink" version="1.1" width="261" height="252" viewBox="0 0 261 252">
<defs>
<path id="font_1_2" d="M.33399964 .30233766C.33999635 .32835389 .36299134 .42037965 .43299867 .42037965 .43798829 .42037965 .46199037 .42037965 .48298646 .40734864 .45498658 .402359 .43499757 .37734986 .43499757 .35334779 .43499757 .33735658 .44599916 .31835938 .47299195 .31835938 .49499513 .31835938 .5269928 .3363495 .5269928 .37635804 .5269928 .42837525 .46798707 .4423828 .43399049 .4423828 .37599183 .4423828 .34098817 .38935853 .32899476 .36634828 .3039856 .43237306 .25 .4423828 .22099304 .4423828 .116989139 .4423828 .05999756 .3133545 .05999756 .28834535 .05999756 .27833558 .069992069 .27833558 .07199097 .27833558 .07998657 .27833558 .08299255 .28033448 .084991458 .28933717 .11898804 .39535523 .18499756 .42037965 .21899414 .42037965 .23799134 .42037965 .272995 .4113617 .272995 .35334779 .272995 .32235719 .2559967 .25532533 .21899414 .11528015 .20298767 .053268434 .16799927 .011245728 .12399292 .011245728 .117996219 .011245728 .09498596 .011245728 .07398987 .024276734 .09899902 .029266358 .12098694 .05027771 .12098694 .07827759 .12098694 .105270389 .09899902 .11328125 .083999637 .11328125 .053985597 .11328125 .0289917 .08728027 .0289917 .055267335 .0289917 .009246826 .07899475-.0107421879 .12298584-.0107421879 .18899536-.0107421879 .22499085 .059280397 .22799683 .0652771 .23999024 .028274537 .27598573-.0107421879 .33599855-.0107421879 .43899537-.0107421879 .49598695 .118270877 .49598695 .14328003 .49598695 .1532898 .4869995 .1532898 .48399354 .1532898 .47499085 .1532898 .47299195 .14929199 .47099305 .14228821 .43798829 .03527832 .36999513 .011245728 .33799745 .011245728 .29899598 .011245728 .2829895 .043273927 .2829895 .07727051 .2829895 .09927368 .2889862 .121276859 .2999878 .16529846L.33399964 .30233766Z"/>
<path id="font_1_3" d="M.48599244 .38136292C.48999024 .39537049 .48999024 .39736939 .48999024 .40437318 .48999024 .42237855 .47599793 .43138124 .46099855 .43138124 .45098878 .43138124 .43499757 .42536927 .42599488 .41036988 .42399598 .405365 .41600038 .37435914 .4119873 .35635377 .40499879 .33035279 .397995 .30334474 .3919983 .27633668L.34700013 .09628296C.34298707 .08126831 .2999878 .011245728 .23399353 .011245728 .18299866 .011245728 .17199707 .055267335 .17199707 .0922699 .17199707 .1382904 .18899536 .20030213 .22299195 .28833009 .23899842 .3293457 .24299622 .3403473 .24299622 .36035157 .24299622 .405365 .21099854 .4423828 .16099549 .4423828 .06599426 .4423828 .0289917 .29733277 .0289917 .28833009 .0289917 .27833558 .038986207 .27833558 .040985109 .27833558 .050994874 .27833558 .051986696 .28033448 .056991579 .29634095 .083999637 .3903656 .12399292 .42037965 .1579895 .42037965 .1659851 .42037965 .18299866 .42037965 .18299866 .3883667 .18299866 .36335755 .17298889 .3373413 .1659851 .31834413 .12599182 .21231079 .10798645 .1552887 .10798645 .10827637 .10798645 .019256592 .17098999-.0107421879 .22999573-.0107421879 .2689972-.0107421879 .30299378 .0062561037 .33099366 .03425598 .31799317-.017745972 .30599977-.06674194 .2659912-.11973572 .23999024-.15385437 .20199585-.18309021 .1559906-.18309021 .14199829-.18309021 .09700012-.18005371 .07998657-.14074707 .09599304-.14074707 .10899353-.14074707 .12298584-.1287384 .1329956-.11973572 .14299011-.10673523 .14299011-.08773804 .14299011-.056747438 .115997318-.052734376 .10598755-.052734376 .08299255-.052734376 .049987794-.068740848 .049987794-.11773682 .049987794-.16796875 .09399414-.20507813 .1559906-.20507813 .25898744-.20507813 .3619995-.11373901 .3899994-.00074768069L.48599244 .38136292Z"/>
<path id="font_2_1" d="M.6589966 .23046875C.6759949 .23046875 .69400027 .23046875 .69400027 .25045777 .69400027 .27046205 .6759949 .27046205 .6589966 .27046205H.117996219C.100997928 .27046205 .08299255 .27046205 .08299255 .25045777 .08299255 .23046875 .100997928 .23046875 .117996219 .23046875H.6589966Z"/>
<path id="font_3_8" d="M.44898988 .20022583C.44898988 .3193512 .36698915 .41944886 .25898744 .41944886 .21099854 .41944886 .16799927 .40345765 .13198853 .36842347V.5637665C.1519928 .5577698 .18499756 .55078127 .21699524 .55078127 .33999635 .55078127 .4099884 .6417694 .4099884 .6547699 .4099884 .6607666 .40699769 .6657715 .3999939 .6657715 .39898683 .6657715 .39698792 .6657715 .3919983 .66278079 .37199403 .6537781 .32299806 .6337738 .2559967 .6337738 .21598816 .6337738 .16999817 .6407776 .12298584 .6617737 .114990238 .66477969 .11299133 .66477969 .11099243 .66477969 .100997928 .66477969 .100997928 .6567688 .100997928 .6407776V.34439088C.100997928 .32637025 .100997928 .31835938 .114990238 .31835938 .12199402 .31835938 .12399292 .32136537 .12799073 .32736207 .13899231 .3433838 .17599488 .39746095 .25698854 .39746095 .30899049 .39746095 .33399964 .35139466 .34199525 .33337403 .35798646 .29632569 .3600006 .25727845 .3600006 .20722962 .3600006 .17222595 .3600006 .11222839 .33599855 .07035828 .31199647 .031463624 .2749939 .0055389406 .22898865 .0055389406 .1559906 .0055389406 .09899902 .058380128 .08198547 .11723328 .084991458 .1162262 .08799744 .115234378 .09899902 .115234378 .13198853 .115234378 .14898682 .14022827 .14898682 .16423035 .14898682 .18823242 .13198853 .21322632 .09899902 .21322632 .084991458 .21322632 .049987794 .20622254 .049987794 .16023255 .049987794 .07434082 .11898804-.022460938 .23098755-.022460938 .34700013-.022460938 .44898988 .073349 .44898988 .20022583Z"/>
<path id="font_3_4" d="M.2939911 .64004519C.2939911 .66400149 .2939911 .6660156 .2709961 .6660156 .20899964 .60227969 .12098694 .60227969 .08898926 .60227969V.57128909C.10899353 .57128909 .16799927 .57128909 .21998596 .5972748V.07902527C.21998596 .042999269 .21699524 .0309906 .1269989 .0309906H.09498596V0C.12998963 .0029907227 .21699524 .0029907227 .25698854 .0029907227 .29699708 .0029907227 .38398744 .0029907227 .4189911 0V.0309906H.3869934C.29699708 .0309906 .2939911 .041992189 .2939911 .07902527V.64004519Z"/>
<path id="font_3_3" d="M.45999146 .31976319C.45999146 .39982606 .45498658 .47988893 .41999818 .5539398 .37399293 .65000918 .2919922 .6660156 .25 .6660156 .18998719 .6660156 .116989139 .64001467 .07598877 .54693606 .04399109 .47789 .038986207 .39982606 .038986207 .31976319 .038986207 .24472046 .042999269 .15464783 .083999637 .07859802 .1269989-.0024719239 .19999695-.022460938 .24899292-.022460938 .30299378-.022460938 .3789978-.0014648438 .4229889 .09359741 .45498658 .16265869 .45999146 .2407074 .45999146 .31976319M.24899292-.00047302247C.20999146-.00047302247 .15098572 .024551392 .1329956 .12062073 .12199402 .18066406 .12199402 .2727356 .12199402 .3317871 .12199402 .39582826 .12199402 .46188355 .12998963 .5159149 .14898682 .63500979 .22399903 .64401248 .24899292 .64401248 .28199769 .64401248 .34799195 .6259918 .36698915 .52693179 .3769989 .47088624 .3769989 .39482118 .3769989 .3317871 .3769989 .25672914 .3769989 .18867493 .3659973 .12461853 .35099793 .029556275 .2939911-.00047302247 .24899292-.00047302247Z"/>
<path id="font_3_1" d="M.33099366-.2400055C.33099366-.23701477 .33099366-.23500061 .31399537-.21800232 .18899536-.0920105 .15699768 .09700012 .15699768 .25 .15699768 .42399598 .19499207 .59799197 .31799317 .72299197 .33099366 .73498538 .33099366 .7369995 .33099366 .73999026 .33099366 .746994 .32699586 .75 .32099916 .75 .31098939 .75 .22099304 .6819916 .1619873 .5549927 .11099243 .44499208 .09899902 .33399964 .09899902 .25 .09899902 .17199707 .10998535 .050994874 .16499329-.06201172 .22499085-.18501282 .31098939-.25 .32099916-.25 .32699586-.25 .33099366-.24700928 .33099366-.2400055Z"/>
<path id="font_3_9" d="M.16299439 .4569702C.116989139 .486969 .11299133 .52098086 .11299133 .5379791 .11299133 .598999 .17799378 .64100649 .24899292 .64100649 .32199098 .64100649 .38598634 .58898928 .38598634 .51698306 .38598634 .45996095 .34700013 .4119568 .2869873 .37695313L.16299439 .4569702M.30899049 .36193849C.3809967 .3989563 .42999269 .45095826 .42999269 .51698306 .42999269 .6090088 .34098817 .6660156 .25 .6660156 .1499939 .6660156 .068984989 .59199526 .068984989 .49897767 .068984989 .4809723 .070999149 .43595887 .11299133 .38894654 .12399292 .37695313 .16099549 .35194398 .18598938 .33494569 .12799073 .30592347 .041992189 .24984741 .041992189 .15072632 .041992189 .04458618 .14399719-.022460938 .24899292-.022460938 .3619995-.022460938 .45700074 .06060791 .45700074 .16773987 .45700074 .20379639 .44599916 .24885559 .4079895 .2909088 .3889923 .31193543 .37298585 .3219452 .30899049 .36193849M.20899964 .3199463 .33198548 .24183655C.3600006 .2228241 .40699769 .19277954 .40699769 .13169861 .40699769 .05760193 .33198548 .0055389406 .25 .0055389406 .1639862 .0055389406 .09199524 .067611698 .09199524 .15072632 .09199524 .20880127 .12399292 .27288819 .20899964 .3199463Z"/>
<path id="font_1_1" d="M.20298767 .0009918213C.20298767 .066986087 .17799378 .10598755 .13899231 .10598755 .10598755 .10598755 .085998538 .08099365 .085998538 .052993776 .085998538 .025985718 .10598755 0 .13899231 0 .15098572 0 .1639862 .0039978029 .17399597 .0129852299 .1769867 .01499939 .17799378 .015991211 .1789856 .015991211 .17999268 .015991211 .18099976 .01499939 .18099976 .0009918213 .18099976-.07316589 .1459961-.13328552 .11299133-.16635132 .101989749-.17736817 .101989749-.17936707 .101989749-.18237305 .101989749-.18936157 .10699463-.19335938 .11199951-.19335938 .12298584-.19335938 .20298767-.116256717 .20298767 .0009918213Z"/>
<path id="font_3_6" d="M.2899933 .35191346C.37199403 .37893678 .42999269 .4490509 .42999269 .52809146 .42999269 .6100464 .34199525 .6660156 .24598694 .6660156 .14498902 .6660156 .068984989 .60606387 .068984989 .53009036 .068984989 .49710084 .09098816 .47808839 .11999512 .47808839 .15098572 .47808839 .17098999 .50009158 .17098999 .5290985 .17098999 .57910159 .12399292 .57910159 .10899353 .57910159 .13999939 .62802127 .20599365 .64100649 .24198914 .64100649 .2829895 .64100649 .33799745 .6190338 .33799745 .5290985 .33799745 .51708987 .33599855 .45906068 .30999757 .4149933 .27999879 .36691285 .24598694 .36390687 .22099304 .36291505 .21299744 .36190797 .18899536 .35990907 .18199158 .35990907 .17399597 .35890199 .16699219 .35791017 .16699219 .3479004 .16699219 .33691407 .17399597 .33691407 .19099427 .33691407H.23498535C.31698609 .33691407 .35398866 .2686615 .35398866 .17037964 .35398866 .034469606 .2849884 .0055389406 .24099732 .0055389406 .19799805 .0055389406 .12298584 .022491456 .08799744 .08137512 .12298584 .07637024 .1539917 .09837341 .1539917 .1363678 .1539917 .17237854 .1269989 .19238281 .09799194 .19238281 .07398987 .19238281 .041992189 .17837525 .041992189 .1343689 .041992189 .043441774 .1349945-.022460938 .24398804-.022460938 .3659973-.022460938 .45700074 .06838989 .45700074 .17037964 .45700074 .252594 .3939972 .33088685 .2899933 .35191346Z"/>
<path id="font_3_2" d="M.2889862 .25C.2889862 .32798768 .27799989 .44898988 .22299195 .56199648 .16299439 .68499758 .07699585 .75 .066986087 .75 .06098938 .75 .056991579 .74598696 .056991579 .73999026 .056991579 .7369995 .056991579 .73498538 .07598877 .71699526 .17399597 .6179962 .23098755 .45899964 .23098755 .25 .23098755 .07899475 .19400025-.09700012 .069992069-.2230072 .056991579-.23500061 .056991579-.23701477 .056991579-.2400055 .056991579-.2460022 .06098938-.25 .066986087-.25 .07699585-.25 .16699219-.18200684 .22599793-.055007936 .2769928 .054992677 .2889862 .16600037 .2889862 .25Z"/>
<path id="font_3_5" d="M.1269989 .07699585 .23298645 .18003845C.3889923 .31811524 .44898988 .3721466 .44898988 .47216798 .44898988 .5860901 .35899354 .6660156 .23699951 .6660156 .12399292 .6660156 .049987794 .57411196 .049987794 .48516847 .049987794 .4291687 .099990848 .4291687 .102996829 .4291687 .11999512 .4291687 .15499878 .44117738 .15499878 .48217774 .15499878 .5081787 .13699341 .5341797 .101989749 .5341797 .09399414 .5341797 .09199524 .5341797 .08898926 .5331726 .11199951 .59806826 .1659851 .63500979 .22399903 .63500979 .31498719 .63500979 .35798646 .5541382 .35798646 .47216798 .35798646 .39215089 .30799867 .31311036 .25299073 .25108338L.06098938 .036987306C.049987794 .025985718 .049987794 .023986817 .049987794 0H.42099L.44898988 .17404175H.42399598C.4189911 .14402771 .4119873 .1000061 .4019928 .084991458 .394989 .07699585 .32899476 .07699585 .30699159 .07699585H.1269989Z"/>
<path id="font_3_7" d="M.2939911 .16503906V.07800293C.2939911 .041992189 .2919922 .0309906 .21798706 .0309906H.19699097V0C.23799134 .0029907227 .2899933 .0029907227 .33198548 .0029907227 .37399293 .0029907227 .4269867 .0029907227 .46798707 0V.0309906H.44699098C.37298585 .0309906 .37098695 .041992189 .37098695 .07800293V.16503906H.47099305V.19602967H.37098695V.65075686C.37098695 .67074587 .37098695 .6767578 .35499574 .6767578 .34599305 .6767578 .34298707 .6767578 .33499146 .66474917L.027999878 .19602967V.16503906H.2939911M.2999878 .19602967H.055999757L.2999878 .5688019V.19602967Z"/>
</defs>
<path transform="matrix(1.00003,0,0,-1,130.74658,105.609)" stroke-width=".3985" stroke-linecap="butt" stroke-miterlimit="10" stroke-linejoin="miter" fill="none" stroke="#00aeef" d="M-113.3855-141.73404H113.3855M-113.3855-127.56062H113.3855M-113.3855-113.38724H113.3855M-113.3855-99.21382H113.3855M-113.3855-85.04042H113.3855M-113.3855-70.867H113.3855M-113.3855-56.69362H113.3855M-113.3855-42.5202H113.3855M-113.3855-28.3468H113.3855M-113.3855-14.17339H113.3855M-113.3855 0H113.3855M-113.3855 14.17339H113.3855M-113.3855 28.3468H113.3855M-113.3855 42.5202H113.3855M-113.3855 56.69362H113.3855M-113.3855 70.867H113.3855M-113.3855 85.03543H113.3855M-113.3855-141.73404V85.04042M-90.70839-141.73404V85.04042M-68.0313-141.73404V85.04042M-45.35419-141.73404V85.04042M-22.6771-141.73404V85.04042M0-141.73404V85.04042M22.6771-141.73404V85.04042M45.35419-141.73404V85.04042M68.0313-141.73404V85.04042M90.70839-141.73404V85.04042M113.38152-141.73404V85.04042M113.3855 85.04042"/>
<path transform="matrix(1.00003,0,0,-1,130.74658,105.609)" stroke-width="1.19553" stroke-linecap="butt" stroke-miterlimit="10" stroke-linejoin="miter" fill="none" stroke="#000000" d="M-113.3855 0H118.3157"/>
<path transform="matrix(1.00003,0,0,-1,249.06583,105.609)" d="M1.27522 0C-.31879 .31879-1.91284 .9564-3.8257 2.07224-1.91284 .6376-1.91284-.6376-3.8257-2.07224-1.91284-.9564-.31879-.31879 1.27522 0Z"/>
<path transform="matrix(1.00003,0,0,-1,249.06583,105.609)" stroke-width="1.19553" stroke-linecap="butt" stroke-linejoin="round" fill="none" stroke="#000000" d="M1.27522 0C-.31879 .31879-1.91284 .9564-3.8257 2.07224-1.91284 .6376-1.91284-.6376-3.8257-2.07224-1.91284-.9564-.31879-.31879 1.27522 0Z"/>
<use data-text="x" xlink:href="#font_1_2" transform="matrix(9.962899,0,0,-9.9626,254.85732,107.754)"/>
<path transform="matrix(1.00003,0,0,-1,130.74658,105.609)" stroke-width="1.19553" stroke-linecap="butt" stroke-miterlimit="10" stroke-linejoin="miter" fill="none" stroke="#000000" d="M0-141.73404V91.67155"/>
<path transform="matrix(0,-1,-1.00003,-0,130.74658,13.937454)" d="M1.27522 0C-.31879 .31879-1.91284 .9564-3.8257 2.07224-1.91284 .6376-1.91284-.6376-3.8257-2.07224-1.91284-.9564-.31879-.31879 1.27522 0Z"/>
<path transform="matrix(0,-1,-1.00003,-0,130.74658,13.937454)" stroke-width="1.19553" stroke-linecap="butt" stroke-linejoin="round" fill="none" stroke="#000000" d="M1.27522 0C-.31879 .31879-1.91284 .9564-3.8257 2.07224-1.91284 .6376-1.91284-.6376-3.8257-2.07224-1.91284-.9564-.31879-.31879 1.27522 0Z"/>
<use data-text="y" xlink:href="#font_1_3" transform="matrix(9.962899,0,0,-9.9626,128.1255,6.2089998)"/>
<path transform="matrix(1.00003,0,0,-1,130.74658,105.609)" stroke-width=".3985" stroke-linecap="butt" stroke-miterlimit="10" stroke-linejoin="miter" fill="none" stroke="#000000" d="M-56.69275 4.25204V-4.25204"/>
<path transform="matrix(1.00003,0,0,-1,130.74658,105.609)" d="M-64.05414-15.68709H-49.33136V-6.44386H-64.05414Z" fill="#ffffff"/>
<use data-text="&#x2212;" xlink:href="#font_2_1" transform="matrix(9.962899,0,0,-9.9626,67.68669,119.47)"/>
<use data-text="5" xlink:href="#font_3_8" transform="matrix(9.962899,0,0,-9.9626,75.43591,119.47)"/>
<path transform="matrix(1.00003,0,0,-1,130.74658,105.609)" stroke-width=".3985" stroke-linecap="butt" stroke-miterlimit="10" stroke-linejoin="miter" fill="none" stroke="#000000" d="M56.69275 4.25204V-4.25204"/>
<path transform="matrix(1.00003,0,0,-1,130.74658,105.609)" d="M53.20578-14.85684H60.179719V-6.44386H53.20578Z" fill="#ffffff"/>
<use data-text="5" xlink:href="#font_3_8" transform="matrix(9.962899,0,0,-9.9626,184.95021,119.47)"/>
<path transform="matrix(1.00003,0,0,-1,130.74658,105.609)" stroke-width=".3985" stroke-linecap="butt" stroke-miterlimit="10" stroke-linejoin="miter" fill="none" stroke="#000000" d="M113.3855 4.25204V-4.25204"/>
<path transform="matrix(1.00003,0,0,-1,130.74658,105.609)" d="M107.40782-14.85684H119.36316V-6.44386H107.40782Z" fill="#ffffff"/>
<use data-text="1" xlink:href="#font_3_4" transform="matrix(9.962899,0,0,-9.9626,239.15384,119.47)"/>
<use data-text="0" xlink:href="#font_3_3" transform="matrix(9.962899,0,0,-9.9626,244.13527,119.47)"/>
<path transform="matrix(1.00003,0,0,-1,130.74658,105.609)" stroke-width=".3985" stroke-linecap="butt" stroke-miterlimit="10" stroke-linejoin="miter" fill="none" stroke="#000000" d="M3.40158 70.867H-3.40158"/>
<path transform="matrix(1.00003,0,0,-1,130.74658,105.609)" d="M-12.56734 66.66052H-5.5934V75.0735H-12.56734Z" fill="#ffffff"/>
<use data-text="5" xlink:href="#font_3_8" transform="matrix(9.962899,0,0,-9.9626,119.17523,37.952005)"/>
<path transform="matrix(1.00003,0,0,-1,130.74658,105.609)" stroke-width=".3985" stroke-linecap="butt" stroke-miterlimit="10" stroke-linejoin="miter" fill="none" stroke="#000000" d="M3.40158-70.867H-3.40158"/>
<path transform="matrix(1.00003,0,0,-1,130.74658,105.609)" d="M-20.31618-75.48862H-5.593399V-66.245388H-20.31618Z" fill="#ffffff"/>
<use data-text="&#x2212;" xlink:href="#font_2_1" transform="matrix(9.962899,0,0,-9.9626,111.426,179.271)"/>
<use data-text="5" xlink:href="#font_3_8" transform="matrix(9.962899,0,0,-9.9626,119.175228,179.271)"/>
<path transform="matrix(1.00003,0,0,-1,130.74658,105.609)" stroke-width=".3985" stroke-linecap="butt" stroke-miterlimit="10" stroke-linejoin="miter" fill="none" stroke="#000000" d="M3.40158-141.73404H-3.40158"/>
<path transform="matrix(1.00003,0,0,-1,130.74658,105.609)" d="M-25.29759-146.35565H-5.5933897V-137.11243H-25.29759Z" fill="#ffffff"/>
<use data-text="&#x2212;" xlink:href="#font_2_1" transform="matrix(9.962899,0,0,-9.9626,106.444858,250.138)"/>
<use data-text="1" xlink:href="#font_3_4" transform="matrix(9.962899,0,0,-9.9626,114.19408,250.138)"/>
<use data-text="0" xlink:href="#font_3_3" transform="matrix(9.962899,0,0,-9.9626,119.17552,250.138)"/>
<path transform="matrix(1.00003,0,0,-1,130.74658,105.609)" stroke-width="1.19553" stroke-linecap="butt" stroke-miterlimit="10" stroke-linejoin="miter" fill="none" stroke="#ff0000" d="M-103.91609-139.89215C-102.25021-124.82875-102.25021-124.82875-101.53136-118.69879-100.8125-112.56883-99.6597-103.17657-98.94084-97.57321-98.222-91.96983-97.06918-83.40788-96.35033-78.31358-95.63147-73.21927-94.47867-65.45988-93.75983-60.857-93.04097-56.25412-91.88815-49.26825-91.1693-45.1392-90.45044-41.01018-89.29762-34.7705-88.57878-31.09773-87.85994-27.42499-86.70712-21.90265-85.98827-18.66853-85.26941-15.43442-84.1166-10.6015-83.39774-7.78848-82.67888-4.97545-81.52608-.80373-80.80724 1.60577-80.08838 4.0153-78.93556 7.55403-78.2167 9.57768-77.49785 11.6013-76.34505 14.53543-75.62619 16.19075-74.90735 17.84608-73.75453 20.20354-73.03568 21.50815-72.31682 22.81276-71.16402 24.62201-70.44516 25.59348-69.7263 26.56494-68.57349 27.85397-67.85464 28.50986-67.13579 29.16574-65.98297 29.96277-65.26413 30.3207-64.54527 30.6786-63.39246 31.01189-62.6736 31.08951-61.95476 31.16713-60.80194 31.06534-60.08308 30.88017-59.36423 30.695-58.21143 30.1853-57.49258 29.75491-56.77373 29.32454-55.62091 28.4362-54.90205 27.77821-54.1832 27.12022-53.0304 25.88055-52.31154 25.01259-51.5927 24.14459-50.43988 22.58278-49.72102 21.52242-49.00217 20.46207-47.84937 18.60551-47.13051 17.37027-46.41165 16.13506-45.25883 14.01222-44.54 12.61972-43.82114 11.22722-42.66833 8.86624-41.94948 7.33409-41.23062 5.80196-40.0778 3.2312-39.35895 1.57701-38.6401-.07715-37.48729-2.8295-36.76843-4.58813-36.04959-6.34677-34.89677-9.25249-34.17792-11.09804-33.45906-12.94357-32.30624-15.97469-31.5874-17.88954-30.86855-19.8044-29.71574-22.93248-28.99689-24.89903-28.27803-26.8656-27.12521-30.06252-26.40636-32.06316-25.68752-34.06381-24.53471-37.3012-23.81586-39.31834-23.097-41.3355-21.94418-44.58531-21.22534-46.60141-20.50648-48.61751-19.35368-51.85152-18.63483-53.84901-17.91597-55.84651-16.76315-59.03676-16.0443-60.998-15.32545-62.95924-14.17264-66.07693-13.4538-67.98436-12.73494-69.89177-11.58212-72.9094-10.86327-74.74536-10.14441-76.58134-8.9916-79.46983-8.27275-81.21678-7.5539-82.96371-6.4011-85.69572-5.68224-87.3361-4.96338-88.97649-3.81056-91.52336-3.0917-93.03955-2.37286-94.55574-1.22006-96.88931-.5012-98.26376 .21762-99.63818 1.37044-101.73047 2.08928-102.94554 2.80814-104.1606 3.96094-105.98305 4.6798-107.02113 5.39865-108.05922 6.55147-109.58385 7.27032-110.42737 7.98917-111.27089 9.14198-112.46927 9.86082-113.10068 10.57968-113.73207 11.7325-114.5764 12.45135-114.9781 13.17021-115.3798 14.32301-115.84148 15.04187-115.99586 15.76073-116.15024 16.91353-116.20134 17.63239-116.09079 18.35123-115.98027 19.50404-115.59216 20.2229-115.19913 20.94176-114.8061 22.09456-113.9512 22.81342-113.2581 23.53227-112.56502 24.68509-111.2145 25.40393-110.20374 26.12279-109.193 27.27559-107.31932 27.99445-105.9733 28.7133-104.62729 29.86612-102.20146 30.58498-100.50256 31.30382-98.80367 32.45662-95.7981 33.17548-93.7288 33.89433-91.6595 35.04715-88.04579 35.766-85.58844 36.48486-83.13109 37.63768-78.88087 38.35652-76.01788 39.07536-73.15489 40.22818-68.24014 40.94704-64.954 41.6659-61.66785 42.81871-56.06061 43.53757-52.33362 44.25641-48.60664 45.40921-42.27788 46.12807-38.09251 46.84692-33.90715 47.99974-26.82973 48.7186-22.16843 49.43745-17.50713 50.59024-9.65198 51.3091-4.49709 52.02795 .65778 53.18077 9.31834 53.89963 14.9844 54.61847 20.65045 55.77127 30.14511 56.49013 36.33987 57.20898 42.53465 58.3618 52.89091 59.08066 59.63205 59.79951 66.3732 61.67116 84.92535 61.48322 83.06192"/>
<path transform="matrix(-.1098833,.9939,.99392989,.10988,26.827385,245.50116)" d="M1.27522 0C-.31879 .31879-1.91284 .9564-3.8257 2.07224-1.91284 .6376-1.91284-.6376-3.8257-2.07224-1.91284-.9564-.31879-.31879 1.27522 0Z" fill="#ff0000"/>
<path transform="matrix(-.1098833,.9939,.99392989,.10988,26.827385,245.50116)" stroke-width="1.19553" stroke-linecap="butt" stroke-linejoin="round" fill="none" stroke="#ff0000" d="M1.27522 0C-.31879 .31879-1.91284 .9564-3.8257 2.07224-1.91284 .6376-1.91284-.6376-3.8257-2.07224-1.91284-.9564-.31879-.31879 1.27522 0Z"/>
<path transform="matrix(.100363019,-.9949,-.99492987,-.10036,192.23163,22.547081)" d="M1.27522 0C-.31879 .31879-1.91284 .9564-3.8257 2.07224-1.91284 .6376-1.91284-.6376-3.8257-2.07224-1.91284-.9564-.31879-.31879 1.27522 0Z" fill="#ff0000"/>
<path transform="matrix(.100363019,-.9949,-.99492987,-.10036,192.23163,22.547081)" stroke-width="1.19553" stroke-linecap="butt" stroke-linejoin="round" fill="none" stroke="#ff0000" d="M1.27522 0C-.31879 .31879-1.91284 .9564-3.8257 2.07224-1.91284 .6376-1.91284-.6376-3.8257-2.07224-1.91284-.9564-.31879-.31879 1.27522 0Z"/>
<path transform="matrix(1.00003,0,0,-1,130.74658,105.609)" d="M-88.44072-42.5202C-88.44072-41.26773-89.456-40.25241-90.70839-40.25241-91.96078-40.25241-92.97606-41.26773-92.97606-42.5202-92.97606-43.77267-91.96078-44.78798-90.70839-44.78798-89.456-44.78798-88.44072-43.77267-88.44072-42.5202ZM-90.70839-42.5202" fill="#0000ff"/>
<path transform="matrix(1.00003,0,0,-1,130.74658,105.609)" stroke-width=".3985" stroke-linecap="butt" stroke-miterlimit="10" stroke-linejoin="miter" fill="none" stroke="#0000ff" d="M-88.44072-42.5202C-88.44072-41.26773-89.456-40.25241-90.70839-40.25241-91.96078-40.25241-92.97606-41.26773-92.97606-42.5202-92.97606-43.77267-91.96078-44.78798-90.70839-44.78798-89.456-44.78798-88.44072-43.77267-88.44072-42.5202ZM-90.70839-42.5202"/>
<path transform="matrix(1.00003,0,0,-1,130.74658,105.609)" d="M-132.52993-39.33212H-90.90764V-25.38424H-132.52993Z" fill="#ffffff"/>
<use data-text="(" xlink:href="#font_3_1" transform="matrix(9.962899,0,0,-9.9626,.20565796,140.45801)" fill="#0000ff"/>
<use data-text="&#x2212;" xlink:href="#font_2_1" transform="matrix(9.962899,0,0,-9.9626,4.080765,140.45801)" fill="#0000ff"/>
<use data-text="8" xlink:href="#font_3_9" transform="matrix(9.962899,0,0,-9.9626,11.830002,140.45801)" fill="#0000ff"/>
<use data-text="," xlink:href="#font_1_1" transform="matrix(9.962899,0,0,-9.9626,16.811142,140.45801)" fill="#0000ff"/>
<use data-text="&#x2212;" xlink:href="#font_2_1" transform="matrix(9.962899,0,0,-9.9626,21.239274,140.45801)" fill="#0000ff"/>
<use data-text="3" xlink:href="#font_3_6" transform="matrix(9.962899,0,0,-9.9626,28.987504,140.45801)" fill="#0000ff"/>
<use data-text=")" xlink:href="#font_3_2" transform="matrix(9.962899,0,0,-9.9626,33.96895,140.45801)" fill="#0000ff"/>
<path transform="matrix(1.00003,0,0,-1,130.74658,105.609)" d="M-20.40942-42.5202C-20.40942-41.26773-21.42468-40.25241-22.6771-40.25241-23.92949-40.25241-24.94475-41.26773-24.94475-42.5202-24.94475-43.77267-23.92949-44.78798-22.6771-44.78798-21.42468-44.78798-20.40942-43.77267-20.40942-42.5202ZM-22.6771-42.5202" fill="#0000ff"/>
<path transform="matrix(1.00003,0,0,-1,130.74658,105.609)" stroke-width=".3985" stroke-linecap="butt" stroke-miterlimit="10" stroke-linejoin="miter" fill="none" stroke="#0000ff" d="M-20.40942-42.5202C-20.40942-41.26773-21.42468-40.25241-22.6771-40.25241-23.92949-40.25241-24.94475-41.26773-24.94475-42.5202-24.94475-43.77267-23.92949-44.78798-22.6771-44.78798-21.42468-44.78798-20.40942-43.77267-20.40942-42.5202ZM-22.6771-42.5202"/>
<path transform="matrix(1.00003,0,0,-1,130.74658,105.609)" d="M-64.49863-59.65616H-22.876347V-45.70828H-64.49863Z" fill="#ffffff"/>
<use data-text="(" xlink:href="#font_3_1" transform="matrix(9.962899,0,0,-9.9626,68.23871,160.78202)" fill="#0000ff"/>
<use data-text="&#x2212;" xlink:href="#font_2_1" transform="matrix(9.962899,0,0,-9.9626,72.113819,160.78202)" fill="#0000ff"/>
<use data-text="2" xlink:href="#font_3_5" transform="matrix(9.962899,0,0,-9.9626,79.86305,160.78202)" fill="#0000ff"/>
<use data-text="," xlink:href="#font_1_1" transform="matrix(9.962899,0,0,-9.9626,84.84419,160.78202)" fill="#0000ff"/>
<use data-text="&#x2212;" xlink:href="#font_2_1" transform="matrix(9.962899,0,0,-9.9626,89.27232,160.78202)" fill="#0000ff"/>
<use data-text="3" xlink:href="#font_3_6" transform="matrix(9.962899,0,0,-9.9626,97.02055,160.78202)" fill="#0000ff"/>
<use data-text=")" xlink:href="#font_3_2" transform="matrix(9.962899,0,0,-9.9626,102.002,160.78202)" fill="#0000ff"/>
<path transform="matrix(1.00003,0,0,-1,130.74658,105.609)" d="M47.62184-42.5202C47.62184-41.26773 46.60658-40.25241 45.35419-40.25241 44.10178-40.25241 43.08652-41.26773 43.08652-42.5202 43.08652-43.77267 44.10178-44.78798 45.35419-44.78798 46.60658-44.78798 47.62184-43.77267 47.62184-42.5202ZM45.35419-42.5202" fill="#0000ff"/>
<path transform="matrix(1.00003,0,0,-1,130.74658,105.609)" stroke-width=".3985" stroke-linecap="butt" stroke-miterlimit="10" stroke-linejoin="miter" fill="none" stroke="#0000ff" d="M47.62184-42.5202C47.62184-41.26773 46.60658-40.25241 45.35419-40.25241 44.10178-40.25241 43.08652-41.26773 43.08652-42.5202 43.08652-43.77267 44.10178-44.78798 45.35419-44.78798 46.60658-44.78798 47.62184-43.77267 47.62184-42.5202ZM45.35419-42.5202"/>
<path transform="matrix(1.00003,0,0,-1,130.74658,105.609)" d="M45.55344-59.65616H79.426868V-45.70828H45.55344Z" fill="#ffffff"/>
<use data-text="(" xlink:href="#font_3_1" transform="matrix(9.962899,0,0,-9.9626,178.294,160.78202)" fill="#0000ff"/>
<use data-text="4" xlink:href="#font_3_7" transform="matrix(9.962899,0,0,-9.9626,182.1596,160.78202)" fill="#0000ff"/>
<use data-text="," xlink:href="#font_1_1" transform="matrix(9.962899,0,0,-9.9626,187.15027,160.78202)" fill="#0000ff"/>
<use data-text="&#x2212;" xlink:href="#font_2_1" transform="matrix(9.962899,0,0,-9.9626,191.5784,160.78202)" fill="#0000ff"/>
<use data-text="3" xlink:href="#font_3_6" transform="matrix(9.962899,0,0,-9.9626,199.32762,160.78202)" fill="#0000ff"/>
<use data-text=")" xlink:href="#font_3_2" transform="matrix(9.962899,0,0,-9.9626,204.30907,160.78202)" fill="#0000ff"/>
</svg>
