<svg xmlns="http://www.w3.org/2000/svg" xmlns:xlink="http://www.w3.org/1999/xlink" version="1.1" width="223" height="223" viewBox="0 0 223 223">
<defs>
<path id="font_1_1" d="M.33399964 .30233766C.33999635 .32835389 .36299134 .42037965 .43299867 .42037965 .43798829 .42037965 .46199037 .42037965 .48298646 .40734864 .45498658 .402359 .43499757 .37734986 .43499757 .35334779 .43499757 .33735658 .44599916 .31835938 .47299195 .31835938 .49499513 .31835938 .5269928 .3363495 .5269928 .37635804 .5269928 .42837525 .46798707 .4423828 .43399049 .4423828 .37599183 .4423828 .34098817 .38935853 .32899476 .36634828 .3039856 .43237306 .25 .4423828 .22099304 .4423828 .116989139 .4423828 .05999756 .3133545 .05999756 .28834535 .05999756 .27833558 .069992069 .27833558 .07199097 .27833558 .07998657 .27833558 .08299255 .28033448 .084991458 .28933717 .11898804 .39535523 .18499756 .42037965 .21899414 .42037965 .23799134 .42037965 .272995 .4113617 .272995 .35334779 .272995 .32235719 .2559967 .25532533 .21899414 .11528015 .20298767 .053268434 .16799927 .011245728 .12399292 .011245728 .117996219 .011245728 .09498596 .011245728 .07398987 .024276734 .09899902 .029266358 .12098694 .05027771 .12098694 .07827759 .12098694 .105270389 .09899902 .11328125 .083999637 .11328125 .053985597 .11328125 .0289917 .08728027 .0289917 .055267335 .0289917 .009246826 .07899475-.0107421879 .12298584-.0107421879 .18899536-.0107421879 .22499085 .059280397 .22799683 .0652771 .23999024 .028274537 .27598573-.0107421879 .33599855-.0107421879 .43899537-.0107421879 .49598695 .118270877 .49598695 .14328003 .49598695 .1532898 .4869995 .1532898 .48399354 .1532898 .47499085 .1532898 .47299195 .14929199 .47099305 .14228821 .43798829 .03527832 .36999513 .011245728 .33799745 .011245728 .29899598 .011245728 .2829895 .043273927 .2829895 .07727051 .2829895 .09927368 .2889862 .121276859 .2999878 .16529846L.33399964 .30233766Z"/>
<path id="font_1_2" d="M.48599244 .38136292C.48999024 .39537049 .48999024 .39736939 .48999024 .40437318 .48999024 .42237855 .47599793 .43138124 .46099855 .43138124 .45098878 .43138124 .43499757 .42536927 .42599488 .41036988 .42399598 .405365 .41600038 .37435914 .4119873 .35635377 .40499879 .33035279 .397995 .30334474 .3919983 .27633668L.34700013 .09628296C.34298707 .08126831 .2999878 .011245728 .23399353 .011245728 .18299866 .011245728 .17199707 .055267335 .17199707 .0922699 .17199707 .1382904 .18899536 .20030213 .22299195 .28833009 .23899842 .3293457 .24299622 .3403473 .24299622 .36035157 .24299622 .405365 .21099854 .4423828 .16099549 .4423828 .06599426 .4423828 .0289917 .29733277 .0289917 .28833009 .0289917 .27833558 .038986207 .27833558 .040985109 .27833558 .050994874 .27833558 .051986696 .28033448 .056991579 .29634095 .083999637 .3903656 .12399292 .42037965 .1579895 .42037965 .1659851 .42037965 .18299866 .42037965 .18299866 .3883667 .18299866 .36335755 .17298889 .3373413 .1659851 .31834413 .12599182 .21231079 .10798645 .1552887 .10798645 .10827637 .10798645 .019256592 .17098999-.0107421879 .22999573-.0107421879 .2689972-.0107421879 .30299378 .0062561037 .33099366 .03425598 .31799317-.017745972 .30599977-.06674194 .2659912-.11973572 .23999024-.15385437 .20199585-.18309021 .1559906-.18309021 .14199829-.18309021 .09700012-.18005371 .07998657-.14074707 .09599304-.14074707 .10899353-.14074707 .12298584-.1287384 .1329956-.11973572 .14299011-.10673523 .14299011-.08773804 .14299011-.056747438 .115997318-.052734376 .10598755-.052734376 .08299255-.052734376 .049987794-.068740848 .049987794-.11773682 .049987794-.16796875 .09399414-.20507813 .1559906-.20507813 .25898744-.20507813 .3619995-.11373901 .3899994-.00074768069L.48599244 .38136292Z"/>
<path id="font_2_1" d="M.6589966 .23046875C.6759949 .23046875 .69400027 .23046875 .69400027 .25045777 .69400027 .27046205 .6759949 .27046205 .6589966 .27046205H.117996219C.100997928 .27046205 .08299255 .27046205 .08299255 .25045777 .08299255 .23046875 .100997928 .23046875 .117996219 .23046875H.6589966Z"/>
<path id="font_3_1" d="M.44898988 .20022583C.44898988 .3193512 .36698915 .41944886 .25898744 .41944886 .21099854 .41944886 .16799927 .40345765 .13198853 .36842347V.5637665C.1519928 .5577698 .18499756 .55078127 .21699524 .55078127 .33999635 .55078127 .4099884 .6417694 .4099884 .6547699 .4099884 .6607666 .40699769 .6657715 .3999939 .6657715 .39898683 .6657715 .39698792 .6657715 .3919983 .66278079 .37199403 .6537781 .32299806 .6337738 .2559967 .6337738 .21598816 .6337738 .16999817 .6407776 .12298584 .6617737 .114990238 .66477969 .11299133 .66477969 .11099243 .66477969 .100997928 .66477969 .100997928 .6567688 .100997928 .6407776V.34439088C.100997928 .32637025 .100997928 .31835938 .114990238 .31835938 .12199402 .31835938 .12399292 .32136537 .12799073 .32736207 .13899231 .3433838 .17599488 .39746095 .25698854 .39746095 .30899049 .39746095 .33399964 .35139466 .34199525 .33337403 .35798646 .29632569 .3600006 .25727845 .3600006 .20722962 .3600006 .17222595 .3600006 .11222839 .33599855 .07035828 .31199647 .031463624 .2749939 .0055389406 .22898865 .0055389406 .1559906 .0055389406 .09899902 .058380128 .08198547 .11723328 .084991458 .1162262 .08799744 .115234378 .09899902 .115234378 .13198853 .115234378 .14898682 .14022827 .14898682 .16423035 .14898682 .18823242 .13198853 .21322632 .09899902 .21322632 .084991458 .21322632 .049987794 .20622254 .049987794 .16023255 .049987794 .07434082 .11898804-.022460938 .23098755-.022460938 .34700013-.022460938 .44898988 .073349 .44898988 .20022583Z"/>
</defs>
<path transform="matrix(1.00005,0,0,-1.00005,105.793628,119.020298)" stroke-width=".3985" stroke-linecap="butt" stroke-miterlimit="10" stroke-linejoin="miter" fill="none" stroke="#00aeef" d="M-99.2134-99.2134H99.2134M-99.2134-79.37071H99.2134M-99.2134-59.52802H99.2134M-99.2134-39.68535H99.2134M-99.2134-19.84267H99.2134M-99.2134 0H99.2134M-99.2134 19.84267H99.2134M-99.2134 39.68535H99.2134M-99.2134 59.52802H99.2134M-99.2134 79.37071H99.2134M-99.2134 99.20642H99.2134M-99.2134-99.2134V99.2134M-79.37071-99.2134V99.2134M-59.52802-99.2134V99.2134M-39.68535-99.2134V99.2134M-19.84267-99.2134V99.2134M0-99.2134V99.2134M19.84267-99.2134V99.2134M39.68535-99.2134V99.2134M59.52802-99.2134V99.2134M79.37071-99.2134V99.2134M99.20642-99.2134V99.2134M99.2134 99.2134"/>
<path transform="matrix(1.00005,0,0,-1.00005,105.793628,119.020298)" stroke-width=".79701" stroke-linecap="butt" stroke-miterlimit="10" stroke-linejoin="miter" fill="none" stroke="#000000" d="M-99.2134 0H105.71571"/>
<path transform="matrix(1.00005,0,0,-1.00005,211.51462,119.020298)" d="M1.0361 0C-.25902 .25902-1.55415 .77707-3.1083 1.68365-1.55415 .51805-1.55415-.51805-3.1083-1.68365-1.55415-.77707-.25902-.25902 1.0361 0Z"/>
<path transform="matrix(1.00005,0,0,-1.00005,211.51462,119.020298)" stroke-width=".79701" stroke-linecap="butt" stroke-linejoin="round" fill="none" stroke="#000000" d="M1.0361 0C-.25902 .25902-1.55415 .77707-3.1083 1.68365-1.55415 .51805-1.55415-.51805-3.1083-1.68365-1.55415-.77707-.25902-.25902 1.0361 0Z"/>
<use data-text="x" xlink:href="#font_1_1" transform="matrix(9.963098,0,0,-9.963098,216.66817,121.165409)"/>
<path transform="matrix(1.00005,0,0,-1.00005,105.793628,119.020298)" stroke-width=".79701" stroke-linecap="butt" stroke-miterlimit="10" stroke-linejoin="miter" fill="none" stroke="#000000" d="M0-99.2134V105.71571"/>
<path transform="matrix(0,-1.00005,-1.00005,-0,105.793628,13.299301)" d="M1.0361 0C-.25902 .25902-1.55415 .77707-3.1083 1.68365-1.55415 .51805-1.55415-.51805-3.1083-1.68365-1.55415-.77707-.25902-.25902 1.0361 0Z"/>
<path transform="matrix(0,-1.00005,-1.00005,-0,105.793628,13.299301)" stroke-width=".79701" stroke-linecap="butt" stroke-linejoin="round" fill="none" stroke="#000000" d="M1.0361 0C-.25902 .25902-1.55415 .77707-3.1083 1.68365-1.55415 .51805-1.55415-.51805-3.1083-1.68365-1.55415-.77707-.25902-.25902 1.0361 0Z"/>
<use data-text="y" xlink:href="#font_1_2" transform="matrix(9.963098,0,0,-9.963098,103.17249,6.207657)"/>
<path transform="matrix(1.00005,0,0,-1.00005,105.793628,119.020298)" stroke-width=".3985" stroke-linecap="butt" stroke-miterlimit="10" stroke-linejoin="miter" fill="none" stroke="#000000" d="M-99.2134 1.98438V-1.98409"/>
<path transform="matrix(1.00005,0,0,-1.00005,105.793628,119.020298)" d="M-106.57478-13.41911H-91.852008V-4.1758806H-106.57478Z" fill="#ffffff"/>
<use data-text="&#x2212;" xlink:href="#font_2_1" transform="matrix(9.963098,0,0,-9.963098,.20935059,130.61388)"/>
<use data-text="5" xlink:href="#font_3_1" transform="matrix(9.963098,0,0,-9.963098,7.957733,130.61388)"/>
<path transform="matrix(1.00005,0,0,-1.00005,105.793628,119.020298)" stroke-width=".3985" stroke-linecap="butt" stroke-miterlimit="10" stroke-linejoin="miter" fill="none" stroke="#000000" d="M99.2134 1.98438V-1.98409"/>
<path transform="matrix(1.00005,0,0,-1.00005,105.793628,119.020298)" d="M95.72643-12.58887H102.70037V-4.17589H95.72643Z" fill="#ffffff"/>
<use data-text="5" xlink:href="#font_3_1" transform="matrix(9.963098,0,0,-9.963098,202.52146,130.61388)"/>
<path transform="matrix(1.00005,0,0,-1.00005,105.793628,119.020298)" stroke-width=".3985" stroke-linecap="butt" stroke-miterlimit="10" stroke-linejoin="miter" fill="none" stroke="#000000" d="M1.98438-99.2134H-1.98409"/>
<path transform="matrix(1.00005,0,0,-1.00005,105.793628,119.020298)" d="M-18.89867-103.835H-4.17589V-94.59177H-18.89867Z" fill="#ffffff"/>
<use data-text="&#x2212;" xlink:href="#font_2_1" transform="matrix(9.963098,0,0,-9.963098,87.89073,221.03339)"/>
<use data-text="5" xlink:href="#font_3_1" transform="matrix(9.963098,0,0,-9.963098,95.639118,221.03339)"/>
<path transform="matrix(1.00005,0,0,-1.00005,105.793628,119.020298)" stroke-width=".3985" stroke-linecap="butt" stroke-miterlimit="10" stroke-linejoin="miter" fill="none" stroke="#000000" d="M1.98438 99.2134H-1.98409"/>
<path transform="matrix(1.00005,0,0,-1.00005,105.793628,119.020298)" d="M-11.14983 95.0069H-4.17589V103.419879H-11.14983Z" fill="#ffffff"/>
<use data-text="5" xlink:href="#font_3_1" transform="matrix(9.963098,0,0,-9.963098,95.639118,23.012497)"/>
<g>
<path transform="matrix(1.00005,0,0,-1.00005,105.793628,119.020298)" d="M-39.68535-19.84267V19.84267H39.68535V-19.84267ZM39.68535 19.84267" fill="#42c8f4" fill-opacity=".3"/>
<path transform="matrix(1.00005,0,0,-1.00005,105.793628,119.020298)" stroke-width="1.19553" stroke-linecap="butt" stroke-miterlimit="10" stroke-linejoin="miter" fill="none" stroke="#42c8f4" stroke-opacity=".3" d="M-39.68535-19.84267V19.84267H39.68535V-19.84267ZM39.68535 19.84267"/>
</g>
<path transform="matrix(1.00005,0,0,-1.00005,105.793628,119.020298)" stroke-width=".3985" stroke-linecap="butt" stroke-dasharray="2.98883,2.98883" stroke-miterlimit="10" stroke-linejoin="miter" fill="none" stroke="#929292" d="M-99.2134-49.60667 99.2134 49.60667"/>
<path transform="matrix(1.00005,0,0,-1.00005,105.793628,119.020298)" stroke-width=".3985" stroke-linecap="butt" stroke-dasharray="2.98883,2.98883" stroke-miterlimit="10" stroke-linejoin="miter" fill="none" stroke="#929292" d="M-99.2134 49.60667 99.2134-49.60667"/>
<path transform="matrix(1.00005,0,0,-1.00005,105.793628,119.020298)" stroke-width="1.19553" stroke-linecap="butt" stroke-miterlimit="10" stroke-linejoin="miter" fill="none" stroke="#ff0000" d="M-97.80576 52.77597C-95.57251 51.74165-95.57251 51.74165-94.11041 51.06816-92.64832 50.39468-90.36177 49.34578-88.96747 48.70895-87.57318 48.07213-85.39189 47.08006-84.0613 46.4784-82.7307 45.87674-80.64781 44.94064-79.37735 44.3726-78.1069 43.80455-76.1179 42.92036-74.90477 42.38428-73.69164 41.84819-71.79352 41.01439-70.6338 40.50888-69.47409 40.00339-67.65582 39.21724-66.54636 38.74097-65.43687 38.26472-63.69885 37.52464-62.63753 37.07632-61.5762 36.628-59.91367 35.93132-58.89703 35.50978-57.88042 35.08821-56.28482 34.43378-55.31036 34.03798-54.33592 33.64217-52.80847 33.0282-51.87386 32.65701-50.93924 32.28583-49.47229 31.71031-48.57422 31.36264-47.67613 31.015-46.26425 30.47623-45.40112 30.15125-44.53801 29.82628-43.184 29.32335-42.3534 29.02039-41.52278 28.7174-40.21544 28.24965-39.41466 27.96764-38.61389 27.68562-37.35461 27.24974-36.5819 26.98785-35.80917 26.72597-34.59207 26.32234-33.8454 26.08012-33.09874 25.8379-31.92284 25.46533-31.20036 25.24203-30.47789 25.01877-29.33899 24.67584-28.63829 24.47087-27.93758 24.26591-26.83054 23.9519-26.15007 23.7648-25.46962 23.5777-24.39575 23.29211-23.73393 23.12233-23.07211 22.95253-22.0255 22.69402-21.38016 22.54099-20.7348 22.38795-19.71292 22.15599-19.08269 22.01932-18.45247 21.88261-17.4547 21.67633-16.83792 21.55576-16.22113 21.4352-15.24286 21.25507-14.63736 21.15036-14.03183 21.04562-13.0695 20.89012-12.47372 20.80093-11.87793 20.71176-10.93044 20.58162-10.34338 20.50755-9.75635 20.4335-8.82288 20.32616-8.24274 20.26715-7.6626 20.20813-6.73701 20.12617-6.16206 20.08215-5.58713 20.03813-4.66995 19.9792-4.09895 19.94984-3.52795 19.92049-2.61554 19.88507-2.04674 19.87051-1.47795 19.85596-.56625 19.84477 .00058 19.84477 .56746 19.84477 1.47131 19.85596 2.03886 19.87051 2.60641 19.88507 3.51984 19.92062 4.09108 19.94984 4.66232 19.97906 5.58107 20.03722 6.156 20.08124 6.73096 20.12527 7.6548 20.20818 8.23486 20.26715 8.81493 20.32611 9.74977 20.43231 10.33673 20.50635 10.92368 20.58037 11.8698 20.71138 12.46524 20.80064 13.06068 20.8899 14.02257 21.04518 14.62827 21.14975 15.23395 21.2543 16.21371 21.43385 16.83064 21.55426 17.44759 21.67464 18.44476 21.88094 19.07481 22.0175 19.70488 22.15407 20.7265 22.38562 21.37167 22.53857 22.01685 22.69151 23.06296 22.95007 23.72485 23.1199 24.38675 23.28975 25.46175 23.57559 26.1422 23.7627 26.82266 23.9498 27.92873 24.26363 28.6292 24.46846 29.32965 24.67331 30.46828 25.0158 31.19067 25.23903 31.91307 25.46225 33.08914 25.83519 33.83572 26.07741 34.5823 26.31963 35.79878 26.7232 36.5716 26.98483 37.34439 27.24646 38.60506 27.68126 39.40558 27.96309 40.2061 28.24493 41.51093 28.71304 42.3413 29.01614 43.17163 29.31924 44.52702 29.8226 45.39023 30.14761 46.25343 30.47263 47.6649 31.01115 48.56271 31.35872 49.46053 31.7063 50.92636 32.28175 51.86115 32.65277 52.79593 33.0238 54.32578 33.6371 55.30006 34.03282 56.27434 34.42856 57.86682 35.08351 58.8831 35.50491 59.8994 35.92632 61.56331 36.62186 62.6248 37.06998 63.6863 37.51808 65.42474 38.25842 66.53365 38.73463 67.64252 39.21083 69.45741 39.99686 70.61687 40.50223 71.77634 41.0076 73.67683 41.84105 74.89023 42.37701 76.10364 42.91296 78.09229 43.79698 79.36223 44.36504 80.63217 44.93307 82.71286 45.86964 84.04312 46.47113 85.3734 47.07263 87.55553 48.06355 88.9499 48.70016 90.34427 49.33676 92.63092 50.38599 94.09285 51.05939 95.55478 51.7328 99.48648 53.55367 97.78697 52.76659"/>
<path transform="matrix(-.9074253,-.42025099,-.42025099,.9074253,7.982979,66.2417)" d="M1.27522 0C-.31879 .31879-1.91284 .9564-3.8257 2.07224-1.91284 .6376-1.91284-.6376-3.8257-2.07224-1.91284-.9564-.31879-.31879 1.27522 0Z" fill="#ff0000"/>
<path transform="matrix(-.9074253,-.42025099,-.42025099,.9074253,7.982979,66.2417)" stroke-width="1.19553" stroke-linecap="butt" stroke-linejoin="round" fill="none" stroke="#ff0000" d="M1.27522 0C-.31879 .31879-1.91284 .9564-3.8257 2.07224-1.91284 .6376-1.91284-.6376-3.8257-2.07224-1.91284-.9564-.31879-.31879 1.27522 0Z"/>
<path transform="matrix(.9074253,-.42025099,-.42025099,-.9074253,203.58548,66.25108)" d="M1.27522 0C-.31879 .31879-1.91284 .9564-3.8257 2.07224-1.91284 .6376-1.91284-.6376-3.8257-2.07224-1.91284-.9564-.31879-.31879 1.27522 0Z" fill="#ff0000"/>
<path transform="matrix(.9074253,-.42025099,-.42025099,-.9074253,203.58548,66.25108)" stroke-width="1.19553" stroke-linecap="butt" stroke-linejoin="round" fill="none" stroke="#ff0000" d="M1.27522 0C-.31879 .31879-1.91284 .9564-3.8257 2.07224-1.91284 .6376-1.91284-.6376-3.8257-2.07224-1.91284-.9564-.31879-.31879 1.27522 0Z"/>
<path transform="matrix(1.00005,0,0,-1.00005,105.793628,119.020298)" stroke-width="1.19553" stroke-linecap="butt" stroke-miterlimit="10" stroke-linejoin="miter" fill="none" stroke="#ff0000" d="M-97.80576-52.77597C-95.57251-51.74165-95.57251-51.74165-94.11041-51.06816-92.64832-50.39468-90.36177-49.34578-88.96747-48.70895-87.57318-48.07213-85.39189-47.08006-84.0613-46.4784-82.7307-45.87674-80.64781-44.94064-79.37735-44.3726-78.1069-43.80455-76.1179-42.92036-74.90477-42.38428-73.69164-41.84819-71.79352-41.01439-70.6338-40.50888-69.47409-40.00339-67.65582-39.21724-66.54636-38.74097-65.43687-38.26472-63.69885-37.52464-62.63753-37.07632-61.5762-36.628-59.91367-35.93132-58.89703-35.50978-57.88042-35.08821-56.28482-34.43378-55.31036-34.03798-54.33592-33.64217-52.80847-33.0282-51.87386-32.65701-50.93924-32.28583-49.47229-31.71031-48.57422-31.36264-47.67613-31.015-46.26425-30.47623-45.40112-30.15125-44.53801-29.82628-43.184-29.32335-42.3534-29.02039-41.52278-28.7174-40.21544-28.24965-39.41466-27.96764-38.61389-27.68562-37.35461-27.24974-36.5819-26.98785-35.80917-26.72597-34.59207-26.32234-33.8454-26.08012-33.09874-25.8379-31.92284-25.46533-31.20036-25.24203-30.47789-25.01877-29.33899-24.67584-28.63829-24.47087-27.93758-24.26591-26.83054-23.9519-26.15007-23.7648-25.46962-23.5777-24.39575-23.29211-23.73393-23.12233-23.07211-22.95253-22.0255-22.69402-21.38016-22.54099-20.7348-22.38795-19.71292-22.15599-19.08269-22.01932-18.45247-21.88261-17.4547-21.67633-16.83792-21.55576-16.22113-21.4352-15.24286-21.25507-14.63736-21.15036-14.03183-21.04562-13.0695-20.89012-12.47372-20.80093-11.87793-20.71176-10.93044-20.58162-10.34338-20.50755-9.75635-20.4335-8.82288-20.32616-8.24274-20.26715-7.6626-20.20813-6.73701-20.12617-6.16206-20.08215-5.58713-20.03813-4.66995-19.9792-4.09895-19.94984-3.52795-19.92049-2.61554-19.88507-2.04674-19.87051-1.47795-19.85596-.56625-19.84477 .00058-19.84477 .56746-19.84477 1.47131-19.85596 2.03886-19.87051 2.60641-19.88507 3.51984-19.92062 4.09108-19.94984 4.66232-19.97906 5.58107-20.03722 6.156-20.08124 6.73096-20.12527 7.6548-20.20818 8.23486-20.26715 8.81493-20.32611 9.74977-20.43231 10.33673-20.50635 10.92368-20.58037 11.8698-20.71138 12.46524-20.80064 13.06068-20.8899 14.02257-21.04518 14.62827-21.14975 15.23395-21.2543 16.21371-21.43385 16.83064-21.55426 17.44759-21.67464 18.44476-21.88094 19.07481-22.0175 19.70488-22.15407 20.7265-22.38562 21.37167-22.53857 22.01685-22.69151 23.06296-22.95007 23.72485-23.1199 24.38675-23.28975 25.46175-23.57559 26.1422-23.7627 26.82266-23.9498 27.92873-24.26363 28.6292-24.46846 29.32965-24.67331 30.46828-25.0158 31.19067-25.23903 31.91307-25.46225 33.08914-25.83519 33.83572-26.07741 34.5823-26.31963 35.79878-26.7232 36.5716-26.98483 37.34439-27.24646 38.60506-27.68126 39.40558-27.96309 40.2061-28.24493 41.51093-28.71304 42.3413-29.01614 43.17163-29.31924 44.52702-29.8226 45.39023-30.14761 46.25343-30.47263 47.6649-31.01115 48.56271-31.35872 49.46053-31.7063 50.92636-32.28175 51.86115-32.65277 52.79593-33.0238 54.32578-33.6371 55.30006-34.03282 56.27434-34.42856 57.86682-35.08351 58.8831-35.50491 59.8994-35.92632 61.56331-36.62186 62.6248-37.06998 63.6863-37.51808 65.42474-38.25842 66.53365-38.73463 67.64252-39.21083 69.45741-39.99686 70.61687-40.50223 71.77634-41.0076 73.67683-41.84105 74.89023-42.37701 76.10364-42.91296 78.09229-43.79698 79.36223-44.36504 80.63217-44.93307 82.71286-45.86964 84.04312-46.47113 85.3734-47.07263 87.55553-48.06355 88.9499-48.70016 90.34427-49.33676 92.63092-50.38599 94.09285-51.05939 95.55478-51.7328 99.48648-53.55367 97.78697-52.76659"/>
<path transform="matrix(-.9074253,.42025099,.42025099,.9074253,7.982979,171.79889)" d="M1.27522 0C-.31879 .31879-1.91284 .9564-3.8257 2.07224-1.91284 .6376-1.91284-.6376-3.8257-2.07224-1.91284-.9564-.31879-.31879 1.27522 0Z" fill="#ff0000"/>
<path transform="matrix(-.9074253,.42025099,.42025099,.9074253,7.982979,171.79889)" stroke-width="1.19553" stroke-linecap="butt" stroke-linejoin="round" fill="none" stroke="#ff0000" d="M1.27522 0C-.31879 .31879-1.91284 .9564-3.8257 2.07224-1.91284 .6376-1.91284-.6376-3.8257-2.07224-1.91284-.9564-.31879-.31879 1.27522 0Z"/>
<path transform="matrix(.9074253,.42025099,.42025099,-.9074253,203.58548,171.7895)" d="M1.27522 0C-.31879 .31879-1.91284 .9564-3.8257 2.07224-1.91284 .6376-1.91284-.6376-3.8257-2.07224-1.91284-.9564-.31879-.31879 1.27522 0Z" fill="#ff0000"/>
<path transform="matrix(.9074253,.42025099,.42025099,-.9074253,203.58548,171.7895)" stroke-width="1.19553" stroke-linecap="butt" stroke-linejoin="round" fill="none" stroke="#ff0000" d="M1.27522 0C-.31879 .31879-1.91284 .9564-3.8257 2.07224-1.91284 .6376-1.91284-.6376-3.8257-2.07224-1.91284-.9564-.31879-.31879 1.27522 0Z"/>
</svg>
