<svg xmlns="http://www.w3.org/2000/svg" xmlns:xlink="http://www.w3.org/1999/xlink" version="1.1" width="208" height="207" viewBox="0 0 208 207">
<defs>
<path id="font_1_3" d="M.13198853 .327713V.35173036C.13198853 .6047821 .2559967 .64100649 .30699159 .64100649 .33099366 .64100649 .37298585 .634964 .394989 .6007538 .37998963 .6007538 .33999635 .6007538 .33999635 .5557556 .33999635 .524765 .3639984 .5097656 .38598634 .5097656 .4019928 .5097656 .43199159 .51875308 .43199159 .5577545 .43199159 .6178589 .3880005 .6660156 .30499269 .6660156 .1769867 .6660156 .041992189 .5367584 .041992189 .31570436 .041992189 .048553468 .1579895-.022460938 .25099183-.022460938 .3619995-.022460938 .45700074 .07156372 .45700074 .2036438 .45700074 .33070375 .36799623 .4267578 .25698854 .4267578 .18899536 .4267578 .1519928 .37573243 .13198853 .327713M.25099183 .0055389406C.18798828 .0055389406 .1579895 .06556702 .1519928 .080566409 .13398743 .127594 .13398743 .2076416 .13398743 .22564698 .13398743 .30369569 .1659851 .40374757 .2559967 .40374757 .27198792 .40374757 .31799317 .40374757 .34899903 .34172059 .36698915 .30470277 .36698915 .2536621 .36698915 .20463562 .36698915 .15661621 .36698915 .10658264 .34999085 .0705719 .31999208 .010528564 .27398683 .0055389406 .25099183 .0055389406Z"/>
<path id="font_1_1" d="M.45999146 .31976319C.45999146 .39982606 .45498658 .47988893 .41999818 .5539398 .37399293 .65000918 .2919922 .6660156 .25 .6660156 .18998719 .6660156 .116989139 .64001467 .07598877 .54693606 .04399109 .47789 .038986207 .39982606 .038986207 .31976319 .038986207 .24472046 .042999269 .15464783 .083999637 .07859802 .1269989-.0024719239 .19999695-.022460938 .24899292-.022460938 .30299378-.022460938 .3789978-.0014648438 .4229889 .09359741 .45498658 .16265869 .45999146 .2407074 .45999146 .31976319M.24899292-.00047302247C.20999146-.00047302247 .15098572 .024551392 .1329956 .12062073 .12199402 .18066406 .12199402 .2727356 .12199402 .3317871 .12199402 .39582826 .12199402 .46188355 .12998963 .5159149 .14898682 .63500979 .22399903 .64401248 .24899292 .64401248 .28199769 .64401248 .34799195 .6259918 .36698915 .52693179 .3769989 .47088624 .3769989 .39482118 .3769989 .3317871 .3769989 .25672914 .3769989 .18867493 .3659973 .12461853 .35099793 .029556275 .2939911-.00047302247 .24899292-.00047302247Z"/>
<path id="font_1_2" d="M.44898988 .20022583C.44898988 .3193512 .36698915 .41944886 .25898744 .41944886 .21099854 .41944886 .16799927 .40345765 .13198853 .36842347V.5637665C.1519928 .5577698 .18499756 .55078127 .21699524 .55078127 .33999635 .55078127 .4099884 .6417694 .4099884 .6547699 .4099884 .6607666 .40699769 .6657715 .3999939 .6657715 .39898683 .6657715 .39698792 .6657715 .3919983 .66278079 .37199403 .6537781 .32299806 .6337738 .2559967 .6337738 .21598816 .6337738 .16999817 .6407776 .12298584 .6617737 .114990238 .66477969 .11299133 .66477969 .11099243 .66477969 .100997928 .66477969 .100997928 .6567688 .100997928 .6407776V.34439088C.100997928 .32637025 .100997928 .31835938 .114990238 .31835938 .12199402 .31835938 .12399292 .32136537 .12799073 .32736207 .13899231 .3433838 .17599488 .39746095 .25698854 .39746095 .30899049 .39746095 .33399964 .35139466 .34199525 .33337403 .35798646 .29632569 .3600006 .25727845 .3600006 .20722962 .3600006 .17222595 .3600006 .11222839 .33599855 .07035828 .31199647 .031463624 .2749939 .0055389406 .22898865 .0055389406 .1559906 .0055389406 .09899902 .058380128 .08198547 .11723328 .084991458 .1162262 .08799744 .115234378 .09899902 .115234378 .13198853 .115234378 .14898682 .14022827 .14898682 .16423035 .14898682 .18823242 .13198853 .21322632 .09899902 .21322632 .084991458 .21322632 .049987794 .20622254 .049987794 .16023255 .049987794 .07434082 .11898804-.022460938 .23098755-.022460938 .34700013-.022460938 .44898988 .073349 .44898988 .20022583Z"/>
<path id="font_1_4" d="M.47599793 .609375C.4850006 .6213684 .4850006 .62338259 .4850006 .64437869H.24198914C.11999512 .64437869 .117996219 .65737918 .11399841 .67637637H.08898926L.055999757 .4702301H.08099365C.083999637 .48625184 .09298706 .5493469 .10598755 .56137087 .11299133 .5673828 .19099427 .5673828 .20399475 .5673828H.41099549C.3999939 .5513611 .32099916 .4421997 .29899598 .40914918 .20899964 .27394105 .17599488 .1347351 .17599488 .032577516 .17599488 .022567749 .17599488-.022460938 .22200012-.022460938 .2679901-.022460938 .2679901 .022567749 .2679901 .032577516V.08366394C.2679901 .13873291 .2709961 .19381714 .2789917 .24790955 .2829895 .27093507 .29699708 .35707093 .34098817 .41915895L.47599793 .609375Z"/>
<path id="font_1_5" d="M.16299439 .4569702C.116989139 .486969 .11299133 .52098086 .11299133 .5379791 .11299133 .598999 .17799378 .64100649 .24899292 .64100649 .32199098 .64100649 .38598634 .58898928 .38598634 .51698306 .38598634 .45996095 .34700013 .4119568 .2869873 .37695313L.16299439 .4569702M.30899049 .36193849C.3809967 .3989563 .42999269 .45095826 .42999269 .51698306 .42999269 .6090088 .34098817 .6660156 .25 .6660156 .1499939 .6660156 .068984989 .59199526 .068984989 .49897767 .068984989 .4809723 .070999149 .43595887 .11299133 .38894654 .12399292 .37695313 .16099549 .35194398 .18598938 .33494569 .12799073 .30592347 .041992189 .24984741 .041992189 .15072632 .041992189 .04458618 .14399719-.022460938 .24899292-.022460938 .3619995-.022460938 .45700074 .06060791 .45700074 .16773987 .45700074 .20379639 .44599916 .24885559 .4079895 .2909088 .3889923 .31193543 .37298585 .3219452 .30899049 .36193849M.20899964 .3199463 .33198548 .24183655C.3600006 .2228241 .40699769 .19277954 .40699769 .13169861 .40699769 .05760193 .33198548 .0055389406 .25 .0055389406 .1639862 .0055389406 .09199524 .067611698 .09199524 .15072632 .09199524 .20880127 .12399292 .27288819 .20899964 .3199463Z"/>
<path id="font_2_74" d="M1.0509949 0V.04699707H.94299319V.63853457H1.0509949V.6855469H.8299866C.80799868 .6855469 .7969971 .6855469 .7859955 .6605377L.54599 .13192749 .30599977 .6605377C.29499818 .6855469 .28399659 .6855469 .2619934 .6855469H.039993287V.63853457H.147995V.07597351C.147995 .05392456 .14698792 .05291748 .11898804 .049926759 .09498596 .04699707 .09298706 .04699707 .06498718 .04699707H.039993287V0C.07798767 .0029296876 .1349945 .0029296876 .17399597 .0029296876 .21598816 .0029907227 .2679901 .0029907227 .30899049 0V.04699707H.28399659C.2659912 .046920778 .24899292 .047927858 .23098755 .049926759 .20199585 .05291748 .20098877 .05392456 .20098877 .075927738V.6259308H.20199585L.47399903 .024917603C.48298646 .004989624 .49499513 0 .5059967 0 .526001 0 .5339966 .01499939 .5379944 .023986817L.81700137 .63853457H.81799319V.04699707H.70999148V0C.74598696 .0029296876 .83898928 .0029296876 .8799896 .0029296876 .92099 .0029907227 1.0149994 .0029907227 1.0509949 0Z"/>
<path id="font_2_28" d="M.5529938 .023986817C.5529938 .04699707 .5399933 .04699707 .5269928 .04699707 .46598817 .04798889 .46598817 .06100464 .46598817 .083999637V.29907228C.46598817 .3881073 .394989 .453125 .24598694 .453125 .18899536 .453125 .066986087 .44911195 .066986087 .36109925 .066986087 .3170929 .101989749 .29808045 .1289978 .29808045 .1599884 .29808045 .19198609 .3190918 .19198609 .36109925 .19198609 .39111329 .17298889 .40811158 .16999817 .41011048 .19799805 .41612245 .22999573 .41711427 .24198914 .41711427 .31698609 .41711427 .35198976 .3751068 .35198976 .29907228V.26506043C.2809906 .2620697 .026992798 .25306703 .026992798 .10801697 .026992798 .012130737 .15098572-.005859375 .21998596-.005859375 .2999878-.005859375 .34700013 .035125734 .36898805 .07713318 .36898805 .04598999 .36898805 0 .47299195 0H.5209961C.54100039 0 .5529938 0 .5529938 .023986817M.35198976 .13899231C.35198976 .043151857 .2599945 .030136109 .23498535 .030136109 .18399048 .030136109 .14399719 .06517029 .14399719 .10922241 .14399719 .21734619 .3019867 .23136902 .35198976 .234375V.13899231Z"/>
<path id="font_2_72" d="M.29299928 0V.04699707H.22399903V.69433596L.04699707 .6855469V.63853457C.10899353 .63853457 .115997318 .63853457 .115997318 .5995636V.04699707H.04699707V0L.16999817 .0029907227 .29299928 0Z"/>
<path id="font_2_50" d="M.49398805 .11706543C.49398805 .13504029 .47499085 .13504029 .46998597 .13504029 .45298768 .13504029 .45098878 .13005066 .44499208 .11405945 .42399598 .066101077 .36698915 .03413391 .3019867 .03413391 .16099549 .03413391 .1599884 .16700745 .1599884 .2179718H.46199037C.48399354 .2179718 .49398805 .2179718 .49398805 .2449646 .49398805 .27598573 .48799134 .34906007 .43798829 .3991089 .40098573 .43511964 .34799195 .453125 .2789917 .453125 .11898804 .453125 .03199768 .35005189 .03199768 .22497559 .03199768 .09107971 .13198853-.005859375 .29299928-.005859375 .45098878-.005859375 .49398805 .10006714 .49398805 .11706543M.39898683 .25097657H.1599884C.1619873 .29000855 .16299439 .3320465 .18399048 .36506654 .20999146 .4051056 .25 .41711427 .2789917 .41711427 .3959961 .41711427 .397995 .28599549 .39898683 .25097657Z"/>
<path id="font_2_62" d="M.8600006 0V.04699707H.7519989V.63853457H.8600006V.6855469C.82199099 .6825409 .723999 .6825409 .68099978 .6825409 .6380005 .6825409 .5399933 .6825409 .5019989 .6855469V.63853457H.6100006V.3798828H.2889862V.63853457H.39698792V.6855469C.35899354 .6825409 .26098634 .6825409 .21798706 .6825409 .1749878 .6825409 .07699585 .6825409 .038986207 .6855469V.63853457H.14698792V.04699707H.038986207V0C.07699585 .0029907227 .1749878 .0029907227 .21798706 .0029907227 .26098634 .0029907227 .35899354 .0029907227 .39698792 0V.04699707H.2889862V.33287049H.6100006V.04699707H.5019989V0C.5399933 .0029907227 .6380005 .0029907227 .68099978 .0029907227 .723999 .0029907227 .82199099 .0029907227 .8600006 0Z"/>
<path id="font_2_66" d="M.28599549 0V.04699707H.22399903V.4501953L.049987794 .4423828V.39537049C.10899353 .39537049 .115997318 .39537049 .115997318 .3563385V.04699707H.04699707V0L.16899109 .0029907227 .28599549 0M.23799134 .60728457C.23799134 .6502838 .20298767 .6852875 .1599884 .6852875 .116989139 .6852875 .08198547 .6502838 .08198547 .60728457 .08198547 .5642853 .116989139 .5292969 .1599884 .5292969 .20298767 .5292969 .23799134 .5642853 .23799134 .60728457Z"/>
<path id="font_2_59" d="M.55799868 .3970642C.55799868 .42007447 .54100039 .45507813 .49499513 .45507813 .47999574 .45507813 .43299867 .45207215 .3889923 .41706849 .37098695 .42918397 .32899476 .4501953 .25498963 .4501953 .11099243 .4501953 .055999757 .37243653 .055999757 .3024292 .055999757 .26127626 .07598877 .22012329 .10798645 .19703675 .07998657 .16191101 .07398987 .12878418 .07398987 .10771179 .07398987 .0927124 .07798767 .04371643 .117996219 .01171875 .10499573 .008712769 .03199768-.012252808 .03199768-.075164798 .03199768-.12609864 .08699036-.2010498 .2869873-.2010498 .46398927-.2010498 .5419922-.14207459 .5419922-.07217407 .5419922-.04222107 .5339966 .020706177 .46699525 .054718019 .41099549 .08300781 .35099793 .08300781 .25498963 .08300781 .22898865 .08300781 .18299866 .08300781 .17799378 .083984378 .13398743 .0909729 .12298584 .12898255 .12298584 .14697266 .12298584 .15698242 .1269989 .17198181 .1329956 .17997742 .1789856 .15629578 .22999573 .15429688 .25498963 .15429688 .39898683 .15429688 .45399476 .23234558 .45399476 .3024292 .45399476 .34942628 .42900086 .38243104 .4139862 .3984375 .44400025 .4144287 .46499635 .4164276 .47599793 .4174347 .47399903 .4124298 .47200013 .40342713 .47200013 .39743043 .47200013 .37219239 .4889984 .354187 .5149994 .354187 .54100039 .354187 .55799868 .3731842 .55799868 .39718629V.3970642M.34298707 .30221559C.34298707 .25724793 .34298707 .19029236 .25498963 .19029236 .16699219 .19021607 .16699219 .25733949 .16699219 .3024292 .16699219 .34742738 .16699219 .41418458 .25498963 .41418458 .34298707 .41418458 .34298707 .34742738 .34298707 .3024292V.30221559M.45599366-.07501221C.45599366-.11102295 .4169922-.16503906 .2869873-.16503906 .16699219-.16503906 .117996219-.11903381 .117996219-.073013309 .117996219-.013000488 .18099976-.013000488 .19499207-.013000488H.31199647C.34298707-.013000488 .45599366-.013000488 .45599366-.07501221Z"/>
<path id="font_2_63" d="M.61499026 0V.04699707H.54599V.30613709C.54599 .41119386 .49198915 .4501953 .3919983 .4501953 .29599 .4501953 .24499512 .3921814 .22299195 .3541565H.22200012V.69433596L.04499817 .6855469V.63853457C.10699463 .63853457 .11399841 .63853457 .11399841 .5996704V.04699707H.04499817V0L.17098999 .0029907227 .29699708 0V.04699707H.22799683V.25610353C.22799683 .36515809 .31399537 .41418458 .3769989 .41418458 .41099549 .41418458 .43199159 .39317323 .43199159 .31713868V.04699707H.36299134V0L.4889984 .0029907227 .61499026 0Z"/>
<path id="font_2_105" d="M.38198854 .124176029V.17721558H.33499146V.12619019C.33499146 .058151246 .30299378 .03413391 .2749939 .03413391 .21699524 .03413391 .21699524 .09817505 .21699524 .1211853V.3973236H.36299134V.44433595H.21699524V.6357422H.16999817C.16899109 .53552249 .11999512 .43632508 .020996094 .43333436V.3973236H.102996829V.123184207C.102996829 .01612854 .18998719-.005859375 .26098634-.005859375 .33699037-.005859375 .38198854 .05114746 .38198854 .124176029Z"/>
<path id="font_2_85" d="M.38198854-.23503113C.38198854-.23002625 .3789978-.22503662 .3789978-.22503662 .34999085-.19802857 .2849884-.13702393 .24299622-.009033203 .21699524 .06997681 .20498657 .16197205 .20498657 .24998474 .20498657 .4469757 .2559967 .60398867 .3659973 .7149811 .3809967 .72998049 .38198854 .73098757 .38198854 .73599246 .38198854 .74697878 .37199403 .75 .3639984 .75 .34700013 .75 .30499269 .7129822 .2869873 .6959839 .1309967 .5409851 .10798645 .35697938 .10798645 .25097657 .10798645 .12597656 .14099121 .015975953 .18798828-.06703186 .2539978-.18203736 .34498597-.24902344 .3639984-.24902344 .37199403-.24902344 .38198854-.24603272 .38198854-.23503113Z"/>
<path id="font_2_77" d="M.61499026 0V.04699707H.54599V.30613709C.54599 .41119386 .49198915 .4501953 .3919983 .4501953 .29599 .4501953 .24299622 .39318849 .21699524 .3421631V.4501953L.04499817 .4423828V.39537049C.10699463 .39537049 .11399841 .39537049 .11399841 .3563385V.04699707H.04499817V0L.17098999 .0029907227 .29699708 0V.04699707H.22799683V.2562256C.22799683 .3653412 .31399537 .41436769 .3769989 .41436769 .41099549 .41436769 .43199159 .39337159 .43199159 .31729127V.04699707H.36299134V0L.4889984 .0029907227 .61499026 0Z"/>
<path id="font_2_43" d="M.47799684 .117126468C.47799684 .13113404 .46398927 .13113404 .45399476 .13113404 .43598939 .13113404 .43499757 .12913513 .42999269 .11613464 .4039917 .053131105 .35598756 .03413391 .30499269 .03413391 .1659851 .03413391 .1659851 .18112183 .1659851 .22712708 .1659851 .28312684 .1659851 .41311646 .29499818 .41311646 .32998658 .41311646 .34700013 .41011048 .3600006 .40711976 .34199525 .39111329 .33999635 .3701172 .33999635 .3611145 .33999635 .3171234 .375 .29811097 .4019928 .29811097 .43299867 .29811097 .46499635 .3191223 .46499635 .3611145 .46499635 .44711305 .34899903 .453125 .29100038 .453125 .11199951 .45314027 .037994386 .33813478 .037994386 .22213745 .037994386 .08912659 .13198853-.005859375 .28599549-.005859375 .44799806-.005859375 .47799684 .11013794 .47799684 .117126468Z"/>
<path id="font_2_98" d="M.4149933 .14012146C.4149933 .18312073 .394989 .21812439 .3600006 .24612427 .32099916 .27511598 .2889862 .28112794 .21099854 .29412843 .17399597 .30111695 .10899353 .31211854 .10899353 .3591156 .10899353 .42111207 .20199585 .42111207 .22099304 .42111207 .29599 .42111207 .33399964 .39212037 .33898927 .33711244 .33999635 .32211305 .34098817 .3171234 .3619995 .3171234 .38598634 .3171234 .38598634 .32211305 .38598634 .3451233V.42510987C.38598634 .4441223 .38598634 .453125 .36799623 .453125 .3639984 .453125 .3619995 .453125 .32299806 .43411256 .29699708 .44711305 .2619934 .453125 .22200012 .453125 .19198609 .453125 .037994386 .453125 .037994386 .32211305 .037994386 .28211976 .057998659 .25512696 .07798767 .23812866 .117996219 .203125 .1559906 .1971283 .23298645 .18312073 .2689972 .17712403 .34399415 .16412354 .34399415 .10513306 .34399415 .030136109 .2519989 .030136109 .22999573 .030136109 .12399292 .030136109 .09799194 .103134158 .085998538 .14613343 .08099365 .16012573 .07598877 .16012573 .06199646 .16012573 .037994386 .16012573 .037994386 .15412903 .037994386 .13113404V.022140503C.037994386 .0031280518 .037994386-.005859375 .055999757-.005859375 .06298828-.005859375 .06498718-.005859375 .085998538 .009140015L.11199951 .026138306C.1579895-.005859375 .20999146-.005859375 .22999573-.005859375 .26098634-.005859375 .4149933-.005859375 .4149933 .14013672V.14012146Z"/>
<path id="font_2_86" d="M.33799745 .24998474C.33799745 .37498475 .30499269 .48498536 .2579956 .5679779 .19198609 .6829834 .100997928 .75 .08198547 .75 .07398987 .75 .06399536 .74697878 .06399536 .73599246 .06399536 .73098757 .06399536 .72898867 .08099365 .7129822 .20698548 .5849762 .24099732 .40797425 .24099732 .25097657 .24099732 .053970338 .18998719-.103027347 .07998657-.21403504 .06498718-.22903443 .06399536-.23002625 .06399536-.23503113 .06399536-.24603272 .07398987-.24902344 .08198547-.24902344 .09899902-.24902344 .14099121-.21203614 .15899658-.19502259 .31498719-.040023805 .33799745 .14398194 .33799745 .24998474Z"/>
<path id="font_2_54" d="M.6749878 .4391327 .6439972 .6798096H.038986207V.6328125H.14698792V.04699707H.038986207V0C.07699585 .0029907227 .17799378 .0029907227 .22200012 .0029907227 .2709961 .0029907227 .37998963 .0029907227 .42399598 0V.04699707H.2889862V.31724549H.33898927C.43499757 .31724549 .44400025 .2742157 .44400025 .20013428H.4909973V.48106385H.44400025C.44400025 .4071808 .43598939 .3642578 .33898927 .3642578H.2889862V.6328125H.42900086C.58999636 .6328125 .61299136 .5559387 .6279907 .4391327H.6749878Z"/>
<path id="font_2_75" d="M.93499758 0V.04699707H.8659973V.30613709C.8659973 .40919496 .8149872 .4501953 .71199038 .4501953 .62098696 .4501953 .56900027 .40019227 .54299929 .3541565 .522995 .44718934 .43099977 .4501953 .3929901 .4501953 .30599977 .4501953 .24899292 .40518189 .21699524 .3421631V.4501953L.04499817 .4423828V.39537049C.10699463 .39537049 .11399841 .39537049 .11399841 .3563385V.04699707H.04499817V0L.17098999 .0029907227 .29699708 0V.04699707H.22799683V.2562256C.22799683 .3653412 .31498719 .41436769 .3769989 .41436769 .41099549 .41436769 .43299867 .39437867 .43299867 .31729127V.04699707H.3639984V0L.48999024 .0029907227 .6159973 0V.04699707H.5469971V.2562256C.5469971 .3653412 .6339874 .41436769 .69599917 .41436769 .7299957 .41436769 .7519989 .39437867 .7519989 .31729127V.04699707H.68299868V0L.8089905 .0029907227 .93499758 0Z"/>
</defs>
<path transform="matrix(1,0,0,-1,32.023004,174.887)" stroke-width=".3985" stroke-linecap="butt" stroke-miterlimit="10" stroke-linejoin="miter" fill="none" stroke="#00aeef" d="M0 0H170.08257M0 8.50412H170.08257M0 17.00824H170.08257M0 25.51237H170.08257M0 34.0165H170.08257M0 42.52063H170.08257M0 51.02477H170.08257M0 59.52888H170.08257M0 68.03302H170.08257M0 76.53716H170.08257M0 85.04128H170.08257M0 93.54541H170.08257M0 102.04953H170.08257M0 110.55368H170.08257M0 119.0578H170.08257M0 127.56192H170.08257M0 136.06606H170.08257M0 144.57019H170.08257M0 153.07433H170.08257M0 161.57845H170.08257M0 170.07959H170.08257M0 0V170.08257M8.50412 0V170.08257M17.00824 0V170.08257M25.51237 0V170.08257M34.0165 0V170.08257M42.52063 0V170.08257M51.02477 0V170.08257M59.52888 0V170.08257M68.03302 0V170.08257M76.53716 0V170.08257M85.04128 0V170.08257M93.54541 0V170.08257M102.04953 0V170.08257M110.55368 0V170.08257M119.0578 0V170.08257M127.56192 0V170.08257M136.06606 0V170.08257M144.57019 0V170.08257M153.07433 0V170.08257M161.57845 0V170.08257M170.07959 0V170.08257M170.08257 170.08257"/>
<path transform="matrix(1,0,0,-1,32.023004,174.887)" stroke-width="1.19553" stroke-linecap="butt" stroke-miterlimit="10" stroke-linejoin="miter" fill="none" stroke="#000000" d="M0 0H170.08257"/>
<path transform="matrix(1,0,0,-1,32.023004,174.887)" stroke-width="1.19553" stroke-linecap="butt" stroke-miterlimit="10" stroke-linejoin="miter" fill="none" stroke="#000000" d="M0 0V170.08257"/>
<path transform="matrix(1,0,0,-1,32.023004,174.887)" stroke-width="1.19553" stroke-linecap="butt" stroke-miterlimit="10" stroke-linejoin="miter" fill="none" stroke="#00aeef" d="M0 0V170.08257"/>
<path transform="matrix(1,0,0,-1,32.023004,174.887)" stroke-width=".3985" stroke-linecap="butt" stroke-miterlimit="10" stroke-linejoin="miter" fill="none" stroke="#000000" d="M0 1.27554V-1.27568"/>
<path transform="matrix(1,0,0,-1,32.023004,174.887)" d="M-5.97766-11.88048H5.97768V-3.4674998H-5.97766Z" fill="#ffffff"/>
<use data-text="6" xlink:href="#font_1_3" transform="matrix(9.9626,0,0,-9.9626,27.042,185.771)"/>
<use data-text="0" xlink:href="#font_1_1" transform="matrix(9.9626,0,0,-9.9626,32.0233,185.771)"/>
<path transform="matrix(1,0,0,-1,32.023004,174.887)" stroke-width="1.19553" stroke-linecap="butt" stroke-miterlimit="10" stroke-linejoin="miter" fill="none" stroke="#00aeef" d="M42.52063 0V170.08257"/>
<path transform="matrix(1,0,0,-1,32.023004,174.887)" stroke-width=".3985" stroke-linecap="butt" stroke-miterlimit="10" stroke-linejoin="miter" fill="none" stroke="#000000" d="M42.52063 1.27554V-1.27568"/>
<path transform="matrix(1,0,0,-1,32.023004,174.887)" d="M36.54295-11.88048H48.49829V-3.4674998H36.54295Z" fill="#ffffff"/>
<use data-text="6" xlink:href="#font_1_3" transform="matrix(9.9626,0,0,-9.9626,69.562007,185.771)"/>
<use data-text="5" xlink:href="#font_1_2" transform="matrix(9.9626,0,0,-9.9626,74.543308,185.771)"/>
<path transform="matrix(1,0,0,-1,32.023004,174.887)" stroke-width="1.19553" stroke-linecap="butt" stroke-miterlimit="10" stroke-linejoin="miter" fill="none" stroke="#00aeef" d="M85.04128 0V170.08257"/>
<path transform="matrix(1,0,0,-1,32.023004,174.887)" stroke-width=".3985" stroke-linecap="butt" stroke-miterlimit="10" stroke-linejoin="miter" fill="none" stroke="#000000" d="M85.04128 1.27554V-1.27568"/>
<path transform="matrix(1,0,0,-1,32.023004,174.887)" d="M79.0636-11.88048H91.018939V-3.4674998H79.0636Z" fill="#ffffff"/>
<use data-text="7" xlink:href="#font_1_4" transform="matrix(9.9626,0,0,-9.9626,112.083,185.771)"/>
<use data-text="0" xlink:href="#font_1_1" transform="matrix(9.9626,0,0,-9.9626,117.0643,185.771)"/>
<path transform="matrix(1,0,0,-1,32.023004,174.887)" stroke-width="1.19553" stroke-linecap="butt" stroke-miterlimit="10" stroke-linejoin="miter" fill="none" stroke="#00aeef" d="M127.56192 0V170.08257"/>
<path transform="matrix(1,0,0,-1,32.023004,174.887)" stroke-width=".3985" stroke-linecap="butt" stroke-miterlimit="10" stroke-linejoin="miter" fill="none" stroke="#000000" d="M127.56192 1.27554V-1.27568"/>
<path transform="matrix(1,0,0,-1,32.023004,174.887)" d="M121.58424-11.88048H133.53958V-3.4674998H121.58424Z" fill="#ffffff"/>
<use data-text="7" xlink:href="#font_1_4" transform="matrix(9.9626,0,0,-9.9626,154.604,185.771)"/>
<use data-text="5" xlink:href="#font_1_2" transform="matrix(9.9626,0,0,-9.9626,159.5853,185.771)"/>
<path transform="matrix(1,0,0,-1,32.023004,174.887)" stroke-width="1.19553" stroke-linecap="butt" stroke-miterlimit="10" stroke-linejoin="miter" fill="none" stroke="#00aeef" d="M170.08257 0V170.08257"/>
<path transform="matrix(1,0,0,-1,32.023004,174.887)" stroke-width=".3985" stroke-linecap="butt" stroke-miterlimit="10" stroke-linejoin="miter" fill="none" stroke="#000000" d="M170.08257 1.27554V-1.27568"/>
<path transform="matrix(1,0,0,-1,32.023004,174.887)" d="M164.10489-11.88048H176.06023V-3.4674998H164.10489Z" fill="#ffffff"/>
<use data-text="8" xlink:href="#font_1_5" transform="matrix(9.9626,0,0,-9.9626,197.124,185.771)"/>
<use data-text="0" xlink:href="#font_1_1" transform="matrix(9.9626,0,0,-9.9626,202.1053,185.771)"/>
<path transform="matrix(1,0,0,-1,32.023004,174.887)" stroke-width="1.19553" stroke-linecap="butt" stroke-miterlimit="10" stroke-linejoin="miter" fill="none" stroke="#00aeef" d="M0 0H170.08257"/>
<path transform="matrix(1,0,0,-1,32.023004,174.887)" stroke-width=".3985" stroke-linecap="butt" stroke-miterlimit="10" stroke-linejoin="miter" fill="none" stroke="#000000" d="M1.27554 0H-1.27568"/>
<path transform="matrix(1,0,0,-1,32.023004,174.887)" d="M-15.42284-4.20648H-3.4674998V4.2065H-15.42284Z" fill="#ffffff"/>
<use data-text="5" xlink:href="#font_1_2" transform="matrix(9.9626,0,0,-9.9626,17.596,178.09699)"/>
<use data-text="5" xlink:href="#font_1_2" transform="matrix(9.9626,0,0,-9.9626,22.577301,178.09699)"/>
<path transform="matrix(1,0,0,-1,32.023004,174.887)" stroke-width="1.19553" stroke-linecap="butt" stroke-miterlimit="10" stroke-linejoin="miter" fill="none" stroke="#00aeef" d="M0 42.52063H170.08257"/>
<path transform="matrix(1,0,0,-1,32.023004,174.887)" stroke-width=".3985" stroke-linecap="butt" stroke-miterlimit="10" stroke-linejoin="miter" fill="none" stroke="#000000" d="M1.27554 42.52063H-1.27568"/>
<path transform="matrix(1,0,0,-1,32.023004,174.887)" d="M-15.42284 38.31413H-3.4674998V46.727109H-15.42284Z" fill="#ffffff"/>
<use data-text="6" xlink:href="#font_1_3" transform="matrix(9.9626,0,0,-9.9626,17.596,135.577)"/>
<use data-text="0" xlink:href="#font_1_1" transform="matrix(9.9626,0,0,-9.9626,22.577301,135.577)"/>
<path transform="matrix(1,0,0,-1,32.023004,174.887)" stroke-width="1.19553" stroke-linecap="butt" stroke-miterlimit="10" stroke-linejoin="miter" fill="none" stroke="#00aeef" d="M0 85.04128H170.08257"/>
<path transform="matrix(1,0,0,-1,32.023004,174.887)" stroke-width=".3985" stroke-linecap="butt" stroke-miterlimit="10" stroke-linejoin="miter" fill="none" stroke="#000000" d="M1.27554 85.04128H-1.27568"/>
<path transform="matrix(1,0,0,-1,32.023004,174.887)" d="M-15.42284 80.83478H-3.4674998V89.24776H-15.42284Z" fill="#ffffff"/>
<use data-text="6" xlink:href="#font_1_3" transform="matrix(9.9626,0,0,-9.9626,17.596,93.05599)"/>
<use data-text="5" xlink:href="#font_1_2" transform="matrix(9.9626,0,0,-9.9626,22.577301,93.05599)"/>
<path transform="matrix(1,0,0,-1,32.023004,174.887)" stroke-width="1.19553" stroke-linecap="butt" stroke-miterlimit="10" stroke-linejoin="miter" fill="none" stroke="#00aeef" d="M0 127.56192H170.08257"/>
<path transform="matrix(1,0,0,-1,32.023004,174.887)" stroke-width=".3985" stroke-linecap="butt" stroke-miterlimit="10" stroke-linejoin="miter" fill="none" stroke="#000000" d="M1.27554 127.56192H-1.27568"/>
<path transform="matrix(1,0,0,-1,32.023004,174.887)" d="M-15.42284 123.35542H-3.4674998V131.7684H-15.42284Z" fill="#ffffff"/>
<use data-text="7" xlink:href="#font_1_4" transform="matrix(9.9626,0,0,-9.9626,17.596,50.534997)"/>
<use data-text="0" xlink:href="#font_1_1" transform="matrix(9.9626,0,0,-9.9626,22.577301,50.534997)"/>
<path transform="matrix(1,0,0,-1,32.023004,174.887)" stroke-width="1.19553" stroke-linecap="butt" stroke-miterlimit="10" stroke-linejoin="miter" fill="none" stroke="#00aeef" d="M0 170.08257H170.08257"/>
<path transform="matrix(1,0,0,-1,32.023004,174.887)" stroke-width=".3985" stroke-linecap="butt" stroke-miterlimit="10" stroke-linejoin="miter" fill="none" stroke="#000000" d="M1.27554 170.08257H-1.27568"/>
<path transform="matrix(1,0,0,-1,32.023004,174.887)" d="M-15.42284 165.87607H-3.4674998V174.28905H-15.42284Z" fill="#ffffff"/>
<use data-text="7" xlink:href="#font_1_4" transform="matrix(9.9626,0,0,-9.9626,17.596,8.014999)"/>
<use data-text="5" xlink:href="#font_1_2" transform="matrix(9.9626,0,0,-9.9626,22.577301,8.014999)"/>
<path transform="matrix(1,0,0,-1,32.023004,174.887)" d="M53.57602 34.0165C53.57602 35.42552 52.43379 36.56776 51.02477 36.56776 49.61574 36.56776 48.47351 35.42552 48.47351 34.0165 48.47351 32.60748 49.61574 31.46524 51.02477 31.46524 52.43379 31.46524 53.57602 32.60748 53.57602 34.0165ZM51.02477 34.0165" fill="#ff0000"/>
<path transform="matrix(1,0,0,-1,32.023004,174.887)" stroke-width=".3985" stroke-linecap="butt" stroke-miterlimit="10" stroke-linejoin="miter" fill="none" stroke="#ff0000" d="M53.57602 34.0165C53.57602 35.42552 52.43379 36.56776 51.02477 36.56776 49.61574 36.56776 48.47351 35.42552 48.47351 34.0165 48.47351 32.60748 49.61574 31.46524 51.02477 31.46524 52.43379 31.46524 53.57602 32.60748 53.57602 34.0165ZM51.02477 34.0165"/>
<path transform="matrix(1,0,0,-1,32.023004,174.887)" d="M53.57602 136.06606C53.57602 137.47509 52.43379 138.61731 51.02477 138.61731 49.61574 138.61731 48.47351 137.47509 48.47351 136.06606 48.47351 134.65703 49.61574 133.5148 51.02477 133.5148 52.43379 133.5148 53.57602 134.65703 53.57602 136.06606ZM51.02477 136.06606" fill="#ff0000"/>
<path transform="matrix(1,0,0,-1,32.023004,174.887)" stroke-width=".3985" stroke-linecap="butt" stroke-miterlimit="10" stroke-linejoin="miter" fill="none" stroke="#ff0000" d="M53.57602 136.06606C53.57602 137.47509 52.43379 138.61731 51.02477 138.61731 49.61574 138.61731 48.47351 137.47509 48.47351 136.06606 48.47351 134.65703 49.61574 133.5148 51.02477 133.5148 52.43379 133.5148 53.57602 134.65703 53.57602 136.06606ZM51.02477 136.06606"/>
<path transform="matrix(1,0,0,-1,32.023004,174.887)" d="M70.58429 68.03302C70.58429 69.44205 69.44205 70.58429 68.03302 70.58429 66.624 70.58429 65.48177 69.44205 65.48177 68.03302 65.48177 66.624 66.624 65.48177 68.03302 65.48177 69.44205 65.48177 70.58429 66.624 70.58429 68.03302ZM68.03302 68.03302" fill="#ff0000"/>
<path transform="matrix(1,0,0,-1,32.023004,174.887)" stroke-width=".3985" stroke-linecap="butt" stroke-miterlimit="10" stroke-linejoin="miter" fill="none" stroke="#ff0000" d="M70.58429 68.03302C70.58429 69.44205 69.44205 70.58429 68.03302 70.58429 66.624 70.58429 65.48177 69.44205 65.48177 68.03302 65.48177 66.624 66.624 65.48177 68.03302 65.48177 69.44205 65.48177 70.58429 66.624 70.58429 68.03302ZM68.03302 68.03302"/>
<path transform="matrix(1,0,0,-1,32.023004,174.887)" d="M74.83633 63.78096C74.83633 65.18999 73.6941 66.33221 72.28508 66.33221 70.87605 66.33221 69.73383 65.18999 69.73383 63.78096 69.73383 62.37193 70.87605 61.2297 72.28508 61.2297 73.6941 61.2297 74.83633 62.37193 74.83633 63.78096ZM72.28508 63.78096" fill="#ff0000"/>
<path transform="matrix(1,0,0,-1,32.023004,174.887)" stroke-width=".3985" stroke-linecap="butt" stroke-miterlimit="10" stroke-linejoin="miter" fill="none" stroke="#ff0000" d="M74.83633 63.78096C74.83633 65.18999 73.6941 66.33221 72.28508 66.33221 70.87605 66.33221 69.73383 65.18999 69.73383 63.78096 69.73383 62.37193 70.87605 61.2297 72.28508 61.2297 73.6941 61.2297 74.83633 62.37193 74.83633 63.78096ZM72.28508 63.78096"/>
<path transform="matrix(1,0,0,-1,32.023004,174.887)" d="M74.83633 85.04128C74.83633 86.4503 73.6941 87.59253 72.28508 87.59253 70.87605 87.59253 69.73383 86.4503 69.73383 85.04128 69.73383 83.63225 70.87605 82.49002 72.28508 82.49002 73.6941 82.49002 74.83633 83.63225 74.83633 85.04128ZM72.28508 85.04128" fill="#ff0000"/>
<path transform="matrix(1,0,0,-1,32.023004,174.887)" stroke-width=".3985" stroke-linecap="butt" stroke-miterlimit="10" stroke-linejoin="miter" fill="none" stroke="#ff0000" d="M74.83633 85.04128C74.83633 86.4503 73.6941 87.59253 72.28508 87.59253 70.87605 87.59253 69.73383 86.4503 69.73383 85.04128 69.73383 83.63225 70.87605 82.49002 72.28508 82.49002 73.6941 82.49002 74.83633 83.63225 74.83633 85.04128ZM72.28508 85.04128"/>
<path transform="matrix(1,0,0,-1,32.023004,174.887)" d="M87.59253 76.53716C87.59253 77.94618 86.4503 79.08841 85.04128 79.08841 83.63225 79.08841 82.49002 77.94618 82.49002 76.53716 82.49002 75.12813 83.63225 73.98589 85.04128 73.98589 86.4503 73.98589 87.59253 75.12813 87.59253 76.53716ZM85.04128 76.53716" fill="#ff0000"/>
<path transform="matrix(1,0,0,-1,32.023004,174.887)" stroke-width=".3985" stroke-linecap="butt" stroke-miterlimit="10" stroke-linejoin="miter" fill="none" stroke="#ff0000" d="M87.59253 76.53716C87.59253 77.94618 86.4503 79.08841 85.04128 79.08841 83.63225 79.08841 82.49002 77.94618 82.49002 76.53716 82.49002 75.12813 83.63225 73.98589 85.04128 73.98589 86.4503 73.98589 87.59253 75.12813 87.59253 76.53716ZM85.04128 76.53716"/>
<path transform="matrix(1,0,0,-1,32.023004,174.887)" d="M87.59253 85.04128C87.59253 86.4503 86.4503 87.59253 85.04128 87.59253 83.63225 87.59253 82.49002 86.4503 82.49002 85.04128 82.49002 83.63225 83.63225 82.49002 85.04128 82.49002 86.4503 82.49002 87.59253 83.63225 87.59253 85.04128ZM85.04128 85.04128" fill="#ff0000"/>
<path transform="matrix(1,0,0,-1,32.023004,174.887)" stroke-width=".3985" stroke-linecap="butt" stroke-miterlimit="10" stroke-linejoin="miter" fill="none" stroke="#ff0000" d="M87.59253 85.04128C87.59253 86.4503 86.4503 87.59253 85.04128 87.59253 83.63225 87.59253 82.49002 86.4503 82.49002 85.04128 82.49002 83.63225 83.63225 82.49002 85.04128 82.49002 86.4503 82.49002 87.59253 83.63225 87.59253 85.04128ZM85.04128 85.04128"/>
<path transform="matrix(1,0,0,-1,32.023004,174.887)" d="M91.8446 99.92351C91.8446 101.33253 90.70236 102.47476 89.29335 102.47476 87.88432 102.47476 86.74208 101.33253 86.74208 99.92351 86.74208 98.51448 87.88432 97.37225 89.29335 97.37225 90.70236 97.37225 91.8446 98.51448 91.8446 99.92351ZM89.29335 99.92351" fill="#ff0000"/>
<path transform="matrix(1,0,0,-1,32.023004,174.887)" stroke-width=".3985" stroke-linecap="butt" stroke-miterlimit="10" stroke-linejoin="miter" fill="none" stroke="#ff0000" d="M91.8446 99.92351C91.8446 101.33253 90.70236 102.47476 89.29335 102.47476 87.88432 102.47476 86.74208 101.33253 86.74208 99.92351 86.74208 98.51448 87.88432 97.37225 89.29335 97.37225 90.70236 97.37225 91.8446 98.51448 91.8446 99.92351ZM89.29335 99.92351"/>
<path transform="matrix(1,0,0,-1,32.023004,174.887)" d="M96.09666 63.78096C96.09666 65.18999 94.95444 66.33221 93.54541 66.33221 92.13638 66.33221 90.99416 65.18999 90.99416 63.78096 90.99416 62.37193 92.13638 61.2297 93.54541 61.2297 94.95444 61.2297 96.09666 62.37193 96.09666 63.78096ZM93.54541 63.78096" fill="#ff0000"/>
<path transform="matrix(1,0,0,-1,32.023004,174.887)" stroke-width=".3985" stroke-linecap="butt" stroke-miterlimit="10" stroke-linejoin="miter" fill="none" stroke="#ff0000" d="M96.09666 63.78096C96.09666 65.18999 94.95444 66.33221 93.54541 66.33221 92.13638 66.33221 90.99416 65.18999 90.99416 63.78096 90.99416 62.37193 92.13638 61.2297 93.54541 61.2297 94.95444 61.2297 96.09666 62.37193 96.09666 63.78096ZM93.54541 63.78096"/>
<path transform="matrix(1,0,0,-1,32.023004,174.887)" d="M96.09666 85.04128C96.09666 86.4503 94.95444 87.59253 93.54541 87.59253 92.13638 87.59253 90.99416 86.4503 90.99416 85.04128 90.99416 83.63225 92.13638 82.49002 93.54541 82.49002 94.95444 82.49002 96.09666 83.63225 96.09666 85.04128ZM93.54541 85.04128" fill="#ff0000"/>
<path transform="matrix(1,0,0,-1,32.023004,174.887)" stroke-width=".3985" stroke-linecap="butt" stroke-miterlimit="10" stroke-linejoin="miter" fill="none" stroke="#ff0000" d="M96.09666 85.04128C96.09666 86.4503 94.95444 87.59253 93.54541 87.59253 92.13638 87.59253 90.99416 86.4503 90.99416 85.04128 90.99416 83.63225 92.13638 82.49002 93.54541 82.49002 94.95444 82.49002 96.09666 83.63225 96.09666 85.04128ZM93.54541 85.04128"/>
<path transform="matrix(1,0,0,-1,32.023004,174.887)" d="M104.6008 93.54541C104.6008 94.95444 103.45856 96.09666 102.04953 96.09666 100.6405 96.09666 99.49828 94.95444 99.49828 93.54541 99.49828 92.13638 100.6405 90.99416 102.04953 90.99416 103.45856 90.99416 104.6008 92.13638 104.6008 93.54541ZM102.04953 93.54541" fill="#ff0000"/>
<path transform="matrix(1,0,0,-1,32.023004,174.887)" stroke-width=".3985" stroke-linecap="butt" stroke-miterlimit="10" stroke-linejoin="miter" fill="none" stroke="#ff0000" d="M104.6008 93.54541C104.6008 94.95444 103.45856 96.09666 102.04953 96.09666 100.6405 96.09666 99.49828 94.95444 99.49828 93.54541 99.49828 92.13638 100.6405 90.99416 102.04953 90.99416 103.45856 90.99416 104.6008 92.13638 104.6008 93.54541ZM102.04953 93.54541"/>
<path transform="matrix(1,0,0,-1,32.023004,174.887)" d="M104.6008 108.42763C104.6008 109.83665 103.45856 110.97888 102.04953 110.97888 100.6405 110.97888 99.49828 109.83665 99.49828 108.42763 99.49828 107.0186 100.6405 105.87637 102.04953 105.87637 103.45856 105.87637 104.6008 107.0186 104.6008 108.42763ZM102.04953 108.42763" fill="#ff0000"/>
<path transform="matrix(1,0,0,-1,32.023004,174.887)" stroke-width=".3985" stroke-linecap="butt" stroke-miterlimit="10" stroke-linejoin="miter" fill="none" stroke="#ff0000" d="M104.6008 108.42763C104.6008 109.83665 103.45856 110.97888 102.04953 110.97888 100.6405 110.97888 99.49828 109.83665 99.49828 108.42763 99.49828 107.0186 100.6405 105.87637 102.04953 105.87637 103.45856 105.87637 104.6008 107.0186 104.6008 108.42763ZM102.04953 108.42763"/>
<path transform="matrix(1,0,0,-1,32.023004,174.887)" d="M113.10493 108.42763C113.10493 109.83665 111.9627 110.97888 110.55368 110.97888 109.14465 110.97888 108.00241 109.83665 108.00241 108.42763 108.00241 107.0186 109.14465 105.87637 110.55368 105.87637 111.9627 105.87637 113.10493 107.0186 113.10493 108.42763ZM110.55368 108.42763" fill="#ff0000"/>
<path transform="matrix(1,0,0,-1,32.023004,174.887)" stroke-width=".3985" stroke-linecap="butt" stroke-miterlimit="10" stroke-linejoin="miter" fill="none" stroke="#ff0000" d="M113.10493 108.42763C113.10493 109.83665 111.9627 110.97888 110.55368 110.97888 109.14465 110.97888 108.00241 109.83665 108.00241 108.42763 108.00241 107.0186 109.14465 105.87637 110.55368 105.87637 111.9627 105.87637 113.10493 107.0186 113.10493 108.42763ZM110.55368 108.42763"/>
<path transform="matrix(1,0,0,-1,32.023004,174.887)" d="M121.60905 59.52888C121.60905 60.93791 120.46683 62.08014 119.0578 62.08014 117.64877 62.08014 116.50655 60.93791 116.50655 59.52888 116.50655 58.11986 117.64877 56.97763 119.0578 56.97763 120.46683 56.97763 121.60905 58.11986 121.60905 59.52888ZM119.0578 59.52888" fill="#ff0000"/>
<path transform="matrix(1,0,0,-1,32.023004,174.887)" stroke-width=".3985" stroke-linecap="butt" stroke-miterlimit="10" stroke-linejoin="miter" fill="none" stroke="#ff0000" d="M121.60905 59.52888C121.60905 60.93791 120.46683 62.08014 119.0578 62.08014 117.64877 62.08014 116.50655 60.93791 116.50655 59.52888 116.50655 58.11986 117.64877 56.97763 119.0578 56.97763 120.46683 56.97763 121.60905 58.11986 121.60905 59.52888ZM119.0578 59.52888"/>
<path transform="matrix(1,0,0,-1,32.023004,174.887)" d="M125.86113 110.55368C125.86113 111.9627 124.71889 113.10493 123.30986 113.10493 121.90085 113.10493 120.7586 111.9627 120.7586 110.55368 120.7586 109.14465 121.90085 108.00241 123.30986 108.00241 124.71889 108.00241 125.86113 109.14465 125.86113 110.55368ZM123.30986 110.55368" fill="#ff0000"/>
<path transform="matrix(1,0,0,-1,32.023004,174.887)" stroke-width=".3985" stroke-linecap="butt" stroke-miterlimit="10" stroke-linejoin="miter" fill="none" stroke="#ff0000" d="M125.86113 110.55368C125.86113 111.9627 124.71889 113.10493 123.30986 113.10493 121.90085 113.10493 120.7586 111.9627 120.7586 110.55368 120.7586 109.14465 121.90085 108.00241 123.30986 108.00241 124.71889 108.00241 125.86113 109.14465 125.86113 110.55368ZM123.30986 110.55368"/>
<path transform="matrix(1,0,0,-1,32.023004,174.887)" d="M134.36525 123.30986C134.36525 124.71889 133.22303 125.86113 131.814 125.86113 130.40497 125.86113 129.26274 124.71889 129.26274 123.30986 129.26274 121.90085 130.40497 120.7586 131.814 120.7586 133.22303 120.7586 134.36525 121.90085 134.36525 123.30986ZM131.814 123.30986" fill="#ff0000"/>
<path transform="matrix(1,0,0,-1,32.023004,174.887)" stroke-width=".3985" stroke-linecap="butt" stroke-miterlimit="10" stroke-linejoin="miter" fill="none" stroke="#ff0000" d="M134.36525 123.30986C134.36525 124.71889 133.22303 125.86113 131.814 125.86113 130.40497 125.86113 129.26274 124.71889 129.26274 123.30986 129.26274 121.90085 130.40497 120.7586 131.814 120.7586 133.22303 120.7586 134.36525 121.90085 134.36525 123.30986ZM131.814 123.30986"/>
<use data-text="M" xlink:href="#font_2_74" transform="matrix(9.9626,0,0,-9.9626,64.316,202.89499)"/>
<use data-text="a" xlink:href="#font_2_28" transform="matrix(9.9626,0,0,-9.9626,75.19516,202.89499)"/>
<use data-text="l" xlink:href="#font_2_72" transform="matrix(9.9626,0,0,-9.9626,80.76425,202.89499)"/>
<use data-text="e" xlink:href="#font_2_50" transform="matrix(9.9626,0,0,-9.9626,83.94232,202.89499)"/>
<use data-text="H" xlink:href="#font_2_62" transform="matrix(9.9626,0,0,-9.9626,93.008289,202.89499)"/>
<use data-text="e" xlink:href="#font_2_50" transform="matrix(9.9626,0,0,-9.9626,101.974628,202.89499)"/>
<use data-text="i" xlink:href="#font_2_66" transform="matrix(9.9626,0,0,-9.9626,107.224918,202.89499)"/>
<use data-text="g" xlink:href="#font_2_59" transform="matrix(9.9626,0,0,-9.9626,110.402988,202.89499)"/>
<use data-text="h" xlink:href="#font_2_63" transform="matrix(9.9626,0,0,-9.9626,116.131488,202.89499)"/>
<use data-text="t" xlink:href="#font_2_105" transform="matrix(9.9626,0,0,-9.9626,122.18875,202.89499)"/>
<use data-text="(" xlink:href="#font_2_85" transform="matrix(9.9626,0,0,-9.9626,130.44774,202.89499)"/>
<use data-text="i" xlink:href="#font_2_66" transform="matrix(9.9626,0,0,-9.9626,134.90102,202.89499)"/>
<use data-text="n" xlink:href="#font_2_77" transform="matrix(9.9626,0,0,-9.9626,138.07909,202.89499)"/>
<use data-text="c" xlink:href="#font_2_43" transform="matrix(9.9626,0,0,-9.9626,144.44519,202.89499)"/>
<use data-text="h" xlink:href="#font_2_63" transform="matrix(9.9626,0,0,-9.9626,149.22724,202.89499)"/>
<use data-text="e" xlink:href="#font_2_50" transform="matrix(9.9626,0,0,-9.9626,155.59334,202.89499)"/>
<use data-text="s" xlink:href="#font_2_98" transform="matrix(9.9626,0,0,-9.9626,160.84363,202.89499)"/>
<use data-text=")" xlink:href="#font_2_86" transform="matrix(9.9626,0,0,-9.9626,165.36666,202.89499)"/>
<use data-text="F" xlink:href="#font_2_54" transform="matrix(0,-9.9626,-9.9626,-0,9.006989,147.68)"/>
<use data-text="e" xlink:href="#font_2_50" transform="matrix(0,-9.9626,-9.9626,-0,9.006989,141.41353)"/>
<use data-text="m" xlink:href="#font_2_75" transform="matrix(0,-9.9626,-9.9626,-0,9.006989,136.16324)"/>
<use data-text="a" xlink:href="#font_2_28" transform="matrix(0,-9.9626,-9.9626,-0,9.006989,126.619068)"/>
<use data-text="l" xlink:href="#font_2_72" transform="matrix(0,-9.9626,-9.9626,-0,9.006989,121.04997)"/>
<use data-text="e" xlink:href="#font_2_50" transform="matrix(0,-9.9626,-9.9626,-0,9.006989,117.8719)"/>
<use data-text="H" xlink:href="#font_2_62" transform="matrix(0,-9.9626,-9.9626,-0,9.006989,108.8159)"/>
<use data-text="e" xlink:href="#font_2_50" transform="matrix(0,-9.9626,-9.9626,-0,9.006989,99.84956)"/>
<use data-text="i" xlink:href="#font_2_66" transform="matrix(0,-9.9626,-9.9626,-0,9.006989,94.59927)"/>
<use data-text="g" xlink:href="#font_2_59" transform="matrix(0,-9.9626,-9.9626,-0,9.006989,91.4212)"/>
<use data-text="h" xlink:href="#font_2_63" transform="matrix(0,-9.9626,-9.9626,-0,9.006989,85.6927)"/>
<use data-text="t" xlink:href="#font_2_105" transform="matrix(0,-9.9626,-9.9626,-0,9.006989,79.63544)"/>
<use data-text="(" xlink:href="#font_2_85" transform="matrix(0,-9.9626,-9.9626,-0,9.006989,71.37645)"/>
<use data-text="i" xlink:href="#font_2_66" transform="matrix(0,-9.9626,-9.9626,-0,9.006989,66.92317)"/>
<use data-text="n" xlink:href="#font_2_77" transform="matrix(0,-9.9626,-9.9626,-0,9.006989,63.745103)"/>
<use data-text="c" xlink:href="#font_2_43" transform="matrix(0,-9.9626,-9.9626,-0,9.006989,57.378999)"/>
<use data-text="h" xlink:href="#font_2_63" transform="matrix(0,-9.9626,-9.9626,-0,9.006989,52.596956)"/>
<use data-text="e" xlink:href="#font_2_50" transform="matrix(0,-9.9626,-9.9626,-0,9.006989,46.23085)"/>
<use data-text="s" xlink:href="#font_2_98" transform="matrix(0,-9.9626,-9.9626,-0,9.006989,40.98056)"/>
<use data-text=")" xlink:href="#font_2_86" transform="matrix(0,-9.9626,-9.9626,-0,9.006989,36.457536)"/>
</svg>
