<svg xmlns="http://www.w3.org/2000/svg" xmlns:xlink="http://www.w3.org/1999/xlink" version="1.1" width="181" height="151" viewBox="0 0 181 151">
<defs>
<path id="font_1_2" d="M.20599365 .3996582H.2999878C.31999208 .3996582 .32998658 .3996582 .32998658 .41966249 .32998658 .43066407 .31999208 .43066407 .3019867 .43066407H.21398926C.25 .5724945 .25498963 .59246829 .25498963 .59846499 .25498963 .61546328 .24299622 .62545779 .22599793 .62545779 .22299195 .62545779 .19499207 .62446597 .18598938 .58947756L.14698792 .43066407H.052993776C.032989503 .43066407 .022994996 .43066407 .022994996 .4116516 .022994996 .3996582 .0309906 .3996582 .050994874 .3996582H.13899231C.066986087 .11608887 .06298828 .099121097 .06298828 .08114624 .06298828 .02722168 .100997928-.0107421879 .15499878-.0107421879 .25698854-.0107421879 .31399537 .13505554 .31399537 .14305115 .31399537 .1530304 .30599977 .1530304 .3019867 .1530304 .29299928 .1530304 .2919922 .15003968 .2869873 .13905335 .24398804 .035217287 .19099427 .011245728 .15699768 .011245728 .13598633 .011245728 .12599182 .024230957 .12599182 .057174684 .12599182 .08114624 .12799073 .088134769 .13198853 .10510254L.20599365 .3996582Z"/>
<path id="font_1_1" d="M.7559967 .577652C.7659912 .61763 .7839966 .64860537 .8639984 .6516113 .86898806 .6516113 .8809967 .65260317 .8809967 .6716156 .8809967 .6726074 .8809967 .6826172 .8679962 .6826172 .83499148 .6826172 .7999878 .6796112 .7669983 .6796112 .73298647 .6796112 .69799807 .6826172 .6649933 .6826172 .6589966 .6826172 .6469879 .6826172 .6469879 .6626129 .6469879 .6516113 .6569977 .6516113 .6649933 .6516113 .7220001 .65060427 .73298647 .6296234 .73298647 .6076355 .73298647 .6046295 .73098757 .5896454 .7299957 .5866394L.6179962 .141922 .39698792 .66360476C.3889923 .6816101 .3880005 .6826172 .36499024 .6826172H.23098755C.21099854 .6826172 .20199585 .6826172 .20199585 .6626129 .20199585 .6516113 .21099854 .6516113 .22999573 .6516113 .23498535 .6516113 .2979889 .6516113 .2979889 .64260867L.1639862 .10594177C.1539917 .065963748 .13699341 .033996583 .055999757 .0309906 .049987794 .0309906 .038986207 .02999878 .038986207 .010986328 .038986207 .0039978029 .04399109 0 .051986696 0 .083999637 0 .11898804 .0029907227 .1519928 .0029907227 .18598938 .0029907227 .22200012 0 .25498963 0 .2599945 0 .272995 0 .272995 .019989014 .272995 .02999878 .2639923 .0309906 .25299073 .0309906 .19499207 .032989503 .18699646 .054977418 .18699646 .07496643 .18699646 .081954959 .18798828 .08695984 .19099427 .09794617L.32299806 .6256256C.32699586 .6196289 .32699586 .61763 .33198548 .6076355L.58099368 .018997193C.58799746 .0019989014 .59098818 0 .59999087 0 .61099246 0 .61099246 .0029907227 .6159973 .020996094L.7559967 .577652Z"/>
<path id="font_2_1" d="M.33099366-.2400055C.33099366-.23701477 .33099366-.23500061 .31399537-.21800232 .18899536-.0920105 .15699768 .09700012 .15699768 .25 .15699768 .42399598 .19499207 .59799197 .31799317 .72299197 .33099366 .73498538 .33099366 .7369995 .33099366 .73999026 .33099366 .746994 .32699586 .75 .32099916 .75 .31098939 .75 .22099304 .6819916 .1619873 .5549927 .11099243 .44499208 .09899902 .33399964 .09899902 .25 .09899902 .17199707 .10998535 .050994874 .16499329-.06201172 .22499085-.18501282 .31098939-.25 .32099916-.25 .32699586-.25 .33099366-.24700928 .33099366-.2400055Z"/>
<path id="font_2_2" d="M.2889862 .25C.2889862 .32798768 .27799989 .44898988 .22299195 .56199648 .16299439 .68499758 .07699585 .75 .066986087 .75 .06098938 .75 .056991579 .74598696 .056991579 .73999026 .056991579 .7369995 .056991579 .73498538 .07598877 .71699526 .17399597 .6179962 .23098755 .45899964 .23098755 .25 .23098755 .07899475 .19400025-.09700012 .069992069-.2230072 .056991579-.23500061 .056991579-.23701477 .056991579-.2400055 .056991579-.2460022 .06098938-.25 .066986087-.25 .07699585-.25 .16699219-.18200684 .22599793-.055007936 .2769928 .054992677 .2889862 .16600037 .2889862 .25Z"/>
<path id="font_2_4" d="M.2939911 .64004519C.2939911 .66400149 .2939911 .6660156 .2709961 .6660156 .20899964 .60227969 .12098694 .60227969 .08898926 .60227969V.57128909C.10899353 .57128909 .16799927 .57128909 .21998596 .5972748V.07902527C.21998596 .042999269 .21699524 .0309906 .1269989 .0309906H.09498596V0C.12998963 .0029907227 .21699524 .0029907227 .25698854 .0029907227 .29699708 .0029907227 .38398744 .0029907227 .4189911 0V.0309906H.3869934C.29699708 .0309906 .2939911 .041992189 .2939911 .07902527V.64004519Z"/>
<path id="font_2_3" d="M.45999146 .31976319C.45999146 .39982606 .45498658 .47988893 .41999818 .5539398 .37399293 .65000918 .2919922 .6660156 .25 .6660156 .18998719 .6660156 .116989139 .64001467 .07598877 .54693606 .04399109 .47789 .038986207 .39982606 .038986207 .31976319 .038986207 .24472046 .042999269 .15464783 .083999637 .07859802 .1269989-.0024719239 .19999695-.022460938 .24899292-.022460938 .30299378-.022460938 .3789978-.0014648438 .4229889 .09359741 .45498658 .16265869 .45999146 .2407074 .45999146 .31976319M.24899292-.00047302247C.20999146-.00047302247 .15098572 .024551392 .1329956 .12062073 .12199402 .18066406 .12199402 .2727356 .12199402 .3317871 .12199402 .39582826 .12199402 .46188355 .12998963 .5159149 .14898682 .63500979 .22399903 .64401248 .24899292 .64401248 .28199769 .64401248 .34799195 .6259918 .36698915 .52693179 .3769989 .47088624 .3769989 .39482118 .3769989 .3317871 .3769989 .25672914 .3769989 .18867493 .3659973 .12461853 .35099793 .029556275 .2939911-.00047302247 .24899292-.00047302247Z"/>
<path id="font_2_5" d="M.1269989 .07699585 .23298645 .18003845C.3889923 .31811524 .44898988 .3721466 .44898988 .47216798 .44898988 .5860901 .35899354 .6660156 .23699951 .6660156 .12399292 .6660156 .049987794 .57411196 .049987794 .48516847 .049987794 .4291687 .099990848 .4291687 .102996829 .4291687 .11999512 .4291687 .15499878 .44117738 .15499878 .48217774 .15499878 .5081787 .13699341 .5341797 .101989749 .5341797 .09399414 .5341797 .09199524 .5341797 .08898926 .5331726 .11199951 .59806826 .1659851 .63500979 .22399903 .63500979 .31498719 .63500979 .35798646 .5541382 .35798646 .47216798 .35798646 .39215089 .30799867 .31311036 .25299073 .25108338L.06098938 .036987306C.049987794 .025985718 .049987794 .023986817 .049987794 0H.42099L.44898988 .17404175H.42399598C.4189911 .14402771 .4119873 .1000061 .4019928 .084991458 .394989 .07699585 .32899476 .07699585 .30699159 .07699585H.1269989Z"/>
<path id="font_2_6" d="M.2899933 .35191346C.37199403 .37893678 .42999269 .4490509 .42999269 .52809146 .42999269 .6100464 .34199525 .6660156 .24598694 .6660156 .14498902 .6660156 .068984989 .60606387 .068984989 .53009036 .068984989 .49710084 .09098816 .47808839 .11999512 .47808839 .15098572 .47808839 .17098999 .50009158 .17098999 .5290985 .17098999 .57910159 .12399292 .57910159 .10899353 .57910159 .13999939 .62802127 .20599365 .64100649 .24198914 .64100649 .2829895 .64100649 .33799745 .6190338 .33799745 .5290985 .33799745 .51708987 .33599855 .45906068 .30999757 .4149933 .27999879 .36691285 .24598694 .36390687 .22099304 .36291505 .21299744 .36190797 .18899536 .35990907 .18199158 .35990907 .17399597 .35890199 .16699219 .35791017 .16699219 .3479004 .16699219 .33691407 .17399597 .33691407 .19099427 .33691407H.23498535C.31698609 .33691407 .35398866 .2686615 .35398866 .17037964 .35398866 .034469606 .2849884 .0055389406 .24099732 .0055389406 .19799805 .0055389406 .12298584 .022491456 .08799744 .08137512 .12298584 .07637024 .1539917 .09837341 .1539917 .1363678 .1539917 .17237854 .1269989 .19238281 .09799194 .19238281 .07398987 .19238281 .041992189 .17837525 .041992189 .1343689 .041992189 .043441774 .1349945-.022460938 .24398804-.022460938 .3659973-.022460938 .45700074 .06838989 .45700074 .17037964 .45700074 .252594 .3939972 .33088685 .2899933 .35191346Z"/>
<path id="font_2_7" d="M.2939911 .16503906V.07800293C.2939911 .041992189 .2919922 .0309906 .21798706 .0309906H.19699097V0C.23799134 .0029907227 .2899933 .0029907227 .33198548 .0029907227 .37399293 .0029907227 .4269867 .0029907227 .46798707 0V.0309906H.44699098C.37298585 .0309906 .37098695 .041992189 .37098695 .07800293V.16503906H.47099305V.19602967H.37098695V.65075686C.37098695 .67074587 .37098695 .6767578 .35499574 .6767578 .34599305 .6767578 .34298707 .6767578 .33499146 .66474917L.027999878 .19602967V.16503906H.2939911M.2999878 .19602967H.055999757L.2999878 .5688019V.19602967Z"/>
<path id="font_2_8" d="M.44898988 .20022583C.44898988 .3193512 .36698915 .41944886 .25898744 .41944886 .21099854 .41944886 .16799927 .40345765 .13198853 .36842347V.5637665C.1519928 .5577698 .18499756 .55078127 .21699524 .55078127 .33999635 .55078127 .4099884 .6417694 .4099884 .6547699 .4099884 .6607666 .40699769 .6657715 .3999939 .6657715 .39898683 .6657715 .39698792 .6657715 .3919983 .66278079 .37199403 .6537781 .32299806 .6337738 .2559967 .6337738 .21598816 .6337738 .16999817 .6407776 .12298584 .6617737 .114990238 .66477969 .11299133 .66477969 .11099243 .66477969 .100997928 .66477969 .100997928 .6567688 .100997928 .6407776V.34439088C.100997928 .32637025 .100997928 .31835938 .114990238 .31835938 .12199402 .31835938 .12399292 .32136537 .12799073 .32736207 .13899231 .3433838 .17599488 .39746095 .25698854 .39746095 .30899049 .39746095 .33399964 .35139466 .34199525 .33337403 .35798646 .29632569 .3600006 .25727845 .3600006 .20722962 .3600006 .17222595 .3600006 .11222839 .33599855 .07035828 .31199647 .031463624 .2749939 .0055389406 .22898865 .0055389406 .1559906 .0055389406 .09899902 .058380128 .08198547 .11723328 .084991458 .1162262 .08799744 .115234378 .09899902 .115234378 .13198853 .115234378 .14898682 .14022827 .14898682 .16423035 .14898682 .18823242 .13198853 .21322632 .09899902 .21322632 .084991458 .21322632 .049987794 .20622254 .049987794 .16023255 .049987794 .07434082 .11898804-.022460938 .23098755-.022460938 .34700013-.022460938 .44898988 .073349 .44898988 .20022583Z"/>
<path id="font_2_9" d="M.13198853 .327713V.35173036C.13198853 .6047821 .2559967 .64100649 .30699159 .64100649 .33099366 .64100649 .37298585 .634964 .394989 .6007538 .37998963 .6007538 .33999635 .6007538 .33999635 .5557556 .33999635 .524765 .3639984 .5097656 .38598634 .5097656 .4019928 .5097656 .43199159 .51875308 .43199159 .5577545 .43199159 .6178589 .3880005 .6660156 .30499269 .6660156 .1769867 .6660156 .041992189 .5367584 .041992189 .31570436 .041992189 .048553468 .1579895-.022460938 .25099183-.022460938 .3619995-.022460938 .45700074 .07156372 .45700074 .2036438 .45700074 .33070375 .36799623 .4267578 .25698854 .4267578 .18899536 .4267578 .1519928 .37573243 .13198853 .327713M.25099183 .0055389406C.18798828 .0055389406 .1579895 .06556702 .1519928 .080566409 .13398743 .127594 .13398743 .2076416 .13398743 .22564698 .13398743 .30369569 .1659851 .40374757 .2559967 .40374757 .27198792 .40374757 .31799317 .40374757 .34899903 .34172059 .36698915 .30470277 .36698915 .2536621 .36698915 .20463562 .36698915 .15661621 .36698915 .10658264 .34999085 .0705719 .31999208 .010528564 .27398683 .0055389406 .25099183 .0055389406Z"/>
</defs>
<path transform="matrix(1.00002,0,0,-1.00003,15.282005,138.06575)" stroke-width=".3985" stroke-linecap="butt" stroke-miterlimit="10" stroke-linejoin="miter" fill="none" stroke="#00aeef" d="M0 0H153.06653M0 22.67795H153.06653M0 45.35591H153.06653M0 68.03389H153.06653M0 90.71185H153.06653M0 113.38821H153.06653M0 0V113.38982M25.51108 0V113.38982M51.02217 0V113.38982M76.53326 0V113.38982M102.04436 0V113.38982M127.55545 0V113.38982M153.06563 0V113.38982M153.06653 113.38982"/>
<path transform="matrix(1.00002,0,0,-1.00003,15.282005,138.06575)" stroke-width=".79701" stroke-linecap="butt" stroke-miterlimit="10" stroke-linejoin="miter" fill="none" stroke="#000000" d="M0 0H161.83637"/>
<path transform="matrix(1.00002,0,0,-1.00003,177.12162,138.06575)" d="M1.0361 0C-.25902 .25902-1.55415 .77707-3.1083 1.68365-1.55415 .51805-1.55415-.51805-3.1083-1.68365-1.55415-.77707-.25902-.25902 1.0361 0Z"/>
<path transform="matrix(1.00002,0,0,-1.00003,177.12162,138.06575)" stroke-width=".79701" stroke-linecap="butt" stroke-linejoin="round" fill="none" stroke="#000000" d="M1.0361 0C-.25902 .25902-1.55415 .77707-3.1083 1.68365-1.55415 .51805-1.55415-.51805-3.1083-1.68365-1.55415-.77707-.25902-.25902 1.0361 0Z"/>
<use data-text="t" xlink:href="#font_1_2" transform="matrix(9.962799,0,0,-9.962899,176.75724,134.34664)"/>
<path transform="matrix(1.00002,0,0,-1.00003,15.282005,138.06575)" stroke-width=".79701" stroke-linecap="butt" stroke-miterlimit="10" stroke-linejoin="miter" fill="none" stroke="#000000" d="M0 0V121.0264"/>
<path transform="matrix(0,-1.00003,-1.00002,-0,15.282005,17.035714)" d="M1.0361 0C-.25902 .25902-1.55415 .77707-3.1083 1.68365-1.55415 .51805-1.55415-.51805-3.1083-1.68365-1.55415-.77707-.25902-.25902 1.0361 0Z"/>
<path transform="matrix(0,-1.00003,-1.00002,-0,15.282005,17.035714)" stroke-width=".79701" stroke-linecap="butt" stroke-linejoin="round" fill="none" stroke="#000000" d="M1.0361 0C-.25902 .25902-1.55415 .77707-3.1083 1.68365-1.55415 .51805-1.55415-.51805-3.1083-1.68365-1.55415-.77707-.25902-.25902 1.0361 0Z"/>
<use data-text="N" xlink:href="#font_1_1" transform="matrix(9.962799,0,0,-9.962899,5.0627977,9.390884)"/>
<use data-text="(" xlink:href="#font_2_1" transform="matrix(9.962799,0,0,-9.962899,14.152977,9.390884)"/>
<use data-text="t" xlink:href="#font_1_2" transform="matrix(9.962799,0,0,-9.962899,18.028054,9.390884)"/>
<use data-text=")" xlink:href="#font_2_2" transform="matrix(9.962799,0,0,-9.962899,21.62513,9.390884)"/>
<path transform="matrix(1.00002,0,0,-1.00003,15.282005,138.06575)" stroke-width=".79701" stroke-linecap="butt" stroke-miterlimit="10" stroke-linejoin="miter" fill="none" stroke="#000000" d="M25.51108 .6803V-.68037"/>
<use data-text="1" xlink:href="#font_2_4" transform="matrix(9.962799,0,0,-9.962899,35.812417,148.88608)"/>
<use data-text="0" xlink:href="#font_2_3" transform="matrix(9.962799,0,0,-9.962899,40.793817,148.88608)"/>
<path transform="matrix(1.00002,0,0,-1.00003,15.282005,138.06575)" stroke-width=".79701" stroke-linecap="butt" stroke-miterlimit="10" stroke-linejoin="miter" fill="none" stroke="#000000" d="M51.02217 .6803V-.68037"/>
<use data-text="2" xlink:href="#font_2_5" transform="matrix(9.962799,0,0,-9.962899,61.32393,148.88608)"/>
<use data-text="0" xlink:href="#font_2_3" transform="matrix(9.962799,0,0,-9.962899,66.30533,148.88608)"/>
<path transform="matrix(1.00002,0,0,-1.00003,15.282005,138.06575)" stroke-width=".79701" stroke-linecap="butt" stroke-miterlimit="10" stroke-linejoin="miter" fill="none" stroke="#000000" d="M76.53326 .6803V-.68037"/>
<use data-text="3" xlink:href="#font_2_6" transform="matrix(9.962799,0,0,-9.962899,86.83544,148.88608)"/>
<use data-text="0" xlink:href="#font_2_3" transform="matrix(9.962799,0,0,-9.962899,91.81684,148.88608)"/>
<path transform="matrix(1.00002,0,0,-1.00003,15.282005,138.06575)" stroke-width=".79701" stroke-linecap="butt" stroke-miterlimit="10" stroke-linejoin="miter" fill="none" stroke="#000000" d="M102.04436 .6803V-.68037"/>
<use data-text="4" xlink:href="#font_2_7" transform="matrix(9.962799,0,0,-9.962899,112.346958,148.88608)"/>
<use data-text="0" xlink:href="#font_2_3" transform="matrix(9.962799,0,0,-9.962899,117.328357,148.88608)"/>
<path transform="matrix(1.00002,0,0,-1.00003,15.282005,138.06575)" stroke-width=".79701" stroke-linecap="butt" stroke-miterlimit="10" stroke-linejoin="miter" fill="none" stroke="#000000" d="M127.55545 .6803V-.68037"/>
<use data-text="5" xlink:href="#font_2_8" transform="matrix(9.962799,0,0,-9.962899,137.85846,148.88608)"/>
<use data-text="0" xlink:href="#font_2_3" transform="matrix(9.962799,0,0,-9.962899,142.83986,148.88608)"/>
<path transform="matrix(1.00002,0,0,-1.00003,15.282005,138.06575)" stroke-width=".79701" stroke-linecap="butt" stroke-miterlimit="10" stroke-linejoin="miter" fill="none" stroke="#000000" d="M153.06653 .6803V-.68037"/>
<use data-text="6" xlink:href="#font_2_9" transform="matrix(9.962799,0,0,-9.962899,163.36997,148.88608)"/>
<use data-text="0" xlink:href="#font_2_3" transform="matrix(9.962799,0,0,-9.962899,168.35138,148.88608)"/>
<path transform="matrix(1.00002,0,0,-1.00003,15.282005,138.06575)" stroke-width=".79701" stroke-linecap="butt" stroke-miterlimit="10" stroke-linejoin="miter" fill="none" stroke="#000000" d="M.38264 22.67795H-.38268"/>
<use data-text="5" xlink:href="#font_2_8" transform="matrix(9.962799,0,0,-9.962899,6.198822,118.59717)"/>
<path transform="matrix(1.00002,0,0,-1.00003,15.282005,138.06575)" stroke-width=".79701" stroke-linecap="butt" stroke-miterlimit="10" stroke-linejoin="miter" fill="none" stroke="#000000" d="M.38264 45.35591H-.38268"/>
<use data-text="1" xlink:href="#font_2_4" transform="matrix(9.962799,0,0,-9.962899,1.2167282,95.91849)"/>
<use data-text="0" xlink:href="#font_2_3" transform="matrix(9.962799,0,0,-9.962899,6.1981279,95.91849)"/>
<path transform="matrix(1.00002,0,0,-1.00003,15.282005,138.06575)" stroke-width=".79701" stroke-linecap="butt" stroke-miterlimit="10" stroke-linejoin="miter" fill="none" stroke="#000000" d="M.38264 68.03389H-.38268"/>
<use data-text="1" xlink:href="#font_2_4" transform="matrix(9.962799,0,0,-9.962899,1.2167282,73.23981)"/>
<use data-text="5" xlink:href="#font_2_8" transform="matrix(9.962799,0,0,-9.962899,6.1981279,73.23981)"/>
<path transform="matrix(1.00002,0,0,-1.00003,15.282005,138.06575)" stroke-width=".79701" stroke-linecap="butt" stroke-miterlimit="10" stroke-linejoin="miter" fill="none" stroke="#000000" d="M.38264 90.71185H-.38268"/>
<use data-text="2" xlink:href="#font_2_5" transform="matrix(9.962799,0,0,-9.962899,1.2167282,50.56112)"/>
<use data-text="0" xlink:href="#font_2_3" transform="matrix(9.962799,0,0,-9.962899,6.1981279,50.56112)"/>
<path transform="matrix(1.00002,0,0,-1.00003,15.282005,138.06575)" stroke-width=".79701" stroke-linecap="butt" stroke-miterlimit="10" stroke-linejoin="miter" fill="none" stroke="#000000" d="M.38264 113.38982H-.38268"/>
<use data-text="2" xlink:href="#font_2_5" transform="matrix(9.962799,0,0,-9.962899,1.2167282,27.882439)"/>
<use data-text="5" xlink:href="#font_2_8" transform="matrix(9.962799,0,0,-9.962899,6.1981279,27.882439)"/>
<path transform="matrix(1.00002,0,0,-1.00003,15.282005,138.06575)" stroke-width="1.19553" stroke-linecap="butt" stroke-miterlimit="10" stroke-linejoin="miter" fill="none" stroke="#ff0000" d="M0 113.38982C0 113.38982 1.72797 108.13437 2.39165 106.2026 3.05533 104.27083 4.11964 101.27823 4.78331 99.46696 5.44699 97.6557 6.5113 94.84648 7.17497 93.1483 7.83865 91.45012 8.90297 88.81848 9.56665 87.22758 10.23032 85.6367 11.29463 83.17094 11.95831 81.68233 12.62198 80.19371 13.6863 77.89296 14.34998 76.49867 15.01364 75.10442 16.07796 72.93954 16.74164 71.63338 17.40532 70.32721 18.46962 68.30733 19.13332 67.0847 19.79698 65.86208 20.86128 63.96707 21.52496 62.82152 22.18864 61.67593 23.25296 59.89986 23.91663 58.82823 24.5803 57.75659 25.64462 56.10187 26.30829 55.09793 26.97198 54.094 28.03629 52.5336 28.69997 51.59256 29.36363 50.65152 30.42795 49.19516 31.09163 48.31558 31.7553 47.436 32.81963 46.07776 33.48329 45.25314 34.14697 44.42853 35.21127 43.14514 35.87495 42.37238 36.53864 41.59961 37.60294 40.406 38.26663 39.68365 38.9303 38.9613 39.9946 37.8444 40.6583 37.16623 41.32196 36.48805 42.38628 35.43155 43.04994 34.79587 43.71364 34.16019 44.77794 33.17812 45.4416 32.58467 46.1053 31.99124 47.1696 31.07433 47.83328 30.51883 48.49696 29.96333 49.56126 29.1017 50.22495 28.58102 50.88861 28.06032 51.95294 27.25409 52.61661 26.76604 53.28029 26.27802 54.3446 25.52158 55.00827 25.06354 55.67195 24.6055 56.73625 23.89287 57.39995 23.46484 58.06361 23.03682 59.12791 22.37831 59.79161 21.9786 60.45528 21.57892 61.51959 20.95856 62.18327 20.58408 62.84695 20.20958 63.91125 19.63048 64.57492 19.27951 65.23862 18.92854 66.30292 18.38486 66.9666 18.05453 67.63028 17.72421 68.69458 17.20723 69.35826 16.89877 70.02194 16.59029 71.08626 16.11931 71.74992 15.83124 72.4136 15.54317 73.47792 15.09308 74.14159 14.82253 74.80527 14.55199 75.86958 14.13458 76.53326 13.88132 77.19693 13.62805 78.26123 13.23485 78.92493 12.99718 79.5886 12.75954 80.65291 12.39047 81.31659 12.16841 81.98027 11.94637 83.04457 11.6044 83.70825 11.39674 84.37193 11.1891 85.43623 10.86673 86.09991 10.67181 86.7636 10.47688 87.8279 10.17429 88.49158 9.99184 89.15526 9.80939 90.21957 9.52681 90.88324 9.35686 91.54694 9.1869 92.61124 8.92603 93.2749 8.76686 93.93858 8.6077 95.0029 8.3593 95.66658 8.20975 96.33025 8.06018 97.39456 7.8289 98.05824 7.68895 98.72191 7.54901 99.78622 7.3333 100.4499 7.20103 101.11359 7.06876 102.17789 6.85829 102.84157 6.73563 103.50525 6.61295 104.56955 6.43166 105.23325 6.31691 105.89691 6.20218 106.96121 6.01733 107.6249 5.90858 108.28857 5.79984 109.35289 5.63397 110.01656 5.53313 110.68025 5.43231 111.74455 5.27625 112.40822 5.1819 113.07191 5.08755 114.13622 4.94127 114.7999 4.85316 115.46356 4.76506 116.52788 4.63023 117.19156 4.54694 117.85522 4.46362 118.91956 4.33154 119.58322 4.25279 120.2469 4.17406 121.3112 4.05193 121.97488 3.97943 122.63857 3.90694 123.70287 3.79796 124.36656 3.73027 125.03023 3.66257 126.09453 3.55609 126.75822 3.4915 127.42189 3.42693 128.4862 3.32463 129.14987 3.26486 129.81357 3.2051 130.87787 3.11566 131.54154 3.0607 132.20523 3.00572 133.26953 2.92049 133.93321 2.86864 134.5969 2.8168 135.6612 2.73569 136.32488 2.68697 136.98854 2.63823 138.05287 2.56302 138.71654 2.51741 139.38022 2.4718 140.44454 2.4024 141.1082 2.35823 141.77188 2.31407 142.83618 2.24011 143.49988 2.19905 144.16355 2.158 145.22785 2.10005 145.89154 2.06236 146.5552 2.02469 147.61952 1.96198 148.2832 1.92741 148.94689 1.89285 150.01119 1.84634 150.67485 1.81322 151.33855 1.7801 153.06653 1.68864 151.1962 1.78755"/>
<path transform="matrix(.9986,.052811587,.052811058,-.99860998,166.48123,136.27812)" d="M1.27522 0C-.31879 .31879-1.91284 .9564-3.8257 2.07224-1.91284 .6376-1.91284-.6376-3.8257-2.07224-1.91284-.9564-.31879-.31879 1.27522 0Z" fill="#ff0000"/>
<path transform="matrix(.9986,.052811587,.052811058,-.99860998,166.48123,136.27812)" stroke-width="1.19553" stroke-linecap="butt" stroke-linejoin="round" fill="none" stroke="#ff0000" d="M1.27522 0C-.31879 .31879-1.91284 .9564-3.8257 2.07224-1.91284 .6376-1.91284-.6376-3.8257-2.07224-1.91284-.9564-.31879-.31879 1.27522 0Z"/>
</svg>
