<svg xmlns="http://www.w3.org/2000/svg" xmlns:xlink="http://www.w3.org/1999/xlink" version="1.1" width="169" height="171" viewBox="0 0 169 171">
<defs>
<path id="font_1_5" d="M.33399964 .30233766C.33999635 .32835389 .36299134 .42037965 .43299867 .42037965 .43798829 .42037965 .46199037 .42037965 .48298646 .40734864 .45498658 .402359 .43499757 .37734986 .43499757 .35334779 .43499757 .33735658 .44599916 .31835938 .47299195 .31835938 .49499513 .31835938 .5269928 .3363495 .5269928 .37635804 .5269928 .42837525 .46798707 .4423828 .43399049 .4423828 .37599183 .4423828 .34098817 .38935853 .32899476 .36634828 .3039856 .43237306 .25 .4423828 .22099304 .4423828 .116989139 .4423828 .05999756 .3133545 .05999756 .28834535 .05999756 .27833558 .069992069 .27833558 .07199097 .27833558 .07998657 .27833558 .08299255 .28033448 .084991458 .28933717 .11898804 .39535523 .18499756 .42037965 .21899414 .42037965 .23799134 .42037965 .272995 .4113617 .272995 .35334779 .272995 .32235719 .2559967 .25532533 .21899414 .11528015 .20298767 .053268434 .16799927 .011245728 .12399292 .011245728 .117996219 .011245728 .09498596 .011245728 .07398987 .024276734 .09899902 .029266358 .12098694 .05027771 .12098694 .07827759 .12098694 .105270389 .09899902 .11328125 .083999637 .11328125 .053985597 .11328125 .0289917 .08728027 .0289917 .055267335 .0289917 .009246826 .07899475-.0107421879 .12298584-.0107421879 .18899536-.0107421879 .22499085 .059280397 .22799683 .0652771 .23999024 .028274537 .27598573-.0107421879 .33599855-.0107421879 .43899537-.0107421879 .49598695 .118270877 .49598695 .14328003 .49598695 .1532898 .4869995 .1532898 .48399354 .1532898 .47499085 .1532898 .47299195 .14929199 .47099305 .14228821 .43798829 .03527832 .36999513 .011245728 .33799745 .011245728 .29899598 .011245728 .2829895 .043273927 .2829895 .07727051 .2829895 .09927368 .2889862 .121276859 .2999878 .16529846L.33399964 .30233766Z"/>
<path id="font_1_6" d="M.48599244 .38136292C.48999024 .39537049 .48999024 .39736939 .48999024 .40437318 .48999024 .42237855 .47599793 .43138124 .46099855 .43138124 .45098878 .43138124 .43499757 .42536927 .42599488 .41036988 .42399598 .405365 .41600038 .37435914 .4119873 .35635377 .40499879 .33035279 .397995 .30334474 .3919983 .27633668L.34700013 .09628296C.34298707 .08126831 .2999878 .011245728 .23399353 .011245728 .18299866 .011245728 .17199707 .055267335 .17199707 .0922699 .17199707 .1382904 .18899536 .20030213 .22299195 .28833009 .23899842 .3293457 .24299622 .3403473 .24299622 .36035157 .24299622 .405365 .21099854 .4423828 .16099549 .4423828 .06599426 .4423828 .0289917 .29733277 .0289917 .28833009 .0289917 .27833558 .038986207 .27833558 .040985109 .27833558 .050994874 .27833558 .051986696 .28033448 .056991579 .29634095 .083999637 .3903656 .12399292 .42037965 .1579895 .42037965 .1659851 .42037965 .18299866 .42037965 .18299866 .3883667 .18299866 .36335755 .17298889 .3373413 .1659851 .31834413 .12599182 .21231079 .10798645 .1552887 .10798645 .10827637 .10798645 .019256592 .17098999-.0107421879 .22999573-.0107421879 .2689972-.0107421879 .30299378 .0062561037 .33099366 .03425598 .31799317-.017745972 .30599977-.06674194 .2659912-.11973572 .23999024-.15385437 .20199585-.18309021 .1559906-.18309021 .14199829-.18309021 .09700012-.18005371 .07998657-.14074707 .09599304-.14074707 .10899353-.14074707 .12298584-.1287384 .1329956-.11973572 .14299011-.10673523 .14299011-.08773804 .14299011-.056747438 .115997318-.052734376 .10598755-.052734376 .08299255-.052734376 .049987794-.068740848 .049987794-.11773682 .049987794-.16796875 .09399414-.20507813 .1559906-.20507813 .25898744-.20507813 .3619995-.11373901 .3899994-.00074768069L.48599244 .38136292Z"/>
<path id="font_2_104" d="M.68499758 .45214845 .66600039 .6767578H.054992677L.035995485 .45214845H.06098938C.07499695 .6128235 .08999634 .64575198 .24099732 .64575198 .25898744 .64575198 .2849884 .64575198 .29499818 .64375308 .31599427 .6397705 .31599427 .6287842 .31599427 .60583499V.07901001C.31599427 .04499817 .31599427 .0309906 .21099854 .0309906H.17098999V0C.21199036 .0029907227 .31399537 .0029907227 .3600006 .0029907227 .4059906 .0029907227 .5089874 .0029907227 .5499878 0V.0309906H.5099945C.40499879 .0309906 .40499879 .04499817 .40499879 .07901001V.60583499C.40499879 .62579348 .40499879 .6397705 .4229889 .64375308 .43399049 .64575198 .46099855 .64575198 .47999574 .64575198 .6309967 .64575198 .6459961 .6128235 .6599884 .45214845H.68499758Z"/>
<path id="font_2_96" d="M.3639984 .38137818C.3639984 .41337586 .33299256 .4423828 .2899933 .4423828 .21699524 .4423828 .18099976 .37538148 .16699219 .3323822V.4423828L.027999878 .43066407V.3996582C.09799194 .3996582 .10598755 .39266969 .10598755 .34370423V.07595825C.10598755 .0309906 .09498596 .0309906 .027999878 .0309906V0L.14199829 .0029907227C.18199158 .0029907227 .22898865 .0029907227 .2689972 0V.0309906H.24798584C.17399597 .0309906 .17199707 .04197693 .17199707 .07795715V.23181153C.17199707 .33137513 .21398926 .42037965 .2899933 .42037965 .29699708 .42037965 .29899598 .42037965 .30099488 .41937257 .2979889 .41838075 .27799989 .40637208 .27799989 .3803711 .27799989 .35237123 .29899598 .33737184 .32099916 .33737184 .33898927 .33737184 .3639984 .3493805 .3639984 .38137818Z"/>
<path id="font_2_28" d="M.48298646 .08912659V.14511109H.45799256V.08912659C.45799256 .03112793 .43299867 .025131226 .42199708 .025131226 .3889923 .025131226 .3849945 .070129398 .3849945 .07511902V.27508546C.3849945 .31707765 .3849945 .3560791 .34899903 .39312745 .30999757 .43223573 .2599945 .4482422 .21199036 .4482422 .12998963 .4482422 .06098938 .40115357 .06098938 .335083 .06098938 .30508424 .08099365 .28808595 .10699463 .28808595 .1349945 .28808595 .15299988 .30807496 .15299988 .33407594 .15299988 .3460846 .147995 .37908937 .101989749 .38008119 .1289978 .41519166 .17799378 .426239 .20999146 .426239 .25898744 .426239 .31599427 .38710023 .31599427 .29808045V.26107789C.2649994 .25808717 .19499207 .25508119 .13198853 .22509766 .056991579 .19110108 .03199768 .13911438 .03199768 .09512329 .03199768 .014251709 .1289978-.0107421879 .19198609-.0107421879 .2579956-.0107421879 .3039856 .029251099 .32299806 .07624817 .32699586 .036132814 .35398866-.005859375 .40098573-.005859375 .42199708-.005859375 .48298646 .008132935 .48298646 .08912659M.31599427 .14013672C.31599427 .04525757 .24398804 .011245728 .19898987 .011245728 .1499939 .011245728 .10899353 .04624939 .10899353 .09625244 .10899353 .15124512 .15098572 .23425293 .31599427 .24024964V.14013672Z"/>
<path id="font_2_77" d="M.5349884 0V.0309906C.48298646 .0309906 .45799256 .0309906 .45700074 .061019899V.25221253C.45700074 .3383026 .45700074 .36932374 .42599488 .405365 .4119873 .42237855 .3789978 .4423828 .32099916 .4423828 .24798584 .4423828 .20098877 .39935304 .17298889 .33729554V.4423828L.03199768 .43066407V.3996582C.101989749 .3996582 .10998535 .39266969 .10998535 .34370423V.07595825C.10998535 .0309906 .09899902 .0309906 .03199768 .0309906V0L.14498902 .0029907227 .25698854 0V.0309906C.18998719 .0309906 .1789856 .0309906 .1789856 .07595825V.25978089C.1789856 .36431886 .25 .42037965 .31399537 .42037965 .3769989 .42037965 .3880005 .36631776 .3880005 .30926515V.076034549C.3880005 .0309906 .3769989 .0309906 .30999757 .0309906V0L.4229889 .0029907227 .5349884 0Z"/>
<path id="font_2_98" d="M.3600006 .12823487C.3600006 .18122864 .32998658 .21122742 .31799317 .22323609 .2849884 .25523377 .24598694 .26322938 .20399475 .27124024 .147995 .28224183 .08099365 .29522706 .08099365 .35324098 .08099365 .38822938 .10699463 .42922975 .19299317 .42922975 .30299378 .42922975 .30799867 .3392334 .30999757 .30822755 .31098939 .2992401 .32199098 .2992401 .32199098 .2992401 .33499146 .2992401 .33499146 .30422975 .33499146 .32322694V.4242401C.33499146 .4412384 .33499146 .4482422 .32398988 .4482422 .31900025 .4482422 .31698609 .4482422 .3039856 .43623353 .30099488 .43223573 .29100038 .42323304 .2869873 .42022706 .24899292 .4482422 .20799256 .4482422 .19299317 .4482422 .070999149 .4482422 .032989503 .38124085 .032989503 .3252411 .032989503 .29023744 .04899597 .26223756 .07598877 .24023438 .10798645 .2142334 .13598633 .2082367 .20799256 .19422913 .22999573 .19021607 .31199647 .17422486 .31199647 .10221863 .31199647 .051223756 .2769928 .011245728 .19898987 .011245728 .114990238 .011245728 .07899475 .068222049 .05999756 .1532135 .056991579 .16621399 .055999757 .17021179 .04598999 .17021179 .032989503 .17021179 .032989503 .16322327 .032989503 .1452179V.013214111C.032989503-.003753662 .032989503-.0107421879 .04399109-.0107421879 .04899597-.0107421879 .049987794-.009750366 .068984989 .009246826 .070999149 .011245728 .070999149 .013214111 .08898926 .032226564 .1329956-.009750366 .17799378-.0107421879 .19898987-.0107421879 .31399537-.0107421879 .3600006 .05621338 .3600006 .1282196V.12823487Z"/>
<path id="font_2_112" d="M.5079956 .3996582V.43066407C.4850006 .4286499 .45599366 .42765809 .43299867 .42765809L.34599305 .43066407V.3996582C.3829956 .39865113 .3939972 .37568666 .3939972 .35671998 .3939972 .34773255 .3919983 .34373475 .3880005 .3327484L.28599549 .078125 .17399597 .35671998C.16799927 .3697052 .16799927 .37368775 .16799927 .37368775 .16799927 .3996582 .20698548 .3996582 .22499085 .3996582V.43066407L.115997318 .42765809C.08898926 .42765809 .04899597 .4286499 .018997193 .43066407V.3996582C.08198547 .3996582 .085998538 .3936615 .09899902 .36271668L.24299622 .008224487C.24899292-.0057525637 .25099183-.0107421879 .2639923-.0107421879 .2769928-.0107421879 .2809906-.0017700195 .2849884 .008224487L.41600038 .3327484C.4249878 .3557129 .44198609 .39865113 .5079956 .3996582Z"/>
<path id="font_2_50" d="M.4149933 .11933899C.4149933 .12934876 .40699769 .13134766 .4019928 .13134766 .3929901 .13134766 .3909912 .12535095 .3889923 .11734009 .35398866 .014251709 .2639923 .014251709 .2539978 .014251709 .20399475 .014251709 .1639862 .044281007 .14099121 .08131409 .11099243 .12934876 .11099243 .19540406 .11099243 .23144531H.3899994C.4119873 .23144531 .4149933 .23144531 .4149933 .2524414 .4149933 .35131837 .36099244 .4482422 .23599243 .4482422 .11999512 .4482422 .027999878 .34532167 .027999878 .22042847 .027999878 .08631897 .1329956-.0107421879 .24798584-.0107421879 .36999513-.0107421879 .4149933 .10032654 .4149933 .11933899M.34899903 .2524414H.11199951C.117996219 .40126039 .20199585 .426239 .23599243 .426239 .33898927 .426239 .34899903 .2913971 .34899903 .2524414Z"/>
<path id="font_2_116" d="M.5159912 0V.0309906C.46199037 .03125 .44400025 .0332489 .42099 .0622406L.2869873 .23493958C.31698609 .27287293 .35499574 .3217926 .3789978 .3477478 .4099884 .38368226 .45098878 .39866639 .49798585 .3996582V.43066407C.47200013 .4286499 .44198609 .42765809 .41600038 .42765809 .38598634 .42765809 .33299256 .42965699 .31999208 .43066407V.3996582C.34098817 .3973999 .34899903 .3843994 .34899903 .3684082 .34899903 .35240174 .33898927 .33940126 .33399964 .33340455L.27198792 .2554016 .19400025 .35639955C.18499756 .3664093 .18499756 .3684082 .18499756 .3744049 .18499756 .3894043 .19999695 .39840699 .21998596 .39941407V.43066407L.11199951 .42765809C.09098816 .42765809 .04399109 .4286499 .016998291 .43066407V.3996582C.08699036 .3996582 .08799744 .39865113 .1349945 .3387146L.23399353 .20982361C.18699646 .14988709 .18699646 .14788819 .13999939 .09094238 .09199524 .032989503 .032989503 .0309906 .011993408 .0309906V0C.037994386 .0019989014 .068984989 .0029907227 .09498596 .0029907227L.18998719 0V.0309906C.16799927 .034240724 .16099549 .04724121 .16099549 .0622406 .16099549 .084243778 .18998719 .117248538 .25099183 .1892395L.32699586 .08924866C.33499146 .07824707 .34799195 .0622406 .34799195 .056243898 .34799195 .04724121 .33898927 .03224182 .31199647 .03125V0L.41999818 .0029907227C.44699098 .0029907227 .48599244 .0019989014 .5159912 0Z"/>
<path id="font_2_66" d="M.24699402 0V.0309906C.18099976 .0309906 .1769867 .035995485 .1769867 .075042728V.4423828L.036987306 .43066407V.3996582C.101989749 .3996582 .11099243 .3936615 .11099243 .3447113V.07595825C.11099243 .0309906 .099990848 .0309906 .032989503 .0309906V0L.14299011 .0029907227C.17799378 .0029907227 .21299744 .0009918213 .24699402 0M.19198609 .603775C.19198609 .6307678 .16899109 .6567688 .13899231 .6567688 .10499573 .6567688 .084991458 .6287689 .084991458 .603775 .084991458 .57676699 .10798645 .55078127 .13798523 .55078127 .17199707 .55078127 .19198609 .5787811 .19198609 .603775Z"/>
<path id="font_3_1" d="M.33099366-.2400055C.33099366-.23701477 .33099366-.23500061 .31399537-.21800232 .18899536-.0920105 .15699768 .09700012 .15699768 .25 .15699768 .42399598 .19499207 .59799197 .31799317 .72299197 .33099366 .73498538 .33099366 .7369995 .33099366 .73999026 .33099366 .746994 .32699586 .75 .32099916 .75 .31098939 .75 .22099304 .6819916 .1619873 .5549927 .11099243 .44499208 .09899902 .33399964 .09899902 .25 .09899902 .17199707 .10998535 .050994874 .16499329-.06201172 .22499085-.18501282 .31098939-.25 .32099916-.25 .32699586-.25 .33099366-.24700928 .33099366-.2400055Z"/>
<path id="font_1_3" d="M.37298585 .37835694C.35499574 .41537477 .32598878 .4423828 .2809906 .4423828 .1639862 .4423828 .039993287 .29533387 .039993287 .14929199 .039993287 .055267335 .09498596-.0107421879 .17298889-.0107421879 .19299317-.0107421879 .24299622-.0067443849 .30299378 .06427002 .31098939 .022247315 .34599305-.0107421879 .3939972-.0107421879 .42900086-.0107421879 .45199586 .012252808 .46798707 .044265748 .4850006 .08027649 .49798585 .14129639 .49798585 .14329529 .49798585 .1532898 .4889984 .1532898 .48599244 .1532898 .47599793 .1532898 .47499085 .14929199 .47200013 .13528443 .45498658 .07026672 .43699647 .011245728 .3959961 .011245728 .36898805 .011245728 .3659973 .037261964 .3659973 .057266237 .3659973 .07926941 .36799623 .08728027 .3789978 .13128662 .3899994 .17329407 .3919983 .18330384 .40098573 .22131348L.43699647 .36135865C.44400025 .38935853 .44400025 .39135743 .44400025 .39537049 .44400025 .41236878 .43199159 .42237855 .4149933 .42237855 .3909912 .42237855 .37599183 .4003601 .37298585 .37835694M.30799867 .119277957C.30299378 .10127258 .30299378 .09927368 .28799439 .08227539 .24398804 .027252198 .20298767 .011245728 .1749878 .011245728 .125 .011245728 .11099243 .06626892 .11099243 .105285648 .11099243 .1552887 .14299011 .27833558 .1659851 .32434083 .19699097 .38336183 .24198914 .42037965 .28199769 .42037965 .34700013 .42037965 .36099244 .3383484 .36099244 .33235169 .36099244 .32633973 .35899354 .32034303 .35798646 .31533814L.30799867 .119277957Z"/>
<path id="font_1_1" d="M.20298767 .0009918213C.20298767 .066986087 .17799378 .10598755 .13899231 .10598755 .10598755 .10598755 .085998538 .08099365 .085998538 .052993776 .085998538 .025985718 .10598755 0 .13899231 0 .15098572 0 .1639862 .0039978029 .17399597 .0129852299 .1769867 .01499939 .17799378 .015991211 .1789856 .015991211 .17999268 .015991211 .18099976 .01499939 .18099976 .0009918213 .18099976-.07316589 .1459961-.13328552 .11299133-.16635132 .101989749-.17736817 .101989749-.17936707 .101989749-.18237305 .101989749-.18936157 .10699463-.19335938 .11199951-.19335938 .12298584-.19335938 .20298767-.116256717 .20298767 .0009918213Z"/>
<path id="font_3_3" d="M.45999146 .31976319C.45999146 .39982606 .45498658 .47988893 .41999818 .5539398 .37399293 .65000918 .2919922 .6660156 .25 .6660156 .18998719 .6660156 .116989139 .64001467 .07598877 .54693606 .04399109 .47789 .038986207 .39982606 .038986207 .31976319 .038986207 .24472046 .042999269 .15464783 .083999637 .07859802 .1269989-.0024719239 .19999695-.022460938 .24899292-.022460938 .30299378-.022460938 .3789978-.0014648438 .4229889 .09359741 .45498658 .16265869 .45999146 .2407074 .45999146 .31976319M.24899292-.00047302247C.20999146-.00047302247 .15098572 .024551392 .1329956 .12062073 .12199402 .18066406 .12199402 .2727356 .12199402 .3317871 .12199402 .39582826 .12199402 .46188355 .12998963 .5159149 .14898682 .63500979 .22399903 .64401248 .24899292 .64401248 .28199769 .64401248 .34799195 .6259918 .36698915 .52693179 .3769989 .47088624 .3769989 .39482118 .3769989 .3317871 .3769989 .25672914 .3769989 .18867493 .3659973 .12461853 .35099793 .029556275 .2939911-.00047302247 .24899292-.00047302247Z"/>
<path id="font_3_2" d="M.2889862 .25C.2889862 .32798768 .27799989 .44898988 .22299195 .56199648 .16299439 .68499758 .07699585 .75 .066986087 .75 .06098938 .75 .056991579 .74598696 .056991579 .73999026 .056991579 .7369995 .056991579 .73498538 .07598877 .71699526 .17399597 .6179962 .23098755 .45899964 .23098755 .25 .23098755 .07899475 .19400025-.09700012 .069992069-.2230072 .056991579-.23500061 .056991579-.23701477 .056991579-.2400055 .056991579-.2460022 .06098938-.25 .066986087-.25 .07699585-.25 .16699219-.18200684 .22599793-.055007936 .2769928 .054992677 .2889862 .16600037 .2889862 .25Z"/>
<path id="font_4_1" d="M.6589966 .23046875C.6759949 .23046875 .69400027 .23046875 .69400027 .25045777 .69400027 .27046205 .6759949 .27046205 .6589966 .27046205H.117996219C.100997928 .27046205 .08299255 .27046205 .08299255 .25045777 .08299255 .23046875 .100997928 .23046875 .117996219 .23046875H.6589966Z"/>
<path id="font_2_42" d="M.6649933 .23271179C.6649933 .24272156 .6649933 .24972534 .6519928 .24972534 .6409912 .24972534 .6409912 .24372864 .6399994 .23371887 .6319885 .09059143 .5249939 .008529663 .41600038 .008529663 .35499574 .008529663 .15899658 .042556764 .15899658 .34080506 .15899658 .64004519 .35398866 .67407229 .4149933 .67407229 .5239868 .67407229 .61299136 .58299258 .6329956 .4368744 .6349945 .42286683 .6349945 .41986085 .6489868 .41986085 .6649933 .41986085 .6649933 .42286683 .6649933 .44387818V.68107607C.6649933 .69807437 .6649933 .7050781 .6539917 .7050781 .6499939 .7050781 .6459961 .7050781 .6380005 .69306948L.58799746 .61901858C.5509949 .6550598 .5 .7050781 .4039917 .7050781 .21699524 .7050781 .055999757 .5459595 .055999757 .34179688 .055999757 .1346283 .21798706-.022460938 .4039917-.022460938 .5669861-.022460938 .6649933 .116622928 .6649933 .23271179Z"/>
<path id="font_2_81" d="M.47099305 .21424866C.47099305 .34223939 .37098695 .4482422 .25 .4482422 .125 .4482422 .027999878 .3392334 .027999878 .21424866 .027999878 .085250858 .13198853-.0107421879 .24899292-.0107421879 .36999513-.0107421879 .47099305 .087249759 .47099305 .21424866M.3880005 .22224427C.3880005 .18624878 .3880005 .13224793 .3659973 .08824158 .34399415 .04324341 .2999878 .014251709 .25 .014251709 .20698548 .014251709 .16299439 .035247804 .13598633 .08125305 .11099243 .12524414 .11099243 .18624878 .11099243 .22224427 .11099243 .26124574 .11099243 .31523133 .1349945 .35923768 .1619873 .40522767 .20899964 .426239 .24899292 .426239 .29299928 .426239 .33599855 .40423585 .3619995 .36123658 .3880005 .3182373 .3880005 .26023866 .3880005 .22224427Z"/>
<path id="font_2_68" d="M.20999146-.049972536V.4423828L.057998659 .43138124V.40037538C.1349945 .40037538 .14399719 .39337159 .14399719 .34432984V-.051971437C.14399719-.09700012 .1349945-.18309021 .070999149-.18309021 .06599426-.18309021 .042999269-.18309021 .016998291-.17001343 .03199768-.16600037 .051986696-.1519928 .051986696-.125 .051986696-.09899902 .033996583-.07899475 .005996704-.07899475-.022003174-.07899475-.040008546-.09899902-.040008546-.125-.040008546-.17704773 .015991211-.20507813 .07299805-.20507813 .147995-.20507813 .20999146-.14100647 .20999146-.049972536M.20999146 .6042175C.20999146 .6312256 .18699646 .65722659 .15699768 .65722659 .12298584 .65722659 .102996829 .6292114 .102996829 .6042175 .102996829 .57722476 .12599182 .55122378 .1559906 .55122378 .18998719 .55122378 .20999146 .57922366 .20999146 .6042175Z"/>
<path id="font_2_109" d="M.5349884 0V.0309906C.46499635 .0309906 .45700074 .037994386 .45700074 .08705139V.4423828L.30999757 .43066407V.3996582C.37998963 .3996582 .3880005 .39266969 .3880005 .34373475V.16601563C.3880005 .07910156 .33999635 .011245728 .2669983 .011245728 .18299866 .011245728 .1789856 .058135988 .1789856 .11009216V.4423828L.03199768 .43066407V.3996582C.10998535 .3996582 .10998535 .39666749 .10998535 .3078003V.15802002C.10998535 .080093387 .10998535-.0107421879 .2619934-.0107421879 .31799317-.0107421879 .3619995 .017242432 .3909912 .07910156V-.0107421879L.5349884 0Z"/>
<path id="font_2_59" d="M.4850006 .40411378C.4850006 .42111207 .47299195 .453125 .43399049 .453125 .4139862 .453125 .36999513 .44711305 .32798768 .40611268 .28599549 .43937684 .24398804 .4423828 .22200012 .4423828 .1289978 .4423828 .05999756 .37338258 .05999756 .29638673 .05999756 .25239564 .08198547 .21440125 .10699463 .19340515 .09399414 .17840576 .07598877 .14538574 .07598877 .11035156 .07598877 .07899475 .08898926 .04083252 .11999512 .020828248 .05999756 .003829956 .027999878-.039138795 .027999878-.07911682 .027999878-.15107727 .1269989-.20605469 .24899292-.20605469 .36698915-.20605469 .47099305-.15507508 .47099305-.07711792 .47099305-.042144777 .45700074 .008834839 .4059906 .036834718 .35299684 .064834598 .29499818 .064834598 .23399353 .064834598 .20899964 .064834598 .1659851 .064834598 .15899658 .065841678 .1269989 .069885257 .10598755 .101242069 .10598755 .13334656 .10598755 .13735962 .10598755 .16040039 .12298584 .18040467 .1619873 .15240479 .20298767 .14941406 .22200012 .14941406 .31498719 .14941406 .38398744 .21839905 .38398744 .2953949 .38398744 .3323822 .36799623 .36938478 .34298707 .39237977 .3789978 .42637635 .4149933 .43138124 .43299867 .43138124 .43299867 .43112184 .43998719 .43112184 .44299317 .43011476 .43199159 .42611695 .4269867 .41513063 .4269867 .40315248 .4269867 .38616944 .43998719 .37417604 .45599366 .37417604 .46598817 .37417604 .4850006 .3811798 .4850006 .4041443V.40411378M.30899049 .29626466C.30899049 .26930238 .30799867 .2373352 .29299928 .21235657 .2849884 .20037842 .2619934 .17240906 .22200012 .17240906 .1349945 .17240906 .1349945 .2722931 .1349945 .29527284 .1349945 .3222351 .13598633 .35420228 .15098572 .3791809 .15899658 .3913269 .18199158 .41937257 .22200012 .41937257 .30899049 .41937257 .30899049 .31922914 .30899049 .29618836V.29626466M.4189911-.07911682C.4189911-.13308716 .34799195-.18305969 .25-.18305969 .14898682-.18305969 .07998657-.13209534 .07998657-.07911682 .07998657-.03314209 .117996219 .003829956 .1619873 .0068359377H.22099304C.30699159 .0068359377 .4189911 .0068359377 .4189911-.07911682Z"/>
<path id="font_2_105" d="M.33198548 .12385559V.18066406H.30699159V.12585449C.30699159 .052108766 .2769928 .014251709 .23999024 .014251709 .17298889 .014251709 .17298889 .10491943 .17298889 .12187195V.3996582H.31599427V.43066407H.17298889V.6142578H.147995C.14698792 .5324249 .116989139 .42565919 .018997193 .42166139V.3996582H.10398865V.12408447C.10398865 .0012512207 .19699097-.0107421879 .23298645-.0107421879 .3039856-.0107421879 .33198548 .060180665 .33198548 .12408447V.12385559Z"/>
<path id="font_1_4" d="M.23899842 .68333438C.23899842 .6843262 .23899842 .69433596 .22599793 .69433596 .20298767 .69433596 .12998963 .6863251 .10398865 .6843262 .09599304 .68333438 .084991458 .6823273 .084991458 .6643219 .084991458 .6523285 .09399414 .6523285 .10899353 .6523285 .15699768 .6523285 .15899658 .6453247 .15899658 .6353302 .15899658 .6283264 .1499939 .5943451 .14498902 .573349L.06298828 .24731446C.050994874 .1973114 .04699707 .18130493 .04699707 .14628601 .04699707 .05126953 .099990848-.0107421879 .17399597-.0107421879 .2919922-.0107421879 .4149933 .1382904 .4149933 .28233338 .4149933 .37335206 .3619995 .4423828 .28199769 .4423828 .23599243 .4423828 .19499207 .41337586 .16499329 .38235475L.23899842 .68333438M.14498902 .30534364C.15098572 .3273468 .15098572 .3293457 .1599884 .3403473 .20899964 .405365 .2539978 .42037965 .27999879 .42037965 .31599427 .42037965 .34298707 .3903656 .34298707 .32633973 .34298707 .26733399 .30999757 .15229798 .2919922 .11428833 .25898744 .04725647 .21299744 .011245728 .17399597 .011245728 .13999939 .011245728 .10699463 .038253786 .10699463 .11227417 .10699463 .13128662 .10699463 .15029907 .12298584 .21331787L.14498902 .30534364Z"/>
<path id="font_1_2" d="M.30299378 .3244629H.3999939C.47499085 .3244629 .48298646 .30848695 .48298646 .27954103 .48298646 .2725525 .48298646 .26057435 .47599793 .2306366 .47399903 .22564698 .47299195 .22164917 .47299195 .21965027 .47299195 .21166992 .47898866 .20767212 .4850006 .20767212 .49499513 .20767212 .49499513 .21066284 .5 .2286377L.5549927 .44551087C.55799868 .45651246 .55799868 .45851136 .55799868 .46151734 .55799868 .46351625 .55599978 .47251893 .54599 .47251893 .5359955 .47251893 .5349884 .46751405 .5309906 .45150758 .5099945 .37347413 .4869995 .35546876 .4019928 .35546876H.31098939L.375 .6095886C.38398744 .64460757 .3849945 .64860537 .42900086 .64860537H.5609894C.6839905 .64860537 .70700076 .6156006 .70700076 .53855898 .70700076 .5155487 .70700076 .51153567 .70399478 .4845276 .70199587 .4715271 .70199587 .46951295 .70199587 .46652223 .70199587 .46151734 .7049866 .45451356 .71398928 .45451356 .72499087 .45451356 .7259979 .46051026 .7279968 .4795227L.7480011 .65260317C.7509918 .6796112 .74598696 .6796112 .72099307 .6796112H.23098755C.21099854 .6796112 .20098877 .6796112 .20098877 .65960696 .20098877 .64860537 .20999146 .64860537 .22898865 .64860537 .2659912 .64860537 .2939911 .64860537 .2939911 .6306 .2939911 .6266022 .2939911 .6246033 .2889862 .60658267L.15699768 .07791138C.14698792 .038970949 .14498902 .0309906 .06599426 .0309906 .04899597 .0309906 .037994386 .0309906 .037994386 .011993408 .037994386 0 .049987794 0 .052993776 0 .08198547 0 .1559906 .0029907227 .18499756 .0029907227 .21798706 .0029907227 .30099488 0 .33399964 0 .34298707 0 .35499574 0 .35499574 .018997193 .35499574 .026992798 .34899903 .0289917 .34899903 .02999878 .34599305 .0309906 .34399415 .0309906 .32099916 .0309906 .29899598 .0309906 .2939911 .0309906 .2689972 .032989503 .23999024 .035980226 .23699951 .039978029 .23699951 .052947999 .23699951 .0549469 .23699951 .060943605 .24099732 .075912479L.30299378 .3244629Z"/>
<path id="font_5_2" d="M.5049896 .18203736H.47099305C.46798707 .16001892 .45799256 .100997928 .44499208 .09098816 .43699647 .084991458 .3600006 .084991458 .34599305 .084991458H.1619873C.2669983 .17803955 .3019867 .20603943 .3619995 .25306703 .43598939 .312088 .5049896 .374115 .5049896 .46914674 .5049896 .5900879 .39898683 .6640625 .2709961 .6640625 .14698792 .6640625 .06298828 .57710269 .06298828 .4851532 .06298828 .43414308 .10598755 .42915345 .115997318 .42915345 .13999939 .42915345 .16899109 .44615174 .16899109 .48214723 .16899109 .5001526 .1619873 .53515627 .10998535 .53515627 .14099121 .6060791 .20899964 .62805178 .2559967 .62805178 .35598756 .62805178 .4079895 .5501404 .4079895 .46914674 .4079895 .38212586 .34599305 .3130951 .31399537 .27708436L.07299805 .038986207C.06298828 .02999878 .06298828 .027999878 .06298828 0H.47499085L.5049896 .18203736Z"/>
<path id="font_5_1" d="M.33499146 .63612368C.33499146 .6630554 .33299256 .6640625 .30499269 .6640625 .24099732 .6014404 .1499939 .6004486 .10899353 .6004486V.5644531C.1329956 .5644531 .19898987 .5644531 .2539978 .592453V.08203125C.2539978 .04899597 .2539978 .035995485 .1539917 .035995485H.115997318V0C.13398743 .0009918213 .25698854 .0039978029 .2939911 .0039978029 .32499696 .0039978029 .45098878 .0009918213 .47299195 0V.035995485H.43499757C.33499146 .035995485 .33499146 .04899597 .33499146 .08203125V.63612368Z"/>
<path id="font_3_5" d="M.68699648 .32714845C.70199587 .32714845 .72099307 .32714845 .72099307 .34713746 .72099307 .36714173 .70199587 .36714173 .6879883 .36714173H.08898926C.07499695 .36714173 .055999757 .36714173 .055999757 .34713746 .055999757 .32714845 .07499695 .32714845 .08999634 .32714845H.68699648M.6879883 .13284302C.70199587 .13284302 .72099307 .13284302 .72099307 .15284729 .72099307 .17285156 .70199587 .17285156 .68699648 .17285156H.08999634C.07499695 .17285156 .055999757 .17285156 .055999757 .15284729 .055999757 .13284302 .07499695 .13284302 .08898926 .13284302H.6879883Z"/>
<path id="font_3_4" d="M.2939911 .64004519C.2939911 .66400149 .2939911 .6660156 .2709961 .6660156 .20899964 .60227969 .12098694 .60227969 .08898926 .60227969V.57128909C.10899353 .57128909 .16799927 .57128909 .21998596 .5972748V.07902527C.21998596 .042999269 .21699524 .0309906 .1269989 .0309906H.09498596V0C.12998963 .0029907227 .21699524 .0029907227 .25698854 .0029907227 .29699708 .0029907227 .38398744 .0029907227 .4189911 0V.0309906H.3869934C.29699708 .0309906 .2939911 .041992189 .2939911 .07902527V.64004519Z"/>
</defs>
<path transform="matrix(1.00003,0,0,-1.00003,82.51216,88.405269)" stroke-width=".79701" stroke-linecap="butt" stroke-miterlimit="10" stroke-linejoin="miter" fill="none" stroke="#000000" d="M-76.53716 0H75.10254"/>
<path transform="matrix(1.00003,0,0,-1.00003,157.61696,88.405269)" d="M1.0361 0C-.25902 .25902-1.55415 .77707-3.1083 1.68365-1.55415 .51805-1.55415-.51805-3.1083-1.68365-1.55415-.77707-.25902-.25902 1.0361 0Z"/>
<path transform="matrix(1.00003,0,0,-1.00003,157.61696,88.405269)" stroke-width=".79701" stroke-linecap="butt" stroke-linejoin="round" fill="none" stroke="#000000" d="M1.0361 0C-.25902 .25902-1.55415 .77707-3.1083 1.68365-1.55415 .51805-1.55415-.51805-3.1083-1.68365-1.55415-.77707-.25902-.25902 1.0361 0Z"/>
<use data-text="x" xlink:href="#font_1_5" transform="matrix(9.962899,0,0,-9.962899,162.77057,90.55033)"/>
<path transform="matrix(1.00003,0,0,-1.00003,82.51216,88.405269)" stroke-width=".79701" stroke-linecap="butt" stroke-miterlimit="10" stroke-linejoin="miter" fill="none" stroke="#000000" d="M0-76.53716V75.10254"/>
<path transform="matrix(0,-1.00003,-1.00003,-0,82.51216,13.300468)" d="M1.0361 0C-.25902 .25902-1.55415 .77707-3.1083 1.68365-1.55415 .51805-1.55415-.51805-3.1083-1.68365-1.55415-.77707-.25902-.25902 1.0361 0Z"/>
<path transform="matrix(0,-1.00003,-1.00003,-0,82.51216,13.300468)" stroke-width=".79701" stroke-linecap="butt" stroke-linejoin="round" fill="none" stroke="#000000" d="M1.0361 0C-.25902 .25902-1.55415 .77707-3.1083 1.68365-1.55415 .51805-1.55415-.51805-3.1083-1.68365-1.55415-.77707-.25902-.25902 1.0361 0Z"/>
<use data-text="y" xlink:href="#font_1_6" transform="matrix(9.962899,0,0,-9.962899,79.89108,6.209793)"/>
<path transform="matrix(1.00003,0,0,-1.00003,82.51216,88.405269)" stroke-width="1.19553" stroke-linecap="butt" stroke-miterlimit="10" stroke-linejoin="miter" fill="none" stroke="#ff0000" d="M-49.94157 79.13713C-48.84877 77.58517-48.84877 77.58517-48.04463 76.44838-47.2405 75.3116-45.98643 73.54552-45.2241 72.47531-44.46176 71.4051-43.27322 69.74205-42.55022 68.73502-41.82721 67.72801-40.6991 66.16434-40.01309 65.21742-39.3271 64.27051-38.2571 62.8002-37.60599 61.9103-36.9549 61.02037-35.9388 59.63945-35.32036 58.80351-34.70192 57.96759-33.73634 56.66989-33.14865 55.8854-32.56096 55.10094-31.64365 53.88492-31.08464 53.14949-30.52563 52.41406-29.6519 51.27403-29.11978 50.58487-28.58763 49.89569-27.7562 48.82724-27.24937 48.18243-26.74255 47.53763-25.95012 46.54013-25.46695 45.93755-24.9838 45.33493-24.2282 44.40176-23.76706 43.83928-23.30594 43.2768-22.58395 42.4076-22.14346 41.8835-21.70299 41.35939-21.01373 40.5492-20.59229 40.06189-20.17084 39.57458-19.5096 38.82343-19.10597 38.37134-18.70236 37.91925-18.07028 37.22192-17.68327 36.80354-17.29623 36.38516-16.68849 35.74202-16.3166 35.3559-15.9447 34.9698-15.36072 34.3758-15.00288 34.02065-14.64503 33.6655-14.08241 33.12137-13.73744 32.7962-13.39249 32.47105-12.84981 31.97334-12.51663 31.67712-12.18346 31.38092-11.65857 30.92952-11.33604 30.66135-11.01352 30.39317-10.50488 29.9854-10.19206 29.74419-9.87926 29.50298-9.38574 29.13765-9.08154 28.92279-8.77736 28.70795-8.29616 28.3848-7.99959 28.1956-7.70303 28.00641-7.23398 27.72356-6.9441 27.55925-6.65425 27.39494-6.19447 27.15138-5.91042 27.01138-5.62636 26.87138-5.17584 26.66617-4.8967 26.55022-4.61758 26.43427-4.17389 26.26793-3.89857 26.17572-3.62326 26.0835-3.18468 25.95445-2.91237 25.88557-2.64008 25.81668-2.20613 25.72504-1.93604 25.67923-1.66594 25.63345-1.2344 25.57834-.96567 25.55545-.69695 25.53255-.26697 25.51413 .00076 25.51419 .26852 25.51425 .69582 25.53307 .96411 25.55597 1.2324 25.57886 1.66435 25.63345 1.93448 25.67923 2.20462 25.72504 2.63878 25.81717 2.91109 25.8861 3.18338 25.955 3.62173 26.08383 3.89702 26.17598 4.1723 26.26811 4.6159 26.43445 4.89516 26.55022 5.17438 26.66599 5.6255 26.87057 5.90964 27.01035 6.19377 27.15013 6.6532 27.39339 6.94307 27.55768 7.23293 27.72198 7.70222 28.00531 7.99881 28.19456 8.29541 28.38382 8.77658 28.7069 9.08078 28.92175 9.38496 29.13663 9.87848 29.50194 10.19128 29.74315 10.50409 29.98438 11.01288 30.39206 11.33527 30.66031 11.65765 30.92857 12.18167 31.3805 12.51482 31.67662 12.84796 31.97275 13.39134 32.46964 13.7364 32.79466 14.08148 33.11966 14.64407 33.66406 15.00185 34.01909 15.35962 34.37413 15.94322 34.96758 16.31505 35.35358 16.68687 35.73956 17.29465 36.38278 17.6817 36.8012 18.06876 37.21962 18.70117 37.91696 19.10469 38.36925 19.5082 38.82156 20.16855 39.57382 20.58995 40.0611 21.01137 40.54837 21.70135 41.35735 22.14192 41.88115 22.58247 42.40497 23.30418 43.27403 23.76524 43.83641 24.22629 44.3988 24.9817 45.33179 25.46487 45.93443 25.94804 46.53705 26.74074 47.53505 27.24756 48.17986 27.75436 48.82465 28.58575 49.89255 29.11769 50.58174 29.64966 51.27097 30.52255 52.41179 31.08151 53.14716 31.64047 53.88252 32.5585 55.09747 33.14632 55.88177 33.73412 56.66608 34.69957 57.9639 35.31802 58.79988 35.93646 59.63585 36.95251 61.01694 37.60365 61.90692 38.25479 62.7969 39.32509 64.26755 40.01102 65.21431 40.69695 66.16109 41.82442 67.72371 42.54736 68.73062 43.27031 69.73752 44.45921 71.40123 45.22151 72.4714 45.98383 73.54158 47.23763 75.30693 48.04152 76.44373 48.8454 77.5805 51.01541 80.66464 49.93768 79.13287"/>
<path transform="matrix(-.5756973,-.81765457,-.81765457,.5756973,32.569105,9.265755)" d="M1.27522 0C-.31879 .31879-1.91284 .9564-3.8257 2.07224-1.91284 .6376-1.91284-.6376-3.8257-2.07224-1.91284-.9564-.31879-.31879 1.27522 0Z" fill="#ff0000"/>
<path transform="matrix(-.5756973,-.81765457,-.81765457,.5756973,32.569105,9.265755)" stroke-width="1.19553" stroke-linecap="butt" stroke-linejoin="round" fill="none" stroke="#ff0000" d="M1.27522 0C-.31879 .31879-1.91284 .9564-3.8257 2.07224-1.91284 .6376-1.91284-.6376-3.8257-2.07224-1.91284-.9564-.31879-.31879 1.27522 0Z"/>
<path transform="matrix(.5754273,-.8178546,-.8178546,-.5754273,132.45133,9.270027)" d="M1.27522 0C-.31879 .31879-1.91284 .9564-3.8257 2.07224-1.91284 .6376-1.91284-.6376-3.8257-2.07224-1.91284-.9564-.31879-.31879 1.27522 0Z" fill="#ff0000"/>
<path transform="matrix(.5754273,-.8178546,-.8178546,-.5754273,132.45133,9.270027)" stroke-width="1.19553" stroke-linecap="butt" stroke-linejoin="round" fill="none" stroke="#ff0000" d="M1.27522 0C-.31879 .31879-1.91284 .9564-3.8257 2.07224-1.91284 .6376-1.91284-.6376-3.8257-2.07224-1.91284-.9564-.31879-.31879 1.27522 0Z"/>
<path transform="matrix(1.00003,0,0,-1.00003,82.51216,88.405269)" stroke-width="1.19553" stroke-linecap="butt" stroke-miterlimit="10" stroke-linejoin="miter" fill="none" stroke="#ff0000" d="M-49.94157-79.13713C-48.84877-77.58517-48.84877-77.58517-48.04463-76.44838-47.2405-75.3116-45.98643-73.54552-45.2241-72.47531-44.46176-71.4051-43.27322-69.74205-42.55022-68.73502-41.82721-67.72801-40.6991-66.16434-40.01309-65.21742-39.3271-64.27051-38.2571-62.8002-37.60599-61.9103-36.9549-61.02037-35.9388-59.63945-35.32036-58.80351-34.70192-57.96759-33.73634-56.66989-33.14865-55.8854-32.56096-55.10094-31.64365-53.88492-31.08464-53.14949-30.52563-52.41406-29.6519-51.27403-29.11978-50.58487-28.58763-49.89569-27.7562-48.82724-27.24937-48.18243-26.74255-47.53763-25.95012-46.54013-25.46695-45.93755-24.9838-45.33493-24.2282-44.40176-23.76706-43.83928-23.30594-43.2768-22.58395-42.4076-22.14346-41.8835-21.70299-41.35939-21.01373-40.5492-20.59229-40.06189-20.17084-39.57458-19.5096-38.82343-19.10597-38.37134-18.70236-37.91925-18.07028-37.22192-17.68327-36.80354-17.29623-36.38516-16.68849-35.74202-16.3166-35.3559-15.9447-34.9698-15.36072-34.3758-15.00288-34.02065-14.64503-33.6655-14.08241-33.12137-13.73744-32.7962-13.39249-32.47105-12.84981-31.97334-12.51663-31.67712-12.18346-31.38092-11.65857-30.92952-11.33604-30.66135-11.01352-30.39317-10.50488-29.9854-10.19206-29.74419-9.87926-29.50298-9.38574-29.13765-9.08154-28.92279-8.77736-28.70795-8.29616-28.3848-7.99959-28.1956-7.70303-28.00641-7.23398-27.72356-6.9441-27.55925-6.65425-27.39494-6.19447-27.15138-5.91042-27.01138-5.62636-26.87138-5.17584-26.66617-4.8967-26.55022-4.61758-26.43427-4.17389-26.26793-3.89857-26.17572-3.62326-26.0835-3.18468-25.95445-2.91237-25.88557-2.64008-25.81668-2.20613-25.72504-1.93604-25.67923-1.66594-25.63345-1.2344-25.57834-.96567-25.55545-.69695-25.53255-.26697-25.51413 .00076-25.51419 .26852-25.51425 .69582-25.53307 .96411-25.55597 1.2324-25.57886 1.66435-25.63345 1.93448-25.67923 2.20462-25.72504 2.63878-25.81717 2.91109-25.8861 3.18338-25.955 3.62173-26.08383 3.89702-26.17598 4.1723-26.26811 4.6159-26.43445 4.89516-26.55022 5.17438-26.66599 5.6255-26.87057 5.90964-27.01035 6.19377-27.15013 6.6532-27.39339 6.94307-27.55768 7.23293-27.72198 7.70222-28.00531 7.99881-28.19456 8.29541-28.38382 8.77658-28.7069 9.08078-28.92175 9.38496-29.13663 9.87848-29.50194 10.19128-29.74315 10.50409-29.98438 11.01288-30.39206 11.33527-30.66031 11.65765-30.92857 12.18167-31.3805 12.51482-31.67662 12.84796-31.97275 13.39134-32.46964 13.7364-32.79466 14.08148-33.11966 14.64407-33.66406 15.00185-34.01909 15.35962-34.37413 15.94322-34.96758 16.31505-35.35358 16.68687-35.73956 17.29465-36.38278 17.6817-36.8012 18.06876-37.21962 18.70117-37.91696 19.10469-38.36925 19.5082-38.82156 20.16855-39.57382 20.58995-40.0611 21.01137-40.54837 21.70135-41.35735 22.14192-41.88115 22.58247-42.40497 23.30418-43.27403 23.76524-43.83641 24.22629-44.3988 24.9817-45.33179 25.46487-45.93443 25.94804-46.53705 26.74074-47.53505 27.24756-48.17986 27.75436-48.82465 28.58575-49.89255 29.11769-50.58174 29.64966-51.27097 30.52255-52.41179 31.08151-53.14716 31.64047-53.88252 32.5585-55.09747 33.14632-55.88177 33.73412-56.66608 34.69957-57.9639 35.31802-58.79988 35.93646-59.63585 36.95251-61.01694 37.60365-61.90692 38.25479-62.7969 39.32509-64.26755 40.01102-65.21431 40.69695-66.16109 41.82442-67.72371 42.54736-68.73062 43.27031-69.73752 44.45921-71.40123 45.22151-72.4714 45.98383-73.54158 47.23763-75.30693 48.04152-76.44373 48.8454-77.5805 51.01541-80.66464 49.93768-79.13287"/>
<path transform="matrix(-.5756973,.81765457,.81765457,.5756973,32.569105,167.54477)" d="M1.27522 0C-.31879 .31879-1.91284 .9564-3.8257 2.07224-1.91284 .6376-1.91284-.6376-3.8257-2.07224-1.91284-.9564-.31879-.31879 1.27522 0Z" fill="#ff0000"/>
<path transform="matrix(-.5756973,.81765457,.81765457,.5756973,32.569105,167.54477)" stroke-width="1.19553" stroke-linecap="butt" stroke-linejoin="round" fill="none" stroke="#ff0000" d="M1.27522 0C-.31879 .31879-1.91284 .9564-3.8257 2.07224-1.91284 .6376-1.91284-.6376-3.8257-2.07224-1.91284-.9564-.31879-.31879 1.27522 0Z"/>
<path transform="matrix(.5754273,.8178546,.8178546,-.5754273,132.45133,167.5405)" d="M1.27522 0C-.31879 .31879-1.91284 .9564-3.8257 2.07224-1.91284 .6376-1.91284-.6376-3.8257-2.07224-1.91284-.9564-.31879-.31879 1.27522 0Z" fill="#ff0000"/>
<path transform="matrix(.5754273,.8178546,.8178546,-.5754273,132.45133,167.5405)" stroke-width="1.19553" stroke-linecap="butt" stroke-linejoin="round" fill="none" stroke="#ff0000" d="M1.27522 0C-.31879 .31879-1.91284 .9564-3.8257 2.07224-1.91284 .6376-1.91284-.6376-3.8257-2.07224-1.91284-.9564-.31879-.31879 1.27522 0Z"/>
<path transform="matrix(1.00003,0,0,-1.00003,82.51216,88.405269)" stroke-width="1.19553" stroke-linecap="butt" stroke-miterlimit="10" stroke-linejoin="miter" fill="none" stroke="#0000ff" d="M0-25.51236V25.51236"/>
<path transform="matrix(1.00003,0,0,-1.00003,82.51216,88.405269)" stroke-width=".3985" stroke-linecap="butt" stroke-miterlimit="10" stroke-linejoin="miter" fill="none" stroke="#0000ff" d="M0-25.51236C-2.39108-24.31688-3.9851-21.52725-3.9851-17.54214V-7.97021C-3.9851-3.9851-5.57912-1.19548-7.97021 0-5.57912 1.19548-3.9851 3.9851-3.9851 7.97021V17.54214C-3.9851 21.52725-2.39108 24.31688 0 25.51236"/>
<use data-text="T" xlink:href="#font_2_104" transform="matrix(9.962899,0,0,-9.962899,16.801178,60.231424)"/>
<use data-text="r" xlink:href="#font_2_96" transform="matrix(9.962899,0,0,-9.962899,23.177414,60.231424)"/>
<use data-text="a" xlink:href="#font_2_28" transform="matrix(9.962899,0,0,-9.962899,27.08287,60.231424)"/>
<use data-text="n" xlink:href="#font_2_77" transform="matrix(9.962899,0,0,-9.962899,32.064317,60.231424)"/>
<use data-text="s" xlink:href="#font_2_98" transform="matrix(9.962899,0,0,-9.962899,37.603685,60.231424)"/>
<use data-text="v" xlink:href="#font_2_112" transform="matrix(9.962899,0,0,-9.962899,41.529054,60.231424)"/>
<use data-text="e" xlink:href="#font_2_50" transform="matrix(9.962899,0,0,-9.962899,46.510515,60.231424)"/>
<use data-text="r" xlink:href="#font_2_96" transform="matrix(9.962899,0,0,-9.962899,50.93405,60.231424)"/>
<use data-text="s" xlink:href="#font_2_98" transform="matrix(9.962899,0,0,-9.962899,54.839509,60.231424)"/>
<use data-text="e" xlink:href="#font_2_50" transform="matrix(9.962899,0,0,-9.962899,58.764879,60.231424)"/>
<use data-text="a" xlink:href="#font_2_28" transform="matrix(9.962899,0,0,-9.962899,31.521622,72.18778)"/>
<use data-text="x" xlink:href="#font_2_116" transform="matrix(9.962899,0,0,-9.962899,36.50305,72.18778)"/>
<use data-text="i" xlink:href="#font_2_66" transform="matrix(9.962899,0,0,-9.962899,41.763475,72.18778)"/>
<use data-text="s" xlink:href="#font_2_98" transform="matrix(9.962899,0,0,-9.962899,44.533159,72.18778)"/>
<path transform="matrix(1.00003,0,0,-1.00003,82.51216,88.405269)" stroke-width=".3985" stroke-linecap="butt" stroke-miterlimit="10" stroke-linejoin="miter" fill="none" stroke="#0000ff" d="M-34.0165 20.40985C-21.10323 18.13297-10.64409 15.28545-5.52353 4.30449"/>
<path transform="matrix(.4226127,.90632727,.90632727,-.4226127,76.98846,84.10065)" d="M.797 0C-.19925 .19925-1.19551 .59775-2.39102 1.29512-1.19551 .3985-1.19551-.3985-2.39102-1.29512-1.19551-.59775-.19925-.19925 .797 0Z" fill="#0000ff"/>
<path transform="matrix(.4226127,.90632727,.90632727,-.4226127,76.98846,84.10065)" stroke-width=".3985" stroke-linecap="butt" stroke-linejoin="round" fill="none" stroke="#0000ff" d="M.797 0C-.19925 .19925-1.19551 .59775-2.39102 1.29512-1.19551 .3985-1.19551-.3985-2.39102-1.29512-1.19551-.59775-.19925-.19925 .797 0Z"/>
<path transform="matrix(1.00003,0,0,-1.00003,82.51216,88.405269)" d="M18.36893 0C18.36893 .75146 17.75972 1.36067 17.00824 1.36067 16.25676 1.36067 15.64755 .75146 15.64755 0 15.64755-.75146 16.25676-1.36067 17.00824-1.36067 17.75972-1.36067 18.36893-.75146 18.36893 0ZM17.00824 0" fill="#00cc00"/>
<path transform="matrix(1.00003,0,0,-1.00003,82.51216,88.405269)" stroke-width=".3985" stroke-linecap="butt" stroke-miterlimit="10" stroke-linejoin="miter" fill="none" stroke="#00cc00" d="M18.36893 0C18.36893 .75146 17.75972 1.36067 17.00824 1.36067 16.25676 1.36067 15.64755 .75146 15.64755 0 15.64755-.75146 16.25676-1.36067 17.00824-1.36067 17.75972-1.36067 18.36893-.75146 18.36893 0ZM17.00824 0"/>
<use data-text="(" xlink:href="#font_3_1" transform="matrix(9.962899,0,0,-9.962899,103.04078,82.39409)" fill="#00cc00"/>
<use data-text="a" xlink:href="#font_1_3" transform="matrix(9.962899,0,0,-9.962899,106.915889,82.39409)" fill="#00cc00"/>
<use data-text="," xlink:href="#font_1_1" transform="matrix(9.962899,0,0,-9.962899,112.17631,82.39409)" fill="#00cc00"/>
<use data-text="0" xlink:href="#font_3_3" transform="matrix(9.962899,0,0,-9.962899,116.610179,82.39409)" fill="#00cc00"/>
<use data-text=")" xlink:href="#font_3_2" transform="matrix(9.962899,0,0,-9.962899,121.59162,82.39409)" fill="#00cc00"/>
<path transform="matrix(1.00003,0,0,-1.00003,82.51216,88.405269)" d="M-15.64755 0C-15.64755 .75146-16.25676 1.36067-17.00824 1.36067-17.75972 1.36067-18.36893 .75146-18.36893 0-18.36893-.75146-17.75972-1.36067-17.00824-1.36067-16.25676-1.36067-15.64755-.75146-15.64755 0ZM-17.00824 0" fill="#00cc00"/>
<path transform="matrix(1.00003,0,0,-1.00003,82.51216,88.405269)" stroke-width=".3985" stroke-linecap="butt" stroke-miterlimit="10" stroke-linejoin="miter" fill="none" stroke="#00cc00" d="M-15.64755 0C-15.64755 .75146-16.25676 1.36067-17.00824 1.36067-17.75972 1.36067-18.36893 .75146-18.36893 0-18.36893-.75146-17.75972-1.36067-17.00824-1.36067-16.25676-1.36067-15.64755-.75146-15.64755 0ZM-17.00824 0"/>
<use data-text="(" xlink:href="#font_3_1" transform="matrix(9.962899,0,0,-9.962899,31.809632,82.39409)" fill="#00cc00"/>
<use data-text="&#x2212;" xlink:href="#font_4_1" transform="matrix(9.962899,0,0,-9.962899,35.68474,82.39409)" fill="#00cc00"/>
<use data-text="a" xlink:href="#font_1_3" transform="matrix(9.962899,0,0,-9.962899,43.432985,82.39409)" fill="#00cc00"/>
<use data-text="," xlink:href="#font_1_1" transform="matrix(9.962899,0,0,-9.962899,48.69339,82.39409)" fill="#00cc00"/>
<use data-text="0" xlink:href="#font_3_3" transform="matrix(9.962899,0,0,-9.962899,53.127275,82.39409)" fill="#00cc00"/>
<use data-text=")" xlink:href="#font_3_2" transform="matrix(9.962899,0,0,-9.962899,58.108705,82.39409)" fill="#00cc00"/>
<path transform="matrix(1.00003,0,0,-1.00003,82.51216,88.405269)" stroke-width="1.19553" stroke-linecap="butt" stroke-miterlimit="10" stroke-linejoin="miter" fill="none" stroke="#00cc00" d="M-17.00824 0H17.00824"/>
<path transform="matrix(1.00003,0,0,-1.00003,82.51216,88.405269)" stroke-width=".3985" stroke-linecap="butt" stroke-miterlimit="10" stroke-linejoin="miter" fill="none" stroke="#00cc00" d="M17.00824 0C15.81276-2.39108 13.02313-3.9851 9.03802-3.9851H7.97021C3.9851-3.9851 1.19548-5.57912 0-7.97021-1.19548-5.57912-3.9851-3.9851-7.97021-3.9851H-9.03802C-13.02313-3.9851-15.81276-2.39108-17.00824 0"/>
<use data-text="C" xlink:href="#font_2_42" transform="matrix(9.962899,0,0,-9.962899,114.65813,104.59375)"/>
<use data-text="o" xlink:href="#font_2_81" transform="matrix(9.962899,0,0,-9.962899,121.85133,104.59375)"/>
<use data-text="n" xlink:href="#font_2_77" transform="matrix(9.962899,0,0,-9.962899,126.83278,104.59375)"/>
<use data-text="j" xlink:href="#font_2_68" transform="matrix(9.962899,0,0,-9.962899,132.37215,104.59375)"/>
<use data-text="u" xlink:href="#font_2_109" transform="matrix(9.962899,0,0,-9.962899,135.42079,104.59375)"/>
<use data-text="g" xlink:href="#font_2_59" transform="matrix(9.962899,0,0,-9.962899,140.96015,104.59375)"/>
<use data-text="a" xlink:href="#font_2_28" transform="matrix(9.962899,0,0,-9.962899,145.94159,104.59375)"/>
<use data-text="t" xlink:href="#font_2_105" transform="matrix(9.962899,0,0,-9.962899,150.92304,104.59375)"/>
<use data-text="e" xlink:href="#font_2_50" transform="matrix(9.962899,0,0,-9.962899,154.79862,104.59375)"/>
<use data-text="a" xlink:href="#font_2_28" transform="matrix(9.962899,0,0,-9.962899,128.47254,116.55011)"/>
<use data-text="x" xlink:href="#font_2_116" transform="matrix(9.962899,0,0,-9.962899,133.45398,116.55011)"/>
<use data-text="i" xlink:href="#font_2_66" transform="matrix(9.962899,0,0,-9.962899,138.71439,116.55011)"/>
<use data-text="s" xlink:href="#font_2_98" transform="matrix(9.962899,0,0,-9.962899,141.48407,116.55011)"/>
<path transform="matrix(1.00003,0,0,-1.00003,82.51216,88.405269)" stroke-width=".3985" stroke-linecap="butt" stroke-miterlimit="10" stroke-linejoin="miter" fill="none" stroke="#00cc00" d="M32.31557-10.20503C21.65704-8.3257 14.91136-9.6765 6.00542-5.52354"/>
<path transform="matrix(-.90632727,-.4226327,-.4226327,.90632727,88.51776,93.92897)" d="M.797 0C-.19925 .19925-1.19551 .59775-2.39102 1.29512-1.19551 .3985-1.19551-.3985-2.39102-1.29512-1.19551-.59775-.19925-.19925 .797 0Z" fill="#00cc00"/>
<path transform="matrix(-.90632727,-.4226327,-.4226327,.90632727,88.51776,93.92897)" stroke-width=".3985" stroke-linecap="butt" stroke-linejoin="round" fill="none" stroke="#00cc00" d="M.797 0C-.19925 .19925-1.19551 .59775-2.39102 1.29512-1.19551 .3985-1.19551-.3985-2.39102-1.29512-1.19551-.59775-.19925-.19925 .797 0Z"/>
<path transform="matrix(1.00003,0,0,-1.00003,82.51216,88.405269)" d="M1.70091 25.51236C1.70091 26.45175 .93938 27.21329 0 27.21329-.93938 27.21329-1.70091 26.45175-1.70091 25.51236-1.70091 24.57297-.93938 23.81145 0 23.81145 .93938 23.81145 1.70091 24.57297 1.70091 25.51236ZM0 25.51236" fill="#ff0000"/>
<path transform="matrix(1.00003,0,0,-1.00003,82.51216,88.405269)" stroke-width=".3985" stroke-linecap="butt" stroke-miterlimit="10" stroke-linejoin="miter" fill="none" stroke="#ff0000" d="M1.70091 25.51236C1.70091 26.45175 .93938 27.21329 0 27.21329-.93938 27.21329-1.70091 26.45175-1.70091 25.51236-1.70091 24.57297-.93938 23.81145 0 23.81145 .93938 23.81145 1.70091 24.57297 1.70091 25.51236ZM0 25.51236"/>
<use data-text="(" xlink:href="#font_3_1" transform="matrix(9.962899,0,0,-9.962899,86.032268,73.88483)" fill="#ff0000"/>
<use data-text="0" xlink:href="#font_3_3" transform="matrix(9.962899,0,0,-9.962899,89.897869,73.88483)" fill="#ff0000"/>
<use data-text="," xlink:href="#font_1_1" transform="matrix(9.962899,0,0,-9.962899,94.88853,73.88483)" fill="#ff0000"/>
<use data-text="b" xlink:href="#font_1_4" transform="matrix(9.962899,0,0,-9.962899,99.3021,73.88483)" fill="#ff0000"/>
<use data-text=")" xlink:href="#font_3_2" transform="matrix(9.962899,0,0,-9.962899,103.59179,73.88483)" fill="#ff0000"/>
<path transform="matrix(1.00003,0,0,-1.00003,82.51216,88.405269)" d="M1.70091-25.51236C1.70091-24.57297 .93938-23.81145 0-23.81145-.93938-23.81145-1.70091-24.57297-1.70091-25.51236-1.70091-26.45175-.93938-27.21329 0-27.21329 .93938-27.21329 1.70091-26.45175 1.70091-25.51236ZM0-25.51236" fill="#ff0000"/>
<path transform="matrix(1.00003,0,0,-1.00003,82.51216,88.405269)" stroke-width=".3985" stroke-linecap="butt" stroke-miterlimit="10" stroke-linejoin="miter" fill="none" stroke="#ff0000" d="M1.70091-25.51236C1.70091-24.57297 .93938-23.81145 0-23.81145-.93938-23.81145-1.70091-24.57297-1.70091-25.51236-1.70091-26.45175-.93938-27.21329 0-27.21329 .93938-27.21329 1.70091-26.45175 1.70091-25.51236ZM0-25.51236"/>
<use data-text="(" xlink:href="#font_3_1" transform="matrix(9.962899,0,0,-9.962899,86.032268,107.90785)" fill="#ff0000"/>
<use data-text="0" xlink:href="#font_3_3" transform="matrix(9.962899,0,0,-9.962899,89.897869,107.90785)" fill="#ff0000"/>
<use data-text="," xlink:href="#font_1_1" transform="matrix(9.962899,0,0,-9.962899,94.88853,107.90785)" fill="#ff0000"/>
<use data-text="&#x2212;" xlink:href="#font_4_1" transform="matrix(9.962899,0,0,-9.962899,99.31666,107.90785)" fill="#ff0000"/>
<use data-text="b" xlink:href="#font_1_4" transform="matrix(9.962899,0,0,-9.962899,107.06588,107.90785)" fill="#ff0000"/>
<use data-text=")" xlink:href="#font_3_2" transform="matrix(9.962899,0,0,-9.962899,111.340999,107.90785)" fill="#ff0000"/>
<path transform="matrix(1.00003,0,0,-1.00003,82.51216,88.405269)" d="M1.36067-30.66187C1.36067-29.91039 .75146-29.30118 0-29.30118-.75146-29.30118-1.36067-29.91039-1.36067-30.66187-1.36067-31.41335-.75146-32.02255 0-32.02255 .75146-32.02255 1.36067-31.41335 1.36067-30.66187ZM0-30.66187"/>
<path transform="matrix(1.00003,0,0,-1.00003,82.51216,88.405269)" stroke-width=".3985" stroke-linecap="butt" stroke-miterlimit="10" stroke-linejoin="miter" fill="none" stroke="#000000" d="M1.36067-30.66187C1.36067-29.91039 .75146-29.30118 0-29.30118-.75146-29.30118-1.36067-29.91039-1.36067-30.66187-1.36067-31.41335-.75146-32.02255 0-32.02255 .75146-32.02255 1.36067-31.41335 1.36067-30.66187ZM0-30.66187"/>
<use data-text="F" xlink:href="#font_1_2" transform="matrix(9.962899,0,0,-9.962899,86.032268,129.3965)"/>
<use data-text="2" xlink:href="#font_5_2" transform="matrix(6.9740097,0,0,-6.9740097,92.439449,130.89055)"/>
<path transform="matrix(1.00003,0,0,-1.00003,82.51216,88.405269)" d="M1.36067 30.66187C1.36067 31.41335 .75146 32.02255 0 32.02255-.75146 32.02255-1.36067 31.41335-1.36067 30.66187-1.36067 29.91039-.75146 29.30118 0 29.30118 .75146 29.30118 1.36067 29.91039 1.36067 30.66187ZM0 30.66187"/>
<path transform="matrix(1.00003,0,0,-1.00003,82.51216,88.405269)" stroke-width=".3985" stroke-linecap="butt" stroke-miterlimit="10" stroke-linejoin="miter" fill="none" stroke="#000000" d="M1.36067 30.66187C1.36067 31.41335 .75146 32.02255 0 32.02255-.75146 32.02255-1.36067 31.41335-1.36067 30.66187-1.36067 29.91039-.75146 29.30118 0 29.30118 .75146 29.30118 1.36067 29.91039 1.36067 30.66187ZM0 30.66187"/>
<use data-text="F" xlink:href="#font_1_2" transform="matrix(9.962899,0,0,-9.962899,86.032268,52.728197)"/>
<use data-text="1" xlink:href="#font_5_1" transform="matrix(6.9740097,0,0,-6.9740097,92.439449,54.222246)"/>
<use data-text="y" xlink:href="#font_1_6" transform="matrix(9.962899,0,0,-9.962899,1.7297211,106.08379)"/>
<use data-text="2" xlink:href="#font_5_2" transform="matrix(6.9740097,0,0,-6.9740097,6.971878,102.46769)"/>
<path transform="matrix(1.00003,0,0,-1.00003,-170.98047,37.413736)" stroke-width=".3985" stroke-linecap="butt" stroke-miterlimit="10" stroke-linejoin="miter" fill="none" stroke="#000000" d="M172.705-72.917H182.416"/>
<use data-text="b" xlink:href="#font_1_4" transform="matrix(9.962899,0,0,-9.962899,2.212738,119.6572)"/>
<use data-text="2" xlink:href="#font_5_2" transform="matrix(6.9740097,0,0,-6.9740097,6.488861,116.77911)"/>
<use data-text="&#x2212;" xlink:href="#font_4_1" transform="matrix(9.962899,0,0,-9.962899,14.85112,112.824)"/>
<use data-text="x" xlink:href="#font_1_5" transform="matrix(9.962899,0,0,-9.962899,26.00946,106.08379)"/>
<use data-text="2" xlink:href="#font_5_2" transform="matrix(6.9740097,0,0,-6.9740097,31.703629,102.46769)"/>
<path transform="matrix(1.00003,0,0,-1.00003,-170.98047,37.413736)" stroke-width=".3985" stroke-linecap="butt" stroke-miterlimit="10" stroke-linejoin="miter" fill="none" stroke="#000000" d="M196.984-72.917H207.147"/>
<use data-text="a" xlink:href="#font_1_3" transform="matrix(9.962899,0,0,-9.962899,26.22345,119.6572)"/>
<use data-text="2" xlink:href="#font_5_2" transform="matrix(6.9740097,0,0,-6.9740097,31.489624,116.77911)"/>
<use data-text="=" xlink:href="#font_3_5" transform="matrix(9.962899,0,0,-9.962899,40.13588,112.824)"/>
<use data-text="1" xlink:href="#font_3_4" transform="matrix(9.962899,0,0,-9.962899,50.636766,112.824)"/>
</svg>
