<svg xmlns="http://www.w3.org/2000/svg" xmlns:xlink="http://www.w3.org/1999/xlink" version="1.1" width="251" height="191" viewBox="0 0 251 191">
<defs>
<path id="font_1_1" d="M.33399964 .30233766C.33999635 .32835389 .36299134 .42037965 .43299867 .42037965 .43798829 .42037965 .46199037 .42037965 .48298646 .40734864 .45498658 .402359 .43499757 .37734986 .43499757 .35334779 .43499757 .33735658 .44599916 .31835938 .47299195 .31835938 .49499513 .31835938 .5269928 .3363495 .5269928 .37635804 .5269928 .42837525 .46798707 .4423828 .43399049 .4423828 .37599183 .4423828 .34098817 .38935853 .32899476 .36634828 .3039856 .43237306 .25 .4423828 .22099304 .4423828 .116989139 .4423828 .05999756 .3133545 .05999756 .28834535 .05999756 .27833558 .069992069 .27833558 .07199097 .27833558 .07998657 .27833558 .08299255 .28033448 .084991458 .28933717 .11898804 .39535523 .18499756 .42037965 .21899414 .42037965 .23799134 .42037965 .272995 .4113617 .272995 .35334779 .272995 .32235719 .2559967 .25532533 .21899414 .11528015 .20298767 .053268434 .16799927 .011245728 .12399292 .011245728 .117996219 .011245728 .09498596 .011245728 .07398987 .024276734 .09899902 .029266358 .12098694 .05027771 .12098694 .07827759 .12098694 .105270389 .09899902 .11328125 .083999637 .11328125 .053985597 .11328125 .0289917 .08728027 .0289917 .055267335 .0289917 .009246826 .07899475-.0107421879 .12298584-.0107421879 .18899536-.0107421879 .22499085 .059280397 .22799683 .0652771 .23999024 .028274537 .27598573-.0107421879 .33599855-.0107421879 .43899537-.0107421879 .49598695 .118270877 .49598695 .14328003 .49598695 .1532898 .4869995 .1532898 .48399354 .1532898 .47499085 .1532898 .47299195 .14929199 .47099305 .14228821 .43798829 .03527832 .36999513 .011245728 .33799745 .011245728 .29899598 .011245728 .2829895 .043273927 .2829895 .07727051 .2829895 .09927368 .2889862 .121276859 .2999878 .16529846L.33399964 .30233766Z"/>
<path id="font_1_2" d="M.48599244 .38136292C.48999024 .39537049 .48999024 .39736939 .48999024 .40437318 .48999024 .42237855 .47599793 .43138124 .46099855 .43138124 .45098878 .43138124 .43499757 .42536927 .42599488 .41036988 .42399598 .405365 .41600038 .37435914 .4119873 .35635377 .40499879 .33035279 .397995 .30334474 .3919983 .27633668L.34700013 .09628296C.34298707 .08126831 .2999878 .011245728 .23399353 .011245728 .18299866 .011245728 .17199707 .055267335 .17199707 .0922699 .17199707 .1382904 .18899536 .20030213 .22299195 .28833009 .23899842 .3293457 .24299622 .3403473 .24299622 .36035157 .24299622 .405365 .21099854 .4423828 .16099549 .4423828 .06599426 .4423828 .0289917 .29733277 .0289917 .28833009 .0289917 .27833558 .038986207 .27833558 .040985109 .27833558 .050994874 .27833558 .051986696 .28033448 .056991579 .29634095 .083999637 .3903656 .12399292 .42037965 .1579895 .42037965 .1659851 .42037965 .18299866 .42037965 .18299866 .3883667 .18299866 .36335755 .17298889 .3373413 .1659851 .31834413 .12599182 .21231079 .10798645 .1552887 .10798645 .10827637 .10798645 .019256592 .17098999-.0107421879 .22999573-.0107421879 .2689972-.0107421879 .30299378 .0062561037 .33099366 .03425598 .31799317-.017745972 .30599977-.06674194 .2659912-.11973572 .23999024-.15385437 .20199585-.18309021 .1559906-.18309021 .14199829-.18309021 .09700012-.18005371 .07998657-.14074707 .09599304-.14074707 .10899353-.14074707 .12298584-.1287384 .1329956-.11973572 .14299011-.10673523 .14299011-.08773804 .14299011-.056747438 .115997318-.052734376 .10598755-.052734376 .08299255-.052734376 .049987794-.068740848 .049987794-.11773682 .049987794-.16796875 .09399414-.20507813 .1559906-.20507813 .25898744-.20507813 .3619995-.11373901 .3899994-.00074768069L.48599244 .38136292Z"/>
<path id="font_2_7" d="M.16299439 .4569702C.116989139 .486969 .11299133 .52098086 .11299133 .5379791 .11299133 .598999 .17799378 .64100649 .24899292 .64100649 .32199098 .64100649 .38598634 .58898928 .38598634 .51698306 .38598634 .45996095 .34700013 .4119568 .2869873 .37695313L.16299439 .4569702M.30899049 .36193849C.3809967 .3989563 .42999269 .45095826 .42999269 .51698306 .42999269 .6090088 .34098817 .6660156 .25 .6660156 .1499939 .6660156 .068984989 .59199526 .068984989 .49897767 .068984989 .4809723 .070999149 .43595887 .11299133 .38894654 .12399292 .37695313 .16099549 .35194398 .18598938 .33494569 .12799073 .30592347 .041992189 .24984741 .041992189 .15072632 .041992189 .04458618 .14399719-.022460938 .24899292-.022460938 .3619995-.022460938 .45700074 .06060791 .45700074 .16773987 .45700074 .20379639 .44599916 .24885559 .4079895 .2909088 .3889923 .31193543 .37298585 .3219452 .30899049 .36193849M.20899964 .3199463 .33198548 .24183655C.3600006 .2228241 .40699769 .19277954 .40699769 .13169861 .40699769 .05760193 .33198548 .0055389406 .25 .0055389406 .1639862 .0055389406 .09199524 .067611698 .09199524 .15072632 .09199524 .20880127 .12399292 .27288819 .20899964 .3199463Z"/>
<path id="font_2_2" d="M.2939911 .64004519C.2939911 .66400149 .2939911 .6660156 .2709961 .6660156 .20899964 .60227969 .12098694 .60227969 .08898926 .60227969V.57128909C.10899353 .57128909 .16799927 .57128909 .21998596 .5972748V.07902527C.21998596 .042999269 .21699524 .0309906 .1269989 .0309906H.09498596V0C.12998963 .0029907227 .21699524 .0029907227 .25698854 .0029907227 .29699708 .0029907227 .38398744 .0029907227 .4189911 0V.0309906H.3869934C.29699708 .0309906 .2939911 .041992189 .2939911 .07902527V.64004519Z"/>
<path id="font_2_6" d="M.13198853 .327713V.35173036C.13198853 .6047821 .2559967 .64100649 .30699159 .64100649 .33099366 .64100649 .37298585 .634964 .394989 .6007538 .37998963 .6007538 .33999635 .6007538 .33999635 .5557556 .33999635 .524765 .3639984 .5097656 .38598634 .5097656 .4019928 .5097656 .43199159 .51875308 .43199159 .5577545 .43199159 .6178589 .3880005 .6660156 .30499269 .6660156 .1769867 .6660156 .041992189 .5367584 .041992189 .31570436 .041992189 .048553468 .1579895-.022460938 .25099183-.022460938 .3619995-.022460938 .45700074 .07156372 .45700074 .2036438 .45700074 .33070375 .36799623 .4267578 .25698854 .4267578 .18899536 .4267578 .1519928 .37573243 .13198853 .327713M.25099183 .0055389406C.18798828 .0055389406 .1579895 .06556702 .1519928 .080566409 .13398743 .127594 .13398743 .2076416 .13398743 .22564698 .13398743 .30369569 .1659851 .40374757 .2559967 .40374757 .27198792 .40374757 .31799317 .40374757 .34899903 .34172059 .36698915 .30470277 .36698915 .2536621 .36698915 .20463562 .36698915 .15661621 .36698915 .10658264 .34999085 .0705719 .31999208 .010528564 .27398683 .0055389406 .25099183 .0055389406Z"/>
<path id="font_2_3" d="M.1269989 .07699585 .23298645 .18003845C.3889923 .31811524 .44898988 .3721466 .44898988 .47216798 .44898988 .5860901 .35899354 .6660156 .23699951 .6660156 .12399292 .6660156 .049987794 .57411196 .049987794 .48516847 .049987794 .4291687 .099990848 .4291687 .102996829 .4291687 .11999512 .4291687 .15499878 .44117738 .15499878 .48217774 .15499878 .5081787 .13699341 .5341797 .101989749 .5341797 .09399414 .5341797 .09199524 .5341797 .08898926 .5331726 .11199951 .59806826 .1659851 .63500979 .22399903 .63500979 .31498719 .63500979 .35798646 .5541382 .35798646 .47216798 .35798646 .39215089 .30799867 .31311036 .25299073 .25108338L.06098938 .036987306C.049987794 .025985718 .049987794 .023986817 .049987794 0H.42099L.44898988 .17404175H.42399598C.4189911 .14402771 .4119873 .1000061 .4019928 .084991458 .394989 .07699585 .32899476 .07699585 .30699159 .07699585H.1269989Z"/>
<path id="font_2_5" d="M.2939911 .16503906V.07800293C.2939911 .041992189 .2919922 .0309906 .21798706 .0309906H.19699097V0C.23799134 .0029907227 .2899933 .0029907227 .33198548 .0029907227 .37399293 .0029907227 .4269867 .0029907227 .46798707 0V.0309906H.44699098C.37298585 .0309906 .37098695 .041992189 .37098695 .07800293V.16503906H.47099305V.19602967H.37098695V.65075686C.37098695 .67074587 .37098695 .6767578 .35499574 .6767578 .34599305 .6767578 .34298707 .6767578 .33499146 .66474917L.027999878 .19602967V.16503906H.2939911M.2999878 .19602967H.055999757L.2999878 .5688019V.19602967Z"/>
<path id="font_2_4" d="M.2899933 .35191346C.37199403 .37893678 .42999269 .4490509 .42999269 .52809146 .42999269 .6100464 .34199525 .6660156 .24598694 .6660156 .14498902 .6660156 .068984989 .60606387 .068984989 .53009036 .068984989 .49710084 .09098816 .47808839 .11999512 .47808839 .15098572 .47808839 .17098999 .50009158 .17098999 .5290985 .17098999 .57910159 .12399292 .57910159 .10899353 .57910159 .13999939 .62802127 .20599365 .64100649 .24198914 .64100649 .2829895 .64100649 .33799745 .6190338 .33799745 .5290985 .33799745 .51708987 .33599855 .45906068 .30999757 .4149933 .27999879 .36691285 .24598694 .36390687 .22099304 .36291505 .21299744 .36190797 .18899536 .35990907 .18199158 .35990907 .17399597 .35890199 .16699219 .35791017 .16699219 .3479004 .16699219 .33691407 .17399597 .33691407 .19099427 .33691407H.23498535C.31698609 .33691407 .35398866 .2686615 .35398866 .17037964 .35398866 .034469606 .2849884 .0055389406 .24099732 .0055389406 .19799805 .0055389406 .12298584 .022491456 .08799744 .08137512 .12298584 .07637024 .1539917 .09837341 .1539917 .1363678 .1539917 .17237854 .1269989 .19238281 .09799194 .19238281 .07398987 .19238281 .041992189 .17837525 .041992189 .1343689 .041992189 .043441774 .1349945-.022460938 .24398804-.022460938 .3659973-.022460938 .45700074 .06838989 .45700074 .17037964 .45700074 .252594 .3939972 .33088685 .2899933 .35191346Z"/>
<path id="font_2_1" d="M.45999146 .31976319C.45999146 .39982606 .45498658 .47988893 .41999818 .5539398 .37399293 .65000918 .2919922 .6660156 .25 .6660156 .18998719 .6660156 .116989139 .64001467 .07598877 .54693606 .04399109 .47789 .038986207 .39982606 .038986207 .31976319 .038986207 .24472046 .042999269 .15464783 .083999637 .07859802 .1269989-.0024719239 .19999695-.022460938 .24899292-.022460938 .30299378-.022460938 .3789978-.0014648438 .4229889 .09359741 .45498658 .16265869 .45999146 .2407074 .45999146 .31976319M.24899292-.00047302247C.20999146-.00047302247 .15098572 .024551392 .1329956 .12062073 .12199402 .18066406 .12199402 .2727356 .12199402 .3317871 .12199402 .39582826 .12199402 .46188355 .12998963 .5159149 .14898682 .63500979 .22399903 .64401248 .24899292 .64401248 .28199769 .64401248 .34799195 .6259918 .36698915 .52693179 .3769989 .47088624 .3769989 .39482118 .3769989 .3317871 .3769989 .25672914 .3769989 .18867493 .3659973 .12461853 .35099793 .029556275 .2939911-.00047302247 .24899292-.00047302247Z"/>
<path id="font_3_1" d="M.6589966 .23046875C.6759949 .23046875 .69400027 .23046875 .69400027 .25045777 .69400027 .27046205 .6759949 .27046205 .6589966 .27046205H.117996219C.100997928 .27046205 .08299255 .27046205 .08299255 .25045777 .08299255 .23046875 .100997928 .23046875 .117996219 .23046875H.6589966Z"/>
<path id="font_2_9" d="M.68699648 .32714845C.70199587 .32714845 .72099307 .32714845 .72099307 .34713746 .72099307 .36714173 .70199587 .36714173 .6879883 .36714173H.08898926C.07499695 .36714173 .055999757 .36714173 .055999757 .34713746 .055999757 .32714845 .07499695 .32714845 .08999634 .32714845H.68699648M.6879883 .13284302C.70199587 .13284302 .72099307 .13284302 .72099307 .15284729 .72099307 .17285156 .70199587 .17285156 .68699648 .17285156H.08999634C.07499695 .17285156 .055999757 .17285156 .055999757 .15284729 .055999757 .13284302 .07499695 .13284302 .08898926 .13284302H.6879883Z"/>
<path id="font_4_1" d="M.32998658 .3310547C.42199708 .3310547 .48298646 .2737732 .48298646 .17437744 .48298646 .07237244 .41999818 .01852417 .33099366 .01852417 .31999208 .01852417 .20098877 .01852417 .1499939 .070373538 .19099427 .07637024 .20298767 .1073761 .20298767 .13137818 .20298767 .16838074 .1749878 .19238281 .14199829 .19238281 .10998535 .19238281 .07998657 .17137146 .07998657 .12937927 .07998657 .025512696 .19799805-.022460938 .33399964-.022460938 .49798585-.022460938 .59999087 .07637024 .59999087 .17337036 .59999087 .25567628 .5269928 .3260193 .41299439 .35205079 .5329895 .3909912 .5649872 .46684266 .5649872 .5228424 .5649872 .60491946 .46299745 .6660156 .33699037 .6660156 .21398926 .6660156 .114990238 .61395266 .114990238 .5238342 .114990238 .47683717 .15299988 .46484376 .17199707 .46484376 .20098877 .46484376 .22898865 .48583985 .22898865 .5218353 .22898865 .5448303 .21699524 .5728302 .18099976 .57884219 .22399903 .625 .31298829 .628006 .33399964 .628006 .40699769 .628006 .45899964 .5908661 .45899964 .5228424 .45899964 .46484376 .42099 .37402345 .31599427 .368042 .28799439 .3670349 .28399659 .3660431 .2579956 .365036 .24699402 .3640442 .23599243 .36305238 .23599243 .34805299 .23599243 .3310547 .24598694 .3310547 .2639923 .3310547H.32998658Z"/>
<path id="font_3_2" d="M.3889923-.8549652 .21299744-.4659729C.20599365-.44996644 .20098877-.44996644 .19799805-.44996644 .19699097-.44996644 .19198609-.44996644 .18099976-.45796205L.085998538-.52996829C.07299805-.53996279 .07299805-.54296877 .07299805-.54597476 .07299805-.55096438 .07598877-.55696108 .08299255-.55696108 .08898926-.55696108 .10598755-.54296877 .116989139-.53497317 .12298584-.52996829 .13798523-.5189667 .14898682-.51097109L.34599305-.9439697C.35299684-.95996096 .35798646-.95996096 .36698915-.95996096 .38198854-.95996096 .3849945-.95396426 .3919983-.9399719L.84599307 .000030517579C.8529968 .014038086 .8529968 .018035889 .8529968 .02003479 .8529968 .030029297 .8450012 .040039064 .83299258 .040039064 .82499697 .040039064 .81799319 .03503418 .80999758 .01902771L.3889923-.8549652Z"/>
<path id="font_2_8" d="M.36698915 .31781007V.28579713C.36698915 .05178833 .2630005 .0055389406 .20498657 .0055389406 .18798828 .0055389406 .13398743 .007537842 .10699463 .041778566 .15098572 .041778566 .15899658 .07078552 .15899658 .08778381 .15899658 .118774417 .1349945 .13378906 .11299133 .13378906 .09700012 .13378906 .066986087 .12478638 .066986087 .08578491 .066986087 .018615723 .12098694-.022460938 .20599365-.022460938 .33499146-.022460938 .45700074 .11378479 .45700074 .32881166 .45700074 .5979767 .34199525 .6660156 .25299073 .6660156 .19799805 .6660156 .14898682 .64801028 .10598755 .60298159 .06498718 .5579529 .041992189 .5159302 .041992189 .44088746 .041992189 .31581117 .12998963 .21777344 .24198914 .21777344 .30299378 .21777344 .34399415 .25978089 .36698915 .31781007M.24299622 .24076844C.22698975 .24076844 .18099976 .24076844 .1499939 .3038025 .13198853 .3408203 .13198853 .39085389 .13198853 .43988038 .13198853 .49391175 .13198853 .54093936 .15299988 .5779724 .17999268 .6279907 .21798706 .64100649 .25299073 .64100649 .29899598 .64100649 .33198548 .60697939 .34899903 .5619507 .36099244 .52993777 .36499024 .4669037 .36499024 .42086793 .36499024 .3378296 .33099366 .24076844 .24299622 .24076844Z"/>
</defs>
<path transform="matrix(1.00008,0,0,-1.00003,16.58429,131.60857)" stroke-width=".3985" stroke-linecap="butt" stroke-miterlimit="10" stroke-linejoin="miter" fill="none" stroke="#00aeef" d="M0-54.42711H217.70847M0-27.21355H217.70847M0 0H217.70847M0 27.21355H217.70847M0 54.42711H217.70847M0 81.64067H217.70847M0 108.85184H217.70847M0-54.42711V108.85423M18.14235-54.42711V108.85423M36.28473-54.42711V108.85423M54.42711-54.42711V108.85423M72.56947-54.42711V108.85423M90.71185-54.42711V108.85423M108.85423-54.42711V108.85423M126.99661-54.42711V108.85423M145.13896-54.42711V108.85423M163.28134-54.42711V108.85423M181.42372-54.42711V108.85423M199.56609-54.42711V108.85423M217.70688-54.42711V108.85423M217.70847 108.85423"/>
<path transform="matrix(1.00008,0,0,-1.00003,16.58429,131.60857)" stroke-width=".79701" stroke-linecap="butt" stroke-miterlimit="10" stroke-linejoin="miter" fill="none" stroke="#000000" d="M0 0H223.07724"/>
<path transform="matrix(1.00008,0,0,-1.00003,239.67937,131.60857)" d="M1.0361 0C-.25902 .25902-1.55415 .77707-3.1083 1.68365-1.55415 .51805-1.55415-.51805-3.1083-1.68365-1.55415-.77707-.25902-.25902 1.0361 0Z"/>
<path transform="matrix(1.00008,0,0,-1.00003,239.67937,131.60857)" stroke-width=".79701" stroke-linecap="butt" stroke-linejoin="round" fill="none" stroke="#000000" d="M1.0361 0C-.25902 .25902-1.55415 .77707-3.1083 1.68365-1.55415 .51805-1.55415-.51805-3.1083-1.68365-1.55415-.77707-.25902-.25902 1.0361 0Z"/>
<use data-text="x" xlink:href="#font_1_1" transform="matrix(9.963397,0,0,-9.962899,244.83354,133.75363)"/>
<path transform="matrix(1.00008,0,0,-1.00003,16.58429,131.60857)" stroke-width=".79701" stroke-linecap="butt" stroke-miterlimit="10" stroke-linejoin="miter" fill="none" stroke="#000000" d="M0-54.42711V118.30507"/>
<path transform="matrix(0,-1.00003,-1.00008,-0,16.58429,13.299942)" d="M1.0361 0C-.25902 .25902-1.55415 .77707-3.1083 1.68365-1.55415 .51805-1.55415-.51805-3.1083-1.68365-1.55415-.77707-.25902-.25902 1.0361 0Z"/>
<path transform="matrix(0,-1.00003,-1.00008,-0,16.58429,13.299942)" stroke-width=".79701" stroke-linecap="butt" stroke-linejoin="round" fill="none" stroke="#000000" d="M1.0361 0C-.25902 .25902-1.55415 .77707-3.1083 1.68365-1.55415 .51805-1.55415-.51805-3.1083-1.68365-1.55415-.77707-.25902-.25902 1.0361 0Z"/>
<use data-text="y" xlink:href="#font_1_2" transform="matrix(9.963397,0,0,-9.962899,13.963081,6.2087938)"/>
<path transform="matrix(1.00008,0,0,-1.00003,16.58429,131.60857)" stroke-width=".3985" stroke-linecap="butt" stroke-miterlimit="10" stroke-linejoin="miter" fill="none" stroke="#000000" d="M36.28473 .68036V-.68027"/>
<path transform="matrix(1.00008,0,0,-1.00003,16.58429,131.60857)" d="M32.79776-11.28506H39.771699V-2.8720799H32.79776Z" fill="#ffffff"/>
<use data-text="8" xlink:href="#font_2_7" transform="matrix(9.963397,0,0,-9.962899,50.380994,141.89788)"/>
<path transform="matrix(1.00008,0,0,-1.00003,16.58429,131.60857)" stroke-width=".3985" stroke-linecap="butt" stroke-miterlimit="10" stroke-linejoin="miter" fill="none" stroke="#000000" d="M72.56947 .68036V-.68027"/>
<path transform="matrix(1.00008,0,0,-1.00003,16.58429,131.60857)" d="M66.5918-11.28506H78.547138V-2.8720799H66.5918Z" fill="#ffffff"/>
<use data-text="1" xlink:href="#font_2_2" transform="matrix(9.963397,0,0,-9.962899,84.1777,141.89788)"/>
<use data-text="6" xlink:href="#font_2_6" transform="matrix(9.963397,0,0,-9.962899,89.15939,141.89788)"/>
<path transform="matrix(1.00008,0,0,-1.00003,16.58429,131.60857)" stroke-width=".3985" stroke-linecap="butt" stroke-miterlimit="10" stroke-linejoin="miter" fill="none" stroke="#000000" d="M108.85423 .68036V-.68027"/>
<path transform="matrix(1.00008,0,0,-1.00003,16.58429,131.60857)" d="M102.87656-11.28506H114.831897V-2.8720799H102.87656Z" fill="#ffffff"/>
<use data-text="2" xlink:href="#font_2_3" transform="matrix(9.963397,0,0,-9.962899,120.4656,141.89788)"/>
<use data-text="4" xlink:href="#font_2_5" transform="matrix(9.963397,0,0,-9.962899,125.447299,141.89788)"/>
<path transform="matrix(1.00008,0,0,-1.00003,16.58429,131.60857)" stroke-width=".3985" stroke-linecap="butt" stroke-miterlimit="10" stroke-linejoin="miter" fill="none" stroke="#000000" d="M145.13896 .68036V-.68027"/>
<path transform="matrix(1.00008,0,0,-1.00003,16.58429,131.60857)" d="M139.16129-11.28506H151.11663V-2.8720799H139.16129Z" fill="#ffffff"/>
<use data-text="3" xlink:href="#font_2_4" transform="matrix(9.963397,0,0,-9.962899,156.75351,141.89788)"/>
<use data-text="2" xlink:href="#font_2_3" transform="matrix(9.963397,0,0,-9.962899,161.7352,141.89788)"/>
<path transform="matrix(1.00008,0,0,-1.00003,16.58429,131.60857)" stroke-width=".3985" stroke-linecap="butt" stroke-miterlimit="10" stroke-linejoin="miter" fill="none" stroke="#000000" d="M181.42372 .68036V-.68027"/>
<path transform="matrix(1.00008,0,0,-1.00003,16.58429,131.60857)" d="M175.44605-11.28506H187.40139V-2.8720799H175.44605Z" fill="#ffffff"/>
<use data-text="4" xlink:href="#font_2_5" transform="matrix(9.963397,0,0,-9.962899,193.0404,141.89788)"/>
<use data-text="0" xlink:href="#font_2_1" transform="matrix(9.963397,0,0,-9.962899,198.0221,141.89788)"/>
<path transform="matrix(1.00008,0,0,-1.00003,16.58429,131.60857)" stroke-width=".3985" stroke-linecap="butt" stroke-miterlimit="10" stroke-linejoin="miter" fill="none" stroke="#000000" d="M217.70847 .68036V-.68027"/>
<path transform="matrix(1.00008,0,0,-1.00003,16.58429,131.60857)" d="M211.73079-11.28506H223.68613V-2.8720799H211.73079Z" fill="#ffffff"/>
<use data-text="4" xlink:href="#font_2_5" transform="matrix(9.963397,0,0,-9.962899,229.32831,141.89788)"/>
<use data-text="8" xlink:href="#font_2_7" transform="matrix(9.963397,0,0,-9.962899,234.31,141.89788)"/>
<path transform="matrix(1.00008,0,0,-1.00003,16.58429,131.60857)" stroke-width=".3985" stroke-linecap="butt" stroke-miterlimit="10" stroke-linejoin="miter" fill="none" stroke="#000000" d="M.45357-54.42711H-.45349"/>
<path transform="matrix(1.00008,0,0,-1.00003,16.58429,131.60857)" d="M-17.36809-59.04872H-2.6453095V-49.805494H-17.36809Z" fill="#ffffff"/>
<use data-text="&#x2212;" xlink:href="#font_3_1" transform="matrix(9.963397,0,0,-9.962899,.21098328,188.83228)"/>
<use data-text="8" xlink:href="#font_2_7" transform="matrix(9.963397,0,0,-9.962899,7.960602,188.83228)"/>
<path transform="matrix(1.00008,0,0,-1.00003,16.58429,131.60857)" stroke-width=".3985" stroke-linecap="butt" stroke-miterlimit="10" stroke-linejoin="miter" fill="none" stroke="#000000" d="M.45357 0H-.45349"/>
<path transform="matrix(1.00008,0,0,-1.00003,16.58429,131.60857)" d="M-9.61925-4.20648H-2.6453105V4.2065H-9.61925Z" fill="#ffffff"/>
<use data-text="0" xlink:href="#font_2_1" transform="matrix(9.963397,0,0,-9.962899,7.960602,134.81867)"/>
<path transform="matrix(1.00008,0,0,-1.00003,16.58429,131.60857)" stroke-width=".3985" stroke-linecap="butt" stroke-miterlimit="10" stroke-linejoin="miter" fill="none" stroke="#000000" d="M.45357 54.42711H-.45349"/>
<path transform="matrix(1.00008,0,0,-1.00003,16.58429,131.60857)" d="M-9.61925 50.22061H-2.6453105V58.63359H-9.61925Z" fill="#ffffff"/>
<use data-text="8" xlink:href="#font_2_7" transform="matrix(9.963397,0,0,-9.962899,7.960602,80.39003)"/>
<path transform="matrix(1.00008,0,0,-1.00003,16.58429,131.60857)" stroke-width=".3985" stroke-linecap="butt" stroke-miterlimit="10" stroke-linejoin="miter" fill="none" stroke="#000000" d="M.45357 108.85423H-.45349"/>
<path transform="matrix(1.00008,0,0,-1.00003,16.58429,131.60857)" d="M-14.60066 104.64774H-2.64532V113.06072H-14.60066Z" fill="#ffffff"/>
<use data-text="1" xlink:href="#font_2_2" transform="matrix(9.963397,0,0,-9.962899,2.9792023,25.961396)"/>
<use data-text="6" xlink:href="#font_2_6" transform="matrix(9.963397,0,0,-9.962899,7.9608995,25.961396)"/>
<path transform="matrix(1.00008,0,0,-1.00003,16.58429,131.60857)" stroke-width="1.19553" stroke-linecap="butt" stroke-miterlimit="10" stroke-linejoin="miter" fill="none" stroke="#ff0000" d="M40.82033 0C40.82033 0 41.81879 15.1142 42.20227 18.31607 42.58575 21.51794 43.20071 21.95326 43.5842 23.07687 43.96768 24.20047 44.58266 25.583 44.96614 26.41418 45.34962 27.2454 45.9646 28.3881 46.34807 29.06761 46.73155 29.74712 47.34654 30.72815 47.73001 31.3116 48.1135 31.89507 48.72847 32.75722 49.11195 33.27281 49.49544 33.7884 50.11041 34.56293 50.4939 35.02765 50.87738 35.49236 51.49234 36.19751 51.87582 36.62218 52.25932 37.04686 52.8743 37.69606 53.25777 38.08841 53.64125 38.48077 54.25624 39.0845 54.63971 39.45001 55.0232 39.8155 55.63817 40.37982 56.02165 40.72275 56.40514 41.06566 57.02011 41.59828 57.4036 41.92155 57.78708 42.24483 58.40204 42.746 58.78552 43.05267 59.169 43.35936 59.78398 43.83969 60.16747 44.13191 60.55095 44.42413 61.16591 44.88014 61.5494 45.15883 61.93288 45.43748 62.54787 45.87347 62.93135 46.14046 63.31482 46.40744 63.9298 46.82674 64.31328 47.08305 64.69675 47.3394 65.31174 47.74118 65.69522 47.98788 66.0787 48.23459 66.69366 48.62308 67.07716 48.86115 67.46065 49.09921 68.0756 49.47386 68.45909 49.70367 68.84258 49.9335 69.45757 50.29506 69.84105 50.51756 70.22452 50.74008 70.8395 51.09137 71.22298 51.30737 71.60645 51.52336 72.22144 51.8649 72.60492 52.07433 72.9884 52.28375 73.60336 52.61334 73.98685 52.81679 74.37033 53.02022 74.9853 53.3427 75.36879 53.54056 75.75227 53.73839 76.36723 54.04967 76.75072 54.24274 77.1342 54.4358 77.74919 54.74341 78.13268 54.93204 78.51614 55.12068 79.13112 55.41858 79.5146 55.60225 79.8981 55.78592 80.51306 56.07632 80.89655 56.25584 81.28003 56.43538 81.89499 56.72061 82.27849 56.89616 82.66197 57.07172 83.27693 57.34941 83.66042 57.5211 84.0439 57.6928 84.65889 57.96553 85.04236 58.13359 85.42584 58.30165 86.04082 58.56778 86.4243 58.73238 86.80777 58.89699 87.42276 59.15851 87.80624 59.31995 88.18973 59.48138 88.80469 59.73752 89.18817 59.89589 89.57166 60.05426 90.18663 60.30595 90.57011 60.46146 90.9536 60.61696 91.56857 60.86407 91.95204 61.01665 92.33553 61.16919 92.95052 61.41129 93.334 61.56102 93.71747 61.71077 94.33244 61.94861 94.71593 62.09586 95.09943 62.24312 95.71439 62.4775 96.09787 62.6224 96.48135 62.7673 97.09631 62.99808 97.47981 63.14021 97.8633 63.28235 98.47826 63.50674 98.86174 63.64682 99.24522 63.78687 99.86021 64.01152 100.24368 64.14967 100.62717 64.28784 101.24214 64.50684 101.62563 64.64258 102.0091 64.77832 102.62408 64.99393 103.00757 65.12799 103.39105 65.26205 104.00601 65.47685 104.3895 65.60884 104.77298 65.74084 105.38795 65.9494 105.77144 66.07932 106.15492 66.20924 106.7699 66.41743 107.15337 66.54523 107.53685 66.673 108.15184 66.874 108.53532 67.00034 108.9188 67.12668 109.53377 67.33084 109.91725 67.45587 110.30075 67.58089 110.91571 67.77866 111.2992 67.90143 111.68268 68.0242 112.29764 68.21878 112.68114 68.34074 113.06462 68.46272 113.67958 68.65991 114.06306 68.78049 114.44655 68.9011 115.06154 69.09134 115.445 69.20985 115.82849 69.32837 116.44347 69.51747 116.82695 69.63466 117.21043 69.75185 117.82541 69.93884 118.2089 70.05447 118.59238 70.1701 119.20734 70.3538 119.59082 70.46805 119.9743 70.5823 120.58928 70.7647 120.97276 70.87791 121.35625 70.99112 121.97122 71.17213 122.35469 71.28401 122.73817 71.3959 123.35316 71.57397 123.73663 71.68431 124.12012 71.79463 124.73509 71.97003 125.11858 72.07921 125.50208 72.1884 126.11703 72.36295 126.50052 72.47119 126.884 72.57947 127.49896 72.75237 127.88246 72.85945 128.26595 72.96655 128.88092 73.13736 129.26439 73.24313 129.64788 73.34892 130.26287 73.51688 130.64633 73.62186 131.02982 73.72682 131.64479 73.89601 132.02828 73.99973 132.41176 74.10342 133.02674 74.26674 133.41022 74.3693 133.7937 74.47185 134.40866 74.63718 134.79215 74.73886 135.17563 74.84055 135.79062 75.00179 136.17409 75.1022 136.55757 75.2026 137.17253 75.36302 137.55602 75.46263 137.9395 75.56224 138.55449 75.72124 138.93798 75.82016 139.32144 75.91908 139.93642 76.07773 140.3199 76.17561 140.70339 76.2735 141.31836 76.42847 141.70185 76.52565 142.08533 76.62286 142.7003 76.7799 143.08379 76.87613 143.46727 76.97235 144.08223 77.12411 144.46572 77.21913 144.8492 77.31412 145.46419 77.46628 145.84767 77.56087 146.23114 77.65547 146.84612 77.8074 147.2296 77.90097 147.61307 77.99452 148.22806 78.1427 148.61154 78.23523 148.99503 78.32776 149.60999 78.47578 149.99347 78.56784 150.37696 78.65991 150.99193 78.80783 151.37541 78.89879 151.7589 78.98978 152.37387 79.13318 152.75734 79.22353 153.14083 79.31386 153.75582 79.4598 154.1393 79.5499 154.52277 79.64001 155.13774 79.78406 155.52124 79.87297 155.90473 79.96185 156.51969 80.10242 156.90317 80.19063 157.28665 80.27882 157.90163 80.42096 158.28511 80.5087 158.6686 80.59644 159.28356 80.73633 159.66704 80.82304 160.05052 80.90976 160.66551 81.04758 161.04898 81.13365 161.43247 81.21973 162.04744 81.35764 162.43093 81.44342 162.81439 81.5292 163.42938 81.6668 163.81287 81.75194 164.19635 81.83711 164.81131 81.97275 165.1948 82.05716 165.57828 82.14156 166.19326 82.27652 166.57674 82.36028 166.96022 82.44406 167.5752 82.57819 167.95867 82.66092 168.34217 82.74367 168.95714 82.87425 169.34062 82.95657 169.72409 83.0389 170.33907 83.17244 170.72257 83.25432 171.10605 83.33617 171.72101 83.46541 172.10449 83.54665 172.48798 83.62788 173.10295 83.75862 173.48644 83.8398 173.86992 83.92097 174.48488 84.05205 174.86837 84.13173 175.25185 84.21141 175.86684 84.33493 176.2503 84.41408 176.63379 84.49326 177.24877 84.62236 177.63225 84.70227 178.01572 84.78218 178.6307 84.91199 179.01419 84.99004 179.39768 85.0681 180.01264 85.18733 180.39612 85.26492 180.7796 85.34253 181.39458 85.47102 181.77806 85.54936 182.16155 85.62772 182.77652 85.75287 183.15999 85.82967 183.54349 85.90646 184.15847 86.02634 184.54195 86.1029 184.92542 86.17946 185.54039 86.30455 185.92389 86.38153 186.30738 86.4585 186.92234 86.58168 187.30582 86.65767 187.6893 86.73366 188.30428 86.85411 188.68776 86.92923 189.07125 87.00436 189.6862 87.1246 190.06969 87.19914 190.45317 87.2737 191.06816 87.39241 191.45163 87.46657 191.83512 87.54071 192.45009 87.65977 192.83358 87.73358 193.21706 87.80736 193.83203 87.92505 194.21552 87.9985 194.599 88.07196 195.21396 88.19019 195.59745 88.26302 195.98093 88.33583 196.5959 88.45094 196.97939 88.52336 197.36287 88.59578 197.97783 88.71301 198.36132 88.78497 198.74481 88.85692 199.35979 88.97058 199.74327 89.042 200.12674 89.11345 200.74172 89.22842 201.12522 89.29988 201.50868 89.3713 202.12366 89.486 202.50714 89.55692 202.89063 89.62784 203.5056 89.74081 203.88909 89.81105 204.27257 89.88129 204.88755 89.99286 205.27101 90.0631 205.6545 90.13333 206.26949 90.24751 206.65296 90.31723 207.03644 90.38695 207.65142 90.49648 208.0349 90.56555 208.41838 90.63463 209.03336 90.74615 209.41684 90.81511 209.80033 90.88406 210.41529 90.99416 210.79877 91.06259 211.18225 91.13103 211.79723 91.24039 212.18071 91.30843 212.5642 91.37646 213.17916 91.48543 213.56264 91.553 213.94614 91.62059 214.56111 91.72809 214.9446 91.79552 215.32807 91.86292 215.94304 91.97173 216.32654 92.03883 216.71002 92.10596 217.70847 92.27927 215.8631 91.95914"/>
<path transform="matrix(.9853388,-.17093514,-.17094368,-.98528966,232.46465,39.646684)" d="M1.27522 0C-.31879 .31879-1.91284 .9564-3.8257 2.07224-1.91284 .6376-1.91284-.6376-3.8257-2.07224-1.91284-.9564-.31879-.31879 1.27522 0Z" fill="#ff0000"/>
<path transform="matrix(.9853388,-.17093514,-.17094368,-.98528966,232.46465,39.646684)" stroke-width="1.19553" stroke-linecap="butt" stroke-linejoin="round" fill="none" stroke="#ff0000" d="M1.27522 0C-.31879 .31879-1.91284 .9564-3.8257 2.07224-1.91284 .6376-1.91284-.6376-3.8257-2.07224-1.91284-.9564-.31879-.31879 1.27522 0Z"/>
<path transform="matrix(1.00008,0,0,-1.00003,16.58429,131.60857)" stroke-width="1.19553" stroke-linecap="butt" stroke-miterlimit="10" stroke-linejoin="miter" fill="none" stroke="#ff0000" d="M1.70067-55.81769C.2304-56.49588 .2304-56.49588 .3189-56.45474 .4074-56.4136 .5493-56.34697 .6378-56.30568 .7263-56.26437 .86821-56.19867 .95671-56.15701 1.04521-56.11536 1.18713-56.04723 1.27562-56.00545 1.3641-55.96368 1.50604-55.89778 1.59453-55.85597 1.68301-55.81413 1.82495-55.74634 1.91344-55.70398 2.00192-55.66164 2.14384-55.59328 2.23235-55.55075 2.32083-55.50824 2.46275-55.44006 2.55125-55.39754 2.63976-55.35501 2.78166-55.28734 2.87018-55.24431 2.95866-55.20126 3.10057-55.13066 3.18907-55.08734 3.27757-55.04402 3.41948-54.97531 3.50798-54.93204 3.59648-54.88878 3.7384-54.81906 3.82689-54.7755 3.91539-54.73193 4.05731-54.66202 4.1458-54.61812 4.23428-54.57422 4.37622-54.5035 4.4647-54.45908 4.55319-54.41466 4.69513-54.34312 4.78362-54.29796 4.8721-54.25279 5.01404-54.17847 5.10252-54.13353 5.19102-54.0886 5.33293-54.01895 5.42145-53.97408 5.50993-53.9292 5.65184-53.85529 5.74036-53.81004 5.82884-53.76482 5.97075-53.6935 6.05927-53.6481 6.14775-53.6027 6.28966-53.52847 6.37816-53.48283 6.46666-53.43721 6.60858-53.36514 6.69707-53.31923 6.78557-53.2733 6.92749-53.19827 7.01598-53.15189 7.10448-53.1055 7.2464-53.03145 7.33488-52.98495 7.42337-52.93846 7.5653-52.86357 7.6538-52.81679 7.74228-52.77 7.88422-52.69502 7.9727-52.64777 8.0612-52.60052 8.20311-52.52386 8.29163-52.47627 8.38011-52.4287 8.52202-52.3526 8.61053-52.30478 8.69902-52.25696 8.84093-52.18002 8.92944-52.13162 9.01793-52.08324 9.15985-52.00471 9.24834-51.95598 9.33684-51.90724 9.47876-51.8293 9.56725-51.78032 9.65575-51.73135 9.79767-51.65216 9.88615-51.60301 9.97466-51.55386 10.11658-51.4755 10.20506-51.42613 10.29355-51.37675 10.43549-51.29692 10.52397-51.24715 10.61247-51.19737 10.7544-51.11758 10.8429-51.06735 10.93138-51.01712 11.0733-50.93576 11.1618-50.88506 11.25029-50.83437 11.3922-50.75293 11.48071-50.70193 11.5692-50.65094 11.7111-50.5689 11.79962-50.51756 11.8881-50.46623 12.03003-50.38368 12.11853-50.33195 12.20702-50.28021 12.34894-50.1967 12.43742-50.14467 12.52592-50.09265 12.66785-50.00935 12.75633-49.95697 12.84483-49.9046 12.98676-49.82016 13.07524-49.76721 13.16374-49.71428 13.30566-49.62885 13.39415-49.57536 13.48265-49.5219 13.62457-49.43562 13.71307-49.38187 13.80156-49.32811 13.94348-49.24193 14.03198-49.18794 14.12047-49.13396 14.26237-49.04733 14.35089-48.99278 14.43938-48.93822 14.5813-48.84973 14.6698-48.79471 14.75829-48.73969 14.9002-48.65176 14.98871-48.59622 15.0772-48.54068 15.21912-48.45041 15.3076-48.39441 15.3961-48.33841 15.53802-48.24901 15.62651-48.19261 15.71501-48.1362 15.85693-48.04482 15.94542-47.98788 16.03394-47.93097 16.17584-47.83978 16.26434-47.78233 16.35283-47.7249 16.49475-47.63179 16.58325-47.57388 16.67174-47.51598 16.81366-47.42332 16.90216-47.365 16.99065-47.30672 17.13258-47.2126 17.22107-47.15366 17.30956-47.09471 17.45148-46.99962 17.53998-46.94022 17.62846-46.88083 17.77039-46.78545 17.85889-46.72554 17.94737-46.66562 18.0893-46.56903 18.1778-46.50836 18.26628-46.4477 18.4082-46.34958 18.49669-46.28828 18.5852-46.22697 18.72711-46.1283 18.8156-46.06653 18.90411-46.00478 19.04602-45.90547 19.13452-45.84314 19.22302-45.78079 19.36493-45.68022 19.45343-45.61725 19.54192-45.55428 19.68385-45.45288 19.77234-45.38927 19.86082-45.32567 20.00276-45.22295 20.09125-45.15883 20.17973-45.09468 20.32166-44.99197 20.41016-44.92711 20.49864-44.86223 20.64056-44.75703 20.72906-44.69124 20.81755-44.62544 20.95947-44.51926 21.04797-44.4529 21.13646-44.38654 21.27838-44.28 21.36687-44.21288 21.45538-44.14577 21.59729-44.03705 21.68579-43.96913 21.77429-43.90121 21.9162-43.79175 22.0047-43.72331 22.0932-43.65486 22.2351-43.54514 22.32361-43.47583 22.41211-43.40652 22.55403-43.29445 22.64252-43.22375 22.731-43.15308 22.87294-43.03758 22.96143-42.96632 23.04991-42.89505 23.19185-42.78178 23.28033-42.7101 23.36882-42.63844 23.51074-42.52234 23.59924-42.44975 23.68773-42.37717 23.82965-42.26018 23.91815-42.18689 24.00665-42.1136 24.14856-41.99599 24.23706-41.92155 24.32556-41.84712 24.46747-41.72604 24.55597-41.6504 24.64447-41.57475 24.78638-41.45285 24.87488-41.37634 24.96338-41.29984 25.1053-41.1765 25.19379-41.09895 25.28229-41.02141 25.42421-40.89601 25.5127-40.81741 25.60118-40.73883 25.74312-40.61235 25.8316-40.53256 25.92009-40.45276 26.06203-40.32326 26.15051-40.24231 26.239-40.16136 26.38092-40.03117 26.46942-39.94913 26.55792-39.8671 26.69983-39.7343 26.78833-39.651 26.87683-39.56769 27.01874-39.43333 27.10725-39.3487 27.19574-39.26405 27.33765-39.12712 27.42616-39.041 27.51465-38.95486 27.65657-38.81523 27.74506-38.7279 27.83356-38.64056 27.97548-38.5002 28.06396-38.41148 28.15247-38.32275 28.29439-38.17876 28.38287-38.08841 28.47137-37.99808 28.6133-37.85216 28.70178-37.76038 28.79027-37.6686 28.9322-37.52055 29.02069-37.42693 29.10919-37.33331 29.25111-37.18095 29.3396-37.0856 29.4281-36.99025 29.57-36.83679 29.65851-36.73972 29.74701-36.64261 29.88892-36.485 29.97743-36.38591 30.06592-36.2868 30.20784-36.12648 30.29634-36.02547 30.38483-35.92448 30.52675-35.761 30.61523-35.65797 30.70374-35.55498 30.84566-35.38823 30.93414-35.28302 31.02264-35.17781 31.16457-35.00731 31.25305-34.89975 31.34155-34.79218 31.48347-34.61826 31.57196-34.50775 31.66045-34.39725 31.80238-34.2163 31.89087-34.1033 31.97937-33.99033 32.12129-33.80869 32.20978-33.69347 32.29828-33.57823 32.4402-33.39098 32.5287-33.27281 32.61719-33.15465 32.7591-32.96323 32.84761-32.84178 32.9361-32.72034 33.07802-32.52249 33.16652-32.39748 33.255-32.27246 33.39693-32.06918 33.48543-31.9407 33.57391-31.81223 33.71584-31.60387 33.80432-31.47148 33.89282-31.33908 34.03474-31.12306 34.12323-30.98648 34.21173-30.84987 34.35365-30.62784 34.44214-30.48692 34.53065-30.346 34.67256-30.11665 34.76105-29.97076 34.84955-29.8249 34.99147-29.58687 35.07996-29.43552 35.16846-29.28416 35.31038-29.03716 35.39888-28.87991 35.48737-28.7227 35.62929-28.466 35.71779-28.30232 35.80627-28.13864 35.9482-27.87082 36.0367-27.70021 36.12518-27.52962 36.2671-27.2512 36.3556-27.07277 36.44409-26.89435 36.58601-26.60184 36.6745-26.41418 36.763-26.22655 36.90492-25.91856 36.99341-25.7203 37.08192-25.52208 37.22383-25.19574 37.31232-24.98534 37.40083-24.77493 37.54274-24.42819 37.63123-24.20384 37.71973-23.97949 37.86165-23.6089 37.95015-23.36836 38.03864-23.12782 38.18057-22.73077 38.26906-22.47018 38.35754-22.2096 38.49948-21.77533 38.58797-21.4902 38.67645-21.20508 38.81837-20.73161 38.90688-20.41515 38.99536-20.09866 39.13728-19.56734 39.22578-19.20926 39.31427-18.8512 39.45619-18.25099 39.5447-17.83438 39.63318-17.41777 39.7751-16.70706 39.86359-16.20662 39.9521-15.70618 40.09401-14.90926 40.1825-14.22755 40.27101-13.54587 40.41292-13.26747 40.5014-11.29344 40.58992-9.31938 40.82033 0 40.82033 0"/>
<path transform="matrix(-.90807268,.41885258,.4188735,.9080273,18.285096,187.42792)" d="M1.27522 0C-.31879 .31879-1.91284 .9564-3.8257 2.07224-1.91284 .6376-1.91284-.6376-3.8257-2.07224-1.91284-.9564-.31879-.31879 1.27522 0Z" fill="#ff0000"/>
<path transform="matrix(-.90807268,.41885258,.4188735,.9080273,18.285096,187.42792)" stroke-width="1.19553" stroke-linecap="butt" stroke-linejoin="round" fill="none" stroke="#ff0000" d="M1.27522 0C-.31879 .31879-1.91284 .9564-3.8257 2.07224-1.91284 .6376-1.91284-.6376-3.8257-2.07224-1.91284-.9564-.31879-.31879 1.27522 0Z"/>
<path transform="matrix(1.00008,0,0,-1.00003,16.58429,131.60857)" d="M166.0027 81.64067C166.0027 83.14362 164.78432 84.36197 163.28134 84.36197 161.77837 84.36197 160.55997 83.14362 160.55997 81.64067 160.55997 80.13773 161.77837 78.91936 163.28134 78.91936 164.78432 78.91936 166.0027 80.13773 166.0027 81.64067ZM163.28134 81.64067" fill="#ff0000"/>
<path transform="matrix(1.00008,0,0,-1.00003,16.58429,131.60857)" stroke-width=".3985" stroke-linecap="butt" stroke-miterlimit="10" stroke-linejoin="miter" fill="none" stroke="#ff0000" d="M166.0027 81.64067C166.0027 83.14362 164.78432 84.36197 163.28134 84.36197 161.77837 84.36197 160.55997 83.14362 160.55997 81.64067 160.55997 80.13773 161.77837 78.91936 163.28134 78.91936 164.78432 78.91936 166.0027 80.13773 166.0027 81.64067ZM163.28134 81.64067"/>
<path transform="matrix(1.00008,0,0,-1.00003,16.58429,131.60857)" d="M162.221 101.58144H221.49022V116.12702H162.221Z" fill="#ffffff"/>
<use data-text="y" xlink:href="#font_1_2" transform="matrix(9.963397,0,0,-9.962899,180.81143,26.094399)" fill="#ff0000"/>
<use data-text="=" xlink:href="#font_2_9" transform="matrix(9.963397,0,0,-9.962899,188.82108,26.094399)" fill="#ff0000"/>
<use data-text="4" xlink:href="#font_2_5" transform="matrix(9.963397,0,0,-9.962899,199.3225,26.094399)" fill="#ff0000"/>
<use data-text="3" xlink:href="#font_4_1" transform="matrix(4.9816987,0,0,-4.9814498,207.08754,21.96328)" fill="#ff0000"/>
<use data-text="&#x221a;" xlink:href="#font_3_2" transform="matrix(9.963397,0,0,-9.962899,204.94336,18.268166)" fill="#ff0000"/>
<path transform="matrix(1.00008,0,0,-1.00003,77.221149,-92.519168)" stroke-width=".3985" stroke-linecap="butt" stroke-miterlimit="10" stroke-linejoin="miter" fill="none" stroke="#ff0000" d="M136.014-110.585H158.865"/>
<use data-text="x" xlink:href="#font_1_1" transform="matrix(9.963397,0,0,-9.962899,213.24604,26.094399)" fill="#ff0000"/>
<use data-text="&#x2212;" xlink:href="#font_3_1" transform="matrix(9.963397,0,0,-9.962899,221.15467,26.094399)" fill="#ff0000"/>
<use data-text="9" xlink:href="#font_2_8" transform="matrix(9.963397,0,0,-9.962899,231.11748,26.094399)" fill="#ff0000"/>
</svg>
