<svg xmlns="http://www.w3.org/2000/svg" xmlns:xlink="http://www.w3.org/1999/xlink" version="1.1" width="213" height="287" viewBox="0 0 213 287">
<defs>
<path id="font_1_1" d="M.33399964 .30233766C.33999635 .32835389 .36299134 .42037965 .43299867 .42037965 .43798829 .42037965 .46199037 .42037965 .48298646 .40734864 .45498658 .402359 .43499757 .37734986 .43499757 .35334779 .43499757 .33735658 .44599916 .31835938 .47299195 .31835938 .49499513 .31835938 .5269928 .3363495 .5269928 .37635804 .5269928 .42837525 .46798707 .4423828 .43399049 .4423828 .37599183 .4423828 .34098817 .38935853 .32899476 .36634828 .3039856 .43237306 .25 .4423828 .22099304 .4423828 .116989139 .4423828 .05999756 .3133545 .05999756 .28834535 .05999756 .27833558 .069992069 .27833558 .07199097 .27833558 .07998657 .27833558 .08299255 .28033448 .084991458 .28933717 .11898804 .39535523 .18499756 .42037965 .21899414 .42037965 .23799134 .42037965 .272995 .4113617 .272995 .35334779 .272995 .32235719 .2559967 .25532533 .21899414 .11528015 .20298767 .053268434 .16799927 .011245728 .12399292 .011245728 .117996219 .011245728 .09498596 .011245728 .07398987 .024276734 .09899902 .029266358 .12098694 .05027771 .12098694 .07827759 .12098694 .105270389 .09899902 .11328125 .083999637 .11328125 .053985597 .11328125 .0289917 .08728027 .0289917 .055267335 .0289917 .009246826 .07899475-.0107421879 .12298584-.0107421879 .18899536-.0107421879 .22499085 .059280397 .22799683 .0652771 .23999024 .028274537 .27598573-.0107421879 .33599855-.0107421879 .43899537-.0107421879 .49598695 .118270877 .49598695 .14328003 .49598695 .1532898 .4869995 .1532898 .48399354 .1532898 .47499085 .1532898 .47299195 .14929199 .47099305 .14228821 .43798829 .03527832 .36999513 .011245728 .33799745 .011245728 .29899598 .011245728 .2829895 .043273927 .2829895 .07727051 .2829895 .09927368 .2889862 .121276859 .2999878 .16529846L.33399964 .30233766Z"/>
<path id="font_1_2" d="M.48599244 .38136292C.48999024 .39537049 .48999024 .39736939 .48999024 .40437318 .48999024 .42237855 .47599793 .43138124 .46099855 .43138124 .45098878 .43138124 .43499757 .42536927 .42599488 .41036988 .42399598 .405365 .41600038 .37435914 .4119873 .35635377 .40499879 .33035279 .397995 .30334474 .3919983 .27633668L.34700013 .09628296C.34298707 .08126831 .2999878 .011245728 .23399353 .011245728 .18299866 .011245728 .17199707 .055267335 .17199707 .0922699 .17199707 .1382904 .18899536 .20030213 .22299195 .28833009 .23899842 .3293457 .24299622 .3403473 .24299622 .36035157 .24299622 .405365 .21099854 .4423828 .16099549 .4423828 .06599426 .4423828 .0289917 .29733277 .0289917 .28833009 .0289917 .27833558 .038986207 .27833558 .040985109 .27833558 .050994874 .27833558 .051986696 .28033448 .056991579 .29634095 .083999637 .3903656 .12399292 .42037965 .1579895 .42037965 .1659851 .42037965 .18299866 .42037965 .18299866 .3883667 .18299866 .36335755 .17298889 .3373413 .1659851 .31834413 .12599182 .21231079 .10798645 .1552887 .10798645 .10827637 .10798645 .019256592 .17098999-.0107421879 .22999573-.0107421879 .2689972-.0107421879 .30299378 .0062561037 .33099366 .03425598 .31799317-.017745972 .30599977-.06674194 .2659912-.11973572 .23999024-.15385437 .20199585-.18309021 .1559906-.18309021 .14199829-.18309021 .09700012-.18005371 .07998657-.14074707 .09599304-.14074707 .10899353-.14074707 .12298584-.1287384 .1329956-.11973572 .14299011-.10673523 .14299011-.08773804 .14299011-.056747438 .115997318-.052734376 .10598755-.052734376 .08299255-.052734376 .049987794-.068740848 .049987794-.11773682 .049987794-.16796875 .09399414-.20507813 .1559906-.20507813 .25898744-.20507813 .3619995-.11373901 .3899994-.00074768069L.48599244 .38136292Z"/>
<path id="font_2_2" d="M.2939911 .64004519C.2939911 .66400149 .2939911 .6660156 .2709961 .6660156 .20899964 .60227969 .12098694 .60227969 .08898926 .60227969V.57128909C.10899353 .57128909 .16799927 .57128909 .21998596 .5972748V.07902527C.21998596 .042999269 .21699524 .0309906 .1269989 .0309906H.09498596V0C.12998963 .0029907227 .21699524 .0029907227 .25698854 .0029907227 .29699708 .0029907227 .38398744 .0029907227 .4189911 0V.0309906H.3869934C.29699708 .0309906 .2939911 .041992189 .2939911 .07902527V.64004519Z"/>
<path id="font_2_1" d="M.45999146 .31976319C.45999146 .39982606 .45498658 .47988893 .41999818 .5539398 .37399293 .65000918 .2919922 .6660156 .25 .6660156 .18998719 .6660156 .116989139 .64001467 .07598877 .54693606 .04399109 .47789 .038986207 .39982606 .038986207 .31976319 .038986207 .24472046 .042999269 .15464783 .083999637 .07859802 .1269989-.0024719239 .19999695-.022460938 .24899292-.022460938 .30299378-.022460938 .3789978-.0014648438 .4229889 .09359741 .45498658 .16265869 .45999146 .2407074 .45999146 .31976319M.24899292-.00047302247C.20999146-.00047302247 .15098572 .024551392 .1329956 .12062073 .12199402 .18066406 .12199402 .2727356 .12199402 .3317871 .12199402 .39582826 .12199402 .46188355 .12998963 .5159149 .14898682 .63500979 .22399903 .64401248 .24899292 .64401248 .28199769 .64401248 .34799195 .6259918 .36698915 .52693179 .3769989 .47088624 .3769989 .39482118 .3769989 .3317871 .3769989 .25672914 .3769989 .18867493 .3659973 .12461853 .35099793 .029556275 .2939911-.00047302247 .24899292-.00047302247Z"/>
<path id="font_2_3" d="M.1269989 .07699585 .23298645 .18003845C.3889923 .31811524 .44898988 .3721466 .44898988 .47216798 .44898988 .5860901 .35899354 .6660156 .23699951 .6660156 .12399292 .6660156 .049987794 .57411196 .049987794 .48516847 .049987794 .4291687 .099990848 .4291687 .102996829 .4291687 .11999512 .4291687 .15499878 .44117738 .15499878 .48217774 .15499878 .5081787 .13699341 .5341797 .101989749 .5341797 .09399414 .5341797 .09199524 .5341797 .08898926 .5331726 .11199951 .59806826 .1659851 .63500979 .22399903 .63500979 .31498719 .63500979 .35798646 .5541382 .35798646 .47216798 .35798646 .39215089 .30799867 .31311036 .25299073 .25108338L.06098938 .036987306C.049987794 .025985718 .049987794 .023986817 .049987794 0H.42099L.44898988 .17404175H.42399598C.4189911 .14402771 .4119873 .1000061 .4019928 .084991458 .394989 .07699585 .32899476 .07699585 .30699159 .07699585H.1269989Z"/>
<path id="font_2_4" d="M.2899933 .35191346C.37199403 .37893678 .42999269 .4490509 .42999269 .52809146 .42999269 .6100464 .34199525 .6660156 .24598694 .6660156 .14498902 .6660156 .068984989 .60606387 .068984989 .53009036 .068984989 .49710084 .09098816 .47808839 .11999512 .47808839 .15098572 .47808839 .17098999 .50009158 .17098999 .5290985 .17098999 .57910159 .12399292 .57910159 .10899353 .57910159 .13999939 .62802127 .20599365 .64100649 .24198914 .64100649 .2829895 .64100649 .33799745 .6190338 .33799745 .5290985 .33799745 .51708987 .33599855 .45906068 .30999757 .4149933 .27999879 .36691285 .24598694 .36390687 .22099304 .36291505 .21299744 .36190797 .18899536 .35990907 .18199158 .35990907 .17399597 .35890199 .16699219 .35791017 .16699219 .3479004 .16699219 .33691407 .17399597 .33691407 .19099427 .33691407H.23498535C.31698609 .33691407 .35398866 .2686615 .35398866 .17037964 .35398866 .034469606 .2849884 .0055389406 .24099732 .0055389406 .19799805 .0055389406 .12298584 .022491456 .08799744 .08137512 .12298584 .07637024 .1539917 .09837341 .1539917 .1363678 .1539917 .17237854 .1269989 .19238281 .09799194 .19238281 .07398987 .19238281 .041992189 .17837525 .041992189 .1343689 .041992189 .043441774 .1349945-.022460938 .24398804-.022460938 .3659973-.022460938 .45700074 .06838989 .45700074 .17037964 .45700074 .252594 .3939972 .33088685 .2899933 .35191346Z"/>
<path id="font_2_5" d="M.2939911 .16503906V.07800293C.2939911 .041992189 .2919922 .0309906 .21798706 .0309906H.19699097V0C.23799134 .0029907227 .2899933 .0029907227 .33198548 .0029907227 .37399293 .0029907227 .4269867 .0029907227 .46798707 0V.0309906H.44699098C.37298585 .0309906 .37098695 .041992189 .37098695 .07800293V.16503906H.47099305V.19602967H.37098695V.65075686C.37098695 .67074587 .37098695 .6767578 .35499574 .6767578 .34599305 .6767578 .34298707 .6767578 .33499146 .66474917L.027999878 .19602967V.16503906H.2939911M.2999878 .19602967H.055999757L.2999878 .5688019V.19602967Z"/>
<path id="font_2_6" d="M.44898988 .20022583C.44898988 .3193512 .36698915 .41944886 .25898744 .41944886 .21099854 .41944886 .16799927 .40345765 .13198853 .36842347V.5637665C.1519928 .5577698 .18499756 .55078127 .21699524 .55078127 .33999635 .55078127 .4099884 .6417694 .4099884 .6547699 .4099884 .6607666 .40699769 .6657715 .3999939 .6657715 .39898683 .6657715 .39698792 .6657715 .3919983 .66278079 .37199403 .6537781 .32299806 .6337738 .2559967 .6337738 .21598816 .6337738 .16999817 .6407776 .12298584 .6617737 .114990238 .66477969 .11299133 .66477969 .11099243 .66477969 .100997928 .66477969 .100997928 .6567688 .100997928 .6407776V.34439088C.100997928 .32637025 .100997928 .31835938 .114990238 .31835938 .12199402 .31835938 .12399292 .32136537 .12799073 .32736207 .13899231 .3433838 .17599488 .39746095 .25698854 .39746095 .30899049 .39746095 .33399964 .35139466 .34199525 .33337403 .35798646 .29632569 .3600006 .25727845 .3600006 .20722962 .3600006 .17222595 .3600006 .11222839 .33599855 .07035828 .31199647 .031463624 .2749939 .0055389406 .22898865 .0055389406 .1559906 .0055389406 .09899902 .058380128 .08198547 .11723328 .084991458 .1162262 .08799744 .115234378 .09899902 .115234378 .13198853 .115234378 .14898682 .14022827 .14898682 .16423035 .14898682 .18823242 .13198853 .21322632 .09899902 .21322632 .084991458 .21322632 .049987794 .20622254 .049987794 .16023255 .049987794 .07434082 .11898804-.022460938 .23098755-.022460938 .34700013-.022460938 .44898988 .073349 .44898988 .20022583Z"/>
<path id="font_2_7" d="M.13198853 .327713V.35173036C.13198853 .6047821 .2559967 .64100649 .30699159 .64100649 .33099366 .64100649 .37298585 .634964 .394989 .6007538 .37998963 .6007538 .33999635 .6007538 .33999635 .5557556 .33999635 .524765 .3639984 .5097656 .38598634 .5097656 .4019928 .5097656 .43199159 .51875308 .43199159 .5577545 .43199159 .6178589 .3880005 .6660156 .30499269 .6660156 .1769867 .6660156 .041992189 .5367584 .041992189 .31570436 .041992189 .048553468 .1579895-.022460938 .25099183-.022460938 .3619995-.022460938 .45700074 .07156372 .45700074 .2036438 .45700074 .33070375 .36799623 .4267578 .25698854 .4267578 .18899536 .4267578 .1519928 .37573243 .13198853 .327713M.25099183 .0055389406C.18798828 .0055389406 .1579895 .06556702 .1519928 .080566409 .13398743 .127594 .13398743 .2076416 .13398743 .22564698 .13398743 .30369569 .1659851 .40374757 .2559967 .40374757 .27198792 .40374757 .31799317 .40374757 .34899903 .34172059 .36698915 .30470277 .36698915 .2536621 .36698915 .20463562 .36698915 .15661621 .36698915 .10658264 .34999085 .0705719 .31999208 .010528564 .27398683 .0055389406 .25099183 .0055389406Z"/>
<path id="font_2_8" d="M.47599793 .609375C.4850006 .6213684 .4850006 .62338259 .4850006 .64437869H.24198914C.11999512 .64437869 .117996219 .65737918 .11399841 .67637637H.08898926L.055999757 .4702301H.08099365C.083999637 .48625184 .09298706 .5493469 .10598755 .56137087 .11299133 .5673828 .19099427 .5673828 .20399475 .5673828H.41099549C.3999939 .5513611 .32099916 .4421997 .29899598 .40914918 .20899964 .27394105 .17599488 .1347351 .17599488 .032577516 .17599488 .022567749 .17599488-.022460938 .22200012-.022460938 .2679901-.022460938 .2679901 .022567749 .2679901 .032577516V.08366394C.2679901 .13873291 .2709961 .19381714 .2789917 .24790955 .2829895 .27093507 .29699708 .35707093 .34098817 .41915895L.47599793 .609375Z"/>
<path id="font_2_9" d="M.16299439 .4569702C.116989139 .486969 .11299133 .52098086 .11299133 .5379791 .11299133 .598999 .17799378 .64100649 .24899292 .64100649 .32199098 .64100649 .38598634 .58898928 .38598634 .51698306 .38598634 .45996095 .34700013 .4119568 .2869873 .37695313L.16299439 .4569702M.30899049 .36193849C.3809967 .3989563 .42999269 .45095826 .42999269 .51698306 .42999269 .6090088 .34098817 .6660156 .25 .6660156 .1499939 .6660156 .068984989 .59199526 .068984989 .49897767 .068984989 .4809723 .070999149 .43595887 .11299133 .38894654 .12399292 .37695313 .16099549 .35194398 .18598938 .33494569 .12799073 .30592347 .041992189 .24984741 .041992189 .15072632 .041992189 .04458618 .14399719-.022460938 .24899292-.022460938 .3619995-.022460938 .45700074 .06060791 .45700074 .16773987 .45700074 .20379639 .44599916 .24885559 .4079895 .2909088 .3889923 .31193543 .37298585 .3219452 .30899049 .36193849M.20899964 .3199463 .33198548 .24183655C.3600006 .2228241 .40699769 .19277954 .40699769 .13169861 .40699769 .05760193 .33198548 .0055389406 .25 .0055389406 .1639862 .0055389406 .09199524 .067611698 .09199524 .15072632 .09199524 .20880127 .12399292 .27288819 .20899964 .3199463Z"/>
<path id="font_2_10" d="M.36698915 .31781007V.28579713C.36698915 .05178833 .2630005 .0055389406 .20498657 .0055389406 .18798828 .0055389406 .13398743 .007537842 .10699463 .041778566 .15098572 .041778566 .15899658 .07078552 .15899658 .08778381 .15899658 .118774417 .1349945 .13378906 .11299133 .13378906 .09700012 .13378906 .066986087 .12478638 .066986087 .08578491 .066986087 .018615723 .12098694-.022460938 .20599365-.022460938 .33499146-.022460938 .45700074 .11378479 .45700074 .32881166 .45700074 .5979767 .34199525 .6660156 .25299073 .6660156 .19799805 .6660156 .14898682 .64801028 .10598755 .60298159 .06498718 .5579529 .041992189 .5159302 .041992189 .44088746 .041992189 .31581117 .12998963 .21777344 .24198914 .21777344 .30299378 .21777344 .34399415 .25978089 .36698915 .31781007M.24299622 .24076844C.22698975 .24076844 .18099976 .24076844 .1499939 .3038025 .13198853 .3408203 .13198853 .39085389 .13198853 .43988038 .13198853 .49391175 .13198853 .54093936 .15299988 .5779724 .17999268 .6279907 .21798706 .64100649 .25299073 .64100649 .29899598 .64100649 .33198548 .60697939 .34899903 .5619507 .36099244 .52993777 .36499024 .4669037 .36499024 .42086793 .36499024 .3378296 .33099366 .24076844 .24299622 .24076844Z"/>
</defs>
<path transform="matrix(1.00002,0,0,-1.00003,25.174233,274.64888)" stroke-width=".3985" stroke-linecap="butt" stroke-miterlimit="10" stroke-linejoin="miter" fill="none" stroke="#cbcbcb" d="M0 0H170.08257M0 8.50412H170.08257M0 17.00824H170.08257M0 25.51237H170.08257M0 34.0165H170.08257M0 42.52063H170.08257M0 51.02477H170.08257M0 59.52888H170.08257M0 68.03302H170.08257M0 76.53716H170.08257M0 85.04128H170.08257M0 93.54541H170.08257M0 102.04953H170.08257M0 110.55368H170.08257M0 119.0578H170.08257M0 127.56192H170.08257M0 136.06606H170.08257M0 144.57019H170.08257M0 153.07433H170.08257M0 161.57845H170.08257M0 170.08257H170.08257M0 178.5867H170.08257M0 187.09084H170.08257M0 195.59496H170.08257M0 204.09909H170.08257M0 212.60321H170.08257M0 221.10736H170.08257M0 229.61148H170.08257M0 238.1156H170.08257M0 246.61974H170.08257M0 255.12088H170.08257M0 0V255.12387M8.50412 0V255.12387M17.00824 0V255.12387M25.51237 0V255.12387M34.0165 0V255.12387M42.52063 0V255.12387M51.02477 0V255.12387M59.52888 0V255.12387M68.03302 0V255.12387M76.53716 0V255.12387M85.04128 0V255.12387M93.54541 0V255.12387M102.04953 0V255.12387M110.55368 0V255.12387M119.0578 0V255.12387M127.56192 0V255.12387M136.06606 0V255.12387M144.57019 0V255.12387M153.07433 0V255.12387M161.57845 0V255.12387M170.07959 0V255.12387M170.08257 255.12387"/>
<path transform="matrix(1.00002,0,0,-1.00003,25.174233,274.64888)" stroke-width=".79701" stroke-linecap="butt" stroke-miterlimit="10" stroke-linejoin="miter" fill="none" stroke="#929292" d="M42.52063 0V255.12387"/>
<path transform="matrix(1.00002,0,0,-1.00003,25.174233,274.64888)" stroke-width=".79701" stroke-linecap="butt" stroke-miterlimit="10" stroke-linejoin="miter" fill="none" stroke="#929292" d="M85.04128 0V255.12387"/>
<path transform="matrix(1.00002,0,0,-1.00003,25.174233,274.64888)" stroke-width=".79701" stroke-linecap="butt" stroke-miterlimit="10" stroke-linejoin="miter" fill="none" stroke="#929292" d="M127.56192 0V255.12387"/>
<path transform="matrix(1.00002,0,0,-1.00003,25.174233,274.64888)" stroke-width=".79701" stroke-linecap="butt" stroke-miterlimit="10" stroke-linejoin="miter" fill="none" stroke="#929292" d="M170.08257 0V255.12387"/>
<path transform="matrix(1.00002,0,0,-1.00003,25.174233,274.64888)" stroke-width=".79701" stroke-linecap="butt" stroke-miterlimit="10" stroke-linejoin="miter" fill="none" stroke="#929292" d="M0 42.52063H170.08257"/>
<path transform="matrix(1.00002,0,0,-1.00003,25.174233,274.64888)" stroke-width=".79701" stroke-linecap="butt" stroke-miterlimit="10" stroke-linejoin="miter" fill="none" stroke="#929292" d="M0 85.04128H170.08257"/>
<path transform="matrix(1.00002,0,0,-1.00003,25.174233,274.64888)" stroke-width=".79701" stroke-linecap="butt" stroke-miterlimit="10" stroke-linejoin="miter" fill="none" stroke="#929292" d="M0 127.56192H170.08257"/>
<path transform="matrix(1.00002,0,0,-1.00003,25.174233,274.64888)" stroke-width=".79701" stroke-linecap="butt" stroke-miterlimit="10" stroke-linejoin="miter" fill="none" stroke="#929292" d="M0 170.08257H170.08257"/>
<path transform="matrix(1.00002,0,0,-1.00003,25.174233,274.64888)" stroke-width=".79701" stroke-linecap="butt" stroke-miterlimit="10" stroke-linejoin="miter" fill="none" stroke="#929292" d="M0 212.60321H170.08257"/>
<path transform="matrix(1.00002,0,0,-1.00003,25.174233,274.64888)" stroke-width=".79701" stroke-linecap="butt" stroke-miterlimit="10" stroke-linejoin="miter" fill="none" stroke="#929292" d="M0 255.12387H170.08257"/>
<path transform="matrix(1.00002,0,0,-1.00003,25.174233,274.64888)" stroke-width=".79701" stroke-linecap="butt" stroke-miterlimit="10" stroke-linejoin="miter" fill="none" stroke="#000000" d="M0 0H176.30162"/>
<path transform="matrix(1.00002,0,0,-1.00003,201.47937,274.64888)" d="M1.0361 0C-.25902 .25902-1.55415 .77707-3.1083 1.68365-1.55415 .51805-1.55415-.51805-3.1083-1.68365-1.55415-.77707-.25902-.25902 1.0361 0Z"/>
<path transform="matrix(1.00002,0,0,-1.00003,201.47937,274.64888)" stroke-width=".79701" stroke-linecap="butt" stroke-linejoin="round" fill="none" stroke="#000000" d="M1.0361 0C-.25902 .25902-1.55415 .77707-3.1083 1.68365-1.55415 .51805-1.55415-.51805-3.1083-1.68365-1.55415-.77707-.25902-.25902 1.0361 0Z"/>
<use data-text="x" xlink:href="#font_1_1" transform="matrix(9.962799,0,0,-9.962899,206.63288,276.7939)"/>
<path transform="matrix(1.00002,0,0,-1.00003,25.174233,274.64888)" stroke-width=".79701" stroke-linecap="butt" stroke-miterlimit="10" stroke-linejoin="miter" fill="none" stroke="#000000" d="M0 0V261.34294"/>
<path transform="matrix(0,-1.00003,-1.00002,-0,25.174233,13.298096)" d="M1.0361 0C-.25902 .25902-1.55415 .77707-3.1083 1.68365-1.55415 .51805-1.55415-.51805-3.1083-1.68365-1.55415-.77707-.25902-.25902 1.0361 0Z"/>
<path transform="matrix(0,-1.00003,-1.00002,-0,25.174233,13.298096)" stroke-width=".79701" stroke-linecap="butt" stroke-linejoin="round" fill="none" stroke="#000000" d="M1.0361 0C-.25902 .25902-1.55415 .77707-3.1083 1.68365-1.55415 .51805-1.55415-.51805-3.1083-1.68365-1.55415-.77707-.25902-.25902 1.0361 0Z"/>
<use data-text="y" xlink:href="#font_1_2" transform="matrix(9.962799,0,0,-9.962899,22.553177,6.2068178)"/>
<path transform="matrix(1.00002,0,0,-1.00003,25.174233,274.64888)" stroke-width=".3985" stroke-linecap="butt" stroke-miterlimit="10" stroke-linejoin="miter" fill="none" stroke="#000000" d="M17.00824 .85045V-.85031"/>
<path transform="matrix(1.00002,0,0,-1.00003,25.174233,274.64888)" d="M11.03056-11.45511H22.9859V-3.0421296H11.03056Z" fill="#ffffff"/>
<use data-text="1" xlink:href="#font_2_2" transform="matrix(9.962799,0,0,-9.962899,37.201478,285.1082)"/>
<use data-text="0" xlink:href="#font_2_1" transform="matrix(9.962799,0,0,-9.962899,42.182878,285.1082)"/>
<path transform="matrix(1.00002,0,0,-1.00003,25.174233,274.64888)" stroke-width=".3985" stroke-linecap="butt" stroke-miterlimit="10" stroke-linejoin="miter" fill="none" stroke="#000000" d="M34.0165 .85045V-.85031"/>
<path transform="matrix(1.00002,0,0,-1.00003,25.174233,274.64888)" d="M28.03882-11.45511H39.99416V-3.0421296H28.03882Z" fill="#ffffff"/>
<use data-text="2" xlink:href="#font_2_3" transform="matrix(9.962799,0,0,-9.962899,54.209817,285.1082)"/>
<use data-text="0" xlink:href="#font_2_1" transform="matrix(9.962799,0,0,-9.962899,59.191217,285.1082)"/>
<path transform="matrix(1.00002,0,0,-1.00003,25.174233,274.64888)" stroke-width=".3985" stroke-linecap="butt" stroke-miterlimit="10" stroke-linejoin="miter" fill="none" stroke="#000000" d="M51.02477 .85045V-.85031"/>
<path transform="matrix(1.00002,0,0,-1.00003,25.174233,274.64888)" d="M45.04709-11.45511H57.00243V-3.0421296H45.04709Z" fill="#ffffff"/>
<use data-text="3" xlink:href="#font_2_4" transform="matrix(9.962799,0,0,-9.962899,71.218158,285.1082)"/>
<use data-text="0" xlink:href="#font_2_1" transform="matrix(9.962799,0,0,-9.962899,76.199558,285.1082)"/>
<path transform="matrix(1.00002,0,0,-1.00003,25.174233,274.64888)" stroke-width=".3985" stroke-linecap="butt" stroke-miterlimit="10" stroke-linejoin="miter" fill="none" stroke="#000000" d="M68.03302 .85045V-.85031"/>
<path transform="matrix(1.00002,0,0,-1.00003,25.174233,274.64888)" d="M62.05534-11.45511H74.01068V-3.0421296H62.05534Z" fill="#ffffff"/>
<use data-text="4" xlink:href="#font_2_5" transform="matrix(9.962799,0,0,-9.962899,88.22749,285.1082)"/>
<use data-text="0" xlink:href="#font_2_1" transform="matrix(9.962799,0,0,-9.962899,93.20889,285.1082)"/>
<path transform="matrix(1.00002,0,0,-1.00003,25.174233,274.64888)" stroke-width=".3985" stroke-linecap="butt" stroke-miterlimit="10" stroke-linejoin="miter" fill="none" stroke="#000000" d="M85.04128 .85045V-.85031"/>
<path transform="matrix(1.00002,0,0,-1.00003,25.174233,274.64888)" d="M79.0636-11.45511H91.018939V-3.0421296H79.0636Z" fill="#ffffff"/>
<use data-text="5" xlink:href="#font_2_6" transform="matrix(9.962799,0,0,-9.962899,105.23583,285.1082)"/>
<use data-text="0" xlink:href="#font_2_1" transform="matrix(9.962799,0,0,-9.962899,110.21723,285.1082)"/>
<path transform="matrix(1.00002,0,0,-1.00003,25.174233,274.64888)" stroke-width=".3985" stroke-linecap="butt" stroke-miterlimit="10" stroke-linejoin="miter" fill="none" stroke="#000000" d="M102.04953 .85045V-.85031"/>
<path transform="matrix(1.00002,0,0,-1.00003,25.174233,274.64888)" d="M96.07185-11.45511H108.02719V-3.0421296H96.07185Z" fill="#ffffff"/>
<use data-text="6" xlink:href="#font_2_7" transform="matrix(9.962799,0,0,-9.962899,122.24418,285.1082)"/>
<use data-text="0" xlink:href="#font_2_1" transform="matrix(9.962799,0,0,-9.962899,127.22558,285.1082)"/>
<path transform="matrix(1.00002,0,0,-1.00003,25.174233,274.64888)" stroke-width=".3985" stroke-linecap="butt" stroke-miterlimit="10" stroke-linejoin="miter" fill="none" stroke="#000000" d="M119.0578 .85045V-.85031"/>
<path transform="matrix(1.00002,0,0,-1.00003,25.174233,274.64888)" d="M113.08012-11.45511H125.03545V-3.0421296H113.08012Z" fill="#ffffff"/>
<use data-text="7" xlink:href="#font_2_8" transform="matrix(9.962799,0,0,-9.962899,139.2525,285.1082)"/>
<use data-text="0" xlink:href="#font_2_1" transform="matrix(9.962799,0,0,-9.962899,144.23392,285.1082)"/>
<path transform="matrix(1.00002,0,0,-1.00003,25.174233,274.64888)" stroke-width=".3985" stroke-linecap="butt" stroke-miterlimit="10" stroke-linejoin="miter" fill="none" stroke="#000000" d="M136.06606 .85045V-.85031"/>
<path transform="matrix(1.00002,0,0,-1.00003,25.174233,274.64888)" d="M130.08838-11.45511H142.04372V-3.0421296H130.08838Z" fill="#ffffff"/>
<use data-text="8" xlink:href="#font_2_9" transform="matrix(9.962799,0,0,-9.962899,156.26187,285.1082)"/>
<use data-text="0" xlink:href="#font_2_1" transform="matrix(9.962799,0,0,-9.962899,161.24326,285.1082)"/>
<path transform="matrix(1.00002,0,0,-1.00003,25.174233,274.64888)" stroke-width=".3985" stroke-linecap="butt" stroke-miterlimit="10" stroke-linejoin="miter" fill="none" stroke="#000000" d="M153.07433 .85045V-.85031"/>
<path transform="matrix(1.00002,0,0,-1.00003,25.174233,274.64888)" d="M147.09665-11.45511H159.05199V-3.0421296H147.09665Z" fill="#ffffff"/>
<use data-text="9" xlink:href="#font_2_10" transform="matrix(9.962799,0,0,-9.962899,173.2702,285.1082)"/>
<use data-text="0" xlink:href="#font_2_1" transform="matrix(9.962799,0,0,-9.962899,178.25159,285.1082)"/>
<path transform="matrix(1.00002,0,0,-1.00003,25.174233,274.64888)" stroke-width=".3985" stroke-linecap="butt" stroke-miterlimit="10" stroke-linejoin="miter" fill="none" stroke="#000000" d="M170.08257 .85045V-.85031"/>
<path transform="matrix(1.00002,0,0,-1.00003,25.174233,274.64888)" d="M161.6142-11.45511H178.55092V-3.0421296H161.6142Z" fill="#ffffff"/>
<use data-text="1" xlink:href="#font_2_2" transform="matrix(9.962799,0,0,-9.962899,187.78748,285.1082)"/>
<use data-text="0" xlink:href="#font_2_1" transform="matrix(9.962799,0,0,-9.962899,192.76889,285.1082)"/>
<use data-text="0" xlink:href="#font_2_1" transform="matrix(9.962799,0,0,-9.962899,197.75028,285.1082)"/>
<path transform="matrix(1.00002,0,0,-1.00003,25.174233,274.64888)" stroke-width=".3985" stroke-linecap="butt" stroke-miterlimit="10" stroke-linejoin="miter" fill="none" stroke="#000000" d="M.85045 42.52063H-.85031"/>
<path transform="matrix(1.00002,0,0,-1.00003,25.174233,274.64888)" d="M-24.96027 38.31413H-3.0421296V46.727109H-24.96027Z" fill="#ffffff"/>
<use data-text="1" xlink:href="#font_2_2" transform="matrix(9.962799,0,0,-9.962899,1.209755,235.33768)"/>
<use data-text="0" xlink:href="#font_2_1" transform="matrix(9.962799,0,0,-9.962899,6.1911547,235.33768)"/>
<use data-text="0" xlink:href="#font_2_1" transform="matrix(9.962799,0,0,-9.962899,11.172554,235.33768)"/>
<use data-text="0" xlink:href="#font_2_1" transform="matrix(9.962799,0,0,-9.962899,16.153954,235.33768)"/>
<path transform="matrix(1.00002,0,0,-1.00003,25.174233,274.64888)" stroke-width=".3985" stroke-linecap="butt" stroke-miterlimit="10" stroke-linejoin="miter" fill="none" stroke="#000000" d="M.85045 85.04128H-.85031"/>
<path transform="matrix(1.00002,0,0,-1.00003,25.174233,274.64888)" d="M-24.96027 80.83478H-3.0421296V89.24776H-24.96027Z" fill="#ffffff"/>
<use data-text="2" xlink:href="#font_2_3" transform="matrix(9.962799,0,0,-9.962899,1.209755,192.8154)"/>
<use data-text="0" xlink:href="#font_2_1" transform="matrix(9.962799,0,0,-9.962899,6.1911547,192.8154)"/>
<use data-text="0" xlink:href="#font_2_1" transform="matrix(9.962799,0,0,-9.962899,11.172554,192.8154)"/>
<use data-text="0" xlink:href="#font_2_1" transform="matrix(9.962799,0,0,-9.962899,16.153954,192.8154)"/>
<path transform="matrix(1.00002,0,0,-1.00003,25.174233,274.64888)" stroke-width=".3985" stroke-linecap="butt" stroke-miterlimit="10" stroke-linejoin="miter" fill="none" stroke="#000000" d="M.85045 127.56192H-.85031"/>
<path transform="matrix(1.00002,0,0,-1.00003,25.174233,274.64888)" d="M-24.96027 123.35542H-3.0421296V131.7684H-24.96027Z" fill="#ffffff"/>
<use data-text="3" xlink:href="#font_2_4" transform="matrix(9.962799,0,0,-9.962899,1.209755,150.29312)"/>
<use data-text="0" xlink:href="#font_2_1" transform="matrix(9.962799,0,0,-9.962899,6.1911547,150.29312)"/>
<use data-text="0" xlink:href="#font_2_1" transform="matrix(9.962799,0,0,-9.962899,11.172554,150.29312)"/>
<use data-text="0" xlink:href="#font_2_1" transform="matrix(9.962799,0,0,-9.962899,16.153954,150.29312)"/>
<path transform="matrix(1.00002,0,0,-1.00003,25.174233,274.64888)" stroke-width=".3985" stroke-linecap="butt" stroke-miterlimit="10" stroke-linejoin="miter" fill="none" stroke="#000000" d="M.85045 170.08257H-.85031"/>
<path transform="matrix(1.00002,0,0,-1.00003,25.174233,274.64888)" d="M-24.96027 165.87607H-3.0421296V174.28905H-24.96027Z" fill="#ffffff"/>
<use data-text="4" xlink:href="#font_2_5" transform="matrix(9.962799,0,0,-9.962899,1.209755,107.77185)"/>
<use data-text="0" xlink:href="#font_2_1" transform="matrix(9.962799,0,0,-9.962899,6.1911547,107.77185)"/>
<use data-text="0" xlink:href="#font_2_1" transform="matrix(9.962799,0,0,-9.962899,11.172554,107.77185)"/>
<use data-text="0" xlink:href="#font_2_1" transform="matrix(9.962799,0,0,-9.962899,16.153954,107.77185)"/>
<path transform="matrix(1.00002,0,0,-1.00003,25.174233,274.64888)" stroke-width=".3985" stroke-linecap="butt" stroke-miterlimit="10" stroke-linejoin="miter" fill="none" stroke="#000000" d="M.85045 212.60321H-.85031"/>
<path transform="matrix(1.00002,0,0,-1.00003,25.174233,274.64888)" d="M-24.96027 208.39673H-3.0421296V216.80971H-24.96027Z" fill="#ffffff"/>
<use data-text="5" xlink:href="#font_2_6" transform="matrix(9.962799,0,0,-9.962899,1.209755,65.24957)"/>
<use data-text="0" xlink:href="#font_2_1" transform="matrix(9.962799,0,0,-9.962899,6.1911547,65.24957)"/>
<use data-text="0" xlink:href="#font_2_1" transform="matrix(9.962799,0,0,-9.962899,11.172554,65.24957)"/>
<use data-text="0" xlink:href="#font_2_1" transform="matrix(9.962799,0,0,-9.962899,16.153954,65.24957)"/>
<path transform="matrix(1.00002,0,0,-1.00003,25.174233,274.64888)" stroke-width=".3985" stroke-linecap="butt" stroke-miterlimit="10" stroke-linejoin="miter" fill="none" stroke="#000000" d="M.85045 255.12387H-.85031"/>
<path transform="matrix(1.00002,0,0,-1.00003,25.174233,274.64888)" d="M-24.96027 250.91738H-3.0421296V259.33036H-24.96027Z" fill="#ffffff"/>
<use data-text="6" xlink:href="#font_2_7" transform="matrix(9.962799,0,0,-9.962899,1.209755,22.727295)"/>
<use data-text="0" xlink:href="#font_2_1" transform="matrix(9.962799,0,0,-9.962899,6.1911547,22.727295)"/>
<use data-text="0" xlink:href="#font_2_1" transform="matrix(9.962799,0,0,-9.962899,11.172554,22.727295)"/>
<use data-text="0" xlink:href="#font_2_1" transform="matrix(9.962799,0,0,-9.962899,16.153954,22.727295)"/>
<path transform="matrix(1.00002,0,0,-1.00003,25.174233,274.64888)" stroke-width="1.19553" stroke-linecap="butt" stroke-miterlimit="10" stroke-linejoin="miter" fill="none" stroke="#ff0000" d="M0 0C0 0 1.81133 .1645 2.507 .229 3.20268 .29353 4.31833 .39844 5.01402 .46494 5.7097 .5314 6.82535 .63968 7.52104 .70822 8.21672 .77678 9.33237 .88834 10.02806 .95906 10.72372 1.02977 11.83939 1.14494 12.53506 1.21793 13.23074 1.29092 14.34639 1.40974 15.04208 1.48512 15.73776 1.56047 16.85341 1.68324 17.5491 1.76112 18.24478 1.83899 19.36043 1.96585 20.05612 2.04634 20.75179 2.12685 21.86745 2.25803 22.56313 2.3413 23.2588 2.42455 24.37447 2.56021 25.07014 2.64636 25.76582 2.73251 26.88147 2.873 27.57716 2.9622 28.27284 3.05142 29.38849 3.1969 30.08418 3.28934 30.77986 3.38177 31.89551 3.53268 32.5912 3.62854 33.28687 3.72438 34.40253 3.88075 35.0982 3.9802 35.79388 4.07962 36.90953 4.24199 37.60522 4.34521 38.3009 4.44846 39.41655 4.617 40.11224 4.72424 40.80792 4.8315 41.92357 5.0067 42.61926 5.11821 43.31493 5.22974 44.43059 5.41196 45.12627 5.52802 45.82195 5.64406 46.9376 5.8338 47.63329 5.95467 48.32896 6.07553 49.44461 6.27315 50.1403 6.3991 50.83598 6.52505 51.95163 6.7311 52.64732 6.86249 53.343 6.99388 54.45865 7.20892 55.15434 7.3461 55.85 7.4833 56.96567 7.70792 57.66135 7.85129 58.35703 7.99466 59.47267 8.22942 60.16837 8.37941 60.86404 8.5294 61.97969 8.77522 62.67538 8.93233 63.37106 9.08943 64.48671 9.34703 65.1824 9.51172 65.87807 9.6764 66.99373 9.94643 67.6894 10.11926 68.38509 10.29211 69.50075 10.57578 70.19643 10.75745 70.8921 10.93909 72.00775 11.23744 72.70345 11.42859 73.39912 11.6197 74.51477 11.93365 75.21046 12.135 75.90614 12.33636 77.02179 12.66737 77.71748 12.87984 78.41315 13.0923 79.52881 13.44183 80.22449 13.66632 80.92017 13.89082 82.03581 14.26028 82.7315 14.49786 83.42719 14.73543 84.54283 15.12671 85.23853 15.37854 85.9342 15.63039 87.04985 16.04556 87.74554 16.31297 88.44121 16.5804 89.55687 17.02144 90.25255 17.30591 90.94823 17.5904 92.06389 18.06009 92.75957 18.36336 93.45525 18.66663 94.57089 19.1677 95.26659 19.49164 95.96227 19.81558 97.07791 20.35136 97.7736 20.69817 98.46928 21.04498 99.58493 21.61903 100.28062 21.99127 100.97629 22.36348 102.09195 22.98036 102.78763 23.38089 103.4833 23.78142 104.59895 24.4458 105.29465 24.87796 105.99033 25.31012 107.10597 26.02785 107.80167 26.49557 108.49734 26.96332 109.61299 27.74126 110.30869 28.24907 111.00435 28.75688 112.12001 29.60222 112.81569 30.15555 113.51137 30.70888 114.62703 31.63177 115.32271 32.23706 116.01839 32.84236 117.13403 33.85326 117.82973 34.51817 118.5254 35.18307 119.64105 36.29541 120.33675 37.0292 121.03242 37.76299 122.14807 38.99283 122.84377 39.80676 123.53943 40.62073 124.65509 41.98761 125.35077 42.89565 126.04645 43.80367 127.1621 45.33176 127.85779 46.35123 128.55347 47.37068 129.66912 49.09044 130.3648 50.2432 131.06049 51.39597 132.17613 53.34549 132.87183 54.65955 133.56749 55.9736 134.68315 58.20224 135.37883 59.71407 136.07451 61.22589 137.19017 63.79782 137.88585 65.55571 138.58153 67.31363 139.69718 70.31432 140.39287 72.38383 141.08855 74.45335 142.2042 77.99915 142.89989 80.47142 143.59557 82.94371 144.71121 87.19666 145.4069 90.20233 146.10257 93.20801 147.21823 98.40102 147.91391 102.13428 148.60959 105.86752 149.72524 112.34628 150.42093 117.10901 151.11661 121.87177 152.23226 130.17166 152.92795 136.4608 153.62363 142.74993 154.73928 153.74 155.43497 162.43669 156.13063 171.13338 157.24629 186.3047 157.94197 199.14048 158.63765 211.97623 160.44899 254.9479 160.37017 253.07669"/>
<path transform="matrix(.042080843,-.99908009,-.99907007,-.042081264,185.5476,21.56459)" d="M1.27522 0C-.31879 .31879-1.91284 .9564-3.8257 2.07224-1.91284 .6376-1.91284-.6376-3.8257-2.07224-1.91284-.9564-.31879-.31879 1.27522 0Z" fill="#ff0000"/>
<path transform="matrix(.042080843,-.99908009,-.99907007,-.042081264,185.5476,21.56459)" stroke-width="1.19553" stroke-linecap="butt" stroke-linejoin="round" fill="none" stroke="#ff0000" d="M1.27522 0C-.31879 .31879-1.91284 .9564-3.8257 2.07224-1.91284 .6376-1.91284-.6376-3.8257-2.07224-1.91284-.9564-.31879-.31879 1.27522 0Z"/>
<path transform="matrix(1.00002,0,0,-1.00003,25.174233,274.64888)" stroke-width="1.19553" stroke-linecap="butt" stroke-dasharray="2.98883,2.98883" stroke-miterlimit="10" stroke-linejoin="miter" fill="none" stroke="#0000ff" d="M170.08257 0V255.12387"/>
</svg>
