<svg xmlns="http://www.w3.org/2000/svg" xmlns:xlink="http://www.w3.org/1999/xlink" version="1.1" width="212" height="205" viewBox="0 0 212 205">
<defs>
<path id="font_1_1" d="M.37399293 .6046295C.3829956 .64060977 .38598634 .6516113 .47999574 .6516113 .5099945 .6516113 .5179901 .6516113 .5179901 .6706085 .5179901 .6826172 .5069885 .6826172 .5019989 .6826172 .46899415 .6826172 .3869934 .6796112 .35398866 .6796112 .32398988 .6796112 .25099183 .6826172 .22099304 .6826172 .21398926 .6826172 .20199585 .6826172 .20199585 .6626129 .20199585 .6516113 .21099854 .6516113 .22999573 .6516113 .23199463 .6516113 .25099183 .6516113 .2679901 .6496124 .28599549 .6476135 .29499818 .64660647 .29499818 .6336212 .29499818 .6296234 .2939911 .62661746 .29100038 .614624L.15699768 .07795715C.14698792 .038986207 .14498902 .0309906 .06599426 .0309906 .04899597 .0309906 .038986207 .0309906 .038986207 .010986328 .038986207 0 .04798889 0 .06599426 0H.5289917C.5529938 0 .55400088 0 .55999758 .016998291L.6389923 .23286438C.6429901 .24386597 .6429901 .24586487 .6429901 .24685669 .6429901 .2508545 .6399994 .25785829 .6309967 .25785829 .621994 .25785829 .62098696 .2528534 .6139984 .23686219 .5799866 .14492798 .5359955 .0309906 .36299134 .0309906H.2689972C.25498963 .0309906 .25299073 .0309906 .24699402 .03199768 .23699951 .032989503 .23399353 .033996583 .23399353 .041992189 .23399353 .04498291 .23399353 .04698181 .23899842 .064971927L.37399293 .6046295Z"/>
<path id="font_1_2" d="M.46798707 .37236024C.46798707 .42637635 .44198609 .4423828 .42399598 .4423828 .39898683 .4423828 .375 .41636659 .375 .3943634 .375 .38136292 .37998963 .3753662 .3909912 .36434938 .4119873 .3443451 .4249878 .31834413 .4249878 .28233338 .4249878 .24032593 .3639984 .011245728 .24699402 .011245728 .19599915 .011245728 .17298889 .04626465 .17298889 .09828186 .17298889 .15429688 .19999695 .22731018 .23098755 .31033326 .23799134 .3273468 .24299622 .34135438 .24299622 .36035157 .24299622 .405365 .21099854 .4423828 .16099549 .4423828 .066986087 .4423828 .0289917 .29733277 .0289917 .28833009 .0289917 .27833558 .038986207 .27833558 .040985109 .27833558 .050994874 .27833558 .051986696 .28033448 .056991579 .29634095 .085998538 .39736939 .1289978 .42037965 .1579895 .42037965 .1659851 .42037965 .18299866 .42037965 .18299866 .3883667 .18299866 .36335755 .17298889 .3363495 .1659851 .31834413 .12199402 .20230103 .10899353 .15629578 .10899353 .11328125 .10899353 .0052490236 .19699097-.0107421879 .24299622-.0107421879 .41099549-.0107421879 .46798707 .32034303 .46798707 .37236024Z"/>
<path id="font_2_3" d="M.43399049 .08125305C.42900086 .06124878 .41999818 .027236939 .41999818 .022232056 .41999818 .00022888184 .43798829-.009765625 .45399476-.009765625 .47200013-.009765625 .48799134 .0032196046 .49299623 .01222229 .49798585 .021224976 .5059967 .053237916 .5109863 .07424927 .5159912 .09326172 .5269928 .13928223 .5329895 .16429138 .5389862 .18629456 .54499819 .20831299 .5499878 .23132324 .5609894 .27433778 .5609894 .27633668 .58099368 .3073578 .61299136 .35636903 .6629944 .4133911 .7409973 .4133911 .7969971 .4133911 .7999878 .36738587 .7999878 .34336854 .7999878 .28334046 .7569885 .17228699 .7409973 .13027954 .7299957 .102264408 .7259979 .09326172 .7259979 .07624817 .7259979 .023223877 .769989-.009765625 .82099917-.009765625 .92099-.009765625 .96499636 .12828064 .96499636 .14328003 .96499636 .15628052 .95199587 .15628052 .94898989 .15628052 .93499758 .15628052 .9339905 .15028382 .9299927 .13928223 .9069977 .059249879 .8639984 .018234253 .82398989 .018234253 .8029938 .018234253 .798996 .032226564 .798996 .053237916 .798996 .07624817 .80400088 .089263919 .82199099 .13427735 .83399966 .1652832 .875 .2713318 .875 .32736207 .875 .34336854 .875 .38539125 .83799746 .4143982 .82099917 .42739869 .7919922 .44140626 .7449951 .44140626 .6549988 .44140626 .59999087 .38238526 .56799319 .34036256 .55999758 .42539979 .4889984 .44140626 .43798829 .44140626 .35499574 .44140626 .29899598 .39038087 .2689972 .3503723 .2619934 .41940309 .20298767 .44140626 .1619873 .44140626 .11898804 .44140626 .09599304 .4104004 .08299255 .38739015 .06098938 .3503723 .04699707 .29335023 .04699707 .28834535 .04699707 .27534486 .06098938 .27534486 .06399536 .27534486 .07798767 .27534486 .07899475 .27833558 .085998538 .3053589 .100997928 .36437989 .11999512 .4133911 .15899658 .4133911 .18499756 .4133911 .19198609 .39138795 .19198609 .36437989 .19198609 .34536744 .18299866 .3083496 .17599488 .28134156 .16899109 .2543335 .15899658 .21331787 .1539917 .19129944L.12199402 .06324768C.117996219 .050247194 .11199951 .025222779 .11199951 .022232056 .11199951 .00022888184 .12998963-.009765625 .1459961-.009765625 .1639862-.009765625 .17999268 .0032196046 .18499756 .01222229 .18998719 .021224976 .19799805 .053237916 .20298767 .07424927 .20799256 .09326172 .21899414 .13928223 .22499085 .16429138 .23098755 .18629456 .23699951 .20831299 .24198914 .23132324 .25299073 .27233888 .25498963 .28033448 .28399659 .32136537 .31199647 .3613739 .35899354 .4133911 .43399049 .4133911 .49198915 .4133911 .49299623 .36238099 .49299623 .34336854 .49299623 .31835938 .48999024 .3053589 .47599793 .24932862L.43399049 .08125305Z"/>
<path id="font_2_1" d="M.42199708 .38238526C.40098573 .41540528 .36698915 .44140626 .31900025 .44140626 .19099427 .44140626 .06098938 .300354 .06098938 .15628052 .06098938 .059249879 .12599182-.009765625 .21199036-.009765625 .2659912-.009765625 .31399537 .021224976 .35398866 .0602417 .37298585 .00022888184 .43099977-.009765625 .45700074-.009765625 .49299623-.009765625 .5179901 .01222229 .5359955 .04324341 .55799868 .08226013 .57099917 .13928223 .57099917 .14328003 .57099917 .15628052 .55799868 .15628052 .5549927 .15628052 .54100039 .15628052 .5399933 .15228272 .5329895 .12527466 .5209961 .07725525 .5019989 .018234253 .45999146 .018234253 .43399049 .018234253 .4269867 .040237428 .4269867 .06724548 .4269867 .08425903 .43499757 .120269779 .44198609 .14628601 .44898988 .17329407 .45899964 .21430969 .46398927 .23632813L.48399354 .3123474C.48999024 .33836366 .5019989 .38539125 .5019989 .39038087 .5019989 .4123993 .48399354 .4223938 .46798707 .4223938 .45098878 .4223938 .42799378 .4104004 .42199708 .38238526M.35798646 .12527466C.35099793 .09725952 .32899476 .07725525 .30699159 .058242799 .2979889 .050247194 .2579956 .018234253 .21499634 .018234253 .17799378 .018234253 .14199829 .04423523 .14199829 .11526489 .14199829 .16828919 .17098999 .27833558 .19400025 .31835938 .23999024 .39839173 .29100038 .4133911 .31900025 .4133911 .3889923 .4133911 .4079895 .33737184 .4079895 .32635499 .4079895 .32235719 .4059906 .3153534 .40499879 .3123474L.35798646 .12527466Z"/>
<path id="font_2_4" d="M.24899292 .10601807C.23899842 .072021488 .20599365 .018234253 .15499878 .018234253 .1519928 .018234253 .12199402 .018234253 .100997928 .03215027 .14199829 .04508972 .14498902 .08100891 .14498902 .087020877 .14498902 .10900879 .12799073 .12402344 .10499573 .12402344 .07699585 .12402344 .04798889 .10002136 .04798889 .0630188 .04798889 .01322937 .10398865-.009765625 .15299988-.009765625 .19898987-.009765625 .23999024 .019226075 .2649994 .061019899 .2889862 .008224487 .34399415-.009765625 .38398744-.009765625 .49899293-.009765625 .55999758 .11502075 .55999758 .14305115 .55999758 .15608216 .5469971 .15608216 .5439911 .15608216 .5299988 .15608216 .5289917 .15107727 .5249939 .13905335 .5039978 .07002258 .44400025 .018234253 .3880005 .018234253 .34799195 .018234253 .32699586 .04508972 .32699586 .08302307 .32699586 .10900879 .35099793 .20018006 .3789978 .31140138 .39898683 .38841249 .44400025 .4133911 .47698976 .4133911 .47898866 .4133911 .5099945 .4133911 .5309906 .39941407 .49899293 .39041139 .4869995 .3624115 .4869995 .34440614 .4869995 .32240296 .5039978 .30740357 .5269928 .30740357 .5499878 .30740357 .58299258 .32640077 .58299258 .3684082 .58299258 .4243927 .5189972 .44140626 .47898866 .44140626 .42900086 .44140626 .3889923 .4084015 .36698915 .3704071 .34899903 .4113922 .30299378 .44140626 .24699402 .44140626 .1349945 .44140626 .070999149 .31840516 .070999149 .2883606 .070999149 .27534486 .084991458 .27534486 .08799744 .27534486 .100997928 .27534486 .101989749 .27934266 .10699463 .29237367 .13198853 .3704071 .19499207 .4133911 .24398804 .4133911 .2769928 .4133911 .3039856 .395401 .3039856 .3474121 .3039856 .32740785 .2919922 .27734376 .2829895 .24327088L.24899292 .10601807Z"/>
<path id="font_3_3" d="M.1269989 .07699585 .23298645 .18003845C.3889923 .31811524 .44898988 .3721466 .44898988 .47216798 .44898988 .5860901 .35899354 .6660156 .23699951 .6660156 .12399292 .6660156 .049987794 .57411196 .049987794 .48516847 .049987794 .4291687 .099990848 .4291687 .102996829 .4291687 .11999512 .4291687 .15499878 .44117738 .15499878 .48217774 .15499878 .5081787 .13699341 .5341797 .101989749 .5341797 .09399414 .5341797 .09199524 .5341797 .08898926 .5331726 .11199951 .59806826 .1659851 .63500979 .22399903 .63500979 .31498719 .63500979 .35798646 .5541382 .35798646 .47216798 .35798646 .39215089 .30799867 .31311036 .25299073 .25108338L.06098938 .036987306C.049987794 .025985718 .049987794 .023986817 .049987794 0H.42099L.44898988 .17404175H.42399598C.4189911 .14402771 .4119873 .1000061 .4019928 .084991458 .394989 .07699585 .32899476 .07699585 .30699159 .07699585H.1269989Z"/>
<path id="font_3_1" d="M.45999146 .31976319C.45999146 .39982606 .45498658 .47988893 .41999818 .5539398 .37399293 .65000918 .2919922 .6660156 .25 .6660156 .18998719 .6660156 .116989139 .64001467 .07598877 .54693606 .04399109 .47789 .038986207 .39982606 .038986207 .31976319 .038986207 .24472046 .042999269 .15464783 .083999637 .07859802 .1269989-.0024719239 .19999695-.022460938 .24899292-.022460938 .30299378-.022460938 .3789978-.0014648438 .4229889 .09359741 .45498658 .16265869 .45999146 .2407074 .45999146 .31976319M.24899292-.00047302247C.20999146-.00047302247 .15098572 .024551392 .1329956 .12062073 .12199402 .18066406 .12199402 .2727356 .12199402 .3317871 .12199402 .39582826 .12199402 .46188355 .12998963 .5159149 .14898682 .63500979 .22399903 .64401248 .24899292 .64401248 .28199769 .64401248 .34799195 .6259918 .36698915 .52693179 .3769989 .47088624 .3769989 .39482118 .3769989 .3317871 .3769989 .25672914 .3769989 .18867493 .3659973 .12461853 .35099793 .029556275 .2939911-.00047302247 .24899292-.00047302247Z"/>
<path id="font_3_5" d="M.2939911 .16503906V.07800293C.2939911 .041992189 .2919922 .0309906 .21798706 .0309906H.19699097V0C.23799134 .0029907227 .2899933 .0029907227 .33198548 .0029907227 .37399293 .0029907227 .4269867 .0029907227 .46798707 0V.0309906H.44699098C.37298585 .0309906 .37098695 .041992189 .37098695 .07800293V.16503906H.47099305V.19602967H.37098695V.65075686C.37098695 .67074587 .37098695 .6767578 .35499574 .6767578 .34599305 .6767578 .34298707 .6767578 .33499146 .66474917L.027999878 .19602967V.16503906H.2939911M.2999878 .19602967H.055999757L.2999878 .5688019V.19602967Z"/>
<path id="font_3_7" d="M.13198853 .327713V.35173036C.13198853 .6047821 .2559967 .64100649 .30699159 .64100649 .33099366 .64100649 .37298585 .634964 .394989 .6007538 .37998963 .6007538 .33999635 .6007538 .33999635 .5557556 .33999635 .524765 .3639984 .5097656 .38598634 .5097656 .4019928 .5097656 .43199159 .51875308 .43199159 .5577545 .43199159 .6178589 .3880005 .6660156 .30499269 .6660156 .1769867 .6660156 .041992189 .5367584 .041992189 .31570436 .041992189 .048553468 .1579895-.022460938 .25099183-.022460938 .3619995-.022460938 .45700074 .07156372 .45700074 .2036438 .45700074 .33070375 .36799623 .4267578 .25698854 .4267578 .18899536 .4267578 .1519928 .37573243 .13198853 .327713M.25099183 .0055389406C.18798828 .0055389406 .1579895 .06556702 .1519928 .080566409 .13398743 .127594 .13398743 .2076416 .13398743 .22564698 .13398743 .30369569 .1659851 .40374757 .2559967 .40374757 .27198792 .40374757 .31799317 .40374757 .34899903 .34172059 .36698915 .30470277 .36698915 .2536621 .36698915 .20463562 .36698915 .15661621 .36698915 .10658264 .34999085 .0705719 .31999208 .010528564 .27398683 .0055389406 .25099183 .0055389406Z"/>
<path id="font_3_8" d="M.16299439 .4569702C.116989139 .486969 .11299133 .52098086 .11299133 .5379791 .11299133 .598999 .17799378 .64100649 .24899292 .64100649 .32199098 .64100649 .38598634 .58898928 .38598634 .51698306 .38598634 .45996095 .34700013 .4119568 .2869873 .37695313L.16299439 .4569702M.30899049 .36193849C.3809967 .3989563 .42999269 .45095826 .42999269 .51698306 .42999269 .6090088 .34098817 .6660156 .25 .6660156 .1499939 .6660156 .068984989 .59199526 .068984989 .49897767 .068984989 .4809723 .070999149 .43595887 .11299133 .38894654 .12399292 .37695313 .16099549 .35194398 .18598938 .33494569 .12799073 .30592347 .041992189 .24984741 .041992189 .15072632 .041992189 .04458618 .14399719-.022460938 .24899292-.022460938 .3619995-.022460938 .45700074 .06060791 .45700074 .16773987 .45700074 .20379639 .44599916 .24885559 .4079895 .2909088 .3889923 .31193543 .37298585 .3219452 .30899049 .36193849M.20899964 .3199463 .33198548 .24183655C.3600006 .2228241 .40699769 .19277954 .40699769 .13169861 .40699769 .05760193 .33198548 .0055389406 .25 .0055389406 .1639862 .0055389406 .09199524 .067611698 .09199524 .15072632 .09199524 .20880127 .12399292 .27288819 .20899964 .3199463Z"/>
<path id="font_3_2" d="M.2939911 .64004519C.2939911 .66400149 .2939911 .6660156 .2709961 .6660156 .20899964 .60227969 .12098694 .60227969 .08898926 .60227969V.57128909C.10899353 .57128909 .16799927 .57128909 .21998596 .5972748V.07902527C.21998596 .042999269 .21699524 .0309906 .1269989 .0309906H.09498596V0C.12998963 .0029907227 .21699524 .0029907227 .25698854 .0029907227 .29699708 .0029907227 .38398744 .0029907227 .4189911 0V.0309906H.3869934C.29699708 .0309906 .2939911 .041992189 .2939911 .07902527V.64004519Z"/>
<path id="font_3_4" d="M.2899933 .35191346C.37199403 .37893678 .42999269 .4490509 .42999269 .52809146 .42999269 .6100464 .34199525 .6660156 .24598694 .6660156 .14498902 .6660156 .068984989 .60606387 .068984989 .53009036 .068984989 .49710084 .09098816 .47808839 .11999512 .47808839 .15098572 .47808839 .17098999 .50009158 .17098999 .5290985 .17098999 .57910159 .12399292 .57910159 .10899353 .57910159 .13999939 .62802127 .20599365 .64100649 .24198914 .64100649 .2829895 .64100649 .33799745 .6190338 .33799745 .5290985 .33799745 .51708987 .33599855 .45906068 .30999757 .4149933 .27999879 .36691285 .24598694 .36390687 .22099304 .36291505 .21299744 .36190797 .18899536 .35990907 .18199158 .35990907 .17399597 .35890199 .16699219 .35791017 .16699219 .3479004 .16699219 .33691407 .17399597 .33691407 .19099427 .33691407H.23498535C.31698609 .33691407 .35398866 .2686615 .35398866 .17037964 .35398866 .034469606 .2849884 .0055389406 .24099732 .0055389406 .19799805 .0055389406 .12298584 .022491456 .08799744 .08137512 .12298584 .07637024 .1539917 .09837341 .1539917 .1363678 .1539917 .17237854 .1269989 .19238281 .09799194 .19238281 .07398987 .19238281 .041992189 .17837525 .041992189 .1343689 .041992189 .043441774 .1349945-.022460938 .24398804-.022460938 .3659973-.022460938 .45700074 .06838989 .45700074 .17037964 .45700074 .252594 .3939972 .33088685 .2899933 .35191346Z"/>
<path id="font_3_6" d="M.44898988 .20022583C.44898988 .3193512 .36698915 .41944886 .25898744 .41944886 .21099854 .41944886 .16799927 .40345765 .13198853 .36842347V.5637665C.1519928 .5577698 .18499756 .55078127 .21699524 .55078127 .33999635 .55078127 .4099884 .6417694 .4099884 .6547699 .4099884 .6607666 .40699769 .6657715 .3999939 .6657715 .39898683 .6657715 .39698792 .6657715 .3919983 .66278079 .37199403 .6537781 .32299806 .6337738 .2559967 .6337738 .21598816 .6337738 .16999817 .6407776 .12298584 .6617737 .114990238 .66477969 .11299133 .66477969 .11099243 .66477969 .100997928 .66477969 .100997928 .6567688 .100997928 .6407776V.34439088C.100997928 .32637025 .100997928 .31835938 .114990238 .31835938 .12199402 .31835938 .12399292 .32136537 .12799073 .32736207 .13899231 .3433838 .17599488 .39746095 .25698854 .39746095 .30899049 .39746095 .33399964 .35139466 .34199525 .33337403 .35798646 .29632569 .3600006 .25727845 .3600006 .20722962 .3600006 .17222595 .3600006 .11222839 .33599855 .07035828 .31199647 .031463624 .2749939 .0055389406 .22898865 .0055389406 .1559906 .0055389406 .09899902 .058380128 .08198547 .11723328 .084991458 .1162262 .08799744 .115234378 .09899902 .115234378 .13198853 .115234378 .14898682 .14022827 .14898682 .16423035 .14898682 .18823242 .13198853 .21322632 .09899902 .21322632 .084991458 .21322632 .049987794 .20622254 .049987794 .16023255 .049987794 .07434082 .11898804-.022460938 .23098755-.022460938 .34700013-.022460938 .44898988 .073349 .44898988 .20022583Z"/>
<path id="font_2_2" d="M.43798829 .38304139C.4019928 .37702943 .3869934 .34902955 .3869934 .32702638 .3869934 .30003358 .4079895 .29003907 .42599488 .29003907 .44799806 .29003907 .48298646 .30603028 .48298646 .35403443 .48298646 .4223938 .40499879 .44140626 .35099793 .44140626 .20098877 .44140626 .06199646 .3030243 .06199646 .16412354 .06199646 .078186038 .12199402-.009765625 .24699402-.009765625 .41600038-.009765625 .49499513 .08917236 .49499513 .10316467 .49499513 .10916138 .48599244 .120147708 .47799684 .120147708 .47200013 .120147708 .46998597 .1181488 .46199037 .11016846 .38398744 .018234253 .2669983 .018234253 .24899292 .018234253 .1769867 .018234253 .14498902 .06718445 .14498902 .12915039 .14498902 .15812683 .15899658 .26704408 .21099854 .33602906 .24899292 .3850708 .30099488 .4133911 .35099793 .4133911 .36499024 .4133911 .41299439 .41137696 .43798829 .38304139Z"/>
</defs>
<path transform="matrix(1.00003,0,0,-1.00005,16.063065,191.71694)" stroke-width=".3985" stroke-linecap="butt" stroke-miterlimit="10" stroke-linejoin="miter" fill="none" stroke="#00aeef" d="M0 0H170.08257M0 17.00824H170.08257M0 34.0165H170.08257M0 51.02477H170.08257M0 68.03302H170.08257M0 85.04128H170.08257M0 102.04953H170.08257M0 119.0578H170.08257M0 136.06606H170.08257M0 153.07433H170.08257M0 170.0766H170.08257M0 0V170.08257M17.00824 0V170.08257M34.0165 0V170.08257M51.02477 0V170.08257M68.03302 0V170.08257M85.04128 0V170.08257M102.04953 0V170.08257M119.0578 0V170.08257M136.06606 0V170.08257M153.07433 0V170.08257M170.0766 0V170.08257M170.08257 170.08257"/>
<path transform="matrix(1.00003,0,0,-1.00005,16.063065,191.71694)" stroke-width=".79701" stroke-linecap="butt" stroke-miterlimit="10" stroke-linejoin="miter" fill="none" stroke="#000000" d="M0 0H178.85301"/>
<path transform="matrix(1.00003,0,0,-1.00005,194.92145,191.71694)" d="M1.0361 0C-.25902 .25902-1.55415 .77707-3.1083 1.68365-1.55415 .51805-1.55415-.51805-3.1083-1.68365-1.55415-.77707-.25902-.25902 1.0361 0Z"/>
<path transform="matrix(1.00003,0,0,-1.00005,194.92145,191.71694)" stroke-width=".79701" stroke-linecap="butt" stroke-linejoin="round" fill="none" stroke="#000000" d="M1.0361 0C-.25902 .25902-1.55415 .77707-3.1083 1.68365-1.55415 .51805-1.55415-.51805-3.1083-1.68365-1.55415-.77707-.25902-.25902 1.0361 0Z"/>
<use data-text="L" xlink:href="#font_1_1" transform="matrix(9.962899,0,0,-9.963098,200.07559,195.12111)"/>
<path transform="matrix(1.00003,0,0,-1.00005,16.063065,191.71694)" stroke-width=".79701" stroke-linecap="butt" stroke-miterlimit="10" stroke-linejoin="miter" fill="none" stroke="#000000" d="M0 0V178.85301"/>
<path transform="matrix(0,-1.00005,-1.00003,-0,16.063065,12.854996)" d="M1.0361 0C-.25902 .25902-1.55415 .77707-3.1083 1.68365-1.55415 .51805-1.55415-.51805-3.1083-1.68365-1.55415-.77707-.25902-.25902 1.0361 0Z"/>
<path transform="matrix(0,-1.00005,-1.00003,-0,16.063065,12.854996)" stroke-width=".79701" stroke-linecap="butt" stroke-linejoin="round" fill="none" stroke="#000000" d="M1.0361 0C-.25902 .25902-1.55415 .77707-3.1083 1.68365-1.55415 .51805-1.55415-.51805-3.1083-1.68365-1.55415-.77707-.25902-.25902 1.0361 0Z"/>
<use data-text="v" xlink:href="#font_1_2" transform="matrix(9.962899,0,0,-9.963098,5.444748,6.206665)"/>
<use data-text="m" xlink:href="#font_2_3" transform="matrix(6.9740097,0,0,-6.9741489,10.273895,7.7007448)"/>
<use data-text="a" xlink:href="#font_2_1" transform="matrix(6.9740097,0,0,-6.9741489,17.33857,7.7007448)"/>
<use data-text="x" xlink:href="#font_2_4" transform="matrix(6.9740097,0,0,-6.9741489,21.65548,7.7007448)"/>
<path transform="matrix(1.00003,0,0,-1.00005,16.063065,191.71694)" stroke-width=".3985" stroke-linecap="butt" stroke-miterlimit="10" stroke-linejoin="miter" fill="none" stroke="#000000" d="M34.0165 1.70091V-1.70065"/>
<path transform="matrix(1.00003,0,0,-1.00005,16.063065,191.71694)" d="M25.54813-12.30545H42.484849V-3.8924704H25.54813Z" fill="#ffffff"/>
<use data-text="2" xlink:href="#font_3_3" transform="matrix(9.962899,0,0,-9.963098,42.607866,203.0265)"/>
<use data-text="0" xlink:href="#font_3_1" transform="matrix(9.962899,0,0,-9.963098,47.58931,203.0265)"/>
<use data-text="0" xlink:href="#font_3_1" transform="matrix(9.962899,0,0,-9.963098,52.570764,203.0265)"/>
<path transform="matrix(1.00003,0,0,-1.00005,16.063065,191.71694)" stroke-width=".3985" stroke-linecap="butt" stroke-miterlimit="10" stroke-linejoin="miter" fill="none" stroke="#000000" d="M68.03302 1.70091V-1.70065"/>
<path transform="matrix(1.00003,0,0,-1.00005,16.063065,191.71694)" d="M59.56465-12.30545H76.50137V-3.8924704H59.56465Z" fill="#ffffff"/>
<use data-text="4" xlink:href="#font_3_5" transform="matrix(9.962899,0,0,-9.963098,76.625888,203.0265)"/>
<use data-text="0" xlink:href="#font_3_1" transform="matrix(9.962899,0,0,-9.963098,81.60733,203.0265)"/>
<use data-text="0" xlink:href="#font_3_1" transform="matrix(9.962899,0,0,-9.963098,86.58878,203.0265)"/>
<path transform="matrix(1.00003,0,0,-1.00005,16.063065,191.71694)" stroke-width=".3985" stroke-linecap="butt" stroke-miterlimit="10" stroke-linejoin="miter" fill="none" stroke="#000000" d="M102.04953 1.70091V-1.70065"/>
<path transform="matrix(1.00003,0,0,-1.00005,16.063065,191.71694)" d="M93.58116-12.30545H110.51788V-3.8924704H93.58116Z" fill="#ffffff"/>
<use data-text="6" xlink:href="#font_3_7" transform="matrix(9.962899,0,0,-9.963098,110.64291,203.0265)"/>
<use data-text="0" xlink:href="#font_3_1" transform="matrix(9.962899,0,0,-9.963098,115.62435,203.0265)"/>
<use data-text="0" xlink:href="#font_3_1" transform="matrix(9.962899,0,0,-9.963098,120.605808,203.0265)"/>
<path transform="matrix(1.00003,0,0,-1.00005,16.063065,191.71694)" stroke-width=".3985" stroke-linecap="butt" stroke-miterlimit="10" stroke-linejoin="miter" fill="none" stroke="#000000" d="M136.06606 1.70091V-1.70065"/>
<path transform="matrix(1.00003,0,0,-1.00005,16.063065,191.71694)" d="M127.59769-12.30545H144.53441V-3.8924704H127.59769Z" fill="#ffffff"/>
<use data-text="8" xlink:href="#font_3_8" transform="matrix(9.962899,0,0,-9.963098,144.66092,203.0265)"/>
<use data-text="0" xlink:href="#font_3_1" transform="matrix(9.962899,0,0,-9.963098,149.64237,203.0265)"/>
<use data-text="0" xlink:href="#font_3_1" transform="matrix(9.962899,0,0,-9.963098,154.62381,203.0265)"/>
<path transform="matrix(1.00003,0,0,-1.00005,16.063065,191.71694)" stroke-width=".3985" stroke-linecap="butt" stroke-miterlimit="10" stroke-linejoin="miter" fill="none" stroke="#000000" d="M170.08257 1.70091V-1.70065"/>
<path transform="matrix(1.00003,0,0,-1.00005,16.063065,191.71694)" d="M159.12349-12.30545H181.04163V-3.8924704H159.12349Z" fill="#ffffff"/>
<use data-text="1" xlink:href="#font_3_2" transform="matrix(9.962899,0,0,-9.963098,176.18787,203.0265)"/>
<use data-text="0" xlink:href="#font_3_1" transform="matrix(9.962899,0,0,-9.963098,181.16931,203.0265)"/>
<use data-text="0" xlink:href="#font_3_1" transform="matrix(9.962899,0,0,-9.963098,186.15076,203.0265)"/>
<use data-text="0" xlink:href="#font_3_1" transform="matrix(9.962899,0,0,-9.963098,191.13222,203.0265)"/>
<path transform="matrix(1.00003,0,0,-1.00005,16.063065,191.71694)" stroke-width=".3985" stroke-linecap="butt" stroke-miterlimit="10" stroke-linejoin="miter" fill="none" stroke="#000000" d="M1.70091 34.0165H-1.70065"/>
<path transform="matrix(1.00003,0,0,-1.00005,16.063065,191.71694)" d="M-15.84781 29.81001H-3.8924695V38.222993H-15.84781Z" fill="#ffffff"/>
<use data-text="1" xlink:href="#font_3_2" transform="matrix(9.962899,0,0,-9.963098,1.2106171,160.9094)"/>
<use data-text="0" xlink:href="#font_3_1" transform="matrix(9.962899,0,0,-9.963098,6.1920626,160.9094)"/>
<path transform="matrix(1.00003,0,0,-1.00005,16.063065,191.71694)" stroke-width=".3985" stroke-linecap="butt" stroke-miterlimit="10" stroke-linejoin="miter" fill="none" stroke="#000000" d="M1.70091 68.03302H-1.70065"/>
<path transform="matrix(1.00003,0,0,-1.00005,16.063065,191.71694)" d="M-15.84781 63.82654H-3.8924695V72.239528H-15.84781Z" fill="#ffffff"/>
<use data-text="2" xlink:href="#font_3_3" transform="matrix(9.962899,0,0,-9.963098,1.2106171,126.8907)"/>
<use data-text="0" xlink:href="#font_3_1" transform="matrix(9.962899,0,0,-9.963098,6.1920626,126.8907)"/>
<path transform="matrix(1.00003,0,0,-1.00005,16.063065,191.71694)" stroke-width=".3985" stroke-linecap="butt" stroke-miterlimit="10" stroke-linejoin="miter" fill="none" stroke="#000000" d="M1.70091 102.04953H-1.70065"/>
<path transform="matrix(1.00003,0,0,-1.00005,16.063065,191.71694)" d="M-15.84781 97.84305H-3.8924695V106.25603H-15.84781Z" fill="#ffffff"/>
<use data-text="3" xlink:href="#font_3_4" transform="matrix(9.962899,0,0,-9.963098,1.2106171,92.873)"/>
<use data-text="0" xlink:href="#font_3_1" transform="matrix(9.962899,0,0,-9.963098,6.1920626,92.873)"/>
<path transform="matrix(1.00003,0,0,-1.00005,16.063065,191.71694)" stroke-width=".3985" stroke-linecap="butt" stroke-miterlimit="10" stroke-linejoin="miter" fill="none" stroke="#000000" d="M1.70091 136.06606H-1.70065"/>
<path transform="matrix(1.00003,0,0,-1.00005,16.063065,191.71694)" d="M-15.84781 131.85958H-3.8924695V140.27256H-15.84781Z" fill="#ffffff"/>
<use data-text="4" xlink:href="#font_3_5" transform="matrix(9.962899,0,0,-9.963098,1.2106171,58.854295)"/>
<use data-text="0" xlink:href="#font_3_1" transform="matrix(9.962899,0,0,-9.963098,6.1920626,58.854295)"/>
<path transform="matrix(1.00003,0,0,-1.00005,16.063065,191.71694)" stroke-width=".3985" stroke-linecap="butt" stroke-miterlimit="10" stroke-linejoin="miter" fill="none" stroke="#000000" d="M1.70091 170.08257H-1.70065"/>
<path transform="matrix(1.00003,0,0,-1.00005,16.063065,191.71694)" d="M-15.84781 165.87607H-3.8924695V174.28905H-15.84781Z" fill="#ffffff"/>
<use data-text="5" xlink:href="#font_3_6" transform="matrix(9.962899,0,0,-9.963098,1.2106171,24.836609)"/>
<use data-text="0" xlink:href="#font_3_1" transform="matrix(9.962899,0,0,-9.963098,6.1920626,24.836609)"/>
<path transform="matrix(1.00003,0,0,-1.00005,16.063065,191.71694)" stroke-width="1.19553" stroke-linecap="butt" stroke-miterlimit="10" stroke-linejoin="miter" fill="none" stroke="#ff0000" d="M0 0C0 0 1.92006 14.04994 2.65753 17.47978 3.39497 20.90964 4.5776 22.9446 5.31506 24.72003 6.05252 26.49547 7.23515 28.85524 7.97261 30.27597 8.71005 31.69669 9.8927 33.7372 10.63014 34.95961 11.3676 36.18204 12.55023 37.99611 13.28767 39.08633 14.02515 40.17656 15.20776 41.82364 15.94522 42.81726 16.68268 43.81088 17.86531 45.32867 18.60275 46.24768 19.34023 47.16669 20.52284 48.58167 21.26031 49.44087 21.99776 50.30006 23.18037 51.6305 23.91785 52.4402 24.65529 53.24994 25.83792 54.50894 26.57538 55.27682 27.31284 56.0447 28.49548 57.24265 29.23293 57.9746 29.97038 58.70654 31.15302 59.85143 31.89047 60.5522 32.62793 61.25296 33.81056 62.35207 34.548 63.0252 35.28548 63.69835 36.4681 64.75514 37.20554 65.40376 37.94301 66.05238 39.12563 67.07343 39.8631 67.70004 40.60054 68.32666 41.78317 69.31335 42.52063 69.92001 43.25809 70.52669 44.4407 71.48404 45.17818 72.07253 45.91562 72.66101 47.09825 73.58961 47.83571 74.16145 48.57315 74.73329 49.7558 75.63747 50.49324 76.19405 51.2307 76.75063 52.41333 77.63051 53.15079 78.17294 53.88824 78.71536 55.07088 79.57419 55.80832 80.10355 56.54579 80.63292 57.72842 81.47105 58.46588 81.98822 59.20334 82.50537 60.38596 83.32492 61.12341 83.83084 61.86087 84.33676 63.04349 85.13928 63.78096 85.63455 64.5184 86.1298 65.70105 86.91518 66.43849 87.40036 67.17595 87.88554 68.35858 88.6557 69.09604 89.1314 69.83348 89.6071 71.01611 90.36218 71.75357 90.82895 72.49103 91.29572 73.67366 92.03719 74.4111 92.49562 75.14857 92.95409 76.33119 93.68279 77.06865 94.13322 77.8061 94.58365 78.98874 95.29921 79.7262 95.74202 80.46365 96.18486 81.64627 96.88924 82.38373 97.32486 83.12119 97.76051 84.30382 98.45297 85.04128 98.88176 85.77873 99.31055 86.96136 99.993 87.69882 100.41531 88.43626 100.83762 89.61891 101.50952 90.35635 101.92549 91.09383 102.34145 92.27644 103.00336 93.0139 103.41333 93.75136 103.82333 94.93398 104.47617 95.67143 104.88043 96.40889 105.2847 97.59152 105.92831 98.32898 106.32704 99.06644 106.72575 100.24905 107.36067 100.98653 107.75415 101.72397 108.14766 102.9066 108.77466 103.64406 109.16312 104.38152 109.55157 105.56415 110.17043 106.30159 110.55392 107.03905 110.93741 108.22168 111.54831 108.95914 111.92706 109.6966 112.30583 110.87923 112.9096 111.61667 113.28387 112.35414 113.65814 113.53677 114.25467 114.27422 114.62459 115.01169 114.99449 116.1943 115.58429 116.93178 115.94998 117.66922 116.31567 118.85184 116.89877 119.58931 117.26031 120.32675 117.62189 121.50938 118.19833 122.24684 118.55588 122.9843 118.91339 124.16693 119.48337 124.90439 119.83714 125.64183 120.19092 126.82448 120.75563 127.56192 121.1057 128.29938 121.4558 129.48201 122.01385 130.21945 122.36026 130.95693 122.70665 132.13954 123.25932 132.877 123.60234 133.61446 123.94536 134.79709 124.49283 135.53453 124.83249 136.272 125.17215 137.45462 125.71405 138.1921 126.05045 138.92954 126.38684 140.11215 126.92386 140.84963 127.25699 141.58707 127.59009 142.76972 128.1213 143.50717 128.45131 144.24462 128.78133 145.42726 129.3085 146.1647 129.63553 146.90216 129.96256 148.0848 130.4842 148.82225 130.80832 149.55971 131.13243 150.74234 131.65023 151.47978 131.97153 152.21726 132.29282 153.39987 132.80565 154.13732 133.12407 154.87479 133.44249 156.0574 133.95072 156.79488 134.2665 157.53232 134.58229 158.71495 135.08695 159.45241 135.4001 160.18987 135.71327 161.37248 136.21306 162.10996 136.52359 162.8474 136.83412 164.03003 137.33025 164.76749 137.63825 165.50493 137.94628 166.68758 138.43798 167.42502 138.74358 168.16249 139.04918 170.08257 139.84085 168.35108 139.12697"/>
<path transform="matrix(.92447778,-.38116906,-.38116146,-.9244962,184.41919,52.583024)" d="M1.27522 0C-.31879 .31879-1.91284 .9564-3.8257 2.07224-1.91284 .6376-1.91284-.6376-3.8257-2.07224-1.91284-.9564-.31879-.31879 1.27522 0Z" fill="#ff0000"/>
<path transform="matrix(.92447778,-.38116906,-.38116146,-.9244962,184.41919,52.583024)" stroke-width="1.19553" stroke-linecap="butt" stroke-linejoin="round" fill="none" stroke="#ff0000" d="M1.27522 0C-.31879 .31879-1.91284 .9564-3.8257 2.07224-1.91284 .6376-1.91284-.6376-3.8257-2.07224-1.91284-.9564-.31879-.31879 1.27522 0Z"/>
<use data-text="v" xlink:href="#font_1_2" transform="matrix(9.962899,0,0,-9.963098,190.0693,53.26703)" fill="#ff0000"/>
<use data-text="m" xlink:href="#font_2_3" transform="matrix(6.9740097,0,0,-6.9741489,194.89846,54.76111)" fill="#ff0000"/>
<use data-text="a" xlink:href="#font_2_1" transform="matrix(6.9740097,0,0,-6.9741489,201.96314,54.76111)" fill="#ff0000"/>
<use data-text="x" xlink:href="#font_2_4" transform="matrix(6.9740097,0,0,-6.9741489,206.28003,54.76111)" fill="#ff0000"/>
<path transform="matrix(1.00003,0,0,-1.00005,16.063065,191.71694)" stroke-width="1.19553" stroke-linecap="butt" stroke-miterlimit="10" stroke-linejoin="miter" fill="none" stroke="#0000ff" d="M0 0C0 0 1.92006 8.6461 2.65753 10.75679 3.39497 12.86748 4.5776 14.11975 5.31506 15.21233 6.05252 16.3049 7.23515 17.75703 7.97261 18.6313 8.71005 19.50558 9.8927 20.76135 10.63014 21.51361 11.3676 22.26584 12.55023 23.38216 13.28767 24.05305 14.02515 24.72395 15.20776 25.73763 15.94522 26.34908 16.68268 26.96056 17.86531 27.89452 18.60275 28.46005 19.34023 29.0256 20.52284 29.89645 21.26031 30.42519 21.99776 30.95393 23.18037 31.77264 23.91785 32.27092 24.65529 32.76921 25.83792 33.54396 26.57538 34.0165 27.31284 34.48904 28.49548 35.22626 29.23293 35.67668 29.97038 36.12712 31.15302 36.83167 31.89047 37.2629 32.62793 37.69414 33.81056 38.37051 34.548 38.78476 35.28548 39.199 36.4681 39.84933 37.20554 40.24847 37.94301 40.64761 39.12563 41.27599 39.8631 41.66159 40.60054 42.04721 41.78317 42.6544 42.52063 43.02774 43.25809 43.40108 44.4407 43.99022 45.17818 44.35236 45.91562 44.71448 47.09825 45.28587 47.83571 45.63779 48.57315 45.9897 49.7558 46.54619 50.49324 46.8887 51.2307 47.23122 52.41333 47.77258 53.15079 48.1064 53.88824 48.44019 55.07088 48.96872 55.80832 49.29451 56.54579 49.62027 57.72842 50.13608 58.46588 50.45432 59.20334 50.77257 60.38596 51.27686 61.12341 51.58818 61.86087 51.89952 63.04349 52.39342 63.78096 52.69818 64.5184 53.00294 65.70105 53.48622 66.43849 53.7848 67.17595 54.08339 68.35858 54.55742 69.09604 54.85016 69.83348 55.1429 71.01611 55.60751 71.75357 55.89474 72.49103 56.18199 73.67366 56.63828 74.4111 56.9204 75.14857 57.20251 76.33119 57.65092 77.06865 57.92813 77.8061 58.20532 78.98874 58.6457 79.7262 58.91823 80.46365 59.19073 81.64627 59.62415 82.38373 59.89223 83.12119 60.16031 84.30382 60.58652 85.04128 60.85039 85.77873 61.11426 86.96136 61.53415 87.69882 61.79402 88.43626 62.05391 89.61891 62.4674 90.35635 62.72339 91.09383 62.97937 92.27644 63.38669 93.0139 63.63899 93.75136 63.8913 94.93398 64.29309 95.67143 64.54187 96.40889 64.79065 97.59152 65.18669 98.32898 65.43204 99.06644 65.67741 100.24905 66.06815 100.98653 66.31027 101.72397 66.55243 102.9066 66.93831 103.64406 67.17737 104.38152 67.41641 105.56415 67.79727 106.30159 68.03326 107.03905 68.26927 108.22168 68.6452 108.95914 68.87828 109.6966 69.11136 110.87923 69.48288 111.61667 69.7132 112.35414 69.9435 113.53677 70.31058 114.27422 70.53822 115.01169 70.76585 116.1943 71.12885 116.93178 71.3539 117.66922 71.57895 118.85184 71.93774 119.58931 72.16025 120.32675 72.38274 121.50938 72.7375 122.24684 72.9575 122.9843 73.1775 124.16693 73.52826 124.90439 73.74594 125.64183 73.96365 126.82448 74.31117 127.56192 74.52661 128.29938 74.74203 129.48201 75.08553 130.21945 75.29869 130.95693 75.51186 132.13954 75.85191 132.877 76.063 133.61446 76.27406 134.79709 76.61101 135.53453 76.82002 136.272 77.02904 137.45462 77.36252 138.1921 77.56953 138.92954 77.77655 140.11215 78.10704 140.84963 78.31204 141.58707 78.51703 142.76972 78.84393 143.50717 79.04701 144.24462 79.25009 145.42726 79.57452 146.1647 79.77576 146.90216 79.97702 148.0848 80.29807 148.82225 80.49751 149.55971 80.69695 150.74234 81.01556 151.47978 81.21327 152.21726 81.411 153.39987 81.72661 154.13732 81.92256 154.87479 82.11852 156.0574 82.43127 156.79488 82.62561 157.53232 82.81995 158.71495 83.13051 159.45241 83.32321 160.18987 83.51591 161.37248 83.8235 162.10996 84.01459 162.8474 84.20569 164.03003 84.51097 164.76749 84.70052 165.50493 84.89008 166.68758 85.19267 167.42502 85.38074 168.16249 85.56882 170.08257 86.05602 168.26718 85.59549"/>
<path transform="matrix(.96927919,-.24589227,-.24588739,-.9692984,184.33528,106.117198)" d="M1.27522 0C-.31879 .31879-1.91284 .9564-3.8257 2.07224-1.91284 .6376-1.91284-.6376-3.8257-2.07224-1.91284-.9564-.31879-.31879 1.27522 0Z" fill="#0000ff"/>
<path transform="matrix(.96927919,-.24589227,-.24588739,-.9692984,184.33528,106.117198)" stroke-width="1.19553" stroke-linecap="butt" stroke-linejoin="round" fill="none" stroke="#0000ff" d="M1.27522 0C-.31879 .31879-1.91284 .9564-3.8257 2.07224-1.91284 .6376-1.91284-.6376-3.8257-2.07224-1.91284-.9564-.31879-.31879 1.27522 0Z"/>
<use data-text="v" xlink:href="#font_1_2" transform="matrix(9.962899,0,0,-9.963098,190.0693,107.05471)" fill="#0000ff"/>
<use data-text="c" xlink:href="#font_2_2" transform="matrix(6.9740097,0,0,-6.9741489,194.89846,108.54879)" fill="#0000ff"/>
</svg>
