<svg xmlns="http://www.w3.org/2000/svg" xmlns:xlink="http://www.w3.org/1999/xlink" version="1.1" width="227" height="214" viewBox="0 0 227 214">
<defs>
<path id="font_1_1" d="M.33399964 .30233766C.33999635 .32835389 .36299134 .42037965 .43299867 .42037965 .43798829 .42037965 .46199037 .42037965 .48298646 .40734864 .45498658 .402359 .43499757 .37734986 .43499757 .35334779 .43499757 .33735658 .44599916 .31835938 .47299195 .31835938 .49499513 .31835938 .5269928 .3363495 .5269928 .37635804 .5269928 .42837525 .46798707 .4423828 .43399049 .4423828 .37599183 .4423828 .34098817 .38935853 .32899476 .36634828 .3039856 .43237306 .25 .4423828 .22099304 .4423828 .116989139 .4423828 .05999756 .3133545 .05999756 .28834535 .05999756 .27833558 .069992069 .27833558 .07199097 .27833558 .07998657 .27833558 .08299255 .28033448 .084991458 .28933717 .11898804 .39535523 .18499756 .42037965 .21899414 .42037965 .23799134 .42037965 .272995 .4113617 .272995 .35334779 .272995 .32235719 .2559967 .25532533 .21899414 .11528015 .20298767 .053268434 .16799927 .011245728 .12399292 .011245728 .117996219 .011245728 .09498596 .011245728 .07398987 .024276734 .09899902 .029266358 .12098694 .05027771 .12098694 .07827759 .12098694 .105270389 .09899902 .11328125 .083999637 .11328125 .053985597 .11328125 .0289917 .08728027 .0289917 .055267335 .0289917 .009246826 .07899475-.0107421879 .12298584-.0107421879 .18899536-.0107421879 .22499085 .059280397 .22799683 .0652771 .23999024 .028274537 .27598573-.0107421879 .33599855-.0107421879 .43899537-.0107421879 .49598695 .118270877 .49598695 .14328003 .49598695 .1532898 .4869995 .1532898 .48399354 .1532898 .47499085 .1532898 .47299195 .14929199 .47099305 .14228821 .43798829 .03527832 .36999513 .011245728 .33799745 .011245728 .29899598 .011245728 .2829895 .043273927 .2829895 .07727051 .2829895 .09927368 .2889862 .121276859 .2999878 .16529846L.33399964 .30233766Z"/>
<path id="font_1_2" d="M.48599244 .38136292C.48999024 .39537049 .48999024 .39736939 .48999024 .40437318 .48999024 .42237855 .47599793 .43138124 .46099855 .43138124 .45098878 .43138124 .43499757 .42536927 .42599488 .41036988 .42399598 .405365 .41600038 .37435914 .4119873 .35635377 .40499879 .33035279 .397995 .30334474 .3919983 .27633668L.34700013 .09628296C.34298707 .08126831 .2999878 .011245728 .23399353 .011245728 .18299866 .011245728 .17199707 .055267335 .17199707 .0922699 .17199707 .1382904 .18899536 .20030213 .22299195 .28833009 .23899842 .3293457 .24299622 .3403473 .24299622 .36035157 .24299622 .405365 .21099854 .4423828 .16099549 .4423828 .06599426 .4423828 .0289917 .29733277 .0289917 .28833009 .0289917 .27833558 .038986207 .27833558 .040985109 .27833558 .050994874 .27833558 .051986696 .28033448 .056991579 .29634095 .083999637 .3903656 .12399292 .42037965 .1579895 .42037965 .1659851 .42037965 .18299866 .42037965 .18299866 .3883667 .18299866 .36335755 .17298889 .3373413 .1659851 .31834413 .12599182 .21231079 .10798645 .1552887 .10798645 .10827637 .10798645 .019256592 .17098999-.0107421879 .22999573-.0107421879 .2689972-.0107421879 .30299378 .0062561037 .33099366 .03425598 .31799317-.017745972 .30599977-.06674194 .2659912-.11973572 .23999024-.15385437 .20199585-.18309021 .1559906-.18309021 .14199829-.18309021 .09700012-.18005371 .07998657-.14074707 .09599304-.14074707 .10899353-.14074707 .12298584-.1287384 .1329956-.11973572 .14299011-.10673523 .14299011-.08773804 .14299011-.056747438 .115997318-.052734376 .10598755-.052734376 .08299255-.052734376 .049987794-.068740848 .049987794-.11773682 .049987794-.16796875 .09399414-.20507813 .1559906-.20507813 .25898744-.20507813 .3619995-.11373901 .3899994-.00074768069L.48599244 .38136292Z"/>
<path id="font_2_1" d="M.6589966 .23046875C.6759949 .23046875 .69400027 .23046875 .69400027 .25045777 .69400027 .27046205 .6759949 .27046205 .6589966 .27046205H.117996219C.100997928 .27046205 .08299255 .27046205 .08299255 .25045777 .08299255 .23046875 .100997928 .23046875 .117996219 .23046875H.6589966Z"/>
<path id="font_3_2" d="M.44898988 .20022583C.44898988 .3193512 .36698915 .41944886 .25898744 .41944886 .21099854 .41944886 .16799927 .40345765 .13198853 .36842347V.5637665C.1519928 .5577698 .18499756 .55078127 .21699524 .55078127 .33999635 .55078127 .4099884 .6417694 .4099884 .6547699 .4099884 .6607666 .40699769 .6657715 .3999939 .6657715 .39898683 .6657715 .39698792 .6657715 .3919983 .66278079 .37199403 .6537781 .32299806 .6337738 .2559967 .6337738 .21598816 .6337738 .16999817 .6407776 .12298584 .6617737 .114990238 .66477969 .11299133 .66477969 .11099243 .66477969 .100997928 .66477969 .100997928 .6567688 .100997928 .6407776V.34439088C.100997928 .32637025 .100997928 .31835938 .114990238 .31835938 .12199402 .31835938 .12399292 .32136537 .12799073 .32736207 .13899231 .3433838 .17599488 .39746095 .25698854 .39746095 .30899049 .39746095 .33399964 .35139466 .34199525 .33337403 .35798646 .29632569 .3600006 .25727845 .3600006 .20722962 .3600006 .17222595 .3600006 .11222839 .33599855 .07035828 .31199647 .031463624 .2749939 .0055389406 .22898865 .0055389406 .1559906 .0055389406 .09899902 .058380128 .08198547 .11723328 .084991458 .1162262 .08799744 .115234378 .09899902 .115234378 .13198853 .115234378 .14898682 .14022827 .14898682 .16423035 .14898682 .18823242 .13198853 .21322632 .09899902 .21322632 .084991458 .21322632 .049987794 .20622254 .049987794 .16023255 .049987794 .07434082 .11898804-.022460938 .23098755-.022460938 .34700013-.022460938 .44898988 .073349 .44898988 .20022583Z"/>
<path id="font_3_1" d="M.2939911 .64004519C.2939911 .66400149 .2939911 .6660156 .2709961 .6660156 .20899964 .60227969 .12098694 .60227969 .08898926 .60227969V.57128909C.10899353 .57128909 .16799927 .57128909 .21998596 .5972748V.07902527C.21998596 .042999269 .21699524 .0309906 .1269989 .0309906H.09498596V0C.12998963 .0029907227 .21699524 .0029907227 .25698854 .0029907227 .29699708 .0029907227 .38398744 .0029907227 .4189911 0V.0309906H.3869934C.29699708 .0309906 .2939911 .041992189 .2939911 .07902527V.64004519Z"/>
</defs>
<path transform="matrix(1.00005,0,0,-1.00005,105.793628,60.596376)" stroke-width=".3985" stroke-linecap="butt" stroke-miterlimit="10" stroke-linejoin="miter" fill="none" stroke="#00aeef" d="M-99.2134-148.82334H99.2134M-99.2134-138.90178H99.2134M-99.2134-128.98023H99.2134M-99.2134-119.05867H99.2134M-99.2134-109.13712H99.2134M-99.2134-99.21555H99.2134M-99.2134-89.29399H99.2134M-99.2134-79.37244H99.2134M-99.2134-69.45088H99.2134M-99.2134-59.52933H99.2134M-99.2134-49.60777H99.2134M-99.2134-39.68622H99.2134M-99.2134-29.76466H99.2134M-99.2134-19.84311H99.2134M-99.2134-9.92155H99.2134M-99.2134 0H99.2134M-99.2134 9.92155H99.2134M-99.2134 19.84311H99.2134M-99.2134 29.76466H99.2134M-99.2134 39.68622H99.2134M-99.2134 49.60428H99.2134M-99.2134-148.82334V49.60777M-79.37071-148.82334V49.60777M-59.52802-148.82334V49.60777M-39.68535-148.82334V49.60777M-19.84267-148.82334V49.60777M0-148.82334V49.60777M19.84267-148.82334V49.60777M39.68535-148.82334V49.60777M59.52802-148.82334V49.60777M79.37071-148.82334V49.60777M99.20642-148.82334V49.60777M99.2134 49.60777"/>
<path transform="matrix(1.00005,0,0,-1.00005,105.793628,60.596376)" stroke-width=".79701" stroke-linecap="butt" stroke-miterlimit="10" stroke-linejoin="miter" fill="none" stroke="#000000" d="M-99.2134 0H109.6845"/>
<path transform="matrix(1.00005,0,0,-1.00005,215.48361,60.596376)" d="M1.0361 0C-.25902 .25902-1.55415 .77707-3.1083 1.68365-1.55415 .51805-1.55415-.51805-3.1083-1.68365-1.55415-.77707-.25902-.25902 1.0361 0Z"/>
<path transform="matrix(1.00005,0,0,-1.00005,215.48361,60.596376)" stroke-width=".79701" stroke-linecap="butt" stroke-linejoin="round" fill="none" stroke="#000000" d="M1.0361 0C-.25902 .25902-1.55415 .77707-3.1083 1.68365-1.55415 .51805-1.55415-.51805-3.1083-1.68365-1.55415-.77707-.25902-.25902 1.0361 0Z"/>
<use data-text="x" xlink:href="#font_1_1" transform="matrix(9.963098,0,0,-9.963098,220.63736,62.74148)"/>
<path transform="matrix(1.00005,0,0,-1.00005,105.793628,60.596376)" stroke-width=".79701" stroke-linecap="butt" stroke-miterlimit="10" stroke-linejoin="miter" fill="none" stroke="#000000" d="M0-148.82334V54.12614"/>
<path transform="matrix(0,-1.00005,-1.00005,-0,105.793628,6.4675295)" d="M1.0361 0C-.25902 .25902-1.55415 .77707-3.1083 1.68365-1.55415 .51805-1.55415-.51805-3.1083-1.68365-1.55415-.77707-.25902-.25902 1.0361 0Z"/>
<path transform="matrix(0,-1.00005,-1.00005,-0,105.793628,6.4675295)" stroke-width=".79701" stroke-linecap="butt" stroke-linejoin="round" fill="none" stroke="#000000" d="M1.0361 0C-.25902 .25902-1.55415 .77707-3.1083 1.68365-1.55415 .51805-1.55415-.51805-3.1083-1.68365-1.55415-.77707-.25902-.25902 1.0361 0Z"/>
<use data-text="y" xlink:href="#font_1_2" transform="matrix(9.963098,0,0,-9.963098,98.82428,6.20866)"/>
<path transform="matrix(1.00005,0,0,-1.00005,105.793628,60.596376)" stroke-width="1.19553" stroke-linecap="butt" stroke-miterlimit="10" stroke-linejoin="miter" fill="none" stroke="#00aeef" d="M-99.2134-148.82334V49.60777"/>
<path transform="matrix(1.00005,0,0,-1.00005,105.793628,60.596376)" stroke-width="1.19553" stroke-linecap="butt" stroke-miterlimit="10" stroke-linejoin="miter" fill="none" stroke="#00aeef" d="M-99.2134-49.60777H99.2134"/>
<path transform="matrix(1.00005,0,0,-1.00005,105.793628,60.596376)" stroke-width=".3985" stroke-linecap="butt" stroke-miterlimit="10" stroke-linejoin="miter" fill="none" stroke="#000000" d="M-99.2134 1.48816V-1.48831"/>
<path transform="matrix(1.00005,0,0,-1.00005,105.793628,60.596376)" d="M-106.57478-12.92334H-91.852008V-3.68011H-106.57478Z" fill="#ffffff"/>
<use data-text="&#x2212;" xlink:href="#font_2_1" transform="matrix(9.963098,0,0,-9.963098,.20935059,71.693927)"/>
<use data-text="5" xlink:href="#font_3_2" transform="matrix(9.963098,0,0,-9.963098,7.957733,71.693927)"/>
<path transform="matrix(1.00005,0,0,-1.00005,105.793628,60.596376)" stroke-width=".3985" stroke-linecap="butt" stroke-miterlimit="10" stroke-linejoin="miter" fill="none" stroke="#000000" d="M2.97627-49.60777H-2.97658"/>
<path transform="matrix(1.00005,0,0,-1.00005,105.793628,60.596376)" d="M-19.89116-54.22939H-5.168379V-44.98616H-19.89116Z" fill="#ffffff"/>
<use data-text="&#x2212;" xlink:href="#font_2_1" transform="matrix(9.963098,0,0,-9.963098,86.89768,113.00199)"/>
<use data-text="5" xlink:href="#font_3_2" transform="matrix(9.963098,0,0,-9.963098,94.646068,113.00199)"/>
<path transform="matrix(1.00005,0,0,-1.00005,105.793628,60.596376)" stroke-width="1.19553" stroke-linecap="butt" stroke-miterlimit="10" stroke-linejoin="miter" fill="none" stroke="#00aeef" d="M99.2134-148.82334V49.60777"/>
<path transform="matrix(1.00005,0,0,-1.00005,105.793628,60.596376)" stroke-width="1.19553" stroke-linecap="butt" stroke-miterlimit="10" stroke-linejoin="miter" fill="none" stroke="#00aeef" d="M-99.2134 49.60777H99.2134"/>
<path transform="matrix(1.00005,0,0,-1.00005,105.793628,60.596376)" stroke-width=".3985" stroke-linecap="butt" stroke-miterlimit="10" stroke-linejoin="miter" fill="none" stroke="#000000" d="M99.2134 1.48816V-1.48831"/>
<path transform="matrix(1.00005,0,0,-1.00005,105.793628,60.596376)" d="M95.72643-12.09311H102.70037V-3.68013H95.72643Z" fill="#ffffff"/>
<use data-text="5" xlink:href="#font_3_2" transform="matrix(9.963098,0,0,-9.963098,202.52146,71.693927)"/>
<path transform="matrix(1.00005,0,0,-1.00005,105.793628,60.596376)" stroke-width=".3985" stroke-linecap="butt" stroke-miterlimit="10" stroke-linejoin="miter" fill="none" stroke="#000000" d="M2.97627 49.60777H-2.97658"/>
<path transform="matrix(1.00005,0,0,-1.00005,105.793628,60.596376)" d="M-12.14232 45.40128H-5.16838V53.81426H-12.14232Z" fill="#ffffff"/>
<use data-text="5" xlink:href="#font_3_2" transform="matrix(9.963098,0,0,-9.963098,94.647068,14.196056)"/>
<path transform="matrix(1.00005,0,0,-1.00005,105.793628,60.596376)" stroke-width=".3985" stroke-linecap="butt" stroke-miterlimit="10" stroke-linejoin="miter" fill="none" stroke="#000000" d="M2.97627-148.82334H-2.97658"/>
<path transform="matrix(1.00005,0,0,-1.00005,105.793628,60.596376)" d="M-24.87257-153.44495H-5.1683695V-144.20172H-24.87257Z" fill="#ffffff"/>
<use data-text="&#x2212;" xlink:href="#font_2_1" transform="matrix(9.963098,0,0,-9.963098,81.916439,212.22196)"/>
<use data-text="1" xlink:href="#font_3_1" transform="matrix(9.963098,0,0,-9.963098,89.66482,212.22196)"/>
<use data-text="5" xlink:href="#font_3_2" transform="matrix(9.963098,0,0,-9.963098,94.64637,212.22196)"/>
<path transform="matrix(1.00005,0,0,-1.00005,105.793628,60.596376)" stroke-width="1.19553" stroke-linecap="butt" stroke-miterlimit="10" stroke-linejoin="miter" fill="none" stroke="#00aeef" d="M-99.2134-99.21555V0"/>
<path transform="matrix(1.00005,0,0,-1.00005,105.793628,60.596376)" stroke-width="1.19553" stroke-linecap="butt" stroke-miterlimit="10" stroke-linejoin="miter" fill="none" stroke="#00aeef" d="M-99.2134-148.82334H99.2134"/>
<path transform="matrix(1.00005,0,0,-1.00005,105.793628,60.596376)" stroke-width="1.19553" stroke-linecap="butt" stroke-miterlimit="10" stroke-linejoin="miter" fill="none" stroke="#ff0000" d="M-41.44609-146.99127C-40.78148-143.88666-40.78148-143.88666-40.37567-142.03223-39.96986-140.17781-39.31908-137.25193-38.91325-135.45732-38.50746-133.66274-37.85666-130.83281-37.45085-129.098-37.04506-127.36319-36.39427-124.62894-35.98845-122.95395-35.58266-121.27896-34.93185-118.64091-34.52606-117.02577-34.12024-115.41064-33.46945-112.86855-33.06364-111.3132-32.65784-109.75786-32.00705-107.31142-31.60124-105.81589-31.19542-104.32036-30.54465-101.97017-30.13882-100.53445-29.73303-99.09877-29.08224-96.8442-28.67642-95.4683-28.27063-94.09244-27.61983-91.93411-27.21402-90.61806-26.80823-89.30199-26.15742-87.23935-25.75163-85.98306-25.34581-84.72679-24.695-82.76009-24.28922-81.56367-23.8834-80.36726-23.23264-78.49673-22.82681-77.36015-22.421-76.22356-21.77022-74.44872-21.36441-73.3719-20.95859-72.2951-20.30782-70.61623-19.902-69.59924-19.4962-68.58226-18.8454-66.99933-18.43959-66.04216-18.03378-65.08499-17.383-63.598-16.9772-62.70065-16.5714-61.80331-15.9206-60.41226-15.5148-59.57474-15.10898-58.73721-14.45819-57.4421-14.05238-56.6644-13.64658-55.8867-12.99579-54.68752-12.58998-53.96965-12.18416-53.25179-11.53339-52.14856-11.12758-51.49046-10.72177-50.83237-10.07098-49.82483-9.66516-49.22655-9.25937-48.6283-8.60857-47.71695-8.20277-47.17854-7.79695-46.64015-7.14616-45.82472-6.74036-45.34612-6.33455-44.8675-5.68376-44.14775-5.27797-43.72896-4.87215-43.31015-4.22136-42.68666-3.81555-42.32768-3.40974-41.9687-2.75896-41.44083-2.35315-41.14168-1.94734-40.84253-1.29655-40.41089-.89073-40.17157-.48494-39.93225 .16582-39.59628 .57162-39.41673 .97742-39.23718 1.62822-38.99721 2.03401-38.87747 2.43983-38.75775 3.09064-38.61368 3.49643-38.5538 3.90224-38.49394 4.55302-38.44606 4.95883-38.44601 5.36465-38.44598 6.01543-38.49376 6.42123-38.5535 6.82704-38.61324 7.47783-38.757 7.88365-38.87657 8.28944-38.99612 8.94025-39.23587 9.34605-39.4152 9.75186-39.59456 10.40265-39.92998 10.80846-40.16916 11.21426-40.40831 11.86505-40.83992 12.27084-41.13895 12.67667-41.43799 13.32744-41.9655 13.73326-42.32436 14.13907-42.6832 14.78986-43.30664 15.19566-43.72533 15.60149-44.14398 16.25226-44.86342 16.65808-45.34187 17.06387-45.82033 17.71466-46.63542 18.12048-47.17369 18.52628-47.71198 19.17708-48.62332 19.58287-49.22142 19.98868-49.8195 20.63948-50.82648 21.04529-51.4844 21.4511-52.14232 22.10188-53.24553 22.50769-53.96327 22.9135-54.68102 23.56427-55.87991 23.9701-56.65742 24.3759-57.43497 25.02669-58.72978 25.4325-59.56717 25.8383-60.40457 26.48909-61.79558 26.89491-62.69278 27.3007-63.59001 27.9515-65.07668 28.3573-66.03368 28.76312-66.99068 29.41391-68.57333 29.8197-69.59015 30.22551-70.60698 30.87631-72.28558 31.28212-73.36221 31.68793-74.43886 32.33871-76.2134 32.74452-77.34985 33.15033-78.48631 33.80112-80.35678 34.20692-81.55307 34.61273-82.74936 35.26352-84.71576 35.66933-85.97186 36.07513-87.22797 36.72592-89.29031 37.13173-90.60625 37.53754-91.92218 38.18834-94.08049 38.59413-95.4562 38.99995-96.83191 39.65074-99.0859 40.05655-100.52145 40.46236-101.95699 41.11313-104.30716 41.51894-105.80257 41.92476-107.29797 42.57555-109.7441 42.98135-111.29927 43.38715-112.85445 44.03795-115.39626 44.44376-117.01125 44.84956-118.62627 45.50037-121.26428 45.90617-122.9391 46.31197-124.61394 46.96275-127.34761 47.36856-129.08226 47.77437-130.81691 48.42517-133.6468 48.83096-135.44127 49.23679-137.23575 49.88756-140.16133 50.29338-142.01558 50.69919-143.86983 51.75578-148.80547 51.36377-146.97405"/>
<path transform="matrix(-.20930046,.9778788,.9778788,.20930046,64.345478,207.59497)" d="M1.27522 0C-.31879 .31879-1.91284 .9564-3.8257 2.07224-1.91284 .6376-1.91284-.6376-3.8257-2.07224-1.91284-.9564-.31879-.31879 1.27522 0Z" fill="#ff0000"/>
<path transform="matrix(-.20930046,.9778788,.9778788,.20930046,64.345478,207.59497)" stroke-width="1.19553" stroke-linecap="butt" stroke-linejoin="round" fill="none" stroke="#ff0000" d="M1.27522 0C-.31879 .31879-1.91284 .9564-3.8257 2.07224-1.91284 .6376-1.91284-.6376-3.8257-2.07224-1.91284-.9564-.31879-.31879 1.27522 0Z"/>
<path transform="matrix(.20931046,.97785887,.97785887,-.20931046,157.15995,207.57776)" d="M1.27522 0C-.31879 .31879-1.91284 .9564-3.8257 2.07224-1.91284 .6376-1.91284-.6376-3.8257-2.07224-1.91284-.9564-.31879-.31879 1.27522 0Z" fill="#ff0000"/>
<path transform="matrix(.20931046,.97785887,.97785887,-.20931046,157.15995,207.57776)" stroke-width="1.19553" stroke-linecap="butt" stroke-linejoin="round" fill="none" stroke="#ff0000" d="M1.27522 0C-.31879 .31879-1.91284 .9564-3.8257 2.07224-1.91284 .6376-1.91284-.6376-3.8257-2.07224-1.91284-.9564-.31879-.31879 1.27522 0Z"/>
<path transform="matrix(1.00005,0,0,-1.00005,105.793628,60.596376)" d="M6.94502-38.44601C6.94502-37.35011 6.05658-36.46175 4.96065-36.46175 3.8647-36.46175 2.97627-37.35011 2.97627-38.44601 2.97627-39.5419 3.8647-40.43028 4.96065-40.43028 6.05658-40.43028 6.94502-39.5419 6.94502-38.44601ZM4.96065-38.44601" fill="#0000ff"/>
<path transform="matrix(1.00005,0,0,-1.00005,105.793628,60.596376)" stroke-width=".3985" stroke-linecap="butt" stroke-miterlimit="10" stroke-linejoin="miter" fill="none" stroke="#0000ff" d="M6.94502-38.44601C6.94502-37.35011 6.05658-36.46175 4.96065-36.46175 3.8647-36.46175 2.97627-37.35011 2.97627-38.44601 2.97627-39.5419 3.8647-40.43028 4.96065-40.43028 6.05658-40.43028 6.94502-39.5419 6.94502-38.44601ZM4.96065-38.44601"/>
<path transform="matrix(1.00005,0,0,-1.00005,105.793628,60.596376)" d="M1.98438-39.68622C1.98438-38.59032 1.09593-37.70195 0-37.70195-1.09593-37.70195-1.98438-38.59032-1.98438-39.68622-1.98438-40.7821-1.09593-41.67049 0-41.67049 1.09593-41.67049 1.98438-40.7821 1.98438-39.68622ZM0-39.68622"/>
<path transform="matrix(1.00005,0,0,-1.00005,105.793628,60.596376)" stroke-width=".3985" stroke-linecap="butt" stroke-miterlimit="10" stroke-linejoin="miter" fill="none" stroke="#000000" d="M1.98438-39.68622C1.98438-38.59032 1.09593-37.70195 0-37.70195-1.09593-37.70195-1.98438-38.59032-1.98438-39.68622-1.98438-40.7821-1.09593-41.67049 0-41.67049 1.09593-41.67049 1.98438-40.7821 1.98438-39.68622ZM0-39.68622"/>
</svg>
