<svg xmlns="http://www.w3.org/2000/svg" xmlns:xlink="http://www.w3.org/1999/xlink" version="1.1" width="195" height="189" viewBox="0 0 195 189">
<defs>
<path id="font_1_1" d="M.33399964 .30233766C.33999635 .32835389 .36299134 .42037965 .43299867 .42037965 .43798829 .42037965 .46199037 .42037965 .48298646 .40734864 .45498658 .402359 .43499757 .37734986 .43499757 .35334779 .43499757 .33735658 .44599916 .31835938 .47299195 .31835938 .49499513 .31835938 .5269928 .3363495 .5269928 .37635804 .5269928 .42837525 .46798707 .4423828 .43399049 .4423828 .37599183 .4423828 .34098817 .38935853 .32899476 .36634828 .3039856 .43237306 .25 .4423828 .22099304 .4423828 .116989139 .4423828 .05999756 .3133545 .05999756 .28834535 .05999756 .27833558 .069992069 .27833558 .07199097 .27833558 .07998657 .27833558 .08299255 .28033448 .084991458 .28933717 .11898804 .39535523 .18499756 .42037965 .21899414 .42037965 .23799134 .42037965 .272995 .4113617 .272995 .35334779 .272995 .32235719 .2559967 .25532533 .21899414 .11528015 .20298767 .053268434 .16799927 .011245728 .12399292 .011245728 .117996219 .011245728 .09498596 .011245728 .07398987 .024276734 .09899902 .029266358 .12098694 .05027771 .12098694 .07827759 .12098694 .105270389 .09899902 .11328125 .083999637 .11328125 .053985597 .11328125 .0289917 .08728027 .0289917 .055267335 .0289917 .009246826 .07899475-.0107421879 .12298584-.0107421879 .18899536-.0107421879 .22499085 .059280397 .22799683 .0652771 .23999024 .028274537 .27598573-.0107421879 .33599855-.0107421879 .43899537-.0107421879 .49598695 .118270877 .49598695 .14328003 .49598695 .1532898 .4869995 .1532898 .48399354 .1532898 .47499085 .1532898 .47299195 .14929199 .47099305 .14228821 .43798829 .03527832 .36999513 .011245728 .33799745 .011245728 .29899598 .011245728 .2829895 .043273927 .2829895 .07727051 .2829895 .09927368 .2889862 .121276859 .2999878 .16529846L.33399964 .30233766Z"/>
<path id="font_1_2" d="M.48599244 .38136292C.48999024 .39537049 .48999024 .39736939 .48999024 .40437318 .48999024 .42237855 .47599793 .43138124 .46099855 .43138124 .45098878 .43138124 .43499757 .42536927 .42599488 .41036988 .42399598 .405365 .41600038 .37435914 .4119873 .35635377 .40499879 .33035279 .397995 .30334474 .3919983 .27633668L.34700013 .09628296C.34298707 .08126831 .2999878 .011245728 .23399353 .011245728 .18299866 .011245728 .17199707 .055267335 .17199707 .0922699 .17199707 .1382904 .18899536 .20030213 .22299195 .28833009 .23899842 .3293457 .24299622 .3403473 .24299622 .36035157 .24299622 .405365 .21099854 .4423828 .16099549 .4423828 .06599426 .4423828 .0289917 .29733277 .0289917 .28833009 .0289917 .27833558 .038986207 .27833558 .040985109 .27833558 .050994874 .27833558 .051986696 .28033448 .056991579 .29634095 .083999637 .3903656 .12399292 .42037965 .1579895 .42037965 .1659851 .42037965 .18299866 .42037965 .18299866 .3883667 .18299866 .36335755 .17298889 .3373413 .1659851 .31834413 .12599182 .21231079 .10798645 .1552887 .10798645 .10827637 .10798645 .019256592 .17098999-.0107421879 .22999573-.0107421879 .2689972-.0107421879 .30299378 .0062561037 .33099366 .03425598 .31799317-.017745972 .30599977-.06674194 .2659912-.11973572 .23999024-.15385437 .20199585-.18309021 .1559906-.18309021 .14199829-.18309021 .09700012-.18005371 .07998657-.14074707 .09599304-.14074707 .10899353-.14074707 .12298584-.1287384 .1329956-.11973572 .14299011-.10673523 .14299011-.08773804 .14299011-.056747438 .115997318-.052734376 .10598755-.052734376 .08299255-.052734376 .049987794-.068740848 .049987794-.11773682 .049987794-.16796875 .09399414-.20507813 .1559906-.20507813 .25898744-.20507813 .3619995-.11373901 .3899994-.00074768069L.48599244 .38136292Z"/>
</defs>
<path transform="matrix(1.00002,0,0,-1,86.65343,102.009)" stroke-width=".3985" stroke-linecap="butt" stroke-miterlimit="10" stroke-linejoin="miter" fill="none" stroke="#cbcbcb" d="M-85.04042-85.04128H85.04042M-85.04042-76.53716H85.04042M-85.04042-68.03302H85.04042M-85.04042-59.52888H85.04042M-85.04042-51.02477H85.04042M-85.04042-42.52063H85.04042M-85.04042-34.0165H85.04042M-85.04042-25.51237H85.04042M-85.04042-17.00824H85.04042M-85.04042-8.50412H85.04042M-85.04042 0H85.04042M-85.04042 8.50412H85.04042M-85.04042 17.00824H85.04042M-85.04042 25.51237H85.04042M-85.04042 34.0165H85.04042M-85.04042 42.52063H85.04042M-85.04042 51.02477H85.04042M-85.04042 59.52888H85.04042M-85.04042 68.03302H85.04042M-85.04042 76.53716H85.04042M-85.04042 85.0383H85.04042M-85.04042-85.04128V85.04128M-63.7803-85.04128V85.04128M-42.5202-85.04128V85.04128M-21.2601-85.04128V85.04128M0-85.04128V85.04128M21.2601-85.04128V85.04128M42.5202-85.04128V85.04128M63.7803-85.04128V85.04128M85.03294-85.04128V85.04128M85.04042 85.04128"/>
<path transform="matrix(1.00002,0,0,-1,86.65343,102.009)" stroke-width=".79701" stroke-linecap="butt" stroke-miterlimit="10" stroke-linejoin="miter" fill="none" stroke="#000000" d="M-85.04042 0H96.36198"/>
<path transform="matrix(1.00002,0,0,-1,183.01734,102.009)" d="M1.0361 0C-.25902 .25902-1.55415 .77707-3.1083 1.68365-1.55415 .51805-1.55415-.51805-3.1083-1.68365-1.55415-.77707-.25902-.25902 1.0361 0Z"/>
<path transform="matrix(1.00002,0,0,-1,183.01734,102.009)" stroke-width=".79701" stroke-linecap="butt" stroke-linejoin="round" fill="none" stroke="#000000" d="M1.0361 0C-.25902 .25902-1.55415 .77707-3.1083 1.68365-1.55415 .51805-1.55415-.51805-3.1083-1.68365-1.55415-.77707-.25902-.25902 1.0361 0Z"/>
<use data-text="x" xlink:href="#font_1_1" transform="matrix(9.962799,0,0,-9.9626,188.17145,104.15401)"/>
<path transform="matrix(1.00002,0,0,-1,86.65343,102.009)" stroke-width=".79701" stroke-linecap="butt" stroke-miterlimit="10" stroke-linejoin="miter" fill="none" stroke="#000000" d="M0-85.04128V88.7092"/>
<path transform="matrix(0,-1,-1.00002,-0,86.65343,13.299805)" d="M1.0361 0C-.25902 .25902-1.55415 .77707-3.1083 1.68365-1.55415 .51805-1.55415-.51805-3.1083-1.68365-1.55415-.77707-.25902-.25902 1.0361 0Z"/>
<path transform="matrix(0,-1,-1.00002,-0,86.65343,13.299805)" stroke-width=".79701" stroke-linecap="butt" stroke-linejoin="round" fill="none" stroke="#000000" d="M1.0361 0C-.25902 .25902-1.55415 .77707-3.1083 1.68365-1.55415 .51805-1.55415-.51805-3.1083-1.68365-1.55415-.77707-.25902-.25902 1.0361 0Z"/>
<use data-text="y" xlink:href="#font_1_2" transform="matrix(9.962799,0,0,-9.9626,84.03237,6.2089998)"/>
<path transform="matrix(1.00002,0,0,-1,86.65343,102.009)" stroke-width="1.19553" stroke-linecap="butt" stroke-miterlimit="10" stroke-linejoin="miter" fill="none" stroke="#ff0000" d="M-42.51791 85.03038C-42.51791 85.03038-41.48851 80.19186-41.09314 78.41858-40.69777 76.6453-40.06372 73.90228-39.66835 72.24979-39.273 70.59729-38.63895 68.04453-38.24358 66.50858-37.84822 64.97263-37.21417 62.6034-36.8188 61.17973-36.42345 59.75606-35.78938 57.56342-35.39403 56.24771-34.99866 54.932-34.36461 52.90901-33.96925 51.69705-33.57388 50.48509-32.93983 48.6252-32.54446 47.51273-32.1491 46.40027-31.51506 44.69644-31.11969 43.67915-30.72432 42.66188-30.09027 41.10718-29.6949 40.18088-29.29953 39.25458-28.6655 37.84258-28.27013 37.00299-27.87476 36.16339-27.2407 34.88686-26.84534 34.12965-26.44998 33.37244-25.81593 32.22458-25.42056 31.54556-25.0252 30.86653-24.39114 29.84076-23.99579 29.23564-23.6004 28.63055-22.96637 27.71985-22.57101 27.18437-22.17563 26.64888-21.5416 25.84634-21.14624 25.37625-20.75085 24.90616-20.11682 24.2052-19.72144 23.79626-19.32607 23.38731-18.69205 22.78093-18.29666 22.42882-17.90129 22.07672-17.26726 21.55801-16.87187 21.25848-16.4765 20.95897-15.84247 20.52127-15.4471 20.27008-15.05173 20.01892-14.41768 19.65527-14.02231 19.44817-13.62695 19.24106-12.9929 18.94472-12.59753 18.77744-12.20218 18.61014-11.56812 18.37416-11.17276 18.24242-10.77739 18.11067-10.14334 17.92827-9.74799 17.82782-9.35262 17.72739-8.71857 17.59189-8.32321 17.51846-7.92784 17.44505-7.2938 17.3493-6.89842 17.29866-6.50305 17.24799-5.86902 17.18547-5.47365 17.1533-5.07828 17.12115-4.44423 17.08481-4.04886 17.0669-3.65349 17.04898-3.01945 17.03214-2.62408 17.0242-2.22871 17.01627-1.59467 17.01187-1.1993 17.00967-.80394 17.00745-.1699 17.00899 .22543 17.00824 .6208 17.0075 1.25485 17.0079 1.65022 17.00435 2.04561 17.0008 2.67963 16.9932 3.075 16.98254 3.47038 16.97191 4.10442 16.94962 4.49979 16.92766 4.89516 16.90569 5.52919 16.8618 5.92458 16.82423 6.31993 16.78668 6.95396 16.71437 7.34935 16.65697 7.7447 16.59958 8.37875 16.49205 8.77412 16.41055 9.1695 16.32904 9.80353 16.17943 10.1989 16.06953 10.59427 15.95964 11.22832 15.76102 11.62369 15.61848 12.01906 15.47594 12.65309 15.22165 13.04846 15.0422 13.44383 14.86278 14.07788 14.54585 14.47325 14.32527 14.86862 14.10468 15.50266 13.71837 15.89803 13.45236 16.2934 13.18634 16.92744 12.72372 17.32281 12.40804 17.71817 12.09232 18.35222 11.54662 18.74759 11.17696 19.14294 10.80733 19.777 10.1717 20.17236 9.74387 20.56772 9.31601 21.20178 8.5836 21.59714 8.09328 21.99251 7.60295 22.62656 6.76695 23.02191 6.20992 23.41728 5.65286 24.05133 4.70647 24.4467 4.07843 24.84207 3.45038 25.4761 2.38667 25.87148 1.6834 26.26685 .9801 26.9009-.20753 27.29626-.99033 27.69164-1.77313 28.32567-3.0919 28.72104-3.95853 29.11642-4.82515 29.75046-6.28171 30.14583-7.23633 30.5412-8.19095 31.17523-9.79187 31.5706-10.8388 31.96597-11.88574 32.6-13.63837 32.99539-14.7819 33.39075-15.92543 34.0248-17.83626 34.42017-19.08055 34.81554-20.32484 35.44957-22.40051 35.84494-23.74994 36.24031-25.09933 36.87436-27.34735 37.26973-28.80614 37.6651-30.26491 38.29913-32.6915 38.6945-34.26382 39.08987-35.83617 39.72392-38.4482 40.1193-40.13844 40.51466-41.82869 41.1487-44.63354 41.54407-46.44595 41.93944-48.25835 42.57349-51.26227 42.96886-53.201 43.36421-55.13974 43.99826-58.34964 44.39363-60.41905 44.78899-62.48848 45.42305-65.91158 45.8184-68.11594 46.21378-70.3203 46.84782-73.96303 47.24318-76.30656 47.63855-78.65009 48.66795-85.0065 48.66795-85.0065"/>
</svg>
