<svg xmlns="http://www.w3.org/2000/svg" xmlns:xlink="http://www.w3.org/1999/xlink" version="1.1" width="226" height="195" viewBox="0 0 226 195">
<defs>
<path id="font_1_4" d="M.33399964 .30233766C.33999635 .32835389 .36299134 .42037965 .43299867 .42037965 .43798829 .42037965 .46199037 .42037965 .48298646 .40734864 .45498658 .402359 .43499757 .37734986 .43499757 .35334779 .43499757 .33735658 .44599916 .31835938 .47299195 .31835938 .49499513 .31835938 .5269928 .3363495 .5269928 .37635804 .5269928 .42837525 .46798707 .4423828 .43399049 .4423828 .37599183 .4423828 .34098817 .38935853 .32899476 .36634828 .3039856 .43237306 .25 .4423828 .22099304 .4423828 .116989139 .4423828 .05999756 .3133545 .05999756 .28834535 .05999756 .27833558 .069992069 .27833558 .07199097 .27833558 .07998657 .27833558 .08299255 .28033448 .084991458 .28933717 .11898804 .39535523 .18499756 .42037965 .21899414 .42037965 .23799134 .42037965 .272995 .4113617 .272995 .35334779 .272995 .32235719 .2559967 .25532533 .21899414 .11528015 .20298767 .053268434 .16799927 .011245728 .12399292 .011245728 .117996219 .011245728 .09498596 .011245728 .07398987 .024276734 .09899902 .029266358 .12098694 .05027771 .12098694 .07827759 .12098694 .105270389 .09899902 .11328125 .083999637 .11328125 .053985597 .11328125 .0289917 .08728027 .0289917 .055267335 .0289917 .009246826 .07899475-.0107421879 .12298584-.0107421879 .18899536-.0107421879 .22499085 .059280397 .22799683 .0652771 .23999024 .028274537 .27598573-.0107421879 .33599855-.0107421879 .43899537-.0107421879 .49598695 .118270877 .49598695 .14328003 .49598695 .1532898 .4869995 .1532898 .48399354 .1532898 .47499085 .1532898 .47299195 .14929199 .47099305 .14228821 .43798829 .03527832 .36999513 .011245728 .33799745 .011245728 .29899598 .011245728 .2829895 .043273927 .2829895 .07727051 .2829895 .09927368 .2889862 .121276859 .2999878 .16529846L.33399964 .30233766Z"/>
<path id="font_1_5" d="M.48599244 .38136292C.48999024 .39537049 .48999024 .39736939 .48999024 .40437318 .48999024 .42237855 .47599793 .43138124 .46099855 .43138124 .45098878 .43138124 .43499757 .42536927 .42599488 .41036988 .42399598 .405365 .41600038 .37435914 .4119873 .35635377 .40499879 .33035279 .397995 .30334474 .3919983 .27633668L.34700013 .09628296C.34298707 .08126831 .2999878 .011245728 .23399353 .011245728 .18299866 .011245728 .17199707 .055267335 .17199707 .0922699 .17199707 .1382904 .18899536 .20030213 .22299195 .28833009 .23899842 .3293457 .24299622 .3403473 .24299622 .36035157 .24299622 .405365 .21099854 .4423828 .16099549 .4423828 .06599426 .4423828 .0289917 .29733277 .0289917 .28833009 .0289917 .27833558 .038986207 .27833558 .040985109 .27833558 .050994874 .27833558 .051986696 .28033448 .056991579 .29634095 .083999637 .3903656 .12399292 .42037965 .1579895 .42037965 .1659851 .42037965 .18299866 .42037965 .18299866 .3883667 .18299866 .36335755 .17298889 .3373413 .1659851 .31834413 .12599182 .21231079 .10798645 .1552887 .10798645 .10827637 .10798645 .019256592 .17098999-.0107421879 .22999573-.0107421879 .2689972-.0107421879 .30299378 .0062561037 .33099366 .03425598 .31799317-.017745972 .30599977-.06674194 .2659912-.11973572 .23999024-.15385437 .20199585-.18309021 .1559906-.18309021 .14199829-.18309021 .09700012-.18005371 .07998657-.14074707 .09599304-.14074707 .10899353-.14074707 .12298584-.1287384 .1329956-.11973572 .14299011-.10673523 .14299011-.08773804 .14299011-.056747438 .115997318-.052734376 .10598755-.052734376 .08299255-.052734376 .049987794-.068740848 .049987794-.11773682 .049987794-.16796875 .09399414-.20507813 .1559906-.20507813 .25898744-.20507813 .3619995-.11373901 .3899994-.00074768069L.48599244 .38136292Z"/>
<path id="font_2_1" d="M.6589966 .23046875C.6759949 .23046875 .69400027 .23046875 .69400027 .25045777 .69400027 .27046205 .6759949 .27046205 .6589966 .27046205H.117996219C.100997928 .27046205 .08299255 .27046205 .08299255 .25045777 .08299255 .23046875 .100997928 .23046875 .117996219 .23046875H.6589966Z"/>
<path id="font_3_7" d="M.44898988 .20022583C.44898988 .3193512 .36698915 .41944886 .25898744 .41944886 .21099854 .41944886 .16799927 .40345765 .13198853 .36842347V.5637665C.1519928 .5577698 .18499756 .55078127 .21699524 .55078127 .33999635 .55078127 .4099884 .6417694 .4099884 .6547699 .4099884 .6607666 .40699769 .6657715 .3999939 .6657715 .39898683 .6657715 .39698792 .6657715 .3919983 .66278079 .37199403 .6537781 .32299806 .6337738 .2559967 .6337738 .21598816 .6337738 .16999817 .6407776 .12298584 .6617737 .114990238 .66477969 .11299133 .66477969 .11099243 .66477969 .100997928 .66477969 .100997928 .6567688 .100997928 .6407776V.34439088C.100997928 .32637025 .100997928 .31835938 .114990238 .31835938 .12199402 .31835938 .12399292 .32136537 .12799073 .32736207 .13899231 .3433838 .17599488 .39746095 .25698854 .39746095 .30899049 .39746095 .33399964 .35139466 .34199525 .33337403 .35798646 .29632569 .3600006 .25727845 .3600006 .20722962 .3600006 .17222595 .3600006 .11222839 .33599855 .07035828 .31199647 .031463624 .2749939 .0055389406 .22898865 .0055389406 .1559906 .0055389406 .09899902 .058380128 .08198547 .11723328 .084991458 .1162262 .08799744 .115234378 .09899902 .115234378 .13198853 .115234378 .14898682 .14022827 .14898682 .16423035 .14898682 .18823242 .13198853 .21322632 .09899902 .21322632 .084991458 .21322632 .049987794 .20622254 .049987794 .16023255 .049987794 .07434082 .11898804-.022460938 .23098755-.022460938 .34700013-.022460938 .44898988 .073349 .44898988 .20022583Z"/>
<path id="font_3_1" d="M.33099366-.2400055C.33099366-.23701477 .33099366-.23500061 .31399537-.21800232 .18899536-.0920105 .15699768 .09700012 .15699768 .25 .15699768 .42399598 .19499207 .59799197 .31799317 .72299197 .33099366 .73498538 .33099366 .7369995 .33099366 .73999026 .33099366 .746994 .32699586 .75 .32099916 .75 .31098939 .75 .22099304 .6819916 .1619873 .5549927 .11099243 .44499208 .09899902 .33399964 .09899902 .25 .09899902 .17199707 .10998535 .050994874 .16499329-.06201172 .22499085-.18501282 .31098939-.25 .32099916-.25 .32699586-.25 .33099366-.24700928 .33099366-.2400055Z"/>
<path id="font_3_6" d="M.2899933 .35191346C.37199403 .37893678 .42999269 .4490509 .42999269 .52809146 .42999269 .6100464 .34199525 .6660156 .24598694 .6660156 .14498902 .6660156 .068984989 .60606387 .068984989 .53009036 .068984989 .49710084 .09098816 .47808839 .11999512 .47808839 .15098572 .47808839 .17098999 .50009158 .17098999 .5290985 .17098999 .57910159 .12399292 .57910159 .10899353 .57910159 .13999939 .62802127 .20599365 .64100649 .24198914 .64100649 .2829895 .64100649 .33799745 .6190338 .33799745 .5290985 .33799745 .51708987 .33599855 .45906068 .30999757 .4149933 .27999879 .36691285 .24598694 .36390687 .22099304 .36291505 .21299744 .36190797 .18899536 .35990907 .18199158 .35990907 .17399597 .35890199 .16699219 .35791017 .16699219 .3479004 .16699219 .33691407 .17399597 .33691407 .19099427 .33691407H.23498535C.31698609 .33691407 .35398866 .2686615 .35398866 .17037964 .35398866 .034469606 .2849884 .0055389406 .24099732 .0055389406 .19799805 .0055389406 .12298584 .022491456 .08799744 .08137512 .12298584 .07637024 .1539917 .09837341 .1539917 .1363678 .1539917 .17237854 .1269989 .19238281 .09799194 .19238281 .07398987 .19238281 .041992189 .17837525 .041992189 .1343689 .041992189 .043441774 .1349945-.022460938 .24398804-.022460938 .3659973-.022460938 .45700074 .06838989 .45700074 .17037964 .45700074 .252594 .3939972 .33088685 .2899933 .35191346Z"/>
<path id="font_1_1" d="M.20298767 .0009918213C.20298767 .066986087 .17799378 .10598755 .13899231 .10598755 .10598755 .10598755 .085998538 .08099365 .085998538 .052993776 .085998538 .025985718 .10598755 0 .13899231 0 .15098572 0 .1639862 .0039978029 .17399597 .0129852299 .1769867 .01499939 .17799378 .015991211 .1789856 .015991211 .17999268 .015991211 .18099976 .01499939 .18099976 .0009918213 .18099976-.07316589 .1459961-.13328552 .11299133-.16635132 .101989749-.17736817 .101989749-.17936707 .101989749-.18237305 .101989749-.18936157 .10699463-.19335938 .11199951-.19335938 .12298584-.19335938 .20298767-.116256717 .20298767 .0009918213Z"/>
<path id="font_3_5" d="M.1269989 .07699585 .23298645 .18003845C.3889923 .31811524 .44898988 .3721466 .44898988 .47216798 .44898988 .5860901 .35899354 .6660156 .23699951 .6660156 .12399292 .6660156 .049987794 .57411196 .049987794 .48516847 .049987794 .4291687 .099990848 .4291687 .102996829 .4291687 .11999512 .4291687 .15499878 .44117738 .15499878 .48217774 .15499878 .5081787 .13699341 .5341797 .101989749 .5341797 .09399414 .5341797 .09199524 .5341797 .08898926 .5331726 .11199951 .59806826 .1659851 .63500979 .22399903 .63500979 .31498719 .63500979 .35798646 .5541382 .35798646 .47216798 .35798646 .39215089 .30799867 .31311036 .25299073 .25108338L.06098938 .036987306C.049987794 .025985718 .049987794 .023986817 .049987794 0H.42099L.44898988 .17404175H.42399598C.4189911 .14402771 .4119873 .1000061 .4019928 .084991458 .394989 .07699585 .32899476 .07699585 .30699159 .07699585H.1269989Z"/>
<path id="font_3_2" d="M.2889862 .25C.2889862 .32798768 .27799989 .44898988 .22299195 .56199648 .16299439 .68499758 .07699585 .75 .066986087 .75 .06098938 .75 .056991579 .74598696 .056991579 .73999026 .056991579 .7369995 .056991579 .73498538 .07598877 .71699526 .17399597 .6179962 .23098755 .45899964 .23098755 .25 .23098755 .07899475 .19400025-.09700012 .069992069-.2230072 .056991579-.23500061 .056991579-.23701477 .056991579-.2400055 .056991579-.2460022 .06098938-.25 .066986087-.25 .07699585-.25 .16699219-.18200684 .22599793-.055007936 .2769928 .054992677 .2889862 .16600037 .2889862 .25Z"/>
<path id="font_1_3" d="M.23899842 .68333438C.23899842 .6843262 .23899842 .69433596 .22599793 .69433596 .20298767 .69433596 .12998963 .6863251 .10398865 .6843262 .09599304 .68333438 .084991458 .6823273 .084991458 .6643219 .084991458 .6523285 .09399414 .6523285 .10899353 .6523285 .15699768 .6523285 .15899658 .6453247 .15899658 .6353302 .15899658 .6283264 .1499939 .5943451 .14498902 .573349L.06298828 .24731446C.050994874 .1973114 .04699707 .18130493 .04699707 .14628601 .04699707 .05126953 .099990848-.0107421879 .17399597-.0107421879 .2919922-.0107421879 .4149933 .1382904 .4149933 .28233338 .4149933 .37335206 .3619995 .4423828 .28199769 .4423828 .23599243 .4423828 .19499207 .41337586 .16499329 .38235475L.23899842 .68333438M.14498902 .30534364C.15098572 .3273468 .15098572 .3293457 .1599884 .3403473 .20899964 .405365 .2539978 .42037965 .27999879 .42037965 .31599427 .42037965 .34298707 .3903656 .34298707 .32633973 .34298707 .26733399 .30999757 .15229798 .2919922 .11428833 .25898744 .04725647 .21299744 .011245728 .17399597 .011245728 .13999939 .011245728 .10699463 .038253786 .10699463 .11227417 .10699463 .13128662 .10699463 .15029907 .12298584 .21331787L.14498902 .30534364Z"/>
<path id="font_3_9" d="M.68699648 .32714845C.70199587 .32714845 .72099307 .32714845 .72099307 .34713746 .72099307 .36714173 .70199587 .36714173 .6879883 .36714173H.08898926C.07499695 .36714173 .055999757 .36714173 .055999757 .34713746 .055999757 .32714845 .07499695 .32714845 .08999634 .32714845H.68699648M.6879883 .13284302C.70199587 .13284302 .72099307 .13284302 .72099307 .15284729 .72099307 .17285156 .70199587 .17285156 .68699648 .17285156H.08999634C.07499695 .17285156 .055999757 .17285156 .055999757 .15284729 .055999757 .13284302 .07499695 .13284302 .08898926 .13284302H.6879883Z"/>
<path id="font_2_2" d="M.3889923-.8549652 .21299744-.4659729C.20599365-.44996644 .20098877-.44996644 .19799805-.44996644 .19699097-.44996644 .19198609-.44996644 .18099976-.45796205L.085998538-.52996829C.07299805-.53996279 .07299805-.54296877 .07299805-.54597476 .07299805-.55096438 .07598877-.55696108 .08299255-.55696108 .08898926-.55696108 .10598755-.54296877 .116989139-.53497317 .12298584-.52996829 .13798523-.5189667 .14898682-.51097109L.34599305-.9439697C.35299684-.95996096 .35798646-.95996096 .36698915-.95996096 .38198854-.95996096 .3849945-.95396426 .3919983-.9399719L.84599307 .000030517579C.8529968 .014038086 .8529968 .018035889 .8529968 .02003479 .8529968 .030029297 .8450012 .040039064 .83299258 .040039064 .82499697 .040039064 .81799319 .03503418 .80999758 .01902771L.3889923-.8549652Z"/>
<path id="font_3_4" d="M.2939911 .64004519C.2939911 .66400149 .2939911 .6660156 .2709961 .6660156 .20899964 .60227969 .12098694 .60227969 .08898926 .60227969V.57128909C.10899353 .57128909 .16799927 .57128909 .21998596 .5972748V.07902527C.21998596 .042999269 .21699524 .0309906 .1269989 .0309906H.09498596V0C.12998963 .0029907227 .21699524 .0029907227 .25698854 .0029907227 .29699708 .0029907227 .38398744 .0029907227 .4189911 0V.0309906H.3869934C.29699708 .0309906 .2939911 .041992189 .2939911 .07902527V.64004519Z"/>
<path id="font_3_3" d="M.45999146 .31976319C.45999146 .39982606 .45498658 .47988893 .41999818 .5539398 .37399293 .65000918 .2919922 .6660156 .25 .6660156 .18998719 .6660156 .116989139 .64001467 .07598877 .54693606 .04399109 .47789 .038986207 .39982606 .038986207 .31976319 .038986207 .24472046 .042999269 .15464783 .083999637 .07859802 .1269989-.0024719239 .19999695-.022460938 .24899292-.022460938 .30299378-.022460938 .3789978-.0014648438 .4229889 .09359741 .45498658 .16265869 .45999146 .2407074 .45999146 .31976319M.24899292-.00047302247C.20999146-.00047302247 .15098572 .024551392 .1329956 .12062073 .12199402 .18066406 .12199402 .2727356 .12199402 .3317871 .12199402 .39582826 .12199402 .46188355 .12998963 .5159149 .14898682 .63500979 .22399903 .64401248 .24899292 .64401248 .28199769 .64401248 .34799195 .6259918 .36698915 .52693179 .3769989 .47088624 .3769989 .39482118 .3769989 .3317871 .3769989 .25672914 .3769989 .18867493 .3659973 .12461853 .35099793 .029556275 .2939911-.00047302247 .24899292-.00047302247Z"/>
<path id="font_1_2" d="M.37298585 .37835694C.35499574 .41537477 .32598878 .4423828 .2809906 .4423828 .1639862 .4423828 .039993287 .29533387 .039993287 .14929199 .039993287 .055267335 .09498596-.0107421879 .17298889-.0107421879 .19299317-.0107421879 .24299622-.0067443849 .30299378 .06427002 .31098939 .022247315 .34599305-.0107421879 .3939972-.0107421879 .42900086-.0107421879 .45199586 .012252808 .46798707 .044265748 .4850006 .08027649 .49798585 .14129639 .49798585 .14329529 .49798585 .1532898 .4889984 .1532898 .48599244 .1532898 .47599793 .1532898 .47499085 .14929199 .47200013 .13528443 .45498658 .07026672 .43699647 .011245728 .3959961 .011245728 .36898805 .011245728 .3659973 .037261964 .3659973 .057266237 .3659973 .07926941 .36799623 .08728027 .3789978 .13128662 .3899994 .17329407 .3919983 .18330384 .40098573 .22131348L.43699647 .36135865C.44400025 .38935853 .44400025 .39135743 .44400025 .39537049 .44400025 .41236878 .43199159 .42237855 .4149933 .42237855 .3909912 .42237855 .37599183 .4003601 .37298585 .37835694M.30799867 .119277957C.30299378 .10127258 .30299378 .09927368 .28799439 .08227539 .24398804 .027252198 .20298767 .011245728 .1749878 .011245728 .125 .011245728 .11099243 .06626892 .11099243 .105285648 .11099243 .1552887 .14299011 .27833558 .1659851 .32434083 .19699097 .38336183 .24198914 .42037965 .28199769 .42037965 .34700013 .42037965 .36099244 .3383484 .36099244 .33235169 .36099244 .32633973 .35899354 .32034303 .35798646 .31533814L.30799867 .119277957Z"/>
<path id="font_3_8" d="M.16299439 .4569702C.116989139 .486969 .11299133 .52098086 .11299133 .5379791 .11299133 .598999 .17799378 .64100649 .24899292 .64100649 .32199098 .64100649 .38598634 .58898928 .38598634 .51698306 .38598634 .45996095 .34700013 .4119568 .2869873 .37695313L.16299439 .4569702M.30899049 .36193849C.3809967 .3989563 .42999269 .45095826 .42999269 .51698306 .42999269 .6090088 .34098817 .6660156 .25 .6660156 .1499939 .6660156 .068984989 .59199526 .068984989 .49897767 .068984989 .4809723 .070999149 .43595887 .11299133 .38894654 .12399292 .37695313 .16099549 .35194398 .18598938 .33494569 .12799073 .30592347 .041992189 .24984741 .041992189 .15072632 .041992189 .04458618 .14399719-.022460938 .24899292-.022460938 .3619995-.022460938 .45700074 .06060791 .45700074 .16773987 .45700074 .20379639 .44599916 .24885559 .4079895 .2909088 .3889923 .31193543 .37298585 .3219452 .30899049 .36193849M.20899964 .3199463 .33198548 .24183655C.3600006 .2228241 .40699769 .19277954 .40699769 .13169861 .40699769 .05760193 .33198548 .0055389406 .25 .0055389406 .1639862 .0055389406 .09199524 .067611698 .09199524 .15072632 .09199524 .20880127 .12399292 .27288819 .20899964 .3199463Z"/>
</defs>
<path transform="matrix(1.00003,0,0,-1.00005,52.63913,73.098)" stroke-width=".3985" stroke-linecap="butt" stroke-miterlimit="10" stroke-linejoin="miter" fill="none" stroke="#00aeef" d="M-51.02477-119.0578H153.07433M-51.02477-102.04953H153.07433M-51.02477-85.04128H153.07433M-51.02477-68.03302H153.07433M-51.02477-51.02477H153.07433M-51.02477-34.0165H153.07433M-51.02477-17.00824H153.07433M-51.02477 0H153.07433M-51.02477 17.00824H153.07433M-51.02477 34.0165H153.07433M-51.02477 51.01878H153.07433M-51.02477-119.0578V51.02477M-34.0165-119.0578V51.02477M-17.00824-119.0578V51.02477M0-119.0578V51.02477M17.00824-119.0578V51.02477M34.0165-119.0578V51.02477M51.02477-119.0578V51.02477M68.03302-119.0578V51.02477M85.04128-119.0578V51.02477M102.04953-119.0578V51.02477M119.0578-119.0578V51.02477M136.06606-119.0578V51.02477M153.06835-119.0578V51.02477M153.07433 51.02477"/>
<path transform="matrix(1.00003,0,0,-1.00005,52.63913,73.098)" stroke-width=".79701" stroke-linecap="butt" stroke-miterlimit="10" stroke-linejoin="miter" fill="none" stroke="#000000" d="M-51.02477 0H161.84476"/>
<path transform="matrix(1.00003,0,0,-1.00005,214.48876,73.098)" d="M1.0361 0C-.25902 .25902-1.55415 .77707-3.1083 1.68365-1.55415 .51805-1.55415-.51805-3.1083-1.68365-1.55415-.77707-.25902-.25902 1.0361 0Z"/>
<path transform="matrix(1.00003,0,0,-1.00005,214.48876,73.098)" stroke-width=".79701" stroke-linecap="butt" stroke-linejoin="round" fill="none" stroke="#000000" d="M1.0361 0C-.25902 .25902-1.55415 .77707-3.1083 1.68365-1.55415 .51805-1.55415-.51805-3.1083-1.68365-1.55415-.77707-.25902-.25902 1.0361 0Z"/>
<use data-text="x" xlink:href="#font_1_4" transform="matrix(9.962899,0,0,-9.963098,219.64215,75.2431)"/>
<path transform="matrix(1.00003,0,0,-1.00005,52.63913,73.098)" stroke-width=".79701" stroke-linecap="butt" stroke-miterlimit="10" stroke-linejoin="miter" fill="none" stroke="#000000" d="M0-119.0578V59.7952"/>
<path transform="matrix(0,-1.00005,-1.00003,-0,52.63913,13.299812)" d="M1.0361 0C-.25902 .25902-1.55415 .77707-3.1083 1.68365-1.55415 .51805-1.55415-.51805-3.1083-1.68365-1.55415-.77707-.25902-.25902 1.0361 0Z"/>
<path transform="matrix(0,-1.00005,-1.00003,-0,52.63913,13.299812)" stroke-width=".79701" stroke-linecap="butt" stroke-linejoin="round" fill="none" stroke="#000000" d="M1.0361 0C-.25902 .25902-1.55415 .77707-3.1083 1.68365-1.55415 .51805-1.55415-.51805-3.1083-1.68365-1.55415-.77707-.25902-.25902 1.0361 0Z"/>
<use data-text="y" xlink:href="#font_1_5" transform="matrix(9.962899,0,0,-9.963098,50.01805,6.2086565)"/>
<path transform="matrix(1.00003,0,0,-1.00005,52.63913,73.098)" stroke-width=".3985" stroke-linecap="butt" stroke-miterlimit="10" stroke-linejoin="miter" fill="none" stroke="#000000" d="M1.70091-85.04128H-1.70065"/>
<path transform="matrix(1.00003,0,0,-1.00005,52.63913,73.098)" d="M-18.61523-89.66289H-3.8924504V-80.419658H-18.61523Z" fill="#ffffff"/>
<use data-text="&#x2212;" xlink:href="#font_2_1" transform="matrix(9.962899,0,0,-9.963098,35.0196,160.93839)"/>
<use data-text="5" xlink:href="#font_3_7" transform="matrix(9.962899,0,0,-9.963098,42.76882,160.93839)"/>
<path transform="matrix(1.00003,0,0,-1.00005,52.63913,73.098)" stroke-width=".3985" stroke-linecap="butt" stroke-miterlimit="10" stroke-linejoin="miter" fill="none" stroke="#000000" d="M85.04128 1.70091V-1.70065"/>
<path transform="matrix(1.00003,0,0,-1.00005,52.63913,73.098)" d="M81.5543-12.30545H88.52824V-3.8924704H81.5543Z" fill="#ffffff"/>
<use data-text="5" xlink:href="#font_3_7" transform="matrix(9.962899,0,0,-9.963098,135.19261,84.40756)"/>
<g>
<path transform="matrix(1.00003,0,0,-1.00005,52.63913,73.098)" d="M2.91835-87.80133V19.7683H99.13116V-87.80133ZM99.13116 19.7683" fill="#42c8f4" fill-opacity=".3"/>
<path transform="matrix(1.00003,0,0,-1.00005,52.63913,73.098)" stroke-width="1.19553" stroke-linecap="butt" stroke-miterlimit="10" stroke-linejoin="miter" fill="none" stroke="#42c8f4" stroke-opacity=".3" d="M2.91835-87.80133V19.7683H99.13116V-87.80133ZM99.13116 19.7683"/>
</g>
<path transform="matrix(1.00003,0,0,-1.00005,52.63913,73.098)" stroke-width=".3985" stroke-linecap="butt" stroke-dasharray="2.98883,2.98883" stroke-miterlimit="10" stroke-linejoin="miter" fill="none" stroke="#929292" d="M-25.51236-119.58931 127.56192 51.55627"/>
<path transform="matrix(1.00003,0,0,-1.00005,52.63913,73.098)" stroke-width=".3985" stroke-linecap="butt" stroke-dasharray="2.98883,2.98883" stroke-miterlimit="10" stroke-linejoin="miter" fill="none" stroke="#929292" d="M-25.51236 51.55627 127.56192-119.58931"/>
<path transform="matrix(1.00003,0,0,-1.00005,52.63913,73.098)" d="M52.72568-34.0165C52.72568-33.07712 51.96416-32.31558 51.02477-32.31558 50.08537-32.31558 49.32385-33.07712 49.32385-34.0165 49.32385-34.95589 50.08537-35.71742 51.02477-35.71742 51.96416-35.71742 52.72568-34.95589 52.72568-34.0165ZM51.02477-34.0165" fill="#929292"/>
<path transform="matrix(1.00003,0,0,-1.00005,52.63913,73.098)" stroke-width=".3985" stroke-linecap="butt" stroke-miterlimit="10" stroke-linejoin="miter" fill="none" stroke="#929292" d="M52.72568-34.0165C52.72568-33.07712 51.96416-32.31558 51.02477-32.31558 50.08537-32.31558 49.32385-33.07712 49.32385-34.0165 49.32385-34.95589 50.08537-35.71742 51.02477-35.71742 51.96416-35.71742 52.72568-34.95589 52.72568-34.0165ZM51.02477-34.0165"/>
<use data-text="(" xlink:href="#font_3_1" transform="matrix(9.962899,0,0,-9.963098,68.263599,109.60683)"/>
<use data-text="3" xlink:href="#font_3_6" transform="matrix(9.962899,0,0,-9.963098,72.12921,109.60683)"/>
<use data-text="," xlink:href="#font_1_1" transform="matrix(9.962899,0,0,-9.963098,77.11986,109.60683)"/>
<use data-text="&#x2212;" xlink:href="#font_2_1" transform="matrix(9.962899,0,0,-9.963098,81.547,109.60683)"/>
<use data-text="2" xlink:href="#font_3_5" transform="matrix(9.962899,0,0,-9.963098,89.29622,109.60683)"/>
<use data-text=")" xlink:href="#font_3_2" transform="matrix(9.962899,0,0,-9.963098,94.277667,109.60683)"/>
<path transform="matrix(1.00003,0,0,-1.00005,52.63913,73.098)" stroke-width="1.19553" stroke-linecap="butt" stroke-miterlimit="10" stroke-linejoin="miter" fill="none" stroke="#ff0000" d="M140.73874-118.6759C139.72374-117.33298 139.72374-117.33298 138.92577-116.26764 138.12778-115.20229 136.87767-113.52333 136.11667-112.4918 135.35565-111.46027 134.1663-109.83209 133.44095-108.83301 132.7156-107.83392 131.5799-106.25923 130.88878-105.291 130.19768-104.32278 129.11782-102.79326 128.45987-101.85463 127.80193-100.91599 126.77237-99.43668 126.14673-98.52596 125.52109-97.61523 124.54459-96.17502 123.95064-95.29073 123.35666-94.40642 122.42957-93.01118 121.86586-92.15253 121.30214-91.29388 120.42204-89.93675 119.88776-89.10207 119.35345-88.2674 118.52028-86.94873 118.01501-86.13675 117.50975-85.32474 116.72363-84.04045 116.24608-83.24977 115.76854-82.45909 115.02365-81.20819 114.5732-80.43806 114.12273-79.66797 113.42293-78.4505 112.99944-77.6993 112.57594-76.94809 111.91852-75.75728 111.52092-75.02385 111.1233-74.29044 110.50618-73.12975 110.13374-72.4133 109.76132-71.69682 109.18437-70.56084 108.83664-69.86008 108.4889-69.15932 107.95087-68.04884 107.6275-67.36267 107.30415-66.6765 106.8054-65.5874 106.5061-64.91455 106.2068-64.2417 105.74678-63.17302 105.47034-62.51317 105.1939-61.85332 104.76733-60.80724 104.51373-60.15875 104.26012-59.51028 103.87338-58.47752 103.64249-57.83939 103.4116-57.20123 103.05843-56.18774 102.84964-55.55943 102.64088-54.93112 102.32475-53.93048 102.13777-53.31091 101.95079-52.69136 101.66776-51.70564 101.50192-51.09404 101.33612-50.48245 101.08716-49.50784 100.94266-48.90288 100.79817-48.2979 100.58379-47.33295 100.46046-46.73376 100.33713-46.1346 100.15616-45.17877 100.05379-44.58437 99.95142-43.98999 99.80421-43.04027 99.72263-42.44977 99.64104-41.85928 99.5269-40.91565 99.4657-40.32843 99.40448-39.74118 99.32237-38.80217 99.28143-38.21744 99.2405-37.6327 99.19145-36.69685 99.17061-36.11398 99.14978-35.53113 99.13116-34.59854 99.13116-34.0165 99.13116-33.43446 99.14978-32.50188 99.17061-31.919 99.19145-31.33614 99.2405-30.4003 99.28143-29.81555 99.32237-29.23083 99.40448-28.29181 99.4657-27.70457 99.5269-27.11734 99.64104-26.17372 99.72263-25.58322 99.80421-24.9927 99.95142-24.04301 100.05379-23.44862 100.15616-22.85423 100.33713-21.8984 100.46046-21.29922 100.58379-20.70006 100.79817-19.73509 100.94266-19.13011 101.08716-18.52513 101.33612-17.55055 101.50192-16.93895 101.66776-16.32735 101.95079-15.34164 102.13777-14.72208 102.32475-14.10252 102.64088-13.10187 102.84964-12.47356 103.05843-11.84523 103.4116-10.83177 103.64249-10.19362 103.87338-9.55547 104.26012-8.52272 104.51373-7.87424 104.76733-7.22577 105.1939-6.17967 105.47034-5.51984 105.74678-4.85997 106.2068-3.79129 106.5061-3.11844 106.8054-2.4456 107.30415-1.3565 107.6275-.67033 107.95087 .01582 108.4889 1.12628 108.83664 1.82704 109.18437 2.5278 109.76132 3.66379 110.13374 4.38025 110.50618 5.09671 111.1233 6.25739 111.52092 6.99081 111.91852 7.72424 112.57594 8.91505 112.99944 9.66626 113.42293 10.41747 114.12273 11.63492 114.5732 12.40503 115.02365 13.17516 115.76854 14.42606 116.24608 15.21674 116.72363 16.00742 117.50975 17.29172 118.01501 18.1037 118.52028 18.9157 119.35345 20.23436 119.88776 21.06903 120.42204 21.90372 121.30214 23.26083 121.86586 24.11949 122.42957 24.97815 123.35666 26.37338 123.95064 27.25769 124.54459 28.14198 125.52109 29.5822 126.14673 30.49292 126.77237 31.40364 127.80193 32.88295 128.45987 33.8216 129.11782 34.76022 130.19768 36.28973 130.88878 37.25798 131.5799 38.2262 132.7156 39.80089 133.44095 40.79997 134.1663 41.79906 135.35565 43.42723 136.11667 44.45876 136.87767 45.4903 138.12778 47.16925 138.92577 48.23459 139.72374 49.29994 141.868 52.13708 140.73874 50.64285"/>
<path transform="matrix(.6029381,.79781988,.79780396,-.6029501,193.3821,191.77982)" d="M1.27522 0C-.31879 .31879-1.91284 .9564-3.8257 2.07224-1.91284 .6376-1.91284-.6376-3.8257-2.07224-1.91284-.9564-.31879-.31879 1.27522 0Z" fill="#ff0000"/>
<path transform="matrix(.6029381,.79781988,.79780396,-.6029501,193.3821,191.77982)" stroke-width="1.19553" stroke-linecap="butt" stroke-linejoin="round" fill="none" stroke="#ff0000" d="M1.27522 0C-.31879 .31879-1.91284 .9564-3.8257 2.07224-1.91284 .6376-1.91284-.6376-3.8257-2.07224-1.91284-.9564-.31879-.31879 1.27522 0Z"/>
<path transform="matrix(.6029381,-.79781988,-.79780396,-.6029501,193.3821,22.45263)" d="M1.27522 0C-.31879 .31879-1.91284 .9564-3.8257 2.07224-1.91284 .6376-1.91284-.6376-3.8257-2.07224-1.91284-.9564-.31879-.31879 1.27522 0Z" fill="#ff0000"/>
<path transform="matrix(.6029381,-.79781988,-.79780396,-.6029501,193.3821,22.45263)" stroke-width="1.19553" stroke-linecap="butt" stroke-linejoin="round" fill="none" stroke="#ff0000" d="M1.27522 0C-.31879 .31879-1.91284 .9564-3.8257 2.07224-1.91284 .6376-1.91284-.6376-3.8257-2.07224-1.91284-.9564-.31879-.31879 1.27522 0Z"/>
<path transform="matrix(1.00003,0,0,-1.00005,52.63913,73.098)" stroke-width="1.19553" stroke-linecap="butt" stroke-miterlimit="10" stroke-linejoin="miter" fill="none" stroke="#ff0000" d="M-38.68918-118.6759C-37.6742-117.33298-37.6742-117.33298-36.8762-116.26764-36.07823-115.20229-34.82813-113.52333-34.06711-112.4918-33.30609-111.46027-32.11676-109.83209-31.39139-108.83301-30.66605-107.83392-29.53033-106.25923-28.83922-105.291-28.14812-104.32278-27.06827-102.79326-26.41032-101.85463-25.75237-100.91599-24.72282-99.43668-24.09718-98.52596-23.47153-97.61523-22.49503-96.17502-21.90108-95.29073-21.30711-94.40642-20.38002-93.01118-19.8163-92.15253-19.25258-91.29388-18.37248-89.93675-17.8382-89.10207-17.30391-88.2674-16.47075-86.94873-15.96545-86.13675-15.46019-85.32474-14.67409-84.04045-14.19655-83.24977-13.719-82.45909-12.9741-81.20819-12.52364-80.43806-12.07318-79.66797-11.37337-78.4505-10.94989-77.6993-10.52638-76.94809-9.86896-75.75728-9.47136-75.02385-9.07375-74.29044-8.45662-73.12975-8.0842-72.4133-7.71176-71.69682-7.13483-70.56084-6.7871-69.86008-6.43936-69.15932-5.9013-68.04884-5.57796-67.36267-5.25461-66.6765-4.75584-65.5874-4.45654-64.91455-4.15724-64.2417-3.69722-63.17302-3.42079-62.51317-3.14433-61.85332-2.71779-60.80724-2.46417-60.15875-2.21056-59.51028-1.82384-58.47752-1.59294-57.83939-1.36206-57.20123-1.00887-56.18774-.8001-55.55943-.59132-54.93112-.27519-53.93048-.08821-53.31091 .09874-52.69136 .38176-51.70564 .54758-51.09404 .7134-50.48245 .96236-49.50784 1.10684-48.90288 1.25136-48.2979 1.46573-47.33295 1.58905-46.73376 1.71239-46.1346 1.89337-45.17877 1.99573-44.58437 2.0981-43.98999 2.2453-43.04027 2.32689-42.44977 2.40848-41.85928 2.52261-40.91565 2.58382-40.32843 2.64503-39.74118 2.72714-38.80217 2.76808-38.21744 2.80902-37.6327 2.85806-36.69685 2.87889-36.11398 2.89973-35.53113 2.91835-34.59854 2.91835-34.0165 2.91835-33.43446 2.89973-32.50188 2.87889-31.919 2.85806-31.33614 2.80902-30.4003 2.76808-29.81555 2.72714-29.23083 2.64503-28.29181 2.58382-27.70457 2.52261-27.11734 2.40848-26.17372 2.32689-25.58322 2.2453-24.9927 2.0981-24.04301 1.99573-23.44862 1.89337-22.85423 1.71239-21.8984 1.58905-21.29922 1.46573-20.70006 1.25136-19.73509 1.10684-19.13011 .96236-18.52513 .7134-17.55055 .54758-16.93895 .38176-16.32735 .09874-15.34164-.08821-14.72208-.27519-14.10252-.59132-13.10187-.8001-12.47356-1.00887-11.84523-1.36206-10.83177-1.59294-10.19362-1.82384-9.55547-2.21056-8.52272-2.46417-7.87424-2.71779-7.22577-3.14433-6.17967-3.42079-5.51984-3.69722-4.85997-4.15724-3.79129-4.45654-3.11844-4.75584-2.4456-5.25461-1.3565-5.57796-.67033-5.9013 .01582-6.43936 1.12628-6.7871 1.82704-7.13483 2.5278-7.71176 3.66379-8.0842 4.38025-8.45662 5.09671-9.07375 6.25739-9.47136 6.99081-9.86896 7.72424-10.52638 8.91505-10.94989 9.66626-11.37337 10.41747-12.07318 11.63492-12.52364 12.40503-12.9741 13.17516-13.719 14.42606-14.19655 15.21674-14.67409 16.00742-15.46019 17.29172-15.96545 18.1037-16.47075 18.9157-17.30391 20.23436-17.8382 21.06903-18.37248 21.90372-19.25258 23.26083-19.8163 24.11949-20.38002 24.97815-21.30711 26.37338-21.90108 27.25769-22.49503 28.14198-23.47153 29.5822-24.09718 30.49292-24.72282 31.40364-25.75237 32.88295-26.41032 33.8216-27.06827 34.76022-28.14812 36.28973-28.83922 37.25798-29.53033 38.2262-30.66605 39.80089-31.39139 40.79997-32.11676 41.79906-33.30609 43.42723-34.06711 44.45876-34.82813 45.4903-36.07823 47.16925-36.8762 48.23459-37.6742 49.29994-39.81844 52.13708-38.68918 50.64285"/>
<path transform="matrix(-.6029381,.79781988,.79780396,.6029501,13.948788,191.77982)" d="M1.27522 0C-.31879 .31879-1.91284 .9564-3.8257 2.07224-1.91284 .6376-1.91284-.6376-3.8257-2.07224-1.91284-.9564-.31879-.31879 1.27522 0Z" fill="#ff0000"/>
<path transform="matrix(-.6029381,.79781988,.79780396,.6029501,13.948788,191.77982)" stroke-width="1.19553" stroke-linecap="butt" stroke-linejoin="round" fill="none" stroke="#ff0000" d="M1.27522 0C-.31879 .31879-1.91284 .9564-3.8257 2.07224-1.91284 .6376-1.91284-.6376-3.8257-2.07224-1.91284-.9564-.31879-.31879 1.27522 0Z"/>
<path transform="matrix(-.6029381,-.79781988,-.79780396,.6029501,13.948788,22.45263)" d="M1.27522 0C-.31879 .31879-1.91284 .9564-3.8257 2.07224-1.91284 .6376-1.91284-.6376-3.8257-2.07224-1.91284-.9564-.31879-.31879 1.27522 0Z" fill="#ff0000"/>
<path transform="matrix(-.6029381,-.79781988,-.79780396,.6029501,13.948788,22.45263)" stroke-width="1.19553" stroke-linecap="butt" stroke-linejoin="round" fill="none" stroke="#ff0000" d="M1.27522 0C-.31879 .31879-1.91284 .9564-3.8257 2.07224-1.91284 .6376-1.91284-.6376-3.8257-2.07224-1.91284-.9564-.31879-.31879 1.27522 0Z"/>
<path transform="matrix(1.00003,0,0,-1.00005,52.63913,73.098)" stroke-width=".3985" stroke-linecap="butt" stroke-miterlimit="10" stroke-linejoin="miter" fill="none" stroke="#00e600" d="M51.02477-34.0165C49.53033-33.26932 48.53407-31.5258 48.53407-29.03511V-12.10548C48.53407-9.61479 47.53781-7.87128 46.04338-7.1241 47.53781-6.37692 48.53407-4.6334 48.53407-2.14272V14.78691C48.53407 17.2776 49.53033 19.02112 51.02477 19.7683"/>
<path transform="matrix(1.00003,0,0,-1.00005,52.63913,73.098)" d="M18.67793 29.21921H56.494859V41.572999H18.67793Z" fill="#ffffff"/>
<use data-text="b" xlink:href="#font_1_3" transform="matrix(9.962899,0,0,-9.963098,72.31372,41.558427)" fill="#008000"/>
<use data-text="=" xlink:href="#font_3_9" transform="matrix(9.962899,0,0,-9.963098,79.35693,41.558427)" fill="#008000"/>
<use data-text="&#x221a;" xlink:href="#font_2_2" transform="matrix(9.962899,0,0,-9.963098,89.87326,33.31701)" fill="#008000"/>
<path transform="matrix(1.00003,0,0,-1.00005,-65.32741,-18.548579)" stroke-width=".3985" stroke-linecap="butt" stroke-miterlimit="10" stroke-linejoin="miter" fill="none" stroke="#008000" d="M163.498-51.664H173.461"/>
<use data-text="1" xlink:href="#font_3_4" transform="matrix(9.962899,0,0,-9.963098,98.17551,41.558427)" fill="#008000"/>
<use data-text="0" xlink:href="#font_3_3" transform="matrix(9.962899,0,0,-9.963098,103.15695,41.558427)" fill="#008000"/>
<path transform="matrix(1.00003,0,0,-1.00005,52.63913,73.098)" stroke-width=".79701" stroke-linecap="butt" stroke-miterlimit="10" stroke-linejoin="miter" fill="none" stroke="#00ff00" d="M34.0165 28.91397C34.0165 14.82626 35.13054 3.95291 44.82327-4.18036"/>
<path transform="matrix(.76606306,.64282217,.64280936,-.7660783,97.46374,77.278568)" d="M1.0361 0C-.25902 .25902-1.55415 .77707-3.1083 1.68365-1.55415 .51805-1.55415-.51805-3.1083-1.68365-1.55415-.77707-.25902-.25902 1.0361 0Z" fill="#00ff00"/>
<path transform="matrix(.76606306,.64282217,.64280936,-.7660783,97.46374,77.278568)" stroke-width=".79701" stroke-linecap="butt" stroke-linejoin="round" fill="none" stroke="#00ff00" d="M1.0361 0C-.25902 .25902-1.55415 .77707-3.1083 1.68365-1.55415 .51805-1.55415-.51805-3.1083-1.68365-1.55415-.77707-.25902-.25902 1.0361 0Z"/>
<path transform="matrix(1.00003,0,0,-1.00005,52.63913,73.098)" stroke-width=".3985" stroke-linecap="butt" stroke-miterlimit="10" stroke-linejoin="miter" fill="none" stroke="#0000ff" d="M99.13116-34.0165C98.23456-35.80981 96.14233-37.00533 93.1535-37.00533H81.05563C78.0668-37.00533 75.97458-38.20085 75.07797-39.99416 74.18137-38.20085 72.08914-37.00533 69.10031-37.00533H57.00243C54.0136-37.00533 51.92137-35.80981 51.02477-34.0165"/>
<path transform="matrix(1.00003,0,0,-1.00005,52.63913,73.098)" d="M58.16493-55.07358H91.991V-42.71979H58.16493Z" fill="#ffffff"/>
<use data-text="a" xlink:href="#font_1_2" transform="matrix(9.962899,0,0,-9.963098,111.80191,125.85464)" fill="#0000ff"/>
<use data-text="=" xlink:href="#font_3_9" transform="matrix(9.962899,0,0,-9.963098,119.83516,125.85464)" fill="#0000ff"/>
<use data-text="&#x221a;" xlink:href="#font_2_2" transform="matrix(9.962899,0,0,-9.963098,130.35147,117.61322)" fill="#0000ff"/>
<path transform="matrix(1.00003,0,0,-1.00005,-25.839222,65.747638)" stroke-width=".3985" stroke-linecap="butt" stroke-miterlimit="10" stroke-linejoin="miter" fill="none" stroke="#0000ff" d="M164.489-51.664H169.47"/>
<use data-text="8" xlink:href="#font_3_8" transform="matrix(9.962899,0,0,-9.963098,138.65473,125.85464)" fill="#0000ff"/>
</svg>
