<svg xmlns="http://www.w3.org/2000/svg" xmlns:xlink="http://www.w3.org/1999/xlink" version="1.1" width="212" height="208" viewBox="0 0 212 208">
<defs>
<path id="font_1_3" d="M.375 .6136017C.3809967 .63760378 .38398744 .6476135 .40299989 .65060427 .4119873 .6516113 .44400025 .6516113 .46398927 .6516113 .5349884 .6516113 .6459961 .6516113 .6459961 .5525818 .6459961 .51856997 .6299896 .44955445 .59098818 .41055299 .5649872 .38453675 .5119934 .35253907 .42199708 .35253907H.30999757L.375 .6136017M.5189972 .33953858C.6199951 .3615265 .7389984 .43154908 .7389984 .5325775 .7389984 .61860659 .6489868 .6826172 .5179901 .6826172H.23298645C.21299744 .6826172 .20399475 .6826172 .20399475 .6626129 .20399475 .6516113 .21299744 .6516113 .23199463 .6516113 .23399353 .6516113 .25299073 .6516113 .269989 .6496124 .28799439 .6476135 .29699708 .64660647 .29699708 .63360598 .29699708 .62960818 .29599 .6266022 .29299928 .6145935L.15899658 .07752991C.14898682 .038528444 .14698792 .030532837 .067993167 .030532837 .049987794 .030532837 .040985109 .030532837 .040985109 .010528564 .040985109-.00047302247 .052993776-.00047302247 .054992677-.00047302247 .08299255-.00047302247 .15299988 .002532959 .18099976 .002532959 .20899964 .002532959 .27999879-.00047302247 .30799867-.00047302247 .31599427-.00047302247 .32798768-.00047302247 .32798768 .01953125 .32798768 .030532837 .31900025 .030532837 .2999878 .030532837 .2630005 .030532837 .23498535 .030532837 .23498535 .048538209 .23498535 .054534913 .23699951 .059524537 .23799134 .0655365L.3039856 .3305359H.4229889C.5139923 .3305359 .5319977 .27453614 .5319977 .23953247 .5319977 .22453308 .5239868 .19352722 .5179901 .17053223 .5109863 .14253235 .5019989 .105529788 .5019989 .08552551 .5019989-.022460938 .621994-.022460938 .6349945-.022460938 .7200012-.022460938 .7549896 .07853699 .7549896 .0925293 .7549896 .104537967 .74398806 .104537967 .7429962 .104537967 .73399356 .104537967 .7319946 .09753418 .7299957 .090530399 .7049866 .016525269 .6619873-.00047302247 .6389923-.00047302247 .60598757-.00047302247 .598999 .021530152 .598999 .060531618 .598999 .091537479 .6049957 .14253235 .60899356 .17453003 .61099246 .1885376 .61299136 .20753479 .61299136 .2215271 .61299136 .2985382 .54599 .3295288 .5189972 .33953858Z"/>
<path id="font_1_2" d="M.37399293 .6056366C.3829956 .6416168 .38598634 .6516113 .46499635 .6516113 .4889984 .6516113 .49699403 .6516113 .49699403 .6706085 .49699403 .6826172 .48599244 .6826172 .48199464 .6826172 .45298768 .6826172 .3789978 .6796112 .34999085 .6796112 .31999208 .6796112 .24699402 .6826172 .21699524 .6826172 .20999146 .6826172 .19699097 .6826172 .19699097 .6626129 .19699097 .6516113 .20599365 .6516113 .22499085 .6516113 .2669983 .6516113 .2939911 .6516113 .2939911 .63261416 .2939911 .6276245 .2939911 .6256256 .2919922 .6166229L.15699768 .07795715C.147995 .040985109 .14498902 .0309906 .06599426 .0309906 .042999269 .0309906 .033996583 .0309906 .033996583 .010986328 .033996583 0 .04598999 0 .04899597 0 .07798767 0 .15098572 .0029907227 .17999268 .0029907227 .20999146 .0029907227 .28399659 0 .31399537 0 .32199098 0 .33399964 0 .33399964 .018997193 .33399964 .0309906 .32598878 .0309906 .3039856 .0309906 .28599549 .0309906 .2809906 .0309906 .26098634 .032989503 .23999024 .034988405 .23599243 .038986207 .23599243 .049987794 .23599243 .05796814 .23799134 .065963748 .23999024 .07296753L.37399293 .6056366Z"/>
<path id="font_2_4" d="M.2939911 .64004519C.2939911 .66400149 .2939911 .6660156 .2709961 .6660156 .20899964 .60227969 .12098694 .60227969 .08898926 .60227969V.57128909C.10899353 .57128909 .16799927 .57128909 .21998596 .5972748V.07902527C.21998596 .042999269 .21699524 .0309906 .1269989 .0309906H.09498596V0C.12998963 .0029907227 .21699524 .0029907227 .25698854 .0029907227 .29699708 .0029907227 .38398744 .0029907227 .4189911 0V.0309906H.3869934C.29699708 .0309906 .2939911 .041992189 .2939911 .07902527V.64004519Z"/>
<path id="font_2_3" d="M.45999146 .31976319C.45999146 .39982606 .45498658 .47988893 .41999818 .5539398 .37399293 .65000918 .2919922 .6660156 .25 .6660156 .18998719 .6660156 .116989139 .64001467 .07598877 .54693606 .04399109 .47789 .038986207 .39982606 .038986207 .31976319 .038986207 .24472046 .042999269 .15464783 .083999637 .07859802 .1269989-.0024719239 .19999695-.022460938 .24899292-.022460938 .30299378-.022460938 .3789978-.0014648438 .4229889 .09359741 .45498658 .16265869 .45999146 .2407074 .45999146 .31976319M.24899292-.00047302247C.20999146-.00047302247 .15098572 .024551392 .1329956 .12062073 .12199402 .18066406 .12199402 .2727356 .12199402 .3317871 .12199402 .39582826 .12199402 .46188355 .12998963 .5159149 .14898682 .63500979 .22399903 .64401248 .24899292 .64401248 .28199769 .64401248 .34799195 .6259918 .36698915 .52693179 .3769989 .47088624 .3769989 .39482118 .3769989 .3317871 .3769989 .25672914 .3769989 .18867493 .3659973 .12461853 .35099793 .029556275 .2939911-.00047302247 .24899292-.00047302247Z"/>
<path id="font_2_5" d="M.1269989 .07699585 .23298645 .18003845C.3889923 .31811524 .44898988 .3721466 .44898988 .47216798 .44898988 .5860901 .35899354 .6660156 .23699951 .6660156 .12399292 .6660156 .049987794 .57411196 .049987794 .48516847 .049987794 .4291687 .099990848 .4291687 .102996829 .4291687 .11999512 .4291687 .15499878 .44117738 .15499878 .48217774 .15499878 .5081787 .13699341 .5341797 .101989749 .5341797 .09399414 .5341797 .09199524 .5341797 .08898926 .5331726 .11199951 .59806826 .1659851 .63500979 .22399903 .63500979 .31498719 .63500979 .35798646 .5541382 .35798646 .47216798 .35798646 .39215089 .30799867 .31311036 .25299073 .25108338L.06098938 .036987306C.049987794 .025985718 .049987794 .023986817 .049987794 0H.42099L.44898988 .17404175H.42399598C.4189911 .14402771 .4119873 .1000061 .4019928 .084991458 .394989 .07699585 .32899476 .07699585 .30699159 .07699585H.1269989Z"/>
<path id="font_2_6" d="M.2899933 .35191346C.37199403 .37893678 .42999269 .4490509 .42999269 .52809146 .42999269 .6100464 .34199525 .6660156 .24598694 .6660156 .14498902 .6660156 .068984989 .60606387 .068984989 .53009036 .068984989 .49710084 .09098816 .47808839 .11999512 .47808839 .15098572 .47808839 .17098999 .50009158 .17098999 .5290985 .17098999 .57910159 .12399292 .57910159 .10899353 .57910159 .13999939 .62802127 .20599365 .64100649 .24198914 .64100649 .2829895 .64100649 .33799745 .6190338 .33799745 .5290985 .33799745 .51708987 .33599855 .45906068 .30999757 .4149933 .27999879 .36691285 .24598694 .36390687 .22099304 .36291505 .21299744 .36190797 .18899536 .35990907 .18199158 .35990907 .17399597 .35890199 .16699219 .35791017 .16699219 .3479004 .16699219 .33691407 .17399597 .33691407 .19099427 .33691407H.23498535C.31698609 .33691407 .35398866 .2686615 .35398866 .17037964 .35398866 .034469606 .2849884 .0055389406 .24099732 .0055389406 .19799805 .0055389406 .12298584 .022491456 .08799744 .08137512 .12298584 .07637024 .1539917 .09837341 .1539917 .1363678 .1539917 .17237854 .1269989 .19238281 .09799194 .19238281 .07398987 .19238281 .041992189 .17837525 .041992189 .1343689 .041992189 .043441774 .1349945-.022460938 .24398804-.022460938 .3659973-.022460938 .45700074 .06838989 .45700074 .17037964 .45700074 .252594 .3939972 .33088685 .2899933 .35191346Z"/>
<path id="font_2_7" d="M.2939911 .16503906V.07800293C.2939911 .041992189 .2919922 .0309906 .21798706 .0309906H.19699097V0C.23799134 .0029907227 .2899933 .0029907227 .33198548 .0029907227 .37399293 .0029907227 .4269867 .0029907227 .46798707 0V.0309906H.44699098C.37298585 .0309906 .37098695 .041992189 .37098695 .07800293V.16503906H.47099305V.19602967H.37098695V.65075686C.37098695 .67074587 .37098695 .6767578 .35499574 .6767578 .34599305 .6767578 .34298707 .6767578 .33499146 .66474917L.027999878 .19602967V.16503906H.2939911M.2999878 .19602967H.055999757L.2999878 .5688019V.19602967Z"/>
<path id="font_2_8" d="M.44898988 .20022583C.44898988 .3193512 .36698915 .41944886 .25898744 .41944886 .21099854 .41944886 .16799927 .40345765 .13198853 .36842347V.5637665C.1519928 .5577698 .18499756 .55078127 .21699524 .55078127 .33999635 .55078127 .4099884 .6417694 .4099884 .6547699 .4099884 .6607666 .40699769 .6657715 .3999939 .6657715 .39898683 .6657715 .39698792 .6657715 .3919983 .66278079 .37199403 .6537781 .32299806 .6337738 .2559967 .6337738 .21598816 .6337738 .16999817 .6407776 .12298584 .6617737 .114990238 .66477969 .11299133 .66477969 .11099243 .66477969 .100997928 .66477969 .100997928 .6567688 .100997928 .6407776V.34439088C.100997928 .32637025 .100997928 .31835938 .114990238 .31835938 .12199402 .31835938 .12399292 .32136537 .12799073 .32736207 .13899231 .3433838 .17599488 .39746095 .25698854 .39746095 .30899049 .39746095 .33399964 .35139466 .34199525 .33337403 .35798646 .29632569 .3600006 .25727845 .3600006 .20722962 .3600006 .17222595 .3600006 .11222839 .33599855 .07035828 .31199647 .031463624 .2749939 .0055389406 .22898865 .0055389406 .1559906 .0055389406 .09899902 .058380128 .08198547 .11723328 .084991458 .1162262 .08799744 .115234378 .09899902 .115234378 .13198853 .115234378 .14898682 .14022827 .14898682 .16423035 .14898682 .18823242 .13198853 .21322632 .09899902 .21322632 .084991458 .21322632 .049987794 .20622254 .049987794 .16023255 .049987794 .07434082 .11898804-.022460938 .23098755-.022460938 .34700013-.022460938 .44898988 .073349 .44898988 .20022583Z"/>
<path id="font_2_1" d="M.33099366-.2400055C.33099366-.23701477 .33099366-.23500061 .31399537-.21800232 .18899536-.0920105 .15699768 .09700012 .15699768 .25 .15699768 .42399598 .19499207 .59799197 .31799317 .72299197 .33099366 .73498538 .33099366 .7369995 .33099366 .73999026 .33099366 .746994 .32699586 .75 .32099916 .75 .31098939 .75 .22099304 .6819916 .1619873 .5549927 .11099243 .44499208 .09899902 .33399964 .09899902 .25 .09899902 .17199707 .10998535 .050994874 .16499329-.06201172 .22499085-.18501282 .31098939-.25 .32099916-.25 .32699586-.25 .33099366-.24700928 .33099366-.2400055Z"/>
<path id="font_1_1" d="M.20298767 .0009918213C.20298767 .066986087 .17799378 .10598755 .13899231 .10598755 .10598755 .10598755 .085998538 .08099365 .085998538 .052993776 .085998538 .025985718 .10598755 0 .13899231 0 .15098572 0 .1639862 .0039978029 .17399597 .0129852299 .1769867 .01499939 .17799378 .015991211 .1789856 .015991211 .17999268 .015991211 .18099976 .01499939 .18099976 .0009918213 .18099976-.07316589 .1459961-.13328552 .11299133-.16635132 .101989749-.17736817 .101989749-.17936707 .101989749-.18237305 .101989749-.18936157 .10699463-.19335938 .11199951-.19335938 .12298584-.19335938 .20298767-.116256717 .20298767 .0009918213Z"/>
<path id="font_2_2" d="M.2889862 .25C.2889862 .32798768 .27799989 .44898988 .22299195 .56199648 .16299439 .68499758 .07699585 .75 .066986087 .75 .06098938 .75 .056991579 .74598696 .056991579 .73999026 .056991579 .7369995 .056991579 .73498538 .07598877 .71699526 .17399597 .6179962 .23098755 .45899964 .23098755 .25 .23098755 .07899475 .19400025-.09700012 .069992069-.2230072 .056991579-.23500061 .056991579-.23701477 .056991579-.2400055 .056991579-.2460022 .06098938-.25 .066986087-.25 .07699585-.25 .16699219-.18200684 .22599793-.055007936 .2769928 .054992677 .2889862 .16600037 .2889862 .25Z"/>
<path id="font_2_9" d="M.68699648 .32714845C.70199587 .32714845 .72099307 .32714845 .72099307 .34713746 .72099307 .36714173 .70199587 .36714173 .6879883 .36714173H.08898926C.07499695 .36714173 .055999757 .36714173 .055999757 .34713746 .055999757 .32714845 .07499695 .32714845 .08999634 .32714845H.68699648M.6879883 .13284302C.70199587 .13284302 .72099307 .13284302 .72099307 .15284729 .72099307 .17285156 .70199587 .17285156 .68699648 .17285156H.08999634C.07499695 .17285156 .055999757 .17285156 .055999757 .15284729 .055999757 .13284302 .07499695 .13284302 .08898926 .13284302H.6879883Z"/>
<path id="font_3_2" d="M.33499146 .63612368C.33499146 .6630554 .33299256 .6640625 .30499269 .6640625 .24099732 .6014404 .1499939 .6004486 .10899353 .6004486V.5644531C.1329956 .5644531 .19898987 .5644531 .2539978 .592453V.08203125C.2539978 .04899597 .2539978 .035995485 .1539917 .035995485H.115997318V0C.13398743 .0009918213 .25698854 .0039978029 .2939911 .0039978029 .32499696 .0039978029 .45098878 .0009918213 .47299195 0V.035995485H.43499757C.33499146 .035995485 .33499146 .04899597 .33499146 .08203125V.63612368Z"/>
<path id="font_3_3" d="M.5049896 .18203736H.47099305C.46798707 .16001892 .45799256 .100997928 .44499208 .09098816 .43699647 .084991458 .3600006 .084991458 .34599305 .084991458H.1619873C.2669983 .17803955 .3019867 .20603943 .3619995 .25306703 .43598939 .312088 .5049896 .374115 .5049896 .46914674 .5049896 .5900879 .39898683 .6640625 .2709961 .6640625 .14698792 .6640625 .06298828 .57710269 .06298828 .4851532 .06298828 .43414308 .10598755 .42915345 .115997318 .42915345 .13999939 .42915345 .16899109 .44615174 .16899109 .48214723 .16899109 .5001526 .1619873 .53515627 .10998535 .53515627 .14099121 .6060791 .20899964 .62805178 .2559967 .62805178 .35598756 .62805178 .4079895 .5501404 .4079895 .46914674 .4079895 .38212586 .34599305 .3130951 .31399537 .27708436L.07299805 .038986207C.06298828 .02999878 .06298828 .027999878 .06298828 0H.47499085L.5049896 .18203736Z"/>
<path id="font_3_1" d="M.5159912 .31925965C.5159912 .42918397 .5029907 .50813296 .45700074 .5780945 .42599488 .62405398 .3639984 .6640625 .28399659 .6640625 .051986696 .6640625 .051986696 .39120484 .051986696 .31925965 .051986696 .2472992 .051986696-.01953125 .28399659-.01953125 .5159912-.01953125 .5159912 .2472992 .5159912 .31925965M.28399659 .008468628C.23799134 .008468628 .1769867 .035446168 .15699768 .117385867 .14299011 .17634583 .14299011 .25830079 .14299011 .33224488 .14299011 .40519715 .14299011 .4811554 .1579895 .53611758 .1789856 .6150665 .24299622 .63604739 .28399659 .63604739 .33799745 .63604739 .3899994 .6030731 .4079895 .545105 .42399598 .4911499 .4249878 .41918946 .4249878 .33224488 .4249878 .25830079 .4249878 .18434143 .4119873 .12138367 .3919983 .030441285 .32398988 .008468628 .28399659 .008468628Z"/>
<path id="font_4_1" d="M.41299439 .6126709C.41999818 .640625 .42199708 .6436157 .44400025 .64660647H.5079956C.6009979 .64660647 .71598818 .64660647 .71598818 .5437927 .71598818 .50286868 .69699099 .43997193 .6499939 .40403749 .60899356 .37208558 .5469971 .35612489 .47799684 .35612489H.34899903L.41299439 .6126709M.59399417 .3401184C.71299746 .36810304 .81900027 .43997193 .81900027 .5288086 .81900027 .6146698 .71699526 .6826172 .57199099 .6826172H.2649994C.24598694 .6826172 .23298645 .6826172 .23298645 .660614 .23298645 .64660647 .24499512 .64660647 .2649994 .64660647 .2659912 .64660647 .2849884 .64660647 .30299378 .64460757 .32398988 .6426239 .32598878 .640625 .32598878 .63064578 .32598878 .62864688 .32598878 .6236572 .32199098 .6086731L.18899536 .07801819C.18099976 .04399109 .1789856 .035995485 .100997928 .035995485 .083999637 .035995485 .070999149 .035995485 .070999149 .01499939 .070999149 .004989624 .07798767 0 .08699036 0 .10598755 0 .1289978 .0029907227 .14898682 .0029907227 .16799927 .0029907227 .19699097 .0039978029 .21499634 .0039978029 .23498535 .0039978029 .2579956 .0029907227 .2789917 .0029907227 .2999878 .0029907227 .32499696 0 .34599305 0 .35099793 0 .36698915 0 .36698915 .020996094 .36698915 .035995485 .35699464 .035995485 .33399964 .035995485 .31799317 .035995485 .31399537 .035995485 .29599 .037994386 .27398683 .041000368 .27398683 .042999269 .27398683 .052993776 .27398683 .054000856 .27398683 .05999756 .27799989 .07501221L.34098817 .328125H.47698976C.5629883 .328125 .59999087 .2851715 .59999087 .23822022 .59999087 .22523499 .59098818 .19126892 .58599856 .16828919 .57398989 .12234497 .56999209 .10736084 .56999209 .09037781 .56999209 .011459351 .6429901-.01953125 .71699526-.01953125 .8089905-.01953125 .848999 .0783844 .848999 .09637451 .848999 .099365238 .8470001 .11035156 .83200076 .11035156 .81900027 .11035156 .81700137 .10336304 .81399539 .09336853 .7999878 .049423219 .7630005 .008468628 .72099307 .008468628 .69499209 .008468628 .6759949 .019454956 .6759949 .073394779 .6759949 .098358158 .6819916 .15031433 .6859894 .17727661 .6899872 .20425415 .6899872 .2142334 .6899872 .2242279 .6899872 .23622132 .6899872 .26818849 .6619873 .29815675 .6429901 .3191223 .6159973 .3321228 .59399417 .3401184Z"/>
</defs>
<path transform="matrix(1,0,0,-1.00005,15.07,195.70818)" stroke-width=".3985" stroke-linecap="butt" stroke-miterlimit="10" stroke-linejoin="miter" fill="none" stroke="#00aeef" d="M0 0H177.16754M0 7.08669H177.16754M0 14.17339H177.16754M0 21.2601H177.16754M0 28.3468H177.16754M0 35.43349H177.16754M0 42.5202H177.16754M0 49.6069H177.16754M0 56.69362H177.16754M0 63.7803H177.16754M0 70.867H177.16754M0 77.95372H177.16754M0 85.04042H177.16754M0 92.1271H177.16754M0 99.21382H177.16754M0 106.30052H177.16754M0 113.38724H177.16754M0 120.47392H177.16754M0 127.56062H177.16754M0 134.64734H177.16754M0 141.73404H177.16754M0 148.82074H177.16754M0 155.90744H177.16754M0 162.99414H177.16754M0 170.08086H177.16754M0 177.16507H177.16754M0 0V177.16754M7.08669 0V177.16754M14.17339 0V177.16754M21.2601 0V177.16754M28.3468 0V177.16754M35.43349 0V177.16754M42.5202 0V177.16754M49.6069 0V177.16754M56.69362 0V177.16754M63.7803 0V177.16754M70.867 0V177.16754M77.95372 0V177.16754M85.04042 0V177.16754M92.1271 0V177.16754M99.21382 0V177.16754M106.30052 0V177.16754M113.38724 0V177.16754M120.47392 0V177.16754M127.56062 0V177.16754M134.64734 0V177.16754M141.73404 0V177.16754M148.82074 0V177.16754M155.90744 0V177.16754M162.99414 0V177.16754M170.08086 0V177.16754M177.16507 0V177.16754M177.16754 177.16754"/>
<path transform="matrix(1,0,0,-1.00005,15.07,195.70818)" stroke-width=".79701" stroke-linecap="butt" stroke-miterlimit="10" stroke-linejoin="miter" fill="none" stroke="#000000" d="M0 0H182.81964"/>
<path transform="matrix(1,0,0,-1.00005,197.88965,195.70818)" d="M1.0361 0C-.25902 .25902-1.55415 .77707-3.1083 1.68365-1.55415 .51805-1.55415-.51805-3.1083-1.68365-1.55415-.77707-.25902-.25902 1.0361 0Z"/>
<path transform="matrix(1,0,0,-1.00005,197.88965,195.70818)" stroke-width=".79701" stroke-linecap="butt" stroke-linejoin="round" fill="none" stroke="#000000" d="M1.0361 0C-.25902 .25902-1.55415 .77707-3.1083 1.68365-1.55415 .51805-1.55415-.51805-3.1083-1.68365-1.55415-.77707-.25902-.25902 1.0361 0Z"/>
<use data-text="R" xlink:href="#font_1_3" transform="matrix(9.9626,0,0,-9.963098,203.043,199.11235)"/>
<path transform="matrix(1,0,0,-1.00005,15.07,195.70818)" stroke-width=".79701" stroke-linecap="butt" stroke-miterlimit="10" stroke-linejoin="miter" fill="none" stroke="#000000" d="M0 0V182.81964"/>
<path transform="matrix(0,-1.00005,-1,-0,15.07,12.87941)" d="M1.0361 0C-.25902 .25902-1.55415 .77707-3.1083 1.68365-1.55415 .51805-1.55415-.51805-3.1083-1.68365-1.55415-.77707-.25902-.25902 1.0361 0Z"/>
<path transform="matrix(0,-1.00005,-1,-0,15.07,12.87941)" stroke-width=".79701" stroke-linecap="butt" stroke-linejoin="round" fill="none" stroke="#000000" d="M1.0361 0C-.25902 .25902-1.55415 .77707-3.1083 1.68365-1.55415 .51805-1.55415-.51805-3.1083-1.68365-1.55415-.77707-.25902-.25902 1.0361 0Z"/>
<use data-text="I" xlink:href="#font_1_2" transform="matrix(9.9626,0,0,-9.963098,12.488998,7.7257845)"/>
<path transform="matrix(1,0,0,-1.00005,15.07,195.70818)" stroke-width=".3985" stroke-linecap="butt" stroke-miterlimit="10" stroke-linejoin="miter" fill="none" stroke="#000000" d="M35.43349 .7087V-.70859"/>
<path transform="matrix(1,0,0,-1.00005,15.07,195.70818)" d="M29.45581-11.31339H41.41115V-2.9004098H29.45581Z" fill="#ffffff"/>
<use data-text="1" xlink:href="#font_2_4" transform="matrix(9.9626,0,0,-9.963098,45.522,206.0257)"/>
<use data-text="0" xlink:href="#font_2_3" transform="matrix(9.9626,0,0,-9.963098,50.5033,206.0257)"/>
<path transform="matrix(1,0,0,-1.00005,15.07,195.70818)" stroke-width=".3985" stroke-linecap="butt" stroke-miterlimit="10" stroke-linejoin="miter" fill="none" stroke="#000000" d="M.7087 35.43349H-.70859"/>
<path transform="matrix(1,0,0,-1.00005,15.07,195.70818)" d="M-14.85574 31.227H-2.9003993V39.63998H-14.85574Z" fill="#ffffff"/>
<use data-text="1" xlink:href="#font_2_4" transform="matrix(9.9626,0,0,-9.963098,1.2109985,163.48357)"/>
<use data-text="0" xlink:href="#font_2_3" transform="matrix(9.9626,0,0,-9.963098,6.192299,163.48357)"/>
<path transform="matrix(1,0,0,-1.00005,15.07,195.70818)" stroke-width=".3985" stroke-linecap="butt" stroke-miterlimit="10" stroke-linejoin="miter" fill="none" stroke="#000000" d="M70.867 .7087V-.70859"/>
<path transform="matrix(1,0,0,-1.00005,15.07,195.70818)" d="M64.88933-11.31339H76.844669V-2.9004098H64.88933Z" fill="#ffffff"/>
<use data-text="2" xlink:href="#font_2_5" transform="matrix(9.9626,0,0,-9.963098,80.956,206.0257)"/>
<use data-text="0" xlink:href="#font_2_3" transform="matrix(9.9626,0,0,-9.963098,85.9373,206.0257)"/>
<path transform="matrix(1,0,0,-1.00005,15.07,195.70818)" stroke-width=".3985" stroke-linecap="butt" stroke-miterlimit="10" stroke-linejoin="miter" fill="none" stroke="#000000" d="M.7087 70.867H-.70859"/>
<path transform="matrix(1,0,0,-1.00005,15.07,195.70818)" d="M-14.85574 66.66052H-2.9003993V75.0735H-14.85574Z" fill="#ffffff"/>
<use data-text="2" xlink:href="#font_2_5" transform="matrix(9.9626,0,0,-9.963098,1.2109985,128.04779)"/>
<use data-text="0" xlink:href="#font_2_3" transform="matrix(9.9626,0,0,-9.963098,6.192299,128.04779)"/>
<path transform="matrix(1,0,0,-1.00005,15.07,195.70818)" stroke-width=".3985" stroke-linecap="butt" stroke-miterlimit="10" stroke-linejoin="miter" fill="none" stroke="#000000" d="M106.30052 .7087V-.70859"/>
<path transform="matrix(1,0,0,-1.00005,15.07,195.70818)" d="M100.32285-11.31339H112.27819V-2.9004098H100.32285Z" fill="#ffffff"/>
<use data-text="3" xlink:href="#font_2_6" transform="matrix(9.9626,0,0,-9.963098,116.389,206.0257)"/>
<use data-text="0" xlink:href="#font_2_3" transform="matrix(9.9626,0,0,-9.963098,121.3703,206.0257)"/>
<path transform="matrix(1,0,0,-1.00005,15.07,195.70818)" stroke-width=".3985" stroke-linecap="butt" stroke-miterlimit="10" stroke-linejoin="miter" fill="none" stroke="#000000" d="M.7087 106.30052H-.70859"/>
<path transform="matrix(1,0,0,-1.00005,15.07,195.70818)" d="M-14.85574 102.09402H-2.9003993V110.506999H-14.85574Z" fill="#ffffff"/>
<use data-text="3" xlink:href="#font_2_6" transform="matrix(9.9626,0,0,-9.963098,1.2109985,92.61303)"/>
<use data-text="0" xlink:href="#font_2_3" transform="matrix(9.9626,0,0,-9.963098,6.192299,92.61303)"/>
<path transform="matrix(1,0,0,-1.00005,15.07,195.70818)" stroke-width=".3985" stroke-linecap="butt" stroke-miterlimit="10" stroke-linejoin="miter" fill="none" stroke="#000000" d="M141.73404 .7087V-.70859"/>
<path transform="matrix(1,0,0,-1.00005,15.07,195.70818)" d="M135.75637-11.31339H147.7117V-2.9004098H135.75637Z" fill="#ffffff"/>
<use data-text="4" xlink:href="#font_2_7" transform="matrix(9.9626,0,0,-9.963098,151.823,206.0257)"/>
<use data-text="0" xlink:href="#font_2_3" transform="matrix(9.9626,0,0,-9.963098,156.8043,206.0257)"/>
<path transform="matrix(1,0,0,-1.00005,15.07,195.70818)" stroke-width=".3985" stroke-linecap="butt" stroke-miterlimit="10" stroke-linejoin="miter" fill="none" stroke="#000000" d="M.7087 141.73404H-.70859"/>
<path transform="matrix(1,0,0,-1.00005,15.07,195.70818)" d="M-14.85574 137.52754H-2.9003993V145.94052H-14.85574Z" fill="#ffffff"/>
<use data-text="4" xlink:href="#font_2_7" transform="matrix(9.9626,0,0,-9.963098,1.2109985,57.17726)"/>
<use data-text="0" xlink:href="#font_2_3" transform="matrix(9.9626,0,0,-9.963098,6.192299,57.17726)"/>
<path transform="matrix(1,0,0,-1.00005,15.07,195.70818)" stroke-width=".3985" stroke-linecap="butt" stroke-miterlimit="10" stroke-linejoin="miter" fill="none" stroke="#000000" d="M177.16754 .7087V-.70859"/>
<path transform="matrix(1,0,0,-1.00005,15.07,195.70818)" d="M171.18987-11.31339H183.1452V-2.9004098H171.18987Z" fill="#ffffff"/>
<use data-text="5" xlink:href="#font_2_8" transform="matrix(9.9626,0,0,-9.963098,187.25601,206.0257)"/>
<use data-text="0" xlink:href="#font_2_3" transform="matrix(9.9626,0,0,-9.963098,192.2373,206.0257)"/>
<path transform="matrix(1,0,0,-1.00005,15.07,195.70818)" stroke-width=".3985" stroke-linecap="butt" stroke-miterlimit="10" stroke-linejoin="miter" fill="none" stroke="#000000" d="M.7087 177.16754H-.70859"/>
<path transform="matrix(1,0,0,-1.00005,15.07,195.70818)" d="M-14.85574 172.96105H-2.9003993V181.37403H-14.85574Z" fill="#ffffff"/>
<use data-text="5" xlink:href="#font_2_8" transform="matrix(9.9626,0,0,-9.963098,1.2109985,21.742493)"/>
<use data-text="0" xlink:href="#font_2_3" transform="matrix(9.9626,0,0,-9.963098,6.192299,21.742493)"/>
<path transform="matrix(1,0,0,-1.00005,15.07,195.70818)" stroke-width="1.19553" stroke-linecap="butt" stroke-miterlimit="10" stroke-linejoin="miter" fill="none" stroke="#ff0000" d="M8.6135 175.29788C10.40805 144.65904 10.40805 144.65904 11.13934 135.2532 11.87064 125.84738 13.0434 115.4043 13.7747 109.37685 14.506 103.3494 15.67876 96.01135 16.41003 91.81158 17.14134 87.61179 18.31409 82.20454 19.0454 79.10773 19.77669 76.01091 20.94945 71.87099 21.68074 69.49187 22.41203 67.11273 23.58478 63.84616 24.31607 61.96063 25.04738 60.07507 26.22012 57.43365 26.95143 55.90216 27.68272 54.37067 28.85547 52.19142 29.58676 50.92268 30.31807 49.65393 31.49081 47.82622 32.22212 46.75789 32.95341 45.68956 34.12617 44.13484 34.85745 43.22285 35.58876 42.31085 36.76152 40.97252 37.49281 40.18483 38.2241 39.39713 39.39687 38.23293 40.12816 37.54568 40.85945 36.85844 42.0322 35.83653 42.7635 35.23172 43.4948 34.62692 44.66756 33.72302 45.39885 33.18668 46.13016 32.65031 47.30289 31.845 48.0342 31.36603 48.76549 30.88704 49.93825 30.1648 50.66954 29.73448 51.40083 29.30418 52.5736 28.6533 53.30489 28.2646 54.03618 27.87592 55.20892 27.28592 55.94023 26.93304 56.67152 26.58017 57.84428 26.04308 58.57558 25.72128 59.30688 25.3995 60.47961 24.90839 61.21092 24.61377 61.94221 24.31917 63.11497 23.8687 63.84627 23.59796 64.57758 23.32722 65.7503 22.91217 66.48161 22.66249 67.2129 22.4128 68.38567 22.02937 69.11696 21.79839 69.84827 21.56738 71.02101 21.21193 71.75232 20.99765 72.4836 20.78336 73.65636 20.45325 74.38765 20.2539 75.11896 20.05455 76.2917 19.74681 77.02301 19.56087 77.7543 19.37491 78.92705 19.08751 79.65834 18.91368 80.38963 18.73985 81.5624 18.47089 82.29369 18.30803 83.025 18.14517 84.19772 17.89278 84.92903 17.73988 85.66032 17.58698 86.83308 17.34984 87.56438 17.20602 88.29568 17.06221 89.46843 16.83884 90.19974 16.70331 90.93102 16.56776 92.10378 16.35707 92.83507 16.22914 93.56638 16.10118 94.73912 15.9021 95.47043 15.78114 96.20172 15.66016 97.37447 15.47179 98.10576 15.35724 98.83707 15.24269 100.00981 15.06416 100.74112 14.95554 101.47241 14.84688 102.64516 14.67741 103.37645 14.57425 104.10776 14.47108 105.2805 14.31009 106.01181 14.21199 106.7431 14.1139 107.91586 13.96065 108.64716 13.86726 109.37843 13.77386 110.5512 13.62787 111.28249 13.53886 112.0138 13.44983 113.18654 13.31065 113.91785 13.2257 114.64914 13.14075 115.82188 13.00775 116.55318 12.9266 117.28448 12.84544 118.45723 12.71841 119.18854 12.64081 119.91983 12.5632 121.09258 12.44148 121.82387 12.36722 122.55518 12.29295 123.72792 12.17668 124.45923 12.10555 125.19052 12.0344 126.36328 11.92268 127.09457 11.85445 127.82587 11.7862 128.99861 11.67911 129.72992 11.61363 130.46121 11.54814 131.63397 11.44534 132.36527 11.38245 133.09658 11.31953 134.2693 11.22069 135.00061 11.16022 135.7319 11.09975 136.90467 11.00473 137.63596 10.94655 138.36725 10.88837 139.54 10.79689 140.27129 10.74088 141.0026 10.68486 142.17534 10.59674 142.90665 10.54277 143.63794 10.48882 144.8107 10.40395 145.54199 10.35191 146.27329 10.2999 147.44605 10.21799 148.17734 10.16776 148.90863 10.11755 150.08139 10.03845 150.81269 9.98999 151.54398 9.94153 152.71672 9.86526 153.44803 9.8185 154.17932 9.7717 155.35208 9.69806 156.08338 9.65282 156.81468 9.60759 157.98743 9.53621 158.71872 9.49246 159.45001 9.44872 160.62277 9.37982 161.35407 9.33751 162.08538 9.29518 163.25812 9.2284 163.98943 9.18741 164.7207 9.14642 165.89347 9.08177 166.62476 9.04208 167.35605 9.0024 168.52881 8.93976 169.2601 8.90129 169.99141 8.86282 171.16414 8.80212 171.89545 8.76483 172.62674 8.72752 173.7995 8.66864 174.53079 8.63246 175.2621 8.5963 177.16614 8.50412 175.29546 8.59462"/>
<path transform="matrix(-.05846,-.99827989,-.99823,.05846292,23.683499,20.40155)" d="M1.27522 0C-.31879 .31879-1.91284 .9564-3.8257 2.07224-1.91284 .6376-1.91284-.6376-3.8257-2.07224-1.91284-.9564-.31879-.31879 1.27522 0Z" fill="#ff0000"/>
<path transform="matrix(-.05846,-.99827989,-.99823,.05846292,23.683499,20.40155)" stroke-width="1.19553" stroke-linecap="butt" stroke-linejoin="round" fill="none" stroke="#ff0000" d="M1.27522 0C-.31879 .31879-1.91284 .9564-3.8257 2.07224-1.91284 .6376-1.91284-.6376-3.8257-2.07224-1.91284-.9564-.31879-.31879 1.27522 0Z"/>
<path transform="matrix(.99878,.048322414,.04832,-.9988299,190.36545,187.11312)" d="M1.27522 0C-.31879 .31879-1.91284 .9564-3.8257 2.07224-1.91284 .6376-1.91284-.6376-3.8257-2.07224-1.91284-.9564-.31879-.31879 1.27522 0Z" fill="#ff0000"/>
<path transform="matrix(.99878,.048322414,.04832,-.9988299,190.36545,187.11312)" stroke-width="1.19553" stroke-linecap="butt" stroke-linejoin="round" fill="none" stroke="#ff0000" d="M1.27522 0C-.31879 .31879-1.91284 .9564-3.8257 2.07224-1.91284 .6376-1.91284-.6376-3.8257-2.07224-1.91284-.9564-.31879-.31879 1.27522 0Z"/>
<path transform="matrix(1,0,0,-1.00005,15.07,195.70818)" d="M44.64622 35.43349C44.64622 36.60768 43.69438 37.55952 42.5202 37.55952 41.34601 37.55952 40.39417 36.60768 40.39417 35.43349 40.39417 34.25931 41.34601 33.30746 42.5202 33.30746 43.69438 33.30746 44.64622 34.25931 44.64622 35.43349ZM42.5202 35.43349" fill="#ff0000"/>
<path transform="matrix(1,0,0,-1.00005,15.07,195.70818)" stroke-width=".3985" stroke-linecap="butt" stroke-miterlimit="10" stroke-linejoin="miter" fill="none" stroke="#ff0000" d="M44.64622 35.43349C44.64622 36.60768 43.69438 37.55952 42.5202 37.55952 41.34601 37.55952 40.39417 36.60768 40.39417 35.43349 40.39417 34.25931 41.34601 33.30746 42.5202 33.30746 43.69438 33.30746 44.64622 34.25931 44.64622 35.43349ZM42.5202 35.43349"/>
<path transform="matrix(1,0,0,-1.00005,15.07,195.70818)" d="M46.70456 35.63275H82.79195V49.58063H46.70456Z" fill="#ffffff"/>
<use data-text="(" xlink:href="#font_2_1" transform="matrix(9.9626,0,0,-9.963098,63.767,155.59018)" fill="#ff0000"/>
<use data-text="1" xlink:href="#font_2_4" transform="matrix(9.9626,0,0,-9.963098,67.632488,155.59018)" fill="#ff0000"/>
<use data-text="2" xlink:href="#font_2_5" transform="matrix(9.9626,0,0,-9.963098,72.613788,155.59018)" fill="#ff0000"/>
<use data-text="," xlink:href="#font_1_1" transform="matrix(9.9626,0,0,-9.963098,77.604,155.59018)" fill="#ff0000"/>
<use data-text="1" xlink:href="#font_2_4" transform="matrix(9.9626,0,0,-9.963098,82.032,155.59018)" fill="#ff0000"/>
<use data-text="0" xlink:href="#font_2_3" transform="matrix(9.9626,0,0,-9.963098,87.0133,155.59018)" fill="#ff0000"/>
<use data-text=")" xlink:href="#font_2_2" transform="matrix(9.9626,0,0,-9.963098,91.99459,155.59018)" fill="#ff0000"/>
<path transform="matrix(1,0,0,-1.00005,15.07,195.70818)" d="M66.67299 133.81523H103.40784V149.65287H66.67299Z" fill="#ffffff"/>
<use data-text="I" xlink:href="#font_1_2" transform="matrix(9.9626,0,0,-9.963098,83.736,56.45822)"/>
<use data-text="=" xlink:href="#font_2_9" transform="matrix(9.9626,0,0,-9.963098,91.664,56.45822)"/>
<use data-text="1" xlink:href="#font_3_2" transform="matrix(6.9738,0,0,-6.9741489,103.376,52.535036)"/>
<use data-text="2" xlink:href="#font_3_3" transform="matrix(6.9738,0,0,-6.9741489,107.34409,52.535036)"/>
<use data-text="0" xlink:href="#font_3_1" transform="matrix(6.9738,0,0,-6.9741489,111.31218,52.535036)"/>
<path transform="matrix(1,0,0,-1.00005,-17.334,-127.25995)" stroke-width=".3985" stroke-linecap="butt" stroke-miterlimit="10" stroke-linejoin="miter" fill="none" stroke="#000000" d="M120.71-181.218H132.624"/>
<use data-text="R" xlink:href="#font_4_1" transform="matrix(6.9738,0,0,-6.9741489,106.314,59.893404)"/>
</svg>
