<svg xmlns="http://www.w3.org/2000/svg" xmlns:xlink="http://www.w3.org/1999/xlink" version="1.1" width="225" height="160" viewBox="0 0 225 160">
<defs>
<path id="font_1_1" d="M.33399964 .30233766C.33999635 .32835389 .36299134 .42037965 .43299867 .42037965 .43798829 .42037965 .46199037 .42037965 .48298646 .40734864 .45498658 .402359 .43499757 .37734986 .43499757 .35334779 .43499757 .33735658 .44599916 .31835938 .47299195 .31835938 .49499513 .31835938 .5269928 .3363495 .5269928 .37635804 .5269928 .42837525 .46798707 .4423828 .43399049 .4423828 .37599183 .4423828 .34098817 .38935853 .32899476 .36634828 .3039856 .43237306 .25 .4423828 .22099304 .4423828 .116989139 .4423828 .05999756 .3133545 .05999756 .28834535 .05999756 .27833558 .069992069 .27833558 .07199097 .27833558 .07998657 .27833558 .08299255 .28033448 .084991458 .28933717 .11898804 .39535523 .18499756 .42037965 .21899414 .42037965 .23799134 .42037965 .272995 .4113617 .272995 .35334779 .272995 .32235719 .2559967 .25532533 .21899414 .11528015 .20298767 .053268434 .16799927 .011245728 .12399292 .011245728 .117996219 .011245728 .09498596 .011245728 .07398987 .024276734 .09899902 .029266358 .12098694 .05027771 .12098694 .07827759 .12098694 .105270389 .09899902 .11328125 .083999637 .11328125 .053985597 .11328125 .0289917 .08728027 .0289917 .055267335 .0289917 .009246826 .07899475-.0107421879 .12298584-.0107421879 .18899536-.0107421879 .22499085 .059280397 .22799683 .0652771 .23999024 .028274537 .27598573-.0107421879 .33599855-.0107421879 .43899537-.0107421879 .49598695 .118270877 .49598695 .14328003 .49598695 .1532898 .4869995 .1532898 .48399354 .1532898 .47499085 .1532898 .47299195 .14929199 .47099305 .14228821 .43798829 .03527832 .36999513 .011245728 .33799745 .011245728 .29899598 .011245728 .2829895 .043273927 .2829895 .07727051 .2829895 .09927368 .2889862 .121276859 .2999878 .16529846L.33399964 .30233766Z"/>
<path id="font_1_2" d="M.48599244 .38136292C.48999024 .39537049 .48999024 .39736939 .48999024 .40437318 .48999024 .42237855 .47599793 .43138124 .46099855 .43138124 .45098878 .43138124 .43499757 .42536927 .42599488 .41036988 .42399598 .405365 .41600038 .37435914 .4119873 .35635377 .40499879 .33035279 .397995 .30334474 .3919983 .27633668L.34700013 .09628296C.34298707 .08126831 .2999878 .011245728 .23399353 .011245728 .18299866 .011245728 .17199707 .055267335 .17199707 .0922699 .17199707 .1382904 .18899536 .20030213 .22299195 .28833009 .23899842 .3293457 .24299622 .3403473 .24299622 .36035157 .24299622 .405365 .21099854 .4423828 .16099549 .4423828 .06599426 .4423828 .0289917 .29733277 .0289917 .28833009 .0289917 .27833558 .038986207 .27833558 .040985109 .27833558 .050994874 .27833558 .051986696 .28033448 .056991579 .29634095 .083999637 .3903656 .12399292 .42037965 .1579895 .42037965 .1659851 .42037965 .18299866 .42037965 .18299866 .3883667 .18299866 .36335755 .17298889 .3373413 .1659851 .31834413 .12599182 .21231079 .10798645 .1552887 .10798645 .10827637 .10798645 .019256592 .17098999-.0107421879 .22999573-.0107421879 .2689972-.0107421879 .30299378 .0062561037 .33099366 .03425598 .31799317-.017745972 .30599977-.06674194 .2659912-.11973572 .23999024-.15385437 .20199585-.18309021 .1559906-.18309021 .14199829-.18309021 .09700012-.18005371 .07998657-.14074707 .09599304-.14074707 .10899353-.14074707 .12298584-.1287384 .1329956-.11973572 .14299011-.10673523 .14299011-.08773804 .14299011-.056747438 .115997318-.052734376 .10598755-.052734376 .08299255-.052734376 .049987794-.068740848 .049987794-.11773682 .049987794-.16796875 .09399414-.20507813 .1559906-.20507813 .25898744-.20507813 .3619995-.11373901 .3899994-.00074768069L.48599244 .38136292Z"/>
<path id="font_2_1" d="M.6589966 .23046875C.6759949 .23046875 .69400027 .23046875 .69400027 .25045777 .69400027 .27046205 .6759949 .27046205 .6589966 .27046205H.117996219C.100997928 .27046205 .08299255 .27046205 .08299255 .25045777 .08299255 .23046875 .100997928 .23046875 .117996219 .23046875H.6589966Z"/>
<path id="font_3_3" d="M.1269989 .07699585 .23298645 .18003845C.3889923 .31811524 .44898988 .3721466 .44898988 .47216798 .44898988 .5860901 .35899354 .6660156 .23699951 .6660156 .12399292 .6660156 .049987794 .57411196 .049987794 .48516847 .049987794 .4291687 .099990848 .4291687 .102996829 .4291687 .11999512 .4291687 .15499878 .44117738 .15499878 .48217774 .15499878 .5081787 .13699341 .5341797 .101989749 .5341797 .09399414 .5341797 .09199524 .5341797 .08898926 .5331726 .11199951 .59806826 .1659851 .63500979 .22399903 .63500979 .31498719 .63500979 .35798646 .5541382 .35798646 .47216798 .35798646 .39215089 .30799867 .31311036 .25299073 .25108338L.06098938 .036987306C.049987794 .025985718 .049987794 .023986817 .049987794 0H.42099L.44898988 .17404175H.42399598C.4189911 .14402771 .4119873 .1000061 .4019928 .084991458 .394989 .07699585 .32899476 .07699585 .30699159 .07699585H.1269989Z"/>
<path id="font_3_1" d="M.45999146 .31976319C.45999146 .39982606 .45498658 .47988893 .41999818 .5539398 .37399293 .65000918 .2919922 .6660156 .25 .6660156 .18998719 .6660156 .116989139 .64001467 .07598877 .54693606 .04399109 .47789 .038986207 .39982606 .038986207 .31976319 .038986207 .24472046 .042999269 .15464783 .083999637 .07859802 .1269989-.0024719239 .19999695-.022460938 .24899292-.022460938 .30299378-.022460938 .3789978-.0014648438 .4229889 .09359741 .45498658 .16265869 .45999146 .2407074 .45999146 .31976319M.24899292-.00047302247C.20999146-.00047302247 .15098572 .024551392 .1329956 .12062073 .12199402 .18066406 .12199402 .2727356 .12199402 .3317871 .12199402 .39582826 .12199402 .46188355 .12998963 .5159149 .14898682 .63500979 .22399903 .64401248 .24899292 .64401248 .28199769 .64401248 .34799195 .6259918 .36698915 .52693179 .3769989 .47088624 .3769989 .39482118 .3769989 .3317871 .3769989 .25672914 .3769989 .18867493 .3659973 .12461853 .35099793 .029556275 .2939911-.00047302247 .24899292-.00047302247Z"/>
<path id="font_3_2" d="M.2939911 .64004519C.2939911 .66400149 .2939911 .6660156 .2709961 .6660156 .20899964 .60227969 .12098694 .60227969 .08898926 .60227969V.57128909C.10899353 .57128909 .16799927 .57128909 .21998596 .5972748V.07902527C.21998596 .042999269 .21699524 .0309906 .1269989 .0309906H.09498596V0C.12998963 .0029907227 .21699524 .0029907227 .25698854 .0029907227 .29699708 .0029907227 .38398744 .0029907227 .4189911 0V.0309906H.3869934C.29699708 .0309906 .2939911 .041992189 .2939911 .07902527V.64004519Z"/>
<path id="font_3_6" d="M.68699648 .32714845C.70199587 .32714845 .72099307 .32714845 .72099307 .34713746 .72099307 .36714173 .70199587 .36714173 .6879883 .36714173H.08898926C.07499695 .36714173 .055999757 .36714173 .055999757 .34713746 .055999757 .32714845 .07499695 .32714845 .08999634 .32714845H.68699648M.6879883 .13284302C.70199587 .13284302 .72099307 .13284302 .72099307 .15284729 .72099307 .17285156 .70199587 .17285156 .68699648 .17285156H.08999634C.07499695 .17285156 .055999757 .17285156 .055999757 .15284729 .055999757 .13284302 .07499695 .13284302 .08898926 .13284302H.6879883Z"/>
<path id="font_4_1" d="M.5049896 .18203736H.47099305C.46798707 .16001892 .45799256 .100997928 .44499208 .09098816 .43699647 .084991458 .3600006 .084991458 .34599305 .084991458H.1619873C.2669983 .17803955 .3019867 .20603943 .3619995 .25306703 .43598939 .312088 .5049896 .374115 .5049896 .46914674 .5049896 .5900879 .39898683 .6640625 .2709961 .6640625 .14698792 .6640625 .06298828 .57710269 .06298828 .4851532 .06298828 .43414308 .10598755 .42915345 .115997318 .42915345 .13999939 .42915345 .16899109 .44615174 .16899109 .48214723 .16899109 .5001526 .1619873 .53515627 .10998535 .53515627 .14099121 .6060791 .20899964 .62805178 .2559967 .62805178 .35598756 .62805178 .4079895 .5501404 .4079895 .46914674 .4079895 .38212586 .34599305 .3130951 .31399537 .27708436L.07299805 .038986207C.06298828 .02999878 .06298828 .027999878 .06298828 0H.47499085L.5049896 .18203736Z"/>
<path id="font_3_4" d="M.2899933 .35191346C.37199403 .37893678 .42999269 .4490509 .42999269 .52809146 .42999269 .6100464 .34199525 .6660156 .24598694 .6660156 .14498902 .6660156 .068984989 .60606387 .068984989 .53009036 .068984989 .49710084 .09098816 .47808839 .11999512 .47808839 .15098572 .47808839 .17098999 .50009158 .17098999 .5290985 .17098999 .57910159 .12399292 .57910159 .10899353 .57910159 .13999939 .62802127 .20599365 .64100649 .24198914 .64100649 .2829895 .64100649 .33799745 .6190338 .33799745 .5290985 .33799745 .51708987 .33599855 .45906068 .30999757 .4149933 .27999879 .36691285 .24598694 .36390687 .22099304 .36291505 .21299744 .36190797 .18899536 .35990907 .18199158 .35990907 .17399597 .35890199 .16699219 .35791017 .16699219 .3479004 .16699219 .33691407 .17399597 .33691407 .19099427 .33691407H.23498535C.31698609 .33691407 .35398866 .2686615 .35398866 .17037964 .35398866 .034469606 .2849884 .0055389406 .24099732 .0055389406 .19799805 .0055389406 .12298584 .022491456 .08799744 .08137512 .12298584 .07637024 .1539917 .09837341 .1539917 .1363678 .1539917 .17237854 .1269989 .19238281 .09799194 .19238281 .07398987 .19238281 .041992189 .17837525 .041992189 .1343689 .041992189 .043441774 .1349945-.022460938 .24398804-.022460938 .3659973-.022460938 .45700074 .06838989 .45700074 .17037964 .45700074 .252594 .3939972 .33088685 .2899933 .35191346Z"/>
<path id="font_3_5" d="M.16299439 .4569702C.116989139 .486969 .11299133 .52098086 .11299133 .5379791 .11299133 .598999 .17799378 .64100649 .24899292 .64100649 .32199098 .64100649 .38598634 .58898928 .38598634 .51698306 .38598634 .45996095 .34700013 .4119568 .2869873 .37695313L.16299439 .4569702M.30899049 .36193849C.3809967 .3989563 .42999269 .45095826 .42999269 .51698306 .42999269 .6090088 .34098817 .6660156 .25 .6660156 .1499939 .6660156 .068984989 .59199526 .068984989 .49897767 .068984989 .4809723 .070999149 .43595887 .11299133 .38894654 .12399292 .37695313 .16099549 .35194398 .18598938 .33494569 .12799073 .30592347 .041992189 .24984741 .041992189 .15072632 .041992189 .04458618 .14399719-.022460938 .24899292-.022460938 .3619995-.022460938 .45700074 .06060791 .45700074 .16773987 .45700074 .20379639 .44599916 .24885559 .4079895 .2909088 .3889923 .31193543 .37298585 .3219452 .30899049 .36193849M.20899964 .3199463 .33198548 .24183655C.3600006 .2228241 .40699769 .19277954 .40699769 .13169861 .40699769 .05760193 .33198548 .0055389406 .25 .0055389406 .1639862 .0055389406 .09199524 .067611698 .09199524 .15072632 .09199524 .20880127 .12399292 .27288819 .20899964 .3199463Z"/>
</defs>
<path transform="matrix(1.00002,0,0,-1,103.66278,73.095)" stroke-width=".3985" stroke-linecap="butt" stroke-miterlimit="10" stroke-linejoin="miter" fill="none" stroke="#00aeef" d="M-102.04953-85.04128H102.04953M-102.04953-68.03302H102.04953M-102.04953-51.02477H102.04953M-102.04953-34.0165H102.04953M-102.04953-17.00824H102.04953M-102.04953 0H102.04953M-102.04953 17.00824H102.04953M-102.04953 34.0165H102.04953M-102.04953 51.01878H102.04953M-102.04953-85.04128V51.02477M-85.04128-85.04128V51.02477M-68.03302-85.04128V51.02477M-51.02477-85.04128V51.02477M-34.0165-85.04128V51.02477M-17.00824-85.04128V51.02477M0-85.04128V51.02477M17.00824-85.04128V51.02477M34.0165-85.04128V51.02477M51.02477-85.04128V51.02477M68.03302-85.04128V51.02477M85.04128-85.04128V51.02477M102.04356-85.04128V51.02477M102.04953 51.02477"/>
<path transform="matrix(1.00002,0,0,-1,103.66278,73.095)" stroke-width=".79701" stroke-linecap="butt" stroke-miterlimit="10" stroke-linejoin="miter" fill="none" stroke="#000000" d="M-102.04953 0H109.11905"/>
<path transform="matrix(1.00002,0,0,-1,212.78401,73.095)" d="M1.0361 0C-.25902 .25902-1.55415 .77707-3.1083 1.68365-1.55415 .51805-1.55415-.51805-3.1083-1.68365-1.55415-.77707-.25902-.25902 1.0361 0Z"/>
<path transform="matrix(1.00002,0,0,-1,212.78401,73.095)" stroke-width=".79701" stroke-linecap="butt" stroke-linejoin="round" fill="none" stroke="#000000" d="M1.0361 0C-.25902 .25902-1.55415 .77707-3.1083 1.68365-1.55415 .51805-1.55415-.51805-3.1083-1.68365-1.55415-.77707-.25902-.25902 1.0361 0Z"/>
<use data-text="x" xlink:href="#font_1_1" transform="matrix(9.962799,0,0,-9.9626,217.93808,75.240009)"/>
<path transform="matrix(1.00002,0,0,-1,103.66278,73.095)" stroke-width=".79701" stroke-linecap="butt" stroke-miterlimit="10" stroke-linejoin="miter" fill="none" stroke="#000000" d="M0-85.04128V59.7952"/>
<path transform="matrix(0,-1,-1.00002,-0,103.66278,13.299801)" d="M1.0361 0C-.25902 .25902-1.55415 .77707-3.1083 1.68365-1.55415 .51805-1.55415-.51805-3.1083-1.68365-1.55415-.77707-.25902-.25902 1.0361 0Z"/>
<path transform="matrix(0,-1,-1.00002,-0,103.66278,13.299801)" stroke-width=".79701" stroke-linecap="butt" stroke-linejoin="round" fill="none" stroke="#000000" d="M1.0361 0C-.25902 .25902-1.55415 .77707-3.1083 1.68365-1.55415 .51805-1.55415-.51805-3.1083-1.68365-1.55415-.77707-.25902-.25902 1.0361 0Z"/>
<use data-text="y" xlink:href="#font_1_2" transform="matrix(9.962799,0,0,-9.9626,101.041728,6.2089998)"/>
<path transform="matrix(1.00002,0,0,-1,103.66278,73.095)" stroke-width=".3985" stroke-linecap="butt" stroke-miterlimit="10" stroke-linejoin="miter" fill="none" stroke="#000000" d="M-68.03302 2.55112V-2.55139"/>
<path transform="matrix(1.00002,0,0,-1,103.66278,73.095)" d="M-77.88513-13.98642H-58.18093V-4.74319H-77.88513Z" fill="#ffffff"/>
<use data-text="&#x2212;" xlink:href="#font_2_1" transform="matrix(9.962799,0,0,-9.9626,26.772233,85.255008)"/>
<use data-text="2" xlink:href="#font_3_3" transform="matrix(9.962799,0,0,-9.9626,34.521379,85.255008)"/>
<use data-text="0" xlink:href="#font_3_1" transform="matrix(9.962799,0,0,-9.9626,39.50276,85.255008)"/>
<path transform="matrix(1.00002,0,0,-1,103.66278,73.095)" stroke-width=".3985" stroke-linecap="butt" stroke-miterlimit="10" stroke-linejoin="miter" fill="none" stroke="#000000" d="M34.0165 2.55112V-2.55139"/>
<path transform="matrix(1.00002,0,0,-1,103.66278,73.095)" d="M28.03882-13.15617H39.99416V-4.74319H28.03882Z" fill="#ffffff"/>
<use data-text="1" xlink:href="#font_3_2" transform="matrix(9.962799,0,0,-9.9626,132.69837,85.255008)"/>
<use data-text="0" xlink:href="#font_3_1" transform="matrix(9.962799,0,0,-9.9626,137.67975,85.255008)"/>
<path transform="matrix(1.00002,0,0,-1,103.66278,73.095)" stroke-width=".3985" stroke-linecap="butt" stroke-miterlimit="10" stroke-linejoin="miter" fill="none" stroke="#000000" d="M68.03302 2.55112V-2.55139"/>
<path transform="matrix(1.00002,0,0,-1,103.66278,73.095)" d="M62.05534-13.15617H74.01068V-4.74319H62.05534Z" fill="#ffffff"/>
<use data-text="2" xlink:href="#font_3_3" transform="matrix(9.962799,0,0,-9.9626,166.71604,85.255008)"/>
<use data-text="0" xlink:href="#font_3_1" transform="matrix(9.962799,0,0,-9.9626,171.69742,85.255008)"/>
<path transform="matrix(1.00002,0,0,-1,103.66278,73.095)" stroke-width=".3985" stroke-linecap="butt" stroke-miterlimit="10" stroke-linejoin="miter" fill="none" stroke="#000000" d="M5.10251-68.03302H-5.10251"/>
<path transform="matrix(1.00002,0,0,-1,103.66278,73.095)" d="M-31.97989-72.65465H-7.2943117V-63.41142H-31.97989Z" fill="#ffffff"/>
<use data-text="&#x2212;" xlink:href="#font_2_1" transform="matrix(9.962799,0,0,-9.9626,72.67816,143.923)"/>
<use data-text="2" xlink:href="#font_3_3" transform="matrix(9.962799,0,0,-9.9626,80.42731,143.923)"/>
<use data-text="0" xlink:href="#font_3_1" transform="matrix(9.962799,0,0,-9.9626,85.40869,143.923)"/>
<use data-text="0" xlink:href="#font_3_1" transform="matrix(9.962799,0,0,-9.9626,90.39009,143.923)"/>
<path transform="matrix(1.00002,0,0,-1,103.66278,73.095)" stroke-width=".3985" stroke-linecap="butt" stroke-miterlimit="10" stroke-linejoin="miter" fill="none" stroke="#000000" d="M5.10251-34.0165H-5.10251"/>
<path transform="matrix(1.00002,0,0,-1,103.66278,73.095)" d="M-31.97989-38.63812H-7.2943117V-29.39489H-31.97989Z" fill="#ffffff"/>
<use data-text="&#x2212;" xlink:href="#font_2_1" transform="matrix(9.962799,0,0,-9.9626,72.67816,109.907)"/>
<use data-text="1" xlink:href="#font_3_2" transform="matrix(9.962799,0,0,-9.9626,80.42731,109.907)"/>
<use data-text="0" xlink:href="#font_3_1" transform="matrix(9.962799,0,0,-9.9626,85.40869,109.907)"/>
<use data-text="0" xlink:href="#font_3_1" transform="matrix(9.962799,0,0,-9.9626,90.39009,109.907)"/>
<path transform="matrix(1.00002,0,0,-1,103.66278,73.095)" stroke-width=".3985" stroke-linecap="butt" stroke-miterlimit="10" stroke-linejoin="miter" fill="none" stroke="#000000" d="M5.10251 34.0165H-5.10251"/>
<path transform="matrix(1.00002,0,0,-1,103.66278,73.095)" d="M-24.23105 29.81001H-7.2943308V38.222993H-24.23105Z" fill="#ffffff"/>
<use data-text="1" xlink:href="#font_3_2" transform="matrix(9.962799,0,0,-9.9626,80.427318,42.289)"/>
<use data-text="0" xlink:href="#font_3_1" transform="matrix(9.962799,0,0,-9.9626,85.4087,42.289)"/>
<use data-text="0" xlink:href="#font_3_1" transform="matrix(9.962799,0,0,-9.9626,90.3901,42.289)"/>
<path transform="matrix(1.00002,0,0,-1,103.66278,73.095)" stroke-width="1.19553" stroke-linecap="butt" stroke-miterlimit="10" stroke-linejoin="miter" fill="none" stroke="#ff0000" d="M-55.9775 49.16031C-55.09038 45.98126-55.09038 45.98126-54.55638 44.10919-54.02237 42.23709-53.166 39.28326-52.63199 37.47156-52.09799 35.65987-51.24162 32.803-50.70763 31.05168-50.1736 29.30035-49.31725 26.5402-48.78323 24.84929-48.24924 23.15836-47.39285 20.49513-46.85886 18.86462-46.32484 17.23413-45.46849 14.66783-44.93448 13.09772-44.40047 11.52759-43.5441 9.05804-43.0101 7.54828-42.47609 6.03853-41.61972 3.66571-41.08571 2.21634-40.55171 .76695-39.69534-1.50885-39.16133-2.89784-38.62732-4.28683-37.77097-6.46596-37.23695-7.79457-36.70296-9.12317-35.84657-11.20532-35.31258-12.47356-34.77856-13.74178-33.9222-15.72723-33.38818-16.93506-32.85417-18.14288-31.99782-20.0314-31.4638-21.17882-30.9298-22.32623-30.07343-24.1178-29.53943-25.20483-29.00542-26.29185-28.14905-27.9867-27.61504-29.01338-27.08104-30.04004-26.22467-31.63812-25.69067-32.60442-25.15665-33.57071-24.3003-35.07184-23.76628-35.97774-23.23228-36.88362-22.3759-38.28804-21.8419-39.13356-21.30789-39.97906-20.45154-41.28656-19.91751-42.07166-19.38351-42.85674-18.52715-44.06725-17.99315-44.79198-17.45914-45.51674-16.60277-46.63075-16.06876-47.2951-15.53476-47.95947-14.67839-48.9763-14.14436-49.58025-13.61037-50.18419-12.754-51.1043-12.22-51.64787-11.68597-52.19147-10.82962-53.01485-10.29561-53.49803-9.76161-53.98123-8.90524-54.70769-8.37123-55.13045-7.83722-55.55322-6.98087-56.18271-6.44685-56.54512-5.91284-56.90755-5.05647-57.44055-4.52248-57.74258-3.98846-58.04462-3.1321-58.48041-2.59808-58.72202-2.06409-58.96364-1.20772-59.30273-.6737-59.484-.1397-59.66527 .71663-59.9076 1.25063-60.02847 1.78462-60.14935 2.641-60.29477 3.17502-60.35522 3.70901-60.41568 4.56538-60.46411 5.0994-60.46422 5.63339-60.46432 6.48978-60.41628 7.02377-60.356 7.5578-60.29572 8.41415-60.15047 8.94817-60.02977 9.48216-59.90907 10.33853-59.6671 10.87254-59.48607 11.40656-59.30501 12.26291-58.96631 12.79692-58.72487 13.33093-58.48344 14.1873-58.0478 14.7213-57.74596 15.25531-57.44409 16.11168-56.91148 16.64569-56.54927 17.17969-56.18707 18.03606-55.55798 18.57005-55.13538 19.10406-54.7128 19.96043-53.98651 20.49445-53.5035 21.02844-53.02046 21.88483-52.19746 22.41882-51.6541 22.95282-51.11075 23.80919-50.191 24.34322-49.58725 24.87721-48.98349 25.73358-47.96681 26.26758-47.30264 26.80157-46.63846 27.65797-45.52486 28.19197-44.8003 28.72598-44.07574 29.58234-42.86539 30.11636-42.08046 30.65036-41.29556 31.50673-39.98846 32.04073-39.14316 32.57474-38.29787 33.4311-36.8938 33.96512-35.98811 34.49911-35.08241 35.3555-33.58165 35.8895-32.61559 36.4235-31.6495 37.27986-30.05179 37.81387-29.0253 38.34789-27.9988 39.20425-26.30417 39.73825-25.21729 40.27225-24.1304 41.12863-22.33902 41.66264-21.19179 42.19664-20.04456 43.05301-18.15643 43.58702-16.94882 44.12102-15.74118 44.97739-13.75609 45.5114-12.48808 46.0454-11.2201 46.90178-9.13828 47.43579-7.80989 47.96979-6.48148 48.82616-4.30275 49.36017-2.91394 49.89417-1.52512 50.75053 .75052 51.28455 2.19972 51.81856 3.64893 52.67493 6.02133 53.20892 7.53088 53.74292 9.04044 54.59929 11.50961 55.13332 13.07954 55.66731 14.64949 56.52368 17.21556 57.05768 18.84593 57.59169 20.4763 58.44806 23.13933 58.98207 24.83008 59.51607 26.52083 60.37245 29.2806 60.90645 31.03168 61.44044 32.78279 62.29681 35.63931 62.83083 37.45079 63.36484 39.2623 64.2212 42.21577 64.7552 44.08765 65.2892 45.9595 66.6796 50.94197 66.17622 49.13802"/>
<path transform="matrix(-.2687054,-.96317,-.9631893,.2687,47.68416,23.9347)" d="M1.27522 0C-.31879 .31879-1.91284 .9564-3.8257 2.07224-1.91284 .6376-1.91284-.6376-3.8257-2.07224-1.91284-.9564-.31879-.31879 1.27522 0Z" fill="#ff0000"/>
<path transform="matrix(-.2687054,-.96317,-.9631893,.2687,47.68416,23.9347)" stroke-width="1.19553" stroke-linecap="butt" stroke-linejoin="round" fill="none" stroke="#ff0000" d="M1.27522 0C-.31879 .31879-1.91284 .9564-3.8257 2.07224-1.91284 .6376-1.91284-.6376-3.8257-2.07224-1.91284-.9564-.31879-.31879 1.27522 0Z"/>
<path transform="matrix(.2687554,-.96315,-.96316936,-.26875,169.84033,23.957)" d="M1.27522 0C-.31879 .31879-1.91284 .9564-3.8257 2.07224-1.91284 .6376-1.91284-.6376-3.8257-2.07224-1.91284-.9564-.31879-.31879 1.27522 0Z" fill="#ff0000"/>
<path transform="matrix(.2687554,-.96315,-.96316936,-.26875,169.84033,23.957)" stroke-width="1.19553" stroke-linecap="butt" stroke-linejoin="round" fill="none" stroke="#ff0000" d="M1.27522 0C-.31879 .31879-1.91284 .9564-3.8257 2.07224-1.91284 .6376-1.91284-.6376-3.8257-2.07224-1.91284-.9564-.31879-.31879 1.27522 0Z"/>
<path transform="matrix(1.00002,0,0,-1,103.66278,73.095)" d="M17.20749-74.05276H97.86188V-62.013288H17.20749Z" fill="#ffffff"/>
<use data-text="y" xlink:href="#font_1_2" transform="matrix(9.962799,0,0,-9.9626,121.86714,144.214)" fill="#ff0000"/>
<use data-text="=" xlink:href="#font_3_6" transform="matrix(9.962799,0,0,-9.9626,129.8763,144.214)" fill="#ff0000"/>
<use data-text="x" xlink:href="#font_1_1" transform="matrix(9.962799,0,0,-9.9626,140.39252,144.214)" fill="#ff0000"/>
<use data-text="2" xlink:href="#font_4_1" transform="matrix(6.97394,0,0,-6.9738,146.08663,140.599)" fill="#ff0000"/>
<use data-text="&#x2212;" xlink:href="#font_2_1" transform="matrix(9.962799,0,0,-9.9626,152.76976,144.214)" fill="#ff0000"/>
<use data-text="3" xlink:href="#font_3_4" transform="matrix(9.962799,0,0,-9.9626,162.73296,144.214)" fill="#ff0000"/>
<use data-text="x" xlink:href="#font_1_1" transform="matrix(9.962799,0,0,-9.9626,167.71407,144.214)" fill="#ff0000"/>
<use data-text="&#x2212;" xlink:href="#font_2_1" transform="matrix(9.962799,0,0,-9.9626,175.62223,144.214)" fill="#ff0000"/>
<use data-text="1" xlink:href="#font_3_2" transform="matrix(9.962799,0,0,-9.9626,185.58542,144.214)" fill="#ff0000"/>
<use data-text="8" xlink:href="#font_3_5" transform="matrix(9.962799,0,0,-9.9626,190.56684,144.214)" fill="#ff0000"/>
<use data-text="0" xlink:href="#font_3_1" transform="matrix(9.962799,0,0,-9.9626,195.54822,144.214)" fill="#ff0000"/>
</svg>
