<svg xmlns="http://www.w3.org/2000/svg" xmlns:xlink="http://www.w3.org/1999/xlink" version="1.1" width="195" height="164" viewBox="0 0 195 164">
<defs>
<path id="font_1_1" d="M.33399964 .30233766C.33999635 .32835389 .36299134 .42037965 .43299867 .42037965 .43798829 .42037965 .46199037 .42037965 .48298646 .40734864 .45498658 .402359 .43499757 .37734986 .43499757 .35334779 .43499757 .33735658 .44599916 .31835938 .47299195 .31835938 .49499513 .31835938 .5269928 .3363495 .5269928 .37635804 .5269928 .42837525 .46798707 .4423828 .43399049 .4423828 .37599183 .4423828 .34098817 .38935853 .32899476 .36634828 .3039856 .43237306 .25 .4423828 .22099304 .4423828 .116989139 .4423828 .05999756 .3133545 .05999756 .28834535 .05999756 .27833558 .069992069 .27833558 .07199097 .27833558 .07998657 .27833558 .08299255 .28033448 .084991458 .28933717 .11898804 .39535523 .18499756 .42037965 .21899414 .42037965 .23799134 .42037965 .272995 .4113617 .272995 .35334779 .272995 .32235719 .2559967 .25532533 .21899414 .11528015 .20298767 .053268434 .16799927 .011245728 .12399292 .011245728 .117996219 .011245728 .09498596 .011245728 .07398987 .024276734 .09899902 .029266358 .12098694 .05027771 .12098694 .07827759 .12098694 .105270389 .09899902 .11328125 .083999637 .11328125 .053985597 .11328125 .0289917 .08728027 .0289917 .055267335 .0289917 .009246826 .07899475-.0107421879 .12298584-.0107421879 .18899536-.0107421879 .22499085 .059280397 .22799683 .0652771 .23999024 .028274537 .27598573-.0107421879 .33599855-.0107421879 .43899537-.0107421879 .49598695 .118270877 .49598695 .14328003 .49598695 .1532898 .4869995 .1532898 .48399354 .1532898 .47499085 .1532898 .47299195 .14929199 .47099305 .14228821 .43798829 .03527832 .36999513 .011245728 .33799745 .011245728 .29899598 .011245728 .2829895 .043273927 .2829895 .07727051 .2829895 .09927368 .2889862 .121276859 .2999878 .16529846L.33399964 .30233766Z"/>
<path id="font_1_2" d="M.48599244 .38136292C.48999024 .39537049 .48999024 .39736939 .48999024 .40437318 .48999024 .42237855 .47599793 .43138124 .46099855 .43138124 .45098878 .43138124 .43499757 .42536927 .42599488 .41036988 .42399598 .405365 .41600038 .37435914 .4119873 .35635377 .40499879 .33035279 .397995 .30334474 .3919983 .27633668L.34700013 .09628296C.34298707 .08126831 .2999878 .011245728 .23399353 .011245728 .18299866 .011245728 .17199707 .055267335 .17199707 .0922699 .17199707 .1382904 .18899536 .20030213 .22299195 .28833009 .23899842 .3293457 .24299622 .3403473 .24299622 .36035157 .24299622 .405365 .21099854 .4423828 .16099549 .4423828 .06599426 .4423828 .0289917 .29733277 .0289917 .28833009 .0289917 .27833558 .038986207 .27833558 .040985109 .27833558 .050994874 .27833558 .051986696 .28033448 .056991579 .29634095 .083999637 .3903656 .12399292 .42037965 .1579895 .42037965 .1659851 .42037965 .18299866 .42037965 .18299866 .3883667 .18299866 .36335755 .17298889 .3373413 .1659851 .31834413 .12599182 .21231079 .10798645 .1552887 .10798645 .10827637 .10798645 .019256592 .17098999-.0107421879 .22999573-.0107421879 .2689972-.0107421879 .30299378 .0062561037 .33099366 .03425598 .31799317-.017745972 .30599977-.06674194 .2659912-.11973572 .23999024-.15385437 .20199585-.18309021 .1559906-.18309021 .14199829-.18309021 .09700012-.18005371 .07998657-.14074707 .09599304-.14074707 .10899353-.14074707 .12298584-.1287384 .1329956-.11973572 .14299011-.10673523 .14299011-.08773804 .14299011-.056747438 .115997318-.052734376 .10598755-.052734376 .08299255-.052734376 .049987794-.068740848 .049987794-.11773682 .049987794-.16796875 .09399414-.20507813 .1559906-.20507813 .25898744-.20507813 .3619995-.11373901 .3899994-.00074768069L.48599244 .38136292Z"/>
</defs>
<path transform="matrix(1,0,0,-1.00006,44.332,91.24169)" stroke-width=".3985" stroke-linecap="butt" stroke-miterlimit="10" stroke-linejoin="miter" fill="none" stroke="#cbcbcb" d="M-42.5202-70.867H127.56062M-42.5202-56.69362H127.56062M-42.5202-42.5202H127.56062M-42.5202-28.3468H127.56062M-42.5202-14.17339H127.56062M-42.5202 0H127.56062M-42.5202 14.17339H127.56062M-42.5202 28.3468H127.56062M-42.5202 42.5202H127.56062M-42.5202 56.69362H127.56062M-42.5202 70.86205H127.56062M-42.5202-70.867V70.867M-21.2601-70.867V70.867M0-70.867V70.867M21.2601-70.867V70.867M42.5202-70.867V70.867M63.7803-70.867V70.867M85.04042-70.867V70.867M106.30052-70.867V70.867M127.55316-70.867V70.867M127.56062 70.867"/>
<path transform="matrix(1,0,0,-1.00006,44.332,91.24169)" stroke-width=".79701" stroke-linecap="butt" stroke-miterlimit="10" stroke-linejoin="miter" fill="none" stroke="#000000" d="M-42.5202 0H138.88222"/>
<path transform="matrix(1,0,0,-1.00006,183.21422,91.24169)" d="M1.0361 0C-.25902 .25902-1.55415 .77707-3.1083 1.68365-1.55415 .51805-1.55415-.51805-3.1083-1.68365-1.55415-.77707-.25902-.25902 1.0361 0Z"/>
<path transform="matrix(1,0,0,-1.00006,183.21422,91.24169)" stroke-width=".79701" stroke-linecap="butt" stroke-linejoin="round" fill="none" stroke="#000000" d="M1.0361 0C-.25902 .25902-1.55415 .77707-3.1083 1.68365-1.55415 .51805-1.55415-.51805-3.1083-1.68365-1.55415-.77707-.25902-.25902 1.0361 0Z"/>
<use data-text="x" xlink:href="#font_1_1" transform="matrix(9.9626,0,0,-9.963197,188.368,93.38682)"/>
<path transform="matrix(1,0,0,-1.00006,44.332,91.24169)" stroke-width=".79701" stroke-linecap="butt" stroke-miterlimit="10" stroke-linejoin="miter" fill="none" stroke="#000000" d="M0-70.867V77.93652"/>
<path transform="matrix(0,-1.00006,-1,-0,44.332,13.300491)" d="M1.0361 0C-.25902 .25902-1.55415 .77707-3.1083 1.68365-1.55415 .51805-1.55415-.51805-3.1083-1.68365-1.55415-.77707-.25902-.25902 1.0361 0Z"/>
<path transform="matrix(0,-1.00006,-1,-0,44.332,13.300491)" stroke-width=".79701" stroke-linecap="butt" stroke-linejoin="round" fill="none" stroke="#000000" d="M1.0361 0C-.25902 .25902-1.55415 .77707-3.1083 1.68365-1.55415 .51805-1.55415-.51805-3.1083-1.68365-1.55415-.77707-.25902-.25902 1.0361 0Z"/>
<use data-text="y" xlink:href="#font_1_2" transform="matrix(9.9626,0,0,-9.963197,41.711,6.2095949)"/>
<path transform="matrix(1,0,0,-1.00006,44.332,91.24169)" stroke-width="1.19553" stroke-linecap="butt" stroke-miterlimit="10" stroke-linejoin="miter" fill="none" stroke="#ff0000" d="M-42.5202-2.83463C-42.5202-2.83463-41.3682-2.86574-40.92575-2.87788-40.4833-2.89003-39.77374-2.90967-39.33131-2.92221-38.88885-2.93475-38.17932-2.95535-37.73686-2.96828-37.29443-2.9812-36.58487-3.00208-36.14243-3.01543-35.69998-3.02878-34.99042-3.05069-34.54797-3.06451-34.10553-3.07835-33.39598-3.10088-32.95354-3.11513-32.5111-3.12938-31.80154-3.15254-31.35909-3.16725-30.91666-3.18195-30.20709-3.20586-29.76466-3.2211-29.3222-3.23634-28.61266-3.26137-28.1702-3.27711-27.72777-3.29286-27.0182-3.31831-26.57576-3.33464-26.13332-3.35095-25.42377-3.37784-24.98132-3.39476-24.53888-3.41168-23.82932-3.43909-23.38689-3.45662-22.94443-3.47414-22.23488-3.50285-21.79242-3.52106-21.34999-3.53928-20.64043-3.56895-20.198-3.58789-19.75554-3.60681-19.04599-3.63779-18.60355-3.65753-18.1611-3.67726-17.45155-3.70967-17.00911-3.7302-16.56667-3.75072-15.85712-3.78421-15.41466-3.80545-14.97223-3.82669-14.26265-3.8612-13.82022-3.8833-13.37776-3.90543-12.66823-3.9418-12.22577-3.96484-11.78334-3.98788-11.07378-4.02534-10.63133-4.04941-10.18889-4.07347-9.47934-4.11314-9.0369-4.13829-8.59445-4.16344-7.88489-4.20436-7.44244-4.23064-7-4.25693-6.29045-4.30022-5.84799-4.32774-5.40556-4.35526-4.696-4.40024-4.25357-4.42896-3.81111-4.45767-3.10156-4.5045-2.65912-4.53471-2.21667-4.56493-1.50711-4.61493-1.06467-4.64673-.62222-4.67854 .08728-4.73064 .52974-4.76396 .97217-4.7973 1.68173-4.85191 2.12418-4.88702 2.56662-4.92212 3.27617-4.97997 3.71861-5.017 4.16106-5.05402 4.87062-5.11482 5.31306-5.15388 5.75551-5.19296 6.46506-5.25732 6.90752-5.29858 7.34995-5.33984 8.05951-5.40762 8.50194-5.45125 8.9444-5.49489 9.65395-5.56679 10.09639-5.61304 10.53883-5.65926 11.24838-5.73535 11.69083-5.78453 12.13327-5.83371 12.84283-5.91515 13.28528-5.9675 13.72772-6.01985 14.43729-6.10611 14.87971-6.16191 15.32217-6.21773 16.03171-6.31029 16.47417-6.36975 16.9166-6.42923 17.62616-6.52689 18.0686-6.59056 18.51105-6.65424 19.22061-6.76006 19.66306-6.82867 20.1055-6.8973 20.81505-7.01123 21.25749-7.08517 21.69994-7.1591 22.40948-7.28171 22.85194-7.36157 23.29437-7.4414 24.00394-7.57434 24.44637-7.66066 24.88882-7.747 25.59837-7.88997 26.04083-7.98376 26.48326-8.07756 27.19283-8.23447 27.63527-8.33673 28.07771-8.43898 28.78726-8.6091 29.2297-8.72083 29.67215-8.83252 30.38171-9.019 30.82414-9.14189 31.2666-9.26479 31.97615-9.47057 32.41861-9.60666 32.86104-9.74272 33.5706-9.97183 34.01303-10.12267 34.45549-10.27351 35.16504-10.52533 35.60748-10.69383 36.04993-10.86235 36.75948-11.14786 37.20192-11.33723 37.64436-11.5266 38.35391-11.84415 38.79637-12.05872 39.2388-12.2733 39.94838-12.63857 40.39081-12.88377 40.83327-13.129 41.5428-13.54408 41.98526-13.82605 42.42769-14.10803 43.13725-14.5874 43.5797-14.91605 44.02214-15.24472 44.73169-15.80675 45.17413-16.19485 45.61658-16.58296 46.32614-17.24847 46.76859-17.71327 47.21103-18.17807 47.92058-18.9778 48.36304-19.54486 48.80547-20.11192 49.51503-21.09299 49.95746-21.80032 50.39992-22.50768 51.10947-23.73578 51.55191-24.64297 51.99435-25.55017 52.70392-27.1329 53.14636-28.33879 53.5888-29.54468 54.29836-31.65031 54.7408-33.33418 55.18324-35.01804 55.8928-37.95374 56.33524-40.47495 56.7777-42.99615 57.48723-47.29784 57.92969-51.50531 58.37212-55.71278 59.52412-70.79953 59.52412-70.79953"/>
<path transform="matrix(1,0,0,-1.00006,44.332,91.24169)" stroke-width="1.19553" stroke-linecap="butt" stroke-miterlimit="10" stroke-linejoin="miter" fill="none" stroke="#ff0000" d="M68.03227 70.867C68.03227 70.867 68.70424 61.14178 68.96233 58.14952 69.22041 55.15727 69.63431 51.43227 69.8924 49.30087 70.15048 47.1695 70.56436 44.3837 70.82245 42.78793 71.08054 41.19217 71.49445 39.04 71.75252 37.7997 72.0106 36.55939 72.4245 34.8412 72.68259 33.84868 72.94066 32.85614 73.35457 31.45767 73.61266 30.64616 73.87074 29.83467 74.28462 28.67606 74.54271 27.9999 74.8008 27.32373 75.2147 26.34535 75.47278 25.77275 75.73087 25.20018 76.14476 24.36382 76.40285 23.87306 76.66092 23.3823 77.07483 22.66115 77.33292 22.23569 77.591 21.81021 78.00488 21.17914 78.26297 20.80658 78.52106 20.43402 78.93495 19.87915 79.19304 19.55048 79.45113 19.22183 79.86502 18.72986 80.1231 18.43779 80.38118 18.14569 80.79509 17.70674 81.05318 17.44533 81.31125 17.1839 81.72514 16.78911 81.98323 16.55363 82.24132 16.31818 82.65521 15.9613 82.9133 15.74826 83.17139 15.53522 83.58527 15.21169 83.84335 15.01813 84.10144 14.8246 84.51535 14.5303 84.77342 14.35332 85.03151 14.17636 85.4454 13.9048 85.70349 13.74258 85.96156 13.58038 86.37547 13.33282 86.63356 13.18419 86.89165 13.03552 87.30553 12.80885 87.56361 12.67119 87.8217 12.53352 88.23561 12.31978 88.49368 12.19194 88.75177 12.06407 89.16566 11.86786 89.42375 11.74966 89.68182 11.63147 90.09573 11.45035 90.35382 11.34004 90.61191 11.22974 91.02579 11.05788 91.28387 10.95467 91.54196 10.85144 91.95586 10.69244 92.21394 10.59608 92.47203 10.49974 92.88593 10.35031 93.144 10.26022 93.40208 10.17015 93.816 10.03162 94.07408 9.94684 94.33215 9.86208 94.74605 9.7293 95.00414 9.64926 95.26222 9.56924 95.67612 9.44519 95.9342 9.37006 96.19229 9.29492 96.60619 9.17873 96.86426 9.10773 97.12234 9.03673 97.53625 8.92578 97.79434 8.85837 98.05241 8.79094 98.46631 8.68567 98.7244 8.62177 98.98248 8.55786 99.39638 8.4579 99.65446 8.39772 99.91255 8.33752 100.32643 8.24515 100.58452 8.18793 100.8426 8.1307 101.25652 8.04013 101.51459 7.98529 101.77267 7.93044 102.18657 7.84471 102.44466 7.79259 102.70273 7.74048 103.11664 7.6592 103.37473 7.60963 103.63281 7.56006 104.04669 7.4827 104.30478 7.43532 104.56287 7.38794 104.97676 7.31335 105.23485 7.26813 105.49294 7.22293 105.90683 7.15266 106.1649 7.10939 106.42299 7.06613 106.8369 6.99799 107.09499 6.95628 107.35306 6.91457 107.76695 6.8485 108.02504 6.80878 108.28313 6.76906 108.69702 6.70787 108.95511 6.66994 109.2132 6.63202 109.62709 6.57199 109.88516 6.53542 110.14325 6.49884 110.55716 6.4415 110.81525 6.40631 111.07332 6.37111 111.48721 6.31552 111.7453 6.28174 112.00339 6.24794 112.41728 6.19531 112.67537 6.16278 112.93346 6.13026 113.34734 6.07869 113.60542 6.04729 113.86351 6.01591 114.27742 5.96669 114.53549 5.93657 114.79358 5.90645 115.20747 5.85927 115.46556 5.83017 115.72363 5.80107 116.13754 5.75496 116.39563 5.72679 116.65372 5.69861 117.0676 5.65417 117.32568 5.62708 117.58377 5.59999 117.99767 5.55765 118.25575 5.5315 118.51384 5.50533 118.92773 5.46391 119.1858 5.4385 119.4439 5.4131 119.8578 5.37283 120.11589 5.34833 120.37396 5.3238 120.78787 5.28545 121.04596 5.26181 121.30405 5.23817 121.71794 5.20085 121.97603 5.17789 122.23412 5.15494 122.64801 5.11862 122.90608 5.09636 123.16417 5.0741 123.57808 5.03899 123.83617 5.01743 124.09424 4.99585 124.50813 4.9618 124.76622 4.94086 125.0243 4.91994 125.4382 4.88675 125.69629 4.86647 125.95438 4.84619 126.36826 4.81435 126.62634 4.79466 126.88443 4.775 127.55641 4.7246 127.55641 4.7246"/>
<path transform="matrix(1,0,0,-1.00006,44.332,91.24169)" stroke-width="1.19553" stroke-linecap="butt" stroke-dasharray="2.98883,2.98883" stroke-miterlimit="10" stroke-linejoin="miter" fill="none" stroke="#0000ff" d="M63.7803 70.867V-70.867"/>
</svg>
