<svg xmlns="http://www.w3.org/2000/svg" xmlns:xlink="http://www.w3.org/1999/xlink" version="1.1" width="159" height="214" viewBox="0 0 159 214">
<defs>
<path id="font_1_2" d="M.20599365 .3996582H.2999878C.31999208 .3996582 .32998658 .3996582 .32998658 .41966249 .32998658 .43066407 .31999208 .43066407 .3019867 .43066407H.21398926C.25 .5724945 .25498963 .59246829 .25498963 .59846499 .25498963 .61546328 .24299622 .62545779 .22599793 .62545779 .22299195 .62545779 .19499207 .62446597 .18598938 .58947756L.14698792 .43066407H.052993776C.032989503 .43066407 .022994996 .43066407 .022994996 .4116516 .022994996 .3996582 .0309906 .3996582 .050994874 .3996582H.13899231C.066986087 .11608887 .06298828 .099121097 .06298828 .08114624 .06298828 .02722168 .100997928-.0107421879 .15499878-.0107421879 .25698854-.0107421879 .31399537 .13505554 .31399537 .14305115 .31399537 .1530304 .30599977 .1530304 .3019867 .1530304 .29299928 .1530304 .2919922 .15003968 .2869873 .13905335 .24398804 .035217287 .19099427 .011245728 .15699768 .011245728 .13598633 .011245728 .12599182 .024230957 .12599182 .057174684 .12599182 .08114624 .12799073 .088134769 .13198853 .10510254L.20599365 .3996582Z"/>
<path id="font_1_1" d="M.2869873 .68333438C.2869873 .6843262 .2869873 .69433596 .27398683 .69433596 .25099183 .69433596 .17799378 .6863251 .1519928 .6843262 .14399719 .68333438 .1329956 .6823273 .1329956 .6643219 .1329956 .6523285 .14199829 .6523285 .15699768 .6523285 .20498657 .6523285 .20698548 .6453247 .20698548 .6353302L.20399475 .6153412 .05899048 .039260866C.054992677 .025253296 .054992677 .023254395 .054992677 .01725769 .054992677-.0057525637 .07499695-.0107421879 .083999637-.0107421879 .099990848-.0107421879 .115997318 .0012512207 .12098694 .015258789L.13999939 .091278079 .1619873 .18130493C.16799927 .2033081 .17399597 .22531128 .1789856 .24832154 .18099976 .25431825 .18899536 .28733827 .18998719 .29333497 .19299317 .30233766 .22399903 .35835267 .2579956 .38536073 .27999879 .4013672 .31098939 .42037965 .35398866 .42037965 .39698792 .42037965 .4079895 .3863678 .4079895 .35035707 .4079895 .29634095 .36999513 .18730164 .34599305 .12628174 .33799745 .103271488 .33299256 .091278079 .33299256 .0712738 .33299256 .024261475 .36799623-.0107421879 .4149933-.0107421879 .5089874-.0107421879 .54599 .13528443 .54599 .14329529 .54599 .1532898 .5369873 .1532898 .5339966 .1532898 .5239868 .1532898 .5239868 .15029907 .5189972 .13528443 .5039978 .08227539 .47200013 .011245728 .4169922 .011245728 .3999939 .011245728 .3929901 .021255494 .3929901 .044265748 .3929901 .0692749 .4019928 .09327698 .41099549 .11528015 .4269867 .15829468 .47200013 .2773285 .47200013 .3353424 .47200013 .4003601 .43199159 .4423828 .35699464 .4423828 .2939911 .4423828 .24598694 .41137696 .20899964 .36535646L.2869873 .68333438Z"/>
<path id="font_2_107" d="M.44898988 .17396546H.42399598C.4189911 .14398194 .4119873 .099990848 .4019928 .084991458 .394989 .07699585 .32899476 .07699585 .30699159 .07699585H.1269989L.23298645 .17996216C.3889923 .31803895 .44898988 .37210084 .44898988 .47216798 .44898988 .5860901 .35899354 .6660156 .23699951 .6660156 .12399292 .6660156 .049987794 .57411196 .049987794 .48516847 .049987794 .4291687 .099990848 .4291687 .102996829 .4291687 .11999512 .4291687 .15499878 .44117738 .15499878 .48217774 .15499878 .5081787 .13699341 .5341797 .101989749 .5341797 .09399414 .5341797 .09199524 .5341797 .08898926 .5331726 .11199951 .59806826 .1659851 .63500979 .22399903 .63500979 .31498719 .63500979 .35798646 .5541382 .35798646 .47216798 .35798646 .39196778 .30799867 .31297303 .25299073 .25097657L.06098938 .036987306C.049987794 .025985718 .049987794 .023986817 .049987794 0H.42099L.44898988 .17396546Z"/>
<path id="font_2_57" d="M.47099305 .16503906V.19602967H.37098695V.6507721C.37098695 .6707611 .37098695 .6767578 .35499574 .6767578 .34599305 .6767578 .34298707 .6767578 .33499146 .6647644L.027999878 .19602967V.16503906H.2939911V.07800293C.2939911 .041992189 .2919922 .0309906 .21798706 .0309906H.19699097V0C.23799134 .0029907227 .2899933 .0029907227 .33198548 .0029907227 .37399293 .0029907227 .4269867 .0029907227 .46798707 0V.0309906H.44699098C.37298585 .0309906 .37098695 .041992189 .37098695 .07800293V.16503906H.47099305M.2999878 .19602967H.055999757L.2999878 .56881716V.19602967Z"/>
<path id="font_2_101" d="M.45700074 .2036438C.45700074 .33070375 .36799623 .4267578 .25698854 .4267578 .18899536 .4267578 .1519928 .37573243 .13198853 .327713V.35173036C.13198853 .6047821 .2559967 .64100649 .30699159 .64100649 .33099366 .64100649 .37298585 .634964 .394989 .6007538 .37998963 .6007538 .33999635 .6007538 .33999635 .5557556 .33999635 .524765 .3639984 .5097656 .38598634 .5097656 .4019928 .5097656 .43199159 .51875308 .43199159 .5577545 .43199159 .6178589 .3880005 .6660156 .30499269 .6660156 .1769867 .6660156 .041992189 .5367584 .041992189 .31570436 .041992189 .048553468 .1579895-.022460938 .25099183-.022460938 .3619995-.022460938 .45700074 .07156372 .45700074 .2036438M.36698915 .20463562C.36698915 .15661621 .36698915 .10658264 .34999085 .0705719 .31999208 .010528564 .27398683 .0055389406 .25099183 .0055389406 .18798828 .0055389406 .1579895 .06556702 .1519928 .080566409 .13398743 .127594 .13398743 .2076416 .13398743 .22564698 .13398743 .30369569 .1659851 .40374757 .2559967 .40374757 .27198792 .40374757 .31799317 .40374757 .34899903 .34172059 .36698915 .30470277 .36698915 .2536621 .36698915 .20463562Z"/>
<path id="font_2_51" d="M.45700074 .16764832C.45700074 .20367432 .44599916 .24871826 .4079895 .29074098 .3889923 .31176759 .37298585 .32176209 .30899049 .36180116 .3809967 .39881898 .42999269 .4508667 .42999269 .51690676 .42999269 .6089783 .34098817 .6660156 .25 .6660156 .1499939 .6660156 .068984989 .5919647 .068984989 .49890138 .068984989 .48088075 .070999149 .43585206 .11299133 .38882447 .12399292 .3768158 .16099549 .35179139 .18598938 .33477784 .12799073 .30575563 .041992189 .24971009 .041992189 .15063477 .041992189 .044555665 .14399719-.022460938 .24899292-.022460938 .3619995-.022460938 .45700074 .060577394 .45700074 .16764832M.38598634 .51690676C.38598634 .45986939 .34700013 .41183473 .2869873 .3768158L.16299439 .4568634C.116989139 .4868927 .11299133 .5209198 .11299133 .53793337 .11299133 .5989685 .17799378 .64100649 .24899292 .64100649 .32199098 .64100649 .38598634 .588974 .38598634 .51690676M.40699769 .13162232C.40699769 .05757141 .33198548 .0055389406 .25 .0055389406 .1639862 .0055389406 .09199524 .06758118 .09199524 .15063477 .09199524 .2086792 .12399292 .2727356 .20899964 .31976319L.33198548 .24171448C.3600006 .22268677 .40699769 .19267273 .40699769 .13162232Z"/>
<path id="font_2_82" d="M.4189911 0V.0309906H.3869934C.29699708 .0309906 .2939911 .041992189 .2939911 .07902527V.64012148C.2939911 .6640167 .2939911 .6660156 .2709961 .6660156 .20899964 .60227969 .12098694 .60227969 .08898926 .60227969V.57128909C.10899353 .57128909 .16799927 .57128909 .21998596 .5972748V.07902527C.21998596 .042999269 .21699524 .0309906 .1269989 .0309906H.09498596V0C.12998963 .0029907227 .21699524 .0029907227 .25698854 .0029907227 .29699708 .0029907227 .38398744 .0029907227 .4189911 0Z"/>
<path id="font_2_121" d="M.45999146 .31976319C.45999146 .39982606 .45498658 .47988893 .41999818 .5539398 .37399293 .65000918 .2919922 .6660156 .25 .6660156 .18998719 .6660156 .116989139 .64001467 .07598877 .54693606 .04399109 .47789 .038986207 .39982606 .038986207 .31976319 .038986207 .24472046 .042999269 .15464783 .083999637 .07859802 .1269989-.0024719239 .19999695-.022460938 .24899292-.022460938 .30299378-.022460938 .3789978-.0014648438 .4229889 .09359741 .45498658 .16265869 .45999146 .2407074 .45999146 .31976319M.3769989 .3317871C.3769989 .25672914 .3769989 .18867493 .3659973 .12461853 .35099793 .029556275 .2939911-.00047302247 .24899292-.00047302247 .20999146-.00047302247 .15098572 .024551392 .1329956 .12062073 .12199402 .18066406 .12199402 .2727356 .12199402 .3317871 .12199402 .39582826 .12199402 .46188355 .12998963 .5159149 .14898682 .63500979 .22399903 .64401248 .24899292 .64401248 .28199769 .64401248 .34799195 .6259918 .36698915 .52693179 .3769989 .47088624 .3769989 .39482118 .3769989 .3317871Z"/>
<path id="font_2_106" d="M.45700074 .17037964C.45700074 .252594 .3939972 .33088685 .2899933 .35191346 .37199403 .37893678 .42999269 .4490509 .42999269 .52809146 .42999269 .6100464 .34199525 .6660156 .24598694 .6660156 .14498902 .6660156 .068984989 .60606387 .068984989 .53009036 .068984989 .49710084 .09098816 .47808839 .11999512 .47808839 .15098572 .47808839 .17098999 .50009158 .17098999 .5290985 .17098999 .57910159 .12399292 .57910159 .10899353 .57910159 .13999939 .62802127 .20599365 .64100649 .24198914 .64100649 .2829895 .64100649 .33799745 .6190338 .33799745 .5290985 .33799745 .51708987 .33599855 .45906068 .30999757 .4149933 .27999879 .36691285 .24598694 .36390687 .22099304 .36291505 .21299744 .36190797 .18899536 .35990907 .18199158 .35990907 .17399597 .35890199 .16699219 .35791017 .16699219 .3479004 .16699219 .33691407 .17399597 .33691407 .19099427 .33691407H.23498535C.31698609 .33691407 .35398866 .2686615 .35398866 .17037964 .35398866 .034469606 .2849884 .0055389406 .24099732 .0055389406 .19799805 .0055389406 .12298584 .022491456 .08799744 .08137512 .12298584 .07637024 .1539917 .09837341 .1539917 .1363678 .1539917 .17237854 .1269989 .19238281 .09799194 .19238281 .07398987 .19238281 .041992189 .17837525 .041992189 .1343689 .041992189 .043441774 .1349945-.022460938 .24398804-.022460938 .3659973-.022460938 .45700074 .06838989 .45700074 .17037964Z"/>
<path id="font_3_1" d="M.44198609 .69781497C.43499757 .7108154 .43299867 .7158203 .41600038 .7158203 .39898683 .7158203 .39698792 .7108154 .3899994 .69781497L.051986696 .019989014C.04699707 .010986328 .04699707 .008987427 .04699707 .0079956059 .04699707 0 .052993776 0 .068984989 0H.7630005C.7789917 0 .7849884 0 .7849884 .0079956059 .7849884 .008987427 .7849884 .010986328 .7799988 .019989014L.44198609 .69781497M.38398744 .61582949 .6529999 .07598877H.11399841L.38398744 .61582949Z"/>
<path id="font_3_5" d="M.68699648 .32714845C.70199587 .32714845 .72099307 .32714845 .72099307 .34713746 .72099307 .36714173 .70199587 .36714173 .6879883 .36714173H.08898926C.07499695 .36714173 .055999757 .36714173 .055999757 .34713746 .055999757 .32714845 .07499695 .32714845 .08999634 .32714845H.68699648M.6879883 .13284302C.70199587 .13284302 .72099307 .13284302 .72099307 .15284729 .72099307 .17285156 .70199587 .17285156 .68699648 .17285156H.08999634C.07499695 .17285156 .055999757 .17285156 .055999757 .15284729 .055999757 .13284302 .07499695 .13284302 .08898926 .13284302H.6879883Z"/>
<path id="font_3_3" d="M.2939911 .16503906V.07800293C.2939911 .041992189 .2919922 .0309906 .21798706 .0309906H.19699097V0C.23799134 .0029907227 .2899933 .0029907227 .33198548 .0029907227 .37399293 .0029907227 .4269867 .0029907227 .46798707 0V.0309906H.44699098C.37298585 .0309906 .37098695 .041992189 .37098695 .07800293V.16503906H.47099305V.19602967H.37098695V.65075686C.37098695 .67074587 .37098695 .6767578 .35499574 .6767578 .34599305 .6767578 .34298707 .6767578 .33499146 .66474917L.027999878 .19602967V.16503906H.2939911M.2999878 .19602967H.055999757L.2999878 .5688019V.19602967Z"/>
<path id="font_3_2" d="M.2939911 .64004519C.2939911 .66400149 .2939911 .6660156 .2709961 .6660156 .20899964 .60227969 .12098694 .60227969 .08898926 .60227969V.57128909C.10899353 .57128909 .16799927 .57128909 .21998596 .5972748V.07902527C.21998596 .042999269 .21699524 .0309906 .1269989 .0309906H.09498596V0C.12998963 .0029907227 .21699524 .0029907227 .25698854 .0029907227 .29699708 .0029907227 .38398744 .0029907227 .4189911 0V.0309906H.3869934C.29699708 .0309906 .2939911 .041992189 .2939911 .07902527V.64004519Z"/>
<path id="font_3_4" d="M.13198853 .327713V.35173036C.13198853 .6047821 .2559967 .64100649 .30699159 .64100649 .33099366 .64100649 .37298585 .634964 .394989 .6007538 .37998963 .6007538 .33999635 .6007538 .33999635 .5557556 .33999635 .524765 .3639984 .5097656 .38598634 .5097656 .4019928 .5097656 .43199159 .51875308 .43199159 .5577545 .43199159 .6178589 .3880005 .6660156 .30499269 .6660156 .1769867 .6660156 .041992189 .5367584 .041992189 .31570436 .041992189 .048553468 .1579895-.022460938 .25099183-.022460938 .3619995-.022460938 .45700074 .07156372 .45700074 .2036438 .45700074 .33070375 .36799623 .4267578 .25698854 .4267578 .18899536 .4267578 .1519928 .37573243 .13198853 .327713M.25099183 .0055389406C.18798828 .0055389406 .1579895 .06556702 .1519928 .080566409 .13398743 .127594 .13398743 .2076416 .13398743 .22564698 .13398743 .30369569 .1659851 .40374757 .2559967 .40374757 .27198792 .40374757 .31799317 .40374757 .34899903 .34172059 .36698915 .30470277 .36698915 .2536621 .36698915 .20463562 .36698915 .15661621 .36698915 .10658264 .34999085 .0705719 .31999208 .010528564 .27398683 .0055389406 .25099183 .0055389406Z"/>
</defs>
<path transform="matrix(1.00006,0,0,-1,16.092125,201.331)" stroke-width=".3985" stroke-linecap="butt" stroke-miterlimit="10" stroke-linejoin="miter" fill="none" stroke="#00aeef" d="M0 0H122.45668M0 10.20485H122.45668M0 20.40973H122.45668M0 30.6146H122.45668M0 40.81946H122.45668M0 51.02432H122.45668M0 61.2292H122.45668M0 71.43407H122.45668M0 81.63893H122.45668M0 91.84381H122.45668M0 102.04868H122.45668M0 112.25354H122.45668M0 122.4584H122.45668M0 132.66329H122.45668M0 142.86815H122.45668M0 153.07302H122.45668M0 163.2779H122.45668M0 173.48276H122.45668M0 183.68404H122.45668M0 0V183.68762M15.30708 0V183.68762M30.61417 0V183.68762M45.92125 0V183.68762M61.22833 0V183.68762M76.53542 0V183.68762M91.8425 0V183.68762M107.14958 0V183.68762M122.45131 0V183.68762M122.45668 183.68762"/>
<path transform="matrix(1.00006,0,0,-1,16.092125,201.331)" stroke-width=".79701" stroke-linecap="butt" stroke-miterlimit="10" stroke-linejoin="miter" fill="none" stroke="#000000" d="M0 0H133.26779"/>
<path transform="matrix(1.00006,0,0,-1,149.36792,201.331)" d="M1.0361 0C-.25902 .25902-1.55415 .77707-3.1083 1.68365-1.55415 .51805-1.55415-.51805-3.1083-1.68365-1.55415-.77707-.25902-.25902 1.0361 0Z"/>
<path transform="matrix(1.00006,0,0,-1,149.36792,201.331)" stroke-width=".79701" stroke-linecap="butt" stroke-linejoin="round" fill="none" stroke="#000000" d="M1.0361 0C-.25902 .25902-1.55415 .77707-3.1083 1.68365-1.55415 .51805-1.55415-.51805-3.1083-1.68365-1.55415-.77707-.25902-.25902 1.0361 0Z"/>
<use data-text="t" xlink:href="#font_1_2" transform="matrix(9.963197,0,0,-9.9626,154.52143,204.39499)"/>
<path transform="matrix(1.00006,0,0,-1,16.092125,201.331)" stroke-width=".79701" stroke-linecap="butt" stroke-miterlimit="10" stroke-linejoin="miter" fill="none" stroke="#000000" d="M0 0V195.51937"/>
<path transform="matrix(0,-1,-1.00006,-0,16.092125,5.8116304)" d="M1.0361 0C-.25902 .25902-1.55415 .77707-3.1083 1.68365-1.55415 .51805-1.55415-.51805-3.1083-1.68365-1.55415-.77707-.25902-.25902 1.0361 0Z"/>
<path transform="matrix(0,-1,-1.00006,-0,16.092125,5.8116304)" stroke-width=".79701" stroke-linecap="butt" stroke-linejoin="round" fill="none" stroke="#000000" d="M1.0361 0C-.25902 .25902-1.55415 .77707-3.1083 1.68365-1.55415 .51805-1.55415-.51805-3.1083-1.68365-1.55415-.77707-.25902-.25902 1.0361 0Z"/>
<use data-text="h" xlink:href="#font_1_1" transform="matrix(9.963197,0,0,-9.9626,6.6325609,7.8359987)"/>
<path transform="matrix(1.00006,0,0,-1,16.092125,201.331)" stroke-width=".79701" stroke-linecap="butt" stroke-miterlimit="10" stroke-linejoin="miter" fill="none" stroke="#000000" d="M30.61417 1.02054V-1.02039"/>
<path transform="matrix(1.00006,0,0,-1,16.092125,201.331)" d="M27.1272-12.0392H34.10114V-3.4114495H27.1272Z" fill="#ffffff"/>
<use data-text="2" xlink:href="#font_2_107" transform="matrix(9.963197,0,0,-9.9626,44.216814,212.374)"/>
<path transform="matrix(1.00006,0,0,-1,16.092125,201.331)" stroke-width=".79701" stroke-linecap="butt" stroke-miterlimit="10" stroke-linejoin="miter" fill="none" stroke="#000000" d="M61.22833 1.02054V-1.02039"/>
<path transform="matrix(1.00006,0,0,-1,16.092125,201.331)" d="M57.74136-12.14877H64.7153V-3.4114304H57.74136Z" fill="#ffffff"/>
<use data-text="4" xlink:href="#font_2_57" transform="matrix(9.963197,0,0,-9.9626,74.83365,212.483)"/>
<path transform="matrix(1.00006,0,0,-1,16.092125,201.331)" stroke-width=".79701" stroke-linecap="butt" stroke-miterlimit="10" stroke-linejoin="miter" fill="none" stroke="#000000" d="M91.8425 1.02054V-1.02039"/>
<path transform="matrix(1.00006,0,0,-1,16.092125,201.331)" d="M88.35553-12.25835H95.32947V-3.41144H88.35553Z" fill="#ffffff"/>
<use data-text="6" xlink:href="#font_2_101" transform="matrix(9.963197,0,0,-9.9626,105.44948,212.374)"/>
<path transform="matrix(1.00006,0,0,-1,16.092125,201.331)" stroke-width=".79701" stroke-linecap="butt" stroke-miterlimit="10" stroke-linejoin="miter" fill="none" stroke="#000000" d="M122.45668 1.02054V-1.02039"/>
<path transform="matrix(1.00006,0,0,-1,16.092125,201.331)" d="M118.96971-12.25835H125.94365V-3.41144H118.96971Z" fill="#ffffff"/>
<use data-text="8" xlink:href="#font_2_51" transform="matrix(9.963197,0,0,-9.9626,136.06533,212.374)"/>
<path transform="matrix(1.00006,0,0,-1,16.092125,201.331)" stroke-width=".79701" stroke-linecap="butt" stroke-miterlimit="10" stroke-linejoin="miter" fill="none" stroke="#000000" d="M1.53079 20.40973H-1.53056"/>
<path transform="matrix(1.00006,0,0,-1,16.092125,201.331)" d="M-10.89555 16.04106H-3.9216099V24.7784H-10.89555Z" fill="#ffffff"/>
<use data-text="4" xlink:href="#font_2_57" transform="matrix(9.963197,0,0,-9.9626,6.1925356,184.29399)"/>
<path transform="matrix(1.00006,0,0,-1,16.092125,201.331)" stroke-width=".79701" stroke-linecap="butt" stroke-miterlimit="10" stroke-linejoin="miter" fill="none" stroke="#000000" d="M1.53079 40.81946H-1.53056"/>
<path transform="matrix(1.00006,0,0,-1,16.092125,201.331)" d="M-10.89555 36.39601H-3.9216099V45.24292H-10.89555Z" fill="#ffffff"/>
<use data-text="8" xlink:href="#font_2_51" transform="matrix(9.963197,0,0,-9.9626,6.1925356,163.72)"/>
<path transform="matrix(1.00006,0,0,-1,16.092125,201.331)" stroke-width=".79701" stroke-linecap="butt" stroke-miterlimit="10" stroke-linejoin="miter" fill="none" stroke="#000000" d="M1.53079 61.2292H-1.53056"/>
<path transform="matrix(1.00006,0,0,-1,16.092125,201.331)" d="M-15.87694 56.91531H-3.9216195V65.54306H-15.87694Z" fill="#ffffff"/>
<use data-text="1" xlink:href="#font_2_82" transform="matrix(9.963197,0,0,-9.9626,1.2102356,143.41899)"/>
<use data-text="2" xlink:href="#font_2_107" transform="matrix(9.963197,0,0,-9.9626,6.191841,143.41899)"/>
<path transform="matrix(1.00006,0,0,-1,16.092125,201.331)" stroke-width=".79701" stroke-linecap="butt" stroke-miterlimit="10" stroke-linejoin="miter" fill="none" stroke="#000000" d="M1.53079 81.63893H-1.53056"/>
<path transform="matrix(1.00006,0,0,-1,16.092125,201.331)" d="M-15.87694 77.21548H-3.9216195V86.062389H-15.87694Z" fill="#ffffff"/>
<use data-text="1" xlink:href="#font_2_82" transform="matrix(9.963197,0,0,-9.9626,1.2102356,122.899997)"/>
<use data-text="6" xlink:href="#font_2_101" transform="matrix(9.963197,0,0,-9.9626,6.191841,122.899997)"/>
<path transform="matrix(1.00006,0,0,-1,16.092125,201.331)" stroke-width=".79701" stroke-linecap="butt" stroke-miterlimit="10" stroke-linejoin="miter" fill="none" stroke="#000000" d="M1.53079 102.04868H-1.53056"/>
<path transform="matrix(1.00006,0,0,-1,16.092125,201.331)" d="M-15.87694 97.62521H-3.9216195V106.47212H-15.87694Z" fill="#ffffff"/>
<use data-text="2" xlink:href="#font_2_107" transform="matrix(9.963197,0,0,-9.9626,1.2102356,102.48999)"/>
<use data-text="0" xlink:href="#font_2_121" transform="matrix(9.963197,0,0,-9.9626,6.191841,102.48999)"/>
<path transform="matrix(1.00006,0,0,-1,16.092125,201.331)" stroke-width=".79701" stroke-linecap="butt" stroke-miterlimit="10" stroke-linejoin="miter" fill="none" stroke="#000000" d="M1.53079 122.4584H-1.53056"/>
<path transform="matrix(1.00006,0,0,-1,16.092125,201.331)" d="M-15.87694 118.08974H-3.9216195V126.82708H-15.87694Z" fill="#ffffff"/>
<use data-text="2" xlink:href="#font_2_107" transform="matrix(9.963197,0,0,-9.9626,1.2102356,82.244998)"/>
<use data-text="4" xlink:href="#font_2_57" transform="matrix(9.963197,0,0,-9.9626,6.191841,82.244998)"/>
<path transform="matrix(1.00006,0,0,-1,16.092125,201.331)" stroke-width=".79701" stroke-linecap="butt" stroke-miterlimit="10" stroke-linejoin="miter" fill="none" stroke="#000000" d="M1.53079 142.86815H-1.53056"/>
<path transform="matrix(1.00006,0,0,-1,16.092125,201.331)" d="M-15.87694 138.4447H-3.9216195V147.29161H-15.87694Z" fill="#ffffff"/>
<use data-text="2" xlink:href="#font_2_107" transform="matrix(9.963197,0,0,-9.9626,1.2102356,61.67099)"/>
<use data-text="8" xlink:href="#font_2_51" transform="matrix(9.963197,0,0,-9.9626,6.191841,61.67099)"/>
<path transform="matrix(1.00006,0,0,-1,16.092125,201.331)" stroke-width=".79701" stroke-linecap="butt" stroke-miterlimit="10" stroke-linejoin="miter" fill="none" stroke="#000000" d="M1.53079 163.2779H-1.53056"/>
<path transform="matrix(1.00006,0,0,-1,16.092125,201.331)" d="M-15.87694 158.85443H-3.9216195V167.70134H-15.87694Z" fill="#ffffff"/>
<use data-text="3" xlink:href="#font_2_106" transform="matrix(9.963197,0,0,-9.9626,1.2102356,41.260988)"/>
<use data-text="2" xlink:href="#font_2_107" transform="matrix(9.963197,0,0,-9.9626,6.191841,41.260988)"/>
<path transform="matrix(1.00006,0,0,-1,16.092125,201.331)" stroke-width=".79701" stroke-linecap="butt" stroke-miterlimit="10" stroke-linejoin="miter" fill="none" stroke="#000000" d="M1.53079 183.68762H-1.53056"/>
<path transform="matrix(1.00006,0,0,-1,16.092125,201.331)" d="M-15.87694 179.26418H-3.9216195V188.11109H-15.87694Z" fill="#ffffff"/>
<use data-text="3" xlink:href="#font_2_106" transform="matrix(9.963197,0,0,-9.9626,1.2102356,20.850998)"/>
<use data-text="6" xlink:href="#font_2_101" transform="matrix(9.963197,0,0,-9.9626,6.191841,20.850998)"/>
<path transform="matrix(1.00006,0,0,-1,16.092125,201.331)" stroke-width="1.59404" stroke-linecap="butt" stroke-miterlimit="10" stroke-linejoin="miter" fill="none" stroke="#d73589" d="M0 10.20485 121.06998 171.6337"/>
<path transform="matrix(.59999606,-.79999,-.800038,-.59996,137.16934,29.697312)" d="M1.51433 0C-.37857 .37857-2.27148 1.13573-4.54298 2.46077-2.27148 .75716-2.27148-.75716-4.54298-2.46077-2.27148-1.13573-.37857-.37857 1.51433 0Z" fill="#d73589"/>
<path transform="matrix(.59999606,-.79999,-.800038,-.59996,137.16934,29.697312)" stroke-width="1.59404" stroke-linecap="butt" stroke-linejoin="round" fill="none" stroke="#d73589" d="M1.51433 0C-.37857 .37857-2.27148 1.13573-4.54298 2.46077-2.27148 .75716-2.27148-.75716-4.54298-2.46077-2.27148-1.13573-.37857-.37857 1.51433 0Z"/>
<path transform="matrix(1.00006,0,0,-1,16.092125,201.331)" stroke-width="1.59404" stroke-linecap="butt" stroke-dasharray="2.98883,2.98883" stroke-miterlimit="10" stroke-linejoin="miter" fill="none" stroke="#0000cc" d="M30.61417 51.02432H91.8425"/>
<path transform="matrix(1.00006,0,0,-1,16.092125,201.331)" d="M44.15329 37.44177H78.303379V48.234739H44.15329Z" fill="#ffffff"/>
<use data-text="&#x2206;" xlink:href="#font_3_1" transform="matrix(9.963197,0,0,-9.9626,62.24089,161.897)" fill="#ff0000"/>
<use data-text="t" xlink:href="#font_1_2" transform="matrix(9.963197,0,0,-9.9626,70.543399,161.897)" fill="#ff0000"/>
<use data-text="=" xlink:href="#font_3_5" transform="matrix(9.963197,0,0,-9.9626,76.908779,161.897)" fill="#ff0000"/>
<use data-text="4" xlink:href="#font_3_3" transform="matrix(9.963197,0,0,-9.9626,87.40999,161.897)" fill="#ff0000"/>
<path transform="matrix(1.00006,0,0,-1,16.092125,201.331)" stroke-width="1.59404" stroke-linecap="butt" stroke-dasharray="2.98883,2.98883" stroke-miterlimit="10" stroke-linejoin="miter" fill="none" stroke="#0000cc" d="M91.8425 51.02432V132.66329"/>
<path transform="matrix(1.00006,0,0,-1,16.092125,201.331)" d="M94.63208 86.39197H135.90602V97.29564H94.63208Z" fill="#ffffff"/>
<use data-text="&#x2206;" xlink:href="#font_3_1" transform="matrix(9.963197,0,0,-9.9626,112.722919,112.94599)" fill="#ff0000"/>
<use data-text="h" xlink:href="#font_1_1" transform="matrix(9.963197,0,0,-9.9626,121.02542,112.94599)" fill="#ff0000"/>
<use data-text="=" xlink:href="#font_3_5" transform="matrix(9.963197,0,0,-9.9626,129.53394,112.94599)" fill="#ff0000"/>
<use data-text="1" xlink:href="#font_3_2" transform="matrix(9.963197,0,0,-9.9626,140.03516,112.94599)" fill="#ff0000"/>
<use data-text="6" xlink:href="#font_3_4" transform="matrix(9.963197,0,0,-9.9626,145.01674,112.94599)" fill="#ff0000"/>
<path transform="matrix(1.00006,0,0,-1,16.092125,201.331)" d="M33.36931 51.02432C33.36931 52.54607 32.1358 53.77966 30.61417 53.77966 29.09251 53.77966 27.85901 52.54607 27.85901 51.02432 27.85901 49.50258 29.09251 48.26898 30.61417 48.26898 32.1358 48.26898 33.36931 49.50258 33.36931 51.02432ZM30.61417 51.02432" fill="#ff0000"/>
<path transform="matrix(1.00006,0,0,-1,16.092125,201.331)" stroke-width=".3985" stroke-linecap="butt" stroke-miterlimit="10" stroke-linejoin="miter" fill="none" stroke="#ff0000" d="M33.36931 51.02432C33.36931 52.54607 32.1358 53.77966 30.61417 53.77966 29.09251 53.77966 27.85901 52.54607 27.85901 51.02432 27.85901 49.50258 29.09251 48.26898 30.61417 48.26898 32.1358 48.26898 33.36931 49.50258 33.36931 51.02432ZM30.61417 51.02432"/>
<path transform="matrix(1.00006,0,0,-1,16.092125,201.331)" d="M94.59764 132.66329C94.59764 134.18503 93.36415 135.41863 91.8425 135.41863 90.32086 135.41863 89.08736 134.18503 89.08736 132.66329 89.08736 131.14153 90.32086 129.90795 91.8425 129.90795 93.36415 129.90795 94.59764 131.14153 94.59764 132.66329ZM91.8425 132.66329" fill="#ff0000"/>
<path transform="matrix(1.00006,0,0,-1,16.092125,201.331)" stroke-width=".3985" stroke-linecap="butt" stroke-miterlimit="10" stroke-linejoin="miter" fill="none" stroke="#ff0000" d="M94.59764 132.66329C94.59764 134.18503 93.36415 135.41863 91.8425 135.41863 90.32086 135.41863 89.08736 134.18503 89.08736 132.66329 89.08736 131.14153 90.32086 129.90795 91.8425 129.90795 93.36415 129.90795 94.59764 131.14153 94.59764 132.66329ZM91.8425 132.66329"/>
</svg>
