<svg xmlns="http://www.w3.org/2000/svg" xmlns:xlink="http://www.w3.org/1999/xlink" version="1.1" width="154" height="163" viewBox="0 0 154 163">
<defs>
<path id="font_1_2" d="M.20599365 .3996582H.2999878C.31999208 .3996582 .32998658 .3996582 .32998658 .41966249 .32998658 .43066407 .31999208 .43066407 .3019867 .43066407H.21398926C.25 .5724945 .25498963 .59246829 .25498963 .59846499 .25498963 .61546328 .24299622 .62545779 .22599793 .62545779 .22299195 .62545779 .19499207 .62446597 .18598938 .58947756L.14698792 .43066407H.052993776C.032989503 .43066407 .022994996 .43066407 .022994996 .4116516 .022994996 .3996582 .0309906 .3996582 .050994874 .3996582H.13899231C.066986087 .11608887 .06298828 .099121097 .06298828 .08114624 .06298828 .02722168 .100997928-.0107421879 .15499878-.0107421879 .25698854-.0107421879 .31399537 .13505554 .31399537 .14305115 .31399537 .1530304 .30599977 .1530304 .3019867 .1530304 .29299928 .1530304 .2919922 .15003968 .2869873 .13905335 .24398804 .035217287 .19099427 .011245728 .15699768 .011245728 .13598633 .011245728 .12599182 .024230957 .12599182 .057174684 .12599182 .08114624 .12799073 .088134769 .13198853 .10510254L.20599365 .3996582Z"/>
<path id="font_1_1" d="M.6279907 .5686035C.6769867 .64660647 .71899417 .6496124 .7559967 .6516113 .7679901 .65260317 .7689972 .6696167 .7689972 .6706085 .7689972 .6786041 .7639923 .6826172 .7559967 .6826172 .7299957 .6826172 .70098879 .6796112 .673996 .6796112 .6409912 .6796112 .6069946 .6826172 .57499697 .6826172 .56900027 .6826172 .55599978 .6826172 .55599978 .66360476 .55599978 .65260317 .5649872 .6516113 .57199099 .6516113 .598999 .6496124 .6179962 .63960269 .6179962 .61860659 .6179962 .6036072 .6029968 .581604 .6029968 .5805969L.29599 .092544559 .22799683 .62161257C.22799683 .63861086 .25099183 .6516113 .29699708 .6516113 .31098939 .6516113 .32199098 .6516113 .32199098 .6716156 .32199098 .680603 .31399537 .6826172 .30799867 .6826172 .2679901 .6826172 .22499085 .6796112 .18399048 .6796112 .1659851 .6796112 .14698792 .680603 .1289978 .680603 .11099243 .680603 .09199524 .6826172 .07499695 .6826172 .067993167 .6826172 .055999757 .6826172 .055999757 .66360476 .055999757 .6516113 .06498718 .6516113 .08099365 .6516113 .13699341 .6516113 .13798523 .64260867 .14099121 .6175995L.21998596 .0005340576C.22299195-.019470215 .22698975-.022460938 .23999024-.022460938 .2559967-.022460938 .2599945-.017471314 .2679901-.004470825L.6279907 .5686035Z"/>
<path id="font_2_56" d="M.44898988 .20091248C.44898988 .31991578 .36698915 .41992188 .25898744 .41992188 .21099854 .41992188 .16799927 .4039154 .13198853 .36891175V.5641022C.1519928 .55778506 .18499756 .55078127 .21699524 .55078127 .33999635 .55078127 .4099884 .6418457 .4099884 .65493777 .4099884 .6609802 .40699769 .6660156 .3999939 .6660156 .3999939 .66607668 .39698792 .66607668 .3919983 .66308596 .37199403 .65408328 .32299806 .63378909 .2559967 .63378909 .21598816 .63409426 .16999817 .641098 .12298584 .6621094 .114990238 .6651001 .11099243 .6651001 .11099243 .6651001 .100997928 .66508486 .100997928 .657074 .100997928 .64108279V.3447113C.100997928 .3266449 .100997928 .31861878 .114990238 .31861878 .12199402 .31861878 .12399292 .32164 .12799073 .32765199 .13899231 .34371949 .17599488 .3979187 .25698854 .3979187 .30899049 .3979187 .33399964 .3517456 .34199525 .3336792 .35798646 .2965393 .3600006 .2574005 .3600006 .20721436 .3600006 .17218018 .3600006 .112197879 .33599855 .07032776 .31199647 .031448366 .2749939 .0055389406 .22898865 .0055389406 .1559906 .0055389406 .09899902 .05836487 .08198547 .1171875 .084991458 .11685181 .08799744 .115859989 .09899902 .115859989 .13198853 .115859989 .14898682 .14085388 .14898682 .16485596 .14898682 .18885803 .13198853 .21386719 .09899902 .21386719 .084991458 .21386719 .049987794 .2068634 .049987794 .16085816 .049987794 .07432556 .11898804-.022460938 .23098755-.022460938 .34700013-.022460938 .44898988 .07331848 .44898988 .20019531V.20091248Z"/>
<path id="font_2_82" d="M.4189911 0V.0309906H.3869934C.29699708 .0309906 .2939911 .041992189 .2939911 .07902527V.64012148C.2939911 .6640167 .2939911 .6660156 .2709961 .6660156 .20899964 .60227969 .12098694 .60227969 .08898926 .60227969V.57128909C.10899353 .57128909 .16799927 .57128909 .21998596 .5972748V.07902527C.21998596 .042999269 .21699524 .0309906 .1269989 .0309906H.09498596V0C.12998963 .0029907227 .21699524 .0029907227 .25698854 .0029907227 .29699708 .0029907227 .38398744 .0029907227 .4189911 0Z"/>
<path id="font_2_121" d="M.45999146 .31976319C.45999146 .39982606 .45498658 .47988893 .41999818 .5539398 .37399293 .65000918 .2919922 .6660156 .25 .6660156 .18998719 .6660156 .116989139 .64001467 .07598877 .54693606 .04399109 .47789 .038986207 .39982606 .038986207 .31976319 .038986207 .24472046 .042999269 .15464783 .083999637 .07859802 .1269989-.0024719239 .19999695-.022460938 .24899292-.022460938 .30299378-.022460938 .3789978-.0014648438 .4229889 .09359741 .45498658 .16265869 .45999146 .2407074 .45999146 .31976319M.3769989 .3317871C.3769989 .25672914 .3769989 .18867493 .3659973 .12461853 .35099793 .029556275 .2939911-.00047302247 .24899292-.00047302247 .20999146-.00047302247 .15098572 .024551392 .1329956 .12062073 .12199402 .18066406 .12199402 .2727356 .12199402 .3317871 .12199402 .39582826 .12199402 .46188355 .12998963 .5159149 .14898682 .63500979 .22399903 .64401248 .24899292 .64401248 .28199769 .64401248 .34799195 .6259918 .36698915 .52693179 .3769989 .47088624 .3769989 .39482118 .3769989 .3317871Z"/>
<path id="font_2_107" d="M.44898988 .17396546H.42399598C.4189911 .14398194 .4119873 .099990848 .4019928 .084991458 .394989 .07699585 .32899476 .07699585 .30699159 .07699585H.1269989L.23298645 .17996216C.3889923 .31803895 .44898988 .37210084 .44898988 .47216798 .44898988 .5860901 .35899354 .6660156 .23699951 .6660156 .12399292 .6660156 .049987794 .57411196 .049987794 .48516847 .049987794 .4291687 .099990848 .4291687 .102996829 .4291687 .11999512 .4291687 .15499878 .44117738 .15499878 .48217774 .15499878 .5081787 .13699341 .5341797 .101989749 .5341797 .09399414 .5341797 .09199524 .5341797 .08898926 .5331726 .11199951 .59806826 .1659851 .63500979 .22399903 .63500979 .31498719 .63500979 .35798646 .5541382 .35798646 .47216798 .35798646 .39196778 .30799867 .31297303 .25299073 .25097657L.06098938 .036987306C.049987794 .025985718 .049987794 .023986817 .049987794 0H.42099L.44898988 .17396546Z"/>
<path id="font_3_1" d="M.44198609 .69781497C.43499757 .7108154 .43299867 .7158203 .41600038 .7158203 .39898683 .7158203 .39698792 .7108154 .3899994 .69781497L.051986696 .019989014C.04699707 .010986328 .04699707 .008987427 .04699707 .0079956059 .04699707 0 .052993776 0 .068984989 0H.7630005C.7789917 0 .7849884 0 .7849884 .0079956059 .7849884 .008987427 .7849884 .010986328 .7799988 .019989014L.44198609 .69781497M.38398744 .61582949 .6529999 .07598877H.11399841L.38398744 .61582949Z"/>
<path id="font_3_5" d="M.68699648 .32714845C.70199587 .32714845 .72099307 .32714845 .72099307 .34713746 .72099307 .36714173 .70199587 .36714173 .6879883 .36714173H.08898926C.07499695 .36714173 .055999757 .36714173 .055999757 .34713746 .055999757 .32714845 .07499695 .32714845 .08999634 .32714845H.68699648M.6879883 .13284302C.70199587 .13284302 .72099307 .13284302 .72099307 .15284729 .72099307 .17285156 .70199587 .17285156 .68699648 .17285156H.08999634C.07499695 .17285156 .055999757 .17285156 .055999757 .15284729 .055999757 .13284302 .07499695 .13284302 .08898926 .13284302H.6879883Z"/>
<path id="font_3_2" d="M.2939911 .64004519C.2939911 .66400149 .2939911 .6660156 .2709961 .6660156 .20899964 .60227969 .12098694 .60227969 .08898926 .60227969V.57128909C.10899353 .57128909 .16799927 .57128909 .21998596 .5972748V.07902527C.21998596 .042999269 .21699524 .0309906 .1269989 .0309906H.09498596V0C.12998963 .0029907227 .21699524 .0029907227 .25698854 .0029907227 .29699708 .0029907227 .38398744 .0029907227 .4189911 0V.0309906H.3869934C.29699708 .0309906 .2939911 .041992189 .2939911 .07902527V.64004519Z"/>
<path id="font_3_3" d="M.1269989 .07699585 .23298645 .18003845C.3889923 .31811524 .44898988 .3721466 .44898988 .47216798 .44898988 .5860901 .35899354 .6660156 .23699951 .6660156 .12399292 .6660156 .049987794 .57411196 .049987794 .48516847 .049987794 .4291687 .099990848 .4291687 .102996829 .4291687 .11999512 .4291687 .15499878 .44117738 .15499878 .48217774 .15499878 .5081787 .13699341 .5341797 .101989749 .5341797 .09399414 .5341797 .09199524 .5341797 .08898926 .5331726 .11199951 .59806826 .1659851 .63500979 .22399903 .63500979 .31498719 .63500979 .35798646 .5541382 .35798646 .47216798 .35798646 .39215089 .30799867 .31311036 .25299073 .25108338L.06098938 .036987306C.049987794 .025985718 .049987794 .023986817 .049987794 0H.42099L.44898988 .17404175H.42399598C.4189911 .14402771 .4119873 .1000061 .4019928 .084991458 .394989 .07699585 .32899476 .07699585 .30699159 .07699585H.1269989Z"/>
<path id="font_4_1" d="M.6589966 .23046875C.6759949 .23046875 .69400027 .23046875 .69400027 .25045777 .69400027 .27046205 .6759949 .27046205 .6589966 .27046205H.117996219C.100997928 .27046205 .08299255 .27046205 .08299255 .25045777 .08299255 .23046875 .100997928 .23046875 .117996219 .23046875H.6589966Z"/>
<path id="font_3_4" d="M.13198853 .327713V.35173036C.13198853 .6047821 .2559967 .64100649 .30699159 .64100649 .33099366 .64100649 .37298585 .634964 .394989 .6007538 .37998963 .6007538 .33999635 .6007538 .33999635 .5557556 .33999635 .524765 .3639984 .5097656 .38598634 .5097656 .4019928 .5097656 .43199159 .51875308 .43199159 .5577545 .43199159 .6178589 .3880005 .6660156 .30499269 .6660156 .1769867 .6660156 .041992189 .5367584 .041992189 .31570436 .041992189 .048553468 .1579895-.022460938 .25099183-.022460938 .3619995-.022460938 .45700074 .07156372 .45700074 .2036438 .45700074 .33070375 .36799623 .4267578 .25698854 .4267578 .18899536 .4267578 .1519928 .37573243 .13198853 .327713M.25099183 .0055389406C.18798828 .0055389406 .1579895 .06556702 .1519928 .080566409 .13398743 .127594 .13398743 .2076416 .13398743 .22564698 .13398743 .30369569 .1659851 .40374757 .2559967 .40374757 .27198792 .40374757 .31799317 .40374757 .34899903 .34172059 .36698915 .30470277 .36698915 .2536621 .36698915 .20463562 .36698915 .15661621 .36698915 .10658264 .34999085 .0705719 .31999208 .010528564 .27398683 .0055389406 .25099183 .0055389406Z"/>
</defs>
<path transform="matrix(1,0,0,-1.00009,15.694,149.47037)" stroke-width=".3985" stroke-linecap="butt" stroke-miterlimit="10" stroke-linejoin="miter" fill="none" stroke="#00aeef" d="M0 0H113.3855M0 11.33855H113.3855M0 22.6771H113.3855M0 34.01564H113.3855M0 45.35419H113.3855M0 56.69275H113.3855M0 68.0313H113.3855M0 79.36984H113.3855M0 90.70839H113.3855M0 102.04694H113.3855M0 113.3855H113.3855M0 124.72404H113.3855M0 136.05861H113.3855M0 0V136.06259M11.33855 0V136.06259M22.6771 0V136.06259M34.01564 0V136.06259M45.35419 0V136.06259M56.69275 0V136.06259M68.0313 0V136.06259M79.36984 0V136.06259M90.70839 0V136.06259M102.04694 0V136.06259M113.38152 0V136.06259M113.3855 136.06259"/>
<path transform="matrix(1,0,0,-1.00009,15.694,149.47037)" stroke-width=".79701" stroke-linecap="butt" stroke-miterlimit="10" stroke-linejoin="miter" fill="none" stroke="#000000" d="M0 0H121.02176"/>
<path transform="matrix(1,0,0,-1.00009,136.71576,149.47037)" d="M1.0361 0C-.25902 .25902-1.55415 .77707-3.1083 1.68365-1.55415 .51805-1.55415-.51805-3.1083-1.68365-1.55415-.77707-.25902-.25902 1.0361 0Z"/>
<path transform="matrix(1,0,0,-1.00009,136.71576,149.47037)" stroke-width=".79701" stroke-linecap="butt" stroke-linejoin="round" fill="none" stroke="#000000" d="M1.0361 0C-.25902 .25902-1.55415 .77707-3.1083 1.68365-1.55415 .51805-1.55415-.51805-3.1083-1.68365-1.55415-.77707-.25902-.25902 1.0361 0Z"/>
<use data-text="t" xlink:href="#font_1_2" transform="matrix(9.9626,0,0,-9.963496,141.869,152.53464)"/>
<path transform="matrix(1,0,0,-1.00009,15.694,149.47037)" stroke-width=".79701" stroke-linecap="butt" stroke-miterlimit="10" stroke-linejoin="miter" fill="none" stroke="#000000" d="M0 0V143.69886"/>
<path transform="matrix(0,-1.00009,-1,-0,15.694,5.7585756)" d="M1.0361 0C-.25902 .25902-1.55415 .77707-3.1083 1.68365-1.55415 .51805-1.55415-.51805-3.1083-1.68365-1.55415-.77707-.25902-.25902 1.0361 0Z"/>
<path transform="matrix(0,-1.00009,-1,-0,15.694,5.7585756)" stroke-width=".79701" stroke-linecap="butt" stroke-linejoin="round" fill="none" stroke="#000000" d="M1.0361 0C-.25902 .25902-1.55415 .77707-3.1083 1.68365-1.55415 .51805-1.55415-.51805-3.1083-1.68365-1.55415-.77707-.25902-.25902 1.0361 0Z"/>
<use data-text="V" xlink:href="#font_1_1" transform="matrix(9.9626,0,0,-9.963496,3.9489976,7.7276155)"/>
<path transform="matrix(1,0,0,-1.00009,15.694,149.47037)" stroke-width=".79701" stroke-linecap="butt" stroke-miterlimit="10" stroke-linejoin="miter" fill="none" stroke="#000000" d="M56.69275 1.13391V-1.13374"/>
<path transform="matrix(1,0,0,-1.00009,15.694,149.47037)" d="M53.20578-12.37172H60.179719V-3.5248099H53.20578Z" fill="#ffffff"/>
<use data-text="5" xlink:href="#font_2_56" transform="matrix(9.9626,0,0,-9.963496,69.895999,160.62738)"/>
<path transform="matrix(1,0,0,-1.00009,15.694,149.47037)" stroke-width=".79701" stroke-linecap="butt" stroke-miterlimit="10" stroke-linejoin="miter" fill="none" stroke="#000000" d="M1.13391 56.69275H-1.13374"/>
<path transform="matrix(1,0,0,-1.00009,15.694,149.47037)" d="M-15.48012 52.26929H-3.5247994V61.116205H-15.48012Z" fill="#ffffff"/>
<use data-text="1" xlink:href="#font_2_82" transform="matrix(9.9626,0,0,-9.963496,1.2099991,95.98055)"/>
<use data-text="0" xlink:href="#font_2_121" transform="matrix(9.9626,0,0,-9.963496,6.1912996,95.98055)"/>
<path transform="matrix(1,0,0,-1.00009,15.694,149.47037)" stroke-width=".79701" stroke-linecap="butt" stroke-miterlimit="10" stroke-linejoin="miter" fill="none" stroke="#000000" d="M113.3855 1.13391V-1.13374"/>
<path transform="matrix(1,0,0,-1.00009,15.694,149.47037)" d="M107.40784-12.37172H119.36316V-3.5248099H107.40784Z" fill="#ffffff"/>
<use data-text="1" xlink:href="#font_2_82" transform="matrix(9.9626,0,0,-9.963496,124.098,160.62738)"/>
<use data-text="0" xlink:href="#font_2_121" transform="matrix(9.9626,0,0,-9.963496,129.0793,160.62738)"/>
<path transform="matrix(1,0,0,-1.00009,15.694,149.47037)" stroke-width=".79701" stroke-linecap="butt" stroke-miterlimit="10" stroke-linejoin="miter" fill="none" stroke="#000000" d="M1.13391 113.3855H-1.13374"/>
<path transform="matrix(1,0,0,-1.00009,15.694,149.47037)" d="M-15.48012 108.96204H-3.5247994V117.80895H-15.48012Z" fill="#ffffff"/>
<use data-text="2" xlink:href="#font_2_107" transform="matrix(9.9626,0,0,-9.963496,1.2099991,39.283449)"/>
<use data-text="0" xlink:href="#font_2_121" transform="matrix(9.9626,0,0,-9.963496,6.1912996,39.283449)"/>
<path transform="matrix(1,0,0,-1.00009,15.694,149.47037)" stroke-width="1.59404" stroke-linecap="butt" stroke-miterlimit="10" stroke-linejoin="miter" fill="none" stroke="#d73589" d="M0 113.3855 111.31831 57.72632"/>
<path transform="matrix(.89436,.44721023,.44717,-.8944405,127.0123,91.73885)" d="M1.51433 0C-.37857 .37857-2.27148 1.13573-4.54298 2.46077-2.27148 .75716-2.27148-.75716-4.54298-2.46077-2.27148-1.13573-.37857-.37857 1.51433 0Z" fill="#d73589"/>
<path transform="matrix(.89436,.44721023,.44717,-.8944405,127.0123,91.73885)" stroke-width="1.59404" stroke-linecap="butt" stroke-linejoin="round" fill="none" stroke="#d73589" d="M1.51433 0C-.37857 .37857-2.27148 1.13573-4.54298 2.46077-2.27148 .75716-2.27148-.75716-4.54298-2.46077-2.27148-1.13573-.37857-.37857 1.51433 0Z"/>
<path transform="matrix(1,0,0,-1.00009,15.694,149.47037)" stroke-width="1.59404" stroke-linecap="butt" stroke-dasharray="2.98883,2.98883" stroke-miterlimit="10" stroke-linejoin="miter" fill="none" stroke="#0000cc" d="M22.6771 102.04694H88.39703"/>
<path transform="matrix(1,0,0,-1.00009,104.091037,47.414239)" d="M1.51433 0C-.37857 .37857-2.27148 1.13573-4.54298 2.46077-2.27148 .75716-2.27148-.75716-4.54298-2.46077-2.27148-1.13573-.37857-.37857 1.51433 0Z" fill="#0000cc"/>
<path transform="matrix(1,0,0,-1.00009,104.091037,47.414239)" stroke-width="1.59404" stroke-linecap="butt" stroke-linejoin="round" fill="none" stroke="#0000cc" d="M1.51433 0C-.37857 .37857-2.27148 1.13573-4.54298 2.46077-2.27148 .75716-2.27148-.75716-4.54298-2.46077-2.27148-1.13573-.37857-.37857 1.51433 0Z"/>
<path transform="matrix(1,0,0,-1.00009,15.694,149.47037)" d="M37.12701 104.83652H76.258487V115.629489H37.12701Z" fill="#ffffff"/>
<use data-text="&#x2206;" xlink:href="#font_3_1" transform="matrix(9.9626,0,0,-9.963496,54.814,42.631753)" fill="#ff0000"/>
<use data-text="t" xlink:href="#font_1_2" transform="matrix(9.9626,0,0,-9.963496,63.116,42.631753)" fill="#ff0000"/>
<use data-text="=" xlink:href="#font_3_5" transform="matrix(9.9626,0,0,-9.963496,69.481,42.631753)" fill="#ff0000"/>
<use data-text="1" xlink:href="#font_3_2" transform="matrix(9.9626,0,0,-9.963496,79.98158,42.631753)" fill="#ff0000"/>
<use data-text="2" xlink:href="#font_3_3" transform="matrix(9.9626,0,0,-9.963496,84.962879,42.631753)" fill="#ff0000"/>
<path transform="matrix(1,0,0,-1.00009,15.694,149.47037)" stroke-width="1.59404" stroke-linecap="butt" stroke-dasharray="2.98883,2.98883" stroke-miterlimit="10" stroke-linejoin="miter" fill="none" stroke="#0000cc" d="M90.70839 102.04694V70.34265"/>
<path transform="matrix(0,1.00009,1,0,106.40239,79.12138)" d="M1.51433 0C-.37857 .37857-2.27148 1.13573-4.54298 2.46077-2.27148 .75716-2.27148-.75716-4.54298-2.46077-2.27148-1.13573-.37857-.37857 1.51433 0Z" fill="#0000cc"/>
<path transform="matrix(0,1.00009,1,0,106.40239,79.12138)" stroke-width="1.59404" stroke-linecap="butt" stroke-linejoin="round" fill="none" stroke="#0000cc" d="M1.51433 0C-.37857 .37857-2.27148 1.13573-4.54298 2.46077-2.27148 .75716-2.27148-.75716-4.54298-2.46077-2.27148-1.13573-.37857-.37857 1.51433 0Z"/>
<path transform="matrix(1,0,0,-1.00009,15.694,149.47037)" d="M93.49797 79.22752H139.82479V90.85071H93.49797Z" fill="#ffffff"/>
<use data-text="&#x2206;" xlink:href="#font_3_1" transform="matrix(9.9626,0,0,-9.963496,111.185,67.41298)" fill="#ff0000"/>
<use data-text="V" xlink:href="#font_1_1" transform="matrix(9.9626,0,0,-9.963496,119.487,67.41298)" fill="#ff0000"/>
<use data-text="=" xlink:href="#font_3_5" transform="matrix(9.9626,0,0,-9.963496,130.28,67.41298)" fill="#ff0000"/>
<use data-text="&#x2212;" xlink:href="#font_4_1" transform="matrix(9.9626,0,0,-9.963496,140.796,67.41298)" fill="#ff0000"/>
<use data-text="6" xlink:href="#font_3_4" transform="matrix(9.9626,0,0,-9.963496,148.545,67.41298)" fill="#ff0000"/>
<path transform="matrix(1,0,0,-1.00009,15.694,149.47037)" d="M24.94475 102.04694C24.94475 103.29933 23.92949 104.3146 22.6771 104.3146 21.42468 104.3146 20.40942 103.29933 20.40942 102.04694 20.40942 100.79454 21.42468 99.77927 22.6771 99.77927 23.92949 99.77927 24.94475 100.79454 24.94475 102.04694ZM22.6771 102.04694" fill="#ff0000"/>
<path transform="matrix(1,0,0,-1.00009,15.694,149.47037)" stroke-width=".3985" stroke-linecap="butt" stroke-miterlimit="10" stroke-linejoin="miter" fill="none" stroke="#ff0000" d="M24.94475 102.04694C24.94475 103.29933 23.92949 104.3146 22.6771 104.3146 21.42468 104.3146 20.40942 103.29933 20.40942 102.04694 20.40942 100.79454 21.42468 99.77927 22.6771 99.77927 23.92949 99.77927 24.94475 100.79454 24.94475 102.04694ZM22.6771 102.04694"/>
<path transform="matrix(1,0,0,-1.00009,15.694,149.47037)" d="M92.97606 68.0313C92.97606 69.28369 91.96078 70.29895 90.70839 70.29895 89.456 70.29895 88.44072 69.28369 88.44072 68.0313 88.44072 66.7789 89.456 65.76363 90.70839 65.76363 91.96078 65.76363 92.97606 66.7789 92.97606 68.0313ZM90.70839 68.0313" fill="#ff0000"/>
<path transform="matrix(1,0,0,-1.00009,15.694,149.47037)" stroke-width=".3985" stroke-linecap="butt" stroke-miterlimit="10" stroke-linejoin="miter" fill="none" stroke="#ff0000" d="M92.97606 68.0313C92.97606 69.28369 91.96078 70.29895 90.70839 70.29895 89.456 70.29895 88.44072 69.28369 88.44072 68.0313 88.44072 66.7789 89.456 65.76363 90.70839 65.76363 91.96078 65.76363 92.97606 66.7789 92.97606 68.0313ZM90.70839 68.0313"/>
</svg>
