<svg xmlns="http://www.w3.org/2000/svg" xmlns:xlink="http://www.w3.org/1999/xlink" version="1.1" width="195" height="192" viewBox="0 0 195 192">
<defs>
<path id="font_1_1" d="M.33399964 .30233766C.33999635 .32835389 .36299134 .42037965 .43299867 .42037965 .43798829 .42037965 .46199037 .42037965 .48298646 .40734864 .45498658 .402359 .43499757 .37734986 .43499757 .35334779 .43499757 .33735658 .44599916 .31835938 .47299195 .31835938 .49499513 .31835938 .5269928 .3363495 .5269928 .37635804 .5269928 .42837525 .46798707 .4423828 .43399049 .4423828 .37599183 .4423828 .34098817 .38935853 .32899476 .36634828 .3039856 .43237306 .25 .4423828 .22099304 .4423828 .116989139 .4423828 .05999756 .3133545 .05999756 .28834535 .05999756 .27833558 .069992069 .27833558 .07199097 .27833558 .07998657 .27833558 .08299255 .28033448 .084991458 .28933717 .11898804 .39535523 .18499756 .42037965 .21899414 .42037965 .23799134 .42037965 .272995 .4113617 .272995 .35334779 .272995 .32235719 .2559967 .25532533 .21899414 .11528015 .20298767 .053268434 .16799927 .011245728 .12399292 .011245728 .117996219 .011245728 .09498596 .011245728 .07398987 .024276734 .09899902 .029266358 .12098694 .05027771 .12098694 .07827759 .12098694 .105270389 .09899902 .11328125 .083999637 .11328125 .053985597 .11328125 .0289917 .08728027 .0289917 .055267335 .0289917 .009246826 .07899475-.0107421879 .12298584-.0107421879 .18899536-.0107421879 .22499085 .059280397 .22799683 .0652771 .23999024 .028274537 .27598573-.0107421879 .33599855-.0107421879 .43899537-.0107421879 .49598695 .118270877 .49598695 .14328003 .49598695 .1532898 .4869995 .1532898 .48399354 .1532898 .47499085 .1532898 .47299195 .14929199 .47099305 .14228821 .43798829 .03527832 .36999513 .011245728 .33799745 .011245728 .29899598 .011245728 .2829895 .043273927 .2829895 .07727051 .2829895 .09927368 .2889862 .121276859 .2999878 .16529846L.33399964 .30233766Z"/>
<path id="font_1_2" d="M.48599244 .38136292C.48999024 .39537049 .48999024 .39736939 .48999024 .40437318 .48999024 .42237855 .47599793 .43138124 .46099855 .43138124 .45098878 .43138124 .43499757 .42536927 .42599488 .41036988 .42399598 .405365 .41600038 .37435914 .4119873 .35635377 .40499879 .33035279 .397995 .30334474 .3919983 .27633668L.34700013 .09628296C.34298707 .08126831 .2999878 .011245728 .23399353 .011245728 .18299866 .011245728 .17199707 .055267335 .17199707 .0922699 .17199707 .1382904 .18899536 .20030213 .22299195 .28833009 .23899842 .3293457 .24299622 .3403473 .24299622 .36035157 .24299622 .405365 .21099854 .4423828 .16099549 .4423828 .06599426 .4423828 .0289917 .29733277 .0289917 .28833009 .0289917 .27833558 .038986207 .27833558 .040985109 .27833558 .050994874 .27833558 .051986696 .28033448 .056991579 .29634095 .083999637 .3903656 .12399292 .42037965 .1579895 .42037965 .1659851 .42037965 .18299866 .42037965 .18299866 .3883667 .18299866 .36335755 .17298889 .3373413 .1659851 .31834413 .12599182 .21231079 .10798645 .1552887 .10798645 .10827637 .10798645 .019256592 .17098999-.0107421879 .22999573-.0107421879 .2689972-.0107421879 .30299378 .0062561037 .33099366 .03425598 .31799317-.017745972 .30599977-.06674194 .2659912-.11973572 .23999024-.15385437 .20199585-.18309021 .1559906-.18309021 .14199829-.18309021 .09700012-.18005371 .07998657-.14074707 .09599304-.14074707 .10899353-.14074707 .12298584-.1287384 .1329956-.11973572 .14299011-.10673523 .14299011-.08773804 .14299011-.056747438 .115997318-.052734376 .10598755-.052734376 .08299255-.052734376 .049987794-.068740848 .049987794-.11773682 .049987794-.16796875 .09399414-.20507813 .1559906-.20507813 .25898744-.20507813 .3619995-.11373901 .3899994-.00074768069L.48599244 .38136292Z"/>
<path id="font_2_1" d="M.6589966 .23046875C.6759949 .23046875 .69400027 .23046875 .69400027 .25045777 .69400027 .27046205 .6759949 .27046205 .6589966 .27046205H.117996219C.100997928 .27046205 .08299255 .27046205 .08299255 .25045777 .08299255 .23046875 .100997928 .23046875 .117996219 .23046875H.6589966Z"/>
<path id="font_3_2" d="M.2939911 .64004519C.2939911 .66400149 .2939911 .6660156 .2709961 .6660156 .20899964 .60227969 .12098694 .60227969 .08898926 .60227969V.57128909C.10899353 .57128909 .16799927 .57128909 .21998596 .5972748V.07902527C.21998596 .042999269 .21699524 .0309906 .1269989 .0309906H.09498596V0C.12998963 .0029907227 .21699524 .0029907227 .25698854 .0029907227 .29699708 .0029907227 .38398744 .0029907227 .4189911 0V.0309906H.3869934C.29699708 .0309906 .2939911 .041992189 .2939911 .07902527V.64004519Z"/>
<path id="font_3_1" d="M.45999146 .31976319C.45999146 .39982606 .45498658 .47988893 .41999818 .5539398 .37399293 .65000918 .2919922 .6660156 .25 .6660156 .18998719 .6660156 .116989139 .64001467 .07598877 .54693606 .04399109 .47789 .038986207 .39982606 .038986207 .31976319 .038986207 .24472046 .042999269 .15464783 .083999637 .07859802 .1269989-.0024719239 .19999695-.022460938 .24899292-.022460938 .30299378-.022460938 .3789978-.0014648438 .4229889 .09359741 .45498658 .16265869 .45999146 .2407074 .45999146 .31976319M.24899292-.00047302247C.20999146-.00047302247 .15098572 .024551392 .1329956 .12062073 .12199402 .18066406 .12199402 .2727356 .12199402 .3317871 .12199402 .39582826 .12199402 .46188355 .12998963 .5159149 .14898682 .63500979 .22399903 .64401248 .24899292 .64401248 .28199769 .64401248 .34799195 .6259918 .36698915 .52693179 .3769989 .47088624 .3769989 .39482118 .3769989 .3317871 .3769989 .25672914 .3769989 .18867493 .3659973 .12461853 .35099793 .029556275 .2939911-.00047302247 .24899292-.00047302247Z"/>
<path id="font_3_3" d="M.44898988 .20022583C.44898988 .3193512 .36698915 .41944886 .25898744 .41944886 .21099854 .41944886 .16799927 .40345765 .13198853 .36842347V.5637665C.1519928 .5577698 .18499756 .55078127 .21699524 .55078127 .33999635 .55078127 .4099884 .6417694 .4099884 .6547699 .4099884 .6607666 .40699769 .6657715 .3999939 .6657715 .39898683 .6657715 .39698792 .6657715 .3919983 .66278079 .37199403 .6537781 .32299806 .6337738 .2559967 .6337738 .21598816 .6337738 .16999817 .6407776 .12298584 .6617737 .114990238 .66477969 .11299133 .66477969 .11099243 .66477969 .100997928 .66477969 .100997928 .6567688 .100997928 .6407776V.34439088C.100997928 .32637025 .100997928 .31835938 .114990238 .31835938 .12199402 .31835938 .12399292 .32136537 .12799073 .32736207 .13899231 .3433838 .17599488 .39746095 .25698854 .39746095 .30899049 .39746095 .33399964 .35139466 .34199525 .33337403 .35798646 .29632569 .3600006 .25727845 .3600006 .20722962 .3600006 .17222595 .3600006 .11222839 .33599855 .07035828 .31199647 .031463624 .2749939 .0055389406 .22898865 .0055389406 .1559906 .0055389406 .09899902 .058380128 .08198547 .11723328 .084991458 .1162262 .08799744 .115234378 .09899902 .115234378 .13198853 .115234378 .14898682 .14022827 .14898682 .16423035 .14898682 .18823242 .13198853 .21322632 .09899902 .21322632 .084991458 .21322632 .049987794 .20622254 .049987794 .16023255 .049987794 .07434082 .11898804-.022460938 .23098755-.022460938 .34700013-.022460938 .44898988 .073349 .44898988 .20022583Z"/>
</defs>
<path transform="matrix(1.00006,0,0,-1.00006,94.11187,102.01534)" stroke-width=".3985" stroke-linecap="butt" stroke-miterlimit="10" stroke-linejoin="miter" fill="none" stroke="#00aeef" d="M-85.04128-85.04128H85.04128M-85.04128-76.53716H85.04128M-85.04128-68.03302H85.04128M-85.04128-59.52888H85.04128M-85.04128-51.02477H85.04128M-85.04128-42.52063H85.04128M-85.04128-34.0165H85.04128M-85.04128-25.51237H85.04128M-85.04128-17.00824H85.04128M-85.04128-8.50412H85.04128M-85.04128 0H85.04128M-85.04128 8.50412H85.04128M-85.04128 17.00824H85.04128M-85.04128 25.51237H85.04128M-85.04128 34.0165H85.04128M-85.04128 42.52063H85.04128M-85.04128 51.02477H85.04128M-85.04128 59.52888H85.04128M-85.04128 68.03302H85.04128M-85.04128 76.53716H85.04128M-85.04128 85.0383H85.04128M-85.04128-85.04128V85.04128M-76.53716-85.04128V85.04128M-68.03302-85.04128V85.04128M-59.52888-85.04128V85.04128M-51.02477-85.04128V85.04128M-42.52063-85.04128V85.04128M-34.0165-85.04128V85.04128M-25.51237-85.04128V85.04128M-17.00824-85.04128V85.04128M-8.50412-85.04128V85.04128M0-85.04128V85.04128M8.50412-85.04128V85.04128M17.00824-85.04128V85.04128M25.51237-85.04128V85.04128M34.0165-85.04128V85.04128M42.52063-85.04128V85.04128M51.02477-85.04128V85.04128M59.52888-85.04128V85.04128M68.03302-85.04128V85.04128M76.53716-85.04128V85.04128M85.0383-85.04128V85.04128M85.04128 85.04128"/>
<path transform="matrix(1.00006,0,0,-1.00006,94.11187,102.01534)" stroke-width=".79701" stroke-linecap="butt" stroke-miterlimit="10" stroke-linejoin="miter" fill="none" stroke="#000000" d="M-85.04128 0H88.7092"/>
<path transform="matrix(1.00006,0,0,-1.00006,182.82639,102.01534)" d="M1.0361 0C-.25902 .25902-1.55415 .77707-3.1083 1.68365-1.55415 .51805-1.55415-.51805-3.1083-1.68365-1.55415-.77707-.25902-.25902 1.0361 0Z"/>
<path transform="matrix(1.00006,0,0,-1.00006,182.82639,102.01534)" stroke-width=".79701" stroke-linecap="butt" stroke-linejoin="round" fill="none" stroke="#000000" d="M1.0361 0C-.25902 .25902-1.55415 .77707-3.1083 1.68365-1.55415 .51805-1.55415-.51805-3.1083-1.68365-1.55415-.77707-.25902-.25902 1.0361 0Z"/>
<use data-text="x" xlink:href="#font_1_1" transform="matrix(9.963197,0,0,-9.963197,187.9805,104.16047)"/>
<path transform="matrix(1.00006,0,0,-1.00006,94.11187,102.01534)" stroke-width=".79701" stroke-linecap="butt" stroke-miterlimit="10" stroke-linejoin="miter" fill="none" stroke="#000000" d="M0-85.04128V88.7092"/>
<path transform="matrix(0,-1.00006,-1.00006,-0,94.11187,13.300827)" d="M1.0361 0C-.25902 .25902-1.55415 .77707-3.1083 1.68365-1.55415 .51805-1.55415-.51805-3.1083-1.68365-1.55415-.77707-.25902-.25902 1.0361 0Z"/>
<path transform="matrix(0,-1.00006,-1.00006,-0,94.11187,13.300827)" stroke-width=".79701" stroke-linecap="butt" stroke-linejoin="round" fill="none" stroke="#000000" d="M1.0361 0C-.25902 .25902-1.55415 .77707-3.1083 1.68365-1.55415 .51805-1.55415-.51805-3.1083-1.68365-1.55415-.77707-.25902-.25902 1.0361 0Z"/>
<use data-text="y" xlink:href="#font_1_2" transform="matrix(9.963197,0,0,-9.963197,91.490718,6.2095949)"/>
<path transform="matrix(1.00006,0,0,-1.00006,94.11187,102.01534)" stroke-width=".3985" stroke-linecap="butt" stroke-miterlimit="10" stroke-linejoin="miter" fill="none" stroke="#000000" d="M-85.04128 .85045V-.85031"/>
<path transform="matrix(1.00006,0,0,-1.00006,94.11187,102.01534)" d="M-94.89337-12.28535H-75.18917V-3.04212H-94.89337Z" fill="#ffffff"/>
<use data-text="&#x2212;" xlink:href="#font_2_1" transform="matrix(9.963197,0,0,-9.963197,.20924378,112.47497)"/>
<use data-text="1" xlink:href="#font_3_2" transform="matrix(9.963197,0,0,-9.963197,7.9586946,112.47497)"/>
<use data-text="0" xlink:href="#font_3_1" transform="matrix(9.963197,0,0,-9.963197,12.940292,112.47497)"/>
<path transform="matrix(1.00006,0,0,-1.00006,94.11187,102.01534)" stroke-width=".3985" stroke-linecap="butt" stroke-miterlimit="10" stroke-linejoin="miter" fill="none" stroke="#000000" d="M-42.52063 .85045V-.85031"/>
<path transform="matrix(1.00006,0,0,-1.00006,94.11187,102.01534)" d="M-49.88202-12.28535H-35.15924V-3.04212H-49.88202Z" fill="#ffffff"/>
<use data-text="&#x2212;" xlink:href="#font_2_1" transform="matrix(9.963197,0,0,-9.963197,45.222948,112.47497)"/>
<use data-text="5" xlink:href="#font_3_3" transform="matrix(9.963197,0,0,-9.963197,52.972398,112.47497)"/>
<path transform="matrix(1.00006,0,0,-1.00006,94.11187,102.01534)" stroke-width=".3985" stroke-linecap="butt" stroke-miterlimit="10" stroke-linejoin="miter" fill="none" stroke="#000000" d="M42.52063 .85045V-.85031"/>
<path transform="matrix(1.00006,0,0,-1.00006,94.11187,102.01534)" d="M39.03366-11.45511H46.0076V-3.0421296H39.03366Z" fill="#ffffff"/>
<use data-text="5" xlink:href="#font_3_3" transform="matrix(9.963197,0,0,-9.963197,134.14427,112.47497)"/>
<path transform="matrix(1.00006,0,0,-1.00006,94.11187,102.01534)" stroke-width=".3985" stroke-linecap="butt" stroke-miterlimit="10" stroke-linejoin="miter" fill="none" stroke="#000000" d="M85.04128 .85045V-.85031"/>
<path transform="matrix(1.00006,0,0,-1.00006,94.11187,102.01534)" d="M79.0636-11.45511H91.018939V-3.0421296H79.0636Z" fill="#ffffff"/>
<use data-text="1" xlink:href="#font_3_2" transform="matrix(9.963197,0,0,-9.963197,174.17667,112.47497)"/>
<use data-text="0" xlink:href="#font_3_1" transform="matrix(9.963197,0,0,-9.963197,179.15825,112.47497)"/>
<path transform="matrix(1.00006,0,0,-1.00006,94.11187,102.01534)" stroke-width=".3985" stroke-linecap="butt" stroke-miterlimit="10" stroke-linejoin="miter" fill="none" stroke="#000000" d="M.85045-85.04128H-.85031"/>
<path transform="matrix(1.00006,0,0,-1.00006,94.11187,102.01534)" d="M-22.74632-89.66289H-3.04212V-80.419658H-22.74632Z" fill="#ffffff"/>
<use data-text="&#x2212;" xlink:href="#font_2_1" transform="matrix(9.963197,0,0,-9.963197,72.360569,189.8566)"/>
<use data-text="1" xlink:href="#font_3_2" transform="matrix(9.963197,0,0,-9.963197,80.110019,189.8566)"/>
<use data-text="0" xlink:href="#font_3_1" transform="matrix(9.963197,0,0,-9.963197,85.09161,189.8566)"/>
<path transform="matrix(1.00006,0,0,-1.00006,94.11187,102.01534)" stroke-width=".3985" stroke-linecap="butt" stroke-miterlimit="10" stroke-linejoin="miter" fill="none" stroke="#000000" d="M.85045-42.52063H-.85031"/>
<path transform="matrix(1.00006,0,0,-1.00006,94.11187,102.01534)" d="M-17.76491-47.14224H-3.0421296V-37.89901H-17.76491Z" fill="#ffffff"/>
<use data-text="&#x2212;" xlink:href="#font_2_1" transform="matrix(9.963197,0,0,-9.963197,77.341869,147.33406)"/>
<use data-text="5" xlink:href="#font_3_3" transform="matrix(9.963197,0,0,-9.963197,85.09132,147.33406)"/>
<path transform="matrix(1.00006,0,0,-1.00006,94.11187,102.01534)" stroke-width=".3985" stroke-linecap="butt" stroke-miterlimit="10" stroke-linejoin="miter" fill="none" stroke="#000000" d="M.85045 42.52063H-.85031"/>
<path transform="matrix(1.00006,0,0,-1.00006,94.11187,102.01534)" d="M-10.01605 38.31413H-3.0421105V46.727109H-10.01605Z" fill="#ffffff"/>
<use data-text="5" xlink:href="#font_3_3" transform="matrix(9.963197,0,0,-9.963197,85.09133,62.702985)"/>
<path transform="matrix(1.00006,0,0,-1.00006,94.11187,102.01534)" stroke-width=".3985" stroke-linecap="butt" stroke-miterlimit="10" stroke-linejoin="miter" fill="none" stroke="#000000" d="M.85045 85.04128H-.85031"/>
<path transform="matrix(1.00006,0,0,-1.00006,94.11187,102.01534)" d="M-14.99747 80.83478H-3.0421296V89.24776H-14.99747Z" fill="#ffffff"/>
<use data-text="1" xlink:href="#font_3_2" transform="matrix(9.963197,0,0,-9.963197,80.11003,20.179436)"/>
<use data-text="0" xlink:href="#font_3_1" transform="matrix(9.963197,0,0,-9.963197,85.09161,20.179436)"/>
<path transform="matrix(1.00006,0,0,-1.00006,94.11187,102.01534)" stroke-width=".3985" stroke-linecap="butt" stroke-miterlimit="10" stroke-linejoin="miter" fill="none" stroke="#000000" d="M-48.10654-34.0165V34.0165H48.10654V-34.0165ZM48.10654 34.0165"/>
<path transform="matrix(1.00006,0,0,-1.00006,94.11187,102.01534)" stroke-width=".3985" stroke-linecap="butt" stroke-dasharray="2.98883,2.98883" stroke-miterlimit="10" stroke-linejoin="miter" fill="none" stroke="#929292" d="M-85.04128-60.13202 85.04128 60.13202"/>
<path transform="matrix(1.00006,0,0,-1.00006,94.11187,102.01534)" stroke-width=".3985" stroke-linecap="butt" stroke-dasharray="2.98883,2.98883" stroke-miterlimit="10" stroke-linejoin="miter" fill="none" stroke="#929292" d="M-85.04128 60.13202 85.04128-60.13202"/>
<path transform="matrix(1.00006,0,0,-1.00006,94.11187,102.01534)" d="M.85045 0C.85045 .46968 .46968 .85045 0 .85045-.46968 .85045-.85045 .46968-.85045 0-.85045-.46968-.46968-.85045 0-.85045 .46968-.85045 .85045-.46968 .85045 0ZM0 0"/>
<path transform="matrix(1.00006,0,0,-1.00006,94.11187,102.01534)" stroke-width=".3985" stroke-linecap="butt" stroke-miterlimit="10" stroke-linejoin="miter" fill="none" stroke="#000000" d="M.85045 0C.85045 .46968 .46968 .85045 0 .85045-.46968 .85045-.85045 .46968-.85045 0-.85045-.46968-.46968-.85045 0-.85045 .46968-.85045 .85045-.46968 .85045 0ZM0 0"/>
<path transform="matrix(1.00006,0,0,-1.00006,94.11187,102.01534)" stroke-width="1.19553" stroke-linecap="butt" stroke-miterlimit="10" stroke-linejoin="miter" fill="none" stroke="#ff0000" d="M85.67644-50.1278C85.16333-49.69064 85.16333-49.69064 84.44113-49.0695 83.71893-48.44835 82.58679-47.4681 81.89687-46.86562 81.20694-46.2631 80.12675-45.31189 79.46861-44.72711 78.81049-44.14235 77.781-43.21877 77.15352-42.65091 76.52603-42.08305 75.54439-41.18584 74.94612-40.6344 74.34787-40.08296 73.41075-39.21263 72.84164-38.67653 72.27252-38.14044 71.38533-37.29192 70.84433-36.77058 70.30331-36.24927 69.45653-35.42613 68.9424-34.91913 68.42827-34.41214 67.62596-33.61058 67.13882-33.11647 66.65169-32.62236 65.89276-31.83951 65.43141-31.35793 64.97005-30.87636 64.24997-30.11513 63.81366-29.64557 63.37735-29.17603 62.69841-28.43195 62.28674-27.97371 61.87508-27.51547 61.23416-26.79059 60.84662-26.34285 60.4591-25.89511 59.85794-25.18463 59.49373-24.74678 59.12952-24.30891 58.56296-23.61531 58.22165-23.18703 57.88037-22.75874 57.35252-22.0797 57.03394-21.65997 56.71536-21.24026 56.2224-20.5735 55.9255-20.162 55.62862-19.75049 55.16945-19.09792 54.89415-18.69412 54.61888-18.29033 54.19513-17.64871 53.94144-17.25168 53.68774-16.85464 53.29869-16.22307 53.06566-15.8326 52.83264-15.44212 52.47447-14.82181 52.26192-14.4374 52.04936-14.05296 51.72557-13.44115 51.53368-13.06189 51.3418-12.68265 51.05112-12.0784 50.8789-11.70406 50.7067-11.32971 50.44528-10.7339 50.29251-10.36386 50.13976-9.99385 49.9108-9.4036 49.77786-9.03717 49.64494-8.67076 49.44792-8.08597 49.33447-7.72295 49.22101-7.35991 49.0544-6.78094 48.96011-6.42064 48.8658-6.06033 48.73033-5.48405 48.65477-5.12613 48.57922-4.7682 48.472-4.19724 48.4155-3.84096 48.35898-3.4847 48.28502-2.9135 48.24744-2.55838 48.20987-2.20328 48.16353-1.6357 48.14467-1.28152 48.12582-.92734 48.11188-.35872 48.11157-.00569 48.11127 .3473 48.12402 .90974 48.14247 1.26283 48.1609 1.61594 48.20709 2.18422 48.24446 2.53918 48.28185 2.89417 48.35555 3.46512 48.41187 3.82124 48.46817 4.17735 48.575 4.74811 48.65036 5.10588 48.72572 5.46367 48.86093 6.03964 48.95505 6.39987 49.04915 6.76012 49.21527 7.33922 49.32863 7.70218 49.44199 8.06514 49.63933 8.64969 49.77203 9.01588 49.90474 9.38211 50.13295 9.97145 50.28511 10.34155 50.43727 10.71164 50.69695 11.3088 50.86865 11.6833 51.04036 12.05779 51.33089 12.66145 51.52266 13.04062 51.71445 13.41978 52.03853 14.03181 52.25089 14.4161 52.46324 14.80038 52.82037 15.42001 53.0532 15.81027 53.28604 16.20053 53.67548 16.83195 53.92899 17.22884 54.18248 17.62573 54.60559 18.26689 54.88028 18.67076 55.15494 19.07463 55.61246 19.72816 55.90865 20.13968 56.2048 20.55118 56.6966 21.21704 57.01486 21.63661 57.33315 22.0562 57.8615 22.7356 58.20259 23.16367 58.54367 23.59174 59.10942 24.28429 59.47322 24.72186 59.83702 25.15944 60.43724 25.86977 60.82457 26.31741 61.2119 26.76508 61.85326 27.49017 62.2648 27.94829 62.67636 28.40637 63.35521 29.14961 63.7908 29.6191 64.22641 30.08858 64.94333 30.85068 65.40428 31.33197 65.86525 31.81326 66.6263 32.59402 67.11313 33.08792 67.59996 33.58182 68.39966 34.38461 68.91307 34.89162 69.42648 35.39862 70.27254 36.22127 70.81343 36.74203 71.35434 37.26279 72.2428 38.10915 72.81152 38.64488 73.38025 39.18062 74.31496 40.0519 74.9124 40.60326 75.50983 41.15462 76.49037 42.05116 77.11745 42.61874 77.74452 43.18631 78.77417 44.1094 79.4319 44.6939 80.08963 45.27838 81.16882 46.22887 81.85794 46.83134 82.54706 47.43384 83.67708 48.41513 84.39856 49.03629 85.12006 49.65742 87.05792 51.30817 85.63217 50.0937"/>
<path transform="matrix(.76118567,.6485389,.6485389,-.76118567,179.79343,152.14614)" d="M1.27522 0C-.31879 .31879-1.91284 .9564-3.8257 2.07224-1.91284 .6376-1.91284-.6376-3.8257-2.07224-1.91284-.9564-.31879-.31879 1.27522 0Z" fill="#ff0000"/>
<path transform="matrix(.76118567,.6485389,.6485389,-.76118567,179.79343,152.14614)" stroke-width="1.19553" stroke-linecap="butt" stroke-linejoin="round" fill="none" stroke="#ff0000" d="M1.27522 0C-.31879 .31879-1.91284 .9564-3.8257 2.07224-1.91284 .6376-1.91284-.6376-3.8257-2.07224-1.91284-.9564-.31879-.31879 1.27522 0Z"/>
<path transform="matrix(.76126566,-.6484389,-.6484389,-.76126566,179.74918,51.91865)" d="M1.27522 0C-.31879 .31879-1.91284 .9564-3.8257 2.07224-1.91284 .6376-1.91284-.6376-3.8257-2.07224-1.91284-.9564-.31879-.31879 1.27522 0Z" fill="#ff0000"/>
<path transform="matrix(.76126566,-.6484389,-.6484389,-.76126566,179.74918,51.91865)" stroke-width="1.19553" stroke-linecap="butt" stroke-linejoin="round" fill="none" stroke="#ff0000" d="M1.27522 0C-.31879 .31879-1.91284 .9564-3.8257 2.07224-1.91284 .6376-1.91284-.6376-3.8257-2.07224-1.91284-.9564-.31879-.31879 1.27522 0Z"/>
<path transform="matrix(1.00006,0,0,-1.00006,94.11187,102.01534)" stroke-width="1.19553" stroke-linecap="butt" stroke-miterlimit="10" stroke-linejoin="miter" fill="none" stroke="#ff0000" d="M-85.67644-50.1278C-85.16333-49.69064-85.16333-49.69064-84.44113-49.0695-83.71893-48.44835-82.58679-47.4681-81.89687-46.86562-81.20694-46.2631-80.12675-45.31189-79.46861-44.72711-78.81049-44.14235-77.781-43.21877-77.15352-42.65091-76.52603-42.08305-75.54439-41.18584-74.94612-40.6344-74.34787-40.08296-73.41075-39.21263-72.84164-38.67653-72.27252-38.14044-71.38533-37.29192-70.84433-36.77058-70.30331-36.24927-69.45653-35.42613-68.9424-34.91913-68.42827-34.41214-67.62596-33.61058-67.13882-33.11647-66.65169-32.62236-65.89276-31.83951-65.43141-31.35793-64.97005-30.87636-64.24997-30.11513-63.81366-29.64557-63.37735-29.17603-62.69841-28.43195-62.28674-27.97371-61.87508-27.51547-61.23416-26.79059-60.84662-26.34285-60.4591-25.89511-59.85794-25.18463-59.49373-24.74678-59.12952-24.30891-58.56296-23.61531-58.22165-23.18703-57.88037-22.75874-57.35252-22.0797-57.03394-21.65997-56.71536-21.24026-56.2224-20.5735-55.9255-20.162-55.62862-19.75049-55.16945-19.09792-54.89415-18.69412-54.61888-18.29033-54.19513-17.64871-53.94144-17.25168-53.68774-16.85464-53.29869-16.22307-53.06566-15.8326-52.83264-15.44212-52.47447-14.82181-52.26192-14.4374-52.04936-14.05296-51.72557-13.44115-51.53368-13.06189-51.3418-12.68265-51.05112-12.0784-50.8789-11.70406-50.7067-11.32971-50.44528-10.7339-50.29251-10.36386-50.13976-9.99385-49.9108-9.4036-49.77786-9.03717-49.64494-8.67076-49.44792-8.08597-49.33447-7.72295-49.22101-7.35991-49.0544-6.78094-48.96011-6.42064-48.8658-6.06033-48.73033-5.48405-48.65477-5.12613-48.57922-4.7682-48.472-4.19724-48.4155-3.84096-48.35898-3.4847-48.28502-2.9135-48.24744-2.55838-48.20987-2.20328-48.16353-1.6357-48.14467-1.28152-48.12582-.92734-48.11188-.35872-48.11157-.00569-48.11127 .3473-48.12402 .90974-48.14247 1.26283-48.1609 1.61594-48.20709 2.18422-48.24446 2.53918-48.28185 2.89417-48.35555 3.46512-48.41187 3.82124-48.46817 4.17735-48.575 4.74811-48.65036 5.10588-48.72572 5.46367-48.86093 6.03964-48.95505 6.39987-49.04915 6.76012-49.21527 7.33922-49.32863 7.70218-49.44199 8.06514-49.63933 8.64969-49.77203 9.01588-49.90474 9.38211-50.13295 9.97145-50.28511 10.34155-50.43727 10.71164-50.69695 11.3088-50.86865 11.6833-51.04036 12.05779-51.33089 12.66145-51.52266 13.04062-51.71445 13.41978-52.03853 14.03181-52.25089 14.4161-52.46324 14.80038-52.82037 15.42001-53.0532 15.81027-53.28604 16.20053-53.67548 16.83195-53.92899 17.22884-54.18248 17.62573-54.60559 18.26689-54.88028 18.67076-55.15494 19.07463-55.61246 19.72816-55.90865 20.13968-56.2048 20.55118-56.6966 21.21704-57.01486 21.63661-57.33315 22.0562-57.8615 22.7356-58.20259 23.16367-58.54367 23.59174-59.10942 24.28429-59.47322 24.72186-59.83702 25.15944-60.43724 25.86977-60.82457 26.31741-61.2119 26.76508-61.85326 27.49017-62.2648 27.94829-62.67636 28.40637-63.35521 29.14961-63.7908 29.6191-64.22641 30.08858-64.94333 30.85068-65.40428 31.33197-65.86525 31.81326-66.6263 32.59402-67.11313 33.08792-67.59996 33.58182-68.39966 34.38461-68.91307 34.89162-69.42648 35.39862-70.27254 36.22127-70.81343 36.74203-71.35434 37.26279-72.2428 38.10915-72.81152 38.64488-73.38025 39.18062-74.31496 40.0519-74.9124 40.60326-75.50983 41.15462-76.49037 42.05116-77.11745 42.61874-77.74452 43.18631-78.77417 44.1094-79.4319 44.6939-80.08963 45.27838-81.16882 46.22887-81.85794 46.83134-82.54706 47.43384-83.67708 48.41513-84.39856 49.03629-85.12006 49.65742-87.05792 51.30817-85.63217 50.0937"/>
<path transform="matrix(-.76118567,.6485389,.6485389,.76118567,8.430313,152.14614)" d="M1.27522 0C-.31879 .31879-1.91284 .9564-3.8257 2.07224-1.91284 .6376-1.91284-.6376-3.8257-2.07224-1.91284-.9564-.31879-.31879 1.27522 0Z" fill="#ff0000"/>
<path transform="matrix(-.76118567,.6485389,.6485389,.76118567,8.430313,152.14614)" stroke-width="1.19553" stroke-linecap="butt" stroke-linejoin="round" fill="none" stroke="#ff0000" d="M1.27522 0C-.31879 .31879-1.91284 .9564-3.8257 2.07224-1.91284 .6376-1.91284-.6376-3.8257-2.07224-1.91284-.9564-.31879-.31879 1.27522 0Z"/>
<path transform="matrix(-.76126566,-.6484389,-.6484389,.76126566,8.474564,51.91865)" d="M1.27522 0C-.31879 .31879-1.91284 .9564-3.8257 2.07224-1.91284 .6376-1.91284-.6376-3.8257-2.07224-1.91284-.9564-.31879-.31879 1.27522 0Z" fill="#ff0000"/>
<path transform="matrix(-.76126566,-.6484389,-.6484389,.76126566,8.474564,51.91865)" stroke-width="1.19553" stroke-linecap="butt" stroke-linejoin="round" fill="none" stroke="#ff0000" d="M1.27522 0C-.31879 .31879-1.91284 .9564-3.8257 2.07224-1.91284 .6376-1.91284-.6376-3.8257-2.07224-1.91284-.9564-.31879-.31879 1.27522 0Z"/>
</svg>
