<svg xmlns="http://www.w3.org/2000/svg" xmlns:xlink="http://www.w3.org/1999/xlink" version="1.1" width="232" height="226" viewBox="0 0 232 226">
<defs>
<path id="font_1_3" d="M.20599365 .3996582H.2999878C.31999208 .3996582 .32998658 .3996582 .32998658 .41966249 .32998658 .43066407 .31999208 .43066407 .3019867 .43066407H.21398926C.25 .5724945 .25498963 .59246829 .25498963 .59846499 .25498963 .61546328 .24299622 .62545779 .22599793 .62545779 .22299195 .62545779 .19499207 .62446597 .18598938 .58947756L.14698792 .43066407H.052993776C.032989503 .43066407 .022994996 .43066407 .022994996 .4116516 .022994996 .3996582 .0309906 .3996582 .050994874 .3996582H.13899231C.066986087 .11608887 .06298828 .099121097 .06298828 .08114624 .06298828 .02722168 .100997928-.0107421879 .15499878-.0107421879 .25698854-.0107421879 .31399537 .13505554 .31399537 .14305115 .31399537 .1530304 .30599977 .1530304 .3019867 .1530304 .29299928 .1530304 .2919922 .15003968 .2869873 .13905335 .24398804 .035217287 .19099427 .011245728 .15699768 .011245728 .13598633 .011245728 .12599182 .024230957 .12599182 .057174684 .12599182 .08114624 .12799073 .088134769 .13198853 .10510254L.20599365 .3996582Z"/>
<path id="font_1_2" d="M.04499817-.122177127C.036987306-.15631104 .034988405-.16334534-.009002686-.16334534-.021011353-.16334534-.03201294-.16334534-.03201294-.18234253-.03201294-.19033814-.027008057-.19433594-.019012452-.19433594 .0079956059-.19433594 .036987306-.19134522 .06498718-.19134522 .09799194-.19134522 .13198853-.19433594 .1639862-.19433594 .16899109-.19433594 .18199158-.19433594 .18199158-.17434693 .18199158-.16334534 .17199707-.16334534 .1579895-.16334534 .10798645-.16334534 .10798645-.15631104 .10798645-.14727783 .10798645-.13523865 .1499939 .028259278 .15699768 .053268434 .16999817 .024261475 .19799805-.0107421879 .24899292-.0107421879 .36499024-.0107421879 .48999024 .13528443 .48999024 .28233338 .48999024 .37635804 .43299867 .4423828 .35699464 .4423828 .30699159 .4423828 .25898744 .40637208 .22599793 .36735536 .21598816 .42137147 .17298889 .4423828 .13598633 .4423828 .08999634 .4423828 .070999149 .4033661 .06199646 .38536073 .04399109 .35134889 .0309906 .29133607 .0309906 .28833009 .0309906 .27833558 .040985109 .27833558 .042999269 .27833558 .052993776 .27833558 .053985597 .2793274 .05999756 .30133058 .07699585 .37236024 .09700012 .42037965 .1329956 .42037965 .1499939 .42037965 .1639862 .41236878 .1639862 .37435914 .1639862 .35134889 .16099549 .3403473 .15699768 .323349L.04499817-.122177127M.22099304 .3123474C.22799683 .33935548 .25498963 .36735536 .272995 .38235475 .30799867 .41337586 .33699037 .42037965 .35398866 .42037965 .3939972 .42037965 .41799928 .38536073 .41799928 .32633973 .41799928 .26733399 .3849945 .15229798 .36698915 .11428833 .33299256 .044265748 .2849884 .011245728 .24798584 .011245728 .18199158 .011245728 .16899109 .0942688 .16899109 .10028076 .16899109 .10227966 .16899109 .104278568 .17199707 .11628723L.22099304 .3123474Z"/>
<path id="font_2_1" d="M.33099366-.2400055C.33099366-.23701477 .33099366-.23500061 .31399537-.21800232 .18899536-.0920105 .15699768 .09700012 .15699768 .25 .15699768 .42399598 .19499207 .59799197 .31799317 .72299197 .33099366 .73498538 .33099366 .7369995 .33099366 .73999026 .33099366 .746994 .32699586 .75 .32099916 .75 .31098939 .75 .22099304 .6819916 .1619873 .5549927 .11099243 .44499208 .09899902 .33399964 .09899902 .25 .09899902 .17199707 .10998535 .050994874 .16499329-.06201172 .22499085-.18501282 .31098939-.25 .32099916-.25 .32699586-.25 .33099366-.24700928 .33099366-.2400055Z"/>
<path id="font_2_2" d="M.2889862 .25C.2889862 .32798768 .27799989 .44898988 .22299195 .56199648 .16299439 .68499758 .07699585 .75 .066986087 .75 .06098938 .75 .056991579 .74598696 .056991579 .73999026 .056991579 .7369995 .056991579 .73498538 .07598877 .71699526 .17399597 .6179962 .23098755 .45899964 .23098755 .25 .23098755 .07899475 .19400025-.09700012 .069992069-.2230072 .056991579-.23500061 .056991579-.23701477 .056991579-.2400055 .056991579-.2460022 .06098938-.25 .066986087-.25 .07699585-.25 .16699219-.18200684 .22599793-.055007936 .2769928 .054992677 .2889862 .16600037 .2889862 .25Z"/>
<path id="font_3_1" d="M.6589966 .23046875C.6759949 .23046875 .69400027 .23046875 .69400027 .25045777 .69400027 .27046205 .6759949 .27046205 .6589966 .27046205H.117996219C.100997928 .27046205 .08299255 .27046205 .08299255 .25045777 .08299255 .23046875 .100997928 .23046875 .117996219 .23046875H.6589966Z"/>
<path id="font_2_6" d="M.44898988 .20022583C.44898988 .3193512 .36698915 .41944886 .25898744 .41944886 .21099854 .41944886 .16799927 .40345765 .13198853 .36842347V.5637665C.1519928 .5577698 .18499756 .55078127 .21699524 .55078127 .33999635 .55078127 .4099884 .6417694 .4099884 .6547699 .4099884 .6607666 .40699769 .6657715 .3999939 .6657715 .39898683 .6657715 .39698792 .6657715 .3919983 .66278079 .37199403 .6537781 .32299806 .6337738 .2559967 .6337738 .21598816 .6337738 .16999817 .6407776 .12298584 .6617737 .114990238 .66477969 .11299133 .66477969 .11099243 .66477969 .100997928 .66477969 .100997928 .6567688 .100997928 .6407776V.34439088C.100997928 .32637025 .100997928 .31835938 .114990238 .31835938 .12199402 .31835938 .12399292 .32136537 .12799073 .32736207 .13899231 .3433838 .17599488 .39746095 .25698854 .39746095 .30899049 .39746095 .33399964 .35139466 .34199525 .33337403 .35798646 .29632569 .3600006 .25727845 .3600006 .20722962 .3600006 .17222595 .3600006 .11222839 .33599855 .07035828 .31199647 .031463624 .2749939 .0055389406 .22898865 .0055389406 .1559906 .0055389406 .09899902 .058380128 .08198547 .11723328 .084991458 .1162262 .08799744 .115234378 .09899902 .115234378 .13198853 .115234378 .14898682 .14022827 .14898682 .16423035 .14898682 .18823242 .13198853 .21322632 .09899902 .21322632 .084991458 .21322632 .049987794 .20622254 .049987794 .16023255 .049987794 .07434082 .11898804-.022460938 .23098755-.022460938 .34700013-.022460938 .44898988 .073349 .44898988 .20022583Z"/>
<path id="font_2_4" d="M.2939911 .64004519C.2939911 .66400149 .2939911 .6660156 .2709961 .6660156 .20899964 .60227969 .12098694 .60227969 .08898926 .60227969V.57128909C.10899353 .57128909 .16799927 .57128909 .21998596 .5972748V.07902527C.21998596 .042999269 .21699524 .0309906 .1269989 .0309906H.09498596V0C.12998963 .0029907227 .21699524 .0029907227 .25698854 .0029907227 .29699708 .0029907227 .38398744 .0029907227 .4189911 0V.0309906H.3869934C.29699708 .0309906 .2939911 .041992189 .2939911 .07902527V.64004519Z"/>
<path id="font_2_3" d="M.45999146 .31976319C.45999146 .39982606 .45498658 .47988893 .41999818 .5539398 .37399293 .65000918 .2919922 .6660156 .25 .6660156 .18998719 .6660156 .116989139 .64001467 .07598877 .54693606 .04399109 .47789 .038986207 .39982606 .038986207 .31976319 .038986207 .24472046 .042999269 .15464783 .083999637 .07859802 .1269989-.0024719239 .19999695-.022460938 .24899292-.022460938 .30299378-.022460938 .3789978-.0014648438 .4229889 .09359741 .45498658 .16265869 .45999146 .2407074 .45999146 .31976319M.24899292-.00047302247C.20999146-.00047302247 .15098572 .024551392 .1329956 .12062073 .12199402 .18066406 .12199402 .2727356 .12199402 .3317871 .12199402 .39582826 .12199402 .46188355 .12998963 .5159149 .14898682 .63500979 .22399903 .64401248 .24899292 .64401248 .28199769 .64401248 .34799195 .6259918 .36698915 .52693179 .3769989 .47088624 .3769989 .39482118 .3769989 .3317871 .3769989 .25672914 .3769989 .18867493 .3659973 .12461853 .35099793 .029556275 .2939911-.00047302247 .24899292-.00047302247Z"/>
<path id="font_1_1" d="M.20298767 .0009918213C.20298767 .066986087 .17799378 .10598755 .13899231 .10598755 .10598755 .10598755 .085998538 .08099365 .085998538 .052993776 .085998538 .025985718 .10598755 0 .13899231 0 .15098572 0 .1639862 .0039978029 .17399597 .0129852299 .1769867 .01499939 .17799378 .015991211 .1789856 .015991211 .17999268 .015991211 .18099976 .01499939 .18099976 .0009918213 .18099976-.07316589 .1459961-.13328552 .11299133-.16635132 .101989749-.17736817 .101989749-.17936707 .101989749-.18237305 .101989749-.18936157 .10699463-.19335938 .11199951-.19335938 .12298584-.19335938 .20298767-.116256717 .20298767 .0009918213Z"/>
<path id="font_2_5" d="M.2899933 .35191346C.37199403 .37893678 .42999269 .4490509 .42999269 .52809146 .42999269 .6100464 .34199525 .6660156 .24598694 .6660156 .14498902 .6660156 .068984989 .60606387 .068984989 .53009036 .068984989 .49710084 .09098816 .47808839 .11999512 .47808839 .15098572 .47808839 .17098999 .50009158 .17098999 .5290985 .17098999 .57910159 .12399292 .57910159 .10899353 .57910159 .13999939 .62802127 .20599365 .64100649 .24198914 .64100649 .2829895 .64100649 .33799745 .6190338 .33799745 .5290985 .33799745 .51708987 .33599855 .45906068 .30999757 .4149933 .27999879 .36691285 .24598694 .36390687 .22099304 .36291505 .21299744 .36190797 .18899536 .35990907 .18199158 .35990907 .17399597 .35890199 .16699219 .35791017 .16699219 .3479004 .16699219 .33691407 .17399597 .33691407 .19099427 .33691407H.23498535C.31698609 .33691407 .35398866 .2686615 .35398866 .17037964 .35398866 .034469606 .2849884 .0055389406 .24099732 .0055389406 .19799805 .0055389406 .12298584 .022491456 .08799744 .08137512 .12298584 .07637024 .1539917 .09837341 .1539917 .1363678 .1539917 .17237854 .1269989 .19238281 .09799194 .19238281 .07398987 .19238281 .041992189 .17837525 .041992189 .1343689 .041992189 .043441774 .1349945-.022460938 .24398804-.022460938 .3659973-.022460938 .45700074 .06838989 .45700074 .17037964 .45700074 .252594 .3939972 .33088685 .2899933 .35191346Z"/>
<path id="font_4_1" d="M.5149994-1.7478027C.5169983-1.7487946 .526001-1.7587891 .5269928-1.7587891H.548996C.5519867-1.7587891 .55999758-1.7577973 .55999758-1.7487946 .55999758-1.7447968 .55799868-1.7427979 .55599978-1.7397919 .519989-1.7037964 .46598817-1.6488037 .4039917-1.5388184 .29599-1.3468323 .2559967-1.0998688 .2559967-.8598938 .2559967-.41593934 .38198854-.154953 .5569916 .022033692 .55999758 .025024414 .55999758 .028030396 .55999758 .030029297 .55999758 .040039064 .5529938 .040039064 .54100039 .040039064 .5279999 .040039064 .526001 .040039064 .5169983 .0320282 .42199708-.049972536 .31498719-.18894959 .24598694-.39993287 .20298767-.5319214 .17999268-.6929016 .17999268-.8588867 .17999268-1.0958557 .22299195-1.3638306 .37998963-1.5958099 .40699769-1.6348114 .44400025-1.6757965 .44400025-1.6768036 .45399476-1.688797 .46798707-1.7048035 .47599793-1.711792L.5149994-1.7478027Z"/>
<path id="font_3_2" d="M.3889923-.8549652 .21299744-.4659729C.20599365-.44996644 .20098877-.44996644 .19799805-.44996644 .19699097-.44996644 .19198609-.44996644 .18099976-.45796205L.085998538-.52996829C.07299805-.53996279 .07299805-.54296877 .07299805-.54597476 .07299805-.55096438 .07598877-.55696108 .08299255-.55696108 .08898926-.55696108 .10598755-.54296877 .116989139-.53497317 .12298584-.52996829 .13798523-.5189667 .14898682-.51097109L.34599305-.9439697C.35299684-.95996096 .35798646-.95996096 .36698915-.95996096 .38198854-.95996096 .3849945-.95396426 .3919983-.9399719L.84599307 .000030517579C.8529968 .014038086 .8529968 .018035889 .8529968 .02003479 .8529968 .030029297 .8450012 .040039064 .83299258 .040039064 .82499697 .040039064 .81799319 .03503418 .80999758 .01902771L.3889923-.8549652Z"/>
<path id="font_4_2" d="M.41600038-.8588867C.41600038-.5719147 .34899903-.2669525 .1519928-.04197693 .13798523-.025970459 .100997928 .013031006 .07699585 .0340271 .069992069 .040039064 .067993167 .040039064 .054992677 .040039064 .04499817 .040039064 .035995485 .040039064 .035995485 .030029297 .035995485 .026031495 .039993287 .022033692 .041992189 .02003479 .07598877-.014968872 .12998963-.06996155 .19198609-.17996216 .2999878-.37193299 .33999635-.61891177 .33999635-.8588867 .33999635-1.2928467 .21998596-1.5578156 .039993287-1.740799 .037994386-1.7427979 .035995485-1.7458038 .035995485-1.7487946 .035995485-1.7587891 .04499817-1.7587891 .054992677-1.7587891 .067993167-1.7587891 .069992069-1.7587891 .07899475-1.7507935 .17399597-1.668808 .2809906-1.5298157 .34999085-1.3188324 .3939972-1.1818543 .41600038-1.019867 .41600038-.8588867Z"/>
</defs>
<path transform="matrix(1.00002,0,0,-1,108.281909,121.99)" stroke-width=".3985" stroke-linecap="butt" stroke-miterlimit="10" stroke-linejoin="miter" fill="none" stroke="#00aeef" d="M-99.21555-99.21555H99.21555M-99.21555-89.29399H99.21555M-99.21555-79.37244H99.21555M-99.21555-69.45088H99.21555M-99.21555-59.52933H99.21555M-99.21555-49.60777H99.21555M-99.21555-39.68622H99.21555M-99.21555-29.76466H99.21555M-99.21555-19.84311H99.21555M-99.21555-9.92155H99.21555M-99.21555 0H99.21555M-99.21555 9.92155H99.21555M-99.21555 19.84311H99.21555M-99.21555 29.76466H99.21555M-99.21555 39.68622H99.21555M-99.21555 49.60777H99.21555M-99.21555 59.52933H99.21555M-99.21555 69.45088H99.21555M-99.21555 79.37244H99.21555M-99.21555 89.29399H99.21555M-99.21555 99.21207H99.21555M-99.21555-99.21555V99.21555M-89.29399-99.21555V99.21555M-79.37244-99.21555V99.21555M-69.45088-99.21555V99.21555M-59.52933-99.21555V99.21555M-49.60777-99.21555V99.21555M-39.68622-99.21555V99.21555M-29.76466-99.21555V99.21555M-19.84311-99.21555V99.21555M-9.92155-99.21555V99.21555M0-99.21555V99.21555M9.92155-99.21555V99.21555M19.84311-99.21555V99.21555M29.76466-99.21555V99.21555M39.68622-99.21555V99.21555M49.60777-99.21555V99.21555M59.52933-99.21555V99.21555M69.45088-99.21555V99.21555M79.37244-99.21555V99.21555M89.29399-99.21555V99.21555M99.21207-99.21555V99.21555M99.21555 99.21555"/>
<path transform="matrix(1.00002,0,0,-1,108.281909,121.99)" stroke-width=".79701" stroke-linecap="butt" stroke-miterlimit="10" stroke-linejoin="miter" fill="none" stroke="#000000" d="M-99.21555 0H113.65549"/>
<path transform="matrix(1.00002,0,0,-1,221.93967,121.99)" d="M1.0361 0C-.25902 .25902-1.55415 .77707-3.1083 1.68365-1.55415 .51805-1.55415-.51805-3.1083-1.68365-1.55415-.77707-.25902-.25902 1.0361 0Z"/>
<path transform="matrix(1.00002,0,0,-1,221.93967,121.99)" stroke-width=".79701" stroke-linecap="butt" stroke-linejoin="round" fill="none" stroke="#000000" d="M1.0361 0C-.25902 .25902-1.55415 .77707-3.1083 1.68365-1.55415 .51805-1.55415-.51805-3.1083-1.68365-1.55415-.77707-.25902-.25902 1.0361 0Z"/>
<use data-text="t" xlink:href="#font_1_3" transform="matrix(9.962799,0,0,-9.9626,227.09329,125.054)"/>
<path transform="matrix(1.00002,0,0,-1,108.281909,121.99)" stroke-width=".79701" stroke-linecap="butt" stroke-miterlimit="10" stroke-linejoin="miter" fill="none" stroke="#000000" d="M0-99.21555V113.65549"/>
<path transform="matrix(0,-1,-1.00002,-0,108.281909,8.334511)" d="M1.0361 0C-.25902 .25902-1.55415 .77707-3.1083 1.68365-1.55415 .51805-1.55415-.51805-3.1083-1.68365-1.55415-.77707-.25902-.25902 1.0361 0Z"/>
<path transform="matrix(0,-1,-1.00002,-0,108.281909,8.334511)" stroke-width=".79701" stroke-linecap="butt" stroke-linejoin="round" fill="none" stroke="#000000" d="M1.0361 0C-.25902 .25902-1.55415 .77707-3.1083 1.68365-1.55415 .51805-1.55415-.51805-3.1083-1.68365-1.55415-.77707-.25902-.25902 1.0361 0Z"/>
<use data-text="p" xlink:href="#font_1_2" transform="matrix(9.962799,0,0,-9.9626,90.19554,9.390999)"/>
<use data-text="(" xlink:href="#font_2_1" transform="matrix(9.962799,0,0,-9.9626,95.20865,9.390999)"/>
<use data-text="t" xlink:href="#font_1_3" transform="matrix(9.962799,0,0,-9.9626,99.08272,9.390999)"/>
<use data-text=")" xlink:href="#font_2_2" transform="matrix(9.962799,0,0,-9.9626,102.6808,9.390999)"/>
<path transform="matrix(1.00002,0,0,-1,108.281909,121.99)" stroke-width="1.19553" stroke-linecap="butt" stroke-miterlimit="10" stroke-linejoin="miter" fill="none" stroke="#00aeef" d="M-49.60777-99.21555V99.21555"/>
<path transform="matrix(1.00002,0,0,-1,108.281909,121.99)" stroke-width="1.19553" stroke-linecap="butt" stroke-miterlimit="10" stroke-linejoin="miter" fill="none" stroke="#00aeef" d="M-99.21555-49.60777H99.21555"/>
<path transform="matrix(1.00002,0,0,-1,108.281909,121.99)" stroke-width=".3985" stroke-linecap="butt" stroke-miterlimit="10" stroke-linejoin="miter" fill="none" stroke="#000000" d="M-49.60777 1.48816V-1.48831"/>
<path transform="matrix(1.00002,0,0,-1,108.281909,121.99)" d="M-56.96916-12.92334H-42.246377V-3.68011H-56.96916Z" fill="#ffffff"/>
<use data-text="&#x2212;" xlink:href="#font_3_1" transform="matrix(9.962799,0,0,-9.9626,52.307786,133.087)"/>
<use data-text="5" xlink:href="#font_2_6" transform="matrix(9.962799,0,0,-9.9626,60.05693,133.087)"/>
<path transform="matrix(1.00002,0,0,-1,108.281909,121.99)" stroke-width=".3985" stroke-linecap="butt" stroke-miterlimit="10" stroke-linejoin="miter" fill="none" stroke="#000000" d="M1.48816-49.60777H-1.48831"/>
<path transform="matrix(1.00002,0,0,-1,108.281909,121.99)" d="M-18.4029-54.22939H-3.6801205V-44.98616H-18.4029Z" fill="#ffffff"/>
<use data-text="&#x2212;" xlink:href="#font_3_1" transform="matrix(9.962799,0,0,-9.9626,90.87456,174.393)"/>
<use data-text="5" xlink:href="#font_2_6" transform="matrix(9.962799,0,0,-9.9626,98.6237,174.393)"/>
<path transform="matrix(1.00002,0,0,-1,108.281909,121.99)" stroke-width="1.19553" stroke-linecap="butt" stroke-miterlimit="10" stroke-linejoin="miter" fill="none" stroke="#00aeef" d="M49.60777-99.21555V99.21555"/>
<path transform="matrix(1.00002,0,0,-1,108.281909,121.99)" stroke-width="1.19553" stroke-linecap="butt" stroke-miterlimit="10" stroke-linejoin="miter" fill="none" stroke="#00aeef" d="M-99.21555 49.60777H99.21555"/>
<path transform="matrix(1.00002,0,0,-1,108.281909,121.99)" stroke-width=".3985" stroke-linecap="butt" stroke-miterlimit="10" stroke-linejoin="miter" fill="none" stroke="#000000" d="M49.60777 1.48816V-1.48831"/>
<path transform="matrix(1.00002,0,0,-1,108.281909,121.99)" d="M46.1208-12.09311H53.09474V-3.68013H46.1208Z" fill="#ffffff"/>
<use data-text="5" xlink:href="#font_2_6" transform="matrix(9.962799,0,0,-9.9626,155.39984,133.087)"/>
<path transform="matrix(1.00002,0,0,-1,108.281909,121.99)" stroke-width=".3985" stroke-linecap="butt" stroke-miterlimit="10" stroke-linejoin="miter" fill="none" stroke="#000000" d="M1.48816 49.60777H-1.48831"/>
<path transform="matrix(1.00002,0,0,-1,108.281909,121.99)" d="M-10.65405 45.40128H-3.68011V53.81426H-10.65405Z" fill="#ffffff"/>
<use data-text="5" xlink:href="#font_2_6" transform="matrix(9.962799,0,0,-9.9626,98.62371,75.591999)"/>
<path transform="matrix(1.00002,0,0,-1,108.281909,121.99)" stroke-width="1.19553" stroke-linecap="butt" stroke-miterlimit="10" stroke-linejoin="miter" fill="none" stroke="#00aeef" d="M-99.21555-99.21555V99.21555"/>
<path transform="matrix(1.00002,0,0,-1,108.281909,121.99)" stroke-width="1.19553" stroke-linecap="butt" stroke-miterlimit="10" stroke-linejoin="miter" fill="none" stroke="#00aeef" d="M-99.21555-99.21555H99.21555"/>
<path transform="matrix(1.00002,0,0,-1,108.281909,121.99)" stroke-width=".3985" stroke-linecap="butt" stroke-miterlimit="10" stroke-linejoin="miter" fill="none" stroke="#000000" d="M-99.21555 1.48816V-1.48831"/>
<path transform="matrix(1.00002,0,0,-1,108.281909,121.99)" d="M-109.06766-12.92334H-89.36346V-3.68011H-109.06766Z" fill="#ffffff"/>
<use data-text="&#x2212;" xlink:href="#font_3_1" transform="matrix(9.962799,0,0,-9.9626,.20874024,133.087)"/>
<use data-text="1" xlink:href="#font_2_4" transform="matrix(9.962799,0,0,-9.9626,7.9578859,133.087)"/>
<use data-text="0" xlink:href="#font_2_3" transform="matrix(9.962799,0,0,-9.9626,12.939285,133.087)"/>
<path transform="matrix(1.00002,0,0,-1,108.281909,121.99)" stroke-width=".3985" stroke-linecap="butt" stroke-miterlimit="10" stroke-linejoin="miter" fill="none" stroke="#000000" d="M1.48816-99.21555H-1.48831"/>
<path transform="matrix(1.00002,0,0,-1,108.281909,121.99)" d="M-23.38431-103.83717H-3.680109V-94.59394H-23.38431Z" fill="#ffffff"/>
<use data-text="&#x2212;" xlink:href="#font_3_1" transform="matrix(9.962799,0,0,-9.9626,85.893459,224.001)"/>
<use data-text="1" xlink:href="#font_2_4" transform="matrix(9.962799,0,0,-9.9626,93.6426,224.001)"/>
<use data-text="0" xlink:href="#font_2_3" transform="matrix(9.962799,0,0,-9.9626,98.624,224.001)"/>
<path transform="matrix(1.00002,0,0,-1,108.281909,121.99)" stroke-width="1.19553" stroke-linecap="butt" stroke-miterlimit="10" stroke-linejoin="miter" fill="none" stroke="#00aeef" d="M99.21555-99.21555V99.21555"/>
<path transform="matrix(1.00002,0,0,-1,108.281909,121.99)" stroke-width="1.19553" stroke-linecap="butt" stroke-miterlimit="10" stroke-linejoin="miter" fill="none" stroke="#00aeef" d="M-99.21555 99.21555H99.21555"/>
<path transform="matrix(1.00002,0,0,-1,108.281909,121.99)" stroke-width=".3985" stroke-linecap="butt" stroke-miterlimit="10" stroke-linejoin="miter" fill="none" stroke="#000000" d="M99.21555 1.48816V-1.48831"/>
<path transform="matrix(1.00002,0,0,-1,108.281909,121.99)" d="M93.23787-12.09311H105.19321V-3.68013H93.23787Z" fill="#ffffff"/>
<use data-text="1" xlink:href="#font_2_4" transform="matrix(9.962799,0,0,-9.9626,202.51779,133.087)"/>
<use data-text="0" xlink:href="#font_2_3" transform="matrix(9.962799,0,0,-9.9626,207.49919,133.087)"/>
<path transform="matrix(1.00002,0,0,-1,108.281909,121.99)" stroke-width=".3985" stroke-linecap="butt" stroke-miterlimit="10" stroke-linejoin="miter" fill="none" stroke="#000000" d="M1.48816 99.21555H-1.48831"/>
<path transform="matrix(1.00002,0,0,-1,108.281909,121.99)" d="M-15.63547 95.00906H-3.68013V103.42204H-15.63547Z" fill="#ffffff"/>
<use data-text="1" xlink:href="#font_2_4" transform="matrix(9.962799,0,0,-9.9626,93.64262,25.985)"/>
<use data-text="0" xlink:href="#font_2_3" transform="matrix(9.962799,0,0,-9.9626,98.624019,25.985)"/>
<path transform="matrix(1.00002,0,0,-1,108.281909,121.99)" stroke-width="1.19553" stroke-linecap="butt" stroke-miterlimit="10" stroke-linejoin="miter" fill="none" stroke="#ff0000" d="M-35.7726-99.2151C-35.7726-99.2151-34.96494-93.44696-34.65472-91.27994-34.34453-89.11292-33.84706-85.69382-33.53687-83.5967-33.22667-81.49957-32.72919-78.19258-32.41899-76.16537-32.1088-74.13815-31.61133-70.94327-31.3011-68.98596-30.9909-67.02864-30.49344-63.94585-30.18324-62.05846-29.87305-60.17107-29.37558-57.20036-29.06537-55.38287-28.75517-53.56538-28.2577-50.7068-27.94751-48.95921-27.63731-47.21162-27.13985-44.46515-26.82964-42.78745-26.51944-41.10974-26.02196-38.47525-25.71176-36.86746-25.40155-35.25966-24.9041-32.73744-24.59389-31.19952-24.28369-29.66164-23.78622-27.25136-23.47603-25.78337-23.16582-24.31538-22.66837-22.01736-22.35815-20.61928-22.04796-19.22119-21.55049-17.03514-21.2403-15.70695-20.93007-14.37874-20.4326-12.30481-20.1224-11.04652-19.81221-9.78825-19.31474-7.82654-19.00455-6.63817-18.69434-5.44981-18.19687-3.60007-17.88667-2.48158-17.57648-1.36311-17.07901 .37448-16.76881 1.42305-16.4586 2.47163-15.96112 4.09714-15.65092 5.0758-15.34073 6.05449-14.84326 7.5679-14.53305 8.47665-14.22285 9.38544-13.72539 10.78673-13.41519 11.6256-13.10498 12.46448-12.60751 13.75378-12.29732 14.52277-11.98712 15.29173-11.48965 16.46881-11.17946 17.16786-10.86923 17.86691-10.37177 18.93188-10.06157 19.56105-9.75137 20.19023-9.2539 21.14322-8.9437 21.70247-8.6335 22.26173-8.13603 23.10248-7.82584 23.59184-7.51564 24.08119-7.01817 24.80997-6.70796 25.22945-6.39777 25.64891-5.90028 26.26555-5.59009 26.61511-5.27989 26.96469-4.78242 27.46924-4.47221 27.74887-4.16202 28.02852-3.66455 28.42085-3.35435 28.63058-3.04414 28.84032-2.54669 29.12068-2.23648 29.26051-1.92628 29.40038-1.42882 29.5686-1.11862 29.63855-.80841 29.7085-.31094 29.7646-.00073 29.76466 .30943 29.76471 .8069 29.70883 1.1171 29.639 1.42729 29.56917 1.92476 29.40105 2.23497 29.26128 2.54517 29.1215 3.04263 28.8413 3.35283 28.63164 3.66302 28.422 4.1605 28.0298 4.47072 27.75024 4.78091 27.47069 5.27838 26.96623 5.58858 26.61679 5.89879 26.26732 6.39626 25.65091 6.70645 25.23155 7.01665 24.8122 7.51411 24.08353 7.82433 23.59427 8.13452 23.105 8.63199 22.26436 8.94218 21.7052 9.25238 21.14606 9.74986 20.1933 10.06007 19.56424 10.37027 18.93518 10.86774 17.87032 11.17793 17.17134 11.48813 16.47238 11.9856 15.29541 12.2958 14.52655 12.606 13.75768 13.10347 12.46861 13.41367 11.62982 13.72388 10.79106 14.22134 9.3899 14.53156 8.4812 14.84175 7.57253 15.33922 6.05927 15.64941 5.08066 15.95963 4.10208 16.45708 2.4767 16.76729 1.4282 17.07748 .37971 17.57495-1.35776 17.88515-2.47614 18.19536-3.59451 18.69281-5.44398 19.00302-6.63226 19.31322-7.82056 19.8107-9.78229 20.1209-11.04048 20.4311-12.29866 20.92857-14.37234 21.23877-15.70042 21.54897-17.02853 22.04643-19.21446 22.35663-20.61246 22.66684-22.01047 23.1643-24.30838 23.4745-25.77626 23.7847-27.24414 24.2822-29.65417 24.59239-31.19196 24.90259-32.72975 25.40005-35.25188 25.71025-36.85959 26.02046-38.4673 26.51793-41.10165 26.82813-42.77927 27.13832-44.4569 27.63579-47.20325 27.94598-48.95073 28.2562-50.69821 28.75366-53.55656 29.06386-55.37395 29.37405-57.19135 29.87154-60.16191 30.18175-62.04922 30.49194-63.93654 30.98941-67.01921 31.2996-68.97641 31.6098-70.93364 32.10727-74.12843 32.41748-76.15553 32.72768-78.18263 33.22514-81.4894 33.53534-83.5864 33.84554-85.68343 34.343-89.10242 34.65323-91.26935 34.96342-93.43626 35.77109-99.20404 35.77109-99.20404"/>
<path transform="matrix(1.00002,0,0,-1,108.281909,121.99)" d="M1.78578 29.76466C1.78578 30.75093 .98627 31.55045 0 31.55045-.98627 31.55045-1.78578 30.75093-1.78578 29.76466-1.78578 28.77838-.98627 27.97887 0 27.97887 .98627 27.97887 1.78578 28.77838 1.78578 29.76466ZM0 29.76466" fill="#ff0000"/>
<path transform="matrix(1.00002,0,0,-1,108.281909,121.99)" stroke-width=".3985" stroke-linecap="butt" stroke-miterlimit="10" stroke-linejoin="miter" fill="none" stroke="#ff0000" d="M1.78578 29.76466C1.78578 30.75093 .98627 31.55045 0 31.55045-.98627 31.55045-1.78578 30.75093-1.78578 29.76466-1.78578 28.77838-.98627 27.97887 0 27.97887 .98627 27.97887 1.78578 28.77838 1.78578 29.76466ZM0 29.76466"/>
<path transform="matrix(1.00002,0,0,-1,108.281909,121.99)" d="M3.18808 29.96391H27.32011V41.919229H3.18808Z" fill="#ffffff"/>
<use data-text="(" xlink:href="#font_2_1" transform="matrix(9.962799,0,0,-9.9626,112.46599,88.539)" fill="#ff0000"/>
<use data-text="0" xlink:href="#font_2_3" transform="matrix(9.962799,0,0,-9.9626,116.33156,88.539)" fill="#ff0000"/>
<use data-text="," xlink:href="#font_1_1" transform="matrix(9.962799,0,0,-9.9626,121.322177,88.539)" fill="#ff0000"/>
<use data-text="3" xlink:href="#font_2_5" transform="matrix(9.962799,0,0,-9.9626,125.75026,88.539)" fill="#ff0000"/>
<use data-text=")" xlink:href="#font_2_2" transform="matrix(9.962799,0,0,-9.9626,130.73165,88.539)" fill="#ff0000"/>
<path transform="matrix(1.00002,0,0,-1,108.281909,121.99)" d="M-15.39888 0C-15.39888 .98627-16.1984 1.78578-17.18468 1.78578-18.17094 1.78578-18.97046 .98627-18.97046 0-18.97046-.98627-18.17094-1.78578-17.18468-1.78578-16.1984-1.78578-15.39888-.98627-15.39888 0ZM-17.18468 0" fill="#ff0000"/>
<path transform="matrix(1.00002,0,0,-1,108.281909,121.99)" stroke-width=".3985" stroke-linecap="butt" stroke-miterlimit="10" stroke-linejoin="miter" fill="none" stroke="#ff0000" d="M-15.39888 0C-15.39888 .98627-16.1984 1.78578-17.18468 1.78578-18.17094 1.78578-18.97046 .98627-18.97046 0-18.97046-.98627-18.17094-1.78578-17.18468-1.78578-16.1984-1.78578-15.39888-.98627-15.39888 0ZM-17.18468 0"/>
<path transform="matrix(1.00002,0,0,-1,108.281909,121.99)" stroke-width=".79701" stroke-linecap="butt" stroke-miterlimit="10" stroke-linejoin="miter" fill="none" stroke="#0000ff" d="M-24.12311 3.5754-59.52933 19.84311"/>
<path transform="matrix(.9086482,.41748,.41748838,-.90863,84.1583,118.4146)" d="M1.0361 0C-.25902 .25902-1.55415 .77707-3.1083 1.68365-1.55415 .51805-1.55415-.51805-3.1083-1.68365-1.55415-.77707-.25902-.25902 1.0361 0Z" fill="#0000ff"/>
<path transform="matrix(.9086482,.41748,.41748838,-.90863,84.1583,118.4146)" stroke-width=".79701" stroke-linecap="butt" stroke-linejoin="round" fill="none" stroke="#0000ff" d="M1.0361 0C-.25902 .25902-1.55415 .77707-3.1083 1.68365-1.55415 .51805-1.55415-.51805-3.1083-1.68365-1.55415-.77707-.25902-.25902 1.0361 0Z"/>
<path transform="matrix(1.00002,0,0,-1,108.281909,121.99)" d="M-104.2622 9.88026H-59.92783V29.805932H-104.2622Z" fill="#ffffff"/>
<use data-text="(" xlink:href="#font_4_1" transform="matrix(9.962799,0,0,-9.9626,5.0138399,93.58)" fill="#ff0000"/>
<use data-text="&#x2212;" xlink:href="#font_3_1" transform="matrix(9.962799,0,0,-9.9626,10.963959,104.638)" fill="#ff0000"/>
<use data-text="&#x221a;" xlink:href="#font_3_2" transform="matrix(9.962799,0,0,-9.9626,18.713105,96.397)" fill="#ff0000"/>
<path transform="matrix(1.00002,0,0,-1,-190.27007,-4.3519995)" stroke-width=".3985" stroke-linecap="butt" stroke-miterlimit="10" stroke-linejoin="miter" fill="none" stroke="#ff0000" d="M217.281-100.55H222.263"/>
<use data-text="3" xlink:href="#font_2_5" transform="matrix(9.962799,0,0,-9.9626,27.01529,104.638)" fill="#ff0000"/>
<use data-text="," xlink:href="#font_1_1" transform="matrix(9.962799,0,0,-9.9626,31.99739,104.638)" fill="#ff0000"/>
<use data-text="0" xlink:href="#font_2_3" transform="matrix(9.962799,0,0,-9.9626,36.424486,104.638)" fill="#ff0000"/>
<use data-text=")" xlink:href="#font_4_2" transform="matrix(9.962799,0,0,-9.9626,41.40657,93.58)" fill="#ff0000"/>
<path transform="matrix(1.00002,0,0,-1,108.281909,121.99)" d="M18.97046 0C18.97046 .98627 18.17094 1.78578 17.18468 1.78578 16.1984 1.78578 15.39888 .98627 15.39888 0 15.39888-.98627 16.1984-1.78578 17.18468-1.78578 18.17094-1.78578 18.97046-.98627 18.97046 0ZM17.18468 0" fill="#ff0000"/>
<path transform="matrix(1.00002,0,0,-1,108.281909,121.99)" stroke-width=".3985" stroke-linecap="butt" stroke-miterlimit="10" stroke-linejoin="miter" fill="none" stroke="#ff0000" d="M18.97046 0C18.97046 .98627 18.17094 1.78578 17.18468 1.78578 16.1984 1.78578 15.39888 .98627 15.39888 0 15.39888-.98627 16.1984-1.78578 17.18468-1.78578 18.17094-1.78578 18.97046-.98627 18.97046 0ZM17.18468 0"/>
<path transform="matrix(1.00002,0,0,-1,108.281909,121.99)" stroke-width=".79701" stroke-linecap="butt" stroke-miterlimit="10" stroke-linejoin="miter" fill="none" stroke="#0000ff" d="M24.12311 3.5754 59.52933 19.84311"/>
<path transform="matrix(-.9086482,.41748,.41748838,.90863,132.4055,118.4146)" d="M1.0361 0C-.25902 .25902-1.55415 .77707-3.1083 1.68365-1.55415 .51805-1.55415-.51805-3.1083-1.68365-1.55415-.77707-.25902-.25902 1.0361 0Z" fill="#0000ff"/>
<path transform="matrix(-.9086482,.41748,.41748838,.90863,132.4055,118.4146)" stroke-width=".79701" stroke-linecap="butt" stroke-linejoin="round" fill="none" stroke="#0000ff" d="M1.0361 0C-.25902 .25902-1.55415 .77707-3.1083 1.68365-1.55415 .51805-1.55415-.51805-3.1083-1.68365-1.55415-.77707-.25902-.25902 1.0361 0Z"/>
<path transform="matrix(1.00002,0,0,-1,108.281909,121.99)" d="M59.92783 9.88026H104.2622V29.805932H59.92783Z" fill="#ffffff"/>
<use data-text="(" xlink:href="#font_4_1" transform="matrix(9.962799,0,0,-9.9626,169.20713,93.58)" fill="#ff0000"/>
<use data-text="&#x2212;" xlink:href="#font_3_1" transform="matrix(9.962799,0,0,-9.9626,175.15724,104.638)" fill="#ff0000"/>
<use data-text="&#x221a;" xlink:href="#font_3_2" transform="matrix(9.962799,0,0,-9.9626,182.90639,96.397)" fill="#ff0000"/>
<path transform="matrix(1.00002,0,0,-1,-26.076779,-4.3519995)" stroke-width=".3985" stroke-linecap="butt" stroke-miterlimit="10" stroke-linejoin="miter" fill="none" stroke="#ff0000" d="M217.281-100.55H222.263"/>
<use data-text="3" xlink:href="#font_2_5" transform="matrix(9.962799,0,0,-9.9626,191.20858,104.638)" fill="#ff0000"/>
<use data-text="," xlink:href="#font_1_1" transform="matrix(9.962799,0,0,-9.9626,196.19068,104.638)" fill="#ff0000"/>
<use data-text="0" xlink:href="#font_2_3" transform="matrix(9.962799,0,0,-9.9626,200.61777,104.638)" fill="#ff0000"/>
<use data-text=")" xlink:href="#font_4_2" transform="matrix(9.962799,0,0,-9.9626,205.59986,93.58)" fill="#ff0000"/>
</svg>
