<svg xmlns="http://www.w3.org/2000/svg" xmlns:xlink="http://www.w3.org/1999/xlink" version="1.1" width="173" height="174" viewBox="0 0 173 174">
<defs>
<path id="font_1_3" d="M.33399964 .30233766C.33999635 .32835389 .36299134 .42037965 .43299867 .42037965 .43798829 .42037965 .46199037 .42037965 .48298646 .40734864 .45498658 .402359 .43499757 .37734986 .43499757 .35334779 .43499757 .33735658 .44599916 .31835938 .47299195 .31835938 .49499513 .31835938 .5269928 .3363495 .5269928 .37635804 .5269928 .42837525 .46798707 .4423828 .43399049 .4423828 .37599183 .4423828 .34098817 .38935853 .32899476 .36634828 .3039856 .43237306 .25 .4423828 .22099304 .4423828 .116989139 .4423828 .05999756 .3133545 .05999756 .28834535 .05999756 .27833558 .069992069 .27833558 .07199097 .27833558 .07998657 .27833558 .08299255 .28033448 .084991458 .28933717 .11898804 .39535523 .18499756 .42037965 .21899414 .42037965 .23799134 .42037965 .272995 .4113617 .272995 .35334779 .272995 .32235719 .2559967 .25532533 .21899414 .11528015 .20298767 .053268434 .16799927 .011245728 .12399292 .011245728 .117996219 .011245728 .09498596 .011245728 .07398987 .024276734 .09899902 .029266358 .12098694 .05027771 .12098694 .07827759 .12098694 .105270389 .09899902 .11328125 .083999637 .11328125 .053985597 .11328125 .0289917 .08728027 .0289917 .055267335 .0289917 .009246826 .07899475-.0107421879 .12298584-.0107421879 .18899536-.0107421879 .22499085 .059280397 .22799683 .0652771 .23999024 .028274537 .27598573-.0107421879 .33599855-.0107421879 .43899537-.0107421879 .49598695 .118270877 .49598695 .14328003 .49598695 .1532898 .4869995 .1532898 .48399354 .1532898 .47499085 .1532898 .47299195 .14929199 .47099305 .14228821 .43798829 .03527832 .36999513 .011245728 .33799745 .011245728 .29899598 .011245728 .2829895 .043273927 .2829895 .07727051 .2829895 .09927368 .2889862 .121276859 .2999878 .16529846L.33399964 .30233766Z"/>
<path id="font_1_4" d="M.48599244 .38136292C.48999024 .39537049 .48999024 .39736939 .48999024 .40437318 .48999024 .42237855 .47599793 .43138124 .46099855 .43138124 .45098878 .43138124 .43499757 .42536927 .42599488 .41036988 .42399598 .405365 .41600038 .37435914 .4119873 .35635377 .40499879 .33035279 .397995 .30334474 .3919983 .27633668L.34700013 .09628296C.34298707 .08126831 .2999878 .011245728 .23399353 .011245728 .18299866 .011245728 .17199707 .055267335 .17199707 .0922699 .17199707 .1382904 .18899536 .20030213 .22299195 .28833009 .23899842 .3293457 .24299622 .3403473 .24299622 .36035157 .24299622 .405365 .21099854 .4423828 .16099549 .4423828 .06599426 .4423828 .0289917 .29733277 .0289917 .28833009 .0289917 .27833558 .038986207 .27833558 .040985109 .27833558 .050994874 .27833558 .051986696 .28033448 .056991579 .29634095 .083999637 .3903656 .12399292 .42037965 .1579895 .42037965 .1659851 .42037965 .18299866 .42037965 .18299866 .3883667 .18299866 .36335755 .17298889 .3373413 .1659851 .31834413 .12599182 .21231079 .10798645 .1552887 .10798645 .10827637 .10798645 .019256592 .17098999-.0107421879 .22999573-.0107421879 .2689972-.0107421879 .30299378 .0062561037 .33099366 .03425598 .31799317-.017745972 .30599977-.06674194 .2659912-.11973572 .23999024-.15385437 .20199585-.18309021 .1559906-.18309021 .14199829-.18309021 .09700012-.18005371 .07998657-.14074707 .09599304-.14074707 .10899353-.14074707 .12298584-.1287384 .1329956-.11973572 .14299011-.10673523 .14299011-.08773804 .14299011-.056747438 .115997318-.052734376 .10598755-.052734376 .08299255-.052734376 .049987794-.068740848 .049987794-.11773682 .049987794-.16796875 .09399414-.20507813 .1559906-.20507813 .25898744-.20507813 .3619995-.11373901 .3899994-.00074768069L.48599244 .38136292Z"/>
<path id="font_2_1" d="M.6589966 .23046875C.6759949 .23046875 .69400027 .23046875 .69400027 .25045777 .69400027 .27046205 .6759949 .27046205 .6589966 .27046205H.117996219C.100997928 .27046205 .08299255 .27046205 .08299255 .25045777 .08299255 .23046875 .100997928 .23046875 .117996219 .23046875H.6589966Z"/>
<path id="font_3_4" d="M.2899933 .35191346C.37199403 .37893678 .42999269 .4490509 .42999269 .52809146 .42999269 .6100464 .34199525 .6660156 .24598694 .6660156 .14498902 .6660156 .068984989 .60606387 .068984989 .53009036 .068984989 .49710084 .09098816 .47808839 .11999512 .47808839 .15098572 .47808839 .17098999 .50009158 .17098999 .5290985 .17098999 .57910159 .12399292 .57910159 .10899353 .57910159 .13999939 .62802127 .20599365 .64100649 .24198914 .64100649 .2829895 .64100649 .33799745 .6190338 .33799745 .5290985 .33799745 .51708987 .33599855 .45906068 .30999757 .4149933 .27999879 .36691285 .24598694 .36390687 .22099304 .36291505 .21299744 .36190797 .18899536 .35990907 .18199158 .35990907 .17399597 .35890199 .16699219 .35791017 .16699219 .3479004 .16699219 .33691407 .17399597 .33691407 .19099427 .33691407H.23498535C.31698609 .33691407 .35398866 .2686615 .35398866 .17037964 .35398866 .034469606 .2849884 .0055389406 .24099732 .0055389406 .19799805 .0055389406 .12298584 .022491456 .08799744 .08137512 .12298584 .07637024 .1539917 .09837341 .1539917 .1363678 .1539917 .17237854 .1269989 .19238281 .09799194 .19238281 .07398987 .19238281 .041992189 .17837525 .041992189 .1343689 .041992189 .043441774 .1349945-.022460938 .24398804-.022460938 .3659973-.022460938 .45700074 .06838989 .45700074 .17037964 .45700074 .252594 .3939972 .33088685 .2899933 .35191346Z"/>
<path id="font_3_5" d="M.13198853 .327713V.35173036C.13198853 .6047821 .2559967 .64100649 .30699159 .64100649 .33099366 .64100649 .37298585 .634964 .394989 .6007538 .37998963 .6007538 .33999635 .6007538 .33999635 .5557556 .33999635 .524765 .3639984 .5097656 .38598634 .5097656 .4019928 .5097656 .43199159 .51875308 .43199159 .5577545 .43199159 .6178589 .3880005 .6660156 .30499269 .6660156 .1769867 .6660156 .041992189 .5367584 .041992189 .31570436 .041992189 .048553468 .1579895-.022460938 .25099183-.022460938 .3619995-.022460938 .45700074 .07156372 .45700074 .2036438 .45700074 .33070375 .36799623 .4267578 .25698854 .4267578 .18899536 .4267578 .1519928 .37573243 .13198853 .327713M.25099183 .0055389406C.18798828 .0055389406 .1579895 .06556702 .1519928 .080566409 .13398743 .127594 .13398743 .2076416 .13398743 .22564698 .13398743 .30369569 .1659851 .40374757 .2559967 .40374757 .27198792 .40374757 .31799317 .40374757 .34899903 .34172059 .36698915 .30470277 .36698915 .2536621 .36698915 .20463562 .36698915 .15661621 .36698915 .10658264 .34999085 .0705719 .31999208 .010528564 .27398683 .0055389406 .25099183 .0055389406Z"/>
<path id="font_3_6" d="M.68699648 .32714845C.70199587 .32714845 .72099307 .32714845 .72099307 .34713746 .72099307 .36714173 .70199587 .36714173 .6879883 .36714173H.08898926C.07499695 .36714173 .055999757 .36714173 .055999757 .34713746 .055999757 .32714845 .07499695 .32714845 .08999634 .32714845H.68699648M.6879883 .13284302C.70199587 .13284302 .72099307 .13284302 .72099307 .15284729 .72099307 .17285156 .70199587 .17285156 .68699648 .17285156H.08999634C.07499695 .17285156 .055999757 .17285156 .055999757 .15284729 .055999757 .13284302 .07499695 .13284302 .08898926 .13284302H.6879883Z"/>
<path id="font_1_2" d="M.47099305 .3773346C.47200013 .3833313 .47399903 .38833619 .47399903 .39535523 .47399903 .41236878 .46199037 .42237855 .44499208 .42237855 .43499757 .42237855 .4079895 .41537477 .4039917 .3793335 .38598634 .41636659 .35099793 .4423828 .31098939 .4423828 .19699097 .4423828 .07299805 .30226136 .07299805 .15812683 .07299805 .059020997 .13398743 0 .20599365 0 .2649994 0 .31199647 .04701233 .32199098 .058029176L.32299806 .057022096C.3019867-.031982423 .2899933-.07295227 .2899933-.07495117 .28599549-.08395386 .2519989-.18309021 .1459961-.18309021 .1269989-.18309021 .09399414-.18206787 .06599426-.17297364 .09599304-.16394043 .10699463-.13793946 .10699463-.12094116 .10699463-.10494995 .09599304-.0859375 .068984989-.0859375 .04699707-.0859375 .01499939-.10394287 .01499939-.14395142 .01499939-.18508911 .051986696-.20507813 .147995-.20507813 .272995-.20507813 .34498597-.12693787 .3600006-.06695557L.47099305 .3773346M.34098817 .12809754C.33499146 .10206604 .31199647 .077041629 .2899933 .058029176 .2689972 .040008546 .23799134 .021987915 .20899964 .021987915 .15899658 .021987915 .14399719 .074035648 .14399719 .11407471 .14399719 .16212464 .17298889 .28024293 .19999695 .33128358 .22698975 .38034059 .269989 .42037965 .31199647 .42037965 .37799073 .42037965 .3919983 .33929444 .3919983 .33428956 .3919983 .32928468 .3899994 .3232727 .3889923 .3192749L.34098817 .12809754Z"/>
<path id="font_3_1" d="M.33099366-.2400055C.33099366-.23701477 .33099366-.23500061 .31399537-.21800232 .18899536-.0920105 .15699768 .09700012 .15699768 .25 .15699768 .42399598 .19499207 .59799197 .31799317 .72299197 .33099366 .73498538 .33099366 .7369995 .33099366 .73999026 .33099366 .746994 .32699586 .75 .32099916 .75 .31098939 .75 .22099304 .6819916 .1619873 .5549927 .11099243 .44499208 .09899902 .33399964 .09899902 .25 .09899902 .17199707 .10998535 .050994874 .16499329-.06201172 .22499085-.18501282 .31098939-.25 .32099916-.25 .32699586-.25 .33099366-.24700928 .33099366-.2400055Z"/>
<path id="font_3_2" d="M.2889862 .25C.2889862 .32798768 .27799989 .44898988 .22299195 .56199648 .16299439 .68499758 .07699585 .75 .066986087 .75 .06098938 .75 .056991579 .74598696 .056991579 .73999026 .056991579 .7369995 .056991579 .73498538 .07598877 .71699526 .17399597 .6179962 .23098755 .45899964 .23098755 .25 .23098755 .07899475 .19400025-.09700012 .069992069-.2230072 .056991579-.23500061 .056991579-.23701477 .056991579-.2400055 .056991579-.2460022 .06098938-.25 .066986087-.25 .07699585-.25 .16699219-.18200684 .22599793-.055007936 .2769928 .054992677 .2889862 .16600037 .2889862 .25Z"/>
<path id="font_3_8" d="M.1769867 .69433596 .032989503 .68333438V.6523285C.102996829 .6523285 .11099243 .6453247 .11099243 .5962982V.07601929C.11099243 .0309906 .099990848 .0309906 .032989503 .0309906V0C.06599426 .0009918213 .11898804 .0029907227 .14399719 .0029907227 .16899109 .0029907227 .21798706 .0009918213 .25498963 0V.0309906C.18798828 .0309906 .1769867 .0309906 .1769867 .07601929V.69433596Z"/>
<path id="font_3_9" d="M.47099305 .21424866C.47099305 .34223939 .37098695 .4482422 .25 .4482422 .125 .4482422 .027999878 .3392334 .027999878 .21424866 .027999878 .085250858 .13198853-.0107421879 .24899292-.0107421879 .36999513-.0107421879 .47099305 .087249759 .47099305 .21424866M.25 .014251709C.20698548 .014251709 .16299439 .035247804 .13598633 .08125305 .11099243 .12524414 .11099243 .18624878 .11099243 .22224427 .11099243 .26124574 .11099243 .31523133 .1349945 .35923768 .1619873 .40522767 .20899964 .426239 .24899292 .426239 .29299928 .426239 .33599855 .40423585 .3619995 .36123658 .3880005 .3182373 .3880005 .26023866 .3880005 .22224427 .3880005 .18624878 .3880005 .13224793 .3659973 .08824158 .34399415 .04324341 .2999878 .014251709 .25 .014251709Z"/>
<path id="font_3_7" d="M.22200012 .17240906C.1349945 .17240906 .1349945 .2723999 .1349945 .2953949 .1349945 .3223877 .13598633 .35438539 .15098572 .37937928 .15899658 .39137269 .18199158 .41937257 .22200012 .41937257 .30899049 .41937257 .30899049 .3193817 .30899049 .29638673 .30899049 .26939393 .30799867 .23739624 .29299928 .21240235 .2849884 .20040894 .2619934 .17240906 .22200012 .17240906M.10598755 .13330078C.10598755 .1373291 .10598755 .16040039 .12298584 .18040467 .1619873 .15240479 .20298767 .14941406 .22200012 .14941406 .31498719 .14941406 .38398744 .21839905 .38398744 .2953949 .38398744 .3323822 .36799623 .36938478 .34298707 .39237977 .3789978 .42637635 .4149933 .43138124 .43299867 .43138124 .43499757 .43138124 .43998719 .43138124 .44299317 .43037416 .43199159 .42637635 .4269867 .41537477 .4269867 .40338136 .4269867 .38638307 .43998719 .3743744 .45599366 .3743744 .46598817 .3743744 .4850006 .38137818 .4850006 .40437318 .4850006 .42137147 .47299195 .45336915 .43399049 .45336915 .4139862 .45336915 .36999513 .44737245 .32798768 .40637208 .28599549 .43937684 .24398804 .4423828 .22200012 .4423828 .1289978 .4423828 .05999756 .37338258 .05999756 .29638673 .05999756 .25239564 .08198547 .21440125 .10699463 .19340515 .09399414 .17840576 .07598877 .14538574 .07598877 .11013794 .07598877 .07891846 .08898926 .04083252 .11999512 .020828248 .05999756 .003829956 .027999878-.039138795 .027999878-.07911682 .027999878-.15107727 .1269989-.20605469 .24899292-.20605469 .36698915-.20605469 .47099305-.15507508 .47099305-.07711792 .47099305-.042144777 .45700074 .008834839 .4059906 .036834718 .35299684 .064834598 .29499818 .064834598 .23399353 .064834598 .20899964 .064834598 .1659851 .064834598 .15899658 .065841678 .1269989 .069869998 .10598755 .10107422 .10598755 .13330078M.25-.18305969C.14898682-.18305969 .07998657-.13209534 .07998657-.07911682 .07998657-.03314209 .117996219 .003829956 .1619873 .0068359377H.22099304C.30699159 .0068359377 .4189911 .0068359377 .4189911-.07911682 .4189911-.13308716 .34799195-.18305969 .25-.18305969Z"/>
<path id="font_4_1" d="M.5049896 .18203736H.47099305C.46798707 .16001892 .45799256 .100997928 .44499208 .09098816 .43699647 .084991458 .3600006 .084991458 .34599305 .084991458H.1619873C.2669983 .17803955 .3019867 .20603943 .3619995 .25306703 .43598939 .312088 .5049896 .374115 .5049896 .46914674 .5049896 .5900879 .39898683 .6640625 .2709961 .6640625 .14698792 .6640625 .06298828 .57710269 .06298828 .4851532 .06298828 .43414308 .10598755 .42915345 .115997318 .42915345 .13999939 .42915345 .16899109 .44615174 .16899109 .48214723 .16899109 .5001526 .1619873 .53515627 .10998535 .53515627 .14099121 .6060791 .20899964 .62805178 .2559967 .62805178 .35598756 .62805178 .4079895 .5501404 .4079895 .46914674 .4079895 .38212586 .34599305 .3130951 .31399537 .27708436L.07299805 .038986207C.06298828 .02999878 .06298828 .027999878 .06298828 0H.47499085L.5049896 .18203736Z"/>
<path id="font_1_1" d="M.36698915 .3996582H.45298768C.47299195 .3996582 .48298646 .3996582 .48298646 .41966249 .48298646 .43066407 .47299195 .43066407 .45599366 .43066407H.37298585L.3939972 .5449524C.397995 .5660095 .4119873 .6370239 .41799928 .6490326 .4269867 .66804507 .44400025 .68307498 .46499635 .68307498 .46899415 .68307498 .49499513 .68307498 .5139923 .66503909 .46998597 .661026 .45999146 .6260376 .45999146 .6110382 .45999146 .58802798 .47799684 .57603457 .49699403 .57603457 .522995 .57603457 .5519867 .5980377 .5519867 .6360321 .5519867 .6820679 .5059967 .7050781 .46499635 .7050781 .43099977 .7050781 .36799623 .68707278 .33799745 .58802798 .33198548 .56700137 .32899476 .5569763 .30499269 .43066407H.23599243C.21699524 .43066407 .20599365 .43066407 .20599365 .4116516 .20599365 .3996582 .21499634 .3996582 .23399353 .3996582H.2999878L.22499085 .0048828127C.20698548-.09207153 .18998719-.18309021 .13798523-.18309021 .13398743-.18309021 .10899353-.18309021 .08999634-.16506958 .13598633-.1620636 .14498902-.12606812 .14498902-.111068729 .14498902-.08807373 .1269989-.07606506 .10798645-.07606506 .08198547-.07606506 .052993776-.09806824 .052993776-.13606262 .052993776-.18109131 .09700012-.20507813 .13798523-.20507813 .19299317-.20507813 .23298645-.14607239 .25099183-.108062747 .2829895-.04508972 .30599977 .07583618 .30699159 .082839969L.36698915 .3996582Z"/>
<path id="font_3_3" d="M.1269989 .07699585 .23298645 .18003845C.3889923 .31811524 .44898988 .3721466 .44898988 .47216798 .44898988 .5860901 .35899354 .6660156 .23699951 .6660156 .12399292 .6660156 .049987794 .57411196 .049987794 .48516847 .049987794 .4291687 .099990848 .4291687 .102996829 .4291687 .11999512 .4291687 .15499878 .44117738 .15499878 .48217774 .15499878 .5081787 .13699341 .5341797 .101989749 .5341797 .09399414 .5341797 .09199524 .5341797 .08898926 .5331726 .11199951 .59806826 .1659851 .63500979 .22399903 .63500979 .31498719 .63500979 .35798646 .5541382 .35798646 .47216798 .35798646 .39215089 .30799867 .31311036 .25299073 .25108338L.06098938 .036987306C.049987794 .025985718 .049987794 .023986817 .049987794 0H.42099L.44898988 .17404175H.42399598C.4189911 .14402771 .4119873 .1000061 .4019928 .084991458 .394989 .07699585 .32899476 .07699585 .30699159 .07699585H.1269989Z"/>
<path id="font_5_1" d="M.24899292 .10601807C.23899842 .072021488 .20599365 .018234253 .15499878 .018234253 .1519928 .018234253 .12199402 .018234253 .100997928 .03215027 .14199829 .04508972 .14498902 .08100891 .14498902 .087020877 .14498902 .10900879 .12799073 .12402344 .10499573 .12402344 .07699585 .12402344 .04798889 .10002136 .04798889 .0630188 .04798889 .01322937 .10398865-.009765625 .15299988-.009765625 .19898987-.009765625 .23999024 .019226075 .2649994 .061019899 .2889862 .008224487 .34399415-.009765625 .38398744-.009765625 .49899293-.009765625 .55999758 .11502075 .55999758 .14305115 .55999758 .15608216 .5469971 .15608216 .5439911 .15608216 .5299988 .15608216 .5289917 .15107727 .5249939 .13905335 .5039978 .07002258 .44400025 .018234253 .3880005 .018234253 .34799195 .018234253 .32699586 .04508972 .32699586 .08302307 .32699586 .10900879 .35099793 .20018006 .3789978 .31140138 .39898683 .38841249 .44400025 .4133911 .47698976 .4133911 .47898866 .4133911 .5099945 .4133911 .5309906 .39941407 .49899293 .39041139 .4869995 .3624115 .4869995 .34440614 .4869995 .32240296 .5039978 .30740357 .5269928 .30740357 .5499878 .30740357 .58299258 .32640077 .58299258 .3684082 .58299258 .4243927 .5189972 .44140626 .47898866 .44140626 .42900086 .44140626 .3889923 .4084015 .36698915 .3704071 .34899903 .4113922 .30299378 .44140626 .24699402 .44140626 .1349945 .44140626 .070999149 .31840516 .070999149 .2883606 .070999149 .27534486 .084991458 .27534486 .08799744 .27534486 .100997928 .27534486 .101989749 .27934266 .10699463 .29237367 .13198853 .3704071 .19499207 .4133911 .24398804 .4133911 .2769928 .4133911 .3039856 .395401 .3039856 .3474121 .3039856 .32740785 .2919922 .27734376 .2829895 .24327088L.24899292 .10601807Z"/>
</defs>
<path transform="matrix(1.00006,0,0,-1,52.885339,121.566)" stroke-width=".3985" stroke-linecap="butt" stroke-miterlimit="10" stroke-linejoin="miter" fill="none" stroke="#00aeef" d="M-51.0239-51.0239H102.0478M-51.0239-38.26791H102.0478M-51.0239-25.51193H102.0478M-51.0239-12.75595H102.0478M-51.0239 0H102.0478M-51.0239 12.75595H102.0478M-51.0239 25.51193H102.0478M-51.0239 38.26791H102.0478M-51.0239 51.0239H102.0478M-51.0239 63.77988H102.0478M-51.0239 76.53586H102.0478M-51.0239 89.29184H102.0478M-51.0239 102.04333H102.0478M-51.0239-51.0239V102.0478M-38.26791-51.0239V102.0478M-25.51193-51.0239V102.0478M-12.75595-51.0239V102.0478M0-51.0239V102.0478M12.75595-51.0239V102.0478M25.51193-51.0239V102.0478M38.26791-51.0239V102.0478M51.0239-51.0239V102.0478M63.77988-51.0239V102.0478M76.53586-51.0239V102.0478M89.29184-51.0239V102.0478M102.04333-51.0239V102.0478M102.0478 102.0478"/>
<path transform="matrix(1.00006,0,0,-1,52.885339,121.566)" stroke-width=".79701" stroke-linecap="butt" stroke-miterlimit="10" stroke-linejoin="miter" fill="none" stroke="#000000" d="M-51.0239 0H108.26686"/>
<path transform="matrix(1.00006,0,0,-1,161.15869,121.566)" d="M1.0361 0C-.25902 .25902-1.55415 .77707-3.1083 1.68365-1.55415 .51805-1.55415-.51805-3.1083-1.68365-1.55415-.77707-.25902-.25902 1.0361 0Z"/>
<path transform="matrix(1.00006,0,0,-1,161.15869,121.566)" stroke-width=".79701" stroke-linecap="butt" stroke-linejoin="round" fill="none" stroke="#000000" d="M1.0361 0C-.25902 .25902-1.55415 .77707-3.1083 1.68365-1.55415 .51805-1.55415-.51805-3.1083-1.68365-1.55415-.77707-.25902-.25902 1.0361 0Z"/>
<use data-text="x" xlink:href="#font_1_3" transform="matrix(9.963197,0,0,-9.9626,166.31314,123.711)"/>
<path transform="matrix(1.00006,0,0,-1,52.885339,121.566)" stroke-width=".79701" stroke-linecap="butt" stroke-miterlimit="10" stroke-linejoin="miter" fill="none" stroke="#000000" d="M0-51.0239V108.26686"/>
<path transform="matrix(0,-1,-1.00006,-0,52.885339,13.299141)" d="M1.0361 0C-.25902 .25902-1.55415 .77707-3.1083 1.68365-1.55415 .51805-1.55415-.51805-3.1083-1.68365-1.55415-.77707-.25902-.25902 1.0361 0Z"/>
<path transform="matrix(0,-1,-1.00006,-0,52.885339,13.299141)" stroke-width=".79701" stroke-linecap="butt" stroke-linejoin="round" fill="none" stroke="#000000" d="M1.0361 0C-.25902 .25902-1.55415 .77707-3.1083 1.68365-1.55415 .51805-1.55415-.51805-3.1083-1.68365-1.55415-.77707-.25902-.25902 1.0361 0Z"/>
<use data-text="y" xlink:href="#font_1_4" transform="matrix(9.963197,0,0,-9.9626,50.264184,6.208)"/>
<path transform="matrix(1.00006,0,0,-1,52.885339,121.566)" stroke-width=".3985" stroke-linecap="butt" stroke-miterlimit="10" stroke-linejoin="miter" fill="none" stroke="#000000" d="M-38.26791 1.9133V-1.9135"/>
<path transform="matrix(1.00006,0,0,-1,52.885339,121.566)" d="M-45.6293-13.34853H-30.906519V-4.1053H-45.6293Z" fill="#ffffff"/>
<use data-text="&#x2212;" xlink:href="#font_2_1" transform="matrix(9.963197,0,0,-9.9626,8.249664,133.088)"/>
<use data-text="3" xlink:href="#font_3_4" transform="matrix(9.963197,0,0,-9.9626,15.999115,133.088)"/>
<path transform="matrix(1.00006,0,0,-1,52.885339,121.566)" stroke-width=".3985" stroke-linecap="butt" stroke-miterlimit="10" stroke-linejoin="miter" fill="none" stroke="#000000" d="M1.9133-38.26791H-1.9135"/>
<path transform="matrix(1.00006,0,0,-1,52.885339,121.566)" d="M-18.82808-42.88953H-4.105299V-33.6463H-18.82808Z" fill="#ffffff"/>
<use data-text="&#x2212;" xlink:href="#font_2_1" transform="matrix(9.963197,0,0,-9.9626,35.05227,162.629)"/>
<use data-text="3" xlink:href="#font_3_4" transform="matrix(9.963197,0,0,-9.9626,42.80172,162.629)"/>
<path transform="matrix(1.00006,0,0,-1,52.885339,121.566)" stroke-width=".3985" stroke-linecap="butt" stroke-miterlimit="10" stroke-linejoin="miter" fill="none" stroke="#000000" d="M38.26791 1.9133V-1.9135"/>
<path transform="matrix(1.00006,0,0,-1,52.885339,121.566)" d="M34.78094-12.5183H41.754884V-4.10532H34.78094Z" fill="#ffffff"/>
<use data-text="3" xlink:href="#font_3_4" transform="matrix(9.963197,0,0,-9.9626,88.66448,133.088)"/>
<path transform="matrix(1.00006,0,0,-1,52.885339,121.566)" stroke-width=".3985" stroke-linecap="butt" stroke-miterlimit="10" stroke-linejoin="miter" fill="none" stroke="#000000" d="M1.9133 38.26791H-1.9135"/>
<path transform="matrix(1.00006,0,0,-1,52.885339,121.566)" d="M-11.07924 34.06142H-4.1053V42.4744H-11.07924Z" fill="#ffffff"/>
<use data-text="3" xlink:href="#font_3_4" transform="matrix(9.963197,0,0,-9.9626,42.801736,86.508)"/>
<path transform="matrix(1.00006,0,0,-1,52.885339,121.566)" stroke-width=".3985" stroke-linecap="butt" stroke-miterlimit="10" stroke-linejoin="miter" fill="none" stroke="#000000" d="M76.53586 1.9133V-1.9135"/>
<path transform="matrix(1.00006,0,0,-1,52.885339,121.566)" d="M73.04889-12.5183H80.02283V-4.10532H73.04889Z" fill="#ffffff"/>
<use data-text="6" xlink:href="#font_3_5" transform="matrix(9.963197,0,0,-9.9626,126.93478,133.088)"/>
<path transform="matrix(1.00006,0,0,-1,52.885339,121.566)" stroke-width=".3985" stroke-linecap="butt" stroke-miterlimit="10" stroke-linejoin="miter" fill="none" stroke="#000000" d="M1.9133 76.53586H-1.9135"/>
<path transform="matrix(1.00006,0,0,-1,52.885339,121.566)" d="M-11.07924 72.32936H-4.1053V80.74234H-11.07924Z" fill="#ffffff"/>
<use data-text="6" xlink:href="#font_3_5" transform="matrix(9.963197,0,0,-9.9626,42.801736,48.240007)"/>
<path transform="matrix(1.00006,0,0,-1,52.885339,121.566)" stroke-width=".79701" stroke-linecap="butt" stroke-dasharray="2.98883,2.98883" stroke-miterlimit="10" stroke-linejoin="miter" fill="none" stroke="#515151" d="M-50.00949-50.00949 101.03339 101.03339"/>
<path transform="matrix(-.70714238,.7071,.70714238,.7071,2.87286,171.57549)" d="M1.0361 0C-.25902 .25902-1.55415 .77707-3.1083 1.68365-1.55415 .51805-1.55415-.51805-3.1083-1.68365-1.55415-.77707-.25902-.25902 1.0361 0Z" fill="#515151"/>
<path transform="matrix(-.70714238,.7071,.70714238,.7071,2.87286,171.57549)" stroke-width=".79701" stroke-linecap="butt" stroke-linejoin="round" fill="none" stroke="#515151" d="M1.0361 0C-.25902 .25902-1.55415 .77707-3.1083 1.68365-1.55415 .51805-1.55415-.51805-3.1083-1.68365-1.55415-.77707-.25902-.25902 1.0361 0Z"/>
<path transform="matrix(.70714238,-.7071,-.70714238,-.7071,153.92478,20.53263)" d="M1.0361 0C-.25902 .25902-1.55415 .77707-3.1083 1.68365-1.55415 .51805-1.55415-.51805-3.1083-1.68365-1.55415-.77707-.25902-.25902 1.0361 0Z" fill="#515151"/>
<path transform="matrix(.70714238,-.7071,-.70714238,-.7071,153.92478,20.53263)" stroke-width=".79701" stroke-linecap="butt" stroke-linejoin="round" fill="none" stroke="#515151" d="M1.0361 0C-.25902 .25902-1.55415 .77707-3.1083 1.68365-1.55415 .51805-1.55415-.51805-3.1083-1.68365-1.55415-.77707-.25902-.25902 1.0361 0Z"/>
<path transform="matrix(1.00006,0,0,-1,52.885339,121.566)" d="M87.94547 74.42941H116.150157V84.64121H87.94547Z" fill="#ffffff"/>
<use data-text="y" xlink:href="#font_1_4" transform="matrix(9.963197,0,0,-9.9626,142.82874,43.207)" fill="#515151"/>
<use data-text="=" xlink:href="#font_3_6" transform="matrix(9.963197,0,0,-9.9626,150.83821,43.207)" fill="#515151"/>
<use data-text="x" xlink:href="#font_1_3" transform="matrix(9.963197,0,0,-9.9626,161.35486,43.207)" fill="#515151"/>
<path transform="matrix(1.00006,0,0,-1,52.885339,121.566)" stroke-width=".79701" stroke-linecap="butt" stroke-miterlimit="10" stroke-linejoin="miter" fill="none" stroke="#ff0000" d="M.89894-49.59976C1.94026-34.95566 1.94026-34.95566 2.37927-30.86163 2.81827-26.76761 3.52231-23.67722 3.9613-21.52374 4.40031-19.37029 5.10434-16.84024 5.54335-15.34097 5.98235-13.8417 6.68639-11.87149 7.12538-10.71808 7.5644-9.56465 8.26842-7.96626 8.70743-7.02788 9.14642-6.08948 9.85046-4.74612 10.28946-3.9547 10.72847-3.16325 11.43251-2.00832 11.8715-1.32373 12.31052-.63916 13.01454 .37573 13.45355 .97922 13.89255 1.58269 14.59659 2.48624 15.03558 3.02567 15.47461 3.56511 16.17862 4.3795 16.61765 4.86716 17.05664 5.35484 17.76068 6.09544 18.19968 6.5405 18.63869 6.98557 19.34271 7.6656 19.78172 8.07484 20.22072 8.4841 20.92476 9.1113 21.36375 9.49008 21.80276 9.86887 22.50679 10.45232 22.9458 10.80487 23.3848 11.15744 24.08882 11.70105 24.52783 12.03111 24.96684 12.36118 25.67087 12.87366 26.10988 13.18379 26.54887 13.49393 27.25291 13.97427 27.69191 14.26637 28.13092 14.55847 28.83495 15.01268 29.27396 15.28902 29.71295 15.56537 30.41699 15.99594 30.85599 16.25813 31.295 16.52032 31.99904 16.9296 32.43803 17.17877 32.87704 17.42795 33.58107 17.81651 34.02008 18.05408 34.45908 18.29166 35.16312 18.66385 35.60211 18.89104 36.04112 19.11823 36.74515 19.4742 37.18416 19.69159 37.62315 19.909 38.3272 20.2496 38.76619 20.4579 39.20522 20.6662 39.90923 20.99261 40.34824 21.19286 40.78723 21.3931 41.49127 21.70827 41.93027 21.90117 42.36928 22.09406 43.0733 22.3973 43.51231 22.58318 43.95131 22.76906 44.65535 23.06187 45.09435 23.24088 45.53336 23.41986 46.23738 23.70029 46.67639 23.87326 47.1154 24.04622 47.81943 24.31989 48.25844 24.48755 48.69745 24.6552 49.40147 24.9191 49.84048 25.08159 50.27948 25.24408 50.98352 25.50137 51.42253 25.65869 51.86153 25.81602 52.56557 26.06311 53.00456 26.21556 53.44357 26.36801 54.1476 26.60933 54.58661 26.75745 55.0256 26.90556 55.72963 27.13931 56.16864 27.28317 56.60765 27.42702 57.31168 27.65439 57.75069 27.79428 58.18968 27.9342 58.89372 28.15533 59.33272 28.29161 59.77173 28.42787 60.47575 28.64372 60.91476 28.77646 61.35376 28.90918 62.0578 29.11891 62.4968 29.24826 62.9358 29.37762 63.63983 29.58269 64.07884 29.70877 64.51784 29.83488 65.22188 30.03398 65.66087 30.15704 66.09988 30.2801 66.80391 30.47551 67.24292 30.59576 67.68192 30.71602 68.38596 30.90639 68.82495 31.02377 69.26396 31.14117 69.968 31.32729 70.407 31.44186 70.846 31.55644 71.55003 31.73749 71.98904 31.84962 72.42804 31.96179 73.13208 32.14035 73.57108 32.2502 74.01009 32.36006 74.71411 32.53383 75.15312 32.64143 75.59212 32.74905 76.29616 32.92044 76.73515 33.02585 77.17416 33.13124 77.87819 33.29803 78.3172 33.40111 78.75621 33.5042 79.46024 33.66768 79.89925 33.76878 80.33826 33.86989 81.04227 34.03065 81.4813 34.12985 81.92029 34.22903 82.62433 34.3866 83.06332 34.4837 83.50233 34.58081 84.20636 34.73427 84.64537 34.82977 85.08437 34.9253 85.7884 35.07828 86.2274 35.17215 86.66641 35.26602 87.37042 35.41429 87.80945 35.50636 88.24844 35.5984 88.95248 35.74538 89.39148 35.83568 89.83049 35.926 90.53453 36.06868 90.97353 36.15723 91.41252 36.24577 92.11656 36.38658 92.55557 36.47392 92.99457 36.56125 93.69861 36.70074 94.1376 36.7867 94.57661 36.87265 95.28064 37.00941 95.71965 37.09346 96.15865 37.17749 96.86269 37.30936 97.30168 37.39243 97.74069 37.47548 98.44472 37.61037 98.88373 37.69217 99.32272 37.77396 100.02676 37.90137 100.46576 37.98198 100.90477 38.0626 102.0478 38.27318 100.637 38.01334"/>
<path transform="matrix(-.070904258,.99745,.9975098,.0709,53.784334,171.16576)" d="M1.0361 0C-.25902 .25902-1.55415 .77707-3.1083 1.68365-1.55415 .51805-1.55415-.51805-3.1083-1.68365-1.55415-.77707-.25902-.25902 1.0361 0Z" fill="#ff0000"/>
<path transform="matrix(-.070904258,.99745,.9975098,.0709,53.784334,171.16576)" stroke-width=".79701" stroke-linecap="butt" stroke-linejoin="round" fill="none" stroke="#ff0000" d="M1.0361 0C-.25902 .25902-1.55415 .77707-3.1083 1.68365-1.55415 .51805-1.55415-.51805-3.1083-1.68365-1.55415-.77707-.25902-.25902 1.0361 0Z"/>
<path transform="matrix(.98346897,-.18114,-.18115087,-.98341,153.52835,83.55266)" d="M1.0361 0C-.25902 .25902-1.55415 .77707-3.1083 1.68365-1.55415 .51805-1.55415-.51805-3.1083-1.68365-1.55415-.77707-.25902-.25902 1.0361 0Z" fill="#ff0000"/>
<path transform="matrix(.98346897,-.18114,-.18115087,-.98341,153.52835,83.55266)" stroke-width=".79701" stroke-linecap="butt" stroke-linejoin="round" fill="none" stroke="#ff0000" d="M1.0361 0C-.25902 .25902-1.55415 .77707-3.1083 1.68365-1.55415 .51805-1.55415-.51805-3.1083-1.68365-1.55415-.77707-.25902-.25902 1.0361 0Z"/>
<path transform="matrix(1.00006,0,0,-1,52.885339,121.566)" stroke-width=".79701" stroke-linecap="butt" stroke-miterlimit="10" stroke-linejoin="miter" fill="none" stroke="#0000ff" d="M-49.59076 .86055C-50.01587 .84183-50.01587 .84183-49.62871 .85991-49.24155 .87796-48.62068 .90797-48.23354 .92744-47.84636 .94691-47.2255 .97919-46.83833 1.00024-46.45119 1.0213-45.8303 1.05646-45.44315 1.07927-45.056 1.10208-44.43512 1.1401-44.04797 1.1647-43.6608 1.18932-43.03995 1.2302-42.65277 1.25658-42.26563 1.28296-41.64476 1.32637-41.2576 1.35487-40.87044 1.38339-40.24957 1.43132-39.86241 1.46211-39.47527 1.49294-38.85439 1.54369-38.46722 1.57697-38.08006 1.61023-37.4592 1.666-37.07204 1.70192-36.68489 1.73784-36.06401 1.79724-35.67686 1.83583-35.2897 1.87442-34.66884 1.9383-34.28168 1.98007-33.8945 2.02184-33.27364 2.09198-32.88649 2.13693-32.49933 2.1819-31.87846 2.25563-31.4913 2.30414-31.10416 2.35263-30.48328 2.43413-30.09613 2.48653-29.70895 2.53891-29.08807 2.62526-28.70093 2.68175-28.31377 2.73824-27.6929 2.83281-27.30574 2.8937-26.9186 2.9546-26.29773 3.05498-25.91057 3.12065-25.5234 3.18633-24.90254 3.29608-24.51537 3.36708-24.12822 3.43806-23.50734 3.55592-23.1202 3.63237-22.73303 3.70882-22.11217 3.8356-21.725 3.9181-21.33786 4.00061-20.71698 4.13794-20.32982 4.22699-19.94266 4.31606-19.3218 4.46391-18.93463 4.56003-18.54747 4.65613-17.9266 4.81616-17.53946 4.91972-17.1523 5.02328-16.53143 5.19475-16.14427 5.30647-15.75711 5.4182-15.13623 5.6044-14.74908 5.72495-14.36192 5.8455-13.74104 6.04524-13.3539 6.17535-12.96674 6.30547-12.34587 6.52235-11.95871 6.66273-11.57155 6.8031-10.9507 7.0359-10.56352 7.18709-10.17636 7.33826-9.5555 7.58911-9.16835 7.75233-8.78119 7.91556-8.16031 8.18736-7.77316 8.3635-7.386 8.53963-6.76514 8.83182-6.37796 9.02177-5.99081 9.21173-5.36993 9.5276-4.98279 9.7326-4.59563 9.9376-3.97475 10.2782-3.5876 10.49928-3.20044 10.72038-2.57957 11.08768-2.19241 11.32614-1.80525 11.56459-1.18437 11.96117-.79723 12.21797-.41008 12.47476 .21075 12.89996 .59792 13.17697 .98508 13.45396 1.60594 13.91513 1.9931 14.2144 2.38026 14.51369 3.00113 15.01112 3.38829 15.33397 3.77545 15.65683 4.39632 16.1931 4.78348 16.54132 5.17062 16.88957 5.7915 17.46815 6.17865 17.84386 6.56581 18.21957 7.18668 18.84395 7.57385 19.24918 7.96101 19.6544 8.58188 20.32732 8.96902 20.76445 9.35619 21.2016 9.97705 21.92818 10.36421 22.39984 10.75136 22.87149 11.37224 23.65509 11.75938 24.16385 12.14656 24.67262 12.76744 25.51778 13.15459 26.06665 13.54175 26.61555 14.16261 27.5278 14.54977 28.11993 14.93692 28.71207 15.55779 29.69572 15.94495 30.33435 16.33212 30.97299 16.95299 32.03387 17.34015 32.7228 17.7273 33.41171 18.34818 34.55635 18.73532 35.29964 19.12248 36.04292 19.74335 37.27812 20.13051 38.07988 20.51765 38.88167 21.13853 40.21344 21.5257 41.07834 21.91286 41.94322 22.53372 43.38046 22.92088 44.31346 23.30804 45.24646 23.92891 46.79633 24.31606 47.80278 24.70322 48.80925 25.32408 50.48154 25.71126 51.56734 26.0984 52.65314 26.71928 54.45729 27.10643 55.62851 27.49359 56.79974 28.11447 58.74522 28.50162 60.00871 28.88878 61.27219 29.50964 63.3718 29.8968 64.73477 30.28397 66.09776 30.90483 68.36197 31.29199 69.83223 31.67915 71.30249 32.30002 73.74513 32.68716 75.3314 33.07433 76.91768 33.6952 79.554 34.08235 81.26505 34.46953 82.97609 35.09038 85.81769 35.47755 87.66347 35.8647 89.50925 36.48558 92.57234 36.87273 94.56815 37.25989 96.56395 38.26791 102.0478 38.00862 100.6369"/>
<path transform="matrix(-.9990399,.04414,.044142646,.99898,3.291603,120.70545)" d="M1.0361 0C-.25902 .25902-1.55415 .77707-3.1083 1.68365-1.55415 .51805-1.55415-.51805-3.1083-1.68365-1.55415-.77707-.25902-.25902 1.0361 0Z" fill="#0000ff"/>
<path transform="matrix(-.9990399,.04414,.044142646,.99898,3.291603,120.70545)" stroke-width=".79701" stroke-linecap="butt" stroke-linejoin="round" fill="none" stroke="#0000ff" d="M1.0361 0C-.25902 .25902-1.55415 .77707-3.1083 1.68365-1.55415 .51805-1.55415-.51805-3.1083-1.68365-1.55415-.77707-.25902-.25902 1.0361 0Z"/>
<path transform="matrix(.18077083,-.98347,-.983529,-.18076,90.89624,20.929116)" d="M1.0361 0C-.25902 .25902-1.55415 .77707-3.1083 1.68365-1.55415 .51805-1.55415-.51805-3.1083-1.68365-1.55415-.77707-.25902-.25902 1.0361 0Z" fill="#0000ff"/>
<path transform="matrix(.18077083,-.98347,-.983529,-.18076,90.89624,20.929116)" stroke-width=".79701" stroke-linecap="butt" stroke-linejoin="round" fill="none" stroke="#0000ff" d="M1.0361 0C-.25902 .25902-1.55415 .77707-3.1083 1.68365-1.55415 .51805-1.55415-.51805-3.1083-1.68365-1.55415-.77707-.25902-.25902 1.0361 0Z"/>
<path transform="matrix(1.00006,0,0,-1,52.885339,121.566)" d="M8.01125-32.48587H68.52457V-18.53799H8.01125Z" fill="#ffffff"/>
<use data-text="g" xlink:href="#font_1_2" transform="matrix(9.963197,0,0,-9.9626,62.88994,149.569)" fill="#ff0000"/>
<use data-text="(" xlink:href="#font_3_1" transform="matrix(9.963197,0,0,-9.9626,67.99924,149.569)" fill="#ff0000"/>
<use data-text="x" xlink:href="#font_1_3" transform="matrix(9.963197,0,0,-9.9626,71.87346,149.569)" fill="#ff0000"/>
<use data-text=")" xlink:href="#font_3_2" transform="matrix(9.963197,0,0,-9.9626,77.567798,149.569)" fill="#ff0000"/>
<use data-text="=" xlink:href="#font_3_6" transform="matrix(9.963197,0,0,-9.9626,84.19333,149.569)" fill="#ff0000"/>
<use data-text="l" xlink:href="#font_3_8" transform="matrix(9.963197,0,0,-9.9626,94.70451,149.569)" fill="#ff0000"/>
<use data-text="o" xlink:href="#font_3_9" transform="matrix(9.963197,0,0,-9.9626,97.464328,149.569)" fill="#ff0000"/>
<use data-text="g" xlink:href="#font_3_7" transform="matrix(9.963197,0,0,-9.9626,102.44591,149.569)" fill="#ff0000"/>
<use data-text="2" xlink:href="#font_4_1" transform="matrix(6.9742186,0,0,-6.9738,107.5966,152.005)" fill="#ff0000"/>
<use data-text="x" xlink:href="#font_1_3" transform="matrix(9.963197,0,0,-9.9626,113.72598,149.569)" fill="#ff0000"/>
<path transform="matrix(1.00006,0,0,-1,52.885339,121.566)" d="M-52.66823 9.60886H-6.009327V23.55674H-52.66823Z" fill="#ffffff"/>
<use data-text="f" xlink:href="#font_1_1" transform="matrix(9.963197,0,0,-9.9626,2.2062989,107.474)" fill="#0000ff"/>
<use data-text="(" xlink:href="#font_3_1" transform="matrix(9.963197,0,0,-9.9626,8.156647,107.474)" fill="#0000ff"/>
<use data-text="x" xlink:href="#font_1_3" transform="matrix(9.963197,0,0,-9.9626,12.030869,107.474)" fill="#0000ff"/>
<use data-text=")" xlink:href="#font_3_2" transform="matrix(9.963197,0,0,-9.9626,17.72522,107.474)" fill="#0000ff"/>
<use data-text="=" xlink:href="#font_3_6" transform="matrix(9.963197,0,0,-9.9626,24.350754,107.474)" fill="#0000ff"/>
<use data-text="2" xlink:href="#font_3_3" transform="matrix(9.963197,0,0,-9.9626,34.861925,107.474)" fill="#0000ff"/>
<use data-text="x" xlink:href="#font_5_1" transform="matrix(6.9742186,0,0,-6.9738,39.865556,103.859)" fill="#0000ff"/>
</svg>
