<svg xmlns="http://www.w3.org/2000/svg" xmlns:xlink="http://www.w3.org/1999/xlink" version="1.1" width="191" height="134" viewBox="0 0 191 134">
<defs>
<path id="font_1_1" d="M.33399964 .30233766C.33999635 .32835389 .36299134 .42037965 .43299867 .42037965 .43798829 .42037965 .46199037 .42037965 .48298646 .40734864 .45498658 .402359 .43499757 .37734986 .43499757 .35334779 .43499757 .33735658 .44599916 .31835938 .47299195 .31835938 .49499513 .31835938 .5269928 .3363495 .5269928 .37635804 .5269928 .42837525 .46798707 .4423828 .43399049 .4423828 .37599183 .4423828 .34098817 .38935853 .32899476 .36634828 .3039856 .43237306 .25 .4423828 .22099304 .4423828 .116989139 .4423828 .05999756 .3133545 .05999756 .28834535 .05999756 .27833558 .069992069 .27833558 .07199097 .27833558 .07998657 .27833558 .08299255 .28033448 .084991458 .28933717 .11898804 .39535523 .18499756 .42037965 .21899414 .42037965 .23799134 .42037965 .272995 .4113617 .272995 .35334779 .272995 .32235719 .2559967 .25532533 .21899414 .11528015 .20298767 .053268434 .16799927 .011245728 .12399292 .011245728 .117996219 .011245728 .09498596 .011245728 .07398987 .024276734 .09899902 .029266358 .12098694 .05027771 .12098694 .07827759 .12098694 .105270389 .09899902 .11328125 .083999637 .11328125 .053985597 .11328125 .0289917 .08728027 .0289917 .055267335 .0289917 .009246826 .07899475-.0107421879 .12298584-.0107421879 .18899536-.0107421879 .22499085 .059280397 .22799683 .0652771 .23999024 .028274537 .27598573-.0107421879 .33599855-.0107421879 .43899537-.0107421879 .49598695 .118270877 .49598695 .14328003 .49598695 .1532898 .4869995 .1532898 .48399354 .1532898 .47499085 .1532898 .47299195 .14929199 .47099305 .14228821 .43798829 .03527832 .36999513 .011245728 .33799745 .011245728 .29899598 .011245728 .2829895 .043273927 .2829895 .07727051 .2829895 .09927368 .2889862 .121276859 .2999878 .16529846L.33399964 .30233766Z"/>
<path id="font_1_2" d="M.48599244 .38136292C.48999024 .39537049 .48999024 .39736939 .48999024 .40437318 .48999024 .42237855 .47599793 .43138124 .46099855 .43138124 .45098878 .43138124 .43499757 .42536927 .42599488 .41036988 .42399598 .405365 .41600038 .37435914 .4119873 .35635377 .40499879 .33035279 .397995 .30334474 .3919983 .27633668L.34700013 .09628296C.34298707 .08126831 .2999878 .011245728 .23399353 .011245728 .18299866 .011245728 .17199707 .055267335 .17199707 .0922699 .17199707 .1382904 .18899536 .20030213 .22299195 .28833009 .23899842 .3293457 .24299622 .3403473 .24299622 .36035157 .24299622 .405365 .21099854 .4423828 .16099549 .4423828 .06599426 .4423828 .0289917 .29733277 .0289917 .28833009 .0289917 .27833558 .038986207 .27833558 .040985109 .27833558 .050994874 .27833558 .051986696 .28033448 .056991579 .29634095 .083999637 .3903656 .12399292 .42037965 .1579895 .42037965 .1659851 .42037965 .18299866 .42037965 .18299866 .3883667 .18299866 .36335755 .17298889 .3373413 .1659851 .31834413 .12599182 .21231079 .10798645 .1552887 .10798645 .10827637 .10798645 .019256592 .17098999-.0107421879 .22999573-.0107421879 .2689972-.0107421879 .30299378 .0062561037 .33099366 .03425598 .31799317-.017745972 .30599977-.06674194 .2659912-.11973572 .23999024-.15385437 .20199585-.18309021 .1559906-.18309021 .14199829-.18309021 .09700012-.18005371 .07998657-.14074707 .09599304-.14074707 .10899353-.14074707 .12298584-.1287384 .1329956-.11973572 .14299011-.10673523 .14299011-.08773804 .14299011-.056747438 .115997318-.052734376 .10598755-.052734376 .08299255-.052734376 .049987794-.068740848 .049987794-.11773682 .049987794-.16796875 .09399414-.20507813 .1559906-.20507813 .25898744-.20507813 .3619995-.11373901 .3899994-.00074768069L.48599244 .38136292Z"/>
</defs>
<path transform="matrix(1.00006,0,0,-1.00006,86.8563,75.36574)" stroke-width=".3985" stroke-linecap="butt" stroke-miterlimit="10" stroke-linejoin="miter" fill="none" stroke="#cbcbcb" d="M-85.04042-56.69275H85.04042M-85.04042-45.35419H85.04042M-85.04042-34.01564H85.04042M-85.04042-22.6771H85.04042M-85.04042-11.33855H85.04042M-85.04042 0H85.04042M-85.04042 11.33855H85.04042M-85.04042 22.6771H85.04042M-85.04042 34.01564H85.04042M-85.04042 45.35419H85.04042M-85.04042 56.68877H85.04042M-85.04042-56.69275V56.69275M-70.867-56.69275V56.69275M-56.69362-56.69275V56.69275M-42.5202-56.69275V56.69275M-28.3468-56.69275V56.69275M-14.17339-56.69275V56.69275M0-56.69275V56.69275M14.17339-56.69275V56.69275M28.3468-56.69275V56.69275M42.5202-56.69275V56.69275M56.69362-56.69275V56.69275M70.867-56.69275V56.69275M85.03543-56.69275V56.69275M85.04042 56.69275"/>
<path transform="matrix(1.00006,0,0,-1.00006,86.8563,75.36574)" stroke-width=".79701" stroke-linecap="butt" stroke-miterlimit="10" stroke-linejoin="miter" fill="none" stroke="#000000" d="M-85.04042 0H92.10994"/>
<path transform="matrix(1.00006,0,0,-1.00006,178.97177,75.36574)" d="M1.0361 0C-.25902 .25902-1.55415 .77707-3.1083 1.68365-1.55415 .51805-1.55415-.51805-3.1083-1.68365-1.55415-.77707-.25902-.25902 1.0361 0Z"/>
<path transform="matrix(1.00006,0,0,-1.00006,178.97177,75.36574)" stroke-width=".79701" stroke-linecap="butt" stroke-linejoin="round" fill="none" stroke="#000000" d="M1.0361 0C-.25902 .25902-1.55415 .77707-3.1083 1.68365-1.55415 .51805-1.55415-.51805-3.1083-1.68365-1.55415-.77707-.25902-.25902 1.0361 0Z"/>
<use data-text="x" xlink:href="#font_1_1" transform="matrix(9.963197,0,0,-9.963197,184.12613,77.510868)"/>
<path transform="matrix(1.00006,0,0,-1.00006,86.8563,75.36574)" stroke-width=".79701" stroke-linecap="butt" stroke-miterlimit="10" stroke-linejoin="miter" fill="none" stroke="#000000" d="M0-56.69275V62.06133"/>
<path transform="matrix(0,-1.00006,-1.00006,-0,86.8563,13.300686)" d="M1.0361 0C-.25902 .25902-1.55415 .77707-3.1083 1.68365-1.55415 .51805-1.55415-.51805-3.1083-1.68365-1.55415-.77707-.25902-.25902 1.0361 0Z"/>
<path transform="matrix(0,-1.00006,-1.00006,-0,86.8563,13.300686)" stroke-width=".79701" stroke-linecap="butt" stroke-linejoin="round" fill="none" stroke="#000000" d="M1.0361 0C-.25902 .25902-1.55415 .77707-3.1083 1.68365-1.55415 .51805-1.55415-.51805-3.1083-1.68365-1.55415-.77707-.25902-.25902 1.0361 0Z"/>
<use data-text="y" xlink:href="#font_1_2" transform="matrix(9.963197,0,0,-9.963197,84.235149,6.2095949)"/>
<path transform="matrix(1.00006,0,0,-1.00006,86.8563,75.36574)" stroke-width="1.19553" stroke-linecap="butt" stroke-miterlimit="10" stroke-linejoin="miter" fill="none" stroke="#ff0000" d="M-85.04042-45.0393C-85.04042-45.0393-84.13382-45.0325-83.78561-45.02979-83.43744-45.02708-82.87901-45.02258-82.53084-45.01976-82.18263-45.01692-81.62424-45.01231-81.27603-45.00937-80.92784-45.00642-80.36943-45.00157-80.02124-44.99847-79.67305-44.99539-79.11464-44.9903-78.76645-44.98706-78.41826-44.98381-77.85986-44.97853-77.51166-44.97513-77.16347-44.97171-76.60506-44.96606-76.25687-44.9625-75.90868-44.95891-75.35027-44.9531-75.00208-44.94934-74.65388-44.94557-74.09547-44.93927-73.74728-44.93532-73.39908-44.93135-72.84068-44.92494-72.49248-44.92079-72.1443-44.91664-71.58589-44.90979-71.2377-44.9054-70.88951-44.901-70.3311-44.89375-69.98291-44.88913-69.6347-44.8845-69.07631-44.8769-68.7281-44.87201-68.37991-44.86711-67.8215-44.859-67.47331-44.85382-67.12512-44.84868-66.56673-44.84026-66.21852-44.8348-65.87033-44.82935-65.31192-44.82033-64.96373-44.81456-64.61552-44.80878-64.05713-44.79926-63.70894-44.7931-63.36075-44.78697-62.80234-44.7768-62.45415-44.77026-62.10596-44.76373-61.54755-44.75296-61.19936-44.74605-60.85115-44.73914-60.29276-44.7278-59.94455-44.72044-59.59637-44.71307-59.03795-44.70078-58.68977-44.69293-58.34157-44.68509-57.78317-44.67224-57.43498-44.66386-57.08678-44.65549-56.52838-44.64153-56.18018-44.63254-55.832-44.62358-55.27357-44.60873-54.9254-44.59917-54.5772-44.58958-54.0188-44.57376-53.6706-44.5635-53.3224-44.55327-52.76399-44.53629-52.4158-44.52528-52.06761-44.51427-51.5092-44.49599-51.16101-44.48412-50.81282-44.47223-50.25443-44.45244-49.90622-44.43964-49.55803-44.42685-48.99962-44.40567-48.65143-44.39188-48.30322-44.37811-47.74483-44.35522-47.39664-44.34033-47.04845-44.32542-46.49004-44.30063-46.14185-44.28445-45.79364-44.26828-45.23524-44.24129-44.88704-44.22372-44.53885-44.20616-43.98045-44.17691-43.63225-44.1578-43.28407-44.13869-42.72565-44.10686-42.37747-44.086-42.02927-44.06514-41.47087-44.0303-41.12267-44.00746-40.77448-43.9846-40.21606-43.94641-39.86787-43.9213-39.51968-43.8962-38.96127-43.85411-38.61308-43.82649-38.2649-43.79887-37.70648-43.75264-37.35829-43.72215-37.01009-43.69168-36.45169-43.64052-36.1035-43.60677-35.75531-43.57298-35.1969-43.5163-34.84871-43.47873-34.50052-43.44116-33.94211-43.37798-33.59392-43.336-33.24571-43.294-32.68732-43.2232-32.33911-43.17613-31.99094-43.12906-31.43251-43.04967-31.08434-42.99672-30.73613-42.94376-30.17773-42.8544-29.82954-42.79446-29.48134-42.73453-28.92294-42.63295-28.57474-42.56471-28.22655-42.49646-27.66814-42.38075-27.31996-42.30258-26.97176-42.22443-26.41336-42.09137-26.06516-42.00137-25.71696-41.91138-25.15855-41.75833-24.81036-41.65396-24.46216-41.5496-23.90376-41.3712-23.55556-41.24911-23.20738-41.12703-22.64897-40.91791-22.30078-40.77402-21.95259-40.63014-21.39418-40.38333-21.04599-40.21208-20.69778-40.04083-20.13939-39.74597-19.79118-39.53975-19.44301-39.33353-18.88458-38.97714-18.5364-38.72572-18.1882-38.47433-17.6298-38.03835-17.2816-37.7278-16.93341-37.41725-16.37502-36.87746-16.02681-36.48746-15.67863-36.09749-15.12021-35.41638-14.77203-34.91702-14.42383-34.41768-13.86543-33.54207-13.51723-32.88846-13.16904-32.23485-12.61063-31.08508-12.26244-30.20625-11.91425-29.3274-11.35583-27.77502-11.00764-26.55429-10.65945-25.33356-10.10104-23.17603-9.75285-21.40804-9.40465-19.64003-8.84625-16.51367-8.49806-13.81175-8.14986-11.10983-7.59146-6.37111-7.24327-1.93445-6.89508 2.50221-6.33667 10.08456-5.98848 18.16475-5.64027 26.24493-4.73367 56.3019-4.73367 56.3019"/>
<path transform="matrix(1.00006,0,0,-1.00006,86.8563,75.36574)" stroke-width="1.19553" stroke-linecap="butt" stroke-miterlimit="10" stroke-linejoin="miter" fill="none" stroke="#ff0000" d="M4.72438 56.70277C4.72438 56.70277 5.63098 26.4818 5.97917 18.36095 6.32738 10.2401 6.88577 2.62762 7.23396-1.82664 7.58217-6.28094 8.14056-11.0321 8.48875-13.74254 8.83694-16.45299 9.39536-19.58849 9.74355-21.36166 10.09175-23.13484 10.65015-25.29861 10.99835-26.52246 11.34654-27.7463 11.90495-29.30147 12.25314-30.18236 12.60133-31.06326 13.15974-32.2163 13.50792-32.87134 13.85612-33.52635 14.41452-34.40323 14.76273-34.90337 15.11092-35.40352 15.66933-36.08525 16.01752-36.47604 16.3657-36.86684 16.92412-37.40884 17.27231-37.72 17.6205-38.03117 18.17891-38.4671 18.5271-38.71881 18.8753-38.9705 19.4337-39.32748 19.78189-39.53404 20.13008-39.74062 20.68849-40.03604 21.03668-40.20758 21.38487-40.37912 21.94328-40.62633 22.29147-40.77039 22.63968-40.91447 23.19807-41.1238 23.54628-41.246 23.89445-41.36821 24.45288-41.54668 24.80106-41.6512 25.14926-41.7557 25.70766-41.90927 26.05586-41.9993 26.40405-42.08931 26.96245-42.22182 27.31065-42.3 27.65884-42.37817 28.21725-42.49443 28.56543-42.56279 28.91364-42.63118 29.47203-42.73271 29.82024-42.79274 30.16843-42.85277 30.72684-42.94247 31.07503-42.9955 31.42323-43.04852 31.98163-43.12782 32.32983-43.17491 32.67801-43.22202 33.23642-43.29295 33.58461-43.33496 33.9328-43.37697 34.49121-43.44011 34.8394-43.47769 35.1876-43.51526 35.746-43.5719 36.09421-43.60573 36.44238-43.63954 37.00081-43.69093 37.34898-43.72147 37.69719-43.752 38.25558-43.7982 38.60379-43.82579 38.95198-43.8534 39.51039-43.89536 39.85858-43.92044 40.20677-43.94553 40.76518-43.98369 41.11336-44.00659 41.46156-44.0295 42.01996-44.06459 42.36816-44.08548 42.71635-44.10638 43.27477-44.13818 43.62296-44.15729 43.97115-44.17639 44.52956-44.20564 44.87775-44.2232 45.22594-44.24077 45.78435-44.26773 46.13254-44.28394 46.48074-44.30013 47.03914-44.32506 47.38733-44.33998 47.73553-44.3549 48.29393-44.37778 48.64212-44.39154 48.99031-44.40532 49.54872-44.4265 49.89691-44.4393 50.24512-44.45209 50.80351-44.47188 51.15172-44.48376 51.49991-44.49564 52.05832-44.51393 52.40651-44.52495 52.7547-44.53595 53.3131-44.5529 53.6613-44.56317 54.00949-44.57344 54.56789-44.5894 54.91609-44.59898 55.26428-44.60855 55.8227-44.62326 56.17088-44.63222 56.51907-44.64114 57.07748-44.65512 57.42567-44.66351 57.77386-44.67192 58.33228-44.68492 58.68047-44.69276 59.02867-44.7006 59.58707-44.71274 59.93527-44.7201 60.28345-44.72745 60.84186-44.73894 61.19005-44.74588 61.53824-44.7528 62.09665-44.76357 62.44484-44.7701 62.79305-44.77661 63.35144-44.7868 63.69965-44.79294 64.04782-44.79909 64.60625-44.8086 64.95442-44.81439 65.30263-44.82018 65.86102-44.82915 66.20923-44.83463 66.55742-44.8401 67.11583-44.84868 67.46402-44.85382 67.81221-44.859 68.37062-44.86696 68.7188-44.87183 69.067-44.8767 69.6254-44.88432 69.9736-44.88896 70.3218-44.8936 70.8802-44.90083 71.2284-44.90523 71.5766-44.90962 72.135-44.91644 72.4832-44.92062 72.83138-44.92479 73.38979-44.93135 73.73798-44.93532 74.08618-44.93927 74.64458-44.9454 74.99277-44.94917 75.34097-44.95293 75.89937-44.95891 76.24757-44.9625 76.59575-44.96606 77.15417-44.97156 77.50235-44.97495 77.85056-44.97833 78.40895-44.98361 78.75716-44.98688 79.10535-44.99014 79.66376-44.99539 80.01195-44.99847 80.36014-45.00157 80.91855-45.00627 81.26674-45.0092 81.61493-45.01212 82.17332-45.01675 82.52153-45.01959 82.86972-45.02242 83.42813-45.0269 83.77632-45.02962 84.12451-45.03233 85.03111-45.03912 85.03111-45.03912"/>
</svg>
