<svg xmlns="http://www.w3.org/2000/svg" xmlns:xlink="http://www.w3.org/1999/xlink" version="1.1" width="119" height="192" viewBox="0 0 119 192">
<defs>
<path id="font_1_1" d="M.33399964 .30233766C.33999635 .32835389 .36299134 .42037965 .43299867 .42037965 .43798829 .42037965 .46199037 .42037965 .48298646 .40734864 .45498658 .402359 .43499757 .37734986 .43499757 .35334779 .43499757 .33735658 .44599916 .31835938 .47299195 .31835938 .49499513 .31835938 .5269928 .3363495 .5269928 .37635804 .5269928 .42837525 .46798707 .4423828 .43399049 .4423828 .37599183 .4423828 .34098817 .38935853 .32899476 .36634828 .3039856 .43237306 .25 .4423828 .22099304 .4423828 .116989139 .4423828 .05999756 .3133545 .05999756 .28834535 .05999756 .27833558 .069992069 .27833558 .07199097 .27833558 .07998657 .27833558 .08299255 .28033448 .084991458 .28933717 .11898804 .39535523 .18499756 .42037965 .21899414 .42037965 .23799134 .42037965 .272995 .4113617 .272995 .35334779 .272995 .32235719 .2559967 .25532533 .21899414 .11528015 .20298767 .053268434 .16799927 .011245728 .12399292 .011245728 .117996219 .011245728 .09498596 .011245728 .07398987 .024276734 .09899902 .029266358 .12098694 .05027771 .12098694 .07827759 .12098694 .105270389 .09899902 .11328125 .083999637 .11328125 .053985597 .11328125 .0289917 .08728027 .0289917 .055267335 .0289917 .009246826 .07899475-.0107421879 .12298584-.0107421879 .18899536-.0107421879 .22499085 .059280397 .22799683 .0652771 .23999024 .028274537 .27598573-.0107421879 .33599855-.0107421879 .43899537-.0107421879 .49598695 .118270877 .49598695 .14328003 .49598695 .1532898 .4869995 .1532898 .48399354 .1532898 .47499085 .1532898 .47299195 .14929199 .47099305 .14228821 .43798829 .03527832 .36999513 .011245728 .33799745 .011245728 .29899598 .011245728 .2829895 .043273927 .2829895 .07727051 .2829895 .09927368 .2889862 .121276859 .2999878 .16529846L.33399964 .30233766Z"/>
<path id="font_1_2" d="M.48599244 .38136292C.48999024 .39537049 .48999024 .39736939 .48999024 .40437318 .48999024 .42237855 .47599793 .43138124 .46099855 .43138124 .45098878 .43138124 .43499757 .42536927 .42599488 .41036988 .42399598 .405365 .41600038 .37435914 .4119873 .35635377 .40499879 .33035279 .397995 .30334474 .3919983 .27633668L.34700013 .09628296C.34298707 .08126831 .2999878 .011245728 .23399353 .011245728 .18299866 .011245728 .17199707 .055267335 .17199707 .0922699 .17199707 .1382904 .18899536 .20030213 .22299195 .28833009 .23899842 .3293457 .24299622 .3403473 .24299622 .36035157 .24299622 .405365 .21099854 .4423828 .16099549 .4423828 .06599426 .4423828 .0289917 .29733277 .0289917 .28833009 .0289917 .27833558 .038986207 .27833558 .040985109 .27833558 .050994874 .27833558 .051986696 .28033448 .056991579 .29634095 .083999637 .3903656 .12399292 .42037965 .1579895 .42037965 .1659851 .42037965 .18299866 .42037965 .18299866 .3883667 .18299866 .36335755 .17298889 .3373413 .1659851 .31834413 .12599182 .21231079 .10798645 .1552887 .10798645 .10827637 .10798645 .019256592 .17098999-.0107421879 .22999573-.0107421879 .2689972-.0107421879 .30299378 .0062561037 .33099366 .03425598 .31799317-.017745972 .30599977-.06674194 .2659912-.11973572 .23999024-.15385437 .20199585-.18309021 .1559906-.18309021 .14199829-.18309021 .09700012-.18005371 .07998657-.14074707 .09599304-.14074707 .10899353-.14074707 .12298584-.1287384 .1329956-.11973572 .14299011-.10673523 .14299011-.08773804 .14299011-.056747438 .115997318-.052734376 .10598755-.052734376 .08299255-.052734376 .049987794-.068740848 .049987794-.11773682 .049987794-.16796875 .09399414-.20507813 .1559906-.20507813 .25898744-.20507813 .3619995-.11373901 .3899994-.00074768069L.48599244 .38136292Z"/>
<path id="font_2_1" d="M.1269989 .07699585 .23298645 .18003845C.3889923 .31811524 .44898988 .3721466 .44898988 .47216798 .44898988 .5860901 .35899354 .6660156 .23699951 .6660156 .12399292 .6660156 .049987794 .57411196 .049987794 .48516847 .049987794 .4291687 .099990848 .4291687 .102996829 .4291687 .11999512 .4291687 .15499878 .44117738 .15499878 .48217774 .15499878 .5081787 .13699341 .5341797 .101989749 .5341797 .09399414 .5341797 .09199524 .5341797 .08898926 .5331726 .11199951 .59806826 .1659851 .63500979 .22399903 .63500979 .31498719 .63500979 .35798646 .5541382 .35798646 .47216798 .35798646 .39215089 .30799867 .31311036 .25299073 .25108338L.06098938 .036987306C.049987794 .025985718 .049987794 .023986817 .049987794 0H.42099L.44898988 .17404175H.42399598C.4189911 .14402771 .4119873 .1000061 .4019928 .084991458 .394989 .07699585 .32899476 .07699585 .30699159 .07699585H.1269989Z"/>
<path id="font_3_1" d="M.6589966 .23046875C.6759949 .23046875 .69400027 .23046875 .69400027 .25045777 .69400027 .27046205 .6759949 .27046205 .6589966 .27046205H.117996219C.100997928 .27046205 .08299255 .27046205 .08299255 .25045777 .08299255 .23046875 .100997928 .23046875 .117996219 .23046875H.6589966Z"/>
<path id="font_2_2" d="M.2939911 .16503906V.07800293C.2939911 .041992189 .2919922 .0309906 .21798706 .0309906H.19699097V0C.23799134 .0029907227 .2899933 .0029907227 .33198548 .0029907227 .37399293 .0029907227 .4269867 .0029907227 .46798707 0V.0309906H.44699098C.37298585 .0309906 .37098695 .041992189 .37098695 .07800293V.16503906H.47099305V.19602967H.37098695V.65075686C.37098695 .67074587 .37098695 .6767578 .35499574 .6767578 .34599305 .6767578 .34298707 .6767578 .33499146 .66474917L.027999878 .19602967V.16503906H.2939911M.2999878 .19602967H.055999757L.2999878 .5688019V.19602967Z"/>
<path id="font_4_85" d="M.33099366-.2400055C.33099366-.23701477 .33099366-.23500061 .31399537-.21800232 .18899536-.0920105 .15699768 .09700012 .15699768 .25 .15699768 .42399598 .19499207 .59799197 .31799317 .72299197 .33099366 .7350006 .33099366 .7369995 .33099366 .73999026 .33099366 .746994 .32699586 .75 .32099916 .75 .31098939 .75 .22099304 .6819916 .1619873 .5549927 .11099243 .44499208 .09899902 .33399964 .09899902 .25 .09899902 .17199707 .10998535 .050994874 .16499329-.06201172 .22499085-.18501282 .31098939-.25 .32099916-.25 .32699586-.25 .33099366-.24700928 .33099366-.2400055Z"/>
<path id="font_4_43" d="M.4149933 .119140628C.4149933 .12911988 .40499879 .12911988 .4019928 .12911988 .3929901 .12911988 .3909912 .12512207 .3889923 .119140628 .3600006 .026229859 .29499818 .014251709 .2579956 .014251709 .20498657 .014251709 .116989139 .0572052 .116989139 .21801758 .116989139 .38093568 .19898987 .42323304 .2519989 .42323304 .26098634 .42323304 .32398988 .42222596 .35899354 .38594056 .31799317 .38293458 .31199647 .3529358 .31199647 .3399353 .31199647 .31393434 .32998658 .2939453 .35798646 .2939453 .38398744 .2939453 .4039917 .3109436 .4039917 .34094239 .4039917 .40911866 .32798768 .4482422 .25099183 .4482422 .12599182 .4482422 .033996583 .3399353 .033996583 .21601868 .033996583 .08816528 .1329956-.0107421879 .24899292-.0107421879 .3829956-.0107421879 .4149933 .10914612 .4149933 .119140628Z"/>
<path id="font_4_86" d="M.2889862 .25C.2889862 .32798768 .27799989 .44898988 .22299195 .56199648 .16299439 .68499758 .07699585 .75 .066986087 .75 .06098938 .75 .056991579 .74598696 .056991579 .73999026 .056991579 .7369995 .056991579 .7350006 .07598877 .71699526 .17399597 .6179962 .23098755 .45899964 .23098755 .25 .23098755 .07899475 .19400025-.09700012 .069992069-.2230072 .056991579-.23500061 .056991579-.23701477 .056991579-.2400055 .056991579-.2460022 .06098938-.25 .066986087-.25 .07699585-.25 .16699219-.18200684 .22599793-.055007936 .2769928 .054992677 .2889862 .16600037 .2889862 .25Z"/>
</defs>
<path transform="matrix(1.00003,0,0,-1.00005,51.7041,92.317958)" stroke-width=".3985" stroke-linecap="butt" stroke-miterlimit="10" stroke-linejoin="miter" fill="none" stroke="#00aeef" d="M-49.89066-74.83597H49.89066M-49.89066-56.12697H49.89066M-49.89066-37.41797H49.89066M-49.89066-18.70897H49.89066M-49.89066 0H49.89066M-49.89066 18.70897H49.89066M-49.89066 37.41797H49.89066M-49.89066 56.12697H49.89066M-49.89066 74.83269H49.89066M-49.89066-74.83597V74.83597M-24.94531-74.83597V74.83597M0-74.83597V74.83597M24.94531-74.83597V74.83597M49.88628-74.83597V74.83597M49.89066 74.83597"/>
<path transform="matrix(1.00003,0,0,-1.00005,51.7041,92.317958)" stroke-width=".79701" stroke-linecap="butt" stroke-miterlimit="10" stroke-linejoin="miter" fill="none" stroke="#000000" d="M-49.89066 0H55.9397"/>
<path transform="matrix(1.00003,0,0,-1.00005,107.645488,92.317958)" d="M1.0361 0C-.25902 .25902-1.55415 .77707-3.1083 1.68365-1.55415 .51805-1.55415-.51805-3.1083-1.68365-1.55415-.77707-.25902-.25902 1.0361 0Z"/>
<path transform="matrix(1.00003,0,0,-1.00005,107.645488,92.317958)" stroke-width=".79701" stroke-linecap="butt" stroke-linejoin="round" fill="none" stroke="#000000" d="M1.0361 0C-.25902 .25902-1.55415 .77707-3.1083 1.68365-1.55415 .51805-1.55415-.51805-3.1083-1.68365-1.55415-.77707-.25902-.25902 1.0361 0Z"/>
<use data-text="x" xlink:href="#font_1_1" transform="matrix(9.962899,0,0,-9.963098,112.798938,94.46306)"/>
<path transform="matrix(1.00003,0,0,-1.00005,51.7041,92.317958)" stroke-width=".79701" stroke-linecap="butt" stroke-miterlimit="10" stroke-linejoin="miter" fill="none" stroke="#000000" d="M0-74.83597V79.01411"/>
<path transform="matrix(0,-1.00005,-1.00003,-0,51.7041,13.299904)" d="M1.0361 0C-.25902 .25902-1.55415 .77707-3.1083 1.68365-1.55415 .51805-1.55415-.51805-3.1083-1.68365-1.55415-.77707-.25902-.25902 1.0361 0Z"/>
<path transform="matrix(0,-1.00005,-1.00003,-0,51.7041,13.299904)" stroke-width=".79701" stroke-linecap="butt" stroke-linejoin="round" fill="none" stroke="#000000" d="M1.0361 0C-.25902 .25902-1.55415 .77707-3.1083 1.68365-1.55415 .51805-1.55415-.51805-3.1083-1.68365-1.55415-.77707-.25902-.25902 1.0361 0Z"/>
<use data-text="y" xlink:href="#font_1_2" transform="matrix(9.962899,0,0,-9.963098,49.083024,6.2086489)"/>
<path transform="matrix(1.00003,0,0,-1.00005,51.7041,92.317958)" stroke-width=".3985" stroke-linecap="butt" stroke-miterlimit="10" stroke-linejoin="miter" fill="none" stroke="#000000" d="M24.94531 .93549V-.93535"/>
<path transform="matrix(1.00003,0,0,-1.00005,51.7041,92.317958)" d="M21.45834-11.54015H28.43228V-3.1271697H21.45834Z" fill="#ffffff"/>
<use data-text="2" xlink:href="#font_2_1" transform="matrix(9.962899,0,0,-9.963098,74.159778,102.86248)"/>
<path transform="matrix(1.00003,0,0,-1.00005,51.7041,92.317958)" stroke-width=".3985" stroke-linecap="butt" stroke-miterlimit="10" stroke-linejoin="miter" fill="none" stroke="#000000" d="M1.24733-18.70897H-1.24713"/>
<path transform="matrix(1.00003,0,0,-1.00005,51.7041,92.317958)" d="M-18.16171-23.3306H-3.4389306V-14.087371H-18.16171Z" fill="#ffffff"/>
<use data-text="&#x2212;" xlink:href="#font_3_1" transform="matrix(9.962899,0,0,-9.963098,34.53859,113.82303)"/>
<use data-text="2" xlink:href="#font_2_1" transform="matrix(9.962899,0,0,-9.963098,42.28781,113.82303)"/>
<path transform="matrix(1.00003,0,0,-1.00005,51.7041,92.317958)" stroke-width=".3985" stroke-linecap="butt" stroke-miterlimit="10" stroke-linejoin="miter" fill="none" stroke="#000000" d="M1.24733 37.41797H-1.24713"/>
<path transform="matrix(1.00003,0,0,-1.00005,51.7041,92.317958)" d="M-10.41287 33.21149H-3.4389306V41.62447H-10.41287Z" fill="#ffffff"/>
<use data-text="4" xlink:href="#font_2_2" transform="matrix(9.962899,0,0,-9.963098,42.28682,58.108247)"/>
<path transform="matrix(1.00003,0,0,-1.00005,51.7041,92.317958)" stroke-width="1.19553" stroke-linecap="butt" stroke-miterlimit="10" stroke-linejoin="miter" fill="none" stroke="#ff0000" d="M-48.03624-7.27864C-49.38023-7.0882-49.38023-7.0882-49.18419-7.11664-48.98814-7.14507-48.67377-7.19159-48.47772-7.22083-48.2817-7.25006-47.96732-7.2973-47.77127-7.32732-47.57523-7.35732-47.26085-7.40611-47.0648-7.43707-46.86877-7.46805-46.5544-7.51862-46.35835-7.55055-46.16231-7.58249-45.84793-7.63443-45.65189-7.66731-45.45586-7.70021-45.14146-7.75365-44.94542-7.78764-44.74939-7.82166-44.43501-7.87732-44.23897-7.9124-44.04294-7.94746-43.72855-8.0042-43.5325-8.04044-43.33647-8.07668-43.0221-8.13614-42.82605-8.17361-42.63002-8.21109-42.31563-8.27188-42.11958-8.31049-41.92355-8.34912-41.60916-8.41196-41.41313-8.45195-41.21709-8.49193-40.90271-8.55728-40.70667-8.5987-40.51064-8.64008-40.19624-8.70752-40.00021-8.7504-39.80417-8.7933-39.48979-8.86334-39.29375-8.90785-39.09772-8.95238-38.78333-9.02516-38.5873-9.07129-38.39125-9.11742-38.07687-9.1925-37.88083-9.24028-37.6848-9.28809-37.3704-9.36607-37.17438-9.41571-36.97833-9.46536-36.66394-9.54652-36.46791-9.59814-36.27187-9.64973-35.95749-9.73401-35.76146-9.78769-35.56541-9.84138-35.25102-9.92921-35.055-9.9851-34.85895-10.04099-34.54457-10.13235-34.34853-10.1905-34.1525-10.24864-33.8381-10.34357-33.64207-10.40417-33.44603-10.46478-33.13165-10.56395-32.93561-10.62729-32.73956-10.69061-32.42519-10.79454-32.22916-10.86066-32.03311-10.92677-31.71873-11.03482-31.52269-11.10388-31.32664-11.17293-31.01227-11.2861-30.81624-11.3584-30.6202-11.43068-30.30582-11.54915-30.10977-11.62488-29.91373-11.7006-29.59935-11.82477-29.40332-11.90422-29.20728-11.98366-28.89288-12.11403-28.69685-12.1974-28.50081-12.28078-28.18643-12.41756-27.99039-12.50514-27.79436-12.59273-27.47997-12.73657-27.28394-12.82874-27.08789-12.92088-26.77351-13.0721-26.57747-13.16931-26.38144-13.26653-26.06705-13.42679-25.87102-13.52943-25.67497-13.63208-25.3606-13.80061-25.16455-13.90912-24.9685-14.01762-24.65413-14.19676-24.45808-14.3115-24.26205-14.42624-23.94768-14.61455-23.75163-14.73613-23.55559-14.85774-23.24121-15.0585-23.04517-15.18791-22.84914-15.3173-22.53476-15.53108-22.33871-15.6688-22.14267-15.80652-21.8283-16.03374-21.63226-16.18053-21.43623-16.3273-21.12186-16.56985-20.92581-16.72678-20.72977-16.88368-20.41539-17.14336-20.21935-17.31143-20.02332-17.47952-19.70892-17.7579-19.5129-17.93819-19.31685-18.11847-19.00247-18.41661-18.80643-18.61076-18.6104-18.80493-18.296-19.12773-18.09996-19.33759-17.90393-19.54747-17.58955-19.89612-17.39351-20.12338-17.19748-20.35063-16.88309-20.72867-16.68704-20.97552-16.49101-21.22238-16.17662-21.6334-15.98059-21.9026-15.78455-22.1718-15.47017-22.62086-15.27412-22.91576-15.0781-23.21066-14.7637-23.70378-14.56767-24.02798-14.37163-24.35217-14.05725-24.89442-13.8612-25.2524-13.66518-25.61035-13.35078-26.21057-13.15475-26.60799-12.95871-27.00539-12.64433-27.6724-12.44829-28.11658-12.25226-28.56076-11.93787-29.30963-11.74184-29.80931-11.54579-30.30898-11.2314-31.15195-11.03537-31.71786-10.83932-32.28378-10.52495-33.24152-10.32892-33.88806-10.13287-34.5346-9.81848-35.6323-9.62245-36.3777-9.4264-37.12312-9.11203-38.39194-8.916-39.26045-8.71996-40.12895-8.40556-41.61145-8.20953-42.63734-8.01349-43.66325-7.69911-45.4241-7.50307-46.65443-7.30702-47.88478-6.99265-50.00362-6.79662-51.50482-6.60057-53.00604-6.2862-55.5994-6.09015-57.47414-5.8941-59.34888-5.57973-62.60748-5.3837-65.01672-5.18765-67.42595-4.67723-74.83827-4.8058-72.96974"/>
<path transform="matrix(-.99010977,-.14030701,-.14030423,.9901295,3.66642,99.59698)" d="M1.27522 0C-.31879 .31879-1.91284 .9564-3.8257 2.07224-1.91284 .6376-1.91284-.6376-3.8257-2.07224-1.91284-.9564-.31879-.31879 1.27522 0Z" fill="#ff0000"/>
<path transform="matrix(-.99010977,-.14030701,-.14030423,.9901295,3.66642,99.59698)" stroke-width="1.19553" stroke-linecap="butt" stroke-linejoin="round" fill="none" stroke="#ff0000" d="M1.27522 0C-.31879 .31879-1.91284 .9564-3.8257 2.07224-1.91284 .6376-1.91284-.6376-3.8257-2.07224-1.91284-.9564-.31879-.31879 1.27522 0Z"/>
<path transform="matrix(.06865206,.9976698,.99764999,-.06865343,46.898157,165.29132)" d="M1.27522 0C-.31879 .31879-1.91284 .9564-3.8257 2.07224-1.91284 .6376-1.91284-.6376-3.8257-2.07224-1.91284-.9564-.31879-.31879 1.27522 0Z" fill="#ff0000"/>
<path transform="matrix(.06865206,.9976698,.99764999,-.06865343,46.898157,165.29132)" stroke-width="1.19553" stroke-linecap="butt" stroke-linejoin="round" fill="none" stroke="#ff0000" d="M1.27522 0C-.31879 .31879-1.91284 .9564-3.8257 2.07224-1.91284 .6376-1.91284-.6376-3.8257-2.07224-1.91284-.9564-.31879-.31879 1.27522 0Z"/>
<path transform="matrix(1.00003,0,0,-1.00005,51.7041,92.317958)" stroke-width="1.19553" stroke-linecap="butt" stroke-miterlimit="10" stroke-linejoin="miter" fill="none" stroke="#ff0000" d="M4.8058 72.96974C5.18765 67.42595 5.18765 67.42595 5.3837 65.01672 5.57973 62.60748 5.8941 59.34888 6.09015 57.47414 6.2862 55.5994 6.60057 53.00604 6.79662 51.50482 6.99265 50.00362 7.30702 47.88478 7.50307 46.65443 7.69911 45.4241 8.01349 43.66325 8.20953 42.63734 8.40556 41.61145 8.71996 40.12895 8.916 39.26045 9.11203 38.39194 9.4264 37.12312 9.62245 36.3777 9.81848 35.6323 10.13287 34.5346 10.32892 33.88806 10.52495 33.24152 10.83932 32.28378 11.03537 31.71786 11.2314 31.15195 11.54579 30.30898 11.74184 29.80931 11.93787 29.30963 12.25226 28.56076 12.44829 28.11658 12.64433 27.6724 12.95871 27.00539 13.15475 26.60799 13.35078 26.21057 13.66518 25.61035 13.8612 25.2524 14.05725 24.89442 14.37163 24.35217 14.56767 24.02798 14.7637 23.70378 15.0781 23.21066 15.27412 22.91576 15.47017 22.62086 15.78455 22.1718 15.98059 21.9026 16.17662 21.6334 16.49101 21.22238 16.68704 20.97552 16.88309 20.72867 17.19748 20.35063 17.39351 20.12338 17.58955 19.89612 17.90393 19.54747 18.09996 19.33759 18.296 19.12773 18.6104 18.80493 18.80643 18.61076 19.00247 18.41661 19.31685 18.11847 19.5129 17.93819 19.70892 17.7579 20.02332 17.47952 20.21935 17.31143 20.41539 17.14336 20.72977 16.88368 20.92581 16.72678 21.12186 16.56985 21.43623 16.3273 21.63226 16.18053 21.8283 16.03374 22.14267 15.80652 22.33871 15.6688 22.53476 15.53108 22.84914 15.3173 23.04517 15.18791 23.24121 15.0585 23.55559 14.85774 23.75163 14.73613 23.94768 14.61455 24.26205 14.42624 24.45808 14.3115 24.65413 14.19676 24.9685 14.01762 25.16455 13.90912 25.3606 13.80061 25.67497 13.63208 25.87102 13.52943 26.06705 13.42679 26.38144 13.26653 26.57747 13.16931 26.77351 13.0721 27.08789 12.92088 27.28394 12.82874 27.47997 12.73657 27.79436 12.59273 27.99039 12.50514 28.18643 12.41756 28.50081 12.28078 28.69685 12.1974 28.89288 12.11403 29.20728 11.98366 29.40332 11.90422 29.59935 11.82477 29.91373 11.7006 30.10977 11.62488 30.30582 11.54915 30.6202 11.43068 30.81624 11.3584 31.01227 11.2861 31.32664 11.17293 31.52269 11.10388 31.71873 11.03482 32.03311 10.92677 32.22916 10.86066 32.42519 10.79454 32.73956 10.69061 32.93561 10.62729 33.13165 10.56395 33.44603 10.46478 33.64207 10.40417 33.8381 10.34357 34.1525 10.24864 34.34853 10.1905 34.54457 10.13235 34.85895 10.04099 35.055 9.9851 35.25102 9.92921 35.56541 9.84138 35.76146 9.78769 35.95749 9.73401 36.27187 9.64973 36.46791 9.59814 36.66394 9.54652 36.97833 9.46536 37.17438 9.41571 37.3704 9.36607 37.6848 9.28809 37.88083 9.24028 38.07687 9.1925 38.39125 9.11742 38.5873 9.07129 38.78333 9.02516 39.09772 8.95238 39.29375 8.90785 39.48979 8.86334 39.80417 8.7933 40.00021 8.7504 40.19624 8.70752 40.51064 8.64008 40.70667 8.5987 40.90271 8.55728 41.21709 8.49193 41.41313 8.45195 41.60916 8.41196 41.92355 8.34912 42.11958 8.31049 42.31563 8.27188 42.63002 8.21109 42.82605 8.17361 43.0221 8.13614 43.33647 8.07668 43.5325 8.04044 43.72855 8.0042 44.04294 7.94746 44.23897 7.9124 44.43501 7.87732 44.74939 7.82166 44.94542 7.78764 45.14146 7.75365 45.45586 7.70021 45.65189 7.66731 45.84793 7.63443 46.16231 7.58249 46.35835 7.55055 46.5544 7.51862 46.86877 7.46805 47.0648 7.43707 47.26085 7.40611 47.57523 7.35732 47.77127 7.32732 47.96732 7.2973 48.2817 7.25006 48.47772 7.22083 48.67377 7.19159 48.98814 7.14507 49.18419 7.11664 49.38023 7.0882 49.89066 7.01585 48.03624 7.27864"/>
<path transform="matrix(-.06865206,-.9976698,-.99764999,.06865343,56.510049,19.344582)" d="M1.27522 0C-.31879 .31879-1.91284 .9564-3.8257 2.07224-1.91284 .6376-1.91284-.6376-3.8257-2.07224-1.91284-.9564-.31879-.31879 1.27522 0Z" fill="#ff0000"/>
<path transform="matrix(-.06865206,-.9976698,-.99764999,.06865343,56.510049,19.344582)" stroke-width="1.19553" stroke-linecap="butt" stroke-linejoin="round" fill="none" stroke="#ff0000" d="M1.27522 0C-.31879 .31879-1.91284 .9564-3.8257 2.07224-1.91284 .6376-1.91284-.6376-3.8257-2.07224-1.91284-.9564-.31879-.31879 1.27522 0Z"/>
<path transform="matrix(.99010977,.14030701,.14030423,-.9901295,99.74178,85.03893)" d="M1.27522 0C-.31879 .31879-1.91284 .9564-3.8257 2.07224-1.91284 .6376-1.91284-.6376-3.8257-2.07224-1.91284-.9564-.31879-.31879 1.27522 0Z" fill="#ff0000"/>
<path transform="matrix(.99010977,.14030701,.14030423,-.9901295,99.74178,85.03893)" stroke-width="1.19553" stroke-linecap="butt" stroke-linejoin="round" fill="none" stroke="#ff0000" d="M1.27522 0C-.31879 .31879-1.91284 .9564-3.8257 2.07224-1.91284 .6376-1.91284-.6376-3.8257-2.07224-1.91284-.9564-.31879-.31879 1.27522 0Z"/>
<use data-text="(" xlink:href="#font_4_85" transform="matrix(9.962899,0,0,-9.963098,45.61692,188.35877)"/>
<use data-text="c" xlink:href="#font_4_43" transform="matrix(9.962899,0,0,-9.963098,49.4925,188.35877)"/>
<use data-text=")" xlink:href="#font_4_86" transform="matrix(9.962899,0,0,-9.963098,53.916025,188.35877)"/>
</svg>
