<svg xmlns="http://www.w3.org/2000/svg" xmlns:xlink="http://www.w3.org/1999/xlink" version="1.1" width="362" height="279" viewBox="0 0 362 279">
<defs>
<path id="font_1_3" d="M.33399964 .30233766C.33999635 .32835389 .36299134 .42037965 .43299867 .42037965 .43798829 .42037965 .46199037 .42037965 .48298646 .40734864 .45498658 .402359 .43499757 .37734986 .43499757 .35334779 .43499757 .33735658 .44599916 .31835938 .47299195 .31835938 .49499513 .31835938 .5269928 .3363495 .5269928 .37635804 .5269928 .42837525 .46798707 .4423828 .43399049 .4423828 .37599183 .4423828 .34098817 .38935853 .32899476 .36634828 .3039856 .43237306 .25 .4423828 .22099304 .4423828 .116989139 .4423828 .05999756 .3133545 .05999756 .28834535 .05999756 .27833558 .069992069 .27833558 .07199097 .27833558 .07998657 .27833558 .08299255 .28033448 .084991458 .28933717 .11898804 .39535523 .18499756 .42037965 .21899414 .42037965 .23799134 .42037965 .272995 .4113617 .272995 .35334779 .272995 .32235719 .2559967 .25532533 .21899414 .11528015 .20298767 .053268434 .16799927 .011245728 .12399292 .011245728 .117996219 .011245728 .09498596 .011245728 .07398987 .024276734 .09899902 .029266358 .12098694 .05027771 .12098694 .07827759 .12098694 .105270389 .09899902 .11328125 .083999637 .11328125 .053985597 .11328125 .0289917 .08728027 .0289917 .055267335 .0289917 .009246826 .07899475-.0107421879 .12298584-.0107421879 .18899536-.0107421879 .22499085 .059280397 .22799683 .0652771 .23999024 .028274537 .27598573-.0107421879 .33599855-.0107421879 .43899537-.0107421879 .49598695 .118270877 .49598695 .14328003 .49598695 .1532898 .4869995 .1532898 .48399354 .1532898 .47499085 .1532898 .47299195 .14929199 .47099305 .14228821 .43798829 .03527832 .36999513 .011245728 .33799745 .011245728 .29899598 .011245728 .2829895 .043273927 .2829895 .07727051 .2829895 .09927368 .2889862 .121276859 .2999878 .16529846L.33399964 .30233766Z"/>
<path id="font_1_4" d="M.48599244 .38136292C.48999024 .39537049 .48999024 .39736939 .48999024 .40437318 .48999024 .42237855 .47599793 .43138124 .46099855 .43138124 .45098878 .43138124 .43499757 .42536927 .42599488 .41036988 .42399598 .405365 .41600038 .37435914 .4119873 .35635377 .40499879 .33035279 .397995 .30334474 .3919983 .27633668L.34700013 .09628296C.34298707 .08126831 .2999878 .011245728 .23399353 .011245728 .18299866 .011245728 .17199707 .055267335 .17199707 .0922699 .17199707 .1382904 .18899536 .20030213 .22299195 .28833009 .23899842 .3293457 .24299622 .3403473 .24299622 .36035157 .24299622 .405365 .21099854 .4423828 .16099549 .4423828 .06599426 .4423828 .0289917 .29733277 .0289917 .28833009 .0289917 .27833558 .038986207 .27833558 .040985109 .27833558 .050994874 .27833558 .051986696 .28033448 .056991579 .29634095 .083999637 .3903656 .12399292 .42037965 .1579895 .42037965 .1659851 .42037965 .18299866 .42037965 .18299866 .3883667 .18299866 .36335755 .17298889 .3373413 .1659851 .31834413 .12599182 .21231079 .10798645 .1552887 .10798645 .10827637 .10798645 .019256592 .17098999-.0107421879 .22999573-.0107421879 .2689972-.0107421879 .30299378 .0062561037 .33099366 .03425598 .31799317-.017745972 .30599977-.06674194 .2659912-.11973572 .23999024-.15385437 .20199585-.18309021 .1559906-.18309021 .14199829-.18309021 .09700012-.18005371 .07998657-.14074707 .09599304-.14074707 .10899353-.14074707 .12298584-.1287384 .1329956-.11973572 .14299011-.10673523 .14299011-.08773804 .14299011-.056747438 .115997318-.052734376 .10598755-.052734376 .08299255-.052734376 .049987794-.068740848 .049987794-.11773682 .049987794-.16796875 .09399414-.20507813 .1559906-.20507813 .25898744-.20507813 .3619995-.11373901 .3899994-.00074768069L.48599244 .38136292Z"/>
<path id="font_2_1" d="M.6589966 .23046875C.6759949 .23046875 .69400027 .23046875 .69400027 .25045777 .69400027 .27046205 .6759949 .27046205 .6589966 .27046205H.117996219C.100997928 .27046205 .08299255 .27046205 .08299255 .25045777 .08299255 .23046875 .100997928 .23046875 .117996219 .23046875H.6589966Z"/>
<path id="font_3_4" d="M.2939911 .64004519C.2939911 .66400149 .2939911 .6660156 .2709961 .6660156 .20899964 .60227969 .12098694 .60227969 .08898926 .60227969V.57128909C.10899353 .57128909 .16799927 .57128909 .21998596 .5972748V.07902527C.21998596 .042999269 .21699524 .0309906 .1269989 .0309906H.09498596V0C.12998963 .0029907227 .21699524 .0029907227 .25698854 .0029907227 .29699708 .0029907227 .38398744 .0029907227 .4189911 0V.0309906H.3869934C.29699708 .0309906 .2939911 .041992189 .2939911 .07902527V.64004519Z"/>
<path id="font_3_7" d="M.2939911 .16503906V.07800293C.2939911 .041992189 .2919922 .0309906 .21798706 .0309906H.19699097V0C.23799134 .0029907227 .2899933 .0029907227 .33198548 .0029907227 .37399293 .0029907227 .4269867 .0029907227 .46798707 0V.0309906H.44699098C.37298585 .0309906 .37098695 .041992189 .37098695 .07800293V.16503906H.47099305V.19602967H.37098695V.65075686C.37098695 .67074587 .37098695 .6767578 .35499574 .6767578 .34599305 .6767578 .34298707 .6767578 .33499146 .66474917L.027999878 .19602967V.16503906H.2939911M.2999878 .19602967H.055999757L.2999878 .5688019V.19602967Z"/>
<path id="font_3_5" d="M.1269989 .07699585 .23298645 .18003845C.3889923 .31811524 .44898988 .3721466 .44898988 .47216798 .44898988 .5860901 .35899354 .6660156 .23699951 .6660156 .12399292 .6660156 .049987794 .57411196 .049987794 .48516847 .049987794 .4291687 .099990848 .4291687 .102996829 .4291687 .11999512 .4291687 .15499878 .44117738 .15499878 .48217774 .15499878 .5081787 .13699341 .5341797 .101989749 .5341797 .09399414 .5341797 .09199524 .5341797 .08898926 .5331726 .11199951 .59806826 .1659851 .63500979 .22399903 .63500979 .31498719 .63500979 .35798646 .5541382 .35798646 .47216798 .35798646 .39215089 .30799867 .31311036 .25299073 .25108338L.06098938 .036987306C.049987794 .025985718 .049987794 .023986817 .049987794 0H.42099L.44898988 .17404175H.42399598C.4189911 .14402771 .4119873 .1000061 .4019928 .084991458 .394989 .07699585 .32899476 .07699585 .30699159 .07699585H.1269989Z"/>
<path id="font_3_3" d="M.45999146 .31976319C.45999146 .39982606 .45498658 .47988893 .41999818 .5539398 .37399293 .65000918 .2919922 .6660156 .25 .6660156 .18998719 .6660156 .116989139 .64001467 .07598877 .54693606 .04399109 .47789 .038986207 .39982606 .038986207 .31976319 .038986207 .24472046 .042999269 .15464783 .083999637 .07859802 .1269989-.0024719239 .19999695-.022460938 .24899292-.022460938 .30299378-.022460938 .3789978-.0014648438 .4229889 .09359741 .45498658 .16265869 .45999146 .2407074 .45999146 .31976319M.24899292-.00047302247C.20999146-.00047302247 .15098572 .024551392 .1329956 .12062073 .12199402 .18066406 .12199402 .2727356 .12199402 .3317871 .12199402 .39582826 .12199402 .46188355 .12998963 .5159149 .14898682 .63500979 .22399903 .64401248 .24899292 .64401248 .28199769 .64401248 .34799195 .6259918 .36698915 .52693179 .3769989 .47088624 .3769989 .39482118 .3769989 .3317871 .3769989 .25672914 .3769989 .18867493 .3659973 .12461853 .35099793 .029556275 .2939911-.00047302247 .24899292-.00047302247Z"/>
<path id="font_3_11" d="M.16299439 .4569702C.116989139 .486969 .11299133 .52098086 .11299133 .5379791 .11299133 .598999 .17799378 .64100649 .24899292 .64100649 .32199098 .64100649 .38598634 .58898928 .38598634 .51698306 .38598634 .45996095 .34700013 .4119568 .2869873 .37695313L.16299439 .4569702M.30899049 .36193849C.3809967 .3989563 .42999269 .45095826 .42999269 .51698306 .42999269 .6090088 .34098817 .6660156 .25 .6660156 .1499939 .6660156 .068984989 .59199526 .068984989 .49897767 .068984989 .4809723 .070999149 .43595887 .11299133 .38894654 .12399292 .37695313 .16099549 .35194398 .18598938 .33494569 .12799073 .30592347 .041992189 .24984741 .041992189 .15072632 .041992189 .04458618 .14399719-.022460938 .24899292-.022460938 .3619995-.022460938 .45700074 .06060791 .45700074 .16773987 .45700074 .20379639 .44599916 .24885559 .4079895 .2909088 .3889923 .31193543 .37298585 .3219452 .30899049 .36193849M.20899964 .3199463 .33198548 .24183655C.3600006 .2228241 .40699769 .19277954 .40699769 .13169861 .40699769 .05760193 .33198548 .0055389406 .25 .0055389406 .1639862 .0055389406 .09199524 .067611698 .09199524 .15072632 .09199524 .20880127 .12399292 .27288819 .20899964 .3199463Z"/>
<path id="font_3_9" d="M.13198853 .327713V.35173036C.13198853 .6047821 .2559967 .64100649 .30699159 .64100649 .33099366 .64100649 .37298585 .634964 .394989 .6007538 .37998963 .6007538 .33999635 .6007538 .33999635 .5557556 .33999635 .524765 .3639984 .5097656 .38598634 .5097656 .4019928 .5097656 .43199159 .51875308 .43199159 .5577545 .43199159 .6178589 .3880005 .6660156 .30499269 .6660156 .1769867 .6660156 .041992189 .5367584 .041992189 .31570436 .041992189 .048553468 .1579895-.022460938 .25099183-.022460938 .3619995-.022460938 .45700074 .07156372 .45700074 .2036438 .45700074 .33070375 .36799623 .4267578 .25698854 .4267578 .18899536 .4267578 .1519928 .37573243 .13198853 .327713M.25099183 .0055389406C.18798828 .0055389406 .1579895 .06556702 .1519928 .080566409 .13398743 .127594 .13398743 .2076416 .13398743 .22564698 .13398743 .30369569 .1659851 .40374757 .2559967 .40374757 .27198792 .40374757 .31799317 .40374757 .34899903 .34172059 .36698915 .30470277 .36698915 .2536621 .36698915 .20463562 .36698915 .15661621 .36698915 .10658264 .34999085 .0705719 .31999208 .010528564 .27398683 .0055389406 .25099183 .0055389406Z"/>
<path id="font_3_1" d="M.33099366-.2400055C.33099366-.23701477 .33099366-.23500061 .31399537-.21800232 .18899536-.0920105 .15699768 .09700012 .15699768 .25 .15699768 .42399598 .19499207 .59799197 .31799317 .72299197 .33099366 .73498538 .33099366 .7369995 .33099366 .73999026 .33099366 .746994 .32699586 .75 .32099916 .75 .31098939 .75 .22099304 .6819916 .1619873 .5549927 .11099243 .44499208 .09899902 .33399964 .09899902 .25 .09899902 .17199707 .10998535 .050994874 .16499329-.06201172 .22499085-.18501282 .31098939-.25 .32099916-.25 .32699586-.25 .33099366-.24700928 .33099366-.2400055Z"/>
<path id="font_1_1" d="M.19198609 .052993776C.19198609 .08198547 .16799927 .10598755 .13899231 .10598755 .10998535 .10598755 .085998538 .08198547 .085998538 .052993776 .085998538 .023986817 .10998535 0 .13899231 0 .16799927 0 .19198609 .023986817 .19198609 .052993776Z"/>
<path id="font_1_2" d="M.20298767 .0009918213C.20298767 .066986087 .17799378 .10598755 .13899231 .10598755 .10598755 .10598755 .085998538 .08099365 .085998538 .052993776 .085998538 .025985718 .10598755 0 .13899231 0 .15098572 0 .1639862 .0039978029 .17399597 .0129852299 .1769867 .01499939 .17799378 .015991211 .1789856 .015991211 .17999268 .015991211 .18099976 .01499939 .18099976 .0009918213 .18099976-.07316589 .1459961-.13328552 .11299133-.16635132 .101989749-.17736817 .101989749-.17936707 .101989749-.18237305 .101989749-.18936157 .10699463-.19335938 .11199951-.19335938 .12298584-.19335938 .20298767-.116256717 .20298767 .0009918213Z"/>
<path id="font_3_2" d="M.2889862 .25C.2889862 .32798768 .27799989 .44898988 .22299195 .56199648 .16299439 .68499758 .07699585 .75 .066986087 .75 .06098938 .75 .056991579 .74598696 .056991579 .73999026 .056991579 .7369995 .056991579 .73498538 .07598877 .71699526 .17399597 .6179962 .23098755 .45899964 .23098755 .25 .23098755 .07899475 .19400025-.09700012 .069992069-.2230072 .056991579-.23500061 .056991579-.23701477 .056991579-.2400055 .056991579-.2460022 .06098938-.25 .066986087-.25 .07699585-.25 .16699219-.18200684 .22599793-.055007936 .2769928 .054992677 .2889862 .16600037 .2889862 .25Z"/>
<path id="font_3_6" d="M.2899933 .35191346C.37199403 .37893678 .42999269 .4490509 .42999269 .52809146 .42999269 .6100464 .34199525 .6660156 .24598694 .6660156 .14498902 .6660156 .068984989 .60606387 .068984989 .53009036 .068984989 .49710084 .09098816 .47808839 .11999512 .47808839 .15098572 .47808839 .17098999 .50009158 .17098999 .5290985 .17098999 .57910159 .12399292 .57910159 .10899353 .57910159 .13999939 .62802127 .20599365 .64100649 .24198914 .64100649 .2829895 .64100649 .33799745 .6190338 .33799745 .5290985 .33799745 .51708987 .33599855 .45906068 .30999757 .4149933 .27999879 .36691285 .24598694 .36390687 .22099304 .36291505 .21299744 .36190797 .18899536 .35990907 .18199158 .35990907 .17399597 .35890199 .16699219 .35791017 .16699219 .3479004 .16699219 .33691407 .17399597 .33691407 .19099427 .33691407H.23498535C.31698609 .33691407 .35398866 .2686615 .35398866 .17037964 .35398866 .034469606 .2849884 .0055389406 .24099732 .0055389406 .19799805 .0055389406 .12298584 .022491456 .08799744 .08137512 .12298584 .07637024 .1539917 .09837341 .1539917 .1363678 .1539917 .17237854 .1269989 .19238281 .09799194 .19238281 .07398987 .19238281 .041992189 .17837525 .041992189 .1343689 .041992189 .043441774 .1349945-.022460938 .24398804-.022460938 .3659973-.022460938 .45700074 .06838989 .45700074 .17037964 .45700074 .252594 .3939972 .33088685 .2899933 .35191346Z"/>
<path id="font_3_8" d="M.44898988 .20022583C.44898988 .3193512 .36698915 .41944886 .25898744 .41944886 .21099854 .41944886 .16799927 .40345765 .13198853 .36842347V.5637665C.1519928 .5577698 .18499756 .55078127 .21699524 .55078127 .33999635 .55078127 .4099884 .6417694 .4099884 .6547699 .4099884 .6607666 .40699769 .6657715 .3999939 .6657715 .39898683 .6657715 .39698792 .6657715 .3919983 .66278079 .37199403 .6537781 .32299806 .6337738 .2559967 .6337738 .21598816 .6337738 .16999817 .6407776 .12298584 .6617737 .114990238 .66477969 .11299133 .66477969 .11099243 .66477969 .100997928 .66477969 .100997928 .6567688 .100997928 .6407776V.34439088C.100997928 .32637025 .100997928 .31835938 .114990238 .31835938 .12199402 .31835938 .12399292 .32136537 .12799073 .32736207 .13899231 .3433838 .17599488 .39746095 .25698854 .39746095 .30899049 .39746095 .33399964 .35139466 .34199525 .33337403 .35798646 .29632569 .3600006 .25727845 .3600006 .20722962 .3600006 .17222595 .3600006 .11222839 .33599855 .07035828 .31199647 .031463624 .2749939 .0055389406 .22898865 .0055389406 .1559906 .0055389406 .09899902 .058380128 .08198547 .11723328 .084991458 .1162262 .08799744 .115234378 .09899902 .115234378 .13198853 .115234378 .14898682 .14022827 .14898682 .16423035 .14898682 .18823242 .13198853 .21322632 .09899902 .21322632 .084991458 .21322632 .049987794 .20622254 .049987794 .16023255 .049987794 .07434082 .11898804-.022460938 .23098755-.022460938 .34700013-.022460938 .44898988 .073349 .44898988 .20022583Z"/>
<path id="font_3_10" d="M.47599793 .609375C.4850006 .6213684 .4850006 .62338259 .4850006 .64437869H.24198914C.11999512 .64437869 .117996219 .65737918 .11399841 .67637637H.08898926L.055999757 .4702301H.08099365C.083999637 .48625184 .09298706 .5493469 .10598755 .56137087 .11299133 .5673828 .19099427 .5673828 .20399475 .5673828H.41099549C.3999939 .5513611 .32099916 .4421997 .29899598 .40914918 .20899964 .27394105 .17599488 .1347351 .17599488 .032577516 .17599488 .022567749 .17599488-.022460938 .22200012-.022460938 .2679901-.022460938 .2679901 .022567749 .2679901 .032577516V.08366394C.2679901 .13873291 .2709961 .19381714 .2789917 .24790955 .2829895 .27093507 .29699708 .35707093 .34098817 .41915895L.47599793 .609375Z"/>
</defs>
<path transform="matrix(1.00002,0,0,-1.00002,256.73786,192.15459)" stroke-width=".3985" stroke-linecap="butt" stroke-miterlimit="10" stroke-linejoin="miter" fill="none" stroke="#00aeef" d="M-255.12387-85.04128H85.04128M-255.12387-68.03302H85.04128M-255.12387-51.02477H85.04128M-255.12387-34.0165H85.04128M-255.12387-17.00824H85.04128M-255.12387 0H85.04128M-255.12387 17.00824H85.04128M-255.12387 34.0165H85.04128M-255.12387 51.02477H85.04128M-255.12387 68.03302H85.04128M-255.12387 85.04128H85.04128M-255.12387 102.04953H85.04128M-255.12387 119.0578H85.04128M-255.12387 136.06606H85.04128M-255.12387 153.07433H85.04128M-255.12387 170.0766H85.04128M-255.12387-85.04128V170.08257M-238.1156-85.04128V170.08257M-221.10736-85.04128V170.08257M-204.09909-85.04128V170.08257M-187.09084-85.04128V170.08257M-170.08257-85.04128V170.08257M-153.07433-85.04128V170.08257M-136.06606-85.04128V170.08257M-119.0578-85.04128V170.08257M-102.04953-85.04128V170.08257M-85.04128-85.04128V170.08257M-68.03302-85.04128V170.08257M-51.02477-85.04128V170.08257M-34.0165-85.04128V170.08257M-17.00824-85.04128V170.08257M0-85.04128V170.08257M17.00824-85.04128V170.08257M34.0165-85.04128V170.08257M51.02477-85.04128V170.08257M68.03302-85.04128V170.08257M85.0353-85.04128V170.08257M85.04128 170.08257"/>
<path transform="matrix(1.00002,0,0,-1.00002,256.73786,192.15459)" stroke-width=".79701" stroke-linecap="butt" stroke-miterlimit="10" stroke-linejoin="miter" fill="none" stroke="#000000" d="M-255.12387 0H93.81172"/>
<path transform="matrix(1.00002,0,0,-1.00002,350.55146,192.15459)" d="M1.0361 0C-.25902 .25902-1.55415 .77707-3.1083 1.68365-1.55415 .51805-1.55415-.51805-3.1083-1.68365-1.55415-.77707-.25902-.25902 1.0361 0Z"/>
<path transform="matrix(1.00002,0,0,-1.00002,350.55146,192.15459)" stroke-width=".79701" stroke-linecap="butt" stroke-linejoin="round" fill="none" stroke="#000000" d="M1.0361 0C-.25902 .25902-1.55415 .77707-3.1083 1.68365-1.55415 .51805-1.55415-.51805-3.1083-1.68365-1.55415-.77707-.25902-.25902 1.0361 0Z"/>
<use data-text="x" xlink:href="#font_1_3" transform="matrix(9.962799,0,0,-9.962799,355.70484,194.29962)"/>
<path transform="matrix(1.00002,0,0,-1.00002,256.73786,192.15459)" stroke-width=".79701" stroke-linecap="butt" stroke-miterlimit="10" stroke-linejoin="miter" fill="none" stroke="#000000" d="M0-85.04128V178.85301"/>
<path transform="matrix(0,-1.00002,-1.00002,-0,256.73786,13.297989)" d="M1.0361 0C-.25902 .25902-1.55415 .77707-3.1083 1.68365-1.55415 .51805-1.55415-.51805-3.1083-1.68365-1.55415-.77707-.25902-.25902 1.0361 0Z"/>
<path transform="matrix(0,-1.00002,-1.00002,-0,256.73786,13.297989)" stroke-width=".79701" stroke-linecap="butt" stroke-linejoin="round" fill="none" stroke="#000000" d="M1.0361 0C-.25902 .25902-1.55415 .77707-3.1083 1.68365-1.55415 .51805-1.55415-.51805-3.1083-1.68365-1.55415-.77707-.25902-.25902 1.0361 0Z"/>
<use data-text="y" xlink:href="#font_1_4" transform="matrix(9.962799,0,0,-9.962799,254.11679,6.2068636)"/>
<path transform="matrix(1.00002,0,0,-1.00002,256.73786,192.15459)" stroke-width=".3985" stroke-linecap="butt" stroke-miterlimit="10" stroke-linejoin="miter" fill="none" stroke="#000000" d="M-238.1156 1.70091V-1.70065"/>
<path transform="matrix(1.00002,0,0,-1.00002,256.73786,192.15459)" d="M-247.9677-15.12823H-228.26349V-5.885H-247.9677Z" fill="#ffffff"/>
<use data-text="&#x2212;" xlink:href="#font_2_1" transform="matrix(9.962799,0,0,-9.962799,9.761932,205.45685)"/>
<use data-text="1" xlink:href="#font_3_4" transform="matrix(9.962799,0,0,-9.962799,17.511078,205.45685)"/>
<use data-text="4" xlink:href="#font_3_7" transform="matrix(9.962799,0,0,-9.962799,22.492493,205.45685)"/>
<path transform="matrix(1.00002,0,0,-1.00002,256.73786,192.15459)" stroke-width=".3985" stroke-linecap="butt" stroke-miterlimit="10" stroke-linejoin="miter" fill="none" stroke="#000000" d="M-204.09909 1.70091V-1.70065"/>
<path transform="matrix(1.00002,0,0,-1.00002,256.73786,192.15459)" d="M-213.95119-15.12823H-194.24698V-5.885H-213.95119Z" fill="#ffffff"/>
<use data-text="&#x2212;" xlink:href="#font_2_1" transform="matrix(9.962799,0,0,-9.962799,43.778596,205.45685)"/>
<use data-text="1" xlink:href="#font_3_4" transform="matrix(9.962799,0,0,-9.962799,51.52774,205.45685)"/>
<use data-text="2" xlink:href="#font_3_5" transform="matrix(9.962799,0,0,-9.962799,56.509157,205.45685)"/>
<path transform="matrix(1.00002,0,0,-1.00002,256.73786,192.15459)" stroke-width=".3985" stroke-linecap="butt" stroke-miterlimit="10" stroke-linejoin="miter" fill="none" stroke="#000000" d="M-170.08257 1.70091V-1.70065"/>
<path transform="matrix(1.00002,0,0,-1.00002,256.73786,192.15459)" d="M-179.93466-15.12823H-160.23047V-5.885H-179.93466Z" fill="#ffffff"/>
<use data-text="&#x2212;" xlink:href="#font_2_1" transform="matrix(9.962799,0,0,-9.962799,77.796268,205.45685)"/>
<use data-text="1" xlink:href="#font_3_4" transform="matrix(9.962799,0,0,-9.962799,85.54541,205.45685)"/>
<use data-text="0" xlink:href="#font_3_3" transform="matrix(9.962799,0,0,-9.962799,90.526828,205.45685)"/>
<path transform="matrix(1.00002,0,0,-1.00002,256.73786,192.15459)" stroke-width=".3985" stroke-linecap="butt" stroke-miterlimit="10" stroke-linejoin="miter" fill="none" stroke="#000000" d="M-136.06606 1.70091V-1.70065"/>
<path transform="matrix(1.00002,0,0,-1.00002,256.73786,192.15459)" d="M-143.42745-15.12823H-128.70467V-5.885H-143.42745Z" fill="#ffffff"/>
<use data-text="&#x2212;" xlink:href="#font_2_1" transform="matrix(9.962799,0,0,-9.962799,114.304,205.45685)"/>
<use data-text="8" xlink:href="#font_3_11" transform="matrix(9.962799,0,0,-9.962799,122.05315,205.45685)"/>
<path transform="matrix(1.00002,0,0,-1.00002,256.73786,192.15459)" stroke-width=".3985" stroke-linecap="butt" stroke-miterlimit="10" stroke-linejoin="miter" fill="none" stroke="#000000" d="M-102.04953 1.70091V-1.70065"/>
<path transform="matrix(1.00002,0,0,-1.00002,256.73786,192.15459)" d="M-109.41092-15.12823H-94.68814V-5.885H-109.41092Z" fill="#ffffff"/>
<use data-text="&#x2212;" xlink:href="#font_2_1" transform="matrix(9.962799,0,0,-9.962799,148.32068,205.45685)"/>
<use data-text="6" xlink:href="#font_3_9" transform="matrix(9.962799,0,0,-9.962799,156.06983,205.45685)"/>
<path transform="matrix(1.00002,0,0,-1.00002,256.73786,192.15459)" stroke-width=".3985" stroke-linecap="butt" stroke-miterlimit="10" stroke-linejoin="miter" fill="none" stroke="#000000" d="M-68.03302 1.70091V-1.70065"/>
<path transform="matrix(1.00002,0,0,-1.00002,256.73786,192.15459)" d="M-75.39442-15.12823H-60.67164V-5.885H-75.39442Z" fill="#ffffff"/>
<use data-text="&#x2212;" xlink:href="#font_2_1" transform="matrix(9.962799,0,0,-9.962799,182.33837,205.45685)"/>
<use data-text="4" xlink:href="#font_3_7" transform="matrix(9.962799,0,0,-9.962799,190.08751,205.45685)"/>
<path transform="matrix(1.00002,0,0,-1.00002,256.73786,192.15459)" stroke-width=".3985" stroke-linecap="butt" stroke-miterlimit="10" stroke-linejoin="miter" fill="none" stroke="#000000" d="M-34.0165 1.70091V-1.70065"/>
<path transform="matrix(1.00002,0,0,-1.00002,256.73786,192.15459)" d="M-41.3779-15.12823H-26.655119V-5.885H-41.3779Z" fill="#ffffff"/>
<use data-text="&#x2212;" xlink:href="#font_2_1" transform="matrix(9.962799,0,0,-9.962799,216.35504,205.45685)"/>
<use data-text="2" xlink:href="#font_3_5" transform="matrix(9.962799,0,0,-9.962799,224.10419,205.45685)"/>
<path transform="matrix(1.00002,0,0,-1.00002,256.73786,192.15459)" stroke-width=".3985" stroke-linecap="butt" stroke-miterlimit="10" stroke-linejoin="miter" fill="none" stroke="#000000" d="M34.0165 1.70091V-1.70065"/>
<path transform="matrix(1.00002,0,0,-1.00002,256.73786,192.15459)" d="M30.52953-14.298H37.50347V-5.8850204H30.52953Z" fill="#ffffff"/>
<use data-text="2" xlink:href="#font_3_5" transform="matrix(9.962799,0,0,-9.962799,288.2645,205.45685)"/>
<path transform="matrix(1.00002,0,0,-1.00002,256.73786,192.15459)" stroke-width=".3985" stroke-linecap="butt" stroke-miterlimit="10" stroke-linejoin="miter" fill="none" stroke="#000000" d="M68.03302 1.70091V-1.70065"/>
<path transform="matrix(1.00002,0,0,-1.00002,256.73786,192.15459)" d="M64.54605-14.298H71.51999V-5.8850204H64.54605Z" fill="#ffffff"/>
<use data-text="4" xlink:href="#font_3_7" transform="matrix(9.962799,0,0,-9.962799,322.28117,205.45685)"/>
<path transform="matrix(1.00002,0,0,-1.00002,256.73786,192.15459)" stroke-width=".3985" stroke-linecap="butt" stroke-miterlimit="10" stroke-linejoin="miter" fill="none" stroke="#000000" d="M1.70091-68.03302H-1.70065"/>
<path transform="matrix(1.00002,0,0,-1.00002,256.73786,192.15459)" d="M-20.60779-72.65465H-5.88501V-63.41142H-20.60779Z" fill="#ffffff"/>
<use data-text="&#x2212;" xlink:href="#font_2_1" transform="matrix(9.962799,0,0,-9.962799,237.12546,262.984)"/>
<use data-text="4" xlink:href="#font_3_7" transform="matrix(9.962799,0,0,-9.962799,244.8746,262.984)"/>
<path transform="matrix(1.00002,0,0,-1.00002,256.73786,192.15459)" stroke-width=".3985" stroke-linecap="butt" stroke-miterlimit="10" stroke-linejoin="miter" fill="none" stroke="#000000" d="M1.70091-34.0165H-1.70065"/>
<path transform="matrix(1.00002,0,0,-1.00002,256.73786,192.15459)" d="M-20.60779-38.63812H-5.88501V-29.39489H-20.60779Z" fill="#ffffff"/>
<use data-text="&#x2212;" xlink:href="#font_2_1" transform="matrix(9.962799,0,0,-9.962799,237.12546,228.96732)"/>
<use data-text="2" xlink:href="#font_3_5" transform="matrix(9.962799,0,0,-9.962799,244.8746,228.96732)"/>
<path transform="matrix(1.00002,0,0,-1.00002,256.73786,192.15459)" stroke-width=".3985" stroke-linecap="butt" stroke-miterlimit="10" stroke-linejoin="miter" fill="none" stroke="#000000" d="M1.70091 34.0165H-1.70065"/>
<path transform="matrix(1.00002,0,0,-1.00002,256.73786,192.15459)" d="M-12.85895 29.81001H-5.88501V38.222993H-12.85895Z" fill="#ffffff"/>
<use data-text="2" xlink:href="#font_3_5" transform="matrix(9.962799,0,0,-9.962799,244.87462,161.34798)"/>
<path transform="matrix(1.00002,0,0,-1.00002,256.73786,192.15459)" stroke-width=".3985" stroke-linecap="butt" stroke-miterlimit="10" stroke-linejoin="miter" fill="none" stroke="#000000" d="M1.70091 68.03302H-1.70065"/>
<path transform="matrix(1.00002,0,0,-1.00002,256.73786,192.15459)" d="M-12.85895 63.82654H-5.88501V72.239528H-12.85895Z" fill="#ffffff"/>
<use data-text="4" xlink:href="#font_3_7" transform="matrix(9.962799,0,0,-9.962799,244.87462,127.33029)"/>
<path transform="matrix(1.00002,0,0,-1.00002,256.73786,192.15459)" stroke-width=".3985" stroke-linecap="butt" stroke-miterlimit="10" stroke-linejoin="miter" fill="none" stroke="#000000" d="M1.70091 102.04953H-1.70065"/>
<path transform="matrix(1.00002,0,0,-1.00002,256.73786,192.15459)" d="M-12.85895 97.84305H-5.88501V106.25603H-12.85895Z" fill="#ffffff"/>
<use data-text="6" xlink:href="#font_3_9" transform="matrix(9.962799,0,0,-9.962799,244.87462,93.313617)"/>
<path transform="matrix(1.00002,0,0,-1.00002,256.73786,192.15459)" stroke-width=".3985" stroke-linecap="butt" stroke-miterlimit="10" stroke-linejoin="miter" fill="none" stroke="#000000" d="M1.70091 136.06606H-1.70065"/>
<path transform="matrix(1.00002,0,0,-1.00002,256.73786,192.15459)" d="M-12.85895 131.85958H-5.88501V140.27256H-12.85895Z" fill="#ffffff"/>
<use data-text="8" xlink:href="#font_3_11" transform="matrix(9.962799,0,0,-9.962799,244.87462,59.29593)"/>
<path transform="matrix(1.00002,0,0,-1.00002,256.73786,192.15459)" stroke-width=".79701" stroke-linecap="butt" stroke-miterlimit="10" stroke-linejoin="miter" fill="none" stroke="#ff0000" d="M-248.30663-84.18001C85.04128 165.8305 85.04128 165.8305 83.89363 164.96974"/>
<path transform="matrix(-.799986,.60000208,.60000208,.799986,8.426254,276.33628)" d="M1.0361 0C-.25902 .25902-1.55415 .77707-3.1083 1.68365-1.55415 .51805-1.55415-.51805-3.1083-1.68365-1.55415-.77707-.25902-.25902 1.0361 0Z" fill="#ff0000"/>
<path transform="matrix(-.799986,.60000208,.60000208,.799986,8.426254,276.33628)" stroke-width=".79701" stroke-linecap="butt" stroke-linejoin="round" fill="none" stroke="#ff0000" d="M1.0361 0C-.25902 .25902-1.55415 .77707-3.1083 1.68365-1.55415 .51805-1.55415-.51805-3.1083-1.68365-1.55415-.77707-.25902-.25902 1.0361 0Z"/>
<path transform="matrix(.799986,-.60000208,-.60000208,-.799986,340.63319,27.181534)" d="M1.0361 0C-.25902 .25902-1.55415 .77707-3.1083 1.68365-1.55415 .51805-1.55415-.51805-3.1083-1.68365-1.55415-.77707-.25902-.25902 1.0361 0Z" fill="#ff0000"/>
<path transform="matrix(.799986,-.60000208,-.60000208,-.799986,340.63319,27.181534)" stroke-width=".79701" stroke-linecap="butt" stroke-linejoin="round" fill="none" stroke="#ff0000" d="M1.0361 0C-.25902 .25902-1.55415 .77707-3.1083 1.68365-1.55415 .51805-1.55415-.51805-3.1083-1.68365-1.55415-.77707-.25902-.25902 1.0361 0Z"/>
<path transform="matrix(1.00002,0,0,-1.00002,256.73786,192.15459)" d="M-24.66217 81.63968C-24.66217 83.04863-25.80435 84.1908-27.2133 84.1908-28.62225 84.1908-29.76442 83.04863-29.76442 81.63968-29.76442 80.23073-28.62225 79.08856-27.2133 79.08856-25.80435 79.08856-24.66217 80.23073-24.66217 81.63968ZM-27.2133 81.63968" fill="#ff0000"/>
<path transform="matrix(1.00002,0,0,-1.00002,256.73786,192.15459)" stroke-width=".3985" stroke-linecap="butt" stroke-miterlimit="10" stroke-linejoin="miter" fill="none" stroke="#ff0000" d="M-24.66217 81.63968C-24.66217 83.04863-25.80435 84.1908-27.2133 84.1908-28.62225 84.1908-29.76442 83.04863-29.76442 81.63968-29.76442 80.23073-28.62225 79.08856-27.2133 79.08856-25.80435 79.08856-24.66217 80.23073-24.66217 81.63968ZM-27.2133 81.63968"/>
<path transform="matrix(1.00002,0,0,-1.00002,256.73786,192.15459)" d="M-74.79112 85.82404H-27.412552V97.779369H-74.79112Z" fill="#ffffff"/>
<use data-text="(" xlink:href="#font_3_1" transform="matrix(9.962799,0,0,-9.962799,182.94138,102.841808)" fill="#ff0000"/>
<use data-text="&#x2212;" xlink:href="#font_2_1" transform="matrix(9.962799,0,0,-9.962799,186.81647,102.841808)" fill="#ff0000"/>
<use data-text="1" xlink:href="#font_3_4" transform="matrix(9.962799,0,0,-9.962799,194.5646,102.841808)" fill="#ff0000"/>
<use data-text="." xlink:href="#font_1_1" transform="matrix(9.962799,0,0,-9.962799,199.54669,102.841808)" fill="#ff0000"/>
<use data-text="6" xlink:href="#font_3_9" transform="matrix(9.962799,0,0,-9.962799,202.31375,102.841808)" fill="#ff0000"/>
<use data-text="," xlink:href="#font_1_2" transform="matrix(9.962799,0,0,-9.962799,207.29483,102.841808)" fill="#ff0000"/>
<use data-text="4" xlink:href="#font_3_7" transform="matrix(9.962799,0,0,-9.962799,211.72293,102.841808)" fill="#ff0000"/>
<use data-text="." xlink:href="#font_1_1" transform="matrix(9.962799,0,0,-9.962799,216.70502,102.841808)" fill="#ff0000"/>
<use data-text="8" xlink:href="#font_3_11" transform="matrix(9.962799,0,0,-9.962799,219.47208,102.841808)" fill="#ff0000"/>
<use data-text=")" xlink:href="#font_3_2" transform="matrix(9.962799,0,0,-9.962799,224.45349,102.841808)" fill="#ff0000"/>
<path transform="matrix(1.00002,0,0,-1.00002,256.73786,192.15459)" d="M-218.55623-68.03302C-218.55623-66.62407-219.69841-65.4819-221.10736-65.4819-222.51631-65.4819-223.65848-66.62407-223.65848-68.03302-223.65848-69.44197-222.51631-70.58415-221.10736-70.58415-219.69841-70.58415-218.55623-69.44197-218.55623-68.03302ZM-221.10736-68.03302" fill="#ff0000"/>
<path transform="matrix(1.00002,0,0,-1.00002,256.73786,192.15459)" stroke-width=".3985" stroke-linecap="butt" stroke-miterlimit="10" stroke-linejoin="miter" fill="none" stroke="#ff0000" d="M-218.55623-68.03302C-218.55623-66.62407-219.69841-65.4819-221.10736-65.4819-222.51631-65.4819-223.65848-66.62407-223.65848-68.03302-223.65848-69.44197-222.51631-70.58415-221.10736-70.58415-219.69841-70.58415-218.55623-69.44197-218.55623-68.03302ZM-221.10736-68.03302"/>
<path transform="matrix(1.00002,0,0,-1.00002,256.73786,192.15459)" d="M-214.93044-74.01068H-170.31929V-62.05536H-214.93044Z" fill="#ffffff"/>
<use data-text="(" xlink:href="#font_3_1" transform="matrix(9.962799,0,0,-9.962799,42.79956,262.68)" fill="#ff0000"/>
<use data-text="&#x2212;" xlink:href="#font_2_1" transform="matrix(9.962799,0,0,-9.962799,46.674654,262.68)" fill="#ff0000"/>
<use data-text="1" xlink:href="#font_3_4" transform="matrix(9.962799,0,0,-9.962799,54.42279,262.68)" fill="#ff0000"/>
<use data-text="3" xlink:href="#font_3_6" transform="matrix(9.962799,0,0,-9.962799,59.404176,262.68)" fill="#ff0000"/>
<use data-text="," xlink:href="#font_1_2" transform="matrix(9.962799,0,0,-9.962799,64.38599,262.68)" fill="#ff0000"/>
<use data-text="&#x2212;" xlink:href="#font_2_1" transform="matrix(9.962799,0,0,-9.962799,68.81409,262.68)" fill="#ff0000"/>
<use data-text="4" xlink:href="#font_3_7" transform="matrix(9.962799,0,0,-9.962799,76.56323,262.68)" fill="#ff0000"/>
<use data-text=")" xlink:href="#font_3_2" transform="matrix(9.962799,0,0,-9.962799,81.54465,262.68)" fill="#ff0000"/>
<path transform="matrix(1.00002,0,0,-1.00002,256.73786,192.15459)" d="M23.81143 119.0578C23.81143 120.46675 22.66927 121.60892 21.26031 121.60892 19.85136 121.60892 18.70918 120.46675 18.70918 119.0578 18.70918 117.64885 19.85136 116.50668 21.26031 116.50668 22.66927 116.50668 23.81143 117.64885 23.81143 119.0578ZM21.26031 119.0578" fill="#ff0000"/>
<path transform="matrix(1.00002,0,0,-1.00002,256.73786,192.15459)" stroke-width=".3985" stroke-linecap="butt" stroke-miterlimit="10" stroke-linejoin="miter" fill="none" stroke="#ff0000" d="M23.81143 119.0578C23.81143 120.46675 22.66927 121.60892 21.26031 121.60892 19.85136 121.60892 18.70918 120.46675 18.70918 119.0578 18.70918 117.64885 19.85136 116.50668 21.26031 116.50668 22.66927 116.50668 23.81143 117.64885 23.81143 119.0578ZM21.26031 119.0578"/>
<path transform="matrix(1.00002,0,0,-1.00002,256.73786,192.15459)" d="M2.82916 126.23099H39.69145V138.18631H2.82916Z" fill="#ffffff"/>
<use data-text="(" xlink:href="#font_3_1" transform="matrix(9.962799,0,0,-9.962799,260.56294,62.43399)" fill="#ff0000"/>
<use data-text="1" xlink:href="#font_3_4" transform="matrix(9.962799,0,0,-9.962799,264.4285,62.43399)" fill="#ff0000"/>
<use data-text="." xlink:href="#font_1_1" transform="matrix(9.962799,0,0,-9.962799,269.4191,62.43399)" fill="#ff0000"/>
<use data-text="2" xlink:href="#font_3_5" transform="matrix(9.962799,0,0,-9.962799,272.18617,62.43399)" fill="#ff0000"/>
<use data-text="5" xlink:href="#font_3_8" transform="matrix(9.962799,0,0,-9.962799,277.16755,62.43399)" fill="#ff0000"/>
<use data-text="," xlink:href="#font_1_2" transform="matrix(9.962799,0,0,-9.962799,282.14936,62.43399)" fill="#ff0000"/>
<use data-text="7" xlink:href="#font_3_10" transform="matrix(9.962799,0,0,-9.962799,286.57746,62.43399)" fill="#ff0000"/>
<use data-text=")" xlink:href="#font_3_2" transform="matrix(9.962799,0,0,-9.962799,291.55888,62.43399)" fill="#ff0000"/>
</svg>
