<svg xmlns="http://www.w3.org/2000/svg" xmlns:xlink="http://www.w3.org/1999/xlink" version="1.1" width="287" height="197" viewBox="0 0 287 197">
<defs>
<path id="font_1_1" d="M.68699648 .32714845C.70199587 .32714845 .72099307 .32714845 .72099307 .34713746 .72099307 .36714173 .70199587 .36714173 .6879883 .36714173H.08898926C.07499695 .36714173 .055999757 .36714173 .055999757 .34713746 .055999757 .32714845 .07499695 .32714845 .08999634 .32714845H.68699648M.6879883 .13284302C.70199587 .13284302 .72099307 .13284302 .72099307 .15284729 .72099307 .17285156 .70199587 .17285156 .68699648 .17285156H.08999634C.07499695 .17285156 .055999757 .17285156 .055999757 .15284729 .055999757 .13284302 .07499695 .13284302 .08898926 .13284302H.6879883Z"/>
<path id="font_2_2" d="M.28199769 .20405579C.2979889 .21907044 .33999635 .2520752 .35598756 .26608277 .41799928 .32312013 .47698976 .3781433 .47698976 .46917726 .47698976 .588089 .3769989 .66503909 .2519989 .66503909 .13198853 .66503909 .052993776 .57411196 .052993776 .48516847 .052993776 .4361725 .09199524 .4291687 .10598755 .4291687 .1269989 .4291687 .1579895 .4441681 .1579895 .48217774 .1579895 .5341797 .10798645 .5341797 .09599304 .5341797 .125 .6070709 .19198609 .6320343 .24099732 .6320343 .33399964 .6320343 .38198854 .55314639 .38198854 .46917726 .38198854 .36514283 .30899049 .28910829 .19099427 .16804505L.06498718 .037994386C.052993776 .026992798 .052993776 .024993897 .052993776 0H.44799806L.47698976 .17904663H.44599916C.44299317 .1590271 .43499757 .10900879 .4229889 .08999634 .4169922 .08198547 .34098817 .08198547 .32499696 .08198547H.14698792L.28199769 .20405579Z"/>
<path id="font_2_3" d="M.25299073 .33370973C.33198548 .33370973 .38198854 .27557374 .38198854 .17037964 .38198854 .045440675 .31098939 .008514404 .2579956 .008514404 .20298767 .008514404 .12799073 .0284729 .09298706 .08137512 .1289978 .08137512 .1539917 .10437012 .1539917 .13737488 .1539917 .16937256 .1309967 .19238281 .09899902 .19238281 .07199097 .19238281 .04399109 .17536927 .04399109 .13537598 .04399109 .04045105 .1459961-.021484375 .2599945-.021484375 .3929901-.021484375 .48599244 .070388797 .48599244 .17037964 .48599244 .25352479 .41999818 .32969667 .31799317 .3517456 .39698792 .37982179 .45599366 .4479828 .45599366 .52804568 .45599366 .6080475 .3659973 .66503909 .2619934 .66503909 .15499878 .66503909 .07398987 .6070404 .07398987 .53105166 .07398987 .49404908 .09899902 .4780426 .125 .4780426 .1559906 .4780426 .17599488 .5000458 .17599488 .52905276 .17599488 .56604006 .14399719 .5800476 .12199402 .5810547 .1639862 .6360321 .24099732 .6390381 .25898744 .6390381 .2849884 .6390381 .36099244 .6310272 .36099244 .52804568 .36099244 .45799256 .33198548 .41589356 .31799317 .39985658 .28799439 .36878968 .2649994 .36679078 .20399475 .3627777 .18499756 .36177064 .1769867 .36076356 .1769867 .3477478 .1769867 .33370973 .18598938 .33370973 .20298767 .33370973H.25299073Z"/>
<path id="font_2_5" d="M.33198548 .36080934C.3880005 .38783265 .45599366 .4378662 .45599366 .5159302 .45599366 .6110077 .35899354 .66503909 .2659912 .66503909 .1599884 .66503909 .07398987 .59199526 .07398987 .49790956 .07398987 .46089173 .08699036 .42686463 .11199951 .39782716 .1289978 .3768158 .1329956 .3748169 .19499207 .3357849 .070999149 .2807312 .04399109 .20767212 .04399109 .15162659 .04399109 .041534425 .15499878-.021484375 .2639923-.021484375 .3869934-.021484375 .48599244 .061553956 .48599244 .16764832 .48599244 .23069763 .45199586 .2727356 .43598939 .28974916 .4189911 .30575563 .41799928 .3067627 .33198548 .36080934M.1769867 .45487977C.147995 .4718933 .12399292 .5009155 .12399292 .5359497 .12399292 .598999 .19299317 .6390381 .2639923 .6390381 .34199525 .6390381 .4059906 .5859833 .4059906 .5159302 .4059906 .45788575 .36099244 .408844 .3019867 .37982179L.1769867 .45487977M.22599793 .31776429C.22999573 .31576539 .34399415 .24571228 .36099244 .23469544 .3769989 .22569275 .42900086 .19366455 .42900086 .13360596 .42900086 .056549074 .34799195 .008514404 .2659912 .008514404 .1769867 .008514404 .100997928 .06956482 .100997928 .15162659 .100997928 .22668457 .15699768 .28573609 .22599793 .31776429Z"/>
<path id="font_2_1" d="M.31399537 .63708499C.31399537 .664032 .31199647 .66503909 .2849884 .66503909 .24398804 .6251831 .19099427 .6013489 .09599304 .6013489V.5683594C.12298584 .5683594 .1769867 .5683594 .23498535 .5953522V.08203125C.23498535 .04499817 .23199463 .032989503 .13699341 .032989503H.101989749V0C.14299011 .0029907227 .22898865 .0029907227 .27398683 .0029907227 .31900025 .0029907227 .4059906 .0029907227 .44699098 0V.032989503H.4119873C.31698609 .032989503 .31399537 .04499817 .31399537 .08203125V.63708499Z"/>
<path id="font_2_4" d="M.3939972 .6468048C.3939972 .6667938 .3939972 .6748047 .37298585 .6748047 .3600006 .6748047 .35899354 .6737976 .34899903 .65979006L.02999878 .197052V.1640625H.31199647V.08100891C.31199647 .04399109 .30899049 .032989503 .23199463 .032989503H.20899964V0C.2939911 .0029907227 .29599 .0029907227 .35299684 .0029907227 .4099884 .0029907227 .4119873 .0029907227 .49699403 0V.032989503H.47399903C.39698792 .032989503 .3939972 .04399109 .3939972 .08100891V.1640625H.5V.197052H.3939972V.6468048M.31900025 .5658417V.197052H.06498718L.31900025 .5658417Z"/>
<path id="font_2_6" d="M.3919983 .29478456C.3919983 .050704957 .27598573 .008514404 .21798706 .008514404 .19699097 .008514404 .14498902 .011520386 .117996219 .04270935 .1619873 .046707155 .16499329 .079711917 .16499329 .08970642 .16499329 .1197052 .14199829 .13671875 .117996219 .13671875 .099990848 .13671875 .070999149 .12571717 .070999149 .08770752 .070999149 .019577027 .1269989-.021484375 .21899414-.021484375 .35598756-.021484375 .48599244 .114715579 .48599244 .3287964 .48599244 .58898928 .37098695 .66503909 .2679901 .66503909 .1499939 .66503909 .04399109 .5729828 .04399109 .44187928 .04399109 .31278993 .14099121 .21875 .2539978 .21875 .32499696 .21875 .36799623 .26374818 .3919983 .31478883V.29478456M.2579956 .24674988C.21199036 .24674988 .18299866 .26776124 .16099549 .30477906 .13798523 .34181214 .13798523 .3898468 .13798523 .44088746 .13798523 .4999237 .13798523 .54196169 .16499329 .58299258 .18998719 .61901858 .22200012 .6390381 .2689972 .6390381 .33599855 .6390381 .36499024 .5729828 .36799623 .5679779 .3889923 .51893618 .3899994 .44088746 .3899994 .42086793 .3899994 .34181214 .34700013 .24674988 .2579956 .24674988Z"/>
</defs>
<g>
<path transform="matrix(1.00002,0,0,-1.00006,143.34758,84.208087)" d="M-141.73404 36.85048V82.20511H-28.3468V36.85048ZM-28.3468 82.20511" fill="#8dd8f8" fill-opacity=".5"/>
<path transform="matrix(1.00002,0,0,-1.00006,143.34758,84.208087)" stroke-width=".3985" stroke-linecap="butt" stroke-miterlimit="10" stroke-linejoin="miter" fill="none" stroke="#8dd8f8" stroke-opacity=".5" d="M-141.73404 36.85048V82.20511H-28.3468V36.85048ZM-28.3468 82.20511"/>
</g>
<g>
<path transform="matrix(1.00002,0,0,-1.00006,143.34758,84.208087)" d="M28.3468 36.85048V82.20511H141.73404V36.85048ZM141.73404 82.20511" fill="#8dd8f8" fill-opacity=".5"/>
<path transform="matrix(1.00002,0,0,-1.00006,143.34758,84.208087)" stroke-width=".3985" stroke-linecap="butt" stroke-miterlimit="10" stroke-linejoin="miter" fill="none" stroke="#8dd8f8" stroke-opacity=".5" d="M28.3468 36.85048V82.20511H141.73404V36.85048ZM141.73404 82.20511"/>
</g>
<path transform="matrix(1.00002,0,0,-1.00006,143.34758,84.208087)" stroke-width=".79701" stroke-linecap="butt" stroke-miterlimit="10" stroke-linejoin="miter" fill="none" stroke="#000000" d="M-141.73404 14.17339V82.20555H-28.3468V14.17339ZM-28.3468 82.20555"/>
<path transform="matrix(1.00002,0,0,-1.00006,143.34758,84.208087)" stroke-width=".79701" stroke-linecap="butt" stroke-miterlimit="10" stroke-linejoin="miter" fill="none" stroke="#000000" d="M-141.73404 36.85048V59.52757H-28.3468V36.85048ZM-28.3468 59.52757"/>
<path transform="matrix(1.00002,0,0,-1.00006,143.34758,84.208087)" stroke-width=".79701" stroke-linecap="butt" stroke-miterlimit="10" stroke-linejoin="miter" fill="none" stroke="#000000" d="M28.3468 14.17339V82.20555H141.73404V14.17339ZM141.73404 82.20555"/>
<path transform="matrix(1.00002,0,0,-1.00006,143.34758,84.208087)" stroke-width=".79701" stroke-linecap="butt" stroke-miterlimit="10" stroke-linejoin="miter" fill="none" stroke="#000000" d="M28.3468 36.85048V59.52757H141.73404V36.85048ZM141.73404 59.52757"/>
<path transform="matrix(1.00002,0,0,-1.00006,143.34758,84.208087)" stroke-width=".79701" stroke-linecap="butt" stroke-miterlimit="10" stroke-linejoin="miter" fill="none" stroke="#000000" d="M56.69362 14.17339V82.20555H85.04042V14.17339ZM85.04042 82.20555"/>
<path transform="matrix(1.00002,0,0,-1.00006,143.34758,84.208087)" stroke-width=".79701" stroke-linecap="butt" stroke-miterlimit="10" stroke-linejoin="miter" fill="none" stroke="#000000" d="M113.38724 14.17339V82.20555"/>
<use data-text="=" xlink:href="#font_1_1" transform="matrix(9.962799,0,0,-9.963197,139.47351,86.036197)"/>
<use data-text="2" xlink:href="#font_2_2" transform="matrix(7.9702599,0,0,-7.9705779,56.18782,82.36098)"/>
<path transform="matrix(1.00002,0,0,-1.00006,-173.35677,18.84917)" stroke-width=".4782" stroke-linecap="butt" stroke-miterlimit="10" stroke-linejoin="miter" fill="none" stroke="#000000" d="M229.54-65.226H233.775"/>
<use data-text="3" xlink:href="#font_2_3" transform="matrix(7.9702599,0,0,-7.9705779,56.18782,91.19151)"/>
<use data-text="8" xlink:href="#font_2_5" transform="matrix(7.9702599,0,0,-7.9705779,226.27324,82.36098)"/>
<path transform="matrix(1.00002,0,0,-1.00006,-5.3894045,18.84917)" stroke-width=".4782" stroke-linecap="butt" stroke-miterlimit="10" stroke-linejoin="miter" fill="none" stroke="#000000" d="M229.54-65.226H238.009"/>
<use data-text="1" xlink:href="#font_2_1" transform="matrix(7.9702599,0,0,-7.9705779,224.15518,91.19151)"/>
<use data-text="2" xlink:href="#font_2_2" transform="matrix(7.9702599,0,0,-7.9705779,228.38739,91.19151)"/>
<g>
<path transform="matrix(1.00002,0,0,-1.00006,143.34758,84.208087)" d="M-141.73404-89.29227V-21.2601H-56.69362V-89.29227ZM-56.69362-21.2601" fill="#8dd8f8" fill-opacity=".5"/>
<path transform="matrix(1.00002,0,0,-1.00006,143.34758,84.208087)" stroke-width=".3985" stroke-linecap="butt" stroke-miterlimit="10" stroke-linejoin="miter" fill="none" stroke="#8dd8f8" stroke-opacity=".5" d="M-141.73404-89.29227V-21.2601H-56.69362V-89.29227ZM-56.69362-21.2601"/>
</g>
<g>
<path transform="matrix(1.00002,0,0,-1.00006,143.34758,84.208087)" d="M28.3468-89.29227V-21.2601H113.38724V-89.29227ZM113.38724-21.2601" fill="#8dd8f8" fill-opacity=".5"/>
<path transform="matrix(1.00002,0,0,-1.00006,143.34758,84.208087)" stroke-width=".3985" stroke-linecap="butt" stroke-miterlimit="10" stroke-linejoin="miter" fill="none" stroke="#8dd8f8" stroke-opacity=".5" d="M28.3468-89.29227V-21.2601H113.38724V-89.29227ZM113.38724-21.2601"/>
</g>
<path transform="matrix(1.00002,0,0,-1.00006,143.34758,84.208087)" stroke-width=".79701" stroke-linecap="butt" stroke-miterlimit="10" stroke-linejoin="miter" fill="none" stroke="#000000" d="M-141.73404-89.29227V-21.2601H-28.3468V-89.29227ZM-28.3468-21.2601"/>
<path transform="matrix(1.00002,0,0,-1.00006,143.34758,84.208087)" stroke-width=".79701" stroke-linecap="butt" stroke-miterlimit="10" stroke-linejoin="miter" fill="none" stroke="#000000" d="M-113.38724-89.29227V-21.2601H-85.04042V-89.29227ZM-85.04042-21.2601"/>
<path transform="matrix(1.00002,0,0,-1.00006,143.34758,84.208087)" stroke-width=".79701" stroke-linecap="butt" stroke-miterlimit="10" stroke-linejoin="miter" fill="none" stroke="#000000" d="M-56.69362-89.29227V-21.2601"/>
<path transform="matrix(1.00002,0,0,-1.00006,143.34758,84.208087)" stroke-width=".79701" stroke-linecap="butt" stroke-miterlimit="10" stroke-linejoin="miter" fill="none" stroke="#000000" d="M28.3468-89.29227V-21.2601H141.73404V-89.29227ZM141.73404-21.2601"/>
<path transform="matrix(1.00002,0,0,-1.00006,143.34758,84.208087)" stroke-width=".79701" stroke-linecap="butt" stroke-miterlimit="10" stroke-linejoin="miter" fill="none" stroke="#000000" d="M28.3468-66.61517V-43.93808H141.73404V-66.61517ZM141.73404-43.93808"/>
<path transform="matrix(1.00002,0,0,-1.00006,143.34758,84.208087)" stroke-width=".79701" stroke-linecap="butt" stroke-miterlimit="10" stroke-linejoin="miter" fill="none" stroke="#000000" d="M56.69362-89.29227V-21.2601H85.04042V-89.29227ZM85.04042-21.2601"/>
<path transform="matrix(1.00002,0,0,-1.00006,143.34758,84.208087)" stroke-width=".79701" stroke-linecap="butt" stroke-miterlimit="10" stroke-linejoin="miter" fill="none" stroke="#000000" d="M113.38724-89.29227V-21.2601"/>
<use data-text="=" xlink:href="#font_1_1" transform="matrix(9.962799,0,0,-9.963197,139.47351,190.92449)"/>
<use data-text="3" xlink:href="#font_2_3" transform="matrix(7.9702599,0,0,-7.9705779,56.18782,187.25026)"/>
<path transform="matrix(1.00002,0,0,-1.00006,-173.35677,123.73846)" stroke-width=".4782" stroke-linecap="butt" stroke-miterlimit="10" stroke-linejoin="miter" fill="none" stroke="#000000" d="M229.54-65.226H233.775"/>
<use data-text="4" xlink:href="#font_2_4" transform="matrix(7.9702599,0,0,-7.9705779,56.18782,196.0808)"/>
<use data-text="9" xlink:href="#font_2_6" transform="matrix(7.9702599,0,0,-7.9705779,226.27324,187.25026)"/>
<path transform="matrix(1.00002,0,0,-1.00006,-5.3894045,123.73846)" stroke-width=".4782" stroke-linecap="butt" stroke-miterlimit="10" stroke-linejoin="miter" fill="none" stroke="#000000" d="M229.54-65.226H238.009"/>
<use data-text="1" xlink:href="#font_2_1" transform="matrix(7.9702599,0,0,-7.9705779,224.15518,196.0808)"/>
<use data-text="2" xlink:href="#font_2_2" transform="matrix(7.9702599,0,0,-7.9705779,228.38739,196.0808)"/>
</svg>
