<svg xmlns="http://www.w3.org/2000/svg" xmlns:xlink="http://www.w3.org/1999/xlink" version="1.1" width="119" height="122" viewBox="0 0 119 122">
<defs>
<path id="font_1_3" d="M.33399964 .30233766C.33999635 .32835389 .36299134 .42037965 .43299867 .42037965 .43798829 .42037965 .46199037 .42037965 .48298646 .40734864 .45498658 .402359 .43499757 .37734986 .43499757 .35334779 .43499757 .33735658 .44599916 .31835938 .47299195 .31835938 .49499513 .31835938 .5269928 .3363495 .5269928 .37635804 .5269928 .42837525 .46798707 .4423828 .43399049 .4423828 .37599183 .4423828 .34098817 .38935853 .32899476 .36634828 .3039856 .43237306 .25 .4423828 .22099304 .4423828 .116989139 .4423828 .05999756 .3133545 .05999756 .28834535 .05999756 .27833558 .069992069 .27833558 .07199097 .27833558 .07998657 .27833558 .08299255 .28033448 .084991458 .28933717 .11898804 .39535523 .18499756 .42037965 .21899414 .42037965 .23799134 .42037965 .272995 .4113617 .272995 .35334779 .272995 .32235719 .2559967 .25532533 .21899414 .11528015 .20298767 .053268434 .16799927 .011245728 .12399292 .011245728 .117996219 .011245728 .09498596 .011245728 .07398987 .024276734 .09899902 .029266358 .12098694 .05027771 .12098694 .07827759 .12098694 .105270389 .09899902 .11328125 .083999637 .11328125 .053985597 .11328125 .0289917 .08728027 .0289917 .055267335 .0289917 .009246826 .07899475-.0107421879 .12298584-.0107421879 .18899536-.0107421879 .22499085 .059280397 .22799683 .0652771 .23999024 .028274537 .27598573-.0107421879 .33599855-.0107421879 .43899537-.0107421879 .49598695 .118270877 .49598695 .14328003 .49598695 .1532898 .4869995 .1532898 .48399354 .1532898 .47499085 .1532898 .47299195 .14929199 .47099305 .14228821 .43798829 .03527832 .36999513 .011245728 .33799745 .011245728 .29899598 .011245728 .2829895 .043273927 .2829895 .07727051 .2829895 .09927368 .2889862 .121276859 .2999878 .16529846L.33399964 .30233766Z"/>
<path id="font_1_4" d="M.48599244 .38136292C.48999024 .39537049 .48999024 .39736939 .48999024 .40437318 .48999024 .42237855 .47599793 .43138124 .46099855 .43138124 .45098878 .43138124 .43499757 .42536927 .42599488 .41036988 .42399598 .405365 .41600038 .37435914 .4119873 .35635377 .40499879 .33035279 .397995 .30334474 .3919983 .27633668L.34700013 .09628296C.34298707 .08126831 .2999878 .011245728 .23399353 .011245728 .18299866 .011245728 .17199707 .055267335 .17199707 .0922699 .17199707 .1382904 .18899536 .20030213 .22299195 .28833009 .23899842 .3293457 .24299622 .3403473 .24299622 .36035157 .24299622 .405365 .21099854 .4423828 .16099549 .4423828 .06599426 .4423828 .0289917 .29733277 .0289917 .28833009 .0289917 .27833558 .038986207 .27833558 .040985109 .27833558 .050994874 .27833558 .051986696 .28033448 .056991579 .29634095 .083999637 .3903656 .12399292 .42037965 .1579895 .42037965 .1659851 .42037965 .18299866 .42037965 .18299866 .3883667 .18299866 .36335755 .17298889 .3373413 .1659851 .31834413 .12599182 .21231079 .10798645 .1552887 .10798645 .10827637 .10798645 .019256592 .17098999-.0107421879 .22999573-.0107421879 .2689972-.0107421879 .30299378 .0062561037 .33099366 .03425598 .31799317-.017745972 .30599977-.06674194 .2659912-.11973572 .23999024-.15385437 .20199585-.18309021 .1559906-.18309021 .14199829-.18309021 .09700012-.18005371 .07998657-.14074707 .09599304-.14074707 .10899353-.14074707 .12298584-.1287384 .1329956-.11973572 .14299011-.10673523 .14299011-.08773804 .14299011-.056747438 .115997318-.052734376 .10598755-.052734376 .08299255-.052734376 .049987794-.068740848 .049987794-.11773682 .049987794-.16796875 .09399414-.20507813 .1559906-.20507813 .25898744-.20507813 .3619995-.11373901 .3899994-.00074768069L.48599244 .38136292Z"/>
<path id="font_2_1" d="M.6589966 .23046875C.6759949 .23046875 .69400027 .23046875 .69400027 .25045777 .69400027 .27046205 .6759949 .27046205 .6589966 .27046205H.117996219C.100997928 .27046205 .08299255 .27046205 .08299255 .25045777 .08299255 .23046875 .100997928 .23046875 .117996219 .23046875H.6589966Z"/>
<path id="font_3_2" d="M.2939911 .16503906V.07800293C.2939911 .041992189 .2919922 .0309906 .21798706 .0309906H.19699097V0C.23799134 .0029907227 .2899933 .0029907227 .33198548 .0029907227 .37399293 .0029907227 .4269867 .0029907227 .46798707 0V.0309906H.44699098C.37298585 .0309906 .37098695 .041992189 .37098695 .07800293V.16503906H.47099305V.19602967H.37098695V.65075686C.37098695 .67074587 .37098695 .6767578 .35499574 .6767578 .34599305 .6767578 .34298707 .6767578 .33499146 .66474917L.027999878 .19602967V.16503906H.2939911M.2999878 .19602967H.055999757L.2999878 .5688019V.19602967Z"/>
<path id="font_3_1" d="M.1269989 .07699585 .23298645 .18003845C.3889923 .31811524 .44898988 .3721466 .44898988 .47216798 .44898988 .5860901 .35899354 .6660156 .23699951 .6660156 .12399292 .6660156 .049987794 .57411196 .049987794 .48516847 .049987794 .4291687 .099990848 .4291687 .102996829 .4291687 .11999512 .4291687 .15499878 .44117738 .15499878 .48217774 .15499878 .5081787 .13699341 .5341797 .101989749 .5341797 .09399414 .5341797 .09199524 .5341797 .08898926 .5331726 .11199951 .59806826 .1659851 .63500979 .22399903 .63500979 .31498719 .63500979 .35798646 .5541382 .35798646 .47216798 .35798646 .39215089 .30799867 .31311036 .25299073 .25108338L.06098938 .036987306C.049987794 .025985718 .049987794 .023986817 .049987794 0H.42099L.44898988 .17404175H.42399598C.4189911 .14402771 .4119873 .1000061 .4019928 .084991458 .394989 .07699585 .32899476 .07699585 .30699159 .07699585H.1269989Z"/>
<path id="font_3_3" d="M.16299439 .4569702C.116989139 .486969 .11299133 .52098086 .11299133 .5379791 .11299133 .598999 .17799378 .64100649 .24899292 .64100649 .32199098 .64100649 .38598634 .58898928 .38598634 .51698306 .38598634 .45996095 .34700013 .4119568 .2869873 .37695313L.16299439 .4569702M.30899049 .36193849C.3809967 .3989563 .42999269 .45095826 .42999269 .51698306 .42999269 .6090088 .34098817 .6660156 .25 .6660156 .1499939 .6660156 .068984989 .59199526 .068984989 .49897767 .068984989 .4809723 .070999149 .43595887 .11299133 .38894654 .12399292 .37695313 .16099549 .35194398 .18598938 .33494569 .12799073 .30592347 .041992189 .24984741 .041992189 .15072632 .041992189 .04458618 .14399719-.022460938 .24899292-.022460938 .3619995-.022460938 .45700074 .06060791 .45700074 .16773987 .45700074 .20379639 .44599916 .24885559 .4079895 .2909088 .3889923 .31193543 .37298585 .3219452 .30899049 .36193849M.20899964 .3199463 .33198548 .24183655C.3600006 .2228241 .40699769 .19277954 .40699769 .13169861 .40699769 .05760193 .33198548 .0055389406 .25 .0055389406 .1639862 .0055389406 .09199524 .067611698 .09199524 .15072632 .09199524 .20880127 .12399292 .27288819 .20899964 .3199463Z"/>
<path id="font_1_2" d="M.47099305 .3773346C.47200013 .3833313 .47399903 .38833619 .47399903 .39535523 .47399903 .41236878 .46199037 .42237855 .44499208 .42237855 .43499757 .42237855 .4079895 .41537477 .4039917 .3793335 .38598634 .41636659 .35099793 .4423828 .31098939 .4423828 .19699097 .4423828 .07299805 .30226136 .07299805 .15812683 .07299805 .059020997 .13398743 0 .20599365 0 .2649994 0 .31199647 .04701233 .32199098 .058029176L.32299806 .057022096C.3019867-.031982423 .2899933-.07295227 .2899933-.07495117 .28599549-.08395386 .2519989-.18309021 .1459961-.18309021 .1269989-.18309021 .09399414-.18206787 .06599426-.17297364 .09599304-.16394043 .10699463-.13793946 .10699463-.12094116 .10699463-.10494995 .09599304-.0859375 .068984989-.0859375 .04699707-.0859375 .01499939-.10394287 .01499939-.14395142 .01499939-.18508911 .051986696-.20507813 .147995-.20507813 .272995-.20507813 .34498597-.12693787 .3600006-.06695557L.47099305 .3773346M.34098817 .12809754C.33499146 .10206604 .31199647 .077041629 .2899933 .058029176 .2689972 .040008546 .23799134 .021987915 .20899964 .021987915 .15899658 .021987915 .14399719 .074035648 .14399719 .11407471 .14399719 .16212464 .17298889 .28024293 .19999695 .33128358 .22698975 .38034059 .269989 .42037965 .31199647 .42037965 .37799073 .42037965 .3919983 .33929444 .3919983 .33428956 .3919983 .32928468 .3899994 .3232727 .3889923 .3192749L.34098817 .12809754Z"/>
<path id="font_1_1" d="M.36698915 .3996582H.45298768C.47299195 .3996582 .48298646 .3996582 .48298646 .41966249 .48298646 .43066407 .47299195 .43066407 .45599366 .43066407H.37298585L.3939972 .5449524C.397995 .5660095 .4119873 .6370239 .41799928 .6490326 .4269867 .66804507 .44400025 .68307498 .46499635 .68307498 .46899415 .68307498 .49499513 .68307498 .5139923 .66503909 .46998597 .661026 .45999146 .6260376 .45999146 .6110382 .45999146 .58802798 .47799684 .57603457 .49699403 .57603457 .522995 .57603457 .5519867 .5980377 .5519867 .6360321 .5519867 .6820679 .5059967 .7050781 .46499635 .7050781 .43099977 .7050781 .36799623 .68707278 .33799745 .58802798 .33198548 .56700137 .32899476 .5569763 .30499269 .43066407H.23599243C.21699524 .43066407 .20599365 .43066407 .20599365 .4116516 .20599365 .3996582 .21499634 .3996582 .23399353 .3996582H.2999878L.22499085 .0048828127C.20698548-.09207153 .18998719-.18309021 .13798523-.18309021 .13398743-.18309021 .10899353-.18309021 .08999634-.16506958 .13598633-.1620636 .14498902-.12606812 .14498902-.111068729 .14498902-.08807373 .1269989-.07606506 .10798645-.07606506 .08198547-.07606506 .052993776-.09806824 .052993776-.13606262 .052993776-.18109131 .09700012-.20507813 .13798523-.20507813 .19299317-.20507813 .23298645-.14607239 .25099183-.108062747 .2829895-.04508972 .30599977 .07583618 .30699159 .082839969L.36698915 .3996582Z"/>
</defs>
<path transform="matrix(1.00009,0,0,-1.00002,51.934495,69.01412)" stroke-width=".3985" stroke-linecap="butt" stroke-miterlimit="10" stroke-linejoin="miter" fill="none" stroke="#00aeef" d="M-45.35419-51.02432H45.35419M-45.35419-40.81946H45.35419M-45.35419-30.6146H45.35419M-45.35419-20.40973H45.35419M-45.35419-10.20485H45.35419M-45.35419 0H45.35419M-45.35419 10.20485H45.35419M-45.35419 20.40973H45.35419M-45.35419 30.6146H45.35419M-45.35419 40.81946H45.35419M-45.35419 51.02075H45.35419M-45.35419-51.02432V51.02432M-34.01564-51.02432V51.02432M-22.6771-51.02432V51.02432M-11.33855-51.02432V51.02432M0-51.02432V51.02432M11.33855-51.02432V51.02432M22.6771-51.02432V51.02432M34.01564-51.02432V51.02432M45.3502-51.02432V51.02432M45.35419 51.02432"/>
<path transform="matrix(1.00009,0,0,-1.00002,51.934495,69.01412)" stroke-width=".79701" stroke-linecap="butt" stroke-miterlimit="10" stroke-linejoin="miter" fill="none" stroke="#000000" d="M-45.35419 0H62.06133"/>
<path transform="matrix(1.00009,0,0,-1.00002,114.0014,69.01412)" d="M1.0361 0C-.25902 .25902-1.55415 .77707-3.1083 1.68365-1.55415 .51805-1.55415-.51805-3.1083-1.68365-1.55415-.77707-.25902-.25902 1.0361 0Z"/>
<path transform="matrix(1.00009,0,0,-1.00002,114.0014,69.01412)" stroke-width=".79701" stroke-linecap="butt" stroke-linejoin="round" fill="none" stroke="#000000" d="M1.0361 0C-.25902 .25902-1.55415 .77707-3.1083 1.68365-1.55415 .51805-1.55415-.51805-3.1083-1.68365-1.55415-.77707-.25902-.25902 1.0361 0Z"/>
<use data-text="x" xlink:href="#font_1_3" transform="matrix(9.963496,0,0,-9.962799,112.58895,65.295047)"/>
<path transform="matrix(1.00009,0,0,-1.00002,51.934495,69.01412)" stroke-width=".79701" stroke-linecap="butt" stroke-miterlimit="10" stroke-linejoin="miter" fill="none" stroke="#000000" d="M0-51.02432V55.7127"/>
<path transform="matrix(0,-1.00002,-1.00009,-0,51.934495,13.300308)" d="M1.0361 0C-.25902 .25902-1.55415 .77707-3.1083 1.68365-1.55415 .51805-1.55415-.51805-3.1083-1.68365-1.55415-.77707-.25902-.25902 1.0361 0Z"/>
<path transform="matrix(0,-1.00002,-1.00009,-0,51.934495,13.300308)" stroke-width=".79701" stroke-linecap="butt" stroke-linejoin="round" fill="none" stroke="#000000" d="M1.0361 0C-.25902 .25902-1.55415 .77707-3.1083 1.68365-1.55415 .51805-1.55415-.51805-3.1083-1.68365-1.55415-.77707-.25902-.25902 1.0361 0Z"/>
<use data-text="y" xlink:href="#font_1_4" transform="matrix(9.963496,0,0,-9.962799,49.313257,6.2088625)"/>
<path transform="matrix(1.00009,0,0,-1.00002,51.934495,69.01412)" stroke-width=".79701" stroke-linecap="butt" stroke-miterlimit="10" stroke-linejoin="miter" fill="none" stroke="#000000" d="M-45.35419 1.53065V-1.53082"/>
<path transform="matrix(1.00009,0,0,-1.00002,51.934495,69.01412)" d="M-52.71558-13.1651H-37.992799V-3.9218703H-52.71558Z" fill="#ffffff"/>
<use data-text="&#x2212;" xlink:href="#font_2_1" transform="matrix(9.963496,0,0,-9.962799,.21084595,80.35335)"/>
<use data-text="4" xlink:href="#font_3_2" transform="matrix(9.963496,0,0,-9.962799,7.960541,80.35335)"/>
<path transform="matrix(1.00009,0,0,-1.00002,51.934495,69.01412)" stroke-width=".79701" stroke-linecap="butt" stroke-miterlimit="10" stroke-linejoin="miter" fill="none" stroke="#000000" d="M-22.6771 1.53065V-1.53082"/>
<path transform="matrix(1.00009,0,0,-1.00002,51.934495,69.01412)" d="M-30.03848-13.1651H-15.315701V-3.9218703H-30.03848Z" fill="#ffffff"/>
<use data-text="&#x2212;" xlink:href="#font_2_1" transform="matrix(9.963496,0,0,-9.962799,22.889878,80.35335)"/>
<use data-text="2" xlink:href="#font_3_1" transform="matrix(9.963496,0,0,-9.962799,30.639573,80.35335)"/>
<path transform="matrix(1.00009,0,0,-1.00002,51.934495,69.01412)" stroke-width=".79701" stroke-linecap="butt" stroke-miterlimit="10" stroke-linejoin="miter" fill="none" stroke="#000000" d="M22.6771 1.53065V-1.53082"/>
<path transform="matrix(1.00009,0,0,-1.00002,51.934495,69.01412)" d="M19.19012-12.33487H26.16406V-3.9218903H19.19012Z" fill="#ffffff"/>
<use data-text="2" xlink:href="#font_3_1" transform="matrix(9.963496,0,0,-9.962799,72.122318,80.35335)"/>
<path transform="matrix(1.00009,0,0,-1.00002,51.934495,69.01412)" stroke-width=".79701" stroke-linecap="butt" stroke-miterlimit="10" stroke-linejoin="miter" fill="none" stroke="#000000" d="M45.35419 1.53065V-1.53082"/>
<path transform="matrix(1.00009,0,0,-1.00002,51.934495,69.01412)" d="M41.86722-12.33487H48.841165V-3.9218903H41.86722Z" fill="#ffffff"/>
<use data-text="4" xlink:href="#font_3_2" transform="matrix(9.963496,0,0,-9.962799,94.80235,80.35335)"/>
<path transform="matrix(1.00009,0,0,-1.00002,51.934495,69.01412)" stroke-width=".79701" stroke-linecap="butt" stroke-miterlimit="10" stroke-linejoin="miter" fill="none" stroke="#000000" d="M1.7007-40.81946H-1.70087"/>
<path transform="matrix(1.00009,0,0,-1.00002,51.934495,69.01412)" d="M-18.81471-45.44107H-4.0919306V-36.19784H-18.81471Z" fill="#ffffff"/>
<use data-text="&#x2212;" xlink:href="#font_2_1" transform="matrix(9.963496,0,0,-9.962799,34.11489,112.63)"/>
<use data-text="8" xlink:href="#font_3_3" transform="matrix(9.963496,0,0,-9.962799,41.864587,112.63)"/>
<path transform="matrix(1.00009,0,0,-1.00002,51.934495,69.01412)" stroke-width=".79701" stroke-linecap="butt" stroke-miterlimit="10" stroke-linejoin="miter" fill="none" stroke="#000000" d="M1.7007-20.40973H-1.70087"/>
<path transform="matrix(1.00009,0,0,-1.00002,51.934495,69.01412)" d="M-18.81471-25.03134H-4.0919306V-15.78811H-18.81471Z" fill="#ffffff"/>
<use data-text="&#x2212;" xlink:href="#font_2_1" transform="matrix(9.963496,0,0,-9.962799,34.11489,92.21959)"/>
<use data-text="4" xlink:href="#font_3_2" transform="matrix(9.963496,0,0,-9.962799,41.864587,92.21959)"/>
<path transform="matrix(1.00009,0,0,-1.00002,51.934495,69.01412)" stroke-width=".79701" stroke-linecap="butt" stroke-miterlimit="10" stroke-linejoin="miter" fill="none" stroke="#000000" d="M1.7007 20.40973H-1.70087"/>
<path transform="matrix(1.00009,0,0,-1.00002,51.934495,69.01412)" d="M-11.06586 16.20323H-4.09192V24.61621H-11.06586Z" fill="#ffffff"/>
<use data-text="4" xlink:href="#font_3_2" transform="matrix(9.963496,0,0,-9.962799,41.863588,51.813776)"/>
<path transform="matrix(1.00009,0,0,-1.00002,51.934495,69.01412)" stroke-width=".79701" stroke-linecap="butt" stroke-miterlimit="10" stroke-linejoin="miter" fill="none" stroke="#000000" d="M1.7007 40.81946H-1.70087"/>
<path transform="matrix(1.00009,0,0,-1.00002,51.934495,69.01412)" d="M-11.06586 36.61298H-4.09192V45.02596H-11.06586Z" fill="#ffffff"/>
<use data-text="8" xlink:href="#font_3_3" transform="matrix(9.963496,0,0,-9.962799,41.863588,31.40437)"/>
<path transform="matrix(1.00009,0,0,-1.00002,51.934495,69.01412)" stroke-width="1.19553" stroke-linecap="butt" stroke-miterlimit="10" stroke-linejoin="miter" fill="none" stroke="#ff0000" d="M-43.4814 .14806C-44.65466 .13414-44.65466 .13414-44.38602 .13763-44.11736 .14113-43.6865 .14705-43.41783 .15103-43.14917 .15501-42.7183 .1619-42.44965 .16629-42.18098 .17067-41.75012 .17783-41.48146 .18265-41.21281 .18745-40.78197 .19579-40.51329 .201-40.24463 .20624-39.81378 .21451-39.5451 .22032-39.27644 .22612-38.84561 .23653-38.57695 .24289-38.30827 .24927-37.87743 .25932-37.60876 .26625-37.34009 .2732-36.90924 .28523-36.6406 .29288-36.37193 .30052-35.94107 .31302-35.67241 .32138-35.40375 .32974-34.97289 .34393-34.70422 .35313-34.43556 .36235-34.0047 .37753-33.73604 .38771-33.46739 .39789-33.03653 .4153-32.76787 .42648-32.4992 .43767-32.06836 .45619-31.79968 .46837-31.53102 .48056-31.10017 .50098-30.8315 .51431-30.56284 .52763-30.132 .54971-29.86334 .56444-29.59467 .57918-29.16382 .60425-28.89516 .62051-28.6265 .63678-28.19565 .664-27.92699 .6817-27.65833 .69939-27.22746 .72849-26.9588 .74803-26.69014 .76758-26.25928 .80107-25.99062 .82262-25.72195 .84416-25.2911 .87978-25.02245 .90327-24.75378 .92679-24.32294 .96614-24.05426 .99205-23.7856 1.01793-23.35475 1.06151-23.08607 1.08998-22.81741 1.11847-22.38657 1.16609-22.1179 1.19727-21.84924 1.22844-21.4184 1.28041-21.14973 1.31468-20.88106 1.34894-20.45021 1.40657-20.18155 1.44423-19.91289 1.48189-19.48204 1.54474-19.21338 1.58609-18.94472 1.62743-18.51385 1.69681-18.2452 1.74226-17.97653 1.78772-17.54567 1.86385-17.27701 1.91371-17.00835 1.96358-16.5775 2.04684-16.30884 2.10165-16.04018 2.15646-15.60933 2.24857-15.34065 2.30875-15.07199 2.36894-14.64114 2.46948-14.37248 2.53548-14.10382 2.60147-13.67297 2.71182-13.40431 2.78447-13.13564 2.85709-12.70479 2.97911-12.43613 3.05898-12.16747 3.13885-11.7366 3.27261-11.46794 3.36014-11.19928 3.44765-10.76843 3.59361-10.49977 3.68979-10.23111 3.78593-9.80025 3.94756-9.53159 4.05322-9.26292 4.15887-8.83206 4.33525-8.5634 4.45137-8.29474 4.5675-7.8639 4.76259-7.59523 4.89018-7.32657 5.01778-6.89572 5.23108-6.62704 5.37102-6.35838 5.51096-5.92755 5.74492-5.65889 5.89874-5.39021 6.05254-4.95937 6.31061-4.6907 6.47955-4.42203 6.6485-3.99118 6.93091-3.72252 7.11642-3.45386 7.30194-3.023 7.61287-2.75435 7.81667-2.48569 8.02046-2.05482 8.36151-1.78616 8.58528-1.5175 8.80904-1.08664 9.18396-.81798 9.4294-.54932 9.67482-.11847 10.0846 .15016 10.35419 .41882 10.62378 .84967 11.07593 1.11835 11.37239 1.38701 11.66885 1.81784 12.16528 2.0865 12.49088 2.35518 12.8165 2.78603 13.36153 3.05469 13.71916 3.32336 14.07678 3.75421 14.6756 4.02287 15.06842 4.29153 15.46124 4.72238 16.11893 4.99104 16.55035 5.2597 16.98177 5.69057 17.70401 5.95923 18.17787 6.22789 18.65172 6.65874 19.44513 6.9274 19.96562 7.19606 20.4861 7.62692 21.35751 7.89558 21.92918 8.16425 22.50084 8.5951 23.45793 8.86377 24.08582 9.13243 24.7137 9.56328 25.76482 9.83194 26.45453 10.1006 27.14426 10.53145 28.29941 10.80011 29.05682 11.06879 29.81425 11.49963 31.08171 11.7683 31.91354 12.03697 32.74539 12.46782 34.13829 12.73648 35.05212 13.00513 35.96597 13.43599 37.49617 13.70465 38.49994 13.97331 39.50371 14.40417 41.18427 14.67284 42.28659 14.9415 43.38892 15.37234 45.23396 15.641 46.44478 15.90967 47.65558 16.60919 51.01328 16.22722 49.17973"/>
<path transform="matrix(-.99999,.011890238,.01189107,.99992,8.4492,68.86605)" d="M1.27522 0C-.31879 .31879-1.91284 .9564-3.8257 2.07224-1.91284 .6376-1.91284-.6376-3.8257-2.07224-1.91284-.9564-.31879-.31879 1.27522 0Z" fill="#ff0000"/>
<path transform="matrix(-.99999,.011890238,.01189107,.99992,8.4492,68.86605)" stroke-width="1.19553" stroke-linecap="butt" stroke-linejoin="round" fill="none" stroke="#ff0000" d="M1.27522 0C-.31879 .31879-1.91284 .9564-3.8257 2.07224-1.91284 .6376-1.91284-.6376-3.8257-2.07224-1.91284-.9564-.31879-.31879 1.27522 0Z"/>
<path transform="matrix(.20394837,-.9789596,-.9790281,-.20393409,68.16318,19.833416)" d="M1.27522 0C-.31879 .31879-1.91284 .9564-3.8257 2.07224-1.91284 .6376-1.91284-.6376-3.8257-2.07224-1.91284-.9564-.31879-.31879 1.27522 0Z" fill="#ff0000"/>
<path transform="matrix(.20394837,-.9789596,-.9790281,-.20393409,68.16318,19.833416)" stroke-width="1.19553" stroke-linecap="butt" stroke-linejoin="round" fill="none" stroke="#ff0000" d="M1.27522 0C-.31879 .31879-1.91284 .9564-3.8257 2.07224-1.91284 .6376-1.91284-.6376-3.8257-2.07224-1.91284-.9564-.31879-.31879 1.27522 0Z"/>
<path transform="matrix(1.00009,0,0,-1.00002,51.934495,69.01412)" stroke-width="1.19553" stroke-linecap="butt" stroke-miterlimit="10" stroke-linejoin="miter" fill="none" stroke="#0000ff" d="M-19.14912-49.1695C-18.95122-47.63728-18.95122-47.63728-18.78308-46.39107-18.61496-45.14484-18.34534-43.21222-18.1772-42.04507-18.00906-40.87793-17.73944-39.06976-17.5713-37.97908-17.40318-36.8884-17.13354-35.2009-16.96541-34.18417-16.79729-33.16743-16.52766-31.59663-16.35953-30.65118-16.1914-29.70572-15.92177-28.24677-15.75363-27.36998-15.5855-26.49321-15.31587-25.14264-15.14775-24.332-14.97963-23.52136-14.70999-22.27455-14.54185-21.52744-14.37372-20.7803-14.1041-19.63347-13.93597-18.94725-13.76785-18.26103-13.49821-17.20953-13.33008-16.58163-13.16194-15.95377-12.89232-14.99402-12.7242-14.42189-12.55606-13.8498-12.28642-12.97716-12.1183-12.45818-11.95018-11.93921-11.68054-11.1499-11.51242-10.68149-11.34428-10.21307-11.07465-9.50261-10.90651-9.08215-10.7384-8.6617-10.46877-8.02623-10.30063-7.65115-10.13249-7.27606-9.86287-6.71114-9.69473-6.3788-9.52661-6.04648-9.25697-5.5481-9.08885-5.25595-8.92072-4.9638-8.6511-4.52777-8.48296-4.27324-8.31483-4.0187-8.0452-3.64099-7.87706-3.4215-7.70892-3.20198-7.43932-2.87831-7.27118-2.69118-7.10306-2.50406-6.83342-2.23016-6.66528-2.07285-6.49715-1.91551-6.22752-1.68735-6.05939-1.55727-5.89128-1.4272-5.62164-1.24072-5.4535-1.13528-5.28537-1.02985-5.01575-.88081-4.84761-.7974-4.67949-.71399-4.40985-.59805-4.24173-.53409-4.0736-.47011-3.80397-.38342-3.63583-.33632-3.46771-.28923-3.19807-.22746-3.02994-.19463-2.86182-.16179-2.5922-.1208-2.42406-.09964-2.25594-.07846-1.9863-.05412-1.81816-.04202-1.65002-.02992-1.3804-.01805-1.21228-.01244-1.04416-.00684-.77452-.00327-.60638-.00154-.43825 .00015-.16862-.00038-.00049 0 .16759 .00038 .43721-.00027 .60535 .00139 .77348 .0031 1.0431 .00667 1.21124 .01227 1.37938 .0179 1.649 .02977 1.81712 .04187 1.98526 .05396 2.25488 .07831 2.42302 .09949 2.59116 .12065 2.86078 .16165 3.02892 .19447 3.19705 .22728 3.46666 .28894 3.6348 .33601 3.80293 .3831 4.07256 .46982 4.24069 .53378 4.40883 .59772 4.67845 .71356 4.84659 .79692 5.01471 .8803 5.28433 1.02925 5.45247 1.13467 5.6206 1.24008 5.89023 1.42662 6.05836 1.55666 6.2265 1.68669 6.49612 1.91469 6.66425 2.07191 6.83238 2.22916 7.102 2.5029 7.27014 2.68994 7.43828 2.877 7.7079 3.20062 7.87604 3.42009 8.04416 3.63954 8.31378 4.01721 8.48192 4.27168 8.65005 4.52617 8.91968 4.96216 9.08781 5.25424 9.25595 5.54631 9.52557 6.04454 9.6937 6.37679 9.86183 6.70901 10.13145 7.2738 10.29959 7.6488 10.46773 8.0238 10.73735 8.65915 10.90549 9.07951 11.07361 9.49988 11.34323 10.21019 11.51137 10.67853 11.6795 11.14688 11.94913 11.93619 12.11726 12.45508 12.2854 12.97395 12.55502 13.8463 12.72314 14.4183 12.89128 14.99033 13.1609 15.94998 13.32904 16.57774 13.49718 17.20554 13.7668 18.25676 13.93494 18.94289 14.10306 19.62903 14.37268 20.77591 14.54082 21.52292 14.70895 22.26993 14.97858 23.51633 15.14671 24.32687 15.31485 25.13739 15.58447 26.48804 15.7526 27.36469 15.92073 28.24133 16.19035 29.69978 16.35849 30.64511 16.52663 31.59044 16.79625 33.16129 16.96439 34.17795 17.13252 35.19461 17.40215 36.88202 17.57027 37.97255 17.7384 39.06306 18.00803 40.87077 18.17616 42.03777 18.3443 43.20476 18.61392 45.13736 18.78206 46.38344 18.95018 47.62949 19.38794 51.01855 19.14806 49.16109"/>
<path transform="matrix(-.12808153,.99172988,.99179926,.12807256,32.78366,118.1846)" d="M1.27522 0C-.31879 .31879-1.91284 .9564-3.8257 2.07224-1.91284 .6376-1.91284-.6376-3.8257-2.07224-1.91284-.9564-.31879-.31879 1.27522 0Z" fill="#0000ff"/>
<path transform="matrix(-.12808153,.99172988,.99179926,.12807256,32.78366,118.1846)" stroke-width="1.19553" stroke-linecap="butt" stroke-linejoin="round" fill="none" stroke="#0000ff" d="M1.27522 0C-.31879 .31879-1.91284 .9564-3.8257 2.07224-1.91284 .6376-1.91284-.6376-3.8257-2.07224-1.91284-.9564-.31879-.31879 1.27522 0Z"/>
<path transform="matrix(.12809153,-.99172988,-.99179926,-.12808256,71.084278,19.852047)" d="M1.27522 0C-.31879 .31879-1.91284 .9564-3.8257 2.07224-1.91284 .6376-1.91284-.6376-3.8257-2.07224-1.91284-.9564-.31879-.31879 1.27522 0Z" fill="#0000ff"/>
<path transform="matrix(.12809153,-.99172988,-.99179926,-.12808256,71.084278,19.852047)" stroke-width="1.19553" stroke-linecap="butt" stroke-linejoin="round" fill="none" stroke="#0000ff" d="M1.27522 0C-.31879 .31879-1.91284 .9564-3.8257 2.07224-1.91284 .6376-1.91284-.6376-3.8257-2.07224-1.91284-.9564-.31879-.31879 1.27522 0Z"/>
<path transform="matrix(1.00009,0,0,-1.00002,51.934495,69.01412)" d="M-37.56659 4.05429H-30.46469V12.27354H-37.56659Z" fill="#ffffff"/>
<use data-text="g" xlink:href="#font_1_2" transform="matrix(9.963496,0,0,-9.962799,15.361206,62.02598)" fill="#ff0000"/>
<path transform="matrix(1.00009,0,0,-1.00002,51.934495,69.01412)" d="M18.7058 25.19041H26.648369V36.03875H18.7058Z" fill="#ffffff"/>
<use data-text="f" xlink:href="#font_1_1" transform="matrix(9.963496,0,0,-9.962799,71.63827,40.889558)" fill="#0000ff"/>
</svg>
