<svg xmlns="http://www.w3.org/2000/svg" xmlns:xlink="http://www.w3.org/1999/xlink" version="1.1" width="139" height="141" viewBox="0 0 139 141">
<defs>
<path id="font_1_2" d="M.20599365 .3996582H.2999878C.31999208 .3996582 .32998658 .3996582 .32998658 .41966249 .32998658 .43066407 .31999208 .43066407 .3019867 .43066407H.21398926C.25 .5724945 .25498963 .59246829 .25498963 .59846499 .25498963 .61546328 .24299622 .62545779 .22599793 .62545779 .22299195 .62545779 .19499207 .62446597 .18598938 .58947756L.14698792 .43066407H.052993776C.032989503 .43066407 .022994996 .43066407 .022994996 .4116516 .022994996 .3996582 .0309906 .3996582 .050994874 .3996582H.13899231C.066986087 .11608887 .06298828 .099121097 .06298828 .08114624 .06298828 .02722168 .100997928-.0107421879 .15499878-.0107421879 .25698854-.0107421879 .31399537 .13505554 .31399537 .14305115 .31399537 .1530304 .30599977 .1530304 .3019867 .1530304 .29299928 .1530304 .2919922 .15003968 .2869873 .13905335 .24398804 .035217287 .19099427 .011245728 .15699768 .011245728 .13598633 .011245728 .12599182 .024230957 .12599182 .057174684 .12599182 .08114624 .12799073 .088134769 .13198853 .10510254L.20599365 .3996582Z"/>
<path id="font_1_1" d="M.7599945 .69506838C.7599945 .69807437 .7579956 .7050781 .7489929 .7050781 .74598696 .7050781 .7449951 .70407107 .73399356 .69306948L.6639862 .61602786C.6549988 .6300354 .60899356 .7050781 .49798585 .7050781 .2749939 .7050781 .049987794 .48391725 .049987794 .25172425 .049987794 .08659363 .16799927-.022460938 .32099916-.022460938 .4079895-.022460938 .48399354 .017532349 .5369873 .063583377 .6299896 .14564514 .6469879 .2367096 .6469879 .23971558 .6469879 .24972534 .6369934 .24972534 .6349945 .24972534 .6289978 .24972534 .6239929 .24772644 .621994 .23971558 .61299136 .21069336 .58999636 .13963318 .5209961 .081588748 .45199586 .025543213 .3889923 .008529663 .33699037 .008529663 .24699402 .008529663 .14099121 .060577394 .14099121 .21670532 .14099121 .27374269 .1619873 .43588258 .2619934 .55296328 .32299806 .62402346 .4169922 .67407229 .5059967 .67407229 .60798647 .67407229 .6669922 .5970001 .6669922 .48091126 .6669922 .44088746 .6639862 .43988038 .6639862 .4298706 .6639862 .41986085 .6749878 .41986085 .67900088 .41986085 .69200137 .41986085 .69200137 .42185975 .69699099 .43988038L.7599945 .69506838Z"/>
<path id="font_2_3" d="M.1269989 .07699585 .23298645 .18003845C.3889923 .31811524 .44898988 .3721466 .44898988 .47216798 .44898988 .5860901 .35899354 .6660156 .23699951 .6660156 .12399292 .6660156 .049987794 .57411196 .049987794 .48516847 .049987794 .4291687 .099990848 .4291687 .102996829 .4291687 .11999512 .4291687 .15499878 .44117738 .15499878 .48217774 .15499878 .5081787 .13699341 .5341797 .101989749 .5341797 .09399414 .5341797 .09199524 .5341797 .08898926 .5331726 .11199951 .59806826 .1659851 .63500979 .22399903 .63500979 .31498719 .63500979 .35798646 .5541382 .35798646 .47216798 .35798646 .39215089 .30799867 .31311036 .25299073 .25108338L.06098938 .036987306C.049987794 .025985718 .049987794 .023986817 .049987794 0H.42099L.44898988 .17404175H.42399598C.4189911 .14402771 .4119873 .1000061 .4019928 .084991458 .394989 .07699585 .32899476 .07699585 .30699159 .07699585H.1269989Z"/>
<path id="font_2_5" d="M.2939911 .16503906V.07800293C.2939911 .041992189 .2919922 .0309906 .21798706 .0309906H.19699097V0C.23799134 .0029907227 .2899933 .0029907227 .33198548 .0029907227 .37399293 .0029907227 .4269867 .0029907227 .46798707 0V.0309906H.44699098C.37298585 .0309906 .37098695 .041992189 .37098695 .07800293V.16503906H.47099305V.19602967H.37098695V.65075686C.37098695 .67074587 .37098695 .6767578 .35499574 .6767578 .34599305 .6767578 .34298707 .6767578 .33499146 .66474917L.027999878 .19602967V.16503906H.2939911M.2999878 .19602967H.055999757L.2999878 .5688019V.19602967Z"/>
<path id="font_2_7" d="M.13198853 .327713V.35173036C.13198853 .6047821 .2559967 .64100649 .30699159 .64100649 .33099366 .64100649 .37298585 .634964 .394989 .6007538 .37998963 .6007538 .33999635 .6007538 .33999635 .5557556 .33999635 .524765 .3639984 .5097656 .38598634 .5097656 .4019928 .5097656 .43199159 .51875308 .43199159 .5577545 .43199159 .6178589 .3880005 .6660156 .30499269 .6660156 .1769867 .6660156 .041992189 .5367584 .041992189 .31570436 .041992189 .048553468 .1579895-.022460938 .25099183-.022460938 .3619995-.022460938 .45700074 .07156372 .45700074 .2036438 .45700074 .33070375 .36799623 .4267578 .25698854 .4267578 .18899536 .4267578 .1519928 .37573243 .13198853 .327713M.25099183 .0055389406C.18798828 .0055389406 .1579895 .06556702 .1519928 .080566409 .13398743 .127594 .13398743 .2076416 .13398743 .22564698 .13398743 .30369569 .1659851 .40374757 .2559967 .40374757 .27198792 .40374757 .31799317 .40374757 .34899903 .34172059 .36698915 .30470277 .36698915 .2536621 .36698915 .20463562 .36698915 .15661621 .36698915 .10658264 .34999085 .0705719 .31999208 .010528564 .27398683 .0055389406 .25099183 .0055389406Z"/>
<path id="font_2_8" d="M.16299439 .4569702C.116989139 .486969 .11299133 .52098086 .11299133 .5379791 .11299133 .598999 .17799378 .64100649 .24899292 .64100649 .32199098 .64100649 .38598634 .58898928 .38598634 .51698306 .38598634 .45996095 .34700013 .4119568 .2869873 .37695313L.16299439 .4569702M.30899049 .36193849C.3809967 .3989563 .42999269 .45095826 .42999269 .51698306 .42999269 .6090088 .34098817 .6660156 .25 .6660156 .1499939 .6660156 .068984989 .59199526 .068984989 .49897767 .068984989 .4809723 .070999149 .43595887 .11299133 .38894654 .12399292 .37695313 .16099549 .35194398 .18598938 .33494569 .12799073 .30592347 .041992189 .24984741 .041992189 .15072632 .041992189 .04458618 .14399719-.022460938 .24899292-.022460938 .3619995-.022460938 .45700074 .06060791 .45700074 .16773987 .45700074 .20379639 .44599916 .24885559 .4079895 .2909088 .3889923 .31193543 .37298585 .3219452 .30899049 .36193849M.20899964 .3199463 .33198548 .24183655C.3600006 .2228241 .40699769 .19277954 .40699769 .13169861 .40699769 .05760193 .33198548 .0055389406 .25 .0055389406 .1639862 .0055389406 .09199524 .067611698 .09199524 .15072632 .09199524 .20880127 .12399292 .27288819 .20899964 .3199463Z"/>
<path id="font_2_2" d="M.2939911 .64004519C.2939911 .66400149 .2939911 .6660156 .2709961 .6660156 .20899964 .60227969 .12098694 .60227969 .08898926 .60227969V.57128909C.10899353 .57128909 .16799927 .57128909 .21998596 .5972748V.07902527C.21998596 .042999269 .21699524 .0309906 .1269989 .0309906H.09498596V0C.12998963 .0029907227 .21699524 .0029907227 .25698854 .0029907227 .29699708 .0029907227 .38398744 .0029907227 .4189911 0V.0309906H.3869934C.29699708 .0309906 .2939911 .041992189 .2939911 .07902527V.64004519Z"/>
<path id="font_2_1" d="M.45999146 .31976319C.45999146 .39982606 .45498658 .47988893 .41999818 .5539398 .37399293 .65000918 .2919922 .6660156 .25 .6660156 .18998719 .6660156 .116989139 .64001467 .07598877 .54693606 .04399109 .47789 .038986207 .39982606 .038986207 .31976319 .038986207 .24472046 .042999269 .15464783 .083999637 .07859802 .1269989-.0024719239 .19999695-.022460938 .24899292-.022460938 .30299378-.022460938 .3789978-.0014648438 .4229889 .09359741 .45498658 .16265869 .45999146 .2407074 .45999146 .31976319M.24899292-.00047302247C.20999146-.00047302247 .15098572 .024551392 .1329956 .12062073 .12199402 .18066406 .12199402 .2727356 .12199402 .3317871 .12199402 .39582826 .12199402 .46188355 .12998963 .5159149 .14898682 .63500979 .22399903 .64401248 .24899292 .64401248 .28199769 .64401248 .34799195 .6259918 .36698915 .52693179 .3769989 .47088624 .3769989 .39482118 .3769989 .3317871 .3769989 .25672914 .3769989 .18867493 .3659973 .12461853 .35099793 .029556275 .2939911-.00047302247 .24899292-.00047302247Z"/>
<path id="font_2_4" d="M.2899933 .35191346C.37199403 .37893678 .42999269 .4490509 .42999269 .52809146 .42999269 .6100464 .34199525 .6660156 .24598694 .6660156 .14498902 .6660156 .068984989 .60606387 .068984989 .53009036 .068984989 .49710084 .09098816 .47808839 .11999512 .47808839 .15098572 .47808839 .17098999 .50009158 .17098999 .5290985 .17098999 .57910159 .12399292 .57910159 .10899353 .57910159 .13999939 .62802127 .20599365 .64100649 .24198914 .64100649 .2829895 .64100649 .33799745 .6190338 .33799745 .5290985 .33799745 .51708987 .33599855 .45906068 .30999757 .4149933 .27999879 .36691285 .24598694 .36390687 .22099304 .36291505 .21299744 .36190797 .18899536 .35990907 .18199158 .35990907 .17399597 .35890199 .16699219 .35791017 .16699219 .3479004 .16699219 .33691407 .17399597 .33691407 .19099427 .33691407H.23498535C.31698609 .33691407 .35398866 .2686615 .35398866 .17037964 .35398866 .034469606 .2849884 .0055389406 .24099732 .0055389406 .19799805 .0055389406 .12298584 .022491456 .08799744 .08137512 .12298584 .07637024 .1539917 .09837341 .1539917 .1363678 .1539917 .17237854 .1269989 .19238281 .09799194 .19238281 .07398987 .19238281 .041992189 .17837525 .041992189 .1343689 .041992189 .043441774 .1349945-.022460938 .24398804-.022460938 .3659973-.022460938 .45700074 .06838989 .45700074 .17037964 .45700074 .252594 .3939972 .33088685 .2899933 .35191346Z"/>
<path id="font_2_6" d="M.44898988 .20022583C.44898988 .3193512 .36698915 .41944886 .25898744 .41944886 .21099854 .41944886 .16799927 .40345765 .13198853 .36842347V.5637665C.1519928 .5577698 .18499756 .55078127 .21699524 .55078127 .33999635 .55078127 .4099884 .6417694 .4099884 .6547699 .4099884 .6607666 .40699769 .6657715 .3999939 .6657715 .39898683 .6657715 .39698792 .6657715 .3919983 .66278079 .37199403 .6537781 .32299806 .6337738 .2559967 .6337738 .21598816 .6337738 .16999817 .6407776 .12298584 .6617737 .114990238 .66477969 .11299133 .66477969 .11099243 .66477969 .100997928 .66477969 .100997928 .6567688 .100997928 .6407776V.34439088C.100997928 .32637025 .100997928 .31835938 .114990238 .31835938 .12199402 .31835938 .12399292 .32136537 .12799073 .32736207 .13899231 .3433838 .17599488 .39746095 .25698854 .39746095 .30899049 .39746095 .33399964 .35139466 .34199525 .33337403 .35798646 .29632569 .3600006 .25727845 .3600006 .20722962 .3600006 .17222595 .3600006 .11222839 .33599855 .07035828 .31199647 .031463624 .2749939 .0055389406 .22898865 .0055389406 .1559906 .0055389406 .09899902 .058380128 .08198547 .11723328 .084991458 .1162262 .08799744 .115234378 .09899902 .115234378 .13198853 .115234378 .14898682 .14022827 .14898682 .16423035 .14898682 .18823242 .13198853 .21322632 .09899902 .21322632 .084991458 .21322632 .049987794 .20622254 .049987794 .16023255 .049987794 .07434082 .11898804-.022460938 .23098755-.022460938 .34700013-.022460938 .44898988 .073349 .44898988 .20022583Z"/>
</defs>
<path transform="matrix(1.00009,0,0,-1.00002,16.263199,127.34731)" stroke-width=".3985" stroke-linecap="butt" stroke-miterlimit="10" stroke-linejoin="miter" fill="none" stroke="#00aeef" d="M0 0H113.3855M0 11.33855H113.3855M0 22.6771H113.3855M0 34.01564H113.3855M0 45.35419H113.3855M0 56.69275H113.3855M0 68.0313H113.3855M0 79.36984H113.3855M0 90.70839H113.3855M0 102.04694H113.3855M0 113.38152H113.3855M0 0V113.3855M11.33855 0V113.3855M22.6771 0V113.3855M34.01564 0V113.3855M45.35419 0V113.3855M56.69275 0V113.3855M68.0313 0V113.3855M79.36984 0V113.3855M90.70839 0V113.3855M102.04694 0V113.3855M113.38152 0V113.3855M113.3855 113.3855"/>
<path transform="matrix(1.00009,0,0,-1.00002,16.263199,127.34731)" stroke-width=".79701" stroke-linecap="butt" stroke-miterlimit="10" stroke-linejoin="miter" fill="none" stroke="#000000" d="M0 0H118.75407"/>
<path transform="matrix(1.00009,0,0,-1.00002,135.02796,127.34731)" d="M1.0361 0C-.25902 .25902-1.55415 .77707-3.1083 1.68365-1.55415 .51805-1.55415-.51805-3.1083-1.68365-1.55415-.77707-.25902-.25902 1.0361 0Z"/>
<path transform="matrix(1.00009,0,0,-1.00002,135.02796,127.34731)" stroke-width=".79701" stroke-linecap="butt" stroke-linejoin="round" fill="none" stroke="#000000" d="M1.0361 0C-.25902 .25902-1.55415 .77707-3.1083 1.68365-1.55415 .51805-1.55415-.51805-3.1083-1.68365-1.55415-.77707-.25902-.25902 1.0361 0Z"/>
<use data-text="t" xlink:href="#font_1_2" transform="matrix(9.963496,0,0,-9.962799,134.66385,123.628238)"/>
<path transform="matrix(1.00009,0,0,-1.00002,16.263199,127.34731)" stroke-width=".79701" stroke-linecap="butt" stroke-miterlimit="10" stroke-linejoin="miter" fill="none" stroke="#000000" d="M0 0V118.75407"/>
<path transform="matrix(0,-1.00002,-1.00009,-0,16.263199,8.590866)" d="M1.0361 0C-.25902 .25902-1.55415 .77707-3.1083 1.68365-1.55415 .51805-1.55415-.51805-3.1083-1.68365-1.55415-.77707-.25902-.25902 1.0361 0Z"/>
<path transform="matrix(0,-1.00002,-1.00009,-0,16.263199,8.590866)" stroke-width=".79701" stroke-linecap="butt" stroke-linejoin="round" fill="none" stroke="#000000" d="M1.0361 0C-.25902 .25902-1.55415 .77707-3.1083 1.68365-1.55415 .51805-1.55415-.51805-3.1083-1.68365-1.55415-.77707-.25902-.25902 1.0361 0Z"/>
<use data-text="C" xlink:href="#font_1_1" transform="matrix(9.963496,0,0,-9.962799,4.7101595,7.725914)"/>
<path transform="matrix(1.00009,0,0,-1.00002,16.263199,127.34731)" stroke-width=".79701" stroke-linecap="butt" stroke-miterlimit="10" stroke-linejoin="miter" fill="none" stroke="#000000" d="M22.6771 1.7007V-1.70087"/>
<path transform="matrix(1.00009,0,0,-1.00002,16.263199,127.34731)" d="M19.19012-12.50491H26.16406V-4.0919306H19.19012Z" fill="#ffffff"/>
<use data-text="2" xlink:href="#font_2_3" transform="matrix(9.963496,0,0,-9.962799,36.45102,138.85654)"/>
<path transform="matrix(1.00009,0,0,-1.00002,16.263199,127.34731)" stroke-width=".79701" stroke-linecap="butt" stroke-miterlimit="10" stroke-linejoin="miter" fill="none" stroke="#000000" d="M45.35419 1.7007V-1.70087"/>
<path transform="matrix(1.00009,0,0,-1.00002,16.263199,127.34731)" d="M41.86722-12.50491H48.841165V-4.0919306H41.86722Z" fill="#ffffff"/>
<use data-text="4" xlink:href="#font_2_5" transform="matrix(9.963496,0,0,-9.962799,59.131055,138.85654)"/>
<path transform="matrix(1.00009,0,0,-1.00002,16.263199,127.34731)" stroke-width=".79701" stroke-linecap="butt" stroke-miterlimit="10" stroke-linejoin="miter" fill="none" stroke="#000000" d="M68.0313 1.7007V-1.70087"/>
<path transform="matrix(1.00009,0,0,-1.00002,16.263199,127.34731)" d="M64.54433-12.50491H71.518268V-4.0919306H64.54433Z" fill="#ffffff"/>
<use data-text="6" xlink:href="#font_2_7" transform="matrix(9.963496,0,0,-9.962799,81.8101,138.85654)"/>
<path transform="matrix(1.00009,0,0,-1.00002,16.263199,127.34731)" stroke-width=".79701" stroke-linecap="butt" stroke-miterlimit="10" stroke-linejoin="miter" fill="none" stroke="#000000" d="M90.70839 1.7007V-1.70087"/>
<path transform="matrix(1.00009,0,0,-1.00002,16.263199,127.34731)" d="M87.22142-12.50491H94.19536V-4.0919306H87.22142Z" fill="#ffffff"/>
<use data-text="8" xlink:href="#font_2_8" transform="matrix(9.963496,0,0,-9.962799,104.48914,138.85654)"/>
<path transform="matrix(1.00009,0,0,-1.00002,16.263199,127.34731)" stroke-width=".79701" stroke-linecap="butt" stroke-miterlimit="10" stroke-linejoin="miter" fill="none" stroke="#000000" d="M113.3855 1.7007V-1.70087"/>
<path transform="matrix(1.00009,0,0,-1.00002,16.263199,127.34731)" d="M107.40782-12.50491H119.36316V-4.0919306H107.40782Z" fill="#ffffff"/>
<use data-text="1" xlink:href="#font_2_2" transform="matrix(9.963496,0,0,-9.962799,124.676959,138.85654)"/>
<use data-text="0" xlink:href="#font_2_1" transform="matrix(9.963496,0,0,-9.962799,129.6587,138.85654)"/>
<path transform="matrix(1.00009,0,0,-1.00002,16.263199,127.34731)" stroke-width=".79701" stroke-linecap="butt" stroke-miterlimit="10" stroke-linejoin="miter" fill="none" stroke="#000000" d="M1.7007 22.6771H-1.70087"/>
<path transform="matrix(1.00009,0,0,-1.00002,16.263199,127.34731)" d="M-16.04727 18.4706H-4.0919296V26.88358H-16.04727Z" fill="#ffffff"/>
<use data-text="1" xlink:href="#font_2_2" transform="matrix(9.963496,0,0,-9.962799,1.210846,107.87993)"/>
<use data-text="0" xlink:href="#font_2_1" transform="matrix(9.963496,0,0,-9.962799,6.1925966,107.87993)"/>
<path transform="matrix(1.00009,0,0,-1.00002,16.263199,127.34731)" stroke-width=".79701" stroke-linecap="butt" stroke-miterlimit="10" stroke-linejoin="miter" fill="none" stroke="#000000" d="M1.7007 45.35419H-1.70087"/>
<path transform="matrix(1.00009,0,0,-1.00002,16.263199,127.34731)" d="M-16.04727 41.14769H-4.0919296V49.56067H-16.04727Z" fill="#ffffff"/>
<use data-text="2" xlink:href="#font_2_3" transform="matrix(9.963496,0,0,-9.962799,1.210846,85.20247)"/>
<use data-text="0" xlink:href="#font_2_1" transform="matrix(9.963496,0,0,-9.962799,6.1925966,85.20247)"/>
<path transform="matrix(1.00009,0,0,-1.00002,16.263199,127.34731)" stroke-width=".79701" stroke-linecap="butt" stroke-miterlimit="10" stroke-linejoin="miter" fill="none" stroke="#000000" d="M1.7007 68.0313H-1.70087"/>
<path transform="matrix(1.00009,0,0,-1.00002,16.263199,127.34731)" d="M-16.04727 63.8248H-4.0919296V72.23778H-16.04727Z" fill="#ffffff"/>
<use data-text="3" xlink:href="#font_2_4" transform="matrix(9.963496,0,0,-9.962799,1.210846,62.525018)"/>
<use data-text="0" xlink:href="#font_2_1" transform="matrix(9.963496,0,0,-9.962799,6.1925966,62.525018)"/>
<path transform="matrix(1.00009,0,0,-1.00002,16.263199,127.34731)" stroke-width=".79701" stroke-linecap="butt" stroke-miterlimit="10" stroke-linejoin="miter" fill="none" stroke="#000000" d="M1.7007 90.70839H-1.70087"/>
<path transform="matrix(1.00009,0,0,-1.00002,16.263199,127.34731)" d="M-16.04727 86.50189H-4.0919296V94.91487H-16.04727Z" fill="#ffffff"/>
<use data-text="4" xlink:href="#font_2_5" transform="matrix(9.963496,0,0,-9.962799,1.210846,39.847558)"/>
<use data-text="0" xlink:href="#font_2_1" transform="matrix(9.963496,0,0,-9.962799,6.1925966,39.847558)"/>
<path transform="matrix(1.00009,0,0,-1.00002,16.263199,127.34731)" stroke-width=".79701" stroke-linecap="butt" stroke-miterlimit="10" stroke-linejoin="miter" fill="none" stroke="#000000" d="M1.7007 113.3855H-1.70087"/>
<path transform="matrix(1.00009,0,0,-1.00002,16.263199,127.34731)" d="M-16.04727 109.179H-4.0919296V117.59198H-16.04727Z" fill="#ffffff"/>
<use data-text="5" xlink:href="#font_2_6" transform="matrix(9.963496,0,0,-9.962799,1.210846,17.170105)"/>
<use data-text="0" xlink:href="#font_2_1" transform="matrix(9.963496,0,0,-9.962799,6.1925966,17.170105)"/>
<path transform="matrix(1.00009,0,0,-1.00002,16.263199,127.34731)" stroke-width="1.19553" stroke-linecap="butt" stroke-miterlimit="10" stroke-linejoin="miter" fill="none" stroke="#ff0000" d="M0 2.7213C0 2.7213 1.1775 2.83778 1.62975 2.88445 2.08202 2.93112 2.80728 3.00816 3.25954 3.05763 3.71178 3.10712 4.43707 3.18861 4.88931 3.24103 5.34157 3.29346 6.06685 3.37991 6.5191 3.43549 6.97134 3.49107 7.69662 3.58282 8.14888 3.64172 8.60112 3.70062 9.3264 3.79759 9.77866 3.86006 10.23091 3.92253 10.95618 4.02568 11.40842 4.09189 11.86069 4.15813 12.58595 4.26724 13.03821 4.3374 13.49046 4.40758 14.21573 4.52324 14.66798 4.59761 15.12024 4.67201 15.84552 4.79471 16.29776 4.87358 16.75002 4.95244 17.4753 5.08238 17.92755 5.16595 18.37979 5.24956 19.10507 5.38737 19.55733 5.476 20.00958 5.56464 20.73483 5.7108 21.1871 5.80472 21.63936 5.89865 22.36462 6.05345 22.81686 6.15302 23.26913 6.25255 23.9944 6.41669 24.44666 6.5222 24.8989 6.62773 25.62419 6.80171 26.07643 6.91356 26.52869 7.02542 27.25397 7.20987 27.7062 7.32846 28.15846 7.44704 28.88374 7.64256 29.336 7.76825 29.78824 7.89394 30.51352 8.10107 30.96577 8.23434 31.41803 8.36758 32.1433 8.58739 32.59554 8.72864 33.0478 8.86987 33.77307 9.10265 34.22533 9.25233 34.67758 9.40204 35.40285 9.64886 35.8551 9.80756 36.30734 9.96622 37.03264 10.22774 37.48488 10.39595 37.93713 10.56418 38.66241 10.84169 39.11467 11.02002 39.56691 11.19835 40.29218 11.49228 40.74445 11.68127 41.1967 11.87025 41.92195 12.1818 42.37422 12.38214 42.82648 12.58249 43.55174 12.91287 44.00398 13.12523 44.45625 13.3376 45.18152 13.68767 45.63377 13.91278 46.08601 14.13791 46.81131 14.50911 47.26355 14.74776 47.7158 14.98637 48.44109 15.37978 48.89333 15.6327 49.34558 15.88565 50.07086 16.30263 50.52312 16.57077 50.97536 16.83893 51.70064 17.2812 52.1529 17.56543 52.60515 17.84964 53.33041 18.31798 53.78265 18.61925 54.23492 18.92052 54.96019 19.41734 55.41243 19.73674 55.8647 20.05614 56.58997 20.58263 57.04222 20.92119 57.49446 21.25975 58.21976 21.81801 58.672 22.17691 59.12425 22.5358 59.84953 23.12755 60.30179 23.50789 60.75403 23.88823 61.4793 24.51497 61.93156 24.91812 62.3838 25.32126 63.10907 25.98605 63.56134 26.41347 64.01358 26.84087 64.73886 27.54555 65.1911 27.9986 65.64337 28.45164 66.36864 29.1985 66.82089 29.67874 67.27315 30.15895 67.99841 30.95059 68.45067 31.45973 68.90292 31.96884 69.6282 32.80844 70.08044 33.34814 70.5327 33.88786 71.25798 34.77762 71.71024 35.34956 72.16248 35.92151 72.88774 36.8642 73.34001 37.47035 73.79225 38.0765 74.51753 39.07562 74.96979 39.71829 75.42204 40.36096 76.14731 41.42088 76.59955 42.10223 77.05182 42.7836 77.77708 43.90694 78.22934 44.62909 78.68158 45.35123 79.40688 46.54155 79.85912 47.30698 80.31137 48.0724 81.03665 49.3343 81.4889 50.14577 81.94115 50.95723 82.66643 52.29532 83.11868 53.15549 83.57092 54.01566 84.29619 55.43369 84.74846 56.34532 85.2007 57.25697 85.92598 58.75967 86.37822 59.726 86.83049 60.69232 87.55576 62.28549 88.00801 63.30995 88.46027 64.33441 89.18553 66.02367 89.63779 67.10966 90.09003 68.19565 90.81532 69.986 91.26756 71.13704 91.71982 72.28809 92.4451 74.18555 92.89735 75.40561 93.3496 76.62567 94.07486 78.63695 94.52713 79.9304 94.97937 81.22385 95.70464 83.35689 96.1569 84.72787 96.60916 86.09885 97.33443 88.3583 97.78667 89.8115 98.23894 91.2647 98.9642 93.66109 99.41646 95.20154 99.8687 96.74196 100.594 99.2809 101.04623 100.91386 101.49849 102.54686 102.22377 105.23991 102.67601 106.97089 103.12827 108.70184 104.3058 113.38947 103.84956 111.57295"/>
<path transform="matrix(.24361192,-.96986946,-.96993729,-.24359487,120.12209,15.772125)" d="M1.27522 0C-.31879 .31879-1.91284 .9564-3.8257 2.07224-1.91284 .6376-1.91284-.6376-3.8257-2.07224-1.91284-.9564-.31879-.31879 1.27522 0Z" fill="#ff0000"/>
<path transform="matrix(.24361192,-.96986946,-.96993729,-.24359487,120.12209,15.772125)" stroke-width="1.19553" stroke-linecap="butt" stroke-linejoin="round" fill="none" stroke="#ff0000" d="M1.27522 0C-.31879 .31879-1.91284 .9564-3.8257 2.07224-1.91284 .6376-1.91284-.6376-3.8257-2.07224-1.91284-.9564-.31879-.31879 1.27522 0Z"/>
</svg>
