<svg xmlns="http://www.w3.org/2000/svg" xmlns:xlink="http://www.w3.org/1999/xlink" version="1.1" width="197" height="197" viewBox="0 0 197 197">
<defs>
<path id="font_1_1" d="M.33399964 .30233766C.33999635 .32835389 .36299134 .42037965 .43299867 .42037965 .43798829 .42037965 .46199037 .42037965 .48298646 .40734864 .45498658 .402359 .43499757 .37734986 .43499757 .35334779 .43499757 .33735658 .44599916 .31835938 .47299195 .31835938 .49499513 .31835938 .5269928 .3363495 .5269928 .37635804 .5269928 .42837525 .46798707 .4423828 .43399049 .4423828 .37599183 .4423828 .34098817 .38935853 .32899476 .36634828 .3039856 .43237306 .25 .4423828 .22099304 .4423828 .116989139 .4423828 .05999756 .3133545 .05999756 .28834535 .05999756 .27833558 .069992069 .27833558 .07199097 .27833558 .07998657 .27833558 .08299255 .28033448 .084991458 .28933717 .11898804 .39535523 .18499756 .42037965 .21899414 .42037965 .23799134 .42037965 .272995 .4113617 .272995 .35334779 .272995 .32235719 .2559967 .25532533 .21899414 .11528015 .20298767 .053268434 .16799927 .011245728 .12399292 .011245728 .117996219 .011245728 .09498596 .011245728 .07398987 .024276734 .09899902 .029266358 .12098694 .05027771 .12098694 .07827759 .12098694 .105270389 .09899902 .11328125 .083999637 .11328125 .053985597 .11328125 .0289917 .08728027 .0289917 .055267335 .0289917 .009246826 .07899475-.0107421879 .12298584-.0107421879 .18899536-.0107421879 .22499085 .059280397 .22799683 .0652771 .23999024 .028274537 .27598573-.0107421879 .33599855-.0107421879 .43899537-.0107421879 .49598695 .118270877 .49598695 .14328003 .49598695 .1532898 .4869995 .1532898 .48399354 .1532898 .47499085 .1532898 .47299195 .14929199 .47099305 .14228821 .43798829 .03527832 .36999513 .011245728 .33799745 .011245728 .29899598 .011245728 .2829895 .043273927 .2829895 .07727051 .2829895 .09927368 .2889862 .121276859 .2999878 .16529846L.33399964 .30233766Z"/>
<path id="font_1_2" d="M.48599244 .38136292C.48999024 .39537049 .48999024 .39736939 .48999024 .40437318 .48999024 .42237855 .47599793 .43138124 .46099855 .43138124 .45098878 .43138124 .43499757 .42536927 .42599488 .41036988 .42399598 .405365 .41600038 .37435914 .4119873 .35635377 .40499879 .33035279 .397995 .30334474 .3919983 .27633668L.34700013 .09628296C.34298707 .08126831 .2999878 .011245728 .23399353 .011245728 .18299866 .011245728 .17199707 .055267335 .17199707 .0922699 .17199707 .1382904 .18899536 .20030213 .22299195 .28833009 .23899842 .3293457 .24299622 .3403473 .24299622 .36035157 .24299622 .405365 .21099854 .4423828 .16099549 .4423828 .06599426 .4423828 .0289917 .29733277 .0289917 .28833009 .0289917 .27833558 .038986207 .27833558 .040985109 .27833558 .050994874 .27833558 .051986696 .28033448 .056991579 .29634095 .083999637 .3903656 .12399292 .42037965 .1579895 .42037965 .1659851 .42037965 .18299866 .42037965 .18299866 .3883667 .18299866 .36335755 .17298889 .3373413 .1659851 .31834413 .12599182 .21231079 .10798645 .1552887 .10798645 .10827637 .10798645 .019256592 .17098999-.0107421879 .22999573-.0107421879 .2689972-.0107421879 .30299378 .0062561037 .33099366 .03425598 .31799317-.017745972 .30599977-.06674194 .2659912-.11973572 .23999024-.15385437 .20199585-.18309021 .1559906-.18309021 .14199829-.18309021 .09700012-.18005371 .07998657-.14074707 .09599304-.14074707 .10899353-.14074707 .12298584-.1287384 .1329956-.11973572 .14299011-.10673523 .14299011-.08773804 .14299011-.056747438 .115997318-.052734376 .10598755-.052734376 .08299255-.052734376 .049987794-.068740848 .049987794-.11773682 .049987794-.16796875 .09399414-.20507813 .1559906-.20507813 .25898744-.20507813 .3619995-.11373901 .3899994-.00074768069L.48599244 .38136292Z"/>
<path id="font_2_1" d="M.6589966 .23046875C.6759949 .23046875 .69400027 .23046875 .69400027 .25045777 .69400027 .27046205 .6759949 .27046205 .6589966 .27046205H.117996219C.100997928 .27046205 .08299255 .27046205 .08299255 .25045777 .08299255 .23046875 .100997928 .23046875 .117996219 .23046875H.6589966Z"/>
<path id="font_3_1" d="M.44898988 .20022583C.44898988 .3193512 .36698915 .41944886 .25898744 .41944886 .21099854 .41944886 .16799927 .40345765 .13198853 .36842347V.5637665C.1519928 .5577698 .18499756 .55078127 .21699524 .55078127 .33999635 .55078127 .4099884 .6417694 .4099884 .6547699 .4099884 .6607666 .40699769 .6657715 .3999939 .6657715 .39898683 .6657715 .39698792 .6657715 .3919983 .66278079 .37199403 .6537781 .32299806 .6337738 .2559967 .6337738 .21598816 .6337738 .16999817 .6407776 .12298584 .6617737 .114990238 .66477969 .11299133 .66477969 .11099243 .66477969 .100997928 .66477969 .100997928 .6567688 .100997928 .6407776V.34439088C.100997928 .32637025 .100997928 .31835938 .114990238 .31835938 .12199402 .31835938 .12399292 .32136537 .12799073 .32736207 .13899231 .3433838 .17599488 .39746095 .25698854 .39746095 .30899049 .39746095 .33399964 .35139466 .34199525 .33337403 .35798646 .29632569 .3600006 .25727845 .3600006 .20722962 .3600006 .17222595 .3600006 .11222839 .33599855 .07035828 .31199647 .031463624 .2749939 .0055389406 .22898865 .0055389406 .1559906 .0055389406 .09899902 .058380128 .08198547 .11723328 .084991458 .1162262 .08799744 .115234378 .09899902 .115234378 .13198853 .115234378 .14898682 .14022827 .14898682 .16423035 .14898682 .18823242 .13198853 .21322632 .09899902 .21322632 .084991458 .21322632 .049987794 .20622254 .049987794 .16023255 .049987794 .07434082 .11898804-.022460938 .23098755-.022460938 .34700013-.022460938 .44898988 .073349 .44898988 .20022583Z"/>
</defs>
<path transform="matrix(1.00005,0,0,-1.00005,91.620929,107.1157)" stroke-width=".3985" stroke-linecap="butt" stroke-miterlimit="10" stroke-linejoin="miter" fill="none" stroke="#00aeef" d="M-85.04128-85.04128H85.04128M-85.04128-68.03302H85.04128M-85.04128-51.02477H85.04128M-85.04128-34.0165H85.04128M-85.04128-17.00824H85.04128M-85.04128 0H85.04128M-85.04128 17.00824H85.04128M-85.04128 34.0165H85.04128M-85.04128 51.02477H85.04128M-85.04128 68.03302H85.04128M-85.04128 85.0353H85.04128M-85.04128-85.04128V85.04128M-68.03302-85.04128V85.04128M-51.02477-85.04128V85.04128M-34.0165-85.04128V85.04128M-17.00824-85.04128V85.04128M0-85.04128V85.04128M17.00824-85.04128V85.04128M34.0165-85.04128V85.04128M51.02477-85.04128V85.04128M68.03302-85.04128V85.04128M85.0353-85.04128V85.04128M85.04128 85.04128"/>
<path transform="matrix(1.00005,0,0,-1.00005,91.620929,107.1157)" stroke-width=".79701" stroke-linecap="butt" stroke-miterlimit="10" stroke-linejoin="miter" fill="none" stroke="#000000" d="M-85.04128 0H93.81172"/>
<path transform="matrix(1.00005,0,0,-1.00005,185.43733,107.1157)" d="M1.0361 0C-.25902 .25902-1.55415 .77707-3.1083 1.68365-1.55415 .51805-1.55415-.51805-3.1083-1.68365-1.55415-.77707-.25902-.25902 1.0361 0Z"/>
<path transform="matrix(1.00005,0,0,-1.00005,185.43733,107.1157)" stroke-width=".79701" stroke-linecap="butt" stroke-linejoin="round" fill="none" stroke="#000000" d="M1.0361 0C-.25902 .25902-1.55415 .77707-3.1083 1.68365-1.55415 .51805-1.55415-.51805-3.1083-1.68365-1.55415-.77707-.25902-.25902 1.0361 0Z"/>
<use data-text="x" xlink:href="#font_1_1" transform="matrix(9.963098,0,0,-9.963098,190.59087,109.2608)"/>
<path transform="matrix(1.00005,0,0,-1.00005,91.620929,107.1157)" stroke-width=".79701" stroke-linecap="butt" stroke-miterlimit="10" stroke-linejoin="miter" fill="none" stroke="#000000" d="M0-85.04128V93.81172"/>
<path transform="matrix(0,-1.00005,-1.00005,-0,91.620929,13.2992939)" d="M1.0361 0C-.25902 .25902-1.55415 .77707-3.1083 1.68365-1.55415 .51805-1.55415-.51805-3.1083-1.68365-1.55415-.77707-.25902-.25902 1.0361 0Z"/>
<path transform="matrix(0,-1.00005,-1.00005,-0,91.620929,13.2992939)" stroke-width=".79701" stroke-linecap="butt" stroke-linejoin="round" fill="none" stroke="#000000" d="M1.0361 0C-.25902 .25902-1.55415 .77707-3.1083 1.68365-1.55415 .51805-1.55415-.51805-3.1083-1.68365-1.55415-.77707-.25902-.25902 1.0361 0Z"/>
<use data-text="y" xlink:href="#font_1_2" transform="matrix(9.963098,0,0,-9.963098,88.999797,6.207657)"/>
<path transform="matrix(1.00005,0,0,-1.00005,91.620929,107.1157)" stroke-width=".3985" stroke-linecap="butt" stroke-miterlimit="10" stroke-linejoin="miter" fill="none" stroke="#000000" d="M-85.04128 1.70091V-1.70065"/>
<path transform="matrix(1.00005,0,0,-1.00005,91.620929,107.1157)" d="M-92.40266-13.13568H-77.67988V-3.8924504H-92.40266Z" fill="#ffffff"/>
<use data-text="&#x2212;" xlink:href="#font_2_1" transform="matrix(9.963098,0,0,-9.963098,.21037293,118.42526)"/>
<use data-text="5" xlink:href="#font_3_1" transform="matrix(9.963098,0,0,-9.963098,7.9587557,118.42526)"/>
<path transform="matrix(1.00005,0,0,-1.00005,91.620929,107.1157)" stroke-width=".3985" stroke-linecap="butt" stroke-miterlimit="10" stroke-linejoin="miter" fill="none" stroke="#000000" d="M1.70091-85.04128H-1.70065"/>
<path transform="matrix(1.00005,0,0,-1.00005,91.620929,107.1157)" d="M-18.61523-89.66289H-3.8924504V-80.419658H-18.61523Z" fill="#ffffff"/>
<use data-text="&#x2212;" xlink:href="#font_2_1" transform="matrix(9.963098,0,0,-9.963098,74.001049,194.95609)"/>
<use data-text="5" xlink:href="#font_3_1" transform="matrix(9.963098,0,0,-9.963098,81.74943,194.95609)"/>
<path transform="matrix(1.00005,0,0,-1.00005,91.620929,107.1157)" stroke-width=".3985" stroke-linecap="butt" stroke-miterlimit="10" stroke-linejoin="miter" fill="none" stroke="#000000" d="M85.04128 1.70091V-1.70065"/>
<path transform="matrix(1.00005,0,0,-1.00005,91.620929,107.1157)" d="M81.5543-12.30545H88.52824V-3.8924704H81.5543Z" fill="#ffffff"/>
<use data-text="5" xlink:href="#font_3_1" transform="matrix(9.963098,0,0,-9.963098,174.17606,118.42526)"/>
<path transform="matrix(1.00005,0,0,-1.00005,91.620929,107.1157)" stroke-width=".3985" stroke-linecap="butt" stroke-miterlimit="10" stroke-linejoin="miter" fill="none" stroke="#000000" d="M1.70091 85.04128H-1.70065"/>
<path transform="matrix(1.00005,0,0,-1.00005,91.620929,107.1157)" d="M-10.8664 80.83478H-3.8924599V89.24776H-10.8664Z" fill="#ffffff"/>
<use data-text="5" xlink:href="#font_3_1" transform="matrix(9.963098,0,0,-9.963098,81.750438,25.28061)"/>
<path transform="matrix(1.00005,0,0,-1.00005,91.620929,107.1157)" stroke-width=".3985" stroke-linecap="butt" stroke-miterlimit="10" stroke-linejoin="miter" fill="none" stroke="#929292" d="M-48.1064-41.66133H48.1064V41.66133H-48.1064Z"/>
<path transform="matrix(1.00005,0,0,-1.00005,91.620929,107.1157)" stroke-width=".3985" stroke-linecap="butt" stroke-dasharray="2.98883,2.98883" stroke-miterlimit="10" stroke-linejoin="miter" fill="none" stroke="#929292" d="M-85.04128-73.64784 85.04128 73.64784"/>
<path transform="matrix(1.00005,0,0,-1.00005,91.620929,107.1157)" stroke-width=".3985" stroke-linecap="butt" stroke-dasharray="2.98883,2.98883" stroke-miterlimit="10" stroke-linejoin="miter" fill="none" stroke="#929292" d="M-85.04128 73.64784 85.04128-73.64784"/>
<path transform="matrix(1.00005,0,0,-1.00005,91.620929,107.1157)" stroke-width="1.19553" stroke-linecap="butt" stroke-miterlimit="10" stroke-linejoin="miter" fill="none" stroke="#ff0000" d="M-80.19603 80.99101C-78.94707 80.0625-78.94707 80.0625-77.91444 79.30188-76.88182 78.54123-75.25432 77.35136-74.2567 76.62616-73.25908 75.90094-71.6886 74.76567-70.72429 74.07503-69.75998 73.38438-68.23952 72.30547-67.3066 71.64847-66.3737 70.99147-64.90329 69.9648-64.00052 69.33972-63.09775 68.71465-61.67409 67.73724-60.80005 67.14336-59.92601 66.54947-58.54788 65.6228-57.70105 65.05937-56.8542 64.49596-55.51802 63.61653-54.69653 63.08257-53.87503 62.5486-52.57729 61.7161-51.78023 61.21086-50.98318 60.70563-49.72568 59.91922-48.95193 59.44118-48.17818 58.96312-46.95569 58.21675-46.20355 57.76541-45.45142 57.31409-44.26262 56.6132-43.53096 56.18826-42.7993 55.76334-41.64226 55.10258-40.93025 54.70276-40.21826 54.30292-39.09325 53.68138-38.39935 53.3065-37.70547 52.93163-36.6064 52.35133-35.9292 52.00082-35.25198 51.65033-34.17946 51.1076-33.51846 50.78029-32.8575 50.45297-31.81136 49.9463-31.16536 49.64175-30.51936 49.33719-29.49518 48.86702-28.86258 48.58522-28.22998 48.3034-27.22614 47.87018-26.606 47.6107-25.98587 47.35124-25.00113 46.9532-24.39302 46.71507-23.78493 46.47696-22.82039 46.11162-22.22314 45.89445-21.62592 45.6773-20.67632 45.34616-20.08855 45.14989-19.5008 44.9536-18.5661 44.65529-17.98691 44.47978-17.40771 44.30429-16.48543 44.04033-15.91408 43.88496-15.34274 43.72958-14.43338 43.49542-13.86902 43.35992-13.30466 43.22443-12.40517 43.02382-11.84654 42.90836-11.2879 42.79288-10.39636 42.62376-9.84274 42.52763-9.28911 42.4315-8.40611 42.29198-7.85632 42.21542-7.30656 42.13889-6.42702 42.03304-5.88031 41.97589-5.33359 41.91875-4.46011 41.84183-3.91595 41.80356-3.37181 41.76529-2.50119 41.71912-1.95836 41.70001-1.41554 41.68088-.54428 41.66576-.00362 41.66576 .53702 41.66576 1.39699 41.68124 1.93839 41.70001 2.47975 41.71875 3.35393 41.76323 3.89832 41.80096 4.44267 41.8387 5.31567 41.91464 5.8619 41.97198 6.4081 42.02934 7.28539 42.13783 7.83507 42.2144 8.38472 42.29094 9.2697 42.42805 9.82355 42.52374 10.37738 42.61942 11.2683 42.78859 11.82681 42.90395 12.38533 43.01932 13.28482 43.21986 13.84904 43.35526 14.41325 43.49065 15.32205 43.72443 15.89333 43.87976 16.4646 44.0351 17.38739 44.2995 17.9664 44.47485 18.54544 44.6502 19.47905 44.94766 20.0665 45.14365 20.65393 45.33963 21.60289 45.67075 22.2003 45.88745 22.79771 46.10414 23.76382 46.46771 24.37227 46.70547 24.9807 46.94324 25.96587 47.34145 26.5855 47.60109 27.20515 47.86076 28.20581 48.29518 28.8382 48.5769 29.47057 48.85863 30.49704 49.32751 31.1433 49.63162 31.78954 49.93575 32.83513 50.4418 33.4959 50.76888 34.15665 51.09593 35.22862 51.63853 35.9056 51.98889 36.58255 52.33925 37.68127 52.91939 38.37497 53.29404 39.06866 53.6687 40.19363 54.2897 40.90533 54.68924 41.61705 55.0888 42.77312 55.74905 43.50449 56.17374 44.23587 56.59843 45.42442 57.29941 46.17656 57.7501 46.92871 58.20078 48.15154 58.94423 48.92545 59.42195 49.69939 59.89967 50.95811 60.68788 51.75455 61.19322 52.55098 61.69856 53.84486 62.53027 54.66563 63.06413 55.48642 63.598 56.8231 64.47795 57.67015 65.04094 58.51723 65.60394 59.89667 66.52847 60.7707 67.12183 61.64474 67.71516 63.06747 68.69278 63.96964 69.31741 64.8718 69.94205 66.34035 70.96716 67.27287 71.62381 68.20537 72.28046 69.72636 73.35968 70.69057 74.05011 71.65475 74.74054 73.225 75.8751 74.22218 76.59995 75.21936 77.32481 76.8456 78.51414 77.87758 79.27435 78.90959 80.03458 81.66017 82.07904 80.15701 80.96179"/>
<path transform="matrix(-.80254009,-.5965998,-.5965998,.80254009,11.420891,26.120659)" d="M1.27522 0C-.31879 .31879-1.91284 .9564-3.8257 2.07224-1.91284 .6376-1.91284-.6376-3.8257-2.07224-1.91284-.9564-.31879-.31879 1.27522 0Z" fill="#ff0000"/>
<path transform="matrix(-.80254009,-.5965998,-.5965998,.80254009,11.420891,26.120659)" stroke-width="1.19553" stroke-linecap="butt" stroke-linejoin="round" fill="none" stroke="#ff0000" d="M1.27522 0C-.31879 .31879-1.91284 .9564-3.8257 2.07224-1.91284 .6376-1.91284-.6376-3.8257-2.07224-1.91284-.9564-.31879-.31879 1.27522 0Z"/>
<path transform="matrix(.80259016,-.5965398,-.5965398,-.80259016,171.78192,26.149865)" d="M1.27522 0C-.31879 .31879-1.91284 .9564-3.8257 2.07224-1.91284 .6376-1.91284-.6376-3.8257-2.07224-1.91284-.9564-.31879-.31879 1.27522 0Z" fill="#ff0000"/>
<path transform="matrix(.80259016,-.5965398,-.5965398,-.80259016,171.78192,26.149865)" stroke-width="1.19553" stroke-linecap="butt" stroke-linejoin="round" fill="none" stroke="#ff0000" d="M1.27522 0C-.31879 .31879-1.91284 .9564-3.8257 2.07224-1.91284 .6376-1.91284-.6376-3.8257-2.07224-1.91284-.9564-.31879-.31879 1.27522 0Z"/>
<path transform="matrix(1.00005,0,0,-1.00005,91.620929,107.1157)" stroke-width="1.19553" stroke-linecap="butt" stroke-miterlimit="10" stroke-linejoin="miter" fill="none" stroke="#ff0000" d="M-80.19603-80.99101C-78.94707-80.0625-78.94707-80.0625-77.91444-79.30188-76.88182-78.54123-75.25432-77.35136-74.2567-76.62616-73.25908-75.90094-71.6886-74.76567-70.72429-74.07503-69.75998-73.38438-68.23952-72.30547-67.3066-71.64847-66.3737-70.99147-64.90329-69.9648-64.00052-69.33972-63.09775-68.71465-61.67409-67.73724-60.80005-67.14336-59.92601-66.54947-58.54788-65.6228-57.70105-65.05937-56.8542-64.49596-55.51802-63.61653-54.69653-63.08257-53.87503-62.5486-52.57729-61.7161-51.78023-61.21086-50.98318-60.70563-49.72568-59.91922-48.95193-59.44118-48.17818-58.96312-46.95569-58.21675-46.20355-57.76541-45.45142-57.31409-44.26262-56.6132-43.53096-56.18826-42.7993-55.76334-41.64226-55.10258-40.93025-54.70276-40.21826-54.30292-39.09325-53.68138-38.39935-53.3065-37.70547-52.93163-36.6064-52.35133-35.9292-52.00082-35.25198-51.65033-34.17946-51.1076-33.51846-50.78029-32.8575-50.45297-31.81136-49.9463-31.16536-49.64175-30.51936-49.33719-29.49518-48.86702-28.86258-48.58522-28.22998-48.3034-27.22614-47.87018-26.606-47.6107-25.98587-47.35124-25.00113-46.9532-24.39302-46.71507-23.78493-46.47696-22.82039-46.11162-22.22314-45.89445-21.62592-45.6773-20.67632-45.34616-20.08855-45.14989-19.5008-44.9536-18.5661-44.65529-17.98691-44.47978-17.40771-44.30429-16.48543-44.04033-15.91408-43.88496-15.34274-43.72958-14.43338-43.49542-13.86902-43.35992-13.30466-43.22443-12.40517-43.02382-11.84654-42.90836-11.2879-42.79288-10.39636-42.62376-9.84274-42.52763-9.28911-42.4315-8.40611-42.29198-7.85632-42.21542-7.30656-42.13889-6.42702-42.03304-5.88031-41.97589-5.33359-41.91875-4.46011-41.84183-3.91595-41.80356-3.37181-41.76529-2.50119-41.71912-1.95836-41.70001-1.41554-41.68088-.54428-41.66576-.00362-41.66576 .53702-41.66576 1.39699-41.68124 1.93839-41.70001 2.47975-41.71875 3.35393-41.76323 3.89832-41.80096 4.44267-41.8387 5.31567-41.91464 5.8619-41.97198 6.4081-42.02934 7.28539-42.13783 7.83507-42.2144 8.38472-42.29094 9.2697-42.42805 9.82355-42.52374 10.37738-42.61942 11.2683-42.78859 11.82681-42.90395 12.38533-43.01932 13.28482-43.21986 13.84904-43.35526 14.41325-43.49065 15.32205-43.72443 15.89333-43.87976 16.4646-44.0351 17.38739-44.2995 17.9664-44.47485 18.54544-44.6502 19.47905-44.94766 20.0665-45.14365 20.65393-45.33963 21.60289-45.67075 22.2003-45.88745 22.79771-46.10414 23.76382-46.46771 24.37227-46.70547 24.9807-46.94324 25.96587-47.34145 26.5855-47.60109 27.20515-47.86076 28.20581-48.29518 28.8382-48.5769 29.47057-48.85863 30.49704-49.32751 31.1433-49.63162 31.78954-49.93575 32.83513-50.4418 33.4959-50.76888 34.15665-51.09593 35.22862-51.63853 35.9056-51.98889 36.58255-52.33925 37.68127-52.91939 38.37497-53.29404 39.06866-53.6687 40.19363-54.2897 40.90533-54.68924 41.61705-55.0888 42.77312-55.74905 43.50449-56.17374 44.23587-56.59843 45.42442-57.29941 46.17656-57.7501 46.92871-58.20078 48.15154-58.94423 48.92545-59.42195 49.69939-59.89967 50.95811-60.68788 51.75455-61.19322 52.55098-61.69856 53.84486-62.53027 54.66563-63.06413 55.48642-63.598 56.8231-64.47795 57.67015-65.04094 58.51723-65.60394 59.89667-66.52847 60.7707-67.12183 61.64474-67.71516 63.06747-68.69278 63.96964-69.31741 64.8718-69.94205 66.34035-70.96716 67.27287-71.62381 68.20537-72.28046 69.72636-73.35968 70.69057-74.05011 71.65475-74.74054 73.225-75.8751 74.22218-76.59995 75.21936-77.32481 76.8456-78.51414 77.87758-79.27435 78.90959-80.03458 81.66017-82.07904 80.15701-80.96179"/>
<path transform="matrix(-.80254009,.5965998,.5965998,.80254009,11.420891,188.11075)" d="M1.27522 0C-.31879 .31879-1.91284 .9564-3.8257 2.07224-1.91284 .6376-1.91284-.6376-3.8257-2.07224-1.91284-.9564-.31879-.31879 1.27522 0Z" fill="#ff0000"/>
<path transform="matrix(-.80254009,.5965998,.5965998,.80254009,11.420891,188.11075)" stroke-width="1.19553" stroke-linecap="butt" stroke-linejoin="round" fill="none" stroke="#ff0000" d="M1.27522 0C-.31879 .31879-1.91284 .9564-3.8257 2.07224-1.91284 .6376-1.91284-.6376-3.8257-2.07224-1.91284-.9564-.31879-.31879 1.27522 0Z"/>
<path transform="matrix(.80259016,.5965398,.5965398,-.80259016,171.78192,188.08155)" d="M1.27522 0C-.31879 .31879-1.91284 .9564-3.8257 2.07224-1.91284 .6376-1.91284-.6376-3.8257-2.07224-1.91284-.9564-.31879-.31879 1.27522 0Z" fill="#ff0000"/>
<path transform="matrix(.80259016,.5965398,.5965398,-.80259016,171.78192,188.08155)" stroke-width="1.19553" stroke-linecap="butt" stroke-linejoin="round" fill="none" stroke="#ff0000" d="M1.27522 0C-.31879 .31879-1.91284 .9564-3.8257 2.07224-1.91284 .6376-1.91284-.6376-3.8257-2.07224-1.91284-.9564-.31879-.31879 1.27522 0Z"/>
</svg>
