<svg xmlns="http://www.w3.org/2000/svg" xmlns:xlink="http://www.w3.org/1999/xlink" version="1.1" width="262" height="228" viewBox="0 0 262 228">
<defs>
<path id="font_1_1" d="M.33399964 .30233766C.33999635 .32835389 .36299134 .42037965 .43299867 .42037965 .43798829 .42037965 .46199037 .42037965 .48298646 .40734864 .45498658 .402359 .43499757 .37734986 .43499757 .35334779 .43499757 .33735658 .44599916 .31835938 .47299195 .31835938 .49499513 .31835938 .5269928 .3363495 .5269928 .37635804 .5269928 .42837525 .46798707 .4423828 .43399049 .4423828 .37599183 .4423828 .34098817 .38935853 .32899476 .36634828 .3039856 .43237306 .25 .4423828 .22099304 .4423828 .116989139 .4423828 .05999756 .3133545 .05999756 .28834535 .05999756 .27833558 .069992069 .27833558 .07199097 .27833558 .07998657 .27833558 .08299255 .28033448 .084991458 .28933717 .11898804 .39535523 .18499756 .42037965 .21899414 .42037965 .23799134 .42037965 .272995 .4113617 .272995 .35334779 .272995 .32235719 .2559967 .25532533 .21899414 .11528015 .20298767 .053268434 .16799927 .011245728 .12399292 .011245728 .117996219 .011245728 .09498596 .011245728 .07398987 .024276734 .09899902 .029266358 .12098694 .05027771 .12098694 .07827759 .12098694 .105270389 .09899902 .11328125 .083999637 .11328125 .053985597 .11328125 .0289917 .08728027 .0289917 .055267335 .0289917 .009246826 .07899475-.0107421879 .12298584-.0107421879 .18899536-.0107421879 .22499085 .059280397 .22799683 .0652771 .23999024 .028274537 .27598573-.0107421879 .33599855-.0107421879 .43899537-.0107421879 .49598695 .118270877 .49598695 .14328003 .49598695 .1532898 .4869995 .1532898 .48399354 .1532898 .47499085 .1532898 .47299195 .14929199 .47099305 .14228821 .43798829 .03527832 .36999513 .011245728 .33799745 .011245728 .29899598 .011245728 .2829895 .043273927 .2829895 .07727051 .2829895 .09927368 .2889862 .121276859 .2999878 .16529846L.33399964 .30233766Z"/>
<path id="font_1_2" d="M.48599244 .38136292C.48999024 .39537049 .48999024 .39736939 .48999024 .40437318 .48999024 .42237855 .47599793 .43138124 .46099855 .43138124 .45098878 .43138124 .43499757 .42536927 .42599488 .41036988 .42399598 .405365 .41600038 .37435914 .4119873 .35635377 .40499879 .33035279 .397995 .30334474 .3919983 .27633668L.34700013 .09628296C.34298707 .08126831 .2999878 .011245728 .23399353 .011245728 .18299866 .011245728 .17199707 .055267335 .17199707 .0922699 .17199707 .1382904 .18899536 .20030213 .22299195 .28833009 .23899842 .3293457 .24299622 .3403473 .24299622 .36035157 .24299622 .405365 .21099854 .4423828 .16099549 .4423828 .06599426 .4423828 .0289917 .29733277 .0289917 .28833009 .0289917 .27833558 .038986207 .27833558 .040985109 .27833558 .050994874 .27833558 .051986696 .28033448 .056991579 .29634095 .083999637 .3903656 .12399292 .42037965 .1579895 .42037965 .1659851 .42037965 .18299866 .42037965 .18299866 .3883667 .18299866 .36335755 .17298889 .3373413 .1659851 .31834413 .12599182 .21231079 .10798645 .1552887 .10798645 .10827637 .10798645 .019256592 .17098999-.0107421879 .22999573-.0107421879 .2689972-.0107421879 .30299378 .0062561037 .33099366 .03425598 .31799317-.017745972 .30599977-.06674194 .2659912-.11973572 .23999024-.15385437 .20199585-.18309021 .1559906-.18309021 .14199829-.18309021 .09700012-.18005371 .07998657-.14074707 .09599304-.14074707 .10899353-.14074707 .12298584-.1287384 .1329956-.11973572 .14299011-.10673523 .14299011-.08773804 .14299011-.056747438 .115997318-.052734376 .10598755-.052734376 .08299255-.052734376 .049987794-.068740848 .049987794-.11773682 .049987794-.16796875 .09399414-.20507813 .1559906-.20507813 .25898744-.20507813 .3619995-.11373901 .3899994-.00074768069L.48599244 .38136292Z"/>
<path id="font_2_3" d="M.44898988 .20022583C.44898988 .3193512 .36698915 .41944886 .25898744 .41944886 .21099854 .41944886 .16799927 .40345765 .13198853 .36842347V.5637665C.1519928 .5577698 .18499756 .55078127 .21699524 .55078127 .33999635 .55078127 .4099884 .6417694 .4099884 .6547699 .4099884 .6607666 .40699769 .6657715 .3999939 .6657715 .39898683 .6657715 .39698792 .6657715 .3919983 .66278079 .37199403 .6537781 .32299806 .6337738 .2559967 .6337738 .21598816 .6337738 .16999817 .6407776 .12298584 .6617737 .114990238 .66477969 .11299133 .66477969 .11099243 .66477969 .100997928 .66477969 .100997928 .6567688 .100997928 .6407776V.34439088C.100997928 .32637025 .100997928 .31835938 .114990238 .31835938 .12199402 .31835938 .12399292 .32136537 .12799073 .32736207 .13899231 .3433838 .17599488 .39746095 .25698854 .39746095 .30899049 .39746095 .33399964 .35139466 .34199525 .33337403 .35798646 .29632569 .3600006 .25727845 .3600006 .20722962 .3600006 .17222595 .3600006 .11222839 .33599855 .07035828 .31199647 .031463624 .2749939 .0055389406 .22898865 .0055389406 .1559906 .0055389406 .09899902 .058380128 .08198547 .11723328 .084991458 .1162262 .08799744 .115234378 .09899902 .115234378 .13198853 .115234378 .14898682 .14022827 .14898682 .16423035 .14898682 .18823242 .13198853 .21322632 .09899902 .21322632 .084991458 .21322632 .049987794 .20622254 .049987794 .16023255 .049987794 .07434082 .11898804-.022460938 .23098755-.022460938 .34700013-.022460938 .44898988 .073349 .44898988 .20022583Z"/>
<path id="font_2_2" d="M.2939911 .64004519C.2939911 .66400149 .2939911 .6660156 .2709961 .6660156 .20899964 .60227969 .12098694 .60227969 .08898926 .60227969V.57128909C.10899353 .57128909 .16799927 .57128909 .21998596 .5972748V.07902527C.21998596 .042999269 .21699524 .0309906 .1269989 .0309906H.09498596V0C.12998963 .0029907227 .21699524 .0029907227 .25698854 .0029907227 .29699708 .0029907227 .38398744 .0029907227 .4189911 0V.0309906H.3869934C.29699708 .0309906 .2939911 .041992189 .2939911 .07902527V.64004519Z"/>
<path id="font_2_1" d="M.45999146 .31976319C.45999146 .39982606 .45498658 .47988893 .41999818 .5539398 .37399293 .65000918 .2919922 .6660156 .25 .6660156 .18998719 .6660156 .116989139 .64001467 .07598877 .54693606 .04399109 .47789 .038986207 .39982606 .038986207 .31976319 .038986207 .24472046 .042999269 .15464783 .083999637 .07859802 .1269989-.0024719239 .19999695-.022460938 .24899292-.022460938 .30299378-.022460938 .3789978-.0014648438 .4229889 .09359741 .45498658 .16265869 .45999146 .2407074 .45999146 .31976319M.24899292-.00047302247C.20999146-.00047302247 .15098572 .024551392 .1329956 .12062073 .12199402 .18066406 .12199402 .2727356 .12199402 .3317871 .12199402 .39582826 .12199402 .46188355 .12998963 .5159149 .14898682 .63500979 .22399903 .64401248 .24899292 .64401248 .28199769 .64401248 .34799195 .6259918 .36698915 .52693179 .3769989 .47088624 .3769989 .39482118 .3769989 .3317871 .3769989 .25672914 .3769989 .18867493 .3659973 .12461853 .35099793 .029556275 .2939911-.00047302247 .24899292-.00047302247Z"/>
<path id="font_3_1" d="M.6589966 .23046875C.6759949 .23046875 .69400027 .23046875 .69400027 .25045777 .69400027 .27046205 .6759949 .27046205 .6589966 .27046205H.117996219C.100997928 .27046205 .08299255 .27046205 .08299255 .25045777 .08299255 .23046875 .100997928 .23046875 .117996219 .23046875H.6589966Z"/>
</defs>
<path transform="matrix(1.00009,0,0,-1.00003,71.78311,124.123348)" stroke-width=".3985" stroke-linecap="butt" stroke-miterlimit="10" stroke-linejoin="miter" fill="none" stroke="#00aeef" d="M-68.03302-102.04953H170.08257M-68.03302-85.04128H170.08257M-68.03302-68.03302H170.08257M-68.03302-51.02477H170.08257M-68.03302-34.0165H170.08257M-68.03302-17.00824H170.08257M-68.03302 0H170.08257M-68.03302 17.00824H170.08257M-68.03302 34.0165H170.08257M-68.03302 51.02477H170.08257M-68.03302 68.03302H170.08257M-68.03302 85.04128H170.08257M-68.03302 102.04356H170.08257M-68.03302-102.04953V102.04953M-51.02477-102.04953V102.04953M-34.0165-102.04953V102.04953M-17.00824-102.04953V102.04953M0-102.04953V102.04953M17.00824-102.04953V102.04953M34.0165-102.04953V102.04953M51.02477-102.04953V102.04953M68.03302-102.04953V102.04953M85.04128-102.04953V102.04953M102.04953-102.04953V102.04953M119.0578-102.04953V102.04953M136.06606-102.04953V102.04953M153.07433-102.04953V102.04953M170.0766-102.04953V102.04953M170.08257 102.04953"/>
<path transform="matrix(1.00009,0,0,-1.00003,71.78311,124.123348)" stroke-width=".79701" stroke-linecap="butt" stroke-miterlimit="10" stroke-linejoin="miter" fill="none" stroke="#000000" d="M-68.03302 0H178.85301"/>
<path transform="matrix(1.00009,0,0,-1.00003,250.65222,124.123348)" d="M1.0361 0C-.25902 .25902-1.55415 .77707-3.1083 1.68365-1.55415 .51805-1.55415-.51805-3.1083-1.68365-1.55415-.77707-.25902-.25902 1.0361 0Z"/>
<path transform="matrix(1.00009,0,0,-1.00003,250.65222,124.123348)" stroke-width=".79701" stroke-linecap="butt" stroke-linejoin="round" fill="none" stroke="#000000" d="M1.0361 0C-.25902 .25902-1.55415 .77707-3.1083 1.68365-1.55415 .51805-1.55415-.51805-3.1083-1.68365-1.55415-.77707-.25902-.25902 1.0361 0Z"/>
<use data-text="x" xlink:href="#font_1_1" transform="matrix(9.963496,0,0,-9.962899,255.80667,126.26841)"/>
<path transform="matrix(1.00009,0,0,-1.00003,71.78311,124.123348)" stroke-width=".79701" stroke-linecap="butt" stroke-miterlimit="10" stroke-linejoin="miter" fill="none" stroke="#000000" d="M0-102.04953V110.81998"/>
<path transform="matrix(0,-1.00003,-1.00009,-0,71.78311,13.300041)" d="M1.0361 0C-.25902 .25902-1.55415 .77707-3.1083 1.68365-1.55415 .51805-1.55415-.51805-3.1083-1.68365-1.55415-.77707-.25902-.25902 1.0361 0Z"/>
<path transform="matrix(0,-1.00003,-1.00009,-0,71.78311,13.300041)" stroke-width=".79701" stroke-linecap="butt" stroke-linejoin="round" fill="none" stroke="#000000" d="M1.0361 0C-.25902 .25902-1.55415 .77707-3.1083 1.68365-1.55415 .51805-1.55415-.51805-3.1083-1.68365-1.55415-.77707-.25902-.25902 1.0361 0Z"/>
<use data-text="y" xlink:href="#font_1_2" transform="matrix(9.963496,0,0,-9.962899,69.16187,6.2088015)"/>
<path transform="matrix(1.00009,0,0,-1.00003,71.78311,124.123348)" stroke-width=".3985" stroke-linecap="butt" stroke-miterlimit="10" stroke-linejoin="miter" fill="none" stroke="#000000" d="M85.04128 1.70091V-1.70065"/>
<path transform="matrix(1.00009,0,0,-1.00003,71.78311,124.123348)" d="M81.5543-12.30545H88.52824V-3.8924704H81.5543Z" fill="#ffffff"/>
<use data-text="5" xlink:href="#font_2_3" transform="matrix(9.963496,0,0,-9.962899,154.34156,135.43268)"/>
<path transform="matrix(1.00009,0,0,-1.00003,71.78311,124.123348)" stroke-width=".3985" stroke-linecap="butt" stroke-miterlimit="10" stroke-linejoin="miter" fill="none" stroke="#000000" d="M170.08257 1.70091V-1.70065"/>
<path transform="matrix(1.00009,0,0,-1.00003,71.78311,124.123348)" d="M164.10489-12.30545H176.06023V-3.8924704H164.10489Z" fill="#ffffff"/>
<use data-text="1" xlink:href="#font_2_2" transform="matrix(9.963496,0,0,-9.962899,236.89897,135.43268)"/>
<use data-text="0" xlink:href="#font_2_1" transform="matrix(9.963496,0,0,-9.962899,241.8807,135.43268)"/>
<path transform="matrix(1.00009,0,0,-1.00003,71.78311,124.123348)" stroke-width=".3985" stroke-linecap="butt" stroke-miterlimit="10" stroke-linejoin="miter" fill="none" stroke="#000000" d="M1.70091-85.04128H-1.70065"/>
<path transform="matrix(1.00009,0,0,-1.00003,71.78311,124.123348)" d="M-18.61523-89.66289H-3.8924504V-80.419658H-18.61523Z" fill="#ffffff"/>
<use data-text="&#x2212;" xlink:href="#font_3_1" transform="matrix(9.963496,0,0,-9.962899,54.16253,211.96198)"/>
<use data-text="5" xlink:href="#font_2_3" transform="matrix(9.963496,0,0,-9.962899,61.911218,211.96198)"/>
<path transform="matrix(1.00009,0,0,-1.00003,71.78311,124.123348)" stroke-width=".3985" stroke-linecap="butt" stroke-miterlimit="10" stroke-linejoin="miter" fill="none" stroke="#000000" d="M1.70091 85.04128H-1.70065"/>
<path transform="matrix(1.00009,0,0,-1.00003,71.78311,124.123348)" d="M-10.8664 80.83478H-3.8924599V89.24776H-10.8664Z" fill="#ffffff"/>
<use data-text="5" xlink:href="#font_2_3" transform="matrix(9.963496,0,0,-9.962899,61.912225,42.289888)"/>
<g>
<path transform="matrix(1.00009,0,0,-1.00003,71.78311,124.123348)" d="M-2.76004-38.03136V38.03136H104.80957V-38.03136ZM104.80957 38.03136" fill="#42c8f4" fill-opacity=".3"/>
<path transform="matrix(1.00009,0,0,-1.00003,71.78311,124.123348)" stroke-width="1.19553" stroke-linecap="butt" stroke-miterlimit="10" stroke-linejoin="miter" fill="none" stroke="#42c8f4" stroke-opacity=".3" d="M-2.76004-38.03136V38.03136H104.80957V-38.03136ZM104.80957 38.03136"/>
</g>
<path transform="matrix(1.00009,0,0,-1.00003,71.78311,124.123348)" stroke-width=".3985" stroke-linecap="butt" stroke-dasharray="2.98883,2.98883" stroke-miterlimit="10" stroke-linejoin="miter" fill="none" stroke="#929292" d="M-68.03302-84.18848 170.08257 84.18848"/>
<path transform="matrix(1.00009,0,0,-1.00003,71.78311,124.123348)" stroke-width=".3985" stroke-linecap="butt" stroke-dasharray="2.98883,2.98883" stroke-miterlimit="10" stroke-linejoin="miter" fill="none" stroke="#929292" d="M-68.03302 84.18848 170.08257-84.18848"/>
<path transform="matrix(1.00009,0,0,-1.00003,71.78311,124.123348)" stroke-width="1.19553" stroke-linecap="butt" stroke-miterlimit="10" stroke-linejoin="miter" fill="none" stroke="#ff0000" d="M-68.39055 92.60918C-65.39578 90.67848-65.39578 90.67848-63.6922 89.58789-61.9886 88.49731-59.3171 86.79713-57.68625 85.7638-56.05544 84.73047-53.50023 83.11917-51.93828 82.14029-50.37634 81.16144-47.92542 79.63515-46.42883 78.70886-44.93224 77.78258-42.5865 76.34047-41.15189 75.46426-39.71727 74.58806-37.46565 73.22209-36.08907 72.39381-34.7125 71.56555-32.5515 70.27673-31.2305 69.49466-29.90948 68.71259-27.83754 67.49481-26.56813 66.75719-25.29872 66.01956-23.30211 64.87306-22.08144 64.17828-20.86078 63.4835-18.94412 62.40385-17.77046 61.74963-16.5968 61.09544-14.7531 60.07797-13.62247 59.46321-12.49184 58.84848-10.71179 57.89558-9.62163 57.31902-8.53148 56.74246-6.817 55.84758-5.76534 55.30771-4.71367 54.76784-3.05766 53.9324-2.04192 53.42796-1.0262 52.92352 .57297 52.14227 1.55533 51.67201 2.53766 51.20175 4.08646 50.47559 5.03816 50.03856 5.98987 49.60152 7.49176 48.92719 8.41458 48.52216 9.3374 48.11713 10.79333 47.49326 11.68927 47.11942 12.58519 46.74559 14.00053 46.17146 14.87183 45.82776 15.74313 45.48405 17.12047 44.95674 17.96901 44.64224 18.81754 44.32776 20.15923 43.8465 20.98753 43.56107 21.81584 43.27563 23.12915 42.8424 23.93887 42.58499 24.74858 42.32756 26.03062 41.93591 26.82349 41.7057 27.61636 41.47551 28.87508 41.1289 29.65335 40.92584 30.43164 40.7228 31.66734 40.41882 32.43288 40.24225 33.19843 40.06567 34.41702 39.80405 35.17087 39.65314 35.9247 39.50223 37.12181 39.27971 37.86604 39.15459 38.61026 39.02946 39.7977 38.8507 40.53474 38.75128 41.2718 38.65186 42.44734 38.51256 43.17827 38.43803 43.9092 38.36351 45.07637 38.26381 45.80286 38.21405 46.52933 38.1643 47.69022 38.10417 48.41418 38.07936 49.13817 38.05455 50.29944 38.03525 51.02087 38.03525 51.7423 38.03525 52.89145 38.05489 53.61378 38.07936 54.33612 38.10384 55.50034 38.16243 56.22694 38.21173 56.95355 38.26102 58.11992 38.36028 58.85074 38.43465 59.58157 38.50905 60.75764 38.64824 61.49428 38.74791 62.2309 38.84756 63.41539 39.02821 64.15987 39.15302 64.90434 39.27783 66.10616 39.49702 66.85997 39.64742 67.61375 39.79784 68.82805 40.06049 69.59276 40.23706 70.35747 40.41365 71.5933 40.71722 72.3715 40.92014 73.14967 41.12303 74.40836 41.46973 75.20137 41.6995 75.99438 41.92926 77.27766 42.31892 78.08704 42.57617 78.8964 42.8334 80.20645 43.26817 81.03471 43.55354 81.86298 43.83891 83.20796 44.31891 84.05664 44.6329 84.90532 44.94688 86.2805 45.47313 87.15147 45.81659 88.02246 46.16008 89.43822 46.73477 90.33405 47.10852 91.22986 47.48228 92.68549 48.10574 93.60796 48.51048 94.53041 48.9152 96.03131 49.58884 96.98256 50.02559 97.93379 50.46233 99.48184 51.18817 100.46384 51.65826 101.44582 52.12836 103.04462 52.90942 104.06007 53.4137 105.07555 53.91794 106.73112 54.75336 107.7827 55.29266 108.8343 55.83195 110.54976 56.72443 111.63927 57.3006 112.72878 57.87679 114.5049 58.83083 115.63518 59.44533 116.76544 60.0598 118.61162 61.07567 119.7855 61.7294 120.95938 62.38313 122.87584 63.4623 124.0957 64.15701 125.31555 64.85173 127.30861 65.99916 128.57744 66.73643 129.84629 67.4737 131.91959 68.68922 133.24059 69.47078 134.5616 70.25237 136.7224 71.54163 138.0984 72.36942 139.4744 73.19724 141.72356 74.56116 143.15784 75.43701 144.59214 76.3129 146.9397 77.75616 148.43582 78.68211 149.93193 79.6081 152.37961 81.13235 153.94087 82.11072 155.50212 83.08907 158.0579 84.70041 159.68833 85.73343 161.31873 86.76643 163.98886 88.46593 165.69167 89.55597 167.39447 90.64603 171.96102 93.58978 170.38684 92.575"/>
<path transform="matrix(-.8405156,-.5418563,-.5418888,.84046527,3.3864213,31.511399)" d="M1.27522 0C-.31879 .31879-1.91284 .9564-3.8257 2.07224-1.91284 .6376-1.91284-.6376-3.8257-2.07224-1.91284-.9564-.31879-.31879 1.27522 0Z" fill="#ff0000"/>
<path transform="matrix(-.8405156,-.5418563,-.5418888,.84046527,3.3864213,31.511399)" stroke-width="1.19553" stroke-linecap="butt" stroke-linejoin="round" fill="none" stroke="#ff0000" d="M1.27522 0C-.31879 .31879-1.91284 .9564-3.8257 2.07224-1.91284 .6376-1.91284-.6376-3.8257-2.07224-1.91284-.9564-.31879-.31879 1.27522 0Z"/>
<path transform="matrix(.84054568,-.54182627,-.54185876,-.8404953,242.18527,31.545563)" d="M1.27522 0C-.31879 .31879-1.91284 .9564-3.8257 2.07224-1.91284 .6376-1.91284-.6376-3.8257-2.07224-1.91284-.9564-.31879-.31879 1.27522 0Z" fill="#ff0000"/>
<path transform="matrix(.84054568,-.54182627,-.54185876,-.8404953,242.18527,31.545563)" stroke-width="1.19553" stroke-linecap="butt" stroke-linejoin="round" fill="none" stroke="#ff0000" d="M1.27522 0C-.31879 .31879-1.91284 .9564-3.8257 2.07224-1.91284 .6376-1.91284-.6376-3.8257-2.07224-1.91284-.9564-.31879-.31879 1.27522 0Z"/>
<path transform="matrix(1.00009,0,0,-1.00003,71.78311,124.123348)" stroke-width="1.19553" stroke-linecap="butt" stroke-miterlimit="10" stroke-linejoin="miter" fill="none" stroke="#ff0000" d="M-68.39055-92.60918C-65.39578-90.67848-65.39578-90.67848-63.6922-89.58789-61.9886-88.49731-59.3171-86.79713-57.68625-85.7638-56.05544-84.73047-53.50023-83.11917-51.93828-82.14029-50.37634-81.16144-47.92542-79.63515-46.42883-78.70886-44.93224-77.78258-42.5865-76.34047-41.15189-75.46426-39.71727-74.58806-37.46565-73.22209-36.08907-72.39381-34.7125-71.56555-32.5515-70.27673-31.2305-69.49466-29.90948-68.71259-27.83754-67.49481-26.56813-66.75719-25.29872-66.01956-23.30211-64.87306-22.08144-64.17828-20.86078-63.4835-18.94412-62.40385-17.77046-61.74963-16.5968-61.09544-14.7531-60.07797-13.62247-59.46321-12.49184-58.84848-10.71179-57.89558-9.62163-57.31902-8.53148-56.74246-6.817-55.84758-5.76534-55.30771-4.71367-54.76784-3.05766-53.9324-2.04192-53.42796-1.0262-52.92352 .57297-52.14227 1.55533-51.67201 2.53766-51.20175 4.08646-50.47559 5.03816-50.03856 5.98987-49.60152 7.49176-48.92719 8.41458-48.52216 9.3374-48.11713 10.79333-47.49326 11.68927-47.11942 12.58519-46.74559 14.00053-46.17146 14.87183-45.82776 15.74313-45.48405 17.12047-44.95674 17.96901-44.64224 18.81754-44.32776 20.15923-43.8465 20.98753-43.56107 21.81584-43.27563 23.12915-42.8424 23.93887-42.58499 24.74858-42.32756 26.03062-41.93591 26.82349-41.7057 27.61636-41.47551 28.87508-41.1289 29.65335-40.92584 30.43164-40.7228 31.66734-40.41882 32.43288-40.24225 33.19843-40.06567 34.41702-39.80405 35.17087-39.65314 35.9247-39.50223 37.12181-39.27971 37.86604-39.15459 38.61026-39.02946 39.7977-38.8507 40.53474-38.75128 41.2718-38.65186 42.44734-38.51256 43.17827-38.43803 43.9092-38.36351 45.07637-38.26381 45.80286-38.21405 46.52933-38.1643 47.69022-38.10417 48.41418-38.07936 49.13817-38.05455 50.29944-38.03525 51.02087-38.03525 51.7423-38.03525 52.89145-38.05489 53.61378-38.07936 54.33612-38.10384 55.50034-38.16243 56.22694-38.21173 56.95355-38.26102 58.11992-38.36028 58.85074-38.43465 59.58157-38.50905 60.75764-38.64824 61.49428-38.74791 62.2309-38.84756 63.41539-39.02821 64.15987-39.15302 64.90434-39.27783 66.10616-39.49702 66.85997-39.64742 67.61375-39.79784 68.82805-40.06049 69.59276-40.23706 70.35747-40.41365 71.5933-40.71722 72.3715-40.92014 73.14967-41.12303 74.40836-41.46973 75.20137-41.6995 75.99438-41.92926 77.27766-42.31892 78.08704-42.57617 78.8964-42.8334 80.20645-43.26817 81.03471-43.55354 81.86298-43.83891 83.20796-44.31891 84.05664-44.6329 84.90532-44.94688 86.2805-45.47313 87.15147-45.81659 88.02246-46.16008 89.43822-46.73477 90.33405-47.10852 91.22986-47.48228 92.68549-48.10574 93.60796-48.51048 94.53041-48.9152 96.03131-49.58884 96.98256-50.02559 97.93379-50.46233 99.48184-51.18817 100.46384-51.65826 101.44582-52.12836 103.04462-52.90942 104.06007-53.4137 105.07555-53.91794 106.73112-54.75336 107.7827-55.29266 108.8343-55.83195 110.54976-56.72443 111.63927-57.3006 112.72878-57.87679 114.5049-58.83083 115.63518-59.44533 116.76544-60.0598 118.61162-61.07567 119.7855-61.7294 120.95938-62.38313 122.87584-63.4623 124.0957-64.15701 125.31555-64.85173 127.30861-65.99916 128.57744-66.73643 129.84629-67.4737 131.91959-68.68922 133.24059-69.47078 134.5616-70.25237 136.7224-71.54163 138.0984-72.36942 139.4744-73.19724 141.72356-74.56116 143.15784-75.43701 144.59214-76.3129 146.9397-77.75616 148.43582-78.68211 149.93193-79.6081 152.37961-81.13235 153.94087-82.11072 155.50212-83.08907 158.0579-84.70041 159.68833-85.73343 161.31873-86.76643 163.98886-88.46593 165.69167-89.55597 167.39447-90.64603 171.96102-93.58978 170.38684-92.575"/>
<path transform="matrix(-.8405156,.5418563,.5418888,.84046527,3.3864213,216.73529)" d="M1.27522 0C-.31879 .31879-1.91284 .9564-3.8257 2.07224-1.91284 .6376-1.91284-.6376-3.8257-2.07224-1.91284-.9564-.31879-.31879 1.27522 0Z" fill="#ff0000"/>
<path transform="matrix(-.8405156,.5418563,.5418888,.84046527,3.3864213,216.73529)" stroke-width="1.19553" stroke-linecap="butt" stroke-linejoin="round" fill="none" stroke="#ff0000" d="M1.27522 0C-.31879 .31879-1.91284 .9564-3.8257 2.07224-1.91284 .6376-1.91284-.6376-3.8257-2.07224-1.91284-.9564-.31879-.31879 1.27522 0Z"/>
<path transform="matrix(.84054568,.54182627,.54185876,-.8404953,242.18527,216.70113)" d="M1.27522 0C-.31879 .31879-1.91284 .9564-3.8257 2.07224-1.91284 .6376-1.91284-.6376-3.8257-2.07224-1.91284-.9564-.31879-.31879 1.27522 0Z" fill="#ff0000"/>
<path transform="matrix(.84054568,.54182627,.54185876,-.8404953,242.18527,216.70113)" stroke-width="1.19553" stroke-linecap="butt" stroke-linejoin="round" fill="none" stroke="#ff0000" d="M1.27522 0C-.31879 .31879-1.91284 .9564-3.8257 2.07224-1.91284 .6376-1.91284-.6376-3.8257-2.07224-1.91284-.9564-.31879-.31879 1.27522 0Z"/>
</svg>
