<svg xmlns="http://www.w3.org/2000/svg" xmlns:xlink="http://www.w3.org/1999/xlink" version="1.1" width="191" height="192" viewBox="0 0 191 192">
<defs>
<path id="font_1_1" d="M.33399964 .30233766C.33999635 .32835389 .36299134 .42037965 .43299867 .42037965 .43798829 .42037965 .46199037 .42037965 .48298646 .40734864 .45498658 .402359 .43499757 .37734986 .43499757 .35334779 .43499757 .33735658 .44599916 .31835938 .47299195 .31835938 .49499513 .31835938 .5269928 .3363495 .5269928 .37635804 .5269928 .42837525 .46798707 .4423828 .43399049 .4423828 .37599183 .4423828 .34098817 .38935853 .32899476 .36634828 .3039856 .43237306 .25 .4423828 .22099304 .4423828 .116989139 .4423828 .05999756 .3133545 .05999756 .28834535 .05999756 .27833558 .069992069 .27833558 .07199097 .27833558 .07998657 .27833558 .08299255 .28033448 .084991458 .28933717 .11898804 .39535523 .18499756 .42037965 .21899414 .42037965 .23799134 .42037965 .272995 .4113617 .272995 .35334779 .272995 .32235719 .2559967 .25532533 .21899414 .11528015 .20298767 .053268434 .16799927 .011245728 .12399292 .011245728 .117996219 .011245728 .09498596 .011245728 .07398987 .024276734 .09899902 .029266358 .12098694 .05027771 .12098694 .07827759 .12098694 .105270389 .09899902 .11328125 .083999637 .11328125 .053985597 .11328125 .0289917 .08728027 .0289917 .055267335 .0289917 .009246826 .07899475-.0107421879 .12298584-.0107421879 .18899536-.0107421879 .22499085 .059280397 .22799683 .0652771 .23999024 .028274537 .27598573-.0107421879 .33599855-.0107421879 .43899537-.0107421879 .49598695 .118270877 .49598695 .14328003 .49598695 .1532898 .4869995 .1532898 .48399354 .1532898 .47499085 .1532898 .47299195 .14929199 .47099305 .14228821 .43798829 .03527832 .36999513 .011245728 .33799745 .011245728 .29899598 .011245728 .2829895 .043273927 .2829895 .07727051 .2829895 .09927368 .2889862 .121276859 .2999878 .16529846L.33399964 .30233766Z"/>
<path id="font_1_2" d="M.48599244 .38136292C.48999024 .39537049 .48999024 .39736939 .48999024 .40437318 .48999024 .42237855 .47599793 .43138124 .46099855 .43138124 .45098878 .43138124 .43499757 .42536927 .42599488 .41036988 .42399598 .405365 .41600038 .37435914 .4119873 .35635377 .40499879 .33035279 .397995 .30334474 .3919983 .27633668L.34700013 .09628296C.34298707 .08126831 .2999878 .011245728 .23399353 .011245728 .18299866 .011245728 .17199707 .055267335 .17199707 .0922699 .17199707 .1382904 .18899536 .20030213 .22299195 .28833009 .23899842 .3293457 .24299622 .3403473 .24299622 .36035157 .24299622 .405365 .21099854 .4423828 .16099549 .4423828 .06599426 .4423828 .0289917 .29733277 .0289917 .28833009 .0289917 .27833558 .038986207 .27833558 .040985109 .27833558 .050994874 .27833558 .051986696 .28033448 .056991579 .29634095 .083999637 .3903656 .12399292 .42037965 .1579895 .42037965 .1659851 .42037965 .18299866 .42037965 .18299866 .3883667 .18299866 .36335755 .17298889 .3373413 .1659851 .31834413 .12599182 .21231079 .10798645 .1552887 .10798645 .10827637 .10798645 .019256592 .17098999-.0107421879 .22999573-.0107421879 .2689972-.0107421879 .30299378 .0062561037 .33099366 .03425598 .31799317-.017745972 .30599977-.06674194 .2659912-.11973572 .23999024-.15385437 .20199585-.18309021 .1559906-.18309021 .14199829-.18309021 .09700012-.18005371 .07998657-.14074707 .09599304-.14074707 .10899353-.14074707 .12298584-.1287384 .1329956-.11973572 .14299011-.10673523 .14299011-.08773804 .14299011-.056747438 .115997318-.052734376 .10598755-.052734376 .08299255-.052734376 .049987794-.068740848 .049987794-.11773682 .049987794-.16796875 .09399414-.20507813 .1559906-.20507813 .25898744-.20507813 .3619995-.11373901 .3899994-.00074768069L.48599244 .38136292Z"/>
<path id="font_2_1" d="M.6589966 .23046875C.6759949 .23046875 .69400027 .23046875 .69400027 .25045777 .69400027 .27046205 .6759949 .27046205 .6589966 .27046205H.117996219C.100997928 .27046205 .08299255 .27046205 .08299255 .25045777 .08299255 .23046875 .100997928 .23046875 .117996219 .23046875H.6589966Z"/>
<path id="font_3_2" d="M.2939911 .16503906V.07800293C.2939911 .041992189 .2919922 .0309906 .21798706 .0309906H.19699097V0C.23799134 .0029907227 .2899933 .0029907227 .33198548 .0029907227 .37399293 .0029907227 .4269867 .0029907227 .46798707 0V.0309906H.44699098C.37298585 .0309906 .37098695 .041992189 .37098695 .07800293V.16503906H.47099305V.19602967H.37098695V.65075686C.37098695 .67074587 .37098695 .6767578 .35499574 .6767578 .34599305 .6767578 .34298707 .6767578 .33499146 .66474917L.027999878 .19602967V.16503906H.2939911M.2999878 .19602967H.055999757L.2999878 .5688019V.19602967Z"/>
<path id="font_3_1" d="M.1269989 .07699585 .23298645 .18003845C.3889923 .31811524 .44898988 .3721466 .44898988 .47216798 .44898988 .5860901 .35899354 .6660156 .23699951 .6660156 .12399292 .6660156 .049987794 .57411196 .049987794 .48516847 .049987794 .4291687 .099990848 .4291687 .102996829 .4291687 .11999512 .4291687 .15499878 .44117738 .15499878 .48217774 .15499878 .5081787 .13699341 .5341797 .101989749 .5341797 .09399414 .5341797 .09199524 .5341797 .08898926 .5331726 .11199951 .59806826 .1659851 .63500979 .22399903 .63500979 .31498719 .63500979 .35798646 .5541382 .35798646 .47216798 .35798646 .39215089 .30799867 .31311036 .25299073 .25108338L.06098938 .036987306C.049987794 .025985718 .049987794 .023986817 .049987794 0H.42099L.44898988 .17404175H.42399598C.4189911 .14402771 .4119873 .1000061 .4019928 .084991458 .394989 .07699585 .32899476 .07699585 .30699159 .07699585H.1269989Z"/>
</defs>
<path transform="matrix(1,0,0,-1.00005,86.852008,105.41461)" stroke-width=".3985" stroke-linecap="butt" stroke-miterlimit="10" stroke-linejoin="miter" fill="none" stroke="#00aeef" d="M-85.04128-85.04123H85.04128M-85.04128-76.53711H85.04128M-85.04128-68.03297H85.04128M-85.04128-59.52885H85.04128M-85.04128-51.02473H85.04128M-85.04128-42.52061H85.04128M-85.04128-34.01648H85.04128M-85.04128-25.51236H85.04128M-85.04128-17.00824H85.04128M-85.04128-8.50412H85.04128M-85.04128 0H85.04128M-85.04128 8.50412H85.04128M-85.04128 17.00824H85.04128M-85.04128 25.51236H85.04128M-85.04128 34.01648H85.04128M-85.04128 42.52061H85.04128M-85.04128 51.02473H85.04128M-85.04128 59.52885H85.04128M-85.04128 68.03297H85.04128M-85.04128 76.53711H85.04128M-85.04128 85.04123H85.04128M-85.04123-85.04128V85.04128M-76.53711-85.04128V85.04128M-68.03297-85.04128V85.04128M-59.52885-85.04128V85.04128M-51.02473-85.04128V85.04128M-42.52061-85.04128V85.04128M-34.01648-85.04128V85.04128M-25.51236-85.04128V85.04128M-17.00824-85.04128V85.04128M-8.50412-85.04128V85.04128M0-85.04128V85.04128M8.50412-85.04128V85.04128M17.00824-85.04128V85.04128M25.51236-85.04128V85.04128M34.01648-85.04128V85.04128M42.52061-85.04128V85.04128M51.02473-85.04128V85.04128M59.52885-85.04128V85.04128M68.03297-85.04128V85.04128M76.53711-85.04128V85.04128M85.04123-85.04128V85.04128M85.04128 85.04128"/>
<path transform="matrix(1,0,0,-1.00005,86.852008,105.41461)" stroke-width=".79701" stroke-linecap="butt" stroke-miterlimit="10" stroke-linejoin="miter" fill="none" stroke="#000000" d="M-85.04128 0H92.11078"/>
<path transform="matrix(1,0,0,-1.00005,178.96279,105.41461)" d="M1.0361 0C-.25902 .25902-1.55415 .77707-3.1083 1.68365-1.55415 .51805-1.55415-.51805-3.1083-1.68365-1.55415-.77707-.25902-.25902 1.0361 0Z"/>
<path transform="matrix(1,0,0,-1.00005,178.96279,105.41461)" stroke-width=".79701" stroke-linecap="butt" stroke-linejoin="round" fill="none" stroke="#000000" d="M1.0361 0C-.25902 .25902-1.55415 .77707-3.1083 1.68365-1.55415 .51805-1.55415-.51805-3.1083-1.68365-1.55415-.77707-.25902-.25902 1.0361 0Z"/>
<use data-text="x" xlink:href="#font_1_1" transform="matrix(9.9626,0,0,-9.963098,184.116,107.55972)"/>
<path transform="matrix(1,0,0,-1.00005,86.852008,105.41461)" stroke-width=".79701" stroke-linecap="butt" stroke-miterlimit="10" stroke-linejoin="miter" fill="none" stroke="#000000" d="M0-85.04128V92.11078"/>
<path transform="matrix(0,-1.00005,-1,-0,86.852008,13.2992329)" d="M1.0361 0C-.25902 .25902-1.55415 .77707-3.1083 1.68365-1.55415 .51805-1.55415-.51805-3.1083-1.68365-1.55415-.77707-.25902-.25902 1.0361 0Z"/>
<path transform="matrix(0,-1.00005,-1,-0,86.852008,13.2992329)" stroke-width=".79701" stroke-linecap="butt" stroke-linejoin="round" fill="none" stroke="#000000" d="M1.0361 0C-.25902 .25902-1.55415 .77707-3.1083 1.68365-1.55415 .51805-1.55415-.51805-3.1083-1.68365-1.55415-.77707-.25902-.25902 1.0361 0Z"/>
<use data-text="y" xlink:href="#font_1_2" transform="matrix(9.9626,0,0,-9.963098,84.231,6.207657)"/>
<path transform="matrix(1,0,0,-1.00005,86.852008,105.41461)" stroke-width=".3985" stroke-linecap="butt" stroke-miterlimit="10" stroke-linejoin="miter" fill="none" stroke="#000000" d="M-68.03302 1.70091V-1.70065"/>
<path transform="matrix(1,0,0,-1.00005,86.852008,105.41461)" d="M-75.39442-13.13568H-60.67164V-3.8924504H-75.39442Z" fill="#ffffff"/>
<use data-text="&#x2212;" xlink:href="#font_2_1" transform="matrix(9.9626,0,0,-9.963098,12.453995,116.724178)"/>
<use data-text="4" xlink:href="#font_3_2" transform="matrix(9.9626,0,0,-9.963098,20.202988,116.724178)"/>
<path transform="matrix(1,0,0,-1.00005,86.852008,105.41461)" stroke-width=".3985" stroke-linecap="butt" stroke-miterlimit="10" stroke-linejoin="miter" fill="none" stroke="#000000" d="M68.03302 1.70091V-1.70065"/>
<path transform="matrix(1,0,0,-1.00005,86.852008,105.41461)" d="M64.54605-12.30545H71.51999V-3.8924704H64.54605Z" fill="#ffffff"/>
<use data-text="4" xlink:href="#font_3_2" transform="matrix(9.9626,0,0,-9.963098,152.39402,116.724178)"/>
<path transform="matrix(1,0,0,-1.00005,86.852008,105.41461)" stroke-width=".3985" stroke-linecap="butt" stroke-miterlimit="10" stroke-linejoin="miter" fill="none" stroke="#000000" d="M-34.0165 1.70091V-1.70065"/>
<path transform="matrix(1,0,0,-1.00005,86.852008,105.41461)" d="M-41.3779-13.13568H-26.655119V-3.8924504H-41.3779Z" fill="#ffffff"/>
<use data-text="&#x2212;" xlink:href="#font_2_1" transform="matrix(9.9626,0,0,-9.963098,46.47,116.724178)"/>
<use data-text="2" xlink:href="#font_3_1" transform="matrix(9.9626,0,0,-9.963098,54.218996,116.724178)"/>
<path transform="matrix(1,0,0,-1.00005,86.852008,105.41461)" stroke-width=".3985" stroke-linecap="butt" stroke-miterlimit="10" stroke-linejoin="miter" fill="none" stroke="#000000" d="M34.0165 1.70091V-1.70065"/>
<path transform="matrix(1,0,0,-1.00005,86.852008,105.41461)" d="M30.52953-12.30545H37.50347V-3.8924704H30.52953Z" fill="#ffffff"/>
<use data-text="2" xlink:href="#font_3_1" transform="matrix(9.9626,0,0,-9.963098,118.378009,116.724178)"/>
<path transform="matrix(1,0,0,-1.00005,86.852008,105.41461)" stroke-width=".3985" stroke-linecap="butt" stroke-miterlimit="10" stroke-linejoin="miter" fill="none" stroke="#000000" d="M1.70091-68.03302H-1.70065"/>
<path transform="matrix(1,0,0,-1.00005,86.852008,105.41461)" d="M-18.61523-72.65465H-3.8924504V-63.41142H-18.61523Z" fill="#ffffff"/>
<use data-text="&#x2212;" xlink:href="#font_2_1" transform="matrix(9.9626,0,0,-9.963098,69.233,176.24616)"/>
<use data-text="4" xlink:href="#font_3_2" transform="matrix(9.9626,0,0,-9.963098,76.981998,176.24616)"/>
<path transform="matrix(1,0,0,-1.00005,86.852008,105.41461)" stroke-width=".3985" stroke-linecap="butt" stroke-miterlimit="10" stroke-linejoin="miter" fill="none" stroke="#000000" d="M1.70091 68.03302H-1.70065"/>
<path transform="matrix(1,0,0,-1.00005,86.852008,105.41461)" d="M-10.8664 63.82654H-3.8924599V72.239528H-10.8664Z" fill="#ffffff"/>
<use data-text="4" xlink:href="#font_3_2" transform="matrix(9.9626,0,0,-9.963098,76.982,40.58838)"/>
<path transform="matrix(1,0,0,-1.00005,86.852008,105.41461)" stroke-width=".3985" stroke-linecap="butt" stroke-miterlimit="10" stroke-linejoin="miter" fill="none" stroke="#000000" d="M1.70091-34.0165H-1.70065"/>
<path transform="matrix(1,0,0,-1.00005,86.852008,105.41461)" d="M-18.61523-38.63812H-3.8924504V-29.39489H-18.61523Z" fill="#ffffff"/>
<use data-text="&#x2212;" xlink:href="#font_2_1" transform="matrix(9.9626,0,0,-9.963098,69.233,142.22846)"/>
<use data-text="2" xlink:href="#font_3_1" transform="matrix(9.9626,0,0,-9.963098,76.981998,142.22846)"/>
<path transform="matrix(1,0,0,-1.00005,86.852008,105.41461)" stroke-width=".3985" stroke-linecap="butt" stroke-miterlimit="10" stroke-linejoin="miter" fill="none" stroke="#000000" d="M1.70091 34.0165H-1.70065"/>
<path transform="matrix(1,0,0,-1.00005,86.852008,105.41461)" d="M-10.8664 29.81001H-3.8924599V38.222993H-10.8664Z" fill="#ffffff"/>
<use data-text="2" xlink:href="#font_3_1" transform="matrix(9.9626,0,0,-9.963098,76.982,74.60707)"/>
<path transform="matrix(1,0,0,-1.00005,86.852008,105.41461)" stroke-width="1.19553" stroke-linecap="butt" stroke-miterlimit="10" stroke-linejoin="miter" fill="none" stroke="#ff0000" d="M-83.16992-3.4773C-84.11967-3.4389-84.11967-3.4389-83.7657-3.45349-83.41174-3.46806-82.8441-3.49164-82.49014-3.5067-82.13617-3.52174-81.56853-3.54645-81.21457-3.56197-80.86061-3.57747-80.29297-3.60252-79.939-3.61855-79.58505-3.63455-79.0174-3.66087-78.66344-3.67746-78.30948-3.69405-77.74184-3.72108-77.38786-3.73819-77.0339-3.7553-76.46626-3.7831-76.1123-3.80074-75.75833-3.81836-75.19069-3.84706-74.83673-3.86536-74.48279-3.88364-73.91513-3.91367-73.56116-3.93257-73.2072-3.95148-72.63956-3.98201-72.2856-4.00159-71.93164-4.0212-71.364-4.05345-71.01003-4.07375-70.65607-4.09406-70.08842-4.12695-69.73447-4.14798-69.38051-4.16899-68.81285-4.20346-68.4589-4.22533-68.10493-4.24716-67.5373-4.2828-67.18333-4.30551-66.82936-4.32822-66.26172-4.36537-65.90776-4.38908-65.5538-4.41277-64.98616-4.45164-64.63219-4.47627-64.27824-4.5009-63.71059-4.54109-63.35663-4.56659-63.00267-4.59209-62.43501-4.63348-62.08105-4.66002-61.7271-4.68655-61.15945-4.73021-60.8055-4.75786-60.45152-4.7855-59.88388-4.83046-59.52992-4.85933-59.17596-4.88821-58.60832-4.93584-58.25435-4.966-57.9004-4.99617-57.33275-5.04527-56.97879-5.07681-56.62482-5.10835-56.05717-5.16032-55.70322-5.19334-55.34926-5.22636-54.78162-5.28033-54.42766-5.3148-54.07368-5.34926-53.50604-5.40546-53.15208-5.44171-52.79814-5.47797-52.23048-5.53798-51.87651-5.57614-51.52255-5.6143-50.95491-5.6768-50.60095-5.71681-50.24698-5.75682-49.67934-5.82236-49.32538-5.86447-48.97142-5.9066-48.40378-5.97601-48.04982-6.02045-47.69586-6.06488-47.1282-6.13785-46.77425-6.18474-46.42029-6.23161-45.85265-6.30884-45.49867-6.35835-45.14471-6.40787-44.57707-6.48921-44.22311-6.54156-43.86914-6.59393-43.3015-6.6802-42.94754-6.7357-42.5936-6.79118-42.02594-6.88249-41.672-6.9415-41.31802-7.00052-40.75037-7.09824-40.39641-7.16107-40.04245-7.22389-39.47481-7.32741-39.12083-7.39438-38.76688-7.46135-38.19923-7.57242-37.84528-7.64377-37.49132-7.71515-36.92366-7.83234-36.56972-7.90877-36.21576-7.98517-35.6481-8.11215-35.29414-8.1945-34.94017-8.27684-34.37253-8.41357-34.01857-8.50229-33.66461-8.591-33.09697-8.73814-32.743-8.83397-32.38905-8.92978-31.8214-9.0893-31.46745-9.19289-31.11348-9.2965-30.54582-9.46806-30.19186-9.58063-29.8379-9.69319-29.27026-9.88145-28.9163-10.00417-28.56233-10.12688-27.99469-10.33102-27.64073-10.46507-27.28679-10.59915-26.71913-10.82289-26.36517-10.97038-26.01122-11.11786-25.44356-11.36479-25.0896-11.52809-24.73563-11.69139-24.16798-11.96632-23.81403-12.14732-23.46007-12.32834-22.89243-12.63051-22.53847-12.83273-22.18451-13.03494-21.61685-13.37756-21.26291-13.60483-20.90895-13.83208-20.34131-14.21312-19.98734-14.4706-19.63338-14.72809-19.06572-15.16643-18.71176-15.4607-18.35779-15.75496-17.79015-16.25307-17.43619-16.59143-17.08224-16.92981-16.51459-17.50505-16.16064-17.89944-15.80667-18.29384-15.23901-18.96829-14.88507-19.43402-14.53111-19.89975-13.96346-20.69838-13.60948-21.25616-13.25552-21.81392-12.68788-22.77359-12.33392-23.45407-11.97997-24.13455-11.41231-25.31183-11.05835-26.16066-10.7044-27.00949-10.13675-28.48323-9.7828-29.57187-9.42883-30.6605-8.86118-32.55981-8.50722-34.0069-8.15326-35.45396-7.58562-37.98076-7.23164-40.00142-6.8777-42.02206-6.31004-45.54494-5.95609-48.57042-5.60213-51.5959-5.03447-56.75798-4.68053-61.80699-4.32657-66.85602-3.40495-84.96031-3.50014-83.08981"/>
<path transform="matrix(-.99913,-.04042202,-.04042,.9991799,3.682106,108.89208)" d="M1.27522 0C-.31879 .31879-1.91284 .9564-3.8257 2.07224-1.91284 .6376-1.91284-.6376-3.8257-2.07224-1.91284-.9564-.31879-.31879 1.27522 0Z" fill="#ff0000"/>
<path transform="matrix(-.99913,-.04042202,-.04042,.9991799,3.682106,108.89208)" stroke-width="1.19553" stroke-linecap="butt" stroke-linejoin="round" fill="none" stroke="#ff0000" d="M1.27522 0C-.31879 .31879-1.91284 .9564-3.8257 2.07224-1.91284 .6376-1.91284-.6376-3.8257-2.07224-1.91284-.9564-.31879-.31879 1.27522 0Z"/>
<path transform="matrix(.05083,.9987199,.99867,-.05083254,83.35187,188.50856)" d="M1.27522 0C-.31879 .31879-1.91284 .9564-3.8257 2.07224-1.91284 .6376-1.91284-.6376-3.8257-2.07224-1.91284-.9564-.31879-.31879 1.27522 0Z" fill="#ff0000"/>
<path transform="matrix(.05083,.9987199,.99867,-.05083254,83.35187,188.50856)" stroke-width="1.19553" stroke-linecap="butt" stroke-linejoin="round" fill="none" stroke="#ff0000" d="M1.27522 0C-.31879 .31879-1.91284 .9564-3.8257 2.07224-1.91284 .6376-1.91284-.6376-3.8257-2.07224-1.91284-.9564-.31879-.31879 1.27522 0Z"/>
<path transform="matrix(1,0,0,-1.00005,86.852008,105.41461)" stroke-width="1.19553" stroke-linecap="butt" stroke-miterlimit="10" stroke-linejoin="miter" fill="none" stroke="#ff0000" d="M3.49658 83.17075C4.3232 66.90578 4.3232 66.90578 4.67715 61.84956 5.0311 56.79333 5.59875 51.62828 5.95271 48.5995 6.30667 45.57071 6.87431 42.04346 7.22827 40.0201 7.58224 37.99675 8.14989 35.46477 8.50386 34.0165 8.85782 32.56824 9.42546 30.67078 9.77942 29.58199 10.13338 28.4932 10.70103 27.01851 11.05498 26.16922 11.40894 25.31993 11.9766 24.14178 12.33055 23.46083 12.68451 22.77986 13.25215 21.8196 13.60611 21.26134 13.96008 20.7031 14.52773 19.90335 14.8817 19.4374 15.23564 18.97144 15.8033 18.2977 16.15726 17.90309 16.51122 17.50847 17.07887 16.93192 17.43282 16.59326 17.78677 16.25461 18.35442 15.75604 18.70839 15.46225 19.06235 15.16847 19.63 14.73325 19.98396 14.47578 20.33792 14.21834 20.90556 13.83414 21.25954 13.60663 21.61348 13.37914 22.18114 13.03857 22.53508 12.8361 22.88905 12.63362 23.4567 12.32857 23.81065 12.14732 24.16461 11.96611 24.73227 11.69301 25.08624 11.52992 25.4402 11.36685 26.00784 11.11943 26.3618 10.97192 26.71574 10.82443 27.2834 10.60117 27.63736 10.4669 27.99132 10.33263 28.55896 10.12688 28.91292 10.00417 29.26689 9.88145 29.83455 9.69499 30.1885 9.58244 30.54247 9.46988 31.1101 9.2965 31.46408 9.19289 31.81802 9.0893 32.38568 8.93135 32.73962 8.8358 33.09358 8.74022 33.66122 8.59283 34.0152 8.50412 34.36916 8.41537 34.9368 8.27866 35.29076 8.1963 35.64473 8.11397 36.21239 7.9872 36.56635 7.91058 36.92029 7.83397 37.48795 7.71564 37.8419 7.64404 38.19586 7.57246 38.7635 7.46158 39.11746 7.39464 39.47142 7.32771 40.03906 7.22441 40.39304 7.16159 40.747 7.09875 41.31465 7.00078 41.66861 6.94176 42.02257 6.88275 42.59023 6.79175 42.94417 6.73622 43.29813 6.6807 43.86577 6.59393 44.21974 6.54156 44.5737 6.48921 45.14134 6.40836 45.4953 6.35887 45.84926 6.3094 46.41692 6.23187 46.77089 6.185 47.12483 6.1381 47.69249 6.0654 48.04643 6.02097 48.4004 5.97655 48.96805 5.9069 49.322 5.86473 49.67596 5.82257 50.2436 5.75706 50.59758 5.71706 50.95154 5.67706 51.5192 5.61446 51.87315 5.57642 52.2271 5.53835 52.79475 5.479 53.14871 5.44275 53.50267 5.40648 54.07031 5.34962 54.42427 5.31506 54.77824 5.2805 55.34589 5.22662 55.69984 5.19362 56.0538 5.1606 56.62144 5.10858 56.97542 5.07707 57.32938 5.04558 57.89703 4.9967 58.25098 4.96652 58.60493 4.93636 59.17258 4.8885 59.52655 4.85959 59.88051 4.83067 60.44815 4.7858 60.80211 4.75812 61.15608 4.73044 61.72372 4.68655 62.07768 4.66002 62.43164 4.63348 62.9993 4.59235 63.35326 4.56685 63.70721 4.54135 64.27487 4.50082 64.62881 4.47627 64.98277 4.4517 65.55042 4.41354 65.90439 4.38985 66.25835 4.36617 66.82599 4.3283 67.17995 4.30551 67.53392 4.28273 68.10158 4.24739 68.45554 4.22559 68.80948 4.20375 69.37714 4.16928 69.7311 4.14824 70.08505 4.12718 70.6527 4.09409 71.00665 4.07375 71.36061 4.0534 71.92825 4.02115 72.28223 4.00159 72.63618 3.98206 73.20384 3.95169 73.5578 3.93282 73.91176 3.91397 74.47942 3.88393 74.83336 3.86562 75.18732 3.84727 75.75496 3.8184 76.10893 3.80074 76.46289 3.78305 77.03053 3.75525 77.38449 3.73819 77.73845 3.72112 78.30609 3.69427 78.66006 3.67772 79.01402 3.66116 79.58168 3.63486 79.93562 3.6188 80.2896 3.60275 80.85724 3.57747 81.2112 3.56197 81.56516 3.54645 82.1328 3.52199 82.48677 3.50694 82.84073 3.49188 83.40837 3.4681 83.76233 3.45349 84.11629 3.43887 85.0379 3.40158 83.16655 3.47726"/>
<path transform="matrix(-.05072,-.9987399,-.99869,.050722533,90.34859,22.2397)" d="M1.27522 0C-.31879 .31879-1.91284 .9564-3.8257 2.07224-1.91284 .6376-1.91284-.6376-3.8257-2.07224-1.91284-.9564-.31879-.31879 1.27522 0Z" fill="#ff0000"/>
<path transform="matrix(-.05072,-.9987399,-.99869,.050722533,90.34859,22.2397)" stroke-width="1.19553" stroke-linecap="butt" stroke-linejoin="round" fill="none" stroke="#ff0000" d="M1.27522 0C-.31879 .31879-1.91284 .9564-3.8257 2.07224-1.91284 .6376-1.91284-.6376-3.8257-2.07224-1.91284-.9564-.31879-.31879 1.27522 0Z"/>
<path transform="matrix(.99913,.040402019,.0404,-.9991799,170.01853,101.93718)" d="M1.27522 0C-.31879 .31879-1.91284 .9564-3.8257 2.07224-1.91284 .6376-1.91284-.6376-3.8257-2.07224-1.91284-.9564-.31879-.31879 1.27522 0Z" fill="#ff0000"/>
<path transform="matrix(.99913,.040402019,.0404,-.9991799,170.01853,101.93718)" stroke-width="1.19553" stroke-linecap="butt" stroke-linejoin="round" fill="none" stroke="#ff0000" d="M1.27522 0C-.31879 .31879-1.91284 .9564-3.8257 2.07224-1.91284 .6376-1.91284-.6376-3.8257-2.07224-1.91284-.9564-.31879-.31879 1.27522 0Z"/>
</svg>
