<svg xmlns="http://www.w3.org/2000/svg" xmlns:xlink="http://www.w3.org/1999/xlink" version="1.1" width="245" height="232" viewBox="0 0 245 232">
<defs>
<path id="font_1_1" d="M.33399964 .30233766C.33999635 .32835389 .36299134 .42037965 .43299867 .42037965 .43798829 .42037965 .46199037 .42037965 .48298646 .40734864 .45498658 .402359 .43499757 .37734986 .43499757 .35334779 .43499757 .33735658 .44599916 .31835938 .47299195 .31835938 .49499513 .31835938 .5269928 .3363495 .5269928 .37635804 .5269928 .42837525 .46798707 .4423828 .43399049 .4423828 .37599183 .4423828 .34098817 .38935853 .32899476 .36634828 .3039856 .43237306 .25 .4423828 .22099304 .4423828 .116989139 .4423828 .05999756 .3133545 .05999756 .28834535 .05999756 .27833558 .069992069 .27833558 .07199097 .27833558 .07998657 .27833558 .08299255 .28033448 .084991458 .28933717 .11898804 .39535523 .18499756 .42037965 .21899414 .42037965 .23799134 .42037965 .272995 .4113617 .272995 .35334779 .272995 .32235719 .2559967 .25532533 .21899414 .11528015 .20298767 .053268434 .16799927 .011245728 .12399292 .011245728 .117996219 .011245728 .09498596 .011245728 .07398987 .024276734 .09899902 .029266358 .12098694 .05027771 .12098694 .07827759 .12098694 .105270389 .09899902 .11328125 .083999637 .11328125 .053985597 .11328125 .0289917 .08728027 .0289917 .055267335 .0289917 .009246826 .07899475-.0107421879 .12298584-.0107421879 .18899536-.0107421879 .22499085 .059280397 .22799683 .0652771 .23999024 .028274537 .27598573-.0107421879 .33599855-.0107421879 .43899537-.0107421879 .49598695 .118270877 .49598695 .14328003 .49598695 .1532898 .4869995 .1532898 .48399354 .1532898 .47499085 .1532898 .47299195 .14929199 .47099305 .14228821 .43798829 .03527832 .36999513 .011245728 .33799745 .011245728 .29899598 .011245728 .2829895 .043273927 .2829895 .07727051 .2829895 .09927368 .2889862 .121276859 .2999878 .16529846L.33399964 .30233766Z"/>
<path id="font_1_2" d="M.48599244 .38136292C.48999024 .39537049 .48999024 .39736939 .48999024 .40437318 .48999024 .42237855 .47599793 .43138124 .46099855 .43138124 .45098878 .43138124 .43499757 .42536927 .42599488 .41036988 .42399598 .405365 .41600038 .37435914 .4119873 .35635377 .40499879 .33035279 .397995 .30334474 .3919983 .27633668L.34700013 .09628296C.34298707 .08126831 .2999878 .011245728 .23399353 .011245728 .18299866 .011245728 .17199707 .055267335 .17199707 .0922699 .17199707 .1382904 .18899536 .20030213 .22299195 .28833009 .23899842 .3293457 .24299622 .3403473 .24299622 .36035157 .24299622 .405365 .21099854 .4423828 .16099549 .4423828 .06599426 .4423828 .0289917 .29733277 .0289917 .28833009 .0289917 .27833558 .038986207 .27833558 .040985109 .27833558 .050994874 .27833558 .051986696 .28033448 .056991579 .29634095 .083999637 .3903656 .12399292 .42037965 .1579895 .42037965 .1659851 .42037965 .18299866 .42037965 .18299866 .3883667 .18299866 .36335755 .17298889 .3373413 .1659851 .31834413 .12599182 .21231079 .10798645 .1552887 .10798645 .10827637 .10798645 .019256592 .17098999-.0107421879 .22999573-.0107421879 .2689972-.0107421879 .30299378 .0062561037 .33099366 .03425598 .31799317-.017745972 .30599977-.06674194 .2659912-.11973572 .23999024-.15385437 .20199585-.18309021 .1559906-.18309021 .14199829-.18309021 .09700012-.18005371 .07998657-.14074707 .09599304-.14074707 .10899353-.14074707 .12298584-.1287384 .1329956-.11973572 .14299011-.10673523 .14299011-.08773804 .14299011-.056747438 .115997318-.052734376 .10598755-.052734376 .08299255-.052734376 .049987794-.068740848 .049987794-.11773682 .049987794-.16796875 .09399414-.20507813 .1559906-.20507813 .25898744-.20507813 .3619995-.11373901 .3899994-.00074768069L.48599244 .38136292Z"/>
<path id="font_2_4" d="M.44898988 .20022583C.44898988 .3193512 .36698915 .41944886 .25898744 .41944886 .21099854 .41944886 .16799927 .40345765 .13198853 .36842347V.5637665C.1519928 .5577698 .18499756 .55078127 .21699524 .55078127 .33999635 .55078127 .4099884 .6417694 .4099884 .6547699 .4099884 .6607666 .40699769 .6657715 .3999939 .6657715 .39898683 .6657715 .39698792 .6657715 .3919983 .66278079 .37199403 .6537781 .32299806 .6337738 .2559967 .6337738 .21598816 .6337738 .16999817 .6407776 .12298584 .6617737 .114990238 .66477969 .11299133 .66477969 .11099243 .66477969 .100997928 .66477969 .100997928 .6567688 .100997928 .6407776V.34439088C.100997928 .32637025 .100997928 .31835938 .114990238 .31835938 .12199402 .31835938 .12399292 .32136537 .12799073 .32736207 .13899231 .3433838 .17599488 .39746095 .25698854 .39746095 .30899049 .39746095 .33399964 .35139466 .34199525 .33337403 .35798646 .29632569 .3600006 .25727845 .3600006 .20722962 .3600006 .17222595 .3600006 .11222839 .33599855 .07035828 .31199647 .031463624 .2749939 .0055389406 .22898865 .0055389406 .1559906 .0055389406 .09899902 .058380128 .08198547 .11723328 .084991458 .1162262 .08799744 .115234378 .09899902 .115234378 .13198853 .115234378 .14898682 .14022827 .14898682 .16423035 .14898682 .18823242 .13198853 .21322632 .09899902 .21322632 .084991458 .21322632 .049987794 .20622254 .049987794 .16023255 .049987794 .07434082 .11898804-.022460938 .23098755-.022460938 .34700013-.022460938 .44898988 .073349 .44898988 .20022583Z"/>
<path id="font_2_1" d="M.45999146 .31976319C.45999146 .39982606 .45498658 .47988893 .41999818 .5539398 .37399293 .65000918 .2919922 .6660156 .25 .6660156 .18998719 .6660156 .116989139 .64001467 .07598877 .54693606 .04399109 .47789 .038986207 .39982606 .038986207 .31976319 .038986207 .24472046 .042999269 .15464783 .083999637 .07859802 .1269989-.0024719239 .19999695-.022460938 .24899292-.022460938 .30299378-.022460938 .3789978-.0014648438 .4229889 .09359741 .45498658 .16265869 .45999146 .2407074 .45999146 .31976319M.24899292-.00047302247C.20999146-.00047302247 .15098572 .024551392 .1329956 .12062073 .12199402 .18066406 .12199402 .2727356 .12199402 .3317871 .12199402 .39582826 .12199402 .46188355 .12998963 .5159149 .14898682 .63500979 .22399903 .64401248 .24899292 .64401248 .28199769 .64401248 .34799195 .6259918 .36698915 .52693179 .3769989 .47088624 .3769989 .39482118 .3769989 .3317871 .3769989 .25672914 .3769989 .18867493 .3659973 .12461853 .35099793 .029556275 .2939911-.00047302247 .24899292-.00047302247Z"/>
<path id="font_2_2" d="M.2939911 .64004519C.2939911 .66400149 .2939911 .6660156 .2709961 .6660156 .20899964 .60227969 .12098694 .60227969 .08898926 .60227969V.57128909C.10899353 .57128909 .16799927 .57128909 .21998596 .5972748V.07902527C.21998596 .042999269 .21699524 .0309906 .1269989 .0309906H.09498596V0C.12998963 .0029907227 .21699524 .0029907227 .25698854 .0029907227 .29699708 .0029907227 .38398744 .0029907227 .4189911 0V.0309906H.3869934C.29699708 .0309906 .2939911 .041992189 .2939911 .07902527V.64004519Z"/>
<path id="font_2_3" d="M.1269989 .07699585 .23298645 .18003845C.3889923 .31811524 .44898988 .3721466 .44898988 .47216798 .44898988 .5860901 .35899354 .6660156 .23699951 .6660156 .12399292 .6660156 .049987794 .57411196 .049987794 .48516847 .049987794 .4291687 .099990848 .4291687 .102996829 .4291687 .11999512 .4291687 .15499878 .44117738 .15499878 .48217774 .15499878 .5081787 .13699341 .5341797 .101989749 .5341797 .09399414 .5341797 .09199524 .5341797 .08898926 .5331726 .11199951 .59806826 .1659851 .63500979 .22399903 .63500979 .31498719 .63500979 .35798646 .5541382 .35798646 .47216798 .35798646 .39215089 .30799867 .31311036 .25299073 .25108338L.06098938 .036987306C.049987794 .025985718 .049987794 .023986817 .049987794 0H.42099L.44898988 .17404175H.42399598C.4189911 .14402771 .4119873 .1000061 .4019928 .084991458 .394989 .07699585 .32899476 .07699585 .30699159 .07699585H.1269989Z"/>
</defs>
<path transform="matrix(1.00003,0,0,-1.00006,20.832215,219.35037)" stroke-width=".3985" stroke-linecap="butt" stroke-miterlimit="10" stroke-linejoin="miter" fill="none" stroke="#00aeef" d="M0 0H198.4311M0 9.92155H198.4311M0 19.84311H198.4311M0 29.76466H198.4311M0 39.68622H198.4311M0 49.60777H198.4311M0 59.52933H198.4311M0 69.45088H198.4311M0 79.37244H198.4311M0 89.29399H198.4311M0 99.21555H198.4311M0 109.13712H198.4311M0 119.05867H198.4311M0 128.98023H198.4311M0 138.90178H198.4311M0 148.82334H198.4311M0 158.74489H198.4311M0 168.66645H198.4311M0 178.588H198.4311M0 188.50955H198.4311M0 198.42763H198.4311M0 0V198.4311M9.92155 0V198.4311M19.84311 0V198.4311M29.76466 0V198.4311M39.68622 0V198.4311M49.60777 0V198.4311M59.52933 0V198.4311M69.45088 0V198.4311M79.37244 0V198.4311M89.29399 0V198.4311M99.21555 0V198.4311M109.13712 0V198.4311M119.05867 0V198.4311M128.98023 0V198.4311M138.90178 0V198.4311M148.82334 0V198.4311M158.74489 0V198.4311M168.66645 0V198.4311M178.588 0V198.4311M188.50955 0V198.4311M198.42763 0V198.4311M198.4311 198.4311"/>
<path transform="matrix(1.00003,0,0,-1.00006,20.832215,219.35037)" stroke-width=".79701" stroke-linecap="butt" stroke-miterlimit="10" stroke-linejoin="miter" fill="none" stroke="#000000" d="M0 0H212.87105"/>
<path transform="matrix(1.00003,0,0,-1.00006,233.70966,219.35037)" d="M1.0361 0C-.25902 .25902-1.55415 .77707-3.1083 1.68365-1.55415 .51805-1.55415-.51805-3.1083-1.68365-1.55415-.77707-.25902-.25902 1.0361 0Z"/>
<path transform="matrix(1.00003,0,0,-1.00006,233.70966,219.35037)" stroke-width=".79701" stroke-linecap="butt" stroke-linejoin="round" fill="none" stroke="#000000" d="M1.0361 0C-.25902 .25902-1.55415 .77707-3.1083 1.68365-1.55415 .51805-1.55415-.51805-3.1083-1.68365-1.55415-.77707-.25902-.25902 1.0361 0Z"/>
<use data-text="x" xlink:href="#font_1_1" transform="matrix(9.962899,0,0,-9.963197,238.86376,221.4955)"/>
<path transform="matrix(1.00003,0,0,-1.00006,20.832215,219.35037)" stroke-width=".79701" stroke-linecap="butt" stroke-miterlimit="10" stroke-linejoin="miter" fill="none" stroke="#000000" d="M0 0V212.87105"/>
<path transform="matrix(0,-1.00006,-1.00003,-0,20.832215,6.4665529)" d="M1.0361 0C-.25902 .25902-1.55415 .77707-3.1083 1.68365-1.55415 .51805-1.55415-.51805-3.1083-1.68365-1.55415-.77707-.25902-.25902 1.0361 0Z"/>
<path transform="matrix(0,-1.00006,-1.00003,-0,20.832215,6.4665529)" stroke-width=".79701" stroke-linecap="butt" stroke-linejoin="round" fill="none" stroke="#000000" d="M1.0361 0C-.25902 .25902-1.55415 .77707-3.1083 1.68365-1.55415 .51805-1.55415-.51805-3.1083-1.68365-1.55415-.77707-.25902-.25902 1.0361 0Z"/>
<use data-text="y" xlink:href="#font_1_2" transform="matrix(9.962899,0,0,-9.963197,13.863007,6.2075808)"/>
<path transform="matrix(1.00003,0,0,-1.00006,20.832215,219.35037)" stroke-width="1.19553" stroke-linecap="butt" stroke-miterlimit="10" stroke-linejoin="miter" fill="none" stroke="#00aeef" d="M49.60777 0V198.4311"/>
<path transform="matrix(1.00003,0,0,-1.00006,20.832215,219.35037)" stroke-width="1.19553" stroke-linecap="butt" stroke-miterlimit="10" stroke-linejoin="miter" fill="none" stroke="#00aeef" d="M0 49.60777H198.4311"/>
<path transform="matrix(1.00003,0,0,-1.00006,20.832215,219.35037)" stroke-width=".3985" stroke-linecap="butt" stroke-miterlimit="10" stroke-linejoin="miter" fill="none" stroke="#000000" d="M49.60777 1.48816V-1.48831"/>
<path transform="matrix(1.00003,0,0,-1.00006,20.832215,219.35037)" d="M46.1208-12.09311H53.09474V-3.68013H46.1208Z" fill="#ffffff"/>
<use data-text="5" xlink:href="#font_2_4" transform="matrix(9.962899,0,0,-9.963197,67.95063,230.44805)"/>
<path transform="matrix(1.00003,0,0,-1.00006,20.832215,219.35037)" stroke-width=".3985" stroke-linecap="butt" stroke-miterlimit="10" stroke-linejoin="miter" fill="none" stroke="#000000" d="M1.48816 49.60777H-1.48831"/>
<path transform="matrix(1.00003,0,0,-1.00006,20.832215,219.35037)" d="M-15.63547 45.40128H-3.68013V53.81426H-15.63547Z" fill="#ffffff"/>
<use data-text="5" xlink:href="#font_2_4" transform="matrix(9.962899,0,0,-9.963197,6.192772,172.94959)"/>
<use data-text="0" xlink:href="#font_2_1" transform="matrix(9.962899,0,0,-9.963197,11.174217,172.94959)"/>
<path transform="matrix(1.00003,0,0,-1.00006,20.832215,219.35037)" stroke-width="1.19553" stroke-linecap="butt" stroke-miterlimit="10" stroke-linejoin="miter" fill="none" stroke="#00aeef" d="M99.21555 0V198.4311"/>
<path transform="matrix(1.00003,0,0,-1.00006,20.832215,219.35037)" stroke-width="1.19553" stroke-linecap="butt" stroke-miterlimit="10" stroke-linejoin="miter" fill="none" stroke="#00aeef" d="M0 99.21555H198.4311"/>
<path transform="matrix(1.00003,0,0,-1.00006,20.832215,219.35037)" stroke-width=".3985" stroke-linecap="butt" stroke-miterlimit="10" stroke-linejoin="miter" fill="none" stroke="#000000" d="M99.21555 1.48816V-1.48831"/>
<path transform="matrix(1.00003,0,0,-1.00006,20.832215,219.35037)" d="M93.23787-12.09311H105.19321V-3.68013H93.23787Z" fill="#ffffff"/>
<use data-text="1" xlink:href="#font_2_2" transform="matrix(9.962899,0,0,-9.963197,115.069049,230.44805)"/>
<use data-text="0" xlink:href="#font_2_1" transform="matrix(9.962899,0,0,-9.963197,120.05049,230.44805)"/>
<path transform="matrix(1.00003,0,0,-1.00006,20.832215,219.35037)" stroke-width=".3985" stroke-linecap="butt" stroke-miterlimit="10" stroke-linejoin="miter" fill="none" stroke="#000000" d="M1.48816 99.21555H-1.48831"/>
<path transform="matrix(1.00003,0,0,-1.00006,20.832215,219.35037)" d="M-20.61685 95.00906H-3.68013V103.42204H-20.61685Z" fill="#ffffff"/>
<use data-text="1" xlink:href="#font_2_2" transform="matrix(9.962899,0,0,-9.963197,1.2106247,123.339618)"/>
<use data-text="0" xlink:href="#font_2_1" transform="matrix(9.962899,0,0,-9.963197,6.19207,123.339618)"/>
<use data-text="0" xlink:href="#font_2_1" transform="matrix(9.962899,0,0,-9.963197,11.173523,123.339618)"/>
<path transform="matrix(1.00003,0,0,-1.00006,20.832215,219.35037)" stroke-width="1.19553" stroke-linecap="butt" stroke-miterlimit="10" stroke-linejoin="miter" fill="none" stroke="#00aeef" d="M148.82334 0V198.4311"/>
<path transform="matrix(1.00003,0,0,-1.00006,20.832215,219.35037)" stroke-width="1.19553" stroke-linecap="butt" stroke-miterlimit="10" stroke-linejoin="miter" fill="none" stroke="#00aeef" d="M0 148.82334H198.4311"/>
<path transform="matrix(1.00003,0,0,-1.00006,20.832215,219.35037)" stroke-width=".3985" stroke-linecap="butt" stroke-miterlimit="10" stroke-linejoin="miter" fill="none" stroke="#000000" d="M148.82334 1.48816V-1.48831"/>
<path transform="matrix(1.00003,0,0,-1.00006,20.832215,219.35037)" d="M142.84566-12.09311H154.801V-3.68013H142.84566Z" fill="#ffffff"/>
<use data-text="1" xlink:href="#font_2_2" transform="matrix(9.962899,0,0,-9.963197,164.67853,230.44805)"/>
<use data-text="5" xlink:href="#font_2_4" transform="matrix(9.962899,0,0,-9.963197,169.65998,230.44805)"/>
<path transform="matrix(1.00003,0,0,-1.00006,20.832215,219.35037)" stroke-width=".3985" stroke-linecap="butt" stroke-miterlimit="10" stroke-linejoin="miter" fill="none" stroke="#000000" d="M1.48816 148.82334H-1.48831"/>
<path transform="matrix(1.00003,0,0,-1.00006,20.832215,219.35037)" d="M-20.61685 144.61684H-3.68013V153.02982H-20.61685Z" fill="#ffffff"/>
<use data-text="1" xlink:href="#font_2_2" transform="matrix(9.962899,0,0,-9.963197,1.2106247,73.72864)"/>
<use data-text="5" xlink:href="#font_2_4" transform="matrix(9.962899,0,0,-9.963197,6.19207,73.72864)"/>
<use data-text="0" xlink:href="#font_2_1" transform="matrix(9.962899,0,0,-9.963197,11.173523,73.72864)"/>
<path transform="matrix(1.00003,0,0,-1.00006,20.832215,219.35037)" stroke-width="1.19553" stroke-linecap="butt" stroke-miterlimit="10" stroke-linejoin="miter" fill="none" stroke="#00aeef" d="M198.4311 0V198.4311"/>
<path transform="matrix(1.00003,0,0,-1.00006,20.832215,219.35037)" stroke-width="1.19553" stroke-linecap="butt" stroke-miterlimit="10" stroke-linejoin="miter" fill="none" stroke="#00aeef" d="M0 198.4311H198.4311"/>
<path transform="matrix(1.00003,0,0,-1.00006,20.832215,219.35037)" stroke-width=".3985" stroke-linecap="butt" stroke-miterlimit="10" stroke-linejoin="miter" fill="none" stroke="#000000" d="M198.4311 1.48816V-1.48831"/>
<path transform="matrix(1.00003,0,0,-1.00006,20.832215,219.35037)" d="M192.45343-12.09311H204.40877V-3.68013H192.45343Z" fill="#ffffff"/>
<use data-text="2" xlink:href="#font_2_3" transform="matrix(9.962899,0,0,-9.963197,214.28803,230.44805)"/>
<use data-text="0" xlink:href="#font_2_1" transform="matrix(9.962899,0,0,-9.963197,219.26947,230.44805)"/>
<path transform="matrix(1.00003,0,0,-1.00006,20.832215,219.35037)" stroke-width=".3985" stroke-linecap="butt" stroke-miterlimit="10" stroke-linejoin="miter" fill="none" stroke="#000000" d="M1.48816 198.4311H-1.48831"/>
<path transform="matrix(1.00003,0,0,-1.00006,20.832215,219.35037)" d="M-20.61685 194.22463H-3.68013V202.6376H-20.61685Z" fill="#ffffff"/>
<use data-text="2" xlink:href="#font_2_3" transform="matrix(9.962899,0,0,-9.963197,1.2106247,24.117676)"/>
<use data-text="0" xlink:href="#font_2_1" transform="matrix(9.962899,0,0,-9.963197,6.19207,24.117676)"/>
<use data-text="0" xlink:href="#font_2_1" transform="matrix(9.962899,0,0,-9.963197,11.173523,24.117676)"/>
<path transform="matrix(1.00003,0,0,-1.00006,20.832215,219.35037)" stroke-width="1.19553" stroke-linecap="butt" stroke-miterlimit="10" stroke-linejoin="miter" fill="none" stroke="#ff0000" d="M.45834 1.81596C2.2401 8.87433 2.2401 8.87433 3.10046 12.2083 3.96083 15.54227 5.34059 20.8025 6.20096 24.02892 7.06133 27.2553 8.44107 32.3431 9.30144 35.46194 10.16182 38.58081 11.54156 43.49612 12.40193 46.50743 13.2623 49.51874 14.64203 54.26158 15.50241 57.16534 16.36278 60.0691 17.74252 64.63951 18.60289 67.43571 19.46327 70.23192 20.84302 74.62982 21.70338 77.31851 22.56375 80.0072 23.9435 84.23277 24.80388 86.8139 25.66425 89.39505 27.04399 93.44801 27.90436 95.92159 28.76474 98.39514 30.14447 102.27565 31.00484 104.64171 31.8652 107.00775 33.24496 110.71591 34.10535 112.97441 34.96571 115.23291 36.34544 118.76845 37.20581 120.9194 38.0662 123.07036 39.44594 126.43358 40.3063 128.47699 41.16667 130.5204 42.54642 133.71102 43.4068 135.64687 44.26717 137.58274 45.64691 140.60103 46.50728 142.42934 47.36766 144.25765 48.7474 147.10332 49.60777 148.8241 50.46814 150.54485 51.84787 153.2182 52.70825 154.83142 53.56862 156.44467 54.94836 158.94553 55.80873 160.4512 56.66911 161.9569 58.04886 164.28531 58.90923 165.68344 59.76959 167.08156 61.14934 169.23737 62.00972 170.52794 62.87009 171.81851 64.24982 173.80199 65.11018 174.98505 65.97057 176.1681 67.35033 177.97908 68.2107 179.05458 69.07106 180.1301 70.45079 181.7686 71.31117 182.73656 72.17154 183.70452 73.55128 185.17057 74.41165 186.03098 75.27202 186.8914 76.65178 188.18498 77.51215 188.93784 78.37251 189.6907 79.75226 190.81182 80.61264 191.45713 81.473 192.10245 82.85275 193.0511 83.71312 193.58887 84.57349 194.12665 85.95323 194.90282 86.8136 195.33306 87.67397 195.76328 89.05371 196.36699 89.91408 196.68967 90.77446 197.01235 92.1542 197.44358 93.01457 197.65872 93.87494 197.87386 95.25468 198.13262 96.11507 198.2402 96.97543 198.3478 98.35518 198.43408 99.21555 198.43415 100.07593 198.4342 101.45567 198.34815 102.31604 198.24066 103.1764 198.13318 104.55614 197.87453 105.41652 197.65947 106.27689 197.44443 107.65663 197.0133 108.517 196.69074 109.37738 196.36815 110.75713 195.76468 111.6175 195.33457 112.47786 194.90444 113.8576 194.12836 114.71799 193.5907 115.57835 193.05303 116.9581 192.10463 117.81847 191.45941 118.67885 190.8142 120.05858 189.69318 120.91895 188.94042 121.77931 188.18766 123.15906 186.89432 124.01944 186.03401 124.8798 185.17369 126.25955 183.70775 127.11992 182.73989 127.9803 181.77204 129.36005 180.13376 130.22042 179.05837 131.08078 177.98299 132.46053 176.17224 133.3209 174.98929 134.18128 173.80634 135.56102 171.82299 136.42139 170.53249 137.28177 169.24199 138.6615 167.0863 139.52187 165.68828 140.38224 164.29027 141.76198 161.96208 142.62236 160.45652 143.48273 158.95095 144.86248 156.45032 145.72284 154.83718 146.58322 153.22405 147.96297 150.55083 148.82334 148.83014 149.6837 147.10947 151.06345 144.2639 151.92383 142.43569 152.7842 140.60749 154.16393 137.58943 155.02429 135.65367 155.88466 133.71793 157.26442 130.5274 158.12479 128.4841 158.98516 126.44081 160.3649 123.07782 161.22528 120.92697 162.08565 118.77614 163.4654 115.24068 164.32576 112.98228 165.18613 110.72389 166.56589 107.01595 167.42626 104.65002 168.28662 102.28412 169.66637 98.40382 170.52674 95.93036 171.38712 93.4569 172.76685 89.40402 173.62722 86.823 174.48758 84.24196 175.86734 80.01663 176.7277 77.32805 177.58808 74.63947 178.96782 70.24167 179.82819 67.44554 180.68857 64.64943 182.06832 60.07915 182.92868 57.1755 183.78905 54.27185 185.1688 49.52922 186.02918 46.51804 186.88954 43.50682 188.26929 38.5916 189.12966 35.47285 189.99002 32.35411 191.36977 27.26656 192.23014 24.04025 193.0905 20.81396 194.47025 15.55382 195.33063 12.21996 196.191 8.8861 198.4311 .0121 197.97274 1.82806"/>
<path transform="matrix(-.24472735,.96961817,.9695892,.24473468,21.290568,217.5343)" d="M1.27522 0C-.31879 .31879-1.91284 .9564-3.8257 2.07224-1.91284 .6376-1.91284-.6376-3.8257-2.07224-1.91284-.9564-.31879-.31879 1.27522 0Z" fill="#ff0000"/>
<path transform="matrix(-.24472735,.96961817,.9695892,.24473468,21.290568,217.5343)" stroke-width="1.19553" stroke-linecap="butt" stroke-linejoin="round" fill="none" stroke="#ff0000" d="M1.27522 0C-.31879 .31879-1.91284 .9564-3.8257 2.07224-1.91284 .6376-1.91284-.6376-3.8257-2.07224-1.91284-.9564-.31879-.31879 1.27522 0Z"/>
<path transform="matrix(.24474734,.96961817,.9695892,-.24475467,218.81089,217.5222)" d="M1.27522 0C-.31879 .31879-1.91284 .9564-3.8257 2.07224-1.91284 .6376-1.91284-.6376-3.8257-2.07224-1.91284-.9564-.31879-.31879 1.27522 0Z" fill="#ff0000"/>
<path transform="matrix(.24474734,.96961817,.9695892,-.24475467,218.81089,217.5222)" stroke-width="1.19553" stroke-linecap="butt" stroke-linejoin="round" fill="none" stroke="#ff0000" d="M1.27522 0C-.31879 .31879-1.91284 .9564-3.8257 2.07224-1.91284 .6376-1.91284-.6376-3.8257-2.07224-1.91284-.9564-.31879-.31879 1.27522 0Z"/>
</svg>
