<svg xmlns="http://www.w3.org/2000/svg" xmlns:xlink="http://www.w3.org/1999/xlink" version="1.1" width="149" height="187" viewBox="0 0 149 187">
<defs>
<path id="font_1_2" d="M.20599365 .3996582H.2999878C.31999208 .3996582 .32998658 .3996582 .32998658 .41966249 .32998658 .43066407 .31999208 .43066407 .3019867 .43066407H.21398926C.25 .5724945 .25498963 .59246829 .25498963 .59846499 .25498963 .61546328 .24299622 .62545779 .22599793 .62545779 .22299195 .62545779 .19499207 .62446597 .18598938 .58947756L.14698792 .43066407H.052993776C.032989503 .43066407 .022994996 .43066407 .022994996 .4116516 .022994996 .3996582 .0309906 .3996582 .050994874 .3996582H.13899231C.066986087 .11608887 .06298828 .099121097 .06298828 .08114624 .06298828 .02722168 .100997928-.0107421879 .15499878-.0107421879 .25698854-.0107421879 .31399537 .13505554 .31399537 .14305115 .31399537 .1530304 .30599977 .1530304 .3019867 .1530304 .29299928 .1530304 .2919922 .15003968 .2869873 .13905335 .24398804 .035217287 .19099427 .011245728 .15699768 .011245728 .13598633 .011245728 .12599182 .024230957 .12599182 .057174684 .12599182 .08114624 .12799073 .088134769 .13198853 .10510254L.20599365 .3996582Z"/>
<path id="font_1_1" d="M.30299378 .3157959H.47299195C.61499026 .3157959 .7539978 .41973878 .7539978 .53167727 .7539978 .6086273 .6879883 .6826172 .5569916 .6826172H.23298645C.21398926 .6826172 .20298767 .6826172 .20298767 .66360476 .20298767 .6516113 .21199036 .6516113 .23199463 .6516113 .24499512 .6516113 .2630005 .65060427 .2749939 .6496124 .29100038 .6476135 .29699708 .64460757 .29699708 .6336212 .29699708 .6296234 .29599 .62661746 .29299928 .614624L.15899658 .07795715C.14898682 .038986207 .14698792 .0309906 .067993167 .0309906 .050994874 .0309906 .039993287 .0309906 .039993287 .011993408 .039993287 0 .051986696 0 .054992677 0 .08299255 0 .1539917 .0029907227 .18199158 .0029907227 .20298767 .0029907227 .22499085 .0019989014 .24598694 .0019989014 .2679901 .0019989014 .2899933 0 .31098939 0 .31799317 0 .33099366 0 .33099366 .019989014 .33099366 .0309906 .32199098 .0309906 .30299378 .0309906 .2659912 .0309906 .23799134 .0309906 .23799134 .048980714 .23799134 .054977418 .23999024 .05996704 .24099732 .065963748L.30299378 .3157959M.375 .6136322C.38398744 .64860537 .38598634 .6516113 .42900086 .6516113H.5249939C.60798647 .6516113 .6609955 .62461856 .6609955 .55566409 .6609955 .5166931 .6409912 .43074037 .60198977 .39476014 .5519867 .34977723 .49198915 .34179688 .44799806 .34179688H.30699159L.375 .6136322Z"/>
<path id="font_2_3" d="M.1269989 .07699585 .23298645 .18003845C.3889923 .31811524 .44898988 .3721466 .44898988 .47216798 .44898988 .5860901 .35899354 .6660156 .23699951 .6660156 .12399292 .6660156 .049987794 .57411196 .049987794 .48516847 .049987794 .4291687 .099990848 .4291687 .102996829 .4291687 .11999512 .4291687 .15499878 .44117738 .15499878 .48217774 .15499878 .5081787 .13699341 .5341797 .101989749 .5341797 .09399414 .5341797 .09199524 .5341797 .08898926 .5331726 .11199951 .59806826 .1659851 .63500979 .22399903 .63500979 .31498719 .63500979 .35798646 .5541382 .35798646 .47216798 .35798646 .39215089 .30799867 .31311036 .25299073 .25108338L.06098938 .036987306C.049987794 .025985718 .049987794 .023986817 .049987794 0H.42099L.44898988 .17404175H.42399598C.4189911 .14402771 .4119873 .1000061 .4019928 .084991458 .394989 .07699585 .32899476 .07699585 .30699159 .07699585H.1269989Z"/>
<path id="font_2_5" d="M.2939911 .16503906V.07800293C.2939911 .041992189 .2919922 .0309906 .21798706 .0309906H.19699097V0C.23799134 .0029907227 .2899933 .0029907227 .33198548 .0029907227 .37399293 .0029907227 .4269867 .0029907227 .46798707 0V.0309906H.44699098C.37298585 .0309906 .37098695 .041992189 .37098695 .07800293V.16503906H.47099305V.19602967H.37098695V.65075686C.37098695 .67074587 .37098695 .6767578 .35499574 .6767578 .34599305 .6767578 .34298707 .6767578 .33499146 .66474917L.027999878 .19602967V.16503906H.2939911M.2999878 .19602967H.055999757L.2999878 .5688019V.19602967Z"/>
<path id="font_2_7" d="M.13198853 .327713V.35173036C.13198853 .6047821 .2559967 .64100649 .30699159 .64100649 .33099366 .64100649 .37298585 .634964 .394989 .6007538 .37998963 .6007538 .33999635 .6007538 .33999635 .5557556 .33999635 .524765 .3639984 .5097656 .38598634 .5097656 .4019928 .5097656 .43199159 .51875308 .43199159 .5577545 .43199159 .6178589 .3880005 .6660156 .30499269 .6660156 .1769867 .6660156 .041992189 .5367584 .041992189 .31570436 .041992189 .048553468 .1579895-.022460938 .25099183-.022460938 .3619995-.022460938 .45700074 .07156372 .45700074 .2036438 .45700074 .33070375 .36799623 .4267578 .25698854 .4267578 .18899536 .4267578 .1519928 .37573243 .13198853 .327713M.25099183 .0055389406C.18798828 .0055389406 .1579895 .06556702 .1519928 .080566409 .13398743 .127594 .13398743 .2076416 .13398743 .22564698 .13398743 .30369569 .1659851 .40374757 .2559967 .40374757 .27198792 .40374757 .31799317 .40374757 .34899903 .34172059 .36698915 .30470277 .36698915 .2536621 .36698915 .20463562 .36698915 .15661621 .36698915 .10658264 .34999085 .0705719 .31999208 .010528564 .27398683 .0055389406 .25099183 .0055389406Z"/>
<path id="font_2_9" d="M.16299439 .4569702C.116989139 .486969 .11299133 .52098086 .11299133 .5379791 .11299133 .598999 .17799378 .64100649 .24899292 .64100649 .32199098 .64100649 .38598634 .58898928 .38598634 .51698306 .38598634 .45996095 .34700013 .4119568 .2869873 .37695313L.16299439 .4569702M.30899049 .36193849C.3809967 .3989563 .42999269 .45095826 .42999269 .51698306 .42999269 .6090088 .34098817 .6660156 .25 .6660156 .1499939 .6660156 .068984989 .59199526 .068984989 .49897767 .068984989 .4809723 .070999149 .43595887 .11299133 .38894654 .12399292 .37695313 .16099549 .35194398 .18598938 .33494569 .12799073 .30592347 .041992189 .24984741 .041992189 .15072632 .041992189 .04458618 .14399719-.022460938 .24899292-.022460938 .3619995-.022460938 .45700074 .06060791 .45700074 .16773987 .45700074 .20379639 .44599916 .24885559 .4079895 .2909088 .3889923 .31193543 .37298585 .3219452 .30899049 .36193849M.20899964 .3199463 .33198548 .24183655C.3600006 .2228241 .40699769 .19277954 .40699769 .13169861 .40699769 .05760193 .33198548 .0055389406 .25 .0055389406 .1639862 .0055389406 .09199524 .067611698 .09199524 .15072632 .09199524 .20880127 .12399292 .27288819 .20899964 .3199463Z"/>
<path id="font_2_2" d="M.2939911 .64004519C.2939911 .66400149 .2939911 .6660156 .2709961 .6660156 .20899964 .60227969 .12098694 .60227969 .08898926 .60227969V.57128909C.10899353 .57128909 .16799927 .57128909 .21998596 .5972748V.07902527C.21998596 .042999269 .21699524 .0309906 .1269989 .0309906H.09498596V0C.12998963 .0029907227 .21699524 .0029907227 .25698854 .0029907227 .29699708 .0029907227 .38398744 .0029907227 .4189911 0V.0309906H.3869934C.29699708 .0309906 .2939911 .041992189 .2939911 .07902527V.64004519Z"/>
<path id="font_2_1" d="M.45999146 .31976319C.45999146 .39982606 .45498658 .47988893 .41999818 .5539398 .37399293 .65000918 .2919922 .6660156 .25 .6660156 .18998719 .6660156 .116989139 .64001467 .07598877 .54693606 .04399109 .47789 .038986207 .39982606 .038986207 .31976319 .038986207 .24472046 .042999269 .15464783 .083999637 .07859802 .1269989-.0024719239 .19999695-.022460938 .24899292-.022460938 .30299378-.022460938 .3789978-.0014648438 .4229889 .09359741 .45498658 .16265869 .45999146 .2407074 .45999146 .31976319M.24899292-.00047302247C.20999146-.00047302247 .15098572 .024551392 .1329956 .12062073 .12199402 .18066406 .12199402 .2727356 .12199402 .3317871 .12199402 .39582826 .12199402 .46188355 .12998963 .5159149 .14898682 .63500979 .22399903 .64401248 .24899292 .64401248 .28199769 .64401248 .34799195 .6259918 .36698915 .52693179 .3769989 .47088624 .3769989 .39482118 .3769989 .3317871 .3769989 .25672914 .3769989 .18867493 .3659973 .12461853 .35099793 .029556275 .2939911-.00047302247 .24899292-.00047302247Z"/>
<path id="font_2_4" d="M.2899933 .35191346C.37199403 .37893678 .42999269 .4490509 .42999269 .52809146 .42999269 .6100464 .34199525 .6660156 .24598694 .6660156 .14498902 .6660156 .068984989 .60606387 .068984989 .53009036 .068984989 .49710084 .09098816 .47808839 .11999512 .47808839 .15098572 .47808839 .17098999 .50009158 .17098999 .5290985 .17098999 .57910159 .12399292 .57910159 .10899353 .57910159 .13999939 .62802127 .20599365 .64100649 .24198914 .64100649 .2829895 .64100649 .33799745 .6190338 .33799745 .5290985 .33799745 .51708987 .33599855 .45906068 .30999757 .4149933 .27999879 .36691285 .24598694 .36390687 .22099304 .36291505 .21299744 .36190797 .18899536 .35990907 .18199158 .35990907 .17399597 .35890199 .16699219 .35791017 .16699219 .3479004 .16699219 .33691407 .17399597 .33691407 .19099427 .33691407H.23498535C.31698609 .33691407 .35398866 .2686615 .35398866 .17037964 .35398866 .034469606 .2849884 .0055389406 .24099732 .0055389406 .19799805 .0055389406 .12298584 .022491456 .08799744 .08137512 .12298584 .07637024 .1539917 .09837341 .1539917 .1363678 .1539917 .17237854 .1269989 .19238281 .09799194 .19238281 .07398987 .19238281 .041992189 .17837525 .041992189 .1343689 .041992189 .043441774 .1349945-.022460938 .24398804-.022460938 .3659973-.022460938 .45700074 .06838989 .45700074 .17037964 .45700074 .252594 .3939972 .33088685 .2899933 .35191346Z"/>
<path id="font_2_6" d="M.44898988 .20022583C.44898988 .3193512 .36698915 .41944886 .25898744 .41944886 .21099854 .41944886 .16799927 .40345765 .13198853 .36842347V.5637665C.1519928 .5577698 .18499756 .55078127 .21699524 .55078127 .33999635 .55078127 .4099884 .6417694 .4099884 .6547699 .4099884 .6607666 .40699769 .6657715 .3999939 .6657715 .39898683 .6657715 .39698792 .6657715 .3919983 .66278079 .37199403 .6537781 .32299806 .6337738 .2559967 .6337738 .21598816 .6337738 .16999817 .6407776 .12298584 .6617737 .114990238 .66477969 .11299133 .66477969 .11099243 .66477969 .100997928 .66477969 .100997928 .6567688 .100997928 .6407776V.34439088C.100997928 .32637025 .100997928 .31835938 .114990238 .31835938 .12199402 .31835938 .12399292 .32136537 .12799073 .32736207 .13899231 .3433838 .17599488 .39746095 .25698854 .39746095 .30899049 .39746095 .33399964 .35139466 .34199525 .33337403 .35798646 .29632569 .3600006 .25727845 .3600006 .20722962 .3600006 .17222595 .3600006 .11222839 .33599855 .07035828 .31199647 .031463624 .2749939 .0055389406 .22898865 .0055389406 .1559906 .0055389406 .09899902 .058380128 .08198547 .11723328 .084991458 .1162262 .08799744 .115234378 .09899902 .115234378 .13198853 .115234378 .14898682 .14022827 .14898682 .16423035 .14898682 .18823242 .13198853 .21322632 .09899902 .21322632 .084991458 .21322632 .049987794 .20622254 .049987794 .16023255 .049987794 .07434082 .11898804-.022460938 .23098755-.022460938 .34700013-.022460938 .44898988 .073349 .44898988 .20022583Z"/>
<path id="font_2_8" d="M.47599793 .609375C.4850006 .6213684 .4850006 .62338259 .4850006 .64437869H.24198914C.11999512 .64437869 .117996219 .65737918 .11399841 .67637637H.08898926L.055999757 .4702301H.08099365C.083999637 .48625184 .09298706 .5493469 .10598755 .56137087 .11299133 .5673828 .19099427 .5673828 .20399475 .5673828H.41099549C.3999939 .5513611 .32099916 .4421997 .29899598 .40914918 .20899964 .27394105 .17599488 .1347351 .17599488 .032577516 .17599488 .022567749 .17599488-.022460938 .22200012-.022460938 .2679901-.022460938 .2679901 .022567749 .2679901 .032577516V.08366394C.2679901 .13873291 .2709961 .19381714 .2789917 .24790955 .2829895 .27093507 .29699708 .35707093 .34098817 .41915895L.47599793 .609375Z"/>
</defs>
<path transform="matrix(1.00006,0,0,-1.00002,16.77317,173.84223)" stroke-width=".3985" stroke-linecap="butt" stroke-miterlimit="10" stroke-linejoin="miter" fill="none" stroke="#00aeef" d="M0 0H117.92369M0 9.92155H117.92369M0 19.84311H117.92369M0 29.76466H117.92369M0 39.68622H117.92369M0 49.60777H117.92369M0 59.52933H117.92369M0 69.45088H117.92369M0 79.37244H117.92369M0 89.29399H117.92369M0 99.21555H117.92369M0 109.13712H117.92369M0 119.05867H117.92369M0 128.98023H117.92369M0 138.90178H117.92369M0 148.82334H117.92369M0 158.74141H117.92369M0 0V158.74489M14.74045 0V158.74489M29.48091 0V158.74489M44.22137 0V158.74489M58.96184 0V158.74489M73.7023 0V158.74489M88.44276 0V158.74489M103.18323 0V158.74489M117.9185 0V158.74489M117.92369 158.74489"/>
<path transform="matrix(1.00006,0,0,-1.00002,16.77317,173.84223)" stroke-width=".79701" stroke-linecap="butt" stroke-miterlimit="10" stroke-linejoin="miter" fill="none" stroke="#000000" d="M0 0H128.28148"/>
<path transform="matrix(1.00006,0,0,-1.00002,145.06235,173.84223)" d="M1.0361 0C-.25902 .25902-1.55415 .77707-3.1083 1.68365-1.55415 .51805-1.55415-.51805-3.1083-1.68365-1.55415-.77707-.25902-.25902 1.0361 0Z"/>
<path transform="matrix(1.00006,0,0,-1.00002,145.06235,173.84223)" stroke-width=".79701" stroke-linecap="butt" stroke-linejoin="round" fill="none" stroke="#000000" d="M1.0361 0C-.25902 .25902-1.55415 .77707-3.1083 1.68365-1.55415 .51805-1.55415-.51805-3.1083-1.68365-1.55415-.77707-.25902-.25902 1.0361 0Z"/>
<use data-text="t" xlink:href="#font_1_2" transform="matrix(9.963197,0,0,-9.962799,144.69785,170.12316)"/>
<path transform="matrix(1.00006,0,0,-1.00002,16.77317,173.84223)" stroke-width=".79701" stroke-linecap="butt" stroke-miterlimit="10" stroke-linejoin="miter" fill="none" stroke="#000000" d="M0 0V165.24755"/>
<path transform="matrix(0,-1.00002,-1.00006,-0,16.77317,8.59137)" d="M1.0361 0C-.25902 .25902-1.55415 .77707-3.1083 1.68365-1.55415 .51805-1.55415-.51805-3.1083-1.68365-1.55415-.77707-.25902-.25902 1.0361 0Z"/>
<path transform="matrix(0,-1.00002,-1.00006,-0,16.77317,8.59137)" stroke-width=".79701" stroke-linecap="butt" stroke-linejoin="round" fill="none" stroke="#000000" d="M1.0361 0C-.25902 .25902-1.55415 .77707-3.1083 1.68365-1.55415 .51805-1.55415-.51805-3.1083-1.68365-1.55415-.77707-.25902-.25902 1.0361 0Z"/>
<use data-text="P" xlink:href="#font_1_1" transform="matrix(9.963197,0,0,-9.962799,5.2734835,7.725891)"/>
<path transform="matrix(1.00006,0,0,-1.00002,16.77317,173.84223)" stroke-width=".79701" stroke-linecap="butt" stroke-miterlimit="10" stroke-linejoin="miter" fill="none" stroke="#000000" d="M29.48091 1.48816V-1.48831"/>
<path transform="matrix(1.00006,0,0,-1.00002,16.77317,173.84223)" d="M25.99394-12.29236H32.96788V-3.8793803H25.99394Z" fill="#ffffff"/>
<use data-text="2" xlink:href="#font_2_3" transform="matrix(9.963197,0,0,-9.962799,43.764787,185.13846)"/>
<path transform="matrix(1.00006,0,0,-1.00002,16.77317,173.84223)" stroke-width=".79701" stroke-linecap="butt" stroke-miterlimit="10" stroke-linejoin="miter" fill="none" stroke="#000000" d="M58.96184 1.48816V-1.48831"/>
<path transform="matrix(1.00006,0,0,-1.00002,16.77317,173.84223)" d="M55.47487-12.29236H62.448808V-3.8793803H55.47487Z" fill="#ffffff"/>
<use data-text="4" xlink:href="#font_2_5" transform="matrix(9.963197,0,0,-9.962799,73.24756,185.13846)"/>
<path transform="matrix(1.00006,0,0,-1.00002,16.77317,173.84223)" stroke-width=".79701" stroke-linecap="butt" stroke-miterlimit="10" stroke-linejoin="miter" fill="none" stroke="#000000" d="M88.44276 1.48816V-1.48831"/>
<path transform="matrix(1.00006,0,0,-1.00002,16.77317,173.84223)" d="M84.9558-12.29236H91.92974V-3.8793803H84.9558Z" fill="#ffffff"/>
<use data-text="6" xlink:href="#font_2_7" transform="matrix(9.963197,0,0,-9.962799,102.73033,185.13846)"/>
<path transform="matrix(1.00006,0,0,-1.00002,16.77317,173.84223)" stroke-width=".79701" stroke-linecap="butt" stroke-miterlimit="10" stroke-linejoin="miter" fill="none" stroke="#000000" d="M117.92369 1.48816V-1.48831"/>
<path transform="matrix(1.00006,0,0,-1.00002,16.77317,173.84223)" d="M114.43672-12.29236H121.41066V-3.8793803H114.43672Z" fill="#ffffff"/>
<use data-text="8" xlink:href="#font_2_9" transform="matrix(9.963197,0,0,-9.962799,132.21309,185.13846)"/>
<path transform="matrix(1.00006,0,0,-1.00002,16.77317,173.84223)" stroke-width=".79701" stroke-linecap="butt" stroke-miterlimit="10" stroke-linejoin="miter" fill="none" stroke="#000000" d="M2.21095 19.84311H-2.2112"/>
<path transform="matrix(1.00006,0,0,-1.00002,16.77317,173.84223)" d="M-16.5576 15.63661H-4.6022598V24.049592H-16.5576Z" fill="#ffffff"/>
<use data-text="1" xlink:href="#font_2_2" transform="matrix(9.963197,0,0,-9.962799,1.211235,157.2089)"/>
<use data-text="0" xlink:href="#font_2_1" transform="matrix(9.963197,0,0,-9.962799,6.192833,157.2089)"/>
<path transform="matrix(1.00006,0,0,-1.00002,16.77317,173.84223)" stroke-width=".79701" stroke-linecap="butt" stroke-miterlimit="10" stroke-linejoin="miter" fill="none" stroke="#000000" d="M2.21095 39.68622H-2.2112"/>
<path transform="matrix(1.00006,0,0,-1.00002,16.77317,173.84223)" d="M-16.5576 35.47972H-4.6022598V43.8927H-16.5576Z" fill="#ffffff"/>
<use data-text="2" xlink:href="#font_2_3" transform="matrix(9.963197,0,0,-9.962799,1.211235,137.3655)"/>
<use data-text="0" xlink:href="#font_2_1" transform="matrix(9.963197,0,0,-9.962799,6.192833,137.3655)"/>
<path transform="matrix(1.00006,0,0,-1.00002,16.77317,173.84223)" stroke-width=".79701" stroke-linecap="butt" stroke-miterlimit="10" stroke-linejoin="miter" fill="none" stroke="#000000" d="M2.21095 59.52933H-2.2112"/>
<path transform="matrix(1.00006,0,0,-1.00002,16.77317,173.84223)" d="M-16.5576 55.32283H-4.6022598V63.73581H-16.5576Z" fill="#ffffff"/>
<use data-text="3" xlink:href="#font_2_4" transform="matrix(9.963197,0,0,-9.962799,1.211235,117.522098)"/>
<use data-text="0" xlink:href="#font_2_1" transform="matrix(9.963197,0,0,-9.962799,6.192833,117.522098)"/>
<path transform="matrix(1.00006,0,0,-1.00002,16.77317,173.84223)" stroke-width=".79701" stroke-linecap="butt" stroke-miterlimit="10" stroke-linejoin="miter" fill="none" stroke="#000000" d="M2.21095 79.37244H-2.2112"/>
<path transform="matrix(1.00006,0,0,-1.00002,16.77317,173.84223)" d="M-16.5576 75.16594H-4.6022598V83.57892H-16.5576Z" fill="#ffffff"/>
<use data-text="4" xlink:href="#font_2_5" transform="matrix(9.963197,0,0,-9.962799,1.211235,97.678699)"/>
<use data-text="0" xlink:href="#font_2_1" transform="matrix(9.963197,0,0,-9.962799,6.192833,97.678699)"/>
<path transform="matrix(1.00006,0,0,-1.00002,16.77317,173.84223)" stroke-width=".79701" stroke-linecap="butt" stroke-miterlimit="10" stroke-linejoin="miter" fill="none" stroke="#000000" d="M2.21095 99.21555H-2.2112"/>
<path transform="matrix(1.00006,0,0,-1.00002,16.77317,173.84223)" d="M-16.5576 95.00906H-4.6022598V103.42204H-16.5576Z" fill="#ffffff"/>
<use data-text="5" xlink:href="#font_2_6" transform="matrix(9.963197,0,0,-9.962799,1.211235,77.835308)"/>
<use data-text="0" xlink:href="#font_2_1" transform="matrix(9.963197,0,0,-9.962799,6.192833,77.835308)"/>
<path transform="matrix(1.00006,0,0,-1.00002,16.77317,173.84223)" stroke-width=".79701" stroke-linecap="butt" stroke-miterlimit="10" stroke-linejoin="miter" fill="none" stroke="#000000" d="M2.21095 119.05867H-2.2112"/>
<path transform="matrix(1.00006,0,0,-1.00002,16.77317,173.84223)" d="M-16.5576 114.85217H-4.6022598V123.26515H-16.5576Z" fill="#ffffff"/>
<use data-text="6" xlink:href="#font_2_7" transform="matrix(9.963197,0,0,-9.962799,1.211235,57.991907)"/>
<use data-text="0" xlink:href="#font_2_1" transform="matrix(9.963197,0,0,-9.962799,6.192833,57.991907)"/>
<path transform="matrix(1.00006,0,0,-1.00002,16.77317,173.84223)" stroke-width=".79701" stroke-linecap="butt" stroke-miterlimit="10" stroke-linejoin="miter" fill="none" stroke="#000000" d="M2.21095 138.90178H-2.2112"/>
<path transform="matrix(1.00006,0,0,-1.00002,16.77317,173.84223)" d="M-16.5576 134.69528H-4.6022598V143.10826H-16.5576Z" fill="#ffffff"/>
<use data-text="7" xlink:href="#font_2_8" transform="matrix(9.963197,0,0,-9.962799,1.211235,38.147508)"/>
<use data-text="0" xlink:href="#font_2_1" transform="matrix(9.963197,0,0,-9.962799,6.192833,38.147508)"/>
<path transform="matrix(1.00006,0,0,-1.00002,16.77317,173.84223)" stroke-width=".79701" stroke-linecap="butt" stroke-miterlimit="10" stroke-linejoin="miter" fill="none" stroke="#000000" d="M2.21095 158.74489H-2.2112"/>
<path transform="matrix(1.00006,0,0,-1.00002,16.77317,173.84223)" d="M-16.5576 154.53839H-4.6022598V162.95137H-16.5576Z" fill="#ffffff"/>
<use data-text="8" xlink:href="#font_2_9" transform="matrix(9.963197,0,0,-9.962799,1.211235,18.304108)"/>
<use data-text="0" xlink:href="#font_2_1" transform="matrix(9.963197,0,0,-9.962799,6.192833,18.304108)"/>
<path transform="matrix(1.00006,0,0,-1.00002,16.77317,173.84223)" stroke-width="1.19553" stroke-linecap="butt" stroke-miterlimit="10" stroke-linejoin="miter" fill="none" stroke="#ff0000" d="M0 1.98427C0 1.98427 1.05206 2.08438 1.45613 2.12476 1.8602 2.16512 2.5082 2.232 2.91226 2.27524 3.31633 2.3185 3.96436 2.39014 4.36842 2.43648 4.77249 2.48279 5.42049 2.5596 5.82455 2.6092 6.22862 2.65881 6.87662 2.74094 7.28069 2.79405 7.68475 2.84717 8.33278 2.9352 8.73685 2.99208 9.14091 3.04895 9.78891 3.14311 10.19298 3.20403 10.59705 3.26494 11.24504 3.36586 11.64911 3.4311 12.05319 3.49634 12.7012 3.60439 13.10527 3.67426 13.50934 3.74411 14.15733 3.85982 14.5614 3.93463 14.96547 4.00946 15.61348 4.13338 16.01755 4.2135 16.42162 4.29361 17.06963 4.42625 17.4737 4.51202 17.87776 4.59781 18.52576 4.73993 18.92982 4.83177 19.3339 4.92363 19.9819 5.07568 20.38597 5.17407 20.79004 5.27246 21.43805 5.4355 21.84212 5.54088 22.24619 5.64627 22.89418 5.82079 23.29825 5.9336 23.70233 6.04642 24.35034 6.23325 24.75441 6.354 25.15848 6.4748 25.80647 6.67476 26.21054 6.8041 26.61461 6.93344 27.26263 7.14774 27.6667 7.28629 28.07077 7.42482 28.71877 7.65431 29.12283 7.80267 29.5269 7.95102 30.1749 8.19667 30.57896 8.35555 30.98303 8.51442 31.63106 8.77765 32.03513 8.94778 32.4392 9.11792 33.08719 9.39966 33.49126 9.58182 33.89532 9.76398 34.54332 10.06558 34.94739 10.26067 35.35147 10.45573 35.99948 10.77887 36.40355 10.98778 36.80762 11.1967 37.45561 11.54268 37.85968 11.76639 38.26375 11.99011 38.91176 12.36066 39.31583 12.60025 39.7199 12.83983 40.3679 13.23659 40.77197 13.49316 41.17604 13.74974 41.82404 14.17474 42.2281 14.4495 42.63217 14.72423 43.28018 15.17917 43.68425 15.47336 44.08832 15.76753 44.73633 16.2547 45.1404 16.56972 45.54446 16.88475 46.19246 17.40652 46.59653 17.74391 47.0006 18.0813 47.64862 18.64005 48.05269 19.00136 48.45676 19.36266 49.10475 19.96109 49.50882 20.34798 49.91289 20.73486 50.56091 21.37558 50.96498 21.78983 51.36905 22.20406 52.01704 22.88995 52.42111 23.33357 52.82518 23.77716 53.47318 24.51196 53.87724 24.98706 54.28131 25.46216 54.92934 26.24892 55.3334 26.75772 55.73747 27.26654 56.38547 28.10934 56.78954 28.6542 57.1936 29.19905 57.8416 30.10123 58.24567 30.68465 58.64973 31.26808 59.29776 32.23434 59.70183 32.85909 60.1059 33.48383 60.75389 34.51836 61.15796 35.18733 61.56203 35.8563 62.21004 36.96413 62.6141 37.68059 63.01817 38.39705 63.66618 39.5839 64.07025 40.35112 64.47432 41.11835 65.12231 42.38864 65.52638 43.21028 65.93045 44.03192 66.57846 45.39308 66.98254 46.27293 67.38661 47.15277 68.0346 48.60963 68.43867 49.5516 68.84274 50.49356 69.49074 52.05302 69.8948 53.0619 70.29887 54.07079 70.9469 55.74243 71.35097 56.8229 71.75504 57.90338 72.40303 59.69229 72.8071 60.8493 73.21117 62.0063 73.85919 63.9228 74.26326 65.16183 74.66733 66.40083 75.31532 68.45248 75.71939 69.77925 76.12346 71.10602 76.77145 73.30362 77.17552 74.72429 77.57959 76.14494 78.22762 78.49715 78.63168 80.01842 79.03575 81.53969 79.68375 84.0593 80.08781 85.68861 80.49188 87.31792 81.13988 90.01656 81.54395 91.76135 81.94803 93.50616 82.59604 96.3956 83.0001 98.26392 83.40417 100.13222 84.05217 103.22606 84.45624 105.22682 84.8603 107.22758 85.50832 110.54172 85.9124 112.68405 86.31647 114.82639 86.96446 118.37314 87.36853 120.66734 87.7726 122.96155 88.4206 126.76213 88.82466 129.2191 89.22873 131.67609 89.87675 135.74445 90.28082 138.37555 90.68489 141.00662 91.33289 145.36469 91.73695 148.18219 92.14102 150.9997 93.19308 158.6822 92.93901 156.82663"/>
<path transform="matrix(.13567814,-.99071988,-.99075946,-.13567272,109.71774,17.012452)" d="M1.27522 0C-.31879 .31879-1.91284 .9564-3.8257 2.07224-1.91284 .6376-1.91284-.6376-3.8257-2.07224-1.91284-.9564-.31879-.31879 1.27522 0Z" fill="#ff0000"/>
<path transform="matrix(.13567814,-.99071988,-.99075946,-.13567272,109.71774,17.012452)" stroke-width="1.19553" stroke-linecap="butt" stroke-linejoin="round" fill="none" stroke="#ff0000" d="M1.27522 0C-.31879 .31879-1.91284 .9564-3.8257 2.07224-1.91284 .6376-1.91284-.6376-3.8257-2.07224-1.91284-.9564-.31879-.31879 1.27522 0Z"/>
</svg>
