<svg xmlns="http://www.w3.org/2000/svg" xmlns:xlink="http://www.w3.org/1999/xlink" version="1.1" width="232" height="226" viewBox="0 0 232 226">
<defs>
<path id="font_1_2" d="M.20599365 .3996582H.2999878C.31999208 .3996582 .32998658 .3996582 .32998658 .41966249 .32998658 .43066407 .31999208 .43066407 .3019867 .43066407H.21398926C.25 .5724945 .25498963 .59246829 .25498963 .59846499 .25498963 .61546328 .24299622 .62545779 .22599793 .62545779 .22299195 .62545779 .19499207 .62446597 .18598938 .58947756L.14698792 .43066407H.052993776C.032989503 .43066407 .022994996 .43066407 .022994996 .4116516 .022994996 .3996582 .0309906 .3996582 .050994874 .3996582H.13899231C.066986087 .11608887 .06298828 .099121097 .06298828 .08114624 .06298828 .02722168 .100997928-.0107421879 .15499878-.0107421879 .25698854-.0107421879 .31399537 .13505554 .31399537 .14305115 .31399537 .1530304 .30599977 .1530304 .3019867 .1530304 .29299928 .1530304 .2919922 .15003968 .2869873 .13905335 .24398804 .035217287 .19099427 .011245728 .15699768 .011245728 .13598633 .011245728 .12599182 .024230957 .12599182 .057174684 .12599182 .08114624 .12799073 .088134769 .13198853 .10510254L.20599365 .3996582Z"/>
<path id="font_1_1" d="M.04499817-.122177127C.036987306-.15631104 .034988405-.16334534-.009002686-.16334534-.021011353-.16334534-.03201294-.16334534-.03201294-.18234253-.03201294-.19033814-.027008057-.19433594-.019012452-.19433594 .0079956059-.19433594 .036987306-.19134522 .06498718-.19134522 .09799194-.19134522 .13198853-.19433594 .1639862-.19433594 .16899109-.19433594 .18199158-.19433594 .18199158-.17434693 .18199158-.16334534 .17199707-.16334534 .1579895-.16334534 .10798645-.16334534 .10798645-.15631104 .10798645-.14727783 .10798645-.13523865 .1499939 .028259278 .15699768 .053268434 .16999817 .024261475 .19799805-.0107421879 .24899292-.0107421879 .36499024-.0107421879 .48999024 .13528443 .48999024 .28233338 .48999024 .37635804 .43299867 .4423828 .35699464 .4423828 .30699159 .4423828 .25898744 .40637208 .22599793 .36735536 .21598816 .42137147 .17298889 .4423828 .13598633 .4423828 .08999634 .4423828 .070999149 .4033661 .06199646 .38536073 .04399109 .35134889 .0309906 .29133607 .0309906 .28833009 .0309906 .27833558 .040985109 .27833558 .042999269 .27833558 .052993776 .27833558 .053985597 .2793274 .05999756 .30133058 .07699585 .37236024 .09700012 .42037965 .1329956 .42037965 .1499939 .42037965 .1639862 .41236878 .1639862 .37435914 .1639862 .35134889 .16099549 .3403473 .15699768 .323349L.04499817-.122177127M.22099304 .3123474C.22799683 .33935548 .25498963 .36735536 .272995 .38235475 .30799867 .41337586 .33699037 .42037965 .35398866 .42037965 .3939972 .42037965 .41799928 .38536073 .41799928 .32633973 .41799928 .26733399 .3849945 .15229798 .36698915 .11428833 .33299256 .044265748 .2849884 .011245728 .24798584 .011245728 .18199158 .011245728 .16899109 .0942688 .16899109 .10028076 .16899109 .10227966 .16899109 .104278568 .17199707 .11628723L.22099304 .3123474Z"/>
<path id="font_2_1" d="M.33099366-.2400055C.33099366-.23701477 .33099366-.23500061 .31399537-.21800232 .18899536-.0920105 .15699768 .09700012 .15699768 .25 .15699768 .42399598 .19499207 .59799197 .31799317 .72299197 .33099366 .73498538 .33099366 .7369995 .33099366 .73999026 .33099366 .746994 .32699586 .75 .32099916 .75 .31098939 .75 .22099304 .6819916 .1619873 .5549927 .11099243 .44499208 .09899902 .33399964 .09899902 .25 .09899902 .17199707 .10998535 .050994874 .16499329-.06201172 .22499085-.18501282 .31098939-.25 .32099916-.25 .32699586-.25 .33099366-.24700928 .33099366-.2400055Z"/>
<path id="font_2_2" d="M.2889862 .25C.2889862 .32798768 .27799989 .44898988 .22299195 .56199648 .16299439 .68499758 .07699585 .75 .066986087 .75 .06098938 .75 .056991579 .74598696 .056991579 .73999026 .056991579 .7369995 .056991579 .73498538 .07598877 .71699526 .17399597 .6179962 .23098755 .45899964 .23098755 .25 .23098755 .07899475 .19400025-.09700012 .069992069-.2230072 .056991579-.23500061 .056991579-.23701477 .056991579-.2400055 .056991579-.2460022 .06098938-.25 .066986087-.25 .07699585-.25 .16699219-.18200684 .22599793-.055007936 .2769928 .054992677 .2889862 .16600037 .2889862 .25Z"/>
<path id="font_3_1" d="M.6589966 .23046875C.6759949 .23046875 .69400027 .23046875 .69400027 .25045777 .69400027 .27046205 .6759949 .27046205 .6589966 .27046205H.117996219C.100997928 .27046205 .08299255 .27046205 .08299255 .25045777 .08299255 .23046875 .100997928 .23046875 .117996219 .23046875H.6589966Z"/>
<path id="font_2_5" d="M.44898988 .20022583C.44898988 .3193512 .36698915 .41944886 .25898744 .41944886 .21099854 .41944886 .16799927 .40345765 .13198853 .36842347V.5637665C.1519928 .5577698 .18499756 .55078127 .21699524 .55078127 .33999635 .55078127 .4099884 .6417694 .4099884 .6547699 .4099884 .6607666 .40699769 .6657715 .3999939 .6657715 .39898683 .6657715 .39698792 .6657715 .3919983 .66278079 .37199403 .6537781 .32299806 .6337738 .2559967 .6337738 .21598816 .6337738 .16999817 .6407776 .12298584 .6617737 .114990238 .66477969 .11299133 .66477969 .11099243 .66477969 .100997928 .66477969 .100997928 .6567688 .100997928 .6407776V.34439088C.100997928 .32637025 .100997928 .31835938 .114990238 .31835938 .12199402 .31835938 .12399292 .32136537 .12799073 .32736207 .13899231 .3433838 .17599488 .39746095 .25698854 .39746095 .30899049 .39746095 .33399964 .35139466 .34199525 .33337403 .35798646 .29632569 .3600006 .25727845 .3600006 .20722962 .3600006 .17222595 .3600006 .11222839 .33599855 .07035828 .31199647 .031463624 .2749939 .0055389406 .22898865 .0055389406 .1559906 .0055389406 .09899902 .058380128 .08198547 .11723328 .084991458 .1162262 .08799744 .115234378 .09899902 .115234378 .13198853 .115234378 .14898682 .14022827 .14898682 .16423035 .14898682 .18823242 .13198853 .21322632 .09899902 .21322632 .084991458 .21322632 .049987794 .20622254 .049987794 .16023255 .049987794 .07434082 .11898804-.022460938 .23098755-.022460938 .34700013-.022460938 .44898988 .073349 .44898988 .20022583Z"/>
<path id="font_2_4" d="M.2939911 .64004519C.2939911 .66400149 .2939911 .6660156 .2709961 .6660156 .20899964 .60227969 .12098694 .60227969 .08898926 .60227969V.57128909C.10899353 .57128909 .16799927 .57128909 .21998596 .5972748V.07902527C.21998596 .042999269 .21699524 .0309906 .1269989 .0309906H.09498596V0C.12998963 .0029907227 .21699524 .0029907227 .25698854 .0029907227 .29699708 .0029907227 .38398744 .0029907227 .4189911 0V.0309906H.3869934C.29699708 .0309906 .2939911 .041992189 .2939911 .07902527V.64004519Z"/>
<path id="font_2_3" d="M.45999146 .31976319C.45999146 .39982606 .45498658 .47988893 .41999818 .5539398 .37399293 .65000918 .2919922 .6660156 .25 .6660156 .18998719 .6660156 .116989139 .64001467 .07598877 .54693606 .04399109 .47789 .038986207 .39982606 .038986207 .31976319 .038986207 .24472046 .042999269 .15464783 .083999637 .07859802 .1269989-.0024719239 .19999695-.022460938 .24899292-.022460938 .30299378-.022460938 .3789978-.0014648438 .4229889 .09359741 .45498658 .16265869 .45999146 .2407074 .45999146 .31976319M.24899292-.00047302247C.20999146-.00047302247 .15098572 .024551392 .1329956 .12062073 .12199402 .18066406 .12199402 .2727356 .12199402 .3317871 .12199402 .39582826 .12199402 .46188355 .12998963 .5159149 .14898682 .63500979 .22399903 .64401248 .24899292 .64401248 .28199769 .64401248 .34799195 .6259918 .36698915 .52693179 .3769989 .47088624 .3769989 .39482118 .3769989 .3317871 .3769989 .25672914 .3769989 .18867493 .3659973 .12461853 .35099793 .029556275 .2939911-.00047302247 .24899292-.00047302247Z"/>
</defs>
<path transform="matrix(1.00002,0,0,-1,108.281909,121.99)" stroke-width=".3985" stroke-linecap="butt" stroke-miterlimit="10" stroke-linejoin="miter" fill="none" stroke="#00aeef" d="M-99.21555-99.21555H99.21555M-99.21555-89.29399H99.21555M-99.21555-79.37244H99.21555M-99.21555-69.45088H99.21555M-99.21555-59.52933H99.21555M-99.21555-49.60777H99.21555M-99.21555-39.68622H99.21555M-99.21555-29.76466H99.21555M-99.21555-19.84311H99.21555M-99.21555-9.92155H99.21555M-99.21555 0H99.21555M-99.21555 9.92155H99.21555M-99.21555 19.84311H99.21555M-99.21555 29.76466H99.21555M-99.21555 39.68622H99.21555M-99.21555 49.60777H99.21555M-99.21555 59.52933H99.21555M-99.21555 69.45088H99.21555M-99.21555 79.37244H99.21555M-99.21555 89.29399H99.21555M-99.21555 99.21207H99.21555M-99.21555-99.21555V99.21555M-89.29399-99.21555V99.21555M-79.37244-99.21555V99.21555M-69.45088-99.21555V99.21555M-59.52933-99.21555V99.21555M-49.60777-99.21555V99.21555M-39.68622-99.21555V99.21555M-29.76466-99.21555V99.21555M-19.84311-99.21555V99.21555M-9.92155-99.21555V99.21555M0-99.21555V99.21555M9.92155-99.21555V99.21555M19.84311-99.21555V99.21555M29.76466-99.21555V99.21555M39.68622-99.21555V99.21555M49.60777-99.21555V99.21555M59.52933-99.21555V99.21555M69.45088-99.21555V99.21555M79.37244-99.21555V99.21555M89.29399-99.21555V99.21555M99.21207-99.21555V99.21555M99.21555 99.21555"/>
<path transform="matrix(1.00002,0,0,-1,108.281909,121.99)" stroke-width=".79701" stroke-linecap="butt" stroke-miterlimit="10" stroke-linejoin="miter" fill="none" stroke="#000000" d="M-99.21555 0H113.65549"/>
<path transform="matrix(1.00002,0,0,-1,221.93967,121.99)" d="M1.0361 0C-.25902 .25902-1.55415 .77707-3.1083 1.68365-1.55415 .51805-1.55415-.51805-3.1083-1.68365-1.55415-.77707-.25902-.25902 1.0361 0Z"/>
<path transform="matrix(1.00002,0,0,-1,221.93967,121.99)" stroke-width=".79701" stroke-linecap="butt" stroke-linejoin="round" fill="none" stroke="#000000" d="M1.0361 0C-.25902 .25902-1.55415 .77707-3.1083 1.68365-1.55415 .51805-1.55415-.51805-3.1083-1.68365-1.55415-.77707-.25902-.25902 1.0361 0Z"/>
<use data-text="t" xlink:href="#font_1_2" transform="matrix(9.962799,0,0,-9.9626,227.09329,125.054)"/>
<path transform="matrix(1.00002,0,0,-1,108.281909,121.99)" stroke-width=".79701" stroke-linecap="butt" stroke-miterlimit="10" stroke-linejoin="miter" fill="none" stroke="#000000" d="M0-99.21555V113.65549"/>
<path transform="matrix(0,-1,-1.00002,-0,108.281909,8.334511)" d="M1.0361 0C-.25902 .25902-1.55415 .77707-3.1083 1.68365-1.55415 .51805-1.55415-.51805-3.1083-1.68365-1.55415-.77707-.25902-.25902 1.0361 0Z"/>
<path transform="matrix(0,-1,-1.00002,-0,108.281909,8.334511)" stroke-width=".79701" stroke-linecap="butt" stroke-linejoin="round" fill="none" stroke="#000000" d="M1.0361 0C-.25902 .25902-1.55415 .77707-3.1083 1.68365-1.55415 .51805-1.55415-.51805-3.1083-1.68365-1.55415-.77707-.25902-.25902 1.0361 0Z"/>
<use data-text="p" xlink:href="#font_1_1" transform="matrix(9.962799,0,0,-9.9626,90.19554,9.390999)"/>
<use data-text="(" xlink:href="#font_2_1" transform="matrix(9.962799,0,0,-9.9626,95.20865,9.390999)"/>
<use data-text="t" xlink:href="#font_1_2" transform="matrix(9.962799,0,0,-9.9626,99.08272,9.390999)"/>
<use data-text=")" xlink:href="#font_2_2" transform="matrix(9.962799,0,0,-9.9626,102.6808,9.390999)"/>
<path transform="matrix(1.00002,0,0,-1,108.281909,121.99)" stroke-width="1.19553" stroke-linecap="butt" stroke-miterlimit="10" stroke-linejoin="miter" fill="none" stroke="#00aeef" d="M-49.60777-99.21555V99.21555"/>
<path transform="matrix(1.00002,0,0,-1,108.281909,121.99)" stroke-width="1.19553" stroke-linecap="butt" stroke-miterlimit="10" stroke-linejoin="miter" fill="none" stroke="#00aeef" d="M-99.21555-49.60777H99.21555"/>
<path transform="matrix(1.00002,0,0,-1,108.281909,121.99)" stroke-width=".3985" stroke-linecap="butt" stroke-miterlimit="10" stroke-linejoin="miter" fill="none" stroke="#000000" d="M-49.60777 1.48816V-1.48831"/>
<path transform="matrix(1.00002,0,0,-1,108.281909,121.99)" d="M-56.96916-12.92334H-42.246377V-3.68011H-56.96916Z" fill="#ffffff"/>
<use data-text="&#x2212;" xlink:href="#font_3_1" transform="matrix(9.962799,0,0,-9.9626,52.307786,133.087)"/>
<use data-text="5" xlink:href="#font_2_5" transform="matrix(9.962799,0,0,-9.9626,60.05693,133.087)"/>
<path transform="matrix(1.00002,0,0,-1,108.281909,121.99)" stroke-width=".3985" stroke-linecap="butt" stroke-miterlimit="10" stroke-linejoin="miter" fill="none" stroke="#000000" d="M1.48816-49.60777H-1.48831"/>
<path transform="matrix(1.00002,0,0,-1,108.281909,121.99)" d="M-18.4029-54.22939H-3.6801205V-44.98616H-18.4029Z" fill="#ffffff"/>
<use data-text="&#x2212;" xlink:href="#font_3_1" transform="matrix(9.962799,0,0,-9.9626,90.87456,174.393)"/>
<use data-text="5" xlink:href="#font_2_5" transform="matrix(9.962799,0,0,-9.9626,98.6237,174.393)"/>
<path transform="matrix(1.00002,0,0,-1,108.281909,121.99)" stroke-width="1.19553" stroke-linecap="butt" stroke-miterlimit="10" stroke-linejoin="miter" fill="none" stroke="#00aeef" d="M49.60777-99.21555V99.21555"/>
<path transform="matrix(1.00002,0,0,-1,108.281909,121.99)" stroke-width="1.19553" stroke-linecap="butt" stroke-miterlimit="10" stroke-linejoin="miter" fill="none" stroke="#00aeef" d="M-99.21555 49.60777H99.21555"/>
<path transform="matrix(1.00002,0,0,-1,108.281909,121.99)" stroke-width=".3985" stroke-linecap="butt" stroke-miterlimit="10" stroke-linejoin="miter" fill="none" stroke="#000000" d="M49.60777 1.48816V-1.48831"/>
<path transform="matrix(1.00002,0,0,-1,108.281909,121.99)" d="M46.1208-12.09311H53.09474V-3.68013H46.1208Z" fill="#ffffff"/>
<use data-text="5" xlink:href="#font_2_5" transform="matrix(9.962799,0,0,-9.9626,155.39984,133.087)"/>
<path transform="matrix(1.00002,0,0,-1,108.281909,121.99)" stroke-width=".3985" stroke-linecap="butt" stroke-miterlimit="10" stroke-linejoin="miter" fill="none" stroke="#000000" d="M1.48816 49.60777H-1.48831"/>
<path transform="matrix(1.00002,0,0,-1,108.281909,121.99)" d="M-10.65405 45.40128H-3.68011V53.81426H-10.65405Z" fill="#ffffff"/>
<use data-text="5" xlink:href="#font_2_5" transform="matrix(9.962799,0,0,-9.9626,98.62371,75.591999)"/>
<path transform="matrix(1.00002,0,0,-1,108.281909,121.99)" stroke-width="1.19553" stroke-linecap="butt" stroke-miterlimit="10" stroke-linejoin="miter" fill="none" stroke="#00aeef" d="M-99.21555-99.21555V99.21555"/>
<path transform="matrix(1.00002,0,0,-1,108.281909,121.99)" stroke-width="1.19553" stroke-linecap="butt" stroke-miterlimit="10" stroke-linejoin="miter" fill="none" stroke="#00aeef" d="M-99.21555-99.21555H99.21555"/>
<path transform="matrix(1.00002,0,0,-1,108.281909,121.99)" stroke-width=".3985" stroke-linecap="butt" stroke-miterlimit="10" stroke-linejoin="miter" fill="none" stroke="#000000" d="M-99.21555 1.48816V-1.48831"/>
<path transform="matrix(1.00002,0,0,-1,108.281909,121.99)" d="M-109.06766-12.92334H-89.36346V-3.68011H-109.06766Z" fill="#ffffff"/>
<use data-text="&#x2212;" xlink:href="#font_3_1" transform="matrix(9.962799,0,0,-9.9626,.20874024,133.087)"/>
<use data-text="1" xlink:href="#font_2_4" transform="matrix(9.962799,0,0,-9.9626,7.9578859,133.087)"/>
<use data-text="0" xlink:href="#font_2_3" transform="matrix(9.962799,0,0,-9.9626,12.939285,133.087)"/>
<path transform="matrix(1.00002,0,0,-1,108.281909,121.99)" stroke-width=".3985" stroke-linecap="butt" stroke-miterlimit="10" stroke-linejoin="miter" fill="none" stroke="#000000" d="M1.48816-99.21555H-1.48831"/>
<path transform="matrix(1.00002,0,0,-1,108.281909,121.99)" d="M-23.38431-103.83717H-3.680109V-94.59394H-23.38431Z" fill="#ffffff"/>
<use data-text="&#x2212;" xlink:href="#font_3_1" transform="matrix(9.962799,0,0,-9.9626,85.893459,224.001)"/>
<use data-text="1" xlink:href="#font_2_4" transform="matrix(9.962799,0,0,-9.9626,93.6426,224.001)"/>
<use data-text="0" xlink:href="#font_2_3" transform="matrix(9.962799,0,0,-9.9626,98.624,224.001)"/>
<path transform="matrix(1.00002,0,0,-1,108.281909,121.99)" stroke-width="1.19553" stroke-linecap="butt" stroke-miterlimit="10" stroke-linejoin="miter" fill="none" stroke="#00aeef" d="M99.21555-99.21555V99.21555"/>
<path transform="matrix(1.00002,0,0,-1,108.281909,121.99)" stroke-width="1.19553" stroke-linecap="butt" stroke-miterlimit="10" stroke-linejoin="miter" fill="none" stroke="#00aeef" d="M-99.21555 99.21555H99.21555"/>
<path transform="matrix(1.00002,0,0,-1,108.281909,121.99)" stroke-width=".3985" stroke-linecap="butt" stroke-miterlimit="10" stroke-linejoin="miter" fill="none" stroke="#000000" d="M99.21555 1.48816V-1.48831"/>
<path transform="matrix(1.00002,0,0,-1,108.281909,121.99)" d="M93.23787-12.09311H105.19321V-3.68013H93.23787Z" fill="#ffffff"/>
<use data-text="1" xlink:href="#font_2_4" transform="matrix(9.962799,0,0,-9.9626,202.51779,133.087)"/>
<use data-text="0" xlink:href="#font_2_3" transform="matrix(9.962799,0,0,-9.9626,207.49919,133.087)"/>
<path transform="matrix(1.00002,0,0,-1,108.281909,121.99)" stroke-width=".3985" stroke-linecap="butt" stroke-miterlimit="10" stroke-linejoin="miter" fill="none" stroke="#000000" d="M1.48816 99.21555H-1.48831"/>
<path transform="matrix(1.00002,0,0,-1,108.281909,121.99)" d="M-15.63547 95.00906H-3.68013V103.42204H-15.63547Z" fill="#ffffff"/>
<use data-text="1" xlink:href="#font_2_4" transform="matrix(9.962799,0,0,-9.9626,93.64262,25.985)"/>
<use data-text="0" xlink:href="#font_2_3" transform="matrix(9.962799,0,0,-9.9626,98.624019,25.985)"/>
</svg>
