<?xml version="1.0" encoding="UTF-8"?>
<svg xmlns="http://www.w3.org/2000/svg" xmlns:xlink="http://www.w3.org/1999/xlink" width="154pt" height="129pt" viewBox="0 0 154 129" version="1.1">
<g id="surface1">
<path style="fill:none;stroke-width:0.3985;stroke-linecap:butt;stroke-linejoin:miter;stroke:rgb(0%,67.83905%,93.728638%);stroke-opacity:1;stroke-miterlimit:10;" d="M 0.00075 0.00084375 L 136.06325 0.00084375 M 0.00075 18.852406 L 136.06325 18.852406 M 0.00075 37.700063 L 136.06325 37.700063 M 0.00075 56.551625 L 136.06325 56.551625 M 0.00075 75.403188 L 136.06325 75.403188 M 0.00075 94.25475 L 136.06325 94.25475 M 0.00075 113.102406 L 136.06325 113.102406 M 0.00075 0.00084375 L 0.00075 113.102406 M 34.016375 0.00084375 L 34.016375 113.102406 M 68.032 0.00084375 L 68.032 113.102406 M 102.047625 0.00084375 L 102.047625 113.102406 M 136.06325 0.00084375 L 136.06325 113.102406 " transform="matrix(1,0,0,-1,3.093,125.411)"/>
<path style="fill:none;stroke-width:0.79701;stroke-linecap:butt;stroke-linejoin:miter;stroke:rgb(0%,0%,0%);stroke-opacity:1;stroke-miterlimit:10;" d="M 0.00075 0.00084375 L 148.235125 0.00084375 " transform="matrix(1,0,0,-1,3.093,125.411)"/>
<path style="fill-rule:nonzero;fill:rgb(0%,0%,0%);fill-opacity:1;stroke-width:0.79701;stroke-linecap:butt;stroke-linejoin:round;stroke:rgb(0%,0%,0%);stroke-opacity:1;stroke-miterlimit:10;" d="M 1.034331 0.00084375 C -0.258637 0.258656 -1.555512 0.778188 -3.1102 1.684438 C -1.555512 0.516469 -1.555512 -0.518687 -3.1102 -1.68275 C -1.555512 -0.7765 -0.258637 -0.260875 1.034331 0.00084375 Z M 1.034331 0.00084375 " transform="matrix(1,0,0,-1,151.32895,125.411)"/>
<path style="fill:none;stroke-width:0.79701;stroke-linecap:butt;stroke-linejoin:miter;stroke:rgb(0%,0%,0%);stroke-opacity:1;stroke-miterlimit:10;" d="M 0.00075 0.00084375 L 0.00075 122.981313 " transform="matrix(1,0,0,-1,3.093,125.411)"/>
<path style="fill-rule:nonzero;fill:rgb(0%,0%,0%);fill-opacity:1;stroke-width:0.79701;stroke-linecap:butt;stroke-linejoin:round;stroke:rgb(0%,0%,0%);stroke-opacity:1;stroke-miterlimit:10;" d="M 1.036669 -0.00075 C -0.260206 0.260969 -1.553175 0.776594 -3.107862 1.682844 C -1.553175 0.518781 -1.553175 -0.516375 -3.107862 -1.684344 C -1.553175 -0.778094 -0.260206 -0.258562 1.036669 -0.00075 Z M 1.036669 -0.00075 " transform="matrix(0,-1,-1,0,3.093,2.4312)"/>
<path style="fill:none;stroke-width:1.19553;stroke-linecap:butt;stroke-linejoin:miter;stroke:rgb(0%,0%,100%);stroke-opacity:1;stroke-miterlimit:10;" d="M 47.442156 111.239125 C 48.176531 106.141469 48.176531 106.141469 48.56325 103.668813 C 48.946062 101.196156 49.56325 97.481313 49.949969 95.270375 C 50.336687 93.059438 50.953875 89.711781 51.336687 87.731313 C 51.723406 85.75475 52.340594 82.778188 52.727312 81.000844 C 53.110125 79.2235 53.727312 76.528188 54.114031 74.922719 C 54.496844 73.31725 55.117937 70.883656 55.50075 69.434438 C 55.887469 67.981313 56.504656 65.782094 56.887469 64.469594 C 57.274187 63.157094 57.891375 61.161 58.278094 59.969594 C 58.660906 58.778188 59.278094 56.9735 59.664812 55.887563 C 60.051531 54.805531 60.668719 53.153188 61.051531 52.164906 C 61.43825 51.176625 62.055437 49.661 62.442156 48.758656 C 62.824969 47.852406 63.442156 46.4735 63.828875 45.645375 C 64.215594 44.81725 64.832781 43.547719 65.215594 42.789906 C 65.602312 42.028188 66.2195 40.871938 66.606219 40.172719 C 66.989031 39.4735 67.606219 38.395375 67.992937 37.75475 C 68.379656 37.118031 68.996844 36.153188 69.379656 35.563344 C 69.766375 34.9735 70.383562 34.063344 70.770281 33.516469 C 71.153094 32.965688 71.770281 32.121938 72.157 31.618031 C 72.539812 31.110219 73.160906 30.328969 73.543719 29.860219 C 73.930437 29.391469 74.547625 28.668813 74.930437 28.235219 C 75.317156 27.797719 75.934344 27.125844 76.321062 26.719594 C 76.703875 26.31725 77.324969 25.684438 77.707781 25.309438 C 78.0945 24.930531 78.711687 24.356313 79.0945 24.00475 C 79.481219 23.653188 80.098406 23.106313 80.485125 22.778188 C 80.867937 22.450063 81.485125 21.946156 81.871844 21.641469 C 82.258562 21.336781 82.87575 20.868031 83.258562 20.582875 C 83.645281 20.293813 84.262469 19.852406 84.649187 19.586781 C 85.032 19.31725 85.649187 18.903188 86.035906 18.649281 C 86.422625 18.399281 87.039812 18.008656 87.422625 17.770375 C 87.809344 17.536 88.426531 17.176625 88.81325 16.957875 C 89.196062 16.735219 89.81325 16.391469 90.199969 16.184438 C 90.582781 15.977406 91.203875 15.657094 91.586687 15.461781 C 91.973406 15.266469 92.590594 14.961781 92.973406 14.778188 C 93.360125 14.594594 93.977312 14.305531 94.364031 14.133656 C 94.746844 13.961781 95.367937 13.696156 95.75075 13.532094 C 96.137469 13.368031 96.754656 13.110219 97.137469 12.957875 C 97.524187 12.801625 98.141375 12.559438 98.528094 12.414906 C 98.910906 12.270375 99.528094 12.047719 99.914812 11.911 C 100.301531 11.770375 100.918719 11.555531 101.301531 11.422719 C 101.68825 11.293813 102.305437 11.086781 102.692156 10.965688 C 103.074969 10.840688 103.692156 10.649281 104.078875 10.532094 C 104.465594 10.414906 105.082781 10.235219 105.465594 10.121938 C 105.852312 10.012563 106.4695 9.836781 106.856219 9.731313 C 107.239031 9.62975 107.856219 9.465688 108.242937 9.364125 C 108.62575 9.266469 109.246844 9.106313 109.629656 9.012563 C 110.016375 8.918813 110.633562 8.770375 111.020281 8.680531 C 111.403094 8.590688 112.020281 8.450063 112.407 8.364125 C 112.789812 8.278188 113.410906 8.141469 113.793719 8.059438 C 114.180437 7.977406 114.797625 7.8485 115.180437 7.770375 C 115.567156 7.69225 116.184344 7.571156 116.571062 7.496938 C 116.953875 7.422719 117.571062 7.305531 117.957781 7.235219 C 118.3445 7.164906 118.961687 7.055531 119.3445 6.985219 C 119.731219 6.918813 120.348406 6.809438 120.735125 6.746938 C 121.117937 6.680531 121.735125 6.578969 122.121844 6.520375 C 122.508562 6.457875 123.12575 6.364125 123.508562 6.305531 C 123.895281 6.246938 124.512469 6.153188 124.899187 6.0985 C 125.282 6.039906 125.899187 5.950063 126.285906 5.895375 C 126.668719 5.844594 127.289812 5.758656 127.672625 5.707875 C 128.059344 5.653188 128.676531 5.575063 129.06325 5.524281 C 129.446062 5.4735 130.06325 5.399281 130.449969 5.352406 C 130.832781 5.301625 131.453875 5.227406 131.836687 5.184438 C 132.223406 5.137563 132.840594 5.06725 133.223406 5.020375 C 133.610125 4.977406 134.227312 4.907094 134.614031 4.868031 C 134.996844 4.825063 136.00075 4.719594 134.137469 4.914906 " transform="matrix(1,0,0,-1,3.093,125.411)"/>
<path style="fill-rule:nonzero;fill:rgb(0%,0%,100%);fill-opacity:1;stroke-width:1.19553;stroke-linecap:butt;stroke-linejoin:round;stroke:rgb(0%,0%,100%);stroke-opacity:1;stroke-miterlimit:10;" d="M 1.276511 0.000481222 C -0.319632 0.317647 -1.912554 0.957993 -3.824123 2.070588 C -1.911351 0.63812 -1.913713 -0.636388 -3.82614 -2.073369 C -1.91251 -0.956261 -0.320534 -0.317675 1.276511 0.000481222 Z M 1.276511 0.000481222 " transform="matrix(-0.14282,-0.9897,-0.9897,0.14282,50.53435,14.17345)"/>
<path style="fill-rule:nonzero;fill:rgb(0%,0%,100%);fill-opacity:1;stroke-width:1.19553;stroke-linecap:butt;stroke-linejoin:round;stroke:rgb(0%,0%,100%);stroke-opacity:1;stroke-miterlimit:10;" d="M 1.275858 -0.000632784 C -0.320074 0.317248 -1.914011 0.957368 -3.824044 2.071385 C -1.912523 0.639417 -1.913941 -0.637077 -3.827212 -2.072161 C -1.912453 -0.955028 -0.317099 -0.318654 1.275858 -0.000632784 Z M 1.275858 -0.000632784 " transform="matrix(0.99466,0.10294,0.10294,-0.99466,137.23102,120.49694)"/>
<path style="fill:none;stroke-width:1.19553;stroke-linecap:butt;stroke-linejoin:miter;stroke:rgb(100%,0%,0%);stroke-opacity:1;stroke-miterlimit:10;" d="M 39.606219 111.301625 C 40.367937 107.075063 40.367937 107.075063 40.785906 104.911 C 41.207781 102.746938 41.879656 99.489125 42.297625 97.547719 C 42.715594 95.606313 43.391375 92.676625 43.809344 90.930531 C 44.227312 89.184438 44.903094 86.543813 45.321062 84.965688 C 45.739031 83.387563 46.414812 80.989125 46.832781 79.563344 C 47.25075 78.133656 47.922625 75.965688 48.3445 74.664906 C 48.762469 73.368031 49.434344 71.387563 49.856219 70.203969 C 50.274187 69.020375 50.946062 67.215688 51.367937 66.133656 C 51.785906 65.051625 52.457781 63.395375 52.879656 62.403188 C 53.297625 61.411 53.9695 59.899281 54.391375 58.989125 C 54.809344 58.078969 55.481219 56.684438 55.899187 55.840688 C 56.321062 55.000844 56.992937 53.711781 57.410906 52.934438 C 57.832781 52.161 58.504656 50.969594 58.922625 50.250844 C 59.3445 49.536 60.016375 48.430531 60.434344 47.770375 C 60.856219 47.106313 61.528094 46.086781 61.946062 45.469594 C 62.367937 44.856313 63.039812 43.899281 63.457781 43.325063 C 63.879656 42.750844 64.551531 41.871938 64.9695 41.336781 C 65.387469 40.801625 66.06325 39.977406 66.481219 39.477406 C 66.899187 38.977406 67.574969 38.200063 67.992937 37.739125 C 68.410906 37.274281 69.086687 36.571156 69.504656 36.137563 C 69.922625 35.703969 70.5945 35.020375 71.016375 34.610219 C 71.434344 34.200063 72.106219 33.571156 72.528094 33.188344 C 72.946062 32.801625 73.617937 32.203969 74.039812 31.840688 C 74.457781 31.481313 75.129656 30.918813 75.551531 30.578969 C 75.9695 30.239125 76.641375 29.715688 77.06325 29.395375 C 77.481219 29.075063 78.153094 28.575063 78.571062 28.274281 C 78.992937 27.9735 79.664812 27.50475 80.082781 27.219594 C 80.504656 26.934438 81.176531 26.485219 81.5945 26.215688 C 82.016375 25.946156 82.68825 25.532094 83.106219 25.274281 C 83.528094 25.020375 84.199969 24.618031 84.617937 24.375844 C 85.039812 24.133656 85.711687 23.75475 86.129656 23.528188 C 86.551531 23.297719 87.223406 22.94225 87.641375 22.7235 C 88.059344 22.508656 88.735125 22.164906 89.153094 21.957875 C 89.571062 21.750844 90.246844 21.430531 90.664812 21.235219 C 91.082781 21.036 91.754656 20.731313 92.176531 20.543813 C 92.5945 20.356313 93.266375 20.063344 93.68825 19.887563 C 94.106219 19.707875 94.778094 19.430531 95.199969 19.262563 C 95.617937 19.090688 96.289812 18.825063 96.711687 18.661 C 97.129656 18.500844 97.801531 18.246938 98.223406 18.094594 C 98.641375 17.938344 99.31325 17.696156 99.735125 17.547719 C 100.153094 17.399281 100.824969 17.168813 101.242937 17.028188 C 101.664812 16.887563 102.336687 16.664906 102.754656 16.528188 C 103.176531 16.395375 103.848406 16.184438 104.266375 16.055531 C 104.68825 15.926625 105.360125 15.7235 105.778094 15.5985 C 106.199969 15.4735 106.871844 15.278188 107.289812 15.161 C 107.711687 15.043813 108.383562 14.856313 108.801531 14.743031 C 109.2195 14.62975 109.895281 14.453969 110.31325 14.344594 C 110.731219 14.235219 111.407 14.063344 111.824969 13.957875 C 112.242937 13.852406 112.918719 13.688344 113.336687 13.586781 C 113.754656 13.485219 114.426531 13.328969 114.848406 13.231313 C 115.266375 13.133656 115.93825 12.981313 116.360125 12.891469 C 116.778094 12.797719 117.449969 12.649281 117.871844 12.563344 C 118.289812 12.4735 118.961687 12.332875 119.383562 12.246938 C 119.801531 12.161 120.473406 12.024281 120.895281 11.94225 C 121.31325 11.860219 121.985125 11.727406 122.407 11.649281 C 122.824969 11.56725 123.496844 11.446156 123.914812 11.368031 C 124.336687 11.289906 125.008562 11.164906 125.426531 11.090688 C 125.848406 11.016469 126.520281 10.903188 126.93825 10.832875 C 127.360125 10.762563 128.032 10.649281 128.449969 10.578969 C 128.871844 10.508656 129.543719 10.399281 129.961687 10.332875 C 130.383562 10.266469 131.055437 10.161 131.473406 10.0985 C 131.891375 10.032094 132.567156 9.930531 132.985125 9.868031 C 133.403094 9.805531 134.078875 9.707875 134.496844 9.649281 C 134.914812 9.590688 136.008562 9.438344 134.153094 9.696156 " transform="matrix(1,0,0,-1,3.093,125.411)"/>
<path style="fill-rule:nonzero;fill:rgb(100%,0%,0%);fill-opacity:1;stroke-width:1.19553;stroke-linecap:butt;stroke-linejoin:round;stroke:rgb(100%,0%,0%);stroke-opacity:1;stroke-miterlimit:10;" d="M 1.27724 0.000853587 C -0.320445 0.320078 -1.912769 0.955868 -3.827074 2.074287 C -1.914286 0.638611 -1.913354 -0.635644 -3.827177 -2.073425 C -1.911717 -0.957438 -0.320325 -0.318972 1.27724 0.000853587 Z M 1.27724 0.000853587 " transform="matrix(-0.17708,-0.98416,-0.98416,0.17708,42.69967,14.10842)"/>
<path style="fill-rule:nonzero;fill:rgb(100%,0%,0%);fill-opacity:1;stroke-width:1.19553;stroke-linecap:butt;stroke-linejoin:round;stroke:rgb(100%,0%,0%);stroke-opacity:1;stroke-miterlimit:10;" d="M 1.273758 0.0000976258 C -0.316842 0.318277 -1.912529 0.955233 -3.823824 2.07269 C -1.911312 0.635917 -1.910852 -0.638019 -3.824557 -2.072843 C -1.913504 -0.957876 -0.318817 -0.317026 1.273758 0.0000976258 Z M 1.273758 0.0000976258 " transform="matrix(0.99036,0.13834,0.13834,-0.99036,137.24632,115.71451)"/>
</g>
</svg>
