<svg xmlns="http://www.w3.org/2000/svg" xmlns:xlink="http://www.w3.org/1999/xlink" version="1.1" width="143" height="101" viewBox="0 0 143 101">
<defs>
<path id="font_1_62" d="M.7319946 0V.0309906H.70899966C.6319885 .0309906 .6299896 .041992189 .6299896 .07896423V.60365298C.6299896 .640625 .6319885 .6516113 .70899966 .6516113H.7319946V.6826172C.68699648 .6796112 .6309967 .6796112 .58499148 .6796112 .5389862 .6796112 .48298646 .6796112 .43798829 .6826172V.6516113H.46099855C.5379944 .6516113 .5399933 .640625 .5399933 .60365298V.37083436H.22999573V.60365298C.22999573 .640625 .23199463 .6516113 .30899049 .6516113H.33198548V.6826172C.2869873 .6796112 .23098755 .6796112 .18499756 .6796112 .13899231 .6796112 .08299255 .6796112 .037994386 .6826172V.6516113H.06098938C.13798523 .6516113 .13999939 .640625 .13999939 .60365298V.07896423C.13999939 .041992189 .13798523 .0309906 .06098938 .0309906H.037994386V0C.08299255 .0029907227 .13899231 .0029907227 .18499756 .0029907227 .23098755 .0029907227 .2869873 .0029907227 .33198548 0V.0309906H.30899049C.23199463 .0309906 .22999573 .041992189 .22999573 .07896423V.33984376H.5399933V.07896423C.5399933 .041992189 .5379944 .0309906 .46099855 .0309906H.43798829V0C.48298646 .0029907227 .5389862 .0029907227 .58499148 .0029907227 .6309967 .0029907227 .68699648 .0029907227 .7319946 0Z"/>
<path id="font_1_81" d="M.48399354 .21324158C.48399354 .34423829 .37998963 .4482422 .25698854 .4482422 .12998963 .4482422 .0289917 .3412323 .0289917 .21324158 .0289917 .08824158 .1329956-.0107421879 .2559967-.0107421879 .3829956-.0107421879 .48399354 .09024048 .48399354 .21324158M.397995 .22224427C.397995 .1852417 .397995 .12724304 .37298585 .08325195 .34498597 .037246705 .29899598 .01725769 .25698854 .01725769 .20698548 .01725769 .16499329 .042251588 .14199829 .08125305 .115997318 .12324524 .114990238 .17623902 .114990238 .22224427 .114990238 .25924684 .114990238 .3162384 .13999939 .35723878 .16999817 .40823365 .21998596 .42323304 .2559967 .42323304 .31298829 .42323304 .35398866 .39123536 .37399293 .35723878 .39698792 .31523133 .397995 .26423646 .397995 .22224427Z"/>
<path id="font_1_75" d="M.83299258 0V.0309906C.7819977 .03125 .7569885 .03125 .7559967 .0622406V.2539215C.7559967 .34077455 .7559967 .36872865 .72299197 .4056549 .70199587 .43037416 .6619873 .4423828 .6159973 .4423828 .5439911 .4423828 .49499513 .40037538 .46699525 .3473816 .45498658 .40637208 .4149933 .4423828 .33099366 .4423828 .25099183 .4423828 .20199585 .39038087 .18099976 .3443756H.17999268V.4423828L.034988405 .43066407V.3996582C.102996829 .3996582 .11199951 .39266969 .11199951 .34370423V.07695007C.11199951 .0309906 .100997928 .0309906 .034988405 .0309906V0C.08198547 .0019989014 .100997928 .0029907227 .14898682 .0029907227 .19699097 .0029907227 .20999146 .0019989014 .2630005 0V.0309906C.19699097 .0309906 .18598938 .0309906 .18598938 .07695007V.25878907C.18598938 .36732484 .2639923 .41737367 .32398988 .41737367 .3789978 .41737367 .39698792 .37834168 .39698792 .30825807V.077041629C.39698792 .0309906 .38598634 .0309906 .31999208 .0309906V0C.36698915 .0019989014 .38598634 .0029907227 .43399049 .0029907227 .48199464 .0029907227 .49499513 .0019989014 .5479889 0V.0309906C.48199464 .0309906 .47099305 .0309906 .47099305 .077041629V.2592163C.47099305 .36732484 .548996 .41737367 .60899356 .41737367 .6639862 .41737367 .6819916 .37834168 .6819916 .30825807V.077041629C.6819916 .0309906 .67099 .0309906 .6049957 .0309906V0C.6519928 .0019989014 .67099 .0029907227 .71899417 .0029907227 .7669983 .0029907227 .7799988 .0019989014 .83299258 0Z"/>
<path id="font_1_50" d="M.4269867 .11936951C.4269867 .12637329 .42199708 .13237 .41299439 .13237 .40299989 .13237 .3999939 .12536621 .39898683 .12136841 .36499024 .019256592 .27598573 .01725769 .26098634 .01725769 .21299744 .01725769 .17199707 .044281007 .14898682 .078323367 .115997318 .12736511 .114990238 .18743897 .114990238 .22949219H.3999939C.42199708 .22949219 .4269867 .22949219 .4269867 .25048829 .4269867 .35333253 .37098695 .4482422 .24299622 .4482422 .12298584 .4482422 .0289917 .3443451 .0289917 .22047425 .0289917 .08932495 .13398743-.0107421879 .2559967-.0107421879 .37799073-.0107421879 .4269867 .096343997 .4269867 .11936951M.35899354 .253479H.115997318C.125 .40725709 .21499634 .42323304 .24299622 .42323304 .2979889 .42323304 .35798646 .38130189 .35899354 .253479Z"/>
<path id="font_2_84" d="M.5209961 .21636963C.5209961 .34336854 .42399598 .4423828 .31199647 .4423828 .23399353 .4423828 .19198609 .39837647 .17199707 .3763733V.4423828L.027999878 .43066407V.3996582C.09899902 .3996582 .10598755 .3936615 .10598755 .34973146V-.117996219C.10598755-.16308594 .09498596-.16308594 .027999878-.16308594V-.1940918L.13999939-.19110108 .25299073-.1940918V-.16308594C.18598938-.16308594 .1749878-.16308594 .1749878-.117996219V.050186159 .059173585C.17999268 .04319763 .22200012-.0107421879 .2979889-.0107421879 .4169922-.0107421879 .5209961 .087127689 .5209961 .21594239V.21636963M.43798829 .21594239C.43798829 .09512329 .36799623 .011245728 .2939911 .011245728 .2539978 .011245728 .21598816 .031219483 .18899536 .07215881 .1749878 .09312439 .1749878 .09411621 .1749878 .114089969V.33674623C.20399475 .38838197 .25299073 .41737367 .3039856 .41737367 .3769989 .41737367 .43798829 .32937623 .43798829 .21636963V.21594239Z"/>
<path id="font_2_72" d="M.25498963 0V.0309906C.18798828 .0309906 .1769867 .0309906 .1769867 .07601929V.69433596L.032989503 .6826172V.6516113C.102996829 .6516113 .11099243 .64460757 .11099243 .5956421V.07595825C.11099243 .0309906 .099990848 .0309906 .032989503 .0309906V0L.14399719 .0029907227 .25498963 0Z"/>
<path id="font_2_28" d="M.48298646 .08912659V.14511109H.45799256V.08912659C.45799256 .03112793 .43299867 .025131226 .42199708 .025131226 .3889923 .025131226 .3849945 .070129398 .3849945 .07511902V.27508546C.3849945 .31707765 .3849945 .3560791 .34899903 .39312745 .30999757 .43223573 .2599945 .4482422 .21199036 .4482422 .12998963 .4482422 .06098938 .40115357 .06098938 .335083 .06098938 .30508424 .08099365 .28808595 .10699463 .28808595 .1349945 .28808595 .15299988 .30807496 .15299988 .33407594 .15299988 .3460846 .147995 .37908937 .101989749 .38008119 .1289978 .41519166 .17799378 .426239 .20999146 .426239 .25898744 .426239 .31599427 .38710023 .31599427 .29808045V.26107789C.2649994 .25808717 .19499207 .25508119 .13198853 .22509766 .056991579 .19110108 .03199768 .13911438 .03199768 .09512329 .03199768 .014251709 .1289978-.0107421879 .19198609-.0107421879 .2579956-.0107421879 .3039856 .029251099 .32299806 .07624817 .32699586 .036132814 .35398866-.005859375 .40098573-.005859375 .42199708-.005859375 .48298646 .008132935 .48298646 .08912659M.31599427 .14013672C.31599427 .04525757 .24398804 .011245728 .19898987 .011245728 .1499939 .011245728 .10899353 .04624939 .10899353 .09625244 .10899353 .15124512 .15098572 .23425293 .31599427 .24024964V.14013672Z"/>
<path id="font_2_105" d="M.33198548 .12385559V.18066406H.30699159V.12585449C.30699159 .052108766 .2769928 .014251709 .23999024 .014251709 .17298889 .014251709 .17298889 .10491943 .17298889 .12187195V.3996582H.31599427V.43066407H.17298889V.6142578H.147995C.14698792 .5324249 .116989139 .42565919 .018997193 .42166139V.3996582H.10398865V.12408447C.10398865 .0012512207 .19699097-.0107421879 .23298645-.0107421879 .3039856-.0107421879 .33198548 .060180665 .33198548 .12408447V.12385559Z"/>
<path id="font_2_50" d="M.4149933 .11933899C.4149933 .12934876 .40699769 .13134766 .4019928 .13134766 .3929901 .13134766 .3909912 .12535095 .3889923 .11734009 .35398866 .014251709 .2639923 .014251709 .2539978 .014251709 .20399475 .014251709 .1639862 .044281007 .14099121 .08131409 .11099243 .12934876 .11099243 .19540406 .11099243 .23144531H.3899994C.4119873 .23144531 .4149933 .23144531 .4149933 .2524414 .4149933 .35131837 .36099244 .4482422 .23599243 .4482422 .11999512 .4482422 .027999878 .34532167 .027999878 .22042847 .027999878 .08631897 .1329956-.0107421879 .24798584-.0107421879 .36999513-.0107421879 .4149933 .10032654 .4149933 .11933899M.34899903 .2524414H.11199951C.117996219 .40126039 .20199585 .426239 .23599243 .426239 .33898927 .426239 .34899903 .2913971 .34899903 .2524414Z"/>
<path id="font_1_82" d="M.43199159 0V.0309906H.3999939C.30699159 .0309906 .3039856 .042999269 .3039856 .08001709V.63912966C.3039856 .6640167 .30299378 .6660156 .27799989 .6660156 .21598816 .60227969 .12399292 .60227969 .09298706 .60227969V.57128909C.11199951 .57128909 .17298889 .57128909 .22698975 .5972748V.08001709C.22698975 .042999269 .22399903 .0309906 .1309967 .0309906H.09899902V0C.1349945 .0029907227 .22399903 .0029907227 .2649994 .0029907227 .30599977 .0029907227 .3959961 .0029907227 .43199159 0Z"/>
<path id="font_1_98" d="M.36999513 .12831116C.36999513 .17330933 .34999085 .20030213 .32798768 .22329712 .2939911 .25628663 .2579956 .26327516 .18399048 .2772827 .1579895 .28227235 .084991458 .29527284 .084991458 .35224916 .084991458 .38424684 .10798645 .426239 .19898987 .426239 .30699159 .426239 .31399537 .34326173 .31599427 .31826783 .31698609 .3062744 .31698609 .3002777 .32998658 .3002777 .34399415 .3002777 .34399415 .30726625 .34399415 .32626344V.4222412C.34399415 .4392395 .34399415 .4482422 .33198548 .4482422 .32699586 .4482422 .32499696 .4482422 .31199647 .43623353 .30999757 .43423463 .30099488 .42523194 .29499818 .4202423 .2639923 .44223023 .23298645 .4482422 .19898987 .4482422 .066986087 .4482422 .033996583 .37524415 .033996583 .32426454 .033996583 .29226686 .04798889 .26628114 .070999149 .24429322 .10499573 .21330261 .14299011 .20629883 .19400025 .19729615 .24499512 .18730164 .2619934 .18431092 .28399659 .16731262 .2939911 .15931702 .31900025 .14031983 .31900025 .10229492 .31900025 .014251709 .21798706 .014251709 .20399475 .014251709 .101989749 .014251709 .07598877 .0993042 .06399536 .15332031 .06098938 .16331482 .05999756 .16931153 .04798889 .16931153 .033996583 .16931153 .033996583 .16131592 .033996583 .14331055V.01524353C.033996583-.0017547608 .033996583-.0107421879 .04598999-.0107421879 .051986696-.0107421879 .052993776-.009750366 .070999149 .009246826 .07499695 .01524353 .085998538 .028259278 .09098816 .03326416 .1329956-.007751465 .1789856-.0107421879 .20399475-.0107421879 .32699586-.0107421879 .36999513 .061279298 .36999513 .12831116Z"/>
<path id="font_1_105" d="M.34199525 .12408447V.18099976H.31399537V.1270752C.31399537 .05319214 .2829895 .01725769 .24699402 .01725769 .17999268 .01725769 .17999268 .1051178 .17999268 .12309265V.3996582H.32499696V.43066407H.17999268V.6142578H.1519928C.15098572 .5304413 .115997318 .42765809 .018997193 .4246521V.3996582H.10598755V.12408447C.10598755 .012252808 .18699646-.0107421879 .23999024-.0107421879 .30699159-.011001587 .34199525 .052993776 .34199525 .12399292V.12408447Z"/>
<path id="font_1_35" d="M.5359955 .21636963C.5359955 .34144593 .43699647 .4423828 .31698609 .4423828 .24899292 .4423828 .20199585 .4073944 .17799378 .38046266V.69433596L.02999878 .68333438V.6523285C.09799194 .6523285 .10699463 .6453247 .10699463 .596344V.00024414063H.1349945L.17199707 .061279298C.20298767 .01725769 .25299073-.0107421879 .30699159-.0107421879 .42599488-.0107421879 .5359955 .08529663 .5359955 .21636963M.44999696 .21737671C.44999696 .17034912 .44400025 .11730957 .41799928 .07728577 .3959961 .045272829 .35499574 .014251709 .3019867 .014251709 .25698854 .014251709 .21899414 .038269044 .19499207 .075286868 .18099976 .09629822 .18099976 .0973053 .18099976 .11631775V.31944276C.18099976 .3384552 .18099976 .33944703 .19198609 .35546876 .22599793 .40141297 .2749939 .41737367 .31298829 .41737367 .35598756 .41737367 .3959961 .39343263 .42199708 .3514557 .44799806 .3084259 .44999696 .24938965 .44999696 .21737671Z"/>
<path id="font_1_28" d="M.49699403 .089141849V.14515686H.46899415V.090148929C.46899415 .07914734 .46899415 .029129029 .43299867 .029129029 .39698792 .029129029 .39698792 .07714844 .39698792 .09315491V.26818849C.39698792 .32521058 .39698792 .3592224 .35198976 .40022279 .31498719 .43322755 .2669983 .4482422 .21699524 .4482422 .1329956 .4482422 .06298828 .40623475 .06298828 .34220887 .06298828 .311203 .083999637 .2942047 .10998535 .2942047 .13699341 .2942047 .1559906 .31420899 .1559906 .34020997 .1559906 .3832245 .11099243 .38822938 .11099243 .38822938 .13798523 .41423036 .18598938 .42323304 .21499634 .42323304 .2659912 .42323304 .32299806 .3852234 .32299806 .29719544V.26419068C.2689972 .26219178 .19400025 .2571869 .1269989 .22518921 .054992677 .19017029 .032989503 .13816834 .032989503 .09814453 .032989503 .01625061 .12998963-.0107421879 .19699097-.0107421879 .27999879-.0107421879 .31799317 .04425049 .33198548 .072250369 .33699037 .030136109 .3659973-.005859375 .40899659-.005859375 .43399049-.005859375 .49699403 .009140015 .49699403 .08912659V.089141849M.32299806 .14112854C.32299806 .04425049 .24798584 .014251709 .20399475 .014251709 .15699768 .014251709 .11299133 .04824829 .11299133 .098236087 .11299133 .16423035 .16999817 .23422241 .32299806 .24023438V.14112854Z"/>
<path id="font_1_107" d="M.46199037 .17704773H.43399049C.43199159 .16404724 .42399598 .10501099 .41099549 .08900452 .40499879 .07998657 .33599855 .07998657 .31599427 .07998657H.13798523L.23699951 .17404175C.40098573 .3161316 .46199037 .36915589 .46199037 .4711914 .46199037 .5860901 .36698915 .6660156 .24398804 .6660156 .1289978 .6660156 .050994874 .575119 .050994874 .4841919 .050994874 .43418885 .09399414 .42919923 .102996829 .42919923 .125 .42919923 .15499878 .44519044 .15499878 .48120118 .15499878 .51119998 .13398743 .5332031 .102996829 .5332031 .09799194 .5332031 .09498596 .5332031 .09098816 .53219607 .114990238 .6030731 .1789856 .63500979 .23298645 .63500979 .33499146 .63500979 .36999513 .5401764 .36999513 .4711914 .36999513 .36915589 .29299928 .28611756 .24499512 .23408509L.06199646 .035995485C.050994874 .024993897 .050994874 .022994996 .050994874 0H.43399049L.46199037 .17704773Z"/>
<path id="font_1_77" d="M.5469971 0V.0309906C.49598695 .03125 .47099305 .03125 .46998597 .0622406V.25431825C.46998597 .3373413 .46998597 .36636354 .44198609 .4013672 .4189911 .42938233 .3809967 .4423828 .33099366 .4423828 .23799134 .4423828 .19499207 .37335206 .18099976 .34535218H.17999268V.4423828L.034988405 .43066407V.3996582C.102996829 .3996582 .11199951 .39266969 .11199951 .34370423V.07695007C.11199951 .0309906 .100997928 .0309906 .034988405 .0309906V0C.08198547 .0019989014 .100997928 .0029907227 .14898682 .0029907227 .19699097 .0029907227 .20999146 .0019989014 .2630005 0V.0309906C.19699097 .0309906 .18598938 .0309906 .18598938 .07695007V.25878907C.18598938 .36532594 .26098634 .41737367 .32398988 .41737367 .3829956 .41737367 .3959961 .3683319 .3959961 .30825807V.077041629C.3959961 .0309906 .3849945 .0309906 .31900025 .0309906V0C.3659973 .0019989014 .3849945 .0029907227 .43299867 .0029907227 .48098756 .0029907227 .49398805 .0019989014 .5469971 0Z"/>
<path id="font_1_47" d="M.5399933 0V.0309906C.47200013 .0309906 .46299745 .037994386 .46299745 .087020877V.69433596L.31498719 .6826172V.6516113C.3829956 .6516113 .3919983 .64463809 .3919983 .59580996V.38339234C.3869934 .38938905 .34199525 .4423828 .2639923 .4423828 .14099121 .4423828 .033996583 .3443756 .033996583 .21525574 .033996583 .09013367 .13398743-.0107421879 .25299073-.0107421879 .32598878-.0107421879 .37098695 .03224182 .3889923 .053115846V-.0107421879L.5399933 0M.3889923 .12011719C.3889923 .10211182 .3889923 .099121097 .37399293 .078125 .34298707 .033218385 .29699708 .014251709 .25698854 .014251709 .21398926 .014251709 .17399597 .038208009 .147995 .0801239 .12199402 .12312317 .11999512 .18218994 .11999512 .21421814 .11999512 .26127626 .12599182 .3143463 .1519928 .35438539 .17399597 .38638307 .21499634 .41737367 .2679901 .41737367 .30999757 .41737367 .34999085 .39637757 .3769989 .35839845 .3889923 .3423767 .3889923 .34136964 .3889923 .32235719V.12011719Z"/>
<path id="font_1_106" d="M.46998597 .17008972C.46998597 .25709535 .40098573 .33110047 .30499269 .35209657 .397995 .38710023 .44198609 .46009828 .44198609 .5290985 .44198609 .60606387 .35699464 .6660156 .25299073 .6660156 .14898682 .6660156 .070999149 .60705569 .070999149 .5310974 .070999149 .49809266 .09298706 .47909547 .12199402 .47909547 .15098572 .47909547 .17199707 .50009158 .17199707 .5290985 .17199707 .5640869 .147995 .57910159 .11399841 .57910159 .13999939 .6210327 .20098877 .64100649 .25 .64100649 .33299256 .64100649 .34899903 .5750885 .34899903 .52809146 .34899903 .49809266 .34298707 .45005799 .31799317 .41201783 .2869873 .36695863 .2519989 .36495973 .22299195 .36296083 .19799805 .36094667 .19599915 .36094667 .18798828 .36094667 .1789856 .35995484 .17098999 .35894776 .17098999 .34794618 .17098999 .33496095 .1789856 .33496095 .19599915 .33496095H.24299622C.32998658 .33496095 .36799623 .2646637 .36799623 .16937256 .36799623 .04145813 .2999878 .0055389406 .24899292 .0055389406 .22999573 .0055389406 .1329956 .010528564 .08799744 .0843811 .12399292 .07939148 .1519928 .10437012 .1519928 .13838196 .1519928 .17137146 .1269989 .19238281 .09799194 .19238281 .07299805 .19238281 .042999269 .17736817 .042999269 .13537598 .042999269 .046447755 .13598633-.022460938 .2519989-.022460938 .3769989-.022460938 .46998597 .06741333 .46998597 .16937256V.17008972Z"/>
<path id="font_1_96" d="M.37298585 .3798828C.37298585 .41236878 .34298707 .4423828 .2979889 .4423828 .23799134 .4423828 .19599915 .40037538 .17298889 .33787538H.17199707V.4423828L.02999878 .43066407V.3996582C.09799194 .3996582 .10699463 .3927307 .10699463 .34387208V.07698059C.10699463 .0309906 .09599304 .0309906 .02999878 .0309906V0C.08299255 .0019989014 .09599304 .0029907227 .14698792 .0029907227L.27398683 0V.0309906H.2539978C.18099976 .0309906 .17799378 .041992189 .17799378 .07897949V.22891236C.17799378 .26989747 .18899536 .4166565 .30299378 .4166565V.4156494C.30099488 .4146576 .2849884 .40264894 .2849884 .37887574 .2849884 .35186769 .30599977 .33486939 .32899476 .33486939 .34999085 .33486939 .37298585 .34986878 .37298585 .3798828Z"/>
<path id="font_3_1" d="M.33399964 .30233766C.33999635 .32835389 .36299134 .42037965 .43299867 .42037965 .43798829 .42037965 .46199037 .42037965 .48298646 .40734864 .45498658 .402359 .43499757 .37734986 .43499757 .35334779 .43499757 .33735658 .44599916 .31835938 .47299195 .31835938 .49499513 .31835938 .5269928 .3363495 .5269928 .37635804 .5269928 .42837525 .46798707 .4423828 .43399049 .4423828 .37599183 .4423828 .34098817 .38935853 .32899476 .36634828 .3039856 .43237306 .25 .4423828 .22099304 .4423828 .116989139 .4423828 .05999756 .3133545 .05999756 .28834535 .05999756 .27833558 .069992069 .27833558 .07199097 .27833558 .07998657 .27833558 .08299255 .28033448 .084991458 .28933717 .11898804 .39535523 .18499756 .42037965 .21899414 .42037965 .23799134 .42037965 .272995 .4113617 .272995 .35334779 .272995 .32235719 .2559967 .25532533 .21899414 .11528015 .20298767 .053268434 .16799927 .011245728 .12399292 .011245728 .117996219 .011245728 .09498596 .011245728 .07398987 .024276734 .09899902 .029266358 .12098694 .05027771 .12098694 .07827759 .12098694 .105270389 .09899902 .11328125 .083999637 .11328125 .053985597 .11328125 .0289917 .08728027 .0289917 .055267335 .0289917 .009246826 .07899475-.0107421879 .12298584-.0107421879 .18899536-.0107421879 .22499085 .059280397 .22799683 .0652771 .23999024 .028274537 .27598573-.0107421879 .33599855-.0107421879 .43899537-.0107421879 .49598695 .118270877 .49598695 .14328003 .49598695 .1532898 .4869995 .1532898 .48399354 .1532898 .47499085 .1532898 .47299195 .14929199 .47099305 .14228821 .43798829 .03527832 .36999513 .011245728 .33799745 .011245728 .29899598 .011245728 .2829895 .043273927 .2829895 .07727051 .2829895 .09927368 .2889862 .121276859 .2999878 .16529846L.33399964 .30233766Z"/>
<path id="font_1_78" d="M.46998597 .3287964C.46998597 .5999756 .34999085 .6660156 .2599945 .6660156 .14498902 .6660156 .042999269 .5729675 .042999269 .44187928 .042999269 .31478883 .1349945 .21875 .24798584 .21875 .32099916 .21875 .36099244 .27175904 .3789978 .31478883V.2927704C.3789978 .04875183 .2679901 .0055389406 .21099854 .0055389406 .18798828 .0055389406 .13699341 .009552002 .11099243 .042755128H.114990238C.12298584 .040740968 .1619873 .04875183 .1619873 .088760379 .1619873 .11476135 .14399719 .13476563 .115997318 .13476563 .08799744 .13476563 .068984989 .116760257 .068984989 .086761478 .068984989 .020629883 .12199402-.022460938 .21199036-.022460938 .34098817-.022460938 .46998597 .10975647 .46998597 .32888795V.3287964M.3769989 .42089845C.3769989 .34788514 .34399415 .2437439 .25 .2437439 .23399353 .2437439 .18499756 .2437439 .15299988 .30584718 .13398743 .34388734 .13398743 .3928833 .13398743 .4409027 .13398743 .48892213 .13398743 .5389557 .15499878 .5769806 .18499756 .628006 .22399903 .64100649 .2599945 .64100649 .32798768 .64100649 .35499574 .5719757 .35899354 .56196597 .37298585 .5249481 .3769989 .46391297 .3769989 .42089845Z"/>
<path id="font_1_121" d="M.47299195 .31976319C.47299195 .38682557 .46998597 .47288514 .43499757 .5479431 .3909912 .64201357 .31498719 .6660156 .25698854 .6660156 .19699097 .6660156 .12098694 .64201357 .07699585 .5459442 .04499817 .47688294 .039993287 .39582826 .039993287 .31976319 .039993287 .25471498 .041992189 .15765381 .084991458 .07858276 .13198853-.0064697267 .20999146-.022460938 .2559967-.022460938 .32099916-.022460938 .394989 .0055389406 .43699647 .097595218 .46699525 .1646576 .47299195 .23971558 .47299195 .31976319M.3869934 .33177186C.3869934 .2697296 .3869934 .18566895 .3769989 .12661743 .35598756 .012542725 .28199769 .002532959 .25698854 .002532959 .22698975 .002532959 .15499878 .016540528 .13598633 .12962342 .12599182 .18867493 .12599182 .2747345 .12599182 .33177186 .12599182 .39982606 .12599182 .47888185 .13798523 .53393557 .1579895 .6230011 .22200012 .64100649 .2559967 .64100649 .2939911 .64100649 .35699464 .62098696 .37599183 .5279236 .3869934 .47288514 .3869934 .39482118 .3869934 .33177186Z"/>
<path id="font_1_55" d="M.3659973 .6340637C.3659973 .67207339 .32798768 .7050781 .272995 .7050781 .19499207 .7046509 .11299133 .6456604 .11299133 .5456543V.43066407H.033996583V.3996582H.11299133V.07695007C.11299133 .0309906 .101989749 .0309906 .035995485 .0309906V0C.08898926 .0019989014 .101989749 .0029907227 .15299988 .0029907227L.27999879 0V.0309906H.2599945C.18699646 .0309906 .18399048 .04197693 .18399048 .078948978V.3996582H.2999878V.43066407H.18099976V.5436554C.18099976 .6350708 .22999573 .68006899 .272995 .68006899 .2829895 .68006899 .29299928 .67807009 .30299378 .67407229 .29299928 .67007449 .2769928 .6580658 .2769928 .6330719 .2769928 .6070709 .29599 .58906558 .32099916 .58906558 .34799195 .58906558 .3659973 .60806277 .3659973 .6340637Z"/>
</defs>
<path transform="matrix(1.00003,0,0,-1.00002,39.121828,75.840259)" stroke-width=".3985" stroke-linecap="butt" stroke-miterlimit="10" stroke-linejoin="miter" fill="none" stroke="#929292" d="M63.7803 0V5.315H58.4653V0ZM58.4653 5.315"/>
<path transform="matrix(1.00003,0,0,-1.00002,39.121828,75.840259)" stroke-width=".79701" stroke-linecap="butt" stroke-miterlimit="10" stroke-linejoin="miter" fill="none" stroke="#000000" d="M0 0H63.7803V63.7803H0Z"/>
<use data-text="H" xlink:href="#font_1_62" transform="matrix(8.966669,0,0,-8.966579,12.1070179,85.68345)"/>
<use data-text="o" xlink:href="#font_1_81" transform="matrix(8.966669,0,0,-8.966579,19.020318,85.68345)"/>
<use data-text="m" xlink:href="#font_1_75" transform="matrix(8.966669,0,0,-8.966579,23.629189,85.68345)"/>
<use data-text="e" xlink:href="#font_1_50" transform="matrix(8.966669,0,0,-8.966579,31.30465,85.68345)"/>
<use data-text="p" xlink:href="#font_2_84" transform="matrix(9.962899,0,0,-9.962799,12.960037,97.639698)"/>
<use data-text="l" xlink:href="#font_2_72" transform="matrix(9.962899,0,0,-9.962799,18.499413,97.639698)"/>
<use data-text="a" xlink:href="#font_2_28" transform="matrix(9.962899,0,0,-9.962799,21.269097,97.639698)"/>
<use data-text="t" xlink:href="#font_2_105" transform="matrix(9.962899,0,0,-9.962799,26.250542,97.639698)"/>
<use data-text="e" xlink:href="#font_2_50" transform="matrix(9.962899,0,0,-9.962799,30.126122,97.639698)"/>
<use data-text="1" xlink:href="#font_1_82" transform="matrix(8.966669,0,0,-8.966579,106.622859,85.782459)"/>
<use data-text="s" xlink:href="#font_1_98" transform="matrix(8.966669,0,0,-8.966579,111.23171,85.782459)"/>
<use data-text="t" xlink:href="#font_1_105" transform="matrix(8.966669,0,0,-8.966579,114.86321,85.782459)"/>
<use data-text="b" xlink:href="#font_1_35" transform="matrix(8.966669,0,0,-8.966579,121.5165,85.782459)"/>
<use data-text="a" xlink:href="#font_1_28" transform="matrix(8.966669,0,0,-8.966579,126.63647,85.782459)"/>
<use data-text="s" xlink:href="#font_1_98" transform="matrix(8.966669,0,0,-8.966579,131.24533,85.782459)"/>
<use data-text="e" xlink:href="#font_1_50" transform="matrix(8.966669,0,0,-8.966579,134.87683,85.782459)"/>
<use data-text="2" xlink:href="#font_1_107" transform="matrix(8.966669,0,0,-8.966579,106.622859,8.240906)"/>
<use data-text="n" xlink:href="#font_1_77" transform="matrix(8.966669,0,0,-8.966579,111.23171,8.240906)"/>
<use data-text="d" xlink:href="#font_1_47" transform="matrix(8.966669,0,0,-8.966579,116.35168,8.240906)"/>
<use data-text="b" xlink:href="#font_1_35" transform="matrix(8.966669,0,0,-8.966579,124.53826,8.240906)"/>
<use data-text="a" xlink:href="#font_1_28" transform="matrix(8.966669,0,0,-8.966579,129.65824,8.240906)"/>
<use data-text="s" xlink:href="#font_1_98" transform="matrix(8.966669,0,0,-8.966579,134.26709,8.240906)"/>
<use data-text="e" xlink:href="#font_1_50" transform="matrix(8.966669,0,0,-8.966579,137.89859,8.240906)"/>
<use data-text="3" xlink:href="#font_1_106" transform="matrix(8.966669,0,0,-8.966579,1.5356979,8.141899)"/>
<use data-text="r" xlink:href="#font_1_96" transform="matrix(8.966669,0,0,-8.966579,6.144554,8.141899)"/>
<use data-text="d" xlink:href="#font_1_47" transform="matrix(8.966669,0,0,-8.966579,9.749153,8.141899)"/>
<use data-text="b" xlink:href="#font_1_35" transform="matrix(8.966669,0,0,-8.966579,17.935738,8.141899)"/>
<use data-text="a" xlink:href="#font_1_28" transform="matrix(8.966669,0,0,-8.966579,23.055703,8.141899)"/>
<use data-text="s" xlink:href="#font_1_98" transform="matrix(8.966669,0,0,-8.966579,27.664574,8.141899)"/>
<use data-text="e" xlink:href="#font_1_50" transform="matrix(8.966669,0,0,-8.966579,31.296074,8.141899)"/>
<path transform="matrix(1.00003,0,0,-1.00002,39.121828,75.840259)" stroke-width=".79701" stroke-linecap="butt" stroke-miterlimit="10" stroke-linejoin="miter" fill="none" stroke="#0000ff" d="M0 0 63.7803 63.7803"/>
<use data-text="x" xlink:href="#font_3_1" transform="matrix(9.962899,0,0,-9.962799,66.17364,40.23054)" fill="#0000ff"/>
<use data-text="9" xlink:href="#font_1_78" transform="matrix(8.966669,0,0,-8.966579,61.665506,87.40649)" fill="#0000ff"/>
<use data-text="0" xlink:href="#font_1_121" transform="matrix(8.966669,0,0,-8.966579,66.27436,87.40649)" fill="#0000ff"/>
<use data-text="f" xlink:href="#font_1_55" transform="matrix(8.966669,0,0,-8.966579,73.94984,87.40649)" fill="#0000ff"/>
<use data-text="t" xlink:href="#font_1_105" transform="matrix(8.966669,0,0,-8.966579,76.76537,87.40649)" fill="#0000ff"/>
<use data-text="9" xlink:href="#font_1_78" transform="matrix(8.966669,0,0,-8.966579,110.56497,47.01168)" fill="#0000ff"/>
<use data-text="0" xlink:href="#font_1_121" transform="matrix(8.966669,0,0,-8.966579,115.17383,47.01168)" fill="#0000ff"/>
<use data-text="f" xlink:href="#font_1_55" transform="matrix(8.966669,0,0,-8.966579,122.849308,47.01168)" fill="#0000ff"/>
<use data-text="t" xlink:href="#font_1_105" transform="matrix(8.966669,0,0,-8.966579,125.66484,47.01168)" fill="#0000ff"/>
</svg>
