<svg xmlns="http://www.w3.org/2000/svg" xmlns:xlink="http://www.w3.org/1999/xlink" version="1.1" width="234" height="214" viewBox="0 0 234 214">
<defs>
<path id="font_1_1" d="M.33399964 .30233766C.33999635 .32835389 .36299134 .42037965 .43299867 .42037965 .43798829 .42037965 .46199037 .42037965 .48298646 .40734864 .45498658 .402359 .43499757 .37734986 .43499757 .35334779 .43499757 .33735658 .44599916 .31835938 .47299195 .31835938 .49499513 .31835938 .5269928 .3363495 .5269928 .37635804 .5269928 .42837525 .46798707 .4423828 .43399049 .4423828 .37599183 .4423828 .34098817 .38935853 .32899476 .36634828 .3039856 .43237306 .25 .4423828 .22099304 .4423828 .116989139 .4423828 .05999756 .3133545 .05999756 .28834535 .05999756 .27833558 .069992069 .27833558 .07199097 .27833558 .07998657 .27833558 .08299255 .28033448 .084991458 .28933717 .11898804 .39535523 .18499756 .42037965 .21899414 .42037965 .23799134 .42037965 .272995 .4113617 .272995 .35334779 .272995 .32235719 .2559967 .25532533 .21899414 .11528015 .20298767 .053268434 .16799927 .011245728 .12399292 .011245728 .117996219 .011245728 .09498596 .011245728 .07398987 .024276734 .09899902 .029266358 .12098694 .05027771 .12098694 .07827759 .12098694 .105270389 .09899902 .11328125 .083999637 .11328125 .053985597 .11328125 .0289917 .08728027 .0289917 .055267335 .0289917 .009246826 .07899475-.0107421879 .12298584-.0107421879 .18899536-.0107421879 .22499085 .059280397 .22799683 .0652771 .23999024 .028274537 .27598573-.0107421879 .33599855-.0107421879 .43899537-.0107421879 .49598695 .118270877 .49598695 .14328003 .49598695 .1532898 .4869995 .1532898 .48399354 .1532898 .47499085 .1532898 .47299195 .14929199 .47099305 .14228821 .43798829 .03527832 .36999513 .011245728 .33799745 .011245728 .29899598 .011245728 .2829895 .043273927 .2829895 .07727051 .2829895 .09927368 .2889862 .121276859 .2999878 .16529846L.33399964 .30233766Z"/>
<path id="font_1_2" d="M.48599244 .38136292C.48999024 .39537049 .48999024 .39736939 .48999024 .40437318 .48999024 .42237855 .47599793 .43138124 .46099855 .43138124 .45098878 .43138124 .43499757 .42536927 .42599488 .41036988 .42399598 .405365 .41600038 .37435914 .4119873 .35635377 .40499879 .33035279 .397995 .30334474 .3919983 .27633668L.34700013 .09628296C.34298707 .08126831 .2999878 .011245728 .23399353 .011245728 .18299866 .011245728 .17199707 .055267335 .17199707 .0922699 .17199707 .1382904 .18899536 .20030213 .22299195 .28833009 .23899842 .3293457 .24299622 .3403473 .24299622 .36035157 .24299622 .405365 .21099854 .4423828 .16099549 .4423828 .06599426 .4423828 .0289917 .29733277 .0289917 .28833009 .0289917 .27833558 .038986207 .27833558 .040985109 .27833558 .050994874 .27833558 .051986696 .28033448 .056991579 .29634095 .083999637 .3903656 .12399292 .42037965 .1579895 .42037965 .1659851 .42037965 .18299866 .42037965 .18299866 .3883667 .18299866 .36335755 .17298889 .3373413 .1659851 .31834413 .12599182 .21231079 .10798645 .1552887 .10798645 .10827637 .10798645 .019256592 .17098999-.0107421879 .22999573-.0107421879 .2689972-.0107421879 .30299378 .0062561037 .33099366 .03425598 .31799317-.017745972 .30599977-.06674194 .2659912-.11973572 .23999024-.15385437 .20199585-.18309021 .1559906-.18309021 .14199829-.18309021 .09700012-.18005371 .07998657-.14074707 .09599304-.14074707 .10899353-.14074707 .12298584-.1287384 .1329956-.11973572 .14299011-.10673523 .14299011-.08773804 .14299011-.056747438 .115997318-.052734376 .10598755-.052734376 .08299255-.052734376 .049987794-.068740848 .049987794-.11773682 .049987794-.16796875 .09399414-.20507813 .1559906-.20507813 .25898744-.20507813 .3619995-.11373901 .3899994-.00074768069L.48599244 .38136292Z"/>
<path id="font_2_1" d="M.6589966 .23046875C.6759949 .23046875 .69400027 .23046875 .69400027 .25045777 .69400027 .27046205 .6759949 .27046205 .6589966 .27046205H.117996219C.100997928 .27046205 .08299255 .27046205 .08299255 .25045777 .08299255 .23046875 .100997928 .23046875 .117996219 .23046875H.6589966Z"/>
<path id="font_3_2" d="M.2939911 .64004519C.2939911 .66400149 .2939911 .6660156 .2709961 .6660156 .20899964 .60227969 .12098694 .60227969 .08898926 .60227969V.57128909C.10899353 .57128909 .16799927 .57128909 .21998596 .5972748V.07902527C.21998596 .042999269 .21699524 .0309906 .1269989 .0309906H.09498596V0C.12998963 .0029907227 .21699524 .0029907227 .25698854 .0029907227 .29699708 .0029907227 .38398744 .0029907227 .4189911 0V.0309906H.3869934C.29699708 .0309906 .2939911 .041992189 .2939911 .07902527V.64004519Z"/>
<path id="font_3_1" d="M.45999146 .31976319C.45999146 .39982606 .45498658 .47988893 .41999818 .5539398 .37399293 .65000918 .2919922 .6660156 .25 .6660156 .18998719 .6660156 .116989139 .64001467 .07598877 .54693606 .04399109 .47789 .038986207 .39982606 .038986207 .31976319 .038986207 .24472046 .042999269 .15464783 .083999637 .07859802 .1269989-.0024719239 .19999695-.022460938 .24899292-.022460938 .30299378-.022460938 .3789978-.0014648438 .4229889 .09359741 .45498658 .16265869 .45999146 .2407074 .45999146 .31976319M.24899292-.00047302247C.20999146-.00047302247 .15098572 .024551392 .1329956 .12062073 .12199402 .18066406 .12199402 .2727356 .12199402 .3317871 .12199402 .39582826 .12199402 .46188355 .12998963 .5159149 .14898682 .63500979 .22399903 .64401248 .24899292 .64401248 .28199769 .64401248 .34799195 .6259918 .36698915 .52693179 .3769989 .47088624 .3769989 .39482118 .3769989 .3317871 .3769989 .25672914 .3769989 .18867493 .3659973 .12461853 .35099793 .029556275 .2939911-.00047302247 .24899292-.00047302247Z"/>
<path id="font_3_3" d="M.44898988 .20022583C.44898988 .3193512 .36698915 .41944886 .25898744 .41944886 .21099854 .41944886 .16799927 .40345765 .13198853 .36842347V.5637665C.1519928 .5577698 .18499756 .55078127 .21699524 .55078127 .33999635 .55078127 .4099884 .6417694 .4099884 .6547699 .4099884 .6607666 .40699769 .6657715 .3999939 .6657715 .39898683 .6657715 .39698792 .6657715 .3919983 .66278079 .37199403 .6537781 .32299806 .6337738 .2559967 .6337738 .21598816 .6337738 .16999817 .6407776 .12298584 .6617737 .114990238 .66477969 .11299133 .66477969 .11099243 .66477969 .100997928 .66477969 .100997928 .6567688 .100997928 .6407776V.34439088C.100997928 .32637025 .100997928 .31835938 .114990238 .31835938 .12199402 .31835938 .12399292 .32136537 .12799073 .32736207 .13899231 .3433838 .17599488 .39746095 .25698854 .39746095 .30899049 .39746095 .33399964 .35139466 .34199525 .33337403 .35798646 .29632569 .3600006 .25727845 .3600006 .20722962 .3600006 .17222595 .3600006 .11222839 .33599855 .07035828 .31199647 .031463624 .2749939 .0055389406 .22898865 .0055389406 .1559906 .0055389406 .09899902 .058380128 .08198547 .11723328 .084991458 .1162262 .08799744 .115234378 .09899902 .115234378 .13198853 .115234378 .14898682 .14022827 .14898682 .16423035 .14898682 .18823242 .13198853 .21322632 .09899902 .21322632 .084991458 .21322632 .049987794 .20622254 .049987794 .16023255 .049987794 .07434082 .11898804-.022460938 .23098755-.022460938 .34700013-.022460938 .44898988 .073349 .44898988 .20022583Z"/>
</defs>
<path transform="matrix(1,0,0,-1.00005,108.28,60.596376)" stroke-width=".3985" stroke-linecap="butt" stroke-miterlimit="10" stroke-linejoin="miter" fill="none" stroke="#00aeef" d="M-99.21555-148.82334H99.21555M-99.21555-138.90178H99.21555M-99.21555-128.98023H99.21555M-99.21555-119.05867H99.21555M-99.21555-109.13712H99.21555M-99.21555-99.21555H99.21555M-99.21555-89.29399H99.21555M-99.21555-79.37244H99.21555M-99.21555-69.45088H99.21555M-99.21555-59.52933H99.21555M-99.21555-49.60777H99.21555M-99.21555-39.68622H99.21555M-99.21555-29.76466H99.21555M-99.21555-19.84311H99.21555M-99.21555-9.92155H99.21555M-99.21555 0H99.21555M-99.21555 9.92155H99.21555M-99.21555 19.84311H99.21555M-99.21555 29.76466H99.21555M-99.21555 39.68622H99.21555M-99.21555 49.60428H99.21555M-99.21555-148.82334V49.60777M-89.29399-148.82334V49.60777M-79.37244-148.82334V49.60777M-69.45088-148.82334V49.60777M-59.52933-148.82334V49.60777M-49.60777-148.82334V49.60777M-39.68622-148.82334V49.60777M-29.76466-148.82334V49.60777M-19.84311-148.82334V49.60777M-9.92155-148.82334V49.60777M0-148.82334V49.60777M9.92155-148.82334V49.60777M19.84311-148.82334V49.60777M29.76466-148.82334V49.60777M39.68622-148.82334V49.60777M49.60777-148.82334V49.60777M59.52933-148.82334V49.60777M69.45088-148.82334V49.60777M79.37244-148.82334V49.60777M89.29399-148.82334V49.60777M99.21207-148.82334V49.60777M99.21555 49.60777"/>
<path transform="matrix(1,0,0,-1.00005,108.28,60.596376)" stroke-width=".79701" stroke-linecap="butt" stroke-miterlimit="10" stroke-linejoin="miter" fill="none" stroke="#000000" d="M-99.21555 0H113.65549"/>
<path transform="matrix(1,0,0,-1.00005,221.93549,60.596376)" d="M1.0361 0C-.25902 .25902-1.55415 .77707-3.1083 1.68365-1.55415 .51805-1.55415-.51805-3.1083-1.68365-1.55415-.77707-.25902-.25902 1.0361 0Z"/>
<path transform="matrix(1,0,0,-1.00005,221.93549,60.596376)" stroke-width=".79701" stroke-linecap="butt" stroke-linejoin="round" fill="none" stroke="#000000" d="M1.0361 0C-.25902 .25902-1.55415 .77707-3.1083 1.68365-1.55415 .51805-1.55415-.51805-3.1083-1.68365-1.55415-.77707-.25902-.25902 1.0361 0Z"/>
<use data-text="x" xlink:href="#font_1_1" transform="matrix(9.9626,0,0,-9.963098,227.08899,62.74148)"/>
<path transform="matrix(1,0,0,-1.00005,108.28,60.596376)" stroke-width=".79701" stroke-linecap="butt" stroke-miterlimit="10" stroke-linejoin="miter" fill="none" stroke="#000000" d="M0-148.82334V54.12614"/>
<path transform="matrix(0,-1.00005,-1,-0,108.28,6.4675295)" d="M1.0361 0C-.25902 .25902-1.55415 .77707-3.1083 1.68365-1.55415 .51805-1.55415-.51805-3.1083-1.68365-1.55415-.77707-.25902-.25902 1.0361 0Z"/>
<path transform="matrix(0,-1.00005,-1,-0,108.28,6.4675295)" stroke-width=".79701" stroke-linecap="butt" stroke-linejoin="round" fill="none" stroke="#000000" d="M1.0361 0C-.25902 .25902-1.55415 .77707-3.1083 1.68365-1.55415 .51805-1.55415-.51805-3.1083-1.68365-1.55415-.77707-.25902-.25902 1.0361 0Z"/>
<use data-text="y" xlink:href="#font_1_2" transform="matrix(9.9626,0,0,-9.963098,101.311,6.20866)"/>
<path transform="matrix(1,0,0,-1.00005,108.28,60.596376)" stroke-width="1.19553" stroke-linecap="butt" stroke-miterlimit="10" stroke-linejoin="miter" fill="none" stroke="#00aeef" d="M-99.21555-148.82334V49.60777"/>
<path transform="matrix(1,0,0,-1.00005,108.28,60.596376)" stroke-width="1.19553" stroke-linecap="butt" stroke-miterlimit="10" stroke-linejoin="miter" fill="none" stroke="#00aeef" d="M-99.21555-99.21555H99.21555"/>
<path transform="matrix(1,0,0,-1.00005,108.28,60.596376)" stroke-width=".3985" stroke-linecap="butt" stroke-miterlimit="10" stroke-linejoin="miter" fill="none" stroke="#000000" d="M-99.21555 1.48816V-1.48831"/>
<path transform="matrix(1,0,0,-1.00005,108.28,60.596376)" d="M-109.06766-12.92334H-89.36346V-3.68011H-109.06766Z" fill="#ffffff"/>
<use data-text="&#x2212;" xlink:href="#font_2_1" transform="matrix(9.9626,0,0,-9.963098,.20899964,71.693927)"/>
<use data-text="1" xlink:href="#font_3_2" transform="matrix(9.9626,0,0,-9.963098,7.9579927,71.693927)"/>
<use data-text="0" xlink:href="#font_3_1" transform="matrix(9.9626,0,0,-9.963098,12.939285,71.693927)"/>
<path transform="matrix(1,0,0,-1.00005,108.28,60.596376)" stroke-width=".3985" stroke-linecap="butt" stroke-miterlimit="10" stroke-linejoin="miter" fill="none" stroke="#000000" d="M1.48816-99.21555H-1.48831"/>
<path transform="matrix(1,0,0,-1.00005,108.28,60.596376)" d="M-23.38431-103.83717H-3.680109V-94.59394H-23.38431Z" fill="#ffffff"/>
<use data-text="&#x2212;" xlink:href="#font_2_1" transform="matrix(9.9626,0,0,-9.963098,85.892,162.61248)"/>
<use data-text="1" xlink:href="#font_3_2" transform="matrix(9.9626,0,0,-9.963098,93.64099,162.61248)"/>
<use data-text="0" xlink:href="#font_3_1" transform="matrix(9.9626,0,0,-9.963098,98.622287,162.61248)"/>
<path transform="matrix(1,0,0,-1.00005,108.28,60.596376)" stroke-width="1.19553" stroke-linecap="butt" stroke-miterlimit="10" stroke-linejoin="miter" fill="none" stroke="#00aeef" d="M-49.60777-148.82334V49.60777"/>
<path transform="matrix(1,0,0,-1.00005,108.28,60.596376)" stroke-width="1.19553" stroke-linecap="butt" stroke-miterlimit="10" stroke-linejoin="miter" fill="none" stroke="#00aeef" d="M-99.21555-49.60777H99.21555"/>
<path transform="matrix(1,0,0,-1.00005,108.28,60.596376)" stroke-width=".3985" stroke-linecap="butt" stroke-miterlimit="10" stroke-linejoin="miter" fill="none" stroke="#000000" d="M-49.60777 1.48816V-1.48831"/>
<path transform="matrix(1,0,0,-1.00005,108.28,60.596376)" d="M-56.96916-12.92334H-42.246377V-3.68011H-56.96916Z" fill="#ffffff"/>
<use data-text="&#x2212;" xlink:href="#font_2_1" transform="matrix(9.9626,0,0,-9.963098,52.307008,71.693927)"/>
<use data-text="5" xlink:href="#font_3_3" transform="matrix(9.9626,0,0,-9.963098,60.056,71.693927)"/>
<path transform="matrix(1,0,0,-1.00005,108.28,60.596376)" stroke-width=".3985" stroke-linecap="butt" stroke-miterlimit="10" stroke-linejoin="miter" fill="none" stroke="#000000" d="M1.48816-49.60777H-1.48831"/>
<path transform="matrix(1,0,0,-1.00005,108.28,60.596376)" d="M-18.4029-54.22939H-3.6801205V-44.98616H-18.4029Z" fill="#ffffff"/>
<use data-text="&#x2212;" xlink:href="#font_2_1" transform="matrix(9.9626,0,0,-9.963098,90.873,113.00199)"/>
<use data-text="5" xlink:href="#font_3_3" transform="matrix(9.9626,0,0,-9.963098,98.621997,113.00199)"/>
<path transform="matrix(1,0,0,-1.00005,108.28,60.596376)" stroke-width="1.19553" stroke-linecap="butt" stroke-miterlimit="10" stroke-linejoin="miter" fill="none" stroke="#00aeef" d="M49.60777-148.82334V49.60777"/>
<path transform="matrix(1,0,0,-1.00005,108.28,60.596376)" stroke-width="1.19553" stroke-linecap="butt" stroke-miterlimit="10" stroke-linejoin="miter" fill="none" stroke="#00aeef" d="M-99.21555 49.60777H99.21555"/>
<path transform="matrix(1,0,0,-1.00005,108.28,60.596376)" stroke-width=".3985" stroke-linecap="butt" stroke-miterlimit="10" stroke-linejoin="miter" fill="none" stroke="#000000" d="M49.60777 1.48816V-1.48831"/>
<path transform="matrix(1,0,0,-1.00005,108.28,60.596376)" d="M46.1208-12.09311H53.09474V-3.68013H46.1208Z" fill="#ffffff"/>
<use data-text="5" xlink:href="#font_3_3" transform="matrix(9.9626,0,0,-9.963098,155.397,71.693927)"/>
<path transform="matrix(1,0,0,-1.00005,108.28,60.596376)" stroke-width=".3985" stroke-linecap="butt" stroke-miterlimit="10" stroke-linejoin="miter" fill="none" stroke="#000000" d="M1.48816 49.60777H-1.48831"/>
<path transform="matrix(1,0,0,-1.00005,108.28,60.596376)" d="M-10.65405 45.40128H-3.68011V53.81426H-10.65405Z" fill="#ffffff"/>
<use data-text="5" xlink:href="#font_3_3" transform="matrix(9.9626,0,0,-9.963098,98.622,14.196056)"/>
<path transform="matrix(1,0,0,-1.00005,108.28,60.596376)" stroke-width=".3985" stroke-linecap="butt" stroke-miterlimit="10" stroke-linejoin="miter" fill="none" stroke="#000000" d="M1.48816-148.82334H-1.48831"/>
<path transform="matrix(1,0,0,-1.00005,108.28,60.596376)" d="M-23.38431-153.44495H-3.680109V-144.20172H-23.38431Z" fill="#ffffff"/>
<use data-text="&#x2212;" xlink:href="#font_2_1" transform="matrix(9.9626,0,0,-9.963098,85.892,212.22196)"/>
<use data-text="1" xlink:href="#font_3_2" transform="matrix(9.9626,0,0,-9.963098,93.64099,212.22196)"/>
<use data-text="5" xlink:href="#font_3_3" transform="matrix(9.9626,0,0,-9.963098,98.622287,212.22196)"/>
<path transform="matrix(1,0,0,-1.00005,108.28,60.596376)" stroke-width="1.19553" stroke-linecap="butt" stroke-miterlimit="10" stroke-linejoin="miter" fill="none" stroke="#00aeef" d="M99.21555-148.82334V49.60777"/>
<path transform="matrix(1,0,0,-1.00005,108.28,60.596376)" stroke-width="1.19553" stroke-linecap="butt" stroke-miterlimit="10" stroke-linejoin="miter" fill="none" stroke="#00aeef" d="M-99.21555-148.82334H99.21555"/>
<path transform="matrix(1,0,0,-1.00005,108.28,60.596376)" stroke-width="1.19553" stroke-linecap="butt" stroke-miterlimit="10" stroke-linejoin="miter" fill="none" stroke="#ff0000" d="M-36.02046 47.7479C-35.31616 41.95404-35.31616 41.95404-34.95888 39.07883-34.60158 36.20361-34.02858 31.6671-33.6713 28.88461-33.31401 26.10214-32.74101 21.71439-32.38371 19.02467-32.02643 16.33496-31.45343 12.096-31.09613 9.49901-30.73883 6.90202-30.16586 2.81172-29.80855 .30745-29.45126-2.19676-28.87827-6.13841-28.52097-8.54994-28.16368-10.96146-27.59068-14.75433-27.2334-17.07309-26.8761-19.39186-26.30312-23.03596-25.94582-25.262-25.58853-27.488-25.01553-30.98343-24.65823-33.11674-24.30093-35.25006-23.72795-38.59683-23.37067-40.6374-23.01335-42.67796-22.44037-45.87595-22.08307-47.82378-21.72578-49.7716-21.1528-52.82094-20.79549-54.67603-20.4382-56.53111-19.8652-59.43169-19.50792-61.19402-19.15062-62.95636-18.57764-65.70813-18.22034-67.37773-17.86305-69.04733-17.29005-71.65044-16.93275-73.22733-16.57545-74.8042-16.00247-77.25867-15.64517-78.7428-15.28787-80.22694-14.7149-82.5326-14.35759-83.92401-14.0003-85.3154-13.4273-87.47241-13.07-88.77109-12.71272-90.06975-12.13972-92.07797-11.78244-93.2839-11.42514-94.48984-10.85216-96.3494-10.49486-97.4626-10.13756-98.57578-9.56458-100.28656-9.20728-101.307-8.84998-102.32745-8.277-103.8896-7.9197-104.8173-7.5624-105.74503-6.98941-107.15839-6.63211-107.99335-6.27483-108.8283-5.70183-110.09285-5.34454-110.83511-4.98724-111.57735-4.41425-112.6934-4.05696-113.34288-3.69965-113.99239-3.12668-114.9595-2.76938-115.51627-2.4121-116.07303-1.8391-116.89163-1.4818-117.35567-1.1245-117.81969-.5515-118.48935-.19421-118.86064 .16306-119.23192 .73602-119.75311 1.09334-120.03165 1.45062-120.3102 2.02362-120.68243 2.3809-120.86823 2.7382-121.05405 3.3112-121.27779 3.66849-121.37085 4.02579-121.46393 4.59877-121.53871 4.95607-121.53905 5.31335-121.53938 5.88635-121.46565 6.24364-121.37328 6.60095-121.28088 7.17393-121.05836 7.53122-120.87323 7.88853-120.6881 8.46152-120.31679 8.81882-120.03893 9.1761-119.76105 9.74908-119.2411 10.10638-118.87048 10.46368-118.49986 11.03667-117.83112 11.39397-117.36778 11.75125-116.90442 12.32425-116.08704 12.68155-115.53096 13.03883-114.97487 13.61183-114.00867 13.96912-113.35985 14.32643-112.71101 14.8994-111.59618 15.25671-110.85463 15.614-110.11308 16.18698-108.84961 16.5443-108.01529 16.90158-107.181 17.47458-105.76859 17.83186-104.84154 18.18916-103.9145 18.76215-102.35358 19.11945-101.33382 19.47673-100.31404 20.04973-98.60432 20.40703-97.49182 20.76433-96.37929 21.33731-94.52078 21.69461-93.31554 22.05191-92.11029 22.62488-90.10312 22.9822-88.80515 23.33948-87.50717 23.91248-85.35135 24.26978-83.96065 24.62706-82.56993 25.20006-80.26534 25.55734-78.78186 25.91464-77.29839 26.48763-74.84502 26.84492-73.2688 27.20222-71.6926 27.7752-69.09058 28.1325-67.42163 28.48979-65.75269 29.06279-63.00188 29.42009-61.24019 29.77739-59.47852 30.35037-56.57904 30.70767-54.72462 31.06496-52.87022 31.63795-49.82208 31.99524-47.87494 32.35254-45.9278 32.92554-42.73088 33.28282-40.691 33.64012-38.65108 34.2131-35.30539 34.5704-33.17276 34.92769-31.04015 35.50069-27.54591 35.85797-25.32057 36.21529-23.09521 36.78828-19.45206 37.14557-17.13396 37.50287-14.81584 38.07585-11.02405 38.43315-8.61322 38.79044-6.2024 39.36343-2.26195 39.72072 .2416 40.07802 2.74516 40.65102 6.83441 41.0083 9.43074 41.3656 12.02705 41.93858 16.26506 42.29588 18.95412 42.65318 21.64319 43.22617 26.02986 43.58345 28.81165 43.94077 31.59343 44.51375 36.12875 44.87105 39.00328 45.22835 41.8778 46.15863 49.52919 45.93263 47.66994"/>
<path transform="matrix(-.12067,-.9927296,-.99268,.120676029,72.25955,12.846111)" d="M1.27522 0C-.31879 .31879-1.91284 .9564-3.8257 2.07224-1.91284 .6376-1.91284-.6376-3.8257-2.07224-1.91284-.9564-.31879-.31879 1.27522 0Z" fill="#ff0000"/>
<path transform="matrix(-.12067,-.9927296,-.99268,.120676029,72.25955,12.846111)" stroke-width="1.19553" stroke-linecap="butt" stroke-linejoin="round" fill="none" stroke="#ff0000" d="M1.27522 0C-.31879 .31879-1.91284 .9564-3.8257 2.07224-1.91284 .6376-1.91284-.6376-3.8257-2.07224-1.91284-.9564-.31879-.31879 1.27522 0Z"/>
<path transform="matrix(.12067,-.9927296,-.99268,-.120676029,154.21262,12.924072)" d="M1.27522 0C-.31879 .31879-1.91284 .9564-3.8257 2.07224-1.91284 .6376-1.91284-.6376-3.8257-2.07224-1.91284-.9564-.31879-.31879 1.27522 0Z" fill="#ff0000"/>
<path transform="matrix(.12067,-.9927296,-.99268,-.120676029,154.21262,12.924072)" stroke-width="1.19553" stroke-linecap="butt" stroke-linejoin="round" fill="none" stroke="#ff0000" d="M1.27522 0C-.31879 .31879-1.91284 .9564-3.8257 2.07224-1.91284 .6376-1.91284-.6376-3.8257-2.07224-1.91284-.9564-.31879-.31879 1.27522 0Z"/>
<path transform="matrix(1,0,0,-1.00005,108.28,60.596376)" d="M6.94504-121.53905C6.94504-120.44316 6.05666-119.55478 4.96077-119.55478 3.86487-119.55478 2.9765-120.44316 2.9765-121.53905 2.9765-122.63495 3.86487-123.52332 4.96077-123.52332 6.05666-123.52332 6.94504-122.63495 6.94504-121.53905ZM4.96077-121.53905" fill="#0000ff"/>
<path transform="matrix(1,0,0,-1.00005,108.28,60.596376)" stroke-width=".3985" stroke-linecap="butt" stroke-miterlimit="10" stroke-linejoin="miter" fill="none" stroke="#0000ff" d="M6.94504-121.53905C6.94504-120.44316 6.05666-119.55478 4.96077-119.55478 3.86487-119.55478 2.9765-120.44316 2.9765-121.53905 2.9765-122.63495 3.86487-123.52332 4.96077-123.52332 6.05666-123.52332 6.94504-122.63495 6.94504-121.53905ZM4.96077-121.53905"/>
<path transform="matrix(1,0,0,-1.00005,108.28,60.596376)" d="M-27.7804 0C-27.7804 1.09589-28.66876 1.98427-29.76466 1.98427-30.86055 1.98427-31.74893 1.09589-31.74893 0-31.74893-1.09589-30.86055-1.98427-29.76466-1.98427-28.66876-1.98427-27.7804-1.09589-27.7804 0ZM-29.76466 0"/>
<path transform="matrix(1,0,0,-1.00005,108.28,60.596376)" stroke-width=".3985" stroke-linecap="butt" stroke-miterlimit="10" stroke-linejoin="miter" fill="none" stroke="#000000" d="M-27.7804 0C-27.7804 1.09589-28.66876 1.98427-29.76466 1.98427-30.86055 1.98427-31.74893 1.09589-31.74893 0-31.74893-1.09589-30.86055-1.98427-29.76466-1.98427-28.66876-1.98427-27.7804-1.09589-27.7804 0ZM-29.76466 0"/>
<path transform="matrix(1,0,0,-1.00005,108.28,60.596376)" d="M41.67049 0C41.67049 1.09589 40.7821 1.98427 39.68622 1.98427 38.59032 1.98427 37.70195 1.09589 37.70195 0 37.70195-1.09589 38.59032-1.98427 39.68622-1.98427 40.7821-1.98427 41.67049-1.09589 41.67049 0ZM39.68622 0"/>
<path transform="matrix(1,0,0,-1.00005,108.28,60.596376)" stroke-width=".3985" stroke-linecap="butt" stroke-miterlimit="10" stroke-linejoin="miter" fill="none" stroke="#000000" d="M41.67049 0C41.67049 1.09589 40.7821 1.98427 39.68622 1.98427 38.59032 1.98427 37.70195 1.09589 37.70195 0 37.70195-1.09589 38.59032-1.98427 39.68622-1.98427 40.7821-1.98427 41.67049-1.09589 41.67049 0ZM39.68622 0"/>
<path transform="matrix(1,0,0,-1.00005,108.28,60.596376)" d="M1.98427-119.05867C1.98427-117.96277 1.09589-117.0744 0-117.0744-1.09589-117.0744-1.98427-117.96277-1.98427-119.05867-1.98427-120.15456-1.09589-121.04294 0-121.04294 1.09589-121.04294 1.98427-120.15456 1.98427-119.05867ZM0-119.05867"/>
<path transform="matrix(1,0,0,-1.00005,108.28,60.596376)" stroke-width=".3985" stroke-linecap="butt" stroke-miterlimit="10" stroke-linejoin="miter" fill="none" stroke="#000000" d="M1.98427-119.05867C1.98427-117.96277 1.09589-117.0744 0-117.0744-1.09589-117.0744-1.98427-117.96277-1.98427-119.05867-1.98427-120.15456-1.09589-121.04294 0-121.04294 1.09589-121.04294 1.98427-120.15456 1.98427-119.05867ZM0-119.05867"/>
</svg>
