<svg xmlns="http://www.w3.org/2000/svg" xmlns:xlink="http://www.w3.org/1999/xlink" version="1.1" width="122" height="179" viewBox="0 0 122 179">
<defs>
<path id="font_1_1" d="M.33399964 .30233766C.33999635 .32835389 .36299134 .42037965 .43299867 .42037965 .43798829 .42037965 .46199037 .42037965 .48298646 .40734864 .45498658 .402359 .43499757 .37734986 .43499757 .35334779 .43499757 .33735658 .44599916 .31835938 .47299195 .31835938 .49499513 .31835938 .5269928 .3363495 .5269928 .37635804 .5269928 .42837525 .46798707 .4423828 .43399049 .4423828 .37599183 .4423828 .34098817 .38935853 .32899476 .36634828 .3039856 .43237306 .25 .4423828 .22099304 .4423828 .116989139 .4423828 .05999756 .3133545 .05999756 .28834535 .05999756 .27833558 .069992069 .27833558 .07199097 .27833558 .07998657 .27833558 .08299255 .28033448 .084991458 .28933717 .11898804 .39535523 .18499756 .42037965 .21899414 .42037965 .23799134 .42037965 .272995 .4113617 .272995 .35334779 .272995 .32235719 .2559967 .25532533 .21899414 .11528015 .20298767 .053268434 .16799927 .011245728 .12399292 .011245728 .117996219 .011245728 .09498596 .011245728 .07398987 .024276734 .09899902 .029266358 .12098694 .05027771 .12098694 .07827759 .12098694 .105270389 .09899902 .11328125 .083999637 .11328125 .053985597 .11328125 .0289917 .08728027 .0289917 .055267335 .0289917 .009246826 .07899475-.0107421879 .12298584-.0107421879 .18899536-.0107421879 .22499085 .059280397 .22799683 .0652771 .23999024 .028274537 .27598573-.0107421879 .33599855-.0107421879 .43899537-.0107421879 .49598695 .118270877 .49598695 .14328003 .49598695 .1532898 .4869995 .1532898 .48399354 .1532898 .47499085 .1532898 .47299195 .14929199 .47099305 .14228821 .43798829 .03527832 .36999513 .011245728 .33799745 .011245728 .29899598 .011245728 .2829895 .043273927 .2829895 .07727051 .2829895 .09927368 .2889862 .121276859 .2999878 .16529846L.33399964 .30233766Z"/>
<path id="font_1_2" d="M.48599244 .38136292C.48999024 .39537049 .48999024 .39736939 .48999024 .40437318 .48999024 .42237855 .47599793 .43138124 .46099855 .43138124 .45098878 .43138124 .43499757 .42536927 .42599488 .41036988 .42399598 .405365 .41600038 .37435914 .4119873 .35635377 .40499879 .33035279 .397995 .30334474 .3919983 .27633668L.34700013 .09628296C.34298707 .08126831 .2999878 .011245728 .23399353 .011245728 .18299866 .011245728 .17199707 .055267335 .17199707 .0922699 .17199707 .1382904 .18899536 .20030213 .22299195 .28833009 .23899842 .3293457 .24299622 .3403473 .24299622 .36035157 .24299622 .405365 .21099854 .4423828 .16099549 .4423828 .06599426 .4423828 .0289917 .29733277 .0289917 .28833009 .0289917 .27833558 .038986207 .27833558 .040985109 .27833558 .050994874 .27833558 .051986696 .28033448 .056991579 .29634095 .083999637 .3903656 .12399292 .42037965 .1579895 .42037965 .1659851 .42037965 .18299866 .42037965 .18299866 .3883667 .18299866 .36335755 .17298889 .3373413 .1659851 .31834413 .12599182 .21231079 .10798645 .1552887 .10798645 .10827637 .10798645 .019256592 .17098999-.0107421879 .22999573-.0107421879 .2689972-.0107421879 .30299378 .0062561037 .33099366 .03425598 .31799317-.017745972 .30599977-.06674194 .2659912-.11973572 .23999024-.15385437 .20199585-.18309021 .1559906-.18309021 .14199829-.18309021 .09700012-.18005371 .07998657-.14074707 .09599304-.14074707 .10899353-.14074707 .12298584-.1287384 .1329956-.11973572 .14299011-.10673523 .14299011-.08773804 .14299011-.056747438 .115997318-.052734376 .10598755-.052734376 .08299255-.052734376 .049987794-.068740848 .049987794-.11773682 .049987794-.16796875 .09399414-.20507813 .1559906-.20507813 .25898744-.20507813 .3619995-.11373901 .3899994-.00074768069L.48599244 .38136292Z"/>
<path id="font_2_1" d="M.2939911 .16503906V.07800293C.2939911 .041992189 .2919922 .0309906 .21798706 .0309906H.19699097V0C.23799134 .0029907227 .2899933 .0029907227 .33198548 .0029907227 .37399293 .0029907227 .4269867 .0029907227 .46798707 0V.0309906H.44699098C.37298585 .0309906 .37098695 .041992189 .37098695 .07800293V.16503906H.47099305V.19602967H.37098695V.65075686C.37098695 .67074587 .37098695 .6767578 .35499574 .6767578 .34599305 .6767578 .34298707 .6767578 .33499146 .66474917L.027999878 .19602967V.16503906H.2939911M.2999878 .19602967H.055999757L.2999878 .5688019V.19602967Z"/>
<path id="font_3_85" d="M.33099366-.2400055C.33099366-.23701477 .33099366-.23500061 .31399537-.21800232 .18899536-.0920105 .15699768 .09700012 .15699768 .25 .15699768 .42399598 .19499207 .59799197 .31799317 .72299197 .33099366 .7350006 .33099366 .7369995 .33099366 .73999026 .33099366 .746994 .32699586 .75 .32099916 .75 .31098939 .75 .22099304 .6819916 .1619873 .5549927 .11099243 .44499208 .09899902 .33399964 .09899902 .25 .09899902 .17199707 .10998535 .050994874 .16499329-.06201172 .22499085-.18501282 .31098939-.25 .32099916-.25 .32699586-.25 .33099366-.24700928 .33099366-.2400055Z"/>
<path id="font_3_47" d="M.5269928 0V.0309906C.45700074 .0309906 .44898988 .038009645 .44898988 .0871582V.69433596L.30499269 .6826172V.6516113C.375 .6516113 .3829956 .64463809 .3829956 .59580996V.38035584C.35398866 .41636659 .31098939 .4423828 .25698854 .4423828 .13899231 .4423828 .033996583 .3443451 .033996583 .21531677 .033996583 .088272098 .13198853-.0107421879 .24598694-.0107421879 .30999757-.0107421879 .35499574 .023254395 .37998963 .055267335V-.0107421879L.5269928 0M.37998963 .117996219C.37998963 .099990848 .37998963 .09799194 .36898805 .08099365 .33898927 .033218385 .2939911 .011245728 .25099183 .011245728 .20599365 .011245728 .16999817 .037216188 .1459961 .075164798 .11999512 .1161499 .116989139 .17320252 .116989139 .21421814 .116989139 .25125123 .11898804 .31129457 .147995 .35632325 .16899109 .38734437 .20698548 .42037965 .26098634 .42037965 .29599 .42037965 .33799745 .405365 .36898805 .3603363 .37998963 .34332276 .37998963 .34132386 .37998963 .32330323V.117996219Z"/>
<path id="font_3_86" d="M.2889862 .25C.2889862 .32798768 .27799989 .44898988 .22299195 .56199648 .16299439 .68499758 .07699585 .75 .066986087 .75 .06098938 .75 .056991579 .74598696 .056991579 .73999026 .056991579 .7369995 .056991579 .7350006 .07598877 .71699526 .17399597 .6179962 .23098755 .45899964 .23098755 .25 .23098755 .07899475 .19400025-.09700012 .069992069-.2230072 .056991579-.23500061 .056991579-.23701477 .056991579-.2400055 .056991579-.2460022 .06098938-.25 .066986087-.25 .07699585-.25 .16699219-.18200684 .22599793-.055007936 .2769928 .054992677 .2889862 .16600037 .2889862 .25Z"/>
</defs>
<path transform="matrix(1,0,0,-1.00003,27.124,121.57027)" stroke-width=".3985" stroke-linecap="butt" stroke-miterlimit="10" stroke-linejoin="miter" fill="none" stroke="#00aeef" d="M-25.51193-25.51193H76.53586M-25.51193 0H76.53586M-25.51193 25.51193H76.53586M-25.51193 51.0239H76.53586M-25.51193 76.53586H76.53586M-25.51193 102.04333H76.53586M-25.51193-25.51193V102.0478M0-25.51193V102.0478M25.51193-25.51193V102.0478M51.0239-25.51193V102.0478M76.53137-25.51193V102.0478M76.53586 102.0478"/>
<path transform="matrix(1,0,0,-1.00003,27.124,121.57027)" stroke-width=".79701" stroke-linecap="butt" stroke-miterlimit="10" stroke-linejoin="miter" fill="none" stroke="#000000" d="M-25.51193 0H82.7549"/>
<path transform="matrix(1,0,0,-1.00003,109.8789,121.57027)" d="M1.0361 0C-.25902 .25902-1.55415 .77707-3.1083 1.68365-1.55415 .51805-1.55415-.51805-3.1083-1.68365-1.55415-.77707-.25902-.25902 1.0361 0Z"/>
<path transform="matrix(1,0,0,-1.00003,109.8789,121.57027)" stroke-width=".79701" stroke-linecap="butt" stroke-linejoin="round" fill="none" stroke="#000000" d="M1.0361 0C-.25902 .25902-1.55415 .77707-3.1083 1.68365-1.55415 .51805-1.55415-.51805-3.1083-1.68365-1.55415-.77707-.25902-.25902 1.0361 0Z"/>
<use data-text="x" xlink:href="#font_1_1" transform="matrix(9.9626,0,0,-9.962899,115.033,123.71533)"/>
<path transform="matrix(1,0,0,-1.00003,27.124,121.57027)" stroke-width=".79701" stroke-linecap="butt" stroke-miterlimit="10" stroke-linejoin="miter" fill="none" stroke="#000000" d="M0-25.51193V108.26686"/>
<path transform="matrix(0,-1.00003,-1,-0,27.124,13.300156)" d="M1.0361 0C-.25902 .25902-1.55415 .77707-3.1083 1.68365-1.55415 .51805-1.55415-.51805-3.1083-1.68365-1.55415-.77707-.25902-.25902 1.0361 0Z"/>
<path transform="matrix(0,-1.00003,-1,-0,27.124,13.300156)" stroke-width=".79701" stroke-linecap="butt" stroke-linejoin="round" fill="none" stroke="#000000" d="M1.0361 0C-.25902 .25902-1.55415 .77707-3.1083 1.68365-1.55415 .51805-1.55415-.51805-3.1083-1.68365-1.55415-.77707-.25902-.25902 1.0361 0Z"/>
<use data-text="y" xlink:href="#font_1_2" transform="matrix(9.9626,0,0,-9.962899,24.502999,6.2088015)"/>
<path transform="matrix(1,0,0,-1.00003,27.124,121.57027)" stroke-width=".3985" stroke-linecap="butt" stroke-miterlimit="10" stroke-linejoin="miter" fill="none" stroke="#000000" d="M51.0239 1.27565V-1.27547"/>
<path transform="matrix(1,0,0,-1.00003,27.124,121.57027)" d="M47.53693-11.88026H54.51087V-3.4672805H47.53693Z" fill="#ffffff"/>
<use data-text="4" xlink:href="#font_2_1" transform="matrix(9.9626,0,0,-9.962899,75.657,132.45459)"/>
<path transform="matrix(1,0,0,-1.00003,27.124,121.57027)" stroke-width=".3985" stroke-linecap="butt" stroke-miterlimit="10" stroke-linejoin="miter" fill="none" stroke="#000000" d="M1.27565 51.0239H-1.27547"/>
<path transform="matrix(1,0,0,-1.00003,27.124,121.57027)" d="M-10.44121 46.8174H-3.46727V55.23038H-10.44121Z" fill="#ffffff"/>
<use data-text="4" xlink:href="#font_2_1" transform="matrix(9.9626,0,0,-9.962899,17.679,73.75483)"/>
<path transform="matrix(1,0,0,-1.00003,27.124,121.57027)" stroke-width="1.19553" stroke-linecap="butt" stroke-miterlimit="10" stroke-linejoin="miter" fill="none" stroke="#ff0000" d="M0 0C0 0 .864 9.42935 1.19586 11.73157 1.5277 14.03377 2.05988 15.40411 2.39174 16.59273 2.72357 17.78134 3.25575 19.34868 3.5876 20.29828 3.91945 21.24791 4.45161 22.61745 4.78348 23.43687 5.11533 24.25629 5.64749 25.47273 5.97934 26.20409 6.3112 26.93542 6.84335 28.04141 7.17522 28.70795 7.50706 29.37447 8.03925 30.39203 8.3711 31.00801 8.70294 31.62398 9.23512 32.57178 9.56696 33.14749 9.89882 33.7232 10.43098 34.61511 10.76285 35.15736 11.09468 35.69962 11.62686 36.54196 11.95871 37.0557 12.29056 37.56943 12.82274 38.36986 13.15459 38.86002 13.48643 39.35016 14.0186 40.11876 14.35045 40.58842 14.68231 41.05807 15.21448 41.7939 15.54633 42.24501 15.87819 42.69612 16.41035 43.40495 16.7422 43.8397 17.07405 44.27444 17.60623 44.95844 17.93806 45.37834 18.26993 45.79825 18.80211 46.45963 19.13394 46.86617 19.46579 47.27272 19.99797 47.91406 20.32982 48.30846 20.66167 48.70287 21.19385 49.32558 21.5257 49.7087 21.85753 50.09183 22.38972 50.69722 22.72157 51.06982 23.0534 51.44243 23.58559 52.0312 23.91745 52.39417 24.2493 52.75713 24.78146 53.33046 25.11331 53.68579 25.44516 54.04114 25.97733 54.60776 26.30919 54.95525 26.64104 55.30272 27.1732 55.85118 27.50507 56.19025 27.83691 56.52931 28.36908 57.06703 28.70093 57.39896 29.03278 57.7309 29.56496 58.25737 29.8968 58.58257 30.22865 58.90778 30.76083 59.42386 31.09268 59.74283 31.42453 60.0618 31.9567 60.5686 32.28856 60.88148 32.62039 61.19437 33.15257 61.69072 33.48442 61.99792 33.81627 62.30515 34.34845 62.79393 34.6803 63.09572 35.01216 63.3975 35.54431 63.87643 35.87617 64.17305 36.20802 64.46965 36.74019 64.94139 37.07204 65.23344 37.4039 65.52553 37.93608 65.99048 38.26791 66.27808 38.59976 66.56569 39.13194 67.02347 39.46378 67.30637 39.79564 67.58928 40.32782 68.03844 40.65965 68.31714 40.99152 68.59586 41.52368 69.04018 41.85553 69.31506 42.18738 69.58997 42.71956 70.0278 43.0514 70.2984 43.38326 70.56898 43.91544 70.99841 44.24728 71.26537 44.57913 71.5323 45.1113 71.95862 45.44315 72.22241 45.77501 72.4862 46.30717 72.90663 46.63902 73.16663 46.97087 73.4266 47.50305 73.83972 47.8349 74.09622 48.16675 74.35272 48.69893 74.76198 49.03076 75.0153 49.36263 75.26865 49.8948 75.67027 50.22664 75.92215 50.55849 76.17403 51.09067 76.5816 51.42253 76.83073 51.75436 77.07986 52.28654 77.4728 52.6184 77.71771 52.95023 77.96263 53.4824 78.35352 53.81427 78.59592 54.1461 78.83833 54.67828 79.2249 55.01015 79.46481 55.342 79.7047 55.87416 80.08769 56.20601 80.32492 56.53786 80.56215 57.07002 80.94006 57.40189 81.17453 57.73373 81.40898 58.2659 81.78276 58.59775 82.01479 58.92961 82.24683 59.46178 82.61696 59.79362 82.84688 60.12547 83.07681 60.65765 83.44423 60.98949 83.67195 61.32135 83.89969 61.85353 84.2625 62.18538 84.48828 62.51723 84.71408 63.0494 85.07582 63.38126 85.29936 63.71309 85.52289 64.24527 85.87857 64.57712 86.09933 64.90898 86.3201 65.44115 86.67133 65.773 86.89055 66.10484 87.10977 66.63701 87.46205 66.96886 87.67943 67.30072 87.8968 67.83289 88.24211 68.16473 88.4572 68.4966 88.6723 69.02878 89.0165 69.36061 89.22974 69.69246 89.44298 70.22464 89.78256 70.55647 89.9941 70.88834 90.20563 71.42052 90.54419 71.75235 90.75436 72.0842 90.96451 72.61638 91.30074 72.94824 91.50879 73.28008 91.71683 73.81226 92.04759 74.1441 92.25386 74.47594 92.46014 75.00813 92.79056 75.33998 92.99545 75.67183 93.20035 76.53586 93.7306 74.93959 92.75102"/>
<path transform="matrix(.85226,-.52302578,-.52301,-.8522856,102.06359,28.81646)" d="M1.27522 0C-.31879 .31879-1.91284 .9564-3.8257 2.07224-1.91284 .6376-1.91284-.6376-3.8257-2.07224-1.91284-.9564-.31879-.31879 1.27522 0Z" fill="#ff0000"/>
<path transform="matrix(.85226,-.52302578,-.52301,-.8522856,102.06359,28.81646)" stroke-width="1.19553" stroke-linecap="butt" stroke-linejoin="round" fill="none" stroke="#ff0000" d="M1.27522 0C-.31879 .31879-1.91284 .9564-3.8257 2.07224-1.91284 .6376-1.91284-.6376-3.8257-2.07224-1.91284-.9564-.31879-.31879 1.27522 0Z"/>
<use data-text="(" xlink:href="#font_3_85" transform="matrix(9.9626,0,0,-9.962899,20.479004,175.08689)"/>
<use data-text="d" xlink:href="#font_3_47" transform="matrix(9.9626,0,0,-9.962899,24.354454,175.08689)"/>
<use data-text=")" xlink:href="#font_3_86" transform="matrix(9.9626,0,0,-9.962899,29.893662,175.08689)"/>
</svg>
