<svg xmlns="http://www.w3.org/2000/svg" xmlns:xlink="http://www.w3.org/1999/xlink" version="1.1" width="228" height="212" viewBox="0 0 228 212">
<defs>
<path id="font_1_1" d="M.33399964 .30233766C.33999635 .32835389 .36299134 .42037965 .43299867 .42037965 .43798829 .42037965 .46199037 .42037965 .48298646 .40734864 .45498658 .402359 .43499757 .37734986 .43499757 .35334779 .43499757 .33735658 .44599916 .31835938 .47299195 .31835938 .49499513 .31835938 .5269928 .3363495 .5269928 .37635804 .5269928 .42837525 .46798707 .4423828 .43399049 .4423828 .37599183 .4423828 .34098817 .38935853 .32899476 .36634828 .3039856 .43237306 .25 .4423828 .22099304 .4423828 .116989139 .4423828 .05999756 .3133545 .05999756 .28834535 .05999756 .27833558 .069992069 .27833558 .07199097 .27833558 .07998657 .27833558 .08299255 .28033448 .084991458 .28933717 .11898804 .39535523 .18499756 .42037965 .21899414 .42037965 .23799134 .42037965 .272995 .4113617 .272995 .35334779 .272995 .32235719 .2559967 .25532533 .21899414 .11528015 .20298767 .053268434 .16799927 .011245728 .12399292 .011245728 .117996219 .011245728 .09498596 .011245728 .07398987 .024276734 .09899902 .029266358 .12098694 .05027771 .12098694 .07827759 .12098694 .105270389 .09899902 .11328125 .083999637 .11328125 .053985597 .11328125 .0289917 .08728027 .0289917 .055267335 .0289917 .009246826 .07899475-.0107421879 .12298584-.0107421879 .18899536-.0107421879 .22499085 .059280397 .22799683 .0652771 .23999024 .028274537 .27598573-.0107421879 .33599855-.0107421879 .43899537-.0107421879 .49598695 .118270877 .49598695 .14328003 .49598695 .1532898 .4869995 .1532898 .48399354 .1532898 .47499085 .1532898 .47299195 .14929199 .47099305 .14228821 .43798829 .03527832 .36999513 .011245728 .33799745 .011245728 .29899598 .011245728 .2829895 .043273927 .2829895 .07727051 .2829895 .09927368 .2889862 .121276859 .2999878 .16529846L.33399964 .30233766Z"/>
<path id="font_1_2" d="M.48599244 .38136292C.48999024 .39537049 .48999024 .39736939 .48999024 .40437318 .48999024 .42237855 .47599793 .43138124 .46099855 .43138124 .45098878 .43138124 .43499757 .42536927 .42599488 .41036988 .42399598 .405365 .41600038 .37435914 .4119873 .35635377 .40499879 .33035279 .397995 .30334474 .3919983 .27633668L.34700013 .09628296C.34298707 .08126831 .2999878 .011245728 .23399353 .011245728 .18299866 .011245728 .17199707 .055267335 .17199707 .0922699 .17199707 .1382904 .18899536 .20030213 .22299195 .28833009 .23899842 .3293457 .24299622 .3403473 .24299622 .36035157 .24299622 .405365 .21099854 .4423828 .16099549 .4423828 .06599426 .4423828 .0289917 .29733277 .0289917 .28833009 .0289917 .27833558 .038986207 .27833558 .040985109 .27833558 .050994874 .27833558 .051986696 .28033448 .056991579 .29634095 .083999637 .3903656 .12399292 .42037965 .1579895 .42037965 .1659851 .42037965 .18299866 .42037965 .18299866 .3883667 .18299866 .36335755 .17298889 .3373413 .1659851 .31834413 .12599182 .21231079 .10798645 .1552887 .10798645 .10827637 .10798645 .019256592 .17098999-.0107421879 .22999573-.0107421879 .2689972-.0107421879 .30299378 .0062561037 .33099366 .03425598 .31799317-.017745972 .30599977-.06674194 .2659912-.11973572 .23999024-.15385437 .20199585-.18309021 .1559906-.18309021 .14199829-.18309021 .09700012-.18005371 .07998657-.14074707 .09599304-.14074707 .10899353-.14074707 .12298584-.1287384 .1329956-.11973572 .14299011-.10673523 .14299011-.08773804 .14299011-.056747438 .115997318-.052734376 .10598755-.052734376 .08299255-.052734376 .049987794-.068740848 .049987794-.11773682 .049987794-.16796875 .09399414-.20507813 .1559906-.20507813 .25898744-.20507813 .3619995-.11373901 .3899994-.00074768069L.48599244 .38136292Z"/>
<path id="font_2_1" d="M.6589966 .23046875C.6759949 .23046875 .69400027 .23046875 .69400027 .25045777 .69400027 .27046205 .6759949 .27046205 .6589966 .27046205H.117996219C.100997928 .27046205 .08299255 .27046205 .08299255 .25045777 .08299255 .23046875 .100997928 .23046875 .117996219 .23046875H.6589966Z"/>
<path id="font_3_5" d="M.2899933 .35191346C.37199403 .37893678 .42999269 .4490509 .42999269 .52809146 .42999269 .6100464 .34199525 .6660156 .24598694 .6660156 .14498902 .6660156 .068984989 .60606387 .068984989 .53009036 .068984989 .49710084 .09098816 .47808839 .11999512 .47808839 .15098572 .47808839 .17098999 .50009158 .17098999 .5290985 .17098999 .57910159 .12399292 .57910159 .10899353 .57910159 .13999939 .62802127 .20599365 .64100649 .24198914 .64100649 .2829895 .64100649 .33799745 .6190338 .33799745 .5290985 .33799745 .51708987 .33599855 .45906068 .30999757 .4149933 .27999879 .36691285 .24598694 .36390687 .22099304 .36291505 .21299744 .36190797 .18899536 .35990907 .18199158 .35990907 .17399597 .35890199 .16699219 .35791017 .16699219 .3479004 .16699219 .33691407 .17399597 .33691407 .19099427 .33691407H.23498535C.31698609 .33691407 .35398866 .2686615 .35398866 .17037964 .35398866 .034469606 .2849884 .0055389406 .24099732 .0055389406 .19799805 .0055389406 .12298584 .022491456 .08799744 .08137512 .12298584 .07637024 .1539917 .09837341 .1539917 .1363678 .1539917 .17237854 .1269989 .19238281 .09799194 .19238281 .07398987 .19238281 .041992189 .17837525 .041992189 .1343689 .041992189 .043441774 .1349945-.022460938 .24398804-.022460938 .3659973-.022460938 .45700074 .06838989 .45700074 .17037964 .45700074 .252594 .3939972 .33088685 .2899933 .35191346Z"/>
<path id="font_3_4" d="M.1269989 .07699585 .23298645 .18003845C.3889923 .31811524 .44898988 .3721466 .44898988 .47216798 .44898988 .5860901 .35899354 .6660156 .23699951 .6660156 .12399292 .6660156 .049987794 .57411196 .049987794 .48516847 .049987794 .4291687 .099990848 .4291687 .102996829 .4291687 .11999512 .4291687 .15499878 .44117738 .15499878 .48217774 .15499878 .5081787 .13699341 .5341797 .101989749 .5341797 .09399414 .5341797 .09199524 .5341797 .08898926 .5331726 .11199951 .59806826 .1659851 .63500979 .22399903 .63500979 .31498719 .63500979 .35798646 .5541382 .35798646 .47216798 .35798646 .39215089 .30799867 .31311036 .25299073 .25108338L.06098938 .036987306C.049987794 .025985718 .049987794 .023986817 .049987794 0H.42099L.44898988 .17404175H.42399598C.4189911 .14402771 .4119873 .1000061 .4019928 .084991458 .394989 .07699585 .32899476 .07699585 .30699159 .07699585H.1269989Z"/>
<path id="font_3_3" d="M.2939911 .64004519C.2939911 .66400149 .2939911 .6660156 .2709961 .6660156 .20899964 .60227969 .12098694 .60227969 .08898926 .60227969V.57128909C.10899353 .57128909 .16799927 .57128909 .21998596 .5972748V.07902527C.21998596 .042999269 .21699524 .0309906 .1269989 .0309906H.09498596V0C.12998963 .0029907227 .21699524 .0029907227 .25698854 .0029907227 .29699708 .0029907227 .38398744 .0029907227 .4189911 0V.0309906H.3869934C.29699708 .0309906 .2939911 .041992189 .2939911 .07902527V.64004519Z"/>
<path id="font_3_7" d="M.13198853 .327713V.35173036C.13198853 .6047821 .2559967 .64100649 .30699159 .64100649 .33099366 .64100649 .37298585 .634964 .394989 .6007538 .37998963 .6007538 .33999635 .6007538 .33999635 .5557556 .33999635 .524765 .3639984 .5097656 .38598634 .5097656 .4019928 .5097656 .43199159 .51875308 .43199159 .5577545 .43199159 .6178589 .3880005 .6660156 .30499269 .6660156 .1769867 .6660156 .041992189 .5367584 .041992189 .31570436 .041992189 .048553468 .1579895-.022460938 .25099183-.022460938 .3619995-.022460938 .45700074 .07156372 .45700074 .2036438 .45700074 .33070375 .36799623 .4267578 .25698854 .4267578 .18899536 .4267578 .1519928 .37573243 .13198853 .327713M.25099183 .0055389406C.18798828 .0055389406 .1579895 .06556702 .1519928 .080566409 .13398743 .127594 .13398743 .2076416 .13398743 .22564698 .13398743 .30369569 .1659851 .40374757 .2559967 .40374757 .27198792 .40374757 .31799317 .40374757 .34899903 .34172059 .36698915 .30470277 .36698915 .2536621 .36698915 .20463562 .36698915 .15661621 .36698915 .10658264 .34999085 .0705719 .31999208 .010528564 .27398683 .0055389406 .25099183 .0055389406Z"/>
<path id="font_3_6" d="M.2939911 .16503906V.07800293C.2939911 .041992189 .2919922 .0309906 .21798706 .0309906H.19699097V0C.23799134 .0029907227 .2899933 .0029907227 .33198548 .0029907227 .37399293 .0029907227 .4269867 .0029907227 .46798707 0V.0309906H.44699098C.37298585 .0309906 .37098695 .041992189 .37098695 .07800293V.16503906H.47099305V.19602967H.37098695V.65075686C.37098695 .67074587 .37098695 .6767578 .35499574 .6767578 .34599305 .6767578 .34298707 .6767578 .33499146 .66474917L.027999878 .19602967V.16503906H.2939911M.2999878 .19602967H.055999757L.2999878 .5688019V.19602967Z"/>
<path id="font_3_8" d="M.16299439 .4569702C.116989139 .486969 .11299133 .52098086 .11299133 .5379791 .11299133 .598999 .17799378 .64100649 .24899292 .64100649 .32199098 .64100649 .38598634 .58898928 .38598634 .51698306 .38598634 .45996095 .34700013 .4119568 .2869873 .37695313L.16299439 .4569702M.30899049 .36193849C.3809967 .3989563 .42999269 .45095826 .42999269 .51698306 .42999269 .6090088 .34098817 .6660156 .25 .6660156 .1499939 .6660156 .068984989 .59199526 .068984989 .49897767 .068984989 .4809723 .070999149 .43595887 .11299133 .38894654 .12399292 .37695313 .16099549 .35194398 .18598938 .33494569 .12799073 .30592347 .041992189 .24984741 .041992189 .15072632 .041992189 .04458618 .14399719-.022460938 .24899292-.022460938 .3619995-.022460938 .45700074 .06060791 .45700074 .16773987 .45700074 .20379639 .44599916 .24885559 .4079895 .2909088 .3889923 .31193543 .37298585 .3219452 .30899049 .36193849M.20899964 .3199463 .33198548 .24183655C.3600006 .2228241 .40699769 .19277954 .40699769 .13169861 .40699769 .05760193 .33198548 .0055389406 .25 .0055389406 .1639862 .0055389406 .09199524 .067611698 .09199524 .15072632 .09199524 .20880127 .12399292 .27288819 .20899964 .3199463Z"/>
<path id="font_3_2" d="M.45999146 .31976319C.45999146 .39982606 .45498658 .47988893 .41999818 .5539398 .37399293 .65000918 .2919922 .6660156 .25 .6660156 .18998719 .6660156 .116989139 .64001467 .07598877 .54693606 .04399109 .47789 .038986207 .39982606 .038986207 .31976319 .038986207 .24472046 .042999269 .15464783 .083999637 .07859802 .1269989-.0024719239 .19999695-.022460938 .24899292-.022460938 .30299378-.022460938 .3789978-.0014648438 .4229889 .09359741 .45498658 .16265869 .45999146 .2407074 .45999146 .31976319M.24899292-.00047302247C.20999146-.00047302247 .15098572 .024551392 .1329956 .12062073 .12199402 .18066406 .12199402 .2727356 .12199402 .3317871 .12199402 .39582826 .12199402 .46188355 .12998963 .5159149 .14898682 .63500979 .22399903 .64401248 .24899292 .64401248 .28199769 .64401248 .34799195 .6259918 .36698915 .52693179 .3769989 .47088624 .3769989 .39482118 .3769989 .3317871 .3769989 .25672914 .3769989 .18867493 .3659973 .12461853 .35099793 .029556275 .2939911-.00047302247 .24899292-.00047302247Z"/>
<path id="font_3_9" d="M.68699648 .32714845C.70199587 .32714845 .72099307 .32714845 .72099307 .34713746 .72099307 .36714173 .70199587 .36714173 .6879883 .36714173H.08898926C.07499695 .36714173 .055999757 .36714173 .055999757 .34713746 .055999757 .32714845 .07499695 .32714845 .08999634 .32714845H.68699648M.6879883 .13284302C.70199587 .13284302 .72099307 .13284302 .72099307 .15284729 .72099307 .17285156 .70199587 .17285156 .68699648 .17285156H.08999634C.07499695 .17285156 .055999757 .17285156 .055999757 .15284729 .055999757 .13284302 .07499695 .13284302 .08898926 .13284302H.6879883Z"/>
<path id="font_4_1" d="M.5049896 .18203736H.47099305C.46798707 .16001892 .45799256 .100997928 .44499208 .09098816 .43699647 .084991458 .3600006 .084991458 .34599305 .084991458H.1619873C.2669983 .17803955 .3019867 .20603943 .3619995 .25306703 .43598939 .312088 .5049896 .374115 .5049896 .46914674 .5049896 .5900879 .39898683 .6640625 .2709961 .6640625 .14698792 .6640625 .06298828 .57710269 .06298828 .4851532 .06298828 .43414308 .10598755 .42915345 .115997318 .42915345 .13999939 .42915345 .16899109 .44615174 .16899109 .48214723 .16899109 .5001526 .1619873 .53515627 .10998535 .53515627 .14099121 .6060791 .20899964 .62805178 .2559967 .62805178 .35598756 .62805178 .4079895 .5501404 .4079895 .46914674 .4079895 .38212586 .34599305 .3130951 .31399537 .27708436L.07299805 .038986207C.06298828 .02999878 .06298828 .027999878 .06298828 0H.47499085L.5049896 .18203736Z"/>
<path id="font_3_1" d="M.40899659 .23046875H.6879883C.70199587 .23046875 .72099307 .23046875 .72099307 .25045777 .72099307 .27046205 .70199587 .27046205 .6879883 .27046205H.40899659V.5500183C.40899659 .56399539 .40899659 .5830078 .3889923 .5830078 .36898805 .5830078 .36898805 .56399539 .36898805 .5500183V.27046205H.08898926C.07499695 .27046205 .055999757 .27046205 .055999757 .25045777 .055999757 .23046875 .07499695 .23046875 .08898926 .23046875H.36898805V-.05000305C.36898805-.06401062 .36898805-.08300781 .3889923-.08300781 .40899659-.08300781 .40899659-.06401062 .40899659-.05000305V.23046875Z"/>
</defs>
<path transform="matrix(1.00002,0,0,-1.00003,91.61658,138.86278)" stroke-width=".3985" stroke-linecap="butt" stroke-miterlimit="10" stroke-linejoin="miter" fill="none" stroke="#00aeef" d="M-85.04042-68.0326H85.04042M-85.04042-45.35506H85.04042M-85.04042-22.67752H85.04042M-85.04042 0H85.04042M-85.04042 22.67752H85.04042M-85.04042 45.35506H85.04042M-85.04042 68.0326H85.04042M-85.04042 90.71013H85.04042M-85.04042 113.37968H85.04042M-85.04042-68.0326V113.38766M-56.69362-68.0326V113.38766M-28.3468-68.0326V113.38766M0-68.0326V113.38766M28.3468-68.0326V113.38766M56.69362-68.0326V113.38766M85.03047-68.0326V113.38766M85.04042 113.38766"/>
<path transform="matrix(1.00002,0,0,-1.00003,91.61658,138.86278)" stroke-width=".79701" stroke-linecap="butt" stroke-miterlimit="10" stroke-linejoin="miter" fill="none" stroke="#000000" d="M-85.04042 0H100.61406"/>
<path transform="matrix(1.00002,0,0,-1.00003,192.23265,138.86278)" d="M1.0361 0C-.25902 .25902-1.55415 .77707-3.1083 1.68365-1.55415 .51805-1.55415-.51805-3.1083-1.68365-1.55415-.77707-.25902-.25902 1.0361 0Z"/>
<path transform="matrix(1.00002,0,0,-1.00003,192.23265,138.86278)" stroke-width=".79701" stroke-linecap="butt" stroke-linejoin="round" fill="none" stroke="#000000" d="M1.0361 0C-.25902 .25902-1.55415 .77707-3.1083 1.68365-1.55415 .51805-1.55415-.51805-3.1083-1.68365-1.55415-.77707-.25902-.25902 1.0361 0Z"/>
<use data-text="x" xlink:href="#font_1_1" transform="matrix(9.962799,0,0,-9.962899,197.38669,141.00785)"/>
<path transform="matrix(1.00002,0,0,-1.00003,91.61658,138.86278)" stroke-width=".79701" stroke-linecap="butt" stroke-miterlimit="10" stroke-linejoin="miter" fill="none" stroke="#000000" d="M0-68.0326V125.5597"/>
<path transform="matrix(0,-1.00003,-1.00002,-0,91.61658,13.299309)" d="M1.0361 0C-.25902 .25902-1.55415 .77707-3.1083 1.68365-1.55415 .51805-1.55415-.51805-3.1083-1.68365-1.55415-.77707-.25902-.25902 1.0361 0Z"/>
<path transform="matrix(0,-1.00003,-1.00002,-0,91.61658,13.299309)" stroke-width=".79701" stroke-linecap="butt" stroke-linejoin="round" fill="none" stroke="#000000" d="M1.0361 0C-.25902 .25902-1.55415 .77707-3.1083 1.68365-1.55415 .51805-1.55415-.51805-3.1083-1.68365-1.55415-.77707-.25902-.25902 1.0361 0Z"/>
<use data-text="y" xlink:href="#font_1_2" transform="matrix(9.962799,0,0,-9.962899,88.99552,6.207794)"/>
<path transform="matrix(1.00002,0,0,-1.00003,91.61658,138.86278)" stroke-width=".79701" stroke-linecap="butt" stroke-miterlimit="10" stroke-linejoin="miter" fill="none" stroke="#000000" d="M-85.04042 2.26787V-2.26753"/>
<path transform="matrix(1.00002,0,0,-1.00003,91.61658,138.86278)" d="M-92.40181-13.90182H-77.67903V-4.6585905H-92.40181Z" fill="#ffffff"/>
<use data-text="&#x2212;" xlink:href="#font_2_1" transform="matrix(9.962799,0,0,-9.962899,.2087555,150.93814)"/>
<use data-text="3" xlink:href="#font_3_5" transform="matrix(9.962799,0,0,-9.962899,7.9579164,150.93814)"/>
<path transform="matrix(1.00002,0,0,-1.00003,91.61658,138.86278)" stroke-width=".79701" stroke-linecap="butt" stroke-miterlimit="10" stroke-linejoin="miter" fill="none" stroke="#000000" d="M-56.69362 2.26787V-2.26753"/>
<path transform="matrix(1.00002,0,0,-1.00003,91.61658,138.86278)" d="M-64.05501-13.90182H-49.33223V-4.6585905H-64.05501Z" fill="#ffffff"/>
<use data-text="&#x2212;" xlink:href="#font_2_1" transform="matrix(9.962799,0,0,-9.962899,28.55632,150.93814)"/>
<use data-text="2" xlink:href="#font_3_4" transform="matrix(9.962799,0,0,-9.962899,36.30548,150.93814)"/>
<path transform="matrix(1.00002,0,0,-1.00003,91.61658,138.86278)" stroke-width=".79701" stroke-linecap="butt" stroke-miterlimit="10" stroke-linejoin="miter" fill="none" stroke="#000000" d="M-28.3468 2.26787V-2.26753"/>
<path transform="matrix(1.00002,0,0,-1.00003,91.61658,138.86278)" d="M-35.70819-13.90182H-20.98541V-4.6585905H-35.70819Z" fill="#ffffff"/>
<use data-text="&#x2212;" xlink:href="#font_2_1" transform="matrix(9.962799,0,0,-9.962899,56.903886,150.93814)"/>
<use data-text="1" xlink:href="#font_3_3" transform="matrix(9.962799,0,0,-9.962899,64.653049,150.93814)"/>
<path transform="matrix(1.00002,0,0,-1.00003,91.61658,138.86278)" stroke-width=".79701" stroke-linecap="butt" stroke-miterlimit="10" stroke-linejoin="miter" fill="none" stroke="#000000" d="M28.3468 2.26787V-2.26753"/>
<path transform="matrix(1.00002,0,0,-1.00003,91.61658,138.86278)" d="M24.85983-13.07158H31.83377V-4.6586H24.85983Z" fill="#ffffff"/>
<use data-text="1" xlink:href="#font_3_3" transform="matrix(9.962799,0,0,-9.962899,117.4731,150.93814)"/>
<path transform="matrix(1.00002,0,0,-1.00003,91.61658,138.86278)" stroke-width=".79701" stroke-linecap="butt" stroke-miterlimit="10" stroke-linejoin="miter" fill="none" stroke="#000000" d="M56.69362 2.26787V-2.26753"/>
<path transform="matrix(1.00002,0,0,-1.00003,91.61658,138.86278)" d="M53.20665-13.07158H60.180589V-4.6586H53.20665Z" fill="#ffffff"/>
<use data-text="2" xlink:href="#font_3_4" transform="matrix(9.962799,0,0,-9.962899,145.82067,150.93814)"/>
<path transform="matrix(1.00002,0,0,-1.00003,91.61658,138.86278)" stroke-width=".79701" stroke-linecap="butt" stroke-miterlimit="10" stroke-linejoin="miter" fill="none" stroke="#000000" d="M85.04042 2.26787V-2.26753"/>
<path transform="matrix(1.00002,0,0,-1.00003,91.61658,138.86278)" d="M81.55345-13.07158H88.52739V-4.6586H81.55345Z" fill="#ffffff"/>
<use data-text="3" xlink:href="#font_3_5" transform="matrix(9.962799,0,0,-9.962899,174.16825,150.93814)"/>
<path transform="matrix(1.00002,0,0,-1.00003,91.61658,138.86278)" stroke-width=".79701" stroke-linecap="butt" stroke-miterlimit="10" stroke-linejoin="miter" fill="none" stroke="#000000" d="M2.83484-68.0326H-2.83441"/>
<path transform="matrix(1.00002,0,0,-1.00003,91.61658,138.86278)" d="M-19.94826-72.6542H-5.225479V-63.41097H-19.94826Z" fill="#ffffff"/>
<use data-text="&#x2212;" xlink:href="#font_2_1" transform="matrix(9.962799,0,0,-9.962899,72.6642,209.6929)"/>
<use data-text="6" xlink:href="#font_3_7" transform="matrix(9.962799,0,0,-9.962899,80.41336,209.6929)"/>
<path transform="matrix(1.00002,0,0,-1.00003,91.61658,138.86278)" stroke-width=".79701" stroke-linecap="butt" stroke-miterlimit="10" stroke-linejoin="miter" fill="none" stroke="#000000" d="M2.83484-45.35506H-2.83441"/>
<path transform="matrix(1.00002,0,0,-1.00003,91.61658,138.86278)" d="M-19.94826-49.97667H-5.225479V-40.73344H-19.94826Z" fill="#ffffff"/>
<use data-text="&#x2212;" xlink:href="#font_2_1" transform="matrix(9.962799,0,0,-9.962899,72.6642,187.01422)"/>
<use data-text="4" xlink:href="#font_3_6" transform="matrix(9.962799,0,0,-9.962899,80.41336,187.01422)"/>
<path transform="matrix(1.00002,0,0,-1.00003,91.61658,138.86278)" stroke-width=".79701" stroke-linecap="butt" stroke-miterlimit="10" stroke-linejoin="miter" fill="none" stroke="#000000" d="M2.83484-22.67752H-2.83441"/>
<path transform="matrix(1.00002,0,0,-1.00003,91.61658,138.86278)" d="M-19.94826-27.29913H-5.225479V-18.0559H-19.94826Z" fill="#ffffff"/>
<use data-text="&#x2212;" xlink:href="#font_2_1" transform="matrix(9.962799,0,0,-9.962899,72.6642,164.33655)"/>
<use data-text="2" xlink:href="#font_3_4" transform="matrix(9.962799,0,0,-9.962899,80.41336,164.33655)"/>
<path transform="matrix(1.00002,0,0,-1.00003,91.61658,138.86278)" stroke-width=".79701" stroke-linecap="butt" stroke-miterlimit="10" stroke-linejoin="miter" fill="none" stroke="#000000" d="M2.83484 22.67752H-2.83441"/>
<path transform="matrix(1.00002,0,0,-1.00003,91.61658,138.86278)" d="M-12.19942 18.47102H-5.22548V26.883999H-12.19942Z" fill="#ffffff"/>
<use data-text="2" xlink:href="#font_3_4" transform="matrix(9.962799,0,0,-9.962899,80.41335,119.395198)"/>
<path transform="matrix(1.00002,0,0,-1.00003,91.61658,138.86278)" stroke-width=".79701" stroke-linecap="butt" stroke-miterlimit="10" stroke-linejoin="miter" fill="none" stroke="#000000" d="M2.83484 45.35506H-2.83441"/>
<path transform="matrix(1.00002,0,0,-1.00003,91.61658,138.86278)" d="M-12.19942 41.14856H-5.22548V49.56154H-12.19942Z" fill="#ffffff"/>
<use data-text="4" xlink:href="#font_3_6" transform="matrix(9.962799,0,0,-9.962899,80.41335,96.71651)"/>
<path transform="matrix(1.00002,0,0,-1.00003,91.61658,138.86278)" stroke-width=".79701" stroke-linecap="butt" stroke-miterlimit="10" stroke-linejoin="miter" fill="none" stroke="#000000" d="M2.83484 68.0326H-2.83441"/>
<path transform="matrix(1.00002,0,0,-1.00003,91.61658,138.86278)" d="M-12.19942 63.8261H-5.22548V72.23908H-12.19942Z" fill="#ffffff"/>
<use data-text="6" xlink:href="#font_3_7" transform="matrix(9.962799,0,0,-9.962899,80.41335,74.03883)"/>
<path transform="matrix(1.00002,0,0,-1.00003,91.61658,138.86278)" stroke-width=".79701" stroke-linecap="butt" stroke-miterlimit="10" stroke-linejoin="miter" fill="none" stroke="#000000" d="M2.83484 90.71013H-2.83441"/>
<path transform="matrix(1.00002,0,0,-1.00003,91.61658,138.86278)" d="M-12.19942 86.50363H-5.22548V94.91661H-12.19942Z" fill="#ffffff"/>
<use data-text="8" xlink:href="#font_3_8" transform="matrix(9.962799,0,0,-9.962899,80.41335,51.360147)"/>
<path transform="matrix(1.00002,0,0,-1.00003,91.61658,138.86278)" stroke-width=".79701" stroke-linecap="butt" stroke-miterlimit="10" stroke-linejoin="miter" fill="none" stroke="#000000" d="M2.83484 113.38766H-2.83441"/>
<path transform="matrix(1.00002,0,0,-1.00003,91.61658,138.86278)" d="M-17.18083 109.18117H-5.2254898V117.59415H-17.18083Z" fill="#ffffff"/>
<use data-text="1" xlink:href="#font_3_3" transform="matrix(9.962799,0,0,-9.962899,75.43125,28.682465)"/>
<use data-text="0" xlink:href="#font_3_2" transform="matrix(9.962799,0,0,-9.962899,80.41265,28.682465)"/>
<path transform="matrix(1.00002,0,0,-1.00003,91.61658,138.86278)" stroke-width="1.19553" stroke-linecap="butt" stroke-miterlimit="10" stroke-linejoin="miter" fill="none" stroke="#000000" d="M-85.04042 102.04889C-85.04042 102.04889-83.12035 97.48505-82.3829 95.77048-81.64546 94.05591-80.46283 91.35066-79.72539 89.6914-78.98793 88.03214-77.80533 85.41559-77.06789 83.81163-76.33043 82.20767-75.14781 79.67981-74.41037 78.13116-73.67291 76.58252-72.4903 74.14337-71.75284 72.65004-71.0154 71.1567-69.8328 68.80623-69.09534 67.3682-68.3579 65.93016-67.17526 63.6684-66.43782 62.28569-65.70038 60.90297-64.51775 58.72989-63.7803 57.40248-63.04286 56.07507-61.86024 53.99072-61.1228 52.7186-60.38535 51.4465-59.20273 49.45082-58.46529 48.23402-57.72783 47.01723-56.54521 45.11026-55.80777 43.94878-55.07031 42.7873-53.88771 40.96901-53.15025 39.86284-52.41281 38.75667-51.2302 37.02705-50.49274 35.9762-49.7553 34.92534-48.57266 33.28444-47.83522 32.2889-47.09778 31.29333-45.91516 29.74115-45.17772 28.80089-44.44028 27.86063-43.25764 26.39716-42.5202 25.51219-41.78275 24.62726-40.60013 23.25247-39.86269 22.42284-39.12523 21.5932-37.94263 20.3071-37.20518 19.53278-36.46773 18.75845-35.28511 17.56105-34.54765 16.84204-33.81021 16.12303-32.6276 15.0143-31.89014 14.35062-31.1527 13.6869-29.97008 12.66689-29.23264 12.05849-28.4952 11.45009-27.31256 10.51878-26.57512 9.9657-25.83768 9.41261-24.65504 8.56999-23.9176 8.07222-23.18015 7.57442-21.99754 6.8205-21.2601 6.37802-20.52264 5.93556-19.34003 5.27034-18.60258 4.8832-17.86513 4.49602-16.68251 3.9195-15.94505 3.58765-15.20761 3.25578-14.02501 2.76796-13.28755 2.4914-12.55011 2.21486-11.36748 1.81573-10.63004 1.5945-9.8926 1.37326-8.70996 1.0628-7.97252 .8969-7.23508 .73096-6.05246 .50922-5.31502 .3986-4.57756 .288-3.39494 .15494-2.6575 .09964-1.92004 .04434-.73743 0 0 0 .73743 0 1.92004 .04434 2.6575 .09964 3.39494 .15494 4.57756 .288 5.31502 .3986 6.05246 .50922 7.23508 .73096 7.97252 .8969 8.70996 1.0628 9.8926 1.37326 10.63004 1.5945 11.36748 1.81573 12.55011 2.21486 13.28755 2.4914 14.02501 2.76796 15.20761 3.25578 15.94505 3.58765 16.68251 3.9195 17.86513 4.49602 18.60258 4.8832 19.34003 5.27034 20.52264 5.93556 21.2601 6.37802 21.99754 6.8205 23.18015 7.57442 23.9176 8.07222 24.65504 8.56999 25.83768 9.41261 26.57512 9.9657 27.31256 10.51878 28.4952 11.45009 29.23264 12.05849 29.97008 12.66689 31.1527 13.6869 31.89014 14.35062 32.6276 15.0143 33.81021 16.12303 34.54765 16.84204 35.28511 17.56105 36.46773 18.75845 37.20518 19.53278 37.94263 20.3071 39.12523 21.5932 39.86269 22.42284 40.60013 23.25247 41.78275 24.62726 42.5202 25.51219 43.25764 26.39716 44.44028 27.86063 45.17772 28.80089 45.91516 29.74115 47.09778 31.29333 47.83522 32.2889 48.57266 33.28444 49.7553 34.92534 50.49274 35.9762 51.2302 37.02705 52.41281 38.75667 53.15025 39.86284 53.88771 40.96901 55.07031 42.7873 55.80777 43.94878 56.54521 45.11026 57.72783 47.01723 58.46529 48.23402 59.20273 49.45082 60.38535 51.4465 61.1228 52.7186 61.86024 53.99072 63.04286 56.07507 63.7803 57.40248 64.51775 58.72989 65.70038 60.90297 66.43782 62.28569 67.17526 63.6684 68.3579 65.93016 69.09534 67.3682 69.8328 68.80623 71.0154 71.1567 71.75284 72.65004 72.4903 74.14337 73.67291 76.58252 74.41037 78.13116 75.14781 79.67981 76.33043 82.20767 77.06789 83.81163 77.80533 85.41559 78.98793 88.03214 79.72539 89.6914 80.46283 91.35066 81.64546 94.05591 82.3829 95.77048 83.12035 97.48505 85.04042 102.04889 85.04042 102.04889"/>
<use data-text="y" xlink:href="#font_1_2" transform="matrix(9.962799,0,0,-9.962899,180.57736,39.896806)"/>
<use data-text="=" xlink:href="#font_3_9" transform="matrix(9.962799,0,0,-9.962899,188.58654,39.896806)"/>
<use data-text="x" xlink:href="#font_1_1" transform="matrix(9.962799,0,0,-9.962899,199.10276,39.896806)"/>
<use data-text="2" xlink:href="#font_4_1" transform="matrix(6.97394,0,0,-6.9740097,204.79686,36.281694)"/>
<path transform="matrix(1.00002,0,0,-1.00003,91.61658,138.86278)" stroke-width="1.19553" stroke-linecap="butt" stroke-miterlimit="10" stroke-linejoin="miter" fill="none" stroke="#0000ff" d="M-85.04042 56.69382C-85.04042 56.69382-83.12035 52.12997-82.3829 50.4154-81.64546 48.70084-80.46283 45.9956-79.72539 44.33633-78.98793 42.67706-77.80533 40.06052-77.06789 38.45656-76.33043 36.8526-75.14781 34.32475-74.41037 32.7761-73.67291 31.22746-72.4903 28.7883-71.75284 27.29497-71.0154 25.80162-69.8328 23.45116-69.09534 22.01312-68.3579 20.57509-67.17526 18.31332-66.43782 16.93062-65.70038 15.5479-64.51775 13.37482-63.7803 12.04742-63.04286 10.72002-61.86024 8.63565-61.1228 7.36354-60.38535 6.09143-59.20273 4.09573-58.46529 2.87895-57.72783 1.66217-56.54521-.24477-55.80777-1.40625-55.07031-2.56773-53.88771-4.38602-53.15025-5.49219-52.41281-6.59836-51.2302-8.32797-50.49274-9.37883-49.7553-10.42969-48.57266-12.07059-47.83522-13.06613-47.09778-14.06169-45.91516-15.61388-45.17772-16.55414-44.44028-17.49438-43.25764-18.95787-42.5202-19.84283-41.78275-20.72777-40.60013-22.10255-39.86269-22.93219-39.12523-23.76183-37.94263-25.04793-37.20518-25.82225-36.46773-26.59657-35.28511-27.79398-34.54765-28.51299-33.81021-29.232-32.6276-30.34073-31.89014-31.00441-31.1527-31.66812-29.97008-32.68814-29.23264-33.29654-28.4952-33.90494-27.31256-34.83624-26.57512-35.38933-25.83768-35.94241-24.65504-36.78503-23.9176-37.2828-23.18015-37.78061-21.99754-38.53453-21.2601-38.977-20.52264-39.41946-19.34003-40.08469-18.60258-40.47183-17.86513-40.85901-16.68251-41.43552-15.94505-41.76738-15.20761-42.09924-14.02501-42.58707-13.28755-42.86363-12.55011-43.14017-11.36748-43.53929-10.63004-43.76053-9.8926-43.98177-8.70996-44.29222-7.97252-44.45813-7.23508-44.62405-6.05246-44.84581-5.31502-44.95642-4.57756-45.06703-3.39494-45.20009-2.6575-45.25539-1.92004-45.31068-.73743-45.35506 0-45.35506 .73743-45.35506 1.92004-45.31068 2.6575-45.25539 3.39494-45.20009 4.57756-45.06703 5.31502-44.95642 6.05246-44.84581 7.23508-44.62405 7.97252-44.45813 8.70996-44.29222 9.8926-43.98177 10.63004-43.76053 11.36748-43.53929 12.55011-43.14017 13.28755-42.86363 14.02501-42.58707 15.20761-42.09924 15.94505-41.76738 16.68251-41.43552 17.86513-40.85901 18.60258-40.47183 19.34003-40.08469 20.52264-39.41946 21.2601-38.977 21.99754-38.53453 23.18015-37.78061 23.9176-37.2828 24.65504-36.78503 25.83768-35.94241 26.57512-35.38933 27.31256-34.83624 28.4952-33.90494 29.23264-33.29654 29.97008-32.68814 31.1527-31.66812 31.89014-31.00441 32.6276-30.34073 33.81021-29.232 34.54765-28.51299 35.28511-27.79398 36.46773-26.59657 37.20518-25.82225 37.94263-25.04793 39.12523-23.76183 39.86269-22.93219 40.60013-22.10255 41.78275-20.72777 42.5202-19.84283 43.25764-18.95787 44.44028-17.49438 45.17772-16.55414 45.91516-15.61388 47.09778-14.06169 47.83522-13.06613 48.57266-12.07059 49.7553-10.42969 50.49274-9.37883 51.2302-8.32797 52.41281-6.59836 53.15025-5.49219 53.88771-4.38602 55.07031-2.56773 55.80777-1.40625 56.54521-.24477 57.72783 1.66217 58.46529 2.87895 59.20273 4.09573 60.38535 6.09143 61.1228 7.36354 61.86024 8.63565 63.04286 10.72002 63.7803 12.04742 64.51775 13.37482 65.70038 15.5479 66.43782 16.93062 67.17526 18.31332 68.3579 20.57509 69.09534 22.01312 69.8328 23.45116 71.0154 25.80162 71.75284 27.29497 72.4903 28.7883 73.67291 31.22746 74.41037 32.7761 75.14781 34.32475 76.33043 36.8526 77.06789 38.45656 77.80533 40.06052 78.98793 42.67706 79.72539 44.33633 80.46283 45.9956 81.64546 48.70084 82.3829 50.4154 83.12035 52.12997 85.04042 56.69382 85.04042 56.69382"/>
<use data-text="y" xlink:href="#font_1_2" transform="matrix(9.962799,0,0,-9.962899,180.57736,85.25317)" fill="#0000ff"/>
<use data-text="=" xlink:href="#font_3_9" transform="matrix(9.962799,0,0,-9.962899,188.58654,85.25317)" fill="#0000ff"/>
<use data-text="x" xlink:href="#font_1_1" transform="matrix(9.962799,0,0,-9.962899,199.10276,85.25317)" fill="#0000ff"/>
<use data-text="2" xlink:href="#font_4_1" transform="matrix(6.97394,0,0,-6.9740097,204.79686,81.638057)" fill="#0000ff"/>
<use data-text="&#x2212;" xlink:href="#font_2_1" transform="matrix(9.962799,0,0,-9.962899,211.48,85.25317)" fill="#0000ff"/>
<use data-text="4" xlink:href="#font_3_6" transform="matrix(9.962799,0,0,-9.962899,221.44319,85.25317)" fill="#0000ff"/>
<path transform="matrix(1.00002,0,0,-1.00003,91.61658,138.86278)" stroke-width="1.19553" stroke-linecap="butt" stroke-miterlimit="10" stroke-linejoin="miter" fill="none" stroke="#ff0000" d="M-69.43488 113.38696C-69.43488 113.38696-67.86731 110.34467-67.26526 109.20172-66.66322 108.05876-65.6977 106.25536-65.09566 105.14932-64.4936 104.0433-63.52809 102.29933-62.92604 101.23018-62.324 100.16103-61.35847 98.47588-60.75644 97.44354-60.15439 96.41121-59.18886 94.78525-58.58682 93.7898-57.98477 92.79434-57.01926 91.22757-56.4172 90.26894-55.81517 89.31027-54.84964 87.80235-54.2476 86.88058-53.64555 85.95882-52.68004 84.51031-52.07799 83.62547-51.47594 82.74062-50.51042 81.3512-49.90837 80.50322-49.30634 79.65524-48.3408 78.325-47.73877 77.51385-47.13672 76.70271-46.1712 75.43127-45.56915 74.65701-44.96712 73.88275-44.00159 72.67079-43.39954 71.9334-42.7975 71.196-41.83197 70.04288-41.22993 69.34232-40.62788 68.64174-39.66238 67.54779-39.06033 66.88411-38.4583 66.2204-37.49277 65.18561-36.89073 64.55876-36.28868 63.93193-35.32315 62.95628-34.72112 62.36632-34.11906 61.77635-33.15355 60.85982-32.5515 60.30673-31.94946 59.75365-30.98393 58.89624-30.3819 58.38004-29.77985 57.86382-28.81433 57.06552-28.21228 56.5862-27.61023 56.10686-26.64471 55.3677-26.04266 54.92525-25.44063 54.48279-24.4751 53.80283-23.87306 53.39717-23.27101 52.99153-22.3055 52.37039-21.70345 52.00163-21.10141 51.63286-20.13588 51.0712-19.53383 50.7393-18.9318 50.40741-17.96626 49.90453-17.36423 49.60951-16.76218 49.31448-15.79666 48.87108-15.19461 48.61295-14.59258 48.35478-13.62704 47.97023-13.02501 47.7489-12.42296 47.52756-11.45743 47.20218-10.8554 47.01773-10.25334 46.83327-9.28783 46.56703-8.68578 46.41945-8.08374 46.27187-7.11821 46.06474-6.51617 45.95403-5.91412 45.84332-4.94861 45.69533-4.34656 45.62149-3.7445 45.54765-2.77899 45.45879-2.17694 45.42183-1.5749 45.38487-.60938 45.35518-.00734 45.35506 .5947 45.35492 1.5602 45.38408 2.16225 45.42079 2.76428 45.4575 3.72981 45.54617 4.33186 45.61977 4.9339 45.69336 5.89943 45.8408 6.50146 45.95126 7.10352 46.06172 8.06903 46.26865 8.67108 46.41599 9.27312 46.56332 10.23865 46.82907 10.84068 47.01323 11.44273 47.19739 12.40826 47.52232 13.0103 47.74336 13.61235 47.96439 14.57787 48.34843 15.17992 48.60635 15.78195 48.86427 16.74747 49.30745 17.3495 49.60223 17.95155 49.89702 18.91707 50.39934 19.51912 50.73099 20.12117 51.06265 21.08669 51.62408 21.68874 51.99263 22.29077 52.36116 23.2563 52.98175 23.85834 53.38713 24.46039 53.79254 25.4259 54.4723 26.02795 54.91452 26.62999 55.35674 27.59552 56.09534 28.19757 56.57443 28.7996 57.05353 29.76514 57.85161 30.36717 58.36758 30.96922 58.88353 31.93474 59.74039 32.53679 60.29323 33.13882 60.84608 34.10435 61.7624 34.70639 62.35213 35.30844 62.94183 36.27397 63.91699 36.876 64.54353 37.47806 65.17009 38.44357 66.20442 39.04562 66.86784 39.64766 67.53125 40.61319 68.62471 41.21523 69.325 41.81728 70.02528 42.78279 71.17789 43.38484 71.91505 43.9869 72.65222 44.95241 73.86395 45.55446 74.63799 46.1565 75.412 47.12202 76.68288 47.72406 77.49377 48.32611 78.30469 49.29163 79.63469 49.89368 80.48245 50.49571 81.33025 51.46124 82.71942 52.0633 83.604 52.66533 84.4886 53.63086 85.93663 54.2329 86.8581 54.83495 87.77957 55.80046 89.28705 56.40251 90.24539 57.00455 91.20375 57.97008 92.77 58.57211 93.76523 59.17416 94.76047 60.1397 96.38618 60.74173 97.41829 61.34378 98.45038 62.3093 100.13495 62.91135 101.20386 63.51338 102.2728 64.47891 104.01654 65.08095 105.12233 65.683 106.22813 66.64851 108.031 67.25056 109.17368 67.85262 110.31635 69.42018 113.3579 69.42018 113.3579"/>
<use data-text="y" xlink:href="#font_1_2" transform="matrix(9.962799,0,0,-9.962899,138.1145,19.646203)" fill="#ff0000"/>
<use data-text="=" xlink:href="#font_3_9" transform="matrix(9.962799,0,0,-9.962899,146.12369,19.646203)" fill="#ff0000"/>
<use data-text="x" xlink:href="#font_1_1" transform="matrix(9.962799,0,0,-9.962899,156.6399,19.646203)" fill="#ff0000"/>
<use data-text="2" xlink:href="#font_4_1" transform="matrix(6.97394,0,0,-6.9740097,162.33402,16.03109)" fill="#ff0000"/>
<use data-text="+" xlink:href="#font_3_1" transform="matrix(9.962799,0,0,-9.962899,169.01715,19.646203)" fill="#ff0000"/>
<use data-text="4" xlink:href="#font_3_6" transform="matrix(9.962799,0,0,-9.962899,178.96997,19.646203)" fill="#ff0000"/>
</svg>
