<svg xmlns="http://www.w3.org/2000/svg" xmlns:xlink="http://www.w3.org/1999/xlink" version="1.1" width="211" height="205" viewBox="0 0 211 205">
<defs>
<path id="font_1_1" d="M.33399964 .30233766C.33999635 .32835389 .36299134 .42037965 .43299867 .42037965 .43798829 .42037965 .46199037 .42037965 .48298646 .40734864 .45498658 .402359 .43499757 .37734986 .43499757 .35334779 .43499757 .33735658 .44599916 .31835938 .47299195 .31835938 .49499513 .31835938 .5269928 .3363495 .5269928 .37635804 .5269928 .42837525 .46798707 .4423828 .43399049 .4423828 .37599183 .4423828 .34098817 .38935853 .32899476 .36634828 .3039856 .43237306 .25 .4423828 .22099304 .4423828 .116989139 .4423828 .05999756 .3133545 .05999756 .28834535 .05999756 .27833558 .069992069 .27833558 .07199097 .27833558 .07998657 .27833558 .08299255 .28033448 .084991458 .28933717 .11898804 .39535523 .18499756 .42037965 .21899414 .42037965 .23799134 .42037965 .272995 .4113617 .272995 .35334779 .272995 .32235719 .2559967 .25532533 .21899414 .11528015 .20298767 .053268434 .16799927 .011245728 .12399292 .011245728 .117996219 .011245728 .09498596 .011245728 .07398987 .024276734 .09899902 .029266358 .12098694 .05027771 .12098694 .07827759 .12098694 .105270389 .09899902 .11328125 .083999637 .11328125 .053985597 .11328125 .0289917 .08728027 .0289917 .055267335 .0289917 .009246826 .07899475-.0107421879 .12298584-.0107421879 .18899536-.0107421879 .22499085 .059280397 .22799683 .0652771 .23999024 .028274537 .27598573-.0107421879 .33599855-.0107421879 .43899537-.0107421879 .49598695 .118270877 .49598695 .14328003 .49598695 .1532898 .4869995 .1532898 .48399354 .1532898 .47499085 .1532898 .47299195 .14929199 .47099305 .14228821 .43798829 .03527832 .36999513 .011245728 .33799745 .011245728 .29899598 .011245728 .2829895 .043273927 .2829895 .07727051 .2829895 .09927368 .2889862 .121276859 .2999878 .16529846L.33399964 .30233766Z"/>
<path id="font_1_2" d="M.48599244 .38136292C.48999024 .39537049 .48999024 .39736939 .48999024 .40437318 .48999024 .42237855 .47599793 .43138124 .46099855 .43138124 .45098878 .43138124 .43499757 .42536927 .42599488 .41036988 .42399598 .405365 .41600038 .37435914 .4119873 .35635377 .40499879 .33035279 .397995 .30334474 .3919983 .27633668L.34700013 .09628296C.34298707 .08126831 .2999878 .011245728 .23399353 .011245728 .18299866 .011245728 .17199707 .055267335 .17199707 .0922699 .17199707 .1382904 .18899536 .20030213 .22299195 .28833009 .23899842 .3293457 .24299622 .3403473 .24299622 .36035157 .24299622 .405365 .21099854 .4423828 .16099549 .4423828 .06599426 .4423828 .0289917 .29733277 .0289917 .28833009 .0289917 .27833558 .038986207 .27833558 .040985109 .27833558 .050994874 .27833558 .051986696 .28033448 .056991579 .29634095 .083999637 .3903656 .12399292 .42037965 .1579895 .42037965 .1659851 .42037965 .18299866 .42037965 .18299866 .3883667 .18299866 .36335755 .17298889 .3373413 .1659851 .31834413 .12599182 .21231079 .10798645 .1552887 .10798645 .10827637 .10798645 .019256592 .17098999-.0107421879 .22999573-.0107421879 .2689972-.0107421879 .30299378 .0062561037 .33099366 .03425598 .31799317-.017745972 .30599977-.06674194 .2659912-.11973572 .23999024-.15385437 .20199585-.18309021 .1559906-.18309021 .14199829-.18309021 .09700012-.18005371 .07998657-.14074707 .09599304-.14074707 .10899353-.14074707 .12298584-.1287384 .1329956-.11973572 .14299011-.10673523 .14299011-.08773804 .14299011-.056747438 .115997318-.052734376 .10598755-.052734376 .08299255-.052734376 .049987794-.068740848 .049987794-.11773682 .049987794-.16796875 .09399414-.20507813 .1559906-.20507813 .25898744-.20507813 .3619995-.11373901 .3899994-.00074768069L.48599244 .38136292Z"/>
<path id="font_2_1" d="M.45999146 .31976319C.45999146 .39982606 .45498658 .47988893 .41999818 .5539398 .37399293 .65000918 .2919922 .6660156 .25 .6660156 .18998719 .6660156 .116989139 .64001467 .07598877 .54693606 .04399109 .47789 .038986207 .39982606 .038986207 .31976319 .038986207 .24472046 .042999269 .15464783 .083999637 .07859802 .1269989-.0024719239 .19999695-.022460938 .24899292-.022460938 .30299378-.022460938 .3789978-.0014648438 .4229889 .09359741 .45498658 .16265869 .45999146 .2407074 .45999146 .31976319M.24899292-.00047302247C.20999146-.00047302247 .15098572 .024551392 .1329956 .12062073 .12199402 .18066406 .12199402 .2727356 .12199402 .3317871 .12199402 .39582826 .12199402 .46188355 .12998963 .5159149 .14898682 .63500979 .22399903 .64401248 .24899292 .64401248 .28199769 .64401248 .34799195 .6259918 .36698915 .52693179 .3769989 .47088624 .3769989 .39482118 .3769989 .3317871 .3769989 .25672914 .3769989 .18867493 .3659973 .12461853 .35099793 .029556275 .2939911-.00047302247 .24899292-.00047302247Z"/>
<path id="font_2_3" d="M.1269989 .07699585 .23298645 .18003845C.3889923 .31811524 .44898988 .3721466 .44898988 .47216798 .44898988 .5860901 .35899354 .6660156 .23699951 .6660156 .12399292 .6660156 .049987794 .57411196 .049987794 .48516847 .049987794 .4291687 .099990848 .4291687 .102996829 .4291687 .11999512 .4291687 .15499878 .44117738 .15499878 .48217774 .15499878 .5081787 .13699341 .5341797 .101989749 .5341797 .09399414 .5341797 .09199524 .5341797 .08898926 .5331726 .11199951 .59806826 .1659851 .63500979 .22399903 .63500979 .31498719 .63500979 .35798646 .5541382 .35798646 .47216798 .35798646 .39215089 .30799867 .31311036 .25299073 .25108338L.06098938 .036987306C.049987794 .025985718 .049987794 .023986817 .049987794 0H.42099L.44898988 .17404175H.42399598C.4189911 .14402771 .4119873 .1000061 .4019928 .084991458 .394989 .07699585 .32899476 .07699585 .30699159 .07699585H.1269989Z"/>
<path id="font_2_4" d="M.2939911 .16503906V.07800293C.2939911 .041992189 .2919922 .0309906 .21798706 .0309906H.19699097V0C.23799134 .0029907227 .2899933 .0029907227 .33198548 .0029907227 .37399293 .0029907227 .4269867 .0029907227 .46798707 0V.0309906H.44699098C.37298585 .0309906 .37098695 .041992189 .37098695 .07800293V.16503906H.47099305V.19602967H.37098695V.65075686C.37098695 .67074587 .37098695 .6767578 .35499574 .6767578 .34599305 .6767578 .34298707 .6767578 .33499146 .66474917L.027999878 .19602967V.16503906H.2939911M.2999878 .19602967H.055999757L.2999878 .5688019V.19602967Z"/>
<path id="font_2_6" d="M.13198853 .327713V.35173036C.13198853 .6047821 .2559967 .64100649 .30699159 .64100649 .33099366 .64100649 .37298585 .634964 .394989 .6007538 .37998963 .6007538 .33999635 .6007538 .33999635 .5557556 .33999635 .524765 .3639984 .5097656 .38598634 .5097656 .4019928 .5097656 .43199159 .51875308 .43199159 .5577545 .43199159 .6178589 .3880005 .6660156 .30499269 .6660156 .1769867 .6660156 .041992189 .5367584 .041992189 .31570436 .041992189 .048553468 .1579895-.022460938 .25099183-.022460938 .3619995-.022460938 .45700074 .07156372 .45700074 .2036438 .45700074 .33070375 .36799623 .4267578 .25698854 .4267578 .18899536 .4267578 .1519928 .37573243 .13198853 .327713M.25099183 .0055389406C.18798828 .0055389406 .1579895 .06556702 .1519928 .080566409 .13398743 .127594 .13398743 .2076416 .13398743 .22564698 .13398743 .30369569 .1659851 .40374757 .2559967 .40374757 .27198792 .40374757 .31799317 .40374757 .34899903 .34172059 .36698915 .30470277 .36698915 .2536621 .36698915 .20463562 .36698915 .15661621 .36698915 .10658264 .34999085 .0705719 .31999208 .010528564 .27398683 .0055389406 .25099183 .0055389406Z"/>
<path id="font_2_5" d="M.44898988 .20022583C.44898988 .3193512 .36698915 .41944886 .25898744 .41944886 .21099854 .41944886 .16799927 .40345765 .13198853 .36842347V.5637665C.1519928 .5577698 .18499756 .55078127 .21699524 .55078127 .33999635 .55078127 .4099884 .6417694 .4099884 .6547699 .4099884 .6607666 .40699769 .6657715 .3999939 .6657715 .39898683 .6657715 .39698792 .6657715 .3919983 .66278079 .37199403 .6537781 .32299806 .6337738 .2559967 .6337738 .21598816 .6337738 .16999817 .6407776 .12298584 .6617737 .114990238 .66477969 .11299133 .66477969 .11099243 .66477969 .100997928 .66477969 .100997928 .6567688 .100997928 .6407776V.34439088C.100997928 .32637025 .100997928 .31835938 .114990238 .31835938 .12199402 .31835938 .12399292 .32136537 .12799073 .32736207 .13899231 .3433838 .17599488 .39746095 .25698854 .39746095 .30899049 .39746095 .33399964 .35139466 .34199525 .33337403 .35798646 .29632569 .3600006 .25727845 .3600006 .20722962 .3600006 .17222595 .3600006 .11222839 .33599855 .07035828 .31199647 .031463624 .2749939 .0055389406 .22898865 .0055389406 .1559906 .0055389406 .09899902 .058380128 .08198547 .11723328 .084991458 .1162262 .08799744 .115234378 .09899902 .115234378 .13198853 .115234378 .14898682 .14022827 .14898682 .16423035 .14898682 .18823242 .13198853 .21322632 .09899902 .21322632 .084991458 .21322632 .049987794 .20622254 .049987794 .16023255 .049987794 .07434082 .11898804-.022460938 .23098755-.022460938 .34700013-.022460938 .44898988 .073349 .44898988 .20022583Z"/>
<path id="font_2_2" d="M.2939911 .64004519C.2939911 .66400149 .2939911 .6660156 .2709961 .6660156 .20899964 .60227969 .12098694 .60227969 .08898926 .60227969V.57128909C.10899353 .57128909 .16799927 .57128909 .21998596 .5972748V.07902527C.21998596 .042999269 .21699524 .0309906 .1269989 .0309906H.09498596V0C.12998963 .0029907227 .21699524 .0029907227 .25698854 .0029907227 .29699708 .0029907227 .38398744 .0029907227 .4189911 0V.0309906H.3869934C.29699708 .0309906 .2939911 .041992189 .2939911 .07902527V.64004519Z"/>
<path id="font_2_7" d="M.68699648 .32714845C.70199587 .32714845 .72099307 .32714845 .72099307 .34713746 .72099307 .36714173 .70199587 .36714173 .6879883 .36714173H.08898926C.07499695 .36714173 .055999757 .36714173 .055999757 .34713746 .055999757 .32714845 .07499695 .32714845 .08999634 .32714845H.68699648M.6879883 .13284302C.70199587 .13284302 .72099307 .13284302 .72099307 .15284729 .72099307 .17285156 .70199587 .17285156 .68699648 .17285156H.08999634C.07499695 .17285156 .055999757 .17285156 .055999757 .15284729 .055999757 .13284302 .07499695 .13284302 .08898926 .13284302H.6879883Z"/>
<path id="font_3_3" d="M.5289917 .1640625V.20005799H.41799928V.64582827C.41799928 .66682437 .41799928 .6738281 .3959961 .6738281 .38398744 .6738281 .37998963 .6738281 .36999513 .65982058L.038986207 .20005799V.1640625H.33299256V.08201599C.33299256 .04800415 .33299256 .035995485 .2519989 .035995485H.22499085V0C.2749939 .0019989014 .33898927 .0039978029 .375 .0039978029 .4119873 .0039978029 .47599793 .0019989014 .526001 0V.035995485H.49899293C.41799928 .035995485 .41799928 .04800415 .41799928 .08201599V.1640625H.5289917M.33999635 .5658722V.20005799H.07598877L.33999635 .5658722Z"/>
<path id="font_4_1" d="M.5009918 .70599368C.5069885 .71899417 .5069885 .72099307 .5069885 .72499087 .5069885 .7409973 .49398805 .75 .48298646 .75 .46598817 .75 .46099855 .73799136 .45599366 .72499087L.08299255-.20600891C.07699585-.2190094 .07699585-.2210083 .07699585-.2250061 .07699585-.24101258 .08999634-.25 .100997928-.25 .117996219-.25 .12298584-.23800659 .12799073-.2250061L.5009918 .70599368Z"/>
<path id="font_3_2" d="M.272995 .33428956C.35099793 .33428956 .40699769 .2803192 .40699769 .1733551 .40699769 .04940796 .33499146 .012466431 .2769928 .012466431 .23699951 .012466431 .14898682 .0234375 .10699463 .082351688 .1539917 .084350589 .16499329 .11735535 .16499329 .13835144 .16499329 .17034912 .14099121 .19335938 .10998535 .19335938 .08198547 .19335938 .053985597 .17634583 .053985597 .13534546 .053985597 .041412355 .1579895-.01953125 .2789917-.01953125 .41799928-.01953125 .5139923 .07336426 .5139923 .1733551 .5139923 .2513275 .44999696 .32929994 .33999635 .35229493 .44499208 .39024354 .48298646 .4650879 .48298646 .5260773 .48298646 .60505679 .3919983 .6640625 .2809906 .6640625 .16999817 .6640625 .084991458 .61006167 .084991458 .5300751 .084991458 .49606324 .10699463 .47706605 .13699341 .47706605 .16799927 .47706605 .18798828 .5000763 .18798828 .5280762 .18798828 .5570679 .16799927 .57806399 .13699341 .5800781 .17199707 .62405398 .24099732 .63505557 .27799989 .63505557 .32299806 .63505557 .38598634 .6130676 .38598634 .5260773 .38598634 .48406983 .37199403 .43814088 .34599305 .4072113 .31298829 .36927796 .2849884 .3672943 .23498535 .36428834 .20999146 .3623047 .20799256 .3623047 .20298767 .3612976 .20098877 .3612976 .19299317 .3592987 .19299317 .34829713 .19299317 .33428956 .20199585 .33428956 .21899414 .33428956H.272995Z"/>
<path id="font_3_1" d="M.5049896 .18203736H.47099305C.46798707 .16001892 .45799256 .100997928 .44499208 .09098816 .43699647 .084991458 .3600006 .084991458 .34599305 .084991458H.1619873C.2669983 .17803955 .3019867 .20603943 .3619995 .25306703 .43598939 .312088 .5049896 .374115 .5049896 .46914674 .5049896 .5900879 .39898683 .6640625 .2709961 .6640625 .14698792 .6640625 .06298828 .57710269 .06298828 .4851532 .06298828 .43414308 .10598755 .42915345 .115997318 .42915345 .13999939 .42915345 .16899109 .44615174 .16899109 .48214723 .16899109 .5001526 .1619873 .53515627 .10998535 .53515627 .14099121 .6060791 .20899964 .62805178 .2559967 .62805178 .35598756 .62805178 .4079895 .5501404 .4079895 .46914674 .4079895 .38212586 .34599305 .3130951 .31399537 .27708436L.07299805 .038986207C.06298828 .02999878 .06298828 .027999878 .06298828 0H.47499085L.5049896 .18203736Z"/>
</defs>
<path transform="matrix(1.00003,0,0,-1.00002,16.197098,192.15459)" stroke-width=".3985" stroke-linecap="butt" stroke-miterlimit="10" stroke-linejoin="miter" fill="none" stroke="#00aeef" d="M0 0H170.08086M0 17.00824H170.08086M0 34.0165H170.08086M0 51.02477H170.08086M0 68.03302H170.08086M0 85.04128H170.08086M0 102.04953H170.08086M0 119.0578H170.08086M0 136.06606H170.08086M0 153.07433H170.08086M0 170.0766H170.08086M0 0V170.08257M28.3468 0V170.08257M56.69362 0V170.08257M85.04042 0V170.08257M113.38724 0V170.08257M141.73404 0V170.08257M170.07089 0V170.08257M170.08086 170.08257"/>
<path transform="matrix(1.00003,0,0,-1.00002,16.197098,192.15459)" stroke-width=".79701" stroke-linecap="butt" stroke-miterlimit="10" stroke-linejoin="miter" fill="none" stroke="#000000" d="M0 0H182.81964"/>
<path transform="matrix(1.00003,0,0,-1.00002,199.02223,192.15459)" d="M1.0361 0C-.25902 .25902-1.55415 .77707-3.1083 1.68365-1.55415 .51805-1.55415-.51805-3.1083-1.68365-1.55415-.77707-.25902-.25902 1.0361 0Z"/>
<path transform="matrix(1.00003,0,0,-1.00002,199.02223,192.15459)" stroke-width=".79701" stroke-linecap="butt" stroke-linejoin="round" fill="none" stroke="#000000" d="M1.0361 0C-.25902 .25902-1.55415 .77707-3.1083 1.68365-1.55415 .51805-1.55415-.51805-3.1083-1.68365-1.55415-.77707-.25902-.25902 1.0361 0Z"/>
<use data-text="x" xlink:href="#font_1_1" transform="matrix(9.962899,0,0,-9.962799,204.17575,194.29962)"/>
<path transform="matrix(1.00003,0,0,-1.00002,16.197098,192.15459)" stroke-width=".79701" stroke-linecap="butt" stroke-miterlimit="10" stroke-linejoin="miter" fill="none" stroke="#000000" d="M0 0V178.85301"/>
<path transform="matrix(0,-1.00002,-1.00003,-0,16.197098,13.297989)" d="M1.0361 0C-.25902 .25902-1.55415 .77707-3.1083 1.68365-1.55415 .51805-1.55415-.51805-3.1083-1.68365-1.55415-.77707-.25902-.25902 1.0361 0Z"/>
<path transform="matrix(0,-1.00002,-1.00003,-0,16.197098,13.297989)" stroke-width=".79701" stroke-linecap="butt" stroke-linejoin="round" fill="none" stroke="#000000" d="M1.0361 0C-.25902 .25902-1.55415 .77707-3.1083 1.68365-1.55415 .51805-1.55415-.51805-3.1083-1.68365-1.55415-.77707-.25902-.25902 1.0361 0Z"/>
<use data-text="y" xlink:href="#font_1_2" transform="matrix(9.962899,0,0,-9.962799,13.576019,6.2068636)"/>
<path transform="matrix(1.00003,0,0,-1.00002,16.197098,192.15459)" stroke-width=".3985" stroke-linecap="butt" stroke-miterlimit="10" stroke-linejoin="miter" fill="none" stroke="#000000" d="M0 1.70091V-1.70065"/>
<path transform="matrix(1.00003,0,0,-1.00002,16.197098,192.15459)" d="M-3.48697-12.30545H3.48697V-3.8924704H-3.48697Z" fill="#ffffff"/>
<use data-text="0" xlink:href="#font_2_1" transform="matrix(9.962899,0,0,-9.962799,13.706024,203.4638)"/>
<path transform="matrix(1.00003,0,0,-1.00002,16.197098,192.15459)" stroke-width=".3985" stroke-linecap="butt" stroke-miterlimit="10" stroke-linejoin="miter" fill="none" stroke="#000000" d="M56.69362 1.70091V-1.70065"/>
<path transform="matrix(1.00003,0,0,-1.00002,16.197098,192.15459)" d="M53.20665-12.30545H60.180589V-3.8924704H53.20665Z" fill="#ffffff"/>
<use data-text="2" xlink:href="#font_2_3" transform="matrix(9.962899,0,0,-9.962799,70.401729,203.4638)"/>
<path transform="matrix(1.00003,0,0,-1.00002,16.197098,192.15459)" stroke-width=".3985" stroke-linecap="butt" stroke-miterlimit="10" stroke-linejoin="miter" fill="none" stroke="#000000" d="M113.38724 1.70091V-1.70065"/>
<path transform="matrix(1.00003,0,0,-1.00002,16.197098,192.15459)" d="M109.90027-12.30545H116.87421V-3.8924704H109.90027Z" fill="#ffffff"/>
<use data-text="4" xlink:href="#font_2_4" transform="matrix(9.962899,0,0,-9.962799,127.097438,203.4638)"/>
<path transform="matrix(1.00003,0,0,-1.00002,16.197098,192.15459)" stroke-width=".3985" stroke-linecap="butt" stroke-miterlimit="10" stroke-linejoin="miter" fill="none" stroke="#000000" d="M170.08086 1.70091V-1.70065"/>
<path transform="matrix(1.00003,0,0,-1.00002,16.197098,192.15459)" d="M166.59389-12.30545H173.56783V-3.8924704H166.59389Z" fill="#ffffff"/>
<use data-text="6" xlink:href="#font_2_6" transform="matrix(9.962899,0,0,-9.962799,183.79213,203.4638)"/>
<path transform="matrix(1.00003,0,0,-1.00002,16.197098,192.15459)" stroke-width=".3985" stroke-linecap="butt" stroke-miterlimit="10" stroke-linejoin="miter" fill="none" stroke="#000000" d="M2.83484 85.04128H-2.83441"/>
<path transform="matrix(1.00003,0,0,-1.00002,16.197098,192.15459)" d="M-12.00017 80.83478H-5.02623V89.24776H-12.00017Z" fill="#ffffff"/>
<use data-text="5" xlink:href="#font_2_5" transform="matrix(9.962899,0,0,-9.962799,5.1927645,110.321949)"/>
<path transform="matrix(1.00003,0,0,-1.00002,16.197098,192.15459)" stroke-width=".3985" stroke-linecap="butt" stroke-miterlimit="10" stroke-linejoin="miter" fill="none" stroke="#000000" d="M2.83484 170.08257H-2.83441"/>
<path transform="matrix(1.00003,0,0,-1.00002,16.197098,192.15459)" d="M-16.98158 165.87607H-5.0262405V174.28905H-16.98158Z" fill="#ffffff"/>
<use data-text="1" xlink:href="#font_2_2" transform="matrix(9.962899,0,0,-9.962799,.21161652,25.279252)"/>
<use data-text="0" xlink:href="#font_2_1" transform="matrix(9.962899,0,0,-9.962799,5.1930696,25.279252)"/>
<path transform="matrix(1.00003,0,0,-1.00002,16.197098,192.15459)" stroke-width="1.19553" stroke-linecap="butt" stroke-miterlimit="10" stroke-linejoin="miter" fill="none" stroke="#ff0000" d="M0 0C0 0 1.79912 .43329 2.49011 .6667 3.18109 .90012 4.28923 1.37608 4.98022 1.68224 5.67122 1.98837 6.77936 2.52147 7.47035 2.87318 8.16135 3.22491 9.26947 3.82802 9.96046 4.21729 10.65146 4.60652 11.7596 5.25899 12.45059 5.67867 13.14159 6.09834 14.24973 6.79567 14.9407 7.24203 15.6317 7.6884 16.73985 8.42578 17.43083 8.89574 18.12183 9.36568 19.22997 10.13792 19.92096 10.6291 20.61194 11.1203 21.7201 11.92535 22.41109 12.43593 23.10208 12.94649 24.2102 13.77971 24.9012 14.30891 25.5922 14.83813 26.70032 15.70398 27.39131 16.25017 28.0823 16.79634 29.19044 17.68332 29.88144 18.2454 30.57243 18.80748 31.68057 19.72368 32.37155 20.30135 33.06255 20.87903 34.1707 21.81702 34.86168 22.40895 35.55267 23.0009 36.66081 23.96188 37.3518 24.5677 38.04279 25.17351 39.15094 26.1562 39.84193 26.77522 40.53293 27.39424 41.64105 28.39769 42.33205 29.0292 43.02304 29.6607 44.13118 30.68317 44.82217 31.32677 45.51317 31.9704 46.62129 33.01288 47.31229 33.66795 48.00328 34.32301 49.11142 35.38133 49.8024 36.04807 50.4934 36.7148 51.60155 37.79489 52.29253 38.47333 52.98352 39.15176 54.09166 40.2489 54.78265 40.93777 55.47363 41.62666 56.58179 42.73946 57.27278 43.43831 57.96376 44.13716 59.0719 45.2659 59.7629 45.97466 60.45389 46.68341 61.56203 47.82764 62.25302 48.54655 62.94402 49.26546 64.05214 50.428 64.74313 51.15608 65.43413 51.88416 66.54228 53.05731 67.23326 53.79416 67.92426 54.53099 69.0324 55.72055 69.72337 56.46674 70.41437 57.21294 71.5225 58.41756 72.2135 59.1723 72.90448 59.92705 74.01263 61.14368 74.70363 61.9064 75.3946 62.66913 76.50275 63.89806 77.19374 64.66957 77.88474 65.44107 78.99287 66.6868 79.68387 67.467 80.37486 68.2472 81.48299 69.50441 82.17398 70.29271 82.86497 71.08101 83.97311 72.35239 84.66411 73.14853 85.3551 73.94469 86.46324 75.22757 87.15422 76.03082 87.84521 76.83406 88.95337 78.12662 89.64436 78.93776 90.33534 79.74889 91.44348 81.05829 92.13448 81.87688 92.82545 82.69545 93.9336 84.01111 94.62459 84.83755 95.31558 85.66397 96.42372 87.00095 97.11472 87.83325 97.80571 88.66554 98.91383 89.99736 99.60483 90.83623 100.29582 91.67508 101.40396 93.03166 102.09496 93.87915 102.78595 94.72665 103.89409 96.08989 104.58507 96.94441 105.27606 97.79892 106.38422 99.17609 107.07521 100.03795 107.76619 100.89981 108.87433 102.29031 109.56532 103.15614 110.2563 104.02197 111.36446 105.404 112.05545 106.27824 112.74644 107.1525 113.85457 108.57402 114.54556 109.45717 115.23656 110.34032 116.34468 111.75642 117.03568 112.64336 117.72667 113.53029 118.83481 114.95692 119.5258 115.84955 120.2168 116.74216 121.32494 118.17775 122.01591 119.07674 122.70691 119.97572 123.81506 121.42363 124.50604 122.32886 125.19704 123.23407 126.30518 124.68875 126.99617 125.60094 127.68715 126.51315 128.7953 127.98576 129.4863 128.90341 130.17729 129.82105 131.28542 131.29248 131.97641 132.2147 132.6674 133.13692 133.77555 134.6216 134.46654 135.55011 135.15753 136.47863 136.26566 137.97203 136.95665 138.90682 137.64765 139.8416 138.75579 141.34674 139.44676 142.2874 140.13776 143.22805 141.24591 144.74031 141.93689 145.6864 142.62789 146.63248 143.73603 148.15515 144.42702 149.10617 145.118 150.05719 146.22615 151.58493 146.91715 152.54073 147.60814 153.49654 148.71627 155.033 149.40726 155.99501 150.09825 156.95702 151.20639 158.50814 151.89739 159.4742 152.58838 160.44028 153.6965 161.98612 154.3875 162.95781 155.07849 163.9295 156.18665 165.49933 156.87763 166.4775 157.56862 167.45568 159.36774 170.00783 158.28865 168.47704"/>
<path transform="matrix(.5761573,-.8173064,-.81731459,-.57615157,174.49051,23.67418)" d="M1.27522 0C-.31879 .31879-1.91284 .9564-3.8257 2.07224-1.91284 .6376-1.91284-.6376-3.8257-2.07224-1.91284-.9564-.31879-.31879 1.27522 0Z" fill="#ff0000"/>
<path transform="matrix(.5761573,-.8173064,-.81731459,-.57615157,174.49051,23.67418)" stroke-width="1.19553" stroke-linecap="butt" stroke-linejoin="round" fill="none" stroke="#ff0000" d="M1.27522 0C-.31879 .31879-1.91284 .9564-3.8257 2.07224-1.91284 .6376-1.91284-.6376-3.8257-2.07224-1.91284-.9564-.31879-.31879 1.27522 0Z"/>
<use data-text="y" xlink:href="#font_1_2" transform="matrix(9.962899,0,0,-9.962799,171.37175,16.288056)" fill="#ff0000"/>
<use data-text="=" xlink:href="#font_2_7" transform="matrix(9.962899,0,0,-9.962799,179.381,16.288056)" fill="#ff0000"/>
<use data-text="x" xlink:href="#font_1_1" transform="matrix(9.962899,0,0,-9.962799,189.89731,16.288056)" fill="#ff0000"/>
<use data-text="4" xlink:href="#font_3_3" transform="matrix(6.9740097,0,0,-6.97394,195.59149,12.671982)" fill="#ff0000"/>
<use data-text="/" xlink:href="#font_4_1" transform="matrix(6.9740097,0,0,-6.97394,199.5626,12.671982)" fill="#ff0000"/>
<use data-text="3" xlink:href="#font_3_2" transform="matrix(6.9740097,0,0,-6.97394,203.64473,12.671982)" fill="#ff0000"/>
<path transform="matrix(1.00003,0,0,-1.00002,16.197098,192.15459)" stroke-width="1.19553" stroke-linecap="butt" stroke-miterlimit="10" stroke-linejoin="miter" fill="none" stroke="#0000ff" d="M0 0C0 0 1.48505 .20554 2.0554 .33841 2.62576 .47127 3.54045 .76501 4.11082 .95763 4.68118 1.15024 5.59589 1.49078 6.16624 1.72661 6.73662 1.96242 7.6513 2.38179 8.22166 2.65726 8.79202 2.93272 9.70673 3.40349 10.2771 3.71196 10.84746 4.02046 11.76215 4.54213 12.3325 4.88062 12.90286 5.2191 13.81757 5.78587 14.38794 6.15152 14.9583 6.51714 15.87299 7.12517 16.44334 7.51584 17.01372 7.9065 17.9284 8.55261 18.49876 8.9671 19.06912 9.38159 19.98383 10.06609 20.5542 10.50323 21.12456 10.94037 22.03925 11.65958 22.6096 12.11775 23.17996 12.57593 24.09467 13.32697 24.66504 13.80544 25.2354 14.2839 26.15009 15.06828 26.72044 15.56631 27.29082 16.06435 28.20552 16.8781 28.77588 17.39493 29.34624 17.91176 30.26093 18.75606 30.8313 19.29129 31.40166 19.8265 32.31635 20.69965 32.8867 21.25253 33.45706 21.80539 34.37177 22.70634 34.94214 23.27605 35.5125 23.84572 36.42719 24.77222 36.99754 25.35847 37.56792 25.94472 38.48262 26.89922 39.05298 27.50137 39.62334 28.10355 40.53802 29.08093 41.1084 29.69852 41.67876 30.3161 42.59346 31.31903 43.16382 31.9525 43.73418 32.58597 44.64886 33.61575 45.21924 34.26408 45.7896 34.91241 46.7043 35.9632 47.27466 36.62524 47.84503 37.2873 48.75972 38.35847 49.33008 39.03572 49.90044 39.71297 50.81512 40.81532 51.3855 41.50641 51.95586 42.19748 52.87056 43.3133 53.44092 44.01653 54.01128 44.71977 54.92596 45.8559 55.49634 46.57494 56.0667 47.29399 56.9814 48.46605 57.55176 49.19899 58.12213 49.93195 59.03682 51.11331 59.60718 51.85757 60.17754 52.60184 61.09224 53.80591 61.66261 54.56313 62.23297 55.32034 63.14766 56.54543 63.71802 57.31512 64.28839 58.08485 65.20306 59.32903 65.77344 60.11075 66.3438 60.89246 67.2585 62.15526 67.82886 62.94917 68.39923 63.74309 69.31392 65.02686 69.88428 65.83275 70.45464 66.63866 71.36934 67.94029 71.93971 68.75761 72.51007 69.57494 73.42476 70.8938 73.99512 71.72348 74.56549 72.55313 75.4802 73.89624 76.05055 74.73734 76.62091 75.57841 77.5356 76.93433 78.10596 77.78546 78.67633 78.6366 79.59103 80.00966 80.16139 80.87173 80.73175 81.73383 81.64644 83.12476 82.21681 83.99876 82.78717 84.87276 83.70186 86.28639 84.27222 87.17094 84.84259 88.0555 85.7573 89.4781 86.32765 90.37401 86.89801 91.26988 87.8127 92.72066 88.38306 93.62793 88.95343 94.53522 89.86813 95.99606 90.43849 96.91301 91.00885 97.82997 91.92354 99.30995 92.49391 100.23674 93.06427 101.16353 93.97897 102.65636 94.54933 103.59267 95.1197 104.529 96.0344 106.03935 96.60475 106.9852 97.17511 107.93103 98.0898 109.45052 98.66016 110.40964 99.23053 111.36874 100.14523 112.92816 100.71559 113.89792 101.28595 114.86766 102.20064 116.4242 102.77101 117.39891 103.34137 118.37363 104.25607 119.93797 104.82643 120.923 105.3968 121.90802 106.3115 123.50395 106.88185 124.49821 107.45221 125.4925 108.36691 127.08522 108.93727 128.08902 109.50764 129.09282 110.42233 130.71324 110.99269 131.73302 111.56305 132.75278 112.47775 134.40886 113.04813 135.43878 113.61848 136.4687 114.53317 138.12105 115.10353 139.15598 115.6739 140.19089 116.5886 141.85439 117.15895 142.8978 117.72931 143.94123 118.64401 145.62343 119.21437 146.67624 119.78474 147.72905 120.69943 149.4242 121.26979 150.48581 121.84015 151.54743 122.75485 153.25624 123.32523 154.32756 123.89558 155.39888 124.81027 157.12673 125.38063 158.20722 125.951 159.28768 126.8657 161.02674 127.43607 162.11489 128.00643 163.20302 128.92111 164.9533 129.49149 166.0498 130.06185 167.14629 131.54689 170.01769 130.68657 168.35411"/>
<path transform="matrix(.4593538,-.88821777,-.8882267,-.45934922,146.88758,23.797104)" d="M1.27522 0C-.31879 .31879-1.91284 .9564-3.8257 2.07224-1.91284 .6376-1.91284-.6376-3.8257-2.07224-1.91284-.9564-.31879-.31879 1.27522 0Z" fill="#0000ff"/>
<path transform="matrix(.4593538,-.88821777,-.8882267,-.45934922,146.88758,23.797104)" stroke-width="1.19553" stroke-linecap="butt" stroke-linejoin="round" fill="none" stroke="#0000ff" d="M1.27522 0C-.31879 .31879-1.91284 .9564-3.8257 2.07224-1.91284 .6376-1.91284-.6376-3.8257-2.07224-1.91284-.9564-.31879-.31879 1.27522 0Z"/>
<use data-text="y" xlink:href="#font_1_2" transform="matrix(9.962899,0,0,-9.962799,118.037158,16.27806)" fill="#0000ff"/>
<use data-text="=" xlink:href="#font_2_7" transform="matrix(9.962899,0,0,-9.962799,126.0464,16.27806)" fill="#0000ff"/>
<use data-text="x" xlink:href="#font_1_1" transform="matrix(9.962899,0,0,-9.962799,136.56272,16.27806)" fill="#0000ff"/>
<use data-text="3" xlink:href="#font_3_2" transform="matrix(6.9740097,0,0,-6.97394,142.2569,12.661987)" fill="#0000ff"/>
<use data-text="/" xlink:href="#font_4_1" transform="matrix(6.9740097,0,0,-6.97394,146.22801,12.661987)" fill="#0000ff"/>
<use data-text="2" xlink:href="#font_3_1" transform="matrix(6.9740097,0,0,-6.97394,150.31014,12.661987)" fill="#0000ff"/>
<path transform="matrix(1.00003,0,0,-1.00002,16.197098,192.15459)" stroke-width=".3985" stroke-linecap="butt" stroke-miterlimit="10" stroke-linejoin="miter" fill="none" stroke="#929292" d="M0 0 170.08086 102.04953"/>
<path transform="matrix(1.00003,0,0,-1.00002,16.197098,192.15459)" d="M156.9748 102.2488H183.18692V110.46805H156.9748Z" fill="#ffffff"/>
<use data-text="y" xlink:href="#font_1_2" transform="matrix(9.962899,0,0,-9.962799,174.17284,86.97048)"/>
<use data-text="=" xlink:href="#font_2_7" transform="matrix(9.962899,0,0,-9.962799,182.18209,86.97048)"/>
<use data-text="x" xlink:href="#font_1_1" transform="matrix(9.962899,0,0,-9.962799,192.6984,86.97048)"/>
</svg>
