<svg xmlns="http://www.w3.org/2000/svg" xmlns:xlink="http://www.w3.org/1999/xlink" version="1.1" width="119" height="197" viewBox="0 0 119 197">
<defs>
<path id="font_1_1" d="M.33399964 .30233766C.33999635 .32835389 .36299134 .42037965 .43299867 .42037965 .43798829 .42037965 .46199037 .42037965 .48298646 .40734864 .45498658 .402359 .43499757 .37734986 .43499757 .35334779 .43499757 .33735658 .44599916 .31835938 .47299195 .31835938 .49499513 .31835938 .5269928 .3363495 .5269928 .37635804 .5269928 .42837525 .46798707 .4423828 .43399049 .4423828 .37599183 .4423828 .34098817 .38935853 .32899476 .36634828 .3039856 .43237306 .25 .4423828 .22099304 .4423828 .116989139 .4423828 .05999756 .3133545 .05999756 .28834535 .05999756 .27833558 .069992069 .27833558 .07199097 .27833558 .07998657 .27833558 .08299255 .28033448 .084991458 .28933717 .11898804 .39535523 .18499756 .42037965 .21899414 .42037965 .23799134 .42037965 .272995 .4113617 .272995 .35334779 .272995 .32235719 .2559967 .25532533 .21899414 .11528015 .20298767 .053268434 .16799927 .011245728 .12399292 .011245728 .117996219 .011245728 .09498596 .011245728 .07398987 .024276734 .09899902 .029266358 .12098694 .05027771 .12098694 .07827759 .12098694 .105270389 .09899902 .11328125 .083999637 .11328125 .053985597 .11328125 .0289917 .08728027 .0289917 .055267335 .0289917 .009246826 .07899475-.0107421879 .12298584-.0107421879 .18899536-.0107421879 .22499085 .059280397 .22799683 .0652771 .23999024 .028274537 .27598573-.0107421879 .33599855-.0107421879 .43899537-.0107421879 .49598695 .118270877 .49598695 .14328003 .49598695 .1532898 .4869995 .1532898 .48399354 .1532898 .47499085 .1532898 .47299195 .14929199 .47099305 .14228821 .43798829 .03527832 .36999513 .011245728 .33799745 .011245728 .29899598 .011245728 .2829895 .043273927 .2829895 .07727051 .2829895 .09927368 .2889862 .121276859 .2999878 .16529846L.33399964 .30233766Z"/>
<path id="font_1_2" d="M.48599244 .38136292C.48999024 .39537049 .48999024 .39736939 .48999024 .40437318 .48999024 .42237855 .47599793 .43138124 .46099855 .43138124 .45098878 .43138124 .43499757 .42536927 .42599488 .41036988 .42399598 .405365 .41600038 .37435914 .4119873 .35635377 .40499879 .33035279 .397995 .30334474 .3919983 .27633668L.34700013 .09628296C.34298707 .08126831 .2999878 .011245728 .23399353 .011245728 .18299866 .011245728 .17199707 .055267335 .17199707 .0922699 .17199707 .1382904 .18899536 .20030213 .22299195 .28833009 .23899842 .3293457 .24299622 .3403473 .24299622 .36035157 .24299622 .405365 .21099854 .4423828 .16099549 .4423828 .06599426 .4423828 .0289917 .29733277 .0289917 .28833009 .0289917 .27833558 .038986207 .27833558 .040985109 .27833558 .050994874 .27833558 .051986696 .28033448 .056991579 .29634095 .083999637 .3903656 .12399292 .42037965 .1579895 .42037965 .1659851 .42037965 .18299866 .42037965 .18299866 .3883667 .18299866 .36335755 .17298889 .3373413 .1659851 .31834413 .12599182 .21231079 .10798645 .1552887 .10798645 .10827637 .10798645 .019256592 .17098999-.0107421879 .22999573-.0107421879 .2689972-.0107421879 .30299378 .0062561037 .33099366 .03425598 .31799317-.017745972 .30599977-.06674194 .2659912-.11973572 .23999024-.15385437 .20199585-.18309021 .1559906-.18309021 .14199829-.18309021 .09700012-.18005371 .07998657-.14074707 .09599304-.14074707 .10899353-.14074707 .12298584-.1287384 .1329956-.11973572 .14299011-.10673523 .14299011-.08773804 .14299011-.056747438 .115997318-.052734376 .10598755-.052734376 .08299255-.052734376 .049987794-.068740848 .049987794-.11773682 .049987794-.16796875 .09399414-.20507813 .1559906-.20507813 .25898744-.20507813 .3619995-.11373901 .3899994-.00074768069L.48599244 .38136292Z"/>
<path id="font_2_1" d="M.6589966 .23046875C.6759949 .23046875 .69400027 .23046875 .69400027 .25045777 .69400027 .27046205 .6759949 .27046205 .6589966 .27046205H.117996219C.100997928 .27046205 .08299255 .27046205 .08299255 .25045777 .08299255 .23046875 .100997928 .23046875 .117996219 .23046875H.6589966Z"/>
<path id="font_3_1" d="M.1269989 .07699585 .23298645 .18003845C.3889923 .31811524 .44898988 .3721466 .44898988 .47216798 .44898988 .5860901 .35899354 .6660156 .23699951 .6660156 .12399292 .6660156 .049987794 .57411196 .049987794 .48516847 .049987794 .4291687 .099990848 .4291687 .102996829 .4291687 .11999512 .4291687 .15499878 .44117738 .15499878 .48217774 .15499878 .5081787 .13699341 .5341797 .101989749 .5341797 .09399414 .5341797 .09199524 .5341797 .08898926 .5331726 .11199951 .59806826 .1659851 .63500979 .22399903 .63500979 .31498719 .63500979 .35798646 .5541382 .35798646 .47216798 .35798646 .39215089 .30799867 .31311036 .25299073 .25108338L.06098938 .036987306C.049987794 .025985718 .049987794 .023986817 .049987794 0H.42099L.44898988 .17404175H.42399598C.4189911 .14402771 .4119873 .1000061 .4019928 .084991458 .394989 .07699585 .32899476 .07699585 .30699159 .07699585H.1269989Z"/>
<path id="font_3_2" d="M.16299439 .4569702C.116989139 .486969 .11299133 .52098086 .11299133 .5379791 .11299133 .598999 .17799378 .64100649 .24899292 .64100649 .32199098 .64100649 .38598634 .58898928 .38598634 .51698306 .38598634 .45996095 .34700013 .4119568 .2869873 .37695313L.16299439 .4569702M.30899049 .36193849C.3809967 .3989563 .42999269 .45095826 .42999269 .51698306 .42999269 .6090088 .34098817 .6660156 .25 .6660156 .1499939 .6660156 .068984989 .59199526 .068984989 .49897767 .068984989 .4809723 .070999149 .43595887 .11299133 .38894654 .12399292 .37695313 .16099549 .35194398 .18598938 .33494569 .12799073 .30592347 .041992189 .24984741 .041992189 .15072632 .041992189 .04458618 .14399719-.022460938 .24899292-.022460938 .3619995-.022460938 .45700074 .06060791 .45700074 .16773987 .45700074 .20379639 .44599916 .24885559 .4079895 .2909088 .3889923 .31193543 .37298585 .3219452 .30899049 .36193849M.20899964 .3199463 .33198548 .24183655C.3600006 .2228241 .40699769 .19277954 .40699769 .13169861 .40699769 .05760193 .33198548 .0055389406 .25 .0055389406 .1639862 .0055389406 .09199524 .067611698 .09199524 .15072632 .09199524 .20880127 .12399292 .27288819 .20899964 .3199463Z"/>
<path id="font_4_85" d="M.33099366-.2400055C.33099366-.23701477 .33099366-.23500061 .31399537-.21800232 .18899536-.0920105 .15699768 .09700012 .15699768 .25 .15699768 .42399598 .19499207 .59799197 .31799317 .72299197 .33099366 .7350006 .33099366 .7369995 .33099366 .73999026 .33099366 .746994 .32699586 .75 .32099916 .75 .31098939 .75 .22099304 .6819916 .1619873 .5549927 .11099243 .44499208 .09899902 .33399964 .09899902 .25 .09899902 .17199707 .10998535 .050994874 .16499329-.06201172 .22499085-.18501282 .31098939-.25 .32099916-.25 .32699586-.25 .33099366-.24700928 .33099366-.2400055Z"/>
<path id="font_4_35" d="M.5209961 .2163086C.5209961 .34335328 .4229889 .4423828 .30899049 .4423828 .23098755 .4423828 .18798828 .39537049 .17199707 .3773651V.69433596L.027999878 .68333438V.6523285C.09799194 .6523285 .10598755 .6453247 .10598755 .596344V.00024414063H.1309967L.16699219 .06227112C.18199158 .039260866 .22399903-.0107421879 .2979889-.0107421879 .4169922-.0107421879 .5209961 .08728027 .5209961 .2163086M.43798829 .21731568C.43798829 .18029785 .43598939 .120285037 .40699769 .07527161 .38598634 .044265748 .34799195 .011245728 .2939911 .011245728 .24899292 .011260986 .21299744 .03526306 .18899536 .072265628 .1749878 .09326172 .1749878 .09625244 .1749878 .11425781V.32034303C.1749878 .3393402 .1749878 .3403473 .18598938 .35635377 .22499085 .41236878 .27999879 .42037965 .3039856 .42037965 .34899903 .42037965 .3849945 .3943634 .40899659 .35635377 .43499757 .31533814 .43798829 .25831605 .43798829 .21730042V.21731568Z"/>
<path id="font_4_86" d="M.2889862 .25C.2889862 .32798768 .27799989 .44898988 .22299195 .56199648 .16299439 .68499758 .07699585 .75 .066986087 .75 .06098938 .75 .056991579 .74598696 .056991579 .73999026 .056991579 .7369995 .056991579 .7350006 .07598877 .71699526 .17399597 .6179962 .23098755 .45899964 .23098755 .25 .23098755 .07899475 .19400025-.09700012 .069992069-.2230072 .056991579-.23500061 .056991579-.23701477 .056991579-.2400055 .056991579-.2460022 .06098938-.25 .066986087-.25 .07699585-.25 .16699219-.18200684 .22599793-.055007936 .2769928 .054992677 .2889862 .16600037 .2889862 .25Z"/>
</defs>
<path transform="matrix(1.00006,0,0,-1,51.506189,90.443)" stroke-width=".3985" stroke-linecap="butt" stroke-miterlimit="10" stroke-linejoin="miter" fill="none" stroke="#00aeef" d="M-49.89066-74.83597H49.89066M-49.89066-49.89066H49.89066M-49.89066-24.94531H49.89066M-49.89066 0H49.89066M-49.89066 24.94531H49.89066M-49.89066 49.89066H49.89066M-49.89066 74.83379H49.89066M-49.89066-74.83597V74.83597M-24.94531-74.83597V74.83597M0-74.83597V74.83597M24.94531-74.83597V74.83597M49.88628-74.83597V74.83597M49.89066 74.83597"/>
<path transform="matrix(1.00006,0,0,-1,51.506189,90.443)" stroke-width=".79701" stroke-linecap="butt" stroke-miterlimit="10" stroke-linejoin="miter" fill="none" stroke="#000000" d="M-49.89066 0H55.9397"/>
<path transform="matrix(1.00006,0,0,-1,107.44924,90.443)" d="M1.0361 0C-.25902 .25902-1.55415 .77707-3.1083 1.68365-1.55415 .51805-1.55415-.51805-3.1083-1.68365-1.55415-.77707-.25902-.25902 1.0361 0Z"/>
<path transform="matrix(1.00006,0,0,-1,107.44924,90.443)" stroke-width=".79701" stroke-linecap="butt" stroke-linejoin="round" fill="none" stroke="#000000" d="M1.0361 0C-.25902 .25902-1.55415 .77707-3.1083 1.68365-1.55415 .51805-1.55415-.51805-3.1083-1.68365-1.55415-.77707-.25902-.25902 1.0361 0Z"/>
<use data-text="x" xlink:href="#font_1_1" transform="matrix(9.963197,0,0,-9.9626,112.602848,92.588)"/>
<path transform="matrix(1.00006,0,0,-1,51.506189,90.443)" stroke-width=".79701" stroke-linecap="butt" stroke-miterlimit="10" stroke-linejoin="miter" fill="none" stroke="#000000" d="M0-74.83597V77.1432"/>
<path transform="matrix(0,-1,-1.00006,-0,51.506189,13.299797)" d="M1.0361 0C-.25902 .25902-1.55415 .77707-3.1083 1.68365-1.55415 .51805-1.55415-.51805-3.1083-1.68365-1.55415-.77707-.25902-.25902 1.0361 0Z"/>
<path transform="matrix(0,-1,-1.00006,-0,51.506189,13.299797)" stroke-width=".79701" stroke-linecap="butt" stroke-linejoin="round" fill="none" stroke="#000000" d="M1.0361 0C-.25902 .25902-1.55415 .77707-3.1083 1.68365-1.55415 .51805-1.55415-.51805-3.1083-1.68365-1.55415-.77707-.25902-.25902 1.0361 0Z"/>
<use data-text="y" xlink:href="#font_1_2" transform="matrix(9.963197,0,0,-9.9626,48.885034,6.2089998)"/>
<path transform="matrix(1.00006,0,0,-1,51.506189,90.443)" stroke-width=".3985" stroke-linecap="butt" stroke-miterlimit="10" stroke-linejoin="miter" fill="none" stroke="#000000" d="M-24.94531 .62366V-.62357"/>
<path transform="matrix(1.00006,0,0,-1,51.506189,90.443)" d="M-32.3067-12.0586H-17.583922V-2.8153706H-32.3067Z" fill="#ffffff"/>
<use data-text="&#x2212;" xlink:href="#font_2_1" transform="matrix(9.963197,0,0,-9.9626,20.194314,100.675)"/>
<use data-text="2" xlink:href="#font_3_1" transform="matrix(9.963197,0,0,-9.9626,27.942788,100.675)"/>
<path transform="matrix(1.00006,0,0,-1,51.506189,90.443)" stroke-width=".3985" stroke-linecap="butt" stroke-miterlimit="10" stroke-linejoin="miter" fill="none" stroke="#000000" d="M24.94531 .62366V-.62357"/>
<path transform="matrix(1.00006,0,0,-1,51.506189,90.443)" d="M21.45834-11.22836H28.43228V-2.81538H21.45834Z" fill="#ffffff"/>
<use data-text="2" xlink:href="#font_3_1" transform="matrix(9.963197,0,0,-9.9626,73.96253,100.675)"/>
<path transform="matrix(1.00006,0,0,-1,51.506189,90.443)" stroke-width=".3985" stroke-linecap="butt" stroke-miterlimit="10" stroke-linejoin="miter" fill="none" stroke="#000000" d="M1.24733-49.89066H-1.24713"/>
<path transform="matrix(1.00006,0,0,-1,51.506189,90.443)" d="M-18.16171-54.51227H-3.4389306V-45.269044H-18.16171Z" fill="#ffffff"/>
<use data-text="&#x2212;" xlink:href="#font_2_1" transform="matrix(9.963197,0,0,-9.9626,34.340158,143.129)"/>
<use data-text="8" xlink:href="#font_3_2" transform="matrix(9.963197,0,0,-9.9626,42.08863,143.129)"/>
<path transform="matrix(1.00006,0,0,-1,51.506189,90.443)" stroke-width=".3985" stroke-linecap="butt" stroke-miterlimit="10" stroke-linejoin="miter" fill="none" stroke="#000000" d="M1.24733 49.89066H-1.24713"/>
<path transform="matrix(1.00006,0,0,-1,51.506189,90.443)" d="M-10.41287 45.68416H-3.4389306V54.097139H-10.41287Z" fill="#ffffff"/>
<use data-text="8" xlink:href="#font_3_2" transform="matrix(9.963197,0,0,-9.9626,42.088624,43.763)"/>
<path transform="matrix(1.00006,0,0,-1,51.506189,90.443)" stroke-width="1.19553" stroke-linecap="butt" stroke-miterlimit="10" stroke-linejoin="miter" fill="none" stroke="#ff0000" d="M-22.4711-72.95784C-22.15117-69.851-22.15117-69.851-21.95467-68.02374-21.75815-66.19647-21.443-63.36266-21.24649-61.65132-21.04997-59.93999-20.73482-57.28885-20.53831-55.68962-20.34181-54.09041-20.02666-51.61618-19.83014-50.1253-19.63362-48.63443-19.31848-46.33078-19.12196-44.94447-18.92545-43.55818-18.61032-41.41934-18.4138-40.1338-18.21729-38.84828-17.90213-36.86786-17.70563-35.67923-17.50911-34.49062-17.19395-32.66258-16.99745-31.56703-16.80093-30.47151-16.4858-28.78955-16.28928-27.78333-16.09276-26.77711-15.77762-25.23561-15.58112-24.31497-15.3846-23.39436-15.06946-21.987-14.87294-21.14809-14.67642-20.3092-14.36127-19.0298-14.16476-18.26877-13.96826-17.50775-13.6531-16.35-13.45659-15.66313-13.26007-14.97626-12.94493-13.93477-12.74841-13.31824-12.5519-12.7017-12.23677-11.7696-12.04025-11.2196-11.84373-10.66957-11.52858-9.84137-11.33206-9.35411-11.13556-8.86682-10.8204-8.13603-10.62392-7.70767-10.4274-7.27931-10.11224-6.63998-9.91573-6.26677-9.71921-5.89354-9.40407-5.33963-9.20755-5.01772-9.01105-4.69579-8.6959-4.22102-8.49939-3.94661-8.30287-3.6722-7.98772-3.27058-7.7912-3.03993-7.5947-2.80927-7.27956-2.4749-7.08304-2.28418-6.88652-2.09344-6.57138-1.81993-6.37486-1.66527-6.17834-1.5106-5.86322-1.29182-5.6667-1.16948-5.47018-1.04715-5.15503-.87732-4.95851-.78352-4.76201-.68973-4.44685-.56258-4.25035-.49348-4.05385-.42438-3.7387-.33365-3.54218-.28546-3.34566-.23726-3.03052-.1772-2.834-.14615-2.6375-.1151-2.32236-.07939-2.12584-.06165-1.92932-.04391-1.61417-.02649-1.41765-.01825-1.22115-.01001-.906-.00479-.70949-.00227-.51297 .00023-.19783-.00058-.00131 0 .19518 .00058 .51031-.0004 .70682 .00208 .90334 .00458 1.21848 .00983 1.415 .01807 1.61151 .0263 1.92665 .04375 2.12317 .06145 2.31967 .07916 2.63483 .11476 2.83134 .14577 3.02785 .17676 3.343 .23679 3.53952 .2849 3.73604 .333 4.05116 .42352 4.24768 .49252 4.4442 .56152 4.75934 .6885 4.95586 .7822 5.15237 .87587 5.46751 1.04556 5.66403 1.16777 5.86053 1.29 6.17569 1.50845 6.37221 1.66298 6.56871 1.8175 6.88387 2.09088 7.08037 2.28151 7.27689 2.47214 7.59204 2.80635 7.78854 3.03688 7.98506 3.26741 8.3002 3.66876 8.49672 3.943 8.69322 4.21722 9.00838 4.69162 9.2049 5.01334 9.4014 5.33504 9.71655 5.88858 9.91307 6.26163 10.10959 6.63467 10.42471 7.2738 10.62123 7.70195 10.81775 8.1301 11.1329 8.8604 11.3294 9.34744 11.52592 9.83447 11.84106 10.6624 12.03758 11.21217 12.2341 11.76195 12.54924 12.69357 12.74576 13.30986 12.94228 13.92615 13.25742 14.96742 13.45392 15.654 13.65044 16.34058 13.96559 17.49762 14.1621 18.25832 14.35861 19.019 14.67377 20.29787 14.87027 21.13649 15.06677 21.9751 15.38193 23.3821 15.57845 24.30243 15.77496 25.22275 16.0901 26.7638 16.28662 27.76962 16.48314 28.77547 16.79826 30.45662 16.99478 31.55182 17.1913 32.64702 17.50645 34.47475 17.70296 35.66306 17.89948 36.85136 18.21463 38.83112 18.41112 40.11632 18.60764 41.40149 18.92279 43.53987 19.11931 44.92583 19.31583 46.31178 19.63097 48.61488 19.82748 50.10532 20.02399 51.59576 20.33913 54.06918 20.53564 55.66794 20.73216 57.26666 21.04732 59.917 21.24382 61.62793 21.44034 63.33884 21.75548 66.17216 21.952 67.99901 22.14851 69.82584 22.66017 74.79448 22.46835 72.93143"/>
<path transform="matrix(-.10237614,.99472,.99477967,.10237,29.03376,163.40082)" d="M1.27522 0C-.31879 .31879-1.91284 .9564-3.8257 2.07224-1.91284 .6376-1.91284-.6376-3.8257-2.07224-1.91284-.9564-.31879-.31879 1.27522 0Z" fill="#ff0000"/>
<path transform="matrix(-.10237614,.99472,.99477967,.10237,29.03376,163.40082)" stroke-width="1.19553" stroke-linecap="butt" stroke-linejoin="round" fill="none" stroke="#ff0000" d="M1.27522 0C-.31879 .31879-1.91284 .9564-3.8257 2.07224-1.91284 .6376-1.91284-.6376-3.8257-2.07224-1.91284-.9564-.31879-.31879 1.27522 0Z"/>
<path transform="matrix(.10242614,-.9947,-.9947597,-.10242,73.97588,17.511574)" d="M1.27522 0C-.31879 .31879-1.91284 .9564-3.8257 2.07224-1.91284 .6376-1.91284-.6376-3.8257-2.07224-1.91284-.9564-.31879-.31879 1.27522 0Z" fill="#ff0000"/>
<path transform="matrix(.10242614,-.9947,-.9947597,-.10242,73.97588,17.511574)" stroke-width="1.19553" stroke-linecap="butt" stroke-linejoin="round" fill="none" stroke="#ff0000" d="M1.27522 0C-.31879 .31879-1.91284 .9564-3.8257 2.07224-1.91284 .6376-1.91284-.6376-3.8257-2.07224-1.91284-.9564-.31879-.31879 1.27522 0Z"/>
<use data-text="(" xlink:href="#font_4_85" transform="matrix(9.963197,0,0,-9.9626,44.860788,192.715)"/>
<use data-text="b" xlink:href="#font_4_35" transform="matrix(9.963197,0,0,-9.9626,48.73649,192.715)"/>
<use data-text=")" xlink:href="#font_4_86" transform="matrix(9.963197,0,0,-9.9626,54.27601,192.715)"/>
</svg>
