<svg xmlns="http://www.w3.org/2000/svg" xmlns:xlink="http://www.w3.org/1999/xlink" version="1.1" width="252" height="280" viewBox="0 0 252 280">
<defs>
<path id="font_1_1" d="M.33399964 .30233766C.33999635 .32835389 .36299134 .42037965 .43299867 .42037965 .43798829 .42037965 .46199037 .42037965 .48298646 .40734864 .45498658 .402359 .43499757 .37734986 .43499757 .35334779 .43499757 .33735658 .44599916 .31835938 .47299195 .31835938 .49499513 .31835938 .5269928 .3363495 .5269928 .37635804 .5269928 .42837525 .46798707 .4423828 .43399049 .4423828 .37599183 .4423828 .34098817 .38935853 .32899476 .36634828 .3039856 .43237306 .25 .4423828 .22099304 .4423828 .116989139 .4423828 .05999756 .3133545 .05999756 .28834535 .05999756 .27833558 .069992069 .27833558 .07199097 .27833558 .07998657 .27833558 .08299255 .28033448 .084991458 .28933717 .11898804 .39535523 .18499756 .42037965 .21899414 .42037965 .23799134 .42037965 .272995 .4113617 .272995 .35334779 .272995 .32235719 .2559967 .25532533 .21899414 .11528015 .20298767 .053268434 .16799927 .011245728 .12399292 .011245728 .117996219 .011245728 .09498596 .011245728 .07398987 .024276734 .09899902 .029266358 .12098694 .05027771 .12098694 .07827759 .12098694 .105270389 .09899902 .11328125 .083999637 .11328125 .053985597 .11328125 .0289917 .08728027 .0289917 .055267335 .0289917 .009246826 .07899475-.0107421879 .12298584-.0107421879 .18899536-.0107421879 .22499085 .059280397 .22799683 .0652771 .23999024 .028274537 .27598573-.0107421879 .33599855-.0107421879 .43899537-.0107421879 .49598695 .118270877 .49598695 .14328003 .49598695 .1532898 .4869995 .1532898 .48399354 .1532898 .47499085 .1532898 .47299195 .14929199 .47099305 .14228821 .43798829 .03527832 .36999513 .011245728 .33799745 .011245728 .29899598 .011245728 .2829895 .043273927 .2829895 .07727051 .2829895 .09927368 .2889862 .121276859 .2999878 .16529846L.33399964 .30233766Z"/>
<path id="font_1_2" d="M.48599244 .38136292C.48999024 .39537049 .48999024 .39736939 .48999024 .40437318 .48999024 .42237855 .47599793 .43138124 .46099855 .43138124 .45098878 .43138124 .43499757 .42536927 .42599488 .41036988 .42399598 .405365 .41600038 .37435914 .4119873 .35635377 .40499879 .33035279 .397995 .30334474 .3919983 .27633668L.34700013 .09628296C.34298707 .08126831 .2999878 .011245728 .23399353 .011245728 .18299866 .011245728 .17199707 .055267335 .17199707 .0922699 .17199707 .1382904 .18899536 .20030213 .22299195 .28833009 .23899842 .3293457 .24299622 .3403473 .24299622 .36035157 .24299622 .405365 .21099854 .4423828 .16099549 .4423828 .06599426 .4423828 .0289917 .29733277 .0289917 .28833009 .0289917 .27833558 .038986207 .27833558 .040985109 .27833558 .050994874 .27833558 .051986696 .28033448 .056991579 .29634095 .083999637 .3903656 .12399292 .42037965 .1579895 .42037965 .1659851 .42037965 .18299866 .42037965 .18299866 .3883667 .18299866 .36335755 .17298889 .3373413 .1659851 .31834413 .12599182 .21231079 .10798645 .1552887 .10798645 .10827637 .10798645 .019256592 .17098999-.0107421879 .22999573-.0107421879 .2689972-.0107421879 .30299378 .0062561037 .33099366 .03425598 .31799317-.017745972 .30599977-.06674194 .2659912-.11973572 .23999024-.15385437 .20199585-.18309021 .1559906-.18309021 .14199829-.18309021 .09700012-.18005371 .07998657-.14074707 .09599304-.14074707 .10899353-.14074707 .12298584-.1287384 .1329956-.11973572 .14299011-.10673523 .14299011-.08773804 .14299011-.056747438 .115997318-.052734376 .10598755-.052734376 .08299255-.052734376 .049987794-.068740848 .049987794-.11773682 .049987794-.16796875 .09399414-.20507813 .1559906-.20507813 .25898744-.20507813 .3619995-.11373901 .3899994-.00074768069L.48599244 .38136292Z"/>
<path id="font_2_1" d="M.6589966 .23046875C.6759949 .23046875 .69400027 .23046875 .69400027 .25045777 .69400027 .27046205 .6759949 .27046205 .6589966 .27046205H.117996219C.100997928 .27046205 .08299255 .27046205 .08299255 .25045777 .08299255 .23046875 .100997928 .23046875 .117996219 .23046875H.6589966Z"/>
<path id="font_3_6" d="M.16299439 .4569702C.116989139 .486969 .11299133 .52098086 .11299133 .5379791 .11299133 .598999 .17799378 .64100649 .24899292 .64100649 .32199098 .64100649 .38598634 .58898928 .38598634 .51698306 .38598634 .45996095 .34700013 .4119568 .2869873 .37695313L.16299439 .4569702M.30899049 .36193849C.3809967 .3989563 .42999269 .45095826 .42999269 .51698306 .42999269 .6090088 .34098817 .6660156 .25 .6660156 .1499939 .6660156 .068984989 .59199526 .068984989 .49897767 .068984989 .4809723 .070999149 .43595887 .11299133 .38894654 .12399292 .37695313 .16099549 .35194398 .18598938 .33494569 .12799073 .30592347 .041992189 .24984741 .041992189 .15072632 .041992189 .04458618 .14399719-.022460938 .24899292-.022460938 .3619995-.022460938 .45700074 .06060791 .45700074 .16773987 .45700074 .20379639 .44599916 .24885559 .4079895 .2909088 .3889923 .31193543 .37298585 .3219452 .30899049 .36193849M.20899964 .3199463 .33198548 .24183655C.3600006 .2228241 .40699769 .19277954 .40699769 .13169861 .40699769 .05760193 .33198548 .0055389406 .25 .0055389406 .1639862 .0055389406 .09199524 .067611698 .09199524 .15072632 .09199524 .20880127 .12399292 .27288819 .20899964 .3199463Z"/>
<path id="font_3_5" d="M.13198853 .327713V.35173036C.13198853 .6047821 .2559967 .64100649 .30699159 .64100649 .33099366 .64100649 .37298585 .634964 .394989 .6007538 .37998963 .6007538 .33999635 .6007538 .33999635 .5557556 .33999635 .524765 .3639984 .5097656 .38598634 .5097656 .4019928 .5097656 .43199159 .51875308 .43199159 .5577545 .43199159 .6178589 .3880005 .6660156 .30499269 .6660156 .1769867 .6660156 .041992189 .5367584 .041992189 .31570436 .041992189 .048553468 .1579895-.022460938 .25099183-.022460938 .3619995-.022460938 .45700074 .07156372 .45700074 .2036438 .45700074 .33070375 .36799623 .4267578 .25698854 .4267578 .18899536 .4267578 .1519928 .37573243 .13198853 .327713M.25099183 .0055389406C.18798828 .0055389406 .1579895 .06556702 .1519928 .080566409 .13398743 .127594 .13398743 .2076416 .13398743 .22564698 .13398743 .30369569 .1659851 .40374757 .2559967 .40374757 .27198792 .40374757 .31799317 .40374757 .34899903 .34172059 .36698915 .30470277 .36698915 .2536621 .36698915 .20463562 .36698915 .15661621 .36698915 .10658264 .34999085 .0705719 .31999208 .010528564 .27398683 .0055389406 .25099183 .0055389406Z"/>
<path id="font_3_4" d="M.2939911 .16503906V.07800293C.2939911 .041992189 .2919922 .0309906 .21798706 .0309906H.19699097V0C.23799134 .0029907227 .2899933 .0029907227 .33198548 .0029907227 .37399293 .0029907227 .4269867 .0029907227 .46798707 0V.0309906H.44699098C.37298585 .0309906 .37098695 .041992189 .37098695 .07800293V.16503906H.47099305V.19602967H.37098695V.65075686C.37098695 .67074587 .37098695 .6767578 .35499574 .6767578 .34599305 .6767578 .34298707 .6767578 .33499146 .66474917L.027999878 .19602967V.16503906H.2939911M.2999878 .19602967H.055999757L.2999878 .5688019V.19602967Z"/>
<path id="font_3_3" d="M.1269989 .07699585 .23298645 .18003845C.3889923 .31811524 .44898988 .3721466 .44898988 .47216798 .44898988 .5860901 .35899354 .6660156 .23699951 .6660156 .12399292 .6660156 .049987794 .57411196 .049987794 .48516847 .049987794 .4291687 .099990848 .4291687 .102996829 .4291687 .11999512 .4291687 .15499878 .44117738 .15499878 .48217774 .15499878 .5081787 .13699341 .5341797 .101989749 .5341797 .09399414 .5341797 .09199524 .5341797 .08898926 .5331726 .11199951 .59806826 .1659851 .63500979 .22399903 .63500979 .31498719 .63500979 .35798646 .5541382 .35798646 .47216798 .35798646 .39215089 .30799867 .31311036 .25299073 .25108338L.06098938 .036987306C.049987794 .025985718 .049987794 .023986817 .049987794 0H.42099L.44898988 .17404175H.42399598C.4189911 .14402771 .4119873 .1000061 .4019928 .084991458 .394989 .07699585 .32899476 .07699585 .30699159 .07699585H.1269989Z"/>
<path id="font_3_2" d="M.2939911 .64004519C.2939911 .66400149 .2939911 .6660156 .2709961 .6660156 .20899964 .60227969 .12098694 .60227969 .08898926 .60227969V.57128909C.10899353 .57128909 .16799927 .57128909 .21998596 .5972748V.07902527C.21998596 .042999269 .21699524 .0309906 .1269989 .0309906H.09498596V0C.12998963 .0029907227 .21699524 .0029907227 .25698854 .0029907227 .29699708 .0029907227 .38398744 .0029907227 .4189911 0V.0309906H.3869934C.29699708 .0309906 .2939911 .041992189 .2939911 .07902527V.64004519Z"/>
<path id="font_3_1" d="M.45999146 .31976319C.45999146 .39982606 .45498658 .47988893 .41999818 .5539398 .37399293 .65000918 .2919922 .6660156 .25 .6660156 .18998719 .6660156 .116989139 .64001467 .07598877 .54693606 .04399109 .47789 .038986207 .39982606 .038986207 .31976319 .038986207 .24472046 .042999269 .15464783 .083999637 .07859802 .1269989-.0024719239 .19999695-.022460938 .24899292-.022460938 .30299378-.022460938 .3789978-.0014648438 .4229889 .09359741 .45498658 .16265869 .45999146 .2407074 .45999146 .31976319M.24899292-.00047302247C.20999146-.00047302247 .15098572 .024551392 .1329956 .12062073 .12199402 .18066406 .12199402 .2727356 .12199402 .3317871 .12199402 .39582826 .12199402 .46188355 .12998963 .5159149 .14898682 .63500979 .22399903 .64401248 .24899292 .64401248 .28199769 .64401248 .34799195 .6259918 .36698915 .52693179 .3769989 .47088624 .3769989 .39482118 .3769989 .3317871 .3769989 .25672914 .3769989 .18867493 .3659973 .12461853 .35099793 .029556275 .2939911-.00047302247 .24899292-.00047302247Z"/>
</defs>
<path transform="matrix(1.00002,0,0,-1,119.96315,162.102)" stroke-width=".3985" stroke-linecap="butt" stroke-miterlimit="10" stroke-linejoin="miter" fill="none" stroke="#00aeef" d="M-113.38724-113.38724H113.38724M-113.38724-99.21382H113.38724M-113.38724-85.04042H113.38724M-113.38724-70.867H113.38724M-113.38724-56.69362H113.38724M-113.38724-42.5202H113.38724M-113.38724-28.3468H113.38724M-113.38724-14.17339H113.38724M-113.38724 0H113.38724M-113.38724 14.17339H113.38724M-113.38724 28.3468H113.38724M-113.38724 42.5202H113.38724M-113.38724 56.69362H113.38724M-113.38724 70.867H113.38724M-113.38724 85.04042H113.38724M-113.38724 99.21382H113.38724M-113.38724 113.38724H113.38724M-113.38724 127.56062H113.38724M-113.38724 141.72905H113.38724M-113.38724-113.38724V141.73404M-99.21382-113.38724V141.73404M-85.04042-113.38724V141.73404M-70.867-113.38724V141.73404M-56.69362-113.38724V141.73404M-42.5202-113.38724V141.73404M-28.3468-113.38724V141.73404M-14.17339-113.38724V141.73404M0-113.38724V141.73404M14.17339-113.38724V141.73404M28.3468-113.38724V141.73404M42.5202-113.38724V141.73404M56.69362-113.38724V141.73404M70.867-113.38724V141.73404M85.04042-113.38724V141.73404M99.21382-113.38724V141.73404M113.38225-113.38724V141.73404M113.38724 141.73404"/>
<path transform="matrix(1.00002,0,0,-1,119.96315,162.102)" stroke-width=".79701" stroke-linecap="butt" stroke-miterlimit="10" stroke-linejoin="miter" fill="none" stroke="#000000" d="M-113.38724 0H120.45674"/>
<path transform="matrix(1.00002,0,0,-1,240.4223,162.102)" d="M1.0361 0C-.25902 .25902-1.55415 .77707-3.1083 1.68365-1.55415 .51805-1.55415-.51805-3.1083-1.68365-1.55415-.77707-.25902-.25902 1.0361 0Z"/>
<path transform="matrix(1.00002,0,0,-1,240.4223,162.102)" stroke-width=".79701" stroke-linecap="butt" stroke-linejoin="round" fill="none" stroke="#000000" d="M1.0361 0C-.25902 .25902-1.55415 .77707-3.1083 1.68365-1.55415 .51805-1.55415-.51805-3.1083-1.68365-1.55415-.77707-.25902-.25902 1.0361 0Z"/>
<use data-text="x" xlink:href="#font_1_1" transform="matrix(9.962799,0,0,-9.9626,245.57567,164.24701)"/>
<path transform="matrix(1.00002,0,0,-1,119.96315,162.102)" stroke-width=".79701" stroke-linecap="butt" stroke-miterlimit="10" stroke-linejoin="miter" fill="none" stroke="#000000" d="M0-113.38724V148.80356"/>
<path transform="matrix(0,-1,-1.00002,-0,119.96315,13.298447)" d="M1.0361 0C-.25902 .25902-1.55415 .77707-3.1083 1.68365-1.55415 .51805-1.55415-.51805-3.1083-1.68365-1.55415-.77707-.25902-.25902 1.0361 0Z"/>
<path transform="matrix(0,-1,-1.00002,-0,119.96315,13.298447)" stroke-width=".79701" stroke-linecap="butt" stroke-linejoin="round" fill="none" stroke="#000000" d="M1.0361 0C-.25902 .25902-1.55415 .77707-3.1083 1.68365-1.55415 .51805-1.55415-.51805-3.1083-1.68365-1.55415-.77707-.25902-.25902 1.0361 0Z"/>
<use data-text="y" xlink:href="#font_1_2" transform="matrix(9.962799,0,0,-9.9626,117.342098,6.208008)"/>
<path transform="matrix(1.00002,0,0,-1,119.96315,162.102)" stroke-width=".79701" stroke-linecap="butt" stroke-miterlimit="10" stroke-linejoin="miter" fill="none" stroke="#000000" d="M-113.38724 1.4174V-1.41719"/>
<path transform="matrix(1.00002,0,0,-1,119.96315,162.102)" d="M-120.74863-13.05148H-106.02585V-3.8082505H-120.74863Z" fill="#ffffff"/>
<use data-text="&#x2212;" xlink:href="#font_2_1" transform="matrix(9.962799,0,0,-9.9626,.2087555,173.32701)"/>
<use data-text="8" xlink:href="#font_3_6" transform="matrix(9.962799,0,0,-9.9626,7.957901,173.32701)"/>
<path transform="matrix(1.00002,0,0,-1,119.96315,162.102)" stroke-width=".79701" stroke-linecap="butt" stroke-miterlimit="10" stroke-linejoin="miter" fill="none" stroke="#000000" d="M-85.04042 1.4174V-1.41719"/>
<path transform="matrix(1.00002,0,0,-1,119.96315,162.102)" d="M-92.40181-13.05148H-77.67903V-3.8082505H-92.40181Z" fill="#ffffff"/>
<use data-text="&#x2212;" xlink:href="#font_2_1" transform="matrix(9.962799,0,0,-9.9626,28.555329,173.32701)"/>
<use data-text="6" xlink:href="#font_3_5" transform="matrix(9.962799,0,0,-9.9626,36.304475,173.32701)"/>
<path transform="matrix(1.00002,0,0,-1,119.96315,162.102)" stroke-width=".79701" stroke-linecap="butt" stroke-miterlimit="10" stroke-linejoin="miter" fill="none" stroke="#000000" d="M-56.69362 1.4174V-1.41719"/>
<path transform="matrix(1.00002,0,0,-1,119.96315,162.102)" d="M-64.05501-13.05148H-49.33223V-3.8082505H-64.05501Z" fill="#ffffff"/>
<use data-text="&#x2212;" xlink:href="#font_2_1" transform="matrix(9.962799,0,0,-9.9626,56.902894,173.32701)"/>
<use data-text="4" xlink:href="#font_3_4" transform="matrix(9.962799,0,0,-9.9626,64.65204,173.32701)"/>
<path transform="matrix(1.00002,0,0,-1,119.96315,162.102)" stroke-width=".79701" stroke-linecap="butt" stroke-miterlimit="10" stroke-linejoin="miter" fill="none" stroke="#000000" d="M-28.3468 1.4174V-1.41719"/>
<path transform="matrix(1.00002,0,0,-1,119.96315,162.102)" d="M-35.70819-13.05148H-20.98541V-3.8082505H-35.70819Z" fill="#ffffff"/>
<use data-text="&#x2212;" xlink:href="#font_2_1" transform="matrix(9.962799,0,0,-9.9626,85.25046,173.32701)"/>
<use data-text="2" xlink:href="#font_3_3" transform="matrix(9.962799,0,0,-9.9626,92.9996,173.32701)"/>
<path transform="matrix(1.00002,0,0,-1,119.96315,162.102)" stroke-width=".79701" stroke-linecap="butt" stroke-miterlimit="10" stroke-linejoin="miter" fill="none" stroke="#000000" d="M28.3468 1.4174V-1.41719"/>
<path transform="matrix(1.00002,0,0,-1,119.96315,162.102)" d="M24.85983-12.22124H31.83377V-3.80826H24.85983Z" fill="#ffffff"/>
<use data-text="2" xlink:href="#font_3_3" transform="matrix(9.962799,0,0,-9.9626,145.81967,173.32701)"/>
<path transform="matrix(1.00002,0,0,-1,119.96315,162.102)" stroke-width=".79701" stroke-linecap="butt" stroke-miterlimit="10" stroke-linejoin="miter" fill="none" stroke="#000000" d="M56.69362 1.4174V-1.41719"/>
<path transform="matrix(1.00002,0,0,-1,119.96315,162.102)" d="M53.20665-12.22124H60.180589V-3.80826H53.20665Z" fill="#ffffff"/>
<use data-text="4" xlink:href="#font_3_4" transform="matrix(9.962799,0,0,-9.9626,174.16724,173.32701)"/>
<path transform="matrix(1.00002,0,0,-1,119.96315,162.102)" stroke-width=".79701" stroke-linecap="butt" stroke-miterlimit="10" stroke-linejoin="miter" fill="none" stroke="#000000" d="M85.04042 1.4174V-1.41719"/>
<path transform="matrix(1.00002,0,0,-1,119.96315,162.102)" d="M81.55345-12.22124H88.52739V-3.80826H81.55345Z" fill="#ffffff"/>
<use data-text="6" xlink:href="#font_3_5" transform="matrix(9.962799,0,0,-9.9626,202.5148,173.32701)"/>
<path transform="matrix(1.00002,0,0,-1,119.96315,162.102)" stroke-width=".79701" stroke-linecap="butt" stroke-miterlimit="10" stroke-linejoin="miter" fill="none" stroke="#000000" d="M113.38724 1.4174V-1.41719"/>
<path transform="matrix(1.00002,0,0,-1,119.96315,162.102)" d="M109.90027-12.22124H116.87421V-3.80826H109.90027Z" fill="#ffffff"/>
<use data-text="8" xlink:href="#font_3_6" transform="matrix(9.962799,0,0,-9.9626,230.86237,173.32701)"/>
<path transform="matrix(1.00002,0,0,-1,119.96315,162.102)" stroke-width=".79701" stroke-linecap="butt" stroke-miterlimit="10" stroke-linejoin="miter" fill="none" stroke="#000000" d="M1.4174-113.38724H-1.41719"/>
<path transform="matrix(1.00002,0,0,-1,119.96315,162.102)" d="M-18.53104-118.00885H-3.80826V-108.76562H-18.53104Z" fill="#ffffff"/>
<use data-text="&#x2212;" xlink:href="#font_2_1" transform="matrix(9.962799,0,0,-9.9626,102.427799,278.284)"/>
<use data-text="8" xlink:href="#font_3_6" transform="matrix(9.962799,0,0,-9.9626,110.17694,278.284)"/>
<path transform="matrix(1.00002,0,0,-1,119.96315,162.102)" stroke-width=".79701" stroke-linecap="butt" stroke-miterlimit="10" stroke-linejoin="miter" fill="none" stroke="#000000" d="M1.4174-85.04042H-1.41719"/>
<path transform="matrix(1.00002,0,0,-1,119.96315,162.102)" d="M-18.53104-89.66203H-3.80826V-80.4188H-18.53104Z" fill="#ffffff"/>
<use data-text="&#x2212;" xlink:href="#font_2_1" transform="matrix(9.962799,0,0,-9.9626,102.427799,249.938)"/>
<use data-text="6" xlink:href="#font_3_5" transform="matrix(9.962799,0,0,-9.9626,110.17694,249.938)"/>
<path transform="matrix(1.00002,0,0,-1,119.96315,162.102)" stroke-width=".79701" stroke-linecap="butt" stroke-miterlimit="10" stroke-linejoin="miter" fill="none" stroke="#000000" d="M1.4174-56.69362H-1.41719"/>
<path transform="matrix(1.00002,0,0,-1,119.96315,162.102)" d="M-18.53104-61.31523H-3.80826V-52.072004H-18.53104Z" fill="#ffffff"/>
<use data-text="&#x2212;" xlink:href="#font_2_1" transform="matrix(9.962799,0,0,-9.9626,102.427799,221.591)"/>
<use data-text="4" xlink:href="#font_3_4" transform="matrix(9.962799,0,0,-9.9626,110.17694,221.591)"/>
<path transform="matrix(1.00002,0,0,-1,119.96315,162.102)" stroke-width=".79701" stroke-linecap="butt" stroke-miterlimit="10" stroke-linejoin="miter" fill="none" stroke="#000000" d="M1.4174-28.3468H-1.41719"/>
<path transform="matrix(1.00002,0,0,-1,119.96315,162.102)" d="M-18.53104-32.96841H-3.80826V-23.725182H-18.53104Z" fill="#ffffff"/>
<use data-text="&#x2212;" xlink:href="#font_2_1" transform="matrix(9.962799,0,0,-9.9626,102.427799,193.244)"/>
<use data-text="2" xlink:href="#font_3_3" transform="matrix(9.962799,0,0,-9.9626,110.17694,193.244)"/>
<path transform="matrix(1.00002,0,0,-1,119.96315,162.102)" stroke-width=".79701" stroke-linecap="butt" stroke-miterlimit="10" stroke-linejoin="miter" fill="none" stroke="#000000" d="M1.4174 28.3468H-1.41719"/>
<path transform="matrix(1.00002,0,0,-1,119.96315,162.102)" d="M-10.7822 24.1403H-3.80826V32.55328H-10.7822Z" fill="#ffffff"/>
<use data-text="2" xlink:href="#font_3_3" transform="matrix(9.962799,0,0,-9.9626,110.176959,136.96501)"/>
<path transform="matrix(1.00002,0,0,-1,119.96315,162.102)" stroke-width=".79701" stroke-linecap="butt" stroke-miterlimit="10" stroke-linejoin="miter" fill="none" stroke="#000000" d="M1.4174 56.69362H-1.41719"/>
<path transform="matrix(1.00002,0,0,-1,119.96315,162.102)" d="M-10.7822 52.48712H-3.80826V60.9001H-10.7822Z" fill="#ffffff"/>
<use data-text="4" xlink:href="#font_3_4" transform="matrix(9.962799,0,0,-9.9626,110.176959,108.619)"/>
<path transform="matrix(1.00002,0,0,-1,119.96315,162.102)" stroke-width=".79701" stroke-linecap="butt" stroke-miterlimit="10" stroke-linejoin="miter" fill="none" stroke="#000000" d="M1.4174 85.04042H-1.41719"/>
<path transform="matrix(1.00002,0,0,-1,119.96315,162.102)" d="M-10.7822 80.83392H-3.80826V89.2469H-10.7822Z" fill="#ffffff"/>
<use data-text="6" xlink:href="#font_3_5" transform="matrix(9.962799,0,0,-9.9626,110.176959,80.272)"/>
<path transform="matrix(1.00002,0,0,-1,119.96315,162.102)" stroke-width=".79701" stroke-linecap="butt" stroke-miterlimit="10" stroke-linejoin="miter" fill="none" stroke="#000000" d="M1.4174 113.38724H-1.41719"/>
<path transform="matrix(1.00002,0,0,-1,119.96315,162.102)" d="M-10.7822 109.18074H-3.80826V117.59372H-10.7822Z" fill="#ffffff"/>
<use data-text="8" xlink:href="#font_3_6" transform="matrix(9.962799,0,0,-9.9626,110.176959,51.925004)"/>
<path transform="matrix(1.00002,0,0,-1,119.96315,162.102)" stroke-width=".79701" stroke-linecap="butt" stroke-miterlimit="10" stroke-linejoin="miter" fill="none" stroke="#000000" d="M1.4174 141.73404H-1.41719"/>
<path transform="matrix(1.00002,0,0,-1,119.96315,162.102)" d="M-15.76361 137.52754H-3.8082696V145.94052H-15.76361Z" fill="#ffffff"/>
<use data-text="1" xlink:href="#font_3_2" transform="matrix(9.962799,0,0,-9.9626,105.195858,23.578003)"/>
<use data-text="0" xlink:href="#font_3_1" transform="matrix(9.962799,0,0,-9.9626,110.17724,23.578003)"/>
<path transform="matrix(1.00002,0,0,-1,119.96315,162.102)" stroke-width="1.19553" stroke-linecap="butt" stroke-miterlimit="10" stroke-linejoin="miter" fill="none" stroke="#ff0000" d="M-82.32483 139.88814C-80.77852 130.95854-80.77852 130.95854-80.06189 126.91054-79.34528 122.8625-78.19604 116.4757-77.47943 112.55827-76.7628 108.64084-75.61359 102.46329-74.89696 98.67638-74.18034 94.88948-73.03111 88.92122-72.3145 85.2649-71.59787 81.6086-70.44865 75.84995-69.73203 72.32422-69.01541 68.79851-67.86618 63.24913-67.14957 59.85394-66.43294 56.45876-65.28372 51.11865-64.5671 47.85403-63.85048 44.58945-62.70125 39.45897-61.98463 36.32495-61.268 33.19095-60.11879 28.26971-59.40216 25.26625-58.68555 22.26282-57.5363 17.55103-56.81969 14.67816-56.10306 11.8053-54.95384 7.30296-54.23721 4.56067-53.5206 1.81836-52.37137-2.47467-51.65475-5.08643-50.93813-7.69815-49.78891-11.78178-49.07228-14.26292-48.35567-16.74408-47.20644-20.61824-46.48982-22.96883-45.7732-25.31941-44.62398-28.98436-43.90735-31.20436-43.19073-33.42435-42.0415-36.87962-41.32489-38.96907-40.60826-41.0585-39.45905-44.30472-38.74242-46.2636-38.0258-48.22247-36.87657-51.25903-36.15994-53.08733-35.44333-54.9156-34.2941-57.74294-33.57748-59.44066-32.86086-61.13838-31.71162-63.75624-30.995-65.32338-30.27838-66.89052-29.12915-69.29897-28.41254-70.73552-27.6959-72.17207-26.54669-74.37106-25.83006-75.67705-25.11345-76.98303-23.96422-78.97276-23.2476-80.1482-22.53098-81.32361-21.38176-83.10387-20.66513-84.14873-19.94852-85.19362-18.79929-86.76462-18.08267-87.6789-17.36604-88.59317-16.21683-89.95456-15.5002-90.73824-14.78358-91.52193-13.63435-92.67404-12.91774-93.3272-12.20111-93.98036-11.0519-94.9232-10.33527-95.44577-9.61865-95.96834-8.4694-96.70154-7.75279-97.09352-7.03616-97.48549-5.88695-98.00948-5.17032-98.27089-4.4537-98.5323-3.30447-98.84683-2.58786-98.97766-1.87123-99.10849-.72202-99.21356-.00539-99.21382 .7112-99.2141 1.86043-99.10988 2.57704-98.9796 3.29367-98.8493 4.44289-98.53566 5.15952-98.27478 5.87613-98.01392 7.02536-97.4908 7.74197-97.09937 8.4586-96.70793 9.60782-95.97556 10.32445-95.45355 11.04106-94.93156 12.19029-93.98973 12.9069-93.33714 13.62354-92.68456 14.77275-91.53331 15.48938-90.75014 16.206-89.96696 17.35524-88.60626 18.07185-87.69252 18.78848-86.77878 19.93771-85.20883 20.65433-84.16454 21.37094-83.12022 22.52017-81.3408 23.2368-80.16592 23.95341-78.99104 25.10265-77.00218 25.81926-75.69672 26.53589-74.39128 27.6851-72.19316 28.40173-70.75714 29.11835-69.32114 30.26758-66.91356 30.98419-65.34695 31.70082-63.78036 32.85004-61.16336 33.56667-59.46619 34.28328-57.76898 35.43251-54.94254 36.14912-53.11479 36.86575-51.28705 38.01497-48.25133 38.7316-46.29301 39.44821-44.3347 40.59746-41.08951 41.31407-39.00064 42.0307-36.91177 43.17992-33.45734 43.89655-31.23788 44.61316-29.01843 45.76239-25.35435 46.479-23.00429 47.19563-20.65425 48.34485-16.78094 49.06148-14.30034 49.77809-11.81973 50.92732-7.73695 51.64394-5.12578 52.36057-2.51462 53.50978 1.77737 54.22641 4.51915 54.94302 7.2609 56.09225 11.76256 56.80887 14.6349 57.5255 17.50726 58.67471 22.21819 59.39134 25.22107 60.10796 28.22394 61.25719 33.14412 61.9738 36.2776 62.69043 39.41106 63.83965 44.5409 64.55627 47.80495 65.27289 51.06902 66.42213 56.40807 67.13875 59.80269 67.85538 63.19731 69.0046 68.74585 69.72122 72.27103 70.43784 75.7962 71.58707 81.55402 72.30368 85.20976 73.02031 88.8655 74.16954 94.83275 74.88615 98.61908 75.60277 102.40541 76.752 108.58208 77.46863 112.49901 78.18524 116.41592 79.33447 122.80206 80.05109 126.84955 80.76772 130.89702 82.63356 141.67046 82.31396 139.825"/>
<path transform="matrix(-.17061341,-.9853,-.98531976,.17061,37.636674,22.213868)" d="M1.27522 0C-.31879 .31879-1.91284 .9564-3.8257 2.07224-1.91284 .6376-1.91284-.6376-3.8257-2.07224-1.91284-.9564-.31879-.31879 1.27522 0Z" fill="#ff0000"/>
<path transform="matrix(-.17061341,-.9853,-.98531976,.17061,37.636674,22.213868)" stroke-width="1.19553" stroke-linecap="butt" stroke-linejoin="round" fill="none" stroke="#ff0000" d="M1.27522 0C-.31879 .31879-1.91284 .9564-3.8257 2.07224-1.91284 .6376-1.91284-.6376-3.8257-2.07224-1.91284-.9564-.31879-.31879 1.27522 0Z"/>
<path transform="matrix(.17064342,-.9853,-.98531976,-.17064,202.27875,22.277009)" d="M1.27522 0C-.31879 .31879-1.91284 .9564-3.8257 2.07224-1.91284 .6376-1.91284-.6376-3.8257-2.07224-1.91284-.9564-.31879-.31879 1.27522 0Z" fill="#ff0000"/>
<path transform="matrix(.17064342,-.9853,-.98531976,-.17064,202.27875,22.277009)" stroke-width="1.19553" stroke-linecap="butt" stroke-linejoin="round" fill="none" stroke="#ff0000" d="M1.27522 0C-.31879 .31879-1.91284 .9564-3.8257 2.07224-1.91284 .6376-1.91284-.6376-3.8257-2.07224-1.91284-.9564-.31879-.31879 1.27522 0Z"/>
<path transform="matrix(1.00002,0,0,-1,119.96315,162.102)" stroke-width="1.59404" stroke-linecap="butt" stroke-miterlimit="10" stroke-linejoin="miter" fill="none" stroke="#009900" d="M-113.38724 113.38724H113.38724"/>
<path transform="matrix(1.00002,0,0,-1,119.96315,162.102)" stroke-width="1.59404" stroke-linecap="butt" stroke-dasharray="2.98883,2.98883" stroke-miterlimit="10" stroke-linejoin="miter" fill="none" stroke="#009900" d="M-77.63083 113.38724V2.31134"/>
<path transform="matrix(0,1,1.00002,0,42.330766,159.79067)" d="M1.51433 0C-.37857 .37857-2.27148 1.13573-4.54298 2.46077-2.27148 .75716-2.27148-.75716-4.54298-2.46077-2.27148-1.13573-.37857-.37857 1.51433 0Z" fill="#009900"/>
<path transform="matrix(0,1,1.00002,0,42.330766,159.79067)" stroke-width="1.59404" stroke-linecap="butt" stroke-linejoin="round" fill="none" stroke="#009900" d="M1.51433 0C-.37857 .37857-2.27148 1.13573-4.54298 2.46077-2.27148 .75716-2.27148-.75716-4.54298-2.46077-2.27148-1.13573-.37857-.37857 1.51433 0Z"/>
<path transform="matrix(1.00002,0,0,-1,119.96315,162.102)" stroke-width="1.59404" stroke-linecap="butt" stroke-dasharray="2.98883,2.98883" stroke-miterlimit="10" stroke-linejoin="miter" fill="none" stroke="#009900" d="M77.63083 113.38724V2.31134"/>
<path transform="matrix(0,1,1.00002,0,197.59554,159.79067)" d="M1.51433 0C-.37857 .37857-2.27148 1.13573-4.54298 2.46077-2.27148 .75716-2.27148-.75716-4.54298-2.46077-2.27148-1.13573-.37857-.37857 1.51433 0Z" fill="#009900"/>
<path transform="matrix(0,1,1.00002,0,197.59554,159.79067)" stroke-width="1.59404" stroke-linecap="butt" stroke-linejoin="round" fill="none" stroke="#009900" d="M1.51433 0C-.37857 .37857-2.27148 1.13573-4.54298 2.46077-2.27148 .75716-2.27148-.75716-4.54298-2.46077-2.27148-1.13573-.37857-.37857 1.51433 0Z"/>
<path transform="matrix(1.00002,0,0,-1,119.96315,162.102)" d="M-74.79619 113.38724C-74.79619 114.95277-76.06528 116.22186-77.63083 116.22186-79.19637 116.22186-80.46547 114.95277-80.46547 113.38724-80.46547 111.82169-79.19637 110.5526-77.63083 110.5526-76.06528 110.5526-74.79619 111.82169-74.79619 113.38724ZM-77.63083 113.38724" fill="#ff0000"/>
<path transform="matrix(1.00002,0,0,-1,119.96315,162.102)" stroke-width=".3985" stroke-linecap="butt" stroke-miterlimit="10" stroke-linejoin="miter" fill="none" stroke="#ff0000" d="M-74.79619 113.38724C-74.79619 114.95277-76.06528 116.22186-77.63083 116.22186-79.19637 116.22186-80.46547 114.95277-80.46547 113.38724-80.46547 111.82169-79.19637 110.5526-77.63083 110.5526-76.06528 110.5526-74.79619 111.82169-74.79619 113.38724ZM-77.63083 113.38724"/>
<path transform="matrix(1.00002,0,0,-1,119.96315,162.102)" d="M80.46547 113.38724C80.46547 114.95277 79.19637 116.22186 77.63083 116.22186 76.06528 116.22186 74.79619 114.95277 74.79619 113.38724 74.79619 111.82169 76.06528 110.5526 77.63083 110.5526 79.19637 110.5526 80.46547 111.82169 80.46547 113.38724ZM77.63083 113.38724" fill="#ff0000"/>
<path transform="matrix(1.00002,0,0,-1,119.96315,162.102)" stroke-width=".3985" stroke-linecap="butt" stroke-miterlimit="10" stroke-linejoin="miter" fill="none" stroke="#ff0000" d="M80.46547 113.38724C80.46547 114.95277 79.19637 116.22186 77.63083 116.22186 76.06528 116.22186 74.79619 114.95277 74.79619 113.38724 74.79619 111.82169 76.06528 110.5526 77.63083 110.5526 79.19637 110.5526 80.46547 111.82169 80.46547 113.38724ZM77.63083 113.38724"/>
</svg>
