<svg xmlns="http://www.w3.org/2000/svg" xmlns:xlink="http://www.w3.org/1999/xlink" version="1.1" width="191" height="121" viewBox="0 0 191 121">
<defs>
<path id="font_1_1" d="M.33399964 .30233766C.33999635 .32835389 .36299134 .42037965 .43299867 .42037965 .43798829 .42037965 .46199037 .42037965 .48298646 .40734864 .45498658 .402359 .43499757 .37734986 .43499757 .35334779 .43499757 .33735658 .44599916 .31835938 .47299195 .31835938 .49499513 .31835938 .5269928 .3363495 .5269928 .37635804 .5269928 .42837525 .46798707 .4423828 .43399049 .4423828 .37599183 .4423828 .34098817 .38935853 .32899476 .36634828 .3039856 .43237306 .25 .4423828 .22099304 .4423828 .116989139 .4423828 .05999756 .3133545 .05999756 .28834535 .05999756 .27833558 .069992069 .27833558 .07199097 .27833558 .07998657 .27833558 .08299255 .28033448 .084991458 .28933717 .11898804 .39535523 .18499756 .42037965 .21899414 .42037965 .23799134 .42037965 .272995 .4113617 .272995 .35334779 .272995 .32235719 .2559967 .25532533 .21899414 .11528015 .20298767 .053268434 .16799927 .011245728 .12399292 .011245728 .117996219 .011245728 .09498596 .011245728 .07398987 .024276734 .09899902 .029266358 .12098694 .05027771 .12098694 .07827759 .12098694 .105270389 .09899902 .11328125 .083999637 .11328125 .053985597 .11328125 .0289917 .08728027 .0289917 .055267335 .0289917 .009246826 .07899475-.0107421879 .12298584-.0107421879 .18899536-.0107421879 .22499085 .059280397 .22799683 .0652771 .23999024 .028274537 .27598573-.0107421879 .33599855-.0107421879 .43899537-.0107421879 .49598695 .118270877 .49598695 .14328003 .49598695 .1532898 .4869995 .1532898 .48399354 .1532898 .47499085 .1532898 .47299195 .14929199 .47099305 .14228821 .43798829 .03527832 .36999513 .011245728 .33799745 .011245728 .29899598 .011245728 .2829895 .043273927 .2829895 .07727051 .2829895 .09927368 .2889862 .121276859 .2999878 .16529846L.33399964 .30233766Z"/>
<path id="font_1_2" d="M.48599244 .38136292C.48999024 .39537049 .48999024 .39736939 .48999024 .40437318 .48999024 .42237855 .47599793 .43138124 .46099855 .43138124 .45098878 .43138124 .43499757 .42536927 .42599488 .41036988 .42399598 .405365 .41600038 .37435914 .4119873 .35635377 .40499879 .33035279 .397995 .30334474 .3919983 .27633668L.34700013 .09628296C.34298707 .08126831 .2999878 .011245728 .23399353 .011245728 .18299866 .011245728 .17199707 .055267335 .17199707 .0922699 .17199707 .1382904 .18899536 .20030213 .22299195 .28833009 .23899842 .3293457 .24299622 .3403473 .24299622 .36035157 .24299622 .405365 .21099854 .4423828 .16099549 .4423828 .06599426 .4423828 .0289917 .29733277 .0289917 .28833009 .0289917 .27833558 .038986207 .27833558 .040985109 .27833558 .050994874 .27833558 .051986696 .28033448 .056991579 .29634095 .083999637 .3903656 .12399292 .42037965 .1579895 .42037965 .1659851 .42037965 .18299866 .42037965 .18299866 .3883667 .18299866 .36335755 .17298889 .3373413 .1659851 .31834413 .12599182 .21231079 .10798645 .1552887 .10798645 .10827637 .10798645 .019256592 .17098999-.0107421879 .22999573-.0107421879 .2689972-.0107421879 .30299378 .0062561037 .33099366 .03425598 .31799317-.017745972 .30599977-.06674194 .2659912-.11973572 .23999024-.15385437 .20199585-.18309021 .1559906-.18309021 .14199829-.18309021 .09700012-.18005371 .07998657-.14074707 .09599304-.14074707 .10899353-.14074707 .12298584-.1287384 .1329956-.11973572 .14299011-.10673523 .14299011-.08773804 .14299011-.056747438 .115997318-.052734376 .10598755-.052734376 .08299255-.052734376 .049987794-.068740848 .049987794-.11773682 .049987794-.16796875 .09399414-.20507813 .1559906-.20507813 .25898744-.20507813 .3619995-.11373901 .3899994-.00074768069L.48599244 .38136292Z"/>
</defs>
<path transform="matrix(1,0,0,-1,86.65199,48.717)" stroke-width=".3985" stroke-linecap="butt" stroke-miterlimit="10" stroke-linejoin="miter" fill="none" stroke="#cbcbcb" d="M-85.04042-70.867H85.04042M-85.04042-56.69362H85.04042M-85.04042-42.5202H85.04042M-85.04042-28.3468H85.04042M-85.04042-14.17339H85.04042M-85.04042 0H85.04042M-85.04042 14.17339H85.04042M-85.04042 28.34181H85.04042M-85.04042-70.867V28.3468M-70.867-70.867V28.3468M-56.69362-70.867V28.3468M-42.5202-70.867V28.3468M-28.3468-70.867V28.3468M-14.17339-70.867V28.3468M0-70.867V28.3468M14.17339-70.867V28.3468M28.3468-70.867V28.3468M42.5202-70.867V28.3468M56.69362-70.867V28.3468M70.867-70.867V28.3468M85.03543-70.867V28.3468M85.04042 28.3468"/>
<path transform="matrix(1,0,0,-1,86.65199,48.717)" stroke-width=".79701" stroke-linecap="butt" stroke-miterlimit="10" stroke-linejoin="miter" fill="none" stroke="#000000" d="M-85.04042 0H92.10994"/>
<path transform="matrix(1,0,0,-1,178.76194,48.717)" d="M1.0361 0C-.25902 .25902-1.55415 .77707-3.1083 1.68365-1.55415 .51805-1.55415-.51805-3.1083-1.68365-1.55415-.77707-.25902-.25902 1.0361 0Z"/>
<path transform="matrix(1,0,0,-1,178.76194,48.717)" stroke-width=".79701" stroke-linecap="butt" stroke-linejoin="round" fill="none" stroke="#000000" d="M1.0361 0C-.25902 .25902-1.55415 .77707-3.1083 1.68365-1.55415 .51805-1.55415-.51805-3.1083-1.68365-1.55415-.77707-.25902-.25902 1.0361 0Z"/>
<use data-text="x" xlink:href="#font_1_1" transform="matrix(9.9626,0,0,-9.9626,183.91599,50.862)"/>
<path transform="matrix(1,0,0,-1,86.65199,48.717)" stroke-width=".79701" stroke-linecap="butt" stroke-miterlimit="10" stroke-linejoin="miter" fill="none" stroke="#000000" d="M0-70.867V35.41632"/>
<path transform="matrix(0,-1,-1,-0,86.65199,13.300678)" d="M1.0361 0C-.25902 .25902-1.55415 .77707-3.1083 1.68365-1.55415 .51805-1.55415-.51805-3.1083-1.68365-1.55415-.77707-.25902-.25902 1.0361 0Z"/>
<path transform="matrix(0,-1,-1,-0,86.65199,13.300678)" stroke-width=".79701" stroke-linecap="butt" stroke-linejoin="round" fill="none" stroke="#000000" d="M1.0361 0C-.25902 .25902-1.55415 .77707-3.1083 1.68365-1.55415 .51805-1.55415-.51805-3.1083-1.68365-1.55415-.77707-.25902-.25902 1.0361 0Z"/>
<use data-text="y" xlink:href="#font_1_2" transform="matrix(9.9626,0,0,-9.9626,84.03099,6.209999)"/>
<path transform="matrix(1,0,0,-1,86.65199,48.717)" stroke-width="1.19553" stroke-linecap="butt" stroke-miterlimit="10" stroke-linejoin="miter" fill="none" stroke="#ff0000" d="M-49.6069-14.17339C-49.6069-14.17339-48.08684-18.56248-47.50304-19.63397-46.91922-20.70544-45.98299-21.34128-45.39917-21.89592-44.81537-22.45056-43.87912-23.18765-43.2953-23.63148-42.7115-24.0753-41.77525-24.71289-41.19144-25.09476-40.60764-25.47662-39.6714-26.04317-39.08757-26.38373-38.50377-26.72426-37.56752-27.2388-36.98372-27.5492-36.3999-27.85957-35.46365-28.3337-34.87985-28.6208-34.29604-28.90791-33.35979-29.35005-32.77599-29.61847-32.19217-29.88687-31.25594-30.30238-30.67212-30.55533-30.08832-30.80829-29.15207-31.2017-28.56825-31.4416-27.98445-31.6815-27.0482-32.05577-26.46439-32.28441-25.88058-32.51306-24.94434-32.87068-24.36052-33.08957-23.77672-33.30847-22.84047-33.65178-22.25667-33.86208-21.67285-34.0724-20.7366-34.4028-20.1528-34.6054-19.56898-34.80801-18.63274-35.1266-18.04893-35.32234-17.46512-35.51807-16.52887-35.8266-15.94505-36.01613-15.36125-36.20564-14.42502-36.50447-13.8412-36.6883-13.2574-36.8721-12.32115-37.16235-11.73734-37.34099-11.15353-37.51962-10.21729-37.80185-9.63347-37.97574-9.04967-38.14963-8.1134-38.4248-7.5296-38.59427-6.94579-38.76375-6.00955-39.03186-5.42575-39.19724-4.84193-39.3626-3.90569-39.62454-3.32188-39.78612-2.73807-39.94771-1.80182-40.20383-1.218-40.36183-.6342-40.51985 .30202-40.77031 .88583-40.92499 1.46964-41.07968 2.40587-41.32513 2.98969-41.4767 3.57349-41.62827 4.50975-41.86874 5.09355-42.01738 5.67737-42.166 6.61362-42.40205 7.19742-42.54788 7.78123-42.69371 8.71747-42.92526 9.30128-43.06845 9.8851-43.21162 10.82133-43.4392 11.40514-43.57991 11.98895-43.72066 12.9252-43.94438 13.50902-44.08275 14.09282-44.2211 15.02907-44.44106 15.61288-44.57713 16.19669-44.71323 17.13292-44.92958 17.71674-45.06352 18.30054-45.19746 19.2368-45.41066 19.8206-45.54257 20.40442-45.67447 21.34067-45.8843 21.92447-46.01424 22.50829-46.1442 23.44453-46.35115 24.02834-46.47922 24.61215-46.60728 25.54839-46.811 26.13219-46.93727 26.716-47.06354 27.65225-47.2647 28.23607-47.38928 28.81987-47.51387 29.75612-47.71233 30.33994-47.83522 30.92374-47.95813 31.85999-48.15381 32.4438-48.27512 33.0276-48.39644 33.96385-48.58978 34.54765-48.70961 35.13147-48.82942 36.06772-49.02034 36.65152-49.13869 37.23534-49.25702 38.17159-49.44566 38.75539-49.56256 39.3392-49.67946 40.27545-49.86572 40.85925-49.98126 41.44307-50.09682 42.3793-50.28119 42.96312-50.39542 43.54692-50.50966 44.48317-50.69167 45.06699-50.8046 45.65079-50.91754 46.58704-51.09775 47.17085-51.20946 47.75465-51.32117 48.69092-51.49927 49.27472-51.60977 49.85854-51.72029 50.79477-51.89659 51.37857-52.00598 51.96239-52.11534 52.89864-52.28984 53.48244-52.39807 54.06625-52.5063 55.0025-52.67894 55.5863-52.78606 56.17012-52.89317 57.10635-53.06404 57.69017-53.17015 58.27399-53.27626 59.21022-53.44566 59.79404-53.55078 60.37784-53.6559 61.31409-53.82367 61.8979-53.92773 62.4817-54.03178 63.41797-54.19771 64.00177-54.30081 64.58559-54.4039 65.52182-54.56866 66.10562-54.67084 66.68944-54.77301 67.62569-54.93599 68.20949-55.0372 68.7933-55.1384 69.72955-55.29994 70.31335-55.40031 70.89717-55.50069 71.83342-55.66112 72.41724-55.76062 73.00104-55.86012 73.93727-56.01883 74.52109-56.11746 75.10489-56.2161 76.04114-56.37369 76.62495-56.4715 77.20876-56.56932 78.14502-56.7255 78.72882-56.8225 79.31264-56.91951 80.24889-57.07446 80.83269-57.1707 81.4165-57.26692 82.35274-57.42064 82.93654-57.51607 83.52036-57.61153 85.04042-57.85864 85.04042-57.85864"/>
</svg>
