<?xml version="1.0" encoding="UTF-8"?>
<svg xmlns="http://www.w3.org/2000/svg" xmlns:xlink="http://www.w3.org/1999/xlink" width="159pt" height="135pt" viewBox="0 0 159 135" version="1.1">
<g id="surface1">
<path style="fill:none;stroke-width:0.3985;stroke-linecap:butt;stroke-linejoin:miter;stroke:rgb(0%,67.83905%,93.728638%);stroke-opacity:1;stroke-miterlimit:10;" d="M -0.000104357 0.00154641 L 136.066126 0.00154641 M -0.000104357 28.347502 L 136.066126 28.347502 M -0.000104357 56.693457 L 136.066126 56.693457 M -0.000104357 85.039413 L 136.066126 85.039413 M -0.000104357 113.377556 L 136.066126 113.377556 M -0.000104357 0.00154641 L -0.000104357 113.385368 M 45.354004 0.00154641 L 45.354004 113.385368 M 90.712018 0.00154641 L 90.712018 113.385368 M 136.050502 0.00154641 L 136.050502 113.385368 " transform="matrix(1.00003,0,0,-1.00006,3.812604,131.399984)"/>
<path style="fill:none;stroke-width:0.79701;stroke-linecap:butt;stroke-linejoin:miter;stroke:rgb(0%,0%,0%);stroke-opacity:1;stroke-miterlimit:10;" d="M -0.000104357 0.00154641 L 152.772656 0.00154641 " transform="matrix(1.00003,0,0,-1.00006,3.812604,131.399984)"/>
<path style="fill-rule:nonzero;fill:rgb(0%,0%,0%);fill-opacity:1;stroke-width:0.79701;stroke-linecap:butt;stroke-linejoin:round;stroke:rgb(0%,0%,0%);stroke-opacity:1;stroke-miterlimit:10;" d="M 1.035461 0.00154641 C -0.257469 0.259343 -1.554305 0.778844 -3.108946 1.685039 C -1.554305 0.51714 -1.554305 -0.517954 -3.108946 -1.681946 C -1.554305 -0.775751 -0.257469 -0.260157 1.035461 0.00154641 Z M 1.035461 0.00154641 " transform="matrix(1.00003,0,0,-1.00006,156.589508,131.399984)"/>
<path style="fill:none;stroke-width:0.79701;stroke-linecap:butt;stroke-linejoin:miter;stroke:rgb(0%,0%,0%);stroke-opacity:1;stroke-miterlimit:10;" d="M -0.000104357 0.00154641 L -0.000104357 128.962559 " transform="matrix(1.00003,0,0,-1.00006,3.812604,131.399984)"/>
<path style="fill-rule:nonzero;fill:rgb(0%,0%,0%);fill-opacity:1;stroke-width:0.79701;stroke-linecap:butt;stroke-linejoin:round;stroke:rgb(0%,0%,0%);stroke-opacity:1;stroke-miterlimit:10;" d="M 1.036793 0.000104357 C -0.260004 0.257909 -1.552895 0.777425 -3.10749 1.683648 C -1.552895 0.51962 -1.552895 -0.519411 -3.10749 -1.683439 C -1.552895 -0.777216 -0.260004 -0.2577 1.036793 0.000104357 Z M 1.036793 0.000104357 " transform="matrix(0,-1.00006,-1.00003,0,3.812604,2.431386)"/>
<path style="fill:none;stroke-width:1.19553;stroke-linecap:butt;stroke-linejoin:miter;stroke:rgb(0%,0%,100%);stroke-opacity:1;stroke-miterlimit:10;" d="M -0.000104357 0.00154641 C -0.000104357 0.00154641 1.023302 0.00154641 1.417822 0.00154641 C 1.808435 0.00154641 2.441229 0.00154641 2.831842 0.00154641 C 3.226361 0.00545242 3.855249 0.00935844 4.249768 0.00935844 C 4.644288 0.0132645 5.273175 0.0210765 5.667694 0.0288885 C 6.058308 0.0327945 6.691101 0.0445126 7.081714 0.0523246 C 7.476234 0.0640427 8.105121 0.0796667 8.499641 0.0913848 C 8.89416 0.107009 9.523047 0.130445 9.917567 0.146069 C 10.30818 0.165599 10.940974 0.196847 11.331587 0.220283 C 11.726106 0.243719 12.354994 0.286686 12.749513 0.314028 C 13.144033 0.345276 13.77292 0.396054 14.167439 0.431208 C 14.558053 0.466362 15.190846 0.528859 15.581459 0.575731 C 15.975979 0.618697 16.604866 0.692911 16.999386 0.747595 C 17.393905 0.798374 18.022792 0.888212 18.417312 0.946802 C 18.807925 1.009298 19.440719 1.114761 19.831332 1.185069 C 20.225851 1.255377 20.854739 1.376464 21.249258 1.45849 C 21.643778 1.536611 22.272665 1.677227 22.667184 1.770971 C 23.057798 1.86081 23.690591 2.01705 24.081204 2.122513 C 24.475724 2.224069 25.108517 2.403746 25.499131 2.51702 C 25.89365 2.634201 26.522537 2.833408 26.917057 2.962306 C 27.30767 3.091205 27.940464 3.309942 28.334983 3.454464 C 28.725596 3.598987 29.35839 3.84116 29.749003 4.001306 C 30.143523 4.157547 30.77241 4.423156 31.166929 4.598927 C 31.557543 4.774698 32.190336 5.063743 32.584856 5.255137 C 32.975469 5.446532 33.608262 5.762919 33.998876 5.969938 C 34.393395 6.176957 35.022282 6.524593 35.416802 6.747235 C 35.811321 6.973784 36.440209 7.348762 36.834728 7.590935 C 37.225341 7.833108 37.858135 8.239333 38.248748 8.501036 C 38.643268 8.762739 39.272155 9.200213 39.666674 9.481446 C 40.061194 9.762679 40.690081 10.231401 41.084601 10.532165 C 41.475214 10.836834 42.108007 11.336804 42.498621 11.661003 C 42.89314 11.985202 43.522027 12.520327 43.916547 12.867962 C 44.311066 13.211691 44.939954 13.785876 45.334473 14.153041 C 45.725086 14.520207 46.35788 15.129545 46.748493 15.520147 C 47.143013 15.910748 47.7719 16.559147 48.166419 16.97709 C 48.560939 17.391128 49.189826 18.078587 49.584346 18.516061 C 49.974959 18.95744 50.607752 19.683959 50.998366 20.148775 C 51.392885 20.617497 52.021772 21.383076 52.416292 21.875234 C 52.810811 22.367392 53.439699 23.179843 53.834218 23.699343 C 54.224831 24.218843 54.857625 25.074261 55.248238 25.621103 C 55.642758 26.167945 56.271645 27.066329 56.666164 27.640513 C 57.060684 28.218603 57.689571 29.163859 58.084091 29.765386 C 58.474704 30.370818 59.107497 31.362946 59.498111 31.999627 C 59.89263 32.632401 60.521517 33.675307 60.916037 34.33933 C 61.310556 35.003353 61.939444 36.093131 62.333963 36.792308 C 62.724576 37.487578 63.35737 38.628135 63.747983 39.35856 C 64.142503 40.085079 64.77139 41.276414 65.165909 42.038087 C 65.560429 42.79976 66.189316 44.045779 66.583836 44.842606 C 66.974449 45.635527 67.607242 46.93623 67.997856 47.764306 C 68.392375 48.592381 69.021263 49.947768 69.415782 50.810998 C 69.810301 51.674227 70.439189 53.088205 70.833708 53.986589 C 71.224321 54.884972 71.857115 56.35754 72.247728 57.291078 C 72.642248 58.228522 73.271135 59.755774 73.665654 60.728372 C 74.060174 61.700969 74.689061 63.290718 75.083581 64.29847 C 75.474194 65.310128 76.106987 66.958466 76.497601 68.009185 C 76.89212 69.055997 77.521008 70.770738 77.915527 71.85661 C 78.310046 72.946388 78.938934 74.71972 79.333453 75.848558 C 79.724066 76.977397 80.35686 78.81713 80.747473 79.985029 C 81.141993 81.152927 81.77088 83.059063 82.165399 84.269928 C 82.559919 85.480793 83.188806 87.453331 83.583326 88.703256 C 83.973939 89.957087 84.606732 91.996027 84.997346 93.292824 C 85.391865 94.585715 86.024659 96.694964 86.415272 98.034727 C 86.809791 99.370584 87.438679 101.554047 87.833198 102.932871 C 88.223811 104.3156 88.856605 106.569371 89.247218 107.995067 C 89.641738 109.424669 90.665144 113.221316 90.176878 111.41283 " transform="matrix(1.00003,0,0,-1.00006,3.812604,131.399984)"/>
<path style="fill-rule:nonzero;fill:rgb(0%,0%,100%);fill-opacity:1;stroke-width:1.19553;stroke-linecap:butt;stroke-linejoin:round;stroke:rgb(0%,0%,100%);stroke-opacity:1;stroke-miterlimit:10;" d="M 1.274145 0.00115319 C -0.320684 0.319797 -1.911819 0.954992 -3.827305 2.073205 C -1.911741 0.639457 -1.911133 -0.638784 -3.82642 -2.07328 C -1.914826 -0.955334 -0.318494 -0.318815 1.274145 0.00115319 Z M 1.274145 0.00115319 " transform="matrix(0.260208,-0.965588,-0.965559,-0.260216,93.99379,19.980599)"/>
<path style="fill:none;stroke-width:1.19553;stroke-linecap:butt;stroke-linejoin:miter;stroke:rgb(100%,0%,0%);stroke-opacity:1;stroke-miterlimit:10;" d="M -0.000104357 0.00154641 C -0.000104357 0.00154641 1.449071 0.0132645 2.003742 0.0288885 C 2.558413 0.0406066 3.452917 0.0796667 4.007588 0.110915 C 4.566165 0.142163 5.456763 0.200753 6.011434 0.247625 C 6.570011 0.294498 7.460609 0.38043 8.01528 0.442926 C 8.573857 0.505422 9.464455 0.614791 10.019126 0.692911 C 10.577703 0.767125 11.468302 0.903836 12.026879 0.99758 C 12.581549 1.087419 13.472148 1.247565 14.030725 1.356934 C 14.585396 1.462396 15.475994 1.649885 16.034571 1.770971 C 16.589242 1.895964 17.47984 2.102983 18.038417 2.239693 C 18.593088 2.38031 19.487592 2.614671 20.042263 2.767005 C 20.596934 2.91934 21.491438 3.181043 22.046109 3.349002 C 22.60078 3.51696 23.495285 3.8021 24.049955 3.985682 C 24.608532 4.169265 25.499131 4.47784 26.053802 4.677047 C 26.612379 4.876254 27.502977 5.208265 28.057648 5.423096 C 28.616225 5.637927 29.506823 5.99728 30.061494 6.227735 C 30.620071 6.45819 31.510669 6.84098 32.069246 7.083153 C 32.623917 7.329232 33.514515 7.735457 34.073092 7.99716 C 34.627763 8.258863 35.518361 8.688525 36.076938 8.965852 C 36.631609 9.243179 37.522207 9.700183 38.080784 9.989228 C 38.635455 10.28218 39.52996 10.762619 40.084631 11.071195 C 40.639301 11.375864 41.533806 11.883646 42.088477 12.203939 C 42.643148 12.528139 43.537652 13.055451 44.092323 13.395274 C 44.646994 13.735097 45.541498 14.285846 46.096169 14.641293 C 46.654746 14.992834 47.545344 15.574831 48.100015 15.941996 C 48.658592 16.309162 49.54919 16.914594 50.103861 17.297384 C 50.662438 17.680173 51.553037 18.309042 52.107707 18.707455 C 52.666284 19.109775 53.556883 19.76208 54.11546 20.176117 C 54.670131 20.590155 55.560729 21.269802 56.119306 21.699463 C 56.673977 22.129125 57.564575 22.832208 58.123152 23.277494 C 58.677823 23.722779 59.568421 24.449298 60.126998 24.910208 C 60.681669 25.371118 61.576173 26.121073 62.130844 26.597607 C 62.685515 27.074141 63.580019 27.847532 64.13469 28.33969 C 64.689361 28.831848 65.583866 29.632581 66.138536 30.140363 C 66.697113 30.648145 67.587712 31.472314 68.142383 31.995721 C 68.70096 32.515221 69.591558 33.366732 70.146229 33.901856 C 70.704806 34.440886 71.595404 35.315834 72.150075 35.870488 C 72.708652 36.421236 73.59925 37.31962 74.157827 37.889898 C 74.712498 38.45627 75.603096 39.381996 76.161673 39.963992 C 76.716344 40.549895 77.606942 41.495151 78.165519 42.096677 C 78.72019 42.694297 79.610789 43.666895 80.169366 44.284046 C 80.724036 44.89729 81.618541 45.893324 82.173212 46.526099 C 82.727883 47.154967 83.622387 48.174437 84.177058 48.822836 C 84.731729 49.467328 85.626233 50.514141 86.180904 51.174257 C 86.735575 51.834374 87.630079 52.904622 88.18475 53.580363 C 88.743327 54.256104 89.633925 55.353694 90.188596 56.045059 C 90.747173 56.736424 91.637772 57.85745 92.192442 58.564439 C 92.751019 59.271428 93.641618 60.41589 94.196289 61.138503 C 94.754865 61.85721 95.645464 63.029015 96.204041 63.767252 C 96.758712 64.505489 97.64931 65.696823 98.207887 66.450684 C 98.762558 67.204545 99.653156 68.423222 100.211733 69.192707 C 100.766404 69.958287 101.657002 71.204305 102.215579 71.985509 C 102.77025 72.770618 103.664754 74.040073 104.219425 74.8369 C 104.774096 75.637633 105.668601 76.930524 106.223271 77.742976 C 106.777942 78.555427 107.672447 79.87566 108.227118 80.703736 C 108.785695 81.535717 109.676293 82.87548 110.230964 83.723086 C 110.789541 84.566785 111.680139 85.93389 112.23481 86.793214 C 112.793387 87.652537 113.683985 89.046985 114.238656 89.921932 C 114.797233 90.79688 115.687831 92.214764 116.246408 93.105335 C 116.801079 93.995907 117.691677 95.437227 118.250254 96.343422 C 118.804925 97.249618 119.695524 98.714374 120.254101 99.636193 C 120.808771 100.558013 121.69937 102.046205 122.257947 102.983649 C 122.812618 103.921092 123.707122 105.436627 124.261793 106.389694 C 124.816464 107.338856 125.710968 108.881732 126.265639 109.846518 C 126.82031 110.81521 128.269485 113.361932 127.343732 111.733124 " transform="matrix(1.00003,0,0,-1.00006,3.812604,131.399984)"/>
<path style="fill-rule:nonzero;fill:rgb(100%,0%,0%);fill-opacity:1;stroke-width:1.19553;stroke-linecap:butt;stroke-linejoin:round;stroke:rgb(100%,0%,0%);stroke-opacity:1;stroke-miterlimit:10;" d="M 1.273555 0.00111274 C -0.317821 0.318771 -1.912336 0.958157 -3.826024 2.072143 C -1.914524 0.637895 -1.913087 -0.637362 -3.825833 -2.070494 C -1.911879 -0.955693 -0.318801 -0.319822 1.273555 0.00111274 Z M 1.273555 0.00111274 " transform="matrix(0.494125,-0.869392,-0.869366,-0.49414,131.160735,19.65855)"/>
</g>
</svg>
