<svg xmlns="http://www.w3.org/2000/svg" xmlns:xlink="http://www.w3.org/1999/xlink" version="1.1" width="187" height="205" viewBox="0 0 187 205">
<defs>
<path id="font_1_3" d="M.20599365 .3996582H.2999878C.31999208 .3996582 .32998658 .3996582 .32998658 .41966249 .32998658 .43066407 .31999208 .43066407 .3019867 .43066407H.21398926C.25 .5724945 .25498963 .59246829 .25498963 .59846499 .25498963 .61546328 .24299622 .62545779 .22599793 .62545779 .22299195 .62545779 .19499207 .62446597 .18598938 .58947756L.14698792 .43066407H.052993776C.032989503 .43066407 .022994996 .43066407 .022994996 .4116516 .022994996 .3996582 .0309906 .3996582 .050994874 .3996582H.13899231C.066986087 .11608887 .06298828 .099121097 .06298828 .08114624 .06298828 .02722168 .100997928-.0107421879 .15499878-.0107421879 .25698854-.0107421879 .31399537 .13505554 .31399537 .14305115 .31399537 .1530304 .30599977 .1530304 .3019867 .1530304 .29299928 .1530304 .2919922 .15003968 .2869873 .13905335 .24398804 .035217287 .19099427 .011245728 .15699768 .011245728 .13598633 .011245728 .12599182 .024230957 .12599182 .057174684 .12599182 .08114624 .12799073 .088134769 .13198853 .10510254L.20599365 .3996582Z"/>
<path id="font_1_2" d="M.5159912 .68333438C.5159912 .6843262 .5159912 .69433596 .5029907 .69433596 .48799134 .69433596 .3929901 .68533328 .37599183 .68333438 .36799623 .6823273 .3619995 .6773224 .3619995 .6643219 .3619995 .6523285 .37098695 .6523285 .38598634 .6523285 .43399049 .6523285 .43598939 .6453247 .43598939 .6353302L.43299867 .6153412 .37298585 .37835694C.35499574 .41537477 .32598878 .4423828 .2809906 .4423828 .1639862 .4423828 .039993287 .29533387 .039993287 .14929199 .039993287 .055267335 .09498596-.0107421879 .17298889-.0107421879 .19299317-.0107421879 .24299622-.0067443849 .30299378 .06427002 .31098939 .022247315 .34599305-.0107421879 .3939972-.0107421879 .42900086-.0107421879 .45199586 .012252808 .46798707 .044265748 .4850006 .08027649 .49798585 .14129639 .49798585 .14329529 .49798585 .1532898 .4889984 .1532898 .48599244 .1532898 .47599793 .1532898 .47499085 .14929199 .47200013 .13528443 .45498658 .07026672 .43699647 .011245728 .3959961 .011245728 .36898805 .011245728 .3659973 .037261964 .3659973 .057266237 .3659973 .08126831 .36799623 .088272098 .37199403 .105285648L.5159912 .68333438M.30799867 .119277957C.30299378 .10127258 .30299378 .09927368 .28799439 .08227539 .24398804 .027252198 .20298767 .011245728 .1749878 .011245728 .125 .011245728 .11099243 .06626892 .11099243 .105285648 .11099243 .1552887 .14299011 .27833558 .1659851 .32434083 .19699097 .38336183 .24198914 .42037965 .28199769 .42037965 .34700013 .42037965 .36099244 .3383484 .36099244 .33235169 .36099244 .32633973 .35899354 .32034303 .35798646 .31533814L.30799867 .119277957Z"/>
<path id="font_2_5" d="M.2939911 .64004519C.2939911 .66400149 .2939911 .6660156 .2709961 .6660156 .20899964 .60227969 .12098694 .60227969 .08898926 .60227969V.57128909C.10899353 .57128909 .16799927 .57128909 .21998596 .5972748V.07902527C.21998596 .042999269 .21699524 .0309906 .1269989 .0309906H.09498596V0C.12998963 .0029907227 .21699524 .0029907227 .25698854 .0029907227 .29699708 .0029907227 .38398744 .0029907227 .4189911 0V.0309906H.3869934C.29699708 .0309906 .2939911 .041992189 .2939911 .07902527V.64004519Z"/>
<path id="font_2_6" d="M.1269989 .07699585 .23298645 .18003845C.3889923 .31811524 .44898988 .3721466 .44898988 .47216798 .44898988 .5860901 .35899354 .6660156 .23699951 .6660156 .12399292 .6660156 .049987794 .57411196 .049987794 .48516847 .049987794 .4291687 .099990848 .4291687 .102996829 .4291687 .11999512 .4291687 .15499878 .44117738 .15499878 .48217774 .15499878 .5081787 .13699341 .5341797 .101989749 .5341797 .09399414 .5341797 .09199524 .5341797 .08898926 .5331726 .11199951 .59806826 .1659851 .63500979 .22399903 .63500979 .31498719 .63500979 .35798646 .5541382 .35798646 .47216798 .35798646 .39215089 .30799867 .31311036 .25299073 .25108338L.06098938 .036987306C.049987794 .025985718 .049987794 .023986817 .049987794 0H.42099L.44898988 .17404175H.42399598C.4189911 .14402771 .4119873 .1000061 .4019928 .084991458 .394989 .07699585 .32899476 .07699585 .30699159 .07699585H.1269989Z"/>
<path id="font_2_7" d="M.2899933 .35191346C.37199403 .37893678 .42999269 .4490509 .42999269 .52809146 .42999269 .6100464 .34199525 .6660156 .24598694 .6660156 .14498902 .6660156 .068984989 .60606387 .068984989 .53009036 .068984989 .49710084 .09098816 .47808839 .11999512 .47808839 .15098572 .47808839 .17098999 .50009158 .17098999 .5290985 .17098999 .57910159 .12399292 .57910159 .10899353 .57910159 .13999939 .62802127 .20599365 .64100649 .24198914 .64100649 .2829895 .64100649 .33799745 .6190338 .33799745 .5290985 .33799745 .51708987 .33599855 .45906068 .30999757 .4149933 .27999879 .36691285 .24598694 .36390687 .22099304 .36291505 .21299744 .36190797 .18899536 .35990907 .18199158 .35990907 .17399597 .35890199 .16699219 .35791017 .16699219 .3479004 .16699219 .33691407 .17399597 .33691407 .19099427 .33691407H.23498535C.31698609 .33691407 .35398866 .2686615 .35398866 .17037964 .35398866 .034469606 .2849884 .0055389406 .24099732 .0055389406 .19799805 .0055389406 .12298584 .022491456 .08799744 .08137512 .12298584 .07637024 .1539917 .09837341 .1539917 .1363678 .1539917 .17237854 .1269989 .19238281 .09799194 .19238281 .07398987 .19238281 .041992189 .17837525 .041992189 .1343689 .041992189 .043441774 .1349945-.022460938 .24398804-.022460938 .3659973-.022460938 .45700074 .06838989 .45700074 .17037964 .45700074 .252594 .3939972 .33088685 .2899933 .35191346Z"/>
<path id="font_2_8" d="M.2939911 .16503906V.07800293C.2939911 .041992189 .2919922 .0309906 .21798706 .0309906H.19699097V0C.23799134 .0029907227 .2899933 .0029907227 .33198548 .0029907227 .37399293 .0029907227 .4269867 .0029907227 .46798707 0V.0309906H.44699098C.37298585 .0309906 .37098695 .041992189 .37098695 .07800293V.16503906H.47099305V.19602967H.37098695V.65075686C.37098695 .67074587 .37098695 .6767578 .35499574 .6767578 .34599305 .6767578 .34298707 .6767578 .33499146 .66474917L.027999878 .19602967V.16503906H.2939911M.2999878 .19602967H.055999757L.2999878 .5688019V.19602967Z"/>
<path id="font_2_9" d="M.44898988 .20022583C.44898988 .3193512 .36698915 .41944886 .25898744 .41944886 .21099854 .41944886 .16799927 .40345765 .13198853 .36842347V.5637665C.1519928 .5577698 .18499756 .55078127 .21699524 .55078127 .33999635 .55078127 .4099884 .6417694 .4099884 .6547699 .4099884 .6607666 .40699769 .6657715 .3999939 .6657715 .39898683 .6657715 .39698792 .6657715 .3919983 .66278079 .37199403 .6537781 .32299806 .6337738 .2559967 .6337738 .21598816 .6337738 .16999817 .6407776 .12298584 .6617737 .114990238 .66477969 .11299133 .66477969 .11099243 .66477969 .100997928 .66477969 .100997928 .6567688 .100997928 .6407776V.34439088C.100997928 .32637025 .100997928 .31835938 .114990238 .31835938 .12199402 .31835938 .12399292 .32136537 .12799073 .32736207 .13899231 .3433838 .17599488 .39746095 .25698854 .39746095 .30899049 .39746095 .33399964 .35139466 .34199525 .33337403 .35798646 .29632569 .3600006 .25727845 .3600006 .20722962 .3600006 .17222595 .3600006 .11222839 .33599855 .07035828 .31199647 .031463624 .2749939 .0055389406 .22898865 .0055389406 .1559906 .0055389406 .09899902 .058380128 .08198547 .11723328 .084991458 .1162262 .08799744 .115234378 .09899902 .115234378 .13198853 .115234378 .14898682 .14022827 .14898682 .16423035 .14898682 .18823242 .13198853 .21322632 .09899902 .21322632 .084991458 .21322632 .049987794 .20622254 .049987794 .16023255 .049987794 .07434082 .11898804-.022460938 .23098755-.022460938 .34700013-.022460938 .44898988 .073349 .44898988 .20022583Z"/>
<path id="font_2_4" d="M.45999146 .31976319C.45999146 .39982606 .45498658 .47988893 .41999818 .5539398 .37399293 .65000918 .2919922 .6660156 .25 .6660156 .18998719 .6660156 .116989139 .64001467 .07598877 .54693606 .04399109 .47789 .038986207 .39982606 .038986207 .31976319 .038986207 .24472046 .042999269 .15464783 .083999637 .07859802 .1269989-.0024719239 .19999695-.022460938 .24899292-.022460938 .30299378-.022460938 .3789978-.0014648438 .4229889 .09359741 .45498658 .16265869 .45999146 .2407074 .45999146 .31976319M.24899292-.00047302247C.20999146-.00047302247 .15098572 .024551392 .1329956 .12062073 .12199402 .18066406 .12199402 .2727356 .12199402 .3317871 .12199402 .39582826 .12199402 .46188355 .12998963 .5159149 .14898682 .63500979 .22399903 .64401248 .24899292 .64401248 .28199769 .64401248 .34799195 .6259918 .36698915 .52693179 .3769989 .47088624 .3769989 .39482118 .3769989 .3317871 .3769989 .25672914 .3769989 .18867493 .3659973 .12461853 .35099793 .029556275 .2939911-.00047302247 .24899292-.00047302247Z"/>
<path id="font_2_2" d="M.33099366-.2400055C.33099366-.23701477 .33099366-.23500061 .31399537-.21800232 .18899536-.0920105 .15699768 .09700012 .15699768 .25 .15699768 .42399598 .19499207 .59799197 .31799317 .72299197 .33099366 .73498538 .33099366 .7369995 .33099366 .73999026 .33099366 .746994 .32699586 .75 .32099916 .75 .31098939 .75 .22099304 .6819916 .1619873 .5549927 .11099243 .44499208 .09899902 .33399964 .09899902 .25 .09899902 .17199707 .10998535 .050994874 .16499329-.06201172 .22499085-.18501282 .31098939-.25 .32099916-.25 .32699586-.25 .33099366-.24700928 .33099366-.2400055Z"/>
<path id="font_1_1" d="M.20298767 .0009918213C.20298767 .066986087 .17799378 .10598755 .13899231 .10598755 .10598755 .10598755 .085998538 .08099365 .085998538 .052993776 .085998538 .025985718 .10598755 0 .13899231 0 .15098572 0 .1639862 .0039978029 .17399597 .0129852299 .1769867 .01499939 .17799378 .015991211 .1789856 .015991211 .17999268 .015991211 .18099976 .01499939 .18099976 .0009918213 .18099976-.07316589 .1459961-.13328552 .11299133-.16635132 .101989749-.17736817 .101989749-.17936707 .101989749-.18237305 .101989749-.18936157 .10699463-.19335938 .11199951-.19335938 .12298584-.19335938 .20298767-.116256717 .20298767 .0009918213Z"/>
<path id="font_2_10" d="M.13198853 .327713V.35173036C.13198853 .6047821 .2559967 .64100649 .30699159 .64100649 .33099366 .64100649 .37298585 .634964 .394989 .6007538 .37998963 .6007538 .33999635 .6007538 .33999635 .5557556 .33999635 .524765 .3639984 .5097656 .38598634 .5097656 .4019928 .5097656 .43199159 .51875308 .43199159 .5577545 .43199159 .6178589 .3880005 .6660156 .30499269 .6660156 .1769867 .6660156 .041992189 .5367584 .041992189 .31570436 .041992189 .048553468 .1579895-.022460938 .25099183-.022460938 .3619995-.022460938 .45700074 .07156372 .45700074 .2036438 .45700074 .33070375 .36799623 .4267578 .25698854 .4267578 .18899536 .4267578 .1519928 .37573243 .13198853 .327713M.25099183 .0055389406C.18798828 .0055389406 .1579895 .06556702 .1519928 .080566409 .13398743 .127594 .13398743 .2076416 .13398743 .22564698 .13398743 .30369569 .1659851 .40374757 .2559967 .40374757 .27198792 .40374757 .31799317 .40374757 .34899903 .34172059 .36698915 .30470277 .36698915 .2536621 .36698915 .20463562 .36698915 .15661621 .36698915 .10658264 .34999085 .0705719 .31999208 .010528564 .27398683 .0055389406 .25099183 .0055389406Z"/>
<path id="font_2_3" d="M.2889862 .25C.2889862 .32798768 .27799989 .44898988 .22299195 .56199648 .16299439 .68499758 .07699585 .75 .066986087 .75 .06098938 .75 .056991579 .74598696 .056991579 .73999026 .056991579 .7369995 .056991579 .73498538 .07598877 .71699526 .17399597 .6179962 .23098755 .45899964 .23098755 .25 .23098755 .07899475 .19400025-.09700012 .069992069-.2230072 .056991579-.23500061 .056991579-.23701477 .056991579-.2400055 .056991579-.2460022 .06098938-.25 .066986087-.25 .07699585-.25 .16699219-.18200684 .22599793-.055007936 .2769928 .054992677 .2889862 .16600037 .2889862 .25Z"/>
<path id="font_2_11" d="M.16299439 .4569702C.116989139 .486969 .11299133 .52098086 .11299133 .5379791 .11299133 .598999 .17799378 .64100649 .24899292 .64100649 .32199098 .64100649 .38598634 .58898928 .38598634 .51698306 .38598634 .45996095 .34700013 .4119568 .2869873 .37695313L.16299439 .4569702M.30899049 .36193849C.3809967 .3989563 .42999269 .45095826 .42999269 .51698306 .42999269 .6090088 .34098817 .6660156 .25 .6660156 .1499939 .6660156 .068984989 .59199526 .068984989 .49897767 .068984989 .4809723 .070999149 .43595887 .11299133 .38894654 .12399292 .37695313 .16099549 .35194398 .18598938 .33494569 .12799073 .30592347 .041992189 .24984741 .041992189 .15072632 .041992189 .04458618 .14399719-.022460938 .24899292-.022460938 .3619995-.022460938 .45700074 .06060791 .45700074 .16773987 .45700074 .20379639 .44599916 .24885559 .4079895 .2909088 .3889923 .31193543 .37298585 .3219452 .30899049 .36193849M.20899964 .3199463 .33198548 .24183655C.3600006 .2228241 .40699769 .19277954 .40699769 .13169861 .40699769 .05760193 .33198548 .0055389406 .25 .0055389406 .1639862 .0055389406 .09199524 .067611698 .09199524 .15072632 .09199524 .20880127 .12399292 .27288819 .20899964 .3199463Z"/>
<path id="font_2_12" d="M.36698915 .31781007V.28579713C.36698915 .05178833 .2630005 .0055389406 .20498657 .0055389406 .18798828 .0055389406 .13398743 .007537842 .10699463 .041778566 .15098572 .041778566 .15899658 .07078552 .15899658 .08778381 .15899658 .118774417 .1349945 .13378906 .11299133 .13378906 .09700012 .13378906 .066986087 .12478638 .066986087 .08578491 .066986087 .018615723 .12098694-.022460938 .20599365-.022460938 .33499146-.022460938 .45700074 .11378479 .45700074 .32881166 .45700074 .5979767 .34199525 .6660156 .25299073 .6660156 .19799805 .6660156 .14898682 .64801028 .10598755 .60298159 .06498718 .5579529 .041992189 .5159302 .041992189 .44088746 .041992189 .31581117 .12998963 .21777344 .24198914 .21777344 .30299378 .21777344 .34399415 .25978089 .36698915 .31781007M.24299622 .24076844C.22698975 .24076844 .18099976 .24076844 .1499939 .3038025 .13198853 .3408203 .13198853 .39085389 .13198853 .43988038 .13198853 .49391175 .13198853 .54093936 .15299988 .5779724 .17999268 .6279907 .21798706 .64100649 .25299073 .64100649 .29899598 .64100649 .33198548 .60697939 .34899903 .5619507 .36099244 .52993777 .36499024 .4669037 .36499024 .42086793 .36499024 .3378296 .33099366 .24076844 .24299622 .24076844Z"/>
<path id="font_2_1" d="M.44198609 .69781497C.43499757 .7108154 .43299867 .7158203 .41600038 .7158203 .39898683 .7158203 .39698792 .7108154 .3899994 .69781497L.051986696 .019989014C.04699707 .010986328 .04699707 .008987427 .04699707 .0079956059 .04699707 0 .052993776 0 .068984989 0H.7630005C.7789917 0 .7849884 0 .7849884 .0079956059 .7849884 .008987427 .7849884 .010986328 .7799988 .019989014L.44198609 .69781497M.38398744 .61582949 .6529999 .07598877H.11399841L.38398744 .61582949Z"/>
</defs>
<path transform="matrix(1.00005,0,0,-1.00006,22.377419,190.15468)" stroke-width=".3985" stroke-linecap="butt" stroke-miterlimit="10" stroke-linejoin="miter" fill="none" stroke="#00aeef" d="M0 0H141.73404M0 17.00824H141.73404M0 34.0165H141.73404M0 51.02477H141.73404M0 68.03302H141.73404M0 85.04128H141.73404M0 102.04953H141.73404M0 119.0578H141.73404M0 136.06606H141.73404M0 153.07433H141.73404M0 170.0766H141.73404M0 0V170.08257M28.3468 0V170.08257M56.69362 0V170.08257M85.04042 0V170.08257M113.38724 0V170.08257M141.72409 0V170.08257M141.73404 170.08257"/>
<path transform="matrix(1.00005,0,0,-1.00006,22.377419,190.15468)" stroke-width=".79701" stroke-linecap="butt" stroke-miterlimit="10" stroke-linejoin="miter" fill="none" stroke="#000000" d="M0 0H154.47283"/>
<path transform="matrix(1.00005,0,0,-1.00006,176.85797,190.15468)" d="M1.0361 0C-.25902 .25902-1.55415 .77707-3.1083 1.68365-1.55415 .51805-1.55415-.51805-3.1083-1.68365-1.55415-.77707-.25902-.25902 1.0361 0Z"/>
<path transform="matrix(1.00005,0,0,-1.00006,176.85797,190.15468)" stroke-width=".79701" stroke-linecap="butt" stroke-linejoin="round" fill="none" stroke="#000000" d="M1.0361 0C-.25902 .25902-1.55415 .77707-3.1083 1.68365-1.55415 .51805-1.55415-.51805-3.1083-1.68365-1.55415-.77707-.25902-.25902 1.0361 0Z"/>
<use data-text="t" xlink:href="#font_1_3" transform="matrix(9.963098,0,0,-9.963197,182.01239,193.21886)"/>
<path transform="matrix(1.00005,0,0,-1.00006,22.377419,190.15468)" stroke-width=".79701" stroke-linecap="butt" stroke-miterlimit="10" stroke-linejoin="miter" fill="none" stroke="#000000" d="M0 0V177.15209"/>
<path transform="matrix(0,-1.00006,-1.00005,-0,22.377419,12.991974)" d="M1.0361 0C-.25902 .25902-1.55415 .77707-3.1083 1.68365-1.55415 .51805-1.55415-.51805-3.1083-1.68365-1.55415-.77707-.25902-.25902 1.0361 0Z"/>
<path transform="matrix(0,-1.00006,-1.00005,-0,22.377419,12.991974)" stroke-width=".79701" stroke-linecap="butt" stroke-linejoin="round" fill="none" stroke="#000000" d="M1.0361 0C-.25902 .25902-1.55415 .77707-3.1083 1.68365-1.55415 .51805-1.55415-.51805-3.1083-1.68365-1.55415-.77707-.25902-.25902 1.0361 0Z"/>
<use data-text="d" xlink:href="#font_1_2" transform="matrix(9.963098,0,0,-9.963197,19.784287,7.8377535)"/>
<path transform="matrix(1.00005,0,0,-1.00006,22.377419,190.15468)" stroke-width=".79701" stroke-linecap="butt" stroke-miterlimit="10" stroke-linejoin="miter" fill="none" stroke="#000000" d="M28.3468 2.55112V-2.55139"/>
<path transform="matrix(1.00005,0,0,-1.00006,22.377419,190.15468)" d="M24.85983-13.35544H31.83377V-4.94246H24.85983Z" fill="#ffffff"/>
<use data-text="1" xlink:href="#font_2_5" transform="matrix(9.963098,0,0,-9.963197,48.23471,202.51442)"/>
<path transform="matrix(1.00005,0,0,-1.00006,22.377419,190.15468)" stroke-width=".79701" stroke-linecap="butt" stroke-miterlimit="10" stroke-linejoin="miter" fill="none" stroke="#000000" d="M56.69362 2.55112V-2.55139"/>
<path transform="matrix(1.00005,0,0,-1.00006,22.377419,190.15468)" d="M53.20665-13.35544H60.180589V-4.94246H53.20665Z" fill="#ffffff"/>
<use data-text="2" xlink:href="#font_2_6" transform="matrix(9.963098,0,0,-9.963197,76.58313,202.51442)"/>
<path transform="matrix(1.00005,0,0,-1.00006,22.377419,190.15468)" stroke-width=".79701" stroke-linecap="butt" stroke-miterlimit="10" stroke-linejoin="miter" fill="none" stroke="#000000" d="M85.04042 2.55112V-2.55139"/>
<path transform="matrix(1.00005,0,0,-1.00006,22.377419,190.15468)" d="M81.55345-13.35544H88.52739V-4.94246H81.55345Z" fill="#ffffff"/>
<use data-text="3" xlink:href="#font_2_7" transform="matrix(9.963098,0,0,-9.963197,104.93154,202.51442)"/>
<path transform="matrix(1.00005,0,0,-1.00006,22.377419,190.15468)" stroke-width=".79701" stroke-linecap="butt" stroke-miterlimit="10" stroke-linejoin="miter" fill="none" stroke="#000000" d="M113.38724 2.55112V-2.55139"/>
<path transform="matrix(1.00005,0,0,-1.00006,22.377419,190.15468)" d="M109.90027-13.35544H116.87421V-4.94246H109.90027Z" fill="#ffffff"/>
<use data-text="4" xlink:href="#font_2_8" transform="matrix(9.963098,0,0,-9.963197,133.27997,202.51442)"/>
<path transform="matrix(1.00005,0,0,-1.00006,22.377419,190.15468)" stroke-width=".79701" stroke-linecap="butt" stroke-miterlimit="10" stroke-linejoin="miter" fill="none" stroke="#000000" d="M141.73404 2.55112V-2.55139"/>
<path transform="matrix(1.00005,0,0,-1.00006,22.377419,190.15468)" d="M138.24707-13.35544H145.22101V-4.94246H138.24707Z" fill="#ffffff"/>
<use data-text="5" xlink:href="#font_2_9" transform="matrix(9.963098,0,0,-9.963197,161.62738,202.51442)"/>
<path transform="matrix(1.00005,0,0,-1.00006,22.377419,190.15468)" stroke-width=".79701" stroke-linecap="butt" stroke-miterlimit="10" stroke-linejoin="miter" fill="none" stroke="#000000" d="M2.83484 34.0165H-2.83441"/>
<path transform="matrix(1.00005,0,0,-1.00006,22.377419,190.15468)" d="M-22.16222 29.81001H-5.2255V38.222993H-22.16222Z" fill="#ffffff"/>
<use data-text="1" xlink:href="#font_2_5" transform="matrix(9.963098,0,0,-9.963197,1.2103653,159.34683)"/>
<use data-text="0" xlink:href="#font_2_4" transform="matrix(9.963098,0,0,-9.963197,6.19191,159.34683)"/>
<use data-text="0" xlink:href="#font_2_4" transform="matrix(9.963098,0,0,-9.963197,11.173462,159.34683)"/>
<path transform="matrix(1.00005,0,0,-1.00006,22.377419,190.15468)" stroke-width=".79701" stroke-linecap="butt" stroke-miterlimit="10" stroke-linejoin="miter" fill="none" stroke="#000000" d="M2.83484 68.03302H-2.83441"/>
<path transform="matrix(1.00005,0,0,-1.00006,22.377419,190.15468)" d="M-22.16222 63.82654H-5.2255V72.239528H-22.16222Z" fill="#ffffff"/>
<use data-text="2" xlink:href="#font_2_6" transform="matrix(9.963098,0,0,-9.963197,1.2103653,125.3278)"/>
<use data-text="0" xlink:href="#font_2_4" transform="matrix(9.963098,0,0,-9.963197,6.19191,125.3278)"/>
<use data-text="0" xlink:href="#font_2_4" transform="matrix(9.963098,0,0,-9.963197,11.173462,125.3278)"/>
<path transform="matrix(1.00005,0,0,-1.00006,22.377419,190.15468)" stroke-width=".79701" stroke-linecap="butt" stroke-miterlimit="10" stroke-linejoin="miter" fill="none" stroke="#000000" d="M2.83484 102.04953H-2.83441"/>
<path transform="matrix(1.00005,0,0,-1.00006,22.377419,190.15468)" d="M-22.16222 97.84305H-5.2255V106.25603H-22.16222Z" fill="#ffffff"/>
<use data-text="3" xlink:href="#font_2_7" transform="matrix(9.963098,0,0,-9.963197,1.2103653,91.30975)"/>
<use data-text="0" xlink:href="#font_2_4" transform="matrix(9.963098,0,0,-9.963197,6.19191,91.30975)"/>
<use data-text="0" xlink:href="#font_2_4" transform="matrix(9.963098,0,0,-9.963197,11.173462,91.30975)"/>
<path transform="matrix(1.00005,0,0,-1.00006,22.377419,190.15468)" stroke-width=".79701" stroke-linecap="butt" stroke-miterlimit="10" stroke-linejoin="miter" fill="none" stroke="#000000" d="M2.83484 136.06606H-2.83441"/>
<path transform="matrix(1.00005,0,0,-1.00006,22.377419,190.15468)" d="M-22.16222 131.85958H-5.2255V140.27256H-22.16222Z" fill="#ffffff"/>
<use data-text="4" xlink:href="#font_2_8" transform="matrix(9.963098,0,0,-9.963197,1.2103653,57.29071)"/>
<use data-text="0" xlink:href="#font_2_4" transform="matrix(9.963098,0,0,-9.963197,6.19191,57.29071)"/>
<use data-text="0" xlink:href="#font_2_4" transform="matrix(9.963098,0,0,-9.963197,11.173462,57.29071)"/>
<path transform="matrix(1.00005,0,0,-1.00006,22.377419,190.15468)" stroke-width=".79701" stroke-linecap="butt" stroke-miterlimit="10" stroke-linejoin="miter" fill="none" stroke="#000000" d="M2.83484 170.08257H-2.83441"/>
<path transform="matrix(1.00005,0,0,-1.00006,22.377419,190.15468)" d="M-22.16222 165.87607H-5.2255V174.28905H-22.16222Z" fill="#ffffff"/>
<use data-text="5" xlink:href="#font_2_9" transform="matrix(9.963098,0,0,-9.963197,1.2103653,23.272675)"/>
<use data-text="0" xlink:href="#font_2_4" transform="matrix(9.963098,0,0,-9.963197,6.19191,23.272675)"/>
<use data-text="0" xlink:href="#font_2_4" transform="matrix(9.963098,0,0,-9.963197,11.173462,23.272675)"/>
<path transform="matrix(1.00005,0,0,-1.00006,22.377419,190.15468)" stroke-width=".79701" stroke-linecap="butt" stroke-miterlimit="10" stroke-linejoin="miter" fill="none" stroke="#ff0000" d="M0 44.90178 141.73404 141.8488"/>
<path transform="matrix(1.00005,0,0,-1.00006,22.377419,190.15468)" stroke-width="1.19553" stroke-linecap="butt" stroke-dasharray="2.98883,2.98883" stroke-miterlimit="10" stroke-linejoin="miter" fill="none" stroke="#0000ff" d="M28.3468 64.29118H113.38724V122.4594"/>
<path transform="matrix(1.00005,0,0,-1.00006,22.377419,190.15468)" d="M115.08797 122.4594C115.08797 123.39879 114.32654 124.16031 113.38724 124.16031 112.44794 124.16031 111.6865 123.39879 111.6865 122.4594 111.6865 121.52 112.44794 120.75847 113.38724 120.75847 114.32654 120.75847 115.08797 121.52 115.08797 122.4594ZM113.38724 122.4594" fill="#ff0000"/>
<path transform="matrix(1.00005,0,0,-1.00006,22.377419,190.15468)" stroke-width=".3985" stroke-linecap="butt" stroke-miterlimit="10" stroke-linejoin="miter" fill="none" stroke="#ff0000" d="M115.08797 122.4594C115.08797 123.39879 114.32654 124.16031 113.38724 124.16031 112.44794 124.16031 111.6865 123.39879 111.6865 122.4594 111.6865 121.52 112.44794 120.75847 113.38724 120.75847 114.32654 120.75847 115.08797 121.52 115.08797 122.4594ZM113.38724 122.4594"/>
<path transform="matrix(1.00005,0,0,-1.00006,22.377419,190.15468)" d="M79.09314 125.64748H113.18797V137.6028H79.09314Z" fill="#ffffff"/>
<use data-text="(" xlink:href="#font_2_2" transform="matrix(9.963098,0,0,-9.963197,102.47041,61.01294)" fill="#ff0000"/>
<use data-text="4" xlink:href="#font_2_8" transform="matrix(9.963098,0,0,-9.963197,106.33609,61.01294)" fill="#ff0000"/>
<use data-text="," xlink:href="#font_1_1" transform="matrix(9.963098,0,0,-9.963197,111.32686,61.01294)" fill="#ff0000"/>
<use data-text="3" xlink:href="#font_2_7" transform="matrix(9.963098,0,0,-9.963197,115.75507,61.01294)" fill="#ff0000"/>
<use data-text="6" xlink:href="#font_2_10" transform="matrix(9.963098,0,0,-9.963197,120.736629,61.01294)" fill="#ff0000"/>
<use data-text="0" xlink:href="#font_2_4" transform="matrix(9.963098,0,0,-9.963197,125.71818,61.01294)" fill="#ff0000"/>
<use data-text=")" xlink:href="#font_2_3" transform="matrix(9.963098,0,0,-9.963197,130.6997,61.01294)" fill="#ff0000"/>
<path transform="matrix(1.00005,0,0,-1.00006,22.377419,190.15468)" d="M30.04755 64.29118C30.04755 65.23058 29.2861 65.9921 28.3468 65.9921 27.4075 65.9921 26.64607 65.23058 26.64607 64.29118 26.64607 63.35179 27.4075 62.59026 28.3468 62.59026 29.2861 62.59026 30.04755 63.35179 30.04755 64.29118ZM28.3468 64.29118" fill="#ff0000"/>
<path transform="matrix(1.00005,0,0,-1.00006,22.377419,190.15468)" stroke-width=".3985" stroke-linecap="butt" stroke-miterlimit="10" stroke-linejoin="miter" fill="none" stroke="#ff0000" d="M30.04755 64.29118C30.04755 65.23058 29.2861 65.9921 28.3468 65.9921 27.4075 65.9921 26.64607 65.23058 26.64607 64.29118 26.64607 63.35179 27.4075 62.59026 28.3468 62.59026 29.2861 62.59026 30.04755 63.35179 30.04755 64.29118ZM28.3468 64.29118"/>
<path transform="matrix(1.00005,0,0,-1.00006,22.377419,190.15468)" d="M3.32916 72.46065H37.42399V84.41597H3.32916Z" fill="#ffffff"/>
<use data-text="(" xlink:href="#font_2_2" transform="matrix(9.963098,0,0,-9.963197,26.702637,114.202129)" fill="#ff0000"/>
<use data-text="1" xlink:href="#font_2_5" transform="matrix(9.963098,0,0,-9.963197,30.568314,114.202129)" fill="#ff0000"/>
<use data-text="," xlink:href="#font_1_1" transform="matrix(9.963098,0,0,-9.963197,35.559083,114.202129)" fill="#ff0000"/>
<use data-text="1" xlink:href="#font_2_5" transform="matrix(9.963098,0,0,-9.963197,39.987298,114.202129)" fill="#ff0000"/>
<use data-text="8" xlink:href="#font_2_11" transform="matrix(9.963098,0,0,-9.963197,44.96885,114.202129)" fill="#ff0000"/>
<use data-text="9" xlink:href="#font_2_12" transform="matrix(9.963098,0,0,-9.963197,49.9504,114.202129)" fill="#ff0000"/>
<use data-text=")" xlink:href="#font_2_3" transform="matrix(9.963098,0,0,-9.963197,54.93194,114.202129)" fill="#ff0000"/>
<path transform="matrix(1.00005,0,0,-1.00006,22.377419,190.15468)" stroke-width=".3985" stroke-linecap="butt" stroke-miterlimit="10" stroke-linejoin="miter" fill="none" stroke="#000000" d="M119.0565 122.4594C121.14871 121.41335 122.54347 118.97243 122.54347 115.48546V100.34923C122.54347 96.86226 123.93825 94.42134 126.03044 93.37529 123.93825 92.32924 122.54347 89.88832 122.54347 86.40135V71.26512C122.54347 67.77815 121.14871 65.33723 119.0565 64.29118"/>
<use data-text="&#x2206;" xlink:href="#font_2_1" transform="matrix(9.963098,0,0,-9.963197,149.94179,100.233287)"/>
<use data-text="d" xlink:href="#font_1_2" transform="matrix(9.963098,0,0,-9.963197,158.2442,100.233287)"/>
<path transform="matrix(1.00005,0,0,-1.00006,22.377419,190.15468)" stroke-width=".3985" stroke-linecap="butt" stroke-miterlimit="10" stroke-linejoin="miter" fill="none" stroke="#000000" d="M113.38724 60.88959C112.34119 58.79738 109.90027 57.40262 106.4133 57.40262H77.84096C74.35399 57.40262 71.91307 56.00786 70.86702 53.91565 69.82098 56.00786 67.38005 57.40262 63.89308 57.40262H35.32074C31.83377 57.40262 29.39285 58.79738 28.3468 60.88959"/>
<use data-text="&#x2206;" xlink:href="#font_2_1" transform="matrix(9.963098,0,0,-9.963197,87.29766,146.56406)"/>
<use data-text="t" xlink:href="#font_1_3" transform="matrix(9.963098,0,0,-9.963197,95.600078,146.56406)"/>
</svg>
