<svg xmlns="http://www.w3.org/2000/svg" xmlns:xlink="http://www.w3.org/1999/xlink" version="1.1" width="133" height="170" viewBox="0 0 133 170">
<defs>
<path id="font_1_1" d="M.33399964 .30233766C.33999635 .32835389 .36299134 .42037965 .43299867 .42037965 .43798829 .42037965 .46199037 .42037965 .48298646 .40734864 .45498658 .402359 .43499757 .37734986 .43499757 .35334779 .43499757 .33735658 .44599916 .31835938 .47299195 .31835938 .49499513 .31835938 .5269928 .3363495 .5269928 .37635804 .5269928 .42837525 .46798707 .4423828 .43399049 .4423828 .37599183 .4423828 .34098817 .38935853 .32899476 .36634828 .3039856 .43237306 .25 .4423828 .22099304 .4423828 .116989139 .4423828 .05999756 .3133545 .05999756 .28834535 .05999756 .27833558 .069992069 .27833558 .07199097 .27833558 .07998657 .27833558 .08299255 .28033448 .084991458 .28933717 .11898804 .39535523 .18499756 .42037965 .21899414 .42037965 .23799134 .42037965 .272995 .4113617 .272995 .35334779 .272995 .32235719 .2559967 .25532533 .21899414 .11528015 .20298767 .053268434 .16799927 .011245728 .12399292 .011245728 .117996219 .011245728 .09498596 .011245728 .07398987 .024276734 .09899902 .029266358 .12098694 .05027771 .12098694 .07827759 .12098694 .105270389 .09899902 .11328125 .083999637 .11328125 .053985597 .11328125 .0289917 .08728027 .0289917 .055267335 .0289917 .009246826 .07899475-.0107421879 .12298584-.0107421879 .18899536-.0107421879 .22499085 .059280397 .22799683 .0652771 .23999024 .028274537 .27598573-.0107421879 .33599855-.0107421879 .43899537-.0107421879 .49598695 .118270877 .49598695 .14328003 .49598695 .1532898 .4869995 .1532898 .48399354 .1532898 .47499085 .1532898 .47299195 .14929199 .47099305 .14228821 .43798829 .03527832 .36999513 .011245728 .33799745 .011245728 .29899598 .011245728 .2829895 .043273927 .2829895 .07727051 .2829895 .09927368 .2889862 .121276859 .2999878 .16529846L.33399964 .30233766Z"/>
<path id="font_1_2" d="M.48599244 .38136292C.48999024 .39537049 .48999024 .39736939 .48999024 .40437318 .48999024 .42237855 .47599793 .43138124 .46099855 .43138124 .45098878 .43138124 .43499757 .42536927 .42599488 .41036988 .42399598 .405365 .41600038 .37435914 .4119873 .35635377 .40499879 .33035279 .397995 .30334474 .3919983 .27633668L.34700013 .09628296C.34298707 .08126831 .2999878 .011245728 .23399353 .011245728 .18299866 .011245728 .17199707 .055267335 .17199707 .0922699 .17199707 .1382904 .18899536 .20030213 .22299195 .28833009 .23899842 .3293457 .24299622 .3403473 .24299622 .36035157 .24299622 .405365 .21099854 .4423828 .16099549 .4423828 .06599426 .4423828 .0289917 .29733277 .0289917 .28833009 .0289917 .27833558 .038986207 .27833558 .040985109 .27833558 .050994874 .27833558 .051986696 .28033448 .056991579 .29634095 .083999637 .3903656 .12399292 .42037965 .1579895 .42037965 .1659851 .42037965 .18299866 .42037965 .18299866 .3883667 .18299866 .36335755 .17298889 .3373413 .1659851 .31834413 .12599182 .21231079 .10798645 .1552887 .10798645 .10827637 .10798645 .019256592 .17098999-.0107421879 .22999573-.0107421879 .2689972-.0107421879 .30299378 .0062561037 .33099366 .03425598 .31799317-.017745972 .30599977-.06674194 .2659912-.11973572 .23999024-.15385437 .20199585-.18309021 .1559906-.18309021 .14199829-.18309021 .09700012-.18005371 .07998657-.14074707 .09599304-.14074707 .10899353-.14074707 .12298584-.1287384 .1329956-.11973572 .14299011-.10673523 .14299011-.08773804 .14299011-.056747438 .115997318-.052734376 .10598755-.052734376 .08299255-.052734376 .049987794-.068740848 .049987794-.11773682 .049987794-.16796875 .09399414-.20507813 .1559906-.20507813 .25898744-.20507813 .3619995-.11373901 .3899994-.00074768069L.48599244 .38136292Z"/>
<path id="font_2_3" d="M.44898988 .20022583C.44898988 .3193512 .36698915 .41944886 .25898744 .41944886 .21099854 .41944886 .16799927 .40345765 .13198853 .36842347V.5637665C.1519928 .5577698 .18499756 .55078127 .21699524 .55078127 .33999635 .55078127 .4099884 .6417694 .4099884 .6547699 .4099884 .6607666 .40699769 .6657715 .3999939 .6657715 .39898683 .6657715 .39698792 .6657715 .3919983 .66278079 .37199403 .6537781 .32299806 .6337738 .2559967 .6337738 .21598816 .6337738 .16999817 .6407776 .12298584 .6617737 .114990238 .66477969 .11299133 .66477969 .11099243 .66477969 .100997928 .66477969 .100997928 .6567688 .100997928 .6407776V.34439088C.100997928 .32637025 .100997928 .31835938 .114990238 .31835938 .12199402 .31835938 .12399292 .32136537 .12799073 .32736207 .13899231 .3433838 .17599488 .39746095 .25698854 .39746095 .30899049 .39746095 .33399964 .35139466 .34199525 .33337403 .35798646 .29632569 .3600006 .25727845 .3600006 .20722962 .3600006 .17222595 .3600006 .11222839 .33599855 .07035828 .31199647 .031463624 .2749939 .0055389406 .22898865 .0055389406 .1559906 .0055389406 .09899902 .058380128 .08198547 .11723328 .084991458 .1162262 .08799744 .115234378 .09899902 .115234378 .13198853 .115234378 .14898682 .14022827 .14898682 .16423035 .14898682 .18823242 .13198853 .21322632 .09899902 .21322632 .084991458 .21322632 .049987794 .20622254 .049987794 .16023255 .049987794 .07434082 .11898804-.022460938 .23098755-.022460938 .34700013-.022460938 .44898988 .073349 .44898988 .20022583Z"/>
<path id="font_2_1" d="M.45999146 .31976319C.45999146 .39982606 .45498658 .47988893 .41999818 .5539398 .37399293 .65000918 .2919922 .6660156 .25 .6660156 .18998719 .6660156 .116989139 .64001467 .07598877 .54693606 .04399109 .47789 .038986207 .39982606 .038986207 .31976319 .038986207 .24472046 .042999269 .15464783 .083999637 .07859802 .1269989-.0024719239 .19999695-.022460938 .24899292-.022460938 .30299378-.022460938 .3789978-.0014648438 .4229889 .09359741 .45498658 .16265869 .45999146 .2407074 .45999146 .31976319M.24899292-.00047302247C.20999146-.00047302247 .15098572 .024551392 .1329956 .12062073 .12199402 .18066406 .12199402 .2727356 .12199402 .3317871 .12199402 .39582826 .12199402 .46188355 .12998963 .5159149 .14898682 .63500979 .22399903 .64401248 .24899292 .64401248 .28199769 .64401248 .34799195 .6259918 .36698915 .52693179 .3769989 .47088624 .3769989 .39482118 .3769989 .3317871 .3769989 .25672914 .3769989 .18867493 .3659973 .12461853 .35099793 .029556275 .2939911-.00047302247 .24899292-.00047302247Z"/>
<path id="font_2_2" d="M.2939911 .64004519C.2939911 .66400149 .2939911 .6660156 .2709961 .6660156 .20899964 .60227969 .12098694 .60227969 .08898926 .60227969V.57128909C.10899353 .57128909 .16799927 .57128909 .21998596 .5972748V.07902527C.21998596 .042999269 .21699524 .0309906 .1269989 .0309906H.09498596V0C.12998963 .0029907227 .21699524 .0029907227 .25698854 .0029907227 .29699708 .0029907227 .38398744 .0029907227 .4189911 0V.0309906H.3869934C.29699708 .0309906 .2939911 .041992189 .2939911 .07902527V.64004519Z"/>
</defs>
<path transform="matrix(1.00003,0,0,-1.00005,21.065255,156.09815)" stroke-width=".3985" stroke-linecap="butt" stroke-miterlimit="10" stroke-linejoin="miter" fill="none" stroke="#00aeef" d="M0 0H90.7097M0 13.60632H90.7097M0 27.21268H90.7097M0 40.81902H90.7097M0 54.42537H90.7097M0 68.03172H90.7097M0 81.63806H90.7097M0 95.24442H90.7097M0 108.85077H90.7097M0 122.4571H90.7097M0 136.05869H90.7097M0 0V136.06346M18.14192 0V136.06346M36.28386 0V136.06346M54.42581 0V136.06346M72.56775 0V136.06346M90.70331 0V136.06346M90.7097 136.06346"/>
<path transform="matrix(1.00003,0,0,-1.00005,21.065255,156.09815)" stroke-width=".79701" stroke-linecap="butt" stroke-miterlimit="10" stroke-linejoin="miter" fill="none" stroke="#000000" d="M0 0H100.16034"/>
<path transform="matrix(1.00003,0,0,-1.00005,121.2286,156.09815)" d="M1.0361 0C-.25902 .25902-1.55415 .77707-3.1083 1.68365-1.55415 .51805-1.55415-.51805-3.1083-1.68365-1.55415-.77707-.25902-.25902 1.0361 0Z"/>
<path transform="matrix(1.00003,0,0,-1.00005,121.2286,156.09815)" stroke-width=".79701" stroke-linecap="butt" stroke-linejoin="round" fill="none" stroke="#000000" d="M1.0361 0C-.25902 .25902-1.55415 .77707-3.1083 1.68365-1.55415 .51805-1.55415-.51805-3.1083-1.68365-1.55415-.77707-.25902-.25902 1.0361 0Z"/>
<use data-text="x" xlink:href="#font_1_1" transform="matrix(9.962899,0,0,-9.963098,126.38242,158.24326)"/>
<path transform="matrix(1.00003,0,0,-1.00005,21.065255,156.09815)" stroke-width=".79701" stroke-linecap="butt" stroke-miterlimit="10" stroke-linejoin="miter" fill="none" stroke="#000000" d="M0 0V142.79274"/>
<path transform="matrix(0,-1.00005,-1.00003,-0,21.065255,13.298279)" d="M1.0361 0C-.25902 .25902-1.55415 .77707-3.1083 1.68365-1.55415 .51805-1.55415-.51805-3.1083-1.68365-1.55415-.77707-.25902-.25902 1.0361 0Z"/>
<path transform="matrix(0,-1.00005,-1.00003,-0,21.065255,13.298279)" stroke-width=".79701" stroke-linecap="butt" stroke-linejoin="round" fill="none" stroke="#000000" d="M1.0361 0C-.25902 .25902-1.55415 .77707-3.1083 1.68365-1.55415 .51805-1.55415-.51805-3.1083-1.68365-1.55415-.77707-.25902-.25902 1.0361 0Z"/>
<use data-text="y" xlink:href="#font_1_2" transform="matrix(9.962899,0,0,-9.963098,18.444176,6.20665)"/>
<path transform="matrix(1.00003,0,0,-1.00005,21.065255,156.09815)" stroke-width=".3985" stroke-linecap="butt" stroke-miterlimit="10" stroke-linejoin="miter" fill="none" stroke="#000000" d="M90.7097 2.04086V-2.04106"/>
<path transform="matrix(1.00003,0,0,-1.00005,21.065255,156.09815)" d="M84.73203-12.64584H96.68737V-4.2328598H84.73203Z" fill="#ffffff"/>
<use data-text="5" xlink:href="#font_2_3" transform="matrix(9.962899,0,0,-9.963098,106.79583,167.74872)"/>
<use data-text="0" xlink:href="#font_2_1" transform="matrix(9.962899,0,0,-9.963098,111.777278,167.74872)"/>
<path transform="matrix(1.00003,0,0,-1.00005,21.065255,156.09815)" stroke-width=".3985" stroke-linecap="butt" stroke-miterlimit="10" stroke-linejoin="miter" fill="none" stroke="#000000" d="M2.72116 68.03172H-2.72144"/>
<path transform="matrix(1.00003,0,0,-1.00005,21.065255,156.09815)" d="M-16.86859 63.82523H-4.913249V72.23821H-16.86859Z" fill="#ffffff"/>
<use data-text="5" xlink:href="#font_2_3" transform="matrix(9.962899,0,0,-9.963098,5.1927797,91.27291)"/>
<use data-text="0" xlink:href="#font_2_1" transform="matrix(9.962899,0,0,-9.963098,10.174225,91.27291)"/>
<path transform="matrix(1.00003,0,0,-1.00005,21.065255,156.09815)" stroke-width=".3985" stroke-linecap="butt" stroke-miterlimit="10" stroke-linejoin="miter" fill="none" stroke="#000000" d="M2.72116 136.06346H-2.72144"/>
<path transform="matrix(1.00003,0,0,-1.00005,21.065255,156.09815)" d="M-21.84998 131.85697H-4.9132597V140.26995H-21.84998Z" fill="#ffffff"/>
<use data-text="1" xlink:href="#font_2_2" transform="matrix(9.962899,0,0,-9.963098,.2106247,23.23851)"/>
<use data-text="0" xlink:href="#font_2_1" transform="matrix(9.962899,0,0,-9.963098,5.19207,23.23851)"/>
<use data-text="0" xlink:href="#font_2_1" transform="matrix(9.962899,0,0,-9.963098,10.173523,23.23851)"/>
<path transform="matrix(1.00003,0,0,-1.00005,21.065255,156.09815)" d="M2.72116 108.85077C2.72116 110.35367 1.50285 111.57198 0 111.57198-1.50285 111.57198-2.72116 110.35367-2.72116 108.85077-2.72116 107.34787-1.50285 106.12955 0 106.12955 1.50285 106.12955 2.72116 107.34787 2.72116 108.85077ZM0 108.85077" fill="#ff0000"/>
<path transform="matrix(1.00003,0,0,-1.00005,21.065255,156.09815)" stroke-width=".3985" stroke-linecap="butt" stroke-miterlimit="10" stroke-linejoin="miter" fill="none" stroke="#ff0000" d="M2.72116 108.85077C2.72116 110.35367 1.50285 111.57198 0 111.57198-1.50285 111.57198-2.72116 110.35367-2.72116 108.85077-2.72116 107.34787-1.50285 106.12955 0 106.12955 1.50285 106.12955 2.72116 107.34787 2.72116 108.85077ZM0 108.85077"/>
<path transform="matrix(1.00003,0,0,-1.00005,21.065255,156.09815)" d="M29.93405 129.26029C29.93405 130.76319 28.71576 131.9815 27.21289 131.9815 25.71002 131.9815 24.49171 130.76319 24.49171 129.26029 24.49171 127.75739 25.71002 126.53908 27.21289 126.53908 28.71576 126.53908 29.93405 127.75739 29.93405 129.26029ZM27.21289 129.26029" fill="#ff0000"/>
<path transform="matrix(1.00003,0,0,-1.00005,21.065255,156.09815)" stroke-width=".3985" stroke-linecap="butt" stroke-miterlimit="10" stroke-linejoin="miter" fill="none" stroke="#ff0000" d="M29.93405 129.26029C29.93405 130.76319 28.71576 131.9815 27.21289 131.9815 25.71002 131.9815 24.49171 130.76319 24.49171 129.26029 24.49171 127.75739 25.71002 126.53908 27.21289 126.53908 28.71576 126.53908 29.93405 127.75739 29.93405 129.26029ZM27.21289 129.26029"/>
<path transform="matrix(1.00003,0,0,-1.00005,21.065255,156.09815)" d="M48.076 74.8349C48.076 76.33778 46.8577 77.5561 45.35484 77.5561 43.85197 77.5561 42.63367 76.33778 42.63367 74.8349 42.63367 73.332 43.85197 72.11368 45.35484 72.11368 46.8577 72.11368 48.076 73.332 48.076 74.8349ZM45.35484 74.8349" fill="#ff0000"/>
<path transform="matrix(1.00003,0,0,-1.00005,21.065255,156.09815)" stroke-width=".3985" stroke-linecap="butt" stroke-miterlimit="10" stroke-linejoin="miter" fill="none" stroke="#ff0000" d="M48.076 74.8349C48.076 76.33778 46.8577 77.5561 45.35484 77.5561 43.85197 77.5561 42.63367 76.33778 42.63367 74.8349 42.63367 73.332 43.85197 72.11368 45.35484 72.11368 46.8577 72.11368 48.076 73.332 48.076 74.8349ZM45.35484 74.8349"/>
<path transform="matrix(1.00003,0,0,-1.00005,21.065255,156.09815)" stroke-width="1.19553" stroke-linecap="butt" stroke-miterlimit="10" stroke-linejoin="miter" fill="none" stroke="#ff0000" d="M0 108.85077C0 108.85077 .6626 110.80766 .9171 111.53255 1.17159 112.25742 1.57973 113.38893 1.83421 114.07521 2.0887 114.76149 2.49684 115.83112 2.75134 116.47879 3.00581 117.12648 3.41396 118.13416 3.66844 118.74327 3.92294 119.35239 4.33109 120.29834 4.58556 120.86884 4.84006 121.43936 5.2482 122.3232 5.50269 122.8551 5.75717 123.38702 6.16533 124.20917 6.4198 124.70247 6.6743 125.1958 7.08244 125.95583 7.33693 126.41054 7.59142 126.86525 7.99956 127.56357 8.25404 127.9797 8.50853 128.39585 8.91667 129.03226 9.17116 129.40978 9.42564 129.78728 9.83379 130.36162 10.08829 130.70052 10.34276 131.03942 10.7509 131.55205 11.0054 131.85237 11.25989 132.15271 11.66803 132.6034 11.92253 132.86513 12.177 133.12686 12.58514 133.51561 12.83963 133.73877 13.09413 133.96195 13.50227 134.28897 13.75674 134.47353 14.01125 134.65808 14.41939 134.92304 14.67387 135.06899 14.92836 135.2149 15.33649 135.41796 15.59099 135.52532 15.84547 135.63268 16.25362 135.774 16.50809 135.84276 16.76259 135.91152 17.17073 135.99074 17.42522 136.02089 17.67972 136.05106 18.08786 136.06858 18.34233 136.06014 18.59683 136.0517 19.00497 136.00711 19.25946 135.96006 19.51395 135.91303 19.92209 135.8067 20.17657 135.7211 20.43108 135.6355 20.83922 135.46724 21.09369 135.34302 21.34818 135.21883 21.75632 134.98867 22.01082 134.82585 22.26529 134.66306 22.67345 134.37099 22.92793 134.16959 23.18242 133.96817 23.59056 133.61421 23.84506 133.3742 24.09953 133.13419 24.50768 132.71833 24.76218 132.43972 25.01666 132.16112 25.4248 131.68335 25.67928 131.36614 25.93378 131.04892 26.34192 130.50923 26.5964 130.15345 26.85089 129.79769 27.25903 129.19625 27.51352 128.80187 27.76802 128.40749 28.17616 127.74394 28.43063 127.31097 28.68513 126.87799 29.09328 126.15277 29.34776 125.68118 29.60226 125.2096 30.01039 124.42227 30.26486 123.91208 30.51936 123.4019 30.9275 122.55286 31.18199 122.00409 31.43648 121.45534 31.84462 120.54439 32.0991 119.957 32.3536 119.3696 32.76175 118.39658 33.01622 117.77058 33.27072 117.14459 33.67886 116.10985 33.93335 115.44528 34.18782 114.78072 34.59598 113.68404 34.85046 112.98088 35.10495 112.27771 35.51309 111.11911 35.7676 110.37737 36.02206 109.63562 36.4302 108.41528 36.68471 107.63495 36.9392 106.85463 37.34734 105.5722 37.60182 104.75323 37.85631 103.9343 38.26445 102.58997 38.51894 101.73242 38.77342 100.8749 39.18156 99.46884 39.43605 98.57271 39.69055 97.67656 40.0987 96.20842 40.35318 95.27368 40.60767 94.33896 41.01581 92.8091 41.2703 91.83577 41.5248 90.86243 41.93294 89.27048 42.18741 88.25854 42.44191 87.24661 42.85005 85.59293 43.10454 84.54242 43.35901 83.4919 43.76715 81.7763 44.02165 80.68718 44.27614 79.59807 44.68428 77.82056 44.93877 76.69286 45.19325 75.56516 45.6014 73.72572 45.85588 72.55942 46.11038 71.3931 46.51852 69.49179 46.773 68.28688 47.02748 67.08197 47.43562 65.11876 47.69012 63.87524 47.9446 62.63173 48.35274 60.60661 48.60724 59.3245 48.86172 58.04237 49.26987 55.95532 49.52435 54.63466 49.77884 53.31396 50.18698 51.1652 50.44148 49.8059 50.69595 48.44661 51.1041 46.23575 51.35858 44.83784 51.61308 43.43997 52.02122 41.16739 52.27571 39.73091 52.5302 38.29443 52.93834 35.95975 53.19283 34.48465 53.44733 33.00955 53.85547 30.61316 54.10994 29.0995 54.36444 27.58583 54.77258 25.12752 55.02707 23.57524 55.28156 22.02295 55.6897 19.50256 55.94418 17.91167 56.19867 16.32077 56.60681 13.73868 56.8613 12.1092 57.11578 10.47975 57.52393 7.8357 57.77843 6.16763 58.03291 4.49957 58.69554 .08698 58.69554 .08698"/>
</svg>
