<svg xmlns="http://www.w3.org/2000/svg" xmlns:xlink="http://www.w3.org/1999/xlink" version="1.1" width="238" height="238" viewBox="0 0 238 238">
<defs>
<path id="font_1_1" d="M.33399964 .30233766C.33999635 .32835389 .36299134 .42037965 .43299867 .42037965 .43798829 .42037965 .46199037 .42037965 .48298646 .40734864 .45498658 .402359 .43499757 .37734986 .43499757 .35334779 .43499757 .33735658 .44599916 .31835938 .47299195 .31835938 .49499513 .31835938 .5269928 .3363495 .5269928 .37635804 .5269928 .42837525 .46798707 .4423828 .43399049 .4423828 .37599183 .4423828 .34098817 .38935853 .32899476 .36634828 .3039856 .43237306 .25 .4423828 .22099304 .4423828 .116989139 .4423828 .05999756 .3133545 .05999756 .28834535 .05999756 .27833558 .069992069 .27833558 .07199097 .27833558 .07998657 .27833558 .08299255 .28033448 .084991458 .28933717 .11898804 .39535523 .18499756 .42037965 .21899414 .42037965 .23799134 .42037965 .272995 .4113617 .272995 .35334779 .272995 .32235719 .2559967 .25532533 .21899414 .11528015 .20298767 .053268434 .16799927 .011245728 .12399292 .011245728 .117996219 .011245728 .09498596 .011245728 .07398987 .024276734 .09899902 .029266358 .12098694 .05027771 .12098694 .07827759 .12098694 .105270389 .09899902 .11328125 .083999637 .11328125 .053985597 .11328125 .0289917 .08728027 .0289917 .055267335 .0289917 .009246826 .07899475-.0107421879 .12298584-.0107421879 .18899536-.0107421879 .22499085 .059280397 .22799683 .0652771 .23999024 .028274537 .27598573-.0107421879 .33599855-.0107421879 .43899537-.0107421879 .49598695 .118270877 .49598695 .14328003 .49598695 .1532898 .4869995 .1532898 .48399354 .1532898 .47499085 .1532898 .47299195 .14929199 .47099305 .14228821 .43798829 .03527832 .36999513 .011245728 .33799745 .011245728 .29899598 .011245728 .2829895 .043273927 .2829895 .07727051 .2829895 .09927368 .2889862 .121276859 .2999878 .16529846L.33399964 .30233766Z"/>
<path id="font_1_2" d="M.48599244 .38136292C.48999024 .39537049 .48999024 .39736939 .48999024 .40437318 .48999024 .42237855 .47599793 .43138124 .46099855 .43138124 .45098878 .43138124 .43499757 .42536927 .42599488 .41036988 .42399598 .405365 .41600038 .37435914 .4119873 .35635377 .40499879 .33035279 .397995 .30334474 .3919983 .27633668L.34700013 .09628296C.34298707 .08126831 .2999878 .011245728 .23399353 .011245728 .18299866 .011245728 .17199707 .055267335 .17199707 .0922699 .17199707 .1382904 .18899536 .20030213 .22299195 .28833009 .23899842 .3293457 .24299622 .3403473 .24299622 .36035157 .24299622 .405365 .21099854 .4423828 .16099549 .4423828 .06599426 .4423828 .0289917 .29733277 .0289917 .28833009 .0289917 .27833558 .038986207 .27833558 .040985109 .27833558 .050994874 .27833558 .051986696 .28033448 .056991579 .29634095 .083999637 .3903656 .12399292 .42037965 .1579895 .42037965 .1659851 .42037965 .18299866 .42037965 .18299866 .3883667 .18299866 .36335755 .17298889 .3373413 .1659851 .31834413 .12599182 .21231079 .10798645 .1552887 .10798645 .10827637 .10798645 .019256592 .17098999-.0107421879 .22999573-.0107421879 .2689972-.0107421879 .30299378 .0062561037 .33099366 .03425598 .31799317-.017745972 .30599977-.06674194 .2659912-.11973572 .23999024-.15385437 .20199585-.18309021 .1559906-.18309021 .14199829-.18309021 .09700012-.18005371 .07998657-.14074707 .09599304-.14074707 .10899353-.14074707 .12298584-.1287384 .1329956-.11973572 .14299011-.10673523 .14299011-.08773804 .14299011-.056747438 .115997318-.052734376 .10598755-.052734376 .08299255-.052734376 .049987794-.068740848 .049987794-.11773682 .049987794-.16796875 .09399414-.20507813 .1559906-.20507813 .25898744-.20507813 .3619995-.11373901 .3899994-.00074768069L.48599244 .38136292Z"/>
<path id="font_2_2" d="M.2939911 .64004519C.2939911 .66400149 .2939911 .6660156 .2709961 .6660156 .20899964 .60227969 .12098694 .60227969 .08898926 .60227969V.57128909C.10899353 .57128909 .16799927 .57128909 .21998596 .5972748V.07902527C.21998596 .042999269 .21699524 .0309906 .1269989 .0309906H.09498596V0C.12998963 .0029907227 .21699524 .0029907227 .25698854 .0029907227 .29699708 .0029907227 .38398744 .0029907227 .4189911 0V.0309906H.3869934C.29699708 .0309906 .2939911 .041992189 .2939911 .07902527V.64004519Z"/>
<path id="font_2_1" d="M.45999146 .31976319C.45999146 .39982606 .45498658 .47988893 .41999818 .5539398 .37399293 .65000918 .2919922 .6660156 .25 .6660156 .18998719 .6660156 .116989139 .64001467 .07598877 .54693606 .04399109 .47789 .038986207 .39982606 .038986207 .31976319 .038986207 .24472046 .042999269 .15464783 .083999637 .07859802 .1269989-.0024719239 .19999695-.022460938 .24899292-.022460938 .30299378-.022460938 .3789978-.0014648438 .4229889 .09359741 .45498658 .16265869 .45999146 .2407074 .45999146 .31976319M.24899292-.00047302247C.20999146-.00047302247 .15098572 .024551392 .1329956 .12062073 .12199402 .18066406 .12199402 .2727356 .12199402 .3317871 .12199402 .39582826 .12199402 .46188355 .12998963 .5159149 .14898682 .63500979 .22399903 .64401248 .24899292 .64401248 .28199769 .64401248 .34799195 .6259918 .36698915 .52693179 .3769989 .47088624 .3769989 .39482118 .3769989 .3317871 .3769989 .25672914 .3769989 .18867493 .3659973 .12461853 .35099793 .029556275 .2939911-.00047302247 .24899292-.00047302247Z"/>
<path id="font_3_1" d="M.6589966 .23046875C.6759949 .23046875 .69400027 .23046875 .69400027 .25045777 .69400027 .27046205 .6759949 .27046205 .6589966 .27046205H.117996219C.100997928 .27046205 .08299255 .27046205 .08299255 .25045777 .08299255 .23046875 .100997928 .23046875 .117996219 .23046875H.6589966Z"/>
<path id="font_2_3" d="M.44898988 .20022583C.44898988 .3193512 .36698915 .41944886 .25898744 .41944886 .21099854 .41944886 .16799927 .40345765 .13198853 .36842347V.5637665C.1519928 .5577698 .18499756 .55078127 .21699524 .55078127 .33999635 .55078127 .4099884 .6417694 .4099884 .6547699 .4099884 .6607666 .40699769 .6657715 .3999939 .6657715 .39898683 .6657715 .39698792 .6657715 .3919983 .66278079 .37199403 .6537781 .32299806 .6337738 .2559967 .6337738 .21598816 .6337738 .16999817 .6407776 .12298584 .6617737 .114990238 .66477969 .11299133 .66477969 .11099243 .66477969 .100997928 .66477969 .100997928 .6567688 .100997928 .6407776V.34439088C.100997928 .32637025 .100997928 .31835938 .114990238 .31835938 .12199402 .31835938 .12399292 .32136537 .12799073 .32736207 .13899231 .3433838 .17599488 .39746095 .25698854 .39746095 .30899049 .39746095 .33399964 .35139466 .34199525 .33337403 .35798646 .29632569 .3600006 .25727845 .3600006 .20722962 .3600006 .17222595 .3600006 .11222839 .33599855 .07035828 .31199647 .031463624 .2749939 .0055389406 .22898865 .0055389406 .1559906 .0055389406 .09899902 .058380128 .08198547 .11723328 .084991458 .1162262 .08799744 .115234378 .09899902 .115234378 .13198853 .115234378 .14898682 .14022827 .14898682 .16423035 .14898682 .18823242 .13198853 .21322632 .09899902 .21322632 .084991458 .21322632 .049987794 .20622254 .049987794 .16023255 .049987794 .07434082 .11898804-.022460938 .23098755-.022460938 .34700013-.022460938 .44898988 .073349 .44898988 .20022583Z"/>
</defs>
<path transform="matrix(1.00005,0,0,-1.00005,77.44621,91.23991)" stroke-width=".3985" stroke-linecap="butt" stroke-miterlimit="10" stroke-linejoin="miter" fill="none" stroke="#00aeef" d="M-70.867-141.73404H141.73404M-70.867-127.56062H141.73404M-70.867-113.38724H141.73404M-70.867-99.21382H141.73404M-70.867-85.04042H141.73404M-70.867-70.867H141.73404M-70.867-56.69362H141.73404M-70.867-42.5202H141.73404M-70.867-28.3468H141.73404M-70.867-14.17339H141.73404M-70.867 0H141.73404M-70.867 14.17339H141.73404M-70.867 28.3468H141.73404M-70.867 42.5202H141.73404M-70.867 56.69362H141.73404M-70.867 70.86205H141.73404M-70.867-141.73404V70.867M-56.69362-141.73404V70.867M-42.5202-141.73404V70.867M-28.3468-141.73404V70.867M-14.17339-141.73404V70.867M0-141.73404V70.867M14.17339-141.73404V70.867M28.3468-141.73404V70.867M42.5202-141.73404V70.867M56.69362-141.73404V70.867M70.867-141.73404V70.867M85.04042-141.73404V70.867M99.21382-141.73404V70.867M113.38724-141.73404V70.867M127.56062-141.73404V70.867M141.72905-141.73404V70.867M141.73404 70.867"/>
<path transform="matrix(1.00005,0,0,-1.00005,77.44621,91.23991)" stroke-width=".79701" stroke-linecap="butt" stroke-miterlimit="10" stroke-linejoin="miter" fill="none" stroke="#000000" d="M-70.867 0H148.80356"/>
<path transform="matrix(1.00005,0,0,-1.00005,226.2572,91.23991)" d="M1.0361 0C-.25902 .25902-1.55415 .77707-3.1083 1.68365-1.55415 .51805-1.55415-.51805-3.1083-1.68365-1.55415-.77707-.25902-.25902 1.0361 0Z"/>
<path transform="matrix(1.00005,0,0,-1.00005,226.2572,91.23991)" stroke-width=".79701" stroke-linecap="butt" stroke-linejoin="round" fill="none" stroke="#000000" d="M1.0361 0C-.25902 .25902-1.55415 .77707-3.1083 1.68365-1.55415 .51805-1.55415-.51805-3.1083-1.68365-1.55415-.77707-.25902-.25902 1.0361 0Z"/>
<use data-text="x" xlink:href="#font_1_1" transform="matrix(9.963098,0,0,-9.963098,231.4109,93.38501)"/>
<path transform="matrix(1.00005,0,0,-1.00005,77.44621,91.23991)" stroke-width=".79701" stroke-linecap="butt" stroke-miterlimit="10" stroke-linejoin="miter" fill="none" stroke="#000000" d="M0-141.73404V77.93652"/>
<path transform="matrix(0,-1.00005,-1.00005,-0,77.44621,13.299492)" d="M1.0361 0C-.25902 .25902-1.55415 .77707-3.1083 1.68365-1.55415 .51805-1.55415-.51805-3.1083-1.68365-1.55415-.77707-.25902-.25902 1.0361 0Z"/>
<path transform="matrix(0,-1.00005,-1.00005,-0,77.44621,13.299492)" stroke-width=".79701" stroke-linecap="butt" stroke-linejoin="round" fill="none" stroke="#000000" d="M1.0361 0C-.25902 .25902-1.55415 .77707-3.1083 1.68365-1.55415 .51805-1.55415-.51805-3.1083-1.68365-1.55415-.77707-.25902-.25902 1.0361 0Z"/>
<use data-text="y" xlink:href="#font_1_2" transform="matrix(9.963098,0,0,-9.963098,74.82508,6.2086565)"/>
<path transform="matrix(1.00005,0,0,-1.00005,77.44621,91.23991)" stroke-width=".3985" stroke-linecap="butt" stroke-miterlimit="10" stroke-linejoin="miter" fill="none" stroke="#000000" d="M141.73404 1.4174V-1.41719"/>
<path transform="matrix(1.00005,0,0,-1.00005,77.44621,91.23991)" d="M135.75637-12.02199H147.7117V-3.6090098H135.75637Z" fill="#ffffff"/>
<use data-text="1" xlink:href="#font_2_2" transform="matrix(9.963098,0,0,-9.963098,214.20606,102.26646)"/>
<use data-text="0" xlink:href="#font_2_1" transform="matrix(9.963098,0,0,-9.963098,219.1876,102.26646)"/>
<path transform="matrix(1.00005,0,0,-1.00005,77.44621,91.23991)" stroke-width=".3985" stroke-linecap="butt" stroke-miterlimit="10" stroke-linejoin="miter" fill="none" stroke="#000000" d="M-70.867 1.4174V-1.41719"/>
<path transform="matrix(1.00005,0,0,-1.00005,77.44621,91.23991)" d="M-78.2284-12.85223H-63.505624V-3.6090003H-78.2284Z" fill="#ffffff"/>
<use data-text="&#x2212;" xlink:href="#font_3_1" transform="matrix(9.963098,0,0,-9.963098,.2103424,102.26646)"/>
<use data-text="5" xlink:href="#font_2_3" transform="matrix(9.963098,0,0,-9.963098,7.95874,102.26646)"/>
<path transform="matrix(1.00005,0,0,-1.00005,77.44621,91.23991)" stroke-width=".3985" stroke-linecap="butt" stroke-miterlimit="10" stroke-linejoin="miter" fill="none" stroke="#000000" d="M70.867 1.4174V-1.41719"/>
<path transform="matrix(1.00005,0,0,-1.00005,77.44621,91.23991)" d="M67.38004-12.02199H74.35398V-3.6090098H67.38004Z" fill="#ffffff"/>
<use data-text="5" xlink:href="#font_2_3" transform="matrix(9.963098,0,0,-9.963098,145.82563,102.26646)"/>
<path transform="matrix(1.00005,0,0,-1.00005,77.44621,91.23991)" stroke-width=".3985" stroke-linecap="butt" stroke-miterlimit="10" stroke-linejoin="miter" fill="none" stroke="#000000" d="M1.4174-70.867H-1.41719"/>
<path transform="matrix(1.00005,0,0,-1.00005,77.44621,91.23991)" d="M-18.33179-75.48862H-3.6090108V-66.245388H-18.33179Z" fill="#ffffff"/>
<use data-text="&#x2212;" xlink:href="#font_3_1" transform="matrix(9.963098,0,0,-9.963098,60.109346,164.90558)"/>
<use data-text="5" xlink:href="#font_2_3" transform="matrix(9.963098,0,0,-9.963098,67.85774,164.90558)"/>
<path transform="matrix(1.00005,0,0,-1.00005,77.44621,91.23991)" stroke-width=".3985" stroke-linecap="butt" stroke-miterlimit="10" stroke-linejoin="miter" fill="none" stroke="#000000" d="M1.4174 70.867H-1.41719"/>
<path transform="matrix(1.00005,0,0,-1.00005,77.44621,91.23991)" d="M-10.58295 66.66052H-3.6090098V75.0735H-10.58295Z" fill="#ffffff"/>
<use data-text="5" xlink:href="#font_2_3" transform="matrix(9.963098,0,0,-9.963098,67.858737,23.579529)"/>
<path transform="matrix(1.00005,0,0,-1.00005,77.44621,91.23991)" stroke-width=".3985" stroke-linecap="butt" stroke-miterlimit="10" stroke-linejoin="miter" fill="none" stroke="#000000" d="M1.4174-141.73404H-1.41719"/>
<path transform="matrix(1.00005,0,0,-1.00005,77.44621,91.23991)" d="M-23.3132-146.35565H-3.6089993V-137.11243H-23.3132Z" fill="#ffffff"/>
<use data-text="&#x2212;" xlink:href="#font_3_1" transform="matrix(9.963098,0,0,-9.963098,55.128099,235.77613)"/>
<use data-text="1" xlink:href="#font_2_2" transform="matrix(9.963098,0,0,-9.963098,62.876497,235.77613)"/>
<use data-text="0" xlink:href="#font_2_1" transform="matrix(9.963098,0,0,-9.963098,67.85803,235.77613)"/>
<path transform="matrix(1.00005,0,0,-1.00005,77.44621,91.23991)" stroke-width="1.19553" stroke-linecap="butt" stroke-miterlimit="10" stroke-linejoin="miter" fill="none" stroke="#ff0000" d="M-65.12334-139.94165C-63.54619-134.76137-63.54619-134.76137-62.73097-132.14206-61.91576-129.52277-60.6084-125.39006-59.79317-122.85527-58.97795-120.32047-57.6706-116.3233-56.85538-113.87297-56.04016-111.42264-54.7328-107.56082-53.91757-105.19496-53.10236-102.82909-51.795-99.10281-50.97978-96.82146-50.16457-94.5401-48.85721-90.94931-48.04198-88.75246-47.22676-86.55559-45.9194-83.10033-45.10419-80.98798-44.28897-78.87561-42.98161-75.55588-42.16638-73.52798-41.35117-71.50009-40.04381-68.3157-39.22859-66.37228-38.41338-64.42886-37.10602-61.38-36.29079-59.5211-35.47557-57.6622-34.16821-54.74907-33.353-52.97464-32.53778-51.20021-31.23042-48.42221-30.41519-46.73225-29.59996-45.0423-28.29262-42.40001-27.47739-40.79459-26.66217-39.18916-25.35481-36.68239-24.53958-35.16142-23.72437-33.64047-22.417-31.26904-21.60179-29.83257-20.78658-28.39607-19.47922-26.1602-18.66399-24.80821-17.84877-23.45622-16.54141-21.35583-15.7262-20.08835-14.91098-18.82086-13.60362-16.85599-12.78839-15.673-11.97318-14.49002-10.66582-12.66068-9.8506-11.56216-9.03539-10.46364-7.72803-8.76965-6.9128-7.7556-6.09758-6.74155-4.79022-5.1831-3.975-4.25357-3.15979-3.324-1.85243-1.90108-1.0372-1.05603-.22198-.21098 1.08534 1.07643 1.90056 1.83698 2.71577 2.59752 4.02313 3.7494 4.83836 4.4255 5.65358 5.10158 6.96094 6.11815 7.77615 6.70973 8.59137 7.30132 9.89873 8.18216 10.71396 8.68924 11.52917 9.19632 12.83652 9.94185 13.65175 10.36446 14.46696 10.78708 15.77432 11.39702 16.58955 11.73517 17.40479 12.07332 18.71213 12.54794 19.52734 12.80159 20.34256 13.05524 21.64992 13.39415 22.46515 13.5633 23.28036 13.73244 24.58772 13.93605 25.40294 14.0207 26.21815 14.10535 27.52551 14.17325 28.34074 14.17339 29.15596 14.17354 30.46332 14.10608 31.27853 14.02177 32.09375 13.9375 33.40111 13.73468 34.21634 13.56589 35.03156 13.3971 36.33891 13.05855 37.15413 12.80527 37.96935 12.55197 39.2767 12.07814 40.09193 11.74036 40.90715 11.40259 42.21451 10.79301 43.02972 10.37074 43.84494 9.94846 45.1523 9.20355 45.96753 8.69682 46.78275 8.19006 48.0901 7.3096 48.90532 6.71838 49.72054 6.12717 51.0279 5.11139 51.84312 4.43565 52.65834 3.75995 53.9657 2.60844 54.78091 1.84822 55.59615 1.088 56.90349-.19879 57.71872-1.04349 58.53395-1.88817 59.84131-3.31053 60.65652-4.23972 61.47174-5.16891 62.7791-6.72678 63.59431-7.74048 64.40955-8.75417 65.7169-10.44754 66.53212-11.54573 67.34734-12.64392 68.6547-14.47282 69.46991-15.65547 70.28514-16.83815 71.5925-18.80241 72.40771-20.06953 73.22293-21.33667 74.53029-23.43646 75.3455-24.7881 76.16074-26.13972 77.4681-28.37502 78.28331-29.81114 79.09853-31.24728 80.40588-33.6181 81.2211-35.13873 82.03633-36.65935 83.34369-39.1657 84.1589-40.7708 84.97412-42.37589 86.28148-45.01758 87.0967-46.70717 87.91193-48.39677 89.21928-51.17416 90.0345-52.94826 90.84972-54.72235 92.15707-57.63507 92.97229-59.49364 93.78752-61.3522 95.09488-64.4005 95.9101-66.34352 96.72531-68.28656 98.03265-71.47018 98.84789-73.49771 99.66312-75.52524 100.97047-78.84457 101.78569-80.9566 102.60092-83.06863 103.90826-86.52327 104.72348-88.7198 105.53871-90.91634 106.84607-94.50668 107.66129-96.78772 108.4765-99.06874 109.78386-102.79445 110.59908-105.15993 111.4143-107.52539 112.72166-111.38644 113.53688-113.83643 114.3521-116.28639 115.65945-120.28316 116.47467-122.81763 117.2899-125.3521 118.59726-129.48416 119.41248-132.10315 120.22769-134.7221 122.35027-141.69338 121.80478-139.90167"/>
<path transform="matrix(-.29122455,.9566678,.9566678,.29122455,12.319626,231.18854)" d="M1.27522 0C-.31879 .31879-1.91284 .9564-3.8257 2.07224-1.91284 .6376-1.91284-.6376-3.8257-2.07224-1.91284-.9564-.31879-.31879 1.27522 0Z" fill="#ff0000"/>
<path transform="matrix(-.29122455,.9566678,.9566678,.29122455,12.319626,231.18854)" stroke-width="1.19553" stroke-linecap="butt" stroke-linejoin="round" fill="none" stroke="#ff0000" d="M1.27522 0C-.31879 .31879-1.91284 .9564-3.8257 2.07224-1.91284 .6376-1.91284-.6376-3.8257-2.07224-1.91284-.9564-.31879-.31879 1.27522 0Z"/>
<path transform="matrix(.29125456,.9566478,.9566478,-.29125456,199.25708,231.14856)" d="M1.27522 0C-.31879 .31879-1.91284 .9564-3.8257 2.07224-1.91284 .6376-1.91284-.6376-3.8257-2.07224-1.91284-.9564-.31879-.31879 1.27522 0Z" fill="#ff0000"/>
<path transform="matrix(.29125456,.9566478,.9566478,-.29125456,199.25708,231.14856)" stroke-width="1.19553" stroke-linecap="butt" stroke-linejoin="round" fill="none" stroke="#ff0000" d="M1.27522 0C-.31879 .31879-1.91284 .9564-3.8257 2.07224-1.91284 .6376-1.91284-.6376-3.8257-2.07224-1.91284-.9564-.31879-.31879 1.27522 0Z"/>
</svg>
