<svg xmlns="http://www.w3.org/2000/svg" xmlns:xlink="http://www.w3.org/1999/xlink" version="1.1" width="179" height="114" viewBox="0 0 179 114">
<defs>
<path id="font_1_3" d="M.46199037 .33935548C.46699525 .36135865 .47698976 .3983612 .47698976 .40437318 .47698976 .42237855 .46299745 .43138124 .44799806 .43138124 .43598939 .43138124 .41799928 .42337037 .41099549 .4033661 .4079895 .3963623 .36099244 .205307 .35398866 .17930603 .34700013 .14929199 .34498597 .13128662 .34498597 .11328125 .34498597 .10227966 .34498597 .10028076 .34599305 .09527588 .32299806 .042266847 .29299928 .011245728 .2539978 .011245728 .17399597 .011245728 .17399597 .08526611 .17399597 .10227966 .17399597 .1342926 .1789856 .17329407 .22599793 .29634095 .23699951 .32633973 .24299622 .3403473 .24299622 .36035157 .24299622 .405365 .20999146 .4423828 .16099549 .4423828 .06599426 .4423828 .0289917 .29733277 .0289917 .28833009 .0289917 .27833558 .038986207 .27833558 .040985109 .27833558 .050994874 .27833558 .051986696 .28033448 .056991579 .29634095 .083999637 .38935853 .12298584 .42037965 .1579895 .42037965 .16699219 .42037965 .18299866 .41937257 .18299866 .38735963 .18299866 .36235047 .17199707 .3343506 .16499329 .31733705 .12098694 .1993103 .10899353 .1532898 .10899353 .11528015 .10899353 .024261475 .17599488-.0107421879 .25099183-.0107421879 .2679901-.0107421879 .31498719-.0107421879 .35499574 .059265138 .3809967-.0047454836 .44999696-.0107421879 .47999574-.0107421879 .5549927-.0107421879 .598999 .052261354 .625 .11227417 .6589966 .19030762 .69099429 .32434083 .69099429 .37236024 .69099429 .42736817 .6639862 .4423828 .6469879 .4423828 .621994 .4423828 .5970001 .41636659 .5970001 .3943634 .5970001 .38136292 .6029968 .3753662 .6119995 .36735536 .6230011 .35635377 .647995 .33035279 .647995 .28233338 .647995 .24832154 .61898806 .15029907 .59298709 .09927368 .5669861 .04626465 .5319977 .011245728 .48298646 .011245728 .43598939 .011245728 .40899659 .041259767 .40899659 .09828186 .40899659 .12628174 .41600038 .1572876 .41999818 .17129517L.46199037 .33935548Z"/>
<path id="font_1_2" d="M.15899658 .07795715C.14898682 .038986207 .14698792 .0309906 .067993167 .0309906 .050994874 .0309906 .039993287 .0309906 .039993287 .011993408 .039993287 0 .04899597 0 .067993167 0H.39898683C.6069946 0 .80400088 .21087647 .80400088 .42974855 .80400088 .5706482 .71899417 .6826172 .56900027 .6826172H.23298645C.21398926 .6826172 .20298767 .6826172 .20298767 .66360476 .20298767 .6516113 .21199036 .6516113 .23199463 .6516113 .24499512 .6516113 .2630005 .65060427 .2749939 .6496124 .29100038 .6476135 .29699708 .64460757 .29699708 .6336212 .29699708 .6296234 .29599 .62661746 .29299928 .614624L.15899658 .07795715M.375 .6136322C.38398744 .64860537 .38598634 .6516113 .42900086 .6516113H.5359955C.6339874 .6516113 .71699526 .5986328 .71699526 .46672059 .71699526 .41775514 .69699099 .25386048 .6119995 .1439209 .58299258 .10694885 .5039978 .0309906 .3809967 .0309906H.2679901C.2539978 .0309906 .2519989 .0309906 .24598694 .03199768 .23599243 .032989503 .23298645 .033996583 .23298645 .041992189 .23298645 .04498291 .23298645 .04698181 .23799134 .064971927L.375 .6136322Z"/>
<path id="font_2_2" d="M.2939911 .64004519C.2939911 .66400149 .2939911 .6660156 .2709961 .6660156 .20899964 .60227969 .12098694 .60227969 .08898926 .60227969V.57128909C.10899353 .57128909 .16799927 .57128909 .21998596 .5972748V.07902527C.21998596 .042999269 .21699524 .0309906 .1269989 .0309906H.09498596V0C.12998963 .0029907227 .21699524 .0029907227 .25698854 .0029907227 .29699708 .0029907227 .38398744 .0029907227 .4189911 0V.0309906H.3869934C.29699708 .0309906 .2939911 .041992189 .2939911 .07902527V.64004519Z"/>
<path id="font_2_3" d="M.1269989 .07699585 .23298645 .18003845C.3889923 .31811524 .44898988 .3721466 .44898988 .47216798 .44898988 .5860901 .35899354 .6660156 .23699951 .6660156 .12399292 .6660156 .049987794 .57411196 .049987794 .48516847 .049987794 .4291687 .099990848 .4291687 .102996829 .4291687 .11999512 .4291687 .15499878 .44117738 .15499878 .48217774 .15499878 .5081787 .13699341 .5341797 .101989749 .5341797 .09399414 .5341797 .09199524 .5341797 .08898926 .5331726 .11199951 .59806826 .1659851 .63500979 .22399903 .63500979 .31498719 .63500979 .35798646 .5541382 .35798646 .47216798 .35798646 .39215089 .30799867 .31311036 .25299073 .25108338L.06098938 .036987306C.049987794 .025985718 .049987794 .023986817 .049987794 0H.42099L.44898988 .17404175H.42399598C.4189911 .14402771 .4119873 .1000061 .4019928 .084991458 .394989 .07699585 .32899476 .07699585 .30699159 .07699585H.1269989Z"/>
<path id="font_2_4" d="M.2899933 .35191346C.37199403 .37893678 .42999269 .4490509 .42999269 .52809146 .42999269 .6100464 .34199525 .6660156 .24598694 .6660156 .14498902 .6660156 .068984989 .60606387 .068984989 .53009036 .068984989 .49710084 .09098816 .47808839 .11999512 .47808839 .15098572 .47808839 .17098999 .50009158 .17098999 .5290985 .17098999 .57910159 .12399292 .57910159 .10899353 .57910159 .13999939 .62802127 .20599365 .64100649 .24198914 .64100649 .2829895 .64100649 .33799745 .6190338 .33799745 .5290985 .33799745 .51708987 .33599855 .45906068 .30999757 .4149933 .27999879 .36691285 .24598694 .36390687 .22099304 .36291505 .21299744 .36190797 .18899536 .35990907 .18199158 .35990907 .17399597 .35890199 .16699219 .35791017 .16699219 .3479004 .16699219 .33691407 .17399597 .33691407 .19099427 .33691407H.23498535C.31698609 .33691407 .35398866 .2686615 .35398866 .17037964 .35398866 .034469606 .2849884 .0055389406 .24099732 .0055389406 .19799805 .0055389406 .12298584 .022491456 .08799744 .08137512 .12298584 .07637024 .1539917 .09837341 .1539917 .1363678 .1539917 .17237854 .1269989 .19238281 .09799194 .19238281 .07398987 .19238281 .041992189 .17837525 .041992189 .1343689 .041992189 .043441774 .1349945-.022460938 .24398804-.022460938 .3659973-.022460938 .45700074 .06838989 .45700074 .17037964 .45700074 .252594 .3939972 .33088685 .2899933 .35191346Z"/>
<path id="font_2_5" d="M.2939911 .16503906V.07800293C.2939911 .041992189 .2919922 .0309906 .21798706 .0309906H.19699097V0C.23799134 .0029907227 .2899933 .0029907227 .33198548 .0029907227 .37399293 .0029907227 .4269867 .0029907227 .46798707 0V.0309906H.44699098C.37298585 .0309906 .37098695 .041992189 .37098695 .07800293V.16503906H.47099305V.19602967H.37098695V.65075686C.37098695 .67074587 .37098695 .6767578 .35499574 .6767578 .34599305 .6767578 .34298707 .6767578 .33499146 .66474917L.027999878 .19602967V.16503906H.2939911M.2999878 .19602967H.055999757L.2999878 .5688019V.19602967Z"/>
<path id="font_2_6" d="M.44898988 .20022583C.44898988 .3193512 .36698915 .41944886 .25898744 .41944886 .21099854 .41944886 .16799927 .40345765 .13198853 .36842347V.5637665C.1519928 .5577698 .18499756 .55078127 .21699524 .55078127 .33999635 .55078127 .4099884 .6417694 .4099884 .6547699 .4099884 .6607666 .40699769 .6657715 .3999939 .6657715 .39898683 .6657715 .39698792 .6657715 .3919983 .66278079 .37199403 .6537781 .32299806 .6337738 .2559967 .6337738 .21598816 .6337738 .16999817 .6407776 .12298584 .6617737 .114990238 .66477969 .11299133 .66477969 .11099243 .66477969 .100997928 .66477969 .100997928 .6567688 .100997928 .6407776V.34439088C.100997928 .32637025 .100997928 .31835938 .114990238 .31835938 .12199402 .31835938 .12399292 .32136537 .12799073 .32736207 .13899231 .3433838 .17599488 .39746095 .25698854 .39746095 .30899049 .39746095 .33399964 .35139466 .34199525 .33337403 .35798646 .29632569 .3600006 .25727845 .3600006 .20722962 .3600006 .17222595 .3600006 .11222839 .33599855 .07035828 .31199647 .031463624 .2749939 .0055389406 .22898865 .0055389406 .1559906 .0055389406 .09899902 .058380128 .08198547 .11723328 .084991458 .1162262 .08799744 .115234378 .09899902 .115234378 .13198853 .115234378 .14898682 .14022827 .14898682 .16423035 .14898682 .18823242 .13198853 .21322632 .09899902 .21322632 .084991458 .21322632 .049987794 .20622254 .049987794 .16023255 .049987794 .07434082 .11898804-.022460938 .23098755-.022460938 .34700013-.022460938 .44898988 .073349 .44898988 .20022583Z"/>
<path id="font_2_1" d="M.45999146 .31976319C.45999146 .39982606 .45498658 .47988893 .41999818 .5539398 .37399293 .65000918 .2919922 .6660156 .25 .6660156 .18998719 .6660156 .116989139 .64001467 .07598877 .54693606 .04399109 .47789 .038986207 .39982606 .038986207 .31976319 .038986207 .24472046 .042999269 .15464783 .083999637 .07859802 .1269989-.0024719239 .19999695-.022460938 .24899292-.022460938 .30299378-.022460938 .3789978-.0014648438 .4229889 .09359741 .45498658 .16265869 .45999146 .2407074 .45999146 .31976319M.24899292-.00047302247C.20999146-.00047302247 .15098572 .024551392 .1329956 .12062073 .12199402 .18066406 .12199402 .2727356 .12199402 .3317871 .12199402 .39582826 .12199402 .46188355 .12998963 .5159149 .14898682 .63500979 .22399903 .64401248 .24899292 .64401248 .28199769 .64401248 .34799195 .6259918 .36698915 .52693179 .3769989 .47088624 .3769989 .39482118 .3769989 .3317871 .3769989 .25672914 .3769989 .18867493 .3659973 .12461853 .35099793 .029556275 .2939911-.00047302247 .24899292-.00047302247Z"/>
<path id="font_2_8" d="M.68699648 .32714845C.70199587 .32714845 .72099307 .32714845 .72099307 .34713746 .72099307 .36714173 .70199587 .36714173 .6879883 .36714173H.08898926C.07499695 .36714173 .055999757 .36714173 .055999757 .34713746 .055999757 .32714845 .07499695 .32714845 .08999634 .32714845H.68699648M.6879883 .13284302C.70199587 .13284302 .72099307 .13284302 .72099307 .15284729 .72099307 .17285156 .70199587 .17285156 .68699648 .17285156H.08999634C.07499695 .17285156 .055999757 .17285156 .055999757 .15284729 .055999757 .13284302 .07499695 .13284302 .08898926 .13284302H.6879883Z"/>
<path id="font_2_7" d="M.13198853 .327713V.35173036C.13198853 .6047821 .2559967 .64100649 .30699159 .64100649 .33099366 .64100649 .37298585 .634964 .394989 .6007538 .37998963 .6007538 .33999635 .6007538 .33999635 .5557556 .33999635 .524765 .3639984 .5097656 .38598634 .5097656 .4019928 .5097656 .43199159 .51875308 .43199159 .5577545 .43199159 .6178589 .3880005 .6660156 .30499269 .6660156 .1769867 .6660156 .041992189 .5367584 .041992189 .31570436 .041992189 .048553468 .1579895-.022460938 .25099183-.022460938 .3619995-.022460938 .45700074 .07156372 .45700074 .2036438 .45700074 .33070375 .36799623 .4267578 .25698854 .4267578 .18899536 .4267578 .1519928 .37573243 .13198853 .327713M.25099183 .0055389406C.18798828 .0055389406 .1579895 .06556702 .1519928 .080566409 .13398743 .127594 .13398743 .2076416 .13398743 .22564698 .13398743 .30369569 .1659851 .40374757 .2559967 .40374757 .27198792 .40374757 .31799317 .40374757 .34899903 .34172059 .36698915 .30470277 .36698915 .2536621 .36698915 .20463562 .36698915 .15661621 .36698915 .10658264 .34999085 .0705719 .31999208 .010528564 .27398683 .0055389406 .25099183 .0055389406Z"/>
<path id="font_1_1" d="M.19198609 .052993776C.19198609 .08198547 .16799927 .10598755 .13899231 .10598755 .10998535 .10598755 .085998538 .08198547 .085998538 .052993776 .085998538 .023986817 .10998535 0 .13899231 0 .16799927 0 .19198609 .023986817 .19198609 .052993776Z"/>
<path id="font_3_1" d="M.33499146 .63612368C.33499146 .6630554 .33299256 .6640625 .30499269 .6640625 .24099732 .6014404 .1499939 .6004486 .10899353 .6004486V.5644531C.1329956 .5644531 .19898987 .5644531 .2539978 .592453V.08203125C.2539978 .04899597 .2539978 .035995485 .1539917 .035995485H.115997318V0C.13398743 .0009918213 .25698854 .0039978029 .2939911 .0039978029 .32499696 .0039978029 .45098878 .0009918213 .47299195 0V.035995485H.43499757C.33499146 .035995485 .33499146 .04899597 .33499146 .08203125V.63612368Z"/>
<path id="font_4_1" d="M.5009918 .70599368C.5069885 .71899417 .5069885 .72099307 .5069885 .72499087 .5069885 .7409973 .49398805 .75 .48298646 .75 .46598817 .75 .46099855 .73799136 .45599366 .72499087L.08299255-.20600891C.07699585-.2190094 .07699585-.2210083 .07699585-.2250061 .07699585-.24101258 .08999634-.25 .100997928-.25 .117996219-.25 .12298584-.23800659 .12799073-.2250061L.5009918 .70599368Z"/>
<path id="font_3_2" d="M.272995 .33428956C.35099793 .33428956 .40699769 .2803192 .40699769 .1733551 .40699769 .04940796 .33499146 .012466431 .2769928 .012466431 .23699951 .012466431 .14898682 .0234375 .10699463 .082351688 .1539917 .084350589 .16499329 .11735535 .16499329 .13835144 .16499329 .17034912 .14099121 .19335938 .10998535 .19335938 .08198547 .19335938 .053985597 .17634583 .053985597 .13534546 .053985597 .041412355 .1579895-.01953125 .2789917-.01953125 .41799928-.01953125 .5139923 .07336426 .5139923 .1733551 .5139923 .2513275 .44999696 .32929994 .33999635 .35229493 .44499208 .39024354 .48298646 .4650879 .48298646 .5260773 .48298646 .60505679 .3919983 .6640625 .2809906 .6640625 .16999817 .6640625 .084991458 .61006167 .084991458 .5300751 .084991458 .49606324 .10699463 .47706605 .13699341 .47706605 .16799927 .47706605 .18798828 .5000763 .18798828 .5280762 .18798828 .5570679 .16799927 .57806399 .13699341 .5800781 .17199707 .62405398 .24099732 .63505557 .27799989 .63505557 .32299806 .63505557 .38598634 .6130676 .38598634 .5260773 .38598634 .48406983 .37199403 .43814088 .34599305 .4072113 .31298829 .36927796 .2849884 .3672943 .23498535 .36428834 .20999146 .3623047 .20799256 .3623047 .20298767 .3612976 .20098877 .3612976 .19299317 .3592987 .19299317 .34829713 .19299317 .33428956 .20199585 .33428956 .21899414 .33428956H.272995Z"/>
</defs>
<path transform="matrix(1,0,0,-1.00002,16.762001,101.5918)" stroke-width=".3985" stroke-linecap="butt" stroke-miterlimit="10" stroke-linejoin="miter" fill="none" stroke="#00aeef" d="M0 0H136.06433M0 8.50412H136.06433M0 17.00824H136.06433M0 25.51237H136.06433M0 34.0165H136.06433M0 42.52063H136.06433M0 51.02477H136.06433M0 59.52888H136.06433M0 68.03302H136.06433M0 76.53716H136.06433M0 85.0383H136.06433M0 0V85.04128M17.00801 0V85.04128M34.01605 0V85.04128M51.02408 0V85.04128M68.03212 0V85.04128M85.04015 0V85.04128M102.04819 0V85.04128M119.05621 0V85.04128M136.06426 0V85.04128M136.06433 85.04128"/>
<path transform="matrix(1,0,0,-1.00002,16.762001,101.5918)" stroke-width=".79701" stroke-linecap="butt" stroke-miterlimit="10" stroke-linejoin="miter" fill="none" stroke="#000000" d="M0 0H148.23595"/>
<path transform="matrix(1,0,0,-1.00002,164.99796,101.5918)" d="M1.0361 0C-.25902 .25902-1.55415 .77707-3.1083 1.68365-1.55415 .51805-1.55415-.51805-3.1083-1.68365-1.55415-.77707-.25902-.25902 1.0361 0Z"/>
<path transform="matrix(1,0,0,-1.00002,164.99796,101.5918)" stroke-width=".79701" stroke-linecap="butt" stroke-linejoin="round" fill="none" stroke="#000000" d="M1.0361 0C-.25902 .25902-1.55415 .77707-3.1083 1.68365-1.55415 .51805-1.55415-.51805-3.1083-1.68365-1.55415-.77707-.25902-.25902 1.0361 0Z"/>
<use data-text="w" xlink:href="#font_1_3" transform="matrix(9.9626,0,0,-9.962799,170.15201,103.73684)"/>
<path transform="matrix(1,0,0,-1.00002,16.762001,101.5918)" stroke-width=".79701" stroke-linecap="butt" stroke-miterlimit="10" stroke-linejoin="miter" fill="none" stroke="#000000" d="M0 0V88.7092"/>
<path transform="matrix(0,-1.00002,-1,-0,16.762001,12.880821)" d="M1.0361 0C-.25902 .25902-1.55415 .77707-3.1083 1.68365-1.55415 .51805-1.55415-.51805-3.1083-1.68365-1.55415-.77707-.25902-.25902 1.0361 0Z"/>
<path transform="matrix(0,-1.00002,-1,-0,16.762001,12.880821)" stroke-width=".79701" stroke-linecap="butt" stroke-linejoin="round" fill="none" stroke="#000000" d="M1.0361 0C-.25902 .25902-1.55415 .77707-3.1083 1.68365-1.55415 .51805-1.55415-.51805-3.1083-1.68365-1.55415-.77707-.25902-.25902 1.0361 0Z"/>
<use data-text="D" xlink:href="#font_1_2" transform="matrix(9.9626,0,0,-9.962799,12.499001,7.726921)"/>
<path transform="matrix(1,0,0,-1.00002,16.762001,101.5918)" stroke-width=".3985" stroke-linecap="butt" stroke-miterlimit="10" stroke-linejoin="miter" fill="none" stroke="#000000" d="M34.01608 .85045V-.85031"/>
<path transform="matrix(1,0,0,-1.00002,16.762001,101.5918)" d="M30.52911-11.45511H37.50305V-3.0421296H30.52911Z" fill="#ffffff"/>
<use data-text="1" xlink:href="#font_2_2" transform="matrix(9.9626,0,0,-9.962799,48.287004,112.05101)"/>
<path transform="matrix(1,0,0,-1.00002,16.762001,101.5918)" stroke-width=".3985" stroke-linecap="butt" stroke-miterlimit="10" stroke-linejoin="miter" fill="none" stroke="#000000" d="M68.03217 .85045V-.85031"/>
<path transform="matrix(1,0,0,-1.00002,16.762001,101.5918)" d="M64.5452-11.45511H71.519138V-3.0421296H64.5452Z" fill="#ffffff"/>
<use data-text="2" xlink:href="#font_2_3" transform="matrix(9.9626,0,0,-9.962799,82.303,112.05101)"/>
<path transform="matrix(1,0,0,-1.00002,16.762001,101.5918)" stroke-width=".3985" stroke-linecap="butt" stroke-miterlimit="10" stroke-linejoin="miter" fill="none" stroke="#000000" d="M102.04825 .85045V-.85031"/>
<path transform="matrix(1,0,0,-1.00002,16.762001,101.5918)" d="M98.56128-11.45511H105.53522V-3.0421296H98.56128Z" fill="#ffffff"/>
<use data-text="3" xlink:href="#font_2_4" transform="matrix(9.9626,0,0,-9.962799,116.32,112.05101)"/>
<path transform="matrix(1,0,0,-1.00002,16.762001,101.5918)" stroke-width=".3985" stroke-linecap="butt" stroke-miterlimit="10" stroke-linejoin="miter" fill="none" stroke="#000000" d="M136.06433 .85045V-.85031"/>
<path transform="matrix(1,0,0,-1.00002,16.762001,101.5918)" d="M132.57736-11.45511H139.5513V-3.0421296H132.57736Z" fill="#ffffff"/>
<use data-text="4" xlink:href="#font_2_5" transform="matrix(9.9626,0,0,-9.962799,150.336,112.05101)"/>
<path transform="matrix(1,0,0,-1.00002,16.762001,101.5918)" stroke-width=".3985" stroke-linecap="butt" stroke-miterlimit="10" stroke-linejoin="miter" fill="none" stroke="#000000" d="M3.4018 42.52063H-3.40128"/>
<path transform="matrix(1,0,0,-1.00002,16.762001,101.5918)" d="M-12.56703 38.31413H-5.59309V46.727109H-12.56703Z" fill="#ffffff"/>
<use data-text="5" xlink:href="#font_2_6" transform="matrix(9.9626,0,0,-9.962799,5.191002,62.28101)"/>
<path transform="matrix(1,0,0,-1.00002,16.762001,101.5918)" stroke-width=".3985" stroke-linecap="butt" stroke-miterlimit="10" stroke-linejoin="miter" fill="none" stroke="#000000" d="M3.4018 85.04128H-3.40128"/>
<path transform="matrix(1,0,0,-1.00002,16.762001,101.5918)" d="M-17.54845 80.83478H-5.59311V89.24776H-17.54845Z" fill="#ffffff"/>
<use data-text="1" xlink:href="#font_2_2" transform="matrix(9.9626,0,0,-9.962799,.20999909,19.759156)"/>
<use data-text="0" xlink:href="#font_2_1" transform="matrix(9.9626,0,0,-9.962799,5.1912996,19.759156)"/>
<path transform="matrix(1,0,0,-1.00002,16.762001,101.5918)" stroke-width="1.19553" stroke-linecap="butt" stroke-miterlimit="10" stroke-linejoin="miter" fill="none" stroke="#ff0000" d="M0 0C0 0 1.45915 17.52377 2.01958 21.23618 2.58 24.94856 3.47878 25.44812 4.03918 26.75641 4.59961 28.06468 5.49835 29.70001 6.05878 30.66537 6.61919 31.63075 7.51796 32.93015 8.07838 33.71416 8.63881 34.49817 9.53757 35.6393 10.09798 36.31602 10.65842 36.99277 11.55716 37.9941 12.11758 38.59155 12.67801 39.18901 13.57675 40.08351 14.13719 40.62207 14.69762 41.16063 15.59637 41.97986 16.1568 42.47313 16.71721 42.96643 17.61597 43.72182 18.17639 44.1773 18.73682 44.63281 19.63557 45.33244 20.19598 45.75613 20.75641 46.17984 21.65517 46.83371 22.21559 47.23102 22.776 47.62833 23.67476 48.2442 24.23518 48.61961 24.79562 48.99501 25.69438 49.581 26.25479 49.93669 26.81522 50.2924 27.71396 50.84491 28.2744 51.18333 28.83482 51.52176 29.73357 52.0532 30.29399 52.37584 30.85442 52.69849 31.75319 53.20091 32.31361 53.50868 32.87402 53.81644 33.77277 54.29778 34.33319 54.59402 34.89362 54.89026 35.79239 55.35791 36.3528 55.6438 36.91322 55.92969 37.81197 56.37856 38.37239 56.65451 38.93282 56.9305 39.83157 57.36594 40.392 57.6328 40.95242 57.89964 41.8512 58.31987 42.4116 58.57785 42.97203 58.83585 43.87077 59.242 44.4312 59.49216 44.99162 59.74231 45.89038 60.138 46.4508 60.38078 47.01123 60.62357 47.90999 61.00613 48.47043 61.24202 49.03084 61.47789 49.92958 61.85092 50.49 62.0808 51.05043 62.31068 51.9492 62.67494 52.50961 62.89883 53.07004 63.12271 53.96878 63.47615 54.5292 63.6944 55.08961 63.91266 55.98839 64.25899 56.54881 64.47182 57.10924 64.68463 58.008 65.02046 58.56842 65.22832 59.12885 65.43617 60.02759 65.76654 60.58801 65.96992 61.14844 66.1733 62.0472 66.49547 62.60762 66.69412 63.16805 66.89279 64.0668 67.20686 64.62723 67.40172 65.18764 67.59657 66.0864 67.9068 66.64682 68.09854 67.20724 68.29028 68.106 68.5961 68.66641 68.7837 69.22685 68.97128 70.1256 69.26712 70.68602 69.45055 71.24643 69.63396 72.14519 69.92574 72.70563 70.10573 73.26605 70.2857 74.16481 70.57114 74.72522 70.74779 75.28564 70.92444 76.1844 71.2051 76.74483 71.37895 77.30525 71.55281 78.204 71.83002 78.76442 72.0009 79.32484 72.17178 80.22362 72.4424 80.78404 72.61052 81.34445 72.77864 82.2432 73.04727 82.80362 73.21263 83.36406 73.37798 84.26282 73.6398 84.82323 73.80226 85.38365 73.96474 86.2824 74.22379 86.84283 74.3836 87.40324 74.54343 88.302 74.79678 88.86243 74.95416 89.42285 75.11157 90.32162 75.36267 90.88203 75.51799 91.44246 75.67331 92.3412 75.92073 92.90163 76.07364 93.46205 76.22655 94.36081 76.46935 94.92123 76.62006 95.48166 76.77077 96.38043 77.01114 96.94086 77.15988 97.50127 77.30864 98.40001 77.5456 98.96043 77.69217 99.52086 77.83873 100.41963 78.07167 100.98004 78.21628 101.54047 78.36089 102.43921 78.59143 102.99963 78.73442 103.56004 78.8774 104.45882 79.10582 105.01924 79.24686 105.57967 79.3879 106.47842 79.61201 107.03885 79.75099 107.59927 79.88997 108.49802 80.1109 109.05844 80.24849 109.61887 80.38608 110.51762 80.60689 111.07805 80.74263 111.63847 80.87836 112.53723 81.09277 113.09766 81.22678 113.65807 81.36078 114.55682 81.57584 115.11725 81.70845 115.67767 81.84108 116.57643 82.05171 117.13686 82.1826 117.69728 82.31349 118.59602 82.5221 119.15645 82.65182 119.71686 82.78156 120.61563 82.98988 121.17606 83.11768 121.73648 83.24547 122.63524 83.44658 123.19565 83.57289 123.75607 83.69919 124.65483 83.90225 125.21526 84.02795 125.77568 84.15366 126.67442 84.35515 127.23485 84.4789 127.79529 84.60263 129.25447 84.91983 127.4243 84.52214"/>
<path transform="matrix(.97714,-.21233425,-.21233,-.97715958,144.1863,17.067963)" d="M1.27522 0C-.31879 .31879-1.91284 .9564-3.8257 2.07224-1.91284 .6376-1.91284-.6376-3.8257-2.07224-1.91284-.9564-.31879-.31879 1.27522 0Z" fill="#ff0000"/>
<path transform="matrix(.97714,-.21233425,-.21233,-.97715958,144.1863,17.067963)" stroke-width="1.19553" stroke-linecap="butt" stroke-linejoin="round" fill="none" stroke="#ff0000" d="M1.27522 0C-.31879 .31879-1.91284 .9564-3.8257 2.07224-1.91284 .6376-1.91284-.6376-3.8257-2.07224-1.91284-.9564-.31879-.31879 1.27522 0Z"/>
<path transform="matrix(1,0,0,-1.00002,16.762001,101.5918)" d="M49.01344 25.71162H107.460727V38.542573H49.01344Z" fill="#ffffff"/>
<use data-text="D" xlink:href="#font_1_2" transform="matrix(9.9626,0,0,-9.962799,67.768009,73.88724)" fill="#ff0000"/>
<use data-text="=" xlink:href="#font_2_8" transform="matrix(9.9626,0,0,-9.962799,79.061008,73.88724)" fill="#ff0000"/>
<use data-text="6" xlink:href="#font_2_7" transform="matrix(9.9626,0,0,-9.962799,89.561588,73.88724)" fill="#ff0000"/>
<use data-text="." xlink:href="#font_1_1" transform="matrix(9.9626,0,0,-9.962799,94.558,73.88724)" fill="#ff0000"/>
<use data-text="4" xlink:href="#font_2_5" transform="matrix(9.9626,0,0,-9.962799,97.326007,73.88724)" fill="#ff0000"/>
<use data-text="w" xlink:href="#font_1_3" transform="matrix(9.9626,0,0,-9.962799,102.30701,73.88724)" fill="#ff0000"/>
<use data-text="1" xlink:href="#font_3_1" transform="matrix(6.9738,0,0,-6.97394,109.707,70.27118)" fill="#ff0000"/>
<use data-text="/" xlink:href="#font_4_1" transform="matrix(6.9738,0,0,-6.97394,113.679,70.27118)" fill="#ff0000"/>
<use data-text="3" xlink:href="#font_3_2" transform="matrix(6.9738,0,0,-6.97394,117.761,70.27118)" fill="#ff0000"/>
</svg>
