<svg xmlns="http://www.w3.org/2000/svg" xmlns:xlink="http://www.w3.org/1999/xlink" version="1.1" width="208" height="143" viewBox="0 0 208 143">
<defs>
<path id="font_1_4" d="M.33399964 .30233766C.33999635 .32835389 .36299134 .42037965 .43299867 .42037965 .43798829 .42037965 .46199037 .42037965 .48298646 .40734864 .45498658 .402359 .43499757 .37734986 .43499757 .35334779 .43499757 .33735658 .44599916 .31835938 .47299195 .31835938 .49499513 .31835938 .5269928 .3363495 .5269928 .37635804 .5269928 .42837525 .46798707 .4423828 .43399049 .4423828 .37599183 .4423828 .34098817 .38935853 .32899476 .36634828 .3039856 .43237306 .25 .4423828 .22099304 .4423828 .116989139 .4423828 .05999756 .3133545 .05999756 .28834535 .05999756 .27833558 .069992069 .27833558 .07199097 .27833558 .07998657 .27833558 .08299255 .28033448 .084991458 .28933717 .11898804 .39535523 .18499756 .42037965 .21899414 .42037965 .23799134 .42037965 .272995 .4113617 .272995 .35334779 .272995 .32235719 .2559967 .25532533 .21899414 .11528015 .20298767 .053268434 .16799927 .011245728 .12399292 .011245728 .117996219 .011245728 .09498596 .011245728 .07398987 .024276734 .09899902 .029266358 .12098694 .05027771 .12098694 .07827759 .12098694 .105270389 .09899902 .11328125 .083999637 .11328125 .053985597 .11328125 .0289917 .08728027 .0289917 .055267335 .0289917 .009246826 .07899475-.0107421879 .12298584-.0107421879 .18899536-.0107421879 .22499085 .059280397 .22799683 .0652771 .23999024 .028274537 .27598573-.0107421879 .33599855-.0107421879 .43899537-.0107421879 .49598695 .118270877 .49598695 .14328003 .49598695 .1532898 .4869995 .1532898 .48399354 .1532898 .47499085 .1532898 .47299195 .14929199 .47099305 .14228821 .43798829 .03527832 .36999513 .011245728 .33799745 .011245728 .29899598 .011245728 .2829895 .043273927 .2829895 .07727051 .2829895 .09927368 .2889862 .121276859 .2999878 .16529846L.33399964 .30233766Z"/>
<path id="font_1_5" d="M.48599244 .38136292C.48999024 .39537049 .48999024 .39736939 .48999024 .40437318 .48999024 .42237855 .47599793 .43138124 .46099855 .43138124 .45098878 .43138124 .43499757 .42536927 .42599488 .41036988 .42399598 .405365 .41600038 .37435914 .4119873 .35635377 .40499879 .33035279 .397995 .30334474 .3919983 .27633668L.34700013 .09628296C.34298707 .08126831 .2999878 .011245728 .23399353 .011245728 .18299866 .011245728 .17199707 .055267335 .17199707 .0922699 .17199707 .1382904 .18899536 .20030213 .22299195 .28833009 .23899842 .3293457 .24299622 .3403473 .24299622 .36035157 .24299622 .405365 .21099854 .4423828 .16099549 .4423828 .06599426 .4423828 .0289917 .29733277 .0289917 .28833009 .0289917 .27833558 .038986207 .27833558 .040985109 .27833558 .050994874 .27833558 .051986696 .28033448 .056991579 .29634095 .083999637 .3903656 .12399292 .42037965 .1579895 .42037965 .1659851 .42037965 .18299866 .42037965 .18299866 .3883667 .18299866 .36335755 .17298889 .3373413 .1659851 .31834413 .12599182 .21231079 .10798645 .1552887 .10798645 .10827637 .10798645 .019256592 .17098999-.0107421879 .22999573-.0107421879 .2689972-.0107421879 .30299378 .0062561037 .33099366 .03425598 .31799317-.017745972 .30599977-.06674194 .2659912-.11973572 .23999024-.15385437 .20199585-.18309021 .1559906-.18309021 .14199829-.18309021 .09700012-.18005371 .07998657-.14074707 .09599304-.14074707 .10899353-.14074707 .12298584-.1287384 .1329956-.11973572 .14299011-.10673523 .14299011-.08773804 .14299011-.056747438 .115997318-.052734376 .10598755-.052734376 .08299255-.052734376 .049987794-.068740848 .049987794-.11773682 .049987794-.16796875 .09399414-.20507813 .1559906-.20507813 .25898744-.20507813 .3619995-.11373901 .3899994-.00074768069L.48599244 .38136292Z"/>
<path id="font_2_1" d="M.6589966 .23046875C.6759949 .23046875 .69400027 .23046875 .69400027 .25045777 .69400027 .27046205 .6759949 .27046205 .6589966 .27046205H.117996219C.100997928 .27046205 .08299255 .27046205 .08299255 .25045777 .08299255 .23046875 .100997928 .23046875 .117996219 .23046875H.6589966Z"/>
<path id="font_3_5" d="M.1269989 .07699585 .23298645 .18003845C.3889923 .31811524 .44898988 .3721466 .44898988 .47216798 .44898988 .5860901 .35899354 .6660156 .23699951 .6660156 .12399292 .6660156 .049987794 .57411196 .049987794 .48516847 .049987794 .4291687 .099990848 .4291687 .102996829 .4291687 .11999512 .4291687 .15499878 .44117738 .15499878 .48217774 .15499878 .5081787 .13699341 .5341797 .101989749 .5341797 .09399414 .5341797 .09199524 .5341797 .08898926 .5331726 .11199951 .59806826 .1659851 .63500979 .22399903 .63500979 .31498719 .63500979 .35798646 .5541382 .35798646 .47216798 .35798646 .39215089 .30799867 .31311036 .25299073 .25108338L.06098938 .036987306C.049987794 .025985718 .049987794 .023986817 .049987794 0H.42099L.44898988 .17404175H.42399598C.4189911 .14402771 .4119873 .1000061 .4019928 .084991458 .394989 .07699585 .32899476 .07699585 .30699159 .07699585H.1269989Z"/>
<path id="font_3_6" d="M.2939911 .16503906V.07800293C.2939911 .041992189 .2919922 .0309906 .21798706 .0309906H.19699097V0C.23799134 .0029907227 .2899933 .0029907227 .33198548 .0029907227 .37399293 .0029907227 .4269867 .0029907227 .46798707 0V.0309906H.44699098C.37298585 .0309906 .37098695 .041992189 .37098695 .07800293V.16503906H.47099305V.19602967H.37098695V.65075686C.37098695 .67074587 .37098695 .6767578 .35499574 .6767578 .34599305 .6767578 .34298707 .6767578 .33499146 .66474917L.027999878 .19602967V.16503906H.2939911M.2999878 .19602967H.055999757L.2999878 .5688019V.19602967Z"/>
<path id="font_3_7" d="M.13198853 .327713V.35173036C.13198853 .6047821 .2559967 .64100649 .30699159 .64100649 .33099366 .64100649 .37298585 .634964 .394989 .6007538 .37998963 .6007538 .33999635 .6007538 .33999635 .5557556 .33999635 .524765 .3639984 .5097656 .38598634 .5097656 .4019928 .5097656 .43199159 .51875308 .43199159 .5577545 .43199159 .6178589 .3880005 .6660156 .30499269 .6660156 .1769867 .6660156 .041992189 .5367584 .041992189 .31570436 .041992189 .048553468 .1579895-.022460938 .25099183-.022460938 .3619995-.022460938 .45700074 .07156372 .45700074 .2036438 .45700074 .33070375 .36799623 .4267578 .25698854 .4267578 .18899536 .4267578 .1519928 .37573243 .13198853 .327713M.25099183 .0055389406C.18798828 .0055389406 .1579895 .06556702 .1519928 .080566409 .13398743 .127594 .13398743 .2076416 .13398743 .22564698 .13398743 .30369569 .1659851 .40374757 .2559967 .40374757 .27198792 .40374757 .31799317 .40374757 .34899903 .34172059 .36698915 .30470277 .36698915 .2536621 .36698915 .20463562 .36698915 .15661621 .36698915 .10658264 .34999085 .0705719 .31999208 .010528564 .27398683 .0055389406 .25099183 .0055389406Z"/>
<path id="font_3_4" d="M.2939911 .64004519C.2939911 .66400149 .2939911 .6660156 .2709961 .6660156 .20899964 .60227969 .12098694 .60227969 .08898926 .60227969V.57128909C.10899353 .57128909 .16799927 .57128909 .21998596 .5972748V.07902527C.21998596 .042999269 .21699524 .0309906 .1269989 .0309906H.09498596V0C.12998963 .0029907227 .21699524 .0029907227 .25698854 .0029907227 .29699708 .0029907227 .38398744 .0029907227 .4189911 0V.0309906H.3869934C.29699708 .0309906 .2939911 .041992189 .2939911 .07902527V.64004519Z"/>
<path id="font_3_3" d="M.45999146 .31976319C.45999146 .39982606 .45498658 .47988893 .41999818 .5539398 .37399293 .65000918 .2919922 .6660156 .25 .6660156 .18998719 .6660156 .116989139 .64001467 .07598877 .54693606 .04399109 .47789 .038986207 .39982606 .038986207 .31976319 .038986207 .24472046 .042999269 .15464783 .083999637 .07859802 .1269989-.0024719239 .19999695-.022460938 .24899292-.022460938 .30299378-.022460938 .3789978-.0014648438 .4229889 .09359741 .45498658 .16265869 .45999146 .2407074 .45999146 .31976319M.24899292-.00047302247C.20999146-.00047302247 .15098572 .024551392 .1329956 .12062073 .12199402 .18066406 .12199402 .2727356 .12199402 .3317871 .12199402 .39582826 .12199402 .46188355 .12998963 .5159149 .14898682 .63500979 .22399903 .64401248 .24899292 .64401248 .28199769 .64401248 .34799195 .6259918 .36698915 .52693179 .3769989 .47088624 .3769989 .39482118 .3769989 .3317871 .3769989 .25672914 .3769989 .18867493 .3659973 .12461853 .35099793 .029556275 .2939911-.00047302247 .24899292-.00047302247Z"/>
<path id="font_3_8" d="M.68699648 .32714845C.70199587 .32714845 .72099307 .32714845 .72099307 .34713746 .72099307 .36714173 .70199587 .36714173 .6879883 .36714173H.08898926C.07499695 .36714173 .055999757 .36714173 .055999757 .34713746 .055999757 .32714845 .07499695 .32714845 .08999634 .32714845H.68699648M.6879883 .13284302C.70199587 .13284302 .72099307 .13284302 .72099307 .15284729 .72099307 .17285156 .70199587 .17285156 .68699648 .17285156H.08999634C.07499695 .17285156 .055999757 .17285156 .055999757 .15284729 .055999757 .13284302 .07499695 .13284302 .08898926 .13284302H.6879883Z"/>
<path id="font_1_1" d="M.18699646 .23144531C.21598816 .23144531 .2899933 .23344422 .33999635 .2544403 .4099884 .28442384 .4149933 .34339906 .4149933 .35740663 .4149933 .40138246 .3769989 .4423828 .30799867 .4423828 .19699097 .4423828 .04598999 .34539796 .04598999 .17037964 .04598999 .06829834 .10499573-.0107421879 .20298767-.0107421879 .34599305-.0107421879 .42999269 .095321658 .42999269 .10733032 .42999269 .113342288 .42399598 .12034607 .41799928 .12034607 .41299439 .12034607 .41099549 .11834717 .40499879 .1103363 .32598878 .011245728 .21699524 .011245728 .20498657 .011245728 .1269989 .011245728 .117996219 .095321658 .117996219 .12734986 .117996219 .13935852 .11898804 .17037964 .13398743 .23144531H.18699646M.13999939 .25343324C.1789856 .40538026 .28199769 .42037965 .30799867 .42037965 .35499574 .42037965 .38198854 .39138795 .38198854 .35740663 .38198854 .25343324 .22200012 .25343324 .18099976 .25343324H.13999939Z"/>
<path id="font_4_2" d="M.24899292 .10601807C.23899842 .072021488 .20599365 .018234253 .15499878 .018234253 .1519928 .018234253 .12199402 .018234253 .100997928 .03215027 .14199829 .04508972 .14498902 .08100891 .14498902 .087020877 .14498902 .10900879 .12799073 .12402344 .10499573 .12402344 .07699585 .12402344 .04798889 .10002136 .04798889 .0630188 .04798889 .01322937 .10398865-.009765625 .15299988-.009765625 .19898987-.009765625 .23999024 .019226075 .2649994 .061019899 .2889862 .008224487 .34399415-.009765625 .38398744-.009765625 .49899293-.009765625 .55999758 .11502075 .55999758 .14305115 .55999758 .15608216 .5469971 .15608216 .5439911 .15608216 .5299988 .15608216 .5289917 .15107727 .5249939 .13905335 .5039978 .07002258 .44400025 .018234253 .3880005 .018234253 .34799195 .018234253 .32699586 .04508972 .32699586 .08302307 .32699586 .10900879 .35099793 .20018006 .3789978 .31140138 .39898683 .38841249 .44400025 .4133911 .47698976 .4133911 .47898866 .4133911 .5099945 .4133911 .5309906 .39941407 .49899293 .39041139 .4869995 .3624115 .4869995 .34440614 .4869995 .32240296 .5039978 .30740357 .5269928 .30740357 .5499878 .30740357 .58299258 .32640077 .58299258 .3684082 .58299258 .4243927 .5189972 .44140626 .47898866 .44140626 .42900086 .44140626 .3889923 .4084015 .36698915 .3704071 .34899903 .4113922 .30299378 .44140626 .24699402 .44140626 .1349945 .44140626 .070999149 .31840516 .070999149 .2883606 .070999149 .27534486 .084991458 .27534486 .08799744 .27534486 .100997928 .27534486 .101989749 .27934266 .10699463 .29237367 .13198853 .3704071 .19499207 .4133911 .24398804 .4133911 .2769928 .4133911 .3039856 .395401 .3039856 .3474121 .3039856 .32740785 .2919922 .27734376 .2829895 .24327088L.24899292 .10601807Z"/>
<path id="font_1_2" d="M.47099305 .3773346C.47200013 .3833313 .47399903 .38833619 .47399903 .39535523 .47399903 .41236878 .46199037 .42237855 .44499208 .42237855 .43499757 .42237855 .4079895 .41537477 .4039917 .3793335 .38598634 .41636659 .35099793 .4423828 .31098939 .4423828 .19699097 .4423828 .07299805 .30226136 .07299805 .15812683 .07299805 .059020997 .13398743 0 .20599365 0 .2649994 0 .31199647 .04701233 .32199098 .058029176L.32299806 .057022096C.3019867-.031982423 .2899933-.07295227 .2899933-.07495117 .28599549-.08395386 .2519989-.18309021 .1459961-.18309021 .1269989-.18309021 .09399414-.18206787 .06599426-.17297364 .09599304-.16394043 .10699463-.13793946 .10699463-.12094116 .10699463-.10494995 .09599304-.0859375 .068984989-.0859375 .04699707-.0859375 .01499939-.10394287 .01499939-.14395142 .01499939-.18508911 .051986696-.20507813 .147995-.20507813 .272995-.20507813 .34498597-.12693787 .3600006-.06695557L.47099305 .3773346M.34098817 .12809754C.33499146 .10206604 .31199647 .077041629 .2899933 .058029176 .2689972 .040008546 .23799134 .021987915 .20899964 .021987915 .15899658 .021987915 .14399719 .074035648 .14399719 .11407471 .14399719 .16212464 .17298889 .28024293 .19999695 .33128358 .22698975 .38034059 .269989 .42037965 .31199647 .42037965 .37799073 .42037965 .3919983 .33929444 .3919983 .33428956 .3919983 .32928468 .3899994 .3232727 .3889923 .3192749L.34098817 .12809754Z"/>
<path id="font_3_1" d="M.33099366-.2400055C.33099366-.23701477 .33099366-.23500061 .31399537-.21800232 .18899536-.0920105 .15699768 .09700012 .15699768 .25 .15699768 .42399598 .19499207 .59799197 .31799317 .72299197 .33099366 .73498538 .33099366 .7369995 .33099366 .73999026 .33099366 .746994 .32699586 .75 .32099916 .75 .31098939 .75 .22099304 .6819916 .1619873 .5549927 .11099243 .44499208 .09899902 .33399964 .09899902 .25 .09899902 .17199707 .10998535 .050994874 .16499329-.06201172 .22499085-.18501282 .31098939-.25 .32099916-.25 .32699586-.25 .33099366-.24700928 .33099366-.2400055Z"/>
<path id="font_3_2" d="M.2889862 .25C.2889862 .32798768 .27799989 .44898988 .22299195 .56199648 .16299439 .68499758 .07699585 .75 .066986087 .75 .06098938 .75 .056991579 .74598696 .056991579 .73999026 .056991579 .7369995 .056991579 .73498538 .07598877 .71699526 .17399597 .6179962 .23098755 .45899964 .23098755 .25 .23098755 .07899475 .19400025-.09700012 .069992069-.2230072 .056991579-.23500061 .056991579-.23701477 .056991579-.2400055 .056991579-.2460022 .06098938-.25 .066986087-.25 .07699585-.25 .16699219-.18200684 .22599793-.055007936 .2769928 .054992677 .2889862 .16600037 .2889862 .25Z"/>
<path id="font_5_1" d="M.5159912 .31925965C.5159912 .42918397 .5029907 .50813296 .45700074 .5780945 .42599488 .62405398 .3639984 .6640625 .28399659 .6640625 .051986696 .6640625 .051986696 .39120484 .051986696 .31925965 .051986696 .2472992 .051986696-.01953125 .28399659-.01953125 .5159912-.01953125 .5159912 .2472992 .5159912 .31925965M.28399659 .008468628C.23799134 .008468628 .1769867 .035446168 .15699768 .117385867 .14299011 .17634583 .14299011 .25830079 .14299011 .33224488 .14299011 .40519715 .14299011 .4811554 .1579895 .53611758 .1789856 .6150665 .24299622 .63604739 .28399659 .63604739 .33799745 .63604739 .3899994 .6030731 .4079895 .545105 .42399598 .4911499 .4249878 .41918946 .4249878 .33224488 .4249878 .25830079 .4249878 .18434143 .4119873 .12138367 .3919983 .030441285 .32398988 .008468628 .28399659 .008468628Z"/>
<path id="font_4_1" d="M.22698975 .056991579C.22698975 .09298706 .19699097 .114990238 .16999817 .114990238 .13699341 .114990238 .11199951 .08799744 .11199951 .057998659 .11199951 .021987915 .14199829 0 .16899109 0 .20199585 0 .22698975 .026992798 .22698975 .056991579Z"/>
<path id="font_5_2" d="M.15499878 .5588074C.20599365 .5458069 .23599243 .5458069 .2519989 .5458069 .38398744 .5458069 .46199037 .6358032 .46199037 .6508026 .46199037 .6618042 .45498658 .6648102 .44999696 .6648102 .44799806 .6648102 .44599916 .6648102 .44198609 .6618042 .41799928 .6528015 .36499024 .6328125 .29100038 .6328125 .2630005 .6328125 .20999146 .6348114 .14498902 .6598053 .1349945 .6648102 .1329956 .6648102 .13198853 .6648102 .11898804 .6648102 .11898804 .6538086 .11898804 .6378021V.34251405C.11898804 .32548524 .11898804 .3134613 .1349945 .3134613 .14399719 .3134613 .14498902 .3154602 .15499878 .32748414 .19799805 .38259889 .25898744 .390625 .2939911 .390625 .35398866 .390625 .3809967 .34251405 .38598634 .33450318 .4039917 .30143739 .4099884 .26335145 .4099884 .20524597 .4099884 .17524719 .4099884 .116256717 .37998963 .07234192 .35499574 .03640747 .31199647 .012466431 .2630005 .012466431 .19799805 .012466431 .1309967 .04838562 .10598755 .11425781 .14399719 .11125183 .16299439 .13624573 .16299439 .16325379 .16299439 .20625305 .12599182 .21424866 .11299133 .21424866 .11099243 .21424866 .06298828 .21424866 .06298828 .1602478 .06298828 .07034302 .14498902-.01953125 .2649994-.01953125 .3929901-.01953125 .5049896 .07533264 .5049896 .20124817 .5049896 .31445313 .4189911 .41862489 .29499818 .41862489 .25099183 .41862489 .19898987 .4076233 .15499878 .36956788V.5588074Z"/>
<path id="font_1_3" d="M.2869873 .68333438C.2869873 .6843262 .2869873 .69433596 .27398683 .69433596 .25099183 .69433596 .17799378 .6863251 .1519928 .6843262 .14399719 .68333438 .1329956 .6823273 .1329956 .6643219 .1329956 .6523285 .14199829 .6523285 .15699768 .6523285 .20498657 .6523285 .20698548 .6453247 .20698548 .6353302L.20399475 .6153412 .05899048 .039260866C.054992677 .025253296 .054992677 .023254395 .054992677 .01725769 .054992677-.0057525637 .07499695-.0107421879 .083999637-.0107421879 .099990848-.0107421879 .115997318 .0012512207 .12098694 .015258789L.13999939 .091278079 .1619873 .18130493C.16799927 .2033081 .17399597 .22531128 .1789856 .24832154 .18099976 .25431825 .18899536 .28733827 .18998719 .29333497 .19299317 .30233766 .22399903 .35835267 .2579956 .38536073 .27999879 .4013672 .31098939 .42037965 .35398866 .42037965 .39698792 .42037965 .4079895 .3863678 .4079895 .35035707 .4079895 .29634095 .36999513 .18730164 .34599305 .12628174 .33799745 .103271488 .33299256 .091278079 .33299256 .0712738 .33299256 .024261475 .36799623-.0107421879 .4149933-.0107421879 .5089874-.0107421879 .54599 .13528443 .54599 .14329529 .54599 .1532898 .5369873 .1532898 .5339966 .1532898 .5239868 .1532898 .5239868 .15029907 .5189972 .13528443 .5039978 .08227539 .47200013 .011245728 .4169922 .011245728 .3999939 .011245728 .3929901 .021255494 .3929901 .044265748 .3929901 .0692749 .4019928 .09327698 .41099549 .11528015 .4269867 .15829468 .47200013 .2773285 .47200013 .3353424 .47200013 .4003601 .43199159 .4423828 .35699464 .4423828 .2939911 .4423828 .24598694 .41137696 .20899964 .36535646L.2869873 .68333438Z"/>
<path id="font_6_1" d="M.74398806 .2263794C.7599945 .2263794 .7839966 .2263794 .7839966 .25038148 .7839966 .27539063 .7609863 .27539063 .74398806 .27539063H.147995C.13198853 .27539063 .10798645 .27539063 .10798645 .25138856 .10798645 .2263794 .1309967 .2263794 .147995 .2263794H.74398806Z"/>
</defs>
<path transform="matrix(1.00002,0,0,-1.00005,96.877658,132.05895)" stroke-width=".3985" stroke-linecap="butt" stroke-miterlimit="10" stroke-linejoin="miter" fill="none" stroke="#cbcbcb" d="M-85.04128 0H85.04128M-85.04128 11.33855H85.04128M-85.04128 22.6771H85.04128M-85.04128 34.01564H85.04128M-85.04128 45.35419H85.04128M-85.04128 56.69275H85.04128M-85.04128 68.0313H85.04128M-85.04128 79.36984H85.04128M-85.04128 90.70839H85.04128M-85.04128 102.04694H85.04128M-85.04128 113.38152H85.04128M-85.04128 0V113.3855M-68.03302 0V113.3855M-51.02477 0V113.3855M-34.0165 0V113.3855M-17.00824 0V113.3855M0 0V113.3855M17.00824 0V113.3855M34.0165 0V113.3855M51.02477 0V113.3855M68.03302 0V113.3855M85.0353 0V113.3855M85.04128 113.3855"/>
<path transform="matrix(1.00002,0,0,-1.00005,96.877658,132.05895)" stroke-width=".79701" stroke-linecap="butt" stroke-miterlimit="10" stroke-linejoin="miter" fill="none" stroke="#000000" d="M-85.04128 0H93.81172"/>
<path transform="matrix(1.00002,0,0,-1.00005,190.69126,132.05895)" d="M1.0361 0C-.25902 .25902-1.55415 .77707-3.1083 1.68365-1.55415 .51805-1.55415-.51805-3.1083-1.68365-1.55415-.77707-.25902-.25902 1.0361 0Z"/>
<path transform="matrix(1.00002,0,0,-1.00005,190.69126,132.05895)" stroke-width=".79701" stroke-linecap="butt" stroke-linejoin="round" fill="none" stroke="#000000" d="M1.0361 0C-.25902 .25902-1.55415 .77707-3.1083 1.68365-1.55415 .51805-1.55415-.51805-3.1083-1.68365-1.55415-.77707-.25902-.25902 1.0361 0Z"/>
<use data-text="x" xlink:href="#font_1_4" transform="matrix(9.962799,0,0,-9.963098,195.84464,134.20406)"/>
<path transform="matrix(1.00002,0,0,-1.00005,96.877658,132.05895)" stroke-width=".79701" stroke-linecap="butt" stroke-miterlimit="10" stroke-linejoin="miter" fill="none" stroke="#000000" d="M0 0V118.75407"/>
<path transform="matrix(0,-1.00005,-1.00002,-0,96.877658,13.29895)" d="M1.0361 0C-.25902 .25902-1.55415 .77707-3.1083 1.68365-1.55415 .51805-1.55415-.51805-3.1083-1.68365-1.55415-.77707-.25902-.25902 1.0361 0Z"/>
<path transform="matrix(0,-1.00005,-1.00002,-0,96.877658,13.29895)" stroke-width=".79701" stroke-linecap="butt" stroke-linejoin="round" fill="none" stroke="#000000" d="M1.0361 0C-.25902 .25902-1.55415 .77707-3.1083 1.68365-1.55415 .51805-1.55415-.51805-3.1083-1.68365-1.55415-.77707-.25902-.25902 1.0361 0Z"/>
<use data-text="y" xlink:href="#font_1_5" transform="matrix(9.962799,0,0,-9.963098,94.2566,6.207657)"/>
<path transform="matrix(1.00002,0,0,-1.00005,96.877658,132.05895)" stroke-width=".3985" stroke-linecap="butt" stroke-miterlimit="10" stroke-linejoin="miter" fill="none" stroke="#000000" d="M-34.0165 1.13391V-1.13374"/>
<path transform="matrix(1.00002,0,0,-1.00005,96.877658,132.05895)" d="M-41.3779-11.5725H-26.655119V-2.3292704H-41.3779Z" fill="#ffffff"/>
<use data-text="&#x2212;" xlink:href="#font_2_1" transform="matrix(9.962799,0,0,-9.963098,56.494844,141.80544)"/>
<use data-text="2" xlink:href="#font_3_5" transform="matrix(9.962799,0,0,-9.963098,64.24399,141.80544)"/>
<path transform="matrix(1.00002,0,0,-1.00005,96.877658,132.05895)" stroke-width=".3985" stroke-linecap="butt" stroke-miterlimit="10" stroke-linejoin="miter" fill="none" stroke="#000000" d="M34.0165 1.13391V-1.13374"/>
<path transform="matrix(1.00002,0,0,-1.00005,96.877658,132.05895)" d="M30.52953-10.74226H37.50347V-2.32928H30.52953Z" fill="#ffffff"/>
<use data-text="2" xlink:href="#font_3_5" transform="matrix(9.962799,0,0,-9.963098,128.40428,141.80544)"/>
<path transform="matrix(1.00002,0,0,-1.00005,96.877658,132.05895)" stroke-width=".3985" stroke-linecap="butt" stroke-miterlimit="10" stroke-linejoin="miter" fill="none" stroke="#000000" d="M-68.03302 1.13391V-1.13374"/>
<path transform="matrix(1.00002,0,0,-1.00005,96.877658,132.05895)" d="M-75.39442-11.5725H-60.67164V-2.3292704H-75.39442Z" fill="#ffffff"/>
<use data-text="&#x2212;" xlink:href="#font_2_1" transform="matrix(9.962799,0,0,-9.963098,22.478165,141.80544)"/>
<use data-text="4" xlink:href="#font_3_6" transform="matrix(9.962799,0,0,-9.963098,30.22731,141.80544)"/>
<path transform="matrix(1.00002,0,0,-1.00005,96.877658,132.05895)" stroke-width=".3985" stroke-linecap="butt" stroke-miterlimit="10" stroke-linejoin="miter" fill="none" stroke="#000000" d="M68.03302 1.13391V-1.13374"/>
<path transform="matrix(1.00002,0,0,-1.00005,96.877658,132.05895)" d="M64.54605-10.74226H71.51999V-2.32928H64.54605Z" fill="#ffffff"/>
<use data-text="4" xlink:href="#font_3_6" transform="matrix(9.962799,0,0,-9.963098,162.42096,141.80544)"/>
<path transform="matrix(1.00002,0,0,-1.00005,96.877658,132.05895)" stroke-width=".3985" stroke-linecap="butt" stroke-miterlimit="10" stroke-linejoin="miter" fill="none" stroke="#000000" d="M1.70091 22.6771H-1.70065"/>
<path transform="matrix(1.00002,0,0,-1.00005,96.877658,132.05895)" d="M-12.85895 17.47432H-3.8924599V27.879849H-12.85895Z" fill="#ffffff"/>
<use data-text="2" xlink:href="#font_3_5" transform="matrix(9.962799,0,0,-9.963098,86.01144,112.59097)"/>
<path transform="matrix(1.00002,0,0,-1.00005,96.877658,132.05895)" stroke-width=".3985" stroke-linecap="butt" stroke-miterlimit="10" stroke-linejoin="miter" fill="none" stroke="#000000" d="M1.70091 68.0313H-1.70065"/>
<path transform="matrix(1.00002,0,0,-1.00005,96.877658,132.05895)" d="M-12.85895 62.82852H-3.8924599V73.234058H-12.85895Z" fill="#ffffff"/>
<use data-text="6" xlink:href="#font_3_7" transform="matrix(9.962799,0,0,-9.963098,86.01144,67.23471)"/>
<path transform="matrix(1.00002,0,0,-1.00005,96.877658,132.05895)" stroke-width=".3985" stroke-linecap="butt" stroke-miterlimit="10" stroke-linejoin="miter" fill="none" stroke="#000000" d="M1.70091 113.3855H-1.70065"/>
<path transform="matrix(1.00002,0,0,-1.00005,96.877658,132.05895)" d="M-17.84036 108.18272H-3.8924704V118.58825H-17.84036Z" fill="#ffffff"/>
<use data-text="1" xlink:href="#font_3_4" transform="matrix(9.962799,0,0,-9.963098,81.029338,21.87844)"/>
<use data-text="0" xlink:href="#font_3_3" transform="matrix(9.962799,0,0,-9.963098,86.01072,21.87844)"/>
<path transform="matrix(1.00002,0,0,-1.00005,96.877658,132.05895)" stroke-width=".79701" stroke-linecap="butt" stroke-miterlimit="10" stroke-linejoin="miter" fill="none" stroke="#ff0000" d="M-83.60674 .08301C-83.63927 .08292-83.63927 .08292-83.1008 .08563-82.56233 .08833-81.69879 .0928-81.16032 .09583-80.62186 .09885-79.75833 .10406-79.21986 .10742-78.68138 .11078-77.81786 .11624-77.27939 .12006-76.74092 .12387-75.87738 .13068-75.33891 .13493-74.80046 .13918-73.9369 .14598-73.39844 .15068-72.85999 .15536-71.99644 .16348-71.45798 .16884-70.9195 .1742-70.05597 .18312-69.5175 .18925-68.97903 .1954-68.1155 .20636-67.57703 .21312-67.03856 .21991-66.17502 .23051-65.63655 .23804-65.09808 .24557-64.23456 .25896-63.69609 .26746-63.15762 .27596-62.29408 .28984-61.75562 .29929-61.21716 .30875-60.3536 .32492-59.81514 .33562-59.27667 .34633-58.41313 .36433-57.87466 .37645-57.3362 .38858-56.47267 .40948-55.9342 .42299-55.39572 .43651-54.5322 .45894-53.99373 .47386-53.45526 .4888-52.59172 .51376-52.05325 .53062-51.5148 .54745-50.65125 .57643-50.11278 .59532-49.57433 .6142-48.71078 .64552-48.17232 .66676-47.63383 .688-46.77031 .72467-46.23184 .74843-45.69337 .77219-44.82983 .81146-44.29137 .83806-43.7529 .86465-42.88936 .91026-42.35089 .94012-41.81242 .97002-40.9489 1.02011-40.41043 1.05345-39.87196 1.08679-39.00842 1.143-38.46996 1.18045-37.9315 1.2179-37.06795 1.28133-36.52948 1.32335-35.99101 1.36539-35.12747 1.43634-34.589 1.48338-34.05054 1.53044-33.18701 1.6096-32.64853 1.66246-32.11006 1.7153-31.24654 1.80519-30.70807 1.86436-30.1696 1.92352-29.30606 2.02269-28.7676 2.08894-28.22914 2.1552-27.36559 2.26744-26.82712 2.34189-26.28867 2.41632-25.42513 2.5422-24.88664 2.62544-24.34818 2.7087-23.48465 2.84859-22.94618 2.9419-22.40771 3.03519-21.54417 3.19316-21.0057 3.29796-20.46724 3.40273-19.6037 3.57971-19.06523 3.69708-18.52676 3.81447-17.66324 4.01257-17.12476 4.14398-16.5863 4.27538-15.72276 4.49686-15.1843 4.64415-14.64584 4.79144-13.78229 5.04036-13.24382 5.2056-12.70535 5.3708-11.84181 5.64981-11.30334 5.83499-10.76488 6.0202-9.90135 6.33298-9.36287 6.54039-8.8244 6.74779-7.96088 7.09724-7.42241 7.32982-6.88396 7.56241-6.0204 7.95595-5.48193 8.21669-4.94348 8.47743-4.07993 8.91705-3.54146 9.20909-3.003 9.50114-2.13947 9.99443-1.60098 10.32156-1.06252 10.64871-.19899 11.2002 .33943 11.56691 .8779 11.93361 1.74144 12.5532 2.2799 12.9645 2.81837 13.37581 3.68192 14.07033 4.22038 14.53131 4.75885 14.9923 5.62239 15.77032 6.16086 16.28705 6.69933 16.80374 7.56285 17.67622 8.10132 18.25542 8.6398 18.83458 9.50334 19.81216 10.0418 20.4613 10.58026 21.11046 11.44382 22.20634 11.98227 22.934 12.52074 23.66167 13.38428 24.89023 13.92274 25.70584 14.46121 26.52145 15.32474 27.89839 15.8632 28.81245 16.40169 29.72652 17.26521 31.26932 17.80368 32.29381 18.34215 33.3183 19.20569 35.04787 19.74416 36.19629 20.28262 37.34471 21.14616 39.28374 21.68463 40.5709 22.2231 41.85806 23.08664 44.03044 23.62509 45.47322 24.16357 46.916 25.0271 49.35228 25.56557 50.96948 26.10403 52.58669 26.96758 55.3165 27.50604 57.1289 28.04451 58.94131 28.90805 62.0005 29.44652 64.03209 29.98499 66.0637 30.84851 69.49411 31.38698 71.7713 31.92546 74.0485 32.78899 77.89247 33.32745 80.4446 33.86592 82.99673 34.72948 87.30473 35.26793 90.1653 35.8064 93.02586 36.66994 97.85506 37.2084 101.06163 37.74687 104.26822 39.14886 113.27615 38.92828 111.85867"/>
<path transform="matrix(-.99997,.0047002348,.004700094,.99999997,13.269264,131.97594)" d="M1.0361 0C-.25902 .25902-1.55415 .77707-3.1083 1.68365-1.55415 .51805-1.55415-.51805-3.1083-1.68365-1.55415-.77707-.25902-.25902 1.0361 0Z" fill="#ff0000"/>
<path transform="matrix(-.99997,.0047002348,.004700094,.99999997,13.269264,131.97594)" stroke-width=".79701" stroke-linecap="butt" stroke-linejoin="round" fill="none" stroke="#ff0000" d="M1.0361 0C-.25902 .25902-1.55415 .77707-3.1083 1.68365-1.55415 .51805-1.55415-.51805-3.1083-1.68365-1.55415-.77707-.25902-.25902 1.0361 0Z"/>
<path transform="matrix(.15376309,-.98811939,-.9880898,-.15376768,135.80672,20.194703)" d="M1.0361 0C-.25902 .25902-1.55415 .77707-3.1083 1.68365-1.55415 .51805-1.55415-.51805-3.1083-1.68365-1.55415-.77707-.25902-.25902 1.0361 0Z" fill="#ff0000"/>
<path transform="matrix(.15376309,-.98811939,-.9880898,-.15376768,135.80672,20.194703)" stroke-width=".79701" stroke-linecap="butt" stroke-linejoin="round" fill="none" stroke="#ff0000" d="M1.0361 0C-.25902 .25902-1.55415 .77707-3.1083 1.68365-1.55415 .51805-1.55415-.51805-3.1083-1.68365-1.55415-.77707-.25902-.25902 1.0361 0Z"/>
<use data-text="y" xlink:href="#font_1_5" transform="matrix(9.962799,0,0,-9.963098,121.93716,13.121002)" fill="#ff0000"/>
<use data-text="=" xlink:href="#font_3_8" transform="matrix(9.962799,0,0,-9.963098,129.9473,13.121002)" fill="#ff0000"/>
<use data-text="e" xlink:href="#font_1_1" transform="matrix(9.962799,0,0,-9.963098,140.46353,13.121002)" fill="#ff0000"/>
<use data-text="x" xlink:href="#font_4_2" transform="matrix(6.97394,0,0,-6.9741489,145.10263,9.505829)" fill="#ff0000"/>
<path transform="matrix(1.00002,0,0,-1.00005,96.877658,132.05895)" stroke-width=".79701" stroke-linecap="butt" stroke-miterlimit="10" stroke-linejoin="miter" fill="none" stroke="#0000ff" d="M-83.6073 .9699C-83.19714 .98149-83.19714 .98149-82.48885 1.00241-81.78055 1.02335-80.6447 1.05814-79.9364 1.0808-79.22813 1.10344-78.09227 1.14136-77.38397 1.16574-76.67569 1.19012-75.53984 1.23045-74.83154 1.25658-74.12326 1.28268-72.9874 1.32584-72.2791 1.35399-71.57083 1.38214-70.43497 1.42899-69.72668 1.45952-69.01839 1.49005-67.88252 1.54117-67.17424 1.57405-66.46596 1.60693-65.3301 1.66132-64.62183 1.69655-63.91353 1.73178-62.77768 1.78996-62.06938 1.82803-61.36108 1.86609-60.22523 1.9297-59.51695 1.97095-58.80867 2.01218-57.6728 2.08089-56.96451 2.12527-56.25623 2.16965-55.12038 2.24316-54.41208 2.29083-53.7038 2.33852-52.56793 2.41739-51.85965 2.46887-51.15137 2.52034-50.0155 2.60623-49.30722 2.66179-48.59892 2.71733-47.46307 2.80945-46.75479 2.86923-46.04651 2.92899-44.91063 3.02823-44.20236 3.09258-43.49406 3.15692-42.3582 3.26367-41.64992 3.33307-40.94162 3.40247-39.80577 3.51787-39.09749 3.59276-38.3892 3.66765-37.25334 3.79214-36.54506 3.87286-35.83678 3.9536-34.70091 4.08759-33.99261 4.1746-33.28435 4.26163-32.14847 4.40625-31.44019 4.50003-30.7319 4.59381-29.59604 4.74939-28.88776 4.85057-28.17947 4.95175-27.04361 5.12022-26.33533 5.2293-25.62704 5.33833-24.49117 5.51915-23.7829 5.63655-23.0746 5.75395-21.93874 5.94882-21.23045 6.0755-20.52217 6.20216-19.3863 6.41296-18.67802 6.54955-17.96973 6.68613-16.8339 6.9128-16.1256 7.05992-15.41731 7.20705-14.28145 7.45134-13.57315 7.60994-12.86488 7.76854-11.72902 8.03212-11.02072 8.20302-10.31244 8.37392-9.17659 8.65735-8.4683 8.84161-7.76001 9.02588-6.62415 9.3325-5.91586 9.53107-5.20758 9.72964-4.07172 10.05878-3.36343 10.27278-2.65514 10.48679-1.51927 10.84303-.81099 11.07347-.1027 11.30392 1.0331 11.68538 1.7414 11.9337 2.44969 12.18202 3.58554 12.59521 4.29382 12.8633 5.0021 13.13138 6.13797 13.57689 6.84627 13.8659 7.55455 14.15489 8.69041 14.63475 9.3987 14.94618 10.10698 15.25763 11.24284 15.77486 11.95113 16.11057 12.65941 16.44627 13.79527 17.0038 14.50356 17.36577 15.21184 17.72775 16.34772 18.32932 17.05598 18.71942 17.76428 19.10953 18.90015 19.75693 19.60843 20.1774 20.31671 20.59787 21.45258 21.29668 22.16086 21.74991 22.86914 22.20316 24.005 22.95544 24.71329 23.44406 25.42157 23.93265 26.55743 24.74469 27.26573 25.27141 27.974 25.79811 29.10986 26.67259 29.81816 27.2403 30.52643 27.80798 31.6623 28.75107 32.37059 29.36298 33.07887 29.97488 34.21474 30.99094 34.92302 31.65056 35.6313 32.31015 36.76718 33.40602 37.47545 34.11702 38.18375 34.82803 39.3196 36.00865 40.02788 36.77501 40.73618 37.54137 41.87204 38.81436 42.58032 39.64044 43.2886 40.46654 44.42445 41.83842 45.13275 42.7289 45.84103 43.61937 46.9769 45.09846 47.6852 46.05833 48.39346 47.01822 49.52933 48.61218 50.23763 49.64697 50.94589 50.68176 52.08176 52.40099 52.79005 53.5164 53.49834 54.63182 54.6342 56.48393 55.34248 57.68617 56.05077 58.88841 57.18663 60.88559 57.89491 62.1814 58.60321 63.47717 59.73906 65.6286 60.44734 67.02539 61.15564 68.42218 62.2915 70.74263 62.99977 72.24847 63.70807 73.7543 64.84392 76.25558 65.55222 77.87846 66.26051 79.50137 67.39635 82.19592 68.10464 83.94514 68.81293 85.69438 69.94879 88.59975 70.65707 90.48572 71.36536 92.37169 72.50122 95.505 73.20952 97.53789 73.9178 99.57076 75.05367 102.94606 75.76195 105.13728 76.47023 107.32852 78.31436 113.33081 77.89308 111.95952"/>
<path transform="matrix(-.99958,.027861393,.02786056,.99960997,13.268707,131.08899)" d="M1.0361 0C-.25902 .25902-1.55415 .77707-3.1083 1.68365-1.55415 .51805-1.55415-.51805-3.1083-1.68365-1.55415-.77707-.25902-.25902 1.0361 0Z" fill="#0000ff"/>
<path transform="matrix(-.99958,.027861393,.02786056,.99960997,13.268707,131.08899)" stroke-width=".79701" stroke-linecap="butt" stroke-linejoin="round" fill="none" stroke="#0000ff" d="M1.0361 0C-.25902 .25902-1.55415 .77707-3.1083 1.68365-1.55415 .51805-1.55415-.51805-3.1083-1.68365-1.55415-.77707-.25902-.25902 1.0361 0Z"/>
<path transform="matrix(.29367588,-.9559177,-.9558891,-.29368467,174.77228,20.093834)" d="M1.0361 0C-.25902 .25902-1.55415 .77707-3.1083 1.68365-1.55415 .51805-1.55415-.51805-3.1083-1.68365-1.55415-.77707-.25902-.25902 1.0361 0Z" fill="#0000ff"/>
<path transform="matrix(.29367588,-.9559177,-.9558891,-.29368467,174.77228,20.093834)" stroke-width=".79701" stroke-linecap="butt" stroke-linejoin="round" fill="none" stroke="#0000ff" d="M1.0361 0C-.25902 .25902-1.55415 .77707-3.1083 1.68365-1.55415 .51805-1.55415-.51805-3.1083-1.68365-1.55415-.77707-.25902-.25902 1.0361 0Z"/>
<path transform="matrix(1.00002,0,0,-1.00005,96.877658,132.05895)" d="M57.39604 41.65317H113.18057V56.23867H57.39604Z" fill="#ffffff"/>
<use data-text="g" xlink:href="#font_1_2" transform="matrix(9.962799,0,0,-9.963098,156.26786,85.92064)" fill="#0000ff"/>
<use data-text="(" xlink:href="#font_3_1" transform="matrix(9.962799,0,0,-9.963098,161.37793,85.92064)" fill="#0000ff"/>
<use data-text="x" xlink:href="#font_1_4" transform="matrix(9.962799,0,0,-9.963098,165.25202,85.92064)" fill="#0000ff"/>
<use data-text=")" xlink:href="#font_3_2" transform="matrix(9.962799,0,0,-9.963098,170.94614,85.92064)" fill="#0000ff"/>
<use data-text="=" xlink:href="#font_3_8" transform="matrix(9.962799,0,0,-9.963098,177.57141,85.92064)" fill="#0000ff"/>
<use data-text="e" xlink:href="#font_1_1" transform="matrix(9.962799,0,0,-9.963098,188.10446,85.92064)" fill="#0000ff"/>
<use data-text="0" xlink:href="#font_5_1" transform="matrix(6.97394,0,0,-6.9741489,192.74359,82.305469)" fill="#0000ff"/>
<use data-text="." xlink:href="#font_4_1" transform="matrix(6.97394,0,0,-6.9741489,196.71466,82.305469)" fill="#0000ff"/>
<use data-text="5" xlink:href="#font_5_2" transform="matrix(6.97394,0,0,-6.9741489,199.08069,82.305469)" fill="#0000ff"/>
<use data-text="x" xlink:href="#font_4_2" transform="matrix(6.97394,0,0,-6.9741489,203.05176,82.305469)" fill="#0000ff"/>
<path transform="matrix(1.00002,0,0,-1.00005,96.877658,132.05895)" stroke-width=".79701" stroke-linecap="butt" stroke-miterlimit="10" stroke-linejoin="miter" fill="none" stroke="#009900" d="M-77.90414 111.99614C-76.48112 107.36261-76.48112 107.36261-75.77284 105.1705-75.06456 102.97841-73.9287 99.6019-73.22041 97.56834-72.51212 95.53479-71.37627 92.40042-70.66797 90.5141-69.9597 88.62778-68.82384 85.72275-68.11554 83.97302-67.40726 82.22328-66.27141 79.52675-65.56311 77.90321-64.85483 76.27968-63.71896 73.77792-63.01067 72.27165-62.3024 70.76538-61.16653 68.44438-60.45825 67.04703-59.74995 65.64966-58.6141 63.49661-57.90582 62.20042-57.19753 60.9042-56.06166 58.90741-55.3534 57.70486-54.6451 56.50229-53.50923 54.6491-52.80095 53.53319-52.09265 52.41725-50.9568 50.69705-50.24852 49.66203-49.54024 48.627-48.40437 47.0334-47.69609 46.07341-46.98781 45.11339-45.85194 43.63371-45.14365 42.7429-44.43536 41.8521-43.2995 40.47948-42.59122 39.65308-41.88293 38.82668-40.74707 37.55342-40.03879 36.78677-39.33049 36.02013-38.19464 34.83884-37.48636 34.12756-36.77808 33.41629-35.6422 32.32022-34.93393 31.6604-34.22563 31.00061-33.08977 29.98425-32.38148 29.37215-31.67319 28.76004-30.53734 27.8166-29.82906 27.24876-29.12076 26.68092-27.98491 25.80635-27.27663 25.27954-26.56834 24.75272-25.43248 23.9406-24.72418 23.45184-24.01591 22.96307-22.88004 22.21027-22.17175 21.75682-21.46347 21.30339-20.32762 20.60442-19.61932 20.18379-18.91104 19.76318-17.77518 19.11551-17.0669 18.7253-16.35861 18.3351-15.22273 17.73355-14.51447 17.37148-13.80617 17.00941-12.6703 16.45163-11.96202 16.11577-11.25374 15.77988-10.11789 15.26224-9.40959 14.95068-8.70131 14.63914-7.56546 14.15942-6.85716 13.87039-6.14888 13.58138-5.01302 13.1358-4.30472 12.86761-3.59645 12.59944-2.46059 12.18596-1.75229 11.9375-1.044 11.68906 .09181 11.30743 .8001 11.07695 1.50838 10.84644 2.64424 10.4904 3.35252 10.27625 4.06082 10.06207 5.19669 9.73192 5.90495 9.53333 6.61325 9.33473 7.74911 9.02916 8.4574 8.8449 9.1657 8.66063 10.30154 8.3763 11.00983 8.20528 11.71812 8.03424 12.85397 7.77078 13.56226 7.61218 14.27054 7.45358 15.4064 7.2093 16.1147 7.06218 16.82298 6.91505 17.95883 6.68837 18.66713 6.55179 19.3754 6.4152 20.51128 6.2044 21.21956 6.07774 21.92784 5.95107 23.0637 5.75636 23.77199 5.6388 24.48027 5.52126 25.61615 5.33955 26.32442 5.23048 27.03271 5.12144 28.16858 4.954 28.87685 4.85281 29.58514 4.75165 30.72101 4.59518 31.42929 4.50125 32.13757 4.40732 33.27344 4.26282 33.98172 4.17581 34.69002 4.08879 35.82587 3.9548 36.53416 3.87408 37.24243 3.79333 38.3783 3.66885 39.0866 3.59396 39.79486 3.51909 40.93073 3.40384 41.63902 3.33429 42.3473 3.26472 43.48317 3.1571 44.19145 3.09258 44.89973 3.02806 46.0356 2.92899 46.74388 2.86923 47.45216 2.80945 48.58803 2.71716 49.29631 2.66179 50.00461 2.6064 51.14047 2.52155 51.84875 2.4701 52.55704 2.41861 53.69289 2.33868 54.40118 2.29083 55.10948 2.243 56.24532 2.16948 56.95361 2.12527 57.6619 2.08105 58.79776 2.01321 59.50606 1.97214 60.21432 1.93109 61.35019 1.86748 62.05849 1.82924 62.76677 1.79102 63.90263 1.73193 64.61093 1.69655 65.3192 1.66115 66.45506 1.60677 67.16333 1.57405 67.87163 1.54134 69.00749 1.49109 69.71577 1.46072 70.42407 1.43036 71.55994 1.38351 72.2682 1.3552 72.9765 1.32687 74.11237 1.28285 74.82065 1.25658 75.52895 1.23029 76.66478 1.18999 77.37308 1.16574 78.08136 1.1415 79.21722 1.10432 79.9255 1.08183 80.63379 1.05934 81.76965 1.02457 82.47795 1.00363 83.18623 .9827 85.03038 .93095 83.5964 .9711"/>
<path transform="matrix(-.2935559,-.9559677,-.9559391,.29356469,18.971962,20.057236)" d="M1.0361 0C-.25902 .25902-1.55415 .77707-3.1083 1.68365-1.55415 .51805-1.55415-.51805-3.1083-1.68365-1.55415-.77707-.25902-.25902 1.0361 0Z" fill="#009900"/>
<path transform="matrix(-.2935559,-.9559677,-.9559391,.29356469,18.971962,20.057236)" stroke-width=".79701" stroke-linecap="butt" stroke-linejoin="round" fill="none" stroke="#009900" d="M1.0361 0C-.25902 .25902-1.55415 .77707-3.1083 1.68365-1.55415 .51805-1.55415-.51805-3.1083-1.68365-1.55415-.77707-.25902-.25902 1.0361 0Z"/>
<path transform="matrix(.99958,.027981397,.02798056,-.99960997,180.47571,131.08777)" d="M1.0361 0C-.25902 .25902-1.55415 .77707-3.1083 1.68365-1.55415 .51805-1.55415-.51805-3.1083-1.68365-1.55415-.77707-.25902-.25902 1.0361 0Z" fill="#009900"/>
<path transform="matrix(.99958,.027981397,.02798056,-.99960997,180.47571,131.08777)" stroke-width=".79701" stroke-linecap="butt" stroke-linejoin="round" fill="none" stroke="#009900" d="M1.0361 0C-.25902 .25902-1.55415 .77707-3.1083 1.68365-1.55415 .51805-1.55415-.51805-3.1083-1.68365-1.55415-.77707-.25902-.25902 1.0361 0Z"/>
<use data-text="h" xlink:href="#font_1_3" transform="matrix(9.962799,0,0,-9.963098,1.2147369,12.405968)" fill="#008000"/>
<use data-text="(" xlink:href="#font_3_1" transform="matrix(9.962799,0,0,-9.963098,6.955841,12.405968)" fill="#008000"/>
<use data-text="x" xlink:href="#font_1_4" transform="matrix(9.962799,0,0,-9.963098,10.82991,12.405968)" fill="#008000"/>
<use data-text=")" xlink:href="#font_3_2" transform="matrix(9.962799,0,0,-9.963098,16.524033,12.405968)" fill="#008000"/>
<use data-text="=" xlink:href="#font_3_8" transform="matrix(9.962799,0,0,-9.963098,23.149308,12.405968)" fill="#008000"/>
<use data-text="e" xlink:href="#font_1_1" transform="matrix(9.962799,0,0,-9.963098,33.682374,12.405968)" fill="#008000"/>
<use data-text="&#x2212;" xlink:href="#font_6_1" transform="matrix(6.97394,0,0,-6.9741489,38.321458,8.790794)" fill="#008000"/>
<use data-text="0" xlink:href="#font_5_1" transform="matrix(6.97394,0,0,-6.9741489,44.547594,8.790794)" fill="#008000"/>
<use data-text="." xlink:href="#font_4_1" transform="matrix(6.97394,0,0,-6.9741489,48.51866,8.790794)" fill="#008000"/>
<use data-text="5" xlink:href="#font_5_2" transform="matrix(6.97394,0,0,-6.9741489,50.88571,8.790794)" fill="#008000"/>
<use data-text="x" xlink:href="#font_4_2" transform="matrix(6.97394,0,0,-6.9741489,54.85678,8.790794)" fill="#008000"/>
</svg>
