<svg xmlns="http://www.w3.org/2000/svg" xmlns:xlink="http://www.w3.org/1999/xlink" version="1.1" width="127" height="142" viewBox="0 0 127 142">
<defs>
<path id="font_1_1" d="M.20599365 .3996582H.2999878C.31999208 .3996582 .32998658 .3996582 .32998658 .41966249 .32998658 .43066407 .31999208 .43066407 .3019867 .43066407H.21398926C.25 .5724945 .25498963 .59246829 .25498963 .59846499 .25498963 .61546328 .24299622 .62545779 .22599793 .62545779 .22299195 .62545779 .19499207 .62446597 .18598938 .58947756L.14698792 .43066407H.052993776C.032989503 .43066407 .022994996 .43066407 .022994996 .4116516 .022994996 .3996582 .0309906 .3996582 .050994874 .3996582H.13899231C.066986087 .11608887 .06298828 .099121097 .06298828 .08114624 .06298828 .02722168 .100997928-.0107421879 .15499878-.0107421879 .25698854-.0107421879 .31399537 .13505554 .31399537 .14305115 .31399537 .1530304 .30599977 .1530304 .3019867 .1530304 .29299928 .1530304 .2919922 .15003968 .2869873 .13905335 .24398804 .035217287 .19099427 .011245728 .15699768 .011245728 .13598633 .011245728 .12599182 .024230957 .12599182 .057174684 .12599182 .08114624 .12799073 .088134769 .13198853 .10510254L.20599365 .3996582Z"/>
<path id="font_1_2" d="M.48599244 .38136292C.48999024 .39537049 .48999024 .39736939 .48999024 .40437318 .48999024 .42237855 .47599793 .43138124 .46099855 .43138124 .45098878 .43138124 .43499757 .42536927 .42599488 .41036988 .42399598 .405365 .41600038 .37435914 .4119873 .35635377 .40499879 .33035279 .397995 .30334474 .3919983 .27633668L.34700013 .09628296C.34298707 .08126831 .2999878 .011245728 .23399353 .011245728 .18299866 .011245728 .17199707 .055267335 .17199707 .0922699 .17199707 .1382904 .18899536 .20030213 .22299195 .28833009 .23899842 .3293457 .24299622 .3403473 .24299622 .36035157 .24299622 .405365 .21099854 .4423828 .16099549 .4423828 .06599426 .4423828 .0289917 .29733277 .0289917 .28833009 .0289917 .27833558 .038986207 .27833558 .040985109 .27833558 .050994874 .27833558 .051986696 .28033448 .056991579 .29634095 .083999637 .3903656 .12399292 .42037965 .1579895 .42037965 .1659851 .42037965 .18299866 .42037965 .18299866 .3883667 .18299866 .36335755 .17298889 .3373413 .1659851 .31834413 .12599182 .21231079 .10798645 .1552887 .10798645 .10827637 .10798645 .019256592 .17098999-.0107421879 .22999573-.0107421879 .2689972-.0107421879 .30299378 .0062561037 .33099366 .03425598 .31799317-.017745972 .30599977-.06674194 .2659912-.11973572 .23999024-.15385437 .20199585-.18309021 .1559906-.18309021 .14199829-.18309021 .09700012-.18005371 .07998657-.14074707 .09599304-.14074707 .10899353-.14074707 .12298584-.1287384 .1329956-.11973572 .14299011-.10673523 .14299011-.08773804 .14299011-.056747438 .115997318-.052734376 .10598755-.052734376 .08299255-.052734376 .049987794-.068740848 .049987794-.11773682 .049987794-.16796875 .09399414-.20507813 .1559906-.20507813 .25898744-.20507813 .3619995-.11373901 .3899994-.00074768069L.48599244 .38136292Z"/>
<path id="font_2_2" d="M.1269989 .07699585 .23298645 .18003845C.3889923 .31811524 .44898988 .3721466 .44898988 .47216798 .44898988 .5860901 .35899354 .6660156 .23699951 .6660156 .12399292 .6660156 .049987794 .57411196 .049987794 .48516847 .049987794 .4291687 .099990848 .4291687 .102996829 .4291687 .11999512 .4291687 .15499878 .44117738 .15499878 .48217774 .15499878 .5081787 .13699341 .5341797 .101989749 .5341797 .09399414 .5341797 .09199524 .5341797 .08898926 .5331726 .11199951 .59806826 .1659851 .63500979 .22399903 .63500979 .31498719 .63500979 .35798646 .5541382 .35798646 .47216798 .35798646 .39215089 .30799867 .31311036 .25299073 .25108338L.06098938 .036987306C.049987794 .025985718 .049987794 .023986817 .049987794 0H.42099L.44898988 .17404175H.42399598C.4189911 .14402771 .4119873 .1000061 .4019928 .084991458 .394989 .07699585 .32899476 .07699585 .30699159 .07699585H.1269989Z"/>
<path id="font_2_1" d="M.45999146 .31976319C.45999146 .39982606 .45498658 .47988893 .41999818 .5539398 .37399293 .65000918 .2919922 .6660156 .25 .6660156 .18998719 .6660156 .116989139 .64001467 .07598877 .54693606 .04399109 .47789 .038986207 .39982606 .038986207 .31976319 .038986207 .24472046 .042999269 .15464783 .083999637 .07859802 .1269989-.0024719239 .19999695-.022460938 .24899292-.022460938 .30299378-.022460938 .3789978-.0014648438 .4229889 .09359741 .45498658 .16265869 .45999146 .2407074 .45999146 .31976319M.24899292-.00047302247C.20999146-.00047302247 .15098572 .024551392 .1329956 .12062073 .12199402 .18066406 .12199402 .2727356 .12199402 .3317871 .12199402 .39582826 .12199402 .46188355 .12998963 .5159149 .14898682 .63500979 .22399903 .64401248 .24899292 .64401248 .28199769 .64401248 .34799195 .6259918 .36698915 .52693179 .3769989 .47088624 .3769989 .39482118 .3769989 .3317871 .3769989 .25672914 .3769989 .18867493 .3659973 .12461853 .35099793 .029556275 .2939911-.00047302247 .24899292-.00047302247Z"/>
<path id="font_2_3" d="M.2939911 .16503906V.07800293C.2939911 .041992189 .2919922 .0309906 .21798706 .0309906H.19699097V0C.23799134 .0029907227 .2899933 .0029907227 .33198548 .0029907227 .37399293 .0029907227 .4269867 .0029907227 .46798707 0V.0309906H.44699098C.37298585 .0309906 .37098695 .041992189 .37098695 .07800293V.16503906H.47099305V.19602967H.37098695V.65075686C.37098695 .67074587 .37098695 .6767578 .35499574 .6767578 .34599305 .6767578 .34298707 .6767578 .33499146 .66474917L.027999878 .19602967V.16503906H.2939911M.2999878 .19602967H.055999757L.2999878 .5688019V.19602967Z"/>
<path id="font_2_4" d="M.13198853 .327713V.35173036C.13198853 .6047821 .2559967 .64100649 .30699159 .64100649 .33099366 .64100649 .37298585 .634964 .394989 .6007538 .37998963 .6007538 .33999635 .6007538 .33999635 .5557556 .33999635 .524765 .3639984 .5097656 .38598634 .5097656 .4019928 .5097656 .43199159 .51875308 .43199159 .5577545 .43199159 .6178589 .3880005 .6660156 .30499269 .6660156 .1769867 .6660156 .041992189 .5367584 .041992189 .31570436 .041992189 .048553468 .1579895-.022460938 .25099183-.022460938 .3619995-.022460938 .45700074 .07156372 .45700074 .2036438 .45700074 .33070375 .36799623 .4267578 .25698854 .4267578 .18899536 .4267578 .1519928 .37573243 .13198853 .327713M.25099183 .0055389406C.18798828 .0055389406 .1579895 .06556702 .1519928 .080566409 .13398743 .127594 .13398743 .2076416 .13398743 .22564698 .13398743 .30369569 .1659851 .40374757 .2559967 .40374757 .27198792 .40374757 .31799317 .40374757 .34899903 .34172059 .36698915 .30470277 .36698915 .2536621 .36698915 .20463562 .36698915 .15661621 .36698915 .10658264 .34999085 .0705719 .31999208 .010528564 .27398683 .0055389406 .25099183 .0055389406Z"/>
<path id="font_2_5" d="M.16299439 .4569702C.116989139 .486969 .11299133 .52098086 .11299133 .5379791 .11299133 .598999 .17799378 .64100649 .24899292 .64100649 .32199098 .64100649 .38598634 .58898928 .38598634 .51698306 .38598634 .45996095 .34700013 .4119568 .2869873 .37695313L.16299439 .4569702M.30899049 .36193849C.3809967 .3989563 .42999269 .45095826 .42999269 .51698306 .42999269 .6090088 .34098817 .6660156 .25 .6660156 .1499939 .6660156 .068984989 .59199526 .068984989 .49897767 .068984989 .4809723 .070999149 .43595887 .11299133 .38894654 .12399292 .37695313 .16099549 .35194398 .18598938 .33494569 .12799073 .30592347 .041992189 .24984741 .041992189 .15072632 .041992189 .04458618 .14399719-.022460938 .24899292-.022460938 .3619995-.022460938 .45700074 .06060791 .45700074 .16773987 .45700074 .20379639 .44599916 .24885559 .4079895 .2909088 .3889923 .31193543 .37298585 .3219452 .30899049 .36193849M.20899964 .3199463 .33198548 .24183655C.3600006 .2228241 .40699769 .19277954 .40699769 .13169861 .40699769 .05760193 .33198548 .0055389406 .25 .0055389406 .1639862 .0055389406 .09199524 .067611698 .09199524 .15072632 .09199524 .20880127 .12399292 .27288819 .20899964 .3199463Z"/>
</defs>
<path transform="matrix(1,0,0,-1.00005,16.686997,128.06174)" stroke-width=".3985" stroke-linecap="butt" stroke-miterlimit="10" stroke-linejoin="miter" fill="none" stroke="#00aeef" d="M0 0H99.21382M0 11.33855H99.21382M0 22.6771H99.21382M0 34.01564H99.21382M0 45.35419H99.21382M0 56.69275H99.21382M0 68.0313H99.21382M0 79.36984H99.21382M0 90.70839H99.21382M0 102.04694H99.21382M0 113.38152H99.21382M0 0V113.3855M14.17339 0V113.3855M28.3468 0V113.3855M42.5202 0V113.3855M56.69362 0V113.3855M70.867 0V113.3855M85.04042 0V113.3855M99.20885 0V113.3855M99.21382 113.3855"/>
<path transform="matrix(1,0,0,-1.00005,16.686997,128.06174)" stroke-width=".79701" stroke-linecap="butt" stroke-miterlimit="10" stroke-linejoin="miter" fill="none" stroke="#000000" d="M0 0H106.28333"/>
<path transform="matrix(1,0,0,-1.00005,122.97033,128.06174)" d="M1.0361 0C-.25902 .25902-1.55415 .77707-3.1083 1.68365-1.55415 .51805-1.55415-.51805-3.1083-1.68365-1.55415-.77707-.25902-.25902 1.0361 0Z"/>
<path transform="matrix(1,0,0,-1.00005,122.97033,128.06174)" stroke-width=".79701" stroke-linecap="butt" stroke-linejoin="round" fill="none" stroke="#000000" d="M1.0361 0C-.25902 .25902-1.55415 .77707-3.1083 1.68365-1.55415 .51805-1.55415-.51805-3.1083-1.68365-1.55415-.77707-.25902-.25902 1.0361 0Z"/>
<use data-text="t" xlink:href="#font_1_1" transform="matrix(9.9626,0,0,-9.963098,122.605998,124.34255)"/>
<path transform="matrix(1,0,0,-1.00005,16.686997,128.06174)" stroke-width=".79701" stroke-linecap="butt" stroke-miterlimit="10" stroke-linejoin="miter" fill="none" stroke="#000000" d="M0 0V118.75407"/>
<path transform="matrix(0,-1.00005,-1,-0,16.686997,9.301743)" d="M1.0361 0C-.25902 .25902-1.55415 .77707-3.1083 1.68365-1.55415 .51805-1.55415-.51805-3.1083-1.68365-1.55415-.77707-.25902-.25902 1.0361 0Z"/>
<path transform="matrix(0,-1.00005,-1,-0,16.686997,9.301743)" stroke-width=".79701" stroke-linecap="butt" stroke-linejoin="round" fill="none" stroke="#000000" d="M1.0361 0C-.25902 .25902-1.55415 .77707-3.1083 1.68365-1.55415 .51805-1.55415-.51805-3.1083-1.68365-1.55415-.77707-.25902-.25902 1.0361 0Z"/>
<use data-text="y" xlink:href="#font_1_2" transform="matrix(9.9626,0,0,-9.963098,7.725998,6.2086489)"/>
<path transform="matrix(1,0,0,-1.00005,16.686997,128.06174)" stroke-width=".79701" stroke-linecap="butt" stroke-miterlimit="10" stroke-linejoin="miter" fill="none" stroke="#000000" d="M28.3468 1.7007V-1.70087"/>
<path transform="matrix(1,0,0,-1.00005,16.686997,128.06174)" d="M22.36913-12.50491H34.32447V-4.0919306H22.36913Z" fill="#ffffff"/>
<use data-text="2" xlink:href="#font_2_2" transform="matrix(9.9626,0,0,-9.963098,40.051996,139.57132)"/>
<use data-text="0" xlink:href="#font_2_1" transform="matrix(9.9626,0,0,-9.963098,45.033296,139.57132)"/>
<path transform="matrix(1,0,0,-1.00005,16.686997,128.06174)" stroke-width=".79701" stroke-linecap="butt" stroke-miterlimit="10" stroke-linejoin="miter" fill="none" stroke="#000000" d="M56.69362 1.7007V-1.70087"/>
<path transform="matrix(1,0,0,-1.00005,16.686997,128.06174)" d="M50.71594-12.50491H62.67128V-4.0919306H50.71594Z" fill="#ffffff"/>
<use data-text="4" xlink:href="#font_2_3" transform="matrix(9.9626,0,0,-9.963098,68.399,139.57132)"/>
<use data-text="0" xlink:href="#font_2_1" transform="matrix(9.9626,0,0,-9.963098,73.380298,139.57132)"/>
<path transform="matrix(1,0,0,-1.00005,16.686997,128.06174)" stroke-width=".79701" stroke-linecap="butt" stroke-miterlimit="10" stroke-linejoin="miter" fill="none" stroke="#000000" d="M85.04042 1.7007V-1.70087"/>
<path transform="matrix(1,0,0,-1.00005,16.686997,128.06174)" d="M79.06274-12.50491H91.018077V-4.0919306H79.06274Z" fill="#ffffff"/>
<use data-text="6" xlink:href="#font_2_4" transform="matrix(9.9626,0,0,-9.963098,96.745998,139.57132)"/>
<use data-text="0" xlink:href="#font_2_1" transform="matrix(9.9626,0,0,-9.963098,101.727298,139.57132)"/>
<path transform="matrix(1,0,0,-1.00005,16.686997,128.06174)" stroke-width=".79701" stroke-linecap="butt" stroke-miterlimit="10" stroke-linejoin="miter" fill="none" stroke="#000000" d="M2.12592 22.6771H-2.12613"/>
<path transform="matrix(1,0,0,-1.00005,16.686997,128.06174)" d="M-16.47253 18.4706H-4.51719V26.88358H-16.47253Z" fill="#ffffff"/>
<use data-text="2" xlink:href="#font_2_2" transform="matrix(9.9626,0,0,-9.963098,1.2109985,108.593769)"/>
<use data-text="0" xlink:href="#font_2_1" transform="matrix(9.9626,0,0,-9.963098,6.192299,108.593769)"/>
<path transform="matrix(1,0,0,-1.00005,16.686997,128.06174)" stroke-width=".79701" stroke-linecap="butt" stroke-miterlimit="10" stroke-linejoin="miter" fill="none" stroke="#000000" d="M2.12592 45.35419H-2.12613"/>
<path transform="matrix(1,0,0,-1.00005,16.686997,128.06174)" d="M-16.47253 41.14769H-4.51719V49.56067H-16.47253Z" fill="#ffffff"/>
<use data-text="4" xlink:href="#font_2_3" transform="matrix(9.9626,0,0,-9.963098,1.2109985,85.915637)"/>
<use data-text="0" xlink:href="#font_2_1" transform="matrix(9.9626,0,0,-9.963098,6.192299,85.915637)"/>
<path transform="matrix(1,0,0,-1.00005,16.686997,128.06174)" stroke-width=".79701" stroke-linecap="butt" stroke-miterlimit="10" stroke-linejoin="miter" fill="none" stroke="#000000" d="M2.12592 68.0313H-2.12613"/>
<path transform="matrix(1,0,0,-1.00005,16.686997,128.06174)" d="M-16.47253 63.8248H-4.51719V72.23778H-16.47253Z" fill="#ffffff"/>
<use data-text="6" xlink:href="#font_2_4" transform="matrix(9.9626,0,0,-9.963098,1.2109985,63.237504)"/>
<use data-text="0" xlink:href="#font_2_1" transform="matrix(9.9626,0,0,-9.963098,6.192299,63.237504)"/>
<path transform="matrix(1,0,0,-1.00005,16.686997,128.06174)" stroke-width=".79701" stroke-linecap="butt" stroke-miterlimit="10" stroke-linejoin="miter" fill="none" stroke="#000000" d="M2.12592 90.70839H-2.12613"/>
<path transform="matrix(1,0,0,-1.00005,16.686997,128.06174)" d="M-16.47253 86.50189H-4.51719V94.91487H-16.47253Z" fill="#ffffff"/>
<use data-text="8" xlink:href="#font_2_5" transform="matrix(9.9626,0,0,-9.963098,1.2109985,40.559366)"/>
<use data-text="0" xlink:href="#font_2_1" transform="matrix(9.9626,0,0,-9.963098,6.192299,40.559366)"/>
<path transform="matrix(1,0,0,-1.00005,16.686997,128.06174)" stroke-width="1.19553" stroke-linecap="butt" stroke-miterlimit="10" stroke-linejoin="miter" fill="none" stroke="#ff0000" d="M0 102.04694C0 102.04694 1.12003 97.34145 1.5502 95.60985 1.98038 93.87823 2.67024 91.19243 3.10042 89.56668 3.5306 87.94093 4.22046 85.41634 4.65063 83.89256 5.08081 82.36877 5.77068 80.01048 6.20085 78.58435 6.63103 77.15825 7.32089 74.94965 7.75107 73.61406 8.18124 72.27847 8.87111 70.20897 9.30128 68.95828 9.73146 67.7076 10.42131 65.7724 10.8515 64.59993 11.28166 63.42744 11.97154 61.60664 12.40172 60.50783 12.8319 59.40903 13.52176 57.70862 13.95193 56.68045 14.38211 55.6523 15.07196 54.06065 15.50215 53.09753 15.93231 52.1344 16.6222 50.64256 17.05235 49.73885 17.48254 48.83511 18.17241 47.43103 18.60258 46.58412 19.03276 45.73723 19.72261 44.42656 20.1528 43.63496 20.58296 42.84337 21.27284 41.61946 21.703 40.87888 22.1332 40.13826 22.82304 38.99263 23.25323 38.29718 23.6834 37.60173 24.37326 36.51813 24.80345 35.86652 25.23361 35.21494 25.9235 34.20973 26.35365 33.60092 26.78384 32.9921 27.4737 32.05067 27.90388 31.47858 28.33405 30.90648 29.02391 30.01305 29.4541 29.47769 29.88426 28.94232 30.57414 28.12149 31.0043 27.62006 31.4345 27.1186 32.12434 26.33395 32.55453 25.86363 32.9847 25.3933 33.67456 24.66922 34.10474 24.23021 34.53491 23.79121 35.2248 23.11157 35.65495 22.69957 36.08514 22.28758 36.775 21.64731 37.20518 21.26079 37.63535 20.8743 38.32521 20.27513 38.75539 19.9139 39.18556 19.55267 39.87543 18.99585 40.3056 18.6573 40.73578 18.31877 41.42564 17.79105 41.85583 17.4739 42.286 17.15675 42.97586 16.66896 43.40604 16.37148 43.83621 16.07397 44.52608 15.60867 44.95625 15.32976 45.38643 15.05084 46.0763 14.62178 46.50647 14.36122 46.93665 14.10068 47.62651 13.69601 48.05669 13.45189 48.48686 13.20776 49.17673 12.82962 49.6069 12.6017 50.03708 12.37376 50.72694 12.02388 51.15712 11.80913 51.5873 11.59438 52.27716 11.25507 52.70734 11.05392 53.13751 10.8528 53.82738 10.54655 54.25755 10.35945 54.68773 10.17236 55.3776 9.8824 55.80777 9.70547 56.23795 9.52853 56.9278 9.24988 57.35799 9.08418 57.78815 8.91847 58.47803 8.66563 58.9082 8.51117 59.33838 8.3567 60.02824 8.11516 60.45842 7.97084 60.8886 7.82654 61.57845 7.60689 62.00864 7.47101 62.4388 7.33511 63.12868 7.11888 63.55884 6.99141 63.98903 6.86395 64.6789 6.67136 65.10907 6.55232 65.53925 6.43327 66.2291 6.24536 66.65929 6.13345 67.08945 6.02155 67.77933 5.849 68.20949 5.74573 68.63968 5.64247 69.32953 5.4868 69.75972 5.38916 70.18988 5.2915 70.87975 5.13416 71.30994 5.04192 71.7401 4.94966 72.42998 4.80939 72.86014 4.72426 73.29033 4.63914 73.98018 4.50899 74.41037 4.4284 74.84053 4.34784 75.5304 4.21994 75.96059 4.14346 76.39075 4.06697 77.08063 3.94806 77.51079 3.8772 77.94098 3.80632 78.63083 3.69775 79.06102 3.63274 79.49118 3.5677 80.18105 3.46942 80.61122 3.40851 81.0414 3.34758 81.73128 3.25174 82.16144 3.19362 82.59163 3.13551 83.28148 3.04474 83.71167 2.98964 84.14183 2.93456 84.8317 2.84755 85.26187 2.79657 85.69205 2.74557 86.38191 2.66904 86.81209 2.62215 87.24226 2.57529 87.93213 2.50403 88.36232 2.45865 88.79248 2.41328 89.48235 2.33751 89.91252 2.29517 90.3427 2.25284 91.03256 2.19171 91.46274 2.15347 91.89291 2.11523 92.58278 2.0565 93.01295 2.01956 93.44313 1.98262 94.133 1.92264 94.56317 1.88719 94.99336 1.85178 95.68321 1.7968 96.11339 1.76419 96.54356 1.73157 97.23343 1.68103 97.6636 1.65208 98.09378 1.62312 99.21382 1.55554 97.34436 1.66821"/>
<path transform="matrix(.99812,.060173006,.06017,-.99816986,114.03135,126.393428)" d="M1.27522 0C-.31879 .31879-1.91284 .9564-3.8257 2.07224-1.91284 .6376-1.91284-.6376-3.8257-2.07224-1.91284-.9564-.31879-.31879 1.27522 0Z" fill="#ff0000"/>
<path transform="matrix(.99812,.060173006,.06017,-.99816986,114.03135,126.393428)" stroke-width="1.19553" stroke-linecap="butt" stroke-linejoin="round" fill="none" stroke="#ff0000" d="M1.27522 0C-.31879 .31879-1.91284 .9564-3.8257 2.07224-1.91284 .6376-1.91284-.6376-3.8257-2.07224-1.91284-.9564-.31879-.31879 1.27522 0Z"/>
</svg>
