<svg xmlns="http://www.w3.org/2000/svg" xmlns:xlink="http://www.w3.org/1999/xlink" version="1.1" width="254" height="255" viewBox="0 0 254 255">
<defs>
<path id="font_1_2" d="M.33399964 .30233766C.33999635 .32835389 .36299134 .42037965 .43299867 .42037965 .43798829 .42037965 .46199037 .42037965 .48298646 .40734864 .45498658 .402359 .43499757 .37734986 .43499757 .35334779 .43499757 .33735658 .44599916 .31835938 .47299195 .31835938 .49499513 .31835938 .5269928 .3363495 .5269928 .37635804 .5269928 .42837525 .46798707 .4423828 .43399049 .4423828 .37599183 .4423828 .34098817 .38935853 .32899476 .36634828 .3039856 .43237306 .25 .4423828 .22099304 .4423828 .116989139 .4423828 .05999756 .3133545 .05999756 .28834535 .05999756 .27833558 .069992069 .27833558 .07199097 .27833558 .07998657 .27833558 .08299255 .28033448 .084991458 .28933717 .11898804 .39535523 .18499756 .42037965 .21899414 .42037965 .23799134 .42037965 .272995 .4113617 .272995 .35334779 .272995 .32235719 .2559967 .25532533 .21899414 .11528015 .20298767 .053268434 .16799927 .011245728 .12399292 .011245728 .117996219 .011245728 .09498596 .011245728 .07398987 .024276734 .09899902 .029266358 .12098694 .05027771 .12098694 .07827759 .12098694 .105270389 .09899902 .11328125 .083999637 .11328125 .053985597 .11328125 .0289917 .08728027 .0289917 .055267335 .0289917 .009246826 .07899475-.0107421879 .12298584-.0107421879 .18899536-.0107421879 .22499085 .059280397 .22799683 .0652771 .23999024 .028274537 .27598573-.0107421879 .33599855-.0107421879 .43899537-.0107421879 .49598695 .118270877 .49598695 .14328003 .49598695 .1532898 .4869995 .1532898 .48399354 .1532898 .47499085 .1532898 .47299195 .14929199 .47099305 .14228821 .43798829 .03527832 .36999513 .011245728 .33799745 .011245728 .29899598 .011245728 .2829895 .043273927 .2829895 .07727051 .2829895 .09927368 .2889862 .121276859 .2999878 .16529846L.33399964 .30233766Z"/>
<path id="font_1_3" d="M.48599244 .38136292C.48999024 .39537049 .48999024 .39736939 .48999024 .40437318 .48999024 .42237855 .47599793 .43138124 .46099855 .43138124 .45098878 .43138124 .43499757 .42536927 .42599488 .41036988 .42399598 .405365 .41600038 .37435914 .4119873 .35635377 .40499879 .33035279 .397995 .30334474 .3919983 .27633668L.34700013 .09628296C.34298707 .08126831 .2999878 .011245728 .23399353 .011245728 .18299866 .011245728 .17199707 .055267335 .17199707 .0922699 .17199707 .1382904 .18899536 .20030213 .22299195 .28833009 .23899842 .3293457 .24299622 .3403473 .24299622 .36035157 .24299622 .405365 .21099854 .4423828 .16099549 .4423828 .06599426 .4423828 .0289917 .29733277 .0289917 .28833009 .0289917 .27833558 .038986207 .27833558 .040985109 .27833558 .050994874 .27833558 .051986696 .28033448 .056991579 .29634095 .083999637 .3903656 .12399292 .42037965 .1579895 .42037965 .1659851 .42037965 .18299866 .42037965 .18299866 .3883667 .18299866 .36335755 .17298889 .3373413 .1659851 .31834413 .12599182 .21231079 .10798645 .1552887 .10798645 .10827637 .10798645 .019256592 .17098999-.0107421879 .22999573-.0107421879 .2689972-.0107421879 .30299378 .0062561037 .33099366 .03425598 .31799317-.017745972 .30599977-.06674194 .2659912-.11973572 .23999024-.15385437 .20199585-.18309021 .1559906-.18309021 .14199829-.18309021 .09700012-.18005371 .07998657-.14074707 .09599304-.14074707 .10899353-.14074707 .12298584-.1287384 .1329956-.11973572 .14299011-.10673523 .14299011-.08773804 .14299011-.056747438 .115997318-.052734376 .10598755-.052734376 .08299255-.052734376 .049987794-.068740848 .049987794-.11773682 .049987794-.16796875 .09399414-.20507813 .1559906-.20507813 .25898744-.20507813 .3619995-.11373901 .3899994-.00074768069L.48599244 .38136292Z"/>
<path id="font_2_4" d="M.2939911 .16503906V.07800293C.2939911 .041992189 .2919922 .0309906 .21798706 .0309906H.19699097V0C.23799134 .0029907227 .2899933 .0029907227 .33198548 .0029907227 .37399293 .0029907227 .4269867 .0029907227 .46798707 0V.0309906H.44699098C.37298585 .0309906 .37098695 .041992189 .37098695 .07800293V.16503906H.47099305V.19602967H.37098695V.65075686C.37098695 .67074587 .37098695 .6767578 .35499574 .6767578 .34599305 .6767578 .34298707 .6767578 .33499146 .66474917L.027999878 .19602967V.16503906H.2939911M.2999878 .19602967H.055999757L.2999878 .5688019V.19602967Z"/>
<path id="font_2_2" d="M.45999146 .31976319C.45999146 .39982606 .45498658 .47988893 .41999818 .5539398 .37399293 .65000918 .2919922 .6660156 .25 .6660156 .18998719 .6660156 .116989139 .64001467 .07598877 .54693606 .04399109 .47789 .038986207 .39982606 .038986207 .31976319 .038986207 .24472046 .042999269 .15464783 .083999637 .07859802 .1269989-.0024719239 .19999695-.022460938 .24899292-.022460938 .30299378-.022460938 .3789978-.0014648438 .4229889 .09359741 .45498658 .16265869 .45999146 .2407074 .45999146 .31976319M.24899292-.00047302247C.20999146-.00047302247 .15098572 .024551392 .1329956 .12062073 .12199402 .18066406 .12199402 .2727356 .12199402 .3317871 .12199402 .39582826 .12199402 .46188355 .12998963 .5159149 .14898682 .63500979 .22399903 .64401248 .24899292 .64401248 .28199769 .64401248 .34799195 .6259918 .36698915 .52693179 .3769989 .47088624 .3769989 .39482118 .3769989 .3317871 .3769989 .25672914 .3769989 .18867493 .3659973 .12461853 .35099793 .029556275 .2939911-.00047302247 .24899292-.00047302247Z"/>
<path id="font_2_5" d="M.16299439 .4569702C.116989139 .486969 .11299133 .52098086 .11299133 .5379791 .11299133 .598999 .17799378 .64100649 .24899292 .64100649 .32199098 .64100649 .38598634 .58898928 .38598634 .51698306 .38598634 .45996095 .34700013 .4119568 .2869873 .37695313L.16299439 .4569702M.30899049 .36193849C.3809967 .3989563 .42999269 .45095826 .42999269 .51698306 .42999269 .6090088 .34098817 .6660156 .25 .6660156 .1499939 .6660156 .068984989 .59199526 .068984989 .49897767 .068984989 .4809723 .070999149 .43595887 .11299133 .38894654 .12399292 .37695313 .16099549 .35194398 .18598938 .33494569 .12799073 .30592347 .041992189 .24984741 .041992189 .15072632 .041992189 .04458618 .14399719-.022460938 .24899292-.022460938 .3619995-.022460938 .45700074 .06060791 .45700074 .16773987 .45700074 .20379639 .44599916 .24885559 .4079895 .2909088 .3889923 .31193543 .37298585 .3219452 .30899049 .36193849M.20899964 .3199463 .33198548 .24183655C.3600006 .2228241 .40699769 .19277954 .40699769 .13169861 .40699769 .05760193 .33198548 .0055389406 .25 .0055389406 .1639862 .0055389406 .09199524 .067611698 .09199524 .15072632 .09199524 .20880127 .12399292 .27288819 .20899964 .3199463Z"/>
<path id="font_2_1" d="M.40899659 .23046875H.6879883C.70199587 .23046875 .72099307 .23046875 .72099307 .25045777 .72099307 .27046205 .70199587 .27046205 .6879883 .27046205H.40899659V.5500183C.40899659 .56399539 .40899659 .5830078 .3889923 .5830078 .36898805 .5830078 .36898805 .56399539 .36898805 .5500183V.27046205H.08898926C.07499695 .27046205 .055999757 .27046205 .055999757 .25045777 .055999757 .23046875 .07499695 .23046875 .08898926 .23046875H.36898805V-.05000305C.36898805-.06401062 .36898805-.08300781 .3889923-.08300781 .40899659-.08300781 .40899659-.06401062 .40899659-.05000305V.23046875Z"/>
<path id="font_3_1" d="M.673996 .3241577C.6879883 .33015443 .69400027 .3371582 .69400027 .3461609 .69400027 .35617066 .6899872 .36216737 .673996 .36917115L.12298584 .62919619C.10899353 .63619998 .10499573 .63619998 .102996829 .63619998 .09098816 .63619998 .08299255 .62719729 .08299255 .61621096 .08299255 .6042023 .09098816 .5991974 .101989749 .59420779L.6269989 .34716798 .10398865 .100128177C.083999637 .09112549 .08299255 .083114627 .08299255 .07711792 .08299255 .06611633 .09199524 .057113649 .102996829 .057113649 .10598755 .057113649 .10798645 .057113649 .12098694 .06411743L.673996 .3241577M.6589966-.13671875C.6759949-.13671875 .69400027-.13671875 .69400027-.11672974 .69400027-.096725467 .6729889-.096725467 .6579895-.096725467H.11898804C.10398865-.096725467 .08299255-.096725467 .08299255-.11672974 .08299255-.13671875 .100997928-.13671875 .117996219-.13671875H.6589966Z"/>
<path id="font_2_3" d="M.2939911 .64004519C.2939911 .66400149 .2939911 .6660156 .2709961 .6660156 .20899964 .60227969 .12098694 .60227969 .08898926 .60227969V.57128909C.10899353 .57128909 .16799927 .57128909 .21998596 .5972748V.07902527C.21998596 .042999269 .21699524 .0309906 .1269989 .0309906H.09498596V0C.12998963 .0029907227 .21699524 .0029907227 .25698854 .0029907227 .29699708 .0029907227 .38398744 .0029907227 .4189911 0V.0309906H.3869934C.29699708 .0309906 .2939911 .041992189 .2939911 .07902527V.64004519Z"/>
<path id="font_1_1" d="M.20298767 .0009918213C.20298767 .066986087 .17799378 .10598755 .13899231 .10598755 .10598755 .10598755 .085998538 .08099365 .085998538 .052993776 .085998538 .025985718 .10598755 0 .13899231 0 .15098572 0 .1639862 .0039978029 .17399597 .0129852299 .1769867 .01499939 .17799378 .015991211 .1789856 .015991211 .17999268 .015991211 .18099976 .01499939 .18099976 .0009918213 .18099976-.07316589 .1459961-.13328552 .11299133-.16635132 .101989749-.17736817 .101989749-.17936707 .101989749-.18237305 .101989749-.18936157 .10699463-.19335938 .11199951-.19335938 .12298584-.19335938 .20298767-.116256717 .20298767 .0009918213Z"/>
<path id="font_2_6" d="M.68699648 .32714845C.70199587 .32714845 .72099307 .32714845 .72099307 .34713746 .72099307 .36714173 .70199587 .36714173 .6879883 .36714173H.08898926C.07499695 .36714173 .055999757 .36714173 .055999757 .34713746 .055999757 .32714845 .07499695 .32714845 .08999634 .32714845H.68699648M.6879883 .13284302C.70199587 .13284302 .72099307 .13284302 .72099307 .15284729 .72099307 .17285156 .70199587 .17285156 .68699648 .17285156H.08999634C.07499695 .17285156 .055999757 .17285156 .055999757 .15284729 .055999757 .13284302 .07499695 .13284302 .08898926 .13284302H.6879883Z"/>
</defs>
<path transform="matrix(1.00006,0,0,-1.00005,35.631235,219.3453)" stroke-width=".3985" stroke-linecap="butt" stroke-miterlimit="10" stroke-linejoin="miter" fill="none" stroke="#00aeef" d="M-34.0165-34.0165H204.09909M-34.0165-17.00824H204.09909M-34.0165 0H204.09909M-34.0165 17.00824H204.09909M-34.0165 34.0165H204.09909M-34.0165 51.02477H204.09909M-34.0165 68.03302H204.09909M-34.0165 85.04128H204.09909M-34.0165 102.04953H204.09909M-34.0165 119.0578H204.09909M-34.0165 136.06606H204.09909M-34.0165 153.07433H204.09909M-34.0165 170.08257H204.09909M-34.0165 187.09084H204.09909M-34.0165 204.09313H204.09909M-34.0165-34.0165V204.09909M-17.00824-34.0165V204.09909M0-34.0165V204.09909M17.00824-34.0165V204.09909M34.0165-34.0165V204.09909M51.02477-34.0165V204.09909M68.03302-34.0165V204.09909M85.04128-34.0165V204.09909M102.04953-34.0165V204.09909M119.0578-34.0165V204.09909M136.06606-34.0165V204.09909M153.07433-34.0165V204.09909M170.08257-34.0165V204.09909M187.09084-34.0165V204.09909M204.09313-34.0165V204.09909M204.09909 204.09909"/>
<path transform="matrix(1.00006,0,0,-1.00005,35.631235,219.3453)" stroke-width=".79701" stroke-linecap="butt" stroke-miterlimit="10" stroke-linejoin="miter" fill="none" stroke="#000000" d="M-34.0165 0H212.86954"/>
<path transform="matrix(1.00006,0,0,-1.00005,248.51355,219.3453)" d="M1.0361 0C-.25902 .25902-1.55415 .77707-3.1083 1.68365-1.55415 .51805-1.55415-.51805-3.1083-1.68365-1.55415-.77707-.25902-.25902 1.0361 0Z"/>
<path transform="matrix(1.00006,0,0,-1.00005,248.51355,219.3453)" stroke-width=".79701" stroke-linecap="butt" stroke-linejoin="round" fill="none" stroke="#000000" d="M1.0361 0C-.25902 .25902-1.55415 .77707-3.1083 1.68365-1.55415 .51805-1.55415-.51805-3.1083-1.68365-1.55415-.77707-.25902-.25902 1.0361 0Z"/>
<use data-text="x" xlink:href="#font_1_2" transform="matrix(9.963197,0,0,-9.963098,247.10092,215.62612)"/>
<path transform="matrix(1.00006,0,0,-1.00005,35.631235,219.3453)" stroke-width=".79701" stroke-linecap="butt" stroke-miterlimit="10" stroke-linejoin="miter" fill="none" stroke="#000000" d="M0-34.0165V212.86954"/>
<path transform="matrix(0,-1.00005,-1.00006,-0,35.631235,6.4651339)" d="M1.0361 0C-.25902 .25902-1.55415 .77707-3.1083 1.68365-1.55415 .51805-1.55415-.51805-3.1083-1.68365-1.55415-.77707-.25902-.25902 1.0361 0Z"/>
<path transform="matrix(0,-1.00005,-1.00006,-0,35.631235,6.4651339)" stroke-width=".79701" stroke-linecap="butt" stroke-linejoin="round" fill="none" stroke="#000000" d="M1.0361 0C-.25902 .25902-1.55415 .77707-3.1083 1.68365-1.55415 .51805-1.55415-.51805-3.1083-1.68365-1.55415-.77707-.25902-.25902 1.0361 0Z"/>
<use data-text="y" xlink:href="#font_1_3" transform="matrix(9.963197,0,0,-9.963098,26.669693,6.20665)"/>
<path transform="matrix(1.00006,0,0,-1.00005,35.631235,219.3453)" stroke-width=".79701" stroke-linecap="butt" stroke-miterlimit="10" stroke-linejoin="miter" fill="none" stroke="#000000" d="M68.03302 1.70091V-1.70065"/>
<path transform="matrix(1.00006,0,0,-1.00005,35.631235,219.3453)" d="M57.07394-12.5047H78.99208V-4.0917198H57.07394Z" fill="#ffffff"/>
<use data-text="4" xlink:href="#font_2_4" transform="matrix(9.963197,0,0,-9.963098,93.70471,230.85388)"/>
<use data-text="0" xlink:href="#font_2_2" transform="matrix(9.963197,0,0,-9.963098,98.68631,230.85388)"/>
<use data-text="0" xlink:href="#font_2_2" transform="matrix(9.963197,0,0,-9.963098,103.66791,230.85388)"/>
<use data-text="0" xlink:href="#font_2_2" transform="matrix(9.963197,0,0,-9.963098,108.649509,230.85388)"/>
<path transform="matrix(1.00006,0,0,-1.00005,35.631235,219.3453)" stroke-width=".79701" stroke-linecap="butt" stroke-miterlimit="10" stroke-linejoin="miter" fill="none" stroke="#000000" d="M1.70091 68.03302H-1.70065"/>
<path transform="matrix(1.00006,0,0,-1.00005,35.631235,219.3453)" d="M-26.00986 63.82654H-4.0917189V72.239528H-26.00986Z" fill="#ffffff"/>
<use data-text="4" xlink:href="#font_2_4" transform="matrix(9.963197,0,0,-9.963098,10.615738,154.51908)"/>
<use data-text="0" xlink:href="#font_2_2" transform="matrix(9.963197,0,0,-9.963098,15.597336,154.51908)"/>
<use data-text="0" xlink:href="#font_2_2" transform="matrix(9.963197,0,0,-9.963098,20.578934,154.51908)"/>
<use data-text="0" xlink:href="#font_2_2" transform="matrix(9.963197,0,0,-9.963098,25.560532,154.51908)"/>
<path transform="matrix(1.00006,0,0,-1.00005,35.631235,219.3453)" stroke-width=".79701" stroke-linecap="butt" stroke-miterlimit="10" stroke-linejoin="miter" fill="none" stroke="#000000" d="M136.06606 1.70091V-1.70065"/>
<path transform="matrix(1.00006,0,0,-1.00005,35.631235,219.3453)" d="M125.10698-12.5047H147.02512V-4.0917198H125.10698Z" fill="#ffffff"/>
<use data-text="8" xlink:href="#font_2_5" transform="matrix(9.963197,0,0,-9.963098,161.74179,230.85388)"/>
<use data-text="0" xlink:href="#font_2_2" transform="matrix(9.963197,0,0,-9.963098,166.72339,230.85388)"/>
<use data-text="0" xlink:href="#font_2_2" transform="matrix(9.963197,0,0,-9.963098,171.70499,230.85388)"/>
<use data-text="0" xlink:href="#font_2_2" transform="matrix(9.963197,0,0,-9.963098,176.68659,230.85388)"/>
<path transform="matrix(1.00006,0,0,-1.00005,35.631235,219.3453)" stroke-width=".79701" stroke-linecap="butt" stroke-miterlimit="10" stroke-linejoin="miter" fill="none" stroke="#000000" d="M1.70091 136.06606H-1.70065"/>
<path transform="matrix(1.00006,0,0,-1.00005,35.631235,219.3453)" d="M-26.00986 131.85958H-4.0917189V140.27256H-26.00986Z" fill="#ffffff"/>
<use data-text="8" xlink:href="#font_2_5" transform="matrix(9.963197,0,0,-9.963098,10.615738,86.482669)"/>
<use data-text="0" xlink:href="#font_2_2" transform="matrix(9.963197,0,0,-9.963098,15.597336,86.482669)"/>
<use data-text="0" xlink:href="#font_2_2" transform="matrix(9.963197,0,0,-9.963098,20.578934,86.482669)"/>
<use data-text="0" xlink:href="#font_2_2" transform="matrix(9.963197,0,0,-9.963098,25.560532,86.482669)"/>
<g>
<path transform="matrix(1.00006,0,0,-1.00005,35.631235,219.3453)" d="M-34.0165 204.09909H204.09909V-34.0165Z" fill="#f49ac1" fill-opacity=".2"/>
<path transform="matrix(1.00006,0,0,-1.00005,35.631235,219.3453)" stroke-width=".3985" stroke-linecap="butt" stroke-miterlimit="10" stroke-linejoin="miter" fill="none" stroke="#f49ac1" stroke-opacity=".2" d="M-34.0165 204.09909H204.09909V-34.0165Z"/>
</g>
<path transform="matrix(1.00006,0,0,-1.00005,35.631235,219.3453)" stroke-width=".79701" stroke-linecap="butt" stroke-miterlimit="10" stroke-linejoin="miter" fill="none" stroke="#ff0000" d="M-33.00209 203.08469 203.08469-33.00209"/>
<path transform="matrix(-.70714238,-.7071353,-.70714238,.7071353,2.6271744,16.250489)" d="M1.0361 0C-.25902 .25902-1.55415 .77707-3.1083 1.68365-1.55415 .51805-1.55415-.51805-3.1083-1.68365-1.55415-.77707-.25902-.25902 1.0361 0Z" fill="#ff0000"/>
<path transform="matrix(-.70714238,-.7071353,-.70714238,.7071353,2.6271744,16.250489)" stroke-width=".79701" stroke-linecap="butt" stroke-linejoin="round" fill="none" stroke="#ff0000" d="M1.0361 0C-.25902 .25902-1.55415 .77707-3.1083 1.68365-1.55415 .51805-1.55415-.51805-3.1083-1.68365-1.55415-.77707-.25902-.25902 1.0361 0Z"/>
<path transform="matrix(.70714238,.7071353,.70714238,-.7071353,238.72809,252.34903)" d="M1.0361 0C-.25902 .25902-1.55415 .77707-3.1083 1.68365-1.55415 .51805-1.55415-.51805-3.1083-1.68365-1.55415-.77707-.25902-.25902 1.0361 0Z" fill="#ff0000"/>
<path transform="matrix(.70714238,.7071353,.70714238,-.7071353,238.72809,252.34903)" stroke-width=".79701" stroke-linecap="butt" stroke-linejoin="round" fill="none" stroke="#ff0000" d="M1.0361 0C-.25902 .25902-1.55415 .77707-3.1083 1.68365-1.55415 .51805-1.55415-.51805-3.1083-1.68365-1.55415-.77707-.25902-.25902 1.0361 0Z"/>
<path transform="matrix(1.00006,0,0,-1.00005,35.631235,219.3453)" d="M-14.45712 204.09909C-14.45712 205.50804-15.59929 206.6502-17.00824 206.6502-18.41719 206.6502-19.55936 205.50804-19.55936 204.09909-19.55936 202.69014-18.41719 201.54798-17.00824 201.54798-15.59929 201.54798-14.45712 202.69014-14.45712 204.09909ZM-17.00824 204.09909" fill="#ff0000"/>
<path transform="matrix(1.00006,0,0,-1.00005,35.631235,219.3453)" stroke-width=".3985" stroke-linecap="butt" stroke-miterlimit="10" stroke-linejoin="miter" fill="none" stroke="#ff0000" d="M-14.45712 204.09909C-14.45712 205.50804-15.59929 206.6502-17.00824 206.6502-18.41719 206.6502-19.55936 205.50804-19.55936 204.09909-19.55936 202.69014-18.41719 201.54798-17.00824 201.54798-15.59929 201.54798-14.45712 202.69014-14.45712 204.09909ZM-17.00824 204.09909"/>
<path transform="matrix(1.00006,0,0,-1.00005,35.631235,219.3453)" d="M87.59239 68.03302C87.59239 69.44197 86.45023 70.58415 85.04128 70.58415 83.63232 70.58415 82.49016 69.44197 82.49016 68.03302 82.49016 66.62407 83.63232 65.4819 85.04128 65.4819 86.45023 65.4819 87.59239 66.62407 87.59239 68.03302ZM85.04128 68.03302" fill="#ff0000"/>
<path transform="matrix(1.00006,0,0,-1.00005,35.631235,219.3453)" stroke-width=".3985" stroke-linecap="butt" stroke-miterlimit="10" stroke-linejoin="miter" fill="none" stroke="#ff0000" d="M87.59239 68.03302C87.59239 69.44197 86.45023 70.58415 85.04128 70.58415 83.63232 70.58415 82.49016 69.44197 82.49016 68.03302 82.49016 66.62407 83.63232 65.4819 85.04128 65.4819 86.45023 65.4819 87.59239 66.62407 87.59239 68.03302ZM85.04128 68.03302"/>
<path transform="matrix(1.00006,0,0,-1.00005,35.631235,219.3453)" d="M101.20796 129.89469H170.92414V142.23744H101.20796Z" fill="#fde9f1"/>
<use data-text="x" xlink:href="#font_1_2" transform="matrix(9.963197,0,0,-9.963098,138.83841,85.51462)"/>
<use data-text="+" xlink:href="#font_2_1" transform="matrix(9.963197,0,0,-9.963098,146.74689,85.51462)"/>
<use data-text="y" xlink:href="#font_1_3" transform="matrix(9.963197,0,0,-9.963098,156.7095,85.51462)"/>
<use data-text="&#x2265;" xlink:href="#font_3_1" transform="matrix(9.963197,0,0,-9.963098,164.719,85.51462)"/>
<use data-text="1" xlink:href="#font_2_3" transform="matrix(9.963197,0,0,-9.963098,175.2366,85.51462)"/>
<use data-text="0" xlink:href="#font_2_2" transform="matrix(9.963197,0,0,-9.963098,180.2182,85.51462)"/>
<use data-text="," xlink:href="#font_1_1" transform="matrix(9.963197,0,0,-9.963098,185.19922,85.51462)"/>
<use data-text="0" xlink:href="#font_2_2" transform="matrix(9.963197,0,0,-9.963098,189.62747,85.51462)"/>
<use data-text="0" xlink:href="#font_2_2" transform="matrix(9.963197,0,0,-9.963098,194.60907,85.51462)"/>
<use data-text="0" xlink:href="#font_2_2" transform="matrix(9.963197,0,0,-9.963098,199.59067,85.51462)"/>
<path transform="matrix(1.00006,0,0,-1.00005,35.631235,219.3453)" stroke-width=".3985" stroke-linecap="butt" stroke-miterlimit="10" stroke-linejoin="miter" fill="none" stroke="#000000" d="M135.0698 25.51236H110.55367"/>
<path transform="matrix(1.00006,0,0,-1.00005,170.70914,193.83167)" d="M.797 0C-.19925 .19925-1.19551 .59775-2.39102 1.29512-1.19551 .3985-1.19551-.3985-2.39102-1.29512-1.19551-.59775-.19925-.19925 .797 0Z"/>
<path transform="matrix(1.00006,0,0,-1.00005,170.70914,193.83167)" stroke-width=".3985" stroke-linecap="butt" stroke-linejoin="round" fill="none" stroke="#000000" d="M.797 0C-.19925 .19925-1.19551 .59775-2.39102 1.29512-1.19551 .3985-1.19551-.3985-2.39102-1.29512-1.19551-.59775-.19925-.19925 .797 0Z"/>
<path transform="matrix(1.00006,0,0,-1.00005,35.631235,219.3453)" d="M40.63823 19.34099H110.3544V31.68375H40.63823Z" fill="#ffffff"/>
<use data-text="x" xlink:href="#font_1_2" transform="matrix(9.963197,0,0,-9.963098,78.264789,196.07315)"/>
<use data-text="+" xlink:href="#font_2_1" transform="matrix(9.963197,0,0,-9.963098,86.17326,196.07315)"/>
<use data-text="y" xlink:href="#font_1_3" transform="matrix(9.963197,0,0,-9.963098,96.135868,196.07315)"/>
<use data-text="=" xlink:href="#font_2_6" transform="matrix(9.963197,0,0,-9.963098,104.145359,196.07315)"/>
<use data-text="1" xlink:href="#font_2_3" transform="matrix(9.963197,0,0,-9.963098,114.64656,196.07315)"/>
<use data-text="0" xlink:href="#font_2_2" transform="matrix(9.963197,0,0,-9.963098,119.62816,196.07315)"/>
<use data-text="," xlink:href="#font_1_1" transform="matrix(9.963197,0,0,-9.963098,124.62558,196.07315)"/>
<use data-text="0" xlink:href="#font_2_2" transform="matrix(9.963197,0,0,-9.963098,129.05385,196.07315)"/>
<use data-text="0" xlink:href="#font_2_2" transform="matrix(9.963197,0,0,-9.963098,134.03543,196.07315)"/>
<use data-text="0" xlink:href="#font_2_2" transform="matrix(9.963197,0,0,-9.963098,139.01703,196.07315)"/>
</svg>
