<svg xmlns="http://www.w3.org/2000/svg" xmlns:xlink="http://www.w3.org/1999/xlink" version="1.1" width="152" height="202" viewBox="0 0 152 202">
<defs>
<path id="font_1_2" d="M.20599365 .3996582H.2999878C.31999208 .3996582 .32998658 .3996582 .32998658 .41966249 .32998658 .43066407 .31999208 .43066407 .3019867 .43066407H.21398926C.25 .5724945 .25498963 .59246829 .25498963 .59846499 .25498963 .61546328 .24299622 .62545779 .22599793 .62545779 .22299195 .62545779 .19499207 .62446597 .18598938 .58947756L.14698792 .43066407H.052993776C.032989503 .43066407 .022994996 .43066407 .022994996 .4116516 .022994996 .3996582 .0309906 .3996582 .050994874 .3996582H.13899231C.066986087 .11608887 .06298828 .099121097 .06298828 .08114624 .06298828 .02722168 .100997928-.0107421879 .15499878-.0107421879 .25698854-.0107421879 .31399537 .13505554 .31399537 .14305115 .31399537 .1530304 .30599977 .1530304 .3019867 .1530304 .29299928 .1530304 .2919922 .15003968 .2869873 .13905335 .24398804 .035217287 .19099427 .011245728 .15699768 .011245728 .13598633 .011245728 .12599182 .024230957 .12599182 .057174684 .12599182 .08114624 .12799073 .088134769 .13198853 .10510254L.20599365 .3996582Z"/>
<path id="font_1_1" d="M.3909912 .37405396C.36299134 .37304688 .34298707 .3510437 .34298707 .32904054 .34298707 .31503297 .35198976 .30003358 .37399293 .30003358 .3959961 .30003358 .41999818 .31703187 .41999818 .35603334 .41999818 .40124513 .3769989 .4423828 .30099488 .4423828 .16899109 .4423828 .13198853 .3400421 .13198853 .29605104 .13198853 .21820069 .20599365 .20323181 .23498535 .19725037 .2869873 .18727112 .33898927 .17628479 .33898927 .12133789 .33898927 .095336917 .31599427 .011245728 .19599915 .011245728 .18199158 .011245728 .10499573 .011245728 .08198547 .064331058 .11999512 .059326173 .14498902 .08934021 .14498902 .11734009 .14498902 .14033509 .1289978 .15234375 .10798645 .15234375 .08198547 .15234375 .051986696 .1313324 .051986696 .08633423 .051986696 .029281617 .10899353-.0107421879 .19499207-.0107421879 .35699464-.0107421879 .3959961 .1103363 .3959961 .15533448 .3959961 .19125366 .3769989 .21620178 .36499024 .22817993 .33799745 .25613404 .30899049 .26112367 .2649994 .27009584 .22898865 .27807618 .18899536 .2850647 .18899536 .33003236 .18899536 .3590393 .21299744 .42037965 .30099488 .42037965 .32598878 .42037965 .37599183 .41333009 .3909912 .37405396Z"/>
<path id="font_2_6" d="M.44898988 .20022583C.44898988 .3193512 .36698915 .41944886 .25898744 .41944886 .21099854 .41944886 .16799927 .40345765 .13198853 .36842347V.5637665C.1519928 .5577698 .18499756 .55078127 .21699524 .55078127 .33999635 .55078127 .4099884 .6417694 .4099884 .6547699 .4099884 .6607666 .40699769 .6657715 .3999939 .6657715 .39898683 .6657715 .39698792 .6657715 .3919983 .66278079 .37199403 .6537781 .32299806 .6337738 .2559967 .6337738 .21598816 .6337738 .16999817 .6407776 .12298584 .6617737 .114990238 .66477969 .11299133 .66477969 .11099243 .66477969 .100997928 .66477969 .100997928 .6567688 .100997928 .6407776V.34439088C.100997928 .32637025 .100997928 .31835938 .114990238 .31835938 .12199402 .31835938 .12399292 .32136537 .12799073 .32736207 .13899231 .3433838 .17599488 .39746095 .25698854 .39746095 .30899049 .39746095 .33399964 .35139466 .34199525 .33337403 .35798646 .29632569 .3600006 .25727845 .3600006 .20722962 .3600006 .17222595 .3600006 .11222839 .33599855 .07035828 .31199647 .031463624 .2749939 .0055389406 .22898865 .0055389406 .1559906 .0055389406 .09899902 .058380128 .08198547 .11723328 .084991458 .1162262 .08799744 .115234378 .09899902 .115234378 .13198853 .115234378 .14898682 .14022827 .14898682 .16423035 .14898682 .18823242 .13198853 .21322632 .09899902 .21322632 .084991458 .21322632 .049987794 .20622254 .049987794 .16023255 .049987794 .07434082 .11898804-.022460938 .23098755-.022460938 .34700013-.022460938 .44898988 .073349 .44898988 .20022583Z"/>
<path id="font_2_2" d="M.2939911 .64004519C.2939911 .66400149 .2939911 .6660156 .2709961 .6660156 .20899964 .60227969 .12098694 .60227969 .08898926 .60227969V.57128909C.10899353 .57128909 .16799927 .57128909 .21998596 .5972748V.07902527C.21998596 .042999269 .21699524 .0309906 .1269989 .0309906H.09498596V0C.12998963 .0029907227 .21699524 .0029907227 .25698854 .0029907227 .29699708 .0029907227 .38398744 .0029907227 .4189911 0V.0309906H.3869934C.29699708 .0309906 .2939911 .041992189 .2939911 .07902527V.64004519Z"/>
<path id="font_2_1" d="M.45999146 .31976319C.45999146 .39982606 .45498658 .47988893 .41999818 .5539398 .37399293 .65000918 .2919922 .6660156 .25 .6660156 .18998719 .6660156 .116989139 .64001467 .07598877 .54693606 .04399109 .47789 .038986207 .39982606 .038986207 .31976319 .038986207 .24472046 .042999269 .15464783 .083999637 .07859802 .1269989-.0024719239 .19999695-.022460938 .24899292-.022460938 .30299378-.022460938 .3789978-.0014648438 .4229889 .09359741 .45498658 .16265869 .45999146 .2407074 .45999146 .31976319M.24899292-.00047302247C.20999146-.00047302247 .15098572 .024551392 .1329956 .12062073 .12199402 .18066406 .12199402 .2727356 .12199402 .3317871 .12199402 .39582826 .12199402 .46188355 .12998963 .5159149 .14898682 .63500979 .22399903 .64401248 .24899292 .64401248 .28199769 .64401248 .34799195 .6259918 .36698915 .52693179 .3769989 .47088624 .3769989 .39482118 .3769989 .3317871 .3769989 .25672914 .3769989 .18867493 .3659973 .12461853 .35099793 .029556275 .2939911-.00047302247 .24899292-.00047302247Z"/>
<path id="font_2_3" d="M.1269989 .07699585 .23298645 .18003845C.3889923 .31811524 .44898988 .3721466 .44898988 .47216798 .44898988 .5860901 .35899354 .6660156 .23699951 .6660156 .12399292 .6660156 .049987794 .57411196 .049987794 .48516847 .049987794 .4291687 .099990848 .4291687 .102996829 .4291687 .11999512 .4291687 .15499878 .44117738 .15499878 .48217774 .15499878 .5081787 .13699341 .5341797 .101989749 .5341797 .09399414 .5341797 .09199524 .5341797 .08898926 .5331726 .11199951 .59806826 .1659851 .63500979 .22399903 .63500979 .31498719 .63500979 .35798646 .5541382 .35798646 .47216798 .35798646 .39215089 .30799867 .31311036 .25299073 .25108338L.06098938 .036987306C.049987794 .025985718 .049987794 .023986817 .049987794 0H.42099L.44898988 .17404175H.42399598C.4189911 .14402771 .4119873 .1000061 .4019928 .084991458 .394989 .07699585 .32899476 .07699585 .30699159 .07699585H.1269989Z"/>
<path id="font_2_4" d="M.2899933 .35191346C.37199403 .37893678 .42999269 .4490509 .42999269 .52809146 .42999269 .6100464 .34199525 .6660156 .24598694 .6660156 .14498902 .6660156 .068984989 .60606387 .068984989 .53009036 .068984989 .49710084 .09098816 .47808839 .11999512 .47808839 .15098572 .47808839 .17098999 .50009158 .17098999 .5290985 .17098999 .57910159 .12399292 .57910159 .10899353 .57910159 .13999939 .62802127 .20599365 .64100649 .24198914 .64100649 .2829895 .64100649 .33799745 .6190338 .33799745 .5290985 .33799745 .51708987 .33599855 .45906068 .30999757 .4149933 .27999879 .36691285 .24598694 .36390687 .22099304 .36291505 .21299744 .36190797 .18899536 .35990907 .18199158 .35990907 .17399597 .35890199 .16699219 .35791017 .16699219 .3479004 .16699219 .33691407 .17399597 .33691407 .19099427 .33691407H.23498535C.31698609 .33691407 .35398866 .2686615 .35398866 .17037964 .35398866 .034469606 .2849884 .0055389406 .24099732 .0055389406 .19799805 .0055389406 .12298584 .022491456 .08799744 .08137512 .12298584 .07637024 .1539917 .09837341 .1539917 .1363678 .1539917 .17237854 .1269989 .19238281 .09799194 .19238281 .07398987 .19238281 .041992189 .17837525 .041992189 .1343689 .041992189 .043441774 .1349945-.022460938 .24398804-.022460938 .3659973-.022460938 .45700074 .06838989 .45700074 .17037964 .45700074 .252594 .3939972 .33088685 .2899933 .35191346Z"/>
<path id="font_2_5" d="M.2939911 .16503906V.07800293C.2939911 .041992189 .2919922 .0309906 .21798706 .0309906H.19699097V0C.23799134 .0029907227 .2899933 .0029907227 .33198548 .0029907227 .37399293 .0029907227 .4269867 .0029907227 .46798707 0V.0309906H.44699098C.37298585 .0309906 .37098695 .041992189 .37098695 .07800293V.16503906H.47099305V.19602967H.37098695V.65075686C.37098695 .67074587 .37098695 .6767578 .35499574 .6767578 .34599305 .6767578 .34298707 .6767578 .33499146 .66474917L.027999878 .19602967V.16503906H.2939911M.2999878 .19602967H.055999757L.2999878 .5688019V.19602967Z"/>
</defs>
<path transform="matrix(1.00008,0,0,-1.00002,16.198258,188.51451)" stroke-width=".3985" stroke-linecap="butt" stroke-miterlimit="10" stroke-linejoin="miter" fill="none" stroke="#00aeef" d="M0 0H113.38724M0 14.17339H113.38724M0 28.3468H113.38724M0 42.5202H113.38724M0 56.69362H113.38724M0 70.867H113.38724M0 85.04042H113.38724M0 99.21382H113.38724M0 113.38724H113.38724M0 127.56062H113.38724M0 141.73404H113.38724M0 155.90744H113.38724M0 170.07587H113.38724M0 0V170.08086M28.3468 0V170.08086M56.69362 0V170.08086M85.04042 0V170.08086M113.37727 0V170.08086M113.38724 170.08086"/>
<path transform="matrix(1.00008,0,0,-1.00002,16.198258,188.51451)" stroke-width=".79701" stroke-linecap="butt" stroke-miterlimit="10" stroke-linejoin="miter" fill="none" stroke="#000000" d="M0 0H126.12602"/>
<path transform="matrix(1.00008,0,0,-1.00002,142.33437,188.51451)" d="M1.0361 0C-.25902 .25902-1.55415 .77707-3.1083 1.68365-1.55415 .51805-1.55415-.51805-3.1083-1.68365-1.55415-.77707-.25902-.25902 1.0361 0Z"/>
<path transform="matrix(1.00008,0,0,-1.00002,142.33437,188.51451)" stroke-width=".79701" stroke-linecap="butt" stroke-linejoin="round" fill="none" stroke="#000000" d="M1.0361 0C-.25902 .25902-1.55415 .77707-3.1083 1.68365-1.55415 .51805-1.55415-.51805-3.1083-1.68365-1.55415-.77707-.25902-.25902 1.0361 0Z"/>
<use data-text="t" xlink:href="#font_1_2" transform="matrix(9.963397,0,0,-9.962799,147.48876,191.57857)"/>
<path transform="matrix(1.00008,0,0,-1.00002,16.198258,188.51451)" stroke-width=".79701" stroke-linecap="butt" stroke-miterlimit="10" stroke-linejoin="miter" fill="none" stroke="#000000" d="M0 0V177.15036"/>
<path transform="matrix(0,-1.00002,-1.00008,-0,16.198258,11.360596)" d="M1.0361 0C-.25902 .25902-1.55415 .77707-3.1083 1.68365-1.55415 .51805-1.55415-.51805-3.1083-1.68365-1.55415-.77707-.25902-.25902 1.0361 0Z"/>
<path transform="matrix(0,-1.00002,-1.00008,-0,16.198258,11.360596)" stroke-width=".79701" stroke-linecap="butt" stroke-linejoin="round" fill="none" stroke="#000000" d="M1.0361 0C-.25902 .25902-1.55415 .77707-3.1083 1.68365-1.55415 .51805-1.55415-.51805-3.1083-1.68365-1.55415-.77707-.25902-.25902 1.0361 0Z"/>
<use data-text="s" xlink:href="#font_1_1" transform="matrix(9.963397,0,0,-9.962799,13.863068,6.2068636)"/>
<path transform="matrix(1.00008,0,0,-1.00002,16.198258,188.51451)" stroke-width=".3985" stroke-linecap="butt" stroke-miterlimit="10" stroke-linejoin="miter" fill="none" stroke="#000000" d="M2.83484 70.867H-2.83441"/>
<path transform="matrix(1.00008,0,0,-1.00002,16.198258,188.51451)" d="M-12.00017 66.66052H-5.02623V75.0735H-12.00017Z" fill="#ffffff"/>
<use data-text="5" xlink:href="#font_2_6" transform="matrix(9.963397,0,0,-9.962799,5.1933748,120.856159)"/>
<path transform="matrix(1.00008,0,0,-1.00002,16.198258,188.51451)" stroke-width=".3985" stroke-linecap="butt" stroke-miterlimit="10" stroke-linejoin="miter" fill="none" stroke="#000000" d="M2.83484 141.73404H-2.83441"/>
<path transform="matrix(1.00008,0,0,-1.00002,16.198258,188.51451)" d="M-16.98158 137.52754H-5.0262405V145.94052H-16.98158Z" fill="#ffffff"/>
<use data-text="1" xlink:href="#font_2_2" transform="matrix(9.963397,0,0,-9.962799,.2119751,49.987733)"/>
<use data-text="0" xlink:href="#font_2_1" transform="matrix(9.963397,0,0,-9.962799,5.193672,49.987733)"/>
<path transform="matrix(1.00008,0,0,-1.00002,16.198258,188.51451)" stroke-width=".3985" stroke-linecap="butt" stroke-miterlimit="10" stroke-linejoin="miter" fill="none" stroke="#000000" d="M28.3468 1.4174V-1.41719"/>
<path transform="matrix(1.00008,0,0,-1.00002,16.198258,188.51451)" d="M24.85983-12.02199H31.83377V-3.6090098H24.85983Z" fill="#ffffff"/>
<use data-text="1" xlink:href="#font_2_2" transform="matrix(9.963397,0,0,-9.962799,42.056329,199.54074)"/>
<path transform="matrix(1.00008,0,0,-1.00002,16.198258,188.51451)" stroke-width=".3985" stroke-linecap="butt" stroke-miterlimit="10" stroke-linejoin="miter" fill="none" stroke="#000000" d="M56.69362 1.4174V-1.41719"/>
<path transform="matrix(1.00008,0,0,-1.00002,16.198258,188.51451)" d="M53.20665-12.02199H60.180589V-3.6090098H53.20665Z" fill="#ffffff"/>
<use data-text="2" xlink:href="#font_2_3" transform="matrix(9.963397,0,0,-9.962799,70.405597,199.54074)"/>
<path transform="matrix(1.00008,0,0,-1.00002,16.198258,188.51451)" stroke-width=".3985" stroke-linecap="butt" stroke-miterlimit="10" stroke-linejoin="miter" fill="none" stroke="#000000" d="M85.04042 1.4174V-1.41719"/>
<path transform="matrix(1.00008,0,0,-1.00002,16.198258,188.51451)" d="M81.55345-12.02199H88.52739V-3.6090098H81.55345Z" fill="#ffffff"/>
<use data-text="3" xlink:href="#font_2_4" transform="matrix(9.963397,0,0,-9.962799,98.75486,199.54074)"/>
<path transform="matrix(1.00008,0,0,-1.00002,16.198258,188.51451)" stroke-width=".3985" stroke-linecap="butt" stroke-miterlimit="10" stroke-linejoin="miter" fill="none" stroke="#000000" d="M113.38724 1.4174V-1.41719"/>
<path transform="matrix(1.00008,0,0,-1.00002,16.198258,188.51451)" d="M109.90027-12.02199H116.87421V-3.6090098H109.90027Z" fill="#ffffff"/>
<use data-text="4" xlink:href="#font_2_5" transform="matrix(9.963397,0,0,-9.962799,127.10413,199.54074)"/>
<path transform="matrix(1.00008,0,0,-1.00002,16.198258,188.51451)" stroke-width="1.19553" stroke-linecap="butt" stroke-miterlimit="10" stroke-linejoin="miter" fill="none" stroke="#ff0000" d="M47.19075 123.76663C47.19075 123.76663 47.82265 125.3943 48.06534 125.99419 48.30801 126.59409 48.69725 127.52715 48.93994 128.09027 49.18262 128.65341 49.57184 129.52654 49.81451 130.05292 50.0572 130.57929 50.44644 131.39429 50.68912 131.88407 50.93181 132.37384 51.32101 133.12984 51.5637 133.58286 51.8064 134.03588 52.1956 134.7327 52.4383 135.14908 52.68097 135.56545 53.0702 136.20415 53.3129 136.58382 53.55557 136.96346 53.9448 137.54242 54.18747 137.88532 54.43016 138.2282 54.8194 138.74886 55.06207 139.0551 55.30476 139.36135 55.69397 139.82288 55.93666 140.09255 56.17935 140.36222 56.56857 140.76581 56.81126 140.99872 57.05394 141.23163 57.44316 141.5751 57.68585 141.77123 57.92853 141.96735 58.31776 142.25273 58.56044 142.41225 58.80313 142.57176 59.19235 142.79799 59.43503 142.92092 59.67772 143.04386 60.06693 143.21213 60.30962 143.29831 60.5523 143.38448 60.94153 143.49265 61.18422 143.54204 61.4269 143.59142 61.81612 143.64151 62.0588 143.65428 62.30148 143.66707 62.69072 143.65811 62.9334 143.63417 63.17609 143.61023 63.5653 143.54228 63.80798 143.4817 64.05067 143.42113 64.4399 143.29486 64.68259 143.19753 64.92528 143.10019 65.31448 142.91419 65.55717 142.78012 65.79985 142.64606 66.18909 142.40195 66.43178 142.23123 66.67445 142.06053 67.06367 141.7571 67.30635 141.54978 67.54904 141.34246 67.93826 140.98111 68.18094 140.73703 68.42363 140.49295 68.81285 140.07147 69.05554 139.79064 69.29823 139.50981 69.68744 139.03041 69.93013 138.71297 70.1728 138.39554 70.56204 137.85681 70.80473 137.50273 71.04741 137.14865 71.43663 136.5518 71.6793 136.161 71.922 135.7702 72.31123 135.11362 72.55391 134.68604 72.7966 134.25849 73.1858 133.54358 73.4285 133.07939 73.67119 132.61518 74.06041 131.8413 74.3031 131.34037 74.54578 130.83943 74.935 130.00669 75.17769 129.469 75.42036 128.9313 75.80959 128.03934 76.05226 127.46504 76.29495 126.89073 76.68419 125.94072 76.92686 125.32982 77.16956 124.7189 77.55876 123.70972 77.80145 123.06201 78.04414 122.41432 78.43336 121.3461 78.67606 120.66165 78.91873 119.9772 79.30795 118.84999 79.55064 118.12892 79.79332 117.40787 80.18256 116.22238 80.42523 115.4647 80.66792 114.70703 81.05714 113.46252 81.29982 112.66814 81.54251 111.87372 81.93173 110.57037 82.17442 109.7392 82.41711 108.90805 82.80632 107.54549 83.04901 106.6777 83.29169 105.80989 83.68092 104.38925 83.92361 103.4847 84.16629 102.58014 84.55551 101.09958 84.79819 100.15828 85.04088 99.21695 85.4301 97.67812 85.67278 96.70033 85.91547 95.72256 86.30469 94.12567 86.54738 93.11113 86.79007 92.0966 87.17928 90.43958 87.42197 89.38828 87.66464 88.33699 88.05388 86.62221 88.29657 85.53415 88.53925 84.44612 88.92847 82.67102 89.17114 81.54637 89.41383 80.4217 89.80307 78.58966 90.04575 77.42839 90.28844 76.26714 90.67764 74.37494 90.92033 73.17677 91.16302 71.97859 91.55225 70.02756 91.79494 68.79277 92.03761 67.558 92.42683 65.54868 92.66953 64.27728 92.9122 63.0059 93.30142 60.93745 93.5441 59.62946 93.78679 58.32146 94.17603 56.19492 94.4187 54.85013 94.66139 53.50533 95.0506 51.31868 95.29329 49.93713 95.53598 48.5556 95.9252 46.311 96.1679 44.8929 96.41057 43.47476 96.79979 41.17116 97.04248 39.71628 97.28516 38.2614 97.6744 35.89874 97.91707 34.40709 98.15976 32.9154 98.54898 30.49359 98.79166 28.96533 99.03435 27.43704 99.42357 24.95714 99.66626 23.39229 99.90895 21.82744 100.29816 19.28853 100.54085 17.6869 100.78352 16.08528 101.17274 13.48732 101.41544 11.84894 101.65811 10.21053 102.04735 7.55342 102.29002 5.8784 102.53271 4.20338 103.16461-.22339 103.16461-.22339"/>
<path transform="matrix(1.00008,0,0,-1.00002,16.198258,188.51451)" stroke-width="1.19553" stroke-linecap="butt" stroke-miterlimit="10" stroke-linejoin="miter" fill="none" stroke="#ff0000" d="M0 0 47.19075 123.76208"/>
</svg>
