<svg xmlns="http://www.w3.org/2000/svg" xmlns:xlink="http://www.w3.org/1999/xlink" version="1.1" width="196" height="228" viewBox="0 0 196 228">
<defs>
<path id="font_1_1" d="M.33399964 .30233766C.33999635 .32835389 .36299134 .42037965 .43299867 .42037965 .43798829 .42037965 .46199037 .42037965 .48298646 .40734864 .45498658 .402359 .43499757 .37734986 .43499757 .35334779 .43499757 .33735658 .44599916 .31835938 .47299195 .31835938 .49499513 .31835938 .5269928 .3363495 .5269928 .37635804 .5269928 .42837525 .46798707 .4423828 .43399049 .4423828 .37599183 .4423828 .34098817 .38935853 .32899476 .36634828 .3039856 .43237306 .25 .4423828 .22099304 .4423828 .116989139 .4423828 .05999756 .3133545 .05999756 .28834535 .05999756 .27833558 .069992069 .27833558 .07199097 .27833558 .07998657 .27833558 .08299255 .28033448 .084991458 .28933717 .11898804 .39535523 .18499756 .42037965 .21899414 .42037965 .23799134 .42037965 .272995 .4113617 .272995 .35334779 .272995 .32235719 .2559967 .25532533 .21899414 .11528015 .20298767 .053268434 .16799927 .011245728 .12399292 .011245728 .117996219 .011245728 .09498596 .011245728 .07398987 .024276734 .09899902 .029266358 .12098694 .05027771 .12098694 .07827759 .12098694 .105270389 .09899902 .11328125 .083999637 .11328125 .053985597 .11328125 .0289917 .08728027 .0289917 .055267335 .0289917 .009246826 .07899475-.0107421879 .12298584-.0107421879 .18899536-.0107421879 .22499085 .059280397 .22799683 .0652771 .23999024 .028274537 .27598573-.0107421879 .33599855-.0107421879 .43899537-.0107421879 .49598695 .118270877 .49598695 .14328003 .49598695 .1532898 .4869995 .1532898 .48399354 .1532898 .47499085 .1532898 .47299195 .14929199 .47099305 .14228821 .43798829 .03527832 .36999513 .011245728 .33799745 .011245728 .29899598 .011245728 .2829895 .043273927 .2829895 .07727051 .2829895 .09927368 .2889862 .121276859 .2999878 .16529846L.33399964 .30233766Z"/>
<path id="font_1_2" d="M.48599244 .38136292C.48999024 .39537049 .48999024 .39736939 .48999024 .40437318 .48999024 .42237855 .47599793 .43138124 .46099855 .43138124 .45098878 .43138124 .43499757 .42536927 .42599488 .41036988 .42399598 .405365 .41600038 .37435914 .4119873 .35635377 .40499879 .33035279 .397995 .30334474 .3919983 .27633668L.34700013 .09628296C.34298707 .08126831 .2999878 .011245728 .23399353 .011245728 .18299866 .011245728 .17199707 .055267335 .17199707 .0922699 .17199707 .1382904 .18899536 .20030213 .22299195 .28833009 .23899842 .3293457 .24299622 .3403473 .24299622 .36035157 .24299622 .405365 .21099854 .4423828 .16099549 .4423828 .06599426 .4423828 .0289917 .29733277 .0289917 .28833009 .0289917 .27833558 .038986207 .27833558 .040985109 .27833558 .050994874 .27833558 .051986696 .28033448 .056991579 .29634095 .083999637 .3903656 .12399292 .42037965 .1579895 .42037965 .1659851 .42037965 .18299866 .42037965 .18299866 .3883667 .18299866 .36335755 .17298889 .3373413 .1659851 .31834413 .12599182 .21231079 .10798645 .1552887 .10798645 .10827637 .10798645 .019256592 .17098999-.0107421879 .22999573-.0107421879 .2689972-.0107421879 .30299378 .0062561037 .33099366 .03425598 .31799317-.017745972 .30599977-.06674194 .2659912-.11973572 .23999024-.15385437 .20199585-.18309021 .1559906-.18309021 .14199829-.18309021 .09700012-.18005371 .07998657-.14074707 .09599304-.14074707 .10899353-.14074707 .12298584-.1287384 .1329956-.11973572 .14299011-.10673523 .14299011-.08773804 .14299011-.056747438 .115997318-.052734376 .10598755-.052734376 .08299255-.052734376 .049987794-.068740848 .049987794-.11773682 .049987794-.16796875 .09399414-.20507813 .1559906-.20507813 .25898744-.20507813 .3619995-.11373901 .3899994-.00074768069L.48599244 .38136292Z"/>
<path id="font_2_64" d="M.27598573 .18710327V.24511719H.010986328V.18710327H.27598573Z"/>
<path id="font_2_56" d="M.44898988 .20091248C.44898988 .31991578 .36698915 .41992188 .25898744 .41992188 .21099854 .41992188 .16799927 .4039154 .13198853 .36891175V.5641022C.1519928 .55778506 .18499756 .55078127 .21699524 .55078127 .33999635 .55078127 .4099884 .6418457 .4099884 .65493777 .4099884 .6609802 .40699769 .6660156 .3999939 .6660156 .3999939 .66607668 .39698792 .66607668 .3919983 .66308596 .37199403 .65408328 .32299806 .63378909 .2559967 .63378909 .21598816 .63409426 .16999817 .641098 .12298584 .6621094 .114990238 .6651001 .11099243 .6651001 .11099243 .6651001 .100997928 .66508486 .100997928 .657074 .100997928 .64108279V.3447113C.100997928 .3266449 .100997928 .31861878 .114990238 .31861878 .12199402 .31861878 .12399292 .32164 .12799073 .32765199 .13899231 .34371949 .17599488 .3979187 .25698854 .3979187 .30899049 .3979187 .33399964 .3517456 .34199525 .3336792 .35798646 .2965393 .3600006 .2574005 .3600006 .20721436 .3600006 .17218018 .3600006 .112197879 .33599855 .07032776 .31199647 .031448366 .2749939 .0055389406 .22898865 .0055389406 .1559906 .0055389406 .09899902 .05836487 .08198547 .1171875 .084991458 .11685181 .08799744 .115859989 .09899902 .115859989 .13198853 .115859989 .14898682 .14085388 .14898682 .16485596 .14898682 .18885803 .13198853 .21386719 .09899902 .21386719 .084991458 .21386719 .049987794 .2068634 .049987794 .16085816 .049987794 .07432556 .11898804-.022460938 .23098755-.022460938 .34700013-.022460938 .44898988 .07331848 .44898988 .20019531V.20091248Z"/>
<path id="font_2_82" d="M.4189911 0V.0309906H.3869934C.29699708 .0309906 .2939911 .041992189 .2939911 .07902527V.64012148C.2939911 .6640167 .2939911 .6660156 .2709961 .6660156 .20899964 .60227969 .12098694 .60227969 .08898926 .60227969V.57128909C.10899353 .57128909 .16799927 .57128909 .21998596 .5972748V.07902527C.21998596 .042999269 .21699524 .0309906 .1269989 .0309906H.09498596V0C.12998963 .0029907227 .21699524 .0029907227 .25698854 .0029907227 .29699708 .0029907227 .38398744 .0029907227 .4189911 0Z"/>
<path id="font_2_121" d="M.45999146 .31976319C.45999146 .39982606 .45498658 .47988893 .41999818 .5539398 .37399293 .65000918 .2919922 .6660156 .25 .6660156 .18998719 .6660156 .116989139 .64001467 .07598877 .54693606 .04399109 .47789 .038986207 .39982606 .038986207 .31976319 .038986207 .24472046 .042999269 .15464783 .083999637 .07859802 .1269989-.0024719239 .19999695-.022460938 .24899292-.022460938 .30299378-.022460938 .3789978-.0014648438 .4229889 .09359741 .45498658 .16265869 .45999146 .2407074 .45999146 .31976319M.3769989 .3317871C.3769989 .25672914 .3769989 .18867493 .3659973 .12461853 .35099793 .029556275 .2939911-.00047302247 .24899292-.00047302247 .20999146-.00047302247 .15098572 .024551392 .1329956 .12062073 .12199402 .18066406 .12199402 .2727356 .12199402 .3317871 .12199402 .39582826 .12199402 .46188355 .12998963 .5159149 .14898682 .63500979 .22399903 .64401248 .24899292 .64401248 .28199769 .64401248 .34799195 .6259918 .36698915 .52693179 .3769989 .47088624 .3769989 .39482118 .3769989 .3317871Z"/>
<path id="font_3_1" d="M.68699648 .32714845C.70199587 .32714845 .72099307 .32714845 .72099307 .34713746 .72099307 .36714173 .70199587 .36714173 .6879883 .36714173H.08898926C.07499695 .36714173 .055999757 .36714173 .055999757 .34713746 .055999757 .32714845 .07499695 .32714845 .08999634 .32714845H.68699648M.6879883 .13284302C.70199587 .13284302 .72099307 .13284302 .72099307 .15284729 .72099307 .17285156 .70199587 .17285156 .68699648 .17285156H.08999634C.07499695 .17285156 .055999757 .17285156 .055999757 .15284729 .055999757 .13284302 .07499695 .13284302 .08898926 .13284302H.6879883Z"/>
<path id="font_4_1" d="M.5049896 .18203736H.47099305C.46798707 .16001892 .45799256 .100997928 .44499208 .09098816 .43699647 .084991458 .3600006 .084991458 .34599305 .084991458H.1619873C.2669983 .17803955 .3019867 .20603943 .3619995 .25306703 .43598939 .312088 .5049896 .374115 .5049896 .46914674 .5049896 .5900879 .39898683 .6640625 .2709961 .6640625 .14698792 .6640625 .06298828 .57710269 .06298828 .4851532 .06298828 .43414308 .10598755 .42915345 .115997318 .42915345 .13999939 .42915345 .16899109 .44615174 .16899109 .48214723 .16899109 .5001526 .1619873 .53515627 .10998535 .53515627 .14099121 .6060791 .20899964 .62805178 .2559967 .62805178 .35598756 .62805178 .4079895 .5501404 .4079895 .46914674 .4079895 .38212586 .34599305 .3130951 .31399537 .27708436L.07299805 .038986207C.06298828 .02999878 .06298828 .027999878 .06298828 0H.47499085L.5049896 .18203736Z"/>
</defs>
<path transform="matrix(1.00003,0,0,-1,90.40329,192.151)" stroke-width=".3985" stroke-linecap="butt" stroke-miterlimit="10" stroke-linejoin="miter" fill="none" stroke="#00aeef" d="M-85.04128-17.00824H85.04128M-85.04128 0H85.04128M-85.04128 17.00824H85.04128M-85.04128 34.0165H85.04128M-85.04128 51.02477H85.04128M-85.04128 68.03302H85.04128M-85.04128 85.04128H85.04128M-85.04128 102.04953H85.04128M-85.04128 119.0578H85.04128M-85.04128 136.06606H85.04128M-85.04128 153.07433H85.04128M-85.04128 170.0766H85.04128M-85.04128-17.00824V170.08257M-68.03302-17.00824V170.08257M-51.02477-17.00824V170.08257M-34.0165-17.00824V170.08257M-17.00824-17.00824V170.08257M0-17.00824V170.08257M17.00824-17.00824V170.08257M34.0165-17.00824V170.08257M51.02477-17.00824V170.08257M68.03302-17.00824V170.08257M85.0353-17.00824V170.08257M85.04128 170.08257"/>
<path transform="matrix(1.00003,0,0,-1,90.40329,192.151)" stroke-width=".79701" stroke-linecap="butt" stroke-miterlimit="10" stroke-linejoin="miter" fill="none" stroke="#000000" d="M-85.04128 0H93.81172"/>
<path transform="matrix(1.00003,0,0,-1,184.21784,192.151)" d="M1.0361 0C-.25902 .25902-1.55415 .77707-3.1083 1.68365-1.55415 .51805-1.55415-.51805-3.1083-1.68365-1.55415-.77707-.25902-.25902 1.0361 0Z"/>
<path transform="matrix(1.00003,0,0,-1,184.21784,192.151)" stroke-width=".79701" stroke-linecap="butt" stroke-linejoin="round" fill="none" stroke="#000000" d="M1.0361 0C-.25902 .25902-1.55415 .77707-3.1083 1.68365-1.55415 .51805-1.55415-.51805-3.1083-1.68365-1.55415-.77707-.25902-.25902 1.0361 0Z"/>
<use data-text="x" xlink:href="#font_1_1" transform="matrix(9.962899,0,0,-9.9626,189.37126,194.296)"/>
<path transform="matrix(1.00003,0,0,-1,90.40329,192.151)" stroke-width=".79701" stroke-linecap="butt" stroke-miterlimit="10" stroke-linejoin="miter" fill="none" stroke="#000000" d="M0-17.00824V178.85301"/>
<path transform="matrix(0,-1,-1.00003,-0,90.40329,13.297989)" d="M1.0361 0C-.25902 .25902-1.55415 .77707-3.1083 1.68365-1.55415 .51805-1.55415-.51805-3.1083-1.68365-1.55415-.77707-.25902-.25902 1.0361 0Z"/>
<path transform="matrix(0,-1,-1.00003,-0,90.40329,13.297989)" stroke-width=".79701" stroke-linecap="butt" stroke-linejoin="round" fill="none" stroke="#000000" d="M1.0361 0C-.25902 .25902-1.55415 .77707-3.1083 1.68365-1.55415 .51805-1.55415-.51805-3.1083-1.68365-1.55415-.77707-.25902-.25902 1.0361 0Z"/>
<use data-text="y" xlink:href="#font_1_2" transform="matrix(9.962899,0,0,-9.9626,87.78221,6.2070009)"/>
<path transform="matrix(1.00003,0,0,-1,90.40329,192.151)" stroke-width=".79701" stroke-linecap="butt" stroke-miterlimit="10" stroke-linejoin="miter" fill="none" stroke="#000000" d="M-85.04128 1.70091V-1.70065"/>
<path transform="matrix(1.00003,0,0,-1,90.40329,192.151)" d="M-90.18704-12.93863H-79.89552V-4.0917198H-90.18704Z" fill="#ffffff"/>
<use data-text="-" xlink:href="#font_2_64" transform="matrix(9.962899,0,0,-9.9626,1.20961,203.874)"/>
<use data-text="5" xlink:href="#font_2_56" transform="matrix(9.962899,0,0,-9.9626,4.5272676,203.874)"/>
<path transform="matrix(1.00003,0,0,-1,90.40329,192.151)" stroke-width=".79701" stroke-linecap="butt" stroke-miterlimit="10" stroke-linejoin="miter" fill="none" stroke="#000000" d="M85.04128 1.70091V-1.70065"/>
<path transform="matrix(1.00003,0,0,-1,90.40329,192.151)" d="M81.5543-12.93863H88.52824V-4.0917198H81.5543Z" fill="#ffffff"/>
<use data-text="5" xlink:href="#font_2_56" transform="matrix(9.962899,0,0,-9.9626,172.95677,203.874)"/>
<path transform="matrix(1.00003,0,0,-1,90.40329,192.151)" stroke-width=".79701" stroke-linecap="butt" stroke-miterlimit="10" stroke-linejoin="miter" fill="none" stroke="#000000" d="M1.70091 85.04128H-1.70065"/>
<path transform="matrix(1.00003,0,0,-1,90.40329,192.151)" d="M-11.06564 80.61781H-4.0917007V89.46472H-11.06564Z" fill="#ffffff"/>
<use data-text="5" xlink:href="#font_2_56" transform="matrix(9.962899,0,0,-9.9626,80.333988,110.318)"/>
<path transform="matrix(1.00003,0,0,-1,90.40329,192.151)" stroke-width=".79701" stroke-linecap="butt" stroke-miterlimit="10" stroke-linejoin="miter" fill="none" stroke="#000000" d="M1.70091 170.08257H-1.70065"/>
<path transform="matrix(1.00003,0,0,-1,90.40329,192.151)" d="M-16.04703 165.65912H-4.091709V174.50603H-16.04703Z" fill="#ffffff"/>
<use data-text="1" xlink:href="#font_2_82" transform="matrix(9.962899,0,0,-9.9626,75.35184,25.276001)"/>
<use data-text="0" xlink:href="#font_2_121" transform="matrix(9.962899,0,0,-9.9626,80.33328,25.276001)"/>
<path transform="matrix(1.00003,0,0,-1,90.40329,192.151)" stroke-width="1.19553" stroke-linecap="butt" stroke-miterlimit="10" stroke-linejoin="miter" fill="none" stroke="#ff0000" d="M-53.48955 168.23279C-52.5705 162.47626-52.5705 162.47626-52.10413 159.61876-51.63774 156.76126-50.88982 152.25273-50.42343 149.48741-49.95705 146.72209-49.20914 142.36139-48.74275 139.68825-48.27637 137.0151-47.52844 132.80223-47.06206 130.22129-46.59569 127.64034-45.84776 123.5753-45.38138 121.0865-44.915 118.5977-44.16707 114.68033-43.7007 112.28366-43.23431 109.887-42.48639 106.1175-42.02 103.813-41.55363 101.50853-40.80571 97.88684-40.33932 95.67456-39.87294 93.46225-39.125 89.98839-38.65865 87.86829-38.19226 85.74817-37.44432 82.42215-36.97794 80.39421-36.51157 78.36629-35.76364 75.1881-35.29726 73.25233-34.83087 71.31657-34.08295 68.28624-33.61656 66.44264-33.15019 64.59903-32.40227 61.71631-31.93588 59.96489-31.4695 58.21347-30.72157 55.47882-30.2552 53.81958-29.78882 52.16034-29.0409 49.5733-28.57451 48.00621-28.10812 46.43913-27.36021 43.99995-26.89383 42.52505-26.42744 41.05014-25.6795 38.75879-25.21315 37.37605-24.74677 35.99332-23.99883 33.84984-23.53244 32.55925-23.06607 31.26868-22.31815 29.2728-21.85176 28.0744-21.38538 26.87599-20.63745 25.02823-20.17107 23.92201-19.7047 22.81578-18.95677 21.1156-18.49039 20.10152-18.024 19.08745-17.27608 17.5351-16.80971 16.61324-16.34332 15.69138-15.5954 14.28708-15.12901 13.45741-14.66263 12.62775-13.91472 11.3711-13.44833 10.63351-12.98195 9.89595-12.23401 8.78693-11.76764 8.14157-11.30127 7.49619-10.55333 6.5352-10.08694 5.98204-9.62057 5.42888-8.87263 4.61574-8.40627 4.15472-7.93988 3.69371-7.19196 3.02821-6.72557 2.65933-6.2592 2.29048-5.51128 1.7728-5.04489 1.49615-4.5785 1.2195-3.83058 .84987-3.36421 .6654-2.89783 .48094-2.1499 .25891-1.68352 .1666-1.21713 .07428-.46922 .00015-.00284 0 .46352-.00015 1.21143 .0733 1.67781 .1653 2.14418 .2573 2.8921 .47888 3.35849 .66307 3.82487 .84724 4.57281 1.21642 5.03917 1.49277 5.50555 1.76913 6.2535 2.28639 6.71988 2.65492 7.18625 3.02347 7.93417 3.68832 8.40056 4.14902 8.86694 4.60971 9.61487 5.42241 10.08124 5.97528 10.54762 6.52817 11.29555 7.48871 11.76193 8.13376 12.22832 8.77882 12.97623 9.88724 13.44261 10.62442 13.909 11.36163 14.65692 12.61765 15.1233 13.44702 15.58968 14.27641 16.3376 15.68051 16.80399 16.60208 17.27037 17.52365 18.01831 19.07532 18.48466 20.08907 18.95105 21.10281 19.69899 22.80258 20.16537 23.9085 20.63176 25.01442 21.37967 26.86179 21.84605 28.05986 22.31244 29.25795 23.06036 31.25317 23.52675 32.54343 23.99312 33.8337 24.74104 35.97678 25.20743 37.35919 25.67381 38.7416 26.42174 41.03229 26.8881 42.50687 27.35449 43.98146 28.10242 46.42024 28.5688 47.98701 29.03517 49.55377 29.7831 52.14014 30.24948 53.79907 30.71587 55.45802 31.4638 58.19246 31.93016 59.9436 32.39655 61.69473 33.14449 64.57678 33.61087 66.42006 34.07726 68.26335 34.82516 71.29324 35.29155 73.22871 35.75793 75.16417 36.50586 78.34196 36.97224 80.36955 37.43861 82.39716 38.18654 85.72255 38.65292 87.84233 39.11931 89.96213 39.86723 93.43555 40.3336 95.64755 40.79999 97.85957 41.54791 101.48083 42.0143 103.78497 42.48067 106.08913 43.22859 109.85803 43.69498 112.25433 44.16136 114.65063 44.9093 118.5674 45.37566 121.05588 45.84204 123.54436 46.58998 127.60896 47.05637 130.18962 47.52274 132.77028 48.27066 136.9827 48.73705 139.65555 49.20343 142.3284 49.95135 146.68865 50.41774 149.45368 50.88411 152.2187 51.63202 156.7268 52.0984 159.58399 52.56479 162.44118 53.77908 170.04624 53.48381 168.19675"/>
<path transform="matrix(-.15764474,-.98747,-.98749968,.15764,36.912134,23.918229)" d="M1.27522 0C-.31879 .31879-1.91284 .9564-3.8257 2.07224-1.91284 .6376-1.91284-.6376-3.8257-2.07224-1.91284-.9564-.31879-.31879 1.27522 0Z" fill="#ff0000"/>
<path transform="matrix(-.15764474,-.98747,-.98749968,.15764,36.912134,23.918229)" stroke-width="1.19553" stroke-linecap="butt" stroke-linejoin="round" fill="none" stroke="#ff0000" d="M1.27522 0C-.31879 .31879-1.91284 .9564-3.8257 2.07224-1.91284 .6376-1.91284-.6376-3.8257-2.07224-1.91284-.9564-.31879-.31879 1.27522 0Z"/>
<path transform="matrix(.15765473,-.98746,-.9874897,-.15765,143.8887,23.954255)" d="M1.27522 0C-.31879 .31879-1.91284 .9564-3.8257 2.07224-1.91284 .6376-1.91284-.6376-3.8257-2.07224-1.91284-.9564-.31879-.31879 1.27522 0Z" fill="#ff0000"/>
<path transform="matrix(.15765473,-.98746,-.9874897,-.15765,143.8887,23.954255)" stroke-width="1.19553" stroke-linecap="butt" stroke-linejoin="round" fill="none" stroke="#ff0000" d="M1.27522 0C-.31879 .31879-1.91284 .9564-3.8257 2.07224-1.91284 .6376-1.91284-.6376-3.8257-2.07224-1.91284-.9564-.31879-.31879 1.27522 0Z"/>
<use data-text="y" xlink:href="#font_1_2" transform="matrix(9.962899,0,0,-9.9626,76.05886,224.151)"/>
<use data-text="=" xlink:href="#font_3_1" transform="matrix(9.962899,0,0,-9.9626,84.06811,224.151)"/>
<use data-text="x" xlink:href="#font_1_1" transform="matrix(9.962899,0,0,-9.9626,94.584438,224.151)"/>
<use data-text="2" xlink:href="#font_4_1" transform="matrix(6.9740097,0,0,-6.9738,100.2786,220.536)"/>
</svg>
