<svg xmlns="http://www.w3.org/2000/svg" xmlns:xlink="http://www.w3.org/1999/xlink" version="1.1" width="119" height="182" viewBox="0 0 119 182">
<defs>
<path id="font_1_1" d="M.33399964 .30233766C.33999635 .32835389 .36299134 .42037965 .43299867 .42037965 .43798829 .42037965 .46199037 .42037965 .48298646 .40734864 .45498658 .402359 .43499757 .37734986 .43499757 .35334779 .43499757 .33735658 .44599916 .31835938 .47299195 .31835938 .49499513 .31835938 .5269928 .3363495 .5269928 .37635804 .5269928 .42837525 .46798707 .4423828 .43399049 .4423828 .37599183 .4423828 .34098817 .38935853 .32899476 .36634828 .3039856 .43237306 .25 .4423828 .22099304 .4423828 .116989139 .4423828 .05999756 .3133545 .05999756 .28834535 .05999756 .27833558 .069992069 .27833558 .07199097 .27833558 .07998657 .27833558 .08299255 .28033448 .084991458 .28933717 .11898804 .39535523 .18499756 .42037965 .21899414 .42037965 .23799134 .42037965 .272995 .4113617 .272995 .35334779 .272995 .32235719 .2559967 .25532533 .21899414 .11528015 .20298767 .053268434 .16799927 .011245728 .12399292 .011245728 .117996219 .011245728 .09498596 .011245728 .07398987 .024276734 .09899902 .029266358 .12098694 .05027771 .12098694 .07827759 .12098694 .105270389 .09899902 .11328125 .083999637 .11328125 .053985597 .11328125 .0289917 .08728027 .0289917 .055267335 .0289917 .009246826 .07899475-.0107421879 .12298584-.0107421879 .18899536-.0107421879 .22499085 .059280397 .22799683 .0652771 .23999024 .028274537 .27598573-.0107421879 .33599855-.0107421879 .43899537-.0107421879 .49598695 .118270877 .49598695 .14328003 .49598695 .1532898 .4869995 .1532898 .48399354 .1532898 .47499085 .1532898 .47299195 .14929199 .47099305 .14228821 .43798829 .03527832 .36999513 .011245728 .33799745 .011245728 .29899598 .011245728 .2829895 .043273927 .2829895 .07727051 .2829895 .09927368 .2889862 .121276859 .2999878 .16529846L.33399964 .30233766Z"/>
<path id="font_1_2" d="M.48599244 .38136292C.48999024 .39537049 .48999024 .39736939 .48999024 .40437318 .48999024 .42237855 .47599793 .43138124 .46099855 .43138124 .45098878 .43138124 .43499757 .42536927 .42599488 .41036988 .42399598 .405365 .41600038 .37435914 .4119873 .35635377 .40499879 .33035279 .397995 .30334474 .3919983 .27633668L.34700013 .09628296C.34298707 .08126831 .2999878 .011245728 .23399353 .011245728 .18299866 .011245728 .17199707 .055267335 .17199707 .0922699 .17199707 .1382904 .18899536 .20030213 .22299195 .28833009 .23899842 .3293457 .24299622 .3403473 .24299622 .36035157 .24299622 .405365 .21099854 .4423828 .16099549 .4423828 .06599426 .4423828 .0289917 .29733277 .0289917 .28833009 .0289917 .27833558 .038986207 .27833558 .040985109 .27833558 .050994874 .27833558 .051986696 .28033448 .056991579 .29634095 .083999637 .3903656 .12399292 .42037965 .1579895 .42037965 .1659851 .42037965 .18299866 .42037965 .18299866 .3883667 .18299866 .36335755 .17298889 .3373413 .1659851 .31834413 .12599182 .21231079 .10798645 .1552887 .10798645 .10827637 .10798645 .019256592 .17098999-.0107421879 .22999573-.0107421879 .2689972-.0107421879 .30299378 .0062561037 .33099366 .03425598 .31799317-.017745972 .30599977-.06674194 .2659912-.11973572 .23999024-.15385437 .20199585-.18309021 .1559906-.18309021 .14199829-.18309021 .09700012-.18005371 .07998657-.14074707 .09599304-.14074707 .10899353-.14074707 .12298584-.1287384 .1329956-.11973572 .14299011-.10673523 .14299011-.08773804 .14299011-.056747438 .115997318-.052734376 .10598755-.052734376 .08299255-.052734376 .049987794-.068740848 .049987794-.11773682 .049987794-.16796875 .09399414-.20507813 .1559906-.20507813 .25898744-.20507813 .3619995-.11373901 .3899994-.00074768069L.48599244 .38136292Z"/>
<path id="font_2_1" d="M.6589966 .23046875C.6759949 .23046875 .69400027 .23046875 .69400027 .25045777 .69400027 .27046205 .6759949 .27046205 .6589966 .27046205H.117996219C.100997928 .27046205 .08299255 .27046205 .08299255 .25045777 .08299255 .23046875 .100997928 .23046875 .117996219 .23046875H.6589966Z"/>
<path id="font_3_2" d="M.2939911 .16503906V.07800293C.2939911 .041992189 .2919922 .0309906 .21798706 .0309906H.19699097V0C.23799134 .0029907227 .2899933 .0029907227 .33198548 .0029907227 .37399293 .0029907227 .4269867 .0029907227 .46798707 0V.0309906H.44699098C.37298585 .0309906 .37098695 .041992189 .37098695 .07800293V.16503906H.47099305V.19602967H.37098695V.65075686C.37098695 .67074587 .37098695 .6767578 .35499574 .6767578 .34599305 .6767578 .34298707 .6767578 .33499146 .66474917L.027999878 .19602967V.16503906H.2939911M.2999878 .19602967H.055999757L.2999878 .5688019V.19602967Z"/>
<path id="font_3_1" d="M.1269989 .07699585 .23298645 .18003845C.3889923 .31811524 .44898988 .3721466 .44898988 .47216798 .44898988 .5860901 .35899354 .6660156 .23699951 .6660156 .12399292 .6660156 .049987794 .57411196 .049987794 .48516847 .049987794 .4291687 .099990848 .4291687 .102996829 .4291687 .11999512 .4291687 .15499878 .44117738 .15499878 .48217774 .15499878 .5081787 .13699341 .5341797 .101989749 .5341797 .09399414 .5341797 .09199524 .5341797 .08898926 .5331726 .11199951 .59806826 .1659851 .63500979 .22399903 .63500979 .31498719 .63500979 .35798646 .5541382 .35798646 .47216798 .35798646 .39215089 .30799867 .31311036 .25299073 .25108338L.06098938 .036987306C.049987794 .025985718 .049987794 .023986817 .049987794 0H.42099L.44898988 .17404175H.42399598C.4189911 .14402771 .4119873 .1000061 .4019928 .084991458 .394989 .07699585 .32899476 .07699585 .30699159 .07699585H.1269989Z"/>
<path id="font_4_85" d="M.33099366-.2400055C.33099366-.23701477 .33099366-.23500061 .31399537-.21800232 .18899536-.0920105 .15699768 .09700012 .15699768 .25 .15699768 .42399598 .19499207 .59799197 .31799317 .72299197 .33099366 .7350006 .33099366 .7369995 .33099366 .73999026 .33099366 .746994 .32699586 .75 .32099916 .75 .31098939 .75 .22099304 .6819916 .1619873 .5549927 .11099243 .44499208 .09899902 .33399964 .09899902 .25 .09899902 .17199707 .10998535 .050994874 .16499329-.06201172 .22499085-.18501282 .31098939-.25 .32099916-.25 .32699586-.25 .33099366-.24700928 .33099366-.2400055Z"/>
<path id="font_4_55" d="M.35699464 .63479617C.35699464 .6717987 .31999208 .7050781 .2669983 .7050781 .19699097 .7050781 .11199951 .65179446 .11199951 .5457611V.43066407H.032989503V.3996582H.11199951V.07595825C.11199951 .0309906 .100997928 .0309906 .033996583 .0309906V0L.147995 .0029907227C.18798828 .0029907227 .23498535 .0029907227 .2749939 0V.0309906H.2539978C.17999268 .0309906 .17799378 .04197693 .17799378 .07795715V.3996582H.2919922V.43066407H.1749878V.5467529C.1749878 .63479617 .22299195 .68307498 .2669983 .68307498 .269989 .68307498 .2849884 .68307498 .2999878 .675827 .28799439 .6717987 .269989 .6587982 .269989 .6338043 .269989 .61079409 .28599549 .5907898 .31298829 .5907898 .34199525 .5907898 .35699464 .61079409 .35699464 .63479617Z"/>
<path id="font_4_86" d="M.2889862 .25C.2889862 .32798768 .27799989 .44898988 .22299195 .56199648 .16299439 .68499758 .07699585 .75 .066986087 .75 .06098938 .75 .056991579 .74598696 .056991579 .73999026 .056991579 .7369995 .056991579 .7350006 .07598877 .71699526 .17399597 .6179962 .23098755 .45899964 .23098755 .25 .23098755 .07899475 .19400025-.09700012 .069992069-.2230072 .056991579-.23500061 .056991579-.23701477 .056991579-.2400055 .056991579-.2460022 .06098938-.25 .066986087-.25 .07699585-.25 .16699219-.18200684 .22599793-.055007936 .2769928 .054992677 .2889862 .16600037 .2889862 .25Z"/>
</defs>
<path transform="matrix(1,0,0,-1.00003,52.836,90.10632)" stroke-width=".3985" stroke-linecap="butt" stroke-miterlimit="10" stroke-linejoin="miter" fill="none" stroke="#00aeef" d="M-51.02477-68.03302H51.02477M-51.02477-51.02477H51.02477M-51.02477-34.0165H51.02477M-51.02477-17.00824H51.02477M-51.02477 0H51.02477M-51.02477 17.00824H51.02477M-51.02477 34.0165H51.02477M-51.02477 51.02477H51.02477M-51.02477 68.02705H51.02477M-51.02477-68.03302V68.03302M-34.0165-68.03302V68.03302M-17.00824-68.03302V68.03302M0-68.03302V68.03302M17.00824-68.03302V68.03302M34.0165-68.03302V68.03302M51.02177-68.03302V68.03302M51.02477 68.03302"/>
<path transform="matrix(1,0,0,-1.00003,52.836,90.10632)" stroke-width=".79701" stroke-linecap="butt" stroke-miterlimit="10" stroke-linejoin="miter" fill="none" stroke="#000000" d="M-51.02477 0H54.69269"/>
<path transform="matrix(1,0,0,-1.00003,107.52869,90.10632)" d="M1.0361 0C-.25902 .25902-1.55415 .77707-3.1083 1.68365-1.55415 .51805-1.55415-.51805-3.1083-1.68365-1.55415-.77707-.25902-.25902 1.0361 0Z"/>
<path transform="matrix(1,0,0,-1.00003,107.52869,90.10632)" stroke-width=".79701" stroke-linecap="butt" stroke-linejoin="round" fill="none" stroke="#000000" d="M1.0361 0C-.25902 .25902-1.55415 .77707-3.1083 1.68365-1.55415 .51805-1.55415-.51805-3.1083-1.68365-1.55415-.77707-.25902-.25902 1.0361 0Z"/>
<use data-text="x" xlink:href="#font_1_1" transform="matrix(9.9626,0,0,-9.962899,112.682,92.25139)"/>
<path transform="matrix(1,0,0,-1.00003,52.836,90.10632)" stroke-width=".79701" stroke-linecap="butt" stroke-miterlimit="10" stroke-linejoin="miter" fill="none" stroke="#000000" d="M0-68.03302V76.80345"/>
<path transform="matrix(0,-1.00003,-1,-0,52.836,13.300568)" d="M1.0361 0C-.25902 .25902-1.55415 .77707-3.1083 1.68365-1.55415 .51805-1.55415-.51805-3.1083-1.68365-1.55415-.77707-.25902-.25902 1.0361 0Z"/>
<path transform="matrix(0,-1.00003,-1,-0,52.836,13.300568)" stroke-width=".79701" stroke-linecap="butt" stroke-linejoin="round" fill="none" stroke="#000000" d="M1.0361 0C-.25902 .25902-1.55415 .77707-3.1083 1.68365-1.55415 .51805-1.55415-.51805-3.1083-1.68365-1.55415-.77707-.25902-.25902 1.0361 0Z"/>
<use data-text="y" xlink:href="#font_1_2" transform="matrix(9.9626,0,0,-9.962899,50.214998,6.2098085)"/>
<path transform="matrix(1,0,0,-1.00003,52.836,90.10632)" stroke-width=".3985" stroke-linecap="butt" stroke-miterlimit="10" stroke-linejoin="miter" fill="none" stroke="#000000" d="M-34.0165 1.70091V-1.70065"/>
<path transform="matrix(1,0,0,-1.00003,52.836,90.10632)" d="M-41.3779-13.13568H-26.655119V-3.8924504H-41.3779Z" fill="#ffffff"/>
<use data-text="&#x2212;" xlink:href="#font_2_1" transform="matrix(9.9626,0,0,-9.962899,12.453995,101.415668)"/>
<use data-text="4" xlink:href="#font_3_2" transform="matrix(9.9626,0,0,-9.962899,20.202988,101.415668)"/>
<path transform="matrix(1,0,0,-1.00003,52.836,90.10632)" stroke-width=".3985" stroke-linecap="butt" stroke-miterlimit="10" stroke-linejoin="miter" fill="none" stroke="#000000" d="M34.0165 1.70091V-1.70065"/>
<path transform="matrix(1,0,0,-1.00003,52.836,90.10632)" d="M30.52953-12.30545H37.50347V-3.8924704H30.52953Z" fill="#ffffff"/>
<use data-text="4" xlink:href="#font_3_2" transform="matrix(9.9626,0,0,-9.962899,84.362,101.415668)"/>
<path transform="matrix(1,0,0,-1.00003,52.836,90.10632)" stroke-width=".3985" stroke-linecap="butt" stroke-miterlimit="10" stroke-linejoin="miter" fill="none" stroke="#000000" d="M.85045-34.0165H-.85031"/>
<path transform="matrix(1,0,0,-1.00003,52.836,90.10632)" d="M-17.76491-38.63812H-3.0421296V-29.39489H-17.76491Z" fill="#ffffff"/>
<use data-text="&#x2212;" xlink:href="#font_2_1" transform="matrix(9.9626,0,0,-9.962899,36.067,126.91943)"/>
<use data-text="2" xlink:href="#font_3_1" transform="matrix(9.9626,0,0,-9.962899,43.815996,126.91943)"/>
<path transform="matrix(1,0,0,-1.00003,52.836,90.10632)" stroke-width=".3985" stroke-linecap="butt" stroke-miterlimit="10" stroke-linejoin="miter" fill="none" stroke="#000000" d="M.85045 34.0165H-.85031"/>
<path transform="matrix(1,0,0,-1.00003,52.836,90.10632)" d="M-10.01605 29.81001H-3.0421105V38.222993H-10.01605Z" fill="#ffffff"/>
<use data-text="2" xlink:href="#font_3_1" transform="matrix(9.9626,0,0,-9.962899,43.815996,59.2994)"/>
<path transform="matrix(1,0,0,-1.00003,52.836,90.10632)" stroke-width="1.19553" stroke-linecap="butt" stroke-miterlimit="10" stroke-linejoin="miter" fill="none" stroke="#ff0000" d="M-49.46638-32.9777C-49.87271-33.24847-49.87271-33.24847-49.43022-32.95349-48.98776-32.6585-48.2782-32.18546-47.83571-31.89047-47.39323-31.59547-46.68365-31.12242-46.24118-30.82744-45.79872-30.53247-45.08914-30.05942-44.64667-29.76443-44.20418-29.46945-43.49461-28.9964-43.05214-28.70142-42.60966-28.40643-41.9001-27.93338-41.45761-27.63841-41.01514-27.34343-40.30556-26.87036-39.8631-26.57538-39.42061-26.2804-38.71104-25.80734-38.26857-25.51236-37.82608-25.21739-37.11652-24.74434-36.67404-24.44936-36.23157-24.15437-35.52199-23.68132-35.07951-23.38634-34.63704-23.09135-33.92746-22.6183-33.485-22.32332-33.04253-22.02834-32.33295-21.55528-31.89047-21.26031-31.448-20.96532-30.7384-20.49228-30.29594-20.1973-29.85347-19.9023-29.14389-19.42924-28.70142-19.13426-28.25896-18.8393-27.54936-18.36623-27.1069-18.07126-26.66443-17.77629-25.95485-17.30322-25.51237-17.00824-25.0699-16.71326-24.36032-16.2402-23.91785-15.94522-23.47537-15.65025-22.7658-15.17719-22.32332-14.88222-21.88086-14.58723-21.17126-14.11418-20.7288-13.81918-20.28633-13.5242-19.57675-13.05116-19.13426-12.75616-18.6918-12.4612-17.98222-11.98813-17.53975-11.69316-17.09727-11.39818-16.3877-10.92513-15.94522-10.63014-15.50276-10.33516-14.79317-9.8621-14.35071-9.56712-13.90822-9.27214-13.19865-8.79907-12.75616-8.50412-12.3137-8.20914-11.60414-7.73608-11.16165-7.4411-10.71918-7.1461-10.0096-6.67305-9.56712-6.37807-9.12466-6.0831-8.41508-5.61005-7.97261-5.31506-7.53012-5.02008-6.82056-4.54703-6.37807-4.25204-5.93561-3.95706-5.22603-3.48401-4.78355-3.18903-4.34108-2.89406-3.6315-2.421-3.18903-2.126-2.74657-1.83102-2.03699-1.35797-1.59451-1.06299-1.15202-.76802-.44246-.29495 0 0 .44246 .29495 1.15202 .76802 1.59451 1.06299 2.03699 1.35797 2.74657 1.83102 3.18903 2.126 3.6315 2.421 4.34108 2.89406 4.78355 3.18903 5.22603 3.48401 5.93561 3.95706 6.37807 4.25204 6.82056 4.54703 7.53012 5.02008 7.97261 5.31506 8.41508 5.61005 9.12466 6.0831 9.56712 6.37807 10.0096 6.67305 10.71918 7.1461 11.16165 7.4411 11.60414 7.73608 12.3137 8.20914 12.75616 8.50412 13.19865 8.79907 13.90822 9.27214 14.35071 9.56712 14.79317 9.8621 15.50276 10.33516 15.94522 10.63014 16.3877 10.92513 17.09727 11.39818 17.53975 11.69316 17.98222 11.98813 18.6918 12.4612 19.13426 12.75616 19.57675 13.05116 20.28633 13.5242 20.7288 13.81918 21.17126 14.11418 21.88086 14.58723 22.32332 14.88222 22.7658 15.17719 23.47537 15.65025 23.91785 15.94522 24.36032 16.2402 25.0699 16.71326 25.51237 17.00824 25.95485 17.30322 26.66443 17.77629 27.1069 18.07126 27.54936 18.36623 28.25896 18.8393 28.70142 19.13426 29.14389 19.42924 29.85347 19.9023 30.29594 20.1973 30.7384 20.49228 31.448 20.96532 31.89047 21.26031 32.33295 21.55528 33.04253 22.02834 33.485 22.32332 33.92746 22.6183 34.63704 23.09135 35.07951 23.38634 35.52199 23.68132 36.23157 24.15437 36.67404 24.44936 37.11652 24.74434 37.82608 25.21739 38.26857 25.51236 38.71104 25.80734 39.42061 26.2804 39.8631 26.57538 40.30556 26.87036 41.01514 27.34343 41.45761 27.63841 41.9001 27.93338 42.60966 28.40643 43.05214 28.70142 43.49461 28.9964 44.20418 29.46945 44.64667 29.76443 45.08914 30.05942 45.79872 30.53247 46.24118 30.82744 46.68365 31.12242 47.39323 31.59547 47.83571 31.89047 48.2782 32.18546 48.98776 32.6585 49.43022 32.95349 49.87271 33.24847 51.02477 34.0165 49.46638 32.9777"/>
<path transform="matrix(-.83203,.5546467,.55463,.832055,3.3696175,123.08501)" d="M1.27522 0C-.31879 .31879-1.91284 .9564-3.8257 2.07224-1.91284 .6376-1.91284-.6376-3.8257-2.07224-1.91284-.9564-.31879-.31879 1.27522 0Z" fill="#ff0000"/>
<path transform="matrix(-.83203,.5546467,.55463,.832055,3.3696175,123.08501)" stroke-width="1.19553" stroke-linecap="butt" stroke-linejoin="round" fill="none" stroke="#ff0000" d="M1.27522 0C-.31879 .31879-1.91284 .9564-3.8257 2.07224-1.91284 .6376-1.91284-.6376-3.8257-2.07224-1.91284-.9564-.31879-.31879 1.27522 0Z"/>
<path transform="matrix(.83203,-.5546467,-.55463,-.832055,102.30238,57.12764)" d="M1.27522 0C-.31879 .31879-1.91284 .9564-3.8257 2.07224-1.91284 .6376-1.91284-.6376-3.8257-2.07224-1.91284-.9564-.31879-.31879 1.27522 0Z" fill="#ff0000"/>
<path transform="matrix(.83203,-.5546467,-.55463,-.832055,102.30238,57.12764)" stroke-width="1.19553" stroke-linecap="butt" stroke-linejoin="round" fill="none" stroke="#ff0000" d="M1.27522 0C-.31879 .31879-1.91284 .9564-3.8257 2.07224-1.91284 .6376-1.91284-.6376-3.8257-2.07224-1.91284-.9564-.31879-.31879 1.27522 0Z"/>
<use data-text="(" xlink:href="#font_4_85" transform="matrix(9.9626,0,0,-9.962899,47.296998,177.64096)"/>
<use data-text="f" xlink:href="#font_4_55" transform="matrix(9.9626,0,0,-9.962899,51.172456,177.64096)"/>
<use data-text=")" xlink:href="#font_4_86" transform="matrix(9.9626,0,0,-9.962899,54.499956,177.64096)"/>
</svg>
