<svg xmlns="http://www.w3.org/2000/svg" xmlns:xlink="http://www.w3.org/1999/xlink" version="1.1" width="172" height="174" viewBox="0 0 172 174">
<defs>
<path id="font_1_2" d="M.33399964 .30233766C.33999635 .32835389 .36299134 .42037965 .43299867 .42037965 .43798829 .42037965 .46199037 .42037965 .48298646 .40734864 .45498658 .402359 .43499757 .37734986 .43499757 .35334779 .43499757 .33735658 .44599916 .31835938 .47299195 .31835938 .49499513 .31835938 .5269928 .3363495 .5269928 .37635804 .5269928 .42837525 .46798707 .4423828 .43399049 .4423828 .37599183 .4423828 .34098817 .38935853 .32899476 .36634828 .3039856 .43237306 .25 .4423828 .22099304 .4423828 .116989139 .4423828 .05999756 .3133545 .05999756 .28834535 .05999756 .27833558 .069992069 .27833558 .07199097 .27833558 .07998657 .27833558 .08299255 .28033448 .084991458 .28933717 .11898804 .39535523 .18499756 .42037965 .21899414 .42037965 .23799134 .42037965 .272995 .4113617 .272995 .35334779 .272995 .32235719 .2559967 .25532533 .21899414 .11528015 .20298767 .053268434 .16799927 .011245728 .12399292 .011245728 .117996219 .011245728 .09498596 .011245728 .07398987 .024276734 .09899902 .029266358 .12098694 .05027771 .12098694 .07827759 .12098694 .105270389 .09899902 .11328125 .083999637 .11328125 .053985597 .11328125 .0289917 .08728027 .0289917 .055267335 .0289917 .009246826 .07899475-.0107421879 .12298584-.0107421879 .18899536-.0107421879 .22499085 .059280397 .22799683 .0652771 .23999024 .028274537 .27598573-.0107421879 .33599855-.0107421879 .43899537-.0107421879 .49598695 .118270877 .49598695 .14328003 .49598695 .1532898 .4869995 .1532898 .48399354 .1532898 .47499085 .1532898 .47299195 .14929199 .47099305 .14228821 .43798829 .03527832 .36999513 .011245728 .33799745 .011245728 .29899598 .011245728 .2829895 .043273927 .2829895 .07727051 .2829895 .09927368 .2889862 .121276859 .2999878 .16529846L.33399964 .30233766Z"/>
<path id="font_1_3" d="M.48599244 .38136292C.48999024 .39537049 .48999024 .39736939 .48999024 .40437318 .48999024 .42237855 .47599793 .43138124 .46099855 .43138124 .45098878 .43138124 .43499757 .42536927 .42599488 .41036988 .42399598 .405365 .41600038 .37435914 .4119873 .35635377 .40499879 .33035279 .397995 .30334474 .3919983 .27633668L.34700013 .09628296C.34298707 .08126831 .2999878 .011245728 .23399353 .011245728 .18299866 .011245728 .17199707 .055267335 .17199707 .0922699 .17199707 .1382904 .18899536 .20030213 .22299195 .28833009 .23899842 .3293457 .24299622 .3403473 .24299622 .36035157 .24299622 .405365 .21099854 .4423828 .16099549 .4423828 .06599426 .4423828 .0289917 .29733277 .0289917 .28833009 .0289917 .27833558 .038986207 .27833558 .040985109 .27833558 .050994874 .27833558 .051986696 .28033448 .056991579 .29634095 .083999637 .3903656 .12399292 .42037965 .1579895 .42037965 .1659851 .42037965 .18299866 .42037965 .18299866 .3883667 .18299866 .36335755 .17298889 .3373413 .1659851 .31834413 .12599182 .21231079 .10798645 .1552887 .10798645 .10827637 .10798645 .019256592 .17098999-.0107421879 .22999573-.0107421879 .2689972-.0107421879 .30299378 .0062561037 .33099366 .03425598 .31799317-.017745972 .30599977-.06674194 .2659912-.11973572 .23999024-.15385437 .20199585-.18309021 .1559906-.18309021 .14199829-.18309021 .09700012-.18005371 .07998657-.14074707 .09599304-.14074707 .10899353-.14074707 .12298584-.1287384 .1329956-.11973572 .14299011-.10673523 .14299011-.08773804 .14299011-.056747438 .115997318-.052734376 .10598755-.052734376 .08299255-.052734376 .049987794-.068740848 .049987794-.11773682 .049987794-.16796875 .09399414-.20507813 .1559906-.20507813 .25898744-.20507813 .3619995-.11373901 .3899994-.00074768069L.48599244 .38136292Z"/>
<path id="font_2_4" d="M.44898988 .20022583C.44898988 .3193512 .36698915 .41944886 .25898744 .41944886 .21099854 .41944886 .16799927 .40345765 .13198853 .36842347V.5637665C.1519928 .5577698 .18499756 .55078127 .21699524 .55078127 .33999635 .55078127 .4099884 .6417694 .4099884 .6547699 .4099884 .6607666 .40699769 .6657715 .3999939 .6657715 .39898683 .6657715 .39698792 .6657715 .3919983 .66278079 .37199403 .6537781 .32299806 .6337738 .2559967 .6337738 .21598816 .6337738 .16999817 .6407776 .12298584 .6617737 .114990238 .66477969 .11299133 .66477969 .11099243 .66477969 .100997928 .66477969 .100997928 .6567688 .100997928 .6407776V.34439088C.100997928 .32637025 .100997928 .31835938 .114990238 .31835938 .12199402 .31835938 .12399292 .32136537 .12799073 .32736207 .13899231 .3433838 .17599488 .39746095 .25698854 .39746095 .30899049 .39746095 .33399964 .35139466 .34199525 .33337403 .35798646 .29632569 .3600006 .25727845 .3600006 .20722962 .3600006 .17222595 .3600006 .11222839 .33599855 .07035828 .31199647 .031463624 .2749939 .0055389406 .22898865 .0055389406 .1559906 .0055389406 .09899902 .058380128 .08198547 .11723328 .084991458 .1162262 .08799744 .115234378 .09899902 .115234378 .13198853 .115234378 .14898682 .14022827 .14898682 .16423035 .14898682 .18823242 .13198853 .21322632 .09899902 .21322632 .084991458 .21322632 .049987794 .20622254 .049987794 .16023255 .049987794 .07434082 .11898804-.022460938 .23098755-.022460938 .34700013-.022460938 .44898988 .073349 .44898988 .20022583Z"/>
<path id="font_3_1" d="M.6589966 .23046875C.6759949 .23046875 .69400027 .23046875 .69400027 .25045777 .69400027 .27046205 .6759949 .27046205 .6589966 .27046205H.117996219C.100997928 .27046205 .08299255 .27046205 .08299255 .25045777 .08299255 .23046875 .100997928 .23046875 .117996219 .23046875H.6589966Z"/>
<path id="font_2_3" d="M.2899933 .35191346C.37199403 .37893678 .42999269 .4490509 .42999269 .52809146 .42999269 .6100464 .34199525 .6660156 .24598694 .6660156 .14498902 .6660156 .068984989 .60606387 .068984989 .53009036 .068984989 .49710084 .09098816 .47808839 .11999512 .47808839 .15098572 .47808839 .17098999 .50009158 .17098999 .5290985 .17098999 .57910159 .12399292 .57910159 .10899353 .57910159 .13999939 .62802127 .20599365 .64100649 .24198914 .64100649 .2829895 .64100649 .33799745 .6190338 .33799745 .5290985 .33799745 .51708987 .33599855 .45906068 .30999757 .4149933 .27999879 .36691285 .24598694 .36390687 .22099304 .36291505 .21299744 .36190797 .18899536 .35990907 .18199158 .35990907 .17399597 .35890199 .16699219 .35791017 .16699219 .3479004 .16699219 .33691407 .17399597 .33691407 .19099427 .33691407H.23498535C.31698609 .33691407 .35398866 .2686615 .35398866 .17037964 .35398866 .034469606 .2849884 .0055389406 .24099732 .0055389406 .19799805 .0055389406 .12298584 .022491456 .08799744 .08137512 .12298584 .07637024 .1539917 .09837341 .1539917 .1363678 .1539917 .17237854 .1269989 .19238281 .09799194 .19238281 .07398987 .19238281 .041992189 .17837525 .041992189 .1343689 .041992189 .043441774 .1349945-.022460938 .24398804-.022460938 .3659973-.022460938 .45700074 .06838989 .45700074 .17037964 .45700074 .252594 .3939972 .33088685 .2899933 .35191346Z"/>
<path id="font_1_1" d="M.47099305 .3773346C.47200013 .3833313 .47399903 .38833619 .47399903 .39535523 .47399903 .41236878 .46199037 .42237855 .44499208 .42237855 .43499757 .42237855 .4079895 .41537477 .4039917 .3793335 .38598634 .41636659 .35099793 .4423828 .31098939 .4423828 .19699097 .4423828 .07299805 .30226136 .07299805 .15812683 .07299805 .059020997 .13398743 0 .20599365 0 .2649994 0 .31199647 .04701233 .32199098 .058029176L.32299806 .057022096C.3019867-.031982423 .2899933-.07295227 .2899933-.07495117 .28599549-.08395386 .2519989-.18309021 .1459961-.18309021 .1269989-.18309021 .09399414-.18206787 .06599426-.17297364 .09599304-.16394043 .10699463-.13793946 .10699463-.12094116 .10699463-.10494995 .09599304-.0859375 .068984989-.0859375 .04699707-.0859375 .01499939-.10394287 .01499939-.14395142 .01499939-.18508911 .051986696-.20507813 .147995-.20507813 .272995-.20507813 .34498597-.12693787 .3600006-.06695557L.47099305 .3773346M.34098817 .12809754C.33499146 .10206604 .31199647 .077041629 .2899933 .058029176 .2689972 .040008546 .23799134 .021987915 .20899964 .021987915 .15899658 .021987915 .14399719 .074035648 .14399719 .11407471 .14399719 .16212464 .17298889 .28024293 .19999695 .33128358 .22698975 .38034059 .269989 .42037965 .31199647 .42037965 .37799073 .42037965 .3919983 .33929444 .3919983 .33428956 .3919983 .32928468 .3899994 .3232727 .3889923 .3192749L.34098817 .12809754Z"/>
<path id="font_2_1" d="M.33099366-.2400055C.33099366-.23701477 .33099366-.23500061 .31399537-.21800232 .18899536-.0920105 .15699768 .09700012 .15699768 .25 .15699768 .42399598 .19499207 .59799197 .31799317 .72299197 .33099366 .73498538 .33099366 .7369995 .33099366 .73999026 .33099366 .746994 .32699586 .75 .32099916 .75 .31098939 .75 .22099304 .6819916 .1619873 .5549927 .11099243 .44499208 .09899902 .33399964 .09899902 .25 .09899902 .17199707 .10998535 .050994874 .16499329-.06201172 .22499085-.18501282 .31098939-.25 .32099916-.25 .32699586-.25 .33099366-.24700928 .33099366-.2400055Z"/>
<path id="font_2_2" d="M.2889862 .25C.2889862 .32798768 .27799989 .44898988 .22299195 .56199648 .16299439 .68499758 .07699585 .75 .066986087 .75 .06098938 .75 .056991579 .74598696 .056991579 .73999026 .056991579 .7369995 .056991579 .73498538 .07598877 .71699526 .17399597 .6179962 .23098755 .45899964 .23098755 .25 .23098755 .07899475 .19400025-.09700012 .069992069-.2230072 .056991579-.23500061 .056991579-.23701477 .056991579-.2400055 .056991579-.2460022 .06098938-.25 .066986087-.25 .07699585-.25 .16699219-.18200684 .22599793-.055007936 .2769928 .054992677 .2889862 .16600037 .2889862 .25Z"/>
<path id="font_2_5" d="M.68699648 .32714845C.70199587 .32714845 .72099307 .32714845 .72099307 .34713746 .72099307 .36714173 .70199587 .36714173 .6879883 .36714173H.08898926C.07499695 .36714173 .055999757 .36714173 .055999757 .34713746 .055999757 .32714845 .07499695 .32714845 .08999634 .32714845H.68699648M.6879883 .13284302C.70199587 .13284302 .72099307 .13284302 .72099307 .15284729 .72099307 .17285156 .70199587 .17285156 .68699648 .17285156H.08999634C.07499695 .17285156 .055999757 .17285156 .055999757 .15284729 .055999757 .13284302 .07499695 .13284302 .08898926 .13284302H.6879883Z"/>
<path id="font_4_1" d="M.32998658 .3310547C.42199708 .3310547 .48298646 .2737732 .48298646 .17437744 .48298646 .07237244 .41999818 .01852417 .33099366 .01852417 .31999208 .01852417 .20098877 .01852417 .1499939 .070373538 .19099427 .07637024 .20298767 .1073761 .20298767 .13137818 .20298767 .16838074 .1749878 .19238281 .14199829 .19238281 .10998535 .19238281 .07998657 .17137146 .07998657 .12937927 .07998657 .025512696 .19799805-.022460938 .33399964-.022460938 .49798585-.022460938 .59999087 .07637024 .59999087 .17337036 .59999087 .25567628 .5269928 .3260193 .41299439 .35205079 .5329895 .3909912 .5649872 .46684266 .5649872 .5228424 .5649872 .60491946 .46299745 .6660156 .33699037 .6660156 .21398926 .6660156 .114990238 .61395266 .114990238 .5238342 .114990238 .47683717 .15299988 .46484376 .17199707 .46484376 .20098877 .46484376 .22898865 .48583985 .22898865 .5218353 .22898865 .5448303 .21699524 .5728302 .18099976 .57884219 .22399903 .625 .31298829 .628006 .33399964 .628006 .40699769 .628006 .45899964 .5908661 .45899964 .5228424 .45899964 .46484376 .42099 .37402345 .31599427 .368042 .28799439 .3670349 .28399659 .3660431 .2579956 .365036 .24699402 .3640442 .23599243 .36305238 .23599243 .34805299 .23599243 .3310547 .24598694 .3310547 .2639923 .3310547H.32998658Z"/>
<path id="font_3_2" d="M.3889923-.8549652 .21299744-.4659729C.20599365-.44996644 .20098877-.44996644 .19799805-.44996644 .19699097-.44996644 .19198609-.44996644 .18099976-.45796205L.085998538-.52996829C.07299805-.53996279 .07299805-.54296877 .07299805-.54597476 .07299805-.55096438 .07598877-.55696108 .08299255-.55696108 .08898926-.55696108 .10598755-.54296877 .116989139-.53497317 .12298584-.52996829 .13798523-.5189667 .14898682-.51097109L.34599305-.9439697C.35299684-.95996096 .35798646-.95996096 .36698915-.95996096 .38198854-.95996096 .3849945-.95396426 .3919983-.9399719L.84599307 .000030517579C.8529968 .014038086 .8529968 .018035889 .8529968 .02003479 .8529968 .030029297 .8450012 .040039064 .83299258 .040039064 .82499697 .040039064 .81799319 .03503418 .80999758 .01902771L.3889923-.8549652Z"/>
</defs>
<path transform="matrix(1.00005,0,0,-1.00005,78.351169,96.05915)" stroke-width=".3985" stroke-linecap="butt" stroke-miterlimit="10" stroke-linejoin="miter" fill="none" stroke="#cbcbcb" d="M-76.53586-76.53586H76.53586M-76.53586-63.77988H76.53586M-76.53586-51.0239H76.53586M-76.53586-38.26791H76.53586M-76.53586-25.51193H76.53586M-76.53586-12.75595H76.53586M-76.53586 0H76.53586M-76.53586 12.75595H76.53586M-76.53586 25.51193H76.53586M-76.53586 38.26791H76.53586M-76.53586 51.0239H76.53586M-76.53586 63.77988H76.53586M-76.53586 76.53137H76.53586M-76.53586-76.53586V76.53586M-63.77988-76.53586V76.53586M-51.0239-76.53586V76.53586M-38.26791-76.53586V76.53586M-25.51193-76.53586V76.53586M-12.75595-76.53586V76.53586M0-76.53586V76.53586M12.75595-76.53586V76.53586M25.51193-76.53586V76.53586M38.26791-76.53586V76.53586M51.0239-76.53586V76.53586M63.77988-76.53586V76.53586M76.53137-76.53586V76.53586M76.53586 76.53586"/>
<path transform="matrix(1.00005,0,0,-1.00005,78.351169,96.05915)" stroke-width=".79701" stroke-linecap="butt" stroke-miterlimit="10" stroke-linejoin="miter" fill="none" stroke="#000000" d="M-76.53586 0H81.47922"/>
<path transform="matrix(1.00005,0,0,-1.00005,159.83444,96.05915)" d="M1.0361 0C-.25902 .25902-1.55415 .77707-3.1083 1.68365-1.55415 .51805-1.55415-.51805-3.1083-1.68365-1.55415-.77707-.25902-.25902 1.0361 0Z"/>
<path transform="matrix(1.00005,0,0,-1.00005,159.83444,96.05915)" stroke-width=".79701" stroke-linecap="butt" stroke-linejoin="round" fill="none" stroke="#000000" d="M1.0361 0C-.25902 .25902-1.55415 .77707-3.1083 1.68365-1.55415 .51805-1.55415-.51805-3.1083-1.68365-1.55415-.77707-.25902-.25902 1.0361 0Z"/>
<use data-text="x" xlink:href="#font_1_2" transform="matrix(9.963098,0,0,-9.963098,164.9885,98.204257)"/>
<path transform="matrix(1.00005,0,0,-1.00005,78.351169,96.05915)" stroke-width=".79701" stroke-linecap="butt" stroke-miterlimit="10" stroke-linejoin="miter" fill="none" stroke="#000000" d="M0-76.53586V82.7549"/>
<path transform="matrix(0,-1.00005,-1.00005,-0,78.351169,13.3001179)" d="M1.0361 0C-.25902 .25902-1.55415 .77707-3.1083 1.68365-1.55415 .51805-1.55415-.51805-3.1083-1.68365-1.55415-.77707-.25902-.25902 1.0361 0Z"/>
<path transform="matrix(0,-1.00005,-1.00005,-0,78.351169,13.3001179)" stroke-width=".79701" stroke-linecap="butt" stroke-linejoin="round" fill="none" stroke="#000000" d="M1.0361 0C-.25902 .25902-1.55415 .77707-3.1083 1.68365-1.55415 .51805-1.55415-.51805-3.1083-1.68365-1.55415-.77707-.25902-.25902 1.0361 0Z"/>
<use data-text="y" xlink:href="#font_1_3" transform="matrix(9.963098,0,0,-9.963098,75.730037,6.208664)"/>
<path transform="matrix(1.00005,0,0,-1.00005,78.351169,96.05915)" stroke-width=".3985" stroke-linecap="butt" stroke-miterlimit="10" stroke-linejoin="miter" fill="none" stroke="#000000" d="M63.77988 1.27565V-1.27547"/>
<path transform="matrix(1.00005,0,0,-1.00005,78.351169,96.05915)" d="M60.29291-11.88026H67.26685V-3.4672805H60.29291Z" fill="#ffffff"/>
<use data-text="5" xlink:href="#font_2_4" transform="matrix(9.963098,0,0,-9.963098,139.64324,106.943698)"/>
<path transform="matrix(1.00005,0,0,-1.00005,78.351169,96.05915)" stroke-width=".3985" stroke-linecap="butt" stroke-miterlimit="10" stroke-linejoin="miter" fill="none" stroke="#000000" d="M-63.77988 1.27565V-1.27547"/>
<path transform="matrix(1.00005,0,0,-1.00005,78.351169,96.05915)" d="M-71.14127-12.71051H-56.418497V-3.4672805H-71.14127Z" fill="#ffffff"/>
<use data-text="&#x2212;" xlink:href="#font_3_1" transform="matrix(9.963098,0,0,-9.963098,8.202667,106.943698)"/>
<use data-text="5" xlink:href="#font_2_4" transform="matrix(9.963098,0,0,-9.963098,15.952042,106.943698)"/>
<path transform="matrix(1.00005,0,0,-1.00005,78.351169,96.05915)" stroke-width=".3985" stroke-linecap="butt" stroke-miterlimit="10" stroke-linejoin="miter" fill="none" stroke="#000000" d="M1.27565-38.26791H-1.27547"/>
<path transform="matrix(1.00005,0,0,-1.00005,78.351169,96.05915)" d="M-18.19006-42.88953H-3.4672795V-33.6463H-18.19006Z" fill="#ffffff"/>
<use data-text="&#x2212;" xlink:href="#font_3_1" transform="matrix(9.963098,0,0,-9.963098,61.15631,137.1242)"/>
<use data-text="3" xlink:href="#font_2_3" transform="matrix(9.963098,0,0,-9.963098,68.905689,137.1242)"/>
<path transform="matrix(1.00005,0,0,-1.00005,78.351169,96.05915)" stroke-width=".3985" stroke-linecap="butt" stroke-miterlimit="10" stroke-linejoin="miter" fill="none" stroke="#000000" d="M1.27565 38.26791H-1.27547"/>
<path transform="matrix(1.00005,0,0,-1.00005,78.351169,96.05915)" d="M-10.44121 34.06142H-3.46727V42.4744H-10.44121Z" fill="#ffffff"/>
<use data-text="3" xlink:href="#font_2_3" transform="matrix(9.963098,0,0,-9.963098,68.90569,60.9994)"/>
<path transform="matrix(1.00005,0,0,-1.00005,78.351169,96.05915)" stroke-width="1.19553" stroke-linecap="butt" stroke-miterlimit="10" stroke-linejoin="miter" fill="none" stroke="#ff0000" d="M0 0C0 0 .864 4.78606 1.19586 5.80008 1.5277 6.8141 2.05988 6.95323 2.39174 7.30836 2.72357 7.66348 3.25575 8.09708 3.5876 8.3596 3.91945 8.62213 4.45161 8.9852 4.78348 9.20045 5.11533 9.41571 5.64749 9.72626 5.97934 9.91109 6.3112 10.09592 6.84335 10.36935 7.17522 10.53258 7.50706 10.6958 8.03925 10.9406 8.3711 11.0875 8.70294 11.2344 9.23512 11.45706 9.56696 11.59143 9.89882 11.7258 10.43098 11.93192 10.76285 12.05603 11.09468 12.18013 11.62686 12.37068 11.95871 12.48601 12.29056 12.6013 12.82274 12.77888 13.15459 12.88715 13.48643 12.99542 14.0186 13.16393 14.35045 13.2663 14.68231 13.36868 15.21448 13.52794 15.54633 13.62503 15.87819 13.72212 16.41035 13.87375 16.7422 13.96603 17.07405 14.05833 17.60623 14.2022 17.93806 14.29031 18.26993 14.37842 18.80211 14.51668 19.13394 14.60117 19.46579 14.68562 19.99797 14.81802 20.32982 14.89915 20.66167 14.98029 21.19385 15.10776 21.5257 15.18585 21.85753 15.26395 22.38972 15.38681 22.72157 15.46205 23.0534 15.53728 23.58559 15.6555 23.91745 15.72812 24.2493 15.80075 24.78146 15.9149 25.11331 15.98543 25.44516 16.05597 25.97733 16.16808 26.30919 16.23653 26.64104 16.30498 27.1732 16.41258 27.50507 16.47885 27.83691 16.54512 28.36908 16.64973 28.70093 16.71417 29.03278 16.7786 29.56496 16.88055 29.8968 16.94327 30.22865 17.00598 30.76083 17.10507 31.09268 17.16612 31.42453 17.22719 31.9567 17.32378 32.28856 17.38335 32.62039 17.44293 33.15257 17.53737 33.48442 17.5955 33.81627 17.65366 34.34845 17.74562 34.6803 17.8024 35.01216 17.8592 35.54431 17.94931 35.87617 18.00484 36.20802 18.06035 36.74019 18.14827 37.07204 18.20259 37.4039 18.25693 37.93608 18.34328 38.26791 18.39645 38.59976 18.44963 39.13194 18.5338 39.46378 18.58585 39.79564 18.63788 40.32782 18.72046 40.65965 18.77153 40.99152 18.8226 41.52368 18.90381 41.85553 18.9539 42.18738 19.004 42.71956 19.08345 43.0514 19.1326 43.38326 19.18173 43.91544 19.25987 44.24728 19.30815 44.57913 19.35643 45.1113 19.43315 45.44315 19.48059 45.77501 19.52805 46.30717 19.60365 46.63902 19.65013 46.97087 19.69662 47.50305 19.76993 47.8349 19.81558 48.16675 19.86124 48.69893 19.93428 49.03076 19.97926 49.36263 20.02425 49.8948 20.09532 50.22664 20.13985 50.55849 20.18437 51.09067 20.25632 51.42253 20.30025 51.75436 20.34415 52.28654 20.41338 52.6184 20.45633 52.95023 20.4993 53.4824 20.56754 53.81427 20.60991 54.1461 20.65228 54.67828 20.71992 55.01015 20.76173 55.342 20.80353 55.87416 20.86998 56.20601 20.91121 56.53786 20.95245 57.07002 21.01836 57.40189 21.05894 57.73373 21.09953 58.2659 21.16382 58.59775 21.20375 58.92961 21.2437 59.46178 21.30734 59.79362 21.34682 60.12547 21.3863 60.65765 21.44936 60.98949 21.48833 61.32135 21.52728 61.85353 21.58923 62.18538 21.6277 62.51723 21.66614 63.0494 21.72743 63.38126 21.76549 63.71309 21.80354 64.24527 21.86443 64.57712 21.90193 64.90898 21.93944 65.44115 21.99886 65.773 22.03586 66.10484 22.07285 66.63701 22.132 66.96886 22.1686 67.30072 22.20518 67.83289 22.2634 68.16473 22.29958 68.4966 22.33575 69.02878 22.39363 69.36061 22.4294 69.69246 22.4652 70.22464 22.52214 70.55647 22.55748 70.88834 22.59282 71.42052 22.64917 71.75235 22.6842 72.0842 22.71922 72.61638 22.77534 72.94824 22.80994 73.28008 22.84454 73.81226 22.89937 74.1441 22.93353 74.47594 22.96768 75.00813 23.0223 75.33998 23.05615 75.67183 23.09001 76.53586 23.17761 74.6725 22.98878"/>
<path transform="matrix(.9949097,-.100815039,-.100815039,-.9949097,153.02739,73.06923)" d="M1.27522 0C-.31879 .31879-1.91284 .9564-3.8257 2.07224-1.91284 .6376-1.91284-.6376-3.8257-2.07224-1.91284-.9564-.31879-.31879 1.27522 0Z" fill="#ff0000"/>
<path transform="matrix(.9949097,-.100815039,-.100815039,-.9949097,153.02739,73.06923)" stroke-width="1.19553" stroke-linecap="butt" stroke-linejoin="round" fill="none" stroke="#ff0000" d="M1.27522 0C-.31879 .31879-1.91284 .9564-3.8257 2.07224-1.91284 .6376-1.91284-.6376-3.8257-2.07224-1.91284-.9564-.31879-.31879 1.27522 0Z"/>
<path transform="matrix(1.00005,0,0,-1.00005,78.351169,96.05915)" stroke-width="1.19553" stroke-linecap="butt" stroke-miterlimit="10" stroke-linejoin="miter" fill="none" stroke="#ff0000" d="M0 0C0 0-.864-4.78606-1.19586-5.80008-1.5277-6.8141-2.05988-6.95323-2.39174-7.30836-2.72357-7.66348-3.25575-8.09708-3.5876-8.3596-3.91945-8.62213-4.45161-8.9852-4.78348-9.20045-5.11533-9.41571-5.64749-9.72626-5.97934-9.91109-6.3112-10.09592-6.84335-10.36935-7.17522-10.53258-7.50706-10.6958-8.03925-10.9406-8.3711-11.0875-8.70294-11.2344-9.23512-11.45706-9.56696-11.59143-9.89882-11.7258-10.43098-11.93192-10.76285-12.05603-11.09468-12.18013-11.62686-12.37068-11.95871-12.48601-12.29056-12.6013-12.82274-12.77888-13.15459-12.88715-13.48643-12.99542-14.0186-13.16393-14.35045-13.2663-14.68231-13.36868-15.21448-13.52794-15.54633-13.62503-15.87819-13.72212-16.41035-13.87375-16.7422-13.96603-17.07405-14.05833-17.60623-14.2022-17.93806-14.29031-18.26993-14.37842-18.80211-14.51668-19.13394-14.60117-19.46579-14.68562-19.99797-14.81802-20.32982-14.89915-20.66167-14.98029-21.19385-15.10776-21.5257-15.18585-21.85753-15.26395-22.38972-15.38681-22.72157-15.46205-23.0534-15.53728-23.58559-15.6555-23.91745-15.72812-24.2493-15.80075-24.78146-15.9149-25.11331-15.98543-25.44516-16.05597-25.97733-16.16808-26.30919-16.23653-26.64104-16.30498-27.1732-16.41258-27.50507-16.47885-27.83691-16.54512-28.36908-16.64973-28.70093-16.71417-29.03278-16.7786-29.56496-16.88055-29.8968-16.94327-30.22865-17.00598-30.76083-17.10507-31.09268-17.16612-31.42453-17.22719-31.9567-17.32378-32.28856-17.38335-32.62039-17.44293-33.15257-17.53737-33.48442-17.5955-33.81627-17.65366-34.34845-17.74562-34.6803-17.8024-35.01216-17.8592-35.54431-17.94931-35.87617-18.00484-36.20802-18.06035-36.74019-18.14827-37.07204-18.20259-37.4039-18.25693-37.93608-18.34328-38.26791-18.39645-38.59976-18.44963-39.13194-18.5338-39.46378-18.58585-39.79564-18.63788-40.32782-18.72046-40.65965-18.77153-40.99152-18.8226-41.52368-18.90381-41.85553-18.9539-42.18738-19.004-42.71956-19.08345-43.0514-19.1326-43.38326-19.18173-43.91544-19.25987-44.24728-19.30815-44.57913-19.35643-45.1113-19.43315-45.44315-19.48059-45.77501-19.52805-46.30717-19.60365-46.63902-19.65013-46.97087-19.69662-47.50305-19.76993-47.8349-19.81558-48.16675-19.86124-48.69893-19.93428-49.03076-19.97926-49.36263-20.02425-49.8948-20.09532-50.22664-20.13985-50.55849-20.18437-51.09067-20.25632-51.42253-20.30025-51.75436-20.34415-52.28654-20.41338-52.6184-20.45633-52.95023-20.4993-53.4824-20.56754-53.81427-20.60991-54.1461-20.65228-54.67828-20.71992-55.01015-20.76173-55.342-20.80353-55.87416-20.86998-56.20601-20.91121-56.53786-20.95245-57.07002-21.01836-57.40189-21.05894-57.73373-21.09953-58.2659-21.16382-58.59775-21.20375-58.92961-21.2437-59.46178-21.30734-59.79362-21.34682-60.12547-21.3863-60.65765-21.44936-60.98949-21.48833-61.32135-21.52728-61.85353-21.58923-62.18538-21.6277-62.51723-21.66614-63.0494-21.72743-63.38126-21.76549-63.71309-21.80354-64.24527-21.86443-64.57712-21.90193-64.90898-21.93944-65.44115-21.99886-65.773-22.03586-66.10484-22.07285-66.63701-22.132-66.96886-22.1686-67.30072-22.20518-67.83289-22.2634-68.16473-22.29958-68.4966-22.33575-69.02878-22.39363-69.36061-22.4294-69.69246-22.4652-70.22464-22.52214-70.55647-22.55748-70.88834-22.59282-71.42052-22.64917-71.75235-22.6842-72.0842-22.71922-72.61638-22.77534-72.94824-22.80994-73.28008-22.84454-73.81226-22.89937-74.1441-22.93353-74.47594-22.96768-75.00813-23.0223-75.33998-23.05615-75.67183-23.09001-76.53586-23.17761-74.6725-22.98878"/>
<path transform="matrix(-.9949097,.100815039,.100815039,.9949097,3.674942,119.04907)" d="M1.27522 0C-.31879 .31879-1.91284 .9564-3.8257 2.07224-1.91284 .6376-1.91284-.6376-3.8257-2.07224-1.91284-.9564-.31879-.31879 1.27522 0Z" fill="#ff0000"/>
<path transform="matrix(-.9949097,.100815039,.100815039,.9949097,3.674942,119.04907)" stroke-width="1.19553" stroke-linecap="butt" stroke-linejoin="round" fill="none" stroke="#ff0000" d="M1.27522 0C-.31879 .31879-1.91284 .9564-3.8257 2.07224-1.91284 .6376-1.91284-.6376-3.8257-2.07224-1.91284-.9564-.31879-.31879 1.27522 0Z"/>
<path transform="matrix(1.00005,0,0,-1.00005,78.351169,96.05915)" d="M13.04791-39.11429H63.487909V-24.66557H13.04791Z" fill="#ffffff"/>
<use data-text="g" xlink:href="#font_1_1" transform="matrix(9.963098,0,0,-9.963098,93.391918,130.69188)" fill="#ff0000"/>
<use data-text="(" xlink:href="#font_2_1" transform="matrix(9.963098,0,0,-9.963098,98.50115,130.69188)" fill="#ff0000"/>
<use data-text="x" xlink:href="#font_1_2" transform="matrix(9.963098,0,0,-9.963098,102.37635,130.69188)" fill="#ff0000"/>
<use data-text=")" xlink:href="#font_2_2" transform="matrix(9.963098,0,0,-9.963098,108.06963,130.69188)" fill="#ff0000"/>
<use data-text="=" xlink:href="#font_2_5" transform="matrix(9.963098,0,0,-9.963098,114.69509,130.69188)" fill="#ff0000"/>
<use data-text="3" xlink:href="#font_4_1" transform="matrix(4.981549,0,0,-4.981549,127.99662,127.34071)" fill="#ff0000"/>
<use data-text="&#x221a;" xlink:href="#font_3_2" transform="matrix(9.963098,0,0,-9.963098,125.85151,123.515529)" fill="#ff0000"/>
<path transform="matrix(1.00005,0,0,-1.00005,-69.96325,47.624727)" stroke-width=".3985" stroke-linecap="butt" stroke-miterlimit="10" stroke-linejoin="miter" fill="none" stroke="#ff0000" d="M204.107-75.687H209.801"/>
<use data-text="x" xlink:href="#font_1_2" transform="matrix(9.963098,0,0,-9.963098,134.15393,130.69188)" fill="#ff0000"/>
</svg>
