<svg xmlns="http://www.w3.org/2000/svg" xmlns:xlink="http://www.w3.org/1999/xlink" version="1.1" width="196" height="228" viewBox="0 0 196 228">
<defs>
<path id="font_1_1" d="M.33399964 .30233766C.33999635 .32835389 .36299134 .42037965 .43299867 .42037965 .43798829 .42037965 .46199037 .42037965 .48298646 .40734864 .45498658 .402359 .43499757 .37734986 .43499757 .35334779 .43499757 .33735658 .44599916 .31835938 .47299195 .31835938 .49499513 .31835938 .5269928 .3363495 .5269928 .37635804 .5269928 .42837525 .46798707 .4423828 .43399049 .4423828 .37599183 .4423828 .34098817 .38935853 .32899476 .36634828 .3039856 .43237306 .25 .4423828 .22099304 .4423828 .116989139 .4423828 .05999756 .3133545 .05999756 .28834535 .05999756 .27833558 .069992069 .27833558 .07199097 .27833558 .07998657 .27833558 .08299255 .28033448 .084991458 .28933717 .11898804 .39535523 .18499756 .42037965 .21899414 .42037965 .23799134 .42037965 .272995 .4113617 .272995 .35334779 .272995 .32235719 .2559967 .25532533 .21899414 .11528015 .20298767 .053268434 .16799927 .011245728 .12399292 .011245728 .117996219 .011245728 .09498596 .011245728 .07398987 .024276734 .09899902 .029266358 .12098694 .05027771 .12098694 .07827759 .12098694 .105270389 .09899902 .11328125 .083999637 .11328125 .053985597 .11328125 .0289917 .08728027 .0289917 .055267335 .0289917 .009246826 .07899475-.0107421879 .12298584-.0107421879 .18899536-.0107421879 .22499085 .059280397 .22799683 .0652771 .23999024 .028274537 .27598573-.0107421879 .33599855-.0107421879 .43899537-.0107421879 .49598695 .118270877 .49598695 .14328003 .49598695 .1532898 .4869995 .1532898 .48399354 .1532898 .47499085 .1532898 .47299195 .14929199 .47099305 .14228821 .43798829 .03527832 .36999513 .011245728 .33799745 .011245728 .29899598 .011245728 .2829895 .043273927 .2829895 .07727051 .2829895 .09927368 .2889862 .121276859 .2999878 .16529846L.33399964 .30233766Z"/>
<path id="font_1_2" d="M.48599244 .38136292C.48999024 .39537049 .48999024 .39736939 .48999024 .40437318 .48999024 .42237855 .47599793 .43138124 .46099855 .43138124 .45098878 .43138124 .43499757 .42536927 .42599488 .41036988 .42399598 .405365 .41600038 .37435914 .4119873 .35635377 .40499879 .33035279 .397995 .30334474 .3919983 .27633668L.34700013 .09628296C.34298707 .08126831 .2999878 .011245728 .23399353 .011245728 .18299866 .011245728 .17199707 .055267335 .17199707 .0922699 .17199707 .1382904 .18899536 .20030213 .22299195 .28833009 .23899842 .3293457 .24299622 .3403473 .24299622 .36035157 .24299622 .405365 .21099854 .4423828 .16099549 .4423828 .06599426 .4423828 .0289917 .29733277 .0289917 .28833009 .0289917 .27833558 .038986207 .27833558 .040985109 .27833558 .050994874 .27833558 .051986696 .28033448 .056991579 .29634095 .083999637 .3903656 .12399292 .42037965 .1579895 .42037965 .1659851 .42037965 .18299866 .42037965 .18299866 .3883667 .18299866 .36335755 .17298889 .3373413 .1659851 .31834413 .12599182 .21231079 .10798645 .1552887 .10798645 .10827637 .10798645 .019256592 .17098999-.0107421879 .22999573-.0107421879 .2689972-.0107421879 .30299378 .0062561037 .33099366 .03425598 .31799317-.017745972 .30599977-.06674194 .2659912-.11973572 .23999024-.15385437 .20199585-.18309021 .1559906-.18309021 .14199829-.18309021 .09700012-.18005371 .07998657-.14074707 .09599304-.14074707 .10899353-.14074707 .12298584-.1287384 .1329956-.11973572 .14299011-.10673523 .14299011-.08773804 .14299011-.056747438 .115997318-.052734376 .10598755-.052734376 .08299255-.052734376 .049987794-.068740848 .049987794-.11773682 .049987794-.16796875 .09399414-.20507813 .1559906-.20507813 .25898744-.20507813 .3619995-.11373901 .3899994-.00074768069L.48599244 .38136292Z"/>
<path id="font_2_64" d="M.27598573 .18710327V.24511719H.010986328V.18710327H.27598573Z"/>
<path id="font_2_56" d="M.44898988 .20091248C.44898988 .31991578 .36698915 .41992188 .25898744 .41992188 .21099854 .41992188 .16799927 .4039154 .13198853 .36891175V.5641022C.1519928 .55778506 .18499756 .55078127 .21699524 .55078127 .33999635 .55078127 .4099884 .6418457 .4099884 .65493777 .4099884 .6609802 .40699769 .6660156 .3999939 .6660156 .3999939 .66607668 .39698792 .66607668 .3919983 .66308596 .37199403 .65408328 .32299806 .63378909 .2559967 .63378909 .21598816 .63409426 .16999817 .641098 .12298584 .6621094 .114990238 .6651001 .11099243 .6651001 .11099243 .6651001 .100997928 .66508486 .100997928 .657074 .100997928 .64108279V.3447113C.100997928 .3266449 .100997928 .31861878 .114990238 .31861878 .12199402 .31861878 .12399292 .32164 .12799073 .32765199 .13899231 .34371949 .17599488 .3979187 .25698854 .3979187 .30899049 .3979187 .33399964 .3517456 .34199525 .3336792 .35798646 .2965393 .3600006 .2574005 .3600006 .20721436 .3600006 .17218018 .3600006 .112197879 .33599855 .07032776 .31199647 .031448366 .2749939 .0055389406 .22898865 .0055389406 .1559906 .0055389406 .09899902 .05836487 .08198547 .1171875 .084991458 .11685181 .08799744 .115859989 .09899902 .115859989 .13198853 .115859989 .14898682 .14085388 .14898682 .16485596 .14898682 .18885803 .13198853 .21386719 .09899902 .21386719 .084991458 .21386719 .049987794 .2068634 .049987794 .16085816 .049987794 .07432556 .11898804-.022460938 .23098755-.022460938 .34700013-.022460938 .44898988 .07331848 .44898988 .20019531V.20091248Z"/>
</defs>
<path transform="matrix(1.00003,0,0,-1.00002,90.40329,124.12123)" stroke-width=".3985" stroke-linecap="butt" stroke-miterlimit="10" stroke-linejoin="miter" fill="none" stroke="#00aeef" d="M-85.04128-102.04953H85.04128M-85.04128-85.04128H85.04128M-85.04128-68.03302H85.04128M-85.04128-51.02477H85.04128M-85.04128-34.0165H85.04128M-85.04128-17.00824H85.04128M-85.04128 0H85.04128M-85.04128 17.00824H85.04128M-85.04128 34.0165H85.04128M-85.04128 51.02477H85.04128M-85.04128 68.03302H85.04128M-85.04128 85.04128H85.04128M-85.04128 102.04356H85.04128M-85.04128-102.04953V102.04953M-68.03302-102.04953V102.04953M-51.02477-102.04953V102.04953M-34.0165-102.04953V102.04953M-17.00824-102.04953V102.04953M0-102.04953V102.04953M17.00824-102.04953V102.04953M34.0165-102.04953V102.04953M51.02477-102.04953V102.04953M68.03302-102.04953V102.04953M85.0353-102.04953V102.04953M85.04128 102.04953"/>
<path transform="matrix(1.00003,0,0,-1.00002,90.40329,124.12123)" stroke-width=".79701" stroke-linecap="butt" stroke-miterlimit="10" stroke-linejoin="miter" fill="none" stroke="#000000" d="M-85.04128 0H93.81172"/>
<path transform="matrix(1.00003,0,0,-1.00002,184.21784,124.12123)" d="M1.0361 0C-.25902 .25902-1.55415 .77707-3.1083 1.68365-1.55415 .51805-1.55415-.51805-3.1083-1.68365-1.55415-.77707-.25902-.25902 1.0361 0Z"/>
<path transform="matrix(1.00003,0,0,-1.00002,184.21784,124.12123)" stroke-width=".79701" stroke-linecap="butt" stroke-linejoin="round" fill="none" stroke="#000000" d="M1.0361 0C-.25902 .25902-1.55415 .77707-3.1083 1.68365-1.55415 .51805-1.55415-.51805-3.1083-1.68365-1.55415-.77707-.25902-.25902 1.0361 0Z"/>
<use data-text="x" xlink:href="#font_1_1" transform="matrix(9.962899,0,0,-9.962799,189.37126,126.26627)"/>
<path transform="matrix(1.00003,0,0,-1.00002,90.40329,124.12123)" stroke-width=".79701" stroke-linecap="butt" stroke-miterlimit="10" stroke-linejoin="miter" fill="none" stroke="#000000" d="M0-102.04953V110.81998"/>
<path transform="matrix(0,-1.00002,-1.00003,-0,90.40329,13.299034)" d="M1.0361 0C-.25902 .25902-1.55415 .77707-3.1083 1.68365-1.55415 .51805-1.55415-.51805-3.1083-1.68365-1.55415-.77707-.25902-.25902 1.0361 0Z"/>
<path transform="matrix(0,-1.00002,-1.00003,-0,90.40329,13.299034)" stroke-width=".79701" stroke-linecap="butt" stroke-linejoin="round" fill="none" stroke="#000000" d="M1.0361 0C-.25902 .25902-1.55415 .77707-3.1083 1.68365-1.55415 .51805-1.55415-.51805-3.1083-1.68365-1.55415-.77707-.25902-.25902 1.0361 0Z"/>
<use data-text="y" xlink:href="#font_1_2" transform="matrix(9.962899,0,0,-9.962799,87.78221,6.207863)"/>
<path transform="matrix(1.00003,0,0,-1.00002,90.40329,124.12123)" stroke-width=".79701" stroke-linecap="butt" stroke-miterlimit="10" stroke-linejoin="miter" fill="none" stroke="#000000" d="M-85.04128 1.70091V-1.70065"/>
<path transform="matrix(1.00003,0,0,-1.00002,90.40329,124.12123)" d="M-90.18704-12.93863H-79.89552V-4.0917198H-90.18704Z" fill="#ffffff"/>
<use data-text="-" xlink:href="#font_2_64" transform="matrix(9.962899,0,0,-9.962799,1.20961,135.84447)"/>
<use data-text="5" xlink:href="#font_2_56" transform="matrix(9.962899,0,0,-9.962799,4.5272676,135.84447)"/>
<path transform="matrix(1.00003,0,0,-1.00002,90.40329,124.12123)" stroke-width=".79701" stroke-linecap="butt" stroke-miterlimit="10" stroke-linejoin="miter" fill="none" stroke="#000000" d="M85.04128 1.70091V-1.70065"/>
<path transform="matrix(1.00003,0,0,-1.00002,90.40329,124.12123)" d="M81.5543-12.93863H88.52824V-4.0917198H81.5543Z" fill="#ffffff"/>
<use data-text="5" xlink:href="#font_2_56" transform="matrix(9.962899,0,0,-9.962799,172.95677,135.84447)"/>
<path transform="matrix(1.00003,0,0,-1.00002,90.40329,124.12123)" stroke-width=".79701" stroke-linecap="butt" stroke-miterlimit="10" stroke-linejoin="miter" fill="none" stroke="#000000" d="M1.70091 85.04128H-1.70065"/>
<path transform="matrix(1.00003,0,0,-1.00002,90.40329,124.12123)" d="M-11.06564 80.61781H-4.0917007V89.46472H-11.06564Z" fill="#ffffff"/>
<use data-text="5" xlink:href="#font_2_56" transform="matrix(9.962899,0,0,-9.962799,80.333988,42.28659)"/>
<path transform="matrix(1.00003,0,0,-1.00002,90.40329,124.12123)" stroke-width=".79701" stroke-linecap="butt" stroke-miterlimit="10" stroke-linejoin="miter" fill="none" stroke="#000000" d="M1.70091-85.04128H-1.70065"/>
<path transform="matrix(1.00003,0,0,-1.00002,90.40329,124.12123)" d="M-14.38324-89.46474H-4.0917198V-80.61783H-14.38324Z" fill="#ffffff"/>
<use data-text="-" xlink:href="#font_2_64" transform="matrix(9.962899,0,0,-9.962799,77.015888,212.37201)"/>
<use data-text="5" xlink:href="#font_2_56" transform="matrix(9.962899,0,0,-9.962799,80.33354,212.37201)"/>
<path transform="matrix(1.00003,0,0,-1.00002,90.40329,124.12123)" stroke-width="1.19553" stroke-linecap="butt" stroke-miterlimit="10" stroke-linejoin="miter" fill="none" stroke="#ff0000" d="M-53.48955-100.19975C-52.5705-94.44322-52.5705-94.44322-52.10413-91.58572-51.63774-88.72823-50.88982-84.21968-50.42343-81.45436-49.95705-78.68906-49.20914-74.32835-48.74275-71.6552-48.27637-68.98207-47.52844-64.7692-47.06206-62.18825-46.59569-59.6073-45.84776-55.54228-45.38138-53.05347-44.915-50.56467-44.16707-46.6473-43.7007-44.25063-43.23431-41.85396-42.48639-38.08446-42.02-35.77998-41.55363-33.4755-40.80571-29.8538-40.33932-27.64151-39.87294-25.42923-39.125-21.95535-38.65865-19.83525-38.19226-17.71513-37.44432-14.38911-36.97794-12.36118-36.51157-10.33325-35.76364-7.15504-35.29726-5.2193-34.83087-3.28355-34.08295-.2532-33.61656 1.59035-33.15019 3.43394-32.40227 6.31668-31.93588 8.06812-31.4695 9.81953-30.72157 12.55417-30.2552 14.21341-29.78882 15.87265-29.0409 18.45969-28.57451 20.02678-28.10812 21.59387-27.36021 24.03305-26.89383 25.50795-26.42744 26.98286-25.6795 29.27422-25.21315 30.65694-24.74677 32.03969-23.99883 34.18317-23.53244 35.47374-23.06607 36.76431-22.31815 38.76021-21.85176 39.95859-21.38538 41.157-20.63745 43.00478-20.17107 44.111-19.7047 45.21721-18.95677 46.91739-18.49039 47.93147-18.024 48.94554-17.27608 50.49791-16.80971 51.41975-16.34332 52.3416-15.5954 53.74591-15.12901 54.57558-14.66263 55.40526-13.91472 56.66191-13.44833 57.39949-12.98195 58.13704-12.23401 59.24606-11.76764 59.89143-11.30127 60.5368-10.55333 61.4978-10.08694 62.05095-9.62057 62.60411-8.87263 63.41727-8.40627 63.87828-7.93988 64.3393-7.19196 65.00479-6.72557 65.37366-6.2592 65.74251-5.51128 66.26021-5.04489 66.53685-4.5785 66.81349-3.83058 67.18314-3.36421 67.36758-2.89783 67.55206-2.1499 67.77408-1.68352 67.8664-1.21713 67.95874-.46922 68.03284-.00284 68.03302 .46352 68.03319 1.21143 67.95969 1.67781 67.8677 2.14418 67.7757 2.8921 67.55411 3.35849 67.36993 3.82487 67.18576 4.57281 66.81659 5.03917 66.54022 5.50555 66.26385 6.2535 65.74661 6.71988 65.37808 7.18625 65.00952 7.93417 64.34467 8.40056 63.88399 8.86694 63.42328 9.61487 62.61057 10.08124 62.05771 10.54762 61.50484 11.29555 60.54428 11.76193 59.89922 12.22832 59.25417 12.97623 58.14577 13.44261 57.40855 13.909 56.67136 14.65692 55.41534 15.1233 54.58597 15.58968 53.75659 16.3376 52.3525 16.80399 51.43091 17.27037 50.50934 18.01831 48.95767 18.48466 47.94392 18.95105 46.93019 19.69899 45.23042 20.16537 44.1245 20.63176 43.01857 21.37967 41.1712 21.84605 39.97313 22.31244 38.77504 23.06036 36.77983 23.52675 35.48956 23.99312 34.19931 24.74104 32.05621 25.20743 30.67381 25.67381 29.29141 26.42174 27.00072 26.8881 25.52612 27.35449 24.05154 28.10242 21.61275 28.5688 20.04599 29.03517 18.47922 29.7831 15.89287 30.24948 14.2339 30.71587 12.57497 31.4638 9.84052 31.93016 8.08939 32.39655 6.33826 33.14449 3.4562 33.61087 1.61292 34.07726-.23032 34.82516-3.26021 35.29155-5.19568 35.75793-7.13113 36.50586-10.30893 36.97224-12.33652 37.43861-14.36414 38.18654-17.68951 38.65292-19.8093 39.11931-21.9291 39.86723-25.40251 40.3336-27.61452 40.79999-29.82654 41.54791-33.4478 42.0143-35.75194 42.48067-38.05609 43.22859-41.825 43.69498-44.2213 44.16136-46.61758 44.9093-50.53436 45.37566-53.02284 45.84204-55.51132 46.58998-59.57593 47.05637-62.15659 47.52274-64.73726 48.27066-68.94966 48.73705-71.6225 49.20343-74.29536 49.95135-78.65561 50.41774-81.42064 50.88411-84.18565 51.63202-88.69377 52.0984-91.55096 52.56479-94.40813 53.77908-102.0132 53.48381-100.16371"/>
<path transform="matrix(-.15764474,.98748978,.98749968,.15764316,36.912134,224.32297)" d="M1.27522 0C-.31879 .31879-1.91284 .9564-3.8257 2.07224-1.91284 .6376-1.91284-.6376-3.8257-2.07224-1.91284-.9564-.31879-.31879 1.27522 0Z" fill="#ff0000"/>
<path transform="matrix(-.15764474,.98748978,.98749968,.15764316,36.912134,224.32297)" stroke-width="1.19553" stroke-linecap="butt" stroke-linejoin="round" fill="none" stroke="#ff0000" d="M1.27522 0C-.31879 .31879-1.91284 .9564-3.8257 2.07224-1.91284 .6376-1.91284-.6376-3.8257-2.07224-1.91284-.9564-.31879-.31879 1.27522 0Z"/>
<path transform="matrix(.15765473,.9874798,.9874897,-.15765316,143.8887,224.28696)" d="M1.27522 0C-.31879 .31879-1.91284 .9564-3.8257 2.07224-1.91284 .6376-1.91284-.6376-3.8257-2.07224-1.91284-.9564-.31879-.31879 1.27522 0Z" fill="#ff0000"/>
<path transform="matrix(.15765473,.9874798,.9874897,-.15765316,143.8887,224.28696)" stroke-width="1.19553" stroke-linecap="butt" stroke-linejoin="round" fill="none" stroke="#ff0000" d="M1.27522 0C-.31879 .31879-1.91284 .9564-3.8257 2.07224-1.91284 .6376-1.91284-.6376-3.8257-2.07224-1.91284-.9564-.31879-.31879 1.27522 0Z"/>
</svg>
