<svg xmlns="http://www.w3.org/2000/svg" xmlns:xlink="http://www.w3.org/1999/xlink" version="1.1" width="146" height="136" viewBox="0 0 146 136">
<defs>
<path id="font_1_1" d="M.33399964 .30233766C.33999635 .32835389 .36299134 .42037965 .43299867 .42037965 .43798829 .42037965 .46199037 .42037965 .48298646 .40734864 .45498658 .402359 .43499757 .37734986 .43499757 .35334779 .43499757 .33735658 .44599916 .31835938 .47299195 .31835938 .49499513 .31835938 .5269928 .3363495 .5269928 .37635804 .5269928 .42837525 .46798707 .4423828 .43399049 .4423828 .37599183 .4423828 .34098817 .38935853 .32899476 .36634828 .3039856 .43237306 .25 .4423828 .22099304 .4423828 .116989139 .4423828 .05999756 .3133545 .05999756 .28834535 .05999756 .27833558 .069992069 .27833558 .07199097 .27833558 .07998657 .27833558 .08299255 .28033448 .084991458 .28933717 .11898804 .39535523 .18499756 .42037965 .21899414 .42037965 .23799134 .42037965 .272995 .4113617 .272995 .35334779 .272995 .32235719 .2559967 .25532533 .21899414 .11528015 .20298767 .053268434 .16799927 .011245728 .12399292 .011245728 .117996219 .011245728 .09498596 .011245728 .07398987 .024276734 .09899902 .029266358 .12098694 .05027771 .12098694 .07827759 .12098694 .105270389 .09899902 .11328125 .083999637 .11328125 .053985597 .11328125 .0289917 .08728027 .0289917 .055267335 .0289917 .009246826 .07899475-.0107421879 .12298584-.0107421879 .18899536-.0107421879 .22499085 .059280397 .22799683 .0652771 .23999024 .028274537 .27598573-.0107421879 .33599855-.0107421879 .43899537-.0107421879 .49598695 .118270877 .49598695 .14328003 .49598695 .1532898 .4869995 .1532898 .48399354 .1532898 .47499085 .1532898 .47299195 .14929199 .47099305 .14228821 .43798829 .03527832 .36999513 .011245728 .33799745 .011245728 .29899598 .011245728 .2829895 .043273927 .2829895 .07727051 .2829895 .09927368 .2889862 .121276859 .2999878 .16529846L.33399964 .30233766Z"/>
<path id="font_1_2" d="M.48599244 .38136292C.48999024 .39537049 .48999024 .39736939 .48999024 .40437318 .48999024 .42237855 .47599793 .43138124 .46099855 .43138124 .45098878 .43138124 .43499757 .42536927 .42599488 .41036988 .42399598 .405365 .41600038 .37435914 .4119873 .35635377 .40499879 .33035279 .397995 .30334474 .3919983 .27633668L.34700013 .09628296C.34298707 .08126831 .2999878 .011245728 .23399353 .011245728 .18299866 .011245728 .17199707 .055267335 .17199707 .0922699 .17199707 .1382904 .18899536 .20030213 .22299195 .28833009 .23899842 .3293457 .24299622 .3403473 .24299622 .36035157 .24299622 .405365 .21099854 .4423828 .16099549 .4423828 .06599426 .4423828 .0289917 .29733277 .0289917 .28833009 .0289917 .27833558 .038986207 .27833558 .040985109 .27833558 .050994874 .27833558 .051986696 .28033448 .056991579 .29634095 .083999637 .3903656 .12399292 .42037965 .1579895 .42037965 .1659851 .42037965 .18299866 .42037965 .18299866 .3883667 .18299866 .36335755 .17298889 .3373413 .1659851 .31834413 .12599182 .21231079 .10798645 .1552887 .10798645 .10827637 .10798645 .019256592 .17098999-.0107421879 .22999573-.0107421879 .2689972-.0107421879 .30299378 .0062561037 .33099366 .03425598 .31799317-.017745972 .30599977-.06674194 .2659912-.11973572 .23999024-.15385437 .20199585-.18309021 .1559906-.18309021 .14199829-.18309021 .09700012-.18005371 .07998657-.14074707 .09599304-.14074707 .10899353-.14074707 .12298584-.1287384 .1329956-.11973572 .14299011-.10673523 .14299011-.08773804 .14299011-.056747438 .115997318-.052734376 .10598755-.052734376 .08299255-.052734376 .049987794-.068740848 .049987794-.11773682 .049987794-.16796875 .09399414-.20507813 .1559906-.20507813 .25898744-.20507813 .3619995-.11373901 .3899994-.00074768069L.48599244 .38136292Z"/>
<path id="font_2_82" d="M.4189911 0V.0309906H.3869934C.29699708 .0309906 .2939911 .041992189 .2939911 .07902527V.64012148C.2939911 .6640167 .2939911 .6660156 .2709961 .6660156 .20899964 .60227969 .12098694 .60227969 .08898926 .60227969V.57128909C.10899353 .57128909 .16799927 .57128909 .21998596 .5972748V.07902527C.21998596 .042999269 .21699524 .0309906 .1269989 .0309906H.09498596V0C.12998963 .0029907227 .21699524 .0029907227 .25698854 .0029907227 .29699708 .0029907227 .38398744 .0029907227 .4189911 0Z"/>
<path id="font_2_121" d="M.45999146 .31976319C.45999146 .39982606 .45498658 .47988893 .41999818 .5539398 .37399293 .65000918 .2919922 .6660156 .25 .6660156 .18998719 .6660156 .116989139 .64001467 .07598877 .54693606 .04399109 .47789 .038986207 .39982606 .038986207 .31976319 .038986207 .24472046 .042999269 .15464783 .083999637 .07859802 .1269989-.0024719239 .19999695-.022460938 .24899292-.022460938 .30299378-.022460938 .3789978-.0014648438 .4229889 .09359741 .45498658 .16265869 .45999146 .2407074 .45999146 .31976319M.3769989 .3317871C.3769989 .25672914 .3769989 .18867493 .3659973 .12461853 .35099793 .029556275 .2939911-.00047302247 .24899292-.00047302247 .20999146-.00047302247 .15098572 .024551392 .1329956 .12062073 .12199402 .18066406 .12199402 .2727356 .12199402 .3317871 .12199402 .39582826 .12199402 .46188355 .12998963 .5159149 .14898682 .63500979 .22399903 .64401248 .24899292 .64401248 .28199769 .64401248 .34799195 .6259918 .36698915 .52693179 .3769989 .47088624 .3769989 .39482118 .3769989 .3317871Z"/>
<path id="font_2_107" d="M.44898988 .17396546H.42399598C.4189911 .14398194 .4119873 .099990848 .4019928 .084991458 .394989 .07699585 .32899476 .07699585 .30699159 .07699585H.1269989L.23298645 .17996216C.3889923 .31803895 .44898988 .37210084 .44898988 .47216798 .44898988 .5860901 .35899354 .6660156 .23699951 .6660156 .12399292 .6660156 .049987794 .57411196 .049987794 .48516847 .049987794 .4291687 .099990848 .4291687 .102996829 .4291687 .11999512 .4291687 .15499878 .44117738 .15499878 .48217774 .15499878 .5081787 .13699341 .5341797 .101989749 .5341797 .09399414 .5341797 .09199524 .5341797 .08898926 .5331726 .11199951 .59806826 .1659851 .63500979 .22399903 .63500979 .31498719 .63500979 .35798646 .5541382 .35798646 .47216798 .35798646 .39196778 .30799867 .31297303 .25299073 .25097657L.06098938 .036987306C.049987794 .025985718 .049987794 .023986817 .049987794 0H.42099L.44898988 .17396546Z"/>
<path id="font_2_106" d="M.45700074 .17037964C.45700074 .252594 .3939972 .33088685 .2899933 .35191346 .37199403 .37893678 .42999269 .4490509 .42999269 .52809146 .42999269 .6100464 .34199525 .6660156 .24598694 .6660156 .14498902 .6660156 .068984989 .60606387 .068984989 .53009036 .068984989 .49710084 .09098816 .47808839 .11999512 .47808839 .15098572 .47808839 .17098999 .50009158 .17098999 .5290985 .17098999 .57910159 .12399292 .57910159 .10899353 .57910159 .13999939 .62802127 .20599365 .64100649 .24198914 .64100649 .2829895 .64100649 .33799745 .6190338 .33799745 .5290985 .33799745 .51708987 .33599855 .45906068 .30999757 .4149933 .27999879 .36691285 .24598694 .36390687 .22099304 .36291505 .21299744 .36190797 .18899536 .35990907 .18199158 .35990907 .17399597 .35890199 .16699219 .35791017 .16699219 .3479004 .16699219 .33691407 .17399597 .33691407 .19099427 .33691407H.23498535C.31698609 .33691407 .35398866 .2686615 .35398866 .17037964 .35398866 .034469606 .2849884 .0055389406 .24099732 .0055389406 .19799805 .0055389406 .12298584 .022491456 .08799744 .08137512 .12298584 .07637024 .1539917 .09837341 .1539917 .1363678 .1539917 .17237854 .1269989 .19238281 .09799194 .19238281 .07398987 .19238281 .041992189 .17837525 .041992189 .1343689 .041992189 .043441774 .1349945-.022460938 .24398804-.022460938 .3659973-.022460938 .45700074 .06838989 .45700074 .17037964Z"/>
<path id="font_2_57" d="M.47099305 .16503906V.19602967H.37098695V.6507721C.37098695 .6707611 .37098695 .6767578 .35499574 .6767578 .34599305 .6767578 .34298707 .6767578 .33499146 .6647644L.027999878 .19602967V.16503906H.2939911V.07800293C.2939911 .041992189 .2919922 .0309906 .21798706 .0309906H.19699097V0C.23799134 .0029907227 .2899933 .0029907227 .33198548 .0029907227 .37399293 .0029907227 .4269867 .0029907227 .46798707 0V.0309906H.44699098C.37298585 .0309906 .37098695 .041992189 .37098695 .07800293V.16503906H.47099305M.2999878 .19602967H.055999757L.2999878 .56881716V.19602967Z"/>
<path id="font_2_56" d="M.44898988 .20091248C.44898988 .31991578 .36698915 .41992188 .25898744 .41992188 .21099854 .41992188 .16799927 .4039154 .13198853 .36891175V.5641022C.1519928 .55778506 .18499756 .55078127 .21699524 .55078127 .33999635 .55078127 .4099884 .6418457 .4099884 .65493777 .4099884 .6609802 .40699769 .6660156 .3999939 .6660156 .3999939 .66607668 .39698792 .66607668 .3919983 .66308596 .37199403 .65408328 .32299806 .63378909 .2559967 .63378909 .21598816 .63409426 .16999817 .641098 .12298584 .6621094 .114990238 .6651001 .11099243 .6651001 .11099243 .6651001 .100997928 .66508486 .100997928 .657074 .100997928 .64108279V.3447113C.100997928 .3266449 .100997928 .31861878 .114990238 .31861878 .12199402 .31861878 .12399292 .32164 .12799073 .32765199 .13899231 .34371949 .17599488 .3979187 .25698854 .3979187 .30899049 .3979187 .33399964 .3517456 .34199525 .3336792 .35798646 .2965393 .3600006 .2574005 .3600006 .20721436 .3600006 .17218018 .3600006 .112197879 .33599855 .07032776 .31199647 .031448366 .2749939 .0055389406 .22898865 .0055389406 .1559906 .0055389406 .09899902 .05836487 .08198547 .1171875 .084991458 .11685181 .08799744 .115859989 .09899902 .115859989 .13198853 .115859989 .14898682 .14085388 .14898682 .16485596 .14898682 .18885803 .13198853 .21386719 .09899902 .21386719 .084991458 .21386719 .049987794 .2068634 .049987794 .16085816 .049987794 .07432556 .11898804-.022460938 .23098755-.022460938 .34700013-.022460938 .44898988 .07331848 .44898988 .20019531V.20091248Z"/>
<path id="font_2_101" d="M.45700074 .2036438C.45700074 .33070375 .36799623 .4267578 .25698854 .4267578 .18899536 .4267578 .1519928 .37573243 .13198853 .327713V.35173036C.13198853 .6047821 .2559967 .64100649 .30699159 .64100649 .33099366 .64100649 .37298585 .634964 .394989 .6007538 .37998963 .6007538 .33999635 .6007538 .33999635 .5557556 .33999635 .524765 .3639984 .5097656 .38598634 .5097656 .4019928 .5097656 .43199159 .51875308 .43199159 .5577545 .43199159 .6178589 .3880005 .6660156 .30499269 .6660156 .1769867 .6660156 .041992189 .5367584 .041992189 .31570436 .041992189 .048553468 .1579895-.022460938 .25099183-.022460938 .3619995-.022460938 .45700074 .07156372 .45700074 .2036438M.36698915 .20463562C.36698915 .15661621 .36698915 .10658264 .34999085 .0705719 .31999208 .010528564 .27398683 .0055389406 .25099183 .0055389406 .18798828 .0055389406 .1579895 .06556702 .1519928 .080566409 .13398743 .127594 .13398743 .2076416 .13398743 .22564698 .13398743 .30369569 .1659851 .40374757 .2559967 .40374757 .27198792 .40374757 .31799317 .40374757 .34899903 .34172059 .36698915 .30470277 .36698915 .2536621 .36698915 .20463562Z"/>
</defs>
<path transform="matrix(1.00003,0,0,-1.00003,16.262078,122.42229)" stroke-width=".3985" stroke-linecap="butt" stroke-miterlimit="10" stroke-linejoin="miter" fill="none" stroke="#00aeef" d="M0 0H110.55367M0 8.50412H110.55367M0 17.00824H110.55367M0 25.51236H110.55367M0 34.01648H110.55367M0 42.52061H110.55367M0 51.02473H110.55367M0 59.52885H110.55367M0 68.03297H110.55367M0 76.53711H110.55367M0 85.04123H110.55367M0 93.54535H110.55367M0 102.04948H110.55367M0 0V102.04953M8.50412 0V102.04953M17.00824 0V102.04953M25.51236 0V102.04953M34.01648 0V102.04953M42.52061 0V102.04953M51.02473 0V102.04953M59.52885 0V102.04953M68.03297 0V102.04953M76.53711 0V102.04953M85.04123 0V102.04953M93.54535 0V102.04953M102.04948 0V102.04953M110.55362 0V102.04953M110.55367 102.04953"/>
<path transform="matrix(1.00003,0,0,-1.00003,16.262078,122.42229)" stroke-width=".79701" stroke-linecap="butt" stroke-miterlimit="10" stroke-linejoin="miter" fill="none" stroke="#000000" d="M0 0H117.62318"/>
<path transform="matrix(1.00003,0,0,-1.00003,133.8888,122.42229)" d="M1.0361 0C-.25902 .25902-1.55415 .77707-3.1083 1.68365-1.55415 .51805-1.55415-.51805-3.1083-1.68365-1.55415-.77707-.25902-.25902 1.0361 0Z"/>
<path transform="matrix(1.00003,0,0,-1.00003,133.8888,122.42229)" stroke-width=".79701" stroke-linecap="butt" stroke-linejoin="round" fill="none" stroke="#000000" d="M1.0361 0C-.25902 .25902-1.55415 .77707-3.1083 1.68365-1.55415 .51805-1.55415-.51805-3.1083-1.68365-1.55415-.77707-.25902-.25902 1.0361 0Z"/>
<use data-text="x" xlink:href="#font_1_1" transform="matrix(9.962899,0,0,-9.962899,139.04276,124.56735)"/>
<path transform="matrix(1.00003,0,0,-1.00003,16.262078,122.42229)" stroke-width=".79701" stroke-linecap="butt" stroke-miterlimit="10" stroke-linejoin="miter" fill="none" stroke="#000000" d="M0 0V109.11905"/>
<path transform="matrix(0,-1.00003,-1.00003,-0,16.262078,13.299957)" d="M1.0361 0C-.25902 .25902-1.55415 .77707-3.1083 1.68365-1.55415 .51805-1.55415-.51805-3.1083-1.68365-1.55415-.77707-.25902-.25902 1.0361 0Z"/>
<path transform="matrix(0,-1.00003,-1.00003,-0,16.262078,13.299957)" stroke-width=".79701" stroke-linecap="butt" stroke-linejoin="round" fill="none" stroke="#000000" d="M1.0361 0C-.25902 .25902-1.55415 .77707-3.1083 1.68365-1.55415 .51805-1.55415-.51805-3.1083-1.68365-1.55415-.77707-.25902-.25902 1.0361 0Z"/>
<use data-text="y" xlink:href="#font_1_2" transform="matrix(9.962899,0,0,-9.962899,13.640999,6.2087938)"/>
<path transform="matrix(1.00003,0,0,-1.00003,16.262078,122.42229)" stroke-width=".79701" stroke-linecap="butt" stroke-miterlimit="10" stroke-linejoin="miter" fill="none" stroke="#000000" d="M17.00824 1.70091V-1.70065"/>
<path transform="matrix(1.00003,0,0,-1.00003,16.262078,122.42229)" d="M11.03058-12.93863H22.9859V-4.0917198H11.03058Z" fill="#ffffff"/>
<use data-text="1" xlink:href="#font_2_82" transform="matrix(9.962899,0,0,-9.962899,28.289437,134.14563)"/>
<use data-text="0" xlink:href="#font_2_121" transform="matrix(9.962899,0,0,-9.962899,33.27088,134.14563)"/>
<path transform="matrix(1.00003,0,0,-1.00003,16.262078,122.42229)" stroke-width=".79701" stroke-linecap="butt" stroke-miterlimit="10" stroke-linejoin="miter" fill="none" stroke="#000000" d="M34.0165 1.70091V-1.70065"/>
<path transform="matrix(1.00003,0,0,-1.00003,16.262078,122.42229)" d="M28.03883-12.93863H39.99415V-4.0917198H28.03883Z" fill="#ffffff"/>
<use data-text="2" xlink:href="#font_2_107" transform="matrix(9.962899,0,0,-9.962899,45.29795,134.14563)"/>
<use data-text="0" xlink:href="#font_2_121" transform="matrix(9.962899,0,0,-9.962899,50.279397,134.14563)"/>
<path transform="matrix(1.00003,0,0,-1.00003,16.262078,122.42229)" stroke-width=".79701" stroke-linecap="butt" stroke-miterlimit="10" stroke-linejoin="miter" fill="none" stroke="#000000" d="M51.02477 1.70091V-1.70065"/>
<path transform="matrix(1.00003,0,0,-1.00003,16.262078,122.42229)" d="M45.0471-12.93863H57.00242V-4.0917198H45.0471Z" fill="#ffffff"/>
<use data-text="3" xlink:href="#font_2_106" transform="matrix(9.962899,0,0,-9.962899,62.30646,134.14563)"/>
<use data-text="0" xlink:href="#font_2_121" transform="matrix(9.962899,0,0,-9.962899,67.2879,134.14563)"/>
<path transform="matrix(1.00003,0,0,-1.00003,16.262078,122.42229)" stroke-width=".79701" stroke-linecap="butt" stroke-miterlimit="10" stroke-linejoin="miter" fill="none" stroke="#000000" d="M68.03302 1.70091V-1.70065"/>
<path transform="matrix(1.00003,0,0,-1.00003,16.262078,122.42229)" d="M62.05536-13.04823H74.01068V-4.0917208H62.05536Z" fill="#ffffff"/>
<use data-text="4" xlink:href="#font_2_57" transform="matrix(9.962899,0,0,-9.962899,79.31597,134.25565)"/>
<use data-text="0" xlink:href="#font_2_121" transform="matrix(9.962899,0,0,-9.962899,84.29742,134.25565)"/>
<path transform="matrix(1.00003,0,0,-1.00003,16.262078,122.42229)" stroke-width=".79701" stroke-linecap="butt" stroke-miterlimit="10" stroke-linejoin="miter" fill="none" stroke="#000000" d="M85.04128 1.70091V-1.70065"/>
<path transform="matrix(1.00003,0,0,-1.00003,16.262078,122.42229)" d="M79.06361-12.93863H91.01893V-4.0917198H79.06361Z" fill="#ffffff"/>
<use data-text="5" xlink:href="#font_2_56" transform="matrix(9.962899,0,0,-9.962899,96.32448,134.14563)"/>
<use data-text="0" xlink:href="#font_2_121" transform="matrix(9.962899,0,0,-9.962899,101.30592,134.14563)"/>
<path transform="matrix(1.00003,0,0,-1.00003,16.262078,122.42229)" stroke-width=".79701" stroke-linecap="butt" stroke-miterlimit="10" stroke-linejoin="miter" fill="none" stroke="#000000" d="M102.04953 1.70091V-1.70065"/>
<path transform="matrix(1.00003,0,0,-1.00003,16.262078,122.42229)" d="M96.07187-12.93863H108.02719V-4.0917198H96.07187Z" fill="#ffffff"/>
<use data-text="6" xlink:href="#font_2_101" transform="matrix(9.962899,0,0,-9.962899,113.33299,134.14563)"/>
<use data-text="0" xlink:href="#font_2_121" transform="matrix(9.962899,0,0,-9.962899,118.31444,134.14563)"/>
<path transform="matrix(1.00003,0,0,-1.00003,16.262078,122.42229)" stroke-width=".79701" stroke-linecap="butt" stroke-miterlimit="10" stroke-linejoin="miter" fill="none" stroke="#000000" d="M1.70091 17.00824H-1.70065"/>
<path transform="matrix(1.00003,0,0,-1.00003,16.262078,122.42229)" d="M-16.04703 12.58478H-4.091709V21.43169H-16.04703Z" fill="#ffffff"/>
<use data-text="1" xlink:href="#font_2_82" transform="matrix(9.962899,0,0,-9.962899,1.2106247,108.62187)"/>
<use data-text="0" xlink:href="#font_2_121" transform="matrix(9.962899,0,0,-9.962899,6.19207,108.62187)"/>
<path transform="matrix(1.00003,0,0,-1.00003,16.262078,122.42229)" stroke-width=".79701" stroke-linecap="butt" stroke-miterlimit="10" stroke-linejoin="miter" fill="none" stroke="#000000" d="M1.70091 34.0165H-1.70065"/>
<path transform="matrix(1.00003,0,0,-1.00003,16.262078,122.42229)" d="M-16.04703 29.59305H-4.091709V38.43996H-16.04703Z" fill="#ffffff"/>
<use data-text="2" xlink:href="#font_2_107" transform="matrix(9.962899,0,0,-9.962899,1.2106247,91.61336)"/>
<use data-text="0" xlink:href="#font_2_121" transform="matrix(9.962899,0,0,-9.962899,6.19207,91.61336)"/>
<path transform="matrix(1.00003,0,0,-1.00003,16.262078,122.42229)" stroke-width=".79701" stroke-linecap="butt" stroke-miterlimit="10" stroke-linejoin="miter" fill="none" stroke="#000000" d="M1.70091 51.02477H-1.70065"/>
<path transform="matrix(1.00003,0,0,-1.00003,16.262078,122.42229)" d="M-16.04703 46.6013H-4.091709V55.44821H-16.04703Z" fill="#ffffff"/>
<use data-text="3" xlink:href="#font_2_106" transform="matrix(9.962899,0,0,-9.962899,1.2106247,74.60385)"/>
<use data-text="0" xlink:href="#font_2_121" transform="matrix(9.962899,0,0,-9.962899,6.19207,74.60385)"/>
<path transform="matrix(1.00003,0,0,-1.00003,16.262078,122.42229)" stroke-width=".79701" stroke-linecap="butt" stroke-miterlimit="10" stroke-linejoin="miter" fill="none" stroke="#000000" d="M1.70091 68.03302H-1.70065"/>
<path transform="matrix(1.00003,0,0,-1.00003,16.262078,122.42229)" d="M-16.04703 63.55476H-4.091709V72.51127H-16.04703Z" fill="#ffffff"/>
<use data-text="4" xlink:href="#font_2_57" transform="matrix(9.962899,0,0,-9.962899,1.2106247,57.650346)"/>
<use data-text="0" xlink:href="#font_2_121" transform="matrix(9.962899,0,0,-9.962899,6.19207,57.650346)"/>
<path transform="matrix(1.00003,0,0,-1.00003,16.262078,122.42229)" stroke-width=".79701" stroke-linecap="butt" stroke-miterlimit="10" stroke-linejoin="miter" fill="none" stroke="#000000" d="M1.70091 85.04128H-1.70065"/>
<path transform="matrix(1.00003,0,0,-1.00003,16.262078,122.42229)" d="M-16.04703 80.61781H-4.091709V89.46472H-16.04703Z" fill="#ffffff"/>
<use data-text="5" xlink:href="#font_2_56" transform="matrix(9.962899,0,0,-9.962899,1.2106247,40.58683)"/>
<use data-text="0" xlink:href="#font_2_121" transform="matrix(9.962899,0,0,-9.962899,6.19207,40.58683)"/>
<path transform="matrix(1.00003,0,0,-1.00003,16.262078,122.42229)" stroke-width=".79701" stroke-linecap="butt" stroke-miterlimit="10" stroke-linejoin="miter" fill="none" stroke="#000000" d="M1.70091 102.04953H-1.70065"/>
<path transform="matrix(1.00003,0,0,-1.00003,16.262078,122.42229)" d="M-16.04703 97.62608H-4.091709V106.47299H-16.04703Z" fill="#ffffff"/>
<use data-text="6" xlink:href="#font_2_101" transform="matrix(9.962899,0,0,-9.962899,1.2106247,23.578316)"/>
<use data-text="0" xlink:href="#font_2_121" transform="matrix(9.962899,0,0,-9.962899,6.19207,23.578316)"/>
<path transform="matrix(1.00003,0,0,-1.00003,16.262078,122.42229)" d="M72.28506 34.0165C72.28506 35.42545 71.1429 36.56763 69.73395 36.56763 68.325 36.56763 67.18283 35.42545 67.18283 34.0165 67.18283 32.60756 68.325 31.46538 69.73395 31.46538 71.1429 31.46538 72.28506 32.60756 72.28506 34.0165ZM69.73395 34.0165" fill="#0000ff"/>
<path transform="matrix(1.00003,0,0,-1.00003,16.262078,122.42229)" stroke-width=".3985" stroke-linecap="butt" stroke-miterlimit="10" stroke-linejoin="miter" fill="none" stroke="#0000ff" d="M72.28506 34.0165C72.28506 35.42545 71.1429 36.56763 69.73395 36.56763 68.325 36.56763 67.18283 35.42545 67.18283 34.0165 67.18283 32.60756 68.325 31.46538 69.73395 31.46538 71.1429 31.46538 72.28506 32.60756 72.28506 34.0165ZM69.73395 34.0165"/>
<path transform="matrix(1.00003,0,0,-1.00003,16.262078,122.42229)" d="M67.18254 40.8197C67.18254 42.22865 66.04036 43.37082 64.63141 43.37082 63.22247 43.37082 62.08029 42.22865 62.08029 40.8197 62.08029 39.41075 63.22247 38.26859 64.63141 38.26859 66.04036 38.26859 67.18254 39.41075 67.18254 40.8197ZM64.63141 40.8197" fill="#0000ff"/>
<path transform="matrix(1.00003,0,0,-1.00003,16.262078,122.42229)" stroke-width=".3985" stroke-linecap="butt" stroke-miterlimit="10" stroke-linejoin="miter" fill="none" stroke="#0000ff" d="M67.18254 40.8197C67.18254 42.22865 66.04036 43.37082 64.63141 43.37082 63.22247 43.37082 62.08029 42.22865 62.08029 40.8197 62.08029 39.41075 63.22247 38.26859 64.63141 38.26859 66.04036 38.26859 67.18254 39.41075 67.18254 40.8197ZM64.63141 40.8197"/>
<path transform="matrix(1.00003,0,0,-1.00003,16.262078,122.42229)" d="M60.37907 42.52063C60.37907 43.92958 59.23691 45.07175 57.82796 45.07175 56.419 45.07175 55.27684 43.92958 55.27684 42.52063 55.27684 41.11168 56.419 39.9695 57.82796 39.9695 59.23691 39.9695 60.37907 41.11168 60.37907 42.52063ZM57.82796 42.52063" fill="#0000ff"/>
<path transform="matrix(1.00003,0,0,-1.00003,16.262078,122.42229)" stroke-width=".3985" stroke-linecap="butt" stroke-miterlimit="10" stroke-linejoin="miter" fill="none" stroke="#0000ff" d="M60.37907 42.52063C60.37907 43.92958 59.23691 45.07175 57.82796 45.07175 56.419 45.07175 55.27684 43.92958 55.27684 42.52063 55.27684 41.11168 56.419 39.9695 57.82796 39.9695 59.23691 39.9695 60.37907 41.11168 60.37907 42.52063ZM57.82796 42.52063"/>
<path transform="matrix(1.00003,0,0,-1.00003,16.262078,122.42229)" d="M56.97748 35.71744C56.97748 37.12639 55.83531 38.26855 54.42636 38.26855 53.01741 38.26855 51.87524 37.12639 51.87524 35.71744 51.87524 34.30849 53.01741 33.16632 54.42636 33.16632 55.83531 33.16632 56.97748 34.30849 56.97748 35.71744ZM54.42636 35.71744" fill="#0000ff"/>
<path transform="matrix(1.00003,0,0,-1.00003,16.262078,122.42229)" stroke-width=".3985" stroke-linecap="butt" stroke-miterlimit="10" stroke-linejoin="miter" fill="none" stroke="#0000ff" d="M56.97748 35.71744C56.97748 37.12639 55.83531 38.26855 54.42636 38.26855 53.01741 38.26855 51.87524 37.12639 51.87524 35.71744 51.87524 34.30849 53.01741 33.16632 54.42636 33.16632 55.83531 33.16632 56.97748 34.30849 56.97748 35.71744ZM54.42636 35.71744"/>
<path transform="matrix(1.00003,0,0,-1.00003,16.262078,122.42229)" d="M53.57588 40.8197C53.57588 42.22865 52.43372 43.37082 51.02477 43.37082 49.61581 43.37082 48.47365 42.22865 48.47365 40.8197 48.47365 39.41075 49.61581 38.26859 51.02477 38.26859 52.43372 38.26859 53.57588 39.41075 53.57588 40.8197ZM51.02477 40.8197" fill="#0000ff"/>
<path transform="matrix(1.00003,0,0,-1.00003,16.262078,122.42229)" stroke-width=".3985" stroke-linecap="butt" stroke-miterlimit="10" stroke-linejoin="miter" fill="none" stroke="#0000ff" d="M53.57588 40.8197C53.57588 42.22865 52.43372 43.37082 51.02477 43.37082 49.61581 43.37082 48.47365 42.22865 48.47365 40.8197 48.47365 39.41075 49.61581 38.26859 51.02477 38.26859 52.43372 38.26859 53.57588 39.41075 53.57588 40.8197ZM51.02477 40.8197"/>
<path transform="matrix(1.00003,0,0,-1.00003,16.262078,122.42229)" d="M45.07175 45.92223C45.07175 47.33118 43.92958 48.47334 42.52063 48.47334 41.11168 48.47334 39.9695 47.33118 39.9695 45.92223 39.9695 44.51328 41.11168 43.3711 42.52063 43.3711 43.92958 43.3711 45.07175 44.51328 45.07175 45.92223ZM42.52063 45.92223" fill="#0000ff"/>
<path transform="matrix(1.00003,0,0,-1.00003,16.262078,122.42229)" stroke-width=".3985" stroke-linecap="butt" stroke-miterlimit="10" stroke-linejoin="miter" fill="none" stroke="#0000ff" d="M45.07175 45.92223C45.07175 47.33118 43.92958 48.47334 42.52063 48.47334 41.11168 48.47334 39.9695 47.33118 39.9695 45.92223 39.9695 44.51328 41.11168 43.3711 42.52063 43.3711 43.92958 43.3711 45.07175 44.51328 45.07175 45.92223ZM42.52063 45.92223"/>
<path transform="matrix(1.00003,0,0,-1.00003,16.262078,122.42229)" d="M43.37082 52.72568C43.37082 54.13463 42.22865 55.27681 40.8197 55.27681 39.41075 55.27681 38.26859 54.13463 38.26859 52.72568 38.26859 51.31673 39.41075 50.17456 40.8197 50.17456 42.22865 50.17456 43.37082 51.31673 43.37082 52.72568ZM40.8197 52.72568" fill="#0000ff"/>
<path transform="matrix(1.00003,0,0,-1.00003,16.262078,122.42229)" stroke-width=".3985" stroke-linecap="butt" stroke-miterlimit="10" stroke-linejoin="miter" fill="none" stroke="#0000ff" d="M43.37082 52.72568C43.37082 54.13463 42.22865 55.27681 40.8197 55.27681 39.41075 55.27681 38.26859 54.13463 38.26859 52.72568 38.26859 51.31673 39.41075 50.17456 40.8197 50.17456 42.22865 50.17456 43.37082 51.31673 43.37082 52.72568ZM40.8197 52.72568"/>
<path transform="matrix(1.00003,0,0,-1.00003,16.262078,122.42229)" d="M43.37082 59.52888C43.37082 60.93784 42.22865 62.08 40.8197 62.08 39.41075 62.08 38.26859 60.93784 38.26859 59.52888 38.26859 58.11993 39.41075 56.97777 40.8197 56.97777 42.22865 56.97777 43.37082 58.11993 43.37082 59.52888ZM40.8197 59.52888" fill="#0000ff"/>
<path transform="matrix(1.00003,0,0,-1.00003,16.262078,122.42229)" stroke-width=".3985" stroke-linecap="butt" stroke-miterlimit="10" stroke-linejoin="miter" fill="none" stroke="#0000ff" d="M43.37082 59.52888C43.37082 60.93784 42.22865 62.08 40.8197 62.08 39.41075 62.08 38.26859 60.93784 38.26859 59.52888 38.26859 58.11993 39.41075 56.97777 40.8197 56.97777 42.22865 56.97777 43.37082 58.11993 43.37082 59.52888ZM40.8197 59.52888"/>
<path transform="matrix(1.00003,0,0,-1.00003,16.262078,122.42229)" d="M41.67015 68.03302C41.67015 69.44197 40.52798 70.58415 39.11903 70.58415 37.71008 70.58415 36.56792 69.44197 36.56792 68.03302 36.56792 66.62407 37.71008 65.4819 39.11903 65.4819 40.52798 65.4819 41.67015 66.62407 41.67015 68.03302ZM39.11903 68.03302" fill="#0000ff"/>
<path transform="matrix(1.00003,0,0,-1.00003,16.262078,122.42229)" stroke-width=".3985" stroke-linecap="butt" stroke-miterlimit="10" stroke-linejoin="miter" fill="none" stroke="#0000ff" d="M41.67015 68.03302C41.67015 69.44197 40.52798 70.58415 39.11903 70.58415 37.71008 70.58415 36.56792 69.44197 36.56792 68.03302 36.56792 66.62407 37.71008 65.4819 39.11903 65.4819 40.52798 65.4819 41.67015 66.62407 41.67015 68.03302ZM39.11903 68.03302"/>
<path transform="matrix(1.00003,0,0,-1.00003,16.262078,122.42229)" d="M26.36256 71.43462C26.36256 72.84357 25.2204 73.98575 23.81145 73.98575 22.4025 73.98575 21.26033 72.84357 21.26033 71.43462 21.26033 70.02567 22.4025 68.8835 23.81145 68.8835 25.2204 68.8835 26.36256 70.02567 26.36256 71.43462ZM23.81145 71.43462" fill="#0000ff"/>
<path transform="matrix(1.00003,0,0,-1.00003,16.262078,122.42229)" stroke-width=".3985" stroke-linecap="butt" stroke-miterlimit="10" stroke-linejoin="miter" fill="none" stroke="#0000ff" d="M26.36256 71.43462C26.36256 72.84357 25.2204 73.98575 23.81145 73.98575 22.4025 73.98575 21.26033 72.84357 21.26033 71.43462 21.26033 70.02567 22.4025 68.8835 23.81145 68.8835 25.2204 68.8835 26.36256 70.02567 26.36256 71.43462ZM23.81145 71.43462"/>
<path transform="matrix(1.00003,0,0,-1.00003,16.262078,122.42229)" stroke-width="1.19553" stroke-linecap="butt" stroke-miterlimit="10" stroke-linejoin="miter" fill="none" stroke="#ff0000" d="M0 90.1438 106.0483 .00232"/>
</svg>
