<svg xmlns="http://www.w3.org/2000/svg" xmlns:xlink="http://www.w3.org/1999/xlink" version="1.1" width="192" height="194" viewBox="0 0 192 194">
<defs>
<path id="font_1_1" d="M.33399964 .30233766C.33999635 .32835389 .36299134 .42037965 .43299867 .42037965 .43798829 .42037965 .46199037 .42037965 .48298646 .40734864 .45498658 .402359 .43499757 .37734986 .43499757 .35334779 .43499757 .33735658 .44599916 .31835938 .47299195 .31835938 .49499513 .31835938 .5269928 .3363495 .5269928 .37635804 .5269928 .42837525 .46798707 .4423828 .43399049 .4423828 .37599183 .4423828 .34098817 .38935853 .32899476 .36634828 .3039856 .43237306 .25 .4423828 .22099304 .4423828 .116989139 .4423828 .05999756 .3133545 .05999756 .28834535 .05999756 .27833558 .069992069 .27833558 .07199097 .27833558 .07998657 .27833558 .08299255 .28033448 .084991458 .28933717 .11898804 .39535523 .18499756 .42037965 .21899414 .42037965 .23799134 .42037965 .272995 .4113617 .272995 .35334779 .272995 .32235719 .2559967 .25532533 .21899414 .11528015 .20298767 .053268434 .16799927 .011245728 .12399292 .011245728 .117996219 .011245728 .09498596 .011245728 .07398987 .024276734 .09899902 .029266358 .12098694 .05027771 .12098694 .07827759 .12098694 .105270389 .09899902 .11328125 .083999637 .11328125 .053985597 .11328125 .0289917 .08728027 .0289917 .055267335 .0289917 .009246826 .07899475-.0107421879 .12298584-.0107421879 .18899536-.0107421879 .22499085 .059280397 .22799683 .0652771 .23999024 .028274537 .27598573-.0107421879 .33599855-.0107421879 .43899537-.0107421879 .49598695 .118270877 .49598695 .14328003 .49598695 .1532898 .4869995 .1532898 .48399354 .1532898 .47499085 .1532898 .47299195 .14929199 .47099305 .14228821 .43798829 .03527832 .36999513 .011245728 .33799745 .011245728 .29899598 .011245728 .2829895 .043273927 .2829895 .07727051 .2829895 .09927368 .2889862 .121276859 .2999878 .16529846L.33399964 .30233766Z"/>
<path id="font_1_2" d="M.48599244 .38136292C.48999024 .39537049 .48999024 .39736939 .48999024 .40437318 .48999024 .42237855 .47599793 .43138124 .46099855 .43138124 .45098878 .43138124 .43499757 .42536927 .42599488 .41036988 .42399598 .405365 .41600038 .37435914 .4119873 .35635377 .40499879 .33035279 .397995 .30334474 .3919983 .27633668L.34700013 .09628296C.34298707 .08126831 .2999878 .011245728 .23399353 .011245728 .18299866 .011245728 .17199707 .055267335 .17199707 .0922699 .17199707 .1382904 .18899536 .20030213 .22299195 .28833009 .23899842 .3293457 .24299622 .3403473 .24299622 .36035157 .24299622 .405365 .21099854 .4423828 .16099549 .4423828 .06599426 .4423828 .0289917 .29733277 .0289917 .28833009 .0289917 .27833558 .038986207 .27833558 .040985109 .27833558 .050994874 .27833558 .051986696 .28033448 .056991579 .29634095 .083999637 .3903656 .12399292 .42037965 .1579895 .42037965 .1659851 .42037965 .18299866 .42037965 .18299866 .3883667 .18299866 .36335755 .17298889 .3373413 .1659851 .31834413 .12599182 .21231079 .10798645 .1552887 .10798645 .10827637 .10798645 .019256592 .17098999-.0107421879 .22999573-.0107421879 .2689972-.0107421879 .30299378 .0062561037 .33099366 .03425598 .31799317-.017745972 .30599977-.06674194 .2659912-.11973572 .23999024-.15385437 .20199585-.18309021 .1559906-.18309021 .14199829-.18309021 .09700012-.18005371 .07998657-.14074707 .09599304-.14074707 .10899353-.14074707 .12298584-.1287384 .1329956-.11973572 .14299011-.10673523 .14299011-.08773804 .14299011-.056747438 .115997318-.052734376 .10598755-.052734376 .08299255-.052734376 .049987794-.068740848 .049987794-.11773682 .049987794-.16796875 .09399414-.20507813 .1559906-.20507813 .25898744-.20507813 .3619995-.11373901 .3899994-.00074768069L.48599244 .38136292Z"/>
<path id="font_2_1" d="M.6589966 .23046875C.6759949 .23046875 .69400027 .23046875 .69400027 .25045777 .69400027 .27046205 .6759949 .27046205 .6589966 .27046205H.117996219C.100997928 .27046205 .08299255 .27046205 .08299255 .25045777 .08299255 .23046875 .100997928 .23046875 .117996219 .23046875H.6589966Z"/>
<path id="font_3_1" d="M.2939911 .16503906V.07800293C.2939911 .041992189 .2919922 .0309906 .21798706 .0309906H.19699097V0C.23799134 .0029907227 .2899933 .0029907227 .33198548 .0029907227 .37399293 .0029907227 .4269867 .0029907227 .46798707 0V.0309906H.44699098C.37298585 .0309906 .37098695 .041992189 .37098695 .07800293V.16503906H.47099305V.19602967H.37098695V.65075686C.37098695 .67074587 .37098695 .6767578 .35499574 .6767578 .34599305 .6767578 .34298707 .6767578 .33499146 .66474917L.027999878 .19602967V.16503906H.2939911M.2999878 .19602967H.055999757L.2999878 .5688019V.19602967Z"/>
</defs>
<path transform="matrix(1.00003,0,0,-1.00002,86.65616,107.111888)" stroke-width=".3985" stroke-linecap="butt" stroke-miterlimit="10" stroke-linejoin="miter" fill="none" stroke="#00aeef" d="M-85.04128-85.04128H85.04128M-85.04128-68.03302H85.04128M-85.04128-51.02477H85.04128M-85.04128-34.0165H85.04128M-85.04128-17.00824H85.04128M-85.04128 0H85.04128M-85.04128 17.00824H85.04128M-85.04128 34.0165H85.04128M-85.04128 51.02477H85.04128M-85.04128 68.03302H85.04128M-85.04128 85.0353H85.04128M-85.04128-85.04128V85.04128M-68.03302-85.04128V85.04128M-51.02477-85.04128V85.04128M-34.0165-85.04128V85.04128M-17.00824-85.04128V85.04128M0-85.04128V85.04128M17.00824-85.04128V85.04128M34.0165-85.04128V85.04128M51.02477-85.04128V85.04128M68.03302-85.04128V85.04128M85.0353-85.04128V85.04128M85.04128 85.04128"/>
<path transform="matrix(1.00003,0,0,-1.00002,86.65616,107.111888)" stroke-width=".79701" stroke-linecap="butt" stroke-miterlimit="10" stroke-linejoin="miter" fill="none" stroke="#000000" d="M-85.04128 0H93.81172"/>
<path transform="matrix(1.00003,0,0,-1.00002,180.4707,107.111888)" d="M1.0361 0C-.25902 .25902-1.55415 .77707-3.1083 1.68365-1.55415 .51805-1.55415-.51805-3.1083-1.68365-1.55415-.77707-.25902-.25902 1.0361 0Z"/>
<path transform="matrix(1.00003,0,0,-1.00002,180.4707,107.111888)" stroke-width=".79701" stroke-linecap="butt" stroke-linejoin="round" fill="none" stroke="#000000" d="M1.0361 0C-.25902 .25902-1.55415 .77707-3.1083 1.68365-1.55415 .51805-1.55415-.51805-3.1083-1.68365-1.55415-.77707-.25902-.25902 1.0361 0Z"/>
<use data-text="x" xlink:href="#font_1_1" transform="matrix(9.962899,0,0,-9.962799,185.62413,109.25693)"/>
<path transform="matrix(1.00003,0,0,-1.00002,86.65616,107.111888)" stroke-width=".79701" stroke-linecap="butt" stroke-miterlimit="10" stroke-linejoin="miter" fill="none" stroke="#000000" d="M0-85.04128V93.81172"/>
<path transform="matrix(0,-1.00002,-1.00003,-0,86.65616,13.298286)" d="M1.0361 0C-.25902 .25902-1.55415 .77707-3.1083 1.68365-1.55415 .51805-1.55415-.51805-3.1083-1.68365-1.55415-.77707-.25902-.25902 1.0361 0Z"/>
<path transform="matrix(0,-1.00002,-1.00003,-0,86.65616,13.298286)" stroke-width=".79701" stroke-linecap="butt" stroke-linejoin="round" fill="none" stroke="#000000" d="M1.0361 0C-.25902 .25902-1.55415 .77707-3.1083 1.68365-1.55415 .51805-1.55415-.51805-3.1083-1.68365-1.55415-.77707-.25902-.25902 1.0361 0Z"/>
<use data-text="y" xlink:href="#font_1_2" transform="matrix(9.962899,0,0,-9.962799,84.03508,6.2068636)"/>
<path transform="matrix(1.00003,0,0,-1.00002,86.65616,107.111888)" stroke-width=".3985" stroke-linecap="butt" stroke-miterlimit="10" stroke-linejoin="miter" fill="none" stroke="#000000" d="M-68.03302 1.70091V-1.70065"/>
<path transform="matrix(1.00003,0,0,-1.00002,86.65616,107.111888)" d="M-75.39442-13.13568H-60.67164V-3.8924504H-75.39442Z" fill="#ffffff"/>
<use data-text="&#x2212;" xlink:href="#font_2_1" transform="matrix(9.962899,0,0,-9.962799,12.25592,118.42111)"/>
<use data-text="4" xlink:href="#font_3_1" transform="matrix(9.962899,0,0,-9.962799,20.005143,118.42111)"/>
<path transform="matrix(1.00003,0,0,-1.00002,86.65616,107.111888)" stroke-width=".3985" stroke-linecap="butt" stroke-miterlimit="10" stroke-linejoin="miter" fill="none" stroke="#000000" d="M1.70091-68.03302H-1.70065"/>
<path transform="matrix(1.00003,0,0,-1.00002,86.65616,107.111888)" d="M-18.61523-72.65465H-3.8924504V-63.41142H-18.61523Z" fill="#ffffff"/>
<use data-text="&#x2212;" xlink:href="#font_2_1" transform="matrix(9.962899,0,0,-9.962799,69.03663,177.94132)"/>
<use data-text="4" xlink:href="#font_3_1" transform="matrix(9.962899,0,0,-9.962799,76.78585,177.94132)"/>
<path transform="matrix(1.00003,0,0,-1.00002,86.65616,107.111888)" stroke-width=".3985" stroke-linecap="butt" stroke-miterlimit="10" stroke-linejoin="miter" fill="none" stroke="#000000" d="M68.03302 1.70091V-1.70065"/>
<path transform="matrix(1.00003,0,0,-1.00002,86.65616,107.111888)" d="M64.54605-12.30545H71.51999V-3.8924704H64.54605Z" fill="#ffffff"/>
<use data-text="4" xlink:href="#font_3_1" transform="matrix(9.962899,0,0,-9.962799,152.20014,118.42111)"/>
<path transform="matrix(1.00003,0,0,-1.00002,86.65616,107.111888)" stroke-width=".3985" stroke-linecap="butt" stroke-miterlimit="10" stroke-linejoin="miter" fill="none" stroke="#000000" d="M1.70091 68.03302H-1.70065"/>
<path transform="matrix(1.00003,0,0,-1.00002,86.65616,107.111888)" d="M-10.8664 63.82654H-3.8924599V72.239528H-10.8664Z" fill="#ffffff"/>
<use data-text="4" xlink:href="#font_3_1" transform="matrix(9.962899,0,0,-9.962799,76.78586,42.28759)"/>
<path transform="matrix(1.00003,0,0,-1.00002,86.65616,107.111888)" stroke-width=".79701" stroke-linecap="butt" stroke-miterlimit="10" stroke-linejoin="miter" fill="none" stroke="#ff0000" d="M51.02477 0C51.02477 9.39351 28.18056 17.00824 0 17.00824-28.18056 17.00824-51.02477 9.39351-51.02477 0-51.02477-9.39351-28.18056-17.00824 0-17.00824 28.18056-17.00824 51.02477-9.39351 51.02477 0ZM0 0"/>
</svg>
