<svg xmlns="http://www.w3.org/2000/svg" xmlns:xlink="http://www.w3.org/1999/xlink" version="1.1" width="207" height="200" viewBox="0 0 207 200">
<defs>
<path id="font_1_2" d="M.33399964 .30233766C.33999635 .32835389 .36299134 .42037965 .43299867 .42037965 .43798829 .42037965 .46199037 .42037965 .48298646 .40734864 .45498658 .402359 .43499757 .37734986 .43499757 .35334779 .43499757 .33735658 .44599916 .31835938 .47299195 .31835938 .49499513 .31835938 .5269928 .3363495 .5269928 .37635804 .5269928 .42837525 .46798707 .4423828 .43399049 .4423828 .37599183 .4423828 .34098817 .38935853 .32899476 .36634828 .3039856 .43237306 .25 .4423828 .22099304 .4423828 .116989139 .4423828 .05999756 .3133545 .05999756 .28834535 .05999756 .27833558 .069992069 .27833558 .07199097 .27833558 .07998657 .27833558 .08299255 .28033448 .084991458 .28933717 .11898804 .39535523 .18499756 .42037965 .21899414 .42037965 .23799134 .42037965 .272995 .4113617 .272995 .35334779 .272995 .32235719 .2559967 .25532533 .21899414 .11528015 .20298767 .053268434 .16799927 .011245728 .12399292 .011245728 .117996219 .011245728 .09498596 .011245728 .07398987 .024276734 .09899902 .029266358 .12098694 .05027771 .12098694 .07827759 .12098694 .105270389 .09899902 .11328125 .083999637 .11328125 .053985597 .11328125 .0289917 .08728027 .0289917 .055267335 .0289917 .009246826 .07899475-.0107421879 .12298584-.0107421879 .18899536-.0107421879 .22499085 .059280397 .22799683 .0652771 .23999024 .028274537 .27598573-.0107421879 .33599855-.0107421879 .43899537-.0107421879 .49598695 .118270877 .49598695 .14328003 .49598695 .1532898 .4869995 .1532898 .48399354 .1532898 .47499085 .1532898 .47299195 .14929199 .47099305 .14228821 .43798829 .03527832 .36999513 .011245728 .33799745 .011245728 .29899598 .011245728 .2829895 .043273927 .2829895 .07727051 .2829895 .09927368 .2889862 .121276859 .2999878 .16529846L.33399964 .30233766Z"/>
<path id="font_1_3" d="M.48599244 .38136292C.48999024 .39537049 .48999024 .39736939 .48999024 .40437318 .48999024 .42237855 .47599793 .43138124 .46099855 .43138124 .45098878 .43138124 .43499757 .42536927 .42599488 .41036988 .42399598 .405365 .41600038 .37435914 .4119873 .35635377 .40499879 .33035279 .397995 .30334474 .3919983 .27633668L.34700013 .09628296C.34298707 .08126831 .2999878 .011245728 .23399353 .011245728 .18299866 .011245728 .17199707 .055267335 .17199707 .0922699 .17199707 .1382904 .18899536 .20030213 .22299195 .28833009 .23899842 .3293457 .24299622 .3403473 .24299622 .36035157 .24299622 .405365 .21099854 .4423828 .16099549 .4423828 .06599426 .4423828 .0289917 .29733277 .0289917 .28833009 .0289917 .27833558 .038986207 .27833558 .040985109 .27833558 .050994874 .27833558 .051986696 .28033448 .056991579 .29634095 .083999637 .3903656 .12399292 .42037965 .1579895 .42037965 .1659851 .42037965 .18299866 .42037965 .18299866 .3883667 .18299866 .36335755 .17298889 .3373413 .1659851 .31834413 .12599182 .21231079 .10798645 .1552887 .10798645 .10827637 .10798645 .019256592 .17098999-.0107421879 .22999573-.0107421879 .2689972-.0107421879 .30299378 .0062561037 .33099366 .03425598 .31799317-.017745972 .30599977-.06674194 .2659912-.11973572 .23999024-.15385437 .20199585-.18309021 .1559906-.18309021 .14199829-.18309021 .09700012-.18005371 .07998657-.14074707 .09599304-.14074707 .10899353-.14074707 .12298584-.1287384 .1329956-.11973572 .14299011-.10673523 .14299011-.08773804 .14299011-.056747438 .115997318-.052734376 .10598755-.052734376 .08299255-.052734376 .049987794-.068740848 .049987794-.11773682 .049987794-.16796875 .09399414-.20507813 .1559906-.20507813 .25898744-.20507813 .3619995-.11373901 .3899994-.00074768069L.48599244 .38136292Z"/>
<path id="font_2_5" d="M.44898988 .20022583C.44898988 .3193512 .36698915 .41944886 .25898744 .41944886 .21099854 .41944886 .16799927 .40345765 .13198853 .36842347V.5637665C.1519928 .5577698 .18499756 .55078127 .21699524 .55078127 .33999635 .55078127 .4099884 .6417694 .4099884 .6547699 .4099884 .6607666 .40699769 .6657715 .3999939 .6657715 .39898683 .6657715 .39698792 .6657715 .3919983 .66278079 .37199403 .6537781 .32299806 .6337738 .2559967 .6337738 .21598816 .6337738 .16999817 .6407776 .12298584 .6617737 .114990238 .66477969 .11299133 .66477969 .11099243 .66477969 .100997928 .66477969 .100997928 .6567688 .100997928 .6407776V.34439088C.100997928 .32637025 .100997928 .31835938 .114990238 .31835938 .12199402 .31835938 .12399292 .32136537 .12799073 .32736207 .13899231 .3433838 .17599488 .39746095 .25698854 .39746095 .30899049 .39746095 .33399964 .35139466 .34199525 .33337403 .35798646 .29632569 .3600006 .25727845 .3600006 .20722962 .3600006 .17222595 .3600006 .11222839 .33599855 .07035828 .31199647 .031463624 .2749939 .0055389406 .22898865 .0055389406 .1559906 .0055389406 .09899902 .058380128 .08198547 .11723328 .084991458 .1162262 .08799744 .115234378 .09899902 .115234378 .13198853 .115234378 .14898682 .14022827 .14898682 .16423035 .14898682 .18823242 .13198853 .21322632 .09899902 .21322632 .084991458 .21322632 .049987794 .20622254 .049987794 .16023255 .049987794 .07434082 .11898804-.022460938 .23098755-.022460938 .34700013-.022460938 .44898988 .073349 .44898988 .20022583Z"/>
<path id="font_2_4" d="M.2939911 .64004519C.2939911 .66400149 .2939911 .6660156 .2709961 .6660156 .20899964 .60227969 .12098694 .60227969 .08898926 .60227969V.57128909C.10899353 .57128909 .16799927 .57128909 .21998596 .5972748V.07902527C.21998596 .042999269 .21699524 .0309906 .1269989 .0309906H.09498596V0C.12998963 .0029907227 .21699524 .0029907227 .25698854 .0029907227 .29699708 .0029907227 .38398744 .0029907227 .4189911 0V.0309906H.3869934C.29699708 .0309906 .2939911 .041992189 .2939911 .07902527V.64004519Z"/>
<path id="font_2_3" d="M.45999146 .31976319C.45999146 .39982606 .45498658 .47988893 .41999818 .5539398 .37399293 .65000918 .2919922 .6660156 .25 .6660156 .18998719 .6660156 .116989139 .64001467 .07598877 .54693606 .04399109 .47789 .038986207 .39982606 .038986207 .31976319 .038986207 .24472046 .042999269 .15464783 .083999637 .07859802 .1269989-.0024719239 .19999695-.022460938 .24899292-.022460938 .30299378-.022460938 .3789978-.0014648438 .4229889 .09359741 .45498658 .16265869 .45999146 .2407074 .45999146 .31976319M.24899292-.00047302247C.20999146-.00047302247 .15098572 .024551392 .1329956 .12062073 .12199402 .18066406 .12199402 .2727356 .12199402 .3317871 .12199402 .39582826 .12199402 .46188355 .12998963 .5159149 .14898682 .63500979 .22399903 .64401248 .24899292 .64401248 .28199769 .64401248 .34799195 .6259918 .36698915 .52693179 .3769989 .47088624 .3769989 .39482118 .3769989 .3317871 .3769989 .25672914 .3769989 .18867493 .3659973 .12461853 .35099793 .029556275 .2939911-.00047302247 .24899292-.00047302247Z"/>
<path id="font_2_6" d="M.68699648 .32714845C.70199587 .32714845 .72099307 .32714845 .72099307 .34713746 .72099307 .36714173 .70199587 .36714173 .6879883 .36714173H.08898926C.07499695 .36714173 .055999757 .36714173 .055999757 .34713746 .055999757 .32714845 .07499695 .32714845 .08999634 .32714845H.68699648M.6879883 .13284302C.70199587 .13284302 .72099307 .13284302 .72099307 .15284729 .72099307 .17285156 .70199587 .17285156 .68699648 .17285156H.08999634C.07499695 .17285156 .055999757 .17285156 .055999757 .15284729 .055999757 .13284302 .07499695 .13284302 .08898926 .13284302H.6879883Z"/>
<path id="font_1_1" d="M.18699646 .23144531C.21598816 .23144531 .2899933 .23344422 .33999635 .2544403 .4099884 .28442384 .4149933 .34339906 .4149933 .35740663 .4149933 .40138246 .3769989 .4423828 .30799867 .4423828 .19699097 .4423828 .04598999 .34539796 .04598999 .17037964 .04598999 .06829834 .10499573-.0107421879 .20298767-.0107421879 .34599305-.0107421879 .42999269 .095321658 .42999269 .10733032 .42999269 .113342288 .42399598 .12034607 .41799928 .12034607 .41299439 .12034607 .41099549 .11834717 .40499879 .1103363 .32598878 .011245728 .21699524 .011245728 .20498657 .011245728 .1269989 .011245728 .117996219 .095321658 .117996219 .12734986 .117996219 .13935852 .11898804 .17037964 .13398743 .23144531H.18699646M.13999939 .25343324C.1789856 .40538026 .28199769 .42037965 .30799867 .42037965 .35499574 .42037965 .38198854 .39138795 .38198854 .35740663 .38198854 .25343324 .22200012 .25343324 .18099976 .25343324H.13999939Z"/>
<path id="font_3_1" d="M.24899292 .10601807C.23899842 .072021488 .20599365 .018234253 .15499878 .018234253 .1519928 .018234253 .12199402 .018234253 .100997928 .03215027 .14199829 .04508972 .14498902 .08100891 .14498902 .087020877 .14498902 .10900879 .12799073 .12402344 .10499573 .12402344 .07699585 .12402344 .04798889 .10002136 .04798889 .0630188 .04798889 .01322937 .10398865-.009765625 .15299988-.009765625 .19898987-.009765625 .23999024 .019226075 .2649994 .061019899 .2889862 .008224487 .34399415-.009765625 .38398744-.009765625 .49899293-.009765625 .55999758 .11502075 .55999758 .14305115 .55999758 .15608216 .5469971 .15608216 .5439911 .15608216 .5299988 .15608216 .5289917 .15107727 .5249939 .13905335 .5039978 .07002258 .44400025 .018234253 .3880005 .018234253 .34799195 .018234253 .32699586 .04508972 .32699586 .08302307 .32699586 .10900879 .35099793 .20018006 .3789978 .31140138 .39898683 .38841249 .44400025 .4133911 .47698976 .4133911 .47898866 .4133911 .5099945 .4133911 .5309906 .39941407 .49899293 .39041139 .4869995 .3624115 .4869995 .34440614 .4869995 .32240296 .5039978 .30740357 .5269928 .30740357 .5499878 .30740357 .58299258 .32640077 .58299258 .3684082 .58299258 .4243927 .5189972 .44140626 .47898866 .44140626 .42900086 .44140626 .3889923 .4084015 .36698915 .3704071 .34899903 .4113922 .30299378 .44140626 .24699402 .44140626 .1349945 .44140626 .070999149 .31840516 .070999149 .2883606 .070999149 .27534486 .084991458 .27534486 .08799744 .27534486 .100997928 .27534486 .101989749 .27934266 .10699463 .29237367 .13198853 .3704071 .19499207 .4133911 .24398804 .4133911 .2769928 .4133911 .3039856 .395401 .3039856 .3474121 .3039856 .32740785 .2919922 .27734376 .2829895 .24327088L.24899292 .10601807Z"/>
<path id="font_2_7" d="M.1769867 .69433596 .032989503 .68333438V.6523285C.102996829 .6523285 .11099243 .6453247 .11099243 .5962982V.07601929C.11099243 .0309906 .099990848 .0309906 .032989503 .0309906V0C.06599426 .0009918213 .11898804 .0029907227 .14399719 .0029907227 .16899109 .0029907227 .21798706 .0009918213 .25498963 0V.0309906C.18798828 .0309906 .1769867 .0309906 .1769867 .07601929V.69433596Z"/>
<path id="font_2_8" d="M.10998535 .34429933V.076034549C.10998535 .0309906 .09899902 .0309906 .03199768 .0309906V0C.066986087 .0009918213 .117996219 .0029907227 .14498902 .0029907227 .17098999 .0029907227 .22299195 .0009918213 .25698854 0V.0309906C.18998719 .0309906 .1789856 .0309906 .1789856 .076034549V.2602234C.1789856 .36431886 .25 .42037965 .31399537 .42037965 .3769989 .42037965 .3880005 .36631776 .3880005 .30926515V.076034549C.3880005 .0309906 .3769989 .0309906 .30999757 .0309906V0C.34498597 .0009918213 .3959961 .0029907227 .4229889 .0029907227 .44898988 .0029907227 .5009918 .0009918213 .5349884 0V.0309906C.48298646 .0309906 .45799256 .0309906 .45700074 .061019899V.25221253C.45700074 .3383026 .45700074 .36932374 .42599488 .405365 .4119873 .42237855 .3789978 .4423828 .32099916 .4423828 .24798584 .4423828 .20098877 .39935304 .17298889 .33729554V.4423828L.03199768 .43138124V.40037538C.101989749 .4003601 .10998535 .39335633 .10998535 .34429933Z"/>
<path id="font_2_1" d="M.33099366-.2400055C.33099366-.23701477 .33099366-.23500061 .31399537-.21800232 .18899536-.0920105 .15699768 .09700012 .15699768 .25 .15699768 .42399598 .19499207 .59799197 .31799317 .72299197 .33099366 .73498538 .33099366 .7369995 .33099366 .73999026 .33099366 .746994 .32699586 .75 .32099916 .75 .31098939 .75 .22099304 .6819916 .1619873 .5549927 .11099243 .44499208 .09899902 .33399964 .09899902 .25 .09899902 .17199707 .10998535 .050994874 .16499329-.06201172 .22499085-.18501282 .31098939-.25 .32099916-.25 .32699586-.25 .33099366-.24700928 .33099366-.2400055Z"/>
<path id="font_2_2" d="M.2889862 .25C.2889862 .32798768 .27799989 .44898988 .22299195 .56199648 .16299439 .68499758 .07699585 .75 .066986087 .75 .06098938 .75 .056991579 .74598696 .056991579 .73999026 .056991579 .7369995 .056991579 .73498538 .07598877 .71699526 .17399597 .6179962 .23098755 .45899964 .23098755 .25 .23098755 .07899475 .19400025-.09700012 .069992069-.2230072 .056991579-.23500061 .056991579-.23701477 .056991579-.2400055 .056991579-.2460022 .06098938-.25 .066986087-.25 .07699585-.25 .16699219-.18200684 .22599793-.055007936 .2769928 .054992677 .2889862 .16600037 .2889862 .25Z"/>
</defs>
<path transform="matrix(1,0,0,-1.00003,52.317995,147.08203)" stroke-width=".3985" stroke-linecap="butt" stroke-miterlimit="10" stroke-linejoin="miter" fill="none" stroke="#cbcbcb" d="M-51.0239-51.0239H127.55977M-51.0239-38.26791H127.55977M-51.0239-25.51193H127.55977M-51.0239-12.75595H127.55977M-51.0239 0H127.55977M-51.0239 12.75595H127.55977M-51.0239 25.51193H127.55977M-51.0239 38.26791H127.55977M-51.0239 51.0239H127.55977M-51.0239 63.77988H127.55977M-51.0239 76.53586H127.55977M-51.0239 89.29184H127.55977M-51.0239 102.0478H127.55977M-51.0239 114.80379H127.55977M-51.0239 127.55528H127.55977M-51.0239-51.0239V127.55977M-38.26791-51.0239V127.55977M-25.51193-51.0239V127.55977M-12.75595-51.0239V127.55977M0-51.0239V127.55977M12.75595-51.0239V127.55977M25.51193-51.0239V127.55977M38.26791-51.0239V127.55977M51.0239-51.0239V127.55977M63.77988-51.0239V127.55977M76.53586-51.0239V127.55977M89.29184-51.0239V127.55977M102.0478-51.0239V127.55977M114.80379-51.0239V127.55977M127.55528-51.0239V127.55977M127.55977 127.55977"/>
<path transform="matrix(1,0,0,-1.00003,52.317995,147.08203)" stroke-width=".79701" stroke-linecap="butt" stroke-miterlimit="10" stroke-linejoin="miter" fill="none" stroke="#000000" d="M-51.0239 0H133.77881"/>
<path transform="matrix(1,0,0,-1.00003,186.0968,147.08203)" d="M1.0361 0C-.25902 .25902-1.55415 .77707-3.1083 1.68365-1.55415 .51805-1.55415-.51805-3.1083-1.68365-1.55415-.77707-.25902-.25902 1.0361 0Z"/>
<path transform="matrix(1,0,0,-1.00003,186.0968,147.08203)" stroke-width=".79701" stroke-linecap="butt" stroke-linejoin="round" fill="none" stroke="#000000" d="M1.0361 0C-.25902 .25902-1.55415 .77707-3.1083 1.68365-1.55415 .51805-1.55415-.51805-3.1083-1.68365-1.55415-.77707-.25902-.25902 1.0361 0Z"/>
<use data-text="x" xlink:href="#font_1_2" transform="matrix(9.9626,0,0,-9.962899,191.25099,149.2271)"/>
<path transform="matrix(1,0,0,-1.00003,52.317995,147.08203)" stroke-width=".79701" stroke-linecap="butt" stroke-miterlimit="10" stroke-linejoin="miter" fill="none" stroke="#000000" d="M0-51.0239V133.77881"/>
<path transform="matrix(0,-1.00003,-1,-0,52.317995,13.29921)" d="M1.0361 0C-.25902 .25902-1.55415 .77707-3.1083 1.68365-1.55415 .51805-1.55415-.51805-3.1083-1.68365-1.55415-.77707-.25902-.25902 1.0361 0Z"/>
<path transform="matrix(0,-1.00003,-1,-0,52.317995,13.29921)" stroke-width=".79701" stroke-linecap="butt" stroke-linejoin="round" fill="none" stroke="#000000" d="M1.0361 0C-.25902 .25902-1.55415 .77707-3.1083 1.68365-1.55415 .51805-1.55415-.51805-3.1083-1.68365-1.55415-.77707-.25902-.25902 1.0361 0Z"/>
<use data-text="y" xlink:href="#font_1_3" transform="matrix(9.9626,0,0,-9.962899,49.69699,6.2078096)"/>
<path transform="matrix(1,0,0,-1.00003,52.317995,147.08203)" stroke-width=".3985" stroke-linecap="butt" stroke-miterlimit="10" stroke-linejoin="miter" fill="none" stroke="#000000" d="M63.77988 1.27565V-1.27547"/>
<path transform="matrix(1,0,0,-1.00003,52.317995,147.08203)" d="M60.29291-10.88399H67.26685V-2.4710103H60.29291Z" fill="#ffffff"/>
<use data-text="5" xlink:href="#font_2_5" transform="matrix(9.9626,0,0,-9.962899,113.606998,156.97032)"/>
<path transform="matrix(1,0,0,-1.00003,52.317995,147.08203)" stroke-width=".3985" stroke-linecap="butt" stroke-miterlimit="10" stroke-linejoin="miter" fill="none" stroke="#000000" d="M127.55977 1.27565V-1.27547"/>
<path transform="matrix(1,0,0,-1.00003,52.317995,147.08203)" d="M121.58209-10.88399H133.53743V-2.4710103H121.58209Z" fill="#ffffff"/>
<use data-text="1" xlink:href="#font_2_4" transform="matrix(9.9626,0,0,-9.962899,174.896,156.97032)"/>
<use data-text="0" xlink:href="#font_2_3" transform="matrix(9.9626,0,0,-9.962899,179.87729,156.97032)"/>
<path transform="matrix(1,0,0,-1.00003,52.317995,147.08203)" stroke-width=".3985" stroke-linecap="butt" stroke-miterlimit="10" stroke-linejoin="miter" fill="none" stroke="#000000" d="M1.27565 63.77988H-1.27547"/>
<path transform="matrix(1,0,0,-1.00003,52.317995,147.08203)" d="M-12.43376 58.5771H-3.46727V68.98263H-12.43376Z" fill="#ffffff"/>
<use data-text="5" xlink:href="#font_2_5" transform="matrix(9.9626,0,0,-9.962899,41.87699,86.51021)"/>
<path transform="matrix(1,0,0,-1.00003,52.317995,147.08203)" stroke-width=".3985" stroke-linecap="butt" stroke-miterlimit="10" stroke-linejoin="miter" fill="none" stroke="#000000" d="M1.27565 127.55977H-1.27547"/>
<path transform="matrix(1,0,0,-1.00003,52.317995,147.08203)" d="M-17.41518 122.357H-3.46729V132.76253H-17.41518Z" fill="#ffffff"/>
<use data-text="1" xlink:href="#font_2_4" transform="matrix(9.9626,0,0,-9.962899,36.89499,22.728295)"/>
<use data-text="0" xlink:href="#font_2_3" transform="matrix(9.9626,0,0,-9.962899,41.87628,22.728295)"/>
<path transform="matrix(1,0,0,-1.00003,52.317995,147.08203)" stroke-width=".79701" stroke-linecap="butt" stroke-dasharray="2.98883,2.98883" stroke-miterlimit="10" stroke-linejoin="miter" fill="none" stroke="#515151" d="M-50.00949-50.00949 126.54535 126.54535"/>
<path transform="matrix(-.7071,.7071212,.7071,.7071212,2.3085137,197.09302)" d="M1.0361 0C-.25902 .25902-1.55415 .77707-3.1083 1.68365-1.55415 .51805-1.55415-.51805-3.1083-1.68365-1.55415-.77707-.25902-.25902 1.0361 0Z" fill="#515151"/>
<path transform="matrix(-.7071,.7071212,.7071,.7071212,2.3085137,197.09302)" stroke-width=".79701" stroke-linecap="butt" stroke-linejoin="round" fill="none" stroke="#515151" d="M1.0361 0C-.25902 .25902-1.55415 .77707-3.1083 1.68365-1.55415 .51805-1.55415-.51805-3.1083-1.68365-1.55415-.77707-.25902-.25902 1.0361 0Z"/>
<path transform="matrix(.7071,-.7071212,-.7071,-.7071212,178.86331,20.532906)" d="M1.0361 0C-.25902 .25902-1.55415 .77707-3.1083 1.68365-1.55415 .51805-1.55415-.51805-3.1083-1.68365-1.55415-.77707-.25902-.25902 1.0361 0Z" fill="#515151"/>
<path transform="matrix(.7071,-.7071212,-.7071,-.7071212,178.86331,20.532906)" stroke-width=".79701" stroke-linecap="butt" stroke-linejoin="round" fill="none" stroke="#515151" d="M1.0361 0C-.25902 .25902-1.55415 .77707-3.1083 1.68365-1.55415 .51805-1.55415-.51805-3.1083-1.68365-1.55415-.77707-.25902-.25902 1.0361 0Z"/>
<path transform="matrix(1,0,0,-1.00003,52.317995,147.08203)" d="M113.45741 99.94138H141.6621V110.15318H113.45741Z" fill="#ffffff"/>
<use data-text="y" xlink:href="#font_1_3" transform="matrix(9.9626,0,0,-9.962899,167.76799,43.20791)" fill="#515151"/>
<use data-text="=" xlink:href="#font_2_6" transform="matrix(9.9626,0,0,-9.962899,175.77799,43.20791)" fill="#515151"/>
<use data-text="x" xlink:href="#font_1_2" transform="matrix(9.9626,0,0,-9.962899,186.29399,43.20791)" fill="#515151"/>
<path transform="matrix(1,0,0,-1.00003,52.317995,147.08203)" stroke-width=".79701" stroke-linecap="butt" stroke-miterlimit="10" stroke-linejoin="miter" fill="none" stroke="#0000ff" d="M-49.5896 .26053C-50.11641 .25064-50.11641 .25064-49.76788 .25768-49.41934 .26474-48.8604 .27658-48.51186 .28435-48.16333 .29213-47.60439 .30524-47.25584 .31375-46.9073 .32225-46.34836 .3363-45.99983 .34567-45.65129 .35504-45.09235 .37083-44.7438 .38127-44.39528 .39174-43.83632 .40945-43.4878 .42099-43.13925 .43253-42.5803 .45166-42.23177 .4644-41.88324 .47714-41.3243 .4987-40.97575 .51286-40.62721 .527-40.06827 .55084-39.71974 .56639-39.37122 .58194-38.81226 .6078-38.46371 .62497-38.11519 .64214-37.55624 .67122-37.2077 .69017-36.85916 .70914-36.30022 .7409-35.9517 .76161-35.60316 .78232-35.0442 .81647-34.69566 .83946-34.34712 .86247-33.7882 .90196-33.43967 .92744-33.09113 .95293-32.53217 .99524-32.18364 1.02321-31.83511 1.05118-31.27617 1.09831-30.92763 1.12909-30.57909 1.15987-30.02014 1.21114-29.67162 1.2451-29.32307 1.27907-28.76413 1.33623-28.41559 1.37395-28.06706 1.41167-27.5081 1.47539-27.15958 1.51701-26.81104 1.55862-26.25209 1.62807-25.90355 1.6739-25.55502 1.71971-24.99608 1.79668-24.64754 1.8473-24.299 1.89795-23.74005 1.98308-23.39153 2.03883-23.04298 2.09462-22.48404 2.18765-22.1355 2.24925-21.78697 2.31085-21.22803 2.41486-20.87949 2.48282-20.53094 2.5508-19.972 2.66428-19.62346 2.73917-19.27495 2.81404-18.71599 2.93985-18.36745 3.02255-18.0189 3.10526-17.45996 3.24382-17.11145 3.33516-16.76291 3.42648-16.20395 3.57994-15.85541 3.68083-15.5069 3.78171-14.94794 3.95116-14.5994 4.06233-14.25085 4.17351-13.69191 4.35948-13.3434 4.48218-12.99486 4.60486-12.4359 4.81114-12.08736 4.94658-11.73885 5.08202-11.17989 5.30905-10.83136 5.4583-10.48282 5.60753-9.92387 5.85738-9.57533 6.02217-9.2268 6.18695-8.66786 6.46399-8.31932 6.646-7.97078 6.82797-7.41183 7.1331-7.06331 7.33385-6.71477 7.5346-6.15582 7.8715-5.80728 8.09294-5.45876 8.31439-4.8998 8.68561-4.55127 8.9299-4.20273 9.17421-3.64378 9.58405-3.29524 9.85367-2.94672 10.12329-2.38777 10.57559-2.03923 10.8732-1.69069 11.1708-1.13174 11.67062-.78322 11.99861-.43468 12.3266 .12422 12.87523 .47276 13.23712 .82129 13.599 1.38023 14.20709 1.72878 14.6068 2.07732 15.00652 2.63626 15.67688 2.98479 16.118 3.33333 16.5591 3.89227 17.29936 4.24081 17.78606 4.58936 18.27275 5.1483 19.08876 5.49683 19.62581 5.84537 20.16284 6.40431 21.064 6.75285 21.6567 7.10138 22.24937 7.66032 23.2436 8.00887 23.89758 8.3574 24.55157 8.91635 25.64845 9.26488 26.3701 9.61342 27.09177 10.17236 28.30243 10.5209 29.09879 10.86943 29.89513 11.42839 31.23102 11.77692 32.10966 12.12546 32.98834 12.6844 34.46193 13.03294 35.43161 13.38147 36.40128 13.94041 38.02834 14.28896 39.09845 14.63748 40.16856 15.19644 41.96352 15.54497 43.14426 15.89351 44.32498 16.45244 46.3056 16.80098 47.60834 17.1495 48.91109 17.70847 51.09593 18.05699 52.53352 18.40553 53.9711 18.9645 56.3829 19.31303 57.96945 19.66156 59.55602 20.22049 62.21773 20.56903 63.96829 20.91757 65.71884 21.47653 68.65468 21.82504 70.58626 22.17358 72.51784 22.73253 75.75807 23.08107 77.88977 23.4296 80.02145 23.98854 83.59781 24.33708 85.95003 24.68562 88.30226 25.24457 92.24744 25.5931 94.84297 25.94164 97.43854 26.50058 101.79276 26.84912 104.65697 27.19765 107.52116 27.7566 112.32555 28.10513 115.4862 28.45367 118.64684 29.36116 127.43675 29.21387 126.00978"/>
<path transform="matrix(-.99979,.018800565,.0188,.99982008,2.7284127,146.82149)" d="M1.0361 0C-.25902 .25902-1.55415 .77707-3.1083 1.68365-1.55415 .51805-1.55415-.51805-3.1083-1.68365-1.55415-.77707-.25902-.25902 1.0361 0Z" fill="#0000ff"/>
<path transform="matrix(-.99979,.018800565,.0188,.99982008,2.7284127,146.82149)" stroke-width=".79701" stroke-linecap="butt" stroke-linejoin="round" fill="none" stroke="#0000ff" d="M1.0361 0C-.25902 .25902-1.55415 .77707-3.1083 1.68365-1.55415 .51805-1.55415-.51805-3.1083-1.68365-1.55415-.77707-.25902-.25902 1.0361 0Z"/>
<path transform="matrix(.10268,-.99469986,-.99467,-.10268308,81.531848,21.068467)" d="M1.0361 0C-.25902 .25902-1.55415 .77707-3.1083 1.68365-1.55415 .51805-1.55415-.51805-3.1083-1.68365-1.55415-.77707-.25902-.25902 1.0361 0Z" fill="#0000ff"/>
<path transform="matrix(.10268,-.99469986,-.99467,-.10268308,81.531848,21.068467)" stroke-width=".79701" stroke-linecap="butt" stroke-linejoin="round" fill="none" stroke="#0000ff" d="M1.0361 0C-.25902 .25902-1.55415 .77707-3.1083 1.68365-1.55415 .51805-1.55415-.51805-3.1083-1.68365-1.55415-.77707-.25902-.25902 1.0361 0Z"/>
<use data-text="y" xlink:href="#font_1_3" transform="matrix(9.9626,0,0,-9.962899,67.58899,13.985031)" fill="#0000ff"/>
<use data-text="=" xlink:href="#font_2_6" transform="matrix(9.9626,0,0,-9.962899,75.59898,13.985031)" fill="#0000ff"/>
<use data-text="e" xlink:href="#font_1_1" transform="matrix(9.9626,0,0,-9.962899,86.11499,13.985031)" fill="#0000ff"/>
<use data-text="x" xlink:href="#font_3_1" transform="matrix(6.9738,0,0,-6.9740097,90.754,10.369919)" fill="#0000ff"/>
<path transform="matrix(1,0,0,-1.00003,52.317995,147.08203)" stroke-width=".79701" stroke-linecap="butt" stroke-miterlimit="10" stroke-linejoin="miter" fill="none" stroke="#ff0000" d="M.32098-49.43536C1.67091-27.3296 1.67091-27.3296 2.22298-22.23282 2.77502-17.13603 3.66034-15.94133 4.2124-14.13304 4.76447-12.32475 5.64977-10.37692 6.20183-9.19987 6.75388-8.02283 7.63919-6.52698 8.19124-5.64963 8.7433-4.77228 9.6286-3.57713 10.18066-2.87659 10.73273-2.17603 11.61804-1.18425 12.17009-.60043 12.72215-.01663 13.60745 .83038 14.15952 1.33113 14.71156 1.83188 15.5969 2.5702 16.14893 3.00854 16.70099 3.44687 17.5863 4.10065 18.13835 4.49034 18.69041 4.88004 19.57573 5.46628 20.12779 5.81721 20.67984 6.16815 21.56516 6.70055 22.1172 7.0197 22.66927 7.33885 23.55458 7.82462 24.10663 8.11746 24.65869 8.41032 25.54399 8.85985 26.09605 9.13037 26.6481 9.40092 27.53342 9.81628 28.08548 10.06738 28.63754 10.31848 29.52284 10.70567 30.0749 10.94016 30.62697 11.17465 31.51227 11.53755 32.06433 11.75745 32.61638 11.97736 33.5017 12.31807 34.05374 12.52512 34.6058 12.73216 35.49112 13.05424 36.04317 13.24976 36.59523 13.44528 37.48053 13.74913 38.0326 13.93431 38.58466 14.11948 39.46997 14.40837 40.02202 14.58443 40.57407 14.76045 41.4594 15.03539 42.01143 15.20317 42.56349 15.37097 43.4488 15.63371 44.00087 15.7937 44.55292 15.95372 45.43823 16.20335 45.9903 16.35643 46.54234 16.50949 47.42766 16.75003 47.97972 16.89694 48.53177 17.04385 49.41708 17.27403 49.96913 17.41527 50.52118 17.5565 51.4065 17.77913 51.95856 17.91492 52.51062 18.0507 53.39592 18.26337 53.94798 18.39394 54.50005 18.5245 55.38535 18.73004 55.93741 18.85599 56.48947 18.98196 57.37477 19.1801 57.92683 19.30173 58.47888 19.42336 59.36421 19.61511 59.91624 19.73267 60.4683 19.85022 61.3536 20.03526 61.90567 20.149 62.45773 20.26274 63.34305 20.44226 63.89511 20.55249 64.44716 20.66272 65.33247 20.83661 65.88452 20.94353 66.43657 21.05045 67.3219 21.21933 67.87395 21.32307 68.426 21.42683 69.31131 21.5905 69.86337 21.69133 70.41542 21.79218 71.30074 21.95183 71.85278 22.04987 72.40485 22.14789 73.29016 22.30255 73.84222 22.39787 74.39427 22.49321 75.27959 22.6441 75.83163 22.73695 76.38368 22.82979 77.269 22.97661 77.82106 23.06706 78.37312 23.1575 79.25842 23.30057 79.81049 23.3888 80.36255 23.47702 81.24785 23.61685 81.79991 23.70294 82.35197 23.78903 83.23727 23.92525 83.78932 24.00931 84.34138 24.09338 85.2267 24.22673 85.77875 24.30887 86.33081 24.39099 87.21611 24.52087 87.76817 24.60121 88.32024 24.68155 89.20555 24.80939 89.7576 24.88791 90.30966 24.96645 91.19498 25.0907 91.74702 25.16724 92.29907 25.24376 93.1844 25.36458 93.73645 25.43953 94.2885 25.51448 95.17381 25.63385 95.72586 25.70735 96.27792 25.78085 97.16324 25.8973 97.7153 25.96933 98.26736 26.0414 99.15266 26.15582 99.70473 26.22665 100.25676 26.2975 101.14209 26.41034 101.69414 26.47989 102.2462 26.54942 103.1315 26.65984 103.68356 26.72786 104.23563 26.79588 105.12093 26.90355 105.67299 26.97018 106.22505 27.0368 107.11035 27.14265 107.66241 27.20804 108.21446 27.27342 109.0998 27.3772 109.65182 27.44142 110.20389 27.50563 111.08919 27.60776 111.64125 27.6709 112.19331 27.73402 113.07863 27.83446 113.63069 27.89647 114.18274 27.95851 115.06805 28.05711 115.6201 28.11798 116.17216 28.17885 117.05748 28.27538 117.60954 28.3352 118.16158 28.39505 119.0469 28.49042 119.59895 28.5493 120.151 28.60822 121.03632 28.70181 121.58838 28.75972 122.14044 28.81761 123.02574 28.9096 123.5778 28.96661 124.12985 29.02362 125.01517 29.11446 125.56723 29.1706 126.11928 29.22675 127.55664 29.37126 126.12932 29.22784"/>
<path transform="matrix(-.06094,.99811,.99808,.06094183,52.638975,196.51886)" d="M1.0361 0C-.25902 .25902-1.55415 .77707-3.1083 1.68365-1.55415 .51805-1.55415-.51805-3.1083-1.68365-1.55415-.77707-.25902-.25902 1.0361 0Z" fill="#ff0000"/>
<path transform="matrix(-.06094,.99811,.99808,.06094183,52.638975,196.51886)" stroke-width=".79701" stroke-linecap="butt" stroke-linejoin="round" fill="none" stroke="#ff0000" d="M1.0361 0C-.25902 .25902-1.55415 .77707-3.1083 1.68365-1.55415 .51805-1.55415-.51805-3.1083-1.68365-1.55415-.77707-.25902-.25902 1.0361 0Z"/>
<path transform="matrix(.99493,-.099983,-.09998,-.9949599,178.4473,117.853328)" d="M1.0361 0C-.25902 .25902-1.55415 .77707-3.1083 1.68365-1.55415 .51805-1.55415-.51805-3.1083-1.68365-1.55415-.77707-.25902-.25902 1.0361 0Z" fill="#ff0000"/>
<path transform="matrix(.99493,-.099983,-.09998,-.9949599,178.4473,117.853328)" stroke-width=".79701" stroke-linecap="butt" stroke-linejoin="round" fill="none" stroke="#ff0000" d="M1.0361 0C-.25902 .25902-1.55415 .77707-3.1083 1.68365-1.55415 .51805-1.55415-.51805-3.1083-1.68365-1.55415-.77707-.25902-.25902 1.0361 0Z"/>
<path transform="matrix(1,0,0,-1.00003,52.317995,147.08203)" d="M112.40266 11.03978H156.6585V24.98766H112.40266Z" fill="#ffffff"/>
<use data-text="y" xlink:href="#font_1_3" transform="matrix(9.9626,0,0,-9.962899,166.71298,131.55857)" fill="#ff0000"/>
<use data-text="=" xlink:href="#font_2_6" transform="matrix(9.9626,0,0,-9.962899,174.72299,131.55857)" fill="#ff0000"/>
<use data-text="l" xlink:href="#font_2_7" transform="matrix(9.9626,0,0,-9.962899,185.22357,131.55857)" fill="#ff0000"/>
<use data-text="n" xlink:href="#font_2_8" transform="matrix(9.9626,0,0,-9.962899,187.98322,131.55857)" fill="#ff0000"/>
<use data-text="(" xlink:href="#font_2_1" transform="matrix(9.9626,0,0,-9.962899,193.51245,131.55857)" fill="#ff0000"/>
<use data-text="x" xlink:href="#font_1_2" transform="matrix(9.9626,0,0,-9.962899,197.41498,131.55857)" fill="#ff0000"/>
<use data-text=")" xlink:href="#font_2_2" transform="matrix(9.9626,0,0,-9.962899,203.10898,131.55857)" fill="#ff0000"/>
</svg>
