<svg xmlns="http://www.w3.org/2000/svg" xmlns:xlink="http://www.w3.org/1999/xlink" version="1.1" width="259" height="258" viewBox="0 0 259 258">
<defs>
<path id="font_1_1" d="M.33399964 .30233766C.33999635 .32835389 .36299134 .42037965 .43299867 .42037965 .43798829 .42037965 .46199037 .42037965 .48298646 .40734864 .45498658 .402359 .43499757 .37734986 .43499757 .35334779 .43499757 .33735658 .44599916 .31835938 .47299195 .31835938 .49499513 .31835938 .5269928 .3363495 .5269928 .37635804 .5269928 .42837525 .46798707 .4423828 .43399049 .4423828 .37599183 .4423828 .34098817 .38935853 .32899476 .36634828 .3039856 .43237306 .25 .4423828 .22099304 .4423828 .116989139 .4423828 .05999756 .3133545 .05999756 .28834535 .05999756 .27833558 .069992069 .27833558 .07199097 .27833558 .07998657 .27833558 .08299255 .28033448 .084991458 .28933717 .11898804 .39535523 .18499756 .42037965 .21899414 .42037965 .23799134 .42037965 .272995 .4113617 .272995 .35334779 .272995 .32235719 .2559967 .25532533 .21899414 .11528015 .20298767 .053268434 .16799927 .011245728 .12399292 .011245728 .117996219 .011245728 .09498596 .011245728 .07398987 .024276734 .09899902 .029266358 .12098694 .05027771 .12098694 .07827759 .12098694 .105270389 .09899902 .11328125 .083999637 .11328125 .053985597 .11328125 .0289917 .08728027 .0289917 .055267335 .0289917 .009246826 .07899475-.0107421879 .12298584-.0107421879 .18899536-.0107421879 .22499085 .059280397 .22799683 .0652771 .23999024 .028274537 .27598573-.0107421879 .33599855-.0107421879 .43899537-.0107421879 .49598695 .118270877 .49598695 .14328003 .49598695 .1532898 .4869995 .1532898 .48399354 .1532898 .47499085 .1532898 .47299195 .14929199 .47099305 .14228821 .43798829 .03527832 .36999513 .011245728 .33799745 .011245728 .29899598 .011245728 .2829895 .043273927 .2829895 .07727051 .2829895 .09927368 .2889862 .121276859 .2999878 .16529846L.33399964 .30233766Z"/>
<path id="font_1_2" d="M.48599244 .38136292C.48999024 .39537049 .48999024 .39736939 .48999024 .40437318 .48999024 .42237855 .47599793 .43138124 .46099855 .43138124 .45098878 .43138124 .43499757 .42536927 .42599488 .41036988 .42399598 .405365 .41600038 .37435914 .4119873 .35635377 .40499879 .33035279 .397995 .30334474 .3919983 .27633668L.34700013 .09628296C.34298707 .08126831 .2999878 .011245728 .23399353 .011245728 .18299866 .011245728 .17199707 .055267335 .17199707 .0922699 .17199707 .1382904 .18899536 .20030213 .22299195 .28833009 .23899842 .3293457 .24299622 .3403473 .24299622 .36035157 .24299622 .405365 .21099854 .4423828 .16099549 .4423828 .06599426 .4423828 .0289917 .29733277 .0289917 .28833009 .0289917 .27833558 .038986207 .27833558 .040985109 .27833558 .050994874 .27833558 .051986696 .28033448 .056991579 .29634095 .083999637 .3903656 .12399292 .42037965 .1579895 .42037965 .1659851 .42037965 .18299866 .42037965 .18299866 .3883667 .18299866 .36335755 .17298889 .3373413 .1659851 .31834413 .12599182 .21231079 .10798645 .1552887 .10798645 .10827637 .10798645 .019256592 .17098999-.0107421879 .22999573-.0107421879 .2689972-.0107421879 .30299378 .0062561037 .33099366 .03425598 .31799317-.017745972 .30599977-.06674194 .2659912-.11973572 .23999024-.15385437 .20199585-.18309021 .1559906-.18309021 .14199829-.18309021 .09700012-.18005371 .07998657-.14074707 .09599304-.14074707 .10899353-.14074707 .12298584-.1287384 .1329956-.11973572 .14299011-.10673523 .14299011-.08773804 .14299011-.056747438 .115997318-.052734376 .10598755-.052734376 .08299255-.052734376 .049987794-.068740848 .049987794-.11773682 .049987794-.16796875 .09399414-.20507813 .1559906-.20507813 .25898744-.20507813 .3619995-.11373901 .3899994-.00074768069L.48599244 .38136292Z"/>
<path id="font_2_1" d="M.6589966 .23046875C.6759949 .23046875 .69400027 .23046875 .69400027 .25045777 .69400027 .27046205 .6759949 .27046205 .6589966 .27046205H.117996219C.100997928 .27046205 .08299255 .27046205 .08299255 .25045777 .08299255 .23046875 .100997928 .23046875 .117996219 .23046875H.6589966Z"/>
<path id="font_3_1" d="M.44898988 .20022583C.44898988 .3193512 .36698915 .41944886 .25898744 .41944886 .21099854 .41944886 .16799927 .40345765 .13198853 .36842347V.5637665C.1519928 .5577698 .18499756 .55078127 .21699524 .55078127 .33999635 .55078127 .4099884 .6417694 .4099884 .6547699 .4099884 .6607666 .40699769 .6657715 .3999939 .6657715 .39898683 .6657715 .39698792 .6657715 .3919983 .66278079 .37199403 .6537781 .32299806 .6337738 .2559967 .6337738 .21598816 .6337738 .16999817 .6407776 .12298584 .6617737 .114990238 .66477969 .11299133 .66477969 .11099243 .66477969 .100997928 .66477969 .100997928 .6567688 .100997928 .6407776V.34439088C.100997928 .32637025 .100997928 .31835938 .114990238 .31835938 .12199402 .31835938 .12399292 .32136537 .12799073 .32736207 .13899231 .3433838 .17599488 .39746095 .25698854 .39746095 .30899049 .39746095 .33399964 .35139466 .34199525 .33337403 .35798646 .29632569 .3600006 .25727845 .3600006 .20722962 .3600006 .17222595 .3600006 .11222839 .33599855 .07035828 .31199647 .031463624 .2749939 .0055389406 .22898865 .0055389406 .1559906 .0055389406 .09899902 .058380128 .08198547 .11723328 .084991458 .1162262 .08799744 .115234378 .09899902 .115234378 .13198853 .115234378 .14898682 .14022827 .14898682 .16423035 .14898682 .18823242 .13198853 .21322632 .09899902 .21322632 .084991458 .21322632 .049987794 .20622254 .049987794 .16023255 .049987794 .07434082 .11898804-.022460938 .23098755-.022460938 .34700013-.022460938 .44898988 .073349 .44898988 .20022583Z"/>
</defs>
<path transform="matrix(1.00006,0,0,-1.00006,156.8255,103.71544)" stroke-width=".3985" stroke-linecap="butt" stroke-miterlimit="10" stroke-linejoin="miter" fill="none" stroke="#00aeef" d="M-153.07433-153.07433H85.04128M-153.07433-136.06606H85.04128M-153.07433-119.0578H85.04128M-153.07433-102.04953H85.04128M-153.07433-85.04128H85.04128M-153.07433-68.03302H85.04128M-153.07433-51.02477H85.04128M-153.07433-34.0165H85.04128M-153.07433-17.00824H85.04128M-153.07433 0H85.04128M-153.07433 17.00824H85.04128M-153.07433 34.0165H85.04128M-153.07433 51.02477H85.04128M-153.07433 68.03302H85.04128M-153.07433 85.0353H85.04128M-153.07433-153.07433V85.04128M-136.06606-153.07433V85.04128M-119.0578-153.07433V85.04128M-102.04953-153.07433V85.04128M-85.04128-153.07433V85.04128M-68.03302-153.07433V85.04128M-51.02477-153.07433V85.04128M-34.0165-153.07433V85.04128M-17.00824-153.07433V85.04128M0-153.07433V85.04128M17.00824-153.07433V85.04128M34.0165-153.07433V85.04128M51.02477-153.07433V85.04128M68.03302-153.07433V85.04128M85.0353-153.07433V85.04128M85.04128 85.04128"/>
<path transform="matrix(1.00006,0,0,-1.00006,156.8255,103.71544)" stroke-width=".79701" stroke-linecap="butt" stroke-miterlimit="10" stroke-linejoin="miter" fill="none" stroke="#000000" d="M-153.07433 0H90.40987"/>
<path transform="matrix(1.00006,0,0,-1.00006,247.24079,103.71544)" d="M1.0361 0C-.25902 .25902-1.55415 .77707-3.1083 1.68365-1.55415 .51805-1.55415-.51805-3.1083-1.68365-1.55415-.77707-.25902-.25902 1.0361 0Z"/>
<path transform="matrix(1.00006,0,0,-1.00006,247.24079,103.71544)" stroke-width=".79701" stroke-linecap="butt" stroke-linejoin="round" fill="none" stroke="#000000" d="M1.0361 0C-.25902 .25902-1.55415 .77707-3.1083 1.68365-1.55415 .51805-1.55415-.51805-3.1083-1.68365-1.55415-.77707-.25902-.25902 1.0361 0Z"/>
<use data-text="x" xlink:href="#font_1_1" transform="matrix(9.963197,0,0,-9.963197,252.39524,105.860569)"/>
<path transform="matrix(1.00006,0,0,-1.00006,156.8255,103.71544)" stroke-width=".79701" stroke-linecap="butt" stroke-miterlimit="10" stroke-linejoin="miter" fill="none" stroke="#000000" d="M0-153.07433V90.40987"/>
<path transform="matrix(0,-1.00006,-1.00006,-0,156.8255,13.300148)" d="M1.0361 0C-.25902 .25902-1.55415 .77707-3.1083 1.68365-1.55415 .51805-1.55415-.51805-3.1083-1.68365-1.55415-.77707-.25902-.25902 1.0361 0Z"/>
<path transform="matrix(0,-1.00006,-1.00006,-0,156.8255,13.300148)" stroke-width=".79701" stroke-linecap="butt" stroke-linejoin="round" fill="none" stroke="#000000" d="M1.0361 0C-.25902 .25902-1.55415 .77707-3.1083 1.68365-1.55415 .51805-1.55415-.51805-3.1083-1.68365-1.55415-.77707-.25902-.25902 1.0361 0Z"/>
<use data-text="y" xlink:href="#font_1_2" transform="matrix(9.963197,0,0,-9.963197,154.20435,6.2085955)"/>
<path transform="matrix(1.00006,0,0,-1.00006,156.8255,103.71544)" stroke-width=".3985" stroke-linecap="butt" stroke-miterlimit="10" stroke-linejoin="miter" fill="none" stroke="#000000" d="M-85.04128 1.70091V-1.70065"/>
<path transform="matrix(1.00006,0,0,-1.00006,156.8255,103.71544)" d="M-92.40266-13.13568H-77.67988V-3.8924504H-92.40266Z" fill="#ffffff"/>
<use data-text="&#x2212;" xlink:href="#font_2_1" transform="matrix(9.963197,0,0,-9.963197,65.41402,115.025119)"/>
<use data-text="5" xlink:href="#font_3_1" transform="matrix(9.963197,0,0,-9.963197,73.16348,115.025119)"/>
<path transform="matrix(1.00006,0,0,-1.00006,156.8255,103.71544)" stroke-width=".3985" stroke-linecap="butt" stroke-miterlimit="10" stroke-linejoin="miter" fill="none" stroke="#000000" d="M85.04128 1.70091V-1.70065"/>
<path transform="matrix(1.00006,0,0,-1.00006,156.8255,103.71544)" d="M81.5543-12.30545H88.52824V-3.8924704H81.5543Z" fill="#ffffff"/>
<use data-text="5" xlink:href="#font_3_1" transform="matrix(9.963197,0,0,-9.963197,239.38146,115.025119)"/>
<path transform="matrix(1.00006,0,0,-1.00006,156.8255,103.71544)" stroke-width=".3985" stroke-linecap="butt" stroke-miterlimit="10" stroke-linejoin="miter" fill="none" stroke="#000000" d="M1.70091-85.04128H-1.70065"/>
<path transform="matrix(1.00006,0,0,-1.00006,156.8255,103.71544)" d="M-18.61523-89.66289H-3.8924504V-80.419658H-18.61523Z" fill="#ffffff"/>
<use data-text="&#x2212;" xlink:href="#font_2_1" transform="matrix(9.963197,0,0,-9.963197,139.20545,191.5567)"/>
<use data-text="5" xlink:href="#font_3_1" transform="matrix(9.963197,0,0,-9.963197,146.95491,191.5567)"/>
<path transform="matrix(1.00006,0,0,-1.00006,156.8255,103.71544)" stroke-width=".3985" stroke-linecap="butt" stroke-miterlimit="10" stroke-linejoin="miter" fill="none" stroke="#000000" d="M1.70091 85.04128H-1.70065"/>
<path transform="matrix(1.00006,0,0,-1.00006,156.8255,103.71544)" d="M-10.8664 80.83478H-3.8924599V89.24776H-10.8664Z" fill="#ffffff"/>
<use data-text="5" xlink:href="#font_3_1" transform="matrix(9.963197,0,0,-9.963197,146.95491,21.879532)"/>
<g>
<path transform="matrix(1.00006,0,0,-1.00006,156.8255,103.71544)" d="M-87.80133-75.67786V7.64482H19.7683V-75.67786ZM19.7683 7.64482" fill="#42c8f4" fill-opacity=".3"/>
<path transform="matrix(1.00006,0,0,-1.00006,156.8255,103.71544)" stroke-width="1.19553" stroke-linecap="butt" stroke-miterlimit="10" stroke-linejoin="miter" fill="none" stroke="#42c8f4" stroke-opacity=".3" d="M-87.80133-75.67786V7.64482H19.7683V-75.67786ZM19.7683 7.64482"/>
</g>
<path transform="matrix(1.00006,0,0,-1.00006,156.8255,103.71544)" stroke-width=".3985" stroke-linecap="butt" stroke-dasharray="2.98883,2.98883" stroke-miterlimit="10" stroke-linejoin="miter" fill="none" stroke="#929292" d="M-153.07433-126.24016 85.04128 58.20712"/>
<path transform="matrix(1.00006,0,0,-1.00006,156.8255,103.71544)" stroke-width=".3985" stroke-linecap="butt" stroke-dasharray="2.98883,2.98883" stroke-miterlimit="10" stroke-linejoin="miter" fill="none" stroke="#929292" d="M-153.07433 58.20712 85.04128-126.24016"/>
<path transform="matrix(1.00006,0,0,-1.00006,156.8255,103.71544)" stroke-width="1.19553" stroke-linecap="butt" stroke-miterlimit="10" stroke-linejoin="miter" fill="none" stroke="#ff0000" d="M-153.47614 67.46329C-150.43709 65.31696-150.43709 65.31696-148.73349 64.12222-147.02989 62.9275-144.35839 61.06493-142.72756 59.93297-141.09673 58.801-138.54152 57.03606-136.97959 55.96379-135.41764 54.89153-132.9667 53.2195-131.47013 52.20482-129.97351 51.19012-127.62779 49.61041-126.19318 48.65062-124.75858 47.69081-122.50693 46.1945-121.13036 45.28717-119.75378 44.37982-117.5928 42.96782-116.27179 42.1111-114.95078 41.2544-112.87881 39.92053-111.60942 39.11253-110.34001 38.30453-108.3434 37.04868-107.12274 36.2876-105.90208 35.52652-103.98541 34.34384-102.81177 33.62721-101.63809 32.91057-99.7944 31.79596-98.66377 31.12253-97.53313 30.4491-95.75308 29.40518-94.66292 28.77357-93.57277 28.14194-91.85829 27.16159-90.80663 26.57019-89.75496 25.97879-88.09895 25.0637-87.08322 24.51111-86.0675 23.95854-84.46829 23.10269-83.48595 22.58752-82.50359 22.07236-80.95482 21.27687-80.00311 20.7981-79.0514 20.31932-77.54951 19.58052-76.62668 19.13687-75.70386 18.6932-74.24791 18.01001-73.35199 17.60048-72.45605 17.19096-71.04073 16.56181-70.16942 16.18529-69.29813 15.80875-67.92079 15.23111-67.07225 14.88663-66.22372 14.54213-64.88202 14.01506-64.05371 13.70241-63.22542 13.38974-61.91211 12.91513-61.10239 12.63315-60.29266 12.3512-59.01064 11.92227-58.21776 11.67006-57.4249 11.41786-56.1662 11.0379-55.3879 10.81544-54.6096 10.59299-53.37393 10.26012-52.60838 10.06671-51.84285 9.8733-50.62422 9.5868-49.87039 9.42152-49.11655 9.25626-47.91943 9.01257-47.17522 8.87549-46.431 8.7384-45.24358 8.54243-44.5065 8.43352-43.76945 8.3246-42.59393 8.17209-41.86299 8.09042-41.13206 8.00876-39.96489 7.89943-39.23842 7.84491-38.51193 7.79042-37.35106 7.72466-36.62706 7.6975-35.90308 7.67036-34.74182 7.64923-34.0204 7.64923-33.29895 7.64923-32.14981 7.67072-31.42747 7.6975-30.70514 7.7243-29.54092 7.78836-28.81432 7.84233-28.08769 7.8963-26.92133 8.00502-26.1905 8.08653-25.45969 8.16806-24.2836 8.32072-23.54698 8.42989-22.81035 8.53906-21.62587 8.73674-20.8814 8.87341-20.13693 9.0101-18.93509 9.25026-18.1813 9.41505-17.42749 9.57982-16.21321 9.86757-15.4485 10.06099-14.68378 10.25444-13.44794 10.58694-12.66975 10.8092-11.89157 11.0315-10.63289 11.41133-9.83989 11.66306-9.04688 11.91478-7.76358 12.34175-6.95422 12.62355-6.14487 12.90536-4.8348 13.38152-4.00653 13.6941-3.17827 14.00668-1.8333 14.5325-.98462 14.8765-.13594 15.22049 1.23921 15.7971 2.11018 16.17334 2.98116 16.54959 4.39693 17.17885 5.29274 17.58827 6.18857 17.9977 7.64418 18.68074 8.56665 19.12416 9.48912 19.56755 10.99002 20.30566 11.94127 20.78407 12.8925 21.26247 14.44055 22.05728 15.42253 22.5722 16.40453 23.08713 18.00331 23.9429 19.01878 24.49529 20.03426 25.0477 21.68982 25.96283 22.74142 26.55357 23.793 27.14433 25.50845 28.12187 26.59796 28.75307 27.68748 29.38425 29.46361 30.42963 30.59389 31.10281 31.72415 31.77599 33.57033 32.8888 34.7442 33.60489 35.91809 34.32098 37.83453 35.50298 39.05441 36.26399 40.27426 37.025 42.26732 38.28204 43.53615 39.0897 44.80498 39.89737 46.87828 41.22896 48.1993 42.08513 49.5203 42.94133 51.68109 44.35364 53.0571 45.26045 54.4331 46.16725 56.68225 47.66133 58.11655 48.62077 59.55084 49.58023 61.8984 51.16118 63.39452 52.17549 64.89064 53.18982 67.33832 54.85959 68.89957 55.93134 70.46083 57.00311 73.01663 58.76836 74.64703 59.9 76.27742 61.03165 78.94756 62.89337 80.65036 64.08745 82.35316 65.28152 86.91972 68.50613 85.38982 67.4258"/>
<path transform="matrix(-.816839,-.5769046,-.5769046,.816839,3.3401795,36.248125)" d="M1.27522 0C-.31879 .31879-1.91284 .9564-3.8257 2.07224-1.91284 .6376-1.91284-.6376-3.8257-2.07224-1.91284-.9564-.31879-.31879 1.27522 0Z" fill="#ff0000"/>
<path transform="matrix(-.816839,-.5769046,-.5769046,.816839,3.3401795,36.248125)" stroke-width="1.19553" stroke-linecap="butt" stroke-linejoin="round" fill="none" stroke="#ff0000" d="M1.27522 0C-.31879 .31879-1.91284 .9564-3.8257 2.07224-1.91284 .6376-1.91284-.6376-3.8257-2.07224-1.91284-.9564-.31879-.31879 1.27522 0Z"/>
<path transform="matrix(.816879,-.57683458,-.57683458,-.816879,242.22043,36.285615)" d="M1.27522 0C-.31879 .31879-1.91284 .9564-3.8257 2.07224-1.91284 .6376-1.91284-.6376-3.8257-2.07224-1.91284-.9564-.31879-.31879 1.27522 0Z" fill="#ff0000"/>
<path transform="matrix(.816879,-.57683458,-.57683458,-.816879,242.22043,36.285615)" stroke-width="1.19553" stroke-linecap="butt" stroke-linejoin="round" fill="none" stroke="#ff0000" d="M1.27522 0C-.31879 .31879-1.91284 .9564-3.8257 2.07224-1.91284 .6376-1.91284-.6376-3.8257-2.07224-1.91284-.9564-.31879-.31879 1.27522 0Z"/>
<path transform="matrix(1.00006,0,0,-1.00006,156.8255,103.71544)" stroke-width="1.19553" stroke-linecap="butt" stroke-miterlimit="10" stroke-linejoin="miter" fill="none" stroke="#ff0000" d="M-153.47614-135.49633C-150.43709-133.34999-150.43709-133.34999-148.73349-132.15526-147.02989-130.96054-144.35839-129.09796-142.72756-127.966-141.09673-126.83405-138.54152-125.06909-136.97959-123.99683-135.41764-122.92456-132.9667-121.25253-131.47013-120.23785-129.97351-119.22316-127.62779-117.64346-126.19318-116.68365-124.75858-115.72385-122.50693-114.22754-121.13036-113.3202-119.75378-112.41286-117.5928-111.00085-116.27179-110.14413-114.95078-109.28743-112.87881-107.95357-111.60942-107.14557-110.34001-106.33757-108.3434-105.08173-107.12274-104.32063-105.90208-103.55957-103.98541-102.37688-102.81177-101.66025-101.63809-100.9436-99.7944-99.829-98.66377-99.15556-97.53313-98.48213-95.75308-97.43823-94.66292-96.8066-93.57277-96.17497-91.85829-95.19463-90.80663-94.60323-89.75496-94.01183-88.09895-93.09674-87.08322-92.54414-86.0675-91.99158-84.46829-91.13573-83.48595-90.62054-82.50359-90.1054-80.95482-89.30989-80.00311-88.83113-79.0514-88.35236-77.54951-87.61357-76.62668-87.1699-75.70386-86.72624-74.24791-86.04305-73.35199-85.63351-72.45605-85.224-71.04073-84.59485-70.16942-84.2183-69.29813-83.8418-67.92079-83.26414-67.07225-82.91965-66.22372-82.57516-64.88202-82.0481-64.05371-81.73544-63.22542-81.42278-61.91211-80.94817-61.10239-80.66618-60.29266-80.38422-59.01064-79.95529-58.21776-79.7031-57.4249-79.4509-56.1662-79.07094-55.3879-78.84848-54.6096-78.62602-53.37393-78.29315-52.60838-78.09975-51.84285-77.90634-50.62422-77.61983-49.87039-77.45456-49.11655-77.28928-47.91943-77.04561-47.17522-76.90854-46.431-76.77144-45.24358-76.57549-44.5065-76.46655-43.76945-76.35764-42.59393-76.20512-41.86299-76.12346-41.13206-76.0418-39.96489-75.93246-39.23842-75.87794-38.51193-75.82344-37.35106-75.75769-36.62706-75.73055-35.90308-75.7034-34.74182-75.68227-34.0204-75.68227-33.29895-75.68227-32.14981-75.70375-31.42747-75.73055-30.70514-75.75734-29.54092-75.8214-28.81432-75.87537-28.08769-75.92934-26.92133-76.03806-26.1905-76.11957-25.45969-76.2011-24.2836-76.35376-23.54698-76.46292-22.81035-76.5721-21.62587-76.76978-20.8814-76.90645-20.13693-77.04314-18.93509-77.28331-18.1813-77.44809-17.42749-77.61285-16.21321-77.9006-15.4485-78.09404-14.68378-78.28748-13.44794-78.61998-12.66975-78.84224-11.89157-79.06453-10.63289-79.44437-9.83989-79.69609-9.04688-79.94781-7.76358-80.37479-6.95422-80.65659-6.14487-80.9384-4.8348-81.41455-4.00653-81.72714-3.17827-82.03972-1.8333-82.56554-.98462-82.90953-.13594-83.25352 1.23921-83.83014 2.11018-84.20638 2.98116-84.58263 4.39693-85.2119 5.29274-85.6213 6.18857-86.03073 7.64418-86.71378 8.56665-87.1572 9.48912-87.60059 10.99002-88.3387 11.94127-88.81711 12.8925-89.2955 14.44055-90.09032 15.42253-90.60524 16.40453-91.12016 18.00331-91.97594 19.01878-92.52832 20.03426-93.08073 21.68982-93.99586 22.74142-94.58661 23.793-95.17735 25.50845-96.1549 26.59796-96.78609 27.68748-97.41728 29.46361-98.46268 30.59389-99.13585 31.72415-99.80902 33.57033-100.92183 34.7442-101.63792 35.91809-102.35403 37.83453-103.53601 39.05441-104.29703 40.27426-105.05803 42.26732-106.31508 43.53615-107.12274 44.80498-107.9304 46.87828-109.262 48.1993-110.11818 49.5203-110.97437 51.68109-112.38669 53.0571-113.29349 54.4331-114.20027 56.68225-115.69437 58.11655-116.65382 59.55084-117.61327 61.8984-119.1942 63.39452-120.20853 64.89064-121.22285 67.33832-122.89262 68.89957-123.96437 70.46083-125.03615 73.01663-126.80139 74.64703-127.93304 76.27742-129.06468 78.94756-130.9264 80.65036-132.12049 82.35316-133.31456 86.91972-136.53916 85.38982-135.45883"/>
<path transform="matrix(-.816839,.5769046,.5769046,.816839,3.3401795,239.21987)" d="M1.27522 0C-.31879 .31879-1.91284 .9564-3.8257 2.07224-1.91284 .6376-1.91284-.6376-3.8257-2.07224-1.91284-.9564-.31879-.31879 1.27522 0Z" fill="#ff0000"/>
<path transform="matrix(-.816839,.5769046,.5769046,.816839,3.3401795,239.21987)" stroke-width="1.19553" stroke-linecap="butt" stroke-linejoin="round" fill="none" stroke="#ff0000" d="M1.27522 0C-.31879 .31879-1.91284 .9564-3.8257 2.07224-1.91284 .6376-1.91284-.6376-3.8257-2.07224-1.91284-.9564-.31879-.31879 1.27522 0Z"/>
<path transform="matrix(.816879,.57683458,.57683458,-.816879,242.22043,239.18238)" d="M1.27522 0C-.31879 .31879-1.91284 .9564-3.8257 2.07224-1.91284 .6376-1.91284-.6376-3.8257-2.07224-1.91284-.9564-.31879-.31879 1.27522 0Z" fill="#ff0000"/>
<path transform="matrix(.816879,.57683458,.57683458,-.816879,242.22043,239.18238)" stroke-width="1.19553" stroke-linecap="butt" stroke-linejoin="round" fill="none" stroke="#ff0000" d="M1.27522 0C-.31879 .31879-1.91284 .9564-3.8257 2.07224-1.91284 .6376-1.91284-.6376-3.8257-2.07224-1.91284-.9564-.31879-.31879 1.27522 0Z"/>
</svg>
