<svg xmlns="http://www.w3.org/2000/svg" xmlns:xlink="http://www.w3.org/1999/xlink" version="1.1" width="191" height="121" viewBox="0 0 191 121">
<defs>
<path id="font_1_1" d="M.33399964 .30233766C.33999635 .32835389 .36299134 .42037965 .43299867 .42037965 .43798829 .42037965 .46199037 .42037965 .48298646 .40734864 .45498658 .402359 .43499757 .37734986 .43499757 .35334779 .43499757 .33735658 .44599916 .31835938 .47299195 .31835938 .49499513 .31835938 .5269928 .3363495 .5269928 .37635804 .5269928 .42837525 .46798707 .4423828 .43399049 .4423828 .37599183 .4423828 .34098817 .38935853 .32899476 .36634828 .3039856 .43237306 .25 .4423828 .22099304 .4423828 .116989139 .4423828 .05999756 .3133545 .05999756 .28834535 .05999756 .27833558 .069992069 .27833558 .07199097 .27833558 .07998657 .27833558 .08299255 .28033448 .084991458 .28933717 .11898804 .39535523 .18499756 .42037965 .21899414 .42037965 .23799134 .42037965 .272995 .4113617 .272995 .35334779 .272995 .32235719 .2559967 .25532533 .21899414 .11528015 .20298767 .053268434 .16799927 .011245728 .12399292 .011245728 .117996219 .011245728 .09498596 .011245728 .07398987 .024276734 .09899902 .029266358 .12098694 .05027771 .12098694 .07827759 .12098694 .105270389 .09899902 .11328125 .083999637 .11328125 .053985597 .11328125 .0289917 .08728027 .0289917 .055267335 .0289917 .009246826 .07899475-.0107421879 .12298584-.0107421879 .18899536-.0107421879 .22499085 .059280397 .22799683 .0652771 .23999024 .028274537 .27598573-.0107421879 .33599855-.0107421879 .43899537-.0107421879 .49598695 .118270877 .49598695 .14328003 .49598695 .1532898 .4869995 .1532898 .48399354 .1532898 .47499085 .1532898 .47299195 .14929199 .47099305 .14228821 .43798829 .03527832 .36999513 .011245728 .33799745 .011245728 .29899598 .011245728 .2829895 .043273927 .2829895 .07727051 .2829895 .09927368 .2889862 .121276859 .2999878 .16529846L.33399964 .30233766Z"/>
<path id="font_1_2" d="M.48599244 .38136292C.48999024 .39537049 .48999024 .39736939 .48999024 .40437318 .48999024 .42237855 .47599793 .43138124 .46099855 .43138124 .45098878 .43138124 .43499757 .42536927 .42599488 .41036988 .42399598 .405365 .41600038 .37435914 .4119873 .35635377 .40499879 .33035279 .397995 .30334474 .3919983 .27633668L.34700013 .09628296C.34298707 .08126831 .2999878 .011245728 .23399353 .011245728 .18299866 .011245728 .17199707 .055267335 .17199707 .0922699 .17199707 .1382904 .18899536 .20030213 .22299195 .28833009 .23899842 .3293457 .24299622 .3403473 .24299622 .36035157 .24299622 .405365 .21099854 .4423828 .16099549 .4423828 .06599426 .4423828 .0289917 .29733277 .0289917 .28833009 .0289917 .27833558 .038986207 .27833558 .040985109 .27833558 .050994874 .27833558 .051986696 .28033448 .056991579 .29634095 .083999637 .3903656 .12399292 .42037965 .1579895 .42037965 .1659851 .42037965 .18299866 .42037965 .18299866 .3883667 .18299866 .36335755 .17298889 .3373413 .1659851 .31834413 .12599182 .21231079 .10798645 .1552887 .10798645 .10827637 .10798645 .019256592 .17098999-.0107421879 .22999573-.0107421879 .2689972-.0107421879 .30299378 .0062561037 .33099366 .03425598 .31799317-.017745972 .30599977-.06674194 .2659912-.11973572 .23999024-.15385437 .20199585-.18309021 .1559906-.18309021 .14199829-.18309021 .09700012-.18005371 .07998657-.14074707 .09599304-.14074707 .10899353-.14074707 .12298584-.1287384 .1329956-.11973572 .14299011-.10673523 .14299011-.08773804 .14299011-.056747438 .115997318-.052734376 .10598755-.052734376 .08299255-.052734376 .049987794-.068740848 .049987794-.11773682 .049987794-.16796875 .09399414-.20507813 .1559906-.20507813 .25898744-.20507813 .3619995-.11373901 .3899994-.00074768069L.48599244 .38136292Z"/>
</defs>
<path transform="matrix(1.00006,0,0,-1,86.8393,105.41)" stroke-width=".3985" stroke-linecap="butt" stroke-miterlimit="10" stroke-linejoin="miter" fill="none" stroke="#cbcbcb" d="M-85.04042-14.17339H85.04042M-85.04042 0H85.04042M-85.04042 14.17339H85.04042M-85.04042 28.3468H85.04042M-85.04042 42.5202H85.04042M-85.04042 56.69362H85.04042M-85.04042 70.867H85.04042M-85.04042 85.03543H85.04042M-85.04042-14.17339V85.04042M-70.867-14.17339V85.04042M-56.69362-14.17339V85.04042M-42.5202-14.17339V85.04042M-28.3468-14.17339V85.04042M-14.17339-14.17339V85.04042M0-14.17339V85.04042M14.17339-14.17339V85.04042M28.3468-14.17339V85.04042M42.5202-14.17339V85.04042M56.69362-14.17339V85.04042M70.867-14.17339V85.04042M85.03543-14.17339V85.04042M85.04042 85.04042"/>
<path transform="matrix(1.00006,0,0,-1,86.8393,105.41)" stroke-width=".79701" stroke-linecap="butt" stroke-miterlimit="10" stroke-linejoin="miter" fill="none" stroke="#000000" d="M-85.04042 0H92.10994"/>
<path transform="matrix(1.00006,0,0,-1,178.95478,105.41)" d="M1.0361 0C-.25902 .25902-1.55415 .77707-3.1083 1.68365-1.55415 .51805-1.55415-.51805-3.1083-1.68365-1.55415-.77707-.25902-.25902 1.0361 0Z"/>
<path transform="matrix(1.00006,0,0,-1,178.95478,105.41)" stroke-width=".79701" stroke-linecap="butt" stroke-linejoin="round" fill="none" stroke="#000000" d="M1.0361 0C-.25902 .25902-1.55415 .77707-3.1083 1.68365-1.55415 .51805-1.55415-.51805-3.1083-1.68365-1.55415-.77707-.25902-.25902 1.0361 0Z"/>
<use data-text="x" xlink:href="#font_1_1" transform="matrix(9.963197,0,0,-9.9626,184.10913,107.55501)"/>
<path transform="matrix(1.00006,0,0,-1,86.8393,105.41)" stroke-width=".79701" stroke-linecap="butt" stroke-miterlimit="10" stroke-linejoin="miter" fill="none" stroke="#000000" d="M0-14.17339V92.10994"/>
<path transform="matrix(0,-1,-1.00006,-0,86.8393,13.300064)" d="M1.0361 0C-.25902 .25902-1.55415 .77707-3.1083 1.68365-1.55415 .51805-1.55415-.51805-3.1083-1.68365-1.55415-.77707-.25902-.25902 1.0361 0Z"/>
<path transform="matrix(0,-1,-1.00006,-0,86.8393,13.300064)" stroke-width=".79701" stroke-linecap="butt" stroke-linejoin="round" fill="none" stroke="#000000" d="M1.0361 0C-.25902 .25902-1.55415 .77707-3.1083 1.68365-1.55415 .51805-1.55415-.51805-3.1083-1.68365-1.55415-.77707-.25902-.25902 1.0361 0Z"/>
<use data-text="y" xlink:href="#font_1_2" transform="matrix(9.963197,0,0,-9.9626,84.21815,6.2090075)"/>
<path transform="matrix(1.00006,0,0,-1,86.8393,105.41)" stroke-width="1.19553" stroke-linecap="butt" stroke-miterlimit="10" stroke-linejoin="miter" fill="none" stroke="#ff0000" d="M-85.02333 16.7671C-85.02333 16.7671-79.37569 17.34854-77.29929 17.57184-75.22287 17.79515-72.00262 18.15327-70.05794 18.37659-68.11327 18.59988-65.1006 18.958-63.28333 19.18132-61.46605 19.40462-58.65442 19.76274-56.96027 19.98605-55.2661 20.20937-52.64832 20.56747-51.07298 20.7908-49.49767 21.0141-47.06718 21.37221-45.60635 21.59552-44.14554 21.81883-41.89507 22.17696-40.54437 22.40025-39.19368 22.62358-37.11636 22.98169-35.87144 23.205-34.62653 23.42831-32.71521 23.78642-31.5718 24.00974-30.42839 24.23305-28.67667 24.59117-27.63051 24.81447-26.58437 25.03778-24.98508 25.3959-24.0318 25.6192-23.0785 25.84251-21.62465 26.20064-20.75986 26.42395-19.89507 26.64725-18.57945 27.00539-17.79892 27.22868-17.01837 27.452-15.83487 27.8101-15.13428 28.03342-14.43369 28.25673-13.37448 28.61484-12.74948 28.83817-12.12447 29.06146-11.18333 29.41959-10.62961 29.6429-10.0759 29.86621-9.24542 30.22432-8.75865 30.44763-8.2719 30.67094-7.54541 31.02905-7.12128 31.25237-6.69717 31.47568-6.06772 31.8338-5.70192 32.0571-5.3361 32.28043-4.79659 32.63853-4.48476 32.86183-4.17293 33.08516-3.71655 33.44327-3.45444 33.66658-3.19235 33.88988-2.81238 34.24802-2.59564 34.47131-2.3789 34.69463-2.06808 35.05275-1.89233 35.27605-1.7166 35.49936-1.46799 35.85748-1.32896 36.0808-1.18994 36.3041-.99693 36.66222-.89035 36.88553-.78378 37.10884-.6393 37.46695-.56076 37.69026-.48224 37.91357-.37915 38.27168-.32439 38.49501-.26962 38.7183-.20135 39.07643-.16608 39.29974-.13078 39.52306-.09021 39.88116-.07005 40.10446-.0499 40.32779-.0301 40.6859-.02074 40.90921-.0114 41.13252-.00545 41.49065-.00258 41.71394 .00026 41.93727-.00067 42.29538 0 42.51868 .00067 42.74199-.00046 43.10011 .00237 43.32343 .0052 43.54672 .01118 43.90486 .02052 44.12816 .02989 44.35147 .04971 44.7096 .06984 44.93289 .08997 45.1562 .13043 45.51433 .16565 45.73764 .20087 45.96094 .26907 46.31906 .32373 46.54237 .3784 46.76569 .4813 47.1238 .55968 47.3471 .63809 47.57042 .7824 47.92853 .88885 48.15186 .99532 48.37515 1.18816 48.73328 1.32701 48.95657 1.46588 49.1799 1.71416 49.53801 1.88976 49.7613 2.06535 49.98463 2.376 50.34274 2.59262 50.56606 2.80922 50.78937 3.18903 51.14749 3.45099 51.37079 3.71294 51.5941 4.16902 51.95222 4.48064 52.17552 4.79227 52.39883 5.33138 52.75696 5.69695 52.98027 6.06252 53.20357 6.69154 53.5617 7.11545 53.785 7.53935 54.00832 8.26564 54.36644 8.75218 54.58974 9.23871 54.81305 10.0686 55.17116 10.62204 55.39449 11.17548 55.61778 12.1163 55.9759 12.74104 56.19922 13.36578 56.42253 14.42444 56.78064 15.12476 57.00395 15.82509 57.22726 17.00835 57.58537 17.78854 57.80869 18.56876 58.032 19.88356 58.39012 20.74797 58.61342 21.61237 58.83675 23.06564 59.19485 24.0186 59.41815 24.97157 59.64148 26.5704 59.99959 27.61624 60.2229 28.66206 60.44621 30.41324 60.80432 31.55623 61.02763 32.69922 61.25093 34.6096 61.60907 35.85414 61.83237 37.09868 62.05568 39.17564 62.4138 40.52599 62.63712 41.87631 62.86041 44.12604 63.21854 45.58646 63.44185 47.04689 63.66515 49.47685 64.02327 51.05179 64.24658 52.62674 64.4699 55.24388 64.828 56.93756 65.05133 58.63123 65.27463 61.44194 65.63274 63.25867 65.85606 65.07541 66.07936 68.08714 66.43748 70.03134 66.66078 71.97556 66.88411 75.19522 67.24222 77.27116 67.46553 79.34709 67.68884 84.99327 68.27026 84.99327 68.27026"/>
</svg>
