<?xml version="1.0" encoding="UTF-8"?>
<svg xmlns="http://www.w3.org/2000/svg" xmlns:xlink="http://www.w3.org/1999/xlink" width="159pt" height="135pt" viewBox="0 0 159 135" version="1.1">
<g id="surface1">
<path style="fill:none;stroke-width:0.3985;stroke-linecap:butt;stroke-linejoin:miter;stroke:rgb(0%,67.83905%,93.728638%);stroke-opacity:1;stroke-miterlimit:10;" d="M -0.00003125 0.001375 L 136.066375 0.001375 M -0.00003125 28.345125 L 136.066375 28.345125 M -0.00003125 56.692781 L 136.066375 56.692781 M -0.00003125 85.040437 L 136.066375 85.040437 M -0.00003125 113.376375 L 136.066375 113.376375 M -0.00003125 0.001375 L -0.00003125 113.388094 M 45.355437 0.001375 L 45.355437 113.388094 M 90.710906 0.001375 L 90.710906 113.388094 M 136.05075 0.001375 L 136.05075 113.388094 " transform="matrix(1,0,0,-1,3.293,131.392)"/>
<path style="fill:none;stroke-width:0.79701;stroke-linecap:butt;stroke-linejoin:miter;stroke:rgb(0%,0%,0%);stroke-opacity:1;stroke-miterlimit:10;" d="M -0.00003125 0.001375 L 152.773406 0.001375 " transform="matrix(1,0,0,-1,3.293,131.392)"/>
<path style="fill-rule:nonzero;fill:rgb(0%,0%,0%);fill-opacity:1;stroke-width:0.79701;stroke-linecap:butt;stroke-linejoin:round;stroke:rgb(0%,0%,0%);stroke-opacity:1;stroke-miterlimit:10;" d="M 1.036242 0.001375 C -0.260633 0.259187 -1.553601 0.778719 -3.108289 1.684969 C -1.553601 0.517 -1.553601 -0.518156 -3.108289 -1.682219 C -1.553601 -0.775969 -0.260633 -0.260344 1.036242 0.001375 Z M 1.036242 0.001375 " transform="matrix(1,0,0,-1,156.06532,131.392)"/>
<path style="fill:none;stroke-width:0.79701;stroke-linecap:butt;stroke-linejoin:miter;stroke:rgb(0%,0%,0%);stroke-opacity:1;stroke-miterlimit:10;" d="M -0.00003125 0.001375 L -0.00003125 128.962312 " transform="matrix(1,0,0,-1,3.293,131.392)"/>
<path style="fill-rule:nonzero;fill:rgb(0%,0%,0%);fill-opacity:1;stroke-width:0.79701;stroke-linecap:butt;stroke-linejoin:round;stroke:rgb(0%,0%,0%);stroke-opacity:1;stroke-miterlimit:10;" d="M 1.036609 0.00003125 C -0.260266 0.257844 -1.553235 0.777375 -3.107923 1.683625 C -1.553235 0.519563 -1.553235 -0.5195 -3.107923 -1.683562 C -1.553235 -0.777312 -0.260266 -0.257781 1.036609 0.00003125 Z M 1.036609 0.00003125 " transform="matrix(0,-1,-1,0,3.293,2.43114)"/>
<path style="fill:none;stroke-width:1.19553;stroke-linecap:butt;stroke-linejoin:miter;stroke:rgb(0%,0%,100%);stroke-opacity:1;stroke-miterlimit:10;" d="M -0.00003125 0.001375 C -0.00003125 0.001375 1.535125 12.243562 2.124969 14.821687 C 2.714812 17.395906 3.660125 17.681062 4.253875 18.575594 C 4.843719 19.470125 5.789031 20.595125 6.378875 21.267 C 6.968719 21.934969 7.914031 22.856844 8.503875 23.407625 C 9.093719 23.9545 10.039031 24.743562 10.628875 25.212312 C 11.218719 25.681062 12.167937 26.376375 12.757781 26.790437 C 13.347625 27.2045 14.292937 27.825594 14.882781 28.200594 C 15.472625 28.571687 16.417937 29.138094 17.007781 29.481844 C 17.597625 29.821687 18.542937 30.345125 19.132781 30.661531 C 19.722625 30.977937 20.671844 31.462312 21.261687 31.755281 C 21.851531 32.052156 22.796844 32.505281 23.386687 32.782625 C 23.976531 33.059969 24.921844 33.48575 25.511687 33.747469 C 26.101531 34.005281 27.046844 34.411531 27.636687 34.657625 C 28.226531 34.903719 29.17575 35.286531 29.765594 35.524812 C 30.355437 35.759187 31.30075 36.130281 31.890594 36.352937 C 32.480437 36.5795 33.42575 36.927156 34.015594 37.142 C 34.605437 37.356844 35.55075 37.696687 36.140594 37.899812 C 36.730437 38.106844 37.679656 38.431062 38.2695 38.630281 C 38.859344 38.8295 39.804656 39.142 40.3945 39.333406 C 40.984344 39.524812 41.929656 39.825594 42.5195 40.009187 C 43.109344 40.196687 44.054656 40.48575 44.6445 40.665437 C 45.23825 40.845125 46.183562 41.130281 46.773406 41.302156 C 47.36325 41.474031 48.308562 41.751375 48.898406 41.919344 C 49.48825 42.087312 50.433562 42.352937 51.023406 42.517 C 51.61325 42.681062 52.558562 42.938875 53.152312 43.099031 C 53.742156 43.259187 54.687469 43.513094 55.277312 43.665437 C 55.867156 43.821687 56.812469 44.067781 57.402312 44.216219 C 57.992156 44.368562 58.937469 44.606844 59.527312 44.755281 C 60.117156 44.903719 61.066375 45.142 61.656219 45.286531 C 62.246062 45.431062 63.191375 45.657625 63.781219 45.79825 C 64.371062 45.942781 65.316375 46.165437 65.906219 46.302156 C 66.496062 46.442781 67.441375 46.661531 68.031219 46.79825 C 68.621062 46.934969 69.570281 47.145906 70.160125 47.278719 C 70.749969 47.411531 71.695281 47.622469 72.285125 47.751375 C 72.874969 47.880281 73.820281 48.087312 74.410125 48.216219 C 74.999969 48.345125 75.945281 48.544344 76.535125 48.67325 C 77.124969 48.79825 78.074187 48.993562 78.664031 49.118562 C 79.253875 49.239656 80.199187 49.434969 80.789031 49.556062 C 81.378875 49.677156 82.324187 49.868562 82.914031 49.98575 C 83.503875 50.102937 84.449187 50.294344 85.039031 50.411531 C 85.628875 50.524812 86.578094 50.712312 87.167937 50.825594 C 87.757781 50.942781 88.703094 51.122469 89.292937 51.23575 C 89.882781 51.349031 90.828094 51.528719 91.417937 51.638094 C 92.007781 51.751375 92.953094 51.927156 93.542937 52.036531 C 94.136687 52.145906 95.082 52.321687 95.671844 52.427156 C 96.261687 52.536531 97.207 52.708406 97.796844 52.813875 C 98.386687 52.919344 99.332 53.091219 99.921844 53.192781 C 100.511687 53.29825 101.457 53.466219 102.05075 53.567781 C 102.640594 53.669344 103.585906 53.833406 104.17575 53.934969 C 104.765594 54.040437 105.710906 54.200594 106.30075 54.302156 C 106.890594 54.403719 107.835906 54.563875 108.42575 54.661531 C 109.015594 54.759187 109.964812 54.919344 110.554656 55.017 C 111.1445 55.114656 112.089812 55.270906 112.679656 55.364656 C 113.2695 55.462312 114.214812 55.614656 114.804656 55.708406 C 115.3945 55.806062 116.339812 55.958406 116.929656 56.052156 C 117.5195 56.145906 118.468719 56.294344 119.058562 56.388094 C 119.648406 56.481844 120.593719 56.634187 121.183562 56.727937 C 121.773406 56.817781 122.718719 56.966219 123.308562 57.056062 C 123.898406 57.145906 124.843719 57.290437 125.433562 57.380281 C 126.023406 57.470125 126.972625 57.614656 127.562469 57.7045 C 128.152312 57.794344 129.097625 57.934969 129.687469 58.024812 C 130.277312 58.11075 131.222625 58.251375 131.812469 58.337312 C 132.402312 58.42325 133.347625 58.563875 133.937469 58.649812 C 134.527312 58.73575 136.066375 58.958406 134.210906 58.688875 " transform="matrix(1,0,0,-1,3.293,131.392)"/>
<path style="fill-rule:nonzero;fill:rgb(0%,0%,100%);fill-opacity:1;stroke-width:1.19553;stroke-linecap:butt;stroke-linejoin:round;stroke:rgb(0%,0%,100%);stroke-opacity:1;stroke-miterlimit:10;" d="M 1.274101 -0.000903911 C -0.317429 0.320485 -1.914404 0.958441 -3.825329 2.072134 C -1.913385 0.638569 -1.912615 -0.636496 -3.825865 -2.072372 C -1.911596 -0.956368 -0.319257 -0.3187 1.274101 -0.000903911 Z M 1.274101 -0.000903911 " transform="matrix(0.98962,-0.14339,-0.14339,-0.98962,137.50462,72.70133)"/>
<path style="fill:none;stroke-width:1.19553;stroke-linecap:butt;stroke-linejoin:miter;stroke:rgb(100%,0%,0%);stroke-opacity:1;stroke-miterlimit:10;" d="M -0.00003125 0.001375 C -0.00003125 0.001375 1.535125 8.630281 2.124969 10.716219 C 2.714812 12.802156 3.660125 13.966219 4.253875 15.036531 C 4.843719 16.102937 5.789031 17.552156 6.378875 18.415437 C 6.968719 19.278719 7.914031 20.520906 8.503875 21.267 C 9.093719 22.009187 10.039031 23.11075 10.628875 23.774812 C 11.218719 24.438875 12.167937 25.438875 12.757781 26.044344 C 13.347625 26.645906 14.292937 27.567781 14.882781 28.126375 C 15.472625 28.684969 16.417937 29.544344 17.007781 30.063875 C 17.597625 30.587312 18.542937 31.395906 19.132781 31.888094 C 19.722625 32.380281 20.671844 33.145906 21.261687 33.614656 C 21.851531 34.0795 22.796844 34.809969 23.386687 35.255281 C 23.976531 35.700594 24.921844 36.395906 25.511687 36.821687 C 26.101531 37.247469 27.046844 37.915437 27.636687 38.325594 C 28.226531 38.731844 29.17575 39.372469 29.765594 39.767 C 30.355437 40.161531 31.30075 40.786531 31.890594 41.169344 C 32.480437 41.54825 33.42575 42.149812 34.015594 42.517 C 34.605437 42.888094 35.55075 43.470125 36.140594 43.825594 C 36.730437 44.184969 37.679656 44.751375 38.2695 45.099031 C 38.859344 45.446687 39.804656 45.993562 40.3945 46.333406 C 40.984344 46.669344 41.929656 47.2045 42.5195 47.536531 C 43.109344 47.864656 44.054656 48.388094 44.6445 48.708406 C 45.23825 49.032625 46.183562 49.544344 46.773406 49.856844 C 47.36325 50.17325 48.308562 50.669344 48.898406 50.977937 C 49.48825 51.282625 50.433562 51.770906 51.023406 52.071687 C 51.61325 52.372469 52.558562 52.852937 53.152312 53.145906 C 53.742156 53.442781 54.687469 53.907625 55.277312 54.196687 C 55.867156 54.48575 56.812469 54.946687 57.402312 55.227937 C 57.992156 55.513094 58.937469 55.958406 59.527312 56.239656 C 60.117156 56.517 61.066375 56.966219 61.656219 57.239656 C 62.246062 57.517 63.191375 57.950594 63.781219 58.220125 C 64.371062 58.489656 65.316375 58.915437 65.906219 59.181062 C 66.496062 59.446687 67.441375 59.868562 68.031219 60.130281 C 68.621062 60.392 69.570281 60.806062 70.160125 61.059969 C 70.749969 61.317781 71.695281 61.727937 72.285125 61.977937 C 72.874969 62.231844 73.820281 62.638094 74.410125 62.884187 C 74.999969 63.134187 75.945281 63.532625 76.535125 63.778719 C 77.124969 64.024812 78.074187 64.415437 78.664031 64.657625 C 79.253875 64.899812 80.199187 65.286531 80.789031 65.524812 C 81.378875 65.763094 82.324187 66.145906 82.914031 66.380281 C 83.503875 66.618562 84.449187 66.993562 85.039031 67.224031 C 85.628875 67.458406 86.578094 67.8295 87.167937 68.059969 C 87.757781 68.290437 88.703094 68.657625 89.292937 68.884187 C 89.882781 69.114656 90.828094 69.477937 91.417937 69.700594 C 92.007781 69.927156 92.953094 70.286531 93.542937 70.505281 C 94.136687 70.727937 95.082 71.083406 95.671844 71.302156 C 96.261687 71.524812 97.207 71.872469 97.796844 72.091219 C 98.386687 72.306062 99.332 72.653719 99.921844 72.868562 C 100.511687 73.087312 101.457 73.431062 102.05075 73.642 C 102.640594 73.856844 103.585906 74.192781 104.17575 74.403719 C 104.765594 74.614656 105.710906 74.9545 106.30075 75.161531 C 106.890594 75.368562 107.835906 75.700594 108.42575 75.903719 C 109.015594 76.11075 109.964812 76.442781 110.554656 76.645906 C 111.1445 76.849031 112.089812 77.177156 112.679656 77.380281 C 113.2695 77.5795 114.214812 77.903719 114.804656 78.102937 C 115.3945 78.306062 116.339812 78.622469 116.929656 78.821687 C 117.5195 79.020906 118.468719 79.337312 119.058562 79.532625 C 119.648406 79.731844 120.593719 80.056062 121.183562 80.251375 C 121.773406 80.446687 122.718719 80.759187 123.308562 80.950594 C 123.898406 81.145906 124.843719 81.4545 125.433562 81.645906 C 126.023406 81.837312 126.972625 82.145906 127.562469 82.333406 C 128.152312 82.524812 129.097625 82.8295 129.687469 83.017 C 130.277312 83.208406 131.222625 83.509187 131.812469 83.696687 C 132.402312 83.884187 133.347625 84.181062 133.937469 84.368562 C 134.527312 84.556062 136.066375 85.036531 134.277312 84.477937 " transform="matrix(1,0,0,-1,3.293,131.392)"/>
<path style="fill-rule:nonzero;fill:rgb(100%,0%,0%);fill-opacity:1;stroke-width:1.19553;stroke-linecap:butt;stroke-linejoin:round;stroke:rgb(100%,0%,0%);stroke-opacity:1;stroke-miterlimit:10;" d="M 1.276262 -0.000845736 C -0.318387 0.318765 -1.911381 0.95717 -3.825583 2.07286 C -1.913036 0.638376 -1.912199 -0.639134 -3.827286 -2.073568 C -1.913853 -0.957927 -0.317968 -0.31999 1.276262 -0.000845736 Z M 1.276262 -0.000845736 " transform="matrix(0.9542,-0.29903,-0.29903,-0.9542,137.571,46.91599)"/>
</g>
</svg>
