<svg xmlns="http://www.w3.org/2000/svg" xmlns:xlink="http://www.w3.org/1999/xlink" version="1.1" width="240" height="249" viewBox="0 0 240 249">
<defs>
<path id="font_1_2" d="M.33399964 .30233766C.33999635 .32835389 .36299134 .42037965 .43299867 .42037965 .43798829 .42037965 .46199037 .42037965 .48298646 .40734864 .45498658 .402359 .43499757 .37734986 .43499757 .35334779 .43499757 .33735658 .44599916 .31835938 .47299195 .31835938 .49499513 .31835938 .5269928 .3363495 .5269928 .37635804 .5269928 .42837525 .46798707 .4423828 .43399049 .4423828 .37599183 .4423828 .34098817 .38935853 .32899476 .36634828 .3039856 .43237306 .25 .4423828 .22099304 .4423828 .116989139 .4423828 .05999756 .3133545 .05999756 .28834535 .05999756 .27833558 .069992069 .27833558 .07199097 .27833558 .07998657 .27833558 .08299255 .28033448 .084991458 .28933717 .11898804 .39535523 .18499756 .42037965 .21899414 .42037965 .23799134 .42037965 .272995 .4113617 .272995 .35334779 .272995 .32235719 .2559967 .25532533 .21899414 .11528015 .20298767 .053268434 .16799927 .011245728 .12399292 .011245728 .117996219 .011245728 .09498596 .011245728 .07398987 .024276734 .09899902 .029266358 .12098694 .05027771 .12098694 .07827759 .12098694 .105270389 .09899902 .11328125 .083999637 .11328125 .053985597 .11328125 .0289917 .08728027 .0289917 .055267335 .0289917 .009246826 .07899475-.0107421879 .12298584-.0107421879 .18899536-.0107421879 .22499085 .059280397 .22799683 .0652771 .23999024 .028274537 .27598573-.0107421879 .33599855-.0107421879 .43899537-.0107421879 .49598695 .118270877 .49598695 .14328003 .49598695 .1532898 .4869995 .1532898 .48399354 .1532898 .47499085 .1532898 .47299195 .14929199 .47099305 .14228821 .43798829 .03527832 .36999513 .011245728 .33799745 .011245728 .29899598 .011245728 .2829895 .043273927 .2829895 .07727051 .2829895 .09927368 .2889862 .121276859 .2999878 .16529846L.33399964 .30233766Z"/>
<path id="font_1_3" d="M.48599244 .38136292C.48999024 .39537049 .48999024 .39736939 .48999024 .40437318 .48999024 .42237855 .47599793 .43138124 .46099855 .43138124 .45098878 .43138124 .43499757 .42536927 .42599488 .41036988 .42399598 .405365 .41600038 .37435914 .4119873 .35635377 .40499879 .33035279 .397995 .30334474 .3919983 .27633668L.34700013 .09628296C.34298707 .08126831 .2999878 .011245728 .23399353 .011245728 .18299866 .011245728 .17199707 .055267335 .17199707 .0922699 .17199707 .1382904 .18899536 .20030213 .22299195 .28833009 .23899842 .3293457 .24299622 .3403473 .24299622 .36035157 .24299622 .405365 .21099854 .4423828 .16099549 .4423828 .06599426 .4423828 .0289917 .29733277 .0289917 .28833009 .0289917 .27833558 .038986207 .27833558 .040985109 .27833558 .050994874 .27833558 .051986696 .28033448 .056991579 .29634095 .083999637 .3903656 .12399292 .42037965 .1579895 .42037965 .1659851 .42037965 .18299866 .42037965 .18299866 .3883667 .18299866 .36335755 .17298889 .3373413 .1659851 .31834413 .12599182 .21231079 .10798645 .1552887 .10798645 .10827637 .10798645 .019256592 .17098999-.0107421879 .22999573-.0107421879 .2689972-.0107421879 .30299378 .0062561037 .33099366 .03425598 .31799317-.017745972 .30599977-.06674194 .2659912-.11973572 .23999024-.15385437 .20199585-.18309021 .1559906-.18309021 .14199829-.18309021 .09700012-.18005371 .07998657-.14074707 .09599304-.14074707 .10899353-.14074707 .12298584-.1287384 .1329956-.11973572 .14299011-.10673523 .14299011-.08773804 .14299011-.056747438 .115997318-.052734376 .10598755-.052734376 .08299255-.052734376 .049987794-.068740848 .049987794-.11773682 .049987794-.16796875 .09399414-.20507813 .1559906-.20507813 .25898744-.20507813 .3619995-.11373901 .3899994-.00074768069L.48599244 .38136292Z"/>
<path id="font_2_1" d="M.6589966 .23046875C.6759949 .23046875 .69400027 .23046875 .69400027 .25045777 .69400027 .27046205 .6759949 .27046205 .6589966 .27046205H.117996219C.100997928 .27046205 .08299255 .27046205 .08299255 .25045777 .08299255 .23046875 .100997928 .23046875 .117996219 .23046875H.6589966Z"/>
<path id="font_3_6" d="M.44898988 .20022583C.44898988 .3193512 .36698915 .41944886 .25898744 .41944886 .21099854 .41944886 .16799927 .40345765 .13198853 .36842347V.5637665C.1519928 .5577698 .18499756 .55078127 .21699524 .55078127 .33999635 .55078127 .4099884 .6417694 .4099884 .6547699 .4099884 .6607666 .40699769 .6657715 .3999939 .6657715 .39898683 .6657715 .39698792 .6657715 .3919983 .66278079 .37199403 .6537781 .32299806 .6337738 .2559967 .6337738 .21598816 .6337738 .16999817 .6407776 .12298584 .6617737 .114990238 .66477969 .11299133 .66477969 .11099243 .66477969 .100997928 .66477969 .100997928 .6567688 .100997928 .6407776V.34439088C.100997928 .32637025 .100997928 .31835938 .114990238 .31835938 .12199402 .31835938 .12399292 .32136537 .12799073 .32736207 .13899231 .3433838 .17599488 .39746095 .25698854 .39746095 .30899049 .39746095 .33399964 .35139466 .34199525 .33337403 .35798646 .29632569 .3600006 .25727845 .3600006 .20722962 .3600006 .17222595 .3600006 .11222839 .33599855 .07035828 .31199647 .031463624 .2749939 .0055389406 .22898865 .0055389406 .1559906 .0055389406 .09899902 .058380128 .08198547 .11723328 .084991458 .1162262 .08799744 .115234378 .09899902 .115234378 .13198853 .115234378 .14898682 .14022827 .14898682 .16423035 .14898682 .18823242 .13198853 .21322632 .09899902 .21322632 .084991458 .21322632 .049987794 .20622254 .049987794 .16023255 .049987794 .07434082 .11898804-.022460938 .23098755-.022460938 .34700013-.022460938 .44898988 .073349 .44898988 .20022583Z"/>
<path id="font_3_4" d="M.2939911 .64004519C.2939911 .66400149 .2939911 .6660156 .2709961 .6660156 .20899964 .60227969 .12098694 .60227969 .08898926 .60227969V.57128909C.10899353 .57128909 .16799927 .57128909 .21998596 .5972748V.07902527C.21998596 .042999269 .21699524 .0309906 .1269989 .0309906H.09498596V0C.12998963 .0029907227 .21699524 .0029907227 .25698854 .0029907227 .29699708 .0029907227 .38398744 .0029907227 .4189911 0V.0309906H.3869934C.29699708 .0309906 .2939911 .041992189 .2939911 .07902527V.64004519Z"/>
<path id="font_3_3" d="M.45999146 .31976319C.45999146 .39982606 .45498658 .47988893 .41999818 .5539398 .37399293 .65000918 .2919922 .6660156 .25 .6660156 .18998719 .6660156 .116989139 .64001467 .07598877 .54693606 .04399109 .47789 .038986207 .39982606 .038986207 .31976319 .038986207 .24472046 .042999269 .15464783 .083999637 .07859802 .1269989-.0024719239 .19999695-.022460938 .24899292-.022460938 .30299378-.022460938 .3789978-.0014648438 .4229889 .09359741 .45498658 .16265869 .45999146 .2407074 .45999146 .31976319M.24899292-.00047302247C.20999146-.00047302247 .15098572 .024551392 .1329956 .12062073 .12199402 .18066406 .12199402 .2727356 .12199402 .3317871 .12199402 .39582826 .12199402 .46188355 .12998963 .5159149 .14898682 .63500979 .22399903 .64401248 .24899292 .64401248 .28199769 .64401248 .34799195 .6259918 .36698915 .52693179 .3769989 .47088624 .3769989 .39482118 .3769989 .3317871 .3769989 .25672914 .3769989 .18867493 .3659973 .12461853 .35099793 .029556275 .2939911-.00047302247 .24899292-.00047302247Z"/>
<path id="font_3_1" d="M.33099366-.2400055C.33099366-.23701477 .33099366-.23500061 .31399537-.21800232 .18899536-.0920105 .15699768 .09700012 .15699768 .25 .15699768 .42399598 .19499207 .59799197 .31799317 .72299197 .33099366 .73498538 .33099366 .7369995 .33099366 .73999026 .33099366 .746994 .32699586 .75 .32099916 .75 .31098939 .75 .22099304 .6819916 .1619873 .5549927 .11099243 .44499208 .09899902 .33399964 .09899902 .25 .09899902 .17199707 .10998535 .050994874 .16499329-.06201172 .22499085-.18501282 .31098939-.25 .32099916-.25 .32699586-.25 .33099366-.24700928 .33099366-.2400055Z"/>
<path id="font_1_1" d="M.20298767 .0009918213C.20298767 .066986087 .17799378 .10598755 .13899231 .10598755 .10598755 .10598755 .085998538 .08099365 .085998538 .052993776 .085998538 .025985718 .10598755 0 .13899231 0 .15098572 0 .1639862 .0039978029 .17399597 .0129852299 .1769867 .01499939 .17799378 .015991211 .1789856 .015991211 .17999268 .015991211 .18099976 .01499939 .18099976 .0009918213 .18099976-.07316589 .1459961-.13328552 .11299133-.16635132 .101989749-.17736817 .101989749-.17936707 .101989749-.18237305 .101989749-.18936157 .10699463-.19335938 .11199951-.19335938 .12298584-.19335938 .20298767-.116256717 .20298767 .0009918213Z"/>
<path id="font_3_5" d="M.1269989 .07699585 .23298645 .18003845C.3889923 .31811524 .44898988 .3721466 .44898988 .47216798 .44898988 .5860901 .35899354 .6660156 .23699951 .6660156 .12399292 .6660156 .049987794 .57411196 .049987794 .48516847 .049987794 .4291687 .099990848 .4291687 .102996829 .4291687 .11999512 .4291687 .15499878 .44117738 .15499878 .48217774 .15499878 .5081787 .13699341 .5341797 .101989749 .5341797 .09399414 .5341797 .09199524 .5341797 .08898926 .5331726 .11199951 .59806826 .1659851 .63500979 .22399903 .63500979 .31498719 .63500979 .35798646 .5541382 .35798646 .47216798 .35798646 .39215089 .30799867 .31311036 .25299073 .25108338L.06098938 .036987306C.049987794 .025985718 .049987794 .023986817 .049987794 0H.42099L.44898988 .17404175H.42399598C.4189911 .14402771 .4119873 .1000061 .4019928 .084991458 .394989 .07699585 .32899476 .07699585 .30699159 .07699585H.1269989Z"/>
<path id="font_3_2" d="M.2889862 .25C.2889862 .32798768 .27799989 .44898988 .22299195 .56199648 .16299439 .68499758 .07699585 .75 .066986087 .75 .06098938 .75 .056991579 .74598696 .056991579 .73999026 .056991579 .7369995 .056991579 .73498538 .07598877 .71699526 .17399597 .6179962 .23098755 .45899964 .23098755 .25 .23098755 .07899475 .19400025-.09700012 .069992069-.2230072 .056991579-.23500061 .056991579-.23701477 .056991579-.2400055 .056991579-.2460022 .06098938-.25 .066986087-.25 .07699585-.25 .16699219-.18200684 .22599793-.055007936 .2769928 .054992677 .2889862 .16600037 .2889862 .25Z"/>
<path id="font_4_1" d="M.41299439-1.1491852C.41299439-1.1451874 .41099549-1.1431885 .40899659-1.1401825 .36299134-1.0911713 .29499818-1.0101624 .25299073-.84713748 .22999573-.7561188 .22099304-.65309146 .22099304-.56007388 .22099304-.2970276 .28399659-.11299133 .4039917 .017044068 .41299439 .026031495 .41299439 .028030396 .41299439 .030029297 .41299439 .040039064 .40499879 .040039064 .40098573 .040039064 .38598634 .040039064 .33198548-.019973755 .31900025-.034973146 .21699524-.1559906 .1519928-.33602906 .1519928-.5590668 .1519928-.7010956 .1769867-.9021454 .30799867-1.071167 .31799317-1.0831757 .3829956-1.1591797 .40098573-1.1591797 .40499879-1.1591797 .41299439-1.1591797 .41299439-1.1491852Z"/>
<path id="font_5_2" d="M.13999939 .5618439C.15299988 .55784609 .19299317 .54785159 .23498535 .54785159 .3600006 .54785159 .43598939 .6358948 .43598939 .6510315 .43598939 .6620331 .42900086 .66503909 .42399598 .66503909 .42199708 .66503909 .41999818 .66503909 .41099549 .6600342 .37199403 .6450348 .32598878 .632843 .27198792 .632843 .21299744 .632843 .1639862 .6480255 .1329956 .6600342 .12298584 .66503909 .12098694 .66503909 .11999512 .66503909 .10699463 .66503909 .10699463 .6540375 .10699463 .6358948V.34292604C.10699463 .32492066 .10699463 .312912 .12298584 .312912 .1309967 .312912 .13398743 .3169098 .13899231 .32492066 .15098572 .33992005 .18899536 .39093019 .27398683 .39093019 .32998658 .39093019 .35699464 .34492494 .3659973 .32591249 .3829956 .28990174 .3849945 .24389649 .3849945 .20487976 .3849945 .1678772 .38398744 .11387634 .35598756 .069732669 .33699037 .039611818 .29699708 .008514404 .24398804 .008514404 .1789856 .008514404 .114990238 .0496521 .09199524 .11488342 .09498596 .11387634 .100997928 .11387634 .101989749 .11387634 .12998963 .11387634 .1519928 .13188172 .1519928 .16288758 .1519928 .19989014 .12298584 .21289063 .102996829 .21289063 .084991458 .21289063 .052993776 .20288086 .052993776 .15988159 .052993776 .069732669 .1309967-.021484375 .24598694-.021484375 .37098695-.021484375 .47698976 .07574463 .47698976 .19989014 .47698976 .31591798 .3929901 .4189453 .2749939 .4189453 .22499085 .4189453 .17799378 .40293885 .13999939 .368927V.5618439Z"/>
<path id="font_5_1" d="M.28199769 .20405579C.2979889 .21907044 .33999635 .2520752 .35598756 .26608277 .41799928 .32312013 .47698976 .3781433 .47698976 .46917726 .47698976 .588089 .3769989 .66503909 .2519989 .66503909 .13198853 .66503909 .052993776 .57411196 .052993776 .48516847 .052993776 .4361725 .09199524 .4291687 .10598755 .4291687 .1269989 .4291687 .1579895 .4441681 .1579895 .48217774 .1579895 .5341797 .10798645 .5341797 .09599304 .5341797 .125 .6070709 .19198609 .6320343 .24099732 .6320343 .33399964 .6320343 .38198854 .55314639 .38198854 .46917726 .38198854 .36514283 .30899049 .28910829 .19099427 .16804505L.06498718 .037994386C.052993776 .026992798 .052993776 .024993897 .052993776 0H.44799806L.47698976 .17904663H.44599916C.44299317 .1590271 .43499757 .10900879 .4229889 .08999634 .4169922 .08198547 .34098817 .08198547 .32499696 .08198547H.14698792L.28199769 .20405579Z"/>
<path id="font_6_1" d="M.19499207-.0040130617C.19499207 .053985597 .17599488 .09700012 .1349945 .09700012 .102996829 .09700012 .08699036 .070999149 .08699036 .04899597 .08699036 .026992798 .101989749 0 .13598633 0 .14898682 0 .1599884 .0039978029 .16899109 .0129852299 .17098999 .01499939 .17199707 .01499939 .17298889 .01499939 .1749878 .01499939 .1749878 .0009918213 .1749878-.0040130617 .1749878-.037078859 .16899109-.10221863 .11099243-.1673584 .099990848-.17936707 .099990848-.18136597 .099990848-.18336487 .099990848-.18836975 .10499573-.19335938 .10998535-.19335938 .117996219-.19335938 .19499207-.119262699 .19499207-.0040130617Z"/>
<path id="font_4_2" d="M.30499269-.56007388C.30499269-.41804505 .27999879-.2170105 .14898682-.047973634 .13899231-.035964967 .07398987 .040039064 .055999757 .040039064 .050994874 .040039064 .04399109 .038024904 .04399109 .030029297 .04399109 .026031495 .04598999 .023025513 .049987794 .02003479 .09799194-.031967164 .16299439-.11299133 .20399475-.27201844 .22698975-.3630371 .23599243-.4660492 .23599243-.5590668 .23599243-.6600952 .22698975-.7621155 .20098877-.86013796 .16299439-1.0001679 .10398865-1.0801697 .052993776-1.1361847 .04399109-1.1451874 .04399109-1.1471863 .04399109-1.1491852 .04399109-1.1571808 .050994874-1.1591797 .055999757-1.1591797 .070999149-1.1591797 .12599182-1.098175 .13798523-1.0841827 .23999024-.96315 .30499269-.7831116 .30499269-.56007388Z"/>
</defs>
<path transform="matrix(1.00002,0,0,-1.00002,112.877,235.09746)" stroke-width=".3985" stroke-linecap="butt" stroke-miterlimit="10" stroke-linejoin="miter" fill="none" stroke="#cbcbcb" d="M-106.30052 0H106.30052M-106.30052 21.2601H106.30052M-106.30052 42.5202H106.30052M-106.30052 63.7803H106.30052M-106.30052 85.04042H106.30052M-106.30052 106.30052H106.30052M-106.30052 127.56062H106.30052M-106.30052 148.82074H106.30052M-106.30052 170.08086H106.30052M-106.30052 191.34096H106.30052M-106.30052 212.5936H106.30052M-106.30052 0V212.60106M-85.04042 0V212.60106M-63.7803 0V212.60106M-42.5202 0V212.60106M-21.2601 0V212.60106M0 0V212.60106M21.2601 0V212.60106M42.5202 0V212.60106M63.7803 0V212.60106M85.04042 0V212.60106M106.29306 0V212.60106M106.30052 212.60106"/>
<path transform="matrix(1.00002,0,0,-1.00002,112.877,235.09746)" stroke-width=".79701" stroke-linecap="butt" stroke-miterlimit="10" stroke-linejoin="miter" fill="none" stroke="#000000" d="M-106.30052 0H115.49596"/>
<path transform="matrix(1.00002,0,0,-1.00002,228.37528,235.09746)" d="M1.0361 0C-.25902 .25902-1.55415 .77707-3.1083 1.68365-1.55415 .51805-1.55415-.51805-3.1083-1.68365-1.55415-.77707-.25902-.25902 1.0361 0Z"/>
<path transform="matrix(1.00002,0,0,-1.00002,228.37528,235.09746)" stroke-width=".79701" stroke-linecap="butt" stroke-linejoin="round" fill="none" stroke="#000000" d="M1.0361 0C-.25902 .25902-1.55415 .77707-3.1083 1.68365-1.55415 .51805-1.55415-.51805-3.1083-1.68365-1.55415-.77707-.25902-.25902 1.0361 0Z"/>
<use data-text="x" xlink:href="#font_1_2" transform="matrix(9.962799,0,0,-9.962799,233.52942,237.2425)"/>
<path transform="matrix(1.00002,0,0,-1.00002,112.877,235.09746)" stroke-width=".79701" stroke-linecap="butt" stroke-miterlimit="10" stroke-linejoin="miter" fill="none" stroke="#000000" d="M0 0V221.7965"/>
<path transform="matrix(0,-1.00002,-1.00002,-0,112.877,13.296524)" d="M1.0361 0C-.25902 .25902-1.55415 .77707-3.1083 1.68365-1.55415 .51805-1.55415-.51805-3.1083-1.68365-1.55415-.77707-.25902-.25902 1.0361 0Z"/>
<path transform="matrix(0,-1.00002,-1.00002,-0,112.877,13.296524)" stroke-width=".79701" stroke-linecap="butt" stroke-linejoin="round" fill="none" stroke="#000000" d="M1.0361 0C-.25902 .25902-1.55415 .77707-3.1083 1.68365-1.55415 .51805-1.55415-.51805-3.1083-1.68365-1.55415-.77707-.25902-.25902 1.0361 0Z"/>
<use data-text="y" xlink:href="#font_1_3" transform="matrix(9.962799,0,0,-9.962799,110.25594,6.205887)"/>
<path transform="matrix(1.00002,0,0,-1.00002,112.877,235.09746)" stroke-width=".79701" stroke-linecap="butt" stroke-miterlimit="10" stroke-linejoin="miter" fill="none" stroke="#000000" d="M-106.30052 2.12613V-2.12581"/>
<path transform="matrix(1.00002,0,0,-1.00002,112.877,235.09746)" d="M-113.66191-13.76009H-98.93913V-4.51686H-113.66191Z" fill="#ffffff"/>
<use data-text="&#x2212;" xlink:href="#font_2_1" transform="matrix(9.962799,0,0,-9.962799,.20874024,247.0317)"/>
<use data-text="5" xlink:href="#font_3_6" transform="matrix(9.962799,0,0,-9.962799,7.956909,247.0317)"/>
<path transform="matrix(1.00002,0,0,-1.00002,112.877,235.09746)" stroke-width=".79701" stroke-linecap="butt" stroke-miterlimit="10" stroke-linejoin="miter" fill="none" stroke="#000000" d="M106.30052 2.12613V-2.12581"/>
<path transform="matrix(1.00002,0,0,-1.00002,112.877,235.09746)" d="M102.81355-12.92986H109.78749V-4.51688H102.81355Z" fill="#ffffff"/>
<use data-text="5" xlink:href="#font_3_6" transform="matrix(9.962799,0,0,-9.962799,216.68909,247.0317)"/>
<path transform="matrix(1.00002,0,0,-1.00002,112.877,235.09746)" stroke-width=".79701" stroke-linecap="butt" stroke-miterlimit="10" stroke-linejoin="miter" fill="none" stroke="#000000" d="M2.12613 212.60106H-2.12581"/>
<path transform="matrix(1.00002,0,0,-1.00002,112.877,235.09746)" d="M-16.47221 208.39456H-4.5168697V216.80754H-16.47221Z" fill="#ffffff"/>
<use data-text="1" xlink:href="#font_3_4" transform="matrix(9.962799,0,0,-9.962799,97.40069,25.702256)"/>
<use data-text="0" xlink:href="#font_3_3" transform="matrix(9.962799,0,0,-9.962799,102.38209,25.702256)"/>
<path transform="matrix(1.00002,0,0,-1.00002,112.877,235.09746)" stroke-width=".79701" stroke-linecap="butt" stroke-miterlimit="10" stroke-linejoin="miter" fill="none" stroke="#000000" d="M2.12613 106.30052H-2.12581"/>
<path transform="matrix(1.00002,0,0,-1.00002,112.877,235.09746)" d="M-11.4908 102.09402H-4.51686V110.506999H-11.4908Z" fill="#ffffff"/>
<use data-text="5" xlink:href="#font_3_6" transform="matrix(9.962799,0,0,-9.962799,102.38179,132.0054)"/>
<g>
<path transform="matrix(1.00002,0,0,-1.00002,112.877,235.09746)" d="M0 42.5202H42.5202L53.15024 53.15024 0 106.30052Z" fill="#f49ac1" fill-opacity=".2"/>
<path transform="matrix(1.00002,0,0,-1.00002,112.877,235.09746)" stroke-width=".3985" stroke-linecap="butt" stroke-miterlimit="10" stroke-linejoin="miter" fill="none" stroke="#f49ac1" stroke-opacity=".2" d="M0 42.5202H42.5202L53.15024 53.15024 0 106.30052Z"/>
</g>
<path transform="matrix(1.00002,0,0,-1.00002,112.877,235.09746)" stroke-width="1.19553" stroke-linecap="butt" stroke-miterlimit="10" stroke-linejoin="miter" fill="none" stroke="#ff0000" d="M0 42.5202H42.5202L53.15024 53.15024 0 106.30052Z"/>
<path transform="matrix(1.00002,0,0,-1.00002,112.877,235.09746)" d="M2.12613 42.5202C2.12613 43.69443 1.17422 44.64633 0 44.64633-1.17422 44.64633-2.12613 43.69443-2.12613 42.5202-2.12613 41.34596-1.17422 40.39407 0 40.39407 1.17422 40.39407 2.12613 41.34596 2.12613 42.5202ZM0 42.5202" fill="#ff0000"/>
<path transform="matrix(1.00002,0,0,-1.00002,112.877,235.09746)" stroke-width=".3985" stroke-linecap="butt" stroke-miterlimit="10" stroke-linejoin="miter" fill="none" stroke="#ff0000" d="M2.12613 42.5202C2.12613 43.69443 1.17422 44.64633 0 44.64633-1.17422 44.64633-2.12613 43.69443-2.12613 42.5202-2.12613 41.34596-1.17422 40.39407 0 40.39407 1.17422 40.39407 2.12613 41.34596 2.12613 42.5202ZM0 42.5202"/>
<path transform="matrix(1.00002,0,0,-1.00002,112.877,235.09746)" d="M-28.31639 35.54626H-2.1917992V49.49414H-28.31639Z" fill="#ffffff"/>
<use data-text="(" xlink:href="#font_3_1" transform="matrix(9.962799,0,0,-9.962799,86.552478,195.06665)" fill="#ff0000"/>
<use data-text="0" xlink:href="#font_3_3" transform="matrix(9.962799,0,0,-9.962799,90.418048,195.06665)" fill="#ff0000"/>
<use data-text="," xlink:href="#font_1_1" transform="matrix(9.962799,0,0,-9.962799,95.40765,195.06665)" fill="#ff0000"/>
<use data-text="2" xlink:href="#font_3_5" transform="matrix(9.962799,0,0,-9.962799,99.83574,195.06665)" fill="#ff0000"/>
<use data-text=")" xlink:href="#font_3_2" transform="matrix(9.962799,0,0,-9.962799,104.81712,195.06665)" fill="#ff0000"/>
<path transform="matrix(1.00002,0,0,-1.00002,112.877,235.09746)" d="M44.64633 42.5202C44.64633 43.69443 43.69443 44.64633 42.5202 44.64633 41.34596 44.64633 40.39407 43.69443 40.39407 42.5202 40.39407 41.34596 41.34596 40.39407 42.5202 40.39407 43.69443 40.39407 44.64633 41.34596 44.64633 42.5202ZM42.5202 42.5202" fill="#ff0000"/>
<path transform="matrix(1.00002,0,0,-1.00002,112.877,235.09746)" stroke-width=".3985" stroke-linecap="butt" stroke-miterlimit="10" stroke-linejoin="miter" fill="none" stroke="#ff0000" d="M44.64633 42.5202C44.64633 43.69443 43.69443 44.64633 42.5202 44.64633 41.34596 44.64633 40.39407 43.69443 40.39407 42.5202 40.39407 41.34596 41.34596 40.39407 42.5202 40.39407 43.69443 40.39407 44.64633 41.34596 44.64633 42.5202ZM42.5202 42.5202"/>
<path transform="matrix(1.00002,0,0,-1.00002,112.877,235.09746)" d="M29.4579 26.38052H55.58249V40.3284H29.4579Z" fill="#ffffff"/>
<use data-text="(" xlink:href="#font_3_1" transform="matrix(9.962799,0,0,-9.962799,144.32764,204.23284)" fill="#ff0000"/>
<use data-text="2" xlink:href="#font_3_5" transform="matrix(9.962799,0,0,-9.962799,148.1932,204.23284)" fill="#ff0000"/>
<use data-text="," xlink:href="#font_1_1" transform="matrix(9.962799,0,0,-9.962799,153.1828,204.23284)" fill="#ff0000"/>
<use data-text="2" xlink:href="#font_3_5" transform="matrix(9.962799,0,0,-9.962799,157.6109,204.23284)" fill="#ff0000"/>
<use data-text=")" xlink:href="#font_3_2" transform="matrix(9.962799,0,0,-9.962799,162.59229,204.23284)" fill="#ff0000"/>
<path transform="matrix(1.00002,0,0,-1.00002,112.877,235.09746)" d="M55.27638 53.15024C55.27638 54.32448 54.32448 55.27638 53.15024 55.27638 51.97601 55.27638 51.02411 54.32448 51.02411 53.15024 51.02411 51.97601 51.97601 51.02411 53.15024 51.02411 54.32448 51.02411 55.27638 51.97601 55.27638 53.15024ZM53.15024 53.15024" fill="#ff0000"/>
<path transform="matrix(1.00002,0,0,-1.00002,112.877,235.09746)" stroke-width=".3985" stroke-linecap="butt" stroke-miterlimit="10" stroke-linejoin="miter" fill="none" stroke="#ff0000" d="M55.27638 53.15024C55.27638 54.32448 54.32448 55.27638 53.15024 55.27638 51.97601 55.27638 51.02411 54.32448 51.02411 53.15024 51.02411 51.97601 51.97601 51.02411 53.15024 51.02411 54.32448 51.02411 55.27638 51.97601 55.27638 53.15024ZM53.15024 53.15024"/>
<path transform="matrix(1.00002,0,0,-1.00002,112.877,235.09746)" d="M55.34206 53.3495H86.78853V69.68855H55.34206Z" fill="#ffffff"/>
<use data-text="(" xlink:href="#font_4_1" transform="matrix(11.95544,0,0,-11.95544,169.21613,166.88208)" fill="#ff0000"/>
<use data-text="5" xlink:href="#font_5_2" transform="matrix(7.9702599,0,0,-7.9702599,175.89127,171.85918)" fill="#ff0000"/>
<path transform="matrix(1.00002,0,0,-1.00002,-30.662869,-45.536176)" stroke-width=".4782" stroke-linecap="butt" stroke-miterlimit="10" stroke-linejoin="miter" fill="none" stroke="#ff0000" d="M206.55-219.109H210.784"/>
<use data-text="2" xlink:href="#font_5_1" transform="matrix(7.9702599,0,0,-7.9702599,175.89127,180.68935)" fill="#ff0000"/>
<use data-text="," xlink:href="#font_6_1" transform="matrix(11.95544,0,0,-11.95544,181.32038,176.56627)" fill="#ff0000"/>
<use data-text="5" xlink:href="#font_5_2" transform="matrix(7.9702599,0,0,-7.9702599,187.76052,171.85916)" fill="#ff0000"/>
<path transform="matrix(1.00002,0,0,-1.00002,-30.662869,-45.536176)" stroke-width=".4782" stroke-linecap="butt" stroke-miterlimit="10" stroke-linejoin="miter" fill="none" stroke="#ff0000" d="M218.419-219.109H222.653"/>
<use data-text="2" xlink:href="#font_5_1" transform="matrix(7.9702599,0,0,-7.9702599,187.76052,180.68935)" fill="#ff0000"/>
<use data-text=")" xlink:href="#font_4_2" transform="matrix(11.95544,0,0,-11.95544,193.19062,166.88207)" fill="#ff0000"/>
<path transform="matrix(1.00002,0,0,-1.00002,112.877,235.09746)" d="M2.12613 106.30052C2.12613 107.47476 1.17422 108.42667 0 108.42667-1.17422 108.42667-2.12613 107.47476-2.12613 106.30052-2.12613 105.1263-1.17422 104.1744 0 104.1744 1.17422 104.1744 2.12613 105.1263 2.12613 106.30052ZM0 106.30052" fill="#ff0000"/>
<path transform="matrix(1.00002,0,0,-1.00002,112.877,235.09746)" stroke-width=".3985" stroke-linecap="butt" stroke-miterlimit="10" stroke-linejoin="miter" fill="none" stroke="#ff0000" d="M2.12613 106.30052C2.12613 107.47476 1.17422 108.42667 0 108.42667-1.17422 108.42667-2.12613 107.47476-2.12613 106.30052-2.12613 105.1263-1.17422 104.1744 0 104.1744 1.17422 104.1744 2.12613 105.1263 2.12613 106.30052ZM0 106.30052"/>
<path transform="matrix(1.00002,0,0,-1.00002,112.877,235.09746)" d="M2.1918 106.49977H28.316391V120.44765H2.1918Z" fill="#ffffff"/>
<use data-text="(" xlink:href="#font_3_1" transform="matrix(9.962799,0,0,-9.962799,117.06108,124.112239)" fill="#ff0000"/>
<use data-text="0" xlink:href="#font_3_3" transform="matrix(9.962799,0,0,-9.962799,120.92665,124.112239)" fill="#ff0000"/>
<use data-text="," xlink:href="#font_1_1" transform="matrix(9.962799,0,0,-9.962799,125.91626,124.112239)" fill="#ff0000"/>
<use data-text="5" xlink:href="#font_3_6" transform="matrix(9.962799,0,0,-9.962799,130.34435,124.112239)" fill="#ff0000"/>
<use data-text=")" xlink:href="#font_3_2" transform="matrix(9.962799,0,0,-9.962799,135.32573,124.112239)" fill="#ff0000"/>
</svg>
