<svg xmlns="http://www.w3.org/2000/svg" xmlns:xlink="http://www.w3.org/1999/xlink" version="1.1" width="191" height="124" viewBox="0 0 191 124">
<defs>
<path id="font_1_1" d="M.33399964 .30233766C.33999635 .32835389 .36299134 .42037965 .43299867 .42037965 .43798829 .42037965 .46199037 .42037965 .48298646 .40734864 .45498658 .402359 .43499757 .37734986 .43499757 .35334779 .43499757 .33735658 .44599916 .31835938 .47299195 .31835938 .49499513 .31835938 .5269928 .3363495 .5269928 .37635804 .5269928 .42837525 .46798707 .4423828 .43399049 .4423828 .37599183 .4423828 .34098817 .38935853 .32899476 .36634828 .3039856 .43237306 .25 .4423828 .22099304 .4423828 .116989139 .4423828 .05999756 .3133545 .05999756 .28834535 .05999756 .27833558 .069992069 .27833558 .07199097 .27833558 .07998657 .27833558 .08299255 .28033448 .084991458 .28933717 .11898804 .39535523 .18499756 .42037965 .21899414 .42037965 .23799134 .42037965 .272995 .4113617 .272995 .35334779 .272995 .32235719 .2559967 .25532533 .21899414 .11528015 .20298767 .053268434 .16799927 .011245728 .12399292 .011245728 .117996219 .011245728 .09498596 .011245728 .07398987 .024276734 .09899902 .029266358 .12098694 .05027771 .12098694 .07827759 .12098694 .105270389 .09899902 .11328125 .083999637 .11328125 .053985597 .11328125 .0289917 .08728027 .0289917 .055267335 .0289917 .009246826 .07899475-.0107421879 .12298584-.0107421879 .18899536-.0107421879 .22499085 .059280397 .22799683 .0652771 .23999024 .028274537 .27598573-.0107421879 .33599855-.0107421879 .43899537-.0107421879 .49598695 .118270877 .49598695 .14328003 .49598695 .1532898 .4869995 .1532898 .48399354 .1532898 .47499085 .1532898 .47299195 .14929199 .47099305 .14228821 .43798829 .03527832 .36999513 .011245728 .33799745 .011245728 .29899598 .011245728 .2829895 .043273927 .2829895 .07727051 .2829895 .09927368 .2889862 .121276859 .2999878 .16529846L.33399964 .30233766Z"/>
<path id="font_1_2" d="M.48599244 .38136292C.48999024 .39537049 .48999024 .39736939 .48999024 .40437318 .48999024 .42237855 .47599793 .43138124 .46099855 .43138124 .45098878 .43138124 .43499757 .42536927 .42599488 .41036988 .42399598 .405365 .41600038 .37435914 .4119873 .35635377 .40499879 .33035279 .397995 .30334474 .3919983 .27633668L.34700013 .09628296C.34298707 .08126831 .2999878 .011245728 .23399353 .011245728 .18299866 .011245728 .17199707 .055267335 .17199707 .0922699 .17199707 .1382904 .18899536 .20030213 .22299195 .28833009 .23899842 .3293457 .24299622 .3403473 .24299622 .36035157 .24299622 .405365 .21099854 .4423828 .16099549 .4423828 .06599426 .4423828 .0289917 .29733277 .0289917 .28833009 .0289917 .27833558 .038986207 .27833558 .040985109 .27833558 .050994874 .27833558 .051986696 .28033448 .056991579 .29634095 .083999637 .3903656 .12399292 .42037965 .1579895 .42037965 .1659851 .42037965 .18299866 .42037965 .18299866 .3883667 .18299866 .36335755 .17298889 .3373413 .1659851 .31834413 .12599182 .21231079 .10798645 .1552887 .10798645 .10827637 .10798645 .019256592 .17098999-.0107421879 .22999573-.0107421879 .2689972-.0107421879 .30299378 .0062561037 .33099366 .03425598 .31799317-.017745972 .30599977-.06674194 .2659912-.11973572 .23999024-.15385437 .20199585-.18309021 .1559906-.18309021 .14199829-.18309021 .09700012-.18005371 .07998657-.14074707 .09599304-.14074707 .10899353-.14074707 .12298584-.1287384 .1329956-.11973572 .14299011-.10673523 .14299011-.08773804 .14299011-.056747438 .115997318-.052734376 .10598755-.052734376 .08299255-.052734376 .049987794-.068740848 .049987794-.11773682 .049987794-.16796875 .09399414-.20507813 .1559906-.20507813 .25898744-.20507813 .3619995-.11373901 .3899994-.00074768069L.48599244 .38136292Z"/>
<path id="font_2_2" d="M.2939911 .64004519C.2939911 .66400149 .2939911 .6660156 .2709961 .6660156 .20899964 .60227969 .12098694 .60227969 .08898926 .60227969V.57128909C.10899353 .57128909 .16799927 .57128909 .21998596 .5972748V.07902527C.21998596 .042999269 .21699524 .0309906 .1269989 .0309906H.09498596V0C.12998963 .0029907227 .21699524 .0029907227 .25698854 .0029907227 .29699708 .0029907227 .38398744 .0029907227 .4189911 0V.0309906H.3869934C.29699708 .0309906 .2939911 .041992189 .2939911 .07902527V.64004519Z"/>
<path id="font_2_1" d="M.45999146 .31976319C.45999146 .39982606 .45498658 .47988893 .41999818 .5539398 .37399293 .65000918 .2919922 .6660156 .25 .6660156 .18998719 .6660156 .116989139 .64001467 .07598877 .54693606 .04399109 .47789 .038986207 .39982606 .038986207 .31976319 .038986207 .24472046 .042999269 .15464783 .083999637 .07859802 .1269989-.0024719239 .19999695-.022460938 .24899292-.022460938 .30299378-.022460938 .3789978-.0014648438 .4229889 .09359741 .45498658 .16265869 .45999146 .2407074 .45999146 .31976319M.24899292-.00047302247C.20999146-.00047302247 .15098572 .024551392 .1329956 .12062073 .12199402 .18066406 .12199402 .2727356 .12199402 .3317871 .12199402 .39582826 .12199402 .46188355 .12998963 .5159149 .14898682 .63500979 .22399903 .64401248 .24899292 .64401248 .28199769 .64401248 .34799195 .6259918 .36698915 .52693179 .3769989 .47088624 .3769989 .39482118 .3769989 .3317871 .3769989 .25672914 .3769989 .18867493 .3659973 .12461853 .35099793 .029556275 .2939911-.00047302247 .24899292-.00047302247Z"/>
<path id="font_2_3" d="M.44898988 .20022583C.44898988 .3193512 .36698915 .41944886 .25898744 .41944886 .21099854 .41944886 .16799927 .40345765 .13198853 .36842347V.5637665C.1519928 .5577698 .18499756 .55078127 .21699524 .55078127 .33999635 .55078127 .4099884 .6417694 .4099884 .6547699 .4099884 .6607666 .40699769 .6657715 .3999939 .6657715 .39898683 .6657715 .39698792 .6657715 .3919983 .66278079 .37199403 .6537781 .32299806 .6337738 .2559967 .6337738 .21598816 .6337738 .16999817 .6407776 .12298584 .6617737 .114990238 .66477969 .11299133 .66477969 .11099243 .66477969 .100997928 .66477969 .100997928 .6567688 .100997928 .6407776V.34439088C.100997928 .32637025 .100997928 .31835938 .114990238 .31835938 .12199402 .31835938 .12399292 .32136537 .12799073 .32736207 .13899231 .3433838 .17599488 .39746095 .25698854 .39746095 .30899049 .39746095 .33399964 .35139466 .34199525 .33337403 .35798646 .29632569 .3600006 .25727845 .3600006 .20722962 .3600006 .17222595 .3600006 .11222839 .33599855 .07035828 .31199647 .031463624 .2749939 .0055389406 .22898865 .0055389406 .1559906 .0055389406 .09899902 .058380128 .08198547 .11723328 .084991458 .1162262 .08799744 .115234378 .09899902 .115234378 .13198853 .115234378 .14898682 .14022827 .14898682 .16423035 .14898682 .18823242 .13198853 .21322632 .09899902 .21322632 .084991458 .21322632 .049987794 .20622254 .049987794 .16023255 .049987794 .07434082 .11898804-.022460938 .23098755-.022460938 .34700013-.022460938 .44898988 .073349 .44898988 .20022583Z"/>
</defs>
<path transform="matrix(1,0,0,-1.00002,29.959,94.072628)" stroke-width=".3985" stroke-linecap="butt" stroke-miterlimit="10" stroke-linejoin="miter" fill="none" stroke="#00aeef" d="M-28.3468-28.3468H141.73404M-28.3468-14.17339H141.73404M-28.3468 0H141.73404M-28.3468 14.17339H141.73404M-28.3468 28.3468H141.73404M-28.3468 42.5202H141.73404M-28.3468 56.69362H141.73404M-28.3468 70.86205H141.73404M-28.3468-28.3468V70.867M-14.17339-28.3468V70.867M0-28.3468V70.867M14.17339-28.3468V70.867M28.3468-28.3468V70.867M42.5202-28.3468V70.867M56.69362-28.3468V70.867M70.867-28.3468V70.867M85.04042-28.3468V70.867M99.21382-28.3468V70.867M113.38724-28.3468V70.867M127.56062-28.3468V70.867M141.72905-28.3468V70.867M141.73404 70.867"/>
<path transform="matrix(1,0,0,-1.00002,29.959,94.072628)" stroke-width=".79701" stroke-linecap="butt" stroke-miterlimit="10" stroke-linejoin="miter" fill="none" stroke="#000000" d="M-28.3468 0H148.80356"/>
<path transform="matrix(1,0,0,-1.00002,178.76256,94.072628)" d="M1.0361 0C-.25902 .25902-1.55415 .77707-3.1083 1.68365-1.55415 .51805-1.55415-.51805-3.1083-1.68365-1.55415-.77707-.25902-.25902 1.0361 0Z"/>
<path transform="matrix(1,0,0,-1.00002,178.76256,94.072628)" stroke-width=".79701" stroke-linecap="butt" stroke-linejoin="round" fill="none" stroke="#000000" d="M1.0361 0C-.25902 .25902-1.55415 .77707-3.1083 1.68365-1.55415 .51805-1.55415-.51805-3.1083-1.68365-1.55415-.77707-.25902-.25902 1.0361 0Z"/>
<use data-text="x" xlink:href="#font_1_1" transform="matrix(9.9626,0,0,-9.962799,183.916,96.21767)"/>
<path transform="matrix(1,0,0,-1.00002,29.959,94.072628)" stroke-width=".79701" stroke-linecap="butt" stroke-miterlimit="10" stroke-linejoin="miter" fill="none" stroke="#000000" d="M0-28.3468V80.77116"/>
<path transform="matrix(0,-1.00002,-1,-0,29.959,13.29985)" d="M1.0361 0C-.25902 .25902-1.55415 .77707-3.1083 1.68365-1.55415 .51805-1.55415-.51805-3.1083-1.68365-1.55415-.77707-.25902-.25902 1.0361 0Z"/>
<path transform="matrix(0,-1.00002,-1,-0,29.959,13.29985)" stroke-width=".79701" stroke-linecap="butt" stroke-linejoin="round" fill="none" stroke="#000000" d="M1.0361 0C-.25902 .25902-1.55415 .77707-3.1083 1.68365-1.55415 .51805-1.55415-.51805-3.1083-1.68365-1.55415-.77707-.25902-.25902 1.0361 0Z"/>
<use data-text="y" xlink:href="#font_1_2" transform="matrix(9.9626,0,0,-9.962799,27.337998,6.2088625)"/>
<path transform="matrix(1,0,0,-1.00002,29.959,94.072628)" stroke-width=".3985" stroke-linecap="butt" stroke-miterlimit="10" stroke-linejoin="miter" fill="none" stroke="#000000" d="M141.73404 2.12592V-2.12613"/>
<path transform="matrix(1,0,0,-1.00002,29.959,94.072628)" d="M135.75637-12.73093H147.7117V-4.3179504H135.75637Z" fill="#ffffff"/>
<use data-text="1" xlink:href="#font_2_2" transform="matrix(9.9626,0,0,-9.962799,166.712,105.80786)"/>
<use data-text="0" xlink:href="#font_2_1" transform="matrix(9.9626,0,0,-9.962799,171.6933,105.80786)"/>
<path transform="matrix(1,0,0,-1.00002,29.959,94.072628)" stroke-width=".3985" stroke-linecap="butt" stroke-miterlimit="10" stroke-linejoin="miter" fill="none" stroke="#000000" d="M70.867 2.12592V-2.12613"/>
<path transform="matrix(1,0,0,-1.00002,29.959,94.072628)" d="M67.38004-12.73093H74.35398V-4.3179504H67.38004Z" fill="#ffffff"/>
<use data-text="5" xlink:href="#font_2_3" transform="matrix(9.9626,0,0,-9.962799,98.335,105.80786)"/>
<path transform="matrix(1,0,0,-1.00002,29.959,94.072628)" stroke-width=".3985" stroke-linecap="butt" stroke-miterlimit="10" stroke-linejoin="miter" fill="none" stroke="#000000" d="M2.12592 70.867H-2.12613"/>
<path transform="matrix(1,0,0,-1.00002,29.959,94.072628)" d="M-11.29187 66.66052H-4.31793V75.0735H-11.29187Z" fill="#ffffff"/>
<use data-text="5" xlink:href="#font_2_3" transform="matrix(9.9626,0,0,-9.962799,19.663002,26.414269)"/>
<path transform="matrix(1,0,0,-1.00002,29.959,94.072628)" stroke-width="1.19553" stroke-linecap="butt" stroke-miterlimit="10" stroke-linejoin="miter" fill="none" stroke="#ff0000" d="M0 0C0 0 1.60005 4.50314 2.21458 5.60243 2.82913 6.70174 3.81464 7.35394 4.42918 7.923 5.04372 8.49205 6.02924 9.2484 6.64377 9.70377 7.25832 10.1591 8.24382 10.81308 8.85837 11.20488 9.4729 11.59666 10.45842 12.17816 11.07297 12.52757 11.6875 12.87701 12.67302 13.40486 13.28755 13.72333 13.9021 14.04178 14.8876 14.52829 15.50215 14.82285 16.11668 15.11739 17.1022 15.57086 17.71674 15.84624 18.33128 16.1216 19.3168 16.54802 19.93134 16.80754 20.54588 17.06708 21.53139 17.47063 22.14594 17.71674 22.76047 17.96284 23.74599 18.34679 24.36052 18.58139 24.97507 18.81596 25.96057 19.18292 26.57512 19.40753 27.18965 19.63213 28.17517 19.9844 28.78972 20.20015 29.40425 20.4159 30.38977 20.75461 31.0043 20.96251 31.61885 21.1704 32.60435 21.49763 33.2189 21.69847 33.83344 21.8993 34.81895 22.21556 35.43349 22.40999 36.04803 22.60443 37.03355 22.91127 37.64809 23.09988 38.26263 23.28851 39.24814 23.58618 39.86269 23.76945 40.47722 23.95274 41.46274 24.24248 42.07727 24.42087 42.69182 24.59926 43.67732 24.88133 44.29187 25.05518 44.9064 25.22905 45.89192 25.50427 46.50647 25.67393 47.121 25.84358 48.10654 26.11221 48.72107 26.27797 49.33562 26.44373 50.32112 26.70645 50.93567 26.86859 51.5502 27.03075 52.53572 27.28795 53.15025 27.44667 53.7648 27.60542 54.7503 27.85716 55.36485 28.01266 55.97939 28.16815 56.9649 28.41492 57.57945 28.56738 58.19398 28.71985 59.1795 28.9619 59.79404 29.11153 60.40858 29.26112 61.39409 29.49876 62.00864 29.6457 62.62317 29.79265 63.60869 30.02623 64.22322 30.17058 64.83777 30.31494 65.82329 30.54425 66.43782 30.68617 67.05237 30.82811 68.03787 31.05392 68.65242 31.19354 69.26695 31.33316 70.25247 31.55504 70.867 31.69247 71.48155 31.8299 72.46706 32.04869 73.0816 32.18405 73.69614 32.31941 74.68166 32.53474 75.2962 32.66808 75.91074 32.80138 76.89626 33.01353 77.51079 33.14494 78.12534 33.27634 79.11084 33.48553 79.72539 33.61511 80.33992 33.74467 81.32544 33.95099 81.93997 34.07878 82.55452 34.20659 83.54004 34.41008 84.15457 34.5362 84.76912 34.66231 85.75462 34.86327 86.36917 34.98778 86.9837 35.11226 87.96922 35.31061 88.58376 35.43349 89.1983 35.5564 90.1838 35.7522 90.79836 35.87361 91.41289 35.99501 92.3984 36.18855 93.01295 36.30852 93.62749 36.4285 94.61302 36.61969 95.22755 36.73825 95.8421 36.8568 96.8276 37.0458 97.44215 37.16301 98.05669 37.28021 99.0422 37.4671 99.65674 37.583 100.27129 37.69888 101.2568 37.88364 101.87134 37.99823 102.48587 38.11282 103.47139 38.29553 104.08594 38.40894 104.70047 38.52232 105.68599 38.70332 106.30052 38.8155 106.91507 38.9277 107.90057 39.10654 108.51512 39.21756 109.12965 39.32857 110.11517 39.50577 110.7297 39.6157 111.34425 39.72565 112.32977 39.90111 112.9443 40.00998 113.55885 40.11884 114.54436 40.29251 115.1589 40.40033 115.77344 40.50815 116.75896 40.68025 117.37349 40.78702 117.98804 40.89378 118.97354 41.06404 119.58809 41.16983 120.20262 41.27559 121.18814 41.44455 121.80269 41.54938 122.41722 41.65417 123.40274 41.82137 124.01727 41.92525 124.63182 42.02913 125.61732 42.19511 126.23187 42.2981 126.8464 42.40108 127.83192 42.56543 128.44646 42.66748 129.061 42.76953 130.04653 42.93242 130.66106 43.03362 131.2756 43.13483 132.26111 43.29659 132.87566 43.39696 133.49019 43.49731 134.47571 43.65752 135.09024 43.75705 135.70479 43.85658 136.69029 44.01561 137.30484 44.11432 137.91938 44.21304 138.90489 44.37064 139.51944 44.46857 140.13397 44.56651 141.73404 44.8202 139.88417 44.52705"/>
<path transform="matrix(.98766,-.15652313,-.15652,-.9876798,169.84317,49.544694)" d="M1.27522 0C-.31879 .31879-1.91284 .9564-3.8257 2.07224-1.91284 .6376-1.91284-.6376-3.8257-2.07224-1.91284-.9564-.31879-.31879 1.27522 0Z" fill="#ff0000"/>
<path transform="matrix(.98766,-.15652313,-.15652,-.9876798,169.84317,49.544694)" stroke-width="1.19553" stroke-linecap="butt" stroke-linejoin="round" fill="none" stroke="#ff0000" d="M1.27522 0C-.31879 .31879-1.91284 .9564-3.8257 2.07224-1.91284 .6376-1.91284-.6376-3.8257-2.07224-1.91284-.9564-.31879-.31879 1.27522 0Z"/>
<path transform="matrix(1,0,0,-1.00002,29.959,94.072628)" d="M16.29932 14.17339C16.29932 15.34752 15.34752 16.29932 14.17339 16.29932 12.99927 16.29932 12.04747 15.34752 12.04747 14.17339 12.04747 12.99927 12.99927 12.04747 14.17339 12.04747 15.34752 12.04747 16.29932 12.99927 16.29932 14.17339ZM14.17339 14.17339" fill="#ff0000"/>
<path transform="matrix(1,0,0,-1.00002,29.959,94.072628)" stroke-width=".3985" stroke-linecap="butt" stroke-miterlimit="10" stroke-linejoin="miter" fill="none" stroke="#ff0000" d="M16.29932 14.17339C16.29932 15.34752 15.34752 16.29932 14.17339 16.29932 12.99927 16.29932 12.04747 15.34752 12.04747 14.17339 12.04747 12.99927 12.99927 12.04747 14.17339 12.04747 15.34752 12.04747 16.29932 12.99927 16.29932 14.17339ZM14.17339 14.17339"/>
<path transform="matrix(1,0,0,-1.00002,29.959,94.072628)" d="M2.12592 0C2.12592 1.17412 1.17412 2.12592 0 2.12592-1.17412 2.12592-2.12592 1.17412-2.12592 0-2.12592-1.17412-1.17412-2.12592 0-2.12592 1.17412-2.12592 2.12592-1.17412 2.12592 0ZM0 0" fill="#ff0000"/>
<path transform="matrix(1,0,0,-1.00002,29.959,94.072628)" stroke-width=".3985" stroke-linecap="butt" stroke-miterlimit="10" stroke-linejoin="miter" fill="none" stroke="#ff0000" d="M2.12592 0C2.12592 1.17412 1.17412 2.12592 0 2.12592-1.17412 2.12592-2.12592 1.17412-2.12592 0-2.12592-1.17412-1.17412-2.12592 0-2.12592 1.17412-2.12592 2.12592-1.17412 2.12592 0ZM0 0"/>
</svg>
