<svg xmlns="http://www.w3.org/2000/svg" xmlns:xlink="http://www.w3.org/1999/xlink" version="1.1" width="295" height="298" viewBox="0 0 295 298">
<defs>
<path id="font_1_1" d="M.33399964 .30233766C.33999635 .32835389 .36299134 .42037965 .43299867 .42037965 .43798829 .42037965 .46199037 .42037965 .48298646 .40734864 .45498658 .402359 .43499757 .37734986 .43499757 .35334779 .43499757 .33735658 .44599916 .31835938 .47299195 .31835938 .49499513 .31835938 .5269928 .3363495 .5269928 .37635804 .5269928 .42837525 .46798707 .4423828 .43399049 .4423828 .37599183 .4423828 .34098817 .38935853 .32899476 .36634828 .3039856 .43237306 .25 .4423828 .22099304 .4423828 .116989139 .4423828 .05999756 .3133545 .05999756 .28834535 .05999756 .27833558 .069992069 .27833558 .07199097 .27833558 .07998657 .27833558 .08299255 .28033448 .084991458 .28933717 .11898804 .39535523 .18499756 .42037965 .21899414 .42037965 .23799134 .42037965 .272995 .4113617 .272995 .35334779 .272995 .32235719 .2559967 .25532533 .21899414 .11528015 .20298767 .053268434 .16799927 .011245728 .12399292 .011245728 .117996219 .011245728 .09498596 .011245728 .07398987 .024276734 .09899902 .029266358 .12098694 .05027771 .12098694 .07827759 .12098694 .105270389 .09899902 .11328125 .083999637 .11328125 .053985597 .11328125 .0289917 .08728027 .0289917 .055267335 .0289917 .009246826 .07899475-.0107421879 .12298584-.0107421879 .18899536-.0107421879 .22499085 .059280397 .22799683 .0652771 .23999024 .028274537 .27598573-.0107421879 .33599855-.0107421879 .43899537-.0107421879 .49598695 .118270877 .49598695 .14328003 .49598695 .1532898 .4869995 .1532898 .48399354 .1532898 .47499085 .1532898 .47299195 .14929199 .47099305 .14228821 .43798829 .03527832 .36999513 .011245728 .33799745 .011245728 .29899598 .011245728 .2829895 .043273927 .2829895 .07727051 .2829895 .09927368 .2889862 .121276859 .2999878 .16529846L.33399964 .30233766Z"/>
<path id="font_1_2" d="M.48599244 .38136292C.48999024 .39537049 .48999024 .39736939 .48999024 .40437318 .48999024 .42237855 .47599793 .43138124 .46099855 .43138124 .45098878 .43138124 .43499757 .42536927 .42599488 .41036988 .42399598 .405365 .41600038 .37435914 .4119873 .35635377 .40499879 .33035279 .397995 .30334474 .3919983 .27633668L.34700013 .09628296C.34298707 .08126831 .2999878 .011245728 .23399353 .011245728 .18299866 .011245728 .17199707 .055267335 .17199707 .0922699 .17199707 .1382904 .18899536 .20030213 .22299195 .28833009 .23899842 .3293457 .24299622 .3403473 .24299622 .36035157 .24299622 .405365 .21099854 .4423828 .16099549 .4423828 .06599426 .4423828 .0289917 .29733277 .0289917 .28833009 .0289917 .27833558 .038986207 .27833558 .040985109 .27833558 .050994874 .27833558 .051986696 .28033448 .056991579 .29634095 .083999637 .3903656 .12399292 .42037965 .1579895 .42037965 .1659851 .42037965 .18299866 .42037965 .18299866 .3883667 .18299866 .36335755 .17298889 .3373413 .1659851 .31834413 .12599182 .21231079 .10798645 .1552887 .10798645 .10827637 .10798645 .019256592 .17098999-.0107421879 .22999573-.0107421879 .2689972-.0107421879 .30299378 .0062561037 .33099366 .03425598 .31799317-.017745972 .30599977-.06674194 .2659912-.11973572 .23999024-.15385437 .20199585-.18309021 .1559906-.18309021 .14199829-.18309021 .09700012-.18005371 .07998657-.14074707 .09599304-.14074707 .10899353-.14074707 .12298584-.1287384 .1329956-.11973572 .14299011-.10673523 .14299011-.08773804 .14299011-.056747438 .115997318-.052734376 .10598755-.052734376 .08299255-.052734376 .049987794-.068740848 .049987794-.11773682 .049987794-.16796875 .09399414-.20507813 .1559906-.20507813 .25898744-.20507813 .3619995-.11373901 .3899994-.00074768069L.48599244 .38136292Z"/>
<path id="font_2_1" d="M.6589966 .23046875C.6759949 .23046875 .69400027 .23046875 .69400027 .25045777 .69400027 .27046205 .6759949 .27046205 .6589966 .27046205H.117996219C.100997928 .27046205 .08299255 .27046205 .08299255 .25045777 .08299255 .23046875 .100997928 .23046875 .117996219 .23046875H.6589966Z"/>
<path id="font_3_3" d="M.44898988 .20022583C.44898988 .3193512 .36698915 .41944886 .25898744 .41944886 .21099854 .41944886 .16799927 .40345765 .13198853 .36842347V.5637665C.1519928 .5577698 .18499756 .55078127 .21699524 .55078127 .33999635 .55078127 .4099884 .6417694 .4099884 .6547699 .4099884 .6607666 .40699769 .6657715 .3999939 .6657715 .39898683 .6657715 .39698792 .6657715 .3919983 .66278079 .37199403 .6537781 .32299806 .6337738 .2559967 .6337738 .21598816 .6337738 .16999817 .6407776 .12298584 .6617737 .114990238 .66477969 .11299133 .66477969 .11099243 .66477969 .100997928 .66477969 .100997928 .6567688 .100997928 .6407776V.34439088C.100997928 .32637025 .100997928 .31835938 .114990238 .31835938 .12199402 .31835938 .12399292 .32136537 .12799073 .32736207 .13899231 .3433838 .17599488 .39746095 .25698854 .39746095 .30899049 .39746095 .33399964 .35139466 .34199525 .33337403 .35798646 .29632569 .3600006 .25727845 .3600006 .20722962 .3600006 .17222595 .3600006 .11222839 .33599855 .07035828 .31199647 .031463624 .2749939 .0055389406 .22898865 .0055389406 .1559906 .0055389406 .09899902 .058380128 .08198547 .11723328 .084991458 .1162262 .08799744 .115234378 .09899902 .115234378 .13198853 .115234378 .14898682 .14022827 .14898682 .16423035 .14898682 .18823242 .13198853 .21322632 .09899902 .21322632 .084991458 .21322632 .049987794 .20622254 .049987794 .16023255 .049987794 .07434082 .11898804-.022460938 .23098755-.022460938 .34700013-.022460938 .44898988 .073349 .44898988 .20022583Z"/>
<path id="font_3_2" d="M.2939911 .64004519C.2939911 .66400149 .2939911 .6660156 .2709961 .6660156 .20899964 .60227969 .12098694 .60227969 .08898926 .60227969V.57128909C.10899353 .57128909 .16799927 .57128909 .21998596 .5972748V.07902527C.21998596 .042999269 .21699524 .0309906 .1269989 .0309906H.09498596V0C.12998963 .0029907227 .21699524 .0029907227 .25698854 .0029907227 .29699708 .0029907227 .38398744 .0029907227 .4189911 0V.0309906H.3869934C.29699708 .0309906 .2939911 .041992189 .2939911 .07902527V.64004519Z"/>
<path id="font_3_1" d="M.45999146 .31976319C.45999146 .39982606 .45498658 .47988893 .41999818 .5539398 .37399293 .65000918 .2919922 .6660156 .25 .6660156 .18998719 .6660156 .116989139 .64001467 .07598877 .54693606 .04399109 .47789 .038986207 .39982606 .038986207 .31976319 .038986207 .24472046 .042999269 .15464783 .083999637 .07859802 .1269989-.0024719239 .19999695-.022460938 .24899292-.022460938 .30299378-.022460938 .3789978-.0014648438 .4229889 .09359741 .45498658 .16265869 .45999146 .2407074 .45999146 .31976319M.24899292-.00047302247C.20999146-.00047302247 .15098572 .024551392 .1329956 .12062073 .12199402 .18066406 .12199402 .2727356 .12199402 .3317871 .12199402 .39582826 .12199402 .46188355 .12998963 .5159149 .14898682 .63500979 .22399903 .64401248 .24899292 .64401248 .28199769 .64401248 .34799195 .6259918 .36698915 .52693179 .3769989 .47088624 .3769989 .39482118 .3769989 .3317871 .3769989 .25672914 .3769989 .18867493 .3659973 .12461853 .35099793 .029556275 .2939911-.00047302247 .24899292-.00047302247Z"/>
</defs>
<path transform="matrix(1.00003,0,0,-1,115.002017,111.079)" stroke-width=".3985" stroke-linecap="butt" stroke-miterlimit="10" stroke-linejoin="miter" fill="none" stroke="#00aeef" d="M-113.38724-184.25424H170.08086M-113.38724-170.08086H170.08086M-113.38724-155.90744H170.08086M-113.38724-141.73404H170.08086M-113.38724-127.56062H170.08086M-113.38724-113.38724H170.08086M-113.38724-99.21382H170.08086M-113.38724-85.04042H170.08086M-113.38724-70.867H170.08086M-113.38724-56.69362H170.08086M-113.38724-42.5202H170.08086M-113.38724-28.3468H170.08086M-113.38724-14.17339H170.08086M-113.38724 0H170.08086M-113.38724 14.17339H170.08086M-113.38724 28.3468H170.08086M-113.38724 42.5202H170.08086M-113.38724 56.69362H170.08086M-113.38724 70.867H170.08086M-113.38724 85.04042H170.08086M-113.38724 99.20885H170.08086M-113.38724-184.25424V99.21382M-99.21382-184.25424V99.21382M-85.04042-184.25424V99.21382M-70.867-184.25424V99.21382M-56.69362-184.25424V99.21382M-42.5202-184.25424V99.21382M-28.3468-184.25424V99.21382M-14.17339-184.25424V99.21382M0-184.25424V99.21382M14.17339-184.25424V99.21382M28.3468-184.25424V99.21382M42.5202-184.25424V99.21382M56.69362-184.25424V99.21382M70.867-184.25424V99.21382M85.04042-184.25424V99.21382M99.21382-184.25424V99.21382M113.38724-184.25424V99.21382M127.56062-184.25424V99.21382M141.73404-184.25424V99.21382M155.90744-184.25424V99.21382M170.07587-184.25424V99.21382M170.08086 99.21382"/>
<path transform="matrix(1.00003,0,0,-1,115.002017,111.079)" stroke-width=".79701" stroke-linecap="butt" stroke-miterlimit="10" stroke-linejoin="miter" fill="none" stroke="#000000" d="M-113.38724 0H168.64624"/>
<path transform="matrix(1.00003,0,0,-1,283.65333,111.079)" d="M1.0361 0C-.25902 .25902-1.55415 .77707-3.1083 1.68365-1.55415 .51805-1.55415-.51805-3.1083-1.68365-1.55415-.77707-.25902-.25902 1.0361 0Z"/>
<path transform="matrix(1.00003,0,0,-1,283.65333,111.079)" stroke-width=".79701" stroke-linecap="butt" stroke-linejoin="round" fill="none" stroke="#000000" d="M1.0361 0C-.25902 .25902-1.55415 .77707-3.1083 1.68365-1.55415 .51805-1.55415-.51805-3.1083-1.68365-1.55415-.77707-.25902-.25902 1.0361 0Z"/>
<use data-text="x" xlink:href="#font_1_1" transform="matrix(9.962899,0,0,-9.9626,288.80726,113.224)"/>
<path transform="matrix(1.00003,0,0,-1,115.002017,111.079)" stroke-width=".79701" stroke-linecap="butt" stroke-miterlimit="10" stroke-linejoin="miter" fill="none" stroke="#000000" d="M0-184.25424V97.7792"/>
<path transform="matrix(0,-1,-1.00003,-0,115.002017,13.299805)" d="M1.0361 0C-.25902 .25902-1.55415 .77707-3.1083 1.68365-1.55415 .51805-1.55415-.51805-3.1083-1.68365-1.55415-.77707-.25902-.25902 1.0361 0Z"/>
<path transform="matrix(0,-1,-1.00003,-0,115.002017,13.299805)" stroke-width=".79701" stroke-linecap="butt" stroke-linejoin="round" fill="none" stroke="#000000" d="M1.0361 0C-.25902 .25902-1.55415 .77707-3.1083 1.68365-1.55415 .51805-1.55415-.51805-3.1083-1.68365-1.55415-.77707-.25902-.25902 1.0361 0Z"/>
<use data-text="y" xlink:href="#font_1_2" transform="matrix(9.962899,0,0,-9.9626,112.380939,6.2089998)"/>
<path transform="matrix(1.00003,0,0,-1,115.002017,111.079)" stroke-width=".3985" stroke-linecap="butt" stroke-miterlimit="10" stroke-linejoin="miter" fill="none" stroke="#000000" d="M1.4174-70.867H-1.41719"/>
<path transform="matrix(1.00003,0,0,-1,115.002017,111.079)" d="M-18.33179-75.48862H-3.6090108V-66.245388H-18.33179Z" fill="#ffffff"/>
<use data-text="&#x2212;" xlink:href="#font_2_1" transform="matrix(9.962899,0,0,-9.9626,97.6655,184.741)"/>
<use data-text="5" xlink:href="#font_3_3" transform="matrix(9.962899,0,0,-9.9626,105.41472,184.741)"/>
<path transform="matrix(1.00003,0,0,-1,115.002017,111.079)" stroke-width=".3985" stroke-linecap="butt" stroke-miterlimit="10" stroke-linejoin="miter" fill="none" stroke="#000000" d="M1.4174 70.867H-1.41719"/>
<path transform="matrix(1.00003,0,0,-1,115.002017,111.079)" d="M-10.58295 66.66052H-3.6090098V75.0735H-10.58295Z" fill="#ffffff"/>
<use data-text="5" xlink:href="#font_3_3" transform="matrix(9.962899,0,0,-9.9626,105.41473,43.422006)"/>
<path transform="matrix(1.00003,0,0,-1,115.002017,111.079)" stroke-width=".3985" stroke-linecap="butt" stroke-miterlimit="10" stroke-linejoin="miter" fill="none" stroke="#000000" d="M1.4174-141.73404H-1.41719"/>
<path transform="matrix(1.00003,0,0,-1,115.002017,111.079)" d="M-23.3132-146.35565H-3.6089993V-137.11243H-23.3132Z" fill="#ffffff"/>
<use data-text="&#x2212;" xlink:href="#font_2_1" transform="matrix(9.962899,0,0,-9.9626,92.68434,255.608)"/>
<use data-text="1" xlink:href="#font_3_2" transform="matrix(9.962899,0,0,-9.9626,100.43356,255.608)"/>
<use data-text="0" xlink:href="#font_3_1" transform="matrix(9.962899,0,0,-9.9626,105.41501,255.608)"/>
<path transform="matrix(1.00003,0,0,-1,115.002017,111.079)" stroke-width=".3985" stroke-linecap="butt" stroke-miterlimit="10" stroke-linejoin="miter" fill="none" stroke="#000000" d="M-70.867 1.4174V-1.41719"/>
<path transform="matrix(1.00003,0,0,-1,115.002017,111.079)" d="M-78.2284-12.85223H-63.505624V-3.6090003H-78.2284Z" fill="#ffffff"/>
<use data-text="&#x2212;" xlink:href="#font_2_1" transform="matrix(9.962899,0,0,-9.9626,37.767686,122.105)"/>
<use data-text="5" xlink:href="#font_3_3" transform="matrix(9.962899,0,0,-9.9626,45.516908,122.105)"/>
<path transform="matrix(1.00003,0,0,-1,115.002017,111.079)" stroke-width=".3985" stroke-linecap="butt" stroke-miterlimit="10" stroke-linejoin="miter" fill="none" stroke="#000000" d="M70.867 1.4174V-1.41719"/>
<path transform="matrix(1.00003,0,0,-1,115.002017,111.079)" d="M67.38004-12.02199H74.35398V-3.6090098H67.38004Z" fill="#ffffff"/>
<use data-text="5" xlink:href="#font_3_3" transform="matrix(9.962899,0,0,-9.9626,183.38007,122.105)"/>
<path transform="matrix(1.00003,0,0,-1,115.002017,111.079)" stroke-width=".3985" stroke-linecap="butt" stroke-miterlimit="10" stroke-linejoin="miter" fill="none" stroke="#000000" d="M141.73404 1.4174V-1.41719"/>
<path transform="matrix(1.00003,0,0,-1,115.002017,111.079)" d="M135.75637-12.02199H147.7117V-3.6090098H135.75637Z" fill="#ffffff"/>
<use data-text="1" xlink:href="#font_3_2" transform="matrix(9.962899,0,0,-9.9626,251.75913,122.105)"/>
<use data-text="0" xlink:href="#font_3_1" transform="matrix(9.962899,0,0,-9.9626,256.74058,122.105)"/>
<path transform="matrix(1.00003,0,0,-1,115.002017,111.079)" stroke-width="1.59404" stroke-linecap="butt" stroke-miterlimit="10" stroke-linejoin="miter" fill="none" stroke="#0000ff" d="M0-85.04042V0H56.69362V-85.04042ZM56.69362 0"/>
<path transform="matrix(1.00003,0,0,-1,115.002017,111.079)" stroke-width=".3985" stroke-linecap="butt" stroke-dasharray="2.98883,2.98883" stroke-miterlimit="10" stroke-linejoin="miter" fill="none" stroke="#929292" d="M-66.61494 99.92232 123.30856-184.96276"/>
<path transform="matrix(1.00003,0,0,-1,115.002017,111.079)" stroke-width=".3985" stroke-linecap="butt" stroke-dasharray="2.98883,2.98883" stroke-miterlimit="10" stroke-linejoin="miter" fill="none" stroke="#929292" d="M-66.61494-184.96276 123.30856 99.92232"/>
<path transform="matrix(1.00003,0,0,-1,115.002017,111.079)" stroke-width="1.19553" stroke-linecap="butt" stroke-miterlimit="10" stroke-linejoin="miter" fill="none" stroke="#ff0000" d="M127.03923-184.32065C123.9627-179.5002 123.9627-179.5002 122.46014-177.13663 120.95758-174.77304 118.62755-171.09648 117.21736-168.86434 115.80714-166.63217 113.61961-163.15763 112.29637-161.04882 110.97313-158.93997 108.92091-155.6579 107.68031-153.66538 106.43971-151.67287 104.5176-148.57187 103.35495-146.68811 102.19229-144.80434 100.39001-141.8704 99.30077-140.08844 98.21152-138.30649 96.52365-135.53151 95.50436-133.84497 94.4851-132.15843 92.90791-129.53073 91.95454-127.93304 91.00116-126.33536 89.52415-123.8442 88.63307-122.32994 87.74199-120.8157 86.36382-118.45564 85.53221-117.01945 84.70059-115.58328 83.41476-113.3426 82.63939-111.97888 81.86401-110.61516 80.66566-108.48653 79.94382-107.19067 79.22197-105.89484 78.10779-103.87231 77.43683-102.63931 76.76588-101.4063 75.73068-99.47865 75.10805-98.30399 74.4854-97.12929 73.5258-95.29332 72.94925-94.17302 72.37271-93.05272 71.48515-91.29982 70.95265-90.22957 70.42015-89.15932 69.60188-87.48315 69.11133-86.45937 68.62077-85.43555 67.86743-83.83182 67.41708-82.85068 66.96675-81.86955 66.27707-80.33044 65.86557-79.388 65.45406-78.44559 64.82547-76.96501 64.45117-76.05833 64.07686-75.15164 63.50624-73.72786 63.16783-72.85323 62.82942-71.97858 62.31595-70.60036 62.01208-69.75453 61.70824-68.90869 61.24843-67.57658 60.97789-66.75703 60.70735-65.9375 60.3004-64.64409 60.06221-63.84778 59.82402-63.05145 59.46759-61.79411 59.26115-61.0177 59.0547-60.24127 58.74988-59.01097 58.57428-58.25183 58.39868-57.49269 58.141-56.29085 57.99554-55.54631 57.85007-54.80174 57.64151-53.6185 57.52582-52.88554 57.41011-52.1526 57.24797-50.98747 57.1616-50.2637 57.07526-49.53995 56.9607-48.3865 56.90338-47.66913 56.84607-46.95175 56.77716-45.80669 56.74854-45.09337 56.71991-44.38004 56.69737-43.23862 56.69707-42.52798 56.69678-41.81737 56.71812-40.68365 56.74638-39.97168 56.77464-39.2597 56.8436-38.11377 56.90079-37.39658 56.95798-36.67938 57.0724-35.52614 57.15858-34.80264 57.24477-34.07915 57.40646-32.91478 57.52193-32.18211 57.63737-31.44943 57.84573-30.26656 57.99078-29.522 58.13583-28.77745 58.39214-27.57497 58.56737-26.81583 58.7426-26.05669 59.04759-24.82668 59.2538-24.05061 59.46-23.27454 59.81584-22.0186 60.05356-21.22246 60.29126-20.42632 60.69696-19.13202 60.96709-18.31258 61.2372-17.4931 61.69662-16.16156 62.00041-15.31636 62.3042-14.47116 62.81836-13.09528 63.15659-12.2209 63.49483-11.34656 64.06436-9.92102 64.4382-9.01451 64.81201-8.10802 65.43973-6.62932 65.85088-5.68744 66.26202-4.74554 66.95177-3.20691 67.40152-2.22604 67.85126-1.2452 68.60236 .35841 69.0923 1.38194 69.58226 2.40547 70.40056 4.08115 70.93275 5.15086 71.46495 6.22057 72.35187 7.97195 72.92805 9.09172 73.50424 10.21149 74.46341 12.04733 75.08556 13.22137 75.70772 14.39543 76.74171 16.32117 77.41217 17.55345 78.08264 18.78575 79.19638 20.80766 79.91788 22.10289 80.63936 23.3981 81.83731 25.52559 82.61215 26.88849 83.38698 28.2514 84.67142 30.49054 85.50237 31.92583 86.33331 33.36111 87.71088 35.71954 88.60106 37.23308 89.49124 38.74658 90.96542 41.23744 91.91821 42.83423 92.87097 44.43102 94.44937 47.05608 95.46803 48.74161 96.48671 50.42715 98.17181 53.20134 99.2601 54.98248 100.34839 56.76363 102.14964 59.69594 103.31168 61.5789 104.47374 63.46187 106.39532 66.56197 107.63533 68.55359 108.87534 70.5452 110.92644 73.82573 112.24878 75.93312 113.57114 78.04048 115.75668 81.51161 117.16588 83.74216 118.57506 85.97269 120.90355 89.64702 122.40521 92.00925 123.90686 94.37148 127.98885 100.76749 126.98126 99.18874"/>
<path transform="matrix(.53796616,.84291,.8429353,-.53795,242.04506,295.39967)" d="M1.27522 0C-.31879 .31879-1.91284 .9564-3.8257 2.07224-1.91284 .6376-1.91284-.6376-3.8257-2.07224-1.91284-.9564-.31879-.31879 1.27522 0Z" fill="#ff0000"/>
<path transform="matrix(.53796616,.84291,.8429353,-.53795,242.04506,295.39967)" stroke-width="1.19553" stroke-linecap="butt" stroke-linejoin="round" fill="none" stroke="#ff0000" d="M1.27522 0C-.31879 .31879-1.91284 .9564-3.8257 2.07224-1.91284 .6376-1.91284-.6376-3.8257-2.07224-1.91284-.9564-.31879-.31879 1.27522 0Z"/>
<path transform="matrix(.53796616,-.84291,-.8429353,-.53795,241.98709,11.890259)" d="M1.27522 0C-.31879 .31879-1.91284 .9564-3.8257 2.07224-1.91284 .6376-1.91284-.6376-3.8257-2.07224-1.91284-.9564-.31879-.31879 1.27522 0Z" fill="#ff0000"/>
<path transform="matrix(.53796616,-.84291,-.8429353,-.53795,241.98709,11.890259)" stroke-width="1.19553" stroke-linecap="butt" stroke-linejoin="round" fill="none" stroke="#ff0000" d="M1.27522 0C-.31879 .31879-1.91284 .9564-3.8257 2.07224-1.91284 .6376-1.91284-.6376-3.8257-2.07224-1.91284-.9564-.31879-.31879 1.27522 0Z"/>
<path transform="matrix(1.00003,0,0,-1,115.002017,111.079)" stroke-width="1.19553" stroke-linecap="butt" stroke-miterlimit="10" stroke-linejoin="miter" fill="none" stroke="#ff0000" d="M-70.34561-184.32065C-67.26909-179.5002-67.26909-179.5002-65.76651-177.13663-64.26395-174.77304-61.93393-171.09648-60.52374-168.86434-59.11353-166.63217-56.926-163.15763-55.60275-161.04882-54.27951-158.93997-52.2273-155.6579-50.9867-153.66538-49.7461-151.67287-47.82397-148.57187-46.66133-146.68811-45.49867-144.80434-43.6964-141.8704-42.60715-140.08844-41.5179-138.30649-39.83003-135.53151-38.81075-133.84497-37.79149-132.15843-36.2143-129.53073-35.26093-127.93304-34.30754-126.33536-32.83054-123.8442-31.93945-122.32994-31.04837-120.8157-29.6702-118.45564-28.8386-117.01945-28.00697-115.58328-26.72115-113.3426-25.94577-111.97888-25.1704-110.61516-23.97203-108.48653-23.2502-107.19067-22.52835-105.89484-21.41417-103.87231-20.74321-102.63931-20.07227-101.4063-19.03706-99.47865-18.41443-98.30399-17.79178-97.12929-16.83218-95.29332-16.25563-94.17302-15.6791-93.05272-14.79153-91.29982-14.25903-90.22957-13.72653-89.15932-12.90826-87.48315-12.41771-86.45937-11.92715-85.43555-11.17381-83.83182-10.72346-82.85068-10.27312-81.86955-9.58345-80.33044-9.17195-79.388-8.76044-78.44559-8.13185-76.96501-7.75755-76.05833-7.38324-75.15164-6.81262-73.72786-6.47421-72.85323-6.1358-71.97858-5.62233-70.60036-5.31847-69.75453-5.01462-68.90869-4.55481-67.57658-4.28427-66.75703-4.01372-65.9375-3.60678-64.64409-3.36858-63.84778-3.1304-63.05145-2.77397-61.79411-2.56754-61.0177-2.36108-60.24127-2.05626-59.01097-1.88066-58.25183-1.70506-57.49269-1.44739-56.29085-1.30193-55.54631-1.15645-54.80174-.94789-53.6185-.8322-52.88554-.71649-52.1526-.55435-50.98747-.46799-50.2637-.38164-49.53995-.26707-48.3865-.20976-47.66913-.15245-46.95175-.08354-45.80669-.05492-45.09337-.02629-44.38004-.00375-43.23862-.00345-42.52798-.00316-41.81737-.02449-40.68365-.05276-39.97168-.08102-39.2597-.14998-38.11377-.20717-37.39658-.26436-36.67938-.37878-35.52614-.46497-34.80264-.55115-34.07915-.71284-32.91478-.82831-32.18211-.94376-31.44943-1.15211-30.26656-1.29716-29.522-1.44221-28.77745-1.69852-27.57497-1.87375-26.81583-2.04898-26.05669-2.35397-24.82668-2.56017-24.05061-2.76639-23.27454-3.12222-22.0186-3.35994-21.22246-3.59764-20.42632-4.00334-19.13202-4.27347-18.31258-4.54358-17.4931-5.003-16.16156-5.3068-15.31636-5.61058-14.47116-6.12473-13.09528-6.46297-12.2209-6.80121-11.34656-7.37074-9.92102-7.74458-9.01451-8.1184-8.10802-8.7461-6.62932-9.15726-5.68744-9.5684-4.74554-10.25815-3.20691-10.7079-2.22604-11.15764-1.2452-11.90874 .35841-12.39868 1.38194-12.88864 2.40547-13.70694 4.08115-14.23914 5.15086-14.77133 6.22057-15.65825 7.97195-16.23442 9.09172-16.81062 10.21149-17.76978 12.04733-18.39194 13.22137-19.0141 14.39543-20.04808 16.32117-20.71855 17.55345-21.38902 18.78575-22.50276 20.80766-23.22426 22.10289-23.94574 23.3981-25.14369 25.52559-25.91853 26.88849-26.69336 28.2514-27.9778 30.49054-28.80875 31.92583-29.6397 33.36111-31.01726 35.71954-31.90744 37.23308-32.79762 38.74658-34.2718 41.23744-35.2246 42.83423-36.17735 44.43102-37.75575 47.05608-38.77441 48.74161-39.79309 50.42715-41.4782 53.20134-42.56647 54.98248-43.65477 56.76363-45.45602 59.69594-46.61806 61.5789-47.78012 63.46187-49.7017 66.56197-50.94171 68.55359-52.18172 70.5452-54.23282 73.82573-55.55516 75.93312-56.87752 78.04048-59.06306 81.51161-60.47226 83.74216-61.88144 85.97269-64.20993 89.64702-65.7116 92.00925-67.21324 94.37148-71.29521 100.76749-70.28764 99.18874"/>
<path transform="matrix(-.53796616,.84291,.8429353,.53795,44.65429,295.39967)" d="M1.27522 0C-.31879 .31879-1.91284 .9564-3.8257 2.07224-1.91284 .6376-1.91284-.6376-3.8257-2.07224-1.91284-.9564-.31879-.31879 1.27522 0Z" fill="#ff0000"/>
<path transform="matrix(-.53796616,.84291,.8429353,.53795,44.65429,295.39967)" stroke-width="1.19553" stroke-linecap="butt" stroke-linejoin="round" fill="none" stroke="#ff0000" d="M1.27522 0C-.31879 .31879-1.91284 .9564-3.8257 2.07224-1.91284 .6376-1.91284-.6376-3.8257-2.07224-1.91284-.9564-.31879-.31879 1.27522 0Z"/>
<path transform="matrix(-.53796616,-.84291,-.8429353,.53795,44.712259,11.890259)" d="M1.27522 0C-.31879 .31879-1.91284 .9564-3.8257 2.07224-1.91284 .6376-1.91284-.6376-3.8257-2.07224-1.91284-.9564-.31879-.31879 1.27522 0Z" fill="#ff0000"/>
<path transform="matrix(-.53796616,-.84291,-.8429353,.53795,44.712259,11.890259)" stroke-width="1.19553" stroke-linecap="butt" stroke-linejoin="round" fill="none" stroke="#ff0000" d="M1.27522 0C-.31879 .31879-1.91284 .9564-3.8257 2.07224-1.91284 .6376-1.91284-.6376-3.8257-2.07224-1.91284-.9564-.31879-.31879 1.27522 0Z"/>
</svg>
