<svg xmlns="http://www.w3.org/2000/svg" xmlns:xlink="http://www.w3.org/1999/xlink" version="1.1" width="161" height="195" viewBox="0 0 161 195">
<defs>
<path id="font_1_2" d="M.33399964 .30233766C.33999635 .32835389 .36299134 .42037965 .43299867 .42037965 .43798829 .42037965 .46199037 .42037965 .48298646 .40734864 .45498658 .402359 .43499757 .37734986 .43499757 .35334779 .43499757 .33735658 .44599916 .31835938 .47299195 .31835938 .49499513 .31835938 .5269928 .3363495 .5269928 .37635804 .5269928 .42837525 .46798707 .4423828 .43399049 .4423828 .37599183 .4423828 .34098817 .38935853 .32899476 .36634828 .3039856 .43237306 .25 .4423828 .22099304 .4423828 .116989139 .4423828 .05999756 .3133545 .05999756 .28834535 .05999756 .27833558 .069992069 .27833558 .07199097 .27833558 .07998657 .27833558 .08299255 .28033448 .084991458 .28933717 .11898804 .39535523 .18499756 .42037965 .21899414 .42037965 .23799134 .42037965 .272995 .4113617 .272995 .35334779 .272995 .32235719 .2559967 .25532533 .21899414 .11528015 .20298767 .053268434 .16799927 .011245728 .12399292 .011245728 .117996219 .011245728 .09498596 .011245728 .07398987 .024276734 .09899902 .029266358 .12098694 .05027771 .12098694 .07827759 .12098694 .105270389 .09899902 .11328125 .083999637 .11328125 .053985597 .11328125 .0289917 .08728027 .0289917 .055267335 .0289917 .009246826 .07899475-.0107421879 .12298584-.0107421879 .18899536-.0107421879 .22499085 .059280397 .22799683 .0652771 .23999024 .028274537 .27598573-.0107421879 .33599855-.0107421879 .43899537-.0107421879 .49598695 .118270877 .49598695 .14328003 .49598695 .1532898 .4869995 .1532898 .48399354 .1532898 .47499085 .1532898 .47299195 .14929199 .47099305 .14228821 .43798829 .03527832 .36999513 .011245728 .33799745 .011245728 .29899598 .011245728 .2829895 .043273927 .2829895 .07727051 .2829895 .09927368 .2889862 .121276859 .2999878 .16529846L.33399964 .30233766Z"/>
<path id="font_1_3" d="M.48599244 .38136292C.48999024 .39537049 .48999024 .39736939 .48999024 .40437318 .48999024 .42237855 .47599793 .43138124 .46099855 .43138124 .45098878 .43138124 .43499757 .42536927 .42599488 .41036988 .42399598 .405365 .41600038 .37435914 .4119873 .35635377 .40499879 .33035279 .397995 .30334474 .3919983 .27633668L.34700013 .09628296C.34298707 .08126831 .2999878 .011245728 .23399353 .011245728 .18299866 .011245728 .17199707 .055267335 .17199707 .0922699 .17199707 .1382904 .18899536 .20030213 .22299195 .28833009 .23899842 .3293457 .24299622 .3403473 .24299622 .36035157 .24299622 .405365 .21099854 .4423828 .16099549 .4423828 .06599426 .4423828 .0289917 .29733277 .0289917 .28833009 .0289917 .27833558 .038986207 .27833558 .040985109 .27833558 .050994874 .27833558 .051986696 .28033448 .056991579 .29634095 .083999637 .3903656 .12399292 .42037965 .1579895 .42037965 .1659851 .42037965 .18299866 .42037965 .18299866 .3883667 .18299866 .36335755 .17298889 .3373413 .1659851 .31834413 .12599182 .21231079 .10798645 .1552887 .10798645 .10827637 .10798645 .019256592 .17098999-.0107421879 .22999573-.0107421879 .2689972-.0107421879 .30299378 .0062561037 .33099366 .03425598 .31799317-.017745972 .30599977-.06674194 .2659912-.11973572 .23999024-.15385437 .20199585-.18309021 .1559906-.18309021 .14199829-.18309021 .09700012-.18005371 .07998657-.14074707 .09599304-.14074707 .10899353-.14074707 .12298584-.1287384 .1329956-.11973572 .14299011-.10673523 .14299011-.08773804 .14299011-.056747438 .115997318-.052734376 .10598755-.052734376 .08299255-.052734376 .049987794-.068740848 .049987794-.11773682 .049987794-.16796875 .09399414-.20507813 .1559906-.20507813 .25898744-.20507813 .3619995-.11373901 .3899994-.00074768069L.48599244 .38136292Z"/>
<path id="font_2_1" d="M.6589966 .23046875C.6759949 .23046875 .69400027 .23046875 .69400027 .25045777 .69400027 .27046205 .6759949 .27046205 .6589966 .27046205H.117996219C.100997928 .27046205 .08299255 .27046205 .08299255 .25045777 .08299255 .23046875 .100997928 .23046875 .117996219 .23046875H.6589966Z"/>
<path id="font_3_5" d="M.2939911 .16503906V.07800293C.2939911 .041992189 .2919922 .0309906 .21798706 .0309906H.19699097V0C.23799134 .0029907227 .2899933 .0029907227 .33198548 .0029907227 .37399293 .0029907227 .4269867 .0029907227 .46798707 0V.0309906H.44699098C.37298585 .0309906 .37098695 .041992189 .37098695 .07800293V.16503906H.47099305V.19602967H.37098695V.65075686C.37098695 .67074587 .37098695 .6767578 .35499574 .6767578 .34599305 .6767578 .34298707 .6767578 .33499146 .66474917L.027999878 .19602967V.16503906H.2939911M.2999878 .19602967H.055999757L.2999878 .5688019V.19602967Z"/>
<path id="font_3_6" d="M.44898988 .20022583C.44898988 .3193512 .36698915 .41944886 .25898744 .41944886 .21099854 .41944886 .16799927 .40345765 .13198853 .36842347V.5637665C.1519928 .5577698 .18499756 .55078127 .21699524 .55078127 .33999635 .55078127 .4099884 .6417694 .4099884 .6547699 .4099884 .6607666 .40699769 .6657715 .3999939 .6657715 .39898683 .6657715 .39698792 .6657715 .3919983 .66278079 .37199403 .6537781 .32299806 .6337738 .2559967 .6337738 .21598816 .6337738 .16999817 .6407776 .12298584 .6617737 .114990238 .66477969 .11299133 .66477969 .11099243 .66477969 .100997928 .66477969 .100997928 .6567688 .100997928 .6407776V.34439088C.100997928 .32637025 .100997928 .31835938 .114990238 .31835938 .12199402 .31835938 .12399292 .32136537 .12799073 .32736207 .13899231 .3433838 .17599488 .39746095 .25698854 .39746095 .30899049 .39746095 .33399964 .35139466 .34199525 .33337403 .35798646 .29632569 .3600006 .25727845 .3600006 .20722962 .3600006 .17222595 .3600006 .11222839 .33599855 .07035828 .31199647 .031463624 .2749939 .0055389406 .22898865 .0055389406 .1559906 .0055389406 .09899902 .058380128 .08198547 .11723328 .084991458 .1162262 .08799744 .115234378 .09899902 .115234378 .13198853 .115234378 .14898682 .14022827 .14898682 .16423035 .14898682 .18823242 .13198853 .21322632 .09899902 .21322632 .084991458 .21322632 .049987794 .20622254 .049987794 .16023255 .049987794 .07434082 .11898804-.022460938 .23098755-.022460938 .34700013-.022460938 .44898988 .073349 .44898988 .20022583Z"/>
<path id="font_3_1" d="M.33099366-.2400055C.33099366-.23701477 .33099366-.23500061 .31399537-.21800232 .18899536-.0920105 .15699768 .09700012 .15699768 .25 .15699768 .42399598 .19499207 .59799197 .31799317 .72299197 .33099366 .73498538 .33099366 .7369995 .33099366 .73999026 .33099366 .746994 .32699586 .75 .32099916 .75 .31098939 .75 .22099304 .6819916 .1619873 .5549927 .11099243 .44499208 .09899902 .33399964 .09899902 .25 .09899902 .17199707 .10998535 .050994874 .16499329-.06201172 .22499085-.18501282 .31098939-.25 .32099916-.25 .32699586-.25 .33099366-.24700928 .33099366-.2400055Z"/>
<path id="font_3_3" d="M.2939911 .64004519C.2939911 .66400149 .2939911 .6660156 .2709961 .6660156 .20899964 .60227969 .12098694 .60227969 .08898926 .60227969V.57128909C.10899353 .57128909 .16799927 .57128909 .21998596 .5972748V.07902527C.21998596 .042999269 .21699524 .0309906 .1269989 .0309906H.09498596V0C.12998963 .0029907227 .21699524 .0029907227 .25698854 .0029907227 .29699708 .0029907227 .38398744 .0029907227 .4189911 0V.0309906H.3869934C.29699708 .0309906 .2939911 .041992189 .2939911 .07902527V.64004519Z"/>
<path id="font_1_1" d="M.20298767 .0009918213C.20298767 .066986087 .17799378 .10598755 .13899231 .10598755 .10598755 .10598755 .085998538 .08099365 .085998538 .052993776 .085998538 .025985718 .10598755 0 .13899231 0 .15098572 0 .1639862 .0039978029 .17399597 .0129852299 .1769867 .01499939 .17799378 .015991211 .1789856 .015991211 .17999268 .015991211 .18099976 .01499939 .18099976 .0009918213 .18099976-.07316589 .1459961-.13328552 .11299133-.16635132 .101989749-.17736817 .101989749-.17936707 .101989749-.18237305 .101989749-.18936157 .10699463-.19335938 .11199951-.19335938 .12298584-.19335938 .20298767-.116256717 .20298767 .0009918213Z"/>
<path id="font_3_2" d="M.2889862 .25C.2889862 .32798768 .27799989 .44898988 .22299195 .56199648 .16299439 .68499758 .07699585 .75 .066986087 .75 .06098938 .75 .056991579 .74598696 .056991579 .73999026 .056991579 .7369995 .056991579 .73498538 .07598877 .71699526 .17399597 .6179962 .23098755 .45899964 .23098755 .25 .23098755 .07899475 .19400025-.09700012 .069992069-.2230072 .056991579-.23500061 .056991579-.23701477 .056991579-.2400055 .056991579-.2460022 .06098938-.25 .066986087-.25 .07699585-.25 .16699219-.18200684 .22599793-.055007936 .2769928 .054992677 .2889862 .16600037 .2889862 .25Z"/>
<path id="font_3_4" d="M.1269989 .07699585 .23298645 .18003845C.3889923 .31811524 .44898988 .3721466 .44898988 .47216798 .44898988 .5860901 .35899354 .6660156 .23699951 .6660156 .12399292 .6660156 .049987794 .57411196 .049987794 .48516847 .049987794 .4291687 .099990848 .4291687 .102996829 .4291687 .11999512 .4291687 .15499878 .44117738 .15499878 .48217774 .15499878 .5081787 .13699341 .5341797 .101989749 .5341797 .09399414 .5341797 .09199524 .5341797 .08898926 .5331726 .11199951 .59806826 .1659851 .63500979 .22399903 .63500979 .31498719 .63500979 .35798646 .5541382 .35798646 .47216798 .35798646 .39215089 .30799867 .31311036 .25299073 .25108338L.06098938 .036987306C.049987794 .025985718 .049987794 .023986817 .049987794 0H.42099L.44898988 .17404175H.42399598C.4189911 .14402771 .4119873 .1000061 .4019928 .084991458 .394989 .07699585 .32899476 .07699585 .30699159 .07699585H.1269989Z"/>
</defs>
<path transform="matrix(1.00002,0,0,-1.00002,74.60924,105.41086)" stroke-width=".3985" stroke-linecap="butt" stroke-miterlimit="10" stroke-linejoin="miter" fill="none" stroke="#00aeef" d="M-68.03302-85.04128H68.03302M-68.03302-68.03302H68.03302M-68.03302-51.02477H68.03302M-68.03302-34.0165H68.03302M-68.03302-17.00824H68.03302M-68.03302 0H68.03302M-68.03302 17.00824H68.03302M-68.03302 34.0165H68.03302M-68.03302 51.02477H68.03302M-68.03302 68.03302H68.03302M-68.03302 85.0353H68.03302M-68.03302-85.04128V85.04128M-51.02477-85.04128V85.04128M-34.0165-85.04128V85.04128M-17.00824-85.04128V85.04128M0-85.04128V85.04128M17.00824-85.04128V85.04128M34.0165-85.04128V85.04128M51.02477-85.04128V85.04128M68.02705-85.04128V85.04128M68.03302 85.04128"/>
<path transform="matrix(1.00002,0,0,-1.00002,74.60924,105.41086)" stroke-width=".79701" stroke-linecap="butt" stroke-miterlimit="10" stroke-linejoin="miter" fill="none" stroke="#000000" d="M-68.03302 0H75.10254"/>
<path transform="matrix(1.00002,0,0,-1.00002,149.71329,105.41086)" d="M1.0361 0C-.25902 .25902-1.55415 .77707-3.1083 1.68365-1.55415 .51805-1.55415-.51805-3.1083-1.68365-1.55415-.77707-.25902-.25902 1.0361 0Z"/>
<path transform="matrix(1.00002,0,0,-1.00002,149.71329,105.41086)" stroke-width=".79701" stroke-linecap="butt" stroke-linejoin="round" fill="none" stroke="#000000" d="M1.0361 0C-.25902 .25902-1.55415 .77707-3.1083 1.68365-1.55415 .51805-1.55415-.51805-3.1083-1.68365-1.55415-.77707-.25902-.25902 1.0361 0Z"/>
<use data-text="x" xlink:href="#font_1_2" transform="matrix(9.962799,0,0,-9.962799,154.86685,107.5559)"/>
<path transform="matrix(1.00002,0,0,-1.00002,74.60924,105.41086)" stroke-width=".79701" stroke-linecap="butt" stroke-miterlimit="10" stroke-linejoin="miter" fill="none" stroke="#000000" d="M0-85.04128V92.11078"/>
<path transform="matrix(0,-1.00002,-1.00002,-0,74.60924,13.298233)" d="M1.0361 0C-.25902 .25902-1.55415 .77707-3.1083 1.68365-1.55415 .51805-1.55415-.51805-3.1083-1.68365-1.55415-.77707-.25902-.25902 1.0361 0Z"/>
<path transform="matrix(0,-1.00002,-1.00002,-0,74.60924,13.298233)" stroke-width=".79701" stroke-linecap="butt" stroke-linejoin="round" fill="none" stroke="#000000" d="M1.0361 0C-.25902 .25902-1.55415 .77707-3.1083 1.68365-1.55415 .51805-1.55415-.51805-3.1083-1.68365-1.55415-.77707-.25902-.25902 1.0361 0Z"/>
<use data-text="y" xlink:href="#font_1_3" transform="matrix(9.962799,0,0,-9.962799,71.98818,6.206871)"/>
<path transform="matrix(1.00002,0,0,-1.00002,74.60924,105.41086)" stroke-width=".79701" stroke-linecap="butt" stroke-miterlimit="10" stroke-linejoin="miter" fill="none" stroke="#000000" d="M-68.03302 1.70091V-1.70065"/>
<path transform="matrix(1.00002,0,0,-1.00002,74.60924,105.41086)" d="M-75.39442-13.33495H-60.67164V-4.0917208H-75.39442Z" fill="#ffffff"/>
<use data-text="&#x2212;" xlink:href="#font_2_1" transform="matrix(9.962799,0,0,-9.962799,.20974732,116.91909)"/>
<use data-text="4" xlink:href="#font_3_5" transform="matrix(9.962799,0,0,-9.962799,7.957901,116.91909)"/>
<path transform="matrix(1.00002,0,0,-1.00002,74.60924,105.41086)" stroke-width=".79701" stroke-linecap="butt" stroke-miterlimit="10" stroke-linejoin="miter" fill="none" stroke="#000000" d="M68.03302 1.70091V-1.70065"/>
<path transform="matrix(1.00002,0,0,-1.00002,74.60924,105.41086)" d="M64.54605-12.5047H71.51999V-4.0917198H64.54605Z" fill="#ffffff"/>
<use data-text="4" xlink:href="#font_3_5" transform="matrix(9.962799,0,0,-9.962799,140.15256,116.91909)"/>
<path transform="matrix(1.00002,0,0,-1.00002,74.60924,105.41086)" stroke-width=".79701" stroke-linecap="butt" stroke-miterlimit="10" stroke-linejoin="miter" fill="none" stroke="#000000" d="M1.70091-85.04128H-1.70065"/>
<path transform="matrix(1.00002,0,0,-1.00002,74.60924,105.41086)" d="M-18.8145-89.66289H-4.0917208V-80.419658H-18.8145Z" fill="#ffffff"/>
<use data-text="&#x2212;" xlink:href="#font_2_1" transform="matrix(9.962799,0,0,-9.962799,56.79088,193.24863)"/>
<use data-text="5" xlink:href="#font_3_6" transform="matrix(9.962799,0,0,-9.962799,64.53903,193.24863)"/>
<path transform="matrix(1.00002,0,0,-1.00002,74.60924,105.41086)" stroke-width=".79701" stroke-linecap="butt" stroke-miterlimit="10" stroke-linejoin="miter" fill="none" stroke="#000000" d="M1.70091 85.04128H-1.70065"/>
<path transform="matrix(1.00002,0,0,-1.00002,74.60924,105.41086)" d="M-11.06564 80.83478H-4.0917007V89.24776H-11.06564Z" fill="#ffffff"/>
<use data-text="5" xlink:href="#font_3_6" transform="matrix(9.962799,0,0,-9.962799,64.54004,23.578217)"/>
<path transform="matrix(1.00002,0,0,-1.00002,74.60924,105.41086)" stroke-width="1.19553" stroke-linecap="butt" stroke-miterlimit="10" stroke-linejoin="miter" fill="none" stroke="#ff0000" d="M-37.6189-83.2131C-37.17274-81.23715-37.17274-81.23715-36.84299-79.80846-36.51323-78.37979-35.98438-76.12563-35.65462-74.74304-35.32486-73.36046-34.79602-71.18022-34.46625-69.84372-34.13649-68.50722-33.60765-66.40091-33.27788-65.11049-32.94812-63.82008-32.4193-61.78772-32.08952-60.54338-31.75977-59.29903-31.23093-57.34033-30.90115-56.14209-30.5714-54.94383-30.04256-53.05931-29.71278-51.90715-29.38303-50.75497-28.85419-48.94414-28.52443-47.83804-28.19466-46.73193-27.66582-44.99506-27.33606-43.93503-27.00629-42.87502-26.47745-41.21205-26.14769-40.19814-25.81792-39.1842-25.28908-37.59515-24.95932-36.62732-24.62955-35.65948-24.10071-34.1444-23.77095-33.22261-23.44118-32.30084-22.91235-30.85942-22.5826-29.98373-22.25284-29.10805-21.72398-27.7408-21.39423-26.91121-21.06447-26.08162-20.53561-24.78809-20.20586-24.00453-19.8761-23.22098-19.34724-22.00139-19.01749-21.26395-18.68773-20.52647-18.15887-19.38081-17.82912-18.68944-17.49936-17.99808-16.9705-16.92632-16.64075-16.28105-16.31099-15.63579-15.78214-14.63791-15.45238-14.03874-15.12262-13.43958-14.59377-12.51566-14.264-11.96255-13.93425-11.40942-13.40541-10.5592-13.07565-10.05219-12.7459-9.54515-12.21704-8.76912-11.88728-8.30817-11.55753-7.84723-11.02867-7.14488-10.69891-6.73-10.36916-6.31511-9.8403-5.68672-9.51054-5.31792-9.18079-4.94911-8.65195-4.39464-8.32217-4.07193-7.99242-3.74922-7.4636-3.26866-7.13382-2.99205-6.80406-2.71542-6.2752-2.30882-5.94543-2.07826-5.61568-1.8477-5.08685-1.51479-4.75706-1.3303-4.4273-1.14584-3.89848-.88708-3.56871-.74872-3.23895-.61034-2.71011-.42526-2.38036-.33295-2.05058-.24063-1.52174-.12949-1.19199-.08328-.86221-.0371-.33337-.00012-.00362 0 .32613 .00012 .85495-.03635 1.18471-.08224 1.51448-.12816 2.04332-.23885 2.37308-.33087 2.70285-.42291 3.23167-.60748 3.56143-.74559 3.8912-.88371 4.42006-1.14224 4.74982-1.32642 5.07957-1.51059 5.60843-1.84283 5.93819-2.07307 6.26794-2.3033 6.79678-2.70946 7.12654-2.98581 7.4563-3.26219 7.98515-3.74248 8.31491-4.06493 8.64467-4.38739 9.17352-4.94136 9.50328-5.30988 9.83304-5.67839 10.3619-6.30635 10.69165-6.7209 11.02141-7.13547 11.55026-7.83713 11.88002-8.29778 12.20978-8.75844 12.73862-9.53423 13.06837-10.04102 13.39813-10.54779 13.927-11.3975 14.25676-11.95035 14.58652-12.50319 15.11537-13.42662 15.44513-14.0255 15.77489-14.6244 16.30373-15.6218 16.63348-16.26678 16.96324-16.91176 17.49208-17.98306 17.82185-18.67413 18.15161-19.36522 18.68045-20.51042 19.01022-21.24759 19.33998-21.98474 19.86882-23.20389 20.1986-23.98714 20.52835-24.77039 21.05719-26.06343 21.38696-26.89278 21.71672-27.72214 22.24554-29.08913 22.57532-29.96454 22.90508-30.83994 23.43391-32.28062 23.76367-33.20212 24.09344-34.1236 24.6223-35.63846 24.95206-36.60603 25.28183-37.57362 25.81065-39.16217 26.14041-40.17581 26.47018-41.18945 26.99902-42.85196 27.32878-43.91168 27.65855-44.9714 28.1874-46.70782 28.51715-47.81364 28.84692-48.91948 29.37576-50.7298 29.70552-51.8817 30.0353-53.03362 30.56413-54.9179 30.89389-56.11586 31.22365-57.31384 31.75249-59.2718 32.08224-60.51585 32.412-61.75993 32.94086-63.79207 33.27061-65.08221 33.60037-66.37236 34.12923-68.4782 34.45898-69.81439 34.78874-71.1506 35.3176-73.33038 35.64735-74.71268 35.97711-76.09497 36.50597-78.34866 36.83572-79.77705 37.16548-81.20544 38.0241-85.00754 37.61156-83.18066"/>
<path transform="matrix(-.22021441,.97540959,.97540959,.22021441,36.989587,188.62561)" d="M1.27522 0C-.31879 .31879-1.91284 .9564-3.8257 2.07224-1.91284 .6376-1.91284-.6376-3.8257-2.07224-1.91284-.9564-.31879-.31879 1.27522 0Z" fill="#ff0000"/>
<path transform="matrix(-.22021441,.97540959,.97540959,.22021441,36.989587,188.62561)" stroke-width="1.19553" stroke-linecap="butt" stroke-linejoin="round" fill="none" stroke="#ff0000" d="M1.27522 0C-.31879 .31879-1.91284 .9564-3.8257 2.07224-1.91284 .6376-1.91284-.6376-3.8257-2.07224-1.91284-.9564-.31879-.31879 1.27522 0Z"/>
<path transform="matrix(.2202644,.97540959,.97540959,-.2202644,112.22155,188.59317)" d="M1.27522 0C-.31879 .31879-1.91284 .9564-3.8257 2.07224-1.91284 .6376-1.91284-.6376-3.8257-2.07224-1.91284-.9564-.31879-.31879 1.27522 0Z" fill="#ff0000"/>
<path transform="matrix(.2202644,.97540959,.97540959,-.2202644,112.22155,188.59317)" stroke-width="1.19553" stroke-linecap="butt" stroke-linejoin="round" fill="none" stroke="#ff0000" d="M1.27522 0C-.31879 .31879-1.91284 .9564-3.8257 2.07224-1.91284 .6376-1.91284-.6376-3.8257-2.07224-1.91284-.9564-.31879-.31879 1.27522 0Z"/>
<path transform="matrix(1.00002,0,0,-1.00002,74.60924,105.41086)" d="M-15.30733-17.00824C-15.30733-16.06885-16.06885-15.30733-17.00824-15.30733-17.94763-15.30733-18.70915-16.06885-18.70915-17.00824-18.70915-17.94763-17.94763-18.70915-17.00824-18.70915-16.06885-18.70915-15.30733-17.94763-15.30733-17.00824ZM-17.00824-17.00824" fill="#ff0000"/>
<path transform="matrix(1.00002,0,0,-1.00002,74.60924,105.41086)" stroke-width=".3985" stroke-linecap="butt" stroke-miterlimit="10" stroke-linejoin="miter" fill="none" stroke="#ff0000" d="M-15.30733-17.00824C-15.30733-16.06885-16.06885-15.30733-17.00824-15.30733-17.94763-15.30733-18.70915-16.06885-18.70915-17.00824-18.70915-17.94763-17.94763-18.70915-17.00824-18.70915-16.06885-18.70915-15.30733-17.94763-15.30733-17.00824ZM-17.00824-17.00824"/>
<path transform="matrix(1.00002,0,0,-1.00002,74.60924,105.41086)" d="M-59.67207-22.9859H-20.04234V-11.0305809H-59.67207Z" fill="#ffffff"/>
<use data-text="(" xlink:href="#font_3_1" transform="matrix(9.962799,0,0,-9.962799,15.932068,124.91025)" fill="#ff0000"/>
<use data-text="&#x2212;" xlink:href="#font_2_1" transform="matrix(9.962799,0,0,-9.962799,19.806138,124.91025)" fill="#ff0000"/>
<use data-text="1" xlink:href="#font_3_3" transform="matrix(9.962799,0,0,-9.962799,27.555283,124.91025)" fill="#ff0000"/>
<use data-text="," xlink:href="#font_1_1" transform="matrix(9.962799,0,0,-9.962799,32.536394,124.91025)" fill="#ff0000"/>
<use data-text="&#x2212;" xlink:href="#font_2_1" transform="matrix(9.962799,0,0,-9.962799,36.964479,124.91025)" fill="#ff0000"/>
<use data-text="1" xlink:href="#font_3_3" transform="matrix(9.962799,0,0,-9.962799,44.713624,124.91025)" fill="#ff0000"/>
<use data-text=")" xlink:href="#font_3_2" transform="matrix(9.962799,0,0,-9.962799,49.695009,124.91025)" fill="#ff0000"/>
<path transform="matrix(1.00002,0,0,-1.00002,74.60924,105.41086)" d="M18.70915-17.00824C18.70915-16.06885 17.94763-15.30733 17.00824-15.30733 16.06885-15.30733 15.30733-16.06885 15.30733-17.00824 15.30733-17.94763 16.06885-18.70915 17.00824-18.70915 17.94763-18.70915 18.70915-17.94763 18.70915-17.00824ZM17.00824-17.00824" fill="#ff0000"/>
<path transform="matrix(1.00002,0,0,-1.00002,74.60924,105.41086)" stroke-width=".3985" stroke-linecap="butt" stroke-miterlimit="10" stroke-linejoin="miter" fill="none" stroke="#ff0000" d="M18.70915-17.00824C18.70915-16.06885 17.94763-15.30733 17.00824-15.30733 16.06885-15.30733 15.30733-16.06885 15.30733-17.00824 15.30733-17.94763 16.06885-18.70915 17.00824-18.70915 17.94763-18.70915 18.70915-17.94763 18.70915-17.00824ZM17.00824-17.00824"/>
<path transform="matrix(1.00002,0,0,-1.00002,74.60924,105.41086)" d="M21.45934-22.9859H53.34021V-11.0305809H21.45934Z" fill="#ffffff"/>
<use data-text="(" xlink:href="#font_3_1" transform="matrix(9.962799,0,0,-9.962799,97.06569,124.91025)" fill="#ff0000"/>
<use data-text="1" xlink:href="#font_3_3" transform="matrix(9.962799,0,0,-9.962799,100.93126,124.91025)" fill="#ff0000"/>
<use data-text="," xlink:href="#font_1_1" transform="matrix(9.962799,0,0,-9.962799,105.92087,124.91025)" fill="#ff0000"/>
<use data-text="&#x2212;" xlink:href="#font_2_1" transform="matrix(9.962799,0,0,-9.962799,110.34895,124.91025)" fill="#ff0000"/>
<use data-text="1" xlink:href="#font_3_3" transform="matrix(9.962799,0,0,-9.962799,118.0981,124.91025)" fill="#ff0000"/>
<use data-text=")" xlink:href="#font_3_2" transform="matrix(9.962799,0,0,-9.962799,123.07948,124.91025)" fill="#ff0000"/>
<path transform="matrix(1.00002,0,0,-1.00002,74.60924,105.41086)" d="M35.71742-68.03302C35.71742-67.09363 34.95589-66.3321 34.0165-66.3321 33.07712-66.3321 32.31558-67.09363 32.31558-68.03302 32.31558-68.97241 33.07712-69.73395 34.0165-69.73395 34.95589-69.73395 35.71742-68.97241 35.71742-68.03302ZM34.0165-68.03302" fill="#ff0000"/>
<path transform="matrix(1.00002,0,0,-1.00002,74.60924,105.41086)" stroke-width=".3985" stroke-linecap="butt" stroke-miterlimit="10" stroke-linejoin="miter" fill="none" stroke="#ff0000" d="M35.71742-68.03302C35.71742-67.09363 34.95589-66.3321 34.0165-66.3321 33.07712-66.3321 32.31558-67.09363 32.31558-68.03302 32.31558-68.97241 33.07712-69.73395 34.0165-69.73395 34.95589-69.73395 35.71742-68.97241 35.71742-68.03302ZM34.0165-68.03302"/>
<path transform="matrix(1.00002,0,0,-1.00002,74.60924,105.41086)" d="M39.88503-75.00696H73.75845V-61.05908H39.88503Z" fill="#ffffff"/>
<use data-text="(" xlink:href="#font_3_1" transform="matrix(9.962799,0,0,-9.962799,116.488079,175.93628)" fill="#ff0000"/>
<use data-text="2" xlink:href="#font_3_4" transform="matrix(9.962799,0,0,-9.962799,120.353649,175.93628)" fill="#ff0000"/>
<use data-text="," xlink:href="#font_1_1" transform="matrix(9.962799,0,0,-9.962799,125.343257,175.93628)" fill="#ff0000"/>
<use data-text="&#x2212;" xlink:href="#font_2_1" transform="matrix(9.962799,0,0,-9.962799,129.77133,175.93628)" fill="#ff0000"/>
<use data-text="4" xlink:href="#font_3_5" transform="matrix(9.962799,0,0,-9.962799,137.52048,175.93628)" fill="#ff0000"/>
<use data-text=")" xlink:href="#font_3_2" transform="matrix(9.962799,0,0,-9.962799,142.50186,175.93628)" fill="#ff0000"/>
</svg>
