<svg xmlns="http://www.w3.org/2000/svg" xmlns:xlink="http://www.w3.org/1999/xlink" version="1.1" width="183" height="208" viewBox="0 0 183 208">
<defs>
<path id="font_1_2" d="M.20599365 .3996582H.2999878C.31999208 .3996582 .32998658 .3996582 .32998658 .41966249 .32998658 .43066407 .31999208 .43066407 .3019867 .43066407H.21398926C.25 .5724945 .25498963 .59246829 .25498963 .59846499 .25498963 .61546328 .24299622 .62545779 .22599793 .62545779 .22299195 .62545779 .19499207 .62446597 .18598938 .58947756L.14698792 .43066407H.052993776C.032989503 .43066407 .022994996 .43066407 .022994996 .4116516 .022994996 .3996582 .0309906 .3996582 .050994874 .3996582H.13899231C.066986087 .11608887 .06298828 .099121097 .06298828 .08114624 .06298828 .02722168 .100997928-.0107421879 .15499878-.0107421879 .25698854-.0107421879 .31399537 .13505554 .31399537 .14305115 .31399537 .1530304 .30599977 .1530304 .3019867 .1530304 .29299928 .1530304 .2919922 .15003968 .2869873 .13905335 .24398804 .035217287 .19099427 .011245728 .15699768 .011245728 .13598633 .011245728 .12599182 .024230957 .12599182 .057174684 .12599182 .08114624 .12799073 .088134769 .13198853 .10510254L.20599365 .3996582Z"/>
<path id="font_1_1" d="M.30299378 .3157959H.47299195C.61499026 .3157959 .7539978 .41973878 .7539978 .53167727 .7539978 .6086273 .6879883 .6826172 .5569916 .6826172H.23298645C.21398926 .6826172 .20298767 .6826172 .20298767 .66360476 .20298767 .6516113 .21199036 .6516113 .23199463 .6516113 .24499512 .6516113 .2630005 .65060427 .2749939 .6496124 .29100038 .6476135 .29699708 .64460757 .29699708 .6336212 .29699708 .6296234 .29599 .62661746 .29299928 .614624L.15899658 .07795715C.14898682 .038986207 .14698792 .0309906 .067993167 .0309906 .050994874 .0309906 .039993287 .0309906 .039993287 .011993408 .039993287 0 .051986696 0 .054992677 0 .08299255 0 .1539917 .0029907227 .18199158 .0029907227 .20298767 .0029907227 .22499085 .0019989014 .24598694 .0019989014 .2679901 .0019989014 .2899933 0 .31098939 0 .31799317 0 .33099366 0 .33099366 .019989014 .33099366 .0309906 .32199098 .0309906 .30299378 .0309906 .2659912 .0309906 .23799134 .0309906 .23799134 .048980714 .23799134 .054977418 .23999024 .05996704 .24099732 .065963748L.30299378 .3157959M.375 .6136322C.38398744 .64860537 .38598634 .6516113 .42900086 .6516113H.5249939C.60798647 .6516113 .6609955 .62461856 .6609955 .55566409 .6609955 .5166931 .6409912 .43074037 .60198977 .39476014 .5519867 .34977723 .49198915 .34179688 .44799806 .34179688H.30699159L.375 .6136322Z"/>
<path id="font_2_3" d="M.44898988 .20022583C.44898988 .3193512 .36698915 .41944886 .25898744 .41944886 .21099854 .41944886 .16799927 .40345765 .13198853 .36842347V.5637665C.1519928 .5577698 .18499756 .55078127 .21699524 .55078127 .33999635 .55078127 .4099884 .6417694 .4099884 .6547699 .4099884 .6607666 .40699769 .6657715 .3999939 .6657715 .39898683 .6657715 .39698792 .6657715 .3919983 .66278079 .37199403 .6537781 .32299806 .6337738 .2559967 .6337738 .21598816 .6337738 .16999817 .6407776 .12298584 .6617737 .114990238 .66477969 .11299133 .66477969 .11099243 .66477969 .100997928 .66477969 .100997928 .6567688 .100997928 .6407776V.34439088C.100997928 .32637025 .100997928 .31835938 .114990238 .31835938 .12199402 .31835938 .12399292 .32136537 .12799073 .32736207 .13899231 .3433838 .17599488 .39746095 .25698854 .39746095 .30899049 .39746095 .33399964 .35139466 .34199525 .33337403 .35798646 .29632569 .3600006 .25727845 .3600006 .20722962 .3600006 .17222595 .3600006 .11222839 .33599855 .07035828 .31199647 .031463624 .2749939 .0055389406 .22898865 .0055389406 .1559906 .0055389406 .09899902 .058380128 .08198547 .11723328 .084991458 .1162262 .08799744 .115234378 .09899902 .115234378 .13198853 .115234378 .14898682 .14022827 .14898682 .16423035 .14898682 .18823242 .13198853 .21322632 .09899902 .21322632 .084991458 .21322632 .049987794 .20622254 .049987794 .16023255 .049987794 .07434082 .11898804-.022460938 .23098755-.022460938 .34700013-.022460938 .44898988 .073349 .44898988 .20022583Z"/>
<path id="font_2_2" d="M.2939911 .64004519C.2939911 .66400149 .2939911 .6660156 .2709961 .6660156 .20899964 .60227969 .12098694 .60227969 .08898926 .60227969V.57128909C.10899353 .57128909 .16799927 .57128909 .21998596 .5972748V.07902527C.21998596 .042999269 .21699524 .0309906 .1269989 .0309906H.09498596V0C.12998963 .0029907227 .21699524 .0029907227 .25698854 .0029907227 .29699708 .0029907227 .38398744 .0029907227 .4189911 0V.0309906H.3869934C.29699708 .0309906 .2939911 .041992189 .2939911 .07902527V.64004519Z"/>
<path id="font_2_1" d="M.45999146 .31976319C.45999146 .39982606 .45498658 .47988893 .41999818 .5539398 .37399293 .65000918 .2919922 .6660156 .25 .6660156 .18998719 .6660156 .116989139 .64001467 .07598877 .54693606 .04399109 .47789 .038986207 .39982606 .038986207 .31976319 .038986207 .24472046 .042999269 .15464783 .083999637 .07859802 .1269989-.0024719239 .19999695-.022460938 .24899292-.022460938 .30299378-.022460938 .3789978-.0014648438 .4229889 .09359741 .45498658 .16265869 .45999146 .2407074 .45999146 .31976319M.24899292-.00047302247C.20999146-.00047302247 .15098572 .024551392 .1329956 .12062073 .12199402 .18066406 .12199402 .2727356 .12199402 .3317871 .12199402 .39582826 .12199402 .46188355 .12998963 .5159149 .14898682 .63500979 .22399903 .64401248 .24899292 .64401248 .28199769 .64401248 .34799195 .6259918 .36698915 .52693179 .3769989 .47088624 .3769989 .39482118 .3769989 .3317871 .3769989 .25672914 .3769989 .18867493 .3659973 .12461853 .35099793 .029556275 .2939911-.00047302247 .24899292-.00047302247Z"/>
</defs>
<path transform="matrix(1.00005,0,0,-1.00006,22.595475,191.65778)" stroke-width=".3985" stroke-linecap="butt" stroke-miterlimit="10" stroke-linejoin="miter" fill="none" stroke="#00aeef" d="M0 0H141.73404M0 14.17339H141.73404M0 28.3468H141.73404M0 42.5202H141.73404M0 56.69362H141.73404M0 70.867H141.73404M0 85.04042H141.73404M0 99.21382H141.73404M0 113.38724H141.73404M0 127.56062H141.73404M0 141.73404H141.73404M0 155.90744H141.73404M0 170.07587H141.73404M0 0V170.08086M14.17339 0V170.08086M28.3468 0V170.08086M42.5202 0V170.08086M56.69362 0V170.08086M70.867 0V170.08086M85.04042 0V170.08086M99.21382 0V170.08086M113.38724 0V170.08086M127.56062 0V170.08086M141.72905 0V170.08086M141.73404 170.08086"/>
<path transform="matrix(1.00005,0,0,-1.00006,22.595475,191.65778)" stroke-width="1.19553" stroke-linecap="butt" stroke-miterlimit="10" stroke-linejoin="miter" fill="none" stroke="#000000" d="M0 0H149.78238"/>
<path transform="matrix(1.00005,0,0,-1.00006,172.38533,191.65778)" d="M1.27522 0C-.31879 .31879-1.91284 .9564-3.8257 2.07224-1.91284 .6376-1.91284-.6376-3.8257-2.07224-1.91284-.9564-.31879-.31879 1.27522 0Z"/>
<path transform="matrix(1.00005,0,0,-1.00006,172.38533,191.65778)" stroke-width="1.19553" stroke-linecap="butt" stroke-linejoin="round" fill="none" stroke="#000000" d="M1.27522 0C-.31879 .31879-1.91284 .9564-3.8257 2.07224-1.91284 .6376-1.91284-.6376-3.8257-2.07224-1.91284-.9564-.31879-.31879 1.27522 0Z"/>
<use data-text="t" xlink:href="#font_1_2" transform="matrix(9.963098,0,0,-9.963197,178.17725,194.72196)"/>
<path transform="matrix(1.00005,0,0,-1.00006,22.595475,191.65778)" stroke-width="1.19553" stroke-linecap="butt" stroke-miterlimit="10" stroke-linejoin="miter" fill="none" stroke="#000000" d="M0 0V178.1292"/>
<path transform="matrix(0,-1.00006,-1.00005,-0,22.595475,13.517899)" d="M1.27522 0C-.31879 .31879-1.91284 .9564-3.8257 2.07224-1.91284 .6376-1.91284-.6376-3.8257-2.07224-1.91284-.9564-.31879-.31879 1.27522 0Z"/>
<path transform="matrix(0,-1.00006,-1.00005,-0,22.595475,13.517899)" stroke-width="1.19553" stroke-linecap="butt" stroke-linejoin="round" fill="none" stroke="#000000" d="M1.27522 0C-.31879 .31879-1.91284 .9564-3.8257 2.07224-1.91284 .6376-1.91284-.6376-3.8257-2.07224-1.91284-.9564-.31879-.31879 1.27522 0Z"/>
<use data-text="P" xlink:href="#font_1_1" transform="matrix(9.963098,0,0,-9.963197,18.705277,7.7257387)"/>
<path transform="matrix(1.00005,0,0,-1.00006,22.595475,191.65778)" stroke-width="1.19553" stroke-linecap="butt" stroke-miterlimit="10" stroke-linejoin="miter" fill="none" stroke="#009bca" d="M70.867 0V170.08086"/>
<path transform="matrix(1.00005,0,0,-1.00006,22.595475,191.65778)" stroke-width=".3985" stroke-linecap="butt" stroke-miterlimit="10" stroke-linejoin="miter" fill="none" stroke="#000000" d="M70.867 4.25204V-4.25204"/>
<path transform="matrix(1.00005,0,0,-1.00006,22.595475,191.65778)" d="M67.38004-14.85684H74.35398V-6.44386H67.38004Z" fill="#ffffff"/>
<use data-text="5" xlink:href="#font_2_3" transform="matrix(9.963098,0,0,-9.963197,90.97489,205.5196)"/>
<path transform="matrix(1.00005,0,0,-1.00006,22.595475,191.65778)" stroke-width="1.19553" stroke-linecap="butt" stroke-miterlimit="10" stroke-linejoin="miter" fill="none" stroke="#009bca" d="M141.73404 0V170.08086"/>
<path transform="matrix(1.00005,0,0,-1.00006,22.595475,191.65778)" stroke-width=".3985" stroke-linecap="butt" stroke-miterlimit="10" stroke-linejoin="miter" fill="none" stroke="#000000" d="M141.73404 4.25204V-4.25204"/>
<path transform="matrix(1.00005,0,0,-1.00006,22.595475,191.65778)" d="M135.75637-14.85684H147.7117V-6.44386H135.75637Z" fill="#ffffff"/>
<use data-text="1" xlink:href="#font_2_2" transform="matrix(9.963098,0,0,-9.963197,159.35532,205.5196)"/>
<use data-text="0" xlink:href="#font_2_1" transform="matrix(9.963098,0,0,-9.963197,164.33687,205.5196)"/>
<path transform="matrix(1.00005,0,0,-1.00006,22.595475,191.65778)" stroke-width="1.19553" stroke-linecap="butt" stroke-miterlimit="10" stroke-linejoin="miter" fill="none" stroke="#009bca" d="M0 70.867H141.73404"/>
<path transform="matrix(1.00005,0,0,-1.00006,22.595475,191.65778)" stroke-width=".3985" stroke-linecap="butt" stroke-miterlimit="10" stroke-linejoin="miter" fill="none" stroke="#000000" d="M4.25204 70.867H-4.25204"/>
<path transform="matrix(1.00005,0,0,-1.00006,22.595475,191.65778)" d="M-18.3992 66.66052H-6.44386V75.0735H-18.3992Z" fill="#ffffff"/>
<use data-text="5" xlink:href="#font_2_3" transform="matrix(9.963098,0,0,-9.963197,5.1916048,123.99672)"/>
<use data-text="0" xlink:href="#font_2_1" transform="matrix(9.963098,0,0,-9.963197,10.173157,123.99672)"/>
<path transform="matrix(1.00005,0,0,-1.00006,22.595475,191.65778)" stroke-width="1.19553" stroke-linecap="butt" stroke-miterlimit="10" stroke-linejoin="miter" fill="none" stroke="#009bca" d="M0 141.73404H141.73404"/>
<path transform="matrix(1.00005,0,0,-1.00006,22.595475,191.65778)" stroke-width=".3985" stroke-linecap="butt" stroke-miterlimit="10" stroke-linejoin="miter" fill="none" stroke="#000000" d="M4.25204 141.73404H-4.25204"/>
<path transform="matrix(1.00005,0,0,-1.00006,22.595475,191.65778)" d="M-23.38058 137.52754H-6.443861V145.94052H-23.38058Z" fill="#ffffff"/>
<use data-text="1" xlink:href="#font_2_2" transform="matrix(9.963098,0,0,-9.963197,.21035767,53.125474)"/>
<use data-text="0" xlink:href="#font_2_1" transform="matrix(9.963098,0,0,-9.963197,5.19191,53.125474)"/>
<use data-text="0" xlink:href="#font_2_1" transform="matrix(9.963098,0,0,-9.963197,10.173462,53.125474)"/>
<path transform="matrix(1.00005,0,0,-1.00006,22.595475,191.65778)" stroke-width="1.19553" stroke-linecap="butt" stroke-miterlimit="10" stroke-linejoin="miter" fill="none" stroke="#ff0000" d="M0 170.08086C0 170.08086 1.60005 165.72014 2.21458 164.08068 2.82913 162.44123 3.81464 159.84842 4.42918 158.26477 5.04372 156.68112 6.02924 154.1965 6.64377 152.66687 7.25832 151.13724 8.24382 148.71802 8.85837 147.24025 9.4729 145.76247 10.45842 143.43694 11.07297 142.01605 11.6875 140.59517 12.67302 138.37067 13.28755 136.99948 13.9021 135.62828 14.8876 133.4578 15.50215 132.1334 16.11668 130.80904 17.1022 128.73145 17.71674 127.45422 18.33128 126.17702 19.3168 124.16035 19.93134 122.92815 20.54588 121.69595 21.53139 119.76054 22.14594 118.57335 22.76047 117.38615 23.74599 115.5189 24.36052 114.37169 24.97507 113.22446 25.96057 111.41185 26.57512 110.30496 27.18965 109.19807 28.17517 107.45836 28.78972 106.39395 29.40425 105.32954 30.38977 103.66042 31.0043 102.63345 31.61885 101.6065 32.60435 99.98366 33.2189 98.99236 33.83344 98.00105 34.81895 96.44481 35.43349 95.4888 36.04803 94.53278 37.03355 93.02492 37.64809 92.10204 38.26263 91.17914 39.24814 89.72952 39.86269 88.83723 40.47722 87.94496 41.46274 86.53021 42.07727 85.67107 42.69182 84.8119 43.67732 83.47104 44.29187 82.64502 44.9064 81.81898 45.89192 80.51807 46.50647 79.7176 47.121 78.91714 48.10654 77.64749 48.72107 76.87584 49.33562 76.10419 50.32112 74.89708 50.93567 74.15604 51.5502 73.41498 52.53572 72.25034 53.15025 71.53485 53.7648 70.81937 54.7503 69.69102 55.36485 68.99931 55.97939 68.3076 56.9649 67.21736 57.57945 66.54942 58.19398 65.88145 59.1795 64.82935 59.79404 64.18517 60.40858 63.54099 61.39409 62.52733 62.00864 61.90656 62.62317 61.28577 63.60869 60.30836 64.22322 59.711 64.83777 59.11362 65.82329 58.17683 66.43782 57.60106 67.05237 57.0253 68.03787 56.11826 68.65242 55.56122 69.26695 55.00417 70.25247 54.12457 70.867 53.58626 71.48155 53.04793 72.46706 52.19807 73.0816 51.68135 73.69614 51.16464 74.68166 50.36009 75.2962 49.8621 75.91074 49.3641 76.89626 48.57611 77.51079 48.09215 78.12534 47.60822 79.11084 46.83897 79.72539 46.37411 80.33992 45.90926 81.32544 45.19037 81.93997 44.74171 82.55452 44.29306 83.54004 43.57507 84.15457 43.14046 84.76912 42.70584 85.75462 42.02444 86.36917 41.60928 86.9837 41.1941 87.96922 40.54929 88.58376 40.14816 89.1983 39.74704 90.1838 39.1078 90.79836 38.71819 91.41289 38.32858 92.3984 37.71317 93.01295 37.34012 93.62749 36.96709 94.61302 36.3907 95.22755 36.02953 95.8421 35.66838 96.8276 35.08638 97.44215 34.7371 98.05669 34.38783 99.0422 33.8474 99.65674 33.51216 100.27129 33.17693 101.2568 32.64432 101.87134 32.32095 102.48587 31.9976 103.47139 31.4931 104.08594 31.18166 104.70047 30.87018 105.68599 30.3782 106.30052 30.0761 106.91507 29.77397 107.90057 29.29448 108.51512 29.00426 109.12965 28.71404 110.11517 28.2652 110.7297 27.98433 111.34425 27.70348 112.32977 27.25146 112.9443 26.97998 113.55885 26.70847 114.54436 26.28714 115.1589 26.02753 115.77344 25.76791 116.75896 25.36159 117.37349 25.10881 117.98804 24.85605 118.97354 24.44873 119.58809 24.20567 120.20262 23.96263 121.18814 23.59036 121.80269 23.35704 122.41722 23.1237 123.40274 22.75082 124.01727 22.52397 124.63182 22.29712 125.61732 21.93953 126.23187 21.72205 126.8464 21.50456 127.83192 21.16638 128.44646 20.95645 129.061 20.74652 130.04653 20.41174 130.66106 20.20903 131.2756 20.0063 132.26111 19.6887 132.87566 19.49535 133.49019 19.30197 134.47571 19.00443 135.09024 18.81538 135.70479 18.62634 136.69029 18.31718 137.30484 18.13284 137.91938 17.94849 138.90489 17.66127 139.51944 17.48663 140.13397 17.312 141.73404 16.87416 139.92754 17.36838"/>
<path transform="matrix(.9645582,.26388584,.26388318,-.96456786,162.53,174.28833)" d="M1.27522 0C-.31879 .31879-1.91284 .9564-3.8257 2.07224-1.91284 .6376-1.91284-.6376-3.8257-2.07224-1.91284-.9564-.31879-.31879 1.27522 0Z" fill="#ff0000"/>
<path transform="matrix(.9645582,.26388584,.26388318,-.96456786,162.53,174.28833)" stroke-width="1.19553" stroke-linecap="butt" stroke-linejoin="round" fill="none" stroke="#ff0000" d="M1.27522 0C-.31879 .31879-1.91284 .9564-3.8257 2.07224-1.91284 .6376-1.91284-.6376-3.8257-2.07224-1.91284-.9564-.31879-.31879 1.27522 0Z"/>
<path transform="matrix(1.00005,0,0,-1.00006,22.595475,191.65778)" d="M1.70073 170.08086C1.70073 171.02016 .93929 171.78159 0 171.78159-.93929 171.78159-1.70073 171.02016-1.70073 170.08086-1.70073 169.14156-.93929 168.38011 0 168.38011 .93929 168.38011 1.70073 169.14156 1.70073 170.08086ZM0 170.08086" fill="#ff0000"/>
<path transform="matrix(1.00005,0,0,-1.00006,22.595475,191.65778)" stroke-width=".3985" stroke-linecap="butt" stroke-miterlimit="10" stroke-linejoin="miter" fill="none" stroke="#ff0000" d="M1.70073 170.08086C1.70073 171.02016 .93929 171.78159 0 171.78159-.93929 171.78159-1.70073 171.02016-1.70073 170.08086-1.70073 169.14156-.93929 168.38011 0 168.38011 .93929 168.38011 1.70073 169.14156 1.70073 170.08086ZM0 170.08086"/>
<path transform="matrix(1.00005,0,0,-1.00006,22.595475,191.65778)" d="M44.22093 85.04042C44.22093 85.97972 43.4595 86.74117 42.5202 86.74117 41.5809 86.74117 40.81946 85.97972 40.81946 85.04042 40.81946 84.10112 41.5809 83.33969 42.5202 83.33969 43.4595 83.33969 44.22093 84.10112 44.22093 85.04042ZM42.5202 85.04042" fill="#ff0000"/>
<path transform="matrix(1.00005,0,0,-1.00006,22.595475,191.65778)" stroke-width=".3985" stroke-linecap="butt" stroke-miterlimit="10" stroke-linejoin="miter" fill="none" stroke="#ff0000" d="M44.22093 85.04042C44.22093 85.97972 43.4595 86.74117 42.5202 86.74117 41.5809 86.74117 40.81946 85.97972 40.81946 85.04042 40.81946 84.10112 41.5809 83.33969 42.5202 83.33969 43.4595 83.33969 44.22093 84.10112 44.22093 85.04042ZM42.5202 85.04042"/>
<path transform="matrix(1.00005,0,0,-1.00006,22.595475,191.65778)" d="M86.74117 42.5202C86.74117 43.4595 85.97972 44.22093 85.04042 44.22093 84.10112 44.22093 83.33969 43.4595 83.33969 42.5202 83.33969 41.5809 84.10112 40.81946 85.04042 40.81946 85.97972 40.81946 86.74117 41.5809 86.74117 42.5202ZM85.04042 42.5202" fill="#ff0000"/>
<path transform="matrix(1.00005,0,0,-1.00006,22.595475,191.65778)" stroke-width=".3985" stroke-linecap="butt" stroke-miterlimit="10" stroke-linejoin="miter" fill="none" stroke="#ff0000" d="M86.74117 42.5202C86.74117 43.4595 85.97972 44.22093 85.04042 44.22093 84.10112 44.22093 83.33969 43.4595 83.33969 42.5202 83.33969 41.5809 84.10112 40.81946 85.04042 40.81946 85.97972 40.81946 86.74117 41.5809 86.74117 42.5202ZM85.04042 42.5202"/>
</svg>
