<svg xmlns="http://www.w3.org/2000/svg" xmlns:xlink="http://www.w3.org/1999/xlink" version="1.1" width="165" height="165" viewBox="0 0 165 165">
<defs>
<path id="font_1_3" d="M.33399964 .30233766C.33999635 .32835389 .36299134 .42037965 .43299867 .42037965 .43798829 .42037965 .46199037 .42037965 .48298646 .40734864 .45498658 .402359 .43499757 .37734986 .43499757 .35334779 .43499757 .33735658 .44599916 .31835938 .47299195 .31835938 .49499513 .31835938 .5269928 .3363495 .5269928 .37635804 .5269928 .42837525 .46798707 .4423828 .43399049 .4423828 .37599183 .4423828 .34098817 .38935853 .32899476 .36634828 .3039856 .43237306 .25 .4423828 .22099304 .4423828 .116989139 .4423828 .05999756 .3133545 .05999756 .28834535 .05999756 .27833558 .069992069 .27833558 .07199097 .27833558 .07998657 .27833558 .08299255 .28033448 .084991458 .28933717 .11898804 .39535523 .18499756 .42037965 .21899414 .42037965 .23799134 .42037965 .272995 .4113617 .272995 .35334779 .272995 .32235719 .2559967 .25532533 .21899414 .11528015 .20298767 .053268434 .16799927 .011245728 .12399292 .011245728 .117996219 .011245728 .09498596 .011245728 .07398987 .024276734 .09899902 .029266358 .12098694 .05027771 .12098694 .07827759 .12098694 .105270389 .09899902 .11328125 .083999637 .11328125 .053985597 .11328125 .0289917 .08728027 .0289917 .055267335 .0289917 .009246826 .07899475-.0107421879 .12298584-.0107421879 .18899536-.0107421879 .22499085 .059280397 .22799683 .0652771 .23999024 .028274537 .27598573-.0107421879 .33599855-.0107421879 .43899537-.0107421879 .49598695 .118270877 .49598695 .14328003 .49598695 .1532898 .4869995 .1532898 .48399354 .1532898 .47499085 .1532898 .47299195 .14929199 .47099305 .14228821 .43798829 .03527832 .36999513 .011245728 .33799745 .011245728 .29899598 .011245728 .2829895 .043273927 .2829895 .07727051 .2829895 .09927368 .2889862 .121276859 .2999878 .16529846L.33399964 .30233766Z"/>
<path id="font_1_4" d="M.48599244 .38136292C.48999024 .39537049 .48999024 .39736939 .48999024 .40437318 .48999024 .42237855 .47599793 .43138124 .46099855 .43138124 .45098878 .43138124 .43499757 .42536927 .42599488 .41036988 .42399598 .405365 .41600038 .37435914 .4119873 .35635377 .40499879 .33035279 .397995 .30334474 .3919983 .27633668L.34700013 .09628296C.34298707 .08126831 .2999878 .011245728 .23399353 .011245728 .18299866 .011245728 .17199707 .055267335 .17199707 .0922699 .17199707 .1382904 .18899536 .20030213 .22299195 .28833009 .23899842 .3293457 .24299622 .3403473 .24299622 .36035157 .24299622 .405365 .21099854 .4423828 .16099549 .4423828 .06599426 .4423828 .0289917 .29733277 .0289917 .28833009 .0289917 .27833558 .038986207 .27833558 .040985109 .27833558 .050994874 .27833558 .051986696 .28033448 .056991579 .29634095 .083999637 .3903656 .12399292 .42037965 .1579895 .42037965 .1659851 .42037965 .18299866 .42037965 .18299866 .3883667 .18299866 .36335755 .17298889 .3373413 .1659851 .31834413 .12599182 .21231079 .10798645 .1552887 .10798645 .10827637 .10798645 .019256592 .17098999-.0107421879 .22999573-.0107421879 .2689972-.0107421879 .30299378 .0062561037 .33099366 .03425598 .31799317-.017745972 .30599977-.06674194 .2659912-.11973572 .23999024-.15385437 .20199585-.18309021 .1559906-.18309021 .14199829-.18309021 .09700012-.18005371 .07998657-.14074707 .09599304-.14074707 .10899353-.14074707 .12298584-.1287384 .1329956-.11973572 .14299011-.10673523 .14299011-.08773804 .14299011-.056747438 .115997318-.052734376 .10598755-.052734376 .08299255-.052734376 .049987794-.068740848 .049987794-.11773682 .049987794-.16796875 .09399414-.20507813 .1559906-.20507813 .25898744-.20507813 .3619995-.11373901 .3899994-.00074768069L.48599244 .38136292Z"/>
<path id="font_2_5" d="M.44898988 .20022583C.44898988 .3193512 .36698915 .41944886 .25898744 .41944886 .21099854 .41944886 .16799927 .40345765 .13198853 .36842347V.5637665C.1519928 .5577698 .18499756 .55078127 .21699524 .55078127 .33999635 .55078127 .4099884 .6417694 .4099884 .6547699 .4099884 .6607666 .40699769 .6657715 .3999939 .6657715 .39898683 .6657715 .39698792 .6657715 .3919983 .66278079 .37199403 .6537781 .32299806 .6337738 .2559967 .6337738 .21598816 .6337738 .16999817 .6407776 .12298584 .6617737 .114990238 .66477969 .11299133 .66477969 .11099243 .66477969 .100997928 .66477969 .100997928 .6567688 .100997928 .6407776V.34439088C.100997928 .32637025 .100997928 .31835938 .114990238 .31835938 .12199402 .31835938 .12399292 .32136537 .12799073 .32736207 .13899231 .3433838 .17599488 .39746095 .25698854 .39746095 .30899049 .39746095 .33399964 .35139466 .34199525 .33337403 .35798646 .29632569 .3600006 .25727845 .3600006 .20722962 .3600006 .17222595 .3600006 .11222839 .33599855 .07035828 .31199647 .031463624 .2749939 .0055389406 .22898865 .0055389406 .1559906 .0055389406 .09899902 .058380128 .08198547 .11723328 .084991458 .1162262 .08799744 .115234378 .09899902 .115234378 .13198853 .115234378 .14898682 .14022827 .14898682 .16423035 .14898682 .18823242 .13198853 .21322632 .09899902 .21322632 .084991458 .21322632 .049987794 .20622254 .049987794 .16023255 .049987794 .07434082 .11898804-.022460938 .23098755-.022460938 .34700013-.022460938 .44898988 .073349 .44898988 .20022583Z"/>
<path id="font_2_3" d="M.45999146 .31976319C.45999146 .39982606 .45498658 .47988893 .41999818 .5539398 .37399293 .65000918 .2919922 .6660156 .25 .6660156 .18998719 .6660156 .116989139 .64001467 .07598877 .54693606 .04399109 .47789 .038986207 .39982606 .038986207 .31976319 .038986207 .24472046 .042999269 .15464783 .083999637 .07859802 .1269989-.0024719239 .19999695-.022460938 .24899292-.022460938 .30299378-.022460938 .3789978-.0014648438 .4229889 .09359741 .45498658 .16265869 .45999146 .2407074 .45999146 .31976319M.24899292-.00047302247C.20999146-.00047302247 .15098572 .024551392 .1329956 .12062073 .12199402 .18066406 .12199402 .2727356 .12199402 .3317871 .12199402 .39582826 .12199402 .46188355 .12998963 .5159149 .14898682 .63500979 .22399903 .64401248 .24899292 .64401248 .28199769 .64401248 .34799195 .6259918 .36698915 .52693179 .3769989 .47088624 .3769989 .39482118 .3769989 .3317871 .3769989 .25672914 .3769989 .18867493 .3659973 .12461853 .35099793 .029556275 .2939911-.00047302247 .24899292-.00047302247Z"/>
<path id="font_2_4" d="M.2939911 .64004519C.2939911 .66400149 .2939911 .6660156 .2709961 .6660156 .20899964 .60227969 .12098694 .60227969 .08898926 .60227969V.57128909C.10899353 .57128909 .16799927 .57128909 .21998596 .5972748V.07902527C.21998596 .042999269 .21699524 .0309906 .1269989 .0309906H.09498596V0C.12998963 .0029907227 .21699524 .0029907227 .25698854 .0029907227 .29699708 .0029907227 .38398744 .0029907227 .4189911 0V.0309906H.3869934C.29699708 .0309906 .2939911 .041992189 .2939911 .07902527V.64004519Z"/>
<path id="font_1_2" d="M.39698792 .6252594C.39698792 .6442566 .3829956 .6612549 .35899354 .6612549 .33599855 .6612549 .30599977 .6382599 .30599977 .6082611 .30599977 .58825686 .31999208 .5722656 .34298707 .5722656 .36999513 .5722656 .39698792 .59825137 .39698792 .6252594M.19599915-.049926759C.1769867-.12594605 .1289978-.18309021 .07299805-.18309021 .066986087-.18309021 .051986696-.18309021 .033996583-.17396546 .06399536-.16694641 .07899475-.14094544 .07899475-.12094116 .07899475-.10494995 .067993167-.0859375 .040985109-.0859375 .015991211-.0859375-.013000488-.10694885-.013000488-.14294434-.013000488-.18309021 .026992798-.20507813 .07499695-.20507813 .14498902-.20507813 .23799134-.15194702 .2630005-.05291748L.35499574 .31330873C.3600006 .333313 .3600006 .34732057 .3600006 .35032655 .3600006 .4073639 .31799317 .4423828 .2679901 .4423828 .1659851 .4423828 .10899353 .29730226 .10899353 .2882843 .10899353 .2782898 .11898804 .2782898 .12098694 .2782898 .12998963 .2782898 .1309967 .27928163 .13899231 .29829408 .1639862 .35932923 .20999146 .42037965 .2649994 .42037965 .2789917 .42037965 .29699708 .41636659 .29699708 .37434388 .29699708 .35133363 .2939911 .34031678 .2899933 .32331849L.19599915-.049926759Z"/>
<path id="font_2_1" d="M.33099366-.2400055C.33099366-.23701477 .33099366-.23500061 .31399537-.21800232 .18899536-.0920105 .15699768 .09700012 .15699768 .25 .15699768 .42399598 .19499207 .59799197 .31799317 .72299197 .33099366 .73498538 .33099366 .7369995 .33099366 .73999026 .33099366 .746994 .32699586 .75 .32099916 .75 .31098939 .75 .22099304 .6819916 .1619873 .5549927 .11099243 .44499208 .09899902 .33399964 .09899902 .25 .09899902 .17199707 .10998535 .050994874 .16499329-.06201172 .22499085-.18501282 .31098939-.25 .32099916-.25 .32699586-.25 .33099366-.24700928 .33099366-.2400055Z"/>
<path id="font_2_2" d="M.2889862 .25C.2889862 .32798768 .27799989 .44898988 .22299195 .56199648 .16299439 .68499758 .07699585 .75 .066986087 .75 .06098938 .75 .056991579 .74598696 .056991579 .73999026 .056991579 .7369995 .056991579 .73498538 .07598877 .71699526 .17399597 .6179962 .23098755 .45899964 .23098755 .25 .23098755 .07899475 .19400025-.09700012 .069992069-.2230072 .056991579-.23500061 .056991579-.23701477 .056991579-.2400055 .056991579-.2460022 .06098938-.25 .066986087-.25 .07699585-.25 .16699219-.18200684 .22599793-.055007936 .2769928 .054992677 .2889862 .16600037 .2889862 .25Z"/>
<path id="font_2_6" d="M.68699648 .32714845C.70199587 .32714845 .72099307 .32714845 .72099307 .34713746 .72099307 .36714173 .70199587 .36714173 .6879883 .36714173H.08898926C.07499695 .36714173 .055999757 .36714173 .055999757 .34713746 .055999757 .32714845 .07499695 .32714845 .08999634 .32714845H.68699648M.6879883 .13284302C.70199587 .13284302 .72099307 .13284302 .72099307 .15284729 .72099307 .17285156 .70199587 .17285156 .68699648 .17285156H.08999634C.07499695 .17285156 .055999757 .17285156 .055999757 .15284729 .055999757 .13284302 .07499695 .13284302 .08898926 .13284302H.6879883Z"/>
<path id="font_2_8" d="M.1769867 .69433596 .032989503 .68333438V.6523285C.102996829 .6523285 .11099243 .6453247 .11099243 .5962982V.07601929C.11099243 .0309906 .099990848 .0309906 .032989503 .0309906V0C.06599426 .0009918213 .11898804 .0029907227 .14399719 .0029907227 .16899109 .0029907227 .21798706 .0009918213 .25498963 0V.0309906C.18798828 .0309906 .1769867 .0309906 .1769867 .07601929V.69433596Z"/>
<path id="font_2_9" d="M.47099305 .21424866C.47099305 .34223939 .37098695 .4482422 .25 .4482422 .125 .4482422 .027999878 .3392334 .027999878 .21424866 .027999878 .085250858 .13198853-.0107421879 .24899292-.0107421879 .36999513-.0107421879 .47099305 .087249759 .47099305 .21424866M.25 .014251709C.20698548 .014251709 .16299439 .035247804 .13598633 .08125305 .11099243 .12524414 .11099243 .18624878 .11099243 .22224427 .11099243 .26124574 .11099243 .31523133 .1349945 .35923768 .1619873 .40522767 .20899964 .426239 .24899292 .426239 .29299928 .426239 .33599855 .40423585 .3619995 .36123658 .3880005 .3182373 .3880005 .26023866 .3880005 .22224427 .3880005 .18624878 .3880005 .13224793 .3659973 .08824158 .34399415 .04324341 .2999878 .014251709 .25 .014251709Z"/>
<path id="font_2_7" d="M.22200012 .17240906C.1349945 .17240906 .1349945 .2723999 .1349945 .2953949 .1349945 .3223877 .13598633 .35438539 .15098572 .37937928 .15899658 .39137269 .18199158 .41937257 .22200012 .41937257 .30899049 .41937257 .30899049 .3193817 .30899049 .29638673 .30899049 .26939393 .30799867 .23739624 .29299928 .21240235 .2849884 .20040894 .2619934 .17240906 .22200012 .17240906M.10598755 .13330078C.10598755 .1373291 .10598755 .16040039 .12298584 .18040467 .1619873 .15240479 .20298767 .14941406 .22200012 .14941406 .31498719 .14941406 .38398744 .21839905 .38398744 .2953949 .38398744 .3323822 .36799623 .36938478 .34298707 .39237977 .3789978 .42637635 .4149933 .43138124 .43299867 .43138124 .43499757 .43138124 .43998719 .43138124 .44299317 .43037416 .43199159 .42637635 .4269867 .41537477 .4269867 .40338136 .4269867 .38638307 .43998719 .3743744 .45599366 .3743744 .46598817 .3743744 .4850006 .38137818 .4850006 .40437318 .4850006 .42137147 .47299195 .45336915 .43399049 .45336915 .4139862 .45336915 .36999513 .44737245 .32798768 .40637208 .28599549 .43937684 .24398804 .4423828 .22200012 .4423828 .1289978 .4423828 .05999756 .37338258 .05999756 .29638673 .05999756 .25239564 .08198547 .21440125 .10699463 .19340515 .09399414 .17840576 .07598877 .14538574 .07598877 .11013794 .07598877 .07891846 .08898926 .04083252 .11999512 .020828248 .05999756 .003829956 .027999878-.039138795 .027999878-.07911682 .027999878-.15107727 .1269989-.20605469 .24899292-.20605469 .36698915-.20605469 .47099305-.15507508 .47099305-.07711792 .47099305-.042144777 .45700074 .008834839 .4059906 .036834718 .35299684 .064834598 .29499818 .064834598 .23399353 .064834598 .20899964 .064834598 .1659851 .064834598 .15899658 .065841678 .1269989 .069869998 .10598755 .10107422 .10598755 .13330078M.25-.18305969C.14898682-.18305969 .07998657-.13209534 .07998657-.07911682 .07998657-.03314209 .117996219 .003829956 .1619873 .0068359377H.22099304C.30699159 .0068359377 .4189911 .0068359377 .4189911-.07911682 .4189911-.13308716 .34799195-.18305969 .25-.18305969Z"/>
<path id="font_3_1" d="M.272995 .33428956C.35099793 .33428956 .40699769 .2803192 .40699769 .1733551 .40699769 .04940796 .33499146 .012466431 .2769928 .012466431 .23699951 .012466431 .14898682 .0234375 .10699463 .082351688 .1539917 .084350589 .16499329 .11735535 .16499329 .13835144 .16499329 .17034912 .14099121 .19335938 .10998535 .19335938 .08198547 .19335938 .053985597 .17634583 .053985597 .13534546 .053985597 .041412355 .1579895-.01953125 .2789917-.01953125 .41799928-.01953125 .5139923 .07336426 .5139923 .1733551 .5139923 .2513275 .44999696 .32929994 .33999635 .35229493 .44499208 .39024354 .48298646 .4650879 .48298646 .5260773 .48298646 .60505679 .3919983 .6640625 .2809906 .6640625 .16999817 .6640625 .084991458 .61006167 .084991458 .5300751 .084991458 .49606324 .10699463 .47706605 .13699341 .47706605 .16799927 .47706605 .18798828 .5000763 .18798828 .5280762 .18798828 .5570679 .16799927 .57806399 .13699341 .5800781 .17199707 .62405398 .24099732 .63505557 .27799989 .63505557 .32299806 .63505557 .38598634 .6130676 .38598634 .5260773 .38598634 .48406983 .37199403 .43814088 .34599305 .4072113 .31298829 .36927796 .2849884 .3672943 .23498535 .36428834 .20999146 .3623047 .20799256 .3623047 .20298767 .3612976 .20098877 .3612976 .19299317 .3592987 .19299317 .34829713 .19299317 .33428956 .20199585 .33428956 .21899414 .33428956H.272995Z"/>
<path id="font_1_1" d="M.2869873 .68333438C.2869873 .6843262 .2869873 .69433596 .27398683 .69433596 .25099183 .69433596 .17799378 .6863251 .1519928 .6843262 .14399719 .68333438 .1329956 .6823273 .1329956 .6643219 .1329956 .6523285 .14199829 .6523285 .15699768 .6523285 .20498657 .6523285 .20698548 .6453247 .20698548 .6353302L.20399475 .6153412 .05899048 .039260866C.054992677 .025253296 .054992677 .023254395 .054992677 .01725769 .054992677-.0057525637 .07499695-.0107421879 .083999637-.0107421879 .099990848-.0107421879 .115997318 .0012512207 .12098694 .015258789L.13999939 .091278079 .1619873 .18130493C.16799927 .2033081 .17399597 .22531128 .1789856 .24832154 .18099976 .25431825 .18899536 .28733827 .18998719 .29333497 .19299317 .30233766 .22399903 .35835267 .2579956 .38536073 .27999879 .4013672 .31098939 .42037965 .35398866 .42037965 .39698792 .42037965 .4079895 .3863678 .4079895 .35035707 .4079895 .29634095 .36999513 .18730164 .34599305 .12628174 .33799745 .103271488 .33299256 .091278079 .33299256 .0712738 .33299256 .024261475 .36799623-.0107421879 .4149933-.0107421879 .5089874-.0107421879 .54599 .13528443 .54599 .14329529 .54599 .1532898 .5369873 .1532898 .5339966 .1532898 .5239868 .1532898 .5239868 .15029907 .5189972 .13528443 .5039978 .08227539 .47200013 .011245728 .4169922 .011245728 .3999939 .011245728 .3929901 .021255494 .3929901 .044265748 .3929901 .0692749 .4019928 .09327698 .41099549 .11528015 .4269867 .15829468 .47200013 .2773285 .47200013 .3353424 .47200013 .4003601 .43199159 .4423828 .35699464 .4423828 .2939911 .4423828 .24598694 .41137696 .20899964 .36535646L.2869873 .68333438Z"/>
<path id="font_4_1" d="M.32998658 .3310547C.42199708 .3310547 .48298646 .2737732 .48298646 .17437744 .48298646 .07237244 .41999818 .01852417 .33099366 .01852417 .31999208 .01852417 .20098877 .01852417 .1499939 .070373538 .19099427 .07637024 .20298767 .1073761 .20298767 .13137818 .20298767 .16838074 .1749878 .19238281 .14199829 .19238281 .10998535 .19238281 .07998657 .17137146 .07998657 .12937927 .07998657 .025512696 .19799805-.022460938 .33399964-.022460938 .49798585-.022460938 .59999087 .07637024 .59999087 .17337036 .59999087 .25567628 .5269928 .3260193 .41299439 .35205079 .5329895 .3909912 .5649872 .46684266 .5649872 .5228424 .5649872 .60491946 .46299745 .6660156 .33699037 .6660156 .21398926 .6660156 .114990238 .61395266 .114990238 .5238342 .114990238 .47683717 .15299988 .46484376 .17199707 .46484376 .20098877 .46484376 .22898865 .48583985 .22898865 .5218353 .22898865 .5448303 .21699524 .5728302 .18099976 .57884219 .22399903 .625 .31298829 .628006 .33399964 .628006 .40699769 .628006 .45899964 .5908661 .45899964 .5228424 .45899964 .46484376 .42099 .37402345 .31599427 .368042 .28799439 .3670349 .28399659 .3660431 .2579956 .365036 .24699402 .3640442 .23599243 .36305238 .23599243 .34805299 .23599243 .3310547 .24598694 .3310547 .2639923 .3310547H.32998658Z"/>
<path id="font_5_1" d="M.3889923-.8549652 .21299744-.4659729C.20599365-.44996644 .20098877-.44996644 .19799805-.44996644 .19699097-.44996644 .19198609-.44996644 .18099976-.45796205L.085998538-.52996829C.07299805-.53996279 .07299805-.54296877 .07299805-.54597476 .07299805-.55096438 .07598877-.55696108 .08299255-.55696108 .08898926-.55696108 .10598755-.54296877 .116989139-.53497317 .12298584-.52996829 .13798523-.5189667 .14898682-.51097109L.34599305-.9439697C.35299684-.95996096 .35798646-.95996096 .36698915-.95996096 .38198854-.95996096 .3849945-.95396426 .3919983-.9399719L.84599307 .000030517579C.8529968 .014038086 .8529968 .018035889 .8529968 .02003479 .8529968 .030029297 .8450012 .040039064 .83299258 .040039064 .82499697 .040039064 .81799319 .03503418 .80999758 .01902771L.3889923-.8549652Z"/>
</defs>
<path transform="matrix(1.00003,0,0,-1.00008,15.614052,150.91605)" stroke-width=".3985" stroke-linecap="butt" stroke-miterlimit="10" stroke-linejoin="miter" fill="none" stroke="#00aeef" d="M0 0H127.55977M0 12.75595H127.55977M0 25.51193H127.55977M0 38.26791H127.55977M0 51.0239H127.55977M0 63.77988H127.55977M0 76.53586H127.55977M0 89.29184H127.55977M0 102.0478H127.55977M0 114.80379H127.55977M0 127.55528H127.55977M0 0V127.55977M12.75595 0V127.55977M25.51193 0V127.55977M38.26791 0V127.55977M51.0239 0V127.55977M63.77988 0V127.55977M76.53586 0V127.55977M89.29184 0V127.55977M102.0478 0V127.55977M114.80379 0V127.55977M127.55528 0V127.55977M127.55977 127.55977"/>
<path transform="matrix(1.00003,0,0,-1.00008,15.614052,150.91605)" stroke-width=".79701" stroke-linecap="butt" stroke-miterlimit="10" stroke-linejoin="miter" fill="none" stroke="#000000" d="M0 0H137.60546"/>
<path transform="matrix(1.00003,0,0,-1.00008,153.22364,150.91605)" d="M1.0361 0C-.25902 .25902-1.55415 .77707-3.1083 1.68365-1.55415 .51805-1.55415-.51805-3.1083-1.68365-1.55415-.77707-.25902-.25902 1.0361 0Z"/>
<path transform="matrix(1.00003,0,0,-1.00008,153.22364,150.91605)" stroke-width=".79701" stroke-linecap="butt" stroke-linejoin="round" fill="none" stroke="#000000" d="M1.0361 0C-.25902 .25902-1.55415 .77707-3.1083 1.68365-1.55415 .51805-1.55415-.51805-3.1083-1.68365-1.55415-.77707-.25902-.25902 1.0361 0Z"/>
<use data-text="x" xlink:href="#font_1_3" transform="matrix(9.962899,0,0,-9.963397,158.37735,153.06122)"/>
<path transform="matrix(1.00003,0,0,-1.00008,15.614052,150.91605)" stroke-width=".79701" stroke-linecap="butt" stroke-miterlimit="10" stroke-linejoin="miter" fill="none" stroke="#000000" d="M0 0V137.60546"/>
<path transform="matrix(0,-1.00008,-1.00003,-0,15.614052,13.299591)" d="M1.0361 0C-.25902 .25902-1.55415 .77707-3.1083 1.68365-1.55415 .51805-1.55415-.51805-3.1083-1.68365-1.55415-.77707-.25902-.25902 1.0361 0Z"/>
<path transform="matrix(0,-1.00008,-1.00003,-0,15.614052,13.299591)" stroke-width=".79701" stroke-linecap="butt" stroke-linejoin="round" fill="none" stroke="#000000" d="M1.0361 0C-.25902 .25902-1.55415 .77707-3.1083 1.68365-1.55415 .51805-1.55415-.51805-3.1083-1.68365-1.55415-.77707-.25902-.25902 1.0361 0Z"/>
<use data-text="y" xlink:href="#font_1_4" transform="matrix(9.962899,0,0,-9.963397,12.992973,6.2084658)"/>
<path transform="matrix(1.00003,0,0,-1.00008,15.614052,150.91605)" stroke-width=".3985" stroke-linecap="butt" stroke-miterlimit="10" stroke-linejoin="miter" fill="none" stroke="#000000" d="M63.77988 1.9133V-1.9135"/>
<use data-text="5" xlink:href="#font_2_5" transform="matrix(9.962899,0,0,-9.963397,71.92374,162.771)"/>
<use data-text="0" xlink:href="#font_2_3" transform="matrix(9.962899,0,0,-9.963397,76.9052,162.771)"/>
<use data-text="0" xlink:href="#font_2_3" transform="matrix(9.962899,0,0,-9.963397,81.88664,162.771)"/>
<path transform="matrix(1.00003,0,0,-1.00008,15.614052,150.91605)" stroke-width=".3985" stroke-linecap="butt" stroke-miterlimit="10" stroke-linejoin="miter" fill="none" stroke="#000000" d="M1.9133 63.77988H-1.9135"/>
<use data-text="5" xlink:href="#font_2_5" transform="matrix(9.962899,0,0,-9.963397,5.198738,90.3412)"/>
<path transform="matrix(1.00003,0,0,-1.00008,15.614052,150.91605)" stroke-width=".3985" stroke-linecap="butt" stroke-miterlimit="10" stroke-linejoin="miter" fill="none" stroke="#000000" d="M127.55977 1.9133V-1.9135"/>
<use data-text="1" xlink:href="#font_2_4" transform="matrix(9.962899,0,0,-9.963397,133.21459,162.771)"/>
<use data-text="0" xlink:href="#font_2_3" transform="matrix(9.962899,0,0,-9.963397,138.19605,162.771)"/>
<use data-text="0" xlink:href="#font_2_3" transform="matrix(9.962899,0,0,-9.963397,143.17749,162.771)"/>
<use data-text="0" xlink:href="#font_2_3" transform="matrix(9.962899,0,0,-9.963397,148.15894,162.771)"/>
<path transform="matrix(1.00003,0,0,-1.00008,15.614052,150.91605)" stroke-width=".3985" stroke-linecap="butt" stroke-miterlimit="10" stroke-linejoin="miter" fill="none" stroke="#000000" d="M1.9133 127.55977H-1.9135"/>
<use data-text="1" xlink:href="#font_2_4" transform="matrix(9.962899,0,0,-9.963397,.21759033,26.556099)"/>
<use data-text="0" xlink:href="#font_2_3" transform="matrix(9.962899,0,0,-9.963397,5.1990435,26.556099)"/>
<path transform="matrix(1.00003,0,0,-1.00008,15.614052,150.91605)" stroke-width=".79701" stroke-linecap="butt" stroke-miterlimit="10" stroke-linejoin="miter" fill="none" stroke="#0000ff" d="M.20366 1.4236C1.56596 27.02927 1.56596 27.02927 2.11845 32.6247 2.67093 38.22012 3.55693 38.615 4.10944 40.31905 4.66193 42.02307 5.54793 43.81502 6.1004 44.90613 6.6529 45.99725 7.53891 47.37375 8.0914 48.18312 8.64389 48.9925 9.52989 50.0944 10.08237 50.73953 10.63487 51.38464 11.52087 52.29643 12.07336 52.83269 12.62584 53.36894 13.51184 54.14577 14.06433 54.6045 14.61682 55.06325 15.50284 55.73749 16.05531 56.13905 16.6078 56.54063 17.4938 57.14148 18.0463 57.49881 18.59877 57.85616 19.48479 58.3933 20.03728 58.71454 20.58977 59.03577 21.47577 59.52205 22.02826 59.81406 22.58073 60.10608 23.46675 60.55159 24.01924 60.81918 24.57173 61.08679 25.45773 61.49586 26.01022 61.74277 26.56271 61.98964 27.44872 62.36906 28.0012 62.59859 28.55368 62.82814 29.43968 63.18321 29.99217 63.3972 30.54468 63.61119 31.43068 63.94006 31.98315 64.14093 32.53564 64.34178 33.42165 64.6554 33.97414 64.84494 34.52663 65.0345 35.41264 65.32852 35.96512 65.50711 36.51761 65.6857 37.40361 65.9629 37.9561 66.13211 38.50858 66.3013 39.39459 66.56583 39.94708 66.72653 40.49957 66.88725 41.38557 67.13751 41.93805 67.2904 42.49054 67.44331 43.37656 67.6824 43.92905 67.82858 44.48152 67.97478 45.36754 68.2042 45.92003 68.344 46.47252 68.48381 47.35852 68.70245 47.91101 68.83626 48.46349 68.97003 49.34949 69.17958 49.902 69.30826 50.45448 69.43695 51.34048 69.64 51.89296 69.76372 52.44545 69.88742 53.33145 70.08098 53.88394 70.1999 54.43643 70.31883 55.32243 70.50604 55.87492 70.62091 56.42741 70.73578 57.31342 70.91695 57.86589 71.02791 58.41838 71.13887 59.3044 71.31345 59.85689 71.42068 60.40938 71.52792 61.2954 71.6973 61.84787 71.80083 62.40036 71.90436 63.28636 72.06644 63.83885 72.16695 64.39133 72.26744 65.27734 72.42757 65.82983 72.52527 66.38232 72.62299 67.26833 72.77664 67.8208 72.87114 68.37329 72.96567 69.25931 73.1145 69.8118 73.20651 70.36427 73.29852 71.25027 73.44475 71.80276 73.53429 72.35526 73.62384 73.24126 73.76506 73.79376 73.85194 74.34624 73.93884 75.23224 74.07603 75.78473 74.16066 76.33722 74.24525 77.22322 74.37929 77.7757 74.46176 78.3282 74.54424 79.2142 74.67455 79.7667 74.75508 80.31917 74.8356 81.20518 74.9636 81.75768 75.04218 82.31017 75.12077 83.19617 75.24503 83.74864 75.32149 84.30113 75.39795 85.18715 75.51851 85.73964 75.5932 86.29213 75.66791 87.17813 75.78659 87.7306 75.85986 88.2831 75.93314 89.16911 76.04979 89.7216 76.12126 90.27408 76.19275 91.16008 76.30516 91.71257 76.37508 92.26506 76.44499 93.15106 76.5567 93.70355 76.62518 94.25604 76.69366 95.14204 76.8016 95.69453 76.86868 96.24701 76.93576 97.13303 77.04301 97.68552 77.10869 98.238 77.17436 99.12401 77.2778 99.6765 77.34206 100.22899 77.4063 101.11499 77.50854 101.66748 77.57172 102.21997 77.63492 103.10597 77.73558 103.65845 77.79752 104.21094 77.85944 105.09695 77.95737 105.64944 78.01804 106.20192 78.07872 107.08792 78.1752 107.64041 78.23486 108.1929 78.29451 109.07892 78.3894 109.6314 78.448 110.18388 78.50659 111.06989 78.59972 111.62238 78.65723 112.17487 78.71475 113.06088 78.80615 113.61336 78.86258 114.16585 78.91902 115.05185 79.00865 115.60435 79.06404 116.15683 79.11942 117.04283 79.20747 117.59532 79.26178 118.14781 79.31612 119.03381 79.40222 119.5863 79.45566 120.1388 79.5091 121.0248 79.59406 121.57729 79.64699 122.12976 79.6999 123.01576 79.7853 123.56825 79.83714 124.12076 79.88899 125.00676 79.96974 125.55925 80.02069 126.11172 80.07166 127.55022 80.20444 126.12177 80.07262"/>
<path transform="matrix(-.053101597,.9986499,.9986,.053104249,15.817718,149.49233)" d="M1.0361 0C-.25902 .25902-1.55415 .77707-3.1083 1.68365-1.55415 .51805-1.55415-.51805-3.1083-1.68365-1.55415-.77707-.25902-.25902 1.0361 0Z" fill="#0000ff"/>
<path transform="matrix(-.053101597,.9986499,.9986,.053104249,15.817718,149.49233)" stroke-width=".79701" stroke-linecap="butt" stroke-linejoin="round" fill="none" stroke="#0000ff" d="M1.0361 0C-.25902 .25902-1.55415 .77707-3.1083 1.68365-1.55415 .51805-1.55415-.51805-3.1083-1.68365-1.55415-.77707-.25902-.25902 1.0361 0Z"/>
<path transform="matrix(.99573996,-.09190735,-.09190276,-.99578967,141.7396,70.837039)" d="M1.0361 0C-.25902 .25902-1.55415 .77707-3.1083 1.68365-1.55415 .51805-1.55415-.51805-3.1083-1.68365-1.55415-.77707-.25902-.25902 1.0361 0Z" fill="#0000ff"/>
<path transform="matrix(.99573996,-.09190735,-.09190276,-.99578967,141.7396,70.837039)" stroke-width=".79701" stroke-linecap="butt" stroke-linejoin="round" fill="none" stroke="#0000ff" d="M1.0361 0C-.25902 .25902-1.55415 .77707-3.1083 1.68365-1.55415 .51805-1.55415-.51805-3.1083-1.68365-1.55415-.77707-.25902-.25902 1.0361 0Z"/>
<path transform="matrix(1.00003,0,0,-1.00008,15.614052,150.91605)" stroke-width=".79701" stroke-linecap="butt" stroke-miterlimit="10" stroke-linejoin="miter" fill="none" stroke="#ff0000" d="M.07835 1.43239C1.44003 26.3116 1.44003 26.3116 1.9931 31.88564 2.54619 37.45969 3.43315 38.21704 3.98622 40.17383 4.5393 42.13065 5.42627 44.54033 5.97934 45.98892 6.53244 47.43752 7.41937 49.42976 7.97247 50.61436 8.52554 51.79898 9.4125 53.51015 9.96559 54.52684 10.51866 55.54353 11.40562 57.04448 11.95871 57.94202 12.5118 58.83955 13.39874 60.18706 13.95184 60.99573 14.50491 61.8044 15.39188 63.03053 15.94495 63.77032 16.49803 64.51013 17.385 65.6439 17.93806 66.32771 18.49117 67.01155 19.37811 68.06227 19.9312 68.69882 20.48428 69.33537 21.37123 70.31845 21.92432 70.91559 22.47742 71.51274 23.36435 72.43948 23.91745 73.00272 24.47052 73.56596 25.35748 74.44112 25.91057 74.97502 26.46364 75.50893 27.3506 76.34268 27.90369 76.85078 28.45677 77.35886 29.34372 78.1521 29.8968 78.637 30.44989 79.1219 31.33685 79.88036 31.88992 80.34555 32.44301 80.81076 33.32997 81.5428 33.88304 81.98988 34.43613 82.43697 35.32307 83.13824 35.87617 83.56784 36.42926 83.99742 37.31621 84.67148 37.8693 85.08603 38.42236 85.50056 39.30933 86.15474 39.86241 86.55557 40.41548 86.95639 41.30244 87.58737 41.85553 87.97488 42.40862 88.3624 43.29558 88.97287 43.84865 89.34846 44.40173 89.72406 45.2887 90.31725 45.84178 90.68195 46.39487 91.04666 47.28183 91.62263 47.8349 91.9771 48.38799 92.33154 49.27493 92.89172 49.82802 93.23662 50.3811 93.5815 51.26805 94.12679 51.82114 94.46284 52.37422 94.79892 53.26118 95.3309 53.81427 95.65872 54.36734 95.98654 55.2543 96.50587 55.80739 96.82559 56.36046 97.14531 57.24742 97.65062 57.80049 97.96307 58.35359 98.27553 59.24054 98.77219 59.79362 99.07759 60.34671 99.383 61.23367 99.86577 61.78674 100.16426 62.33983 100.46275 63.2268 100.93547 63.77988 101.22894 64.33296 101.52242 65.21991 101.9918 65.773 102.27942 66.32607 102.56705 67.21303 103.0209 67.76611 103.30188 68.3192 103.58286 69.20615 104.02875 69.75925 104.30447 70.31232 104.5802 71.19928 105.01872 71.75235 105.28915 72.30544 105.5596 73.1924 105.98819 73.74547 106.2536 74.29857 106.51901 75.18552 106.94096 75.7386 107.20209 76.29169 107.46321 77.17865 107.87863 77.73172 108.13559 78.2848 108.39255 79.17175 108.80186 79.72484 109.0541 80.27792 109.30632 81.16487 109.70578 81.71797 109.95354 82.27104 110.20128 83.158 110.59575 83.71109 110.83974 84.26416 111.08371 85.15112 111.47168 85.70422 111.71191 86.2573 111.95216 87.14426 112.33455 87.69733 112.57124 88.25041 112.80795 89.13737 113.18463 89.69044 113.41794 90.24355 113.65125 91.1305 114.02293 91.68358 114.25276 92.23666 114.48257 93.12361 114.8483 93.6767 115.07433 94.22978 115.30037 95.11673 115.65883 95.66982 115.8819 96.22289 116.10497 97.10985 116.46149 97.66295 116.68207 98.21602 116.90265 99.10298 117.2544 99.65607 117.47171 100.20914 117.68906 101.0961 118.03438 101.64917 118.24854 102.20226 118.46269 103.08922 118.80336 103.64229 119.01523 104.19539 119.22708 105.08235 119.56612 105.63542 119.7755 106.1885 119.98488 107.07545 120.31798 107.62856 120.52428 108.18164 120.73056 109.06859 121.0586 109.62167 121.26234 110.17474 121.46611 111.0617 121.79181 111.61479 121.99284 112.16786 122.19388 113.05482 122.51224 113.60791 122.71126 114.161 122.91028 115.04796 123.23044 115.60103 123.42734 116.15411 123.62424 117.04108 123.93579 117.59415 124.13039 118.14723 124.325 119.0342 124.6374 119.58727 124.82993 120.14037 125.02245 121.0273 125.32794 121.5804 125.51799 122.13348 125.70801 123.02043 126.01158 123.57352 126.19962 124.12659 126.38766 125.01355 126.68724 125.56664 126.87328 126.11972 127.05928 127.55977 127.54028 126.19911 127.08586"/>
<path transform="matrix(-.054631644,.99853989,.99849,.05463437,15.692404,149.48354)" d="M1.0361 0C-.25902 .25902-1.55415 .77707-3.1083 1.68365-1.55415 .51805-1.55415-.51805-3.1083-1.68365-1.55415-.77707-.25902-.25902 1.0361 0Z" fill="#ff0000"/>
<path transform="matrix(-.054631644,.99853989,.99849,.05463437,15.692404,149.48354)" stroke-width=".79701" stroke-linecap="butt" stroke-linejoin="round" fill="none" stroke="#ff0000" d="M1.0361 0C-.25902 .25902-1.55415 .77707-3.1083 1.68365-1.55415 .51805-1.55415-.51805-3.1083-1.68365-1.55415-.77707-.25902-.25902 1.0361 0Z"/>
<path transform="matrix(.9484885,-.31679533,-.3167795,-.94853588,141.81694,23.82003)" d="M1.0361 0C-.25902 .25902-1.55415 .77707-3.1083 1.68365-1.55415 .51805-1.55415-.51805-3.1083-1.68365-1.55415-.77707-.25902-.25902 1.0361 0Z" fill="#ff0000"/>
<path transform="matrix(.9484885,-.31679533,-.3167795,-.94853588,141.81694,23.82003)" stroke-width=".79701" stroke-linecap="butt" stroke-linejoin="round" fill="none" stroke="#ff0000" d="M1.0361 0C-.25902 .25902-1.55415 .77707-3.1083 1.68365-1.55415 .51805-1.55415-.51805-3.1083-1.68365-1.55415-.77707-.25902-.25902 1.0361 0Z"/>
<path transform="matrix(1.00003,0,0,-1.00008,15.614052,150.91605)" d="M83.2104 55.25105H141.29482V67.20637H83.2104Z" fill="#ffffff"/>
<use data-text="j" xlink:href="#font_1_2" transform="matrix(9.962899,0,0,-9.963397,99.823589,92.17335)" fill="#0000ff"/>
<use data-text="(" xlink:href="#font_2_1" transform="matrix(9.962899,0,0,-9.963397,104.49673,92.17335)" fill="#0000ff"/>
<use data-text="x" xlink:href="#font_1_3" transform="matrix(9.962899,0,0,-9.963397,108.37084,92.17335)" fill="#0000ff"/>
<use data-text=")" xlink:href="#font_2_2" transform="matrix(9.962899,0,0,-9.963397,114.06501,92.17335)" fill="#0000ff"/>
<use data-text="=" xlink:href="#font_2_6" transform="matrix(9.962899,0,0,-9.963397,120.69034,92.17335)" fill="#0000ff"/>
<use data-text="l" xlink:href="#font_2_8" transform="matrix(9.962899,0,0,-9.963397,131.2012,92.17335)" fill="#0000ff"/>
<use data-text="o" xlink:href="#font_2_9" transform="matrix(9.962899,0,0,-9.963397,133.96092,92.17335)" fill="#0000ff"/>
<use data-text="g" xlink:href="#font_2_7" transform="matrix(9.962899,0,0,-9.963397,138.94237,92.17335)" fill="#0000ff"/>
<use data-text="3" xlink:href="#font_3_1" transform="matrix(6.9740097,0,0,-6.974358,144.09291,94.60955)" fill="#0000ff"/>
<use data-text="x" xlink:href="#font_1_3" transform="matrix(9.962899,0,0,-9.963397,150.22209,92.17335)" fill="#0000ff"/>
<use data-text="h" xlink:href="#font_1_1" transform="matrix(9.962899,0,0,-9.963397,113.25598,15.882248)" fill="#ff0000"/>
<use data-text="(" xlink:href="#font_2_1" transform="matrix(9.962899,0,0,-9.963397,118.996158,15.882248)" fill="#ff0000"/>
<use data-text="x" xlink:href="#font_1_3" transform="matrix(9.962899,0,0,-9.963397,122.87127,15.882248)" fill="#ff0000"/>
<use data-text=")" xlink:href="#font_2_2" transform="matrix(9.962899,0,0,-9.963397,128.56444,15.882248)" fill="#ff0000"/>
<use data-text="=" xlink:href="#font_2_6" transform="matrix(9.962899,0,0,-9.963397,135.18976,15.882248)" fill="#ff0000"/>
<use data-text="3" xlink:href="#font_4_1" transform="matrix(4.9814498,0,0,-4.9816987,148.49103,12.530975)" fill="#ff0000"/>
<use data-text="&#x221a;" xlink:href="#font_5_1" transform="matrix(9.962899,0,0,-9.963397,146.34598,8.705673)" fill="#ff0000"/>
<path transform="matrix(1.00003,0,0,-1.00008,11.639931,-122.04579)" stroke-width=".3985" stroke-linecap="butt" stroke-miterlimit="10" stroke-linejoin="miter" fill="none" stroke="#ff0000" d="M143.004-130.542H148.698"/>
<use data-text="x" xlink:href="#font_1_3" transform="matrix(9.962899,0,0,-9.963397,154.64823,15.882248)" fill="#ff0000"/>
</svg>
