<svg xmlns="http://www.w3.org/2000/svg" xmlns:xlink="http://www.w3.org/1999/xlink" version="1.1" width="93" height="83" viewBox="0 0 93 83">
<defs>
<path id="font_1_34" d="M.651001 .18289185C.651001 .26983644 .56900027 .34480287 .45799256 .35679627 .5549927 .3757782 .6239929 .43974305 .6239929 .51368716 .6239929 .6006317 .5319977 .6826172 .4019928 .6826172H.035995485V.6516113H.05999756C.13699341 .6516113 .13899231 .64060977 .13899231 .6046295V.07795715C.13899231 .041992189 .13699341 .0309906 .05999756 .0309906H.035995485V0H.42799378C.5609894-.0002593994 .651001 .08874512 .651001 .18273926V.18289185M.5269928 .5136719C.5269928 .44970704 .47799684 .36573792 .36698915 .36573792H.22200012V.6116333C.22200012 .64460757 .22399903 .6516113 .2709961 .6516113H.394989C.49198915 .65174868 .5269928 .56674197 .5269928 .51374819V.5136719M.5509949 .18386841C.5509949 .1129303 .49899293 .0309906 .3959961 .0309906H.2709961C.22399903 .0309906 .22200012 .037994386 .22200012 .07095337V.34375H.4099884C.5089874 .34399415 .5509949 .25099183 .5509949 .18399048V.18386841Z"/>
<path id="font_1_27" d="M.71699526 0V.0309906H.69898989C.6389923 .0309906 .625 .037979127 .6139984 .07095337L.397995 .6958008C.3929901 .7088165 .3909912 .7158203 .375 .7158203 .35899354 .7158203 .35598756 .70980837 .35099793 .6958008L.14399719 .09791565C.12599182 .04698181 .085998538 .03199768 .03199768 .0309906V0L.13398743 .0029907227 .24899292 0V.0309906C.19898987 .0309906 .17399597 .05596924 .17399597 .0819397 .17399597 .08493042 .1749878 .09492493 .17599488 .09692383L.22200012 .2277832H.46899415L.5219879 .07495117C.522995 .07095337 .5249939 .064956668 .5249939 .060958864 .5249939 .0309906 .46899415 .0309906 .44198609 .0309906V0C.47799684 .0029907227 .5479889 .0029907227 .58599856 .0029907227L.71699526 0M.45799256 .25878907H.23298645L.34498597 .58380129 .45799256 .25878907Z"/>
</defs>
<path transform="matrix(1.00005,0,0,-1.00008,3.8123322,79.24214)" stroke-width=".3985" stroke-linecap="butt" stroke-miterlimit="10" stroke-linejoin="miter" fill="none" stroke="#00aeef" d="M0 0H76.53586M0 17.00824H76.53586M0 34.0165H76.53586M0 51.02477H76.53586M0 68.02705H76.53586M0 0V68.03302M25.51193 0V68.03302M51.0239 0V68.03302M76.52689 0V68.03302M76.53586 68.03302"/>
<path transform="matrix(1.00005,0,0,-1.00008,3.8123322,79.24214)" stroke-width=".79701" stroke-linecap="butt" stroke-miterlimit="10" stroke-linejoin="miter" fill="none" stroke="#000000" d="M0 0H85.30586"/>
<path transform="matrix(1.00005,0,0,-1.00008,89.12245,79.24214)" d="M1.0361 0C-.25902 .25902-1.55415 .77707-3.1083 1.68365-1.55415 .51805-1.55415-.51805-3.1083-1.68365-1.55415-.77707-.25902-.25902 1.0361 0Z"/>
<path transform="matrix(1.00005,0,0,-1.00008,89.12245,79.24214)" stroke-width=".79701" stroke-linecap="butt" stroke-linejoin="round" fill="none" stroke="#000000" d="M1.0361 0C-.25902 .25902-1.55415 .77707-3.1083 1.68365-1.55415 .51805-1.55415-.51805-3.1083-1.68365-1.55415-.77707-.25902-.25902 1.0361 0Z"/>
<path transform="matrix(1.00005,0,0,-1.00008,3.8123322,79.24214)" stroke-width=".79701" stroke-linecap="butt" stroke-miterlimit="10" stroke-linejoin="miter" fill="none" stroke="#000000" d="M0 0V76.80345"/>
<path transform="matrix(0,-1.00008,-1.00005,-0,3.8123322,2.4325486)" d="M1.0361 0C-.25902 .25902-1.55415 .77707-3.1083 1.68365-1.55415 .51805-1.55415-.51805-3.1083-1.68365-1.55415-.77707-.25902-.25902 1.0361 0Z"/>
<path transform="matrix(0,-1.00008,-1.00005,-0,3.8123322,2.4325486)" stroke-width=".79701" stroke-linecap="butt" stroke-linejoin="round" fill="none" stroke="#000000" d="M1.0361 0C-.25902 .25902-1.55415 .77707-3.1083 1.68365-1.55415 .51805-1.55415-.51805-3.1083-1.68365-1.55415-.77707-.25902-.25902 1.0361 0Z"/>
<path transform="matrix(1.00005,0,0,-1.00008,3.8123322,79.24214)" stroke-width="1.19553" stroke-linecap="butt" stroke-miterlimit="10" stroke-linejoin="miter" fill="none" stroke="#0000ff" d="M0 0C0 0 .86401 7.34557 1.19585 8.8921 1.52768 10.43863 2.05988 10.60977 2.39172 11.14635 2.72356 11.68289 3.25575 12.3573 3.5876 12.7593 3.91945 13.16129 4.45161 13.71513 4.78348 14.04369 5.11533 14.37222 5.6475 14.84537 5.97934 15.1272 6.31119 15.40904 6.84337 15.82619 7.1752 16.07498 7.50705 16.32378 8.03925 16.69635 8.37108 16.92027 8.70293 17.14417 9.2351 17.48384 9.56696 17.68872 9.8988 17.8936 10.43098 18.20752 10.76285 18.39696 11.09468 18.5864 11.62686 18.87753 11.95871 19.05408 12.29056 19.23062 12.82275 19.50375 13.15459 19.6694 13.48643 19.83508 14.01862 20.09196 14.35045 20.24815 14.68228 20.40436 15.21446 20.64732 15.54633 20.79523 15.87817 20.94315 16.41034 21.1732 16.7422 21.31427 17.07405 21.45537 17.60623 21.67723 17.93806 21.81204 18.26993 21.94687 18.80211 22.15707 19.13394 22.28593 19.46579 22.41483 19.99799 22.6171 20.32982 22.74089 20.66165 22.8647 21.19385 23.059 21.5257 23.17819 21.85751 23.2974 22.38971 23.48495 22.72156 23.59993 23.0534 23.71489 23.58559 23.89581 23.91743 24.00687 24.2493 24.1179 24.78146 24.29282 25.11331 24.40031 25.44516 24.50778 25.97733 24.67738 26.30919 24.78154 26.64104 24.88571 27.17322 25.04996 27.50507 25.15112 27.8369 25.25226 28.3691 25.41222 28.70091 25.51056 29.03276 25.6089 29.56496 25.76413 29.89679 25.85986 30.22865 25.95563 30.76083 26.10754 31.09268 26.20064 31.42451 26.29372 31.9567 26.44016 32.28856 26.53075 32.62039 26.62135 33.15257 26.76463 33.48442 26.8536 33.81627 26.94257 34.34846 27.08508 34.6803 27.17203 35.01215 27.25897 35.54433 27.39561 35.87616 27.48035 36.20801 27.56506 36.74019 27.69965 37.07204 27.7827 37.40388 27.86577 37.93607 27.99788 38.26791 28.07909 38.59976 28.16028 39.13194 28.2885 39.46378 28.36794 39.79564 28.44736 40.32784 28.57362 40.65965 28.65158 40.9915 28.72954 41.5237 28.85329 41.85553 28.9298 42.18735 29.00632 42.71954 29.12804 43.0514 29.20306 43.38324 29.27812 43.91542 29.3971 44.24728 29.47066 44.57913 29.54422 45.1113 29.66095 45.44315 29.73328 45.77501 29.80563 46.30717 29.9209 46.63902 29.99203 46.97087 30.06319 47.50305 30.17615 47.8349 30.24611 48.16673 30.31607 48.69893 30.42747 49.03076 30.49629 49.3626 30.56511 49.89479 30.67438 50.22662 30.74205 50.55849 30.80975 51.09067 30.91751 51.42252 30.9842 51.75436 31.05089 52.28654 31.15712 52.6184 31.22272 52.95023 31.28831 53.4824 31.39247 53.81427 31.45706 54.1461 31.52165 54.6783 31.62453 55.01015 31.68831 55.34198 31.75206 55.87416 31.85388 56.206 31.91667 56.53784 31.97946 57.07002 32.07909 57.40187 32.14091 57.73373 32.20274 58.2659 32.30112 58.59775 32.36229 58.9296 32.42346 59.46178 32.5215 59.79362 32.58185 60.12547 32.6422 60.65765 32.73785 60.98949 32.79726 61.32135 32.85666 61.85355 32.95148 62.18538 33.01006 62.51721 33.06865 63.04941 33.16174 63.38124 33.2195 63.71307 33.27725 64.24527 33.36926 64.57712 33.42633 64.90897 33.48341 65.44113 33.57443 65.773 33.63084 66.10484 33.68727 66.63701 33.77673 66.96886 33.83301 67.30072 33.8893 67.83289 33.9808 68.16473 34.03648 68.4966 34.09215 69.0288 34.17976 69.36061 34.23424 69.69244 34.28871 70.22464 34.37521 70.55647 34.42914 70.8883 34.48308 71.4205 34.56955 71.75235 34.62302 72.0842 34.67648 72.61638 34.76183 72.94823 34.81454 73.28008 34.86725 73.81226 34.95078 74.1441 35.00296 74.47594 35.05513 75.00813 35.13887 75.33998 35.1906 75.67183 35.24232 76.53586 35.3759 74.68494 35.08986"/>
<path transform="matrix(.9882693,-.15274222,-.15273763,-.988299,78.501,44.149496)" d="M1.27522 0C-.31879 .31879-1.91284 .9564-3.8257 2.07224-1.91284 .6376-1.91284-.6376-3.8257-2.07224-1.91284-.9564-.31879-.31879 1.27522 0Z" fill="#0000ff"/>
<path transform="matrix(.9882693,-.15274222,-.15273763,-.988299,78.501,44.149496)" stroke-width="1.19553" stroke-linecap="butt" stroke-linejoin="round" fill="none" stroke="#0000ff" d="M1.27522 0C-.31879 .31879-1.91284 .9564-3.8257 2.07224-1.91284 .6376-1.91284-.6376-3.8257-2.07224-1.91284-.9564-.31879-.31879 1.27522 0Z"/>
<use data-text="B" xlink:href="#font_1_34" transform="matrix(9.963098,0,0,-9.963397,84.270359,47.265584)" fill="#0000ff"/>
<path transform="matrix(1.00005,0,0,-1.00008,3.8123322,79.24214)" stroke-width="1.19553" stroke-linecap="butt" stroke-miterlimit="10" stroke-linejoin="miter" fill="none" stroke="#ff0000" d="M0 0C0 0 .86401 5.17722 1.19585 6.42894 1.52768 7.68066 2.05988 8.38054 2.39172 9.0216 2.72356 9.66267 3.25575 10.53069 3.5876 11.04927 3.91945 11.56786 4.45161 12.31316 4.78348 12.7593 5.11533 13.20543 5.6475 13.86708 5.97934 14.2648 6.31119 14.6625 6.84337 15.26343 7.1752 15.62576 7.50705 15.98807 8.03925 16.54121 8.37108 16.87613 8.70293 17.21104 9.2351 17.72636 9.56696 18.0396 9.8988 18.35283 10.43098 18.83838 10.76285 19.13374 11.09468 19.42912 11.62686 19.88835 11.95871 20.16849 12.29056 20.44862 12.82275 20.88582 13.15459 21.15286 13.48643 21.4199 14.01862 21.83757 14.35045 22.09312 14.68228 22.34866 15.21446 22.74947 15.54633 22.99472 15.87817 23.23997 16.41034 23.62404 16.7422 23.86075 17.07405 24.09747 17.60623 24.47186 17.93806 24.70084 18.26993 24.92981 18.80211 25.2897 19.13394 25.51108 19.46579 25.73244 19.99799 26.08165 20.32982 26.29639 20.66165 26.51115 21.19385 26.85033 21.5257 27.05887 21.85751 27.26744 22.38971 27.59659 22.72156 27.79956 23.0534 28.00253 23.58559 28.3239 23.91743 28.52182 24.2493 28.71976 24.78146 29.03296 25.11331 29.22618 25.44516 29.41939 25.97733 29.72575 26.30919 29.91443 26.64104 30.10312 27.17322 30.40158 27.50507 30.58609 27.8369 30.77058 28.3691 31.06352 28.70091 31.24423 29.03276 31.42496 29.56496 31.71178 29.89679 31.88866 30.22865 32.0655 30.76083 32.34578 31.09268 32.51903 31.42451 32.6923 31.9567 32.96756 32.28856 33.13748 32.62039 33.3074 33.15257 33.57623 33.48442 33.74373 33.81627 33.91124 34.34846 34.17992 34.6803 34.34479 35.01215 34.50967 35.54433 34.77051 35.87616 34.9321 36.20801 35.09372 36.74019 35.35054 37.07204 35.50955 37.40388 35.66856 37.93607 35.92168 38.26791 36.07817 38.59976 36.23466 39.13194 36.48344 39.46378 36.63745 39.79564 36.79146 40.32784 37.03632 40.65965 37.18816 40.9915 37.33998 41.5237 37.58218 41.85553 37.73187 42.18735 37.88155 42.71954 38.11957 43.0514 38.267 43.38324 38.41446 43.91542 38.64922 44.24728 38.79462 44.57913 38.94003 45.1113 39.17145 45.44315 39.31497 45.77501 39.4585 46.30717 39.68744 46.63902 39.8291 46.97087 39.97075 47.50305 40.19612 47.8349 40.33595 48.16673 40.47577 48.69893 40.69864 49.03076 40.83682 49.3626 40.97502 49.89479 41.19542 50.22662 41.332 50.55849 41.46857 51.09067 41.68625 51.42252 41.82121 51.75436 41.95616 52.28654 42.1713 52.6184 42.3047 52.95023 42.43811 53.4824 42.65092 53.81427 42.78275 54.1461 42.91457 54.6783 43.12445 55.01015 43.25482 55.34198 43.38521 55.87416 43.59334 56.206 43.72249 56.53784 43.85165 57.07002 44.05803 57.40187 44.18575 57.73373 44.31346 58.2659 44.51662 58.59775 44.64304 58.9296 44.76945 59.46178 44.97198 59.79362 45.09694 60.12547 45.22188 60.65765 45.41994 60.98949 45.54358 61.32135 45.66724 61.85355 45.8655 62.18538 45.98814 62.51721 46.11078 63.04941 46.30615 63.38124 46.42754 63.71307 46.5489 64.24527 46.74286 64.57712 46.863 64.90897 46.98317 65.44113 47.17455 65.773 47.29356 66.10484 47.41257 66.63701 47.6017 66.96886 47.72073 67.30072 47.83978 67.83289 48.03357 68.16473 48.15155 68.4966 48.26955 69.0288 48.45503 69.36061 48.5712 69.69244 48.68735 70.22464 48.8736 70.55647 48.98878 70.8883 49.10396 71.4205 49.28728 71.75235 49.40144 72.0842 49.51558 72.61638 49.69817 72.94823 49.81148 73.28008 49.92479 73.81226 50.10574 74.1441 50.21814 74.47594 50.33057 75.00813 50.51016 75.33998 50.62172 75.67183 50.73326 76.53586 51.02217 74.75961 50.42828"/>
<path transform="matrix(.9483974,-.31710536,-.31709583,-.9484259,78.575679,28.809842)" d="M1.27522 0C-.31879 .31879-1.91284 .9564-3.8257 2.07224-1.91284 .6376-1.91284-.6376-3.8257-2.07224-1.91284-.9564-.31879-.31879 1.27522 0Z" fill="#ff0000"/>
<path transform="matrix(.9483974,-.31710536,-.31709583,-.9484259,78.575679,28.809842)" stroke-width="1.19553" stroke-linecap="butt" stroke-linejoin="round" fill="none" stroke="#ff0000" d="M1.27522 0C-.31879 .31879-1.91284 .9564-3.8257 2.07224-1.91284 .6376-1.91284-.6376-3.8257-2.07224-1.91284-.9564-.31879-.31879 1.27522 0Z"/>
<use data-text="A" xlink:href="#font_1_27" transform="matrix(9.963098,0,0,-9.963397,84.270359,31.783345)" fill="#ff0000"/>
</svg>
