<svg xmlns="http://www.w3.org/2000/svg" xmlns:xlink="http://www.w3.org/1999/xlink" version="1.1" width="124" height="182" viewBox="0 0 124 182">
<defs>
<path id="font_1_1" d="M.33399964 .30233766C.33999635 .32835389 .36299134 .42037965 .43299867 .42037965 .43798829 .42037965 .46199037 .42037965 .48298646 .40734864 .45498658 .402359 .43499757 .37734986 .43499757 .35334779 .43499757 .33735658 .44599916 .31835938 .47299195 .31835938 .49499513 .31835938 .5269928 .3363495 .5269928 .37635804 .5269928 .42837525 .46798707 .4423828 .43399049 .4423828 .37599183 .4423828 .34098817 .38935853 .32899476 .36634828 .3039856 .43237306 .25 .4423828 .22099304 .4423828 .116989139 .4423828 .05999756 .3133545 .05999756 .28834535 .05999756 .27833558 .069992069 .27833558 .07199097 .27833558 .07998657 .27833558 .08299255 .28033448 .084991458 .28933717 .11898804 .39535523 .18499756 .42037965 .21899414 .42037965 .23799134 .42037965 .272995 .4113617 .272995 .35334779 .272995 .32235719 .2559967 .25532533 .21899414 .11528015 .20298767 .053268434 .16799927 .011245728 .12399292 .011245728 .117996219 .011245728 .09498596 .011245728 .07398987 .024276734 .09899902 .029266358 .12098694 .05027771 .12098694 .07827759 .12098694 .105270389 .09899902 .11328125 .083999637 .11328125 .053985597 .11328125 .0289917 .08728027 .0289917 .055267335 .0289917 .009246826 .07899475-.0107421879 .12298584-.0107421879 .18899536-.0107421879 .22499085 .059280397 .22799683 .0652771 .23999024 .028274537 .27598573-.0107421879 .33599855-.0107421879 .43899537-.0107421879 .49598695 .118270877 .49598695 .14328003 .49598695 .1532898 .4869995 .1532898 .48399354 .1532898 .47499085 .1532898 .47299195 .14929199 .47099305 .14228821 .43798829 .03527832 .36999513 .011245728 .33799745 .011245728 .29899598 .011245728 .2829895 .043273927 .2829895 .07727051 .2829895 .09927368 .2889862 .121276859 .2999878 .16529846L.33399964 .30233766Z"/>
<path id="font_1_2" d="M.48599244 .38136292C.48999024 .39537049 .48999024 .39736939 .48999024 .40437318 .48999024 .42237855 .47599793 .43138124 .46099855 .43138124 .45098878 .43138124 .43499757 .42536927 .42599488 .41036988 .42399598 .405365 .41600038 .37435914 .4119873 .35635377 .40499879 .33035279 .397995 .30334474 .3919983 .27633668L.34700013 .09628296C.34298707 .08126831 .2999878 .011245728 .23399353 .011245728 .18299866 .011245728 .17199707 .055267335 .17199707 .0922699 .17199707 .1382904 .18899536 .20030213 .22299195 .28833009 .23899842 .3293457 .24299622 .3403473 .24299622 .36035157 .24299622 .405365 .21099854 .4423828 .16099549 .4423828 .06599426 .4423828 .0289917 .29733277 .0289917 .28833009 .0289917 .27833558 .038986207 .27833558 .040985109 .27833558 .050994874 .27833558 .051986696 .28033448 .056991579 .29634095 .083999637 .3903656 .12399292 .42037965 .1579895 .42037965 .1659851 .42037965 .18299866 .42037965 .18299866 .3883667 .18299866 .36335755 .17298889 .3373413 .1659851 .31834413 .12599182 .21231079 .10798645 .1552887 .10798645 .10827637 .10798645 .019256592 .17098999-.0107421879 .22999573-.0107421879 .2689972-.0107421879 .30299378 .0062561037 .33099366 .03425598 .31799317-.017745972 .30599977-.06674194 .2659912-.11973572 .23999024-.15385437 .20199585-.18309021 .1559906-.18309021 .14199829-.18309021 .09700012-.18005371 .07998657-.14074707 .09599304-.14074707 .10899353-.14074707 .12298584-.1287384 .1329956-.11973572 .14299011-.10673523 .14299011-.08773804 .14299011-.056747438 .115997318-.052734376 .10598755-.052734376 .08299255-.052734376 .049987794-.068740848 .049987794-.11773682 .049987794-.16796875 .09399414-.20507813 .1559906-.20507813 .25898744-.20507813 .3619995-.11373901 .3899994-.00074768069L.48599244 .38136292Z"/>
<path id="font_2_1" d="M.6589966 .23046875C.6759949 .23046875 .69400027 .23046875 .69400027 .25045777 .69400027 .27046205 .6759949 .27046205 .6589966 .27046205H.117996219C.100997928 .27046205 .08299255 .27046205 .08299255 .25045777 .08299255 .23046875 .100997928 .23046875 .117996219 .23046875H.6589966Z"/>
<path id="font_3_1" d="M.1269989 .07699585 .23298645 .18003845C.3889923 .31811524 .44898988 .3721466 .44898988 .47216798 .44898988 .5860901 .35899354 .6660156 .23699951 .6660156 .12399292 .6660156 .049987794 .57411196 .049987794 .48516847 .049987794 .4291687 .099990848 .4291687 .102996829 .4291687 .11999512 .4291687 .15499878 .44117738 .15499878 .48217774 .15499878 .5081787 .13699341 .5341797 .101989749 .5341797 .09399414 .5341797 .09199524 .5341797 .08898926 .5331726 .11199951 .59806826 .1659851 .63500979 .22399903 .63500979 .31498719 .63500979 .35798646 .5541382 .35798646 .47216798 .35798646 .39215089 .30799867 .31311036 .25299073 .25108338L.06098938 .036987306C.049987794 .025985718 .049987794 .023986817 .049987794 0H.42099L.44898988 .17404175H.42399598C.4189911 .14402771 .4119873 .1000061 .4019928 .084991458 .394989 .07699585 .32899476 .07699585 .30699159 .07699585H.1269989Z"/>
<path id="font_4_85" d="M.33099366-.2400055C.33099366-.23701477 .33099366-.23500061 .31399537-.21800232 .18899536-.0920105 .15699768 .09700012 .15699768 .25 .15699768 .42399598 .19499207 .59799197 .31799317 .72299197 .33099366 .7350006 .33099366 .7369995 .33099366 .73999026 .33099366 .746994 .32699586 .75 .32099916 .75 .31098939 .75 .22099304 .6819916 .1619873 .5549927 .11099243 .44499208 .09899902 .33399964 .09899902 .25 .09899902 .17199707 .10998535 .050994874 .16499329-.06201172 .22499085-.18501282 .31098939-.25 .32099916-.25 .32699586-.25 .33099366-.24700928 .33099366-.2400055Z"/>
<path id="font_4_50" d="M.4149933 .11933899C.4149933 .12934876 .40699769 .13134766 .4019928 .13134766 .3929901 .13134766 .3909912 .12535095 .3889923 .11734009 .35398866 .014251709 .2639923 .014251709 .2539978 .014251709 .20399475 .014251709 .1639862 .044281007 .14099121 .08131409 .11099243 .12934876 .11099243 .19540406 .11099243 .23144531H.3899994C.4119873 .23144531 .4149933 .23144531 .4149933 .2524414 .4149933 .35131837 .36099244 .4482422 .23599243 .4482422 .11999512 .4482422 .027999878 .34532167 .027999878 .22042847 .027999878 .08631897 .1329956-.0107421879 .24798584-.0107421879 .36999513-.0107421879 .4149933 .10032654 .4149933 .11933899M.34899903 .2524414H.11199951C.117996219 .40126039 .20199585 .426239 .23599243 .426239 .33898927 .426239 .34899903 .2913971 .34899903 .2524414Z"/>
<path id="font_4_86" d="M.2889862 .25C.2889862 .32798768 .27799989 .44898988 .22299195 .56199648 .16299439 .68499758 .07699585 .75 .066986087 .75 .06098938 .75 .056991579 .74598696 .056991579 .73999026 .056991579 .7369995 .056991579 .7350006 .07598877 .71699526 .17399597 .6179962 .23098755 .45899964 .23098755 .25 .23098755 .07899475 .19400025-.09700012 .069992069-.2230072 .056991579-.23500061 .056991579-.23701477 .056991579-.2400055 .056991579-.2460022 .06098938-.25 .066986087-.25 .07699585-.25 .16699219-.18200684 .22599793-.055007936 .2769928 .054992677 .2889862 .16600037 .2889862 .25Z"/>
</defs>
<path transform="matrix(1.00009,0,0,-1.00003,52.8414,90.10632)" stroke-width=".3985" stroke-linecap="butt" stroke-miterlimit="10" stroke-linejoin="miter" fill="none" stroke="#00aeef" d="M-51.02477-68.03302H51.02477M-51.02477-51.02477H51.02477M-51.02477-34.0165H51.02477M-51.02477-17.00824H51.02477M-51.02477 0H51.02477M-51.02477 17.00824H51.02477M-51.02477 34.0165H51.02477M-51.02477 51.02477H51.02477M-51.02477 68.02705H51.02477M-51.02477-68.03302V68.03302M-34.0165-68.03302V68.03302M-17.00824-68.03302V68.03302M0-68.03302V68.03302M17.00824-68.03302V68.03302M34.0165-68.03302V68.03302M51.01878-68.03302V68.03302M51.02477 68.03302"/>
<path transform="matrix(1.00009,0,0,-1.00003,52.8414,90.10632)" stroke-width=".79701" stroke-linecap="butt" stroke-miterlimit="10" stroke-linejoin="miter" fill="none" stroke="#000000" d="M-51.02477 0H59.7952"/>
<path transform="matrix(1.00009,0,0,-1.00003,112.64198,90.10632)" d="M1.0361 0C-.25902 .25902-1.55415 .77707-3.1083 1.68365-1.55415 .51805-1.55415-.51805-3.1083-1.68365-1.55415-.77707-.25902-.25902 1.0361 0Z"/>
<path transform="matrix(1.00009,0,0,-1.00003,112.64198,90.10632)" stroke-width=".79701" stroke-linecap="butt" stroke-linejoin="round" fill="none" stroke="#000000" d="M1.0361 0C-.25902 .25902-1.55415 .77707-3.1083 1.68365-1.55415 .51805-1.55415-.51805-3.1083-1.68365-1.55415-.77707-.25902-.25902 1.0361 0Z"/>
<use data-text="x" xlink:href="#font_1_1" transform="matrix(9.963496,0,0,-9.962899,117.79624,92.25139)"/>
<path transform="matrix(1.00009,0,0,-1.00003,52.8414,90.10632)" stroke-width=".79701" stroke-linecap="butt" stroke-miterlimit="10" stroke-linejoin="miter" fill="none" stroke="#000000" d="M0-68.03302V76.80345"/>
<path transform="matrix(0,-1.00003,-1.00009,-0,52.8414,13.300568)" d="M1.0361 0C-.25902 .25902-1.55415 .77707-3.1083 1.68365-1.55415 .51805-1.55415-.51805-3.1083-1.68365-1.55415-.77707-.25902-.25902 1.0361 0Z"/>
<path transform="matrix(0,-1.00003,-1.00009,-0,52.8414,13.300568)" stroke-width=".79701" stroke-linecap="butt" stroke-linejoin="round" fill="none" stroke="#000000" d="M1.0361 0C-.25902 .25902-1.55415 .77707-3.1083 1.68365-1.55415 .51805-1.55415-.51805-3.1083-1.68365-1.55415-.77707-.25902-.25902 1.0361 0Z"/>
<use data-text="y" xlink:href="#font_1_2" transform="matrix(9.963496,0,0,-9.962899,50.22016,6.2098085)"/>
<path transform="matrix(1.00009,0,0,-1.00003,52.8414,90.10632)" stroke-width=".3985" stroke-linecap="butt" stroke-miterlimit="10" stroke-linejoin="miter" fill="none" stroke="#000000" d="M-34.0165 1.70091V-1.70065"/>
<path transform="matrix(1.00009,0,0,-1.00003,52.8414,90.10632)" d="M-41.3779-13.13568H-26.655119V-3.8924504H-41.3779Z" fill="#ffffff"/>
<use data-text="&#x2212;" xlink:href="#font_2_1" transform="matrix(9.963496,0,0,-9.962899,12.455765,101.415668)"/>
<use data-text="2" xlink:href="#font_3_1" transform="matrix(9.963496,0,0,-9.962899,20.20546,101.415668)"/>
<path transform="matrix(1.00009,0,0,-1.00003,52.8414,90.10632)" stroke-width=".3985" stroke-linecap="butt" stroke-miterlimit="10" stroke-linejoin="miter" fill="none" stroke="#000000" d="M34.0165 1.70091V-1.70065"/>
<path transform="matrix(1.00009,0,0,-1.00003,52.8414,90.10632)" d="M30.52953-12.30545H37.50347V-3.8924704H30.52953Z" fill="#ffffff"/>
<use data-text="2" xlink:href="#font_3_1" transform="matrix(9.963496,0,0,-9.962899,84.37024,101.415668)"/>
<path transform="matrix(1.00009,0,0,-1.00003,52.8414,90.10632)" stroke-width=".3985" stroke-linecap="butt" stroke-miterlimit="10" stroke-linejoin="miter" fill="none" stroke="#000000" d="M1.70091-34.0165H-1.70065"/>
<path transform="matrix(1.00009,0,0,-1.00003,52.8414,90.10632)" d="M-18.61523-38.63812H-3.8924504V-29.39489H-18.61523Z" fill="#ffffff"/>
<use data-text="&#x2212;" xlink:href="#font_2_1" transform="matrix(9.963496,0,0,-9.962899,35.220819,126.91943)"/>
<use data-text="2" xlink:href="#font_3_1" transform="matrix(9.963496,0,0,-9.962899,42.970514,126.91943)"/>
<path transform="matrix(1.00009,0,0,-1.00003,52.8414,90.10632)" stroke-width=".3985" stroke-linecap="butt" stroke-miterlimit="10" stroke-linejoin="miter" fill="none" stroke="#000000" d="M1.70091 34.0165H-1.70065"/>
<path transform="matrix(1.00009,0,0,-1.00003,52.8414,90.10632)" d="M-10.8664 29.81001H-3.8924599V38.222993H-10.8664Z" fill="#ffffff"/>
<use data-text="2" xlink:href="#font_3_1" transform="matrix(9.963496,0,0,-9.962899,42.970514,59.2994)"/>
<path transform="matrix(1.00009,0,0,-1.00003,52.8414,90.10632)" stroke-width="1.19553" stroke-linecap="butt" stroke-miterlimit="10" stroke-linejoin="miter" fill="none" stroke="#ff0000" d="M0 0C0 0 .576 10.13002 .79724 12.27605 1.01846 14.42209 1.37326 14.70294 1.5945 15.46716 1.81575 16.23141 2.17053 17.22617 2.39177 17.78423 2.613 18.34227 2.9678 19.04597 3.18903 19.4893 3.41026 19.93263 3.76506 20.59055 3.9863 20.97949 4.20752 21.36845 4.56232 21.94759 4.78355 22.2927 5.00478 22.63779 5.35957 23.15567 5.58081 23.46678 5.80206 23.7779 6.15685 24.2503 6.37807 24.535 6.5993 24.81969 6.9541 25.25566 7.17534 25.5186 7.39658 25.78152 7.75136 26.18504 7.97261 26.43004 8.19385 26.67505 8.54865 27.05446 8.76987 27.28441 8.99109 27.51436 9.3459 27.87076 9.56712 28.08739 9.78835 28.304 10.14314 28.6404 10.36438 28.84572 10.58562 29.05104 10.94041 29.37175 11.16165 29.5672 11.38289 29.76265 11.73769 30.06796 11.95892 30.25443 12.18015 30.44087 12.53494 30.73206 12.75616 30.91101 12.97742 31.08998 13.33221 31.37236 13.55344 31.54427 13.77467 31.71617 14.12947 31.98479 14.3507 32.15 14.57193 32.31519 14.92673 32.57587 15.14796 32.73495 15.36919 32.89404 15.724 33.14317 15.94522 33.29659 16.16646 33.44997 16.52124 33.69212 16.7425 33.84055 16.96373 33.98897 17.31851 34.22224 17.53975 34.36635 17.76099 34.51044 18.11578 34.73888 18.33702 34.87915 18.55824 35.01944 18.91304 35.24106 19.13426 35.37746 19.3555 35.51385 19.7103 35.72952 19.93153 35.86223 20.15277 35.99496 20.50755 36.2048 20.7288 36.33406 20.95004 36.46332 21.30482 36.66777 21.52606 36.79395 21.74728 36.9201 22.10208 37.12036 22.32332 37.24344 22.54456 37.36652 22.89935 37.56102 23.12059 37.681 23.34181 37.80098 23.69661 37.99072 23.91785 38.10817 24.13907 38.22563 24.49387 38.41257 24.7151 38.52757 24.93634 38.64258 25.29112 38.82455 25.51236 38.9371 25.73361 39.04967 26.0884 39.22859 26.30963 39.33884 26.53087 39.4491 26.88567 39.62375 27.1069 39.73177 27.32813 39.83978 27.68292 40.01134 27.90414 40.11742 28.12538 40.2235 28.48018 40.39235 28.70142 40.49632 28.92265 40.60033 29.27744 40.76476 29.49867 40.86693 29.71992 40.96912 30.0747 41.13248 30.29594 41.23285 30.51717 41.33324 30.87198 41.49205 31.0932 41.59048 31.31444 41.68892 31.66924 41.84561 31.89047 41.9424 32.1117 42.0392 32.46649 42.19289 32.68773 42.2881 32.90895 42.38329 33.26375 42.53432 33.485 42.62859 33.70622 42.72285 34.06102 42.87463 34.28224 42.96753 34.50348 43.06042 34.85828 43.20708 35.07951 43.29816 35.30075 43.38925 35.65555 43.53445 35.87679 43.62411 36.09802 43.71379 36.45282 43.85611 36.67404 43.94438 36.89526 44.03267 37.25008 44.17342 37.4713 44.2605 37.69252 44.34755 38.04732 44.486 38.26855 44.57191 38.48979 44.65782 38.84459 44.79495 39.06583 44.87971 39.28706 44.96448 39.64186 45.0993 39.8631 45.18285 40.08432 45.26637 40.4391 45.39937 40.66035 45.48181 40.88159 45.56427 41.23639 45.69563 41.45761 45.77715 41.67885 45.85867 42.03365 45.98901 42.25487 46.06938 42.4761 46.14975 42.8309 46.27707 43.05214 46.35641 43.27336 46.43578 43.62816 46.56288 43.8494 46.64137 44.07063 46.71986 44.42542 46.8447 44.64667 46.92218 44.8679 46.99968 45.22269 47.12332 45.44392 47.19987 45.66516 47.27641 46.01996 47.39824 46.24118 47.47394 46.46242 47.54962 46.81721 47.6705 47.03844 47.74539 47.25967 47.8203 47.61447 47.93985 47.83571 48.01373 48.05695 48.08762 48.41173 48.20479 48.63298 48.27795 48.85422 48.3511 49.209 48.46858 49.43022 48.54109 49.65147 48.6136 50.00626 48.7289 50.2275 48.80063 50.44873 48.87234 51.02477 49.05809 49.2422 48.48329"/>
<path transform="matrix(.95180568,-.3068892,-.30690763,-.9517486,102.08803,41.621576)" d="M1.27522 0C-.31879 .31879-1.91284 .9564-3.8257 2.07224-1.91284 .6376-1.91284-.6376-3.8257-2.07224-1.91284-.9564-.31879-.31879 1.27522 0Z" fill="#ff0000"/>
<path transform="matrix(.95180568,-.3068892,-.30690763,-.9517486,102.08803,41.621576)" stroke-width="1.19553" stroke-linecap="butt" stroke-linejoin="round" fill="none" stroke="#ff0000" d="M1.27522 0C-.31879 .31879-1.91284 .9564-3.8257 2.07224-1.91284 .6376-1.91284-.6376-3.8257-2.07224-1.91284-.9564-.31879-.31879 1.27522 0Z"/>
<path transform="matrix(1.00009,0,0,-1.00003,52.8414,90.10632)" stroke-width="1.19553" stroke-linecap="butt" stroke-miterlimit="10" stroke-linejoin="miter" fill="none" stroke="#ff0000" d="M0 0C0 0-.576-10.13002-.79724-12.27605-1.01846-14.42209-1.37326-14.70294-1.5945-15.46716-1.81575-16.23141-2.17053-17.22617-2.39177-17.78423-2.613-18.34227-2.9678-19.04597-3.18903-19.4893-3.41026-19.93263-3.76506-20.59055-3.9863-20.97949-4.20752-21.36845-4.56232-21.94759-4.78355-22.2927-5.00478-22.63779-5.35957-23.15567-5.58081-23.46678-5.80206-23.7779-6.15685-24.2503-6.37807-24.535-6.5993-24.81969-6.9541-25.25566-7.17534-25.5186-7.39658-25.78152-7.75136-26.18504-7.97261-26.43004-8.19385-26.67505-8.54865-27.05446-8.76987-27.28441-8.99109-27.51436-9.3459-27.87076-9.56712-28.08739-9.78835-28.304-10.14314-28.6404-10.36438-28.84572-10.58562-29.05104-10.94041-29.37175-11.16165-29.5672-11.38289-29.76265-11.73769-30.06796-11.95892-30.25443-12.18015-30.44087-12.53494-30.73206-12.75616-30.91101-12.97742-31.08998-13.33221-31.37236-13.55344-31.54427-13.77467-31.71617-14.12947-31.98479-14.3507-32.15-14.57193-32.31519-14.92673-32.57587-15.14796-32.73495-15.36919-32.89404-15.724-33.14317-15.94522-33.29659-16.16646-33.44997-16.52124-33.69212-16.7425-33.84055-16.96373-33.98897-17.31851-34.22224-17.53975-34.36635-17.76099-34.51044-18.11578-34.73888-18.33702-34.87915-18.55824-35.01944-18.91304-35.24106-19.13426-35.37746-19.3555-35.51385-19.7103-35.72952-19.93153-35.86223-20.15277-35.99496-20.50755-36.2048-20.7288-36.33406-20.95004-36.46332-21.30482-36.66777-21.52606-36.79395-21.74728-36.9201-22.10208-37.12036-22.32332-37.24344-22.54456-37.36652-22.89935-37.56102-23.12059-37.681-23.34181-37.80098-23.69661-37.99072-23.91785-38.10817-24.13907-38.22563-24.49387-38.41257-24.7151-38.52757-24.93634-38.64258-25.29112-38.82455-25.51236-38.9371-25.73361-39.04967-26.0884-39.22859-26.30963-39.33884-26.53087-39.4491-26.88567-39.62375-27.1069-39.73177-27.32813-39.83978-27.68292-40.01134-27.90414-40.11742-28.12538-40.2235-28.48018-40.39235-28.70142-40.49632-28.92265-40.60033-29.27744-40.76476-29.49867-40.86693-29.71992-40.96912-30.0747-41.13248-30.29594-41.23285-30.51717-41.33324-30.87198-41.49205-31.0932-41.59048-31.31444-41.68892-31.66924-41.84561-31.89047-41.9424-32.1117-42.0392-32.46649-42.19289-32.68773-42.2881-32.90895-42.38329-33.26375-42.53432-33.485-42.62859-33.70622-42.72285-34.06102-42.87463-34.28224-42.96753-34.50348-43.06042-34.85828-43.20708-35.07951-43.29816-35.30075-43.38925-35.65555-43.53445-35.87679-43.62411-36.09802-43.71379-36.45282-43.85611-36.67404-43.94438-36.89526-44.03267-37.25008-44.17342-37.4713-44.2605-37.69252-44.34755-38.04732-44.486-38.26855-44.57191-38.48979-44.65782-38.84459-44.79495-39.06583-44.87971-39.28706-44.96448-39.64186-45.0993-39.8631-45.18285-40.08432-45.26637-40.4391-45.39937-40.66035-45.48181-40.88159-45.56427-41.23639-45.69563-41.45761-45.77715-41.67885-45.85867-42.03365-45.98901-42.25487-46.06938-42.4761-46.14975-42.8309-46.27707-43.05214-46.35641-43.27336-46.43578-43.62816-46.56288-43.8494-46.64137-44.07063-46.71986-44.42542-46.8447-44.64667-46.92218-44.8679-46.99968-45.22269-47.12332-45.44392-47.19987-45.66516-47.27641-46.01996-47.39824-46.24118-47.47394-46.46242-47.54962-46.81721-47.6705-47.03844-47.74539-47.25967-47.8203-47.61447-47.93985-47.83571-48.01373-48.05695-48.08762-48.41173-48.20479-48.63298-48.27795-48.85422-48.3511-49.209-48.46858-49.43022-48.54109-49.65147-48.6136-50.00626-48.7289-50.2275-48.80063-50.44873-48.87234-51.02477-49.05809-49.2422-48.48329"/>
<path transform="matrix(-.95180568,.3068892,.30690763,.9517486,3.5947686,138.59107)" d="M1.27522 0C-.31879 .31879-1.91284 .9564-3.8257 2.07224-1.91284 .6376-1.91284-.6376-3.8257-2.07224-1.91284-.9564-.31879-.31879 1.27522 0Z" fill="#ff0000"/>
<path transform="matrix(-.95180568,.3068892,.30690763,.9517486,3.5947686,138.59107)" stroke-width="1.19553" stroke-linecap="butt" stroke-linejoin="round" fill="none" stroke="#ff0000" d="M1.27522 0C-.31879 .31879-1.91284 .9564-3.8257 2.07224-1.91284 .6376-1.91284-.6376-3.8257-2.07224-1.91284-.9564-.31879-.31879 1.27522 0Z"/>
<use data-text="(" xlink:href="#font_4_85" transform="matrix(9.963496,0,0,-9.962899,46.753854,177.64096)"/>
<use data-text="e" xlink:href="#font_4_50" transform="matrix(9.963496,0,0,-9.962899,50.62966,177.64096)"/>
<use data-text=")" xlink:href="#font_4_86" transform="matrix(9.963496,0,0,-9.962899,55.05346,177.64096)"/>
</svg>
