<svg xmlns="http://www.w3.org/2000/svg" xmlns:xlink="http://www.w3.org/1999/xlink" version="1.1" width="123" height="164" viewBox="0 0 123 164">
<defs>
<path id="font_1_1" d="M.33399964 .30233766C.33999635 .32835389 .36299134 .42037965 .43299867 .42037965 .43798829 .42037965 .46199037 .42037965 .48298646 .40734864 .45498658 .402359 .43499757 .37734986 .43499757 .35334779 .43499757 .33735658 .44599916 .31835938 .47299195 .31835938 .49499513 .31835938 .5269928 .3363495 .5269928 .37635804 .5269928 .42837525 .46798707 .4423828 .43399049 .4423828 .37599183 .4423828 .34098817 .38935853 .32899476 .36634828 .3039856 .43237306 .25 .4423828 .22099304 .4423828 .116989139 .4423828 .05999756 .3133545 .05999756 .28834535 .05999756 .27833558 .069992069 .27833558 .07199097 .27833558 .07998657 .27833558 .08299255 .28033448 .084991458 .28933717 .11898804 .39535523 .18499756 .42037965 .21899414 .42037965 .23799134 .42037965 .272995 .4113617 .272995 .35334779 .272995 .32235719 .2559967 .25532533 .21899414 .11528015 .20298767 .053268434 .16799927 .011245728 .12399292 .011245728 .117996219 .011245728 .09498596 .011245728 .07398987 .024276734 .09899902 .029266358 .12098694 .05027771 .12098694 .07827759 .12098694 .105270389 .09899902 .11328125 .083999637 .11328125 .053985597 .11328125 .0289917 .08728027 .0289917 .055267335 .0289917 .009246826 .07899475-.0107421879 .12298584-.0107421879 .18899536-.0107421879 .22499085 .059280397 .22799683 .0652771 .23999024 .028274537 .27598573-.0107421879 .33599855-.0107421879 .43899537-.0107421879 .49598695 .118270877 .49598695 .14328003 .49598695 .1532898 .4869995 .1532898 .48399354 .1532898 .47499085 .1532898 .47299195 .14929199 .47099305 .14228821 .43798829 .03527832 .36999513 .011245728 .33799745 .011245728 .29899598 .011245728 .2829895 .043273927 .2829895 .07727051 .2829895 .09927368 .2889862 .121276859 .2999878 .16529846L.33399964 .30233766Z"/>
<path id="font_1_2" d="M.48599244 .38136292C.48999024 .39537049 .48999024 .39736939 .48999024 .40437318 .48999024 .42237855 .47599793 .43138124 .46099855 .43138124 .45098878 .43138124 .43499757 .42536927 .42599488 .41036988 .42399598 .405365 .41600038 .37435914 .4119873 .35635377 .40499879 .33035279 .397995 .30334474 .3919983 .27633668L.34700013 .09628296C.34298707 .08126831 .2999878 .011245728 .23399353 .011245728 .18299866 .011245728 .17199707 .055267335 .17199707 .0922699 .17199707 .1382904 .18899536 .20030213 .22299195 .28833009 .23899842 .3293457 .24299622 .3403473 .24299622 .36035157 .24299622 .405365 .21099854 .4423828 .16099549 .4423828 .06599426 .4423828 .0289917 .29733277 .0289917 .28833009 .0289917 .27833558 .038986207 .27833558 .040985109 .27833558 .050994874 .27833558 .051986696 .28033448 .056991579 .29634095 .083999637 .3903656 .12399292 .42037965 .1579895 .42037965 .1659851 .42037965 .18299866 .42037965 .18299866 .3883667 .18299866 .36335755 .17298889 .3373413 .1659851 .31834413 .12599182 .21231079 .10798645 .1552887 .10798645 .10827637 .10798645 .019256592 .17098999-.0107421879 .22999573-.0107421879 .2689972-.0107421879 .30299378 .0062561037 .33099366 .03425598 .31799317-.017745972 .30599977-.06674194 .2659912-.11973572 .23999024-.15385437 .20199585-.18309021 .1559906-.18309021 .14199829-.18309021 .09700012-.18005371 .07998657-.14074707 .09599304-.14074707 .10899353-.14074707 .12298584-.1287384 .1329956-.11973572 .14299011-.10673523 .14299011-.08773804 .14299011-.056747438 .115997318-.052734376 .10598755-.052734376 .08299255-.052734376 .049987794-.068740848 .049987794-.11773682 .049987794-.16796875 .09399414-.20507813 .1559906-.20507813 .25898744-.20507813 .3619995-.11373901 .3899994-.00074768069L.48599244 .38136292Z"/>
<path id="font_2_1" d="M.6589966 .23046875C.6759949 .23046875 .69400027 .23046875 .69400027 .25045777 .69400027 .27046205 .6759949 .27046205 .6589966 .27046205H.117996219C.100997928 .27046205 .08299255 .27046205 .08299255 .25045777 .08299255 .23046875 .100997928 .23046875 .117996219 .23046875H.6589966Z"/>
<path id="font_3_1" d="M.1269989 .07699585 .23298645 .18003845C.3889923 .31811524 .44898988 .3721466 .44898988 .47216798 .44898988 .5860901 .35899354 .6660156 .23699951 .6660156 .12399292 .6660156 .049987794 .57411196 .049987794 .48516847 .049987794 .4291687 .099990848 .4291687 .102996829 .4291687 .11999512 .4291687 .15499878 .44117738 .15499878 .48217774 .15499878 .5081787 .13699341 .5341797 .101989749 .5341797 .09399414 .5341797 .09199524 .5341797 .08898926 .5331726 .11199951 .59806826 .1659851 .63500979 .22399903 .63500979 .31498719 .63500979 .35798646 .5541382 .35798646 .47216798 .35798646 .39215089 .30799867 .31311036 .25299073 .25108338L.06098938 .036987306C.049987794 .025985718 .049987794 .023986817 .049987794 0H.42099L.44898988 .17404175H.42399598C.4189911 .14402771 .4119873 .1000061 .4019928 .084991458 .394989 .07699585 .32899476 .07699585 .30699159 .07699585H.1269989Z"/>
<path id="font_3_2" d="M.2939911 .16503906V.07800293C.2939911 .041992189 .2919922 .0309906 .21798706 .0309906H.19699097V0C.23799134 .0029907227 .2899933 .0029907227 .33198548 .0029907227 .37399293 .0029907227 .4269867 .0029907227 .46798707 0V.0309906H.44699098C.37298585 .0309906 .37098695 .041992189 .37098695 .07800293V.16503906H.47099305V.19602967H.37098695V.65075686C.37098695 .67074587 .37098695 .6767578 .35499574 .6767578 .34599305 .6767578 .34298707 .6767578 .33499146 .66474917L.027999878 .19602967V.16503906H.2939911M.2999878 .19602967H.055999757L.2999878 .5688019V.19602967Z"/>
<path id="font_3_3" d="M.13198853 .327713V.35173036C.13198853 .6047821 .2559967 .64100649 .30699159 .64100649 .33099366 .64100649 .37298585 .634964 .394989 .6007538 .37998963 .6007538 .33999635 .6007538 .33999635 .5557556 .33999635 .524765 .3639984 .5097656 .38598634 .5097656 .4019928 .5097656 .43199159 .51875308 .43199159 .5577545 .43199159 .6178589 .3880005 .6660156 .30499269 .6660156 .1769867 .6660156 .041992189 .5367584 .041992189 .31570436 .041992189 .048553468 .1579895-.022460938 .25099183-.022460938 .3619995-.022460938 .45700074 .07156372 .45700074 .2036438 .45700074 .33070375 .36799623 .4267578 .25698854 .4267578 .18899536 .4267578 .1519928 .37573243 .13198853 .327713M.25099183 .0055389406C.18798828 .0055389406 .1579895 .06556702 .1519928 .080566409 .13398743 .127594 .13398743 .2076416 .13398743 .22564698 .13398743 .30369569 .1659851 .40374757 .2559967 .40374757 .27198792 .40374757 .31799317 .40374757 .34899903 .34172059 .36698915 .30470277 .36698915 .2536621 .36698915 .20463562 .36698915 .15661621 .36698915 .10658264 .34999085 .0705719 .31999208 .010528564 .27398683 .0055389406 .25099183 .0055389406Z"/>
<path id="font_4_65" d="M.40299989 0V.04699707H.2889862V.63853457H.40299989V.6855469C.3619995 .6825409 .2639923 .6825409 .21798706 .6825409 .17199707 .6825409 .07398987 .6825409 .032989503 .6855469V.63853457H.14698792V.04699707H.032989503V0C.07398987 .0029907227 .17199707 .0029907227 .21798706 .0029907227 .2639923 .0029907227 .3619995 .0029907227 .40299989 0Z"/>
<path id="font_4_111" d="M.84199526 .63853457V.6855469L.72898867 .6825409C.68899539 .6825409 .6369934 .6825409 .59799197 .6855469V.63853457C.6069946 .63853457 .6859894 .63853457 .6859894 .62654116 .6859894 .6225586 .68299868 .6175537 .6819916 .614563L.47999574 .16001892 .2669983 .63853457H.36099244V.6855469C.32299806 .6825409 .22698975 .6825409 .18399048 .6825409 .14498902 .6825409 .06098938 .6825409 .025985718 .6855469V.63853457H.117996219L.3939972 .018157959C.4019928 .00016784668 .4059906-.0078125 .43399049-.0078125 .44999696-.0078125 .46299745-.0078125 .47399903 .016159058L.73999026 .6165619C.74598696 .6295471 .75 .63853457 .82299807 .63853457H.84199526Z"/>
</defs>
<path transform="matrix(1.00009,0,0,-1,52.64238,94.779)" stroke-width=".3985" stroke-linecap="butt" stroke-miterlimit="10" stroke-linejoin="miter" fill="none" stroke="#00aeef" d="M-51.02477-51.0239H51.02477M-51.02477-38.26791H51.02477M-51.02477-25.51193H51.02477M-51.02477-12.75595H51.02477M-51.02477 0H51.02477M-51.02477 12.75595H51.02477M-51.02477 25.51193H51.02477M-51.02477 38.26791H51.02477M-51.02477 51.0239H51.02477M-51.02477 63.77988H51.02477M-51.02477 76.53137H51.02477M-51.02477-51.0239V76.53586M-34.0165-51.0239V76.53586M-17.00824-51.0239V76.53586M0-51.0239V76.53586M17.00824-51.0239V76.53586M34.0165-51.0239V76.53586M51.01878-51.0239V76.53586M51.02477 76.53586"/>
<path transform="matrix(1.00009,0,0,-1,52.64238,94.779)" stroke-width=".79701" stroke-linecap="butt" stroke-miterlimit="10" stroke-linejoin="miter" fill="none" stroke="#000000" d="M-51.02477 0H58.09428"/>
<path transform="matrix(1.00009,0,0,-1,110.74189,94.779)" d="M1.0361 0C-.25902 .25902-1.55415 .77707-3.1083 1.68365-1.55415 .51805-1.55415-.51805-3.1083-1.68365-1.55415-.77707-.25902-.25902 1.0361 0Z"/>
<path transform="matrix(1.00009,0,0,-1,110.74189,94.779)" stroke-width=".79701" stroke-linecap="butt" stroke-linejoin="round" fill="none" stroke="#000000" d="M1.0361 0C-.25902 .25902-1.55415 .77707-3.1083 1.68365-1.55415 .51805-1.55415-.51805-3.1083-1.68365-1.55415-.77707-.25902-.25902 1.0361 0Z"/>
<use data-text="x" xlink:href="#font_1_1" transform="matrix(9.963496,0,0,-9.9626,115.89607,96.923999)"/>
<path transform="matrix(1.00009,0,0,-1,52.64238,94.779)" stroke-width=".79701" stroke-linecap="butt" stroke-miterlimit="10" stroke-linejoin="miter" fill="none" stroke="#000000" d="M0-51.0239V81.47922"/>
<path transform="matrix(0,-1,-1.00009,-0,52.64238,13.299782)" d="M1.0361 0C-.25902 .25902-1.55415 .77707-3.1083 1.68365-1.55415 .51805-1.55415-.51805-3.1083-1.68365-1.55415-.77707-.25902-.25902 1.0361 0Z"/>
<path transform="matrix(0,-1,-1.00009,-0,52.64238,13.299782)" stroke-width=".79701" stroke-linecap="butt" stroke-linejoin="round" fill="none" stroke="#000000" d="M1.0361 0C-.25902 .25902-1.55415 .77707-3.1083 1.68365-1.55415 .51805-1.55415-.51805-3.1083-1.68365-1.55415-.77707-.25902-.25902 1.0361 0Z"/>
<use data-text="y" xlink:href="#font_1_2" transform="matrix(9.963496,0,0,-9.9626,50.02114,6.2089998)"/>
<path transform="matrix(1.00009,0,0,-1,52.64238,94.779)" stroke-width=".79701" stroke-linecap="butt" stroke-miterlimit="10" stroke-linejoin="miter" fill="none" stroke="#000000" d="M-34.0165 1.27565V-1.27547"/>
<path transform="matrix(1.00009,0,0,-1,52.64238,94.779)" d="M-41.3779-12.90976H-26.655119V-3.6665307H-41.3779Z" fill="#ffffff"/>
<use data-text="&#x2212;" xlink:href="#font_2_1" transform="matrix(9.963496,0,0,-9.9626,12.256744,105.862)"/>
<use data-text="2" xlink:href="#font_3_1" transform="matrix(9.963496,0,0,-9.9626,20.00644,105.862)"/>
<path transform="matrix(1.00009,0,0,-1,52.64238,94.779)" stroke-width=".79701" stroke-linecap="butt" stroke-miterlimit="10" stroke-linejoin="miter" fill="none" stroke="#000000" d="M34.0165 1.27565V-1.27547"/>
<path transform="matrix(1.00009,0,0,-1,52.64238,94.779)" d="M30.52953-12.07951H37.50347V-3.6665297H30.52953Z" fill="#ffffff"/>
<use data-text="2" xlink:href="#font_3_1" transform="matrix(9.963496,0,0,-9.9626,84.17122,105.862)"/>
<path transform="matrix(1.00009,0,0,-1,52.64238,94.779)" stroke-width=".79701" stroke-linecap="butt" stroke-miterlimit="10" stroke-linejoin="miter" fill="none" stroke="#000000" d="M1.70091-51.0239H-1.70065"/>
<path transform="matrix(1.00009,0,0,-1,52.64238,94.779)" d="M-18.8145-55.64551H-4.0917208V-46.402284H-18.8145Z" fill="#ffffff"/>
<use data-text="&#x2212;" xlink:href="#font_2_1" transform="matrix(9.963496,0,0,-9.9626,34.822778,148.59799)"/>
<use data-text="4" xlink:href="#font_3_2" transform="matrix(9.963496,0,0,-9.9626,42.57247,148.59799)"/>
<path transform="matrix(1.00009,0,0,-1,52.64238,94.779)" stroke-width=".79701" stroke-linecap="butt" stroke-miterlimit="10" stroke-linejoin="miter" fill="none" stroke="#000000" d="M1.70091-25.51193H-1.70065"/>
<path transform="matrix(1.00009,0,0,-1,52.64238,94.779)" d="M-18.8145-30.13354H-4.0917208V-20.890309H-18.8145Z" fill="#ffffff"/>
<use data-text="&#x2212;" xlink:href="#font_2_1" transform="matrix(9.963496,0,0,-9.9626,34.822778,123.086)"/>
<use data-text="2" xlink:href="#font_3_1" transform="matrix(9.963496,0,0,-9.9626,42.57247,123.086)"/>
<path transform="matrix(1.00009,0,0,-1,52.64238,94.779)" stroke-width=".79701" stroke-linecap="butt" stroke-miterlimit="10" stroke-linejoin="miter" fill="none" stroke="#000000" d="M1.70091 25.51193H-1.70065"/>
<path transform="matrix(1.00009,0,0,-1,52.64238,94.779)" d="M-11.06564 21.30545H-4.0917007V29.71843H-11.06564Z" fill="#ffffff"/>
<use data-text="2" xlink:href="#font_3_1" transform="matrix(9.963496,0,0,-9.9626,42.57247,72.477)"/>
<path transform="matrix(1.00009,0,0,-1,52.64238,94.779)" stroke-width=".79701" stroke-linecap="butt" stroke-miterlimit="10" stroke-linejoin="miter" fill="none" stroke="#000000" d="M1.70091 51.0239H-1.70065"/>
<path transform="matrix(1.00009,0,0,-1,52.64238,94.779)" d="M-11.06564 46.8174H-4.0917007V55.23038H-11.06564Z" fill="#ffffff"/>
<use data-text="4" xlink:href="#font_3_2" transform="matrix(9.963496,0,0,-9.9626,42.57247,46.965)"/>
<path transform="matrix(1.00009,0,0,-1,52.64238,94.779)" stroke-width=".79701" stroke-linecap="butt" stroke-miterlimit="10" stroke-linejoin="miter" fill="none" stroke="#000000" d="M1.70091 76.53586H-1.70065"/>
<path transform="matrix(1.00009,0,0,-1,52.64238,94.779)" d="M-11.06564 72.32936H-4.0917007V80.74234H-11.06564Z" fill="#ffffff"/>
<use data-text="6" xlink:href="#font_3_3" transform="matrix(9.963496,0,0,-9.9626,42.57247,21.453003)"/>
<path transform="matrix(1.00009,0,0,-1,52.64238,94.779)" stroke-width="1.19553" stroke-linecap="butt" stroke-miterlimit="10" stroke-linejoin="miter" fill="none" stroke="#ff0000" d="M-47.67282 74.71286C-47.02034 71.9717-47.02034 71.9717-46.60323 70.25732-46.18611 68.54295-45.51717 65.83797-45.10005 64.17888-44.68294 62.5198-44.014 59.90353-43.59688 58.29976-43.17976 56.69598-42.51082 54.16844-42.0937 52.61995-41.67659 51.07144-41.00764 48.63245-40.59053 47.13927-40.17343 45.64607-39.50449 43.29594-39.08737 41.85806-38.67026 40.42018-38.00131 38.15858-37.5842 36.776-37.16708 35.39339-36.49814 33.22052-36.08102 31.89323-35.66391 30.56596-34.99498 28.4818-34.57785 27.20978-34.16074 25.93779-33.49179 23.94217-33.07468 22.72546-32.65756 21.50876-31.98862 19.60204-31.5715 18.44063-31.15439 17.27925-30.48544 15.46104-30.06833 14.35493-29.65123 13.24883-28.98228 11.51933-28.56517 10.46855-28.14806 9.41774-27.47911 7.777-27.062 6.78146-26.64488 5.78593-25.97594 4.23373-25.55882 3.2935-25.14171 2.35326-24.47278 .88979-24.05565 .00484-23.63853-.88005-22.96959-2.25482-22.55247-3.08446-22.13536-3.91408-21.46642-5.20016-21.0493-5.97447-20.63219-6.7488-19.96326-7.94615-19.54613-8.66519-19.12903-9.38423-18.46008-10.49304-18.04298-11.15678-17.62585-11.82056-16.95691-12.84064-16.5398-13.44908-16.12268-14.05753-15.45375-14.98892-15.03662-15.54205-14.6195-16.09518-13.95058-16.93785-13.53346-17.4357-13.11633-17.93356-12.44739-18.6877-12.03027-19.13025-11.61316-19.5728-10.94423-20.23805-10.5271-20.62529-10.10999-21.01253-9.44106-21.58925-9.02394-21.9212-8.60683-22.25314-7.93788-22.74113-7.52078-23.0178-7.10365-23.29448-6.43472-23.69394-6.0176-23.9153-5.60048-24.13666-4.93155-24.44722-4.51443-24.61327-4.0973-24.77934-3.42838-25.00137-3.01126-25.11214-2.59413-25.22292-1.9252-25.35622-1.50807-25.4117-1.09096-25.46716-.42203-25.51175-.00491-25.51193 .41219-25.51212 1.0811-25.46815 1.49823-25.41307 1.91533-25.35797 2.58427-25.22528 3.00139-25.11488 3.4185-25.00449 4.08745-24.78308 4.50456-24.61737 4.92168-24.45166 5.5906-24.14157 6.00774-23.92055 6.42485-23.69954 7.09378-23.30072 7.51091-23.02443 7.92802-22.74812 8.59697-22.26079 9.01408-21.92918 9.4312-21.59758 10.10013-21.02135 10.51726-20.63443 10.93437-20.24753 11.6033-19.58272 12.02043-19.14056 12.43753-18.6984 13.10649-17.94505 13.52359-17.44757 13.9407-16.9501 14.60963-16.10786 15.02676-15.55508 15.44388-15.0023 16.11281-14.07153 16.52994-13.46347 16.94705-12.85541 17.61598-11.83592 18.0331-11.17255 18.45023-10.50919 19.11916-9.401 19.53629-8.68233 19.9534-7.96364 20.62233-6.76677 21.03946-5.99278 21.45657-5.21878 22.1255-3.93318 22.54262-3.10391 22.95973-2.27464 23.6287-.9005 24.04579-.01595 24.4629 .86858 25.13184 2.33144 25.54897 3.2713 25.96608 4.21117 26.63501 5.76277 27.05212 6.7579 27.46925 7.75307 28.13818 9.39317 28.5553 10.44363 28.97241 11.49408 29.64136 13.22308 30.05849 14.32884 30.4756 15.4346 31.14453 17.25215 31.56165 18.4132 31.97878 19.57423 32.6477 21.48053 33.06482 22.69685 33.48193 23.91316 34.15088 25.90799 34.568 27.17963 34.9851 28.45125 35.65404 30.53496 36.07115 31.8619 36.48828 33.18884 37.15721 35.36107 37.57433 36.7433 37.99146 38.1255 38.66039 40.38647 39.0775 41.82399 39.49461 43.26152 40.16356 45.61119 40.58067 47.10402 40.9978 48.59686 41.66673 51.03523 42.08385 52.58336 42.50098 54.13147 43.1699 56.6584 43.58702 58.2618 44.00412 59.8652 44.67308 62.48085 45.09018 64.13957 45.50731 65.79828 46.17624 68.50262 46.59335 70.21664 47.01048 71.93066 48.09653 76.49303 47.66284 74.67104"/>
<path transform="matrix(-.23151084,-.97278,-.97286757,.23149,4.965267,20.06614)" d="M1.27522 0C-.31879 .31879-1.91284 .9564-3.8257 2.07224-1.91284 .6376-1.91284-.6376-3.8257-2.07224-1.91284-.9564-.31879-.31879 1.27522 0Z" fill="#ff0000"/>
<path transform="matrix(-.23151084,-.97278,-.97286757,.23149,4.965267,20.06614)" stroke-width="1.19553" stroke-linecap="butt" stroke-linejoin="round" fill="none" stroke="#ff0000" d="M1.27522 0C-.31879 .31879-1.91284 .9564-3.8257 2.07224-1.91284 .6376-1.91284-.6376-3.8257-2.07224-1.91284-.9564-.31879-.31879 1.27522 0Z"/>
<path transform="matrix(.23157084,-.97278,-.97286757,-.23155,100.3095,20.107956)" d="M1.27522 0C-.31879 .31879-1.91284 .9564-3.8257 2.07224-1.91284 .6376-1.91284-.6376-3.8257-2.07224-1.91284-.9564-.31879-.31879 1.27522 0Z" fill="#ff0000"/>
<path transform="matrix(.23157084,-.97278,-.97286757,-.23155,100.3095,20.107956)" stroke-width="1.19553" stroke-linecap="butt" stroke-linejoin="round" fill="none" stroke="#ff0000" d="M1.27522 0C-.31879 .31879-1.91284 .9564-3.8257 2.07224-1.91284 .6376-1.91284-.6376-3.8257-2.07224-1.91284-.9564-.31879-.31879 1.27522 0Z"/>
<use data-text="I" xlink:href="#font_4_65" transform="matrix(9.963496,0,0,-9.9626,46.140794,161.936)"/>
<use data-text="V" xlink:href="#font_4_111" transform="matrix(9.963496,0,0,-9.9626,50.484865,161.936)"/>
</svg>
