<svg xmlns="http://www.w3.org/2000/svg" xmlns:xlink="http://www.w3.org/1999/xlink" version="1.1" width="197" height="200" viewBox="0 0 197 200">
<defs>
<path id="font_1_1" d="M.33399964 .30233766C.33999635 .32835389 .36299134 .42037965 .43299867 .42037965 .43798829 .42037965 .46199037 .42037965 .48298646 .40734864 .45498658 .402359 .43499757 .37734986 .43499757 .35334779 .43499757 .33735658 .44599916 .31835938 .47299195 .31835938 .49499513 .31835938 .5269928 .3363495 .5269928 .37635804 .5269928 .42837525 .46798707 .4423828 .43399049 .4423828 .37599183 .4423828 .34098817 .38935853 .32899476 .36634828 .3039856 .43237306 .25 .4423828 .22099304 .4423828 .116989139 .4423828 .05999756 .3133545 .05999756 .28834535 .05999756 .27833558 .069992069 .27833558 .07199097 .27833558 .07998657 .27833558 .08299255 .28033448 .084991458 .28933717 .11898804 .39535523 .18499756 .42037965 .21899414 .42037965 .23799134 .42037965 .272995 .4113617 .272995 .35334779 .272995 .32235719 .2559967 .25532533 .21899414 .11528015 .20298767 .053268434 .16799927 .011245728 .12399292 .011245728 .117996219 .011245728 .09498596 .011245728 .07398987 .024276734 .09899902 .029266358 .12098694 .05027771 .12098694 .07827759 .12098694 .105270389 .09899902 .11328125 .083999637 .11328125 .053985597 .11328125 .0289917 .08728027 .0289917 .055267335 .0289917 .009246826 .07899475-.0107421879 .12298584-.0107421879 .18899536-.0107421879 .22499085 .059280397 .22799683 .0652771 .23999024 .028274537 .27598573-.0107421879 .33599855-.0107421879 .43899537-.0107421879 .49598695 .118270877 .49598695 .14328003 .49598695 .1532898 .4869995 .1532898 .48399354 .1532898 .47499085 .1532898 .47299195 .14929199 .47099305 .14228821 .43798829 .03527832 .36999513 .011245728 .33799745 .011245728 .29899598 .011245728 .2829895 .043273927 .2829895 .07727051 .2829895 .09927368 .2889862 .121276859 .2999878 .16529846L.33399964 .30233766Z"/>
<path id="font_1_2" d="M.48599244 .38136292C.48999024 .39537049 .48999024 .39736939 .48999024 .40437318 .48999024 .42237855 .47599793 .43138124 .46099855 .43138124 .45098878 .43138124 .43499757 .42536927 .42599488 .41036988 .42399598 .405365 .41600038 .37435914 .4119873 .35635377 .40499879 .33035279 .397995 .30334474 .3919983 .27633668L.34700013 .09628296C.34298707 .08126831 .2999878 .011245728 .23399353 .011245728 .18299866 .011245728 .17199707 .055267335 .17199707 .0922699 .17199707 .1382904 .18899536 .20030213 .22299195 .28833009 .23899842 .3293457 .24299622 .3403473 .24299622 .36035157 .24299622 .405365 .21099854 .4423828 .16099549 .4423828 .06599426 .4423828 .0289917 .29733277 .0289917 .28833009 .0289917 .27833558 .038986207 .27833558 .040985109 .27833558 .050994874 .27833558 .051986696 .28033448 .056991579 .29634095 .083999637 .3903656 .12399292 .42037965 .1579895 .42037965 .1659851 .42037965 .18299866 .42037965 .18299866 .3883667 .18299866 .36335755 .17298889 .3373413 .1659851 .31834413 .12599182 .21231079 .10798645 .1552887 .10798645 .10827637 .10798645 .019256592 .17098999-.0107421879 .22999573-.0107421879 .2689972-.0107421879 .30299378 .0062561037 .33099366 .03425598 .31799317-.017745972 .30599977-.06674194 .2659912-.11973572 .23999024-.15385437 .20199585-.18309021 .1559906-.18309021 .14199829-.18309021 .09700012-.18005371 .07998657-.14074707 .09599304-.14074707 .10899353-.14074707 .12298584-.1287384 .1329956-.11973572 .14299011-.10673523 .14299011-.08773804 .14299011-.056747438 .115997318-.052734376 .10598755-.052734376 .08299255-.052734376 .049987794-.068740848 .049987794-.11773682 .049987794-.16796875 .09399414-.20507813 .1559906-.20507813 .25898744-.20507813 .3619995-.11373901 .3899994-.00074768069L.48599244 .38136292Z"/>
<path id="font_2_1" d="M.6589966 .23046875C.6759949 .23046875 .69400027 .23046875 .69400027 .25045777 .69400027 .27046205 .6759949 .27046205 .6589966 .27046205H.117996219C.100997928 .27046205 .08299255 .27046205 .08299255 .25045777 .08299255 .23046875 .100997928 .23046875 .117996219 .23046875H.6589966Z"/>
<path id="font_3_6" d="M.13198853 .327713V.35173036C.13198853 .6047821 .2559967 .64100649 .30699159 .64100649 .33099366 .64100649 .37298585 .634964 .394989 .6007538 .37998963 .6007538 .33999635 .6007538 .33999635 .5557556 .33999635 .524765 .3639984 .5097656 .38598634 .5097656 .4019928 .5097656 .43199159 .51875308 .43199159 .5577545 .43199159 .6178589 .3880005 .6660156 .30499269 .6660156 .1769867 .6660156 .041992189 .5367584 .041992189 .31570436 .041992189 .048553468 .1579895-.022460938 .25099183-.022460938 .3619995-.022460938 .45700074 .07156372 .45700074 .2036438 .45700074 .33070375 .36799623 .4267578 .25698854 .4267578 .18899536 .4267578 .1519928 .37573243 .13198853 .327713M.25099183 .0055389406C.18798828 .0055389406 .1579895 .06556702 .1519928 .080566409 .13398743 .127594 .13398743 .2076416 .13398743 .22564698 .13398743 .30369569 .1659851 .40374757 .2559967 .40374757 .27198792 .40374757 .31799317 .40374757 .34899903 .34172059 .36698915 .30470277 .36698915 .2536621 .36698915 .20463562 .36698915 .15661621 .36698915 .10658264 .34999085 .0705719 .31999208 .010528564 .27398683 .0055389406 .25099183 .0055389406Z"/>
<path id="font_3_5" d="M.2939911 .16503906V.07800293C.2939911 .041992189 .2919922 .0309906 .21798706 .0309906H.19699097V0C.23799134 .0029907227 .2899933 .0029907227 .33198548 .0029907227 .37399293 .0029907227 .4269867 .0029907227 .46798707 0V.0309906H.44699098C.37298585 .0309906 .37098695 .041992189 .37098695 .07800293V.16503906H.47099305V.19602967H.37098695V.65075686C.37098695 .67074587 .37098695 .6767578 .35499574 .6767578 .34599305 .6767578 .34298707 .6767578 .33499146 .66474917L.027999878 .19602967V.16503906H.2939911M.2999878 .19602967H.055999757L.2999878 .5688019V.19602967Z"/>
<path id="font_3_3" d="M.1269989 .07699585 .23298645 .18003845C.3889923 .31811524 .44898988 .3721466 .44898988 .47216798 .44898988 .5860901 .35899354 .6660156 .23699951 .6660156 .12399292 .6660156 .049987794 .57411196 .049987794 .48516847 .049987794 .4291687 .099990848 .4291687 .102996829 .4291687 .11999512 .4291687 .15499878 .44117738 .15499878 .48217774 .15499878 .5081787 .13699341 .5341797 .101989749 .5341797 .09399414 .5341797 .09199524 .5341797 .08898926 .5331726 .11199951 .59806826 .1659851 .63500979 .22399903 .63500979 .31498719 .63500979 .35798646 .5541382 .35798646 .47216798 .35798646 .39215089 .30799867 .31311036 .25299073 .25108338L.06098938 .036987306C.049987794 .025985718 .049987794 .023986817 .049987794 0H.42099L.44898988 .17404175H.42399598C.4189911 .14402771 .4119873 .1000061 .4019928 .084991458 .394989 .07699585 .32899476 .07699585 .30699159 .07699585H.1269989Z"/>
<path id="font_3_2" d="M.2939911 .64004519C.2939911 .66400149 .2939911 .6660156 .2709961 .6660156 .20899964 .60227969 .12098694 .60227969 .08898926 .60227969V.57128909C.10899353 .57128909 .16799927 .57128909 .21998596 .5972748V.07902527C.21998596 .042999269 .21699524 .0309906 .1269989 .0309906H.09498596V0C.12998963 .0029907227 .21699524 .0029907227 .25698854 .0029907227 .29699708 .0029907227 .38398744 .0029907227 .4189911 0V.0309906H.3869934C.29699708 .0309906 .2939911 .041992189 .2939911 .07902527V.64004519Z"/>
<path id="font_3_1" d="M.45999146 .31976319C.45999146 .39982606 .45498658 .47988893 .41999818 .5539398 .37399293 .65000918 .2919922 .6660156 .25 .6660156 .18998719 .6660156 .116989139 .64001467 .07598877 .54693606 .04399109 .47789 .038986207 .39982606 .038986207 .31976319 .038986207 .24472046 .042999269 .15464783 .083999637 .07859802 .1269989-.0024719239 .19999695-.022460938 .24899292-.022460938 .30299378-.022460938 .3789978-.0014648438 .4229889 .09359741 .45498658 .16265869 .45999146 .2407074 .45999146 .31976319M.24899292-.00047302247C.20999146-.00047302247 .15098572 .024551392 .1329956 .12062073 .12199402 .18066406 .12199402 .2727356 .12199402 .3317871 .12199402 .39582826 .12199402 .46188355 .12998963 .5159149 .14898682 .63500979 .22399903 .64401248 .24899292 .64401248 .28199769 .64401248 .34799195 .6259918 .36698915 .52693179 .3769989 .47088624 .3769989 .39482118 .3769989 .3317871 .3769989 .25672914 .3769989 .18867493 .3659973 .12461853 .35099793 .029556275 .2939911-.00047302247 .24899292-.00047302247Z"/>
<path id="font_3_4" d="M.2899933 .35191346C.37199403 .37893678 .42999269 .4490509 .42999269 .52809146 .42999269 .6100464 .34199525 .6660156 .24598694 .6660156 .14498902 .6660156 .068984989 .60606387 .068984989 .53009036 .068984989 .49710084 .09098816 .47808839 .11999512 .47808839 .15098572 .47808839 .17098999 .50009158 .17098999 .5290985 .17098999 .57910159 .12399292 .57910159 .10899353 .57910159 .13999939 .62802127 .20599365 .64100649 .24198914 .64100649 .2829895 .64100649 .33799745 .6190338 .33799745 .5290985 .33799745 .51708987 .33599855 .45906068 .30999757 .4149933 .27999879 .36691285 .24598694 .36390687 .22099304 .36291505 .21299744 .36190797 .18899536 .35990907 .18199158 .35990907 .17399597 .35890199 .16699219 .35791017 .16699219 .3479004 .16699219 .33691407 .17399597 .33691407 .19099427 .33691407H.23498535C.31698609 .33691407 .35398866 .2686615 .35398866 .17037964 .35398866 .034469606 .2849884 .0055389406 .24099732 .0055389406 .19799805 .0055389406 .12298584 .022491456 .08799744 .08137512 .12298584 .07637024 .1539917 .09837341 .1539917 .1363678 .1539917 .17237854 .1269989 .19238281 .09799194 .19238281 .07398987 .19238281 .041992189 .17837525 .041992189 .1343689 .041992189 .043441774 .1349945-.022460938 .24398804-.022460938 .3659973-.022460938 .45700074 .06838989 .45700074 .17037964 .45700074 .252594 .3939972 .33088685 .2899933 .35191346Z"/>
</defs>
<path transform="matrix(1.00005,0,0,-1,108.62976,161.537)" stroke-width=".3985" stroke-linecap="butt" stroke-miterlimit="10" stroke-linejoin="miter" fill="none" stroke="#00aeef" d="M-102.04953-34.0165H68.03302M-102.04953-17.00824H68.03302M-102.04953 0H68.03302M-102.04953 17.00824H68.03302M-102.04953 34.0165H68.03302M-102.04953 51.02477H68.03302M-102.04953 68.03302H68.03302M-102.04953 85.04128H68.03302M-102.04953 102.04953H68.03302M-102.04953 119.0578H68.03302M-102.04953 136.06009H68.03302M-102.04953-34.0165V136.06606M-85.04128-34.0165V136.06606M-68.03302-34.0165V136.06606M-51.02477-34.0165V136.06606M-34.0165-34.0165V136.06606M-17.00824-34.0165V136.06606M0-34.0165V136.06606M17.00824-34.0165V136.06606M34.0165-34.0165V136.06606M51.02477-34.0165V136.06606M68.02705-34.0165V136.06606M68.03302 136.06606"/>
<path transform="matrix(1.00005,0,0,-1,108.62976,161.537)" stroke-width=".79701" stroke-linecap="butt" stroke-miterlimit="10" stroke-linejoin="miter" fill="none" stroke="#000000" d="M-102.04953 0H76.80345"/>
<path transform="matrix(1.00005,0,0,-1,185.43704,161.537)" d="M1.0361 0C-.25902 .25902-1.55415 .77707-3.1083 1.68365-1.55415 .51805-1.55415-.51805-3.1083-1.68365-1.55415-.77707-.25902-.25902 1.0361 0Z"/>
<path transform="matrix(1.00005,0,0,-1,185.43704,161.537)" stroke-width=".79701" stroke-linecap="butt" stroke-linejoin="round" fill="none" stroke="#000000" d="M1.0361 0C-.25902 .25902-1.55415 .77707-3.1083 1.68365-1.55415 .51805-1.55415-.51805-3.1083-1.68365-1.55415-.77707-.25902-.25902 1.0361 0Z"/>
<use data-text="x" xlink:href="#font_1_1" transform="matrix(9.963098,0,0,-9.9626,190.59085,163.682)"/>
<path transform="matrix(1.00005,0,0,-1,108.62976,161.537)" stroke-width=".79701" stroke-linecap="butt" stroke-miterlimit="10" stroke-linejoin="miter" fill="none" stroke="#000000" d="M0-34.0165V148.2381"/>
<path transform="matrix(0,-1,-1.00005,-0,108.62976,13.298904)" d="M1.0361 0C-.25902 .25902-1.55415 .77707-3.1083 1.68365-1.55415 .51805-1.55415-.51805-3.1083-1.68365-1.55415-.77707-.25902-.25902 1.0361 0Z"/>
<path transform="matrix(0,-1,-1.00005,-0,108.62976,13.298904)" stroke-width=".79701" stroke-linecap="butt" stroke-linejoin="round" fill="none" stroke="#000000" d="M1.0361 0C-.25902 .25902-1.55415 .77707-3.1083 1.68365-1.55415 .51805-1.55415-.51805-3.1083-1.68365-1.55415-.77707-.25902-.25902 1.0361 0Z"/>
<use data-text="y" xlink:href="#font_1_2" transform="matrix(9.963098,0,0,-9.9626,106.00863,6.208008)"/>
<path transform="matrix(1.00005,0,0,-1,108.62976,161.537)" stroke-width=".3985" stroke-linecap="butt" stroke-miterlimit="10" stroke-linejoin="miter" fill="none" stroke="#000000" d="M-102.04953 2.55112V-2.55139"/>
<path transform="matrix(1.00005,0,0,-1,108.62976,161.537)" d="M-109.41092-13.98642H-94.68814V-4.74319H-109.41092Z" fill="#ffffff"/>
<use data-text="&#x2212;" xlink:href="#font_2_1" transform="matrix(9.963098,0,0,-9.9626,.20935059,173.697)"/>
<use data-text="6" xlink:href="#font_3_6" transform="matrix(9.963098,0,0,-9.9626,7.9577486,173.697)"/>
<path transform="matrix(1.00005,0,0,-1,108.62976,161.537)" stroke-width=".3985" stroke-linecap="butt" stroke-miterlimit="10" stroke-linejoin="miter" fill="none" stroke="#000000" d="M-68.03302 2.55112V-2.55139"/>
<path transform="matrix(1.00005,0,0,-1,108.62976,161.537)" d="M-75.39442-13.98642H-60.67164V-4.74319H-75.39442Z" fill="#ffffff"/>
<use data-text="&#x2212;" xlink:href="#font_2_1" transform="matrix(9.963098,0,0,-9.9626,34.228044,173.697)"/>
<use data-text="4" xlink:href="#font_3_5" transform="matrix(9.963098,0,0,-9.9626,41.97644,173.697)"/>
<path transform="matrix(1.00005,0,0,-1,108.62976,161.537)" stroke-width=".3985" stroke-linecap="butt" stroke-miterlimit="10" stroke-linejoin="miter" fill="none" stroke="#000000" d="M-34.0165 2.55112V-2.55139"/>
<path transform="matrix(1.00005,0,0,-1,108.62976,161.537)" d="M-41.3779-13.98642H-26.655119V-4.74319H-41.3779Z" fill="#ffffff"/>
<use data-text="&#x2212;" xlink:href="#font_2_1" transform="matrix(9.963098,0,0,-9.9626,68.24574,173.697)"/>
<use data-text="2" xlink:href="#font_3_3" transform="matrix(9.963098,0,0,-9.9626,75.99414,173.697)"/>
<path transform="matrix(1.00005,0,0,-1,108.62976,161.537)" stroke-width=".3985" stroke-linecap="butt" stroke-miterlimit="10" stroke-linejoin="miter" fill="none" stroke="#000000" d="M34.0165 2.55112V-2.55139"/>
<path transform="matrix(1.00005,0,0,-1,108.62976,161.537)" d="M30.52953-13.15617H37.50347V-4.74319H30.52953Z" fill="#ffffff"/>
<use data-text="2" xlink:href="#font_3_3" transform="matrix(9.963098,0,0,-9.9626,140.15734,173.697)"/>
<path transform="matrix(1.00005,0,0,-1,108.62976,161.537)" stroke-width=".3985" stroke-linecap="butt" stroke-miterlimit="10" stroke-linejoin="miter" fill="none" stroke="#000000" d="M68.03302 2.55112V-2.55139"/>
<path transform="matrix(1.00005,0,0,-1,108.62976,161.537)" d="M64.54605-13.15617H71.51999V-4.74319H64.54605Z" fill="#ffffff"/>
<use data-text="4" xlink:href="#font_3_5" transform="matrix(9.963098,0,0,-9.9626,174.17504,173.697)"/>
<path transform="matrix(1.00005,0,0,-1,108.62976,161.537)" stroke-width=".3985" stroke-linecap="butt" stroke-miterlimit="10" stroke-linejoin="miter" fill="none" stroke="#000000" d="M2.55112-34.0165H-2.55139"/>
<path transform="matrix(1.00005,0,0,-1,108.62976,161.537)" d="M-24.44739-38.63812H-4.743189V-29.39489H-24.44739Z" fill="#ffffff"/>
<use data-text="&#x2212;" xlink:href="#font_2_1" transform="matrix(9.963098,0,0,-9.9626,85.17759,198.349)"/>
<use data-text="1" xlink:href="#font_3_2" transform="matrix(9.963098,0,0,-9.9626,92.92599,198.349)"/>
<use data-text="0" xlink:href="#font_3_1" transform="matrix(9.963098,0,0,-9.9626,97.907527,198.349)"/>
<path transform="matrix(1.00005,0,0,-1,108.62976,161.537)" stroke-width=".3985" stroke-linecap="butt" stroke-miterlimit="10" stroke-linejoin="miter" fill="none" stroke="#000000" d="M2.55112 34.0165H-2.55139"/>
<path transform="matrix(1.00005,0,0,-1,108.62976,161.537)" d="M-16.69855 29.81001H-4.743209V38.222993H-16.69855Z" fill="#ffffff"/>
<use data-text="1" xlink:href="#font_3_2" transform="matrix(9.963098,0,0,-9.9626,92.92698,130.731)"/>
<use data-text="0" xlink:href="#font_3_1" transform="matrix(9.963098,0,0,-9.9626,97.90853,130.731)"/>
<path transform="matrix(1.00005,0,0,-1,108.62976,161.537)" stroke-width=".3985" stroke-linecap="butt" stroke-miterlimit="10" stroke-linejoin="miter" fill="none" stroke="#000000" d="M2.55112 68.03302H-2.55139"/>
<path transform="matrix(1.00005,0,0,-1,108.62976,161.537)" d="M-16.69855 63.82654H-4.743209V72.239528H-16.69855Z" fill="#ffffff"/>
<use data-text="2" xlink:href="#font_3_3" transform="matrix(9.963098,0,0,-9.9626,92.92698,96.714008)"/>
<use data-text="0" xlink:href="#font_3_1" transform="matrix(9.963098,0,0,-9.9626,97.90853,96.714008)"/>
<path transform="matrix(1.00005,0,0,-1,108.62976,161.537)" stroke-width=".3985" stroke-linecap="butt" stroke-miterlimit="10" stroke-linejoin="miter" fill="none" stroke="#000000" d="M2.55112 102.04953H-2.55139"/>
<path transform="matrix(1.00005,0,0,-1,108.62976,161.537)" d="M-16.69855 97.84305H-4.743209V106.25603H-16.69855Z" fill="#ffffff"/>
<use data-text="3" xlink:href="#font_3_4" transform="matrix(9.963098,0,0,-9.9626,92.92698,62.698007)"/>
<use data-text="0" xlink:href="#font_3_1" transform="matrix(9.963098,0,0,-9.9626,97.90853,62.698007)"/>
<path transform="matrix(1.00005,0,0,-1,108.62976,161.537)" stroke-width=".3985" stroke-linecap="butt" stroke-miterlimit="10" stroke-linejoin="miter" fill="none" stroke="#000000" d="M2.55112 136.06606H-2.55139"/>
<path transform="matrix(1.00005,0,0,-1,108.62976,161.537)" d="M-16.69855 131.85958H-4.743209V140.27256H-16.69855Z" fill="#ffffff"/>
<use data-text="4" xlink:href="#font_3_5" transform="matrix(9.963098,0,0,-9.9626,92.92698,28.681)"/>
<use data-text="0" xlink:href="#font_3_1" transform="matrix(9.963098,0,0,-9.9626,97.90853,28.681)"/>
<path transform="matrix(1.00005,0,0,-1,108.62976,161.537)" stroke-width="1.19553" stroke-linecap="butt" stroke-miterlimit="10" stroke-linejoin="miter" fill="none" stroke="#ff0000" d="M-89.64323 135.2117C-88.4024 130.73862-88.4024 130.73862-87.7336 128.37995-87.06477 126.02127-85.9922 122.29958-85.32338 120.01674-84.65457 117.7339-83.58199 114.13382-82.91316 111.9268-82.24435 109.7198-81.17177 106.24138-80.50294 104.11017-79.83414 101.97896-78.76157 98.6219-78.09274 96.56653-77.42392 94.51117-76.35135 91.276-75.68253 89.29646-75.01372 87.31693-73.94112 84.20313-73.27231 82.29938-72.60349 80.39565-71.53093 77.40353-70.8621 75.5756-70.19328 73.74767-69.12071 70.87695-68.45189 69.12483-67.78308 67.37273-66.7105 64.62384-66.04167 62.94762-65.37286 61.27138-64.3003 58.64412-63.63145 57.04367-62.96265 55.44324-61.89008 52.9374-61.22125 51.41275-60.55243 49.88809-59.47986 47.5039-58.81104 46.0551-58.14223 44.60631-57.06964 42.34375-56.40082 40.97073-55.73201 39.59773-54.65942 37.45657-53.99062 36.15941-53.3218 34.86223-52.24922 32.84294-51.5804 31.6216-50.91159 30.40025-49.839 28.50232-49.17018 27.35681-48.50137 26.21132-47.4288 24.43529-46.75998 23.36557-46.09116 22.29587-45.01859 20.641-44.34976 19.6471-43.68095 18.65318-42.60837 17.1202-41.93954 16.20215-41.27074 15.2841-40.19815 13.87273-39.52934 13.03049-38.86052 12.18825-37.78795 10.89825-37.11913 10.13185-36.4503 9.36545-35.37773 8.19733-34.70891 7.50676-34.0401 6.81618-32.96751 5.76944-32.2987 5.15468-31.62988 4.5399-30.55731 3.61485-29.88847 3.07587-29.21967 2.5369-28.1471 1.73318-27.47829 1.2701-26.80946 .807-25.73688 .12541-25.06805-.26183-24.39925-.64912-23.32668-1.20958-22.65784-1.52106-21.98903-1.83253-20.91646-2.27106-20.24765-2.50674-19.57881-2.74242-18.50624-3.05981-17.83742-3.21965-17.16861-3.3795-16.09602-3.57475-15.4272-3.65877-14.75839-3.74278-13.68582-3.81691-13.017-3.82512-12.34818-3.83333-11.2756-3.78555-10.60678-3.71794-9.93797-3.65033-8.86539-3.48116-8.19656-3.33774-7.52776-3.1943-6.45518-2.90349-5.78636-2.68425-5.11754-2.46501-4.04497-2.05257-3.37614-1.75748-2.70732-1.46239-1.63475-.92828-.96594-.55743-.29712-.1866 .77542 .46864 1.44424 .91531 2.11305 1.362 3.18564 2.13937 3.85445 2.66194 4.52328 3.1845 5.59584 4.0832 6.26466 4.68156 6.93347 5.2799 8.00606 6.30028 8.67488 6.97447 9.34369 7.64865 10.41628 8.79068 11.0851 9.54065 11.75392 10.29063 12.82648 11.55405 13.4953 12.37987 14.16412 13.20567 15.2367 14.59094 15.90552 15.4926 16.57433 16.39426 17.64691 17.90088 18.31573 18.87839 18.98454 19.85588 20.05711 21.48438 20.72594 22.53769 21.39476 23.59102 22.46735 25.34093 23.13615 26.47003 23.80496 27.5991 24.87755 29.47044 25.54637 30.67537 26.21518 31.8803 27.28775 33.87349 27.95659 35.15425 28.6254 36.43501 29.69798 38.54958 30.36679 39.90617 31.03561 41.26276 32.10818 43.49919 32.77701 44.93161 33.44582 46.36404 34.5184 48.72186 35.18723 50.2301 35.85603 51.73831 36.9286 54.21782 37.59741 55.80183 38.26625 57.38586 39.33882 59.98676 40.00764 61.64662 40.67645 63.30646 41.74904 66.02924 42.41786 67.76492 43.08667 69.50061 44.15924 72.34477 44.82806 74.15627 45.49689 75.96774 46.56946 78.93356 47.23828 80.82088 47.90709 82.70819 48.97968 85.79561 49.6485 87.75876 50.3173 89.72192 51.3899 92.93095 52.05872 94.96994 52.72752 97.00893 53.8001 100.3396 54.46892 102.45439 55.13774 104.56918 56.21031 108.02129 56.87912 110.21187 57.54794 112.40247 58.62053 115.97621 59.28935 118.24261 59.95816 120.50903 61.03073 124.2044 61.69957 126.54666 62.36838 128.88892 64.10976 135.12398 63.606 133.32013"/>
<path transform="matrix(-.26727335,-.96356,-.9636081,.26726,18.982056,26.325303)" d="M1.27522 0C-.31879 .31879-1.91284 .9564-3.8257 2.07224-1.91284 .6376-1.91284-.6376-3.8257-2.07224-1.91284-.9564-.31879-.31879 1.27522 0Z" fill="#ff0000"/>
<path transform="matrix(-.26727335,-.96356,-.9636081,.26726,18.982056,26.325303)" stroke-width="1.19553" stroke-linecap="butt" stroke-linejoin="round" fill="none" stroke="#ff0000" d="M1.27522 0C-.31879 .31879-1.91284 .9564-3.8257 2.07224-1.91284 .6376-1.91284-.6376-3.8257-2.07224-1.91284-.9564-.31879-.31879 1.27522 0Z"/>
<path transform="matrix(.26898346,-.96309,-.9631381,-.26897,172.23892,28.216874)" d="M1.27522 0C-.31879 .31879-1.91284 .9564-3.8257 2.07224-1.91284 .6376-1.91284-.6376-3.8257-2.07224-1.91284-.9564-.31879-.31879 1.27522 0Z" fill="#ff0000"/>
<path transform="matrix(.26898346,-.96309,-.9631381,-.26897,172.23892,28.216874)" stroke-width="1.19553" stroke-linecap="butt" stroke-linejoin="round" fill="none" stroke="#ff0000" d="M1.27522 0C-.31879 .31879-1.91284 .9564-3.8257 2.07224-1.91284 .6376-1.91284-.6376-3.8257-2.07224-1.91284-.9564-.31879-.31879 1.27522 0Z"/>
<path transform="matrix(1.00005,0,0,-1,108.62976,161.537)" stroke-width=".79701" stroke-linecap="butt" stroke-miterlimit="10" stroke-linejoin="miter" fill="none" stroke="#0000ff" d="M-98.29637 134.96402 41.60226-32.91446"/>
<path transform="matrix(-.64018198,-.76819,-.7682284,.64015,10.328476,26.572999)" d="M1.0361 0C-.25902 .25902-1.55415 .77707-3.1083 1.68365-1.55415 .51805-1.55415-.51805-3.1083-1.68365-1.55415-.77707-.25902-.25902 1.0361 0Z" fill="#0000ff"/>
<path transform="matrix(-.64018198,-.76819,-.7682284,.64015,10.328476,26.572999)" stroke-width=".79701" stroke-linecap="butt" stroke-linejoin="round" fill="none" stroke="#0000ff" d="M1.0361 0C-.25902 .25902-1.55415 .77707-3.1083 1.68365-1.55415 .51805-1.55415-.51805-3.1083-1.68365-1.55415-.77707-.25902-.25902 1.0361 0Z"/>
<path transform="matrix(.64018198,.76819,.7682284,-.64015,150.2341,194.45145)" d="M1.0361 0C-.25902 .25902-1.55415 .77707-3.1083 1.68365-1.55415 .51805-1.55415-.51805-3.1083-1.68365-1.55415-.77707-.25902-.25902 1.0361 0Z" fill="#0000ff"/>
<path transform="matrix(.64018198,.76819,.7682284,-.64015,150.2341,194.45145)" stroke-width=".79701" stroke-linecap="butt" stroke-linejoin="round" fill="none" stroke="#0000ff" d="M1.0361 0C-.25902 .25902-1.55415 .77707-3.1083 1.68365-1.55415 .51805-1.55415-.51805-3.1083-1.68365-1.55415-.77707-.25902-.25902 1.0361 0Z"/>
<path transform="matrix(1.00005,0,0,-1,108.62976,161.537)" d="M-82.49016 119.0578C-82.49016 120.46675-83.63232 121.60892-85.04128 121.60892-86.45023 121.60892-87.59239 120.46675-87.59239 119.0578-87.59239 117.64885-86.45023 116.50668-85.04128 116.50668-83.63232 116.50668-82.49016 117.64885-82.49016 119.0578ZM-85.04128 119.0578" fill="#00ff00"/>
<path transform="matrix(1.00005,0,0,-1,108.62976,161.537)" stroke-width=".3985" stroke-linecap="butt" stroke-miterlimit="10" stroke-linejoin="miter" fill="none" stroke="#00ff00" d="M-82.49016 119.0578C-82.49016 120.46675-83.63232 121.60892-85.04128 121.60892-86.45023 121.60892-87.59239 120.46675-87.59239 119.0578-87.59239 117.64885-86.45023 116.50668-85.04128 116.50668-83.63232 116.50668-82.49016 117.64885-82.49016 119.0578ZM-85.04128 119.0578"/>
<path transform="matrix(1.00005,0,0,-1,108.62976,161.537)" d="M11.05524 6.80318C11.05524 8.21213 9.91307 9.35431 8.50412 9.35431 7.09517 9.35431 5.953 8.21213 5.953 6.80318 5.953 5.39423 7.09517 4.25206 8.50412 4.25206 9.91307 4.25206 11.05524 5.39423 11.05524 6.80318ZM8.50412 6.80318" fill="#00ff00"/>
<path transform="matrix(1.00005,0,0,-1,108.62976,161.537)" stroke-width=".3985" stroke-linecap="butt" stroke-miterlimit="10" stroke-linejoin="miter" fill="none" stroke="#00ff00" d="M11.05524 6.80318C11.05524 8.21213 9.91307 9.35431 8.50412 9.35431 7.09517 9.35431 5.953 8.21213 5.953 6.80318 5.953 5.39423 7.09517 4.25206 8.50412 4.25206 9.91307 4.25206 11.05524 5.39423 11.05524 6.80318ZM8.50412 6.80318"/>
<path transform="matrix(1.00005,0,0,-1,108.62976,161.537)" d="M2.55112 0C2.55112 1.40894 1.40894 2.55112 0 2.55112-1.40894 2.55112-2.55112 1.40894-2.55112 0-2.55112-1.40894-1.40894-2.55112 0-2.55112 1.40894-2.55112 2.55112-1.40894 2.55112 0ZM0 0" fill="#ff0000"/>
<path transform="matrix(1.00005,0,0,-1,108.62976,161.537)" stroke-width=".3985" stroke-linecap="butt" stroke-miterlimit="10" stroke-linejoin="miter" fill="none" stroke="#ff0000" d="M2.55112 0C2.55112 1.40894 1.40894 2.55112 0 2.55112-1.40894 2.55112-2.55112 1.40894-2.55112 0-2.55112-1.40894-1.40894-2.55112 0-2.55112 1.40894-2.55112 2.55112-1.40894 2.55112 0ZM0 0"/>
<path transform="matrix(1.00005,0,0,-1,108.62976,161.537)" d="M-22.96124 0C-22.96124 1.40894-24.10341 2.55112-25.51236 2.55112-26.92131 2.55112-28.06348 1.40894-28.06348 0-28.06348-1.40894-26.92131-2.55112-25.51236-2.55112-24.10341-2.55112-22.96124-1.40894-22.96124 0ZM-25.51236 0" fill="#ff0000"/>
<path transform="matrix(1.00005,0,0,-1,108.62976,161.537)" stroke-width=".3985" stroke-linecap="butt" stroke-miterlimit="10" stroke-linejoin="miter" fill="none" stroke="#ff0000" d="M-22.96124 0C-22.96124 1.40894-24.10341 2.55112-25.51236 2.55112-26.92131 2.55112-28.06348 1.40894-28.06348 0-28.06348-1.40894-26.92131-2.55112-25.51236-2.55112-24.10341-2.55112-22.96124-1.40894-22.96124 0ZM-25.51236 0"/>
<path transform="matrix(1.00005,0,0,-1,108.62976,161.537)" d="M2.55112 17.00824C2.55112 18.41719 1.40894 19.55936 0 19.55936-1.40894 19.55936-2.55112 18.41719-2.55112 17.00824-2.55112 15.59929-1.40894 14.45712 0 14.45712 1.40894 14.45712 2.55112 15.59929 2.55112 17.00824ZM0 17.00824" fill="#0000ff"/>
<path transform="matrix(1.00005,0,0,-1,108.62976,161.537)" stroke-width=".3985" stroke-linecap="butt" stroke-miterlimit="10" stroke-linejoin="miter" fill="none" stroke="#0000ff" d="M2.55112 17.00824C2.55112 18.41719 1.40894 19.55936 0 19.55936-1.40894 19.55936-2.55112 18.41719-2.55112 17.00824-2.55112 15.59929-1.40894 14.45712 0 14.45712 1.40894 14.45712 2.55112 15.59929 2.55112 17.00824ZM0 17.00824"/>
<path transform="matrix(1.00005,0,0,-1,108.62976,161.537)" d="M16.72455 0C16.72455 1.40894 15.58238 2.55112 14.17343 2.55112 12.76448 2.55112 11.62231 1.40894 11.62231 0 11.62231-1.40894 12.76448-2.55112 14.17343-2.55112 15.58238-2.55112 16.72455-1.40894 16.72455 0ZM14.17343 0" fill="#0000ff"/>
<path transform="matrix(1.00005,0,0,-1,108.62976,161.537)" stroke-width=".3985" stroke-linecap="butt" stroke-miterlimit="10" stroke-linejoin="miter" fill="none" stroke="#0000ff" d="M16.72455 0C16.72455 1.40894 15.58238 2.55112 14.17343 2.55112 12.76448 2.55112 11.62231 1.40894 11.62231 0 11.62231-1.40894 12.76448-2.55112 14.17343-2.55112 15.58238-2.55112 16.72455-1.40894 16.72455 0ZM14.17343 0"/>
</svg>
