<svg xmlns="http://www.w3.org/2000/svg" xmlns:xlink="http://www.w3.org/1999/xlink" version="1.1" width="195" height="192" viewBox="0 0 195 192">
<defs>
<path id="font_1_1" d="M.33399964 .30233766C.33999635 .32835389 .36299134 .42037965 .43299867 .42037965 .43798829 .42037965 .46199037 .42037965 .48298646 .40734864 .45498658 .402359 .43499757 .37734986 .43499757 .35334779 .43499757 .33735658 .44599916 .31835938 .47299195 .31835938 .49499513 .31835938 .5269928 .3363495 .5269928 .37635804 .5269928 .42837525 .46798707 .4423828 .43399049 .4423828 .37599183 .4423828 .34098817 .38935853 .32899476 .36634828 .3039856 .43237306 .25 .4423828 .22099304 .4423828 .116989139 .4423828 .05999756 .3133545 .05999756 .28834535 .05999756 .27833558 .069992069 .27833558 .07199097 .27833558 .07998657 .27833558 .08299255 .28033448 .084991458 .28933717 .11898804 .39535523 .18499756 .42037965 .21899414 .42037965 .23799134 .42037965 .272995 .4113617 .272995 .35334779 .272995 .32235719 .2559967 .25532533 .21899414 .11528015 .20298767 .053268434 .16799927 .011245728 .12399292 .011245728 .117996219 .011245728 .09498596 .011245728 .07398987 .024276734 .09899902 .029266358 .12098694 .05027771 .12098694 .07827759 .12098694 .105270389 .09899902 .11328125 .083999637 .11328125 .053985597 .11328125 .0289917 .08728027 .0289917 .055267335 .0289917 .009246826 .07899475-.0107421879 .12298584-.0107421879 .18899536-.0107421879 .22499085 .059280397 .22799683 .0652771 .23999024 .028274537 .27598573-.0107421879 .33599855-.0107421879 .43899537-.0107421879 .49598695 .118270877 .49598695 .14328003 .49598695 .1532898 .4869995 .1532898 .48399354 .1532898 .47499085 .1532898 .47299195 .14929199 .47099305 .14228821 .43798829 .03527832 .36999513 .011245728 .33799745 .011245728 .29899598 .011245728 .2829895 .043273927 .2829895 .07727051 .2829895 .09927368 .2889862 .121276859 .2999878 .16529846L.33399964 .30233766Z"/>
<path id="font_1_2" d="M.48599244 .38136292C.48999024 .39537049 .48999024 .39736939 .48999024 .40437318 .48999024 .42237855 .47599793 .43138124 .46099855 .43138124 .45098878 .43138124 .43499757 .42536927 .42599488 .41036988 .42399598 .405365 .41600038 .37435914 .4119873 .35635377 .40499879 .33035279 .397995 .30334474 .3919983 .27633668L.34700013 .09628296C.34298707 .08126831 .2999878 .011245728 .23399353 .011245728 .18299866 .011245728 .17199707 .055267335 .17199707 .0922699 .17199707 .1382904 .18899536 .20030213 .22299195 .28833009 .23899842 .3293457 .24299622 .3403473 .24299622 .36035157 .24299622 .405365 .21099854 .4423828 .16099549 .4423828 .06599426 .4423828 .0289917 .29733277 .0289917 .28833009 .0289917 .27833558 .038986207 .27833558 .040985109 .27833558 .050994874 .27833558 .051986696 .28033448 .056991579 .29634095 .083999637 .3903656 .12399292 .42037965 .1579895 .42037965 .1659851 .42037965 .18299866 .42037965 .18299866 .3883667 .18299866 .36335755 .17298889 .3373413 .1659851 .31834413 .12599182 .21231079 .10798645 .1552887 .10798645 .10827637 .10798645 .019256592 .17098999-.0107421879 .22999573-.0107421879 .2689972-.0107421879 .30299378 .0062561037 .33099366 .03425598 .31799317-.017745972 .30599977-.06674194 .2659912-.11973572 .23999024-.15385437 .20199585-.18309021 .1559906-.18309021 .14199829-.18309021 .09700012-.18005371 .07998657-.14074707 .09599304-.14074707 .10899353-.14074707 .12298584-.1287384 .1329956-.11973572 .14299011-.10673523 .14299011-.08773804 .14299011-.056747438 .115997318-.052734376 .10598755-.052734376 .08299255-.052734376 .049987794-.068740848 .049987794-.11773682 .049987794-.16796875 .09399414-.20507813 .1559906-.20507813 .25898744-.20507813 .3619995-.11373901 .3899994-.00074768069L.48599244 .38136292Z"/>
<path id="font_2_1" d="M.6589966 .23046875C.6759949 .23046875 .69400027 .23046875 .69400027 .25045777 .69400027 .27046205 .6759949 .27046205 .6589966 .27046205H.117996219C.100997928 .27046205 .08299255 .27046205 .08299255 .25045777 .08299255 .23046875 .100997928 .23046875 .117996219 .23046875H.6589966Z"/>
<path id="font_3_2" d="M.2939911 .64004519C.2939911 .66400149 .2939911 .6660156 .2709961 .6660156 .20899964 .60227969 .12098694 .60227969 .08898926 .60227969V.57128909C.10899353 .57128909 .16799927 .57128909 .21998596 .5972748V.07902527C.21998596 .042999269 .21699524 .0309906 .1269989 .0309906H.09498596V0C.12998963 .0029907227 .21699524 .0029907227 .25698854 .0029907227 .29699708 .0029907227 .38398744 .0029907227 .4189911 0V.0309906H.3869934C.29699708 .0309906 .2939911 .041992189 .2939911 .07902527V.64004519Z"/>
<path id="font_3_1" d="M.45999146 .31976319C.45999146 .39982606 .45498658 .47988893 .41999818 .5539398 .37399293 .65000918 .2919922 .6660156 .25 .6660156 .18998719 .6660156 .116989139 .64001467 .07598877 .54693606 .04399109 .47789 .038986207 .39982606 .038986207 .31976319 .038986207 .24472046 .042999269 .15464783 .083999637 .07859802 .1269989-.0024719239 .19999695-.022460938 .24899292-.022460938 .30299378-.022460938 .3789978-.0014648438 .4229889 .09359741 .45498658 .16265869 .45999146 .2407074 .45999146 .31976319M.24899292-.00047302247C.20999146-.00047302247 .15098572 .024551392 .1329956 .12062073 .12199402 .18066406 .12199402 .2727356 .12199402 .3317871 .12199402 .39582826 .12199402 .46188355 .12998963 .5159149 .14898682 .63500979 .22399903 .64401248 .24899292 .64401248 .28199769 .64401248 .34799195 .6259918 .36698915 .52693179 .3769989 .47088624 .3769989 .39482118 .3769989 .3317871 .3769989 .25672914 .3769989 .18867493 .3659973 .12461853 .35099793 .029556275 .2939911-.00047302247 .24899292-.00047302247Z"/>
<path id="font_3_3" d="M.44898988 .20022583C.44898988 .3193512 .36698915 .41944886 .25898744 .41944886 .21099854 .41944886 .16799927 .40345765 .13198853 .36842347V.5637665C.1519928 .5577698 .18499756 .55078127 .21699524 .55078127 .33999635 .55078127 .4099884 .6417694 .4099884 .6547699 .4099884 .6607666 .40699769 .6657715 .3999939 .6657715 .39898683 .6657715 .39698792 .6657715 .3919983 .66278079 .37199403 .6537781 .32299806 .6337738 .2559967 .6337738 .21598816 .6337738 .16999817 .6407776 .12298584 .6617737 .114990238 .66477969 .11299133 .66477969 .11099243 .66477969 .100997928 .66477969 .100997928 .6567688 .100997928 .6407776V.34439088C.100997928 .32637025 .100997928 .31835938 .114990238 .31835938 .12199402 .31835938 .12399292 .32136537 .12799073 .32736207 .13899231 .3433838 .17599488 .39746095 .25698854 .39746095 .30899049 .39746095 .33399964 .35139466 .34199525 .33337403 .35798646 .29632569 .3600006 .25727845 .3600006 .20722962 .3600006 .17222595 .3600006 .11222839 .33599855 .07035828 .31199647 .031463624 .2749939 .0055389406 .22898865 .0055389406 .1559906 .0055389406 .09899902 .058380128 .08198547 .11723328 .084991458 .1162262 .08799744 .115234378 .09899902 .115234378 .13198853 .115234378 .14898682 .14022827 .14898682 .16423035 .14898682 .18823242 .13198853 .21322632 .09899902 .21322632 .084991458 .21322632 .049987794 .20622254 .049987794 .16023255 .049987794 .07434082 .11898804-.022460938 .23098755-.022460938 .34700013-.022460938 .44898988 .073349 .44898988 .20022583Z"/>
</defs>
<path transform="matrix(1.00006,0,0,-1.00006,94.11187,102.01534)" stroke-width=".3985" stroke-linecap="butt" stroke-miterlimit="10" stroke-linejoin="miter" fill="none" stroke="#00aeef" d="M-85.04128-85.04128H85.04128M-85.04128-76.53716H85.04128M-85.04128-68.03302H85.04128M-85.04128-59.52888H85.04128M-85.04128-51.02477H85.04128M-85.04128-42.52063H85.04128M-85.04128-34.0165H85.04128M-85.04128-25.51237H85.04128M-85.04128-17.00824H85.04128M-85.04128-8.50412H85.04128M-85.04128 0H85.04128M-85.04128 8.50412H85.04128M-85.04128 17.00824H85.04128M-85.04128 25.51237H85.04128M-85.04128 34.0165H85.04128M-85.04128 42.52063H85.04128M-85.04128 51.02477H85.04128M-85.04128 59.52888H85.04128M-85.04128 68.03302H85.04128M-85.04128 76.53716H85.04128M-85.04128 85.0383H85.04128M-85.04128-85.04128V85.04128M-76.53716-85.04128V85.04128M-68.03302-85.04128V85.04128M-59.52888-85.04128V85.04128M-51.02477-85.04128V85.04128M-42.52063-85.04128V85.04128M-34.0165-85.04128V85.04128M-25.51237-85.04128V85.04128M-17.00824-85.04128V85.04128M-8.50412-85.04128V85.04128M0-85.04128V85.04128M8.50412-85.04128V85.04128M17.00824-85.04128V85.04128M25.51237-85.04128V85.04128M34.0165-85.04128V85.04128M42.52063-85.04128V85.04128M51.02477-85.04128V85.04128M59.52888-85.04128V85.04128M68.03302-85.04128V85.04128M76.53716-85.04128V85.04128M85.0383-85.04128V85.04128M85.04128 85.04128"/>
<path transform="matrix(1.00006,0,0,-1.00006,94.11187,102.01534)" stroke-width=".79701" stroke-linecap="butt" stroke-miterlimit="10" stroke-linejoin="miter" fill="none" stroke="#000000" d="M-85.04128 0H88.7092"/>
<path transform="matrix(1.00006,0,0,-1.00006,182.82639,102.01534)" d="M1.0361 0C-.25902 .25902-1.55415 .77707-3.1083 1.68365-1.55415 .51805-1.55415-.51805-3.1083-1.68365-1.55415-.77707-.25902-.25902 1.0361 0Z"/>
<path transform="matrix(1.00006,0,0,-1.00006,182.82639,102.01534)" stroke-width=".79701" stroke-linecap="butt" stroke-linejoin="round" fill="none" stroke="#000000" d="M1.0361 0C-.25902 .25902-1.55415 .77707-3.1083 1.68365-1.55415 .51805-1.55415-.51805-3.1083-1.68365-1.55415-.77707-.25902-.25902 1.0361 0Z"/>
<use data-text="x" xlink:href="#font_1_1" transform="matrix(9.963197,0,0,-9.963197,187.9805,104.16047)"/>
<path transform="matrix(1.00006,0,0,-1.00006,94.11187,102.01534)" stroke-width=".79701" stroke-linecap="butt" stroke-miterlimit="10" stroke-linejoin="miter" fill="none" stroke="#000000" d="M0-85.04128V88.7092"/>
<path transform="matrix(0,-1.00006,-1.00006,-0,94.11187,13.300827)" d="M1.0361 0C-.25902 .25902-1.55415 .77707-3.1083 1.68365-1.55415 .51805-1.55415-.51805-3.1083-1.68365-1.55415-.77707-.25902-.25902 1.0361 0Z"/>
<path transform="matrix(0,-1.00006,-1.00006,-0,94.11187,13.300827)" stroke-width=".79701" stroke-linecap="butt" stroke-linejoin="round" fill="none" stroke="#000000" d="M1.0361 0C-.25902 .25902-1.55415 .77707-3.1083 1.68365-1.55415 .51805-1.55415-.51805-3.1083-1.68365-1.55415-.77707-.25902-.25902 1.0361 0Z"/>
<use data-text="y" xlink:href="#font_1_2" transform="matrix(9.963197,0,0,-9.963197,91.490718,6.2095949)"/>
<path transform="matrix(1.00006,0,0,-1.00006,94.11187,102.01534)" stroke-width=".3985" stroke-linecap="butt" stroke-miterlimit="10" stroke-linejoin="miter" fill="none" stroke="#000000" d="M-85.04128 .85045V-.85031"/>
<path transform="matrix(1.00006,0,0,-1.00006,94.11187,102.01534)" d="M-94.89337-12.28535H-75.18917V-3.04212H-94.89337Z" fill="#ffffff"/>
<use data-text="&#x2212;" xlink:href="#font_2_1" transform="matrix(9.963197,0,0,-9.963197,.20924378,112.47497)"/>
<use data-text="1" xlink:href="#font_3_2" transform="matrix(9.963197,0,0,-9.963197,7.9586946,112.47497)"/>
<use data-text="0" xlink:href="#font_3_1" transform="matrix(9.963197,0,0,-9.963197,12.940292,112.47497)"/>
<path transform="matrix(1.00006,0,0,-1.00006,94.11187,102.01534)" stroke-width=".3985" stroke-linecap="butt" stroke-miterlimit="10" stroke-linejoin="miter" fill="none" stroke="#000000" d="M-42.52063 .85045V-.85031"/>
<path transform="matrix(1.00006,0,0,-1.00006,94.11187,102.01534)" d="M-49.88202-12.28535H-35.15924V-3.04212H-49.88202Z" fill="#ffffff"/>
<use data-text="&#x2212;" xlink:href="#font_2_1" transform="matrix(9.963197,0,0,-9.963197,45.222948,112.47497)"/>
<use data-text="5" xlink:href="#font_3_3" transform="matrix(9.963197,0,0,-9.963197,52.972398,112.47497)"/>
<path transform="matrix(1.00006,0,0,-1.00006,94.11187,102.01534)" stroke-width=".3985" stroke-linecap="butt" stroke-miterlimit="10" stroke-linejoin="miter" fill="none" stroke="#000000" d="M42.52063 .85045V-.85031"/>
<path transform="matrix(1.00006,0,0,-1.00006,94.11187,102.01534)" d="M39.03366-11.45511H46.0076V-3.0421296H39.03366Z" fill="#ffffff"/>
<use data-text="5" xlink:href="#font_3_3" transform="matrix(9.963197,0,0,-9.963197,134.14427,112.47497)"/>
<path transform="matrix(1.00006,0,0,-1.00006,94.11187,102.01534)" stroke-width=".3985" stroke-linecap="butt" stroke-miterlimit="10" stroke-linejoin="miter" fill="none" stroke="#000000" d="M85.04128 .85045V-.85031"/>
<path transform="matrix(1.00006,0,0,-1.00006,94.11187,102.01534)" d="M79.0636-11.45511H91.018939V-3.0421296H79.0636Z" fill="#ffffff"/>
<use data-text="1" xlink:href="#font_3_2" transform="matrix(9.963197,0,0,-9.963197,174.17667,112.47497)"/>
<use data-text="0" xlink:href="#font_3_1" transform="matrix(9.963197,0,0,-9.963197,179.15825,112.47497)"/>
<path transform="matrix(1.00006,0,0,-1.00006,94.11187,102.01534)" stroke-width=".3985" stroke-linecap="butt" stroke-miterlimit="10" stroke-linejoin="miter" fill="none" stroke="#000000" d="M.85045-85.04128H-.85031"/>
<path transform="matrix(1.00006,0,0,-1.00006,94.11187,102.01534)" d="M-22.74632-89.66289H-3.04212V-80.419658H-22.74632Z" fill="#ffffff"/>
<use data-text="&#x2212;" xlink:href="#font_2_1" transform="matrix(9.963197,0,0,-9.963197,72.360569,189.8566)"/>
<use data-text="1" xlink:href="#font_3_2" transform="matrix(9.963197,0,0,-9.963197,80.110019,189.8566)"/>
<use data-text="0" xlink:href="#font_3_1" transform="matrix(9.963197,0,0,-9.963197,85.09161,189.8566)"/>
<path transform="matrix(1.00006,0,0,-1.00006,94.11187,102.01534)" stroke-width=".3985" stroke-linecap="butt" stroke-miterlimit="10" stroke-linejoin="miter" fill="none" stroke="#000000" d="M.85045-42.52063H-.85031"/>
<path transform="matrix(1.00006,0,0,-1.00006,94.11187,102.01534)" d="M-17.76491-47.14224H-3.0421296V-37.89901H-17.76491Z" fill="#ffffff"/>
<use data-text="&#x2212;" xlink:href="#font_2_1" transform="matrix(9.963197,0,0,-9.963197,77.341869,147.33406)"/>
<use data-text="5" xlink:href="#font_3_3" transform="matrix(9.963197,0,0,-9.963197,85.09132,147.33406)"/>
<path transform="matrix(1.00006,0,0,-1.00006,94.11187,102.01534)" stroke-width=".3985" stroke-linecap="butt" stroke-miterlimit="10" stroke-linejoin="miter" fill="none" stroke="#000000" d="M.85045 42.52063H-.85031"/>
<path transform="matrix(1.00006,0,0,-1.00006,94.11187,102.01534)" d="M-10.01605 38.31413H-3.0421105V46.727109H-10.01605Z" fill="#ffffff"/>
<use data-text="5" xlink:href="#font_3_3" transform="matrix(9.963197,0,0,-9.963197,85.09133,62.702985)"/>
<path transform="matrix(1.00006,0,0,-1.00006,94.11187,102.01534)" stroke-width=".3985" stroke-linecap="butt" stroke-miterlimit="10" stroke-linejoin="miter" fill="none" stroke="#000000" d="M.85045 85.04128H-.85031"/>
<path transform="matrix(1.00006,0,0,-1.00006,94.11187,102.01534)" d="M-14.99747 80.83478H-3.0421296V89.24776H-14.99747Z" fill="#ffffff"/>
<use data-text="1" xlink:href="#font_3_2" transform="matrix(9.963197,0,0,-9.963197,80.11003,20.179436)"/>
<use data-text="0" xlink:href="#font_3_1" transform="matrix(9.963197,0,0,-9.963197,85.09161,20.179436)"/>
<path transform="matrix(1.00006,0,0,-1.00006,94.11187,102.01534)" stroke-width=".3985" stroke-linecap="butt" stroke-miterlimit="10" stroke-linejoin="miter" fill="none" stroke="#000000" d="M-24.05319-20.83066V20.83066H24.05319V-20.83066ZM24.05319 20.83066"/>
<path transform="matrix(1.00006,0,0,-1.00006,94.11187,102.01534)" stroke-width=".3985" stroke-linecap="butt" stroke-dasharray="2.98883,2.98883" stroke-miterlimit="10" stroke-linejoin="miter" fill="none" stroke="#929292" d="M-85.04128-73.6481 85.04128 73.6481"/>
<path transform="matrix(1.00006,0,0,-1.00006,94.11187,102.01534)" stroke-width=".3985" stroke-linecap="butt" stroke-dasharray="2.98883,2.98883" stroke-miterlimit="10" stroke-linejoin="miter" fill="none" stroke="#929292" d="M-85.04128 73.6481 85.04128-73.6481"/>
<path transform="matrix(1.00006,0,0,-1.00006,94.11187,102.01534)" d="M.85045 0C.85045 .46968 .46968 .85045 0 .85045-.46968 .85045-.85045 .46968-.85045 0-.85045-.46968-.46968-.85045 0-.85045 .46968-.85045 .85045-.46968 .85045 0ZM0 0"/>
<path transform="matrix(1.00006,0,0,-1.00006,94.11187,102.01534)" stroke-width=".3985" stroke-linecap="butt" stroke-miterlimit="10" stroke-linejoin="miter" fill="none" stroke="#000000" d="M.85045 0C.85045 .46968 .46968 .85045 0 .85045-.46968 .85045-.85045 .46968-.85045 0-.85045-.46968-.46968-.85045 0-.85045 .46968-.85045 .85045-.46968 .85045 0ZM0 0"/>
<path transform="matrix(1.00006,0,0,-1.00006,94.11187,102.01534)" stroke-width="1.19553" stroke-linecap="butt" stroke-miterlimit="10" stroke-linejoin="miter" fill="none" stroke="#ff0000" d="M84.8474-70.4651C82.66467-68.4929 82.66467-68.4929 81.35017-67.30104 80.03569-66.10916 77.99634-64.2553 76.76306-63.13058 75.52979-62.00587 73.61798-60.25648 72.46156-59.19489 71.30515-58.13327 69.51236-56.48183 68.4284-55.47925 67.34445-54.47667 65.66441-52.91609 64.64919-51.96892 63.63399-51.02174 62.06187-49.54805 61.11148-48.6527 60.16107-47.75734 58.68864-46.36278 57.79941-45.51581 56.91019-44.66887 55.53352-43.34988 54.70248-42.5484 53.87148-41.74692 52.5862-40.49828 51.80995-39.73929 51.03372-38.98032 49.8322-37.79759 49.1079-37.07813 48.38362-36.35866 47.26477-35.23645 46.58972-34.55385 45.91469-33.87125 44.87105-32.80667 44.2427-32.15843 43.61438-31.51018 42.64493-30.49805 42.06114-29.88174 41.47734-29.26544 40.57664-28.30313 40.03516-27.71652 39.49368-27.12993 38.65962-26.21304 38.15852-25.65395 37.65744-25.09483 36.88618-24.22049 36.4236-23.68686 35.96101-23.15326 35.25046-22.31828 34.82454-21.80803 34.3986-21.29778 33.74474-20.49786 33.3538-20.00926 32.96286-19.52068 32.36409-18.75545 32.00687-18.28653 31.64964-17.81761 31.10402-17.08061 30.77917-16.6296 30.45435-16.17856 29.95935-15.47057 29.66568-15.03584 29.37202-14.60115 28.9263-13.91649 28.66263-13.49648 28.39893-13.07645 27.9998-12.41531 27.76518-12.0086 27.53058-11.60191 27.17796-10.96045 26.97168-10.56526 26.76538-10.17007 26.4573-9.54541 26.27837-9.16032 26.09941-8.77522 25.83427-8.16595 25.68198-7.78978 25.52965-7.41359 25.30652-6.81801 25.18056-6.44905 25.05463-6.08011 24.87431-5.49371 24.77428-5.13068 24.67422-4.76764 24.53438-4.19084 24.45947-3.83252 24.38458-3.47421 24.28429-2.90317 24.23447-2.54813 24.18465-2.19308 24.12523-1.62668 24.10042-1.2736 24.0756-.92052 24.05585-.35518 24.05565-.00336 24.05545 .34843 24.0744 .90968 24.09898 1.26205 24.12358 1.61443 24.18326 2.18138 24.23291 2.53632 24.28255 2.89125 24.38228 3.46188 24.45688 3.82019 24.53148 4.17851 24.67068 4.75595 24.77065 5.11887 24.8706 5.48178 25.05154 6.06702 25.17732 6.43582 25.30309 6.80464 25.5252 7.40088 25.67717 7.77705 25.82913 8.15324 26.09384 8.76222 26.27252 9.14708 26.4512 9.53197 26.75908 10.1558 26.96506 10.55098 27.17105 10.94617 27.52283 11.58852 27.75713 11.99525 27.99144 12.40198 28.39043 13.06265 28.6538 13.48245 28.91716 13.90227 29.36194 14.58649 29.6553 15.02094 29.94867 15.45537 30.44356 16.16287 30.76814 16.61365 31.09276 17.06439 31.63803 17.80083 31.99481 18.26967 32.35156 18.73851 32.949 19.50424 33.33952 19.99278 33.73006 20.48132 34.38385 21.2808 34.80948 21.79079 35.2351 22.30075 35.94484 23.13495 36.40712 23.66832 36.8694 24.20168 37.64047 25.07602 38.14127 25.63486 38.64206 26.19371 39.47531 27.10982 40.01646 27.69614 40.55763 28.28247 41.45825 29.2447 42.04167 29.86072 42.6251 30.47673 43.59375 31.48804 44.22144 32.13597 44.8491 32.7839 45.89095 33.84839 46.5656 34.53062 47.24023 35.21284 48.35994 36.33401 49.08376 37.05309 49.8076 37.77216 51.00684 38.9545 51.78244 39.71321 52.55804 40.47192 53.84322 41.72028 54.67381 42.52141 55.50443 43.32254 56.88019 44.6407 57.76892 45.48726 58.65765 46.33383 60.12938 47.72803 61.07915 48.62285 62.02895 49.51765 63.59984 50.99 64.6143 51.93648 65.62874 52.88292 67.30728 54.44212 68.39064 55.44423 69.47398 56.44632 71.26656 58.09782 72.42236 59.15894 73.57817 60.22006 75.48831 61.96794 76.7209 63.09206 77.95349 64.21614 79.99222 66.06937 81.30606 67.26068 82.61989 68.45198 86.19008 71.67819 84.80049 70.42249"/>
<path transform="matrix(.7419845,.6704402,.6704402,-.7419845,178.96434,172.48465)" d="M1.27522 0C-.31879 .31879-1.91284 .9564-3.8257 2.07224-1.91284 .6376-1.91284-.6376-3.8257-2.07224-1.91284-.9564-.31879-.31879 1.27522 0Z" fill="#ff0000"/>
<path transform="matrix(.7419845,.6704402,.6704402,-.7419845,178.96434,172.48465)" stroke-width="1.19553" stroke-linecap="butt" stroke-linejoin="round" fill="none" stroke="#ff0000" d="M1.27522 0C-.31879 .31879-1.91284 .9564-3.8257 2.07224-1.91284 .6376-1.91284-.6376-3.8257-2.07224-1.91284-.9564-.31879-.31879 1.27522 0Z"/>
<path transform="matrix(.74195447,-.6704702,-.6704702,-.74195447,178.91745,31.58863)" d="M1.27522 0C-.31879 .31879-1.91284 .9564-3.8257 2.07224-1.91284 .6376-1.91284-.6376-3.8257-2.07224-1.91284-.9564-.31879-.31879 1.27522 0Z" fill="#ff0000"/>
<path transform="matrix(.74195447,-.6704702,-.6704702,-.74195447,178.91745,31.58863)" stroke-width="1.19553" stroke-linecap="butt" stroke-linejoin="round" fill="none" stroke="#ff0000" d="M1.27522 0C-.31879 .31879-1.91284 .9564-3.8257 2.07224-1.91284 .6376-1.91284-.6376-3.8257-2.07224-1.91284-.9564-.31879-.31879 1.27522 0Z"/>
<path transform="matrix(1.00006,0,0,-1.00006,94.11187,102.01534)" stroke-width="1.19553" stroke-linecap="butt" stroke-miterlimit="10" stroke-linejoin="miter" fill="none" stroke="#ff0000" d="M-84.8474-70.4651C-82.66467-68.4929-82.66467-68.4929-81.35017-67.30104-80.03569-66.10916-77.99634-64.2553-76.76306-63.13058-75.52979-62.00587-73.61798-60.25648-72.46156-59.19489-71.30515-58.13327-69.51236-56.48183-68.4284-55.47925-67.34445-54.47667-65.66441-52.91609-64.64919-51.96892-63.63399-51.02174-62.06187-49.54805-61.11148-48.6527-60.16107-47.75734-58.68864-46.36278-57.79941-45.51581-56.91019-44.66887-55.53352-43.34988-54.70248-42.5484-53.87148-41.74692-52.5862-40.49828-51.80995-39.73929-51.03372-38.98032-49.8322-37.79759-49.1079-37.07813-48.38362-36.35866-47.26477-35.23645-46.58972-34.55385-45.91469-33.87125-44.87105-32.80667-44.2427-32.15843-43.61438-31.51018-42.64493-30.49805-42.06114-29.88174-41.47734-29.26544-40.57664-28.30313-40.03516-27.71652-39.49368-27.12993-38.65962-26.21304-38.15852-25.65395-37.65744-25.09483-36.88618-24.22049-36.4236-23.68686-35.96101-23.15326-35.25046-22.31828-34.82454-21.80803-34.3986-21.29778-33.74474-20.49786-33.3538-20.00926-32.96286-19.52068-32.36409-18.75545-32.00687-18.28653-31.64964-17.81761-31.10402-17.08061-30.77917-16.6296-30.45435-16.17856-29.95935-15.47057-29.66568-15.03584-29.37202-14.60115-28.9263-13.91649-28.66263-13.49648-28.39893-13.07645-27.9998-12.41531-27.76518-12.0086-27.53058-11.60191-27.17796-10.96045-26.97168-10.56526-26.76538-10.17007-26.4573-9.54541-26.27837-9.16032-26.09941-8.77522-25.83427-8.16595-25.68198-7.78978-25.52965-7.41359-25.30652-6.81801-25.18056-6.44905-25.05463-6.08011-24.87431-5.49371-24.77428-5.13068-24.67422-4.76764-24.53438-4.19084-24.45947-3.83252-24.38458-3.47421-24.28429-2.90317-24.23447-2.54813-24.18465-2.19308-24.12523-1.62668-24.10042-1.2736-24.0756-.92052-24.05585-.35518-24.05565-.00336-24.05545 .34843-24.0744 .90968-24.09898 1.26205-24.12358 1.61443-24.18326 2.18138-24.23291 2.53632-24.28255 2.89125-24.38228 3.46188-24.45688 3.82019-24.53148 4.17851-24.67068 4.75595-24.77065 5.11887-24.8706 5.48178-25.05154 6.06702-25.17732 6.43582-25.30309 6.80464-25.5252 7.40088-25.67717 7.77705-25.82913 8.15324-26.09384 8.76222-26.27252 9.14708-26.4512 9.53197-26.75908 10.1558-26.96506 10.55098-27.17105 10.94617-27.52283 11.58852-27.75713 11.99525-27.99144 12.40198-28.39043 13.06265-28.6538 13.48245-28.91716 13.90227-29.36194 14.58649-29.6553 15.02094-29.94867 15.45537-30.44356 16.16287-30.76814 16.61365-31.09276 17.06439-31.63803 17.80083-31.99481 18.26967-32.35156 18.73851-32.949 19.50424-33.33952 19.99278-33.73006 20.48132-34.38385 21.2808-34.80948 21.79079-35.2351 22.30075-35.94484 23.13495-36.40712 23.66832-36.8694 24.20168-37.64047 25.07602-38.14127 25.63486-38.64206 26.19371-39.47531 27.10982-40.01646 27.69614-40.55763 28.28247-41.45825 29.2447-42.04167 29.86072-42.6251 30.47673-43.59375 31.48804-44.22144 32.13597-44.8491 32.7839-45.89095 33.84839-46.5656 34.53062-47.24023 35.21284-48.35994 36.33401-49.08376 37.05309-49.8076 37.77216-51.00684 38.9545-51.78244 39.71321-52.55804 40.47192-53.84322 41.72028-54.67381 42.52141-55.50443 43.32254-56.88019 44.6407-57.76892 45.48726-58.65765 46.33383-60.12938 47.72803-61.07915 48.62285-62.02895 49.51765-63.59984 50.99-64.6143 51.93648-65.62874 52.88292-67.30728 54.44212-68.39064 55.44423-69.47398 56.44632-71.26656 58.09782-72.42236 59.15894-73.57817 60.22006-75.48831 61.96794-76.7209 63.09206-77.95349 64.21614-79.99222 66.06937-81.30606 67.26068-82.61989 68.45198-86.19008 71.67819-84.80049 70.42249"/>
<path transform="matrix(-.7419845,.6704402,.6704402,.7419845,9.259399,172.48465)" d="M1.27522 0C-.31879 .31879-1.91284 .9564-3.8257 2.07224-1.91284 .6376-1.91284-.6376-3.8257-2.07224-1.91284-.9564-.31879-.31879 1.27522 0Z" fill="#ff0000"/>
<path transform="matrix(-.7419845,.6704402,.6704402,.7419845,9.259399,172.48465)" stroke-width="1.19553" stroke-linecap="butt" stroke-linejoin="round" fill="none" stroke="#ff0000" d="M1.27522 0C-.31879 .31879-1.91284 .9564-3.8257 2.07224-1.91284 .6376-1.91284-.6376-3.8257-2.07224-1.91284-.9564-.31879-.31879 1.27522 0Z"/>
<path transform="matrix(-.74195447,-.6704702,-.6704702,.74195447,9.306297,31.58863)" d="M1.27522 0C-.31879 .31879-1.91284 .9564-3.8257 2.07224-1.91284 .6376-1.91284-.6376-3.8257-2.07224-1.91284-.9564-.31879-.31879 1.27522 0Z" fill="#ff0000"/>
<path transform="matrix(-.74195447,-.6704702,-.6704702,.74195447,9.306297,31.58863)" stroke-width="1.19553" stroke-linecap="butt" stroke-linejoin="round" fill="none" stroke="#ff0000" d="M1.27522 0C-.31879 .31879-1.91284 .9564-3.8257 2.07224-1.91284 .6376-1.91284-.6376-3.8257-2.07224-1.91284-.9564-.31879-.31879 1.27522 0Z"/>
</svg>
