<svg xmlns="http://www.w3.org/2000/svg" xmlns:xlink="http://www.w3.org/1999/xlink" version="1.1" width="167" height="179" viewBox="0 0 167 179">
<defs>
<path id="font_1_2" d="M.20599365 .3996582H.2999878C.31999208 .3996582 .32998658 .3996582 .32998658 .41966249 .32998658 .43066407 .31999208 .43066407 .3019867 .43066407H.21398926C.25 .5724945 .25498963 .59246829 .25498963 .59846499 .25498963 .61546328 .24299622 .62545779 .22599793 .62545779 .22299195 .62545779 .19499207 .62446597 .18598938 .58947756L.14698792 .43066407H.052993776C.032989503 .43066407 .022994996 .43066407 .022994996 .4116516 .022994996 .3996582 .0309906 .3996582 .050994874 .3996582H.13899231C.066986087 .11608887 .06298828 .099121097 .06298828 .08114624 .06298828 .02722168 .100997928-.0107421879 .15499878-.0107421879 .25698854-.0107421879 .31399537 .13505554 .31399537 .14305115 .31399537 .1530304 .30599977 .1530304 .3019867 .1530304 .29299928 .1530304 .2919922 .15003968 .2869873 .13905335 .24398804 .035217287 .19099427 .011245728 .15699768 .011245728 .13598633 .011245728 .12599182 .024230957 .12599182 .057174684 .12599182 .08114624 .12799073 .088134769 .13198853 .10510254L.20599365 .3996582Z"/>
<path id="font_1_1" d="M.30299378 .3157959H.47299195C.61499026 .3157959 .7539978 .41973878 .7539978 .53167727 .7539978 .6086273 .6879883 .6826172 .5569916 .6826172H.23298645C.21398926 .6826172 .20298767 .6826172 .20298767 .66360476 .20298767 .6516113 .21199036 .6516113 .23199463 .6516113 .24499512 .6516113 .2630005 .65060427 .2749939 .6496124 .29100038 .6476135 .29699708 .64460757 .29699708 .6336212 .29699708 .6296234 .29599 .62661746 .29299928 .614624L.15899658 .07795715C.14898682 .038986207 .14698792 .0309906 .067993167 .0309906 .050994874 .0309906 .039993287 .0309906 .039993287 .011993408 .039993287 0 .051986696 0 .054992677 0 .08299255 0 .1539917 .0029907227 .18199158 .0029907227 .20298767 .0029907227 .22499085 .0019989014 .24598694 .0019989014 .2679901 .0019989014 .2899933 0 .31098939 0 .31799317 0 .33099366 0 .33099366 .019989014 .33099366 .0309906 .32199098 .0309906 .30299378 .0309906 .2659912 .0309906 .23799134 .0309906 .23799134 .048980714 .23799134 .054977418 .23999024 .05996704 .24099732 .065963748L.30299378 .3157959M.375 .6136322C.38398744 .64860537 .38598634 .6516113 .42900086 .6516113H.5249939C.60798647 .6516113 .6609955 .62461856 .6609955 .55566409 .6609955 .5166931 .6409912 .43074037 .60198977 .39476014 .5519867 .34977723 .49198915 .34179688 .44799806 .34179688H.30699159L.375 .6136322Z"/>
<path id="font_2_3" d="M.44898988 .20022583C.44898988 .3193512 .36698915 .41944886 .25898744 .41944886 .21099854 .41944886 .16799927 .40345765 .13198853 .36842347V.5637665C.1519928 .5577698 .18499756 .55078127 .21699524 .55078127 .33999635 .55078127 .4099884 .6417694 .4099884 .6547699 .4099884 .6607666 .40699769 .6657715 .3999939 .6657715 .39898683 .6657715 .39698792 .6657715 .3919983 .66278079 .37199403 .6537781 .32299806 .6337738 .2559967 .6337738 .21598816 .6337738 .16999817 .6407776 .12298584 .6617737 .114990238 .66477969 .11299133 .66477969 .11099243 .66477969 .100997928 .66477969 .100997928 .6567688 .100997928 .6407776V.34439088C.100997928 .32637025 .100997928 .31835938 .114990238 .31835938 .12199402 .31835938 .12399292 .32136537 .12799073 .32736207 .13899231 .3433838 .17599488 .39746095 .25698854 .39746095 .30899049 .39746095 .33399964 .35139466 .34199525 .33337403 .35798646 .29632569 .3600006 .25727845 .3600006 .20722962 .3600006 .17222595 .3600006 .11222839 .33599855 .07035828 .31199647 .031463624 .2749939 .0055389406 .22898865 .0055389406 .1559906 .0055389406 .09899902 .058380128 .08198547 .11723328 .084991458 .1162262 .08799744 .115234378 .09899902 .115234378 .13198853 .115234378 .14898682 .14022827 .14898682 .16423035 .14898682 .18823242 .13198853 .21322632 .09899902 .21322632 .084991458 .21322632 .049987794 .20622254 .049987794 .16023255 .049987794 .07434082 .11898804-.022460938 .23098755-.022460938 .34700013-.022460938 .44898988 .073349 .44898988 .20022583Z"/>
<path id="font_2_2" d="M.2939911 .64004519C.2939911 .66400149 .2939911 .6660156 .2709961 .6660156 .20899964 .60227969 .12098694 .60227969 .08898926 .60227969V.57128909C.10899353 .57128909 .16799927 .57128909 .21998596 .5972748V.07902527C.21998596 .042999269 .21699524 .0309906 .1269989 .0309906H.09498596V0C.12998963 .0029907227 .21699524 .0029907227 .25698854 .0029907227 .29699708 .0029907227 .38398744 .0029907227 .4189911 0V.0309906H.3869934C.29699708 .0309906 .2939911 .041992189 .2939911 .07902527V.64004519Z"/>
<path id="font_2_1" d="M.45999146 .31976319C.45999146 .39982606 .45498658 .47988893 .41999818 .5539398 .37399293 .65000918 .2919922 .6660156 .25 .6660156 .18998719 .6660156 .116989139 .64001467 .07598877 .54693606 .04399109 .47789 .038986207 .39982606 .038986207 .31976319 .038986207 .24472046 .042999269 .15464783 .083999637 .07859802 .1269989-.0024719239 .19999695-.022460938 .24899292-.022460938 .30299378-.022460938 .3789978-.0014648438 .4229889 .09359741 .45498658 .16265869 .45999146 .2407074 .45999146 .31976319M.24899292-.00047302247C.20999146-.00047302247 .15098572 .024551392 .1329956 .12062073 .12199402 .18066406 .12199402 .2727356 .12199402 .3317871 .12199402 .39582826 .12199402 .46188355 .12998963 .5159149 .14898682 .63500979 .22399903 .64401248 .24899292 .64401248 .28199769 .64401248 .34799195 .6259918 .36698915 .52693179 .3769989 .47088624 .3769989 .39482118 .3769989 .3317871 .3769989 .25672914 .3769989 .18867493 .3659973 .12461853 .35099793 .029556275 .2939911-.00047302247 .24899292-.00047302247Z"/>
</defs>
<path transform="matrix(1,0,0,-1.00008,22.168999,163.3131)" stroke-width=".3985" stroke-linecap="butt" stroke-miterlimit="10" stroke-linejoin="miter" fill="none" stroke="#00aeef" d="M0 0H127.55977M0 14.17339H127.55977M0 28.3468H127.55977M0 42.5202H127.55977M0 56.69362H127.55977M0 70.867H127.55977M0 85.04042H127.55977M0 99.21382H127.55977M0 113.38724H127.55977M0 127.56062H127.55977M0 141.72905H127.55977M0 0V141.73404M12.75595 0V141.73404M25.51193 0V141.73404M38.26791 0V141.73404M51.0239 0V141.73404M63.77988 0V141.73404M76.53586 0V141.73404M89.29184 0V141.73404M102.0478 0V141.73404M114.80379 0V141.73404M127.55528 0V141.73404M127.55977 141.73404"/>
<path transform="matrix(1,0,0,-1.00008,22.168999,163.3131)" stroke-width="1.19553" stroke-linecap="butt" stroke-miterlimit="10" stroke-linejoin="miter" fill="none" stroke="#000000" d="M0 0H134.6159"/>
<path transform="matrix(1,0,0,-1.00008,156.78491,163.3131)" d="M1.27522 0C-.31879 .31879-1.91284 .9564-3.8257 2.07224-1.91284 .6376-1.91284-.6376-3.8257-2.07224-1.91284-.9564-.31879-.31879 1.27522 0Z"/>
<path transform="matrix(1,0,0,-1.00008,156.78491,163.3131)" stroke-width="1.19553" stroke-linecap="butt" stroke-linejoin="round" fill="none" stroke="#000000" d="M1.27522 0C-.31879 .31879-1.91284 .9564-3.8257 2.07224-1.91284 .6376-1.91284-.6376-3.8257-2.07224-1.91284-.9564-.31879-.31879 1.27522 0Z"/>
<use data-text="t" xlink:href="#font_1_2" transform="matrix(9.9626,0,0,-9.963397,162.57599,166.37734)"/>
<path transform="matrix(1,0,0,-1.00008,22.168999,163.3131)" stroke-width="1.19553" stroke-linecap="butt" stroke-miterlimit="10" stroke-linejoin="miter" fill="none" stroke="#000000" d="M0 0V149.78238"/>
<path transform="matrix(0,-1.00008,-1,-0,22.168999,13.518738)" d="M1.27522 0C-.31879 .31879-1.91284 .9564-3.8257 2.07224-1.91284 .6376-1.91284-.6376-3.8257-2.07224-1.91284-.9564-.31879-.31879 1.27522 0Z"/>
<path transform="matrix(0,-1.00008,-1,-0,22.168999,13.518738)" stroke-width="1.19553" stroke-linecap="butt" stroke-linejoin="round" fill="none" stroke="#000000" d="M1.27522 0C-.31879 .31879-1.91284 .9564-3.8257 2.07224-1.91284 .6376-1.91284-.6376-3.8257-2.07224-1.91284-.9564-.31879-.31879 1.27522 0Z"/>
<use data-text="P" xlink:href="#font_1_1" transform="matrix(9.9626,0,0,-9.963397,18.279,7.726639)"/>
<path transform="matrix(1,0,0,-1.00008,22.168999,163.3131)" stroke-width="1.19553" stroke-linecap="butt" stroke-miterlimit="10" stroke-linejoin="miter" fill="none" stroke="#009bca" d="M63.77988 0V141.73404"/>
<path transform="matrix(1,0,0,-1.00008,22.168999,163.3131)" stroke-width=".3985" stroke-linecap="butt" stroke-miterlimit="10" stroke-linejoin="miter" fill="none" stroke="#000000" d="M63.77988 4.25204V-4.25204"/>
<path transform="matrix(1,0,0,-1.00008,22.168999,163.3131)" d="M60.29291-14.85684H67.26685V-6.44386H60.29291Z" fill="#ffffff"/>
<use data-text="5" xlink:href="#font_2_3" transform="matrix(9.9626,0,0,-9.963397,83.458,177.1752)"/>
<path transform="matrix(1,0,0,-1.00008,22.168999,163.3131)" stroke-width="1.19553" stroke-linecap="butt" stroke-miterlimit="10" stroke-linejoin="miter" fill="none" stroke="#009bca" d="M127.55977 0V141.73404"/>
<path transform="matrix(1,0,0,-1.00008,22.168999,163.3131)" stroke-width=".3985" stroke-linecap="butt" stroke-miterlimit="10" stroke-linejoin="miter" fill="none" stroke="#000000" d="M127.55977 4.25204V-4.25204"/>
<path transform="matrix(1,0,0,-1.00008,22.168999,163.3131)" d="M121.58209-14.85684H133.53743V-6.44386H121.58209Z" fill="#ffffff"/>
<use data-text="1" xlink:href="#font_2_2" transform="matrix(9.9626,0,0,-9.963397,144.74701,177.1752)"/>
<use data-text="0" xlink:href="#font_2_1" transform="matrix(9.9626,0,0,-9.963397,149.7283,177.1752)"/>
<path transform="matrix(1,0,0,-1.00008,22.168999,163.3131)" stroke-width="1.19553" stroke-linecap="butt" stroke-miterlimit="10" stroke-linejoin="miter" fill="none" stroke="#009bca" d="M0 70.867H127.55977"/>
<path transform="matrix(1,0,0,-1.00008,22.168999,163.3131)" stroke-width=".3985" stroke-linecap="butt" stroke-miterlimit="10" stroke-linejoin="miter" fill="none" stroke="#000000" d="M3.82681 70.867H-3.82681"/>
<path transform="matrix(1,0,0,-1.00008,22.168999,163.3131)" d="M-17.97397 66.66052H-6.01863V75.0735H-17.97397Z" fill="#ffffff"/>
<use data-text="5" xlink:href="#font_2_3" transform="matrix(9.9626,0,0,-9.963397,5.191002,95.65069)"/>
<use data-text="0" xlink:href="#font_2_1" transform="matrix(9.9626,0,0,-9.963397,10.172302,95.65069)"/>
<path transform="matrix(1,0,0,-1.00008,22.168999,163.3131)" stroke-width="1.19553" stroke-linecap="butt" stroke-miterlimit="10" stroke-linejoin="miter" fill="none" stroke="#009bca" d="M0 141.73404H127.55977"/>
<path transform="matrix(1,0,0,-1.00008,22.168999,163.3131)" stroke-width=".3985" stroke-linecap="butt" stroke-miterlimit="10" stroke-linejoin="miter" fill="none" stroke="#000000" d="M3.82681 141.73404H-3.82681"/>
<path transform="matrix(1,0,0,-1.00008,22.168999,163.3131)" d="M-22.95535 137.52754H-6.018631V145.94052H-22.95535Z" fill="#ffffff"/>
<use data-text="1" xlink:href="#font_2_2" transform="matrix(9.9626,0,0,-9.963397,.20999909,24.778016)"/>
<use data-text="0" xlink:href="#font_2_1" transform="matrix(9.9626,0,0,-9.963397,5.1912996,24.778016)"/>
<use data-text="0" xlink:href="#font_2_1" transform="matrix(9.9626,0,0,-9.963397,10.1726,24.778016)"/>
<path transform="matrix(1,0,0,-1.00008,22.168999,163.3131)" stroke-width="1.19553" stroke-linecap="butt" stroke-miterlimit="10" stroke-linejoin="miter" fill="none" stroke="#ff0000" d="M0 21.2601C0 21.2601 1.44003 21.67932 1.9931 21.84337 2.54619 22.00742 3.43315 22.27388 3.98622 22.44243 4.5393 22.61098 5.42627 22.88496 5.97934 23.05815 6.53244 23.23135 7.41937 23.51271 7.97247 23.69073 8.52554 23.86877 9.4125 24.15839 9.96559 24.34128 10.51866 24.52415 11.40562 24.82103 11.95871 25.00891 12.5118 25.19678 13.39874 25.50233 13.95184 25.69533 14.50491 25.88834 15.39188 26.20169 15.94495 26.39995 16.49803 26.59819 17.385 26.92038 17.93806 27.12422 18.49117 27.32806 19.37811 27.65958 19.9312 27.86905 20.48428 28.07854 21.37123 28.41885 21.92432 28.634 22.47742 28.84915 23.36435 29.19873 23.91745 29.41971 24.47052 29.64067 25.35748 29.99948 25.91057 30.22661 26.46364 30.45372 27.3506 30.82329 27.90369 31.05664 28.45677 31.29 29.34372 31.66884 29.8968 31.90854 30.44989 32.14822 31.33685 32.53786 31.88992 32.7842 32.44301 33.03056 33.32997 33.43112 33.88304 33.6841 34.43613 33.93709 35.32307 34.34755 35.87617 34.60757 36.42926 34.86757 37.31621 35.2908 37.8693 35.55807 38.42236 35.82533 39.30933 36.25949 39.86241 36.53387 40.41548 36.80826 41.30244 37.25365 41.85553 37.53564 42.40862 37.81764 43.29558 38.27644 43.84865 38.56636 44.40173 38.8563 45.2887 39.3275 45.84178 39.62523 46.39487 39.92294 47.28183 40.40637 47.8349 40.7122 48.38799 41.01802 49.27493 41.51518 49.82802 41.82944 50.3811 42.14369 51.26805 42.65436 51.82114 42.97717 52.37422 43.29999 53.26118 43.82423 53.81427 44.15605 54.36734 44.48787 55.2543 45.02763 55.80739 45.36868 56.36046 45.70975 57.24742 46.26402 57.80049 46.61417 58.35359 46.96431 59.24054 47.5327 59.79362 47.89232 60.34671 48.25195 61.23367 48.83635 61.78674 49.20615 62.33983 49.57596 63.2268 50.1777 63.77988 50.55762 64.33296 50.93753 65.21991 51.55428 65.773 51.94434 66.32607 52.33438 67.21303 52.96794 67.76611 53.3689 68.3192 53.76985 69.20615 54.4222 69.75925 54.83412 70.31232 55.24606 71.19928 55.91438 71.75235 56.33784 72.30544 56.76129 73.1924 57.45102 73.74547 57.88612 74.29857 58.32121 75.18552 59.02701 75.7386 59.47375 76.29169 59.92049 77.17865 60.64682 77.73172 61.10593 78.2848 61.56502 79.17175 62.311 79.72484 62.78265 80.27792 63.2543 81.16487 64.0206 81.71797 64.50523 82.27104 64.98988 83.158 65.77773 83.71109 66.27562 84.26416 66.77353 85.15112 67.58209 85.70422 68.0938 86.2573 68.6055 87.14426 69.43793 87.69733 69.96365 88.25041 70.48936 89.13737 71.34274 89.69044 71.88283 90.24355 72.42291 91.1305 73.30133 91.68358 73.85628 92.23666 74.41121 93.12361 75.31238 93.6767 75.8825 94.22978 76.45262 95.11673 77.37962 95.66982 77.9654 96.22289 78.55115 97.10985 79.50253 97.66295 80.1043 98.21602 80.70605 99.10298 81.6841 99.65607 82.30246 100.20914 82.92079 101.0961 83.92549 101.64917 84.56096 102.20226 85.1964 103.08922 86.22961 103.64229 86.88239 104.19539 87.53514 105.08235 88.59508 105.63542 89.26566 106.1885 89.93625 107.07545 91.02626 107.62856 91.71555 108.18164 92.40483 109.06859 93.52567 109.62167 94.23358 110.17474 94.9415 111.0617 96.09045 111.61479 96.81778 112.16786 97.54512 113.05482 98.72838 113.60791 99.47572 114.161 100.22308 115.04796 101.43631 115.60103 102.20416 116.15411 102.97205 117.04108 104.22087 117.59415 105.01004 118.14723 105.79922 119.0342 107.0815 119.58727 107.89204 120.14037 108.70259 121.0273 110.01913 121.5804 110.85191 122.13348 111.6847 123.02043 113.03833 123.57352 113.89415 124.12659 114.74998 125.01355 116.14049 125.56664 117.02011 126.11972 117.89972 127.55977 120.23387 126.57631 118.63997"/>
<path transform="matrix(.52507,-.8510681,-.851,-.52511206,148.7453,44.66365)" d="M1.27522 0C-.31879 .31879-1.91284 .9564-3.8257 2.07224-1.91284 .6376-1.91284-.6376-3.8257-2.07224-1.91284-.9564-.31879-.31879 1.27522 0Z" fill="#ff0000"/>
<path transform="matrix(.52507,-.8510681,-.851,-.52511206,148.7453,44.66365)" stroke-width="1.19553" stroke-linecap="butt" stroke-linejoin="round" fill="none" stroke="#ff0000" d="M1.27522 0C-.31879 .31879-1.91284 .9564-3.8257 2.07224-1.91284 .6376-1.91284-.6376-3.8257-2.07224-1.91284-.9564-.31879-.31879 1.27522 0Z"/>
</svg>
