<svg xmlns="http://www.w3.org/2000/svg" xmlns:xlink="http://www.w3.org/1999/xlink" version="1.1" width="182" height="160" viewBox="0 0 182 160">
<defs>
<path id="font_1_1" d="M.33399964 .30233766C.33999635 .32835389 .36299134 .42037965 .43299867 .42037965 .43798829 .42037965 .46199037 .42037965 .48298646 .40734864 .45498658 .402359 .43499757 .37734986 .43499757 .35334779 .43499757 .33735658 .44599916 .31835938 .47299195 .31835938 .49499513 .31835938 .5269928 .3363495 .5269928 .37635804 .5269928 .42837525 .46798707 .4423828 .43399049 .4423828 .37599183 .4423828 .34098817 .38935853 .32899476 .36634828 .3039856 .43237306 .25 .4423828 .22099304 .4423828 .116989139 .4423828 .05999756 .3133545 .05999756 .28834535 .05999756 .27833558 .069992069 .27833558 .07199097 .27833558 .07998657 .27833558 .08299255 .28033448 .084991458 .28933717 .11898804 .39535523 .18499756 .42037965 .21899414 .42037965 .23799134 .42037965 .272995 .4113617 .272995 .35334779 .272995 .32235719 .2559967 .25532533 .21899414 .11528015 .20298767 .053268434 .16799927 .011245728 .12399292 .011245728 .117996219 .011245728 .09498596 .011245728 .07398987 .024276734 .09899902 .029266358 .12098694 .05027771 .12098694 .07827759 .12098694 .105270389 .09899902 .11328125 .083999637 .11328125 .053985597 .11328125 .0289917 .08728027 .0289917 .055267335 .0289917 .009246826 .07899475-.0107421879 .12298584-.0107421879 .18899536-.0107421879 .22499085 .059280397 .22799683 .0652771 .23999024 .028274537 .27598573-.0107421879 .33599855-.0107421879 .43899537-.0107421879 .49598695 .118270877 .49598695 .14328003 .49598695 .1532898 .4869995 .1532898 .48399354 .1532898 .47499085 .1532898 .47299195 .14929199 .47099305 .14228821 .43798829 .03527832 .36999513 .011245728 .33799745 .011245728 .29899598 .011245728 .2829895 .043273927 .2829895 .07727051 .2829895 .09927368 .2889862 .121276859 .2999878 .16529846L.33399964 .30233766Z"/>
<path id="font_1_2" d="M.48599244 .38136292C.48999024 .39537049 .48999024 .39736939 .48999024 .40437318 .48999024 .42237855 .47599793 .43138124 .46099855 .43138124 .45098878 .43138124 .43499757 .42536927 .42599488 .41036988 .42399598 .405365 .41600038 .37435914 .4119873 .35635377 .40499879 .33035279 .397995 .30334474 .3919983 .27633668L.34700013 .09628296C.34298707 .08126831 .2999878 .011245728 .23399353 .011245728 .18299866 .011245728 .17199707 .055267335 .17199707 .0922699 .17199707 .1382904 .18899536 .20030213 .22299195 .28833009 .23899842 .3293457 .24299622 .3403473 .24299622 .36035157 .24299622 .405365 .21099854 .4423828 .16099549 .4423828 .06599426 .4423828 .0289917 .29733277 .0289917 .28833009 .0289917 .27833558 .038986207 .27833558 .040985109 .27833558 .050994874 .27833558 .051986696 .28033448 .056991579 .29634095 .083999637 .3903656 .12399292 .42037965 .1579895 .42037965 .1659851 .42037965 .18299866 .42037965 .18299866 .3883667 .18299866 .36335755 .17298889 .3373413 .1659851 .31834413 .12599182 .21231079 .10798645 .1552887 .10798645 .10827637 .10798645 .019256592 .17098999-.0107421879 .22999573-.0107421879 .2689972-.0107421879 .30299378 .0062561037 .33099366 .03425598 .31799317-.017745972 .30599977-.06674194 .2659912-.11973572 .23999024-.15385437 .20199585-.18309021 .1559906-.18309021 .14199829-.18309021 .09700012-.18005371 .07998657-.14074707 .09599304-.14074707 .10899353-.14074707 .12298584-.1287384 .1329956-.11973572 .14299011-.10673523 .14299011-.08773804 .14299011-.056747438 .115997318-.052734376 .10598755-.052734376 .08299255-.052734376 .049987794-.068740848 .049987794-.11773682 .049987794-.16796875 .09399414-.20507813 .1559906-.20507813 .25898744-.20507813 .3619995-.11373901 .3899994-.00074768069L.48599244 .38136292Z"/>
<path id="font_2_1" d="M.6589966 .23046875C.6759949 .23046875 .69400027 .23046875 .69400027 .25045777 .69400027 .27046205 .6759949 .27046205 .6589966 .27046205H.117996219C.100997928 .27046205 .08299255 .27046205 .08299255 .25045777 .08299255 .23046875 .100997928 .23046875 .117996219 .23046875H.6589966Z"/>
<path id="font_3_3" d="M.2939911 .16503906V.07800293C.2939911 .041992189 .2919922 .0309906 .21798706 .0309906H.19699097V0C.23799134 .0029907227 .2899933 .0029907227 .33198548 .0029907227 .37399293 .0029907227 .4269867 .0029907227 .46798707 0V.0309906H.44699098C.37298585 .0309906 .37098695 .041992189 .37098695 .07800293V.16503906H.47099305V.19602967H.37098695V.65075686C.37098695 .67074587 .37098695 .6767578 .35499574 .6767578 .34599305 .6767578 .34298707 .6767578 .33499146 .66474917L.027999878 .19602967V.16503906H.2939911M.2999878 .19602967H.055999757L.2999878 .5688019V.19602967Z"/>
<path id="font_3_5" d="M.16299439 .4569702C.116989139 .486969 .11299133 .52098086 .11299133 .5379791 .11299133 .598999 .17799378 .64100649 .24899292 .64100649 .32199098 .64100649 .38598634 .58898928 .38598634 .51698306 .38598634 .45996095 .34700013 .4119568 .2869873 .37695313L.16299439 .4569702M.30899049 .36193849C.3809967 .3989563 .42999269 .45095826 .42999269 .51698306 .42999269 .6090088 .34098817 .6660156 .25 .6660156 .1499939 .6660156 .068984989 .59199526 .068984989 .49897767 .068984989 .4809723 .070999149 .43595887 .11299133 .38894654 .12399292 .37695313 .16099549 .35194398 .18598938 .33494569 .12799073 .30592347 .041992189 .24984741 .041992189 .15072632 .041992189 .04458618 .14399719-.022460938 .24899292-.022460938 .3619995-.022460938 .45700074 .06060791 .45700074 .16773987 .45700074 .20379639 .44599916 .24885559 .4079895 .2909088 .3889923 .31193543 .37298585 .3219452 .30899049 .36193849M.20899964 .3199463 .33198548 .24183655C.3600006 .2228241 .40699769 .19277954 .40699769 .13169861 .40699769 .05760193 .33198548 .0055389406 .25 .0055389406 .1639862 .0055389406 .09199524 .067611698 .09199524 .15072632 .09199524 .20880127 .12399292 .27288819 .20899964 .3199463Z"/>
<path id="font_3_1" d="M.2939911 .64004519C.2939911 .66400149 .2939911 .6660156 .2709961 .6660156 .20899964 .60227969 .12098694 .60227969 .08898926 .60227969V.57128909C.10899353 .57128909 .16799927 .57128909 .21998596 .5972748V.07902527C.21998596 .042999269 .21699524 .0309906 .1269989 .0309906H.09498596V0C.12998963 .0029907227 .21699524 .0029907227 .25698854 .0029907227 .29699708 .0029907227 .38398744 .0029907227 .4189911 0V.0309906H.3869934C.29699708 .0309906 .2939911 .041992189 .2939911 .07902527V.64004519Z"/>
<path id="font_3_2" d="M.1269989 .07699585 .23298645 .18003845C.3889923 .31811524 .44898988 .3721466 .44898988 .47216798 .44898988 .5860901 .35899354 .6660156 .23699951 .6660156 .12399292 .6660156 .049987794 .57411196 .049987794 .48516847 .049987794 .4291687 .099990848 .4291687 .102996829 .4291687 .11999512 .4291687 .15499878 .44117738 .15499878 .48217774 .15499878 .5081787 .13699341 .5341797 .101989749 .5341797 .09399414 .5341797 .09199524 .5341797 .08898926 .5331726 .11199951 .59806826 .1659851 .63500979 .22399903 .63500979 .31498719 .63500979 .35798646 .5541382 .35798646 .47216798 .35798646 .39215089 .30799867 .31311036 .25299073 .25108338L.06098938 .036987306C.049987794 .025985718 .049987794 .023986817 .049987794 0H.42099L.44898988 .17404175H.42399598C.4189911 .14402771 .4119873 .1000061 .4019928 .084991458 .394989 .07699585 .32899476 .07699585 .30699159 .07699585H.1269989Z"/>
<path id="font_3_4" d="M.13198853 .327713V.35173036C.13198853 .6047821 .2559967 .64100649 .30699159 .64100649 .33099366 .64100649 .37298585 .634964 .394989 .6007538 .37998963 .6007538 .33999635 .6007538 .33999635 .5557556 .33999635 .524765 .3639984 .5097656 .38598634 .5097656 .4019928 .5097656 .43199159 .51875308 .43199159 .5577545 .43199159 .6178589 .3880005 .6660156 .30499269 .6660156 .1769867 .6660156 .041992189 .5367584 .041992189 .31570436 .041992189 .048553468 .1579895-.022460938 .25099183-.022460938 .3619995-.022460938 .45700074 .07156372 .45700074 .2036438 .45700074 .33070375 .36799623 .4267578 .25698854 .4267578 .18899536 .4267578 .1519928 .37573243 .13198853 .327713M.25099183 .0055389406C.18798828 .0055389406 .1579895 .06556702 .1519928 .080566409 .13398743 .127594 .13398743 .2076416 .13398743 .22564698 .13398743 .30369569 .1659851 .40374757 .2559967 .40374757 .27198792 .40374757 .31799317 .40374757 .34899903 .34172059 .36698915 .30470277 .36698915 .2536621 .36698915 .20463562 .36698915 .15661621 .36698915 .10658264 .34999085 .0705719 .31999208 .010528564 .27398683 .0055389406 .25099183 .0055389406Z"/>
</defs>
<path transform="matrix(1.00005,0,0,-1.00008,51.931947,52.689176)" stroke-width=".3985" stroke-linecap="butt" stroke-miterlimit="10" stroke-linejoin="miter" fill="none" stroke="#00aeef" d="M-45.35419-102.04953H113.3855M-45.35419-85.04128H113.3855M-45.35419-68.03302H113.3855M-45.35419-51.02477H113.3855M-45.35419-34.0165H113.3855M-45.35419-17.00824H113.3855M-45.35419 0H113.3855M-45.35419 17.00824H113.3855M-45.35419 34.01053H113.3855M-45.35419-102.04953V34.0165M-22.6771-102.04953V34.0165M0-102.04953V34.0165M22.6771-102.04953V34.0165M45.35419-102.04953V34.0165M68.0313-102.04953V34.0165M90.70839-102.04953V34.0165M113.38152-102.04953V34.0165M113.3855 34.0165"/>
<path transform="matrix(1.00005,0,0,-1.00008,51.931947,52.689176)" stroke-width=".79701" stroke-linecap="butt" stroke-miterlimit="10" stroke-linejoin="miter" fill="none" stroke="#000000" d="M-45.35419 0H118.75407"/>
<path transform="matrix(1.00005,0,0,-1.00008,170.69194,52.689176)" d="M1.0361 0C-.25902 .25902-1.55415 .77707-3.1083 1.68365-1.55415 .51805-1.55415-.51805-3.1083-1.68365-1.55415-.77707-.25902-.25902 1.0361 0Z"/>
<path transform="matrix(1.00005,0,0,-1.00008,170.69194,52.689176)" stroke-width=".79701" stroke-linecap="butt" stroke-linejoin="round" fill="none" stroke="#000000" d="M1.0361 0C-.25902 .25902-1.55415 .77707-3.1083 1.68365-1.55415 .51805-1.55415-.51805-3.1083-1.68365-1.55415-.77707-.25902-.25902 1.0361 0Z"/>
<use data-text="x" xlink:href="#font_1_1" transform="matrix(9.963098,0,0,-9.963397,175.84613,54.834348)"/>
<path transform="matrix(1.00005,0,0,-1.00008,51.931947,52.689176)" stroke-width=".79701" stroke-linecap="butt" stroke-miterlimit="10" stroke-linejoin="miter" fill="none" stroke="#000000" d="M0-102.04953V39.3851"/>
<path transform="matrix(0,-1.00008,-1.00005,-0,51.931947,13.300922)" d="M1.0361 0C-.25902 .25902-1.55415 .77707-3.1083 1.68365-1.55415 .51805-1.55415-.51805-3.1083-1.68365-1.55415-.77707-.25902-.25902 1.0361 0Z"/>
<path transform="matrix(0,-1.00008,-1.00005,-0,51.931947,13.300922)" stroke-width=".79701" stroke-linecap="butt" stroke-linejoin="round" fill="none" stroke="#000000" d="M1.0361 0C-.25902 .25902-1.55415 .77707-3.1083 1.68365-1.55415 .51805-1.55415-.51805-3.1083-1.68365-1.55415-.77707-.25902-.25902 1.0361 0Z"/>
<use data-text="y" xlink:href="#font_1_2" transform="matrix(9.963098,0,0,-9.963397,49.310815,6.2094538)"/>
<path transform="matrix(1.00005,0,0,-1.00008,51.931947,52.689176)" stroke-width=".3985" stroke-linecap="butt" stroke-miterlimit="10" stroke-linejoin="miter" fill="none" stroke="#000000" d="M-45.35419 2.55112V-2.55139"/>
<path transform="matrix(1.00005,0,0,-1.00008,51.931947,52.689176)" d="M-52.71558-13.98642H-37.992799V-4.74319H-52.71558Z" fill="#ffffff"/>
<use data-text="&#x2212;" xlink:href="#font_2_1" transform="matrix(9.963098,0,0,-9.963397,.21035767,64.85014)"/>
<use data-text="4" xlink:href="#font_3_3" transform="matrix(9.963098,0,0,-9.963397,7.959732,64.85014)"/>
<path transform="matrix(1.00005,0,0,-1.00008,51.931947,52.689176)" stroke-width=".3985" stroke-linecap="butt" stroke-miterlimit="10" stroke-linejoin="miter" fill="none" stroke="#000000" d="M45.35419 2.55112V-2.55139"/>
<path transform="matrix(1.00005,0,0,-1.00008,51.931947,52.689176)" d="M41.86722-13.15617H48.841165V-4.74319H41.86722Z" fill="#ffffff"/>
<use data-text="4" xlink:href="#font_3_3" transform="matrix(9.963098,0,0,-9.963397,94.79808,64.85014)"/>
<path transform="matrix(1.00005,0,0,-1.00008,51.931947,52.689176)" stroke-width=".3985" stroke-linecap="butt" stroke-miterlimit="10" stroke-linejoin="miter" fill="none" stroke="#000000" d="M90.70839 2.55112V-2.55139"/>
<path transform="matrix(1.00005,0,0,-1.00008,51.931947,52.689176)" d="M87.22142-13.15617H94.19536V-4.74319H87.22142Z" fill="#ffffff"/>
<use data-text="8" xlink:href="#font_3_5" transform="matrix(9.963098,0,0,-9.963397,140.15436,64.85014)"/>
<path transform="matrix(1.00005,0,0,-1.00008,51.931947,52.689176)" stroke-width=".3985" stroke-linecap="butt" stroke-miterlimit="10" stroke-linejoin="miter" fill="none" stroke="#000000" d="M1.7007-102.04953H-1.70087"/>
<path transform="matrix(1.00005,0,0,-1.00008,51.931947,52.689176)" d="M-23.59686-106.67114H-3.8926602V-97.42791H-23.59686Z" fill="#ffffff"/>
<use data-text="&#x2212;" xlink:href="#font_2_1" transform="matrix(9.963098,0,0,-9.963397,29.329819,157.54256)"/>
<use data-text="1" xlink:href="#font_3_1" transform="matrix(9.963098,0,0,-9.963397,37.079195,157.54256)"/>
<use data-text="8" xlink:href="#font_3_5" transform="matrix(9.963098,0,0,-9.963397,42.06073,157.54256)"/>
<path transform="matrix(1.00005,0,0,-1.00008,51.931947,52.689176)" stroke-width=".3985" stroke-linecap="butt" stroke-miterlimit="10" stroke-linejoin="miter" fill="none" stroke="#000000" d="M1.7007-68.03302H-1.70087"/>
<path transform="matrix(1.00005,0,0,-1.00008,51.931947,52.689176)" d="M-23.59686-72.65465H-3.8926602V-63.41142H-23.59686Z" fill="#ffffff"/>
<use data-text="&#x2212;" xlink:href="#font_2_1" transform="matrix(9.963098,0,0,-9.963397,29.329819,123.52284)"/>
<use data-text="1" xlink:href="#font_3_1" transform="matrix(9.963098,0,0,-9.963397,37.079195,123.52284)"/>
<use data-text="2" xlink:href="#font_3_2" transform="matrix(9.963098,0,0,-9.963397,42.06073,123.52284)"/>
<path transform="matrix(1.00005,0,0,-1.00008,51.931947,52.689176)" stroke-width=".3985" stroke-linecap="butt" stroke-miterlimit="10" stroke-linejoin="miter" fill="none" stroke="#000000" d="M1.7007-34.0165H-1.70087"/>
<path transform="matrix(1.00005,0,0,-1.00008,51.931947,52.689176)" d="M-18.61545-38.63812H-3.8926697V-29.39489H-18.61545Z" fill="#ffffff"/>
<use data-text="&#x2212;" xlink:href="#font_2_1" transform="matrix(9.963098,0,0,-9.963397,34.312067,89.50412)"/>
<use data-text="6" xlink:href="#font_3_4" transform="matrix(9.963098,0,0,-9.963397,42.06144,89.50412)"/>
<path transform="matrix(1.00005,0,0,-1.00008,51.931947,52.689176)" stroke-width=".3985" stroke-linecap="butt" stroke-miterlimit="10" stroke-linejoin="miter" fill="none" stroke="#000000" d="M1.7007 34.0165H-1.70087"/>
<path transform="matrix(1.00005,0,0,-1.00008,51.931947,52.689176)" d="M-10.86661 29.81001H-3.8926697V38.222993H-10.86661Z" fill="#ffffff"/>
<use data-text="6" xlink:href="#font_3_4" transform="matrix(9.963098,0,0,-9.963397,42.061456,21.88071)"/>
<path transform="matrix(1.00005,0,0,-1.00008,51.931947,52.689176)" stroke-width="1.19553" stroke-linecap="butt" stroke-miterlimit="10" stroke-linejoin="miter" fill="none" stroke="#ff0000" d="M-18.77272 32.18471C-17.96617 28.43849-17.96617 28.43849-17.50504 26.34311-17.0439 24.24773-16.3044 20.94147-15.84326 18.91368-15.38213 16.8859-14.64261 13.68835-14.18147 11.7282-13.72034 9.76802-12.98082 6.67873-12.51968 4.78615-12.05855 2.89357-11.31903-.08714-10.8579-1.91216-10.39676-3.73718-9.65724-6.60991-9.1961-8.36732-8.73499-10.12477-7.99547-12.88872-7.53433-14.57857-7.0732-16.2684-6.33368-18.92432-5.87254-20.5466-5.4114-22.1689-4.67189-24.7163-4.21075-26.27095-3.74962-27.82564-3.0101-30.26453-2.54898-31.75162-2.08784-33.2387-1.34833-35.56932-.88719-36.98883-.42606-38.40837 .31343-40.63069 .77457-41.98262 1.23569-43.33456 1.97522-45.44843 2.43634-46.73273 2.89748-48.01704 3.637-50.02238 4.09813-51.23912 4.55927-52.45584 5.29878-54.3529 5.75992-55.50208 6.22105-56.65128 6.96057-58.44003 7.4217-59.52162 7.88284-60.60321 8.62234-62.28346 9.08348-63.29745 9.54462-64.31146 10.28413-65.88345 10.74527-66.82986 11.2064-67.77628 11.94592-69.23975 12.40706-70.11858 12.8682-70.99739 13.60771-72.35258 14.06885-73.16383 14.52998-73.97507 15.2695-75.22177 15.73064-75.96542 16.19177-76.70908 16.93127-77.84746 17.39241-78.52354 17.85355-79.19965 18.59306-80.22975 19.0542-80.83826 19.51534-81.44676 20.25485-82.3684 20.71599-82.90927 21.17712-83.45016 21.91664-84.26329 22.37778-84.7366 22.83891-85.2099 23.57843-85.91473 24.03957-86.32048 24.5007-86.72621 25.2402-87.32277 25.70134-87.66092 26.16248-87.99907 26.902-88.48712 27.36313-88.75769 27.82426-89.02824 28.56378-89.40802 29.02492-89.611 29.48605-89.81396 30.22557-90.08525 30.68669-90.22061 31.14783-90.356 31.88734-90.51901 32.34848-90.58682 32.80962-90.65462 33.54913-90.7091 34.01027-90.7093 34.4714-90.70952 35.21092-90.65575 35.67206-90.58836 36.1332-90.521 36.87271-90.3587 37.33385-90.22374 37.79498-90.08878 38.53448-89.81822 38.99562-89.61568 39.45676-89.41313 40.19627-89.03404 40.65741-88.7639 41.11855-88.49377 41.85806-88.00644 42.3192-87.6687 42.78033-87.33098 43.51985-86.73509 43.98099-86.3298 44.44212-85.92455 45.18164-85.22061 45.64278-84.74776 46.10391-84.27489 46.84341-83.46222 47.30455-82.92174 47.76569-82.38124 48.5052-81.46031 48.96634-80.85228 49.42747-80.24425 50.16699-79.21501 50.62813-78.53938 51.08926-77.86377 51.82878-76.726 52.28992-75.98279 52.75105-75.23958 53.49057-73.99358 53.9517-73.18277 54.41283-72.37198 55.15234-71.01746 55.61348-70.13907 56.07462-69.26068 56.81413-67.7979 57.27527-66.85191 57.7364-65.90593 58.47592-64.33463 58.93706-63.32106 59.39818-62.30751 60.13771-60.62794 60.59883-59.5468 61.05997-58.46564 61.79948-56.67755 62.26062-55.52882 62.72176-54.38008 63.46127-52.48372 63.92241-51.26743 64.38354-50.05112 65.12306-48.04645 65.5842-46.76257 66.04533-45.47868 66.78484-43.36554 67.24597-42.01404 67.7071-40.66252 68.44662-38.4409 68.90776-37.02179 69.3689-35.6027 70.10841-33.2728 70.56955-31.78615 71.03069-30.2995 71.7702-27.86127 72.23134-26.30704 72.69247-24.75279 73.43199-22.20607 73.89313-20.58424 74.35426-18.9624 75.09378-16.30743 75.55492-14.61801 76.01605-12.92859 76.75555-10.16508 77.21669-8.40808 77.67783-6.65108 78.41734-3.77928 78.87848-1.95473 79.33961-.13017 80.07913 2.84988 80.54027 4.74202 81.0014 6.63419 81.74092 9.72275 82.20206 11.68251 82.6632 13.64229 83.40271 16.83934 83.86385 18.86671 84.32497 20.89406 85.06448 24.1994 85.52562 26.29433 85.98676 28.38924 87.18741 33.96536 86.7932 32.13441"/>
<path transform="matrix(-.2104305,-.9776582,-.9776288,.21043684,33.158288,20.501889)" d="M1.27522 0C-.31879 .31879-1.91284 .9564-3.8257 2.07224-1.91284 .6376-1.91284-.6376-3.8257-2.07224-1.91284-.9564-.31879-.31879 1.27522 0Z" fill="#ff0000"/>
<path transform="matrix(-.2104305,-.9776582,-.9776288,.21043684,33.158288,20.501889)" stroke-width="1.19553" stroke-linecap="butt" stroke-linejoin="round" fill="none" stroke="#ff0000" d="M1.27522 0C-.31879 .31879-1.91284 .9564-3.8257 2.07224-1.91284 .6376-1.91284-.6376-3.8257-2.07224-1.91284-.9564-.31879-.31879 1.27522 0Z"/>
<path transform="matrix(.21049053,-.97762826,-.97759887,-.21049685,138.72948,20.552205)" d="M1.27522 0C-.31879 .31879-1.91284 .9564-3.8257 2.07224-1.91284 .6376-1.91284-.6376-3.8257-2.07224-1.91284-.9564-.31879-.31879 1.27522 0Z" fill="#ff0000"/>
<path transform="matrix(.21049053,-.97762826,-.97759887,-.21049685,138.72948,20.552205)" stroke-width="1.19553" stroke-linecap="butt" stroke-linejoin="round" fill="none" stroke="#ff0000" d="M1.27522 0C-.31879 .31879-1.91284 .9564-3.8257 2.07224-1.91284 .6376-1.91284-.6376-3.8257-2.07224-1.91284-.9564-.31879-.31879 1.27522 0Z"/>
<path transform="matrix(1.00005,0,0,-1.00008,51.931947,52.689176)" stroke-width="1.59404" stroke-linecap="butt" stroke-dasharray="2.98883,2.98883" stroke-miterlimit="10" stroke-linejoin="miter" fill="none" stroke="#000000" d="M34.01564-102.04953V34.0165"/>
<path transform="matrix(1.00005,0,0,-1.00008,51.931947,52.689176)" d="M-9.63783 0C-9.63783 .93938-10.39926 1.70091-11.33855 1.70091-12.27783 1.70091-13.03925 .93938-13.03925 0-13.03925-.93938-12.27783-1.70091-11.33855-1.70091-10.39926-1.70091-9.63783-.93938-9.63783 0ZM-11.33855 0" fill="#ff0000"/>
<path transform="matrix(1.00005,0,0,-1.00008,51.931947,52.689176)" stroke-width=".3985" stroke-linecap="butt" stroke-miterlimit="10" stroke-linejoin="miter" fill="none" stroke="#ff0000" d="M-9.63783 0C-9.63783 .93938-10.39926 1.70091-11.33855 1.70091-12.27783 1.70091-13.03925 .93938-13.03925 0-13.03925-.93938-12.27783-1.70091-11.33855-1.70091-10.39926-1.70091-9.63783-.93938-9.63783 0ZM-11.33855 0"/>
<path transform="matrix(1.00005,0,0,-1.00008,51.931947,52.689176)" d="M81.07054 0C81.07054 .93938 80.30913 1.70091 79.36984 1.70091 78.43056 1.70091 77.66913 .93938 77.66913 0 77.66913-.93938 78.43056-1.70091 79.36984-1.70091 80.30913-1.70091 81.07054-.93938 81.07054 0ZM79.36984 0" fill="#ff0000"/>
<path transform="matrix(1.00005,0,0,-1.00008,51.931947,52.689176)" stroke-width=".3985" stroke-linecap="butt" stroke-miterlimit="10" stroke-linejoin="miter" fill="none" stroke="#ff0000" d="M81.07054 0C81.07054 .93938 80.30913 1.70091 79.36984 1.70091 78.43056 1.70091 77.66913 .93938 77.66913 0 77.66913-.93938 78.43056-1.70091 79.36984-1.70091 80.30913-1.70091 81.07054-.93938 81.07054 0ZM79.36984 0"/>
</svg>
