<svg xmlns="http://www.w3.org/2000/svg" xmlns:xlink="http://www.w3.org/1999/xlink" version="1.1" width="195" height="179" viewBox="0 0 195 179">
<defs>
<path id="font_1_1" d="M.33399964 .30233766C.33999635 .32835389 .36299134 .42037965 .43299867 .42037965 .43798829 .42037965 .46199037 .42037965 .48298646 .40734864 .45498658 .402359 .43499757 .37734986 .43499757 .35334779 .43499757 .33735658 .44599916 .31835938 .47299195 .31835938 .49499513 .31835938 .5269928 .3363495 .5269928 .37635804 .5269928 .42837525 .46798707 .4423828 .43399049 .4423828 .37599183 .4423828 .34098817 .38935853 .32899476 .36634828 .3039856 .43237306 .25 .4423828 .22099304 .4423828 .116989139 .4423828 .05999756 .3133545 .05999756 .28834535 .05999756 .27833558 .069992069 .27833558 .07199097 .27833558 .07998657 .27833558 .08299255 .28033448 .084991458 .28933717 .11898804 .39535523 .18499756 .42037965 .21899414 .42037965 .23799134 .42037965 .272995 .4113617 .272995 .35334779 .272995 .32235719 .2559967 .25532533 .21899414 .11528015 .20298767 .053268434 .16799927 .011245728 .12399292 .011245728 .117996219 .011245728 .09498596 .011245728 .07398987 .024276734 .09899902 .029266358 .12098694 .05027771 .12098694 .07827759 .12098694 .105270389 .09899902 .11328125 .083999637 .11328125 .053985597 .11328125 .0289917 .08728027 .0289917 .055267335 .0289917 .009246826 .07899475-.0107421879 .12298584-.0107421879 .18899536-.0107421879 .22499085 .059280397 .22799683 .0652771 .23999024 .028274537 .27598573-.0107421879 .33599855-.0107421879 .43899537-.0107421879 .49598695 .118270877 .49598695 .14328003 .49598695 .1532898 .4869995 .1532898 .48399354 .1532898 .47499085 .1532898 .47299195 .14929199 .47099305 .14228821 .43798829 .03527832 .36999513 .011245728 .33799745 .011245728 .29899598 .011245728 .2829895 .043273927 .2829895 .07727051 .2829895 .09927368 .2889862 .121276859 .2999878 .16529846L.33399964 .30233766Z"/>
<path id="font_1_2" d="M.48599244 .38136292C.48999024 .39537049 .48999024 .39736939 .48999024 .40437318 .48999024 .42237855 .47599793 .43138124 .46099855 .43138124 .45098878 .43138124 .43499757 .42536927 .42599488 .41036988 .42399598 .405365 .41600038 .37435914 .4119873 .35635377 .40499879 .33035279 .397995 .30334474 .3919983 .27633668L.34700013 .09628296C.34298707 .08126831 .2999878 .011245728 .23399353 .011245728 .18299866 .011245728 .17199707 .055267335 .17199707 .0922699 .17199707 .1382904 .18899536 .20030213 .22299195 .28833009 .23899842 .3293457 .24299622 .3403473 .24299622 .36035157 .24299622 .405365 .21099854 .4423828 .16099549 .4423828 .06599426 .4423828 .0289917 .29733277 .0289917 .28833009 .0289917 .27833558 .038986207 .27833558 .040985109 .27833558 .050994874 .27833558 .051986696 .28033448 .056991579 .29634095 .083999637 .3903656 .12399292 .42037965 .1579895 .42037965 .1659851 .42037965 .18299866 .42037965 .18299866 .3883667 .18299866 .36335755 .17298889 .3373413 .1659851 .31834413 .12599182 .21231079 .10798645 .1552887 .10798645 .10827637 .10798645 .019256592 .17098999-.0107421879 .22999573-.0107421879 .2689972-.0107421879 .30299378 .0062561037 .33099366 .03425598 .31799317-.017745972 .30599977-.06674194 .2659912-.11973572 .23999024-.15385437 .20199585-.18309021 .1559906-.18309021 .14199829-.18309021 .09700012-.18005371 .07998657-.14074707 .09599304-.14074707 .10899353-.14074707 .12298584-.1287384 .1329956-.11973572 .14299011-.10673523 .14299011-.08773804 .14299011-.056747438 .115997318-.052734376 .10598755-.052734376 .08299255-.052734376 .049987794-.068740848 .049987794-.11773682 .049987794-.16796875 .09399414-.20507813 .1559906-.20507813 .25898744-.20507813 .3619995-.11373901 .3899994-.00074768069L.48599244 .38136292Z"/>
</defs>
<path transform="matrix(1,0,0,-1.00003,86.851,75.36388)" stroke-width=".3985" stroke-linecap="butt" stroke-miterlimit="10" stroke-linejoin="miter" fill="none" stroke="#cbcbcb" d="M-85.04042-102.04694H85.04042M-85.04042-90.70839H85.04042M-85.04042-79.36984H85.04042M-85.04042-68.0313H85.04042M-85.04042-56.69275H85.04042M-85.04042-45.35419H85.04042M-85.04042-34.01564H85.04042M-85.04042-22.6771H85.04042M-85.04042-11.33855H85.04042M-85.04042 0H85.04042M-85.04042 11.33855H85.04042M-85.04042 22.6771H85.04042M-85.04042 34.01564H85.04042M-85.04042 45.35419H85.04042M-85.04042 56.68877H85.04042M-85.04042-102.04694V56.69275M-63.7803-102.04694V56.69275M-42.5202-102.04694V56.69275M-21.2601-102.04694V56.69275M0-102.04694V56.69275M21.2601-102.04694V56.69275M42.5202-102.04694V56.69275M63.7803-102.04694V56.69275M85.03294-102.04694V56.69275M85.04042 56.69275"/>
<path transform="matrix(1,0,0,-1.00003,86.851,75.36388)" stroke-width=".79701" stroke-linecap="butt" stroke-miterlimit="10" stroke-linejoin="miter" fill="none" stroke="#000000" d="M-85.04042 0H96.36198"/>
<path transform="matrix(1,0,0,-1.00003,183.21298,75.36388)" d="M1.0361 0C-.25902 .25902-1.55415 .77707-3.1083 1.68365-1.55415 .51805-1.55415-.51805-3.1083-1.68365-1.55415-.77707-.25902-.25902 1.0361 0Z"/>
<path transform="matrix(1,0,0,-1.00003,183.21298,75.36388)" stroke-width=".79701" stroke-linecap="butt" stroke-linejoin="round" fill="none" stroke="#000000" d="M1.0361 0C-.25902 .25902-1.55415 .77707-3.1083 1.68365-1.55415 .51805-1.55415-.51805-3.1083-1.68365-1.55415-.77707-.25902-.25902 1.0361 0Z"/>
<use data-text="x" xlink:href="#font_1_1" transform="matrix(9.9626,0,0,-9.962899,188.367,77.50894)"/>
<path transform="matrix(1,0,0,-1.00003,86.851,75.36388)" stroke-width=".79701" stroke-linecap="butt" stroke-miterlimit="10" stroke-linejoin="miter" fill="none" stroke="#000000" d="M0-102.04694V62.06133"/>
<path transform="matrix(0,-1.00003,-1,-0,86.851,13.300682)" d="M1.0361 0C-.25902 .25902-1.55415 .77707-3.1083 1.68365-1.55415 .51805-1.55415-.51805-3.1083-1.68365-1.55415-.77707-.25902-.25902 1.0361 0Z"/>
<path transform="matrix(0,-1.00003,-1,-0,86.851,13.300682)" stroke-width=".79701" stroke-linecap="butt" stroke-linejoin="round" fill="none" stroke="#000000" d="M1.0361 0C-.25902 .25902-1.55415 .77707-3.1083 1.68365-1.55415 .51805-1.55415-.51805-3.1083-1.68365-1.55415-.77707-.25902-.25902 1.0361 0Z"/>
<use data-text="y" xlink:href="#font_1_2" transform="matrix(9.9626,0,0,-9.962899,84.229999,6.2098009)"/>
<path transform="matrix(1,0,0,-1.00003,86.851,75.36388)" stroke-width="1.19553" stroke-linecap="butt" stroke-miterlimit="10" stroke-linejoin="miter" fill="none" stroke="#ff0000" d="M-85.04042 33.30698C-85.04042 33.30698-84.14975 33.29199-83.80768 33.28603-83.4656 33.28009-82.91702 33.27031-82.57495 33.26407-82.23288 33.25783-81.68428 33.24759-81.34221 33.24106-81.00014 33.23454-80.45155 33.22383-80.10948 33.21701-79.76741 33.21019-79.21883 33.19905-78.87674 33.19191-78.53465 33.1848-77.98608 33.17308-77.64401 33.16562-77.30194 33.15817-76.75337 33.14597-76.41127 33.13812-76.0692 33.13028-75.52063 33.11732-75.17854 33.10905-74.83646 33.10077-74.2879 33.08711-73.94582 33.07841-73.60373 33.06973-73.05515 33.05554-72.71307 33.04642-72.371 33.0373-71.82242 33.02228-71.48035 33.01268-71.13828 33.00308-70.58968 32.98735-70.2476 32.97722-69.90553 32.96709-69.35695 32.95035-69.01488 32.93967-68.67282 32.929-68.12422 32.9115-67.78215 32.90022-67.44008 32.88895-66.8915 32.87025-66.54941 32.85835-66.20734 32.84645-65.65877 32.82698-65.31668 32.8144-64.9746 32.80183-64.42603 32.78104-64.08395 32.76768-63.74185 32.75436-63.1933 32.73233-62.85121 32.7182-62.50912 32.7041-61.96056 32.68095-61.61847 32.66597-61.2764 32.65099-60.72781 32.62622-60.38574 32.61026-60.04367 32.5943-59.49509 32.56789-59.15302 32.5509-58.81094 32.53395-58.26234 32.50598-57.92027 32.48793-57.5782 32.46988-57.02962 32.44003-56.68755 32.4208-56.34547 32.40158-55.79689 32.36992-55.4548 32.34935-55.11273 32.32878-54.56416 32.29456-54.22208 32.27254-53.88 32.2505-53.33142 32.21413-52.98935 32.19054-52.64726 32.16693-52.09868 32.12778-51.75662 32.10246-51.41454 32.07713-50.86597 32.03522-50.5239 32.008-50.1818 31.98077-49.63322 31.93558-49.29115 31.90627-48.94907 31.87695-48.4005 31.82838-48.05841 31.79675-47.71634 31.7651-47.16776 31.71246-46.82567 31.67824-46.4836 31.64401-45.93501 31.58707-45.59294 31.55003-45.25087 31.513-44.70229 31.45146-44.3602 31.41129-44.01813 31.3711-43.46954 31.30424-43.12747 31.2604-42.78542 31.21658-42.23683 31.14317-41.89474 31.09535-41.55267 31.04755-41.00409 30.968-40.66202 30.91577-40.31993 30.86354-39.77136 30.7762-39.42929 30.71887-39.0872 30.66156-38.53862 30.56561-38.19655 30.50261-37.85446 30.43962-37.3059 30.33443-36.96382 30.2649-36.62173 30.19534-36.07315 30.0784-35.73108 30.0014-35.38899 29.9244-34.84042 29.79549-34.49834 29.70987-34.15628 29.62425-33.6077 29.47978-33.26561 29.38426-32.92354 29.28874-32.37495 29.12833-32.03287 29.02145-31.6908 28.91458-31.14223 28.73427-30.80014 28.61401-30.45807 28.49374-29.90948 28.29074-29.56741 28.15466-29.22533 28.01857-28.67674 27.788-28.33469 27.63321-27.99261 27.47842-27.44403 27.21606-27.10196 27.03908-26.75987 26.86209-26.21129 26.56116-25.86922 26.35757-25.52715 26.15399-24.97856 25.80742-24.63649 25.57176-24.29442 25.33609-23.74582 24.9341-23.40375 24.65912-23.06166 24.38414-22.51309 23.91351-22.17102 23.58989-21.82893 23.26628-21.28036 22.71144-20.93826 22.32672-20.59619 21.94203-20.04762 21.2792-19.70554 20.8172-19.36348 20.3552-18.81491 19.55821-18.47281 18.99693-18.13074 18.43564-17.58215 17.46327-17.24008 16.77182-16.898 16.08037-16.34943 14.8784-16.00735 14.01347-15.66527 13.14854-15.11668 11.64038-14.77461 10.53801-14.43254 9.43565-13.88396 7.50446-13.54189 6.06839-13.19981 4.63234-12.65121 2.10666-12.30914 .18787-11.96707-1.73088-11.41849-5.11545-11.07642-7.7608-10.73436-10.40617-10.18576-15.08469-9.84369-18.87807-9.5016-22.67146-8.95303-29.37776-8.61095-35.10095-8.26886-40.82413-7.7203-50.88916-7.3782-60.12686-7.03613-69.36455-6.14548-101.67981-6.14548-101.67981"/>
<path transform="matrix(1,0,0,-1.00003,86.851,75.36388)" stroke-width="1.19553" stroke-linecap="butt" stroke-miterlimit="10" stroke-linejoin="miter" fill="none" stroke="#ff0000" d="M6.13768-102.03828C6.13768-102.03828 7.02835-69.60019 7.37042-60.33086 7.71251-51.06151 8.26108-40.97156 8.60315-35.2314 8.94524-29.49124 9.49382-22.76321 9.8359-18.95973 10.17798-15.15627 10.72655-10.46962 11.06863-7.81859 11.4107-5.16756 11.95929-1.77515 12.30138 .14703 12.64345 2.06926 13.19203 4.59694 13.5341 6.03534 13.87616 7.47377 14.42474 9.40984 14.76683 10.51411 15.1089 11.61841 15.65749 13.12823 15.99956 13.99428 16.34164 14.8603 16.89021 16.06352 17.23228 16.7559 17.57437 17.44827 18.12296 18.42241 18.46503 18.98448 18.8071 19.54655 19.35568 20.34451 19.69775 20.80699 20.03984 21.26947 20.58842 21.93272 20.9305 22.31773 21.27258 22.70274 21.82115 23.25803 22.16322 23.58194 22.5053 23.90584 23.05388 24.37674 23.39597 24.65219 23.73804 24.92764 24.2866 25.33113 24.62871 25.56726 24.97078 25.8034 25.51935 26.15056 25.86143 26.35413 26.2035 26.55768 26.75209 26.85756 27.09416 27.0344 27.43625 27.21124 27.98483 27.47374 28.32689 27.62871 28.66896 27.78368 29.21754 28.01497 29.55962 28.15138 29.9017 28.28777 30.45029 28.4914 30.79236 28.61176 31.13443 28.73215 31.68301 28.91214 32.02509 29.01903 32.36716 29.12592 32.91576 29.2867 33.25783 29.38219 33.5999 29.47768 34.14848 29.62163 34.49055 29.70728 34.83264 29.79292 35.38121 29.92236 35.7233 29.9995 36.06538 30.07661 36.61395 30.19356 36.95604 30.26317 37.2981 30.33278 37.84666 30.4382 38.18877 30.50122 38.53084 30.56427 39.0794 30.66017 39.4215 30.71748 39.76358 30.77481 40.31215 30.8621 40.65422 30.91438 40.9963 30.96666 41.54489 31.04643 41.88696 31.09431 42.22903 31.1422 42.77762 31.21568 43.11969 31.25955 43.46176 31.30339 44.01036 31.37021 44.35243 31.41042 44.6945 31.45062 45.24309 31.51228 45.58516 31.54935 45.92722 31.58641 46.47581 31.64334 46.81789 31.67754 47.15996 31.71175 47.70854 31.76427 48.05063 31.79588 48.39272 31.8275 48.94127 31.87607 49.28336 31.9054 49.62544 31.93472 50.17401 31.98004 50.5161 32.00731 50.85818 32.03458 51.40674 32.07663 51.74883 32.10194 52.09091 32.12726 52.63948 32.16623 52.98157 32.18983 53.32364 32.21346 53.87224 32.25014 54.2143 32.27219 54.55637 32.29424 55.10495 32.32826 55.44702 32.34883 55.7891 32.3694 56.33769 32.4012 56.67976 32.42046 57.02184 32.43971 57.57042 32.46954 57.91249 32.4876 58.25456 32.50563 58.80315 32.5336 59.14523 32.55055 59.4873 32.56754 60.03587 32.59395 60.37796 32.60991 60.72003 32.62587 61.26862 32.65062 61.61069 32.66562 61.95279 32.68062 62.50136 32.7039 62.84341 32.71803 63.1855 32.73218 63.73407 32.75421 64.07614 32.76752 64.41824 32.78084 64.96681 32.80148 65.3089 32.81406 65.65097 32.82664 66.19954 32.84628 66.54163 32.85818 66.8837 32.87009 67.4323 32.8886 67.77437 32.89987 68.11644 32.91115 68.66502 32.92882 69.0071 32.93948 69.34917 32.95018 69.89775 32.96677 70.23984 32.97687 70.58191 32.98698 71.1305 33.00273 71.47256 33.01233 71.81462 33.02194 72.3632 33.03693 72.70529 33.04607 73.04736 33.05522 73.59595 33.06956 73.93802 33.07825 74.2801 33.08694 74.82867 33.10045 75.17075 33.1087 75.51285 33.11696 76.06142 33.12993 76.40349 33.13777 76.74557 33.14561 77.29414 33.15779 77.63622 33.16528 77.9783 33.17276 78.52689 33.18457 78.86897 33.19174 79.21104 33.19893 79.75961 33.21017 80.1017 33.21701 80.44376 33.22386 80.99236 33.23456 81.33443 33.24106 81.6765 33.24756 82.22508 33.25768 82.56717 33.2639 82.90924 33.27011 83.45781 33.27992 83.7999 33.28586 84.14197 33.29182 85.03262 33.3068 85.03262 33.3068"/>
</svg>
