<svg xmlns="http://www.w3.org/2000/svg" xmlns:xlink="http://www.w3.org/1999/xlink" version="1.1" width="162" height="139" viewBox="0 0 162 139">
<defs>
<path id="font_1_2" d="M.33399964 .30233766C.33999635 .32835389 .36299134 .42037965 .43299867 .42037965 .43798829 .42037965 .46199037 .42037965 .48298646 .40734864 .45498658 .402359 .43499757 .37734986 .43499757 .35334779 .43499757 .33735658 .44599916 .31835938 .47299195 .31835938 .49499513 .31835938 .5269928 .3363495 .5269928 .37635804 .5269928 .42837525 .46798707 .4423828 .43399049 .4423828 .37599183 .4423828 .34098817 .38935853 .32899476 .36634828 .3039856 .43237306 .25 .4423828 .22099304 .4423828 .116989139 .4423828 .05999756 .3133545 .05999756 .28834535 .05999756 .27833558 .069992069 .27833558 .07199097 .27833558 .07998657 .27833558 .08299255 .28033448 .084991458 .28933717 .11898804 .39535523 .18499756 .42037965 .21899414 .42037965 .23799134 .42037965 .272995 .4113617 .272995 .35334779 .272995 .32235719 .2559967 .25532533 .21899414 .11528015 .20298767 .053268434 .16799927 .011245728 .12399292 .011245728 .117996219 .011245728 .09498596 .011245728 .07398987 .024276734 .09899902 .029266358 .12098694 .05027771 .12098694 .07827759 .12098694 .105270389 .09899902 .11328125 .083999637 .11328125 .053985597 .11328125 .0289917 .08728027 .0289917 .055267335 .0289917 .009246826 .07899475-.0107421879 .12298584-.0107421879 .18899536-.0107421879 .22499085 .059280397 .22799683 .0652771 .23999024 .028274537 .27598573-.0107421879 .33599855-.0107421879 .43899537-.0107421879 .49598695 .118270877 .49598695 .14328003 .49598695 .1532898 .4869995 .1532898 .48399354 .1532898 .47499085 .1532898 .47299195 .14929199 .47099305 .14228821 .43798829 .03527832 .36999513 .011245728 .33799745 .011245728 .29899598 .011245728 .2829895 .043273927 .2829895 .07727051 .2829895 .09927368 .2889862 .121276859 .2999878 .16529846L.33399964 .30233766Z"/>
<path id="font_1_3" d="M.48599244 .38136292C.48999024 .39537049 .48999024 .39736939 .48999024 .40437318 .48999024 .42237855 .47599793 .43138124 .46099855 .43138124 .45098878 .43138124 .43499757 .42536927 .42599488 .41036988 .42399598 .405365 .41600038 .37435914 .4119873 .35635377 .40499879 .33035279 .397995 .30334474 .3919983 .27633668L.34700013 .09628296C.34298707 .08126831 .2999878 .011245728 .23399353 .011245728 .18299866 .011245728 .17199707 .055267335 .17199707 .0922699 .17199707 .1382904 .18899536 .20030213 .22299195 .28833009 .23899842 .3293457 .24299622 .3403473 .24299622 .36035157 .24299622 .405365 .21099854 .4423828 .16099549 .4423828 .06599426 .4423828 .0289917 .29733277 .0289917 .28833009 .0289917 .27833558 .038986207 .27833558 .040985109 .27833558 .050994874 .27833558 .051986696 .28033448 .056991579 .29634095 .083999637 .3903656 .12399292 .42037965 .1579895 .42037965 .1659851 .42037965 .18299866 .42037965 .18299866 .3883667 .18299866 .36335755 .17298889 .3373413 .1659851 .31834413 .12599182 .21231079 .10798645 .1552887 .10798645 .10827637 .10798645 .019256592 .17098999-.0107421879 .22999573-.0107421879 .2689972-.0107421879 .30299378 .0062561037 .33099366 .03425598 .31799317-.017745972 .30599977-.06674194 .2659912-.11973572 .23999024-.15385437 .20199585-.18309021 .1559906-.18309021 .14199829-.18309021 .09700012-.18005371 .07998657-.14074707 .09599304-.14074707 .10899353-.14074707 .12298584-.1287384 .1329956-.11973572 .14299011-.10673523 .14299011-.08773804 .14299011-.056747438 .115997318-.052734376 .10598755-.052734376 .08299255-.052734376 .049987794-.068740848 .049987794-.11773682 .049987794-.16796875 .09399414-.20507813 .1559906-.20507813 .25898744-.20507813 .3619995-.11373901 .3899994-.00074768069L.48599244 .38136292Z"/>
<path id="font_2_1" d="M.6589966 .23046875C.6759949 .23046875 .69400027 .23046875 .69400027 .25045777 .69400027 .27046205 .6759949 .27046205 .6589966 .27046205H.117996219C.100997928 .27046205 .08299255 .27046205 .08299255 .25045777 .08299255 .23046875 .100997928 .23046875 .117996219 .23046875H.6589966Z"/>
<path id="font_3_5" d="M.1269989 .07699585 .23298645 .18003845C.3889923 .31811524 .44898988 .3721466 .44898988 .47216798 .44898988 .5860901 .35899354 .6660156 .23699951 .6660156 .12399292 .6660156 .049987794 .57411196 .049987794 .48516847 .049987794 .4291687 .099990848 .4291687 .102996829 .4291687 .11999512 .4291687 .15499878 .44117738 .15499878 .48217774 .15499878 .5081787 .13699341 .5341797 .101989749 .5341797 .09399414 .5341797 .09199524 .5341797 .08898926 .5331726 .11199951 .59806826 .1659851 .63500979 .22399903 .63500979 .31498719 .63500979 .35798646 .5541382 .35798646 .47216798 .35798646 .39215089 .30799867 .31311036 .25299073 .25108338L.06098938 .036987306C.049987794 .025985718 .049987794 .023986817 .049987794 0H.42099L.44898988 .17404175H.42399598C.4189911 .14402771 .4119873 .1000061 .4019928 .084991458 .394989 .07699585 .32899476 .07699585 .30699159 .07699585H.1269989Z"/>
<path id="font_3_6" d="M.2939911 .16503906V.07800293C.2939911 .041992189 .2919922 .0309906 .21798706 .0309906H.19699097V0C.23799134 .0029907227 .2899933 .0029907227 .33198548 .0029907227 .37399293 .0029907227 .4269867 .0029907227 .46798707 0V.0309906H.44699098C.37298585 .0309906 .37098695 .041992189 .37098695 .07800293V.16503906H.47099305V.19602967H.37098695V.65075686C.37098695 .67074587 .37098695 .6767578 .35499574 .6767578 .34599305 .6767578 .34298707 .6767578 .33499146 .66474917L.027999878 .19602967V.16503906H.2939911M.2999878 .19602967H.055999757L.2999878 .5688019V.19602967Z"/>
<path id="font_3_8" d="M.13198853 .327713V.35173036C.13198853 .6047821 .2559967 .64100649 .30699159 .64100649 .33099366 .64100649 .37298585 .634964 .394989 .6007538 .37998963 .6007538 .33999635 .6007538 .33999635 .5557556 .33999635 .524765 .3639984 .5097656 .38598634 .5097656 .4019928 .5097656 .43199159 .51875308 .43199159 .5577545 .43199159 .6178589 .3880005 .6660156 .30499269 .6660156 .1769867 .6660156 .041992189 .5367584 .041992189 .31570436 .041992189 .048553468 .1579895-.022460938 .25099183-.022460938 .3619995-.022460938 .45700074 .07156372 .45700074 .2036438 .45700074 .33070375 .36799623 .4267578 .25698854 .4267578 .18899536 .4267578 .1519928 .37573243 .13198853 .327713M.25099183 .0055389406C.18798828 .0055389406 .1579895 .06556702 .1519928 .080566409 .13398743 .127594 .13398743 .2076416 .13398743 .22564698 .13398743 .30369569 .1659851 .40374757 .2559967 .40374757 .27198792 .40374757 .31799317 .40374757 .34899903 .34172059 .36698915 .30470277 .36698915 .2536621 .36698915 .20463562 .36698915 .15661621 .36698915 .10658264 .34999085 .0705719 .31999208 .010528564 .27398683 .0055389406 .25099183 .0055389406Z"/>
<path id="font_3_9" d="M.16299439 .4569702C.116989139 .486969 .11299133 .52098086 .11299133 .5379791 .11299133 .598999 .17799378 .64100649 .24899292 .64100649 .32199098 .64100649 .38598634 .58898928 .38598634 .51698306 .38598634 .45996095 .34700013 .4119568 .2869873 .37695313L.16299439 .4569702M.30899049 .36193849C.3809967 .3989563 .42999269 .45095826 .42999269 .51698306 .42999269 .6090088 .34098817 .6660156 .25 .6660156 .1499939 .6660156 .068984989 .59199526 .068984989 .49897767 .068984989 .4809723 .070999149 .43595887 .11299133 .38894654 .12399292 .37695313 .16099549 .35194398 .18598938 .33494569 .12799073 .30592347 .041992189 .24984741 .041992189 .15072632 .041992189 .04458618 .14399719-.022460938 .24899292-.022460938 .3619995-.022460938 .45700074 .06060791 .45700074 .16773987 .45700074 .20379639 .44599916 .24885559 .4079895 .2909088 .3889923 .31193543 .37298585 .3219452 .30899049 .36193849M.20899964 .3199463 .33198548 .24183655C.3600006 .2228241 .40699769 .19277954 .40699769 .13169861 .40699769 .05760193 .33198548 .0055389406 .25 .0055389406 .1639862 .0055389406 .09199524 .067611698 .09199524 .15072632 .09199524 .20880127 .12399292 .27288819 .20899964 .3199463Z"/>
<path id="font_3_4" d="M.2939911 .64004519C.2939911 .66400149 .2939911 .6660156 .2709961 .6660156 .20899964 .60227969 .12098694 .60227969 .08898926 .60227969V.57128909C.10899353 .57128909 .16799927 .57128909 .21998596 .5972748V.07902527C.21998596 .042999269 .21699524 .0309906 .1269989 .0309906H.09498596V0C.12998963 .0029907227 .21699524 .0029907227 .25698854 .0029907227 .29699708 .0029907227 .38398744 .0029907227 .4189911 0V.0309906H.3869934C.29699708 .0309906 .2939911 .041992189 .2939911 .07902527V.64004519Z"/>
<path id="font_3_3" d="M.45999146 .31976319C.45999146 .39982606 .45498658 .47988893 .41999818 .5539398 .37399293 .65000918 .2919922 .6660156 .25 .6660156 .18998719 .6660156 .116989139 .64001467 .07598877 .54693606 .04399109 .47789 .038986207 .39982606 .038986207 .31976319 .038986207 .24472046 .042999269 .15464783 .083999637 .07859802 .1269989-.0024719239 .19999695-.022460938 .24899292-.022460938 .30299378-.022460938 .3789978-.0014648438 .4229889 .09359741 .45498658 .16265869 .45999146 .2407074 .45999146 .31976319M.24899292-.00047302247C.20999146-.00047302247 .15098572 .024551392 .1329956 .12062073 .12199402 .18066406 .12199402 .2727356 .12199402 .3317871 .12199402 .39582826 .12199402 .46188355 .12998963 .5159149 .14898682 .63500979 .22399903 .64401248 .24899292 .64401248 .28199769 .64401248 .34799195 .6259918 .36698915 .52693179 .3769989 .47088624 .3769989 .39482118 .3769989 .3317871 .3769989 .25672914 .3769989 .18867493 .3659973 .12461853 .35099793 .029556275 .2939911-.00047302247 .24899292-.00047302247Z"/>
<path id="font_3_1" d="M.33099366-.2400055C.33099366-.23701477 .33099366-.23500061 .31399537-.21800232 .18899536-.0920105 .15699768 .09700012 .15699768 .25 .15699768 .42399598 .19499207 .59799197 .31799317 .72299197 .33099366 .73498538 .33099366 .7369995 .33099366 .73999026 .33099366 .746994 .32699586 .75 .32099916 .75 .31098939 .75 .22099304 .6819916 .1619873 .5549927 .11099243 .44499208 .09899902 .33399964 .09899902 .25 .09899902 .17199707 .10998535 .050994874 .16499329-.06201172 .22499085-.18501282 .31098939-.25 .32099916-.25 .32699586-.25 .33099366-.24700928 .33099366-.2400055Z"/>
<path id="font_1_1" d="M.20298767 .0009918213C.20298767 .066986087 .17799378 .10598755 .13899231 .10598755 .10598755 .10598755 .085998538 .08099365 .085998538 .052993776 .085998538 .025985718 .10598755 0 .13899231 0 .15098572 0 .1639862 .0039978029 .17399597 .0129852299 .1769867 .01499939 .17799378 .015991211 .1789856 .015991211 .17999268 .015991211 .18099976 .01499939 .18099976 .0009918213 .18099976-.07316589 .1459961-.13328552 .11299133-.16635132 .101989749-.17736817 .101989749-.17936707 .101989749-.18237305 .101989749-.18936157 .10699463-.19335938 .11199951-.19335938 .12298584-.19335938 .20298767-.116256717 .20298767 .0009918213Z"/>
<path id="font_3_7" d="M.44898988 .20022583C.44898988 .3193512 .36698915 .41944886 .25898744 .41944886 .21099854 .41944886 .16799927 .40345765 .13198853 .36842347V.5637665C.1519928 .5577698 .18499756 .55078127 .21699524 .55078127 .33999635 .55078127 .4099884 .6417694 .4099884 .6547699 .4099884 .6607666 .40699769 .6657715 .3999939 .6657715 .39898683 .6657715 .39698792 .6657715 .3919983 .66278079 .37199403 .6537781 .32299806 .6337738 .2559967 .6337738 .21598816 .6337738 .16999817 .6407776 .12298584 .6617737 .114990238 .66477969 .11299133 .66477969 .11099243 .66477969 .100997928 .66477969 .100997928 .6567688 .100997928 .6407776V.34439088C.100997928 .32637025 .100997928 .31835938 .114990238 .31835938 .12199402 .31835938 .12399292 .32136537 .12799073 .32736207 .13899231 .3433838 .17599488 .39746095 .25698854 .39746095 .30899049 .39746095 .33399964 .35139466 .34199525 .33337403 .35798646 .29632569 .3600006 .25727845 .3600006 .20722962 .3600006 .17222595 .3600006 .11222839 .33599855 .07035828 .31199647 .031463624 .2749939 .0055389406 .22898865 .0055389406 .1559906 .0055389406 .09899902 .058380128 .08198547 .11723328 .084991458 .1162262 .08799744 .115234378 .09899902 .115234378 .13198853 .115234378 .14898682 .14022827 .14898682 .16423035 .14898682 .18823242 .13198853 .21322632 .09899902 .21322632 .084991458 .21322632 .049987794 .20622254 .049987794 .16023255 .049987794 .07434082 .11898804-.022460938 .23098755-.022460938 .34700013-.022460938 .44898988 .073349 .44898988 .20022583Z"/>
<path id="font_3_2" d="M.2889862 .25C.2889862 .32798768 .27799989 .44898988 .22299195 .56199648 .16299439 .68499758 .07699585 .75 .066986087 .75 .06098938 .75 .056991579 .74598696 .056991579 .73999026 .056991579 .7369995 .056991579 .73498538 .07598877 .71699526 .17399597 .6179962 .23098755 .45899964 .23098755 .25 .23098755 .07899475 .19400025-.09700012 .069992069-.2230072 .056991579-.23500061 .056991579-.23701477 .056991579-.2400055 .056991579-.2460022 .06098938-.25 .066986087-.25 .07699585-.25 .16699219-.18200684 .22599793-.055007936 .2769928 .054992677 .2889862 .16600037 .2889862 .25Z"/>
</defs>
<path transform="matrix(1.00003,0,0,-1.00005,29.253495,124.12356)" stroke-width=".3985" stroke-linecap="butt" stroke-miterlimit="10" stroke-linejoin="miter" fill="none" stroke="#00aeef" d="M-22.6771-12.75595H113.3855M-22.6771 0H113.3855M-22.6771 12.75595H113.3855M-22.6771 25.51193H113.3855M-22.6771 38.26791H113.3855M-22.6771 51.0239H113.3855M-22.6771 63.77988H113.3855M-22.6771 76.53586H113.3855M-22.6771 89.29184H113.3855M-22.6771 102.04333H113.3855M-22.6771-12.75595V102.0478M-11.33855-12.75595V102.0478M0-12.75595V102.0478M11.33855-12.75595V102.0478M22.6771-12.75595V102.0478M34.01564-12.75595V102.0478M45.35419-12.75595V102.0478M56.69275-12.75595V102.0478M68.0313-12.75595V102.0478M79.36984-12.75595V102.0478M90.70839-12.75595V102.0478M102.04694-12.75595V102.0478M113.38152-12.75595V102.0478M113.3855 102.0478"/>
<path transform="matrix(1.00003,0,0,-1.00005,29.253495,124.12356)" stroke-width=".79701" stroke-linecap="butt" stroke-miterlimit="10" stroke-linejoin="miter" fill="none" stroke="#000000" d="M-22.6771 0H121.02176"/>
<path transform="matrix(1.00003,0,0,-1.00005,150.2789,124.12356)" d="M1.0361 0C-.25902 .25902-1.55415 .77707-3.1083 1.68365-1.55415 .51805-1.55415-.51805-3.1083-1.68365-1.55415-.77707-.25902-.25902 1.0361 0Z"/>
<path transform="matrix(1.00003,0,0,-1.00005,150.2789,124.12356)" stroke-width=".79701" stroke-linecap="butt" stroke-linejoin="round" fill="none" stroke="#000000" d="M1.0361 0C-.25902 .25902-1.55415 .77707-3.1083 1.68365-1.55415 .51805-1.55415-.51805-3.1083-1.68365-1.55415-.77707-.25902-.25902 1.0361 0Z"/>
<use data-text="x" xlink:href="#font_1_2" transform="matrix(9.962899,0,0,-9.963098,155.43228,126.26866)"/>
<path transform="matrix(1.00003,0,0,-1.00005,29.253495,124.12356)" stroke-width=".79701" stroke-linecap="butt" stroke-miterlimit="10" stroke-linejoin="miter" fill="none" stroke="#000000" d="M0-12.75595V110.81801"/>
<path transform="matrix(0,-1.00005,-1.00003,-0,29.253495,13.300011)" d="M1.0361 0C-.25902 .25902-1.55415 .77707-3.1083 1.68365-1.55415 .51805-1.55415-.51805-3.1083-1.68365-1.55415-.77707-.25902-.25902 1.0361 0Z"/>
<path transform="matrix(0,-1.00005,-1.00003,-0,29.253495,13.300011)" stroke-width=".79701" stroke-linecap="butt" stroke-linejoin="round" fill="none" stroke="#000000" d="M1.0361 0C-.25902 .25902-1.55415 .77707-3.1083 1.68365-1.55415 .51805-1.55415-.51805-3.1083-1.68365-1.55415-.77707-.25902-.25902 1.0361 0Z"/>
<use data-text="y" xlink:href="#font_1_3" transform="matrix(9.962899,0,0,-9.963098,26.632416,6.2086718)"/>
<path transform="matrix(1.00003,0,0,-1.00005,29.253495,124.12356)" stroke-width=".79701" stroke-linecap="butt" stroke-miterlimit="10" stroke-linejoin="miter" fill="none" stroke="#000000" d="M-22.6771 1.9133V-1.9135"/>
<path transform="matrix(1.00003,0,0,-1.00005,29.253495,124.12356)" d="M-30.03848-13.54778H-15.315701V-4.30455H-30.03848Z" fill="#ffffff"/>
<use data-text="&#x2212;" xlink:href="#font_2_1" transform="matrix(9.962899,0,0,-9.963098,.2106247,135.84514)"/>
<use data-text="2" xlink:href="#font_3_5" transform="matrix(9.962899,0,0,-9.963098,7.959854,135.84514)"/>
<path transform="matrix(1.00003,0,0,-1.00005,29.253495,124.12356)" stroke-width=".79701" stroke-linecap="butt" stroke-miterlimit="10" stroke-linejoin="miter" fill="none" stroke="#000000" d="M22.6771 1.9133V-1.9135"/>
<path transform="matrix(1.00003,0,0,-1.00005,29.253495,124.12356)" d="M19.19012-12.71754H26.16406V-4.3045599H19.19012Z" fill="#ffffff"/>
<use data-text="2" xlink:href="#font_3_5" transform="matrix(9.962899,0,0,-9.963098,49.4401,135.84514)"/>
<path transform="matrix(1.00003,0,0,-1.00005,29.253495,124.12356)" stroke-width=".79701" stroke-linecap="butt" stroke-miterlimit="10" stroke-linejoin="miter" fill="none" stroke="#000000" d="M45.35419 1.9133V-1.9135"/>
<path transform="matrix(1.00003,0,0,-1.00005,29.253495,124.12356)" d="M41.86722-12.71754H48.841165V-4.3045599H41.86722Z" fill="#ffffff"/>
<use data-text="4" xlink:href="#font_3_6" transform="matrix(9.962899,0,0,-9.963098,72.11878,135.84514)"/>
<path transform="matrix(1.00003,0,0,-1.00005,29.253495,124.12356)" stroke-width=".79701" stroke-linecap="butt" stroke-miterlimit="10" stroke-linejoin="miter" fill="none" stroke="#000000" d="M68.0313 1.9133V-1.9135"/>
<path transform="matrix(1.00003,0,0,-1.00005,29.253495,124.12356)" d="M64.54433-12.71754H71.518268V-4.3045599H64.54433Z" fill="#ffffff"/>
<use data-text="6" xlink:href="#font_3_8" transform="matrix(9.962899,0,0,-9.963098,94.79646,135.84514)"/>
<path transform="matrix(1.00003,0,0,-1.00005,29.253495,124.12356)" stroke-width=".79701" stroke-linecap="butt" stroke-miterlimit="10" stroke-linejoin="miter" fill="none" stroke="#000000" d="M90.70839 1.9133V-1.9135"/>
<path transform="matrix(1.00003,0,0,-1.00005,29.253495,124.12356)" d="M87.22142-12.71754H94.19536V-4.3045599H87.22142Z" fill="#ffffff"/>
<use data-text="8" xlink:href="#font_3_9" transform="matrix(9.962899,0,0,-9.963098,117.474147,135.84514)"/>
<path transform="matrix(1.00003,0,0,-1.00005,29.253495,124.12356)" stroke-width=".79701" stroke-linecap="butt" stroke-miterlimit="10" stroke-linejoin="miter" fill="none" stroke="#000000" d="M113.3855 1.9133V-1.9135"/>
<path transform="matrix(1.00003,0,0,-1.00005,29.253495,124.12356)" d="M107.40782-12.71754H119.36316V-4.3045599H107.40782Z" fill="#ffffff"/>
<use data-text="1" xlink:href="#font_3_4" transform="matrix(9.962899,0,0,-9.963098,137.66075,135.84514)"/>
<use data-text="0" xlink:href="#font_3_3" transform="matrix(9.962899,0,0,-9.963098,142.6422,135.84514)"/>
<path transform="matrix(1.00003,0,0,-1.00005,29.253495,124.12356)" stroke-width=".79701" stroke-linecap="butt" stroke-miterlimit="10" stroke-linejoin="miter" fill="none" stroke="#000000" d="M1.7007 25.51193H-1.70087"/>
<path transform="matrix(1.00003,0,0,-1.00005,29.253495,124.12356)" d="M-11.06586 21.30545H-4.09192V29.71843H-11.06586Z" fill="#ffffff"/>
<use data-text="4" xlink:href="#font_3_6" transform="matrix(9.962899,0,0,-9.963098,19.18319,101.82044)"/>
<path transform="matrix(1.00003,0,0,-1.00005,29.253495,124.12356)" stroke-width=".79701" stroke-linecap="butt" stroke-miterlimit="10" stroke-linejoin="miter" fill="none" stroke="#000000" d="M1.7007 51.0239H-1.70087"/>
<path transform="matrix(1.00003,0,0,-1.00005,29.253495,124.12356)" d="M-11.06586 46.8174H-4.09192V55.23038H-11.06586Z" fill="#ffffff"/>
<use data-text="8" xlink:href="#font_3_9" transform="matrix(9.962899,0,0,-9.963098,19.18319,76.307178)"/>
<path transform="matrix(1.00003,0,0,-1.00005,29.253495,124.12356)" stroke-width=".79701" stroke-linecap="butt" stroke-miterlimit="10" stroke-linejoin="miter" fill="none" stroke="#000000" d="M1.7007 76.53586H-1.70087"/>
<path transform="matrix(1.00003,0,0,-1.00005,29.253495,124.12356)" d="M-16.04727 72.32936H-4.0919296V80.74234H-16.04727Z" fill="#ffffff"/>
<use data-text="1" xlink:href="#font_3_4" transform="matrix(9.962899,0,0,-9.963098,14.202042,50.7939)"/>
<use data-text="2" xlink:href="#font_3_5" transform="matrix(9.962899,0,0,-9.963098,19.183487,50.7939)"/>
<path transform="matrix(1.00003,0,0,-1.00005,29.253495,124.12356)" stroke-width=".79701" stroke-linecap="butt" stroke-miterlimit="10" stroke-linejoin="miter" fill="none" stroke="#000000" d="M1.7007 102.0478H-1.70087"/>
<path transform="matrix(1.00003,0,0,-1.00005,29.253495,124.12356)" d="M-16.04727 97.84131H-4.0919296V106.25429H-16.04727Z" fill="#ffffff"/>
<use data-text="1" xlink:href="#font_3_4" transform="matrix(9.962899,0,0,-9.963098,14.202042,25.280625)"/>
<use data-text="6" xlink:href="#font_3_8" transform="matrix(9.962899,0,0,-9.963098,19.183487,25.280625)"/>
<path transform="matrix(1.00003,0,0,-1.00005,29.253495,124.12356)" stroke-width="1.19553" stroke-linecap="butt" stroke-miterlimit="10" stroke-linejoin="miter" fill="none" stroke="#ff0000" d="M1.86293 100.22324C2.43153 97.7697 2.43153 97.7697 2.8123 96.16245 3.19305 94.55522 3.8037 92.01933 4.18446 90.46396 4.56523 88.90857 5.17586 86.45584 5.55663 84.95232 5.9374 83.44879 6.54802 81.07922 6.9288 79.62753 7.30956 78.17581 7.9202 75.88927 8.30095 74.4894 8.68172 73.08951 9.29234 70.88615 9.67311 69.53812 10.05388 68.1901 10.66452 66.06989 11.04527 64.77371 11.42604 63.47752 12.03668 61.44048 12.41743 60.19615 12.7982 58.95181 13.40884 56.99794 13.7896 55.80544 14.17036 54.61293 14.78099 52.74207 15.16176 51.6014 15.54253 50.46071 16.15315 48.67303 16.53392 47.58421 16.9147 46.49538 17.52531 44.79085 17.9061 43.75388 18.28687 42.71689 18.89748 41.09554 19.27824 40.11038 19.65903 39.12523 20.26964 37.58685 20.65042 36.65356 21.03119 35.72026 21.64182 34.26526 22.02258 33.38379 22.40335 32.50233 23.01396 31.1303 23.39474 30.30069 23.77551 29.47107 24.38614 28.18222 24.7669 27.40443 25.14767 26.62663 25.7583 25.42079 26.13907 24.69482 26.51982 23.96889 27.13046 22.84639 27.51123 22.17229 27.892 21.49818 28.50262 20.45868 28.88339 19.8364 29.26414 19.21414 29.87479 18.2578 30.25555 17.68738 30.63632 17.11696 31.24695 16.24379 31.62772 15.7252 32.00848 15.2066 32.61911 14.41644 32.99986 13.94969 33.38065 13.48294 33.99127 12.77611 34.37204 12.36122 34.7528 11.94633 35.36345 11.32248 35.7442 10.95943 36.12497 10.59636 36.73561 10.0557 37.11636 9.74448 37.49713 9.43326 38.10776 8.97577 38.48853 8.71638 38.8693 8.45699 39.47992 8.08249 39.86069 7.87495 40.24146 7.66742 40.85208 7.37625 41.23285 7.22057 41.61363 7.06488 42.22424 6.8567 42.60501 6.75285 42.98578 6.64899 43.5964 6.524 43.97717 6.47198 44.35796 6.41997 44.96857 6.37814 45.34935 6.37796 45.73012 6.37779 46.34074 6.41898 46.72151 6.47063 47.10228 6.52226 47.71289 6.64665 48.09367 6.75012 48.47444 6.8536 49.08507 7.06114 49.46584 7.21648 49.84659 7.37181 50.45723 7.6625 50.838 7.86969 51.21875 8.07687 51.82939 8.45076 52.21016 8.70976 52.59091 8.96878 53.20155 9.42563 53.58232 9.7365 53.96307 10.04736 54.57372 10.58755 54.95447 10.95029 55.33525 11.31299 55.94588 11.9362 56.32663 12.35072 56.7074 12.76523 57.31804 13.47145 57.69879 13.93782 58.07957 14.40419 58.6902 15.19374 59.07097 15.71196 59.45174 16.2302 60.06238 17.1027 60.44313 17.67278 60.8239 18.24286 61.43451 19.19873 61.81529 19.82063 62.19606 20.44257 62.80669 21.48145 63.18745 22.15515 63.56822 22.82887 64.17885 23.95079 64.55962 24.67635 64.94038 25.4019 65.55101 26.60715 65.93178 27.38458 66.31255 28.16199 66.92317 29.45023 67.30394 30.27948 67.68471 31.10872 68.29533 32.48012 68.6761 33.36122 69.05688 34.24231 69.6675 35.69687 70.04828 36.6298 70.42905 37.56276 71.03966 39.10048 71.42043 40.08528 71.80121 41.07008 72.41182 42.69096 72.7926 43.72758 73.17336 44.7642 73.784 46.46811 74.16476 47.55655 74.54552 48.645 75.15614 50.43208 75.53693 51.57239 75.91768 52.71269 76.52832 54.58292 76.90909 55.77509 77.28984 56.96724 77.90048 58.92064 78.28123 60.16461 78.662 61.40858 79.27264 63.445 79.6534 64.74081 80.03418 66.0366 80.6448 68.1562 81.02556 69.50386 81.40633 70.85152 82.01697 73.05428 82.39772 74.45378 82.7785 75.85329 83.38913 78.13919 83.7699 79.59055 84.15067 81.04189 84.76128 83.41098 85.14204 84.91417 85.52283 86.41734 86.13344 88.86943 86.51422 90.42444 86.89499 91.97945 87.50562 94.51472 87.88638 96.12158 88.26715 97.72844 89.25854 102.00557 88.83566 100.181"/>
<path transform="matrix(-.22574678,-.97419866,-.97417929,.22575128,31.11648,23.89531)" d="M1.27522 0C-.31879 .31879-1.91284 .9564-3.8257 2.07224-1.91284 .6376-1.91284-.6376-3.8257-2.07224-1.91284-.9564-.31879-.31879 1.27522 0Z" fill="#ff0000"/>
<path transform="matrix(-.22574678,-.97419866,-.97417929,.22575128,31.11648,23.89531)" stroke-width="1.19553" stroke-linecap="butt" stroke-linejoin="round" fill="none" stroke="#ff0000" d="M1.27522 0C-.31879 .31879-1.91284 .9564-3.8257 2.07224-1.91284 .6376-1.91284-.6376-3.8257-2.07224-1.91284-.9564-.31879-.31879 1.27522 0Z"/>
<path transform="matrix(.22578678,-.97419866,-.97417929,-.22579128,118.09183,23.937554)" d="M1.27522 0C-.31879 .31879-1.91284 .9564-3.8257 2.07224-1.91284 .6376-1.91284-.6376-3.8257-2.07224-1.91284-.9564-.31879-.31879 1.27522 0Z" fill="#ff0000"/>
<path transform="matrix(.22578678,-.97419866,-.97417929,-.22579128,118.09183,23.937554)" stroke-width="1.19553" stroke-linecap="butt" stroke-linejoin="round" fill="none" stroke="#ff0000" d="M1.27522 0C-.31879 .31879-1.91284 .9564-3.8257 2.07224-1.91284 .6376-1.91284-.6376-3.8257-2.07224-1.91284-.9564-.31879-.31879 1.27522 0Z"/>
<path transform="matrix(1.00003,0,0,-1.00005,29.253495,124.12356)" stroke-width=".79701" stroke-linecap="butt" stroke-miterlimit="10" stroke-linejoin="miter" fill="none" stroke="#0000ff" d="M-7.92126 100.73688 41.93692-11.44502"/>
<path transform="matrix(-.40614219,-.91383567,-.91381749,.40615029,21.331997,23.381646)" d="M1.0361 0C-.25902 .25902-1.55415 .77707-3.1083 1.68365-1.55415 .51805-1.55415-.51805-3.1083-1.68365-1.55415-.77707-.25902-.25902 1.0361 0Z" fill="#0000ff"/>
<path transform="matrix(-.40614219,-.91383567,-.91381749,.40615029,21.331997,23.381646)" stroke-width=".79701" stroke-linecap="butt" stroke-linejoin="round" fill="none" stroke="#0000ff" d="M1.0361 0C-.25902 .25902-1.55415 .77707-3.1083 1.68365-1.55415 .51805-1.55415-.51805-3.1083-1.68365-1.55415-.77707-.25902-.25902 1.0361 0Z"/>
<path transform="matrix(.40614219,.91383567,.91381749,-.40615029,71.19167,135.56916)" d="M1.0361 0C-.25902 .25902-1.55415 .77707-3.1083 1.68365-1.55415 .51805-1.55415-.51805-3.1083-1.68365-1.55415-.77707-.25902-.25902 1.0361 0Z" fill="#0000ff"/>
<path transform="matrix(.40614219,.91383567,.91381749,-.40615029,71.19167,135.56916)" stroke-width=".79701" stroke-linecap="butt" stroke-linejoin="round" fill="none" stroke="#0000ff" d="M1.0361 0C-.25902 .25902-1.55415 .77707-3.1083 1.68365-1.55415 .51805-1.55415-.51805-3.1083-1.68365-1.55415-.77707-.25902-.25902 1.0361 0Z"/>
<path transform="matrix(1.00003,0,0,-1.00005,29.253495,124.12356)" d="M24.71794 31.88992C24.71794 33.01714 23.80423 33.93091 22.6771 33.93091 21.54996 33.93091 20.63623 33.01714 20.63623 31.88992 20.63623 30.76271 21.54996 29.84894 22.6771 29.84894 23.80423 29.84894 24.71794 30.76271 24.71794 31.88992ZM22.6771 31.88992"/>
<path transform="matrix(1.00003,0,0,-1.00005,29.253495,124.12356)" stroke-width=".3985" stroke-linecap="butt" stroke-miterlimit="10" stroke-linejoin="miter" fill="none" stroke="#000000" d="M24.71794 31.88992C24.71794 33.01714 23.80423 33.93091 22.6771 33.93091 21.54996 33.93091 20.63623 33.01714 20.63623 31.88992 20.63623 30.76271 21.54996 29.84894 22.6771 29.84894 23.80423 29.84894 24.71794 30.76271 24.71794 31.88992ZM22.6771 31.88992"/>
<path transform="matrix(1.00003,0,0,-1.00005,29.253495,124.12356)" d="M25.7112 32.08917H49.84323V44.044488H25.7112Z" fill="#ffffff"/>
<use data-text="(" xlink:href="#font_3_1" transform="matrix(9.962899,0,0,-9.963098,55.961297,88.54578)"/>
<use data-text="2" xlink:href="#font_3_5" transform="matrix(9.962899,0,0,-9.963098,59.826898,88.54578)"/>
<use data-text="," xlink:href="#font_1_1" transform="matrix(9.962899,0,0,-9.963098,64.817569,88.54578)"/>
<use data-text="5" xlink:href="#font_3_7" transform="matrix(9.962899,0,0,-9.963098,69.24569,88.54578)"/>
<use data-text=")" xlink:href="#font_3_2" transform="matrix(9.962899,0,0,-9.963098,74.227138,88.54578)"/>
</svg>
