<svg xmlns="http://www.w3.org/2000/svg" xmlns:xlink="http://www.w3.org/1999/xlink" version="1.1" width="240" height="145" viewBox="0 0 240 145">
<defs>
<path id="font_1_1" d="M.33399964 .30233766C.33999635 .32835389 .36299134 .42037965 .43299867 .42037965 .43798829 .42037965 .46199037 .42037965 .48298646 .40734864 .45498658 .402359 .43499757 .37734986 .43499757 .35334779 .43499757 .33735658 .44599916 .31835938 .47299195 .31835938 .49499513 .31835938 .5269928 .3363495 .5269928 .37635804 .5269928 .42837525 .46798707 .4423828 .43399049 .4423828 .37599183 .4423828 .34098817 .38935853 .32899476 .36634828 .3039856 .43237306 .25 .4423828 .22099304 .4423828 .116989139 .4423828 .05999756 .3133545 .05999756 .28834535 .05999756 .27833558 .069992069 .27833558 .07199097 .27833558 .07998657 .27833558 .08299255 .28033448 .084991458 .28933717 .11898804 .39535523 .18499756 .42037965 .21899414 .42037965 .23799134 .42037965 .272995 .4113617 .272995 .35334779 .272995 .32235719 .2559967 .25532533 .21899414 .11528015 .20298767 .053268434 .16799927 .011245728 .12399292 .011245728 .117996219 .011245728 .09498596 .011245728 .07398987 .024276734 .09899902 .029266358 .12098694 .05027771 .12098694 .07827759 .12098694 .105270389 .09899902 .11328125 .083999637 .11328125 .053985597 .11328125 .0289917 .08728027 .0289917 .055267335 .0289917 .009246826 .07899475-.0107421879 .12298584-.0107421879 .18899536-.0107421879 .22499085 .059280397 .22799683 .0652771 .23999024 .028274537 .27598573-.0107421879 .33599855-.0107421879 .43899537-.0107421879 .49598695 .118270877 .49598695 .14328003 .49598695 .1532898 .4869995 .1532898 .48399354 .1532898 .47499085 .1532898 .47299195 .14929199 .47099305 .14228821 .43798829 .03527832 .36999513 .011245728 .33799745 .011245728 .29899598 .011245728 .2829895 .043273927 .2829895 .07727051 .2829895 .09927368 .2889862 .121276859 .2999878 .16529846L.33399964 .30233766Z"/>
<path id="font_1_2" d="M.48599244 .38136292C.48999024 .39537049 .48999024 .39736939 .48999024 .40437318 .48999024 .42237855 .47599793 .43138124 .46099855 .43138124 .45098878 .43138124 .43499757 .42536927 .42599488 .41036988 .42399598 .405365 .41600038 .37435914 .4119873 .35635377 .40499879 .33035279 .397995 .30334474 .3919983 .27633668L.34700013 .09628296C.34298707 .08126831 .2999878 .011245728 .23399353 .011245728 .18299866 .011245728 .17199707 .055267335 .17199707 .0922699 .17199707 .1382904 .18899536 .20030213 .22299195 .28833009 .23899842 .3293457 .24299622 .3403473 .24299622 .36035157 .24299622 .405365 .21099854 .4423828 .16099549 .4423828 .06599426 .4423828 .0289917 .29733277 .0289917 .28833009 .0289917 .27833558 .038986207 .27833558 .040985109 .27833558 .050994874 .27833558 .051986696 .28033448 .056991579 .29634095 .083999637 .3903656 .12399292 .42037965 .1579895 .42037965 .1659851 .42037965 .18299866 .42037965 .18299866 .3883667 .18299866 .36335755 .17298889 .3373413 .1659851 .31834413 .12599182 .21231079 .10798645 .1552887 .10798645 .10827637 .10798645 .019256592 .17098999-.0107421879 .22999573-.0107421879 .2689972-.0107421879 .30299378 .0062561037 .33099366 .03425598 .31799317-.017745972 .30599977-.06674194 .2659912-.11973572 .23999024-.15385437 .20199585-.18309021 .1559906-.18309021 .14199829-.18309021 .09700012-.18005371 .07998657-.14074707 .09599304-.14074707 .10899353-.14074707 .12298584-.1287384 .1329956-.11973572 .14299011-.10673523 .14299011-.08773804 .14299011-.056747438 .115997318-.052734376 .10598755-.052734376 .08299255-.052734376 .049987794-.068740848 .049987794-.11773682 .049987794-.16796875 .09399414-.20507813 .1559906-.20507813 .25898744-.20507813 .3619995-.11373901 .3899994-.00074768069L.48599244 .38136292Z"/>
<path id="font_2_1" d="M.6589966 .23046875C.6759949 .23046875 .69400027 .23046875 .69400027 .25045777 .69400027 .27046205 .6759949 .27046205 .6589966 .27046205H.117996219C.100997928 .27046205 .08299255 .27046205 .08299255 .25045777 .08299255 .23046875 .100997928 .23046875 .117996219 .23046875H.6589966Z"/>
<path id="font_3_3" d="M.2899933 .35191346C.37199403 .37893678 .42999269 .4490509 .42999269 .52809146 .42999269 .6100464 .34199525 .6660156 .24598694 .6660156 .14498902 .6660156 .068984989 .60606387 .068984989 .53009036 .068984989 .49710084 .09098816 .47808839 .11999512 .47808839 .15098572 .47808839 .17098999 .50009158 .17098999 .5290985 .17098999 .57910159 .12399292 .57910159 .10899353 .57910159 .13999939 .62802127 .20599365 .64100649 .24198914 .64100649 .2829895 .64100649 .33799745 .6190338 .33799745 .5290985 .33799745 .51708987 .33599855 .45906068 .30999757 .4149933 .27999879 .36691285 .24598694 .36390687 .22099304 .36291505 .21299744 .36190797 .18899536 .35990907 .18199158 .35990907 .17399597 .35890199 .16699219 .35791017 .16699219 .3479004 .16699219 .33691407 .17399597 .33691407 .19099427 .33691407H.23498535C.31698609 .33691407 .35398866 .2686615 .35398866 .17037964 .35398866 .034469606 .2849884 .0055389406 .24099732 .0055389406 .19799805 .0055389406 .12298584 .022491456 .08799744 .08137512 .12298584 .07637024 .1539917 .09837341 .1539917 .1363678 .1539917 .17237854 .1269989 .19238281 .09799194 .19238281 .07398987 .19238281 .041992189 .17837525 .041992189 .1343689 .041992189 .043441774 .1349945-.022460938 .24398804-.022460938 .3659973-.022460938 .45700074 .06838989 .45700074 .17037964 .45700074 .252594 .3939972 .33088685 .2899933 .35191346Z"/>
<path id="font_3_2" d="M.1269989 .07699585 .23298645 .18003845C.3889923 .31811524 .44898988 .3721466 .44898988 .47216798 .44898988 .5860901 .35899354 .6660156 .23699951 .6660156 .12399292 .6660156 .049987794 .57411196 .049987794 .48516847 .049987794 .4291687 .099990848 .4291687 .102996829 .4291687 .11999512 .4291687 .15499878 .44117738 .15499878 .48217774 .15499878 .5081787 .13699341 .5341797 .101989749 .5341797 .09399414 .5341797 .09199524 .5341797 .08898926 .5331726 .11199951 .59806826 .1659851 .63500979 .22399903 .63500979 .31498719 .63500979 .35798646 .5541382 .35798646 .47216798 .35798646 .39215089 .30799867 .31311036 .25299073 .25108338L.06098938 .036987306C.049987794 .025985718 .049987794 .023986817 .049987794 0H.42099L.44898988 .17404175H.42399598C.4189911 .14402771 .4119873 .1000061 .4019928 .084991458 .394989 .07699585 .32899476 .07699585 .30699159 .07699585H.1269989Z"/>
<path id="font_3_1" d="M.2939911 .64004519C.2939911 .66400149 .2939911 .6660156 .2709961 .6660156 .20899964 .60227969 .12098694 .60227969 .08898926 .60227969V.57128909C.10899353 .57128909 .16799927 .57128909 .21998596 .5972748V.07902527C.21998596 .042999269 .21699524 .0309906 .1269989 .0309906H.09498596V0C.12998963 .0029907227 .21699524 .0029907227 .25698854 .0029907227 .29699708 .0029907227 .38398744 .0029907227 .4189911 0V.0309906H.3869934C.29699708 .0309906 .2939911 .041992189 .2939911 .07902527V.64004519Z"/>
<path id="font_3_4" d="M.2939911 .16503906V.07800293C.2939911 .041992189 .2919922 .0309906 .21798706 .0309906H.19699097V0C.23799134 .0029907227 .2899933 .0029907227 .33198548 .0029907227 .37399293 .0029907227 .4269867 .0029907227 .46798707 0V.0309906H.44699098C.37298585 .0309906 .37098695 .041992189 .37098695 .07800293V.16503906H.47099305V.19602967H.37098695V.65075686C.37098695 .67074587 .37098695 .6767578 .35499574 .6767578 .34599305 .6767578 .34298707 .6767578 .33499146 .66474917L.027999878 .19602967V.16503906H.2939911M.2999878 .19602967H.055999757L.2999878 .5688019V.19602967Z"/>
<path id="font_3_5" d="M.44898988 .20022583C.44898988 .3193512 .36698915 .41944886 .25898744 .41944886 .21099854 .41944886 .16799927 .40345765 .13198853 .36842347V.5637665C.1519928 .5577698 .18499756 .55078127 .21699524 .55078127 .33999635 .55078127 .4099884 .6417694 .4099884 .6547699 .4099884 .6607666 .40699769 .6657715 .3999939 .6657715 .39898683 .6657715 .39698792 .6657715 .3919983 .66278079 .37199403 .6537781 .32299806 .6337738 .2559967 .6337738 .21598816 .6337738 .16999817 .6407776 .12298584 .6617737 .114990238 .66477969 .11299133 .66477969 .11099243 .66477969 .100997928 .66477969 .100997928 .6567688 .100997928 .6407776V.34439088C.100997928 .32637025 .100997928 .31835938 .114990238 .31835938 .12199402 .31835938 .12399292 .32136537 .12799073 .32736207 .13899231 .3433838 .17599488 .39746095 .25698854 .39746095 .30899049 .39746095 .33399964 .35139466 .34199525 .33337403 .35798646 .29632569 .3600006 .25727845 .3600006 .20722962 .3600006 .17222595 .3600006 .11222839 .33599855 .07035828 .31199647 .031463624 .2749939 .0055389406 .22898865 .0055389406 .1559906 .0055389406 .09899902 .058380128 .08198547 .11723328 .084991458 .1162262 .08799744 .115234378 .09899902 .115234378 .13198853 .115234378 .14898682 .14022827 .14898682 .16423035 .14898682 .18823242 .13198853 .21322632 .09899902 .21322632 .084991458 .21322632 .049987794 .20622254 .049987794 .16023255 .049987794 .07434082 .11898804-.022460938 .23098755-.022460938 .34700013-.022460938 .44898988 .073349 .44898988 .20022583Z"/>
<path id="font_3_6" d="M.13198853 .327713V.35173036C.13198853 .6047821 .2559967 .64100649 .30699159 .64100649 .33099366 .64100649 .37298585 .634964 .394989 .6007538 .37998963 .6007538 .33999635 .6007538 .33999635 .5557556 .33999635 .524765 .3639984 .5097656 .38598634 .5097656 .4019928 .5097656 .43199159 .51875308 .43199159 .5577545 .43199159 .6178589 .3880005 .6660156 .30499269 .6660156 .1769867 .6660156 .041992189 .5367584 .041992189 .31570436 .041992189 .048553468 .1579895-.022460938 .25099183-.022460938 .3619995-.022460938 .45700074 .07156372 .45700074 .2036438 .45700074 .33070375 .36799623 .4267578 .25698854 .4267578 .18899536 .4267578 .1519928 .37573243 .13198853 .327713M.25099183 .0055389406C.18798828 .0055389406 .1579895 .06556702 .1519928 .080566409 .13398743 .127594 .13398743 .2076416 .13398743 .22564698 .13398743 .30369569 .1659851 .40374757 .2559967 .40374757 .27198792 .40374757 .31799317 .40374757 .34899903 .34172059 .36698915 .30470277 .36698915 .2536621 .36698915 .20463562 .36698915 .15661621 .36698915 .10658264 .34999085 .0705719 .31999208 .010528564 .27398683 .0055389406 .25099183 .0055389406Z"/>
<path id="font_3_7" d="M.47599793 .609375C.4850006 .6213684 .4850006 .62338259 .4850006 .64437869H.24198914C.11999512 .64437869 .117996219 .65737918 .11399841 .67637637H.08898926L.055999757 .4702301H.08099365C.083999637 .48625184 .09298706 .5493469 .10598755 .56137087 .11299133 .5673828 .19099427 .5673828 .20399475 .5673828H.41099549C.3999939 .5513611 .32099916 .4421997 .29899598 .40914918 .20899964 .27394105 .17599488 .1347351 .17599488 .032577516 .17599488 .022567749 .17599488-.022460938 .22200012-.022460938 .2679901-.022460938 .2679901 .022567749 .2679901 .032577516V.08366394C.2679901 .13873291 .2709961 .19381714 .2789917 .24790955 .2829895 .27093507 .29699708 .35707093 .34098817 .41915895L.47599793 .609375Z"/>
</defs>
<path transform="matrix(1.00003,0,0,-1.00003,71.262699,130.92455)" stroke-width=".3985" stroke-linecap="butt" stroke-miterlimit="10" stroke-linejoin="miter" fill="none" stroke="#00aeef" d="M-69.44937 0H148.82009M-69.44937 9.92133H148.82009M-69.44937 19.84265H148.82009M-69.44937 29.76399H148.82009M-69.44937 39.68532H148.82009M-69.44937 49.60666H148.82009M-69.44937 59.52798H148.82009M-69.44937 69.44934H148.82009M-69.44937 79.37067H148.82009M-69.44937 89.292H148.82009M-69.44937 99.21333H148.82009M-69.44937 109.13467H148.82009M-69.44934 0V109.13472M-59.52798 0V109.13472M-49.60666 0V109.13472M-39.68532 0V109.13472M-29.76399 0V109.13472M-19.84265 0V109.13472M-9.92133 0V109.13472M0 0V109.13472M9.92133 0V109.13472M19.84265 0V109.13472M29.76399 0V109.13472M39.68532 0V109.13472M49.60666 0V109.13472M59.52798 0V109.13472M69.44934 0V109.13472M79.37067 0V109.13472M89.292 0V109.13472M99.21333 0V109.13472M109.13467 0V109.13472M119.056 0V109.13472M128.97733 0V109.13472M138.89868 0V109.13472M148.82 0V109.13472M148.82009 109.13472"/>
<path transform="matrix(1.00003,0,0,-1.00003,71.262699,130.92455)" stroke-width=".79701" stroke-linecap="butt" stroke-miterlimit="10" stroke-linejoin="miter" fill="none" stroke="#000000" d="M-69.44937 0H157.30681"/>
<path transform="matrix(1.00003,0,0,-1.00003,228.57424,130.92455)" d="M1.0361 0C-.25902 .25902-1.55415 .77707-3.1083 1.68365-1.55415 .51805-1.55415-.51805-3.1083-1.68365-1.55415-.77707-.25902-.25902 1.0361 0Z"/>
<path transform="matrix(1.00003,0,0,-1.00003,228.57424,130.92455)" stroke-width=".79701" stroke-linecap="butt" stroke-linejoin="round" fill="none" stroke="#000000" d="M1.0361 0C-.25902 .25902-1.55415 .77707-3.1083 1.68365-1.55415 .51805-1.55415-.51805-3.1083-1.68365-1.55415-.77707-.25902-.25902 1.0361 0Z"/>
<use data-text="x" xlink:href="#font_1_1" transform="matrix(9.962899,0,0,-9.962899,233.72759,133.06961)"/>
<path transform="matrix(1.00003,0,0,-1.00003,71.262699,130.92455)" stroke-width=".79701" stroke-linecap="butt" stroke-miterlimit="10" stroke-linejoin="miter" fill="none" stroke="#000000" d="M0 0V117.62146"/>
<path transform="matrix(0,-1.00003,-1.00003,-0,71.262699,13.299553)" d="M1.0361 0C-.25902 .25902-1.55415 .77707-3.1083 1.68365-1.55415 .51805-1.55415-.51805-3.1083-1.68365-1.55415-.77707-.25902-.25902 1.0361 0Z"/>
<path transform="matrix(0,-1.00003,-1.00003,-0,71.262699,13.299553)" stroke-width=".79701" stroke-linecap="butt" stroke-linejoin="round" fill="none" stroke="#000000" d="M1.0361 0C-.25902 .25902-1.55415 .77707-3.1083 1.68365-1.55415 .51805-1.55415-.51805-3.1083-1.68365-1.55415-.77707-.25902-.25902 1.0361 0Z"/>
<use data-text="y" xlink:href="#font_1_2" transform="matrix(9.962899,0,0,-9.962899,68.64162,6.2088015)"/>
<path transform="matrix(1.00003,0,0,-1.00003,71.262699,130.92455)" stroke-width=".3985" stroke-linecap="butt" stroke-miterlimit="10" stroke-linejoin="miter" fill="none" stroke="#000000" d="M-59.52802 1.98438V-1.98409"/>
<path transform="matrix(1.00003,0,0,-1.00003,71.262699,130.92455)" d="M-66.8894-13.41911H-52.16662V-4.1758806H-66.8894Z" fill="#ffffff"/>
<use data-text="&#x2212;" xlink:href="#font_2_1" transform="matrix(9.962899,0,0,-9.962899,5.3677217,142.5179)"/>
<use data-text="3" xlink:href="#font_3_3" transform="matrix(9.962899,0,0,-9.962899,13.116943,142.5179)"/>
<path transform="matrix(1.00003,0,0,-1.00003,71.262699,130.92455)" stroke-width=".3985" stroke-linecap="butt" stroke-miterlimit="10" stroke-linejoin="miter" fill="none" stroke="#000000" d="M-39.68535 1.98438V-1.98409"/>
<path transform="matrix(1.00003,0,0,-1.00003,71.262699,130.92455)" d="M-47.04674-13.41911H-32.32396V-4.1758806H-47.04674Z" fill="#ffffff"/>
<use data-text="&#x2212;" xlink:href="#font_2_1" transform="matrix(9.962899,0,0,-9.962899,25.211319,142.5179)"/>
<use data-text="2" xlink:href="#font_3_2" transform="matrix(9.962899,0,0,-9.962899,32.96054,142.5179)"/>
<path transform="matrix(1.00003,0,0,-1.00003,71.262699,130.92455)" stroke-width=".3985" stroke-linecap="butt" stroke-miterlimit="10" stroke-linejoin="miter" fill="none" stroke="#000000" d="M-19.84267 1.98438V-1.98409"/>
<path transform="matrix(1.00003,0,0,-1.00003,71.262699,130.92455)" d="M-27.20406-13.41911H-12.481279V-4.1758806H-27.20406Z" fill="#ffffff"/>
<use data-text="&#x2212;" xlink:href="#font_2_1" transform="matrix(9.962899,0,0,-9.962899,45.05391,142.5179)"/>
<use data-text="1" xlink:href="#font_3_1" transform="matrix(9.962899,0,0,-9.962899,52.80313,142.5179)"/>
<path transform="matrix(1.00003,0,0,-1.00003,71.262699,130.92455)" stroke-width=".3985" stroke-linecap="butt" stroke-miterlimit="10" stroke-linejoin="miter" fill="none" stroke="#000000" d="M19.84267 1.98438V-1.98409"/>
<path transform="matrix(1.00003,0,0,-1.00003,71.262699,130.92455)" d="M16.3557-12.58887H23.32964V-4.17589H16.3557Z" fill="#ffffff"/>
<use data-text="1" xlink:href="#font_3_1" transform="matrix(9.962899,0,0,-9.962899,88.61522,142.5179)"/>
<path transform="matrix(1.00003,0,0,-1.00003,71.262699,130.92455)" stroke-width=".3985" stroke-linecap="butt" stroke-miterlimit="10" stroke-linejoin="miter" fill="none" stroke="#000000" d="M39.68535 1.98438V-1.98409"/>
<path transform="matrix(1.00003,0,0,-1.00003,71.262699,130.92455)" d="M36.19838-12.58887H43.172319V-4.17589H36.19838Z" fill="#ffffff"/>
<use data-text="2" xlink:href="#font_3_2" transform="matrix(9.962899,0,0,-9.962899,108.45882,142.5179)"/>
<path transform="matrix(1.00003,0,0,-1.00003,71.262699,130.92455)" stroke-width=".3985" stroke-linecap="butt" stroke-miterlimit="10" stroke-linejoin="miter" fill="none" stroke="#000000" d="M59.52802 1.98438V-1.98409"/>
<path transform="matrix(1.00003,0,0,-1.00003,71.262699,130.92455)" d="M56.04105-12.58887H63.01499V-4.17589H56.04105Z" fill="#ffffff"/>
<use data-text="3" xlink:href="#font_3_3" transform="matrix(9.962899,0,0,-9.962899,128.3014,142.5179)"/>
<path transform="matrix(1.00003,0,0,-1.00003,71.262699,130.92455)" stroke-width=".3985" stroke-linecap="butt" stroke-miterlimit="10" stroke-linejoin="miter" fill="none" stroke="#000000" d="M79.37071 1.98438V-1.98409"/>
<path transform="matrix(1.00003,0,0,-1.00003,71.262699,130.92455)" d="M75.88374-12.58887H82.85768V-4.17589H75.88374Z" fill="#ffffff"/>
<use data-text="4" xlink:href="#font_3_4" transform="matrix(9.962899,0,0,-9.962899,148.145,142.5179)"/>
<path transform="matrix(1.00003,0,0,-1.00003,71.262699,130.92455)" stroke-width=".3985" stroke-linecap="butt" stroke-miterlimit="10" stroke-linejoin="miter" fill="none" stroke="#000000" d="M99.2134 1.98438V-1.98409"/>
<path transform="matrix(1.00003,0,0,-1.00003,71.262699,130.92455)" d="M95.72643-12.58887H102.70037V-4.17589H95.72643Z" fill="#ffffff"/>
<use data-text="5" xlink:href="#font_3_5" transform="matrix(9.962899,0,0,-9.962899,167.9886,142.5179)"/>
<path transform="matrix(1.00003,0,0,-1.00003,71.262699,130.92455)" stroke-width=".3985" stroke-linecap="butt" stroke-miterlimit="10" stroke-linejoin="miter" fill="none" stroke="#000000" d="M119.05606 1.98438V-1.98409"/>
<path transform="matrix(1.00003,0,0,-1.00003,71.262699,130.92455)" d="M115.56909-12.58887H122.54303V-4.17589H115.56909Z" fill="#ffffff"/>
<use data-text="6" xlink:href="#font_3_6" transform="matrix(9.962899,0,0,-9.962899,187.8312,142.5179)"/>
<path transform="matrix(1.00003,0,0,-1.00003,71.262699,130.92455)" stroke-width=".3985" stroke-linecap="butt" stroke-miterlimit="10" stroke-linejoin="miter" fill="none" stroke="#000000" d="M138.89876 1.98438V-1.98409"/>
<path transform="matrix(1.00003,0,0,-1.00003,71.262699,130.92455)" d="M135.41179-12.58887H142.38573V-4.17589H135.41179Z" fill="#ffffff"/>
<use data-text="7" xlink:href="#font_3_7" transform="matrix(9.962899,0,0,-9.962899,207.6748,142.5179)"/>
<path transform="matrix(1.00003,0,0,-1.00003,71.262699,130.92455)" stroke-width=".3985" stroke-linecap="butt" stroke-miterlimit="10" stroke-linejoin="miter" fill="none" stroke="#000000" d="M1.98438 39.68535H-1.98409"/>
<path transform="matrix(1.00003,0,0,-1.00003,71.262699,130.92455)" d="M-11.14983 35.47885H-4.17589V43.89183H-11.14983Z" fill="#ffffff"/>
<use data-text="2" xlink:href="#font_3_2" transform="matrix(9.962899,0,0,-9.962899,61.10839,94.448459)"/>
<path transform="matrix(1.00003,0,0,-1.00003,71.262699,130.92455)" stroke-width=".3985" stroke-linecap="butt" stroke-miterlimit="10" stroke-linejoin="miter" fill="none" stroke="#000000" d="M1.98438 79.37071H-1.98409"/>
<path transform="matrix(1.00003,0,0,-1.00003,71.262699,130.92455)" d="M-11.14983 75.16422H-4.17589V83.5772H-11.14983Z" fill="#ffffff"/>
<use data-text="4" xlink:href="#font_3_4" transform="matrix(9.962899,0,0,-9.962899,61.10839,54.762254)"/>
<path transform="matrix(1.00003,0,0,-1.00003,71.262699,130.92455)" stroke-width="1.19553" stroke-linecap="butt" stroke-miterlimit="10" stroke-linejoin="miter" fill="none" stroke="#ff0000" d="M-68.12497 107.81032C-66.98529 106.67065-66.98529 106.67065-66.0389 105.72426-65.09251 104.77786-63.57483 103.2602-62.62845 102.31381-61.68205 101.36742-60.16437 99.84973-59.21797 98.90334-58.27159 97.95695-56.7539 96.43925-55.80753 95.49287-54.86113 94.5465-53.34344 93.02881-52.39705 92.08241-51.45067 91.13602-49.93298 89.61835-48.9866 88.67197-48.0402 87.72557-46.52252 86.20789-45.57613 85.26149-44.62975 84.31511-43.11206 82.79741-42.16568 81.85103-41.21928 80.90465-39.7016 79.38698-38.75522 78.44057-37.80884 77.49419-36.29114 75.9765-35.34476 75.03012-34.39836 74.08374-32.88068 72.56604-31.93428 71.61964-30.9879 70.67326-29.47023 69.15558-28.52385 68.2092-27.57744 67.26282-26.05975 65.74513-25.11337 64.79874-24.16699 63.85234-22.64929 62.33466-21.70291 61.38828-20.75652 60.4419-19.23883 58.9242-18.29243 57.9778-17.34605 57.03142-15.82838 55.51375-14.882 54.56735-13.93561 53.62097-12.41791 52.10329-11.47153 51.15689-10.52515 50.2105-9.00745 48.69281-8.06107 47.74643-7.11467 46.80005-5.597 45.28235-4.65062 44.33597-3.70422 43.38959-2.18654 41.8719-1.24016 40.9255-.29376 39.97913 1.22389 38.46144 2.17027 37.51505 3.11665 36.56865 4.63434 35.05098 5.58073 34.1046 6.52711 33.1582 8.0448 31.6405 8.99118 30.69412 9.93759 29.74774 11.45528 28.23006 12.40166 27.28366 13.34804 26.33728 14.86574 24.8196 15.81212 23.8732 16.7585 22.9268 18.27618 21.40913 19.22258 20.46275 20.16896 19.51636 21.68665 17.99866 22.63303 17.05228 23.57944 16.1059 25.09712 14.58821 26.0435 13.64182 26.98988 12.69543 28.50757 11.17775 29.45395 10.23137 30.40034 9.28497 31.91803 7.76729 32.86443 6.8209 33.8108 5.87451 35.32849 4.35681 36.27487 3.41043 37.22128 2.46405 38.73895 0 39.68535 0 40.63173 0 42.14941 2.46405 43.0958 3.41043 44.04219 4.35681 45.55988 5.87451 46.50627 6.8209 47.45265 7.76729 48.97034 9.28497 49.91672 10.23137 50.86313 11.17775 52.3808 12.69543 53.32718 13.64182 54.27356 14.58821 55.79126 16.1059 56.73764 17.05228 57.68404 17.99866 59.20172 19.51636 60.14812 20.46275 61.0945 21.40913 62.61217 22.9268 63.55856 23.8732 64.50494 24.8196 66.02264 26.33728 66.96902 27.28366 67.9154 28.23006 69.4331 29.74774 70.37949 30.69412 71.32588 31.6405 72.84357 33.1582 73.78995 34.1046 74.73634 35.05098 76.25401 36.56865 77.20041 37.51505 78.14679 38.46144 79.66449 39.97913 80.61087 40.9255 81.55725 41.8719 83.07494 43.38959 84.02133 44.33597 84.96773 45.28235 86.4854 46.80005 87.43178 47.74643 88.37817 48.69281 89.89586 50.2105 90.84225 51.15689 91.78864 52.10329 93.30634 53.62097 94.25272 54.56735 95.1991 55.51375 96.71677 57.03142 97.66318 57.9778 98.60956 58.9242 100.12724 60.4419 101.07362 61.38828 102.02002 62.33466 103.5377 63.85234 104.4841 64.79874 105.43048 65.74513 106.94818 67.26282 107.89456 68.2092 108.84094 69.15558 110.35861 70.67326 111.30502 71.61964 112.2514 72.56604 113.76909 74.08374 114.71547 75.03012 115.66187 75.9765 117.17955 77.49419 118.12595 78.44057 119.07233 79.38698 120.59001 80.90465 121.53639 81.85103 122.48277 82.79741 124.00046 84.31511 124.94687 85.26149 125.89325 86.20789 127.41093 87.72557 128.35732 88.67197 129.3037 89.61835 130.8214 91.13602 131.76778 92.08241 132.71416 93.02881 134.23186 94.5465 135.17824 95.49287 136.12462 96.43925 137.6423 97.95695 138.5887 98.90334 139.5351 99.84973 141.05278 101.36742 141.99916 102.31381 142.94554 103.2602 144.46324 104.77786 145.40962 105.72426 146.356 106.67065 148.82009 109.13472 147.49568 107.81032"/>
<path transform="matrix(-.7071212,-.7071212,-.7071212,.7071212,3.135704,23.111)" d="M1.27522 0C-.31879 .31879-1.91284 .9564-3.8257 2.07224-1.91284 .6376-1.91284-.6376-3.8257-2.07224-1.91284-.9564-.31879-.31879 1.27522 0Z" fill="#ff0000"/>
<path transform="matrix(-.7071212,-.7071212,-.7071212,.7071212,3.135704,23.111)" stroke-width="1.19553" stroke-linecap="butt" stroke-linejoin="round" fill="none" stroke="#ff0000" d="M1.27522 0C-.31879 .31879-1.91284 .9564-3.8257 2.07224-1.91284 .6376-1.91284-.6376-3.8257-2.07224-1.91284-.9564-.31879-.31879 1.27522 0Z"/>
<path transform="matrix(.7071212,-.7071212,-.7071212,-.7071212,218.76279,23.111)" d="M1.27522 0C-.31879 .31879-1.91284 .9564-3.8257 2.07224-1.91284 .6376-1.91284-.6376-3.8257-2.07224-1.91284-.9564-.31879-.31879 1.27522 0Z" fill="#ff0000"/>
<path transform="matrix(.7071212,-.7071212,-.7071212,-.7071212,218.76279,23.111)" stroke-width="1.19553" stroke-linecap="butt" stroke-linejoin="round" fill="none" stroke="#ff0000" d="M1.27522 0C-.31879 .31879-1.91284 .9564-3.8257 2.07224-1.91284 .6376-1.91284-.6376-3.8257-2.07224-1.91284-.9564-.31879-.31879 1.27522 0Z"/>
</svg>
