<svg xmlns="http://www.w3.org/2000/svg" xmlns:xlink="http://www.w3.org/1999/xlink" version="1.1" width="160" height="188" viewBox="0 0 160 188">
<defs>
<path id="font_1_1" d="M.33399964 .30233766C.33999635 .32835389 .36299134 .42037965 .43299867 .42037965 .43798829 .42037965 .46199037 .42037965 .48298646 .40734864 .45498658 .402359 .43499757 .37734986 .43499757 .35334779 .43499757 .33735658 .44599916 .31835938 .47299195 .31835938 .49499513 .31835938 .5269928 .3363495 .5269928 .37635804 .5269928 .42837525 .46798707 .4423828 .43399049 .4423828 .37599183 .4423828 .34098817 .38935853 .32899476 .36634828 .3039856 .43237306 .25 .4423828 .22099304 .4423828 .116989139 .4423828 .05999756 .3133545 .05999756 .28834535 .05999756 .27833558 .069992069 .27833558 .07199097 .27833558 .07998657 .27833558 .08299255 .28033448 .084991458 .28933717 .11898804 .39535523 .18499756 .42037965 .21899414 .42037965 .23799134 .42037965 .272995 .4113617 .272995 .35334779 .272995 .32235719 .2559967 .25532533 .21899414 .11528015 .20298767 .053268434 .16799927 .011245728 .12399292 .011245728 .117996219 .011245728 .09498596 .011245728 .07398987 .024276734 .09899902 .029266358 .12098694 .05027771 .12098694 .07827759 .12098694 .105270389 .09899902 .11328125 .083999637 .11328125 .053985597 .11328125 .0289917 .08728027 .0289917 .055267335 .0289917 .009246826 .07899475-.0107421879 .12298584-.0107421879 .18899536-.0107421879 .22499085 .059280397 .22799683 .0652771 .23999024 .028274537 .27598573-.0107421879 .33599855-.0107421879 .43899537-.0107421879 .49598695 .118270877 .49598695 .14328003 .49598695 .1532898 .4869995 .1532898 .48399354 .1532898 .47499085 .1532898 .47299195 .14929199 .47099305 .14228821 .43798829 .03527832 .36999513 .011245728 .33799745 .011245728 .29899598 .011245728 .2829895 .043273927 .2829895 .07727051 .2829895 .09927368 .2889862 .121276859 .2999878 .16529846L.33399964 .30233766Z"/>
<path id="font_1_2" d="M.48599244 .38136292C.48999024 .39537049 .48999024 .39736939 .48999024 .40437318 .48999024 .42237855 .47599793 .43138124 .46099855 .43138124 .45098878 .43138124 .43499757 .42536927 .42599488 .41036988 .42399598 .405365 .41600038 .37435914 .4119873 .35635377 .40499879 .33035279 .397995 .30334474 .3919983 .27633668L.34700013 .09628296C.34298707 .08126831 .2999878 .011245728 .23399353 .011245728 .18299866 .011245728 .17199707 .055267335 .17199707 .0922699 .17199707 .1382904 .18899536 .20030213 .22299195 .28833009 .23899842 .3293457 .24299622 .3403473 .24299622 .36035157 .24299622 .405365 .21099854 .4423828 .16099549 .4423828 .06599426 .4423828 .0289917 .29733277 .0289917 .28833009 .0289917 .27833558 .038986207 .27833558 .040985109 .27833558 .050994874 .27833558 .051986696 .28033448 .056991579 .29634095 .083999637 .3903656 .12399292 .42037965 .1579895 .42037965 .1659851 .42037965 .18299866 .42037965 .18299866 .3883667 .18299866 .36335755 .17298889 .3373413 .1659851 .31834413 .12599182 .21231079 .10798645 .1552887 .10798645 .10827637 .10798645 .019256592 .17098999-.0107421879 .22999573-.0107421879 .2689972-.0107421879 .30299378 .0062561037 .33099366 .03425598 .31799317-.017745972 .30599977-.06674194 .2659912-.11973572 .23999024-.15385437 .20199585-.18309021 .1559906-.18309021 .14199829-.18309021 .09700012-.18005371 .07998657-.14074707 .09599304-.14074707 .10899353-.14074707 .12298584-.1287384 .1329956-.11973572 .14299011-.10673523 .14299011-.08773804 .14299011-.056747438 .115997318-.052734376 .10598755-.052734376 .08299255-.052734376 .049987794-.068740848 .049987794-.11773682 .049987794-.16796875 .09399414-.20507813 .1559906-.20507813 .25898744-.20507813 .3619995-.11373901 .3899994-.00074768069L.48599244 .38136292Z"/>
<path id="font_2_2" d="M.2939911 .64004519C.2939911 .66400149 .2939911 .6660156 .2709961 .6660156 .20899964 .60227969 .12098694 .60227969 .08898926 .60227969V.57128909C.10899353 .57128909 .16799927 .57128909 .21998596 .5972748V.07902527C.21998596 .042999269 .21699524 .0309906 .1269989 .0309906H.09498596V0C.12998963 .0029907227 .21699524 .0029907227 .25698854 .0029907227 .29699708 .0029907227 .38398744 .0029907227 .4189911 0V.0309906H.3869934C.29699708 .0309906 .2939911 .041992189 .2939911 .07902527V.64004519Z"/>
<path id="font_2_1" d="M.45999146 .31976319C.45999146 .39982606 .45498658 .47988893 .41999818 .5539398 .37399293 .65000918 .2919922 .6660156 .25 .6660156 .18998719 .6660156 .116989139 .64001467 .07598877 .54693606 .04399109 .47789 .038986207 .39982606 .038986207 .31976319 .038986207 .24472046 .042999269 .15464783 .083999637 .07859802 .1269989-.0024719239 .19999695-.022460938 .24899292-.022460938 .30299378-.022460938 .3789978-.0014648438 .4229889 .09359741 .45498658 .16265869 .45999146 .2407074 .45999146 .31976319M.24899292-.00047302247C.20999146-.00047302247 .15098572 .024551392 .1329956 .12062073 .12199402 .18066406 .12199402 .2727356 .12199402 .3317871 .12199402 .39582826 .12199402 .46188355 .12998963 .5159149 .14898682 .63500979 .22399903 .64401248 .24899292 .64401248 .28199769 .64401248 .34799195 .6259918 .36698915 .52693179 .3769989 .47088624 .3769989 .39482118 .3769989 .3317871 .3769989 .25672914 .3769989 .18867493 .3659973 .12461853 .35099793 .029556275 .2939911-.00047302247 .24899292-.00047302247Z"/>
<path id="font_2_3" d="M.1269989 .07699585 .23298645 .18003845C.3889923 .31811524 .44898988 .3721466 .44898988 .47216798 .44898988 .5860901 .35899354 .6660156 .23699951 .6660156 .12399292 .6660156 .049987794 .57411196 .049987794 .48516847 .049987794 .4291687 .099990848 .4291687 .102996829 .4291687 .11999512 .4291687 .15499878 .44117738 .15499878 .48217774 .15499878 .5081787 .13699341 .5341797 .101989749 .5341797 .09399414 .5341797 .09199524 .5341797 .08898926 .5331726 .11199951 .59806826 .1659851 .63500979 .22399903 .63500979 .31498719 .63500979 .35798646 .5541382 .35798646 .47216798 .35798646 .39215089 .30799867 .31311036 .25299073 .25108338L.06098938 .036987306C.049987794 .025985718 .049987794 .023986817 .049987794 0H.42099L.44898988 .17404175H.42399598C.4189911 .14402771 .4119873 .1000061 .4019928 .084991458 .394989 .07699585 .32899476 .07699585 .30699159 .07699585H.1269989Z"/>
<path id="font_3_1" d="M.6589966 .23046875C.6759949 .23046875 .69400027 .23046875 .69400027 .25045777 .69400027 .27046205 .6759949 .27046205 .6589966 .27046205H.117996219C.100997928 .27046205 .08299255 .27046205 .08299255 .25045777 .08299255 .23046875 .100997928 .23046875 .117996219 .23046875H.6589966Z"/>
<path id="font_2_4" d="M.2899933 .35191346C.37199403 .37893678 .42999269 .4490509 .42999269 .52809146 .42999269 .6100464 .34199525 .6660156 .24598694 .6660156 .14498902 .6660156 .068984989 .60606387 .068984989 .53009036 .068984989 .49710084 .09098816 .47808839 .11999512 .47808839 .15098572 .47808839 .17098999 .50009158 .17098999 .5290985 .17098999 .57910159 .12399292 .57910159 .10899353 .57910159 .13999939 .62802127 .20599365 .64100649 .24198914 .64100649 .2829895 .64100649 .33799745 .6190338 .33799745 .5290985 .33799745 .51708987 .33599855 .45906068 .30999757 .4149933 .27999879 .36691285 .24598694 .36390687 .22099304 .36291505 .21299744 .36190797 .18899536 .35990907 .18199158 .35990907 .17399597 .35890199 .16699219 .35791017 .16699219 .3479004 .16699219 .33691407 .17399597 .33691407 .19099427 .33691407H.23498535C.31698609 .33691407 .35398866 .2686615 .35398866 .17037964 .35398866 .034469606 .2849884 .0055389406 .24099732 .0055389406 .19799805 .0055389406 .12298584 .022491456 .08799744 .08137512 .12298584 .07637024 .1539917 .09837341 .1539917 .1363678 .1539917 .17237854 .1269989 .19238281 .09799194 .19238281 .07398987 .19238281 .041992189 .17837525 .041992189 .1343689 .041992189 .043441774 .1349945-.022460938 .24398804-.022460938 .3659973-.022460938 .45700074 .06838989 .45700074 .17037964 .45700074 .252594 .3939972 .33088685 .2899933 .35191346Z"/>
<path id="font_2_5" d="M.2939911 .16503906V.07800293C.2939911 .041992189 .2919922 .0309906 .21798706 .0309906H.19699097V0C.23799134 .0029907227 .2899933 .0029907227 .33198548 .0029907227 .37399293 .0029907227 .4269867 .0029907227 .46798707 0V.0309906H.44699098C.37298585 .0309906 .37098695 .041992189 .37098695 .07800293V.16503906H.47099305V.19602967H.37098695V.65075686C.37098695 .67074587 .37098695 .6767578 .35499574 .6767578 .34599305 .6767578 .34298707 .6767578 .33499146 .66474917L.027999878 .19602967V.16503906H.2939911M.2999878 .19602967H.055999757L.2999878 .5688019V.19602967Z"/>
</defs>
<path transform="matrix(1,0,0,-1.00006,74.608,98.617137)" stroke-width=".3985" stroke-linecap="butt" stroke-miterlimit="10" stroke-linejoin="miter" fill="none" stroke="#00aeef" d="M-68.03302-85.04561H68.03302M-68.03302-70.87134H68.03302M-68.03302-56.69707H68.03302M-68.03302-42.5228H68.03302M-68.03302-28.34853H68.03302M-68.03302-14.17426H68.03302M-68.03302 0H68.03302M-68.03302 14.17426H68.03302M-68.03302 28.34853H68.03302M-68.03302 42.5228H68.03302M-68.03302 56.69707H68.03302M-68.03302 70.87134H68.03302M-68.03302 85.0446H68.03302M-68.03302-85.04561V85.04561M-51.02477-85.04561V85.04561M-34.0165-85.04561V85.04561M-17.00824-85.04561V85.04561M0-85.04561V85.04561M17.00824-85.04561V85.04561M34.0165-85.04561V85.04561M51.02477-85.04561V85.04561M68.02705-85.04561V85.04561M68.03302 85.04561"/>
<path transform="matrix(1,0,0,-1.00006,74.608,98.617137)" stroke-width=".79701" stroke-linecap="butt" stroke-miterlimit="10" stroke-linejoin="miter" fill="none" stroke="#000000" d="M-68.03302 0H73.40161"/>
<path transform="matrix(1,0,0,-1.00006,148.00962,98.617137)" d="M1.0361 0C-.25902 .25902-1.55415 .77707-3.1083 1.68365-1.55415 .51805-1.55415-.51805-3.1083-1.68365-1.55415-.77707-.25902-.25902 1.0361 0Z"/>
<path transform="matrix(1,0,0,-1.00006,148.00962,98.617137)" stroke-width=".79701" stroke-linecap="butt" stroke-linejoin="round" fill="none" stroke="#000000" d="M1.0361 0C-.25902 .25902-1.55415 .77707-3.1083 1.68365-1.55415 .51805-1.55415-.51805-3.1083-1.68365-1.55415-.77707-.25902-.25902 1.0361 0Z"/>
<use data-text="x" xlink:href="#font_1_1" transform="matrix(9.9626,0,0,-9.963197,153.163,100.76226)"/>
<path transform="matrix(1,0,0,-1.00006,74.608,98.617137)" stroke-width=".79701" stroke-linecap="butt" stroke-miterlimit="10" stroke-linejoin="miter" fill="none" stroke="#000000" d="M0-85.04561V85.31194"/>
<path transform="matrix(0,-1.00006,-1,-0,74.608,13.300079)" d="M1.0361 0C-.25902 .25902-1.55415 .77707-3.1083 1.68365-1.55415 .51805-1.55415-.51805-3.1083-1.68365-1.55415-.77707-.25902-.25902 1.0361 0Z"/>
<path transform="matrix(0,-1.00006,-1,-0,74.608,13.300079)" stroke-width=".79701" stroke-linecap="butt" stroke-linejoin="round" fill="none" stroke="#000000" d="M1.0361 0C-.25902 .25902-1.55415 .77707-3.1083 1.68365-1.55415 .51805-1.55415-.51805-3.1083-1.68365-1.55415-.77707-.25902-.25902 1.0361 0Z"/>
<use data-text="y" xlink:href="#font_1_2" transform="matrix(9.9626,0,0,-9.963197,71.987,6.2085955)"/>
<path transform="matrix(1,0,0,-1.00006,74.608,98.617137)" stroke-width=".3985" stroke-linecap="butt" stroke-miterlimit="10" stroke-linejoin="miter" fill="none" stroke="#000000" d="M1.70091 28.34853H-1.70065"/>
<path transform="matrix(1,0,0,-1.00006,74.608,98.617137)" d="M-15.84781 24.14203H-3.8924695V32.55501H-15.84781Z" fill="#ffffff"/>
<use data-text="1" xlink:href="#font_2_2" transform="matrix(9.9626,0,0,-9.963197,59.756006,73.47763)"/>
<use data-text="0" xlink:href="#font_2_1" transform="matrix(9.9626,0,0,-9.963197,64.7373,73.47763)"/>
<path transform="matrix(1,0,0,-1.00006,74.608,98.617137)" stroke-width=".3985" stroke-linecap="butt" stroke-miterlimit="10" stroke-linejoin="miter" fill="none" stroke="#000000" d="M1.70091 56.69707H-1.70065"/>
<path transform="matrix(1,0,0,-1.00006,74.608,98.617137)" d="M-15.84781 52.49057H-3.8924695V60.90355H-15.84781Z" fill="#ffffff"/>
<use data-text="2" xlink:href="#font_2_3" transform="matrix(9.9626,0,0,-9.963197,59.756006,45.126928)"/>
<use data-text="0" xlink:href="#font_2_1" transform="matrix(9.9626,0,0,-9.963197,64.7373,45.126928)"/>
<path transform="matrix(1,0,0,-1.00006,74.608,98.617137)" stroke-width=".3985" stroke-linecap="butt" stroke-miterlimit="10" stroke-linejoin="miter" fill="none" stroke="#000000" d="M1.70091-28.34853H-1.70065"/>
<path transform="matrix(1,0,0,-1.00006,74.608,98.617137)" d="M-23.59665-32.97014H-3.8924485V-23.72691H-23.59665Z" fill="#ffffff"/>
<use data-text="&#x2212;" xlink:href="#font_3_1" transform="matrix(9.9626,0,0,-9.963197,52.008005,129.763)"/>
<use data-text="1" xlink:href="#font_2_2" transform="matrix(9.9626,0,0,-9.963197,59.756006,129.763)"/>
<use data-text="0" xlink:href="#font_2_1" transform="matrix(9.9626,0,0,-9.963197,64.7373,129.763)"/>
<path transform="matrix(1,0,0,-1.00006,74.608,98.617137)" stroke-width=".3985" stroke-linecap="butt" stroke-miterlimit="10" stroke-linejoin="miter" fill="none" stroke="#000000" d="M1.70091-56.69707H-1.70065"/>
<path transform="matrix(1,0,0,-1.00006,74.608,98.617137)" d="M-23.59665-61.31868H-3.8924485V-52.07545H-23.59665Z" fill="#ffffff"/>
<use data-text="&#x2212;" xlink:href="#font_3_1" transform="matrix(9.9626,0,0,-9.963197,52.008005,158.1127)"/>
<use data-text="2" xlink:href="#font_2_3" transform="matrix(9.9626,0,0,-9.963197,59.756006,158.1127)"/>
<use data-text="0" xlink:href="#font_2_1" transform="matrix(9.9626,0,0,-9.963197,64.7373,158.1127)"/>
<path transform="matrix(1,0,0,-1.00006,74.608,98.617137)" stroke-width=".3985" stroke-linecap="butt" stroke-miterlimit="10" stroke-linejoin="miter" fill="none" stroke="#000000" d="M1.70091 85.04561H-1.70065"/>
<path transform="matrix(1,0,0,-1.00006,74.608,98.617137)" d="M-15.84781 80.83911H-3.8924695V89.25209H-15.84781Z" fill="#ffffff"/>
<use data-text="3" xlink:href="#font_2_4" transform="matrix(9.9626,0,0,-9.963197,59.756006,16.77723)"/>
<use data-text="0" xlink:href="#font_2_1" transform="matrix(9.9626,0,0,-9.963197,64.7373,16.77723)"/>
<path transform="matrix(1,0,0,-1.00006,74.608,98.617137)" stroke-width=".3985" stroke-linecap="butt" stroke-miterlimit="10" stroke-linejoin="miter" fill="none" stroke="#000000" d="M1.70091-85.04561H-1.70065"/>
<path transform="matrix(1,0,0,-1.00006,74.608,98.617137)" d="M-23.59665-89.66722H-3.8924485V-80.42399H-23.59665Z" fill="#ffffff"/>
<use data-text="&#x2212;" xlink:href="#font_3_1" transform="matrix(9.9626,0,0,-9.963197,52.008005,186.46341)"/>
<use data-text="3" xlink:href="#font_2_4" transform="matrix(9.9626,0,0,-9.963197,59.756006,186.46341)"/>
<use data-text="0" xlink:href="#font_2_1" transform="matrix(9.9626,0,0,-9.963197,64.7373,186.46341)"/>
<path transform="matrix(1,0,0,-1.00006,74.608,98.617137)" stroke-width=".3985" stroke-linecap="butt" stroke-miterlimit="10" stroke-linejoin="miter" fill="none" stroke="#000000" d="M-34.0165 .2835V-.28345"/>
<path transform="matrix(1,0,0,-1.00006,74.608,98.617137)" d="M-41.3779-11.71849H-26.655119V-2.4752599H-41.3779Z" fill="#ffffff"/>
<use data-text="&#x2212;" xlink:href="#font_3_1" transform="matrix(9.9626,0,0,-9.963197,34.225999,108.50973)"/>
<use data-text="2" xlink:href="#font_2_3" transform="matrix(9.9626,0,0,-9.963197,41.974,108.50973)"/>
<path transform="matrix(1,0,0,-1.00006,74.608,98.617137)" stroke-width=".3985" stroke-linecap="butt" stroke-miterlimit="10" stroke-linejoin="miter" fill="none" stroke="#000000" d="M34.0165 .2835V-.28345"/>
<path transform="matrix(1,0,0,-1.00006,74.608,98.617137)" d="M30.52953-10.88824H37.50347V-2.4752599H30.52953Z" fill="#ffffff"/>
<use data-text="2" xlink:href="#font_2_3" transform="matrix(9.9626,0,0,-9.963197,106.134,108.50973)"/>
<path transform="matrix(1,0,0,-1.00006,74.608,98.617137)" stroke-width=".3985" stroke-linecap="butt" stroke-miterlimit="10" stroke-linejoin="miter" fill="none" stroke="#000000" d="M-68.03302 .2835V-.28345"/>
<path transform="matrix(1,0,0,-1.00006,74.608,98.617137)" d="M-75.39442-11.71849H-60.67164V-2.4752599H-75.39442Z" fill="#ffffff"/>
<use data-text="&#x2212;" xlink:href="#font_3_1" transform="matrix(9.9626,0,0,-9.963197,.20999146,108.50973)"/>
<use data-text="4" xlink:href="#font_2_5" transform="matrix(9.9626,0,0,-9.963197,7.9579927,108.50973)"/>
<path transform="matrix(1,0,0,-1.00006,74.608,98.617137)" stroke-width=".3985" stroke-linecap="butt" stroke-miterlimit="10" stroke-linejoin="miter" fill="none" stroke="#000000" d="M68.03302 .2835V-.28345"/>
<path transform="matrix(1,0,0,-1.00006,74.608,98.617137)" d="M64.54605-10.88824H71.51999V-2.4752599H64.54605Z" fill="#ffffff"/>
<use data-text="4" xlink:href="#font_2_5" transform="matrix(9.9626,0,0,-9.963197,140.15,108.50973)"/>
<path transform="matrix(1,0,0,-1.00006,74.608,98.617137)" stroke-width="1.19553" stroke-linecap="butt" stroke-miterlimit="10" stroke-linejoin="miter" fill="none" stroke="#ff0000" d="M-52.45483 83.18102C-51.64902 79.36696-51.64902 79.36696-51.19084 77.2909-50.73267 75.21481-49.99792 71.99501-49.53976 70.05067-49.08159 68.10632-48.34683 65.09439-47.88866 63.27745-47.43048 61.46051-46.69572 58.6493-46.23755 56.95543-45.77939 55.26157-45.04463 52.64432-44.58646 51.06923-44.12828 49.49414-43.39352 47.06386-42.93535 45.60323-42.47717 44.14256-41.74242 41.89244-41.28424 40.5419-40.82608 39.19138-40.09132 37.11429-39.63315 35.86957-39.17497 34.62483-38.44022 32.714-37.98204 31.57077-37.52386 30.42755-36.78911 28.67604-36.33095 27.63-35.87277 26.58394-35.13802 24.98473-34.67986 24.03154-34.22168 23.07832-33.48691 21.62466-33.02873 20.76-32.57057 19.89534-31.83582 18.58008-31.37764 17.79962-30.91948 17.01917-30.18472 15.83556-29.72655 15.13503-29.26837 14.43448-28.5336 13.37556-28.07542 12.7506-27.61728 12.12564-26.88252 11.18439-26.42435 10.63069-25.96617 10.07698-25.23141 9.2466-24.77324 8.75984-24.31506 8.27309-23.5803 7.54662-23.12215 7.1225-22.66397 6.69838-21.92921 6.0689-21.47104 5.7031-21.01286 5.33727-20.2781 4.7978-19.81993 4.48598-19.36177 4.17415-18.62701 3.7178-18.16884 3.45566-17.71066 3.1935-16.9759 2.81332-16.51773 2.59654-16.05956 2.37975-15.3248 2.06891-14.86662 1.89314-14.40846 1.71739-13.6737 1.46886-13.21553 1.32982-12.75735 1.19078-12.02261 .99765-11.56444 .89102-11.10626 .7844-10.37149 .63983-9.91333 .56128-9.45515 .48273-8.72041 .37971-8.26224 .32494-7.80406 .27014-7.0693 .20177-6.61113 .16644-6.15297 .1311-5.41821 .09047-4.96004 .07027-4.50186 .05006-3.7671 .03023-3.30893 .02083-2.85075 .01144-2.116 .00546-1.65782 .00258-1.19966-.00027-.4649 .00069-.00673 0 .45142-.00069 1.18616 .00029 1.64433-.00253 2.10251-.00539 2.83727-.01126 3.29543-.02057 3.7536-.02989 4.48836-.0496 4.94653-.0697 5.40471-.08981 6.13947-.13026 6.59764-.16544 7.0558-.20062 7.79056-.26872 8.24873-.32332 8.70691-.37793 9.44167-.48065 9.89984-.55899 10.35802-.63731 11.09277-.78157 11.55095-.88795 12.00911-.99434 12.74387-1.187 13.20204-1.32576 13.66022-1.46451 14.39497-1.71255 14.85315-1.888 15.31133-2.06343 16.04607-2.37373 16.50423-2.59018 16.9624-2.80663 17.69717-3.18619 18.15535-3.44795 18.61353-3.70972 19.34827-4.16537 19.80644-4.47676 20.2646-4.78816 20.99937-5.32692 21.45753-5.69226 21.91571-6.05763 22.65047-6.68637 23.10864-7.11 23.56682-7.53363 24.30157-8.25935 24.75975-8.74557 25.21791-9.2318 25.95267-10.06123 26.41084-10.61438 26.86902-11.16751 27.60378-12.1078 28.06195-12.73216 28.52013-13.35654 29.25488-14.41447 29.71304-15.1144 30.17122-15.8143 30.90598-16.99687 31.36414-17.77666 31.82231-18.55644 32.55708-19.8706 33.01526-20.73456 33.47342-21.59854 34.20819-23.05104 34.66634-24.00351 35.12451-24.95595 35.85928-26.55391 36.31746-27.5992 36.77563-28.64447 37.51039-30.39474 37.96857-31.53717 38.42671-32.6796 39.16147-34.5891 39.61964-35.83298 40.07782-37.07684 40.81259-39.15248 41.27077-40.5021 41.72893-41.85176 42.46368-44.10052 42.92184-45.56026 43.38002-47.02 44.11478-49.44879 44.57295-51.02293 45.03113-52.59709 45.76588-55.21277 46.22406-56.90565 46.68222-58.59851 47.41699-61.40808 47.87515-63.22398 48.33333-65.03989 49.06808-68.05017 49.52626-69.99344 49.98444-71.93672 50.7192-75.1548 51.17737-77.22977 51.63553-79.30475 52.82846-84.94841 52.4412-83.11597"/>
<path transform="matrix(-.2067,-.9784387,-.97838,.2067124,22.153172,15.431122)" d="M1.27522 0C-.31879 .31879-1.91284 .9564-3.8257 2.07224-1.91284 .6376-1.91284-.6376-3.8257-2.07224-1.91284-.9564-.31879-.31879 1.27522 0Z" fill="#ff0000"/>
<path transform="matrix(-.2067,-.9784387,-.97838,.2067124,22.153172,15.431122)" stroke-width="1.19553" stroke-linecap="butt" stroke-linejoin="round" fill="none" stroke="#ff0000" d="M1.27522 0C-.31879 .31879-1.91284 .9564-3.8257 2.07224-1.91284 .6376-1.91284-.6376-3.8257-2.07224-1.91284-.9564-.31879-.31879 1.27522 0Z"/>
<path transform="matrix(.20677,.97840866,.97835,-.2067824,127.04918,181.73809)" d="M1.27522 0C-.31879 .31879-1.91284 .9564-3.8257 2.07224-1.91284 .6376-1.91284-.6376-3.8257-2.07224-1.91284-.9564-.31879-.31879 1.27522 0Z" fill="#ff0000"/>
<path transform="matrix(.20677,.97840866,.97835,-.2067824,127.04918,181.73809)" stroke-width="1.19553" stroke-linecap="butt" stroke-linejoin="round" fill="none" stroke="#ff0000" d="M1.27522 0C-.31879 .31879-1.91284 .9564-3.8257 2.07224-1.91284 .6376-1.91284-.6376-3.8257-2.07224-1.91284-.9564-.31879-.31879 1.27522 0Z"/>
<path transform="matrix(1,0,0,-1.00006,74.608,98.617137)" d="M-32.31558 22.67882C-32.31558 23.61821-33.07712 24.37975-34.0165 24.37975-34.95589 24.37975-35.71742 23.61821-35.71742 22.67882-35.71742 21.73943-34.95589 20.9779-34.0165 20.9779-33.07712 20.9779-32.31558 21.73943-32.31558 22.67882ZM-34.0165 22.67882" fill="#ff0000"/>
<path transform="matrix(1,0,0,-1.00006,74.608,98.617137)" stroke-width=".3985" stroke-linecap="butt" stroke-miterlimit="10" stroke-linejoin="miter" fill="none" stroke="#ff0000" d="M-32.31558 22.67882C-32.31558 23.61821-33.07712 24.37975-34.0165 24.37975-34.95589 24.37975-35.71742 23.61821-35.71742 22.67882-35.71742 21.73943-34.95589 20.9779-34.0165 20.9779-33.07712 20.9779-32.31558 21.73943-32.31558 22.67882ZM-34.0165 22.67882"/>
<path transform="matrix(1,0,0,-1.00006,74.608,98.617137)" d="M35.71742-22.67882C35.71742-21.73943 34.95589-20.9779 34.0165-20.9779 33.07712-20.9779 32.31558-21.73943 32.31558-22.67882 32.31558-23.61821 33.07712-24.37975 34.0165-24.37975 34.95589-24.37975 35.71742-23.61821 35.71742-22.67882ZM34.0165-22.67882" fill="#ff0000"/>
<path transform="matrix(1,0,0,-1.00006,74.608,98.617137)" stroke-width=".3985" stroke-linecap="butt" stroke-miterlimit="10" stroke-linejoin="miter" fill="none" stroke="#ff0000" d="M35.71742-22.67882C35.71742-21.73943 34.95589-20.9779 34.0165-20.9779 33.07712-20.9779 32.31558-21.73943 32.31558-22.67882 32.31558-23.61821 33.07712-24.37975 34.0165-24.37975 34.95589-24.37975 35.71742-23.61821 35.71742-22.67882ZM34.0165-22.67882"/>
<path transform="matrix(1,0,0,-1.00006,74.608,98.617137)" d="M-15.30733 2.83484C-15.30733 3.77423-16.06885 4.53577-17.00824 4.53577-17.94763 4.53577-18.70915 3.77423-18.70915 2.83484-18.70915 1.89545-17.94763 1.13393-17.00824 1.13393-16.06885 1.13393-15.30733 1.89545-15.30733 2.83484ZM-17.00824 2.83484" fill="#ff0000"/>
<path transform="matrix(1,0,0,-1.00006,74.608,98.617137)" stroke-width=".3985" stroke-linecap="butt" stroke-miterlimit="10" stroke-linejoin="miter" fill="none" stroke="#ff0000" d="M-15.30733 2.83484C-15.30733 3.77423-16.06885 4.53577-17.00824 4.53577-17.94763 4.53577-18.70915 3.77423-18.70915 2.83484-18.70915 1.89545-17.94763 1.13393-17.00824 1.13393-16.06885 1.13393-15.30733 1.89545-15.30733 2.83484ZM-17.00824 2.83484"/>
<path transform="matrix(1,0,0,-1.00006,74.608,98.617137)" d="M1.70091 0C1.70091 .93938 .93938 1.70091 0 1.70091-.93938 1.70091-1.70091 .93938-1.70091 0-1.70091-.93938-.93938-1.70091 0-1.70091 .93938-1.70091 1.70091-.93938 1.70091 0ZM0 0" fill="#ff0000"/>
<path transform="matrix(1,0,0,-1.00006,74.608,98.617137)" stroke-width=".3985" stroke-linecap="butt" stroke-miterlimit="10" stroke-linejoin="miter" fill="none" stroke="#ff0000" d="M1.70091 0C1.70091 .93938 .93938 1.70091 0 1.70091-.93938 1.70091-1.70091 .93938-1.70091 0-1.70091-.93938-.93938-1.70091 0-1.70091 .93938-1.70091 1.70091-.93938 1.70091 0ZM0 0"/>
<path transform="matrix(1,0,0,-1.00006,74.608,98.617137)" d="M18.70915-2.83484C18.70915-1.89545 17.94763-1.13393 17.00824-1.13393 16.06885-1.13393 15.30733-1.89545 15.30733-2.83484 15.30733-3.77423 16.06885-4.53577 17.00824-4.53577 17.94763-4.53577 18.70915-3.77423 18.70915-2.83484ZM17.00824-2.83484" fill="#ff0000"/>
<path transform="matrix(1,0,0,-1.00006,74.608,98.617137)" stroke-width=".3985" stroke-linecap="butt" stroke-miterlimit="10" stroke-linejoin="miter" fill="none" stroke="#ff0000" d="M18.70915-2.83484C18.70915-1.89545 17.94763-1.13393 17.00824-1.13393 16.06885-1.13393 15.30733-1.89545 15.30733-2.83484 15.30733-3.77423 16.06885-4.53577 17.00824-4.53577 17.94763-4.53577 18.70915-3.77423 18.70915-2.83484ZM17.00824-2.83484"/>
<path transform="matrix(1,0,0,-1.00006,74.608,98.617137)" d="M52.72568-76.54105C52.72568-75.60165 51.96416-74.84012 51.02477-74.84012 50.08537-74.84012 49.32385-75.60165 49.32385-76.54105 49.32385-77.48044 50.08537-78.24196 51.02477-78.24196 51.96416-78.24196 52.72568-77.48044 52.72568-76.54105ZM51.02477-76.54105" fill="#ff0000"/>
<path transform="matrix(1,0,0,-1.00006,74.608,98.617137)" stroke-width=".3985" stroke-linecap="butt" stroke-miterlimit="10" stroke-linejoin="miter" fill="none" stroke="#ff0000" d="M52.72568-76.54105C52.72568-75.60165 51.96416-74.84012 51.02477-74.84012 50.08537-74.84012 49.32385-75.60165 49.32385-76.54105 49.32385-77.48044 50.08537-78.24196 51.02477-78.24196 51.96416-78.24196 52.72568-77.48044 52.72568-76.54105ZM51.02477-76.54105"/>
</svg>
