<svg xmlns="http://www.w3.org/2000/svg" xmlns:xlink="http://www.w3.org/1999/xlink" version="1.1" width="133" height="173" viewBox="0 0 133 173">
<defs>
<path id="font_1_2" d="M.04499817-.122177127C.036987306-.15631104 .034988405-.16334534-.009002686-.16334534-.021011353-.16334534-.03201294-.16334534-.03201294-.18234253-.03201294-.19033814-.027008057-.19433594-.019012452-.19433594 .0079956059-.19433594 .036987306-.19134522 .06498718-.19134522 .09799194-.19134522 .13198853-.19433594 .1639862-.19433594 .16899109-.19433594 .18199158-.19433594 .18199158-.17434693 .18199158-.16334534 .17199707-.16334534 .1579895-.16334534 .10798645-.16334534 .10798645-.15631104 .10798645-.14727783 .10798645-.13523865 .1499939 .028259278 .15699768 .053268434 .16999817 .024261475 .19799805-.0107421879 .24899292-.0107421879 .36499024-.0107421879 .48999024 .13528443 .48999024 .28233338 .48999024 .37635804 .43299867 .4423828 .35699464 .4423828 .30699159 .4423828 .25898744 .40637208 .22599793 .36735536 .21598816 .42137147 .17298889 .4423828 .13598633 .4423828 .08999634 .4423828 .070999149 .4033661 .06199646 .38536073 .04399109 .35134889 .0309906 .29133607 .0309906 .28833009 .0309906 .27833558 .040985109 .27833558 .042999269 .27833558 .052993776 .27833558 .053985597 .2793274 .05999756 .30133058 .07699585 .37236024 .09700012 .42037965 .1329956 .42037965 .1499939 .42037965 .1639862 .41236878 .1639862 .37435914 .1639862 .35134889 .16099549 .3403473 .15699768 .323349L.04499817-.122177127M.22099304 .3123474C.22799683 .33935548 .25498963 .36735536 .272995 .38235475 .30799867 .41337586 .33699037 .42037965 .35398866 .42037965 .3939972 .42037965 .41799928 .38536073 .41799928 .32633973 .41799928 .26733399 .3849945 .15229798 .36698915 .11428833 .33299256 .044265748 .2849884 .011245728 .24798584 .011245728 .18199158 .011245728 .16899109 .0942688 .16899109 .10028076 .16899109 .10227966 .16899109 .104278568 .17199707 .11628723L.22099304 .3123474Z"/>
<path id="font_1_1" d="M.08799744 .059265138C.084991458 .044265748 .07899475 .021255494 .07899475 .01625061 .07899475-.0017547608 .09298706-.0107421879 .10798645-.0107421879 .11999512-.0107421879 .13798523-.002746582 .14498902 .01725769 .1459961 .019256592 .1579895 .06626892 .1639862 .091278079L.18598938 .18130493C.19198609 .2033081 .19799805 .22531128 .20298767 .24832154 .20698548 .26531983 .21499634 .29434205 .21598816 .29833985 .23098755 .3293457 .28399659 .42037965 .3789978 .42037965 .42399598 .42037965 .43299867 .38336183 .43299867 .35035707 .43299867 .3253479 .42599488 .29733277 .41799928 .26733399L.3899994 .1512909 .36999513 .07527161C.3659973 .055267335 .35699464 .021255494 .35699464 .01625061 .35699464-.0017547608 .37098695-.0107421879 .38598634-.0107421879 .4169922-.0107421879 .4229889 .014251709 .43099977 .04626465 .44499208 .10227966 .48199464 .24832154 .4909973 .28733827 .49398805 .30033876 .5469971 .42037965 .6559906 .42037965 .69898989 .42037965 .70999148 .3863678 .70999148 .35035707 .70999148 .29333497 .66799929 .17930603 .647995 .12628174 .6389923 .10227966 .6349945 .091278079 .6349945 .0712738 .6349945 .024261475 .66999819-.0107421879 .71699526-.0107421879 .8109894-.0107421879 .84799197 .13528443 .84799197 .14329529 .84799197 .1532898 .83898928 .1532898 .83599856 .1532898 .82598879 .1532898 .82598879 .15029907 .82099917 .13528443 .80599978 .08227539 .7739868 .011245728 .71899417 .011245728 .70199587 .011245728 .69499209 .021255494 .69499209 .044265748 .69499209 .0692749 .70399478 .09327698 .71299746 .11528015 .7319946 .16729737 .7739868 .27833558 .7739868 .3353424 .7739868 .4003601 .73399356 .4423828 .6589966 .4423828 .58399966 .4423828 .5329895 .3983612 .49598695 .34535218 .49499513 .35835267 .49198915 .3923645 .46398927 .41636659 .43899537 .43737794 .40699769 .4423828 .38198854 .4423828 .2919922 .4423828 .24299622 .37835694 .22599793 .35534669 .22099304 .41236878 .1789856 .4423828 .13398743 .4423828 .08799744 .4423828 .068984989 .4033661 .05999756 .38536073 .041992189 .35035707 .0289917 .29133607 .0289917 .28833009 .0289917 .27833558 .038986207 .27833558 .040985109 .27833558 .050994874 .27833558 .051986696 .2793274 .057998659 .30133058 .07499695 .37236024 .09498596 .42037965 .1309967 .42037965 .14698792 .42037965 .1619873 .41236878 .1619873 .37435914 .1619873 .35334779 .15899658 .3423462 .1459961 .29032899L.08799744 .059265138Z"/>
<path id="font_2_56" d="M.44898988 .20091248C.44898988 .31991578 .36698915 .41992188 .25898744 .41992188 .21099854 .41992188 .16799927 .4039154 .13198853 .36891175V.5641022C.1519928 .55778506 .18499756 .55078127 .21699524 .55078127 .33999635 .55078127 .4099884 .6418457 .4099884 .65493777 .4099884 .6609802 .40699769 .6660156 .3999939 .6660156 .3999939 .66607668 .39698792 .66607668 .3919983 .66308596 .37199403 .65408328 .32299806 .63378909 .2559967 .63378909 .21598816 .63409426 .16999817 .641098 .12298584 .6621094 .114990238 .6651001 .11099243 .6651001 .11099243 .6651001 .100997928 .66508486 .100997928 .657074 .100997928 .64108279V.3447113C.100997928 .3266449 .100997928 .31861878 .114990238 .31861878 .12199402 .31861878 .12399292 .32164 .12799073 .32765199 .13899231 .34371949 .17599488 .3979187 .25698854 .3979187 .30899049 .3979187 .33399964 .3517456 .34199525 .3336792 .35798646 .2965393 .3600006 .2574005 .3600006 .20721436 .3600006 .17218018 .3600006 .112197879 .33599855 .07032776 .31199647 .031448366 .2749939 .0055389406 .22898865 .0055389406 .1559906 .0055389406 .09899902 .05836487 .08198547 .1171875 .084991458 .11685181 .08799744 .115859989 .09899902 .115859989 .13198853 .115859989 .14898682 .14085388 .14898682 .16485596 .14898682 .18885803 .13198853 .21386719 .09899902 .21386719 .084991458 .21386719 .049987794 .2068634 .049987794 .16085816 .049987794 .07432556 .11898804-.022460938 .23098755-.022460938 .34700013-.022460938 .44898988 .07331848 .44898988 .20019531V.20091248Z"/>
<path id="font_2_82" d="M.4189911 0V.0309906H.3869934C.29699708 .0309906 .2939911 .041992189 .2939911 .07902527V.64012148C.2939911 .6640167 .2939911 .6660156 .2709961 .6660156 .20899964 .60227969 .12098694 .60227969 .08898926 .60227969V.57128909C.10899353 .57128909 .16799927 .57128909 .21998596 .5972748V.07902527C.21998596 .042999269 .21699524 .0309906 .1269989 .0309906H.09498596V0C.12998963 .0029907227 .21699524 .0029907227 .25698854 .0029907227 .29699708 .0029907227 .38398744 .0029907227 .4189911 0Z"/>
<path id="font_2_121" d="M.45999146 .31976319C.45999146 .39982606 .45498658 .47988893 .41999818 .5539398 .37399293 .65000918 .2919922 .6660156 .25 .6660156 .18998719 .6660156 .116989139 .64001467 .07598877 .54693606 .04399109 .47789 .038986207 .39982606 .038986207 .31976319 .038986207 .24472046 .042999269 .15464783 .083999637 .07859802 .1269989-.0024719239 .19999695-.022460938 .24899292-.022460938 .30299378-.022460938 .3789978-.0014648438 .4229889 .09359741 .45498658 .16265869 .45999146 .2407074 .45999146 .31976319M.3769989 .3317871C.3769989 .25672914 .3769989 .18867493 .3659973 .12461853 .35099793 .029556275 .2939911-.00047302247 .24899292-.00047302247 .20999146-.00047302247 .15098572 .024551392 .1329956 .12062073 .12199402 .18066406 .12199402 .2727356 .12199402 .3317871 .12199402 .39582826 .12199402 .46188355 .12998963 .5159149 .14898682 .63500979 .22399903 .64401248 .24899292 .64401248 .28199769 .64401248 .34799195 .6259918 .36698915 .52693179 .3769989 .47088624 .3769989 .39482118 .3769989 .3317871Z"/>
</defs>
<path transform="matrix(1.00003,0,0,-1.00005,15.002068,160.29036)" stroke-width=".3985" stroke-linecap="butt" stroke-miterlimit="10" stroke-linejoin="miter" fill="none" stroke="#42c8f4" d="M0 0H93.54497M0 9.35448H93.54497M0 18.70897H93.54497M0 28.06348H93.54497M0 37.41797H93.54497M0 46.77248H93.54497M0 56.12697H93.54497M0 65.48148H93.54497M0 74.83597H93.54497M0 84.19048H93.54497M0 93.54497H93.54497M0 102.89948H93.54497M0 112.25397H93.54497M0 121.60847H93.54497M0 130.96297H93.54497M0 140.3142H93.54497M0 0V140.31748M9.35448 0V140.31748M18.70897 0V140.31748M28.06348 0V140.31748M37.41797 0V140.31748M46.77248 0V140.31748M56.12697 0V140.31748M65.48148 0V140.31748M74.83597 0V140.31748M84.19048 0V140.31748M93.54169 0V140.31748M93.54497 140.31748"/>
<path transform="matrix(1.00003,0,0,-1.00005,15.002068,160.29036)" stroke-width=".79701" stroke-linecap="butt" stroke-miterlimit="10" stroke-linejoin="miter" fill="none" stroke="#000000" d="M0 0H106.1421"/>
<path transform="matrix(1.00003,0,0,-1.00005,121.147357,160.29036)" d="M1.0361 0C-.25902 .25902-1.55415 .77707-3.1083 1.68365-1.55415 .51805-1.55415-.51805-3.1083-1.68365-1.55415-.77707-.25902-.25902 1.0361 0Z"/>
<path transform="matrix(1.00003,0,0,-1.00005,121.147357,160.29036)" stroke-width=".79701" stroke-linecap="butt" stroke-linejoin="round" fill="none" stroke="#000000" d="M1.0361 0C-.25902 .25902-1.55415 .77707-3.1083 1.68365-1.55415 .51805-1.55415-.51805-3.1083-1.68365-1.55415-.77707-.25902-.25902 1.0361 0Z"/>
<use data-text="p" xlink:href="#font_1_2" transform="matrix(9.962899,0,0,-9.963098,126.30141,161.46642)"/>
<path transform="matrix(1.00003,0,0,-1.00005,15.002068,160.29036)" stroke-width=".79701" stroke-linecap="butt" stroke-miterlimit="10" stroke-linejoin="miter" fill="none" stroke="#000000" d="M0 0V154.78548"/>
<path transform="matrix(0,-1.00005,-1.00003,-0,15.002068,5.4971468)" d="M1.0361 0C-.25902 .25902-1.55415 .77707-3.1083 1.68365-1.55415 .51805-1.55415-.51805-3.1083-1.68365-1.55415-.77707-.25902-.25902 1.0361 0Z"/>
<path transform="matrix(0,-1.00005,-1.00003,-0,15.002068,5.4971468)" stroke-width=".79701" stroke-linecap="butt" stroke-linejoin="round" fill="none" stroke="#000000" d="M1.0361 0C-.25902 .25902-1.55415 .77707-3.1083 1.68365-1.55415 .51805-1.55415-.51805-3.1083-1.68365-1.55415-.77707-.25902-.25902 1.0361 0Z"/>
<use data-text="m" xlink:href="#font_1_1" transform="matrix(9.962899,0,0,-9.963098,2.5356904,6.207672)"/>
<path transform="matrix(1.00003,0,0,-1.00005,15.002068,160.29036)" stroke-width="1.59404" stroke-linecap="butt" stroke-miterlimit="10" stroke-linejoin="miter" fill="none" stroke="#42c8f4" d="M46.77248 0V140.31748"/>
<path transform="matrix(1.00003,0,0,-1.00005,15.002068,160.29036)" stroke-width=".79701" stroke-linecap="butt" stroke-miterlimit="10" stroke-linejoin="miter" fill="none" stroke="#000000" d="M46.77248 .93549V-.93535"/>
<path transform="matrix(1.00003,0,0,-1.00005,15.002068,160.29036)" d="M43.2855-12.17332H50.259439V-3.3264094H43.2855Z" fill="#ffffff"/>
<use data-text="5" xlink:href="#font_2_56" transform="matrix(9.962899,0,0,-9.963098,59.2854,171.2489)"/>
<path transform="matrix(1.00003,0,0,-1.00005,15.002068,160.29036)" stroke-width="1.59404" stroke-linecap="butt" stroke-miterlimit="10" stroke-linejoin="miter" fill="none" stroke="#42c8f4" d="M93.54497 0V140.31748"/>
<path transform="matrix(1.00003,0,0,-1.00005,15.002068,160.29036)" stroke-width=".79701" stroke-linecap="butt" stroke-miterlimit="10" stroke-linejoin="miter" fill="none" stroke="#000000" d="M93.54497 .93549V-.93535"/>
<path transform="matrix(1.00003,0,0,-1.00005,15.002068,160.29036)" d="M87.5673-12.17332H99.52262V-3.3264094H87.5673Z" fill="#ffffff"/>
<use data-text="1" xlink:href="#font_2_82" transform="matrix(9.962899,0,0,-9.963098,103.56873,171.2489)"/>
<use data-text="0" xlink:href="#font_2_121" transform="matrix(9.962899,0,0,-9.963098,108.55018,171.2489)"/>
<path transform="matrix(1.00003,0,0,-1.00005,15.002068,160.29036)" stroke-width="1.59404" stroke-linecap="butt" stroke-miterlimit="10" stroke-linejoin="miter" fill="none" stroke="#42c8f4" d="M0 46.77248H93.54497"/>
<path transform="matrix(1.00003,0,0,-1.00005,15.002068,160.29036)" stroke-width=".79701" stroke-linecap="butt" stroke-miterlimit="10" stroke-linejoin="miter" fill="none" stroke="#000000" d="M.93549 46.77248H-.93535"/>
<path transform="matrix(1.00003,0,0,-1.00005,15.002068,160.29036)" d="M-10.30035 42.34903H-3.3264104V51.19594H-10.30035Z" fill="#ffffff"/>
<use data-text="5" xlink:href="#font_2_56" transform="matrix(9.962899,0,0,-9.963098,5.697792,116.72418)"/>
<path transform="matrix(1.00003,0,0,-1.00005,15.002068,160.29036)" stroke-width="1.59404" stroke-linecap="butt" stroke-miterlimit="10" stroke-linejoin="miter" fill="none" stroke="#42c8f4" d="M0 93.54497H93.54497"/>
<path transform="matrix(1.00003,0,0,-1.00005,15.002068,160.29036)" stroke-width=".79701" stroke-linecap="butt" stroke-miterlimit="10" stroke-linejoin="miter" fill="none" stroke="#000000" d="M.93549 93.54497H-.93535"/>
<path transform="matrix(1.00003,0,0,-1.00005,15.002068,160.29036)" d="M-15.28174 89.12152H-3.3264199V97.96843H-15.28174Z" fill="#ffffff"/>
<use data-text="1" xlink:href="#font_2_82" transform="matrix(9.962899,0,0,-9.963098,.71663668,69.94885)"/>
<use data-text="0" xlink:href="#font_2_121" transform="matrix(9.962899,0,0,-9.963098,5.698082,69.94885)"/>
<path transform="matrix(1.00003,0,0,-1.00005,15.002068,160.29036)" stroke-width="1.59404" stroke-linecap="butt" stroke-miterlimit="10" stroke-linejoin="miter" fill="none" stroke="#42c8f4" d="M0 140.31748H93.54497"/>
<path transform="matrix(1.00003,0,0,-1.00005,15.002068,160.29036)" stroke-width=".79701" stroke-linecap="butt" stroke-miterlimit="10" stroke-linejoin="miter" fill="none" stroke="#000000" d="M.93549 140.31748H-.93535"/>
<path transform="matrix(1.00003,0,0,-1.00005,15.002068,160.29036)" d="M-15.28174 135.89402H-3.3264199V144.74092H-15.28174Z" fill="#ffffff"/>
<use data-text="1" xlink:href="#font_2_82" transform="matrix(9.962899,0,0,-9.963098,.71663668,23.174515)"/>
<use data-text="5" xlink:href="#font_2_56" transform="matrix(9.962899,0,0,-9.963098,5.698082,23.174515)"/>
<path transform="matrix(1.00003,0,0,-1.00005,15.002068,160.29036)" stroke-width="1.19553" stroke-linecap="butt" stroke-miterlimit="10" stroke-linejoin="miter" fill="none" stroke="#d73589" d="M3.94957 138.46216C4.45142 134.87859 4.45142 134.87859 4.7439 132.83542 5.03636 130.79225 5.50539 127.56854 5.79788 125.59131 6.09035 123.61404 6.55939 120.49606 6.85185 118.58472 7.14433 116.67336 7.61336 113.66107 7.90582 111.81563 8.1983 109.97018 8.66734 107.06358 8.95981 105.28406 9.25229 103.50453 9.72133 100.70363 10.0138 98.99002 10.30626 97.27638 10.7753 94.58119 11.06778 92.93349 11.36024 91.28578 11.82927 88.69629 12.12175 87.11447 12.41422 85.53265 12.88326 83.04874 13.17574 81.53282 13.4682 80.01692 13.93724 77.63885 14.2297 76.18886 14.52219 74.73886 14.99121 72.46634 15.28368 71.08224 15.57617 69.69817 16.0452 67.53148 16.33766 66.2133 16.63014 64.89513 17.09918 62.83401 17.39165 61.58171 17.68411 60.32944 18.15317 58.37402 18.44563 57.18767 18.7381 56.00131 19.20712 54.1517 19.4996 53.03128 19.79208 51.91083 20.26111 50.1668 20.55359 49.11224 20.84605 48.0577 21.3151 46.41939 21.60757 45.43074 21.90004 44.4421 22.36908 42.90948 22.66154 41.98674 22.95403 41.064 23.42305 39.6371 23.71552 38.78027 24.008 37.92345 24.47704 36.60225 24.7695 35.81131 25.062 35.02039 25.53102 33.80475 25.82349 33.07973 26.11595 32.3547 26.585 31.2449 26.87747 30.58582 27.16994 29.92671 27.63898 28.9226 27.93146 28.32939 28.22392 27.7362 28.69295 26.83768 28.98543 26.31038 29.2779 25.78307 29.74693 24.99039 30.0394 24.52899 30.33188 24.06761 30.80092 23.38048 31.09338 22.98499 31.38586 22.5895 31.85489 22.00809 32.14737 21.6785 32.43985 21.34892 32.90887 20.8732 33.20134 20.60954 33.4938 20.34589 33.96286 19.97598 34.25533 19.77824 34.54779 19.58049 35.01683 19.31616 35.30931 19.1843 35.60178 19.05243 36.0708 18.89383 36.3633 18.82788 36.65576 18.76193 37.12479 18.70903 37.41727 18.70897 37.70973 18.70892 38.17877 18.76161 38.47124 18.82744 38.76372 18.8933 39.23276 19.0518 39.52522 19.18358 39.8177 19.31537 40.28673 19.57956 40.5792 19.77724 40.87169 19.9749 41.34071 20.34468 41.63318 20.60826 41.92564 20.87184 42.3947 21.34744 42.68716 21.67694 42.97963 22.00642 43.44867 22.5876 43.74115 22.983 44.03362 23.3784 44.50266 24.0654 44.79514 24.52672 45.0876 24.98802 45.55663 25.78061 45.8491 26.3078 46.14159 26.83499 46.61061 27.73329 46.90308 28.3264 47.19556 28.91951 47.6646 29.92351 47.95706 30.58252 48.24954 31.24155 48.71858 32.35124 49.01105 33.07617 49.30351 33.80109 49.77255 35.0165 50.06502 35.80733 50.3575 36.59816 50.82652 37.91925 51.119 38.776 51.41147 39.63274 51.88051 41.05952 52.17299 41.98218 52.46545 42.90485 52.93448 44.43732 53.22697 45.42589 53.51944 46.41444 53.98846 48.05266 54.28093 49.10712 54.57341 50.16156 55.04245 51.90533 55.33492 53.02571 55.6274 54.14607 56.09644 55.99567 56.3889 57.18196 56.68138 58.36823 57.1504 60.32341 57.44289 61.57559 57.73535 62.82777 58.20439 64.88876 58.49686 66.20688 58.78932 67.52498 59.25836 69.69154 59.55084 71.07553 59.8433 72.45952 60.31235 74.73183 60.60483 76.18172 60.8973 77.63162 61.36633 80.00957 61.65881 81.5254 61.95128 83.04124 62.4203 85.52502 62.71278 87.10677 63.00526 88.6885 63.47429 91.27788 63.76675 92.92549 64.05923 94.57309 64.52827 97.26807 64.82074 98.9816 65.11322 100.69511 65.58226 103.4959 65.87473 105.27534 66.16719 107.05481 66.63622 109.96129 66.9287 111.80664 67.22118 113.652 67.6902 116.66417 67.98268 118.57542 68.27515 120.48668 68.74419 123.60443 69.03667 125.58159 69.32913 127.55876 69.79817 130.78235 70.09064 132.82543 70.38312 134.8685 71.1446 140.30663 70.88489 138.45178"/>
<path transform="matrix(-.13864416,-.99037948,-.9903597,.13864693,18.951767,21.82129)" d="M1.27522 0C-.31879 .31879-1.91284 .9564-3.8257 2.07224-1.91284 .6376-1.91284-.6376-3.8257-2.07224-1.91284-.9564-.31879-.31879 1.27522 0Z" fill="#d73589"/>
<path transform="matrix(-.13864416,-.99037948,-.9903597,.13864693,18.951767,21.82129)" stroke-width="1.19553" stroke-linecap="butt" stroke-linejoin="round" fill="none" stroke="#d73589" d="M1.27522 0C-.31879 .31879-1.91284 .9564-3.8257 2.07224-1.91284 .6376-1.91284-.6376-3.8257-2.07224-1.91284-.9564-.31879-.31879 1.27522 0Z"/>
<path transform="matrix(.13867417,-.9903595,-.99033978,-.13867693,85.889087,21.831665)" d="M1.27522 0C-.31879 .31879-1.91284 .9564-3.8257 2.07224-1.91284 .6376-1.91284-.6376-3.8257-2.07224-1.91284-.9564-.31879-.31879 1.27522 0Z" fill="#d73589"/>
<path transform="matrix(.13867417,-.9903595,-.99033978,-.13867693,85.889087,21.831665)" stroke-width="1.19553" stroke-linecap="butt" stroke-linejoin="round" fill="none" stroke="#d73589" d="M1.27522 0C-.31879 .31879-1.91284 .9564-3.8257 2.07224-1.91284 .6376-1.91284-.6376-3.8257-2.07224-1.91284-.9564-.31879-.31879 1.27522 0Z"/>
</svg>
