<svg xmlns="http://www.w3.org/2000/svg" xmlns:xlink="http://www.w3.org/1999/xlink" version="1.1" width="208" height="282" viewBox="0 0 208 282">
<defs>
<path id="font_1_3" d="M.33399964 .30233766C.33999635 .32835389 .36299134 .42037965 .43299867 .42037965 .43798829 .42037965 .46199037 .42037965 .48298646 .40734864 .45498658 .402359 .43499757 .37734986 .43499757 .35334779 .43499757 .33735658 .44599916 .31835938 .47299195 .31835938 .49499513 .31835938 .5269928 .3363495 .5269928 .37635804 .5269928 .42837525 .46798707 .4423828 .43399049 .4423828 .37599183 .4423828 .34098817 .38935853 .32899476 .36634828 .3039856 .43237306 .25 .4423828 .22099304 .4423828 .116989139 .4423828 .05999756 .3133545 .05999756 .28834535 .05999756 .27833558 .069992069 .27833558 .07199097 .27833558 .07998657 .27833558 .08299255 .28033448 .084991458 .28933717 .11898804 .39535523 .18499756 .42037965 .21899414 .42037965 .23799134 .42037965 .272995 .4113617 .272995 .35334779 .272995 .32235719 .2559967 .25532533 .21899414 .11528015 .20298767 .053268434 .16799927 .011245728 .12399292 .011245728 .117996219 .011245728 .09498596 .011245728 .07398987 .024276734 .09899902 .029266358 .12098694 .05027771 .12098694 .07827759 .12098694 .105270389 .09899902 .11328125 .083999637 .11328125 .053985597 .11328125 .0289917 .08728027 .0289917 .055267335 .0289917 .009246826 .07899475-.0107421879 .12298584-.0107421879 .18899536-.0107421879 .22499085 .059280397 .22799683 .0652771 .23999024 .028274537 .27598573-.0107421879 .33599855-.0107421879 .43899537-.0107421879 .49598695 .118270877 .49598695 .14328003 .49598695 .1532898 .4869995 .1532898 .48399354 .1532898 .47499085 .1532898 .47299195 .14929199 .47099305 .14228821 .43798829 .03527832 .36999513 .011245728 .33799745 .011245728 .29899598 .011245728 .2829895 .043273927 .2829895 .07727051 .2829895 .09927368 .2889862 .121276859 .2999878 .16529846L.33399964 .30233766Z"/>
<path id="font_1_4" d="M.48599244 .38136292C.48999024 .39537049 .48999024 .39736939 .48999024 .40437318 .48999024 .42237855 .47599793 .43138124 .46099855 .43138124 .45098878 .43138124 .43499757 .42536927 .42599488 .41036988 .42399598 .405365 .41600038 .37435914 .4119873 .35635377 .40499879 .33035279 .397995 .30334474 .3919983 .27633668L.34700013 .09628296C.34298707 .08126831 .2999878 .011245728 .23399353 .011245728 .18299866 .011245728 .17199707 .055267335 .17199707 .0922699 .17199707 .1382904 .18899536 .20030213 .22299195 .28833009 .23899842 .3293457 .24299622 .3403473 .24299622 .36035157 .24299622 .405365 .21099854 .4423828 .16099549 .4423828 .06599426 .4423828 .0289917 .29733277 .0289917 .28833009 .0289917 .27833558 .038986207 .27833558 .040985109 .27833558 .050994874 .27833558 .051986696 .28033448 .056991579 .29634095 .083999637 .3903656 .12399292 .42037965 .1579895 .42037965 .1659851 .42037965 .18299866 .42037965 .18299866 .3883667 .18299866 .36335755 .17298889 .3373413 .1659851 .31834413 .12599182 .21231079 .10798645 .1552887 .10798645 .10827637 .10798645 .019256592 .17098999-.0107421879 .22999573-.0107421879 .2689972-.0107421879 .30299378 .0062561037 .33099366 .03425598 .31799317-.017745972 .30599977-.06674194 .2659912-.11973572 .23999024-.15385437 .20199585-.18309021 .1559906-.18309021 .14199829-.18309021 .09700012-.18005371 .07998657-.14074707 .09599304-.14074707 .10899353-.14074707 .12298584-.1287384 .1329956-.11973572 .14299011-.10673523 .14299011-.08773804 .14299011-.056747438 .115997318-.052734376 .10598755-.052734376 .08299255-.052734376 .049987794-.068740848 .049987794-.11773682 .049987794-.16796875 .09399414-.20507813 .1559906-.20507813 .25898744-.20507813 .3619995-.11373901 .3899994-.00074768069L.48599244 .38136292Z"/>
<path id="font_2_7" d="M.44898988 .20022583C.44898988 .3193512 .36698915 .41944886 .25898744 .41944886 .21099854 .41944886 .16799927 .40345765 .13198853 .36842347V.5637665C.1519928 .5577698 .18499756 .55078127 .21699524 .55078127 .33999635 .55078127 .4099884 .6417694 .4099884 .6547699 .4099884 .6607666 .40699769 .6657715 .3999939 .6657715 .39898683 .6657715 .39698792 .6657715 .3919983 .66278079 .37199403 .6537781 .32299806 .6337738 .2559967 .6337738 .21598816 .6337738 .16999817 .6407776 .12298584 .6617737 .114990238 .66477969 .11299133 .66477969 .11099243 .66477969 .100997928 .66477969 .100997928 .6567688 .100997928 .6407776V.34439088C.100997928 .32637025 .100997928 .31835938 .114990238 .31835938 .12199402 .31835938 .12399292 .32136537 .12799073 .32736207 .13899231 .3433838 .17599488 .39746095 .25698854 .39746095 .30899049 .39746095 .33399964 .35139466 .34199525 .33337403 .35798646 .29632569 .3600006 .25727845 .3600006 .20722962 .3600006 .17222595 .3600006 .11222839 .33599855 .07035828 .31199647 .031463624 .2749939 .0055389406 .22898865 .0055389406 .1559906 .0055389406 .09899902 .058380128 .08198547 .11723328 .084991458 .1162262 .08799744 .115234378 .09899902 .115234378 .13198853 .115234378 .14898682 .14022827 .14898682 .16423035 .14898682 .18823242 .13198853 .21322632 .09899902 .21322632 .084991458 .21322632 .049987794 .20622254 .049987794 .16023255 .049987794 .07434082 .11898804-.022460938 .23098755-.022460938 .34700013-.022460938 .44898988 .073349 .44898988 .20022583Z"/>
<path id="font_3_1" d="M.6589966 .23046875C.6759949 .23046875 .69400027 .23046875 .69400027 .25045777 .69400027 .27046205 .6759949 .27046205 .6589966 .27046205H.117996219C.100997928 .27046205 .08299255 .27046205 .08299255 .25045777 .08299255 .23046875 .100997928 .23046875 .117996219 .23046875H.6589966Z"/>
<path id="font_2_4" d="M.2939911 .64004519C.2939911 .66400149 .2939911 .6660156 .2709961 .6660156 .20899964 .60227969 .12098694 .60227969 .08898926 .60227969V.57128909C.10899353 .57128909 .16799927 .57128909 .21998596 .5972748V.07902527C.21998596 .042999269 .21699524 .0309906 .1269989 .0309906H.09498596V0C.12998963 .0029907227 .21699524 .0029907227 .25698854 .0029907227 .29699708 .0029907227 .38398744 .0029907227 .4189911 0V.0309906H.3869934C.29699708 .0309906 .2939911 .041992189 .2939911 .07902527V.64004519Z"/>
<path id="font_2_3" d="M.45999146 .31976319C.45999146 .39982606 .45498658 .47988893 .41999818 .5539398 .37399293 .65000918 .2919922 .6660156 .25 .6660156 .18998719 .6660156 .116989139 .64001467 .07598877 .54693606 .04399109 .47789 .038986207 .39982606 .038986207 .31976319 .038986207 .24472046 .042999269 .15464783 .083999637 .07859802 .1269989-.0024719239 .19999695-.022460938 .24899292-.022460938 .30299378-.022460938 .3789978-.0014648438 .4229889 .09359741 .45498658 .16265869 .45999146 .2407074 .45999146 .31976319M.24899292-.00047302247C.20999146-.00047302247 .15098572 .024551392 .1329956 .12062073 .12199402 .18066406 .12199402 .2727356 .12199402 .3317871 .12199402 .39582826 .12199402 .46188355 .12998963 .5159149 .14898682 .63500979 .22399903 .64401248 .24899292 .64401248 .28199769 .64401248 .34799195 .6259918 .36698915 .52693179 .3769989 .47088624 .3769989 .39482118 .3769989 .3317871 .3769989 .25672914 .3769989 .18867493 .3659973 .12461853 .35099793 .029556275 .2939911-.00047302247 .24899292-.00047302247Z"/>
<path id="font_2_1" d="M.33099366-.2400055C.33099366-.23701477 .33099366-.23500061 .31399537-.21800232 .18899536-.0920105 .15699768 .09700012 .15699768 .25 .15699768 .42399598 .19499207 .59799197 .31799317 .72299197 .33099366 .73498538 .33099366 .7369995 .33099366 .73999026 .33099366 .746994 .32699586 .75 .32099916 .75 .31098939 .75 .22099304 .6819916 .1619873 .5549927 .11099243 .44499208 .09899902 .33399964 .09899902 .25 .09899902 .17199707 .10998535 .050994874 .16499329-.06201172 .22499085-.18501282 .31098939-.25 .32099916-.25 .32699586-.25 .33099366-.24700928 .33099366-.2400055Z"/>
<path id="font_2_5" d="M.1269989 .07699585 .23298645 .18003845C.3889923 .31811524 .44898988 .3721466 .44898988 .47216798 .44898988 .5860901 .35899354 .6660156 .23699951 .6660156 .12399292 .6660156 .049987794 .57411196 .049987794 .48516847 .049987794 .4291687 .099990848 .4291687 .102996829 .4291687 .11999512 .4291687 .15499878 .44117738 .15499878 .48217774 .15499878 .5081787 .13699341 .5341797 .101989749 .5341797 .09399414 .5341797 .09199524 .5341797 .08898926 .5331726 .11199951 .59806826 .1659851 .63500979 .22399903 .63500979 .31498719 .63500979 .35798646 .5541382 .35798646 .47216798 .35798646 .39215089 .30799867 .31311036 .25299073 .25108338L.06098938 .036987306C.049987794 .025985718 .049987794 .023986817 .049987794 0H.42099L.44898988 .17404175H.42399598C.4189911 .14402771 .4119873 .1000061 .4019928 .084991458 .394989 .07699585 .32899476 .07699585 .30699159 .07699585H.1269989Z"/>
<path id="font_1_1" d="M.19198609 .052993776C.19198609 .08198547 .16799927 .10598755 .13899231 .10598755 .10998535 .10598755 .085998538 .08198547 .085998538 .052993776 .085998538 .023986817 .10998535 0 .13899231 0 .16799927 0 .19198609 .023986817 .19198609 .052993776Z"/>
<path id="font_1_2" d="M.20298767 .0009918213C.20298767 .066986087 .17799378 .10598755 .13899231 .10598755 .10598755 .10598755 .085998538 .08099365 .085998538 .052993776 .085998538 .025985718 .10598755 0 .13899231 0 .15098572 0 .1639862 .0039978029 .17399597 .0129852299 .1769867 .01499939 .17799378 .015991211 .1789856 .015991211 .17999268 .015991211 .18099976 .01499939 .18099976 .0009918213 .18099976-.07316589 .1459961-.13328552 .11299133-.16635132 .101989749-.17736817 .101989749-.17936707 .101989749-.18237305 .101989749-.18936157 .10699463-.19335938 .11199951-.19335938 .12298584-.19335938 .20298767-.116256717 .20298767 .0009918213Z"/>
<path id="font_2_6" d="M.2899933 .35191346C.37199403 .37893678 .42999269 .4490509 .42999269 .52809146 .42999269 .6100464 .34199525 .6660156 .24598694 .6660156 .14498902 .6660156 .068984989 .60606387 .068984989 .53009036 .068984989 .49710084 .09098816 .47808839 .11999512 .47808839 .15098572 .47808839 .17098999 .50009158 .17098999 .5290985 .17098999 .57910159 .12399292 .57910159 .10899353 .57910159 .13999939 .62802127 .20599365 .64100649 .24198914 .64100649 .2829895 .64100649 .33799745 .6190338 .33799745 .5290985 .33799745 .51708987 .33599855 .45906068 .30999757 .4149933 .27999879 .36691285 .24598694 .36390687 .22099304 .36291505 .21299744 .36190797 .18899536 .35990907 .18199158 .35990907 .17399597 .35890199 .16699219 .35791017 .16699219 .3479004 .16699219 .33691407 .17399597 .33691407 .19099427 .33691407H.23498535C.31698609 .33691407 .35398866 .2686615 .35398866 .17037964 .35398866 .034469606 .2849884 .0055389406 .24099732 .0055389406 .19799805 .0055389406 .12298584 .022491456 .08799744 .08137512 .12298584 .07637024 .1539917 .09837341 .1539917 .1363678 .1539917 .17237854 .1269989 .19238281 .09799194 .19238281 .07398987 .19238281 .041992189 .17837525 .041992189 .1343689 .041992189 .043441774 .1349945-.022460938 .24398804-.022460938 .3659973-.022460938 .45700074 .06838989 .45700074 .17037964 .45700074 .252594 .3939972 .33088685 .2899933 .35191346Z"/>
<path id="font_2_2" d="M.2889862 .25C.2889862 .32798768 .27799989 .44898988 .22299195 .56199648 .16299439 .68499758 .07699585 .75 .066986087 .75 .06098938 .75 .056991579 .74598696 .056991579 .73999026 .056991579 .7369995 .056991579 .73498538 .07598877 .71699526 .17399597 .6179962 .23098755 .45899964 .23098755 .25 .23098755 .07899475 .19400025-.09700012 .069992069-.2230072 .056991579-.23500061 .056991579-.23701477 .056991579-.2400055 .056991579-.2460022 .06098938-.25 .066986087-.25 .07699585-.25 .16699219-.18200684 .22599793-.055007936 .2769928 .054992677 .2889862 .16600037 .2889862 .25Z"/>
</defs>
<path transform="matrix(1.00005,0,0,-1.00008,52.639879,192.16533)" stroke-width=".3985" stroke-linecap="butt" stroke-miterlimit="10" stroke-linejoin="miter" fill="none" stroke="#00aeef" d="M-51.02477-85.04128H136.06606M-51.02477-68.03302H136.06606M-51.02477-51.02477H136.06606M-51.02477-34.0165H136.06606M-51.02477-17.00824H136.06606M-51.02477 0H136.06606M-51.02477 17.00824H136.06606M-51.02477 34.0165H136.06606M-51.02477 51.02477H136.06606M-51.02477 68.03302H136.06606M-51.02477 85.04128H136.06606M-51.02477 102.04953H136.06606M-51.02477 119.0578H136.06606M-51.02477 136.06606H136.06606M-51.02477 153.07433H136.06606M-51.02477 170.0766H136.06606M-51.02477-85.04128V170.08257M-34.0165-85.04128V170.08257M-17.00824-85.04128V170.08257M0-85.04128V170.08257M17.00824-85.04128V170.08257M34.0165-85.04128V170.08257M51.02477-85.04128V170.08257M68.03302-85.04128V170.08257M85.04128-85.04128V170.08257M102.04953-85.04128V170.08257M119.0578-85.04128V170.08257M136.06009-85.04128V170.08257M136.06606 170.08257"/>
<path transform="matrix(1.00005,0,0,-1.00008,52.639879,192.16533)" stroke-width=".79701" stroke-linecap="butt" stroke-miterlimit="10" stroke-linejoin="miter" fill="none" stroke="#000000" d="M-51.02477 0H143.13558"/>
<path transform="matrix(1.00005,0,0,-1.00008,195.78261,192.16533)" d="M1.0361 0C-.25902 .25902-1.55415 .77707-3.1083 1.68365-1.55415 .51805-1.55415-.51805-3.1083-1.68365-1.55415-.77707-.25902-.25902 1.0361 0Z"/>
<path transform="matrix(1.00005,0,0,-1.00008,195.78261,192.16533)" stroke-width=".79701" stroke-linecap="butt" stroke-linejoin="round" fill="none" stroke="#000000" d="M1.0361 0C-.25902 .25902-1.55415 .77707-3.1083 1.68365-1.55415 .51805-1.55415-.51805-3.1083-1.68365-1.55415-.77707-.25902-.25902 1.0361 0Z"/>
<use data-text="x" xlink:href="#font_1_3" transform="matrix(9.963098,0,0,-9.963397,200.93628,194.3105)"/>
<path transform="matrix(1.00005,0,0,-1.00008,52.639879,192.16533)" stroke-width=".79701" stroke-linecap="butt" stroke-miterlimit="10" stroke-linejoin="miter" fill="none" stroke="#000000" d="M0-85.04128V178.85301"/>
<path transform="matrix(0,-1.00008,-1.00005,-0,52.639879,13.298004)" d="M1.0361 0C-.25902 .25902-1.55415 .77707-3.1083 1.68365-1.55415 .51805-1.55415-.51805-3.1083-1.68365-1.55415-.77707-.25902-.25902 1.0361 0Z"/>
<path transform="matrix(0,-1.00008,-1.00005,-0,52.639879,13.298004)" stroke-width=".79701" stroke-linecap="butt" stroke-linejoin="round" fill="none" stroke="#000000" d="M1.0361 0C-.25902 .25902-1.55415 .77707-3.1083 1.68365-1.55415 .51805-1.55415-.51805-3.1083-1.68365-1.55415-.77707-.25902-.25902 1.0361 0Z"/>
<use data-text="y" xlink:href="#font_1_4" transform="matrix(9.963098,0,0,-9.963397,50.018747,6.2064516)"/>
<path transform="matrix(1.00005,0,0,-1.00008,52.639879,192.16533)" stroke-width=".3985" stroke-linecap="butt" stroke-miterlimit="10" stroke-linejoin="miter" fill="none" stroke="#000000" d="M85.04128 2.55112V-2.55139"/>
<path transform="matrix(1.00005,0,0,-1.00008,52.639879,192.16533)" d="M81.5543-13.15617H88.52824V-4.74319H81.5543Z" fill="#ffffff"/>
<use data-text="5" xlink:href="#font_2_7" transform="matrix(9.963098,0,0,-9.963397,135.195,204.3263)"/>
<path transform="matrix(1.00005,0,0,-1.00008,52.639879,192.16533)" stroke-width=".3985" stroke-linecap="butt" stroke-miterlimit="10" stroke-linejoin="miter" fill="none" stroke="#000000" d="M5.10251-85.04128H-5.10251"/>
<path transform="matrix(1.00005,0,0,-1.00008,52.639879,192.16533)" d="M-22.01709-89.66289H-7.2943098V-80.419658H-22.01709Z" fill="#ffffff"/>
<use data-text="&#x2212;" xlink:href="#font_3_1" transform="matrix(9.963098,0,0,-9.963397,31.617829,280.00837)"/>
<use data-text="5" xlink:href="#font_2_7" transform="matrix(9.963098,0,0,-9.963397,39.367204,280.00837)"/>
<path transform="matrix(1.00005,0,0,-1.00008,52.639879,192.16533)" stroke-width=".3985" stroke-linecap="butt" stroke-miterlimit="10" stroke-linejoin="miter" fill="none" stroke="#000000" d="M5.10251 85.04128H-5.10251"/>
<path transform="matrix(1.00005,0,0,-1.00008,52.639879,192.16533)" d="M-14.26825 80.83478H-7.2943108V89.24776H-14.26825Z" fill="#ffffff"/>
<use data-text="5" xlink:href="#font_2_7" transform="matrix(9.963098,0,0,-9.963397,39.367219,110.32778)"/>
<path transform="matrix(1.00005,0,0,-1.00008,52.639879,192.16533)" stroke-width=".3985" stroke-linecap="butt" stroke-miterlimit="10" stroke-linejoin="miter" fill="none" stroke="#000000" d="M5.10251 170.08257H-5.10251"/>
<path transform="matrix(1.00005,0,0,-1.00008,52.639879,192.16533)" d="M-19.24966 165.87607H-7.29432V174.28905H-19.24966Z" fill="#ffffff"/>
<use data-text="1" xlink:href="#font_2_4" transform="matrix(9.963098,0,0,-9.963397,34.385965,25.279984)"/>
<use data-text="0" xlink:href="#font_2_3" transform="matrix(9.963098,0,0,-9.963397,39.3675,25.279984)"/>
<path transform="matrix(1.00005,0,0,-1.00008,52.639879,192.16533)" stroke-width="1.19553" stroke-linecap="butt" stroke-miterlimit="10" stroke-linejoin="miter" fill="none" stroke="#ff0000" d="M-19.1329 168.2261C-17.99248 160.00394-17.99248 160.00394-17.45566 156.21794-16.91885 152.43196-16.05797 146.45835-15.52115 142.7945-14.98434 139.13066-14.12347 133.3532-13.58665 129.81148-13.04984 126.26979-12.18896 120.688-11.65216 117.26837-11.11534 113.84874-10.25447 108.46266-9.71765 105.16513-9.18083 101.86761-8.31996 96.67744-7.78314 93.50206-7.24634 90.32668-6.38547 85.33243-5.84865 82.27914-5.31184 79.22588-4.45096 74.42729-3.91415 71.49612-3.37732 68.56494-2.51645 63.9623-1.97964 61.15326-1.44283 58.34422-.58195 53.93747-.04514 51.25055 .49165 48.56361 1.35251 44.35254 1.88933 41.78772 2.42613 39.2229 3.287 35.20775 3.82382 32.76506 4.36064 30.32239 5.22153 26.50314 5.75833 24.18256 6.29515 21.86198 7.15602 18.23845 7.69283 16.03995 8.22964 13.84145 9.09052 10.41359 9.62733 8.33723 10.16414 6.26088 11.02501 3.02917 11.56184 1.07494 12.09865-.87926 12.95953-3.91528 13.49634-5.74744 14.03316-7.57959 14.89403-10.41989 15.43085-12.12994 15.96767-13.83998 16.82852-16.48439 17.36536-18.0723 17.90216-19.66019 18.76303-22.10873 19.29985-23.5745 19.83665-25.04025 20.69753-27.29288 21.23436-28.63654 21.77116-29.9802 22.63205-32.0371 23.16885-33.25868 23.70567-34.48027 24.56654-36.34148 25.10335-37.44093 25.64017-38.54039 26.50104-40.20547 27.03786-41.18277 27.57468-42.16008 28.43555-43.62947 28.97237-44.48471 29.50917-45.33995 30.37006-46.61362 30.90686-47.34677 31.4437-48.0799 32.30455-49.15765 32.84135-49.76866 33.37817-50.37964 34.23906-51.26154 34.77586-51.75038 35.31268-52.23923 36.17355-52.92522 36.71037-53.29198 37.24718-53.65872 38.10806-54.14899 38.64488-54.39366 39.18169-54.63834 40.04256-54.9329 40.57938-55.05545 41.1162-55.17798 41.97707-55.2764 42.51387-55.27682 43.05069-55.27724 43.91156-55.18022 44.4484-55.05856 44.9852-54.93689 45.84607-54.64369 46.38289-54.39987 46.9197-54.15607 47.78056-53.66724 48.31738-53.30132 48.8542-52.9354 49.71507-52.25063 50.25189-51.76259 50.78871-51.27457 51.64958-50.39409 52.18639-49.78397 52.7232-49.17383 53.58408-48.09746 54.12091-47.36519 54.65771-46.63293 55.51857-45.36063 56.05539-44.50626 56.59221-43.65189 57.4531-42.1839 57.9899-41.20743 58.52672-40.23094 59.38759-38.56703 59.9244-37.46844 60.46123-36.36986 61.3221-34.5103 61.85892-33.28955 62.39572-32.06883 63.25659-30.0131 63.79341-28.67027 64.33022-27.32745 65.19109-25.07628 65.7279-23.61134 66.26471-22.14642 67.12561-19.69908 67.66241-18.112 68.19923-16.52492 69.0601-13.88191 69.59691-12.17276 70.13373-10.46362 70.9946-7.62488 71.53142-5.79364 72.06822-3.96237 72.92911-.92773 73.46593 1.02562 74.00273 2.97902 74.86362 6.20953 75.40042 8.28506 75.93724 10.36061 76.79811 13.78703 77.33493 15.98468 77.87175 18.18231 78.7326 21.80444 79.26942 24.12416 79.80624 26.44388 80.66711 30.2617 81.20393 32.70355 81.74074 35.1454 82.60161 39.15938 83.13844 41.72336 83.67525 44.28735 84.53613 48.49701 85.07294 51.18307 85.60976 53.86913 86.47063 58.27449 87.00743 61.08267 87.54425 63.89084 88.40512 68.49211 88.94194 71.42241 89.47876 74.35274 90.33963 79.14987 90.87645 82.20233 91.41325 85.25479 92.27412 90.24783 92.81094 93.42238 93.34778 96.59694 94.20863 101.78572 94.74544 105.08235 95.28226 108.37897 96.14314 113.76343 96.67995 117.1822 97.21677 120.60097 98.07764 126.18156 98.61446 129.72248 99.15126 133.26338 100.01215 139.03966 100.54897 142.70264 101.08577 146.36562 101.94666 152.3376 102.48346 156.1227 103.02028 159.90778 104.41795 169.98293 104.16063 168.12775"/>
<path transform="matrix(-.13736686,-.9905792,-.99054947,.13737099,33.50603,23.925782)" d="M1.27522 0C-.31879 .31879-1.91284 .9564-3.8257 2.07224-1.91284 .6376-1.91284-.6376-3.8257-2.07224-1.91284-.9564-.31879-.31879 1.27522 0Z" fill="#ff0000"/>
<path transform="matrix(-.13736686,-.9905792,-.99054947,.13737099,33.50603,23.925782)" stroke-width="1.19553" stroke-linecap="butt" stroke-linejoin="round" fill="none" stroke="#ff0000" d="M1.27522 0C-.31879 .31879-1.91284 .9564-3.8257 2.07224-1.91284 .6376-1.91284-.6376-3.8257-2.07224-1.91284-.9564-.31879-.31879 1.27522 0Z"/>
<path transform="matrix(.13739687,-.9905792,-.99054947,-.137401,156.8057,24.024155)" d="M1.27522 0C-.31879 .31879-1.91284 .9564-3.8257 2.07224-1.91284 .6376-1.91284-.6376-3.8257-2.07224-1.91284-.9564-.31879-.31879 1.27522 0Z" fill="#ff0000"/>
<path transform="matrix(.13739687,-.9905792,-.99054947,-.137401,156.8057,24.024155)" stroke-width="1.19553" stroke-linecap="butt" stroke-linejoin="round" fill="none" stroke="#ff0000" d="M1.27522 0C-.31879 .31879-1.91284 .9564-3.8257 2.07224-1.91284 .6376-1.91284-.6376-3.8257-2.07224-1.91284-.9564-.31879-.31879 1.27522 0Z"/>
<path transform="matrix(1.00005,0,0,-1.00008,52.639879,192.16533)" d="M44.56152-55.27682C44.56152-54.14966 43.6478-53.23592 42.52063-53.23592 41.39346-53.23592 40.47974-54.14966 40.47974-55.27682 40.47974-56.40398 41.39346-57.31772 42.52063-57.31772 43.6478-57.31772 44.56152-56.40398 44.56152-55.27682ZM42.52063-55.27682" fill="#ff0000"/>
<path transform="matrix(1.00005,0,0,-1.00008,52.639879,192.16533)" stroke-width=".3985" stroke-linecap="butt" stroke-miterlimit="10" stroke-linejoin="miter" fill="none" stroke="#ff0000" d="M44.56152-55.27682C44.56152-54.14966 43.6478-53.23592 42.52063-53.23592 41.39346-53.23592 40.47974-54.14966 40.47974-55.27682 40.47974-56.40398 41.39346-57.31772 42.52063-57.31772 43.6478-57.31772 44.56152-56.40398 44.56152-55.27682ZM42.52063-55.27682"/>
<path transform="matrix(1.00005,0,0,-1.00008,52.639879,192.16533)" d="M16.34062-73.10066H68.70061V-61.14534H16.34062Z" fill="#ffffff"/>
<use data-text="(" xlink:href="#font_2_1" transform="matrix(9.963098,0,0,-9.963397,69.977748,261.7849)"/>
<use data-text="2" xlink:href="#font_2_5" transform="matrix(9.963098,0,0,-9.963397,73.84342,261.7849)"/>
<use data-text="." xlink:href="#font_1_1" transform="matrix(9.963098,0,0,-9.963397,78.83419,261.7849)"/>
<use data-text="5" xlink:href="#font_2_7" transform="matrix(9.963098,0,0,-9.963397,81.601329,261.7849)"/>
<use data-text="," xlink:href="#font_1_2" transform="matrix(9.963098,0,0,-9.963397,86.58257,261.7849)"/>
<use data-text="&#x2212;" xlink:href="#font_3_1" transform="matrix(9.963098,0,0,-9.963397,91.01078,261.7849)"/>
<use data-text="3" xlink:href="#font_2_6" transform="matrix(9.963098,0,0,-9.963397,98.76017,261.7849)"/>
<use data-text="." xlink:href="#font_1_1" transform="matrix(9.963098,0,0,-9.963397,103.74142,261.7849)"/>
<use data-text="2" xlink:href="#font_2_5" transform="matrix(9.963098,0,0,-9.963397,106.50956,261.7849)"/>
<use data-text="5" xlink:href="#font_2_7" transform="matrix(9.963098,0,0,-9.963397,111.4911,261.7849)"/>
<use data-text=")" xlink:href="#font_2_2" transform="matrix(9.963098,0,0,-9.963397,116.47265,261.7849)"/>
</svg>
