<svg xmlns="http://www.w3.org/2000/svg" xmlns:xlink="http://www.w3.org/1999/xlink" version="1.1" width="141" height="143" viewBox="0 0 141 143">
<defs>
<path id="font_1_2" d="M.33399964 .30233766C.33999635 .32835389 .36299134 .42037965 .43299867 .42037965 .43798829 .42037965 .46199037 .42037965 .48298646 .40734864 .45498658 .402359 .43499757 .37734986 .43499757 .35334779 .43499757 .33735658 .44599916 .31835938 .47299195 .31835938 .49499513 .31835938 .5269928 .3363495 .5269928 .37635804 .5269928 .42837525 .46798707 .4423828 .43399049 .4423828 .37599183 .4423828 .34098817 .38935853 .32899476 .36634828 .3039856 .43237306 .25 .4423828 .22099304 .4423828 .116989139 .4423828 .05999756 .3133545 .05999756 .28834535 .05999756 .27833558 .069992069 .27833558 .07199097 .27833558 .07998657 .27833558 .08299255 .28033448 .084991458 .28933717 .11898804 .39535523 .18499756 .42037965 .21899414 .42037965 .23799134 .42037965 .272995 .4113617 .272995 .35334779 .272995 .32235719 .2559967 .25532533 .21899414 .11528015 .20298767 .053268434 .16799927 .011245728 .12399292 .011245728 .117996219 .011245728 .09498596 .011245728 .07398987 .024276734 .09899902 .029266358 .12098694 .05027771 .12098694 .07827759 .12098694 .105270389 .09899902 .11328125 .083999637 .11328125 .053985597 .11328125 .0289917 .08728027 .0289917 .055267335 .0289917 .009246826 .07899475-.0107421879 .12298584-.0107421879 .18899536-.0107421879 .22499085 .059280397 .22799683 .0652771 .23999024 .028274537 .27598573-.0107421879 .33599855-.0107421879 .43899537-.0107421879 .49598695 .118270877 .49598695 .14328003 .49598695 .1532898 .4869995 .1532898 .48399354 .1532898 .47499085 .1532898 .47299195 .14929199 .47099305 .14228821 .43798829 .03527832 .36999513 .011245728 .33799745 .011245728 .29899598 .011245728 .2829895 .043273927 .2829895 .07727051 .2829895 .09927368 .2889862 .121276859 .2999878 .16529846L.33399964 .30233766Z"/>
<path id="font_1_3" d="M.48599244 .38136292C.48999024 .39537049 .48999024 .39736939 .48999024 .40437318 .48999024 .42237855 .47599793 .43138124 .46099855 .43138124 .45098878 .43138124 .43499757 .42536927 .42599488 .41036988 .42399598 .405365 .41600038 .37435914 .4119873 .35635377 .40499879 .33035279 .397995 .30334474 .3919983 .27633668L.34700013 .09628296C.34298707 .08126831 .2999878 .011245728 .23399353 .011245728 .18299866 .011245728 .17199707 .055267335 .17199707 .0922699 .17199707 .1382904 .18899536 .20030213 .22299195 .28833009 .23899842 .3293457 .24299622 .3403473 .24299622 .36035157 .24299622 .405365 .21099854 .4423828 .16099549 .4423828 .06599426 .4423828 .0289917 .29733277 .0289917 .28833009 .0289917 .27833558 .038986207 .27833558 .040985109 .27833558 .050994874 .27833558 .051986696 .28033448 .056991579 .29634095 .083999637 .3903656 .12399292 .42037965 .1579895 .42037965 .1659851 .42037965 .18299866 .42037965 .18299866 .3883667 .18299866 .36335755 .17298889 .3373413 .1659851 .31834413 .12599182 .21231079 .10798645 .1552887 .10798645 .10827637 .10798645 .019256592 .17098999-.0107421879 .22999573-.0107421879 .2689972-.0107421879 .30299378 .0062561037 .33099366 .03425598 .31799317-.017745972 .30599977-.06674194 .2659912-.11973572 .23999024-.15385437 .20199585-.18309021 .1559906-.18309021 .14199829-.18309021 .09700012-.18005371 .07998657-.14074707 .09599304-.14074707 .10899353-.14074707 .12298584-.1287384 .1329956-.11973572 .14299011-.10673523 .14299011-.08773804 .14299011-.056747438 .115997318-.052734376 .10598755-.052734376 .08299255-.052734376 .049987794-.068740848 .049987794-.11773682 .049987794-.16796875 .09399414-.20507813 .1559906-.20507813 .25898744-.20507813 .3619995-.11373901 .3899994-.00074768069L.48599244 .38136292Z"/>
<path id="font_2_1" d="M.6589966 .23046875C.6759949 .23046875 .69400027 .23046875 .69400027 .25045777 .69400027 .27046205 .6759949 .27046205 .6589966 .27046205H.117996219C.100997928 .27046205 .08299255 .27046205 .08299255 .25045777 .08299255 .23046875 .100997928 .23046875 .117996219 .23046875H.6589966Z"/>
<path id="font_3_4" d="M.1269989 .07699585 .23298645 .18003845C.3889923 .31811524 .44898988 .3721466 .44898988 .47216798 .44898988 .5860901 .35899354 .6660156 .23699951 .6660156 .12399292 .6660156 .049987794 .57411196 .049987794 .48516847 .049987794 .4291687 .099990848 .4291687 .102996829 .4291687 .11999512 .4291687 .15499878 .44117738 .15499878 .48217774 .15499878 .5081787 .13699341 .5341797 .101989749 .5341797 .09399414 .5341797 .09199524 .5341797 .08898926 .5331726 .11199951 .59806826 .1659851 .63500979 .22399903 .63500979 .31498719 .63500979 .35798646 .5541382 .35798646 .47216798 .35798646 .39215089 .30799867 .31311036 .25299073 .25108338L.06098938 .036987306C.049987794 .025985718 .049987794 .023986817 .049987794 0H.42099L.44898988 .17404175H.42399598C.4189911 .14402771 .4119873 .1000061 .4019928 .084991458 .394989 .07699585 .32899476 .07699585 .30699159 .07699585H.1269989Z"/>
<path id="font_4_1" d="M.41299439-1.1491852C.41299439-1.1451874 .41099549-1.1431885 .40899659-1.1401825 .36299134-1.0911713 .29499818-1.0101624 .25299073-.84713748 .22999573-.7561188 .22099304-.65309146 .22099304-.56007388 .22099304-.2970276 .28399659-.11299133 .4039917 .017044068 .41299439 .026031495 .41299439 .028030396 .41299439 .030029297 .41299439 .040039064 .40499879 .040039064 .40098573 .040039064 .38598634 .040039064 .33198548-.019973755 .31900025-.034973146 .21699524-.1559906 .1519928-.33602906 .1519928-.5590668 .1519928-.7010956 .1769867-.9021454 .30799867-1.071167 .31799317-1.0831757 .3829956-1.1591797 .40098573-1.1591797 .40499879-1.1591797 .41299439-1.1591797 .41299439-1.1491852Z"/>
<path id="font_5_1" d="M.74398806 .2263794C.7599945 .2263794 .7839966 .2263794 .7839966 .25038148 .7839966 .27539063 .7609863 .27539063 .74398806 .27539063H.147995C.13198853 .27539063 .10798645 .27539063 .10798645 .25138856 .10798645 .2263794 .1309967 .2263794 .147995 .2263794H.74398806Z"/>
<path id="font_6_2" d="M.5289917 .1640625V.20005799H.41799928V.64582827C.41799928 .66682437 .41799928 .6738281 .3959961 .6738281 .38398744 .6738281 .37998963 .6738281 .36999513 .65982058L.038986207 .20005799V.1640625H.33299256V.08201599C.33299256 .04800415 .33299256 .035995485 .2519989 .035995485H.22499085V0C.2749939 .0019989014 .33898927 .0039978029 .375 .0039978029 .4119873 .0039978029 .47599793 .0019989014 .526001 0V.035995485H.49899293C.41799928 .035995485 .41799928 .04800415 .41799928 .08201599V.1640625H.5289917M.33999635 .5658722V.20005799H.07598877L.33999635 .5658722Z"/>
<path id="font_6_1" d="M.272995 .33428956C.35099793 .33428956 .40699769 .2803192 .40699769 .1733551 .40699769 .04940796 .33499146 .012466431 .2769928 .012466431 .23699951 .012466431 .14898682 .0234375 .10699463 .082351688 .1539917 .084350589 .16499329 .11735535 .16499329 .13835144 .16499329 .17034912 .14099121 .19335938 .10998535 .19335938 .08198547 .19335938 .053985597 .17634583 .053985597 .13534546 .053985597 .041412355 .1579895-.01953125 .2789917-.01953125 .41799928-.01953125 .5139923 .07336426 .5139923 .1733551 .5139923 .2513275 .44999696 .32929994 .33999635 .35229493 .44499208 .39024354 .48298646 .4650879 .48298646 .5260773 .48298646 .60505679 .3919983 .6640625 .2809906 .6640625 .16999817 .6640625 .084991458 .61006167 .084991458 .5300751 .084991458 .49606324 .10699463 .47706605 .13699341 .47706605 .16799927 .47706605 .18798828 .5000763 .18798828 .5280762 .18798828 .5570679 .16799927 .57806399 .13699341 .5800781 .17199707 .62405398 .24099732 .63505557 .27799989 .63505557 .32299806 .63505557 .38598634 .6130676 .38598634 .5260773 .38598634 .48406983 .37199403 .43814088 .34599305 .4072113 .31298829 .36927796 .2849884 .3672943 .23498535 .36428834 .20999146 .3623047 .20799256 .3623047 .20298767 .3612976 .20098877 .3612976 .19299317 .3592987 .19299317 .34829713 .19299317 .33428956 .20199585 .33428956 .21899414 .33428956H.272995Z"/>
<path id="font_1_1" d="M.20298767 .0009918213C.20298767 .066986087 .17799378 .10598755 .13899231 .10598755 .10598755 .10598755 .085998538 .08099365 .085998538 .052993776 .085998538 .025985718 .10598755 0 .13899231 0 .15098572 0 .1639862 .0039978029 .17399597 .0129852299 .1769867 .01499939 .17799378 .015991211 .1789856 .015991211 .17999268 .015991211 .18099976 .01499939 .18099976 .0009918213 .18099976-.07316589 .1459961-.13328552 .11299133-.16635132 .101989749-.17736817 .101989749-.17936707 .101989749-.18237305 .101989749-.18936157 .10699463-.19335938 .11199951-.19335938 .12298584-.19335938 .20298767-.116256717 .20298767 .0009918213Z"/>
<path id="font_3_3" d="M.45999146 .31976319C.45999146 .39982606 .45498658 .47988893 .41999818 .5539398 .37399293 .65000918 .2919922 .6660156 .25 .6660156 .18998719 .6660156 .116989139 .64001467 .07598877 .54693606 .04399109 .47789 .038986207 .39982606 .038986207 .31976319 .038986207 .24472046 .042999269 .15464783 .083999637 .07859802 .1269989-.0024719239 .19999695-.022460938 .24899292-.022460938 .30299378-.022460938 .3789978-.0014648438 .4229889 .09359741 .45498658 .16265869 .45999146 .2407074 .45999146 .31976319M.24899292-.00047302247C.20999146-.00047302247 .15098572 .024551392 .1329956 .12062073 .12199402 .18066406 .12199402 .2727356 .12199402 .3317871 .12199402 .39582826 .12199402 .46188355 .12998963 .5159149 .14898682 .63500979 .22399903 .64401248 .24899292 .64401248 .28199769 .64401248 .34799195 .6259918 .36698915 .52693179 .3769989 .47088624 .3769989 .39482118 .3769989 .3317871 .3769989 .25672914 .3769989 .18867493 .3659973 .12461853 .35099793 .029556275 .2939911-.00047302247 .24899292-.00047302247Z"/>
<path id="font_4_2" d="M.30499269-.56007388C.30499269-.41804505 .27999879-.2170105 .14898682-.047973634 .13899231-.035964967 .07398987 .040039064 .055999757 .040039064 .050994874 .040039064 .04399109 .038024904 .04399109 .030029297 .04399109 .026031495 .04598999 .023025513 .049987794 .02003479 .09799194-.031967164 .16299439-.11299133 .20399475-.27201844 .22698975-.3630371 .23599243-.4660492 .23599243-.5590668 .23599243-.6600952 .22698975-.7621155 .20098877-.86013796 .16299439-1.0001679 .10398865-1.0801697 .052993776-1.1361847 .04399109-1.1451874 .04399109-1.1471863 .04399109-1.1491852 .04399109-1.1571808 .050994874-1.1591797 .055999757-1.1591797 .070999149-1.1591797 .12599182-1.098175 .13798523-1.0841827 .23999024-.96315 .30499269-.7831116 .30499269-.56007388Z"/>
<path id="font_3_1" d="M.33099366-.2400055C.33099366-.23701477 .33099366-.23500061 .31399537-.21800232 .18899536-.0920105 .15699768 .09700012 .15699768 .25 .15699768 .42399598 .19499207 .59799197 .31799317 .72299197 .33099366 .73498538 .33099366 .7369995 .33099366 .73999026 .33099366 .746994 .32699586 .75 .32099916 .75 .31098939 .75 .22099304 .6819916 .1619873 .5549927 .11099243 .44499208 .09899902 .33399964 .09899902 .25 .09899902 .17199707 .10998535 .050994874 .16499329-.06201172 .22499085-.18501282 .31098939-.25 .32099916-.25 .32699586-.25 .33099366-.24700928 .33099366-.2400055Z"/>
<path id="font_2_2" d="M.3889923-.8549652 .21299744-.4659729C.20599365-.44996644 .20098877-.44996644 .19799805-.44996644 .19699097-.44996644 .19198609-.44996644 .18099976-.45796205L.085998538-.52996829C.07299805-.53996279 .07299805-.54296877 .07299805-.54597476 .07299805-.55096438 .07598877-.55696108 .08299255-.55696108 .08898926-.55696108 .10598755-.54296877 .116989139-.53497317 .12298584-.52996829 .13798523-.5189667 .14898682-.51097109L.34599305-.9439697C.35299684-.95996096 .35798646-.95996096 .36698915-.95996096 .38198854-.95996096 .3849945-.95396426 .3919983-.9399719L.84599307 .000030517579C.8529968 .014038086 .8529968 .018035889 .8529968 .02003479 .8529968 .030029297 .8450012 .040039064 .83299258 .040039064 .82499697 .040039064 .81799319 .03503418 .80999758 .01902771L.3889923-.8549652Z"/>
<path id="font_3_2" d="M.2889862 .25C.2889862 .32798768 .27799989 .44898988 .22299195 .56199648 .16299439 .68499758 .07699585 .75 .066986087 .75 .06098938 .75 .056991579 .74598696 .056991579 .73999026 .056991579 .7369995 .056991579 .73498538 .07598877 .71699526 .17399597 .6179962 .23098755 .45899964 .23098755 .25 .23098755 .07899475 .19400025-.09700012 .069992069-.2230072 .056991579-.23500061 .056991579-.23701477 .056991579-.2400055 .056991579-.2460022 .06098938-.25 .066986087-.25 .07699585-.25 .16699219-.18200684 .22599793-.055007936 .2769928 .054992677 .2889862 .16600037 .2889862 .25Z"/>
</defs>
<path transform="matrix(1.00009,0,0,-1.00002,60.995225,81.31537)" stroke-width=".3985" stroke-linecap="butt" stroke-miterlimit="10" stroke-linejoin="miter" fill="none" stroke="#00aeef" d="M-59.52802-59.52802H59.52802M-59.52802-39.68535H59.52802M-59.52802-19.84267H59.52802M-59.52802 0H59.52802M-59.52802 19.84267H59.52802M-59.52802 39.68535H59.52802M-59.52802 59.52106H59.52802M-59.52802-59.52802V59.52802M-39.68535-59.52802V59.52802M-19.84267-59.52802V59.52802M0-59.52802V59.52802M19.84267-59.52802V59.52802M39.68535-59.52802V59.52802M59.52106-59.52802V59.52802M59.52802 59.52802"/>
<path transform="matrix(1.00009,0,0,-1.00002,60.995225,81.31537)" stroke-width=".79701" stroke-linecap="butt" stroke-miterlimit="10" stroke-linejoin="miter" fill="none" stroke="#000000" d="M-59.52802 0H68.01476"/>
<path transform="matrix(1.00009,0,0,-1.00002,129.01612,81.31537)" d="M1.0361 0C-.25902 .25902-1.55415 .77707-3.1083 1.68365-1.55415 .51805-1.55415-.51805-3.1083-1.68365-1.55415-.77707-.25902-.25902 1.0361 0Z"/>
<path transform="matrix(1.00009,0,0,-1.00002,129.01612,81.31537)" stroke-width=".79701" stroke-linecap="butt" stroke-linejoin="round" fill="none" stroke="#000000" d="M1.0361 0C-.25902 .25902-1.55415 .77707-3.1083 1.68365-1.55415 .51805-1.55415-.51805-3.1083-1.68365-1.55415-.77707-.25902-.25902 1.0361 0Z"/>
<use data-text="x" xlink:href="#font_1_2" transform="matrix(9.963496,0,0,-9.962799,134.1698,83.46041)"/>
<path transform="matrix(1.00009,0,0,-1.00002,60.995225,81.31537)" stroke-width=".79701" stroke-linecap="butt" stroke-miterlimit="10" stroke-linejoin="miter" fill="none" stroke="#000000" d="M0-59.52802V68.01476"/>
<path transform="matrix(0,-1.00002,-1.00009,-0,60.995225,13.29924)" d="M1.0361 0C-.25902 .25902-1.55415 .77707-3.1083 1.68365-1.55415 .51805-1.55415-.51805-3.1083-1.68365-1.55415-.77707-.25902-.25902 1.0361 0Z"/>
<path transform="matrix(0,-1.00002,-1.00009,-0,60.995225,13.29924)" stroke-width=".79701" stroke-linecap="butt" stroke-linejoin="round" fill="none" stroke="#000000" d="M1.0361 0C-.25902 .25902-1.55415 .77707-3.1083 1.68365-1.55415 .51805-1.55415-.51805-3.1083-1.68365-1.55415-.77707-.25902-.25902 1.0361 0Z"/>
<use data-text="y" xlink:href="#font_1_3" transform="matrix(9.963496,0,0,-9.962799,58.373987,6.207863)"/>
<path transform="matrix(1.00009,0,0,-1.00002,60.995225,81.31537)" stroke-width=".3985" stroke-linecap="butt" stroke-miterlimit="10" stroke-linejoin="miter" fill="none" stroke="#000000" d="M-39.68535 2.97627V-2.97658"/>
<path transform="matrix(1.00009,0,0,-1.00002,60.995225,81.31537)" d="M-47.04674-14.4116H-32.32396V-5.1683704H-47.04674Z" fill="#ffffff"/>
<use data-text="&#x2212;" xlink:href="#font_2_1" transform="matrix(9.963496,0,0,-9.962799,14.941086,93.90062)"/>
<use data-text="2" xlink:href="#font_3_4" transform="matrix(9.963496,0,0,-9.962799,22.69078,93.90062)"/>
<path transform="matrix(1.00009,0,0,-1.00002,60.995225,81.31537)" stroke-width=".3985" stroke-linecap="butt" stroke-miterlimit="10" stroke-linejoin="miter" fill="none" stroke="#000000" d="M2.97627-39.68535H-2.97658"/>
<path transform="matrix(1.00009,0,0,-1.00002,60.995225,81.31537)" d="M-19.89116-44.30696H-5.168379V-35.063734H-19.89116Z" fill="#ffffff"/>
<use data-text="&#x2212;" xlink:href="#font_2_1" transform="matrix(9.963496,0,0,-9.962799,42.098527,123.79622)"/>
<use data-text="2" xlink:href="#font_3_4" transform="matrix(9.963496,0,0,-9.962799,49.84822,123.79622)"/>
<path transform="matrix(1.00009,0,0,-1.00002,60.995225,81.31537)" stroke-width=".3985" stroke-linecap="butt" stroke-miterlimit="10" stroke-linejoin="miter" fill="none" stroke="#000000" d="M39.68535 2.97627V-2.97658"/>
<path transform="matrix(1.00009,0,0,-1.00002,60.995225,81.31537)" d="M36.19838-13.58136H43.172319V-5.16838H36.19838Z" fill="#ffffff"/>
<use data-text="2" xlink:href="#font_3_4" transform="matrix(9.963496,0,0,-9.962799,98.19357,93.90062)"/>
<path transform="matrix(1.00009,0,0,-1.00002,60.995225,81.31537)" stroke-width=".3985" stroke-linecap="butt" stroke-miterlimit="10" stroke-linejoin="miter" fill="none" stroke="#000000" d="M2.97627 39.68535H-2.97658"/>
<path transform="matrix(1.00009,0,0,-1.00002,60.995225,81.31537)" d="M-12.14232 35.47885H-5.16838V43.89183H-12.14232Z" fill="#ffffff"/>
<use data-text="2" xlink:href="#font_3_4" transform="matrix(9.963496,0,0,-9.962799,49.84822,44.83964)"/>
<path transform="matrix(1.00009,0,0,-1.00002,60.995225,81.31537)" stroke-width=".79701" stroke-linecap="butt" stroke-miterlimit="10" stroke-linejoin="miter" fill="none" stroke="#ff0000" d="M26.45679 0C26.45679 15.49829 14.61186 28.0618 0 28.0618-14.61186 28.0618-26.45679 15.49829-26.45679 0-26.45679-15.49829-14.61186-28.0618 0-28.0618 14.61186-28.0618 26.45679-15.49829 26.45679 0ZM0 0"/>
<path transform="matrix(1.00009,0,0,-1.00002,60.995225,81.31537)" d="M-24.47241 0C-24.47241 1.09593-25.36084 1.98438-26.45679 1.98438-27.55273 1.98438-28.44116 1.09593-28.44116 0-28.44116-1.09593-27.55273-1.98438-26.45679-1.98438-25.36084-1.98438-24.47241-1.09593-24.47241 0ZM-26.45679 0" fill="#ff0000"/>
<path transform="matrix(1.00009,0,0,-1.00002,60.995225,81.31537)" stroke-width=".3985" stroke-linecap="butt" stroke-miterlimit="10" stroke-linejoin="miter" fill="none" stroke="#ff0000" d="M-24.47241 0C-24.47241 1.09593-25.36084 1.98438-26.45679 1.98438-27.55273 1.98438-28.44116 1.09593-28.44116 0-28.44116-1.09593-27.55273-1.98438-26.45679-1.98438-25.36084-1.98438-24.47241-1.09593-24.47241 0ZM-26.45679 0"/>
<path transform="matrix(1.00009,0,0,-1.00002,60.995225,81.31537)" d="M-60.77582 6.17691H-27.652333V20.12486H-60.77582Z" fill="#ffffff"/>
<use data-text="(" xlink:href="#font_4_1" transform="matrix(9.963496,0,0,-9.962799,1.2098389,62.584997)" fill="#ff0000"/>
<use data-text="&#x2212;" xlink:href="#font_5_1" transform="matrix(6.9744279,0,0,-6.97394,6.972351,66.732089)" fill="#ff0000"/>
<use data-text="4" xlink:href="#font_6_2" transform="matrix(6.9744279,0,0,-6.97394,13.199921,66.732089)" fill="#ff0000"/>
<path transform="matrix(1.00009,0,0,-1.00002,-145.79239,2.3367882)" stroke-width=".3985" stroke-linecap="butt" stroke-miterlimit="10" stroke-linejoin="miter" fill="none" stroke="#ff0000" d="M152.751-65.826H162.949"/>
<use data-text="3" xlink:href="#font_6_1" transform="matrix(6.9744279,0,0,-6.97394,10.085632,74.090229)" fill="#ff0000"/>
<use data-text="," xlink:href="#font_1_1" transform="matrix(9.963496,0,0,-9.962799,18.366379,70.65515)" fill="#ff0000"/>
<use data-text="0" xlink:href="#font_3_3" transform="matrix(9.963496,0,0,-9.962799,22.79477,70.65515)" fill="#ff0000"/>
<use data-text=")" xlink:href="#font_4_2" transform="matrix(9.963496,0,0,-9.962799,27.777222,62.584997)" fill="#ff0000"/>
<path transform="matrix(1.00009,0,0,-1.00002,60.995225,81.31537)" d="M28.44116 0C28.44116 1.09593 27.55273 1.98438 26.45679 1.98438 25.36084 1.98438 24.47241 1.09593 24.47241 0 24.47241-1.09593 25.36084-1.98438 26.45679-1.98438 27.55273-1.98438 28.44116-1.09593 28.44116 0ZM26.45679 0" fill="#ff0000"/>
<path transform="matrix(1.00009,0,0,-1.00002,60.995225,81.31537)" stroke-width=".3985" stroke-linecap="butt" stroke-miterlimit="10" stroke-linejoin="miter" fill="none" stroke="#ff0000" d="M28.44116 0C28.44116 1.09593 27.55273 1.98438 26.45679 1.98438 25.36084 1.98438 24.47241 1.09593 24.47241 0 24.47241-1.09593 25.36084-1.98438 26.45679-1.98438 27.55273-1.98438 28.44116-1.09593 28.44116 0ZM26.45679 0"/>
<path transform="matrix(1.00009,0,0,-1.00002,60.995225,81.31537)" d="M29.64487 4.18436H56.541604V18.13231H29.64487Z" fill="#ffffff"/>
<use data-text="(" xlink:href="#font_4_1" transform="matrix(9.963496,0,0,-9.962799,91.638988,64.577037)" fill="#ff0000"/>
<use data-text="4" xlink:href="#font_6_2" transform="matrix(6.9744279,0,0,-6.97394,97.4015,68.72412)" fill="#ff0000"/>
<path transform="matrix(1.00009,0,0,-1.00002,-55.363245,4.328828)" stroke-width=".3985" stroke-linecap="butt" stroke-miterlimit="10" stroke-linejoin="miter" fill="none" stroke="#ff0000" d="M152.751-65.826H156.722"/>
<use data-text="3" xlink:href="#font_6_1" transform="matrix(6.9744279,0,0,-6.97394,97.40151,76.08226)" fill="#ff0000"/>
<use data-text="," xlink:href="#font_1_1" transform="matrix(9.963496,0,0,-9.962799,102.56896,72.647197)" fill="#ff0000"/>
<use data-text="0" xlink:href="#font_3_3" transform="matrix(9.963496,0,0,-9.962799,106.99737,72.647197)" fill="#ff0000"/>
<use data-text=")" xlink:href="#font_4_2" transform="matrix(9.963496,0,0,-9.962799,111.97881,64.577037)" fill="#ff0000"/>
<path transform="matrix(1.00009,0,0,-1.00002,60.995225,81.31537)" d="M1.98438 28.0618C1.98438 29.15773 1.09593 30.04617 0 30.04617-1.09593 30.04617-1.98438 29.15773-1.98438 28.0618-1.98438 26.96585-1.09593 26.07742 0 26.07742 1.09593 26.07742 1.98438 26.96585 1.98438 28.0618ZM0 28.0618" fill="#ff0000"/>
<path transform="matrix(1.00009,0,0,-1.00002,60.995225,81.31537)" stroke-width=".3985" stroke-linecap="butt" stroke-miterlimit="10" stroke-linejoin="miter" fill="none" stroke="#ff0000" d="M1.98438 28.0618C1.98438 29.15773 1.09593 30.04617 0 30.04617-1.09593 30.04617-1.98438 29.15773-1.98438 28.0618-1.98438 26.96585-1.09593 26.07742 0 26.07742 1.09593 26.07742 1.98438 26.96585 1.98438 28.0618ZM0 28.0618"/>
<path transform="matrix(1.00009,0,0,-1.00002,60.995225,81.31537)" d="M3.18808 30.2536H35.62247V43.775239H3.18808Z" fill="#ffffff"/>
<use data-text="(" xlink:href="#font_3_1" transform="matrix(9.963496,0,0,-9.962799,65.1796,47.573694)" fill="#ff0000"/>
<use data-text="0" xlink:href="#font_3_3" transform="matrix(9.963496,0,0,-9.962799,69.04545,47.573694)" fill="#ff0000"/>
<use data-text="," xlink:href="#font_1_1" transform="matrix(9.963496,0,0,-9.962799,74.0364,47.573694)" fill="#ff0000"/>
<use data-text="&#x221a;" xlink:href="#font_2_2" transform="matrix(9.963496,0,0,-9.962799,78.46479,39.332529)" fill="#ff0000"/>
<path transform="matrix(1.00009,0,0,-1.00002,-81.822628,-20.744675)" stroke-width=".3985" stroke-linecap="butt" stroke-miterlimit="10" stroke-linejoin="miter" fill="none" stroke="#ff0000" d="M168.575-59.876H173.556"/>
<use data-text="2" xlink:href="#font_3_4" transform="matrix(9.963496,0,0,-9.962799,86.76754,47.573694)" fill="#ff0000"/>
<use data-text=")" xlink:href="#font_3_2" transform="matrix(9.963496,0,0,-9.962799,91.74929,47.573694)" fill="#ff0000"/>
<path transform="matrix(1.00009,0,0,-1.00002,60.995225,81.31537)" d="M1.98438-28.0618C1.98438-26.96585 1.09593-26.07742 0-26.07742-1.09593-26.07742-1.98438-26.96585-1.98438-28.0618-1.98438-29.15773-1.09593-30.04617 0-30.04617 1.09593-30.04617 1.98438-29.15773 1.98438-28.0618ZM0-28.0618" fill="#ff0000"/>
<path transform="matrix(1.00009,0,0,-1.00002,60.995225,81.31537)" stroke-width=".3985" stroke-linecap="butt" stroke-miterlimit="10" stroke-linejoin="miter" fill="none" stroke="#ff0000" d="M1.98438-28.0618C1.98438-26.96585 1.09593-26.07742 0-26.07742-1.09593-26.07742-1.98438-26.96585-1.98438-28.0618-1.98438-29.15773-1.09593-30.04617 0-30.04617 1.09593-30.04617 1.98438-29.15773 1.98438-28.0618ZM0-28.0618"/>
<path transform="matrix(1.00009,0,0,-1.00002,60.995225,81.31537)" d="M2.1918-44.77151H42.37503V-31.24987H2.1918Z" fill="#ffffff"/>
<use data-text="(" xlink:href="#font_3_1" transform="matrix(9.963496,0,0,-9.962799,64.18351,122.6012)" fill="#ff0000"/>
<use data-text="0" xlink:href="#font_3_3" transform="matrix(9.963496,0,0,-9.962799,68.049358,122.6012)" fill="#ff0000"/>
<use data-text="," xlink:href="#font_1_1" transform="matrix(9.963496,0,0,-9.962799,73.040309,122.6012)" fill="#ff0000"/>
<use data-text="&#x2212;" xlink:href="#font_2_1" transform="matrix(9.963496,0,0,-9.962799,77.4687,122.6012)" fill="#ff0000"/>
<use data-text="&#x221a;" xlink:href="#font_2_2" transform="matrix(9.963496,0,0,-9.962799,85.21839,114.36003)" fill="#ff0000"/>
<path transform="matrix(1.00009,0,0,-1.00002,-82.81872,54.28283)" stroke-width=".3985" stroke-linecap="butt" stroke-miterlimit="10" stroke-linejoin="miter" fill="none" stroke="#ff0000" d="M176.324-59.876H181.305"/>
<use data-text="2" xlink:href="#font_3_4" transform="matrix(9.963496,0,0,-9.962799,93.52116,122.6012)" fill="#ff0000"/>
<use data-text=")" xlink:href="#font_3_2" transform="matrix(9.963496,0,0,-9.962799,98.50289,122.6012)" fill="#ff0000"/>
</svg>
