<svg xmlns="http://www.w3.org/2000/svg" xmlns:xlink="http://www.w3.org/1999/xlink" version="1.1" width="167" height="145" viewBox="0 0 167 145">
<defs>
<path id="font_1_3" d="M.33399964 .30233766C.33999635 .32835389 .36299134 .42037965 .43299867 .42037965 .43798829 .42037965 .46199037 .42037965 .48298646 .40734864 .45498658 .402359 .43499757 .37734986 .43499757 .35334779 .43499757 .33735658 .44599916 .31835938 .47299195 .31835938 .49499513 .31835938 .5269928 .3363495 .5269928 .37635804 .5269928 .42837525 .46798707 .4423828 .43399049 .4423828 .37599183 .4423828 .34098817 .38935853 .32899476 .36634828 .3039856 .43237306 .25 .4423828 .22099304 .4423828 .116989139 .4423828 .05999756 .3133545 .05999756 .28834535 .05999756 .27833558 .069992069 .27833558 .07199097 .27833558 .07998657 .27833558 .08299255 .28033448 .084991458 .28933717 .11898804 .39535523 .18499756 .42037965 .21899414 .42037965 .23799134 .42037965 .272995 .4113617 .272995 .35334779 .272995 .32235719 .2559967 .25532533 .21899414 .11528015 .20298767 .053268434 .16799927 .011245728 .12399292 .011245728 .117996219 .011245728 .09498596 .011245728 .07398987 .024276734 .09899902 .029266358 .12098694 .05027771 .12098694 .07827759 .12098694 .105270389 .09899902 .11328125 .083999637 .11328125 .053985597 .11328125 .0289917 .08728027 .0289917 .055267335 .0289917 .009246826 .07899475-.0107421879 .12298584-.0107421879 .18899536-.0107421879 .22499085 .059280397 .22799683 .0652771 .23999024 .028274537 .27598573-.0107421879 .33599855-.0107421879 .43899537-.0107421879 .49598695 .118270877 .49598695 .14328003 .49598695 .1532898 .4869995 .1532898 .48399354 .1532898 .47499085 .1532898 .47299195 .14929199 .47099305 .14228821 .43798829 .03527832 .36999513 .011245728 .33799745 .011245728 .29899598 .011245728 .2829895 .043273927 .2829895 .07727051 .2829895 .09927368 .2889862 .121276859 .2999878 .16529846L.33399964 .30233766Z"/>
<path id="font_1_2" d="M.47099305 .3773346C.47200013 .3833313 .47399903 .38833619 .47399903 .39535523 .47399903 .41236878 .46199037 .42237855 .44499208 .42237855 .43499757 .42237855 .4079895 .41537477 .4039917 .3793335 .38598634 .41636659 .35099793 .4423828 .31098939 .4423828 .19699097 .4423828 .07299805 .30226136 .07299805 .15812683 .07299805 .059020997 .13398743 0 .20599365 0 .2649994 0 .31199647 .04701233 .32199098 .058029176L.32299806 .057022096C.3019867-.031982423 .2899933-.07295227 .2899933-.07495117 .28599549-.08395386 .2519989-.18309021 .1459961-.18309021 .1269989-.18309021 .09399414-.18206787 .06599426-.17297364 .09599304-.16394043 .10699463-.13793946 .10699463-.12094116 .10699463-.10494995 .09599304-.0859375 .068984989-.0859375 .04699707-.0859375 .01499939-.10394287 .01499939-.14395142 .01499939-.18508911 .051986696-.20507813 .147995-.20507813 .272995-.20507813 .34498597-.12693787 .3600006-.06695557L.47099305 .3773346M.34098817 .12809754C.33499146 .10206604 .31199647 .077041629 .2899933 .058029176 .2689972 .040008546 .23799134 .021987915 .20899964 .021987915 .15899658 .021987915 .14399719 .074035648 .14399719 .11407471 .14399719 .16212464 .17298889 .28024293 .19999695 .33128358 .22698975 .38034059 .269989 .42037965 .31199647 .42037965 .37799073 .42037965 .3919983 .33929444 .3919983 .33428956 .3919983 .32928468 .3899994 .3232727 .3889923 .3192749L.34098817 .12809754Z"/>
<path id="font_2_1" d="M.33099366-.2400055C.33099366-.23701477 .33099366-.23500061 .31399537-.21800232 .18899536-.0920105 .15699768 .09700012 .15699768 .25 .15699768 .42399598 .19499207 .59799197 .31799317 .72299197 .33099366 .73498538 .33099366 .7369995 .33099366 .73999026 .33099366 .746994 .32699586 .75 .32099916 .75 .31098939 .75 .22099304 .6819916 .1619873 .5549927 .11099243 .44499208 .09899902 .33399964 .09899902 .25 .09899902 .17199707 .10998535 .050994874 .16499329-.06201172 .22499085-.18501282 .31098939-.25 .32099916-.25 .32699586-.25 .33099366-.24700928 .33099366-.2400055Z"/>
<path id="font_2_2" d="M.2889862 .25C.2889862 .32798768 .27799989 .44898988 .22299195 .56199648 .16299439 .68499758 .07699585 .75 .066986087 .75 .06098938 .75 .056991579 .74598696 .056991579 .73999026 .056991579 .7369995 .056991579 .73498538 .07598877 .71699526 .17399597 .6179962 .23098755 .45899964 .23098755 .25 .23098755 .07899475 .19400025-.09700012 .069992069-.2230072 .056991579-.23500061 .056991579-.23701477 .056991579-.2400055 .056991579-.2460022 .06098938-.25 .066986087-.25 .07699585-.25 .16699219-.18200684 .22599793-.055007936 .2769928 .054992677 .2889862 .16600037 .2889862 .25Z"/>
<path id="font_3_1" d="M.6589966 .23046875C.6759949 .23046875 .69400027 .23046875 .69400027 .25045777 .69400027 .27046205 .6759949 .27046205 .6589966 .27046205H.117996219C.100997928 .27046205 .08299255 .27046205 .08299255 .25045777 .08299255 .23046875 .100997928 .23046875 .117996219 .23046875H.6589966Z"/>
<path id="font_2_8" d="M.44898988 .20022583C.44898988 .3193512 .36698915 .41944886 .25898744 .41944886 .21099854 .41944886 .16799927 .40345765 .13198853 .36842347V.5637665C.1519928 .5577698 .18499756 .55078127 .21699524 .55078127 .33999635 .55078127 .4099884 .6417694 .4099884 .6547699 .4099884 .6607666 .40699769 .6657715 .3999939 .6657715 .39898683 .6657715 .39698792 .6657715 .3919983 .66278079 .37199403 .6537781 .32299806 .6337738 .2559967 .6337738 .21598816 .6337738 .16999817 .6407776 .12298584 .6617737 .114990238 .66477969 .11299133 .66477969 .11099243 .66477969 .100997928 .66477969 .100997928 .6567688 .100997928 .6407776V.34439088C.100997928 .32637025 .100997928 .31835938 .114990238 .31835938 .12199402 .31835938 .12399292 .32136537 .12799073 .32736207 .13899231 .3433838 .17599488 .39746095 .25698854 .39746095 .30899049 .39746095 .33399964 .35139466 .34199525 .33337403 .35798646 .29632569 .3600006 .25727845 .3600006 .20722962 .3600006 .17222595 .3600006 .11222839 .33599855 .07035828 .31199647 .031463624 .2749939 .0055389406 .22898865 .0055389406 .1559906 .0055389406 .09899902 .058380128 .08198547 .11723328 .084991458 .1162262 .08799744 .115234378 .09899902 .115234378 .13198853 .115234378 .14898682 .14022827 .14898682 .16423035 .14898682 .18823242 .13198853 .21322632 .09899902 .21322632 .084991458 .21322632 .049987794 .20622254 .049987794 .16023255 .049987794 .07434082 .11898804-.022460938 .23098755-.022460938 .34700013-.022460938 .44898988 .073349 .44898988 .20022583Z"/>
<path id="font_2_4" d="M.2939911 .64004519C.2939911 .66400149 .2939911 .6660156 .2709961 .6660156 .20899964 .60227969 .12098694 .60227969 .08898926 .60227969V.57128909C.10899353 .57128909 .16799927 .57128909 .21998596 .5972748V.07902527C.21998596 .042999269 .21699524 .0309906 .1269989 .0309906H.09498596V0C.12998963 .0029907227 .21699524 .0029907227 .25698854 .0029907227 .29699708 .0029907227 .38398744 .0029907227 .4189911 0V.0309906H.3869934C.29699708 .0309906 .2939911 .041992189 .2939911 .07902527V.64004519Z"/>
<path id="font_2_3" d="M.45999146 .31976319C.45999146 .39982606 .45498658 .47988893 .41999818 .5539398 .37399293 .65000918 .2919922 .6660156 .25 .6660156 .18998719 .6660156 .116989139 .64001467 .07598877 .54693606 .04399109 .47789 .038986207 .39982606 .038986207 .31976319 .038986207 .24472046 .042999269 .15464783 .083999637 .07859802 .1269989-.0024719239 .19999695-.022460938 .24899292-.022460938 .30299378-.022460938 .3789978-.0014648438 .4229889 .09359741 .45498658 .16265869 .45999146 .2407074 .45999146 .31976319M.24899292-.00047302247C.20999146-.00047302247 .15098572 .024551392 .1329956 .12062073 .12199402 .18066406 .12199402 .2727356 .12199402 .3317871 .12199402 .39582826 .12199402 .46188355 .12998963 .5159149 .14898682 .63500979 .22399903 .64401248 .24899292 .64401248 .28199769 .64401248 .34799195 .6259918 .36698915 .52693179 .3769989 .47088624 .3769989 .39482118 .3769989 .3317871 .3769989 .25672914 .3769989 .18867493 .3659973 .12461853 .35099793 .029556275 .2939911-.00047302247 .24899292-.00047302247Z"/>
<path id="font_2_10" d="M.68699648 .32714845C.70199587 .32714845 .72099307 .32714845 .72099307 .34713746 .72099307 .36714173 .70199587 .36714173 .6879883 .36714173H.08898926C.07499695 .36714173 .055999757 .36714173 .055999757 .34713746 .055999757 .32714845 .07499695 .32714845 .08999634 .32714845H.68699648M.6879883 .13284302C.70199587 .13284302 .72099307 .13284302 .72099307 .15284729 .72099307 .17285156 .70199587 .17285156 .68699648 .17285156H.08999634C.07499695 .17285156 .055999757 .17285156 .055999757 .15284729 .055999757 .13284302 .07499695 .13284302 .08898926 .13284302H.6879883Z"/>
<path id="font_4_1" d="M.33499146 .63612368C.33499146 .6630554 .33299256 .6640625 .30499269 .6640625 .24099732 .6014404 .1499939 .6004486 .10899353 .6004486V.5644531C.1329956 .5644531 .19898987 .5644531 .2539978 .592453V.08203125C.2539978 .04899597 .2539978 .035995485 .1539917 .035995485H.115997318V0C.13398743 .0009918213 .25698854 .0039978029 .2939911 .0039978029 .32499696 .0039978029 .45098878 .0009918213 .47299195 0V.035995485H.43499757C.33499146 .035995485 .33499146 .04899597 .33499146 .08203125V.63612368Z"/>
<path id="font_4_2" d="M.5049896 .18203736H.47099305C.46798707 .16001892 .45799256 .100997928 .44499208 .09098816 .43699647 .084991458 .3600006 .084991458 .34599305 .084991458H.1619873C.2669983 .17803955 .3019867 .20603943 .3619995 .25306703 .43598939 .312088 .5049896 .374115 .5049896 .46914674 .5049896 .5900879 .39898683 .6640625 .2709961 .6640625 .14698792 .6640625 .06298828 .57710269 .06298828 .4851532 .06298828 .43414308 .10598755 .42915345 .115997318 .42915345 .13999939 .42915345 .16899109 .44615174 .16899109 .48214723 .16899109 .5001526 .1619873 .53515627 .10998535 .53515627 .14099121 .6060791 .20899964 .62805178 .2559967 .62805178 .35598756 .62805178 .4079895 .5501404 .4079895 .46914674 .4079895 .38212586 .34599305 .3130951 .31399537 .27708436L.07299805 .038986207C.06298828 .02999878 .06298828 .027999878 .06298828 0H.47499085L.5049896 .18203736Z"/>
<path id="font_5_1" d="M.24899292 .10601807C.23899842 .072021488 .20599365 .018234253 .15499878 .018234253 .1519928 .018234253 .12199402 .018234253 .100997928 .03215027 .14199829 .04508972 .14498902 .08100891 .14498902 .087020877 .14498902 .10900879 .12799073 .12402344 .10499573 .12402344 .07699585 .12402344 .04798889 .10002136 .04798889 .0630188 .04798889 .01322937 .10398865-.009765625 .15299988-.009765625 .19898987-.009765625 .23999024 .019226075 .2649994 .061019899 .2889862 .008224487 .34399415-.009765625 .38398744-.009765625 .49899293-.009765625 .55999758 .11502075 .55999758 .14305115 .55999758 .15608216 .5469971 .15608216 .5439911 .15608216 .5299988 .15608216 .5289917 .15107727 .5249939 .13905335 .5039978 .07002258 .44400025 .018234253 .3880005 .018234253 .34799195 .018234253 .32699586 .04508972 .32699586 .08302307 .32699586 .10900879 .35099793 .20018006 .3789978 .31140138 .39898683 .38841249 .44400025 .4133911 .47698976 .4133911 .47898866 .4133911 .5099945 .4133911 .5309906 .39941407 .49899293 .39041139 .4869995 .3624115 .4869995 .34440614 .4869995 .32240296 .5039978 .30740357 .5269928 .30740357 .5499878 .30740357 .58299258 .32640077 .58299258 .3684082 .58299258 .4243927 .5189972 .44140626 .47898866 .44140626 .42900086 .44140626 .3889923 .4084015 .36698915 .3704071 .34899903 .4113922 .30299378 .44140626 .24699402 .44140626 .1349945 .44140626 .070999149 .31840516 .070999149 .2883606 .070999149 .27534486 .084991458 .27534486 .08799744 .27534486 .100997928 .27534486 .101989749 .27934266 .10699463 .29237367 .13198853 .3704071 .19499207 .4133911 .24398804 .4133911 .2769928 .4133911 .3039856 .395401 .3039856 .3474121 .3039856 .32740785 .2919922 .27734376 .2829895 .24327088L.24899292 .10601807Z"/>
<path id="font_2_6" d="M.2899933 .35191346C.37199403 .37893678 .42999269 .4490509 .42999269 .52809146 .42999269 .6100464 .34199525 .6660156 .24598694 .6660156 .14498902 .6660156 .068984989 .60606387 .068984989 .53009036 .068984989 .49710084 .09098816 .47808839 .11999512 .47808839 .15098572 .47808839 .17098999 .50009158 .17098999 .5290985 .17098999 .57910159 .12399292 .57910159 .10899353 .57910159 .13999939 .62802127 .20599365 .64100649 .24198914 .64100649 .2829895 .64100649 .33799745 .6190338 .33799745 .5290985 .33799745 .51708987 .33599855 .45906068 .30999757 .4149933 .27999879 .36691285 .24598694 .36390687 .22099304 .36291505 .21299744 .36190797 .18899536 .35990907 .18199158 .35990907 .17399597 .35890199 .16699219 .35791017 .16699219 .3479004 .16699219 .33691407 .17399597 .33691407 .19099427 .33691407H.23498535C.31698609 .33691407 .35398866 .2686615 .35398866 .17037964 .35398866 .034469606 .2849884 .0055389406 .24099732 .0055389406 .19799805 .0055389406 .12298584 .022491456 .08799744 .08137512 .12298584 .07637024 .1539917 .09837341 .1539917 .1363678 .1539917 .17237854 .1269989 .19238281 .09799194 .19238281 .07398987 .19238281 .041992189 .17837525 .041992189 .1343689 .041992189 .043441774 .1349945-.022460938 .24398804-.022460938 .3659973-.022460938 .45700074 .06838989 .45700074 .17037964 .45700074 .252594 .3939972 .33088685 .2899933 .35191346Z"/>
<path id="font_1_1" d="M.20298767 .0009918213C.20298767 .066986087 .17799378 .10598755 .13899231 .10598755 .10598755 .10598755 .085998538 .08099365 .085998538 .052993776 .085998538 .025985718 .10598755 0 .13899231 0 .15098572 0 .1639862 .0039978029 .17399597 .0129852299 .1769867 .01499939 .17799378 .015991211 .1789856 .015991211 .17999268 .015991211 .18099976 .01499939 .18099976 .0009918213 .18099976-.07316589 .1459961-.13328552 .11299133-.16635132 .101989749-.17736817 .101989749-.17936707 .101989749-.18237305 .101989749-.18936157 .10699463-.19335938 .11199951-.19335938 .12298584-.19335938 .20298767-.116256717 .20298767 .0009918213Z"/>
<path id="font_2_9" d="M.16299439 .4569702C.116989139 .486969 .11299133 .52098086 .11299133 .5379791 .11299133 .598999 .17799378 .64100649 .24899292 .64100649 .32199098 .64100649 .38598634 .58898928 .38598634 .51698306 .38598634 .45996095 .34700013 .4119568 .2869873 .37695313L.16299439 .4569702M.30899049 .36193849C.3809967 .3989563 .42999269 .45095826 .42999269 .51698306 .42999269 .6090088 .34098817 .6660156 .25 .6660156 .1499939 .6660156 .068984989 .59199526 .068984989 .49897767 .068984989 .4809723 .070999149 .43595887 .11299133 .38894654 .12399292 .37695313 .16099549 .35194398 .18598938 .33494569 .12799073 .30592347 .041992189 .24984741 .041992189 .15072632 .041992189 .04458618 .14399719-.022460938 .24899292-.022460938 .3619995-.022460938 .45700074 .06060791 .45700074 .16773987 .45700074 .20379639 .44599916 .24885559 .4079895 .2909088 .3889923 .31193543 .37298585 .3219452 .30899049 .36193849M.20899964 .3199463 .33198548 .24183655C.3600006 .2228241 .40699769 .19277954 .40699769 .13169861 .40699769 .05760193 .33198548 .0055389406 .25 .0055389406 .1639862 .0055389406 .09199524 .067611698 .09199524 .15072632 .09199524 .20880127 .12399292 .27288819 .20899964 .3199463Z"/>
<path id="font_2_5" d="M.1269989 .07699585 .23298645 .18003845C.3889923 .31811524 .44898988 .3721466 .44898988 .47216798 .44898988 .5860901 .35899354 .6660156 .23699951 .6660156 .12399292 .6660156 .049987794 .57411196 .049987794 .48516847 .049987794 .4291687 .099990848 .4291687 .102996829 .4291687 .11999512 .4291687 .15499878 .44117738 .15499878 .48217774 .15499878 .5081787 .13699341 .5341797 .101989749 .5341797 .09399414 .5341797 .09199524 .5341797 .08898926 .5331726 .11199951 .59806826 .1659851 .63500979 .22399903 .63500979 .31498719 .63500979 .35798646 .5541382 .35798646 .47216798 .35798646 .39215089 .30799867 .31311036 .25299073 .25108338L.06098938 .036987306C.049987794 .025985718 .049987794 .023986817 .049987794 0H.42099L.44898988 .17404175H.42399598C.4189911 .14402771 .4119873 .1000061 .4019928 .084991458 .394989 .07699585 .32899476 .07699585 .30699159 .07699585H.1269989Z"/>
<path id="font_2_7" d="M.2939911 .16503906V.07800293C.2939911 .041992189 .2919922 .0309906 .21798706 .0309906H.19699097V0C.23799134 .0029907227 .2899933 .0029907227 .33198548 .0029907227 .37399293 .0029907227 .4269867 .0029907227 .46798707 0V.0309906H.44699098C.37298585 .0309906 .37098695 .041992189 .37098695 .07800293V.16503906H.47099305V.19602967H.37098695V.65075686C.37098695 .67074587 .37098695 .6767578 .35499574 .6767578 .34599305 .6767578 .34298707 .6767578 .33499146 .66474917L.027999878 .19602967V.16503906H.2939911M.2999878 .19602967H.055999757L.2999878 .5688019V.19602967Z"/>
<path id="font_4_3" d="M.5289917 .1640625V.20005799H.41799928V.64582827C.41799928 .66682437 .41799928 .6738281 .3959961 .6738281 .38398744 .6738281 .37998963 .6738281 .36999513 .65982058L.038986207 .20005799V.1640625H.33299256V.08201599C.33299256 .04800415 .33299256 .035995485 .2519989 .035995485H.22499085V0C.2749939 .0019989014 .33898927 .0039978029 .375 .0039978029 .4119873 .0039978029 .47599793 .0019989014 .526001 0V.035995485H.49899293C.41799928 .035995485 .41799928 .04800415 .41799928 .08201599V.1640625H.5289917M.33999635 .5658722V.20005799H.07598877L.33999635 .5658722Z"/>
<path id="font_4_4" d="M.35499574 .36123658C.43299867 .3992157 .48298646 .44618226 .48298646 .5151367 .48298646 .6120758 .38198854 .6640625 .2849884 .6640625 .1749878 .6640625 .084991458 .5920868 .084991458 .4971466 .084991458 .45018006 .10699463 .41619874 .125 .39620973 .14299011 .37522889 .1499939 .37123109 .20899964 .33624269 .15299988 .31227113 .053985597 .25830079 .053985597 .15336609 .053985597 .042434694 .16899109-.01953125 .2829895-.01953125 .4099884-.01953125 .5139923 .061431886 .5139923 .1693573 .5139923 .23532105 .47499085 .29127503 .4169922 .32525636 .4039917 .33325196 .36898805 .35324098 .35499574 .36123658M.19198609 .45617677C.1659851 .4711609 .13798523 .49813844 .13798523 .53512576 .13798523 .5980835 .21099854 .63505557 .2829895 .63505557 .36099244 .63505557 .42999269 .5860901 .42999269 .5151367 .42999269 .42619325 .32598878 .3812256 .32398988 .3812256 .32199098 .3812256 .31999208 .3822174 .31298829 .3862152L.19198609 .45617677M.24099732 .31726075 .37799073 .23831177C.4039917 .22332764 .45399476 .19334412 .45399476 .13438416 .45399476 .059432985 .37098695 .012466431 .2849884 .012466431 .19299317 .012466431 .11399841 .07142639 .11399841 .15336609 .11399841 .22732544 .16899109 .2842865 .24099732 .31726075Z"/>
</defs>
<path transform="matrix(1.00006,0,0,-1.00003,78.34698,131.67856)" stroke-width=".3985" stroke-linecap="butt" stroke-miterlimit="10" stroke-linejoin="miter" fill="none" stroke="#00aeef" d="M-69.45088 0H69.45088M-69.45088 9.92155H69.45088M-69.45088 19.84311H69.45088M-69.45088 29.76466H69.45088M-69.45088 39.68622H69.45088M-69.45088 49.60777H69.45088M-69.45088 59.52933H69.45088M-69.45088 69.45088H69.45088M-69.45088 79.37244H69.45088M-69.45088 89.29399H69.45088M-69.45088 99.21555H69.45088M-69.45088 109.13362H69.45088M-69.45088 0V109.13712M-59.52933 0V109.13712M-49.60777 0V109.13712M-39.68622 0V109.13712M-29.76466 0V109.13712M-19.84311 0V109.13712M-9.92155 0V109.13712M0 0V109.13712M9.92155 0V109.13712M19.84311 0V109.13712M29.76466 0V109.13712M39.68622 0V109.13712M49.60777 0V109.13712M59.52933 0V109.13712M69.44739 0V109.13712M69.45088 109.13712"/>
<path transform="matrix(1.00006,0,0,-1.00003,78.34698,131.67856)" stroke-width=".79701" stroke-linecap="butt" stroke-miterlimit="10" stroke-linejoin="miter" fill="none" stroke="#000000" d="M-69.45088 0H76.94562"/>
<path transform="matrix(1.00006,0,0,-1.00003,155.29721,131.67856)" d="M1.0361 0C-.25902 .25902-1.55415 .77707-3.1083 1.68365-1.55415 .51805-1.55415-.51805-3.1083-1.68365-1.55415-.77707-.25902-.25902 1.0361 0Z"/>
<path transform="matrix(1.00006,0,0,-1.00003,155.29721,131.67856)" stroke-width=".79701" stroke-linecap="butt" stroke-linejoin="round" fill="none" stroke="#000000" d="M1.0361 0C-.25902 .25902-1.55415 .77707-3.1083 1.68365-1.55415 .51805-1.55415-.51805-3.1083-1.68365-1.55415-.77707-.25902-.25902 1.0361 0Z"/>
<use data-text="x" xlink:href="#font_1_3" transform="matrix(9.963197,0,0,-9.962899,160.4509,133.82363)"/>
<path transform="matrix(1.00006,0,0,-1.00003,78.34698,131.67856)" stroke-width=".79701" stroke-linecap="butt" stroke-miterlimit="10" stroke-linejoin="miter" fill="none" stroke="#000000" d="M0 0V116.63184"/>
<path transform="matrix(0,-1.00003,-1.00006,-0,78.34698,15.043213)" d="M1.0361 0C-.25902 .25902-1.55415 .77707-3.1083 1.68365-1.55415 .51805-1.55415-.51805-3.1083-1.68365-1.55415-.77707-.25902-.25902 1.0361 0Z"/>
<path transform="matrix(0,-1.00003,-1.00006,-0,78.34698,15.043213)" stroke-width=".79701" stroke-linecap="butt" stroke-linejoin="round" fill="none" stroke="#000000" d="M1.0361 0C-.25902 .25902-1.55415 .77707-3.1083 1.68365-1.55415 .51805-1.55415-.51805-3.1083-1.68365-1.55415-.77707-.25902-.25902 1.0361 0Z"/>
<use data-text="g" xlink:href="#font_1_2" transform="matrix(9.963197,0,0,-9.962899,69.07042,9.390892)"/>
<use data-text="(" xlink:href="#font_2_1" transform="matrix(9.963197,0,0,-9.962899,74.17972,9.390892)"/>
<use data-text="x" xlink:href="#font_1_3" transform="matrix(9.963197,0,0,-9.962899,78.05394,9.390892)"/>
<use data-text=")" xlink:href="#font_2_2" transform="matrix(9.963197,0,0,-9.962899,83.748279,9.390892)"/>
<path transform="matrix(1.00006,0,0,-1.00003,78.34698,131.67856)" stroke-width=".79701" stroke-linecap="butt" stroke-miterlimit="10" stroke-linejoin="miter" fill="none" stroke="#000000" d="M-49.60777 1.48816V-1.48831"/>
<use data-text="&#x2212;" xlink:href="#font_3_1" transform="matrix(9.963197,0,0,-9.962899,22.37062,143.30692)"/>
<use data-text="5" xlink:href="#font_2_8" transform="matrix(9.963197,0,0,-9.962899,30.120072,143.30692)"/>
<path transform="matrix(1.00006,0,0,-1.00003,78.34698,131.67856)" stroke-width=".79701" stroke-linecap="butt" stroke-miterlimit="10" stroke-linejoin="miter" fill="none" stroke="#000000" d="M49.60777 1.48816V-1.48831"/>
<use data-text="5" xlink:href="#font_2_8" transform="matrix(9.963197,0,0,-9.962899,125.466808,143.30692)"/>
<path transform="matrix(1.00006,0,0,-1.00003,78.34698,131.67856)" stroke-width=".79701" stroke-linecap="butt" stroke-miterlimit="10" stroke-linejoin="miter" fill="none" stroke="#000000" d="M1.48816 49.60777H-1.48831"/>
<use data-text="5" xlink:href="#font_2_8" transform="matrix(9.963197,0,0,-9.962899,68.157367,85.27917)"/>
<path transform="matrix(1.00006,0,0,-1.00003,78.34698,131.67856)" stroke-width=".79701" stroke-linecap="butt" stroke-miterlimit="10" stroke-linejoin="miter" fill="none" stroke="#000000" d="M1.48816 99.21555H-1.48831"/>
<use data-text="1" xlink:href="#font_2_4" transform="matrix(9.963197,0,0,-9.962899,63.17607,35.670679)"/>
<use data-text="0" xlink:href="#font_2_3" transform="matrix(9.963197,0,0,-9.962899,68.15765,35.670679)"/>
<path transform="matrix(1.00006,0,0,-1.00003,78.34698,131.67856)" stroke-width="1.19553" stroke-linecap="butt" stroke-miterlimit="10" stroke-linejoin="miter" fill="none" stroke="#ff0000" d="M67.57802 .08777C68.27942 .08401 68.27942 .08401 67.82948 .08673 67.37955 .08945 66.65802 .09406 66.20808 .09703 65.75816 .09999 65.03662 .10477 64.58669 .10808 64.13676 .11139 63.41522 .11708 62.9653 .12094 62.51537 .1248 61.79382 .13152 61.3439 .13593 60.89397 .14034 60.17244 .14792 59.7225 .15273 59.27257 .15755 58.55104 .16522 58.1011 .17061 57.65117 .17596 56.92964 .18544 56.4797 .1915 56.02977 .19754 55.30824 .20746 54.8583 .2142 54.40837 .22093 53.68684 .23251 53.23691 .2401 52.78697 .24768 52.06544 .26033 51.61551 .26886 51.16557 .27739 50.44405 .29205 49.99411 .30156 49.54419 .31104 48.82265 .32668 48.37271 .33728 47.92279 .34789 47.20125 .36604 46.75133 .378 46.30139 .38998 45.57985 .41022 45.12993 .42357 44.68 .43692 43.95847 .4594 43.50853 .47429 43.0586 .48918 42.33707 .51411 41.88713 .5309 41.4372 .5477 40.71567 .57654 40.26573 .59541 39.8158 .61426 39.09427 .64594 38.64433 .66685 38.1944 .68777 37.47287 .72278 37.02293 .74619 36.573 .76958 35.85147 .80905 35.40154 .83551 34.9516 .86194 34.23007 .9072 33.78014 .93678 33.33022 .96638 32.60867 1.0158 32.15874 1.04883 31.70882 1.08186 30.98727 1.13788 30.53735 1.17493 30.08742 1.21198 29.36588 1.27443 28.91595 1.31587 28.46602 1.35732 27.74449 1.42723 27.29457 1.47363 26.84464 1.52002 26.1231 1.59839 25.67316 1.65028 25.22324 1.7022 24.5017 1.78946 24.05176 1.8477 23.60184 1.90596 22.8803 2.00484 22.43036 2.07011 21.98044 2.13536 21.2589 2.24512 20.80896 2.31808 20.35904 2.39105 19.6375 2.51425 19.18756 2.59604 18.73764 2.67783 18.0161 2.8159 17.56616 2.9076 17.11626 2.9993 16.3947 3.1543 15.94476 3.257 15.49486 3.35973 14.7733 3.53293 14.32338 3.6479 13.87346 3.76286 13.15192 3.95695 12.702 4.08557 12.25206 4.21417 11.53053 4.43071 11.0806 4.57486 10.63066 4.71902 9.90913 4.96306 9.4592 5.12456 9.00926 5.28607 8.28773 5.55812 7.8378 5.7389 7.38786 5.91971 6.66634 6.22504 6.2164 6.42758 5.76646 6.63014 5.04494 6.97198 4.595 7.19876 4.14507 7.42557 3.42354 7.80824 2.9736 8.06215 2.52367 8.31607 1.80212 8.7447 1.3522 9.02878 .90228 9.31288 .18074 9.7915-.26917 10.10973-.71907 10.42793-1.44063 10.96555-1.89055 11.32222-2.34047 11.67886-3.06203 12.28091-3.51195 12.68034-3.96187 13.07977-4.68341 13.7537-5.13335 14.20105-5.58328 14.64842-6.30481 15.40352-6.75475 15.90465-7.20468 16.4058-7.92621 17.25177-8.37614 17.81294-8.82608 18.3741-9.5476 19.32077-9.99754 19.94922-10.44748 20.57768-11.169 21.63855-11.61894 22.34242-12.06888 23.04626-12.7904 24.23383-13.24034 25.02217-13.69028 25.81052-14.41179 27.14137-14.86172 28.02426-15.31165 28.90715-16.03319 30.39671-16.48312 31.38545-16.93304 32.37419-17.6546 34.04306-18.1045 35.15039-18.55444 36.25772-19.276 38.12622-19.7259 39.36632-20.17584 40.60643-20.89738 42.69913-21.3473 44.08821-21.79724 45.47728-22.51878 47.82216-22.9687 49.37779-23.41864 50.93344-24.14018 53.55803-24.5901 55.30022-25.04004 57.0424-25.76158 59.98302-26.2115 61.93431-26.66144 63.88562-27.38297 67.1788-27.8329 69.36382-28.28284 71.54884-29.00436 75.23505-29.4543 77.68246-29.90424 80.12988-30.62576 84.26198-31.0757 87.00314-31.52562 89.74432-32.24716 94.36925-32.6971 97.43898-33.14702 100.5087-34.31848 109.12756-34.06628 107.27171"/>
<path transform="matrix(.99999997,.0055001655,.0055003298,-.99997,145.92905,131.59078)" d="M1.27522 0C-.31879 .31879-1.91284 .9564-3.8257 2.07224-1.91284 .6376-1.91284-.6376-3.8257-2.07224-1.91284-.9564-.31879-.31879 1.27522 0Z" fill="#ff0000"/>
<path transform="matrix(.99999997,.0055001655,.0055003298,-.99997,145.92905,131.59078)" stroke-width="1.19553" stroke-linecap="butt" stroke-linejoin="round" fill="none" stroke="#ff0000" d="M1.27522 0C-.31879 .31879-1.91284 .9564-3.8257 2.07224-1.91284 .6376-1.91284-.6376-3.8257-2.07224-1.91284-.9564-.31879-.31879 1.27522 0Z"/>
<path transform="matrix(-.13466808,-.99086979,-.99089947,.13466405,44.278669,24.403626)" d="M1.27522 0C-.31879 .31879-1.91284 .9564-3.8257 2.07224-1.91284 .6376-1.91284-.6376-3.8257-2.07224-1.91284-.9564-.31879-.31879 1.27522 0Z" fill="#ff0000"/>
<path transform="matrix(-.13466808,-.99086979,-.99089947,.13466405,44.278669,24.403626)" stroke-width="1.19553" stroke-linecap="butt" stroke-linejoin="round" fill="none" stroke="#ff0000" d="M1.27522 0C-.31879 .31879-1.91284 .9564-3.8257 2.07224-1.91284 .6376-1.91284-.6376-3.8257-2.07224-1.91284-.9564-.31879-.31879 1.27522 0Z"/>
<use data-text="g" xlink:href="#font_1_2" transform="matrix(9.963197,0,0,-9.962899,1.534378,15.194054)" fill="#ff0000"/>
<use data-text="(" xlink:href="#font_2_1" transform="matrix(9.963197,0,0,-9.962899,6.6436769,15.194054)" fill="#ff0000"/>
<use data-text="x" xlink:href="#font_1_3" transform="matrix(9.963197,0,0,-9.962899,10.517899,15.194054)" fill="#ff0000"/>
<use data-text=")" xlink:href="#font_2_2" transform="matrix(9.963197,0,0,-9.962899,16.212235,15.194054)" fill="#ff0000"/>
<use data-text="=" xlink:href="#font_2_10" transform="matrix(9.963197,0,0,-9.962899,22.837769,15.194054)" fill="#ff0000"/>
<use data-text="(" xlink:href="#font_2_1" transform="matrix(9.963197,0,0,-9.962899,33.348955,15.194054)" fill="#ff0000"/>
<use data-text="1" xlink:href="#font_4_1" transform="matrix(6.9742186,0,0,-6.9740097,38.441576,11.271942)" fill="#ff0000"/>
<path transform="matrix(1.00006,0,0,-1.00003,-164.8176,-103.48851)" stroke-width=".3985" stroke-linecap="butt" stroke-miterlimit="10" stroke-linejoin="miter" fill="none" stroke="#ff0000" d="M203.247-116.188H207.218"/>
<use data-text="2" xlink:href="#font_4_2" transform="matrix(6.9742186,0,0,-6.9740097,38.44159,18.630158)" fill="#ff0000"/>
<use data-text=")" xlink:href="#font_2_2" transform="matrix(9.963197,0,0,-9.962899,43.608903,15.194054)" fill="#ff0000"/>
<use data-text="x" xlink:href="#font_5_1" transform="matrix(6.9742186,0,0,-6.9740097,47.483125,11.578949)" fill="#ff0000"/>
<path transform="matrix(1.00006,0,0,-1.00003,78.34698,131.67856)" d="M-27.7804 79.37244C-27.7804 80.46834-28.66876 81.3567-29.76466 81.3567-30.86055 81.3567-31.74893 80.46834-31.74893 79.37244-31.74893 78.27655-30.86055 77.38817-29.76466 77.38817-28.66876 77.38817-27.7804 78.27655-27.7804 79.37244ZM-29.76466 79.37244" fill="#ff0000"/>
<path transform="matrix(1.00006,0,0,-1.00003,78.34698,131.67856)" stroke-width=".3985" stroke-linecap="butt" stroke-miterlimit="10" stroke-linejoin="miter" fill="none" stroke="#ff0000" d="M-27.7804 79.37244C-27.7804 80.46834-28.66876 81.3567-29.76466 81.3567-30.86055 81.3567-31.74893 80.46834-31.74893 79.37244-31.74893 78.27655-30.86055 77.38817-29.76466 77.38817-28.66876 77.38817-27.7804 78.27655-27.7804 79.37244ZM-29.76466 79.37244"/>
<path transform="matrix(1.00006,0,0,-1.00003,78.34698,131.67856)" d="M-62.84108 74.39105H-32.95276V84.35382H-62.84108Z" fill="#ffffff"/>
<use data-text="(" xlink:href="#font_2_1" transform="matrix(9.963197,0,0,-9.962899,15.502213,54.794244)"/>
<use data-text="&#x2212;" xlink:href="#font_3_1" transform="matrix(9.963197,0,0,-9.962899,19.376435,54.794244)"/>
<use data-text="3" xlink:href="#font_2_6" transform="matrix(9.963197,0,0,-9.962899,27.125885,54.794244)"/>
<use data-text="," xlink:href="#font_1_1" transform="matrix(9.963197,0,0,-9.962899,32.107194,54.794244)"/>
<use data-text="8" xlink:href="#font_2_9" transform="matrix(9.963197,0,0,-9.962899,36.535448,54.794244)"/>
<use data-text=")" xlink:href="#font_2_2" transform="matrix(9.963197,0,0,-9.962899,41.517045,54.794244)"/>
<path transform="matrix(1.00006,0,0,-1.00003,78.34698,131.67856)" d="M-17.85884 39.68622C-17.85884 40.7821-18.74721 41.67049-19.84311 41.67049-20.939 41.67049-21.82738 40.7821-21.82738 39.68622-21.82738 38.59032-20.939 37.70195-19.84311 37.70195-18.74721 37.70195-17.85884 38.59032-17.85884 39.68622ZM-19.84311 39.68622" fill="#ff0000"/>
<path transform="matrix(1.00006,0,0,-1.00003,78.34698,131.67856)" stroke-width=".3985" stroke-linecap="butt" stroke-miterlimit="10" stroke-linejoin="miter" fill="none" stroke="#ff0000" d="M-17.85884 39.68622C-17.85884 40.7821-18.74721 41.67049-19.84311 41.67049-20.939 41.67049-21.82738 40.7821-21.82738 39.68622-21.82738 38.59032-20.939 37.70195-19.84311 37.70195-18.74721 37.70195-17.85884 38.59032-17.85884 39.68622ZM-19.84311 39.68622"/>
<path transform="matrix(1.00006,0,0,-1.00003,78.34698,131.67856)" d="M-52.91953 34.70483H-23.031208V44.667604H-52.91953Z" fill="#ffffff"/>
<use data-text="(" xlink:href="#font_2_1" transform="matrix(9.963197,0,0,-9.962899,25.423813,94.481449)"/>
<use data-text="&#x2212;" xlink:href="#font_3_1" transform="matrix(9.963197,0,0,-9.962899,29.298035,94.481449)"/>
<use data-text="2" xlink:href="#font_2_5" transform="matrix(9.963197,0,0,-9.962899,37.047487,94.481449)"/>
<use data-text="," xlink:href="#font_1_1" transform="matrix(9.963197,0,0,-9.962899,42.028795,94.481449)"/>
<use data-text="4" xlink:href="#font_2_7" transform="matrix(9.963197,0,0,-9.962899,46.457048,94.481449)"/>
<use data-text=")" xlink:href="#font_2_2" transform="matrix(9.963197,0,0,-9.962899,51.438646,94.481449)"/>
<path transform="matrix(1.00006,0,0,-1.00003,78.34698,131.67856)" d="M1.98427 9.92155C1.98427 11.01744 1.09589 11.90582 0 11.90582-1.09589 11.90582-1.98427 11.01744-1.98427 9.92155-1.98427 8.82565-1.09589 7.93729 0 7.93729 1.09589 7.93729 1.98427 8.82565 1.98427 9.92155ZM0 9.92155" fill="#ff0000"/>
<path transform="matrix(1.00006,0,0,-1.00003,78.34698,131.67856)" stroke-width=".3985" stroke-linecap="butt" stroke-miterlimit="10" stroke-linejoin="miter" fill="none" stroke="#ff0000" d="M1.98427 9.92155C1.98427 11.01744 1.09589 11.90582 0 11.90582-1.09589 11.90582-1.98427 11.01744-1.98427 9.92155-1.98427 8.82565-1.09589 7.93729 0 7.93729 1.09589 7.93729 1.98427 8.82565 1.98427 9.92155ZM0 9.92155"/>
<path transform="matrix(1.00006,0,0,-1.00003,78.34698,131.67856)" d="M-30.30894 4.94017H-8.16946V14.902941H-30.30894Z" fill="#ffffff"/>
<use data-text="(" xlink:href="#font_2_1" transform="matrix(9.963197,0,0,-9.962899,48.036165,124.24734)"/>
<use data-text="0" xlink:href="#font_2_3" transform="matrix(9.963197,0,0,-9.962899,51.901887,124.24734)"/>
<use data-text="," xlink:href="#font_1_1" transform="matrix(9.963197,0,0,-9.962899,56.891679,124.24734)"/>
<use data-text="1" xlink:href="#font_2_4" transform="matrix(9.963197,0,0,-9.962899,61.319948,124.24734)"/>
<use data-text=")" xlink:href="#font_2_2" transform="matrix(9.963197,0,0,-9.962899,66.30153,124.24734)"/>
<path transform="matrix(1.00006,0,0,-1.00003,78.34698,131.67856)" d="M11.90582 4.96077C11.90582 6.05666 11.01744 6.94504 9.92155 6.94504 8.82565 6.94504 7.93729 6.05666 7.93729 4.96077 7.93729 3.86487 8.82565 2.9765 9.92155 2.9765 11.01744 2.9765 11.90582 3.86487 11.90582 4.96077ZM9.92155 4.96077" fill="#ff0000"/>
<path transform="matrix(1.00006,0,0,-1.00003,78.34698,131.67856)" stroke-width=".3985" stroke-linecap="butt" stroke-miterlimit="10" stroke-linejoin="miter" fill="none" stroke="#ff0000" d="M11.90582 4.96077C11.90582 6.05666 11.01744 6.94504 9.92155 6.94504 8.82565 6.94504 7.93729 6.05666 7.93729 4.96077 7.93729 3.86487 8.82565 2.9765 9.92155 2.9765 11.01744 2.9765 11.90582 3.86487 11.90582 4.96077ZM9.92155 4.96077"/>
<path transform="matrix(1.00006,0,0,-1.00003,78.34698,131.67856)" d="M21.82738 2.48036C21.82738 3.57626 20.939 4.46463 19.84311 4.46463 18.74721 4.46463 17.85884 3.57626 17.85884 2.48036 17.85884 1.38446 18.74721 .4961 19.84311 .4961 20.939 .4961 21.82738 1.38446 21.82738 2.48036ZM19.84311 2.48036" fill="#ff0000"/>
<path transform="matrix(1.00006,0,0,-1.00003,78.34698,131.67856)" stroke-width=".3985" stroke-linecap="butt" stroke-miterlimit="10" stroke-linejoin="miter" fill="none" stroke="#ff0000" d="M21.82738 2.48036C21.82738 3.57626 20.939 4.46463 19.84311 4.46463 18.74721 4.46463 17.85884 3.57626 17.85884 2.48036 17.85884 1.38446 18.74721 .4961 19.84311 .4961 20.939 .4961 21.82738 1.38446 21.82738 2.48036ZM19.84311 2.48036"/>
<path transform="matrix(1.00006,0,0,-1.00003,78.34698,131.67856)" d="M31.74893 1.24017C31.74893 2.33606 30.86055 3.22444 29.76466 3.22444 28.66876 3.22444 27.7804 2.33606 27.7804 1.24017 27.7804 .14427 28.66876-.74408 29.76466-.74408 30.86055-.74408 31.74893 .14427 31.74893 1.24017ZM29.76466 1.24017" fill="#ff0000"/>
<path transform="matrix(1.00006,0,0,-1.00003,78.34698,131.67856)" stroke-width=".3985" stroke-linecap="butt" stroke-miterlimit="10" stroke-linejoin="miter" fill="none" stroke="#ff0000" d="M31.74893 1.24017C31.74893 2.33606 30.86055 3.22444 29.76466 3.22444 28.66876 3.22444 27.7804 2.33606 27.7804 1.24017 27.7804 .14427 28.66876-.74408 29.76466-.74408 30.86055-.74408 31.74893 .14427 31.74893 1.24017ZM29.76466 1.24017"/>
<path transform="matrix(1.00006,0,0,-1.00003,78.34698,131.67856)" stroke-width=".3985" stroke-linecap="butt" stroke-miterlimit="10" stroke-linejoin="miter" fill="none" stroke="#000000" d="M12.29239 8.85541 19.84311 26.78816"/>
<path transform="matrix(-.38805328,.92162767,.92165526,.38804166,90.640117,122.82288)" d="M.797 0C-.19925 .19925-1.19551 .59775-2.39102 1.29512-1.19551 .3985-1.19551-.3985-2.39102-1.29512-1.19551-.59775-.19925-.19925 .797 0Z"/>
<path transform="matrix(-.38805328,.92162767,.92165526,.38804166,90.640117,122.82288)" stroke-width=".3985" stroke-linecap="butt" stroke-linejoin="round" fill="none" stroke="#000000" d="M.797 0C-.19925 .19925-1.19551 .59775-2.39102 1.29512-1.19551 .3985-1.19551-.3985-2.39102-1.29512-1.19551-.59775-.19925-.19925 .797 0Z"/>
<path transform="matrix(1.00006,0,0,-1.00003,78.34698,131.67856)" d="M8.08289 26.98741H31.60332V38.839929H8.08289Z" fill="#ffffff"/>
<use data-text="(" xlink:href="#font_2_1" transform="matrix(9.963197,0,0,-9.962899,86.430469,101.25465)"/>
<use data-text="1" xlink:href="#font_2_4" transform="matrix(9.963197,0,0,-9.962899,90.29619,101.25465)"/>
<use data-text="," xlink:href="#font_1_1" transform="matrix(9.963197,0,0,-9.962899,95.28598,101.25465)"/>
<use data-text="1" xlink:href="#font_4_1" transform="matrix(6.9742186,0,0,-6.9740097,100.910327,97.332538)"/>
<path transform="matrix(1.00006,0,0,-1.00003,-79.92151,-17.42792)" stroke-width=".3985" stroke-linecap="butt" stroke-miterlimit="10" stroke-linejoin="miter" fill="none" stroke="#000000" d="M180.821-116.188H184.792"/>
<use data-text="2" xlink:href="#font_4_2" transform="matrix(6.9742186,0,0,-6.9740097,100.91034,104.69075)"/>
<use data-text=")" xlink:href="#font_2_2" transform="matrix(9.963197,0,0,-9.962899,106.07765,101.25465)"/>
<path transform="matrix(1.00006,0,0,-1.00003,78.34698,131.67856)" stroke-width=".3985" stroke-linecap="butt" stroke-miterlimit="10" stroke-linejoin="miter" fill="none" stroke="#000000" d="M22.4938 5.70125 48.61555 34.72543"/>
<path transform="matrix(-.66899016,.74329236,.74331459,.6689701,100.842128,125.977138)" d="M.797 0C-.19925 .19925-1.19551 .59775-2.39102 1.29512-1.19551 .3985-1.19551-.3985-2.39102-1.29512-1.19551-.59775-.19925-.19925 .797 0Z"/>
<path transform="matrix(-.66899016,.74329236,.74331459,.6689701,100.842128,125.977138)" stroke-width=".3985" stroke-linecap="butt" stroke-linejoin="round" fill="none" stroke="#000000" d="M.797 0C-.19925 .19925-1.19551 .59775-2.39102 1.29512-1.19551 .3985-1.19551-.3985-2.39102-1.29512-1.19551-.59775-.19925-.19925 .797 0Z"/>
<path transform="matrix(1.00006,0,0,-1.00003,78.34698,131.67856)" d="M44.82555 34.92468H68.34598V46.7772H44.82555Z" fill="#ffffff"/>
<use data-text="(" xlink:href="#font_2_1" transform="matrix(9.963197,0,0,-9.962899,123.17567,93.317409)"/>
<use data-text="2" xlink:href="#font_2_5" transform="matrix(9.963197,0,0,-9.962899,127.04139,93.317409)"/>
<use data-text="," xlink:href="#font_1_1" transform="matrix(9.963197,0,0,-9.962899,132.03119,93.317409)"/>
<use data-text="1" xlink:href="#font_4_1" transform="matrix(6.9742186,0,0,-6.9740097,137.65552,89.395298)"/>
<path transform="matrix(1.00006,0,0,-1.00003,-43.176309,-25.365159)" stroke-width=".3985" stroke-linecap="butt" stroke-miterlimit="10" stroke-linejoin="miter" fill="none" stroke="#000000" d="M180.821-116.188H184.792"/>
<use data-text="4" xlink:href="#font_4_3" transform="matrix(6.9742186,0,0,-6.9740097,137.65555,96.75351)"/>
<use data-text=")" xlink:href="#font_2_2" transform="matrix(9.963197,0,0,-9.962899,142.82285,93.317409)"/>
<path transform="matrix(1.00006,0,0,-1.00003,78.34698,131.67856)" stroke-width=".3985" stroke-linecap="butt" stroke-miterlimit="10" stroke-linejoin="miter" fill="none" stroke="#000000" d="M32.6076 4.47363 48.61555 13.8901"/>
<path transform="matrix(-.86195167,.5070053,.5070204,.86192587,110.956539,127.204799)" d="M.797 0C-.19925 .19925-1.19551 .59775-2.39102 1.29512-1.19551 .3985-1.19551-.3985-2.39102-1.29512-1.19551-.59775-.19925-.19925 .797 0Z"/>
<path transform="matrix(-.86195167,.5070053,.5070204,.86192587,110.956539,127.204799)" stroke-width=".3985" stroke-linecap="butt" stroke-linejoin="round" fill="none" stroke="#000000" d="M.797 0C-.19925 .19925-1.19551 .59775-2.39102 1.29512-1.19551 .3985-1.19551-.3985-2.39102-1.29512-1.19551-.59775-.19925-.19925 .797 0Z"/>
<path transform="matrix(1.00006,0,0,-1.00003,78.34698,131.67856)" d="M50.80736 7.96384H74.32779V19.81636H50.80736Z" fill="#ffffff"/>
<use data-text="(" xlink:href="#font_2_1" transform="matrix(9.963197,0,0,-9.962899,129.15703,120.27921)"/>
<use data-text="3" xlink:href="#font_2_6" transform="matrix(9.963197,0,0,-9.962899,133.02275,120.27921)"/>
<use data-text="," xlink:href="#font_1_1" transform="matrix(9.963197,0,0,-9.962899,138.01255,120.27921)"/>
<use data-text="1" xlink:href="#font_4_1" transform="matrix(6.9742186,0,0,-6.9740097,143.63689,116.3571)"/>
<path transform="matrix(1.00006,0,0,-1.00003,-37.19495,1.596652)" stroke-width=".3985" stroke-linecap="butt" stroke-miterlimit="10" stroke-linejoin="miter" fill="none" stroke="#000000" d="M180.821-116.188H184.792"/>
<use data-text="8" xlink:href="#font_4_4" transform="matrix(6.9742186,0,0,-6.9740097,143.6369,123.71532)"/>
<use data-text=")" xlink:href="#font_2_2" transform="matrix(9.963197,0,0,-9.962899,148.80422,120.27921)"/>
</svg>
