<svg xmlns="http://www.w3.org/2000/svg" xmlns:xlink="http://www.w3.org/1999/xlink" version="1.1" width="212" height="192" viewBox="0 0 212 192">
<defs>
<path id="font_1_2" d="M.20599365 .3996582H.2999878C.31999208 .3996582 .32998658 .3996582 .32998658 .41966249 .32998658 .43066407 .31999208 .43066407 .3019867 .43066407H.21398926C.25 .5724945 .25498963 .59246829 .25498963 .59846499 .25498963 .61546328 .24299622 .62545779 .22599793 .62545779 .22299195 .62545779 .19499207 .62446597 .18598938 .58947756L.14698792 .43066407H.052993776C.032989503 .43066407 .022994996 .43066407 .022994996 .4116516 .022994996 .3996582 .0309906 .3996582 .050994874 .3996582H.13899231C.066986087 .11608887 .06298828 .099121097 .06298828 .08114624 .06298828 .02722168 .100997928-.0107421879 .15499878-.0107421879 .25698854-.0107421879 .31399537 .13505554 .31399537 .14305115 .31399537 .1530304 .30599977 .1530304 .3019867 .1530304 .29299928 .1530304 .2919922 .15003968 .2869873 .13905335 .24398804 .035217287 .19099427 .011245728 .15699768 .011245728 .13598633 .011245728 .12599182 .024230957 .12599182 .057174684 .12599182 .08114624 .12799073 .088134769 .13198853 .10510254L.20599365 .3996582Z"/>
<path id="font_1_1" d="M.7559967 .577652C.7659912 .61763 .7839966 .64860537 .8639984 .6516113 .86898806 .6516113 .8809967 .65260317 .8809967 .6716156 .8809967 .6726074 .8809967 .6826172 .8679962 .6826172 .83499148 .6826172 .7999878 .6796112 .7669983 .6796112 .73298647 .6796112 .69799807 .6826172 .6649933 .6826172 .6589966 .6826172 .6469879 .6826172 .6469879 .6626129 .6469879 .6516113 .6569977 .6516113 .6649933 .6516113 .7220001 .65060427 .73298647 .6296234 .73298647 .6076355 .73298647 .6046295 .73098757 .5896454 .7299957 .5866394L.6179962 .141922 .39698792 .66360476C.3889923 .6816101 .3880005 .6826172 .36499024 .6826172H.23098755C.21099854 .6826172 .20199585 .6826172 .20199585 .6626129 .20199585 .6516113 .21099854 .6516113 .22999573 .6516113 .23498535 .6516113 .2979889 .6516113 .2979889 .64260867L.1639862 .10594177C.1539917 .065963748 .13699341 .033996583 .055999757 .0309906 .049987794 .0309906 .038986207 .02999878 .038986207 .010986328 .038986207 .0039978029 .04399109 0 .051986696 0 .083999637 0 .11898804 .0029907227 .1519928 .0029907227 .18598938 .0029907227 .22200012 0 .25498963 0 .2599945 0 .272995 0 .272995 .019989014 .272995 .02999878 .2639923 .0309906 .25299073 .0309906 .19499207 .032989503 .18699646 .054977418 .18699646 .07496643 .18699646 .081954959 .18798828 .08695984 .19099427 .09794617L.32299806 .6256256C.32699586 .6196289 .32699586 .61763 .33198548 .6076355L.58099368 .018997193C.58799746 .0019989014 .59098818 0 .59999087 0 .61099246 0 .61099246 .0029907227 .6159973 .020996094L.7559967 .577652Z"/>
<path id="font_2_5" d="M.44898988 .20022583C.44898988 .3193512 .36698915 .41944886 .25898744 .41944886 .21099854 .41944886 .16799927 .40345765 .13198853 .36842347V.5637665C.1519928 .5577698 .18499756 .55078127 .21699524 .55078127 .33999635 .55078127 .4099884 .6417694 .4099884 .6547699 .4099884 .6607666 .40699769 .6657715 .3999939 .6657715 .39898683 .6657715 .39698792 .6657715 .3919983 .66278079 .37199403 .6537781 .32299806 .6337738 .2559967 .6337738 .21598816 .6337738 .16999817 .6407776 .12298584 .6617737 .114990238 .66477969 .11299133 .66477969 .11099243 .66477969 .100997928 .66477969 .100997928 .6567688 .100997928 .6407776V.34439088C.100997928 .32637025 .100997928 .31835938 .114990238 .31835938 .12199402 .31835938 .12399292 .32136537 .12799073 .32736207 .13899231 .3433838 .17599488 .39746095 .25698854 .39746095 .30899049 .39746095 .33399964 .35139466 .34199525 .33337403 .35798646 .29632569 .3600006 .25727845 .3600006 .20722962 .3600006 .17222595 .3600006 .11222839 .33599855 .07035828 .31199647 .031463624 .2749939 .0055389406 .22898865 .0055389406 .1559906 .0055389406 .09899902 .058380128 .08198547 .11723328 .084991458 .1162262 .08799744 .115234378 .09899902 .115234378 .13198853 .115234378 .14898682 .14022827 .14898682 .16423035 .14898682 .18823242 .13198853 .21322632 .09899902 .21322632 .084991458 .21322632 .049987794 .20622254 .049987794 .16023255 .049987794 .07434082 .11898804-.022460938 .23098755-.022460938 .34700013-.022460938 .44898988 .073349 .44898988 .20022583Z"/>
<path id="font_2_2" d="M.2939911 .64004519C.2939911 .66400149 .2939911 .6660156 .2709961 .6660156 .20899964 .60227969 .12098694 .60227969 .08898926 .60227969V.57128909C.10899353 .57128909 .16799927 .57128909 .21998596 .5972748V.07902527C.21998596 .042999269 .21699524 .0309906 .1269989 .0309906H.09498596V0C.12998963 .0029907227 .21699524 .0029907227 .25698854 .0029907227 .29699708 .0029907227 .38398744 .0029907227 .4189911 0V.0309906H.3869934C.29699708 .0309906 .2939911 .041992189 .2939911 .07902527V.64004519Z"/>
<path id="font_2_1" d="M.45999146 .31976319C.45999146 .39982606 .45498658 .47988893 .41999818 .5539398 .37399293 .65000918 .2919922 .6660156 .25 .6660156 .18998719 .6660156 .116989139 .64001467 .07598877 .54693606 .04399109 .47789 .038986207 .39982606 .038986207 .31976319 .038986207 .24472046 .042999269 .15464783 .083999637 .07859802 .1269989-.0024719239 .19999695-.022460938 .24899292-.022460938 .30299378-.022460938 .3789978-.0014648438 .4229889 .09359741 .45498658 .16265869 .45999146 .2407074 .45999146 .31976319M.24899292-.00047302247C.20999146-.00047302247 .15098572 .024551392 .1329956 .12062073 .12199402 .18066406 .12199402 .2727356 .12199402 .3317871 .12199402 .39582826 .12199402 .46188355 .12998963 .5159149 .14898682 .63500979 .22399903 .64401248 .24899292 .64401248 .28199769 .64401248 .34799195 .6259918 .36698915 .52693179 .3769989 .47088624 .3769989 .39482118 .3769989 .3317871 .3769989 .25672914 .3769989 .18867493 .3659973 .12461853 .35099793 .029556275 .2939911-.00047302247 .24899292-.00047302247Z"/>
<path id="font_2_3" d="M.1269989 .07699585 .23298645 .18003845C.3889923 .31811524 .44898988 .3721466 .44898988 .47216798 .44898988 .5860901 .35899354 .6660156 .23699951 .6660156 .12399292 .6660156 .049987794 .57411196 .049987794 .48516847 .049987794 .4291687 .099990848 .4291687 .102996829 .4291687 .11999512 .4291687 .15499878 .44117738 .15499878 .48217774 .15499878 .5081787 .13699341 .5341797 .101989749 .5341797 .09399414 .5341797 .09199524 .5341797 .08898926 .5331726 .11199951 .59806826 .1659851 .63500979 .22399903 .63500979 .31498719 .63500979 .35798646 .5541382 .35798646 .47216798 .35798646 .39215089 .30799867 .31311036 .25299073 .25108338L.06098938 .036987306C.049987794 .025985718 .049987794 .023986817 .049987794 0H.42099L.44898988 .17404175H.42399598C.4189911 .14402771 .4119873 .1000061 .4019928 .084991458 .394989 .07699585 .32899476 .07699585 .30699159 .07699585H.1269989Z"/>
<path id="font_2_4" d="M.2939911 .16503906V.07800293C.2939911 .041992189 .2919922 .0309906 .21798706 .0309906H.19699097V0C.23799134 .0029907227 .2899933 .0029907227 .33198548 .0029907227 .37399293 .0029907227 .4269867 .0029907227 .46798707 0V.0309906H.44699098C.37298585 .0309906 .37098695 .041992189 .37098695 .07800293V.16503906H.47099305V.19602967H.37098695V.65075686C.37098695 .67074587 .37098695 .6767578 .35499574 .6767578 .34599305 .6767578 .34298707 .6767578 .33499146 .66474917L.027999878 .19602967V.16503906H.2939911M.2999878 .19602967H.055999757L.2999878 .5688019V.19602967Z"/>
<path id="font_2_6" d="M.13198853 .327713V.35173036C.13198853 .6047821 .2559967 .64100649 .30699159 .64100649 .33099366 .64100649 .37298585 .634964 .394989 .6007538 .37998963 .6007538 .33999635 .6007538 .33999635 .5557556 .33999635 .524765 .3639984 .5097656 .38598634 .5097656 .4019928 .5097656 .43199159 .51875308 .43199159 .5577545 .43199159 .6178589 .3880005 .6660156 .30499269 .6660156 .1769867 .6660156 .041992189 .5367584 .041992189 .31570436 .041992189 .048553468 .1579895-.022460938 .25099183-.022460938 .3619995-.022460938 .45700074 .07156372 .45700074 .2036438 .45700074 .33070375 .36799623 .4267578 .25698854 .4267578 .18899536 .4267578 .1519928 .37573243 .13198853 .327713M.25099183 .0055389406C.18798828 .0055389406 .1579895 .06556702 .1519928 .080566409 .13398743 .127594 .13398743 .2076416 .13398743 .22564698 .13398743 .30369569 .1659851 .40374757 .2559967 .40374757 .27198792 .40374757 .31799317 .40374757 .34899903 .34172059 .36698915 .30470277 .36698915 .2536621 .36698915 .20463562 .36698915 .15661621 .36698915 .10658264 .34999085 .0705719 .31999208 .010528564 .27398683 .0055389406 .25099183 .0055389406Z"/>
</defs>
<path transform="matrix(1,0,0,-1,22.744004,176.196)" stroke-width=".3985" stroke-linecap="butt" stroke-miterlimit="10" stroke-linejoin="miter" fill="none" stroke="#00aeef" d="M0 0H170.07825M0 12.75595H170.07825M0 25.51193H170.07825M0 38.26791H170.07825M0 51.0239H170.07825M0 63.77988H170.07825M0 76.53586H170.07825M0 89.29184H170.07825M0 102.0478H170.07825M0 114.80379H170.07825M0 127.55977H170.07825M0 140.31575H170.07825M0 153.06725H170.07825M0 0V153.07172M11.33855 0V153.07172M22.6771 0V153.07172M34.01564 0V153.07172M45.35419 0V153.07172M56.69275 0V153.07172M68.0313 0V153.07172M79.36984 0V153.07172M90.70839 0V153.07172M102.04694 0V153.07172M113.3855 0V153.07172M124.72404 0V153.07172M136.06259 0V153.07172M147.40114 0V153.07172M158.7397 0V153.07172M170.07427 0V153.07172M170.07825 153.07172"/>
<path transform="matrix(1,0,0,-1,22.744004,176.196)" stroke-width="1.19553" stroke-linecap="butt" stroke-miterlimit="10" stroke-linejoin="miter" fill="none" stroke="#000000" d="M0 0H178.40988"/>
<path transform="matrix(1,0,0,-1,201.15389,176.196)" d="M1.27522 0C-.31879 .31879-1.91284 .9564-3.8257 2.07224-1.91284 .6376-1.91284-.6376-3.8257-2.07224-1.91284-.9564-.31879-.31879 1.27522 0Z"/>
<path transform="matrix(1,0,0,-1,201.15389,176.196)" stroke-width="1.19553" stroke-linecap="butt" stroke-linejoin="round" fill="none" stroke="#000000" d="M1.27522 0C-.31879 .31879-1.91284 .9564-3.8257 2.07224-1.91284 .6376-1.91284-.6376-3.8257-2.07224-1.91284-.9564-.31879-.31879 1.27522 0Z"/>
<use data-text="t" xlink:href="#font_1_2" transform="matrix(9.9626,0,0,-9.9626,206.945,179.26)"/>
<path transform="matrix(1,0,0,-1,22.744004,176.196)" stroke-width="1.19553" stroke-linecap="butt" stroke-miterlimit="10" stroke-linejoin="miter" fill="none" stroke="#000000" d="M0 0V162.67902"/>
<path transform="matrix(0,-1,-1,-0,22.744004,13.516983)" d="M1.27522 0C-.31879 .31879-1.91284 .9564-3.8257 2.07224-1.91284 .6376-1.91284-.6376-3.8257-2.07224-1.91284-.9564-.31879-.31879 1.27522 0Z"/>
<path transform="matrix(0,-1,-1,-0,22.744004,13.516983)" stroke-width="1.19553" stroke-linecap="butt" stroke-linejoin="round" fill="none" stroke="#000000" d="M1.27522 0C-.31879 .31879-1.91284 .9564-3.8257 2.07224-1.91284 .6376-1.91284-.6376-3.8257-2.07224-1.91284-.9564-.31879-.31879 1.27522 0Z"/>
<use data-text="N" xlink:href="#font_1_1" transform="matrix(9.9626,0,0,-9.9626,18.199006,7.725998)"/>
<path transform="matrix(1,0,0,-1,22.744004,176.196)" stroke-width="1.19553" stroke-linecap="butt" stroke-miterlimit="10" stroke-linejoin="miter" fill="none" stroke="#009bca" d="M56.69275 0V153.07172"/>
<path transform="matrix(1,0,0,-1,22.744004,176.196)" stroke-width=".3985" stroke-linecap="butt" stroke-miterlimit="10" stroke-linejoin="miter" fill="none" stroke="#000000" d="M56.69275 3.82681V-3.82681"/>
<path transform="matrix(1,0,0,-1,22.744004,176.196)" d="M53.20578-14.43161H60.179719V-6.01863H53.20578Z" fill="#ffffff"/>
<use data-text="5" xlink:href="#font_2_5" transform="matrix(9.9626,0,0,-9.9626,76.946,189.631)"/>
<path transform="matrix(1,0,0,-1,22.744004,176.196)" stroke-width="1.19553" stroke-linecap="butt" stroke-miterlimit="10" stroke-linejoin="miter" fill="none" stroke="#009bca" d="M113.3855 0V153.07172"/>
<path transform="matrix(1,0,0,-1,22.744004,176.196)" stroke-width=".3985" stroke-linecap="butt" stroke-miterlimit="10" stroke-linejoin="miter" fill="none" stroke="#000000" d="M113.3855 3.82681V-3.82681"/>
<path transform="matrix(1,0,0,-1,22.744004,176.196)" d="M107.40782-14.43161H119.36316V-6.01863H107.40782Z" fill="#ffffff"/>
<use data-text="1" xlink:href="#font_2_2" transform="matrix(9.9626,0,0,-9.9626,131.14801,189.631)"/>
<use data-text="0" xlink:href="#font_2_1" transform="matrix(9.9626,0,0,-9.9626,136.1293,189.631)"/>
<path transform="matrix(1,0,0,-1,22.744004,176.196)" stroke-width="1.19553" stroke-linecap="butt" stroke-miterlimit="10" stroke-linejoin="miter" fill="none" stroke="#009bca" d="M170.07825 0V153.07172"/>
<path transform="matrix(1,0,0,-1,22.744004,176.196)" stroke-width=".3985" stroke-linecap="butt" stroke-miterlimit="10" stroke-linejoin="miter" fill="none" stroke="#000000" d="M170.07825 3.82681V-3.82681"/>
<path transform="matrix(1,0,0,-1,22.744004,176.196)" d="M164.10057-14.43161H176.05591V-6.01863H164.10057Z" fill="#ffffff"/>
<use data-text="1" xlink:href="#font_2_2" transform="matrix(9.9626,0,0,-9.9626,187.841,189.631)"/>
<use data-text="5" xlink:href="#font_2_5" transform="matrix(9.9626,0,0,-9.9626,192.8223,189.631)"/>
<path transform="matrix(1,0,0,-1,22.744004,176.196)" stroke-width="1.19553" stroke-linecap="butt" stroke-miterlimit="10" stroke-linejoin="miter" fill="none" stroke="#009bca" d="M0 51.0239H170.07825"/>
<path transform="matrix(1,0,0,-1,22.744004,176.196)" stroke-width=".3985" stroke-linecap="butt" stroke-miterlimit="10" stroke-linejoin="miter" fill="none" stroke="#000000" d="M3.40158 51.0239H-3.40158"/>
<path transform="matrix(1,0,0,-1,22.744004,176.196)" d="M-22.53014 46.8174H-5.59342V55.23038H-22.53014Z" fill="#ffffff"/>
<use data-text="2" xlink:href="#font_2_3" transform="matrix(9.9626,0,0,-9.9626,1.2100067,128.382)"/>
<use data-text="0" xlink:href="#font_2_1" transform="matrix(9.9626,0,0,-9.9626,6.191307,128.382)"/>
<use data-text="0" xlink:href="#font_2_1" transform="matrix(9.9626,0,0,-9.9626,11.172607,128.382)"/>
<path transform="matrix(1,0,0,-1,22.744004,176.196)" stroke-width="1.19553" stroke-linecap="butt" stroke-miterlimit="10" stroke-linejoin="miter" fill="none" stroke="#009bca" d="M0 102.0478H170.07825"/>
<path transform="matrix(1,0,0,-1,22.744004,176.196)" stroke-width=".3985" stroke-linecap="butt" stroke-miterlimit="10" stroke-linejoin="miter" fill="none" stroke="#000000" d="M3.40158 102.0478H-3.40158"/>
<path transform="matrix(1,0,0,-1,22.744004,176.196)" d="M-22.53014 97.84131H-5.59342V106.25429H-22.53014Z" fill="#ffffff"/>
<use data-text="4" xlink:href="#font_2_4" transform="matrix(9.9626,0,0,-9.9626,1.2100067,77.358)"/>
<use data-text="0" xlink:href="#font_2_1" transform="matrix(9.9626,0,0,-9.9626,6.191307,77.358)"/>
<use data-text="0" xlink:href="#font_2_1" transform="matrix(9.9626,0,0,-9.9626,11.172607,77.358)"/>
<path transform="matrix(1,0,0,-1,22.744004,176.196)" stroke-width="1.19553" stroke-linecap="butt" stroke-miterlimit="10" stroke-linejoin="miter" fill="none" stroke="#009bca" d="M0 153.07172H170.07825"/>
<path transform="matrix(1,0,0,-1,22.744004,176.196)" stroke-width=".3985" stroke-linecap="butt" stroke-miterlimit="10" stroke-linejoin="miter" fill="none" stroke="#000000" d="M3.40158 153.07172H-3.40158"/>
<path transform="matrix(1,0,0,-1,22.744004,176.196)" d="M-22.53014 148.86524H-5.59342V157.27822H-22.53014Z" fill="#ffffff"/>
<use data-text="6" xlink:href="#font_2_6" transform="matrix(9.9626,0,0,-9.9626,1.2100067,26.334)"/>
<use data-text="0" xlink:href="#font_2_1" transform="matrix(9.9626,0,0,-9.9626,6.191307,26.334)"/>
<use data-text="0" xlink:href="#font_2_1" transform="matrix(9.9626,0,0,-9.9626,11.172607,26.334)"/>
<path transform="matrix(1,0,0,-1,22.744004,176.196)" stroke-width="1.19553" stroke-linecap="butt" stroke-miterlimit="10" stroke-linejoin="miter" fill="none" stroke="#ff0000" d="M0 153.07172C0 153.07172 1.92001 149.5401 2.65746 148.2088 3.3949 146.87752 4.57748 144.7704 5.31493 143.4767 6.05237 142.18302 7.23497 140.13793 7.9724 138.88474 8.70984 137.63156 9.89244 135.65566 10.62987 134.4446 11.36731 133.23354 12.54991 131.32907 13.28734 130.15627 14.02478 128.98346 15.20738 127.12825 15.94481 125.99174 16.68225 124.85521 17.86485 123.06523 18.6023 121.96501 19.33972 120.86478 20.52232 119.12631 21.25977 118.06207 21.99721 116.99782 23.1798 115.32515 23.91724 114.2946 24.65468 113.26405 25.83728 111.63304 26.5747 110.63458 27.31213 109.63611 28.49475 108.06471 29.23218 107.09834 29.96962 106.13197 31.15222 104.60419 31.88965 103.66956 32.62709 102.73492 33.8097 101.26735 34.54712 100.36223 35.28456 99.45708 36.46716 98.0213 37.2046 97.14597 37.94203 96.27066 39.12463 94.90096 39.86208 94.05353 40.59952 93.20607 41.78212 91.86032 42.51955 91.03815 43.25697 90.21599 44.43959 88.9225 45.17702 88.12787 45.91446 87.33325 47.09706 86.08005 47.83449 85.31104 48.57193 84.542 49.75453 83.3287 50.49196 82.58528 51.2294 81.84186 52.412 80.67305 53.14944 79.95296 53.88687 79.23286 55.06947 78.0944 55.80692 77.39537 56.54434 76.69637 57.72694 75.59056 58.46439 74.91489 59.20181 74.23918 60.38443 73.17976 61.12186 72.52547 61.85928 71.87117 63.0419 70.83203 63.77933 70.19913 64.51677 69.56622 65.69937 68.57571 66.4368 67.96387 67.17424 67.35202 68.35684 66.384 69.09427 65.78935 69.83171 65.19469 71.01431 64.25342 71.75175 63.67787 72.48918 63.10233 73.67178 62.19565 74.40923 61.64116 75.14665 61.08669 76.32927 60.21915 77.0667 59.68152 77.80412 59.14388 78.98674 58.2867 79.72417 57.76625 80.4616 57.24579 81.64421 56.43367 82.38164 55.93039 83.11908 55.42712 84.30168 54.62762 85.03911 54.13892 85.77655 53.65022 86.95915 52.88196 87.6966 52.40817 88.43402 51.93439 89.61662 51.18303 90.35406 50.72415 91.09149 50.26526 92.27408 49.54286 93.01154 49.10083 93.74896 48.6588 94.93158 47.9654 95.669 47.53827 96.40643 47.11115 97.58905 46.4385 98.32648 46.0224 99.06392 45.6063 100.24652 44.9427 100.98395 44.53923 101.72139 44.13577 102.90399 43.50336 103.64142 43.11447 104.37886 42.72559 105.56146 42.11234 106.2989 41.73642 107.03633 41.36049 108.21892 40.76836 108.95638 40.40508 109.6938 40.0418 110.8764 39.47102 111.61385 39.1181 112.35127 38.76518 113.53389 38.2034 114.27132 37.86151 115.00874 37.51962 116.19136 36.98322 116.92879 36.65396 117.66623 36.32469 118.84883 35.80927 119.58626 35.48845 120.3237 35.16762 121.5063 34.65176 122.24374 34.34163 122.98117 34.0315 124.16376 33.55296 124.90121 33.25319 125.63864 32.95343 126.82123 32.47212 127.55869 32.1811 128.29611 31.89009 129.47872 31.43605 130.21616 31.15573 130.95359 30.87543 132.1362 30.43263 132.87363 30.16074 133.61107 29.88884 134.79367 29.45958 135.5311 29.19609 136.26854 28.93263 137.45114 28.51654 138.18857 28.26183 138.92601 28.0071 140.1086 27.60654 140.84606 27.36026 141.58348 27.11395 142.76607 26.72488 143.50353 26.48671 144.24095 26.2485 145.42356 25.87521 146.161 25.64351 146.89842 25.41182 148.08103 25.0416 148.81847 24.81668 149.5559 24.59178 150.73851 24.23903 151.47594 24.02254 152.21338 23.80606 153.39598 23.46675 154.1334 23.25644 154.87085 23.04611 156.05344 22.71085 156.7909 22.50668 157.52832 22.3025 158.7109 21.98036 159.44837 21.78496 160.18579 21.58954 161.36838 21.28719 162.10584 21.09825 162.84326 20.90933 164.02587 20.60829 164.7633 20.42325 165.50074 20.2382 166.68334 19.94347 167.42076 19.76459 168.15822 19.58571 170.07825 19.13394 168.25511 19.56268"/>
<path transform="matrix(.97339,.22891,.22891,-.97339,190.99912,156.6333)" d="M1.27522 0C-.31879 .31879-1.91284 .9564-3.8257 2.07224-1.91284 .6376-1.91284-.6376-3.8257-2.07224-1.91284-.9564-.31879-.31879 1.27522 0Z" fill="#ff0000"/>
<path transform="matrix(.97339,.22891,.22891,-.97339,190.99912,156.6333)" stroke-width="1.19553" stroke-linecap="butt" stroke-linejoin="round" fill="none" stroke="#ff0000" d="M1.27522 0C-.31879 .31879-1.91284 .9564-3.8257 2.07224-1.91284 .6376-1.91284-.6376-3.8257-2.07224-1.91284-.9564-.31879-.31879 1.27522 0Z"/>
</svg>
