<svg xmlns="http://www.w3.org/2000/svg" xmlns:xlink="http://www.w3.org/1999/xlink" version="1.1" width="225" height="225" viewBox="0 0 225 225">
<defs>
<path id="font_1_2" d="M.33399964 .30233766C.33999635 .32835389 .36299134 .42037965 .43299867 .42037965 .43798829 .42037965 .46199037 .42037965 .48298646 .40734864 .45498658 .402359 .43499757 .37734986 .43499757 .35334779 .43499757 .33735658 .44599916 .31835938 .47299195 .31835938 .49499513 .31835938 .5269928 .3363495 .5269928 .37635804 .5269928 .42837525 .46798707 .4423828 .43399049 .4423828 .37599183 .4423828 .34098817 .38935853 .32899476 .36634828 .3039856 .43237306 .25 .4423828 .22099304 .4423828 .116989139 .4423828 .05999756 .3133545 .05999756 .28834535 .05999756 .27833558 .069992069 .27833558 .07199097 .27833558 .07998657 .27833558 .08299255 .28033448 .084991458 .28933717 .11898804 .39535523 .18499756 .42037965 .21899414 .42037965 .23799134 .42037965 .272995 .4113617 .272995 .35334779 .272995 .32235719 .2559967 .25532533 .21899414 .11528015 .20298767 .053268434 .16799927 .011245728 .12399292 .011245728 .117996219 .011245728 .09498596 .011245728 .07398987 .024276734 .09899902 .029266358 .12098694 .05027771 .12098694 .07827759 .12098694 .105270389 .09899902 .11328125 .083999637 .11328125 .053985597 .11328125 .0289917 .08728027 .0289917 .055267335 .0289917 .009246826 .07899475-.0107421879 .12298584-.0107421879 .18899536-.0107421879 .22499085 .059280397 .22799683 .0652771 .23999024 .028274537 .27598573-.0107421879 .33599855-.0107421879 .43899537-.0107421879 .49598695 .118270877 .49598695 .14328003 .49598695 .1532898 .4869995 .1532898 .48399354 .1532898 .47499085 .1532898 .47299195 .14929199 .47099305 .14228821 .43798829 .03527832 .36999513 .011245728 .33799745 .011245728 .29899598 .011245728 .2829895 .043273927 .2829895 .07727051 .2829895 .09927368 .2889862 .121276859 .2999878 .16529846L.33399964 .30233766Z"/>
<path id="font_1_3" d="M.48599244 .38136292C.48999024 .39537049 .48999024 .39736939 .48999024 .40437318 .48999024 .42237855 .47599793 .43138124 .46099855 .43138124 .45098878 .43138124 .43499757 .42536927 .42599488 .41036988 .42399598 .405365 .41600038 .37435914 .4119873 .35635377 .40499879 .33035279 .397995 .30334474 .3919983 .27633668L.34700013 .09628296C.34298707 .08126831 .2999878 .011245728 .23399353 .011245728 .18299866 .011245728 .17199707 .055267335 .17199707 .0922699 .17199707 .1382904 .18899536 .20030213 .22299195 .28833009 .23899842 .3293457 .24299622 .3403473 .24299622 .36035157 .24299622 .405365 .21099854 .4423828 .16099549 .4423828 .06599426 .4423828 .0289917 .29733277 .0289917 .28833009 .0289917 .27833558 .038986207 .27833558 .040985109 .27833558 .050994874 .27833558 .051986696 .28033448 .056991579 .29634095 .083999637 .3903656 .12399292 .42037965 .1579895 .42037965 .1659851 .42037965 .18299866 .42037965 .18299866 .3883667 .18299866 .36335755 .17298889 .3373413 .1659851 .31834413 .12599182 .21231079 .10798645 .1552887 .10798645 .10827637 .10798645 .019256592 .17098999-.0107421879 .22999573-.0107421879 .2689972-.0107421879 .30299378 .0062561037 .33099366 .03425598 .31799317-.017745972 .30599977-.06674194 .2659912-.11973572 .23999024-.15385437 .20199585-.18309021 .1559906-.18309021 .14199829-.18309021 .09700012-.18005371 .07998657-.14074707 .09599304-.14074707 .10899353-.14074707 .12298584-.1287384 .1329956-.11973572 .14299011-.10673523 .14299011-.08773804 .14299011-.056747438 .115997318-.052734376 .10598755-.052734376 .08299255-.052734376 .049987794-.068740848 .049987794-.11773682 .049987794-.16796875 .09399414-.20507813 .1559906-.20507813 .25898744-.20507813 .3619995-.11373901 .3899994-.00074768069L.48599244 .38136292Z"/>
<path id="font_2_1" d="M.6589966 .23046875C.6759949 .23046875 .69400027 .23046875 .69400027 .25045777 .69400027 .27046205 .6759949 .27046205 .6589966 .27046205H.117996219C.100997928 .27046205 .08299255 .27046205 .08299255 .25045777 .08299255 .23046875 .100997928 .23046875 .117996219 .23046875H.6589966Z"/>
<path id="font_3_9" d="M.44898988 .20022583C.44898988 .3193512 .36698915 .41944886 .25898744 .41944886 .21099854 .41944886 .16799927 .40345765 .13198853 .36842347V.5637665C.1519928 .5577698 .18499756 .55078127 .21699524 .55078127 .33999635 .55078127 .4099884 .6417694 .4099884 .6547699 .4099884 .6607666 .40699769 .6657715 .3999939 .6657715 .39898683 .6657715 .39698792 .6657715 .3919983 .66278079 .37199403 .6537781 .32299806 .6337738 .2559967 .6337738 .21598816 .6337738 .16999817 .6407776 .12298584 .6617737 .114990238 .66477969 .11299133 .66477969 .11099243 .66477969 .100997928 .66477969 .100997928 .6567688 .100997928 .6407776V.34439088C.100997928 .32637025 .100997928 .31835938 .114990238 .31835938 .12199402 .31835938 .12399292 .32136537 .12799073 .32736207 .13899231 .3433838 .17599488 .39746095 .25698854 .39746095 .30899049 .39746095 .33399964 .35139466 .34199525 .33337403 .35798646 .29632569 .3600006 .25727845 .3600006 .20722962 .3600006 .17222595 .3600006 .11222839 .33599855 .07035828 .31199647 .031463624 .2749939 .0055389406 .22898865 .0055389406 .1559906 .0055389406 .09899902 .058380128 .08198547 .11723328 .084991458 .1162262 .08799744 .115234378 .09899902 .115234378 .13198853 .115234378 .14898682 .14022827 .14898682 .16423035 .14898682 .18823242 .13198853 .21322632 .09899902 .21322632 .084991458 .21322632 .049987794 .20622254 .049987794 .16023255 .049987794 .07434082 .11898804-.022460938 .23098755-.022460938 .34700013-.022460938 .44898988 .073349 .44898988 .20022583Z"/>
<path id="font_3_1" d="M.33099366-.2400055C.33099366-.23701477 .33099366-.23500061 .31399537-.21800232 .18899536-.0920105 .15699768 .09700012 .15699768 .25 .15699768 .42399598 .19499207 .59799197 .31799317 .72299197 .33099366 .73498538 .33099366 .7369995 .33099366 .73999026 .33099366 .746994 .32699586 .75 .32099916 .75 .31098939 .75 .22099304 .6819916 .1619873 .5549927 .11099243 .44499208 .09899902 .33399964 .09899902 .25 .09899902 .17199707 .10998535 .050994874 .16499329-.06201172 .22499085-.18501282 .31098939-.25 .32099916-.25 .32699586-.25 .33099366-.24700928 .33099366-.2400055Z"/>
<path id="font_2_2" d="M.3889923-.8549652 .21299744-.4659729C.20599365-.44996644 .20098877-.44996644 .19799805-.44996644 .19699097-.44996644 .19198609-.44996644 .18099976-.45796205L.085998538-.52996829C.07299805-.53996279 .07299805-.54296877 .07299805-.54597476 .07299805-.55096438 .07598877-.55696108 .08299255-.55696108 .08898926-.55696108 .10598755-.54296877 .116989139-.53497317 .12298584-.52996829 .13798523-.5189667 .14898682-.51097109L.34599305-.9439697C.35299684-.95996096 .35798646-.95996096 .36698915-.95996096 .38198854-.95996096 .3849945-.95396426 .3919983-.9399719L.84599307 .000030517579C.8529968 .014038086 .8529968 .018035889 .8529968 .02003479 .8529968 .030029297 .8450012 .040039064 .83299258 .040039064 .82499697 .040039064 .81799319 .03503418 .80999758 .01902771L.3889923-.8549652Z"/>
<path id="font_3_7" d="M.2899933 .35191346C.37199403 .37893678 .42999269 .4490509 .42999269 .52809146 .42999269 .6100464 .34199525 .6660156 .24598694 .6660156 .14498902 .6660156 .068984989 .60606387 .068984989 .53009036 .068984989 .49710084 .09098816 .47808839 .11999512 .47808839 .15098572 .47808839 .17098999 .50009158 .17098999 .5290985 .17098999 .57910159 .12399292 .57910159 .10899353 .57910159 .13999939 .62802127 .20599365 .64100649 .24198914 .64100649 .2829895 .64100649 .33799745 .6190338 .33799745 .5290985 .33799745 .51708987 .33599855 .45906068 .30999757 .4149933 .27999879 .36691285 .24598694 .36390687 .22099304 .36291505 .21299744 .36190797 .18899536 .35990907 .18199158 .35990907 .17399597 .35890199 .16699219 .35791017 .16699219 .3479004 .16699219 .33691407 .17399597 .33691407 .19099427 .33691407H.23498535C.31698609 .33691407 .35398866 .2686615 .35398866 .17037964 .35398866 .034469606 .2849884 .0055389406 .24099732 .0055389406 .19799805 .0055389406 .12298584 .022491456 .08799744 .08137512 .12298584 .07637024 .1539917 .09837341 .1539917 .1363678 .1539917 .17237854 .1269989 .19238281 .09799194 .19238281 .07398987 .19238281 .041992189 .17837525 .041992189 .1343689 .041992189 .043441774 .1349945-.022460938 .24398804-.022460938 .3659973-.022460938 .45700074 .06838989 .45700074 .17037964 .45700074 .252594 .3939972 .33088685 .2899933 .35191346Z"/>
<path id="font_1_1" d="M.20298767 .0009918213C.20298767 .066986087 .17799378 .10598755 .13899231 .10598755 .10598755 .10598755 .085998538 .08099365 .085998538 .052993776 .085998538 .025985718 .10598755 0 .13899231 0 .15098572 0 .1639862 .0039978029 .17399597 .0129852299 .1769867 .01499939 .17799378 .015991211 .1789856 .015991211 .17999268 .015991211 .18099976 .01499939 .18099976 .0009918213 .18099976-.07316589 .1459961-.13328552 .11299133-.16635132 .101989749-.17736817 .101989749-.17936707 .101989749-.18237305 .101989749-.18936157 .10699463-.19335938 .11199951-.19335938 .12298584-.19335938 .20298767-.116256717 .20298767 .0009918213Z"/>
<path id="font_3_4" d="M.45999146 .31976319C.45999146 .39982606 .45498658 .47988893 .41999818 .5539398 .37399293 .65000918 .2919922 .6660156 .25 .6660156 .18998719 .6660156 .116989139 .64001467 .07598877 .54693606 .04399109 .47789 .038986207 .39982606 .038986207 .31976319 .038986207 .24472046 .042999269 .15464783 .083999637 .07859802 .1269989-.0024719239 .19999695-.022460938 .24899292-.022460938 .30299378-.022460938 .3789978-.0014648438 .4229889 .09359741 .45498658 .16265869 .45999146 .2407074 .45999146 .31976319M.24899292-.00047302247C.20999146-.00047302247 .15098572 .024551392 .1329956 .12062073 .12199402 .18066406 .12199402 .2727356 .12199402 .3317871 .12199402 .39582826 .12199402 .46188355 .12998963 .5159149 .14898682 .63500979 .22399903 .64401248 .24899292 .64401248 .28199769 .64401248 .34799195 .6259918 .36698915 .52693179 .3769989 .47088624 .3769989 .39482118 .3769989 .3317871 .3769989 .25672914 .3769989 .18867493 .3659973 .12461853 .35099793 .029556275 .2939911-.00047302247 .24899292-.00047302247Z"/>
<path id="font_3_2" d="M.2889862 .25C.2889862 .32798768 .27799989 .44898988 .22299195 .56199648 .16299439 .68499758 .07699585 .75 .066986087 .75 .06098938 .75 .056991579 .74598696 .056991579 .73999026 .056991579 .7369995 .056991579 .73498538 .07598877 .71699526 .17399597 .6179962 .23098755 .45899964 .23098755 .25 .23098755 .07899475 .19400025-.09700012 .069992069-.2230072 .056991579-.23500061 .056991579-.23701477 .056991579-.2400055 .056991579-.2460022 .06098938-.25 .066986087-.25 .07699585-.25 .16699219-.18200684 .22599793-.055007936 .2769928 .054992677 .2889862 .16600037 .2889862 .25Z"/>
<path id="font_3_6" d="M.1269989 .07699585 .23298645 .18003845C.3889923 .31811524 .44898988 .3721466 .44898988 .47216798 .44898988 .5860901 .35899354 .6660156 .23699951 .6660156 .12399292 .6660156 .049987794 .57411196 .049987794 .48516847 .049987794 .4291687 .099990848 .4291687 .102996829 .4291687 .11999512 .4291687 .15499878 .44117738 .15499878 .48217774 .15499878 .5081787 .13699341 .5341797 .101989749 .5341797 .09399414 .5341797 .09199524 .5341797 .08898926 .5331726 .11199951 .59806826 .1659851 .63500979 .22399903 .63500979 .31498719 .63500979 .35798646 .5541382 .35798646 .47216798 .35798646 .39215089 .30799867 .31311036 .25299073 .25108338L.06098938 .036987306C.049987794 .025985718 .049987794 .023986817 .049987794 0H.42099L.44898988 .17404175H.42399598C.4189911 .14402771 .4119873 .1000061 .4019928 .084991458 .394989 .07699585 .32899476 .07699585 .30699159 .07699585H.1269989Z"/>
<path id="font_3_8" d="M.2939911 .16503906V.07800293C.2939911 .041992189 .2919922 .0309906 .21798706 .0309906H.19699097V0C.23799134 .0029907227 .2899933 .0029907227 .33198548 .0029907227 .37399293 .0029907227 .4269867 .0029907227 .46798707 0V.0309906H.44699098C.37298585 .0309906 .37098695 .041992189 .37098695 .07800293V.16503906H.47099305V.19602967H.37098695V.65075686C.37098695 .67074587 .37098695 .6767578 .35499574 .6767578 .34599305 .6767578 .34298707 .6767578 .33499146 .66474917L.027999878 .19602967V.16503906H.2939911M.2999878 .19602967H.055999757L.2999878 .5688019V.19602967Z"/>
<path id="font_4_1" d="M.5049896 .18203736H.47099305C.46798707 .16001892 .45799256 .100997928 .44499208 .09098816 .43699647 .084991458 .3600006 .084991458 .34599305 .084991458H.1619873C.2669983 .17803955 .3019867 .20603943 .3619995 .25306703 .43598939 .312088 .5049896 .374115 .5049896 .46914674 .5049896 .5900879 .39898683 .6640625 .2709961 .6640625 .14698792 .6640625 .06298828 .57710269 .06298828 .4851532 .06298828 .43414308 .10598755 .42915345 .115997318 .42915345 .13999939 .42915345 .16899109 .44615174 .16899109 .48214723 .16899109 .5001526 .1619873 .53515627 .10998535 .53515627 .14099121 .6060791 .20899964 .62805178 .2559967 .62805178 .35598756 .62805178 .4079895 .5501404 .4079895 .46914674 .4079895 .38212586 .34599305 .3130951 .31399537 .27708436L.07299805 .038986207C.06298828 .02999878 .06298828 .027999878 .06298828 0H.47499085L.5049896 .18203736Z"/>
<path id="font_3_3" d="M.40899659 .23046875H.6879883C.70199587 .23046875 .72099307 .23046875 .72099307 .25045777 .72099307 .27046205 .70199587 .27046205 .6879883 .27046205H.40899659V.5500183C.40899659 .56399539 .40899659 .5830078 .3889923 .5830078 .36898805 .5830078 .36898805 .56399539 .36898805 .5500183V.27046205H.08898926C.07499695 .27046205 .055999757 .27046205 .055999757 .25045777 .055999757 .23046875 .07499695 .23046875 .08898926 .23046875H.36898805V-.05000305C.36898805-.06401062 .36898805-.08300781 .3889923-.08300781 .40899659-.08300781 .40899659-.06401062 .40899659-.05000305V.23046875Z"/>
<path id="font_3_10" d="M.68699648 .32714845C.70199587 .32714845 .72099307 .32714845 .72099307 .34713746 .72099307 .36714173 .70199587 .36714173 .6879883 .36714173H.08898926C.07499695 .36714173 .055999757 .36714173 .055999757 .34713746 .055999757 .32714845 .07499695 .32714845 .08999634 .32714845H.68699648M.6879883 .13284302C.70199587 .13284302 .72099307 .13284302 .72099307 .15284729 .72099307 .17285156 .70199587 .17285156 .68699648 .17285156H.08999634C.07499695 .17285156 .055999757 .17285156 .055999757 .15284729 .055999757 .13284302 .07499695 .13284302 .08898926 .13284302H.6879883Z"/>
<path id="font_3_5" d="M.2939911 .64004519C.2939911 .66400149 .2939911 .6660156 .2709961 .6660156 .20899964 .60227969 .12098694 .60227969 .08898926 .60227969V.57128909C.10899353 .57128909 .16799927 .57128909 .21998596 .5972748V.07902527C.21998596 .042999269 .21699524 .0309906 .1269989 .0309906H.09498596V0C.12998963 .0029907227 .21699524 .0029907227 .25698854 .0029907227 .29699708 .0029907227 .38398744 .0029907227 .4189911 0V.0309906H.3869934C.29699708 .0309906 .2939911 .041992189 .2939911 .07902527V.64004519Z"/>
</defs>
<path transform="matrix(1.00002,0,0,-1,105.789859,120.999)" stroke-width=".3985" stroke-linecap="butt" stroke-miterlimit="10" stroke-linejoin="miter" fill="none" stroke="#00aeef" d="M-99.2134-99.2134H99.2134M-99.2134-79.37071H99.2134M-99.2134-59.52802H99.2134M-99.2134-39.68535H99.2134M-99.2134-19.84267H99.2134M-99.2134 0H99.2134M-99.2134 19.84267H99.2134M-99.2134 39.68535H99.2134M-99.2134 59.52802H99.2134M-99.2134 79.37071H99.2134M-99.2134 99.20642H99.2134M-99.2134-99.2134V99.2134M-79.37071-99.2134V99.2134M-59.52802-99.2134V99.2134M-39.68535-99.2134V99.2134M-19.84267-99.2134V99.2134M0-99.2134V99.2134M19.84267-99.2134V99.2134M39.68535-99.2134V99.2134M59.52802-99.2134V99.2134M79.37071-99.2134V99.2134M99.20642-99.2134V99.2134M99.2134 99.2134"/>
<path transform="matrix(1.00002,0,0,-1,105.789859,120.999)" stroke-width=".79701" stroke-linecap="butt" stroke-miterlimit="10" stroke-linejoin="miter" fill="none" stroke="#000000" d="M-99.2134 0H107.7001"/>
<path transform="matrix(1.00002,0,0,-1,213.49213,120.999)" d="M1.0361 0C-.25902 .25902-1.55415 .77707-3.1083 1.68365-1.55415 .51805-1.55415-.51805-3.1083-1.68365-1.55415-.77707-.25902-.25902 1.0361 0Z"/>
<path transform="matrix(1.00002,0,0,-1,213.49213,120.999)" stroke-width=".79701" stroke-linecap="butt" stroke-linejoin="round" fill="none" stroke="#000000" d="M1.0361 0C-.25902 .25902-1.55415 .77707-3.1083 1.68365-1.55415 .51805-1.55415-.51805-3.1083-1.68365-1.55415-.77707-.25902-.25902 1.0361 0Z"/>
<use data-text="x" xlink:href="#font_1_2" transform="matrix(9.962799,0,0,-9.9626,218.64612,123.144)"/>
<path transform="matrix(1.00002,0,0,-1,105.789859,120.999)" stroke-width=".79701" stroke-linecap="butt" stroke-miterlimit="10" stroke-linejoin="miter" fill="none" stroke="#000000" d="M0-99.2134V107.7001"/>
<path transform="matrix(0,-1,-1.00002,-0,105.789859,13.298897)" d="M1.0361 0C-.25902 .25902-1.55415 .77707-3.1083 1.68365-1.55415 .51805-1.55415-.51805-3.1083-1.68365-1.55415-.77707-.25902-.25902 1.0361 0Z"/>
<path transform="matrix(0,-1,-1.00002,-0,105.789859,13.298897)" stroke-width=".79701" stroke-linecap="butt" stroke-linejoin="round" fill="none" stroke="#000000" d="M1.0361 0C-.25902 .25902-1.55415 .77707-3.1083 1.68365-1.55415 .51805-1.55415-.51805-3.1083-1.68365-1.55415-.77707-.25902-.25902 1.0361 0Z"/>
<use data-text="y" xlink:href="#font_1_3" transform="matrix(9.962799,0,0,-9.9626,103.1688,6.208)"/>
<path transform="matrix(1.00002,0,0,-1,105.789859,120.999)" stroke-width=".3985" stroke-linecap="butt" stroke-miterlimit="10" stroke-linejoin="miter" fill="none" stroke="#000000" d="M-99.2134 2.97627V-2.97658"/>
<path transform="matrix(1.00002,0,0,-1,105.789859,120.999)" d="M-106.57478-14.4116H-91.852008V-5.1683704H-106.57478Z" fill="#ffffff"/>
<use data-text="&#x2212;" xlink:href="#font_2_1" transform="matrix(9.962799,0,0,-9.9626,.20874024,133.584)"/>
<use data-text="5" xlink:href="#font_3_9" transform="matrix(9.962799,0,0,-9.9626,7.956894,133.584)"/>
<path transform="matrix(1.00002,0,0,-1,105.789859,120.999)" stroke-width=".3985" stroke-linecap="butt" stroke-miterlimit="10" stroke-linejoin="miter" fill="none" stroke="#000000" d="M2.97627-99.2134H-2.97658"/>
<path transform="matrix(1.00002,0,0,-1,105.789859,120.999)" d="M-19.89116-103.835H-5.168379V-94.59177H-19.89116Z" fill="#ffffff"/>
<use data-text="&#x2212;" xlink:href="#font_2_1" transform="matrix(9.962799,0,0,-9.9626,86.89448,223.007)"/>
<use data-text="5" xlink:href="#font_3_9" transform="matrix(9.962799,0,0,-9.9626,94.64263,223.007)"/>
<path transform="matrix(1.00002,0,0,-1,105.789859,120.999)" stroke-width=".3985" stroke-linecap="butt" stroke-miterlimit="10" stroke-linejoin="miter" fill="none" stroke="#000000" d="M99.2134 2.97627V-2.97658"/>
<path transform="matrix(1.00002,0,0,-1,105.789859,120.999)" d="M95.72643-13.58136H102.70037V-5.16838H95.72643Z" fill="#ffffff"/>
<use data-text="5" xlink:href="#font_3_9" transform="matrix(9.962799,0,0,-9.9626,202.5148,133.584)"/>
<path transform="matrix(1.00002,0,0,-1,105.789859,120.999)" stroke-width=".3985" stroke-linecap="butt" stroke-miterlimit="10" stroke-linejoin="miter" fill="none" stroke="#000000" d="M2.97627 99.2134H-2.97658"/>
<path transform="matrix(1.00002,0,0,-1,105.789859,120.999)" d="M-12.14232 95.0069H-5.16838V103.419879H-12.14232Z" fill="#ffffff"/>
<use data-text="5" xlink:href="#font_3_9" transform="matrix(9.962799,0,0,-9.9626,94.64363,24.996003)"/>
<path transform="matrix(1.00002,0,0,-1,105.789859,120.999)" stroke-width=".79701" stroke-linecap="butt" stroke-miterlimit="10" stroke-linejoin="miter" fill="none" stroke="#ff0000" d="M34.3686 0C34.3686 37.96284 18.98149 68.73694 0 68.73694-18.98149 68.73694-34.3686 37.96284-34.3686 0-34.3686-37.96284-18.98149-68.73694 0-68.73694 18.98149-68.73694 34.3686-37.96284 34.3686 0ZM0 0"/>
<path transform="matrix(1.00002,0,0,-1,105.789859,120.999)" d="M-32.38423 0C-32.38423 1.09593-33.27267 1.98438-34.3686 1.98438-35.46455 1.98438-36.35298 1.09593-36.35298 0-36.35298-1.09593-35.46455-1.98438-34.3686-1.98438-33.27267-1.98438-32.38423-1.09593-32.38423 0ZM-34.3686 0" fill="#ff0000"/>
<path transform="matrix(1.00002,0,0,-1,105.789859,120.999)" stroke-width=".3985" stroke-linecap="butt" stroke-miterlimit="10" stroke-linejoin="miter" fill="none" stroke="#ff0000" d="M-32.38423 0C-32.38423 1.09593-33.27267 1.98438-34.3686 1.98438-35.46455 1.98438-36.35298 1.09593-36.35298 0-36.35298-1.09593-35.46455-1.98438-34.3686-1.98438-33.27267-1.98438-32.38423-1.09593-32.38423 0ZM-34.3686 0"/>
<path transform="matrix(1.00002,0,0,-1,105.789859,120.999)" d="M-77.73993 4.18436H-37.556699V17.706H-77.73993Z" fill="#ffffff"/>
<use data-text="(" xlink:href="#font_3_1" transform="matrix(9.962799,0,0,-9.9626,29.044327,113.328)" fill="#ff0000"/>
<use data-text="&#x2212;" xlink:href="#font_2_1" transform="matrix(9.962799,0,0,-9.9626,32.918397,113.328)" fill="#ff0000"/>
<use data-text="&#x221a;" xlink:href="#font_2_2" transform="matrix(9.962799,0,0,-9.9626,40.66754,105.087009)" fill="#ff0000"/>
<path transform="matrix(1.00002,0,0,-1,-163.74753,5.329)" stroke-width=".3985" stroke-linecap="butt" stroke-miterlimit="10" stroke-linejoin="miter" fill="none" stroke="#ff0000" d="M212.713-99.559H217.694"/>
<use data-text="3" xlink:href="#font_3_7" transform="matrix(9.962799,0,0,-9.9626,48.969728,113.328)" fill="#ff0000"/>
<use data-text="," xlink:href="#font_1_1" transform="matrix(9.962799,0,0,-9.9626,53.950838,113.328)" fill="#ff0000"/>
<use data-text="0" xlink:href="#font_3_4" transform="matrix(9.962799,0,0,-9.9626,58.37892,113.328)" fill="#ff0000"/>
<use data-text=")" xlink:href="#font_3_2" transform="matrix(9.962799,0,0,-9.9626,63.360307,113.328)" fill="#ff0000"/>
<path transform="matrix(1.00002,0,0,-1,105.789859,120.999)" d="M36.35298 0C36.35298 1.09593 35.46455 1.98438 34.3686 1.98438 33.27267 1.98438 32.38423 1.09593 32.38423 0 32.38423-1.09593 33.27267-1.98438 34.3686-1.98438 35.46455-1.98438 36.35298-1.09593 36.35298 0ZM34.3686 0" fill="#ff0000"/>
<path transform="matrix(1.00002,0,0,-1,105.789859,120.999)" stroke-width=".3985" stroke-linecap="butt" stroke-miterlimit="10" stroke-linejoin="miter" fill="none" stroke="#ff0000" d="M36.35298 0C36.35298 1.09593 35.46455 1.98438 34.3686 1.98438 33.27267 1.98438 32.38423 1.09593 32.38423 0 32.38423-1.09593 33.27267-1.98438 34.3686-1.98438 35.46455-1.98438 36.35298-1.09593 36.35298 0ZM34.3686 0"/>
<path transform="matrix(1.00002,0,0,-1,105.789859,120.999)" d="M37.55669 4.18436H69.99108V17.706H37.55669Z" fill="#ffffff"/>
<use data-text="(" xlink:href="#font_3_1" transform="matrix(9.962799,0,0,-9.9626,144.34363,113.328)" fill="#ff0000"/>
<use data-text="&#x221a;" xlink:href="#font_2_2" transform="matrix(9.962799,0,0,-9.9626,148.2177,105.087009)" fill="#ff0000"/>
<path transform="matrix(1.00002,0,0,-1,-48.448228,5.329)" stroke-width=".3985" stroke-linecap="butt" stroke-miterlimit="10" stroke-linejoin="miter" fill="none" stroke="#ff0000" d="M204.964-99.559H209.946"/>
<use data-text="3" xlink:href="#font_3_7" transform="matrix(9.962799,0,0,-9.9626,156.51988,113.328)" fill="#ff0000"/>
<use data-text="," xlink:href="#font_1_1" transform="matrix(9.962799,0,0,-9.9626,161.50199,113.328)" fill="#ff0000"/>
<use data-text="0" xlink:href="#font_3_4" transform="matrix(9.962799,0,0,-9.9626,165.92906,113.328)" fill="#ff0000"/>
<use data-text=")" xlink:href="#font_3_2" transform="matrix(9.962799,0,0,-9.9626,170.91046,113.328)" fill="#ff0000"/>
<path transform="matrix(1.00002,0,0,-1,105.789859,120.999)" d="M1.98438 68.73694C1.98438 69.83289 1.09593 70.72131 0 70.72131-1.09593 70.72131-1.98438 69.83289-1.98438 68.73694-1.98438 67.64099-1.09593 66.75256 0 66.75256 1.09593 66.75256 1.98438 67.64099 1.98438 68.73694ZM0 68.73694" fill="#ff0000"/>
<path transform="matrix(1.00002,0,0,-1,105.789859,120.999)" stroke-width=".3985" stroke-linecap="butt" stroke-miterlimit="10" stroke-linejoin="miter" fill="none" stroke="#ff0000" d="M1.98438 68.73694C1.98438 69.83289 1.09593 70.72131 0 70.72131-1.09593 70.72131-1.98438 69.83289-1.98438 68.73694-1.98438 67.64099-1.09593 66.75256 0 66.75256 1.09593 66.75256 1.98438 67.64099 1.98438 68.73694ZM0 68.73694"/>
<path transform="matrix(1.00002,0,0,-1,105.789859,120.999)" d="M1.19553 72.9213H38.6113V86.44294H1.19553Z" fill="#ffffff"/>
<use data-text="(" xlink:href="#font_3_1" transform="matrix(9.962799,0,0,-9.9626,107.9819,44.591005)" fill="#ff0000"/>
<use data-text="0" xlink:href="#font_3_4" transform="matrix(9.962799,0,0,-9.9626,111.84747,44.591005)" fill="#ff0000"/>
<use data-text="," xlink:href="#font_1_1" transform="matrix(9.962799,0,0,-9.9626,116.83708,44.591005)" fill="#ff0000"/>
<use data-text="2" xlink:href="#font_3_6" transform="matrix(9.962799,0,0,-9.9626,121.26515,44.591005)" fill="#ff0000"/>
<use data-text="&#x221a;" xlink:href="#font_2_2" transform="matrix(9.962799,0,0,-9.9626,126.24626,36.350008)" fill="#ff0000"/>
<path transform="matrix(1.00002,0,0,-1,-84.80995,-63.407999)" stroke-width=".3985" stroke-linecap="butt" stroke-miterlimit="10" stroke-linejoin="miter" fill="none" stroke="#ff0000" d="M219.355-99.559H224.336"/>
<use data-text="3" xlink:href="#font_3_7" transform="matrix(9.962799,0,0,-9.9626,134.54944,44.591005)" fill="#ff0000"/>
<use data-text=")" xlink:href="#font_3_2" transform="matrix(9.962799,0,0,-9.9626,139.53083,44.591005)" fill="#ff0000"/>
<path transform="matrix(1.00002,0,0,-1,105.789859,120.999)" d="M1.98438-68.73694C1.98438-67.64099 1.09593-66.75256 0-66.75256-1.09593-66.75256-1.98438-67.64099-1.98438-68.73694-1.98438-69.83289-1.09593-70.72131 0-70.72131 1.09593-70.72131 1.98438-69.83289 1.98438-68.73694ZM0-68.73694" fill="#ff0000"/>
<path transform="matrix(1.00002,0,0,-1,105.789859,120.999)" stroke-width=".3985" stroke-linecap="butt" stroke-miterlimit="10" stroke-linejoin="miter" fill="none" stroke="#ff0000" d="M1.98438-68.73694C1.98438-67.64099 1.09593-66.75256 0-66.75256-1.09593-66.75256-1.98438-67.64099-1.98438-68.73694-1.98438-69.83289-1.09593-70.72131 0-70.72131 1.09593-70.72131 1.98438-69.83289 1.98438-68.73694ZM0-68.73694"/>
<path transform="matrix(1.00002,0,0,-1,105.789859,120.999)" d="M1.19553-86.44295H46.36014V-72.92131H1.19553Z" fill="#ffffff"/>
<use data-text="(" xlink:href="#font_3_1" transform="matrix(9.962799,0,0,-9.9626,107.9819,203.955)" fill="#ff0000"/>
<use data-text="0" xlink:href="#font_3_4" transform="matrix(9.962799,0,0,-9.9626,111.84747,203.955)" fill="#ff0000"/>
<use data-text="," xlink:href="#font_1_1" transform="matrix(9.962799,0,0,-9.9626,116.83708,203.955)" fill="#ff0000"/>
<use data-text="&#x2212;" xlink:href="#font_2_1" transform="matrix(9.962799,0,0,-9.9626,121.26515,203.955)" fill="#ff0000"/>
<use data-text="2" xlink:href="#font_3_6" transform="matrix(9.962799,0,0,-9.9626,129.01432,203.955)" fill="#ff0000"/>
<use data-text="&#x221a;" xlink:href="#font_2_2" transform="matrix(9.962799,0,0,-9.9626,133.9954,195.714)" fill="#ff0000"/>
<path transform="matrix(1.00002,0,0,-1,-84.80995,95.956)" stroke-width=".3985" stroke-linecap="butt" stroke-miterlimit="10" stroke-linejoin="miter" fill="none" stroke="#ff0000" d="M227.103-99.559H232.085"/>
<use data-text="3" xlink:href="#font_3_7" transform="matrix(9.962799,0,0,-9.9626,142.29759,203.955)" fill="#ff0000"/>
<use data-text=")" xlink:href="#font_3_2" transform="matrix(9.962799,0,0,-9.9626,147.27899,203.955)" fill="#ff0000"/>
<path transform="matrix(1.00002,0,0,-1,105.789859,120.999)" d="M-89.67581 64.41774H-25.411469V78.44977H-89.67581Z" fill="#ffffff"/>
<use data-text="4" xlink:href="#font_3_8" transform="matrix(9.962799,0,0,-9.9626,18.105103,52.652)"/>
<use data-text="x" xlink:href="#font_1_2" transform="matrix(9.962799,0,0,-9.9626,23.086213,52.652)"/>
<use data-text="2" xlink:href="#font_4_1" transform="matrix(6.97394,0,0,-6.9738,28.78032,49.037004)"/>
<use data-text="+" xlink:href="#font_3_3" transform="matrix(9.962799,0,0,-9.9626,35.463457,52.652)"/>
<use data-text="y" xlink:href="#font_1_3" transform="matrix(9.962799,0,0,-9.9626,45.42665,52.652)"/>
<use data-text="2" xlink:href="#font_4_1" transform="matrix(6.97394,0,0,-6.9738,50.668764,49.037004)"/>
<use data-text="=" xlink:href="#font_3_10" transform="matrix(9.962799,0,0,-9.9626,57.904909,52.652)"/>
<use data-text="1" xlink:href="#font_3_5" transform="matrix(9.962799,0,0,-9.9626,68.4057,52.652)"/>
<use data-text="2" xlink:href="#font_3_6" transform="matrix(9.962799,0,0,-9.9626,73.3871,52.652)"/>
</svg>
