<svg xmlns="http://www.w3.org/2000/svg" xmlns:xlink="http://www.w3.org/1999/xlink" version="1.1" width="280" height="197" viewBox="0 0 280 197">
<defs>
<path id="font_1_2" d="M.33399964 .30233766C.33999635 .32835389 .36299134 .42037965 .43299867 .42037965 .43798829 .42037965 .46199037 .42037965 .48298646 .40734864 .45498658 .402359 .43499757 .37734986 .43499757 .35334779 .43499757 .33735658 .44599916 .31835938 .47299195 .31835938 .49499513 .31835938 .5269928 .3363495 .5269928 .37635804 .5269928 .42837525 .46798707 .4423828 .43399049 .4423828 .37599183 .4423828 .34098817 .38935853 .32899476 .36634828 .3039856 .43237306 .25 .4423828 .22099304 .4423828 .116989139 .4423828 .05999756 .3133545 .05999756 .28834535 .05999756 .27833558 .069992069 .27833558 .07199097 .27833558 .07998657 .27833558 .08299255 .28033448 .084991458 .28933717 .11898804 .39535523 .18499756 .42037965 .21899414 .42037965 .23799134 .42037965 .272995 .4113617 .272995 .35334779 .272995 .32235719 .2559967 .25532533 .21899414 .11528015 .20298767 .053268434 .16799927 .011245728 .12399292 .011245728 .117996219 .011245728 .09498596 .011245728 .07398987 .024276734 .09899902 .029266358 .12098694 .05027771 .12098694 .07827759 .12098694 .105270389 .09899902 .11328125 .083999637 .11328125 .053985597 .11328125 .0289917 .08728027 .0289917 .055267335 .0289917 .009246826 .07899475-.0107421879 .12298584-.0107421879 .18899536-.0107421879 .22499085 .059280397 .22799683 .0652771 .23999024 .028274537 .27598573-.0107421879 .33599855-.0107421879 .43899537-.0107421879 .49598695 .118270877 .49598695 .14328003 .49598695 .1532898 .4869995 .1532898 .48399354 .1532898 .47499085 .1532898 .47299195 .14929199 .47099305 .14228821 .43798829 .03527832 .36999513 .011245728 .33799745 .011245728 .29899598 .011245728 .2829895 .043273927 .2829895 .07727051 .2829895 .09927368 .2889862 .121276859 .2999878 .16529846L.33399964 .30233766Z"/>
<path id="font_1_1" d="M.375 .6136017C.3809967 .63760378 .38398744 .6476135 .40299989 .65060427 .4119873 .6516113 .44400025 .6516113 .46398927 .6516113 .5349884 .6516113 .6459961 .6516113 .6459961 .5525818 .6459961 .51856997 .6299896 .44955445 .59098818 .41055299 .5649872 .38453675 .5119934 .35253907 .42199708 .35253907H.30999757L.375 .6136017M.5189972 .33953858C.6199951 .3615265 .7389984 .43154908 .7389984 .5325775 .7389984 .61860659 .6489868 .6826172 .5179901 .6826172H.23298645C.21299744 .6826172 .20399475 .6826172 .20399475 .6626129 .20399475 .6516113 .21299744 .6516113 .23199463 .6516113 .23399353 .6516113 .25299073 .6516113 .269989 .6496124 .28799439 .6476135 .29699708 .64660647 .29699708 .63360598 .29699708 .62960818 .29599 .6266022 .29299928 .6145935L.15899658 .07752991C.14898682 .038528444 .14698792 .030532837 .067993167 .030532837 .049987794 .030532837 .040985109 .030532837 .040985109 .010528564 .040985109-.00047302247 .052993776-.00047302247 .054992677-.00047302247 .08299255-.00047302247 .15299988 .002532959 .18099976 .002532959 .20899964 .002532959 .27999879-.00047302247 .30799867-.00047302247 .31599427-.00047302247 .32798768-.00047302247 .32798768 .01953125 .32798768 .030532837 .31900025 .030532837 .2999878 .030532837 .2630005 .030532837 .23498535 .030532837 .23498535 .048538209 .23498535 .054534913 .23699951 .059524537 .23799134 .0655365L.3039856 .3305359H.4229889C.5139923 .3305359 .5319977 .27453614 .5319977 .23953247 .5319977 .22453308 .5239868 .19352722 .5179901 .17053223 .5109863 .14253235 .5019989 .105529788 .5019989 .08552551 .5019989-.022460938 .621994-.022460938 .6349945-.022460938 .7200012-.022460938 .7549896 .07853699 .7549896 .0925293 .7549896 .104537967 .74398806 .104537967 .7429962 .104537967 .73399356 .104537967 .7319946 .09753418 .7299957 .090530399 .7049866 .016525269 .6619873-.00047302247 .6389923-.00047302247 .60598757-.00047302247 .598999 .021530152 .598999 .060531618 .598999 .091537479 .6049957 .14253235 .60899356 .17453003 .61099246 .1885376 .61299136 .20753479 .61299136 .2215271 .61299136 .2985382 .54599 .3295288 .5189972 .33953858Z"/>
<path id="font_2_2" d="M.2939911 .64004519C.2939911 .66400149 .2939911 .6660156 .2709961 .6660156 .20899964 .60227969 .12098694 .60227969 .08898926 .60227969V.57128909C.10899353 .57128909 .16799927 .57128909 .21998596 .5972748V.07902527C.21998596 .042999269 .21699524 .0309906 .1269989 .0309906H.09498596V0C.12998963 .0029907227 .21699524 .0029907227 .25698854 .0029907227 .29699708 .0029907227 .38398744 .0029907227 .4189911 0V.0309906H.3869934C.29699708 .0309906 .2939911 .041992189 .2939911 .07902527V.64004519Z"/>
<path id="font_2_1" d="M.45999146 .31976319C.45999146 .39982606 .45498658 .47988893 .41999818 .5539398 .37399293 .65000918 .2919922 .6660156 .25 .6660156 .18998719 .6660156 .116989139 .64001467 .07598877 .54693606 .04399109 .47789 .038986207 .39982606 .038986207 .31976319 .038986207 .24472046 .042999269 .15464783 .083999637 .07859802 .1269989-.0024719239 .19999695-.022460938 .24899292-.022460938 .30299378-.022460938 .3789978-.0014648438 .4229889 .09359741 .45498658 .16265869 .45999146 .2407074 .45999146 .31976319M.24899292-.00047302247C.20999146-.00047302247 .15098572 .024551392 .1329956 .12062073 .12199402 .18066406 .12199402 .2727356 .12199402 .3317871 .12199402 .39582826 .12199402 .46188355 .12998963 .5159149 .14898682 .63500979 .22399903 .64401248 .24899292 .64401248 .28199769 .64401248 .34799195 .6259918 .36698915 .52693179 .3769989 .47088624 .3769989 .39482118 .3769989 .3317871 .3769989 .25672914 .3769989 .18867493 .3659973 .12461853 .35099793 .029556275 .2939911-.00047302247 .24899292-.00047302247Z"/>
<path id="font_2_3" d="M.1269989 .07699585 .23298645 .18003845C.3889923 .31811524 .44898988 .3721466 .44898988 .47216798 .44898988 .5860901 .35899354 .6660156 .23699951 .6660156 .12399292 .6660156 .049987794 .57411196 .049987794 .48516847 .049987794 .4291687 .099990848 .4291687 .102996829 .4291687 .11999512 .4291687 .15499878 .44117738 .15499878 .48217774 .15499878 .5081787 .13699341 .5341797 .101989749 .5341797 .09399414 .5341797 .09199524 .5341797 .08898926 .5331726 .11199951 .59806826 .1659851 .63500979 .22399903 .63500979 .31498719 .63500979 .35798646 .5541382 .35798646 .47216798 .35798646 .39215089 .30799867 .31311036 .25299073 .25108338L.06098938 .036987306C.049987794 .025985718 .049987794 .023986817 .049987794 0H.42099L.44898988 .17404175H.42399598C.4189911 .14402771 .4119873 .1000061 .4019928 .084991458 .394989 .07699585 .32899476 .07699585 .30699159 .07699585H.1269989Z"/>
<path id="font_2_4" d="M.2899933 .35191346C.37199403 .37893678 .42999269 .4490509 .42999269 .52809146 .42999269 .6100464 .34199525 .6660156 .24598694 .6660156 .14498902 .6660156 .068984989 .60606387 .068984989 .53009036 .068984989 .49710084 .09098816 .47808839 .11999512 .47808839 .15098572 .47808839 .17098999 .50009158 .17098999 .5290985 .17098999 .57910159 .12399292 .57910159 .10899353 .57910159 .13999939 .62802127 .20599365 .64100649 .24198914 .64100649 .2829895 .64100649 .33799745 .6190338 .33799745 .5290985 .33799745 .51708987 .33599855 .45906068 .30999757 .4149933 .27999879 .36691285 .24598694 .36390687 .22099304 .36291505 .21299744 .36190797 .18899536 .35990907 .18199158 .35990907 .17399597 .35890199 .16699219 .35791017 .16699219 .3479004 .16699219 .33691407 .17399597 .33691407 .19099427 .33691407H.23498535C.31698609 .33691407 .35398866 .2686615 .35398866 .17037964 .35398866 .034469606 .2849884 .0055389406 .24099732 .0055389406 .19799805 .0055389406 .12298584 .022491456 .08799744 .08137512 .12298584 .07637024 .1539917 .09837341 .1539917 .1363678 .1539917 .17237854 .1269989 .19238281 .09799194 .19238281 .07398987 .19238281 .041992189 .17837525 .041992189 .1343689 .041992189 .043441774 .1349945-.022460938 .24398804-.022460938 .3659973-.022460938 .45700074 .06838989 .45700074 .17037964 .45700074 .252594 .3939972 .33088685 .2899933 .35191346Z"/>
<path id="font_2_5" d="M.2939911 .16503906V.07800293C.2939911 .041992189 .2919922 .0309906 .21798706 .0309906H.19699097V0C.23799134 .0029907227 .2899933 .0029907227 .33198548 .0029907227 .37399293 .0029907227 .4269867 .0029907227 .46798707 0V.0309906H.44699098C.37298585 .0309906 .37098695 .041992189 .37098695 .07800293V.16503906H.47099305V.19602967H.37098695V.65075686C.37098695 .67074587 .37098695 .6767578 .35499574 .6767578 .34599305 .6767578 .34298707 .6767578 .33499146 .66474917L.027999878 .19602967V.16503906H.2939911M.2999878 .19602967H.055999757L.2999878 .5688019V.19602967Z"/>
<path id="font_2_6" d="M.44898988 .20022583C.44898988 .3193512 .36698915 .41944886 .25898744 .41944886 .21099854 .41944886 .16799927 .40345765 .13198853 .36842347V.5637665C.1519928 .5577698 .18499756 .55078127 .21699524 .55078127 .33999635 .55078127 .4099884 .6417694 .4099884 .6547699 .4099884 .6607666 .40699769 .6657715 .3999939 .6657715 .39898683 .6657715 .39698792 .6657715 .3919983 .66278079 .37199403 .6537781 .32299806 .6337738 .2559967 .6337738 .21598816 .6337738 .16999817 .6407776 .12298584 .6617737 .114990238 .66477969 .11299133 .66477969 .11099243 .66477969 .100997928 .66477969 .100997928 .6567688 .100997928 .6407776V.34439088C.100997928 .32637025 .100997928 .31835938 .114990238 .31835938 .12199402 .31835938 .12399292 .32136537 .12799073 .32736207 .13899231 .3433838 .17599488 .39746095 .25698854 .39746095 .30899049 .39746095 .33399964 .35139466 .34199525 .33337403 .35798646 .29632569 .3600006 .25727845 .3600006 .20722962 .3600006 .17222595 .3600006 .11222839 .33599855 .07035828 .31199647 .031463624 .2749939 .0055389406 .22898865 .0055389406 .1559906 .0055389406 .09899902 .058380128 .08198547 .11723328 .084991458 .1162262 .08799744 .115234378 .09899902 .115234378 .13198853 .115234378 .14898682 .14022827 .14898682 .16423035 .14898682 .18823242 .13198853 .21322632 .09899902 .21322632 .084991458 .21322632 .049987794 .20622254 .049987794 .16023255 .049987794 .07434082 .11898804-.022460938 .23098755-.022460938 .34700013-.022460938 .44898988 .073349 .44898988 .20022583Z"/>
<path id="font_3_1" d="M.6589966 .23046875C.6759949 .23046875 .69400027 .23046875 .69400027 .25045777 .69400027 .27046205 .6759949 .27046205 .6589966 .27046205H.117996219C.100997928 .27046205 .08299255 .27046205 .08299255 .25045777 .08299255 .23046875 .100997928 .23046875 .117996219 .23046875H.6589966Z"/>
</defs>
<path transform="matrix(1.00002,0,0,-1.00006,29.493332,106.69968)" stroke-width=".3985" stroke-linecap="butt" stroke-miterlimit="10" stroke-linejoin="miter" fill="none" stroke="#00aeef" d="M0-85.04128H226.77533M0-68.03302H226.77533M0-51.02477H226.77533M0-34.0165H226.77533M0-17.00824H226.77533M0 0H226.77533M0 17.00824H226.77533M0 34.0165H226.77533M0 51.02477H226.77533M0 68.03302H226.77533M0 85.0353H226.77533M0-85.04128V85.04128M22.67752-85.04128V85.04128M45.35506-85.04128V85.04128M68.0326-85.04128V85.04128M90.71013-85.04128V85.04128M113.38766-85.04128V85.04128M136.0652-85.04128V85.04128M158.74274-85.04128V85.04128M181.42028-85.04128V85.04128M204.09781-85.04128V85.04128M226.76735-85.04128V85.04128M226.77533 85.04128"/>
<path transform="matrix(1.00002,0,0,-1.00006,29.493332,106.69968)" stroke-width=".79701" stroke-linecap="butt" stroke-miterlimit="10" stroke-linejoin="miter" fill="none" stroke="#000000" d="M0 0H238.94736"/>
<path transform="matrix(1.00002,0,0,-1.00006,268.4455,106.69968)" d="M1.0361 0C-.25902 .25902-1.55415 .77707-3.1083 1.68365-1.55415 .51805-1.55415-.51805-3.1083-1.68365-1.55415-.77707-.25902-.25902 1.0361 0Z"/>
<path transform="matrix(1.00002,0,0,-1.00006,268.4455,106.69968)" stroke-width=".79701" stroke-linecap="butt" stroke-linejoin="round" fill="none" stroke="#000000" d="M1.0361 0C-.25902 .25902-1.55415 .77707-3.1083 1.68365-1.55415 .51805-1.55415-.51805-3.1083-1.68365-1.55415-.77707-.25902-.25902 1.0361 0Z"/>
<use data-text="x" xlink:href="#font_1_2" transform="matrix(9.962799,0,0,-9.963197,273.5992,108.8448)"/>
<path transform="matrix(1.00002,0,0,-1.00006,29.493332,106.69968)" stroke-width=".79701" stroke-linecap="butt" stroke-miterlimit="10" stroke-linejoin="miter" fill="none" stroke="#000000" d="M0-85.04128V93.81172"/>
<path transform="matrix(0,-1.00006,-1.00002,-0,29.493332,12.882332)" d="M1.0361 0C-.25902 .25902-1.55415 .77707-3.1083 1.68365-1.55415 .51805-1.55415-.51805-3.1083-1.68365-1.55415-.77707-.25902-.25902 1.0361 0Z"/>
<path transform="matrix(0,-1.00006,-1.00002,-0,29.493332,12.882332)" stroke-width=".79701" stroke-linecap="butt" stroke-linejoin="round" fill="none" stroke="#000000" d="M1.0361 0C-.25902 .25902-1.55415 .77707-3.1083 1.68365-1.55415 .51805-1.55415-.51805-3.1083-1.68365-1.55415-.77707-.25902-.25902 1.0361 0Z"/>
<use data-text="R" xlink:href="#font_1_1" transform="matrix(9.962799,0,0,-9.963197,25.672257,7.7287447)"/>
<path transform="matrix(1.00002,0,0,-1.00006,29.493332,106.69968)" stroke-width=".3985" stroke-linecap="butt" stroke-miterlimit="10" stroke-linejoin="miter" fill="none" stroke="#000000" d="M45.35506 2.55112V-2.55139"/>
<path transform="matrix(1.00002,0,0,-1.00006,29.493332,106.69968)" d="M34.39598-13.15617H56.31412V-4.74319H34.39598Z" fill="#ffffff"/>
<use data-text="1" xlink:href="#font_2_2" transform="matrix(9.962799,0,0,-9.963197,64.88604,118.860408)"/>
<use data-text="0" xlink:href="#font_2_1" transform="matrix(9.962799,0,0,-9.963197,69.86744,118.860408)"/>
<use data-text="0" xlink:href="#font_2_1" transform="matrix(9.962799,0,0,-9.963197,74.84884,118.860408)"/>
<use data-text="0" xlink:href="#font_2_1" transform="matrix(9.962799,0,0,-9.963197,79.83024,118.860408)"/>
<path transform="matrix(1.00002,0,0,-1.00006,29.493332,106.69968)" stroke-width=".3985" stroke-linecap="butt" stroke-miterlimit="10" stroke-linejoin="miter" fill="none" stroke="#000000" d="M90.71013 2.55112V-2.55139"/>
<path transform="matrix(1.00002,0,0,-1.00006,29.493332,106.69968)" d="M79.75105-13.15617H101.66919V-4.74319H79.75105Z" fill="#ffffff"/>
<use data-text="2" xlink:href="#font_2_3" transform="matrix(9.962799,0,0,-9.963197,110.24195,118.860408)"/>
<use data-text="0" xlink:href="#font_2_1" transform="matrix(9.962799,0,0,-9.963197,115.22335,118.860408)"/>
<use data-text="0" xlink:href="#font_2_1" transform="matrix(9.962799,0,0,-9.963197,120.20475,118.860408)"/>
<use data-text="0" xlink:href="#font_2_1" transform="matrix(9.962799,0,0,-9.963197,125.18615,118.860408)"/>
<path transform="matrix(1.00002,0,0,-1.00006,29.493332,106.69968)" stroke-width=".3985" stroke-linecap="butt" stroke-miterlimit="10" stroke-linejoin="miter" fill="none" stroke="#000000" d="M136.0652 2.55112V-2.55139"/>
<path transform="matrix(1.00002,0,0,-1.00006,29.493332,106.69968)" d="M125.10612-13.15617H147.02426V-4.74319H125.10612Z" fill="#ffffff"/>
<use data-text="3" xlink:href="#font_2_4" transform="matrix(9.962799,0,0,-9.963197,155.59786,118.860408)"/>
<use data-text="0" xlink:href="#font_2_1" transform="matrix(9.962799,0,0,-9.963197,160.57926,118.860408)"/>
<use data-text="0" xlink:href="#font_2_1" transform="matrix(9.962799,0,0,-9.963197,165.56066,118.860408)"/>
<use data-text="0" xlink:href="#font_2_1" transform="matrix(9.962799,0,0,-9.963197,170.54206,118.860408)"/>
<path transform="matrix(1.00002,0,0,-1.00006,29.493332,106.69968)" stroke-width=".3985" stroke-linecap="butt" stroke-miterlimit="10" stroke-linejoin="miter" fill="none" stroke="#000000" d="M181.42028 2.55112V-2.55139"/>
<path transform="matrix(1.00002,0,0,-1.00006,29.493332,106.69968)" d="M170.4612-13.15617H192.37934V-4.74319H170.4612Z" fill="#ffffff"/>
<use data-text="4" xlink:href="#font_2_5" transform="matrix(9.962799,0,0,-9.963197,200.95377,118.860408)"/>
<use data-text="0" xlink:href="#font_2_1" transform="matrix(9.962799,0,0,-9.963197,205.93517,118.860408)"/>
<use data-text="0" xlink:href="#font_2_1" transform="matrix(9.962799,0,0,-9.963197,210.91657,118.860408)"/>
<use data-text="0" xlink:href="#font_2_1" transform="matrix(9.962799,0,0,-9.963197,215.89797,118.860408)"/>
<path transform="matrix(1.00002,0,0,-1.00006,29.493332,106.69968)" stroke-width=".3985" stroke-linecap="butt" stroke-miterlimit="10" stroke-linejoin="miter" fill="none" stroke="#000000" d="M226.77533 2.55112V-2.55139"/>
<path transform="matrix(1.00002,0,0,-1.00006,29.493332,106.69968)" d="M215.81626-13.15617H237.73439V-4.74319H215.81626Z" fill="#ffffff"/>
<use data-text="5" xlink:href="#font_2_6" transform="matrix(9.962799,0,0,-9.963197,246.31069,118.860408)"/>
<use data-text="0" xlink:href="#font_2_1" transform="matrix(9.962799,0,0,-9.963197,251.29209,118.860408)"/>
<use data-text="0" xlink:href="#font_2_1" transform="matrix(9.962799,0,0,-9.963197,256.2735,118.860408)"/>
<use data-text="0" xlink:href="#font_2_1" transform="matrix(9.962799,0,0,-9.963197,261.25489,118.860408)"/>
<path transform="matrix(1.00002,0,0,-1.00006,29.493332,106.69968)" stroke-width=".3985" stroke-linecap="butt" stroke-miterlimit="10" stroke-linejoin="miter" fill="none" stroke="#000000" d="M3.40146-85.04128H-3.40182"/>
<path transform="matrix(1.00002,0,0,-1.00006,29.493332,106.69968)" d="M-30.27922-89.66289H-5.5936415V-80.419658H-30.27922Z" fill="#ffffff"/>
<use data-text="&#x2212;" xlink:href="#font_3_1" transform="matrix(9.962799,0,0,-9.963197,.20974732,194.54094)"/>
<use data-text="5" xlink:href="#font_2_6" transform="matrix(9.962799,0,0,-9.963197,7.9589006,194.54094)"/>
<use data-text="0" xlink:href="#font_2_1" transform="matrix(9.962799,0,0,-9.963197,12.940308,194.54094)"/>
<use data-text="0" xlink:href="#font_2_1" transform="matrix(9.962799,0,0,-9.963197,17.921692,194.54094)"/>
<path transform="matrix(1.00002,0,0,-1.00006,29.493332,106.69968)" stroke-width=".3985" stroke-linecap="butt" stroke-miterlimit="10" stroke-linejoin="miter" fill="none" stroke="#000000" d="M3.40146-68.03302H-3.40182"/>
<path transform="matrix(1.00002,0,0,-1.00006,29.493332,106.69968)" d="M-30.27922-72.65465H-5.5936415V-63.41142H-30.27922Z" fill="#ffffff"/>
<use data-text="&#x2212;" xlink:href="#font_3_1" transform="matrix(9.962799,0,0,-9.963197,.20974732,177.53192)"/>
<use data-text="4" xlink:href="#font_2_5" transform="matrix(9.962799,0,0,-9.963197,7.9589006,177.53192)"/>
<use data-text="0" xlink:href="#font_2_1" transform="matrix(9.962799,0,0,-9.963197,12.940308,177.53192)"/>
<use data-text="0" xlink:href="#font_2_1" transform="matrix(9.962799,0,0,-9.963197,17.921692,177.53192)"/>
<path transform="matrix(1.00002,0,0,-1.00006,29.493332,106.69968)" stroke-width=".3985" stroke-linecap="butt" stroke-miterlimit="10" stroke-linejoin="miter" fill="none" stroke="#000000" d="M3.40146-51.02477H-3.40182"/>
<path transform="matrix(1.00002,0,0,-1.00006,29.493332,106.69968)" d="M-30.27922-55.64638H-5.5936415V-46.403154H-30.27922Z" fill="#ffffff"/>
<use data-text="&#x2212;" xlink:href="#font_3_1" transform="matrix(9.962799,0,0,-9.963197,.20974732,160.5229)"/>
<use data-text="3" xlink:href="#font_2_4" transform="matrix(9.962799,0,0,-9.963197,7.9589006,160.5229)"/>
<use data-text="0" xlink:href="#font_2_1" transform="matrix(9.962799,0,0,-9.963197,12.940308,160.5229)"/>
<use data-text="0" xlink:href="#font_2_1" transform="matrix(9.962799,0,0,-9.963197,17.921692,160.5229)"/>
<path transform="matrix(1.00002,0,0,-1.00006,29.493332,106.69968)" stroke-width=".3985" stroke-linecap="butt" stroke-miterlimit="10" stroke-linejoin="miter" fill="none" stroke="#000000" d="M3.40146-34.0165H-3.40182"/>
<path transform="matrix(1.00002,0,0,-1.00006,29.493332,106.69968)" d="M-30.27922-38.63812H-5.5936415V-29.39489H-30.27922Z" fill="#ffffff"/>
<use data-text="&#x2212;" xlink:href="#font_3_1" transform="matrix(9.962799,0,0,-9.963197,.20974732,143.51389)"/>
<use data-text="2" xlink:href="#font_2_3" transform="matrix(9.962799,0,0,-9.963197,7.9589006,143.51389)"/>
<use data-text="0" xlink:href="#font_2_1" transform="matrix(9.962799,0,0,-9.963197,12.940308,143.51389)"/>
<use data-text="0" xlink:href="#font_2_1" transform="matrix(9.962799,0,0,-9.963197,17.921692,143.51389)"/>
<path transform="matrix(1.00002,0,0,-1.00006,29.493332,106.69968)" stroke-width=".3985" stroke-linecap="butt" stroke-miterlimit="10" stroke-linejoin="miter" fill="none" stroke="#000000" d="M3.40146-17.00824H-3.40182"/>
<path transform="matrix(1.00002,0,0,-1.00006,29.493332,106.69968)" d="M-30.27922-21.62985H-5.5936415V-12.3866209H-30.27922Z" fill="#ffffff"/>
<use data-text="&#x2212;" xlink:href="#font_3_1" transform="matrix(9.962799,0,0,-9.963197,.20974732,126.50386)"/>
<use data-text="1" xlink:href="#font_2_2" transform="matrix(9.962799,0,0,-9.963197,7.9589006,126.50386)"/>
<use data-text="0" xlink:href="#font_2_1" transform="matrix(9.962799,0,0,-9.963197,12.940308,126.50386)"/>
<use data-text="0" xlink:href="#font_2_1" transform="matrix(9.962799,0,0,-9.963197,17.921692,126.50386)"/>
<path transform="matrix(1.00002,0,0,-1.00006,29.493332,106.69968)" stroke-width=".3985" stroke-linecap="butt" stroke-miterlimit="10" stroke-linejoin="miter" fill="none" stroke="#000000" d="M3.40146 17.00824H-3.40182"/>
<path transform="matrix(1.00002,0,0,-1.00006,29.493332,106.69968)" d="M-22.53038 12.80174H-5.5936605V21.21472H-22.53038Z" fill="#ffffff"/>
<use data-text="1" xlink:href="#font_2_2" transform="matrix(9.962799,0,0,-9.963197,7.9589006,92.90085)"/>
<use data-text="0" xlink:href="#font_2_1" transform="matrix(9.962799,0,0,-9.963197,12.9403,92.90085)"/>
<use data-text="0" xlink:href="#font_2_1" transform="matrix(9.962799,0,0,-9.963197,17.9217,92.90085)"/>
<path transform="matrix(1.00002,0,0,-1.00006,29.493332,106.69968)" stroke-width=".3985" stroke-linecap="butt" stroke-miterlimit="10" stroke-linejoin="miter" fill="none" stroke="#000000" d="M3.40146 34.0165H-3.40182"/>
<path transform="matrix(1.00002,0,0,-1.00006,29.493332,106.69968)" d="M-22.53038 29.81001H-5.5936605V38.222993H-22.53038Z" fill="#ffffff"/>
<use data-text="2" xlink:href="#font_2_3" transform="matrix(9.962799,0,0,-9.963197,7.9589006,75.89183)"/>
<use data-text="0" xlink:href="#font_2_1" transform="matrix(9.962799,0,0,-9.963197,12.9403,75.89183)"/>
<use data-text="0" xlink:href="#font_2_1" transform="matrix(9.962799,0,0,-9.963197,17.9217,75.89183)"/>
<path transform="matrix(1.00002,0,0,-1.00006,29.493332,106.69968)" stroke-width=".3985" stroke-linecap="butt" stroke-miterlimit="10" stroke-linejoin="miter" fill="none" stroke="#000000" d="M3.40146 51.02477H-3.40182"/>
<path transform="matrix(1.00002,0,0,-1.00006,29.493332,106.69968)" d="M-22.53038 46.81827H-5.5936605V55.23125H-22.53038Z" fill="#ffffff"/>
<use data-text="3" xlink:href="#font_2_4" transform="matrix(9.962799,0,0,-9.963197,7.9589006,58.88181)"/>
<use data-text="0" xlink:href="#font_2_1" transform="matrix(9.962799,0,0,-9.963197,12.9403,58.88181)"/>
<use data-text="0" xlink:href="#font_2_1" transform="matrix(9.962799,0,0,-9.963197,17.9217,58.88181)"/>
<path transform="matrix(1.00002,0,0,-1.00006,29.493332,106.69968)" stroke-width=".3985" stroke-linecap="butt" stroke-miterlimit="10" stroke-linejoin="miter" fill="none" stroke="#000000" d="M3.40146 68.03302H-3.40182"/>
<path transform="matrix(1.00002,0,0,-1.00006,29.493332,106.69968)" d="M-22.53038 63.82654H-5.5936605V72.239528H-22.53038Z" fill="#ffffff"/>
<use data-text="4" xlink:href="#font_2_5" transform="matrix(9.962799,0,0,-9.963197,7.9589006,41.872797)"/>
<use data-text="0" xlink:href="#font_2_1" transform="matrix(9.962799,0,0,-9.963197,12.9403,41.872797)"/>
<use data-text="0" xlink:href="#font_2_1" transform="matrix(9.962799,0,0,-9.963197,17.9217,41.872797)"/>
<path transform="matrix(1.00002,0,0,-1.00006,29.493332,106.69968)" stroke-width=".3985" stroke-linecap="butt" stroke-miterlimit="10" stroke-linejoin="miter" fill="none" stroke="#000000" d="M3.40146 85.04128H-3.40182"/>
<path transform="matrix(1.00002,0,0,-1.00006,29.493332,106.69968)" d="M-22.53038 80.83478H-5.5936605V89.24776H-22.53038Z" fill="#ffffff"/>
<use data-text="5" xlink:href="#font_2_6" transform="matrix(9.962799,0,0,-9.963197,7.9589006,24.86377)"/>
<use data-text="0" xlink:href="#font_2_1" transform="matrix(9.962799,0,0,-9.963197,12.9403,24.86377)"/>
<use data-text="0" xlink:href="#font_2_1" transform="matrix(9.962799,0,0,-9.963197,17.9217,24.86377)"/>
<path transform="matrix(1.00002,0,0,-1.00006,29.493332,106.69968)" stroke-width="1.19553" stroke-linecap="butt" stroke-miterlimit="10" stroke-linejoin="miter" fill="none" stroke="#ff0000" d="M0 0C0 0 2.56009 3.79396 3.54335 5.21126 4.52661 6.62854 6.10345 8.85522 7.08672 10.2149 8.06998 11.57458 9.6468 13.70886 10.63008 15.01093 11.61334 16.313 13.19017 18.35489 14.17343 19.59933 15.15671 20.8438 16.73354 22.79329 17.7168 23.98012 18.70007 25.16698 20.27689 27.02408 21.26018 28.15329 22.24344 29.28252 23.82027 31.04724 24.80353 32.11885 25.7868 33.19046 27.36363 34.86278 28.3469 35.87679 29.33015 36.8908 30.90698 38.4707 31.89026 39.42708 32.87352 40.38347 34.45035 41.871 35.43361 42.76978 36.4169 43.66856 37.99373 45.06369 38.977 45.90485 39.96027 46.746 41.5371 48.04875 42.52037 48.83229 43.50363 49.61583 45.08046 50.82619 46.06372 51.55211 47.047 52.27803 48.62383 53.396 49.60709 54.06433 50.59035 54.73264 52.16718 55.7582 53.15045 56.3689 54.13373 56.97961 55.71054 57.91278 56.69382 58.46588 57.6771 59.01897 59.25392 59.85974 60.23718 60.35522 61.22044 60.8507 62.79727 61.59908 63.78055 62.03694 64.76381 62.47481 66.34064 63.1308 67.3239 63.51105 68.30717 63.8913 69.884 64.4549 70.86726 64.77753 71.85052 65.10016 73.42737 65.57137 74.41063 65.83638 75.3939 66.1014 76.97073 66.48022 77.95401 66.68764 78.93729 66.89503 80.51411 67.18147 81.49738 67.33125 82.48064 67.48105 84.05746 67.67508 85.04074 67.76726 86.024 67.85945 87.60083 67.96107 88.58409 67.99565 89.56737 68.0302 91.1442 68.03946 92.12746 68.0164 93.11073 67.99336 94.68755 67.9102 95.67084 67.82954 96.6541 67.74889 98.23093 67.57333 99.21419 67.43507 100.19746 67.2968 101.77429 67.02884 102.75755 66.83296 103.74081 66.63708 105.31766 66.27675 106.30092 66.02325 107.28418 65.76976 108.86101 65.31703 109.84427 65.00592 110.82756 64.69481 112.40439 64.14967 113.38766 63.78096 114.37093 63.41223 115.94775 62.7747 116.93103 62.34837 117.91429 61.92204 119.49112 61.19212 120.47438 60.70816 121.45766 60.22423 123.03448 59.40192 124.01775 58.86035 125.001 58.31879 126.57784 57.4041 127.56111 56.8049 128.54438 56.20573 130.1212 55.19864 131.10446 54.54185 132.08776 53.88504 133.66457 52.78557 134.64785 52.07117 135.6311 51.35677 137.20795 50.1649 138.19121 49.39287 139.17447 48.62085 140.7513 47.33656 141.73456 46.50693 142.71784 45.6773 144.29467 44.30064 145.27793 43.41339 146.26119 42.52614 147.83803 41.0571 148.82129 40.11224 149.80457 39.16737 151.3814 37.60591 152.36467 36.60344 153.34795 35.60097 154.92478 33.94713 155.90804 32.88704 156.8913 31.82695 158.46813 30.08072 159.4514 28.96301 160.43466 27.84532 162.01149 26.0067 162.99475 24.83138 163.97803 23.65605 165.55486 21.72504 166.53812 20.49211 167.5214 19.25919 169.09822 17.23576 170.0815 15.94522 171.06476 14.65468 172.64159 12.53888 173.62485 11.19072 174.60813 9.84256 176.18495 7.63437 177.16822 6.22859 178.15148 4.82281 179.72832 2.52225 180.71158 1.05884 181.69484-.40451 183.27167-2.79747 184.25495-4.31848 185.2382-5.83948 186.81504-8.32486 187.7983-9.90347 188.78157-11.48209 190.3584-14.05984 191.34169-15.69608 192.32495-17.3323 193.90178-20.00247 194.88504-21.6963 195.86832-23.39015 197.44515-26.15268 198.4284-27.90414 199.41167-29.65561 200.98851-32.51054 201.97177-34.31961 202.95503-36.1287 204.53186-39.07602 205.51512-40.9427 206.49842-42.8094 208.07523-45.84914 209.0585-47.77342 210.04177-49.69772 211.6186-52.82983 212.60187-54.81175 213.58513-56.79367 215.16196-60.01817 216.14524-62.05771 217.1285-64.09723 218.70532-67.41414 219.68859-69.51126 220.67185-71.60841 222.24869-75.0177 223.23195-77.17245 224.21523-79.32721 226.77533-85.04128 226.77533-85.04128"/>
</svg>
