<svg xmlns="http://www.w3.org/2000/svg" xmlns:xlink="http://www.w3.org/1999/xlink" version="1.1" width="152" height="135" viewBox="0 0 152 135">
<defs>
<path id="font_1_1" d="M.33399964 .30233766C.33999635 .32835389 .36299134 .42037965 .43299867 .42037965 .43798829 .42037965 .46199037 .42037965 .48298646 .40734864 .45498658 .402359 .43499757 .37734986 .43499757 .35334779 .43499757 .33735658 .44599916 .31835938 .47299195 .31835938 .49499513 .31835938 .5269928 .3363495 .5269928 .37635804 .5269928 .42837525 .46798707 .4423828 .43399049 .4423828 .37599183 .4423828 .34098817 .38935853 .32899476 .36634828 .3039856 .43237306 .25 .4423828 .22099304 .4423828 .116989139 .4423828 .05999756 .3133545 .05999756 .28834535 .05999756 .27833558 .069992069 .27833558 .07199097 .27833558 .07998657 .27833558 .08299255 .28033448 .084991458 .28933717 .11898804 .39535523 .18499756 .42037965 .21899414 .42037965 .23799134 .42037965 .272995 .4113617 .272995 .35334779 .272995 .32235719 .2559967 .25532533 .21899414 .11528015 .20298767 .053268434 .16799927 .011245728 .12399292 .011245728 .117996219 .011245728 .09498596 .011245728 .07398987 .024276734 .09899902 .029266358 .12098694 .05027771 .12098694 .07827759 .12098694 .105270389 .09899902 .11328125 .083999637 .11328125 .053985597 .11328125 .0289917 .08728027 .0289917 .055267335 .0289917 .009246826 .07899475-.0107421879 .12298584-.0107421879 .18899536-.0107421879 .22499085 .059280397 .22799683 .0652771 .23999024 .028274537 .27598573-.0107421879 .33599855-.0107421879 .43899537-.0107421879 .49598695 .118270877 .49598695 .14328003 .49598695 .1532898 .4869995 .1532898 .48399354 .1532898 .47499085 .1532898 .47299195 .14929199 .47099305 .14228821 .43798829 .03527832 .36999513 .011245728 .33799745 .011245728 .29899598 .011245728 .2829895 .043273927 .2829895 .07727051 .2829895 .09927368 .2889862 .121276859 .2999878 .16529846L.33399964 .30233766Z"/>
<path id="font_1_2" d="M.48599244 .38136292C.48999024 .39537049 .48999024 .39736939 .48999024 .40437318 .48999024 .42237855 .47599793 .43138124 .46099855 .43138124 .45098878 .43138124 .43499757 .42536927 .42599488 .41036988 .42399598 .405365 .41600038 .37435914 .4119873 .35635377 .40499879 .33035279 .397995 .30334474 .3919983 .27633668L.34700013 .09628296C.34298707 .08126831 .2999878 .011245728 .23399353 .011245728 .18299866 .011245728 .17199707 .055267335 .17199707 .0922699 .17199707 .1382904 .18899536 .20030213 .22299195 .28833009 .23899842 .3293457 .24299622 .3403473 .24299622 .36035157 .24299622 .405365 .21099854 .4423828 .16099549 .4423828 .06599426 .4423828 .0289917 .29733277 .0289917 .28833009 .0289917 .27833558 .038986207 .27833558 .040985109 .27833558 .050994874 .27833558 .051986696 .28033448 .056991579 .29634095 .083999637 .3903656 .12399292 .42037965 .1579895 .42037965 .1659851 .42037965 .18299866 .42037965 .18299866 .3883667 .18299866 .36335755 .17298889 .3373413 .1659851 .31834413 .12599182 .21231079 .10798645 .1552887 .10798645 .10827637 .10798645 .019256592 .17098999-.0107421879 .22999573-.0107421879 .2689972-.0107421879 .30299378 .0062561037 .33099366 .03425598 .31799317-.017745972 .30599977-.06674194 .2659912-.11973572 .23999024-.15385437 .20199585-.18309021 .1559906-.18309021 .14199829-.18309021 .09700012-.18005371 .07998657-.14074707 .09599304-.14074707 .10899353-.14074707 .12298584-.1287384 .1329956-.11973572 .14299011-.10673523 .14299011-.08773804 .14299011-.056747438 .115997318-.052734376 .10598755-.052734376 .08299255-.052734376 .049987794-.068740848 .049987794-.11773682 .049987794-.16796875 .09399414-.20507813 .1559906-.20507813 .25898744-.20507813 .3619995-.11373901 .3899994-.00074768069L.48599244 .38136292Z"/>
<path id="font_2_1" d="M.2939911 .16503906V.07800293C.2939911 .041992189 .2919922 .0309906 .21798706 .0309906H.19699097V0C.23799134 .0029907227 .2899933 .0029907227 .33198548 .0029907227 .37399293 .0029907227 .4269867 .0029907227 .46798707 0V.0309906H.44699098C.37298585 .0309906 .37098695 .041992189 .37098695 .07800293V.16503906H.47099305V.19602967H.37098695V.65075686C.37098695 .67074587 .37098695 .6767578 .35499574 .6767578 .34599305 .6767578 .34298707 .6767578 .33499146 .66474917L.027999878 .19602967V.16503906H.2939911M.2999878 .19602967H.055999757L.2999878 .5688019V.19602967Z"/>
<path id="font_3_65" d="M.40299989 0V.04699707H.2889862V.63853457H.40299989V.6855469C.3619995 .6825409 .2639923 .6825409 .21798706 .6825409 .17199707 .6825409 .07398987 .6825409 .032989503 .6855469V.63853457H.14698792V.04699707H.032989503V0C.07398987 .0029907227 .17199707 .0029907227 .21798706 .0029907227 .2639923 .0029907227 .3619995 .0029907227 .40299989 0Z"/>
</defs>
<path transform="matrix(1.00002,0,0,-1.00002,52.83676,121.00217)" stroke-width=".3985" stroke-linecap="butt" stroke-miterlimit="10" stroke-linejoin="miter" fill="none" stroke="#00aeef" d="M-51.02477 0H85.04128M-51.02477 19.84267H85.04128M-51.02477 39.68535H85.04128M-51.02477 59.52802H85.04128M-51.02477 79.37071H85.04128M-51.02477 99.20642H85.04128M-51.02477 0V99.2134M-34.0165 0V99.2134M-17.00824 0V99.2134M0 0V99.2134M17.00824 0V99.2134M34.0165 0V99.2134M51.02477 0V99.2134M68.03302 0V99.2134M85.0353 0V99.2134M85.04128 99.2134"/>
<path transform="matrix(1.00002,0,0,-1.00002,52.83676,121.00217)" stroke-width=".79701" stroke-linecap="butt" stroke-miterlimit="10" stroke-linejoin="miter" fill="none" stroke="#000000" d="M-51.02477 0H93.81172"/>
<path transform="matrix(1.00002,0,0,-1.00002,146.65036,121.00217)" d="M1.0361 0C-.25902 .25902-1.55415 .77707-3.1083 1.68365-1.55415 .51805-1.55415-.51805-3.1083-1.68365-1.55415-.77707-.25902-.25902 1.0361 0Z"/>
<path transform="matrix(1.00002,0,0,-1.00002,146.65036,121.00217)" stroke-width=".79701" stroke-linecap="butt" stroke-linejoin="round" fill="none" stroke="#000000" d="M1.0361 0C-.25902 .25902-1.55415 .77707-3.1083 1.68365-1.55415 .51805-1.55415-.51805-3.1083-1.68365-1.55415-.77707-.25902-.25902 1.0361 0Z"/>
<use data-text="x" xlink:href="#font_1_1" transform="matrix(9.962799,0,0,-9.962799,145.23761,117.2831)"/>
<path transform="matrix(1.00002,0,0,-1.00002,52.83676,121.00217)" stroke-width=".79701" stroke-linecap="butt" stroke-miterlimit="10" stroke-linejoin="miter" fill="none" stroke="#000000" d="M0 0V107.7001"/>
<path transform="matrix(0,-1.00002,-1.00002,-0,52.83676,13.299904)" d="M1.0361 0C-.25902 .25902-1.55415 .77707-3.1083 1.68365-1.55415 .51805-1.55415-.51805-3.1083-1.68365-1.55415-.77707-.25902-.25902 1.0361 0Z"/>
<path transform="matrix(0,-1.00002,-1.00002,-0,52.83676,13.299904)" stroke-width=".79701" stroke-linecap="butt" stroke-linejoin="round" fill="none" stroke="#000000" d="M1.0361 0C-.25902 .25902-1.55415 .77707-3.1083 1.68365-1.55415 .51805-1.55415-.51805-3.1083-1.68365-1.55415-.77707-.25902-.25902 1.0361 0Z"/>
<use data-text="y" xlink:href="#font_1_2" transform="matrix(9.962799,0,0,-9.962799,50.215707,6.20887)"/>
<path transform="matrix(1.00002,0,0,-1.00002,52.83676,121.00217)" stroke-width=".79701" stroke-linecap="butt" stroke-miterlimit="10" stroke-linejoin="miter" fill="none" stroke="#000000" d="M68.03302 2.97627V-2.97658"/>
<path transform="matrix(1.00002,0,0,-1.00002,52.83676,121.00217)" d="M64.54605-13.78061H71.51999V-5.36763H64.54605Z" fill="#ffffff"/>
<use data-text="4" xlink:href="#font_2_1" transform="matrix(9.962799,0,0,-9.962799,118.38007,133.78643)"/>
<path transform="matrix(1.00002,0,0,-1.00002,52.83676,121.00217)" stroke-width=".79701" stroke-linecap="butt" stroke-miterlimit="10" stroke-linejoin="miter" fill="none" stroke="#000000" d="M2.55112 79.37071H-2.55139"/>
<path transform="matrix(1.00002,0,0,-1.00002,52.83676,121.00217)" d="M-11.91638 75.16422H-4.94244V83.5772H-11.91638Z" fill="#ffffff"/>
<use data-text="4" xlink:href="#font_2_1" transform="matrix(9.962799,0,0,-9.962799,41.916543,44.840639)"/>
<path transform="matrix(1.00002,0,0,-1.00002,52.83676,121.00217)" stroke-width="1.19553" stroke-linecap="butt" stroke-miterlimit="10" stroke-linejoin="miter" fill="none" stroke="#ff0000" d="M-39.03705 97.43088C-38.09138 93.70049-38.09138 93.70049-37.5515 91.68094-37.01158 89.66138-36.14574 86.55641-35.60583 84.69078-35.06592 82.82513-34.20007 79.95805-33.66017 78.2347-33.12027 76.51134-32.25441 73.86201-31.71451 72.27002-31.17459 70.67804-30.30876 68.23138-29.76884 66.76073-29.22893 65.29005-28.36308 63.02916-27.82318 61.67046-27.28328 60.31174-26.41743 58.22308-25.87752 56.96805-25.33762 55.71304-24.47177 53.78433-23.93185 52.62505-23.39197 51.46576-22.52611 49.68344-21.9862 48.61267-21.44629 47.5419-20.58043 45.89676-20.04053 44.90761-19.50063 43.91844-18.63478 42.39731-18.09488 41.48352-17.55496 40.56973-16.68912 39.16577-16.1492 38.32164-15.60931 37.47751-14.74347 36.17946-14.20355 35.39957-13.66364 34.61966-12.79779 33.42099-12.25787 32.70062-11.71799 31.98024-10.85213 30.8729-10.31223 30.20757-9.77231 29.54222-8.90646 28.51991-8.36655 27.90526-7.82666 27.29063-6.96082 26.34558-6.4209 25.77765-5.881 25.20973-5.01514 24.33661-4.47523 23.81204-3.93533 23.28748-3.06949 22.4814-2.52957 21.9969-1.98965 21.51242-1.12381 20.76706-.58391 20.32013-.044 19.87318 .8218 19.18854 1.36171 18.77568 1.90163 18.36281 2.76747 17.7267 3.30736 17.34447 3.84727 16.96222 4.71312 16.37373 5.25304 16.02074 5.79294 15.66772 6.6588 15.12628 7.1987 14.80025 7.7386 14.47423 8.60445 13.97218 9.14436 13.67088 9.68427 13.3696 10.55013 12.90686 11.09001 12.62874 11.62993 12.35059 12.49577 11.92313 13.03568 11.66621 13.57559 11.40929 14.44145 11.01434 14.98134 10.77696 15.52126 10.53957 16.3871 10.17444 16.92702 9.95523 17.46692 9.73604 18.33276 9.39973 18.87267 9.19708 19.41257 8.99443 20.27843 8.68188 20.81833 8.49464 21.35825 8.30742 22.22409 8.02055 22.76399 7.84761 23.3039 7.67467 24.16975 7.40784 24.70966 7.24811 25.24957 7.0884 26.11542 6.84378 26.65532 6.69646 27.19522 6.54915 28.06107 6.3226 28.60098 6.18628 29.1409 6.04997 30.00673 5.84007 30.54663 5.71396 31.08655 5.58784 31.95241 5.39355 32.49231 5.27736 33.03223 5.16115 33.89806 4.98389 34.43797 4.87646 34.97787 4.76906 35.84372 4.60258 36.38364 4.50316 36.92352 4.40372 37.78938 4.25151 38.32928 4.15982 38.8692 4.06812 39.73505 3.92671 40.27495 3.8422 40.81485 3.75769 41.68071 3.6288 42.22061 3.55063 42.76053 3.47246 43.62637 3.35117 44.16629 3.27872 44.70618 3.2063 45.57202 3.0953 46.11194 3.02864 46.65186 2.96198 47.5177 2.85994 48.0576 2.79823 48.5975 2.73651 49.46336 2.64087 50.00327 2.58386 50.54318 2.52686 51.40903 2.43996 51.94893 2.38736 52.48883 2.33478 53.35468 2.25322 53.89459 2.20479 54.4345 2.15636 55.30035 2.08311 55.84026 2.03825 56.38016 1.9934 57.246 1.92302 57.7859 1.88142 58.32582 1.83984 59.19168 1.77678 59.73158 1.73853 60.27148 1.70024 61.13733 1.64113 61.67725 1.60559 62.21715 1.57007 63.083 1.51512 63.6229 1.48236 64.1628 1.4496 65.02866 1.39941 65.56856 1.36943 66.10847 1.33943 66.97432 1.29404 67.5142 1.26617 68.05412 1.23834 68.91998 1.19456 69.45988 1.16869 69.9998 1.14282 70.86565 1.10332 71.40555 1.07968 71.94545 1.05603 72.8113 1.02028 73.35121 .99823 73.89113 .97617 74.75697 .94109 75.29686 .92072 75.83678 .90034 76.70264 .87012 77.24254 .8514 77.78246 .83267 78.6483 .80302 79.18819 .78568 79.7281 .76833 80.59395 .74231 81.13387 .72635 81.67377 .71039 82.53963 .6855 83.07951 .67062 83.61943 .65576 85.02518 .61916 83.15292 .66782"/>
<path transform="matrix(-.24567493,-.9693294,-.9693294,.24567493,13.79895,23.569336)" d="M1.27522 0C-.31879 .31879-1.91284 .9564-3.8257 2.07224-1.91284 .6376-1.91284-.6376-3.8257-2.07224-1.91284-.9564-.31879-.31879 1.27522 0Z" fill="#ff0000"/>
<path transform="matrix(-.24567493,-.9693294,-.9693294,.24567493,13.79895,23.569336)" stroke-width="1.19553" stroke-linecap="butt" stroke-linejoin="round" fill="none" stroke="#ff0000" d="M1.27522 0C-.31879 .31879-1.91284 .9564-3.8257 2.07224-1.91284 .6376-1.91284-.6376-3.8257-2.07224-1.91284-.9564-.31879-.31879 1.27522 0Z"/>
<path transform="matrix(.99962,.02599052,.02599052,-.99962,135.99135,120.334339)" d="M1.27522 0C-.31879 .31879-1.91284 .9564-3.8257 2.07224-1.91284 .6376-1.91284-.6376-3.8257-2.07224-1.91284-.9564-.31879-.31879 1.27522 0Z" fill="#ff0000"/>
<path transform="matrix(.99962,.02599052,.02599052,-.99962,135.99135,120.334339)" stroke-width="1.19553" stroke-linecap="butt" stroke-linejoin="round" fill="none" stroke="#ff0000" d="M1.27522 0C-.31879 .31879-1.91284 .9564-3.8257 2.07224-1.91284 .6376-1.91284-.6376-3.8257-2.07224-1.91284-.9564-.31879-.31879 1.27522 0Z"/>
<use data-text="I" xlink:href="#font_3_65" transform="matrix(9.962799,0,0,-9.962799,25.152207,39.09453)" fill="#ff0000"/>
<path transform="matrix(1.00002,0,0,-1.00002,52.83676,121.00217)" stroke-width="1.19553" stroke-linecap="butt" stroke-miterlimit="10" stroke-linejoin="miter" fill="none" stroke="#0000ff" d="M-49.35315 37.91599C-49.4887 37.98448-49.4887 37.98448-48.89873 37.69247-48.30876 37.40048-47.36266 36.93993-46.77269 36.65608-46.18274 36.37222-45.23663 35.92265-44.64667 35.6466-44.05669 35.37059-43.1106 34.9349-42.52063 34.66653-41.93066 34.3982-40.98456 33.97353-40.39459 33.7125-39.80463 33.45145-38.85854 33.03896-38.26855 32.78508-37.6786 32.53122-36.73248 32.1295-36.14253 31.88281-35.55255 31.63614-34.60646 31.24724-34.0165 31.00719-33.42654 30.76715-32.48044 30.38641-31.89047 30.15277-31.3005 29.91911-30.3544 29.55022-29.76443 29.32317-29.17447 29.09612-28.22836 28.73701-27.63841 28.51627-27.04843 28.29552-26.10234 27.94675-25.51236 27.73209-24.92241 27.51741-23.97629 27.1779-23.38634 26.96907-22.79637 26.76027-21.85027 26.43008-21.26031 26.22697-20.67033 26.02386-19.72423 25.70253-19.13426 25.50517-18.54431 25.3078-17.5982 24.99657-17.00824 24.80455-16.41827 24.61252-15.47217 24.30798-14.88222 24.12117-14.29224 23.93437-13.34615 23.63976-12.75616 23.4581-12.16621 23.27646-11.22011 22.98866-10.63014 22.81198-10.04019 22.6353-9.09407 22.35631-8.50412 22.18462-7.91414 22.01292-6.96805 21.74161-6.37807 21.57454-5.78812 21.40747-4.84201 21.14293-4.25204 20.98048-3.66208 20.81804-2.71597 20.56157-2.126 20.40369-1.53604 20.24583-.58994 19.99556 0 19.84267 .58994 19.68976 1.53604 19.45047 2.126 19.30159 2.71597 19.15273 3.66208 18.91502 4.25204 18.76964 4.84201 18.62422 5.78812 18.39497 6.37807 18.25371 6.96805 18.11243 7.91414 17.8888 8.50412 17.75139 9.09407 17.61398 10.04019 17.39716 10.63014 17.26334 11.22011 17.12949 12.16621 16.91676 12.75616 16.78674 13.34615 16.65674 14.29224 16.45284 14.88222 16.32622 15.47217 16.19962 16.41827 15.99727 17.00824 15.87419 17.5982 15.7511 18.54431 15.55835 19.13426 15.43909 19.72423 15.31984 20.67033 15.1308 21.26031 15.0146 21.85027 14.89842 22.79637 14.71454 23.38634 14.60162 23.97629 14.48871 24.92241 14.31064 25.51236 14.20074 26.10234 14.09085 27.04843 13.91667 27.63841 13.80956 28.22836 13.70245 29.17447 13.53271 29.76443 13.42868 30.3544 13.32462 31.3005 13.16078 31.89047 13.05959 32.48044 12.95839 33.42654 12.79762 34.0165 12.69928 34.60646 12.60094 35.55255 12.44618 36.14253 12.3508 36.73248 12.25539 37.6786 12.10474 38.26855 12.01169 38.85854 11.91862 39.80463 11.77075 40.39459 11.68015 40.98456 11.58952 41.93066 11.44643 42.52063 11.3586 43.1106 11.27075 44.05669 11.13239 44.64667 11.04704 45.23663 10.96169 46.18274 10.82652 46.77269 10.74335 47.36266 10.66019 48.30876 10.52858 48.89873 10.44756 49.4887 10.36652 50.43478 10.23807 51.02477 10.1593 51.61472 10.08054 52.56082 9.95633 53.15079 9.87984 53.74075 9.80336 54.68686 9.6823 55.27682 9.60794 55.86678 9.5336 56.81288 9.41634 57.40286 9.34393 57.99281 9.27151 58.93893 9.15645 59.52888 9.08595 60.11885 9.01549 61.06496 8.90417 61.6549 8.83586 62.24489 8.76756 63.19098 8.66003 63.78096 8.59366 64.37091 8.52728 65.31703 8.42218 65.90698 8.3575 66.49696 8.2928 67.44305 8.19043 68.03302 8.12737 68.62299 8.06432 69.56908 7.96413 70.15904 7.90302 70.74901 7.8419 71.69511 7.74632 72.28508 7.68684 72.87505 7.62735 73.82115 7.53238 74.4111 7.47429 75.00108 7.4162 75.94717 7.32428 76.53716 7.2681 77.1271 7.21193 78.07321 7.12401 78.66318 7.06949 79.25314 7.01495 80.19925 6.92853 80.78922 6.8751 81.37918 6.82167 82.32529 6.73615 82.91525 6.68434 83.5052 6.63255 85.04128 6.50177 83.17513 6.66055"/>
<path transform="matrix(-.8925079,-.45097903,-.45097903,.8925079,3.4826432,83.08542)" d="M1.27522 0C-.31879 .31879-1.91284 .9564-3.8257 2.07224-1.91284 .6376-1.91284-.6376-3.8257-2.07224-1.91284-.9564-.31879-.31879 1.27522 0Z" fill="#0000ff"/>
<path transform="matrix(-.8925079,-.45097903,-.45097903,.8925079,3.4826432,83.08542)" stroke-width="1.19553" stroke-linecap="butt" stroke-linejoin="round" fill="none" stroke="#0000ff" d="M1.27522 0C-.31879 .31879-1.91284 .9564-3.8257 2.07224-1.91284 .6376-1.91284-.6376-3.8257-2.07224-1.91284-.9564-.31879-.31879 1.27522 0Z"/>
<path transform="matrix(.99636998,.0847817,.0847817,-.99636998,136.01354,114.341487)" d="M1.27522 0C-.31879 .31879-1.91284 .9564-3.8257 2.07224-1.91284 .6376-1.91284-.6376-3.8257-2.07224-1.91284-.9564-.31879-.31879 1.27522 0Z" fill="#0000ff"/>
<path transform="matrix(.99636998,.0847817,.0847817,-.99636998,136.01354,114.341487)" stroke-width="1.19553" stroke-linecap="butt" stroke-linejoin="round" fill="none" stroke="#0000ff" d="M1.27522 0C-.31879 .31879-1.91284 .9564-3.8257 2.07224-1.91284 .6376-1.91284-.6376-3.8257-2.07224-1.91284-.9564-.31879-.31879 1.27522 0Z"/>
<use data-text="I" xlink:href="#font_3_65" transform="matrix(9.962799,0,0,-9.962799,5.8118135,78.78032)" fill="#0000ff"/>
<use data-text="I" xlink:href="#font_3_65" transform="matrix(9.962799,0,0,-9.962799,10.474396,78.78032)" fill="#0000ff"/>
</svg>
