<svg xmlns="http://www.w3.org/2000/svg" xmlns:xlink="http://www.w3.org/1999/xlink" version="1.1" width="191" height="192" viewBox="0 0 191 192">
<defs>
<path id="font_1_1" d="M.33399964 .30233766C.33999635 .32835389 .36299134 .42037965 .43299867 .42037965 .43798829 .42037965 .46199037 .42037965 .48298646 .40734864 .45498658 .402359 .43499757 .37734986 .43499757 .35334779 .43499757 .33735658 .44599916 .31835938 .47299195 .31835938 .49499513 .31835938 .5269928 .3363495 .5269928 .37635804 .5269928 .42837525 .46798707 .4423828 .43399049 .4423828 .37599183 .4423828 .34098817 .38935853 .32899476 .36634828 .3039856 .43237306 .25 .4423828 .22099304 .4423828 .116989139 .4423828 .05999756 .3133545 .05999756 .28834535 .05999756 .27833558 .069992069 .27833558 .07199097 .27833558 .07998657 .27833558 .08299255 .28033448 .084991458 .28933717 .11898804 .39535523 .18499756 .42037965 .21899414 .42037965 .23799134 .42037965 .272995 .4113617 .272995 .35334779 .272995 .32235719 .2559967 .25532533 .21899414 .11528015 .20298767 .053268434 .16799927 .011245728 .12399292 .011245728 .117996219 .011245728 .09498596 .011245728 .07398987 .024276734 .09899902 .029266358 .12098694 .05027771 .12098694 .07827759 .12098694 .105270389 .09899902 .11328125 .083999637 .11328125 .053985597 .11328125 .0289917 .08728027 .0289917 .055267335 .0289917 .009246826 .07899475-.0107421879 .12298584-.0107421879 .18899536-.0107421879 .22499085 .059280397 .22799683 .0652771 .23999024 .028274537 .27598573-.0107421879 .33599855-.0107421879 .43899537-.0107421879 .49598695 .118270877 .49598695 .14328003 .49598695 .1532898 .4869995 .1532898 .48399354 .1532898 .47499085 .1532898 .47299195 .14929199 .47099305 .14228821 .43798829 .03527832 .36999513 .011245728 .33799745 .011245728 .29899598 .011245728 .2829895 .043273927 .2829895 .07727051 .2829895 .09927368 .2889862 .121276859 .2999878 .16529846L.33399964 .30233766Z"/>
<path id="font_1_2" d="M.48599244 .38136292C.48999024 .39537049 .48999024 .39736939 .48999024 .40437318 .48999024 .42237855 .47599793 .43138124 .46099855 .43138124 .45098878 .43138124 .43499757 .42536927 .42599488 .41036988 .42399598 .405365 .41600038 .37435914 .4119873 .35635377 .40499879 .33035279 .397995 .30334474 .3919983 .27633668L.34700013 .09628296C.34298707 .08126831 .2999878 .011245728 .23399353 .011245728 .18299866 .011245728 .17199707 .055267335 .17199707 .0922699 .17199707 .1382904 .18899536 .20030213 .22299195 .28833009 .23899842 .3293457 .24299622 .3403473 .24299622 .36035157 .24299622 .405365 .21099854 .4423828 .16099549 .4423828 .06599426 .4423828 .0289917 .29733277 .0289917 .28833009 .0289917 .27833558 .038986207 .27833558 .040985109 .27833558 .050994874 .27833558 .051986696 .28033448 .056991579 .29634095 .083999637 .3903656 .12399292 .42037965 .1579895 .42037965 .1659851 .42037965 .18299866 .42037965 .18299866 .3883667 .18299866 .36335755 .17298889 .3373413 .1659851 .31834413 .12599182 .21231079 .10798645 .1552887 .10798645 .10827637 .10798645 .019256592 .17098999-.0107421879 .22999573-.0107421879 .2689972-.0107421879 .30299378 .0062561037 .33099366 .03425598 .31799317-.017745972 .30599977-.06674194 .2659912-.11973572 .23999024-.15385437 .20199585-.18309021 .1559906-.18309021 .14199829-.18309021 .09700012-.18005371 .07998657-.14074707 .09599304-.14074707 .10899353-.14074707 .12298584-.1287384 .1329956-.11973572 .14299011-.10673523 .14299011-.08773804 .14299011-.056747438 .115997318-.052734376 .10598755-.052734376 .08299255-.052734376 .049987794-.068740848 .049987794-.11773682 .049987794-.16796875 .09399414-.20507813 .1559906-.20507813 .25898744-.20507813 .3619995-.11373901 .3899994-.00074768069L.48599244 .38136292Z"/>
</defs>
<path transform="matrix(1.00006,0,0,-1.00008,86.8563,105.4174)" stroke-width=".3985" stroke-linecap="butt" stroke-miterlimit="10" stroke-linejoin="miter" fill="none" stroke="#cbcbcb" d="M-85.04042-85.04042H85.04042M-85.04042-70.867H85.04042M-85.04042-56.69362H85.04042M-85.04042-42.5202H85.04042M-85.04042-28.3468H85.04042M-85.04042-14.17339H85.04042M-85.04042 0H85.04042M-85.04042 14.17339H85.04042M-85.04042 28.3468H85.04042M-85.04042 42.5202H85.04042M-85.04042 56.69362H85.04042M-85.04042 70.867H85.04042M-85.04042 85.03543H85.04042M-85.04042-85.04042V85.04042M-70.867-85.04042V85.04042M-56.69362-85.04042V85.04042M-42.5202-85.04042V85.04042M-28.3468-85.04042V85.04042M-14.17339-85.04042V85.04042M0-85.04042V85.04042M14.17339-85.04042V85.04042M28.3468-85.04042V85.04042M42.5202-85.04042V85.04042M56.69362-85.04042V85.04042M70.867-85.04042V85.04042M85.03543-85.04042V85.04042M85.04042 85.04042"/>
<path transform="matrix(1.00006,0,0,-1.00008,86.8563,105.4174)" stroke-width=".79701" stroke-linecap="butt" stroke-miterlimit="10" stroke-linejoin="miter" fill="none" stroke="#000000" d="M-85.04042 0H92.10994"/>
<path transform="matrix(1.00006,0,0,-1.00008,178.97177,105.4174)" d="M1.0361 0C-.25902 .25902-1.55415 .77707-3.1083 1.68365-1.55415 .51805-1.55415-.51805-3.1083-1.68365-1.55415-.77707-.25902-.25902 1.0361 0Z"/>
<path transform="matrix(1.00006,0,0,-1.00008,178.97177,105.4174)" stroke-width=".79701" stroke-linecap="butt" stroke-linejoin="round" fill="none" stroke="#000000" d="M1.0361 0C-.25902 .25902-1.55415 .77707-3.1083 1.68365-1.55415 .51805-1.55415-.51805-3.1083-1.68365-1.55415-.77707-.25902-.25902 1.0361 0Z"/>
<use data-text="x" xlink:href="#font_1_1" transform="matrix(9.963197,0,0,-9.963397,184.12613,107.56257)"/>
<path transform="matrix(1.00006,0,0,-1.00008,86.8563,105.4174)" stroke-width=".79701" stroke-linecap="butt" stroke-miterlimit="10" stroke-linejoin="miter" fill="none" stroke="#000000" d="M0-85.04042V92.10994"/>
<path transform="matrix(0,-1.00008,-1.00006,-0,86.8563,13.300087)" d="M1.0361 0C-.25902 .25902-1.55415 .77707-3.1083 1.68365-1.55415 .51805-1.55415-.51805-3.1083-1.68365-1.55415-.77707-.25902-.25902 1.0361 0Z"/>
<path transform="matrix(0,-1.00008,-1.00006,-0,86.8563,13.300087)" stroke-width=".79701" stroke-linecap="butt" stroke-linejoin="round" fill="none" stroke="#000000" d="M1.0361 0C-.25902 .25902-1.55415 .77707-3.1083 1.68365-1.55415 .51805-1.55415-.51805-3.1083-1.68365-1.55415-.77707-.25902-.25902 1.0361 0Z"/>
<use data-text="y" xlink:href="#font_1_2" transform="matrix(9.963197,0,0,-9.963397,84.235149,6.2084658)"/>
<path transform="matrix(1.00006,0,0,-1.00008,86.8563,105.4174)" stroke-width="1.19553" stroke-linecap="butt" stroke-miterlimit="10" stroke-linejoin="miter" fill="none" stroke="#ff0000" d="M-85.04042 2.36208C-85.04042 2.36208-84.1071 2.38837-83.74863 2.39862-83.39017 2.40889-82.81532 2.42542-82.45686 2.43604-82.09842 2.44666-81.52354 2.46423-81.16508 2.47517-80.80664 2.48613-80.23178 2.50375-79.87332 2.51498-79.51485 2.5262-78.94 2.54442-78.58154 2.55606-78.22308 2.5677-77.64822 2.58678-77.28976 2.59889-76.9313 2.61101-76.35645 2.63086-75.998 2.64343-75.63953 2.656-75.06468 2.67664-74.70622 2.68951-74.34776 2.70238-73.7729 2.72298-73.41443 2.73622-73.05597 2.74948-72.48112 2.77124-72.12267 2.7851-71.76422 2.79895-71.18935 2.82173-70.83089 2.83614-70.47244 2.85052-69.89758 2.87405-69.53912 2.8889-69.18065 2.90375-68.6058 2.92773-68.24734 2.94319-67.88889 2.95865-67.31401 2.98418-66.95557 3.00029-66.5971 3.01639-66.02225 3.04265-65.6638 3.05933-65.30533 3.076-64.73048 3.10315-64.37202 3.12053-64.01357 3.1379-63.4387 3.16646-63.08023 3.18456-62.72177 3.20264-62.14693 3.2321-61.78847 3.25093-61.43002 3.26979-60.85515 3.3007-60.49669 3.32036-60.13824 3.34-59.56339 3.37206-59.20493 3.39261-58.84647 3.41316-58.2716 3.44696-57.91315 3.4685-57.55469 3.49005-56.97983 3.5254-56.62137 3.54788-56.26291 3.57034-55.68805 3.60692-55.3296 3.6305-54.97113 3.65408-54.39627 3.69315-54.03783 3.71786-53.67937 3.74258-53.10452 3.78284-52.74605 3.8087-52.38759 3.83455-51.81273 3.87714-51.45427 3.90428-51.09581 3.93144-50.52095 3.97583-50.16249 4.00443-49.80405 4.03302-49.22919 4.08014-48.87071 4.1104-48.51227 4.14063-47.93741 4.19058-47.57895 4.22241-47.22049 4.25426-46.64563 4.30626-46.28717 4.33986-45.92871 4.37346-45.35385 4.42903-44.9954 4.46465-44.63693 4.50024-44.06207 4.55885-43.70363 4.59657-43.34517 4.6343-42.77032 4.6964-42.41185 4.73648-42.05339 4.77658-41.47853 4.84286-41.12007 4.8855-40.7616 4.92815-40.18675 4.99843-39.8283 5.04381-39.46985 5.08917-38.89499 5.16396-38.53651 5.21251-38.17807 5.26105-37.60321 5.34167-37.24475 5.39374-36.88629 5.4458-36.31143 5.53195-35.95297 5.58772-35.59451 5.6435-35.01965 5.73581-34.66121 5.79578-34.30273 5.85576-33.72787 5.95532-33.36943 6.02005-33.01097 6.08476-32.43611 6.19235-32.07765 6.26227-31.7192 6.33218-31.14435 6.44792-30.78589 6.52396-30.42741 6.59999-29.85255 6.7273-29.4941 6.8103-29.13564 6.89328-28.56079 7.0313-28.20232 7.12215-27.84387 7.21301-27.26901 7.36545-26.91055 7.46515-26.55211 7.56487-25.97723 7.73091-25.61877 7.84082-25.26031 7.95073-24.68547 8.13525-24.32701 8.25735-23.96854 8.37944-23.39368 8.58473-23.03523 8.72083-22.67677 8.85689-22.1019 9.08551-21.74345 9.23813-21.385 9.39075-20.81015 9.6479-20.45169 9.82076-20.09322 9.99364-19.51836 10.28682-19.1599 10.48405-18.80144 10.68129-18.2266 11.01575-17.86812 11.2423-17.50967 11.46884-16.93481 11.85316-16.57635 12.11688-16.21791 12.38062-15.64304 12.8324-15.28458 13.1431-14.92612 13.45378-14.35127 13.98521-13.9928 14.35614-13.63434 14.72705-13.05948 15.36536-12.70103 15.81639-12.34258 16.26741-11.7677 17.04648-11.40926 17.60687-11.0508 18.16728-10.47594 19.14003-10.1175 19.85542-9.75902 20.5708-9.18417 21.818-8.82571 22.76295-8.46725 23.70789-7.8924 25.35895-7.53392 26.66595-7.17546 27.97296-6.60062 30.25206-6.24216 32.18298-5.88371 34.11389-5.30884 37.42923-4.95038 40.58264-4.59193 43.73607-4.01707 48.76482-3.6586 54.91068-3.30014 61.05655-2.36684 84.87778-2.36684 84.87778"/>
<path transform="matrix(1.00006,0,0,-1.00008,86.8563,105.4174)" stroke-width="1.19553" stroke-linecap="butt" stroke-miterlimit="10" stroke-linejoin="miter" fill="none" stroke="#ff0000" d="M2.36208-85.04321C2.36208-85.04321 3.29538-61.14362 3.65385-54.9801 4.01231-48.8166 4.58717-43.78065 4.94562-40.62093 5.30408-37.46121 5.87895-34.14084 6.2374-32.20699 6.59586-30.27313 7.1707-27.99179 7.52917-26.68304 7.88763-25.3743 8.4625-23.72034 8.82095-22.77441 9.17941-21.82846 9.75427-20.58136 10.11273-19.86537 10.47118-19.14938 11.04604-18.17502 11.4045-17.61401 11.76295-17.05301 12.33781-16.27344 12.69627-15.822 13.05472-15.37059 13.62958-14.7316 13.98805-14.36046 14.34651-13.98933 14.92136-13.4577 15.27982-13.1472 15.63828-12.83669 16.21315-12.38641 16.5716-12.12251 16.93005-11.8586 17.50491-11.47223 17.86337-11.2451 18.22183-11.01799 18.79668-10.68259 19.15514-10.48557 19.5136-10.28856 20.08847-9.99796 20.44693-9.82509 20.80539-9.65222 21.38023-9.39264 21.7387-9.23965 22.09715-9.08664 22.67201-8.85841 23.03047-8.72232 23.38892-8.58626 23.96378-8.381 24.32225-8.25887 24.68071-8.13675 25.25555-7.95206 25.61401-7.84212 25.97249-7.73218 26.54735-7.56616 26.90579-7.46646 27.26425-7.36674 27.83911-7.21428 28.19757-7.12346 28.55603-7.03262 29.13087-6.89478 29.48933-6.81181 29.8478-6.72885 30.42267-6.6016 30.78113-6.52547 31.13959-6.44934 31.71443-6.33307 32.07289-6.26314 32.43135-6.19319 33.00621-6.0861 33.36467-6.02135 33.72311-5.9566 34.29799-5.85652 34.65645-5.79643 35.01491-5.73633 35.58975-5.64394 35.94821-5.58817 36.30669-5.5324 36.88155-5.44641 37.23999-5.39438 37.59845-5.34235 38.17331-5.26167 38.53177-5.21315 38.89023-5.16464 39.46509-5.09007 39.82353-5.04468 40.18199-4.99928 40.75685-4.92862 41.11531-4.88594 41.47377-4.84323 42.04863-4.77702 42.40709-4.73692 42.76556-4.69684 43.34041-4.6347 43.69887-4.597 44.05731-4.55928 44.63219-4.50066 44.99065-4.46507 45.34909-4.42949 45.92395-4.37416 46.28241-4.3405 46.64088-4.30684 47.21573-4.25423 47.57419-4.22241 47.93265-4.19061 48.5075-4.14134 48.86597-4.11127 49.22443-4.08116 49.79929-4.03418 50.15773-4.00551 50.51619-3.97682 51.09105-3.93178 51.44951-3.9045 51.80797-3.87723 52.38283-3.8348 52.7413-3.80891 53.09976-3.78302 53.6746-3.74258 54.03307-3.71786 54.39151-3.69315 54.96638-3.65427 55.32484-3.6307 55.68329-3.60715 56.25815-3.57056 56.61661-3.5481 56.97508-3.52562 57.54993-3.4902 57.90839-3.46872 58.26685-3.44724 58.8417-3.41379 59.20016-3.39323 59.55862-3.37268 60.13348-3.34029 60.49193-3.32057 60.8504-3.30087 61.42525-3.26997 61.7837-3.25116 62.14217-3.23235 62.71703-3.20306 63.0755-3.18497 63.43396-3.16689 64.0088-3.13815 64.36726-3.12074 64.72571-3.10335 65.30058-3.07622 65.65904-3.05954 66.01749-3.04286 66.59235-3.01653 66.9508-3.0005 67.30927-2.98448 67.88412-2.95955 68.24258-2.94405 68.60104-2.92857 69.1759-2.90387 69.53436-2.8889 69.89282-2.87395 70.46768-2.8505 70.82613-2.83614 71.1846-2.82176 71.75946-2.7991 72.1179-2.78531 72.47636-2.77151 73.05121-2.74994 73.40968-2.73665 73.76814-2.72337 74.343-2.70244 74.70146-2.68951 75.05992-2.67657 75.63478-2.656 75.99324-2.64343 76.35168-2.63086 76.92654-2.61095 77.285-2.59889 77.64346-2.58682 78.21832-2.56812 78.57678-2.55649 78.93524-2.54489 79.5101-2.52647 79.86856-2.51518 80.22702-2.5039 80.80188-2.48611 81.16032-2.47517 81.5188-2.46426 82.09366-2.44705 82.4521-2.43648 82.81056-2.42587 83.3854-2.40909 83.74388-2.39883 84.10234-2.38858 85.03566-2.3625 85.03566-2.3625"/>
</svg>
