<svg xmlns="http://www.w3.org/2000/svg" xmlns:xlink="http://www.w3.org/1999/xlink" version="1.1" width="191" height="164" viewBox="0 0 191 164">
<defs>
<path id="font_1_1" d="M.33399964 .30233766C.33999635 .32835389 .36299134 .42037965 .43299867 .42037965 .43798829 .42037965 .46199037 .42037965 .48298646 .40734864 .45498658 .402359 .43499757 .37734986 .43499757 .35334779 .43499757 .33735658 .44599916 .31835938 .47299195 .31835938 .49499513 .31835938 .5269928 .3363495 .5269928 .37635804 .5269928 .42837525 .46798707 .4423828 .43399049 .4423828 .37599183 .4423828 .34098817 .38935853 .32899476 .36634828 .3039856 .43237306 .25 .4423828 .22099304 .4423828 .116989139 .4423828 .05999756 .3133545 .05999756 .28834535 .05999756 .27833558 .069992069 .27833558 .07199097 .27833558 .07998657 .27833558 .08299255 .28033448 .084991458 .28933717 .11898804 .39535523 .18499756 .42037965 .21899414 .42037965 .23799134 .42037965 .272995 .4113617 .272995 .35334779 .272995 .32235719 .2559967 .25532533 .21899414 .11528015 .20298767 .053268434 .16799927 .011245728 .12399292 .011245728 .117996219 .011245728 .09498596 .011245728 .07398987 .024276734 .09899902 .029266358 .12098694 .05027771 .12098694 .07827759 .12098694 .105270389 .09899902 .11328125 .083999637 .11328125 .053985597 .11328125 .0289917 .08728027 .0289917 .055267335 .0289917 .009246826 .07899475-.0107421879 .12298584-.0107421879 .18899536-.0107421879 .22499085 .059280397 .22799683 .0652771 .23999024 .028274537 .27598573-.0107421879 .33599855-.0107421879 .43899537-.0107421879 .49598695 .118270877 .49598695 .14328003 .49598695 .1532898 .4869995 .1532898 .48399354 .1532898 .47499085 .1532898 .47299195 .14929199 .47099305 .14228821 .43798829 .03527832 .36999513 .011245728 .33799745 .011245728 .29899598 .011245728 .2829895 .043273927 .2829895 .07727051 .2829895 .09927368 .2889862 .121276859 .2999878 .16529846L.33399964 .30233766Z"/>
<path id="font_1_2" d="M.48599244 .38136292C.48999024 .39537049 .48999024 .39736939 .48999024 .40437318 .48999024 .42237855 .47599793 .43138124 .46099855 .43138124 .45098878 .43138124 .43499757 .42536927 .42599488 .41036988 .42399598 .405365 .41600038 .37435914 .4119873 .35635377 .40499879 .33035279 .397995 .30334474 .3919983 .27633668L.34700013 .09628296C.34298707 .08126831 .2999878 .011245728 .23399353 .011245728 .18299866 .011245728 .17199707 .055267335 .17199707 .0922699 .17199707 .1382904 .18899536 .20030213 .22299195 .28833009 .23899842 .3293457 .24299622 .3403473 .24299622 .36035157 .24299622 .405365 .21099854 .4423828 .16099549 .4423828 .06599426 .4423828 .0289917 .29733277 .0289917 .28833009 .0289917 .27833558 .038986207 .27833558 .040985109 .27833558 .050994874 .27833558 .051986696 .28033448 .056991579 .29634095 .083999637 .3903656 .12399292 .42037965 .1579895 .42037965 .1659851 .42037965 .18299866 .42037965 .18299866 .3883667 .18299866 .36335755 .17298889 .3373413 .1659851 .31834413 .12599182 .21231079 .10798645 .1552887 .10798645 .10827637 .10798645 .019256592 .17098999-.0107421879 .22999573-.0107421879 .2689972-.0107421879 .30299378 .0062561037 .33099366 .03425598 .31799317-.017745972 .30599977-.06674194 .2659912-.11973572 .23999024-.15385437 .20199585-.18309021 .1559906-.18309021 .14199829-.18309021 .09700012-.18005371 .07998657-.14074707 .09599304-.14074707 .10899353-.14074707 .12298584-.1287384 .1329956-.11973572 .14299011-.10673523 .14299011-.08773804 .14299011-.056747438 .115997318-.052734376 .10598755-.052734376 .08299255-.052734376 .049987794-.068740848 .049987794-.11773682 .049987794-.16796875 .09399414-.20507813 .1559906-.20507813 .25898744-.20507813 .3619995-.11373901 .3899994-.00074768069L.48599244 .38136292Z"/>
</defs>
<path transform="matrix(1.00006,0,0,-1.00009,115.20501,91.24504)" stroke-width=".3985" stroke-linecap="butt" stroke-miterlimit="10" stroke-linejoin="miter" fill="none" stroke="#cbcbcb" d="M-113.38724-70.867H56.69362M-113.38724-56.69362H56.69362M-113.38724-42.5202H56.69362M-113.38724-28.3468H56.69362M-113.38724-14.17339H56.69362M-113.38724 0H56.69362M-113.38724 14.17339H56.69362M-113.38724 28.3468H56.69362M-113.38724 42.5202H56.69362M-113.38724 56.69362H56.69362M-113.38724 70.86205H56.69362M-113.38724-70.867V70.867M-99.21382-70.867V70.867M-85.04042-70.867V70.867M-70.867-70.867V70.867M-56.69362-70.867V70.867M-42.5202-70.867V70.867M-28.3468-70.867V70.867M-14.17339-70.867V70.867M0-70.867V70.867M14.17339-70.867V70.867M28.3468-70.867V70.867M42.5202-70.867V70.867M56.68863-70.867V70.867M56.69362 70.867"/>
<path transform="matrix(1.00006,0,0,-1.00009,115.20501,91.24504)" stroke-width=".79701" stroke-linecap="butt" stroke-miterlimit="10" stroke-linejoin="miter" fill="none" stroke="#000000" d="M-113.38724 0H63.76312"/>
<path transform="matrix(1.00006,0,0,-1.00009,178.97196,91.24504)" d="M1.0361 0C-.25902 .25902-1.55415 .77707-3.1083 1.68365-1.55415 .51805-1.55415-.51805-3.1083-1.68365-1.55415-.77707-.25902-.25902 1.0361 0Z"/>
<path transform="matrix(1.00006,0,0,-1.00009,178.97196,91.24504)" stroke-width=".79701" stroke-linecap="butt" stroke-linejoin="round" fill="none" stroke="#000000" d="M1.0361 0C-.25902 .25902-1.55415 .77707-3.1083 1.68365-1.55415 .51805-1.55415-.51805-3.1083-1.68365-1.55415-.77707-.25902-.25902 1.0361 0Z"/>
<use data-text="x" xlink:href="#font_1_1" transform="matrix(9.963197,0,0,-9.963496,184.12615,93.390239)"/>
<path transform="matrix(1.00006,0,0,-1.00009,115.20501,91.24504)" stroke-width=".79701" stroke-linecap="butt" stroke-miterlimit="10" stroke-linejoin="miter" fill="none" stroke="#000000" d="M0-70.867V77.93652"/>
<path transform="matrix(0,-1.00009,-1.00006,-0,115.20501,13.301506)" d="M1.0361 0C-.25902 .25902-1.55415 .77707-3.1083 1.68365-1.55415 .51805-1.55415-.51805-3.1083-1.68365-1.55415-.77707-.25902-.25902 1.0361 0Z"/>
<path transform="matrix(0,-1.00009,-1.00006,-0,115.20501,13.301506)" stroke-width=".79701" stroke-linecap="butt" stroke-linejoin="round" fill="none" stroke="#000000" d="M1.0361 0C-.25902 .25902-1.55415 .77707-3.1083 1.68365-1.55415 .51805-1.55415-.51805-3.1083-1.68365-1.55415-.77707-.25902-.25902 1.0361 0Z"/>
<use data-text="y" xlink:href="#font_1_2" transform="matrix(9.963197,0,0,-9.963496,112.583858,6.210388)"/>
<path transform="matrix(1.00006,0,0,-1.00009,115.20501,91.24504)" stroke-width="1.19553" stroke-linecap="butt" stroke-miterlimit="10" stroke-linejoin="miter" fill="none" stroke="#ff0000" d="M-113.38724-56.69362C-113.38724-56.69362-111.46716-54.77354-110.7297-54.03609-109.99226-53.29865-108.80965-52.11603-108.07219-51.37857-107.33475-50.64113-106.15215-49.45853-105.41469-48.72107-104.67725-47.98363-103.49461-46.801-102.75717-46.06355-102.01973-45.32611-100.8371-44.14348-100.09966-43.40604-99.36221-42.66858-98.1796-41.48598-97.44215-40.74854-96.7047-40.01108-95.52208-38.82846-94.78464-38.09102-94.04718-37.35356-92.86456-36.17094-92.1271-35.43349-91.38966-34.69604-90.20706-33.51344-89.4696-32.77599-88.73216-32.03854-87.54955-30.85593-86.81209-30.11847-86.07465-29.38103-84.89201-28.1984-84.15457-27.46095-83.41713-26.72351-82.23451-25.5409-81.49707-24.80345-80.75963-24.066-79.577-22.88338-78.83955-22.14594-78.1021-21.40848-76.91948-20.22586-76.18204-19.48842-75.44458-18.75096-74.26198-17.56836-73.52452-16.8309-72.78708-16.09346-71.60446-14.91084-70.867-14.17339-70.12956-13.43594-68.94695-12.25333-68.20949-11.51587-67.47205-10.77843-66.28943-9.59581-65.55199-8.85837-64.81454-8.12093-63.63191-6.9383-62.89447-6.20085-62.15703-5.4634-60.9744-4.28078-60.23695-3.54333-59.4995-2.80588-58.3169-1.62328-57.57945-.88583-56.842-.14838-55.65938 1.03421-54.92192 1.77167-54.18448 2.50911-53.00186 3.69173-52.2644 4.42918-51.52696 5.16663-50.34436 6.34923-49.6069 7.08669-48.86946 7.82413-47.68683 9.00676-46.94939 9.7442-46.21194 10.48164-45.02931 11.66428-44.29187 12.40172-43.55443 13.13918-42.37181 14.32178-41.63437 15.05922-40.89691 15.79668-39.7143 16.9793-38.97685 17.71674-38.2394 18.4542-37.05678 19.63681-36.31932 20.37427-35.58188 21.11171-34.39928 22.29431-33.66182 23.03177-32.92438 23.76921-31.74176 24.95183-31.0043 25.68929-30.26686 26.42673-29.08424 28.3468-28.3468 28.3468-27.60936 28.3468-26.42673 26.42673-25.68929 25.68929-24.95183 24.95183-23.76921 23.76921-23.03177 23.03177-22.29431 22.29431-21.11171 21.11171-20.37427 20.37427-19.63681 19.63681-18.4542 18.4542-17.71674 17.71674-16.9793 16.9793-15.79668 15.79668-15.05922 15.05922-14.32178 14.32178-13.13918 13.13918-12.40172 12.40172-11.66428 11.66428-10.48164 10.48164-9.7442 9.7442-9.00676 9.00676-7.82413 7.82413-7.08669 7.08669-6.34923 6.34923-5.16663 5.16663-4.42918 4.42918-3.69173 3.69173-2.50911 2.50911-1.77167 1.77167-1.03421 1.03421 .14838-.14838 .88583-.88583 1.62328-1.62328 2.80588-2.80588 3.54333-3.54333 4.28078-4.28078 5.4634-5.4634 6.20085-6.20085 6.9383-6.9383 8.12093-8.12093 8.85837-8.85837 9.59581-9.59581 10.77843-10.77843 11.51587-11.51587 12.25333-12.25333 13.43594-13.43594 14.17339-14.17339 14.91084-14.91084 16.09346-16.09346 16.8309-16.8309 17.56836-17.56836 18.75096-18.75096 19.48842-19.48842 20.22586-20.22586 21.40848-21.40848 22.14594-22.14594 22.88338-22.88338 24.066-24.066 24.80345-24.80345 25.5409-25.5409 26.72351-26.72351 27.46095-27.46095 28.1984-28.1984 29.38103-29.38103 30.11847-30.11847 30.85593-30.85593 32.03854-32.03854 32.77599-32.77599 33.51344-33.51344 34.69604-34.69604 35.43349-35.43349 36.17094-36.17094 37.35356-37.35356 38.09102-38.09102 38.82846-38.82846 40.01108-40.01108 40.74854-40.74854 41.48598-41.48598 42.66858-42.66858 43.40604-43.40604 44.14348-44.14348 45.32611-45.32611 46.06355-46.06355 46.801-46.801 47.98363-47.98363 48.72107-48.72107 49.45853-49.45853 50.64113-50.64113 51.37857-51.37857 52.11603-52.11603 53.29865-53.29865 54.03609-54.03609 54.77354-54.77354 56.69362-56.69362 56.69362-56.69362"/>
</svg>
