<svg xmlns="http://www.w3.org/2000/svg" xmlns:xlink="http://www.w3.org/1999/xlink" version="1.1" width="210" height="196" viewBox="0 0 210 196">
<defs>
<path id="font_1_1" d="M.33399964 .30233766C.33999635 .32835389 .36299134 .42037965 .43299867 .42037965 .43798829 .42037965 .46199037 .42037965 .48298646 .40734864 .45498658 .402359 .43499757 .37734986 .43499757 .35334779 .43499757 .33735658 .44599916 .31835938 .47299195 .31835938 .49499513 .31835938 .5269928 .3363495 .5269928 .37635804 .5269928 .42837525 .46798707 .4423828 .43399049 .4423828 .37599183 .4423828 .34098817 .38935853 .32899476 .36634828 .3039856 .43237306 .25 .4423828 .22099304 .4423828 .116989139 .4423828 .05999756 .3133545 .05999756 .28834535 .05999756 .27833558 .069992069 .27833558 .07199097 .27833558 .07998657 .27833558 .08299255 .28033448 .084991458 .28933717 .11898804 .39535523 .18499756 .42037965 .21899414 .42037965 .23799134 .42037965 .272995 .4113617 .272995 .35334779 .272995 .32235719 .2559967 .25532533 .21899414 .11528015 .20298767 .053268434 .16799927 .011245728 .12399292 .011245728 .117996219 .011245728 .09498596 .011245728 .07398987 .024276734 .09899902 .029266358 .12098694 .05027771 .12098694 .07827759 .12098694 .105270389 .09899902 .11328125 .083999637 .11328125 .053985597 .11328125 .0289917 .08728027 .0289917 .055267335 .0289917 .009246826 .07899475-.0107421879 .12298584-.0107421879 .18899536-.0107421879 .22499085 .059280397 .22799683 .0652771 .23999024 .028274537 .27598573-.0107421879 .33599855-.0107421879 .43899537-.0107421879 .49598695 .118270877 .49598695 .14328003 .49598695 .1532898 .4869995 .1532898 .48399354 .1532898 .47499085 .1532898 .47299195 .14929199 .47099305 .14228821 .43798829 .03527832 .36999513 .011245728 .33799745 .011245728 .29899598 .011245728 .2829895 .043273927 .2829895 .07727051 .2829895 .09927368 .2889862 .121276859 .2999878 .16529846L.33399964 .30233766Z"/>
<path id="font_1_2" d="M.48599244 .38136292C.48999024 .39537049 .48999024 .39736939 .48999024 .40437318 .48999024 .42237855 .47599793 .43138124 .46099855 .43138124 .45098878 .43138124 .43499757 .42536927 .42599488 .41036988 .42399598 .405365 .41600038 .37435914 .4119873 .35635377 .40499879 .33035279 .397995 .30334474 .3919983 .27633668L.34700013 .09628296C.34298707 .08126831 .2999878 .011245728 .23399353 .011245728 .18299866 .011245728 .17199707 .055267335 .17199707 .0922699 .17199707 .1382904 .18899536 .20030213 .22299195 .28833009 .23899842 .3293457 .24299622 .3403473 .24299622 .36035157 .24299622 .405365 .21099854 .4423828 .16099549 .4423828 .06599426 .4423828 .0289917 .29733277 .0289917 .28833009 .0289917 .27833558 .038986207 .27833558 .040985109 .27833558 .050994874 .27833558 .051986696 .28033448 .056991579 .29634095 .083999637 .3903656 .12399292 .42037965 .1579895 .42037965 .1659851 .42037965 .18299866 .42037965 .18299866 .3883667 .18299866 .36335755 .17298889 .3373413 .1659851 .31834413 .12599182 .21231079 .10798645 .1552887 .10798645 .10827637 .10798645 .019256592 .17098999-.0107421879 .22999573-.0107421879 .2689972-.0107421879 .30299378 .0062561037 .33099366 .03425598 .31799317-.017745972 .30599977-.06674194 .2659912-.11973572 .23999024-.15385437 .20199585-.18309021 .1559906-.18309021 .14199829-.18309021 .09700012-.18005371 .07998657-.14074707 .09599304-.14074707 .10899353-.14074707 .12298584-.1287384 .1329956-.11973572 .14299011-.10673523 .14299011-.08773804 .14299011-.056747438 .115997318-.052734376 .10598755-.052734376 .08299255-.052734376 .049987794-.068740848 .049987794-.11773682 .049987794-.16796875 .09399414-.20507813 .1559906-.20507813 .25898744-.20507813 .3619995-.11373901 .3899994-.00074768069L.48599244 .38136292Z"/>
<path id="font_2_1" d="M.6589966 .23046875C.6759949 .23046875 .69400027 .23046875 .69400027 .25045777 .69400027 .27046205 .6759949 .27046205 .6589966 .27046205H.117996219C.100997928 .27046205 .08299255 .27046205 .08299255 .25045777 .08299255 .23046875 .100997928 .23046875 .117996219 .23046875H.6589966Z"/>
<path id="font_3_4" d="M.44898988 .20022583C.44898988 .3193512 .36698915 .41944886 .25898744 .41944886 .21099854 .41944886 .16799927 .40345765 .13198853 .36842347V.5637665C.1519928 .5577698 .18499756 .55078127 .21699524 .55078127 .33999635 .55078127 .4099884 .6417694 .4099884 .6547699 .4099884 .6607666 .40699769 .6657715 .3999939 .6657715 .39898683 .6657715 .39698792 .6657715 .3919983 .66278079 .37199403 .6537781 .32299806 .6337738 .2559967 .6337738 .21598816 .6337738 .16999817 .6407776 .12298584 .6617737 .114990238 .66477969 .11299133 .66477969 .11099243 .66477969 .100997928 .66477969 .100997928 .6567688 .100997928 .6407776V.34439088C.100997928 .32637025 .100997928 .31835938 .114990238 .31835938 .12199402 .31835938 .12399292 .32136537 .12799073 .32736207 .13899231 .3433838 .17599488 .39746095 .25698854 .39746095 .30899049 .39746095 .33399964 .35139466 .34199525 .33337403 .35798646 .29632569 .3600006 .25727845 .3600006 .20722962 .3600006 .17222595 .3600006 .11222839 .33599855 .07035828 .31199647 .031463624 .2749939 .0055389406 .22898865 .0055389406 .1559906 .0055389406 .09899902 .058380128 .08198547 .11723328 .084991458 .1162262 .08799744 .115234378 .09899902 .115234378 .13198853 .115234378 .14898682 .14022827 .14898682 .16423035 .14898682 .18823242 .13198853 .21322632 .09899902 .21322632 .084991458 .21322632 .049987794 .20622254 .049987794 .16023255 .049987794 .07434082 .11898804-.022460938 .23098755-.022460938 .34700013-.022460938 .44898988 .073349 .44898988 .20022583Z"/>
<path id="font_3_3" d="M.2939911 .16503906V.07800293C.2939911 .041992189 .2919922 .0309906 .21798706 .0309906H.19699097V0C.23799134 .0029907227 .2899933 .0029907227 .33198548 .0029907227 .37399293 .0029907227 .4269867 .0029907227 .46798707 0V.0309906H.44699098C.37298585 .0309906 .37098695 .041992189 .37098695 .07800293V.16503906H.47099305V.19602967H.37098695V.65075686C.37098695 .67074587 .37098695 .6767578 .35499574 .6767578 .34599305 .6767578 .34298707 .6767578 .33499146 .66474917L.027999878 .19602967V.16503906H.2939911M.2999878 .19602967H.055999757L.2999878 .5688019V.19602967Z"/>
<path id="font_4_1" d="M.5049896 .18203736H.47099305C.46798707 .16001892 .45799256 .100997928 .44499208 .09098816 .43699647 .084991458 .3600006 .084991458 .34599305 .084991458H.1619873C.2669983 .17803955 .3019867 .20603943 .3619995 .25306703 .43598939 .312088 .5049896 .374115 .5049896 .46914674 .5049896 .5900879 .39898683 .6640625 .2709961 .6640625 .14698792 .6640625 .06298828 .57710269 .06298828 .4851532 .06298828 .43414308 .10598755 .42915345 .115997318 .42915345 .13999939 .42915345 .16899109 .44615174 .16899109 .48214723 .16899109 .5001526 .1619873 .53515627 .10998535 .53515627 .14099121 .6060791 .20899964 .62805178 .2559967 .62805178 .35598756 .62805178 .4079895 .5501404 .4079895 .46914674 .4079895 .38212586 .34599305 .3130951 .31399537 .27708436L.07299805 .038986207C.06298828 .02999878 .06298828 .027999878 .06298828 0H.47499085L.5049896 .18203736Z"/>
<path id="font_3_6" d="M.68699648 .32714845C.70199587 .32714845 .72099307 .32714845 .72099307 .34713746 .72099307 .36714173 .70199587 .36714173 .6879883 .36714173H.08898926C.07499695 .36714173 .055999757 .36714173 .055999757 .34713746 .055999757 .32714845 .07499695 .32714845 .08999634 .32714845H.68699648M.6879883 .13284302C.70199587 .13284302 .72099307 .13284302 .72099307 .15284729 .72099307 .17285156 .70199587 .17285156 .68699648 .17285156H.08999634C.07499695 .17285156 .055999757 .17285156 .055999757 .15284729 .055999757 .13284302 .07499695 .13284302 .08898926 .13284302H.6879883Z"/>
<path id="font_3_1" d="M.45999146 .31976319C.45999146 .39982606 .45498658 .47988893 .41999818 .5539398 .37399293 .65000918 .2919922 .6660156 .25 .6660156 .18998719 .6660156 .116989139 .64001467 .07598877 .54693606 .04399109 .47789 .038986207 .39982606 .038986207 .31976319 .038986207 .24472046 .042999269 .15464783 .083999637 .07859802 .1269989-.0024719239 .19999695-.022460938 .24899292-.022460938 .30299378-.022460938 .3789978-.0014648438 .4229889 .09359741 .45498658 .16265869 .45999146 .2407074 .45999146 .31976319M.24899292-.00047302247C.20999146-.00047302247 .15098572 .024551392 .1329956 .12062073 .12199402 .18066406 .12199402 .2727356 .12199402 .3317871 .12199402 .39582826 .12199402 .46188355 .12998963 .5159149 .14898682 .63500979 .22399903 .64401248 .24899292 .64401248 .28199769 .64401248 .34799195 .6259918 .36698915 .52693179 .3769989 .47088624 .3769989 .39482118 .3769989 .3317871 .3769989 .25672914 .3769989 .18867493 .3659973 .12461853 .35099793 .029556275 .2939911-.00047302247 .24899292-.00047302247Z"/>
<path id="font_3_2" d="M.2939911 .64004519C.2939911 .66400149 .2939911 .6660156 .2709961 .6660156 .20899964 .60227969 .12098694 .60227969 .08898926 .60227969V.57128909C.10899353 .57128909 .16799927 .57128909 .21998596 .5972748V.07902527C.21998596 .042999269 .21699524 .0309906 .1269989 .0309906H.09498596V0C.12998963 .0029907227 .21699524 .0029907227 .25698854 .0029907227 .29699708 .0029907227 .38398744 .0029907227 .4189911 0V.0309906H.3869934C.29699708 .0309906 .2939911 .041992189 .2939911 .07902527V.64004519Z"/>
<path id="font_3_5" d="M.13198853 .327713V.35173036C.13198853 .6047821 .2559967 .64100649 .30699159 .64100649 .33099366 .64100649 .37298585 .634964 .394989 .6007538 .37998963 .6007538 .33999635 .6007538 .33999635 .5557556 .33999635 .524765 .3639984 .5097656 .38598634 .5097656 .4019928 .5097656 .43199159 .51875308 .43199159 .5577545 .43199159 .6178589 .3880005 .6660156 .30499269 .6660156 .1769867 .6660156 .041992189 .5367584 .041992189 .31570436 .041992189 .048553468 .1579895-.022460938 .25099183-.022460938 .3619995-.022460938 .45700074 .07156372 .45700074 .2036438 .45700074 .33070375 .36799623 .4267578 .25698854 .4267578 .18899536 .4267578 .1519928 .37573243 .13198853 .327713M.25099183 .0055389406C.18798828 .0055389406 .1579895 .06556702 .1519928 .080566409 .13398743 .127594 .13398743 .2076416 .13398743 .22564698 .13398743 .30369569 .1659851 .40374757 .2559967 .40374757 .27198792 .40374757 .31799317 .40374757 .34899903 .34172059 .36698915 .30470277 .36698915 .2536621 .36698915 .20463562 .36698915 .15661621 .36698915 .10658264 .34999085 .0705719 .31999208 .010528564 .27398683 .0055389406 .25099183 .0055389406Z"/>
</defs>
<path transform="matrix(1,0,0,-1.00006,104.48399,107.117649)" stroke-width=".3985" stroke-linecap="butt" stroke-miterlimit="10" stroke-linejoin="miter" fill="none" stroke="#00aeef" d="M-85.04128-85.04128H85.04128M-85.04128-68.03302H85.04128M-85.04128-51.02477H85.04128M-85.04128-34.0165H85.04128M-85.04128-17.00824H85.04128M-85.04128 0H85.04128M-85.04128 17.00824H85.04128M-85.04128 34.0165H85.04128M-85.04128 51.02477H85.04128M-85.04128 68.03302H85.04128M-85.04128 85.0353H85.04128M-85.04128-85.04128V85.04128M-68.03302-85.04128V85.04128M-51.02477-85.04128V85.04128M-34.0165-85.04128V85.04128M-17.00824-85.04128V85.04128M0-85.04128V85.04128M17.00824-85.04128V85.04128M34.0165-85.04128V85.04128M51.02477-85.04128V85.04128M68.03302-85.04128V85.04128M85.0353-85.04128V85.04128M85.04128 85.04128"/>
<path transform="matrix(1,0,0,-1.00006,104.48399,107.117649)" stroke-width=".79701" stroke-linecap="butt" stroke-miterlimit="10" stroke-linejoin="miter" fill="none" stroke="#000000" d="M-85.04128 0H93.81172"/>
<path transform="matrix(1,0,0,-1.00006,198.29572,107.117649)" d="M1.0361 0C-.25902 .25902-1.55415 .77707-3.1083 1.68365-1.55415 .51805-1.55415-.51805-3.1083-1.68365-1.55415-.77707-.25902-.25902 1.0361 0Z"/>
<path transform="matrix(1,0,0,-1.00006,198.29572,107.117649)" stroke-width=".79701" stroke-linecap="butt" stroke-linejoin="round" fill="none" stroke="#000000" d="M1.0361 0C-.25902 .25902-1.55415 .77707-3.1083 1.68365-1.55415 .51805-1.55415-.51805-3.1083-1.68365-1.55415-.77707-.25902-.25902 1.0361 0Z"/>
<use data-text="x" xlink:href="#font_1_1" transform="matrix(9.9626,0,0,-9.963197,203.44899,109.26277)"/>
<path transform="matrix(1,0,0,-1.00006,104.48399,107.117649)" stroke-width=".79701" stroke-linecap="butt" stroke-miterlimit="10" stroke-linejoin="miter" fill="none" stroke="#000000" d="M0-85.04128V93.81172"/>
<path transform="matrix(0,-1.00006,-1,-0,104.48399,13.300301)" d="M1.0361 0C-.25902 .25902-1.55415 .77707-3.1083 1.68365-1.55415 .51805-1.55415-.51805-3.1083-1.68365-1.55415-.77707-.25902-.25902 1.0361 0Z"/>
<path transform="matrix(0,-1.00006,-1,-0,104.48399,13.300301)" stroke-width=".79701" stroke-linecap="butt" stroke-linejoin="round" fill="none" stroke="#000000" d="M1.0361 0C-.25902 .25902-1.55415 .77707-3.1083 1.68365-1.55415 .51805-1.55415-.51805-3.1083-1.68365-1.55415-.77707-.25902-.25902 1.0361 0Z"/>
<use data-text="y" xlink:href="#font_1_2" transform="matrix(9.9626,0,0,-9.963197,101.86299,6.2085955)"/>
<path transform="matrix(1,0,0,-1.00006,104.48399,107.117649)" stroke-width=".3985" stroke-linecap="butt" stroke-miterlimit="10" stroke-linejoin="miter" fill="none" stroke="#000000" d="M-85.04128 1.70091V-1.70065"/>
<path transform="matrix(1,0,0,-1.00006,104.48399,107.117649)" d="M-92.40266-13.13568H-77.67988V-3.8924504H-92.40266Z" fill="#ffffff"/>
<use data-text="&#x2212;" xlink:href="#font_2_1" transform="matrix(9.9626,0,0,-9.963197,13.077988,118.42732)"/>
<use data-text="5" xlink:href="#font_3_4" transform="matrix(9.9626,0,0,-9.963197,20.82698,118.42732)"/>
<path transform="matrix(1,0,0,-1.00006,104.48399,107.117649)" stroke-width=".3985" stroke-linecap="butt" stroke-miterlimit="10" stroke-linejoin="miter" fill="none" stroke="#000000" d="M85.04128 1.70091V-1.70065"/>
<path transform="matrix(1,0,0,-1.00006,104.48399,107.117649)" d="M81.5543-12.30545H88.52824V-3.8924704H81.5543Z" fill="#ffffff"/>
<use data-text="5" xlink:href="#font_3_4" transform="matrix(9.9626,0,0,-9.963197,187.035,118.42732)"/>
<path transform="matrix(1,0,0,-1.00006,104.48399,107.117649)" stroke-width=".3985" stroke-linecap="butt" stroke-miterlimit="10" stroke-linejoin="miter" fill="none" stroke="#000000" d="M1.70091 85.04128H-1.70065"/>
<path transform="matrix(1,0,0,-1.00006,104.48399,107.117649)" d="M-10.8664 80.83478H-3.8924599V89.24776H-10.8664Z" fill="#ffffff"/>
<use data-text="5" xlink:href="#font_3_4" transform="matrix(9.9626,0,0,-9.963197,94.61399,25.281739)"/>
<path transform="matrix(1,0,0,-1.00006,104.48399,107.117649)" stroke-width=".79701" stroke-linecap="butt" stroke-miterlimit="10" stroke-linejoin="miter" fill="none" stroke="#00ff00" d="M-42.52063-85.04128 42.52063 85.04128"/>
<path transform="matrix(1,0,0,-1.00006,104.48399,107.117649)" stroke-width=".79701" stroke-linecap="butt" stroke-miterlimit="10" stroke-linejoin="miter" fill="none" stroke="#00ff00" d="M-42.52063 85.04128 42.52063-85.04128"/>
<path transform="matrix(1,0,0,-1.00006,104.48399,107.117649)" stroke-width="1.19553" stroke-linecap="butt" stroke-miterlimit="10" stroke-linejoin="miter" fill="none" stroke="#ff0000" d="M53.87666-83.55394C53.55745-82.7326 53.55745-82.7326 53.18504-81.76399 52.81265-80.79536 52.2275-79.26324 51.8708-78.31853 51.51411-77.37381 50.95526-75.87703 50.61418-74.95508 50.27312-74.03311 49.73882-72.57356 49.41258-71.67365 49.08636-70.77371 48.5747-69.34763 48.26288-68.46902 47.95107-67.59041 47.46266-66.19966 47.16508-65.34123 46.86752-64.48279 46.40176-63.12193 46.11818-62.28194 45.83456-61.44194 45.39091-60.10901 45.12106-59.287 44.85123-58.46501 44.42966-57.16205 44.17328-56.35748 43.9169-55.55292 43.51666-54.27634 43.27324-53.48817 43.02985-52.70003 42.6497-51.44916 42.4189-50.67699 42.18808-49.90483 41.82797-48.68037 41.6097-47.92291 41.3914-47.16542 41.05148-45.9617 40.84566-45.21762 40.63982-44.47353 40.31982-43.2909 40.12625-42.56007 39.93268-41.82925 39.6322-40.66872 39.45044-39.95029 39.26868-39.23184 38.9864-38.08894 38.81616-37.38202 38.64592-36.67511 38.38205-35.55127 38.2234-34.85529 38.06476-34.1593 37.82011-33.05167 37.6727-32.36592 37.52527-31.68018 37.29716-30.58955 37.1609-29.91287 37.02466-29.2362 36.81575-28.15736 36.69066-27.4889 36.56557-26.82045 36.37346-25.75574 36.25931-25.09505 36.14517-24.43437 35.9713-23.38033 35.86795-22.72714 35.7646-22.07394 35.60739-21.03383 35.51448-20.38725 35.42157-19.74069 35.28084-18.70792 35.19838-18.06711 35.11592-17.4263 34.99203-16.40436 34.92017-15.76875 34.8483-15.13312 34.74173-14.11755 34.68037-13.48596 34.619-12.85437 34.52898-11.84467 34.47792-11.21666 34.42688-10.58867 34.35297-9.58495 34.31236-8.95984 34.27176-8.33472 34.21558-7.33395 34.1852-6.7113 34.15482-6.08864 34.11378-5.09276 34.09332-4.47212 34.07288-3.85147 34.04794-2.85791 34.03778-2.23813 34.02763-1.61835 34.02014-.6225 34.02014-.00517 34.02014 .61214 34.02792 1.59323 34.03778 2.21114 34.04764 2.82904 34.07108 3.82732 34.09125 4.44824 34.1114 5.06918 34.15251 6.06445 34.18312 6.6864 34.21371 7.30833 34.2713 8.3058 34.31184 8.93076 34.35239 9.55573 34.42444 10.56288 34.47534 11.19072 34.52626 11.81856 34.61731 12.82484 34.6788 13.45586 34.7403 14.08685 34.84702 15.10274 34.91861 15.73865 34.99019 16.37454 35.11266 17.39812 35.19475 18.03908 35.27684 18.68004 35.41771 19.7112 35.51033 20.3582 35.60294 21.0052 35.7589 22.04889 35.86223 22.70222 35.96558 23.35556 36.14087 24.40692 36.25516 25.06702 36.36945 25.72714 36.5611 26.79182 36.68597 27.45984 36.81084 28.12787 37.0193 29.20493 37.1552 29.88173 37.29108 30.55855 37.5183 31.65186 37.66544 32.33789 37.81256 33.02393 38.05705 34.13054 38.21562 34.82622 38.37419 35.5219 38.63828 36.6453 38.80838 37.35193 38.97847 38.05856 39.26 39.20087 39.44162 39.91914 39.62325 40.63744 39.92392 41.79825 40.11742 42.52893 40.31093 43.25961 40.63057 44.4415 40.8363 45.18544 41.04207 45.92937 41.38216 47.13339 41.60036 47.89072 41.81857 48.64806 42.17844 49.87204 42.40903 50.64377 42.63963 51.41551 43.01901 52.66501 43.26234 53.45287 43.50569 54.24074 43.90652 55.51762 44.1629 56.3222 44.4193 57.12675 44.84055 58.43013 45.11015 59.25171 45.37979 60.07329 45.82292 61.4041 46.10623 62.24352 46.38954 63.08296 46.8549 64.4429 47.15211 65.30177 47.44934 66.16064 47.9368 67.5547 48.24835 68.43372 48.5599 69.31276 49.07123 70.73825 49.39752 71.63731 49.72385 72.53635 50.25917 73.99275 50.60017 74.91356 50.94116 75.83437 51.49904 77.32933 51.85524 78.27388 52.21143 79.21846 52.79535 80.75266 53.16739 81.72142 53.53943 82.6902 54.53665 85.25615 53.85826 83.51047"/>
<path transform="matrix(.36208,.9321559,.9321,-.36210174,158.36066,190.6766)" d="M1.27522 0C-.31879 .31879-1.91284 .9564-3.8257 2.07224-1.91284 .6376-1.91284-.6376-3.8257-2.07224-1.91284-.9564-.31879-.31879 1.27522 0Z" fill="#ff0000"/>
<path transform="matrix(.36208,.9321559,.9321,-.36210174,158.36066,190.6766)" stroke-width="1.19553" stroke-linecap="butt" stroke-linejoin="round" fill="none" stroke="#ff0000" d="M1.27522 0C-.31879 .31879-1.91284 .9564-3.8257 2.07224-1.91284 .6376-1.91284-.6376-3.8257-2.07224-1.91284-.9564-.31879-.31879 1.27522 0Z"/>
<path transform="matrix(.3622,-.9320959,-.93204,-.36222173,158.34224,23.602173)" d="M1.27522 0C-.31879 .31879-1.91284 .9564-3.8257 2.07224-1.91284 .6376-1.91284-.6376-3.8257-2.07224-1.91284-.9564-.31879-.31879 1.27522 0Z" fill="#ff0000"/>
<path transform="matrix(.3622,-.9320959,-.93204,-.36222173,158.34224,23.602173)" stroke-width="1.19553" stroke-linecap="butt" stroke-linejoin="round" fill="none" stroke="#ff0000" d="M1.27522 0C-.31879 .31879-1.91284 .9564-3.8257 2.07224-1.91284 .6376-1.91284-.6376-3.8257-2.07224-1.91284-.9564-.31879-.31879 1.27522 0Z"/>
<path transform="matrix(1,0,0,-1.00006,104.48399,107.117649)" stroke-width="1.19553" stroke-linecap="butt" stroke-miterlimit="10" stroke-linejoin="miter" fill="none" stroke="#ff0000" d="M-53.87666-83.55394C-53.55745-82.7326-53.55745-82.7326-53.18504-81.76399-52.81265-80.79536-52.2275-79.26324-51.8708-78.31853-51.51411-77.37381-50.95526-75.87703-50.61418-74.95508-50.27312-74.03311-49.73882-72.57356-49.41258-71.67365-49.08636-70.77371-48.5747-69.34763-48.26288-68.46902-47.95107-67.59041-47.46266-66.19966-47.16508-65.34123-46.86752-64.48279-46.40176-63.12193-46.11818-62.28194-45.83456-61.44194-45.39091-60.10901-45.12106-59.287-44.85123-58.46501-44.42966-57.16205-44.17328-56.35748-43.9169-55.55292-43.51666-54.27634-43.27324-53.48817-43.02985-52.70003-42.6497-51.44916-42.4189-50.67699-42.18808-49.90483-41.82797-48.68037-41.6097-47.92291-41.3914-47.16542-41.05148-45.9617-40.84566-45.21762-40.63982-44.47353-40.31982-43.2909-40.12625-42.56007-39.93268-41.82925-39.6322-40.66872-39.45044-39.95029-39.26868-39.23184-38.9864-38.08894-38.81616-37.38202-38.64592-36.67511-38.38205-35.55127-38.2234-34.85529-38.06476-34.1593-37.82011-33.05167-37.6727-32.36592-37.52527-31.68018-37.29716-30.58955-37.1609-29.91287-37.02466-29.2362-36.81575-28.15736-36.69066-27.4889-36.56557-26.82045-36.37346-25.75574-36.25931-25.09505-36.14517-24.43437-35.9713-23.38033-35.86795-22.72714-35.7646-22.07394-35.60739-21.03383-35.51448-20.38725-35.42157-19.74069-35.28084-18.70792-35.19838-18.06711-35.11592-17.4263-34.99203-16.40436-34.92017-15.76875-34.8483-15.13312-34.74173-14.11755-34.68037-13.48596-34.619-12.85437-34.52898-11.84467-34.47792-11.21666-34.42688-10.58867-34.35297-9.58495-34.31236-8.95984-34.27176-8.33472-34.21558-7.33395-34.1852-6.7113-34.15482-6.08864-34.11378-5.09276-34.09332-4.47212-34.07288-3.85147-34.04794-2.85791-34.03778-2.23813-34.02763-1.61835-34.02014-.6225-34.02014-.00517-34.02014 .61214-34.02792 1.59323-34.03778 2.21114-34.04764 2.82904-34.07108 3.82732-34.09125 4.44824-34.1114 5.06918-34.15251 6.06445-34.18312 6.6864-34.21371 7.30833-34.2713 8.3058-34.31184 8.93076-34.35239 9.55573-34.42444 10.56288-34.47534 11.19072-34.52626 11.81856-34.61731 12.82484-34.6788 13.45586-34.7403 14.08685-34.84702 15.10274-34.91861 15.73865-34.99019 16.37454-35.11266 17.39812-35.19475 18.03908-35.27684 18.68004-35.41771 19.7112-35.51033 20.3582-35.60294 21.0052-35.7589 22.04889-35.86223 22.70222-35.96558 23.35556-36.14087 24.40692-36.25516 25.06702-36.36945 25.72714-36.5611 26.79182-36.68597 27.45984-36.81084 28.12787-37.0193 29.20493-37.1552 29.88173-37.29108 30.55855-37.5183 31.65186-37.66544 32.33789-37.81256 33.02393-38.05705 34.13054-38.21562 34.82622-38.37419 35.5219-38.63828 36.6453-38.80838 37.35193-38.97847 38.05856-39.26 39.20087-39.44162 39.91914-39.62325 40.63744-39.92392 41.79825-40.11742 42.52893-40.31093 43.25961-40.63057 44.4415-40.8363 45.18544-41.04207 45.92937-41.38216 47.13339-41.60036 47.89072-41.81857 48.64806-42.17844 49.87204-42.40903 50.64377-42.63963 51.41551-43.01901 52.66501-43.26234 53.45287-43.50569 54.24074-43.90652 55.51762-44.1629 56.3222-44.4193 57.12675-44.84055 58.43013-45.11015 59.25171-45.37979 60.07329-45.82292 61.4041-46.10623 62.24352-46.38954 63.08296-46.8549 64.4429-47.15211 65.30177-47.44934 66.16064-47.9368 67.5547-48.24835 68.43372-48.5599 69.31276-49.07123 70.73825-49.39752 71.63731-49.72385 72.53635-50.25917 73.99275-50.60017 74.91356-50.94116 75.83437-51.49904 77.32933-51.85524 78.27388-52.21143 79.21846-52.79535 80.75266-53.16739 81.72142-53.53943 82.6902-54.53665 85.25615-53.85826 83.51047"/>
<path transform="matrix(-.36208,.9321559,.9321,.36210174,50.607336,190.6766)" d="M1.27522 0C-.31879 .31879-1.91284 .9564-3.8257 2.07224-1.91284 .6376-1.91284-.6376-3.8257-2.07224-1.91284-.9564-.31879-.31879 1.27522 0Z" fill="#ff0000"/>
<path transform="matrix(-.36208,.9321559,.9321,.36210174,50.607336,190.6766)" stroke-width="1.19553" stroke-linecap="butt" stroke-linejoin="round" fill="none" stroke="#ff0000" d="M1.27522 0C-.31879 .31879-1.91284 .9564-3.8257 2.07224-1.91284 .6376-1.91284-.6376-3.8257-2.07224-1.91284-.9564-.31879-.31879 1.27522 0Z"/>
<path transform="matrix(-.3622,-.9320959,-.93204,.36222173,50.625745,23.602173)" d="M1.27522 0C-.31879 .31879-1.91284 .9564-3.8257 2.07224-1.91284 .6376-1.91284-.6376-3.8257-2.07224-1.91284-.9564-.31879-.31879 1.27522 0Z" fill="#ff0000"/>
<path transform="matrix(-.3622,-.9320959,-.93204,.36222173,50.625745,23.602173)" stroke-width="1.19553" stroke-linecap="butt" stroke-linejoin="round" fill="none" stroke="#ff0000" d="M1.27522 0C-.31879 .31879-1.91284 .9564-3.8257 2.07224-1.91284 .6376-1.91284-.6376-3.8257-2.07224-1.91284-.9564-.31879-.31879 1.27522 0Z"/>
<path transform="matrix(1,0,0,-1.00006,104.48399,107.117649)" stroke-width="1.19553" stroke-linecap="butt" stroke-miterlimit="10" stroke-linejoin="miter" fill="none" stroke="#0000ff" d="M45.12479-83.59195C44.35065-81.92047 44.35065-81.92047 43.77336-80.66724 43.19606-79.41399 42.29698-77.45406 41.75113-76.25894 41.20529-75.06381 40.35492-73.1941 39.8392-72.05359 39.3235-70.91304 38.5211-69.12769 38.0342-68.03873 37.5473-66.94975 36.7894-65.24487 36.32991-64.20502 35.87039-63.16518 35.15569-61.53821 34.72241-60.54416 34.28912-59.5501 33.61526-57.99155 33.20705-57.04056 32.79881-56.08957 32.16444-54.5998 31.78017-53.69008 31.39589-52.78036 30.79874-51.3553 30.43738-50.4839 30.07605-49.6125 29.51509-48.24483 29.17583-47.40956 28.83656-46.57431 28.3103-45.26508 27.99214-44.46396 27.67397-43.66284 27.18066-42.40544 26.88266-41.63564 26.58466-40.86586 26.12286-39.65564 25.8443-38.91582 25.56575-38.176 25.13467-37.0154 24.87497-36.30344 24.61528-35.59148 24.21432-34.47087 23.9726-33.78448 23.7309-33.09808 23.35725-32.0187 23.13278-31.35637 22.90831-30.69402 22.56235-29.65079 22.35472-29.01077 22.1471-28.37076 21.82774-27.36282 21.63635-26.74356 21.44496-26.12428 21.15102-25.14807 20.97534-24.54747 20.79965-23.94684 20.5305-22.99792 20.37013-22.41467 20.20975-21.83142 19.96497-20.91093 19.81941-20.34366 19.67387-19.77638 19.4523-18.87927 19.32114-18.32611 19.18996-17.77296 18.99112-16.89702 18.87396-16.35684 18.7568-15.81664 18.57997-14.96138 18.47662-14.43271 18.37329-13.90402 18.21889-13.0655 18.12912-12.54648 18.03937-12.02747 17.90608-11.20259 17.82964-10.69191 17.75319-10.18124 17.64163-9.36908 17.57816-8.86589 17.51468-8.3627 17.42267-7.56258 17.3721-7.06529 17.3215-6.56802 17.25125-5.77466 17.21353-5.28185 17.1758-4.78903 17.12527-4.00287 17.10011-3.51344 17.07495-3.02402 17.0446-2.24191 17.0321-1.75438 17.01962-1.26682 17.01007-.48537 17.01007 .00049 17.01007 .48637 17.01962 1.26115 17.0321 1.74762 17.0446 2.23409 17.07506 3.01706 17.10011 3.5067 17.12517 3.99634 17.175 4.78384 17.21274 5.27666 17.25049 5.76945 17.32153 6.56136 17.3721 7.05855 17.42264 7.55576 17.51367 8.35707 17.57712 8.86018 17.64056 9.36328 17.75287 10.17427 17.82938 10.68465 17.90588 11.19502 18.03899 12.01953 18.12862 12.5387 18.21825 13.05785 18.37215 13.89767 18.47534 14.42648 18.57854 14.9553 18.75536 15.81001 18.8724 16.35008 18.98949 16.89014 19.18796 17.76582 19.31906 18.31885 19.45016 18.87187 19.67177 19.76854 19.81734 20.33588 19.9629 20.90321 20.20793 21.82466 20.36832 22.40793 20.5287 22.99118 20.7977 23.93925 20.97328 24.53966 21.14885 25.14008 21.44241 26.11604 21.63376 26.73526 21.8251 27.35445 22.14476 28.36252 22.35239 29.00246 22.56 29.64241 22.90593 30.68512 23.13019 31.34753 23.35445 32.00995 23.72713 33.09052 23.9687 33.77669 24.21028 34.46288 24.61154 35.58131 24.87134 36.29306 25.13115 37.0048 25.5626 38.16658 25.8412 38.90648 26.11978 39.64638 26.58136 40.8562 26.87929 41.6258 27.17722 42.39536 27.67049 43.6518 27.98851 44.45305 28.30653 45.2543 28.83221 46.56563 29.17142 47.40073 29.5106 48.23586 30.07204 49.60085 30.43323 50.47195 30.79443 51.34308 31.39063 52.76932 31.77472 53.67918 32.15881 54.58905 32.7934 56.07918 33.20158 57.02965 33.60977 57.98013 34.28352 59.53578 34.7167 60.52962 35.14987 61.52345 35.86429 63.1525 36.32367 64.19257 36.78307 65.23264 37.54082 66.93723 38.02773 68.02574 38.51463 69.11429 39.3174 70.89777 39.83298 72.03802 40.34856 73.17825 41.19794 75.04868 41.7436 76.24387 42.28928 77.43909 43.18861 79.3991 43.76584 80.65219 44.34303 81.90529 45.9038 85.27538 45.11674 83.57584"/>
<path transform="matrix(.42023,.9074344,.90738,-.4202552,149.60877,190.7146)" d="M1.27522 0C-.31879 .31879-1.91284 .9564-3.8257 2.07224-1.91284 .6376-1.91284-.6376-3.8257-2.07224-1.91284-.9564-.31879-.31879 1.27522 0Z" fill="#0000ff"/>
<path transform="matrix(.42023,.9074344,.90738,-.4202552,149.60877,190.7146)" stroke-width="1.19553" stroke-linecap="butt" stroke-linejoin="round" fill="none" stroke="#0000ff" d="M1.27522 0C-.31879 .31879-1.91284 .9564-3.8257 2.07224-1.91284 .6376-1.91284-.6376-3.8257-2.07224-1.91284-.9564-.31879-.31879 1.27522 0Z"/>
<path transform="matrix(.42021,-.90745446,-.9074,-.4202352,149.60074,23.536812)" d="M1.27522 0C-.31879 .31879-1.91284 .9564-3.8257 2.07224-1.91284 .6376-1.91284-.6376-3.8257-2.07224-1.91284-.9564-.31879-.31879 1.27522 0Z" fill="#0000ff"/>
<path transform="matrix(.42021,-.90745446,-.9074,-.4202352,149.60074,23.536812)" stroke-width="1.19553" stroke-linecap="butt" stroke-linejoin="round" fill="none" stroke="#0000ff" d="M1.27522 0C-.31879 .31879-1.91284 .9564-3.8257 2.07224-1.91284 .6376-1.91284-.6376-3.8257-2.07224-1.91284-.9564-.31879-.31879 1.27522 0Z"/>
<path transform="matrix(1,0,0,-1.00006,104.48399,107.117649)" stroke-width="1.19553" stroke-linecap="butt" stroke-miterlimit="10" stroke-linejoin="miter" fill="none" stroke="#0000ff" d="M-45.12479-83.59195C-44.35065-81.92047-44.35065-81.92047-43.77336-80.66724-43.19606-79.41399-42.29698-77.45406-41.75113-76.25894-41.20529-75.06381-40.35492-73.1941-39.8392-72.05359-39.3235-70.91304-38.5211-69.12769-38.0342-68.03873-37.5473-66.94975-36.7894-65.24487-36.32991-64.20502-35.87039-63.16518-35.15569-61.53821-34.72241-60.54416-34.28912-59.5501-33.61526-57.99155-33.20705-57.04056-32.79881-56.08957-32.16444-54.5998-31.78017-53.69008-31.39589-52.78036-30.79874-51.3553-30.43738-50.4839-30.07605-49.6125-29.51509-48.24483-29.17583-47.40956-28.83656-46.57431-28.3103-45.26508-27.99214-44.46396-27.67397-43.66284-27.18066-42.40544-26.88266-41.63564-26.58466-40.86586-26.12286-39.65564-25.8443-38.91582-25.56575-38.176-25.13467-37.0154-24.87497-36.30344-24.61528-35.59148-24.21432-34.47087-23.9726-33.78448-23.7309-33.09808-23.35725-32.0187-23.13278-31.35637-22.90831-30.69402-22.56235-29.65079-22.35472-29.01077-22.1471-28.37076-21.82774-27.36282-21.63635-26.74356-21.44496-26.12428-21.15102-25.14807-20.97534-24.54747-20.79965-23.94684-20.5305-22.99792-20.37013-22.41467-20.20975-21.83142-19.96497-20.91093-19.81941-20.34366-19.67387-19.77638-19.4523-18.87927-19.32114-18.32611-19.18996-17.77296-18.99112-16.89702-18.87396-16.35684-18.7568-15.81664-18.57997-14.96138-18.47662-14.43271-18.37329-13.90402-18.21889-13.0655-18.12912-12.54648-18.03937-12.02747-17.90608-11.20259-17.82964-10.69191-17.75319-10.18124-17.64163-9.36908-17.57816-8.86589-17.51468-8.3627-17.42267-7.56258-17.3721-7.06529-17.3215-6.56802-17.25125-5.77466-17.21353-5.28185-17.1758-4.78903-17.12527-4.00287-17.10011-3.51344-17.07495-3.02402-17.0446-2.24191-17.0321-1.75438-17.01962-1.26682-17.01007-.48537-17.01007 .00049-17.01007 .48637-17.01962 1.26115-17.0321 1.74762-17.0446 2.23409-17.07506 3.01706-17.10011 3.5067-17.12517 3.99634-17.175 4.78384-17.21274 5.27666-17.25049 5.76945-17.32153 6.56136-17.3721 7.05855-17.42264 7.55576-17.51367 8.35707-17.57712 8.86018-17.64056 9.36328-17.75287 10.17427-17.82938 10.68465-17.90588 11.19502-18.03899 12.01953-18.12862 12.5387-18.21825 13.05785-18.37215 13.89767-18.47534 14.42648-18.57854 14.9553-18.75536 15.81001-18.8724 16.35008-18.98949 16.89014-19.18796 17.76582-19.31906 18.31885-19.45016 18.87187-19.67177 19.76854-19.81734 20.33588-19.9629 20.90321-20.20793 21.82466-20.36832 22.40793-20.5287 22.99118-20.7977 23.93925-20.97328 24.53966-21.14885 25.14008-21.44241 26.11604-21.63376 26.73526-21.8251 27.35445-22.14476 28.36252-22.35239 29.00246-22.56 29.64241-22.90593 30.68512-23.13019 31.34753-23.35445 32.00995-23.72713 33.09052-23.9687 33.77669-24.21028 34.46288-24.61154 35.58131-24.87134 36.29306-25.13115 37.0048-25.5626 38.16658-25.8412 38.90648-26.11978 39.64638-26.58136 40.8562-26.87929 41.6258-27.17722 42.39536-27.67049 43.6518-27.98851 44.45305-28.30653 45.2543-28.83221 46.56563-29.17142 47.40073-29.5106 48.23586-30.07204 49.60085-30.43323 50.47195-30.79443 51.34308-31.39063 52.76932-31.77472 53.67918-32.15881 54.58905-32.7934 56.07918-33.20158 57.02965-33.60977 57.98013-34.28352 59.53578-34.7167 60.52962-35.14987 61.52345-35.86429 63.1525-36.32367 64.19257-36.78307 65.23264-37.54082 66.93723-38.02773 68.02574-38.51463 69.11429-39.3174 70.89777-39.83298 72.03802-40.34856 73.17825-41.19794 75.04868-41.7436 76.24387-42.28928 77.43909-43.18861 79.3991-43.76584 80.65219-44.34303 81.90529-45.9038 85.27538-45.11674 83.57584"/>
<path transform="matrix(-.42023,.9074344,.90738,.4202552,59.359224,190.7146)" d="M1.27522 0C-.31879 .31879-1.91284 .9564-3.8257 2.07224-1.91284 .6376-1.91284-.6376-3.8257-2.07224-1.91284-.9564-.31879-.31879 1.27522 0Z" fill="#0000ff"/>
<path transform="matrix(-.42023,.9074344,.90738,.4202552,59.359224,190.7146)" stroke-width="1.19553" stroke-linecap="butt" stroke-linejoin="round" fill="none" stroke="#0000ff" d="M1.27522 0C-.31879 .31879-1.91284 .9564-3.8257 2.07224-1.91284 .6376-1.91284-.6376-3.8257-2.07224-1.91284-.9564-.31879-.31879 1.27522 0Z"/>
<path transform="matrix(-.42021,-.90745446,-.9074,.4202352,59.367254,23.536812)" d="M1.27522 0C-.31879 .31879-1.91284 .9564-3.8257 2.07224-1.91284 .6376-1.91284-.6376-3.8257-2.07224-1.91284-.9564-.31879-.31879 1.27522 0Z" fill="#0000ff"/>
<path transform="matrix(-.42021,-.90745446,-.9074,.4202352,59.367254,23.536812)" stroke-width="1.19553" stroke-linecap="butt" stroke-linejoin="round" fill="none" stroke="#0000ff" d="M1.27522 0C-.31879 .31879-1.91284 .9564-3.8257 2.07224-1.91284 .6376-1.91284-.6376-3.8257-2.07224-1.91284-.9564-.31879-.31879 1.27522 0Z"/>
<path transform="matrix(1,0,0,-1.00006,104.48399,107.117649)" d="M25.68921 99.38159-.82059 46.36107 11.72913 40.08633 38.23892 93.10686ZM11.72913 40.08633" fill="#ffffff"/>
<use data-text="4" xlink:href="#font_3_3" transform="matrix(4.4549758,-8.910686,-8.910151,-4.4552428,113.589588,63.489748)" fill="#00cc00"/>
<use data-text="x" xlink:href="#font_1_1" transform="matrix(4.4549758,-8.910686,-8.910151,-4.4552428,115.81737,59.033784)" fill="#00cc00"/>
<use data-text="2" xlink:href="#font_4_1" transform="matrix(3.1184743,-6.237462,-6.237088,-3.1186612,115.13045,52.324388)" fill="#00cc00"/>
<use data-text="&#x2212;" xlink:href="#font_2_1" transform="matrix(4.4549758,-8.910686,-8.910151,-4.4552428,121.352008,47.96364)" fill="#00cc00"/>
<use data-text="y" xlink:href="#font_1_2" transform="matrix(4.4549758,-8.910686,-8.910151,-4.4552428,125.80672,39.053483)" fill="#00cc00"/>
<use data-text="2" xlink:href="#font_4_1" transform="matrix(3.1184743,-6.237462,-6.237088,-3.1186612,124.91766,32.748338)" fill="#00cc00"/>
<use data-text="=" xlink:href="#font_3_6" transform="matrix(4.4549758,-8.910686,-8.910151,-4.4552428,131.38695,27.89209)" fill="#00cc00"/>
<use data-text="0" xlink:href="#font_3_1" transform="matrix(4.4549758,-8.910686,-8.910151,-4.4552428,136.08249,18.500229)" fill="#00cc00"/>
<path transform="matrix(1,0,0,-1.00006,104.48399,107.117649)" d="M.8206 46.36107-25.6892 99.38159-38.2389 93.10686-11.72911 40.08633ZM-38.2389 93.10686" fill="#ffffff"/>
<use data-text="4" xlink:href="#font_3_3" transform="matrix(4.4549758,8.910686,8.910151,-4.4552428,70.65087,14.030319)" fill="#00cc00"/>
<use data-text="x" xlink:href="#font_1_1" transform="matrix(4.4549758,8.910686,8.910151,-4.4552428,72.87867,18.486283)" fill="#00cc00"/>
<use data-text="2" xlink:href="#font_4_1" transform="matrix(3.1184743,6.237462,6.237088,-3.1186612,78.65797,21.962464)" fill="#00cc00"/>
<use data-text="&#x2212;" xlink:href="#font_2_1" transform="matrix(4.4549758,8.910686,8.910151,-4.4552428,78.41329,29.556427)" fill="#00cc00"/>
<use data-text="y" xlink:href="#font_1_2" transform="matrix(4.4549758,8.910686,8.910151,-4.4552428,82.868007,38.466585)" fill="#00cc00"/>
<use data-text="2" xlink:href="#font_4_1" transform="matrix(3.1184743,6.237462,6.237088,-3.1186612,88.445178,41.538484)" fill="#00cc00"/>
<use data-text="=" xlink:href="#font_3_6" transform="matrix(4.4549758,8.910686,8.910151,-4.4552428,88.448238,49.627977)" fill="#00cc00"/>
<use data-text="0" xlink:href="#font_3_1" transform="matrix(4.4549758,8.910686,8.910151,-4.4552428,93.14378,59.019838)" fill="#00cc00"/>
<path transform="matrix(1,0,0,-1.00006,104.48399,107.117649)" d="M41.99963 10.9885H104.27142V23.02797H41.99963Z" fill="#ffffff"/>
<use data-text="4" xlink:href="#font_3_3" transform="matrix(9.9626,0,0,-9.963197,147.48,93.19481)" fill="#ff0000"/>
<use data-text="x" xlink:href="#font_1_1" transform="matrix(9.9626,0,0,-9.963197,152.46199,93.19481)" fill="#ff0000"/>
<use data-text="2" xlink:href="#font_4_1" transform="matrix(6.9738,0,0,-6.9742186,158.15599,89.57959)" fill="#ff0000"/>
<use data-text="&#x2212;" xlink:href="#font_2_1" transform="matrix(9.9626,0,0,-9.963197,164.83899,93.19481)" fill="#ff0000"/>
<use data-text="y" xlink:href="#font_1_2" transform="matrix(9.9626,0,0,-9.963197,174.801,93.19481)" fill="#ff0000"/>
<use data-text="2" xlink:href="#font_4_1" transform="matrix(6.9738,0,0,-6.9742186,180.043,89.57959)" fill="#ff0000"/>
<use data-text="=" xlink:href="#font_3_6" transform="matrix(9.9626,0,0,-9.963197,187.28,93.19481)" fill="#ff0000"/>
<use data-text="1" xlink:href="#font_3_2" transform="matrix(9.9626,0,0,-9.963197,197.78058,93.19481)" fill="#ff0000"/>
<use data-text="6" xlink:href="#font_3_5" transform="matrix(9.9626,0,0,-9.963197,202.76187,93.19481)" fill="#ff0000"/>
<path transform="matrix(1,0,0,-1.00006,104.48399,107.117649)" d="M-104.27144 10.9885H-41.99965V23.02797H-104.27144Z" fill="#ffffff"/>
<use data-text="4" xlink:href="#font_3_3" transform="matrix(9.9626,0,0,-9.963197,1.2089996,93.19481)" fill="#ff0000"/>
<use data-text="x" xlink:href="#font_1_1" transform="matrix(9.9626,0,0,-9.963197,6.1909945,93.19481)" fill="#ff0000"/>
<use data-text="2" xlink:href="#font_4_1" transform="matrix(6.9738,0,0,-6.9742186,11.8849949,89.57959)" fill="#ff0000"/>
<use data-text="&#x2212;" xlink:href="#font_2_1" transform="matrix(9.9626,0,0,-9.963197,18.567994,93.19481)" fill="#ff0000"/>
<use data-text="y" xlink:href="#font_1_2" transform="matrix(9.9626,0,0,-9.963197,28.529999,93.19481)" fill="#ff0000"/>
<use data-text="2" xlink:href="#font_4_1" transform="matrix(6.9738,0,0,-6.9742186,33.772005,89.57959)" fill="#ff0000"/>
<use data-text="=" xlink:href="#font_3_6" transform="matrix(9.9626,0,0,-9.963197,41.009004,93.19481)" fill="#ff0000"/>
<use data-text="1" xlink:href="#font_3_2" transform="matrix(9.9626,0,0,-9.963197,51.509584,93.19481)" fill="#ff0000"/>
<use data-text="6" xlink:href="#font_3_5" transform="matrix(9.9626,0,0,-9.963197,56.490877,93.19481)" fill="#ff0000"/>
<path transform="matrix(1,0,0,-1.00006,104.48399,107.117649)" d="M-28.6452-87.65942H28.6452V-75.61995H-28.6452Z" fill="#ffffff"/>
<use data-text="4" xlink:href="#font_3_3" transform="matrix(9.9626,0,0,-9.963197,76.83499,191.84873)" fill="#0000ff"/>
<use data-text="x" xlink:href="#font_1_1" transform="matrix(9.9626,0,0,-9.963197,81.816989,191.84873)" fill="#0000ff"/>
<use data-text="2" xlink:href="#font_4_1" transform="matrix(6.9738,0,0,-6.9742186,87.51099,188.2335)" fill="#0000ff"/>
<use data-text="&#x2212;" xlink:href="#font_2_1" transform="matrix(9.9626,0,0,-9.963197,94.193988,191.84873)" fill="#0000ff"/>
<use data-text="y" xlink:href="#font_1_2" transform="matrix(9.9626,0,0,-9.963197,104.15599,191.84873)" fill="#0000ff"/>
<use data-text="2" xlink:href="#font_4_1" transform="matrix(6.9738,0,0,-6.9742186,109.397998,188.2335)" fill="#0000ff"/>
<use data-text="=" xlink:href="#font_3_6" transform="matrix(9.9626,0,0,-9.963197,116.634998,191.84873)" fill="#0000ff"/>
<use data-text="4" xlink:href="#font_3_3" transform="matrix(9.9626,0,0,-9.963197,127.135578,191.84873)" fill="#0000ff"/>
<path transform="matrix(1,0,0,-1.00006,104.48399,107.117649)" stroke-width=".3985" stroke-linecap="butt" stroke-miterlimit="10" stroke-linejoin="miter" fill="none" stroke="#0000ff" d="M-3.40158-73.13554C-3.40158-45.62012 .15106-27.2307-13.10852-4.26436"/>
<path transform="matrix(-.49998,-.8660619,-.86601,.50000998,91.375499,111.38226)" d="M.797 0C-.19925 .19925-1.19551 .59775-2.39102 1.29512-1.19551 .3985-1.19551-.3985-2.39102-1.29512-1.19551-.59775-.19925-.19925 .797 0Z" fill="#0000ff"/>
<path transform="matrix(-.49998,-.8660619,-.86601,.50000998,91.375499,111.38226)" stroke-width=".3985" stroke-linecap="butt" stroke-linejoin="round" fill="none" stroke="#0000ff" d="M.797 0C-.19925 .19925-1.19551 .59775-2.39102 1.29512-1.19551 .3985-1.19551-.3985-2.39102-1.29512-1.19551-.59775-.19925-.19925 .797 0Z"/>
<path transform="matrix(1,0,0,-1.00006,104.48399,107.117649)" stroke-width=".3985" stroke-linecap="butt" stroke-miterlimit="10" stroke-linejoin="miter" fill="none" stroke="#0000ff" d="M3.40158-73.13554C3.40158-45.62012-4.08002-24.47942 12.96626-4.16475"/>
<path transform="matrix(.64278,-.76606598,-.76602,-.64281859,117.45026,111.282649)" d="M.797 0C-.19925 .19925-1.19551 .59775-2.39102 1.29512-1.19551 .3985-1.19551-.3985-2.39102-1.29512-1.19551-.59775-.19925-.19925 .797 0Z" fill="#0000ff"/>
<path transform="matrix(.64278,-.76606598,-.76602,-.64281859,117.45026,111.282649)" stroke-width=".3985" stroke-linecap="butt" stroke-linejoin="round" fill="none" stroke="#0000ff" d="M.797 0C-.19925 .19925-1.19551 .59775-2.39102 1.29512-1.19551 .3985-1.19551-.3985-2.39102-1.29512-1.19551-.59775-.19925-.19925 .797 0Z"/>
</svg>
