<svg xmlns="http://www.w3.org/2000/svg" xmlns:xlink="http://www.w3.org/1999/xlink" version="1.1" width="168" height="164" viewBox="0 0 168 164">
<defs>
<path id="font_1_2" d="M.46199037 .33935548C.46699525 .36135865 .47698976 .3983612 .47698976 .40437318 .47698976 .42237855 .46299745 .43138124 .44799806 .43138124 .43598939 .43138124 .41799928 .42337037 .41099549 .4033661 .4079895 .3963623 .36099244 .205307 .35398866 .17930603 .34700013 .14929199 .34498597 .13128662 .34498597 .11328125 .34498597 .10227966 .34498597 .10028076 .34599305 .09527588 .32299806 .042266847 .29299928 .011245728 .2539978 .011245728 .17399597 .011245728 .17399597 .08526611 .17399597 .10227966 .17399597 .1342926 .1789856 .17329407 .22599793 .29634095 .23699951 .32633973 .24299622 .3403473 .24299622 .36035157 .24299622 .405365 .20999146 .4423828 .16099549 .4423828 .06599426 .4423828 .0289917 .29733277 .0289917 .28833009 .0289917 .27833558 .038986207 .27833558 .040985109 .27833558 .050994874 .27833558 .051986696 .28033448 .056991579 .29634095 .083999637 .38935853 .12298584 .42037965 .1579895 .42037965 .16699219 .42037965 .18299866 .41937257 .18299866 .38735963 .18299866 .36235047 .17199707 .3343506 .16499329 .31733705 .12098694 .1993103 .10899353 .1532898 .10899353 .11528015 .10899353 .024261475 .17599488-.0107421879 .25099183-.0107421879 .2679901-.0107421879 .31498719-.0107421879 .35499574 .059265138 .3809967-.0047454836 .44999696-.0107421879 .47999574-.0107421879 .5549927-.0107421879 .598999 .052261354 .625 .11227417 .6589966 .19030762 .69099429 .32434083 .69099429 .37236024 .69099429 .42736817 .6639862 .4423828 .6469879 .4423828 .621994 .4423828 .5970001 .41636659 .5970001 .3943634 .5970001 .38136292 .6029968 .3753662 .6119995 .36735536 .6230011 .35635377 .647995 .33035279 .647995 .28233338 .647995 .24832154 .61898806 .15029907 .59298709 .09927368 .5669861 .04626465 .5319977 .011245728 .48298646 .011245728 .43598939 .011245728 .40899659 .041259767 .40899659 .09828186 .40899659 .12628174 .41600038 .1572876 .41999818 .17129517L.46199037 .33935548Z"/>
<path id="font_1_1" d="M.7630005 .60565188C.7719879 .6416168 .7739868 .6516113 .8470001 .6516113 .8730011 .6516113 .8809967 .6516113 .8809967 .6716156 .8809967 .6826172 .8699951 .6826172 .86698916 .6826172 .83898928 .6826172 .7669983 .6796112 .7389984 .6796112 .70999148 .6796112 .6389923 .6826172 .6100006 .6826172 .60198977 .6826172 .59098818 .6826172 .59098818 .6626129 .59098818 .6516113 .59999087 .6516113 .61898806 .6516113 .62098696 .6516113 .6399994 .6516113 .6569977 .6496124 .6749878 .6476135 .6839905 .6466217 .6839905 .6336212 .6839905 .6296234 .68299868 .6276245 .6799927 .6146393L.6199951 .37083436H.31498719L.37399293 .60565188C.3829956 .6416168 .38598634 .6516113 .45799256 .6516113 .48399354 .6516113 .49198915 .6516113 .49198915 .6716156 .49198915 .6826172 .48098756 .6826172 .47799684 .6826172 .44999696 .6826172 .37799073 .6796112 .34999085 .6796112 .32099916 .6796112 .25 .6826172 .22099304 .6826172 .21299744 .6826172 .20199585 .6826172 .20199585 .6626129 .20199585 .6516113 .21099854 .6516113 .22999573 .6516113 .23199463 .6516113 .25099183 .6516113 .2679901 .6496124 .28599549 .6476135 .29499818 .6466217 .29499818 .6336212 .29499818 .6296234 .2939911 .6266327 .29100038 .6146393L.15699768 .07797241C.14698792 .038986207 .14498902 .0309906 .06599426 .0309906 .04798889 .0309906 .038986207 .0309906 .038986207 .010986328 .038986207 0 .050994874 0 .052993776 0 .08099365 0 .1519928 .0029907227 .17999268 .0029907227 .20098877 .0029907227 .22299195 .0019989014 .24398804 .0019989014 .2659912 .0019989014 .28799439 0 .30899049 0 .31698609 0 .32899476 0 .32899476 .019989014 .32899476 .0309906 .31999208 .0309906 .30099488 .0309906 .2639923 .0309906 .23599243 .0309906 .23599243 .048980714 .23599243 .054977418 .23799134 .0599823 .23899842 .065979007L.30699159 .33984376H.6119995C.56999209 .17391968 .5469971 .07896423 .54299929 .0639801 .5329895 .03199768 .5139923 .0309906 .45199586 .0309906 .43699647 .0309906 .42799378 .0309906 .42799378 .010986328 .42799378 0 .43998719 0 .44198609 0 .46998597 0 .54100039 .0029907227 .56900027 .0029907227 .58999636 .0029907227 .6119995 .0019989014 .6329956 .0019989014 .6549988 .0019989014 .6769867 0 .69799807 0 .70599368 0 .71798709 0 .71798709 .019989014 .71798709 .0309906 .70899966 .0309906 .6899872 .0309906 .6529999 .0309906 .625 .0309906 .625 .048980714 .625 .054977418 .6269989 .0599823 .6279907 .065979007L.7630005 .60565188Z"/>
<path id="font_2_1" d="M.2939911 .64004519C.2939911 .66400149 .2939911 .6660156 .2709961 .6660156 .20899964 .60227969 .12098694 .60227969 .08898926 .60227969V.57128909C.10899353 .57128909 .16799927 .57128909 .21998596 .5972748V.07902527C.21998596 .042999269 .21699524 .0309906 .1269989 .0309906H.09498596V0C.12998963 .0029907227 .21699524 .0029907227 .25698854 .0029907227 .29699708 .0029907227 .38398744 .0029907227 .4189911 0V.0309906H.3869934C.29699708 .0309906 .2939911 .041992189 .2939911 .07902527V.64004519Z"/>
<path id="font_2_2" d="M.1269989 .07699585 .23298645 .18003845C.3889923 .31811524 .44898988 .3721466 .44898988 .47216798 .44898988 .5860901 .35899354 .6660156 .23699951 .6660156 .12399292 .6660156 .049987794 .57411196 .049987794 .48516847 .049987794 .4291687 .099990848 .4291687 .102996829 .4291687 .11999512 .4291687 .15499878 .44117738 .15499878 .48217774 .15499878 .5081787 .13699341 .5341797 .101989749 .5341797 .09399414 .5341797 .09199524 .5341797 .08898926 .5331726 .11199951 .59806826 .1659851 .63500979 .22399903 .63500979 .31498719 .63500979 .35798646 .5541382 .35798646 .47216798 .35798646 .39215089 .30799867 .31311036 .25299073 .25108338L.06098938 .036987306C.049987794 .025985718 .049987794 .023986817 .049987794 0H.42099L.44898988 .17404175H.42399598C.4189911 .14402771 .4119873 .1000061 .4019928 .084991458 .394989 .07699585 .32899476 .07699585 .30699159 .07699585H.1269989Z"/>
<path id="font_2_3" d="M.2939911 .16503906V.07800293C.2939911 .041992189 .2919922 .0309906 .21798706 .0309906H.19699097V0C.23799134 .0029907227 .2899933 .0029907227 .33198548 .0029907227 .37399293 .0029907227 .4269867 .0029907227 .46798707 0V.0309906H.44699098C.37298585 .0309906 .37098695 .041992189 .37098695 .07800293V.16503906H.47099305V.19602967H.37098695V.65075686C.37098695 .67074587 .37098695 .6767578 .35499574 .6767578 .34599305 .6767578 .34298707 .6767578 .33499146 .66474917L.027999878 .19602967V.16503906H.2939911M.2999878 .19602967H.055999757L.2999878 .5688019V.19602967Z"/>
</defs>
<path transform="matrix(1.00006,0,0,-1.00006,17.551217,149.84526)" stroke-width=".3985" stroke-linecap="butt" stroke-miterlimit="10" stroke-linejoin="miter" fill="none" stroke="#00aeef" d="M0 0H127.56062M0 21.2601H127.56062M0 42.5202H127.56062M0 63.7803H127.56062M0 85.04042H127.56062M0 106.30052H127.56062M0 127.55316H127.56062M0 0V127.56062M21.2601 0V127.56062M42.5202 0V127.56062M63.7803 0V127.56062M85.04042 0V127.56062M106.30052 0V127.56062M127.55316 0V127.56062M127.56062 127.56062"/>
<path transform="matrix(1.00006,0,0,-1.00006,17.551217,149.84526)" stroke-width="1.19553" stroke-linecap="butt" stroke-miterlimit="10" stroke-linejoin="miter" fill="none" stroke="#000000" d="M0 0H136.31769"/>
<path transform="matrix(1.00006,0,0,-1.00006,153.87708,149.84526)" d="M1.27522 0C-.31879 .31879-1.91284 .9564-3.8257 2.07224-1.91284 .6376-1.91284-.6376-3.8257-2.07224-1.91284-.9564-.31879-.31879 1.27522 0Z"/>
<path transform="matrix(1.00006,0,0,-1.00006,153.87708,149.84526)" stroke-width="1.19553" stroke-linecap="butt" stroke-linejoin="round" fill="none" stroke="#000000" d="M1.27522 0C-.31879 .31879-1.91284 .9564-3.8257 2.07224-1.91284 .6376-1.91284-.6376-3.8257-2.07224-1.91284-.9564-.31879-.31879 1.27522 0Z"/>
<use data-text="w" xlink:href="#font_1_2" transform="matrix(9.963197,0,0,-9.963197,159.66873,151.99039)"/>
<path transform="matrix(1.00006,0,0,-1.00006,17.551217,149.84526)" stroke-width="1.19553" stroke-linecap="butt" stroke-miterlimit="10" stroke-linejoin="miter" fill="none" stroke="#000000" d="M0 0V136.31769"/>
<path transform="matrix(0,-1.00006,-1.00006,-0,17.551217,13.519394)" d="M1.27522 0C-.31879 .31879-1.91284 .9564-3.8257 2.07224-1.91284 .6376-1.91284-.6376-3.8257-2.07224-1.91284-.9564-.31879-.31879 1.27522 0Z"/>
<path transform="matrix(0,-1.00006,-1.00006,-0,17.551217,13.519394)" stroke-width="1.19553" stroke-linecap="butt" stroke-linejoin="round" fill="none" stroke="#000000" d="M1.27522 0C-.31879 .31879-1.91284 .9564-3.8257 2.07224-1.91284 .6376-1.91284-.6376-3.8257-2.07224-1.91284-.9564-.31879-.31879 1.27522 0Z"/>
<use data-text="H" xlink:href="#font_1_1" transform="matrix(9.963197,0,0,-9.963197,13.005943,7.7277529)"/>
<path transform="matrix(1.00006,0,0,-1.00006,17.551217,149.84526)" stroke-width=".3985" stroke-linecap="butt" stroke-miterlimit="10" stroke-linejoin="miter" fill="none" stroke="#000000" d="M63.7803 3.18887V-3.1892"/>
<path transform="matrix(1.00006,0,0,-1.00006,17.551217,149.84526)" d="M57.80263-13.79399H69.75797V-5.38101H57.80263Z" fill="#ffffff"/>
<use data-text="1" xlink:href="#font_2_1" transform="matrix(9.963197,0,0,-9.963197,76.353748,162.64403)"/>
<use data-text="2" xlink:href="#font_2_2" transform="matrix(9.963197,0,0,-9.963197,81.33534,162.64403)"/>
<path transform="matrix(1.00006,0,0,-1.00006,17.551217,149.84526)" stroke-width=".3985" stroke-linecap="butt" stroke-miterlimit="10" stroke-linejoin="miter" fill="none" stroke="#000000" d="M3.18887 63.7803H-3.1892"/>
<path transform="matrix(1.00006,0,0,-1.00006,17.551217,149.84526)" d="M-17.33636 59.5738H-5.3810207V67.98678H-17.33636Z" fill="#ffffff"/>
<use data-text="1" xlink:href="#font_2_1" transform="matrix(9.963197,0,0,-9.963197,1.2102356,89.27163)"/>
<use data-text="2" xlink:href="#font_2_2" transform="matrix(9.963197,0,0,-9.963197,6.1918337,89.27163)"/>
<path transform="matrix(1.00006,0,0,-1.00006,17.551217,149.84526)" stroke-width=".3985" stroke-linecap="butt" stroke-miterlimit="10" stroke-linejoin="miter" fill="none" stroke="#000000" d="M127.56062 3.18887V-3.1892"/>
<path transform="matrix(1.00006,0,0,-1.00006,17.551217,149.84526)" d="M121.58295-13.79399H133.53829V-5.38101H121.58295Z" fill="#ffffff"/>
<use data-text="2" xlink:href="#font_2_2" transform="matrix(9.963197,0,0,-9.963197,140.13758,162.64403)"/>
<use data-text="4" xlink:href="#font_2_3" transform="matrix(9.963197,0,0,-9.963197,145.11917,162.64403)"/>
<path transform="matrix(1.00006,0,0,-1.00006,17.551217,149.84526)" stroke-width=".3985" stroke-linecap="butt" stroke-miterlimit="10" stroke-linejoin="miter" fill="none" stroke="#000000" d="M3.18887 127.56062H-3.1892"/>
<path transform="matrix(1.00006,0,0,-1.00006,17.551217,149.84526)" d="M-17.33636 123.35414H-5.3810207V131.76712H-17.33636Z" fill="#ffffff"/>
<use data-text="2" xlink:href="#font_2_2" transform="matrix(9.963197,0,0,-9.963197,1.2102356,25.487809)"/>
<use data-text="4" xlink:href="#font_2_3" transform="matrix(9.963197,0,0,-9.963197,6.1918337,25.487809)"/>
<path transform="matrix(1.00006,0,0,-1.00006,17.551217,149.84526)" stroke-width="1.19553" stroke-linecap="butt" stroke-miterlimit="10" stroke-linejoin="miter" fill="none" stroke="#d73589" d="M10.80368 125.69579C11.95009 113.38576 11.95009 113.38576 12.45708 108.85844 12.96407 104.33112 13.77713 98.35738 14.28412 94.93083 14.7911 91.50429 15.60417 86.846 16.11116 84.16225 16.61816 81.4785 17.4312 77.74713 17.93819 75.58827 18.44518 73.4294 19.25824 70.37746 19.76524 68.60257 20.27223 66.82768 21.08528 64.28104 21.59227 62.79607 22.09926 61.3111 22.91232 59.16057 23.41933 57.89984 23.92632 56.63911 24.73938 54.79387 25.24635 53.70952 25.75334 52.62518 26.5664 51.0271 27.07341 50.08464 27.5804 49.14217 28.39346 47.74336 28.90044 46.91684 29.40742 46.09032 30.22049 44.85799 30.72748 44.12761 31.23447 43.39723 32.04753 42.3035 32.55452 41.65274 33.06151 41.002 33.87457 40.02084 34.38156 39.4374 34.88855 38.85393 35.70161 37.97311 36.2086 37.4475 36.71559 36.92188 37.52866 36.12508 38.03564 35.64902 38.54263 35.17293 39.3557 34.44958 39.86269 34.01628 40.36967 33.58298 41.18272 32.92213 41.68971 32.52597 42.1967 32.12979 43.00977 31.52492 43.51677 31.16089 44.02376 30.79684 44.8368 30.2373 45.3438 29.9022 45.85078 29.5671 46.66385 29.05484 47.17085 28.7457 47.67784 28.43657 48.4909 27.96104 48.99788 27.6742 49.50487 27.38734 50.31793 26.94476 50.82494 26.67828 51.33192 26.41177 52.14499 26.00153 52.65196 25.75339 53.15895 25.50525 53.97202 25.12172 54.479 24.88985 54.986 24.65794 55.79906 24.29915 56.30603 24.08208 56.81303 23.865 57.6261 23.52878 58.13309 23.32524 58.64008 23.12172 59.45314 22.80655 59.96013 22.61513 60.46712 22.4237 61.28018 22.1259 61.78717 21.94556 62.29416 21.7652 63.10722 21.48518 63.61421 21.31523 64.1212 21.14528 64.93427 20.8812 65.44125 20.72061 65.94824 20.56001 66.76129 20.30975 67.2683 20.15778 67.77528 20.00577 68.58833 19.76917 69.09532 19.62509 69.60231 19.48102 70.41537 19.25623 70.92238 19.11935 71.42937 18.98247 72.24242 18.76862 72.7494 18.6386 73.2564 18.50856 74.06946 18.30574 74.57646 18.18214 75.08345 18.05856 75.89651 17.86552 76.40349 17.74777 76.91048 17.63004 77.72354 17.44589 78.23055 17.3335 78.73753 17.22112 79.55058 17.04507 80.05756 16.93773 80.56456 16.8304 81.37762 16.66243 81.88461 16.55981 82.3916 16.4572 83.20467 16.29631 83.71165 16.19809 84.21864 16.09988 85.03171 15.94592 85.5387 15.85196 86.04568 15.75798 86.85875 15.61086 87.36574 15.52074 87.87273 15.43063 88.68579 15.289 89.19278 15.2025 89.69977 15.11598 90.51282 14.98022 91.01982 14.89723 91.52681 14.81424 92.33986 14.684 92.84685 14.60431 93.35384 14.5246 94.1669 14.39946 94.6739 14.32272 95.1809 14.24599 95.99394 14.12502 96.50093 14.0512 97.00792 13.97739 97.82098 13.86186 98.32799 13.7907 98.83498 13.71953 99.64804 13.6069 100.15501 13.53831 100.662 13.46973 101.47507 13.36238 101.98207 13.29631 102.48906 13.23022 103.30211 13.1259 103.80908 13.06207 104.31609 12.99828 105.12915 12.89792 105.63614 12.8363 106.14313 12.77469 106.95619 12.67757 107.46317 12.61797 107.97017 12.5584 108.78323 12.46432 109.29022 12.4068 109.79721 12.34927 110.61028 12.25902 111.11726 12.2034 111.62425 12.14777 112.43732 12.05975 112.9443 12.00583 113.4513 11.9519 114.26436 11.86691 114.77135 11.81476 115.27834 11.76259 116.09138 11.68053 116.59837 11.62984 117.10536 11.57916 117.91843 11.49861 118.42543 11.44948 118.93242 11.40033 119.74547 11.32307 120.25246 11.2756 120.75945 11.22813 121.57251 11.15332 122.07951 11.10722 122.5865 11.06114 123.39955 10.98817 123.90654 10.9434 124.41353 10.89862 125.2266 10.82794 125.7336 10.78445 126.24059 10.74098 127.56062 10.63004 125.6943 10.78679"/>
<path transform="matrix(-.09271556,-.9957097,-.9957097,.09271556,28.355565,24.14193)" d="M1.27522 0C-.31879 .31879-1.91284 .9564-3.8257 2.07224-1.91284 .6376-1.91284-.6376-3.8257-2.07224-1.91284-.9564-.31879-.31879 1.27522 0Z" fill="#d73589"/>
<path transform="matrix(-.09271556,-.9957097,-.9957097,.09271556,28.355565,24.14193)" stroke-width="1.19553" stroke-linecap="butt" stroke-linejoin="round" fill="none" stroke="#d73589" d="M1.27522 0C-.31879 .31879-1.91284 .9564-3.8257 2.07224-1.91284 .6376-1.91284-.6376-3.8257-2.07224-1.91284-.9564-.31879-.31879 1.27522 0Z"/>
<path transform="matrix(.9964997,.08370502,.08370502,-.9964997,143.25305,139.05782)" d="M1.27522 0C-.31879 .31879-1.91284 .9564-3.8257 2.07224-1.91284 .6376-1.91284-.6376-3.8257-2.07224-1.91284-.9564-.31879-.31879 1.27522 0Z" fill="#d73589"/>
<path transform="matrix(.9964997,.08370502,.08370502,-.9964997,143.25305,139.05782)" stroke-width="1.19553" stroke-linecap="butt" stroke-linejoin="round" fill="none" stroke="#d73589" d="M1.27522 0C-.31879 .31879-1.91284 .9564-3.8257 2.07224-1.91284 .6376-1.91284-.6376-3.8257-2.07224-1.91284-.9564-.31879-.31879 1.27522 0Z"/>
</svg>
