<svg xmlns="http://www.w3.org/2000/svg" xmlns:xlink="http://www.w3.org/1999/xlink" version="1.1" width="244" height="139" viewBox="0 0 244 139">
<defs>
<path id="font_1_1" d="M.33399964 .30233766C.33999635 .32835389 .36299134 .42037965 .43299867 .42037965 .43798829 .42037965 .46199037 .42037965 .48298646 .40734864 .45498658 .402359 .43499757 .37734986 .43499757 .35334779 .43499757 .33735658 .44599916 .31835938 .47299195 .31835938 .49499513 .31835938 .5269928 .3363495 .5269928 .37635804 .5269928 .42837525 .46798707 .4423828 .43399049 .4423828 .37599183 .4423828 .34098817 .38935853 .32899476 .36634828 .3039856 .43237306 .25 .4423828 .22099304 .4423828 .116989139 .4423828 .05999756 .3133545 .05999756 .28834535 .05999756 .27833558 .069992069 .27833558 .07199097 .27833558 .07998657 .27833558 .08299255 .28033448 .084991458 .28933717 .11898804 .39535523 .18499756 .42037965 .21899414 .42037965 .23799134 .42037965 .272995 .4113617 .272995 .35334779 .272995 .32235719 .2559967 .25532533 .21899414 .11528015 .20298767 .053268434 .16799927 .011245728 .12399292 .011245728 .117996219 .011245728 .09498596 .011245728 .07398987 .024276734 .09899902 .029266358 .12098694 .05027771 .12098694 .07827759 .12098694 .105270389 .09899902 .11328125 .083999637 .11328125 .053985597 .11328125 .0289917 .08728027 .0289917 .055267335 .0289917 .009246826 .07899475-.0107421879 .12298584-.0107421879 .18899536-.0107421879 .22499085 .059280397 .22799683 .0652771 .23999024 .028274537 .27598573-.0107421879 .33599855-.0107421879 .43899537-.0107421879 .49598695 .118270877 .49598695 .14328003 .49598695 .1532898 .4869995 .1532898 .48399354 .1532898 .47499085 .1532898 .47299195 .14929199 .47099305 .14228821 .43798829 .03527832 .36999513 .011245728 .33799745 .011245728 .29899598 .011245728 .2829895 .043273927 .2829895 .07727051 .2829895 .09927368 .2889862 .121276859 .2999878 .16529846L.33399964 .30233766Z"/>
<path id="font_1_2" d="M.48599244 .38136292C.48999024 .39537049 .48999024 .39736939 .48999024 .40437318 .48999024 .42237855 .47599793 .43138124 .46099855 .43138124 .45098878 .43138124 .43499757 .42536927 .42599488 .41036988 .42399598 .405365 .41600038 .37435914 .4119873 .35635377 .40499879 .33035279 .397995 .30334474 .3919983 .27633668L.34700013 .09628296C.34298707 .08126831 .2999878 .011245728 .23399353 .011245728 .18299866 .011245728 .17199707 .055267335 .17199707 .0922699 .17199707 .1382904 .18899536 .20030213 .22299195 .28833009 .23899842 .3293457 .24299622 .3403473 .24299622 .36035157 .24299622 .405365 .21099854 .4423828 .16099549 .4423828 .06599426 .4423828 .0289917 .29733277 .0289917 .28833009 .0289917 .27833558 .038986207 .27833558 .040985109 .27833558 .050994874 .27833558 .051986696 .28033448 .056991579 .29634095 .083999637 .3903656 .12399292 .42037965 .1579895 .42037965 .1659851 .42037965 .18299866 .42037965 .18299866 .3883667 .18299866 .36335755 .17298889 .3373413 .1659851 .31834413 .12599182 .21231079 .10798645 .1552887 .10798645 .10827637 .10798645 .019256592 .17098999-.0107421879 .22999573-.0107421879 .2689972-.0107421879 .30299378 .0062561037 .33099366 .03425598 .31799317-.017745972 .30599977-.06674194 .2659912-.11973572 .23999024-.15385437 .20199585-.18309021 .1559906-.18309021 .14199829-.18309021 .09700012-.18005371 .07998657-.14074707 .09599304-.14074707 .10899353-.14074707 .12298584-.1287384 .1329956-.11973572 .14299011-.10673523 .14299011-.08773804 .14299011-.056747438 .115997318-.052734376 .10598755-.052734376 .08299255-.052734376 .049987794-.068740848 .049987794-.11773682 .049987794-.16796875 .09399414-.20507813 .1559906-.20507813 .25898744-.20507813 .3619995-.11373901 .3899994-.00074768069L.48599244 .38136292Z"/>
<path id="font_2_2" d="M.2939911 .64004519C.2939911 .66400149 .2939911 .6660156 .2709961 .6660156 .20899964 .60227969 .12098694 .60227969 .08898926 .60227969V.57128909C.10899353 .57128909 .16799927 .57128909 .21998596 .5972748V.07902527C.21998596 .042999269 .21699524 .0309906 .1269989 .0309906H.09498596V0C.12998963 .0029907227 .21699524 .0029907227 .25698854 .0029907227 .29699708 .0029907227 .38398744 .0029907227 .4189911 0V.0309906H.3869934C.29699708 .0309906 .2939911 .041992189 .2939911 .07902527V.64004519Z"/>
<path id="font_2_1" d="M.45999146 .31976319C.45999146 .39982606 .45498658 .47988893 .41999818 .5539398 .37399293 .65000918 .2919922 .6660156 .25 .6660156 .18998719 .6660156 .116989139 .64001467 .07598877 .54693606 .04399109 .47789 .038986207 .39982606 .038986207 .31976319 .038986207 .24472046 .042999269 .15464783 .083999637 .07859802 .1269989-.0024719239 .19999695-.022460938 .24899292-.022460938 .30299378-.022460938 .3789978-.0014648438 .4229889 .09359741 .45498658 .16265869 .45999146 .2407074 .45999146 .31976319M.24899292-.00047302247C.20999146-.00047302247 .15098572 .024551392 .1329956 .12062073 .12199402 .18066406 .12199402 .2727356 .12199402 .3317871 .12199402 .39582826 .12199402 .46188355 .12998963 .5159149 .14898682 .63500979 .22399903 .64401248 .24899292 .64401248 .28199769 .64401248 .34799195 .6259918 .36698915 .52693179 .3769989 .47088624 .3769989 .39482118 .3769989 .3317871 .3769989 .25672914 .3769989 .18867493 .3659973 .12461853 .35099793 .029556275 .2939911-.00047302247 .24899292-.00047302247Z"/>
<path id="font_2_3" d="M.1269989 .07699585 .23298645 .18003845C.3889923 .31811524 .44898988 .3721466 .44898988 .47216798 .44898988 .5860901 .35899354 .6660156 .23699951 .6660156 .12399292 .6660156 .049987794 .57411196 .049987794 .48516847 .049987794 .4291687 .099990848 .4291687 .102996829 .4291687 .11999512 .4291687 .15499878 .44117738 .15499878 .48217774 .15499878 .5081787 .13699341 .5341797 .101989749 .5341797 .09399414 .5341797 .09199524 .5341797 .08898926 .5331726 .11199951 .59806826 .1659851 .63500979 .22399903 .63500979 .31498719 .63500979 .35798646 .5541382 .35798646 .47216798 .35798646 .39215089 .30799867 .31311036 .25299073 .25108338L.06098938 .036987306C.049987794 .025985718 .049987794 .023986817 .049987794 0H.42099L.44898988 .17404175H.42399598C.4189911 .14402771 .4119873 .1000061 .4019928 .084991458 .394989 .07699585 .32899476 .07699585 .30699159 .07699585H.1269989Z"/>
<path id="font_2_4" d="M.44898988 .20022583C.44898988 .3193512 .36698915 .41944886 .25898744 .41944886 .21099854 .41944886 .16799927 .40345765 .13198853 .36842347V.5637665C.1519928 .5577698 .18499756 .55078127 .21699524 .55078127 .33999635 .55078127 .4099884 .6417694 .4099884 .6547699 .4099884 .6607666 .40699769 .6657715 .3999939 .6657715 .39898683 .6657715 .39698792 .6657715 .3919983 .66278079 .37199403 .6537781 .32299806 .6337738 .2559967 .6337738 .21598816 .6337738 .16999817 .6407776 .12298584 .6617737 .114990238 .66477969 .11299133 .66477969 .11099243 .66477969 .100997928 .66477969 .100997928 .6567688 .100997928 .6407776V.34439088C.100997928 .32637025 .100997928 .31835938 .114990238 .31835938 .12199402 .31835938 .12399292 .32136537 .12799073 .32736207 .13899231 .3433838 .17599488 .39746095 .25698854 .39746095 .30899049 .39746095 .33399964 .35139466 .34199525 .33337403 .35798646 .29632569 .3600006 .25727845 .3600006 .20722962 .3600006 .17222595 .3600006 .11222839 .33599855 .07035828 .31199647 .031463624 .2749939 .0055389406 .22898865 .0055389406 .1559906 .0055389406 .09899902 .058380128 .08198547 .11723328 .084991458 .1162262 .08799744 .115234378 .09899902 .115234378 .13198853 .115234378 .14898682 .14022827 .14898682 .16423035 .14898682 .18823242 .13198853 .21322632 .09899902 .21322632 .084991458 .21322632 .049987794 .20622254 .049987794 .16023255 .049987794 .07434082 .11898804-.022460938 .23098755-.022460938 .34700013-.022460938 .44898988 .073349 .44898988 .20022583Z"/>
</defs>
<path transform="matrix(1.00006,0,0,-1.00002,12.781921,124.09123)" stroke-width=".3985" stroke-linecap="butt" stroke-miterlimit="10" stroke-linejoin="miter" fill="none" stroke="#00aeef" d="M0 0H204.09909M0 17.00824H204.09909M0 34.0165H204.09909M0 51.02477H204.09909M0 68.03302H204.09909M0 85.04128H204.09909M0 102.04356H204.09909M0 0V102.04953M17.00824 0V102.04953M34.0165 0V102.04953M51.02477 0V102.04953M68.03302 0V102.04953M85.04128 0V102.04953M102.04953 0V102.04953M119.0578 0V102.04953M136.06606 0V102.04953M153.07433 0V102.04953M170.08257 0V102.04953M187.09084 0V102.04953M204.09313 0V102.04953M204.09909 102.04953"/>
<path transform="matrix(1.00006,0,0,-1.00002,12.781921,124.09123)" stroke-width="1.19553" stroke-linecap="butt" stroke-miterlimit="10" stroke-linejoin="miter" fill="none" stroke="#000000" d="M0 0H219.23436"/>
<path transform="matrix(1.00006,0,0,-1.00002,232.02944,124.09123)" d="M1.27522 0C-.31879 .31879-1.91284 .9564-3.8257 2.07224-1.91284 .6376-1.91284-.6376-3.8257-2.07224-1.91284-.9564-.31879-.31879 1.27522 0Z"/>
<path transform="matrix(1.00006,0,0,-1.00002,232.02944,124.09123)" stroke-width="1.19553" stroke-linecap="butt" stroke-linejoin="round" fill="none" stroke="#000000" d="M1.27522 0C-.31879 .31879-1.91284 .9564-3.8257 2.07224-1.91284 .6376-1.91284-.6376-3.8257-2.07224-1.91284-.9564-.31879-.31879 1.27522 0Z"/>
<use data-text="x" xlink:href="#font_1_1" transform="matrix(9.963197,0,0,-9.962799,237.82141,126.236278)"/>
<path transform="matrix(1.00006,0,0,-1.00002,12.781921,124.09123)" stroke-width="1.19553" stroke-linecap="butt" stroke-miterlimit="10" stroke-linejoin="miter" fill="none" stroke="#000000" d="M0 0V117.18481"/>
<path transform="matrix(0,-1.00002,-1.00006,-0,12.781921,6.9040758)" d="M1.27522 0C-.31879 .31879-1.91284 .9564-3.8257 2.07224-1.91284 .6376-1.91284-.6376-3.8257-2.07224-1.91284-.9564-.31879-.31879 1.27522 0Z"/>
<path transform="matrix(0,-1.00002,-1.00006,-0,12.781921,6.9040758)" stroke-width="1.19553" stroke-linecap="butt" stroke-linejoin="round" fill="none" stroke="#000000" d="M1.27522 0C-.31879 .31879-1.91284 .9564-3.8257 2.07224-1.91284 .6376-1.91284-.6376-3.8257-2.07224-1.91284-.9564-.31879-.31879 1.27522 0Z"/>
<use data-text="y" xlink:href="#font_1_2" transform="matrix(9.963197,0,0,-9.962799,5.613495,6.206871)"/>
<path transform="matrix(1.00006,0,0,-1.00002,12.781921,124.09123)" stroke-width=".79701" stroke-linecap="butt" stroke-miterlimit="10" stroke-linejoin="miter" fill="none" stroke="#00aeef" d="M85.04128 0V102.04953"/>
<path transform="matrix(1.00006,0,0,-1.00002,12.781921,124.09123)" stroke-width=".3985" stroke-linecap="butt" stroke-miterlimit="10" stroke-linejoin="miter" fill="none" stroke="#000000" d="M85.04128 3.40158V-3.40158"/>
<path transform="matrix(1.00006,0,0,-1.00002,12.781921,124.09123)" d="M79.0636-14.00638H91.018939V-5.5934H79.0636Z" fill="#ffffff"/>
<use data-text="1" xlink:href="#font_2_2" transform="matrix(9.963197,0,0,-9.962799,92.84672,137.1015)"/>
<use data-text="0" xlink:href="#font_2_1" transform="matrix(9.963197,0,0,-9.962799,97.82832,137.1015)"/>
<path transform="matrix(1.00006,0,0,-1.00002,12.781921,124.09123)" stroke-width=".79701" stroke-linecap="butt" stroke-miterlimit="10" stroke-linejoin="miter" fill="none" stroke="#00aeef" d="M170.08257 0V102.04953"/>
<path transform="matrix(1.00006,0,0,-1.00002,12.781921,124.09123)" stroke-width=".3985" stroke-linecap="butt" stroke-miterlimit="10" stroke-linejoin="miter" fill="none" stroke="#000000" d="M170.08257 3.40158V-3.40158"/>
<path transform="matrix(1.00006,0,0,-1.00002,12.781921,124.09123)" d="M164.10489-14.00638H176.06023V-5.5934H164.10489Z" fill="#ffffff"/>
<use data-text="2" xlink:href="#font_2_3" transform="matrix(9.963197,0,0,-9.962799,177.89282,137.1015)"/>
<use data-text="0" xlink:href="#font_2_1" transform="matrix(9.963197,0,0,-9.962799,182.87442,137.1015)"/>
<path transform="matrix(1.00006,0,0,-1.00002,12.781921,124.09123)" stroke-width=".79701" stroke-linecap="butt" stroke-miterlimit="10" stroke-linejoin="miter" fill="none" stroke="#00aeef" d="M0 85.04128H204.09909"/>
<path transform="matrix(1.00006,0,0,-1.00002,12.781921,124.09123)" stroke-width=".3985" stroke-linecap="butt" stroke-miterlimit="10" stroke-linejoin="miter" fill="none" stroke="#000000" d="M3.40158 85.04128H-3.40158"/>
<path transform="matrix(1.00006,0,0,-1.00002,12.781921,124.09123)" d="M-12.56734 80.83478H-5.5934V89.24776H-12.56734Z" fill="#ffffff"/>
<use data-text="5" xlink:href="#font_2_4" transform="matrix(9.963197,0,0,-9.962799,1.210228,42.25859)"/>
<path transform="matrix(1.00006,0,0,-1.00002,12.781921,124.09123)" stroke-width="1.19553" stroke-linecap="butt" stroke-miterlimit="10" stroke-linejoin="miter" fill="none" stroke="#d73589" d="M34.0165 0C34.0165 0 35.93658 7.64209 36.67404 9.50769 37.4115 11.3733 38.59412 12.48024 39.33159 13.44598 40.06903 14.41174 41.25166 15.6954 41.98912 16.46815 42.72658 17.24094 43.90921 18.35077 44.64667 19.01566 45.38411 19.68056 46.56674 20.66736 47.3042 21.26031 48.04166 21.85324 49.22429 22.74886 49.96173 23.28928 50.6992 23.82968 51.88182 24.65536 52.61928 25.15527 53.35674 25.65515 54.53937 26.42491 55.27682 26.89226 56.01428 27.35962 57.1969 28.08322 57.93436 28.52365 58.67181 28.96407 59.85443 29.64886 60.5919 30.06653 61.32935 30.48419 62.512 31.1357 63.24945 31.53387 63.9869 31.93207 65.16954 32.55516 65.90698 32.93636 66.64444 33.31754 67.82707 33.91508 68.56453 34.28122 69.30199 34.64734 70.4846 35.22243 71.22206 35.57521 71.95952 35.92798 73.14215 36.483 73.87961 36.82379 74.61707 37.16457 75.79968 37.70137 76.53716 38.03136 77.2746 38.36133 78.45723 38.88197 79.19469 39.20207 79.93214 39.52219 81.11478 40.0275 81.85222 40.33853 82.58968 40.64957 83.77231 41.14111 84.50977 41.44385 85.24721 41.74661 86.42986 42.22554 87.1673 42.52063 87.90477 42.8157 89.08739 43.28271 89.82484 43.57068 90.5623 43.85863 91.74493 44.31473 92.48239 44.59605 93.21985 44.87738 94.40247 45.3232 95.13994 45.59834 95.87738 45.87347 97.06001 46.30978 97.79747 46.57909 98.53493 46.84839 99.71754 47.27545 100.45502 47.53934 101.19246 47.80319 102.3751 48.22214 103.11255 48.4809 103.85 48.73965 105.03264 49.15039 105.77008 49.40428 106.50755 49.65819 107.69017 50.06145 108.42763 50.3108 109.16508 50.56017 110.34772 50.95647 111.08516 51.2015 111.82263 51.44653 113.00525 51.83598 113.74272 52.07687 114.48016 52.31776 115.66278 52.70074 116.40025 52.93771 117.1377 53.17468 118.32033 53.55159 119.0578 53.7848 119.79524 54.01804 120.97789 54.389 121.71533 54.61867 122.45279 54.84831 123.63542 55.21382 124.37288 55.44006 125.11032 55.66629 126.29297 56.02628 127.03041 56.24927 127.76788 56.47226 128.9505 56.82741 129.68795 57.0473 130.42542 57.26721 131.60803 57.61726 132.3455 57.83418 133.08295 58.0511 134.26558 58.39665 135.00304 58.61069 135.7405 58.82472 136.92311 59.16559 137.66059 59.3768 138.39803 59.58803 139.58068 59.92447 140.31812 60.13306 141.05556 60.34166 142.2382 60.6742 142.97565 60.88023 143.7131 61.08627 144.89574 61.41452 145.6332 61.61807 146.37065 61.82162 147.55329 62.14615 148.29074 62.34734 149.0282 62.54852 150.21083 62.86913 150.94828 63.06802 151.68575 63.26695 152.86837 63.58427 153.60582 63.78096 154.34328 63.97763 155.5259 64.29109 156.26337 64.48557 157.00081 64.68004 158.18344 64.99019 158.9209 65.18265 159.65836 65.3751 160.84099 65.68228 161.57845 65.87273 162.31589 66.06317 163.49854 66.36685 164.23598 66.55528 164.97344 66.74371 166.15607 67.04427 166.89351 67.23082 167.63098 67.41737 168.8136 67.71515 169.55106 67.89987 170.28852 68.08461 171.47115 68.37924 172.2086 68.5622 172.94606 68.74515 174.12868 69.0373 174.86615 69.21854 175.60359 69.39977 176.78623 69.68884 177.52368 69.86838 178.26114 70.04791 179.44377 70.33461 180.18123 70.51251 180.91867 70.69044 182.10132 70.97443 182.83876 71.1507 183.57624 71.32695 184.75885 71.60818 185.4963 71.7829 186.23377 71.9576 187.4164 72.23668 188.15384 72.40991 188.8913 72.58315 190.07393 72.85971 190.81139 73.03146 191.54885 73.20322 192.73146 73.47752 193.46894 73.64784 194.20638 73.81818 195.389 74.09012 196.12647 74.25903 196.86392 74.42793 198.04656 74.69774 198.78401 74.86528 199.52146 75.03282 200.70409 75.3004 201.44155 75.4666 202.17899 75.63281 204.09909 76.06325 202.27156 75.6537"/>
<path transform="matrix(.97579857,-.21866438,-.21867311,-.97575959,215.0656,48.436014)" d="M1.27522 0C-.31879 .31879-1.91284 .9564-3.8257 2.07224-1.91284 .6376-1.91284-.6376-3.8257-2.07224-1.91284-.9564-.31879-.31879 1.27522 0Z" fill="#d73589"/>
<path transform="matrix(.97579857,-.21866438,-.21867311,-.97575959,215.0656,48.436014)" stroke-width="1.19553" stroke-linecap="butt" stroke-linejoin="round" fill="none" stroke="#d73589" d="M1.27522 0C-.31879 .31879-1.91284 .9564-3.8257 2.07224-1.91284 .6376-1.91284-.6376-3.8257-2.07224-1.91284-.9564-.31879-.31879 1.27522 0Z"/>
<path transform="matrix(1.00006,0,0,-1.00002,12.781921,124.09123)" d="M35.8874 0C35.8874 1.03326 35.04977 1.8709 34.0165 1.8709 32.98323 1.8709 32.1456 1.03326 32.1456 0 32.1456-1.03326 32.98323-1.8709 34.0165-1.8709 35.04977-1.8709 35.8874-1.03326 35.8874 0ZM34.0165 0" fill="#0000ff"/>
<path transform="matrix(1.00006,0,0,-1.00002,12.781921,124.09123)" stroke-width=".3985" stroke-linecap="butt" stroke-miterlimit="10" stroke-linejoin="miter" fill="none" stroke="#0000ff" d="M35.8874 0C35.8874 1.03326 35.04977 1.8709 34.0165 1.8709 32.98323 1.8709 32.1456 1.03326 32.1456 0 32.1456-1.03326 32.98323-1.8709 34.0165-1.8709 35.04977-1.8709 35.8874-1.03326 35.8874 0ZM34.0165 0"/>
<path transform="matrix(1.00006,0,0,-1.00002,12.781921,124.09123)" d="M44.39153 17.00824C44.39153 18.04152 43.55391 18.87915 42.52063 18.87915 41.48735 18.87915 40.64972 18.04152 40.64972 17.00824 40.64972 15.97496 41.48735 15.13733 42.52063 15.13733 43.55391 15.13733 44.39153 15.97496 44.39153 17.00824ZM42.52063 17.00824" fill="#0000ff"/>
<path transform="matrix(1.00006,0,0,-1.00002,12.781921,124.09123)" stroke-width=".3985" stroke-linecap="butt" stroke-miterlimit="10" stroke-linejoin="miter" fill="none" stroke="#0000ff" d="M44.39153 17.00824C44.39153 18.04152 43.55391 18.87915 42.52063 18.87915 41.48735 18.87915 40.64972 18.04152 40.64972 17.00824 40.64972 15.97496 41.48735 15.13733 42.52063 15.13733 43.55391 15.13733 44.39153 15.97496 44.39153 17.00824ZM42.52063 17.00824"/>
<path transform="matrix(1.00006,0,0,-1.00002,12.781921,124.09123)" d="M52.89568 24.05333C52.89568 25.0866 52.05804 25.92422 51.02477 25.92422 49.99149 25.92422 49.15385 25.0866 49.15385 24.05333 49.15385 23.02005 49.99149 22.18242 51.02477 22.18242 52.05804 22.18242 52.89568 23.02005 52.89568 24.05333ZM51.02477 24.05333" fill="#0000ff"/>
<path transform="matrix(1.00006,0,0,-1.00002,12.781921,124.09123)" stroke-width=".3985" stroke-linecap="butt" stroke-miterlimit="10" stroke-linejoin="miter" fill="none" stroke="#0000ff" d="M52.89568 24.05333C52.89568 25.0866 52.05804 25.92422 51.02477 25.92422 49.99149 25.92422 49.15385 25.0866 49.15385 24.05333 49.15385 23.02005 49.99149 22.18242 51.02477 22.18242 52.05804 22.18242 52.89568 23.02005 52.89568 24.05333ZM51.02477 24.05333"/>
<path transform="matrix(1.00006,0,0,-1.00002,12.781921,124.09123)" d="M86.91219 41.66133C86.91219 42.69461 86.07455 43.53224 85.04128 43.53224 84.008 43.53224 83.17036 42.69461 83.17036 41.66133 83.17036 40.62805 84.008 39.79042 85.04128 39.79042 86.07455 39.79042 86.91219 40.62805 86.91219 41.66133ZM85.04128 41.66133" fill="#0000ff"/>
<path transform="matrix(1.00006,0,0,-1.00002,12.781921,124.09123)" stroke-width=".3985" stroke-linecap="butt" stroke-miterlimit="10" stroke-linejoin="miter" fill="none" stroke="#0000ff" d="M86.91219 41.66133C86.91219 42.69461 86.07455 43.53224 85.04128 43.53224 84.008 43.53224 83.17036 42.69461 83.17036 41.66133 83.17036 40.62805 84.008 39.79042 85.04128 39.79042 86.07455 39.79042 86.91219 40.62805 86.91219 41.66133ZM85.04128 41.66133"/>
<path transform="matrix(1.00006,0,0,-1.00002,12.781921,124.09123)" d="M137.93697 58.91823C137.93697 59.9515 137.09934 60.78914 136.06606 60.78914 135.03278 60.78914 134.19516 59.9515 134.19516 58.91823 134.19516 57.88495 135.03278 57.04732 136.06606 57.04732 137.09934 57.04732 137.93697 57.88495 137.93697 58.91823ZM136.06606 58.91823" fill="#0000ff"/>
<path transform="matrix(1.00006,0,0,-1.00002,12.781921,124.09123)" stroke-width=".3985" stroke-linecap="butt" stroke-miterlimit="10" stroke-linejoin="miter" fill="none" stroke="#0000ff" d="M137.93697 58.91823C137.93697 59.9515 137.09934 60.78914 136.06606 60.78914 135.03278 60.78914 134.19516 59.9515 134.19516 58.91823 134.19516 57.88495 135.03278 57.04732 136.06606 57.04732 137.09934 57.04732 137.93697 57.88495 137.93697 58.91823ZM136.06606 58.91823"/>
<path transform="matrix(1.00006,0,0,-1.00002,12.781921,124.09123)" d="M163.44936 65.87273C163.44936 66.906 162.61173 67.74364 161.57845 67.74364 160.54517 67.74364 159.70754 66.906 159.70754 65.87273 159.70754 64.83946 160.54517 64.00183 161.57845 64.00183 162.61173 64.00183 163.44936 64.83946 163.44936 65.87273ZM161.57845 65.87273" fill="#0000ff"/>
<path transform="matrix(1.00006,0,0,-1.00002,12.781921,124.09123)" stroke-width=".3985" stroke-linecap="butt" stroke-miterlimit="10" stroke-linejoin="miter" fill="none" stroke="#0000ff" d="M163.44936 65.87273C163.44936 66.906 162.61173 67.74364 161.57845 67.74364 160.54517 67.74364 159.70754 66.906 159.70754 65.87273 159.70754 64.83946 160.54517 64.00183 161.57845 64.00183 162.61173 64.00183 163.44936 64.83946 163.44936 65.87273ZM161.57845 65.87273"/>
<path transform="matrix(1.00006,0,0,-1.00002,12.781921,124.09123)" d="M205.97 76.06325C205.97 77.09653 205.13237 77.93416 204.09909 77.93416 203.06581 77.93416 202.22818 77.09653 202.22818 76.06325 202.22818 75.02997 203.06581 74.19234 204.09909 74.19234 205.13237 74.19234 205.97 75.02997 205.97 76.06325ZM204.09909 76.06325" fill="#0000ff"/>
<path transform="matrix(1.00006,0,0,-1.00002,12.781921,124.09123)" stroke-width=".3985" stroke-linecap="butt" stroke-miterlimit="10" stroke-linejoin="miter" fill="none" stroke="#0000ff" d="M205.97 76.06325C205.97 77.09653 205.13237 77.93416 204.09909 77.93416 203.06581 77.93416 202.22818 77.09653 202.22818 76.06325 202.22818 75.02997 203.06581 74.19234 204.09909 74.19234 205.13237 74.19234 205.97 75.02997 205.97 76.06325ZM204.09909 76.06325"/>
</svg>
