<svg xmlns="http://www.w3.org/2000/svg" xmlns:xlink="http://www.w3.org/1999/xlink" version="1.1" width="115" height="118" viewBox="0 0 115 118">
<defs>
<path id="font_1_2" d="M.3909912 .37405396C.36299134 .37304688 .34298707 .3510437 .34298707 .32904054 .34298707 .31503297 .35198976 .30003358 .37399293 .30003358 .3959961 .30003358 .41999818 .31703187 .41999818 .35603334 .41999818 .40124513 .3769989 .4423828 .30099488 .4423828 .16899109 .4423828 .13198853 .3400421 .13198853 .29605104 .13198853 .21820069 .20599365 .20323181 .23498535 .19725037 .2869873 .18727112 .33898927 .17628479 .33898927 .12133789 .33898927 .095336917 .31599427 .011245728 .19599915 .011245728 .18199158 .011245728 .10499573 .011245728 .08198547 .064331058 .11999512 .059326173 .14498902 .08934021 .14498902 .11734009 .14498902 .14033509 .1289978 .15234375 .10798645 .15234375 .08198547 .15234375 .051986696 .1313324 .051986696 .08633423 .051986696 .029281617 .10899353-.0107421879 .19499207-.0107421879 .35699464-.0107421879 .3959961 .1103363 .3959961 .15533448 .3959961 .19125366 .3769989 .21620178 .36499024 .22817993 .33799745 .25613404 .30899049 .26112367 .2649994 .27009584 .22898865 .27807618 .18899536 .2850647 .18899536 .33003236 .18899536 .3590393 .21299744 .42037965 .30099488 .42037965 .32598878 .42037965 .37599183 .41333009 .3909912 .37405396Z"/>
<path id="font_1_1" d="M.6279907 .5686035C.6769867 .64660647 .71899417 .6496124 .7559967 .6516113 .7679901 .65260317 .7689972 .6696167 .7689972 .6706085 .7689972 .6786041 .7639923 .6826172 .7559967 .6826172 .7299957 .6826172 .70098879 .6796112 .673996 .6796112 .6409912 .6796112 .6069946 .6826172 .57499697 .6826172 .56900027 .6826172 .55599978 .6826172 .55599978 .66360476 .55599978 .65260317 .5649872 .6516113 .57199099 .6516113 .598999 .6496124 .6179962 .63960269 .6179962 .61860659 .6179962 .6036072 .6029968 .581604 .6029968 .5805969L.29599 .092544559 .22799683 .62161257C.22799683 .63861086 .25099183 .6516113 .29699708 .6516113 .31098939 .6516113 .32199098 .6516113 .32199098 .6716156 .32199098 .680603 .31399537 .6826172 .30799867 .6826172 .2679901 .6826172 .22499085 .6796112 .18399048 .6796112 .1659851 .6796112 .14698792 .680603 .1289978 .680603 .11099243 .680603 .09199524 .6826172 .07499695 .6826172 .067993167 .6826172 .055999757 .6826172 .055999757 .66360476 .055999757 .6516113 .06498718 .6516113 .08099365 .6516113 .13699341 .6516113 .13798523 .64260867 .14099121 .6175995L.21998596 .0005340576C.22299195-.019470215 .22698975-.022460938 .23999024-.022460938 .2559967-.022460938 .2599945-.017471314 .2679901-.004470825L.6279907 .5686035Z"/>
<path id="font_2_1" d="M.1269989 .07699585 .23298645 .18003845C.3889923 .31811524 .44898988 .3721466 .44898988 .47216798 .44898988 .5860901 .35899354 .6660156 .23699951 .6660156 .12399292 .6660156 .049987794 .57411196 .049987794 .48516847 .049987794 .4291687 .099990848 .4291687 .102996829 .4291687 .11999512 .4291687 .15499878 .44117738 .15499878 .48217774 .15499878 .5081787 .13699341 .5341797 .101989749 .5341797 .09399414 .5341797 .09199524 .5341797 .08898926 .5331726 .11199951 .59806826 .1659851 .63500979 .22399903 .63500979 .31498719 .63500979 .35798646 .5541382 .35798646 .47216798 .35798646 .39215089 .30799867 .31311036 .25299073 .25108338L.06098938 .036987306C.049987794 .025985718 .049987794 .023986817 .049987794 0H.42099L.44898988 .17404175H.42399598C.4189911 .14402771 .4119873 .1000061 .4019928 .084991458 .394989 .07699585 .32899476 .07699585 .30699159 .07699585H.1269989Z"/>
<path id="font_2_2" d="M.2939911 .16503906V.07800293C.2939911 .041992189 .2919922 .0309906 .21798706 .0309906H.19699097V0C.23799134 .0029907227 .2899933 .0029907227 .33198548 .0029907227 .37399293 .0029907227 .4269867 .0029907227 .46798707 0V.0309906H.44699098C.37298585 .0309906 .37098695 .041992189 .37098695 .07800293V.16503906H.47099305V.19602967H.37098695V.65075686C.37098695 .67074587 .37098695 .6767578 .35499574 .6767578 .34599305 .6767578 .34298707 .6767578 .33499146 .66474917L.027999878 .19602967V.16503906H.2939911M.2999878 .19602967H.055999757L.2999878 .5688019V.19602967Z"/>
<path id="font_2_3" d="M.16299439 .4569702C.116989139 .486969 .11299133 .52098086 .11299133 .5379791 .11299133 .598999 .17799378 .64100649 .24899292 .64100649 .32199098 .64100649 .38598634 .58898928 .38598634 .51698306 .38598634 .45996095 .34700013 .4119568 .2869873 .37695313L.16299439 .4569702M.30899049 .36193849C.3809967 .3989563 .42999269 .45095826 .42999269 .51698306 .42999269 .6090088 .34098817 .6660156 .25 .6660156 .1499939 .6660156 .068984989 .59199526 .068984989 .49897767 .068984989 .4809723 .070999149 .43595887 .11299133 .38894654 .12399292 .37695313 .16099549 .35194398 .18598938 .33494569 .12799073 .30592347 .041992189 .24984741 .041992189 .15072632 .041992189 .04458618 .14399719-.022460938 .24899292-.022460938 .3619995-.022460938 .45700074 .06060791 .45700074 .16773987 .45700074 .20379639 .44599916 .24885559 .4079895 .2909088 .3889923 .31193543 .37298585 .3219452 .30899049 .36193849M.20899964 .3199463 .33198548 .24183655C.3600006 .2228241 .40699769 .19277954 .40699769 .13169861 .40699769 .05760193 .33198548 .0055389406 .25 .0055389406 .1639862 .0055389406 .09199524 .067611698 .09199524 .15072632 .09199524 .20880127 .12399292 .27288819 .20899964 .3199463Z"/>
</defs>
<path transform="matrix(1.00003,0,0,-1.00003,11.931946,105.1938)" stroke-width=".3985" stroke-linecap="butt" stroke-miterlimit="10" stroke-linejoin="miter" fill="none" stroke="#00aeef" d="M0 0H85.04128M0 17.00824H85.04128M0 34.0165H85.04128M0 51.02477H85.04128M0 68.03302H85.04128M0 85.0353H85.04128M0 0V85.04128M17.00824 0V85.04128M34.0165 0V85.04128M51.02477 0V85.04128M68.03302 0V85.04128M85.0353 0V85.04128M85.04128 85.04128"/>
<path transform="matrix(1.00003,0,0,-1.00003,11.931946,105.1938)" stroke-width="1.19553" stroke-linecap="butt" stroke-miterlimit="10" stroke-linejoin="miter" fill="none" stroke="#000000" d="M0 0H91.67241"/>
<path transform="matrix(1.00003,0,0,-1.00003,103.60711,105.1938)" d="M1.27522 0C-.31879 .31879-1.91284 .9564-3.8257 2.07224-1.91284 .6376-1.91284-.6376-3.8257-2.07224-1.91284-.9564-.31879-.31879 1.27522 0Z"/>
<path transform="matrix(1.00003,0,0,-1.00003,103.60711,105.1938)" stroke-width="1.19553" stroke-linecap="butt" stroke-linejoin="round" fill="none" stroke="#000000" d="M1.27522 0C-.31879 .31879-1.91284 .9564-3.8257 2.07224-1.91284 .6376-1.91284-.6376-3.8257-2.07224-1.91284-.9564-.31879-.31879 1.27522 0Z"/>
<use data-text="s" xlink:href="#font_1_2" transform="matrix(9.962899,0,0,-9.962899,109.39887,107.33887)"/>
<path transform="matrix(1.00003,0,0,-1.00003,11.931946,105.1938)" stroke-width="1.19553" stroke-linecap="butt" stroke-miterlimit="10" stroke-linejoin="miter" fill="none" stroke="#000000" d="M0 0V91.67241"/>
<path transform="matrix(0,-1.00003,-1.00003,-0,11.931946,13.518639)" d="M1.27522 0C-.31879 .31879-1.91284 .9564-3.8257 2.07224-1.91284 .6376-1.91284-.6376-3.8257-2.07224-1.91284-.9564-.31879-.31879 1.27522 0Z"/>
<path transform="matrix(0,-1.00003,-1.00003,-0,11.931946,13.518639)" stroke-width="1.19553" stroke-linecap="butt" stroke-linejoin="round" fill="none" stroke="#000000" d="M1.27522 0C-.31879 .31879-1.91284 .9564-3.8257 2.07224-1.91284 .6376-1.91284-.6376-3.8257-2.07224-1.91284-.9564-.31879-.31879 1.27522 0Z"/>
<use data-text="V" xlink:href="#font_1_1" transform="matrix(9.962899,0,0,-9.962899,7.9188234,7.7268755)"/>
<path transform="matrix(1.00003,0,0,-1.00003,11.931946,105.1938)" stroke-width=".3985" stroke-linecap="butt" stroke-miterlimit="10" stroke-linejoin="miter" fill="none" stroke="#000000" d="M34.0165 2.55112V-2.55139"/>
<path transform="matrix(1.00003,0,0,-1.00003,11.931946,105.1938)" d="M30.52953-13.15617H37.50347V-4.74319H30.52953Z" fill="#ffffff"/>
<use data-text="2" xlink:href="#font_2_1" transform="matrix(9.962899,0,0,-9.962899,43.458894,117.35417)"/>
<path transform="matrix(1.00003,0,0,-1.00003,11.931946,105.1938)" stroke-width=".3985" stroke-linecap="butt" stroke-miterlimit="10" stroke-linejoin="miter" fill="none" stroke="#000000" d="M2.55112 34.0165H-2.55139"/>
<path transform="matrix(1.00003,0,0,-1.00003,11.931946,105.1938)" d="M-11.71713 29.81001H-4.74319V38.222993H-11.71713Z" fill="#ffffff"/>
<use data-text="4" xlink:href="#font_2_2" transform="matrix(9.962899,0,0,-9.962899,1.2106247,74.38688)"/>
<path transform="matrix(1.00003,0,0,-1.00003,11.931946,105.1938)" stroke-width=".3985" stroke-linecap="butt" stroke-miterlimit="10" stroke-linejoin="miter" fill="none" stroke="#000000" d="M68.03302 2.55112V-2.55139"/>
<path transform="matrix(1.00003,0,0,-1.00003,11.931946,105.1938)" d="M64.54605-13.15617H71.51999V-4.74319H64.54605Z" fill="#ffffff"/>
<use data-text="4" xlink:href="#font_2_2" transform="matrix(9.962899,0,0,-9.962899,77.475917,117.35417)"/>
<path transform="matrix(1.00003,0,0,-1.00003,11.931946,105.1938)" stroke-width=".3985" stroke-linecap="butt" stroke-miterlimit="10" stroke-linejoin="miter" fill="none" stroke="#000000" d="M2.55112 68.03302H-2.55139"/>
<path transform="matrix(1.00003,0,0,-1.00003,11.931946,105.1938)" d="M-11.71713 63.82654H-4.74319V72.239528H-11.71713Z" fill="#ffffff"/>
<use data-text="8" xlink:href="#font_2_3" transform="matrix(9.962899,0,0,-9.962899,1.2106247,40.36886)"/>
<path transform="matrix(1.00003,0,0,-1.00003,11.931946,105.1938)" stroke-width="1.19553" stroke-linecap="butt" stroke-miterlimit="10" stroke-linejoin="miter" fill="none" stroke="#d73589" d="M0 0C0 0 .70726-.00005 .97891 .00023 1.25055 .00055 1.6862 .00117 1.95784 .00232 2.22948 .00348 2.66513 .00603 2.93677 .00853 3.20842 .01106 3.64406 .01607 3.9157 .02048 4.18733 .0249 4.62297 .03362 4.89464 .04047 5.16628 .0473 5.60191 .06001 5.87357 .06978 6.1452 .07957 6.58086 .09775 6.8525 .11105 7.12413 .12437 7.55977 .14847 7.8314 .16582 8.10306 .18317 8.5387 .21417 8.81035 .23615 9.082 .2581 9.51764 .29703 9.78928 .32413 10.06093 .35123 10.49658 .3988 10.7682 .43156 11.03986 .46434 11.4755 .52135 11.74713 .56029 12.01878 .59926 12.4544 .66669 12.72607 .71237 12.99771 .75807 13.43335 .83664 13.705 .88965 13.97664 .94264 14.4123 1.03355 14.68393 1.09439 14.95558 1.15526 15.39122 1.25903 15.66284 1.32823 15.9345 1.39743 16.37013 1.5151 16.64178 1.5932 16.91344 1.6713 17.34908 1.80362 17.62071 1.89114 17.89236 1.97868 18.32802 2.12659 18.59966 2.22412 18.87129 2.32166 19.30693 2.4861 19.57857 2.5942 19.85022 2.7023 20.28586 2.88406 20.55751 3.00322 20.82915 3.12236 21.26479 3.32222 21.53644 3.45297 21.80807 3.58371 22.24373 3.80267 22.51537 3.94554 22.78702 4.08842 23.22266 4.32718 23.4943 4.48277 23.76593 4.63837 24.20157 4.89812 24.47324 5.06696 24.74487 5.2358 25.1805 5.51712 25.45216 5.69969 25.7238 5.88225 26.15945 6.18587 26.43109 6.38274 26.70274 6.57964 27.13837 6.907 27.41 7.11876 27.68166 7.33052 28.1173 7.68192 28.38895 7.90901 28.6606 8.13612 29.09622 8.51254 29.36787 8.75558 29.63953 8.99866 30.07518 9.40128 30.3468 9.66081 30.61845 9.92036 31.0541 10.34972 31.32573 10.62625 31.59738 10.90279 32.03302 11.3599 32.30467 11.65396 32.57631 11.94804 33.01195 12.43364 33.2836 12.7458 33.55524 13.05795 33.99089 13.57298 34.26253 13.9038 34.53418 14.2346 34.96982 14.78009 35.24144 15.13005 35.51309 15.48001 35.94873 16.05646 36.2204 16.42613 36.49203 16.79578 36.92766 17.4044 37.19933 17.79434 37.47096 18.18428 37.90662 18.82582 38.17825 19.23653 38.44989 19.64725 38.88553 20.32245 39.15717 20.75449 39.42882 21.18652 39.86446 21.89644 40.13611 22.35031 40.40776 22.80418 40.84338 23.54948 41.11504 24.0258 41.38669 24.50214 41.82233 25.28403 42.09396 25.78333 42.36562 26.28261 42.80125 27.10165 43.07289 27.62439 43.34454 28.14711 43.78017 29.00409 44.05183 29.55084 44.32347 30.09758 44.7591 30.99368 45.03076 31.56502 45.3024 32.13637 45.73805 33.0723 46.00969 33.66875 46.28134 34.26518 46.71698 35.24171 46.9886 35.8638 47.26025 36.48589 47.69589 37.504 47.96754 38.1523 48.2392 38.80058 48.67482 39.86128 48.94647 40.5363 49.21812 41.2113 49.65378 42.3151 49.92542 43.01736 50.19705 43.71964 50.63269 44.86775 50.90433 45.59782 51.17598 46.32788 51.61162 47.52083 51.88327 48.27924 52.1549 49.03766 52.59055 50.27663 52.8622 51.06393 53.13383 51.85127 53.56949 53.13702 53.84113 53.95377 54.11278 54.77051 54.54842 56.1038 54.82005 56.9505 55.09169 57.7972 55.52733 59.17905 55.799 60.05624 56.07063 60.93344 56.50626 62.36452 56.77792 63.2728 57.04956 64.18108 57.48521 65.66266 57.75685 66.60251 58.0285 67.54237 58.46413 69.07472 58.73576 70.04666 59.00742 71.01862 59.44305 72.60298 59.7147 73.60762 59.98636 74.61226 60.42198 76.24956 60.69363 77.28743 60.96529 78.32532 61.40094 80.01631 61.67256 81.08792 61.94421 82.15955 62.65149 85.01091 62.2007 83.19304"/>
<path transform="matrix(.24069722,-.9706091,-.9706091,-.24069722,74.13449,21.998276)" d="M1.27522 0C-.31879 .31879-1.91284 .9564-3.8257 2.07224-1.91284 .6376-1.91284-.6376-3.8257-2.07224-1.91284-.9564-.31879-.31879 1.27522 0Z" fill="#d73589"/>
<path transform="matrix(.24069722,-.9706091,-.9706091,-.24069722,74.13449,21.998276)" stroke-width="1.19553" stroke-linecap="butt" stroke-linejoin="round" fill="none" stroke="#d73589" d="M1.27522 0C-.31879 .31879-1.91284 .9564-3.8257 2.07224-1.91284 .6376-1.91284-.6376-3.8257-2.07224-1.91284-.9564-.31879-.31879 1.27522 0Z"/>
</svg>
