<svg xmlns="http://www.w3.org/2000/svg" xmlns:xlink="http://www.w3.org/1999/xlink" version="1.1" width="165" height="158" viewBox="0 0 165 158">
<defs>
<path id="font_1_1" d="M.33399964 .30233766C.33999635 .32835389 .36299134 .42037965 .43299867 .42037965 .43798829 .42037965 .46199037 .42037965 .48298646 .40734864 .45498658 .402359 .43499757 .37734986 .43499757 .35334779 .43499757 .33735658 .44599916 .31835938 .47299195 .31835938 .49499513 .31835938 .5269928 .3363495 .5269928 .37635804 .5269928 .42837525 .46798707 .4423828 .43399049 .4423828 .37599183 .4423828 .34098817 .38935853 .32899476 .36634828 .3039856 .43237306 .25 .4423828 .22099304 .4423828 .116989139 .4423828 .05999756 .3133545 .05999756 .28834535 .05999756 .27833558 .069992069 .27833558 .07199097 .27833558 .07998657 .27833558 .08299255 .28033448 .084991458 .28933717 .11898804 .39535523 .18499756 .42037965 .21899414 .42037965 .23799134 .42037965 .272995 .4113617 .272995 .35334779 .272995 .32235719 .2559967 .25532533 .21899414 .11528015 .20298767 .053268434 .16799927 .011245728 .12399292 .011245728 .117996219 .011245728 .09498596 .011245728 .07398987 .024276734 .09899902 .029266358 .12098694 .05027771 .12098694 .07827759 .12098694 .105270389 .09899902 .11328125 .083999637 .11328125 .053985597 .11328125 .0289917 .08728027 .0289917 .055267335 .0289917 .009246826 .07899475-.0107421879 .12298584-.0107421879 .18899536-.0107421879 .22499085 .059280397 .22799683 .0652771 .23999024 .028274537 .27598573-.0107421879 .33599855-.0107421879 .43899537-.0107421879 .49598695 .118270877 .49598695 .14328003 .49598695 .1532898 .4869995 .1532898 .48399354 .1532898 .47499085 .1532898 .47299195 .14929199 .47099305 .14228821 .43798829 .03527832 .36999513 .011245728 .33799745 .011245728 .29899598 .011245728 .2829895 .043273927 .2829895 .07727051 .2829895 .09927368 .2889862 .121276859 .2999878 .16529846L.33399964 .30233766Z"/>
<path id="font_1_2" d="M.48599244 .38136292C.48999024 .39537049 .48999024 .39736939 .48999024 .40437318 .48999024 .42237855 .47599793 .43138124 .46099855 .43138124 .45098878 .43138124 .43499757 .42536927 .42599488 .41036988 .42399598 .405365 .41600038 .37435914 .4119873 .35635377 .40499879 .33035279 .397995 .30334474 .3919983 .27633668L.34700013 .09628296C.34298707 .08126831 .2999878 .011245728 .23399353 .011245728 .18299866 .011245728 .17199707 .055267335 .17199707 .0922699 .17199707 .1382904 .18899536 .20030213 .22299195 .28833009 .23899842 .3293457 .24299622 .3403473 .24299622 .36035157 .24299622 .405365 .21099854 .4423828 .16099549 .4423828 .06599426 .4423828 .0289917 .29733277 .0289917 .28833009 .0289917 .27833558 .038986207 .27833558 .040985109 .27833558 .050994874 .27833558 .051986696 .28033448 .056991579 .29634095 .083999637 .3903656 .12399292 .42037965 .1579895 .42037965 .1659851 .42037965 .18299866 .42037965 .18299866 .3883667 .18299866 .36335755 .17298889 .3373413 .1659851 .31834413 .12599182 .21231079 .10798645 .1552887 .10798645 .10827637 .10798645 .019256592 .17098999-.0107421879 .22999573-.0107421879 .2689972-.0107421879 .30299378 .0062561037 .33099366 .03425598 .31799317-.017745972 .30599977-.06674194 .2659912-.11973572 .23999024-.15385437 .20199585-.18309021 .1559906-.18309021 .14199829-.18309021 .09700012-.18005371 .07998657-.14074707 .09599304-.14074707 .10899353-.14074707 .12298584-.1287384 .1329956-.11973572 .14299011-.10673523 .14299011-.08773804 .14299011-.056747438 .115997318-.052734376 .10598755-.052734376 .08299255-.052734376 .049987794-.068740848 .049987794-.11773682 .049987794-.16796875 .09399414-.20507813 .1559906-.20507813 .25898744-.20507813 .3619995-.11373901 .3899994-.00074768069L.48599244 .38136292Z"/>
<path id="font_2_1" d="M.6589966 .23046875C.6759949 .23046875 .69400027 .23046875 .69400027 .25045777 .69400027 .27046205 .6759949 .27046205 .6589966 .27046205H.117996219C.100997928 .27046205 .08299255 .27046205 .08299255 .25045777 .08299255 .23046875 .100997928 .23046875 .117996219 .23046875H.6589966Z"/>
<path id="font_3_1" d="M.2939911 .16503906V.07800293C.2939911 .041992189 .2919922 .0309906 .21798706 .0309906H.19699097V0C.23799134 .0029907227 .2899933 .0029907227 .33198548 .0029907227 .37399293 .0029907227 .4269867 .0029907227 .46798707 0V.0309906H.44699098C.37298585 .0309906 .37098695 .041992189 .37098695 .07800293V.16503906H.47099305V.19602967H.37098695V.65075686C.37098695 .67074587 .37098695 .6767578 .35499574 .6767578 .34599305 .6767578 .34298707 .6767578 .33499146 .66474917L.027999878 .19602967V.16503906H.2939911M.2999878 .19602967H.055999757L.2999878 .5688019V.19602967Z"/>
<path id="font_3_2" d="M.16299439 .4569702C.116989139 .486969 .11299133 .52098086 .11299133 .5379791 .11299133 .598999 .17799378 .64100649 .24899292 .64100649 .32199098 .64100649 .38598634 .58898928 .38598634 .51698306 .38598634 .45996095 .34700013 .4119568 .2869873 .37695313L.16299439 .4569702M.30899049 .36193849C.3809967 .3989563 .42999269 .45095826 .42999269 .51698306 .42999269 .6090088 .34098817 .6660156 .25 .6660156 .1499939 .6660156 .068984989 .59199526 .068984989 .49897767 .068984989 .4809723 .070999149 .43595887 .11299133 .38894654 .12399292 .37695313 .16099549 .35194398 .18598938 .33494569 .12799073 .30592347 .041992189 .24984741 .041992189 .15072632 .041992189 .04458618 .14399719-.022460938 .24899292-.022460938 .3619995-.022460938 .45700074 .06060791 .45700074 .16773987 .45700074 .20379639 .44599916 .24885559 .4079895 .2909088 .3889923 .31193543 .37298585 .3219452 .30899049 .36193849M.20899964 .3199463 .33198548 .24183655C.3600006 .2228241 .40699769 .19277954 .40699769 .13169861 .40699769 .05760193 .33198548 .0055389406 .25 .0055389406 .1639862 .0055389406 .09199524 .067611698 .09199524 .15072632 .09199524 .20880127 .12399292 .27288819 .20899964 .3199463Z"/>
</defs>
<path transform="matrix(1.00006,0,0,-1.00008,86.8563,85.82683)" stroke-width=".3985" stroke-linecap="butt" stroke-miterlimit="10" stroke-linejoin="miter" fill="none" stroke="#00aeef" d="M-85.04042-70.867H56.69362M-85.04042-56.69362H56.69362M-85.04042-42.5202H56.69362M-85.04042-28.3468H56.69362M-85.04042-14.17339H56.69362M-85.04042 0H56.69362M-85.04042 14.17339H56.69362M-85.04042 28.3468H56.69362M-85.04042 42.5202H56.69362M-85.04042 56.69362H56.69362M-85.04042 70.86452H56.69362M-85.04042-70.867V70.867M-70.867-70.867V70.867M-56.69362-70.867V70.867M-42.5202-70.867V70.867M-28.3468-70.867V70.867M-14.17339-70.867V70.867M0-70.867V70.867M14.17339-70.867V70.867M28.3468-70.867V70.867M42.5202-70.867V70.867M56.68863-70.867V70.867M56.69362 70.867"/>
<path transform="matrix(1.00006,0,0,-1.00008,86.8563,85.82683)" stroke-width="1.19553" stroke-linecap="butt" stroke-miterlimit="10" stroke-linejoin="miter" fill="none" stroke="#000000" d="M-85.04042 0H66.15938"/>
<path transform="matrix(1.00006,0,0,-1.00008,153.01966,85.82683)" d="M1.27522 0C-.31879 .31879-1.91284 .9564-3.8257 2.07224-1.91284 .6376-1.91284-.6376-3.8257-2.07224-1.91284-.9564-.31879-.31879 1.27522 0Z"/>
<path transform="matrix(1.00006,0,0,-1.00008,153.01966,85.82683)" stroke-width="1.19553" stroke-linecap="butt" stroke-linejoin="round" fill="none" stroke="#000000" d="M1.27522 0C-.31879 .31879-1.91284 .9564-3.8257 2.07224-1.91284 .6376-1.91284-.6376-3.8257-2.07224-1.91284-.9564-.31879-.31879 1.27522 0Z"/>
<use data-text="x" xlink:href="#font_1_1" transform="matrix(9.963197,0,0,-9.963397,158.81162,87.972)"/>
<path transform="matrix(1.00006,0,0,-1.00008,86.8563,85.82683)" stroke-width="1.19553" stroke-linecap="butt" stroke-miterlimit="10" stroke-linejoin="miter" fill="none" stroke="#000000" d="M0-70.867V78.91536"/>
<path transform="matrix(0,-1.00008,-1.00006,-0,86.8563,6.905159)" d="M1.27522 0C-.31879 .31879-1.91284 .9564-3.8257 2.07224-1.91284 .6376-1.91284-.6376-3.8257-2.07224-1.91284-.9564-.31879-.31879 1.27522 0Z"/>
<path transform="matrix(0,-1.00008,-1.00006,-0,86.8563,6.905159)" stroke-width="1.19553" stroke-linecap="butt" stroke-linejoin="round" fill="none" stroke="#000000" d="M1.27522 0C-.31879 .31879-1.91284 .9564-3.8257 2.07224-1.91284 .6376-1.91284-.6376-3.8257-2.07224-1.91284-.9564-.31879-.31879 1.27522 0Z"/>
<use data-text="y" xlink:href="#font_1_2" transform="matrix(9.963197,0,0,-9.963397,79.687877,6.208458)"/>
<path transform="matrix(1.00006,0,0,-1.00008,86.8563,85.82683)" stroke-width=".3985" stroke-linecap="butt" stroke-miterlimit="10" stroke-linejoin="miter" fill="none" stroke="#000000" d="M-56.69362 1.06294V-1.06305"/>
<path transform="matrix(1.00006,0,0,-1.00008,86.8563,85.82683)" d="M-64.05501-12.4981H-49.33223V-3.2548705H-64.05501Z" fill="#ffffff"/>
<use data-text="&#x2212;" xlink:href="#font_2_1" transform="matrix(9.963197,0,0,-9.963397,23.793519,96.49968)"/>
<use data-text="4" xlink:href="#font_3_1" transform="matrix(9.963197,0,0,-9.963397,31.542984,96.49968)"/>
<path transform="matrix(1.00006,0,0,-1.00008,86.8563,85.82683)" stroke-width=".3985" stroke-linecap="butt" stroke-miterlimit="10" stroke-linejoin="miter" fill="none" stroke="#000000" d="M56.69362 1.06294V-1.06305"/>
<path transform="matrix(1.00006,0,0,-1.00008,86.8563,85.82683)" d="M53.20665-11.66785H60.180589V-3.2548695H53.20665Z" fill="#ffffff"/>
<use data-text="4" xlink:href="#font_3_1" transform="matrix(9.963197,0,0,-9.963397,141.06255,96.49968)"/>
<path transform="matrix(1.00006,0,0,-1.00008,86.8563,85.82683)" stroke-width=".3985" stroke-linecap="butt" stroke-miterlimit="10" stroke-linejoin="miter" fill="none" stroke="#000000" d="M2.12592-28.3468H-2.12613"/>
<path transform="matrix(1.00006,0,0,-1.00008,86.8563,85.82683)" d="M-19.04071-32.96841H-4.31793V-23.725182H-19.04071Z" fill="#ffffff"/>
<use data-text="&#x2212;" xlink:href="#font_2_1" transform="matrix(9.963197,0,0,-9.963397,68.81122,116.97132)"/>
<use data-text="4" xlink:href="#font_3_1" transform="matrix(9.963197,0,0,-9.963397,76.560688,116.97132)"/>
<path transform="matrix(1.00006,0,0,-1.00008,86.8563,85.82683)" stroke-width=".3985" stroke-linecap="butt" stroke-miterlimit="10" stroke-linejoin="miter" fill="none" stroke="#000000" d="M2.12592 28.3468H-2.12613"/>
<path transform="matrix(1.00006,0,0,-1.00008,86.8563,85.82683)" d="M-11.29187 24.1403H-4.31793V32.55328H-11.29187Z" fill="#ffffff"/>
<use data-text="4" xlink:href="#font_3_1" transform="matrix(9.963197,0,0,-9.963397,76.559688,60.68782)"/>
<path transform="matrix(1.00006,0,0,-1.00008,86.8563,85.82683)" stroke-width=".3985" stroke-linecap="butt" stroke-miterlimit="10" stroke-linejoin="miter" fill="none" stroke="#000000" d="M2.12592-56.69362H-2.12613"/>
<path transform="matrix(1.00006,0,0,-1.00008,86.8563,85.82683)" d="M-19.04071-61.31523H-4.31793V-52.072004H-19.04071Z" fill="#ffffff"/>
<use data-text="&#x2212;" xlink:href="#font_2_1" transform="matrix(9.963197,0,0,-9.963397,68.81122,145.32059)"/>
<use data-text="8" xlink:href="#font_3_2" transform="matrix(9.963197,0,0,-9.963397,76.560688,145.32059)"/>
<path transform="matrix(1.00006,0,0,-1.00008,86.8563,85.82683)" stroke-width=".3985" stroke-linecap="butt" stroke-miterlimit="10" stroke-linejoin="miter" fill="none" stroke="#000000" d="M2.12592 56.69362H-2.12613"/>
<path transform="matrix(1.00006,0,0,-1.00008,86.8563,85.82683)" d="M-11.29187 52.48712H-4.31793V60.9001H-11.29187Z" fill="#ffffff"/>
<use data-text="8" xlink:href="#font_3_2" transform="matrix(9.963197,0,0,-9.963397,76.559688,32.33955)"/>
<path transform="matrix(1.00006,0,0,-1.00008,86.8563,85.82683)" stroke-width="1.19553" stroke-linecap="butt" stroke-miterlimit="10" stroke-linejoin="miter" fill="none" stroke="#d73589" d="M-70.40866 69.05104C-69.58698 65.79611-69.58698 65.79611-69.09534 63.89104-68.60371 61.98595-67.81529 58.98015-67.32365 57.13652-66.83203 55.29291-66.04362 52.38565-65.55199 50.60347-65.06035 48.8213-64.27194 46.01259-63.7803 44.29187-63.28867 42.57115-62.50026 39.86101-62.00864 38.20174-61.517 36.54248-60.72858 33.93086-60.23695 32.33307-59.74532 30.73526-58.95691 28.22221-58.46529 26.68585-57.97365 25.14949-57.18524 22.73499-56.69362 21.2601-56.20198 19.7852-55.41356 17.46924-54.92192 16.05579-54.4303 14.64235-53.64189 12.42494-53.15025 11.07297-52.65863 9.72096-51.87021 7.60213-51.37857 6.31158-50.88695 5.02104-50.09854 3.00075-49.6069 1.77167-49.11528 .54259-48.32686-1.37915-47.83522-2.54677-47.34358-3.7144-46.55519-5.5376-46.06355-6.64377-45.57191-7.74994-44.7835-9.4746-44.29187-10.5193-43.80023-11.56403-43.01183-13.19012-42.5202-14.17339-42.02856-15.15665-41.24016-16.68419-40.74854-17.60602-40.2569-18.52782-39.46848-19.95682-38.97685-20.81717-38.48521-21.67752-37.69681-23.00798-37.20518-23.80688-36.71355-24.60577-35.92513-25.83768-35.43349-26.57512-34.94186-27.31256-34.15346-28.4459-33.66182-29.1219-33.1702-29.7979-32.38177-30.83269-31.89014-31.44724-31.39851-32.06177-30.6101-32.998-30.11847-33.55109-29.62685-34.10417-28.83844-34.94186-28.3468-35.43349-27.85516-35.92513-27.06676-36.66426-26.57512-37.09445-26.08348-37.52461-25.29507-38.1652-24.80345-38.53394-24.31181-38.90266-23.52339-39.44469-23.03177-39.75195-22.54013-40.05923-21.75172-40.50272-21.2601-40.74854-20.76846-40.99434-19.98004-41.33926-19.48842-41.52364-18.99678-41.708-18.20837-41.95436-17.71674-42.07727-17.22511-42.20018-16.43669-42.34802-15.94505-42.40947-15.45343-42.47093-14.66502-42.5202-14.17339-42.5202-13.68176-42.5202-12.89336-42.47093-12.40172-42.40947-11.9101-42.34802-11.12167-42.20018-10.63004-42.07727-10.1384-41.95436-9.35-41.708-8.85837-41.52364-8.36673-41.33926-7.57831-40.99434-7.08669-40.74854-6.59505-40.50272-5.80664-40.05923-5.31502-39.75195-4.82338-39.44469-4.03496-38.90266-3.54333-38.53394-3.0517-38.1652-2.26329-37.52461-1.77167-37.09445-1.28003-36.66426-.49161-35.92513 0-35.43349 .49161-34.94186 1.28003-34.10417 1.77167-33.55109 2.26329-32.998 3.0517-32.06177 3.54333-31.44724 4.03496-30.83269 4.82338-29.7979 5.31502-29.1219 5.80664-28.4459 6.59505-27.31256 7.08669-26.57512 7.57831-25.83768 8.36673-24.60577 8.85837-23.80688 9.35-23.00798 10.1384-21.67752 10.63004-20.81717 11.12167-19.95682 11.9101-18.52782 12.40172-17.60602 12.89336-16.68419 13.68176-15.15665 14.17339-14.17339 14.66502-13.19012 15.45343-11.56403 15.94505-10.5193 16.43669-9.4746 17.22511-7.74994 17.71674-6.64377 18.20837-5.5376 18.99678-3.7144 19.48842-2.54677 19.98004-1.37915 20.76846 .54259 21.2601 1.77167 21.75172 3.00075 22.54013 5.02104 23.03177 6.31158 23.52339 7.60213 24.31181 9.72096 24.80345 11.07297 25.29507 12.42494 26.08348 14.64235 26.57512 16.05579 27.06676 17.46924 27.85516 19.7852 28.3468 21.2601 28.83844 22.73499 29.62685 25.14949 30.11847 26.68585 30.6101 28.22221 31.39851 30.73526 31.89014 32.33307 32.38177 33.93086 33.1702 36.54248 33.66182 38.20174 34.15346 39.86101 34.94186 42.57115 35.43349 44.29187 35.92513 46.01259 36.71355 48.8213 37.20518 50.60347 37.69681 52.38565 38.48521 55.29291 38.97685 57.13652 39.46848 58.98015 40.2569 61.98595 40.74854 63.89104 41.24016 65.79611 42.5202 70.867 42.06184 69.05104"/>
<path transform="matrix(-.24473468,-.9696376,-.96961817,.24473958,16.44342,16.770264)" d="M1.27522 0C-.31879 .31879-1.91284 .9564-3.8257 2.07224-1.91284 .6376-1.91284-.6376-3.8257-2.07224-1.91284-.9564-.31879-.31879 1.27522 0Z" fill="#d73589"/>
<path transform="matrix(-.24473468,-.9696376,-.96961817,.24473958,16.44342,16.770264)" stroke-width="1.19553" stroke-linecap="butt" stroke-linejoin="round" fill="none" stroke="#d73589" d="M1.27522 0C-.31879 .31879-1.91284 .9564-3.8257 2.07224-1.91284 .6376-1.91284-.6376-3.8257-2.07224-1.91284-.9564-.31879-.31879 1.27522 0Z"/>
<path transform="matrix(.24473468,-.9696376,-.96961817,-.24473958,128.92066,16.770264)" d="M1.27522 0C-.31879 .31879-1.91284 .9564-3.8257 2.07224-1.91284 .6376-1.91284-.6376-3.8257-2.07224-1.91284-.9564-.31879-.31879 1.27522 0Z" fill="#d73589"/>
<path transform="matrix(.24473468,-.9696376,-.96961817,-.24473958,128.92066,16.770264)" stroke-width="1.19553" stroke-linecap="butt" stroke-linejoin="round" fill="none" stroke="#d73589" d="M1.27522 0C-.31879 .31879-1.91284 .9564-3.8257 2.07224-1.91284 .6376-1.91284-.6376-3.8257-2.07224-1.91284-.9564-.31879-.31879 1.27522 0Z"/>
</svg>
