<svg xmlns="http://www.w3.org/2000/svg" xmlns:xlink="http://www.w3.org/1999/xlink" version="1.1" width="246" height="178" viewBox="0 0 246 178">
<defs>
<path id="font_1_1" d="M.33399964 .30233766C.33999635 .32835389 .36299134 .42037965 .43299867 .42037965 .43798829 .42037965 .46199037 .42037965 .48298646 .40734864 .45498658 .402359 .43499757 .37734986 .43499757 .35334779 .43499757 .33735658 .44599916 .31835938 .47299195 .31835938 .49499513 .31835938 .5269928 .3363495 .5269928 .37635804 .5269928 .42837525 .46798707 .4423828 .43399049 .4423828 .37599183 .4423828 .34098817 .38935853 .32899476 .36634828 .3039856 .43237306 .25 .4423828 .22099304 .4423828 .116989139 .4423828 .05999756 .3133545 .05999756 .28834535 .05999756 .27833558 .069992069 .27833558 .07199097 .27833558 .07998657 .27833558 .08299255 .28033448 .084991458 .28933717 .11898804 .39535523 .18499756 .42037965 .21899414 .42037965 .23799134 .42037965 .272995 .4113617 .272995 .35334779 .272995 .32235719 .2559967 .25532533 .21899414 .11528015 .20298767 .053268434 .16799927 .011245728 .12399292 .011245728 .117996219 .011245728 .09498596 .011245728 .07398987 .024276734 .09899902 .029266358 .12098694 .05027771 .12098694 .07827759 .12098694 .105270389 .09899902 .11328125 .083999637 .11328125 .053985597 .11328125 .0289917 .08728027 .0289917 .055267335 .0289917 .009246826 .07899475-.0107421879 .12298584-.0107421879 .18899536-.0107421879 .22499085 .059280397 .22799683 .0652771 .23999024 .028274537 .27598573-.0107421879 .33599855-.0107421879 .43899537-.0107421879 .49598695 .118270877 .49598695 .14328003 .49598695 .1532898 .4869995 .1532898 .48399354 .1532898 .47499085 .1532898 .47299195 .14929199 .47099305 .14228821 .43798829 .03527832 .36999513 .011245728 .33799745 .011245728 .29899598 .011245728 .2829895 .043273927 .2829895 .07727051 .2829895 .09927368 .2889862 .121276859 .2999878 .16529846L.33399964 .30233766Z"/>
<path id="font_1_2" d="M.48599244 .38136292C.48999024 .39537049 .48999024 .39736939 .48999024 .40437318 .48999024 .42237855 .47599793 .43138124 .46099855 .43138124 .45098878 .43138124 .43499757 .42536927 .42599488 .41036988 .42399598 .405365 .41600038 .37435914 .4119873 .35635377 .40499879 .33035279 .397995 .30334474 .3919983 .27633668L.34700013 .09628296C.34298707 .08126831 .2999878 .011245728 .23399353 .011245728 .18299866 .011245728 .17199707 .055267335 .17199707 .0922699 .17199707 .1382904 .18899536 .20030213 .22299195 .28833009 .23899842 .3293457 .24299622 .3403473 .24299622 .36035157 .24299622 .405365 .21099854 .4423828 .16099549 .4423828 .06599426 .4423828 .0289917 .29733277 .0289917 .28833009 .0289917 .27833558 .038986207 .27833558 .040985109 .27833558 .050994874 .27833558 .051986696 .28033448 .056991579 .29634095 .083999637 .3903656 .12399292 .42037965 .1579895 .42037965 .1659851 .42037965 .18299866 .42037965 .18299866 .3883667 .18299866 .36335755 .17298889 .3373413 .1659851 .31834413 .12599182 .21231079 .10798645 .1552887 .10798645 .10827637 .10798645 .019256592 .17098999-.0107421879 .22999573-.0107421879 .2689972-.0107421879 .30299378 .0062561037 .33099366 .03425598 .31799317-.017745972 .30599977-.06674194 .2659912-.11973572 .23999024-.15385437 .20199585-.18309021 .1559906-.18309021 .14199829-.18309021 .09700012-.18005371 .07998657-.14074707 .09599304-.14074707 .10899353-.14074707 .12298584-.1287384 .1329956-.11973572 .14299011-.10673523 .14299011-.08773804 .14299011-.056747438 .115997318-.052734376 .10598755-.052734376 .08299255-.052734376 .049987794-.068740848 .049987794-.11773682 .049987794-.16796875 .09399414-.20507813 .1559906-.20507813 .25898744-.20507813 .3619995-.11373901 .3899994-.00074768069L.48599244 .38136292Z"/>
<path id="font_2_1" d="M.6589966 .23046875C.6759949 .23046875 .69400027 .23046875 .69400027 .25045777 .69400027 .27046205 .6759949 .27046205 .6589966 .27046205H.117996219C.100997928 .27046205 .08299255 .27046205 .08299255 .25045777 .08299255 .23046875 .100997928 .23046875 .117996219 .23046875H.6589966Z"/>
<path id="font_3_3" d="M.44898988 .20022583C.44898988 .3193512 .36698915 .41944886 .25898744 .41944886 .21099854 .41944886 .16799927 .40345765 .13198853 .36842347V.5637665C.1519928 .5577698 .18499756 .55078127 .21699524 .55078127 .33999635 .55078127 .4099884 .6417694 .4099884 .6547699 .4099884 .6607666 .40699769 .6657715 .3999939 .6657715 .39898683 .6657715 .39698792 .6657715 .3919983 .66278079 .37199403 .6537781 .32299806 .6337738 .2559967 .6337738 .21598816 .6337738 .16999817 .6407776 .12298584 .6617737 .114990238 .66477969 .11299133 .66477969 .11099243 .66477969 .100997928 .66477969 .100997928 .6567688 .100997928 .6407776V.34439088C.100997928 .32637025 .100997928 .31835938 .114990238 .31835938 .12199402 .31835938 .12399292 .32136537 .12799073 .32736207 .13899231 .3433838 .17599488 .39746095 .25698854 .39746095 .30899049 .39746095 .33399964 .35139466 .34199525 .33337403 .35798646 .29632569 .3600006 .25727845 .3600006 .20722962 .3600006 .17222595 .3600006 .11222839 .33599855 .07035828 .31199647 .031463624 .2749939 .0055389406 .22898865 .0055389406 .1559906 .0055389406 .09899902 .058380128 .08198547 .11723328 .084991458 .1162262 .08799744 .115234378 .09899902 .115234378 .13198853 .115234378 .14898682 .14022827 .14898682 .16423035 .14898682 .18823242 .13198853 .21322632 .09899902 .21322632 .084991458 .21322632 .049987794 .20622254 .049987794 .16023255 .049987794 .07434082 .11898804-.022460938 .23098755-.022460938 .34700013-.022460938 .44898988 .073349 .44898988 .20022583Z"/>
<path id="font_3_2" d="M.2939911 .64004519C.2939911 .66400149 .2939911 .6660156 .2709961 .6660156 .20899964 .60227969 .12098694 .60227969 .08898926 .60227969V.57128909C.10899353 .57128909 .16799927 .57128909 .21998596 .5972748V.07902527C.21998596 .042999269 .21699524 .0309906 .1269989 .0309906H.09498596V0C.12998963 .0029907227 .21699524 .0029907227 .25698854 .0029907227 .29699708 .0029907227 .38398744 .0029907227 .4189911 0V.0309906H.3869934C.29699708 .0309906 .2939911 .041992189 .2939911 .07902527V.64004519Z"/>
<path id="font_3_1" d="M.45999146 .31976319C.45999146 .39982606 .45498658 .47988893 .41999818 .5539398 .37399293 .65000918 .2919922 .6660156 .25 .6660156 .18998719 .6660156 .116989139 .64001467 .07598877 .54693606 .04399109 .47789 .038986207 .39982606 .038986207 .31976319 .038986207 .24472046 .042999269 .15464783 .083999637 .07859802 .1269989-.0024719239 .19999695-.022460938 .24899292-.022460938 .30299378-.022460938 .3789978-.0014648438 .4229889 .09359741 .45498658 .16265869 .45999146 .2407074 .45999146 .31976319M.24899292-.00047302247C.20999146-.00047302247 .15098572 .024551392 .1329956 .12062073 .12199402 .18066406 .12199402 .2727356 .12199402 .3317871 .12199402 .39582826 .12199402 .46188355 .12998963 .5159149 .14898682 .63500979 .22399903 .64401248 .24899292 .64401248 .28199769 .64401248 .34799195 .6259918 .36698915 .52693179 .3769989 .47088624 .3769989 .39482118 .3769989 .3317871 .3769989 .25672914 .3769989 .18867493 .3659973 .12461853 .35099793 .029556275 .2939911-.00047302247 .24899292-.00047302247Z"/>
</defs>
<path transform="matrix(1.00006,0,0,-1.00008,115.20301,162.31395)" stroke-width=".3985" stroke-linecap="butt" stroke-miterlimit="10" stroke-linejoin="miter" fill="none" stroke="#00aeef" d="M-113.3855 0H113.3855M-113.3855 14.17339H113.3855M-113.3855 28.3468H113.3855M-113.3855 42.5202H113.3855M-113.3855 56.69362H113.3855M-113.3855 70.867H113.3855M-113.3855 85.04042H113.3855M-113.3855 99.21382H113.3855M-113.3855 113.38724H113.3855M-113.3855 127.56062H113.3855M-113.3855 141.72905H113.3855M-113.3855 0V141.73404M-90.70839 0V141.73404M-68.0313 0V141.73404M-45.35419 0V141.73404M-22.6771 0V141.73404M0 0V141.73404M22.6771 0V141.73404M45.35419 0V141.73404M68.0313 0V141.73404M90.70839 0V141.73404M113.38152 0V141.73404M113.3855 141.73404"/>
<path transform="matrix(1.00006,0,0,-1.00008,115.20301,162.31395)" stroke-width="1.19553" stroke-linecap="butt" stroke-miterlimit="10" stroke-linejoin="miter" fill="none" stroke="#000000" d="M-113.3855 0H118.3157"/>
<path transform="matrix(1.00006,0,0,-1.00008,233.5258,162.31395)" d="M1.27522 0C-.31879 .31879-1.91284 .9564-3.8257 2.07224-1.91284 .6376-1.91284-.6376-3.8257-2.07224-1.91284-.9564-.31879-.31879 1.27522 0Z"/>
<path transform="matrix(1.00006,0,0,-1.00008,233.5258,162.31395)" stroke-width="1.19553" stroke-linecap="butt" stroke-linejoin="round" fill="none" stroke="#000000" d="M1.27522 0C-.31879 .31879-1.91284 .9564-3.8257 2.07224-1.91284 .6376-1.91284-.6376-3.8257-2.07224-1.91284-.9564-.31879-.31879 1.27522 0Z"/>
<use data-text="x" xlink:href="#font_1_1" transform="matrix(9.963197,0,0,-9.963397,239.31745,164.45912)"/>
<path transform="matrix(1.00006,0,0,-1.00008,115.20301,162.31395)" stroke-width="1.19553" stroke-linecap="butt" stroke-miterlimit="10" stroke-linejoin="miter" fill="none" stroke="#000000" d="M0 0V148.36518"/>
<path transform="matrix(0,-1.00008,-1.00006,-0,115.20301,13.936905)" d="M1.27522 0C-.31879 .31879-1.91284 .9564-3.8257 2.07224-1.91284 .6376-1.91284-.6376-3.8257-2.07224-1.91284-.9564-.31879-.31879 1.27522 0Z"/>
<path transform="matrix(0,-1.00008,-1.00006,-0,115.20301,13.936905)" stroke-width="1.19553" stroke-linecap="butt" stroke-linejoin="round" fill="none" stroke="#000000" d="M1.27522 0C-.31879 .31879-1.91284 .9564-3.8257 2.07224-1.91284 .6376-1.91284-.6376-3.8257-2.07224-1.91284-.9564-.31879-.31879 1.27522 0Z"/>
<use data-text="y" xlink:href="#font_1_2" transform="matrix(9.963197,0,0,-9.963397,112.581859,6.2074739)"/>
<path transform="matrix(1.00006,0,0,-1.00008,115.20301,162.31395)" stroke-width=".3985" stroke-linecap="butt" stroke-miterlimit="10" stroke-linejoin="miter" fill="none" stroke="#000000" d="M-56.69275 4.25204V-4.25204"/>
<path transform="matrix(1.00006,0,0,-1.00008,115.20301,162.31395)" d="M-64.05414-15.68709H-49.33136V-6.44386H-64.05414Z" fill="#ffffff"/>
<use data-text="&#x2212;" xlink:href="#font_2_1" transform="matrix(9.963197,0,0,-9.963397,52.141237,176.17606)"/>
<use data-text="5" xlink:href="#font_3_3" transform="matrix(9.963197,0,0,-9.963397,59.890687,176.17606)"/>
<path transform="matrix(1.00006,0,0,-1.00008,115.20301,162.31395)" stroke-width=".3985" stroke-linecap="butt" stroke-miterlimit="10" stroke-linejoin="miter" fill="none" stroke="#000000" d="M56.69275 4.25204V-4.25204"/>
<path transform="matrix(1.00006,0,0,-1.00008,115.20301,162.31395)" d="M53.20578-14.85684H60.179719V-6.44386H53.20578Z" fill="#ffffff"/>
<use data-text="5" xlink:href="#font_3_3" transform="matrix(9.963197,0,0,-9.963397,169.40827,176.17606)"/>
<path transform="matrix(1.00006,0,0,-1.00008,115.20301,162.31395)" stroke-width=".3985" stroke-linecap="butt" stroke-miterlimit="10" stroke-linejoin="miter" fill="none" stroke="#000000" d="M113.3855 4.25204V-4.25204"/>
<path transform="matrix(1.00006,0,0,-1.00008,115.20301,162.31395)" d="M107.40782-14.85684H119.36316V-6.44386H107.40782Z" fill="#ffffff"/>
<use data-text="1" xlink:href="#font_3_2" transform="matrix(9.963197,0,0,-9.963397,223.61351,176.17606)"/>
<use data-text="0" xlink:href="#font_3_1" transform="matrix(9.963197,0,0,-9.963397,228.5951,176.17606)"/>
<path transform="matrix(1.00006,0,0,-1.00008,115.20301,162.31395)" stroke-width=".3985" stroke-linecap="butt" stroke-miterlimit="10" stroke-linejoin="miter" fill="none" stroke="#000000" d="M3.40158 70.867H-3.40158"/>
<path transform="matrix(1.00006,0,0,-1.00008,115.20301,162.31395)" d="M-17.54875 66.66052H-5.5934097V75.0735H-17.54875Z" fill="#ffffff"/>
<use data-text="5" xlink:href="#font_3_3" transform="matrix(9.963197,0,0,-9.963397,98.65002,94.65154)"/>
<use data-text="0" xlink:href="#font_3_1" transform="matrix(9.963197,0,0,-9.963397,103.6316,94.65154)"/>
<path transform="matrix(1.00006,0,0,-1.00008,115.20301,162.31395)" stroke-width=".3985" stroke-linecap="butt" stroke-miterlimit="10" stroke-linejoin="miter" fill="none" stroke="#000000" d="M3.40158 141.73404H-3.40158"/>
<path transform="matrix(1.00006,0,0,-1.00008,115.20301,162.31395)" d="M-22.53014 137.52754H-5.59342V145.94052H-22.53014Z" fill="#ffffff"/>
<use data-text="1" xlink:href="#font_3_2" transform="matrix(9.963197,0,0,-9.963397,93.66772,23.77887)"/>
<use data-text="0" xlink:href="#font_3_1" transform="matrix(9.963197,0,0,-9.963397,98.6493,23.77887)"/>
<use data-text="0" xlink:href="#font_3_1" transform="matrix(9.963197,0,0,-9.963397,103.6309,23.77887)"/>
<path transform="matrix(1.00006,0,0,-1.00008,115.20301,162.31395)" stroke-width="1.19553" stroke-linecap="butt" stroke-miterlimit="10" stroke-linejoin="miter" fill="none" stroke="#ff0000" d="M-111.76639 97.73045C-110.82544 97.18336-110.82544 97.18336-109.8422 96.60669-108.85895 96.03003-107.28215 95.09857-106.2989 94.5156-105.31564 93.93262-103.73886 92.99463-102.7556 92.40501-101.77235 91.81543-100.19554 90.8626-99.2123 90.26611-98.22905 89.66965-96.65225 88.70946-95.669 88.10602-94.68576 87.5026-93.10895 86.52998-92.1257 85.91695-91.14246 85.30392-89.56566 84.30821-88.58241 83.68765-87.59915 83.06708-86.02237 82.07118-85.03911 81.44429-84.05586 80.81738-82.47906 79.80571-81.49582 79.16936-80.51257 78.533-78.93576 77.50386-77.95251 76.85788-76.96927 76.21188-75.39247 75.16968-74.40923 74.51352-73.42598 73.85736-71.84918 72.79628-70.86594 72.12872-69.88268 71.46117-68.30588 70.38087-67.32262 69.7022-66.33937 69.0235-64.76257 67.92781-63.77933 67.23715-62.79608 66.54648-61.21928 65.42882-60.23604 64.72432-59.25279 64.01982-57.676 62.87859-56.69275 62.15959-55.7095 61.4406-54.13269 60.27701-53.14944 59.5423-52.16618 58.80759-50.5894 57.61589-49.60614 56.86424-48.6229 56.11261-47.04608 54.89609-46.06284 54.12498-45.07959 53.35387-43.50279 52.0985-42.51955 51.30656-41.5363 50.51462-39.9595 49.23143-38.97626 48.4172-37.99301 47.60297-36.4162 46.27895-35.43295 45.4381-34.44969 44.59724-32.87291 43.22813-31.88965 42.35692-30.9064 41.4857-29.3296 40.06557-28.34636 39.15895-27.36311 38.25232-25.78632 36.7712-24.80307 35.82256-23.81982 34.87392-22.24301 33.32042-21.25977 32.32182-20.27652 31.32323-18.69972 29.68718-17.71648 28.62535-16.73322 27.56354-15.15642 25.81467-14.17316 24.66893-13.18991 23.52316-11.61311 21.63351-10.62987 20.36755-9.64662 19.1016-8.06982 17.01202-7.08658 15.54474-6.10333 14.07748-4.52654 11.94923-3.54329 9.79242-2.56004 7.63562-.98325 0 0 0 .98325 0 2.56004 7.63562 3.54329 9.79242 4.52654 11.94923 6.10333 14.07748 7.08658 15.54474 8.06982 17.01202 9.64662 19.1016 10.62987 20.36755 11.61311 21.63351 13.18991 23.52316 14.17316 24.66893 15.15642 25.81467 16.73322 27.56354 17.71648 28.62535 18.69972 29.68718 20.27652 31.32323 21.25977 32.32182 22.24301 33.32042 23.81982 34.87392 24.80307 35.82256 25.78632 36.7712 27.36311 38.25232 28.34636 39.15895 29.3296 40.06557 30.9064 41.4857 31.88965 42.35692 32.87291 43.22813 34.44969 44.59724 35.43295 45.4381 36.4162 46.27895 37.99301 47.60297 38.97626 48.4172 39.9595 49.23143 41.5363 50.51462 42.51955 51.30656 43.50279 52.0985 45.07959 53.35387 46.06284 54.12498 47.04608 54.89609 48.6229 56.11261 49.60614 56.86424 50.5894 57.61589 52.16618 58.80759 53.14944 59.5423 54.13269 60.27701 55.7095 61.4406 56.69275 62.15959 57.676 62.87859 59.25279 64.01982 60.23604 64.72432 61.21928 65.42882 62.79608 66.54648 63.77933 67.23715 64.76257 67.92781 66.33937 69.0235 67.32262 69.7022 68.30588 70.38087 69.88268 71.46117 70.86594 72.12872 71.84918 72.79628 73.42598 73.85736 74.40923 74.51352 75.39247 75.16968 76.96927 76.21188 77.95251 76.85788 78.93576 77.50386 80.51257 78.533 81.49582 79.16936 82.47906 79.80571 84.05586 80.81738 85.03911 81.44429 86.02237 82.07118 87.59915 83.06708 88.58241 83.68765 89.56566 84.30821 91.14246 85.30392 92.1257 85.91695 93.10895 86.52998 94.68576 87.5026 95.669 88.10602 96.65225 88.70946 98.22905 89.66965 99.2123 90.26611 100.19554 90.8626 101.77235 91.81543 102.7556 92.40501 103.73886 92.99463 105.31564 93.93262 106.2989 94.5156 107.28215 95.09857 108.85895 96.03003 109.8422 96.60669 110.82544 97.18336 113.3855 98.67186 111.76639 97.73045"/>
<path transform="matrix(-.86451187,-.5026602,-.50265017,.86452916,3.429924,64.57569)" d="M1.27522 0C-.31879 .31879-1.91284 .9564-3.8257 2.07224-1.91284 .6376-1.91284-.6376-3.8257-2.07224-1.91284-.9564-.31879-.31879 1.27522 0Z" fill="#ff0000"/>
<path transform="matrix(-.86451187,-.5026602,-.50265017,.86452916,3.429924,64.57569)" stroke-width="1.19553" stroke-linecap="butt" stroke-linejoin="round" fill="none" stroke="#ff0000" d="M1.27522 0C-.31879 .31879-1.91284 .9564-3.8257 2.07224-1.91284 .6376-1.91284-.6376-3.8257-2.07224-1.91284-.9564-.31879-.31879 1.27522 0Z"/>
<path transform="matrix(.86451187,-.5026602,-.50265017,-.86452916,226.9761,64.57569)" d="M1.27522 0C-.31879 .31879-1.91284 .9564-3.8257 2.07224-1.91284 .6376-1.91284-.6376-3.8257-2.07224-1.91284-.9564-.31879-.31879 1.27522 0Z" fill="#ff0000"/>
<path transform="matrix(.86451187,-.5026602,-.50265017,-.86452916,226.9761,64.57569)" stroke-width="1.19553" stroke-linecap="butt" stroke-linejoin="round" fill="none" stroke="#ff0000" d="M1.27522 0C-.31879 .31879-1.91284 .9564-3.8257 2.07224-1.91284 .6376-1.91284-.6376-3.8257-2.07224-1.91284-.9564-.31879-.31879 1.27522 0Z"/>
</svg>
