<svg xmlns="http://www.w3.org/2000/svg" xmlns:xlink="http://www.w3.org/1999/xlink" version="1.1" width="157" height="155" viewBox="0 0 157 155">
<defs>
<path id="font_1_1" d="M.33399964 .30233766C.33999635 .32835389 .36299134 .42037965 .43299867 .42037965 .43798829 .42037965 .46199037 .42037965 .48298646 .40734864 .45498658 .402359 .43499757 .37734986 .43499757 .35334779 .43499757 .33735658 .44599916 .31835938 .47299195 .31835938 .49499513 .31835938 .5269928 .3363495 .5269928 .37635804 .5269928 .42837525 .46798707 .4423828 .43399049 .4423828 .37599183 .4423828 .34098817 .38935853 .32899476 .36634828 .3039856 .43237306 .25 .4423828 .22099304 .4423828 .116989139 .4423828 .05999756 .3133545 .05999756 .28834535 .05999756 .27833558 .069992069 .27833558 .07199097 .27833558 .07998657 .27833558 .08299255 .28033448 .084991458 .28933717 .11898804 .39535523 .18499756 .42037965 .21899414 .42037965 .23799134 .42037965 .272995 .4113617 .272995 .35334779 .272995 .32235719 .2559967 .25532533 .21899414 .11528015 .20298767 .053268434 .16799927 .011245728 .12399292 .011245728 .117996219 .011245728 .09498596 .011245728 .07398987 .024276734 .09899902 .029266358 .12098694 .05027771 .12098694 .07827759 .12098694 .105270389 .09899902 .11328125 .083999637 .11328125 .053985597 .11328125 .0289917 .08728027 .0289917 .055267335 .0289917 .009246826 .07899475-.0107421879 .12298584-.0107421879 .18899536-.0107421879 .22499085 .059280397 .22799683 .0652771 .23999024 .028274537 .27598573-.0107421879 .33599855-.0107421879 .43899537-.0107421879 .49598695 .118270877 .49598695 .14328003 .49598695 .1532898 .4869995 .1532898 .48399354 .1532898 .47499085 .1532898 .47299195 .14929199 .47099305 .14228821 .43798829 .03527832 .36999513 .011245728 .33799745 .011245728 .29899598 .011245728 .2829895 .043273927 .2829895 .07727051 .2829895 .09927368 .2889862 .121276859 .2999878 .16529846L.33399964 .30233766Z"/>
<path id="font_1_2" d="M.48599244 .38136292C.48999024 .39537049 .48999024 .39736939 .48999024 .40437318 .48999024 .42237855 .47599793 .43138124 .46099855 .43138124 .45098878 .43138124 .43499757 .42536927 .42599488 .41036988 .42399598 .405365 .41600038 .37435914 .4119873 .35635377 .40499879 .33035279 .397995 .30334474 .3919983 .27633668L.34700013 .09628296C.34298707 .08126831 .2999878 .011245728 .23399353 .011245728 .18299866 .011245728 .17199707 .055267335 .17199707 .0922699 .17199707 .1382904 .18899536 .20030213 .22299195 .28833009 .23899842 .3293457 .24299622 .3403473 .24299622 .36035157 .24299622 .405365 .21099854 .4423828 .16099549 .4423828 .06599426 .4423828 .0289917 .29733277 .0289917 .28833009 .0289917 .27833558 .038986207 .27833558 .040985109 .27833558 .050994874 .27833558 .051986696 .28033448 .056991579 .29634095 .083999637 .3903656 .12399292 .42037965 .1579895 .42037965 .1659851 .42037965 .18299866 .42037965 .18299866 .3883667 .18299866 .36335755 .17298889 .3373413 .1659851 .31834413 .12599182 .21231079 .10798645 .1552887 .10798645 .10827637 .10798645 .019256592 .17098999-.0107421879 .22999573-.0107421879 .2689972-.0107421879 .30299378 .0062561037 .33099366 .03425598 .31799317-.017745972 .30599977-.06674194 .2659912-.11973572 .23999024-.15385437 .20199585-.18309021 .1559906-.18309021 .14199829-.18309021 .09700012-.18005371 .07998657-.14074707 .09599304-.14074707 .10899353-.14074707 .12298584-.1287384 .1329956-.11973572 .14299011-.10673523 .14299011-.08773804 .14299011-.056747438 .115997318-.052734376 .10598755-.052734376 .08299255-.052734376 .049987794-.068740848 .049987794-.11773682 .049987794-.16796875 .09399414-.20507813 .1559906-.20507813 .25898744-.20507813 .3619995-.11373901 .3899994-.00074768069L.48599244 .38136292Z"/>
<path id="font_2_1" d="M.6589966 .23046875C.6759949 .23046875 .69400027 .23046875 .69400027 .25045777 .69400027 .27046205 .6759949 .27046205 .6589966 .27046205H.117996219C.100997928 .27046205 .08299255 .27046205 .08299255 .25045777 .08299255 .23046875 .100997928 .23046875 .117996219 .23046875H.6589966Z"/>
<path id="font_3_2" d="M.2939911 .64004519C.2939911 .66400149 .2939911 .6660156 .2709961 .6660156 .20899964 .60227969 .12098694 .60227969 .08898926 .60227969V.57128909C.10899353 .57128909 .16799927 .57128909 .21998596 .5972748V.07902527C.21998596 .042999269 .21699524 .0309906 .1269989 .0309906H.09498596V0C.12998963 .0029907227 .21699524 .0029907227 .25698854 .0029907227 .29699708 .0029907227 .38398744 .0029907227 .4189911 0V.0309906H.3869934C.29699708 .0309906 .2939911 .041992189 .2939911 .07902527V.64004519Z"/>
<path id="font_3_1" d="M.45999146 .31976319C.45999146 .39982606 .45498658 .47988893 .41999818 .5539398 .37399293 .65000918 .2919922 .6660156 .25 .6660156 .18998719 .6660156 .116989139 .64001467 .07598877 .54693606 .04399109 .47789 .038986207 .39982606 .038986207 .31976319 .038986207 .24472046 .042999269 .15464783 .083999637 .07859802 .1269989-.0024719239 .19999695-.022460938 .24899292-.022460938 .30299378-.022460938 .3789978-.0014648438 .4229889 .09359741 .45498658 .16265869 .45999146 .2407074 .45999146 .31976319M.24899292-.00047302247C.20999146-.00047302247 .15098572 .024551392 .1329956 .12062073 .12199402 .18066406 .12199402 .2727356 .12199402 .3317871 .12199402 .39582826 .12199402 .46188355 .12998963 .5159149 .14898682 .63500979 .22399903 .64401248 .24899292 .64401248 .28199769 .64401248 .34799195 .6259918 .36698915 .52693179 .3769989 .47088624 .3769989 .39482118 .3769989 .3317871 .3769989 .25672914 .3769989 .18867493 .3659973 .12461853 .35099793 .029556275 .2939911-.00047302247 .24899292-.00047302247Z"/>
</defs>
<path transform="matrix(1.00008,0,0,-1.00008,72.85179,86.05584)" stroke-width=".3985" stroke-linecap="butt" stroke-miterlimit="10" stroke-linejoin="miter" fill="none" stroke="#00aeef" d="M-63.77988-63.77988H63.77988M-63.77988-51.0239H63.77988M-63.77988-38.26791H63.77988M-63.77988-25.51193H63.77988M-63.77988-12.75595H63.77988M-63.77988 0H63.77988M-63.77988 12.75595H63.77988M-63.77988 25.51193H63.77988M-63.77988 38.26791H63.77988M-63.77988 51.0239H63.77988M-63.77988 63.77539H63.77988M-63.77988-63.77988V63.77988M-51.0239-63.77988V63.77988M-38.26791-63.77988V63.77988M-25.51193-63.77988V63.77988M-12.75595-63.77988V63.77988M0-63.77988V63.77988M12.75595-63.77988V63.77988M25.51193-63.77988V63.77988M38.26791-63.77988V63.77988M51.0239-63.77988V63.77988M63.77539-63.77988V63.77988M63.77988 63.77988"/>
<path transform="matrix(1.00008,0,0,-1.00008,72.85179,86.05584)" stroke-width="1.19553" stroke-linecap="butt" stroke-miterlimit="10" stroke-linejoin="miter" fill="none" stroke="#000000" d="M-63.77988 0H72.1117"/>
<path transform="matrix(1.00008,0,0,-1.00008,144.96927,86.05584)" d="M1.27522 0C-.31879 .31879-1.91284 .9564-3.8257 2.07224-1.91284 .6376-1.91284-.6376-3.8257-2.07224-1.91284-.9564-.31879-.31879 1.27522 0Z"/>
<path transform="matrix(1.00008,0,0,-1.00008,144.96927,86.05584)" stroke-width="1.19553" stroke-linecap="butt" stroke-linejoin="round" fill="none" stroke="#000000" d="M1.27522 0C-.31879 .31879-1.91284 .9564-3.8257 2.07224-1.91284 .6376-1.91284-.6376-3.8257-2.07224-1.91284-.9564-.31879-.31879 1.27522 0Z"/>
<use data-text="x" xlink:href="#font_1_1" transform="matrix(9.963397,0,0,-9.963397,150.76102,88.20101)"/>
<path transform="matrix(1.00008,0,0,-1.00008,72.85179,86.05584)" stroke-width="1.19553" stroke-linecap="butt" stroke-miterlimit="10" stroke-linejoin="miter" fill="none" stroke="#000000" d="M0-63.77988V72.1117"/>
<path transform="matrix(0,-1.00008,-1.00008,-0,72.85179,13.93837)" d="M1.27522 0C-.31879 .31879-1.91284 .9564-3.8257 2.07224-1.91284 .6376-1.91284-.6376-3.8257-2.07224-1.91284-.9564-.31879-.31879 1.27522 0Z"/>
<path transform="matrix(0,-1.00008,-1.00008,-0,72.85179,13.93837)" stroke-width="1.19553" stroke-linecap="butt" stroke-linejoin="round" fill="none" stroke="#000000" d="M1.27522 0C-.31879 .31879-1.91284 .9564-3.8257 2.07224-1.91284 .6376-1.91284-.6376-3.8257-2.07224-1.91284-.9564-.31879-.31879 1.27522 0Z"/>
<use data-text="y" xlink:href="#font_1_2" transform="matrix(9.963397,0,0,-9.963397,70.23058,6.2094576)"/>
<path transform="matrix(1.00008,0,0,-1.00008,72.85179,86.05584)" stroke-width=".3985" stroke-linecap="butt" stroke-miterlimit="10" stroke-linejoin="miter" fill="none" stroke="#000000" d="M-63.77988 1.9133V-1.9135"/>
<path transform="matrix(1.00008,0,0,-1.00008,72.85179,86.05584)" d="M-73.63197-13.34853H-53.927774V-4.1053H-73.63197Z" fill="#ffffff"/>
<use data-text="&#x2212;" xlink:href="#font_2_1" transform="matrix(9.963397,0,0,-9.963397,.2099762,97.578769)"/>
<use data-text="1" xlink:href="#font_3_2" transform="matrix(9.963397,0,0,-9.963397,7.9595949,97.578769)"/>
<use data-text="0" xlink:href="#font_3_1" transform="matrix(9.963397,0,0,-9.963397,12.941284,97.578769)"/>
<path transform="matrix(1.00008,0,0,-1.00008,72.85179,86.05584)" stroke-width=".3985" stroke-linecap="butt" stroke-miterlimit="10" stroke-linejoin="miter" fill="none" stroke="#000000" d="M1.9133-63.77988H-1.9135"/>
<path transform="matrix(1.00008,0,0,-1.00008,72.85179,86.05584)" d="M-23.8095-68.40149H-4.105299V-59.15826H-23.8095Z" fill="#ffffff"/>
<use data-text="&#x2212;" xlink:href="#font_2_1" transform="matrix(9.963397,0,0,-9.963397,50.036966,152.63617)"/>
<use data-text="1" xlink:href="#font_3_2" transform="matrix(9.963397,0,0,-9.963397,57.786584,152.63617)"/>
<use data-text="0" xlink:href="#font_3_1" transform="matrix(9.963397,0,0,-9.963397,62.768274,152.63617)"/>
<path transform="matrix(1.00008,0,0,-1.00008,72.85179,86.05584)" stroke-width=".3985" stroke-linecap="butt" stroke-miterlimit="10" stroke-linejoin="miter" fill="none" stroke="#000000" d="M63.77988 1.9133V-1.9135"/>
<path transform="matrix(1.00008,0,0,-1.00008,72.85179,86.05584)" d="M57.8022-12.5183H69.75754V-4.10532H57.8022Z" fill="#ffffff"/>
<use data-text="1" xlink:href="#font_3_2" transform="matrix(9.963397,0,0,-9.963397,131.6545,97.578769)"/>
<use data-text="0" xlink:href="#font_3_1" transform="matrix(9.963397,0,0,-9.963397,136.63619,97.578769)"/>
<path transform="matrix(1.00008,0,0,-1.00008,72.85179,86.05584)" stroke-width=".3985" stroke-linecap="butt" stroke-miterlimit="10" stroke-linejoin="miter" fill="none" stroke="#000000" d="M1.9133 63.77988H-1.9135"/>
<path transform="matrix(1.00008,0,0,-1.00008,72.85179,86.05584)" d="M-16.06065 59.57338H-4.1053097V67.98636H-16.06065Z" fill="#ffffff"/>
<use data-text="1" xlink:href="#font_3_2" transform="matrix(9.963397,0,0,-9.963397,57.78659,25.480996)"/>
<use data-text="0" xlink:href="#font_3_1" transform="matrix(9.963397,0,0,-9.963397,62.76828,25.480996)"/>
<path transform="matrix(1.00008,0,0,-1.00008,72.85179,86.05584)" stroke-width="1.19553" stroke-linecap="butt" stroke-miterlimit="10" stroke-linejoin="miter" fill="none" stroke="#d73589" d="M-33.9635 61.91862C-33.55127 58.36014-33.55127 58.36014-33.31021 56.32436-33.06917 54.28856-32.68259 51.07663-32.44153 49.10649-32.20049 47.13634-31.8139 44.0294-31.57286 42.12492-31.3318 40.22043-30.94524 37.21904-30.70418 35.38022-30.46313 33.54141-30.07654 30.64517-29.83548 28.87201-29.59444 27.09886-29.20786 24.30798-28.96681 22.6005-28.72575 20.89302-28.33919 18.20746-28.09813 16.56566-27.85707 14.92386-27.4705 12.34366-27.22946 10.7675-26.9884 9.19135-26.6018 6.71635-26.36076 5.20586-26.1197 3.69534-25.73312 1.32568-25.49208-.1191-25.25102-1.56392-24.86446-3.82823-24.6234-5.2074-24.38235-6.58656-23.99577-8.7457-23.75473-10.05922-23.51367-11.37273-23.12709-13.4265-22.88603-14.67435-22.64499-15.92218-22.2584-17.87062-22.01735-19.05278-21.7763-20.23494-21.38972-22.07803-21.14867-23.19455-20.90762-24.31105-20.52106-26.04897-20.28-27.09981-20.03896-28.15067-19.65236-29.78322-19.4113-30.7684-19.17026-31.75359-18.78368-33.28079-18.54263-34.2003-18.30157-35.11983-17.915-36.54185-17.67395-37.39574-17.43289-38.2496-17.04633-39.56627-16.80527-40.35446-16.56422-41.14265-16.17763-42.354-15.93658-43.07652-15.69553-43.79904-15.30894-44.90503-15.0679-45.56189-14.82684-46.21875-14.44028-47.21956-14.19922-47.81076-13.95818-48.40198-13.5716-49.29742-13.33055-49.82295-13.0895-50.3485-12.7029-51.1386-12.46185-51.59846-12.2208-52.05836-11.83423-52.74327-11.59317-53.1375-11.35213-53.53172-10.96555-54.11128-10.72449-54.43985-10.48344-54.76839-10.09686-55.24263-9.85582-55.50551-9.61476-55.76837-9.22818-56.13725-8.98712-56.33447-8.74608-56.5317-8.3595-56.7954-8.11844-56.92696-7.8774-57.05852-7.49081-57.21686-7.24977-57.28276-7.00871-57.34865-6.62213-57.40167-6.38109-57.40189-6.14003-57.4021-5.75345-57.34976-5.5124-57.28432-5.27135-57.21889-4.88477-57.06134-4.64372-56.93027-4.40266-56.7992-4.01608-56.53627-3.77504-56.33952-3.53398-56.14279-3.14742-55.77473-2.90636-55.51231-2.66531-55.2499-2.27872-54.7763-2.03767-54.4482-1.79662-54.12012-1.41005-53.54137-1.16899-53.14761-.92795-52.75386-.54137-52.06975-.30031-51.61035-.05927-51.15096 .32729-50.36163 .56833-49.8366 .80939-49.31154 1.19597-48.41687 1.43703-47.82613 1.67807-47.23541 2.06465-46.23541 2.3057-45.57901 2.54675-44.92259 2.93332-43.81729 3.17438-43.0952 3.41542-42.37312 3.802-41.16245 4.04306-40.37471 4.2841-39.58696 4.6707-38.2711 4.91174-37.41772 5.1528-36.56433 5.53937-35.1431 5.78043-34.22406 6.02148-33.30502 6.40805-31.77863 6.64911-30.79391 6.89015-29.80919 7.27673-28.17728 7.51778-27.12688 7.75883-26.07648 8.14543-24.33937 8.38647-23.22336 8.62753-22.10733 9.0141-20.26503 9.25516-19.08334 9.4962-17.90164 9.88278-15.95383 10.12383-14.70645 10.36488-13.45906 10.75146-11.40611 10.99251-10.0931 11.23357-8.78004 11.62015-6.62173 11.8612-5.24301 12.10225-3.8643 12.48883-1.6006 12.72989-.15628 12.97093 1.28802 13.3575 3.65674 13.59856 5.16672 13.8396 6.67671 14.22618 9.15094 14.46724 10.72662 14.70828 12.30234 15.09488 14.88187 15.33594 16.52324 15.57698 18.1646 15.96356 20.84949 16.2046 22.5565 16.44566 24.26353 16.83223 27.0536 17.07329 28.8263 17.31433 30.59895 17.70091 33.49437 17.94196 35.33273 18.18301 37.17108 18.56961 40.17186 18.81065 42.07587 19.05171 43.97987 19.4383 47.08585 19.67934 49.05548 19.9204 51.02515 20.30696 54.23645 20.548 56.27179 20.78906 58.30713 21.41669 63.7248 21.2012 61.86432"/>
<path transform="matrix(-.1150092,-.99339947,-.99339947,.1150092,38.885576,24.132267)" d="M1.27522 0C-.31879 .31879-1.91284 .9564-3.8257 2.07224-1.91284 .6376-1.91284-.6376-3.8257-2.07224-1.91284-.9564-.31879-.31879 1.27522 0Z" fill="#d73589"/>
<path transform="matrix(-.1150092,-.99339947,-.99339947,.1150092,38.885576,24.132267)" stroke-width="1.19553" stroke-linecap="butt" stroke-linejoin="round" fill="none" stroke="#d73589" d="M1.27522 0C-.31879 .31879-1.91284 .9564-3.8257 2.07224-1.91284 .6376-1.91284-.6376-3.8257-2.07224-1.91284-.9564-.31879-.31879 1.27522 0Z"/>
<path transform="matrix(.115059208,-.99339947,-.99339947,-.115059208,94.05469,24.186573)" d="M1.27522 0C-.31879 .31879-1.91284 .9564-3.8257 2.07224-1.91284 .6376-1.91284-.6376-3.8257-2.07224-1.91284-.9564-.31879-.31879 1.27522 0Z" fill="#d73589"/>
<path transform="matrix(.115059208,-.99339947,-.99339947,-.115059208,94.05469,24.186573)" stroke-width="1.19553" stroke-linecap="butt" stroke-linejoin="round" fill="none" stroke="#d73589" d="M1.27522 0C-.31879 .31879-1.91284 .9564-3.8257 2.07224-1.91284 .6376-1.91284-.6376-3.8257-2.07224-1.91284-.9564-.31879-.31879 1.27522 0Z"/>
</svg>
