<svg xmlns="http://www.w3.org/2000/svg" xmlns:xlink="http://www.w3.org/1999/xlink" version="1.1" width="135" height="160" viewBox="0 0 135 160">
<defs>
<path id="font_1_1" d="M.33399964 .30233766C.33999635 .32835389 .36299134 .42037965 .43299867 .42037965 .43798829 .42037965 .46199037 .42037965 .48298646 .40734864 .45498658 .402359 .43499757 .37734986 .43499757 .35334779 .43499757 .33735658 .44599916 .31835938 .47299195 .31835938 .49499513 .31835938 .5269928 .3363495 .5269928 .37635804 .5269928 .42837525 .46798707 .4423828 .43399049 .4423828 .37599183 .4423828 .34098817 .38935853 .32899476 .36634828 .3039856 .43237306 .25 .4423828 .22099304 .4423828 .116989139 .4423828 .05999756 .3133545 .05999756 .28834535 .05999756 .27833558 .069992069 .27833558 .07199097 .27833558 .07998657 .27833558 .08299255 .28033448 .084991458 .28933717 .11898804 .39535523 .18499756 .42037965 .21899414 .42037965 .23799134 .42037965 .272995 .4113617 .272995 .35334779 .272995 .32235719 .2559967 .25532533 .21899414 .11528015 .20298767 .053268434 .16799927 .011245728 .12399292 .011245728 .117996219 .011245728 .09498596 .011245728 .07398987 .024276734 .09899902 .029266358 .12098694 .05027771 .12098694 .07827759 .12098694 .105270389 .09899902 .11328125 .083999637 .11328125 .053985597 .11328125 .0289917 .08728027 .0289917 .055267335 .0289917 .009246826 .07899475-.0107421879 .12298584-.0107421879 .18899536-.0107421879 .22499085 .059280397 .22799683 .0652771 .23999024 .028274537 .27598573-.0107421879 .33599855-.0107421879 .43899537-.0107421879 .49598695 .118270877 .49598695 .14328003 .49598695 .1532898 .4869995 .1532898 .48399354 .1532898 .47499085 .1532898 .47299195 .14929199 .47099305 .14228821 .43798829 .03527832 .36999513 .011245728 .33799745 .011245728 .29899598 .011245728 .2829895 .043273927 .2829895 .07727051 .2829895 .09927368 .2889862 .121276859 .2999878 .16529846L.33399964 .30233766Z"/>
<path id="font_1_2" d="M.48599244 .38136292C.48999024 .39537049 .48999024 .39736939 .48999024 .40437318 .48999024 .42237855 .47599793 .43138124 .46099855 .43138124 .45098878 .43138124 .43499757 .42536927 .42599488 .41036988 .42399598 .405365 .41600038 .37435914 .4119873 .35635377 .40499879 .33035279 .397995 .30334474 .3919983 .27633668L.34700013 .09628296C.34298707 .08126831 .2999878 .011245728 .23399353 .011245728 .18299866 .011245728 .17199707 .055267335 .17199707 .0922699 .17199707 .1382904 .18899536 .20030213 .22299195 .28833009 .23899842 .3293457 .24299622 .3403473 .24299622 .36035157 .24299622 .405365 .21099854 .4423828 .16099549 .4423828 .06599426 .4423828 .0289917 .29733277 .0289917 .28833009 .0289917 .27833558 .038986207 .27833558 .040985109 .27833558 .050994874 .27833558 .051986696 .28033448 .056991579 .29634095 .083999637 .3903656 .12399292 .42037965 .1579895 .42037965 .1659851 .42037965 .18299866 .42037965 .18299866 .3883667 .18299866 .36335755 .17298889 .3373413 .1659851 .31834413 .12599182 .21231079 .10798645 .1552887 .10798645 .10827637 .10798645 .019256592 .17098999-.0107421879 .22999573-.0107421879 .2689972-.0107421879 .30299378 .0062561037 .33099366 .03425598 .31799317-.017745972 .30599977-.06674194 .2659912-.11973572 .23999024-.15385437 .20199585-.18309021 .1559906-.18309021 .14199829-.18309021 .09700012-.18005371 .07998657-.14074707 .09599304-.14074707 .10899353-.14074707 .12298584-.1287384 .1329956-.11973572 .14299011-.10673523 .14299011-.08773804 .14299011-.056747438 .115997318-.052734376 .10598755-.052734376 .08299255-.052734376 .049987794-.068740848 .049987794-.11773682 .049987794-.16796875 .09399414-.20507813 .1559906-.20507813 .25898744-.20507813 .3619995-.11373901 .3899994-.00074768069L.48599244 .38136292Z"/>
<path id="font_2_2" d="M.2939911 .64004519C.2939911 .66400149 .2939911 .6660156 .2709961 .6660156 .20899964 .60227969 .12098694 .60227969 .08898926 .60227969V.57128909C.10899353 .57128909 .16799927 .57128909 .21998596 .5972748V.07902527C.21998596 .042999269 .21699524 .0309906 .1269989 .0309906H.09498596V0C.12998963 .0029907227 .21699524 .0029907227 .25698854 .0029907227 .29699708 .0029907227 .38398744 .0029907227 .4189911 0V.0309906H.3869934C.29699708 .0309906 .2939911 .041992189 .2939911 .07902527V.64004519Z"/>
<path id="font_2_1" d="M.45999146 .31976319C.45999146 .39982606 .45498658 .47988893 .41999818 .5539398 .37399293 .65000918 .2919922 .6660156 .25 .6660156 .18998719 .6660156 .116989139 .64001467 .07598877 .54693606 .04399109 .47789 .038986207 .39982606 .038986207 .31976319 .038986207 .24472046 .042999269 .15464783 .083999637 .07859802 .1269989-.0024719239 .19999695-.022460938 .24899292-.022460938 .30299378-.022460938 .3789978-.0014648438 .4229889 .09359741 .45498658 .16265869 .45999146 .2407074 .45999146 .31976319M.24899292-.00047302247C.20999146-.00047302247 .15098572 .024551392 .1329956 .12062073 .12199402 .18066406 .12199402 .2727356 .12199402 .3317871 .12199402 .39582826 .12199402 .46188355 .12998963 .5159149 .14898682 .63500979 .22399903 .64401248 .24899292 .64401248 .28199769 .64401248 .34799195 .6259918 .36698915 .52693179 .3769989 .47088624 .3769989 .39482118 .3769989 .3317871 .3769989 .25672914 .3769989 .18867493 .3659973 .12461853 .35099793 .029556275 .2939911-.00047302247 .24899292-.00047302247Z"/>
<path id="font_2_3" d="M.1269989 .07699585 .23298645 .18003845C.3889923 .31811524 .44898988 .3721466 .44898988 .47216798 .44898988 .5860901 .35899354 .6660156 .23699951 .6660156 .12399292 .6660156 .049987794 .57411196 .049987794 .48516847 .049987794 .4291687 .099990848 .4291687 .102996829 .4291687 .11999512 .4291687 .15499878 .44117738 .15499878 .48217774 .15499878 .5081787 .13699341 .5341797 .101989749 .5341797 .09399414 .5341797 .09199524 .5341797 .08898926 .5331726 .11199951 .59806826 .1659851 .63500979 .22399903 .63500979 .31498719 .63500979 .35798646 .5541382 .35798646 .47216798 .35798646 .39215089 .30799867 .31311036 .25299073 .25108338L.06098938 .036987306C.049987794 .025985718 .049987794 .023986817 .049987794 0H.42099L.44898988 .17404175H.42399598C.4189911 .14402771 .4119873 .1000061 .4019928 .084991458 .394989 .07699585 .32899476 .07699585 .30699159 .07699585H.1269989Z"/>
<path id="font_2_4" d="M.2899933 .35191346C.37199403 .37893678 .42999269 .4490509 .42999269 .52809146 .42999269 .6100464 .34199525 .6660156 .24598694 .6660156 .14498902 .6660156 .068984989 .60606387 .068984989 .53009036 .068984989 .49710084 .09098816 .47808839 .11999512 .47808839 .15098572 .47808839 .17098999 .50009158 .17098999 .5290985 .17098999 .57910159 .12399292 .57910159 .10899353 .57910159 .13999939 .62802127 .20599365 .64100649 .24198914 .64100649 .2829895 .64100649 .33799745 .6190338 .33799745 .5290985 .33799745 .51708987 .33599855 .45906068 .30999757 .4149933 .27999879 .36691285 .24598694 .36390687 .22099304 .36291505 .21299744 .36190797 .18899536 .35990907 .18199158 .35990907 .17399597 .35890199 .16699219 .35791017 .16699219 .3479004 .16699219 .33691407 .17399597 .33691407 .19099427 .33691407H.23498535C.31698609 .33691407 .35398866 .2686615 .35398866 .17037964 .35398866 .034469606 .2849884 .0055389406 .24099732 .0055389406 .19799805 .0055389406 .12298584 .022491456 .08799744 .08137512 .12298584 .07637024 .1539917 .09837341 .1539917 .1363678 .1539917 .17237854 .1269989 .19238281 .09799194 .19238281 .07398987 .19238281 .041992189 .17837525 .041992189 .1343689 .041992189 .043441774 .1349945-.022460938 .24398804-.022460938 .3659973-.022460938 .45700074 .06838989 .45700074 .17037964 .45700074 .252594 .3939972 .33088685 .2899933 .35191346Z"/>
<path id="font_3_1" d="M.6589966 .23046875C.6759949 .23046875 .69400027 .23046875 .69400027 .25045777 .69400027 .27046205 .6759949 .27046205 .6589966 .27046205H.117996219C.100997928 .27046205 .08299255 .27046205 .08299255 .25045777 .08299255 .23046875 .100997928 .23046875 .117996219 .23046875H.6589966Z"/>
<path id="font_2_5" d="M.2939911 .16503906V.07800293C.2939911 .041992189 .2919922 .0309906 .21798706 .0309906H.19699097V0C.23799134 .0029907227 .2899933 .0029907227 .33198548 .0029907227 .37399293 .0029907227 .4269867 .0029907227 .46798707 0V.0309906H.44699098C.37298585 .0309906 .37098695 .041992189 .37098695 .07800293V.16503906H.47099305V.19602967H.37098695V.65075686C.37098695 .67074587 .37098695 .6767578 .35499574 .6767578 .34599305 .6767578 .34298707 .6767578 .33499146 .66474917L.027999878 .19602967V.16503906H.2939911M.2999878 .19602967H.055999757L.2999878 .5688019V.19602967Z"/>
<path id="font_2_6" d="M.44898988 .20022583C.44898988 .3193512 .36698915 .41944886 .25898744 .41944886 .21099854 .41944886 .16799927 .40345765 .13198853 .36842347V.5637665C.1519928 .5577698 .18499756 .55078127 .21699524 .55078127 .33999635 .55078127 .4099884 .6417694 .4099884 .6547699 .4099884 .6607666 .40699769 .6657715 .3999939 .6657715 .39898683 .6657715 .39698792 .6657715 .3919983 .66278079 .37199403 .6537781 .32299806 .6337738 .2559967 .6337738 .21598816 .6337738 .16999817 .6407776 .12298584 .6617737 .114990238 .66477969 .11299133 .66477969 .11099243 .66477969 .100997928 .66477969 .100997928 .6567688 .100997928 .6407776V.34439088C.100997928 .32637025 .100997928 .31835938 .114990238 .31835938 .12199402 .31835938 .12399292 .32136537 .12799073 .32736207 .13899231 .3433838 .17599488 .39746095 .25698854 .39746095 .30899049 .39746095 .33399964 .35139466 .34199525 .33337403 .35798646 .29632569 .3600006 .25727845 .3600006 .20722962 .3600006 .17222595 .3600006 .11222839 .33599855 .07035828 .31199647 .031463624 .2749939 .0055389406 .22898865 .0055389406 .1559906 .0055389406 .09899902 .058380128 .08198547 .11723328 .084991458 .1162262 .08799744 .115234378 .09899902 .115234378 .13198853 .115234378 .14898682 .14022827 .14898682 .16423035 .14898682 .18823242 .13198853 .21322632 .09899902 .21322632 .084991458 .21322632 .049987794 .20622254 .049987794 .16023255 .049987794 .07434082 .11898804-.022460938 .23098755-.022460938 .34700013-.022460938 .44898988 .073349 .44898988 .20022583Z"/>
</defs>
<path transform="matrix(1.00003,0,0,-1.00005,28.006455,132.25896)" stroke-width=".3985" stroke-linecap="butt" stroke-miterlimit="10" stroke-linejoin="miter" fill="none" stroke="#00aeef" d="M-12.75595-22.6771H89.29184M-12.75595-11.33855H89.29184M-12.75595 0H89.29184M-12.75595 11.33855H89.29184M-12.75595 22.6771H89.29184M-12.75595 34.01564H89.29184M-12.75595 45.35419H89.29184M-12.75595 56.69275H89.29184M-12.75595 68.0313H89.29184M-12.75595 79.36984H89.29184M-12.75595 90.70839H89.29184M-12.75595 102.04694H89.29184M-12.75595 113.38152H89.29184M-12.75595-22.6771V113.3855M0-22.6771V113.3855M12.75595-22.6771V113.3855M25.51193-22.6771V113.3855M38.26791-22.6771V113.3855M51.0239-22.6771V113.3855M63.77988-22.6771V113.3855M76.53586-22.6771V113.3855M89.28735-22.6771V113.3855M89.29184 113.3855"/>
<path transform="matrix(1.00003,0,0,-1.00005,28.006455,132.25896)" stroke-width="1.19553" stroke-linecap="butt" stroke-miterlimit="10" stroke-linejoin="miter" fill="none" stroke="#000000" d="M-12.75595 0H95.0725"/>
<path transform="matrix(1.00003,0,0,-1.00005,123.08181,132.25896)" d="M1.27522 0C-.31879 .31879-1.91284 .9564-3.8257 2.07224-1.91284 .6376-1.91284-.6376-3.8257-2.07224-1.91284-.9564-.31879-.31879 1.27522 0Z"/>
<path transform="matrix(1.00003,0,0,-1.00005,123.08181,132.25896)" stroke-width="1.19553" stroke-linecap="butt" stroke-linejoin="round" fill="none" stroke="#000000" d="M1.27522 0C-.31879 .31879-1.91284 .9564-3.8257 2.07224-1.91284 .6376-1.91284-.6376-3.8257-2.07224-1.91284-.9564-.31879-.31879 1.27522 0Z"/>
<use data-text="x" xlink:href="#font_1_1" transform="matrix(9.962899,0,0,-9.963098,128.87348,134.40407)"/>
<path transform="matrix(1.00003,0,0,-1.00005,28.006455,132.25896)" stroke-width="1.19553" stroke-linecap="butt" stroke-miterlimit="10" stroke-linejoin="miter" fill="none" stroke="#000000" d="M0-22.6771V118.3157"/>
<path transform="matrix(0,-1.00005,-1.00003,-0,28.006455,13.937347)" d="M1.27522 0C-.31879 .31879-1.91284 .9564-3.8257 2.07224-1.91284 .6376-1.91284-.6376-3.8257-2.07224-1.91284-.9564-.31879-.31879 1.27522 0Z"/>
<path transform="matrix(0,-1.00005,-1.00003,-0,28.006455,13.937347)" stroke-width="1.19553" stroke-linecap="butt" stroke-linejoin="round" fill="none" stroke="#000000" d="M1.27522 0C-.31879 .31879-1.91284 .9564-3.8257 2.07224-1.91284 .6376-1.91284-.6376-3.8257-2.07224-1.91284-.9564-.31879-.31879 1.27522 0Z"/>
<use data-text="y" xlink:href="#font_1_2" transform="matrix(9.962899,0,0,-9.963098,25.385376,6.208664)"/>
<path transform="matrix(1.00003,0,0,-1.00005,28.006455,132.25896)" stroke-width=".3985" stroke-linecap="butt" stroke-miterlimit="10" stroke-linejoin="miter" fill="none" stroke="#000000" d="M25.51193 1.7007V-1.70087"/>
<path transform="matrix(1.00003,0,0,-1.00005,28.006455,132.25896)" d="M19.53426-12.30566H31.489602V-3.8926802H19.53426Z" fill="#ffffff"/>
<use data-text="1" xlink:href="#font_2_2" transform="matrix(9.962899,0,0,-9.963098,48.53807,143.56853)"/>
<use data-text="0" xlink:href="#font_2_1" transform="matrix(9.962899,0,0,-9.963098,53.519517,143.56853)"/>
<path transform="matrix(1.00003,0,0,-1.00005,28.006455,132.25896)" stroke-width=".3985" stroke-linecap="butt" stroke-miterlimit="10" stroke-linejoin="miter" fill="none" stroke="#000000" d="M51.0239 1.7007V-1.70087"/>
<path transform="matrix(1.00003,0,0,-1.00005,28.006455,132.25896)" d="M45.04622-12.30566H57.00156V-3.8926802H45.04622Z" fill="#ffffff"/>
<use data-text="2" xlink:href="#font_2_3" transform="matrix(9.962899,0,0,-9.963098,74.049839,143.56853)"/>
<use data-text="0" xlink:href="#font_2_1" transform="matrix(9.962899,0,0,-9.963098,79.03128,143.56853)"/>
<path transform="matrix(1.00003,0,0,-1.00005,28.006455,132.25896)" stroke-width=".3985" stroke-linecap="butt" stroke-miterlimit="10" stroke-linejoin="miter" fill="none" stroke="#000000" d="M76.53586 1.7007V-1.70087"/>
<path transform="matrix(1.00003,0,0,-1.00005,28.006455,132.25896)" d="M70.55818-12.30566H82.51352V-3.8926802H70.55818Z" fill="#ffffff"/>
<use data-text="3" xlink:href="#font_2_4" transform="matrix(9.962899,0,0,-9.963098,99.56261,143.56853)"/>
<use data-text="0" xlink:href="#font_2_1" transform="matrix(9.962899,0,0,-9.963098,104.54405,143.56853)"/>
<path transform="matrix(1.00003,0,0,-1.00005,28.006455,132.25896)" stroke-width=".3985" stroke-linecap="butt" stroke-miterlimit="10" stroke-linejoin="miter" fill="none" stroke="#000000" d="M1.9133-22.6771H-1.9135"/>
<path transform="matrix(1.00003,0,0,-1.00005,28.006455,132.25896)" d="M-28.79088-27.2987H-4.105301V-18.05547H-28.79088Z" fill="#ffffff"/>
<use data-text="&#x2212;" xlink:href="#font_3_1" transform="matrix(9.962899,0,0,-9.963098,.21061707,157.73224)"/>
<use data-text="1" xlink:href="#font_2_2" transform="matrix(9.962899,0,0,-9.963098,7.958847,157.73224)"/>
<use data-text="0" xlink:href="#font_2_1" transform="matrix(9.962899,0,0,-9.963098,12.9403,157.73224)"/>
<use data-text="0" xlink:href="#font_2_1" transform="matrix(9.962899,0,0,-9.963098,17.921738,157.73224)"/>
<path transform="matrix(1.00003,0,0,-1.00005,28.006455,132.25896)" stroke-width=".3985" stroke-linecap="butt" stroke-miterlimit="10" stroke-linejoin="miter" fill="none" stroke="#000000" d="M1.9133 22.6771H-1.9135"/>
<path transform="matrix(1.00003,0,0,-1.00005,28.006455,132.25896)" d="M-21.04204 18.4706H-4.10532V26.88358H-21.04204Z" fill="#ffffff"/>
<use data-text="1" xlink:href="#font_2_2" transform="matrix(9.962899,0,0,-9.963098,7.959854,112.790988)"/>
<use data-text="0" xlink:href="#font_2_1" transform="matrix(9.962899,0,0,-9.963098,12.941299,112.790988)"/>
<use data-text="0" xlink:href="#font_2_1" transform="matrix(9.962899,0,0,-9.963098,17.922753,112.790988)"/>
<path transform="matrix(1.00003,0,0,-1.00005,28.006455,132.25896)" stroke-width=".3985" stroke-linecap="butt" stroke-miterlimit="10" stroke-linejoin="miter" fill="none" stroke="#000000" d="M1.9133 45.35419H-1.9135"/>
<path transform="matrix(1.00003,0,0,-1.00005,28.006455,132.25896)" d="M-21.04204 41.14769H-4.10532V49.56067H-21.04204Z" fill="#ffffff"/>
<use data-text="2" xlink:href="#font_2_3" transform="matrix(9.962899,0,0,-9.963098,7.959854,90.112857)"/>
<use data-text="0" xlink:href="#font_2_1" transform="matrix(9.962899,0,0,-9.963098,12.941299,90.112857)"/>
<use data-text="0" xlink:href="#font_2_1" transform="matrix(9.962899,0,0,-9.963098,17.922753,90.112857)"/>
<path transform="matrix(1.00003,0,0,-1.00005,28.006455,132.25896)" stroke-width=".3985" stroke-linecap="butt" stroke-miterlimit="10" stroke-linejoin="miter" fill="none" stroke="#000000" d="M1.9133 68.0313H-1.9135"/>
<path transform="matrix(1.00003,0,0,-1.00005,28.006455,132.25896)" d="M-21.04204 63.8248H-4.10532V72.23778H-21.04204Z" fill="#ffffff"/>
<use data-text="3" xlink:href="#font_2_4" transform="matrix(9.962899,0,0,-9.963098,7.959854,67.43472)"/>
<use data-text="0" xlink:href="#font_2_1" transform="matrix(9.962899,0,0,-9.963098,12.941299,67.43472)"/>
<use data-text="0" xlink:href="#font_2_1" transform="matrix(9.962899,0,0,-9.963098,17.922753,67.43472)"/>
<path transform="matrix(1.00003,0,0,-1.00005,28.006455,132.25896)" stroke-width=".3985" stroke-linecap="butt" stroke-miterlimit="10" stroke-linejoin="miter" fill="none" stroke="#000000" d="M1.9133 90.70839H-1.9135"/>
<path transform="matrix(1.00003,0,0,-1.00005,28.006455,132.25896)" d="M-21.04204 86.50189H-4.10532V94.91487H-21.04204Z" fill="#ffffff"/>
<use data-text="4" xlink:href="#font_2_5" transform="matrix(9.962899,0,0,-9.963098,7.959854,44.756586)"/>
<use data-text="0" xlink:href="#font_2_1" transform="matrix(9.962899,0,0,-9.963098,12.941299,44.756586)"/>
<use data-text="0" xlink:href="#font_2_1" transform="matrix(9.962899,0,0,-9.963098,17.922753,44.756586)"/>
<path transform="matrix(1.00003,0,0,-1.00005,28.006455,132.25896)" stroke-width=".3985" stroke-linecap="butt" stroke-miterlimit="10" stroke-linejoin="miter" fill="none" stroke="#000000" d="M1.9133 113.3855H-1.9135"/>
<path transform="matrix(1.00003,0,0,-1.00005,28.006455,132.25896)" d="M-21.04204 109.179H-4.10532V117.59198H-21.04204Z" fill="#ffffff"/>
<use data-text="5" xlink:href="#font_2_6" transform="matrix(9.962899,0,0,-9.963098,7.959854,22.078454)"/>
<use data-text="0" xlink:href="#font_2_1" transform="matrix(9.962899,0,0,-9.963098,12.941299,22.078454)"/>
<use data-text="0" xlink:href="#font_2_1" transform="matrix(9.962899,0,0,-9.963098,17.922753,22.078454)"/>
<path transform="matrix(1.00003,0,0,-1.00005,28.006455,132.25896)" d="M40.18123-16.32735C40.18123-15.38806 39.3246-14.62663 38.26791-14.62663 37.21123-14.62663 36.35461-15.38806 36.35461-16.32735 36.35461-17.26663 37.21123-18.02805 38.26791-18.02805 39.3246-18.02805 40.18123-17.26663 40.18123-16.32735ZM38.26791-16.32735" fill="#d73589"/>
<path transform="matrix(1.00003,0,0,-1.00005,28.006455,132.25896)" stroke-width=".3985" stroke-linecap="butt" stroke-miterlimit="10" stroke-linejoin="miter" fill="none" stroke="#d73589" d="M40.18123-16.32735C40.18123-15.38806 39.3246-14.62663 38.26791-14.62663 37.21123-14.62663 36.35461-15.38806 36.35461-16.32735 36.35461-17.26663 37.21123-18.02805 38.26791-18.02805 39.3246-18.02805 40.18123-17.26663 40.18123-16.32735ZM38.26791-16.32735"/>
<path transform="matrix(1.00003,0,0,-1.00005,28.006455,132.25896)" d="M1.9133 85.7194C1.9133 86.65869 1.05669 87.4201 0 87.4201-1.05669 87.4201-1.9133 86.65869-1.9133 85.7194-1.9133 84.78012-1.05669 84.01869 0 84.01869 1.05669 84.01869 1.9133 84.78012 1.9133 85.7194ZM0 85.7194" fill="#d73589"/>
<path transform="matrix(1.00003,0,0,-1.00005,28.006455,132.25896)" stroke-width=".3985" stroke-linecap="butt" stroke-miterlimit="10" stroke-linejoin="miter" fill="none" stroke="#d73589" d="M1.9133 85.7194C1.9133 86.65869 1.05669 87.4201 0 87.4201-1.05669 87.4201-1.9133 86.65869-1.9133 85.7194-1.9133 84.78012-1.05669 84.01869 0 84.01869 1.05669 84.01869 1.9133 84.78012 1.9133 85.7194ZM0 85.7194"/>
<path transform="matrix(1.00003,0,0,-1.00005,28.006455,132.25896)" d="M24.8739 0C24.8739 .93927 24.01727 1.7007 22.96059 1.7007 21.9039 1.7007 21.04729 .93927 21.04729 0 21.04729-.93927 21.9039-1.7007 22.96059-1.7007 24.01727-1.7007 24.8739-.93927 24.8739 0ZM22.96059 0" fill="#d73589"/>
<path transform="matrix(1.00003,0,0,-1.00005,28.006455,132.25896)" stroke-width=".3985" stroke-linecap="butt" stroke-miterlimit="10" stroke-linejoin="miter" fill="none" stroke="#d73589" d="M24.8739 0C24.8739 .93927 24.01727 1.7007 22.96059 1.7007 21.9039 1.7007 21.04729 .93927 21.04729 0 21.04729-.93927 21.9039-1.7007 22.96059-1.7007 24.01727-1.7007 24.8739-.93927 24.8739 0ZM22.96059 0"/>
<path transform="matrix(1.00003,0,0,-1.00005,28.006455,132.25896)" d="M55.48836 0C55.48836 .93927 54.63174 1.7007 53.57504 1.7007 52.51836 1.7007 51.66174 .93927 51.66174 0 51.66174-.93927 52.51836-1.7007 53.57504-1.7007 54.63174-1.7007 55.48836-.93927 55.48836 0ZM53.57504 0" fill="#d73589"/>
<path transform="matrix(1.00003,0,0,-1.00005,28.006455,132.25896)" stroke-width=".3985" stroke-linecap="butt" stroke-miterlimit="10" stroke-linejoin="miter" fill="none" stroke="#d73589" d="M55.48836 0C55.48836 .93927 54.63174 1.7007 53.57504 1.7007 52.51836 1.7007 51.66174 .93927 51.66174 0 51.66174-.93927 52.51836-1.7007 53.57504-1.7007 54.63174-1.7007 55.48836-.93927 55.48836 0ZM53.57504 0"/>
<path transform="matrix(1.00003,0,0,-1.00005,28.006455,132.25896)" stroke-width="1.19553" stroke-linecap="butt" stroke-miterlimit="10" stroke-linejoin="miter" fill="none" stroke="#ff0000" d="M-4.56638 111.53743C-3.90253 107.58421-3.90253 107.58421-3.52843 105.40512-3.15434 103.22601-2.55443 99.78784-2.18036 97.67908-1.80626 95.57028-1.20634 92.24498-.83226 90.20648-.45818 88.16798 .1417 84.95525 .51578 82.98701 .88986 81.01878 1.48978 77.91878 1.86386 76.02083 2.23795 74.1229 2.83786 71.1356 3.21194 69.30794 3.58603 67.48029 4.18593 64.60571 4.56003 62.84834 4.93411 61.09099 5.53403 58.32915 5.90811 56.64204 6.2822 54.95493 6.88211 52.30566 7.25618 50.68884 7.63028 49.07204 8.23018 46.53564 8.60426 44.98912 8.97836 43.4426 9.57828 41.01877 9.95235 39.54251 10.32643 38.06628 10.92636 35.75534 11.30045 34.34938 11.67451 32.94342 12.27443 30.74503 12.64853 29.40935 13.0226 28.07368 13.62251 25.98817 13.9966 24.7228 14.37068 23.45741 14.9706 21.48447 15.34468 20.28934 15.71877 19.09422 16.31868 17.23401 16.69276 16.10918 17.06685 14.98434 17.66676 13.23686 18.04085 12.18231 18.41492 11.12778 19.01485 9.493 19.38893 8.50874 19.763 7.52449 20.36292 6.00244 20.73701 5.08846 21.1111 4.17445 21.711 2.76497 22.0851 1.92128 22.45917 1.0776 23.05908-.21884 23.43317-.9922 23.80727-1.76558 24.40718-2.9495 24.78125-3.65262 25.15535-4.35576 25.75526-5.42706 26.12933-6.0599 26.50342-6.69275 27.10333-7.6512 27.47742-8.21375 27.8515-8.7763 28.45142-9.62218 28.8255-10.11446 29.19958-10.60677 29.7995-11.33989 30.17358-11.76189 30.54767-12.1839 31.14758-12.80432 31.52165-13.15602 31.89575-13.50775 32.49567-14.01544 32.86974-14.29688 33.24384-14.57831 33.84375-14.97328 34.21783-15.18443 34.59192-15.39558 35.19183-15.67784 35.56592-15.81868 35.93999-15.95955 36.5399-16.12909 36.914-16.19966 37.28807-16.27025 37.88799-16.32704 38.26208-16.32735 38.63615-16.32767 39.23607-16.27188 39.61017-16.2019 39.98425-16.13196 40.58415-15.96327 40.95824-15.82301 41.33232-15.68277 41.93224-15.40154 42.30632-15.19101 42.68042-14.98047 43.28032-14.58635 43.6544-14.30553 44.02849-14.0247 44.62839-13.51804 45.00249-13.16693 45.37657-12.81583 45.97647-12.19643 46.35057-11.77505 46.72466-11.35367 47.32457-10.62154 47.69865-10.12988 48.07274-9.6382 48.67265-8.79337 49.04672-8.23141 49.42082-7.66943 50.02074-6.7119 50.3948-6.07965 50.7689-5.44739 51.36882-4.37712 51.74289-3.6746 52.11697-2.97206 52.7169-1.78903 53.09099-1.01627 53.46506-.24348 54.06497 1.05193 54.43906 1.89497 54.81314 2.73805 55.41306 4.14653 55.78716 5.0599 56.16122 5.97328 56.76114 7.4943 57.13522 8.47794 57.50931 9.4616 58.10922 11.0955 58.4833 12.14944 58.85739 13.20338 59.4573 14.94986 59.83139 16.07407 60.20546 17.19826 60.80539 19.05746 61.17947 20.25197 61.55356 21.44646 62.15346 23.41838 62.52756 24.68317 62.90164 25.94795 63.50154 28.0326 63.87564 29.36766 64.24971 30.70271 64.84962 32.90009 65.22371 34.30544 65.59781 35.71078 66.19772 38.02086 66.5718 39.49649 66.94589 40.97215 67.54579 43.39493 67.91988 44.94086 68.29396 46.48679 68.89389 49.02231 69.26796 50.63852 69.64204 52.25471 70.24196 54.90279 70.61604 56.58928 70.99013 58.27576 71.59004 61.03674 71.96413 62.7935 72.33821 64.55026 72.93813 67.42383 73.3122 69.25085 73.6863 71.0779 74.28621 74.06415 74.6603 75.96149 75.03438 77.85883 75.6343 80.95796 76.00838 82.92558 76.38246 84.89322 76.98238 88.10492 77.35645 90.1428 77.73053 92.1807 78.33044 95.50514 78.70454 97.61333 79.07861 99.7215 79.67853 103.15866 80.05263 105.33711 80.42671 107.5156 81.40071 113.31422 81.09047 111.4672"/>
<path transform="matrix(-.16559498,-.98619928,-.98617967,.16559828,23.439957,20.71598)" d="M1.27522 0C-.31879 .31879-1.91284 .9564-3.8257 2.07224-1.91284 .6376-1.91284-.6376-3.8257-2.07224-1.91284-.9564-.31879-.31879 1.27522 0Z" fill="#ff0000"/>
<path transform="matrix(-.16559498,-.98619928,-.98617967,.16559828,23.439957,20.71598)" stroke-width="1.19553" stroke-linecap="butt" stroke-linejoin="round" fill="none" stroke="#ff0000" d="M1.27522 0C-.31879 .31879-1.91284 .9564-3.8257 2.07224-1.91284 .6376-1.91284-.6376-3.8257-2.07224-1.91284-.9564-.31879-.31879 1.27522 0Z"/>
<path transform="matrix(.16563498,-.98619928,-.98617967,-.16563827,109.09936,20.78621)" d="M1.27522 0C-.31879 .31879-1.91284 .9564-3.8257 2.07224-1.91284 .6376-1.91284-.6376-3.8257-2.07224-1.91284-.9564-.31879-.31879 1.27522 0Z" fill="#ff0000"/>
<path transform="matrix(.16563498,-.98619928,-.98617967,-.16563827,109.09936,20.78621)" stroke-width="1.19553" stroke-linecap="butt" stroke-linejoin="round" fill="none" stroke="#ff0000" d="M1.27522 0C-.31879 .31879-1.91284 .9564-3.8257 2.07224-1.91284 .6376-1.91284-.6376-3.8257-2.07224-1.91284-.9564-.31879-.31879 1.27522 0Z"/>
</svg>
