<svg xmlns="http://www.w3.org/2000/svg" xmlns:xlink="http://www.w3.org/1999/xlink" version="1.1" width="159" height="180" viewBox="0 0 159 180">
<defs>
<path id="font_1_1" d="M.33399964 .30233766C.33999635 .32835389 .36299134 .42037965 .43299867 .42037965 .43798829 .42037965 .46199037 .42037965 .48298646 .40734864 .45498658 .402359 .43499757 .37734986 .43499757 .35334779 .43499757 .33735658 .44599916 .31835938 .47299195 .31835938 .49499513 .31835938 .5269928 .3363495 .5269928 .37635804 .5269928 .42837525 .46798707 .4423828 .43399049 .4423828 .37599183 .4423828 .34098817 .38935853 .32899476 .36634828 .3039856 .43237306 .25 .4423828 .22099304 .4423828 .116989139 .4423828 .05999756 .3133545 .05999756 .28834535 .05999756 .27833558 .069992069 .27833558 .07199097 .27833558 .07998657 .27833558 .08299255 .28033448 .084991458 .28933717 .11898804 .39535523 .18499756 .42037965 .21899414 .42037965 .23799134 .42037965 .272995 .4113617 .272995 .35334779 .272995 .32235719 .2559967 .25532533 .21899414 .11528015 .20298767 .053268434 .16799927 .011245728 .12399292 .011245728 .117996219 .011245728 .09498596 .011245728 .07398987 .024276734 .09899902 .029266358 .12098694 .05027771 .12098694 .07827759 .12098694 .105270389 .09899902 .11328125 .083999637 .11328125 .053985597 .11328125 .0289917 .08728027 .0289917 .055267335 .0289917 .009246826 .07899475-.0107421879 .12298584-.0107421879 .18899536-.0107421879 .22499085 .059280397 .22799683 .0652771 .23999024 .028274537 .27598573-.0107421879 .33599855-.0107421879 .43899537-.0107421879 .49598695 .118270877 .49598695 .14328003 .49598695 .1532898 .4869995 .1532898 .48399354 .1532898 .47499085 .1532898 .47299195 .14929199 .47099305 .14228821 .43798829 .03527832 .36999513 .011245728 .33799745 .011245728 .29899598 .011245728 .2829895 .043273927 .2829895 .07727051 .2829895 .09927368 .2889862 .121276859 .2999878 .16529846L.33399964 .30233766Z"/>
<path id="font_1_2" d="M.48599244 .38136292C.48999024 .39537049 .48999024 .39736939 .48999024 .40437318 .48999024 .42237855 .47599793 .43138124 .46099855 .43138124 .45098878 .43138124 .43499757 .42536927 .42599488 .41036988 .42399598 .405365 .41600038 .37435914 .4119873 .35635377 .40499879 .33035279 .397995 .30334474 .3919983 .27633668L.34700013 .09628296C.34298707 .08126831 .2999878 .011245728 .23399353 .011245728 .18299866 .011245728 .17199707 .055267335 .17199707 .0922699 .17199707 .1382904 .18899536 .20030213 .22299195 .28833009 .23899842 .3293457 .24299622 .3403473 .24299622 .36035157 .24299622 .405365 .21099854 .4423828 .16099549 .4423828 .06599426 .4423828 .0289917 .29733277 .0289917 .28833009 .0289917 .27833558 .038986207 .27833558 .040985109 .27833558 .050994874 .27833558 .051986696 .28033448 .056991579 .29634095 .083999637 .3903656 .12399292 .42037965 .1579895 .42037965 .1659851 .42037965 .18299866 .42037965 .18299866 .3883667 .18299866 .36335755 .17298889 .3373413 .1659851 .31834413 .12599182 .21231079 .10798645 .1552887 .10798645 .10827637 .10798645 .019256592 .17098999-.0107421879 .22999573-.0107421879 .2689972-.0107421879 .30299378 .0062561037 .33099366 .03425598 .31799317-.017745972 .30599977-.06674194 .2659912-.11973572 .23999024-.15385437 .20199585-.18309021 .1559906-.18309021 .14199829-.18309021 .09700012-.18005371 .07998657-.14074707 .09599304-.14074707 .10899353-.14074707 .12298584-.1287384 .1329956-.11973572 .14299011-.10673523 .14299011-.08773804 .14299011-.056747438 .115997318-.052734376 .10598755-.052734376 .08299255-.052734376 .049987794-.068740848 .049987794-.11773682 .049987794-.16796875 .09399414-.20507813 .1559906-.20507813 .25898744-.20507813 .3619995-.11373901 .3899994-.00074768069L.48599244 .38136292Z"/>
<path id="font_2_1" d="M.6589966 .23046875C.6759949 .23046875 .69400027 .23046875 .69400027 .25045777 .69400027 .27046205 .6759949 .27046205 .6589966 .27046205H.117996219C.100997928 .27046205 .08299255 .27046205 .08299255 .25045777 .08299255 .23046875 .100997928 .23046875 .117996219 .23046875H.6589966Z"/>
<path id="font_3_3" d="M.13198853 .327713V.35173036C.13198853 .6047821 .2559967 .64100649 .30699159 .64100649 .33099366 .64100649 .37298585 .634964 .394989 .6007538 .37998963 .6007538 .33999635 .6007538 .33999635 .5557556 .33999635 .524765 .3639984 .5097656 .38598634 .5097656 .4019928 .5097656 .43199159 .51875308 .43199159 .5577545 .43199159 .6178589 .3880005 .6660156 .30499269 .6660156 .1769867 .6660156 .041992189 .5367584 .041992189 .31570436 .041992189 .048553468 .1579895-.022460938 .25099183-.022460938 .3619995-.022460938 .45700074 .07156372 .45700074 .2036438 .45700074 .33070375 .36799623 .4267578 .25698854 .4267578 .18899536 .4267578 .1519928 .37573243 .13198853 .327713M.25099183 .0055389406C.18798828 .0055389406 .1579895 .06556702 .1519928 .080566409 .13398743 .127594 .13398743 .2076416 .13398743 .22564698 .13398743 .30369569 .1659851 .40374757 .2559967 .40374757 .27198792 .40374757 .31799317 .40374757 .34899903 .34172059 .36698915 .30470277 .36698915 .2536621 .36698915 .20463562 .36698915 .15661621 .36698915 .10658264 .34999085 .0705719 .31999208 .010528564 .27398683 .0055389406 .25099183 .0055389406Z"/>
<path id="font_3_2" d="M.2939911 .16503906V.07800293C.2939911 .041992189 .2919922 .0309906 .21798706 .0309906H.19699097V0C.23799134 .0029907227 .2899933 .0029907227 .33198548 .0029907227 .37399293 .0029907227 .4269867 .0029907227 .46798707 0V.0309906H.44699098C.37298585 .0309906 .37098695 .041992189 .37098695 .07800293V.16503906H.47099305V.19602967H.37098695V.65075686C.37098695 .67074587 .37098695 .6767578 .35499574 .6767578 .34599305 .6767578 .34298707 .6767578 .33499146 .66474917L.027999878 .19602967V.16503906H.2939911M.2999878 .19602967H.055999757L.2999878 .5688019V.19602967Z"/>
<path id="font_3_1" d="M.1269989 .07699585 .23298645 .18003845C.3889923 .31811524 .44898988 .3721466 .44898988 .47216798 .44898988 .5860901 .35899354 .6660156 .23699951 .6660156 .12399292 .6660156 .049987794 .57411196 .049987794 .48516847 .049987794 .4291687 .099990848 .4291687 .102996829 .4291687 .11999512 .4291687 .15499878 .44117738 .15499878 .48217774 .15499878 .5081787 .13699341 .5341797 .101989749 .5341797 .09399414 .5341797 .09199524 .5341797 .08898926 .5331726 .11199951 .59806826 .1659851 .63500979 .22399903 .63500979 .31498719 .63500979 .35798646 .5541382 .35798646 .47216798 .35798646 .39215089 .30799867 .31311036 .25299073 .25108338L.06098938 .036987306C.049987794 .025985718 .049987794 .023986817 .049987794 0H.42099L.44898988 .17404175H.42399598C.4189911 .14402771 .4119873 .1000061 .4019928 .084991458 .394989 .07699585 .32899476 .07699585 .30699159 .07699585H.1269989Z"/>
<path id="font_3_4" d="M.16299439 .4569702C.116989139 .486969 .11299133 .52098086 .11299133 .5379791 .11299133 .598999 .17799378 .64100649 .24899292 .64100649 .32199098 .64100649 .38598634 .58898928 .38598634 .51698306 .38598634 .45996095 .34700013 .4119568 .2869873 .37695313L.16299439 .4569702M.30899049 .36193849C.3809967 .3989563 .42999269 .45095826 .42999269 .51698306 .42999269 .6090088 .34098817 .6660156 .25 .6660156 .1499939 .6660156 .068984989 .59199526 .068984989 .49897767 .068984989 .4809723 .070999149 .43595887 .11299133 .38894654 .12399292 .37695313 .16099549 .35194398 .18598938 .33494569 .12799073 .30592347 .041992189 .24984741 .041992189 .15072632 .041992189 .04458618 .14399719-.022460938 .24899292-.022460938 .3619995-.022460938 .45700074 .06060791 .45700074 .16773987 .45700074 .20379639 .44599916 .24885559 .4079895 .2909088 .3889923 .31193543 .37298585 .3219452 .30899049 .36193849M.20899964 .3199463 .33198548 .24183655C.3600006 .2228241 .40699769 .19277954 .40699769 .13169861 .40699769 .05760193 .33198548 .0055389406 .25 .0055389406 .1639862 .0055389406 .09199524 .067611698 .09199524 .15072632 .09199524 .20880127 .12399292 .27288819 .20899964 .3199463Z"/>
</defs>
<path transform="matrix(1.00008,0,0,-1.00006,120.87846,39.280576)" stroke-width=".3985" stroke-linecap="butt" stroke-miterlimit="10" stroke-linejoin="miter" fill="none" stroke="#00aeef" d="M-119.0578-136.06606H17.00824M-119.0578-119.0578H17.00824M-119.0578-102.04953H17.00824M-119.0578-85.04128H17.00824M-119.0578-68.03302H17.00824M-119.0578-51.02477H17.00824M-119.0578-34.0165H17.00824M-119.0578-17.00824H17.00824M-119.0578 0H17.00824M-119.0578 17.00226H17.00824M-119.0578-136.06606V17.00824M-102.04953-136.06606V17.00824M-85.04128-136.06606V17.00824M-68.03302-136.06606V17.00824M-51.02477-136.06606V17.00824M-34.0165-136.06606V17.00824M-17.00824-136.06606V17.00824M0-136.06606V17.00824M17.00226-136.06606V17.00824M17.00824 17.00824"/>
<path transform="matrix(1.00008,0,0,-1.00006,120.87846,39.280576)" stroke-width="1.19553" stroke-linecap="butt" stroke-miterlimit="10" stroke-linejoin="miter" fill="none" stroke="#000000" d="M-119.0578 0H25.3403"/>
<path transform="matrix(1.00008,0,0,-1.00006,146.2208,39.280576)" d="M1.27522 0C-.31879 .31879-1.91284 .9564-3.8257 2.07224-1.91284 .6376-1.91284-.6376-3.8257-2.07224-1.91284-.9564-.31879-.31879 1.27522 0Z"/>
<path transform="matrix(1.00008,0,0,-1.00006,146.2208,39.280576)" stroke-width="1.19553" stroke-linecap="butt" stroke-linejoin="round" fill="none" stroke="#000000" d="M1.27522 0C-.31879 .31879-1.91284 .9564-3.8257 2.07224-1.91284 .6376-1.91284-.6376-3.8257-2.07224-1.91284-.9564-.31879-.31879 1.27522 0Z"/>
<use data-text="x" xlink:href="#font_1_1" transform="matrix(9.963397,0,0,-9.963197,152.01296,41.425706)"/>
<path transform="matrix(1.00008,0,0,-1.00006,120.87846,39.280576)" stroke-width="1.19553" stroke-linecap="butt" stroke-miterlimit="10" stroke-linejoin="miter" fill="none" stroke="#000000" d="M0-136.06606V25.3403"/>
<path transform="matrix(0,-1.00006,-1.00008,-0,120.87846,13.938755)" d="M1.27522 0C-.31879 .31879-1.91284 .9564-3.8257 2.07224-1.91284 .6376-1.91284-.6376-3.8257-2.07224-1.91284-.9564-.31879-.31879 1.27522 0Z"/>
<path transform="matrix(0,-1.00006,-1.00008,-0,120.87846,13.938755)" stroke-width="1.19553" stroke-linecap="butt" stroke-linejoin="round" fill="none" stroke="#000000" d="M1.27522 0C-.31879 .31879-1.91284 .9564-3.8257 2.07224-1.91284 .6376-1.91284-.6376-3.8257-2.07224-1.91284-.9564-.31879-.31879 1.27522 0Z"/>
<use data-text="y" xlink:href="#font_1_2" transform="matrix(9.963397,0,0,-9.963197,118.257259,6.209591)"/>
<path transform="matrix(1.00008,0,0,-1.00006,120.87846,39.280576)" stroke-width=".3985" stroke-linecap="butt" stroke-miterlimit="10" stroke-linejoin="miter" fill="none" stroke="#000000" d="M-102.04953 2.55112V-2.55139"/>
<path transform="matrix(1.00008,0,0,-1.00006,120.87846,39.280576)" d="M-109.41092-13.98642H-94.68814V-4.74319H-109.41092Z" fill="#ffffff"/>
<use data-text="&#x2212;" xlink:href="#font_2_1" transform="matrix(9.963397,0,0,-9.963197,12.454788,51.441308)"/>
<use data-text="6" xlink:href="#font_3_3" transform="matrix(9.963397,0,0,-9.963197,20.204407,51.441308)"/>
<path transform="matrix(1.00008,0,0,-1.00006,120.87846,39.280576)" stroke-width=".3985" stroke-linecap="butt" stroke-miterlimit="10" stroke-linejoin="miter" fill="none" stroke="#000000" d="M-68.03302 2.55112V-2.55139"/>
<path transform="matrix(1.00008,0,0,-1.00006,120.87846,39.280576)" d="M-75.39442-13.98642H-60.67164V-4.74319H-75.39442Z" fill="#ffffff"/>
<use data-text="&#x2212;" xlink:href="#font_2_1" transform="matrix(9.963397,0,0,-9.963197,46.474519,51.441308)"/>
<use data-text="4" xlink:href="#font_3_2" transform="matrix(9.963397,0,0,-9.963197,54.224138,51.441308)"/>
<path transform="matrix(1.00008,0,0,-1.00006,120.87846,39.280576)" stroke-width=".3985" stroke-linecap="butt" stroke-miterlimit="10" stroke-linejoin="miter" fill="none" stroke="#000000" d="M-34.0165 2.55112V-2.55139"/>
<path transform="matrix(1.00008,0,0,-1.00006,120.87846,39.280576)" d="M-41.3779-13.98642H-26.655119V-4.74319H-41.3779Z" fill="#ffffff"/>
<use data-text="&#x2212;" xlink:href="#font_2_1" transform="matrix(9.963397,0,0,-9.963197,80.49323,51.441308)"/>
<use data-text="2" xlink:href="#font_3_1" transform="matrix(9.963397,0,0,-9.963197,88.24285,51.441308)"/>
<path transform="matrix(1.00008,0,0,-1.00006,120.87846,39.280576)" stroke-width=".3985" stroke-linecap="butt" stroke-miterlimit="10" stroke-linejoin="miter" fill="none" stroke="#000000" d="M2.55112-136.06606H-2.55139"/>
<path transform="matrix(1.00008,0,0,-1.00006,120.87846,39.280576)" d="M-19.46597-140.68767H-4.743189V-131.44445H-19.46597Z" fill="#ffffff"/>
<use data-text="&#x2212;" xlink:href="#font_2_1" transform="matrix(9.963397,0,0,-9.963197,102.40698,178.1499)"/>
<use data-text="8" xlink:href="#font_3_4" transform="matrix(9.963397,0,0,-9.963197,110.1566,178.1499)"/>
<path transform="matrix(1.00008,0,0,-1.00006,120.87846,39.280576)" stroke-width=".3985" stroke-linecap="butt" stroke-miterlimit="10" stroke-linejoin="miter" fill="none" stroke="#000000" d="M2.55112-102.04953H-2.55139"/>
<path transform="matrix(1.00008,0,0,-1.00006,120.87846,39.280576)" d="M-19.46597-106.67114H-4.743189V-97.42791H-19.46597Z" fill="#ffffff"/>
<use data-text="&#x2212;" xlink:href="#font_2_1" transform="matrix(9.963397,0,0,-9.963197,102.40698,144.13187)"/>
<use data-text="6" xlink:href="#font_3_3" transform="matrix(9.963397,0,0,-9.963197,110.1566,144.13187)"/>
<path transform="matrix(1.00008,0,0,-1.00006,120.87846,39.280576)" stroke-width=".3985" stroke-linecap="butt" stroke-miterlimit="10" stroke-linejoin="miter" fill="none" stroke="#000000" d="M2.55112-68.03302H-2.55139"/>
<path transform="matrix(1.00008,0,0,-1.00006,120.87846,39.280576)" d="M-19.46597-72.65465H-4.743189V-63.41142H-19.46597Z" fill="#ffffff"/>
<use data-text="&#x2212;" xlink:href="#font_2_1" transform="matrix(9.963397,0,0,-9.963197,102.40698,110.11282)"/>
<use data-text="4" xlink:href="#font_3_2" transform="matrix(9.963397,0,0,-9.963197,110.1566,110.11282)"/>
<path transform="matrix(1.00008,0,0,-1.00006,120.87846,39.280576)" stroke-width=".3985" stroke-linecap="butt" stroke-miterlimit="10" stroke-linejoin="miter" fill="none" stroke="#000000" d="M2.55112-34.0165H-2.55139"/>
<path transform="matrix(1.00008,0,0,-1.00006,120.87846,39.280576)" d="M-19.46597-38.63812H-4.743189V-29.39489H-19.46597Z" fill="#ffffff"/>
<use data-text="&#x2212;" xlink:href="#font_2_1" transform="matrix(9.963397,0,0,-9.963197,102.40698,76.09478)"/>
<use data-text="2" xlink:href="#font_3_1" transform="matrix(9.963397,0,0,-9.963197,110.1566,76.09478)"/>
<path transform="matrix(1.00008,0,0,-1.00006,120.87846,39.280576)" d="M-48.47365-34.0165C-48.47365-32.60756-49.61581-31.46538-51.02477-31.46538-52.43372-31.46538-53.57588-32.60756-53.57588-34.0165-53.57588-35.42545-52.43372-36.56763-51.02477-36.56763-49.61581-36.56763-48.47365-35.42545-48.47365-34.0165ZM-51.02477-34.0165" fill="#d73589"/>
<path transform="matrix(1.00008,0,0,-1.00006,120.87846,39.280576)" stroke-width=".3985" stroke-linecap="butt" stroke-miterlimit="10" stroke-linejoin="miter" fill="none" stroke="#d73589" d="M-48.47365-34.0165C-48.47365-32.60756-49.61581-31.46538-51.02477-31.46538-52.43372-31.46538-53.57588-32.60756-53.57588-34.0165-53.57588-35.42545-52.43372-36.56763-51.02477-36.56763-49.61581-36.56763-48.47365-35.42545-48.47365-34.0165ZM-51.02477-34.0165"/>
<path transform="matrix(1.00008,0,0,-1.00006,120.87846,39.280576)" d="M2.55112-110.55367C2.55112-109.14471 1.40894-108.00253 0-108.00253-1.40894-108.00253-2.55112-109.14471-2.55112-110.55367-2.55112-111.96262-1.40894-113.10478 0-113.10478 1.40894-113.10478 2.55112-111.96262 2.55112-110.55367ZM0-110.55367" fill="#d73589"/>
<path transform="matrix(1.00008,0,0,-1.00006,120.87846,39.280576)" stroke-width=".3985" stroke-linecap="butt" stroke-miterlimit="10" stroke-linejoin="miter" fill="none" stroke="#d73589" d="M2.55112-110.55367C2.55112-109.14471 1.40894-108.00253 0-108.00253-1.40894-108.00253-2.55112-109.14471-2.55112-110.55367-2.55112-111.96262-1.40894-113.10478 0-113.10478 1.40894-113.10478 2.55112-111.96262 2.55112-110.55367ZM0-110.55367"/>
<path transform="matrix(1.00008,0,0,-1.00006,120.87846,39.280576)" d="M-99.49841-110.55367C-99.49841-109.14471-100.64058-108.00253-102.04953-108.00253-103.45848-108.00253-104.60066-109.14471-104.60066-110.55367-104.60066-111.96262-103.45848-113.10478-102.04953-113.10478-100.64058-113.10478-99.49841-111.96262-99.49841-110.55367ZM-102.04953-110.55367" fill="#d73589"/>
<path transform="matrix(1.00008,0,0,-1.00006,120.87846,39.280576)" stroke-width=".3985" stroke-linecap="butt" stroke-miterlimit="10" stroke-linejoin="miter" fill="none" stroke="#d73589" d="M-99.49841-110.55367C-99.49841-109.14471-100.64058-108.00253-102.04953-108.00253-103.45848-108.00253-104.60066-109.14471-104.60066-110.55367-104.60066-111.96262-103.45848-113.10478-102.04953-113.10478-100.64058-113.10478-99.49841-111.96262-99.49841-110.55367ZM-102.04953-110.55367"/>
<path transform="matrix(1.00008,0,0,-1.00006,120.87846,39.280576)" stroke-width="1.19553" stroke-linecap="butt" stroke-miterlimit="10" stroke-linejoin="miter" fill="none" stroke="#ff0000" d="M-109.41895-134.26747C-108.61281-131.50209-108.61281-131.50209-108.10193-129.78762-107.59103-128.07314-106.77174-125.3679-106.26085-123.70876-105.74997-122.04958-104.93066-119.43332-104.41978-117.82947-103.90889-116.2256-103.0896-113.69781-102.57872-112.14923-102.06783-110.60063-101.24852-108.16153-100.73764-106.6683-100.22676-105.17508-99.40744-102.82489-98.89656-101.38698-98.38568-99.94904-97.56636-97.68735-97.05548-96.30467-96.5446-94.92203-95.7253-92.74908-95.21442-91.4217-94.70352-90.09431-93.88422-88.00987-93.37334-86.7378-92.86246-85.46571-92.04315-83.47018-91.53226-82.25346-91.02138-81.03673-90.20207-79.1299-89.6912-77.96843-89.1803-76.80698-88.36101-74.9886-87.85013-73.88246-87.33923-72.77632-86.51993-71.04689-86.00905-69.99608-85.49817-68.94524-84.67886-67.30429-84.16797-66.30873-83.65709-65.31317-82.83778-63.76097-82.3269-62.82071-81.81601-61.88045-80.99669-60.41695-80.48582-59.532-79.97495-58.64705-79.15562-57.27225-78.64474-56.44261-78.13388-55.61298-77.31456-54.32686-76.80367-53.55254-76.29279-52.7782-75.47348-51.5808-74.9626-50.86177-74.45172-50.14276-73.63242-49.03407-73.12152-48.37033-72.61064-47.70659-71.79135-46.68637-71.28046-46.07794-70.76958-45.4695-69.95027-44.53827-69.43939-43.98514-68.9285-43.432-68.10919-42.58922-67.59831-42.09137-67.08743-41.59352-66.26813-40.83946-65.75723-40.39693-65.24635-39.95438-64.42706-39.28903-63.91617-38.90181-63.40529-38.51457-62.58597-37.93791-62.0751-37.60599-61.56421-37.27408-60.74489-36.78612-60.23401-36.5095-59.72314-36.2329-58.90382-35.83362-58.39293-35.61232-57.88205-35.391-57.06276-35.08046-56.55186-34.91446-56.04099-34.74846-55.22168-34.52664-54.7108-34.41591-54.1999-34.30519-53.3806-34.17183-52.86972-34.11642-52.35884-34.061-51.53954-34.0166-51.02864-34.0165-50.51776-34.01639-49.69847-34.06049-49.18758-34.11563-48.6767-34.17079-47.85739-34.30362-47.34651-34.4141-46.83562-34.52455-46.01631-34.74608-45.50543-34.91185-44.99455-35.07764-44.17523-35.38786-43.66437-35.60895-43.15347-35.83003-42.33415-36.22894-41.82327-36.50534-41.31241-36.78174-40.49309-37.26936-39.98221-37.60107-39.47134-37.93277-38.65202-38.50911-38.14113-38.89609-37.63025-39.28308-36.81094-39.94789-36.30006-40.39017-35.78917-40.83247-34.96986-41.58626-34.45898-42.08385-33.9481-42.58145-33.1288-43.4237-32.61792-43.97656-32.10704-44.52943-31.28773-45.46039-30.77684-46.0686-30.26596-46.67682-29.44666-47.69669-28.93578-48.36021-28.42488-49.02374-27.60558-50.13208-27.0947-50.85088-26.58382-51.56967-25.7645-52.76677-25.25363-53.54086-24.74275-54.31493-23.92343-55.60051-23.41254-56.42989-22.90167-57.25928-22.08235-58.63377-21.57147-59.51851-21.0606-60.40323-20.24127-61.86644-19.7304-62.80643-19.21951-63.74643-18.4002-65.2981-17.88933-66.29341-17.37845-67.28874-16.55914-68.92937-16.04825-69.97998-15.53737-71.0306-14.71806-72.7597-14.20718-73.86559-13.69629-74.97148-12.877-76.78929-12.3661-77.95052-11.85522-79.11176-11.03592-81.01848-10.52504-82.23503-10.01416-83.45157-9.19485-85.44678-8.68398-86.7186-8.17308-87.99042-7.35376-90.07437-6.8429-91.40146-6.33202-92.72856-5.5127-94.90099-5.0018-96.2834-4.49094-97.6658-3.67162-99.92715-3.16074-101.3649-2.64986-102.80266-1.83055-105.1527-1.31967-106.64574-.80878-108.13876 .01048-110.57729 .52136-112.12561 1.03226-113.67393 1.85156-116.20142 2.36244-117.80507 2.87332-119.4087 3.69263-122.02466 4.20352-123.68358 4.7144-125.3425 5.53369-128.04717 6.04459-129.7614 6.55547-131.47563 7.88565-136.03855 7.36157-134.24047"/>
<path transform="matrix(-.27982239,.96005758,.96007677,.27981679,11.45076,173.55609)" d="M1.27522 0C-.31879 .31879-1.91284 .9564-3.8257 2.07224-1.91284 .6376-1.91284-.6376-3.8257-2.07224-1.91284-.9564-.31879-.31879 1.27522 0Z" fill="#ff0000"/>
<path transform="matrix(-.27982239,.96005758,.96007677,.27981679,11.45076,173.55609)" stroke-width="1.19553" stroke-linecap="butt" stroke-linejoin="round" fill="none" stroke="#ff0000" d="M1.27522 0C-.31879 .31879-1.91284 .9564-3.8257 2.07224-1.91284 .6376-1.91284-.6376-3.8257-2.07224-1.91284-.9564-.31879-.31879 1.27522 0Z"/>
<path transform="matrix(.27984239,.96005758,.96007677,-.27983678,128.24062,173.52909)" d="M1.27522 0C-.31879 .31879-1.91284 .9564-3.8257 2.07224-1.91284 .6376-1.91284-.6376-3.8257-2.07224-1.91284-.9564-.31879-.31879 1.27522 0Z" fill="#ff0000"/>
<path transform="matrix(.27984239,.96005758,.96007677,-.27983678,128.24062,173.52909)" stroke-width="1.19553" stroke-linecap="butt" stroke-linejoin="round" fill="none" stroke="#ff0000" d="M1.27522 0C-.31879 .31879-1.91284 .9564-3.8257 2.07224-1.91284 .6376-1.91284-.6376-3.8257-2.07224-1.91284-.9564-.31879-.31879 1.27522 0Z"/>
</svg>
