<svg xmlns="http://www.w3.org/2000/svg" xmlns:xlink="http://www.w3.org/1999/xlink" version="1.1" width="203" height="194" viewBox="0 0 203 194">
<defs>
<path id="font_1_1" d="M.33399964 .30233766C.33999635 .32835389 .36299134 .42037965 .43299867 .42037965 .43798829 .42037965 .46199037 .42037965 .48298646 .40734864 .45498658 .402359 .43499757 .37734986 .43499757 .35334779 .43499757 .33735658 .44599916 .31835938 .47299195 .31835938 .49499513 .31835938 .5269928 .3363495 .5269928 .37635804 .5269928 .42837525 .46798707 .4423828 .43399049 .4423828 .37599183 .4423828 .34098817 .38935853 .32899476 .36634828 .3039856 .43237306 .25 .4423828 .22099304 .4423828 .116989139 .4423828 .05999756 .3133545 .05999756 .28834535 .05999756 .27833558 .069992069 .27833558 .07199097 .27833558 .07998657 .27833558 .08299255 .28033448 .084991458 .28933717 .11898804 .39535523 .18499756 .42037965 .21899414 .42037965 .23799134 .42037965 .272995 .4113617 .272995 .35334779 .272995 .32235719 .2559967 .25532533 .21899414 .11528015 .20298767 .053268434 .16799927 .011245728 .12399292 .011245728 .117996219 .011245728 .09498596 .011245728 .07398987 .024276734 .09899902 .029266358 .12098694 .05027771 .12098694 .07827759 .12098694 .105270389 .09899902 .11328125 .083999637 .11328125 .053985597 .11328125 .0289917 .08728027 .0289917 .055267335 .0289917 .009246826 .07899475-.0107421879 .12298584-.0107421879 .18899536-.0107421879 .22499085 .059280397 .22799683 .0652771 .23999024 .028274537 .27598573-.0107421879 .33599855-.0107421879 .43899537-.0107421879 .49598695 .118270877 .49598695 .14328003 .49598695 .1532898 .4869995 .1532898 .48399354 .1532898 .47499085 .1532898 .47299195 .14929199 .47099305 .14228821 .43798829 .03527832 .36999513 .011245728 .33799745 .011245728 .29899598 .011245728 .2829895 .043273927 .2829895 .07727051 .2829895 .09927368 .2889862 .121276859 .2999878 .16529846L.33399964 .30233766Z"/>
<path id="font_1_2" d="M.48599244 .38136292C.48999024 .39537049 .48999024 .39736939 .48999024 .40437318 .48999024 .42237855 .47599793 .43138124 .46099855 .43138124 .45098878 .43138124 .43499757 .42536927 .42599488 .41036988 .42399598 .405365 .41600038 .37435914 .4119873 .35635377 .40499879 .33035279 .397995 .30334474 .3919983 .27633668L.34700013 .09628296C.34298707 .08126831 .2999878 .011245728 .23399353 .011245728 .18299866 .011245728 .17199707 .055267335 .17199707 .0922699 .17199707 .1382904 .18899536 .20030213 .22299195 .28833009 .23899842 .3293457 .24299622 .3403473 .24299622 .36035157 .24299622 .405365 .21099854 .4423828 .16099549 .4423828 .06599426 .4423828 .0289917 .29733277 .0289917 .28833009 .0289917 .27833558 .038986207 .27833558 .040985109 .27833558 .050994874 .27833558 .051986696 .28033448 .056991579 .29634095 .083999637 .3903656 .12399292 .42037965 .1579895 .42037965 .1659851 .42037965 .18299866 .42037965 .18299866 .3883667 .18299866 .36335755 .17298889 .3373413 .1659851 .31834413 .12599182 .21231079 .10798645 .1552887 .10798645 .10827637 .10798645 .019256592 .17098999-.0107421879 .22999573-.0107421879 .2689972-.0107421879 .30299378 .0062561037 .33099366 .03425598 .31799317-.017745972 .30599977-.06674194 .2659912-.11973572 .23999024-.15385437 .20199585-.18309021 .1559906-.18309021 .14199829-.18309021 .09700012-.18005371 .07998657-.14074707 .09599304-.14074707 .10899353-.14074707 .12298584-.1287384 .1329956-.11973572 .14299011-.10673523 .14299011-.08773804 .14299011-.056747438 .115997318-.052734376 .10598755-.052734376 .08299255-.052734376 .049987794-.068740848 .049987794-.11773682 .049987794-.16796875 .09399414-.20507813 .1559906-.20507813 .25898744-.20507813 .3619995-.11373901 .3899994-.00074768069L.48599244 .38136292Z"/>
<path id="font_2_1" d="M.6589966 .23046875C.6759949 .23046875 .69400027 .23046875 .69400027 .25045777 .69400027 .27046205 .6759949 .27046205 .6589966 .27046205H.117996219C.100997928 .27046205 .08299255 .27046205 .08299255 .25045777 .08299255 .23046875 .100997928 .23046875 .117996219 .23046875H.6589966Z"/>
<path id="font_3_3" d="M.44898988 .20022583C.44898988 .3193512 .36698915 .41944886 .25898744 .41944886 .21099854 .41944886 .16799927 .40345765 .13198853 .36842347V.5637665C.1519928 .5577698 .18499756 .55078127 .21699524 .55078127 .33999635 .55078127 .4099884 .6417694 .4099884 .6547699 .4099884 .6607666 .40699769 .6657715 .3999939 .6657715 .39898683 .6657715 .39698792 .6657715 .3919983 .66278079 .37199403 .6537781 .32299806 .6337738 .2559967 .6337738 .21598816 .6337738 .16999817 .6407776 .12298584 .6617737 .114990238 .66477969 .11299133 .66477969 .11099243 .66477969 .100997928 .66477969 .100997928 .6567688 .100997928 .6407776V.34439088C.100997928 .32637025 .100997928 .31835938 .114990238 .31835938 .12199402 .31835938 .12399292 .32136537 .12799073 .32736207 .13899231 .3433838 .17599488 .39746095 .25698854 .39746095 .30899049 .39746095 .33399964 .35139466 .34199525 .33337403 .35798646 .29632569 .3600006 .25727845 .3600006 .20722962 .3600006 .17222595 .3600006 .11222839 .33599855 .07035828 .31199647 .031463624 .2749939 .0055389406 .22898865 .0055389406 .1559906 .0055389406 .09899902 .058380128 .08198547 .11723328 .084991458 .1162262 .08799744 .115234378 .09899902 .115234378 .13198853 .115234378 .14898682 .14022827 .14898682 .16423035 .14898682 .18823242 .13198853 .21322632 .09899902 .21322632 .084991458 .21322632 .049987794 .20622254 .049987794 .16023255 .049987794 .07434082 .11898804-.022460938 .23098755-.022460938 .34700013-.022460938 .44898988 .073349 .44898988 .20022583Z"/>
<path id="font_3_2" d="M.2939911 .64004519C.2939911 .66400149 .2939911 .6660156 .2709961 .6660156 .20899964 .60227969 .12098694 .60227969 .08898926 .60227969V.57128909C.10899353 .57128909 .16799927 .57128909 .21998596 .5972748V.07902527C.21998596 .042999269 .21699524 .0309906 .1269989 .0309906H.09498596V0C.12998963 .0029907227 .21699524 .0029907227 .25698854 .0029907227 .29699708 .0029907227 .38398744 .0029907227 .4189911 0V.0309906H.3869934C.29699708 .0309906 .2939911 .041992189 .2939911 .07902527V.64004519Z"/>
<path id="font_3_1" d="M.45999146 .31976319C.45999146 .39982606 .45498658 .47988893 .41999818 .5539398 .37399293 .65000918 .2919922 .6660156 .25 .6660156 .18998719 .6660156 .116989139 .64001467 .07598877 .54693606 .04399109 .47789 .038986207 .39982606 .038986207 .31976319 .038986207 .24472046 .042999269 .15464783 .083999637 .07859802 .1269989-.0024719239 .19999695-.022460938 .24899292-.022460938 .30299378-.022460938 .3789978-.0014648438 .4229889 .09359741 .45498658 .16265869 .45999146 .2407074 .45999146 .31976319M.24899292-.00047302247C.20999146-.00047302247 .15098572 .024551392 .1329956 .12062073 .12199402 .18066406 .12199402 .2727356 .12199402 .3317871 .12199402 .39582826 .12199402 .46188355 .12998963 .5159149 .14898682 .63500979 .22399903 .64401248 .24899292 .64401248 .28199769 .64401248 .34799195 .6259918 .36698915 .52693179 .3769989 .47088624 .3769989 .39482118 .3769989 .3317871 .3769989 .25672914 .3769989 .18867493 .3659973 .12461853 .35099793 .029556275 .2939911-.00047302247 .24899292-.00047302247Z"/>
</defs>
<path transform="matrix(1,0,0,-1.00002,94.106,103.68082)" stroke-width=".3985" stroke-linecap="butt" stroke-miterlimit="10" stroke-linejoin="miter" fill="none" stroke="#00aeef" d="M-85.04128-85.04128H85.04128M-85.04128-76.53716H85.04128M-85.04128-68.03302H85.04128M-85.04128-59.52888H85.04128M-85.04128-51.02477H85.04128M-85.04128-42.52063H85.04128M-85.04128-34.0165H85.04128M-85.04128-25.51237H85.04128M-85.04128-17.00824H85.04128M-85.04128-8.50412H85.04128M-85.04128 0H85.04128M-85.04128 8.50412H85.04128M-85.04128 17.00824H85.04128M-85.04128 25.51237H85.04128M-85.04128 34.0165H85.04128M-85.04128 42.52063H85.04128M-85.04128 51.02477H85.04128M-85.04128 59.52888H85.04128M-85.04128 68.03302H85.04128M-85.04128 76.53716H85.04128M-85.04128 85.0383H85.04128M-85.04128-85.04128V85.04128M-76.53716-85.04128V85.04128M-68.03302-85.04128V85.04128M-59.52888-85.04128V85.04128M-51.02477-85.04128V85.04128M-42.52063-85.04128V85.04128M-34.0165-85.04128V85.04128M-25.51237-85.04128V85.04128M-17.00824-85.04128V85.04128M-8.50412-85.04128V85.04128M0-85.04128V85.04128M8.50412-85.04128V85.04128M17.00824-85.04128V85.04128M25.51237-85.04128V85.04128M34.0165-85.04128V85.04128M42.52063-85.04128V85.04128M51.02477-85.04128V85.04128M59.52888-85.04128V85.04128M68.03302-85.04128V85.04128M76.53716-85.04128V85.04128M85.0383-85.04128V85.04128M85.04128 85.04128"/>
<path transform="matrix(1,0,0,-1.00002,94.106,103.68082)" stroke-width="1.19553" stroke-linecap="butt" stroke-miterlimit="10" stroke-linejoin="miter" fill="none" stroke="#000000" d="M-85.04128 0H96.77495"/>
<path transform="matrix(1,0,0,-1.00002,190.88095,103.68082)" d="M1.27522 0C-.31879 .31879-1.91284 .9564-3.8257 2.07224-1.91284 .6376-1.91284-.6376-3.8257-2.07224-1.91284-.9564-.31879-.31879 1.27522 0Z"/>
<path transform="matrix(1,0,0,-1.00002,190.88095,103.68082)" stroke-width="1.19553" stroke-linecap="butt" stroke-linejoin="round" fill="none" stroke="#000000" d="M1.27522 0C-.31879 .31879-1.91284 .9564-3.8257 2.07224-1.91284 .6376-1.91284-.6376-3.8257-2.07224-1.91284-.9564-.31879-.31879 1.27522 0Z"/>
<use data-text="x" xlink:href="#font_1_1" transform="matrix(9.9626,0,0,-9.962799,196.672,105.82586)"/>
<path transform="matrix(1,0,0,-1.00002,94.106,103.68082)" stroke-width="1.19553" stroke-linecap="butt" stroke-miterlimit="10" stroke-linejoin="miter" fill="none" stroke="#000000" d="M0-85.04128V96.77495"/>
<path transform="matrix(0,-1.00002,-1,-0,94.106,6.9039309)" d="M1.27522 0C-.31879 .31879-1.91284 .9564-3.8257 2.07224-1.91284 .6376-1.91284-.6376-3.8257-2.07224-1.91284-.9564-.31879-.31879 1.27522 0Z"/>
<path transform="matrix(0,-1.00002,-1,-0,94.106,6.9039309)" stroke-width="1.19553" stroke-linecap="butt" stroke-linejoin="round" fill="none" stroke="#000000" d="M1.27522 0C-.31879 .31879-1.91284 .9564-3.8257 2.07224-1.91284 .6376-1.91284-.6376-3.8257-2.07224-1.91284-.9564-.31879-.31879 1.27522 0Z"/>
<use data-text="y" xlink:href="#font_1_2" transform="matrix(9.9626,0,0,-9.962799,86.938,6.2068636)"/>
<path transform="matrix(1,0,0,-1.00002,94.106,103.68082)" stroke-width="1.19553" stroke-linecap="butt" stroke-miterlimit="10" stroke-linejoin="miter" fill="none" stroke="#00aeef" d="M-42.52063-85.04128V85.04128"/>
<path transform="matrix(1,0,0,-1.00002,94.106,103.68082)" stroke-width="1.19553" stroke-linecap="butt" stroke-miterlimit="10" stroke-linejoin="miter" fill="none" stroke="#00aeef" d="M-85.04128-42.52063H85.04128"/>
<path transform="matrix(1,0,0,-1.00002,94.106,103.68082)" stroke-width=".3985" stroke-linecap="butt" stroke-miterlimit="10" stroke-linejoin="miter" fill="none" stroke="#000000" d="M-42.52063 1.27554V-1.27568"/>
<path transform="matrix(1,0,0,-1.00002,94.106,103.68082)" d="M-49.88202-12.71071H-35.15924V-3.4674798H-49.88202Z" fill="#ffffff"/>
<use data-text="&#x2212;" xlink:href="#font_2_1" transform="matrix(9.9626,0,0,-9.962799,45.22,114.56503)"/>
<use data-text="5" xlink:href="#font_3_3" transform="matrix(9.9626,0,0,-9.962799,52.968996,114.56503)"/>
<path transform="matrix(1,0,0,-1.00002,94.106,103.68082)" stroke-width=".3985" stroke-linecap="butt" stroke-miterlimit="10" stroke-linejoin="miter" fill="none" stroke="#000000" d="M1.27554-42.52063H-1.27568"/>
<path transform="matrix(1,0,0,-1.00002,94.106,103.68082)" d="M-18.19026-47.14224H-3.4674798V-37.89901H-18.19026Z" fill="#ffffff"/>
<use data-text="&#x2212;" xlink:href="#font_2_1" transform="matrix(9.9626,0,0,-9.962799,76.912,148.99773)"/>
<use data-text="5" xlink:href="#font_3_3" transform="matrix(9.9626,0,0,-9.962799,84.660999,148.99773)"/>
<path transform="matrix(1,0,0,-1.00002,94.106,103.68082)" stroke-width="1.19553" stroke-linecap="butt" stroke-miterlimit="10" stroke-linejoin="miter" fill="none" stroke="#00aeef" d="M42.52063-85.04128V85.04128"/>
<path transform="matrix(1,0,0,-1.00002,94.106,103.68082)" stroke-width="1.19553" stroke-linecap="butt" stroke-miterlimit="10" stroke-linejoin="miter" fill="none" stroke="#00aeef" d="M-85.04128 42.52063H85.04128"/>
<path transform="matrix(1,0,0,-1.00002,94.106,103.68082)" stroke-width=".3985" stroke-linecap="butt" stroke-miterlimit="10" stroke-linejoin="miter" fill="none" stroke="#000000" d="M42.52063 1.27554V-1.27568"/>
<path transform="matrix(1,0,0,-1.00002,94.106,103.68082)" d="M39.03366-11.88048H46.0076V-3.4674998H39.03366Z" fill="#ffffff"/>
<use data-text="5" xlink:href="#font_3_3" transform="matrix(9.9626,0,0,-9.962799,134.136,114.56503)"/>
<path transform="matrix(1,0,0,-1.00002,94.106,103.68082)" stroke-width=".3985" stroke-linecap="butt" stroke-miterlimit="10" stroke-linejoin="miter" fill="none" stroke="#000000" d="M1.27554 42.52063H-1.27568"/>
<path transform="matrix(1,0,0,-1.00002,94.106,103.68082)" d="M-10.44142 38.31413H-3.4674798V46.727109H-10.44142Z" fill="#ffffff"/>
<use data-text="5" xlink:href="#font_3_3" transform="matrix(9.9626,0,0,-9.962799,84.661,64.370029)"/>
<path transform="matrix(1,0,0,-1.00002,94.106,103.68082)" stroke-width="1.19553" stroke-linecap="butt" stroke-miterlimit="10" stroke-linejoin="miter" fill="none" stroke="#00aeef" d="M-85.04128-85.04128V85.04128"/>
<path transform="matrix(1,0,0,-1.00002,94.106,103.68082)" stroke-width="1.19553" stroke-linecap="butt" stroke-miterlimit="10" stroke-linejoin="miter" fill="none" stroke="#00aeef" d="M-85.04128-85.04128H85.04128"/>
<path transform="matrix(1,0,0,-1.00002,94.106,103.68082)" stroke-width=".3985" stroke-linecap="butt" stroke-miterlimit="10" stroke-linejoin="miter" fill="none" stroke="#000000" d="M-85.04128 1.27554V-1.27568"/>
<path transform="matrix(1,0,0,-1.00002,94.106,103.68082)" d="M-94.89337-12.71071H-75.18917V-3.4674798H-94.89337Z" fill="#ffffff"/>
<use data-text="&#x2212;" xlink:href="#font_2_1" transform="matrix(9.9626,0,0,-9.962799,.20899964,114.56503)"/>
<use data-text="1" xlink:href="#font_3_2" transform="matrix(9.9626,0,0,-9.962799,7.9579927,114.56503)"/>
<use data-text="0" xlink:href="#font_3_1" transform="matrix(9.9626,0,0,-9.962799,12.939285,114.56503)"/>
<path transform="matrix(1,0,0,-1.00002,94.106,103.68082)" stroke-width=".3985" stroke-linecap="butt" stroke-miterlimit="10" stroke-linejoin="miter" fill="none" stroke="#000000" d="M1.27554-85.04128H-1.27568"/>
<path transform="matrix(1,0,0,-1.00002,94.106,103.68082)" d="M-23.17168-89.66289H-3.4674798V-80.419658H-23.17168Z" fill="#ffffff"/>
<use data-text="&#x2212;" xlink:href="#font_2_1" transform="matrix(9.9626,0,0,-9.962799,71.931,191.51859)"/>
<use data-text="1" xlink:href="#font_3_2" transform="matrix(9.9626,0,0,-9.962799,79.67999,191.51859)"/>
<use data-text="0" xlink:href="#font_3_1" transform="matrix(9.9626,0,0,-9.962799,84.661289,191.51859)"/>
<path transform="matrix(1,0,0,-1.00002,94.106,103.68082)" stroke-width="1.19553" stroke-linecap="butt" stroke-miterlimit="10" stroke-linejoin="miter" fill="none" stroke="#00aeef" d="M85.04128-85.04128V85.04128"/>
<path transform="matrix(1,0,0,-1.00002,94.106,103.68082)" stroke-width="1.19553" stroke-linecap="butt" stroke-miterlimit="10" stroke-linejoin="miter" fill="none" stroke="#00aeef" d="M-85.04128 85.04128H85.04128"/>
<path transform="matrix(1,0,0,-1.00002,94.106,103.68082)" stroke-width=".3985" stroke-linecap="butt" stroke-miterlimit="10" stroke-linejoin="miter" fill="none" stroke="#000000" d="M85.04128 1.27554V-1.27568"/>
<path transform="matrix(1,0,0,-1.00002,94.106,103.68082)" d="M79.0636-11.88048H91.018939V-3.4674998H79.0636Z" fill="#ffffff"/>
<use data-text="1" xlink:href="#font_3_2" transform="matrix(9.9626,0,0,-9.962799,174.166,114.56503)"/>
<use data-text="0" xlink:href="#font_3_1" transform="matrix(9.9626,0,0,-9.962799,179.1473,114.56503)"/>
<path transform="matrix(1,0,0,-1.00002,94.106,103.68082)" stroke-width=".3985" stroke-linecap="butt" stroke-miterlimit="10" stroke-linejoin="miter" fill="none" stroke="#000000" d="M1.27554 85.04128H-1.27568"/>
<path transform="matrix(1,0,0,-1.00002,94.106,103.68082)" d="M-15.42284 80.83478H-3.4674998V89.24776H-15.42284Z" fill="#ffffff"/>
<use data-text="1" xlink:href="#font_3_2" transform="matrix(9.9626,0,0,-9.962799,79.679,21.848176)"/>
<use data-text="0" xlink:href="#font_3_1" transform="matrix(9.9626,0,0,-9.962799,84.66029,21.848176)"/>
<path transform="matrix(1,0,0,-1.00002,94.106,103.68082)" stroke-width="1.19553" stroke-linecap="butt" stroke-miterlimit="10" stroke-linejoin="miter" fill="none" stroke="#ff0000" d="M-30.00092-83.17647C-29.69589-80.09644-29.69589-80.09644-29.5079-78.23912-29.3199-76.38179-29.0184-73.45132-28.83041-71.65393-28.64241-69.8565-28.3409-67.02213-28.15292-65.28465-27.96492-63.54715-27.66342-60.8089-27.47542-59.1313-27.28741-57.45369-26.98593-54.81131-26.79793-53.19362-26.60992-51.57593-26.30844-49.02988-26.12044-47.4721-25.93243-45.91435-25.63094-43.46417-25.44295-41.96628-25.25494-40.46838-24.95346-38.11435-24.76546-36.67638-24.57745-35.2384-24.27597-32.98044-24.08797-31.6024-23.89996-30.22433-23.59848-28.06247-23.41048-26.74432-23.22247-25.42621-22.92099-23.36041-22.73299-22.1022-22.54498-20.844-22.24348-18.87433-22.0555-17.676-21.8675-16.47768-21.56601-14.60391-21.378-13.46547-21.19-12.32701-20.88852-10.54935-20.70052-9.47084-20.51251-8.39235-20.21103-6.71098-20.02303-5.69241-19.83502-4.67384-19.53354-3.08833-19.34554-2.12965-19.15753-1.17096-18.85603 .31839-18.66803 1.21715-18.48004 2.11592-18.17854 3.50922-17.99054 4.34808-17.80254 5.18692-17.50105 6.48409-17.31305 7.26306-17.12505 8.04204-16.82356 9.24333-16.63556 9.96239-16.44756 10.68143-16.14607 11.78639-15.95807 12.44551-15.77007 13.10466-15.46858 14.11378-15.28058 14.713-15.09258 15.31221-14.79109 16.22499-14.60309 16.7643-14.41508 17.30359-14.1136 18.1205-13.9256 18.59991-13.7376 19.07933-13.43611 19.80011-13.24811 20.2196-13.0601 20.63911-12.75862 21.26378-12.57062 21.62338-12.38261 21.983-12.08113 22.5118-11.89313 22.8115-11.70512 23.11118-11.40364 23.54366-11.21564 23.78342-11.02763 24.02316-10.72615 24.35956-10.53815 24.53941-10.35014 24.71927-10.04865 24.95978-9.86066 25.07974-9.67265 25.19972-9.37115 25.34412-9.18315 25.40416-8.99516 25.46417-8.69366 25.51227-8.50566 25.51237-8.31766 25.51248-8.01617 25.46466-7.82817 25.40494-7.64017 25.34518-7.33868 25.20146-7.15068 25.08182-6.96268 24.96216-6.6612 24.72214-6.47319 24.54253-6.2852 24.36293-5.9837 24.0268-5.7957 23.78731-5.60771 23.5478-5.30621 23.11583-5.11821 22.8164-4.9302 22.51701-4.62872 21.98868-4.44072 21.62935-4.25272 21.27002-3.95123 20.64583-3.76323 20.22662-3.57524 19.8074-3.27374 19.08708-3.08574 18.60796-2.89775 18.12883-2.59625 17.31241-2.40825 16.77338-2.22026 16.23433-1.91876 15.32182-1.73076 14.72287-1.54277 14.12389-1.24126 13.11526-1.05327 12.45642-.86526 11.79758-.56377 10.6931-.37576 9.97433-.18779 9.25555 .1137 8.05472 .30168 7.27605 .48969 6.49734 .79118 5.2007 .97917 4.36209 1.16718 3.52348 1.46867 2.13048 1.65666 1.23195 1.84467 .33344 2.14615-1.15543 2.33415-2.11382 2.52216-3.07222 2.82364-4.65723 3.01164-5.67554 3.19965-6.69386 3.50114-8.37498 3.68913-9.45319 3.87714-10.5314 4.17863-12.3084 4.36662-13.44652 4.55463-14.58466 4.85612-16.45795 5.04411-17.65602 5.23212-18.8541 5.5336-20.82349 5.7216-22.08144 5.9096-23.3394 6.21109-25.40471 6.3991-26.72253 6.5871-28.04037 6.8886-30.2018 7.07658-31.57956 7.26459-32.95732 7.56609-35.21483 7.75407-36.65251 7.94208-38.09018 8.24358-40.44376 8.43158-41.94138 8.61957-43.43896 8.92107-45.88866 9.10907-47.44615 9.29707-49.00368 9.59856-51.54944 9.78656-53.16687 9.97456-54.78432 10.27605-57.42621 10.46405-59.10352 10.65205-60.78085 10.95355-63.51863 11.14154-65.25584 11.32954-66.99304 11.63103-69.82692 11.81903-71.62407 12.00703-73.42123 12.30852-76.35141 12.49652-78.20848 12.68452-80.06555 13.17401-85.00858 12.98953-83.14479"/>
<path transform="matrix(-.0985,.9951099,.99509,.09850197,64.10509,186.85895)" d="M1.27522 0C-.31879 .31879-1.91284 .9564-3.8257 2.07224-1.91284 .6376-1.91284-.6376-3.8257-2.07224-1.91284-.9564-.31879-.31879 1.27522 0Z" fill="#ff0000"/>
<path transform="matrix(-.0985,.9951099,.99509,.09850197,64.10509,186.85895)" stroke-width="1.19553" stroke-linecap="butt" stroke-linejoin="round" fill="none" stroke="#ff0000" d="M1.27522 0C-.31879 .31879-1.91284 .9564-3.8257 2.07224-1.91284 .6376-1.91284-.6376-3.8257-2.07224-1.91284-.9564-.31879-.31879 1.27522 0Z"/>
<path transform="matrix(.0985,.9951099,.99509,-.09850197,107.095539,186.82727)" d="M1.27522 0C-.31879 .31879-1.91284 .9564-3.8257 2.07224-1.91284 .6376-1.91284-.6376-3.8257-2.07224-1.91284-.9564-.31879-.31879 1.27522 0Z" fill="#ff0000"/>
<path transform="matrix(.0985,.9951099,.99509,-.09850197,107.095539,186.82727)" stroke-width="1.19553" stroke-linecap="butt" stroke-linejoin="round" fill="none" stroke="#ff0000" d="M1.27522 0C-.31879 .31879-1.91284 .9564-3.8257 2.07224-1.91284 .6376-1.91284-.6376-3.8257-2.07224-1.91284-.9564-.31879-.31879 1.27522 0Z"/>
<path transform="matrix(1,0,0,-1.00002,94.106,103.68082)" d="M-6.37808 25.51237C-6.37808 26.68657-7.32993 27.63841-8.50412 27.63841-9.6783 27.63841-10.63014 26.68657-10.63014 25.51237-10.63014 24.3382-9.6783 23.38635-8.50412 23.38635-7.32993 23.38635-6.37808 24.3382-6.37808 25.51237ZM-8.50412 25.51237" fill="#d73589"/>
<path transform="matrix(1,0,0,-1.00002,94.106,103.68082)" stroke-width=".3985" stroke-linecap="butt" stroke-miterlimit="10" stroke-linejoin="miter" fill="none" stroke="#d73589" d="M-6.37808 25.51237C-6.37808 26.68657-7.32993 27.63841-8.50412 27.63841-9.6783 27.63841-10.63014 26.68657-10.63014 25.51237-10.63014 24.3382-9.6783 23.38635-8.50412 23.38635-7.32993 23.38635-6.37808 24.3382-6.37808 25.51237ZM-8.50412 25.51237"/>
<path transform="matrix(1,0,0,-1.00002,94.106,103.68082)" d="M2.12602 8.50412C2.12602 9.6783 1.17418 10.63014 0 10.63014-1.17418 10.63014-2.12602 9.6783-2.12602 8.50412-2.12602 7.32993-1.17418 6.37808 0 6.37808 1.17418 6.37808 2.12602 7.32993 2.12602 8.50412ZM0 8.50412" fill="#d73589"/>
<path transform="matrix(1,0,0,-1.00002,94.106,103.68082)" stroke-width=".3985" stroke-linecap="butt" stroke-miterlimit="10" stroke-linejoin="miter" fill="none" stroke="#d73589" d="M2.12602 8.50412C2.12602 9.6783 1.17418 10.63014 0 10.63014-1.17418 10.63014-2.12602 9.6783-2.12602 8.50412-2.12602 7.32993-1.17418 6.37808 0 6.37808 1.17418 6.37808 2.12602 7.32993 2.12602 8.50412ZM0 8.50412"/>
<path transform="matrix(1,0,0,-1.00002,94.106,103.68082)" d="M-16.7935 0C-16.7935 1.17418-17.74533 2.12602-18.91953 2.12602-20.0937 2.12602-21.04555 1.17418-21.04555 0-21.04555-1.17418-20.0937-2.12602-18.91953-2.12602-17.74533-2.12602-16.7935-1.17418-16.7935 0ZM-18.91953 0" fill="#d73589"/>
<path transform="matrix(1,0,0,-1.00002,94.106,103.68082)" stroke-width=".3985" stroke-linecap="butt" stroke-miterlimit="10" stroke-linejoin="miter" fill="none" stroke="#d73589" d="M-16.7935 0C-16.7935 1.17418-17.74533 2.12602-18.91953 2.12602-20.0937 2.12602-21.04555 1.17418-21.04555 0-21.04555-1.17418-20.0937-2.12602-18.91953-2.12602-17.74533-2.12602-16.7935-1.17418-16.7935 0ZM-18.91953 0"/>
<path transform="matrix(1,0,0,-1.00002,94.106,103.68082)" d="M4.0373 0C4.0373 1.17418 3.08545 2.12602 1.91125 2.12602 .73708 2.12602-.21475 1.17418-.21475 0-.21475-1.17418 .73708-2.12602 1.91125-2.12602 3.08545-2.12602 4.0373-1.17418 4.0373 0ZM1.91125 0" fill="#d73589"/>
<path transform="matrix(1,0,0,-1.00002,94.106,103.68082)" stroke-width=".3985" stroke-linecap="butt" stroke-miterlimit="10" stroke-linejoin="miter" fill="none" stroke="#d73589" d="M4.0373 0C4.0373 1.17418 3.08545 2.12602 1.91125 2.12602 .73708 2.12602-.21475 1.17418-.21475 0-.21475-1.17418 .73708-2.12602 1.91125-2.12602 3.08545-2.12602 4.0373-1.17418 4.0373 0ZM1.91125 0"/>
</svg>
