<svg xmlns="http://www.w3.org/2000/svg" xmlns:xlink="http://www.w3.org/1999/xlink" version="1.1" width="193" height="224" viewBox="0 0 193 224">
<defs>
<path id="font_1_1" d="M.33399964 .30233766C.33999635 .32835389 .36299134 .42037965 .43299867 .42037965 .43798829 .42037965 .46199037 .42037965 .48298646 .40734864 .45498658 .402359 .43499757 .37734986 .43499757 .35334779 .43499757 .33735658 .44599916 .31835938 .47299195 .31835938 .49499513 .31835938 .5269928 .3363495 .5269928 .37635804 .5269928 .42837525 .46798707 .4423828 .43399049 .4423828 .37599183 .4423828 .34098817 .38935853 .32899476 .36634828 .3039856 .43237306 .25 .4423828 .22099304 .4423828 .116989139 .4423828 .05999756 .3133545 .05999756 .28834535 .05999756 .27833558 .069992069 .27833558 .07199097 .27833558 .07998657 .27833558 .08299255 .28033448 .084991458 .28933717 .11898804 .39535523 .18499756 .42037965 .21899414 .42037965 .23799134 .42037965 .272995 .4113617 .272995 .35334779 .272995 .32235719 .2559967 .25532533 .21899414 .11528015 .20298767 .053268434 .16799927 .011245728 .12399292 .011245728 .117996219 .011245728 .09498596 .011245728 .07398987 .024276734 .09899902 .029266358 .12098694 .05027771 .12098694 .07827759 .12098694 .105270389 .09899902 .11328125 .083999637 .11328125 .053985597 .11328125 .0289917 .08728027 .0289917 .055267335 .0289917 .009246826 .07899475-.0107421879 .12298584-.0107421879 .18899536-.0107421879 .22499085 .059280397 .22799683 .0652771 .23999024 .028274537 .27598573-.0107421879 .33599855-.0107421879 .43899537-.0107421879 .49598695 .118270877 .49598695 .14328003 .49598695 .1532898 .4869995 .1532898 .48399354 .1532898 .47499085 .1532898 .47299195 .14929199 .47099305 .14228821 .43798829 .03527832 .36999513 .011245728 .33799745 .011245728 .29899598 .011245728 .2829895 .043273927 .2829895 .07727051 .2829895 .09927368 .2889862 .121276859 .2999878 .16529846L.33399964 .30233766Z"/>
<path id="font_1_2" d="M.48599244 .38136292C.48999024 .39537049 .48999024 .39736939 .48999024 .40437318 .48999024 .42237855 .47599793 .43138124 .46099855 .43138124 .45098878 .43138124 .43499757 .42536927 .42599488 .41036988 .42399598 .405365 .41600038 .37435914 .4119873 .35635377 .40499879 .33035279 .397995 .30334474 .3919983 .27633668L.34700013 .09628296C.34298707 .08126831 .2999878 .011245728 .23399353 .011245728 .18299866 .011245728 .17199707 .055267335 .17199707 .0922699 .17199707 .1382904 .18899536 .20030213 .22299195 .28833009 .23899842 .3293457 .24299622 .3403473 .24299622 .36035157 .24299622 .405365 .21099854 .4423828 .16099549 .4423828 .06599426 .4423828 .0289917 .29733277 .0289917 .28833009 .0289917 .27833558 .038986207 .27833558 .040985109 .27833558 .050994874 .27833558 .051986696 .28033448 .056991579 .29634095 .083999637 .3903656 .12399292 .42037965 .1579895 .42037965 .1659851 .42037965 .18299866 .42037965 .18299866 .3883667 .18299866 .36335755 .17298889 .3373413 .1659851 .31834413 .12599182 .21231079 .10798645 .1552887 .10798645 .10827637 .10798645 .019256592 .17098999-.0107421879 .22999573-.0107421879 .2689972-.0107421879 .30299378 .0062561037 .33099366 .03425598 .31799317-.017745972 .30599977-.06674194 .2659912-.11973572 .23999024-.15385437 .20199585-.18309021 .1559906-.18309021 .14199829-.18309021 .09700012-.18005371 .07998657-.14074707 .09599304-.14074707 .10899353-.14074707 .12298584-.1287384 .1329956-.11973572 .14299011-.10673523 .14299011-.08773804 .14299011-.056747438 .115997318-.052734376 .10598755-.052734376 .08299255-.052734376 .049987794-.068740848 .049987794-.11773682 .049987794-.16796875 .09399414-.20507813 .1559906-.20507813 .25898744-.20507813 .3619995-.11373901 .3899994-.00074768069L.48599244 .38136292Z"/>
<path id="font_2_1" d="M.6589966 .23046875C.6759949 .23046875 .69400027 .23046875 .69400027 .25045777 .69400027 .27046205 .6759949 .27046205 .6589966 .27046205H.117996219C.100997928 .27046205 .08299255 .27046205 .08299255 .25045777 .08299255 .23046875 .100997928 .23046875 .117996219 .23046875H.6589966Z"/>
<path id="font_3_3" d="M.2939911 .16503906V.07800293C.2939911 .041992189 .2919922 .0309906 .21798706 .0309906H.19699097V0C.23799134 .0029907227 .2899933 .0029907227 .33198548 .0029907227 .37399293 .0029907227 .4269867 .0029907227 .46798707 0V.0309906H.44699098C.37298585 .0309906 .37098695 .041992189 .37098695 .07800293V.16503906H.47099305V.19602967H.37098695V.65075686C.37098695 .67074587 .37098695 .6767578 .35499574 .6767578 .34599305 .6767578 .34298707 .6767578 .33499146 .66474917L.027999878 .19602967V.16503906H.2939911M.2999878 .19602967H.055999757L.2999878 .5688019V.19602967Z"/>
<path id="font_3_1" d="M.45999146 .31976319C.45999146 .39982606 .45498658 .47988893 .41999818 .5539398 .37399293 .65000918 .2919922 .6660156 .25 .6660156 .18998719 .6660156 .116989139 .64001467 .07598877 .54693606 .04399109 .47789 .038986207 .39982606 .038986207 .31976319 .038986207 .24472046 .042999269 .15464783 .083999637 .07859802 .1269989-.0024719239 .19999695-.022460938 .24899292-.022460938 .30299378-.022460938 .3789978-.0014648438 .4229889 .09359741 .45498658 .16265869 .45999146 .2407074 .45999146 .31976319M.24899292-.00047302247C.20999146-.00047302247 .15098572 .024551392 .1329956 .12062073 .12199402 .18066406 .12199402 .2727356 .12199402 .3317871 .12199402 .39582826 .12199402 .46188355 .12998963 .5159149 .14898682 .63500979 .22399903 .64401248 .24899292 .64401248 .28199769 .64401248 .34799195 .6259918 .36698915 .52693179 .3769989 .47088624 .3769989 .39482118 .3769989 .3317871 .3769989 .25672914 .3769989 .18867493 .3659973 .12461853 .35099793 .029556275 .2939911-.00047302247 .24899292-.00047302247Z"/>
<path id="font_3_2" d="M.1269989 .07699585 .23298645 .18003845C.3889923 .31811524 .44898988 .3721466 .44898988 .47216798 .44898988 .5860901 .35899354 .6660156 .23699951 .6660156 .12399292 .6660156 .049987794 .57411196 .049987794 .48516847 .049987794 .4291687 .099990848 .4291687 .102996829 .4291687 .11999512 .4291687 .15499878 .44117738 .15499878 .48217774 .15499878 .5081787 .13699341 .5341797 .101989749 .5341797 .09399414 .5341797 .09199524 .5341797 .08898926 .5331726 .11199951 .59806826 .1659851 .63500979 .22399903 .63500979 .31498719 .63500979 .35798646 .5541382 .35798646 .47216798 .35798646 .39215089 .30799867 .31311036 .25299073 .25108338L.06098938 .036987306C.049987794 .025985718 .049987794 .023986817 .049987794 0H.42099L.44898988 .17404175H.42399598C.4189911 .14402771 .4119873 .1000061 .4019928 .084991458 .394989 .07699585 .32899476 .07699585 .30699159 .07699585H.1269989Z"/>
</defs>
<path transform="matrix(1,0,0,-1.00006,103.86,83.276218)" stroke-width=".3985" stroke-linecap="butt" stroke-miterlimit="10" stroke-linejoin="miter" fill="none" stroke="#00aeef" d="M-102.04953-136.06606H68.03302M-102.04953-119.0578H68.03302M-102.04953-102.04953H68.03302M-102.04953-85.04128H68.03302M-102.04953-68.03302H68.03302M-102.04953-51.02477H68.03302M-102.04953-34.0165H68.03302M-102.04953-17.00824H68.03302M-102.04953 0H68.03302M-102.04953 17.00824H68.03302M-102.04953 34.0165H68.03302M-102.04953 51.02477H68.03302M-102.04953 68.02705H68.03302M-102.04953-136.06606V68.03302M-85.04128-136.06606V68.03302M-68.03302-136.06606V68.03302M-51.02477-136.06606V68.03302M-34.0165-136.06606V68.03302M-17.00824-136.06606V68.03302M0-136.06606V68.03302M17.00824-136.06606V68.03302M34.0165-136.06606V68.03302M51.02477-136.06606V68.03302M68.02705-136.06606V68.03302M68.03302 68.03302"/>
<path transform="matrix(1,0,0,-1.00006,103.86,83.276218)" stroke-width="1.19553" stroke-linecap="butt" stroke-miterlimit="10" stroke-linejoin="miter" fill="none" stroke="#000000" d="M-102.04953 0H76.36508"/>
<path transform="matrix(1,0,0,-1.00006,180.22509,83.276218)" d="M1.27522 0C-.31879 .31879-1.91284 .9564-3.8257 2.07224-1.91284 .6376-1.91284-.6376-3.8257-2.07224-1.91284-.9564-.31879-.31879 1.27522 0Z"/>
<path transform="matrix(1,0,0,-1.00006,180.22509,83.276218)" stroke-width="1.19553" stroke-linecap="butt" stroke-linejoin="round" fill="none" stroke="#000000" d="M1.27522 0C-.31879 .31879-1.91284 .9564-3.8257 2.07224-1.91284 .6376-1.91284-.6376-3.8257-2.07224-1.91284-.9564-.31879-.31879 1.27522 0Z"/>
<use data-text="x" xlink:href="#font_1_1" transform="matrix(9.9626,0,0,-9.963197,186.01599,85.42134)"/>
<path transform="matrix(1,0,0,-1.00006,103.86,83.276218)" stroke-width="1.19553" stroke-linecap="butt" stroke-miterlimit="10" stroke-linejoin="miter" fill="none" stroke="#000000" d="M0-136.06606V76.36508"/>
<path transform="matrix(0,-1.00006,-1,-0,103.86,6.906555)" d="M1.27522 0C-.31879 .31879-1.91284 .9564-3.8257 2.07224-1.91284 .6376-1.91284-.6376-3.8257-2.07224-1.91284-.9564-.31879-.31879 1.27522 0Z"/>
<path transform="matrix(0,-1.00006,-1,-0,103.86,6.906555)" stroke-width="1.19553" stroke-linecap="butt" stroke-linejoin="round" fill="none" stroke="#000000" d="M1.27522 0C-.31879 .31879-1.91284 .9564-3.8257 2.07224-1.91284 .6376-1.91284-.6376-3.8257-2.07224-1.91284-.9564-.31879-.31879 1.27522 0Z"/>
<use data-text="y" xlink:href="#font_1_2" transform="matrix(9.9626,0,0,-9.963197,96.692,6.2095949)"/>
<path transform="matrix(1,0,0,-1.00006,103.86,83.276218)" stroke-width=".3985" stroke-linecap="butt" stroke-miterlimit="10" stroke-linejoin="miter" fill="none" stroke="#000000" d="M-68.03302 2.55112V-2.55139"/>
<path transform="matrix(1,0,0,-1.00006,103.86,83.276218)" d="M-75.39442-13.98642H-60.67164V-4.74319H-75.39442Z" fill="#ffffff"/>
<use data-text="&#x2212;" xlink:href="#font_2_1" transform="matrix(9.9626,0,0,-9.963197,29.46199,95.43694)"/>
<use data-text="4" xlink:href="#font_3_3" transform="matrix(9.9626,0,0,-9.963197,37.210985,95.43694)"/>
<path transform="matrix(1,0,0,-1.00006,103.86,83.276218)" stroke-width=".3985" stroke-linecap="butt" stroke-miterlimit="10" stroke-linejoin="miter" fill="none" stroke="#000000" d="M68.03302 2.55112V-2.55139"/>
<path transform="matrix(1,0,0,-1.00006,103.86,83.276218)" d="M64.54605-13.15617H71.51999V-4.74319H64.54605Z" fill="#ffffff"/>
<use data-text="4" xlink:href="#font_3_3" transform="matrix(9.9626,0,0,-9.963197,169.40201,95.43694)"/>
<path transform="matrix(1,0,0,-1.00006,103.86,83.276218)" stroke-width=".3985" stroke-linecap="butt" stroke-miterlimit="10" stroke-linejoin="miter" fill="none" stroke="#000000" d="M2.55112-136.06606H-2.55139"/>
<path transform="matrix(1,0,0,-1.00006,103.86,83.276218)" d="M-24.44739-140.68767H-4.743189V-131.44445H-24.44739Z" fill="#ffffff"/>
<use data-text="&#x2212;" xlink:href="#font_2_1" transform="matrix(9.9626,0,0,-9.963197,80.409,222.14554)"/>
<use data-text="4" xlink:href="#font_3_3" transform="matrix(9.9626,0,0,-9.963197,88.15799,222.14554)"/>
<use data-text="0" xlink:href="#font_3_1" transform="matrix(9.9626,0,0,-9.963197,93.13928,222.14554)"/>
<path transform="matrix(1,0,0,-1.00006,103.86,83.276218)" stroke-width=".3985" stroke-linecap="butt" stroke-miterlimit="10" stroke-linejoin="miter" fill="none" stroke="#000000" d="M2.55112-68.03302H-2.55139"/>
<path transform="matrix(1,0,0,-1.00006,103.86,83.276218)" d="M-24.44739-72.65465H-4.743189V-63.41142H-24.44739Z" fill="#ffffff"/>
<use data-text="&#x2212;" xlink:href="#font_2_1" transform="matrix(9.9626,0,0,-9.963197,80.409,154.10846)"/>
<use data-text="2" xlink:href="#font_3_2" transform="matrix(9.9626,0,0,-9.963197,88.15799,154.10846)"/>
<use data-text="0" xlink:href="#font_3_1" transform="matrix(9.9626,0,0,-9.963197,93.13928,154.10846)"/>
<path transform="matrix(1,0,0,-1.00006,103.86,83.276218)" stroke-width=".3985" stroke-linecap="butt" stroke-miterlimit="10" stroke-linejoin="miter" fill="none" stroke="#000000" d="M2.55112 68.03302H-2.55139"/>
<path transform="matrix(1,0,0,-1.00006,103.86,83.276218)" d="M-16.69855 63.82654H-4.743209V72.239528H-16.69855Z" fill="#ffffff"/>
<use data-text="2" xlink:href="#font_3_2" transform="matrix(9.9626,0,0,-9.963197,88.158008,18.449334)"/>
<use data-text="0" xlink:href="#font_3_1" transform="matrix(9.9626,0,0,-9.963197,93.1393,18.449334)"/>
<path transform="matrix(1,0,0,-1.00006,103.86,83.276218)" stroke-width="1.19553" stroke-linecap="butt" stroke-miterlimit="10" stroke-linejoin="miter" fill="none" stroke="#ff0000" d="M-90.37662-134.20423C-89.05078-117.11206-89.05078-117.11206-88.48596-110.24586-87.92114-103.37967-87.01532-92.85994-86.4505-86.58467-85.88567-80.3094-84.97987-70.72182-84.41504-65.01811-83.85022-59.3144-82.9444-50.62794-82.37958-45.47636-81.81476-40.32477-80.90895-32.50797-80.34412-27.8891-79.7793-23.27023-78.87347-16.29233-78.30867-12.18677-77.74384-8.0812-76.83804-1.91077-76.27321 1.70091-75.70839 5.3126-74.80257 10.70662-74.23776 13.84384-73.67293 16.98106-72.76712 21.62967-72.20229 24.3118-71.63747 26.99394-70.73166 30.92831-70.16684 33.17487-69.602 35.42139-68.6962 38.67299-68.13136 40.50334-67.56656 42.33368-66.66074 44.9333-66.09592 46.3668-65.53108 47.80031-64.62529 49.77896-64.06046 50.83504-63.49564 51.89114-62.58983 53.28029-62.025 53.97842-61.46017 54.67656-60.55437 55.50714-59.98955 55.86671-59.42473 56.2263-58.51892 56.5296-57.95409 56.57004-57.38927 56.61047-56.48346 56.41747-55.91862 56.15817-55.3538 55.89888-54.448 55.24081-53.88318 54.7012-53.31834 54.16158-52.41254 53.06943-51.8477 52.26892-51.28288 51.46841-50.37709 49.9737-49.81226 48.93169-49.24742 47.88968-48.34161 46.02289-47.77678 44.75877-47.21198 43.49464-46.30617 41.28752-45.74135 39.82079-45.17651 38.35405-44.2707 35.83751-43.70587 34.18753-43.14107 32.53755-42.23526 29.74263-41.67043 27.9288-41.10559 26.11499-40.19978 23.07294-39.63496 21.1147-39.07014 19.1565-38.16434 15.89851-37.5995 13.81529-37.03467 11.73209-36.12888 8.28915-35.56404 6.10039-34.99922 3.9116-34.09341 .31499-33.5286-1.95992-32.96376-4.23486-32.05795-7.95415-31.49312-10.29588-30.9283-12.63759-30.0225-16.4483-29.45767-18.83737-28.89285-21.22644-27.98705-25.09761-27.42221-27.51462-26.85739-29.93161-25.95158-33.83205-25.38676-36.2575-24.82193-38.68297-23.91612-42.58113-23.35129-44.99573-22.78648-47.41031-21.88068-51.27592-21.31584-53.66023-20.751-56.04456-19.8452-59.84566-19.2804-62.1802-18.71556-64.51474-17.80975-68.22067-17.24492-70.48605-16.68008-72.75142-15.77429-76.33063-15.20947-78.50746-14.64465-80.6843-13.73885-84.10628-13.17401-86.17514-12.60918-88.244-11.70338-91.47707-11.13857-93.4185-10.57373-95.35994-9.66792-98.3731-9.10309-100.16771-8.53827-101.96236-7.63246-104.72453-7.06764-106.35298-6.5028-107.98145-5.597-110.4617-5.03218-111.9045-4.46735-113.34729-3.56154-115.51396-2.99672-116.75165-2.4319-117.98933-1.5261-119.81165-.96126-120.8249-.39642-121.83815 .50932-123.28505 1.07414-124.05443 1.63898-124.82382 2.54478-125.86412 3.10962-126.37018 3.67444-126.87624 4.58025-127.47845 5.14507-127.70181 5.7099-127.92516 6.6157-128.05872 7.18053-127.98003 7.74536-127.9013 8.65117-127.53479 9.21599-127.13449 9.7808-126.73418 10.68661-125.83621 11.25145-125.09486 11.81628-124.35353 12.72209-122.89302 13.2869-121.79137 13.85173-120.68973 14.75752-118.63635 15.32236-117.15495 15.88719-115.67357 16.793-112.99515 17.35782-111.11449 17.92264-109.23384 18.82845-105.89967 19.39328-103.60046 19.95811-101.30124 20.8639-97.28058 21.42873-94.54329 21.99356-91.80597 22.89937-87.06668 23.4642-83.87184 24.02902-80.67702 24.93483-75.1887 25.49965-71.51715 26.06448-67.8456 26.97029-61.57771 27.53511-57.40985 28.09993-53.242 29.00575-46.16171 29.57057-41.4781 30.13539-36.79451 31.0412-28.87222 31.60602-23.65364 32.17084-18.43506 33.07666-9.6393 33.64148-3.86613 34.20631 1.907 35.1121 11.60812 35.67694 17.95525 36.24176 24.3024 37.14758 34.93913 37.7124 41.87961 38.27722 48.82005 39.74786 67.97722 39.6045 66.10983"/>
<path transform="matrix(-.07732,.99700978,.99695,.07732464,13.483398,217.48848)" d="M1.27522 0C-.31879 .31879-1.91284 .9564-3.8257 2.07224-1.91284 .6376-1.91284-.6376-3.8257-2.07224-1.91284-.9564-.31879-.31879 1.27522 0Z" fill="#ff0000"/>
<path transform="matrix(-.07732,.99700978,.99695,.07732464,13.483398,217.48848)" stroke-width="1.19553" stroke-linecap="butt" stroke-linejoin="round" fill="none" stroke="#ff0000" d="M1.27522 0C-.31879 .31879-1.91284 .9564-3.8257 2.07224-1.91284 .6376-1.91284-.6376-3.8257-2.07224-1.91284-.9564-.31879-.31879 1.27522 0Z"/>
<path transform="matrix(.07654,-.9970698,-.99701,-.07654459,143.4645,17.16243)" d="M1.27522 0C-.31879 .31879-1.91284 .9564-3.8257 2.07224-1.91284 .6376-1.91284-.6376-3.8257-2.07224-1.91284-.9564-.31879-.31879 1.27522 0Z" fill="#ff0000"/>
<path transform="matrix(.07654,-.9970698,-.99701,-.07654459,143.4645,17.16243)" stroke-width="1.19553" stroke-linecap="butt" stroke-linejoin="round" fill="none" stroke="#ff0000" d="M1.27522 0C-.31879 .31879-1.91284 .9564-3.8257 2.07224-1.91284 .6376-1.91284-.6376-3.8257-2.07224-1.91284-.9564-.31879-.31879 1.27522 0Z"/>
</svg>
