<svg xmlns="http://www.w3.org/2000/svg" xmlns:xlink="http://www.w3.org/1999/xlink" version="1.1" width="203" height="194" viewBox="0 0 203 194">
<defs>
<path id="font_1_1" d="M.33399964 .30233766C.33999635 .32835389 .36299134 .42037965 .43299867 .42037965 .43798829 .42037965 .46199037 .42037965 .48298646 .40734864 .45498658 .402359 .43499757 .37734986 .43499757 .35334779 .43499757 .33735658 .44599916 .31835938 .47299195 .31835938 .49499513 .31835938 .5269928 .3363495 .5269928 .37635804 .5269928 .42837525 .46798707 .4423828 .43399049 .4423828 .37599183 .4423828 .34098817 .38935853 .32899476 .36634828 .3039856 .43237306 .25 .4423828 .22099304 .4423828 .116989139 .4423828 .05999756 .3133545 .05999756 .28834535 .05999756 .27833558 .069992069 .27833558 .07199097 .27833558 .07998657 .27833558 .08299255 .28033448 .084991458 .28933717 .11898804 .39535523 .18499756 .42037965 .21899414 .42037965 .23799134 .42037965 .272995 .4113617 .272995 .35334779 .272995 .32235719 .2559967 .25532533 .21899414 .11528015 .20298767 .053268434 .16799927 .011245728 .12399292 .011245728 .117996219 .011245728 .09498596 .011245728 .07398987 .024276734 .09899902 .029266358 .12098694 .05027771 .12098694 .07827759 .12098694 .105270389 .09899902 .11328125 .083999637 .11328125 .053985597 .11328125 .0289917 .08728027 .0289917 .055267335 .0289917 .009246826 .07899475-.0107421879 .12298584-.0107421879 .18899536-.0107421879 .22499085 .059280397 .22799683 .0652771 .23999024 .028274537 .27598573-.0107421879 .33599855-.0107421879 .43899537-.0107421879 .49598695 .118270877 .49598695 .14328003 .49598695 .1532898 .4869995 .1532898 .48399354 .1532898 .47499085 .1532898 .47299195 .14929199 .47099305 .14228821 .43798829 .03527832 .36999513 .011245728 .33799745 .011245728 .29899598 .011245728 .2829895 .043273927 .2829895 .07727051 .2829895 .09927368 .2889862 .121276859 .2999878 .16529846L.33399964 .30233766Z"/>
<path id="font_1_2" d="M.48599244 .38136292C.48999024 .39537049 .48999024 .39736939 .48999024 .40437318 .48999024 .42237855 .47599793 .43138124 .46099855 .43138124 .45098878 .43138124 .43499757 .42536927 .42599488 .41036988 .42399598 .405365 .41600038 .37435914 .4119873 .35635377 .40499879 .33035279 .397995 .30334474 .3919983 .27633668L.34700013 .09628296C.34298707 .08126831 .2999878 .011245728 .23399353 .011245728 .18299866 .011245728 .17199707 .055267335 .17199707 .0922699 .17199707 .1382904 .18899536 .20030213 .22299195 .28833009 .23899842 .3293457 .24299622 .3403473 .24299622 .36035157 .24299622 .405365 .21099854 .4423828 .16099549 .4423828 .06599426 .4423828 .0289917 .29733277 .0289917 .28833009 .0289917 .27833558 .038986207 .27833558 .040985109 .27833558 .050994874 .27833558 .051986696 .28033448 .056991579 .29634095 .083999637 .3903656 .12399292 .42037965 .1579895 .42037965 .1659851 .42037965 .18299866 .42037965 .18299866 .3883667 .18299866 .36335755 .17298889 .3373413 .1659851 .31834413 .12599182 .21231079 .10798645 .1552887 .10798645 .10827637 .10798645 .019256592 .17098999-.0107421879 .22999573-.0107421879 .2689972-.0107421879 .30299378 .0062561037 .33099366 .03425598 .31799317-.017745972 .30599977-.06674194 .2659912-.11973572 .23999024-.15385437 .20199585-.18309021 .1559906-.18309021 .14199829-.18309021 .09700012-.18005371 .07998657-.14074707 .09599304-.14074707 .10899353-.14074707 .12298584-.1287384 .1329956-.11973572 .14299011-.10673523 .14299011-.08773804 .14299011-.056747438 .115997318-.052734376 .10598755-.052734376 .08299255-.052734376 .049987794-.068740848 .049987794-.11773682 .049987794-.16796875 .09399414-.20507813 .1559906-.20507813 .25898744-.20507813 .3619995-.11373901 .3899994-.00074768069L.48599244 .38136292Z"/>
<path id="font_2_1" d="M.6589966 .23046875C.6759949 .23046875 .69400027 .23046875 .69400027 .25045777 .69400027 .27046205 .6759949 .27046205 .6589966 .27046205H.117996219C.100997928 .27046205 .08299255 .27046205 .08299255 .25045777 .08299255 .23046875 .100997928 .23046875 .117996219 .23046875H.6589966Z"/>
<path id="font_3_3" d="M.44898988 .20022583C.44898988 .3193512 .36698915 .41944886 .25898744 .41944886 .21099854 .41944886 .16799927 .40345765 .13198853 .36842347V.5637665C.1519928 .5577698 .18499756 .55078127 .21699524 .55078127 .33999635 .55078127 .4099884 .6417694 .4099884 .6547699 .4099884 .6607666 .40699769 .6657715 .3999939 .6657715 .39898683 .6657715 .39698792 .6657715 .3919983 .66278079 .37199403 .6537781 .32299806 .6337738 .2559967 .6337738 .21598816 .6337738 .16999817 .6407776 .12298584 .6617737 .114990238 .66477969 .11299133 .66477969 .11099243 .66477969 .100997928 .66477969 .100997928 .6567688 .100997928 .6407776V.34439088C.100997928 .32637025 .100997928 .31835938 .114990238 .31835938 .12199402 .31835938 .12399292 .32136537 .12799073 .32736207 .13899231 .3433838 .17599488 .39746095 .25698854 .39746095 .30899049 .39746095 .33399964 .35139466 .34199525 .33337403 .35798646 .29632569 .3600006 .25727845 .3600006 .20722962 .3600006 .17222595 .3600006 .11222839 .33599855 .07035828 .31199647 .031463624 .2749939 .0055389406 .22898865 .0055389406 .1559906 .0055389406 .09899902 .058380128 .08198547 .11723328 .084991458 .1162262 .08799744 .115234378 .09899902 .115234378 .13198853 .115234378 .14898682 .14022827 .14898682 .16423035 .14898682 .18823242 .13198853 .21322632 .09899902 .21322632 .084991458 .21322632 .049987794 .20622254 .049987794 .16023255 .049987794 .07434082 .11898804-.022460938 .23098755-.022460938 .34700013-.022460938 .44898988 .073349 .44898988 .20022583Z"/>
<path id="font_3_2" d="M.2939911 .64004519C.2939911 .66400149 .2939911 .6660156 .2709961 .6660156 .20899964 .60227969 .12098694 .60227969 .08898926 .60227969V.57128909C.10899353 .57128909 .16799927 .57128909 .21998596 .5972748V.07902527C.21998596 .042999269 .21699524 .0309906 .1269989 .0309906H.09498596V0C.12998963 .0029907227 .21699524 .0029907227 .25698854 .0029907227 .29699708 .0029907227 .38398744 .0029907227 .4189911 0V.0309906H.3869934C.29699708 .0309906 .2939911 .041992189 .2939911 .07902527V.64004519Z"/>
<path id="font_3_1" d="M.45999146 .31976319C.45999146 .39982606 .45498658 .47988893 .41999818 .5539398 .37399293 .65000918 .2919922 .6660156 .25 .6660156 .18998719 .6660156 .116989139 .64001467 .07598877 .54693606 .04399109 .47789 .038986207 .39982606 .038986207 .31976319 .038986207 .24472046 .042999269 .15464783 .083999637 .07859802 .1269989-.0024719239 .19999695-.022460938 .24899292-.022460938 .30299378-.022460938 .3789978-.0014648438 .4229889 .09359741 .45498658 .16265869 .45999146 .2407074 .45999146 .31976319M.24899292-.00047302247C.20999146-.00047302247 .15098572 .024551392 .1329956 .12062073 .12199402 .18066406 .12199402 .2727356 .12199402 .3317871 .12199402 .39582826 .12199402 .46188355 .12998963 .5159149 .14898682 .63500979 .22399903 .64401248 .24899292 .64401248 .28199769 .64401248 .34799195 .6259918 .36698915 .52693179 .3769989 .47088624 .3769989 .39482118 .3769989 .3317871 .3769989 .25672914 .3769989 .18867493 .3659973 .12461853 .35099793 .029556275 .2939911-.00047302247 .24899292-.00047302247Z"/>
</defs>
<path transform="matrix(1,0,0,-1.00002,94.106,103.68082)" stroke-width=".3985" stroke-linecap="butt" stroke-miterlimit="10" stroke-linejoin="miter" fill="none" stroke="#00aeef" d="M-85.04128-85.04128H85.04128M-85.04128-76.53716H85.04128M-85.04128-68.03302H85.04128M-85.04128-59.52888H85.04128M-85.04128-51.02477H85.04128M-85.04128-42.52063H85.04128M-85.04128-34.0165H85.04128M-85.04128-25.51237H85.04128M-85.04128-17.00824H85.04128M-85.04128-8.50412H85.04128M-85.04128 0H85.04128M-85.04128 8.50412H85.04128M-85.04128 17.00824H85.04128M-85.04128 25.51237H85.04128M-85.04128 34.0165H85.04128M-85.04128 42.52063H85.04128M-85.04128 51.02477H85.04128M-85.04128 59.52888H85.04128M-85.04128 68.03302H85.04128M-85.04128 76.53716H85.04128M-85.04128 85.0383H85.04128M-85.04128-85.04128V85.04128M-76.53716-85.04128V85.04128M-68.03302-85.04128V85.04128M-59.52888-85.04128V85.04128M-51.02477-85.04128V85.04128M-42.52063-85.04128V85.04128M-34.0165-85.04128V85.04128M-25.51237-85.04128V85.04128M-17.00824-85.04128V85.04128M-8.50412-85.04128V85.04128M0-85.04128V85.04128M8.50412-85.04128V85.04128M17.00824-85.04128V85.04128M25.51237-85.04128V85.04128M34.0165-85.04128V85.04128M42.52063-85.04128V85.04128M51.02477-85.04128V85.04128M59.52888-85.04128V85.04128M68.03302-85.04128V85.04128M76.53716-85.04128V85.04128M85.0383-85.04128V85.04128M85.04128 85.04128"/>
<path transform="matrix(1,0,0,-1.00002,94.106,103.68082)" stroke-width="1.19553" stroke-linecap="butt" stroke-miterlimit="10" stroke-linejoin="miter" fill="none" stroke="#000000" d="M-85.04128 0H96.77495"/>
<path transform="matrix(1,0,0,-1.00002,190.88095,103.68082)" d="M1.27522 0C-.31879 .31879-1.91284 .9564-3.8257 2.07224-1.91284 .6376-1.91284-.6376-3.8257-2.07224-1.91284-.9564-.31879-.31879 1.27522 0Z"/>
<path transform="matrix(1,0,0,-1.00002,190.88095,103.68082)" stroke-width="1.19553" stroke-linecap="butt" stroke-linejoin="round" fill="none" stroke="#000000" d="M1.27522 0C-.31879 .31879-1.91284 .9564-3.8257 2.07224-1.91284 .6376-1.91284-.6376-3.8257-2.07224-1.91284-.9564-.31879-.31879 1.27522 0Z"/>
<use data-text="x" xlink:href="#font_1_1" transform="matrix(9.9626,0,0,-9.962799,196.672,105.82586)"/>
<path transform="matrix(1,0,0,-1.00002,94.106,103.68082)" stroke-width="1.19553" stroke-linecap="butt" stroke-miterlimit="10" stroke-linejoin="miter" fill="none" stroke="#000000" d="M0-85.04128V96.77495"/>
<path transform="matrix(0,-1.00002,-1,-0,94.106,6.9039309)" d="M1.27522 0C-.31879 .31879-1.91284 .9564-3.8257 2.07224-1.91284 .6376-1.91284-.6376-3.8257-2.07224-1.91284-.9564-.31879-.31879 1.27522 0Z"/>
<path transform="matrix(0,-1.00002,-1,-0,94.106,6.9039309)" stroke-width="1.19553" stroke-linecap="butt" stroke-linejoin="round" fill="none" stroke="#000000" d="M1.27522 0C-.31879 .31879-1.91284 .9564-3.8257 2.07224-1.91284 .6376-1.91284-.6376-3.8257-2.07224-1.91284-.9564-.31879-.31879 1.27522 0Z"/>
<use data-text="y" xlink:href="#font_1_2" transform="matrix(9.9626,0,0,-9.962799,86.938,6.2068636)"/>
<path transform="matrix(1,0,0,-1.00002,94.106,103.68082)" stroke-width="1.19553" stroke-linecap="butt" stroke-miterlimit="10" stroke-linejoin="miter" fill="none" stroke="#00aeef" d="M-42.52063-85.04128V85.04128"/>
<path transform="matrix(1,0,0,-1.00002,94.106,103.68082)" stroke-width="1.19553" stroke-linecap="butt" stroke-miterlimit="10" stroke-linejoin="miter" fill="none" stroke="#00aeef" d="M-85.04128-42.52063H85.04128"/>
<path transform="matrix(1,0,0,-1.00002,94.106,103.68082)" stroke-width=".3985" stroke-linecap="butt" stroke-miterlimit="10" stroke-linejoin="miter" fill="none" stroke="#000000" d="M-42.52063 1.27554V-1.27568"/>
<path transform="matrix(1,0,0,-1.00002,94.106,103.68082)" d="M-49.88202-12.71071H-35.15924V-3.4674798H-49.88202Z" fill="#ffffff"/>
<use data-text="&#x2212;" xlink:href="#font_2_1" transform="matrix(9.9626,0,0,-9.962799,45.22,114.56503)"/>
<use data-text="5" xlink:href="#font_3_3" transform="matrix(9.9626,0,0,-9.962799,52.968996,114.56503)"/>
<path transform="matrix(1,0,0,-1.00002,94.106,103.68082)" stroke-width=".3985" stroke-linecap="butt" stroke-miterlimit="10" stroke-linejoin="miter" fill="none" stroke="#000000" d="M1.27554-42.52063H-1.27568"/>
<path transform="matrix(1,0,0,-1.00002,94.106,103.68082)" d="M-18.19026-47.14224H-3.4674798V-37.89901H-18.19026Z" fill="#ffffff"/>
<use data-text="&#x2212;" xlink:href="#font_2_1" transform="matrix(9.9626,0,0,-9.962799,76.912,148.99773)"/>
<use data-text="5" xlink:href="#font_3_3" transform="matrix(9.9626,0,0,-9.962799,84.660999,148.99773)"/>
<path transform="matrix(1,0,0,-1.00002,94.106,103.68082)" stroke-width="1.19553" stroke-linecap="butt" stroke-miterlimit="10" stroke-linejoin="miter" fill="none" stroke="#00aeef" d="M42.52063-85.04128V85.04128"/>
<path transform="matrix(1,0,0,-1.00002,94.106,103.68082)" stroke-width="1.19553" stroke-linecap="butt" stroke-miterlimit="10" stroke-linejoin="miter" fill="none" stroke="#00aeef" d="M-85.04128 42.52063H85.04128"/>
<path transform="matrix(1,0,0,-1.00002,94.106,103.68082)" stroke-width=".3985" stroke-linecap="butt" stroke-miterlimit="10" stroke-linejoin="miter" fill="none" stroke="#000000" d="M42.52063 1.27554V-1.27568"/>
<path transform="matrix(1,0,0,-1.00002,94.106,103.68082)" d="M39.03366-11.88048H46.0076V-3.4674998H39.03366Z" fill="#ffffff"/>
<use data-text="5" xlink:href="#font_3_3" transform="matrix(9.9626,0,0,-9.962799,134.136,114.56503)"/>
<path transform="matrix(1,0,0,-1.00002,94.106,103.68082)" stroke-width=".3985" stroke-linecap="butt" stroke-miterlimit="10" stroke-linejoin="miter" fill="none" stroke="#000000" d="M1.27554 42.52063H-1.27568"/>
<path transform="matrix(1,0,0,-1.00002,94.106,103.68082)" d="M-10.44142 38.31413H-3.4674798V46.727109H-10.44142Z" fill="#ffffff"/>
<use data-text="5" xlink:href="#font_3_3" transform="matrix(9.9626,0,0,-9.962799,84.661,64.370029)"/>
<path transform="matrix(1,0,0,-1.00002,94.106,103.68082)" stroke-width="1.19553" stroke-linecap="butt" stroke-miterlimit="10" stroke-linejoin="miter" fill="none" stroke="#00aeef" d="M-85.04128-85.04128V85.04128"/>
<path transform="matrix(1,0,0,-1.00002,94.106,103.68082)" stroke-width="1.19553" stroke-linecap="butt" stroke-miterlimit="10" stroke-linejoin="miter" fill="none" stroke="#00aeef" d="M-85.04128-85.04128H85.04128"/>
<path transform="matrix(1,0,0,-1.00002,94.106,103.68082)" stroke-width=".3985" stroke-linecap="butt" stroke-miterlimit="10" stroke-linejoin="miter" fill="none" stroke="#000000" d="M-85.04128 1.27554V-1.27568"/>
<path transform="matrix(1,0,0,-1.00002,94.106,103.68082)" d="M-94.89337-12.71071H-75.18917V-3.4674798H-94.89337Z" fill="#ffffff"/>
<use data-text="&#x2212;" xlink:href="#font_2_1" transform="matrix(9.9626,0,0,-9.962799,.20899964,114.56503)"/>
<use data-text="1" xlink:href="#font_3_2" transform="matrix(9.9626,0,0,-9.962799,7.9579927,114.56503)"/>
<use data-text="0" xlink:href="#font_3_1" transform="matrix(9.9626,0,0,-9.962799,12.939285,114.56503)"/>
<path transform="matrix(1,0,0,-1.00002,94.106,103.68082)" stroke-width=".3985" stroke-linecap="butt" stroke-miterlimit="10" stroke-linejoin="miter" fill="none" stroke="#000000" d="M1.27554-85.04128H-1.27568"/>
<path transform="matrix(1,0,0,-1.00002,94.106,103.68082)" d="M-23.17168-89.66289H-3.4674798V-80.419658H-23.17168Z" fill="#ffffff"/>
<use data-text="&#x2212;" xlink:href="#font_2_1" transform="matrix(9.9626,0,0,-9.962799,71.931,191.51859)"/>
<use data-text="1" xlink:href="#font_3_2" transform="matrix(9.9626,0,0,-9.962799,79.67999,191.51859)"/>
<use data-text="0" xlink:href="#font_3_1" transform="matrix(9.9626,0,0,-9.962799,84.661289,191.51859)"/>
<path transform="matrix(1,0,0,-1.00002,94.106,103.68082)" stroke-width="1.19553" stroke-linecap="butt" stroke-miterlimit="10" stroke-linejoin="miter" fill="none" stroke="#00aeef" d="M85.04128-85.04128V85.04128"/>
<path transform="matrix(1,0,0,-1.00002,94.106,103.68082)" stroke-width="1.19553" stroke-linecap="butt" stroke-miterlimit="10" stroke-linejoin="miter" fill="none" stroke="#00aeef" d="M-85.04128 85.04128H85.04128"/>
<path transform="matrix(1,0,0,-1.00002,94.106,103.68082)" stroke-width=".3985" stroke-linecap="butt" stroke-miterlimit="10" stroke-linejoin="miter" fill="none" stroke="#000000" d="M85.04128 1.27554V-1.27568"/>
<path transform="matrix(1,0,0,-1.00002,94.106,103.68082)" d="M79.0636-11.88048H91.018939V-3.4674998H79.0636Z" fill="#ffffff"/>
<use data-text="1" xlink:href="#font_3_2" transform="matrix(9.9626,0,0,-9.962799,174.166,114.56503)"/>
<use data-text="0" xlink:href="#font_3_1" transform="matrix(9.9626,0,0,-9.962799,179.1473,114.56503)"/>
<path transform="matrix(1,0,0,-1.00002,94.106,103.68082)" stroke-width=".3985" stroke-linecap="butt" stroke-miterlimit="10" stroke-linejoin="miter" fill="none" stroke="#000000" d="M1.27554 85.04128H-1.27568"/>
<path transform="matrix(1,0,0,-1.00002,94.106,103.68082)" d="M-15.42284 80.83478H-3.4674998V89.24776H-15.42284Z" fill="#ffffff"/>
<use data-text="1" xlink:href="#font_3_2" transform="matrix(9.9626,0,0,-9.962799,79.679,21.848176)"/>
<use data-text="0" xlink:href="#font_3_1" transform="matrix(9.9626,0,0,-9.962799,84.66029,21.848176)"/>
<path transform="matrix(1,0,0,-1.00002,94.106,103.68082)" stroke-width="1.19553" stroke-linecap="butt" stroke-miterlimit="10" stroke-linejoin="miter" fill="none" stroke="#ff0000" d="M-15.686 83.18423C-15.18454 79.33716-15.18454 79.33716-14.89896 77.19414-14.61337 75.05113-14.15538 71.66989-13.8698 69.59602-13.58423 67.52214-13.12624 64.25179-12.84065 62.24702-12.55508 60.24226-12.09709 57.0827-11.81151 55.14705-11.52592 53.21141-11.06795 50.16277-10.78236 48.29623-10.49678 46.42972-10.03879 43.49184-9.75322 41.69443-9.46764 39.89702-9.00964 37.07004-8.72406 35.34177-8.43848 33.6135-7.9805 30.8974-7.69492 29.23825-7.40933 27.5791-6.95134 24.97377-6.66576 23.38376-6.38017 21.79372-5.9222 19.2993-5.63661 17.77838-5.35103 16.25748-4.89305 13.87384-4.60747 12.42203-4.32188 10.97025-3.86389 8.69751-3.57831 7.31483-3.29274 5.93216-2.83475 3.7702-2.54916 2.45665-2.2636 1.1431-1.8056-.90793-1.52002-2.15234-1.23444-3.39679-.77646-5.33694-.49088-6.51227-.20529-7.68756 .25266-9.51695 .53824-10.62314 .82382-11.72932 1.28181-13.4478 1.5674-14.48488 1.85297-15.52194 2.31096-17.12965 2.59654-18.0976 2.88213-19.06554 3.34009-20.56238 3.62569-21.46117 3.91127-22.35999 4.36925-23.74593 4.65482-24.57562 4.94041-25.4053 5.39839-26.68044 5.68398-27.44104 5.96956-28.20163 6.42754-29.36597 6.71312-30.05743 6.9987-30.74892 7.45668-31.80237 7.74226-32.4247 8.02785-33.04704 8.48584-33.98962 8.77142-34.54283 9.057-35.09602 9.51498-35.9277 9.80057-36.41179 10.08615-36.89587 10.54414-37.61678 10.82971-38.03175 11.1153-38.44673 11.57329-39.05682 11.85887-39.40268 12.14444-39.74855 12.60243-40.24776 12.88802-40.52449 13.1736-40.80122 13.63158-41.18954 13.91716-41.39716 14.20274-41.60475 14.66074-41.8823 14.9463-42.02078 15.23189-42.15927 15.68988-42.32593 15.97546-42.39528 16.26105-42.46461 16.71902-42.5204 17.00461-42.52063 17.29019-42.52087 17.74818-42.46584 18.03377-42.39697 18.31934-42.32811 18.77733-42.16226 19.06291-42.02429 19.3485-41.8863 19.80647-41.60959 20.09206-41.40247 20.37764-41.19534 20.83563-40.80772 21.1212-40.5315 21.40678-40.25526 21.86478-39.75688 22.15036-39.41151 22.43593-39.06616 22.89392-38.45688 23.1795-38.04239 23.46509-37.6279 23.92305-36.90773 24.20865-36.42412 24.49423-35.9405 24.9522-35.10954 25.23778-34.55684 25.52338-34.00412 25.98135-33.06238 26.26694-32.44052 26.55252-31.8187 27.0105-30.76593 27.29608-30.07497 27.58167-29.38399 28.03966-28.22058 28.32524-27.4605 28.61081-26.70041 29.0688-25.42598 29.35439-24.59676 29.63997-23.76755 30.09795-22.38234 30.38353-21.48402 30.66911-20.5857 31.1271-19.08969 31.41267-18.12225 31.69826-17.1548 32.15625-15.54793 32.44183-14.51134 32.7274-13.47476 33.1854-11.75699 33.47098-10.65129 33.75656-9.5456 34.21454-7.71706 34.50012-6.54222 34.7857-5.36742 35.2437-3.42798 35.52928-2.18402 35.81487-.94006 36.27284 1.11023 36.55843 2.4233 36.84401 3.73636 37.30199 5.89749 37.58757 7.27968 37.87315 8.66183 38.33115 10.93375 38.61673 12.38506 38.9023 13.83636 39.36029 16.21928 39.64587 17.73972 39.93146 19.26013 40.38943 21.75371 40.67502 23.34325 40.9606 24.9328 41.4186 27.53741 41.70416 29.19608 41.98975 30.85474 42.44774 33.56999 42.73332 35.29779 43.0189 37.02556 43.47687 39.85184 43.76247 41.64876 44.04805 43.44568 44.50601 46.3827 44.79161 48.24875 45.0772 50.11479 45.53517 53.16272 45.82076 55.09787 46.10635 57.03304 46.56432 60.19176 46.8499 62.19603 47.13548 64.2003 47.59346 67.46992 47.87904 69.54333 48.16463 71.61673 48.62262 74.99713 48.9082 77.13963 49.19377 79.28215 49.93735 84.98509 49.69524 83.1279"/>
<path transform="matrix(-.12926,-.99157986,-.99156,.1292626,78.420009,20.494935)" d="M1.27522 0C-.31879 .31879-1.91284 .9564-3.8257 2.07224-1.91284 .6376-1.91284-.6376-3.8257-2.07224-1.91284-.9564-.31879-.31879 1.27522 0Z" fill="#ff0000"/>
<path transform="matrix(-.12926,-.99157986,-.99156,.1292626,78.420009,20.494935)" stroke-width="1.19553" stroke-linecap="butt" stroke-linejoin="round" fill="none" stroke="#ff0000" d="M1.27522 0C-.31879 .31879-1.91284 .9564-3.8257 2.07224-1.91284 .6376-1.91284-.6376-3.8257-2.07224-1.91284-.9564-.31879-.31879 1.27522 0Z"/>
<path transform="matrix(.12927,-.99157986,-.99156,-.1292726,143.80124,20.551278)" d="M1.27522 0C-.31879 .31879-1.91284 .9564-3.8257 2.07224-1.91284 .6376-1.91284-.6376-3.8257-2.07224-1.91284-.9564-.31879-.31879 1.27522 0Z" fill="#ff0000"/>
<path transform="matrix(.12927,-.99157986,-.99156,-.1292726,143.80124,20.551278)" stroke-width="1.19553" stroke-linecap="butt" stroke-linejoin="round" fill="none" stroke="#ff0000" d="M1.27522 0C-.31879 .31879-1.91284 .9564-3.8257 2.07224-1.91284 .6376-1.91284-.6376-3.8257-2.07224-1.91284-.9564-.31879-.31879 1.27522 0Z"/>
<path transform="matrix(1,0,0,-1.00002,94.106,103.68082)" d="M19.13426-42.52063C19.13426-41.34644 18.18242-40.39459 17.00824-40.39459 15.83406-40.39459 14.88222-41.34644 14.88222-42.52063 14.88222-43.69481 15.83406-44.64665 17.00824-44.64665 18.18242-44.64665 19.13426-43.69481 19.13426-42.52063ZM17.00824-42.52063" fill="#d73589"/>
<path transform="matrix(1,0,0,-1.00002,94.106,103.68082)" stroke-width=".3985" stroke-linecap="butt" stroke-miterlimit="10" stroke-linejoin="miter" fill="none" stroke="#d73589" d="M19.13426-42.52063C19.13426-41.34644 18.18242-40.39459 17.00824-40.39459 15.83406-40.39459 14.88222-41.34644 14.88222-42.52063 14.88222-43.69481 15.83406-44.64665 17.00824-44.64665 18.18242-44.64665 19.13426-43.69481 19.13426-42.52063ZM17.00824-42.52063"/>
<path transform="matrix(1,0,0,-1.00002,94.106,103.68082)" d="M2.12602-8.50412C2.12602-7.32993 1.17418-6.37808 0-6.37808-1.17418-6.37808-2.12602-7.32993-2.12602-8.50412-2.12602-9.6783-1.17418-10.63014 0-10.63014 1.17418-10.63014 2.12602-9.6783 2.12602-8.50412ZM0-8.50412" fill="#d73589"/>
<path transform="matrix(1,0,0,-1.00002,94.106,103.68082)" stroke-width=".3985" stroke-linecap="butt" stroke-miterlimit="10" stroke-linejoin="miter" fill="none" stroke="#d73589" d="M2.12602-8.50412C2.12602-7.32993 1.17418-6.37808 0-6.37808-1.17418-6.37808-2.12602-7.32993-2.12602-8.50412-2.12602-9.6783-1.17418-10.63014 0-10.63014 1.17418-10.63014 2.12602-9.6783 2.12602-8.50412ZM0-8.50412"/>
<path transform="matrix(1,0,0,-1.00002,94.106,103.68082)" d="M.11859 0C.11859 1.17418-.83322 2.12602-2.00742 2.12602-3.1816 2.12602-4.13344 1.17418-4.13344 0-4.13344-1.17418-3.1816-2.12602-2.00742-2.12602-.83322-2.12602 .11859-1.17418 .11859 0ZM-2.00742 0" fill="#d73589"/>
<path transform="matrix(1,0,0,-1.00002,94.106,103.68082)" stroke-width=".3985" stroke-linecap="butt" stroke-miterlimit="10" stroke-linejoin="miter" fill="none" stroke="#d73589" d="M.11859 0C.11859 1.17418-.83322 2.12602-2.00742 2.12602-3.1816 2.12602-4.13344 1.17418-4.13344 0-4.13344-1.17418-3.1816-2.12602-2.00742-2.12602-.83322-2.12602 .11859-1.17418 .11859 0ZM-2.00742 0"/>
<path transform="matrix(1,0,0,-1.00002,94.106,103.68082)" d="M38.14995 0C38.14995 1.17418 37.1981 2.12602 36.02393 2.12602 34.84973 2.12602 33.8979 1.17418 33.8979 0 33.8979-1.17418 34.84973-2.12602 36.02393-2.12602 37.1981-2.12602 38.14995-1.17418 38.14995 0ZM36.02393 0" fill="#d73589"/>
<path transform="matrix(1,0,0,-1.00002,94.106,103.68082)" stroke-width=".3985" stroke-linecap="butt" stroke-miterlimit="10" stroke-linejoin="miter" fill="none" stroke="#d73589" d="M38.14995 0C38.14995 1.17418 37.1981 2.12602 36.02393 2.12602 34.84973 2.12602 33.8979 1.17418 33.8979 0 33.8979-1.17418 34.84973-2.12602 36.02393-2.12602 37.1981-2.12602 38.14995-1.17418 38.14995 0ZM36.02393 0"/>
</svg>
