<svg xmlns="http://www.w3.org/2000/svg" xmlns:xlink="http://www.w3.org/1999/xlink" version="1.1" width="203" height="194" viewBox="0 0 203 194">
<defs>
<path id="font_1_1" d="M.33399964 .30233766C.33999635 .32835389 .36299134 .42037965 .43299867 .42037965 .43798829 .42037965 .46199037 .42037965 .48298646 .40734864 .45498658 .402359 .43499757 .37734986 .43499757 .35334779 .43499757 .33735658 .44599916 .31835938 .47299195 .31835938 .49499513 .31835938 .5269928 .3363495 .5269928 .37635804 .5269928 .42837525 .46798707 .4423828 .43399049 .4423828 .37599183 .4423828 .34098817 .38935853 .32899476 .36634828 .3039856 .43237306 .25 .4423828 .22099304 .4423828 .116989139 .4423828 .05999756 .3133545 .05999756 .28834535 .05999756 .27833558 .069992069 .27833558 .07199097 .27833558 .07998657 .27833558 .08299255 .28033448 .084991458 .28933717 .11898804 .39535523 .18499756 .42037965 .21899414 .42037965 .23799134 .42037965 .272995 .4113617 .272995 .35334779 .272995 .32235719 .2559967 .25532533 .21899414 .11528015 .20298767 .053268434 .16799927 .011245728 .12399292 .011245728 .117996219 .011245728 .09498596 .011245728 .07398987 .024276734 .09899902 .029266358 .12098694 .05027771 .12098694 .07827759 .12098694 .105270389 .09899902 .11328125 .083999637 .11328125 .053985597 .11328125 .0289917 .08728027 .0289917 .055267335 .0289917 .009246826 .07899475-.0107421879 .12298584-.0107421879 .18899536-.0107421879 .22499085 .059280397 .22799683 .0652771 .23999024 .028274537 .27598573-.0107421879 .33599855-.0107421879 .43899537-.0107421879 .49598695 .118270877 .49598695 .14328003 .49598695 .1532898 .4869995 .1532898 .48399354 .1532898 .47499085 .1532898 .47299195 .14929199 .47099305 .14228821 .43798829 .03527832 .36999513 .011245728 .33799745 .011245728 .29899598 .011245728 .2829895 .043273927 .2829895 .07727051 .2829895 .09927368 .2889862 .121276859 .2999878 .16529846L.33399964 .30233766Z"/>
<path id="font_1_2" d="M.48599244 .38136292C.48999024 .39537049 .48999024 .39736939 .48999024 .40437318 .48999024 .42237855 .47599793 .43138124 .46099855 .43138124 .45098878 .43138124 .43499757 .42536927 .42599488 .41036988 .42399598 .405365 .41600038 .37435914 .4119873 .35635377 .40499879 .33035279 .397995 .30334474 .3919983 .27633668L.34700013 .09628296C.34298707 .08126831 .2999878 .011245728 .23399353 .011245728 .18299866 .011245728 .17199707 .055267335 .17199707 .0922699 .17199707 .1382904 .18899536 .20030213 .22299195 .28833009 .23899842 .3293457 .24299622 .3403473 .24299622 .36035157 .24299622 .405365 .21099854 .4423828 .16099549 .4423828 .06599426 .4423828 .0289917 .29733277 .0289917 .28833009 .0289917 .27833558 .038986207 .27833558 .040985109 .27833558 .050994874 .27833558 .051986696 .28033448 .056991579 .29634095 .083999637 .3903656 .12399292 .42037965 .1579895 .42037965 .1659851 .42037965 .18299866 .42037965 .18299866 .3883667 .18299866 .36335755 .17298889 .3373413 .1659851 .31834413 .12599182 .21231079 .10798645 .1552887 .10798645 .10827637 .10798645 .019256592 .17098999-.0107421879 .22999573-.0107421879 .2689972-.0107421879 .30299378 .0062561037 .33099366 .03425598 .31799317-.017745972 .30599977-.06674194 .2659912-.11973572 .23999024-.15385437 .20199585-.18309021 .1559906-.18309021 .14199829-.18309021 .09700012-.18005371 .07998657-.14074707 .09599304-.14074707 .10899353-.14074707 .12298584-.1287384 .1329956-.11973572 .14299011-.10673523 .14299011-.08773804 .14299011-.056747438 .115997318-.052734376 .10598755-.052734376 .08299255-.052734376 .049987794-.068740848 .049987794-.11773682 .049987794-.16796875 .09399414-.20507813 .1559906-.20507813 .25898744-.20507813 .3619995-.11373901 .3899994-.00074768069L.48599244 .38136292Z"/>
<path id="font_2_1" d="M.6589966 .23046875C.6759949 .23046875 .69400027 .23046875 .69400027 .25045777 .69400027 .27046205 .6759949 .27046205 .6589966 .27046205H.117996219C.100997928 .27046205 .08299255 .27046205 .08299255 .25045777 .08299255 .23046875 .100997928 .23046875 .117996219 .23046875H.6589966Z"/>
<path id="font_3_3" d="M.44898988 .20022583C.44898988 .3193512 .36698915 .41944886 .25898744 .41944886 .21099854 .41944886 .16799927 .40345765 .13198853 .36842347V.5637665C.1519928 .5577698 .18499756 .55078127 .21699524 .55078127 .33999635 .55078127 .4099884 .6417694 .4099884 .6547699 .4099884 .6607666 .40699769 .6657715 .3999939 .6657715 .39898683 .6657715 .39698792 .6657715 .3919983 .66278079 .37199403 .6537781 .32299806 .6337738 .2559967 .6337738 .21598816 .6337738 .16999817 .6407776 .12298584 .6617737 .114990238 .66477969 .11299133 .66477969 .11099243 .66477969 .100997928 .66477969 .100997928 .6567688 .100997928 .6407776V.34439088C.100997928 .32637025 .100997928 .31835938 .114990238 .31835938 .12199402 .31835938 .12399292 .32136537 .12799073 .32736207 .13899231 .3433838 .17599488 .39746095 .25698854 .39746095 .30899049 .39746095 .33399964 .35139466 .34199525 .33337403 .35798646 .29632569 .3600006 .25727845 .3600006 .20722962 .3600006 .17222595 .3600006 .11222839 .33599855 .07035828 .31199647 .031463624 .2749939 .0055389406 .22898865 .0055389406 .1559906 .0055389406 .09899902 .058380128 .08198547 .11723328 .084991458 .1162262 .08799744 .115234378 .09899902 .115234378 .13198853 .115234378 .14898682 .14022827 .14898682 .16423035 .14898682 .18823242 .13198853 .21322632 .09899902 .21322632 .084991458 .21322632 .049987794 .20622254 .049987794 .16023255 .049987794 .07434082 .11898804-.022460938 .23098755-.022460938 .34700013-.022460938 .44898988 .073349 .44898988 .20022583Z"/>
<path id="font_3_2" d="M.2939911 .64004519C.2939911 .66400149 .2939911 .6660156 .2709961 .6660156 .20899964 .60227969 .12098694 .60227969 .08898926 .60227969V.57128909C.10899353 .57128909 .16799927 .57128909 .21998596 .5972748V.07902527C.21998596 .042999269 .21699524 .0309906 .1269989 .0309906H.09498596V0C.12998963 .0029907227 .21699524 .0029907227 .25698854 .0029907227 .29699708 .0029907227 .38398744 .0029907227 .4189911 0V.0309906H.3869934C.29699708 .0309906 .2939911 .041992189 .2939911 .07902527V.64004519Z"/>
<path id="font_3_1" d="M.45999146 .31976319C.45999146 .39982606 .45498658 .47988893 .41999818 .5539398 .37399293 .65000918 .2919922 .6660156 .25 .6660156 .18998719 .6660156 .116989139 .64001467 .07598877 .54693606 .04399109 .47789 .038986207 .39982606 .038986207 .31976319 .038986207 .24472046 .042999269 .15464783 .083999637 .07859802 .1269989-.0024719239 .19999695-.022460938 .24899292-.022460938 .30299378-.022460938 .3789978-.0014648438 .4229889 .09359741 .45498658 .16265869 .45999146 .2407074 .45999146 .31976319M.24899292-.00047302247C.20999146-.00047302247 .15098572 .024551392 .1329956 .12062073 .12199402 .18066406 .12199402 .2727356 .12199402 .3317871 .12199402 .39582826 .12199402 .46188355 .12998963 .5159149 .14898682 .63500979 .22399903 .64401248 .24899292 .64401248 .28199769 .64401248 .34799195 .6259918 .36698915 .52693179 .3769989 .47088624 .3769989 .39482118 .3769989 .3317871 .3769989 .25672914 .3769989 .18867493 .3659973 .12461853 .35099793 .029556275 .2939911-.00047302247 .24899292-.00047302247Z"/>
</defs>
<path transform="matrix(1,0,0,-1.00002,94.106,103.68082)" stroke-width=".3985" stroke-linecap="butt" stroke-miterlimit="10" stroke-linejoin="miter" fill="none" stroke="#00aeef" d="M-85.04128-85.04128H85.04128M-85.04128-76.53716H85.04128M-85.04128-68.03302H85.04128M-85.04128-59.52888H85.04128M-85.04128-51.02477H85.04128M-85.04128-42.52063H85.04128M-85.04128-34.0165H85.04128M-85.04128-25.51237H85.04128M-85.04128-17.00824H85.04128M-85.04128-8.50412H85.04128M-85.04128 0H85.04128M-85.04128 8.50412H85.04128M-85.04128 17.00824H85.04128M-85.04128 25.51237H85.04128M-85.04128 34.0165H85.04128M-85.04128 42.52063H85.04128M-85.04128 51.02477H85.04128M-85.04128 59.52888H85.04128M-85.04128 68.03302H85.04128M-85.04128 76.53716H85.04128M-85.04128 85.0383H85.04128M-85.04128-85.04128V85.04128M-76.53716-85.04128V85.04128M-68.03302-85.04128V85.04128M-59.52888-85.04128V85.04128M-51.02477-85.04128V85.04128M-42.52063-85.04128V85.04128M-34.0165-85.04128V85.04128M-25.51237-85.04128V85.04128M-17.00824-85.04128V85.04128M-8.50412-85.04128V85.04128M0-85.04128V85.04128M8.50412-85.04128V85.04128M17.00824-85.04128V85.04128M25.51237-85.04128V85.04128M34.0165-85.04128V85.04128M42.52063-85.04128V85.04128M51.02477-85.04128V85.04128M59.52888-85.04128V85.04128M68.03302-85.04128V85.04128M76.53716-85.04128V85.04128M85.0383-85.04128V85.04128M85.04128 85.04128"/>
<path transform="matrix(1,0,0,-1.00002,94.106,103.68082)" stroke-width="1.19553" stroke-linecap="butt" stroke-miterlimit="10" stroke-linejoin="miter" fill="none" stroke="#000000" d="M-85.04128 0H96.77495"/>
<path transform="matrix(1,0,0,-1.00002,190.88095,103.68082)" d="M1.27522 0C-.31879 .31879-1.91284 .9564-3.8257 2.07224-1.91284 .6376-1.91284-.6376-3.8257-2.07224-1.91284-.9564-.31879-.31879 1.27522 0Z"/>
<path transform="matrix(1,0,0,-1.00002,190.88095,103.68082)" stroke-width="1.19553" stroke-linecap="butt" stroke-linejoin="round" fill="none" stroke="#000000" d="M1.27522 0C-.31879 .31879-1.91284 .9564-3.8257 2.07224-1.91284 .6376-1.91284-.6376-3.8257-2.07224-1.91284-.9564-.31879-.31879 1.27522 0Z"/>
<use data-text="x" xlink:href="#font_1_1" transform="matrix(9.9626,0,0,-9.962799,196.672,105.82586)"/>
<path transform="matrix(1,0,0,-1.00002,94.106,103.68082)" stroke-width="1.19553" stroke-linecap="butt" stroke-miterlimit="10" stroke-linejoin="miter" fill="none" stroke="#000000" d="M0-85.04128V96.77495"/>
<path transform="matrix(0,-1.00002,-1,-0,94.106,6.9039309)" d="M1.27522 0C-.31879 .31879-1.91284 .9564-3.8257 2.07224-1.91284 .6376-1.91284-.6376-3.8257-2.07224-1.91284-.9564-.31879-.31879 1.27522 0Z"/>
<path transform="matrix(0,-1.00002,-1,-0,94.106,6.9039309)" stroke-width="1.19553" stroke-linecap="butt" stroke-linejoin="round" fill="none" stroke="#000000" d="M1.27522 0C-.31879 .31879-1.91284 .9564-3.8257 2.07224-1.91284 .6376-1.91284-.6376-3.8257-2.07224-1.91284-.9564-.31879-.31879 1.27522 0Z"/>
<use data-text="y" xlink:href="#font_1_2" transform="matrix(9.9626,0,0,-9.962799,86.938,6.2068636)"/>
<path transform="matrix(1,0,0,-1.00002,94.106,103.68082)" stroke-width="1.19553" stroke-linecap="butt" stroke-miterlimit="10" stroke-linejoin="miter" fill="none" stroke="#00aeef" d="M-42.52063-85.04128V85.04128"/>
<path transform="matrix(1,0,0,-1.00002,94.106,103.68082)" stroke-width="1.19553" stroke-linecap="butt" stroke-miterlimit="10" stroke-linejoin="miter" fill="none" stroke="#00aeef" d="M-85.04128-42.52063H85.04128"/>
<path transform="matrix(1,0,0,-1.00002,94.106,103.68082)" stroke-width=".3985" stroke-linecap="butt" stroke-miterlimit="10" stroke-linejoin="miter" fill="none" stroke="#000000" d="M-42.52063 1.27554V-1.27568"/>
<path transform="matrix(1,0,0,-1.00002,94.106,103.68082)" d="M-49.88202-12.71071H-35.15924V-3.4674798H-49.88202Z" fill="#ffffff"/>
<use data-text="&#x2212;" xlink:href="#font_2_1" transform="matrix(9.9626,0,0,-9.962799,45.22,114.56503)"/>
<use data-text="5" xlink:href="#font_3_3" transform="matrix(9.9626,0,0,-9.962799,52.968996,114.56503)"/>
<path transform="matrix(1,0,0,-1.00002,94.106,103.68082)" stroke-width=".3985" stroke-linecap="butt" stroke-miterlimit="10" stroke-linejoin="miter" fill="none" stroke="#000000" d="M1.27554-42.52063H-1.27568"/>
<path transform="matrix(1,0,0,-1.00002,94.106,103.68082)" d="M-18.19026-47.14224H-3.4674798V-37.89901H-18.19026Z" fill="#ffffff"/>
<use data-text="&#x2212;" xlink:href="#font_2_1" transform="matrix(9.9626,0,0,-9.962799,76.912,148.99773)"/>
<use data-text="5" xlink:href="#font_3_3" transform="matrix(9.9626,0,0,-9.962799,84.660999,148.99773)"/>
<path transform="matrix(1,0,0,-1.00002,94.106,103.68082)" stroke-width="1.19553" stroke-linecap="butt" stroke-miterlimit="10" stroke-linejoin="miter" fill="none" stroke="#00aeef" d="M42.52063-85.04128V85.04128"/>
<path transform="matrix(1,0,0,-1.00002,94.106,103.68082)" stroke-width="1.19553" stroke-linecap="butt" stroke-miterlimit="10" stroke-linejoin="miter" fill="none" stroke="#00aeef" d="M-85.04128 42.52063H85.04128"/>
<path transform="matrix(1,0,0,-1.00002,94.106,103.68082)" stroke-width=".3985" stroke-linecap="butt" stroke-miterlimit="10" stroke-linejoin="miter" fill="none" stroke="#000000" d="M42.52063 1.27554V-1.27568"/>
<path transform="matrix(1,0,0,-1.00002,94.106,103.68082)" d="M39.03366-11.88048H46.0076V-3.4674998H39.03366Z" fill="#ffffff"/>
<use data-text="5" xlink:href="#font_3_3" transform="matrix(9.9626,0,0,-9.962799,134.136,114.56503)"/>
<path transform="matrix(1,0,0,-1.00002,94.106,103.68082)" stroke-width=".3985" stroke-linecap="butt" stroke-miterlimit="10" stroke-linejoin="miter" fill="none" stroke="#000000" d="M1.27554 42.52063H-1.27568"/>
<path transform="matrix(1,0,0,-1.00002,94.106,103.68082)" d="M-10.44142 38.31413H-3.4674798V46.727109H-10.44142Z" fill="#ffffff"/>
<use data-text="5" xlink:href="#font_3_3" transform="matrix(9.9626,0,0,-9.962799,84.661,64.370029)"/>
<path transform="matrix(1,0,0,-1.00002,94.106,103.68082)" stroke-width="1.19553" stroke-linecap="butt" stroke-miterlimit="10" stroke-linejoin="miter" fill="none" stroke="#00aeef" d="M-85.04128-85.04128V85.04128"/>
<path transform="matrix(1,0,0,-1.00002,94.106,103.68082)" stroke-width="1.19553" stroke-linecap="butt" stroke-miterlimit="10" stroke-linejoin="miter" fill="none" stroke="#00aeef" d="M-85.04128-85.04128H85.04128"/>
<path transform="matrix(1,0,0,-1.00002,94.106,103.68082)" stroke-width=".3985" stroke-linecap="butt" stroke-miterlimit="10" stroke-linejoin="miter" fill="none" stroke="#000000" d="M-85.04128 1.27554V-1.27568"/>
<path transform="matrix(1,0,0,-1.00002,94.106,103.68082)" d="M-94.89337-12.71071H-75.18917V-3.4674798H-94.89337Z" fill="#ffffff"/>
<use data-text="&#x2212;" xlink:href="#font_2_1" transform="matrix(9.9626,0,0,-9.962799,.20899964,114.56503)"/>
<use data-text="1" xlink:href="#font_3_2" transform="matrix(9.9626,0,0,-9.962799,7.9579927,114.56503)"/>
<use data-text="0" xlink:href="#font_3_1" transform="matrix(9.9626,0,0,-9.962799,12.939285,114.56503)"/>
<path transform="matrix(1,0,0,-1.00002,94.106,103.68082)" stroke-width=".3985" stroke-linecap="butt" stroke-miterlimit="10" stroke-linejoin="miter" fill="none" stroke="#000000" d="M1.27554-85.04128H-1.27568"/>
<path transform="matrix(1,0,0,-1.00002,94.106,103.68082)" d="M-23.17168-89.66289H-3.4674798V-80.419658H-23.17168Z" fill="#ffffff"/>
<use data-text="&#x2212;" xlink:href="#font_2_1" transform="matrix(9.9626,0,0,-9.962799,71.931,191.51859)"/>
<use data-text="1" xlink:href="#font_3_2" transform="matrix(9.9626,0,0,-9.962799,79.67999,191.51859)"/>
<use data-text="0" xlink:href="#font_3_1" transform="matrix(9.9626,0,0,-9.962799,84.661289,191.51859)"/>
<path transform="matrix(1,0,0,-1.00002,94.106,103.68082)" stroke-width="1.19553" stroke-linecap="butt" stroke-miterlimit="10" stroke-linejoin="miter" fill="none" stroke="#00aeef" d="M85.04128-85.04128V85.04128"/>
<path transform="matrix(1,0,0,-1.00002,94.106,103.68082)" stroke-width="1.19553" stroke-linecap="butt" stroke-miterlimit="10" stroke-linejoin="miter" fill="none" stroke="#00aeef" d="M-85.04128 85.04128H85.04128"/>
<path transform="matrix(1,0,0,-1.00002,94.106,103.68082)" stroke-width=".3985" stroke-linecap="butt" stroke-miterlimit="10" stroke-linejoin="miter" fill="none" stroke="#000000" d="M85.04128 1.27554V-1.27568"/>
<path transform="matrix(1,0,0,-1.00002,94.106,103.68082)" d="M79.0636-11.88048H91.018939V-3.4674998H79.0636Z" fill="#ffffff"/>
<use data-text="1" xlink:href="#font_3_2" transform="matrix(9.9626,0,0,-9.962799,174.166,114.56503)"/>
<use data-text="0" xlink:href="#font_3_1" transform="matrix(9.9626,0,0,-9.962799,179.1473,114.56503)"/>
<path transform="matrix(1,0,0,-1.00002,94.106,103.68082)" stroke-width=".3985" stroke-linecap="butt" stroke-miterlimit="10" stroke-linejoin="miter" fill="none" stroke="#000000" d="M1.27554 85.04128H-1.27568"/>
<path transform="matrix(1,0,0,-1.00002,94.106,103.68082)" d="M-15.42284 80.83478H-3.4674998V89.24776H-15.42284Z" fill="#ffffff"/>
<use data-text="1" xlink:href="#font_3_2" transform="matrix(9.9626,0,0,-9.962799,79.679,21.848176)"/>
<use data-text="0" xlink:href="#font_3_1" transform="matrix(9.9626,0,0,-9.962799,84.66029,21.848176)"/>
<path transform="matrix(1,0,0,-1.00002,94.106,103.68082)" stroke-width="1.19553" stroke-linecap="butt" stroke-miterlimit="10" stroke-linejoin="miter" fill="none" stroke="#d73589" d="M-29.79648 83.18274C-29.25522 78.86151-29.25522 78.86151-28.95795 76.53987-28.6607 74.21825-28.18402 70.55511-27.88678 68.30838-27.58951 66.06163-27.11282 62.51877-26.81558 60.34692-26.51833 58.17506-26.04164 54.75208-25.74438 52.6551-25.44713 50.55812-24.97044 47.2554-24.6732 45.2333-24.37596 43.21124-23.89925 40.02853-23.602 38.08131-23.30475 36.1341-22.82806 33.07143-22.5308 31.19908-22.23357 29.32677-21.75687 26.38435-21.45963 24.58691-21.16238 22.78946-20.68567 19.96692-20.38843 18.24435-20.09119 16.52179-19.6145 13.81952-19.31723 12.17184-19.01999 10.52419-18.54329 7.94191-18.24605 6.36914-17.9488 4.79634-17.4721 2.33421-17.17485 .8363-16.87761-.66156-16.40091-3.00368-16.10367-4.4267-15.80641-5.84973-15.32973-8.07173-15.03247-9.41985-14.73523-10.76797-14.25853-12.86984-13.96129-14.14308-13.66403-15.41632-13.18735-17.39816-12.89009-18.59654-12.59283-19.79489-12.11615-21.65662-11.81891-22.78009-11.52165-23.90356-11.04495-25.64526-10.7477-26.69386-10.45045-27.74246-9.97377-29.36401-9.67653-30.33772-9.37926-31.31143-8.90257-32.81285-8.60533-33.71169-8.30809-34.61052-7.83138-35.99193-7.53413-36.81587-7.23688-37.63982-6.7602-38.9011-6.46295-39.65015-6.1657-40.39919-5.689-41.54034-5.39175-42.21452-5.09451-42.8887-4.61781-43.90982-4.32056-44.50911-4.02332-45.1084-3.54662-46.00938-3.24937-46.5338-2.95212-47.0582-2.47542-47.83919-2.17818-48.28871-1.88094-48.73824-1.40425-49.39908-1.10698-49.77371-.80974-50.14836-.33304-50.68906-.0358-50.98882 .26141-51.28856 .73811-51.70926 1.03535-51.93413 1.33261-52.15901 1.8093-52.45956 2.10655-52.60956 2.40381-52.75954 2.8805-52.9401 3.17773-53.01518 3.47499-53.09029 3.95169-53.15057 4.24893-53.15079 4.54617-53.151 5.02287-53.09142 5.32013-53.01675 5.61739-52.94208 6.09407-52.76222 6.39131-52.61267 6.68855-52.4631 7.16527-52.16322 7.46251-51.93881 7.75975-51.71439 8.23645-51.2945 8.53369-50.99516 8.83095-50.69585 9.30765-50.1557 9.60489-49.7815 9.90213-49.4073 10.37885-48.74727 10.67609-48.29819 10.97333-47.8491 11.45001-47.06882 11.74727-46.54483 12.04453-46.02084 12.52121-45.12056 12.81847-44.5217 13.1157-43.92284 13.5924-42.9024 13.88966-42.22867 14.1869-41.55492 14.66359-40.41447 14.96085-39.66585 15.2581-38.91722 15.73479-37.65665 16.03204-36.83313 16.32928-36.00961 16.80598-34.62889 17.10323-33.7305 17.40048-32.83212 17.87717-31.33138 18.17441-30.3581 18.47168-29.38483 18.94836-27.76395 19.2456-26.71577 19.54286-25.66763 20.01955-23.92674 20.3168-22.80371 20.61404-21.68068 21.09074-19.81964 21.38799-18.62172 21.68524-17.42377 22.16194-15.44263 22.45918-14.16982 22.75642-12.897 23.23312-10.79582 23.53038-9.44814 23.82762-8.10045 24.30432-5.87915 24.60156-4.45656 24.8988-3.03395 25.37552-.69254 25.67276 .8049 25.97 2.30238 26.44669 4.76382 26.74396 6.33617 27.0412 7.90852 27.5179 10.4901 27.81514 12.13734 28.11238 13.78456 28.58908 16.48618 28.88634 18.20828 29.18358 19.93039 29.66026 22.75214 29.95753 24.54915 30.25478 26.34616 30.73146 29.28802 31.02872 31.1599 31.32596 33.0318 31.80266 36.09367 32.0999 38.04044 32.39716 39.98721 32.87384 43.16922 33.1711 45.19089 33.46835 47.21255 33.94504 50.5147 34.24228 52.61124 34.53954 54.7078 35.01624 58.12994 35.31348 60.30136 35.61073 62.4728 36.08742 66.01509 36.38466 68.2614 36.68193 70.5077 37.15862 74.17001 37.45586 76.49121 37.7531 78.8124 38.52705 84.99092 38.29428 83.1325"/>
<path transform="matrix(-.12424,-.99223986,-.99222,.12424249,64.30954,20.496415)" d="M1.27522 0C-.31879 .31879-1.91284 .9564-3.8257 2.07224-1.91284 .6376-1.91284-.6376-3.8257-2.07224-1.91284-.9564-.31879-.31879 1.27522 0Z" fill="#d73589"/>
<path transform="matrix(-.12424,-.99223986,-.99222,.12424249,64.30954,20.496415)" stroke-width="1.19553" stroke-linecap="butt" stroke-linejoin="round" fill="none" stroke="#d73589" d="M1.27522 0C-.31879 .31879-1.91284 .9564-3.8257 2.07224-1.91284 .6376-1.91284-.6376-3.8257-2.07224-1.91284-.9564-.31879-.31879 1.27522 0Z"/>
<path transform="matrix(.12428,-.99223986,-.99222,-.12428249,132.40027,20.546654)" d="M1.27522 0C-.31879 .31879-1.91284 .9564-3.8257 2.07224-1.91284 .6376-1.91284-.6376-3.8257-2.07224-1.91284-.9564-.31879-.31879 1.27522 0Z" fill="#d73589"/>
<path transform="matrix(.12428,-.99223986,-.99222,-.12428249,132.40027,20.546654)" stroke-width="1.19553" stroke-linecap="butt" stroke-linejoin="round" fill="none" stroke="#d73589" d="M1.27522 0C-.31879 .31879-1.91284 .9564-3.8257 2.07224-1.91284 .6376-1.91284-.6376-3.8257-2.07224-1.91284-.9564-.31879-.31879 1.27522 0Z"/>
</svg>
