<svg xmlns="http://www.w3.org/2000/svg" xmlns:xlink="http://www.w3.org/1999/xlink" version="1.1" width="246" height="178" viewBox="0 0 246 178">
<defs>
<path id="font_1_1" d="M.33399964 .30233766C.33999635 .32835389 .36299134 .42037965 .43299867 .42037965 .43798829 .42037965 .46199037 .42037965 .48298646 .40734864 .45498658 .402359 .43499757 .37734986 .43499757 .35334779 .43499757 .33735658 .44599916 .31835938 .47299195 .31835938 .49499513 .31835938 .5269928 .3363495 .5269928 .37635804 .5269928 .42837525 .46798707 .4423828 .43399049 .4423828 .37599183 .4423828 .34098817 .38935853 .32899476 .36634828 .3039856 .43237306 .25 .4423828 .22099304 .4423828 .116989139 .4423828 .05999756 .3133545 .05999756 .28834535 .05999756 .27833558 .069992069 .27833558 .07199097 .27833558 .07998657 .27833558 .08299255 .28033448 .084991458 .28933717 .11898804 .39535523 .18499756 .42037965 .21899414 .42037965 .23799134 .42037965 .272995 .4113617 .272995 .35334779 .272995 .32235719 .2559967 .25532533 .21899414 .11528015 .20298767 .053268434 .16799927 .011245728 .12399292 .011245728 .117996219 .011245728 .09498596 .011245728 .07398987 .024276734 .09899902 .029266358 .12098694 .05027771 .12098694 .07827759 .12098694 .105270389 .09899902 .11328125 .083999637 .11328125 .053985597 .11328125 .0289917 .08728027 .0289917 .055267335 .0289917 .009246826 .07899475-.0107421879 .12298584-.0107421879 .18899536-.0107421879 .22499085 .059280397 .22799683 .0652771 .23999024 .028274537 .27598573-.0107421879 .33599855-.0107421879 .43899537-.0107421879 .49598695 .118270877 .49598695 .14328003 .49598695 .1532898 .4869995 .1532898 .48399354 .1532898 .47499085 .1532898 .47299195 .14929199 .47099305 .14228821 .43798829 .03527832 .36999513 .011245728 .33799745 .011245728 .29899598 .011245728 .2829895 .043273927 .2829895 .07727051 .2829895 .09927368 .2889862 .121276859 .2999878 .16529846L.33399964 .30233766Z"/>
<path id="font_1_2" d="M.48599244 .38136292C.48999024 .39537049 .48999024 .39736939 .48999024 .40437318 .48999024 .42237855 .47599793 .43138124 .46099855 .43138124 .45098878 .43138124 .43499757 .42536927 .42599488 .41036988 .42399598 .405365 .41600038 .37435914 .4119873 .35635377 .40499879 .33035279 .397995 .30334474 .3919983 .27633668L.34700013 .09628296C.34298707 .08126831 .2999878 .011245728 .23399353 .011245728 .18299866 .011245728 .17199707 .055267335 .17199707 .0922699 .17199707 .1382904 .18899536 .20030213 .22299195 .28833009 .23899842 .3293457 .24299622 .3403473 .24299622 .36035157 .24299622 .405365 .21099854 .4423828 .16099549 .4423828 .06599426 .4423828 .0289917 .29733277 .0289917 .28833009 .0289917 .27833558 .038986207 .27833558 .040985109 .27833558 .050994874 .27833558 .051986696 .28033448 .056991579 .29634095 .083999637 .3903656 .12399292 .42037965 .1579895 .42037965 .1659851 .42037965 .18299866 .42037965 .18299866 .3883667 .18299866 .36335755 .17298889 .3373413 .1659851 .31834413 .12599182 .21231079 .10798645 .1552887 .10798645 .10827637 .10798645 .019256592 .17098999-.0107421879 .22999573-.0107421879 .2689972-.0107421879 .30299378 .0062561037 .33099366 .03425598 .31799317-.017745972 .30599977-.06674194 .2659912-.11973572 .23999024-.15385437 .20199585-.18309021 .1559906-.18309021 .14199829-.18309021 .09700012-.18005371 .07998657-.14074707 .09599304-.14074707 .10899353-.14074707 .12298584-.1287384 .1329956-.11973572 .14299011-.10673523 .14299011-.08773804 .14299011-.056747438 .115997318-.052734376 .10598755-.052734376 .08299255-.052734376 .049987794-.068740848 .049987794-.11773682 .049987794-.16796875 .09399414-.20507813 .1559906-.20507813 .25898744-.20507813 .3619995-.11373901 .3899994-.00074768069L.48599244 .38136292Z"/>
<path id="font_2_1" d="M.6589966 .23046875C.6759949 .23046875 .69400027 .23046875 .69400027 .25045777 .69400027 .27046205 .6759949 .27046205 .6589966 .27046205H.117996219C.100997928 .27046205 .08299255 .27046205 .08299255 .25045777 .08299255 .23046875 .100997928 .23046875 .117996219 .23046875H.6589966Z"/>
<path id="font_3_3" d="M.44898988 .20022583C.44898988 .3193512 .36698915 .41944886 .25898744 .41944886 .21099854 .41944886 .16799927 .40345765 .13198853 .36842347V.5637665C.1519928 .5577698 .18499756 .55078127 .21699524 .55078127 .33999635 .55078127 .4099884 .6417694 .4099884 .6547699 .4099884 .6607666 .40699769 .6657715 .3999939 .6657715 .39898683 .6657715 .39698792 .6657715 .3919983 .66278079 .37199403 .6537781 .32299806 .6337738 .2559967 .6337738 .21598816 .6337738 .16999817 .6407776 .12298584 .6617737 .114990238 .66477969 .11299133 .66477969 .11099243 .66477969 .100997928 .66477969 .100997928 .6567688 .100997928 .6407776V.34439088C.100997928 .32637025 .100997928 .31835938 .114990238 .31835938 .12199402 .31835938 .12399292 .32136537 .12799073 .32736207 .13899231 .3433838 .17599488 .39746095 .25698854 .39746095 .30899049 .39746095 .33399964 .35139466 .34199525 .33337403 .35798646 .29632569 .3600006 .25727845 .3600006 .20722962 .3600006 .17222595 .3600006 .11222839 .33599855 .07035828 .31199647 .031463624 .2749939 .0055389406 .22898865 .0055389406 .1559906 .0055389406 .09899902 .058380128 .08198547 .11723328 .084991458 .1162262 .08799744 .115234378 .09899902 .115234378 .13198853 .115234378 .14898682 .14022827 .14898682 .16423035 .14898682 .18823242 .13198853 .21322632 .09899902 .21322632 .084991458 .21322632 .049987794 .20622254 .049987794 .16023255 .049987794 .07434082 .11898804-.022460938 .23098755-.022460938 .34700013-.022460938 .44898988 .073349 .44898988 .20022583Z"/>
<path id="font_3_2" d="M.2939911 .64004519C.2939911 .66400149 .2939911 .6660156 .2709961 .6660156 .20899964 .60227969 .12098694 .60227969 .08898926 .60227969V.57128909C.10899353 .57128909 .16799927 .57128909 .21998596 .5972748V.07902527C.21998596 .042999269 .21699524 .0309906 .1269989 .0309906H.09498596V0C.12998963 .0029907227 .21699524 .0029907227 .25698854 .0029907227 .29699708 .0029907227 .38398744 .0029907227 .4189911 0V.0309906H.3869934C.29699708 .0309906 .2939911 .041992189 .2939911 .07902527V.64004519Z"/>
<path id="font_3_1" d="M.45999146 .31976319C.45999146 .39982606 .45498658 .47988893 .41999818 .5539398 .37399293 .65000918 .2919922 .6660156 .25 .6660156 .18998719 .6660156 .116989139 .64001467 .07598877 .54693606 .04399109 .47789 .038986207 .39982606 .038986207 .31976319 .038986207 .24472046 .042999269 .15464783 .083999637 .07859802 .1269989-.0024719239 .19999695-.022460938 .24899292-.022460938 .30299378-.022460938 .3789978-.0014648438 .4229889 .09359741 .45498658 .16265869 .45999146 .2407074 .45999146 .31976319M.24899292-.00047302247C.20999146-.00047302247 .15098572 .024551392 .1329956 .12062073 .12199402 .18066406 .12199402 .2727356 .12199402 .3317871 .12199402 .39582826 .12199402 .46188355 .12998963 .5159149 .14898682 .63500979 .22399903 .64401248 .24899292 .64401248 .28199769 .64401248 .34799195 .6259918 .36698915 .52693179 .3769989 .47088624 .3769989 .39482118 .3769989 .3317871 .3769989 .25672914 .3769989 .18867493 .3659973 .12461853 .35099793 .029556275 .2939911-.00047302247 .24899292-.00047302247Z"/>
</defs>
<path transform="matrix(1.00006,0,0,-1.00008,92.52465,162.31395)" stroke-width=".3985" stroke-linecap="butt" stroke-miterlimit="10" stroke-linejoin="miter" fill="none" stroke="#00aeef" d="M-90.70839 0H136.06259M-90.70839 14.17339H136.06259M-90.70839 28.3468H136.06259M-90.70839 42.5202H136.06259M-90.70839 56.69362H136.06259M-90.70839 70.867H136.06259M-90.70839 85.04042H136.06259M-90.70839 99.21382H136.06259M-90.70839 113.38724H136.06259M-90.70839 127.56062H136.06259M-90.70839 141.72905H136.06259M-90.70839 0V141.73404M-79.36984 0V141.73404M-68.0313 0V141.73404M-56.69275 0V141.73404M-45.35419 0V141.73404M-34.01564 0V141.73404M-22.6771 0V141.73404M-11.33855 0V141.73404M0 0V141.73404M11.33855 0V141.73404M22.6771 0V141.73404M34.01564 0V141.73404M45.35419 0V141.73404M56.69275 0V141.73404M68.0313 0V141.73404M79.36984 0V141.73404M90.70839 0V141.73404M102.04694 0V141.73404M113.3855 0V141.73404M124.72404 0V141.73404M136.05861 0V141.73404M136.06259 141.73404"/>
<path transform="matrix(1.00006,0,0,-1.00008,92.52465,162.31395)" stroke-width="1.19553" stroke-linecap="butt" stroke-miterlimit="10" stroke-linejoin="miter" fill="none" stroke="#000000" d="M-90.70839 0H140.9928"/>
<path transform="matrix(1.00006,0,0,-1.00008,233.52591,162.31395)" d="M1.27522 0C-.31879 .31879-1.91284 .9564-3.8257 2.07224-1.91284 .6376-1.91284-.6376-3.8257-2.07224-1.91284-.9564-.31879-.31879 1.27522 0Z"/>
<path transform="matrix(1.00006,0,0,-1.00008,233.52591,162.31395)" stroke-width="1.19553" stroke-linecap="butt" stroke-linejoin="round" fill="none" stroke="#000000" d="M1.27522 0C-.31879 .31879-1.91284 .9564-3.8257 2.07224-1.91284 .6376-1.91284-.6376-3.8257-2.07224-1.91284-.9564-.31879-.31879 1.27522 0Z"/>
<use data-text="x" xlink:href="#font_1_1" transform="matrix(9.963197,0,0,-9.963397,239.31745,164.45912)"/>
<path transform="matrix(1.00006,0,0,-1.00008,92.52465,162.31395)" stroke-width="1.19553" stroke-linecap="butt" stroke-miterlimit="10" stroke-linejoin="miter" fill="none" stroke="#000000" d="M0 0V148.36518"/>
<path transform="matrix(0,-1.00008,-1.00006,-0,92.52465,13.936905)" d="M1.27522 0C-.31879 .31879-1.91284 .9564-3.8257 2.07224-1.91284 .6376-1.91284-.6376-3.8257-2.07224-1.91284-.9564-.31879-.31879 1.27522 0Z"/>
<path transform="matrix(0,-1.00008,-1.00006,-0,92.52465,13.936905)" stroke-width="1.19553" stroke-linecap="butt" stroke-linejoin="round" fill="none" stroke="#000000" d="M1.27522 0C-.31879 .31879-1.91284 .9564-3.8257 2.07224-1.91284 .6376-1.91284-.6376-3.8257-2.07224-1.91284-.9564-.31879-.31879 1.27522 0Z"/>
<use data-text="y" xlink:href="#font_1_2" transform="matrix(9.963197,0,0,-9.963397,89.903499,6.2074739)"/>
<path transform="matrix(1.00006,0,0,-1.00008,92.52465,162.31395)" stroke-width=".3985" stroke-linecap="butt" stroke-miterlimit="10" stroke-linejoin="miter" fill="none" stroke="#000000" d="M-56.69275 4.25204V-4.25204"/>
<path transform="matrix(1.00006,0,0,-1.00008,92.52465,162.31395)" d="M-64.05414-15.68709H-49.33136V-6.44386H-64.05414Z" fill="#ffffff"/>
<use data-text="&#x2212;" xlink:href="#font_2_1" transform="matrix(9.963197,0,0,-9.963397,29.462876,176.17606)"/>
<use data-text="5" xlink:href="#font_3_3" transform="matrix(9.963197,0,0,-9.963397,37.212327,176.17606)"/>
<path transform="matrix(1.00006,0,0,-1.00008,92.52465,162.31395)" stroke-width=".3985" stroke-linecap="butt" stroke-miterlimit="10" stroke-linejoin="miter" fill="none" stroke="#000000" d="M56.69275 4.25204V-4.25204"/>
<path transform="matrix(1.00006,0,0,-1.00008,92.52465,162.31395)" d="M53.20578-14.85684H60.179719V-6.44386H53.20578Z" fill="#ffffff"/>
<use data-text="5" xlink:href="#font_3_3" transform="matrix(9.963197,0,0,-9.963397,146.7299,176.17606)"/>
<path transform="matrix(1.00006,0,0,-1.00008,92.52465,162.31395)" stroke-width=".3985" stroke-linecap="butt" stroke-miterlimit="10" stroke-linejoin="miter" fill="none" stroke="#000000" d="M113.3855 4.25204V-4.25204"/>
<path transform="matrix(1.00006,0,0,-1.00008,92.52465,162.31395)" d="M107.40782-14.85684H119.36316V-6.44386H107.40782Z" fill="#ffffff"/>
<use data-text="1" xlink:href="#font_3_2" transform="matrix(9.963197,0,0,-9.963397,200.93515,176.17606)"/>
<use data-text="0" xlink:href="#font_3_1" transform="matrix(9.963197,0,0,-9.963397,205.91674,176.17606)"/>
<path transform="matrix(1.00006,0,0,-1.00008,92.52465,162.31395)" stroke-width=".3985" stroke-linecap="butt" stroke-miterlimit="10" stroke-linejoin="miter" fill="none" stroke="#000000" d="M3.40158 70.867H-3.40158"/>
<path transform="matrix(1.00006,0,0,-1.00008,92.52465,162.31395)" d="M-12.56734 66.66052H-5.5934V75.0735H-12.56734Z" fill="#ffffff"/>
<use data-text="5" xlink:href="#font_3_3" transform="matrix(9.963197,0,0,-9.963397,80.95296,94.65154)"/>
<path transform="matrix(1.00006,0,0,-1.00008,92.52465,162.31395)" stroke-width=".3985" stroke-linecap="butt" stroke-miterlimit="10" stroke-linejoin="miter" fill="none" stroke="#000000" d="M3.40158 141.73404H-3.40158"/>
<path transform="matrix(1.00006,0,0,-1.00008,92.52465,162.31395)" d="M-17.54875 137.52754H-5.5934097V145.94052H-17.54875Z" fill="#ffffff"/>
<use data-text="1" xlink:href="#font_3_2" transform="matrix(9.963197,0,0,-9.963397,75.97166,23.77887)"/>
<use data-text="0" xlink:href="#font_3_1" transform="matrix(9.963197,0,0,-9.963397,80.95324,23.77887)"/>
<path transform="matrix(1.00006,0,0,-1.00008,92.52465,162.31395)" stroke-width="1.19553" stroke-linecap="butt" stroke-miterlimit="10" stroke-linejoin="miter" fill="none" stroke="#ff0000" d="M-88.83682 2.41385C-89.48148 2.38947-89.48148 2.38947-89.01027 2.40793-88.53905 2.42636-87.78337 2.45639-87.31215 2.47562-86.84093 2.49484-86.08525 2.52649-85.61404 2.54655-85.1428 2.56664-84.38713 2.59937-83.91591 2.6203-83.4447 2.64125-82.68901 2.67564-82.21779 2.69751-81.74658 2.71938-80.99089 2.7551-80.51967 2.77795-80.04846 2.80083-79.29279 2.8384-78.82156 2.8623-78.35036 2.88623-77.59467 2.92531-77.12344 2.95033-76.65222 2.97536-75.89655 3.01645-75.42532 3.04266-74.9541 3.0689-74.19843 3.11186-73.7272 3.13936-73.25598 3.16684-72.5003 3.21198-72.0291 3.24078-71.55786 3.26958-70.80219 3.31671-70.33098 3.34697-69.85976 3.3772-69.10406 3.427-68.63286 3.45877-68.16164 3.49055-67.40594 3.5426-66.93472 3.576-66.46352 3.60939-65.70784 3.66432-65.2366 3.69948-64.7654 3.73465-64.00972 3.79247-63.5385 3.82947-63.06729 3.86646-62.3116 3.92714-61.84038 3.96614-61.36916 4.00516-60.61348 4.06944-60.14226 4.11061-59.67104 4.15178-58.91536 4.21939-58.44415 4.26286-57.97293 4.30635-57.21724 4.37802-56.74603 4.42398-56.27481 4.46996-55.51912 4.54555-55.04791 4.59418-54.57669 4.64282-53.821 4.723-53.3498 4.77455-52.87857 4.82611-52.1229 4.91107-51.65166 4.96573-51.18045 5.0204-50.42477 5.11055-49.95355 5.16861-49.48233 5.22665-48.72665 5.3225-48.25543 5.38422-47.78423 5.44594-47.02853 5.54776-46.55731 5.61346-46.08609 5.67918-45.33041 5.78778-44.85919 5.85785-44.38797 5.92792-43.6323 6.04364-43.16109 6.11845-42.68987 6.19325-41.93417 6.31703-41.46297 6.397-40.99174 6.47696-40.23605 6.6092-39.76485 6.69481-39.29362 6.78043-38.53793 6.92223-38.06673 7.01402-37.5955 7.1058-36.83983 7.25778-36.3686 7.35638-35.89738 7.45499-35.14171 7.61856-34.67049 7.72469-34.19928 7.83083-33.44359 8.00694-32.97237 8.1213-32.50116 8.23569-31.74547 8.42554-31.27425 8.5491-30.80302 8.67265-30.04736 8.87814-29.57613 9.0119-29.1049 9.14569-28.34923 9.36815-27.87802 9.51323-27.40678 9.65831-26.65111 9.89986-26.1799 10.05757-25.70868 10.21529-24.95299 10.47806-24.48178 10.64993-24.01056 10.82181-23.25487 11.10861-22.78366 11.29637-22.31244 11.48412-21.55676 11.79747-21.08554 12.00313-20.61433 12.20879-19.85864 12.55269-19.38742 12.77867-18.91621 13.00465-18.16052 13.38286-17.6893 13.63185-17.2181 13.88084-16.46242 14.298-15.99118 14.57327-15.51996 14.84856-14.7643 15.3105-14.29308 15.6159-13.82184 15.92131-13.06616 16.4344-12.59496 16.77446-12.12373 17.11453-11.36804 17.68669-10.89684 18.06688-10.42561 18.44707-9.66992 19.08769-9.19872 19.51459-8.7275 19.9415-7.9718 20.66212-7.5006 21.14374-7.02937 21.62534-6.2737 22.4397-5.80247 22.9857-5.33127 23.5317-4.57558 24.45648-4.10435 25.07896-3.63315 25.70146-2.87746 26.75822-2.40623 27.4722-1.93503 28.18619-1.17935 29.40062-.70813 30.22487-.2369 31.04913 .51874 32.45433 .98996 33.41289 1.46118 34.37148 2.21687 36.00989 2.68808 37.13359 3.1593 38.25728 3.91498 40.18263 4.38618 41.51173 4.8574 42.84082 5.6131 45.12492 6.0843 46.71278 6.55553 48.30066 7.31122 51.03752 7.78242 52.95604 8.25365 54.87456 9.00932 58.19223 9.48056 60.54016 9.95177 62.8881 10.70744 66.96252 11.17867 69.87843 11.64989 72.79436 12.40556 77.87267 12.87679 81.55609 13.348 85.23953 14.10368 91.67941 14.5749 96.42612 15.04613 101.17282 15.8018 109.50346 16.27303 115.76704 16.74425 122.03062 17.97115 141.56966 17.8538 139.70046"/>
<path transform="matrix(-.9992999,.038043046,.03804228,.9993199,3.6825028,159.8999)" d="M1.27522 0C-.31879 .31879-1.91284 .9564-3.8257 2.07224-1.91284 .6376-1.91284-.6376-3.8257-2.07224-1.91284-.9564-.31879-.31879 1.27522 0Z" fill="#ff0000"/>
<path transform="matrix(-.9992999,.038043046,.03804228,.9993199,3.6825028,159.8999)" stroke-width="1.19553" stroke-linecap="butt" stroke-linejoin="round" fill="none" stroke="#ff0000" d="M1.27522 0C-.31879 .31879-1.91284 .9564-3.8257 2.07224-1.91284 .6376-1.91284-.6376-3.8257-2.07224-1.91284-.9564-.31879-.31879 1.27522 0Z"/>
<path transform="matrix(.06265376,-.9980698,-.99804988,-.06265502,110.37952,22.60234)" d="M1.27522 0C-.31879 .31879-1.91284 .9564-3.8257 2.07224-1.91284 .6376-1.91284-.6376-3.8257-2.07224-1.91284-.9564-.31879-.31879 1.27522 0Z" fill="#ff0000"/>
<path transform="matrix(.06265376,-.9980698,-.99804988,-.06265502,110.37952,22.60234)" stroke-width="1.19553" stroke-linecap="butt" stroke-linejoin="round" fill="none" stroke="#ff0000" d="M1.27522 0C-.31879 .31879-1.91284 .9564-3.8257 2.07224-1.91284 .6376-1.91284-.6376-3.8257-2.07224-1.91284-.9564-.31879-.31879 1.27522 0Z"/>
<path transform="matrix(1.00006,0,0,-1.00008,92.52465,162.31395)" stroke-width="1.19553" stroke-linecap="butt" stroke-miterlimit="10" stroke-linejoin="miter" fill="none" stroke="#ff0000" d="M50.1654 139.86469C51.02168 125.9033 51.02168 125.9033 51.39456 120.66273 51.76747 115.42213 52.36548 108.14781 52.73836 103.96353 53.11125 99.77924 53.70924 93.89938 54.08215 90.50533 54.45505 87.11124 55.05304 82.29254 55.42593 79.50134 55.79884 76.71011 56.39684 72.71147 56.76973 70.3882 57.14262 68.06491 57.74062 64.71109 58.11351 62.75671 58.4864 60.80232 59.08441 57.96205 59.4573 56.30237 59.83018 54.6427 60.42819 52.21626 60.8011 50.79486 61.17398 49.37347 61.77199 47.28464 62.14488 46.05792 62.51778 44.83122 63.11578 43.01962 63.48866 41.95358 63.86156 40.88753 64.45958 39.3068 64.83246 38.37454 65.20535 37.44228 65.80334 36.05446 66.17624 35.23453 66.54915 34.4146 67.14714 33.18996 67.52003 32.46498 67.89293 31.74004 68.49092 30.65363 68.86383 30.00948 69.23672 29.36533 69.83472 28.39725 70.20761 27.82234 70.5805 27.24744 71.17851 26.38121 71.5514 25.86598 71.92429 25.35072 72.5223 24.57239 72.89519 24.1088 73.26808 23.64519 73.86609 22.94318 74.23897 22.52461 74.61186 22.10605 75.20987 21.47124 75.58276 21.09206 75.95566 20.71286 76.55367 20.13629 76.92654 19.79163 77.29945 19.44698 77.89745 18.92215 78.27034 18.60799 78.64323 18.29381 79.24124 17.81447 79.61414 17.5273 79.98703 17.24013 80.58502 16.80145 80.95792 16.53828 81.33081 16.27515 81.92882 15.87242 82.30171 15.6306 82.6746 15.3888 83.2726 15.01802 83.64551 14.79538 84.01839 14.57272 84.6164 14.23135 84.98929 14.0259 85.36218 13.82045 85.96019 13.50465 86.33308 13.31459 86.70596 13.12453 87.30397 12.83215 87.67686 12.65605 88.04976 12.47993 88.64777 12.2088 89.02065 12.0453 89.39354 11.8818 89.99155 11.6297 90.36444 11.47758 90.73734 11.3255 91.33533 11.09073 91.70822 10.94904 92.08113 10.80736 92.67912 10.58858 93.05202 10.45638 93.42491 10.32417 94.02292 10.11972 94.39581 9.99615 94.7687 9.8726 95.3667 9.68147 95.7396 9.56578 96.11247 9.45007 96.7105 9.27069 97.08339 9.16223 97.45627 9.05374 98.05428 8.88574 98.42719 8.78397 98.80006 8.68219 99.39807 8.52429 99.77095 8.42863 100.14386 8.33298 100.74187 8.18456 101.11475 8.0945 101.48764 8.00446 102.08565 7.86444 102.45854 7.77962 102.83144 7.6948 103.42943 7.56313 103.80232 7.48311 104.17522 7.40308 104.77321 7.27841 105.14612 7.20282 105.51901 7.12724 106.117 7.00977 106.4899 6.93832 106.86281 6.86688 107.4608 6.75552 107.8337 6.6879 108.20657 6.62025 108.80458 6.5149 109.17749 6.45087 109.55037 6.38683 110.14838 6.28711 110.52127 6.22638 110.89415 6.16563 111.49217 6.07077 111.86505 6.01314 112.23795 5.95549 112.83595 5.86565 113.20883 5.81091 113.58174 5.7562 114.17975 5.67072 114.55263 5.61865 114.92554 5.56659 115.52353 5.48523 115.89642 5.43568 116.26932 5.38615 116.86731 5.30875 117.24022 5.2616 117.61311 5.21442 118.2111 5.14066 118.584 5.0957 118.9569 5.05078 119.5549 4.9805 119.9278 4.93762 120.30067 4.89474 120.89868 4.82762 121.27158 4.78667 121.64447 4.74571 122.24248 4.6815 122.61537 4.64243 122.98825 4.60332 123.58626 4.54222 123.95915 4.50487 124.33205 4.4675 124.93005 4.40889 125.30293 4.37315 125.67583 4.33742 126.27385 4.2815 126.64673 4.24728 127.01962 4.21309 127.61761 4.15938 127.99051 4.12662 128.36342 4.09386 128.96141 4.04251 129.3343 4.01112 129.70722 3.97975 130.3052 3.93053 130.6781 3.90039 131.051 3.87029 131.64899 3.82288 132.0219 3.79399 132.39478 3.76509 132.99279 3.71985 133.36568 3.69212 133.73856 3.66441 134.33658 3.62077 134.70948 3.59416 135.08235 3.56755 136.05324 3.50029 134.18479 3.6297"/>
<path transform="matrix(-.06120367,-.9981398,-.99811986,.061204897,142.69309,22.43808)" d="M1.27522 0C-.31879 .31879-1.91284 .9564-3.8257 2.07224-1.91284 .6376-1.91284-.6376-3.8257-2.07224-1.91284-.9564-.31879-.31879 1.27522 0Z" fill="#ff0000"/>
<path transform="matrix(-.06120367,-.9981398,-.99811986,.061204897,142.69309,22.43808)" stroke-width="1.19553" stroke-linecap="butt" stroke-linejoin="round" fill="none" stroke="#ff0000" d="M1.27522 0C-.31879 .31879-1.91284 .9564-3.8257 2.07224-1.91284 .6376-1.91284-.6376-3.8257-2.07224-1.91284-.9564-.31879-.31879 1.27522 0Z"/>
<path transform="matrix(.99764987,.06909553,.069094147,-.9976698,226.71747,158.68396)" d="M1.27522 0C-.31879 .31879-1.91284 .9564-3.8257 2.07224-1.91284 .6376-1.91284-.6376-3.8257-2.07224-1.91284-.9564-.31879-.31879 1.27522 0Z" fill="#ff0000"/>
<path transform="matrix(.99764987,.06909553,.069094147,-.9976698,226.71747,158.68396)" stroke-width="1.19553" stroke-linecap="butt" stroke-linejoin="round" fill="none" stroke="#ff0000" d="M1.27522 0C-.31879 .31879-1.91284 .9564-3.8257 2.07224-1.91284 .6376-1.91284-.6376-3.8257-2.07224-1.91284-.9564-.31879-.31879 1.27522 0Z"/>
</svg>
