<svg xmlns="http://www.w3.org/2000/svg" xmlns:xlink="http://www.w3.org/1999/xlink" version="1.1" width="161" height="175" viewBox="0 0 161 175">
<defs>
<path id="font_1_1" d="M.33399964 .30233766C.33999635 .32835389 .36299134 .42037965 .43299867 .42037965 .43798829 .42037965 .46199037 .42037965 .48298646 .40734864 .45498658 .402359 .43499757 .37734986 .43499757 .35334779 .43499757 .33735658 .44599916 .31835938 .47299195 .31835938 .49499513 .31835938 .5269928 .3363495 .5269928 .37635804 .5269928 .42837525 .46798707 .4423828 .43399049 .4423828 .37599183 .4423828 .34098817 .38935853 .32899476 .36634828 .3039856 .43237306 .25 .4423828 .22099304 .4423828 .116989139 .4423828 .05999756 .3133545 .05999756 .28834535 .05999756 .27833558 .069992069 .27833558 .07199097 .27833558 .07998657 .27833558 .08299255 .28033448 .084991458 .28933717 .11898804 .39535523 .18499756 .42037965 .21899414 .42037965 .23799134 .42037965 .272995 .4113617 .272995 .35334779 .272995 .32235719 .2559967 .25532533 .21899414 .11528015 .20298767 .053268434 .16799927 .011245728 .12399292 .011245728 .117996219 .011245728 .09498596 .011245728 .07398987 .024276734 .09899902 .029266358 .12098694 .05027771 .12098694 .07827759 .12098694 .105270389 .09899902 .11328125 .083999637 .11328125 .053985597 .11328125 .0289917 .08728027 .0289917 .055267335 .0289917 .009246826 .07899475-.0107421879 .12298584-.0107421879 .18899536-.0107421879 .22499085 .059280397 .22799683 .0652771 .23999024 .028274537 .27598573-.0107421879 .33599855-.0107421879 .43899537-.0107421879 .49598695 .118270877 .49598695 .14328003 .49598695 .1532898 .4869995 .1532898 .48399354 .1532898 .47499085 .1532898 .47299195 .14929199 .47099305 .14228821 .43798829 .03527832 .36999513 .011245728 .33799745 .011245728 .29899598 .011245728 .2829895 .043273927 .2829895 .07727051 .2829895 .09927368 .2889862 .121276859 .2999878 .16529846L.33399964 .30233766Z"/>
<path id="font_1_2" d="M.48599244 .38136292C.48999024 .39537049 .48999024 .39736939 .48999024 .40437318 .48999024 .42237855 .47599793 .43138124 .46099855 .43138124 .45098878 .43138124 .43499757 .42536927 .42599488 .41036988 .42399598 .405365 .41600038 .37435914 .4119873 .35635377 .40499879 .33035279 .397995 .30334474 .3919983 .27633668L.34700013 .09628296C.34298707 .08126831 .2999878 .011245728 .23399353 .011245728 .18299866 .011245728 .17199707 .055267335 .17199707 .0922699 .17199707 .1382904 .18899536 .20030213 .22299195 .28833009 .23899842 .3293457 .24299622 .3403473 .24299622 .36035157 .24299622 .405365 .21099854 .4423828 .16099549 .4423828 .06599426 .4423828 .0289917 .29733277 .0289917 .28833009 .0289917 .27833558 .038986207 .27833558 .040985109 .27833558 .050994874 .27833558 .051986696 .28033448 .056991579 .29634095 .083999637 .3903656 .12399292 .42037965 .1579895 .42037965 .1659851 .42037965 .18299866 .42037965 .18299866 .3883667 .18299866 .36335755 .17298889 .3373413 .1659851 .31834413 .12599182 .21231079 .10798645 .1552887 .10798645 .10827637 .10798645 .019256592 .17098999-.0107421879 .22999573-.0107421879 .2689972-.0107421879 .30299378 .0062561037 .33099366 .03425598 .31799317-.017745972 .30599977-.06674194 .2659912-.11973572 .23999024-.15385437 .20199585-.18309021 .1559906-.18309021 .14199829-.18309021 .09700012-.18005371 .07998657-.14074707 .09599304-.14074707 .10899353-.14074707 .12298584-.1287384 .1329956-.11973572 .14299011-.10673523 .14299011-.08773804 .14299011-.056747438 .115997318-.052734376 .10598755-.052734376 .08299255-.052734376 .049987794-.068740848 .049987794-.11773682 .049987794-.16796875 .09399414-.20507813 .1559906-.20507813 .25898744-.20507813 .3619995-.11373901 .3899994-.00074768069L.48599244 .38136292Z"/>
<path id="font_2_1" d="M.6589966 .23046875C.6759949 .23046875 .69400027 .23046875 .69400027 .25045777 .69400027 .27046205 .6759949 .27046205 .6589966 .27046205H.117996219C.100997928 .27046205 .08299255 .27046205 .08299255 .25045777 .08299255 .23046875 .100997928 .23046875 .117996219 .23046875H.6589966Z"/>
<path id="font_3_1" d="M.2939911 .64004519C.2939911 .66400149 .2939911 .6660156 .2709961 .6660156 .20899964 .60227969 .12098694 .60227969 .08898926 .60227969V.57128909C.10899353 .57128909 .16799927 .57128909 .21998596 .5972748V.07902527C.21998596 .042999269 .21699524 .0309906 .1269989 .0309906H.09498596V0C.12998963 .0029907227 .21699524 .0029907227 .25698854 .0029907227 .29699708 .0029907227 .38398744 .0029907227 .4189911 0V.0309906H.3869934C.29699708 .0309906 .2939911 .041992189 .2939911 .07902527V.64004519Z"/>
<path id="font_3_3" d="M.13198853 .327713V.35173036C.13198853 .6047821 .2559967 .64100649 .30699159 .64100649 .33099366 .64100649 .37298585 .634964 .394989 .6007538 .37998963 .6007538 .33999635 .6007538 .33999635 .5557556 .33999635 .524765 .3639984 .5097656 .38598634 .5097656 .4019928 .5097656 .43199159 .51875308 .43199159 .5577545 .43199159 .6178589 .3880005 .6660156 .30499269 .6660156 .1769867 .6660156 .041992189 .5367584 .041992189 .31570436 .041992189 .048553468 .1579895-.022460938 .25099183-.022460938 .3619995-.022460938 .45700074 .07156372 .45700074 .2036438 .45700074 .33070375 .36799623 .4267578 .25698854 .4267578 .18899536 .4267578 .1519928 .37573243 .13198853 .327713M.25099183 .0055389406C.18798828 .0055389406 .1579895 .06556702 .1519928 .080566409 .13398743 .127594 .13398743 .2076416 .13398743 .22564698 .13398743 .30369569 .1659851 .40374757 .2559967 .40374757 .27198792 .40374757 .31799317 .40374757 .34899903 .34172059 .36698915 .30470277 .36698915 .2536621 .36698915 .20463562 .36698915 .15661621 .36698915 .10658264 .34999085 .0705719 .31999208 .010528564 .27398683 .0055389406 .25099183 .0055389406Z"/>
<path id="font_3_4" d="M.16299439 .4569702C.116989139 .486969 .11299133 .52098086 .11299133 .5379791 .11299133 .598999 .17799378 .64100649 .24899292 .64100649 .32199098 .64100649 .38598634 .58898928 .38598634 .51698306 .38598634 .45996095 .34700013 .4119568 .2869873 .37695313L.16299439 .4569702M.30899049 .36193849C.3809967 .3989563 .42999269 .45095826 .42999269 .51698306 .42999269 .6090088 .34098817 .6660156 .25 .6660156 .1499939 .6660156 .068984989 .59199526 .068984989 .49897767 .068984989 .4809723 .070999149 .43595887 .11299133 .38894654 .12399292 .37695313 .16099549 .35194398 .18598938 .33494569 .12799073 .30592347 .041992189 .24984741 .041992189 .15072632 .041992189 .04458618 .14399719-.022460938 .24899292-.022460938 .3619995-.022460938 .45700074 .06060791 .45700074 .16773987 .45700074 .20379639 .44599916 .24885559 .4079895 .2909088 .3889923 .31193543 .37298585 .3219452 .30899049 .36193849M.20899964 .3199463 .33198548 .24183655C.3600006 .2228241 .40699769 .19277954 .40699769 .13169861 .40699769 .05760193 .33198548 .0055389406 .25 .0055389406 .1639862 .0055389406 .09199524 .067611698 .09199524 .15072632 .09199524 .20880127 .12399292 .27288819 .20899964 .3199463Z"/>
<path id="font_3_2" d="M.2939911 .16503906V.07800293C.2939911 .041992189 .2919922 .0309906 .21798706 .0309906H.19699097V0C.23799134 .0029907227 .2899933 .0029907227 .33198548 .0029907227 .37399293 .0029907227 .4269867 .0029907227 .46798707 0V.0309906H.44699098C.37298585 .0309906 .37098695 .041992189 .37098695 .07800293V.16503906H.47099305V.19602967H.37098695V.65075686C.37098695 .67074587 .37098695 .6767578 .35499574 .6767578 .34599305 .6767578 .34298707 .6767578 .33499146 .66474917L.027999878 .19602967V.16503906H.2939911M.2999878 .19602967H.055999757L.2999878 .5688019V.19602967Z"/>
</defs>
<path transform="matrix(1.00005,0,0,-1.00006,83.45441,81.4591)" stroke-width=".3985" stroke-linecap="butt" stroke-miterlimit="10" stroke-linejoin="miter" fill="none" stroke="#00aeef" d="M-81.63893-91.83992H61.2292M-81.63893-81.63548H61.2292M-81.63893-71.43103H61.2292M-81.63893-61.2266H61.2292M-81.63893-51.02217H61.2292M-81.63893-40.81773H61.2292M-81.63893-30.6133H61.2292M-81.63893-20.40886H61.2292M-81.63893-10.20442H61.2292M-81.63893 0H61.2292M-81.63893 10.20442H61.2292M-81.63893 20.40886H61.2292M-81.63893 30.6133H61.2292M-81.63893 40.81773H61.2292M-81.63893 51.02217H61.2292M-81.63893 61.22481H61.2292M-81.63893-91.83992V61.2266M-71.43407-91.83992V61.2266M-61.2292-91.83992V61.2266M-51.02432-91.83992V61.2266M-40.81946-91.83992V61.2266M-30.6146-91.83992V61.2266M-20.40973-91.83992V61.2266M-10.20485-91.83992V61.2266M0-91.83992V61.2266M10.20485-91.83992V61.2266M20.40973-91.83992V61.2266M30.6146-91.83992V61.2266M40.81946-91.83992V61.2266M51.02432-91.83992V61.2266M61.22562-91.83992V61.2266M61.2292 61.2266"/>
<path transform="matrix(1.00005,0,0,-1.00006,83.45441,81.4591)" stroke-width="1.19553" stroke-linecap="butt" stroke-miterlimit="10" stroke-linejoin="miter" fill="none" stroke="#000000" d="M-81.63893 0H65.47919"/>
<path transform="matrix(1.00005,0,0,-1.00006,148.93686,81.4591)" d="M1.27522 0C-.31879 .31879-1.91284 .9564-3.8257 2.07224-1.91284 .6376-1.91284-.6376-3.8257-2.07224-1.91284-.9564-.31879-.31879 1.27522 0Z"/>
<path transform="matrix(1.00005,0,0,-1.00006,148.93686,81.4591)" stroke-width="1.19553" stroke-linecap="butt" stroke-linejoin="round" fill="none" stroke="#000000" d="M1.27522 0C-.31879 .31879-1.91284 .9564-3.8257 2.07224-1.91284 .6376-1.91284-.6376-3.8257-2.07224-1.91284-.9564-.31879-.31879 1.27522 0Z"/>
<use data-text="x" xlink:href="#font_1_1" transform="matrix(9.963098,0,0,-9.963197,154.72898,83.604228)"/>
<path transform="matrix(1.00005,0,0,-1.00006,83.45441,81.4591)" stroke-width="1.19553" stroke-linecap="butt" stroke-miterlimit="10" stroke-linejoin="miter" fill="none" stroke="#000000" d="M0-91.83992V67.5172"/>
<path transform="matrix(0,-1.00006,-1.00005,-0,83.45441,13.937851)" d="M1.27522 0C-.31879 .31879-1.91284 .9564-3.8257 2.07224-1.91284 .6376-1.91284-.6376-3.8257-2.07224-1.91284-.9564-.31879-.31879 1.27522 0Z"/>
<path transform="matrix(0,-1.00006,-1.00005,-0,83.45441,13.937851)" stroke-width="1.19553" stroke-linecap="butt" stroke-linejoin="round" fill="none" stroke="#000000" d="M1.27522 0C-.31879 .31879-1.91284 .9564-3.8257 2.07224-1.91284 .6376-1.91284-.6376-3.8257-2.07224-1.91284-.9564-.31879-.31879 1.27522 0Z"/>
<use data-text="y" xlink:href="#font_1_2" transform="matrix(9.963098,0,0,-9.963197,80.833278,6.2085878)"/>
<path transform="matrix(1.00005,0,0,-1.00006,83.45441,81.4591)" stroke-width=".3985" stroke-linecap="butt" stroke-miterlimit="10" stroke-linejoin="miter" fill="none" stroke="#000000" d="M-81.63893 1.53067V-1.53067"/>
<path transform="matrix(1.00005,0,0,-1.00006,83.45441,81.4591)" stroke-width=".3985" stroke-linecap="butt" stroke-miterlimit="10" stroke-linejoin="miter" fill="none" stroke="#000000" d="M-40.81946 1.53067V-1.53067"/>
<path transform="matrix(1.00005,0,0,-1.00006,83.45441,81.4591)" stroke-width=".3985" stroke-linecap="butt" stroke-miterlimit="10" stroke-linejoin="miter" fill="none" stroke="#000000" d="M40.81946 1.53067V-1.53067"/>
<path transform="matrix(1.00005,0,0,-1.00006,83.45441,81.4591)" stroke-width=".3985" stroke-linecap="butt" stroke-miterlimit="10" stroke-linejoin="miter" fill="none" stroke="#000000" d="M3.06148-81.63548H-3.06148"/>
<path transform="matrix(1.00005,0,0,-1.00006,83.45441,81.4591)" d="M-24.95747-86.2571H-5.253269V-77.01387H-24.95747Z" fill="#ffffff"/>
<use data-text="&#x2212;" xlink:href="#font_2_1" transform="matrix(9.963098,0,0,-9.963197,59.49221,165.89517)"/>
<use data-text="1" xlink:href="#font_3_1" transform="matrix(9.963098,0,0,-9.963197,67.2416,165.89517)"/>
<use data-text="6" xlink:href="#font_3_3" transform="matrix(9.963098,0,0,-9.963197,72.22314,165.89517)"/>
<path transform="matrix(1.00005,0,0,-1.00006,83.45441,81.4591)" stroke-width=".3985" stroke-linecap="butt" stroke-miterlimit="10" stroke-linejoin="miter" fill="none" stroke="#000000" d="M3.06148-40.81773H-3.06148"/>
<path transform="matrix(1.00005,0,0,-1.00006,83.45441,81.4591)" d="M-19.97606-45.43935H-5.2532808V-36.19612H-19.97606Z" fill="#ffffff"/>
<use data-text="&#x2212;" xlink:href="#font_2_1" transform="matrix(9.963098,0,0,-9.963197,64.47346,125.074718)"/>
<use data-text="8" xlink:href="#font_3_4" transform="matrix(9.963098,0,0,-9.963197,72.22285,125.074718)"/>
<path transform="matrix(1.00005,0,0,-1.00006,83.45441,81.4591)" stroke-width=".3985" stroke-linecap="butt" stroke-miterlimit="10" stroke-linejoin="miter" fill="none" stroke="#0000ff" d="M3.06148 40.81773H-3.06148"/>
<path transform="matrix(1.00005,0,0,-1.00006,83.45441,81.4591)" d="M-12.22722 36.61124H-5.2532799V45.02422H-12.22722Z" fill="#ffffff"/>
<use data-text="8" xlink:href="#font_3_4" transform="matrix(9.963098,0,0,-9.963197,72.22285,43.848844)" fill="#0000ff"/>
<path transform="matrix(1.00005,0,0,-1.00006,83.45441,81.4591)" stroke-width="1.19553" stroke-linecap="butt" stroke-miterlimit="10" stroke-linejoin="miter" fill="none" stroke="#ff0000" d="M-64.81462 59.38564C-63.91904 54.60965-63.91904 54.60965-63.44252 52.1238-62.96599 49.63795-62.20183 45.71579-61.7253 43.31013-61.24878 40.90448-60.4846 37.11095-60.00809 34.78546-59.53157 32.45999-58.7674 28.79501-58.29086 26.54971-57.81436 24.30441-57.05017 20.768-56.57365 18.60287-56.09715 16.43777-55.33296 13.02997-54.85646 10.94504-54.37993 8.8601-53.61574 5.58087-53.13924 3.57613-52.66272 1.57137-51.89854-1.57922-51.42203-3.50378-50.9455-5.42836-50.18132-8.45042-49.7048-10.2948-49.22829-12.13919-48.46411-15.03264-47.9876-16.79684-47.51106-18.56104-46.7469-21.32593-46.27037-23.00995-45.79387-24.69398-45.02968-27.3303-44.55316-28.93414-44.07666-30.53798-43.31247-33.0457-42.83595-34.56935-42.35944-36.093-41.59525-38.47209-41.11874-39.91556-40.64223-41.35902-39.87805-43.60956-39.40154-44.97285-38.925-46.33615-38.16083-48.45813-37.68431-49.74124-37.2078-51.02435-36.44362-53.0177-35.9671-54.22063-35.49057-55.42357-34.72641-57.28836-34.24988-58.4111-33.77338-59.53384-33.00919-61.27003-32.53267-62.31258-32.05617-63.35513-31.29198-64.96275-30.81546-65.92516-30.33894-66.88754-29.57475-68.3666-29.09825-69.24881-28.62173-70.13101-27.85754-71.48146-27.38104-72.28345-26.90451-73.08546-26.14034-74.3073-25.66382-75.02913-25.1873-75.75095-24.42313-76.84421-23.94661-77.48587-23.47008-78.12752-22.70592-79.09224-22.22939-79.6537-21.75288-80.21518-20.9887-81.05127-20.51218-81.53255-20.03568-82.01382-19.27148-82.72137-18.79497-83.12248-18.31845-83.52359-17.55426-84.1025-17.07776-84.42342-16.60124-84.74434-15.83705-85.1947-15.36055-85.43542-14.88402-85.67616-14.11984-85.99792-13.64333-86.15846-13.16681-86.31902-12.40263-86.5122-11.92612-86.59258-11.44958-86.67294-10.68542-86.73749-10.2089-86.73769-9.73239-86.73788-8.9682-86.67397-8.49168-86.59398-8.01517-86.51398-7.25099-86.32137-6.77448-86.1612-6.29796-86.001-5.53377-85.67982-5.05727-85.43948-4.58075-85.19913-3.81656-84.7494-3.34004-84.42886-2.86353-84.10832-2.09935-83.52997-1.62283-83.12924-1.14632-82.72853-.38214-82.02162 .09435-81.54073 .57086-81.05981 1.33505-80.2243 1.81157-79.66321 2.28807-79.10211 3.05226-78.13805 3.52876-77.49678 4.0053-76.85551 4.76945-75.76286 5.24599-75.04143 5.7225-74.31998 6.48668-73.09872 6.9632-72.29707 7.43971-71.49544 8.20389-70.14557 8.68042-69.26375 9.15692-68.38193 9.92111-66.90349 10.39763-65.9415 10.87413-64.97949 11.63832-63.37251 12.11484-62.33034 12.59135-61.28815 13.35555-59.55254 13.83206-58.43018 14.30856-57.30782 15.07275-55.44365 15.54926-54.2411 16.02579-53.03856 16.78995-51.04578 17.26648-49.76303 17.743-48.4803 18.50717-46.35898 18.98369-44.99605 19.4602-43.63313 20.22438-41.38318 20.70091-39.9401 21.17741-38.49698 21.9416-36.11847 22.41812-34.5952 22.89462-33.07193 23.65881-30.56485 24.13533-28.9614 24.61185-27.35794 25.37604-24.72224 25.85255-23.03859 26.32906-21.35493 27.09325-18.59064 27.56975-16.8268 28.04628-15.06297 28.81044-12.17012 29.28697-10.32611 29.76349-8.4821 30.52766-5.46068 31.00418-3.53648 31.48071-1.6123 32.24487 1.53772 32.7214 3.5421 33.1979 5.54646 33.9621 8.82506 34.43861 10.90962 34.91512 12.99417 35.6793 16.4014 36.15584 18.56613 36.63234 20.73088 37.39653 24.26665 37.87305 26.51157 38.34955 28.75648 39.11374 32.42082 39.59026 34.74593 40.06677 37.07101 40.83095 40.86397 41.30746 43.26926 41.78398 45.67455 42.54816 49.59613 43.02467 52.08159 43.5012 54.56706 44.7419 61.18285 44.39671 59.34204"/>
<path transform="matrix(-.1842792,-.9828789,-.9828691,.18428105,18.636574,22.0699)" d="M1.27522 0C-.31879 .31879-1.91284 .9564-3.8257 2.07224-1.91284 .6376-1.91284-.6376-3.8257-2.07224-1.91284-.9564-.31879-.31879 1.27522 0Z" fill="#ff0000"/>
<path transform="matrix(-.1842792,-.9828789,-.9828691,.18428105,18.636574,22.0699)" stroke-width="1.19553" stroke-linecap="butt" stroke-linejoin="round" fill="none" stroke="#ff0000" d="M1.27522 0C-.31879 .31879-1.91284 .9564-3.8257 2.07224-1.91284 .6376-1.91284-.6376-3.8257-2.07224-1.91284-.9564-.31879-.31879 1.27522 0Z"/>
<path transform="matrix(.18430922,-.9828789,-.9828691,-.18431106,127.85333,22.113499)" d="M1.27522 0C-.31879 .31879-1.91284 .9564-3.8257 2.07224-1.91284 .6376-1.91284-.6376-3.8257-2.07224-1.91284-.9564-.31879-.31879 1.27522 0Z" fill="#ff0000"/>
<path transform="matrix(.18430922,-.9828789,-.9828691,-.18431106,127.85333,22.113499)" stroke-width="1.19553" stroke-linecap="butt" stroke-linejoin="round" fill="none" stroke="#ff0000" d="M1.27522 0C-.31879 .31879-1.91284 .9564-3.8257 2.07224-1.91284 .6376-1.91284-.6376-3.8257-2.07224-1.91284-.9564-.31879-.31879 1.27522 0Z"/>
<path transform="matrix(1.00005,0,0,-1.00006,83.45441,81.4591)" d="M-59.18826 40.81773C-59.18826 41.94487-60.10202 42.85858-61.2292 42.85858-62.35638 42.85858-63.27014 41.94487-63.27014 40.81773-63.27014 39.6906-62.35638 38.77689-61.2292 38.77689-60.10202 38.77689-59.18826 39.6906-59.18826 40.81773ZM-61.2292 40.81773" fill="#0000ff"/>
<path transform="matrix(1.00005,0,0,-1.00006,83.45441,81.4591)" stroke-width=".3985" stroke-linecap="butt" stroke-miterlimit="10" stroke-linejoin="miter" fill="none" stroke="#0000ff" d="M-59.18826 40.81773C-59.18826 41.94487-60.10202 42.85858-61.2292 42.85858-62.35638 42.85858-63.27014 41.94487-63.27014 40.81773-63.27014 39.6906-62.35638 38.77689-61.2292 38.77689-60.10202 38.77689-59.18826 39.6906-59.18826 40.81773ZM-61.2292 40.81773"/>
<path transform="matrix(1.00005,0,0,-1.00006,83.45441,81.4591)" d="M42.8604 40.81773C42.8604 41.94487 41.94664 42.85858 40.81946 42.85858 39.69228 42.85858 38.77852 41.94487 38.77852 40.81773 38.77852 39.6906 39.69228 38.77689 40.81946 38.77689 41.94664 38.77689 42.8604 39.6906 42.8604 40.81773ZM40.81946 40.81773" fill="#0000ff"/>
<path transform="matrix(1.00005,0,0,-1.00006,83.45441,81.4591)" stroke-width=".3985" stroke-linecap="butt" stroke-miterlimit="10" stroke-linejoin="miter" fill="none" stroke="#0000ff" d="M42.8604 40.81773C42.8604 41.94487 41.94664 42.85858 40.81946 42.85858 39.69228 42.85858 38.77852 41.94487 38.77852 40.81773 38.77852 39.6906 39.69228 38.77689 40.81946 38.77689 41.94664 38.77689 42.8604 39.6906 42.8604 40.81773ZM40.81946 40.81773"/>
<path transform="matrix(1.00005,0,0,-1.00006,83.45441,81.4591)" stroke-width=".79701" stroke-linecap="butt" stroke-miterlimit="10" stroke-linejoin="miter" fill="none" stroke="#d73589" d="M-61.2292 40.81773V1.4346"/>
<path transform="matrix(0,1.00006,1.00005,0,22.222149,80.024417)" d="M1.0361 0C-.25902 .25902-1.55415 .77707-3.1083 1.68365-1.55415 .51805-1.55415-.51805-3.1083-1.68365-1.55415-.77707-.25902-.25902 1.0361 0Z" fill="#d73589"/>
<path transform="matrix(0,1.00006,1.00005,0,22.222149,80.024417)" stroke-width=".79701" stroke-linecap="butt" stroke-linejoin="round" fill="none" stroke="#d73589" d="M1.0361 0C-.25902 .25902-1.55415 .77707-3.1083 1.68365-1.55415 .51805-1.55415-.51805-3.1083-1.68365-1.55415-.77707-.25902-.25902 1.0361 0Z"/>
<path transform="matrix(1.00005,0,0,-1.00006,83.45441,81.4591)" d="M-69.58687-14.62311H-52.871538V-3.38733H-69.58687Z" fill="#ffffff"/>
<use data-text="&#x2212;" xlink:href="#font_2_1" transform="matrix(9.963098,0,0,-9.963197,15.857025,93.25981)" fill="#d73589"/>
<use data-text="6" xlink:href="#font_3_3" transform="matrix(9.963098,0,0,-9.963197,23.606415,93.25981)" fill="#d73589"/>
<path transform="matrix(1.00005,0,0,-1.00006,83.45441,81.4591)" stroke-width=".79701" stroke-linecap="butt" stroke-miterlimit="10" stroke-linejoin="miter" fill="none" stroke="#d73589" d="M40.81946 40.81773V1.4346"/>
<path transform="matrix(0,1.00006,1.00005,0,124.27591,80.024417)" d="M1.0361 0C-.25902 .25902-1.55415 .77707-3.1083 1.68365-1.55415 .51805-1.55415-.51805-3.1083-1.68365-1.55415-.77707-.25902-.25902 1.0361 0Z" fill="#d73589"/>
<path transform="matrix(0,1.00006,1.00005,0,124.27591,80.024417)" stroke-width=".79701" stroke-linecap="butt" stroke-linejoin="round" fill="none" stroke="#d73589" d="M1.0361 0C-.25902 .25902-1.55415 .77707-3.1083 1.68365-1.55415 .51805-1.55415-.51805-3.1083-1.68365-1.55415-.77707-.25902-.25902 1.0361 0Z"/>
<path transform="matrix(1.00005,0,0,-1.00006,83.45441,81.4591)" d="M36.33621-13.79286H45.302698V-3.38733H36.33621Z" fill="#ffffff"/>
<use data-text="4" xlink:href="#font_3_2" transform="matrix(9.963098,0,0,-9.963197,121.785327,93.25981)" fill="#d73589"/>
</svg>
