<?xml version="1.0" encoding="UTF-8"?>
<svg xmlns="http://www.w3.org/2000/svg" xmlns:xlink="http://www.w3.org/1999/xlink" width="147pt" height="174pt" viewBox="0 0 147 174" version="1.1">
<g id="surface1">
<path style="fill:none;stroke-width:0.3985;stroke-linecap:butt;stroke-linejoin:miter;stroke:rgb(0%,67.83905%,93.728638%);stroke-opacity:1;stroke-miterlimit:10;" d="M -0.00046875 0.00109375 L 141.733906 0.00109375 M -0.00046875 17.008906 L 141.733906 17.008906 M -0.00046875 34.016719 L 141.733906 34.016719 M -0.00046875 51.024531 L 141.733906 51.024531 M -0.00046875 68.032344 L 141.733906 68.032344 M -0.00046875 85.040156 L 141.733906 85.040156 M -0.00046875 102.047969 L 141.733906 102.047969 M -0.00046875 119.059688 L 141.733906 119.059688 M -0.00046875 136.0675 L 141.733906 136.0675 M -0.00046875 153.075313 L 141.733906 153.075313 M -0.00046875 170.075313 L 141.733906 170.075313 M -0.00046875 0.00109375 L -0.00046875 170.083125 M 14.175312 0.00109375 L 14.175312 170.083125 M 28.347187 0.00109375 L 28.347187 170.083125 M 42.519062 0.00109375 L 42.519062 170.083125 M 56.694844 0.00109375 L 56.694844 170.083125 M 70.866719 0.00109375 L 70.866719 170.083125 M 85.038594 0.00109375 L 85.038594 170.083125 M 99.214375 0.00109375 L 99.214375 170.083125 M 113.38625 0.00109375 L 113.38625 170.083125 M 127.562031 0.00109375 L 127.562031 170.083125 M 141.73 0.00109375 L 141.73 170.083125 " transform="matrix(1,0,0,-1,3.02,170.88)"/>
<path style="fill:none;stroke-width:0.3985;stroke-linecap:butt;stroke-linejoin:miter;stroke:rgb(0%,0%,0%);stroke-opacity:1;stroke-miterlimit:10;" d="M 14.175312 2.551875 L 14.175312 -2.549687 " transform="matrix(1,0,0,-1,3.02,170.88)"/>
<path style="fill:none;stroke-width:0.3985;stroke-linecap:butt;stroke-linejoin:miter;stroke:rgb(0%,0%,0%);stroke-opacity:1;stroke-miterlimit:10;" d="M 2.124531 17.008906 L -2.125469 17.008906 " transform="matrix(1,0,0,-1,3.02,170.88)"/>
<path style="fill:none;stroke-width:0.3985;stroke-linecap:butt;stroke-linejoin:miter;stroke:rgb(0%,0%,0%);stroke-opacity:1;stroke-miterlimit:10;" d="M 28.347187 2.551875 L 28.347187 -2.549687 " transform="matrix(1,0,0,-1,3.02,170.88)"/>
<path style="fill:none;stroke-width:0.3985;stroke-linecap:butt;stroke-linejoin:miter;stroke:rgb(0%,0%,0%);stroke-opacity:1;stroke-miterlimit:10;" d="M 2.124531 34.016719 L -2.125469 34.016719 " transform="matrix(1,0,0,-1,3.02,170.88)"/>
<path style="fill:none;stroke-width:0.3985;stroke-linecap:butt;stroke-linejoin:miter;stroke:rgb(0%,0%,0%);stroke-opacity:1;stroke-miterlimit:10;" d="M 42.519062 2.551875 L 42.519062 -2.549687 " transform="matrix(1,0,0,-1,3.02,170.88)"/>
<path style="fill:none;stroke-width:0.3985;stroke-linecap:butt;stroke-linejoin:miter;stroke:rgb(0%,0%,0%);stroke-opacity:1;stroke-miterlimit:10;" d="M 2.124531 51.024531 L -2.125469 51.024531 " transform="matrix(1,0,0,-1,3.02,170.88)"/>
<path style="fill:none;stroke-width:0.3985;stroke-linecap:butt;stroke-linejoin:miter;stroke:rgb(0%,0%,0%);stroke-opacity:1;stroke-miterlimit:10;" d="M 56.694844 2.551875 L 56.694844 -2.549687 " transform="matrix(1,0,0,-1,3.02,170.88)"/>
<path style="fill:none;stroke-width:0.3985;stroke-linecap:butt;stroke-linejoin:miter;stroke:rgb(0%,0%,0%);stroke-opacity:1;stroke-miterlimit:10;" d="M 2.124531 68.032344 L -2.125469 68.032344 " transform="matrix(1,0,0,-1,3.02,170.88)"/>
<path style="fill:none;stroke-width:0.3985;stroke-linecap:butt;stroke-linejoin:miter;stroke:rgb(0%,0%,0%);stroke-opacity:1;stroke-miterlimit:10;" d="M 70.866719 2.551875 L 70.866719 -2.549687 " transform="matrix(1,0,0,-1,3.02,170.88)"/>
<path style="fill:none;stroke-width:0.3985;stroke-linecap:butt;stroke-linejoin:miter;stroke:rgb(0%,0%,0%);stroke-opacity:1;stroke-miterlimit:10;" d="M 2.124531 85.040156 L -2.125469 85.040156 " transform="matrix(1,0,0,-1,3.02,170.88)"/>
<path style="fill:none;stroke-width:0.3985;stroke-linecap:butt;stroke-linejoin:miter;stroke:rgb(0%,0%,0%);stroke-opacity:1;stroke-miterlimit:10;" d="M 85.038594 2.551875 L 85.038594 -2.549687 " transform="matrix(1,0,0,-1,3.02,170.88)"/>
<path style="fill:none;stroke-width:0.3985;stroke-linecap:butt;stroke-linejoin:miter;stroke:rgb(0%,0%,0%);stroke-opacity:1;stroke-miterlimit:10;" d="M 2.124531 102.047969 L -2.125469 102.047969 " transform="matrix(1,0,0,-1,3.02,170.88)"/>
<path style="fill:none;stroke-width:0.3985;stroke-linecap:butt;stroke-linejoin:miter;stroke:rgb(0%,0%,0%);stroke-opacity:1;stroke-miterlimit:10;" d="M 99.214375 2.551875 L 99.214375 -2.549687 " transform="matrix(1,0,0,-1,3.02,170.88)"/>
<path style="fill:none;stroke-width:0.3985;stroke-linecap:butt;stroke-linejoin:miter;stroke:rgb(0%,0%,0%);stroke-opacity:1;stroke-miterlimit:10;" d="M 2.124531 119.059688 L -2.125469 119.059688 " transform="matrix(1,0,0,-1,3.02,170.88)"/>
<path style="fill:none;stroke-width:0.3985;stroke-linecap:butt;stroke-linejoin:miter;stroke:rgb(0%,0%,0%);stroke-opacity:1;stroke-miterlimit:10;" d="M 113.38625 2.551875 L 113.38625 -2.549687 " transform="matrix(1,0,0,-1,3.02,170.88)"/>
<path style="fill:none;stroke-width:0.3985;stroke-linecap:butt;stroke-linejoin:miter;stroke:rgb(0%,0%,0%);stroke-opacity:1;stroke-miterlimit:10;" d="M 2.124531 136.0675 L -2.125469 136.0675 " transform="matrix(1,0,0,-1,3.02,170.88)"/>
<path style="fill:none;stroke-width:0.3985;stroke-linecap:butt;stroke-linejoin:miter;stroke:rgb(0%,0%,0%);stroke-opacity:1;stroke-miterlimit:10;" d="M 127.562031 2.551875 L 127.562031 -2.549687 " transform="matrix(1,0,0,-1,3.02,170.88)"/>
<path style="fill:none;stroke-width:0.3985;stroke-linecap:butt;stroke-linejoin:miter;stroke:rgb(0%,0%,0%);stroke-opacity:1;stroke-miterlimit:10;" d="M 2.124531 153.075313 L -2.125469 153.075313 " transform="matrix(1,0,0,-1,3.02,170.88)"/>
<path style="fill:none;stroke-width:0.3985;stroke-linecap:butt;stroke-linejoin:miter;stroke:rgb(0%,0%,0%);stroke-opacity:1;stroke-miterlimit:10;" d="M 141.733906 2.551875 L 141.733906 -2.549687 " transform="matrix(1,0,0,-1,3.02,170.88)"/>
<path style="fill:none;stroke-width:0.3985;stroke-linecap:butt;stroke-linejoin:miter;stroke:rgb(0%,0%,0%);stroke-opacity:1;stroke-miterlimit:10;" d="M 2.124531 170.083125 L -2.125469 170.083125 " transform="matrix(1,0,0,-1,3.02,170.88)"/>
</g>
</svg>
