<?xml version="1.0" encoding="UTF-8"?>
<svg xmlns="http://www.w3.org/2000/svg" xmlns:xlink="http://www.w3.org/1999/xlink" width="107pt" height="67pt" viewBox="0 0 107 67" version="1.1">
<g id="surface1">
<path style="fill:none;stroke-width:2.83466;stroke-linecap:butt;stroke-linejoin:miter;stroke:rgb(78.039551%,16.487122%,51.637268%);stroke-opacity:1;stroke-miterlimit:10;" d="M 0.00128125 -0.00028125 L 0.00128125 28.347375 L 56.692687 28.347375 L 56.692687 -0.00028125 Z M 0.00128125 -0.00028125 " transform="matrix(1,0,0,-1,2.112,30.363)"/>
<path style="fill:none;stroke-width:2.83466;stroke-linecap:butt;stroke-linejoin:miter;stroke:rgb(78.039551%,16.487122%,51.637268%);stroke-opacity:1;stroke-miterlimit:10;" d="M 0.00128125 -0.00028125 L 0.00128125 -34.015906 L 56.692687 -34.015906 L 56.692687 -0.00028125 Z M 0.00128125 -0.00028125 " transform="matrix(1,0,0,-1,2.112,30.363)"/>
<path style="fill:none;stroke-width:2.83466;stroke-linecap:butt;stroke-linejoin:miter;stroke:rgb(78.039551%,16.487122%,51.637268%);stroke-opacity:1;stroke-miterlimit:10;" d="M 56.692687 -0.00028125 L 56.692687 28.347375 L 102.048156 28.347375 L 102.048156 -0.00028125 Z M 56.692687 -0.00028125 " transform="matrix(1,0,0,-1,2.112,30.363)"/>
<path style="fill:none;stroke-width:2.83466;stroke-linecap:butt;stroke-linejoin:miter;stroke:rgb(78.039551%,16.487122%,51.637268%);stroke-opacity:1;stroke-miterlimit:10;" d="M 56.692687 -0.00028125 L 56.692687 -34.015906 L 102.048156 -34.015906 L 102.048156 -0.00028125 Z M 56.692687 -0.00028125 " transform="matrix(1,0,0,-1,2.112,30.363)"/>
</g>
</svg>
