<?xml version="1.0" encoding="UTF-8"?>
<svg xmlns="http://www.w3.org/2000/svg" xmlns:xlink="http://www.w3.org/1999/xlink" width="116pt" height="88pt" viewBox="0 0 116 88" version="1.1">
<g id="surface1">
<path style="fill-rule:nonzero;fill:rgb(50%,83.918762%,96.864319%);fill-opacity:0.5;stroke-width:1.19553;stroke-linecap:butt;stroke-linejoin:miter;stroke:rgb(0%,0%,0%);stroke-opacity:0.5;stroke-miterlimit:10;" d="M -0.00003125 -0.00128125 L -0.00003125 85.041688 L 28.347625 85.041688 L 28.347625 -0.00128125 Z M -0.00003125 -0.00128125 " transform="matrix(1,0,0,-1,1.293,86.237)"/>
<path style="fill-rule:nonzero;fill:rgb(50%,83.918762%,96.864319%);fill-opacity:0.5;stroke-width:1.19553;stroke-linecap:butt;stroke-linejoin:miter;stroke:rgb(0%,0%,0%);stroke-opacity:0.5;stroke-miterlimit:10;" d="M 28.347625 -0.00128125 L 28.347625 85.041688 L 56.695281 85.041688 L 56.695281 -0.00128125 Z M 28.347625 -0.00128125 " transform="matrix(1,0,0,-1,1.293,86.237)"/>
<path style="fill-rule:nonzero;fill:rgb(50%,83.918762%,96.864319%);fill-opacity:0.5;stroke-width:1.19553;stroke-linecap:butt;stroke-linejoin:miter;stroke:rgb(0%,0%,0%);stroke-opacity:0.5;stroke-miterlimit:10;" d="M 56.695281 -0.00128125 L 56.695281 85.041688 L 85.039031 85.041688 L 85.039031 -0.00128125 Z M 56.695281 -0.00128125 " transform="matrix(1,0,0,-1,1.293,86.237)"/>
<path style="fill:none;stroke-width:1.19553;stroke-linecap:butt;stroke-linejoin:miter;stroke:rgb(0%,0%,0%);stroke-opacity:1;stroke-miterlimit:10;" d="M 85.039031 -0.00128125 L 85.039031 85.041688 L 113.386687 85.041688 L 113.386687 -0.00128125 Z M 85.039031 -0.00128125 " transform="matrix(1,0,0,-1,1.293,86.237)"/>
</g>
</svg>
